<?xml version="1.0" encoding="UTF-8"?>
<svg id="Layer_1" xmlns="http://www.w3.org/2000/svg" version="1.1" viewBox="0 0 2004 456">
  <!-- Generator: Adobe Illustrator 30.2.1, SVG Export Plug-In . SVG Version: 2.1.1 Build 1)  -->
  <path d="M845.31,0h16.01l1.94.31c14.08,1.76,27.33,6.51,39.29,14.15,17.56,11.17,31.3,26.97,42.97,44.02,16.66,24.68,29.44,52.86,40.52,80.44,17.67,44.39,31.38,89.29,48.23,133.81,6.27,16.45,12.82,32.72,20.4,48.62,6.09,12.53,12.87,25.53,21.45,36.55,5.16,6.54,10.77,12.51,18.61,15.76.05-82.88,0-165.77.02-248.66-.12-14.51.32-29,.39-43.51-5.47,2.37-9.62,5.37-13.6,9.8-1.12-.76-2.24-1.52-3.36-2.28.53-.68,1.05-1.36,1.57-2.04-1.42-2.13-2.9-3.95-3.29-6.58-1.17-6.31-3.92-12.59-6.38-18.45-1.27-6.91-5.08-12.7-6.86-19.45-1.3-4.75-3.82-9.04-4.73-13.85-.6-3.29-2.3-6.28-3.67-9.44-.67-1.74-2-2.73-3.36-3.9.02-.87.04-1.74.07-2.61,12.76-7.24,26.39-11.64,41.07-12.69h12.86c9.54,1.07,18.57,2.06,27.44,6.01,24.8,10.58,41.68,36.1,42.34,62.98.37,48,.13,96.01.19,144.01,0,55.67-.03,111.33-.02,167,.13,8.1-.33,15.99-2.64,23.79-4.8,17.41-16.41,32.78-31.9,42.07-12.17,7.45-26.08,9.72-40.14,10.14h-4.61c-17.57-.35-34.8-5.97-49.37-15.75-10.05-6.54-18.47-14.67-26.45-23.55-12.59-14.45-23.02-31.15-31.94-48.07-23.92-45.71-40.5-97.71-57.61-146.4-9.61-27.37-19.57-54.95-31.62-81.35-6.59-14.33-14-28.86-23.41-41.56-5.3-6.84-11.59-13.91-19.84-17.13.03,67.93-.09,135.88.12,203.81-.01,29.45.05,58.89-.15,88.34,5.39-2.5,10.09-5.84,14-10.33,3.09,5.57,5.7,11.51,7.37,17.68,1.03,3.49,3.08,6.37,3.5,10.07,1.27,3.85,3.69,7.04,4.15,11.22.7,5.73,4.04,10.01,5.69,15.4,2.93,6.73,5.31,13.62,7.48,20.62.44,1.45.5,2.91.63,4.41-9.32,5.13-19.16,9.11-29.68,10.93-5.27,1.07-10.57,1.22-15.91,1.66h-2.41c-9.95-.63-19.4-1.37-28.93-4.71-15.52-5.48-28.68-17-36.75-31.28-6.33-10.92-9.42-23.38-9.5-35.98-.44-103.62-.13-207.37-.21-311.03.03-14.25,3.62-28.31,11.45-40.3,9.5-15.08,24.8-26.51,42.29-30.39,5.35-1.13,10.82-1.99,16.29-2.31Z" fill="#262833"/>
  <path d="M7.96,5.79c25.29-.09,50.75-.03,76.04-.03,24.42.28,48.09,11.87,63.17,31.09,11.35,14.21,17.6,31.96,17.8,50.15.07,96.49-.06,193.03.07,289.53,23.99-.06,47.97.02,71.96-.05,1.86.05,4.04,0,5.76.77,2.58,1.18,4.26,3.87,4.2,6.71.07,18.99-.04,38.05.05,57.04-.05,2.1.05,3.99-1.18,5.8-1.79,2.73-4.71,3.49-7.82,3.46-74.41-.01-149.67-.03-224.01.01-3.81-.11-8.08.63-11.17-2.11-2.14-1.93-2.34-4.44-2.35-7.16.09-18.98-.04-38.06.07-57.03.01-4.21,3.27-7.29,7.41-7.41,24.78-.14,49.76.02,74.55-.08-.01-87.49,0-174.99-.01-262.48-.03-3.32.2-6.71-.18-10-1.08-6.21-5.37-11.66-11.13-14.2-3.62-1.69-7.27-1.78-11.19-1.83-17.35.03-34.64,0-52.03.02-4.38.24-7.77-3.71-7.47-7.98.04-22.3-.04-44.77.04-67.04.1-4.09,3.37-7.16,7.42-7.18Z" fill="#5e9f52"/>
  <path d="M421,5.75c51.31-.01,102.71.02,154.01-.01,2.62-.09,4.97.54,6.72,2.58,1.79,1.94,1.77,4.19,1.8,6.68-.08,18.32.03,36.72-.05,55.03.05,3.96-3.47,7.41-7.45,7.2-46.12.05-92.85,0-139.03.02-13.24.31-27.29,1.39-39.83,5.95-10.28,3.73-19.22,10.74-24.77,20.23-6.8,11.57-8.96,26.35-9.74,39.56-.75,19.73-.28,39.5-.41,59.24,53.92.03,107.86,0,161.79.02,4.45-.11,7.74,3.34,7.69,7.75.09,17.98-.03,36.02.05,54-.04,1.99.06,4.07-.75,5.94-1.22,2.83-4.09,4.58-7.16,4.55-53.82.06-107.84-.04-161.64.05.03,55.9.04,112.6,0,168.49.13,3.8-3.45,7.13-7.19,6.97-22.34.02-44.72-.02-67.06.01-3.74.31-7.19-2.31-7.79-6.02-.38-2.96-.16-6.01-.19-8.99,0-94,.01-188-.01-282,.35-21.89,1.75-43.62,6.9-64.98,2.24-8.89,5.05-17.92,9.15-26.14,5.35-10.59,12.87-20.21,22.06-27.74,12.96-10.79,28.41-17.65,44.71-21.67,18.78-4.77,38.86-6.36,58.19-6.72Z" fill="#262833"/>
  <path d="M631.98,5.76c19.61-.03,39.39,0,59.02-.01,4.06.3,10.11-1.14,13.13,2.13,3.08,2.84,2.26,7.36,2.39,11.12-.03,139.33-.03,278.67,0,418-.12,3.38.6,7.93-1.93,10.58-1.99,2.37-4.66,2.67-7.58,2.68-21.34-.02-42.69,0-64.03-.01-2.6-.04-5-.39-6.83-2.41-2.84-2.69-2.04-7.29-2.17-10.84.04-138.67.01-277.33.02-416,.11-3.4-.42-7.25.61-10.51,1.31-3.03,4.02-4.86,7.37-4.73Z" fill="#262833"/>
  <path d="M1241,5.98c2.94-.44,6.02-.19,9-.23,19.67,0,39.34.01,59-.01,2.64-.04,4.98.43,6.76,2.52,2.79,2.99,1.84,7.97,2.01,11.74-.01,139-.03,278,0,417-.13,3.52.65,7.94-2.04,10.7-2.07,2.39-4.76,2.53-7.73,2.57-21.32-.04-42.7-.01-64.02-.02-3.91.18-7.49-1.87-8.48-5.79-.5-3.09-.2-6.34-.26-9.46,0-140.35.01-280.69,0-421.04-.18-3.71,2.06-7.13,5.76-7.98Z" fill="#262833"/>
  <path d="M1360.01,5.98c3.28-.46,6.68-.18,9.99-.23,108-.01,216,.02,324-.01,9.14-.27,18.29,1.21,26.79,4.61,15.55,6.04,28.53,18.06,35.79,33.07,23.25,49.05,46.52,98.08,69.76,147.13.65,1.36,1.36,2.68,2.07,4.01,28.68-60.88,57.76-121.67,86.54-182.5,1.45-3.15,3.1-6.1,6.98-6.27,24.63-.09,49.45-.02,74.1-.03,5.93-.08,9.04,6.53,6.23,11.49-42.3,83.38-84.52,166.81-126.8,250.2-1.5,3.26-4.32,6.88-3.98,10.55.07,52.99-.01,106.01.03,159,0,2.19.11,4.4-.09,6.58-.47,3.61-3.65,6.61-7.37,6.41-23.68.02-47.41.01-71.09.01-4.43.12-7.6-3.68-7.44-7.98-.04-54.68-.03-109.36-.01-164.03.12-2.6-1.9-5.23-2.99-7.52-29.23-57.76-58.53-115.48-87.77-173.23-4.23-8.63-12.33-15.16-21.75-17.21-4.74-1.06-9.19-.75-14-.78h-92.23c-.02,119.58-.02,239.17,0,358.75-.15,2.91.62,6.99-1.43,9.34-1.55,2.07-3.74,3-6.32,2.92-20.33-.01-40.68-.02-61.02,0-2.65-.02-5.37.16-7.99-.2-3.28-.8-5.4-3.89-5.49-7.19-.08-121.17.04-242.48-.06-363.64-39.49.06-78.97-.02-118.46.04-3.06-.11-6.14.53-8.66-1.56-2.47-1.96-2.9-4.71-2.86-7.71.05-18.66-.01-37.36.02-56.01-.13-3.76,1.84-6.96,5.51-8.01Z" fill="#262833"/>
  <path d="M1051.53,12.69c-.03.87-.05,1.74-.07,2.61,1.36,1.17,2.69,2.16,3.36,3.9,1.37,3.16,3.07,6.15,3.67,9.44.91,4.81,3.43,9.1,4.73,13.85,1.78,6.75,5.59,12.54,6.86,19.45,2.46,5.86,5.21,12.14,6.38,18.45.39,2.63,1.87,4.45,3.29,6.58-.52.68-1.04,1.36-1.57,2.04,1.12.76,2.24,1.52,3.36,2.28-5.72,6.21-10.57,13.11-14.9,20.35-14.01,23.6-24.35,50.27-34.23,75.83-.85,1.97-2.49,2-4.37,1.64-1.61-1.08-2.08-3.64-2.78-5.36-10.59-30.15-21.92-60.45-35.69-89.3-1.58-3.26-1.54-6.51.2-9.7,9.34-17.24,19.68-33.54,32.85-48.15,8.38-9.04,18.09-17.89,28.91-23.91Z" fill="#5e9f52"/>
  <path d="M924.36,268.78c11.14,31.38,22.27,62.11,36.64,92.26,1.62,3.16,1.86,6.86.07,10-9.44,17.43-20.35,34.59-33.85,49.17-8.32,8.92-17.85,17.26-28.55,23.2-.13-1.5-.19-2.96-.63-4.41-2.17-7-4.55-13.89-7.48-20.62-1.65-5.39-4.99-9.67-5.69-15.4-.46-4.18-2.88-7.37-4.15-11.22-.42-3.7-2.47-6.58-3.5-10.07-1.67-6.17-4.28-12.11-7.37-17.68,10-11.26,17.11-23.93,23.88-37.29,8.4-17.07,15.7-34.79,22.45-52.57.83-2.13,1.5-4.39,2.57-6.41,1.54-2.13,4.86-1.52,5.61,1.04Z" fill="#5e9f52"/>
  <metadata>
    <sfw xmlns="http://ns.adobe.com/SaveForWeb/1.0/">
      <slices/>
      <sliceSourceBounds x="0.48" y="0" width="2002.83" height="456" bottomLeftOrigin="true"/>
    </sfw>
  </metadata>
  <metadata><?xpacket begin="﻿" id="W5M0MpCehiHzreSzNTczkc9d"?>
<x:xmpmeta xmlns:x="adobe:ns:meta/" x:xmptk="Adobe XMP Core 10.0-c000 1.000000, 0000/00/00-00:00:00        ">
   <rdf:RDF xmlns:rdf="http://www.w3.org/1999/02/22-rdf-syntax-ns#">
      <rdf:Description rdf:about=""
            xmlns:xmp="http://ns.adobe.com/xap/1.0/"
            xmlns:xmpGImg="http://ns.adobe.com/xap/1.0/g/img/"
            xmlns:xmpTPg="http://ns.adobe.com/xap/1.0/t/pg/"
            xmlns:stDim="http://ns.adobe.com/xap/1.0/sType/Dimensions#"
            xmlns:xmpG="http://ns.adobe.com/xap/1.0/g/"
            xmlns:dc="http://purl.org/dc/elements/1.1/">
         <xmp:CreatorTool>Adobe Illustrator 30.2 (Windows)</xmp:CreatorTool>
         <xmp:CreateDate>2026-02-27T14:26:22-05:00</xmp:CreateDate>
         <xmp:Thumbnails>
            <rdf:Alt>
               <rdf:li rdf:parseType="Resource">
                  <xmpGImg:width>256</xmpGImg:width>
                  <xmpGImg:height>60</xmpGImg:height>
                  <xmpGImg:format>JPEG</xmpGImg:format>
                  <xmpGImg:image>/9j/4AAQSkZJRgABAgEAAAAAAAD/7QAsUGhvdG9zaG9wIDMuMAA4QklNA+0AAAAAABAAAAAAAAEA&#xA;AQAAAAAAAQAB/+4ADkFkb2JlAGTAAAAAAf/bAIQABgQEBAUEBgUFBgkGBQYJCwgGBggLDAoKCwoK&#xA;DBAMDAwMDAwQDA4PEA8ODBMTFBQTExwbGxscHx8fHx8fHx8fHwEHBwcNDA0YEBAYGhURFRofHx8f&#xA;Hx8fHx8fHx8fHx8fHx8fHx8fHx8fHx8fHx8fHx8fHx8fHx8fHx8fHx8fHx8f/8AAEQgAPAEAAwER&#xA;AAIRAQMRAf/EAaIAAAAHAQEBAQEAAAAAAAAAAAQFAwIGAQAHCAkKCwEAAgIDAQEBAQEAAAAAAAAA&#xA;AQACAwQFBgcICQoLEAACAQMDAgQCBgcDBAIGAnMBAgMRBAAFIRIxQVEGE2EicYEUMpGhBxWxQiPB&#xA;UtHhMxZi8CRygvElQzRTkqKyY3PCNUQnk6OzNhdUZHTD0uIIJoMJChgZhJRFRqS0VtNVKBry4/PE&#xA;1OT0ZXWFlaW1xdXl9WZ2hpamtsbW5vY3R1dnd4eXp7fH1+f3OEhYaHiImKi4yNjo+Ck5SVlpeYmZ&#xA;qbnJ2en5KjpKWmp6ipqqusra6voRAAICAQIDBQUEBQYECAMDbQEAAhEDBCESMUEFURNhIgZxgZEy&#xA;obHwFMHR4SNCFVJicvEzJDRDghaSUyWiY7LCB3PSNeJEgxdUkwgJChgZJjZFGidkdFU38qOzwygp&#xA;0+PzhJSktMTU5PRldYWVpbXF1eX1RlZmdoaWprbG1ub2R1dnd4eXp7fH1+f3OEhYaHiImKi4yNjo&#xA;+DlJWWl5iZmpucnZ6fkqOkpaanqKmqq6ytrq+v/aAAwDAQACEQMRAD8AHtq+rMxZr2csxqSZXqSf&#xA;pzRcZ73R8Z71ez8y+YLKUS22o3EbA1p6jFT81JKn6RhjlkORTHJIci9m/L3zqfMdjJHdBU1K0p6w&#xA;XZXRvsuo7dKEf1zZ6fPxjfmHZ6fNxjfmy3MlyEq80+ZtJ8saDea5qsnp2VmnN6ULMxNFRASKs7EA&#xA;DEBXyZ50/wCcjvzC167kGmXR0LTKkRW1oR6tOxkuCOZb/V4j2y0RDG2B3PnTzjdV+s67qM9TyPqX&#xA;c779K/E5w0qH/wAS+Y/+rref9JEv/NWNK7/EvmP/AKut5/0kS/8ANWNK+pPyD1jVrn8mNTurm8mn&#xA;ubWW9FvNK7O6BIFdQGYk7MSRlcuaQ+XG8z+ZWYs2rXhYmpJuJSST/ssspD7C/wCceNQvr/8AKrTL&#xA;i+uJbqcy3KmaZ2kchZ3ABZiTsMrlzSGNf85Jfmtqvli1s/LuhTm11PUo2nurxDSSK25FFEZ/ZaRl&#xA;b4uo47bmoMQpfKk1zcTztcTSvLO55PK7FnLeJY71yxD1T8p/z78w+VNQhstbuZtT8uSEJLFKxkmt&#xA;x05wM3xUXulaHtQ5ExTb6/s7y1vbSG8tJVntbmNZYJkNVeNxyVlPgQcqS8i/Mv8AMS8vhdaJoV09&#xA;nb8Xil1GBisrORSsTqQVVT3HX5ddfl1dSqPIOBl1R4qjyD5Lumu1vJDcu5u0ciV3JL81NDUneoIz&#xA;bA2HMBt9Af8AON35ua5Prsfk3XLqS+truNzpc87F5IpIkLmLm25RkU0qdiAB1yMgyD07/nIe/vrH&#xA;8qdUnsriS1mMlsnqwu0b8WnQMOSkGhGxyMeal8ejzN5kBBGrXgI3BFxL/wA1ZZSH01/zkNrOrW35&#xA;P6BdW15NBcXd3ZrczRSMjyBrOaRgxUgkF1B+eQjzSXzJ/iXzH/1dbz/pIl/5qydId/iXzH/1dbz/&#xA;AKSJf+asaV3+JfMf/V1vP+kiX/mrGld/iXzH/wBXW8/6SJf+asaV3+JfMf8A1dbz/pIl/wCasaVk&#xA;/kn85fPflXUobiLU576xVh9Y027leWGRKjkF5lvTanRl/EbYDFbfa3l/XLDXdEsdZ09+dnfwpPCe&#xA;4DivFvBlOxHjlTJH4q+Yf+cnfzLvn8w2/lXR7yW3h0xRLqTwSNHzuJQCiMVIqI46H5sfDLIhBec/&#xA;lnB5w81ed9K0i01a+j5zLLcXCzyExQQnnJJuSKgD4a/tUGEofULfkroBJ4310K9B+7NP+FzW/ko9&#xA;5cX8lHvLzTzXoP6B1250z1fWSLi0clKEq6hhUeO+YOXHwSpwcuPglTJPybkZfNcyg/C9pIGHydDl&#xA;+i+v4N+j+v4Pas2js3z/AP8AOXWtzQ6LoGixuRHeTzXU6g9fqyqiV9qzk/Rk4IL5s0nS7zVtUs9L&#xA;sk9S8vpo7e3ToDJKwRansKnJofWXln/nF/8ALqwsYV1qObWb/iPrEjzSQRc6b+mkLRsF8OTE5WZF&#xA;NJ1/0Lt+Tn/Uv/8AT5ff9V8eIrTv+hdvyc/6l/8A6fL7/qvjxFaZAPKvl/yv5H1PSdBs1srBLa6k&#xA;ESs7ku8bcmZ5Gd2PzPtgtL4Jy5i+zf8AnGv/AMlHpf8Axmuv+oh8qlzSHjv/ADln/wCTG07/ALY8&#xA;P/UVc5KHJSwP8rfI0XnfzM+gvcG1kktJ5bacCqiaNQU5juhPWm+SJpDG9X0m/wBI1S70vUIjDe2U&#xA;rwXER7OhoaHuPA98Ve/fkB551TUvJGu+S0lP6R0+2kutIavxG3c/vol91Zvh/wBb2yjUA8JrmwyX&#xA;wmuaXAEkACpOwA61zQumYn+df5ep5Sm0i7kdvr+tpNcXdvtwiKemAq03LHkSx8envvtMCIAF3GKJ&#xA;EQCgfyF/8m55c/4zS/8AUPJl0uTYH0f/AM5Kf+Sj1T/jNa/9RCZCPNJfGWWofd955J8uecPI+j6X&#xA;r9sbmzjhtbiNFkeIrKkHEMGQqfsuw+nKbpkx3/oWv8o/+rXN/wBJVx/zXh4iinn/AOeX5M+QPKfk&#xA;KXV9EsZIL5LmGJZGnlkHFyQw4uxGGMiSpfOWWIfY9l/zjh+U0tlbyvpkxeSNGY/WrjqVBP7eVcRT&#xA;TV9/zjJ+Vc9pLDb2lxaTupEdylxK7I3ZuMhZT8iMeIrT5N80eXb/AMueYdQ0O/FLrT5mhc0oGA3R&#xA;1r+y6kMPY5YCh9C/84peejcWF95NvJf3lpW80sMdzE7fv4x/quQ4H+UfDITCQ9r85eZ7Lyv5X1HX&#xA;rwj0rGFpFQ/tyH4Yox7u5C/TkQEvgXVNTvdU1K61K+kMt5eyvPcSH9p5GLMfvOWsX1J/zi75BOk+&#xA;WZvNN5Fxvta+C05CjJZxnY/89XHL3AU5CZSHt+QS8I/Nb/lNbv8A1If+TS5qNX/eF1Oq+sov8nf+&#xA;Utf/AJhZP+JJktH9fwZaP6/g9szau0fMP/OXkrnXvLsR+wlrOw+bSKD/AMRGWQQXnP5HQCf82PLa&#xA;E0pcmTpX+7id/wDjXDLkgPuTKmTsVdiqW+Zf+Uc1X/mDuP8Ak02IV+emXsX2b/zjX/5KPS/+M11/&#xA;1EPlUuaQ8d/5yz/8mNp3/bHh/wCoq5yUOSlLf+cYf/Jqwf8AMHc/8RGGXJQyT/nK/wAlraazp/m2&#xA;2SkWpD6pfkdPrES1iY+7xAj/AGGCBUvJ/wAt/Nb+VPO+k64GIgtpwt2B+1byfu5hTv8AAxI96ZIh&#xA;D6h0fyVH/wArMnoobS7WmoQkboyy7wqvsHr/AMDmphg/e+Q3cGGD975Dd59/zl//AMdLyz/xhu/+&#xA;JRZtIOeXnH5C/wDk3PLn/GaX/qHkwy5ID6P/AOclP/JR6p/xmtf+ohMhHmkvjLLUP0L8tf8AKOaV&#xA;/wAwdv8A8mlygskyxV5N/wA5Pf8Akq5/+Yy2/wCJHJR5oL47y1D9FNM/45tp/wAYY/8AiIyhkicV&#xA;fPP/ADlX5BEtpaedLKL95b8bTVuI6xsaQSt/qseBPuvhk4FBeB+SvNF35V81abr9rVpLGYO8YNOc&#xA;R+GWP/ZoxXJkIexf85OfmVaaxFo/l3SJxLYPFFqt3Ih2YzpW2Q08I35kf5S+GRiEl5V+Wnkufzl5&#xA;z0/Q0BFvK/qX0q/sW0fxStXsSPhX/KIyRNIfeNtbQWttFbW8Yit4EWOGJRRVRBxVQPAAZSyVMVeE&#xA;fmt/ymt3/qQ/8mlzUav+8LqdV9ZRf5O/8pa//MLJ/wASTJaP6/gy0f1/B7Zm1do+X/8AnLv/AJSP&#xA;QP8AmDl/5O5ZBBeH6JreqaHqlvqulXBtdQtSWgnUKxUspU7MGHRj2ySGY/8AK+vzc/6mOb/kVb/9&#xA;U8HCFt3/ACvr83P+pjm/5FW//VPHhC29x/5xo8/+bvNqeYk8w6g1/wDUTZm1Z0jQr63r8xWNVrX0&#xA;l65GQpIeueZf+Uc1X/mDuP8Ak02QCX56ZexfZv8AzjX/AOSj0v8A4zXX/UQ+VS5pDx3/AJyz/wDJ&#xA;jad/2x4f+oq5yUOSlLf+cYf/ACasH/MHc/8AERhlyUPpL84PKn+KPy71jTUTldpCbqyAFW9e3/eK&#xA;q+78Sn05XE7pL4Uy5i+2/wAhfNP+I/y00uaV+d5p6nTrs9TytqCOp8TEyN8zlMhukPKf+cv/APjp&#xA;eWf+MN3/AMSiycFLzj8hf/JueXP+M0v/AFDyYZckB9H/APOSn/ko9U/4zWv/AFEJkI80l8ZZah+h&#xA;flr/AJRzSv8AmDt/+TS5QWSZYq8m/wCcnv8AyVc//MZbf8SOSjzQXx3lqH6KaZ/xzbT/AIwx/wDE&#xA;RlDJE4qgtc0ax1rR7zSL9PUs76F4J178XFKjwI6g+OKvgXzb5bvvLPmTUNCvh/pFhM0RalA69UkH&#xA;s6EMPnlwLFKSSepr2+7Cr6y/5xf8hfobyrL5lvI+Ooa5T6vyG6WaH4P+RrfF7jjlUikPa8il2KvC&#xA;PzW/5TW7/wBSH/k0uajV/wB4XU6r6yi/yd/5S1/+YWT/AIkmS0f1/Blo/r+D2zNq7R8v/wDOXf8A&#xA;ykegf8wcv/J3LIILyf8ALfyvaeavO2laBeSyQW1/I6SSw8eahYmf4eQYdV8MkSh9Cf8AQpHkv/q8&#xA;al98H/VPIcaad/0KR5L/AOrxqX3wf9U8eNaZ5+WP5SaH+XqaiNMu7m7bUzD67XJT4RBz4BQip/v1&#xA;q1yJNpZN5l/5RzVf+YO4/wCTTYAr89MvYvs3/nGv/wAlHpf/ABmuv+oh8qlzSHjv/OWf/kxtO/7Y&#xA;8P8A1FXOShyUpb/zjD/5NWD/AJg7n/iIwy5KH0r5287DQNT0i0RhSeUSX1QCRbV4d/Ekkf6uYOfP&#xA;wEBx8+fgID5C/N/yp/hf8wtX02NAlm8purHiKL9XuP3iBfZKlP8AY5nRNhveg/8AOKnnAaf5qvfL&#xA;Vw9INYi9W1BOwubcFqD/AF4i1f8AVGCYSEz/AOcv/wDjpeWf+MN3/wASixgpecfkL/5Nzy5/xml/&#xA;6h5MMuSA+j/+clP/ACUeqf8AGa1/6iEyEeaS+MstQ/Qvy1/yjmlf8wdv/wAmlygskyxV5N/zk9/5&#xA;Kuf/AJjLb/iRyUeaC+O8tQ/RTTP+Obaf8YY/+IjKGSJxV2KvmP8A5y70axt9Y8vavEnG8v4bmC5Y&#xA;dGW1MRjJ9/37CvhTwyyCC8P8tWEGo+YtK0+evoXl5b28tNjwllVGp9ByRQ/Qi2toLW2itreMRW8C&#xA;LHDEooqog4qoHgAMpZKmKuxV4R+a3/Ka3f8AqQ/8mlzUav8AvC6nVfWUX+Tv/KWv/wAwsn/EkyWj&#xA;+v4MtH9fwe2ZtXaPl/8A5y7/AOUj0D/mDl/5O5ZBBYB+Qv8A5Nzy5/xml/6h5MMuSA+38qZOxV2K&#xA;pb5l/wCUc1X/AJg7j/k02IV+emXsX2b/AM41/wDko9L/AOM11/1EPlUuaQ8d/wCcs/8AyY2nf9se&#xA;H/qKuclDkpSD/nHjWdM0b8xo7/UrhLa1jtLhTI5pVnAVVXxZmNAB1xmaFout3oHmbXZ9d1q51KUF&#xA;RK1IY/5I12Rfu6++c/lyccrdPlyccrQH5yaHL5l/LbSfN8KF77y+x0zU2A+1bEgxPXvwZ1/4M5t9&#xA;Hk4oOy08+KA8nhuj6tfaRqtpqlhJ6V5YzJPbv4PGwYVHcbbjMtueq/n7580bzrpvlHV9OkX1Tb3K&#xA;31pWr289YuUbDrSv2T3G+RiKSWO/kL/5Nzy5/wAZpf8AqHkwy5ID6P8A+clP/JR6p/xmtf8AqITI&#xA;R5pL4yy1D9C/LX/KOaV/zB2//JpcoLJMsVeTf85Pf+Srn/5jLb/iRyUeaC+O8tQ/RTTP+Obaf8YY&#xA;/wDiIyhkicVdir5w/wCcwv8Apkv+3j/2K5OCC8L8j/8AKaaB/wBtK0/5Ppkyh+geUsnYq+W2ZmYs&#xA;xLMxqSdySc0DoWsVdiqtZMyXkDKSrLIhVhsQQw3GGPNMebX/ADl3/wApHoH/ADBy/wDJ3Oig7wsA&#xA;/IX/AMm55c/4zS/9Q8mGXJAfb+VMnYq7FUt8y/8AKOar/wAwdx/yabEK/PTL2L7N/wCca/8AyUel&#xA;/wDGa6/6iHyqXNIebf8AOWvlfUP0tpHmiNGexNsNOuHAqIpI5Hlj5eHqCVqf6uSgVL57BIIINCOh&#xA;yaHvfkOy1DzdFYrYpylnQG4elEjKnjIzeChgaeOaGenPiGIdUcJ4+EPouz8raRb+W/8ADzwrPp8k&#xA;LQXKOP70SAiQt/rVObTHAQFB2kICIoPjD81/yv1byFr720qtNo9yzNpd/TZ4+vByNhInRh9I2OZA&#xA;NpYRklesf841eV9Q1X8ybXVI0YWGipJPdT0+HlJG0UUdenJmetPAHIyOyh7r/wA5Kf8Ako9U/wCM&#xA;1r/1EJkI80l8ZZah+hflr/lHNK/5g7f/AJNLlBZJliryb/nJ7/yVc/8AzGW3/Ejko80F8d5ah+im&#xA;mf8AHNtP+MMf/ERlDJE4q7FXzh/zmF/0yX/bx/7FcnBBeF+R/wDlNNA/7aVp/wAn0yZQ/QPKWTsV&#xA;ecyf8qW5ty+r1rvx+sU+jjt92YR8D8W4X7hb/wAgV/4o/wCnnB+4/Fr+4/Fu/wCQK/8AFH/Tzj+4&#xA;/Fr+4/Fqtp/ypv61D6H1f1+a+ly9enKu32vh6+OEeBaR4NrvzT/5U76mn/8AKwfqvr0k+oet63qc&#xA;Kjn/AHHxca0+1tXM4X0cxIvIv/QuX+KLP/Cf1T9P/H9Sp9a5V4Ny4+v8FeFffwwm0PXsil2KuxVT&#xA;uPR+ry+vT0ODery6cKfFX6MVeDt/0KRyNfqVa70+v0+im2T9SHrnkP8Awd/he0/wd6X6Aq/1X0Of&#xA;GvM+p/efHXnWvLIlKY69+g/0Pd/p36v+h/TP1365w9D0+/qc/hp88CvnO/8A+hSP0oafWOHJvU+r&#xA;/X/q9dulfjpWtOG30Uyz1I2e5/l1/wAq/wD8PJ/gf6r+iK7/AFavLn/xbz/e8/8AjJvlZ5qKZRil&#xA;J/Nv+Ff0Dc/4p+q/oWn+kfXePpe32v2v5ab16YQr54uP+hSf0pt9b9Gp5en9f+r1r7/vfuyfqQ99&#xA;8g/4H/w5B/gv6r+hKnh9U6c6CvqV+P1OlefxeOQKVTz1/g//AAxef4w9H9AfB9a+scuFeY4U4/Hy&#xA;50px3xCvIV/6FI5Cn1Ktdq/X6fTXbJepD3e1+rfVYfqvH6twX0OH2eFBx4+1MglVxVjn5gf4J/wx&#xA;cf409H9A84/W9fnx58x6dPT+OvL+X9WEK8mX/oUjkKfUq12r9fp9Ndsl6kPeofS9JPSp6XEenx6c&#xA;abU+jIJXYq7FWDfmn/yqj6pp/wDysH6t6XqSfo71/V9TlxHqcPR/ecaceXb7Nd6YRfRWF+X/APoV&#xA;z9OWH6J+pfpT14/qPL65T1+Q9P8Avf3deVKcsluh7bkEuxV//9k=</xmpGImg:image>
               </rdf:li>
            </rdf:Alt>
         </xmp:Thumbnails>
         <xmpTPg:MaxPageSize rdf:parseType="Resource">
            <stDim:w>27.833333</stDim:w>
            <stDim:h>6.333333</stDim:h>
            <stDim:unit>Inches</stDim:unit>
         </xmpTPg:MaxPageSize>
         <xmpTPg:NPages>1</xmpTPg:NPages>
         <xmpTPg:HasVisibleTransparency>False</xmpTPg:HasVisibleTransparency>
         <xmpTPg:HasVisibleOverprint>False</xmpTPg:HasVisibleOverprint>
         <xmpTPg:PlateNames>
            <rdf:Seq>
               <rdf:li>Cyan</rdf:li>
               <rdf:li>Magenta</rdf:li>
               <rdf:li>Yellow</rdf:li>
               <rdf:li>Black</rdf:li>
            </rdf:Seq>
         </xmpTPg:PlateNames>
         <xmpTPg:SwatchGroups>
            <rdf:Seq>
               <rdf:li rdf:parseType="Resource">
                  <xmpG:groupName>Default Swatch Group</xmpG:groupName>
                  <xmpG:groupType>0</xmpG:groupType>
               </rdf:li>
            </rdf:Seq>
         </xmpTPg:SwatchGroups>
         <dc:format>image/svg+xml</dc:format>
      </rdf:Description>
   </rdf:RDF>
</x:xmpmeta>
                                                                                                    
                                                                                                    
                                                                                                    
                                                                                                    
                                                                                                    
                                                                                                    
                                                                                                    
                                                                                                    
                                                                                                    
                                                                                                    
                                                                                                    
                                                                                                    
                                                                                                    
                                                                                                    
                                                                                                    
                                                                                                    
                                                                                                    
                                                                                                    
                                                                                                    
                                                                                                    
                           
<?xpacket end="w"?>
  </metadata>
</svg>