<svg id="Layer_1" data-name="Layer 1" xmlns="http://www.w3.org/2000/svg" viewBox="0 0 630 648"><defs><style>.cls-1{fill:#006469;}.cls-2{fill:#004b50;}.cls-3{fill:#007b82;}.cls-4{fill:#2a958d;}.cls-5{fill:#51a090;}.cls-6{fill:#665440;}.cls-7{fill:#998c65;}.cls-8{fill:#b9b07c;}.cls-9{fill:#423627;}</style></defs><title>ACRN_Logo_PrimaryLockup_COLOR</title><polygon class="cls-1" points="379.33 292.086 251.35 292.078 315.333 392.624 379.263 292.161 379.33 292.086"/><polygon class="cls-2" points="379.263 292.161 315.333 392.624 425.021 319.5 379.33 292.086 379.263 292.161"/><polygon class="cls-2" points="251.349 292.078 205.646 319.5 315.333 392.624 251.35 292.078 251.349 292.078"/><polygon class="cls-1" points="379.33 292.086 425.021 319.5 425.021 182.391 379.325 292.062 379.33 292.086"/><path class="cls-3" d="M379.3255,292.06222l45.69523-109.6716S396.07542,170.813,352.00681,166.085Z"/><polygon class="cls-1" points="251.35 292.078 251.349 292.078 232.541 246.938 232.19 247.178 232.541 246.938 205.646 182.391 205.646 319.5 251.349 292.078 251.35 292.078"/><polygon class="cls-4" points="232.541 246.938 251.349 292.078 251.35 292.078 379.33 292.086 278.088 215.888 232.541 246.938"/><path class="cls-5" d="M379.33014,292.086l-.01254-.00789.0079-.01591L352.00681,166.085c-.2477-.02716-.49876-.05212-.74866-.07928l-73.17038,49.88239Z"/><path class="cls-3" d="M278.08777,215.88814l-.75493-.5691.75493.5691,73.17038-49.88239a344.10692,344.10692,0,0,0-35.92492-1.89637c-63.98437,0-109.6875,18.28124-109.6875,18.28124l26.89481,64.54779Z"/><path class="cls-6" d="M266.58323,109.26621l-32.77485,46.34755a346.97785,346.97785,0,0,1,81.52485-9.78564l-48.74942-36.5625Z"/><path class="cls-6" d="M315.33323,145.82812a346.95914,346.95914,0,0,1,81.52323,9.78564l-32.958-46.20931Z"/><polygon class="cls-7" points="363.8 109.266 315.273 77.966 266.584 109.266 315.333 145.828 363.898 109.404 363.8 109.266"/><path class="cls-7" d="M425.02073,63.56366l-61.12229,45.84079,32.958,46.20931.01811.00337,37.28678-46.35092Z"/><polygon class="cls-6" points="425.021 63.564 434.161 109.266 461.583 127.547 461.583 90.984 425.021 63.564"/><polygon class="cls-8" points="363.8 109.266 363.898 109.404 425.021 63.564 351.896 54.422 315.273 77.966 363.8 109.266"/><path class="cls-9" d="M396.87457,155.61713a231.96487,231.96487,0,0,1,28.14616,8.49108l36.5625-36.56133-27.42188-18.28067Z"/><polygon class="cls-8" points="315.273 77.966 278.771 54.422 205.646 63.564 266.584 109.266 315.273 77.966"/><path class="cls-7" d="M266.58381,109.26562l-60.93808-45.702-9.14062,45.70255,37.28516,46.35092.01811-.00337,32.77485-46.34755Z"/><polygon class="cls-6" points="351.896 54.422 342.755 27 287.911 27 278.771 54.422 315.273 77.966 351.896 54.422"/><path class="cls-9" d="M169.08323,127.54688l36.5625,36.56133a231.943,231.943,0,0,1,28.14454-8.49108l-37.28516-46.35092Z"/><polygon class="cls-6" points="205.646 63.564 169.083 90.984 169.083 127.547 196.505 109.266 205.646 63.564"/><path class="cls-1" d="M87.05,481.032,22.5,610.43466H36.92106l16.79751-33.59618c8.01728-12.97527,24.29735-20.99488,39.52661-20.99488,15.80847,0,32.77033,8.57048,40.51787,22.3687l.00685-.00336,16.114,32.22572h14.4199l-64.55-129.4027Zm6.19519,61.86933a56.60329,56.60329,0,0,0-25.6411,6.16733l25.79861-51.5985,25.89449,51.7935A56.6296,56.6296,0,0,0,93.24518,542.90129Z"/><path class="cls-1" d="M440.08738,534.81482c0-30.66154-23.12247-53.78286-53.7839-53.78286h-53.7817v129.4027h12.94011V493.971h40.84159A40.84729,40.84729,0,0,1,407.763,569.5716l-3.02529,1.87258,38.61534,38.99048h18.16669l-36.85036-37.16561C429.16715,567.987,440.08738,553.26263,440.08738,534.81482Z"/><polygon class="cls-1" points="594.561 481.032 594.561 587.998 507.488 481.032 492.655 481.032 492.655 610.435 505.596 610.435 505.596 499.113 596.042 610.435 607.5 610.435 607.5 481.032 594.561 481.032"/><path class="cls-1" d="M283.24192,581.87807a52.9428,52.9428,0,0,1-39.32546,17.12739c-28.97932,0-52.55575-23.89783-52.55575-53.27273,0-29.37373,23.57643-53.27272,52.55575-53.27272a52.95421,52.95421,0,0,1,39.26986,17.065l1.81083,1.99724,9.84506-8.08994-1.99666-2.20118c-12.9112-14.238-29.47692-21.76455-47.90558-21.76455A66.26669,66.26669,0,0,0,244.94,612c18.46836,0,35.05833-7.5537,47.97581-21.84615l1.99387-2.2035-9.86038-8.07172Z"/></svg>