<?xml version="1.0" encoding="UTF-8"?>
<svg width="224px" height="274px" viewBox="0 0 224 274" version="1.1" xmlns="http://www.w3.org/2000/svg" xmlns:xlink="http://www.w3.org/1999/xlink">
    <!-- Generator: Sketch 49 (51002) - http://www.bohemiancoding.com/sketch -->
    <title>ACRN_Logo_Icon_COLOR</title>
    <desc>Created with Sketch.</desc>
    <defs></defs>
    <g id="Styleguide-3---Cards" stroke="none" stroke-width="1" fill="none" fill-rule="evenodd">
        <g id="ACRN_Logo_Icon_COLOR" fill-rule="nonzero">
            <g id="Group" transform="translate(28.000000, 98.000000)">
                <polygon id="Shape" fill="#006469" points="133.745176 98.6298419 35.2548244 98.6298419 84.5 176 133.745176 98.6866899"></polygon>
                <polygon id="Shape" fill="#004B50" points="133.745176 98.6866899 84.5 176 168.944672 119.720458 133.745176 98.6298419"></polygon>
                <polygon id="Shape" fill="#004B50" points="35.2548244 98.6298419 0.0553282043 119.720458 84.5 176"></polygon>
                <polygon id="Shape" fill="#006469" points="133.745176 98.6298419 168.944672 119.720458 168.944672 14.2105289"></polygon>
                <path d="M133.745176,98.6298419 L168.944672,14.2105289 C168.944672,14.2105289 146.653552,5.28538949 112.761954,1.64711607 L133.745176,98.6298419 Z" id="Shape" fill="#007B82"></path>
                <polygon id="Shape" fill="#006469" points="35.2548244 98.6298419 35.2548244 98.6298419 20.7542242 63.8957003 20.4698986 64.0662444 20.7542242 63.8957003 0.0553282043 14.2105289 0.0553282043 119.720458"></polygon>
                <polygon id="Shape" fill="#2A958D" points="20.7542242 63.8957003 35.2548244 98.6298419 35.2548244 98.6298419 133.745176 98.6298419 55.8399902 39.962683"></polygon>
                <path d="M133.745176,98.6298419 L112.705089,1.64711607 C112.534494,1.64711607 112.307033,1.59026805 112.136438,1.59026805 L55.7831251,39.962683 L133.745176,98.6298419 Z" id="Shape" fill="#69BFAD"></path>
                <path d="M55.8399902,39.962683 L55.2713392,39.5078988 L55.8399902,39.962683 L112.193303,1.59026805 C103.663538,0.680699694 94.3945272,0.112219472 84.5568651,0.112219472 C35.3116895,0.112219472 0.112193303,14.2105289 0.112193303,14.2105289 L20.8110893,63.8957003 L55.8399902,39.962683 Z" id="Shape" fill="#007B82"></path>
            </g>
            <g id="Group">
                <path d="M74.6666666,62.9555267 L49.5515152,98.3892029 C64.5414142,94.7158552 86.3191919,90.9294815 112,90.9294815 L74.6666666,62.9555267 Z" id="Shape" fill="#665440"></path>
                <path d="M112,90.9294815 C137.680808,90.9294815 159.458586,94.7723683 174.448485,98.3892029 L149.220202,63.0120397 L112,90.9294815 Z" id="Shape" fill="#665440"></path>
                <polygon id="Shape" fill="#998265" points="149.107071 62.9555267 111.943434 38.9939977 74.6666666 62.9555267 112 90.9294815 149.220202 63.0685528"></polygon>
                <path d="M196,27.9739549 L149.163637,63.0685528 L174.391919,98.4457159 C174.391919,98.4457159 174.391919,98.4457159 174.391919,98.4457159 L202.957576,62.9555267 L196,27.9739549 Z" id="Shape" fill="#998265"></path>
                <polygon id="Shape" fill="#665440" points="196 27.9739549 203.014142 62.9555267 224 76.9142476 224 48.9402927"></polygon>
                <polygon id="Shape" fill="#D7AF96" points="149.107071 62.9555267 149.220202 63.0685528 196 27.9739549 140 20.9663378 111.943434 38.9939977"></polygon>
                <path d="M174.448485,98.3892029 C188.080808,101.723472 196,104.888202 196,104.888202 L224,76.9142476 L203.014142,62.9555267 L174.448485,98.3892029 Z" id="Shape" fill="#423627"></path>
                <polygon id="Shape" fill="#D7AF96" points="111.943434 38.9939977 84 20.9663378 28 27.9739549 74.6666666 62.9555267"></polygon>
                <path d="M74.6666666,62.9555267 L28,27.9739549 L20.9858586,62.9555267 L49.5515152,98.4457159 C49.5515152,98.4457159 49.5515152,98.4457159 49.5515152,98.4457159 L74.6666666,62.9555267 Z" id="Shape" fill="#998265"></path>
                <polygon id="Shape" fill="#665440" points="140 20.9663378 132.985858 0 91.0141414 0 84 20.9663378 111.943434 38.9939977"></polygon>
                <path d="M0,76.9142476 L28,104.888202 C28,104.888202 35.9191919,101.723472 49.5515152,98.3892029 L20.9858586,62.8990137 L0,76.9142476 Z" id="Shape" fill="#423627"></path>
                <polygon id="Shape" fill="#665440" points="28 27.9739549 0 48.9402927 0 76.9142476 20.9858586 62.9555267"></polygon>
            </g>
        </g>
    </g>
</svg>