<svg id="Layer_1" data-name="Layer 1" xmlns="http://www.w3.org/2000/svg" xmlns:xlink="http://www.w3.org/1999/xlink" viewBox="0 0 375.34827 135.0695"><defs><style>.cls-1{fill:none;}.cls-2{fill:#9164cc;}.cls-3{clip-path:url(#clip-path);}.cls-4{fill:url(#linear-gradient);}.cls-5{fill:#fff;}.cls-6{fill:#201747;}.cls-7{fill:#10cfc9;fill-rule:evenodd;}</style><clipPath id="clip-path"><path class="cls-1" d="M120.41137,64.63759c.034.059.073.115.107.174-.073-.127-.147-.254-.219-.382.039.069.072.139.112.20795"/></clipPath><linearGradient id="linear-gradient" x1="-133.91845" y1="622.25056" x2="-132.91845" y2="622.25056" gradientTransform="matrix(0.2193, 0, 0, -0.2193, 149.66752, 201.07948)" gradientUnits="userSpaceOnUse"><stop offset="0" stop-color="#49bcec"/><stop offset="0.25597" stop-color="#42b7e9"/><stop offset="0.63579" stop-color="#2eabe1"/><stop offset="1" stop-color="#149bd6"/></linearGradient></defs><title>akraino</title><path class="cls-2" d="M140.07276,70.13942V54.3614h-11.413v15.778h-8.045v-35.547a3.069,3.069,0,0,1,.749-2.244,6.59364,6.59364,0,0,1,1.684-1.435l11.163-5.925a4.27431,4.27431,0,0,1,1.808-.436,3.4748,3.4748,0,0,1,1.871.436l8.481,5.551a3.53981,3.53981,0,0,1,1.279,1.372,4.02744,4.02744,0,0,1,.468,1.933v36.295Zm0-34.736-4.179-2.744-7.234,3.742v10.539h11.413Z"/><path class="cls-2" d="M177.92579,70.13972l-.499-16.96295-7.733-5.55-2.682,3.30506V70.13972h-8.044v-44.464h8.044v15.028l10.103-13.594a3.78356,3.78356,0,0,1,3.056-1.434h5.363l-.063,7.42h-3.99l-6.673,8.79394,8.544,5.363a4.93413,4.93413,0,0,1,1.683,1.995,6.37222,6.37222,0,0,1,.436,2.433l.499,18.459Z"/><path class="cls-2" d="M214.47065,70.13972l-.312-9.417-7.483-8.98,2.431.998-6.111,1.372,1.497-2.495v18.522h-8.045v-44.153l21.702-.311a3.67684,3.67684,0,0,1,1.871.436,4.457,4.457,0,0,1,1.247,1.06,4.09,4.09,0,0,1,.718,1.31,4.16031,4.16031,0,0,1,.217,1.247v16.651a4.13366,4.13366,0,0,1-.966,2.37,5.12384,5.12384,0,0,1-3.087,1.808l-3.18.748.312-.935,4.615,4.864a6.20891,6.20891,0,0,1,1.683,3.991l.312,10.914Zm-.312-37.293h-9.666v14.157l9.666-2.308Z"/><path class="cls-2" d="M252.38667,70.13942V54.3614h-11.413v15.778h-8.045v-35.547a3.069,3.069,0,0,1,.749-2.244,6.594,6.594,0,0,1,1.684-1.435l11.162-5.925a4.28176,4.28176,0,0,1,1.809-.436,3.4748,3.4748,0,0,1,1.871.436l8.481,5.551a3.54714,3.54714,0,0,1,1.279,1.372,4.02744,4.02744,0,0,1,.468,1.933v36.295Zm0-34.736-4.179-2.744-7.234,3.742v10.539h11.413Z"/><rect class="cls-2" x="271.28135" y="25.67561" width="8.04501" height="44.46399"/><path class="cls-2" d="M298.28419,30.28962h.25l4.739-3.18a7.69176,7.69176,0,0,1,4.49-1.434h5.301a3.67664,3.67664,0,0,1,1.871.436,4.4711,4.4711,0,0,1,1.247,1.06,4.08682,4.08682,0,0,1,.717,1.31,4.16378,4.16378,0,0,1,.218,1.247v40.411h-8.044v-37.293h-2.619l-8.108,4.989v32.304h-8.044v-44.464h7.982Z"/><path class="cls-2" d="M355.47025,61.15925a3.08388,3.08388,0,0,1-.749,2.245,6.60568,6.60568,0,0,1-1.684,1.435l-11.162,5.924a4.27185,4.27185,0,0,1-1.809.437,3.4604,3.4604,0,0,1-1.871-.437l-8.481-5.55a3.54049,3.54049,0,0,1-1.279-1.372,4.02485,4.02485,0,0,1-.468-1.933v-32.18a4.14083,4.14083,0,0,1,.219-1.247,4.06819,4.06819,0,0,1,.717-1.31,4.48386,4.48386,0,0,1,1.247-1.059,3.66874,3.66874,0,0,1,1.871-.437h19.395a3.66369,3.66369,0,0,1,1.871.437,4.47018,4.47018,0,0,1,1.247,1.059,4.2392,4.2392,0,0,1,.936,2.557Zm-8.045-1.434v-26.878h-11.413v27.876l4.179,2.744Z"/><g class="cls-3"><rect class="cls-4" x="120.29936" y="64.42964" width="0.21902" height="0.38196"/></g><path class="cls-5" d="M120.29928,64.42982c.039.069.073.139.112.208.034.059.073.11505.107.174-.073-.127-.146-.255-.219-.382"/><path class="cls-6" d="M121.38477,109.3824v-29.42h17.117v5.493h-11.26V92.4474h10.352v5.494h-10.352v8.899h11.26v5.493h-14.166a2.658,2.658,0,0,1-1.362-.318,3.19952,3.19952,0,0,1-.908-.772,2.923,2.923,0,0,1-.522-.952,2.99183,2.99183,0,0,1-.159-.909"/><path class="cls-6" d="M145.67466,112.33323v-32.144l17.343-.227a2.54242,2.54242,0,0,1,2.066.84,2.69752,2.69752,0,0,1,.704,1.748v25.334a2.92831,2.92831,0,0,1-.341,1.407,2.55843,2.55843,0,0,1-.931,1l-3.95,2.406a3.6813,3.6813,0,0,1-1.952.409,4.24527,4.24527,0,0,1-.817-.091l-6.856-2.089-.454,1.407Zm12.485-4.358,1.771-1.09v-21.702h-8.399v21.158Z"/><path class="cls-6" d="M173.41459,106.38582v-23.473a3.23532,3.23532,0,0,1,.159-.93,2.90751,2.90751,0,0,1,.523-.977,3.24013,3.24013,0,0,1,.907-.771,2.4002,2.4002,0,0,1,1.363-.273h16.435l-.454,9.217h-5.266v-3.996h-7.81v20.295l3.042,1.998,4.768-2.678v-7.22h-4.541v-5.13h10.397v13.348a2.88685,2.88685,0,0,1-1.452,2.497l-7.946,4.54a3.105,3.105,0,0,1-1.316.318,2.52,2.52,0,0,1-1.363-.318l-6.175-4.04a2.57515,2.57515,0,0,1-.93-.999,2.935,2.935,0,0,1-.341-1.408"/><path class="cls-6" d="M200.65629,109.3824v-29.42h17.116v5.493h-11.26V92.4474h10.352v5.494h-10.352v8.899h11.26v5.493h-14.165a2.66187,2.66187,0,0,1-1.363-.318,3.2084,3.2084,0,0,1-.907-.772,2.90415,2.90415,0,0,1-.522-.952,2.99121,2.99121,0,0,1-.159-.909"/><path class="cls-6" d="M246.26316,89.6324v-4.449h-6.472v3.405a2.381,2.381,0,0,0,1.045,1.907l9.489,4.949a3.89722,3.89722,0,0,1,1.634,1.611,4.85184,4.85184,0,0,1,.591,2.384v6.401a2.2475,2.2475,0,0,1-.545,1.635,4.81922,4.81922,0,0,1-1.226,1.045l-7.628,4.313a3.10478,3.10478,0,0,1-1.316.318,2.52,2.52,0,0,1-1.363-.318l-6.174-4.041a2.57043,2.57043,0,0,1-.931-.999,2.92919,2.92919,0,0,1-.341-1.408v-7.218h5.858v6.311l3.042,1.997,4.767-2.724v-3.178a2.54967,2.54967,0,0,0-.386-1.385,3.81457,3.81457,0,0,0-1.022-1.067l-9.08-4.585a3.46746,3.46746,0,0,1-1.794-1.771,5.72957,5.72957,0,0,1-.476-2.224V82.9134a3.01651,3.01651,0,0,1,.159-.90795,2.9751,2.9751,0,0,1,.523-.954,3.24784,3.24784,0,0,1,.911-.772,2.68466,2.68466,0,0,1,1.365-.317h12.29a2.69225,2.69225,0,0,1,1.365.317,3.257,3.257,0,0,1,.91.772,3.06993,3.06993,0,0,1,.683,1.862v6.719Z"/><polygon class="cls-6" points="264.763 112.334 264.763 85.365 258.135 85.365 258.135 79.962 277.249 79.962 277.249 85.365 270.62 85.365 270.62 112.334 264.763 112.334"/><path class="cls-6" d="M296.99757,112.33351v-11.486h-8.309v11.486h-5.856v-25.879a2.231,2.231,0,0,1,.545-1.634,4.77,4.77,0,0,1,1.225-1.045l8.128-4.313a3.11659,3.11659,0,0,1,1.316-.318,2.5276,2.5276,0,0,1,1.362.318l6.175,4.04a2.595,2.595,0,0,1,.931,1,2.93329,2.93329,0,0,1,.34,1.407v26.424Zm0-25.289-3.042-1.99695-5.267,2.724v7.672h8.309Z"/><path class="cls-6" d="M322.83057,89.6324v-4.449h-6.311v20.295l3.042,1.997,6.493-3.677,2.815,4.313-8.082,4.677a3.11974,3.11974,0,0,1-1.316.318,2.5228,2.5228,0,0,1-1.362-.318l-6.175-4.04095a2.57035,2.57035,0,0,1-.931-.999,2.93435,2.93435,0,0,1-.34-1.408V82.9134a2.98619,2.98619,0,0,1,.159-.90795,2.93434,2.93434,0,0,1,.522-.954,3.24356,3.24356,0,0,1,.907-.772,2.682,2.682,0,0,1,1.363-.317h14.937l-.454,9.67Z"/><path class="cls-6" d="M349.61768,112.3336l-.363-12.349-5.63-4.041-1.952,2.407V112.3336h-5.857v-32.372h5.857v10.942l7.355-9.898a2.75593,2.75593,0,0,1,2.225-1.044h3.904l-.045,5.403h-2.906l-4.858,6.402,6.22,3.904a3.59609,3.59609,0,0,1,1.226,1.454,4.637,4.637,0,0,1,.318,1.77l.363,13.439Z"/><polygon class="cls-7" points="62.412 44.167 28.73 102.504 54.569 102.504 80.994 56.736 113.081 112.312 71.554 112.312 77.215 102.504 96.094 102.504 80.993 76.349 60.229 112.312 11.742 112.312 62.412 24.553 75.331 46.929 69.669 56.736 62.412 44.167"/></svg>