<?xml version="1.0" encoding="utf-8"?>
<!-- Generator: Adobe Illustrator 24.2.1, SVG Export Plug-In . SVG Version: 6.00 Build 0)  -->
<svg version="1.1" id="Layer_1" xmlns="http://www.w3.org/2000/svg" xmlns:xlink="http://www.w3.org/1999/xlink" x="0px" y="0px"
	 viewBox="0 0 999.9 260" style="enable-background:new 0 0 999.9 260;" xml:space="preserve">
<style type="text/css">
	.st0{clip-path:url(#SVGID_2_);fill:#FFFFFF;}
	.st1{fill:#FFFFFF;}
	.st2{fill-rule:evenodd;clip-rule:evenodd;fill:#FFFFFF;}
	.st3{clip-path:url(#SVGID_4_);fill:#231F20;}
	.st4{fill:#231F20;}
	.st5{fill-rule:evenodd;clip-rule:evenodd;fill:#231F20;}
	.st6{clip-path:url(#SVGID_6_);fill:url(#SVGID_7_);}
	.st7{fill-rule:evenodd;clip-rule:evenodd;fill:#10CFC9;}
	.st8{clip-path:url(#SVGID_9_);fill:#FFFFFF;}
	.st9{clip-path:url(#SVGID_11_);fill:#231F20;}
	.st10{fill:#9164CC;}
	.st11{clip-path:url(#SVGID_13_);fill:url(#SVGID_14_);}
</style>
<g>
	<g>
		<path class="st10" d="M373.8,195.7v-45.8h-33.1v45.8h-23.2v-103c0-2.6,0.6-4.6,2-6.4c1.5-1.7,3.2-3.2,4.9-4.1l32.5-17.1
			c1.7-0.9,3.5-1.2,5.2-1.2c2.3,0,4.1,0.3,5.5,1.2l24.7,16.2c1.5,0.9,2.9,2.3,3.8,4.1c0.9,1.7,1.5,3.5,1.5,5.5v105.3h-23.8V195.7z
			 M373.8,95l-12.2-7.8L340.7,98v30.5h33.1V95z"/>
		<path class="st10" d="M483.4,195.7l-1.5-49.3l-22.3-16.2l-7.8,9.6v55.7h-23.2V66.9h23.2v43.5L481.1,71c2.3-2.9,5.2-4.1,9-4.1h15.7
			l-0.3,21.5h-11.6l-19.4,25.5l24.7,15.7c2.3,1.7,4.1,3.8,4.9,5.8c0.9,2,1.2,4.4,1.2,7l1.5,53.7h-23.2V195.7z"/>
		<path class="st10" d="M589.6,195.7l-0.9-27.3l-21.8-26.1l7,2.9l-17.7,4.1l4.4-7.3v53.7h-23.2V67.8l62.9-0.9c2,0,4.1,0.3,5.5,1.2
			c1.5,0.9,2.6,1.7,3.5,3.2c0.9,1.2,1.7,2.6,2,3.8c0.3,1.5,0.6,2.6,0.6,3.5V127c0,2-0.9,4.4-2.9,7c-1.7,2.6-4.9,4.4-9,5.2l-9.3,2
			l0.9-2.6l13.3,14.2c2.9,3.2,4.6,7.3,4.9,11.6l0.9,31.6h-21.2V195.7z M588.7,87.5h-28.1v41.2l28.1-6.7V87.5z"/>
		<path class="st10" d="M699.5,195.7v-45.8h-33.1v45.8h-23.2v-103c0-2.6,0.6-4.6,2-6.4c1.5-1.7,3.2-3.2,4.9-4.1l32.5-17.1
			c1.7-0.9,3.5-1.2,5.2-1.2c2.3,0,4.1,0.3,5.5,1.2L718,81.4c1.5,0.9,2.9,2.3,3.8,4.1c0.9,1.7,1.5,3.5,1.5,5.5v105.3h-23.8V195.7z
			 M699.5,95l-12.2-7.8L666.4,98v30.5h33.1V95z"/>
		<rect x="754.3" y="66.9" class="st10" width="23.2" height="129.1"/>
		<path class="st10" d="M832.6,80.3h0.6l13.6-9.3c4.1-2.9,8.4-4.1,13.1-4.1h15.4c2,0,4.1,0.3,5.5,1.2s2.6,1.7,3.5,3.2
			c0.9,1.2,1.7,2.6,2,3.8c0.3,1.5,0.6,2.6,0.6,3.5v117.2h-23.2V87.5h-7.5L832.6,102v93.7h-23.2V66.9h23.2L832.6,80.3L832.6,80.3z"/>
		<path class="st10" d="M998.5,169.6c0,2.6-0.6,4.6-2,6.4s-3.2,3.2-4.9,4.1l-32.5,17.1c-1.7,0.9-3.5,1.2-5.2,1.2
			c-2.3,0-4.1-0.3-5.5-1.2l-24.7-16c-1.5-0.9-2.9-2.3-3.8-4.1c-0.9-1.7-1.5-3.5-1.5-5.5V78.5c0-1.2,0.3-2.3,0.6-3.5
			c0.3-1.5,1.2-2.6,2-3.8c0.9-1.2,2-2.3,3.5-3.2c1.5-0.9,3.2-1.2,5.5-1.2h56.3c2,0,4.1,0.3,5.5,1.2c1.5,0.9,2.6,1.7,3.5,3.2
			c0.9,1.2,1.7,2.6,2,3.8c0.3,1.5,0.6,2.6,0.6,3.5v91.1H998.5z M975,165.5v-78H942v80.9l12.2,7.8L975,165.5z"/>
	</g>
	<g>
		<g>
			<defs>
				<path id="SVGID_12_" d="M316.6,118.8c0,0.3,0.3,0.3,0.3,0.6c-0.3-0.3-0.3-0.9-0.6-1.2C316.3,118.5,316.6,118.8,316.6,118.8"/>
			</defs>
			<clipPath id="SVGID_2_">
				<use xlink:href="#SVGID_12_"  style="overflow:visible;"/>
			</clipPath>
			
				<linearGradient id="SVGID_4_" gradientUnits="userSpaceOnUse" x1="1159.9092" y1="1918.0488" x2="1162.8096" y2="1918.0488" gradientTransform="matrix(0.2193 0 0 0.2193 61.9886 -301.7947)">
				<stop  offset="0" style="stop-color:#49BCEC"/>
				<stop  offset="0.2872" style="stop-color:#42B6E8"/>
				<stop  offset="0.7134" style="stop-color:#2EA7DE"/>
				<stop  offset="1" style="stop-color:#149BD6"/>
			</linearGradient>
			<rect x="316.3" y="118.3" style="clip-path:url(#SVGID_2_);fill:url(#SVGID_4_);" width="0.6" height="1.2"/>
		</g>
	</g>
	<path class="st1" d="M316.3,118.3c0,0.3,0.3,0.3,0.3,0.6c0,0.3,0.3,0.3,0.3,0.6C316.9,119.1,316.6,118.8,316.3,118.3"/>
	<polygon class="st7" points="148.4,59.7 50.7,228.8 125.8,228.8 202.4,95.9 295.5,257.2 175.1,257.2 191.3,228.8 246.1,228.8 
		202.4,153.1 142,257.2 1.4,257.2 148.4,2.8 185.8,67.5 169.6,95.9 	"/>
</g>
</svg>
