<svg id="Layer_1" data-name="Layer 1" xmlns="http://www.w3.org/2000/svg" viewBox="0 0 400.19234 245.19179"><defs><style>.cls-1{fill:#fdfdfe;}.cls-2{fill:#9569cd;}.cls-3{fill:#251e4c;}</style></defs><title>akraino</title><path class="cls-1" d="M397,429q-98,0-195.99977.09665c-3.42461.00685-4.10174-.67227-4.09635-4.09676q.18676-118.49968,0-236.99966c-.0054-3.42421.67207-4.09822,4.09609-4.09528q195.99983.16846,391.99976,0c3.42355-.00294,4.10181.67031,4.09641,4.095q-.18681,118.49969-.00006,236.99965c.0054,3.42394-.671,4.10388-4.09607,4.097Q495.00029,428.9003,397,429ZM268.50317,356.9935c14.69876,0,28.46362-.112,42.22469.0666,4.26145.05531,4.87206-.69655,2.62458-4.5401-10.66938-18.24623-21.0789-36.64435-31.59437-54.98069-2.58776-4.5124-2.65292-4.52325-5.36012.19421-8.45,14.72464-16.94532,29.42447-25.22358,44.24535-1.57711,2.82356-3.2218,4.16519-6.57715,3.97845-5.31415-.29575-10.65684-.07872-15.98745-.07872-9.10089,0-9.15781-.03247-4.76447-7.73531,10.55477-18.50568,21.23018-36.9429,31.704-55.49408,2.00868-3.55777,3.08057-2.93761,4.78881.09006,1.76814,3.13383,3.15423,6.548,5.68674,9.22995,1.864-.875,2.14975-2.68226,3.1272-3.95211,3.03744-3.94614,3.607-7.63833.36359-12.12858a118.33751,118.33751,0,0,1-8.96544-15.55909c-2.01764-3.94356-3.10117-3.72533-5.22458.008Q230.516,303.9566,205.45178,347.431c-1.708,2.97987-3.333,6.00729-5.301,9.56259,17.39346,0,34.025-.10855,50.65294.08865,3.45958.041,5.41407-1.04762,7.05854-4.02509,5.47137-9.90636,11.14037-19.70479,16.83309-29.48669,1.30947-2.25008,2.05614-6.06923,4.37242-6.19919,2.56942-.14418,3.13859,3.7879,4.44238,5.96442,4.3084,7.19237,8.3318,14.55542,12.85551,22.54323-6.64086,0-12.27549-.03152-17.90936.02016-1.58772.01457-3.40881-.5211-4.46613,1.36987C272.31777,350.26,270.62346,353.23877,268.50317,356.9935Zm142.53773-73.79584c0,7.15266.22763,14.3154-.08862,21.454-.17879,4.03568,1.87929,4.08527,4.86087,4.12946,3.15953.04684,5.11942-.44607,4.83728-4.28795-.2673-3.63981-.076-7.31493-.04588-10.97418.01338-1.62241-.34232-3.47728,1.75821-4.20065,1.87367-.64524,2.55174,1.02165,3.647,1.961,4.39072,3.76557,5.84978,8.61018,5.5695,14.216-.10681,2.13628.891,3.58228,3.30469,3.18668,1.782-.29206,5.02042,1.10876,4.99162-1.58867-.063-5.90231,2.19652-12.42885-3.33452-17.40079-1.47672-1.32745-3.09134-2.95686.544-4.08151,2.64261-.81752,3.70627-3.1815,3.71167-5.92115.01117-5.65552.08688-11.3129-.03238-16.966-.07484-3.54806-2.02754-5.57436-5.65643-5.56969-6.81946.0088-13.639.19346-20.458.16539-2.82394-.01162-3.71121,1.17323-3.65706,3.922C411.13709,268.55779,411.04193,275.87866,411.04089,283.19766Zm-55.04922,3.44468c0-3.82378-.50639-7.73036.10248-11.45461,1.38736-8.48607-2.13538-13.66669-9.53116-17.39854-5.2834-2.666-21.20239,3.93259-22.26317,9.78728a8.444,8.444,0,0,0-.05882,1.49309c-.002,11.97011.05618,23.94069-.04143,35.91-.02309,2.83036,1.08928,3.62677,3.81424,3.81528,4.28307.29629,6.75186-.66063,5.87355-5.59331a19.65342,19.65342,0,0,1-.02907-3.98371c.2903-9.63569-2.24033-8.477,9.2541-8.6632,2.82852-.04583,3.867.98927,3.73584,3.78509-.16338,3.48355.20535,7.00183-.09709,10.46659-.37051,4.2447,2.26273,3.81554,5.03575,3.964,3.17914.17023,4.43642-.76635,4.28055-4.17629C355.79443,298.62144,355.99129,292.6274,355.99167,286.64234Zm237.02112-6.6321c0-5.49722-.0603-10.99532.0191-16.49139.06317-4.37275-1.96475-6.45556-6.34171-6.41795-5.99652.05153-11.994-.01824-17.99072.01787-5.77673.03477-7.34689,1.57432-7.39191,7.44533-.06516,8.49521.61044,17.05118-.19257,25.47035-.825,8.64985,2.01089,14.41342,9.86758,17.84278a7.97273,7.97273,0,0,1,.85092.52142c4.83853,2.89133,20.70178-5.26854,21.1644-10.898.068-.82752.01608-1.66505.0162-2.498Q593.01506,287.50645,593.01279,280.01025ZM378.743,272.59671l-.98071-.25133c0-3.56626-.26514-7.15771.07047-10.6921.37729-3.9735-1.34325-4.67293-4.88947-4.66074-3.50305.012-5,.63113-4.92979,4.62772q.373,21.22762.006,42.46519c-.062,3.83869,1.155,4.80882,4.82123,4.74078,3.50392-.065,5.22176-.757,4.99689-4.7188-.3015-5.31209-.0327-10.65481-.08612-15.9836a5.01547,5.01547,0,0,1,2.4518-4.62679c1.66316-.95913,2.51006,1.082,3.77711,1.67207,4.32246,2.013,5.77614,5.39883,5.45143,10.09043-.2394,3.459.31343,6.97155.49,10.46141.06844,1.35233.05911,2.51214,1.864,2.98044,5.17191,1.3419,7.31493-.21538,7.25771-5.54279-.01967-1.83184-.17209-3.67412-.03207-5.49379.673-8.74682-.01357-16.74722-10.01187-20.248-.90625-.31731-2.62634-1.26763-1.4433-2.53577,2.91209-3.12152,3.76608-8.27177,9.18373-9.00431,3.69591-.49974,1.67473-3.673,2.05869-5.65094.36806-1.89611-.33217-3.09685-2.654-3.15544-3.50352-.08842-6.44492.35222-8.61826,3.69128C384.85156,264.87129,381.69272,268.66593,378.743,272.59671Zm149.0051-9.97335c1.29712-7.496-3.44116-5.36037-6.53876-5.45675-4.77661-.14862-2.86151,3.68142-2.88718,5.83038-.16534,13.82872.03391,27.662-.15958,41.49-.054,3.86426,1.7486,4.32157,4.88058,4.29046,2.97467-.02955,5.03482-.06751,4.89838-4.12019-.29135-8.6552.4357-17.36965-.26355-25.97785-.51086-6.28857,2.221-9.42524,7.29114-11.826,3.9794-1.88431,4.92477-1.45664,4.94092,3.03545.042,11.66429.16318,23.33181-.06973,34.99159-.07587,3.79744,1.82309,3.90654,4.60956,3.87446,2.68155-.03088,4.76492.12891,4.70648-3.77277-.20959-13.99422-.1239-27.99364-.06009-41.99068.01831-4.01542-1.997-5.49-5.77005-5.93954C537.62741,256.37286,532.97165,258.588,527.74814,262.62336ZM484.188,286.45022c0-3.65823-.54492-7.4168.10675-10.955,1.65729-8.99825-2.29178-14.48975-10.08554-18.00931-.14932-.06744-.27206-.19133-.41568-.27416-4.37543-2.52384-20.16293,5.20507-20.86273,10.217a7.2439,7.2439,0,0,0-.032.99648c-.00278,12.30493.05295,24.61034-.05026,36.91442-.02234,2.6647,1.03024,3.29659,3.52005,3.44817,3.9588.241,6.52188-.36546,5.7262-5.238a33.765,33.765,0,0,1-.04675-5.97757c.15-8.391-1.28247-7.01141,7.43909-7.42672,4.221-.201,6.19238.739,5.59692,5.38356-.3985,3.10825.16776,6.33263-.13623,9.46246-.384,3.95417,2.02478,3.70737,4.66257,3.75864,2.77576.054,4.81662-.0513,4.64935-3.84574C483.98907,298.76388,484.18692,292.60268,484.188,286.45022ZM353.01482,338.51083c0,5.15779.19928,10.32623-.07591,15.4693-.161,3.00938,1.47328,3.80011,3.50314,2.95993,3.5811-1.48222,6.59235-.1225,9.88232.7421,4.65849,1.22424,9.7253-2.89107,9.75148-7.698.04622-8.48512-.085-16.97237.05959-25.45528.058-3.40288-1.135-4.8781-4.63521-4.73782q-7.72648.30961-15.4689.138c-2.41457-.05721-3.14064.72946-3.06607,3.11C353.12668,328.19177,353.015,333.35306,353.01482,338.51083Zm38.63608-.6971c0-2.83321-.03441-5.667.01366-8.4994.02634-1.55139-.49469-3.87454,2.18932-3.31056,2.18785.4597,5.80064-2.23036,6.38713,2.05974.41046,3.00255,2.27156,2.22287,3.95122,2.361,2.48857.20461,2.54774-1.506,2.58182-3.267a43.05584,43.05584,0,0,1,.20064-4.493c.26239-2.10175-.366-2.9743-2.65788-2.90465-4.99518.15178-9.99988.12727-14.9973.01836-3.1946-.0696-4.50992,1.31458-4.47949,4.48027.08011,8.3322-.05453,16.66684.06406,24.99812.05685,3.99411,8.073,9.59418,11.629,8.33157,8.71262-3.09355,10.60312-5.81133,10.60318-15.24327.00006-8.80008.00008-8.79955-8.83105-8.29636a8.33965,8.33965,0,0,1-.99957.00668c-1.82869-.11607-2.33856.95447-2.14061,2.50221.16739,1.30872-.82391,3.3967,1.58865,3.45457,2.25522.05409,3.89709.15381,3.64188,3.13994-.23483,2.74774.57042,5.6039-3.0993,7.021-3.42159,1.32135-5.42194.42181-5.61295-3.36119C391.5322,343.81956,391.65289,340.8136,391.65089,337.81374Zm141.25545,3.16968q0-5.2378-.00058-10.47562c-.00885-8.82031-7.67569-13.51582-15.37338-9.41827-1.31815.70169-2.607,1.47037-3.96744,2.07822-2.7496,1.22858-3.80777,3.15918-3.72479,6.27245.21262,7.97575.1593,15.96249.02026,23.9415-.04526,2.59819.368,3.80714,3.42194,3.78442,3.01953-.02246,3.73969-1.16336,3.47858-3.82645-.16147-1.64694.14661-3.34566-.06659-4.98062-.43546-3.33846.57819-4.50754,4.21658-4.56279,4.01825-.061,5.89175.79187,5.14334,5.10153-.25229,1.4527.08627,2.99919-.06763,4.47972-.27179,2.61469.36948,3.82492,3.41168,3.78336,2.87869-.03934,3.70261-.93764,3.56238-3.70923C532.75092,349.30525,532.90619,345.14041,532.90634,340.98341ZM578.13959,330.948l-1.00449-.514c0-2.6413-.17313-5.29709.04663-7.92.24008-2.86531-1.45618-2.754-3.40936-2.73389-1.93222.01994-3.51587-.12041-3.47684,2.74344q.21405,15.71876-.00778,31.4416c-.0462,2.95708,1.36871,3.0314,3.63873,3.16217,2.75568.15874,3.373-.93428,3.25458-3.42439A101.47474,101.47474,0,0,1,577.19,342.7278c.23285-3.8204,1.84189-4.44994,5.00891-2.50377,2.61838,1.609,4.16406,3.50272,3.8165,6.83446a72.12992,72.12992,0,0,0,.071,7.97736c.02191,2.83363,2.16989,1.96407,3.6153,1.95808,1.25241-.00522,3.348.90561,3.25381-1.67474-.18753-5.13945.6236-10.40889-.8345-15.38083-1.0618-3.62058-5.47845-4.02008-8.07932-6.70622,2.38132-2.40056,2.86713-6.69,7.29739-7.21292a1.41381,1.41381,0,0,0,1.29358-1.76688c-.2074-1.47693,1.22748-3.71532-1.10263-4.24838-2.16727-.49583-4.69162-.85028-6.39633,1.46231Q581.63821,326.20824,578.13959,330.948ZM464.36148,319.81273c-10.94992-.01436-10.23795-.988-10.47864,10.095-.09708,4.46916,1.83389,6.71231,5.61472,8.24167,2.29779.92947,4.44617,2.22926,6.65811,3.36961,2.56381,1.32178,2.96964,3.74509,2.14908,5.97392a5.33474,5.33474,0,0,1-5.55463,3.33246c-2.52127-.2691-3.26108-2.44585-2.96674-4.8974a9.18025,9.18025,0,0,0-.03781-2.48912c-.36841-2.34431-2.28024-1.45093-3.57224-1.4626-1.11588-.01009-3.20724-.84842-3.09567,1.24763.17676,3.32072-1.82576,7.45219,1.62088,9.76807,3.05457,2.05244,5.87762,6.82635,10.235,4.239,4.11386-2.44278,10.46173-2.684,10.5224-10.2312.04779-5.9472-1.39713-9.91042-7.19525-11.89613-1.70862-.58516-3.22058-1.72087-4.89066-2.44809-2.4841-1.0817-2.88187-3.13527-2.44031-5.37279.50589-2.56346,2.691-1.05,4.10471-1.3452,2.41107-.50342,3.2124.65839,3.02094,3.022-.2323,2.86768,2.07242,1.96512,3.50015,1.97154,1.28625.00578,2.9082.75951,3.4408-1.63852,1.47519-6.64211-.54172-9.46332-7.14136-9.4792C466.69046,319.81061,465.526,319.813,464.36148,319.81273ZM415.949,337.61336c0,1.33154-.02193,2.66351.00331,3.99458.35167,18.54665-3.14951,15.05223,16.51714,15.44049.499.00986.99887.002,1.4978-.01411,1.26384-.04083,1.502-.822,1.70612-1.94391.76556-4.20908-1.57217-4.35527-4.85947-4.47081-3.369-.11842-8.7269,2.71378-8.20628-5.0493.27914-4.16226,1.21648-5.70953,5.31813-5.05554,1.29842.207,2.66377-.04944,3.98828.04671,2.899.21042,2.56517-1.7666,2.65726-3.62941.10344-2.09239-.58911-3.0824-2.83473-2.91278-1.98595.15-3.99712-.05695-5.98822.05409-1.97345.11008-2.90872-.29846-3.03761-2.65526-.20439-3.737.27571-6.185,4.90627-5.37421,1.61487.28279,3.33235-.07881,4.98271.07344,2.42644.22383,3.14436-.77167,3.11758-3.13765-.02567-2.26958-.536-3.31621-3.05742-3.22331-4.65411.17151-9.32224.15173-13.97807.00609-2.23177-.06979-2.83109.74361-2.77444,2.8721C416.04016,327.62433,415.94984,332.62006,415.949,337.61336ZM334.9966,319.80524a42.30046,42.30046,0,0,1-5.47972-.04156c-3.48846-.45934-4.50174.833-4.4033,4.34811.2558,9.13486.161,18.28247.05324,27.42319-.04686,3.97368,1.44168,5.84538,5.6127,5.56351a93.10575,93.10575,0,0,1,10.46671-.008c2.5038.11334,3.89827-.16624,3.8596-3.33755-.03665-3.005-1.44414-3.13812-3.66711-3.03618-2.32205.10649-4.653.02756-6.98.01414-1.17035-.00674-2.07251.00806-2.44252-1.66252-1.44-6.50159.03209-8.50545,6.64354-8.521a15.412,15.412,0,0,1,1.993.01131c2.57849.33261,3.39455-.69,3.43111-3.32971.03874-2.7982-1.05069-3.44293-3.51073-3.20873-1.64723.15683-3.33957-.12633-4.97969.06378-2.81273.326-3.59636-.731-3.652-3.55547-.06474-3.28847.55531-5.02266,4.27406-4.48418,1.7908.25929,3.66634-.10881,5.47488.08049,2.59258.27138,3.34726-.63614,3.40311-3.28583.063-2.98917-1.35942-3.184-3.61578-3.05865C339.32349,319.9,337.15744,319.80614,334.9966,319.80524Zm170.99461-36.66071c0-7.31181-.162-14.62881.07239-21.93311.10757-3.35272-1.04984-4.37043-4.26678-4.16377-2.73624.17577-5.13617-.34354-5.07037,3.91738q.33865,21.9302.00092,43.86823c-.06476,4.24991,2.3287,3.77708,5.07874,3.93571,3.20065.18461,4.38339-.80685,4.2627-4.19028C505.81418,297.44212,505.9913,290.29016,505.99121,283.14452Zm42.44223,54.532c0-2.82657.08136-5.65623-.02673-8.47867-.0809-2.1122.22162-3.6387,2.878-3.29822,1.92032.24614,4.72733-.96286,4.3765,2.79811-.25446,2.72766,1.692,2.17372,3.29605,2.30954,2.10242.178,3.07312-.5843,2.98041-2.778a31.93829,31.93829,0,0,1,.1557-5.47906c.33972-2.58879-.88718-3.04811-3.12677-2.97511-4.15231.13541-8.31589.14842-12.46771.0062-3.427-.11739-4.80679,1.3773-4.77185,4.74428q.1268,12.21938-.00949,24.44075a5.53593,5.53593,0,0,0,2.695,4.92953c6.71979,4.85207,10.2822,4.64845,16.58264-.66493,1.60068-1.34991.94528-2.18187.1503-3.25812-.80209-1.08588-1.14432-3.0784-3.26672-1.97046-1.17349.61258-2.28809,1.33846-3.46408,1.94576-3.54813,1.83226-5.74615.66672-5.94989-3.29463C548.31125,343.66849,548.43442,340.66933,548.43344,337.6765ZM489.14349,341.006c0,3.49971-.134,7.00633.0462,10.49673.12405,2.40186-1.58,5.73792,3.55222,5.69365,4.92606-.04248,3.15756-3.2515,3.21133-5.41255.16983-6.82854.27051-13.67278-.01889-20.49326-.16177-3.81247.36758-6.13013,4.90967-5.26476,2.15573.41071,3.00534-.66968,2.83029-2.83339-.13358-1.65144.29187-3.42636-2.35333-3.39418q-8.74786.10648-17.498.003c-2.79752-.0284-2.0322,1.97127-2.15857,3.49414-.14069,1.69551.17374,3.16623,2.33774,2.72841,5.38278-1.089,5.46921,2.112,5.18494,5.98615C488.9682,334.99359,489.14349,338.0062,489.14349,341.006Z" transform="translate(-196.90386 -183.90494)"/><path class="cls-2" d="M268.50317,356.9935c2.12029-3.75473,3.81461-6.73354,5.487-9.72456,1.05732-1.891,2.87841-1.3553,4.46613-1.36987,5.63387-.05168,11.26849-.02016,17.90936-.02016-4.52371-7.98781-8.54712-15.35086-12.85551-22.54323-1.30379-2.17651-1.873-6.1086-4.44238-5.96442-2.31628.13-3.063,3.94911-4.37242,6.19919-5.69272,9.78191-11.36172,19.58034-16.83309,29.48669-1.64447,2.97746-3.599,4.0661-7.05854,4.02509-16.62793-.1972-33.25949-.08865-50.65294-.08865,1.96794-3.5553,3.593-6.58272,5.301-9.56259q24.95445-43.53687,49.87382-87.09357c2.12341-3.7333,3.20694-3.95153,5.22458-.008a118.33751,118.33751,0,0,0,8.96544,15.55909c3.24345,4.49025,2.67385,8.18244-.36359,12.12858-.97745,1.26985-1.26321,3.07708-3.1272,3.95211-2.53252-2.682-3.91861-6.09612-5.68674-9.22995-1.70824-3.02766-2.78013-3.64783-4.78881-.09006-10.4738,18.55118-21.14921,36.9884-31.704,55.49408-4.39334,7.70284-4.33641,7.73532,4.76447,7.73531,5.33061,0,10.6733-.217,15.98745.07872,3.35535.18674,5-1.15489,6.57715-3.97845,8.27826-14.82088,16.7736-29.52071,25.22358-44.24535,2.7072-4.71745,2.77236-4.7066,5.36012-.19421,10.51546,18.33634,20.925,36.73446,31.59437,54.98069,2.24748,3.84355,1.63687,4.59541-2.62458,4.5401C296.96678,356.88149,283.20193,356.9935,268.50317,356.9935Z" transform="translate(-196.90386 -183.90494)"/><path class="cls-2" d="M411.04141,283.19766c.00052-7.319.09567-14.63987-.04849-21.956-.05415-2.74873.83311-3.93358,3.65706-3.922,6.819.02807,13.63853-.15659,20.458-.16539,3.62889-.00468,5.58159,2.02163,5.65643,5.56969.11926,5.65306.04355,11.31044.03238,16.966-.0054,2.73965-1.06906,5.10363-3.71167,5.92115-3.63538,1.12465-2.02075,2.75407-.544,4.08151,5.531,4.97194,3.27156,11.49847,3.33452,17.40079.02879,2.69743-3.20967,1.29661-4.99162,1.58867-2.4137.3956-3.4115-1.05039-3.30469-3.18668.28027-5.60582-1.17879-10.45042-5.5695-14.216-1.09529-.93935-1.77336-2.60624-3.647-1.961-2.10052.72337-1.74483,2.57825-1.75821,4.20065-.03015,3.65926-.22142,7.33437.04588,10.97418.28214,3.84188-1.67775,4.33479-4.83728,4.28795-2.98158-.0442-5.03966-.09378-4.86087-4.12946C411.26852,297.51306,411.04089,290.35032,411.04141,283.19766Zm9.18987-9.57542h.01619c0,1.66012-.02371,3.32069.008,4.9802.02246,1.17514.087,2.22036,1.672,2.55665a7.58207,7.58207,0,0,0,9.26186-7.51508c.0025-1.66015.01534-3.32073-.01764-4.9803-.01945-.9791.11569-2.35145-.99559-2.56971-2.92947-.57538-6.0565-.924-8.83748.095-2.05142.75169-.84874,3.23721-1.08775,4.94569A18.11271,18.11271,0,0,0,420.23128,273.62225Z" transform="translate(-196.90386 -183.90494)"/><path class="cls-2" d="M355.99149,286.64234c-.0002,5.98505-.19705,11.9791.076,17.95168.15587,3.40994-1.10141,4.34652-4.28055,4.17629-2.773-.14849-5.40627.28067-5.03575-3.964.30244-3.46476-.06628-6.983.09709-10.46659.13112-2.79581-.90732-3.83092-3.73584-3.78509-11.49443.18623-8.96381-.97249-9.2541,8.6632a19.65342,19.65342,0,0,0,.02907,3.98371c.87831,4.93268-1.59048,5.8896-5.87355,5.59331-2.725-.18851-3.83733-.98492-3.81424-3.81528.09761-11.9693.03944-23.93988.04143-35.91a8.444,8.444,0,0,1,.05882-1.49309c1.06078-5.85469,16.97977-12.45323,22.26317-9.78728,7.39578,3.73185,10.91852,8.91247,9.53116,17.39854C355.48528,278.912,355.99167,282.81856,355.99149,286.64234Zm-9.21255-11.19386a26.915,26.915,0,0,0-.05029-4.95463c-.66141-3.18179-2.833-4.9502-6.03716-4.29978-5.57466,1.13159-9.21594,9.327-6.6228,14.41338.20723.4065.60979,1.0133.92815,1.0174,3.62868.04677,7.475.71664,10.81273-.28349C348.06329,280.666,346.3199,277.14149,346.77893,275.44849Z" transform="translate(-196.90386 -183.90494)"/><path class="cls-2" d="M593.01361,280.01025q.00124,7.49621.00049,14.99242c-.00012.8329.05179,1.67043-.0162,2.498-.46262,5.62949-16.32587,13.78936-21.1644,10.898a7.97273,7.97273,0,0,0-.85092-.52142c-7.85669-3.42936-10.69257-9.19293-9.86758-17.84278.803-8.41917.12741-16.97514.19257-25.47035.045-5.871,1.61517-7.41055,7.39191-7.44533,5.99673-.03611,11.9942.03366,17.99072-.01787,4.377-.03761,6.40488,2.0452,6.34171,6.41795C592.95248,269.01493,593.01279,274.513,593.01361,280.01025Zm-22.12381,2.24744c0,3.652.23114,7.32279-.06409,10.95077-.3038,3.73345.94022,6.28386,4.63757,6.93512,3.27014.576,8.34644-4.0374,8.37466-7.30451.0517-5.97554.0152-11.95185.01529-17.92784.00009-9.82108.00577-9.70875-9.673-9.21481-2.70465.138-3.39062,1.16813-3.321,3.61428C570.98184,273.62319,570.89352,277.9417,570.8898,282.25768Z" transform="translate(-196.90386 -183.90494)"/><path class="cls-2" d="M378.743,272.59671c2.94968-3.93078,6.10852-7.72542,8.78343-11.835,2.17334-3.33907,5.11473-3.77971,8.61826-3.69128,2.32182.05859,3.022,1.25933,2.654,3.15544-.384,1.978,1.63722,5.1512-2.05869,5.65094-5.41765.73254-6.27164,5.88279-9.18373,9.00431-1.183,1.26814.537,2.21847,1.4433,2.53577,9.99831,3.50078,10.68488,11.50117,10.01187,20.248-.14,1.81967.01241,3.66195.03207,5.49379.05722,5.32741-2.0858,6.88468-7.25771,5.54279-1.80489-.4683-1.79556-1.62811-1.864-2.98044-.17659-3.48986-.72942-7.00237-.49-10.46141.32471-4.6916-1.129-8.07744-5.45143-10.09043-1.26706-.59008-2.114-2.6312-3.77711-1.67207a5.01547,5.01547,0,0,0-2.4518,4.62679c.05342,5.32879-.21538,10.67151.08612,15.9836.22487,3.9618-1.493,4.65379-4.99689,4.7188-3.66623.068-4.88327-.90209-4.82123-4.74078q.34309-21.22864-.006-42.46519c-.07022-3.9966,1.42674-4.61568,4.92979-4.62772,3.54622-.01218,5.26675.68725,4.88947,4.66074-.3356,3.53439-.07047,7.12584-.07047,10.6921Z" transform="translate(-196.90386 -183.90494)"/><path class="cls-2" d="M527.74814,262.62336c5.22351-4.03535,9.87927-6.2505,15.57813-5.57143,3.773.44958,5.78836,1.92413,5.77005,5.93954-.06381,13.997-.14951,27.99646.06009,41.99068.05844,3.90168-2.02493,3.74188-4.70648,3.77277-2.78647.03208-4.68542-.077-4.60956-3.87446.23291-11.65978.11172-23.3273.06973-34.99159-.01614-4.49209-.96152-4.91975-4.94092-3.03545-5.07016,2.40078-7.802,5.53745-7.29114,11.826.69925,8.6082-.0278,17.32265.26355,25.97785.13644,4.05267-1.92371,4.09064-4.89838,4.12019-3.132.03111-4.93463-.4262-4.88058-4.29046.19348-13.828-.00577-27.66131.15958-41.49.02567-2.149-1.88943-5.979,2.88718-5.83038C524.307,257.263,529.04526,255.1274,527.74814,262.62336Z" transform="translate(-196.90386 -183.90494)"/><path class="cls-2" d="M484.18744,286.45022c-.00052,6.15247-.19836,12.31366.07233,18.45419.16727,3.79444-1.8736,3.8997-4.64935,3.84574-2.63779-.05127-5.0466.19553-4.66257-3.75864.304-3.12983-.26227-6.35421.13623-9.46246.59546-4.64457-1.37595-5.58456-5.59692-5.38356-8.72156.41531-7.28906-.96433-7.43909,7.42672a33.765,33.765,0,0,0,.04675,5.97757c.79568,4.87257-1.7674,5.479-5.7262,5.238-2.48981-.15158-3.54239-.78346-3.52005-3.44817.10321-12.30408.04749-24.60949.05026-36.91442a7.2439,7.2439,0,0,1,.032-.99648c.6998-5.01194,16.4873-12.74085,20.86273-10.217.14362.08283.26636.20672.41568.27416,7.79376,3.51955,11.74283,9.01106,10.08554,18.00931C483.64307,279.03342,484.188,282.792,484.18744,286.45022Zm-9.19156-11.223c0-1.85358.11319-3.36191-.02295-4.84738-.30753-3.35526-2.75473-4.57969-5.54971-4.27373-5.69965.62392-9.90582,9.44244-7.182,14.58138.20923.39477.64331.95293.977.95578,3.64191.03111,7.50784.6935,10.84729-.33187C476.2291,280.64709,474.55289,277.0833,474.99588,275.22726Z" transform="translate(-196.90386 -183.90494)"/><path class="cls-3" d="M353.01489,338.51083c.00006-5.15778.11179-10.31906-.04964-15.47179-.07457-2.38057.6515-3.16724,3.06607-3.11q7.72975.18313,15.4689-.138c3.50024-.14027,4.69319,1.33495,4.63521,4.73782-.14455,8.48291-.01337,16.97015-.05959,25.45528-.02618,4.80693-5.093,8.92224-9.75148,7.698-3.29-.86459-6.30122-2.22432-9.88232-.7421-2.02986.84018-3.66417.04945-3.50314-2.95993C353.2141,348.83707,353.01482,343.66862,353.01489,338.51083Zm16.24956.45357c0-3.49657-.12494-6.99887.03517-10.48808.15991-3.48474-2.385-2.7677-4.05487-2.46246-1.83487.3354-5.21283-2.12428-5.29765,2.15584-.13194,6.65749-.26222,13.33018.04893,19.97572.19589,4.18343,4.36571,2.80058,6.69537,3.49011,2.444.72337,2.58577-1.78336,2.57936-3.68C369.26062,344.95854,369.26807,341.96146,369.26445,338.9644Z" transform="translate(-196.90386 -183.90494)"/><path class="cls-3" d="M391.65189,337.81374c.001,2.99986-.11969,6.00583.0314,8.99806.191,3.783,2.19136,4.68254,5.61295,3.36119,3.66972-1.41714,2.86447-4.2733,3.0993-7.021.25522-2.98613-1.38666-3.08585-3.64188-3.13994-2.41257-.05788-1.42126-2.14586-1.58865-3.45457-.198-1.54774.31192-2.61829,2.14061-2.50221a8.33965,8.33965,0,0,0,.99957-.00668c8.83113-.50319,8.83112-.50372,8.83105,8.29636-.00006,9.43195-1.89056,12.14972-10.60318,15.24327-3.556,1.2626-11.57216-4.33746-11.629-8.33157-.11859-8.33128.01605-16.66592-.06406-24.99812-.03043-3.1657,1.2849-4.54987,4.47949-4.48027,4.99742.10892,10.00212.13342,14.9973-.01836,2.29184-.06966,2.92027.8029,2.65788,2.90465a43.05584,43.05584,0,0,0-.20064,4.493c-.03407,1.761-.09325,3.47156-2.58182,3.267-1.67966-.13809-3.54076.64159-3.95122-2.361-.58649-4.2901-4.19928-1.6-6.38713-2.05974-2.684-.564-2.163,1.75917-2.18932,3.31056C391.61649,332.14673,391.65089,334.98053,391.65189,337.81374Z" transform="translate(-196.90386 -183.90494)"/><path class="cls-3" d="M532.90625,340.98341c-.00006,4.157-.15533,8.32184.05444,12.46822.14023,2.77159-.68369,3.66989-3.56238,3.70923-3.04221.04156-3.68347-1.16867-3.41168-3.78336.1539-1.48053-.18466-3.027.06763-4.47972.74841-4.30966-1.12509-5.16255-5.14334-5.10153-3.6384.05525-4.652,1.22433-4.21658,4.56279.2132,1.635-.09488,3.33368.06659,4.98062.26111,2.66309-.459,3.804-3.47858,3.82645-3.05389.02272-3.46719-1.18623-3.42194-3.78442.139-7.979.19235-15.96574-.02026-23.9415-.083-3.11327.97519-5.04387,3.72479-6.27245,1.36041-.60785,2.64929-1.37653,3.96744-2.07822,7.69769-4.09755,15.36453.598,15.37338,9.41827Q532.911,335.7456,532.90625,340.98341Zm-6.89243-7.92456c.00516-4.75963-1.14157-6.96-3.45413-7.06262-2.94772-.13083-5.56677,3.3701-5.90222,7.01-.35074,3.80594,1.0206,4.65157,4.69937,4.73721C525.50848,337.84016,526.72174,336.39722,526.01382,333.05885Z" transform="translate(-196.90386 -183.90494)"/><path class="cls-3" d="M578.13959,330.948q3.49722-4.74076,6.99411-9.48172c1.70471-2.31259,4.22906-1.95815,6.39633-1.46231,2.33011.53307.89523,2.77145,1.10263,4.24838a1.41381,1.41381,0,0,1-1.29358,1.76688c-4.43027.52289-4.91608,4.81236-7.29739,7.21292,2.60086,2.68614,7.01752,3.08565,8.07932,6.70622,1.4581,4.97194.647,10.24138.8345,15.38083.09418,2.58035-2.0014,1.66953-3.25381,1.67474-1.4454.006-3.59338.87555-3.6153-1.95808a72.12992,72.12992,0,0,1-.071-7.97736c.34756-3.33174-1.19812-5.22548-3.8165-6.83446-3.167-1.94617-4.77606-1.31664-5.00891,2.50377a101.47474,101.47474,0,0,0-.00894,10.97517c.11838,2.49011-.4989,3.58313-3.25458,3.42439-2.27-.13077-3.68494-.20509-3.63873-3.16217q.2455-15.71787.00778-31.4416c-.039-2.86385,1.54462-2.7235,3.47684-2.74344,1.95319-.02016,3.64944-.13142,3.40936,2.73389-.21976,2.62286-.04663,5.27866-.04663,7.92Z" transform="translate(-196.90386 -183.90494)"/><path class="cls-3" d="M464.36148,319.81287c1.16449.00014,2.329-.00226,3.49347.00055,6.59964.01588,8.61655,2.8371,7.14136,9.4792-.53259,2.398-2.15454,1.6443-3.4408,1.63852-1.42773-.00642-3.73245.89613-3.50015-1.97154.19147-2.36363-.60986-3.52544-3.02094-3.022-1.41373.29515-3.59882-1.21826-4.10471,1.3452-.44156,2.23752-.04379,4.29109,2.44031,5.37279,1.67007.72722,3.182,1.86293,4.89066,2.44809,5.79813,1.98572,7.243,5.94893,7.19525,11.89613-.06067,7.54721-6.40854,7.78842-10.5224,10.2312-4.35736,2.58734-7.18042-2.18657-10.235-4.239-3.44664-2.31587-1.44412-6.44734-1.62088-9.76807-.11157-2.09605,1.9798-1.25772,3.09567-1.24763,1.292.01167,3.20383-.88171,3.57224,1.4626a9.18025,9.18025,0,0,1,.03781,2.48912c-.29434,2.45155.44547,4.6283,2.96674,4.8974a5.33474,5.33474,0,0,0,5.55463-3.33246c.82056-2.22884.41473-4.65215-2.14908-5.97392-2.21194-1.14035-4.36032-2.44014-6.65811-3.36961-3.78082-1.52936-5.71179-3.77251-5.61472-8.24167C454.12354,318.82471,453.41156,319.79837,464.36148,319.81287Z" transform="translate(-196.90386 -183.90494)"/><path class="cls-3" d="M415.94943,337.61336c.00041-4.9933.09073-9.989-.04207-14.97879-.05664-2.12849.54268-2.94189,2.77444-2.8721,4.65584.14565,9.324.16542,13.97807-.00609,2.52142-.0929,3.03175.95374,3.05742,3.22331.02678,2.366-.69115,3.36148-3.11758,3.13765-1.65036-.15225-3.36784.20935-4.98271-.07344-4.63055-.81082-5.11066,1.63716-4.90627,5.37421.12889,2.3568,1.06416,2.76534,3.03761,2.65526,1.9911-.111,4.00227.09592,5.98822-.05409,2.24562-.16962,2.93817.82039,2.83473,2.91278-.09209,1.86281.2417,3.83983-2.65726,3.62941-1.32451-.09615-2.68987.16031-3.98828-.04671-4.10165-.654-5.039.89328-5.31813,5.05554-.52061,7.76308,4.83728,4.93088,8.20628,5.0493,3.28729.11554,5.625.26173,4.85947,4.47081-.20407,1.1219-.44228,1.90308-1.70612,1.94391-.49893.01613-.99878.024-1.4978.01411-19.66664-.38826-16.16547,3.10616-16.51714-15.44049C415.92709,340.27687,415.949,338.9449,415.94943,337.61336Z" transform="translate(-196.90386 -183.90494)"/><path class="cls-3" d="M334.9966,319.80569c2.16084.00044,4.32689.0943,6.48108-.02536,2.25636-.12534,3.6788.06949,3.61578,3.05865-.05585,2.64969-.81053,3.55721-3.40311,3.28583-1.80855-.1893-3.68408.1788-5.47488-.08049-3.71875-.53848-4.33881,1.19571-4.27406,4.48418.05562,2.82448.83925,3.8815,3.652,3.55547,1.64012-.19011,3.33246.093,4.97969-.06378,2.46-.23421,3.54947.41052,3.51073,3.20873-.03656,2.63969-.85262,3.66232-3.43111,3.32971a15.412,15.412,0,0,0-1.993-.01131c-6.61145.01556-8.0835,2.01942-6.64354,8.521.37,1.67058,1.27217,1.65578,2.44252,1.66252,2.327.01341,4.658.09235,6.98-.01414,2.223-.10194,3.63046.03119,3.66711,3.03618.03867,3.17131-1.3558,3.4509-3.8596,3.33755a93.10575,93.10575,0,0,0-10.46671.008c-4.171.28188-5.65956-1.58983-5.6127-5.56351.1078-9.14072.20256-18.28833-.05324-27.42319-.09843-3.51508.91484-4.80745,4.4033-4.34811A42.38181,42.38181,0,0,0,334.9966,319.80569Z" transform="translate(-196.90386 -183.90494)"/><path class="cls-2" d="M505.99127,283.14452c0,7.14564-.17709,14.29759.07751,21.43415.1207,3.38343-1.062,4.37489-4.2627,4.19028-2.75-.15862-5.14349.3142-5.07874-3.93571q.33421-21.93035-.00092-43.86823c-.0658-4.26093,2.33414-3.74161,5.07037-3.91738,3.21695-.20666,4.37436.81105,4.26678,4.16377C505.82922,268.51571,505.99121,275.83271,505.99127,283.14452Z" transform="translate(-196.90386 -183.90494)"/><path class="cls-3" d="M548.43393,337.6765c.00049,2.99283-.12268,5.992.03085,8.97693.20374,3.96135,2.40176,5.12689,5.94989,3.29463,1.176-.6073,2.29059-1.33318,3.46408-1.94576,2.12241-1.10794,2.46463.88458,3.26672,1.97046.795,1.07625,1.45038,1.9082-.1503,3.25812-6.30045,5.31338-9.86285,5.517-16.58264.66493a5.53593,5.53593,0,0,1-2.695-4.92953q.13531-12.21922.00949-24.44075c-.03494-3.367,1.34488-4.86166,4.77185-4.74428,4.15182.14223,8.3154.12921,12.46771-.0062,2.23959-.073,3.46649.38632,3.12677,2.97511a31.93829,31.93829,0,0,0-.1557,5.47906c.09271,2.19373-.878,2.956-2.98041,2.778-1.6041-.13582-3.55051.41812-3.29605-2.30954.35083-3.761-2.45618-2.552-4.3765-2.79811-2.6564-.34048-2.95892,1.186-2.878,3.29822C548.5148,332.02026,548.43344,334.84993,548.43393,337.6765Z" transform="translate(-196.90386 -183.90494)"/><path class="cls-3" d="M489.14349,341.006c0-2.99976-.17529-6.01236.04364-8.996.28427-3.87412.19785-7.07516-5.18494-5.98615-2.164.43782-2.47842-1.0329-2.33774-2.72841.12637-1.52287-.63895-3.52254,2.15857-3.49414q8.74828.08885,17.498-.003c2.6452-.03218,2.21976,1.74274,2.35333,3.39418.175,2.16371-.67456,3.24409-2.83029,2.83339-4.54208-.86537-5.07144,1.45229-4.90967,5.26476.2894,6.82048.18872,13.66472.01889,20.49326-.05377,2.16106,1.71472,5.37007-3.21133,5.41255-5.1322.04427-3.42816-3.29179-3.55222-5.69365C489.00946,348.01228,489.14349,344.50566,489.14349,341.006Z" transform="translate(-196.90386 -183.90494)"/><path class="cls-1" d="M420.23128,273.62225a18.11271,18.11271,0,0,1,.01956-2.48751c.239-1.70847-.96367-4.194,1.08775-4.94569,2.781-1.019,5.908-.67042,8.83748-.095,1.11128.21826.97614,1.59061.99559,2.56971.033,1.65957.02014,3.32015.01764,4.9803a7.58207,7.58207,0,0,1-9.26186,7.51508c-1.585-.33629-1.64951-1.38151-1.672-2.55665-.03172-1.65952-.008-3.32008-.008-4.9802Z" transform="translate(-196.90386 -183.90494)"/><path class="cls-1" d="M346.77893,275.44849c-.459,1.693,1.28436,5.21755-.96938,5.89288-3.33769,1.00013-7.18405.33026-10.81273.28349-.31836-.0041-.72092-.6109-.92815-1.0174-2.59314-5.08643,1.04814-13.28178,6.6228-14.41338,3.20416-.65042,5.37575,1.118,6.03716,4.29978A26.915,26.915,0,0,1,346.77893,275.44849Z" transform="translate(-196.90386 -183.90494)"/><path class="cls-1" d="M570.89166,282.25768c.00186-4.316.09018-8.63449-.03247-12.947-.06958-2.44615.61639-3.47625,3.321-3.61428,9.67877-.49394,9.6731-.60627,9.673,9.21481-.00009,5.976.03641,11.9523-.01529,17.92784-.02823,3.26711-5.10452,7.88051-8.37466,7.30451-3.69736-.65126-4.94138-3.20167-4.63757-6.93512C571.12094,289.58047,570.8898,285.90968,570.89166,282.25768Z" transform="translate(-196.90386 -183.90494)"/><path class="cls-1" d="M474.99588,275.22726c-.443,1.856,1.23322,5.41983-.93042,6.08418-3.33945,1.02538-7.20538.363-10.84729.33187-.33365-.00285-.76773-.561-.977-.95578-2.72382-5.13894,1.48236-13.95745,7.182-14.58138,2.795-.306,5.24219.91846,5.54971,4.27373C475.10907,271.86536,474.99588,273.37369,474.99588,275.22726Z" transform="translate(-196.90386 -183.90494)"/><path class="cls-1" d="M369.26627,338.9644c.0018,2.99706-.00565,5.99414.0045,8.99115.00641,1.89662-.13536,4.40335-2.57936,3.68-2.32967-.68953-6.49948.69331-6.69537-3.49011-.31116-6.64554-.18088-13.31824-.04893-19.97572.08482-4.28012,3.46278-1.82043,5.29765-2.15584,1.66991-.30524,4.21478-1.02228,4.05487,2.46246C369.13951,331.96553,369.26445,335.46783,369.26627,338.9644Z" transform="translate(-196.90386 -183.90494)"/><path class="cls-1" d="M526.01382,333.05885c.70792,3.33836-.50534,4.78131-4.657,4.68463-3.67877-.08565-5.05011-.93127-4.69937-4.73721.33545-3.63994,2.9545-7.14087,5.90222-7.01C524.87225,326.09888,526.019,328.29922,526.01382,333.05885Z" transform="translate(-196.90386 -183.90494)"/></svg>