<svg id="Layer_1" data-name="Layer 1" xmlns="http://www.w3.org/2000/svg" viewBox="0 0 428.375 156.83333"><defs><style>.cls-1{fill:#231f20;}.cls-10,.cls-11,.cls-12,.cls-13,.cls-14,.cls-15,.cls-2,.cls-3,.cls-4,.cls-5,.cls-6,.cls-7,.cls-8,.cls-9{fill:none;stroke-miterlimit:10;}.cls-2{stroke:#1dcad3;stroke-width:1.6852px;}.cls-3{stroke:#36c0ca;stroke-width:1.58424px;}.cls-4{stroke:#23bec8;stroke-width:1.48328px;}.cls-5{stroke:#1fb5be;stroke-width:1.38233px;}.cls-6{stroke:#1cafb9;stroke-width:1.28137px;}.cls-7{stroke:#11a8b4;stroke-width:1.18041px;}.cls-8{stroke:#007481;stroke-width:0.37274px;}.cls-9{stroke:#107b86;stroke-width:0.4737px;}.cls-10{stroke:#0c828d;stroke-width:0.57466px;}.cls-11{stroke:#128894;stroke-width:0.67562px;}.cls-12{stroke:#078f99;stroke-width:0.77657px;}.cls-13{stroke:#0d94a0;stroke-width:0.87753px;}.cls-14{stroke:#019fae;stroke-width:0.97849px;}.cls-15{stroke:#10a4ac;stroke-width:1.07945px;}</style></defs><title>alef</title><path class="cls-1" d="M346.39091,133.17263l.003.00149h0Z"/><path class="cls-1" d="M52.12527,69.88171V63.69544a1.42578,1.42578,0,0,1,1.22017-.31459q7.01067-.01248,14.02137-.003c1.50195.00235,1.51415.017,1.51454,1.59216q.005,20.53131.002,41.06263,0,9.431.00022,18.8621c.00018,1.79724.07588,1.69515-1.75462,1.695q-6.67684-.00056-13.3537-.00319c-.49067-.00058-.98128-.0433-1.55943-.0706-.27368-2.15611-.02015-4.26169-.15947-6.45793a4.33645,4.33645,0,0,0-1.32929,1.16523,22.39879,22.39879,0,0,1-10.48423,6.193,28.47348,28.47348,0,0,1-10.5736.59442A29.60806,29.60806,0,0,1,17.68328,123.812,30.035,30.035,0,0,1,5.78,110.02935,36.78806,36.78806,0,0,1,2.77244,91.815,33.79367,33.79367,0,0,1,8.86467,74.43542,29.20554,29.20554,0,0,1,28.95013,62.00379a28.48749,28.48749,0,0,1,11.07966.42591,21.97654,21.97654,0,0,1,10.75109,6.35816c.34513.35942.706.70386,1.06532,1.04932C51.87883,69.86857,51.95332,69.85645,52.12527,69.88171Zm.37527,24.624a27.98781,27.98781,0,0,0-.3478-3.82666C50.37416,82.21078,43.43655,76.2374,33.206,77.97366,26.99615,79.02755,22.981,82.987,21.11325,89.03317a19.68769,19.68769,0,0,0-.62035,9.36907,16.275,16.275,0,0,0,7.40886,11.53147,16.03407,16.03407,0,0,0,9.73512,2.22185,14.77605,14.77605,0,0,0,11.7007-6.35965A17.78763,17.78763,0,0,0,52.50054,94.50567Z"/><path class="cls-1" d="M135.08818,100.89416a4.93251,4.93251,0,0,0,.51993,2.44649,14.61466,14.61466,0,0,0,13.45141,10.1648,24.64408,24.64408,0,0,0,16.94087-5.23446c.88544-.67586.98414-.70056,1.66062.04306q4.48935,4.93491,8.93532,9.90922a1.22836,1.22836,0,0,1,.13069.36537,9.74549,9.74549,0,0,1-2.77738,2.50931,35.02357,35.02357,0,0,1-14.06843,6.13688,47.29983,47.29983,0,0,1-11.08886,1.00459,33.34441,33.34441,0,0,1-19.54014-6.608,29.42473,29.42473,0,0,1-8.75986-10.95174,36.4284,36.4284,0,0,1-3.23593-18.49024,33.70671,33.70671,0,0,1,7.13563-19.19725,29.09422,29.09422,0,0,1,17.26123-10.55307,32.95585,32.95585,0,0,1,18.06736.92541,28.22063,28.22063,0,0,1,16.9705,15.71865,36.36981,36.36981,0,0,1,3.12514,13.8615c.07046,2.17237-.11291,4.32386-.10763,6.48613.00289,1.17908-.16837,1.27912-1.39854,1.331-.38872.0164-.77871.00363-1.1681.00363q-20.02629.00009-40.05255.00382A6.63549,6.63549,0,0,0,135.08818,100.89416Zm27.39433-11.95374c-.79888-6.53809-5.31211-12.98484-14.69348-12.45128-7.69427.43761-12.02521,6.28774-12.61525,12.45128Z"/><path class="cls-1" d="M240.5,36.90754c-2.25635,4.40664-4.49906,8.78662-6.76,13.20215a50.02406,50.02406,0,0,0-4.86739-2.07719,16.0724,16.0724,0,0,0-7.37892-.85628c-3.33836.40657-5.12578,2.51315-5.682,5.828a21.57756,21.57756,0,0,0-.30153,3.14963c-.0443,2.3289-.01378,4.65922-.01378,7.07556a31.12646,31.12646,0,0,0,4.86092.13866c1.61229.03186,3.2257.007,4.83862.007h9.5624c.48528.36291.39047.77946.39108,1.15435q.01054,6.34044.00057,12.68088c-.00368,1.32931-.0275,1.3495-1.4258,1.35182q-8.09241.01338-16.18484.00383h-1.81173a3.10727,3.10727,0,0,0-.22376,1.84893q-.01656,22.02473-.01233,44.04945c-.0012,2.40115.25936,2.11365-2.14992,2.1214-4.33813.014-8.67639.0044-13.01458.00324-.44484-.00011-.89013.00054-1.33442-.01807a.58272.58272,0,0,1-.62668-.62283q-.01662-.75051-.016-1.50139-.00114-21.9413-.00646-43.88259a4.61866,4.61866,0,0,0-.12106-1.80141c-.4038-.31394-.86553-.18885-1.29582-.19056-2.9477-.01174-5.89551.00136-8.84321-.00972-1.41654-.00533-1.44089-.0212-1.44435-1.32987q-.017-6.42382.00057-12.84773c.00033-.2681.04727-.53615.08454-.932h11.17716c.59308-.471.43738-.94973.44068-1.37126.01826-2.33582-.03046-4.67289.02688-7.0075a30.6261,30.6261,0,0,1,2.37989-11.82628,19.48669,19.48669,0,0,1,14.331-11.54728,32.232,32.232,0,0,1,9.76869-.46,33.91627,33.91627,0,0,1,13.24581,4.08328A10.07469,10.07469,0,0,1,240.5,36.90754Z"/><path class="cls-1" d="M86.581,126.431a5.1253,5.1253,0,0,1-.14848-1.89537q-.00765-44.90147-.00265-89.8029c.00021-2.26475-.192-2.05266,2.06768-2.05635q6.84371-.01116,13.68741.00162c1.36525.0029,1.36612.02287,1.39151,1.37721.00522.2781.001.55638.001.83458q0,44.73449-.00295,89.469c-.00039,2.498.25844,2.22147-2.22847,2.22788q-6.42637.01656-12.8528-.00216A5.05822,5.05822,0,0,1,86.581,126.431Z"/><circle class="cls-2" cx="349.08019" cy="77.74373" r="74.08155"/><path class="cls-3" d="M300.726,130.34073c26.70521,26.70521,74.24575,22.46238,100.951-4.24284s22.46238-74.24574-4.24283-100.951-74.24575-22.46238-100.951,4.24284S274.02082,103.63551,300.726,130.34073Z"/><path class="cls-4" d="M304.75543,130.55415c24.47978,24.47978,72.655,15.99412,97.13479-8.48566s15.99411-72.655-8.48567-97.13478-72.655-15.99411-97.13478,8.48566S280.27566,106.07438,304.75543,130.55415Z"/><path class="cls-5" d="M308.78484,130.76758c22.25434,22.25434,71.06426,9.52585,93.3186-12.72849s9.52585-71.06426-12.7285-93.31861-71.06425-9.52584-93.3186,12.7285S286.5305,108.51324,308.78484,130.76758Z"/><path class="cls-6" d="M312.81424,130.981c20.02891,20.02891,69.47352,3.05758,89.50243-16.97133s3.05758-69.47351-16.97133-89.50242-69.47352-3.05758-89.50243,16.97133S292.78533,110.9521,312.81424,130.981Z"/><path class="cls-7" d="M316.84365,131.19444c17.80347,17.80347,67.88277-3.41069,85.68624-21.21416S399.11921,42.09751,381.31573,24.294,313.433,27.70472,295.62949,45.50819,299.04017,113.391,316.84365,131.19444Z"/><polygon class="cls-8" points="303.134 86.957 347.176 130.998 356.686 125.295 402.301 79.68 396.655 70.164 350.868 24.378 339.335 32.332 295.1 76.567 303.134 86.957"/><path class="cls-9" d="M353.45925,127.15342c15.14254-12.25927,45.66944-40.69754,50.09382-44.92483.22713-.217-.443-2.93677-2.87746-6.09966-10.36721-13.46924-41.0949-46.51707-46.74437-52.4708-.41691-.43937-5.28464,1.4102-10.83556,5.98888C327.57469,42.44949,299.144,68.93075,294.666,73.2029c-.26.24807,1.73469,4.97215,6.311,10.5205,12.61073,15.28927,38.50311,43.11377,43.35481,48.21907C344.691,132.32037,348.76984,130.94993,353.45925,127.15342Z"/><path class="cls-10" d="M341.02007,132.475c4.45087,4.45087,58.33831-42.22028,62.78918-46.67115S361.589,27.46554,357.1381,23.01468,298.79979,65.235,294.34892,69.68583,336.56921,128.02413,341.02007,132.475Z"/><path class="cls-11" d="M336.99067,132.26157c6.6763,6.67631,59.929-35.752,66.60535-42.42832S367.844,29.9042,361.1677,23.2279s-59.92905,35.752-66.60535,42.42832S330.31437,125.58527,336.99067,132.26157Z"/><path class="cls-12" d="M332.96127,132.04815c8.90173,8.90173,61.51979-29.28375,70.42153-38.18549s-29.28375-61.5198-38.18549-70.42153-61.5198,29.28375-70.42153,38.18549S324.05953,123.14641,332.96127,132.04815Z"/><path class="cls-13" d="M328.93186,131.83472c11.12717,11.12717,63.11054-22.81549,74.23771-33.94266s-22.81548-63.11054-33.94266-74.23771S306.11638,46.46984,294.9892,57.597,317.80469,120.70755,328.93186,131.83472Z"/><path class="cls-14" d="M324.90246,131.62129c13.3526,13.35261,64.70128-16.34722,78.05388-29.69982s-16.34721-64.70128-29.69982-78.05389S308.55524,40.2148,295.20263,53.5674,311.54985,118.26869,324.90246,131.62129Z"/><path class="cls-15" d="M320.87305,131.40786c15.578,15.578,66.292-9.879,81.87007-25.457s-9.87895-66.292-25.457-81.87006-66.292,9.879-81.87007,25.457S305.295,115.82982,320.87305,131.40786Z"/></svg>