<?xml version="1.0" encoding="UTF-8" standalone="no"?>
<svg
   xmlns:dc="http://purl.org/dc/elements/1.1/"
   xmlns:cc="http://creativecommons.org/ns#"
   xmlns:rdf="http://www.w3.org/1999/02/22-rdf-syntax-ns#"
   xmlns:svg="http://www.w3.org/2000/svg"
   xmlns="http://www.w3.org/2000/svg"
   viewBox="0 0 258.66666 258.66666"
   height="258.66666"
   width="258.66666"
   xml:space="preserve"
   id="svg2"
   version="1.1"><metadata
     id="metadata8"><rdf:RDF><cc:Work
         rdf:about=""><dc:format>image/svg+xml</dc:format><dc:type
           rdf:resource="http://purl.org/dc/dcmitype/StillImage" /></cc:Work></rdf:RDF></metadata><defs
     id="defs6" /><g
     transform="matrix(1.3333333,0,0,-1.3333333,0,258.66667)"
     id="g10"><g
       transform="scale(0.1)"
       id="g12"><path
         id="path14"
         style="fill:#ffffff;fill-opacity:1;fill-rule:evenodd;stroke:none"
         d="M 2.59766,1933.23 H 1930.16 V 5.66797 H 2.59766 V 1933.23" /><path
         id="path16"
         style="fill:#231f20;fill-opacity:1;fill-rule:evenodd;stroke:none"
         d="m 650.492,937.551 c -4.078,0.906 -9.969,4.078 -14.496,7.703 -41.23,39.414 11.324,85.626 72.031,112.346 v 76.11 c 14.496,-8.61 21.739,-9.51 22.649,-10.87 l 46.211,46.21 -15.407,38.96 c 135.911,47.12 190.723,65.23 301.26,83.81 l -19.93,18.12 32.62,19.03 c 74.3,-24.92 143.6,-31.26 131.83,-93.33 3.17,41.68 -48.93,57.99 -129.57,80.64 l -14.95,-9.51 29.45,-24.47 c -132.28,-23.1 -213.827,-48.47 -310.323,-81.99 l 12.688,-34.43 -48.024,-47.57 c 8.157,-2.26 92.414,-30.8 180.758,30.8 0.453,0.46 1.813,0.91 1.813,1.82 -3.172,4.53 -8.61,8.61 -15.856,15.41 25.367,-1.82 42.129,-24.47 38.957,-48.03 h -11.777 c 1.359,7.25 -0.449,15.86 -3.625,21.3 -67.504,-49.84 -146.778,-57.09 -214.278,-33.53 v -58.89 c -33.074,-11.33 -91.511,-47.573 -91.062,-82.452 2.269,-16.761 10.875,-22.652 19.031,-27.187" /><path
         id="path18"
         style="fill:#f3652c;fill-opacity:1;fill-rule:evenodd;stroke:none"
         d="M 926.383,952.957 C 853.441,915.359 783.68,885.91 674.953,881.832 c -139.984,2.719 -161.726,96.043 -95.133,193.438 62.516,98.31 162.184,187.56 321.196,243.28 45.3,15.85 113.704,34.88 178.484,35.33 93.78,0.91 184.84,-28.54 178.95,-117.79 -3.17,-68.85 -102.38,-166.25 -154.48,-236.02 -22.65,-30.351 -26.28,-49.832 11.78,-48.468 138.17,9.054 264.56,57.078 380.54,106.908 -77.92,-53 -486.55,-255.502 -488.82,-117.33 0.46,17.215 9.07,35.789 22.2,55.265 13.14,19.485 31.26,40.325 49.83,61.615 27.64,31.71 96.5,107.82 119.6,153.57 38.97,86.08 -48.47,90.61 -123.67,117.34 l -32.62,-19.03 19.48,-18.12 c -110.087,-18.58 -164.899,-36.69 -300.81,-83.81 l 15.407,-38.96 -46.211,-46.21 c -0.91,1.36 -8.153,2.26 -22.649,10.87 v -76.11 c -60.707,-26.72 -113.261,-72.932 -72.031,-112.346 4.527,-3.625 10.418,-6.797 14.496,-7.703 0,0 0,0 -0.453,0 74.746,-42.125 276.793,15.406 276.344,15.406" /><path
         id="path20"
         style="fill:#f3652c;fill-opacity:1;fill-rule:evenodd;stroke:none"
         d="m 460.672,752.719 v 35.336 h 51.648 v -35.336 z m 2.266,-145.414 v 125.933 h 48.023 V 607.305 Z M 1542.5,718.289 c 25.37,0 46.2,-20.84 46.2,-46.207 0,-25.824 -20.83,-46.211 -46.2,-46.211 -25.83,0 -46.21,20.387 -46.21,46.211 0,25.367 20.38,46.207 46.21,46.207 z m 0,-114.16 c 37.14,0 67.5,30.351 67.5,67.953 0,37.145 -30.36,67.5 -67.5,67.5 -37.61,0 -67.95,-30.355 -67.95,-67.5 0,-37.602 30.34,-67.953 67.95,-67.953 z m -246.9,3.176 h 21.29 v 19.476 h -21.29 z m 161.73,16.304 c -6.8,-5.89 -20.84,-19.48 -47.12,-19.48 -34.42,0 -67.5,27.18 -67.5,67.953 0,40.316 33.08,67.5 67.5,67.5 24.92,0 40.32,-13.59 47.12,-19.477 -4.08,-5.437 -7.7,-16.765 -9.51,-21.746 -12.69,17.215 -28.09,19.93 -37.61,19.93 -25.37,0 -46.21,-21.293 -46.21,-46.207 0,-25.367 20.84,-46.66 46.21,-46.66 14.05,0 27.64,6.34 38.06,19.933 3.16,-11.324 6.79,-17.667 9.06,-21.746 z m 183.02,-16.304 v 125.933 h 19.03 v -17.664 c 4.07,6.34 9.51,11.324 15.85,14.949 6.35,3.622 14.04,5.887 22.65,5.887 9.07,0 16.76,-2.265 22.65,-5.887 5.89,-4.078 10.43,-9.515 12.69,-16.308 9.97,14.496 23.1,22.195 38.96,22.195 12.23,0 22.2,-3.621 28.54,-10.418 6.8,-7.246 10.42,-17.668 10.42,-32.16 v -86.527 h -21.29 v 79.273 c 0,8.61 -0.91,14.953 -2.27,18.574 -1.36,3.621 -3.62,6.797 -7.25,9.063 -3.62,2.262 -8.15,3.621 -13.13,3.621 -8.61,0 -15.86,-3.168 -21.75,-9.063 -5.89,-5.886 -9.06,-15.398 -9.06,-28.082 v -73.386 h -21.29 v 81.992 c 0,9.516 -1.81,16.762 -4.98,21.297 -3.63,4.523 -9.52,7.242 -17.22,7.242 -5.89,0 -11.32,-1.809 -16.76,-4.984 -4.98,-3.168 -8.61,-7.7 -10.87,-13.586 -2.27,-6.344 -3.63,-14.953 -3.63,-26.731 v -65.23 z m 162.64,153.566 v 24.012 h -9.06 v 3.172 h 21.74 v -3.172 h -9.06 v -24.012 z m 15.85,0 v 27.184 h 5.44 l 6.79,-19.477 c 0.46,-1.816 0.91,-3.172 1.36,-4.078 0,0.906 0.45,2.719 1.36,4.527 l 6.35,19.028 h 4.98 v -27.184 h -3.63 v 22.652 l -7.7,-22.652 h -3.63 l -7.7,23.109 v -23.109 z m -613.39,-135 c -4.99,-6.789 -12.69,-12.23 -22.66,-15.851 -2.26,-0.911 -4.53,-1.817 -6.79,-2.266 -8.61,-2.27 -18.12,-3.172 -29,-3.172 -15.85,0 -28.08,3.172 -36.69,9.965 -9.06,6.344 -13.13,15.851 -13.13,28.086 0,7.707 1.8,14.496 4.98,20.39 3.16,5.891 8.15,10.872 14.49,14.95 4.98,3.172 12.24,5.437 21.3,6.793 8.15,0.91 20.83,1.812 38.05,1.812 1.36,0 3.17,0 4.98,0 h 23.56 c 0,0.457 0,1.36 0,1.813 0,0.906 0,1.359 0,1.812 0,6.793 -1.81,11.781 -5.89,15.406 -4.08,3.618 -9.97,5.434 -17.67,5.434 -1.81,0 -3.62,0 -4.98,0 -6.34,-0.449 -10.87,-1.816 -14.5,-3.625 -4.08,-2.266 -6.79,-6.34 -7.7,-11.328 h -48.48 c 1.36,13.594 8.62,23.562 20.84,30.355 11.33,5.895 28.09,9.067 49.84,9.516 1.81,0.449 3.62,0.449 5.89,0.449 23.56,0 41.23,-4.07 52.09,-11.773 11.33,-8.16 17.22,-19.934 17.22,-36.699 v -63.875 c 0,-3.625 0,-6.797 0.45,-9.063 0.46,-2.719 0.91,-5.434 1.82,-7.695 h -44.85 c -0.91,2.261 -1.82,4.976 -2.26,7.695 -0.46,2.719 -0.91,5.438 -0.91,8.609 z m -29.45,5.891 c 8.15,0.91 14.95,3.172 19.93,7.703 5.44,4.531 8.61,11.777 8.61,21.289 v 2.719 h -4.08 c -9.51,0 -17.67,0 -24.46,-0.903 -7.25,-0.453 -13.14,-1.816 -17.22,-3.175 -7.7,-2.715 -11.32,-7.247 -11.32,-13.59 0,-4.528 1.81,-8.153 5.89,-10.418 4.07,-2.262 9.96,-3.625 18.12,-3.625 1.36,0 2.72,0 4.53,0 z m -144.97,42.133 c 0,11.324 -3.17,20.386 -9.51,27.183 -6.34,6.797 -14.5,9.965 -24.915,9.965 h -0.457 c -11.324,0 -19.933,-3.168 -25.82,-9.965 -5.89,-6.344 -9.062,-16.312 -9.062,-28.996 0,-12.234 3.172,-21.742 9.062,-28.539 6.336,-6.797 14.496,-9.965 25.367,-9.965 0.453,0 0.453,0 0.453,0 10.872,0 19.482,3.621 25.372,10.418 6.34,7.246 9.51,17.215 9.51,29.899 z m -34.882,60.25 c 5.892,1.816 12.682,2.265 19.482,2.265 19.93,0 35.79,-5.887 47.11,-17.664 11.78,-11.328 17.67,-27.187 17.67,-47.57 0,-20.836 -5.89,-37.145 -16.76,-48.922 -11.33,-11.785 -27.18,-17.672 -47.11,-17.672 -7.25,0 -14.05,0.902 -20.392,2.723 -3.625,0.898 -7.25,2.261 -10.418,4.078 -9.515,4.527 -17.218,10.871 -24.015,19.469 v -3.614 c 0,-3.629 0,-6.8 -0.449,-9.972 0,-3.172 -0.453,-6.797 -0.907,-9.961 h -48.472 c 0.453,5.429 0.906,10.414 1.359,14.949 0.449,4.984 0.449,9.508 0.449,13.582 v 152.219 h 48.02 v -72.938 c 7.25,7.25 15.406,12.688 24.465,15.86 3.172,1.363 6.343,2.714 9.968,3.168 z M 835.324,625.871 c -5.437,-6.789 -12.683,-12.23 -23.101,-15.851 -1.817,-0.911 -4.082,-1.817 -6.797,-2.266 -8.156,-2.27 -18.121,-3.172 -28.539,-3.172 -15.864,0 -28.539,3.172 -37.149,9.965 -8.609,6.344 -13.14,15.851 -13.14,28.086 0,7.707 1.812,14.496 5.437,20.39 3.172,5.891 8.153,10.872 14.496,14.95 4.985,3.172 11.782,5.437 20.836,6.793 8.61,0.91 21.297,1.812 38.059,1.812 1.812,0 3.621,0 5.437,0 h 23.102 c 0,0.457 0,1.36 0.453,1.813 0,0.906 0,1.359 0,1.812 0,6.793 -2.262,11.781 -5.891,15.406 -4.078,3.618 -9.964,5.434 -17.664,5.434 -1.816,0 -3.625,0 -5.437,0 -5.891,-0.449 -10.871,-1.816 -14.043,-3.625 -4.535,-2.266 -6.801,-6.34 -7.703,-11.328 h -48.93 c 1.816,13.594 8.613,23.562 21.293,30.355 11.324,5.895 27.637,9.067 49.383,9.516 2.262,0.449 4.074,0.449 5.89,0.449 24.008,0 41.219,-4.07 52.547,-11.773 11.325,-8.16 16.766,-19.934 16.766,-36.699 v -63.875 c 0,-3.625 0.453,-6.797 0.453,-9.063 0.449,-2.719 1.356,-5.434 2.266,-7.695 h -44.856 c -1.355,2.261 -1.808,4.976 -2.262,7.695 -0.449,2.719 -0.906,5.438 -0.906,8.609 z m -29.898,5.891 c 8.605,0.91 15.402,3.172 19.933,7.703 5.887,4.531 8.606,11.777 8.606,21.289 v 2.719 h -3.625 c -9.512,0 -18.117,0 -24.914,-0.903 -7.25,-0.453 -12.688,-1.816 -16.762,-3.175 -7.703,-2.715 -11.777,-7.247 -11.777,-13.59 0,-4.528 2.261,-8.153 5.886,-10.418 4.075,-2.262 9.965,-3.625 18.125,-3.625 1.805,0 3.168,0 4.528,0 z m -144.969,42.133 c 0,11.324 -2.719,20.386 -9.062,27.183 -6.336,6.797 -14.5,9.965 -24.918,9.965 -0.454,0 -0.454,0 -0.903,0 -10.875,0 -19.484,-3.168 -25.371,-9.965 -6.344,-6.344 -9.062,-16.312 -9.062,-28.996 0,-12.234 2.718,-21.742 9.062,-28.539 5.887,-6.797 14.496,-9.965 25.371,-9.965 11.321,0 19.93,3.621 25.821,10.418 6.343,7.246 9.062,17.215 9.062,29.899 z m -34.883,60.25 c 6.34,1.816 12.684,2.265 19.93,2.265 19.937,0 35.34,-5.887 47.117,-17.664 11.324,-11.328 17.215,-27.187 17.215,-47.57 0,-20.836 -5.438,-37.145 -16.762,-48.922 -11.324,-11.785 -26.726,-17.672 -46.66,-17.672 -7.25,0 -14.047,0.902 -20.84,2.723 -3.172,0.898 -6.797,2.261 -10.418,4.078 -9.066,4.527 -17.218,10.871 -23.558,19.469 v -3.614 c 0,-3.629 -0.457,-6.8 -0.457,-9.972 -0.45,-3.172 -0.899,-6.797 -1.356,-9.961 h -48.472 c 0.906,5.429 1.359,10.414 1.359,14.949 0.449,4.984 0.906,9.508 0.906,13.582 v 152.219 h 48.02 v -72.938 c 7.246,7.25 15.398,12.688 24.011,15.86 3.168,1.363 6.793,2.714 9.965,3.168 z m -373.75,53.91 h 34.438 l 88.332,-180.75 h -57.981 l -15.855,36.691 h -48.934 -49.379 l -16.757,-36.691 h -54.364 l 93.778,180.75 z m 0,-109.176 h 32.168 l -30.804,69.309 -1.364,-3.168 -32.617,-66.141 z m 130.934,-71.574 v 180.75 h 48.015 v -180.75 h -48.015" /></g></g></svg>