<?xml version="1.0" encoding="utf-8"?>
<!-- Generator: Adobe Illustrator 25.3.1, SVG Export Plug-In . SVG Version: 6.00 Build 0)  -->
<svg version="1.1" id="Layer_1" xmlns="http://www.w3.org/2000/svg" xmlns:xlink="http://www.w3.org/1999/xlink" x="0px" y="0px"
	 viewBox="0 0 1000 1000" style="enable-background:new 0 0 1000 1000;" xml:space="preserve">
<style type="text/css">
	.st0{fill-rule:evenodd;clip-rule:evenodd;fill:#FFFFFF;}
	.st1{filter:url(#Adobe_OpacityMaskFilter);}
	.st2{mask:url(#mask-2_1_);fill-rule:evenodd;clip-rule:evenodd;fill:#0008E6;}
	.st3{filter:url(#Adobe_OpacityMaskFilter_1_);}
	.st4{mask:url(#mask-4_1_);fill-rule:evenodd;clip-rule:evenodd;}
	.st5{fill-rule:evenodd;clip-rule:evenodd;fill:#0008E6;}
	.st6{fill-rule:evenodd;clip-rule:evenodd;}
	.st7{filter:url(#Adobe_OpacityMaskFilter_2_);}
	.st8{mask:url(#mask-6_1_);fill-rule:evenodd;clip-rule:evenodd;}
</style>
<g id="Artboard">
	<rect x="-114.5" y="-153.5" class="st0" width="1214.5" height="1253.5"/>
	<g id="Group" transform="translate(312.000000, 229.000000)">
		<g id="Group-15" transform="translate(275.000000, 0.000000)">
			<g id="Clip-14">
			</g>
			<defs>
				<filter id="Adobe_OpacityMaskFilter" filterUnits="userSpaceOnUse" x="-106" y="-75" width="302" height="282">
					<feColorMatrix  type="matrix" values="1 0 0 0 0  0 1 0 0 0  0 0 1 0 0  0 0 0 1 0"/>
				</filter>
			</defs>
			<mask maskUnits="userSpaceOnUse" x="-106" y="-75" width="302" height="282" id="mask-2_1_">
				<g class="st1">
					<polygon id="path-1_1_" class="st0" points="-106,-75 196,-75 196,207 -106,207 					"/>
				</g>
			</mask>
			<path id="Fill-13" class="st2" d="M-77.9,207c-7.4,0-14.8-2.9-20.3-8.7c-10.7-11.3-10.3-29.1,0.9-39.9L136-65.1
				c10.3-9.9,25.4-12.6,38.5-7c13.1,5.6,21.5,18.4,21.5,32.7v211.6c0,15.6-12.6,28.2-28.1,28.2c-15.5,0-28.1-12.6-28.1-28.2V9.3
				L-58.4,199.2C-63.9,204.4-70.9,207-77.9,207"/>
		</g>
		<g id="Group-18" transform="translate(0.000000, 89.000000)">
			<g id="Clip-17">
			</g>
			<defs>
				<filter id="Adobe_OpacityMaskFilter_1_" filterUnits="userSpaceOnUse" x="-106" y="-75" width="331" height="321">
					<feColorMatrix  type="matrix" values="1 0 0 0 0  0 1 0 0 0  0 0 1 0 0  0 0 0 1 0"/>
				</filter>
			</defs>
			<mask maskUnits="userSpaceOnUse" x="-106" y="-75" width="331" height="321" id="mask-4_1_">
				<g class="st3">
					<polygon id="path-3_1_" class="st0" points="-106,-75 225,-75 225,246 -106,246 					"/>
				</g>
			</mask>
			<path id="Fill-16" class="st4" d="M-15.8,189.4h184.4V12.2L-15.8,189.4z M191.4,246H-72.3c-13.8,0-26.1-8.3-31.2-21.2
				c-5.1-12.9-2-27.4,8-37L168.1-65.6c9.7-9.4,24.1-12,36.5-6.7C217-66.9,225-54.8,225-41.2v253.4C225,230.8,209.9,246,191.4,246
				L191.4,246z"/>
		</g>
		<path id="Fill-19" class="st5" d="M81.5,335c-14.6,0-27.5-8.7-32.9-22.3c-5.4-13.5-2.1-28.8,8.4-38.9l59.2-56.6
			c11.2-10.7,29.1-10.4,39.8,0.9c10.7,11.2,10.4,29.1-0.9,39.8l-21.7,20.7h281.3V172.2c0-15.5,12.6-28.2,28.2-28.2
			c15.5,0,28.2,12.6,28.2,28.2v127.4c0,19.6-15.9,35.5-35.5,35.5H81.5z"/>
	</g>
	<g id="Group-21" transform="translate(222.000000, 745.000000)">
		<path id="Fill-4" class="st6" d="M475.6-23.1h7.9c13.3,0,17.7-3.6,17.7-14.2c0-10.4-4.4-13-17.7-13h-7.9V-23.1z M505.5,38L482,0.1
			h-6.4V38H443V-75h46.2c29,0,44.1,10.9,44.1,37.8c0,18.2-6.1,28.8-19.8,33.9L544,38H505.5z"/>
		<g id="Group-8" transform="translate(657.000000, 0.000000)">
			<g id="Clip-7">
			</g>
			<defs>
				<filter id="Adobe_OpacityMaskFilter_2_" filterUnits="userSpaceOnUse" x="-106" y="-75" width="116" height="116">
					<feColorMatrix  type="matrix" values="1 0 0 0 0  0 1 0 0 0  0 0 1 0 0  0 0 0 1 0"/>
				</filter>
			</defs>
			<mask maskUnits="userSpaceOnUse" x="-106" y="-75" width="116" height="116" id="mask-6_1_">
				<g class="st7">
					<polygon id="path-5_1_" class="st0" points="-106,-75 10,-75 10,41 -106,41 					"/>
				</g>
			</mask>
			<path id="Fill-6" class="st8" d="M-48-45c-15.4,0-28,12.6-28,28c0,15.4,12.6,28,28,28s28-12.6,28-28C-20-32.4-32.6-45-48-45
				 M-48,41c-32,0-58-26-58-58c0-32,26-58,58-58s58,26,58,58C10,15-16,41-48,41"/>
		</g>
		<path id="Fill-9" class="st6" d="M427-21.8v4.8c0,5.9-0.9,11.7-2.6,17.1C417.1,23.7,395,41,369,41c-32,0-58-26-58-58
			c0-32,26-58,58-58c11.9,0,23.4,3.6,33.1,10.4L385-40c-4.7-3.3-10.2-5-16-5c-15.4,0-28,12.6-28,28c0,15.4,12.6,28,28,28
			c9,0,17-4.3,22.1-10.9H369v-21.8H427z"/>
		<path id="Fill-11" class="st5" d="M-54-4.8h24.9l-12.4-26.8L-54-4.8z M-106,38l52.9-113h22.7L23,38H-9.1l-7.5-15.9h-50L-73.9,38
			H-106z"/>
		<polygon id="Fill-1" class="st6" points="113,10.2 113,38 39,38 39,-75 71.3,-75 71.3,10.2 		"/>
		<polygon id="Fill-2" class="st6" points="203,10.2 203,38 129,38 129,-75 161.3,-75 161.3,10.2 		"/>
		<polygon id="Fill-3" class="st6" points="295,10.2 295,38 219,38 219,-75 294,-75 294,-47 252,-47 252,-32.7 290.5,-32.7 
			290.5,-5.8 252,-5.8 252,10.2 		"/>
	</g>
</g>
</svg>
