<svg id="Layer_1" data-name="Layer 1" xmlns="http://www.w3.org/2000/svg" viewBox="0 0 612 216.82596"><defs><style>.cls-1,.cls-14{fill:none;}.cls-2{fill:#545454;}.cls-3{fill:#84c8eb;}.cls-4{fill:#e54016;}.cls-5{fill:#94bf48;}.cls-6{fill:#00628b;}.cls-7{fill:#f19300;}.cls-8{fill:#e9e45d;}.cls-9{fill:#95bf48;}.cls-10{fill:#01628b;}.cls-11{fill:#cbda83;}.cls-12{fill:#e8e45f;}.cls-13{fill:#91cce5;}.cls-14{stroke:#95bf48;stroke-linecap:round;stroke-linejoin:round;stroke-width:0;}.cls-15{fill:#fafae9;}.cls-16{fill:#dbdb3c;}.cls-17{fill:#e54116;}.cls-18{fill:#c8d100;}</style></defs><title>alleantia</title><path class="cls-1" d="M367.30183,56.147c.00012-.00656-.001-.01439-.00077-.02082-.00649.007-.01426.0098-.02069.01706Z"/><path class="cls-2" d="M112.49472,174.43671q-3.95451-21.722-7.89274-43.44708-4.1009-22.51149-8.22356-45.01915c-.21733-1.18981-.21319-1.19878-1.4312-1.19955-5.22514-.00324-10.45066.02909-15.67522-.02712a2.00967,2.00967,0,0,0-2.07108,1.22253c-4.68915,8.474-9.43584,16.91615-14.16948,25.36551q-20.97466,37.43857-41.95211,74.87551-4.94136,8.8191-9.89411,17.63165c-.19848.35228-.22884.91532-.84116.90323v.268c5.22457.01458,10.44952.00185,15.67338.068a1.9156,1.9156,0,0,0,1.97069-1.14773c5.63744-10.14256,11.32778-20.25571,16.9686-30.39642a1.93913,1.93913,0,0,1,1.95134-1.197q22.37436.05433,44.74892.02591c1.2979.00013,1.29154.00669,1.51714,1.24233q2.77641,15.20363,5.55825,30.40635c.18817,1.02832.19562,1.03933,1.26085,1.04009q8.50773.00641,17.01533-.00426c.33407-.00051.71289.12483.99877-.20383a1.49025,1.49025,0,0,0-.00191-.26443Q115.25135,189.50771,112.49472,174.43671Zm-58.322-17.29357c9.02036-16.10446,18.00876-32.15182,27.16407-48.49729,2.9848,16.371,5.90938,32.41148,8.83308,48.44713C89.15885,157.36371,55.91314,157.42419,54.1727,157.14314Z"/><path class="cls-2" d="M600.02812,129.50484a16.0943,16.0943,0,0,0-8.92366-11.69273,33.14928,33.14928,0,0,0-11.98237-3.08888,81.78041,81.78041,0,0,0-16.04278.20153,87.326,87.326,0,0,0-22.30782,5.3846,2.04983,2.04983,0,0,0-1.45042,1.80989c-.36946,2.19852-.83263,4.38124-1.255,6.57091-.45368,2.352-.90386,4.70468-1.35894,7.07424.57622.17283.94594-.146,1.33641-.29887a114.45847,114.45847,0,0,1,11.01637-3.74887A67.17421,67.17421,0,0,1,571.005,128.939a17.82792,17.82792,0,0,1,6.24537,1.35736,6.95954,6.95954,0,0,1,4.32548,5.25079,14.97008,14.97008,0,0,1,.20994,3.999,115.94291,115.94291,0,0,1-1.94561,11.74181c-.13533.74771-.45374.92372-1.14512.91653-3.21581-.03355-6.42825.09918-9.63783.29263a94.24622,94.24622,0,0,0-15.89611,2.15313,51.17547,51.17547,0,0,0-18.23722,7.76829c-8.93493,6.33518-13.63808,14.91185-13.32648,25.98552.17314,6.1544,2.55779,11.263,7.69031,14.8757a21.15052,21.15052,0,0,0,10.64927,3.61621,35.95708,35.95708,0,0,0,14.121-1.74343,57.40618,57.40618,0,0,0,15.94055-8.35807,1.72954,1.72954,0,0,1,1.07223-.54242c-.56183,2.95685-1.1061,5.82122-1.67245,8.80176H570.482q8.03861,0,16.07721-.00153c1.18485-.0007,1.20012-.00624,1.43063-1.19083q2.05779-10.57289,4.1035-21.14812,3.28-16.87881,6.55939-33.75775a62.79093,62.79093,0,0,0,1.54329-10.7149,1.12214,1.12214,0,0,1,.208-.75771v-5.35933C599.95256,131.29919,600.20909,130.37426,600.02812,129.50484Zm-25.44081,48.99152a6.01594,6.01594,0,0,1-2.35562,3.95321,60.11921,60.11921,0,0,1-10.963,7.37687,26.32911,26.32911,0,0,1-9.84694,2.76608,15.36449,15.36449,0,0,1-4.77782-.41625c-4.27125-1.0569-6.54481-4.08454-6.36084-8.49716a15.31744,15.31744,0,0,1,6.36777-11.84449,30.175,30.175,0,0,1,9.91117-4.8595A64.095,64.095,0,0,1,570.21842,164.52c1.82421-.14775,3.64874-.25017,5.478-.25673a4.251,4.251,0,0,1,1.589.12553C576.36492,169.133,575.38486,173.79913,574.58731,178.49636Z"/><path class="cls-3" d="M122.40309,39.43694a10.26089,10.26089,0,0,1,1.01-.32873v.00019l.00006-.00006q1.30176-.65742,2.60357-1.31451a22.65089,22.65089,0,0,1,3.92036-2.53049c4.98815-2.95412,10.04669-5.78468,15.30513-8.23636A120.1423,120.1423,0,0,1,161.145,21.12823a126.00382,126.00382,0,0,1,13.88068-3.31607c2.88474-.53071,5.80079-.87344,8.7157-1.229a158.48945,158.48945,0,0,1,23.10823-.6943c3.32995.08109,6.66576.3158,9.99106.65808,2.16694.22312,4.34457.37322,6.5112.62046,3.18035.363,6.35714.75026,9.52267,1.23437,3.29563.504,6.578,1.08115,9.8652,1.6335,4.832.81187,9.58621,1.94961,14.33564,3.12236q20.15615,4.97707,40.09154,10.77614,10.06682,2.919,20.12834,5.85578c.31376.092.70875.0881.92671.42109.37812.06029.813-.0818,1.09916.30785a59.27385,59.27385,0,0,0,5.93141,1.49447q7.46455,1.77564,14.96577,3.39647c7.12727,1.54565,14.27319,2.99944,21.46348,4.23171a18.45331,18.45331,0,0,1,4.29218.91755l-.00032.00044a2.53782,2.53782,0,0,1,1.10228-.09529l.00083.00019c5.78952-.70392,11.59234-1.30617,17.34883-2.26351l.00012-.00012c-.56591-.37246-1.21762-.17271-1.82561-.26609-3.42645-.5265-6.85252-1.05817-10.28668-1.5305-4.49417-.618-8.95065-1.45742-13.41089-2.26618-9.10088-1.65017-18.07247-3.9007-27.0822-5.97031-2.33939-.53732-4.64694-1.22182-6.9531-1.89353-9.05887-2.63864-18.10488-5.32164-27.16776-7.94627q-19.61561-5.6808-39.44192-10.58033c-4.44554-1.1012-8.893-2.19622-13.41-2.97258-6.791-1.16715-13.58487-2.30508-20.44528-3.01593-4.07238-.42192-8.1398-.84976-12.23-1.08529-1.69008-.09733-3.37807-.20752-5.0709-.24189a1.08535,1.08535,0,0,1-.87464-.23216H192.82855a.5925.5925,0,0,1-.46183.22611c-3.564.07556-7.10512.43548-10.64424.83505-2.69574.30434-5.38021.694-8.04418,1.19019A139.58228,139.58228,0,0,0,158.007,16.28911a116.50858,116.50858,0,0,0-17.4151,6.78689,146.03409,146.03409,0,0,0-17.29465,10.13861A103.18352,103.18352,0,0,0,106.54606,47.315a3.35036,3.35036,0,0,0-.84072,1.0278c1.66915-1.01812,3.32709-2.05516,5.00966-3.05056A108.98952,108.98952,0,0,1,122.40309,39.43694Z"/><path class="cls-2" d="M337.861,202.73832q5.54273-28.50231,11.0801-57.00559a51.80437,51.80437,0,0,0,1.16014-13.03742c-.46488-7.53225-4.02864-12.88489-11.14528-15.70928a40.61933,40.61933,0,0,0-13.49243-2.49751,87.93164,87.93164,0,0,0-35.01129,5.8239,2.0607,2.0607,0,0,0-1.447,1.81415c-.44974,2.59179-.99655,5.16664-1.49664,7.74983-.37888,1.95694-.74491,3.91642-1.11469,5.8647.17671.05054.26812.1107.33331.08969.339-.10923.67387-.23228,1.00533-.36284a111.14454,111.14454,0,0,1,11.91947-4.00007,66.2843,66.2843,0,0,1,20.90782-2.536,17.02246,17.02246,0,0,1,6.85844,1.604,6.95256,6.95256,0,0,1,3.961,5.81256,22.94251,22.94251,0,0,1-.16735,5.60683c-.42791,3.09595-1.08943,6.148-1.685,9.2126-.19339.99514-.20166,1.00915-1.16893,1.02112-2.76811.03418-5.53355.10656-8.29982.24361a100.184,100.184,0,0,0-15.9275,1.93179,52.58166,52.58166,0,0,0-18.65436,7.45994c-9.81772,6.58536-14.876,15.70317-14.1292,27.65785a17.38735,17.38735,0,0,0,8.52065,14.39037,21.26757,21.26757,0,0,0,9.35488,2.99,35.71689,35.71689,0,0,0,13.88226-1.51872,56.73562,56.73562,0,0,0,16.14508-8.24241,5.07246,5.07246,0,0,1,1.506-.91481c-.56953,2.99671-1.11431,5.86292-1.65679,8.71722a3.43177,3.43177,0,0,0,1.5347.14508q7.23462.01212,14.46937-.00325c.74861-.00248,1.6666.31447,2.20406-.16882C337.82753,204.40906,337.71785,203.47439,337.861,202.73832Zm-12.13572-31.9739c-.59671,3.06348-1.21164,6.12334-1.79512,9.1893a2.00986,2.00986,0,0,1-.631,1.26957,55.45438,55.45438,0,0,1-13.59371,9.18071,24.87514,24.87514,0,0,1-8.64459,2.18508,13.69869,13.69869,0,0,1-6.54768-1.02965c-3.30767-1.4853-4.7628-4.36965-4.56406-8.05875a15.1624,15.1624,0,0,1,5.79156-11.19443,29.79209,29.79209,0,0,1,10.93846-5.459,70.36138,70.36138,0,0,1,19.56777-2.58606c.17321-.0007.34655.03934.70774.0832C326.52922,166.56817,326.13359,168.66757,325.72523,170.76442Z"/><path class="cls-2" d="M268.33382,120.03768a28.512,28.512,0,0,0-9.32356-4.25928,45.777,45.777,0,0,0-18.06305-.84835,50.19786,50.19786,0,0,0-19.90369,7.06023c-9.30859,5.75814-15.8245,13.89787-20.15475,23.86149a73.42446,73.42446,0,0,0-5.43,20.627,50.218,50.218,0,0,0,.28473,15.59483c2.04358,10.63182,8.039,17.98927,18.19311,21.86444,6.5683,2.50674,13.43228,3.13835,20.39028,3.06476a99.9745,99.9745,0,0,0,10.15141-.61976,103.26788,103.26788,0,0,0,16.6563-3.25649,1.36752,1.36752,0,0,0,1.15073-1.23259c.54713-3.07258,1.18592-6.12875,1.7801-9.19312.32942-1.69862.63733-3.40143.9989-5.33787-.67018.17683-1.09853.28588-1.52471.40294-8.66,2.37975-17.389,4.37883-26.40566,4.79476a35.10285,35.10285,0,0,1-11.92342-1.23157,15.07255,15.07255,0,0,1-9.84127-8.24845,21.09374,21.09374,0,0,1-1.64858-5.77062,41.99181,41.99181,0,0,1-.21752-8.15233c.04984-1.13805.07512-1.13691,1.26524-1.15206.04469-.00057.08931-.00038.134-.00006,5.35831.03851,10.711-.07887,16.05761-.47424a85.81906,85.81906,0,0,0,16.87554-2.75265,48.27636,48.27636,0,0,0,18.68753-9.53884,28.546,28.546,0,0,0,9.1914-13.23666A18.93763,18.93763,0,0,0,268.33382,120.03768Zm-10.55016,20.12477a13.18422,13.18422,0,0,1-4.70137,6.35861,28.55331,28.55331,0,0,1-11.07093,5.14747,60.45058,60.45058,0,0,1-12.3165,1.57245c-3.92183.13928-7.84933.12159-11.7744.16487a2.29455,2.29455,0,0,1-1.20242-.16124,33.31076,33.31076,0,0,1,1.824-4.90093,34.01925,34.01925,0,0,1,10.06789-13.47232,27.82674,27.82674,0,0,1,19.50545-5.93409,13.68654,13.68654,0,0,1,5.9833,1.75056A7.60155,7.60155,0,0,1,257.78366,140.16245Z"/><path class="cls-2" d="M412.04547,164.79437q-3.82284,19.69964-7.6511,39.39832c-.04857.25-.19052.50206.01331.77451a1.71055,1.71055,0,0,0,.36882.07919c5.67061.00529,11.34122-.00484,17.01177.02056.70576.00319.87509-.30237.99381-.92315,1.21463-6.35078,2.464-12.69488,3.69871-19.04184q3.155-16.21815,6.30208-32.438c1.1359-5.86692,2.39153-11.7145,2.70268-17.71033a29.83363,29.83363,0,0,0-.74421-8.90195,13.99945,13.99945,0,0,0-10.33423-10.70815,24.33544,24.33544,0,0,0-5.40631-.869,39.897,39.897,0,0,0-16.14469,2.55492,56.45794,56.45794,0,0,0-15.86906,9.297,2.7897,2.7897,0,0,1-1.20948.78782c.69659-3.61494,1.37-7.10894,2.03765-10.57377a1.987,1.987,0,0,0-1.24926-.17913q-7.903-.01166-15.806-.00433c-1.27575.00051-1.28982.00286-1.53228,1.25047q-3.7901,19.50132-7.57217,39.00416-4.09364,21.07749-8.19148,42.15421c-.39747,2.04606-.78692,4.09364-1.18815,6.18254a4.361,4.361,0,0,0,.60957.09848c5.62593.00566,11.252-.00853,16.87777.02412.793.00459.9227-.36857,1.048-1.01946q2.75867-14.31857,5.56386-28.62817,2.83524-14.57656,5.65584-29.156a2.68835,2.68835,0,0,1,.53478-1.20547,50.47972,50.47972,0,0,1,13.79258-12.54121,24.06757,24.06757,0,0,1,13.90308-3.62958c4.38424.27347,6.48325,2.41724,6.62667,6.7776a35.1157,35.1157,0,0,1-.70716,7.71654C414.82581,150.526,413.4302,157.65915,412.04547,164.79437Z"/><path class="cls-2" d="M462.63478,206.91338a89.52906,89.52906,0,0,0,18.00354-1.173c1.129-.16506,1.1208-.19135,1.33354-1.28313.58851-3.02039,1.2056-6.03555,1.76138-9.06193a35.68489,35.68489,0,0,0,.74937-4.3475,8.29067,8.29067,0,0,0-.88254.07047c-2.496.49-5.00654.89393-7.5346,1.16556a27.5503,27.5503,0,0,1-5.60651.29473c-4.02572-.39016-5.57792-2.10679-5.66984-6.156a40.28172,40.28172,0,0,1,.97656-8.49372q1.91142-9.98679,3.86963-19.96467,2.55165-13.13379,5.08834-26.27032c.14119-.73823.45432-.98885,1.15308-.91411a8.86578,8.86578,0,0,0,.93721.005q9.10977-.00009,18.21946-.001c1.23628-.00039,1.24965-.00325,1.49759-1.25888q.90722-4.59388,1.78939-9.19274a32.70918,32.70918,0,0,0,.69342-4.02623H477.7364c1.25792-6.47478,2.49018-12.8176,3.73665-19.2337a5.17588,5.17588,0,0,0-.58233-.08925c-5.62669-.00445-11.25344.00911-16.87993-.02412-.77229-.00458-.96167.31828-1.09019.99209q-1.65456,8.67378-3.37209,17.33546c-.20408,1.03932-.22382,1.0469-1.2599,1.04893-3.08124.00592-6.16248-.00089-9.24372.00325-1.18039.00159-1.17791.00936-1.41471,1.21336-.49913,2.53812-1.0075,5.07447-1.49975,7.61392-.35451,1.82867-.689,3.66122-1.05709,5.62332h11.35745a3.95363,3.95363,0,0,1-.00407.63427c-1.44667,7.442-2.93878,14.87538-4.34038,22.32583-1.8962,10.07973-4.17461,20.08944-5.61128,30.25352a36.23468,36.23468,0,0,0-.14889,10.93782c.86516,5.3226,3.78089,8.93678,8.95524,10.65468A28.18671,28.18671,0,0,0,462.63478,206.91338Z"/><path class="cls-2" d="M201.26466,77.58962a1.77265,1.77265,0,0,0-.373-.078c-5.67175-.00579-11.34357.00369-17.01526-.022-.71143-.00318-.87942.31141-.996.93277-.773,4.1205-1.58791,8.23323-2.38732,12.34884q-3.39326,17.47053-6.78593,34.94113-3.436,17.66543-6.88207,35.32881-3.28755,16.87719-6.57383,33.75464c-.65516,3.36681-1.30229,6.73521-1.94618,10.06745a1.02091,1.02091,0,0,0,.6994.18842q2.6796.002,5.3592.00217,5.62722.00077,11.25432.00312c.772.00114,1.094.13539,1.20121-.9779.05111-.53032.19663-1.05155.29912-1.577q4.227-21.67017,8.45228-43.34058,4.08724-21.01572,8.15272-42.03569,3.76459-19.37479,7.54759-38.746A1.02593,1.02593,0,0,0,201.26466,77.58962Z"/><path class="cls-2" d="M166.591,77.65551a1.83837,1.83837,0,0,0-.39283-.13368c-5.71625-.00936-11.43263-.00242-17.14875-.03451-.73644-.00407-.87184.36107-.98611.95473q-1.98484,10.315-4.00464,20.62314-3.15511,16.2215-6.308,32.44356-3.28077,16.87834-6.56072,33.75681-3.01514,15.49905-6.03619,30.997-.84093,4.322-1.66819,8.657a2.10284,2.10284,0,0,0,.45247.12012c5.71638.008,11.43282.0009,17.14907.02636.66184.00293.79368-.2976.90049-.86077.75618-3.98759,1.55418-7.96715,2.3299-11.95105q3.29912-16.94326,6.59128-33.88774,3.66549-18.849,7.33091-37.698,3.43593-17.667,6.87187-35.33384C165.6042,82.80031,166.08857,80.26442,166.591,77.65551Z"/><path class="cls-4" d="M336.46986,65.4567c-6.47173-1.29452-12.87267-2.8909-19.30156-4.37112-10.25982-2.36223-20.24012-5.70861-30.39643-8.43331-14.943-4.00891-29.94561-7.75257-45.12571-10.75946-.91678-.18161-1.84076-.32719-2.76137-.48933l-.00165.00026q-.786-.07362-1.56939-.14584l-.00045-.00013c-2.74533.2482-5.49683.41231-8.24533.61175-2.08.15093-4.1708.26194-6.23837.52185-2.29107.288-4.59423.44923-6.8876.69323-2.07215.22038-4.15653.41631-6.22417.66553-1.16593.14055-2.40049-.04806-3.51429.49276h-.00013c.53287.02139,1.06606.03661,1.59848.06506,3.644.19466,7.30417.01954,10.93675.47609a71.17121,71.17121,0,0,1,8.93779.65853c16.54707,1.8477,32.59895,6.09119,48.6796,10.17172,11.50278,2.91891,22.861,6.3651,34.28376,9.57607,3.21511.9038,6.498,1.56609,9.74731,2.34938.55891.13477,1.10534.32115,1.658.48367l.00121.00025c2.426.38252,4.79361,1.03589,7.19035,1.5538a364.61354,364.61354,0,0,0,41.0781,6.49592c7.10861.70474,14.24008,1.09483,21.37645,1.324a282.88008,282.88008,0,0,0,36.376-1.20668q11.79243-1.14182,23.4933-2.96717a356.75355,356.75355,0,0,0,38.96-8.34247,238.17888,238.17888,0,0,0,49.69831-19.56313,3.12494,3.12494,0,0,0,1.17892-.74809c-.3496-.167-.58768-.00465-.83505.07575-2.88416.93734-5.76476,1.88564-8.65216,2.8128-14.3576,4.61053-28.93258,8.45056-43.49432,12.34617a372.45456,372.45456,0,0,1-42.69778,8.74555q-11.324,1.647-22.73718,2.55231c-8.0149.62422-16.03654,1.03162-24.07556.95135-7.99071-.07982-15.97193-.45718-23.9375-1.09025-2.79905-.22248-5.60727-.414-8.38219-.88826l-.00045-.00038c-3.5644-.21224-7.08958-.76414-10.61578-1.2683Q346.1749,67.4062,336.46986,65.4567Z"/><path class="cls-2" d="M522.26367,123.73582c.46641-2.4019.93741-4.80284,1.44062-7.37967h-1.54814c-5.08872-.00006-10.17757-.00955-15.26629.005-1.80365.00522-1.48136-.27716-1.84013,1.5037-.98623,4.89482-1.91091,9.802-2.8636,14.7035q-3.279,16.87071-6.56161,33.7407-2.99985,15.4263-5.9992,30.85278c-.50117,2.57708-1.00355,5.154-1.49664,7.68592a.98077.98077,0,0,0,.70761.20447c5.57983.001,11.15967-.012,16.73931.018.76115.00414.95765-.30638,1.08516-.98623.88718-4.73186,1.81619-9.4559,2.736-14.18165q3.16867-16.27841,6.34053-32.55617Q519.005,140.54187,522.26367,123.73582Z"/><path class="cls-5" d="M536.11857,38.308c-1.37009.3-2.74488.57992-4.10949.9031q-13.70795,3.24612-27.55346,5.84242c-7.08544,1.3175-14.16439,2.67161-21.25926,3.936-5.43126.968-10.86353,1.94516-16.33318,2.67644-3.352.44821-6.72317.75262-10.07858,1.178-4.33045.549-8.68629.81627-13.02806,1.23806-1.37359.13342-2.7566.16016-4.135.27378-2.21971.183-4.45158.21472-6.67714.33223-8.07041.426-16.14667.3701-24.22052.22324q-6.5456-.11907-13.07783-.70805c-2.92643-.26157-5.85643-.47093-8.76707-.88292v-.00013l-.00038.00026q-.54513.00973-1.091.01986h-.00032l.00013.00006a5.02094,5.02094,0,0,1-1.921.32433h-.00019c-1.38523.24865-2.76486.53459-4.15653.73759-2.58268.37672-5.16549.77993-7.76237,1.01877a26.4425,26.4425,0,0,1-3.43988.33636,1.43377,1.43377,0,0,0-1.20643.3687c-.00025.00643.00089.01426.00077.02082,3.79967.71773,7.63034,1.23761,11.462,1.73872,4.19377.5484,8.39142,1.081,12.5992,1.50261,3.19092.31975,6.39018.5973,9.60008.69342.52224.01566,1.08967-.08613,1.49268.39823a28.74747,28.74747,0,0,1,6.391-.06543c1.37652.04685,2.75418.12387,4.13228.12578,3.78312.00522,7.56758.04692,11.34892-.04017,2.0437-.047,4.088-.16118,6.13378-.18938a2.74359,2.74359,0,0,1,1.4401.16265h.00083a13.79914,13.79914,0,0,1,3.17921-.39913c1.026-.01833,2.05395-.03221,3.07666-.10764,6.00029-.4428,12.00688-.81456,17.98571-1.511,4.02648-.469,8.0601-.88852,12.07512-1.44183,6.002-.82722,11.95328-1.96024,17.90576-3.09079a249.33879,249.33879,0,0,0,41.60836-11.83156c1.85922-.96784,3.86874-1.57665,5.78086-2.41864A13.24594,13.24594,0,0,0,536.11857,38.308Z"/><path class="cls-3" d="M387.687,53.04688q8.47182.88209,16.98076,1.29382c7.89713.37711,15.79254.26533,23.6814.14444,5.55832-.08523,11.12173-.517,16.67693-.94944,11.30474-.87986,22.5485-2.19342,33.71364-4.17206,18.58587-3.29373,37.15646-6.66385,55.52628-11.04515.66483-.15857,1.6955-.64,1.94764.072.27188.768-.86631.908-1.45908,1.17867a67.88727,67.88727,0,0,1-7.02108,2.52234,3.39518,3.39518,0,0,0,1.43565-.24432q3.64924-1.07917,7.30557-2.13466c7.7954-2.2427,15.46554-4.85727,23.043-7.74773A287.60816,287.60816,0,0,0,589.39508,18.222c.682-.35386,1.34087-.75185,2.09348-1.17612a.93258.93258,0,0,0-.91506.048c-2.856,1.0094-5.70741,2.032-8.56967,3.02293q-19.32,6.68863-39.01,12.19435-9.89265,2.78835-19.81165,5.483c-7.1286,1.92816-14.32882,3.56356-21.56857,5.014-5.09871,1.0215-10.205,2.01029-15.34873,2.79269-3.16342.48112-6.31112,1.07166-9.48186,1.49352-.83639.11127-1.70467.58577-2.58415.12311a26.14044,26.14044,0,0,1-6.02193,1.0129c-3.88854.47768-7.78726.87261-11.68312,1.28937q-1.72733.18477-3.462.2962a1.72259,1.72259,0,0,1-1.29191-.1636h-.00013c-.72976-.05424-1.31534.4419-2.05573.47131-2.97614.11809-5.947.436-8.9227.47762-3.474.0487-6.93961.29053-10.41342.31058-6.14594.03552-12.283-.20052-18.42036-.48564-3.10989-.1445-6.22124-.2354-9.31694-.59194a25.64863,25.64863,0,0,0-3.63868.83581C395.23079,51.56132,391.48109,52.409,387.687,53.04688Z"/><path class="cls-3" d="M536.21367,38.39048c-.25214-.712-1.28281-.23056-1.94764-.072-18.36982,4.3813-36.94041,7.75142-55.52628,11.04515-11.16514,1.97864-22.4089,3.2922-33.71364,4.17206-5.5552.43242-11.11861.86421-16.67693.94944-7.88886.12089-15.78427.23267-23.6814-.14444q-8.51652-.40667-16.98076-1.29382c-.1559.02623-.31071.05761-.4668.08307a1.172,1.172,0,0,0-.3412.19027v.00013c2.91064.412,5.84064.62135,8.76707.88292q6.52927.58351,13.07783.70805c8.07385.14686,16.15011.20275,24.22052-.22324,2.22556-.11751,4.45743-.14928,6.67714-.33223,1.37836-.11362,2.76137-.14036,4.135-.27378,4.34177-.42179,8.69761-.68909,13.02806-1.23806,3.35541-.42542,6.72654-.72983,10.07858-1.178,5.46965-.73128,10.90192-1.70848,16.33318-2.67644,7.09487-1.26442,14.17382-2.61853,21.25926-3.936q13.85-2.57552,27.55346-5.84242c1.36461-.32318,2.7394-.60315,4.10949-.9031a13.24594,13.24594,0,0,1-2.6042,1.36487c-1.91212.842-3.92164,1.4508-5.78086,2.41864a67.88727,67.88727,0,0,0,7.02108-2.52234C535.34736,39.29848,536.48555,39.1585,536.21367,38.39048Z"/><path class="cls-6" d="M408.25255,60.7603c-1.91512-.11681-3.83672-.00586-5.755-.00675a6.47012,6.47012,0,0,0-.64751-.19231c-4.527.59889-9.04875,1.24367-13.5848,1.76323-4.16329.47692-8.34025.85027-12.51824,1.1788a253.60469,253.60469,0,0,1-26.61247.76592q-7.02209-.18619-14.03645-.63135c-3.0771-.20033-6.02944-1.17625-9.027-1.84968-2.52157-.56641-4.998-1.34907-7.53257-1.839-6.18648-1.19572-12.106-3.33185-18.15618-5.00463a5.13263,5.13263,0,0,1-.61053-.25424l.00012-.00013c-3.62111-.94518-7.24376-1.87889-10.85971-2.8375-5.51962-1.46328-10.98182-3.11912-16.40646-4.90234-1.43686-.47227-2.90122-.86083-4.35291-1.28784l-.00305-.001Q262.15,44.08436,256.14972,42.5078c-2.28108-.59729-4.56572-1.18077-6.84679-1.77806a4.79474,4.79474,0,0,1-.60678-.24864h-.00032a75.365,75.365,0,0,0-8.834.78463c5.18039.82015,10.29317,1.98355,15.41042,3.118,19.56974,4.33847,38.76143,10.0938,58.08024,15.38419A315.291,315.291,0,0,0,344.718,66.62812c6.86379,1.14563,13.73458,2.22722,20.65445,2.97646a1.70361,1.70361,0,0,1,1.21311.4703l.00172.00012c1.85878-.20669,3.65861-.78788,5.546-.81741,1.11457-.01745,2.22951-.10122,3.34128-.191,5.87-.47424,11.73156-1.02863,17.57678-1.75788q8.76429-1.0934,17.47111-2.56766,10.75191-1.82185,21.3797-4.26749l-.00026-.00012c-1.737.00942-3.46337.21427-5.196.30657A161.57613,161.57613,0,0,1,408.25255,60.7603Z"/><path class="cls-6" d="M344.718,66.62812a315.291,315.291,0,0,1-31.36548-6.86023C294.03371,54.4775,274.842,48.72217,255.27228,44.3837c-5.11725-1.13442-10.23-2.29782-15.41042-3.118-.3256.04685-.65178.08747-.97707.13775.92061.16214,1.84459.30772,2.76137.48933,15.1801,3.00689,30.18273,6.75055,45.12571,10.75946,10.15631,2.7247,20.13661,6.07108,30.39643,8.43331,6.42889,1.48022,12.82983,3.0766,19.30156,4.37112q9.70549,1.94132,19.49992,3.34988c3.5262.50416,7.05138,1.05606,10.61578,1.2683a1.70361,1.70361,0,0,0-1.21311-.4703C358.45258,68.85534,351.58179,67.77375,344.718,66.62812Z"/><path class="cls-6" d="M430.46176,60.31075c-2.0458.0282-4.09008.14234-6.13378.18938-3.78134.08709-7.5658.04539-11.34892.04017-1.3781-.00191-2.75576-.07893-4.13228-.12578a28.74747,28.74747,0,0,0-6.391.06543c-.202.02655-.40377.05456-.60575.08129a6.47012,6.47012,0,0,1,.64751.19231c1.91824.00089,3.83984-.11006,5.755.00675a161.57613,161.57613,0,0,0,18.45333.01967c1.73261-.0923,3.459-.29715,5.196-.30657A2.74359,2.74359,0,0,0,430.46176,60.31075Z"/><path class="cls-7" d="M207.337,43.58328c6.735-.71066,13.46538-1.45818,20.22293-1.95451,2.88689-.212,5.77806-.38468,8.66152-.647-1.14831-.23623-2.32131-.32885-3.48005-.48086q-4.62673-.6071-9.27677-1.0301c-1.50523-.13527-3.02013-.20822-4.53051-.29874q-6.94646-.41611-13.90844-.29855a2.799,2.799,0,0,1-.39734-.04819l.00006-.00019-.00051.00026q-.95447.04889-1.90976.098a8.73439,8.73439,0,0,1-2.73992.39728c-2.40253.41472-4.84689.57966-7.26642.90494-2.90116.39009-5.79308.84848-8.69042,1.26747-2.67893.38748-5.36417.734-8.03858,1.1499-2.84985.44318-5.6934.9285-8.534,1.428-3.80094.66833-7.60552,1.32164-11.39125,2.06916-2.918.57616-5.81135,1.278-8.71187,1.94064q-8.77356,2.00413-17.41993,4.50187a164.47282,164.47282,0,0,0-20.39328,7.17718c-1.96037.85491-3.89528,1.76813-5.843,2.65194a1.58958,1.58958,0,0,1-1.015.265c-3.66046,1.79945-7.12905,3.93953-10.646,5.99386-.34247.2-.69787.37774-1.04766.56648l-.001.001q-.27137.27957-.54325.56037l-.00025.00108q5.09632-1.93042,10.19259-3.86066a.84524.84524,0,0,1,.82671-.2671c.19448-.309.49869-.29747.80794-.27156a9.01108,9.01108,0,0,1,3.01873-1.28765c10.01193-3.62251,20.17607-6.75736,30.46365-9.50752,6.23053-1.66564,12.44846-3.37871,18.72979-4.84154,3.59164-.83645,7.21976-1.51,10.86927-2.0586,2.72425-.4095,5.44112-.8707,8.16926-1.2513,1.8491-.25794,3.71164-.421,5.56908-.61747,2.34282-.24782,4.68711-.48182,7.02981-.73072,1.32877-.14112,2.66938-.18371,3.99726-.2559a116.646,116.646,0,0,1,11.89471-.35l-.00012.00006.00082-.00013q2.09868-.12833,4.19766-.2566h-.00013C206.3008,43.54528,206.88759,43.63071,207.337,43.58328Z"/><path class="cls-7" d="M209.71783,43.75013c2.06764-.24922,4.152-.44515,6.22417-.66553,2.29337-.244,4.59653-.40518,6.8876-.69323,2.06757-.25991,4.15838-.37092,6.23837-.52185,2.7485-.19944,5.5-.36355,8.24533-.61175-.36043-.11178-.725-.20045-1.09184-.276-2.88346.26227-5.77463.435-8.66152.647-6.75755.49633-13.48792,1.24385-20.22293,1.95451-.44942.04743-1.03621-.038-1.13373.65961h.00026C207.31734,43.70207,208.5519,43.89068,209.71783,43.75013Z"/><path class="cls-2" d="M512.74437,84.77214c-1.45417.00178-1.22469-.13692-1.5107,1.26365-.74956,3.67064-1.44456,7.35242-2.15631,11.03077-.38,1.96413-.74988,3.93023-1.12571,5.90244.22134.10873.26138.14559.30155.14571,5.76074.00987,11.52155.00949,17.28224.03495.6456.00287.81385-.29473.92226-.86089,1.04842-5.476,2.12887-10.94591,3.18532-16.42046.2079-1.0772.17849-1.0956-.955-1.09661Q520.7162,84.76434,512.74437,84.77214Z"/><path class="cls-6" d="M267.09652,53.622c-10.264-2.533-20.55694-4.95836-30.99461-6.69148-4.35482-.72307-8.74313-1.19286-13.14455-1.55443-1.41082-.11592-2.81509-.374-4.21872-.592a1.147,1.147,0,0,0,.60811.24272c6.10481,1.50116,12.17563,3.13389,18.26058,4.712,10.82993,2.8086,21.44533,6.37942,32.34846,8.93664,8.24941,1.93485,16.48749,3.89917,24.82328,5.43712q9.8048,1.809,19.689,3.09454c2.51846.32618,5.03608.69552,7.57783.81659l-.00076-.00025a154.33055,154.33055,0,0,1-17.39345-4.11306C292.207,60.21291,279.7005,56.73254,267.09652,53.622Z"/><path class="cls-6" d="M310.63979,65.19036c-11.42276-3.211-22.781-6.65716-34.28376-9.57607-16.08065-4.08053-32.13253-8.324-48.6796-10.17172a71.17121,71.17121,0,0,0-8.93779-.65853c1.40363.218,2.8079.47609,4.21872.592,4.40142.36157,8.78973.83136,13.14455,1.55443,10.43767,1.73312,20.73066,4.15845,30.99461,6.69148,12.604,3.11058,25.11043,6.591,37.55514,10.28839a154.33055,154.33055,0,0,0,17.39345,4.11306c-.55267-.16252-1.0991-.3489-1.658-.48367C317.13781,66.75645,313.8549,66.09416,310.63979,65.19036Z"/><path class="cls-8" d="M369.3482,50.52811c-.40734.03272-.80869.12088-1.213.18276,1.50307.32006,3.03267.49028,4.54879.72549,3.67306.56973,7.36044,1.04595,11.03859,1.58366a10.4417,10.4417,0,0,1,1.65336.12082,3.25981,3.25981,0,0,0,.40562-.10262,5.39673,5.39673,0,0,1,1.16956-.06435l.02852.0028c.18346-.27678.58043-.24107.87668-.29824,4.44057-.85631,8.85689-1.818,13.23647-2.948.50493-.13025,1.03857-.31084,1.51777.10382a1.49511,1.49511,0,0,1,.34025-.19874c5.3811-1.45092,10.6543-3.23542,15.88166-5.15759a11.92694,11.92694,0,0,0,2.87875-1.25774c-1.24907.09689-2.47364.28264-3.699.46253-3.52028.51683-7.03808,1.05123-10.56218,1.54056-2.99677.41619-6.00176.77248-9.00145,1.16791-2.99894.39531-5.99456.81506-8.99388,1.207-1.67392.21872-3.35248.40263-5.029.60238h-.00006a1.87876,1.87876,0,0,1-1.42082.632C378.46264,49.47765,373.925,50.16068,369.3482,50.52811Z"/><path class="cls-8" d="M368.13522,50.71087c.40429-.06188.80564-.15,1.213-.18276,4.5768-.36743,9.11444-1.05046,13.65661-1.6955a1.87876,1.87876,0,0,0,1.42082-.632c-5.75649.95734-11.55931,1.55959-17.34883,2.26351C367.42717,50.56013,367.78116,50.6355,368.13522,50.71087Z"/><path class="cls-8" d="M385.78769,53.34034q.5457-.01,1.091-.01986l.00038-.00026a.66092.66092,0,0,1,.10064-.34355l-.02852-.0028a5.39673,5.39673,0,0,0-1.16956.06435,3.25981,3.25981,0,0,1-.40562.10262,1.41322,1.41322,0,0,1,.41141.1995Z"/><path class="cls-8" d="M401.09281,49.73043c-4.37958,1.13-8.7959,2.09169-13.23647,2.948-.29625.05717-.69322.02146-.87668.29824.23572.02508.47164.0457.70736.07021,3.79407-.6379,7.54377-1.48556,11.28488-2.37682a25.64863,25.64863,0,0,1,3.63868-.83581C402.13138,49.41959,401.59774,49.60018,401.09281,49.73043Z"/><path class="cls-8" d="M387.22022,53.13c.15609-.02546.3109-.05684.4668-.08307-.23572-.02451-.47164-.04513-.70736-.07021a.66092.66092,0,0,0-.10064.34355A1.172,1.172,0,0,1,387.22022,53.13Z"/><path class="cls-9" d="M183.88573,45.71744a237.87573,237.87573,0,0,0-23.73182,3.2803c-12.36387,2.45218-24.469,5.92211-36.55,9.4699-6.80249,1.99767-13.536,4.21834-20.24406,6.51406a6.27243,6.27243,0,0,0-1.09057.41937l-.00821.00859a4.28074,4.28074,0,0,0,1.53177-.38359c2.17292-.66547,4.33082-1.38053,6.50878-2.02868,8.88725-2.64488,17.91123-4.75873,26.92624-6.90714,10.35606-2.468,20.72244-4.86924,31.23752-6.60363,10.10819-1.66723,20.23356-3.195,30.3949-4.49519a11.52787,11.52787,0,0,0,3.14465-.49181c-1.62707.24349-3.27336.26666-4.90934.35228C192.68793,45.08259,188.27772,45.29864,183.88573,45.71744Z"/><path class="cls-9" d="M190.11034,44.84954c-1.32788.07219-2.66849.11478-3.99726.2559-2.3427.2489-4.687.4829-7.02981.73072-1.85744.19644-3.72.35953-5.56908.61747-2.72814.3806-5.445.8418-8.16926,1.2513-3.64951.5486-7.27763,1.22215-10.86927,2.0586-6.28133,1.46283-12.49926,3.1759-18.72979,4.84154-10.28758,2.75016-20.45172,5.885-30.46365,9.50752a9.01108,9.01108,0,0,0-3.01873,1.28765l.0063.00032-.00007.00006-.00044.00045a6.27243,6.27243,0,0,1,1.09057-.41937c6.708-2.29572,13.44157-4.51639,20.24406-6.51406,12.081-3.54779,24.18613-7.01772,36.55-9.4699a237.87573,237.87573,0,0,1,23.73182-3.2803c4.392-.4188,8.8022-.63485,13.20986-.86554,1.636-.08562,3.28227-.10879,4.90934-.35228l.00012-.00006A116.646,116.646,0,0,0,190.11034,44.84954Z"/><path class="cls-10" d="M456.08323,49.12142c5.807-.53414,11.61818-1.06116,17.3711-2.0614a.75355.75355,0,0,1,.74453.15743,218.97066,218.97066,0,0,0,21.5088-10.43818c-1.69436.41287-3.33568.95446-4.97822,1.49205-12.874,4.21357-25.8824,7.96677-38.98958,11.381C453.2279,49.82725,454.62606,49.25548,456.08323,49.12142Z"/><path class="cls-10" d="M453.03177,49.81592q1.73345-.11172,3.462-.2962c3.89586-.41676,7.79458-.81169,11.68312-1.28937a26.14044,26.14044,0,0,0,6.02193-1.0129.75355.75355,0,0,0-.74453-.15743c-5.75292,1.00024-11.56414,1.52726-17.3711,2.0614-1.45717.13406-2.85533.70583-4.34337.5309A1.72259,1.72259,0,0,0,453.03177,49.81592Z"/><path class="cls-11" d="M102.45433,51.87744a110.26478,110.26478,0,0,0-7.47044,9.95866,11.33044,11.33044,0,0,0-1.83446,3.03522c1.14-1.22508,2.23231-2.4993,3.43173-3.66307a24.63655,24.63655,0,0,1,4.90005-4.19778l.00006.00032c.85135-.928,2.03555-1.43158,2.92751-2.30559-.33891-.42083.12693-.55483.30562-.71735,1.77341-1.61312,3.52938-3.249,5.36626-4.78788,2.31017-1.93523,4.64548-3.84474,7.1169-5.57677q2.78024-1.94847,5.57219-3.88027c.10491-.07218.21179-.13756.31135-.20943A101.36876,101.36876,0,0,0,107.263,47.80723c-.46227.30039-.88731.80156-1.55762.53554-.61282.69386-1.52438,1.03455-2.09819,1.77456C103.61225,50.95149,102.89127,51.36761,102.45433,51.87744Z"/><path class="cls-11" d="M107.263,47.80723A101.36876,101.36876,0,0,1,123.0811,39.5335a.79177.79177,0,0,0,.332-.4251v-.00019a10.26089,10.26089,0,0,0-1.01.32873A108.98952,108.98952,0,0,0,110.715,45.29221c-1.68257.9954-3.34051,2.03244-5.00966,3.05056C106.37565,48.60879,106.80069,48.10762,107.263,47.80723Z"/><path class="cls-12" d="M93.10633,64.88679c-.30428-.827.32172-1.36118.69462-1.90894a126.22933,126.22933,0,0,1,8.55223-11.48916c.406-.47119.99546-.77139,1.254-1.37136-.25653.17493-.52637.33337-.76757.5274a38.97985,38.97985,0,0,0-9.50669,10.92051,30.72588,30.72588,0,0,0-3.39176,7.951q1.59756-2.313,3.19512-4.62594C93.12568,64.88819,93.11715,64.88933,93.10633,64.88679Z"/><path class="cls-12" d="M102.35318,51.48869A126.22933,126.22933,0,0,0,93.801,62.97785c-.3729.54776-.9989,1.082-.69462,1.90894.01082.00254.01935.0014.02992.00356l.013-.01891.00013-.00012a11.33044,11.33044,0,0,1,1.83446-3.03522,110.26478,110.26478,0,0,1,7.47044-9.95866c.43694-.50983,1.15792-.926,1.15282-1.76011C103.34864,50.7173,102.75918,51.0175,102.35318,51.48869Z"/><path class="cls-13" d="M89.86028,70.29787c.20822.11674.55732-.11892.576-.49831l-.00026.00006c-.15264-.43872.1813-.61206.4456-.82467.1706-.10548.34407-.20612.51524-.31064a12.11038,12.11038,0,0,0,1.48384-1.64139l.00006-.00007c-.44674-.30682-.08555-.528.09759-.735.87808-.99273,1.75387-1.98819,2.65913-2.956,1.73917-1.85922,3.498-3.7,5.24379-5.55316a53.64591,53.64591,0,0,0-6.621,6.38636c-.31173.33891-.51944.84543-1.11845.726a9.336,9.336,0,0,1-3.20066,4.62524C89.98314,69.79663,89.52589,70.11021,89.86028,70.29787Z"/><path class="cls-13" d="M90.97975,69.23811l.001-.001-.00064.00032a3.368,3.368,0,0,1,.4167-.5731c-.17117.10452-.34464.20516-.51524.31064-.2643.21261-.59824.38595-.4456.82467l.00026-.00006.00025-.00108Q90.70854,69.51719,90.97975,69.23811Z"/><path class="cls-13" d="M101.48044,57.01149l.00083-.0007-.00006-.00032a24.63655,24.63655,0,0,0-4.90005,4.19778c-1.19942,1.16377-2.29177,2.438-3.43173,3.66307l-.00007.00012-.00757.01961c.599.11942.80672-.3871,1.11845-.726a53.64591,53.64591,0,0,1,6.621-6.38636c.04246-.04507.085-.08988.12744-.135A6.68564,6.68564,0,0,0,101.48044,57.01149Z"/><path class="cls-13" d="M93.14179,64.89105l-.00554-.0007q-1.59756,2.31294-3.19512,4.62594A9.336,9.336,0,0,0,93.14179,64.89105Z"/><path class="cls-13" d="M93.14943,64.87132l-.00013.00012-.013.01891.00554.0007.00757-.01961Z"/><path class="cls-9" d="M100.62884,65.9389a.78466.78466,0,0,0,.83-.25545l-.00974-.00038C101.211,65.88,100.85247,65.69637,100.62884,65.9389Z"/><path class="cls-9" d="M101.44556,65.68294l.01-.01114a.84524.84524,0,0,0-.82671.2671c.22363-.24253.58214-.05894.82028-.25583Z"/><path class="cls-9" d="M101.46173,65.67212l.00808.00044-.00006.00007.00013-.00007-.00013.00007-.01089.01082a.78806.78806,0,0,0,.80221-.27379l-.009.00045C102.0284,65.61343,101.67351,65.434,101.46173,65.67212Z"/><line class="cls-14" x1="101.46975" y1="65.67263" x2="101.46988" y2="65.67256"/><path class="cls-9" d="M102.25209,65.41011l-.00363.00019.015-.01006c-.30925-.02591-.61346-.03749-.80794.27156l.00618.00032C101.67351,65.434,102.0284,65.61343,102.25209,65.41011Z"/><path class="cls-9" d="M102.26711,65.402c-.00439.00446-.0105.004-.015.00809l.009-.00045.00821-.00859Z"/><path class="cls-9" d="M102.25209,65.41011c.00452-.00408.01063-.00363.015-.00809l-.01865.00828Z"/><path class="cls-9" d="M102.26711,65.402l.00261-.0014-.02126.00968Z"/><polygon class="cls-9" points="102.269 65.401 102.27 65.401 102.267 65.402 102.269 65.401"/><path class="cls-9" d="M102.26972,65.40062l.00007-.00006-.0063-.00032-.015.01006Z"/><path class="cls-9" d="M101.44912,65.68307l.00974.00038.01089-.01082C101.46364,65.67836,101.45543,65.67785,101.44912,65.68307Z"/><path class="cls-9" d="M101.46975,65.67263l.00006-.00007-.00808-.00044c-.00478.00535-.01152.005-.01617.01082Z"/><path class="cls-9" d="M101.44912,65.68307c.00631-.00522.01452-.00471.02063-.01044l-.02419.01031Z"/><path class="cls-9" d="M101.46173,65.67212l-.00618-.00032-.01.01114C101.45021,65.67708,101.457,65.67747,101.46173,65.67212Z"/><path class="cls-8" d="M123.45,45.0295a2.2076,2.2076,0,0,1,1.15473-.27124A61.47519,61.47519,0,0,1,135.7831,40.4986,242.559,242.559,0,0,1,161.7417,34.805q11.676-1.94408,23.47655-2.82426a48.18041,48.18041,0,0,1,6.53844-.2326h.00287c3.24567-.1699,6.47007-.63294,9.725-.69405,1.29039-.02419,2.57314-.20733,3.86989-.19924a133.10054,133.10054,0,0,1,15.32352.99253,129.45861,129.45861,0,0,1,17.653,3.53455.99574.99574,0,0,1,.58978.27117l.00012.00007q.53453.01737,1.06918.03488l.00051.00013-.00051-.00038c2.56276-.26653,5.12024-.64574,7.68987-.76554,1.88621-.088,3.76568-.29594,5.65329-.34368-11.21091-3.58229-22.48637-6.88926-34.26758-8.08823a117.01592,117.01592,0,0,0-19.904-.409c-4.00172.27468-8.01629.37494-12.01725.63472-6.85348.445-13.69181,1.10808-20.48806,2.138a250.41371,250.41371,0,0,0-32.86936,6.9c-1.96923.57584-3.94119,1.1476-5.866,1.87087a2.36039,2.36039,0,0,1-1.62012.309,18.02118,18.02118,0,0,1-2.81968,1.42311l-.037.0163c-.0175.452-.47519.61626-.78928.82238a123.55543,123.55543,0,0,0-13.80327,10.50935,27.49466,27.49466,0,0,0-3.98262,3.7257c2.867-1.71427,5.73923-3.42282,8.75873-4.85841C116.88538,48.0236,120.176,46.54409,123.45,45.0295Z"/><path class="cls-8" d="M123.48118,39.35711a18.02118,18.02118,0,0,0,2.81968-1.42311,1.24569,1.24569,0,0,1-.2841-.14017q-1.30185.65722-2.60357,1.31451l-.00006.00006a.83707.83707,0,0,1,.03106.265Z"/><path class="cls-8" d="M104.869,54.43084a27.49466,27.49466,0,0,1,3.98262-3.7257,123.55543,123.55543,0,0,1,13.80327-10.50935c.31409-.20612.77178-.37042.78928-.82238-.12209.05124-.24113.10853-.36309.16009-.09956.07187-.20644.13725-.31135.20943q-2.79666,1.9248-5.57219,3.88027c-2.47142,1.732-4.80673,3.64154-7.1169,5.57677-1.83688,1.53884-3.59285,3.17476-5.36626,4.78788-.17869.16252-.64453.29652-.30562.71735l.00013-.00012Q104.63874,54.56767,104.869,54.43084Z"/><path class="cls-8" d="M123.41313,39.1084a.79177.79177,0,0,1-.332.4251c.122-.05156.241-.10885.36309-.16009A.83707.83707,0,0,0,123.41313,39.1084Z"/><path class="cls-8" d="M127.921,37.625c1.92479-.72327,3.89675-1.295,5.866-1.87087a250.41371,250.41371,0,0,1,32.86936-6.9c6.79625-1.03,13.63458-1.693,20.48806-2.138,4.001-.25978,8.01553-.36,12.01725-.63472a117.01592,117.01592,0,0,1,19.904.409c11.78121,1.199,23.05667,4.50594,34.26758,8.08823.294-.00745.58768-.02152.88222-.01955-1.214-.71906-2.6352-.77234-3.93481-1.22443-3.49508-1.21585-7.01791-2.34958-10.59625-3.298A140.68148,140.68148,0,0,0,223.736,26.72869c-4.19428-.60557-8.39983-1.03614-12.62912-1.23291-6.9237-.322-13.81416.35063-20.71672.7064q-5.879.30307-11.73627.83079c-4.084.36462-8.15074.86153-12.20466,1.44628q-7.59994,1.09626-15.13089,2.62215a209.86152,209.86152,0,0,0-20.47953,5.11616c-1.32158.40982-2.59841.95319-3.927,1.33762-.17461.11025-.35272.21446-.52682.3256-.02712.01954-.05672.03419-.08409.05322A2.36039,2.36039,0,0,0,127.921,37.625Z"/><path class="cls-8" d="M126.385,37.88078c.1741-.11114.35221-.21535.52682-.3256-.29632.08574-.59207.17321-.895.23865a1.24569,1.24569,0,0,0,.2841.14017C126.32823,37.915,126.35783,37.90032,126.385,37.88078Z"/><path class="cls-5" d="M316.44223,40.3408c-7.93-1.552-15.88014-2.97748-23.91738-3.86346-4.9206-.54242-9.84585-1.00444-14.794-1.2569-5.83579-.29772-11.66943-.53389-17.51408-.51308-1.5522.00548-3.08805.29283-4.63866.25877,2.05229.84746,4.1634,1.542,6.22136,2.37242,2.2567.91061,4.62836,1.51122,6.8298,2.56448l.0007.00013q.4483.04268.89667.0853l.00026.00006-.00032-.00019c3.12688-.08982,6.23753.20848,9.35372.38124,2.62718.14571,5.24672.37258,7.86747.604,4.75217.41975,9.48072,1.02532,14.19451,1.74025,3.61118.54777,7.18411,1.332,10.7818,1.94783,6.335,1.0844,12.49678,2.89473,18.77009,4.22777,4.27111.90755,8.5281,1.88137,12.79119,2.82661.47755.10593.95371.21854,1.4305.328l.61441.01591c.71238-.01827,1.42464-.04443,2.13715-.05341,2.48669-.03145,4.95612-.31141,7.43307-.47755,1.50466-.1009,3.00779-.23973,4.5125-.34267,1.54445-.10567,3.08182-.312,4.6232-.46526.341-.03393.6854-.03317,1.02819-.0466-5.91-1.15149-11.84888-2.151-17.74776-3.36687-9.00807-1.8568-17.96407-3.94169-26.91695-6.04211a4.11763,4.11763,0,0,1-1.00985-.34585,2.85,2.85,0,0,0-1.13717-.47252,2.28727,2.28727,0,0,1-.23845-.07391A2.32965,2.32965,0,0,1,316.44223,40.3408Z"/><path class="cls-5" d="M318.23665,40.22615a1.25209,1.25209,0,0,1-.22241.14711,2.28727,2.28727,0,0,0,.23845.07391,2.85,2.85,0,0,1,1.13717.47252,4.11763,4.11763,0,0,0,1.00985.34585c8.95288,2.10042,17.90888,4.18531,26.91695,6.04211,5.89888,1.21591,11.8378,2.21538,17.74776,3.36687l.0373-.00172h.00007q.43512-.05652.87127-.1135l.00063-.00013.00032-.00044a18.45331,18.45331,0,0,0-4.29218-.91755c-7.19029-1.23227-14.33621-2.68606-21.46348-4.23171q-7.49863-1.62621-14.96577-3.39647a59.27385,59.27385,0,0,1-5.93141-1.49447c-.36615-.09256-.79583.04233-1.09209-.3004Z"/><path class="cls-5" d="M292.79062,36.10317c-4.47341-.52084-8.95644-.90864-13.44685-1.22839-3.16069-.22509-6.32851-.27576-9.49346-.4011a145.32049,145.32049,0,0,0-15.114.14463c.278.12279.56119.2319.84186.34782,1.55061.03406,3.08646-.25329,4.63866-.25877,5.84465-.02081,11.67829.21536,17.51408.51308,4.94811.25246,9.87336.71448,14.794,1.2569,8.03724.886,15.9874,2.31151,23.91738,3.86346a2.32965,2.32965,0,0,0,1.572.03246c-.05679-.01871-.11561-.03119-.17162-.05315q-.50884-.14867-1.01775-.29728c-2.9405-.57425-5.88093-1.15021-8.82875-1.68531C302.95317,37.4222,297.88291,36.696,292.79062,36.10317Z"/><path class="cls-5" d="M318.01424,40.37326a1.25209,1.25209,0,0,0,.22241-.14711l-.00757-.008-.01012-.00764.01763.01566a5.29006,5.29006,0,0,1-1.18765-.15978l-.22407-.04354q.50885.14877,1.01775.29728C317.89863,40.34207,317.95745,40.35455,318.01424,40.37326Z"/><path class="cls-15" d="M368.9802,51.463c4.61308.71162,9.23354,1.37447,13.852,2.05051.307-.0452.61308-.0974.9206-.139.16978-.03756.34146-.06309.514-.08416C380.15718,53.08437,376.1223,52.25,372.054,51.699c-1.3636-.18473-2.73132-.35667-4.07512-.66458-.27589-.06321-.62479-.02769-.79838-.26577-.44-.0035-.87649.08893-1.31814.05831-.03183-.0063-.06379-.012-.09562-.01827a.73254.73254,0,0,1-.09873.063A20.32567,20.32567,0,0,0,368.9802,51.463Z"/><path class="cls-15" d="M365.86236,50.82691c.44165.03062.87814-.06181,1.31814-.05831a.59519.59519,0,0,1-.10421-.30447l.00051-.00006-.00083-.00019a2.53782,2.53782,0,0,0-1.10228.09529.64951.64951,0,0,1-.20695.24947C365.79857,50.815,365.83053,50.82061,365.86236,50.82691Z"/><path class="cls-15" d="M383.75277,53.37459c-.30752.04156-.61358.09376-.9206.139q.51725.07572,1.03449.15112l-.00039.00006h.00019a5.02094,5.02094,0,0,0,1.921-.32433l-.00013-.00006c-.5083-.00446-1.01481-.02451-1.52063-.04991C384.09423,53.3115,383.92255,53.337,383.75277,53.37459Z"/><path class="cls-15" d="M367.1805,50.7686c.17359.23808.52249.20256.79838.26577,1.3438.30791,2.71152.47985,4.07512.66458,4.0683.551,8.10318,1.38542,12.21274,1.59148.37029-.0452.74338-.07492,1.10922-.14959A10.4417,10.4417,0,0,0,383.7226,53.02c-3.67815-.53771-7.36553-1.01393-11.03859-1.58366-1.51612-.23521-3.04572-.40543-4.54879-.72549a3.92283,3.92283,0,0,1-.90348.05487C367.21462,50.76529,367.19762,50.76873,367.1805,50.7686Z"/><path class="cls-15" d="M367.1805,50.7686c.01712.00013.03412-.00331.05124-.00286a3.92283,3.92283,0,0,0,.90348-.05487c-.35406-.07537-.70805-.15074-1.05842-.2468l-.00051.00006A.59519.59519,0,0,0,367.1805,50.7686Z"/><path class="cls-15" d="M385.78737,53.34034a1.41322,1.41322,0,0,0-.41141-.1995c-.36584.07467-.73893.10439-1.10922.14959C384.77256,53.31583,385.27907,53.33588,385.78737,53.34034Z"/><path class="cls-15" d="M365.76674,50.80864c-.20312-.04-.40676-.07689-.61-.11649.16749.07372.34006.12311.51123.17951A.73254.73254,0,0,0,365.76674,50.80864Z"/><path class="cls-15" d="M365.10179,50.6728c.01795.00815.037.0114.055.01935.2032.0396.40684.07645.61.11649a.64951.64951,0,0,0,.20695-.24947l-.00063.00013Q365.5365,50.6166,365.10179,50.6728Z"/><path class="cls-5" d="M253.57168,40.11864q-6.18676-1.96194-12.3708-3.926c-.21478-.06837-.43815-.11853-.65159-.19269-.14794.01037-.29562.02483-.44362.0345a4.0224,4.0224,0,0,1-1.21941-.11554c-.13775-.03749-.27614-.07091-.414-.108a1.23919,1.23919,0,0,1-.8728.03488c-2.684.02375-5.3487.44159-8.03616.39537a15.21523,15.21523,0,0,1-3.42989.38678c-2.51839.30887-5.06065.41695-7.58814.65866-3.10231.2967-6.19947.64758-9.29911.97223-.72925.07639-1.45895.14832-2.18852.22121,3.858-.01318,7.71552-.02031,11.56765.252,5.8654.41466,11.72322.90724,17.53158,1.85687.34247.056.76656.03005,1.002.31809a5.90127,5.90127,0,0,1,1.85044.21523c.0303.00458.06028.01063.09058.01521a1.11669,1.11669,0,0,1,.53975-.20994,46.99867,46.99867,0,0,1,9.01507-.7423c.24151.06181.48233.12642.72384.18842,1.38867-.20287,2.79905-.11763,4.19282-.25488Z"/><path class="cls-5" d="M239.09989,41.13746c-.0303-.00458-.06028-.01063-.09058-.01521a5.90127,5.90127,0,0,0-1.85044-.21523.759.759,0,0,1,.15475.35075h-.00032l.00045.00013q.78411.07266,1.56939.14584l.00165-.00026-.003-.00051A.71.71,0,0,1,239.09989,41.13746Z"/><path class="cls-5" d="M248.65471,40.18522a46.99867,46.99867,0,0,0-9.01507.7423,1.11669,1.11669,0,0,0-.53975.20994c.25482.03851.50747.088.762.12827a75.365,75.365,0,0,1,8.834-.78463h.00026c.2263-.05226.45476-.07416.68246-.10746C249.137,40.31164,248.89622,40.247,248.65471,40.18522Z"/><path class="cls-5" d="M238.8818,41.403l.003.00051c.32529-.05028.65147-.0909.97707-.13775-.2545-.04029-.50715-.08976-.762-.12827A.71.71,0,0,0,238.8818,41.403Z"/><path class="cls-5" d="M237.15887,40.907c-.2354-.288-.65949-.26213-1.002-.31809-5.80836-.94963-11.66618-1.44221-17.53158-1.85687-3.85213-.27232-7.70967-.26519-11.56765-.252q-.6344.06339-1.26861.12827a2.08933,2.08933,0,0,0-1.16066.21687l-.00006.00019a2.799,2.799,0,0,0,.39734.04819q6.9603-.12708,13.90844.29855c1.51038.09052,3.02528.16347,4.53051.29874q4.64745.41766,9.27677,1.0301c1.15874.152,2.33174.24463,3.48005.48086.307-.02794.6148-.04494.92156-.07537C237.14836,40.9062,237.15352,40.90728,237.15887,40.907Z"/><path class="cls-5" d="M237.15887,40.907c-.00535.00026-.01051-.00082-.01585-.00057-.30676.03043-.61461.04743-.92156.07537.36685.0755.73141.16417,1.09184.276h.00032A.759.759,0,0,0,237.15887,40.907Z"/><path class="cls-5" d="M238.60948,35.729a.685.685,0,0,1-.13718.08193c.13782.03711.27621.07053.414.108a4.0224,4.0224,0,0,0,1.21941.11554c.148-.00967.29568-.02413.44362-.0345a1.56252,1.56252,0,0,1-.55878-.31179l-.00051-.00013q-.53462-.01748-1.06918-.03488l-.00012-.00007.00006.00007Z"/><path class="cls-16" d="M368.521,55.39378q4.44942-.51372,8.89273-1.07574c1.46868-.18607,2.92948-.42217,4.39142-.64942-1.6065-.088-3.19729-.36234-4.79189-.58717-3.38342-.47724-6.76538-.96746-10.13047-1.56061-.54382-.09587-1.20986-.027-1.595-.51721l-.15984.03532c-6.12518.61639-12.24922,1.262-18.41253,1.331,1.46818.33038,2.93566.66439,4.41237.951,3.76829.73136,7.54052,1.446,11.32307,2.098a19.46526,19.46526,0,0,1,2.44277.43554,2.06991,2.06991,0,0,0,.33089-.0732c.72511-.11013,1.461-.27086,2.05585.362.00643-.00726.0142-.01006.02069-.01706C367.32379,55.40046,368.01707,55.452,368.521,55.39378Z"/><path class="cls-16" d="M381.80513,53.66862c-1.46194.22725-2.92274.46335-4.39142.64942q-4.44351.56289-8.89273,1.07574c-.50391.05818-1.19719.00668-1.21992.73237a1.43377,1.43377,0,0,1,1.20643-.3687,26.4425,26.4425,0,0,0,3.43988-.33636c2.59688-.23884,5.17969-.642,7.76237-1.01877,1.39167-.203,2.7713-.48894,4.15653-.73759A15.55374,15.55374,0,0,1,381.80513,53.66862Z"/><path class="cls-16" d="M359.413,51.18638c-1.50471.10294-3.00784.24177-4.5125.34267-2.47695.16614-4.94638.4461-7.43307.47755-.71251.009-1.42477.03514-2.13715.05341.46209.10121.92347.20606,1.38511.30994,6.16331-.069,12.28735-.71461,18.41253-1.331l.15984-.03532a1.173,1.173,0,0,1-.18155-.32115l-.04182-.008c-.34279.01343-.68718.01267-1.02819.0466C362.49485,50.87434,360.95748,51.08071,359.413,51.18638Z"/><path class="cls-16" d="M365.1014,50.67286l.00039-.00006h-.00007l-.0373.00172.04182.008Z"/><path class="cls-16" d="M365.668,50.87166a1.48327,1.48327,0,0,1-.38022.132c.38512.49022,1.05116.42134,1.595.51721,3.36509.59315,6.74705,1.08337,10.13047,1.56061,1.5946.22483,3.18539.49919,4.79189.58717q.51313-.07983,1.027-.15507c-4.61843-.676-9.23889-1.33889-13.852-2.05051A20.32567,20.32567,0,0,1,365.668,50.87166Z"/><path class="cls-16" d="M382.83217,53.51355q-.51381.07572-1.027.15507a15.55374,15.55374,0,0,0,2.06114-.00389l.00039-.00006Q383.34951,53.58866,382.83217,53.51355Z"/><path class="cls-16" d="M365.28779,51.00363a1.48327,1.48327,0,0,0,.38022-.132c-.17117-.0564-.34374-.10579-.51123-.17951l-.05054-.00967A1.173,1.173,0,0,0,365.28779,51.00363Z"/><path class="cls-16" d="M365.10624,50.68248l.05054.00967c-.018-.008-.037-.0112-.055-.01935l-.00039.00006Z"/><path class="cls-16" d="M365.41873,56.039h.00026q.93069.05205,1.86138.10421c-.59487-.63281-1.33074-.47208-2.05585-.362a2.06991,2.06991,0,0,1-.33089.0732,4.32028,4.32028,0,0,1,.52529.18448Z"/><path class="cls-8" d="M301.54954,54.49692a142.00875,142.00875,0,0,0,17.35875,2.37828,188.03865,188.03865,0,0,0,21.91945.56839c7.47973-.27557,14.96-.65968,22.40451-1.51229.11426-.013.22942-.01356.34438-.01617-2.35281-.24744-4.65808-.81424-6.98773-1.209-3.38036-.57285-6.75264-1.20254-10.08991-1.9973-.34082-.08116-.78216-.02788-1.022-.32554l-.0184.00019a3.20492,3.20492,0,0,1-.72314-.005c-.20924-.04137-.41752-.08714-.6267-.1289-.22694.011-.45947-.019-.68374-.01477-5.66348.10612-11.33014.18887-16.98973-.02081-4.13305-.1531-8.25769-.50474-12.37781-.9399-10.49643-1.10858-20.63065-3.80782-30.71936-6.744-4.19129-1.21985-8.34075-2.56823-12.46851-3.98581-.21287-.07307-.42892-.13718-.6402-.21223-.19975-.00624-.39919-.01718-.59894-.023a3.35354,3.35354,0,0,1-.88623-.1079c-.2743-.09593-.54662-.19759-.82079-.294-4.12274.01789-8.24515.03139-12.36743.06353-.465.0037-.99216-.17473-1.37454.28124a34.89559,34.89559,0,0,0,5.29732,2.10678c2.25581.85905,4.53975,1.644,6.81039,2.46454.60442.16169,1.20947.32108,1.81383.483,10.60369,3.30391,21.26506,6.40724,32.03056,9.15161A2.37978,2.37978,0,0,1,301.54954,54.49692Z"/><path class="cls-8" d="M268.10306,45.30622c-.60436-.162-1.20941-.32134-1.81383-.483.276.09975.55343.19568.82887.29683.35832.13152.8064.14253,1.03461.54223l-.00292-.00076.00305.001c1.45169.427,2.916.81557,4.35291,1.28784,5.42464,1.78322,10.88684,3.43906,16.40646,4.90234,3.61595.95861,7.2386,1.89232,10.85971,2.8375a1.20651,1.20651,0,0,1,.3617-.23235C289.36812,51.71346,278.70675,48.61013,268.10306,45.30622Z"/><path class="cls-8" d="M267.92349,39.9071c.27417.09644.54649.1981.82079.294a3.35354,3.35354,0,0,0,.88623.1079c.19975.0058.39919.01674.59894.023a2.84024,2.84024,0,0,1-.70251-.34349l-.00026-.00006q-.44831-.04269-.89667-.0853l-.0007-.00013.00108.00045Q268.27692,39.905,267.92349,39.9071Z"/><path class="cls-8" d="M344.7355,52.37848a3.20492,3.20492,0,0,0,.72314.005l.0184-.00019a.726.726,0,0,1-.14673-.32331l-.61441-.01591a1.00846,1.00846,0,0,1-.6071.20548C344.318,52.29134,344.52626,52.33711,344.7355,52.37848Z"/><path class="cls-8" d="M300.8397,54.7532c.26316.05933.52778.10962.79151.16544-.48023-.1487-.96039-.29848-1.44087-.44585l-.05672-.015a1.20651,1.20651,0,0,0-.3617.23235l.00147.00038A6.39417,6.39417,0,0,1,300.8397,54.7532Z"/><path class="cls-8" d="M346.499,52.70886c3.33727.79476,6.70955,1.42445,10.08991,1.9973,2.32965.39473,4.63492.96153,6.98773,1.209a8.60081,8.60081,0,0,0,1.317-.06067,19.46526,19.46526,0,0,0-2.44277-.43554c-3.78255-.652-7.55478-1.36664-11.32307-2.098-1.47671-.28658-2.94419-.62059-4.41237-.951-.41282.00465-.82518.0142-1.23838.01337C345.71683,52.681,346.15817,52.6277,346.499,52.70886Z"/><path class="cls-8" d="M345.477,52.38332c.4132.00083.82556-.00872,1.23838-.01337-.46164-.10388-.923-.20873-1.38511-.30994A.726.726,0,0,0,345.477,52.38332Z"/><path class="cls-8" d="M365.41873,56.039l.00019-.00006a4.32028,4.32028,0,0,0-.52529-.18448,8.60081,8.60081,0,0,1-1.317.06067C364.18729,55.97936,364.80024,56.02735,365.41873,56.039Z"/><path class="cls-6" d="M102.90336,62.34344c.42039-.19873.843-.39187,1.26448-.58787.5768-.30638,1.16855-.58513,1.75362-.87292,3.10237-1.52586,6.22391-3.01269,9.33609-4.51862.19632-.095.3773-.22184.56546-.33388l.00013-.00006a125.35259,125.35259,0,0,1,23.67739-11.46885,130.79789,130.79789,0,0,1,26.371-6.28795c3.32269-.4244,6.65563-.69832,9.99322-.93779a42.67185,42.67185,0,0,1,7.46751.52981c2.5718.26679,5.12749.68992,7.68866,1.05581a3.232,3.232,0,0,1,.62027.22134c2.90319.10516,5.79448-.21841,8.69386-.24444.83212-.1009,1.66475-.1974,2.49572-.308a8.70476,8.70476,0,0,1,1.90417-.10331l.05786-.00019c.24464-.28028.6663-.22649,1.01488-.26774,7.063-.836,14.14511-1.48053,21.22941-2.10227.551-.04838,1.10928-.0098,1.66049-.05334-2.85234-.59914-5.73618-1.01851-8.61353-1.4727-5.5494-.87592-11.12561-1.54877-16.71964-2.05408-2.8438-.25685-5.69181-.48354-8.54618-.60894-.99712.07518-1.99519.14482-2.99161.22032a160.581,160.581,0,0,0-21.54954,1.78118,258.54536,258.54536,0,0,0-29.04187,5.49669A92.09223,92.09223,0,0,0,124.78283,44.983a12.68738,12.68738,0,0,0-1.33354.41657c-2.65143,1.47327-5.31433,2.927-7.93145,4.4589A113.22043,113.22043,0,0,0,93.07431,66.8378a1.18835,1.18835,0,0,0-.04679.26539,2.3,2.3,0,0,1-.72314,1.01392c2.61566-1.56736,5.2797-3.05291,7.91591-4.586A15.28289,15.28289,0,0,1,102.90336,62.34344Z"/><path class="cls-6" d="M204.73491,38.48667a8.70476,8.70476,0,0,0-1.90417.10331c-.831.11064-1.6636.20714-2.49572.308.21707-.002.43382-.01433.651-.01248.57755.00484,1.155.02483,1.73222.03781l-.00012.00007q.95513-.04908,1.90976-.098l.00051-.00026a.75447.75447,0,0,1,.16436-.33871Z"/><path class="cls-6" d="M102.90336,62.34344a15.28289,15.28289,0,0,0-2.68307,1.18765c-2.63621,1.53311-5.30025,3.01866-7.91591,4.586a12.39551,12.39551,0,0,0-1.32361,1.12c.34979-.18874.70519-.36647,1.04766-.56648,3.51691-2.05433,6.9855-4.19441,10.646-5.99386a11.61816,11.61816,0,0,1,1.49345-.92118C103.74637,61.95157,103.32375,62.14471,102.90336,62.34344Z"/><path class="cls-6" d="M93.02752,67.10319a1.18835,1.18835,0,0,1,.04679-.26539c-.06372.06277-.13.1221-.19358.18505l-.00006.00007a12.11038,12.11038,0,0,1-1.48384,1.64139c.30148-.18416.60448-.36559.90755-.5472A2.3,2.3,0,0,0,93.02752,67.10319Z"/><path class="cls-6" d="M90.98077,69.23709a12.39551,12.39551,0,0,1,1.32361-1.12c-.30307.18161-.60607.363-.90755.5472a3.368,3.368,0,0,0-.4167.5731Z"/><path class="cls-6" d="M191.757,31.74834l.00261-.00019h-.00287a48.18041,48.18041,0,0,0-6.53844.2326q-11.799.89193-23.47655,2.82426a242.559,242.559,0,0,0-25.9586,5.69359,61.47519,61.47519,0,0,0-11.17838,4.25966c-.38429.21516-.77037.42733-1.15543.64128a12.68738,12.68738,0,0,1,1.33354-.41657,92.09223,92.09223,0,0,1,16.45235-5.55737,258.54536,258.54536,0,0,1,29.04187-5.49669,160.581,160.581,0,0,1,21.54954-1.78118c.99642-.0755,1.99449-.14514,2.99161-.22032-.488-.02145-.97579-.04653-1.46417-.06124C192.8211,31.85013,192.2895,31.78883,191.757,31.74834Z"/><path class="cls-6" d="M218.54531,37.28661c2.52749-.24171,5.06975-.34979,7.58814-.65866a15.21523,15.21523,0,0,0,3.42989-.38678c-.28766-.06467-.57743-.11744-.86579-.178-.55121.04354-1.10948.005-1.66049.05334-7.0843.62174-14.16643,1.26626-21.22941,2.10227-.34858.04125-.77024-.01254-1.01488.26774q1.13246-.00153,2.26491-.00643c.72957-.07289,1.45927-.14482,2.18852-.22121C212.34584,37.93419,215.443,37.58331,218.54531,37.28661Z"/><path class="cls-6" d="M207.05768,38.48005q-1.13246.00381-2.26491.00643a.75447.75447,0,0,0-.16436.33871,2.08933,2.08933,0,0,1,1.16066-.21687Q206.42338,38.54444,207.05768,38.48005Z"/><path class="cls-17" d="M191.764,39.46208c-.31484-.06105-.63147-.11025-.94683-.168-1.39637.22636-2.81821.19708-4.22261.30778a251.60383,251.60383,0,0,0-25.44666,3.23319A231.2567,231.2567,0,0,0,119.56419,54.6602c-.86523.333-1.69467.76795-2.57244,1.07-.25679.1531-.52128.29276-.77706.44751-1.619.90425-3.29468,1.69111-4.97974,2.45887,4.10968-1.70995,8.28226-3.25993,12.5416-4.58278a335.31851,335.31851,0,0,1,45.83217-10.72724c8.14629-1.32139,16.3039-2.55735,24.48233-3.65537.50429-.06773,1.01011-.12451,1.515-.18785A22.486,22.486,0,0,1,191.764,39.46208Z"/><path class="cls-17" d="M195.60608,39.48334c-.50492.06334-1.01074.12012-1.515.18785-8.17843,1.098-16.336,2.334-24.48233,3.65537A335.31851,335.31851,0,0,0,123.77655,54.0538c-4.25934,1.32285-8.43192,2.87283-12.5416,4.58278-1.98609.90495-3.98612,1.78163-5.93357,2.76875-.86593.43892-1.71835.91634-2.627,1.27142a1.58958,1.58958,0,0,0,1.015-.265c1.94777-.88381,3.88268-1.797,5.843-2.65194a164.47282,164.47282,0,0,1,20.39328-7.17718q8.64732-2.48481,17.41993-4.50187c2.90052-.6626,5.79391-1.36448,8.71187-1.94064,3.78573-.74752,7.59031-1.40083,11.39125-2.06916,2.84062-.49945,5.68417-.98477,8.534-1.428,2.67441-.41587,5.35965-.76242,8.03858-1.1499,2.89734-.419,5.78926-.87738,8.69042-1.26747,2.41953-.32528,4.86389-.49022,7.26642-.90494a8.73439,8.73439,0,0,0,2.73992-.39728h-.00007C200.33935,38.94582,197.97793,39.3235,195.60608,39.48334Z"/><path class="cls-17" d="M191.64116,39.14246c-.27284.06913-.54879.107-.824.15163.31536.05774.632.10694.94683.168a22.486,22.486,0,0,0,3.84213.02126q2.36355-.29667,4.72894-.58532C197.43564,38.92405,194.54435,39.24762,191.64116,39.14246Z"/><path class="cls-17" d="M116.99175,55.7302a6.345,6.345,0,0,1-1.16861.29989l-.00013.00006c-.18816.112-.36914.23885-.56546.33388-3.11218,1.50593-6.23372,2.99276-9.33609,4.51862-.58507.28779-1.17682.56654-1.75362.87292q3.50536-1.63021,7.06711-3.119c1.68506-.76776,3.3607-1.55462,4.97974-2.45887C116.47047,56.023,116.735,55.8833,116.99175,55.7302Z"/><path class="cls-17" d="M200.986,38.88554c-.2172-.00185-.434.0105-.651.01248q-2.36565.28683-4.72894.58532c2.37185-.15984,4.73327-.53752,7.112-.55992h.00007l.00012-.00007C202.141,38.91037,201.56359,38.89038,200.986,38.88554Z"/><path class="cls-17" d="M111.235,58.63658q-3.56388,1.48288-7.06711,3.119a11.61816,11.61816,0,0,0-1.49345.92118c.90864-.35508,1.76106-.8325,2.627-1.27142C107.24883,60.41821,109.24886,59.54153,111.235,58.63658Z"/><path class="cls-18" d="M252.8523,39.525c.27614.13565.90577.1.766.57794a.43394.43394,0,0,1,.50174.09115.88308.88308,0,0,1,.1419-.33954,2.76971,2.76971,0,0,1,1.68142-.33064c3.30449-.01317,6.60911.001,9.91359-.00961a8.23861,8.23861,0,0,1,1.27473.10911c-3.74958-1.32654-7.48527-2.69294-11.19379-4.1333-.37093-.144-.8481-.17976-1.0786-.5449a2.56992,2.56992,0,0,1-.7-.10484c-.08473-.02718-.16958-.05347-.25431-.08059a6.44514,6.44514,0,0,1-2.90377.363c-3.25661.19715-6.49636.57336-9.74687.82232a54.61418,54.61418,0,0,1,6.64227,2.05662C249.52814,38.57884,251.28456,38.75479,252.8523,39.525Z"/><path class="cls-18" d="M254.1593,34.84041a2.56992,2.56992,0,0,0,.7.10484.83443.83443,0,0,1-.123-.32694h-.00007l-.52077-.05927h-.00007a2.28743,2.28743,0,0,1-.31039.20078C253.98972,34.78694,254.07457,34.81323,254.1593,34.84041Z"/><path class="cls-18" d="M251.00122,35.12285a6.44514,6.44514,0,0,0,2.90377-.363c-.19046-.061-.3813-.12031-.57183-.18123-1.88761.04774-3.76708.25571-5.65329.34368-2.56963.1198-5.12711.499-7.68987.76554l.00051.00038c.427.06639.844.16633,1.26384.257C244.50486,35.69621,247.74461,35.32,251.00122,35.12285Z"/><path class="cls-18" d="M254.21538,34.559c-.29454-.002-.58819.0121-.88222.01955.19053.06092.38137.12018.57183.18123A2.28743,2.28743,0,0,0,254.21538,34.559Z"/><path class="cls-18" d="M254.85927,34.94525c.2305.36514.70767.40085,1.0786.5449,3.70852,1.44036,7.44421,2.80676,11.19379,4.1333.50155.07677.99884.18091,1.49765.27958-2.20144-1.05326-4.5731-1.65387-6.8298-2.56448-2.058-.8304-4.16907-1.525-6.22136-2.37242-.2342-.00516-.46775.00331-.70277-.01967C254.87,34.94652,254.86468,34.94525,254.85927,34.94525Z"/><path class="cls-18" d="M254.87538,34.94646c.235.023.46857.01451.70277.01967-.28067-.11592-.56388-.225-.84186-.34782a.83443.83443,0,0,0,.123.32694C254.86468,34.94525,254.87,34.94652,254.87538,34.94646Z"/><path class="cls-18" d="M252.8523,39.525c-1.56774-.77025-3.32416-.9462-4.95568-1.52325a54.61418,54.61418,0,0,0-6.64227-2.05662c-.23508.018-.46985.03832-.70506.05481.21344.07416.43681.12432.65159.19269q6.18324,1.96794,12.3708,3.926c.01611-.008.03081-.00923.0466-.01566C253.75807,39.625,253.12844,39.66069,252.8523,39.525Z"/><path class="cls-18" d="M241.25435,35.94517c-.41981-.09065-.83689-.19059-1.26384-.257A1.56252,1.56252,0,0,0,240.54929,36C240.7845,35.98349,241.01927,35.96319,241.25435,35.94517Z"/><path class="cls-18" d="M265.85693,39.51434c-3.30448.01057-6.6091-.00356-9.91359.00961a2.76971,2.76971,0,0,0-1.68142.33064.88308.88308,0,0,0-.1419.33954.62242.62242,0,0,1,.0615.05774c.38238-.456.90959-.27754,1.37454-.28124,4.12228-.03214,8.24469-.04564,12.36743-.06353-.26443-.093-.52753-.19014-.79183-.28365A8.23861,8.23861,0,0,0,265.85693,39.51434Z"/><path class="cls-18" d="M267.92349,39.9071q.35347-.00151.7069-.00362l-.00108-.00045c-.49881-.09867-.9961-.20281-1.49765-.27958C267.396,39.717,267.65906,39.8141,267.92349,39.9071Z"/><path class="cls-18" d="M253.61828,40.103c-.00267.0091-.00114.0154-.00439.02495q.24921.05433.49709.10853c.00134-.01336.00663-.02851.009-.04233A.43394.43394,0,0,0,253.61828,40.103Z"/><path class="cls-18" d="M253.57168,40.11864l.0007.00025.04151.009c.00325-.00955.00172-.01585.00439-.02495C253.60249,40.10941,253.58779,40.11068,253.57168,40.11864Z"/><path class="cls-18" d="M254.111,40.23646l.07054.01541a.62242.62242,0,0,0-.0615-.05774C254.11761,40.20795,254.11232,40.2231,254.111,40.23646Z"/><path class="cls-8" d="M237.5995,35.8458a1.23919,1.23919,0,0,0,.8728-.03488c-.038-.01019-.0762-.01967-.1142-.02986A2.54531,2.54531,0,0,0,237.5995,35.8458Z"/><path class="cls-8" d="M238.60935,35.72906a.91138.91138,0,0,1-.25125.052c.038.01019.0762.01967.1142.02986a.685.685,0,0,0,.13718-.08193Z"/><path class="cls-8" d="M238.02377,35.69379a.87774.87774,0,0,0-.42427.152,2.54531,2.54531,0,0,1,.7586-.06474C238.24676,35.75121,238.13517,35.72339,238.02377,35.69379Z"/><path class="cls-8" d="M238.60935,35.72906l.00013-.00007.0007-.00038a2.14592,2.14592,0,0,0-.58641-.03482c.1114.0296.223.05742.33433.08727A.91138.91138,0,0,0,238.60935,35.72906Z"/></svg>