<?xml version="1.0" encoding="utf-8"?>
<!-- Generator: Adobe Illustrator 23.0.4, SVG Export Plug-In . SVG Version: 6.00 Build 0)  -->
<svg version="1.1" id="Calque_1" xmlns="http://www.w3.org/2000/svg" xmlns:xlink="http://www.w3.org/1999/xlink" x="0px" y="0px"
	 viewBox="0 0 400 245" style="enable-background:new 0 0 400 245;" xml:space="preserve">
<style type="text/css">
	.st0{fill:#0074A6;}
</style>
<g>
	<path class="st0" d="M38.9,89C38.9,89,38.9,89,38.9,89c-8.4,0-18.3,1.6-24.7,6.6c-5,3.9,5.2,8.8,14.3,4.6c2.2-1,5.4-2,8.7-2
		c14-0.1,18.6,5.8,19.1,15.7c-6,0-12.6,0-20.8,0.3c-22.2,0.6-33.2,7.3-33.2,21c0,12,11.6,20.8,27.9,20.8c17.9,0,35.7-3.4,35.7-3.4
		c5.1-5,4.3-41.2,4.3-41.2C70,95.4,56.3,89,38.9,89z M33,146.2c-11.3,0-16.3-6.2-16.3-11.4c0-7.5,7.6-9.7,20.6-10.1
		c8-0.4,14.2-0.4,18.9-0.4C55.6,137.5,59.9,146.2,33,146.2z"/>
	<path class="st0" d="M92.1,128.9V89.7H77.8v49.6c0,14.4,14.4,14.3,14.4,14.3h35.2v-10.5h-20.9C92.1,143.2,92.1,143.2,92.1,128.9z"
		/>
	<path class="st0" d="M113.3,100.2h13.9c10.5,0,10.5,0,10.5,10.2v43.3H152v-43.3c0-10.2,0-10.2,10.3-10.2h14V89.7h-63.1V100.2z"/>
	<path class="st0" d="M249.4,108.9c0-12.7-10.6-19.2-24.6-19.2c0,0,0,0,0,0h-39.2v63.9h14.3v-25.2l17.4,0c13,0.2,17.6,3,17.6,15.1
		v10.1h14.6V142c0-9.3-1.9-15-9.7-17.4C245.6,121.1,249.4,115.5,249.4,108.9z M219.4,118.5l-19.5,0v-18.3H220
		c7.6,0,14.8,0.8,14.8,8.5C234.8,116.4,227.8,118.5,219.4,118.5z"/>
	<path class="st0" d="M366,89c0,0-0.1,0-0.1,0c-18.3,0-31.9,9.1-31.8,27.6v37h13.5v-37c0-10.4,6.3-16.8,18.4-16.8
		c12.1,0,18.5,6.4,18.5,16.8v37h13.5v-37C397.8,98.1,384.2,89,366,89z"/>
	<path class="st0" d="M293.7,89C293.7,89,293.6,89,293.7,89c-8.4,0-18.3,1.6-24.7,6.6c-5,3.9,5.2,8.8,14.2,4.6c2.2-1,5.4-2,8.7-2
		c14-0.1,18.6,5.8,19.1,15.7c-6,0-12.6,0-20.8,0.3c-22.2,0.6-33.2,7.3-33.2,21c0,12,11.6,20.8,27.9,20.8c18,0,35.7-3.4,35.7-3.4
		c5.1-5,4.3-41.2,4.3-41.2C324.7,95.4,311.1,89,293.7,89z M287.8,146.2c-11.3,0-16.3-6.2-16.3-11.4c0-7.5,7.6-9.7,20.6-10.1
		c8-0.4,14.2-0.4,18.9-0.4C310.3,137.5,314.7,146.2,287.8,146.2z"/>
</g>
</svg>
