<?xml version="1.0" encoding="utf-8"?>
<!-- Generator: Adobe Illustrator 21.1.0, SVG Export Plug-In . SVG Version: 6.00 Build 0)  -->
<svg version="1.1" id="svg2" xmlns:svg="http://www.w3.org/2000/svg"
	 xmlns="http://www.w3.org/2000/svg" xmlns:xlink="http://www.w3.org/1999/xlink" x="0px" y="0px" viewBox="0 0 291.8 279.3"
	 style="enable-background:new 0 0 291.8 279.3;" xml:space="preserve">
<style type="text/css">
	.st0{fill:#231F20;}
	.st1{fill:#009A68;}
</style>
<g id="g2944" transform="matrix(0.90968201,0,0,0.90968201,13.176717,12.612624)">
	<path id="path3464" class="st0" d="M216.8,187c5,0,9.3,0.5,13,1.4c3.6,0.9,6.9,2.4,10,4.5c4.6,3.1,7.2,6.3,9.9,11.1
		c1.4,2.7,2.1,7.3,2.1,13.2c0,5-1.7,8.8-4.4,13.6c-1.2,2.1-3.4,4.6-8,8.4c-2.8,2.3-5.3,3.9-9,4.9c-2.6,0.7-8,1.4-13,1.4l-25.6-0.2
		l0-58.5L216.8,187L216.8,187L216.8,187z M213.3,198.4l-5.4,0.1v36h6.1c8.4,0,12.1,0.3,16.8-4.3c4-3.9,5.9-7.4,5.7-15.1
		c-0.3-9.7-5.5-11.8-9.1-14.3c0,0-2.7-2.3-11.1-2.3 M114.2,186.8h15.2l17.5,22l16.4-22h15.2l-0.1,58.6h-15.1V209l-16.4,19.2
		l-17.5-19.1v36.2H114L114.2,186.8z M40.1,245.6L63.8,187H81l26.6,58.4h-17l-4.2-11.1H59.9l-4.5,11.2H40.1z M82,222l-9.2-22l-7.8,22
		H82"/>
	<path id="path3466" class="st1" d="M117,125.4l56.9-0.2l-39,38.5H80.1v-52.4l37-37.1L117,125.4L117,125.4z M211.7,33.7v130
		l-37.6-38.3V74.1L117,74.2l-37-40.5H211.7"/>
</g>
</svg>
