<svg id="Layer_1" data-name="Layer 1" xmlns="http://www.w3.org/2000/svg" xmlns:xlink="http://www.w3.org/1999/xlink" viewBox="0 0 2878 714.61463"><defs><style>.cls-1{fill:#fff;}.cls-1,.cls-3{fill-rule:evenodd;}.cls-2{mask:url(#mask);}.cls-3{fill:#e4722b;}</style><mask id="mask" x="28" y="31.381" width="2708.17824" height="662.60399" maskUnits="userSpaceOnUse"><g id="mask-2"><polygon id="path-1" class="cls-1" points="1382.119 31.381 28.059 31.381 28.059 693.985 2736.178 693.985 2736.178 31.381 1382.119 31.381"/></g></mask></defs><title>aricent</title><g id="Page-1"><g id="Aricent-Logo-CMYK"><g id="Group-3"><g class="cls-2"><path id="Fill-1" class="cls-3" d="M798.13375,291.05521h7.2992v58.3072c5.3652-13.49667,31.76342-63.86229,108.79182-63.86229,20.77135,0,33.12588,4.67368,34.93692,5.438v70.13352a137.94362,137.94362,0,0,0-54.94484-11.89912c-53.36989,0-88.7839,32.74222-88.7839,96.74912V589.77242c0,38.72717-1.50314,71.54318,31.97885,88.66388v4.652H696.99622v-4.652c35.67765-18.98193,31.93165-49.93671,31.93165-88.66388V388.87952c0-38.68094,3.17248-62.17125-31.09545-75.0718v-4.65ZM317.606,142.84364,371.35948,31.381l215.392,526.4824c20.00594,49.22053,37.29583,96.32117,84.63358,120.5729v4.652H486.18449v-4.652c19.699-6.86739,30.73938-13.06681,30.73938-27.92394,0-13.57049-7.08182-30.30951-18.12411-59.11779ZM216.32482,519.66052C271.84318,381.79773,363.03425,382.67914,385.166,380.34181c-4.43462-1.2405-25.32495-7.13-54.68315-7.13-110.46122,0-154.62742,63.12549-197.077,151.62314-7.96324,16.59833-24.5852,50.91256-24.5852,50.91256C88.31006,620.70258,73.26206,658.38016,28,678.48547v4.64909H199.8701V678.5553c-20.98674-4.9589-30.62033-15.45232-30.62033-29.61789,0-12.35165,6.2486-28.21219,14.73714-49.10153Zm845.58724-329.71821c-30.04293,0-52.701-23.51392-52.701-53.51451,0-28.44827,25.9437-47.93384,52.701-47.93384,27.64258,0,48.74338,23.53851,48.74338,50.32036,0,26.80348-21.1008,51.128-48.74338,51.128Zm38.44383,399.83011c0,38.72717-1.47558,71.54318,31.95129,88.66388v4.652h-140.386v-4.652c35.67867-18.98193,31.93069-49.93671,31.93069-88.66388V388.87952c0-38.68094,3.12823-62.17125-31.09449-75.0718v-4.65l100.29941-18.10247h7.29914Zm433.074-206.47353c-18.70057-18.554-52.757-43.57007-108.95711-43.57007-93.31591,0-149.9783,64.38858-149.9783,149.76289,0,87.85527,58.47253,150.241,149.9783,150.241,61.97452,0,98.74607-33.55482,105.35677-41.32817h5.17427L1519.402,678.29466c-17.11668,5.67508-62.74173,15.69032-100.802,15.69032-135.47823,0-225.902-83.84853-225.902-204.1824,0-128.87158,99.39536-204.30246,225.902-204.30246,29.57076,0,76.86809,7.0346,107.57988,16.90824Zm1076.50717,171.6074c0,49.45962,19.527,83.6322,79.83908,83.6322a53.44455,53.44455,0,0,0,29.04935-8.463h4.59391l-40.46063,61.33508c-4.702.906-14.746,2.5744-30.97742,2.5744-79.53382,0-118.54841-53.18-118.54841-138.88878V370.03929c0-42.2814-34.45958-56.23157-57.164-56.23157v-4.65l128.7298-107.43529h4.9383v98.37224h72.4907c33.79072,0,44.21828-6.55847,48.12363-8.99022h5.62686l-35.57132,69.39669h-90.66987Zm-737.28021-127.3458c-7.22061-51.08176-39.93923-87.83167-100.13315-87.83167-51.29131,0-92.19445,37.82216-100.1627,87.83167Zm-203.41417,48.71984c0,100.78139,51.02568,163.45239,144.46948,163.45239,68.27036,0,106.04533-35.36681,116.03986-45.71559h5.1547l-21.24838,79.00575c-14.382,5.62885-48.60576,20.9621-110.15723,20.9621-130.40231,0-215.8189-87.20894-215.8189-204.01419,0-116.85443,73.189-204.47067,191.70785-204.47067,104.36309,0,175.66328,82.371,172.58434,190.82938Zm460.37217,113.49209c0,38.72717-1.54427,71.54318,31.93184,88.713v4.60285H2021.17925v-4.60285c35.63028-19.0311,31.89233-49.98588,31.89233-88.713V388.87952c0-38.68094,3.16755-62.17125-31.05619-75.0718v-4.60381l100.31015-18.1487h7.2893Zm16.89068-234.59029c8.1551-6.58111,38.94542-25.20594,77.79261-25.20594,75.6681,0,110.6001,58.23639,110.6001,137.12206v123.531c0,37.87038,1.05241,68.82516-31.86291,87.80709v4.652h140.34786v-4.652c-34.5583-19.3626-31.96114-49.12615-31.96114-87.80709V449.85852c0-96.43924-55.728-162.52178-147.06651-162.52178-68.43765,0-108.55388,53.65812-117.85,67.84539Z"/></g></g><path id="Fill-4" class="cls-3" d="M2766.54587,325.65863a46.10764,46.10764,0,1,1,46.01833,46.33627,46.04883,46.04883,0,0,1-46.01833-46.33627Zm86.84281,0c0-22.89416-18.00193-41.47078-40.82448-41.47078-22.79278,0-40.70632,18.45954-40.70632,41.47078,0,22.82237,18.00217,41.42358,40.82448,41.42358,22.85186,0,40.70632-18.5058,40.70632-41.42358ZM2795.9,299.285h17.402c11.56859,0,17.96278,4.93533,17.96278,14.022,0,8.06062-4.72167,12.35162-11.54889,13.76031l12.42454,23.13126h-6.50251l-12.11929-22.298h-11.608v22.298H2795.9Zm17.14621,23.56016c7.75186,0,12.30638-2.40815,12.30638-9.32372,0-6.3932-4.55452-8.825-12.40461-8.825h-11.03733v18.1487Z"/></g></g></svg>