<svg id="Layer_1" data-name="Layer 1" xmlns="http://www.w3.org/2000/svg" viewBox="0 0 792 248.8416"><defs><style>.cls-1{fill:#0091bd;}</style></defs><title>arm</title><path class="cls-1" d="M182.49875,11.9933h51.99563V235.36409H182.49875v-23.3444c-22.81513,26.52692-50.93512,30.243-66.85265,30.243-68.97434,0-108.23726-57.30312-108.23726-118.8496C7.40884,50.725,57.28312,6.15589,116.17635,6.15589c16.44812,0,45.09968,4.24533,66.3224,31.83506ZM60.46663,124.47391c0,38.73136,24.40623,71.098,62.07673,71.098,32.89591,0,63.13856-23.876,63.13856-70.56674,0-48.81246-30.24265-72.1585-63.13856-72.1585C84.87286,52.84666,60.46663,84.6814,60.46663,124.47391ZM296.40753,11.9933h51.996V32.15518c5.8367-6.89826,14.3254-14.32611,21.75325-18.57144,10.08078-5.83577,20.16188-7.42785,31.83507-7.42785,12.734,0,26.52889,2.12364,40.853,10.61234L421.62409,63.98828c-11.67516-7.42786-21.22464-7.95746-26.52988-7.95746-11.1426,0-22.28454,1.59044-32.36532,12.20279-14.3254,15.38694-14.3254,36.60967-14.3254,51.46537V235.36409h-51.996Zm180.01694,0h51.9953V32.68478c17.5106-21.22272,38.20175-26.52889,55.17914-26.52889,23.34637,0,45.10066,11.14161,57.83469,32.8959,18.56947-26.52889,46.6888-32.8959,66.32114-32.8959,27.06007,0,50.936,12.734,63.67013,35.01758,4.24336,7.42786,11.67115,23.87565,11.67115,56.242V235.36409h-51.995v-123.093c0-24.93648-2.65489-35.01759-4.77657-39.79219-3.18449-8.49066-11.14195-19.63228-29.71142-19.63228-12.734,0-23.876,6.89825-30.77422,16.44779-9.02026,12.734-10.0811,31.83506-10.0811,50.9361V235.36409H603.76079v-123.093c0-24.93648-2.6509-35.01759-4.77258-39.79219-3.18454-8.49066-11.144-19.63228-29.71338-19.63228-12.73408,0-23.876,6.89825-30.77231,16.44779-9.02027,12.734-10.08275,31.83506-10.08275,50.9361V235.36409h-51.9953Z"/></svg>