<svg id="Layer_1" data-name="Layer 1" xmlns="http://www.w3.org/2000/svg" viewBox="0 0 496.08989 213.9364"><defs><style>.cls-1{fill:none;}.cls-2{fill:#231f20;}.cls-3{fill:#00b0eb;}</style></defs><title>ATT</title><rect class="cls-1" width="496.08989" height="288"/><path class="cls-2" d="M462.8082,145.6501a2.08041,2.08041,0,0,0,2.178-2.18048V79.59782h21.68741a2.07883,2.07883,0,0,0,2.17732-2.17939V68.6079a2.07865,2.07865,0,0,0-2.17732-2.1798H428.93919a2.07767,2.07767,0,0,0-2.17787,2.1798v8.81053a2.07786,2.07786,0,0,0,2.17787,2.17939h21.69058v63.8718a2.07938,2.07938,0,0,0,2.17664,2.18048Zm-150.893-2.57675L285.07845,68.40764a2.8138,2.8138,0,0,0-2.97013-1.97954H268.83615a2.6972,2.6972,0,0,0-2.8685,1.97954l-26.8372,74.66571a1.84822,1.84822,0,0,0,1.68258,2.57675h9.70456a2.77568,2.77568,0,0,0,2.87027-2.08131l5.84633-16.83183h31.983l5.84384,16.83183a2.77763,2.77763,0,0,0,2.87165,2.08131h10.30014A1.81292,1.81292,0,0,0,311.91524,143.07335Zm-48.12945-29.3097,11.48865-32.679,11.38673,32.679ZM437.16,142.87818,420.42342,124.753l11.09239-19.01108c.98935-1.68189.09793-2.77372-1.48864-2.77372h-9.60375a3.34187,3.34187,0,0,0-3.26709,1.78175l-6.24,10.89653L399.824,103.66268c7.52889-4.16167,14.65906-9.7069,14.65906-19.60623,0-11.58644-8.12158-19.41106-21.39116-19.41106-12.97261,0-21.58755,8.41564-21.58755,20.69806,0,4.8505,2.08118,10.39545,6.63348,15.64428-9.30679,5.15034-15.44814,11.28852-15.44814,22.77841,0,14.95339,11.3899,23.66626,25.84868,23.66626,11.68176,0,18.71659-5.04952,23.76488-11.78286l7.52435,8.31537a4.09335,4.09335,0,0,0,3.66651,1.68519h12.57457C437.65592,145.6501,438.44886,144.26448,437.16,142.87818Zm-43.869-65.955c5.15075,0,7.72407,3.36694,7.72407,7.42958,0,4.3574-2.97206,6.832-10.0018,10.89116-4.06264-4.35561-5.84123-7.32643-5.84123-10.695C385.172,80.19215,388.14153,76.92314,393.29091,76.92314Zm-4.45629,58.03071c-6.53872,0-12.083-4.84926-12.083-11.68314,0-6.93429,3.96209-10.39862,10.10358-13.86611l16.04136,17.23319C399.42964,131.88565,395.16935,134.95385,388.83462,134.95385ZM328.33225,145.6501a2.07983,2.07983,0,0,1-2.1772-2.18048V79.59782H304.46888a2.07932,2.07932,0,0,1-2.17924-2.17939V68.6079a2.07913,2.07913,0,0,1,2.17924-2.1798h57.7332a2.07885,2.07885,0,0,1,2.17842,2.1798v8.81053a2.079,2.079,0,0,1-2.17842,2.17939H340.51576v63.8718a2.08049,2.08049,0,0,1-2.1798,2.18048Z"/><path class="cls-3" d="M156.70326,20.89878a98.89977,98.89977,0,0,0-102.01637.41484c-4.464,2.75088-6.98078,4.95681-6.98078,7.78568,0,8.35636,19.51573,17.3358,54.13491,17.3358,34.25633,0,60.83124-9.83593,60.83124-19.30818C162.67226,24.86913,160.69988,23.286,156.70326,20.89878Zm14.74061,11.00285a4.00825,4.00825,0,0,1,.62321,2.2842c0,11.00312-33.65981,30.46727-87.25,30.46727-39.36858,0-46.7393-14.61077-46.7393-23.9016,0-3.3217,1.27187-6.72151,4.07489-10.17291.15528-.20769.02544-.2854-.15584-.12984A99.35456,99.35456,0,0,0,28.0604,44.93009c-1.97238,2.4912-3.19184,4.69713-3.19184,6.02058,0,19.25673,48.27029,33.21788,93.4,33.21788,48.08861,0,69.55058-15.7,69.55058-29.50666,0-4.93124-1.92025-7.81155-6.82507-13.3913a116.31807,116.31807,0,0,0-9.39481-9.49839C171.44387,31.64277,171.34,31.74648,171.44387,31.90163ZM16.56377,63.48535A98.14849,98.14849,0,0,0,9.479,84.01326a6.57519,6.57519,0,0,0,.51923,4.80084c6.07285,12.89807,36.79939,33.5297,108.47819,33.5297,43.72887,0,77.69911-10.74385,83.20143-30.36329,1.012-3.60792,1.0639-7.4223-.23383-12.56067a95.888,95.888,0,0,0-6.48754-17.12852c-.07826-.15514-.20811-.1297-.182.05186.85635,25.71828-70.84817,42.30171-107.025,42.30171-39.18716,0-71.88622-15.62268-71.88622-35.34638a23.896,23.896,0,0,1,.88221-5.76172C16.79732,63.3555,16.64135,63.32937,16.56377,63.48535Zm69.5763,82.18924c-50.68351,0-74.58483-23.6162-78.91843-39.73225-.05213-.23382-.20811-.18142-.20811.02614a98.23185,98.23185,0,0,0,1.479,17.07555,19.89165,19.89165,0,0,0,4.98322,8.64259c12.275,12.79422,42.8721,30.727,95.86554,30.727,72.198,0,88.70291-24.0573,92.07673-31.97215,2.41362-5.65815,3.65936-15.8836,3.65936-24.47295,0-2.07651-.0524-3.73749-.13012-5.37207,0-.25982-.15515-.28568-.207-.026C201.13263,119.93017,139.4456,145.67459,86.14007,145.67459Zm26.62718,43.57261c24.36842,0,51.15061-6.64255,67.16268-19.8014a53.47521,53.47521,0,0,0,12.30112-14.76606,94.32114,94.32114,0,0,0,5.96942-12.37939c.0773-.206-.05227-.31043-.20782-.0773-14.89632,21.9284-58.02811,35.60524-102.5616,35.60524-31.47946,0-65.34641-10.06892-78.60759-29.29952-.12985-.181-.25969-.10371-.18211.10439C28.99474,174.896,66.4692,189.2472,112.76725,189.2472ZM45.31834,184.186a98.98081,98.98081,0,0,0,125.96955-3.736c.20783-.18239.10372-.31127-.10371-.18239-7.8114,5.21637-30.07788,16.60956-65.13871,16.60956-30.46727,0-49.72373-6.79963-60.597-12.87152C45.24063,183.902,45.16278,184.05725,45.31834,184.186Z"/></svg>