<?xml version="1.0" encoding="UTF-8"?>
<svg id="Layer_1" data-name="Layer 1" xmlns="http://www.w3.org/2000/svg" viewBox="0 0 1078.79 277.04">
  <defs>
    <style>
      .cls-1 {
        fill: #f4764b;
      }

      .cls-1, .cls-2, .cls-3 {
        stroke-width: 0px;
      }

      .cls-2 {
        fill: #2b2222;
      }

      .cls-3 {
        fill: #359e8c;
      }
    </style>
  </defs>
  <path class="cls-3" d="m44.79,157.3c-10.14,10.13-26.68,10.13-36.82,0l-.38-.38c-10.13-10.14-10.13-26.68,0-36.82l.37-.37c10.14-10.13,26.68-10.13,36.82,0l.38.38c10.13,10.14,10.14,26.68,0,36.82l-.38.38Z"/>
  <path class="cls-1" d="m343.2,157.3c10.14,10.13,26.68,10.13,36.82,0l.38-.38c10.13-10.14,10.13-26.68,0-36.82l-.37-.37c-10.14-10.13-26.68-10.13-36.82,0l-.38.38c-10.13,10.14-10.14,26.68,0,36.82l.38.38Z"/>
  <path class="cls-2" d="m275.72,138.58c16.62-20.4,30.43-40.56,40.36-59.13,18.36-34.33,21.4-59.16,8.77-71.79s-37.45-9.6-71.79,8.77c-18.55,9.92-38.69,23.71-59.07,40.31-20.38-16.6-40.52-30.39-59.07-40.31C100.59-1.94,75.77-4.97,63.14,7.66c-12.63,12.63-9.6,37.45,8.77,71.79,9.93,18.57,23.74,38.73,40.36,59.13-43.48,53.5-70.99,108.93-49.13,130.79,5.27,5.27,12.49,7.67,21.16,7.67,27.32,0,69.07-23.82,109.69-56.85,40.62,33.03,82.37,56.85,109.69,56.85,8.67,0,15.9-2.4,21.16-7.67,21.86-21.86-5.65-77.29-49.13-130.79Zm-16.42-110.49c18.15-9.71,33.81-14.81,44.46-14.81,5.22,0,9.23,1.23,11.74,3.73,7.63,7.63,3.39,29.16-11.08,56.2-9.23,17.25-21.98,35.99-37.33,55.02-9.56-11.17-19.72-22.16-30.19-32.63-10.72-10.72-21.65-20.85-32.58-30.23,19.02-15.33,37.73-28.07,54.97-37.29Zm-.73,110.43c-9.56,11.23-19.95,22.5-31.02,33.56s-22.33,21.46-33.56,31.02c-11.23-9.56-22.5-19.95-33.56-31.02-11.06-11.06-21.46-22.33-31.02-33.56,9.56-11.23,19.95-22.5,31.02-33.56s22.33-21.46,33.56-31.02c11.23,9.56,22.5,19.95,33.56,31.02s21.46,22.33,31.02,33.56ZM83.57,73.21c-14.46-27.04-18.71-48.57-11.08-56.2,2.51-2.51,6.52-3.73,11.74-3.73,10.65,0,26.32,5.1,44.46,14.81,17.24,9.22,35.95,21.96,54.97,37.29-10.93,9.37-21.85,19.5-32.58,30.23-10.47,10.47-20.63,21.46-30.19,32.63-15.35-19.04-28.1-37.77-37.33-55.02Zm45.12,175.73c-27.04,14.46-48.57,18.71-56.2,11.08-7.63-7.63-3.39-29.16,11.08-56.2,9.22-17.24,21.96-35.95,37.29-54.97,9.37,10.93,19.5,21.85,30.23,32.58,10.47,10.47,21.45,20.63,32.63,30.19-19.04,15.35-37.77,28.1-55.02,37.33Zm186.81,11.08c-7.63,7.63-29.16,3.39-56.2-11.08-17.25-9.23-35.98-21.98-55.02-37.33,11.17-9.55,22.16-19.72,32.63-30.19s20.85-21.65,30.23-32.58c15.33,19.02,28.07,37.73,37.29,54.97,14.46,27.04,18.71,48.57,11.08,56.2Zm-103.1-102.72c-10.14,10.13-26.68,10.13-36.82,0l-.38-.38c-10.13-10.14-10.13-26.68,0-36.82l.37-.37c10.14-10.13,26.68-10.13,36.82,0l.38.38c10.13,10.14,10.14,26.68,0,36.82l-.38.38Zm440.04-77.51v-38.91h19.18v38.91h35.4v17.56h-35.4v73.5c0,15.94,10.54,26.48,26.48,26.48h10v17.56h-11.35c-26.21,0-44.31-17.83-44.31-44.04v-73.5h-23.78v-17.56h23.78Zm122.83,176.44c26.75,0,45.66-16.21,48.91-41.34h-38.1c-35.94,0-59.44-23.24-59.44-58.09v-77.01h19.18v76.74c0,23.51,15.94,39.18,39.18,39.18h39.72v-115.92h19.18v126.19c0,40.53-26.75,67.82-66.74,67.82h-40.26l-.27-17.56h38.64Zm303.51-41.34h-19.18v-81.6c0-23.24-15.4-39.18-39.72-39.18s-39.18,15.94-39.18,39.18v81.6h-19.18v-81.6c0-23.24-15.4-39.18-39.72-39.18s-39.18,15.94-39.18,39.18v81.6h-19.18v-81.87c0-34.86,23.51-58.09,59.44-58.09,21.35,0,38.37,8.92,48.37,23.78,10-14.86,27.56-23.78,49.72-23.78,34.59,0,57.82,23.24,57.82,58.09v81.87Zm-468.65-67.28v67.28h-19.47v-65.51l-.03.06c.02-.61.05-1.22.05-1.83,0-29.45-23.78-53.5-53.5-53.5s-53.5,24.05-53.5,53.5,23.78,52.96,53.5,52.96c11.31,0,19.09-1.36,26.08-5.48,6.67-3.93,14.88,1.62,13.46,9.24l-.03.16c-.48,2.58-2.06,4.85-4.35,6.13-10.44,5.79-22.45,9.14-35.16,9.14-40.26,0-72.68-32.42-72.68-72.14s32.42-72.68,72.68-72.68,72.68,32.69,72.96,72.68Z"/>
</svg>