<svg id="Layer_1" data-name="Layer 1" xmlns="http://www.w3.org/2000/svg" xmlns:xlink="http://www.w3.org/1999/xlink" viewBox="0 0 334.29599 140.72501"><defs><style>.cls-1{fill:none;}.cls-2{fill:#231f20;}.cls-3{clip-path:url(#clip-path);}.cls-4{fill:#70c38b;}</style><clipPath id="clip-path"><rect class="cls-1" width="334.29599" height="140.72501"/></clipPath></defs><title>AECC</title><path class="cls-2" d="M102.185,115.855h5.392l1.674,3.903h1.27l-4.982-11.595h-1.302l-4.95,11.595h1.205l1.693-3.903m2.712-6.377,2.224,5.328h-4.496Z"/><path class="cls-2" d="M117.145,119.961a3.72385,3.72385,0,0,0,3.51-2.162,5.99218,5.99218,0,0,0,.437-2.412v-7.224h-1.159v7.224a4.81249,4.81249,0,0,1-.391,2.098,2.72927,2.72927,0,0,1-4.796,0,4.81262,4.81262,0,0,1-.391-2.098v-7.224h-1.159v7.224a5.99364,5.99364,0,0,0,.439,2.412,3.72092,3.72092,0,0,0,3.51,2.162"/><polyline class="cls-2" points="130.41 108.163 123.94 108.163 123.94 109.212 126.603 109.212 126.603 119.758 127.762 119.758 127.762 109.212 130.41 109.212 130.41 108.163"/><path class="cls-2" d="M138.883,107.958a6.00311,6.00311,0,1,0,6.142,6.003,6.08283,6.08283,0,0,0-6.142-6.003m0,10.953a4.95159,4.95159,0,1,1,4.982-4.935A4.9935,4.9935,0,0,1,138.883,118.911Z"/><polyline class="cls-2" points="159.311 109.432 159.311 119.758 160.47 119.758 160.47 108.163 158.683 108.163 154.453 118.034 150.237 108.163 148.452 108.163 148.452 119.758 149.611 119.758 149.611 109.432 149.641 109.432 153.952 119.758 154.939 119.758 159.278 109.432 159.311 109.432"/><path class="cls-2" d="M170.02,107.958a6.00311,6.00311,0,1,0,6.142,6.003,6.08219,6.08219,0,0,0-6.142-6.003m0,10.953a4.95159,4.95159,0,1,1,4.982-4.935A4.99417,4.99417,0,0,1,170.02,118.911Z"/><polyline class="cls-2" points="182.312 119.758 182.312 109.212 184.96 109.212 184.96 108.163 178.489 108.163 178.489 109.212 181.153 109.212 181.153 119.758 182.312 119.758"/><rect class="cls-2" x="187.826" y="108.16301" width="1.159" height="11.595"/><polyline class="cls-2" points="197.79 119.758 202.599 108.163 201.345 108.163 197.24 118.315 193.15 108.163 191.867 108.163 196.644 119.758 197.79 119.758"/><polyline class="cls-2" points="205.398 119.758 211.745 119.758 211.745 118.708 206.557 118.708 206.557 114.431 211.572 114.431 211.572 113.381 206.557 113.381 206.557 109.212 211.745 109.212 211.745 108.163 205.398 108.163 205.398 119.758"/><polyline class="cls-2" points="221.264 119.758 227.611 119.758 227.611 118.708 222.423 118.708 222.423 114.431 227.438 114.431 227.438 113.381 222.423 113.381 222.423 109.212 227.611 109.212 227.611 108.163 221.264 108.163 221.264 119.758"/><path class="cls-2" d="M238.446,109.118a7.35384,7.35384,0,0,0-3.775-.955h-3.385v11.595h3.385a7.38492,7.38492,0,0,0,3.775-.956,5.76735,5.76735,0,0,0,0-9.684m-.342,8.651a5.90919,5.90919,0,0,1-3.731.939h-1.928v-9.496h1.677a6.35913,6.35913,0,0,1,3.823.893,4.65413,4.65413,0,0,1,1.975,3.839A4.767,4.767,0,0,1,238.104,117.769Z"/><path class="cls-2" d="M248.454,115.479h6.47a4.91617,4.91617,0,0,1-4.685,3.432,4.95328,4.95328,0,1,1-.046-9.903,4.84822,4.84822,0,0,1,4.122,2.242h1.348a4.11957,4.11957,0,0,0-.752-1.16,6.29565,6.29565,0,0,0-4.734-2.132,6.00341,6.00341,0,1,0,6.144,6.473h-7.867v1.048"/><polyline class="cls-2" points="259.668 119.758 266.013 119.758 266.013 118.708 260.827 118.708 260.827 114.431 265.84 114.431 265.84 113.381 260.827 113.381 260.827 109.212 266.013 109.212 266.013 108.163 259.668 108.163 259.668 119.758"/><path class="cls-2" d="M105.822,139.675a4.9444,4.9444,0,0,1-.016-9.888,4.86012,4.86012,0,0,1,4.027,2.115h1.299a4.00713,4.00713,0,0,0-.735-1.096,6.08608,6.08608,0,0,0-4.575-2.069,5.99433,5.99433,0,1,0,.014,11.988,6.12722,6.12722,0,0,0,5.343-3.244h-1.3a5.05106,5.05106,0,0,1-4.057,2.194"/><path class="cls-2" d="M120.2,128.722a6.00308,6.00308,0,1,0,6.141,6.002,6.0822,6.0822,0,0,0-6.141-6.002m0,10.953a4.95209,4.95209,0,1,1,4.982-4.937A4.99591,4.99591,0,0,1,120.2,139.675Z"/><polyline class="cls-2" points="135.767 138.797 131.551 128.926 129.766 128.926 129.766 140.52 130.925 140.52 130.925 130.194 130.955 130.194 135.266 140.52 136.252 140.52 140.592 130.194 140.625 130.194 140.625 140.52 141.784 140.52 141.784 128.926 139.997 128.926 135.767 138.797"/><path class="cls-2" d="M151.932,129.599a5.2232,5.2232,0,0,0-2.994-.673H145.71V140.52h1.16v-4.668h2.068a5.22388,5.22388,0,0,0,2.994-.674,3.42184,3.42184,0,0,0,0-5.579m-1.067,4.905a4.30709,4.30709,0,0,1-1.99.298H146.87v-4.827h2.005a4.30656,4.30656,0,0,1,1.99.297,2.33478,2.33478,0,0,1,0,4.232Z"/><path class="cls-2" d="M163.285,136.149a4.8306,4.8306,0,0,1-.39,2.099,2.72835,2.72835,0,0,1-4.796,0,4.817,4.817,0,0,1-.391-2.099v-7.223h-1.16v7.223a5.99933,5.99933,0,0,0,.44,2.413,3.92943,3.92943,0,0,0,7.02,0,6.01409,6.01409,0,0,0,.437-2.413v-7.223h-1.16v7.223"/><polyline class="cls-2" points="167.292 129.975 169.956 129.975 169.956 140.52 171.115 140.52 171.115 129.975 173.762 129.975 173.762 128.926 167.292 128.926 167.292 129.975"/><rect class="cls-2" x="176.627" y="128.92601" width="1.159" height="11.594"/><polyline class="cls-2" points="189.785 138.546 189.755 138.546 183.283 128.926 181.716 128.926 181.716 140.52 182.876 140.52 182.876 130.32 182.908 130.32 189.785 140.52 190.947 140.52 190.947 128.926 189.785 128.926 189.785 138.546"/><path class="cls-2" d="M198.806,136.243h6.47a4.91649,4.91649,0,0,1-4.683,3.432,4.95377,4.95377,0,1,1-.048-9.904,4.85326,4.85326,0,0,1,4.122,2.242h1.347a4.14549,4.14549,0,0,0-.752-1.161,6.28849,6.28849,0,0,0-4.733-2.13,6.00338,6.00338,0,1,0,6.143,6.472h-7.866v1.049"/><path class="cls-2" d="M221.549,139.675a4.94441,4.94441,0,0,1-.015-9.888,4.86013,4.86013,0,0,1,4.027,2.115h1.3a4.03258,4.03258,0,0,0-.736-1.096,6.08815,6.08815,0,0,0-4.576-2.069,5.99431,5.99431,0,1,0,.014,11.988,6.12879,6.12879,0,0,0,5.344-3.244h-1.3a5.05143,5.05143,0,0,1-4.058,2.194"/><path class="cls-2" d="M235.927,128.722a6.00311,6.00311,0,1,0,6.142,6.002,6.082,6.082,0,0,0-6.142-6.002m0,10.953a4.9521,4.9521,0,1,1,4.983-4.937A4.99482,4.99482,0,0,1,235.927,139.675Z"/><polyline class="cls-2" points="253.546 138.546 253.516 138.546 247.044 128.926 245.478 128.926 245.478 140.52 246.637 140.52 246.637 130.32 246.669 130.32 253.546 140.52 254.706 140.52 254.706 128.926 253.546 128.926 253.546 138.546"/><path class="cls-2" d="M262.032,133.972c-1.176-.362-2.758-.627-2.758-2.179a2.02535,2.02535,0,0,1,2.1-2.022,2.09224,2.09224,0,0,1,2.054,2.1h1.159a3.2377,3.2377,0,0,0-6.472-.03c0,2.005,1.363,2.568,3.009,3.055,1.269.376,2.585.909,2.585,2.475a2.37456,2.37456,0,0,1-4.748-.093h-1.16a3.37615,3.37615,0,0,0,3.573,3.447,3.42845,3.42845,0,0,0,3.494-3.401c0-1.802-1.176-2.851-2.836-3.352"/><path class="cls-2" d="M273.625,128.722a6.00306,6.00306,0,1,0,6.14,6.002,6.08158,6.08158,0,0,0-6.14-6.002m0,10.953a4.95208,4.95208,0,1,1,4.981-4.937A4.99458,4.99458,0,0,1,273.625,139.675Z"/><path class="cls-2" d="M290.964,132.671a3.58923,3.58923,0,0,0-2.069-3.307,7.06,7.06,0,0,0-2.851-.438h-2.946V140.52h1.159V129.975h2.023a4.45354,4.45354,0,0,1,2.256.439,2.58989,2.58989,0,0,1,1.269,2.226,2.54615,2.54615,0,0,1-1.913,2.46,9.54254,9.54254,0,0,1-2.491.172l3.933,5.248h1.459l-3.276-4.323a3.52546,3.52546,0,0,0,3.447-3.526"/><polyline class="cls-2" points="293.262 129.975 295.926 129.975 295.926 140.52 297.086 140.52 297.086 129.975 299.733 129.975 299.733 128.926 293.262 128.926 293.262 129.975"/><rect class="cls-2" x="302.59601" y="128.92601" width="1.159" height="11.594"/><path class="cls-2" d="M314.423,136.149a4.8306,4.8306,0,0,1-.39,2.099,2.72835,2.72835,0,0,1-4.796,0,4.81675,4.81675,0,0,1-.391-2.099v-7.223h-1.159v7.223a5.99876,5.99876,0,0,0,.439,2.413,3.92944,3.92944,0,0,0,7.02,0,5.99728,5.99728,0,0,0,.437-2.413v-7.223h-1.16v7.223"/><polyline class="cls-2" points="325.529 138.797 321.312 128.926 319.528 128.926 319.528 140.52 320.687 140.52 320.687 130.194 320.719 130.194 325.027 140.52 326.014 140.52 330.354 130.194 330.386 130.194 330.386 140.52 331.545 140.52 331.545 128.926 329.758 128.926 325.529 138.797"/><path class="cls-2" d="M231.854,78.866a42.83219,42.83219,0,0,0,8.296-5.985,39.3255,39.3255,0,0,0,6.721-7.772L235.88,61.473a5.0652,5.0652,0,0,0-5.02,1.087,29.24285,29.24285,0,0,1-7.407,4.964,28.56967,28.56967,0,0,1-11.657,2.415,27.6154,27.6154,0,0,1-27.934-27.933,26.86985,26.86985,0,0,1,8.087-19.744,26.95473,26.95473,0,0,1,19.847-8.19,26.61713,26.61713,0,0,1,16.344,5.246,5.17371,5.17371,0,0,0,6.745-.331l6.736-6.595a43.54186,43.54186,0,0,0-13.443-9.136A41.09519,41.09519,0,0,0,211.796,0a39.72511,39.72511,0,0,0-29.614,12.392,40.05177,40.05177,0,0,0-12.391,29.614A40.28609,40.28609,0,0,0,182.182,71.62a40.29078,40.29078,0,0,0,29.614,12.392,38.36289,38.36289,0,0,0,10.501-1.366,36.30269,36.30269,0,0,0,9.557-3.78"/><g class="cls-3"><path class="cls-2" d="M334.296,65.109l-10.991-3.636a5.06343,5.06343,0,0,0-5.019,1.087,29.24772,29.24772,0,0,1-7.408,4.964,28.56978,28.56978,0,0,1-11.657,2.415,27.61371,27.61371,0,0,1-27.933-27.933,26.87294,26.87294,0,0,1,8.086-19.744,26.95794,26.95794,0,0,1,19.847-8.19,26.62,26.62,0,0,1,16.345,5.246,5.17236,5.17236,0,0,0,6.744-.331l6.736-6.595a43.53768,43.53768,0,0,0-13.442-9.136A41.09681,41.09681,0,0,0,299.221,0a39.72453,39.72453,0,0,0-29.613,12.392,40.05366,40.05366,0,0,0-12.393,29.614A40.28793,40.28793,0,0,0,269.608,71.62a40.28764,40.28764,0,0,0,29.613,12.391,38.41335,38.41335,0,0,0,10.502-1.365,36.35076,36.35076,0,0,0,9.557-3.78,42.82616,42.82616,0,0,0,8.295-5.985,39.25965,39.25965,0,0,0,6.721-7.772"/><path class="cls-2" d="M42.447,32.275a5.08843,5.08843,0,0,0,4.544,2.8H59.513L42.006,0,0,84.012H15.542l7.141-14.073,6.931-13.861L42.006,31.399l.441.876"/></g><path class="cls-4" d="M63.234,49.042H50.982L61.421,70.044H43.608a5.08713,5.08713,0,0,0-4.53,2.772L33.354,84.012H84.012L67.776,51.837a5.08784,5.08784,0,0,0-4.542-2.795"/><path class="cls-2" d="M155.071,70.044H109.268a5.08771,5.08771,0,0,0-4.544,2.798L99.098,84.011h55.973V70.044"/><g class="cls-3"><path class="cls-2" d="M142.669,46.243l5.626-11.168H113.117l.053-.053V14.072h41.901V0H99.098V49.042h39.027a5.08865,5.08865,0,0,0,4.544-2.799"/></g></svg>