<?xml version="1.0" encoding="UTF-8" standalone="no"?>
<svg
   xmlns:dc="http://purl.org/dc/elements/1.1/"
   xmlns:cc="http://creativecommons.org/ns#"
   xmlns:rdf="http://www.w3.org/1999/02/22-rdf-syntax-ns#"
   xmlns:svg="http://www.w3.org/2000/svg"
   xmlns="http://www.w3.org/2000/svg"
   viewBox="0 0 205.28869 46.769833"
   height="46.769833"
   width="205.2887"
   xml:space="preserve"
   id="svg2"
   version="1.1"><metadata
     id="metadata8"><rdf:RDF><cc:Work
         rdf:about=""><dc:format>image/svg+xml</dc:format><dc:type
           rdf:resource="http://purl.org/dc/dcmitype/StillImage" /></cc:Work></rdf:RDF></metadata><defs
     id="defs6" /><g
     transform="matrix(1.3333333,0,0,-1.3333333,8.0483883e-5,46.769832)"
     id="g10"><g
       transform="scale(0.1)"
       id="g12"><path
         id="path14"
         style="fill:#3d1152;fill-opacity:1;fill-rule:nonzero;stroke:none"
         d="M 680.383,3.95313 V 45.7031 c 0,2.1797 1.765,3.9453 3.949,3.9453 h 224.945 c 2.184,0 3.953,-1.7656 3.953,-3.9453 V 3.95313 C 913.23,1.76953 911.461,0 909.277,0 H 684.332 c -2.184,0 -3.949,1.76953 -3.949,3.95313" /><path
         id="path16"
         style="fill:#3d1152;fill-opacity:1;fill-rule:nonzero;stroke:none"
         d="m 680.383,154.512 v 41.75 c 0,2.179 1.765,3.949 3.949,3.949 h 224.945 c 2.184,0 3.953,-1.77 3.953,-3.949 v -41.75 c 0,-2.188 -1.769,-3.953 -3.953,-3.953 H 684.332 c -2.184,0 -3.949,1.765 -3.949,3.953" /><path
         id="path18"
         style="fill:#3d1152;fill-opacity:1;fill-rule:nonzero;stroke:none"
         d="m 680.383,305.074 v 41.746 c 0,2.184 1.765,3.953 3.949,3.953 h 224.945 c 2.184,0 3.953,-1.769 3.953,-3.953 v -41.746 c 0,-2.183 -1.769,-3.957 -3.953,-3.957 H 684.332 c -2.184,0 -3.949,1.774 -3.949,3.957" /><path
         id="path20"
         style="fill:#3d1152;fill-opacity:1;fill-rule:nonzero;stroke:none"
         d="M 376.129,348.352 471.734,129.66 c 1.387,-3.137 5.844,-3.137 7.231,0 l 94.5,218.692 c 0.629,1.429 2.043,2.336 3.613,2.336 h 46 c 2.86,0 4.774,-2.961 3.61,-5.575 L 478.977,2.34375 c -1.399,-3.125 -5.825,-3.125 -7.219,0 L 322.938,345.148 c -1.165,2.61 0.746,5.555 3.605,5.555 h 45.969 c 1.566,0 2.984,-0.922 3.617,-2.351" /><path
         id="path22"
         style="fill:#3d1152;fill-opacity:1;fill-rule:nonzero;stroke:none"
         d="m 157.508,124.934 41.527,96.105 c 1.387,3.145 5.844,3.145 7.231,0 l 42.023,-96.105 z M 355.07,5.55859 206.246,348.359 c -1.391,3.125 -5.824,3.125 -7.223,0.004 L 102.746,124.934 H 3.50391 c -2.515629,0 -4.210941,-2.579 -3.214847,-4.895 L 18.8242,77.1875 c 0.5039,-1.1602 1.6446,-1.9023 2.9063,-1.9023 H 81.3477 L 51.3203,5.59766 c -1.168,-2.61719 0.7422,-5.5781287 3.6094,-5.5781287 h 45.9963 c 1.566,0 2.98,0.9101567 3.617,2.3359387 L 136.051,75.2852 H 269.992 L 301.875,2.35547 C 302.508,0.929688 303.926,0 305.488,0 h 45.969 c 2.859,0 4.773,2.94922 3.613,5.55859" /><path
         id="path24"
         style="fill:#3d1152;fill-opacity:1;fill-rule:nonzero;stroke:none"
         d="m 1015.88,348.352 95.61,-218.692 c 1.38,-3.137 5.84,-3.137 7.22,0 l 94.5,218.692 c 0.63,1.429 2.05,2.421 3.61,2.421 h 46.16 c 2.87,0 4.78,-2.882 3.61,-5.5 L 1118.72,2.34375 c -1.39,-3.125 -5.82,-3.125 -7.21,0 L 962.684,345.148 c -1.164,2.61 0.75,5.555 3.613,5.555 h 45.963 c 1.56,0 2.99,-0.922 3.62,-2.351" /><path
         id="path26"
         style="fill:#3d1152;fill-opacity:1;fill-rule:nonzero;stroke:none"
         d="m 1341.73,124.934 41.56,96.175 c 1.39,3.137 5.84,3.137 7.23,0 l 42.05,-96.175 z M 1539.32,5.625 1390.5,348.43 c -1.39,3.125 -5.83,3.125 -7.22,0 L 1235.41,5.49609 C 1234.24,2.88281 1236.15,0 1239.02,0 h 46.16 c 1.56,0 2.98,0.988281 3.62,2.42188 l 31.47,72.86332 h 134 l 31.86,-72.86332 c 0.63,-1.433599 2.05,-2.3515675 3.61,-2.3515675 h 45.97 c 2.86,0 4.77,2.9374975 3.61,5.5546875" /></g></g></svg>