<svg id="图层_1" data-name="图层 1" xmlns="http://www.w3.org/2000/svg" viewBox="0 0 595.27538 199.89433"><defs><style>.cls-1{fill:#2319dc;}.cls-2{fill:#e11408;}</style></defs><title>baidu</title><path class="cls-1" d="M233.48149,103.81454c20.23793-4.34943,17.48577-28.54046,16.87812-33.83069C249.36319,61.83,239.777,47.58764,226.75886,48.71111c-16.38191,1.46742-18.77351,25.1318-18.77351,25.1318C205.76461,84.78792,213.28738,108.16194,233.48149,103.81454Z"/><path class="cls-1" d="M271.053,63.24364c11.17849,0,20.2115-12.86562,20.2115-28.77476,0-15.89247-9.033-28.75529-20.2115-28.75529-11.16292,0-20.22234,12.86282-20.22234,28.75529C250.83061,50.378,259.89,63.24364,271.053,63.24364Z"/><path class="cls-1" d="M319.19823,65.14484c14.9477,1.94042,24.55136-14.0059,26.46235-26.092,1.95-12.06845-7.69284-26.093-18.2715-28.50218-10.60407-2.42983-23.838,14.54913-25.04176,25.622C300.90531,49.70773,304.28574,63.22523,319.19823,65.14484Z"/><path class="cls-1" d="M378.43221,85.4406c0-5.77984-4.80084-23.19438-22.61515-23.19438-17.84932,0-20.22913,16.43573-20.22913,28.05082,0,11.08868.932,26.564,23.10154,26.0736C380.859,115.882,378.43221,91.25645,378.43221,85.4406Z"/><path class="cls-1" d="M254.972,145.88888c-.59,1.70192-1.914,6.05135-.77092,9.83912,2.26475,8.49861,9.64088,8.87877,9.64088,8.87877H274.442V138.69545H263.08959A12.44557,12.44557,0,0,0,254.972,145.88888Z"/><path class="cls-1" d="M355.81706,136.19539s-23.12094-17.88554-36.61883-37.21989C300.90531,70.47229,274.913,82.07,266.22269,96.56629c-8.653,14.49631-22.14213,23.66437-24.06274,26.093-1.93942,2.39177-27.922,16.41512-22.15294,42.03932,5.763,25.60459,26.02157,25.11218,26.02157,25.11218a113.54413,113.54413,0,0,0,32.253-2.40821,68.04089,68.04089,0,0,1,32.245.96117s40.47208,13.55275,51.54133-12.54225C373.13116,149.7303,355.81706,136.19539,355.81706,136.19539Zm-69.25379,38.82977H260.25239c-11.3602-2.26355-15.88951-10.01982-16.462-11.34258-.56084-1.34037-3.778-7.57359-2.07508-18.17466,4.91129-15.8915,18.91919-17.03258,18.91919-17.03258h14.00489V111.26208l11.92383.17968Zm49.00506-.17968H305.29c-11.73153-3.0267-12.28438-11.36221-12.28438-11.36221V129.99738L305.29,129.7981v30.09765c.75032,3.20838,4.7384,3.78683,4.7384,3.78683h12.47586v-33.6852h13.06411Z"/><path class="cls-2" d="M479.76011,108.03512v-14.133H386.78532l-.12706,14.33225h39.96405l-3.74178,8.5534H388.90341v70.83246h80.74483c8.44316,0,7.70265-8.51719,7.70265-8.51719V116.78781H443.29356l2.97963-8.75269Zm-18.04879,64.45377s-.98864,2.35659-2.35441,2.35659h-53.589V158.33653h55.9434Zm-.10927-43.28965v15.49393H405.76792V129.19924Z"/><path class="cls-2" d="M585.99629,94.2881H549.52191V87.14352H532.4073v6.78305H490.55748v93.56482h15.05913V105.98826h80.37968Zm-9.84415,19.346v-5.39967h-14.7054v5.39967H531.2114v-5.217H517.26992v5.217h-9.42377l.18748,10.60107h9.23629v19.89619h50.88285c7.06538,0,7.99937-7.44854,7.99937-7.44854V124.23515h10.77814V113.63408Zm-14.7054,17.84933s-1.29534,2.40921-2.97185,2.40921H531.03952v-9.85675h30.40722Zm-51.53532,27.17945,23.42987,13.5721c-1.85838,2.04869-9.85775,4.63958-9.85775,4.63958H507.84615v10.4362h21.21794c6.32287-1.30335,18.04861-7.24726,18.04861-7.24726,4.84764,4.45688,14.15036,6.30626,14.15036,6.30626h24.17242V175.95035H567.207a27.61669,27.61669,0,0,1-9.30272-3.53469l27.53123-15.81807V148.045H509.91142Zm48.73334-.18067L545.25454,165.531l-12.2768-7.04877Z"/><path class="cls-2" d="M179.90991,91.29366V109.1596h20.27435V91.29366Zm0,95.81757h20.27435V116.96849H179.90991Z"/><path class="cls-2" d="M146.903,117.04169l-43.28885-.12683v14.74922h37.9536s9.05061,2.22854,9.05061,7.95456V144.819H116.26208s-13.5165,1.25052-17.85813,17.37752c-.75031,7.557.25591,11.27135.75332,12.64893.49921,1.37458,4.45688,10.29134,16.24406,12.52185h54.69584V137.11958S167.49648,119.88672,146.903,117.04169Zm3.71536,56.44379H122.9573a9.15691,9.15691,0,0,1-5.20919-4.60151,6.56315,6.56315,0,0,1-.11825-5.07434,10.42767,10.42767,0,0,1,5.95171-5.32744h27.03679Z"/><path class="cls-2" d="M93.94788,162.50428c.59905-17.0872-14.73262-22.99312-14.73262-22.99312,12.97407-6.77723,11.31818-23.86443,11.31818-23.86443C89.12664,89.4813,57.17177,90.69481,57.17177,90.69481H7.778v97.50488h55.7647C96.31027,188.09127,93.94788,162.50428,93.94788,162.50428Zm-31.51229,7.5754v.03521H29.0143V149.09623H62.25592l1.12247.21789s6.33387,1.15869,8.63465,6.84969c0,0,1.32275,5.343-1.54086,9.31252C70.47218,165.47633,68.36209,169.15449,62.43559,170.07968Zm7.086-45.21046a11.34245,11.34245,0,0,1-8.20846,5.01871H29.0143V109.70282H61.16746s6.99435-.30793,9.30472,5.23741C70.47218,114.94023,71.85956,120.82851,69.52158,124.86922Z"/></svg>