<?xml version="1.0" encoding="utf-8"?>
<!-- Generator: Adobe Illustrator 23.0.2, SVG Export Plug-In . SVG Version: 6.00 Build 0)  -->
<svg version="1.1" id="Layer_1" xmlns="http://www.w3.org/2000/svg" xmlns:xlink="http://www.w3.org/1999/xlink" x="0px" y="0px"
	 viewBox="0 0 400 245" style="enable-background:new 0 0 400 245;" xml:space="preserve">
<style type="text/css">
	.st0{fill-rule:evenodd;clip-rule:evenodd;fill:#EC1C24;}
	.st1{fill-rule:evenodd;clip-rule:evenodd;fill:#231F20;}
	.st2{fill:#434343;}
	.st3{fill:#898989;}
	.st4{fill:url(#SVGID_1_);}
	.st5{fill:url(#SVGID_2_);}
	.st6{fill:#B36E01;}
	.st7{fill:url(#SVGID_3_);}
	.st8{fill:url(#SVGID_4_);}
	.st9{fill:url(#SVGID_5_);}
	.st10{fill:#FAF8D5;}
	.st11{fill:#313130;}
	.st12{fill:#86C440;stroke:#58B847;stroke-width:1.5531;stroke-miterlimit:10;}
	.st13{fill:#D1DD26;}
	.st14{fill:#352E29;}
	.st15{fill:#86C440;stroke:#58B847;stroke-width:0.6761;}
	.st16{fill:#231916;}
	.st17{fill:#E50013;}
	.st18{fill:#3E608B;}
	.st19{fill:#6E9C3A;}
	.st20{fill:#3693C3;}
	.st21{fill:#0B8B5D;}
	.st22{fill:#E1903D;}
	.st23{fill:#58749B;}
	.st24{fill:#0066A4;}
	.st25{fill:#402210;}
	.st26{clip-path:url(#SVGID_7_);fill:url(#SVGID_8_);}
	.st27{fill:#FFFFFF;}
	.st28{fill:#6A2811;}
	.st29{fill:#1EBAD6;}
	.st30{fill:#161629;}
	.st31{fill:#C0C0C8;}
	.st32{opacity:0.9;}
	.st33{fill-rule:evenodd;clip-rule:evenodd;fill:#295C82;}
	.st34{fill-rule:evenodd;clip-rule:evenodd;fill:#193A53;}
	.st35{fill-rule:evenodd;clip-rule:evenodd;fill:url(#SVGID_9_);}
	.st36{fill-rule:evenodd;clip-rule:evenodd;fill:url(#SVGID_10_);}
	.st37{fill-rule:evenodd;clip-rule:evenodd;fill:url(#SVGID_11_);}
	.st38{fill-rule:evenodd;clip-rule:evenodd;fill:url(#SVGID_12_);}
	.st39{fill-rule:evenodd;clip-rule:evenodd;fill:url(#SVGID_13_);}
	.st40{fill:#EC1C24;}
	.st41{fill:#231F20;}
	.st42{fill-rule:evenodd;clip-rule:evenodd;fill:#ED1C24;}
	.st43{fill-rule:evenodd;clip-rule:evenodd;fill:#C3C1C4;}
	.st44{fill:#ED1C24;}
	.st45{fill:#E11F26;}
	.st46{fill:#CECDCF;}
	.st47{fill:#19171B;}
	.st48{fill:#E49C23;}
	.st49{fill:#3E3A39;}
	.st50{enable-background:new    ;}
	.st51{fill:#EB6224;}
	.st52{fill:#4D4E4E;}
	.st53{fill:#217CB9;}
	.st54{fill:#58595B;}
	.st55{fill:#B38634;}
	.st56{fill:#A7A9AC;}
	.st57{fill:#A89A75;}
	.st58{fill:#2ED8CB;}
	.st59{fill:none;}
	.st60{fill:#65B1B8;}
	.st61{fill:#61D8D3;}
	.st62{fill:#79E0FA;}
	.st63{fill:#666766;}
	.st64{fill:url(#SVGID_14_);}
	.st65{fill:url(#SVGID_15_);}
	.st66{fill:url(#SVGID_16_);}
	.st67{fill:url(#SVGID_17_);}
	.st68{fill:url(#SVGID_18_);}
	.st69{fill:url(#SVGID_19_);}
	.st70{fill:url(#SVGID_20_);}
	.st71{fill:url(#SVGID_21_);}
	.st72{fill:url(#SVGID_22_);}
	.st73{fill:url(#SVGID_23_);}
	.st74{fill:url(#SVGID_24_);}
	.st75{fill:url(#SVGID_25_);}
	.st76{fill:url(#SVGID_26_);}
	.st77{fill:url(#SVGID_27_);}
	.st78{opacity:0.79;fill:#A3A5A8;enable-background:new    ;}
	.st79{fill:#86888B;}
	.st80{fill:#D2232A;}
	.st81{fill:#00478A;}
	.st82{fill:#009FE8;}
	.st83{fill:#005BAB;}
	.st84{fill-rule:evenodd;clip-rule:evenodd;fill:none;}
	.st85{fill-rule:evenodd;clip-rule:evenodd;}
	.st86{fill:#FF9900;}
	.st87{fill:#666666;}
</style>
<g>
	<rect x="114.08" y="39.19" class="st10" width="168.28" height="95.4"/>
	<path class="st11" d="M288.58,146.52c-3.67,0-173.45,0-177.43,0c-3.98,0-6.12-2.5-6.12-6.17c0-3.67,0-99.4,0-102.77
		s1.99-5.76,5.66-5.76c6.12,0,174.52,0,178.19,0c6.07,0,6.07,4.23,6.07,5.76s0,99.11,0,102.77
		C294.96,144.01,292.26,146.52,288.58,146.52z M117.64,134.6h164.72V43.75H117.64V134.6z"/>
	<path class="st12" d="M285.2,39.19c-22.82,17.14-40.76,22.77-60.5,16.73c-21.6-6.62-46.9-16.73-66.94,2.97
		c-18.08,17.78-3.87,32.87-11.94,45.63c-8.07,12.76-27.78,15.94-30.56,25.22c-2.78,9.29,7.58,9.99,10.05,5.38
		c4.07-7.6,13.19-19.8,28.71-20.45c12.35-0.52,16.48,17.24,48.56,15.83C242.41,128.76,278.45,68.24,285.2,39.19z"/>
	<g>
		<g>
			<path class="st11" d="M27.84,185.9c0.95,0.32,1.68,0.53,2.38,0.8c5.05,1.88,7.86,5.89,7.97,11.33c0.12,5.97-2.62,10.48-8.04,12.5
				c-2.53,0.94-5.3,1.56-7.98,1.66c-6.42,0.24-12.85,0.05-19.27,0.11c-1.51,0.01-2-0.57-2-2.05c0.04-15.27,0.04-30.54,0-45.8
				c0-1.52,0.53-2.02,2.02-2c5.27,0.07,10.54,0,15.82,0.06c3.51,0.04,6.83,0.78,9.88,2.64c7.99,4.88,6.75,17.13-0.2,20.31
				C28.27,185.5,28.16,185.63,27.84,185.9z M11.56,191.46c0,4.45,0,8.06,0,11.93c3.71,0,7.34,0.27,10.91-0.08
				c3.35-0.32,5.02-2.72,4.96-6.08c-0.05-2.96-2-5.69-5.13-5.69C18.33,191.55,15.54,191.46,11.56,191.46z M11.52,182.6
				c2.35,0,4.54,0.09,6.72-0.02c3.04-0.16,4.89-1.92,5.18-4.72c0.35-3.34-0.94-5.81-3.96-6.43c-2.56-0.53-5.26-0.38-7.93-0.54"/>
			<path class="st11" d="M223.47,207.84c-5.37,5.65-14.34,6.82-20.2,2.79c-3.6-2.48-4.9-6.18-5.04-10.23
				c-0.23-6.69-0.1-13.4-0.15-20.1c-0.01-1.13,0.51-1.59,1.59-1.59c2.09,0.01,4.17,0.03,6.26-0.01c1.36-0.03,1.82,0.59,1.81,1.91
				c-0.04,5.49-0.04,10.98,0,16.47c0.01,1.14,0.11,2.3,0.32,3.43c0.47,2.56,1.97,3.9,4.43,4.11c2.59,0.22,4.62-0.93,5.43-3.32
				c0.41-1.22,0.65-2.56,0.66-3.86c0.07-5.55,0.08-11.09,0.01-16.64c-0.02-1.59,0.54-2.19,2.11-2.11c1.86,0.08,3.74,0.08,5.6,0
				c1.53-0.07,2,0.58,1.99,2.05c-0.06,5.22-0.06,10.43,0,15.65c0.02,1.47,0.16,2.98,0.55,4.38c0.78,2.81,2.92,4.15,5.71,3.84
				c2.62-0.3,4.28-1.95,4.47-4.84c0.19-2.73,0.14-5.49,0.16-8.23c0.02-3.62,0.05-7.25-0.02-10.87c-0.02-1.42,0.52-2.01,1.93-1.97
				c1.98,0.05,3.95,0.04,5.93,0c1.25-0.02,1.78,0.5,1.77,1.77c-0.07,6.64,0.09,13.3-0.19,19.93c-0.33,7.96-5.17,12.36-13.14,12.56
				C230.69,213.08,226.6,211.72,223.47,207.84z"/>
			<path class="st11" d="M357.62,178.52c0-4.46,0-8.9,0-13.34c0-2.72,0-2.72,2.72-2.72c1.7,0,3.41,0.04,5.11-0.01
				c1.23-0.04,1.81,0.39,1.81,1.7c-0.02,15.49-0.02,30.97-0.01,46.46c0,0.95-0.29,1.68-1.36,1.65c-5.92-0.19-11.9,0.06-17.73-0.76
				c-6.62-0.92-11.37-4.77-12.99-11.62c-1.6-6.79,0.41-16.1,8.47-19.91c4.21-1.99,8.64-2.3,13.18-1.46
				C357.03,178.55,357.25,178.52,357.62,178.52z M357.62,204.4c0-4.91,0-9.46,0-14c0-3.99,0-3.99-4.02-4.06
				c-4.71-0.08-8.2,2.85-8.79,7.38c-0.72,5.51,1.44,8.95,6.53,10.04C353.29,204.18,355.33,204.18,357.62,204.4z"/>
			<path class="st11" d="M166.14,182.01c4.36-3.9,9.13-4.62,14.26-3.4c5.45,1.29,8.94,5.23,9.15,10.85
				c0.26,7.08,0.13,14.17,0.18,21.25c0.01,1.09-0.47,1.59-1.6,1.57c-2.03-0.05-4.07-0.07-6.1,0.01c-1.49,0.06-2.05-0.5-2.03-2.01
				c0.06-5.05,0.04-10.11,0.01-15.16c0-1.09-0.06-2.2-0.22-3.28c-0.48-3.21-1.72-4.76-4.13-5.28c-3.1-0.67-6.07,0.24-7.48,2.81
				c-1,1.82-1.8,3.95-1.92,5.99c-0.29,4.87-0.12,9.77-0.13,14.66c-0.01,2.08-0.17,2.24-2.27,2.25c-1.81,0-3.63-0.07-5.44,0.02
				c-1.54,0.08-2.02-0.57-2.02-2.03c0.04-6.97,0.02-13.95,0.02-20.92c0-8.18,0-16.37,0-24.55c0-2.22,0.12-2.33,2.32-2.34
				c1.7,0,3.41,0,5.11,0c2.11,0,2.27,0.15,2.27,2.23c0.01,5.05,0,10.11,0,15.16C166.14,180.43,166.14,181.03,166.14,182.01z"/>
			<path class="st11" d="M272.11,212.96c-8.47-0.03-14.95-4.42-17.21-11.66c-3.97-12.69,5.45-24.35,18.7-23.16
				c8.86,0.8,15.03,6.01,16.34,13.82C291.95,203.92,284.25,212.99,272.11,212.96z M280.7,195.66c-0.09-3.39-1.05-6.33-4.1-8.15
				c-3.99-2.39-9.29-1.18-11.6,2.6c-2.68,4.37-1.51,11.01,2.45,13.42c2.83,1.72,5.84,1.84,8.77,0.33
				C279.52,202.16,280.54,199.1,280.7,195.66z"/>
			<path class="st11" d="M312.43,212.96c-8.47-0.02-14.95-4.41-17.22-11.66c-3.97-12.69,5.44-24.35,18.69-23.16
				c8.86,0.8,15.03,6.01,16.35,13.81C332.27,203.92,324.57,212.99,312.43,212.96z M320.99,196.15c0.02-4.15-1.47-7.13-4.07-8.65
				c-4.01-2.35-9.29-1.16-11.6,2.62c-2.68,4.37-1.5,11.01,2.46,13.42c2.83,1.72,5.84,1.83,8.77,0.32
				C319.84,202.15,320.85,199.09,320.99,196.15z"/>
			<path class="st11" d="M52.72,198.42c0.39,3.42,2.72,5.9,6.08,6.59c3.43,0.7,6.64,0.04,9.72-1.53c2.04-1.04,2.05-1.03,3.12,0.94
				c0.53,0.96,1.02,1.94,1.59,2.88c0.67,1.11,0.54,1.96-0.65,2.58c-7.08,3.68-14.39,4.51-21.63,0.85
				c-6.65-3.36-8.89-9.48-8.58-16.53c0.3-6.55,3.21-11.85,9.41-14.5c6.19-2.64,12.44-2.47,18.12,1.64c3.27,2.37,4.65,5.89,5.22,9.74
				c0.26,1.79,0.25,3.61,0.41,5.41c0.12,1.42-0.46,1.95-1.9,1.94c-6.37-0.05-12.74-0.02-19.12-0.02
				C53.93,198.42,53.33,198.42,52.72,198.42z M52.58,192c4.55,0,9.01,0,13.46,0c-0.1-3.81-2.41-6.12-6.21-6.3
				C55.8,185.51,53.22,187.71,52.58,192z"/>
			<path class="st11" d="M91.25,198.42c0.72,4.44,4.09,7.16,8.85,6.81c2.45-0.18,4.9-1.04,7.22-1.93c1.43-0.54,2.21-0.53,2.83,0.92
				c0.41,0.95,0.98,1.84,1.47,2.76c0.96,1.79,0.91,2.44-0.99,3.18c-2.73,1.07-5.55,2.16-8.43,2.57c-5.72,0.8-11.27,0.01-15.73-4.08
				c-5.38-4.94-6.59-11.28-4.94-18.1c1.56-6.46,5.72-10.73,12.36-11.98c6.48-1.22,12.57-0.41,16.95,5.23
				c3.07,3.95,3.28,8.73,3.23,13.49c-0.01,1.16-0.95,1.14-1.81,1.14c-6.37-0.01-12.74,0-19.12,0
				C92.55,198.42,91.95,198.42,91.25,198.42z M104.6,192.05c-0.05-3.86-2.49-6.27-6.33-6.36c-4.09-0.1-6.74,2.27-7.09,6.36
				C95.62,192.05,100.04,192.05,104.6,192.05z"/>
			<path class="st11" d="M384.84,213.17c-3.76-0.21-7.34-0.84-10.72-2.47c-1.34-0.64-1.87-1.33-1-2.78
				c0.76-1.26,1.38-2.62,1.93-3.99c0.57-1.4,1.34-1.5,2.54-0.78c2.44,1.46,5.03,2.46,7.94,2.25c0.59-0.04,1.33-0.02,1.73-0.35
				c0.67-0.54,1.46-1.3,1.56-2.05c0.09-0.67-0.49-1.78-1.1-2.13c-1.7-0.97-3.58-1.63-5.37-2.44c-1.6-0.72-3.25-1.35-4.75-2.24
				c-3.4-2.03-4.5-5.29-4.2-9.03c0.33-4.13,2.78-6.81,6.59-8c5.93-1.84,11.8-1.44,17.49,1.16c1.12,0.51,1.46,1.17,0.82,2.32
				c-0.69,1.24-1.38,2.51-1.88,3.84c-0.57,1.5-1.25,1.58-2.74,1.04c-2.28-0.82-4.72-1.26-7.12-1.64c-1.2-0.19-2.46,0.2-2.83,1.68
				c-0.4,1.6,0.7,2.35,1.88,2.86c2.26,0.99,4.6,1.77,6.85,2.79c5.04,2.27,6.93,5.18,6.58,9.87c-0.33,4.34-3.44,7.88-8.25,9.14
				C388.88,212.72,386.84,212.86,384.84,213.17z"/>
			<path class="st11" d="M138.04,212.96c-4.09,0.01-8-0.76-11.43-3.06c-5.65-3.78-7.63-9.42-7.04-15.86
				c0.91-9.95,8.67-16.13,19.3-15.85c3.59,0.1,6.91,1,9.96,2.93c0.99,0.63,1.2,1.3,0.62,2.31c-0.76,1.33-1.5,2.68-2.14,4.07
				c-0.62,1.35-1.44,1.43-2.6,0.72c-2.36-1.43-4.91-2.14-7.69-1.76c-4.93,0.67-8.18,4.92-7.63,9.98c0.59,5.43,4.5,8.93,9.63,8.31
				c2.07-0.25,4.12-1.01,6.09-1.76c1.21-0.46,1.91-0.45,2.47,0.83c0.54,1.25,1.13,2.51,1.88,3.65c0.94,1.42,0.37,2.14-0.87,2.86
				C145.32,212.25,141.78,212.96,138.04,212.96z"/>
		</g>
	</g>
	<path class="st13" d="M149.94,105.74c5.77-16.57,24.63-31.58,39.79-32.62c15.16-1.04,31.73,7.51,48.69,4.27
		c16.66-3.18,27.41-15.14,33.7-21.87c-8.56,12.94-17.73,25.81-35.65,27.44c-17.08,1.55-32.03-6.93-51.07-3.63
		C170.61,81.89,157.82,92.07,149.94,105.74z"/>
</g>
</svg>
