<svg xmlns="http://www.w3.org/2000/svg" viewBox="0 0 410.3333 192.33333"><defs><style>.cls-1{fill:#fbf9d6;}.cls-2{fill:#323130;}.cls-3{fill:#87c540;stroke:#58b947;stroke-miterlimit:10;}.cls-4{fill:#d2de26;}</style></defs><title>beechwoods</title><g id="Layer_5" data-name="Layer 5"><rect class="cls-1" x="118.45383" y="11.55379" width="170.16116" height="96.46894"/></g><g id="Layer_4" data-name="Layer 4"><path class="cls-2" d="M294.9085,120.07864H115.49789c-4.02387,0-6.18971-2.52463-6.18971-6.23762V9.92552c0-3.40353,2.01115-5.821,5.72406-5.821H295.21789c6.14039,0,6.14039,4.27389,6.14039,5.821V113.841A6.102,6.102,0,0,1,294.9085,120.07864ZM122.05162,108.02273H288.615V16.16045H122.05162Z"/><path class="cls-3" d="M291.49068,11.55379c-23.07715,17.327-41.2172,23.02893-61.1743,16.913-21.842-6.69351-47.4292-16.913-67.68547,3.0073-18.2814,17.97814-3.916,33.23261-12.07537,46.13813-8.15923,12.90551-28.09025,16.114-30.90391,25.5062s7.66453,10.1,10.1597,5.436c4.11134-7.68526,13.33771-20.02336,29.031-20.68061,12.48494-.523,16.65973,17.43146,49.10726,16.01207C248.22244,102.12419,284.6618,40.9268,291.49068,11.55379Z"/></g><g id="Layer_1" data-name="Layer 1"><path class="cls-2" d="M31.25067,159.89889c.9605.32007,1.69376.53962,2.40926.80691a11.77928,11.77928,0,0,1,8.05637,11.45581c.11637,6.03612-2.6475,10.60179-8.13206,12.636a26.44629,26.44629,0,0,1-8.07082,1.67585c-6.48872.24122-12.99267.05543-19.49.1082-1.529.01241-2.02481-.57573-2.0212-2.07506q.05442-23.1585-.0022-46.317c-.00408-1.53641.53993-2.04365,2.04507-2.025,5.33065.06615,10.66288.00108,15.99369.05589a19.09176,19.09176,0,0,1,9.99512,2.67009c8.08149,4.93632,6.82134,17.32413-.20558,20.53795A4.0659,4.0659,0,0,0,31.25067,159.89889Zm-16.4664,5.62654v12.06719c3.74652,0,7.41718.27,11.028-.07852,3.38845-.32682,5.07891-2.7488,5.01813-6.1451-.05339-2.98908-2.02434-5.74982-5.18868-5.74982C21.63435,165.61918,18.81284,165.52543,14.78427,165.52543Zm-.04178-8.96144c2.37613,0,4.58908.09408,6.79088-.02261,3.06933-.16254,4.94228-1.94566,5.2413-4.76811.35728-3.374-.95454-5.878-4.0091-6.50592a56.38059,56.38059,0,0,0-8.02308-.54356"/><path class="cls-2" d="M229.06754,182.08245c-5.432,5.70945-14.50409,6.89123-20.42289,2.82386-3.64334-2.50364-4.958-6.25221-5.09885-10.34627-.2329-6.76732-.10412-13.54674-.15108-20.32082-.008-1.14.51229-1.61161,1.61146-1.60408,2.11009.01461,4.221.03424,6.33026-.00816,1.37354-.02764,1.83777.59458,1.8274,1.92932q-.06477,8.32908-.00267,16.6591a19.80136,19.80136,0,0,0,.32525,3.46808,4.58451,4.58451,0,0,0,4.47616,4.15186,4.92048,4.92048,0,0,0,5.4866-3.35689,12.88317,12.88317,0,0,0,.67216-3.89838q.10954-8.41154.008-16.82526c-.01994-1.60329.54385-2.2095,2.1305-2.13773,1.8841.08528,3.77794.08292,5.66234.00063,1.54535-.06753,2.02575.58532,2.0088,2.0757q-.08976,7.91211.00219,15.826a17.55414,17.55414,0,0,0,.55124,4.43219,4.99877,4.99877,0,0,0,5.772,3.88,4.81041,4.81041,0,0,0,4.52421-4.89611c.18956-2.76529.14087-5.54816.15752-8.32366.022-3.66485.04806-7.33081-.01586-10.99488-.025-1.43682.52218-2.02748,1.94691-1.99183,1.9978.04994,3.99843.03895,5.99685.00361,1.25921-.02214,1.80307.50114,1.78971,1.78752-.06925,6.71785.088,13.44371-.18735,20.15214-.33011,8.046-5.22324,12.50316-13.28259,12.69806C236.36412,187.383,232.23126,186.0091,229.06754,182.08245Z"/><path class="cls-2" d="M364.71381,152.43412c0-4.51324-.00047-9.00278.00015-13.4923.00032-2.753.0011-2.75336,2.75022-2.75413,1.72155-.00047,3.4442.03942,5.16418-.01272,1.24162-.03764,1.83415.3951,1.83243,1.72124q-.032,23.49025-.0088,46.98073c.00047.96427-.29085,1.70318-1.37432,1.66832-5.98146-.19176-12.029.06-17.9249-.76357-6.69021-.93458-11.50026-4.821-13.13512-11.75011-1.61884-6.862.41822-16.28266,8.56662-20.12828a21.37291,21.37291,0,0,1,13.33064-1.47405A5.2766,5.2766,0,0,0,364.71381,152.43412Zm0,26.17287v-14.1575c0-4.0358,0-4.0358-4.06941-4.10678-4.75853-.08292-8.29335,2.88307-8.8906,7.46021-.727,5.5722,1.45772,9.0486,6.60116,10.15484A57.61911,57.61911,0,0,0,364.71381,178.607Z"/><path class="cls-2" d="M171.09214,155.97114c4.40973-3.945,9.23218-4.66854,14.42306-3.43886,5.51205,1.30569,9.04137,5.2917,9.24946,10.97069.262,7.15476.13553,14.32365.18327,21.48642.00723,1.10373-.47082,1.60973-1.617,1.58367-2.0537-.04665-4.11149-.07162-6.16331.00738-1.50483.0581-2.07476-.50444-2.05575-2.03581.06313-5.10843.03643-10.21812.01382-15.32734a23.14472,23.14472,0,0,0-.22317-3.31322c-.48622-3.25057-1.74244-4.81335-4.176-5.33647-3.13718-.6742-6.13332.24075-7.56041,2.83957a14.94264,14.94264,0,0,0-1.93954,6.06061c-.28943,4.92626-.11715,9.87953-.13537,14.822-.0077,2.10254-.17417,2.26572-2.293,2.27027-1.83258.00408-3.66941-.07538-5.49665.02419-1.55524.0848-2.04648-.57213-2.03816-2.04947.03973-7.05268.01759-14.10567.01759-21.15866q0-12.412.00283-24.82407c.00188-2.24851.12406-2.35913,2.34126-2.36369q2.58233-.0053,5.16481.00016c2.13474.005,2.29713.15546,2.3,2.25055q.01037,7.6638.00235,15.32764Z"/><path class="cls-2" d="M278.2505,187.26076c-8.563-.02559-15.11454-4.465-17.40523-11.79409-4.0113-12.8339,5.51016-24.62406,18.909-23.41464,8.96379.809,15.19306,6.07757,16.52295,13.97422C298.315,178.12721,290.53018,187.29751,278.2505,187.26076Zm8.68377-17.48721c-.0947-3.4252-1.06352-6.39637-4.142-8.24561a8.66778,8.66778,0,0,0-11.72955,2.62615c-2.70906,4.418-1.52226,11.13449,2.47664,13.57108a8.64622,8.64622,0,0,0,8.86422.33373C285.74354,176.34315,286.77047,173.25027,286.93427,169.77355Z"/><path class="cls-2" d="M319.02122,187.26076c-8.56363-.02371-15.11626-4.46077-17.40947-11.78859-4.01585-12.832,5.50231-24.62579,18.90174-23.42077,8.96284.80612,15.1973,6.07537,16.528,13.9692C339.08165,178.12281,331.3,187.29484,319.02122,187.26076Zm8.65488-16.99722c.02434-4.19457-1.4874-7.20768-4.119-8.74863a8.71118,8.71118,0,0,0-11.73363,2.64452c-2.70529,4.42119-1.51377,11.13763,2.48638,13.56967a8.64419,8.64419,0,0,0,8.86469.32665C326.51285,176.33593,327.53664,173.243,327.6761,170.26354Z"/><path class="cls-2" d="M56.40839,172.56381a7.48059,7.48059,0,0,0,6.152,6.66462,14.65431,14.65431,0,0,0,9.82524-1.54346c2.06338-1.04767,2.06889-1.03714,3.15867.9528.53253.97244,1.03025,1.96608,1.6052,2.91276.68083,1.121.54379,1.98445-.65267,2.6073-7.15746,3.72547-14.55172,4.55625-21.8718.85653-6.72087-3.39677-8.99444-9.58663-8.67155-16.713.30011-6.62237,3.24109-11.98584,9.51762-14.66052,6.2605-2.66791,12.58232-2.49752,18.32577,1.66141,3.30694,2.39465,4.70031,5.95774,5.27487,9.8533.26632,1.80557.25713,3.65041.41319,5.474.1227,1.43368-.46013,1.9689-1.92,1.957-6.44313-.05292-12.88693-.02277-19.33049-.02277Zm-.14829-6.49594H69.87439c-.10515-3.8552-2.43948-6.18609-6.28261-6.36968C59.51654,159.50345,56.916,161.73069,56.2601,166.06787Z"/><path class="cls-2" d="M95.36867,172.56381c.73294,4.4848,4.131,7.24176,8.94557,6.88558a26.51482,26.51482,0,0,0,7.30081-1.95194c1.443-.55076,2.2307-.53317,2.86093.93208.41445.96348.99081,1.85692,1.48629,2.786.96757,1.81436.92171,2.46265-1.0051,3.21475a38.788,38.788,0,0,1-8.52672,2.59411c-5.78028.80942-11.40038.01052-15.90229-4.12767-5.43572-4.99615-6.66006-11.40619-4.99363-18.30606,1.57722-6.53081,5.78263-10.84725,12.50206-12.11117,6.552-1.23235,12.71423-.41963,17.14249,5.28637,3.10341,3.99873,3.31574,8.82935,3.26972,13.64473-.01115,1.17142-.96,1.15666-1.8296,1.156q-9.66524-.00825-19.33063-.00283Zm13.49915-6.44161c-.05308-3.9067-2.51323-6.33717-6.39685-6.429-4.13191-.09768-6.8171,2.29619-7.16449,6.429Z"/><path class="cls-2" d="M392.24183,187.48a28.08494,28.08494,0,0,1-10.844-2.50223c-1.35092-.65065-1.89446-1.346-1.00809-2.811a28.01285,28.01285,0,0,0,1.95556-4.03659c.57165-1.418,1.352-1.515,2.5718-.786a13.558,13.558,0,0,0,8.03108,2.27263,3.373,3.373,0,0,0,1.75391-.35367,3.9864,3.9864,0,0,0,1.579-2.07428,2.656,2.656,0,0,0-1.10828-2.15516c-1.71967-.98217-3.61633-1.6515-5.43133-2.47082a46.79793,46.79793,0,0,1-4.79936-2.26635c-3.44011-2.054-4.54793-5.34557-4.24216-9.13057a8.80855,8.80855,0,0,1,6.66352-8.0873,24.11164,24.11164,0,0,1,17.68414,1.176c1.13751.52061,1.47452,1.1868.8256,2.34785a29.04839,29.04839,0,0,0-1.89949,3.87907c-.57275,1.52037-1.26454,1.59324-2.7678,1.0563a39.88383,39.88383,0,0,0-7.20124-1.66282,2.305,2.305,0,0,0-2.85684,1.70067c-.4,1.61915.708,2.373,1.90341,2.89595,2.2819.998,4.65378,1.793,6.92265,2.81758,5.09444,2.30043,7.00791,5.2391,6.6511,9.97564-.33043,4.38649-3.47358,7.973-8.33764,9.24161A61.046,61.046,0,0,1,392.24183,187.48Z"/><path class="cls-2" d="M142.68057,187.26815a20.14,20.14,0,0,1-11.55711-3.09258c-5.71055-3.82661-7.71322-9.52963-7.11613-16.03625.92344-10.06532,8.76811-16.31533,19.518-16.0273a19.46144,19.46144,0,0,1,10.07521,2.95955,1.50218,1.50218,0,0,1,.62835,2.33907c-.76357,1.3495-1.51724,2.71095-2.16364,4.1184-.62552,1.36255-1.46054,1.44233-2.63211.73137a11.64251,11.64251,0,0,0-7.776-1.782,8.908,8.908,0,0,0-7.71746,10.09327c.59772,5.49335,4.5462,9.02629,9.74274,8.40611a26.47794,26.47794,0,0,0,6.15421-1.78264c1.225-.46738,1.93561-.458,2.49328.83549a23.35556,23.35556,0,0,0,1.90577,3.68621c.95045,1.4318.37582,2.16238-.88041,2.89548A20.66737,20.66737,0,0,1,142.68057,187.26815Z"/></g><g id="Layer_2" data-name="Layer 2"><path class="cls-4" d="M154.70944,78.84335c5.837-16.75176,24.90833-31.933,40.23849-32.97992,15.33017-1.047,32.08193,7.59056,49.23714,4.31628,16.84379-3.21491,27.72088-15.30959,34.07485-22.11508C269.60065,41.152,260.333,54.16228,242.211,55.8097c-17.2752,1.57047-32.38691-7.01043-51.64169-3.67459C175.6107,54.72655,162.68116,65.01723,154.70944,78.84335Z"/></g></svg>