<svg xmlns="http://www.w3.org/2000/svg" role="img" viewBox="-5.54 -4.79 262.08 262.08"><g><path fill="#039" d="M67.792969 193.75C67.792969 193.75 76.046875 185.007812 78.542969 182.601562 103.921875 201.734375 133.761719 203.695312 157.621094 192.636719L152.761719 181.753906 159.761719 178.628906 164.625 188.886719C186.480469 175.730469 201.734375 150.796875 201.066406 117.972656L215.785156 116.589844C220.464844 205.703125 121.671875 242.1875 67.792969 193.75zM27.742188 129.480469L27.832031 132.019531 167.792969 132.019531C162.113281 120.601562 156.464844 109.183594 150.84375 97.765625 150.039062 96.070312 149.238281 93.976562 149.816406 93.53125 150.398438 93.082031 150.796875 93.574219 151.421875 93.929688 156.152344 96.742188 161.058594 104.992188 161.371094 105.527344 163.421875 108.960938 165.027344 111.726562 165.964844 113.378906L174.75 109.453125C172.527344 103.824219 169.441406 98.570312 165.605469 93.886719 163.078125 90.804688 160.222656 88.007812 157.085938 85.546875 156.945312 85.425781 156.859375 85.25 156.851562 85.066406 156.84375 84.878906 156.910156 84.699219 157.042969 84.566406L159.628906 82.113281C159.734375 81.988281 159.882812 81.914062 160.042969 81.90625 160.203125 81.898438 160.363281 81.957031 160.476562 82.066406 164.640625 85.289062 168.386719 89.019531 171.628906 93.171875 174.957031 97.386719 177.742188 102.003906 179.921875 106.910156L190.316406 101.601562C188.046875 95.777344 185 90.289062 181.261719 85.277344 177.421875 80.140625 172.871094 75.574219 167.746094 71.71875 167.597656 71.605469 167.503906 71.433594 167.488281 71.25 167.46875 71.0625 167.53125 70.878906 167.65625 70.738281 168.816406 69.445312 169.574219 68.242188 170.558594 66.992188 170.796875 66.691406 171.230469 66.632812 171.539062 66.859375 176.222656 70.960938 182.332031 76.714844 187.683594 84.652344 192.804688 92.273438 196.761719 100.617188 199.414062 109.40625L214.175781 105.660156C212.929688 100.753906 202.402344 60.925781 163.0625 43.621094 131.574219 29.792969 93.976562 35.859375 66.589844 59.097656 71.71875 60.390625 98.570312 67.4375 107.667969 90.140625 109.230469 93.976562 114.089844 106.109375 108.25 114.847656 102.40625 123.589844 88.222656 124.351562 82.425781 124.039062 76.625 123.726562 64.628906 117.660156 54.949219 118.460938 42.90625 120.246094 42.328125 126.269531 32.292969 129.480469 30.777344 129.59375 29.257812 129.59375 27.742188 129.480469zM153.699219 165.203125L146.695312 168.371094 149.863281 175.328125 156.820312 172.207031zM148.96875 154.679688L141.96875 157.800781 145.132812 164.804688 152.09375 161.679688zM144.019531 143.707031L137.0625 146.875 140.183594 153.832031 147.140625 150.710938zM56.199219 201.914062C57.3125 201.777344 58.292969 202.179688 59.5 203.25L62.128906 205.570312 48.617188 220.957031 45.984375 218.636719C44.78125 217.613281 44.289062 216.71875 44.289062 215.558594 44.289062 214.402344 44.78125 213.375 46.164062 211.769531 47.546875 210.164062 48.082031 209.851562 49.507812 209.71875 50.007812 209.667969 50.515625 209.746094 50.980469 209.941406 50.679688 209.492188 50.507812 208.964844 50.488281 208.425781 50.445312 206.863281 51.335938 205.613281 52.316406 204.542969 53.96875 202.625 54.992188 202.046875 56.199219 201.914062zM46.964844 217.476562L48.4375 218.726562 53.433594 213.019531 52.003906 211.769531C50.667969 210.609375 49.242188 210.742188 47.410156 212.839844 45.582031 214.9375 45.671875 216.320312 46.964844 217.476562zM52.988281 210.652344L54.414062 211.902344 59.898438 205.613281 58.472656 204.367188C57.089844 203.160156 55.707031 203.117188 53.523438 205.570312 51.335938 208.023438 51.558594 209.40625 52.988281 210.652344zM53.609375 197.765625L38.492188 211.589844 33.941406 206.550781 35.058594 205.523438 38.535156 209.359375 44.421875 204.007812 41.390625 200.707031 42.503906 199.683594 45.539062 202.984375 51.425781 197.585938 47.902344 193.75 49.0625 192.722656zM47.011719 190.136719L30.820312 202.714844 29.839844 201.421875 45.984375 188.84375zM40.453125 182.554688C41.523438 182.796875 42.453125 183.457031 43.039062 184.382812 43.757812 185.359375 43.957031 186.625 43.574219 187.773438L41.96875 187.417969C42.289062 186.707031 42.222656 185.882812 41.792969 185.230469 41.035156 184.070312 39.515625 183.757812 37.824219 184.875L24.398438 193.75 23.503906 192.410156 36.929688 183.535156C38.132812 182.734375 39.339844 182.375 40.453125 182.554688zM38.714844 177.871094L20.875 187.90625 20.070312 186.523438 37.957031 176.488281zM33.140625 166.585938L20.785156 178.140625 35.371094 171.582031 36.039062 173.054688 17.351562 181.484375 16.679688 179.96875 29.035156 168.460938 14.449219 175.015625 13.78125 173.546875 32.46875 165.160156zM30.152344 157.710938C30.546875 158.738281 30.449219 159.890625 29.882812 160.832031 28.945312 162.441406 27.476562 163.0625 21.453125 164.9375 15.433594 166.8125 13.914062 167.210938 12.222656 166.453125 10.269531 165.40625 9.46875 163.023438 10.390625 161.011719 11.148438 159.855469 12.308594 159.027344 13.648438 158.691406L14.140625 160.210938C12.578125 160.746094 11.0625 161.679688 11.640625 163.597656 11.8125 164.234375 12.277344 164.746094 12.890625 164.980469 14.09375 165.472656 15.253906 165.25 20.960938 163.421875 26.671875 161.59375 27.785156 161.101562 28.546875 160.03125 28.882812 159.464844 28.949219 158.777344 28.722656 158.15625 28.277344 156.863281 26.894531 156.195312 25.066406 156.773438L20.25 158.292969 20.960938 160.609375 19.625 161.058594 18.375 157.175781 24.574219 155.257812C27.476562 154.320312 29.527344 155.660156 30.152344 157.710938zM24.933594 139.605469C25.808594 140.238281 26.390625 141.207031 26.539062 142.28125 26.734375 143.347656 26.476562 144.445312 25.824219 145.3125 25.054688 146.25 23.953125 146.859375 22.746094 147.007812L6.691406 149.503906 6.46875 147.898438 22.65625 145.355469C24.351562 145.089844 25.246094 143.839844 25.066406 142.503906 24.886719 141.164062 23.640625 140.316406 21.898438 140.585938L5.710938 143.128906 5.441406 141.519531 21.5 138.980469C22.679688 138.738281 23.910156 138.960938 24.933594 139.605469zM25.023438 128.140625L9.320312 134.386719 25.289062 133.582031 25.378906 135.1875 4.90625 136.214844 4.816406 134.5625 20.515625 128.363281 4.550781 129.167969 4.460938 127.5625 24.933594 126.535156zM25.066406 123.191406L4.550781 122.566406 4.550781 120.960938 25.066406 121.585938zM25.601562 114.226562L25.46875 115.832031 4.683594 117.972656 4.816406 116.1875 22.523438 114.714844 5.441406 109.855469 5.621094 108.070312zM26.359375 108.515625L6.199219 104.679688 7.492188 97.988281 9.007812 98.300781 8.027344 103.386719 15.832031 104.859375 16.636719 100.488281 18.152344 100.753906 17.304688 105.125 25.15625 106.644531 26.136719 101.558594 27.609375 101.824219zM30.820312 90.765625L21.1875 90.765625 20.425781 93.171875 29.214844 95.894531 28.722656 97.410156 9.1875 91.253906 10.304688 87.597656C11.015625 85.324219 12.445312 83.851562 16.992188 85.277344 20.027344 86.214844 21.230469 87.464844 21.363281 89.160156L31.308594 89.160156zM11.773438 88L11.105469 90.183594 19 92.636719 19.667969 90.496094C20.25 88.625 19.046875 87.597656 16.503906 86.839844 13.960938 86.082031 12.398438 86.125 11.773438 88zM34.878906 78.632812C35.234375 79.523438 35.191406 80.59375 34.609375 81.890625 34.199219 82.9375 33.378906 83.777344 32.335938 84.207031 31.132812 84.609375 30.105469 84.429688 28.054688 83.496094L28.722656 82.023438C30.152344 82.691406 31 82.871094 31.800781 82.601562 33.097656 82.046875 33.769531 80.605469 33.363281 79.257812 32.960938 78.367188 32.203125 77.875 30.773438 77.207031 28.410156 76.136719 27.429688 76.089844 26.09375 77.292969L24.398438 78.8125C22.792969 80.28125 21.453125 80.328125 18.644531 79.035156 17.082031 78.277344 15.96875 77.292969 15.519531 76.089844 14.914062 73.980469 15.960938 71.75 17.972656 70.871094 19.3125 70.425781 20.472656 70.695312 22.078125 71.453125L21.410156 72.925781C20.25 72.390625 19.402344 72.164062 18.554688 72.433594 17.894531 72.601562 17.359375 73.085938 17.128906 73.726562 16.824219 74.289062 16.773438 74.953125 16.992188 75.554688 17.304688 76.359375 18.152344 77.027344 19.3125 77.5625 21.453125 78.542969 22.210938 78.5 23.683594 77.207031L25.332031 75.6875C27.027344 74.171875 28.679688 74.441406 31.355469 75.6875 33.316406 76.582031 34.433594 77.472656 34.878906 78.632812zM38.179688 74.484375L20.425781 64.269531 21.230469 62.84375 39.027344 73.058594zM27.875 55.394531L43.441406 66.1875 42.503906 67.527344 26.941406 56.6875 25.066406 59.410156 23.816406 58.515625 28.457031 51.828125 29.703125 52.71875zM42.996094 52.898438L49.507812 58.472656 48.4375 59.722656 41.925781 54.101562 30.6875 48.929688 31.84375 47.589844 40.542969 51.871094 35.011719 43.886719 36.214844 42.503906zM63.824219 43.886719C63.765625 45.003906 63.1875 46.027344 62.265625 46.652344 61.433594 47.378906 60.316406 47.691406 59.230469 47.5 57.445312 47.1875 56.332031 46.027344 52.453125 41.078125 48.570312 36.128906 47.679688 34.789062 47.8125 32.960938 47.886719 31.859375 48.441406 30.847656 49.328125 30.195312 50.171875 29.492188 51.277344 29.183594 52.363281 29.347656 54.191406 29.660156 55.304688 30.820312 59.1875 35.769531 63.066406 40.722656 63.957031 42.058594 63.824219 43.886719zM52.09375 30.910156C51.441406 30.78125 50.765625 30.960938 50.265625 31.398438 49.726562 31.777344 49.394531 32.390625 49.375 33.050781 49.375 34.34375 50 35.371094 53.699219 40.097656 57.402344 44.824219 58.25 45.628906 59.5 45.941406 60.152344 46.078125 60.832031 45.894531 61.328125 45.449219 61.863281 45.0625 62.207031 44.460938 62.265625 43.800781 62.265625 42.503906 61.640625 41.480469 57.9375 36.75 54.234375 32.023438 53.34375 31.222656 52.09375 30.910156zM59.765625 24.933594L63.957031 31.710938 67.75 29.347656 68.554688 30.640625 64.761719 33.003906 69.757812 41.078125 68.375 41.925781 57.582031 24.488281 63.378906 20.917969 64.183594 22.210938zM83.40625 23.996094L81.308594 24.84375 84.652344 33.273438 83.183594 33.851562 75.601562 14.808594 79.210938 13.378906C81.355469 12.53125 83.449219 12.667969 85.234375 17.128906 87.019531 21.585938 85.949219 23.015625 83.40625 23.996094zM79.792969 14.808594L77.695312 15.609375 80.773438 23.414062 82.871094 22.570312C84.699219 21.855469 84.699219 20.25 83.71875 17.75 82.734375 15.253906 81.621094 14.09375 79.792969 14.808594zM100.667969 26.984375C99.503906 28.945312 96.988281 29.617188 95 28.5 93.484375 27.476562 92.90625 25.957031 91.253906 19.9375 89.605469 13.914062 89.335938 12.265625 90.183594 10.613281 90.683594 9.632812 91.601562 8.925781 92.683594 8.699219 93.730469 8.339844 94.882812 8.488281 95.804688 9.097656 97.367188 10.078125 97.902344 11.640625 99.550781 17.664062 101.203125 23.683594 101.46875 25.332031 100.667969 26.984375zM94.957031 10.4375C94.398438 10.046875 93.683594 9.949219 93.039062 10.167969 92.402344 10.320312 91.863281 10.746094 91.566406 11.328125 91.078125 12.53125 91.253906 13.691406 92.816406 19.492188 94.378906 25.289062 94.824219 26.402344 95.894531 27.164062 96.421875 27.550781 97.105469 27.652344 97.722656 27.429688 98.386719 27.308594 98.949219 26.878906 99.238281 26.269531 99.730469 25.066406 99.550781 23.90625 97.988281 18.109375 96.429688 12.308594 95.984375 11.195312 94.957031 10.4375zM112.441406 24.796875C111.90625 25.601562 111.015625 26.136719 109.632812 26.359375 108.25 26.582031 107.265625 26.402344 106.417969 25.78125 105.574219 25.15625 104.992188 24.039062 104.589844 21.808594L106.195312 21.542969C106.464844 23.105469 106.777344 23.90625 107.445312 24.441406 108 24.835938 108.695312 24.980469 109.363281 24.84375 110.253906 24.664062 110.789062 24.351562 111.101562 23.863281 111.414062 23.371094 111.59375 22.121094 111.324219 20.5625 110.925781 18.019531 110.390625 17.171875 108.648438 16.726562L106.417969 16.191406C104.324219 15.65625 103.566406 14.585938 103.074219 11.550781 102.761719 9.8125 102.984375 8.339844 103.742188 7.316406 104.367188 6.460938 105.324219 5.910156 106.375 5.796875 107.441406 5.546875 108.566406 5.773438 109.453125 6.421875 110.566406 7.269531 110.96875 8.386719 111.238281 10.125L109.632812 10.390625C109.453125 9.144531 109.140625 8.339844 108.472656 7.761719 107.953125 7.324219 107.257812 7.160156 106.597656 7.316406 105.964844 7.378906 105.382812 7.699219 104.992188 8.207031 104.5 8.964844 104.457031 9.992188 104.636719 11.238281 105.039062 13.605469 105.484375 14.226562 107.355469 14.675781L109.542969 15.253906C111.773438 15.789062 112.441406 17.304688 112.933594 20.203125 113.289062 22.34375 113.15625 23.726562 112.441406 24.796875zM119.710938 5.933594L121.183594 24.84375 119.578125 24.933594 118.105469 6.019531 114.847656 6.289062 114.714844 4.773438 122.832031 4.148438 122.96875 5.664062zM135.320312 23.503906C134.699219 24.21875 133.714844 24.621094 132.289062 24.621094 130.863281 24.621094 129.925781 24.308594 129.210938 23.550781 128.496094 22.792969 128.050781 21.585938 128.050781 19.355469L129.65625 19.355469C129.703125 20.917969 129.835938 21.765625 130.460938 22.390625 130.945312 22.867188 131.613281 23.109375 132.289062 23.058594 132.980469 23.105469 133.65625 22.863281 134.164062 22.390625 134.785156 21.675781 134.921875 20.785156 134.921875 19.132812 134.921875 16.59375 134.519531 15.65625 132.824219 14.941406L130.773438 14.050781C128.765625 13.203125 128.183594 12.042969 128.183594 8.964844 128.140625 7.179688 128.585938 5.796875 129.480469 4.90625 130.238281 4.160156 131.269531 3.753906 132.332031 3.792969 133.425781 3.734375 134.496094 4.140625 135.277344 4.90625 136.257812 5.886719 136.480469 7.089844 136.480469 8.875L134.832031 8.875C134.832031 7.582031 134.699219 6.734375 134.117188 6.066406 133.660156 5.566406 133.011719 5.289062 132.332031 5.308594 131.695312 5.265625 131.074219 5.511719 130.636719 5.976562 130.015625 6.601562 129.792969 7.671875 129.792969 8.921875 129.792969 11.285156 130.101562 11.953125 131.886719 12.757812L133.984375 13.648438C136.125 14.496094 136.527344 16.144531 136.527344 19.089844 136.527344 21.230469 136.214844 22.613281 135.320312 23.503906zM153.964844 28.277344L154.277344 22.570312 149.863281 21.453125 147.5 26.628906 145.804688 26.226562 155.035156 7.402344 156.507812 7.804688 155.617188 28.722656zM154.992188 10.570312L150.574219 20.070312 154.367188 21.007812zM164.3125 31.800781L164.667969 14.898438 159.226562 29.929688 157.667969 29.347656 164.667969 10.125 166.1875 10.660156 165.875 27.519531 171.316406 12.488281 172.832031 13.066406 165.828125 32.335938zM176.132812 35.90625C175.105469 36.273438 173.972656 36.191406 173.011719 35.679688L169.441406 33.898438 178.539062 15.519531 182.109375 17.304688C183.113281 17.753906 183.878906 18.617188 184.207031 19.667969 184.695312 21.410156 184.160156 22.835938 181.394531 28.410156 178.628906 33.988281 177.828125 35.234375 176.132812 35.90625zM182.644531 20.070312C182.445312 19.441406 181.992188 18.925781 181.394531 18.644531L179.300781 17.617188 171.539062 33.226562 173.632812 34.253906C174.222656 34.578125 174.925781 34.628906 175.550781 34.386719 176.710938 33.898438 177.335938 32.917969 179.96875 27.652344 182.601562 22.390625 182.957031 21.320312 182.644531 20.070312zM198.390625 28.902344L187.371094 44.335938 186.078125 43.398438 197.09375 27.964844 194.417969 26.046875 195.3125 24.84375 201.957031 29.570312 201.066406 30.773438zM193.125 48.792969L206.863281 33.539062 211.902344 38.089844 210.878906 39.25 207.042969 35.769531 201.6875 41.65625 205.035156 44.644531 204.007812 45.804688 200.707031 42.816406 195.355469 48.75 199.191406 52.183594 198.164062 53.34375zM201.421875 56.6875L216.808594 43.175781 217.878906 44.378906 203.652344 56.910156 207.085938 60.792969 205.925781 61.816406zM208.378906 64.984375L225.195312 53.300781 229.074219 58.875 227.824219 59.722656 224.835938 55.484375 218.324219 60.035156 220.914062 63.691406 219.617188 64.582031 217.078125 60.882812 210.566406 65.429688 213.507812 69.710938 212.261719 70.558594zM218.414062 80.015625C216.398438 79.242188 215.339844 77.027344 216.007812 74.976562 216.628906 73.234375 218.011719 72.390625 223.542969 69.445312 229.074219 66.5 230.589844 65.875 232.375 66.324219 233.445312 66.601562 234.34375 67.335938 234.828125 68.328125 235.359375 69.234375 235.476562 70.324219 235.140625 71.316406 234.738281 72.476562 233.714844 73.460938 232.375 74.21875L231.617188 72.789062C232.507812 72.300781 233.3125 71.675781 233.625 70.828125 233.847656 70.238281 233.78125 69.578125 233.445312 69.042969 233.199219 68.4375 232.660156 68.003906 232.019531 67.882812 230.726562 67.617188 229.609375 68.0625 224.300781 70.871094 218.996094 73.683594 218.011719 74.351562 217.476562 75.511719 217.230469 76.121094 217.28125 76.8125 217.613281 77.382812 217.871094 77.980469 218.402344 78.410156 219.039062 78.542969 219.886719 78.765625 220.867188 78.453125 221.761719 77.964844L222.519531 79.390625C221.046875 80.148438 219.617188 80.460938 218.414062 80.015625zM222.964844 90.183594C221.933594 89.789062 221.132812 88.957031 220.777344 87.910156 220.320312 86.917969 220.335938 85.769531 220.824219 84.789062 221.671875 83.136719 223.097656 82.378906 228.941406 80.105469 234.785156 77.832031 236.34375 77.339844 238.085938 78.007812 239.105469 78.394531 239.90625 79.210938 240.269531 80.238281 240.707031 81.265625 240.691406 82.433594 240.226562 83.449219 239.378906 85.101562 237.90625 85.8125 232.0625 88.089844 226.21875 90.363281 224.703125 90.855469 222.964844 90.183594zM238.796875 82.734375C239.109375 82.136719 239.125 81.429688 238.84375 80.820312 238.632812 80.183594 238.136719 79.6875 237.503906 79.480469 236.300781 79.125 235.140625 79.390625 229.519531 81.621094 223.902344 83.851562 222.875 84.386719 222.25 85.457031 221.925781 86.046875 221.894531 86.757812 222.160156 87.375 222.398438 87.992188 222.882812 88.476562 223.5 88.714844 224.75 89.070312 225.90625 88.800781 231.484375 86.570312 237.058594 84.34375 238.128906 83.808594 238.796875 82.734375zM225.460938 102.183594L241.429688 97.988281 230.234375 97.988281 229.964844 97.054688 239.378906 91.65625 223.765625 95.804688 223.453125 94.554688 243.257812 89.335938 243.613281 90.585938 232.777344 96.832031 245.265625 96.964844 245.621094 98.214844 225.820312 103.429688zM227.46875 114.003906L243.792969 111.683594 232.6875 110.390625 232.554688 109.453125 242.542969 105.214844 226.53125 107.492188 226.355469 106.195312 246.648438 103.296875 246.828125 104.589844 235.363281 109.542969 247.761719 111.148438 247.941406 112.394531 227.648438 115.296875zM229.03125 125.152344C228.230469 124.421875 227.773438 123.382812 227.78125 122.296875 227.726562 121.226562 228.113281 120.179688 228.851562 119.398438 229.734375 118.570312 230.898438 118.109375 232.109375 118.105469L248.34375 117.660156 248.34375 119.265625 231.972656 119.753906C230.234375 119.800781 229.207031 120.914062 229.253906 122.253906 229.296875 123.589844 230.367188 124.660156 232.152344 124.617188L248.519531 124.125 248.519531 125.730469 232.375 126.222656C231.164062 126.324219 229.960938 125.9375 229.03125 125.152344zM227.511719 136.125L243.882812 131.933594 227.914062 130.683594 228.050781 129.078125 248.476562 130.683594 248.386719 132.289062 232.019531 136.480469 247.941406 137.6875 247.808594 139.292969 227.378906 137.730469zM226.933594 140.675781L247.183594 143.796875 246.914062 145.402344 226.667969 142.234375zM225.460938 151.734375C225 150.859375 224.871094 149.84375 225.105469 148.878906 225.332031 147.8125 225.996094 146.890625 226.933594 146.339844 228.585938 145.445312 230.191406 145.667969 236.300781 147.050781 242.410156 148.433594 243.925781 148.96875 244.996094 150.488281 245.617188 151.386719 245.8125 152.507812 245.53125 153.5625 245.359375 154.605469 244.738281 155.515625 243.835938 156.0625 242.8125 156.6875 241.339844 156.730469 239.824219 156.417969L240.179688 154.855469C241.207031 155.082031 242.230469 155.125 242.992188 154.722656 243.554688 154.402344 243.945312 153.847656 244.0625 153.207031 244.234375 152.574219 244.101562 151.898438 243.703125 151.378906 242.902344 150.398438 241.785156 149.996094 235.945312 148.65625 230.101562 147.320312 228.894531 147.140625 227.738281 147.722656 227.140625 148.015625 226.726562 148.582031 226.621094 149.238281 226.445312 149.84375 226.542969 150.496094 226.890625 151.023438 227.425781 151.734375 228.359375 152.136719 229.386719 152.359375L229.03125 153.921875C227.425781 153.5625 226.132812 152.851562 225.460938 151.734375zM221.089844 162.976562L226.753906 163.6875 228.40625 159.050781 223.453125 156.152344 224.078125 154.367188 241.875 165.5625 241.339844 167.078125 220.464844 164.714844zM238.753906 165.292969L229.699219 159.898438 228.316406 163.910156zM234.917969 178.585938L217.746094 170.511719 218.503906 168.90625 235.632812 177.023438 237.148438 173.8125 238.53125 174.480469 234.785156 182.421875 233.402344 181.753906zM215.292969 175.242188L233.222656 185.230469 232.332031 186.746094 214.445312 176.757812zM209.628906 186.210938C209.410156 185.054688 209.6875 183.859375 210.386719 182.910156 210.988281 181.894531 211.992188 181.179688 213.152344 180.949219 215.023438 180.636719 216.453125 181.394531 221.671875 184.875 226.890625 188.351562 228.136719 189.378906 228.539062 191.253906 228.769531 192.402344 228.511719 193.597656 227.824219 194.554688 227.203125 195.550781 226.207031 196.253906 225.058594 196.515625 223.144531 196.828125 221.714844 196.070312 216.496094 192.589844 211.277344 189.113281 210.03125 188.085938 209.628906 186.210938zM224.882812 194.863281C225.570312 194.726562 226.167969 194.308594 226.53125 193.707031 226.96875 193.152344 227.117188 192.425781 226.933594 191.742188 226.578125 190.449219 225.683594 189.691406 220.691406 186.347656 215.695312 183 214.625 182.464844 213.332031 182.601562 212.632812 182.714844 212.023438 183.140625 211.679688 183.757812 211.234375 184.308594 211.070312 185.035156 211.234375 185.722656 211.589844 187.015625 212.484375 187.773438 217.476562 191.117188 222.472656 194.464844 223.542969 195 224.882812 194.863281zM202.179688 194.019531L218.191406 199.726562 205.925781 189.46875 207.042969 188.128906 222.785156 201.242188 221.671875 202.625 205.660156 196.917969 217.925781 207.128906 216.808594 208.46875 201.066406 195.355469zM195.3125 202.359375C195.355469 201.378906 195.800781 200.351562 196.871094 199.28125 197.941406 198.210938 198.96875 197.71875 200.039062 197.71875 201.109375 197.71875 202.269531 198.253906 203.875 199.859375L202.625 201.066406C201.511719 199.949219 200.796875 199.460938 199.859375 199.503906 199.144531 199.542969 198.46875 199.863281 197.988281 200.394531 197.273438 201.066406 197.007812 201.6875 197.050781 202.269531 197.09375 202.847656 197.585938 204.007812 198.699219 205.167969 200.484375 206.996094 201.421875 207.355469 203.25 206.59375L205.480469 205.660156C207.621094 204.765625 208.871094 205.167969 211.054688 207.355469 212.261719 208.601562 212.929688 209.941406 212.839844 211.277344 212.773438 212.410156 212.257812 213.46875 211.414062 214.222656 210.429688 215.160156 209.40625 215.648438 208.378906 215.648438 207.355469 215.648438 205.925781 214.980469 204.675781 213.6875L205.925781 212.484375C206.820312 213.375 207.53125 213.867188 208.46875 213.910156 209.195312 213.933594 209.894531 213.640625 210.386719 213.105469 210.875 212.652344 211.179688 212.03125 211.234375 211.367188 211.234375 210.429688 210.699219 209.496094 209.808594 208.601562 208.15625 206.90625 207.398438 206.683594 205.480469 207.488281L203.25 208.425781C201.019531 209.40625 199.59375 208.558594 197.496094 206.417969 195.398438 204.277344 195.265625 203.695312 195.3125 202.359375zM195.3125 202.359375"/><path fill="#039" d="M 83.496094 233.625 C 82.023438 236.433594 80.773438 237.90625 79.703125 238.171875 L 79.347656 238.171875 C 79.042969 238.171875 78.746094 238.082031 78.5 237.90625 L 76.9375 237.101562 C 76.394531 236.921875 75.957031 236.515625 75.734375 235.988281 C 75.527344 235.363281 75.660156 234.5625 76.136719 233.578125 L 84.164062 218.011719 C 84.476562 217.746094 84.699219 217.703125 84.878906 217.789062 C 85.054688 217.878906 85.101562 218.101562 85.101562 218.460938 L 85.054688 218.460938 L 82.023438 224.347656 C 84.027344 223.855469 85.941406 223.042969 87.6875 221.9375 L 87.730469 221.9375 C 88.042969 221.984375 88.265625 222.070312 88.3125 222.25 C 88.355469 222.429688 88.355469 222.695312 88.089844 223.054688 C 86.019531 224.339844 83.738281 225.246094 81.355469 225.730469 L 77.160156 233.980469 C 76.847656 234.648438 76.757812 235.140625 76.894531 235.496094 C 77.011719 235.757812 77.242188 235.953125 77.519531 236.03125 L 79.125 236.835938 C 79.261719 236.976562 79.46875 237.027344 79.660156 236.96875 C 80.371094 236.746094 81.355469 235.496094 82.558594 233.179688 L 82.601562 233.179688 C 82.871094 233 83.046875 232.953125 83.226562 233.042969 C 83.40625 233.132812 83.449219 233.3125 83.496094 233.625 Z M 104.054688 230.902344 C 104.285156 231.445312 104.285156 232.054688 104.054688 232.597656 L 103.164062 235.632812 C 103.03125 236.433594 102.71875 236.925781 102.273438 237.148438 C 101.851562 237.371094 101.351562 237.371094 100.933594 237.148438 L 97.097656 236.078125 L 95.449219 242.097656 C 95.382812 242.582031 95.125 243.015625 94.734375 243.300781 C 94.539062 243.394531 94.324219 243.441406 94.109375 243.4375 C 93.789062 243.441406 93.46875 243.382812 93.171875 243.257812 C 92.460938 242.871094 91.8125 242.375 91.253906 241.785156 L 91.210938 241.785156 C 91.105469 241.496094 91.121094 241.171875 91.253906 240.894531 C 91.414062 240.722656 91.648438 240.636719 91.878906 240.671875 L 91.96875 240.671875 C 93.351562 242.097656 93.976562 242.277344 94.242188 242.1875 C 94.511719 242.097656 94.464844 241.964844 94.464844 241.695312 L 96.117188 235.808594 L 92.011719 234.648438 C 91.621094 234.664062 91.246094 234.5 90.988281 234.203125 C 90.675781 233.714844 90.675781 232.953125 90.941406 231.882812 L 91.746094 228.984375 C 92.191406 227.824219 92.949219 227.378906 93.976562 227.648438 L 103.03125 230.144531 C 103.457031 230.253906 103.824219 230.527344 104.054688 230.902344 Z M 103.03125 231.75 C 102.894531 231.527344 102.664062 231.378906 102.40625 231.347656 L 93.886719 228.941406 L 93.484375 228.941406 C 93.082031 228.941406 92.816406 229.164062 92.683594 229.65625 L 91.925781 232.375 C 91.792969 232.671875 91.777344 233.003906 91.878906 233.3125 C 91.957031 233.402344 92.074219 233.449219 92.191406 233.445312 L 92.238281 233.445312 L 101.289062 235.945312 C 101.445312 236.054688 101.644531 236.085938 101.824219 236.03125 C 102.050781 235.945312 102.136719 235.675781 102.226562 235.230469 L 102.984375 232.507812 C 103.125 232.28125 103.144531 231.996094 103.03125 231.75 Z M 106.644531 228.050781 L 99.820312 226.175781 C 99.828125 225.25 99.769531 224.328125 99.640625 223.410156 L 99.597656 223.410156 C 99.460938 223.097656 99.285156 222.964844 99.058594 222.964844 C 98.835938 222.964844 98.703125 223.1875 98.523438 223.542969 C 98.648438 224.296875 98.707031 225.058594 98.703125 225.820312 L 92.148438 223.988281 L 92.011719 223.988281 C 91.65625 224.261719 91.527344 224.738281 91.703125 225.148438 L 91.746094 225.148438 L 106.242188 229.164062 L 106.332031 229.164062 C 106.589844 229.121094 106.800781 228.929688 106.867188 228.671875 C 106.914062 228.425781 106.828125 228.171875 106.644531 228.003906 Z M 93.171875 236.96875 L 93.171875 236.878906 C 93.261719 236.480469 93.261719 236.210938 93.082031 236.078125 C 92.90625 235.945312 92.773438 235.945312 92.503906 236.078125 L 92.460938 236.078125 C 90.925781 237.640625 89.253906 239.058594 87.464844 240.3125 L 87.417969 240.3125 C 87.152344 240.625 87.0625 240.847656 87.152344 241.074219 C 87.226562 241.28125 87.421875 241.421875 87.640625 241.429688 L 87.730469 241.429688 C 89.707031 240.148438 91.53125 238.652344 93.171875 236.96875 Z M 99.953125 237.996094 L 99.90625 237.996094 C 99.714844 237.824219 99.445312 237.757812 99.195312 237.816406 C 99.015625 237.90625 98.925781 238.171875 98.882812 238.621094 L 98.925781 238.621094 C 99.550781 240.359375 100.175781 242.5 100.800781 244.996094 L 100.84375 244.996094 C 100.984375 245.117188 101.152344 245.195312 101.335938 245.21875 L 101.46875 245.21875 C 101.691406 245.175781 101.824219 244.910156 101.871094 244.460938 C 101.382812 242.265625 100.742188 240.101562 99.953125 237.996094 Z M 81.441406 216.675781 C 81.441406 216.320312 81.398438 216.09375 81.21875 216.007812 C 81.042969 215.917969 80.820312 215.960938 80.550781 216.230469 L 78.277344 220.554688 L 74.21875 218.460938 C 73.859375 218.546875 73.683594 218.636719 73.59375 218.859375 C 73.503906 219.082031 73.503906 219.261719 73.636719 219.574219 L 77.695312 221.625 L 74.707031 227.46875 C 72.625 228.34375 70.433594 228.945312 68.195312 229.253906 L 68.152344 229.253906 C 67.839844 229.519531 67.660156 229.742188 67.707031 229.921875 C 67.75 230.101562 67.839844 230.277344 68.105469 230.414062 L 68.152344 230.414062 C 70.128906 230.257812 72.070312 229.789062 73.90625 229.03125 L 71.453125 233.800781 C 71.453125 234.203125 71.496094 234.425781 71.675781 234.472656 L 71.808594 234.472656 C 72.007812 234.457031 72.195312 234.378906 72.34375 234.25 L 72.390625 234.25 L 81.441406 216.628906 Z M 168.726562 224.523438 L 179.609375 218.816406 C 179.714844 218.726562 179.867188 218.726562 179.96875 218.816406 C 180.324219 218.949219 180.816406 219.707031 181.21875 222.382812 L 181.261719 222.382812 C 181.527344 222.652344 181.753906 222.742188 181.929688 222.695312 C 182.136719 222.632812 182.292969 222.460938 182.332031 222.25 C 181.796875 219.484375 181.128906 217.925781 180.234375 217.523438 C 179.898438 217.335938 179.484375 217.351562 179.164062 217.566406 L 177.738281 218.324219 C 177.667969 216.976562 177.503906 215.636719 177.246094 214.3125 C 176.980469 214.042969 176.757812 213.910156 176.535156 214 C 176.3125 214.089844 176.265625 214.175781 176.175781 214.445312 C 176.511719 215.90625 176.632812 217.410156 176.535156 218.90625 L 174.480469 219.976562 C 173.242188 218.804688 171.917969 217.730469 170.511719 216.765625 L 170.421875 216.765625 C 170.199219 216.808594 170.023438 216.898438 169.976562 217.078125 C 169.878906 217.328125 169.910156 217.613281 170.066406 217.835938 L 170.109375 217.835938 C 171.277344 218.660156 172.394531 219.554688 173.457031 220.511719 L 170.378906 222.117188 C 169.28125 221.171875 168.085938 220.347656 166.8125 219.664062 L 166.722656 219.664062 C 166.539062 219.722656 166.402344 219.878906 166.363281 220.066406 C 166.324219 220.28125 166.375 220.507812 166.5 220.691406 L 166.542969 220.691406 C 167.703125 221.449219 168.640625 222.070312 169.308594 222.609375 L 167.882812 223.367188 C 167.503906 223.550781 167.226562 223.894531 167.121094 224.300781 C 167.089844 224.804688 167.214844 225.300781 167.480469 225.730469 L 168.953125 228.539062 L 168.996094 228.539062 C 169.128906 228.628906 169.28125 228.691406 169.441406 228.71875 L 169.621094 228.71875 C 169.789062 228.554688 169.886719 228.328125 169.886719 228.09375 L 168.550781 225.550781 C 168.148438 224.925781 168.460938 224.660156 168.726562 224.523438 Z M 185.277344 225.507812 C 185.132812 225.3125 184.925781 225.171875 184.695312 225.105469 L 184.652344 225.105469 L 178.851562 228.136719 C 178.589844 227.929688 178.308594 227.75 178.003906 227.601562 C 177.738281 227.511719 177.605469 227.425781 177.558594 227.289062 C 177.550781 227.066406 177.652344 226.851562 177.828125 226.710938 C 179.03125 224.882812 179.65625 223.679688 179.65625 223.097656 C 179.625 222.722656 179.40625 222.386719 179.074219 222.207031 C 178.71875 222.027344 178.140625 222.117188 177.382812 222.519531 L 170.46875 226.132812 C 170.378906 226.359375 170.378906 226.613281 170.46875 226.84375 C 170.574219 227.046875 170.777344 227.183594 171.003906 227.203125 L 171.046875 227.203125 L 177.871094 223.632812 C 178.09375 223.542969 178.183594 223.542969 178.183594 223.589844 C 178.183594 223.632812 178.316406 223.988281 176.578125 226.265625 C 176.132812 227.066406 176.222656 227.738281 176.933594 228.226562 L 177.78125 228.628906 L 171.136719 232.0625 C 171.046875 232.292969 171.046875 232.546875 171.136719 232.777344 C 171.261719 232.980469 171.476562 233.113281 171.71875 233.132812 L 171.761719 233.132812 L 178.851562 229.386719 C 180.457031 230.992188 181.21875 232.285156 181.128906 233.265625 C 181.058594 233.816406 180.746094 234.304688 180.28125 234.605469 C 179.476562 235.140625 178.453125 235.230469 177.246094 234.828125 L 177.113281 234.828125 C 176.949219 234.976562 176.851562 235.1875 176.847656 235.40625 C 176.847656 235.585938 176.980469 235.765625 177.203125 235.988281 C 177.707031 236.160156 178.234375 236.25 178.765625 236.253906 C 179.496094 236.25 180.214844 236.066406 180.859375 235.71875 C 181.625 235.3125 182.152344 234.570312 182.289062 233.714844 C 182.464844 232.417969 181.664062 230.769531 179.878906 228.851562 L 185.277344 226.042969 C 185.332031 225.867188 185.332031 225.679688 185.277344 225.507812 Z M 167.613281 240.046875 L 167.570312 240.046875 C 163.824219 239.289062 160.164062 235.675781 156.640625 229.207031 L 163.867188 227.15625 L 163.957031 227.15625 C 164.109375 226.953125 164.175781 226.695312 164.132812 226.441406 C 164.089844 226.21875 163.910156 226.085938 163.597656 225.953125 L 163.554688 225.953125 L 156.285156 228.003906 L 155.082031 223.679688 L 155.035156 223.679688 C 154.8125 223.410156 154.589844 223.277344 154.410156 223.320312 C 154.234375 223.367188 154.097656 223.589844 154.054688 223.945312 L 155.257812 228.273438 L 148.835938 230.101562 L 148.746094 230.101562 C 148.566406 230.292969 148.5 230.5625 148.570312 230.8125 C 148.664062 231.050781 148.859375 231.230469 149.105469 231.304688 L 149.148438 231.304688 L 155.617188 229.476562 C 156.863281 235.945312 155.839844 240.9375 152.492188 244.285156 L 152.449219 244.285156 C 152.34375 244.574219 152.359375 244.894531 152.492188 245.175781 C 152.640625 245.304688 152.832031 245.371094 153.027344 245.355469 L 153.207031 245.355469 C 156.375 242.230469 157.667969 237.726562 157.085938 232.0625 C 160.253906 237.371094 163.777344 240.449219 167.570312 241.339844 L 167.65625 241.339844 C 167.847656 241.183594 167.976562 240.960938 168.015625 240.714844 C 168.015625 240.4375 167.859375 240.179688 167.613281 240.046875 Z M 118.148438 232.332031 L 117.035156 245.308594 C 117.035156 246.066406 116.855469 246.601562 116.5 246.871094 C 116.304688 247.039062 116.042969 247.121094 115.785156 247.09375 L 115.429688 247.09375 L 110.253906 246.648438 C 109.90625 246.683594 109.558594 246.550781 109.320312 246.289062 C 109.007812 245.980469 108.871094 245.445312 108.960938 244.640625 L 110.03125 231.617188 C 110.03125 231.125 110.203125 230.652344 110.523438 230.277344 C 110.816406 229.957031 111.253906 229.808594 111.683594 229.878906 L 113.734375 230.054688 L 114.046875 226.441406 C 114.160156 226.246094 114.355469 226.113281 114.582031 226.085938 C 114.804688 226.085938 114.9375 226.265625 115.074219 226.53125 L 114.761719 230.144531 L 116.855469 230.324219 C 117.925781 230.5 118.328125 231.214844 118.148438 232.332031 Z M 110.480469 238.84375 L 110.03125 244.375 C 109.960938 244.675781 110.007812 244.996094 110.167969 245.265625 C 110.296875 245.355469 110.453125 245.402344 110.613281 245.398438 L 112.441406 245.53125 L 112.976562 239.066406 Z M 116.054688 244.910156 L 116.5 239.378906 L 114.003906 239.15625 L 113.46875 245.621094 L 115.25 245.753906 C 115.433594 245.851562 115.648438 245.851562 115.832031 245.753906 C 116 245.507812 116.082031 245.207031 116.054688 244.910156 Z M 111.859375 231.171875 C 111.652344 231.148438 111.441406 231.210938 111.28125 231.347656 C 111.140625 231.5625 111.0625 231.808594 111.058594 232.0625 L 110.566406 237.59375 L 113.066406 237.773438 L 113.644531 231.304688 Z M 114.671875 231.394531 L 114.136719 237.859375 L 116.632812 238.085938 L 117.078125 232.554688 C 117.164062 232.304688 117.144531 232.03125 117.035156 231.796875 C 116.882812 231.640625 116.671875 231.558594 116.457031 231.574219 Z M 146.203125 241.429688 C 146.472656 243.660156 146.25 245.085938 145.582031 245.84375 C 145.222656 246.214844 144.710938 246.398438 144.199219 246.335938 L 139.023438 246.828125 L 138.667969 246.828125 C 138.410156 246.828125 138.164062 246.75 137.953125 246.601562 C 137.550781 246.335938 137.328125 245.753906 137.238281 244.910156 L 136.972656 242.007812 L 132.199219 242.457031 C 131.867188 242.558594 131.507812 242.511719 131.21875 242.320312 C 130.832031 242.054688 130.609375 241.519531 130.550781 240.714844 L 129.703125 231.929688 C 129.632812 231.4375 129.726562 230.9375 129.96875 230.5 C 130.1875 230.144531 130.574219 229.921875 130.996094 229.921875 L 135.8125 229.476562 L 135.589844 227.113281 C 135.722656 226.753906 135.855469 226.578125 136.035156 226.578125 C 136.214844 226.578125 136.390625 226.710938 136.613281 227.023438 L 136.839844 229.386719 L 141.609375 228.941406 C 142.015625 228.875 142.433594 228.96875 142.769531 229.207031 C 143.125 229.613281 143.300781 230.144531 143.261719 230.679688 L 144.0625 239.511719 C 144.199219 240.761719 143.707031 241.429688 142.636719 241.519531 L 137.996094 241.964844 L 138.222656 244.460938 C 138.238281 244.839844 138.378906 245.199219 138.621094 245.488281 C 138.789062 245.570312 138.980469 245.589844 139.15625 245.53125 L 143.929688 245.085938 C 144.242188 245.164062 144.566406 245.0625 144.777344 244.820312 C 145.269531 244.375 145.355469 243.257812 145.132812 241.519531 C 145.269531 241.160156 145.445312 240.984375 145.625 240.984375 C 145.804688 240.984375 145.980469 241.117188 146.160156 241.429688 Z M 135.902344 230.8125 L 131.398438 231.214844 C 131.085938 231.261719 130.726562 231.394531 130.773438 232.242188 L 131.085938 235.273438 L 136.304688 234.785156 Z M 136.390625 236.078125 L 131.171875 236.566406 L 131.53125 240.3125 C 131.574219 240.761719 131.710938 241.074219 131.886719 241.160156 C 132.066406 241.25 132.109375 241.25 132.332031 241.207031 L 136.839844 240.761719 Z M 142.234375 231.171875 C 142.289062 230.90625 142.222656 230.628906 142.054688 230.414062 C 141.898438 230.273438 141.679688 230.222656 141.476562 230.277344 L 136.972656 230.679688 L 137.328125 234.695312 L 142.546875 234.203125 Z M 142.949219 240.136719 C 143.082031 239.957031 143.082031 239.691406 142.992188 239.242188 L 142.679688 235.496094 L 137.460938 235.988281 L 137.910156 240.671875 L 142.414062 240.269531 C 142.601562 240.292969 142.792969 240.246094 142.949219 240.136719 Z M 124.214844 227.738281 L 121.183594 227.46875 C 120.203125 227.378906 119.667969 228.003906 119.578125 229.207031 L 118.0625 247.183594 C 118.195312 247.539062 118.328125 247.71875 118.507812 247.71875 L 118.550781 247.71875 C 118.730469 247.71875 118.910156 247.585938 119.085938 247.273438 L 120.558594 229.609375 C 120.585938 229.351562 120.675781 229.109375 120.828125 228.894531 C 120.972656 228.765625 121.167969 228.703125 121.363281 228.71875 L 123.816406 228.941406 C 123.921875 228.925781 124.027344 228.980469 124.082031 229.074219 C 124.179688 229.351562 124.164062 229.65625 124.039062 229.921875 C 123.5625 231.875 122.890625 233.773438 122.03125 235.585938 C 121.804688 236.175781 121.804688 236.828125 122.03125 237.414062 C 123.457031 239.867188 124.082031 241.785156 123.859375 243.035156 C 123.636719 244.285156 123.636719 244.550781 123.234375 244.910156 C 122.894531 245.179688 122.457031 245.292969 122.03125 245.21875 C 121.410156 245.03125 120.84375 244.695312 120.378906 244.238281 L 120.335938 244.238281 C 120.140625 244.222656 119.945312 244.289062 119.800781 244.417969 C 119.621094 244.550781 119.578125 244.820312 119.578125 245.21875 L 119.621094 245.21875 C 120.023438 245.753906 120.828125 246.203125 122.03125 246.515625 C 123.234375 246.828125 124.484375 245.753906 124.839844 243.835938 C 125.195312 241.921875 124.574219 239.46875 122.96875 236.835938 C 122.816406 236.53125 122.851562 236.167969 123.054688 235.898438 C 123.964844 233.898438 124.695312 231.824219 125.242188 229.699219 C 125.378906 229.226562 125.347656 228.722656 125.152344 228.273438 C 124.921875 227.976562 124.585938 227.785156 124.214844 227.738281 Z M 124.214844 227.738281"/><path fill="none" stroke="#039" stroke-miterlimit="10" stroke-width="2" d="M 506.697591 283.104306 C 506.697591 405.979895 407.083411 505.602834 284.199064 505.602834 C 161.314717 505.602834 61.700536 405.979895 61.700536 283.104306 C 61.700536 160.219959 161.314717 60.597021 284.199064 60.597021 C 407.083411 60.597021 506.697591 160.219959 506.697591 283.104306 Z M 506.697591 283.104306" transform="rotate(.172) scale(.44602)"/><path fill="none" stroke="#039" stroke-miterlimit="10" stroke-width="4" d="M 563.003162 282.5 C 563.003162 437.412574 437.412574 563.003162 282.5 563.003162 C 127.587426 563.003162 1.996838 437.412574 1.996838 282.5 C 1.996838 127.587426 127.587426 1.996838 282.5 1.996838 C 437.412574 1.996838 563.003162 127.587426 563.003162 282.5 Z M 563.003162 282.5" transform="rotate(.172) scale(.44602)"/></g></svg>