<svg xmlns="http://www.w3.org/2000/svg" viewBox="0 0 772.29505 475.84413"><defs><style>.cls-1{fill:#fdfdfe;}.cls-2{fill:#261f4d;}.cls-3{fill:#9569cd;}</style></defs><title>Asset 1</title><g id="Layer_2" data-name="Layer 2"><g id="Layer_1-2" data-name="Layer 1"><path class="cls-1" d="M386.14752,475.658q-189.1312,0-378.262.186c-6.59237.01316-7.8957-1.29415-7.88542-7.88625q.35879-230.03689,0-460.07432C-.01018,1.29185,1.29378-.00563,7.885,0q378.26214.32415,756.5245.00006c6.59028-.00565,7.89574,1.29035,7.88546,7.88288q-.35882,230.03688,0,460.07431c.01022,6.591-1.2916,7.89991-7.88493,7.88675Q575.27934,475.46626,386.14752,475.658ZM489.51345,289.04622q0-12.02157-.00041-24.04317c0-.32055-.01022-.64107-.00925-.96162.01-3.344-.29608-7.17848-4.24489-7.522-5.94316-.517-12.75583-2.58648-17.74016,1.29953-5.34295,4.16564-8.46505,3.32763-13.92482-.04236-10.98574-6.78085-22.15145-1.1378-22.1778,10.14294-.03443,14.74639.13115,29.49507-.09244,44.23813-.06674,4.3991.95595,6.19556,5.78534,6.17309,4.80348-.02241,5.89649-1.79567,5.81824-6.21087-.23293-13.13947-.12771-26.286-.03472-39.429.01472-2.08429-1.085-4.87019,1.2411-6.102,2.6197-1.38729,4.72958,1.09183,7.03326,2.04666,3.78041,1.56688,3.62433,4.72864,3.60867,7.99934-.05519,11.54045.08351,23.08282-.07484,34.62139-.05848,4.26008.02882,7.08736,5.84614,7.14966,6.10548.06541,5.66538-3.18443,5.62925-7.22812-.1061-11.86033.15885-23.72676-.115-35.58172-.14848-6.42579,4.265-8.95993,8.86344-9.067,5.509-.12824,2.96775,5.30706,3.03886,8.19867q.46082,18.74236.03161,37.50175c-.10877,4.62387,1.34738,5.99424,5.93262,6.11981,4.98087.13638,5.8341-1.90447,5.6709-6.22482C489.30822,304.44173,489.51692,296.74,489.51345,289.04622Zm237.97183-4.90356h-.0309c0,4.47782.63428,9.067-.1286,13.41085-1.7262,9.829,2.798,15.47875,10.99866,19.75954,7.09262,3.70237,25.21357-4.18509,25.9509-12.14727.64615-6.97721.02015-14.0637.2025-21.09552.11438-4.4107-2.72877-4.70861-5.67913-4.16855-4.62281.84615-10.45415-3.01157-13.668,2.60467-1.07147,1.87236-1.76221,7.13013,1.70922,7.25526,9.9081.35727,5.87575,7.37234,5.90524,11.707.031,4.583-4.85256,6.01348-8.29528,6.3098-3.97348.342-5.8136-2.93667-5.76143-7.09876.11632-9.274-.03049-18.55115.06938-27.8255.03178-2.95262-1.02277-7.3422,4.141-6.58273,3.57137.52528,9.62723-3.72816,10.1835,4.33116.32528,4.713,4.09286,2.84934,6.59375,3.13312,2.85742.32428,3.54963-1.51354,4.09832-4.04427,2.55265-11.77412,1.16735-13.58574-11.03438-13.5855-6.077.00015-12.155.08844-18.23052-.00373-4.79611-.07273-7.06677,2.15373-7.036,6.93113C727.519,270.06954,727.48528,277.10621,727.48528,284.14267Zm-348.58245-.28551c0,4.48434.64219,9.08251-.12827,13.43032-1.83312,10.34464,3.33109,16.04248,11.7473,20.3739,6.793,3.496,25.86551-4.9067,26.23091-12.56775.67056-14.05961.26715-28.175.13432-42.26549-.03763-3.98985-2.06931-6.16787-6.45628-6.77613-29.22842-4.05273-31.52789-2.17106-31.52792,26.8442Q378.90289,283.37669,378.90283,283.85716Zm-160.816.056q0,7.21593.00054,14.43186c.01291,17.60777,11.93361,23.97973,27.572,16.68989,11.01937-5.13666,10.1313-13.24448,10.06642-22.21454-.09819-13.576-.02629-13.58356-13.53385-12.99654-3.0525.13268-6.72265-.8908-6.81568,4.27568-.06607,3.66944.5469,5.72213,5.00491,6.3135,7.25548.9625,3.73916,7.14012,3.55985,10.74421-.23844,4.79261-5.16991,6.61589-9.098,6.5664-3.72487-.047-5.62938-3.29308-5.48347-7.56773.27336-8.00833-.227-16.04988.22347-24.04217.187-3.31729-2.71089-8.95746,2.72966-9.554,4.07644-.447,11.69573-4.60116,12.17618,5.20939a2.13344,2.13344,0,0,0,2.743,1.92609c2.65551-.49,7.92347,2.06159,6.91441-3.31708-.8861-4.72356,6.05266-12.58217-3.36919-14.0807C220.44649,251.47354,218.08679,253.74758,218.08679,283.9132Zm-52.38659,3.40464c0,8.31325.43412,16.657-.1464,24.92951-.4151,5.91511,2.91762,7.15122,6.74734,5.56953,5.3598-2.21362,9.6329-.121,14.3989,1.15912,7.95716,2.13731,17.2114-3.86759,17.35725-11.50168.28088-14.70262.08931-29.41452.066-44.12255-.00621-3.91538-1.1713-7.18112-5.81251-7.12014-10.49114.13791-22.45952-2.432-30.93086,1.84111-5.34954,2.6984-1.05517,15.95436-1.664,24.45014C165.60185,284.11344,165.69954,285.71913,165.70021,287.31785Zm509.78-.75824c0,8.658.29732,17.33017-.11238,25.96879-.24233,5.10843,2.04843,5.64884,6.26653,5.66544,4.5737.018,5.19993-2.21767,5.15587-5.96164-.132-11.22181.244-22.45605-.13817-33.66635-.28615-8.39224,6.74866-11.15581,11.5967-11.51684,5.89355-.43892,2.45889,6.42238,2.6118,9.8102.52008,11.5206.39959,23.08425.104,34.62071-.12337,4.81244,1.0048,6.74408,6.29267,6.78071,5.48444.038,5.27718-2.84033,5.25081-6.61819-.0964-13.788-.0356-27.57717-.0383-41.36588-.00282-14.67169-6.40112-18.5748-19.66974-11.84188-2.73652,1.38859-4.76756,4.26607-7.007-.97122-1.22339-2.86115-5.30415-1.49063-7.96659-1.16221-3.933.48513-2.20692,4.02122-2.26432,6.21046C675.35208,270.52292,675.47891,278.54291,675.48021,286.55961Zm-84.41137.86416c0-8.33566-.13471-16.67441.05816-25.00561.09329-4.02926-.28439-6.39927-5.4694-6.50519-5.53114-.113-6.19092,2.26294-6.10081,6.80943.22864,11.53713-.06932,23.08423.1219,34.62271.134,8.0857-6.841,9.67573-11.55323,10.10381-5.311.48251-3.22423-5.82091-3.30037-9.19938-.27458-12.17668-.21789-24.3649-.04512-36.5453.05463-3.85126-.63176-5.80191-5.17708-5.74422-4.415.05607-6.2596,1.09776-6.17248,5.89132.26218,14.42237-.08477,28.85555.1592,43.27854.18023,10.65567,11.60927,16.74121,20.83251,11.3621,3.00881-1.75475,5.38163-4.91977,8.40554,1.016.99264,1.94847,8.75068,2.90345,8.33751-5.08223C590.735,304.11237,591.06924,295.75943,591.06883,287.42377ZM223.62315,182.88368c0,7.3693-.08429,14.73994.03275,22.10739.0663,4.17424-1.62732,9.21874,6.01276,9.08251,7.132-.12716,5.34963-4.86377,5.40237-8.63634.14328-10.251.30516-20.51338-.026-30.75556-.26615-8.23174,6.39949-11.40117,11.48337-11.63614,5.54988-.25652,2.58742,6.601,2.72463,10.17835.42941,11.19774.24738,22.4233.11641,33.63592-.05064,4.33489.367,7.26266,6.05222,7.23533,5.654-.02721,6.09763-2.92134,6.05619-7.27622-.12807-13.45576-.03225-26.91353-.04811-40.37051-.01748-14.83916-7.04054-18.95875-20.66418-11.97637-2.77766,1.42361-4.74767,4.18151-6.68626-1.29-.8573-2.41966-5.28876-1.37145-7.98251-.751-3.50956.80839-2.38328,4.07315-2.42091,6.42309C223.54762,166.86219,223.62682,174.87357,223.62315,182.88368Zm354.27222,4.04178c0-6.40483.05751-12.81031-.01533-19.21431-.08089-7.10787-9.09669-16.65954-16.17945-17.25772-5.48532-.46323-21.81022,9.9363-21.92807,14.68633-.3654,14.72135-.13048,29.4569-.20949,44.1865-.0215,4.01856,2.34639,4.66389,5.61879,4.62091,3.08782-.04056,5.86518-.14269,5.74234-4.38005-.0927-3.19909.291-6.43293-.03648-9.59968-.59868-5.78706,1.56048-7.76719,7.512-7.83945,6.3298-.07683,8.8136,1.98389,8.06346,8.24323-.3026,2.52523.13905,5.13346-.07925,7.67632-.40905,4.76622,1.91307,5.96769,6.28662,5.97734,4.4871.00988,5.3317-2.19228,5.25739-5.96432C577.7891,201.018,577.888,193.97074,577.89538,186.92546Zm-286.82675-6.75927q0,6.73244.00038,13.46487c.01,18.23618,11.75306,24.64047,27.99389,16.883,10.84907-5.18207,9.94746-13.4462,9.87176-22.42349-.1098-13.01782-.03413-13.07671-13.12284-12.54826-2.8781.1162-6.78174-1.40037-7.36189,3.70111-.482,4.2385.95983,6.184,5.44208,7.15834,6.10733,1.32765,3.60388,6.84486,3.14225,10.40047-.61745,4.75562-5.22463,6.76489-9.27264,6.5866-3.82823-.16862-5.40607-3.69284-5.31963-7.80717.18855-8.97258-.02294-17.95306.10665-26.92773.03763-2.60749-1.17081-6.58376,3.36669-6.47435,3.7882.09137,9.37838-2.6759,10.91827,2.63135,1.40342,4.837,4.24616,5.85669,7.55766,4.52676,5.99542-2.40782,2.38137-8.26587,3.23531-12.5325.76776-3.83583-1.85025-4.86624-5.23929-4.83523-8.01406.07334-16.02932.05569-24.04388.02175-5.41494-.02293-7.29021,3.06-7.26786,7.97725C291.10617,166.70127,291.08323,173.43378,291.06863,180.16619Zm329.30716,8.02559c12.76376-5.43672,7.664-15.717,8.53085-23.94054.88895-8.43411-2.12938-13.50871-11.95623-12.316-5.67266.68849-11.49413.407-17.23518.19536-4.632-.17072-6.96579.9637-6.87444,6.31522.28357,16.60873.18135,33.226.05017,49.83851-.03161,3.99281,1.191,5.827,5.45489,5.71733,3.71706-.09561,6.31629-.72922,6.01186-5.21525a20.01163,20.01163,0,0,1,.0682-5.733c.92561-4.01628-2.843-10.94337,2.51945-11.54191,5.307-.59237,7.99549,6.25882,10.25165,11.10724.75795,1.62877.62024,3.77541.54235,5.671-.16091,3.91972,1.17252,5.76871,5.47686,5.71734,4.92412-.05878,4.53727-3.0942,4.66528-6.41177C628.159,200.40028,628.00929,193.43345,620.37579,188.19178ZM5.92454,284.59681c0,4.16855.606,8.4459-.11885,12.48436C3.96911,307.31407,8.87021,313.12987,17.33612,317.543c7.74357,4.03661,26.49053-5.303,26.74688-14.06934.38411-13.13568.10872-26.291.09241-39.43794-.00688-5.54413-2.68224-8.12776-8.35837-7.97361-7.3697.20015-14.75166.17172-22.12323.00958-5.883-.12936-7.94631,2.8146-7.80688,8.32471C6.05721,271.12589,5.92746,277.863,5.92454,284.59681Zm108.048-105.03545c-.74672-32.87142,5.83137-26.72008-28.7438-27.60573-7.24352-.18554-9.70794,3.04542-9.63494,9.705.12255,11.18035-.0022,22.36316.036,33.54472.0545,15.96023,12.67266,22.94937,26.9963,15.99667,8.6626-4.20483,13.00243-9.38716,11.45247-19.1978C113.43834,187.95214,113.97239,183.71456,113.97252,179.56136ZM507.9074,152.08427v-.03868a37.48362,37.48362,0,0,1-5.76208-.04259c-9.48595-1.49311-11.54812,3.23726-12.53711,11.89641-1.62836,14.25721,8.07181,18.0645,17.7394,22.46414,4.91977,2.23893,8.16474,5.37375,6.71447,11.08633-1.09967,4.3316-5.40237,6.22931-8.84279,5.92433-5.439-.48213-5.18231-5.55931-4.99931-9.80309.165-3.82749-1.85069-5.13255-5.35291-4.8622-2.4318.18774-4.93484-.47944-5.97577,3.14882-2.58378,9.00631,3.41572,19.25894,13.82181,22.90581,4.864,1.70463,21.42391-7.5446,22.87647-12.77725,3.08172-11.10138-.38179-18.82023-10.90379-24.29018-2.84156-1.47719-5.656-3.01166-8.54142-4.398-3.39442-1.63086-4.36538-4.35573-4.0629-7.89546.26448-3.09512,2.34856-3.3659,4.72955-3.409,3.57712-.06474,6.60855-.47717,7.31932,4.9228.85793,6.51852,6.61073,4.76932,9.51785,2.57757,3.59445-2.71,1.69166-7.76441,1.33666-11.76278-.31406-3.53785-2.5809-5.73417-6.50216-5.66086C514.95872,152.13626,511.43259,152.08427,507.9074,152.08427Zm-51.6499-.00228q-5.27708,0-10.5541.00129c-3.1501.005-5.45786,1.03251-6.5333,4.38417-3.70287,11.54.58168,21.79927,11.60187,27.4027a48.6512,48.6512,0,0,0,5.11184,2.62493c5.2805,1.93308,7.88555,5.47228,6.445,11.07421a8.07314,8.07314,0,0,1-7.931,5.84611c-6.08753-.21266-6.02831-5.44264-5.8294-10.02865.21213-4.89035-3.0764-4.59664-6.40455-4.7236-3.66706-.1399-4.61159,1.46875-5.21735,5.00541-1.71345,10.00311,3.3108,15.3446,11.4607,19.51609,7.43094,3.80347,24.53338-4.47792,25.58664-12.79693,1.78927-14.13258.45446-16.65034-12.303-23.30971-2.83151-1.478-5.66738-2.95253-8.44567-4.52676-3.03037-1.71707-3.0764-4.64685-2.72695-7.579.46377-3.8913,3.61883-2.78638,5.9681-2.96553,3.07628-.23456,5.349.06537,5.7881,4.28024.797,7.65073,6.91406,5.43888,9.76855,3.03907,3.51221-2.95272,1.62771-8.39222,1.12476-12.70389-.38538-3.30359-3.1063-4.56886-6.35638-4.54262C463.29364,152.10793,459.7755,152.086,456.25751,152.082Zm48.2429,135.8257c0,8.31431.20685,16.6359-.08677,24.93985-.1481,4.1875,1.18873,5.56475,5.38475,5.45507,4.03082-.10539,7.22357-.44809,6.16349-5.57556-1.9737-9.54657,3.44265-12.09082,11.4251-12.58217,10.28073-.63284,13.66005-5.833,13.30076-16.34235-1.1304-33.0642,4.15877-26.90553-28.13961-27.66089-7.09573-.16593-8.60258,2.37241-8.17068,8.75015C504.89477,272.53148,504.49964,280.233,504.50041,287.90769ZM128.87584,182.9415c0,7.67389-.09207,15.34937.04108,23.02094.06129,3.53173-1.38826,7.82879,5.00281,8.0884,6.33889.2575,6.65919-3.28981,6.33637-7.85359-.31222-4.41392.1216-7.85747,5.56743-9.40479,18.32427-5.20644,18.27281-5.39048,18.27124-24.11145-.00034-4.15667-.13689-8.31816.01852-12.46884.207-5.52775-1.96467-8.389-7.82917-8.19837-7.02821.22836-14.07769.3997-21.09715.103-5.23722-.22134-6.53751,2.10313-6.3799,6.84621C129.07242,166.94784,128.87978,174.94787,128.87584,182.9415Zm293.42737-3.03962c-.826-33.50685,6.29673-27.13073-29.39017-27.84653-.31937-.0064-.63966.02369-.95877.01348-4.76083-.15215-7.10173,2.13577-7.09629,6.91408.016,14.0661-.26521,28.13926.10589,42.19549.19166,7.2608,13.29764,15.5765,19.816,13.18228,15.46245-5.67939,17.52274-8.60317,17.5233-24.868Q422.30336,184.69727,422.30321,179.90188ZM119.55761,285.96636c.86027,38.43673-6.30247,31.28142,27.18279,32.1069a8.595,8.595,0,0,1,.96028.00214c4.05.56294,4.78473-1.6182,4.63651-5.10133-.438-10.29344-8.16072-4.70831-12.18875-4.9613-6.31666-.39677-9.593-.69705-9.44164-8.70444.1414-7.47717,2.36256-9.65305,9.24588-8.594,2.1902.33706,4.48458-.073,6.71813.06773,3.87768.24427,3.92359-2.27058,3.8395-5.00278-.0874-2.83921.55407-6.09446-4.00628-5.95826-2.56056.07649-5.14475-.20044-7.68465.03886-5.17134.48727-8.09677-.21031-8.02366-6.8955.07258-6.63766,3.53368-6.24811,7.87815-6.08835,2.87941.10592,5.78541-.19971,8.64517.05881,4.70781.42562,4.96088-2.29,5.07186-5.92692.11394-3.73354-1.12156-4.688-4.8492-5.01579-27.99269-2.46121-27.9841-2.55884-27.98409,25.16846Zm150.2177-.321q0,6.24582-.00059,12.49164c-.02268,23.08945-1.39,20.03,20.16662,19.65285,4.04489-.07076,12.15567,5.24558,12.39351-4.54415.25519-10.50243-8.40854-5.05239-12.67417-5.21168-6.42165-.2398-8.71731-1.439-8.67017-8.42707.04659-6.907,1.3682-9.60667,8.87158-9.15071,3.68063.22368,11.22945,4.4327,10.90555-5.319-.3145-9.46876-7.57731-3.6406-11.42625-5.30453a1.90061,1.90061,0,0,0-.95348-.00972c-5.019.71559-7.33986-.60441-7.34511-6.51326-.00535-6.04658,2.61374-6.90331,7.482-6.46066,2.85886.26,5.77662-.1476,8.64.08627,4.24768.347,5.39838-1.49671,5.48045-5.579.08653-4.30379-1.42536-5.47918-5.50853-5.32747-7.35677.27335-14.73948.29332-22.0945-.00173-4.34676-.17439-5.46884,1.54144-5.34007,5.59817C269.95611,269.62474,269.777,277.63789,269.77531,285.64537Zm-92.28183-104.463c0,2.5636-.01354,5.12728.00209,7.69078.178,29.20841-3.13476,24.66618,26.00125,25.06355.64057.00872,1.28613-.06759,1.92167-.01359,3.94383.33506,4.85041-1.87029,4.81266-5.30767-.10159-9.25048-7.13273-5.32806-11.29453-5.59267-9.38918-.59694-12.9171-4.45923-9.70485-12.967,2.55843-6.77618,8.8718-2.56556,13.41311-3.19175,3.81859-.52657,5.85579-1.34325,5.84777-5.60594-.00749-3.98377-1.29462-6.04551-5.52191-5.77359-2.23351.14366-4.48816-.06939-6.7269.027-4.15.17869-7.50358.08189-7.38976-5.80458.09891-5.11582,1.29158-7.9925,6.99745-7.49452,2.86155.24972,5.7708-.098,8.64652.05268,3.95974.20745,5.87547-1.16786,5.76234-5.48194-.104-3.9672-2.17893-4.46927-5.47476-4.79538-27.29753-2.70088-27.29217-2.75491-27.29215,24.38792Q177.49351,178.779,177.49349,181.18242ZM58.31331,286.6452c0,8.6583.30874,17.3317-.11478,25.96923-.25767,5.255,2.39993,5.41647,6.37683,5.59133,4.395.19328,5.63716-1.52174,5.2444-5.5772-.27692-2.85933-.05529-5.767-.05526-8.65313.00019-12.7909.011-13.29485,12.92063-13.0216,7.928.16781,7.95-4.42046,6.14213-8.99339-1.74949-4.4251-6.775-1.54444-10.302-2.07665-4.04069-.60967-8.85515,1.623-9.00788-6.09652-.15792-7.98092,4.57756-6.83293,9.28688-6.88607a58.30814,58.30814,0,0,1,6.72979.03407c4.14165.43593,5.62143-1.15448,5.62964-5.38243.00784-4.03849-.96481-5.7362-5.34631-5.53793-7.36056.33312-14.75289.26985-22.12037.026-4.22579-.13988-5.57812,1.463-5.456,5.59365C58.48718,269.96489,58.3143,278.3076,58.31331,286.6452Zm272.93714-2.74345c0,6.40987.24018,12.83173-.07981,19.22559-.2349,4.693,1.51427,7.647,5.36939,10.29676,11.36521,7.81159,12.62479,7.67553,25.324-.677,3.93589-2.58872,3.20118-4.2152,1.26037-7.39387-3.56252-5.83469-6.55483-1.15489-9.38934.37715-5.40164,2.91969-10.33307,3.99237-10.82025-3.9776-.644-10.53668-.09-21.14331-.1854-31.71861-.03313-3.67294,2.09466-4.32311,4.94016-3.88237,2.44664.37891,6.6317-1.78433,6.53,3.03736-.09984,4.73719,1.75916,6.77571,6.14689,5.67169,7.86569-1.97919,3.38229-8.89854,4.85239-13.43958,1.04974-3.2425-.23017-4.93557-4.245-5.42972-28.19754-3.47065-29.70432-2.25633-29.70429,25.98723Q331.24957,282.94028,331.25045,283.90175ZM679.694,170.747c0-5.28046-.16543-8.49726.03977-11.69026.289-4.49639-.55674-7.19681-6.13382-7.07326-5.21673.11554-5.55276,2.8456-5.459,6.77226.1377,5.76774-.1528,11.54874.08019,17.31028.20373,5.0382-2.13954,8.75285-6.79971,8.59785-4.19948-.13968-7.4807-3.34873-7.39246-8.48782.08794-5.1282.14128-10.26422-.04482-15.38754-.13841-3.81237,1.60783-8.62757-5.41859-8.77432-6.77527-.14151-5.86747,4.19713-5.87369,8.31246-.00975,6.41234.03372,12.82485-.00159,19.237-.01833,3.32867.18981,6.93553,3.54769,8.33142,8.445,3.51068,9.50733,10.16241,8.77453,18.02017-.39883,4.27638-.6092,8.23308,6.03172,8.10971,7.18444-.13346,4.93922-4.99154,5.41295-8.70638.57824-4.534-2.21239-10.4871,3.30466-13.10618C680.41372,187.15554,680.61657,178.2905,679.694,170.747ZM614.2825,292.169c0,5.45037-.27869,10.91983.09217,16.34482.27382,4.00418-2.9204,9.99055,5.91288,9.738,8.96945-.2564,5.17585-6.48983,5.3354-10.23238.46386-10.881.44254-21.80441.05481-32.69137-.214-6.00837.42785-10.1027,7.94062-8.93259,4.07259.63425,4.491-2.08887,4.60953-5.3767.1357-3.76291-1.22169-5.05665-4.97558-4.97217-8.97256.20182-17.95382.14919-26.9292.02456-3.27681-.04547-4.60812,1.19487-4.42947,4.47879.15809,2.90595-.2828,6.52128,4.08158,5.787,9.49611-1.59778,8.493,4.552,8.33569,10.44354C614.17412,281.90664,614.28245,287.03927,614.2825,292.169ZM342.848,181.23448c0,3.19325-.03231,6.38689.00508,9.57969.31027,26.48966-3.91976,22.85306,24.63812,23.121.63834.006,1.2787-.05669,1.91519-.0262,3.34666.16026,4.34826-1.6504,4.38239-4.72469.03748-3.37744-.81446-5.61643-4.73792-5.46839-2.23133.08421-4.498-.24838-6.69905.01784-6.23037.75351-8.37141-1.63923-8.12136-8.0461.48533-12.43465.03751-24.903.19078-37.35477.05167-4.19659-.87682-6.459-5.7668-6.45613-4.80263.00285-5.97312,2.07533-5.85751,6.36794C343.00318,165.90288,342.855,173.57068,342.848,181.23448ZM660.43621,287.44571c0-8.65166-.1867-17.30914.081-25.95252.1286-4.15222-1.17175-5.54988-5.4012-5.51373-4.24513.03628-6.31764.708-6.22893,5.72348q.45029,25.4664.00411,50.94479c-.09141,5.23089,2.46981,5.37347,6.44212,5.53687,4.55372.18728,5.26385-1.893,5.16709-5.74677C660.2914,304.11184,660.43609,295.777,660.43621,287.44571Z"/><path class="cls-2" d="M489.51519,289.04622c.00173,7.6938-.207,15.39551.08333,23.07835.1632,4.32035-.69,6.3612-5.6709,6.22482-4.58524-.12557-6.04138-1.49595-5.93262-6.11981q.441-18.74328-.03161-37.50175c-.07111-2.89161,2.47011-8.32691-3.03886-8.19867-4.59849.10709-9.01192,2.64124-8.86344,9.067.27388,11.855.00893,23.72139.115,35.58172.03613,4.04369.47623,7.29353-5.62925,7.22812-5.81733-.0623-5.90462-2.88959-5.84614-7.14966.15835-11.53857.01965-23.08094.07484-34.62139.01566-3.2707.17174-6.43246-3.60867-7.99934-2.30368-.95483-4.41355-3.434-7.03326-2.04666-2.32609,1.23179-1.22639,4.01769-1.2411,6.102-.093,13.143-.19821,26.28951.03472,39.429.07825,4.4152-1.01475,6.18846-5.81824,6.21087-4.82939.02247-5.85207-1.774-5.78534-6.17309.22359-14.74307.058-29.49175.09244-44.23813.02635-11.28074,11.19206-16.92379,22.1778-10.14294,5.45977,3.37,8.58187,4.208,13.92482.04236,4.98433-3.886,11.797-1.8165,17.74016-1.29953,3.94881.34349,4.25491,4.178,4.24489,7.522-.001.32055.00922.64107.00925.96162Q489.51388,277.02462,489.51519,289.04622Z"/><path class="cls-2" d="M727.48528,284.14267c0-7.03646.03372-14.07313-.01169-21.10929-.03078-4.7774,2.23988-7.00386,7.036-6.93113,6.07549.09217,12.15356.00388,18.23052.00373,12.20173-.00023,13.587,1.81138,11.03438,13.5855-.54869,2.53073-1.2409,4.36855-4.09832,4.04427-2.50089-.28377-6.26847,1.57987-6.59375-3.13312-.55627-8.05932-6.61213-3.80588-10.1835-4.33116-5.1638-.75947-4.10925,3.63011-4.141,6.58273-.09987,9.27434.04694,18.55153-.06938,27.8255-.05217,4.16209,1.78794,7.44075,5.76143,7.09876,3.44271-.29632,8.32629-1.72679,8.29528-6.3098-.02949-4.33469,4.00286-11.34976-5.90524-11.707-3.47144-.12513-2.7807-5.3829-1.70922-7.25526,3.21384-5.61624,9.04517-1.75851,13.668-2.60467,2.95036-.54005,5.7935-.24215,5.67913,4.16855-.18235,7.03182.44365,14.1183-.2025,21.09552-.73733,7.96218-18.85828,15.84964-25.9509,12.14727-8.20069-4.28079-12.72487-9.93051-10.99866-19.75954.76288-4.34385.1286-8.933.1286-13.41085Z"/><path class="cls-2" d="M378.90286,283.85716l0-.96094c0-29.01526,2.29951-30.89693,31.52792-26.8442,4.387.60826,6.41865,2.78628,6.45628,6.77613.13283,14.09046.53624,28.20588-.13432,42.26549-.3654,7.66105-19.4379,16.06372-26.23091,12.56775-8.41621-4.33143-13.58042-10.02926-11.7473-20.3739C379.545,292.93967,378.90283,288.3415,378.90286,283.85716Zm26.81905,1.21925c0-4.47474-.24741-8.96639.05675-13.42037.48178-7.05546-4.509-5.29034-8.36894-5.56854-4.21887-.30407-7.44724-.063-7.21029,5.76613.37612,9.25378.20943,18.53611.04761,27.80244-.07534,4.31451,1.08487,8.61318,5.6541,8.09724,4.214-.47579,9.85214-1.66293,9.81807-8.29387C405.6946,294.66522,405.71442,289.87076,405.72191,285.07641Z"/><path class="cls-2" d="M218.08676,283.9132c0-30.16563,2.35972-32.43967,32.69028-27.6158,9.42185,1.49853,2.48309,9.35715,3.36919,14.0807,1.00906,5.37867-4.2589,2.82708-6.91441,3.31708a2.13344,2.13344,0,0,1-2.743-1.92609c-.48044-9.81055-8.09974-5.65636-12.17618-5.20939-5.44056.59657-2.54267,6.23675-2.72966,9.554-.45051,7.99229.04989,16.03384-.22347,24.04217-.14591,4.27465,1.7586,7.52076,5.48347,7.56773,3.928.04949,8.85952-1.77379,9.098-6.5664.17931-3.60409,3.69563-9.78171-3.55985-10.74421-4.458-.59137-5.071-2.64405-5.00491-6.3135.093-5.16648,3.76317-4.143,6.81568-4.27568,13.50756-.587,13.43565-.5795,13.53385,12.99654.06489,8.97007.953,17.07788-10.06642,22.21454-15.63835,7.28983-27.55905.91788-27.572-16.68989Q218.08205,291.12913,218.08676,283.9132Z"/><path class="cls-2" d="M165.69987,287.31785c-.00032-1.59872-.098-3.20441.016-4.795.60888-8.49578-3.6855-21.75174,1.664-24.45014,8.47134-4.27309,20.43972-1.7032,30.93086-1.84111,4.64121-.061,5.8063,3.20476,5.81251,7.12014.02335,14.708.21492,29.41993-.066,44.12255-.14585,7.63409-9.40009,13.639-17.35725,11.50168-4.766-1.28017-9.03911-3.37274-14.3989-1.15912-3.82972,1.58169-7.16244.34558-6.74734-5.56953C166.13433,303.97484,165.70021,295.6311,165.69987,287.31785Zm27.00547.1513c0-5.12189-.40266-10.28369.09968-15.35582.6606-6.67015-3.445-6.15582-7.76979-6.04385-4.08074.10571-8.40052-1.064-8.04146,5.83169a191.92662,191.92662,0,0,1-.07086,27.82638c-.88139,9.38332,6.15691,8.87005,11.117,9.32454,6.80216.62333,4.28673-5.51067,4.58722-9.105C192.97257,295.81442,192.70731,291.63068,192.70534,287.46915Z"/><path class="cls-2" d="M675.47956,286.55961c-.00065-8.0167-.12748-16.03669.08248-24.0479.0574-2.18924-1.66869-5.72533,2.26432-6.21046,2.66244-.32842,6.7432-1.69894,7.96659,1.16221,2.23947,5.23729,4.27051,2.35981,7.007.97122,13.26862-6.73292,19.66692-2.82981,19.66974,11.84188.0027,13.7887-.0581,27.57785.0383,41.36588.02638,3.77786.23363,6.65617-5.25081,6.61819-5.28787-.03663-6.416-1.96827-6.29267-6.78071.29561-11.53646.4161-23.10012-.104-34.62071-.15292-3.38781,3.28175-10.24912-2.6118-9.8102-4.848.361-11.88286,3.1246-11.5967,11.51684.3822,11.2103.00617,22.44454.13817,33.66635.04406,3.744-.58218,5.97967-5.15587,5.96164-4.2181-.0166-6.50886-.557-6.26653-5.66544C675.77752,303.88978,675.48021,295.21764,675.47956,286.55961Z"/><path class="cls-2" d="M591.06907,287.42377c.00018,8.33566-.33409,16.6886.09611,25.002.41316,7.98568-7.34488,7.0307-8.33751,5.08223-3.02391-5.93579-5.39673-2.77077-8.40554-1.016-9.22323,5.37911-20.65227-.70642-20.83251-11.3621-.244-14.423.103-28.85617-.1592-43.27854-.08712-4.79355,1.75746-5.83524,6.17248-5.89132,4.54532-.05769,5.23171,1.893,5.17708,5.74422-.17277,12.18041-.22946,24.36863.04512,36.5453.07614,3.37847-2.01065,9.6819,3.30037,9.19938,4.71222-.42808,11.68723-2.01811,11.55323-10.10381-.19122-11.53849.10674-23.08558-.1219-34.62271-.09012-4.5465.56966-6.92243,6.10081-6.80943,5.185.10592,5.56269,2.47592,5.4694,6.50519C590.93413,270.74936,591.06883,279.0881,591.06907,287.42377Z"/><path class="cls-3" d="M223.625,182.88368c.00184-8.01011-.07737-16.02149.0509-24.02954.03763-2.34994-1.08866-5.6147,2.42091-6.42309,2.69375-.62046,7.12521-1.66868,7.98251.751,1.93858,5.47152,3.9086,2.71363,6.68626,1.29,13.62364-6.98238,20.64671-2.8628,20.66418,11.97637.01586,13.457-.08,26.91475.04811,40.37051.04145,4.35488-.40221,7.249-6.05619,7.27622-5.68526.02733-6.10286-2.90044-6.05222-7.23533.131-11.21262.313-22.43818-.11641-33.63592-.1372-3.57736,2.82526-10.43486-2.72463-10.17835-5.08388.235-11.74952,3.40439-11.48337,11.63614.33114,10.24217.16926,20.50459.026,30.75556-.05274,3.77257,1.72961,8.50919-5.40237,8.63634-7.64008.13623-5.94647-4.90827-6.01276-9.08251C223.53887,197.62362,223.62315,190.253,223.625,182.88368Z"/><path class="cls-3" d="M577.89168,186.92546c-.00364,7.04529-.10257,14.09254.03625,21.1351.07431,3.772-.77028,5.97421-5.25739,5.96432-4.37355-.00965-6.69567-1.21111-6.28662-5.97734.2183-2.54286-.22335-5.1511.07925-7.67632.75013-6.25933-1.73366-8.32005-8.06346-8.24323-5.95153.07226-8.1107,2.05239-7.512,7.83945.32751,3.16675-.05622,6.40059.03648,9.59968.12284,4.23736-2.65451,4.33949-5.74234,4.38005-3.27241.043-5.64029-.60236-5.61879-4.62091.079-14.7296-.15591-29.46515.20949-44.1865.11785-4.75,16.44275-15.14956,21.92807-14.68633,7.08275.59818,16.09855,10.14985,16.17945,17.25772C577.95289,174.11514,577.89538,180.52062,577.89168,186.92546ZM566.321,173.789c.17078-4.992,1.00914-11.17838-5.59576-11.0136-5.09184.127-10.09926,2.91107-9.93818,10.22412.12372,5.61186.81346,8.71766,7.63074,8.47121C564.30253,181.258,567.68051,180.15126,566.321,173.789Z"/><path class="cls-3" d="M291.07591,180.16619c.00731-6.73242.03025-13.46492-.00035-20.19721-.02235-4.91722,1.85292-8.00018,7.26786-7.97725,8.01456.03394,16.02982.05159,24.04388-.02175,3.389-.031,6.007.99941,5.23929,4.83523-.85394,4.26663,2.76011,10.12468-3.23531,12.5325-3.3115,1.32993-6.15424.31021-7.55766-4.52676-1.53989-5.30725-7.13007-2.54-10.91827-2.63135-4.53751-.10942-3.32907,3.86686-3.36669,6.47435-.12959,8.97468.08189,17.95516-.10665,26.92773-.08645,4.11433,1.49139,7.63855,5.31963,7.80717,4.048.1783,8.65519-1.831,9.27264-6.5866.46163-3.55561,2.96507-9.07281-3.14225-10.40047-4.48226-.97435-5.92407-2.91984-5.44208-7.15834.58015-5.10147,4.48378-3.58491,7.36189-3.70111,13.08871-.52845,13.013-.46956,13.12284,12.54826.07569,8.97729.9773,17.24142-9.87176,22.42349-16.24084,7.75744-27.98385,1.35315-27.99389-16.883Q291.06531,186.89862,291.07591,180.16619Z"/><path class="cls-3" d="M620.37579,188.19178c7.6335,5.24167,7.78324,12.2085,7.50573,19.40355-.128,3.31757.25884,6.353-4.66528,6.41177-4.30434.05137-5.63777-1.79762-5.47686-5.71734.0779-1.89558.2156-4.04222-.54235-5.671-2.25615-4.84842-4.94462-11.69961-10.25165-11.10724-5.36248.59854-1.59385,7.52563-2.51945,11.54191a20.01163,20.01163,0,0,0-.0682,5.733c.30442,4.486-2.29481,5.11964-6.01186,5.21525-4.26393.10968-5.4865-1.72451-5.45489-5.71733.13118-16.61252.2334-33.22978-.05017-49.83851-.09135-5.35151,2.24241-6.48593,6.87444-6.31522,5.741.21159,11.56251.49313,17.23518-.19536,9.82685-1.1927,12.84518,3.8819,11.95623,12.316C628.03984,172.47479,633.13955,182.75506,620.37579,188.19178Zm-2.95559-18.03473c.84642-5.50878-.31335-8.402-6.81557-8.36605-9.19086.0509-5.93479,6.49231-6.05381,10.76212-.07649,2.74717-2.57332,8.08429,3.21936,7.89922C613.78892,180.26,619.41176,178.18378,617.4202,170.15705Z"/><path class="cls-2" d="M5.926,284.59681c.00146-6.7338.13121-13.47092-.03908-20.2004-.13943-5.51011,1.92387-8.45407,7.80688-8.32471,7.37158.16214,14.75353.19057,22.12323-.00958,5.67614-.15415,8.3515,2.42948,8.35837,7.97361.01631,13.147.2917,26.30226-.09241,39.43794C43.82666,312.24,25.07969,321.57962,17.33612,317.543c-8.46591-4.41314-13.367-10.22894-11.53043-20.46185C6.53051,293.04271,5.92454,288.76536,5.926,284.59681Zm26.8802.59252c0-4.14217-.43391-8.34092.09693-12.41392.90213-6.92187-3.16613-6.58828-8.03578-6.81957-5.60842-.26639-8.07507.99428-7.66993,7.24724.55508,8.56707.2583,17.19937.08983,25.79907-.0883,4.50722.57695,9.37853,5.83042,8.71461,4.36092-.55116,10.37367-1.81479,9.75689-9.15074C32.50214,294.13651,32.806,289.65014,32.8062,285.18932Z"/><path class="cls-3" d="M113.97246,179.56136c-.00007,4.1532-.53412,8.39078.10605,12.44284,1.55,9.81064-2.78986,14.993-11.45247,19.1978-14.32363,6.9527-26.9418-.03644-26.9963-15.99667-.03818-11.18156.08658-22.36436-.036-33.54472-.073-6.65956,2.39142-9.89052,9.63494-9.705C119.80388,152.84128,113.22579,146.68993,113.97246,179.56136ZM87.024,182.00156c0,4.15836.164,8.32491-.04331,12.47292-.236,4.7219,1.22163,9.31714,6.12607,8.95279,4.732-.35157,9.92489-2.458,9.48129-9.5924-.45569-7.32871-.2554-14.71224-.04962-22.0636.163-5.82176.395-10.22771-8.11768-10.11154-8.18812.11172-7.608,4.48173-7.42142,9.7868C87.123,174.96081,87.02277,178.48295,87.024,182.00156Z"/><path class="cls-3" d="M507.9074,152.08427c3.52519,0,7.05132.052,10.57528-.01389,3.92126-.07332,6.1881,2.123,6.50216,5.66086.355,3.99836,2.2578,9.0528-1.33666,11.76278-2.90712,2.19175-8.65991,3.941-9.51785-2.57757-.71077-5.4-3.7422-4.98753-7.31932-4.9228-2.381.04312-4.46507.3139-4.72955,3.409-.30248,3.53973.66847,6.26461,4.0629,7.89546,2.88538,1.38633,5.69986,2.92079,8.54142,4.398,10.522,5.47,13.9855,13.1888,10.90379,24.29018-1.45256,5.23265-18.01245,14.48188-22.87647,12.77725-10.40609-3.64687-16.40559-13.8995-13.82181-22.90581,1.04093-3.62826,3.544-2.96108,5.97577-3.14882,3.50222-.27035,5.51793,1.03471,5.35291,4.8622-.183,4.24378-.43966,9.321,4.99931,9.80309,3.44042.305,7.74312-1.59273,8.84279-5.92433,1.45027-5.71258-1.7947-8.8474-6.71447-11.08633-9.66759-4.39965-19.36776-8.20694-17.7394-22.46414.989-8.65915,3.05117-13.38952,12.53711-11.89641a37.48362,37.48362,0,0,0,5.76208.04259Z"/><path class="cls-3" d="M456.25751,152.084c3.518.002,7.03614.02394,10.5539-.00445,3.25008-.02624,5.971,1.239,6.35638,4.54262.503,4.31167,2.38745,9.75117-1.12476,12.70389-2.85448,2.39982-8.97151,4.61166-9.76855-3.03907-.4391-4.21487-2.71182-4.5148-5.7881-4.28024-2.34927.17915-5.50433-.92577-5.9681,2.96553-.34945,2.93213-.30342,5.86191,2.72695,7.579,2.77829,1.57423,5.61415,3.04871,8.44567,4.52676,12.75747,6.65937,14.09228,9.17713,12.303,23.30971-1.05326,8.319-18.1557,16.60041-25.58664,12.79693-8.14991-4.17149-13.17416-9.513-11.4607-19.51609.60576-3.53666,1.55029-5.14531,5.21735-5.00541,3.32816.127,6.61669-.16675,6.40455,4.7236-.19891,4.586-.25813,9.816,5.8294,10.02865a8.07314,8.07314,0,0,0,7.931-5.84611c1.44055-5.60193-1.1645-9.14114-6.445-11.07421a48.6512,48.6512,0,0,1-5.11184-2.62493c-11.0202-5.60343-15.30474-15.8627-11.60187-27.4027,1.07544-3.35165,3.3832-4.37916,6.5333-4.38417Q450.98044,152.07487,456.25751,152.084Z"/><path class="cls-2" d="M504.5,287.90769c-.00035-7.67474.39478-15.37621-.12254-23.0159-.4319-6.37774,1.07494-8.91608,8.17068-8.75015,32.29838.75536,27.00921-5.40331,28.13961,27.66089.35929,10.5094-3.02,15.7095-13.30076,16.34235-7.98245.49135-13.39881,3.0356-11.4251,12.58217,1.06008,5.12747-2.13267,5.47016-6.16349,5.57556-4.196.10968-5.53285-1.26757-5.38475-5.45507C504.70725,304.5436,504.50041,296.222,504.5,287.90769Zm11.4949-11.17176a61.19108,61.19108,0,0,1-.03466,6.48721c-.73451,6.21242.60609,8.2061,7.64454,6.24139,10.37707-2.89658,4.0851-10.46228,5.46106-15.73582,1.6812-6.44324-1.88323-8.10729-7.93293-7.73178C511.50127,266.59476,518.20111,273.90756,515.99489,276.73593Z"/><path class="cls-3" d="M128.87781,182.9415c.002-7.99363.19461-15.99366-.07073-23.97848-.15762-4.74308,1.14267-7.06755,6.3799-6.84621,7.01945.29668,14.06894.12535,21.09715-.103,5.8645-.19059,8.03615,2.67062,7.82917,8.19837-.15541,4.15068-.01886,8.31217-.01852,12.46884.00157,18.721.053,18.905-18.27124,24.11145-5.44583,1.54732-5.87966,4.99087-5.56743,9.40479.32283,4.56378.00253,8.11109-6.33637,7.85359-6.39107-.25961-4.94152-4.55667-5.00281-8.0884C128.78377,198.29088,128.87584,190.61539,128.87781,182.9415Zm11.38-8.57369c-.00439,12.11915,1.71539,14.01635,9.18991,10.138,3.55567-1.845,5.20519-19.92582,1.64211-21.66691-2.31234-1.12993-5.56016-.84495-8.29334-.47956-2.97979.39837-2.38705,3.24922-2.49512,5.35477C140.18776,169.9266,140.27591,172.14948,140.25777,174.36781Z"/><path class="cls-3" d="M422.30321,179.90188q0,4.79538,0,9.59077c-.00056,16.26488-2.06085,19.18865-17.5233,24.868-6.51838,2.39422-19.62436-5.92148-19.816-13.18228-.3711-14.05624-.08991-28.12939-.10589-42.19549-.00543-4.77831,2.33546-7.06623,7.09629-6.91408.31911.01021.6394-.01989.95877-.01348C428.59994,152.77115,421.47724,146.395,422.30321,179.90188Zm-10.6263,1.39094c0-4.45332-.27655-8.928.06494-13.355.50918-6.60069-3.81842-6.0619-8.06261-5.97885-4.055.07937-8.53487-.99725-8.29252,5.762.319,8.89509.2052,17.81337.01331,26.716-.101,4.6854,1.31413,9.36534,6.02649,9.09876,4.52958-.25627,10.373-1.85364,10.26437-8.88319C411.62207,190.20033,411.678,185.74614,411.67691,181.29282Z"/><path class="cls-2" d="M119.55761,285.96636v-4.80574c0-27.7273-.0086-27.62966,27.98409-25.16846,3.72765.32778,4.96314,1.28226,4.8492,5.01579-.111,3.637-.36405,6.35253-5.07186,5.92692-2.85976-.25851-5.76576.04711-8.64517-.05881-4.34447-.15976-7.80557-.54931-7.87815,6.08835-.07311,6.68519,2.85233,7.38277,8.02366,6.8955,2.5399-.2393,5.12409.03763,7.68465-.03886,4.56035-.1362,3.91888,3.119,4.00628,5.95826.0841,2.7322.03819,5.247-3.8395,5.00278-2.23355-.1407-4.52793.26932-6.71813-.06773-6.88332-1.05908-9.10448,1.1168-9.24588,8.594-.1514,8.00739,3.125,8.30767,9.44164,8.70444,4.028.253,11.75071-5.33214,12.18875,4.9613.14822,3.48313-.58649,5.66426-4.63651,5.10133a8.595,8.595,0,0,0-.96028-.00214C113.25514,317.24778,120.41788,324.40309,119.55761,285.96636Z"/><path class="cls-2" d="M269.77617,285.64537c.00085-8.00748.17994-16.02062-.074-24.02-.12877-4.05673.99331-5.77256,5.34007-5.59817,7.355.29505,14.73772.27508,22.0945.00173,4.08316-.15171,5.59506,1.02368,5.50853,5.32747-.08207,4.08225-1.23276,5.926-5.48045,5.579-2.86341-.23387-5.78117.17368-8.64-.08627-4.86822-.44265-7.48731.41407-7.482,6.46066.00526,5.90885,2.32612,7.22885,7.34511,6.51326a1.90061,1.90061,0,0,1,.95348.00972c3.84894,1.66393,11.11175-4.16423,11.42625,5.30453.3239,9.75172-7.22492,5.54269-10.90555,5.319-7.50338-.456-8.825,2.24367-8.87158,9.15071-.04714,6.98808,2.24852,8.18727,8.67017,8.42707,4.26563.15929,12.92936-5.29075,12.67417,5.21168-.23783,9.78972-8.34862,4.47339-12.39351,4.54415-21.55664.37718-20.18929,3.4366-20.16662-19.65285Q269.78085,291.89119,269.77617,285.64537Z"/><path class="cls-3" d="M177.49349,181.18242q0-2.40337,0-4.80674c0-27.14283-.00538-27.0888,27.29215-24.38792,3.29583.3261,5.37072.82818,5.47476,4.79538.11313,4.31408-1.8026,5.68939-5.76234,5.48194-2.87572-.15066-5.785.197-8.64652-.05268-5.70587-.498-6.89854,2.3787-6.99745,7.49452-.11382,5.88647,3.23971,5.98327,7.38976,5.80458,2.23873-.09639,4.49339.11667,6.7269-.027,4.22728-.27192,5.51442,1.78982,5.52191,5.77359.008,4.26269-2.02919,5.07937-5.84777,5.60594-4.54131.62619-10.85468-3.58444-13.41311,3.19175-3.21225,8.50782.31567,12.37011,9.70485,12.967,4.1618.26461,11.19294-3.65781,11.29453,5.59267.03774,3.43738-.86883,5.64273-4.81266,5.30767-.63553-.054-1.2811.02231-1.92167.01359-29.136-.39737-25.82324,4.14486-26.00125-25.06355C177.47995,186.30969,177.49349,183.746,177.49349,181.18242Z"/><path class="cls-2" d="M58.31381,286.6452c.0005-8.3376.17338-16.68032-.07284-25.01064-.12208-4.13066,1.23024-5.73352,5.456-5.59365,7.36747.24386,14.75981.30713,22.12037-.026,4.3815-.19827,5.35415,1.49944,5.34631,5.53793-.00821,4.22794-1.488,5.81835-5.62964,5.38243a58.30814,58.30814,0,0,0-6.72979-.03407c-4.70932.05314-9.4448-1.09486-9.28688,6.88607.15273,7.71953,4.96719,5.48685,9.00788,6.09652,3.527.53221,8.55253-2.34844,10.302,2.07665,1.80792,4.57293,1.78587,9.1612-6.14213,8.99339-12.90963-.27326-12.92044.2307-12.92063,13.0216,0,2.88609-.22166,5.7938.05526,8.65313.39276,4.05547-.84941,5.77048-5.2444,5.5772-3.9769-.17486-6.6345-.33632-6.37683-5.59133C58.622,303.9769,58.31331,295.3035,58.31381,286.6452Z"/><path class="cls-2" d="M331.25,283.90175q-.00066-.96147-.00044-1.92294c0-28.24356,1.50676-29.45788,29.70429-25.98723,4.01481.49414,5.29472,2.18721,4.245,5.42972-1.4701,4.541,3.01331,11.46038-4.85239,13.43958-4.38773,1.104-6.24673-.93451-6.14689-5.67169.10166-4.82169-4.0834-2.65845-6.53-3.03736-2.8455-.44074-4.97329.20943-4.94016,3.88237.0954,10.57531-.4586,21.18193.1854,31.71861.48718,7.97,5.41861,6.89729,10.82025,3.9776,2.83451-1.532,5.82681-6.21184,9.38934-.37715,1.9408,3.17868,2.67551,4.80516-1.26037,7.39387-12.69917,8.35252-13.95875,8.48858-25.324.677-3.85511-2.64972-5.60428-5.60372-5.36939-10.29676C331.49063,296.73348,331.25045,290.31162,331.25,283.90175Z"/><path class="cls-3" d="M679.694,170.747c.92255,7.54353.7197,16.40857-9.93218,21.46538-5.517,2.61907-2.72642,8.57216-3.30466,13.10618-.47373,3.71484,1.7715,8.57293-5.41295,8.70638-6.64092.12337-6.43055-3.83333-6.03172-8.10971.7328-7.85776-.32951-14.50949-8.77453-18.02017-3.35788-1.39589-3.566-5.00275-3.54769-8.33142.03531-6.41213-.00817-12.82465.00159-19.237.00623-4.11533-.90158-8.454,5.87369-8.31246,7.02641.14675,5.28018,4.962,5.41859,8.77432.18611,5.12333.13277,10.25934.04482,15.38754-.08824,5.13909,3.193,8.34813,7.39246,8.48782,4.66017.155,7.00344-3.55965,6.79971-8.59785-.233-5.76155.05751-11.54254-.08019-17.31028-.09376-3.92666.24227-6.65672,5.459-6.77226,5.57708-.12354,6.4228,2.57688,6.13382,7.07326C679.52859,162.24971,679.694,165.46651,679.694,170.747Z"/><path class="cls-2" d="M614.28245,292.169c0-5.12976-.10833-10.2624.02849-15.38851.15726-5.89152,1.16042-12.04132-8.33569-10.44354-4.36438.73433-3.92349-2.881-4.08158-5.787-.17865-3.28392,1.15266-4.52426,4.42947-4.47879,8.97538.12463,17.95664.17727,26.9292-.02456,3.75389-.08448,5.11128,1.20926,4.97558,4.97217-.11855,3.28783-.53694,6.011-4.60953,5.3767-7.51278-1.17011-8.15464,2.92422-7.94062,8.93259.38773,10.887.40905,21.81037-.05481,32.69137-.15956,3.74255,3.634,9.976-5.3354,10.23238-8.83328.25252-5.63906-5.73385-5.91288-9.738C614.00381,303.08886,614.2825,297.6194,614.28245,292.169Z"/><path class="cls-3" d="M342.85153,181.23448c.00347-7.6638.15165-15.3316-.05458-22.98985-.11561-4.29261,1.05488-6.36509,5.85751-6.36794,4.89-.00289,5.81847,2.25955,5.7668,6.45613-.15327,12.45176.29455,24.92012-.19078,37.35477-.25005,6.40688,1.891,8.79961,8.12136,8.0461,2.201-.26622,4.46772.06637,6.69905-.01784,3.92346-.148,4.7754,2.09094,4.73792,5.46839-.03413,3.07428-1.03573,4.88495-4.38239,4.72469-.63649-.03049-1.27685.03219-1.91519.0262-28.55789-.2679-24.32786,3.36871-24.63812-23.121C342.81572,187.62137,342.848,184.42773,342.85153,181.23448Z"/><path class="cls-2" d="M660.43615,287.44571c-.00006,8.33126-.14475,16.66613.06427,24.99213.09676,3.85376-.61337,5.93406-5.16709,5.74677-3.97231-.1634-6.53353-.306-6.44212-5.53687q.44527-25.46658-.00411-50.94479c-.08871-5.01544,1.9838-5.6872,6.22893-5.72348,4.22944-.03616,5.52979,1.36151,5.4012,5.51373C660.24951,270.13657,660.43621,278.794,660.43615,287.44571Z"/><path class="cls-1" d="M405.71815,285.07641c-.00373,4.79435-.02356,9.58881.00106,14.383.03407,6.63093-5.60408,7.81808-9.81807,8.29387-4.56923.51594-5.72944-3.78274-5.6541-8.09724.16182-9.26632.32851-18.54866-.04761-27.80244-.237-5.82916,2.99142-6.0702,7.21029-5.76613,3.86.27819,8.85072-1.48693,8.36894,5.56854C405.4745,276.11,405.72191,280.60167,405.71815,285.07641Z"/><path class="cls-1" d="M192.70632,287.46915c.001,4.16153.26625,8.34527-.0792,12.47793-.30049,3.59434,2.21494,9.72833-4.58722,9.105-4.96009-.45449-11.99838.05878-11.117-9.32454a191.92662,191.92662,0,0,0,.07086-27.82638c-.35906-6.89567,3.96072-5.726,8.04146-5.83169,4.32477-.112,8.43039-.62629,7.76979,6.04385C192.30268,277.18546,192.70534,282.34726,192.70632,287.46915Z"/><path class="cls-1" d="M566.321,173.789c1.35951,6.36226-2.01847,7.469-7.9032,7.68173-6.81728.24646-7.507-2.85935-7.63074-8.47121-.16108-7.31305,4.84634-10.09711,9.93818-10.22412C567.33014,162.61061,566.49177,168.797,566.321,173.789Z"/><path class="cls-1" d="M617.4202,170.15705c1.99156,8.02673-3.63129,10.103-9.65,10.2953-5.79268.18507-3.29585-5.15205-3.21936-7.89922.119-4.26982-3.13705-10.71122,6.05381-10.76212C617.10685,161.755,618.26662,164.64828,617.4202,170.15705Z"/><path class="cls-1" d="M32.80611,285.18932c-.00009,4.46081-.304,8.94718.06845,13.37669.61678,7.33595-5.396,8.59958-9.75689,9.15074-5.25347.66392-5.91872-4.20738-5.83042-8.71461.16847-8.5997.46525-17.232-.08983-25.79907-.40514-6.253,2.06151-7.51363,7.66993-7.24724,4.86965.23128,8.93791-.10231,8.03578,6.81957C32.37229,276.8484,32.8062,281.04715,32.80611,285.18932Z"/><path class="cls-1" d="M87.02338,182.00156c-.00062-3.51861.09957-7.04075-.024-10.555-.18662-5.30507-.76671-9.67508,7.42142-9.7868,8.51265-.11617,8.28065,4.28977,8.11768,10.11154-.20578,7.35135-.40607,14.73489.04962,22.0636.4436,7.13443-4.7493,9.24083-9.48129,9.5924-4.90444.36434-6.36207-4.2309-6.12607-8.95279C87.188,190.32647,87.024,186.15992,87.02338,182.00156Z"/><path class="cls-1" d="M515.99489,276.73593c2.20622-2.82837-4.49362-10.14117,5.138-10.739,6.0497-.37551,9.61413,1.28854,7.93293,7.73178-1.376,5.27354,4.916,12.83925-5.46106,15.73582-7.03846,1.96471-8.379-.029-7.64454-6.24139A61.19108,61.19108,0,0,0,515.99489,276.73593Z"/><path class="cls-1" d="M140.26685,174.36781c.00906-2.21834-.07909-4.44121.03448-6.65371.10806-2.10556-.48467-4.9564,2.49512-5.35477,2.73317-.36539,5.981-.65037,8.29334.47956,3.56308,1.74109,1.91356,19.822-1.64211,21.66691C141.97316,188.38416,140.25338,186.487,140.26685,174.36781Z"/><path class="cls-1" d="M411.67747,181.29282c.00056,4.45332-.0554,8.90752.01342,13.35977.10865,7.02956-5.73479,8.62693-10.26437,8.88319-4.71237.26658-6.12748-4.41336-6.02649-9.09876.19189-8.90261.30566-17.82089-.01331-26.716-.24236-6.75929,4.23752-5.68268,8.29252-5.762,4.24419-.08305,8.5718-.62184,8.06261,5.97885C411.40036,172.36481,411.67691,176.83949,411.67747,181.29282Z"/></g></g></svg>