<svg id="Layer_1" data-name="Layer 1" xmlns="http://www.w3.org/2000/svg" viewBox="0 0 759.42446 168.97437"><defs><style>.cls-1{fill:#261f4d;}.cls-2{fill:#9569cd;}</style></defs><title>box_glossary</title><path class="cls-1" d="M498.91312,349.26809c.00173,7.6938-.207,15.39551.08333,23.07835.1632,4.32035-.69,6.3612-5.6709,6.22482-4.58524-.12557-6.04138-1.49595-5.93262-6.11981q.441-18.74328-.03161-37.50175c-.07111-2.89161,2.47011-8.32691-3.03886-8.19867-4.59849.10709-9.01192,2.64124-8.86344,9.067.27388,11.855.00893,23.72139.115,35.58172.03613,4.04369.47623,7.29353-5.62925,7.22812-5.81733-.0623-5.90462-2.88959-5.84614-7.14966.15835-11.53857.01965-23.08094.07484-34.62139.01566-3.2707.17174-6.43246-3.60867-7.99934-2.30368-.95483-4.41355-3.434-7.03326-2.04666-2.32609,1.23179-1.22639,4.01769-1.2411,6.102-.093,13.143-.19821,26.28951.03472,39.429.07825,4.4152-1.01475,6.18846-5.81824,6.21087-4.82939.02247-5.85207-1.774-5.78534-6.17309.22359-14.74307.058-29.49175.09244-44.23813.02635-11.28074,11.19206-16.92379,22.1778-10.14294,5.45977,3.37,8.58187,4.208,13.92482.04236,4.98433-3.886,11.797-1.8165,17.74016-1.29953,3.94881.34349,4.25491,4.178,4.24489,7.522-.001.32055.00922.64107.00925.96162Q498.91181,337.24649,498.91312,349.26809Z" transform="translate(-14.81971 -210.66032)"/><path class="cls-1" d="M736.88321,344.36454c0-7.03646.03372-14.07313-.01169-21.10929-.03078-4.7774,2.23988-7.00386,7.036-6.93113,6.07549.09217,12.15356.00388,18.23052.00373,12.20173-.00023,13.587,1.81138,11.03438,13.5855-.54869,2.53073-1.2409,4.36855-4.09832,4.04427-2.50089-.28377-6.26847,1.57987-6.59375-3.13312-.55627-8.05932-6.61213-3.80588-10.1835-4.33116-5.1638-.75947-4.10925,3.63011-4.141,6.58273-.09987,9.27434.04694,18.55153-.06938,27.8255-.05217,4.16209,1.78794,7.44075,5.76143,7.09876,3.44271-.29632,8.32629-1.72679,8.29528-6.3098-.02949-4.33469,4.00286-11.34976-5.90524-11.707-3.47144-.12513-2.7807-5.3829-1.70922-7.25526,3.21384-5.61624,9.04517-1.75851,13.668-2.60467,2.95036-.54006,5.7935-.24215,5.67913,4.16855-.18235,7.03182.44365,14.1183-.2025,21.09552-.73733,7.96218-18.85828,15.84964-25.9509,12.14727-8.20069-4.28079-12.72487-9.93051-10.99866-19.75954.76288-4.34385.1286-8.933.1286-13.41085Z" transform="translate(-14.81971 -210.66032)"/><path class="cls-1" d="M388.30079,344.079l0-.96094c0-29.01526,2.29951-30.89693,31.52792-26.8442,4.387.60826,6.41865,2.78628,6.45628,6.77613.13283,14.09046.53624,28.20588-.13432,42.26549-.3654,7.66105-19.4379,16.06372-26.23091,12.56775-8.41621-4.33143-13.58042-10.02926-11.7473-20.3739C388.94295,353.16153,388.30076,348.56337,388.30079,344.079Zm26.81905,1.21925c0-4.47474-.24741-8.96639.05675-13.42037.48178-7.05546-4.509-5.29034-8.36894-5.56854-4.21887-.30407-7.44724-.063-7.21029,5.76613.37612,9.25378.20943,18.53611.04761,27.80244-.07534,4.31451,1.08487,8.61318,5.6541,8.09724,4.214-.47579,9.85214-1.66293,9.81807-8.29387C415.09253,354.88709,415.11235,350.09263,415.11984,345.29828Z" transform="translate(-14.81971 -210.66032)"/><path class="cls-1" d="M227.48469,344.13507c0-30.16563,2.35972-32.43967,32.69028-27.6158,9.42185,1.49853,2.48309,9.35715,3.36919,14.0807,1.00906,5.37867-4.2589,2.82708-6.91441,3.31708a2.13344,2.13344,0,0,1-2.743-1.92609c-.48044-9.81055-8.09974-5.65636-12.17618-5.20939-5.44056.59657-2.54267,6.23675-2.72966,9.554-.45051,7.99229.04989,16.03384-.22347,24.04217-.14591,4.27465,1.7586,7.52076,5.48347,7.56773,3.928.04949,8.85952-1.77379,9.098-6.5664.17931-3.60409,3.69563-9.78171-3.55985-10.74421-4.458-.59137-5.071-2.64406-5.00491-6.3135.093-5.16648,3.76317-4.143,6.81568-4.27568,13.50756-.587,13.43565-.5795,13.53385,12.99654.06489,8.97007.953,17.07788-10.06642,22.21454-15.63835,7.28983-27.55905.91788-27.572-16.68989Q227.48,351.351,227.48469,344.13507Z" transform="translate(-14.81971 -210.66032)"/><path class="cls-1" d="M175.0978,347.53972c-.00032-1.59872-.098-3.20441.016-4.795.60888-8.49578-3.6855-21.75174,1.664-24.45014,8.47134-4.27309,20.43972-1.7032,30.93086-1.84111,4.64121-.061,5.8063,3.20476,5.81251,7.12014.02335,14.708.21492,29.41993-.066,44.12255-.14585,7.63409-9.40009,13.639-17.35725,11.50168-4.766-1.28017-9.03911-3.37274-14.3989-1.15912-3.82972,1.58169-7.16244.34558-6.74734-5.56953C175.53226,364.19671,175.09814,355.853,175.0978,347.53972Zm27.00547.1513c0-5.12189-.40266-10.28369.09968-15.35582.6606-6.67015-3.445-6.15582-7.76979-6.04385-4.08074.10571-8.40052-1.064-8.04146,5.83169a191.92662,191.92662,0,0,1-.07086,27.82638c-.88139,9.38332,6.15691,8.87005,11.117,9.32454,6.80216.62333,4.28673-5.51067,4.58722-9.105C202.3705,356.03629,202.10524,351.85255,202.10327,347.691Z" transform="translate(-14.81971 -210.66032)"/><path class="cls-1" d="M684.87749,346.78148c-.00065-8.0167-.12748-16.03669.08248-24.0479.0574-2.18924-1.66869-5.72533,2.26432-6.21046,2.66244-.32842,6.7432-1.69894,7.96659,1.16221,2.23947,5.23729,4.27051,2.35981,7.007.97122,13.26862-6.73292,19.66692-2.82981,19.66974,11.84188.0027,13.7887-.0581,27.57785.0383,41.36588.02638,3.77786.23363,6.65617-5.25081,6.61819-5.28788-.03663-6.416-1.96827-6.29267-6.78071.29561-11.53646.4161-23.10012-.104-34.62071-.15292-3.38781,3.28175-10.24912-2.6118-9.8102-4.848.361-11.88286,3.1246-11.5967,11.51684.3822,11.2103.00617,22.44454.13817,33.66635.04406,3.744-.58218,5.97967-5.15587,5.96164-4.2181-.0166-6.50886-.557-6.26653-5.66544C685.17545,364.11165,684.87814,355.43951,684.87749,346.78148Z" transform="translate(-14.81971 -210.66032)"/><path class="cls-1" d="M600.467,347.64564c.00018,8.33566-.33409,16.6886.09611,25.002.41316,7.98568-7.34488,7.0307-8.33751,5.08223-3.02391-5.93579-5.39673-2.77077-8.40554-1.016-9.22323,5.37911-20.65227-.70642-20.83251-11.3621-.244-14.423.103-28.85617-.1592-43.27854-.08712-4.79355,1.75746-5.83524,6.17248-5.89132,4.54532-.05769,5.23171,1.893,5.17708,5.74422-.17277,12.18041-.22946,24.36863.04512,36.5453.07614,3.37847-2.01065,9.6819,3.30037,9.19938,4.71222-.42808,11.68723-2.01811,11.55323-10.10381-.19122-11.53849.10674-23.08558-.1219-34.62271-.09012-4.5465.56966-6.92243,6.10081-6.80943,5.185.10592,5.56269,2.47592,5.4694,6.50519C600.33206,330.97122,600.46676,339.31,600.467,347.64564Z" transform="translate(-14.81971 -210.66032)"/><path class="cls-2" d="M233.02292,243.10555c.00184-8.01011-.07737-16.02149.0509-24.02954.03763-2.34994-1.08866-5.6147,2.42091-6.42309,2.69375-.62046,7.12521-1.66867,7.98251.751,1.93858,5.47152,3.9086,2.71363,6.68626,1.29,13.62364-6.98238,20.64671-2.8628,20.66418,11.97637.01586,13.457-.08,26.91475.04811,40.37051.04145,4.35488-.40221,7.249-6.05619,7.27622-5.68526.02733-6.10286-2.90044-6.05222-7.23533.131-11.21262.313-22.43818-.11641-33.63592-.1372-3.57736,2.82526-10.43486-2.72463-10.17835-5.08388.235-11.74952,3.40439-11.48337,11.63614.33114,10.24217.16926,20.50459.026,30.75556-.05274,3.77257,1.72961,8.50919-5.40237,8.63634-7.64008.13623-5.94647-4.90827-6.01276-9.08251C232.9368,257.84549,233.02108,250.47485,233.02292,243.10555Z" transform="translate(-14.81971 -210.66032)"/><path class="cls-2" d="M587.28961,247.14733c-.00364,7.04529-.10257,14.09254.03625,21.1351.07431,3.772-.77028,5.97421-5.25739,5.96432-4.37355-.00965-6.69567-1.21111-6.28662-5.97734.2183-2.54286-.22335-5.1511.07925-7.67632.75013-6.25933-1.73366-8.32005-8.06346-8.24323-5.95153.07226-8.1107,2.05239-7.512,7.83945.32751,3.16675-.05622,6.40059.03648,9.59968.12284,4.23736-2.65451,4.33949-5.74234,4.38005-3.27241.043-5.64029-.60236-5.61879-4.62091.079-14.7296-.15591-29.46515.20949-44.1865.11785-4.75,16.44275-15.14956,21.92807-14.68633,7.08275.59818,16.09855,10.14985,16.17945,17.25772C587.35082,234.337,587.29331,240.74249,587.28961,247.14733Zm-11.57068-13.13646c.17078-4.992,1.00914-11.17838-5.59576-11.0136-5.09184.127-10.09926,2.91107-9.93818,10.22412.12372,5.61186.81346,8.71766,7.63074,8.47121C573.70046,241.47988,577.07844,240.37312,575.71893,234.01087Z" transform="translate(-14.81971 -210.66032)"/><path class="cls-2" d="M300.47384,240.38806c.00731-6.73242.03025-13.46492-.00035-20.19721-.02235-4.91722,1.85292-8.00018,7.26786-7.97725,8.01456.03394,16.02982.05159,24.04388-.02175,3.389-.031,6.007.99941,5.23929,4.83523-.85394,4.26663,2.76011,10.12468-3.23531,12.5325-3.3115,1.32993-6.15424.31021-7.55766-4.52676-1.53989-5.30725-7.13007-2.54-10.91827-2.63135-4.53751-.10942-3.32907,3.86686-3.36669,6.47435-.12959,8.97468.08189,17.95516-.10665,26.92773-.08645,4.11433,1.49139,7.63855,5.31963,7.80717,4.048.1783,8.65519-1.831,9.27264-6.58659.46163-3.55561,2.96507-9.07281-3.14225-10.40047-4.48226-.97435-5.92407-2.91984-5.44208-7.15834.58015-5.10147,4.48378-3.58491,7.36189-3.70111,13.08871-.52845,13.013-.46956,13.12284,12.54826.07569,8.97729.9773,17.24142-9.87176,22.42349-16.24084,7.75744-27.98385,1.35315-27.99389-16.883Q300.46324,247.12049,300.47384,240.38806Z" transform="translate(-14.81971 -210.66032)"/><path class="cls-2" d="M629.77372,248.41365c7.6335,5.24167,7.78324,12.2085,7.50573,19.40355-.128,3.31757.25884,6.353-4.66528,6.41177-4.30434.05137-5.63777-1.79762-5.47686-5.71734.0779-1.89558.2156-4.04222-.54235-5.671-2.25615-4.84842-4.94462-11.69961-10.25165-11.10724-5.36248.59854-1.59385,7.52563-2.51945,11.54191a20.01163,20.01163,0,0,0-.0682,5.733c.30442,4.486-2.29481,5.11964-6.01187,5.21525-4.26393.10968-5.4865-1.72451-5.45489-5.71733.13118-16.61252.2334-33.22978-.05017-49.83851-.09135-5.35151,2.24241-6.48593,6.87444-6.31522,5.741.21159,11.56251.49313,17.23518-.19536,9.82685-1.1927,12.84518,3.8819,11.95623,12.316C637.43777,232.69665,642.53748,242.97692,629.77372,248.41365Zm-2.95559-18.03473c.84642-5.50878-.31335-8.402-6.81557-8.36605-9.19086.0509-5.93479,6.49231-6.05381,10.76212-.07649,2.74717-2.57332,8.08429,3.21936,7.89922C623.18685,240.48191,628.80969,238.40565,626.81813,230.37892Z" transform="translate(-14.81971 -210.66032)"/><path class="cls-1" d="M15.32393,344.81867c.00146-6.7338.13121-13.47092-.03908-20.2004-.13943-5.51011,1.92387-8.45407,7.80688-8.32471,7.37158.16214,14.75353.19057,22.12323-.00958,5.67614-.15415,8.3515,2.42948,8.35837,7.97361.01631,13.147.2917,26.30226-.09241,39.43794-.25635,8.76636-19.00332,18.10594-26.74688,14.06934-8.46591-4.41314-13.367-10.22894-11.53043-20.46185C15.92844,353.26458,15.32247,348.98723,15.32393,344.81867Zm26.8802.59252c0-4.14217-.43391-8.34092.09693-12.41392.90213-6.92187-3.16613-6.58828-8.03578-6.81957-5.60842-.26639-8.07507.99428-7.66993,7.24724.55508,8.56707.2583,17.19937.08983,25.79907-.0883,4.50722.57695,9.37853,5.83042,8.71461,4.36092-.55116,10.37367-1.81479,9.75689-9.15074C41.90007,354.35837,42.204,349.872,42.20413,345.41119Z" transform="translate(-14.81971 -210.66032)"/><path class="cls-2" d="M123.37039,239.78322c-.00007,4.1532-.53412,8.39078.10605,12.44284,1.55,9.81064-2.78986,14.993-11.45247,19.1978-14.32363,6.9527-26.9418-.03644-26.9963-15.99667-.03818-11.18156.08658-22.36436-.036-33.54472-.073-6.65956,2.39142-9.89052,9.63494-9.705C129.20181,213.06314,122.62372,206.9118,123.37039,239.78322Zm-26.94846,2.44021c0,4.15836.164,8.32491-.04331,12.47292-.236,4.7219,1.22163,9.31714,6.12607,8.95279,4.732-.35157,9.92489-2.458,9.48129-9.5924-.45569-7.32871-.2554-14.71224-.04962-22.0636.163-5.82176.395-10.22771-8.11768-10.11154-8.18812.11172-7.608,4.48173-7.42142,9.7868C96.52088,235.18268,96.4207,238.70482,96.42193,242.22343Z" transform="translate(-14.81971 -210.66032)"/><path class="cls-2" d="M517.30533,212.30614c3.52519,0,7.05132.052,10.57528-.01389,3.92126-.07332,6.1881,2.123,6.50216,5.66086.355,3.99836,2.2578,9.0528-1.33666,11.76278-2.90712,2.19175-8.65991,3.941-9.51785-2.57757-.71077-5.4-3.7422-4.98753-7.31932-4.9228-2.381.04312-4.46507.3139-4.72955,3.409-.30248,3.53973.66847,6.26461,4.0629,7.89546,2.88538,1.38633,5.69986,2.92079,8.54142,4.398,10.522,5.47,13.9855,13.1888,10.90379,24.29018-1.45256,5.23265-18.01245,14.48188-22.87647,12.77725-10.40609-3.64687-16.40559-13.8995-13.82181-22.90581,1.04093-3.62826,3.544-2.96108,5.97577-3.14882,3.50222-.27035,5.51793,1.03471,5.35291,4.8622-.183,4.24378-.43966,9.321,4.99931,9.80309,3.44042.305,7.74312-1.59273,8.84279-5.92433,1.45027-5.71258-1.7947-8.8474-6.71447-11.08633-9.66759-4.39965-19.36776-8.20694-17.7394-22.46414.989-8.65915,3.05117-13.38952,12.53711-11.89641a37.48362,37.48362,0,0,0,5.76208.04259Z" transform="translate(-14.81971 -210.66032)"/><path class="cls-2" d="M465.65544,212.30586c3.518.002,7.03614.02394,10.5539-.00445,3.25008-.02625,5.971,1.239,6.35638,4.54262.503,4.31167,2.38745,9.75117-1.12476,12.70389-2.85448,2.39982-8.97151,4.61166-9.76855-3.03907-.4391-4.21487-2.71182-4.5148-5.7881-4.28024-2.34927.17915-5.50433-.92577-5.9681,2.96553-.34945,2.93213-.30342,5.86191,2.72695,7.579,2.77829,1.57423,5.61415,3.04871,8.44567,4.52676,12.75747,6.65937,14.09228,9.17713,12.303,23.30971-1.05326,8.319-18.1557,16.60041-25.58664,12.79693-8.14991-4.17149-13.17416-9.513-11.4607-19.51609.60576-3.53666,1.55029-5.14531,5.21735-5.00541,3.32816.127,6.61669-.16675,6.40455,4.7236-.19892,4.586-.25813,9.816,5.8294,10.02865a8.07314,8.07314,0,0,0,7.931-5.84611c1.44055-5.60193-1.1645-9.14114-6.445-11.07421a48.65122,48.65122,0,0,1-5.11184-2.62493c-11.0202-5.60343-15.30474-15.8627-11.60187-27.4027,1.07544-3.35165,3.3832-4.37916,6.5333-4.38417Q460.37837,212.29674,465.65544,212.30586Z" transform="translate(-14.81971 -210.66032)"/><path class="cls-1" d="M513.89793,348.12956c-.00035-7.67474.39478-15.37621-.12254-23.0159-.4319-6.37774,1.07494-8.91608,8.17068-8.75015,32.29838.75536,27.00921-5.40331,28.13961,27.66089.35929,10.5094-3.02,15.7095-13.30076,16.34235-7.98245.49135-13.39881,3.0356-11.4251,12.58217,1.06008,5.12747-2.13267,5.47017-6.16349,5.57556-4.196.10968-5.53285-1.26757-5.38475-5.45507C514.10518,364.76546,513.89834,356.44387,513.89793,348.12956Zm11.4949-11.17176a61.19108,61.19108,0,0,1-.03466,6.48721c-.73451,6.21242.60609,8.2061,7.64454,6.24139,10.37707-2.89658,4.0851-10.46228,5.46106-15.73582,1.6812-6.44324-1.88323-8.10729-7.93293-7.73178C520.8992,326.81662,527.599,334.12943,525.39282,336.9578Z" transform="translate(-14.81971 -210.66032)"/><path class="cls-2" d="M138.27574,243.16337c.002-7.99363.19461-15.99366-.07073-23.97848-.15762-4.74308,1.14267-7.06755,6.3799-6.84621,7.01945.29668,14.06894.12535,21.09715-.103,5.8645-.19059,8.03615,2.67062,7.82917,8.19837-.15541,4.15068-.01886,8.31217-.01852,12.46884.00157,18.721.053,18.905-18.27124,24.11145-5.44583,1.54732-5.87966,4.99087-5.56743,9.40479.32283,4.56378.00253,8.11109-6.33637,7.85359-6.39107-.25961-4.94152-4.55667-5.00281-8.0884C138.1817,258.51274,138.27377,250.83726,138.27574,243.16337Zm11.38-8.57369c-.00439,12.11915,1.71539,14.01635,9.18991,10.138,3.55567-1.845,5.20519-19.92582,1.64211-21.66691-2.31234-1.12993-5.56016-.84495-8.29334-.47956-2.97979.39837-2.38705,3.24922-2.49512,5.35477C149.58569,230.14847,149.67384,232.37134,149.6557,234.58968Z" transform="translate(-14.81971 -210.66032)"/><path class="cls-2" d="M431.70114,240.12375q0,4.79538,0,9.59077c-.00056,16.26488-2.06085,19.18865-17.5233,24.868-6.51838,2.39422-19.62436-5.92148-19.816-13.18228-.3711-14.05624-.08991-28.12939-.10589-42.19549-.00543-4.77831,2.33546-7.06623,7.09629-6.91408.31911.01021.6394-.01989.95877-.01348C437.99787,212.993,430.87517,206.61689,431.70114,240.12375Zm-10.6263,1.39094c0-4.45332-.27655-8.928.06494-13.355.50918-6.60069-3.81842-6.0619-8.06261-5.97885-4.055.07937-8.53487-.99725-8.29252,5.762.319,8.89509.2052,17.81337.01331,26.716-.101,4.6854,1.31413,9.36534,6.02649,9.09876,4.52958-.25627,10.373-1.85364,10.26437-8.88319C421.02,250.4222,421.076,245.968,421.07484,241.51468Z" transform="translate(-14.81971 -210.66032)"/><path class="cls-1" d="M128.95554,346.18823v-4.80574c0-27.7273-.0086-27.62966,27.98409-25.16846,3.72765.32778,4.96314,1.28226,4.8492,5.01579-.111,3.637-.36405,6.35253-5.07186,5.92692-2.85976-.25851-5.76576.04711-8.64517-.05881-4.34447-.15976-7.80557-.54931-7.87815,6.08835-.07311,6.68519,2.85233,7.38277,8.02366,6.8955,2.5399-.2393,5.12409.03763,7.68465-.03886,4.56035-.1362,3.91888,3.119,4.00628,5.95826.0841,2.7322.03819,5.247-3.8395,5.00278-2.23355-.1407-4.52793.26932-6.71813-.06773-6.88332-1.05908-9.10448,1.1168-9.24588,8.594-.1514,8.00739,3.125,8.30767,9.44164,8.70444,4.028.253,11.75071-5.33214,12.18875,4.9613.14822,3.48313-.58649,5.66426-4.63651,5.10133a8.595,8.595,0,0,0-.96028-.00214C122.65307,377.46965,129.81581,384.625,128.95554,346.18823Z" transform="translate(-14.81971 -210.66032)"/><path class="cls-1" d="M279.1741,345.86724c.00085-8.00748.17994-16.02062-.074-24.02-.12877-4.05673.99331-5.77256,5.34007-5.59817,7.355.29505,14.73772.27508,22.0945.00173,4.08316-.15171,5.59506,1.02368,5.50853,5.32747-.08207,4.08225-1.23276,5.926-5.48045,5.579-2.86341-.23387-5.78117.17368-8.64-.08627-4.86822-.44265-7.48731.41407-7.482,6.46066.00526,5.90885,2.32612,7.22885,7.34511,6.51326a1.90061,1.90061,0,0,1,.95348.00972c3.84894,1.66393,11.11175-4.16423,11.42625,5.30453.3239,9.75172-7.22492,5.54269-10.90555,5.319-7.50338-.456-8.825,2.24367-8.87158,9.15071-.04714,6.98808,2.24852,8.18727,8.67017,8.42707,4.26563.15929,12.92936-5.29075,12.67417,5.21168-.23783,9.78972-8.34862,4.47339-12.39351,4.54415-21.55664.37718-20.18929,3.4366-20.16662-19.65285Q279.17878,352.11306,279.1741,345.86724Z" transform="translate(-14.81971 -210.66032)"/><path class="cls-2" d="M186.89142,241.40428q0-2.40337,0-4.80674c0-27.14283-.00538-27.0888,27.29215-24.38792,3.29583.3261,5.37072.82818,5.47476,4.79538.11313,4.31408-1.8026,5.68939-5.76234,5.48194-2.87572-.15066-5.785.197-8.64652-.05268-5.70587-.498-6.89854,2.3787-6.99745,7.49452-.11382,5.88647,3.23971,5.98327,7.38976,5.80458,2.23873-.09639,4.49339.11667,6.7269-.027,4.22728-.27192,5.51442,1.78982,5.52191,5.77359.008,4.26269-2.02919,5.07937-5.84777,5.60594-4.54131.62619-10.85468-3.58444-13.41311,3.19175-3.21225,8.50782.31567,12.37011,9.70485,12.967,4.1618.26461,11.19294-3.65781,11.29453,5.59267.03774,3.43738-.86883,5.64273-4.81266,5.30767-.63553-.054-1.2811.02231-1.92167.01359-29.136-.39737-25.82324,4.14486-26.00125-25.06355C186.87788,246.53156,186.89142,243.96789,186.89142,241.40428Z" transform="translate(-14.81971 -210.66032)"/><path class="cls-1" d="M67.71174,346.86707c.0005-8.3376.17338-16.68032-.07284-25.01064-.12208-4.13066,1.23024-5.73352,5.456-5.59365,7.36747.24386,14.75981.30713,22.12037-.026,4.3815-.19827,5.35415,1.49944,5.34631,5.53793-.00821,4.22794-1.488,5.81835-5.62964,5.38243a58.30816,58.30816,0,0,0-6.72979-.03407c-4.70932.05314-9.4448-1.09486-9.28688,6.88607.15273,7.71953,4.96719,5.48685,9.00788,6.09652,3.527.53221,8.55253-2.34844,10.302,2.07665,1.80792,4.57293,1.78587,9.1612-6.14213,8.99339-12.90963-.27326-12.92044.2307-12.92063,13.0216,0,2.88609-.22166,5.7938.05526,8.65313.39276,4.05547-.84941,5.77048-5.2444,5.5772-3.9769-.17486-6.6345-.33632-6.37683-5.59133C68.02,364.19877,67.71124,355.52537,67.71174,346.86707Z" transform="translate(-14.81971 -210.66032)"/><path class="cls-1" d="M340.64794,344.12362q-.00066-.96147-.00044-1.92294c0-28.24356,1.50676-29.45788,29.70429-25.98723,4.01481.49414,5.29472,2.18721,4.245,5.42972-1.4701,4.541,3.01331,11.46038-4.85239,13.43958-4.38773,1.104-6.24673-.93451-6.14689-5.67169.10166-4.82169-4.0834-2.65845-6.53-3.03736-2.8455-.44074-4.97329.20943-4.94016,3.88237.0954,10.57531-.4586,21.18193.1854,31.71861.48718,7.97,5.41862,6.89729,10.82025,3.9776,2.83451-1.532,5.82681-6.21184,9.38934-.37715,1.9408,3.17868,2.67551,4.80516-1.26037,7.39387-12.69917,8.35252-13.95875,8.48858-25.324.677-3.85511-2.64972-5.60428-5.60372-5.36939-10.29676C340.88856,356.95534,340.64838,350.53349,340.64794,344.12362Z" transform="translate(-14.81971 -210.66032)"/><path class="cls-2" d="M689.092,230.96883c.92255,7.54353.7197,16.40857-9.93218,21.46538-5.517,2.61907-2.72642,8.57216-3.30466,13.10618-.47373,3.71484,1.7715,8.57293-5.41295,8.70638-6.64092.12337-6.43055-3.83333-6.03172-8.10971.7328-7.85776-.32951-14.50949-8.77453-18.02017-3.35788-1.39589-3.566-5.00275-3.54769-8.33142.03531-6.41213-.00817-12.82465.00159-19.237.00623-4.11533-.90158-8.454,5.87369-8.31246,7.02641.14675,5.28018,4.962,5.41859,8.77432.18611,5.12333.13277,10.25934.04482,15.38755-.08824,5.13909,3.193,8.34813,7.39246,8.48782,4.66017.155,7.00344-3.55965,6.79971-8.59785-.233-5.76155.05751-11.54254-.08019-17.31028-.09376-3.92666.24227-6.65672,5.459-6.77226,5.57708-.12354,6.4228,2.57688,6.13382,7.07326C688.92652,222.47157,689.092,225.68838,689.092,230.96883Z" transform="translate(-14.81971 -210.66032)"/><path class="cls-1" d="M623.68038,352.3909c0-5.12976-.10833-10.2624.02849-15.38851.15726-5.89152,1.16042-12.04132-8.33569-10.44354-4.36438.73433-3.92349-2.881-4.08158-5.787-.17865-3.28392,1.15266-4.52426,4.42947-4.47879,8.97538.12463,17.95664.17727,26.9292-.02456,3.75389-.08448,5.11128,1.20926,4.97558,4.97217-.11855,3.28783-.53694,6.011-4.60953,5.3767-7.51278-1.17011-8.15464,2.92422-7.94062,8.93259.38773,10.887.40905,21.81037-.05481,32.69137-.15956,3.74255,3.634,9.976-5.3354,10.23238-8.83328.25252-5.63906-5.73385-5.91288-9.738C623.40174,363.31073,623.68043,357.84127,623.68038,352.3909Z" transform="translate(-14.81971 -210.66032)"/><path class="cls-2" d="M352.24946,241.45635c.00347-7.6638.15165-15.3316-.05458-22.98985-.11561-4.29261,1.05488-6.36509,5.85751-6.36794,4.89-.00289,5.81847,2.25955,5.7668,6.45613-.15327,12.45176.29455,24.92012-.19078,37.35477-.25005,6.40688,1.891,8.79961,8.12136,8.0461,2.201-.26622,4.46772.06637,6.69905-.01784,3.92346-.148,4.7754,2.09094,4.73792,5.46839-.03413,3.07428-1.03573,4.88495-4.38239,4.72469-.63649-.03049-1.27685.03219-1.91519.0262-28.55789-.2679-24.32786,3.36871-24.63812-23.121C352.21365,247.84323,352.246,244.64959,352.24946,241.45635Z" transform="translate(-14.81971 -210.66032)"/><path class="cls-1" d="M669.83408,347.66758c-.00006,8.33126-.14475,16.66613.06427,24.99213.09676,3.85376-.61337,5.93406-5.16709,5.74677-3.97231-.1634-6.53353-.306-6.44212-5.53687q.44527-25.46658-.00411-50.94479c-.08871-5.01544,1.9838-5.6872,6.22893-5.72348,4.22944-.03616,5.52979,1.36151,5.4012,5.51373C669.64744,330.35844,669.83414,339.01592,669.83408,347.66758Z" transform="translate(-14.81971 -210.66032)"/></svg>