<?xml version="1.0" encoding="utf-8"?>
<!-- Generator: Adobe Illustrator 26.5.0, SVG Export Plug-In . SVG Version: 6.00 Build 0)  -->
<svg version="1.1" id="图层_1" xmlns="http://www.w3.org/2000/svg" xmlns:xlink="http://www.w3.org/1999/xlink" x="0px" y="0px"
	 viewBox="0 0 322.32 86.22" style="enable-background:new 0 0 322.32 86.22;" xml:space="preserve">
<style type="text/css">
	.st0{fill:#325AB4;}
	.st1{fill:#78E6DC;}
	.st2{fill:#3C8CFF;}
	.st3{fill:#00C8D2;}
</style>
<g>
	<g>
		<path class="st0" d="M125.62,44.05c0.58-0.4,1.05-0.89,1.39-1.45c0.44-0.71,0.66-1.5,0.66-2.36c0-1.02-0.24-1.95-0.71-2.77
			c-0.47-0.82-1.16-1.5-2.05-2.03c-0.53-0.31-1.19-0.54-1.98-0.68c-0.78-0.13-1.84-0.2-3.16-0.2h-4.95v20.51h7.52
			c1.9,0,3.52-0.57,4.8-1.68c1.29-1.12,1.95-2.53,1.95-4.18c0-1.32-0.34-2.45-1.02-3.35C127.49,45.09,126.67,44.48,125.62,44.05z
			 M123.71,42.41c-0.6,0.51-1.47,0.77-2.6,0.77h-3.18v-5.85h3.01c1.24,0,2.17,0.25,2.78,0.75c0.6,0.49,0.89,1.21,0.89,2.19
			C124.6,41.2,124.31,41.9,123.71,42.41z M117.93,45.99h3.79c1.4,0,2.47,0.27,3.17,0.8c0.69,0.52,1.02,1.27,1.02,2.29
			c0,1.04-0.34,1.8-1.05,2.32c-0.72,0.53-1.81,0.8-3.24,0.8h-3.68V45.99z"/>
		<path class="st0" d="M149.98,37.48h-2.96v3.35h-2.36h-2.18h-1.06l-3.66,8.85c-0.06,0.15-0.18,0.47-0.35,0.98
			c-0.1,0.3-0.21,0.65-0.34,1.03c-0.12-0.41-0.22-0.77-0.32-1.07c-0.21-0.67-0.29-0.86-0.32-0.94l-3.6-8.85h-3.28l5.85,13.99
			l-2.52,5.96h3.02l7.64-17.39h3.49v8.58c0,1.22,0.29,2.11,0.86,2.65c0.57,0.53,1.51,0.81,2.8,0.81h1.62v-2.83h-1.54
			c-0.29,0-0.49-0.06-0.61-0.19c-0.12-0.14-0.18-0.38-0.18-0.72v-8.29h2.33v-2.56h-2.33V37.48z"/>
		<path class="st0" d="M161.02,40.48c-2.17,0-3.95,0.71-5.3,2.1c-1.35,1.39-2.03,3.23-2.03,5.47c0,0.95,0.16,1.87,0.49,2.73
			c0.32,0.87,0.8,1.64,1.41,2.3c0.69,0.75,1.54,1.33,2.5,1.74c0.96,0.4,2.02,0.61,3.13,0.61c1.34,0,2.57-0.25,3.64-0.75
			c1.07-0.5,2.07-1.28,2.97-2.33l0.17-0.2l-2.15-1.73l-0.16,0.19c-0.61,0.7-1.29,1.24-2.03,1.6c-0.73,0.36-1.52,0.54-2.37,0.54
			c-1.31,0-2.41-0.37-3.26-1.11c-0.79-0.68-1.24-1.54-1.36-2.61h11.79v-0.44c0-2.41-0.69-4.38-2.05-5.85
			C165.05,41.23,163.23,40.48,161.02,40.48z M158.05,44.19c0.81-0.69,1.8-1.04,2.94-1.04c1.12,0,2.09,0.34,2.87,1.02
			c0.71,0.62,1.16,1.42,1.35,2.38h-8.53C156.86,45.61,157.32,44.81,158.05,44.19z"/>
		<path class="st0" d="M184.86,37.18c-1.99-1.73-4.93-2.61-8.72-2.61h-4.4v20.51h4.4c3.79,0,6.73-0.88,8.72-2.61
			c2-1.74,3.02-4.31,3.02-7.64C187.88,41.49,186.86,38.92,184.86,37.18z M176.53,52.21h-1.66V37.45h1.66c2.72,0,4.78,0.62,6.15,1.86
			c1.36,1.23,2.04,3.08,2.04,5.53c0,2.43-0.69,4.29-2.04,5.52C181.31,51.58,179.24,52.21,176.53,52.21z"/>
		<path class="st0" d="M201.28,42.63c-0.55-0.58-1.18-1.05-1.88-1.4c-0.91-0.45-1.92-0.67-3.01-0.67c-2.16,0-3.92,0.68-5.24,2.03
			c-1.32,1.35-1.98,3.14-1.98,5.32c0,1.01,0.17,1.95,0.5,2.81c0.33,0.86,0.84,1.65,1.5,2.34c0.69,0.71,1.5,1.26,2.39,1.64
			c0.89,0.37,1.84,0.56,2.83,0.56c1.11,0,2.11-0.21,2.97-0.63c0.65-0.32,1.24-0.76,1.74-1.32v1.78h2.94V40.83h-2.76V42.63z
			 M199.96,44.54c0.84,0.88,1.27,2.02,1.27,3.39c0,1.38-0.43,2.52-1.27,3.4c-0.84,0.87-1.93,1.31-3.24,1.31
			c-1.31,0-2.4-0.44-3.24-1.31c-0.84-0.87-1.27-2.01-1.27-3.4c0-1.38,0.43-2.52,1.27-3.4c0.84-0.87,1.93-1.31,3.24-1.31
			C198.03,43.22,199.12,43.66,199.96,44.54z"/>
		<path class="st0" d="M213.1,40.56c-0.8,0-1.56,0.16-2.26,0.48c-0.53,0.24-1.05,0.58-1.55,1.02v-1.23h-2.92v14.25h2.92V47.2
			c0-1.35,0.29-2.37,0.85-3.03c0.55-0.65,1.41-0.98,2.53-0.98c0.99,0,1.69,0.29,2.14,0.9c0.46,0.62,0.7,1.63,0.7,3.01v7.98h2.94
			v-8.22c0-1.94-0.48-3.48-1.43-4.6C216.07,41.13,214.74,40.56,213.1,40.56z"/>
		<path class="st0" d="M230.24,51.31c-0.37,0.47-0.81,0.83-1.33,1.06c-0.52,0.24-1.13,0.36-1.82,0.36c-1.27,0-2.28-0.43-3.07-1.32
			c-0.79-0.88-1.19-2.05-1.19-3.46c0-1.41,0.41-2.58,1.21-3.48c0.8-0.9,1.8-1.34,3.06-1.34c0.64,0,1.22,0.11,1.72,0.32
			c0.49,0.21,0.94,0.54,1.33,0.99l0.19,0.22l1.91-2.2l-0.19-0.17c-0.67-0.61-1.42-1.07-2.24-1.37c-0.81-0.3-1.73-0.45-2.73-0.45
			c-1.05,0-2.03,0.18-2.91,0.52c-0.88,0.35-1.67,0.87-2.32,1.55c-0.7,0.7-1.23,1.52-1.58,2.44c-0.36,0.91-0.54,1.91-0.54,2.97
			c0,1.06,0.18,2.06,0.54,2.96c0.36,0.91,0.89,1.73,1.58,2.43c0.65,0.67,1.44,1.19,2.33,1.54c0.89,0.35,1.86,0.53,2.91,0.53
			c1.01,0,1.94-0.16,2.76-0.47c0.82-0.31,1.6-0.81,2.34-1.49l0.19-0.17l-1.94-2.23L230.24,51.31z"/>
		<path class="st0" d="M248.34,48.57c0-2.41-0.69-4.38-2.05-5.85c-1.37-1.48-3.18-2.24-5.4-2.24c-2.17,0-3.95,0.71-5.3,2.1
			c-1.35,1.39-2.03,3.23-2.03,5.47c0,0.95,0.16,1.87,0.49,2.73c0.32,0.87,0.8,1.64,1.41,2.3c0.69,0.75,1.54,1.33,2.5,1.74
			c0.96,0.4,2.02,0.61,3.13,0.61c1.34,0,2.57-0.25,3.64-0.75c1.07-0.5,2.07-1.28,2.97-2.33l0.17-0.2l-2.15-1.73l-0.16,0.19
			c-0.61,0.7-1.3,1.24-2.03,1.6c-0.73,0.36-1.52,0.54-2.37,0.54c-1.31,0-2.41-0.37-3.26-1.11c-0.79-0.69-1.24-1.54-1.36-2.61h11.79
			V48.57z M237.92,44.19c0.81-0.69,1.8-1.04,2.94-1.04c1.12,0,2.09,0.34,2.87,1.02c0.71,0.62,1.16,1.42,1.35,2.38h-8.53
			C236.73,45.61,237.19,44.81,237.92,44.19z"/>
	</g>
	<polygon class="st0" points="79.23,54.84 73.98,56.19 73.98,32.26 79.23,33.61 	"/>
	<polygon class="st1" points="104.59,56.24 99.34,57.59 99.34,30.86 104.59,32.21 	"/>
	<polygon class="st2" points="87.56,55.57 82.31,56.91 82.31,42.83 87.56,44.17 	"/>
	<polygon class="st3" points="90.99,40.74 96.24,39.39 96.24,53.48 90.99,52.13 	"/>
	<g>
		<rect x="235.79" y="25.73" class="st0" width="4.32" height="0.96"/>
		<path class="st0" d="M245.5,26.4h-2.21l0.15-0.95h-0.97l-0.15,0.95h-1.21v0.96h1.07l-1.21,8.67h1.01l1.17-8.67h1.95
			c0.17,0,0.3,0.14,0.3,0.3v7.52h-1.64v0.96h2.6v-8.86C246.38,26.79,245.99,26.4,245.5,26.4z"/>
		<path class="st0" d="M235.27,29.68h1.27l-0.95,6.34h4.03c0.45,0,0.82-0.37,0.82-0.82v-2.39h-0.96v1.85c0,0.22-0.18,0.39-0.39,0.39
			h-2.35l0.77-5.38h3.12v-0.96h-5.36V29.68z"/>
		<polygon class="st0" points="229.65,29.04 229.35,26.39 228.38,26.39 228.69,29.04 		"/>
		<polygon class="st0" points="229.56,30.07 228.6,30.07 228.26,33.81 229.22,33.81 		"/>
		<polygon class="st0" points="234.22,26.39 233.26,26.39 232.95,29.04 233.91,29.04 		"/>
		<polygon class="st0" points="232.95,30.07 233.3,33.81 234.26,33.81 233.91,30.07 		"/>
		<polygon class="st0" points="232.65,25.5 231.69,25.5 231.69,36.18 234.21,36.18 234.21,35.22 232.65,35.22 		"/>
		<path class="st0" d="M229.73,34.89c0,0.18-0.15,0.33-0.33,0.33h-0.83v0.96h1.24c0.48,0,0.88-0.39,0.88-0.87l0.33-9.8h-0.96
			L229.73,34.89z"/>
		<path class="st0" d="M226.57,32.24h1.28v-0.96h-1.28v-1.26h1.28v-3.55c0-0.48-0.39-0.86-0.87-0.86h-3.17v4.42h1.79v4.68
			l-0.67,0.17v-4.14h-0.96v4.39l-0.54,0.14v0.99l4.5-1.17v-0.99l-1.38,0.36V32.24z M226.89,26.81v2.25h-2.11v-2.5h1.87
			C226.78,26.56,226.89,26.67,226.89,26.81z"/>
		<path class="st0" d="M220.93,29.07h-8.49v0.96h2.28v6.47h0.96v-6.47h4.88c0.16,0,0.29,0.13,0.29,0.29v4.59h-1.64v0.96h2.6v-5.92
			C221.81,29.46,221.41,29.07,220.93,29.07z"/>
		<polygon class="st0" points="220.39,25.5 219.42,25.5 219.42,26.18 214.81,26.18 214.81,25.5 213.85,25.5 213.85,26.18 
			211.98,26.18 211.98,27.14 213.85,27.14 213.85,28.43 214.81,28.43 214.81,27.14 219.42,27.14 219.42,28.43 220.39,28.43 
			220.39,27.14 222.53,27.14 222.53,26.18 220.39,26.18 		"/>
		<path class="st0" d="M210.04,26.18h-3.92V25.5h-0.96v0.69h-4.61v1.98h0.96v-1.02h8.19c0.14,0,0.25,0.11,0.25,0.25v0.77h0.96v-1.11
			C210.92,26.58,210.52,26.18,210.04,26.18z"/>
		<path class="st0" d="M209.06,29.83c0.22-0.21,0.3-0.55,0.18-0.84c-0.12-0.31-0.42-0.49-0.82-0.49h-6.45v0.96h5.78
			c0.06,0,0.09,0.03,0.1,0.06c0.03,0.05,0.02,0.13-0.02,0.18l-1.97,1.81h-5.31v0.96h5.41v2.97h-2.39v0.96h3.35v-3.93h3.8V31.5h-3.46
			C207.62,31.18,208.49,30.37,209.06,29.83z"/>
	</g>
</g>
</svg>
