<svg id="图层_1" data-name="图层 1" xmlns="http://www.w3.org/2000/svg" viewBox="0 0 1842.84888 420"><defs><style>.cls-1{fill:#d80e19;}.cls-2{fill:none;}</style></defs><title>certus-net</title><path class="cls-1" d="M259.15815,148.65632H245.65888q1.24777-19.49938,1.24961-31.24785,0-35.248-14.62369-49.12242Q217.66057,54.41182,195.412,54.41213q-29.752,0-61.74577,24.12324-32.00269,24.12827-54.99662,75.24522Q55.6663,204.90635,55.67081,258.89931q0,52.25064,21.37379,80.1194,21.374,27.87279,53.62149,27.874,43.74365,0,80.24492-52.49708,3.74907-5.25,7.7498-5.24963a7.72847,7.72847,0,0,1,5.49955,2.125,6.53831,6.53831,0,0,1,2.24961,4.87419q0,6.74979-16.62416,26.49886-16.6275,19.74423-41.87247,32.87211-25.25171,13.12565-49.74683,13.12415A103.35656,103.35656,0,0,1,63.42,373.26752Q38.168,357.89233,24.173,329.39473,10.17,300.89626,10.17376,261.64861q0-54.74622,28.62312-108.99244Q67.41825,98.41251,110.4175,68.91125,153.41113,39.417,194.4122,39.41316a133.48149,133.48149,0,0,1,29.24831,3.25q6.24489,1.49976,51.49645,17.24857A319.42455,319.42455,0,0,0,259.15815,148.65632Z"/><path class="cls-1" d="M401.89876,276.89765l8.24965,10.9999q-61.25093,58.24923-104.99321,58.24591-17.75358,0-27.12343-11.99895-9.37516-11.99981-9.37484-38.4978,0-53.49271,32.49825-106.493,36.49605-60.2423,87.24415-60.24609,17.74764,0,27.12343,8.87421,9.374,8.87619,9.37485,24.37318,0,16.25379-11.24982,31.9984-11.24886,15.74889-40.24742,32.74754-14.5011,8.25053-61.99586,29.748a156.83478,156.83478,0,0,0-2.25024,25.74909q0,17.75238,5.6249,24.74765,5.62491,7.00155,16.37409,7,10.24712,0,22.49821-5.74948Q370.15036,300.65062,401.89876,276.89765ZM314.40389,240.6501q40.24632-17.99842,60.49681-38.74773,13.74444-14.494,13.74856-28.74752,0-10.74609-5.62412-17.124a18.58876,18.58876,0,0,0-14.62448-6.37483q-9.25107,0-17.9985,6.99924-11.75353,9.25226-19.74874,27.99854A252.08471,252.08471,0,0,0,314.40389,240.6501Z"/><path class="cls-1" d="M491.14325,339.64407H453.89584l17.4985-67.24549q12.74958-49.49713,22.24828-93.9941,2.25073-10.99807,2.25025-13.74935,0-5.99979-5.49955-5.9994-3.75026,0-11.49894,5.12427-7.75274,5.1269-27.99855,25.37366l-7.75-8.74965q23.9868-25.744,47.85268-38.62237,23.86343-12.87249,36.61111-12.87407a11.004,11.004,0,0,1,7.1208,2.12489,6.63263,6.63263,0,0,1,2.62473,5.3742q0,3.26982-3.28876,17.33526l-10.87454,44.97391q25.2995-39.90043,57.10994-68.25754,15.27987-13.54595,25.54862-13.55046a17.23824,17.23824,0,0,1,12.52272,4.87514,15.70676,15.70676,0,0,1,.14089,22.87349q-4.87515,4.752-24.35384,11.249-18.4848,6.25748-30.09951,15.00673-11.619,8.75448-25.47889,26.75654Q524.719,215.67312,519.2036,229.04592q-5.51342,13.36932-16.78344,62.1087Z"/><path class="cls-1" d="M668.38244,90.90961l39.68862-15.22575-17.95967,69.97228h51.76585L737.878,163.40536H686.07286l-21.808,83.77582q-10.38166,37.72626-10.38167,52.46539,0,6.74979,2.87482,9.74949a10.38427,10.38427,0,0,0,7.87452,3q7.74561,0,23.74861-9.24949a311.0901,311.0901,0,0,0,39.9975-27.74863l9.49941,11.49911q-54.74718,41.24781-73.24552,50.49738-18.50334,9.24418-29.74816,9.24886-9.25107,0-14.62384-6.74932-5.37887-6.7498-5.375-21.99836,0-17.99938,9.49957-54.99646l25.44719-99.49381H609.33493l4.49971-17.74922H654.3754Z"/><path class="cls-1" d="M931.01776,135.90681h35.596L943.115,223.27616q-20.75263,76.1086-20.74844,86.61974,0,4.752,2.24946,7.24917a6.63074,6.63074,0,0,0,4.99971,2.50017q4.24827,0,9.99925-3.74994,8.24956-5.74781,31.24865-28.99823l8.249,9.24948q-50.24714,52.25065-73.99543,52.24716a17.82529,17.82529,0,0,1-13.624-6.12491q-5.62491-6.12293-5.62491-17.37393,0-12.99563,5.41445-34.74771-22.23505,25.49774-54.954,44.74712-21.737,12.74958-37.72014,12.74871-8.74141,0-13.73763-5.75723-4.99708-5.75258-4.9959-18.27236a107.6512,107.6512,0,0,1,2.2504-21.02545q3.24534-15.77219,16.49866-63.33215,16.74468-60.32478,16.74873-72.34266,0-7.00747-4.99971-7.0078-4.49907,0-12.24887,4.62443-7.75153,4.6291-26.49806,22.37364l-11.00006-8.74885q33.49676-29.99824,51.122-39.37309,17.62354-9.374,28.37315-9.37405a12.22646,12.22646,0,0,1,9.74942,4.38211q3.75033,4.383,3.75,13.64032,0,17.27171-17.99918,84.86141-16.00066,60.8285-15.99883,69.33931a13.01426,13.01426,0,0,0,3.37086,9.0113q3.36942,3.7562,7.3706,3.75374,13.97993,0,39.70886-23.1234,25.72667-23.1196,33.72013-52.62165Z"/><path class="cls-1" d="M1107.35394,129.40742q22.2467,0,34.37338,8.62428,12.12272,8.62422,12.12431,19.87411a15.89883,15.89883,0,0,1-5.12428,11.749,17.07159,17.07159,0,0,1-12.375,4.99971,15.56721,15.56721,0,0,1-8.249-2.12506q-3.503-2.12045-9.99941-10.6246-12.25037-16.24668-24.24861-16.24874-10.25377,0-18.12449,7.86676a26.5799,26.5799,0,0,0-7.87437,19.59629,42.46948,42.46948,0,0,0,5.00034,19.85017q4.99828,9.61551,25.24846,31.08462,27.74848,29.46408,27.74784,55.92578,0,26.47073-22.49821,46.31733-22.49986,19.851-57.99663,19.84637-29.752,0-44.24728-12.1243-14.50014-12.12177-14.49848-29.87273a20.13662,20.13662,0,0,1,5.49876-14.49927,17.95216,17.95216,0,0,1,13.50022-5.74948,17.06751,17.06751,0,0,1,11.999,4.62443,14.37331,14.37331,0,0,1,4.99891,10.87454q0,2.50128-.33122,6.49939-.1695,3.25224-.16862,5.49955,0,8.24934,6.97673,13.99928,6.72531,5.75374,18.43258,5.74947,13.45275,0,23.66192-4.61666a35.28418,35.28418,0,0,0,15.944-13.98374q5.73165-9.36257,5.73093-18.60041a34.78493,34.78493,0,0,0-5.375-17.9752q-5.37888-8.98768-24.12326-29.71266-26.00289-28.96155-25.999-55.67665,0-24.46724,19.74954-42.82112Q1076.85213,129.40765,1107.35394,129.40742Z"/><path d="M1346.58819,38.66325l7,29.24831q9.75006,39.99885,19.24954,69.99558,9.49735,29.998,48.74635,138.74059,3.74931-13.7442,14.99833-60.996,14.49542-61.49577,19.24969-77.24474,13.99618-46.24491,26.9987-67.996,12.99325-21.74868,28.99681-31.24785,15.99493-9.49711,36.249-9.49941,16.2457,0,24.87238,6.24947,8.6242,6.25154,8.62508,14.999a15.29479,15.29479,0,0,1-4.62443,10.9991,14.69917,14.69917,0,0,1-10.8785,4.74978,27.9373,27.9373,0,0,1-10.49925-2.49938Q1543.0686,59.16335,1540.569,58.412a45.1357,45.1357,0,0,0-9.75329-.99969,29.54072,29.54072,0,0,0-21.00311,8.249q-15.50285,14.5011-34.12726,72.74567-18.62981,58.25044-47.3828,186.238l-8.49972,37.24741q-28.49133-62.7438-38.48544-88.99376-13.49935-35.24828-30.73628-88.99456L1323.09015,97.4098q-5.00281,29.998-23.37412,101.11791-18.37214,71.12316-21.873,81.87-11.50038,33.74849-24.6231,51.74652-13.12566,17.99937-28.74911,26.24878a72.47991,72.47991,0,0,1-34.37178,8.249q-23.5002,0-38.49781-10.49926-11.50062-7.75131-11.49895-19.74875a12.734,12.734,0,0,1,4.24978-9.37405,14.177,14.177,0,0,1,10.24854-4.12459q7.7468,0,16.74875,8.249,15.99491,14.74714,29.24895,14.74983,14.24934,0,27.99854-12.7495,20.494-19.49914,39.49765-81.74539,22.99645-75.24117,44.24569-190.98761-8.75187,0-33.49731,4.99956-24.74914,5.004-41.37183,14.12384-16.62867,9.12936-25.499,23.74877a58.16691,58.16691,0,0,0-8.87421,30.62328,61.56672,61.56672,0,0,0,2.25025,16.24889q1.49979,5.50176,6.49861,13.49927,5.748,9.25106,5.74947,13.99927a13.77744,13.77744,0,0,1-4.37356,10.24934,14.99022,14.99022,0,0,1-10.87548,4.24915q-9.50163,0-16.24873-9.87406-6.74838-9.872-6.74932-30.12344,0-33.49531,16.87409-56.99615,16.87471-23.49449,45.12177-35.49763,18.00055-7.49958,69.49557-14.49912A350.49692,350.49692,0,0,0,1346.58819,38.66325Z"/><path d="M1650.819,276.89765l8.25061,10.9999q-61.24975,58.24923-104.99416,58.24591-17.75241,0-27.12265-11.99895-9.374-11.99981-9.374-38.4978,0-53.49271,32.49762-106.493,36.49581-60.2423,87.244-60.24609,17.74786,0,27.12422,8.87421,9.374,8.87619,9.37405,24.37318,0,16.25379-11.24979,31.9984-11.24985,15.74889-40.24665,32.74754-14.50229,8.25053-61.99728,29.748A156.82751,156.82751,0,0,0,1558.076,282.398q0,17.75238,5.62411,24.74765,5.62515,7.00155,16.37425,7,10.24687,0,22.4982-5.74948Q1619.07129,300.65062,1650.819,276.89765Zm-87.49328-36.24755q40.24512-17.99842,60.49616-38.74773,13.74543-14.494,13.7492-28.74752,0-10.74609-5.6257-17.124a18.586,18.586,0,0,0-14.62369-6.37483q-9.25107,0-17.99913,6.99924-11.7514,9.25226-19.74811,27.99854A252.09247,252.09247,0,0,0,1563.32567,240.6501Z"/><path d="M1763.813,90.90961l39.68941-15.22575-17.96047,69.97228h51.76729l-4.00066,17.74922H1781.504l-21.80787,83.77582q-10.38167,37.72626-10.38167,52.46539,0,6.74979,2.874,9.74949a10.38633,10.38633,0,0,0,7.87436,3q7.7468,0,23.74877-9.24949a310.9226,310.9226,0,0,0,39.99749-27.74863l9.49941,11.49911q-54.745,41.24781-73.24567,50.49738-18.50214,9.24418-29.74734,9.24886-9.25112,0-14.62371-6.74932-5.37887-6.7498-5.375-21.99836,0-17.99938,9.49944-54.99646l25.448-99.49381h-40.49734l4.49907-17.74922h40.54076Z"/><rect class="cls-2" x="-115.85758" y="-208.02049" width="2090.06428" height="1112.02049"/></svg>