<?xml version="1.0" encoding="utf-8"?>
<!-- Generator: Adobe Illustrator 23.0.6, SVG Export Plug-In . SVG Version: 6.00 Build 0)  -->
<svg version="1.1" id="Layer_1" xmlns="http://www.w3.org/2000/svg" xmlns:xlink="http://www.w3.org/1999/xlink" x="0px" y="0px"
	 viewBox="0 0 400 245" style="enable-background:new 0 0 400 245;" xml:space="preserve">
<style type="text/css">
	.st0{fill-rule:evenodd;clip-rule:evenodd;fill:#00A7AF;}
	.st1{fill-rule:evenodd;clip-rule:evenodd;fill:#717B7D;}
	.st2{fill:#00A7AF;}
	.st3{fill:#717B7D;}
</style>
<g>
	<g>
		<g>
			<polygon class="st0" points="377.8,126.2 392,113 396.7,113 396.7,113.7 381,128.2 398.5,144.4 398.5,145.1 394,145.1 
				377.8,130.3 377.8,145.1 374,145.1 374,99.9 377.8,99.9 			"/>
			<path class="st0" d="M339.9,117.6c2.5-3.5,6.5-5.1,10.8-5.2c8.7,0,14.5,5.4,14.5,14.2v18.5h-3.9v-18.4c0-6.8-4.1-10.5-10.8-10.4
				c-6.3,0.1-10.6,4.8-10.6,11v17.8h-3.9V113h3.9V117.6z"/>
			<path class="st0" d="M321.8,103.2c0-3.8,5.8-3.8,5.8,0C327.6,107,321.8,107,321.8,103.2z"/>
			<rect x="322.7" y="112.9" class="st0" width="3.9" height="32.3"/>
			<path class="st0" d="M300.2,117.5c2.2-3.3,6.1-4.8,10-4.8c2.5-0.1,4.8,0.6,6.9,1.9l0.3,0.2l-1.8,3.2l-0.4-0.2
				c-1.5-0.9-3.3-1.4-5.1-1.4c-5.6,0-9.9,4.5-9.9,10.1v18.7h-3.9V113h3.7L300.2,117.5z"/>
			<path class="st0" d="M259.4,118.7c2.8-4.2,7.5-6.2,12.6-6.2c9.8,0,16.1,6.8,16.1,16.6c0,9.8-6.2,16.6-16.1,16.6
				c-5,0-9.8-2.3-12.7-6.4v5.9h-3.9V99.9h3.9V118.7L259.4,118.7z M271.9,116.3c-7.3,0-12.4,5.5-12.4,12.7c0,7.3,5,12.8,12.4,12.8
				c7.6,0,12.4-5.1,12.4-12.7C284.3,121.4,279.6,116.3,271.9,116.3z"/>
		</g>
		<g>
			<path class="st1" d="M243.3,139.2c-2.8,4.1-7.7,6.4-12.7,6.4c-9.8,0-16.1-6.8-16.1-16.6c0-9.7,6.3-16.6,16.1-16.6
				c5.1,0,9.8,2,12.6,6.2V99.9h3.9v45.3h-3.9V139.2L243.3,139.2z M230.8,116.3c-7.7,0-12.4,5.1-12.4,12.8c0,7.6,4.8,12.7,12.4,12.7
				c7.4,0,12.4-5.5,12.4-12.8C243.2,121.7,238.1,116.3,230.8,116.3z"/>
			<path class="st1" d="M203.6,140.5c-2.5,3.5-6.5,5.1-10.8,5.2c-8.7,0-14.5-5.4-14.5-14.2v-18.5h3.9v18.4c0,6.8,4.1,10.5,10.8,10.4
				c6.3-0.1,10.6-4.8,10.6-11v-17.8h3.9v32.2h-3.9V140.5z"/>
			<path class="st1" d="M154.3,145.6c-9.6,0-16.3-6.8-16.3-16.4c0-9.6,6.7-16.7,16.3-16.7c9.6,0,16.3,7.1,16.3,16.7
				C170.6,138.7,163.9,145.6,154.3,145.6L154.3,145.6z M154.3,141.7c7.4,0,12.5-5.2,12.5-12.6c0-7.3-5-13-12.5-13
				c-7.5,0-12.5,5.7-12.5,13C141.8,136.5,146.9,141.7,154.3,141.7z"/>
			<rect x="126.2" y="99.9" class="st1" width="3.9" height="45.3"/>
			<path class="st1" d="M116.8,137.7l2.7,2.7l-0.3,0.3c-3.1,3.1-7.3,4.8-11.7,4.8c-9.5,0-16.5-6.8-16.5-16.4
				c0-9.7,6.8-16.4,16.5-16.4c4.4,0,8.6,1.7,11.7,4.8l0.3,0.3l-2.6,2.5l-0.3-0.3c-2.4-2.4-5.7-3.6-9.1-3.6
				c-7.5,0-12.7,5.1-12.7,12.7c0,7.6,5.1,12.7,12.7,12.7c3.4,0,6.7-1.4,9-3.8L116.8,137.7z"/>
		</g>
	</g>
	<g>
		<g>
			<path class="st2" d="M71.5,126.5c-1.2,0-2.3-0.5-3-1.3c-0.6,4.4-2.6,8.4-5.7,11.5c-3.8,3.8-8.9,5.9-14.3,5.9s-10.5-2.1-14.3-5.9
				c-3-3-5-6.9-5.6-11h-5.7c1.6,12.7,12.4,22.5,25.6,22.5c13.2,0,24-9.9,25.6-22.7C73.4,126.2,72.5,126.5,71.5,126.5z"/>
			<path class="st2" d="M71.5,118.4c1,0,1.9,0.4,2.6,0.9c-1.5-12.8-12.4-22.7-25.6-22.7c-13,0-23.8,9.7-25.5,22.2h5.7
				c0.7-4,2.6-7.8,5.6-10.7c3.8-3.8,8.9-5.9,14.3-5.9s10.5,2.1,14.3,5.9c3.2,3.2,5.1,7.2,5.7,11.5C69.2,118.9,70.3,118.4,71.5,118.4
				z"/>
		</g>
		<path class="st3" d="M64.9,143.6c-0.1,0-0.1,0-0.2,0c-0.5,0-1.1,0.1-1.6,0.2l-5.2-8.9c3.8-2.8,6.3-7.3,6.3-12.5
			c0-5-2.4-9.5-6.1-12.3l5.1-8.9c0.5,0.1,0.9,0.2,1.4,0.2c3.7,0.1,6.8-2.8,6.9-6.5c0.1-3.7-2.8-6.8-6.5-6.9
			c-3.7-0.1-6.8,2.8-6.9,6.5c-0.1,1.9,0.7,3.6,1.9,4.8l-5.1,8.9c-1.9-0.8-4-1.3-6.2-1.3c-7.8,0-14.2,5.8-15.3,13.3H17.7
			c-0.9-3.5-4.1-6.1-8-6.1c-4.6,0-8.2,3.7-8.2,8.2c0,4.6,3.7,8.2,8.2,8.2c3.8,0,7-2.6,8-6.1h15.7c1,7.6,7.5,13.4,15.3,13.4
			c2.1,0,4.1-0.4,5.9-1.2l5.2,8.9c-1.1,1.2-1.8,2.7-1.9,4.4c-0.1,3.7,2.8,6.8,6.5,6.9c0.1,0,0.1,0,0.2,0c3.6,0,6.6-2.9,6.7-6.5
			C71.5,146.8,68.6,143.7,64.9,143.6z M38.2,122.4c0-5.8,4.7-10.5,10.5-10.5s10.5,4.7,10.5,10.5c0,5.8-4.7,10.5-10.5,10.5
			S38.2,128.2,38.2,122.4z M64.7,154h-0.1c-1,0-1.9-0.5-2.6-1.2c-0.7-0.7-1-1.7-1-2.7c0.1-2,1.7-3.6,3.7-3.6h0.1
			c1,0,1.9,0.5,2.6,1.2c0.7,0.7,1,1.7,1,2.7C68.3,152.4,66.7,154,64.7,154z"/>
		<g>
			<circle class="st0" cx="48.7" cy="122.5" r="5.6"/>
		</g>
		<path class="st3" d="M71.5,121c0.8,0,1.5,0.7,1.5,1.5s-0.7,1.5-1.5,1.5c-0.8,0-1.5-0.7-1.5-1.5S70.6,121,71.5,121 M71.5,119.7
			c-1.5,0-2.8,1.2-2.8,2.8c0,1.5,1.2,2.8,2.8,2.8c1.5,0,2.8-1.2,2.8-2.8C74.2,120.9,73,119.7,71.5,119.7L71.5,119.7z"/>
	</g>
</g>
</svg>
