<svg id="Layer_1" data-name="Layer 1" xmlns="http://www.w3.org/2000/svg" viewBox="0 0 500 165.47335"><defs><style>.cls-1{fill:#838383;}.cls-2{fill:#797979;}.cls-3{fill:#23b5e9;}</style></defs><title>cloudplugs</title><path class="cls-1" d="M201.48438,104.31329a23.27821,23.27821,0,0,1-8.09376-31.1792,22.51652,22.51652,0,0,1,8.03711-8.32178,21.12235,21.12235,0,0,1,11.17188-3.07813,22.14787,22.14787,0,0,1,7.4668,1.19678,21.30066,21.30066,0,0,1,6.498,3.81934,1.5222,1.5222,0,0,1,.627,1.311,1.54848,1.54848,0,0,1-.228.82617,1.33561,1.33561,0,0,1-.62695.54151,1.03937,1.03937,0,0,1-.5127.62695,1.69434,1.69434,0,0,1-.855.228,2.05058,2.05058,0,0,1-1.42529-.5127,14.22652,14.22652,0,0,0-4.84473-2.90722,18.57788,18.57788,0,0,0-6.09912-.91211,16.6082,16.6082,0,0,0-8.89209,2.53662,18.71337,18.71337,0,0,0-6.52637,6.81152,18.41329,18.41329,0,0,0-2.42236,9.23389,18.811,18.811,0,0,0,2.39355,9.34814,18.26136,18.26136,0,0,0,6.498,6.78272,16.83518,16.83518,0,0,0,8.94922,2.50781,17.58055,17.58055,0,0,0,11.229-3.99023,2.12615,2.12615,0,0,1,1.25391-.45557,2.09341,2.09341,0,0,1,2.10889,2.1665,2.28645,2.28645,0,0,1-.627,1.59571q-5.35839,4.90283-13.96484,4.90234A21.02763,21.02763,0,0,1,201.48438,104.31329Z"/><path class="cls-1" d="M234.17383,104.05645a11.06094,11.06094,0,0,1-2.19434-7.09619V64.47a2.06488,2.06488,0,0,1,.627-1.56738A2.1432,2.1432,0,0,1,234.145,62.304a2.05407,2.05407,0,0,1,2.166,2.166V96.96026a7.21958,7.21958,0,0,0,.99755,3.98974,2.9476,2.9476,0,0,0,2.53662,1.53907H241.27a1.70975,1.70975,0,0,1,1.36816.59863,2.32267,2.32267,0,0,1,.51319,1.56738,1.94786,1.94786,0,0,1-.71241,1.56739,2.78228,2.78228,0,0,1-1.85253.59863h-.74122A6.90988,6.90988,0,0,1,234.17383,104.05645Z"/><path class="cls-1" d="M251.38867,105.0545a14.78488,14.78488,0,0,1-5.67236-5.67188,17.15984,17.15984,0,0,1,0-16.27344,14.73194,14.73194,0,0,1,5.67236-5.70019,17.04579,17.04579,0,0,1,16.21582,0,14.99618,14.99618,0,0,1,5.6709,5.70019,17.053,17.053,0,0,1,.0293,16.27344,14.79033,14.79033,0,0,1-5.67188,5.67188,17.10191,17.10191,0,0,1-16.24414,0Zm14.04981-3.47754a10.90156,10.90156,0,0,0,4.10449-4.24658,13.29459,13.29459,0,0,0,0-12.19776,10.91138,10.91138,0,0,0-4.10449-4.24658,12.13042,12.13042,0,0,0-11.82715,0,11.02927,11.02927,0,0,0-4.16113,4.24658,13.06569,13.06569,0,0,0,0,12.19776,11.0193,11.0193,0,0,0,4.16113,4.24658,12.13042,12.13042,0,0,0,11.82715,0Z"/><path class="cls-1" d="M308.75781,76.24053a2.06844,2.06844,0,0,1,.627,1.56738v26.79053a2.14549,2.14549,0,0,1-2.22266,2.22266,2.06412,2.06412,0,0,1-1.56738-.627,2.21459,2.21459,0,0,1-.59864-1.5957V102.66a13.27805,13.27805,0,0,1-4.56054,3.30566,14.07021,14.07021,0,0,1-5.81348,1.19726,15.23856,15.23856,0,0,1-7.2666-1.71,12.24252,12.24252,0,0,1-5.04492-4.9873,15.86789,15.86789,0,0,1-1.82422-7.8374V77.80791a2.14185,2.14185,0,0,1,2.166-2.166,2.16246,2.16246,0,0,1,1.59571.62744,2.09312,2.09312,0,0,1,.627,1.53857V92.62823q0,5.07348,2.82227,7.72314a10.33748,10.33748,0,0,0,7.38085,2.65039,11.48621,11.48621,0,0,0,5.04493-1.083,8.89438,8.89438,0,0,0,3.5625-2.99218A7.33929,7.33929,0,0,0,304.99609,94.68V77.80791a2.05476,2.05476,0,0,1,2.166-2.166A2.21671,2.21671,0,0,1,308.75781,76.24053Z"/><path class="cls-1" d="M346.833,77.80791v13.395a16.05287,16.05287,0,0,1-2.08008,8.09473,15.14971,15.14971,0,0,1-5.7002,5.72754,16.66991,16.66991,0,0,1-16.13085,0,15.129,15.129,0,0,1-5.7002-5.72754,16.04364,16.04364,0,0,1-2.08106-8.09473A16.23914,16.23914,0,0,1,317.165,83.1375a15.01059,15.01059,0,0,1,13.36621-7.78027,14.73294,14.73294,0,0,1,6.7832,1.56738,14.10369,14.10369,0,0,1,5.07227,4.30371V64.52715a2.14555,2.14555,0,0,1,2.22363-2.22314,2.07093,2.07093,0,0,1,1.56738.627,2.22234,2.22234,0,0,1,.59864,1.59619V77.29522A1.75842,1.75842,0,0,1,346.833,77.80791Zm-9.97461,23.74073a11.30757,11.30757,0,0,0,4.13183-4.27491,12.24542,12.24542,0,0,0,1.51075-6.0708,12.97379,12.97379,0,0,0-.05664-1.4248.632.632,0,0,1-.05762-.28516,11.43892,11.43892,0,0,0-3.7334-7.2959,11.04864,11.04864,0,0,0-7.666-2.85009,11.53366,11.53366,0,0,0-5.89941,1.53906,11.02593,11.02593,0,0,0-4.16113,4.24658,12.95192,12.95192,0,0,0,0,12.14111,11.22589,11.22589,0,0,0,4.16113,4.27491,11.36155,11.36155,0,0,0,5.89941,1.56738A11.2158,11.2158,0,0,0,336.8584,101.54864Z"/><path class="cls-1" d="M355.43945,106.19414a2.15674,2.15674,0,0,1-.627-1.5957V64.52715a2.14549,2.14549,0,0,1,2.22266-2.22314h11.40039a14.86027,14.86027,0,0,1,7.43847,1.85254,13.12513,13.12513,0,0,1,5.10157,5.12988,15.15717,15.15717,0,0,1,1.82324,7.49561,14.87579,14.87579,0,0,1-1.82324,7.41015A12.973,12.973,0,0,1,375.874,89.265a15.02964,15.02964,0,0,1-7.43847,1.82421h-9.17676v13.50928a2.25789,2.25789,0,0,1-3.81934,1.5957Zm12.9961-19.37988a10.397,10.397,0,0,0,5.18652-1.28271,9.16929,9.16929,0,0,0,3.5625-3.5625,10.3901,10.3901,0,0,0,1.2832-5.187,10.66955,10.66955,0,0,0-1.2832-5.27247,9.32142,9.32142,0,0,0-3.5625-3.61962,10.22234,10.22234,0,0,0-5.18652-1.311h-9.17676V86.81426Z"/><path class="cls-1" d="M387.33105,104.05645a11.06377,11.06377,0,0,1-2.19433-7.09619V64.47a2.06491,2.06491,0,0,1,.62695-1.56738,2.14437,2.14437,0,0,1,1.53906-.59863,2.05474,2.05474,0,0,1,2.166,2.166V96.96026a7.21958,7.21958,0,0,0,.99707,3.98974,2.94832,2.94832,0,0,0,2.53711,1.53907h1.4248a1.71248,1.71248,0,0,1,1.36817.59863,2.32493,2.32493,0,0,1,.51269,1.56738,1.94826,1.94826,0,0,1-.71289,1.56739,2.78229,2.78229,0,0,1-1.85254.59863h-.74023A6.91016,6.91016,0,0,1,387.33105,104.05645Z"/><path class="cls-1" d="M427.20215,76.24053a2.06843,2.06843,0,0,1,.62695,1.56738v26.79053a2.14548,2.14548,0,0,1-2.22265,2.22266,2.06268,2.06268,0,0,1-1.56739-.627,2.21463,2.21463,0,0,1-.59863-1.5957V102.66a13.28739,13.28739,0,0,1-4.56055,3.30566,14.07669,14.07669,0,0,1-5.81347,1.19726,15.24246,15.24246,0,0,1-7.26758-1.71,12.254,12.254,0,0,1-5.04492-4.9873,15.86789,15.86789,0,0,1-1.82422-7.8374V77.80791a2.14185,2.14185,0,0,1,2.166-2.166,2.16468,2.16468,0,0,1,1.59668.62744,2.0969,2.0969,0,0,1,.627,1.53857V92.62823q0,5.07348,2.82128,7.72314a10.34,10.34,0,0,0,7.38184,2.65039,11.47885,11.47885,0,0,0,5.04395-1.083,8.88134,8.88134,0,0,0,3.5625-2.99218A7.33308,7.33308,0,0,0,423.44043,94.68V77.80791a2.05474,2.05474,0,0,1,2.166-2.166A2.21993,2.21993,0,0,1,427.20215,76.24053Z"/><path class="cls-1" d="M457.582,77.38067a14.64446,14.64446,0,0,1,5.64356,5.64306,16.40414,16.40414,0,0,1,2.05175,8.23633v11.62842a16.96134,16.96134,0,0,1-2.02343,8.26465,15.10386,15.10386,0,0,1-5.61426,5.84277,15.52524,15.52524,0,0,1-8.09473,2.13672,17.73269,17.73269,0,0,1-7.80859-1.65234,16.23182,16.23182,0,0,1-5.75684-4.61719,1.90311,1.90311,0,0,1-.51269-1.31055,1.84117,1.84117,0,0,1,.79785-1.48242,2.13267,2.13267,0,0,1,1.2539-.39941,2.276,2.276,0,0,1,1.0254.25683,2.13076,2.13076,0,0,1,.79882.65528,11.50161,11.50161,0,0,0,4.332,3.36328,14.11728,14.11728,0,0,0,5.92774,1.19726,10.88222,10.88222,0,0,0,9.86133-5.957,13.71226,13.71226,0,0,0,1.48144-6.46875v-2.56543a12.65612,12.65612,0,0,1-4.84472,5.10157,13.73914,13.73914,0,0,1-7.125,1.85253,15.62291,15.62291,0,0,1-7.95215-2.02343,14.21755,14.21755,0,0,1-5.47168-5.64258,16.86117,16.86117,0,0,1-1.9668-8.18018,16.40458,16.40458,0,0,1,2.05274-8.23633,14.58941,14.58941,0,0,1,5.67089-5.64306,17.3715,17.3715,0,0,1,16.27344,0Zm-2.22265,24.22461a10.69984,10.69984,0,0,0,4.10449-4.21778,13.41269,13.41269,0,0,0,0-12.25488,10.91138,10.91138,0,0,0-4.10449-4.24658,12.29595,12.29595,0,0,0-11.91309,0,10.88866,10.88866,0,0,0-4.10352,4.24658,13.4048,13.4048,0,0,0,0,12.25488,10.67791,10.67791,0,0,0,4.10352,4.21778,12.49786,12.49786,0,0,0,11.91309,0Z"/><path class="cls-1" d="M475.08008,105.909a13.14271,13.14271,0,0,1-5.24414-3.36328,2.08066,2.08066,0,0,1-.57032-1.31055,2.1666,2.1666,0,0,1,.91211-1.71,2.33818,2.33818,0,0,1,1.42481-.5127,2.10619,2.10619,0,0,1,1.65332.79688,8.73427,8.73427,0,0,0,3.61914,2.45215,13.96492,13.96492,0,0,0,4.9873.85449,10.63983,10.63983,0,0,0,5.98536-1.36816,4.31951,4.31951,0,0,0,2.05175-3.59082,4.03964,4.03964,0,0,0-1.99511-3.41993,15.93992,15.93992,0,0,0-6.32618-2.05224q-5.5869-.91041-8.35058-3.16309a6.79934,6.79934,0,0,1-2.76465-5.44385,7.43067,7.43067,0,0,1,3.2207-6.44091,13.61584,13.61584,0,0,1,8.06543-2.27979,15.57926,15.57926,0,0,1,6.55469,1.28223,11.52312,11.52312,0,0,1,4.50293,3.5625,2.59459,2.59459,0,0,1,.45606,1.311,1.74157,1.74157,0,0,1-.91211,1.53906,1.82866,1.82866,0,0,1-1.083.28516,2.617,2.617,0,0,1-1.99512-.855,9.62474,9.62474,0,0,0-7.63769-3.19189,8.75831,8.75831,0,0,0-5.01563,1.28222,3.80557,3.80557,0,0,0-.11426,6.49805q1.76514,1.22607,6.26953,1.96631,6.09962,1.02612,8.72168,3.33447a7.33031,7.33031,0,0,1,2.62207,5.72852,7.49746,7.49746,0,0,1-1.56836,4.67431,10.15916,10.15916,0,0,1-4.36035,3.19141,16.60374,16.60374,0,0,1-6.32715,1.14062A19.46237,19.46237,0,0,1,475.08008,105.909Z"/><path class="cls-2" d="M245.503,147.66656a11.42931,11.42931,0,0,1-4.71091.84687c-5.02809,0-8.81264-3.17576-8.81264-9.02394,0-5.58456,3.78455-9.36911,9.31557-9.36911a9.56687,9.56687,0,0,1,4.23435.79415l-.55566,1.87909a8.38706,8.38706,0,0,0-3.5992-.74142c-4.18162,0-6.96031,2.67324-6.96031,7.35739,0,4.367,2.51425,7.172,6.85446,7.172a9.21793,9.21793,0,0,0,3.75777-.7406Z"/><path class="cls-2" d="M259.61067,141.73848c0,4.73769-3.28162,6.80132-6.37788,6.80132-3.467,0-6.13981-2.54061-6.13981-6.58961,0-4.28707,2.805-6.80131,6.35153-6.80131C257.12279,135.14888,259.61067,137.82212,259.61067,141.73848Zm-10.16243.13263c0,2.80505,1.61424,4.92222,3.89,4.92222,2.22345,0,3.89042-2.09081,3.89042-4.97494,0-2.17072-1.08495-4.923-3.83728-4.923S249.44824,139.436,249.44824,141.87111Z"/><path class="cls-2" d="M262.55,138.90707c0-1.323-.02636-2.408-.10586-3.46739h2.06445l.13222,2.11717h.05273a4.7112,4.7112,0,0,1,4.23434-2.408c1.77324,0,4.52557,1.05858,4.52557,5.45193V148.249h-2.32889v-7.38374c0-2.06445-.76738-3.78456-2.964-3.78456a3.30847,3.30847,0,0,0-3.12262,2.38244,3.346,3.346,0,0,0-.159,1.08495V148.249H262.55Z"/><path class="cls-2" d="M277.24006,138.90707c0-1.323-.02636-2.408-.10545-3.46739h2.06363l.13263,2.11717h.05272a4.71123,4.71123,0,0,1,4.23435-2.408c1.77365,0,4.526,1.05858,4.526,5.45193V148.249H285.815v-7.38374c0-2.06445-.76778-3.78456-2.964-3.78456a3.41649,3.41649,0,0,0-3.282,3.46739V148.249h-2.32889Z"/><path class="cls-2" d="M293.226,142.26818c.05272,3.1494,2.06445,4.44607,4.39334,4.44607a8.4319,8.4319,0,0,0,3.54647-.66152l.39707,1.66656a10.3723,10.3723,0,0,1-4.26071.79414c-3.94354,0-6.29879-2.59333-6.29879-6.457s2.27534-6.90759,6.00717-6.90759c4.18162,0,5.29293,3.67828,5.29293,6.03435a8.81771,8.81771,0,0,1-.07908,1.08495Zm6.82768-1.66737c.02718-1.482-.608-3.78456-3.22849-3.78456-2.35525,0-3.38748,2.1699-3.57283,3.78456Z"/><path class="cls-2" d="M314.32026,147.77283a8.58474,8.58474,0,0,1-3.67828.7406c-3.86364,0-6.37789-2.61969-6.37789-6.53687a6.50841,6.50841,0,0,1,6.88041-6.80132,7.78593,7.78593,0,0,1,3.22848.66151l-.52888,1.8a5.39779,5.39779,0,0,0-2.6996-.60879c-2.93768,0-4.52515,2.1699-4.52515,4.84314,0,2.964,1.90545,4.79041,4.44606,4.79041a6.60548,6.60548,0,0,0,2.85778-.636Z"/><path class="cls-2" d="M320.19645,131.7614v3.67828h3.33475v1.77365h-3.33475v6.90759c0,1.58746.45062,2.48706,1.74728,2.48706a5.156,5.156,0,0,0,1.34939-.159l.10545,1.74729a5.69675,5.69675,0,0,1-2.06363.31716,3.22793,3.22793,0,0,1-2.51425-.97867A4.74762,4.74762,0,0,1,317.9211,144.2v-6.98667h-1.98536v-1.77365h1.98536v-3.06949Z"/><path class="cls-2" d="M328.74587,131.84131a1.44212,1.44212,0,0,1-2.88413,0,1.41917,1.41917,0,0,1,1.45566-1.45566A1.38193,1.38193,0,0,1,328.74587,131.84131ZM326.15254,148.249V135.43968h2.32889V148.249Z"/><path class="cls-2" d="M332.34589,138.90707c0-1.323-.02636-2.408-.10544-3.46739h2.06362l.13264,2.11717h.05272a4.7112,4.7112,0,0,1,4.23435-2.408c1.77365,0,4.526,1.05858,4.526,5.45193V148.249h-2.32889v-7.38374c0-2.06445-.76778-3.78456-2.964-3.78456a3.41649,3.41649,0,0,0-3.282,3.46739V148.249h-2.3289Z"/><path class="cls-2" d="M358.07079,135.43968c-.05272.92678-.10544,1.959-.10544,3.52011v7.43647c0,2.93768-.58243,4.73769-1.82637,5.849a6.79167,6.79167,0,0,1-4.65779,1.53475,8.26963,8.26963,0,0,1-4.26071-1.05859l.58243-1.77282a7.22669,7.22669,0,0,0,3.75819,1.005c2.38162,0,4.12808-1.24312,4.12808-4.47243v-1.42848h-.05272a4.57418,4.57418,0,0,1-4.07536,2.14354c-3.17658,0-5.45193-2.6996-5.45193-6.24608,0-4.33979,2.83141-6.80131,5.7691-6.80131a4.26055,4.26055,0,0,1,3.99626,2.22344h.05273l.10627-1.93264Zm-2.408,5.05485a3.30565,3.30565,0,0,0-.13264-1.05858,3.35432,3.35432,0,0,0-3.25484-2.4607c-2.22345,0-3.81091,1.87909-3.81091,4.84314,0,2.51342,1.2703,4.60423,3.78455,4.60423a3.40362,3.40362,0,0,0,3.22848-2.38161,4.04334,4.04334,0,0,0,.18536-1.244Z"/><path class="cls-2" d="M369.82482,132.37019h-5.42557V130.412h13.20556v1.95818h-5.45193V148.249h-2.32806Z"/><path class="cls-2" d="M379.32656,129.45887h2.32889v7.99254h.05273a4.32725,4.32725,0,0,1,1.66737-1.641,4.791,4.791,0,0,1,2.38162-.66151c1.72092,0,4.47325,1.05858,4.47325,5.47829V148.249h-2.32889v-7.35738c0-2.06445-.76779-3.81092-2.964-3.81092a3.34639,3.34639,0,0,0-3.123,2.3289,2.814,2.814,0,0,0-.159,1.11131V148.249h-2.32889Z"/><path class="cls-2" d="M396.61,131.84131a1.44213,1.44213,0,0,1-2.88414,0,1.41918,1.41918,0,0,1,1.45566-1.45566A1.38193,1.38193,0,0,1,396.61,131.84131ZM394.01662,148.249V135.43968h2.32889V148.249Z"/><path class="cls-2" d="M400.21,138.90707c0-1.323-.02636-2.408-.10545-3.46739h2.06363l.13263,2.11717h.05272a4.71123,4.71123,0,0,1,4.23435-2.408c1.77365,0,4.526,1.05858,4.526,5.45193V148.249h-2.32889v-7.38374c0-2.06445-.76779-3.78456-2.964-3.78456a3.41649,3.41649,0,0,0-3.282,3.46739V148.249H400.21Z"/><path class="cls-2" d="M425.93569,135.43968c-.05272.92678-.10544,1.959-.10544,3.52011v7.43647c0,2.93768-.58243,4.73769-1.82638,5.849a6.79163,6.79163,0,0,1-4.65778,1.53475,8.26963,8.26963,0,0,1-4.26071-1.05859l.58243-1.77282a7.22669,7.22669,0,0,0,3.75819,1.005c2.38161,0,4.12808-1.24312,4.12808-4.47243v-1.42848h-.05273a4.57415,4.57415,0,0,1-4.07535,2.14354c-3.17658,0-5.45193-2.6996-5.45193-6.24608,0-4.33979,2.83141-6.80131,5.76909-6.80131a4.26055,4.26055,0,0,1,3.99627,2.22344h.05273l.10627-1.93264Zm-2.408,5.05485a3.30593,3.30593,0,0,0-.13264-1.05858,3.35432,3.35432,0,0,0-3.25484-2.4607c-2.22345,0-3.81092,1.87909-3.81092,4.84314,0,2.51342,1.27031,4.60423,3.78456,4.60423a3.40363,3.40363,0,0,0,3.22848-2.38161,4.04334,4.04334,0,0,0,.18536-1.244Z"/><path class="cls-2" d="M429.37836,145.86738a6.10358,6.10358,0,0,0,3.0695.926c1.69373,0,2.48788-.84687,2.48788-1.90545,0-1.11131-.66151-1.7201-2.38161-2.35526-2.30253-.8205-3.38748-2.09081-3.38748-3.62555,0-2.06445,1.66738-3.75819,4.41888-3.75819a6.39048,6.39048,0,0,1,3.1494.79414l-.58161,1.69374a4.98356,4.98356,0,0,0-2.62052-.74142c-1.37575,0-2.14353.79415-2.14353,1.74729,0,1.05858.76778,1.53474,2.43516,2.16989,2.22262.84687,3.36112,1.95818,3.36112,3.86364,0,2.24981-1.74729,3.83727-4.79042,3.83727a7.29873,7.29873,0,0,1-3.59919-.87323Z"/><path class="cls-3" d="M140.08154,133.866H140.064a3.7505,3.7505,0,0,1-3.73291-3.76758l.38672-84.35058a3.75,3.75,0,0,1,7.5.03418l-.38672,84.35156A3.75,3.75,0,0,1,140.08154,133.866Z"/><path class="cls-3" d="M140.08105,74.00127H123.02393a3.75,3.75,0,1,1,0-7.5h17.05712a3.75,3.75,0,0,1,0,7.5Z"/><path class="cls-3" d="M140.08105,91.10674H123.02393a3.75,3.75,0,0,1,0-7.5h17.05712a3.75,3.75,0,0,1,0,7.5Z"/><path class="cls-3" d="M138.93213,113.54766H32.21094c-16.55811,0-30.0293-12.01269-30.0293-26.7793,0-13.65381,11.5166-24.9541,26.34033-26.58105l-.01465-.09229c-2.5288-15.96289,1.127-31.09668,10.02979-41.521A36.9866,36.9866,0,0,1,67.09619,5.46368c12.70166,0,25.689,6.01269,36.02442,16.59033a27.47953,27.47953,0,0,1,11.36181-2.48779c13.74854,0,25.49951,10.19921,28.91553,24.65625,20.42871,1.89941,36.02,16.60791,36.02,34.55273C179.418,97.949,161.25586,113.54766,138.93213,113.54766ZM32.21094,67.48614c-12.42285,0-22.5293,8.6499-22.5293,19.28222,0,10.63086,10.10645,19.2793,22.5293,19.2793H138.93213c18.18848,0,32.98584-12.23437,32.98584-27.27246,0-14.73731-13.95166-26.70313-31.76221-27.2417l-3.12988-.09424-.46533-3.09668C134.709,36.014,125.42383,27.06622,114.48242,27.06622a19.92645,19.92645,0,0,0-10.25244,2.854l-2.65283,1.56738L99.5249,29.18926C90.31738,18.87774,78.49756,12.96368,67.09619,12.96368a29.21307,29.21307,0,0,0-22.856,10.481C36.76416,32.19854,33.73,45.12872,35.91455,58.92071c.19531,1.23193.45166,2.5332.78272,3.97754L37.749,67.48614Z"/></svg>