<?xml version="1.0" encoding="UTF-8"?>
<!DOCTYPE svg PUBLIC "-//W3C//DTD SVG 1.1//EN" "http://www.w3.org/Graphics/SVG/1.1/DTD/svg11.dtd">
<!-- Creator: CorelDRAW 2018 (64-Bit) -->
<svg xmlns="http://www.w3.org/2000/svg" xml:space="preserve" width="1000mm" height="583.957mm" version="1.1" style="shape-rendering:geometricPrecision; text-rendering:geometricPrecision; image-rendering:optimizeQuality; fill-rule:evenodd; clip-rule:evenodd"
viewBox="0 0 2857.36 1668.58"
 xmlns:xlink="http://www.w3.org/1999/xlink">
 <defs>
  <style type="text/css">
   <![CDATA[
    .fil0 {fill:#1D89E3}
   ]]>
  </style>
 </defs>
 <g id="图层_x0020_1">
  <metadata id="CorelCorpID_0Corel-Layer"/>
  <g id="_1752672224896">
   <path class="fil0" d="M2494.05 32.46c12.82,24.04 53.43,80.54 66.25,122.62l-79.07 0c-4.27,19.23 -2.14,50.49 0,72.13l126.09 0 0 110.6 -145.33 0 0 73.33 138.91 1.2c-10.69,97.37 -79.07,175.51 -160.29,221.19l-2.14 -58.91 49.15 -9.62 0 -70.93 -47.02 7.21c-4.27,-119.01 -2.14,-262.07 -2.14,-383.48l40.61 0 0 -67.32c-76.94,0 -211.58,-2.4 -279.97,0l0 67.32 32.06 0 0 409.93c-6.41,8.41 -10.69,6.01 -21.37,7.21 -8.55,1.2 -19.23,2.4 -27.78,3.61l4.27 72.13 185.93 -24.04 0 105.79c21.37,2.4 44.88,1.2 66.25,0l0 -42.07 10.69 12.02c4.27,3.61 6.41,9.62 10.69,13.22 4.27,8.41 10.69,19.23 17.1,25.25 32.06,-12.02 113.27,-93.77 136.78,-128.63l34.19 -57.7c21.37,44.48 40.61,68.52 70.53,105.79 14.96,18.03 70.53,67.32 102.58,78.14l36.33 -67.32 -57.7 -38.47c-17.1,-13.22 -40.61,-33.66 -51.29,-49.29 -25.65,-30.05 -61.98,-81.75 -70.53,-131.03l158.15 0 0 -74.53 -156.01 0 0 -109.39 141.05 -1.2 0 -72.13 -87.62 0c6.41,-16.83 23.51,-43.28 32.06,-60.11 10.69,-19.23 23.51,-40.87 32.06,-61.31l-64.11 -31.26c-14.96,46.88 -76.94,139.45 -81.21,152.67l-79.07 0c8.55,-13.22 34.19,-27.65 47.02,-39.67 -6.41,-18.03 -23.51,-43.28 -34.19,-58.91 -8.55,-16.83 -25.65,-40.87 -34.19,-56.5l-57.7 32.46zm-200.89 175.51l79.07 0 0 -90.16 -79.07 0 0 90.16zm0 152.67l79.07 0 0 -87.76 -79.07 0 0 87.76zm0 163.49c14.96,-2.4 29.92,-3.61 42.74,-6.01 47.02,-7.21 36.33,8.41 36.33,-92.57l-79.07 0 0 98.58z"/>
   <path class="fil0" d="M1025.83 289.72l51.29 48.09 10.69 -13.22c8.55,31.26 14.96,58.91 25.65,88.96 10.69,30.05 25.65,51.69 36.33,79.34 -10.69,30.05 -100.45,111.8 -128.23,128.63l8.55 -20.44c-14.96,-3.61 -47.02,-20.44 -57.7,-28.85 6.41,-12.02 25.65,-26.45 49.15,-67.32 21.37,-40.87 19.23,-39.67 17.1,-93.77l-156.01 -1.2 12.82 -34.86 -66.25 -18.03 -23.51 52.89 -91.9 0 0 61.31 59.84 0 -32.06 62.51c17.1,6.01 87.62,39.67 98.31,50.49 -27.78,20.44 -126.09,44.48 -143.19,55.3l27.78 64.92c44.88,-10.82 136.78,-51.69 175.25,-76.94 14.96,-9.62 12.82,-9.62 32.06,1.2 17.1,10.82 44.88,27.65 64.11,34.86l8.55 -10.82c12.82,14.43 21.37,33.66 36.33,48.09 21.37,-8.42 81.21,-66.12 98.31,-82.95 8.55,-7.21 10.69,-12.02 19.23,-19.23 12.82,-12.02 21.37,-27.65 36.33,-38.47 12.82,12.02 34.19,45.68 47.02,57.7 8.55,6.01 12.82,10.82 19.23,16.83 10.69,14.43 59.84,62.51 74.8,69.72 10.69,-19.23 29.92,-42.08 42.74,-61.31 -8.55,-10.82 -8.55,-9.62 -19.23,-16.83 -6.41,-6.01 -10.69,-10.82 -17.1,-16.83 -8.55,-6.01 -12.82,-10.82 -19.23,-16.83 -27.78,-22.84 -29.92,-28.85 -53.43,-54.1 -10.69,-10.82 -23.51,-27.65 -34.19,-40.87 23.51,-51.69 36.33,-64.92 53.43,-132.24 12.82,-51.69 21.37,-105.79 25.65,-162.29l49.15 0 0 -73.33 -188.07 -1.2 27.78 -104.59 -70.53 -13.22c-10.69,67.32 -53.43,185.13 -89.76,246.44 -4.27,9.62 -12.82,22.84 -17.1,32.46zm164.56 133.44c12.82,-13.22 32.06,-84.15 36.33,-100.98 8.55,-38.47 17.1,-78.14 19.23,-119.01l-96.17 0c-23.51,15.63 -2.14,90.16 4.27,115.41 8.55,40.87 25.65,69.72 36.33,104.59zm-354.77 84.15c8.55,7.21 27.78,14.43 38.47,19.23 12.82,4.81 29.92,18.03 40.61,13.22 10.69,-6.01 42.74,-48.09 49.15,-68.52 -126.09,0 -104.72,-12.02 -128.23,36.06z"/>
   <path class="fil0" d="M1442.57 222.4l38.47 63.71c19.23,-16.83 34.19,-42.07 55.57,-58.91l0 183.93 544.97 1.2c4.27,-19.23 2.14,-37.27 2.14,-56.5l-226.54 0 0 -38.47 194.48 0 0 -51.69 -194.48 0 0 -37.27c38.47,-3.61 170.97,4.81 194.48,-2.4l0 -45.68 -194.48 -2.4 0 -38.47 211.58 -1.2 0 -52.89 -207.3 0c-4.27,-18.03 -17.1,-62.51 -25.65,-75.73l-68.39 10.82 19.23 64.92 -151.74 0c6.41,-16.83 23.51,-40.87 32.06,-60.11l-66.25 -24.04c-19.23,28.85 -27.78,60.11 -68.39,119.01 -12.82,16.83 -27.78,37.27 -42.74,52.89 -17.1,18.03 -25.65,32.46 -47.02,49.29zm162.42 -43.28l181.66 0 0 -40.87 -179.52 0 -2.14 40.87zm0 86.55l181.66 0 0 -38.47 -179.52 0 -2.14 38.47zm0 79.34l2.14 10.82 179.52 0 0 -37.27 -181.66 -1.2 0 27.65z"/>
   <path class="fil0" d="M117.54 224.8l147.46 1.2 0 74.53 -136.78 1.2 0 64.92 136.78 1.2 0 103.38 -164.56 1.2 -2.14 66.12c34.19,3.61 341.94,1.2 401.78,1.2l-2.14 -67.32 -66.25 0c8.55,-9.62 27.78,-27.65 34.19,-36.06l-51.29 -69.72 59.84 0 -2.14 -64.92 -138.91 0 0 -76.94 149.6 0 0 -63.71 -365.45 0 0 63.71zm215.85 247.64l81.21 0c-14.96,-28.85 -38.47,-54.1 -55.57,-79.34 8.55,-7.21 23.51,-18.03 29.92,-25.25l-53.43 -1.2 -2.14 105.79z"/>
   <path class="fil0" d="M1746.05 460.42l-275.69 0 0 58.91 237.22 0c-34.19,32.46 -200.89,90.16 -265.01,99.78 4.27,10.82 25.65,61.31 29.92,66.12 49.15,-14.43 98.31,-31.26 143.19,-50.49 76.94,-31.26 87.62,-45.68 128.23,-64.92l2.14 123.82 70.53 1.2 0 -128.63c19.23,8.41 40.61,25.25 61.98,36.06 61.98,30.05 147.46,66.12 213.71,80.54l27.78 -63.71c-57.7,-9.62 -228.67,-67.32 -260.73,-99.78l235.09 0 0 -58.91 -277.83 0 0 -37.27 -70.53 -3.61 0 40.87z"/>
   <path class="fil0" d="M861.27 168.3l-145.33 0 0 63.71 123.95 0c-14.96,21.64 -104.72,85.35 -141.05,100.98l27.78 61.31c44.88,-16.83 130.37,-98.58 134.64,-100.98l0 67.32 66.25 0 2.14 -62.51c21.37,10.82 74.8,68.52 89.76,75.73l36.33 -49.29c-14.96,-18.03 -79.07,-70.93 -102.58,-85.35 -10.69,8.41 -14.96,16.83 -23.51,25.25l0 -32.46 126.09 0 0 -63.71 -126.09 0c-2.14,-26.45 2.14,-129.83 -2.14,-147.86l-64.11 -3.61 -2.14 151.47z"/>
   <path class="fil0" d="M121.82 1238.21c0,92.56 21.37,158.68 74.8,212.78 100.45,99.78 305.61,98.58 403.92,-3.61 -8.55,-14.43 -53.43,-54.1 -66.25,-68.52l-12.82 8.41c-79.07,66.12 -217.99,60.11 -275.69,-32.46 -57.7,-92.57 -29.92,-253.65 111.13,-282.5 64.11,-13.22 134.64,8.41 168.83,44.48 6.41,-3.61 61.98,-52.89 66.25,-64.92 -98.31,-106.99 -292.79,-102.18 -393.23,-4.81 -44.88,43.28 -76.94,123.82 -76.94,191.14z"/>
   <path class="fil0" d="M2058.07 1667.37l96.17 1.2c8.55,-2.4 156.01,-355.83 173.11,-394.3l55.57 -134.64 -96.17 0c-10.69,7.21 -25.65,50.49 -32.06,64.92l-53.43 133.44c-6.41,19.23 -14.96,48.09 -25.65,66.12 -14.96,-37.27 -79.07,-252.45 -96.17,-264.47l-102.58 0 134.64 330.59c19.23,50.49 14.96,32.46 -25.65,131.03 -8.55,19.23 -23.51,49.29 -27.78,66.12z"/>
   <path class="fil0" d="M908.29 1139.63l-91.9 0c0,94.97 -14.96,254.85 34.19,319.77 44.88,58.9 130.37,76.94 192.34,43.28 25.65,-12.02 36.33,-26.45 53.43,-37.27l6.41 45.68 83.35 1.2c0,-44.48 2.14,-357.04 -2.14,-372.66l-87.62 0c-17.1,81.75 44.88,290.92 -94.03,295.73 -61.98,1.2 -91.9,-42.07 -94.03,-100.98 -2.14,-62.51 0,-132.24 0,-194.75z"/>
   <path class="fil0" d="M1292.97 1394.49c-6.41,6.01 -38.47,51.69 -44.88,63.71 10.69,20.44 53.43,46.88 87.62,56.5 126.09,39.67 284.24,-21.64 237.22,-155.08 -29.92,-86.55 -153.87,-64.92 -200.89,-86.55 -57.7,-26.45 2.14,-90.16 91.9,-61.31 25.65,7.21 34.19,19.23 49.15,26.45 10.69,-15.63 42.74,-49.29 49.15,-62.51 -32.06,-19.23 -49.15,-36.06 -98.31,-44.48 -226.54,-32.46 -286.38,197.15 -72.66,227.21 34.19,4.81 98.31,1.2 96.17,44.48 0,19.23 -14.96,31.26 -32.06,37.27 -36.33,12.02 -85.49,0 -117.54,-15.63 -23.51,-12.02 -27.78,-19.23 -44.88,-30.05z"/>
   <path class="fil0" d="M2457.72 1394.49c-12.82,15.63 -36.33,48.09 -42.74,63.71 96.17,121.42 382.55,76.94 322.71,-96.17 -10.69,-34.86 -34.19,-54.1 -74.8,-66.12 -47.02,-14.43 -166.7,-4.81 -145.33,-64.92 12.82,-32.46 85.49,-28.85 113.27,-19.23 23.51,7.21 32.06,19.23 47.02,26.45 8.55,-16.83 40.61,-45.68 49.15,-60.11 -38.47,-49.29 -151.74,-61.31 -222.26,-36.06 -96.17,33.66 -94.03,131.03 -51.29,175.51 70.53,67.32 203.03,19.23 200.89,84.15 -4.27,60.11 -111.13,51.69 -175.25,8.41 -10.69,-6.01 -12.82,-10.82 -21.37,-15.63z"/>
   <path class="fil0" d="M1664.84 1394.49c-8.55,6.01 -42.74,55.3 -44.88,68.52 25.65,18.03 38.47,37.27 87.62,52.89 130.37,37.27 282.1,-25.25 235.09,-156.28 -29.92,-86.55 -151.74,-64.92 -198.75,-85.35 -57.7,-26.45 -2.14,-91.36 91.9,-63.71 23.51,8.42 34.19,21.64 47.02,27.65 8.55,-12.02 14.96,-18.03 23.51,-30.05 8.55,-8.41 19.23,-21.64 25.65,-28.85 -36.33,-51.69 -149.6,-61.31 -220.13,-38.47 -108.99,37.27 -126.09,192.34 51.29,217.59 34.19,4.81 98.31,1.2 96.17,44.48 -2.14,19.23 -17.1,31.26 -34.19,37.27 -34.19,13.22 -85.49,0 -117.54,-15.63 -21.37,-10.82 -27.78,-18.03 -42.74,-30.05z"/>
   <polygon class="fil0" points="643.28,1511.09 653.97,1512.3 722.36,1512.3 733.04,1512.3 733.04,983.35 643.28,983.35 "/>
   <path class="fil0" d="M391.1 1186.52c-87.62,21.64 -53.43,146.66 29.92,126.23 29.92,-8.42 55.57,-38.47 44.88,-78.14 -6.41,-30.05 -36.33,-56.5 -74.8,-48.09z"/>
   <path class="fil0" d="M944.62 129.83c6.41,8.41 38.47,30.05 47.02,34.86 19.23,-24.04 61.98,-78.14 70.53,-102.18l-51.29 -32.46 -49.15 75.73c-4.27,7.21 -12.82,16.83 -17.1,24.04z"/>
   <path class="fil0" d="M733.04 62.51l34.19 48.09c8.55,13.22 19.23,34.86 29.92,48.09l36.33 -24.04c2.14,-1.2 2.14,-2.4 4.27,-3.61l6.41 -7.21c-17.1,-36.06 -47.02,-63.71 -64.11,-93.77 -12.82,4.81 -36.33,22.84 -47.02,32.46z"/>
   <path class="fil0" d="M-0 694.84l74.8 0 0 -31.26 448.8 -1.2 0 31.26 74.8 2.4 0 -658.77 -596.26 0 -2.14 657.57zm74.8 -103.38l448.8 1.2 0 -485.67 -448.8 0 0 484.46z"/>
  </g>
 </g>
</svg>
