<svg xmlns="http://www.w3.org/2000/svg" role="img" viewBox="-6.53 -6.28 326.82 108.57"><title>Cox Communications logo</title><defs><linearGradient id="a" x1="370.3" x2="604.31" y1="48.996" y2="283" gradientTransform="translate(-319.7 99.82) scale(.29002)" gradientUnits="userSpaceOnUse"><stop offset=".12" stop-color="#00AAF4"/><stop offset=".88" stop-color="#00D258"/></linearGradient></defs><g stroke-width=".29"><path fill="#00d258" d="M261.586 48.012l25.888-29.275c3.7102-4.1939 3.3135-10.603-.8791-14.31-4.1926-3.7093-10.604-3.3148-14.312.87865l-24.229 27.402-24.228-27.402c-3.7102-4.194-10.116-4.5882-14.312-.87865-4.1926 3.7093-4.5884 10.116-.87908 14.31l25.885 29.275-25.888 29.275c-3.7102 4.1939-3.3135 10.603.8791 14.31 4.1926 3.7093 10.603 3.3149 14.312-.87863l24.228-27.402 24.229 27.402c3.7102 4.1939 10.116 4.5882 14.312.87863 4.1926-3.7093 4.5879-10.116.8791-14.31z" class="st0"/><path fill="url(#a)" d="M-178.37 195.99c-26.474 0-48.014-21.537-48.014-48.014 0-26.477 21.54-48.014 48.014-48.014 26.473 0 48.014 21.537 48.014 48.014 0 26.477-21.54 48.014-48.014 48.014zm0-75.749c-15.293 0-27.735 12.442-27.735 27.735 0 15.292 12.442 27.735 27.735 27.735 15.292 0 27.735-12.442 27.735-27.735s-12.442-27.735-27.735-27.735z" class="st1" transform="translate(319.7 -99.958)"/><path fill="#00aaf4" d="M48.01 96.032c-26.477 0-48.014-21.541-48.014-48.014C-.004 21.545 21.533.004 48.01.004c8.602 0 17.045 2.3055 24.417 6.6647 4.8201 2.851 6.4151 9.0691 3.5659 13.889-2.8491 4.8202-9.069 6.4154-13.889 3.5642-4.2467-2.5115-9.1214-3.84-14.092-3.84-15.293 0-27.735 12.442-27.735 27.735s12.442 27.735 27.735 27.735c4.9711 0 9.8462-1.3286 14.092-3.84 4.8201-2.851 11.038-1.256 13.889 3.5641 2.8492 4.8202 1.2578 11.038-3.5659 13.889-7.3726 4.3589-15.816 6.6648-24.417 6.6648z" class="st2"/></g><path fill="#00d258" d="M305.755 76.742c1.3922 0 2.7515.35905 4.0778 1.0772 1.3263.71077 2.3595 1.733 3.0996 3.0666.74008 1.3263 1.1101 2.7112 1.1101 4.1547 0 1.4289-.36638 2.8028-1.0991 4.1218-.72543 1.319-1.7476 2.3448-3.0666 3.0776-1.3116.72543-2.6855 1.0881-4.1217 1.0881s-2.8138-.36271-4.1327-1.0881c-1.3116-.73275-2.3338-1.7586-3.0666-3.0776s-1.0991-2.6929-1.0991-4.1218c0-1.4435.37004-2.8284 1.1101-4.1547.74741-1.3336 1.7843-2.3558 3.1105-3.0666 1.3263-.7181 2.6855-1.0772 4.0778-1.0772zm0 1.3739c-1.1651 0-2.3009.30043-3.4073.90129-1.0991.59353-1.9601 1.4472-2.583 2.561-.62284 1.1065-.93426 2.2606-.93426 3.4623 0 1.1944.30409 2.3412.91228 3.4403.61552 1.0918 1.4728 1.9455 2.572 2.561 1.0991.60819 2.2459.91228 3.4403.91228s2.3412-.30409 3.4403-.91228c1.0991-.61551 1.9528-1.4692 2.561-2.561.60819-1.0991.91228-2.2459.91228-3.4403 0-1.2017-.31142-2.3558-.93426-3.4623-.61551-1.1138-1.4765-1.9674-2.583-2.561-1.1065-.60086-2.2386-.90129-3.3963-.90129zm-3.304 11.508v-8.925h3.0666c1.0478 0 1.5724.0843 2.0413.2528.46896.16121.69233.44698.97078.85733.27845.41034.41767.84633.41767 1.308 0 1.0896-.19634 1.9729-1.6226 2.706l2.6223 3.8009h-1.7586c-.99856-1.4725-2.4473-3.5322-2.4473-3.5322h-1.8503v3.5322zm1.4399-4.7632h1.7476c.83534 0 1.4088-.27211 1.6233-.59813.21179-.32181.31001-.66801.30808-1.0247-.0013-.24566-.07328-.49827-.21983-.70344-.14655-.2125-.35172-.37004-.61552-.47263-.25646-.10259-.50256-.15388-1.206-.15388h-1.6377z"/></svg>