<?xml version="1.0" standalone="no"?>
<!DOCTYPE svg PUBLIC "-//W3C//DTD SVG 20010904//EN"
 "http://www.w3.org/TR/2001/REC-SVG-20010904/DTD/svg10.dtd">
<svg version="1.0" xmlns="http://www.w3.org/2000/svg"
 width="1600.000000pt" height="637.000000pt" viewBox="0 0 1600.000000 637.000000"
 preserveAspectRatio="xMidYMid meet">

<g transform="translate(0.000000,637.000000) scale(0.100000,-0.100000)"
fill="#000000" stroke="none">
<path d="M230 3633 c0 -1699 4 -2549 11 -2593 29 -182 126 -373 259 -510 122
-125 277 -215 451 -262 l84 -23 2383 -2 2382 -3 0 2960 0 2960 -2785 0 -2785
0 0 -2527z m4554 2056 c30 -51 86 -100 147 -129 l59 -27 -64 -32 c-58 -28
-126 -88 -154 -137 -12 -19 -12 -19 -24 0 -29 49 -96 109 -155 138 l-65 32 37
13 c54 19 126 76 160 127 17 25 32 46 35 46 3 0 14 -14 24 -31z m-648 -76 c47
-200 -25 -388 -192 -498 -132 -88 -249 -114 -549 -125 -168 -6 -244 -13 -320
-30 -100 -22 -270 -78 -262 -87 3 -2 54 4 113 14 97 16 167 18 638 15 418 -2
557 1 657 13 370 43 659 157 843 334 73 71 80 64 29 -30 -168 -314 -636 -499
-1408 -559 -77 -6 -270 -15 -430 -20 -168 -5 -328 -15 -380 -24 -344 -58 -601
-213 -718 -434 -36 -66 -36 -66 -37 -31 -1 151 94 390 207 520 210 241 485
382 899 464 381 75 589 168 750 337 59 61 124 169 124 205 0 34 22 -5 36 -64z
m-1296 -303 c-41 -126 -126 -210 -260 -255 -41 -14 -153 -41 -249 -60 -183
-38 -258 -67 -326 -126 -37 -33 -44 -26 -20 20 44 85 205 183 430 261 66 23
145 56 175 73 72 40 209 178 240 242 l25 51 3 -71 c2 -50 -3 -88 -18 -135z
m-690 -170 c-118 -41 -299 -131 -399 -198 -266 -176 -403 -417 -362 -636 6
-32 29 -99 51 -147 23 -49 47 -117 54 -151 14 -69 17 -65 31 47 57 445 419
794 913 880 139 24 145 20 43 -30 -341 -166 -524 -416 -522 -714 0 -155 52
-315 137 -427 19 -25 33 -48 30 -51 -3 -3 -30 6 -60 21 -65 32 -147 117 -194
201 l-33 60 6 -50 c23 -174 134 -288 303 -311 72 -9 202 20 286 64 86 45 192
148 304 294 45 58 110 132 145 163 45 42 55 55 37 50 -47 -14 -75 -33 -149
-99 -85 -77 -131 -95 -184 -72 -81 33 -88 104 -19 179 34 36 42 34 35 -6 -6
-39 15 -67 50 -67 12 0 85 31 162 70 77 39 163 75 191 80 69 12 121 -2 142
-40 12 -20 27 -30 53 -34 23 -4 51 -19 73 -40 43 -40 48 -65 9 -39 -17 12 -46
18 -82 18 -71 -1 -144 -39 -210 -110 -57 -63 -94 -132 -161 -300 -49 -123
-109 -252 -133 -285 -6 -8 41 37 104 100 137 139 184 166 370 215 162 42 304
110 424 200 47 35 85 61 85 57 0 -10 -46 -78 -88 -129 -46 -57 -161 -143 -252
-188 -41 -21 -128 -55 -193 -76 -129 -42 -209 -89 -257 -149 -33 -42 -40 -62
-12 -37 28 26 99 54 207 82 67 17 118 37 154 61 l53 36 -28 -52 c-91 -168
-342 -292 -619 -307 -102 -5 -114 -8 -165 -39 -90 -55 -163 -76 -280 -82 -126
-5 -198 10 -315 67 -88 44 -197 128 -234 183 -22 32 -32 36 -123 57 -69 16
-133 39 -211 78 -97 49 -123 68 -197 142 -93 94 -134 161 -171 281 -33 105
-34 274 -2 376 19 61 91 190 100 180 2 -2 -4 -34 -13 -72 -26 -106 -23 -273 5
-347 30 -75 75 -133 134 -171 155 -100 175 -116 220 -175 45 -60 47 -61 47
-32 0 77 -69 200 -186 331 -137 153 -162 297 -85 481 102 242 337 452 618 552
136 49 300 84 398 86 l50 1 -85 -30z m-557 -2515 c72 -19 127 -46 196 -97 l53
-40 -48 -49 c-27 -27 -52 -49 -58 -49 -5 0 -39 20 -75 45 -104 70 -203 89
-314 60 -69 -18 -122 -50 -166 -101 -55 -62 -75 -118 -76 -209 0 -97 29 -170
94 -233 64 -62 121 -85 226 -90 107 -5 173 15 257 79 29 21 56 39 59 39 4 0
29 -20 56 -45 l48 -45 -35 -30 c-102 -87 -200 -128 -332 -137 -159 -11 -294
34 -397 131 -122 117 -168 279 -126 441 40 153 176 286 336 329 72 19 230 20
302 1z m567 -270 c0 -150 5 -286 11 -314 24 -114 114 -181 243 -181 88 0 136
15 185 56 71 61 75 81 79 412 l4 292 74 0 75 0 -3 -312 -3 -313 -28 -60 c-15
-33 -45 -77 -65 -98 -144 -149 -454 -157 -607 -16 -109 101 -125 167 -125 532
l0 267 80 0 80 0 0 -265z m1050 85 l0 -180 218 -2 217 -3 3 -67 3 -68 -221 0
-220 0 0 -200 0 -201 -77 3 -78 3 -3 448 -2 447 80 0 80 0 0 -180z m700 -270
l0 -451 -77 3 -78 3 -3 448 -2 447 80 0 80 0 0 -450z m380 240 c0 -115 2 -210
5 -210 3 0 118 94 257 210 l253 210 100 0 c56 0 95 -4 90 -9 -6 -4 -120 -102
-254 -216 l-244 -209 59 -52 c32 -29 148 -131 256 -226 108 -95 197 -176 197
-180 1 -5 -41 -8 -92 -8 l-92 0 -265 230 -265 229 -3 -229 -2 -230 -75 0 -75
0 0 450 0 450 75 0 75 0 0 -210z m-3131 -1047 c34 -26 41 -81 13 -107 -20 -17
-20 -18 4 -41 26 -26 32 -72 13 -107 -17 -31 -71 -48 -154 -48 l-75 0 0 159
c0 184 -8 172 109 166 43 -2 72 -9 90 -22z m627 14 c3 -3 3 -19 -1 -35 -6 -28
-8 -30 -37 -21 -42 12 -78 2 -78 -22 0 -13 17 -27 55 -46 91 -42 109 -113 43
-168 -24 -21 -40 -25 -89 -25 -79 0 -100 11 -90 47 5 17 14 27 22 24 47 -12
90 -12 104 -1 27 22 16 41 -39 65 -61 27 -86 56 -86 98 0 65 50 100 137 94 29
-2 56 -6 59 -10z m154 -153 l0 -165 -37 3 -38 3 -3 150 c-1 82 0 155 2 162 3
7 21 13 41 13 l35 0 0 -166z m887 152 c8 -7 -13 -61 -23 -60 -5 1 -23 5 -39 8
-20 4 -37 1 -50 -8 -17 -12 -17 -16 -5 -30 7 -10 29 -24 49 -32 83 -35 107
-103 57 -161 -23 -26 -29 -28 -104 -28 -44 0 -83 3 -86 6 -3 3 -3 20 0 38 5
24 11 31 23 25 9 -3 35 -8 58 -11 34 -4 43 -2 52 15 12 23 -4 41 -56 61 -47
19 -77 56 -77 95 0 64 55 99 143 92 29 -3 55 -7 58 -10z m247 4 c16 -6 24 -15
21 -25 -3 -8 -7 -21 -9 -29 -4 -12 -12 -13 -40 -5 -40 11 -76 -2 -76 -26 0 -9
24 -26 54 -39 60 -27 86 -57 86 -99 0 -62 -46 -97 -127 -97 -81 0 -96 8 -89
43 3 17 8 32 9 33 2 2 19 -2 39 -8 50 -15 90 -4 86 25 -2 15 -20 30 -59 48
-91 44 -104 116 -30 166 36 25 91 30 135 13z m360 0 c16 -6 24 -15 21 -25 -3
-8 -7 -21 -9 -29 -4 -12 -12 -13 -40 -5 -40 11 -76 -2 -76 -26 0 -9 24 -26 54
-39 60 -27 86 -57 86 -99 0 -62 -46 -97 -127 -97 -81 0 -96 8 -89 43 3 17 8
32 9 33 2 2 19 -2 39 -8 50 -15 90 -4 86 25 -2 15 -20 30 -59 48 -91 44 -104
116 -30 166 36 25 91 30 135 13z m331 -2 c3 -3 3 -17 -1 -31 -6 -25 -10 -26
-60 -25 -62 2 -98 -22 -107 -72 -16 -80 37 -138 119 -126 40 5 42 4 46 -24 5
-35 -4 -40 -79 -40 -95 0 -152 44 -168 131 -14 73 34 159 105 188 25 11 135
10 145 -1z m615 -6 c71 -37 99 -144 60 -229 -26 -58 -69 -83 -142 -83 -46 0
-62 5 -88 26 -43 37 -60 75 -60 136 1 129 120 207 230 150z m350 0 c102 -51
108 -224 10 -290 -30 -20 -45 -23 -97 -20 -52 3 -68 9 -93 33 -38 36 -54 84
-48 147 11 115 127 181 228 130z m-3390 -106 c0 -124 8 -146 55 -146 43 0 55
33 55 152 l0 108 40 0 40 0 0 -87 c-1 -126 -12 -172 -49 -205 -27 -24 -40 -28
-89 -28 -106 0 -132 41 -132 210 l0 110 40 0 40 0 0 -114z m828 17 l52 -98 0
98 0 97 35 0 35 0 0 -161 0 -160 -41 3 -42 3 -58 110 -59 110 0 -112 0 -113
-35 0 -35 0 0 160 0 160 48 0 47 0 53 -97z m402 67 l0 -30 -65 0 -65 0 0 -30
0 -30 60 0 c60 0 60 0 60 -30 0 -28 -1 -29 -57 -32 l-58 -3 0 -35 0 -35 68 -3
c68 -3 68 -3 65 -30 l-3 -27 -102 -3 -103 -3 0 161 0 160 100 0 100 0 0 -30z
m1330 -30 l0 -60 55 0 55 0 0 60 0 60 40 0 40 0 0 -161 0 -160 -37 3 -38 3 -3
63 -3 62 -54 0 -55 0 0 -66 0 -65 -37 3 -38 3 -3 158 -3 157 41 0 40 0 0 -60z
m1040 -65 l0 -125 65 0 65 0 0 -35 0 -35 -100 0 -100 0 0 160 0 160 35 0 35 0
0 -125z"/>
<path d="M1040 1296 c0 -31 3 -36 23 -36 33 0 49 15 45 41 -2 19 -10 25 -35
27 -32 3 -33 2 -33 -32z"/>
<path d="M1040 1160 c0 -40 1 -41 31 -38 64 6 64 70 0 76 -30 3 -31 2 -31 -38z"/>
<path d="M4272 1323 c-21 -8 -42 -60 -42 -106 0 -105 109 -137 140 -42 29 88
-29 176 -98 148z"/>
<path d="M4618 1316 c-40 -30 -49 -112 -18 -163 16 -27 26 -33 55 -33 29 0 39
6 55 33 55 90 -18 220 -92 163z"/>
<path d="M8963 2601 c-30 -19 -53 -67 -53 -113 0 -11 -8 -18 -20 -18 -15 0
-20 -7 -20 -25 0 -18 5 -25 20 -25 19 0 20 -7 20 -115 l0 -115 35 0 35 0 0
115 0 115 30 0 c25 0 30 4 30 25 0 21 -5 25 -30 25 -27 0 -30 3 -30 29 0 36
23 61 56 61 22 0 25 4 22 28 -2 22 -9 28 -33 30 -17 1 -44 -6 -62 -17z"/>
<path d="M7045 2572 c-76 -36 -115 -103 -115 -194 1 -125 77 -198 207 -198 85
0 103 7 103 40 l0 27 -67 -4 c-53 -3 -76 0 -102 14 -92 48 -94 204 -4 256 33
19 88 24 140 13 28 -6 31 -4 36 21 3 15 3 30 0 33 -2 3 -39 6 -81 8 -59 2 -86
-2 -117 -16z"/>
<path d="M8050 2540 c-18 -4 -26 -14 -30 -35 -4 -21 -12 -31 -28 -33 -34 -5
-31 -52 3 -52 l25 0 0 -100 c0 -121 12 -140 85 -140 43 0 45 1 45 30 0 25 -4
30 -23 30 -38 0 -47 19 -47 102 l0 78 35 0 c30 0 35 3 35 24 0 21 -6 25 -32
28 -29 3 -34 7 -38 39 -5 32 -7 34 -30 29z"/>
<path d="M7373 2460 c-44 -27 -63 -68 -63 -138 0 -45 5 -66 21 -86 40 -50 102
-67 188 -50 26 5 31 11 31 34 0 28 -1 28 -36 18 -47 -13 -99 -3 -124 24 -39
42 -28 48 80 48 l100 0 0 36 c0 49 -27 102 -61 119 -39 21 -98 19 -136 -5z
m115 -42 c5 -7 13 -23 16 -35 7 -22 5 -23 -63 -23 -39 0 -71 3 -71 6 0 11 23
49 34 56 18 12 73 9 84 -4z"/>
<path d="M7748 2464 c-16 -8 -28 -20 -29 -27 0 -7 -4 -2 -9 11 -6 15 -18 22
-35 22 l-25 0 0 -140 0 -140 29 0 29 0 4 94 c3 106 19 136 69 136 46 0 59 -31
59 -137 l0 -93 36 0 36 0 -4 116 -3 116 -33 29 c-37 33 -80 37 -124 13z"/>
<path d="M8284 2470 c-65 -26 -99 -127 -70 -205 27 -70 89 -96 191 -81 40 6
46 10 43 29 -3 20 -8 22 -55 19 -72 -5 -123 24 -123 69 0 5 45 9 100 9 l100 0
0 30 c0 44 -23 93 -55 118 -29 23 -90 29 -131 12z m100 -56 c9 -8 16 -24 16
-35 0 -17 -7 -19 -65 -19 -51 0 -65 3 -65 15 0 44 81 72 114 39z"/>
<path d="M8629 2449 l-29 -31 0 26 c0 22 -4 26 -30 26 l-30 0 0 -140 0 -140
35 0 35 0 0 81 c0 104 17 139 68 139 19 0 22 5 22 35 0 29 -4 35 -21 35 -12 0
-34 -14 -50 -31z"/>
<path d="M9164 2466 c-43 -19 -72 -60 -80 -111 -8 -55 8 -104 46 -140 24 -23
41 -29 87 -33 48 -3 64 0 93 20 50 34 72 81 67 146 -3 45 -9 59 -40 89 -30 31
-43 37 -89 40 -31 2 -65 -2 -84 -11z m107 -49 c40 -30 51 -96 24 -146 -25 -49
-78 -56 -116 -15 -19 20 -24 36 -24 76 0 42 4 53 28 74 31 26 63 30 88 11z"/>
<path d="M9539 2448 l-29 -32 0 27 c0 22 -4 27 -25 27 l-25 0 0 -140 0 -140
29 0 29 0 4 89 c3 101 20 131 70 131 25 0 28 3 28 35 0 31 -3 35 -26 35 -16 0
-36 -12 -55 -32z"/>
<path d="M14150 1530 l0 -470 50 0 50 0 0 207 c0 190 2 210 21 251 29 59 85
95 149 96 60 1 96 -23 128 -84 21 -42 22 -56 22 -257 l0 -213 56 0 56 0 -4
233 c-3 215 -5 236 -26 282 -29 63 -56 93 -107 116 -84 39 -175 20 -246 -51
l-49 -49 0 204 0 205 -50 0 -50 0 0 -470z"/>
<path d="M14840 1950 c-29 -29 -27 -94 2 -114 50 -36 108 -4 108 58 0 25 -7
40 -26 55 -33 26 -58 27 -84 1z"/>
<path d="M6910 1505 l0 -445 245 0 245 0 0 45 0 45 -192 2 -193 3 0 160 0 160
173 3 172 2 0 45 0 45 -175 0 -175 0 0 140 0 140 185 0 185 0 0 50 0 50 -235
0 -235 0 0 -445z"/>
<path d="M8268 1832 l-48 -13 0 -60 0 -59 -45 0 -45 0 0 -45 0 -45 44 0 44 0
4 -222 c3 -196 5 -228 22 -262 27 -54 67 -76 143 -76 86 0 93 4 93 55 l0 43
-45 -6 c-57 -6 -90 15 -104 65 -6 21 -11 120 -11 221 l0 182 85 0 85 0 0 45 0
45 -85 0 -84 0 -3 73 -3 73 -47 -14z"/>
<path d="M7725 1691 c-22 -10 -57 -37 -77 -59 -21 -23 -40 -42 -43 -42 -3 0
-5 25 -5 55 l0 55 -45 0 -45 0 0 -320 0 -320 54 0 55 0 3 223 3 224 29 37 c36
48 105 80 153 73 50 -8 79 -31 105 -80 22 -39 23 -56 26 -259 l3 -218 50 0 49
0 0 218 c0 246 -9 297 -63 359 -61 70 -168 93 -252 54z"/>
<path d="M8785 1691 c-37 -23 -68 -56 -88 -96 l-15 -30 -7 68 -7 67 -45 0 -45
0 6 -31 c3 -17 6 -161 6 -320 l0 -289 49 0 50 0 3 208 c3 199 4 209 28 251 30
54 77 84 131 84 l39 0 0 53 0 54 -37 0 c-21 0 -51 -8 -68 -19z"/>
<path d="M9126 1700 c-137 -41 -228 -226 -196 -401 14 -77 31 -112 79 -162 66
-71 100 -82 236 -82 91 1 129 5 158 18 36 16 38 19 32 49 -10 47 -10 47 -62
32 -25 -8 -79 -14 -120 -14 -83 0 -129 18 -177 69 -28 29 -61 124 -50 142 3 5
107 9 231 9 l226 0 -7 70 c-12 133 -68 227 -158 265 -40 16 -144 19 -192 5z
m164 -88 c39 -21 74 -77 84 -134 l7 -38 -176 0 c-169 0 -175 1 -175 20 0 53
66 143 120 163 33 12 107 6 140 -11z"/>
<path d="M9804 1686 c-27 -13 -67 -43 -87 -66 l-37 -44 0 62 0 62 -51 0 c-48
0 -51 -1 -45 -22 3 -13 6 -215 6 -450 l0 -428 50 0 50 0 0 177 0 177 38 -36
c48 -48 98 -68 168 -68 86 0 132 18 190 75 71 69 97 139 97 260 0 149 -52 248
-155 299 -69 35 -152 35 -224 2z m166 -86 c97 -50 139 -203 90 -334 -84 -222
-370 -150 -370 94 0 122 37 202 112 239 54 26 117 27 168 1z"/>
<path d="M10495 1691 c-36 -22 -67 -56 -88 -96 l-16 -30 -1 68 0 67 -45 0 -45
0 0 -320 0 -320 49 0 50 0 3 203 c3 194 4 205 28 252 30 58 75 88 131 88 l39
0 0 53 0 54 -37 0 c-21 0 -51 -8 -68 -19z"/>
<path d="M10835 1698 c-33 -12 -90 -52 -118 -83 -44 -49 -71 -127 -75 -221 -6
-122 13 -185 73 -252 67 -75 129 -96 260 -89 55 3 117 11 138 18 38 13 39 14
33 53 -4 22 -8 42 -10 43 -2 2 -22 -4 -46 -12 -56 -20 -180 -19 -228 0 -70 30
-121 102 -122 173 l0 32 226 0 227 0 -6 75 c-9 124 -63 216 -152 256 -45 21
-150 24 -200 7z m175 -90 c37 -26 68 -78 77 -132 l6 -36 -178 0 -177 0 6 32
c10 53 54 116 94 138 52 27 130 26 172 -2z"/>
<path d="M11515 1691 c-39 -17 -105 -76 -105 -93 0 -4 -4 -8 -10 -8 -5 0 -10
25 -10 55 l0 55 -45 0 -45 0 0 -320 0 -320 50 0 50 0 0 193 c0 105 5 209 11
230 13 50 71 113 116 128 73 24 148 -10 179 -83 15 -36 19 -78 22 -255 l4
-213 50 0 50 0 -4 238 c-4 258 -9 285 -66 346 -59 63 -167 84 -247 47z"/>
<path d="M12132 1698 c-51 -17 -128 -92 -159 -156 -26 -52 -28 -66 -28 -172 0
-106 2 -119 27 -166 33 -63 95 -118 156 -138 60 -21 190 -20 265 1 l59 16 -6
41 c-4 22 -8 42 -10 43 -2 2 -22 -4 -46 -12 -56 -20 -180 -19 -228 0 -70 30
-121 102 -122 173 l0 32 226 0 227 0 -6 77 c-8 109 -52 195 -121 238 -42 26
-60 30 -125 32 -42 1 -91 -3 -109 -9z m178 -91 c42 -27 67 -69 76 -125 l7 -42
-177 0 c-161 0 -176 1 -176 18 0 19 32 89 52 113 49 60 157 78 218 36z"/>
<path d="M13480 1692 c-19 -10 -51 -42 -70 -71 l-35 -53 -3 66 -3 66 -44 0
-45 0 0 -320 0 -320 55 0 55 0 0 200 c0 218 6 249 58 303 28 29 90 51 116 41
14 -5 16 3 16 50 l0 56 -33 0 c-18 0 -48 -8 -67 -18z"/>
<path d="M13760 1695 c-87 -40 -130 -121 -110 -211 12 -53 78 -111 168 -147
85 -34 107 -56 107 -108 0 -29 -7 -46 -28 -67 -25 -24 -34 -27 -95 -27 -47 1
-79 7 -109 22 l-43 21 -10 -37 c-15 -55 -14 -57 46 -76 83 -26 209 -18 262 18
74 49 101 149 63 233 -23 50 -56 75 -153 114 -85 34 -108 58 -108 109 0 77 81
110 178 73 l53 -20 10 24 c24 64 -4 85 -121 91 -54 2 -85 -1 -110 -12z"/>
<path d="M15323 1694 c-24 -9 -60 -35 -86 -63 l-45 -48 -6 59 -7 58 -44 0 -45
0 0 -450 0 -450 55 0 55 0 0 176 0 175 34 -35 c45 -48 92 -66 174 -66 118 0
196 53 251 170 23 49 26 67 26 165 0 94 -3 118 -24 162 -28 64 -105 138 -157
152 -53 15 -130 12 -181 -5z m140 -88 c41 -17 91 -73 108 -123 23 -64 17 -169
-13 -234 -29 -63 -64 -93 -130 -109 -83 -21 -167 20 -208 101 -30 58 -28 197
4 264 13 28 32 57 42 66 56 48 134 62 197 35z"/>
<path d="M12602 1453 l3 -248 29 -53 c41 -73 91 -102 177 -102 81 0 133 24
182 80 l37 44 0 -35 c0 -69 8 -79 58 -79 l45 0 -7 46 c-3 26 -6 170 -6 320 l0
274 -50 0 -50 0 0 -205 c0 -254 -11 -289 -102 -336 -74 -38 -149 -16 -189 54
-23 40 -24 51 -27 265 l-4 222 -50 0 -50 0 4 -247z"/>
<path d="M14830 1380 l0 -320 55 0 55 0 0 320 0 320 -55 0 -55 0 0 -320z"/>
</g>
</svg>
