<svg id="Layer_1" data-name="Layer 1" xmlns="http://www.w3.org/2000/svg" viewBox="0 0 530.30852 530.30875"><defs><style>.cls-1{fill:#36256c;}</style></defs><title>d2iq-1</title><path class="cls-1" d="M265.15419,528.75534q-131.816,0-263.63205.03091c-1.24229.00045-1.52243-.2795-1.5222-1.52215Q.04842,263.63206,0,0C-.00023-1.24184.27872-1.52261,1.52179-1.52238q263.632.04852,527.26411.00012c1.24143-.00023,1.52275.27815,1.52255,1.5216q-.04861,263.63206-.00016,527.26411c.0002,1.24107-.27752,1.5234-1.52142,1.52291Q396.97052,528.73521,265.15419,528.75534ZM128.97038,457.06152c.38463.02557.76927.07359,1.1539.07359q56.72961-.00091,113.4592-.00886c.5982-.38472.359-.993.36-1.50491q.02452-12.70971.00781-25.4195c-.00055-.52874.17626-1.11279-.30106-1.558l-.39908-.3278c-.50194-.52142-1.147-.29075-1.72632-.29135q-19.46219-.02009-38.92439-.00356c-.59118.00045-1.22068-.17367-1.7652.23079-.41713-.48125-.189-1.05574-.18925-1.57781q-.02212-55.56136-.047-111.12266c-.00154-1.40976.26344-1.85687,1.78977-1.845,10.32224.08036,20.64543.04863,30.9683.03811,3.41916-.0035,6.83831-.0513,10.25745-.07883.63271-.17561.32859-.69453.3293-1.04076q.02634-12.99419.00487-25.98844c-.00051-.47682.15292-1.009-.31777-1.38646-.49306-.03012-.98614-.08659-1.4792-.08665q-55.78543-.0058-111.57083.00225c-.54663.0001-1.09326.07915-1.63988.12136-.08843.00453-.22582-.0232-.2547.02059a.59158.59158,0,0,0-.059.31057q-.00678,13.81224-.00122,27.62448c.0001.158-.08761.504.31369.34536l.47873.25478c.43855.02933.87709.08419,1.31565.08433,13.02483.004,26.04979.02777,39.07437-.03117,1.547-.007,1.95007.46982,1.94852,1.97083q-.05734,55.13507.00087,110.27018c.0019,1.58659-.51919,1.909-1.979,1.90371-12.91435-.04668-25.82894-.02731-38.74344-.00939-.57348.00081-1.22407-.25248-1.71538.29714l-.38967.37963c-.42227.32566-.309.79651-.30934,1.22177q-.00954,12.977.0012,25.954C128.62267,456.29539,128.45905,456.78744,128.97038,457.06152ZM353.98327,99.05414c10.06564,1.59839,17.13375,8.76253,18.49768,18.74889,1.22828,8.99311-3.87608,18.06875-12.43632,22.07547a22.40262,22.40262,0,0,1-9.62327,1.92164c-6.45644.01467-12.93664-.40606-19.36359.33544a48.51473,48.51473,0,0,0-28.15654,12.89922c-10.26391,9.57011-15.92889,21.39614-16.15238,35.50168-.26413,16.67153-.20472,33.34813-.33134,50.02215-.00908,1.1979.23081,1.57729,1.517,1.576q55.83145-.05789,111.66293-.00077c1.251.00125,1.54007-.31292,1.53161-1.54175-.05773-8.39367-.08334-16.78855.01655-25.18141.0197-1.65672-.4624-1.93428-2.00194-1.93145-27.391.05018-54.7822.02494-82.17326.06946-1.40295.00229-1.73726-.38509-1.7225-1.744.0708-6.51566.03542-13.03254.03263-19.549a21.40951,21.40951,0,0,1,19.77538-21.68769,1.47552,1.47552,0,0,0,1.08835.27995q8.99813-.00931,17.99622-.03c.34366-.00111.80044.1761.97261-.35309,1.62308-.2456,3.256-.439,4.86774-.74459a50.17009,50.17009,0,0,0-7.86535-99.52925c-21.35879-.31849-42.72616-.05846-64.08966-.0891-1.06416-.00153-1.3843.249-1.37837,1.352.04687,8.72182.02247,17.444.0356,26.16607.00069.45672-.22092,1.01756.37067,1.32638.56107.53877,1.26117.29119,1.89358.29165q31.79088.0227,63.58175.01574A2.73089,2.73089,0,0,0,353.98327,99.05414Zm-110.4164,90.78361c.68322-.345.3581-.97674.35855-1.46379q.02916-32.041.00172-64.082c-.00049-.5523.30561-1.22467-.34439-1.66468-.431-2.48519-.782-4.98741-1.30549-7.453a57.41512,57.41512,0,0,0-55.66988-45.04863q-27.82684-.00456-55.65368.00263c-.6608.00014-1.3216.04635-1.9824.07108-.60832.38755-.34282,1.00172-.343,1.50885q-.02288,84.47166-.00266,168.94334c.00011.4377-.29758,1.009.31554,1.32505.547.04228,1.09408.12128,1.64113.12147q27.91286.00922,55.82569.01471a47.08844,47.08844,0,0,0,9.54636-.7727q34.23408-7.03725,45.32729-40.22327C242.49816,197.45183,242.91923,193.62066,243.56687,189.83774ZM349.393,285.33486l.23168-.34645a.87512.87512,0,0,0-.28318-.10913q-5.31556-.00825-10.63107.00154c-.20434.00047-.45139.0494-.3169.376a3.86486,3.86486,0,0,1-.77475.23336,50.0121,50.0121,0,0,0-12.67992,2.8298,57.39631,57.39631,0,0,0-38.4887,54.62965q-.05182,28.16789.00744,56.3359a57.53569,57.53569,0,0,0,.34237,6.61016,55.84681,55.84681,0,0,0,14.61215,32.37038c13.26434,14.2592,29.73816,20.41955,49.08467,18.43627A53.93751,53.93751,0,0,0,379.048,444.892c1.187-.94761,1.67616-.63846,2.55928.2543,6.40789,6.47768,12.88363,12.88828,19.28812,19.36931.83968.84979,1.25434.95716,2.15769.03871q9.00362-9.15417,18.1524-18.1649c.883-.87022.86116-1.26947-.00413-2.12625-7.61291-7.538-15.15612-15.14642-22.768-22.6855a2.14892,2.14892,0,0,1-.648-2.6747,51.06931,51.06931,0,0,0,3.25983-17.5993q.04236-29.16144.05109-58.32291a52.69537,52.69537,0,0,0-.48453-8.42029c-2.94182-18.2723-12.27644-32.25547-28.19793-41.75713A57.24175,57.24175,0,0,0,349.393,285.33486Z" transform="translate(0.00006 1.52238)"/><path class="cls-1" d="M315.2775,340.13462a28.66019,28.66019,0,0,1,56.87715-2.11108,20.53676,20.53676,0,0,1,.30462,3.293q.02791,26.90868.01319,53.82157c-.61115.15955-.78183-.37283-1.05922-.64905-5.67166-5.648-11.35278-11.28692-16.96238-16.99616-.89421-.91007-1.30907-.85-2.16582.01849q-9.07171,9.1955-18.266,18.26959c-.786.77624-.71283,1.136.02415,1.86811,8.26355,8.209,16.4673,16.4783,24.752,24.66567,1.09114,1.0784.8612,1.43747-.30414,2.10987a28.768,28.768,0,0,1-11.46816,3.8141c-2.271-.47-4.56429-.14131-6.84678-.194a25.1196,25.1196,0,0,1-14.7-6.25849,27.86912,27.86912,0,0,1-10.22284-19.91828c.45285-.58781.26919-1.27517.26951-1.9188q.01475-29.10767.005-58.21534A2.46206,2.46206,0,0,0,315.2775,340.13462Z" transform="translate(0.00006 1.52238)"/><path class="cls-1" d="M189.33052,98.99266a28.60149,28.60149,0,0,1,24.94364,22.12346,30.64882,30.64882,0,0,1,.70907,6.554q.02333,28.57182.00409,57.1437a28.62566,28.62566,0,0,1-24.55337,28.3821,27.46331,27.46331,0,0,1-3.959.30632c-9.165.026-18.33043-.02356-27.4949.0517-1.46887.01208-1.26641-.76564-1.26618-1.64911q.00586-22.19494.00318-44.3899.00012-33.1268.00323-66.2536c.00011-.66.04783-1.32005.07333-1.98034q14.891-.01464,29.782-.03484C188.1664,99.24512,188.79667,99.42452,189.33052,98.99266Z" transform="translate(0.00006 1.52238)"/></svg>