<?xml version="1.0" encoding="UTF-8" standalone="no"?>
<svg
   xmlns:dc="http://purl.org/dc/elements/1.1/"
   xmlns:cc="http://creativecommons.org/ns#"
   xmlns:rdf="http://www.w3.org/1999/02/22-rdf-syntax-ns#"
   xmlns:svg="http://www.w3.org/2000/svg"
   xmlns="http://www.w3.org/2000/svg"
   xmlns:sodipodi="http://sodipodi.sourceforge.net/DTD/sodipodi-0.dtd"
   xmlns:inkscape="http://www.inkscape.org/namespaces/inkscape"
   version="1.1"
   id="svg2"
   xml:space="preserve"
   width="430.66666"
   height="249.33333"
   viewBox="0 0 430.66666 249.33333"
   sodipodi:docname="DellTech_Logo_Stk_Blue_Gry_rgb.ai"><metadata
     id="metadata8"><rdf:RDF><cc:Work
         rdf:about=""><dc:format>image/svg+xml</dc:format><dc:type
           rdf:resource="http://purl.org/dc/dcmitype/StillImage" /></cc:Work></rdf:RDF></metadata><defs
     id="defs6"><clipPath
       clipPathUnits="userSpaceOnUse"
       id="clipPath18"><path
         d="M 0,187 H 323 V 0 H 0 Z"
         id="path16" /></clipPath></defs><sodipodi:namedview
     pagecolor="#ffffff"
     bordercolor="#666666"
     borderopacity="1"
     objecttolerance="10"
     gridtolerance="10"
     guidetolerance="10"
     inkscape:pageopacity="0"
     inkscape:pageshadow="2"
     inkscape:window-width="640"
     inkscape:window-height="480"
     id="namedview4" /><g
     id="g10"
     inkscape:groupmode="layer"
     inkscape:label="DellTech_Logo_Stk_Blue_Gry_rgb"
     transform="matrix(1.3333333,0,0,-1.3333333,0,249.33333)"><g
       id="g12"><g
         id="g14"
         clip-path="url(#clipPath18)"><g
           id="g20"
           transform="translate(21.6001,103.3501)"><path
             d="M 0,0 V 57.3 H 16.95 C 31.282,57.3 42.9,44.473 42.9,28.65 42.9,12.827 31.282,0 16.95,0 Z m 16.95,-18.9 c 22.128,0 40.725,15.115 46.031,35.584 L 116.783,-25.35 170.55,16.658 V -18.9 H 231.9 V 0 h -39.75 v 76.2 h -21.6 V 40.642 L 118.975,0.347 107.441,9.359 132.132,28.65 159.016,49.654 143.667,61.646 92.091,21.351 80.557,30.363 132.132,70.658 116.783,82.65 62.981,40.616 C 57.675,61.084 39.078,76.2 16.95,76.2 H -21.6 V -18.9 Z M 300.6,0 v -18.9 h -61.35 v 95.1 h 21.6 V 0 Z"
             style="fill:#0076ce;fill-opacity:1;fill-rule:nonzero;stroke:none"
             id="path22" /></g><g
           id="g24"
           transform="translate(34.1211,56.5723)"><path
             d="M 0,0 V 1.896 L -0.631,2.527 H -33.487 L -34.121,1.896 V 0 l 0.634,-0.631 h 13.899 l 0.631,-0.631 v -39.807 l 0.634,-0.632 h 2.528 l 0.631,0.632 v 39.807 l 0.631,0.631 H -0.631 Z M 17.025,-24.009 H -1.929 l -0.631,0.632 c 0,4.423 2.527,10.74 10.106,10.74 7.585,0 10.113,-6.317 10.113,-10.74 z m 3.792,-3.161 0.634,0.634 v 1.893 c 0,8.848 -5.057,15.167 -13.905,15.167 -8.841,0 -13.899,-6.319 -13.899,-15.167 v -1.262 c 0,-8.845 4.424,-16.427 14.534,-16.427 8.844,0 12.003,5.686 12.636,9.479 l -0.633,0.631 h -2.525 l -0.634,-0.631 c -1.262,-3.793 -3.79,-6.32 -8.844,-6.32 -8.214,0 -10.741,7.582 -10.741,11.372 l 0.631,0.631 z m 6.952,1.265 c 0,8.847 4.42,13.268 10.74,13.268 6.317,0 8.845,-3.79 9.476,-7.579 l 0.631,-0.634 h 2.53 l 0.631,0.634 c -0.631,6.317 -5.689,10.74 -13.268,10.74 -8.213,0 -14.53,-5.057 -14.53,-16.429 0,-11.372 6.317,-16.427 14.53,-16.427 7.579,0 12.637,4.424 13.268,10.741 l -0.631,0.631 h -2.53 l -0.631,-0.631 c -0.631,-3.789 -3.159,-7.582 -9.476,-7.582 -6.32,0 -10.74,4.423 -10.74,13.268 m 54.335,-15.164 v 18.957 c 0,8.213 -4.424,12.636 -11.373,12.636 -4.423,0 -8.213,-1.899 -10.109,-5.057 H 59.991 V 1.896 L 59.359,2.527 H 56.832 L 56.198,1.896 v -42.965 l 0.634,-0.632 h 2.527 l 0.632,0.632 v 17.06 c 0,6.951 3.161,11.372 10.109,11.372 5.055,0 8.213,-3.158 8.213,-9.475 v -18.957 l 0.632,-0.632 h 2.53 z m 32.224,0 v 18.957 c 0,8.213 -4.421,12.636 -11.371,12.636 -4.424,0 -8.217,-1.899 -10.11,-5.057 h -0.634 l -0.629,3.795 -0.633,0.632 h -1.897 l -0.631,-0.632 v -30.331 l 0.631,-0.632 h 2.53 l 0.629,0.632 v 17.06 c 0,6.951 3.161,11.372 10.109,11.372 5.055,0 8.214,-3.158 8.214,-9.475 v -18.957 l 0.634,-0.632 h 2.527 z m 18.323,-1.263 c 8.213,0 14.533,5.686 14.533,16.427 0,10.741 -6.32,16.429 -14.533,16.429 -8.213,0 -14.533,-5.688 -14.533,-16.429 0,-10.741 6.32,-16.427 14.533,-16.427 m 0,29.695 c 6.317,0 10.741,-5.054 10.741,-13.268 0,-8.213 -4.424,-13.268 -10.741,-13.268 -6.319,0 -10.743,5.055 -10.743,13.268 0,8.214 4.424,13.268 10.743,13.268 m 22.744,-28.432 V 1.896 l -0.631,0.631 h -2.528 l -0.633,-0.631 v -42.965 l 0.633,-0.632 h 2.528 z m 18.957,-1.263 c 8.213,0 14.53,5.686 14.53,16.427 0,10.741 -6.317,16.429 -14.53,16.429 -8.216,0 -14.534,-5.688 -14.534,-16.429 0,-10.741 6.318,-16.427 14.534,-16.427 m 0,29.695 c 6.317,0 10.738,-5.054 10.738,-13.268 0,-8.213 -4.421,-13.268 -10.738,-13.268 -6.32,0 -10.744,5.055 -10.744,13.268 0,8.214 4.424,13.268 10.744,13.268 m 41.066,-24.64 c 0,-8.213 -1.896,-14.533 -9.478,-14.533 -5.686,0 -7.582,2.527 -8.213,5.686 l -0.631,0.634 h -2.528 l -0.631,-0.634 c 0.631,-5.055 4.421,-8.845 12.003,-8.845 8.216,0 13.268,5.055 13.268,17.692 v 26.539 l -0.631,0.632 h -1.896 l -0.631,-0.632 -0.632,-3.795 h -0.633 c -1.263,2.528 -4.421,5.057 -10.11,5.057 -8.844,0 -13.268,-6.951 -13.268,-16.429 0,-9.475 4.424,-16.427 13.268,-16.427 5.689,0 8.847,2.525 10.11,5.055 z m -10.106,-1.896 c -6.32,0 -10.113,4.423 -10.113,13.268 0,8.847 3.793,13.268 10.113,13.268 6.314,0 10.106,-4.421 10.106,-13.268 0,-8.845 -3.792,-13.268 -10.106,-13.268 m 24.006,34.752 v 3.79 L 228.687,0 h -2.528 l -0.631,-0.631 v -3.79 l 0.631,-0.634 h 2.528 z m 0,-36.648 v 30.331 l -0.631,0.632 h -2.528 l -0.631,-0.632 v -30.331 l 0.631,-0.632 h 2.528 z m 27.801,17.06 h -18.954 l -0.634,0.632 c 0,4.423 2.528,10.74 10.11,10.74 7.582,0 10.109,-6.317 10.109,-10.74 z m 3.793,-3.161 0.628,0.634 v 1.893 c 0,8.848 -5.055,15.167 -13.899,15.167 -8.845,0 -13.9,-6.319 -13.9,-15.167 v -1.262 c 0,-8.845 4.424,-16.427 14.533,-16.427 8.845,0 12.004,5.686 12.638,9.479 l -0.634,0.631 h -2.528 l -0.631,-0.631 c -1.265,-3.793 -3.792,-6.32 -8.845,-6.32 -8.215,0 -10.743,7.582 -10.743,11.372 l 0.634,0.631 z m 27.167,-6.317 c 0,5.686 -3.161,8.214 -9.481,9.478 -6.318,1.262 -10.107,1.897 -10.107,6.318 0,3.158 2.528,5.054 6.951,5.054 5.686,0 7.582,-2.527 7.582,-5.686 l 0.631,-0.631 h 2.528 l 0.633,0.631 c 0,6.318 -5.057,8.847 -11.374,8.847 -6.951,0 -10.741,-3.792 -10.741,-8.215 0,-5.056 3.79,-7.582 10.107,-8.845 6.32,-1.265 9.478,-1.896 9.478,-6.951 0,-3.159 -1.893,-5.686 -8.213,-5.686 -5.686,0 -8.214,3.161 -8.214,6.951 l -0.63,0.631 h -2.528 l -0.631,-0.631 c 0,-5.686 4.421,-10.11 12.003,-10.11 8.213,0 12.006,3.79 12.006,8.845"
             style="fill:#808080;fill-opacity:1;fill-rule:nonzero;stroke:none"
             id="path26" /></g></g></g></g></svg>
