<?xml version="1.0" encoding="UTF-8" standalone="no"?>
<svg
   xmlns:dc="http://purl.org/dc/elements/1.1/"
   xmlns:cc="http://creativecommons.org/ns#"
   xmlns:rdf="http://www.w3.org/1999/02/22-rdf-syntax-ns#"
   xmlns:svg="http://www.w3.org/2000/svg"
   xmlns="http://www.w3.org/2000/svg"
   viewBox="0 0 1356 176"
   height="176"
   width="1356"
   xml:space="preserve"
   id="svg2"
   version="1.1"><metadata
     id="metadata8"><rdf:RDF><cc:Work
         rdf:about=""><dc:format>image/svg+xml</dc:format><dc:type
           rdf:resource="http://purl.org/dc/dcmitype/StillImage" /></cc:Work></rdf:RDF></metadata><defs
     id="defs6"><clipPath
       id="clipPath18"
       clipPathUnits="userSpaceOnUse"><path
         id="path16"
         d="M 0,132 H 1017 V 0 H 0 Z" /></clipPath></defs><g
     transform="matrix(1.3333333,0,0,-1.3333333,0,176)"
     id="g10"><g
       id="g12"><g
         clip-path="url(#clipPath18)"
         id="g14"><g
           transform="translate(395.5684,119.1157)"
           id="g20"><path
             id="path22"
             style="fill:#808080;fill-opacity:1;fill-rule:nonzero;stroke:none"
             d="M 0,0 V 4.077 L -1.357,5.434 H -72.005 L -73.368,4.077 V 0 l 1.363,-1.357 h 29.887 l 1.356,-1.357 v -85.594 l 1.364,-1.358 h 5.434 l 1.358,1.358 v 85.594 l 1.356,1.357 H -1.357 Z M 36.607,-51.625 H -4.148 l -1.357,1.358 c 0,9.512 5.434,23.095 21.732,23.095 16.308,0 21.743,-13.583 21.743,-23.095 z m 8.155,-6.797 1.363,1.363 v 4.072 c 0,19.023 -10.875,32.612 -29.898,32.612 -19.012,0 -29.887,-13.589 -29.887,-32.612 v -2.715 c 0,-19.017 9.512,-35.32 31.25,-35.32 19.017,0 25.808,12.226 27.172,20.38 l -1.364,1.357 H 37.97 l -1.363,-1.357 c -2.714,-8.154 -8.149,-13.589 -19.017,-13.589 -17.661,0 -23.095,16.303 -23.095,24.452 l 1.357,1.357 z m 14.946,2.72 c 0,19.024 9.506,28.53 23.095,28.53 13.583,0 19.017,-8.149 20.375,-16.298 l 1.356,-1.363 h 5.441 l 1.357,1.363 c -1.357,13.583 -12.231,23.095 -28.529,23.095 -17.66,0 -31.243,-10.875 -31.243,-35.327 0,-24.452 13.583,-35.32 31.243,-35.32 16.298,0 27.172,9.511 28.529,23.094 l -1.357,1.357 h -5.441 l -1.356,-1.357 c -1.358,-8.148 -6.792,-16.303 -20.375,-16.303 -13.589,0 -23.095,9.512 -23.095,28.529 m 116.831,-32.606 v 40.761 c 0,17.66 -9.512,27.172 -24.451,27.172 -9.513,0 -17.661,-4.083 -21.738,-10.875 h -1.358 V 4.077 l -1.356,1.357 h -5.435 l -1.363,-1.357 v -92.385 l 1.363,-1.358 h 5.435 l 1.356,1.358 v 36.683 c 0,14.947 6.798,24.453 21.738,24.453 10.87,0 17.661,-6.792 17.661,-20.375 v -40.761 l 1.357,-1.358 h 5.44 z m 69.291,0 v 40.761 c 0,17.66 -9.506,27.172 -24.452,27.172 -9.512,0 -17.666,-4.083 -21.738,-10.875 h -1.363 l -1.351,8.161 -1.364,1.357 h -4.077 l -1.357,-1.357 v -65.219 l 1.357,-1.358 h 5.441 l 1.351,1.358 v 36.683 c 0,14.947 6.797,24.453 21.738,24.453 10.869,0 17.661,-6.792 17.661,-20.375 v -40.761 l 1.362,-1.358 h 5.435 z m 39.399,-2.714 c 17.66,0 31.249,12.226 31.249,35.32 0,23.095 -13.589,35.327 -31.249,35.327 -17.662,0 -31.25,-12.232 -31.25,-35.327 0,-23.094 13.588,-35.32 31.25,-35.32 m 0,63.85 c 13.583,0 23.094,-10.869 23.094,-28.53 0,-17.66 -9.511,-28.529 -23.094,-28.529 -13.59,0 -23.102,10.869 -23.102,28.529 0,17.661 9.512,28.53 23.102,28.53 m 48.903,-61.136 V 4.077 l -1.357,1.357 h -5.434 l -1.363,-1.357 v -92.385 l 1.363,-1.358 h 5.434 z m 40.762,-2.714 c 17.66,0 31.243,12.226 31.243,35.32 0,23.095 -13.583,35.327 -31.243,35.327 -17.667,0 -31.25,-12.232 -31.25,-35.327 0,-23.094 13.583,-35.32 31.25,-35.32 m 0,63.85 c 13.583,0 23.088,-10.869 23.088,-28.53 0,-17.66 -9.505,-28.529 -23.088,-28.529 -13.589,0 -23.101,10.869 -23.101,28.529 0,17.661 9.512,28.53 23.101,28.53 m 88.301,-52.982 c 0,-17.66 -4.077,-31.249 -20.38,-31.249 -12.226,0 -16.303,5.434 -17.661,12.226 l -1.356,1.363 h -5.435 l -1.357,-1.363 c 1.357,-10.869 9.506,-19.018 25.809,-19.018 17.666,0 28.53,10.869 28.53,38.041 v 57.065 l -1.358,1.357 h -4.077 l -1.357,-1.357 -1.358,-8.161 h -1.362 c -2.715,5.435 -9.506,10.875 -21.738,10.875 -19.018,0 -28.53,-14.946 -28.53,-35.327 0,-20.374 9.512,-35.32 28.53,-35.32 12.232,0 19.023,5.428 21.738,10.868 z m -21.731,-4.077 c -13.589,0 -21.744,9.512 -21.744,28.529 0,19.024 8.155,28.53 21.744,28.53 13.577,0 21.731,-9.506 21.731,-28.53 0,-19.017 -8.154,-28.529 -21.731,-28.529 m 51.618,74.725 v 8.149 L 491.725,0 h -5.435 l -1.356,-1.357 v -8.149 l 1.356,-1.363 h 5.435 z m 0,-78.802 v 65.219 l -1.357,1.357 h -5.435 l -1.356,-1.357 v -65.219 l 1.356,-1.358 h 5.435 z m 59.779,36.683 h -40.756 l -1.363,1.358 c 0,9.512 5.435,23.095 21.738,23.095 16.303,0 21.738,-13.583 21.738,-23.095 z m 8.155,-6.797 1.351,1.363 v 4.072 c 0,19.023 -10.869,32.612 -29.887,32.612 -19.017,0 -29.886,-13.589 -29.886,-32.612 v -2.715 c 0,-19.017 9.511,-35.32 31.25,-35.32 19.017,0 25.808,12.226 27.172,20.38 l -1.364,1.357 h -5.434 l -1.357,-1.357 c -2.72,-8.154 -8.155,-13.589 -19.017,-13.589 -17.667,0 -23.102,16.303 -23.102,24.452 l 1.363,1.357 z m 58.416,-13.583 c 0,12.226 -6.798,17.661 -20.387,20.38 -13.583,2.715 -21.733,4.078 -21.733,13.584 0,6.791 5.435,10.869 14.947,10.869 12.226,0 16.303,-5.435 16.303,-12.226 l 1.358,-1.357 h 5.434 l 1.363,1.357 c 0,13.583 -10.875,19.023 -24.458,19.023 -14.947,0 -23.095,-8.154 -23.095,-17.666 0,-10.869 8.148,-16.303 21.732,-19.018 13.589,-2.72 20.38,-4.077 20.38,-14.946 0,-6.791 -4.071,-12.226 -17.66,-12.226 -12.225,0 -17.66,6.797 -17.66,14.946 l -1.357,1.357 h -5.435 l -1.357,-1.357 c 0,-12.226 9.505,-21.737 25.809,-21.737 17.66,0 25.816,8.148 25.816,19.017" /></g><g
           transform="translate(21.6001,48.3501)"
           id="g24"><path
             id="path26"
             style="fill:#0076ce;fill-opacity:1;fill-rule:nonzero;stroke:none"
             d="M 0,0 V 57.3 H 16.95 C 31.282,57.3 42.9,44.473 42.9,28.65 42.9,12.827 31.282,0 16.95,0 Z m 16.95,-18.9 c 22.128,0 40.725,15.115 46.031,35.584 L 116.783,-25.35 170.55,16.658 V -18.9 H 231.9 V 0 h -39.75 v 76.2 h -21.6 V 40.642 L 118.976,0.347 107.441,9.359 132.132,28.65 159.016,49.654 143.667,61.646 92.092,21.351 80.557,30.363 132.132,70.658 116.783,82.65 62.981,40.616 C 57.675,61.084 39.078,76.2 16.95,76.2 H -21.6 V -18.9 Z M 300.6,0 v -18.9 h -61.35 v 95.1 h 21.6 V 0 Z" /></g></g></g></g></svg>