<svg id="Layer_1" data-name="Layer 1" xmlns="http://www.w3.org/2000/svg" viewBox="0 0 629.99873 110"><defs><style>.cls-1{fill:gray;}.cls-2{fill:#0085c3;}</style></defs><title>dell-emc</title><path class="cls-1" d="M585.89411,103.9067c19.02341,0,33.96359-9.5117,36.678-29.8865l-1.3513-1.363h-5.4344l-1.3631,1.363c-2.7142,14.9346-12.226,23.0949-28.52919,23.0949-20.3747,0-35.3209-14.9462-35.3209-42.1184s14.9462-42.1124,35.3209-42.1124c16.30319,0,25.815,8.1489,28.52919,21.7319l1.3631,1.363h5.4344l1.3513-1.363c-2.7144-19.0176-17.65458-28.52329-36.678-28.52329-23.0949,0-43.4755,16.30329-43.4755,48.90379,0,32.6067,20.3806,48.91,43.4755,48.91m-59.7787-2.7203V8.807L524.76411,7.45h-9.5117L513.89521,8.807,478.56852,91.6748h-1.35711L441.89052,8.807,440.52752,7.45h-9.50581l-1.363,1.35706V101.1864l1.363,1.3632h5.4344l1.3571-1.3632V22.3962h1.3631l33.9578,78.7902,1.363,1.3632h6.7916l1.3571-1.3632,33.96371-78.7902h1.35709v78.7902l1.3631,1.3632h5.4344Zm-114.1113,0V97.1151l-1.363-1.363H360.38l-1.3631-1.3571V59.074l1.3631-1.357h47.5468l1.3571-1.363V52.2826l-1.3571-1.3631H360.38l-1.3631-1.3571V15.5986l1.3631-1.357h50.2611l1.363-1.3573V8.807L410.64111,7.45h-58.4098L350.86821,8.807V101.1864l1.3631,1.3632h58.4098Z"/><path class="cls-2" d="M329.26852,83.65v18.9h-61.35V7.45h21.6v76.2Zm-61.35-76.2h21.6m-243.9,95.1a47.56969,47.56969,0,0,0,46.0312-35.5842L145.451,109l53.7675-42.0078V102.55h61.35V83.65h-39.75V7.45h-21.6V43.0078l-51.5747,40.2946-11.5344-9.0117L160.80042,55l26.8837-21.0039-15.3493-11.9922L120.76,62.2985l-11.5344-9.0117,51.5748-40.2946L145.451,1,91.64982,43.0341A47.56985,47.56985,0,0,0,45.61852,7.45h-38.55v95.1Zm-16.95-18.9V26.35h16.95c14.3318,0,25.95,12.827,25.95,28.65s-11.6182,28.65-25.95,28.65Z"/></svg>