<svg id="Layer_1" data-name="Layer 1" xmlns="http://www.w3.org/2000/svg" viewBox="0 0 612 195.9839"><defs><style>.cls-1{fill:#1b9bd7;}.cls-2{fill:none;}.cls-3{fill:#757c84;}</style></defs><title>dianomic</title><path class="cls-1" d="M524.64125,31.83365c-2.83289-.00316-4.953-.834-5.01048-3.60916-.07886-3.808,2.60735-5.49772,5.93839-5.6999,2.33189-.14153,4.522,1.08728,4.42844,3.88916C529.88156,29.89019,527.52668,31.40422,524.64125,31.83365Z"/><path class="cls-1" d="M526.91208,15.63192c-1.60883-.20742-2.49251-1.082-2.28288-2.72784a3.2015,3.2015,0,0,1,3.4517-3.00776c1.54486-.03151,2.8843.74231,2.6647,2.31948A3.87123,3.87123,0,0,1,526.91208,15.63192Z"/><path class="cls-2" d="M134.3264,185.77048h8.02089C139.9966,185.73694,137.1913,185.74663,134.3264,185.77048Z"/><path class="cls-2" d="M175.40837,152.416c-1.11175-7.94921-2.15453-15.908-3.22254-23.8633.9872,7.35362,1.95358,16.29577,2.97213,23.88765Z"/><path class="cls-2" d="M179.06545,181.07207c-.98047-5.34271-2.4269-11.35042-2.4269-11.35042a98.8989,98.8989,0,0,1-10.0936-.3256,86.00129,86.00129,0,0,0-12.75272.1628l-8.86632,16.21163h51.18577c-4.54322-.26248-9.09356-.6-13.63716-.55241C179.274,185.25161,179.40648,182.93032,179.06545,181.07207Z"/><path class="cls-2" d="M255.26353,172.78215c-4.77909-12.51572-9.58361-25.02169-15.44808-37.58228-1.33353,7.24048-2.71229,14.473-3.98867,21.7235-1.45845,8.28445-2.87762,16.5767-4.20151,24.88349-.40364,2.5325-1.63125,3.42883-4.16356,3.41027a94.00649,94.00649,0,0,0-11.36312.52975c-.0927.01064-.17659.01523-.266.0236H266.0874C260.02752,185.20951,259.04648,182.6891,255.26353,172.78215Z"/><path class="cls-2" d="M16.95076,185.77048h7.53915C21.97478,185.7365,19.46,185.708,16.95076,185.77048Z"/><path class="cls-3" d="M384.388,185.60441c3.9635-.19553,7.941-.52655,11.8944-.36268,2.75924.11435,3.76036-1.24856,4.11875-3.48861,1.13881-7.11833,2.25793-14.24112,3.25973-21.37971,1.471-10.48152,2.834-20.9782,4.24292-31.46834l.66682-.016a43.46009,43.46009,0,0,1,1.18413,4.42819c2.4576,15.25539,4.8575,30.52,7.29874,45.778.37533,2.34553-.50326,6.15138,3.16937,5.828,4.25588-.37482,9.51828,3.03085,12.62786-3.42065,7.09775-14.72588,14.65515-29.23081,22.09191-43.79168.89979-1.76183,1.35907-3.90692,3.36313-5.01955.61062,1.48254.04487,2.77277-.23638,4.10969-3.1457,14.95312-6.8552,29.78454-9.30217,44.893-.50553,3.12135.51811,3.76847,2.87094,3.86048,4.48035.17508,8.9682.16369,13.45308.21542,1.89368.0219,2.53017-.93234,2.85591-2.82444q6.55685-38.09079,13.31658-76.1466c.45-2.55584-.215-3.83329-3.13173-3.76489-5.69279.13348-11.40233.20006-17.08468-.095-3.88924-.202-5.82313,1.47367-7.42858,4.84718-7.54311,15.85054-15.29132,31.60384-23.05142,47.3499-.595,1.20728-.5818,3.20637-2.7498,3.2367-2.51682-17.22338-5.10646-34.38195-7.45733-51.57324-.40333-2.94986-1.704-3.81189-4.34-3.78169-5.86825.06728-11.73877.14368-17.60563.04991-2.82091-.04506-3.72663,1.12238-4.205,3.88678-4.30251,24.86549-8.78482,49.7-13.24491,74.53807C380.45541,184.32954,381.3496,185.75431,384.388,185.60441Z"/><path class="cls-3" d="M216.09859,185.74688a94.00649,94.00649,0,0,1,11.36312-.52975c2.53231.01856,3.75992-.87777,4.16356-3.41027,1.32389-8.30679,2.74306-16.599,4.20151-24.88349,1.27638-7.25048,2.65514-14.483,3.98867-21.7235,5.86447,12.56059,10.669,25.06656,15.44808,37.58228,3.78295,9.90695,4.764,12.42736,10.82387,12.98833h9.93187c2.17315-.30043,3.04557-1.37556,3.51643-4.16123,3.86318-22.85457,8.06652-45.65137,12.07268-68.48209,1.78071-10.14823,1.68814-10.165-8.52887-10.06717-1.8984.01818-3.81058.19609-5.69173.02655-2.60732-.23505-3.76036.93775-4.15355,3.38529-1.03554,6.446-2.13773,12.88141-3.25074,19.3146q-2.36192,13.65233-4.77651,27.29559l-1.2164.16973q-7.1727-18.76735-14.34326-37.53552c-5.264-13.80707-5.252-13.74395-20.03448-12.70514-2.73778.19238-3.79824,1.0772-4.27224,3.87533-2.17907,12.86241-4.69256,25.66768-6.98875,38.51083-2.1466,12.00642-4.12951,24.042-6.27523,36.04863-.48337,2.70487.076,4.0669,2.0831,4.3246h1.67292C215.922,185.76211,216.00589,185.75752,216.09859,185.74688Z"/><path class="cls-3" d="M24.48991,185.77048h3.94562c7.4165-1.19966,14.96918.39169,22.28359-2.53916,22.99768-9.215,31.16483-30.51153,29.46064-50.5854-1.31433-15.4815-11.36357-26.9771-25.65547-28.973-9.15259-1.27814-18.58573-.54713-27.89307-.7183-2.57038-.04733-2.96024,1.719-3.3143,3.73531-1.57335,8.96071-3.26942,17.89977-4.85637,26.85809-2.8133,15.88105-5.52263,31.78073-8.40786,47.64851-.51459,2.83016.05249,4.18489,1.98613,4.57393h4.91194C19.46,185.708,21.97478,185.7365,24.48991,185.77048Zm7.50378-18.7148q4.11866-23.06,8.05808-46.15187a3.01581,3.01581,0,0,1,2.97994-2.86357c10.65892-1.53875,17.39928,4.0482,17.78914,14.90995.0433,1.20495.00585,2.41286.00585,3.61939-.33309,7.79622-1.397,15.42492-5.11986,22.45181-4.338,8.18816-11.37056,11.52794-20.37236,11.55469C32.74094,170.58376,31.46833,169.99679,31.99369,167.05568Z"/><path class="cls-3" d="M142.34729,185.77048h2.57862l8.86632-16.21163a86.00129,86.00129,0,0,1,12.75272-.1628,98.8989,98.8989,0,0,0,10.0936.3256s1.44643,6.00771,2.4269,11.35042c.341,1.85825.20856,4.17954,3.40907,4.146,4.5436-.04764,9.09394.28993,13.63716.55241h1.4261c1.61621-.1555,2.02042-1.05051,1.59884-3.29868-4.2107-22.455-8.13367-44.96423-12.385-67.41125-2.34326-12.3723-2.55245-12.19389-15.12034-12.18118-3.92586.004-6.29543,1.14945-8.081,4.81264-3.77187,7.7382-8.03568,15.23619-12.081,22.8416-9.51891,17.89563-20.0548,36.82333-29.84344,55.23687H134.3264C137.1913,185.74663,139.9966,185.73694,142.34729,185.77048Zm21.51841-42.69132c2.1549-5.03258,4.72981-9.8853,7.12455-14.81518q.59783.14444,1.19558.28874c1.068,7.95531,2.11079,15.91409,3.22254,23.8633l-.25041.02435c.08332.6212.16633,1.25152.25041,1.85277l-16.63938-.35908S162.27453,146.795,163.8657,143.07916Z"/><path class="cls-3" d="M506.40951,182.43693c3.96935-23.48357,8.23605-46.9168,12.23215-70.396,1.55152-9.11634,1.33831-9.15259-8.13586-9.09727-9.37.05481-9.35782.057-10.63054,7.22367q-5.57389,31.38678-11.16169,62.77123c-1.98027,11.16867-2.224,12.63655,6.25472,12.832h9.16328C505.4836,185.48138,506.07163,184.43583,506.40951,182.43693Z"/><path class="cls-3" d="M109.42284,182.65115c4.024-23.48382,8.24259-46.93417,12.297-70.4129,1.61142-9.33188,1.4877-9.35321-7.86527-9.15139-1.89537,0-3.80346.13964-5.68335-.03122-3.19636-.29049-4.4616.98318-5.01056,4.22719-3.60353,21.29745-7.41007,42.56067-11.19283,63.82754-1.71168,9.62294-2.18323,13.4388,1.56958,14.66011H106.388C108.17062,185.52543,109.051,184.82116,109.42284,182.65115Z"/><path class="cls-1" d="M512.66894,87.9085c8.43813.01051,15.50473-6.312,15.58616-13.945.06683-6.25912-4.19993-10.29839-10.922-10.33961-8.43756-.05179-16.10849,6.6143-16.23712,14.11C500.98808,84.01561,505.40581,87.89944,512.66894,87.9085Z"/><path class="cls-1" d="M519.74026,53.54178c4.8307.04663,10.02583-4.38231,9.84459-8.71119-.17181-4.10088-2.69952-6.17422-6.72306-6.29511-4.89526-.14714-9.97328,4.14933-10.184,8.48224C512.49771,50.7215,515.50647,53.50087,519.74026,53.54178Z"/><path class="cls-1" d="M539.56851,62.48732c4.75631.05985,10.00494-4.41585,10.12275-8.63189.10541-3.77162-2.8476-6.509-7.0671-6.55106-4.78866-.04776-9.40552,3.90195-9.65894,8.26318C532.73319,59.56176,535.47581,62.43591,539.56851,62.48732Z"/><path class="cls-1" d="M481.7269,83.03639c4.32542.29377,10.109-4.48186,10.1145-8.56.00554-4.106-2.30412-6.32665-6.33445-6.64-4.96191-.38577-10.07428,3.63864-10.36327,8.03272A6.90657,6.90657,0,0,0,481.7269,83.03639Z"/><path class="cls-1" d="M537.57622,77.14366c.26419,4.14179,3.34947,5.64315,7.00971,6.24861,4.45285.14632,10.107-4.5565,10.03891-8.73535-.068-4.16456-3.042-6.01985-6.72751-6.47195C543.39727,67.633,537.30568,72.90352,537.57622,77.14366Z"/><path class="cls-1" d="M494.95494,62.26423c4.65644.11,9.20395-3.617,9.41036-8.01176.2034-4.33178-2.21695-6.5909-7.21266-6.73212-4.63082-.131-9.59739,4.19773-9.40859,8.50188C487.92812,60.21807,490.70183,61.94787,494.95494,62.26423Z"/><path class="cls-1" d="M482.17353,47.79385c3.53418-.04927,5.68839-2.031,6.23879-5.92092-.12372-2.24924-1.75844-3.4822-4.00982-3.40825-3.33965.10975-6.1252,1.52219-6.4661,5.28078C477.682,46.55007,479.70982,47.82815,482.17353,47.79385Z"/><path class="cls-1" d="M463.95765,80.07087c2.70486-.34367,5.03478-1.858,5.17342-5.37323.11057-2.8048-1.84925-3.98767-4.36532-3.92631-3.39182.08276-5.46353,1.95321-5.71325,5.39551C458.83514,79.164,460.98834,79.81215,463.95765,80.07087Z"/><path class="cls-1" d="M561.27143,48.23645c3.44369-.07526,5.41659-2.28391,5.63742-5.50752.17942-2.619-1.57272-4.01177-5.2546-3.79025-1.97039.68721-4.75959,1.72363-4.77828,5.35422C556.86194,47.01734,558.77676,48.291,561.27143,48.23645Z"/><path class="cls-1" d="M563.62986,76.27861a3.60424,3.60424,0,0,0,4.05645,4.15556c3.48012-.15273,5.77731-2.03017,6.03464-5.62728.2078-2.90575-1.79789-3.73456-5.73855-3.79094C565.86846,71.013,563.956,73.12969,563.62986,76.27861Z"/><path class="cls-1" d="M474.42507,36.89365a3.59539,3.59539,0,0,0,3.20064-3.17062c.23706-2.00355-1.31962-2.7688-2.881-2.78982A3.17838,3.17838,0,0,0,471.31624,34.02C471.25218,35.63873,472.20893,36.9175,474.42507,36.89365Z"/><path class="cls-1" d="M575.5,38.91779a3.609,3.609,0,0,0,3.29535-3.39215c-.47142-1.868-1.93634-2.24861-3.53594-2.06762a2.83527,2.83527,0,0,0-2.8262,3.03211C572.46874,38.4721,573.698,39.22332,575.5,38.91779Z"/><path class="cls-1" d="M582.64189,78.40223a3.43279,3.43279,0,0,0,3.31461-2.82556c.23807-2.32073-1.11515-2.99291-2.48385-2.94269-1.74535.06407-3.41511.83693-3.61115,2.94652C579.68272,77.50483,580.82889,78.49525,582.64189,78.40223Z"/><path class="cls-1" d="M449.56864,78.62715c1.73842-.19465,2.9245-1.087,2.90159-2.9722-.01945-1.60652-.86028-2.55257-3.091-2.54791a3.20291,3.20291,0,0,0-2.6729,3.32663C446.73338,78.07543,447.9579,78.80751,449.56864,78.62715Z"/><path class="cls-3" d="M339.90848,185.77048a32.73109,32.73109,0,0,0,11.69428-5.14082c15.24418-10.59272,20.2059-26.19958,20.95076-43.77462,0-1.55184.05544-3.10593-.00862-4.65506-.67331-16.29-11.06043-28.36021-25.845-30.02305-13.40482-1.50772-24.60609,3.09781-32.92194,13.4181-12.006,14.89982-15.14381,32.11527-10.39033,50.49817,2.70694,10.46812,9.87165,17.45951,20.52868,19.61781.109.02209.21775.0382.32668.05947A38.28881,38.28881,0,0,0,339.90848,185.77048Zm-18.9338-26.62915c-.79495-10.75382.37-21.36686,5.06631-31.23725,2.68794-5.64938,6.67711-10.01872,13.59739-10.4549,7.37672-.465,11.81026,2.8082,13.06272,10.152a82.14932,82.14932,0,0,1,.589,8.74989,69.00723,69.00723,0,0,1-4.23914,21.68045,22.5952,22.5952,0,0,1-5.45013,8.678c-4.29508,4.043-9.30683,5.89217-15.1484,3.84614C323.12184,168.68851,321.33591,164.02735,320.97468,159.14133Z"/><path class="cls-3" d="M565.13374,186.09823c.77355-.07646,1.54044-.19295,2.303-.32775,12.86386-2.27422,23.96721-12.651,26.431-24.82993.57482-2.84168.01334-3.875-2.90587-3.5849a57.37868,57.37868,0,0,1-8.76216.53341c-4.318-.23832-7.00077.6261-8.787,5.38544-2.41657,6.43853-9.663,9.2979-16.3295,7.77407-5.80815-1.32767-8.216-5.45882-8.45386-13.57681a81.04221,81.04221,0,0,1,1.31785-15.41385c1.07336-6.59354,2.28146-13.26882,6.39763-18.87364,4.24562-5.78122,10.19669-6.69064,16.66179-5.38362a9.115,9.115,0,0,1,7.64978,9.18551c.11038,3.914,1.76567,4.69633,5.02157,4.47639,1.71425-.11586,3.4428-.02052,5.1648-.02052,10.34841.78615,10.74325.269,7.588-9.90928a29.44217,29.44217,0,0,0-1.46152-3.84619c-7.5608-16.0185-30.78082-20.87927-46.9282-10.16478-19.54619,12.96983-25.10676,46.37565-17.00985,63.72811,3.80126,8.14644,10.00928,12.90747,18.87748,14.52059A47.83055,47.83055,0,0,0,565.13374,186.09823Z"/></svg>