<svg id="Layer_1" data-name="Layer 1" xmlns="http://www.w3.org/2000/svg" viewBox="0 0 282.38774 234.77534"><defs><style>.cls-1{fill:#0d71a8;}.cls-2{fill:#0b70a6;}.cls-3{fill:#099bea;}.cls-4{fill:#0993de;}.cls-5{fill:#fdfefe;}.cls-6{fill:#0a99e6;}</style></defs><title>docker</title><path class="cls-1" d="M324.33261,50.015c7.10735,0,14.2259-.23866,21.31757.09474,3.88719.18275,4.77623-1.18653,4.56957-4.7751-.29413-5.107.09963-10.2516-.13854-15.36439-.14631-3.14119,1.0215-3.90965,3.98112-3.835,7.4332.18742,14.87954.2251,22.30975-.01431,3.19637-.103,3.83076,1.04824,3.80007,3.97272-.13876,13.22151.0383,26.44657-.13182,39.66735-.04105,3.19131.769,4.313,4.082,4.14618,5.44066-.274,10.93811.29628,16.34986-.18446,4.82777-.42886,5.82022,1.48513,5.52181,5.78758-.34227,4.93485.06536,9.9176-.13644,14.868-.10927,2.68048.81366,3.60182,3.359,3.10021,1.29341-.2549,2.60029-.44878,3.88388-.74482,6.83144-1.57552,6.68859-1.53951,4.71632-7.82976-3.61844-11.54041-1.28284-22.11312,5.48368-31.94137,1.33935-1.94536,2.2908-1.50477,3.94426-.42721,7.31152,4.765,12.91005,10.8931,15.16,19.45493.69468,2.64343,1.8335,2.86265,4.10676,2.767,7.78037-.32734,15.52009-.45046,22.41,4.31246,2.18655,1.51156,2.61353,2.66848,1.49178,5.14349-5.365,11.83777-14.73507,17.48381-27.39908,17.68307-3.45739.05439-4.82452,1.3562-6.15436,4.2228-17.8103,38.3921-48.723,58.10765-90.04691,62.88819-14.06216,1.62678-28.10222,1.73039-41.77594-2.29128-25.49053-7.49719-39.20384-25.43489-44.00376-50.92981a80.90181,80.90181,0,0,1-.95815-17.77629c.111-3.30134,1.35111-4.90242,4.8073-4.38087.96964.14633,1.99868-.10163,2.96851.04407,3.80559.57172,5.274-.771,4.97287-4.806-.368-4.93114.08675-9.919-.15011-14.86629-.15153-3.16512.696-4.40142,4.08332-4.24221,5.77229.27131,11.574-.1015,17.34878.14207,3.33614.14071,4.74664-.68084,4.50968-4.31261-.31143-4.773.29653-9.61924-.1817-14.36436-.47361-4.69946,1.43581-5.49664,5.57285-5.29691C310.76757,50.2532,317.55584,50.015,324.33261,50.015Zm20.3769,118.68823c4.21673-.56305,8.47851-.899,12.64312-1.72485,35.45139-7.03045,61.16386-26.54921,75.93059-59.80353,1.82445-4.10862,3.91213-6.14465,8.7739-5.7897,8.35375.60991,15.608-2.27663,20.89155-9.05473,4.00876-5.14264,2.74242-7.377-3.72773-8.79628-7.0064-1.53693-13.69522-.22416-20.47857.92953.93348-8.99476-3.575-15.418-9.82091-21.10383-2.12516-1.93457-3.59447-2.06455-4.86348.75137-4.21326,9.34912-5.50781,18.85531.17393,27.92368,2.2001,3.5115.70829,4.68957-1.78235,6.02391-6.26686,3.35745-13.15416,4.28112-20.09137,4.29735q-66.71029.15611-133.42109.0876c-3.87531-.62411-5.29353.91958-4.97589,4.88827.96376,12.04169,3.2391,23.57643,9.40911,34.2812,2.80056,4.85886,6.16116,6.92873,11.47634,6.40688,9.10759.93239,17.618-1.37417,25.83253-4.96886,2.70337-1.183,4.43034-1.14039,4.98466,2.15373-10.14114,6.08624-21.32013,7.80407-33.41482,7.37243a35.05951,35.05951,0,0,0,8.87154,7.25834C307.80947,169.83242,325.99751,170.87483,344.70951,168.70322Zm20.50278-137.771q-1.98186,0-3.9637.00006c-6.95146.00224-6.95148.00231-6.95413,6.874-.00468,12.11458-.00466,12.11457,12.59951,12.11455,9.19746,0,9.19746,0,9.1975-9.08753C376.09149,30.93219,376.09149,30.93219,365.21229,30.93219ZM390.743,97.557c1.32122,0,2.64253.00949,3.96366-.00154,7.95644-.06646,7.158.85846,7.18-7.1319.03268-11.85589.01045-11.856-11.88995-11.85513-9.89914.00068-9.89912.00069-9.89924,8.388C380.09729,97.557,380.09728,97.557,390.743,97.557Zm-25.64229,0q1.98184,0,3.96367-.00005c7.02423-.00176,7.02423-.00181,7.02712-6.79857.00518-12.19.00518-12.18995-12.55384-12.18993-9.24311,0-9.24311,0-9.24315,9.04406C354.29442,97.557,354.29442,97.557,365.10067,97.557ZM339.33158,78.56846q-1.98184,0-3.96369.00007c-6.874.00254-6.874.00262-6.87637,6.95164-.00409,12.03686-.0041,12.03686,12.182,12.03686,9.61493,0,9.61493,0,9.615-8.66989C350.28859,78.56846,350.28859,78.56846,339.33158,78.56846ZM313.46889,97.557a29.48227,29.48227,0,0,1,4.94719.04291c5.26659.909,6.29837-1.49259,6.17972-6.3229-.312-12.70351-.09622-12.75956-13.62906-12.69119-9.44766.04772-8.206-1.26-8.26256,8.01C302.63725,97.55668,302.68817,97.557,313.46889,97.557Zm25.8995-42.80669q-1.98184,0-3.96369.00006c-6.91068.00239-6.91068.00247-6.9132,6.91488-.00438,12.07365-.00436,12.07365,12.14512,12.07365,9.65187,0,9.65187,0,9.65188-9.12852C350.28852,54.75031,350.28852,54.75031,339.36838,54.75031Zm25.95015,0a29.66994,29.66994,0,0,1-4.94739-.04267c-5.25149-.90037-6.30788,1.47457-6.18793,6.318.31467,12.70809.09664,12.77021,13.59476,12.69406,9.61372-.05424,8.22455,1.33959,8.2962-8.46644C376.15094,54.75074,376.09161,54.7503,365.31853,54.75032ZM287.641,78.56846c-10.75579,0-10.75582,0-10.75534,11,.00005,1.32122.10758,2.65291-.02055,3.96155-.28495,2.91011.72415,4.22193,3.86685,4.07935,4.61478-.20938,9.25545-.23337,13.86731.00611,3.38792.17594,4.44542-1.24486,4.10278-4.35621a31.82209,31.82209,0,0,1-.01953-3.466C298.68321,78.56846,298.6832,78.56846,287.641,78.56846Zm25.83212-4.82957a29.41188,29.41188,0,0,1,4.94722.043c5.2754.91281,6.29248-1.5058,6.17482-6.3274-.3099-12.699-.09543-12.70419-12.64141-12.70418-9.26516,0-9.26516,0-9.26518,9.02223C302.68852,73.73887,302.68852,73.73887,313.47311,73.73889Z" transform="translate(-211.04347 -26.11459)"/><path class="cls-2" d="M249.91713,217.37749c0-6.6055.07918-12.52028-.03006-18.43156-.06433-3.48127.43588-6.67481,4.7091-6.57535,4.28955.09985,4.48285,3.43713,4.46347,6.82362-.07188,12.5632.00771,25.12718-.0398,37.6906a23.74288,23.74288,0,0,1-17.033,22.9837,24.33328,24.33328,0,0,1-27.5556-10.58509c-5.38355-8.648-4.24652-20.83267,2.6685-28.59628a24.40371,24.40371,0,0,1,28.12017-5.8165C246.55667,215.48618,247.82341,216.25383,249.91713,217.37749Zm-29.58988,19.14332a14.57092,14.57092,0,0,0,14.46167,14.96034,14.96416,14.96416,0,0,0,15.124-14.47251c.19057-7.89184-6.58562-14.90928-14.6125-15.13275C227.41668,221.65642,220.41651,228.50314,220.32725,236.52081Z" transform="translate(-211.04347 -26.11459)"/><path class="cls-2" d="M415.8276,241.42085c3.82593,9.43138,13.26669,12.77576,21.28182,8.06966.56726-.33307,1.0864-.74707,1.638-1.108,2.496-1.63307,5.08156-2.04763,6.97033.637,2.019,2.86975.69861,5.231-1.83408,7.19907-13.06345,10.15112-33.46532,2.8901-37.61717-13.41159-3.266-12.8237,4.48452-26.0946,17.09681-29.27394a24.0641,24.0641,0,0,1,29.70029,17.71711c1.90256,8.04634.21791,10.16782-8.08511,10.17006C435.40607,241.42282,425.83363,241.42085,415.8276,241.42085Zm27.39517-9.117a13.85871,13.85871,0,0,0-12.64318-10.346c-5.273-.46973-11.83729,3.17432-14.03573,7.66-.88168,1.79895-.84726,2.71692,1.4987,2.704C426.39872,232.27575,434.7553,232.30381,443.22277,232.30381Z" transform="translate(-211.04347 -26.11459)"/><path class="cls-2" d="M369.35306,229.87117c8.00052-5.17921,15.05758-9.74842,22.11566-14.31606a33.50547,33.50547,0,0,1,2.922-1.85252c2.68811-1.36712,5.16262-1.30587,6.80471,1.60034,1.53748,2.7211.35164,4.73941-1.99827,6.27859-4.55385,2.98273-9.05707,6.05216-13.71941,8.856-2.43667,1.46537-2.80586,2.5161-.71368,4.74444,5.08393,5.41483,9.88454,11.09473,14.84494,16.62694,2.2323,2.48961,3.49286,5.17834.5174,7.72729-2.935,2.51428-5.41418.90583-7.606-1.60166-4.99765-5.71745-10.02508-11.411-15.16061-17.004-1.07127-1.1667-1.7292-3.64714-4.19856-2.39772-2.25268,1.13978-4.12755,2.43565-3.87746,5.59212.29917,3.77617.01773,7.5952.083,11.394.05491,3.196-1.40033,5.24241-4.59105,5.17981-3.16039-.06206-4.548-2.193-4.54467-5.32672q.03078-28.7476-.004-57.49524c-.00489-3.33595,1.32881-5.597,4.83568-5.489,3.25732.10034,4.34431,2.32231,4.32033,5.44293C369.30353,208.18124,369.35306,218.53275,369.35306,229.87117Z" transform="translate(-211.04347 -26.11459)"/><path class="cls-1" d="M287.07045,212.77222a24.03253,24.03253,0,1,1-24.074,24.26422A23.938,23.938,0,0,1,287.07045,212.77222Zm.17175,38.70114a14.6331,14.6331,0,0,0,14.588-14.86126,14.93318,14.93318,0,0,0-14.9101-14.6555c-8.00356.13594-14.925,7.15587-14.75932,14.96928A14.92873,14.92873,0,0,0,287.2422,251.47336Z" transform="translate(-211.04347 -26.11459)"/><path class="cls-1" d="M339.3511,212.75839a22.83,22.83,0,0,1,13.46023,4.23839c2.81336,1.97,4.9905,4.40711,2.54234,7.79023-2.28934,3.16363-5.05943,1.83553-7.79471.05567-6.34041-4.12578-12.92825-3.74495-18.24585.8341a14.71671,14.71671,0,0,0,16.696,24.02019c.57789-.31617,1.13828-.66975,1.68193-1.04221,2.73859-1.87622,5.61708-2.67955,7.73879.55185,2.18016,3.32042-.10528,5.50213-2.677,7.36428-12.96743,9.38957-32.48711,2.52-36.8552-12.97418A24.02565,24.02565,0,0,1,339.3511,212.75839Z" transform="translate(-211.04347 -26.11459)"/><path class="cls-2" d="M466.88918,217.3619a24.96729,24.96729,0,0,1,21.24711-3.76454c3.23682.85182,6.16747,2.42087,5.05427,6.48116-1.05236,3.83846-3.925,3.46542-7.16459,2.65868-11.27083-2.80674-19.53118,3.86264-19.57537,15.59355-.0205,5.44146-.078,10.88444.02314,16.32409.06415,3.45064-1.00426,6.09591-4.80859,6.02921-3.56954-.06251-4.3893-2.6645-4.36589-5.88357.08626-11.87182.05954-23.74473.01532-35.617-.01033-2.77624.07075-5.478,3.41463-6.24257C464.22178,212.14231,465.79566,214.42887,466.88918,217.3619Z" transform="translate(-211.04347 -26.11459)"/><path class="cls-3" d="M315.66488,145.20459c-.55534-3.29374-2.28231-3.33634-4.98569-2.15336-8.21455,3.5947-16.72494,5.90126-25.83265,4.96982a13.1,13.1,0,0,0-1.26972-2.58036c-10.06585-12.57387-13.39727-27.42714-14.63972-42.99695q66.7106-.02078,133.42109-.0876c6.93721-.01623,13.82451-.9399,20.09137-4.29735,2.49064-1.33435,3.98245-2.51242,1.78235-6.02391-5.68174-9.06837-4.3872-18.57456-.17393-27.92368,1.269-2.81592,2.73832-2.68594,4.86348-.75137,6.24593,5.68581,10.75439,12.10907,9.81994,21.10532-.60712,1.52479-1.10865,3.1001-1.83588,4.56322a183.37725,183.37725,0,0,1-23.43881,36.43635c-14.29053,17.08012-31.71589,28.89876-53.2398,34.799-7.96976,2.18472-16.25332,2.0239-24.227,3.94167C327.26511,159.96562,321.33422,152.72506,315.66488,145.20459Zm13.16791-20.31238a7.14779,7.14779,0,0,0-6.83556,7.08316,7.00341,7.00341,0,1,0,13.99036-.42322A6.95525,6.95525,0,0,0,328.83279,124.89221Z" transform="translate(-211.04347 -26.11459)"/><path class="cls-4" d="M335.99986,164.20543c7.97372-1.91777,16.25728-1.757,24.227-3.94167,21.52391-5.90029,38.94927-17.71892,53.2398-34.799a183.37725,183.37725,0,0,0,23.43881-36.43635c.72723-1.46312,1.22876-3.03844,1.83588-4.56322,6.78431-1.15518,13.47313-2.468,20.47954-.931,6.47015,1.41929,7.73648,3.65364,3.72773,8.79628-5.2836,6.7781-12.5378,9.66465-20.89155,9.05473-4.86177-.355-6.94945,1.68108-8.7739,5.7897-14.76672,33.25432-40.4792,52.77308-75.93059,59.80353-4.16461.82589-8.42639,1.1618-12.64235,1.72453C341.87836,167.06591,338.56012,166.36979,335.99986,164.20543Z" transform="translate(-211.04347 -26.11459)"/><path class="cls-5" d="M335.99986,164.20543c2.56025,2.16437,5.8785,2.86048,8.71042,4.49747-18.71277,2.17194-36.90081,1.12953-53.58971-8.86716a35.05951,35.05951,0,0,1-8.87154-7.25834c12.09469.43164,23.27368-1.28618,33.41534-7.37261C321.33422,152.72506,327.26511,159.96562,335.99986,164.20543Z" transform="translate(-211.04347 -26.11459)"/><path class="cls-6" d="M365.21229,30.93219c10.8792,0,10.8792,0,10.87917,9.90108,0,9.08751,0,9.08751-9.1975,9.08753-12.60417,0-12.60419,0-12.59951-12.11455.00265-6.8717.00267-6.87177,6.95413-6.874Q363.23044,30.93161,365.21229,30.93219Zm-5.98849,15.2714a17.94917,17.94917,0,0,0,.041-11.54421C357.78378,38.48017,358.12166,42.34277,359.22379,46.20359Zm6.26967.00116V34.67747C364.2112,38.50809,363.84762,42.34831,365.49347,46.20475Zm5.567-11.53095c-.9371,3.86661-1.4725,7.73412.18744,11.50727A17.81032,17.81032,0,0,0,371.06051,34.6738Z" transform="translate(-211.04347 -26.11459)"/><path class="cls-6" d="M390.743,97.557c-10.64568,0-10.64566,0-10.64551-10.6006.00012-8.38728.00011-8.38729,9.89924-8.388,11.9004-.00083,11.92263-.00076,11.88995,11.85513-.022,7.99036.77642,7.06544-7.18,7.1319C393.38548,97.5665,392.06418,97.557,390.743,97.557Zm-5.61464-3.70733c.93515-3.87922,1.458-7.76165-.17069-11.55477A17.79484,17.79484,0,0,0,385.12832,93.84969Zm5.95453,0c.93515-3.87922,1.458-7.76165-.17069-11.55477A17.79484,17.79484,0,0,0,391.08285,93.84969Zm5.76943-11.53837c-.93439,3.86843-1.45324,7.737.3499,11.51575C397.83661,89.978,398.49457,86.13932,396.85228,82.31132Z" transform="translate(-211.04347 -26.11459)"/><path class="cls-6" d="M365.10067,97.557c-10.80624,0-10.80624,0-10.8062-9.94449,0-9.044,0-9.044,9.24315-9.04406,12.559,0,12.559,0,12.55384,12.18993-.00289,6.79676-.00289,6.79681-7.02712,6.79857Q367.0825,97.55746,365.10067,97.557Zm-5.70559-3.75516c.85792-3.85514,1.30445-7.70175-.352-11.5048C358.44165,86.14687,357.5858,90.002,359.39508,93.80186Zm5.88781.00123a18.68208,18.68208,0,0,0-.091-11.53865C364.05638,86.13807,363.759,89.992,365.28288,93.80309Zm5.86393.03294a19.795,19.795,0,0,0,.07726-11.52731A17.81917,17.81917,0,0,0,371.14681,93.836Z" transform="translate(-211.04347 -26.11459)"/><path class="cls-6" d="M339.33158,78.56846c10.957,0,10.957,0,10.95692,10.31867-.00008,8.66989-.00008,8.66989-9.615,8.66989-12.18607,0-12.18606,0-12.182-12.03686.00236-6.949.00235-6.94909,6.87637-6.95164Q337.34973,78.5678,339.33158,78.56846ZM333.476,93.80657a17.72067,17.72067,0,0,0-.04644-11.50516A17.40515,17.40515,0,0,0,333.476,93.80657Zm6.10858.00051c.511-3.84995,1.54328-7.73607-.26249-11.51264A16.92685,16.92685,0,0,0,339.58461,93.80708Zm5.47008-11.5433V93.79537A15.13155,15.13155,0,0,0,345.0547,82.26378Z" transform="translate(-211.04347 -26.11459)"/><path class="cls-6" d="M313.46889,97.557c-10.78071,0-10.83164-.00033-10.76471-10.96118.05661-9.27-1.1851-7.96229,8.26256-8.01,13.53284-.06836,13.31705-.01231,13.62906,12.69119.11865,4.83031-.91313,7.23193-6.17972,6.3229A29.48147,29.48147,0,0,0,313.46889,97.557Zm-5.974-15.251c-.64882,3.84207-1.52442,7.69923.15806,11.509A16.99678,16.99678,0,0,0,307.49492,82.306Zm6.179,11.54368c.93515-3.87922,1.458-7.76165-.17069-11.55477A17.79484,17.79484,0,0,0,313.674,93.84969Zm5.76486-11.54212a18.55131,18.55131,0,0,0,.1281,11.54019C320.66288,89.97024,320.97895,86.11381,319.43883,82.30757Z" transform="translate(-211.04347 -26.11459)"/><path class="cls-6" d="M339.36838,54.75031c10.92013,0,10.92013,0,10.92012,9.86008,0,9.12852,0,9.12852-9.65188,9.12852-12.14949,0-12.1495,0-12.14512-12.07365.00251-6.91241.00251-6.91249,6.9132-6.91488Q337.38653,54.7497,339.36838,54.75031Zm-6.03382,3.75183c-.85771,3.86477-1.45121,7.73452.21147,11.49806A18.382,18.382,0,0,0,333.33456,58.50215Zm6.1637,11.47017c.84293-3.86179,1.33549-7.7246-.26906-11.50871C338.45595,62.31718,337.98716,66.15136,339.49826,69.97231Zm5.76363-11.47762c-.937,3.86914-1.42238,7.73256.29048,11.51127C346.29233,66.15158,346.71934,62.3152,345.2619,58.49469Z" transform="translate(-211.04347 -26.11459)"/><path class="cls-6" d="M365.31853,54.75032c10.77308,0,10.83241.00042,10.75565,10.503-.07166,9.806,1.31751,8.41219-8.2962,8.46644-13.49812.07615-13.28009.014-13.59476-12.69406-.11995-4.84345.93644-7.2184,6.18793-6.318A29.66954,29.66954,0,0,0,365.31853,54.75032Zm-6.08129,15.22958a17.75714,17.75714,0,0,0,.01258-11.50416A17.53415,17.53415,0,0,0,359.23724,69.97989Zm12.05287.03946c.6504-3.85247,1.472-7.71029-.12693-11.54179C369.69283,62.29828,370.03072,66.16088,371.29011,70.01936Zm-6.05656-.03091a17.72064,17.72064,0,0,0-.0465-11.50515A17.40513,17.40513,0,0,0,365.23355,69.98845Z" transform="translate(-211.04347 -26.11459)"/><path class="cls-6" d="M287.641,78.56846c11.04221,0,11.04223,0,11.04152,11.22488a31.82209,31.82209,0,0,0,.01953,3.466c.34264,3.11135-.71486,4.53215-4.10278,4.35621-4.61186-.23948-9.25253-.21549-13.86731-.00611-3.1427.14258-4.1518-1.16923-3.86685-4.07935.12813-1.30864.0206-2.64033.02055-3.96155C276.88517,78.56846,276.8852,78.56846,287.641,78.56846Zm-5.72587,15.22285c.94109-3.86589,1.39234-7.72693-.27367-11.5082C280.87078,86.13529,280.45252,89.96948,281.91511,93.79131Zm5.93733.021c.97722-3.86932,1.44854-7.73207-.13277-11.51791A17.696,17.696,0,0,0,287.85245,93.8123Zm5.88492-.01429A17.75664,17.75664,0,0,0,293.75,82.29388,17.534,17.534,0,0,0,293.73737,93.798Z" transform="translate(-211.04347 -26.11459)"/><path class="cls-6" d="M313.47311,73.73889c-10.78459,0-10.78459,0-10.78456-9.96634,0-9.02222,0-9.02222,9.26518-9.02223,12.546,0,12.33151.00522,12.64141,12.70418.11766,4.82159-.89941,7.24021-6.17482,6.3274A29.41109,29.41109,0,0,0,313.47311,73.73889Zm-5.68391-3.75518c.85777-3.85511,1.30451-7.70172-.34772-11.50485C306.83333,62.32881,305.97948,66.18385,307.7892,69.98372Zm5.67644-11.48679c-.69566,3.83977-1.50912,7.69289.15385,12.99994A21.44289,21.44289,0,0,0,313.46564,58.49692Zm6.28837,11.4789c.51777-3.84588,1.50267-7.72788-.41632-11.51087C318.5908,62.30942,318.02775,66.14429,319.754,69.97582Z" transform="translate(-211.04347 -26.11459)"/><path class="cls-4" d="M268.93711,102.44374c1.24244,15.56981,4.57387,30.42307,14.63972,42.99695a13.1,13.1,0,0,1,1.26972,2.58036c-5.315.52089-8.67565-1.549-11.47621-6.40784-6.17-10.70477-8.44535-22.23951-9.40911-34.2812C263.64358,103.36332,265.0618,101.81963,268.93711,102.44374Z" transform="translate(-211.04347 -26.11459)"/><path class="cls-2" d="M359.22379,46.20359c-1.10213-3.86081-1.44-7.72342.041-11.54421A17.94917,17.94917,0,0,1,359.22379,46.20359Z" transform="translate(-211.04347 -26.11459)"/><path class="cls-2" d="M365.49347,46.20475c-1.64585-3.85644-1.28226-7.69666,0-11.52727Z" transform="translate(-211.04347 -26.11459)"/><path class="cls-2" d="M371.06051,34.6738a17.81032,17.81032,0,0,1,.18744,11.50727C369.588,42.40792,370.12341,38.54041,371.06051,34.6738Z" transform="translate(-211.04347 -26.11459)"/><path class="cls-2" d="M385.12832,93.84969a17.79484,17.79484,0,0,1-.17069-11.55477C386.58636,86.088,386.06347,89.97046,385.12832,93.84969Z" transform="translate(-211.04347 -26.11459)"/><path class="cls-2" d="M391.08285,93.84969a17.79484,17.79484,0,0,1-.17069-11.55477C392.54089,86.088,392.018,89.97046,391.08285,93.84969Z" transform="translate(-211.04347 -26.11459)"/><path class="cls-2" d="M396.85228,82.31132c1.64229,3.828.98433,7.66667.3499,11.51575C395.399,90.04835,395.91789,86.17975,396.85228,82.31132Z" transform="translate(-211.04347 -26.11459)"/><path class="cls-2" d="M359.39508,93.80186c-1.80927-3.79989-.95343-7.655-.352-11.5048C360.69952,86.10011,360.253,89.94672,359.39508,93.80186Z" transform="translate(-211.04347 -26.11459)"/><path class="cls-2" d="M365.28288,93.80309c-1.52393-3.81111-1.2265-7.665-.091-11.53865A18.68208,18.68208,0,0,1,365.28288,93.80309Z" transform="translate(-211.04347 -26.11459)"/><path class="cls-2" d="M371.14681,93.836a17.81917,17.81917,0,0,1,.07726-11.52731A19.795,19.795,0,0,1,371.14681,93.836Z" transform="translate(-211.04347 -26.11459)"/><path class="cls-2" d="M333.476,93.80657a17.40515,17.40515,0,0,1-.04644-11.50516A17.72067,17.72067,0,0,1,333.476,93.80657Z" transform="translate(-211.04347 -26.11459)"/><path class="cls-2" d="M339.58461,93.80708a16.92685,16.92685,0,0,1-.26249-11.51264C341.12789,86.071,340.09559,89.95713,339.58461,93.80708Z" transform="translate(-211.04347 -26.11459)"/><path class="cls-2" d="M345.0547,82.26378a15.13155,15.13155,0,0,1,0,11.53158Z" transform="translate(-211.04347 -26.11459)"/><path class="cls-2" d="M307.49492,82.306a16.99678,16.99678,0,0,1,.15806,11.509C305.9705,90.00523,306.8461,86.14807,307.49492,82.306Z" transform="translate(-211.04347 -26.11459)"/><path class="cls-2" d="M313.674,93.84969a17.79484,17.79484,0,0,1-.17069-11.55477C315.132,86.088,314.60912,89.97046,313.674,93.84969Z" transform="translate(-211.04347 -26.11459)"/><path class="cls-2" d="M319.43883,82.30757c1.54012,3.80625,1.22405,7.66267.1281,11.54019A18.55131,18.55131,0,0,1,319.43883,82.30757Z" transform="translate(-211.04347 -26.11459)"/><path class="cls-2" d="M333.33456,58.50215a18.382,18.382,0,0,1,.21147,11.49806C331.88335,66.23667,332.47686,62.36691,333.33456,58.50215Z" transform="translate(-211.04347 -26.11459)"/><path class="cls-2" d="M339.49826,69.97231c-1.5111-3.821-1.04232-7.65513-.26906-11.50871C340.83375,62.24772,340.34119,66.11052,339.49826,69.97231Z" transform="translate(-211.04347 -26.11459)"/><path class="cls-2" d="M345.2619,58.49469c1.45744,3.8205,1.03043,7.65688.29048,11.51127C343.83952,66.22725,344.32492,62.36384,345.2619,58.49469Z" transform="translate(-211.04347 -26.11459)"/><path class="cls-2" d="M359.23724,69.97989a17.53415,17.53415,0,0,1,.01258-11.50416A17.75714,17.75714,0,0,1,359.23724,69.97989Z" transform="translate(-211.04347 -26.11459)"/><path class="cls-2" d="M371.29011,70.01936c-1.2594-3.85847-1.59728-7.72108-.12693-11.54179C372.76215,62.30907,371.94051,66.16689,371.29011,70.01936Z" transform="translate(-211.04347 -26.11459)"/><path class="cls-2" d="M365.23355,69.98845a17.40513,17.40513,0,0,1-.0465-11.50515A17.72064,17.72064,0,0,1,365.23355,69.98845Z" transform="translate(-211.04347 -26.11459)"/><path class="cls-2" d="M281.91511,93.79131c-1.46259-3.82183-1.04433-7.656-.27367-11.5082C283.30745,86.06438,282.8562,89.92541,281.91511,93.79131Z" transform="translate(-211.04347 -26.11459)"/><path class="cls-2" d="M287.85245,93.8123a17.696,17.696,0,0,1-.13277-11.51791C289.301,86.08023,288.82966,89.943,287.85245,93.8123Z" transform="translate(-211.04347 -26.11459)"/><path class="cls-2" d="M293.73737,93.798A17.534,17.534,0,0,1,293.75,82.29388,17.75664,17.75664,0,0,1,293.73737,93.798Z" transform="translate(-211.04347 -26.11459)"/><path class="cls-2" d="M307.7892,69.98372c-1.80973-3.79987-.95587-7.65491-.34772-11.50485C309.09372,62.282,308.647,66.1286,307.7892,69.98372Z" transform="translate(-211.04347 -26.11459)"/><path class="cls-2" d="M313.46564,58.49692a21.44289,21.44289,0,0,1,.15385,12.99994C311.95652,66.18981,312.77,62.3367,313.46564,58.49692Z" transform="translate(-211.04347 -26.11459)"/><path class="cls-2" d="M319.754,69.97582c-1.72627-3.83153-1.16322-7.6664-.41632-11.51087C321.25669,62.24794,320.27179,66.12994,319.754,69.97582Z" transform="translate(-211.04347 -26.11459)"/><path class="cls-1" d="M329.04631,128.17048c1.87886.95446,2.66318,3.39731,3.42824,5.09973.71874,1.59933-1.87183,2.86521-3.7446,2.7284-2.53549-.1852-3.644-1.87786-3.44428-4.42695C325.45189,129.451,326.48782,128.26348,329.04631,128.17048Z" transform="translate(-211.04347 -26.11459)"/></svg>