<?xml version="1.0" encoding="UTF-8" standalone="no"?>
<svg
   xmlns:dc="http://purl.org/dc/elements/1.1/"
   xmlns:cc="http://creativecommons.org/ns#"
   xmlns:rdf="http://www.w3.org/1999/02/22-rdf-syntax-ns#"
   xmlns:svg="http://www.w3.org/2000/svg"
   xmlns="http://www.w3.org/2000/svg"
   viewBox="0 0 1333.3333 148.87199"
   height="148.87199"
   width="1333.3333"
   xml:space="preserve"
   id="svg2"
   version="1.1"><metadata
     id="metadata8"><rdf:RDF><cc:Work
         rdf:about=""><dc:format>image/svg+xml</dc:format><dc:type
           rdf:resource="http://purl.org/dc/dcmitype/StillImage" /></cc:Work></rdf:RDF></metadata><defs
     id="defs6"><clipPath
       id="clipPath22"
       clipPathUnits="userSpaceOnUse"><path
         id="path20"
         d="M 0,111.654 H 1000 V 0 H 0 Z" /></clipPath></defs><g
     transform="matrix(1.3333333,0,0,-1.3333333,0,148.872)"
     id="g10"><g
       transform="translate(403.459,108.936)"
       id="g12"><path
         id="path14"
         style="fill:#35144b;fill-opacity:1;fill-rule:nonzero;stroke:none"
         d="M 0,0 H 21.885 L -25.323,-61.998 1.625,-97.251 H -6.152 L -32.917,-61.998 9.942,-5.471 H 3.438 L -73.246,-106.218 -94.77,-106.37 -54.077,-52.424 -93.864,0 h 7.778 l 39.787,-52.273 -36.532,-48.476 h 6.147 z" /></g><g
       id="g16"><g
         clip-path="url(#clipPath22)"
         id="g18"><g
           transform="translate(37.8955,18.6338)"
           id="g24"><path
             id="path26"
             style="fill:#35144b;fill-opacity:1;fill-rule:nonzero;stroke:none"
             d="m 0,0 c -1.212,-2.397 -3.028,-6.125 -3.483,-6.925 -0.756,-1.198 -2.422,-2.53 -5.903,-2.53 h -24.222 v 90.559 c 0.151,1.466 1.514,2.665 3.33,2.665 h 28.31 L -5.601,76.844 C -6.208,75.645 -7.872,74.18 -11.354,74.18 h -8.779 c -1.516,0 -2.575,-0.932 -2.575,-2.264 V 44.215 h 16.35 c -1.212,-2.397 -3.028,-6.258 -3.483,-7.059 -0.756,-1.197 -2.27,-2.529 -5.752,-2.529 h -4.54 c -1.364,0 -2.575,-1.065 -2.575,-2.265 l 0,-32.362 z" /></g><g
           transform="translate(102.5303,88.0195)"
           id="g28"><path
             id="path30"
             style="fill:#35144b;fill-opacity:1;fill-rule:nonzero;stroke:none"
             d="m 0,0 c 0,3.461 -2.725,4.793 -5.752,4.793 h -7.114 v -74.179 h 7.114 c 3.027,0 5.752,1.332 5.752,4.928 z m -2.725,14.382 c 7.417,0 13.322,-5.193 13.475,-11.718 v -69.786 c -0.153,-6.524 -6.058,-11.72 -13.475,-11.72 h -21.042 v 93.224 z" /></g><g
           transform="translate(192.1475,76.9658)"
           id="g32"><path
             id="path34"
             style="fill:#35144b;fill-opacity:1;fill-rule:nonzero;stroke:none"
             d="m 0,0 c 0,-3.195 -1.514,-4.529 -3.028,-5.193 -0.758,-0.4 -4.996,-2.132 -7.872,-3.197 v 21.308 c 0,2.796 -2.575,5.062 -5.753,5.062 -3.18,0 -5.751,-2.266 -5.751,-5.062 V -55.27 c 0,-2.794 2.571,-5.059 5.751,-5.059 3.178,0 5.753,2.265 5.753,5.059 v 27.835 h -0.454 c -2.421,0 -3.937,3.063 -3.937,3.063 l -3.633,6.66 h 13.625 c 3.331,0 5.299,-1.599 5.299,-5.195 v -33.96 c 0,-6.393 -5.905,-11.585 -13.172,-11.852 h -6.661 c -7.417,0 -13.472,5.326 -13.472,11.852 v 71.384 c 0,6.525 6.055,11.853 13.472,11.853 h 6.661 C -5.905,26.103 0,20.908 0,14.517 Z" /></g><g
           transform="translate(276.312,18.6338)"
           id="g36"><path
             id="path38"
             style="fill:#35144b;fill-opacity:1;fill-rule:nonzero;stroke:none"
             d="m 0,0 c -1.212,-2.397 -3.028,-6.125 -3.483,-6.925 -0.756,-1.198 -2.422,-2.53 -5.903,-2.53 h -24.222 v 90.559 c 0.151,1.466 1.514,2.665 3.33,2.665 h 28.31 L -5.601,76.844 C -6.208,75.645 -7.873,74.18 -11.354,74.18 h -8.779 c -1.516,0 -2.575,-0.932 -2.575,-2.264 V 44.215 h 16.35 c -1.213,-2.397 -3.028,-6.258 -3.484,-7.059 -0.755,-1.197 -2.269,-2.529 -5.751,-2.529 h -4.54 c -1.365,0 -2.575,-1.065 -2.575,-2.265 l 0,-32.362 z" /></g><g
           transform="translate(367.4692,80.2158)"
           id="g40"><path
             id="path42"
             style="fill:#832841;fill-opacity:1;fill-rule:nonzero;stroke:none"
             d="m 0,0 21.701,28.872 h 7.776 l -36.53,-48.17 -37.439,48.17 h 22.425 L -3.256,4.256 -7.053,-0.912 -25.682,23.401 h -6.876 l 25.505,-32.671 6.871,8.967 z" /></g><g
           transform="translate(388.8105,51.6484)"
           id="g44"><path
             id="path46"
             style="fill:#832841;fill-opacity:1;fill-rule:nonzero;stroke:none"
             d="M 0,0 0.543,-0.761 37.432,-48.932 H 1.266 l -22.972,29.633 -22.786,-29.633 h -7.776 L -21.883,-9.271 4.881,-43.46 H 25.5 L -3.979,-5.168 Z" /></g><g
           transform="translate(494.7915,102.5864)"
           id="g48"><path
             id="path50"
             style="fill:#832841;fill-opacity:1;fill-rule:nonzero;stroke:none"
             d="m 0,0 c -1.065,-2.406 -3.04,-6.15 -3.497,-6.953 -0.76,-1.204 -2.281,-2.674 -5.776,-2.674 h -12.16 c -1.367,0 -2.585,-1.071 -2.585,-2.273 v -29.152 h 19.457 l -3.648,-6.953 c -0.759,-1.204 -2.28,-2.676 -5.775,-2.676 h -7.297 c -1.519,0 -2.737,-0.936 -2.737,-2.273 v -37.843 c 0,-1.605 -1.519,-2.807 -3.191,-2.807 h -7.601 v 90.797 c 0,1.47 1.369,2.807 3.191,2.807 z" /></g><g
           transform="translate(553.3076,16.4697)"
           id="g52"><path
             id="path54"
             style="fill:#832841;fill-opacity:1;fill-rule:nonzero;stroke:none"
             d="m 0,0 c 3.193,0 5.776,2.273 5.776,5.215 v 68.198 c 0,2.942 -2.583,5.216 -5.776,5.216 H -1.673 C -4.864,78.495 -7.447,76.222 -7.447,73.413 V 5.215 c 0,-2.809 2.583,-5.081 5.774,-5.215 z m 3.648,87.053 c 7.296,-0.266 13.226,-5.481 13.226,-11.9 V 3.344 C 16.721,-3.075 10.944,-8.157 3.648,-8.425 h -8.361 c -7.447,0 -13.527,5.35 -13.681,11.769 v 71.809 c 0,6.552 6.081,11.9 13.681,11.9 z" /></g><g
           transform="translate(649.8271,19.9463)"
           id="g56"><path
             id="path58"
             style="fill:#832841;fill-opacity:1;fill-rule:nonzero;stroke:none"
             d="M 0,0 C 0,-6.419 -5.929,-11.232 -13.072,-11.365 V -11.5 h -8.362 c -7.447,0 -13.527,4.948 -13.527,11.5 v 79.966 c 0.15,1.471 1.52,2.675 3.19,2.675 h 7.752 V 1.738 c 0,-2.806 2.434,-5.081 5.625,-5.081 h 1.673 c 3.194,0 5.777,2.275 5.777,5.081 v 80.903 l 10.944,0 z" /></g><g
           transform="translate(729.624,8.9814)"
           id="g60"><path
             id="path62"
             style="fill:#832841;fill-opacity:1;fill-rule:nonzero;stroke:none"
             d="m 0,0 h -5.016 c -5.928,0 -6.84,4.146 -7.297,6.018 L -24.018,52.285 V 0 H -34.96 v 93.604 h 5.016 c 6.08,0 7.143,-2.539 7.752,-5.214 l 11.248,-48.675 v 53.889 l 10.944,0 z" /></g><g
           transform="translate(798.4766,88.1455)"
           id="g64"><path
             id="path66"
             style="fill:#832841;fill-opacity:1;fill-rule:nonzero;stroke:none"
             d="m 0,0 c 0,3.477 -2.737,4.813 -5.776,4.813 h -7.145 V -69.67 h 7.145 c 3.039,0 5.776,1.338 5.776,4.947 z m -2.737,14.441 c 7.449,0 13.378,-5.215 13.531,-11.767 v -70.07 C 10.641,-73.948 4.712,-79.164 -2.737,-79.164 h -21.128 v 93.605 z" /></g><g
           transform="translate(953.209,47.8945)"
           id="g68"><path
             id="path70"
             style="fill:#832841;fill-opacity:1;fill-rule:nonzero;stroke:none"
             d="m 0,0 v -38.914 h -7.753 c -1.671,0 -3.04,1.204 -3.191,2.81 V 0 l -13.075,54.692 h 8.057 c 0.305,0 3.04,-0.134 3.497,-3.208 l 6.993,-35.438 6.991,35.438 c 0.457,3.074 3.193,3.208 3.497,3.208 h 8.055 z" /></g><g
           transform="translate(871.5869,58.3247)"
           id="g72"><path
             id="path74"
             style="fill:#832841;fill-opacity:1;fill-rule:nonzero;stroke:none"
             d="m 0,0 c 2.888,0 5.624,1.071 5.624,5.35 v 25.139 c 0,3.476 -2.736,4.814 -5.624,4.814 H -5.776 V 0 Z m 5.624,-49.344 v 34.233 c 0,4.548 -2.736,6.018 -5.624,6.018 H -5.776 V -49.344 H -16.719 V 44.262 H 3.193 c 7.295,0 13.375,-5.215 13.375,-11.767 V 3.611 c 0,-2.713 -4.064,-7.356 -8.473,-8.291 4.257,-1.872 8.485,-6.01 8.473,-8.825 -0.042,-10.01 0,-35.839 0,-35.839 z" /></g><g
           transform="translate(986.8311,102.8452)"
           id="g76"><path
             id="path78"
             style="fill:#832841;fill-opacity:1;fill-rule:evenodd;stroke:none"
             d="m 0,0 h -2.998 v -10.806 h 1.971 v 8.912 l 3.497,-8.912 h 1.105 l 3.329,8.912 v -8.912 H 8.882 V 0 H 5.879 L 3.046,-7.724 Z m -5.379,0 h -9.081 v -1.605 h 3.453 v -9.201 h 2.177 v 9.201 h 3.451 z" /></g></g></g></g></svg>