<?xml version="1.0" encoding="UTF-8"?><svg baseProfile="tiny" viewBox="0 0 170 170" width="170px" height="170px" xmlns="http://www.w3.org/2000/svg" version="1.2"><g fill="#fff"><rect height="67" fill="#fff" width="169"/><rect x="169" width="1" height="67" fill="#fff"/><rect y="67" width="169" height="1" fill="#fff"/><rect height="1" fill="#fff" x="169" y="67" width="1"/><rect x="43" y="68" width="6" height="101" fill="#fff"/><rect y="68" width="1" height="101" fill="#fff" x="49"/><rect x="95" y="68" width="4" height="101" fill="#fff"/><rect x="99" y="68" width="1" height="101" fill="#fff"/><rect y="68" width="11" height="1" fill="#fff" x="144"/><rect x="155" y="68" width="1" height="101" fill="#fff"/><rect x="146" y="69" width="9" height="1" fill="#fff"/><rect x="146" y="70" width="9" height="1" fill="#fff"/><rect width="8" height="26" fill="#fff" x="147" y="71"/><rect x="50" y="75" width="1" height="94" fill="#fff"/><rect x="94" y="75" width="5" height="94" fill="#fff"/><rect y="76" width="50" height="3" fill="#fff" x="14"/><rect x="64" y="76" width="1" height="93" fill="#fff"/><rect height="93" fill="#fff" x="80" y="76" width="19"/><rect height="8" fill="#fff" x="115" y="76" width="17"/><rect width="50" height="1" fill="#fff" x="14" y="79"/><rect x="51" y="80" width="13" height="89" fill="#fff"/><rect x="115" y="84" width="17" height="1" fill="#fff"/><rect x="132" y="84" width="1" height="1" fill="#fff"/><rect x="115" y="85" width="2" height="84" fill="#fff"/><rect x="117" y="85" width="1" height="84" fill="#fff"/><rect x="136" y="86" width="19" height="1" fill="#fff"/><rect x="118" y="87" width="1" height="82" fill="#fff"/><rect x="119" y="87" width="1" height="82" fill="#fff"/><rect x="137" y="87" width="18" height="1" fill="#fff"/><rect x="14" y="88" width="50" height="4" fill="#fff"/><rect fill="#fff" x="138" y="88" width="17" height="1"/><rect x="120" y="89" width="1" height="80" fill="#fff"/><rect x="139" y="89" width="16" height="1" fill="#fff"/><rect x="121" y="90" width="1" height="79" fill="#fff"/><rect x="140" y="90" width="15" height="1" fill="#fff"/><rect fill="#fff" x="122" y="91" width="1" height="78"/><rect x="141" y="91" width="14" height="1" fill="#fff"/><rect x="14" y="92" width="50" height="1" fill="#fff"/><rect y="92" width="1" height="77" fill="#fff" x="123"/><rect fill="#fff" x="124" y="92" width="1" height="77"/><rect x="142" y="92" width="13" height="1" fill="#fff"/><rect y="93" width="1" height="76" fill="#fff" x="125"/><rect height="1" fill="#fff" x="143" y="93" width="12"/><rect x="126" y="94" width="1" height="75" fill="#fff"/><rect fill="#fff" x="144" y="94" width="11" height="1"/><rect height="74" fill="#fff" x="127" y="95" width="1"/><rect height="1" fill="#fff" x="145" y="95" width="10"/><rect width="1" height="73" fill="#fff" x="128" y="96"/><rect height="1" fill="#fff" x="146" y="96" width="9"/><rect y="97" width="1" height="72" fill="#fff" x="129"/><rect x="147" y="97" width="8" height="1" fill="#fff"/><rect y="98" width="1" height="71" fill="#fff"/><rect fill="#fff" x="130" y="98" width="1" height="71"/><rect fill="#fff" x="148" y="98" width="7" height="1"/><rect x="1" y="99" width="1" height="70" fill="#fff"/><rect fill="#fff" x="131" y="99" width="1" height="70"/><rect x="149" y="99" width="6" height="1" fill="#fff"/><rect x="2" y="100" width="1" height="69" fill="#fff"/><rect x="132" y="100" width="1" height="69" fill="#fff"/><rect x="150" y="100" width="5" height="1" fill="#fff"/><rect fill="#fff" x="3" y="101" width="130" height="68"/><rect height="68" fill="#fff" x="133" y="101" width="1"/><rect x="151" y="101" width="18" height="68" fill="#fff"/><rect height="68" fill="#fff" x="169" y="101" width="1"/><rect y="102" width="1" height="67" fill="#fff" x="134"/><rect x="135" y="103" width="34" height="66" fill="#fff"/><rect y="169" width="169" height="1" fill="#fff"/><rect x="169" y="169" width="1" height="1" fill="#fff"/></g><g fill="#98a9cd"><rect x="50" y="68" width="1" height="6"/><rect x="50" y="74" width="1" height="1"/><rect x="13" y="93" width="1" height="1"/><rect y="96" width="1" height="1"/><rect x="1" y="98" width="1" height="1"/><rect width="1" height="1" x="4" y="100"/></g><g fill="#0b3f8b"><rect x="1" y="69" width="40" height="4"/><rect x="41" y="69" width="1" height="4"/><rect x="51" y="69" width="42" height="4"/><rect height="4" x="93" y="69" width="1"/><rect x="157" y="69" width="11" height="30"/><rect x="168" y="69" width="1" height="30"/><rect x="1" y="73" width="40" height="1"/><rect x="41" y="73" width="1" height="1"/><rect y="73" width="42" height="1" x="51"/><rect y="73" width="1" height="1" x="93"/><rect height="22" x="1" y="74" width="11"/><rect x="12" y="74" width="1" height="25"/><rect x="66" y="74" width="12" height="1"/><rect x="78" y="74" width="1" height="1"/><rect x="67" y="75" width="10" height="24"/><rect y="75" width="1" height="24" x="77"/><rect x="13" y="81" width="28" height="5"/><rect x="41" y="81" width="1" height="5"/><rect x="13" y="86" width="28" height="1"/><rect width="1" height="1" x="41" y="86"/><rect height="5" x="13" y="94" width="28"/><rect y="94" width="1" height="5" x="41"/><rect width="40" height="1" x="1" y="96"/><rect height="1" x="2" y="97" width="39"/><rect width="39" height="1" x="2" y="98"/><rect x="4" y="99" width="37" height="1"/><rect x="41" y="99" width="1" height="1"/><rect x="67" y="99" width="10" height="1"/><rect x="77" y="99" width="1" height="1"/><rect y="99" width="11" height="1" x="157"/><rect width="1" height="1" x="168" y="99"/></g><g fill="#f8f5f6"><rect width="1" height="1" x="145" y="69"/><rect y="75" width="28" height="1" x="14"/><rect x="42" y="75" width="1" height="1"/><rect x="51" y="75" width="13" height="1"/><rect x="64" y="75" width="1" height="1"/><rect x="80" y="75" width="13" height="1"/><rect width="1" height="1" x="93" y="75"/><rect height="1" x="115" y="75" width="17"/><rect width="1" height="2" x="132" y="75"/><rect x="114" y="76" width="1" height="24"/><rect x="132" y="77" width="1" height="2"/><rect y="79" width="1" height="2" x="132"/><rect x="14" y="80" width="2" height="1"/><rect x="16" y="80" width="2" height="1"/><rect width="2" height="1" x="18" y="80"/><rect x="20" y="80" width="2" height="1"/><rect x="22" y="80" width="2" height="1"/><rect x="24" y="80" width="2" height="1"/><rect x="26" y="80" width="2" height="1"/><rect x="28" y="80" width="2" height="1"/><rect width="2" height="1" x="30" y="80"/><rect width="2" height="1" x="32" y="80"/><rect width="2" height="1" x="34" y="80"/><rect x="36" y="80" width="2" height="1"/><rect width="2" height="1" x="38" y="80"/><rect x="40" y="80" width="2" height="1"/><rect x="42" y="80" width="1" height="1"/><rect height="2" x="132" y="81" width="1"/><rect x="132" y="83" width="1" height="1"/><rect x="118" y="86" width="1" height="1"/><rect x="135" y="86" width="1" height="1"/><rect x="136" y="87" width="1" height="1"/><rect width="1" height="1" x="120" y="88"/><rect width="1" height="1" x="137" y="88"/><rect x="121" y="89" width="1" height="1"/><rect width="1" height="1" x="138" y="89"/><rect x="122" y="90" width="1" height="1"/><rect width="1" height="1" x="139" y="90"/><rect x="123" y="91" width="1" height="1"/><rect x="140" y="91" width="1" height="1"/><rect x="79" y="100" width="1" height="1"/><rect x="114" y="100" width="1" height="1"/></g><g fill="#ff3001"><rect x="145" y="71" width="1" height="1"/><rect x="134" y="75" width="1" height="9"/><rect y="84" width="1" height="1" x="134"/><rect x="134" y="87" width="1" height="1"/><rect x="134" y="88" width="1" height="1"/><rect x="135" y="88" width="1" height="1"/><rect x="125" y="91" width="1" height="1"/><rect x="126" y="92" width="1" height="1"/><rect y="93" width="1" height="1" x="127"/><rect x="128" y="94" width="1" height="1"/><rect y="94" width="1" height="1" x="141"/></g><g fill="#5978ae"><rect y="87" width="1" height="1" x="42"/><rect width="37" height="1" x="5" y="100"/><rect width="1" height="1" x="42" y="100"/><rect height="1" x="66" y="100" width="12"/><rect x="78" y="100" width="1" height="1"/><rect x="157" y="100" width="12" height="1"/><rect height="1" x="169" y="100" width="1"/></g><g fill="#335b9c"><rect width="1" height="27" y="68"/><rect width="1" height="6" x="42" y="68"/><rect height="31" x="169" y="68" width="1"/><rect height="1" x="42" y="74" width="1"/><rect x="42" y="81" width="1" height="5"/><rect x="42" y="86" width="1" height="1"/><rect x="13" y="87" width="28" height="1"/><rect x="41" y="87" width="1" height="1"/><rect height="5" x="42" y="94" width="1"/><rect y="95" width="1" height="1"/><rect width="1" height="1" x="42" y="99"/><rect x="169" y="99" width="1" height="1"/></g><g fill="#b3c2da"><rect y="68" width="1" height="6" x="94"/><rect x="94" y="74" width="1" height="1"/><rect x="13" y="75" width="1" height="5"/><rect x="13" y="80" width="1" height="1"/><rect x="13" y="88" width="1" height="4"/><rect y="92" width="1" height="1" x="13"/><rect x="2" y="99" width="1" height="1"/></g><g fill="#d1d9e7"><rect width="1" height="31" x="156" y="68"/><rect x="65" y="75" width="1" height="1"/><rect height="1" x="14" y="93" width="28"/><rect x="42" y="93" width="1" height="1"/><rect x="156" y="99" width="1" height="1"/></g><g fill="#164790"><rect x="13" y="74" width="1" height="1"/><rect x="66" y="75" width="1" height="24"/><rect x="78" y="75" width="1" height="1"/><rect x="78" y="76" width="1" height="2"/><rect x="78" y="78" width="1" height="2"/><rect x="78" y="80" width="1" height="2"/><rect y="82" width="1" height="2" x="78"/><rect width="1" height="2" x="78" y="84"/><rect x="78" y="86" width="1" height="2"/><rect y="88" width="1" height="2" x="78"/><rect x="78" y="90" width="1" height="2"/><rect x="78" y="92" width="1" height="2"/><rect x="78" y="94" width="1" height="2"/><rect x="78" y="96" width="1" height="2"/><rect x="1" y="97" width="1" height="1"/><rect height="1" x="78" y="98" width="1"/><rect x="66" y="99" width="1" height="1"/></g><g fill="#e8ebf2"><rect height="24" x="79" y="75" width="1"/><rect x="65" y="76" width="1" height="24"/><rect y="97" width="1" height="1"/><rect x="79" y="99" width="1" height="1"/><rect y="100" width="1" height="1" x="3"/><rect width="1" height="1" x="65" y="100"/><rect x="156" y="100" width="1" height="1"/></g><g fill="#ffae9c"><rect x="133" y="75" width="1" height="1"/><rect x="133" y="100" width="1" height="1"/><rect x="134" y="101" width="1" height="1"/><rect x="135" y="102" width="1" height="1"/></g><g fill="#224f96"><rect height="1" x="1" y="68" width="40"/><rect height="1" x="41" y="68" width="1"/><rect x="51" y="68" width="42" height="1"/><rect x="93" y="68" width="1" height="1"/><rect x="157" y="68" width="11" height="1"/><rect x="168" y="68" width="1" height="1"/><rect height="1" x="14" y="74" width="27"/><rect x="41" y="74" width="1" height="1"/><rect width="14" height="1" x="51" y="74"/><rect x="65" y="74" width="1" height="1"/><rect x="79" y="74" width="14" height="1"/><rect x="93" y="74" width="1" height="1"/><rect width="1" height="1" x="3" y="99"/><rect width="1" height="1" x="78" y="99"/></g><g fill="#ffdad2"><rect width="1" height="32" x="100" y="68"/><rect width="1" height="1" x="143" y="68"/><rect x="146" y="71" width="1" height="1"/><rect x="114" y="75" width="1" height="1"/><rect width="1" height="8" x="133" y="76"/><rect height="1" x="133" y="84" width="1"/><rect y="85" width="1" height="1" x="118"/><rect y="92" width="1" height="1" x="141"/><rect width="1" height="1" x="142" y="93"/><rect x="143" y="94" width="1" height="1"/><rect x="144" y="95" width="1" height="1"/><rect width="1" height="1" x="145" y="96"/><rect x="146" y="97" width="1" height="1"/><rect x="147" y="98" width="1" height="1"/><rect y="99" width="1" height="1" x="148"/><rect y="100" width="1" height="1" x="100"/><rect y="100" width="1" height="1" x="149"/><rect height="1" x="150" y="101" width="1"/></g><g fill="#ff441b"><rect x="101" y="68" width="40" height="1"/><rect x="141" y="68" width="1" height="1"/><rect width="1" height="11" x="146" y="73"/><rect x="114" y="74" width="19" height="1"/><rect x="133" y="74" width="1" height="1"/><rect x="113" y="75" width="1" height="1"/><rect x="113" y="76" width="1" height="2"/><rect width="1" height="2" x="113" y="78"/><rect height="2" x="113" y="80" width="1"/><rect height="2" x="113" y="82" width="1"/><rect y="84" width="1" height="2" x="113"/><rect x="146" y="84" width="1" height="1"/><rect x="113" y="86" width="1" height="2"/><rect x="113" y="88" width="1" height="2"/><rect width="1" height="1" x="136" y="88"/><rect x="136" y="89" width="1" height="1"/><rect x="137" y="89" width="1" height="1"/><rect x="113" y="90" width="1" height="2"/><rect x="138" y="90" width="1" height="1"/><rect y="91" width="1" height="1" x="138"/><rect x="139" y="91" width="1" height="1"/><rect width="1" height="2" x="113" y="92"/><rect x="140" y="92" width="1" height="1"/><rect x="113" y="94" width="1" height="2"/><rect x="142" y="94" width="1" height="1"/><rect x="142" y="95" width="1" height="1"/><rect width="1" height="1" x="143" y="95"/><rect x="113" y="96" width="1" height="2"/><rect height="1" x="144" y="96" width="1"/><rect x="144" y="97" width="1" height="1"/><rect x="145" y="97" width="1" height="1"/><rect height="1" x="113" y="98" width="1"/><rect x="146" y="98" width="1" height="1"/><rect x="147" y="99" width="1" height="1"/><rect height="2" x="148" y="100" width="1"/><rect x="149" y="101" width="1" height="1"/><rect y="102" width="14" height="1" x="136"/><rect width="1" height="1" x="150" y="102"/></g><g fill="#ff6f56"><rect x="142" y="68" width="1" height="1"/><rect x="146" y="72" width="1" height="1"/><rect x="119" y="86" width="1" height="1"/><rect height="1" x="134" y="86" width="1"/><rect x="120" y="87" width="1" height="1"/><rect x="135" y="87" width="1" height="1"/><rect x="141" y="93" width="1" height="1"/><rect x="101" y="100" width="12" height="1"/><rect y="100" width="1" height="1" x="113"/></g><g fill="#ff3401"><rect x="101" y="69" width="42" height="4"/><rect width="1" height="15" x="143" y="69"/><rect width="1" height="14" x="144" y="70"/><rect y="72" width="1" height="12" x="145"/><rect x="101" y="73" width="44" height="1"/><rect x="101" y="74" width="12" height="25"/><rect x="113" y="74" width="1" height="1"/><rect x="134" y="74" width="11" height="1"/><rect x="135" y="75" width="10" height="9"/><rect x="135" y="84" width="10" height="1"/><rect x="145" y="84" width="1" height="1"/><rect x="120" y="86" width="9" height="1"/><rect x="129" y="86" width="2" height="9"/><rect y="86" width="2" height="11" x="131"/><rect x="133" y="86" width="1" height="13"/><rect x="121" y="87" width="11" height="1"/><rect x="122" y="88" width="11" height="1"/><rect height="1" x="123" y="89" width="12"/><rect height="12" x="135" y="89" width="1"/><rect width="13" height="1" x="124" y="90"/><rect width="1" height="11" x="137" y="90"/><rect x="126" y="91" width="11" height="1"/><rect x="127" y="92" width="12" height="1"/><rect x="139" y="92" width="1" height="9"/><rect x="128" y="93" width="12" height="1"/><rect x="140" y="93" width="1" height="8"/><rect x="134" y="94" width="6" height="6"/><rect y="95" width="12" height="1" x="129"/><rect width="1" height="6" x="141" y="95"/><rect width="13" height="1" x="130" y="96"/><rect width="1" height="5" x="143" y="96"/><rect x="131" y="97" width="12" height="1"/><rect x="132" y="98" width="13" height="1"/><rect x="145" y="98" width="1" height="3"/><rect width="12" height="1" x="101" y="99"/><rect width="1" height="1" x="113" y="99"/><rect height="1" x="133" y="99" width="13"/><rect width="1" height="2" x="146" y="99"/><rect width="13" height="1" x="134" y="100"/><rect y="100" width="1" height="1" x="147"/><rect width="13" height="1" x="135" y="101"/></g><g fill="#ff8a7a"><rect width="1" height="1" x="144" y="69"/><rect height="1" x="145" y="70" width="1"/><rect x="119" y="85" width="13" height="1"/><rect x="132" y="85" width="14" height="1"/><rect height="1" x="146" y="85" width="1"/><rect y="88" width="1" height="1" x="121"/><rect x="122" y="89" width="1" height="1"/><rect width="1" height="1" x="123" y="90"/><rect x="124" y="91" width="1" height="1"/><rect x="125" y="92" width="1" height="1"/><rect y="93" width="1" height="1" x="126"/><rect x="127" y="94" width="1" height="1"/><rect x="128" y="95" width="1" height="1"/><rect y="96" width="1" height="1" x="129"/><rect height="1" x="130" y="97" width="1"/><rect x="131" y="98" width="1" height="1"/><rect x="132" y="99" width="1" height="1"/></g></svg>