<?xml version="1.0" encoding="UTF-8" standalone="no"?>
<!-- Created with Inkscape (http://www.inkscape.org/) -->

<svg
   version="1.1"
   id="svg2"
   width="529.25586"
   height="61.055332"
   viewBox="0 0 529.25586 61.055332"
   sodipodi:docname="etri_from_ai.svg"
   xmlns:inkscape="http://www.inkscape.org/namespaces/inkscape"
   xmlns:sodipodi="http://sodipodi.sourceforge.net/DTD/sodipodi-0.dtd"
   xmlns="http://www.w3.org/2000/svg"
   xmlns:svg="http://www.w3.org/2000/svg">
  <defs
     id="defs6" />
  <sodipodi:namedview
     id="namedview4"
     pagecolor="#ffffff"
     bordercolor="#000000"
     borderopacity="0.25"
     inkscape:showpageshadow="2"
     inkscape:pageopacity="0.0"
     inkscape:pagecheckerboard="0"
     inkscape:deskcolor="#d1d1d1" />
  <g
     id="g8"
     inkscape:groupmode="layer"
     inkscape:label="etri_logo"
     transform="matrix(1.3333333,0,0,-1.3333333,-130.192,590.29745)">
    <path
       d="m 342.5098,433.0952 c -0.4004,-0.2265 -0.9473,-0.3398 -1.6407,-0.3398 -0.6933,0 -1.2431,0.1172 -1.6503,0.3496 -0.4063,0.2344 -0.6094,0.5439 -0.6094,0.9306 0,0.3995 0.2031,0.7139 0.6094,0.9405 0.4072,0.2265 0.957,0.3398 1.6503,0.3398 0.6797,0 1.2237,-0.1133 1.6309,-0.3398 0.4063,-0.2266 0.6094,-0.541 0.6094,-0.9405 0,-0.4003 -0.2002,-0.7138 -0.5996,-0.9404 m 0.9804,9.4404 h -5.3007 v -1.8398 h 5.3007 v 1.8398 m 2.3789,-2.7998 h -10.0595 v -1.8603 h 10.0595 v 1.8603 m 5.7207,-2.3398 h -2.2207 v 5.0195 h -2.0996 v -12.9004 h 2.0996 v 5.7608 h 2.2207 v 2.1201 m -7.4404,-1.1904 c -0.7998,0.6064 -1.8994,0.9101 -3.2998,0.9101 -1.3203,0 -2.4062,-0.2998 -3.2598,-0.8994 -0.8535,-0.6006 -1.2802,-1.334 -1.2802,-2.2012 0,-0.7988 0.4228,-1.5097 1.2705,-2.1289 0.8457,-0.6211 1.9297,-0.9306 3.25,-0.9306 1.3994,0 2.5029,0.3066 3.3095,0.9199 0.8067,0.6133 1.21,1.3271 1.21,2.1396 0,0.8536 -0.4004,1.584 -1.2002,2.1905 m 5.7608,-8.9698 h -9.5 v 2.8594 h -2.2207 v -4.8789 h 11.7207 z"
       style="fill:#1c63ab;fill-opacity:1;fill-rule:nonzero;stroke:none"
       id="path10" />
    <path
       d="m 369.2432,433.5562 h -7.1397 v -2.92 h 5.1602 v -5.7988 h -2.0801 v 3.7598 h -9.9805 v 2.039 h 4.7002 v 2.92 h -6.5 v 2.0205 h 11.0801 c 0.1201,0.5595 0.249,1.2197 0.3896,1.9795 0.1407,0.7597 0.2364,1.5078 0.2901,2.2402 h -10 v 2.0205 h 12.4209 c 0,-0.3203 -0.0469,-0.833 -0.1406,-1.54 -0.0938,-0.7071 -0.1797,-1.3008 -0.2598,-1.7803 -0.1211,-0.667 -0.2207,-1.2168 -0.3008,-1.6494 -0.0801,-0.4336 -0.166,-0.8575 -0.2598,-1.2705 h 2.6202 z"
       style="fill:#1c63ab;fill-opacity:1;fill-rule:nonzero;stroke:none"
       id="path12" />
    <path
       d="m 386.3867,429.7222 h -2.0801 v 6.58 h -3.1796 v 2.1192 h 3.1796 v 4.0205 h 2.0801 v -12.7197 m 0.3399,-4.4805 h -11.92 v 5.7402 h 2.0801 v -3.7197 h 9.8399 v -2.0205 m -10.7393,14.1406 h -3.04 v 2.0596 h 8.3203 v -2.0596 h -3.0606 v -0.2597 c 0,-0.7071 0.1299,-1.3477 0.3907,-1.92 0.2597,-0.5742 0.6162,-1.0673 1.0693,-1.4804 0.4531,-0.4141 0.8535,-0.7266 1.2002,-0.9405 0.3467,-0.2138 0.7402,-0.3994 1.1797,-0.5595 l -1.2598,-1.8008 c -0.293,0.1211 -0.5937,0.2676 -0.9004,0.4404 -0.3066,0.1729 -0.6797,0.4336 -1.1191,0.7803 -0.3477,0.2666 -0.6504,0.543 -0.9102,0.8301 -0.2597,0.2861 -0.5097,0.583 -0.75,0.8906 -0.1738,-0.334 -0.3935,-0.6709 -0.6601,-1.0107 -0.2666,-0.3399 -0.5938,-0.6768 -0.9805,-1.0098 -0.4258,-0.374 -0.8301,-0.6738 -1.21,-0.9004 -0.3798,-0.2266 -0.7236,-0.4199 -1.0302,-0.5791 l -1.4795,1.7393 c 0.4531,0.2128 0.9131,0.4736 1.3799,0.7802 0.4668,0.3067 0.9599,0.7071 1.4804,1.1992 0.4121,0.4141 0.7461,0.9278 1,1.5411 0.253,0.6132 0.3799,1.2793 0.3799,2 z"
       style="fill:#1c63ab;fill-opacity:1;fill-rule:nonzero;stroke:none"
       id="path14" />
    <path
       d="m 393.7734,438.6226 h -3.4599 v 2.0195 h 9.1601 v -2.0195 h -3.4795 v -0.7403 c 0,-0.4941 0.086,-1.2578 0.2598,-2.291 0.1729,-1.0332 0.5332,-1.9629 1.0801,-2.7891 0.4922,-0.7207 1.0058,-1.3066 1.539,-1.7597 0.5333,-0.4531 0.9268,-0.7598 1.1807,-0.9199 l -1.3408,-1.7403 c -0.1602,0.1065 -0.4629,0.3223 -0.9102,0.6494 -0.4463,0.3272 -0.8964,0.7637 -1.3496,1.3106 -0.3457,0.4267 -0.6426,0.8525 -0.8896,1.2803 -0.2471,0.4257 -0.4639,0.8457 -0.6494,1.2597 -0.1875,-0.4941 -0.418,-0.9736 -0.6914,-1.4404 -0.2735,-0.4668 -0.6231,-0.96 -1.0489,-1.4795 -0.3613,-0.4404 -0.7207,-0.8203 -1.08,-1.1406 -0.3604,-0.3203 -0.7676,-0.6465 -1.2208,-0.9795 l -1.7197,1.5205 c 0.7061,0.4922 1.3565,1.0459 1.9502,1.6592 0.5938,0.6133 1.0899,1.2861 1.4903,2.0205 0.4394,0.8262 0.746,1.7168 0.9199,2.6699 0.1728,0.9531 0.2597,1.6758 0.2597,2.1699 v 0.7403 m 11.9395,-5.1807 h -2.2393 v -8.5996 h -2.08 v 17.5996 h 2.08 v -6.7998 h 2.2393 z"
       style="fill:#1c63ab;fill-opacity:1;fill-rule:nonzero;stroke:none"
       id="path16" />
    <path
       d="m 418.1133,426.729 c -0.7129,-0.2256 -1.6436,-0.3398 -2.7901,-0.3398 -1.1601,0 -2.0869,0.124 -2.7802,0.3701 -0.6934,0.247 -1.0391,0.5635 -1.0391,0.9502 0,0.4131 0.3496,0.7099 1.0488,0.8896 0.7002,0.1797 1.6309,0.2705 2.7911,0.2705 1.1464,0 2.0722,-0.1006 2.7792,-0.2998 0.7071,-0.2011 1.0606,-0.5 1.0606,-0.9004 0,-0.4004 -0.3574,-0.7129 -1.0703,-0.9404 m 1.9697,3.1104 c -1.1064,0.58 -2.6934,0.8701 -4.7598,0.8701 -2.08,0 -3.663,-0.2764 -4.75,-0.8301 -1.0869,-0.5537 -1.6298,-1.2842 -1.6298,-2.1904 0,-0.8926 0.5527,-1.6328 1.6601,-2.2198 1.1055,-0.5869 2.6797,-0.8798 4.7197,-0.8798 2.0664,0 3.6534,0.2802 4.7598,0.8398 1.1065,0.5605 1.6602,1.2871 1.6602,2.1797 0,0.9062 -0.5537,1.6504 -1.6602,2.2305 m 3.1602,3.6298 h -6.7393 v 1.2998 h 5 v 1.8204 h -9.9609 v 1.0195 h 9.7002 v 1.6807 h -9.7002 v 1.0205 h 9.7402 v 1.8193 h -11.9004 v -7.3604 h 4.7598 v -1.2998 h -6.7393 v -1.9199 h 15.8399 z"
       style="fill:#1c63ab;fill-opacity:1;fill-rule:nonzero;stroke:none"
       id="path18" />
    <path
       d="m 440.0918,429.7222 h -2.0996 v 12.7197 h 2.0996 v -12.7197 m 0.3603,-4.4805 h -11.8798 v 5.5 h 2.1191 v -3.4795 h 9.7607 v -2.0205 m -4.2402,8.8008 -1.2197,-1.7598 c -0.293,0.1192 -0.6875,0.332 -1.1797,0.6387 -0.4941,0.3066 -0.9531,0.6601 -1.3809,1.0605 -0.2929,0.2793 -0.5625,0.5664 -0.8095,0.8594 -0.2471,0.294 -0.4834,0.627 -0.71,1.001 -0.1875,-0.3604 -0.4141,-0.7236 -0.6797,-1.0908 -0.2676,-0.3662 -0.5937,-0.75 -0.9804,-1.1494 -0.4141,-0.4268 -0.837,-0.7969 -1.2696,-1.1104 -0.4336,-0.3135 -0.8174,-0.5625 -1.1504,-0.75 l -1.4599,1.6406 c 0.5195,0.293 1.0556,0.6563 1.6103,1.0899 0.5528,0.4336 1.0567,0.9492 1.5098,1.5498 0.5195,0.667 0.8662,1.3427 1.0391,2.0302 0.1738,0.6856 0.2607,1.3965 0.2607,2.1299 v 1.7803 h 2.2197 v -1.7803 c 0,-0.707 0.0967,-1.3974 0.2901,-2.0703 0.1933,-0.6728 0.5097,-1.2832 0.9502,-1.8291 0.4531,-0.5469 0.9501,-1.0107 1.4902,-1.3906 0.54,-0.3799 1.0293,-0.6641 1.4697,-0.8496 z"
       style="fill:#1c63ab;fill-opacity:1;fill-rule:nonzero;stroke:none"
       id="path20" />
    <path
       d="m 450.2734,439.1421 c 0.3868,-0.4942 0.5801,-1.0801 0.5801,-1.7598 0,-0.667 -0.1933,-1.247 -0.5801,-1.7402 -0.3867,-0.4942 -0.9531,-0.7402 -1.6992,-0.7402 -0.7344,0 -1.2969,0.246 -1.6914,0.7402 -0.3926,0.4932 -0.5898,1.0732 -0.5898,1.7402 0,0.6797 0.1972,1.2656 0.5898,1.7598 0.3945,0.4932 0.957,0.7402 1.6914,0.7402 0.7461,0 1.3125,-0.247 1.6992,-0.7402 m 0.3204,2.2891 c -0.6006,0.3144 -1.2735,0.4707 -2.0196,0.4707 -1.2812,0 -2.3379,-0.4434 -3.1709,-1.3301 -0.833,-0.8867 -1.25,-1.9492 -1.25,-3.1895 0,-1.2402 0.417,-2.3008 1.25,-3.1797 0.833,-0.8808 1.8897,-1.3203 3.1709,-1.3203 0.7598,0 1.4424,0.1631 2.0488,0.4903 0.6075,0.3261 1.1104,0.7558 1.5098,1.289 h 3.8408 v -4.9394 h 2.0801 v 12.7197 h -2.0801 v -2.2598 h -3.8994 c -0.3867,0.5196 -0.8808,0.9366 -1.4804,1.2491 m 2.3896,-4.4395 c 0.007,0.127 0.0107,0.2568 0.0107,0.3906 0,0.1465 -0.008,0.2862 -0.0205,0.4199 -0.0136,0.1329 -0.0263,0.2657 -0.04,0.4004 h 3.04 v -1.58 h -3.0205 c 0.0137,0.1191 0.0235,0.2421 0.0303,0.3691 m 5.4307,-9.7295 h -9.8008 v 3.6201 h -2.1602 v -5.6406 h 11.961 z"
       style="fill:#1c63ab;fill-opacity:1;fill-rule:nonzero;stroke:none"
       id="path22" />
    <path
       d="m 477.2432,432.1753 h -7.2198 v -7.3399 h -2.1406 v 7.3399 h -6.4795 v 2.0205 h 10.9405 c 0.1464,0.4795 0.3095,1.2529 0.4892,2.3193 0.1797,1.0664 0.2959,2.0664 0.3506,3 h -10 v 2.0205 h 12.4004 c 0,-0.2939 -0.0547,-0.9033 -0.1602,-1.83 -0.1074,-0.9268 -0.2148,-1.71 -0.3203,-2.3496 -0.0937,-0.6534 -0.207,-1.2706 -0.3398,-1.8506 -0.1338,-0.5801 -0.2266,-1.0166 -0.2803,-1.3096 h 2.7598 z"
       style="fill:#1c63ab;fill-opacity:1;fill-rule:nonzero;stroke:none"
       id="path24" />
    <path
       d="m 487.1953,440.4331 c 0.3399,-0.3535 0.5098,-0.6836 0.5098,-0.9902 0,-0.2803 -0.166,-0.5899 -0.5,-0.9297 -0.333,-0.3399 -0.8926,-0.5098 -1.6797,-0.5098 -0.7461,0 -1.293,0.1699 -1.6397,0.5098 -0.3466,0.3398 -0.5205,0.6494 -0.5205,0.9297 0,0.3066 0.167,0.6367 0.5,0.9902 0.334,0.3535 0.8868,0.5293 1.6602,0.5293 0.7734,0 1.3301,-0.1758 1.6699,-0.5293 m 7.0303,1.9902 h -2.0801 v -9.9404 h -3.7002 v -1.9199 h 3.7002 v -1.4199 h 2.0801 v 13.2802 m -2.6201,-6.6406 c -0.3867,-0.0937 -1.3028,-0.2031 -2.75,-0.3301 -1.4473,-0.1269 -2.6094,-0.1894 -3.4903,-0.1894 h -5.3994 v -2.0606 h 3.7002 v -2.9589 h 2.1797 v 2.9794 c 0.5469,0 1.4766,0.0567 2.7891,0.17 1.3144,0.1132 2.3037,0.2363 2.9707,0.3701 v 2.0195 m 2.9804,-8.539 h -9.7802 v 2.2988 h -2.2002 v -4.3194 h 11.9804 v 2.0206 m -12.2304,14.4892 c -0.7266,-0.6601 -1.0899,-1.4228 -1.0899,-2.29 0,-0.8799 0.3594,-1.6465 1.0801,-2.2998 0.7197,-0.6534 1.7793,-0.9795 3.1797,-0.9795 1.3867,0 2.4394,0.3222 3.1601,0.9687 0.7198,0.6465 1.0801,1.417 1.0801,2.3106 0,0.8672 -0.3496,1.6299 -1.0508,2.29 -0.6992,0.6602 -1.7627,0.9902 -3.1894,0.9902 -1.3867,0 -2.4434,-0.33 -3.1699,-0.9902 z"
       style="fill:#1c63ab;fill-opacity:1;fill-rule:nonzero;stroke:none"
       id="path26" />
    <path
       d="M 301.8242,442.603 V 399.7969 H 318.875 V 442.603 Z"
       style="fill:#1c63ab;fill-opacity:1;fill-rule:nonzero;stroke:none"
       id="path28" />
    <path
       d="m 163.4097,442.603 v -9.0078 h 19.9365 v -33.7983 h 17.0962 v 33.7983 h 19.9429 v 9.0078 z"
       style="fill:#1c63ab;fill-opacity:1;fill-rule:nonzero;stroke:none"
       id="path30" />
    <path
       d="m 153.3188,433.5952 v 9.0078 H 97.644 v -34.6147 c 0,-4.5156 3.6626,-8.1797 8.1783,-8.1797 h 47.4965 v 9.0137 h -38.5751 v 7.8808 h 38.5751 v 9.0093 h -38.5751 v 7.8828 z"
       style="fill:#1c63ab;fill-opacity:1;fill-rule:nonzero;stroke:none"
       id="path32" />
    <path
       d="m 271.7969,419.7612 h -20.1231 l 23.0801,-22.8296 h 20.125 z"
       style="fill:#f1471d;fill-opacity:1;fill-rule:nonzero;stroke:none"
       id="path34" />
    <path
       d="m 280.7241,442.603 h -51.772 v -42.8061 h 17.0992 v 33.7983 h 25.75 v -13.834 h 17.104 v 14.67 c 0,4.5166 -3.6626,8.1718 -8.1812,8.1718 z"
       style="fill:#f1471d;fill-opacity:1;fill-rule:nonzero;stroke:none"
       id="path36" />
    <path
       d="m 335.6592,419.3179 h 3.8974 v -1.1831 h -2.5722 v -1.8477 h 2.3554 v -1.1836 h -2.3554 v -2.1055 h 2.5918 v -1.1835 h -3.917 z"
       style="fill:#1c63ab;fill-opacity:1;fill-rule:nonzero;stroke:none"
       id="path38" />
    <path
       d="m 340.834,419.8765 h 1.2676 v -8.062 h -1.2676 z"
       style="fill:#1c63ab;fill-opacity:1;fill-rule:nonzero;stroke:none"
       id="path40" />
    <path
       d="m 344.334,415.125 c 0.0566,0.7422 0.416,1.3008 1.126,1.3008 0.7099,0 0.9931,-0.6016 1.0312,-1.3008 h -2.1572 m 3.0078,-1.8262 c -0.4727,-0.3008 -1.002,-0.5605 -1.6172,-0.5605 -0.7851,0 -1.334,0.5058 -1.3906,1.3984 h 3.3672 c 0,1.9356 -0.5098,3.3438 -2.3164,3.3438 -1.5137,0 -2.2618,-1.3223 -2.2618,-2.9239 0,-1.8183 0.9366,-2.8711 2.545,-2.8711 0.6816,0 1.2109,0.1504 1.6738,0.4415 z"
       style="fill:#1c63ab;fill-opacity:1;fill-rule:nonzero;stroke:none"
       id="path42" />
    <path
       d="m 351.8555,416.1582 c -0.2276,0.1172 -0.4737,0.2031 -0.8614,0.2031 -0.7851,0 -1.2871,-0.709 -1.2871,-1.7519 0,-1.0215 0.4258,-1.8067 1.3155,-1.8067 0.3593,0 0.7568,0.1524 0.9736,0.2598 l 0.0576,-1.1934 c -0.3691,-0.1289 -0.7471,-0.1836 -1.2685,-0.1836 -1.5977,0 -2.4024,1.2364 -2.4024,2.9239 0,1.6015 0.832,2.8711 2.3555,2.8711 0.5117,0 0.8799,-0.0645 1.2305,-0.1836 z"
       style="fill:#1c63ab;fill-opacity:1;fill-rule:nonzero;stroke:none"
       id="path44" />
    <path
       d="m 353.3115,416.2969 h -0.9365 v 1.0547 h 0.9365 v 1.1074 l 1.2676,0.4609 v -1.5683 h 1.126 v -1.0547 h -1.126 v -2.5801 c 0,-0.4727 0.1143,-0.9141 0.5967,-0.9141 0.2265,0 0.4433,0.0547 0.5762,0.1524 l 0.038,-1.1406 c -0.2646,-0.086 -0.5576,-0.129 -0.9365,-0.129 -0.9931,0 -1.542,0.6993 -1.542,1.795 z"
       style="fill:#1c63ab;fill-opacity:1;fill-rule:nonzero;stroke:none"
       id="path46" />
    <path
       d="m 356.6035,417.3516 h 1.126 v -1.2578 h 0.0185 c 0.0567,0.5156 0.5772,1.3867 1.334,1.3867 0.1231,0 0.2559,0 0.3877,-0.043 v -1.4512 c -0.1133,0.0742 -0.3408,0.1172 -0.5674,0.1172 -1.0312,0 -1.0312,-1.4609 -1.0312,-2.2578 v -2.0312 h -1.2676 z"
       style="fill:#1c63ab;fill-opacity:1;fill-rule:nonzero;stroke:none"
       id="path48" />
    <path
       d="m 361.0986,414.7168 c 0,0.8281 0.3975,1.6445 1.2198,1.6445 0.833,0 1.2304,-0.7949 1.2304,-1.6445 0,-0.9238 -0.2558,-1.9141 -1.2304,-1.9141 -0.9649,0 -1.2198,1 -1.2198,1.9141 m -1.3242,-0.1719 c 0,-1.5898 0.9365,-2.8594 2.544,-2.8594 1.6181,0 2.5546,1.2696 2.5546,2.8594 0,1.8281 -1.1074,2.9356 -2.5546,2.9356 -1.4375,0 -2.544,-1.1075 -2.544,-2.9356 z"
       style="fill:#1c63ab;fill-opacity:1;fill-rule:nonzero;stroke:none"
       id="path50" />
    <path
       d="m 365.8662,417.3516 h 1.2022 v -0.7539 h 0.0185 c 0.3975,0.6347 0.9365,0.8828 1.5986,0.8828 1.1543,0 1.6553,-0.9258 1.6553,-2.1719 v -3.4941 h -1.2676 v 2.957 c 0,0.6758 -0.009,1.5898 -0.8232,1.5898 -0.918,0 -1.1162,-1.1289 -1.1162,-1.8379 v -2.7089 h -1.2676 z"
       style="fill:#1c63ab;fill-opacity:1;fill-rule:nonzero;stroke:none"
       id="path52" />
    <path
       d="m 371.6748,417.3516 h 1.2676 v -5.5371 h -1.2676 v 5.5371 m 0,2.3862 h 1.2676 v -1.3765 h -1.2676 z"
       style="fill:#1c63ab;fill-opacity:1;fill-rule:nonzero;stroke:none"
       id="path54" />
    <path
       d="m 377.4355,416.1582 c -0.2265,0.1172 -0.4726,0.2031 -0.8603,0.2031 -0.7852,0 -1.2861,-0.709 -1.2861,-1.7519 0,-1.0215 0.4257,-1.8067 1.3144,-1.8067 0.3594,0 0.7569,0.1524 0.9746,0.2598 l 0.0567,-1.1934 c -0.3692,-0.1289 -0.7481,-0.1836 -1.2676,-0.1836 -1.5996,0 -2.4033,1.2364 -2.4033,2.9239 0,1.6015 0.833,2.8711 2.3564,2.8711 0.5098,0 0.8789,-0.0645 1.2285,-0.1836 z"
       style="fill:#1c63ab;fill-opacity:1;fill-rule:nonzero;stroke:none"
       id="path56" />
    <path
       d="m 381.3711,416.1895 c -0.3877,0.1503 -0.6719,0.2363 -1.1348,0.2363 -0.3408,0 -0.748,-0.1387 -0.748,-0.6113 0,-0.8829 2.2051,-0.3223 2.2051,-2.3223 0,-1.291 -1.0127,-1.8067 -2.044,-1.8067 -0.4824,0 -0.9746,0.0977 -1.4385,0.2364 l 0.0762,1.1836 c 0.3975,-0.2266 0.8135,-0.3672 1.249,-0.3672 0.3213,0 0.8321,0.1406 0.8321,0.6777 0,1.086 -2.2041,0.3438 -2.2041,2.3438 0,1.1933 0.9179,1.7207 1.9111,1.7207 0.5957,0 0.9834,-0.1075 1.3809,-0.2051 z"
       style="fill:#1c63ab;fill-opacity:1;fill-rule:nonzero;stroke:none"
       id="path58" />
    <path
       d="m 386.2051,413.416 c 0,0.8496 0.8418,0.957 1.4101,0.957 h 0.5479 c 0,-0.4296 -0.0567,-0.8281 -0.2647,-1.1386 -0.1992,-0.3008 -0.5019,-0.4961 -0.8886,-0.4961 -0.4551,0 -0.8047,0.2051 -0.8047,0.6777 m -0.6436,2.4082 c 0.4258,0.3653 0.9658,0.6016 1.5049,0.6016 0.7471,0 1.0967,-0.3008 1.0967,-1.1934 h -0.7002 c -0.5293,0 -1.1543,-0.0527 -1.6367,-0.3222 -0.4824,-0.2676 -0.8321,-0.752 -0.8321,-1.5801 0,-1.0528 0.8418,-1.6446 1.7032,-1.6446 0.5761,0 1.2109,0.3438 1.5039,0.9571 h 0.0195 c 0.009,-0.1719 0.009,-0.5371 0.0566,-0.8281 h 1.1153 c -0.0274,0.4296 -0.0469,0.8164 -0.0567,1.2363 -0.01,0.4082 -0.0185,0.8281 -0.0185,1.3867 v 0.709 c 0,1.6348 -0.6143,2.334 -2.1006,2.334 -0.5391,0 -1.2012,-0.1621 -1.6934,-0.42 z"
       style="fill:#1c63ab;fill-opacity:1;fill-rule:nonzero;stroke:none"
       id="path60" />
    <path
       d="m 390.5664,417.3516 h 1.2012 v -0.7539 h 0.0195 c 0.3965,0.6347 0.9356,0.8828 1.5977,0.8828 1.1543,0 1.6562,-0.9258 1.6562,-2.1719 v -3.4941 h -1.2676 v 2.957 c 0,0.6758 -0.01,1.5898 -0.8232,1.5898 -0.918,0 -1.1162,-1.1289 -1.1162,-1.8379 v -2.7089 h -1.2676 z"
       style="fill:#1c63ab;fill-opacity:1;fill-rule:nonzero;stroke:none"
       id="path62" />
    <path
       d="m 397.3584,414.5996 c 0,0.7402 0.2275,1.7617 1.0498,1.7617 0.8135,0 1.1348,-0.9883 1.1348,-1.7617 0,-0.7851 -0.2735,-1.7969 -1.1153,-1.7969 -0.833,0 -1.0693,1.0332 -1.0693,1.7969 m 2.2324,-2.7851 h 1.2295 v 8.062 h -1.2676 v -3.1714 h -0.0185 c -0.3779,0.5273 -0.8233,0.7754 -1.4571,0.7754 -1.4951,0 -2.0439,-1.3555 -2.0439,-2.8809 0,-1.5156 0.5488,-2.9141 2.0439,-2.9141 0.5967,0 1.1163,0.2149 1.4952,0.752 h 0.0185 z"
       style="fill:#1c63ab;fill-opacity:1;fill-rule:nonzero;stroke:none"
       id="path64" />
    <path
       d="m 406.0703,418.1348 h -1.8916 v 1.1831 h 5.1084 v -1.1831 h -1.8916 v -6.3203 h -1.3252 z"
       style="fill:#1c63ab;fill-opacity:1;fill-rule:nonzero;stroke:none"
       id="path66" />
    <path
       d="m 409.8652,415.125 c 0.0577,0.7422 0.417,1.3008 1.127,1.3008 0.709,0 0.9922,-0.6016 1.0312,-1.3008 h -2.1582 m 3.0088,-1.8262 c -0.4726,-0.3008 -1.0029,-0.5605 -1.6181,-0.5605 -0.7852,0 -1.333,0.5058 -1.3907,1.3984 h 3.3682 c 0,1.9356 -0.5107,3.3438 -2.3174,3.3438 -1.5137,0 -2.2617,-1.3223 -2.2617,-2.9239 0,-1.8183 0.9375,-2.8711 2.5449,-2.8711 0.6817,0 1.211,0.1504 1.6748,0.4415 z"
       style="fill:#1c63ab;fill-opacity:1;fill-rule:nonzero;stroke:none"
       id="path68" />
    <path
       d="m 414.2559,419.8765 h 1.2675 v -8.062 h -1.2675 z"
       style="fill:#1c63ab;fill-opacity:1;fill-rule:nonzero;stroke:none"
       id="path70" />
    <path
       d="m 417.7559,415.125 c 0.0566,0.7422 0.416,1.3008 1.125,1.3008 0.7099,0 0.9941,-0.6016 1.0312,-1.3008 h -2.1562 m 3.0078,-1.8262 c -0.4727,-0.3008 -1.002,-0.5605 -1.6172,-0.5605 -0.7852,0 -1.334,0.5058 -1.3906,1.3984 h 3.3671 c 0,1.9356 -0.5107,3.3438 -2.3173,3.3438 -1.5137,0 -2.2608,-1.3223 -2.2608,-2.9239 0,-1.8183 0.9356,-2.8711 2.5449,-2.8711 0.6807,0 1.211,0.1504 1.6739,0.4415 z"
       style="fill:#1c63ab;fill-opacity:1;fill-rule:nonzero;stroke:none"
       id="path72" />
    <path
       d="m 425.2764,416.1582 c -0.2276,0.1172 -0.4737,0.2031 -0.8604,0.2031 -0.7851,0 -1.2871,-0.709 -1.2871,-1.7519 0,-1.0215 0.4258,-1.8067 1.3145,-1.8067 0.3593,0 0.7578,0.1524 0.9746,0.2598 l 0.0566,-1.1934 c -0.3691,-0.1289 -0.7471,-0.1836 -1.2676,-0.1836 -1.5986,0 -2.4023,1.2364 -2.4023,2.9239 0,1.6015 0.832,2.8711 2.3555,2.8711 0.5107,0 0.8789,-0.0645 1.2294,-0.1836 z"
       style="fill:#1c63ab;fill-opacity:1;fill-rule:nonzero;stroke:none"
       id="path74" />
    <path
       d="m 427.3291,414.7168 c 0,0.8281 0.3975,1.6445 1.2197,1.6445 0.833,0 1.2305,-0.7949 1.2305,-1.6445 0,-0.9238 -0.2559,-1.9141 -1.2305,-1.9141 -0.9648,0 -1.2197,1 -1.2197,1.9141 m -1.3252,-0.1719 c 0,-1.5898 0.9375,-2.8594 2.5449,-2.8594 1.6182,0 2.5547,1.2696 2.5547,2.8594 0,1.8281 -1.1074,2.9356 -2.5547,2.9356 -1.4375,0 -2.5449,-1.1075 -2.5449,-2.9356 z"
       style="fill:#1c63ab;fill-opacity:1;fill-rule:nonzero;stroke:none"
       id="path76" />
    <path
       d="m 432.0781,417.3516 h 1.1817 v -0.7754 h 0.0195 c 0.3965,0.6777 0.9746,0.9043 1.4473,0.9043 0.6816,0 1.164,-0.291 1.4375,-0.9785 0.2929,0.666 0.9277,0.9785 1.5234,0.9785 1.2012,0 1.542,-0.9356 1.542,-2.1719 v -3.4941 h -1.2676 v 3.3007 c 0,0.5157 0,1.2461 -0.7285,1.2461 -0.8418,0 -0.9463,-1.1386 -0.9463,-1.8593 v -2.6875 h -1.2676 v 3.3007 c 0,0.5157 0,1.2461 -0.7285,1.2461 -0.8418,0 -0.9453,-1.1386 -0.9453,-1.8593 v -2.6875 h -1.2676 z"
       style="fill:#1c63ab;fill-opacity:1;fill-rule:nonzero;stroke:none"
       id="path78" />
    <path
       d="m 440.4883,417.3516 h 1.1816 v -0.7754 h 0.0196 c 0.3964,0.6777 0.9746,0.9043 1.4472,0.9043 0.6807,0 1.1631,-0.291 1.4375,-0.9785 0.293,0.666 0.9278,0.9785 1.5235,0.9785 1.2011,0 1.541,-0.9356 1.541,-2.1719 v -3.4941 h -1.2676 v 3.3007 c 0,0.5157 0,1.2461 -0.7285,1.2461 -0.8418,0 -0.9453,-1.1386 -0.9453,-1.8593 v -2.6875 h -1.2676 v 3.3007 c 0,0.5157 0,1.2461 -0.7285,1.2461 -0.8418,0 -0.9453,-1.1386 -0.9453,-1.8593 v -2.6875 h -1.2676 z"
       style="fill:#1c63ab;fill-opacity:1;fill-rule:nonzero;stroke:none"
       id="path80" />
    <path
       d="m 453.3906,411.8145 h -1.2011 v 0.7519 h -0.0196 c -0.3867,-0.5371 -0.9355,-0.8809 -1.5976,-0.8809 -1.1543,0 -1.6563,0.9239 -1.6563,2.1719 v 3.4942 h 1.2676 v -2.9571 c 0,-0.6777 0.01,-1.5918 0.8232,-1.5918 0.918,0 1.1162,1.1289 1.1162,1.8399 v 2.709 h 1.2676 z"
       style="fill:#1c63ab;fill-opacity:1;fill-rule:nonzero;stroke:none"
       id="path82" />
    <path
       d="m 454.6963,417.3516 h 1.2021 v -0.7539 h 0.0176 c 0.3985,0.6347 0.9375,0.8828 1.5996,0.8828 1.1543,0 1.6553,-0.9258 1.6553,-2.1719 v -3.4941 h -1.2676 v 2.957 c 0,0.6758 -0.009,1.5898 -0.8232,1.5898 -0.918,0 -1.1162,-1.1289 -1.1162,-1.8379 v -2.7089 h -1.2676 z"
       style="fill:#1c63ab;fill-opacity:1;fill-rule:nonzero;stroke:none"
       id="path84" />
    <path
       d="m 460.5049,417.3516 h 1.2676 v -5.5371 h -1.2676 v 5.5371 m 0,2.3862 h 1.2676 v -1.3765 h -1.2676 z"
       style="fill:#1c63ab;fill-opacity:1;fill-rule:nonzero;stroke:none"
       id="path86" />
    <path
       d="m 466.2656,416.1582 c -0.2265,0.1172 -0.4726,0.2031 -0.8613,0.2031 -0.7852,0 -1.2852,-0.709 -1.2852,-1.7519 0,-1.0215 0.4248,-1.8067 1.3145,-1.8067 0.3594,0 0.7568,0.1524 0.9746,0.2598 l 0.0566,-1.1934 c -0.3691,-0.1289 -0.748,-0.1836 -1.2675,-0.1836 -1.5996,0 -2.4034,1.2364 -2.4034,2.9239 0,1.6015 0.8331,2.8711 2.3555,2.8711 0.5108,0 0.8799,-0.0645 1.2295,-0.1836 z"
       style="fill:#1c63ab;fill-opacity:1;fill-rule:nonzero;stroke:none"
       id="path88" />
    <path
       d="m 468.2051,413.416 c 0,0.8496 0.8418,0.957 1.4101,0.957 h 0.5479 c 0,-0.4296 -0.0567,-0.8281 -0.2647,-1.1386 -0.1992,-0.3008 -0.5019,-0.4961 -0.8886,-0.4961 -0.4551,0 -0.8047,0.2051 -0.8047,0.6777 m -0.6436,2.4082 c 0.4258,0.3653 0.9658,0.6016 1.5049,0.6016 0.7471,0 1.0967,-0.3008 1.0967,-1.1934 h -0.7002 c -0.5293,0 -1.1543,-0.0527 -1.6367,-0.3222 -0.4824,-0.2676 -0.8321,-0.752 -0.8321,-1.5801 0,-1.0528 0.8418,-1.6446 1.7032,-1.6446 0.5761,0 1.2109,0.3438 1.5039,0.9571 h 0.0195 c 0.009,-0.1719 0.009,-0.5371 0.0566,-0.8281 h 1.1153 c -0.0274,0.4296 -0.0469,0.8164 -0.0567,1.2363 -0.01,0.4082 -0.0185,0.8281 -0.0185,1.3867 v 0.709 c 0,1.6348 -0.6143,2.334 -2.1006,2.334 -0.5391,0 -1.2012,-0.1621 -1.6934,-0.42 z"
       style="fill:#1c63ab;fill-opacity:1;fill-rule:nonzero;stroke:none"
       id="path90" />
    <path
       d="m 472.9824,416.2969 h -0.9365 v 1.0547 h 0.9365 v 1.1074 l 1.2676,0.4609 v -1.5683 h 1.125 v -1.0547 h -1.125 v -2.5801 c 0,-0.4727 0.1133,-0.9141 0.5957,-0.9141 0.2266,0 0.4453,0.0547 0.5772,0.1524 l 0.038,-1.1406 c -0.2656,-0.086 -0.5586,-0.129 -0.9365,-0.129 -0.9931,0 -1.542,0.6993 -1.542,1.795 z"
       style="fill:#1c63ab;fill-opacity:1;fill-rule:nonzero;stroke:none"
       id="path92" />
    <path
       d="m 476.2744,417.3516 h 1.2676 v -5.5371 h -1.2676 v 5.5371 m 0,2.3862 h 1.2676 v -1.3765 h -1.2676 z"
       style="fill:#1c63ab;fill-opacity:1;fill-rule:nonzero;stroke:none"
       id="path94" />
    <path
       d="m 479.8887,414.7168 c 0,0.8281 0.3965,1.6445 1.2197,1.6445 0.833,0 1.2295,-0.7949 1.2295,-1.6445 0,-0.9238 -0.2549,-1.9141 -1.2295,-1.9141 -0.9648,0 -1.2197,1 -1.2197,1.9141 m -1.3252,-0.1719 c 0,-1.5898 0.9365,-2.8594 2.5449,-2.8594 1.6182,0 2.5537,1.2696 2.5537,2.8594 0,1.8281 -1.1064,2.9356 -2.5537,2.9356 -1.4385,0 -2.5449,-1.1075 -2.5449,-2.9356 z"
       style="fill:#1c63ab;fill-opacity:1;fill-rule:nonzero;stroke:none"
       id="path96" />
    <path
       d="m 484.6563,417.3516 h 1.2011 v -0.7539 h 0.0186 c 0.3974,0.6347 0.9365,0.8828 1.5986,0.8828 1.1543,0 1.6563,-0.9258 1.6563,-2.1719 v -3.4941 h -1.2676 v 2.957 c 0,0.6758 -0.01,1.5898 -0.8242,1.5898 -0.917,0 -1.1153,-1.1289 -1.1153,-1.8379 v -2.7089 h -1.2675 z"
       style="fill:#1c63ab;fill-opacity:1;fill-rule:nonzero;stroke:none"
       id="path98" />
    <path
       d="m 493.3301,416.1895 c -0.3867,0.1503 -0.6719,0.2363 -1.1348,0.2363 -0.3398,0 -0.7471,-0.1387 -0.7471,-0.6113 0,-0.8829 2.2041,-0.3223 2.2041,-2.3223 0,-1.291 -1.0117,-1.8067 -2.0429,-1.8067 -0.4824,0 -0.9746,0.0977 -1.4385,0.2364 l 0.0752,1.1836 c 0.3984,-0.2266 0.8144,-0.3672 1.249,-0.3672 0.3213,0 0.833,0.1406 0.833,0.6777 0,1.086 -2.2051,0.3438 -2.2051,2.3438 0,1.1933 0.918,1.7207 1.9122,1.7207 0.5957,0 0.9834,-0.1075 1.3808,-0.2051 z"
       style="fill:#1c63ab;fill-opacity:1;fill-rule:nonzero;stroke:none"
       id="path100" />
    <path
       d="m 336.8701,406.1348 h 0.4346 c 0.6631,0 1.4004,-0.0743 1.4004,-0.9766 0,-0.9355 -0.7471,-1.043 -1.4004,-1.043 h -0.4346 v 2.0196 m -1.3242,-6.3203 h 1.3242 v 3.1171 h 0.4258 c 0.5576,0 0.7285,-0.2148 0.917,-0.7734 l 0.7949,-2.3437 h 1.4766 l -1.0606,2.9355 c -0.1318,0.332 -0.3398,0.7422 -0.6992,0.7734 v 0.0215 c 0.8418,0.1289 1.3613,0.8594 1.3613,1.7422 0,2.084 -1.6933,2.0313 -3.1113,2.0313 h -1.4287 z"
       style="fill:#1c63ab;fill-opacity:1;fill-rule:nonzero;stroke:none"
       id="path102" />
    <path
       d="m 342.2246,403.125 c 0.0567,0.7422 0.416,1.3008 1.125,1.3008 0.71,0 0.9942,-0.6016 1.0313,-1.3008 h -2.1563 m 3.0078,-1.8262 c -0.4726,-0.3008 -1.0019,-0.5605 -1.6172,-0.5605 -0.7851,0 -1.3339,0.5058 -1.3906,1.3984 h 3.3672 c 0,1.9356 -0.5098,3.3438 -2.3174,3.3438 -1.5137,0 -2.2607,-1.3223 -2.2607,-2.9239 0,-1.8183 0.9365,-2.8711 2.5449,-2.8711 0.6807,0 1.2109,0.1504 1.6738,0.4415 z"
       style="fill:#1c63ab;fill-opacity:1;fill-rule:nonzero;stroke:none"
       id="path104" />
    <path
       d="m 349.4805,404.1895 c -0.3887,0.1503 -0.6719,0.2363 -1.1348,0.2363 -0.3418,0 -0.748,-0.1387 -0.748,-0.6113 0,-0.8829 2.2041,-0.3223 2.2041,-2.3223 0,-1.291 -1.0127,-1.8067 -2.043,-1.8067 -0.4834,0 -0.9746,0.0977 -1.4385,0.2364 l 0.0762,1.1836 c 0.3965,-0.2266 0.8135,-0.3672 1.248,-0.3672 0.3223,0 0.833,0.1406 0.833,0.6777 0,1.086 -2.2041,0.3438 -2.2041,2.3438 0,1.1933 0.918,1.7207 1.9102,1.7207 0.5967,0 0.9844,-0.1075 1.3818,-0.2051 z"
       style="fill:#1c63ab;fill-opacity:1;fill-rule:nonzero;stroke:none"
       id="path106" />
    <path
       d="m 351.6846,403.125 c 0.0566,0.7422 0.416,1.3008 1.1259,1.3008 0.709,0 0.9922,-0.6016 1.0313,-1.3008 h -2.1572 m 3.0078,-1.8262 c -0.4727,-0.3008 -1.0029,-0.5605 -1.6172,-0.5605 -0.7861,0 -1.334,0.5058 -1.3906,1.3984 h 3.3681 c 0,1.9356 -0.5117,3.3438 -2.3183,3.3438 -1.5137,0 -2.2608,-1.3223 -2.2608,-2.9239 0,-1.8183 0.9366,-2.8711 2.544,-2.8711 0.6816,0 1.2109,0.1504 1.6748,0.4415 z"
       style="fill:#1c63ab;fill-opacity:1;fill-rule:nonzero;stroke:none"
       id="path108" />
    <path
       d="m 356.9434,401.416 c 0,0.8496 0.8427,0.957 1.4101,0.957 h 0.5488 c 0,-0.4296 -0.0566,-0.8281 -0.2656,-1.1386 -0.1972,-0.3008 -0.5,-0.4961 -0.8887,-0.4961 -0.4541,0 -0.8046,0.2051 -0.8046,0.6777 m -0.6426,2.4082 c 0.4258,0.3653 0.9648,0.6016 1.5039,0.6016 0.748,0 1.0976,-0.3008 1.0976,-1.1934 h -0.7002 c -0.5302,0 -1.1533,-0.0527 -1.6357,-0.3222 -0.4834,-0.2676 -0.833,-0.752 -0.833,-1.5801 0,-1.0528 0.8418,-1.6446 1.7021,-1.6446 0.5782,0 1.211,0.3438 1.504,0.9571 h 0.0195 c 0.01,-0.1719 0.01,-0.5371 0.0566,-0.8281 h 1.1172 c -0.0293,0.4296 -0.0478,0.8164 -0.0576,1.2363 -0.009,0.4082 -0.0186,0.8281 -0.0186,1.3867 v 0.709 c 0,1.6348 -0.6152,2.334 -2.1005,2.334 -0.5391,0 -1.2012,-0.1621 -1.6924,-0.42 z"
       style="fill:#1c63ab;fill-opacity:1;fill-rule:nonzero;stroke:none"
       id="path110" />
    <path
       d="m 361.334,405.3516 h 1.125 v -1.2578 h 0.0195 c 0.0567,0.5156 0.5762,1.3867 1.334,1.3867 0.123,0 0.2549,0 0.3867,-0.043 v -1.4512 c -0.1133,0.0742 -0.3398,0.1172 -0.5664,0.1172 -1.0312,0 -1.0312,-1.4609 -1.0312,-2.2578 v -2.0312 h -1.2676 z"
       style="fill:#1c63ab;fill-opacity:1;fill-rule:nonzero;stroke:none"
       id="path112" />
    <path
       d="m 367.9766,404.1582 c -0.2276,0.1172 -0.4737,0.2031 -0.8614,0.2031 -0.7851,0 -1.2871,-0.709 -1.2871,-1.7519 0,-1.0215 0.4258,-1.8067 1.3155,-1.8067 0.3593,0 0.7568,0.1524 0.9746,0.2598 l 0.0566,-1.1934 c -0.3691,-0.1289 -0.7471,-0.1836 -1.2676,-0.1836 -1.5986,0 -2.4033,1.2364 -2.4033,2.9239 0,1.6015 0.833,2.8711 2.3555,2.8711 0.5117,0 0.8808,-0.0645 1.2304,-0.1836 z"
       style="fill:#1c63ab;fill-opacity:1;fill-rule:nonzero;stroke:none"
       id="path114" />
    <path
       d="m 369.0166,407.877 h 1.2676 v -3.2793 h 0.0185 c 0.3223,0.539 0.8711,0.8828 1.5332,0.8828 1.1543,0 1.6553,-0.9258 1.6553,-2.1719 v -3.4941 h -1.2676 v 2.957 c 0,0.6758 -0.01,1.5898 -0.8232,1.5898 -0.918,0 -1.1162,-1.1289 -1.1162,-1.8379 v -2.7089 h -1.2676 z"
       style="fill:#1c63ab;fill-opacity:1;fill-rule:nonzero;stroke:none"
       id="path116" />
    <path
       d="m 377.4258,407.3184 h 1.3252 v -7.5039 h -1.3252 z"
       style="fill:#1c63ab;fill-opacity:1;fill-rule:nonzero;stroke:none"
       id="path118" />
    <path
       d="m 380.0566,405.3516 h 1.2012 v -0.7539 h 0.0186 c 0.3974,0.6347 0.9365,0.8828 1.5986,0.8828 1.1543,0 1.6563,-0.9258 1.6563,-2.1719 v -3.4941 h -1.2676 v 2.957 c 0,0.6758 -0.01,1.5898 -0.8242,1.5898 -0.917,0 -1.1153,-1.1289 -1.1153,-1.8379 v -2.7089 h -1.2676 z"
       style="fill:#1c63ab;fill-opacity:1;fill-rule:nonzero;stroke:none"
       id="path120" />
    <path
       d="m 388.7305,404.1895 c -0.3867,0.1503 -0.6709,0.2363 -1.1348,0.2363 -0.3398,0 -0.7471,-0.1387 -0.7471,-0.6113 0,-0.8829 2.2041,-0.3223 2.2041,-2.3223 0,-1.291 -1.0117,-1.8067 -2.0429,-1.8067 -0.4825,0 -0.9746,0.0977 -1.4385,0.2364 l 0.0752,1.1836 c 0.3984,-0.2266 0.8144,-0.3672 1.25,-0.3672 0.3203,0 0.832,0.1406 0.832,0.6777 0,1.086 -2.2051,0.3438 -2.2051,2.3438 0,1.1933 0.918,1.7207 1.9121,1.7207 0.5958,0 0.9834,-0.1075 1.3809,-0.2051 z"
       style="fill:#1c63ab;fill-opacity:1;fill-rule:nonzero;stroke:none"
       id="path122" />
    <path
       d="m 390.4531,404.2969 h -0.9375 v 1.0547 h 0.9375 v 1.1074 l 1.2676,0.4609 v -1.5683 h 1.125 v -1.0547 h -1.125 v -2.5801 c 0,-0.4727 0.1133,-0.9141 0.5957,-0.9141 0.2266,0 0.4443,0.0547 0.5762,0.1524 l 0.039,-1.1406 c -0.2656,-0.086 -0.5586,-0.129 -0.9375,-0.129 -0.9921,0 -1.541,0.6993 -1.541,1.795 z"
       style="fill:#1c63ab;fill-opacity:1;fill-rule:nonzero;stroke:none"
       id="path124" />
    <path
       d="m 393.7441,405.3516 h 1.2676 v -5.5371 h -1.2676 v 5.5371 m 0,2.3867 h 1.2676 v -1.377 h -1.2676 z"
       style="fill:#1c63ab;fill-opacity:1;fill-rule:nonzero;stroke:none"
       id="path126" />
    <path
       d="m 396.7617,404.2969 h -0.9355 v 1.0547 h 0.9355 v 1.1074 l 1.2676,0.4609 v -1.5683 h 1.127 v -1.0547 h -1.127 v -2.5801 c 0,-0.4727 0.1143,-0.9141 0.5967,-0.9141 0.2275,0 0.4443,0.0547 0.5771,0.1524 l 0.0371,-1.1406 c -0.2636,-0.086 -0.5576,-0.129 -0.9355,-0.129 -0.9942,0 -1.543,0.6993 -1.543,1.795 z"
       style="fill:#1c63ab;fill-opacity:1;fill-rule:nonzero;stroke:none"
       id="path128" />
    <path
       d="m 404.5,399.8145 h -1.2012 v 0.7519 h -0.0185 c -0.3877,-0.5371 -0.9365,-0.8809 -1.5987,-0.8809 -1.1543,0 -1.6562,0.9239 -1.6562,2.1719 v 3.4942 h 1.2676 v -2.9571 c 0,-0.6777 0.01,-1.5918 0.8242,-1.5918 0.917,0 1.1152,1.1289 1.1152,1.8399 v 2.709 H 404.5 Z"
       style="fill:#1c63ab;fill-opacity:1;fill-rule:nonzero;stroke:none"
       id="path130" />
    <path
       d="m 406.2227,404.2969 h -0.9375 v 1.0547 h 0.9375 v 1.1074 l 1.2675,0.4609 v -1.5683 h 1.125 v -1.0547 h -1.125 v -2.5801 c 0,-0.4727 0.1133,-0.9141 0.5957,-0.9141 0.2266,0 0.4444,0.0547 0.5772,0.1524 l 0.0381,-1.1406 c -0.2657,-0.086 -0.5586,-0.129 -0.9375,-0.129 -0.9922,0 -1.541,0.6993 -1.541,1.795 z"
       style="fill:#1c63ab;fill-opacity:1;fill-rule:nonzero;stroke:none"
       id="path132" />
    <path
       d="m 410.3848,403.125 c 0.0566,0.7422 0.416,1.3008 1.125,1.3008 0.7099,0 0.9941,-0.6016 1.0312,-1.3008 h -2.1562 m 3.0078,-1.8262 c -0.4727,-0.3008 -1.002,-0.5605 -1.6172,-0.5605 -0.7852,0 -1.334,0.5058 -1.3906,1.3984 h 3.3672 c 0,1.9356 -0.5108,3.3438 -2.3174,3.3438 -1.5137,0 -2.2608,-1.3223 -2.2608,-2.9239 0,-1.8183 0.9366,-2.8711 2.545,-2.8711 0.6806,0 1.2109,0.1504 1.6738,0.4415 z"
       style="fill:#1c63ab;fill-opacity:1;fill-rule:nonzero;stroke:none"
       id="path134" />
  </g>
</svg>
