<svg xmlns="http://www.w3.org/2000/svg" viewBox="0 0 592 227.38095"><defs><style>.cls-1{fill:#0066a6;}.cls-2{fill:#f15a22;}</style></defs><title>etri</title><rect class="cls-1" x="536.69069" y="10.71429" width="43.86329" height="110.1129"/><polygon class="cls-1" points="180.64 10.714 180.64 33.884 231.926 33.884 231.926 120.827 275.902 120.827 275.902 33.884 327.204 33.884 327.204 10.714 180.64 10.714"/><path class="cls-1" d="M154.68494,33.88445V10.71429H11.46793V99.756a21.0441,21.0441,0,0,0,21.03729,21.04114H154.68494V97.61317H55.453V77.33948h99.23194V54.16431H55.453V33.88445Z"/><polygon class="cls-2" points="459.452 69.472 407.688 69.472 467.059 128.199 518.827 128.199 459.452 69.472"/><path class="cls-2" d="M482.41489,10.71429h-133.175v110.1129h43.98636V33.88445h66.23831V69.47164h43.99639V31.73408A21.02618,21.02618,0,0,0,482.41489,10.71429Z"/><path class="cls-1" d="M11.49056,148.49011h14.05v4.26175H16.26474v6.66577h8.49072v4.26176H16.26474v7.59529h9.34359v4.26291H11.49056Z"/><path class="cls-1" d="M30.14392,146.47415h4.56941v29.06344H30.14392Z"/><path class="cls-1" d="M42.762,163.60274c.20348-2.6741,1.49982-4.68879,4.057-4.68879s3.5797,2.16916,3.71539,4.68879Zm10.84212,6.58666a10.84643,10.84643,0,0,1-5.83051,2.01594c-2.831,0-4.80813-1.82123-5.01161-5.038H54.90032c0-6.97469-1.84129-12.05163-8.35516-12.05163-5.4561,0-8.14911,4.76671-8.14911,10.54064,0,6.549,3.37623,10.346,9.17407,10.346a10.90437,10.90437,0,0,0,6.034-1.589Z"/><path class="cls-1" d="M69.87237,159.88245a6.22974,6.22974,0,0,0-3.105-.73607c-2.82857,0-4.63733,2.5573-4.63733,6.31656,0,3.68015,1.53493,6.51,4.74035,6.51a8.73729,8.73729,0,0,0,3.51192-.93068l.20348,4.30189a13.21917,13.21917,0,0,1-4.567.65827c-5.76273,0-8.66165-4.45649-8.66165-10.53948,0-5.77392,2.99937-10.3472,8.49085-10.3472a13.187,13.187,0,0,1,4.43128.65943Z"/><path class="cls-1" d="M75.12256,159.37879H71.74633v-3.79835h3.37623v-3.99038L79.692,149.9233v5.65714h4.057v3.79835H79.692v9.2996c0,1.70572.40951,3.29455,2.14792,3.29455a3.69635,3.69635,0,0,0,2.07988-.54251l.13569,4.10716a10.65078,10.65078,0,0,1-3.37622.46483c-3.5797,0-5.55669-2.51847-5.55669-6.47116Z"/><path class="cls-1" d="M86.98964,155.58044h4.057v4.5343h.06778c.20592-1.8602,2.08-4.999,4.80813-4.999a4.39559,4.39559,0,0,1,1.39923.15575v5.23142a4.1779,4.1779,0,0,0-2.04734-.42714c-3.718,0-3.718,5.27037-3.718,8.13792v7.3239H86.98964Z"/><path class="cls-1" d="M103.19243,165.0749c0-2.98317,1.4319-5.92852,4.39861-5.92852,3.00194,0,4.43385,2.86754,4.43385,5.92852,0,3.33224-.91936,6.898-4.43385,6.898C104.11192,171.97294,103.19243,168.36816,103.19243,165.0749Zm-4.77289.62045c0,5.73508,3.37622,10.30707,9.1715,10.30707,5.83051,0,9.20674-4.572,9.20674-10.30707,0-6.58794-3.98909-10.57961-9.20674-10.57961C102.40863,155.11574,98.41954,159.10741,98.41954,165.69535Z"/><path class="cls-1" d="M120.38005,155.58044h4.33083v2.71307h.06534a6.32254,6.32254,0,0,1,5.76517-3.17777c4.16,0,5.96621,3.33224,5.96621,7.82757v12.59428h-4.567V164.88146c0-2.44182-.03524-5.73508-2.96928-5.73508-3.30587,0-4.02433,4.06832-4.02433,6.62563v9.76558h-4.567Z"/><path class="cls-1" d="M141.3156,155.58044h4.572v19.95715h-4.572Zm0-8.60262h4.572V151.938h-4.572Z"/><path class="cls-1" d="M162.08549,159.88245a6.229,6.229,0,0,0-3.105-.73607c-2.82856,0-4.63731,2.5573-4.63731,6.31656,0,3.68015,1.53492,6.51,4.74034,6.51a8.73659,8.73659,0,0,0,3.51191-.93068l.20348,4.30189a13.21911,13.21911,0,0,1-4.567.65827c-5.76273,0-8.66166-4.45649-8.66166-10.53948,0-5.77392,2.99937-10.3472,8.49085-10.3472a13.1866,13.1866,0,0,1,4.43129.65943Z"/><path class="cls-1" d="M176.2686,159.76554a10.02138,10.02138,0,0,0-4.08967-.85159c-1.23088,0-2.69545.50368-2.69545,2.20813,0,3.17777,7.94577,1.16309,7.94577,8.37021,0,4.64993-3.64761,6.51013-7.36545,6.51013a18.185,18.185,0,0,1-5.18485-.85287l.2737-4.26176a9.09576,9.09576,0,0,0,4.50163,1.31755c1.15808,0,3.00195-.50365,3.00195-2.44167,0-3.91385-7.94821-1.23975-7.94821-8.44815,0-4.3006,3.30844-6.19978,6.88814-6.19978a18.69979,18.69979,0,0,1,4.97893.73608Z"/><path class="cls-1" d="M193.69493,169.76367c0-3.061,3.03449-3.44915,5.08183-3.44915h1.97455a7.28487,7.28487,0,0,1-.95461,4.10858,3.74085,3.74085,0,0,1-3.20542,1.78224C194.9559,172.20534,193.69493,171.46928,193.69493,169.76367Zm-2.31872-8.68056a8.51354,8.51354,0,0,1,5.42112-2.16916c2.69288,0,3.954,1.08529,3.954,4.30075h-2.5222a12.42359,12.42359,0,0,0-5.8983,1.16309c-1.7384.96835-3.002,2.71178-3.002,5.69611a5.88013,5.88013,0,0,0,6.137,5.92852,6.1524,6.1524,0,0,0,5.42357-3.44915h.06778a27.85268,27.85268,0,0,0,.20605,2.98432h4.02433c-.10547-1.55-.1708-2.94535-.206-4.45637-.03512-1.472-.06779-2.98315-.06779-4.999v-2.55733c0-5.88954-2.21814-8.40917-7.57136-8.40917a14.13947,14.13947,0,0,0-6.1019,1.511Z"/><path class="cls-1" d="M209.413,155.58044h4.3307v2.71307h.07036a6.31881,6.31881,0,0,1,5.76273-3.17777c4.16,0,5.96865,3.33224,5.96865,7.82757v12.59428h-4.572V164.88146c0-2.44182-.03266-5.73508-2.96425-5.73508-3.30832,0-4.02434,4.06832-4.02434,6.62563v9.76558H209.413Z"/><path class="cls-1" d="M233.90056,165.50062c0-2.67282.81647-6.35424,3.78317-6.35424,2.93417,0,4.09225,3.56465,4.09225,6.35424,0,2.82986-.98727,6.47232-4.02434,6.47232C234.7497,171.97294,233.90056,168.25267,233.90056,165.50062Zm8.04622,10.037h4.43372V146.47415h-4.57185v11.43248h-.06534a5.99124,5.99124,0,0,0-5.25277-2.79089c-5.38845,0-7.36544,4.8835-7.36544,10.38488,0,5.46383,1.977,10.5018,7.36544,10.5018a6.213,6.213,0,0,0,5.38833-2.71178h.06791Z"/><path class="cls-1" d="M265.30653,152.75186h-6.82281v-4.26175h18.416v4.26175h-6.82036v22.78573h-4.77288Z"/><path class="cls-1" d="M278.9848,163.60274c.20348-2.6741,1.49969-4.68879,4.05687-4.68879s3.58228,2.16916,3.718,4.68879Zm10.84457,6.58666a10.8624,10.8624,0,0,1-5.83309,2.01594c-2.82857,0-4.808-1.82123-5.01148-5.038h12.14078c0-6.97469-1.84387-12.05163-8.35516-12.05163-5.45624,0-8.14911,4.76671-8.14911,10.54064,0,6.549,3.37622,10.346,9.17149,10.346a10.9194,10.9194,0,0,0,6.03657-1.589Z"/><path class="cls-1" d="M294.80831,146.47415h4.5694v29.06344h-4.5694Z"/><path class="cls-1" d="M307.42393,163.60274c.20592-2.6741,1.50213-4.68879,4.05945-4.68879s3.57971,2.16916,3.718,4.68879Zm10.84457,6.58666a10.86089,10.86089,0,0,1-5.83051,2.01594c-2.83115,0-4.80814-1.82123-5.01406-5.038h12.14079c0-6.97469-1.84131-12.05163-8.35517-12.05163-5.45366,0-8.1491,4.76671-8.1491,10.54064,0,6.549,3.37622,10.346,9.17161,10.346a10.90718,10.90718,0,0,0,6.03644-1.589Z"/><path class="cls-1" d="M334.53418,159.88245a6.21141,6.21141,0,0,0-3.10239-.73607c-2.83115,0-4.63733,2.5573-4.63733,6.31656,0,3.68015,1.53493,6.51,4.74035,6.51a8.72422,8.72422,0,0,0,3.51179-.93068l.206,4.30189a13.24923,13.24923,0,0,1-4.572.65827c-5.76274,0-8.66166-4.45649-8.66166-10.53948,0-5.77392,3.002-10.3472,8.49085-10.3472a13.20736,13.20736,0,0,1,4.43631.65943Z"/><path class="cls-1" d="M341.93474,165.0749c0-2.98317,1.4319-5.92852,4.39861-5.92852,3.002,0,4.43385,2.86754,4.43385,5.92852,0,3.33224-.92192,6.898-4.43385,6.898C342.85423,171.97294,341.93474,168.36816,341.93474,165.0749Zm-4.77289.62045c0,5.73508,3.37623,10.30707,9.1715,10.30707,5.83051,0,9.20674-4.572,9.20674-10.30707,0-6.58794-3.98909-10.57961-9.20674-10.57961C341.15094,155.11574,337.16185,159.10741,337.16185,165.69535Z"/><path class="cls-1" d="M359.052,155.58044h4.263v2.79088h.06778a6.02175,6.02175,0,0,1,5.21754-3.25558,5.09175,5.09175,0,0,1,5.18239,3.527,5.92133,5.92133,0,0,1,5.49148-3.527c4.33071,0,5.55913,3.3712,5.55913,7.82757v12.59428H380.264V163.64171c0-1.86021,0-4.49533-2.62767-4.49533-3.0346,0-3.40888,4.10715-3.40888,6.70344v9.68777H369.658V163.64171c0-1.86021,0-4.49533-2.62509-4.49533-3.03705,0-3.4089,4.10715-3.4089,6.70344v9.68777h-4.572Z"/><path class="cls-1" d="M389.36768,155.58044h4.26305v2.79088h.06777a6.02176,6.02176,0,0,1,5.21753-3.25558,5.09175,5.09175,0,0,1,5.1824,3.527,5.92159,5.92159,0,0,1,5.49148-3.527c4.33083,0,5.55669,3.3712,5.55669,7.82757v12.59428h-4.567V163.64171c0-1.86021,0-4.49533-2.62767-4.49533-3.03449,0-3.40889,4.10715-3.40889,6.70344v9.68777h-4.56942V163.64171c0-1.86021,0-4.49533-2.62767-4.49533-3.03448,0-3.40876,4.10715-3.40876,6.70344v9.68777h-4.56954Z"/><path class="cls-1" d="M435.88125,175.53759h-4.33083v-2.71294h-.06778a7.0489,7.0489,0,0,1-5.76531,3.17777c-4.15989,0-5.96607-3.33237-5.96607-7.8277V155.58044h4.56941V166.238c0,2.4404.03511,5.73495,2.9667,5.73495,3.30845,0,4.02434-4.06947,4.02434-6.6268v-9.7657h4.56954Z"/><path class="cls-1" d="M440.58636,155.58044h4.33084v2.71307h.06777a6.31883,6.31883,0,0,1,5.76273-3.17777c4.15989,0,5.96865,3.33224,5.96865,7.82757v12.59428h-4.56941V164.88146c0-2.44182-.03267-5.73508-2.96684-5.73508-3.30587,0-4.02433,4.06832-4.02433,6.62563v9.76558h-4.56941Z"/><path class="cls-1" d="M461.52448,155.58044h4.56942v19.95715h-4.56942Zm0-8.60262h4.56942V151.938h-4.56942Z"/><path class="cls-1" d="M482.2918,159.88245a6.21909,6.21909,0,0,0-3.1024-.73607c-2.83114,0-4.63731,2.5573-4.63731,6.31656,0,3.68015,1.53234,6.51,4.73776,6.51a8.72436,8.72436,0,0,0,3.51181-.93068l.206,4.30189a13.23376,13.23376,0,0,1-4.56942.65827c-5.76272,0-8.66165-4.45649-8.66165-10.53948,0-5.77392,3.00194-10.3472,8.49085-10.3472a13.1911,13.1911,0,0,1,4.43372.65943Z"/><path class="cls-1" d="M489.28284,169.76367c0-3.061,3.03461-3.44915,5.07938-3.44915h1.97956a7.32605,7.32605,0,0,1-.9546,4.10858,3.75021,3.75021,0,0,1-3.20541,1.78224C490.54394,172.20534,489.28284,171.46928,489.28284,169.76367Zm-2.32117-8.68056a8.53086,8.53086,0,0,1,5.42356-2.16916c2.69545,0,3.95655,1.08529,3.95655,4.30075h-2.52464a12.43932,12.43932,0,0,0-5.90087,1.16309c-1.73839.96835-2.99937,2.71178-2.99937,5.69611a5.87941,5.87941,0,0,0,6.13947,5.92852,6.14888,6.14888,0,0,0,5.42111-3.44915h.06778a27.1012,27.1012,0,0,0,.20347,2.98432h4.02433c-.10045-1.55-.1708-2.94535-.20347-4.45637-.03267-1.472-.06778-2.98315-.06778-4.999v-2.55733c0-5.88954-2.21571-8.40917-7.57148-8.40917a14.14925,14.14925,0,0,0-6.10421,1.511Z"/><path class="cls-1" d="M506.50313,159.37879H503.1269v-3.79835h3.37623v-3.99038l4.56941-1.66676v5.65714h4.05957v3.79835h-4.05957v9.2996c0,1.70572.40952,3.29455,2.1478,3.29455a3.6965,3.6965,0,0,0,2.08-.54251l.13815,4.10716a10.67205,10.67205,0,0,1-3.37623.46483c-3.58215,0-5.55914-2.51847-5.55914-6.47116Z"/><path class="cls-1" d="M518.37007,155.58044h4.56955v19.95715h-4.56955Zm0-8.60262h4.56955V151.938h-4.56955Z"/><path class="cls-1" d="M531.39523,165.0749c0-2.98317,1.4319-5.92852,4.40118-5.92852,2.99937,0,4.43128,2.86754,4.43128,5.92852,0,3.33224-.91949,6.898-4.43128,6.898C532.31716,171.97294,531.39523,168.36816,531.39523,165.0749Zm-4.77289.62045c0,5.73508,3.37622,10.30707,9.17407,10.30707,5.83052,0,9.20417-4.572,9.20417-10.30707,0-6.58794-3.98909-10.57961-9.20417-10.57961C530.61143,155.11574,526.62234,159.10741,526.62234,165.69535Z"/><path class="cls-1" d="M548.58285,155.58044h4.33083v2.71307h.06778a6.31882,6.31882,0,0,1,5.76275-3.17777c4.16245,0,5.96863,3.33224,5.96863,7.82757v12.59428h-4.56941V164.88146c0-2.44182-.03524-5.73508-2.96928-5.73508-3.30585,0-4.02189,4.06832-4.02189,6.62563v9.76558h-4.56941Z"/><path class="cls-1" d="M579.85312,159.76554a10.02507,10.02507,0,0,0-4.09224-.85159c-1.2283,0-2.69545.50368-2.69545,2.20813,0,3.17777,7.94821,1.16309,7.94821,8.37021,0,4.64993-3.65,6.51013-7.36788,6.51013a18.15443,18.15443,0,0,1-5.18241-.85287l.27125-4.26176a9.10347,9.10347,0,0,0,4.50164,1.31755c1.16065,0,3.00194-.50365,3.00194-2.44167,0-3.91385-7.94564-1.23975-7.94564-8.44815,0-4.3006,3.30845-6.19978,6.88814-6.19978a18.7008,18.7008,0,0,1,4.97894.73608Z"/><path class="cls-1" d="M15.85522,193.90965H17.424c2.3878,0,5.04685.27127,5.04685,3.527,0,3.37121-2.69429,3.7581-5.04685,3.7581H15.85522ZM11.081,216.69538h4.77418V205.45763h1.53493c2.0121,0,2.62509.77506,3.30715,2.78973l2.865,8.448h5.31926l-3.81829-10.57961c-.47858-1.20078-1.22843-2.67281-2.52335-2.78959v-.07666c3.03461-.466,4.90986-3.10111,4.90986-6.27759,0-7.51863-6.10434-7.324-11.219-7.324H11.081Z"/><path class="cls-1" d="M35.15552,204.76052c.20592-2.67409,1.50213-4.68878,4.05944-4.68878s3.5797,2.16916,3.718,4.68878Zm10.84456,6.58667a10.861,10.861,0,0,1-5.83051,2.01594c-2.83114,0-4.80813-1.82123-5.014-5.038H47.29629c0-6.97469-1.84129-12.05163-8.35515-12.05163-5.45611,0-8.14912,4.7667-8.14912,10.54064,0,6.549,3.37366,10.346,9.17163,10.346a10.90717,10.90717,0,0,0,6.03643-1.589Z"/><path class="cls-1" d="M61.31117,200.92333a10.02453,10.02453,0,0,0-4.09212-.85159c-1.22843,0-2.693.50368-2.693,2.20813,0,3.17776,7.94577,1.16309,7.94577,8.37021,0,4.64993-3.65,6.51013-7.36544,6.51013a18.17257,18.17257,0,0,1-5.185-.85287l.27383-4.26176a9.09423,9.09423,0,0,0,4.49919,1.31755c1.16052,0,3.00194-.50365,3.00194-2.44167,0-3.91385-7.94577-1.23975-7.94577-8.44815,0-4.3006,3.30845-6.19978,6.88815-6.19978a18.69986,18.69986,0,0,1,4.97893.73608Z"/><path class="cls-1" d="M69.25693,204.76052c.20348-2.67409,1.49969-4.68878,4.05688-4.68878s3.58226,2.16916,3.718,4.68878Zm10.84456,6.58667a10.8695,10.8695,0,0,1-5.83308,2.01594c-2.82857,0-4.808-1.82123-5.01148-5.038H81.39771c0-6.97469-1.84387-12.05163-8.35516-12.05163-5.45624,0-8.14912,4.7667-8.14912,10.54064,0,6.549,3.37366,10.346,9.17151,10.346a10.91933,10.91933,0,0,0,6.03655-1.589Z"/><path class="cls-1" d="M88.2155,210.92146c0-3.061,3.03461-3.44915,5.08195-3.44915h1.977a7.30487,7.30487,0,0,1-.9546,4.10857,3.74409,3.74409,0,0,1-3.20542,1.78225C89.4766,213.36313,88.2155,212.62706,88.2155,210.92146Zm-2.31616-8.68056a8.51353,8.51353,0,0,1,5.421-2.16916c2.693,0,3.9541,1.08529,3.9541,4.30074h-2.5222a12.42365,12.42365,0,0,0-5.8983,1.1631c-1.74084.96835-3.00194,2.71178-3.00194,5.69611a5.87876,5.87876,0,0,0,6.137,5.92852,6.1458,6.1458,0,0,0,5.421-3.44915h.07035a28.43442,28.43442,0,0,0,.20347,2.98432h4.02433c-.10289-1.55-.1708-2.94535-.20347-4.45637-.03511-1.472-.07035-2.98315-.07035-4.999V204.6827c0-5.88954-2.21557-8.40917-7.56879-8.40917a14.15,14.15,0,0,0-6.10435,1.511Z"/><path class="cls-1" d="M104.039,196.73823h4.057v4.5343h.07035c.20347-1.8602,2.08-4.999,4.80813-4.999a4.3879,4.3879,0,0,1,1.39666.15575v5.23142a4.16,4.16,0,0,0-2.04477-.42714c-3.71783,0-3.71783,5.27037-3.71783,8.13792v7.3239H104.039Z"/><path class="cls-1" d="M127.98408,201.04023a6.21882,6.21882,0,0,0-3.1024-.73607c-2.83114,0-4.63732,2.55731-4.63732,6.31657,0,3.68015,1.53235,6.51,4.73777,6.51a8.72538,8.72538,0,0,0,3.51192-.93068l.20592,4.30189a13.23335,13.23335,0,0,1-4.56942.65827c-5.76273,0-8.66165-4.45649-8.66165-10.53948,0-5.77393,3.00194-10.3472,8.49085-10.3472a13.19224,13.19224,0,0,1,4.43385.65943Z"/><path class="cls-1" d="M131.73458,187.63194h4.56955V199.4513h.06778a6.33744,6.33744,0,0,1,5.524-3.17777c4.16,0,5.96621,3.33224,5.96621,7.82757v12.59428h-4.567V206.03925c0-2.44182-.03511-5.73509-2.96927-5.73509-3.30588,0-4.02176,4.06832-4.02176,6.62564v9.76558h-4.56955Z"/><path class="cls-1" d="M162.05025,189.6479h4.773v27.04748h-4.773Z"/><path class="cls-1" d="M171.53082,196.73823h4.33083v2.71307h.06534a6.32133,6.32133,0,0,1,5.76273-3.17777c4.16247,0,5.96865,3.33224,5.96865,7.82757v12.59428h-4.567V206.03925c0-2.44182-.03511-5.73509-2.96927-5.73509-3.30588,0-4.02434,4.06832-4.02434,6.62564v9.76558h-4.567Z"/><path class="cls-1" d="M202.80109,200.92333a10.03669,10.03669,0,0,0-4.09468-.85159c-1.22586,0-2.69288.50368-2.69288,2.20813,0,3.17776,7.94564,1.16309,7.94564,8.37021,0,4.64993-3.65,6.51013-7.36531,6.51013a18.12507,18.12507,0,0,1-5.18241-.85287l.27125-4.26176a9.10308,9.10308,0,0,0,4.50164,1.31755c1.16052,0,2.99937-.50365,2.99937-2.44167,0-3.91385-7.9432-1.23975-7.9432-8.44815,0-4.3006,3.306-6.19978,6.88815-6.19978a18.71683,18.71683,0,0,1,4.97893.73608Z"/><path class="cls-1" d="M209.00589,200.53658h-3.37622v-3.79835h3.37622v-3.99038l4.56954-1.66676v5.65714h4.057v3.79835h-4.057v9.2996c0,1.70572.40939,3.29455,2.14779,3.29455a3.69684,3.69684,0,0,0,2.08-.54251l.13569,4.10716a10.65085,10.65085,0,0,1-3.37623.46483c-3.5797,0-5.55681-2.51847-5.55681-6.47116Z"/><path class="cls-1" d="M220.873,196.73823h4.567v19.95715h-4.567Zm0-8.60262h4.567v4.96015h-4.567Z"/><path class="cls-1" d="M231.7502,200.53658H228.374v-3.79835h3.37623v-3.99038l4.56954-1.66676v5.65714h4.057v3.79835h-4.057v9.2996c0,1.70572.40939,3.29455,2.14779,3.29455a3.69678,3.69678,0,0,0,2.08-.54251l.1357,4.10716a10.65082,10.65082,0,0,1-3.37622.46483c-3.57726,0-5.55682-2.51847-5.55682-6.47116Z"/><path class="cls-1" d="M259.64424,216.69538h-4.33069v-2.71294h-.06792a7.04784,7.04784,0,0,1-5.7626,3.17777c-4.1626,0-5.96878-3.33237-5.96878-7.8277V196.73823h4.56954v10.65755c0,2.4404.03511,5.73495,2.96671,5.73495,3.30844,0,4.02433-4.06947,4.02433-6.6268v-9.7657h4.56941Z"/><path class="cls-1" d="M265.84917,200.53658h-3.37623v-3.79835h3.37623v-3.99038l4.57186-1.66676v5.65714h4.057v3.79835h-4.057v9.2996c0,1.70572.40707,3.29455,2.14793,3.29455a3.70273,3.70273,0,0,0,2.08-.54251l.13556,4.10716a10.65542,10.65542,0,0,1-3.37365.46483c-3.58227,0-5.5617-2.51847-5.5617-6.47116Z"/><path class="cls-1" d="M280.8562,204.76052c.20347-2.67409,1.49724-4.68878,4.057-4.68878,2.55731,0,3.57969,2.16916,3.71539,4.68878Zm10.84212,6.58667a10.85361,10.85361,0,0,1-5.83052,2.01594c-2.83114,0-4.80813-1.82123-5.0116-5.038h12.13833c0-6.97469-1.8413-12.05163-8.35516-12.05163-5.45624,0-8.14912,4.7667-8.14912,10.54064,0,6.549,3.37623,10.346,9.17408,10.346a10.90439,10.90439,0,0,0,6.034-1.589Z"/></svg>