<?xml version="1.0" encoding="utf-8"?>
<!-- Generator: Adobe Illustrator 26.3.1, SVG Export Plug-In . SVG Version: 6.00 Build 0)  -->
<svg version="1.1" id="Layer_1" xmlns="http://www.w3.org/2000/svg" xmlns:xlink="http://www.w3.org/1999/xlink" x="0px" y="0px"
	 viewBox="0 0 432 216" style="enable-background:new 0 0 432 216;" xml:space="preserve">
<style type="text/css">
	.st0{fill:#00488E;}
	.st1{fill:url(#SVGID_1_);}
	.st2{fill:url(#SVGID_00000159463012487859527280000004265059948822880447_);}
	.st3{fill:url(#SVGID_00000106864410771889136460000015742403501909755791_);}
	.st4{fill:url(#SVGID_00000158736175100195336500000003537306283270186629_);}
	.st5{fill:url(#SVGID_00000003068553939325081140000016695023712309495983_);}
	.st6{fill:url(#SVGID_00000049927712152237635730000017005837229235752634_);}
	.st7{fill:url(#SVGID_00000057117043318770235740000016067799238976405402_);}
	.st8{fill:url(#SVGID_00000085958714470397569720000004075786056246532240_);}
	.st9{fill:url(#SVGID_00000083806130202780655170000003434956348233791668_);}
	.st10{fill:url(#SVGID_00000114765619048086225580000000110499896363842749_);}
	.st11{fill:url(#SVGID_00000072968754964802695570000005132330114013722252_);}
	.st12{fill:url(#SVGID_00000166663563818193915580000003115668064943174035_);}
</style>
<g>
	<path class="st0" d="M199.78,161.77v-12.24h3.84c5.41,0,11.33,0.19,11.33,5.74c0,5.86-5.71,6.5-12.46,6.5H199.78 M199.78,168.47
		h4.98l14.97,18.03h15.68l-18.29-19.56c3.85-1.21,11.85-3.57,11.85-11.79c0-11.98-16.21-12.3-24.21-12.3h-16.83
		c-1.77,0-2.19,0.19-2.19,1.34v42.34c0,0,0.42-0.01,2.19-0.01h9.66l2.18,0.01V168.47z"/>
	<path class="st0" d="M308.11,180.89c-7.79,0-11.12-6.25-11.12-16.19c0-9.94,3.33-16.25,11.12-16.25c7.79,0,11.12,6.24,11.12,16.25
		C319.23,174.65,315.9,180.89,308.11,180.89 M333.99,164.7c0-15.42-9.87-22.94-25.88-22.94c-16,0-25.88,7.46-25.88,22.94
		c0,15.43,9.77,22.88,25.88,22.88C324.22,187.59,333.99,180.13,333.99,164.7z"/>
	<path class="st0" d="M154.07,167.13h19.66v-6.88h-19.66v-10.52H176l2.98-6.89h-36.76c-0.06,0-0.11,0-0.18,0
		c-1.44,0.01-1.92,0.19-2,1v42.65l38.44,0.01l0-1.34v-4.21l0.01-1.34h-24.43V167.13z"/>
	<path class="st0" d="M386.82,142.84h-7.59l-2.18-0.01c0,0,0.26,26.37,0.26,28.41l-23.43-27.57c-0.62-0.7-0.83-0.83-2.39-0.83h-8.52
		l-0.24,0c-1.35,0.01-1.83,0.18-1.93,0.94v42.73c0,0,0.42-0.01,2.18-0.01h7.59c1.76,0,2.18,0.01,2.18,0.01v-24.3
		c0-2.93-0.09-4.87-0.09-5.7c0,0,23.96,28.03,24.92,29.09c0.96,1.07,2.39,0.9,2.39,0.9h6.86l2.18,0.03v-43.7L386.82,142.84z"/>
	<path class="st0" d="M40.12,167.13h19.65v-6.88H40.12v-10.52h21.93l2.98-6.89H28.27c-0.06,0-0.11,0-0.16,0
		c-1.56,0.01-1.99,0.22-2.02,1.23v42.42l38.44,0.01v-1.34v-4.21l0.01-1.34H40.12V167.13z"/>
	<path class="st0" d="M101.69,169.67L85,143.68c-0.62-0.7-0.83-0.82-2.39-0.82h-8.52l-2.18,0.01v43.67c0,0,0.42-0.01,2.18-0.01h7.59
		c1.77,0,2.18,0.01,2.18,0.01v-24.3c0-2.93-0.08-4.08-0.08-4.91c0,0,16.46,26.36,18.09,28.22l0.09,0
		c1.64-1.87,17.25-28.21,17.25-28.21c0,0.83-0.09,1.98-0.09,4.91v24.3c0,0,0.42-0.01,2.18-0.01h7.59c1.77,0,2.18,0.01,2.18,0.01
		v-43.67l-2.18-0.01h-8.52c-1.56,0-1.76,0.12-2.39,0.82l-15.84,25.99H101.69z"/>
	<path class="st0" d="M270.64,162.97c-8.65-4.14-20.43-4.51-20.43-9.36c0-3.83,3.83-4.97,8.35-4.97c7.08,0,13.17,2.8,13.76,2.8
		c0.39,0,0.79-0.25,1.08-0.64l0.67-0.86l3.52-4.48l0,0c0,0,0,0,0,0c0,0-0.01-0.01-0.1-0.04c-0.22-0.11-0.83-0.38-1.68-0.72
		c-0.69-0.27-1.12-0.42-1.34-0.49c-3.51-1.17-9.97-2.46-16.29-2.46c-11.4,0-21.62,3.83-21.62,13c0,5.29,2.42,8.63,7.63,10.68
		c10.02,3.95,20.09,3.73,20.09,9.4c0,3.95-2.46,5.86-7.96,5.86c-8.45,0-15.73-2.8-16.31-2.8c-0.4,0-0.89,0.26-1.08,0.64l-1.08,2
		l-1.89,3.49l1.54,0.58c3.13,1.24,11.32,2.97,19.21,2.97c12.39,0,21.46-4.06,21.23-13.45C277.81,169.3,275.66,165.39,270.64,162.97z
		"/>
</g>
<g>
	<linearGradient id="SVGID_1_" gradientUnits="userSpaceOnUse" x1="230.1139" y1="96.1983" x2="230.1161" y2="96.1995">
		<stop  offset="0" style="stop-color:#A7A9AC"/>
		<stop  offset="0.1118" style="stop-color:#B1B3B6"/>
		<stop  offset="0.3167" style="stop-color:#CDCFD1"/>
		<stop  offset="0.5" style="stop-color:#EBEBEC"/>
		<stop  offset="0.5981" style="stop-color:#E3E4E5"/>
		<stop  offset="0.7581" style="stop-color:#CFD0D2"/>
		<stop  offset="0.959" style="stop-color:#AEB0B3"/>
		<stop  offset="1" style="stop-color:#A7A9AC"/>
	</linearGradient>
	<path class="st1" d="M230.13,96.17l-0.03,0.05C230.11,96.21,230.12,96.19,230.13,96.17z"/>
	
		<linearGradient id="SVGID_00000083784076675091604260000016323211040969324983_" gradientUnits="userSpaceOnUse" x1="192.3583" y1="55.4408" x2="238.3395" y2="82.2992">
		<stop  offset="0" style="stop-color:#A7A9AC"/>
		<stop  offset="0.1118" style="stop-color:#B1B3B6"/>
		<stop  offset="0.3167" style="stop-color:#CDCFD1"/>
		<stop  offset="0.5" style="stop-color:#EBEBEC"/>
		<stop  offset="0.5981" style="stop-color:#E3E4E5"/>
		<stop  offset="0.7581" style="stop-color:#CFD0D2"/>
		<stop  offset="0.959" style="stop-color:#AEB0B3"/>
		<stop  offset="1" style="stop-color:#A7A9AC"/>
	</linearGradient>
	<path style="fill:url(#SVGID_00000083784076675091604260000016323211040969324983_);" d="M234.29,84.33l-0.3-0.37l-15.66-19.17
		l-0.09-0.12L203.07,46.1c-2.91-3.49-2.66-4.18-2.52-4.53l-5.49,9.24c-0.05,0.1-0.12,0.31-0.05,0.61c0.15,0.52,0.65,1.27,1.33,2.1
		l0.3,0.37l15.65,19.18l0.09,0.11l15.17,18.57c2.79,3.34,2.81,4.01,2.57,4.43l5.53-9.29C235.89,86.44,235.24,85.51,234.29,84.33z"/>
</g>
<g>
	
		<linearGradient id="SVGID_00000023965830463596667700000015292791127731477929_" gradientUnits="userSpaceOnUse" x1="200.1496" y1="42.2929" x2="246.1289" y2="69.1503">
		<stop  offset="0" style="stop-color:#A7A9AC"/>
		<stop  offset="0.1118" style="stop-color:#B1B3B6"/>
		<stop  offset="0.3167" style="stop-color:#CDCFD1"/>
		<stop  offset="0.5" style="stop-color:#EBEBEC"/>
		<stop  offset="0.5981" style="stop-color:#E3E4E5"/>
		<stop  offset="0.7581" style="stop-color:#CFD0D2"/>
		<stop  offset="0.959" style="stop-color:#AEB0B3"/>
		<stop  offset="1" style="stop-color:#A7A9AC"/>
	</linearGradient>
	<path style="fill:url(#SVGID_00000023965830463596667700000015292791127731477929_);" d="M242.08,71.18l-0.3-0.37l-15.66-19.17
		l-0.09-0.12l-15.17-18.57c-2.91-3.49-2.66-4.18-2.52-4.53l-5.49,9.24c-0.05,0.1-0.12,0.32-0.05,0.62c0.16,0.52,0.66,1.26,1.33,2.09
		l0.3,0.37l15.66,19.17l0.09,0.11l15.17,18.57c2.79,3.34,2.81,4.01,2.57,4.43l5.53-9.29C243.68,73.29,243.03,72.36,242.08,71.18z"/>
	
		<linearGradient id="SVGID_00000124136676021151433320000008262159039149272228_" gradientUnits="userSpaceOnUse" x1="237.9054" y1="83.051" x2="237.9077" y2="83.0524">
		<stop  offset="0" style="stop-color:#A7A9AC"/>
		<stop  offset="0.1118" style="stop-color:#B1B3B6"/>
		<stop  offset="0.3167" style="stop-color:#CDCFD1"/>
		<stop  offset="0.5" style="stop-color:#EBEBEC"/>
		<stop  offset="0.5981" style="stop-color:#E3E4E5"/>
		<stop  offset="0.7581" style="stop-color:#CFD0D2"/>
		<stop  offset="0.959" style="stop-color:#AEB0B3"/>
		<stop  offset="1" style="stop-color:#A7A9AC"/>
	</linearGradient>
	<path style="fill:url(#SVGID_00000124136676021151433320000008262159039149272228_);" d="M237.92,83.02l-0.03,0.05
		C237.9,83.06,237.91,83.04,237.92,83.02z"/>
</g>
<g>
	
		<linearGradient id="SVGID_00000072272079940513799500000004948069166968763281_" gradientUnits="userSpaceOnUse" x1="176.7901" y1="81.7473" x2="222.7542" y2="108.5958">
		<stop  offset="0" style="stop-color:#A7A9AC"/>
		<stop  offset="0.1118" style="stop-color:#B1B3B6"/>
		<stop  offset="0.3167" style="stop-color:#CDCFD1"/>
		<stop  offset="0.5" style="stop-color:#EBEBEC"/>
		<stop  offset="0.5981" style="stop-color:#E3E4E5"/>
		<stop  offset="0.7581" style="stop-color:#CFD0D2"/>
		<stop  offset="0.959" style="stop-color:#AEB0B3"/>
		<stop  offset="1" style="stop-color:#A7A9AC"/>
	</linearGradient>
	<path style="fill:url(#SVGID_00000072272079940513799500000004948069166968763281_);" d="M220.01,113.3
		c0.05-0.1,0.14-0.34,0.04-0.67c-0.18-0.5-0.7-1.19-1.35-2l-0.3-0.37l-15.66-19.17l-0.09-0.12l-15.17-18.57
		c-2.91-3.49-2.66-4.16-2.5-4.51l-5.54,9.31c-0.25,0.44,0.36,1.44,1.31,2.62l0.3,0.37l15.65,19.17l0.09,0.12l15.17,18.57
		c2.79,3.34,2.82,4.01,2.58,4.43L220.01,113.3z"/>
	
		<linearGradient id="SVGID_00000152259224932609102110000018257818404985656725_" gradientUnits="userSpaceOnUse" x1="214.5393" y1="122.4942" x2="214.5404" y2="122.4949">
		<stop  offset="0" style="stop-color:#A7A9AC"/>
		<stop  offset="0.1118" style="stop-color:#B1B3B6"/>
		<stop  offset="0.3167" style="stop-color:#CDCFD1"/>
		<stop  offset="0.5" style="stop-color:#EBEBEC"/>
		<stop  offset="0.5981" style="stop-color:#E3E4E5"/>
		<stop  offset="0.7581" style="stop-color:#CFD0D2"/>
		<stop  offset="0.959" style="stop-color:#AEB0B3"/>
		<stop  offset="1" style="stop-color:#A7A9AC"/>
	</linearGradient>
	<path style="fill:url(#SVGID_00000152259224932609102110000018257818404985656725_);" d="M214.55,122.47l-0.03,0.05
		C214.53,122.5,214.55,122.48,214.55,122.47z"/>
</g>
<g>
	
		<linearGradient id="SVGID_00000113354338102123509770000018011093754458718898_" gradientUnits="userSpaceOnUse" x1="206.7476" y1="135.6409" x2="206.749" y2="135.6417">
		<stop  offset="0" style="stop-color:#A7A9AC"/>
		<stop  offset="0.1118" style="stop-color:#B1B3B6"/>
		<stop  offset="0.3167" style="stop-color:#CDCFD1"/>
		<stop  offset="0.5" style="stop-color:#EBEBEC"/>
		<stop  offset="0.5981" style="stop-color:#E3E4E5"/>
		<stop  offset="0.7581" style="stop-color:#CFD0D2"/>
		<stop  offset="0.959" style="stop-color:#AEB0B3"/>
		<stop  offset="1" style="stop-color:#A7A9AC"/>
	</linearGradient>
	<path style="fill:url(#SVGID_00000113354338102123509770000018011093754458718898_);" d="M206.76,135.61l-0.03,0.05
		C206.74,135.65,206.76,135.63,206.76,135.61z"/>
	
		<linearGradient id="SVGID_00000070119725852572757090000018406507452692101544_" gradientUnits="userSpaceOnUse" x1="169.0004" y1="94.8944" x2="214.964" y2="121.7426">
		<stop  offset="0" style="stop-color:#A7A9AC"/>
		<stop  offset="0.1118" style="stop-color:#B1B3B6"/>
		<stop  offset="0.3167" style="stop-color:#CDCFD1"/>
		<stop  offset="0.5" style="stop-color:#EBEBEC"/>
		<stop  offset="0.5981" style="stop-color:#E3E4E5"/>
		<stop  offset="0.7581" style="stop-color:#CFD0D2"/>
		<stop  offset="0.959" style="stop-color:#AEB0B3"/>
		<stop  offset="1" style="stop-color:#A7A9AC"/>
	</linearGradient>
	<path style="fill:url(#SVGID_00000070119725852572757090000018406507452692101544_);" d="M212.19,126.49L212.19,126.49
		c0,0,0.2-0.27,0.08-0.71c-0.18-0.5-0.7-1.19-1.35-2.01l-0.3-0.37l-15.66-19.17l-0.09-0.12L179.7,85.54
		c-2.91-3.49-2.66-4.16-2.5-4.51l-5.54,9.31c-0.25,0.44,0.36,1.44,1.31,2.62l0.3,0.37l15.65,19.17l0.09,0.12l15.16,18.57
		c2.79,3.34,2.82,4.01,2.58,4.43L212.19,126.49z"/>
</g>
<linearGradient id="SVGID_00000028318194359871880660000017272351554855443125_" gradientUnits="userSpaceOnUse" x1="184.5647" y1="68.6298" x2="230.5297" y2="95.4789">
	<stop  offset="0" style="stop-color:#A7A9AC"/>
	<stop  offset="0.1118" style="stop-color:#B1B3B6"/>
	<stop  offset="0.3167" style="stop-color:#CDCFD1"/>
	<stop  offset="0.5" style="stop-color:#EBEBEC"/>
	<stop  offset="0.5981" style="stop-color:#E3E4E5"/>
	<stop  offset="0.7581" style="stop-color:#CFD0D2"/>
	<stop  offset="0.959" style="stop-color:#AEB0B3"/>
	<stop  offset="1" style="stop-color:#A7A9AC"/>
</linearGradient>
<path style="fill:url(#SVGID_00000028318194359871880660000017272351554855443125_);" d="M204.6,86.32l15.17,18.57
	c2.91,3.49,2.8,4.07,2.54,4.48l5.57-9.34c0.23-0.44-0.42-1.38-1.38-2.56l-0.3-0.37l-15.66-19.17l-0.09-0.12l-15.17-18.57
	c-2.91-3.49-2.66-4.16-2.5-4.51l-5.54,9.31c-0.25,0.44,0.36,1.44,1.31,2.62l0.3,0.37l15.65,19.17L204.6,86.32z"/>
<linearGradient id="SVGID_00000145047612305646322910000000449938157214289032_" gradientUnits="userSpaceOnUse" x1="174.9444" y1="80.7314" x2="224.5453" y2="109.7042">
	<stop  offset="0.2022" style="stop-color:#00488E"/>
	<stop  offset="0.4485" style="stop-color:#647AB1"/>
	<stop  offset="0.5056" style="stop-color:#778ABB"/>
	<stop  offset="0.8034" style="stop-color:#00488E"/>
</linearGradient>
<path style="fill:url(#SVGID_00000145047612305646322910000000449938157214289032_);" d="M222.97,99.2l-20.92-8.71l-0.13-0.05
	l-21.61-8.99l-0.33-0.13c-0.67-0.24-2.12-0.69-2.73-0.35c-0.07,0.04-0.13,0.11-0.16,0.18l-5.44,9.18c0.23-0.29,0.89-0.82,4.85,0.89
	l20.93,8.71l0.13,0.05l21.6,8.98l0.31,0.12c0.65,0.23,2.14,0.71,2.76,0.36c0.06-0.04,0.23-0.25,0.26-0.3l5.36-9.05
	C227.61,100.38,226.93,100.91,222.97,99.2z"/>
<linearGradient id="SVGID_00000143597820971506397660000012887842125002101679_" gradientUnits="userSpaceOnUse" x1="182.7351" y1="67.5826" x2="232.3367" y2="96.5558">
	<stop  offset="0.2022" style="stop-color:#00488E"/>
	<stop  offset="0.4485" style="stop-color:#647AB1"/>
	<stop  offset="0.5056" style="stop-color:#778ABB"/>
	<stop  offset="0.8034" style="stop-color:#00488E"/>
</linearGradient>
<path style="fill:url(#SVGID_00000143597820971506397660000012887842125002101679_);" d="M230.77,86.06l-20.93-8.71l-0.13-0.05
	l-21.61-8.99l-0.34-0.13c-0.66-0.24-2.12-0.69-2.73-0.35c-0.07,0.04-0.13,0.11-0.16,0.17l-5.44,9.18c0.23-0.29,0.89-0.82,4.85,0.89
	l20.93,8.7l0.13,0.05l21.6,8.99l0.31,0.12c0.65,0.24,2.14,0.71,2.75,0.36c0.07-0.04,0.23-0.24,0.26-0.31l5.36-9.05
	C235.4,87.23,234.72,87.76,230.77,86.06z"/>
<linearGradient id="SVGID_00000132073624640255887860000005859616814542410131_" gradientUnits="userSpaceOnUse" x1="190.5246" y1="54.434" x2="240.1265" y2="83.4074">
	<stop  offset="0.2022" style="stop-color:#00488E"/>
	<stop  offset="0.4485" style="stop-color:#647AB1"/>
	<stop  offset="0.5056" style="stop-color:#778ABB"/>
	<stop  offset="0.8034" style="stop-color:#00488E"/>
</linearGradient>
<path style="fill:url(#SVGID_00000132073624640255887860000005859616814542410131_);" d="M238.56,72.91l-20.92-8.71l-0.13-0.05
	l-21.61-8.99l-0.33-0.13c-0.67-0.24-2.12-0.69-2.73-0.35c-0.07,0.04-0.14,0.11-0.16,0.17l-5.44,9.18c0.23-0.29,0.9-0.82,4.85,0.89
	l20.93,8.71l0.13,0.05l21.6,8.98l0.31,0.12c0.65,0.24,2.14,0.71,2.75,0.36c0.06-0.04,0.23-0.24,0.26-0.3l5.35-9.05
	C243.19,74.09,242.51,74.61,238.56,72.91z"/>
<path class="st0" d="M397.01,181.5v5.04h-0.82v-5.04h-1.91v-0.48h4.64v0.48H397.01z"/>
<path class="st0" d="M405.15,186.55v-5.06l-1.96,5.06h-0.74l-1.99-5.01v5.01h-0.65v-5.52H401l1.92,4.72l1.83-4.72h1.15v5.52H405.15z
	"/>
</svg>
