<svg id="Layer_1" data-name="Layer 1" xmlns="http://www.w3.org/2000/svg" viewBox="0 0 612 548.40424"><defs><style>.cls-1{fill:#2db17c;}</style></defs><title>emq</title><path class="cls-1" d="M304.44984,542.04158c-41.30394.00074-82.60966-.22919-123.911.097-20.87236.16481-35.56269-8.93826-45.821-26.77179Q73.42525,408.813,11.79543,302.45321c-10.42209-17.99637-10.54456-35.67829-.13405-53.67689q62.092-107.3505,124.06638-214.769c9.6066-16.60543,23.91241-25.126,43.4285-25.09665q125.27615.18865,250.55268-.00314c19.526-.03113,33.84213,8.51227,43.4454,25.08215q49.74908,85.83906,99.25466,171.81919c8.53972,14.79227,17.1245,29.559,25.571,44.40442,9.50548,16.70653,9.72067,33.6119.1157,50.29268q-62.56251,108.65068-125.363,217.16415c-9.392,16.20407-23.701,24.46168-42.73353,24.40763C388.14965,541.95888,346.29963,542.04085,304.44984,542.04158Zm-.36675-15.31229q62.77938,0,125.5587.0172c13.18393.01472,23.11293-5.61682,29.66881-16.95362q62.63172-108.3069,125.175-216.66495c6.89586-11.93408,6.70919-23.672-.1952-35.60838Q522.60056,150.87,461.15879,44.07751c-7.88061-13.749-18.79545-20.08715-34.60991-20.04371q-122.82827.33737-245.65806.05462C166.433,24.07018,155.95,29.99066,148.70823,42.56668Q86.9534,149.8093,24.90778,256.88428c-7.25746,12.52274-7.34129,24.55312-.09162,37.074Q87.09744,401.52389,149.17926,509.205c6.76094,11.70535,16.77048,17.59608,30.437,17.56189C221.105,526.66311,262.59411,526.72936,304.08309,526.72929Z"/><path class="cls-1" d="M347.977,244.27063c-6.94345,12.52784-13.44225,24.236-19.92471,35.9532-10.72807,19.39122-21.70273,38.653-32.01856,58.26129-3.303,6.27813-8.24092,3.762-12.69106,4.12511-4.48679.36615-3.72044-3.84594-4.34167-6.27584-7.86981-30.78443-15.56734-61.61288-23.32452-92.42617-.34989-1.38988-.84922-2.74217-1.75909-5.64235-2.04053,13.43828-3.86726,25.385-5.66644,37.33575-3.1372,20.83791-6.343,41.66622-9.30387,62.52922-.51679,3.6416-1.84512,5.21235-5.49342,4.57232a6.3103,6.3103,0,0,0-1.09009-.008c-13.18851.03382-12.95887.069-10.9981-12.71942q8.71261-56.82549,17.07741-113.7042c1.35852-9.16622,1.19471-9.28824,10.18962-9.15269,5.06056.07628,11.523-2.12653,14.79273.89707,3.15216,2.91484,3.20268,9.29088,4.39555,14.19986q10.99683,45.25386,21.90106,90.53027c.24518,1.01313.66085,1.985,1.32106,3.93117,1.71737-3.09111,3.01731-5.38223,4.2725-7.69753q26.35787-48.6186,52.62307-97.287c1.90261-3.54677,4.04694-5.00485,8.047-4.69309a107.86031,107.86031,0,0,0,13.63517.026c3.31565-.16278,3.81865.94685,3.33557,4.09782-4.37729,28.55236-8.56744,57.13342-12.82131,85.70479-1.97941,13.295-4.23041,26.55672-5.837,39.89636-.59143,4.91065-2.39861,6.20679-7.16207,6.085-12.47136-.31893-12.456-.09071-10.60528-12.41065q6.03117-40.14649,11.99935-80.30237A8.32993,8.32993,0,0,0,347.977,244.27063Z"/><path class="cls-1" d="M500.67315,255.74779c-1.3314,12.34927-2.905,27.35243-6.79653,41.96682a61.55919,61.55919,0,0,1-12.49492,23.991c-1.76359,2.094-1.79661,3.45143.0989,5.4682,4.10818,4.371,7.81839,9.11834,11.96283,13.45211,2.4152,2.52553,2.11047,4.08252-.629,5.94088-3.89432,2.64173-7.01289,8.45808-11.07519,8.16321-4.3677-.317-6.91912-6.34245-10.21007-9.90447-6.96631-7.54-6.83475-7.58641-16.56235-4.09266a61.62308,61.62308,0,0,1-32.23406,2.94533c-19.454-3.55966-34.29678-18.77475-35.271-39.039-1.09364-22.74848,1.49181-45.567,11.76906-66.38342,12.44827-25.21376,39.98094-37.61635,67.363-31.49056C486.584,211.23734,500.68054,230.392,500.67315,255.74779Zm-18.61841.87241c.16588-20.7675-9.02936-33.1059-24.76275-35.48952-11.79258-1.78661-22.34647,1.27568-31.12815,9.55292-6.87824,6.48317-12.16123,14.18137-14.28577,23.39594-3.463,15.01969-6.34671,30.225-6.29319,45.70988.063,18.2326,11.76446,29.47977,29.90186,29.2867,17.16441-.18278,28.50575-9.65726,36.22327-23.90873C480.36137,289.19155,479.03037,271.008,482.05474,256.6202Z"/><path class="cls-1" d="M156.77316,342.69467c-12.55665-.00037-25.11495-.11336-37.66887.07161-3.55741.05238-4.308-1.05372-3.7914-4.43864q9.66675-63.33576,19.0373-126.71612c.55242-3.76267,1.91589-4.63171,5.49051-4.60945q36.30368.22632,72.60925.00593c4.01073-.02426,5.36694.57048,4.49484,5.12291-1.8674,9.74816-1.55159,9.80867-11.19628,9.80871-16.5602.00006-33.12173.11253-49.67953-.08658-3.69222-.04435-4.88953,1.0251-5.35166,4.72188-1.39749,11.17886-3.21826,22.30769-5.03611,33.42953-.62587,3.82918.009,5.51445,4.53749,5.42948,15.09907-.2832,30.21036.078,45.30891-.21859,4.56819-.08977,5.03734,1.46122,4.31806,5.3457-1.758,9.49431-1.61909,9.52-11.08537,9.52-13.64852.0001-27.2994.14022-40.94412-.08757-3.93046-.06564-5.28791,1.15006-5.7958,5.07143q-2.52079,19.46355-5.86178,38.81649c-.65822,3.81868.65417,4.19289,3.83825,4.174,18.37937-.10926,36.762.1025,55.13819-.16194,4.621-.06652,5.53622,1.35845,4.7338,5.57809-1.74894,9.19711-1.61,9.2235-10.88515,9.2235Q172.87842,342.695,156.77316,342.69467Z"/></svg>