<svg id="Capa_1" data-name="Capa 1" xmlns="http://www.w3.org/2000/svg" viewBox="0 0 1024 859.7018"><defs><style>.cls-1{fill:#08e;}.cls-2{fill:#026fc2;}.cls-3{fill:#009fee;}.cls-4{fill:#00beee;}.cls-5{fill:#00afee;}</style></defs><title>enigmedia</title><path d="M42.5511,768.49q7.1352,6.91515,20.5218,6.9134a28.21485,28.21485,0,0,0,16.5054-4.7943q6.91515-4.7961,8.4797-10.1517h27.8822q-6.68985,20.7504-20.5218,29.6702-13.83525,8.9268-33.4614,8.9233a65.84587,65.84587,0,0,1-24.5381-4.3507,50.98607,50.98607,0,0,1-18.5153-12.38A55.66873,55.66873,0,0,1,7.19241,763.1361a70.16047,70.16047,0,0,1-4.12552-24.5382A67.2111,67.2111,0,0,1,7.305,714.5068,55.74939,55.74939,0,0,1,37.9785,682.3831a59.71842,59.71842,0,0,1,23.9785-4.6852q14.72085,0,25.654,5.6884a51.27224,51.27224,0,0,1,17.9557,15.2805,62.90087,62.90087,0,0,1,10.1517,21.8628,81.47163,81.47163,0,0,1,2.2283,25.654H34.7436Q35.409,761.57495,42.5511,768.49Zm35.8022-60.6748q-5.68665-6.2445-17.2869-6.248a27.56393,27.56393,0,0,0-12.6052,2.5661,24.03417,24.03417,0,0,0-8.0292,6.3572,23.26688,23.26688,0,0,0-4.2381,8.0292,36.20482,36.20482,0,0,0-1.4503,7.5857H86.2733Q84.0365,714.06145,78.3533,707.8152Z"/><path d="M171.2576,680.8236v16.0585h.6688a36.32678,36.32678,0,0,1,15.6183-14.6082,45.1596,45.1596,0,0,1,19.62779-4.576q12.7143,0,20.8596,3.4602a30.95134,30.95134,0,0,1,12.8235,9.592,37.11177,37.11177,0,0,1,6.58241,14.9461,93.05552,93.05552,0,0,1,1.89729,19.5185v70.9357h-31.6767V731.0123q0-14.2704-4.4634-21.3032-4.46325-7.0278-15.83659-7.026-12.9396,0-18.7372,7.6948-5.8044,7.6983-5.8009,25.3195v60.453H141.1437V680.8236Z"/><path d="M274.317,662.9771v-26.101h31.67329v26.101Zm31.67329,17.8465V796.1504H274.317V680.8236Z"/><path d="M439.94509,811.6151a39.0371,39.0371,0,0,1-8.1419,16.6181q-6.2445,7.6983-18.0683,13.0522t-31.6767,5.354a73.939,73.939,0,0,1-17.2869-2.1191,55.0391,55.0391,0,0,1-16.0619-6.5824,39.45569,39.45569,0,0,1-12.0455-11.4893,33.271,33.271,0,0,1-5.4666-16.8399h31.4549q2.2266,8.91645,8.6981,12.3799a31.24929,31.24929,0,0,0,14.946,3.4567q13.385,0,19.5186-8.0292c4.0914-5.3539,6.0603-19.1125,5.9136-27.2885V774.9598h-.4471a31.37482,31.37482,0,0,1-14.6116,13.4958,47.38054,47.38054,0,0,1-19.9656,4.3473q-12.9396,0-22.3064-4.5725a42.27385,42.27385,0,0,1-15.3931-12.4926,52.126,52.126,0,0,1-8.8106-18.5119,87.729,87.729,0,0,1-2.7879-22.4191,71.90348,71.90348,0,0,1,3.2349-21.5284,56.2234,56.2234,0,0,1,9.4795-18.2901,45.80356,45.80356,0,0,1,15.5056-12.6052,46.55109,46.55109,0,0,1,21.3032-4.6852,44.65222,44.65222,0,0,1,19.96561,4.2382q8.58373,4.2432,14.38639,14.2772h.4471V680.8236h30.1138V788.79C441.84229,793.4001,441.20759,805.6674,439.94509,811.6151Zm-43.3845-45.3568a24.70052,24.70052,0,0,0,8.4763-7.1386,31.66,31.66,0,0,0,5.0195-10.1483,42.19825,42.19825,0,0,0,1.6721-11.9363,65.5408,65.5408,0,0,0-1.3377-13.4958,33.76907,33.76907,0,0,0-4.4633-11.2641,23.16735,23.16735,0,0,0-8.25449-7.8075q-5.13376-2.897-12.93611-2.9005a23.224,23.224,0,0,0-11.4894,2.6787,24.13705,24.13705,0,0,0-8.0292,7.2478,30.53293,30.53293,0,0,0-4.6851,10.4862,51.66611,51.66611,0,0,0-1.4503,12.3799,62.60474,62.60474,0,0,0,1.2285,12.38,33.32638,33.32638,0,0,0,4.2381,11.0423,24.6824,24.6824,0,0,0,7.9166,8.0292,22.41122,22.41122,0,0,0,12.2708,3.1257A25.21546,25.21546,0,0,0,396.56059,766.2583Z"/><path d="M467.93989,681.4925h8.4762v23.4222h.4471a30.68727,30.68727,0,0,1,4.6851-10.1517,36.25428,36.25428,0,0,1,8.1418-8.3636,38.58946,38.58946,0,0,1,10.708-5.5758,38.13169,38.13169,0,0,1,12.37991-2.0098,43.19963,43.19963,0,0,1,14.27719,2.119,33.8517,33.8517,0,0,1,10.2609,5.5792,27.64623,27.64623,0,0,1,6.6916,7.8074,29.88859,29.88859,0,0,1,3.3475,8.8107h.4436q5.12881-12.0489,13.721-18.1809,8.58375-6.132,22.6409-6.1354a42.61351,42.61351,0,0,1,14.38979,2.3443,30.19086,30.19086,0,0,1,11.3768,7.1386,32.72641,32.72641,0,0,1,7.473,12.1547,50.95268,50.95268,0,0,1,2.6753,17.3995v78.2995h-8.4763V717.6291q0-10.928-3.3475-17.1777a26.88073,26.88073,0,0,0-7.9166-9.4795,22.57436,22.57436,0,0,0-9.14849-4.0163,45.21865,45.21865,0,0,0-7.026-.778,37.80253,37.80253,0,0,0-14.3864,2.6753,30.50826,30.50826,0,0,0-11.3767,8.0292,37.68092,37.68092,0,0,0-7.4731,13.274,56.72468,56.72468,0,0,0-2.6786,18.1809v67.8134h-8.4763V717.6291q0-10.7079-3.2349-17.0651a25.75956,25.75956,0,0,0-7.5822-9.4795,22.83492,22.83492,0,0,0-8.9233-4.0163,40.22682,40.22682,0,0,0-7.25119-.8906,35.79325,35.79325,0,0,0-24.31631,10.0357,38.38554,38.38554,0,0,0-8.6981,13.1614,49.09394,49.09394,0,0,0-3.3475,18.9623v67.8134h-8.4762Z"/><path d="M648.40478,739.9356v1.3376a67.67689,67.67689,0,0,0,2.6855,19.1842,48.9976,48.9976,0,0,0,7.9371,16.0618,37.63773,37.63773,0,0,0,13.1989,10.9298,40.32513,40.32513,0,0,0,18.4505,4.0163q17.22375,0,27.2885-9.0325,10.0629-9.0342,13.86772-25.0977h8.47628q-3.7929,20.0799-16.3929,30.7861-12.6069,10.7079-33.3522,10.7045-12.71427,0-22.1938-4.5725a45.09391,45.09391,0,0,1-15.8401-12.4926,52.96641,52.96641,0,0,1-9.4795-18.7372,83.58894,83.58894,0,0,1-3.1223-23.3096,81.68532,81.68532,0,0,1,3.2349-23.0879,58.00725,58.00725,0,0,1,9.7013-19.4094,48.09551,48.09551,0,0,1,16.1745-13.3832q9.70473-5.01615,22.8661-5.0195a48.49274,48.49274,0,0,1,21.3032,4.4633,44.68688,44.68688,0,0,1,15.5022,12.1548,54.10657,54.10657,0,0,1,9.4795,17.8465,71.25121,71.25121,0,0,1,3.2349,21.7502c0,.7473-.0375,1.6004-.1092,2.5661-.0785.9691-.1126,1.7505-.1126,2.3409Zm84.3223-7.3604a68.63415,68.63415,0,0,0-3.1326-17.734,43.979,43.979,0,0,0-7.9371-14.7242,39.52611,39.52611,0,0,0-12.7519-10.1483,37.38416,37.38416,0,0,0-17.1094-3.7911A40.115,40.115,0,0,0,673.68,690.0813a40.89561,40.89561,0,0,0-13.19892,10.2609,45.70807,45.70807,0,0,0-8.275,14.8334,69.65,69.65,0,0,0-3.5795,17.3996Z"/><path d="M849.61668,771.6123h-.447q-7.1403,13.6101-17.8466,20.4126-10.7079,6.8025-26.0975,6.8008-12.9447,0-22.3099-4.9069a43.99324,43.99324,0,0,1-15.3896-13.1614,56.98616,56.98616,0,0,1-8.9233-19.0716,90.89144,90.89144,0,0,1,.2218-46.3975,54.00528,54.00528,0,0,1,9.4795-19.075,45.47422,45.47422,0,0,1,15.9527-12.7144q9.587-4.68345,22.52822-4.6851a49.78052,49.78052,0,0,1,13.60838,1.8972,47.6435,47.6435,0,0,1,12.38,5.4666,39.24614,39.24614,0,0,1,16.3963,20.9688h.447V636.8761h8.4762V796.1504h-8.4762Zm-42.6065,19.853q10.923,0,18.8464-4.4599A40.17694,40.17694,0,0,0,839.018,775.1816a52.2654,52.2654,0,0,0,7.80738-16.8433,73.53161,73.53161,0,0,0,2.5661-19.2933,74.43878,74.43878,0,0,0-2.5661-19.5186,55.19486,55.19486,0,0,0-7.6948-16.9559,38.0426,38.0426,0,0,0-13.274-11.933,39.10548,39.10548,0,0,0-19.07158-4.4599q-11.37843,0-19.40592,4.3473a38.70238,38.70238,0,0,0-13.274,11.7112,48.96444,48.96444,0,0,0-7.5857,16.9559,83.51512,83.51512,0,0,0-2.3408,19.853,74.27823,74.27823,0,0,0,2.5661,19.5185,52.10009,52.10009,0,0,0,7.8074,16.8399,38.60144,38.60144,0,0,0,13.274,11.7112Q795.85183,791.4652,807.01018,791.4653Z"/><path d="M887.091,659.8548V636.8761h8.47618v22.9787Zm0,136.2956V681.4925h8.47618V796.1504Z"/><path d="M998.62667,773.397h-.4471a35.29114,35.29114,0,0,1-5.8009,9.7046,41.09574,41.09574,0,0,1-9.25767,8.1419,45.894,45.894,0,0,1-12.38,5.5757,54.28233,54.28233,0,0,1-15.16782,2.0065q-18.29355,0-28.32918-7.9166-10.0425-7.91835-10.03912-24.4255,0-10.0425,4.0163-16.3963a30.4123,30.4123,0,0,1,10.1483-10.0391,43.497,43.497,0,0,1,13.6084-5.2414,133.27747,133.27747,0,0,1,14.3864-2.2316l13.1614-1.1159a77.6303,77.6303,0,0,0,14.3898-2.119,18.35455,18.35455,0,0,0,7.91659-4.0164,11.4297,11.4297,0,0,0,3.3475-6.5789,62.57335,62.57335,0,0,0,.6689-10.0391,21.20152,21.20152,0,0,0-1.7847-8.6981,19.55007,19.55007,0,0,0-5.57577-7.1386,27.66065,27.66065,0,0,0-9.81732-4.9069,52.35792,52.35792,0,0,0-14.7208-1.7847q-15.39132,0-24.8725,7.5822-9.48465,7.58565-10.3735,22.9787h-8.4763q.8907-18.959,12.1582-28.4418,11.26065-9.47955,32.0111-9.4829,20.7453,0,30.22649,8.1418,9.47449,8.14875,9.47953,21.3032v66.701c0,1.6379.0341,3.2724.1126,4.9069a16.40075,16.40075,0,0,0,.778,4.46,6.68622,6.68622,0,0,0,2.2317,3.2349,7.07106,7.07106,0,0,0,4.4633,1.2284,41.03565,41.03565,0,0,0,6.2446-.6688v7.1386a26.79525,26.79525,0,0,1-6.9168.8906,20.43222,20.43222,0,0,1-8.1418-1.3376,10.731,10.731,0,0,1-4.5726-3.5693,13.15206,13.15206,0,0,1-2.119-5.2414,36.20536,36.20536,0,0,1-.5562-6.5824Zm0-42.3847q-3.1275,3.798-9.48289,5.1322a118.56565,118.56565,0,0,1-14.1646,2.0064l-14.2773,1.3377q-6.2445.6705-12.4891,1.8972a36.42371,36.42371,0,0,0-11.2676,4.1289,23.0628,23.0628,0,0,0-8.1418,7.9167q-3.12735,5.02125-3.1223,13.0522,0,12.7143,8.0292,18.8463,8.031,6.1422,22.08472,6.1354,14.50062,0,22.97868-5.2414a40.66334,40.66334,0,0,0,12.93609-12.0455,37.02777,37.02777,0,0,0,5.6884-13.1614,56.51121,56.51121,0,0,0,1.2285-8.5889Z"/><rect class="cls-1" x="273.92239" width="469.32239" height="124.6309"/><rect class="cls-2" x="273.92239" y="387.3092" width="469.32239" height="124.6313"/><polygon class="cls-3" points="273.922 511.94 623.375 323.427 623.375 200.386 273.922 387.167 273.922 511.94"/><polygon class="cls-4" points="623.375 323.427 273.922 124.773 273.922 0 623.375 200.386 623.375 323.427"/><polygon class="cls-3" points="273.922 124.773 491.481 124.631 273.922 0 273.922 124.773"/><polygon class="cls-5" points="623.375 323.427 623.375 200.386 511.82 260.011 623.375 323.427"/><polygon class="cls-1" points="273.922 511.94 273.922 387.167 505.218 387.167 273.922 511.94"/></svg>