<svg id="Layer_1" data-name="Layer 1" xmlns="http://www.w3.org/2000/svg" viewBox="0 0 898.10811 283.46459"><defs><style>.cls-1{fill:#002b54;}.cls-2{fill:#b1b3b6;}.cls-3{fill:#e1134f;}</style></defs><title>episensor</title><path class="cls-1" d="M343.84769,169.714H309.20832V103.00129h34.63937v8.85831H318.86108v19.97719h24.98661v8.67493H318.86108V160.489h24.98661Z"/><path class="cls-1" d="M384.01952,169.714h-9.59137V103.00129h15.49806a57.97524,57.97524,0,0,1,9.966.64122,18.44736,18.44736,0,0,1,5.9829,2.15166,17.6391,17.6391,0,0,1,6.64409,6.93616,20.00706,20.00706,0,0,1,2.47418,9.77475q0,9.29519-6.27929,14.81108-6.28008,5.51823-17.00259,5.51726h-7.69194Zm0-35.73882h7.00654q7.463,0,10.82651-2.61572,3.36525-2.61454,3.366-8.30462,0-5.68715-3.41178-8.44225-3.4104-2.7518-10.4621-2.753h-7.3252Z"/><path class="cls-1" d="M451.08717,169.714h-9.65233V103.00129h9.65233Z"/><path class="cls-2" d="M477.96029,150.46984h8.67489a12.61585,12.61585,0,0,0,3.07,8.27022,9.55368,9.55368,0,0,0,7.37681,3.09312,10.618,10.618,0,0,0,7.99535-3.09664,11.39879,11.39879,0,0,0,3.00124-8.28195q0-4.54173-2.19932-7.01787-2.19932-2.48025-9.20195-4.63558-.36654-.09149-1.23709-.32061-8.385-2.24212-12.13434-7.36742a16.61394,16.61394,0,0,1-2.543-4.7822,17.01511,17.01511,0,0,1-.84767-5.42185q0-8.55681,5.07818-13.84538,5.08013-5.283,13.31789-5.28419,7.64073,0,12.333,4.73841,4.69071,4.73638,5.19313,12.97812h-9.04164a9.47868,9.47868,0,0,0-2.67281-6.41458,9.001,9.001,0,0,0-12.61567.27878,9.99026,9.99026,0,0,0-2.48944,7.02178,8.62806,8.62806,0,0,0,.45824,2.837,7.72605,7.72605,0,0,0,1.42047,2.47028q1.96415,2.33421,8.41918,4.02641,2.97231.77886,4.5781,1.327a21.02435,21.02435,0,0,1,10,7.19734,18.82055,18.82055,0,0,1,3.40982,11.32111q0,9.67348-5.49846,15.58212-5.49248,5.91645-14.56284,5.9145a18.15559,18.15559,0,0,1-13.85276-5.66236Q478.052,159.73123,477.96029,150.46984Z"/><path class="cls-2" d="M579.48392,169.714H544.84457V103.00129h34.63935v8.85831H554.49736v19.97719h24.98656v8.67493H554.49736V160.489h24.98656Z"/><path class="cls-2" d="M619.71677,169.714H610.0644V103.00129h9.94248l32.761,50.49242-.48873-50.49242h9.53037V169.714h-9.25942L619.045,117.7092Z"/><path class="cls-2" d="M688.6901,150.46984H697.365a12.61562,12.61562,0,0,0,3.07,8.27022,9.553,9.553,0,0,0,7.37681,3.09312,10.61868,10.61868,0,0,0,7.99535-3.09664,11.39892,11.39892,0,0,0,3.00124-8.28195q0-4.54173-2.19932-7.01787-2.19931-2.48025-9.202-4.63558-.36656-.09149-1.237-.32061-8.385-2.24212-12.1348-7.36742a16.63284,16.63284,0,0,1-2.543-4.7822,17.024,17.024,0,0,1-.84731-5.42185q0-8.55681,5.07818-13.84538,5.08013-5.283,13.31789-5.28419,7.64072,0,12.333,4.73841,4.69071,4.73638,5.19313,12.97812H717.5256a9.48047,9.48047,0,0,0-2.67281-6.41458,9.001,9.001,0,0,0-12.61567.27878,9.99026,9.99026,0,0,0-2.48944,7.02178,8.6171,8.6171,0,0,0,.45824,2.837,7.73214,7.73214,0,0,0,1.42008,2.47028q1.96471,2.33421,8.41957,4.02641,2.97236.77886,4.5781,1.327a21.02439,21.02439,0,0,1,10,7.19734,18.82317,18.82317,0,0,1,3.40982,11.32111q0,9.67348-5.49849,15.58212-5.49237,5.91645-14.56281,5.9145a18.15558,18.15558,0,0,1-13.85276-5.66236Q688.78179,159.73123,688.6901,150.46984Z"/><path class="cls-2" d="M752.581,135.94535a33.754,33.754,0,0,1,2.65756-13.29326,34.79237,34.79237,0,0,1,7.78542-11.32306,33.755,33.755,0,0,1,10.79011-7.22041,33.06851,33.06851,0,0,1,12.75683-2.45151A34.382,34.382,0,0,1,818.13274,122.606a34.48034,34.48034,0,0,1,2.56568,13.3394,37.65547,37.65547,0,0,1-2.19932,13.08682,32.04246,32.04246,0,0,1-6.594,10.75026,35.30253,35.30253,0,0,1-11.56939,8.43483,33.73621,33.73621,0,0,1-13.85625,2.84054,33.06553,33.06553,0,0,1-13.85668-2.88633,34.06569,34.06569,0,0,1-11.38605-8.572,32.51663,32.51663,0,0,1-6.45641-10.75026A37.35973,37.35973,0,0,1,752.581,135.94535Zm10.08011.07624a27.96022,27.96022,0,0,0,1.74108,9.87993,23.18739,23.18739,0,0,0,4.99059,8.047,24.71069,24.71069,0,0,0,7.91911,5.54775,22.59741,22.59741,0,0,0,9.15975,1.9702,22.84622,22.84622,0,0,0,17.3083-7.35765,25.56876,25.56876,0,0,0,6.96079-18.27056,23.61155,23.61155,0,0,0-1.67265-8.82581,26.20349,26.20349,0,0,0-13.0012-13.75546,24.035,24.035,0,0,0-18.572-.1603,22.73561,22.73561,0,0,0-7.55236,5.18144,25.63214,25.63214,0,0,0-5.36086,8.20726A24.92152,24.92152,0,0,0,762.66107,136.02159Z"/><path class="cls-2" d="M857.84245,169.714h-9.65237V103.00129H867.3998q12.00475,0,18.33156,5.54584,6.32289,5.547,6.32269,16.04271a18.85467,18.85467,0,0,1-5.29556,13.63694,19.56713,19.56713,0,0,1-13.64281,5.88948L892.05405,169.714H879.96191l-22.11946-30.96991Zm0-32.07329h4.937q10.04589,0,14.95614-3.25342,4.90887-3.25323,4.91044-9.89674,0-6.46071-4.22308-9.48463Q874.202,111.982,865.06677,111.982h-7.22432Z"/><path class="cls-3" d="M139.98328,2.79492A137.79148,137.79148,0,1,0,277.79,140.58447,137.78851,137.78851,0,0,0,139.98328,2.79492Zm0,241.1344A103.34116,103.34116,0,1,1,243.33942,140.58447,103.34517,103.34517,0,0,1,139.98328,243.92932Z"/><path class="cls-1" d="M139.98325,56.60375a83.96819,83.96819,0,1,0,83.98265,83.9807A83.98416,83.98416,0,0,0,139.98325,56.60375Zm23.74364,46.64386a40.82452,40.82452,0,0,0-23.85625-7.18048,40.29558,40.29558,0,0,0-16.30779,3.49193,43.3906,43.3906,0,0,0-14.076,9.83222,40.93,40.93,0,0,0-8.8872,14.23437A49.15447,49.15447,0,0,0,97.503,141.13027a43.84789,43.84789,0,0,0,3.4153,16.8845,45.13561,45.13561,0,0,0,9.5421,14.53622,40.70918,40.70918,0,0,0,13.45357,9.175,41.41246,41.41246,0,0,0,15.97193,3.158,42.29217,42.29217,0,0,0,18.15954-3.79925,38.05753,38.05753,0,0,0,14.02635-11.34418h21.09781a52.35425,52.35425,0,0,1-20.47535,23.891q-13.52259,8.402-31.53138,8.40785a63.11372,63.11372,0,0,1-23.68068-4.2614,57.08044,57.08044,0,0,1-19.29183-12.87529,61.62079,61.62079,0,0,1-13.83556-20.04566,59.7155,59.7155,0,0,1-4.70791-23.53563,66.01784,66.01784,0,0,1,3.89269-22.86782,57.57273,57.57273,0,0,1,11.474-19.03773A60.07716,60.07716,0,0,1,115.2332,84.242a58.925,58.925,0,0,1,24.63744-5.13917q25.70739,0,42.47792,17.15545,16.75527,17.16173,17.98592,44.82229H127.00866v-16.6589h53.74388Q174.07423,110.41822,163.72689,103.24761Z"/></svg>