<?xml version="1.0" encoding="utf-8"?>
<!-- Generator: Adobe Illustrator 24.2.1, SVG Export Plug-In . SVG Version: 6.00 Build 0)  -->
<svg version="1.1" id="Layer_1" xmlns="http://www.w3.org/2000/svg" xmlns:xlink="http://www.w3.org/1999/xlink" x="0px" y="0px"
	 viewBox="0 0 103.4 94.2" style="enable-background:new 0 0 103.4 94.2;" xml:space="preserve">
<style type="text/css">
	.st0{fill:#707073;}
	.st1{fill:#ED1C24;}
</style>
<rect y="65.5" class="st0" width="103.4" height="0.5"/>
<g>
	<path class="st0" d="M20.2,82.9h2.2l3.7,5.4l3.6-5.4H32v11.4h-2.1v-8.1l-3.8,5.4h-0.1l-3.7-5.3v8.1h-2.1V82.9z"/>
	<path class="st0" d="M36.2,82.9H45v1.8h-6.7v3h6v1.8h-6v3h6.8v1.8h-8.9L36.2,82.9z"/>
	<path class="st0" d="M52.2,84.7h-3.8v-1.9h9.7v1.9h-3.8v9.5h-2.1V84.7z"/>
	<path class="st0" d="M64.1,82.8h2l5.2,11.4h-2.2l-1.2-2.7h-5.6L61,94.2h-2.1L64.1,82.8z M67.1,89.7L65,85.2l-2,4.5H67.1z"/>
	<path class="st0" d="M74.8,82.9h2.1v9.5h6.3v1.8h-8.4L74.8,82.9z"/>
</g>
<g>
	<polygon points="0,38.6 0,49.2 9.4,49.2 9.4,47.8 1.5,47.8 1.5,44.4 6.6,44.4 6.6,43 1.5,43 1.5,40 9.1,40 9.1,38.6 	"/>
	<path d="M41.8,45c0,1.9-1.2,3.1-3.1,3.1c-1.8,0-2.9-1.3-2.9-3.1v-6.3h-1.5V45c0,2.9,2.1,4.4,4.4,4.4c3.5,0,4.6-2.4,4.6-4.4v-6.4
		h-1.5V45z"/>
	<rect x="51.8" y="38.6" width="1.5" height="10.5"/>
	<polygon points="71.4,38.6 71.4,46.9 63.9,38.6 62.4,38.6 62.4,49.2 63.9,49.2 63.9,40.8 71.4,49.2 72.9,49.2 72.9,38.6 	"/>
	<rect x="82" y="38.6" width="1.5" height="10.5"/>
	<polygon points="100.8,38.6 97.3,42.4 93.9,38.6 91.9,38.6 96.2,43.5 90.9,49.2 92.8,49.2 97.2,44.5 101.3,49.2 103.4,49.2 
		98.3,43.5 102.7,38.6 	"/>
	<path d="M20.9,38.2c-3.1,0-5.6,2.4-5.6,5.7v0c0,3.3,2.5,5.6,5.6,5.6c0.8,0,1.7-0.2,2.5-0.6l0.9,1l1.8,0l-1.5-1.7
		c1.2-0.9,2-2.5,2-4.4v0C26.5,40.5,24.1,38.2,20.9,38.2 M25,43.9c0,1.5-0.5,2.5-1.4,3.3l-0.8-0.9l-1.8,0l1.4,1.7
		c-0.4,0.2-1,0.3-1.5,0.3c-2.3,0-4.1-1.8-4.1-4.3l0,0c0-2.5,1.7-4.3,4-4.3C23.2,39.5,25,41.3,25,43.9L25,43.9z"/>
</g>
<g>
	<polygon class="st1" points="52.5,0 48.2,1.5 48.2,24 45.4,23 45.4,2.5 36.8,5.5 36.8,20 33.9,19 33.9,6.5 31,7.5 31,21.1 
		39.6,24.1 39.6,7.5 42.5,6.5 42.5,25.1 51.1,28.1 51.1,3.5 52.5,3 54,3.5 54,28.1 62.5,25.1 62.5,6.5 65.4,7.5 65.4,24.1 74,21.1 
		74,7.5 71.1,6.5 71.1,19 68.3,20 68.3,5.5 59.7,2.5 59.7,23 56.8,24 56.8,1.5 	"/>
	<path class="st1" d="M79.5,20.1c1.4,0,2.6-1.2,2.6-2.6v0c0-1.4-1.1-2.6-2.6-2.6c-1.4,0-2.6,1.2-2.6,2.6v0
		C76.9,19,78,20.1,79.5,20.1 M79.5,19.8c-1.3,0-2.3-1-2.3-2.3v0c0-1.3,1-2.3,2.3-2.3c1.3,0,2.3,1,2.3,2.3v0
		C81.8,18.8,80.8,19.8,79.5,19.8 M78.4,18.8h0.7V18h0.4l0.6,0.8h0.8l-0.7-1c0.4-0.1,0.6-0.4,0.6-0.8c0-0.6-0.5-0.9-1.1-0.9h-1.3
		V18.8z M79.1,17.4v-0.7h0.6c0.3,0,0.5,0.1,0.5,0.4c0,0.2-0.2,0.4-0.5,0.4H79.1z"/>
</g>
</svg>
