<svg id="Layer_1" data-name="Layer 1" xmlns="http://www.w3.org/2000/svg" viewBox="0 0 283.46459 250.48088"><defs><style>.cls-1{fill:#002561;}</style></defs><title>ericsson</title><path class="cls-1" d="M102.3891,67.89738a16.12364,16.12364,0,0,1-11.101-30.2763l89.147-32.68386a16.12281,16.12281,0,0,1,11.099,30.27527Z"/><path class="cls-1" d="M102.3891,116.15041a16.12411,16.12411,0,0,1-11.101-30.2773l89.147-32.68387a16.12282,16.12282,0,0,1,11.099,30.27528Z"/><path class="cls-1" d="M102.3891,164.40345a16.12412,16.12412,0,0,1-11.101-30.27731l89.147-32.68589a16.12376,16.12376,0,0,1,11.099,30.2773Z"/><polygon class="cls-1" points="4.228 204.496 34.132 204.496 34.132 212.623 14.788 212.623 14.788 219.688 33.339 219.688 33.339 228.12 14.788 228.12 14.788 235.416 34.446 235.416 34.446 243.602 4.228 243.602 4.228 204.496 4.228 204.496"/><polygon class="cls-1" points="80.602 204.496 91.243 204.496 91.243 243.626 80.602 243.626 80.602 204.496 80.602 204.496"/><path class="cls-1" d="M130.05526,205.75173l-.71435,8.3749c-8.59513-4.974-21.76933-3.38889-22.00155,9.6565-.242,13.0336,13.5653,14.93832,22.32094,10.50981l.54957,8.54739c-15.458,4.81535-33.92381-.0833-33.84254-19.0572.0774-18.58687,18.69617-23.72769,33.68793-18.0314Z"/><path class="cls-1" d="M161.37605,205.14669l-.71638,8.14856c-5.36086-2.9543-15.54133-3.03171-15.54133,1.60525,0,6.86677,18.1466,1.91062,18.1466,16.61266,0,14.46413-17.27357,14.62484-28.47966,11.26968l.79359-8.6248c7.01974,3.27166,16.9619,3.988,16.9619-1.68449,0-6.23-18.22583-2.72025-18.22583-16.70023,0-11.46593,14.20021-14.53929,27.06111-10.62663Z"/><path class="cls-1" d="M193.47662,205.14669l-.70643,8.14856c-5.367-2.9543-15.54133-3.03171-15.54133,1.60525,0,6.86677,18.14659,1.91062,18.14659,16.61266,0,14.46413-17.2815,14.62484-28.48758,11.26968l.79765-8.6248c7.01772,3.27166,16.956,3.988,16.956-1.68449,0-6.23-18.21994-2.72025-18.21994-16.70023,0-11.46593,14.19819-14.53929,27.055-10.62663Z"/><polygon class="cls-1" points="242.47 204.496 255.95 204.496 268.814 229.735 268.814 204.496 278.596 204.496 278.596 243.626 265.898 243.626 252.331 217.91 252.331 243.626 242.47 243.626 242.47 204.496 242.47 204.496"/><path class="cls-1" d="M217.93633,203.55342c11.0535.00793,19.48388,6.47607,19.48388,20.59094,0,13.49176-8.47406,20.4341-19.48388,20.4341-10.99172.00386-19.41417-6.78164-19.41417-20.4341,0-14.11487,8.37875-20.59094,19.41417-20.59094Zm-8.52158,20.59094c0,5.96408,2.55751,12.714,8.52158,12.70406,5.96428-.00792,8.47406-6.74,8.51773-12.70406.04369-5.39276-2.55345-12.69024-8.51773-12.7002-5.96407-.002-8.52158,6.74-8.52158,12.7002Z"/><path class="cls-1" d="M52.03691,220.98364H57.874c2.627.04368,4.996-1.53577,4.97016-4.42059a4.45039,4.45039,0,0,0-4.81535-4.33323h-5.9919v8.75382ZM41.85846,204.49593h19.1722c5.20828,0,12.46005,2.28567,12.46005,10.41636,0,5.19832-2.359,8.115-6.843,9.46409a6.03447,6.03447,0,0,1,3.53172,3.94842c.03758.09712,5.484,15.26544,5.54738,15.30119H64.42158l-4.0238-11.75769a4.01622,4.01622,0,0,0-3.86694-2.99981c-1.65666,0-4.25988-.10728-4.25988,0V243.626H41.85846V204.49593Z"/></svg>