<svg version="1.1" id="Layer_1" xmlns="http://www.w3.org/2000/svg" xmlns:xlink="http://www.w3.org/1999/xlink" x="0px" y="0px"
	 width="100%" viewBox="0 0 709 205" enable-background="new 0 0 709 205" xml:space="preserve">
<path fill="#FDFEFE" opacity="1.000000" stroke="none" 
	d="
M710.000000,134.000000 
	C710.000000,157.924225 710.000000,181.848434 710.000000,206.000000 
	C687.979614,206.000000 665.958496,206.000000 643.565430,205.651154 
	C649.908081,202.976593 652.380737,199.992035 652.172546,194.464249 
	C651.984375,189.464966 649.113953,186.725220 642.230530,185.104691 
	C639.159119,184.381592 636.050903,183.816391 632.968872,183.136429 
	C629.803101,182.437988 626.600525,180.741501 627.566406,177.360199 
	C628.201843,175.135803 631.409485,172.341507 633.663269,172.151611 
	C638.583679,171.737030 643.630310,172.821289 649.281494,173.355179 
	C649.460022,173.021530 650.127197,171.775040 650.922668,170.288757 
	C643.726929,166.434631 636.479004,165.566422 629.059204,168.088303 
	C624.435669,169.659790 621.691467,173.066299 621.818420,178.272720 
	C621.943115,183.385925 624.903809,186.144104 629.535339,187.358673 
	C633.224670,188.326187 636.972046,189.071838 640.689880,189.932022 
	C643.731018,190.635651 646.897400,191.673111 646.669678,195.424118 
	C646.424561,199.461212 643.172363,201.214691 639.617737,200.960663 
	C633.978210,200.557632 628.390686,199.428375 621.986267,198.489914 
	C621.892273,198.685608 621.230530,200.062943 620.524841,201.531906 
	C623.314392,203.199295 625.657166,204.599655 628.000000,206.000000 
	C621.978821,206.000000 615.957703,206.000000 609.604126,205.665894 
	C615.758606,203.359314 618.855408,199.915131 618.733887,194.808060 
	C618.610168,189.609100 615.520813,186.643997 608.519836,185.067108 
	C605.285706,184.338654 601.812805,184.164139 598.871887,182.814835 
	C596.834229,181.879944 593.978699,179.079514 594.249146,177.626694 
	C594.643860,175.507339 597.465454,172.354309 599.345703,172.288071 
	C604.136780,172.119324 608.979248,173.419724 613.802307,174.123810 
	C614.251709,174.189407 614.709778,174.195297 615.385864,174.245346 
	C615.987793,172.932678 616.568604,171.666183 617.131165,170.439392 
	C610.008484,166.302170 600.319214,165.594650 594.352966,168.562164 
	C590.242126,170.606857 587.965942,173.867203 588.187195,178.483978 
	C588.414124,183.219559 591.198486,186.118347 595.659851,187.307053 
	C599.501526,188.330673 603.427979,189.031982 607.288086,189.992218 
	C610.271606,190.734421 613.367493,191.727097 613.007263,195.647217 
	C612.650330,199.532135 609.598145,201.147949 606.285339,200.913345 
	C600.523926,200.505341 594.813843,199.374084 588.426575,198.451324 
	C588.315125,198.655197 587.616333,199.933624 586.761658,201.497223 
	C589.644775,203.073013 592.322388,204.536514 595.000000,206.000000 
	C587.645752,206.000000 580.291504,206.000000 572.617126,205.663971 
	C575.452881,203.811478 578.608704,202.295013 582.309631,200.516647 
	C580.541626,198.488861 579.616821,197.428177 578.609680,196.273087 
	C572.938538,201.496536 566.630615,202.644897 559.921448,199.733826 
	C555.244995,197.704758 552.324219,194.003937 552.076172,188.014465 
	C562.846985,188.014465 573.394226,188.014465 584.012390,188.014465 
	C584.246399,179.336227 581.602173,172.636017 574.037964,168.846527 
	C567.092773,165.367188 560.048889,165.804535 553.796021,170.484985 
	C547.134644,175.471176 545.537537,182.475525 546.745178,190.496689 
	C547.955994,198.538971 553.700562,202.445267 560.000000,206.000000 
	C552.645752,206.000000 545.291504,206.000000 537.662292,205.615723 
	C537.644775,204.490601 538.125854,203.750107 538.126892,203.008926 
	C538.151062,186.222885 538.126953,169.436752 538.079712,152.650726 
	C538.078491,152.213837 537.716675,151.777954 537.435608,151.144699 
	C536.012329,151.231537 534.602112,151.317581 533.000000,151.415329 
	C533.000000,169.829865 533.000000,187.914932 533.000000,206.000000 
	C526.645569,206.000000 520.291199,206.000000 513.587524,205.658020 
	C516.255005,203.801544 519.271790,202.287033 522.911743,200.459671 
	C521.244141,198.631317 520.307373,197.604233 519.402710,196.612381 
	C506.208466,204.825180 493.638855,200.962112 492.995789,188.198090 
	C503.374634,188.198090 513.743225,188.198090 524.030029,188.198090 
	C525.318237,178.047104 520.283325,170.074448 511.311584,167.429810 
	C502.363586,164.792145 493.033966,168.752640 488.943542,176.925217 
	C484.601715,185.600067 486.936523,196.712112 494.362305,202.085983 
	C496.434052,203.585236 498.779877,204.705765 501.000000,206.000000 
	C490.979095,206.000000 480.958221,206.000000 470.514343,205.732910 
	C470.039185,205.292877 469.987000,205.119934 469.967041,204.482819 
	C470.022583,196.679016 470.045898,189.339371 470.283508,181.724564 
	C472.307770,174.453079 477.478851,171.931061 484.288971,171.697723 
	C484.121704,169.825317 483.994781,168.404449 483.745667,165.615677 
	C478.697937,167.798859 474.331909,169.687210 469.968353,171.574493 
	C469.896973,170.627869 469.769043,168.930405 469.636322,167.169891 
	C467.807129,167.169891 466.355865,167.169891 464.474274,167.169891 
	C464.474274,170.470490 464.511749,173.594009 464.467255,176.716339 
	C464.328125,186.477798 464.158081,196.238815 464.000000,206.000000 
	C460.638702,206.000000 457.277435,206.000000 453.236816,205.576538 
	C452.557495,192.565872 452.557495,179.978653 452.557495,167.176392 
	C450.565186,167.176392 448.981873,167.176392 447.000000,167.176392 
	C447.000000,180.177750 447.000000,193.088867 447.000000,206.000000 
	C440.645599,206.000000 434.291199,206.000000 427.483032,205.632935 
	C431.982910,192.696030 436.936523,180.126205 441.890289,167.556015 
	C437.900574,166.009277 436.366119,167.506332 435.227631,170.808990 
	C432.059143,180.000595 428.558838,189.077789 424.812317,199.221664 
	C420.925537,188.809326 417.542023,179.505173 413.915924,170.296539 
	C413.387756,168.955231 411.720886,167.237274 410.543945,167.208557 
	C409.367554,167.179840 407.607361,168.819489 407.038239,170.132950 
	C404.928955,175.001221 403.211761,180.039032 401.335449,185.008698 
	C399.692535,189.360092 398.033783,193.705521 395.969147,199.140518 
	C392.189270,188.800781 388.728271,179.833221 385.672699,170.729568 
	C384.446228,167.075378 382.610016,166.160034 379.086029,167.496719 
	C379.677460,169.051254 380.228119,170.432343 380.730865,171.830643 
	C384.825653,183.218613 388.911469,194.609802 393.000000,206.000000 
	C357.645782,206.000000 322.291534,206.000000 286.485535,205.744568 
	C286.008667,205.320297 285.983643,205.151474 286.156189,204.677795 
	C296.751373,175.431808 307.149017,146.490707 317.747009,116.991928 
	C301.502197,120.635414 288.349457,116.524025 277.166046,104.739418 
	C272.591125,117.295624 268.136414,129.521942 263.459839,142.357224 
	C262.757874,140.681519 262.271912,139.646744 261.883942,138.576462 
	C255.260712,120.305214 248.638565,102.033546 242.049332,83.750015 
	C241.194748,81.378723 240.700455,79.320999 237.172455,79.389969 
	C224.177567,79.644035 211.173065,79.394722 198.177048,79.618301 
	C196.753525,79.642792 194.637238,81.199844 194.078629,82.555519 
	C191.487518,88.843781 189.372223,95.326424 187.013046,101.712303 
	C182.022034,115.222137 176.985184,128.715042 171.786041,141.894928 
	C170.353317,138.383347 169.101685,135.191696 167.848129,131.633148 
	C166.198166,127.463562 164.550110,123.660912 163.007858,119.574898 
	C162.746628,118.193504 162.379578,117.095474 162.023590,115.740700 
	C161.954666,115.332458 161.874680,115.180954 161.790894,114.663551 
	C158.899826,107.183510 156.012573,100.069366 153.095169,92.549942 
	C152.096817,88.832893 151.379074,85.414368 150.035522,82.262611 
	C149.508072,81.025299 147.590927,79.611359 146.287766,79.592628 
	C133.134903,79.403625 119.978088,79.477005 106.822548,79.522766 
	C106.086403,79.525322 105.351669,79.932503 104.251038,80.260056 
	C113.188347,104.726845 122.016174,128.893906 130.867981,153.444397 
	C133.889481,161.960464 136.887024,170.093124 139.889755,178.596527 
	C141.004288,181.978409 142.113617,184.989578 143.243652,188.363571 
	C145.236649,194.135254 147.208954,199.544113 149.139191,205.215271 
	C149.064743,205.651733 149.032364,205.825867 149.000000,206.000000 
	C122.312439,206.000000 95.624878,206.000000 68.424850,205.655945 
	C67.849510,204.860550 67.786652,204.409210 67.774284,203.494492 
	C67.824783,171.955765 67.824783,140.880417 67.824783,109.320877 
	C78.010361,109.320877 87.584450,109.320877 97.110046,109.320877 
	C97.110046,99.123222 97.110046,89.418907 97.110046,79.276474 
	C87.114388,79.276474 77.530838,79.276474 67.996010,79.276474 
	C67.996010,71.215981 67.431808,63.553127 68.144089,56.010815 
	C68.966187,47.305614 77.019600,40.744762 85.823837,40.923717 
	C89.687210,41.002243 93.532242,41.983280 97.614296,42.588425 
	C99.876343,31.353300 102.158676,20.017437 104.510468,8.336538 
	C100.557472,7.117666 97.150795,5.809992 93.626938,5.035508 
	C86.786087,3.532011 79.879410,2.328058 73.000000,1.000000 
	C285.333344,1.000000 497.666687,1.000000 710.000000,1.000000 
	C710.000000,26.760761 710.000000,52.411720 709.692566,78.560013 
	C709.182922,79.095909 708.980774,79.134483 708.348694,79.157349 
	C706.664856,79.141640 705.410889,79.141640 703.819031,79.141640 
	C703.819031,83.174416 703.819031,86.639442 703.819031,90.104462 
	C703.819031,93.525665 703.819031,96.946869 703.819031,100.612328 
	C691.856812,92.973724 681.945374,93.177780 674.869080,100.939919 
	C668.496399,107.930222 668.221130,119.936531 674.386719,127.564407 
	C678.056274,132.104218 682.980225,133.990021 688.782715,134.236343 
	C694.714844,134.488129 699.416870,131.939896 703.824341,127.898636 
	C703.961487,130.292465 704.063049,132.065338 704.169434,133.923004 
	C705.968079,133.923004 707.441223,133.923004 709.184814,133.956055 
	C709.636780,133.992752 709.818420,133.996384 710.000000,134.000000 
M612.256287,100.250397 
	C614.901306,100.122841 617.556458,99.788620 620.188904,99.917931 
	C623.806824,100.095665 624.508667,98.581657 623.318970,95.119843 
	C619.660278,95.119843 616.064392,95.119843 611.966797,95.119843 
	C611.966797,92.161461 611.966797,89.586952 611.966797,87.067657 
	C610.028625,87.067657 608.604980,87.067657 606.786987,87.067657 
	C606.786987,89.749756 606.786987,92.180046 606.786987,94.844467 
	C604.332336,95.046043 602.251343,95.216942 599.775940,95.420219 
	C599.937073,97.042740 600.071655,98.397476 600.197266,99.662621 
	C602.622864,99.855255 604.549438,100.008255 606.806763,100.187523 
	C606.806763,107.632736 606.915649,114.773972 606.767761,121.909882 
	C606.672180,126.520988 607.357849,130.795380 611.920532,132.911163 
	C616.703491,135.129105 621.554443,134.931137 626.226196,131.575348 
	C625.661377,130.276459 625.160767,129.125259 624.674500,128.007004 
	C616.945740,130.396500 615.490112,130.029785 612.148376,124.070572 
	C612.048340,116.394104 611.948242,108.717644 612.256287,100.250397 
M386.010010,101.951767 
	C386.010010,112.516113 386.010010,123.080460 386.010010,135.147659 
	C388.272614,133.712082 389.615021,132.860367 391.158203,131.088928 
	C391.158203,120.834488 391.158203,110.580048 391.158203,99.787231 
	C395.380493,99.787231 399.104156,99.787231 403.036682,99.787231 
	C402.937897,97.975494 402.869507,96.720558 402.771973,94.931061 
	C398.731110,94.931061 395.007782,94.931061 391.322693,94.931061 
	C390.974548,84.567345 394.173523,82.249443 403.631531,85.442253 
	C405.684082,81.410194 405.544098,80.997284 401.770325,79.953323 
	C392.392090,77.358971 386.145966,82.066872 385.977936,91.860954 
	C385.961487,92.819542 385.975739,93.778648 385.975739,94.946068 
	C383.500000,95.096519 381.417755,95.223053 378.973877,95.371567 
	C379.097870,97.010712 379.201355,98.379089 379.262970,99.193718 
	C381.942017,99.907135 384.044922,100.467140 386.010010,101.951767 
M593.933594,106.290306 
	C590.299011,93.672829 573.133240,90.414619 562.767517,100.603241 
	C563.561035,101.729370 564.379517,102.891014 565.186157,104.035782 
	C572.444458,99.536629 580.326355,98.474594 584.684265,101.384521 
	C588.451355,103.900002 588.809143,107.675789 588.720886,112.045212 
	C583.101501,112.045212 577.944519,111.775566 572.827087,112.110725 
	C565.794067,112.571335 561.577332,116.889442 561.592346,122.989594 
	C561.607239,129.004257 565.995117,133.314285 572.807251,134.061707 
	C578.755432,134.714325 584.203857,133.660019 588.790833,129.071457 
	C588.940186,130.692474 589.046204,131.844009 589.367676,133.803497 
	C590.807983,133.803497 592.248352,133.803497 593.823853,133.803497 
	C593.823853,124.793579 593.823853,115.912956 593.933594,106.290306 
M324.545135,62.992580 
	C314.984161,54.222561 303.642242,52.892464 293.539581,59.356457 
	C284.769196,64.968033 280.610352,76.388763 283.658173,86.491982 
	C286.557526,96.103119 294.675964,103.009720 304.681274,103.725685 
	C314.870270,104.454796 322.813904,100.252747 328.005157,91.409363 
	C333.149902,82.645210 331.919434,72.280724 324.545135,62.992580 
M479.122009,79.963318 
	C479.122009,86.864555 479.122009,93.765785 479.122009,101.115059 
	C468.345734,93.116318 457.512054,93.030052 450.386566,100.433876 
	C443.749207,107.330505 443.074768,119.323883 449.034637,127.051422 
	C452.705688,131.811310 457.689484,133.958145 463.710052,134.236740 
	C469.670349,134.512527 474.424042,132.031998 479.213562,127.619339 
	C479.213562,130.305984 479.213562,132.053818 479.213562,133.793320 
	C480.962646,133.793320 482.383759,133.793320 483.890320,133.793320 
	C483.890320,115.534370 483.890320,97.507523 483.890320,79.261230 
	C482.303223,79.261230 481.010742,79.261230 479.122009,79.963318 
M654.479675,116.191338 
	C658.237488,116.191338 661.995239,116.191338 665.732117,116.191338 
	C665.818237,104.677177 660.149902,96.878098 651.003479,95.152817 
	C641.429260,93.346848 632.395447,98.216347 629.229919,106.889450 
	C625.748291,116.429039 629.377563,127.017929 637.558472,131.710205 
	C644.791199,135.858612 658.857361,135.022125 663.129028,127.595078 
	C662.259521,126.654488 661.322510,125.640846 660.310669,124.546188 
	C654.352173,129.684021 647.862122,130.799255 641.087463,127.625435 
	C636.686401,125.563553 633.839355,121.939354 633.962097,116.191544 
	C640.593384,116.191544 647.040405,116.191544 654.479675,116.191338 
M508.310333,128.840210 
	C501.147186,125.830406 498.456207,122.357246 498.633545,115.990829 
	C509.053040,115.990829 519.485352,115.990829 529.885559,115.990829 
	C530.526428,105.178810 525.023010,97.254936 515.723328,95.222839 
	C506.104095,93.120918 497.063110,98.017975 493.703400,107.149963 
	C490.179596,116.728020 493.855255,127.088112 502.227234,131.819199 
	C509.503662,135.931198 523.899963,134.830704 527.707031,127.186554 
	C526.917969,126.189659 526.028870,125.066414 525.050720,123.830696 
	C520.102356,129.061020 514.844727,129.809509 508.310333,128.840210 
M416.604492,116.193619 
	C424.552765,116.193619 432.501038,116.193619 440.379944,116.193619 
	C441.541290,106.029747 435.977844,97.670532 426.909485,95.343124 
	C417.476410,92.922119 407.927429,97.697044 404.457733,106.570076 
	C400.697876,116.185097 404.307678,127.037628 412.745117,131.779297 
	C420.239166,135.990768 434.451782,134.844574 438.130676,127.437813 
	C437.256165,126.515770 436.315094,125.523575 435.345428,124.501221 
	C429.301147,129.765427 422.828461,130.766937 416.055786,127.558571 
	C411.625916,125.460037 408.868317,121.811600 409.029480,116.194519 
	C411.350220,116.194519 413.494812,116.194519 416.604492,116.193619 
M542.893250,95.363449 
	C541.455627,95.363449 540.018005,95.363449 538.115051,95.363449 
	C538.115051,101.930588 538.115051,108.228729 538.115051,114.526863 
	C538.115051,120.965012 538.115051,127.403152 538.115051,134.115234 
	C540.366821,133.990479 541.959290,133.902252 543.887756,133.795410 
	C543.887756,126.997993 543.792603,120.524170 543.910706,114.054253 
	C544.074036,105.107933 547.861633,101.070694 556.744690,100.057121 
	C557.162292,100.009476 557.555847,99.751740 558.111267,99.532356 
	C557.995667,97.979485 557.889465,96.553284 557.678650,93.720924 
	C552.583496,95.797806 548.170837,97.596489 543.778809,99.386772 
	C543.691162,98.626144 543.540527,97.318199 542.893250,95.363449 
M450.326965,158.928207 
	C454.288147,156.605118 455.173523,153.471802 452.066650,152.070114 
	C450.637512,151.425354 447.413361,152.022095 446.660614,153.156113 
	C444.802185,155.955750 446.335602,158.123779 450.326965,158.928207 
z"/>
<path fill="#032F51" opacity="1.000000" stroke="none" 
	d="
M72.545891,1.000000 
	C79.879410,2.328058 86.786087,3.532011 93.626938,5.035508 
	C97.150795,5.809992 100.557472,7.117666 104.510468,8.336538 
	C102.158676,20.017437 99.876343,31.353300 97.614296,42.588425 
	C93.532242,41.983280 89.687210,41.002243 85.823837,40.923717 
	C77.019600,40.744762 68.966187,47.305614 68.144089,56.010815 
	C67.431808,63.553127 67.996010,71.215981 67.996010,79.276474 
	C77.530838,79.276474 87.114388,79.276474 97.110046,79.276474 
	C97.110046,89.418907 97.110046,99.123222 97.110046,109.320877 
	C87.584450,109.320877 78.010361,109.320877 67.824783,109.320877 
	C67.824783,140.880417 67.824783,171.955765 67.428329,203.704010 
	C65.261902,204.585800 63.492722,204.967545 61.721832,204.975647 
	C49.846272,205.030014 37.970062,204.965485 26.094845,205.049789 
	C24.394400,205.061844 22.698175,205.668518 21.000000,206.000000 
	C20.555555,206.000000 20.111111,206.000000 19.442387,205.542282 
	C19.218107,173.287308 19.218107,141.490067 19.218107,110.000000 
	C12.559381,110.000000 6.779691,110.000000 1.000000,110.000000 
	C1.000000,99.979103 1.000000,89.958214 1.430654,79.670517 
	C7.465167,79.403725 13.069025,79.403725 19.161619,79.403725 
	C19.161619,69.453392 18.893105,59.847702 19.216768,50.262012 
	C19.919682,29.444365 29.734896,14.344337 48.664238,5.549106 
	C53.173824,3.453793 58.207424,2.486260 63.000000,1.000000 
	C66.030594,1.000000 69.061188,1.000000 72.545891,1.000000 
z"/>
<path fill="#FDFEFE" opacity="1.000000" stroke="none" 
	d="
M62.531342,1.000000 
	C58.207424,2.486260 53.173824,3.453793 48.664238,5.549106 
	C29.734896,14.344337 19.919682,29.444365 19.216768,50.262012 
	C18.893105,59.847702 19.161619,69.453392 19.161619,79.403725 
	C13.069025,79.403725 7.465167,79.403725 1.430654,79.201859 
	C1.000000,53.081501 1.000000,27.163002 1.000000,1.000000 
	C21.353575,1.000000 41.708130,1.000000 62.531342,1.000000 
z"/>
<path fill="#FFFFFF" opacity="1.000000" stroke="none" 
	d="
M1.000000,110.468658 
	C6.779691,110.000000 12.559381,110.000000 19.218107,110.000000 
	C19.218107,141.490067 19.218107,173.287308 19.109055,205.542282 
	C13.023118,206.000000 7.046236,206.000000 1.000000,206.000000 
	C1.000000,174.312469 1.000000,142.624893 1.000000,110.468658 
z"/>
<path fill="#FBFDFD" opacity="1.000000" stroke="none" 
	d="
M240.000000,206.000000 
	C225.312439,206.000000 210.624878,206.000000 195.429398,205.735413 
	C194.890915,205.295151 194.860367,205.119461 194.983932,204.609375 
	C202.562347,183.806824 209.986664,163.338669 217.723953,142.007599 
	C225.378311,163.199509 232.743256,183.590164 240.072952,204.322418 
	C240.025146,205.109360 240.012573,205.554672 240.000000,206.000000 
z"/>
<path fill="#113653" opacity="1.000000" stroke="none" 
	d="
M393.416626,206.000000 
	C388.911469,194.609802 384.825653,183.218613 380.730865,171.830643 
	C380.228119,170.432343 379.677460,169.051254 379.086029,167.496719 
	C382.610016,166.160034 384.446228,167.075378 385.672699,170.729568 
	C388.728271,179.833221 392.189270,188.800781 395.969147,199.140518 
	C398.033783,193.705521 399.692535,189.360092 401.335449,185.008698 
	C403.211761,180.039032 404.928955,175.001221 407.038239,170.132950 
	C407.607361,168.819489 409.367554,167.179840 410.543945,167.208557 
	C411.720886,167.237274 413.387756,168.955231 413.915924,170.296539 
	C417.542023,179.505173 420.925537,188.809326 424.812317,199.221664 
	C428.558838,189.077789 432.059143,180.000595 435.227631,170.808990 
	C436.366119,167.506332 437.900574,166.009277 441.890289,167.556015 
	C436.936523,180.126205 431.982910,192.696030 427.014648,205.632935 
	C425.611115,206.000000 424.222198,206.000000 422.385406,205.626678 
	C418.202179,195.377563 414.466888,185.501770 410.457977,174.902603 
	C406.076782,185.838867 402.038391,195.919434 398.000000,206.000000 
	C396.611115,206.000000 395.222198,206.000000 393.416626,206.000000 
z"/>
<path fill="#0E3351" opacity="1.000000" stroke="none" 
	d="
M560.460632,206.000000 
	C553.700562,202.445267 547.955994,198.538971 546.745178,190.496689 
	C545.537537,182.475525 547.134644,175.471176 553.796021,170.484985 
	C560.048889,165.804535 567.092773,165.367188 574.037964,168.846527 
	C581.602173,172.636017 584.246399,179.336227 584.012390,188.014465 
	C573.394226,188.014465 562.846985,188.014465 552.076172,188.014465 
	C552.324219,194.003937 555.244995,197.704758 559.921448,199.733826 
	C566.630615,202.644897 572.938538,201.496536 578.609680,196.273087 
	C579.616821,197.428177 580.541626,198.488861 582.309631,200.516647 
	C578.608704,202.295013 575.452881,203.811478 572.148499,205.663971 
	C568.307068,206.000000 564.614197,206.000000 560.460632,206.000000 
M578.036865,180.621582 
	C574.706055,173.395264 569.843567,170.572266 562.786804,171.767990 
	C556.634888,172.810394 552.942993,176.950226 552.188782,183.981461 
	C560.295776,183.981461 568.369385,184.038467 576.438110,183.868988 
	C577.057678,183.855972 577.643616,182.245178 578.036865,180.621582 
z"/>
<path fill="#103553" opacity="1.000000" stroke="none" 
	d="
M501.460632,206.000000 
	C498.779877,204.705765 496.434052,203.585236 494.362305,202.085983 
	C486.936523,196.712112 484.601715,185.600067 488.943542,176.925217 
	C493.033966,168.752640 502.363586,164.792145 511.311584,167.429810 
	C520.283325,170.074448 525.318237,178.047104 524.030029,188.198090 
	C513.743225,188.198090 503.374634,188.198090 492.995789,188.198090 
	C493.638855,200.962112 506.208466,204.825180 519.402710,196.612381 
	C520.307373,197.604233 521.244141,198.631317 522.911743,200.459671 
	C519.271790,202.287033 516.255005,203.801544 513.119141,205.658020 
	C509.307098,206.000000 505.614166,206.000000 501.460632,206.000000 
M493.602295,184.628845 
	C499.036560,184.754395 504.472687,185.021301 509.904358,184.949951 
	C512.932068,184.910202 515.952332,184.307678 519.083862,183.194092 
	C517.398926,175.146576 512.002014,170.892029 504.379333,171.601990 
	C497.537567,172.239197 493.023163,177.178497 493.602295,184.628845 
z"/>
<path fill="#133755" opacity="1.000000" stroke="none" 
	d="
M595.464661,206.000000 
	C592.322388,204.536514 589.644775,203.073013 586.761658,201.497223 
	C587.616333,199.933624 588.315125,198.655197 588.426575,198.451324 
	C594.813843,199.374084 600.523926,200.505341 606.285339,200.913345 
	C609.598145,201.147949 612.650330,199.532135 613.007263,195.647217 
	C613.367493,191.727097 610.271606,190.734421 607.288086,189.992218 
	C603.427979,189.031982 599.501526,188.330673 595.659851,187.307053 
	C591.198486,186.118347 588.414124,183.219559 588.187195,178.483978 
	C587.965942,173.867203 590.242126,170.606857 594.352966,168.562164 
	C600.319214,165.594650 610.008484,166.302170 617.131165,170.439392 
	C616.568604,171.666183 615.987793,172.932678 615.385864,174.245346 
	C614.709778,174.195297 614.251709,174.189407 613.802307,174.123810 
	C608.979248,173.419724 604.136780,172.119324 599.345703,172.288071 
	C597.465454,172.354309 594.643860,175.507339 594.249146,177.626694 
	C593.978699,179.079514 596.834229,181.879944 598.871887,182.814835 
	C601.812805,184.164139 605.285706,184.338654 608.519836,185.067108 
	C615.520813,186.643997 618.610168,189.609100 618.733887,194.808060 
	C618.855408,199.915131 615.758606,203.359314 609.135864,205.665894 
	C604.643127,206.000000 600.286194,206.000000 595.464661,206.000000 
z"/>
<path fill="#123754" opacity="1.000000" stroke="none" 
	d="
M628.466125,206.000000 
	C625.657166,204.599655 623.314392,203.199295 620.524841,201.531906 
	C621.230530,200.062943 621.892273,198.685608 621.986267,198.489914 
	C628.390686,199.428375 633.978210,200.557632 639.617737,200.960663 
	C643.172363,201.214691 646.424561,199.461212 646.669678,195.424118 
	C646.897400,191.673111 643.731018,190.635651 640.689880,189.932022 
	C636.972046,189.071838 633.224670,188.326187 629.535339,187.358673 
	C624.903809,186.144104 621.943115,183.385925 621.818420,178.272720 
	C621.691467,173.066299 624.435669,169.659790 629.059204,168.088303 
	C636.479004,165.566422 643.726929,166.434631 650.922668,170.288757 
	C650.127197,171.775040 649.460022,173.021530 649.281494,173.355179 
	C643.630310,172.821289 638.583679,171.737030 633.663269,172.151611 
	C631.409485,172.341507 628.201843,175.135803 627.566406,177.360199 
	C626.600525,180.741501 629.803101,182.437988 632.968872,183.136429 
	C636.050903,183.816391 639.159119,184.381592 642.230530,185.104691 
	C649.113953,186.725220 651.984375,189.464966 652.172546,194.464249 
	C652.380737,199.992035 649.908081,202.976593 643.096802,205.651154 
	C638.310730,206.000000 633.621521,206.000000 628.466125,206.000000 
z"/>
<path fill="#F7FBFC" opacity="1.000000" stroke="none" 
	d="
M398.468628,206.000000 
	C402.038391,195.919434 406.076782,185.838867 410.457977,174.902603 
	C414.466888,185.501770 418.202179,195.377563 421.968750,205.626678 
	C414.312408,206.000000 406.624847,206.000000 398.468628,206.000000 
z"/>
<path fill="#072D4C" opacity="1.000000" stroke="none" 
	d="
M533.399963,206.000000 
	C533.000000,187.914932 533.000000,169.829865 533.000000,151.415329 
	C534.602112,151.317581 536.012329,151.231537 537.435608,151.144699 
	C537.716675,151.777954 538.078491,152.213837 538.079712,152.650726 
	C538.126953,169.436752 538.151062,186.222885 538.126892,203.008926 
	C538.125854,203.750107 537.644775,204.490601 537.193665,205.615723 
	C535.933289,206.000000 534.866638,206.000000 533.399963,206.000000 
z"/>
<path fill="#0A3150" opacity="1.000000" stroke="none" 
	d="
M464.333313,206.000000 
	C464.158081,196.238815 464.328125,186.477798 464.467255,176.716339 
	C464.511749,173.594009 464.474274,170.470490 464.474274,167.169891 
	C466.355865,167.169891 467.807129,167.169891 469.636322,167.169891 
	C469.769043,168.930405 469.896973,170.627869 469.968353,171.574493 
	C474.331909,169.687210 478.697937,167.798859 483.745667,165.615677 
	C483.994781,168.404449 484.121704,169.825317 484.288971,171.697723 
	C477.478851,171.931061 472.307770,174.453079 469.972168,182.005463 
	C469.295471,190.083191 469.144501,197.604843 468.671997,205.185486 
	C467.566986,205.496307 466.783508,205.748169 466.000000,206.000000 
	C465.555542,206.000000 465.111115,206.000000 464.333313,206.000000 
z"/>
<path fill="#183E5B" opacity="1.000000" stroke="none" 
	d="
M447.428467,206.000000 
	C447.000000,193.088867 447.000000,180.177750 447.000000,167.176392 
	C448.981873,167.176392 450.565186,167.176392 452.557495,167.176392 
	C452.557495,179.978653 452.557495,192.565872 452.778748,205.576538 
	C451.285645,206.000000 449.571289,206.000000 447.428467,206.000000 
z"/>
<path fill="#B9CCDD" opacity="1.000000" stroke="none" 
	d="
M708.778564,79.173065 
	C708.980774,79.134483 709.182922,79.095909 709.692566,79.028671 
	C710.000000,97.020897 710.000000,115.041786 710.000000,133.531342 
	C709.818420,133.996384 709.636780,133.992752 709.234375,133.495361 
	C708.935181,115.058746 708.856873,97.115906 708.778564,79.173065 
z"/>
<path fill="#456178" opacity="1.000000" stroke="none" 
	d="
M21.468657,206.000000 
	C22.698175,205.668518 24.394400,205.061844 26.094845,205.049789 
	C37.970062,204.965485 49.846272,205.030014 61.721832,204.975647 
	C63.492722,204.967545 65.261902,204.585800 67.377831,204.167389 
	C67.786652,204.409210 67.849510,204.860550 67.956192,205.655945 
	C52.645771,206.000000 37.291542,206.000000 21.468657,206.000000 
z"/>
<path fill="#416483" opacity="1.000000" stroke="none" 
	d="
M240.468658,206.000000 
	C240.012573,205.554672 240.025146,205.109360 240.432678,204.527222 
	C242.280472,204.596497 243.732849,204.977448 245.186249,204.981430 
	C258.776917,205.018692 272.367798,204.991333 285.958618,204.982666 
	C285.983643,205.151474 286.008667,205.320297 286.016846,205.744568 
	C270.979095,206.000000 255.958206,206.000000 240.468658,206.000000 
z"/>
<path fill="#416483" opacity="1.000000" stroke="none" 
	d="
M194.829819,204.943771 
	C194.860367,205.119461 194.890915,205.295151 194.960739,205.735413 
	C179.979111,206.000000 164.958206,206.000000 149.468658,206.000000 
	C149.032364,205.825867 149.064743,205.651733 149.436279,205.206024 
	C150.170197,204.906052 150.564957,204.877640 151.427917,204.904388 
	C166.207367,204.954300 180.518600,204.949036 194.829819,204.943771 
z"/>
<path fill="#7B90A0" opacity="1.000000" stroke="none" 
	d="
M466.399994,206.000000 
	C466.783508,205.748169 467.566986,205.496307 468.918762,205.200745 
	C469.487030,205.157028 469.934814,204.946991 469.934814,204.946991 
	C469.987000,205.119934 470.039185,205.292877 470.045685,205.732910 
	C468.933319,206.000000 467.866669,206.000000 466.399994,206.000000 
z"/>
<path fill="#032E51" opacity="1.000000" stroke="none" 
	d="
M194.983932,204.609375 
	C180.518600,204.949036 166.207367,204.954300 151.447952,204.525635 
	C154.698700,193.323105 158.430939,182.565796 162.086777,171.782578 
	C165.423248,161.941269 168.676941,152.071884 171.967102,142.214890 
	C176.985184,128.715042 182.022034,115.222137 187.013046,101.712303 
	C189.372223,95.326424 191.487518,88.843781 194.078629,82.555519 
	C194.637238,81.199844 196.753525,79.642792 198.177048,79.618301 
	C211.173065,79.394722 224.177567,79.644035 237.172455,79.389969 
	C240.700455,79.320999 241.194748,81.378723 242.049332,83.750015 
	C248.638565,102.033546 255.260712,120.305214 261.883942,138.576462 
	C262.271912,139.646744 262.757874,140.681519 263.459839,142.357224 
	C268.136414,129.521942 272.591125,117.295624 277.166046,104.739418 
	C288.349457,116.524025 301.502197,120.635414 317.747009,116.991928 
	C307.149017,146.490707 296.751373,175.431808 286.156189,204.677795 
	C272.367798,204.991333 258.776917,205.018692 245.186249,204.981430 
	C243.732849,204.977448 242.280472,204.596497 240.467896,204.185608 
	C232.743256,183.590164 225.378311,163.199509 217.723953,142.007599 
	C209.986664,163.338669 202.562347,183.806824 194.983932,204.609375 
z"/>
<path fill="#052E50" opacity="1.000000" stroke="none" 
	d="
M130.844009,153.060974 
	C122.016174,128.893906 113.188347,104.726845 104.251038,80.260056 
	C105.351669,79.932503 106.086403,79.525322 106.822548,79.522766 
	C119.978088,79.477005 133.134903,79.403625 146.287766,79.592628 
	C147.590927,79.611359 149.508072,81.025299 150.035522,82.262611 
	C151.379074,85.414368 152.096817,88.832893 152.721008,92.623337 
	C151.895813,95.982712 151.690796,98.944412 150.874802,101.726936 
	C149.275070,107.181885 147.247452,112.510010 145.570694,117.944237 
	C144.659821,120.896347 144.868195,124.477501 143.240372,126.868515 
	C139.255112,132.722260 136.245987,138.693695 135.921417,145.906769 
	C135.773148,149.201721 134.483521,152.061081 130.844009,153.060974 
z"/>
<path fill="#36D661" opacity="1.000000" stroke="none" 
	d="
M324.773193,63.271629 
	C331.919434,72.280724 333.149902,82.645210 328.005157,91.409363 
	C322.813904,100.252747 314.870270,104.454796 304.681274,103.725685 
	C294.675964,103.009720 286.557526,96.103119 283.658173,86.491982 
	C280.610352,76.388763 284.769196,64.968033 293.539581,59.356457 
	C303.642242,52.892464 314.984161,54.222561 324.773193,63.271629 
z"/>
<path fill="#022746" opacity="1.000000" stroke="none" 
	d="
M130.867981,153.444397 
	C134.483521,152.061081 135.773148,149.201721 135.921417,145.906769 
	C136.245987,138.693695 139.255112,132.722260 143.240372,126.868515 
	C144.868195,124.477501 144.659821,120.896347 145.570694,117.944237 
	C147.247452,112.510010 149.275070,107.181885 150.874802,101.726936 
	C151.690796,98.944412 151.895813,95.982712 152.751160,93.028610 
	C156.012573,100.069366 158.899826,107.183510 161.656998,114.779282 
	C161.688782,115.506424 161.850662,115.751930 162.012527,115.997444 
	C162.379578,117.095474 162.746628,118.193504 162.623199,119.689178 
	C159.733841,125.307236 157.240234,130.486603 154.956085,135.756760 
	C150.448547,146.156845 146.026443,156.594482 141.670700,167.058945 
	C141.287186,167.980331 141.239807,169.478210 141.739990,170.255493 
	C143.936447,173.668747 142.793762,176.105408 139.884567,178.225784 
	C136.887024,170.093124 133.889481,161.960464 130.867981,153.444397 
z"/>
<path fill="#0E3452" opacity="1.000000" stroke="none" 
	d="
M708.348694,79.157349 
	C708.856873,97.115906 708.935181,115.058746 708.963928,133.462296 
	C707.441223,133.923004 705.968079,133.923004 704.169434,133.923004 
	C704.063049,132.065338 703.961487,130.292465 703.824341,127.898636 
	C699.416870,131.939896 694.714844,134.488129 688.782715,134.236343 
	C682.980225,133.990021 678.056274,132.104218 674.386719,127.564407 
	C668.221130,119.936531 668.496399,107.930222 674.869080,100.939919 
	C681.945374,93.177780 691.856812,92.973724 703.819031,100.612328 
	C703.819031,96.946869 703.819031,93.525665 703.819031,90.104462 
	C703.819031,86.639442 703.819031,83.174416 703.819031,79.141640 
	C705.410889,79.141640 706.664856,79.141640 708.348694,79.157349 
M693.764893,128.879257 
	C695.100037,128.230896 696.533752,127.729271 697.753479,126.909241 
	C703.560181,123.005249 705.573364,114.658485 702.455078,107.779945 
	C699.621277,101.529007 692.842712,98.420395 685.862427,100.170609 
	C679.479248,101.771111 675.149231,108.155769 675.562744,115.357307 
	C676.107239,124.838051 682.648743,129.979233 693.764893,128.879257 
z"/>
<path fill="#0E3452" opacity="1.000000" stroke="none" 
	d="
M479.420166,79.612274 
	C481.010742,79.261230 482.303223,79.261230 483.890320,79.261230 
	C483.890320,97.507523 483.890320,115.534370 483.890320,133.793320 
	C482.383759,133.793320 480.962646,133.793320 479.213562,133.793320 
	C479.213562,132.053818 479.213562,130.305984 479.213562,127.619339 
	C474.424042,132.031998 469.670349,134.512527 463.710052,134.236740 
	C457.689484,133.958145 452.705688,131.811310 449.034637,127.051422 
	C443.074768,119.323883 443.749207,107.330505 450.386566,100.433876 
	C457.512054,93.030052 468.345734,93.116318 479.122009,101.115059 
	C479.122009,93.765785 479.122009,86.864555 479.420166,79.612274 
M461.999481,99.977364 
	C460.740265,100.372742 459.401276,100.608269 458.235229,101.190315 
	C452.178040,104.213860 449.209106,111.898949 451.198547,119.177368 
	C452.988892,125.727333 458.729492,129.649292 465.897217,129.219452 
	C472.668671,128.813370 477.833130,124.039009 478.819305,116.967918 
	C480.116516,107.666771 473.689972,98.408737 461.999481,99.977364 
z"/>
<path fill="#02213C" opacity="1.000000" stroke="none" 
	d="
M139.889755,178.596527 
	C142.793762,176.105408 143.936447,173.668747 141.739990,170.255493 
	C141.239807,169.478210 141.287186,167.980331 141.670700,167.058945 
	C146.026443,156.594482 150.448547,146.156845 154.956085,135.756760 
	C157.240234,130.486603 159.733841,125.307236 162.517395,119.972542 
	C164.550110,123.660912 166.198166,127.463562 167.471527,131.695480 
	C166.398026,133.625931 165.487167,135.069290 165.057648,136.643936 
	C164.591599,138.352463 164.919724,140.313828 164.306000,141.940186 
	C158.995529,156.012497 153.368759,169.968887 148.294342,184.124039 
	C147.235855,187.076752 146.148987,188.300537 143.222961,188.000732 
	C142.113617,184.989578 141.004288,181.978409 139.889755,178.596527 
z"/>
<path fill="#133754" opacity="1.000000" stroke="none" 
	d="
M653.983521,116.191437 
	C647.040405,116.191544 640.593384,116.191544 633.962097,116.191544 
	C633.839355,121.939354 636.686401,125.563553 641.087463,127.625435 
	C647.862122,130.799255 654.352173,129.684021 660.310669,124.546188 
	C661.322510,125.640846 662.259521,126.654488 663.129028,127.595078 
	C658.857361,135.022125 644.791199,135.858612 637.558472,131.710205 
	C629.377563,127.017929 625.748291,116.429039 629.229919,106.889450 
	C632.395447,98.216347 641.429260,93.346848 651.003479,95.152817 
	C660.149902,96.878098 665.818237,104.677177 665.732117,116.191338 
	C661.995239,116.191338 658.237488,116.191338 653.983521,116.191437 
M634.086243,109.205826 
	C633.506531,111.261810 634.004578,112.220428 636.418091,112.184120 
	C644.231140,112.066620 652.046997,112.140244 659.870605,112.140244 
	C659.620361,105.796288 656.008484,101.280365 650.453857,100.032784 
	C643.287903,98.423302 637.909180,101.213669 634.086243,109.205826 
z"/>
<path fill="#113653" opacity="1.000000" stroke="none" 
	d="
M508.727020,128.904266 
	C514.844727,129.809509 520.102356,129.061020 525.050720,123.830696 
	C526.028870,125.066414 526.917969,126.189659 527.707031,127.186554 
	C523.899963,134.830704 509.503662,135.931198 502.227234,131.819199 
	C493.855255,127.088112 490.179596,116.728020 493.703400,107.149963 
	C497.063110,98.017975 506.104095,93.120918 515.723328,95.222839 
	C525.023010,97.254936 530.526428,105.178810 529.885559,115.990829 
	C519.485352,115.990829 509.053040,115.990829 498.633545,115.990829 
	C498.456207,122.357246 501.147186,125.830406 508.727020,128.904266 
M520.432373,102.939980 
	C513.375854,96.133438 498.566772,100.076988 498.340759,111.979462 
	C507.088501,111.979462 515.833191,111.979462 525.668152,111.979462 
	C523.910034,108.753593 522.459717,106.092522 520.432373,102.939980 
z"/>
<path fill="#133754" opacity="1.000000" stroke="none" 
	d="
M416.121948,116.194069 
	C413.494812,116.194519 411.350220,116.194519 409.029480,116.194519 
	C408.868317,121.811600 411.625916,125.460037 416.055786,127.558571 
	C422.828461,130.766937 429.301147,129.765427 435.345428,124.501221 
	C436.315094,125.523575 437.256165,126.515770 438.130676,127.437813 
	C434.451782,134.844574 420.239166,135.990768 412.745117,131.779297 
	C404.307678,127.037628 400.697876,116.185097 404.457733,106.570076 
	C407.927429,97.697044 417.476410,92.922119 426.909485,95.343124 
	C435.977844,97.670532 441.541290,106.029747 440.379944,116.193619 
	C432.501038,116.193619 424.552765,116.193619 416.121948,116.194069 
M428.077179,100.967285 
	C417.819183,97.474030 409.344208,102.359283 409.257172,111.960052 
	C417.823151,111.960052 426.387360,111.960052 434.959625,111.960052 
	C434.716827,106.765953 433.697388,105.024841 428.077179,100.967285 
z"/>
<path fill="#021B33" opacity="1.000000" stroke="none" 
	d="
M143.243652,188.363571 
	C146.148987,188.300537 147.235855,187.076752 148.294342,184.124039 
	C153.368759,169.968887 158.995529,156.012497 164.306000,141.940186 
	C164.919724,140.313828 164.591599,138.352463 165.057648,136.643936 
	C165.487167,135.069290 166.398026,133.625931 167.473450,132.062408 
	C169.101685,135.191696 170.353317,138.383347 171.786026,141.894928 
	C168.676941,152.071884 165.423248,161.941269 162.086777,171.782578 
	C158.430939,182.565796 154.698700,193.323105 150.979736,204.470459 
	C150.564957,204.877640 150.170197,204.906052 149.478363,204.943710 
	C147.208954,199.544113 145.236649,194.135254 143.243652,188.363571 
z"/>
<path fill="#0E3351" opacity="1.000000" stroke="none" 
	d="
M589.152344,132.995529 
	C589.046204,131.844009 588.940186,130.692474 588.790833,129.071457 
	C584.203857,133.660019 578.755432,134.714325 572.807251,134.061707 
	C565.995117,133.314285 561.607239,129.004257 561.592346,122.989594 
	C561.577332,116.889442 565.794067,112.571335 572.827087,112.110725 
	C577.944519,111.775566 583.101501,112.045212 588.720886,112.045212 
	C588.809143,107.675789 588.451355,103.900002 584.684265,101.384521 
	C580.326355,98.474594 572.444458,99.536629 565.186157,104.035782 
	C564.379517,102.891014 563.561035,101.729370 562.767517,100.603241 
	C573.133240,90.414619 590.299011,93.672829 593.619141,106.980896 
	C593.201294,114.773758 592.975952,121.877357 593.052979,128.977676 
	C593.084778,131.913818 592.275574,133.418686 589.152344,132.995529 
M579.608887,116.011665 
	C577.141724,116.216614 574.321472,115.749428 572.303467,116.809448 
	C570.146301,117.942604 567.308655,120.573059 567.382690,122.446503 
	C567.473022,124.729385 569.820374,127.990120 572.009399,128.936813 
	C581.149109,132.889465 589.611084,126.212685 588.374939,116.011375 
	C585.806335,116.011375 583.179077,116.011375 579.608887,116.011665 
z"/>
<path fill="#0E3452" opacity="1.000000" stroke="none" 
	d="
M386.147858,101.027145 
	C384.044922,100.467140 381.942017,99.907135 379.262970,99.193718 
	C379.201355,98.379089 379.097870,97.010712 378.973877,95.371567 
	C381.417755,95.223053 383.500000,95.096519 385.975739,94.946068 
	C385.975739,93.778648 385.961487,92.819542 385.977936,91.860954 
	C386.145966,82.066872 392.392090,77.358971 401.770325,79.953323 
	C405.544098,80.997284 405.684082,81.410194 403.631531,85.442253 
	C394.173523,82.249443 390.974548,84.567345 391.322693,94.931061 
	C395.007782,94.931061 398.731110,94.931061 402.771973,94.931061 
	C402.869507,96.720558 402.937897,97.975494 403.036682,99.787231 
	C399.104156,99.787231 395.380493,99.787231 391.158203,99.787231 
	C391.158203,110.580048 391.158203,120.834488 390.638367,131.541199 
	C389.081818,130.896912 387.273010,129.879425 387.151154,128.689194 
	C386.763885,124.906624 387.109955,121.056084 386.978516,117.238503 
	C386.792297,111.831589 386.433105,106.430641 386.147858,101.027145 
z"/>
<path fill="#113653" opacity="1.000000" stroke="none" 
	d="
M612.092834,125.006302 
	C615.490112,130.029785 616.945740,130.396500 624.674500,128.007004 
	C625.160767,129.125259 625.661377,130.276459 626.226196,131.575348 
	C621.554443,134.931137 616.703491,135.129105 611.920532,132.911163 
	C607.357849,130.795380 606.672180,126.520988 606.767761,121.909882 
	C606.915649,114.773972 606.806763,107.632736 606.806763,100.187523 
	C604.549438,100.008255 602.622864,99.855255 600.197266,99.662621 
	C600.071655,98.397476 599.937073,97.042740 599.775940,95.420219 
	C602.251343,95.216942 604.332336,95.046043 606.786987,94.844467 
	C606.786987,92.180046 606.786987,89.749756 606.786987,87.067657 
	C608.604980,87.067657 610.028625,87.067657 611.966797,87.067657 
	C611.966797,89.586952 611.966797,92.161461 611.966797,95.119843 
	C616.064392,95.119843 619.660278,95.119843 623.318970,95.119843 
	C624.508667,98.581657 623.806824,100.095665 620.188904,99.917931 
	C617.556458,99.788620 614.901306,100.122841 611.785706,100.959137 
	C611.207642,106.106918 610.931335,110.550400 611.047791,114.983543 
	C611.135803,118.331306 611.726074,121.665871 612.092834,125.006302 
z"/>
<path fill="#193C58" opacity="1.000000" stroke="none" 
	d="
M543.141541,95.686859 
	C543.540527,97.318199 543.691162,98.626144 543.778809,99.386772 
	C548.170837,97.596489 552.583496,95.797806 557.678650,93.720924 
	C557.889465,96.553284 557.995667,97.979485 558.111267,99.532356 
	C557.555847,99.751740 557.162292,100.009476 556.744690,100.057121 
	C547.861633,101.070694 544.074036,105.107933 543.910706,114.054253 
	C543.792603,120.524170 543.887756,126.997993 543.887756,133.795410 
	C541.959290,133.902252 540.366821,133.990479 538.115051,134.115234 
	C538.115051,127.403152 538.115051,120.965012 538.115051,114.526863 
	C538.115051,108.228729 538.115051,101.930588 538.115051,95.363449 
	C540.018005,95.363449 541.455627,95.363449 543.141541,95.686859 
z"/>
<path fill="#193C58" opacity="1.000000" stroke="none" 
	d="
M449.942322,158.942413 
	C446.335602,158.123779 444.802185,155.955750 446.660614,153.156113 
	C447.413361,152.022095 450.637512,151.425354 452.066650,152.070114 
	C455.173523,153.471802 454.288147,156.605118 449.942322,158.942413 
z"/>
<path fill="#0F293F" opacity="1.000000" stroke="none" 
	d="
M386.078918,101.489456 
	C386.433105,106.430641 386.792297,111.831589 386.978516,117.238503 
	C387.109955,121.056084 386.763885,124.906624 387.151154,128.689194 
	C387.273010,129.879425 389.081818,130.896912 390.537964,132.001053 
	C389.615021,132.860367 388.272614,133.712082 386.010010,135.147659 
	C386.010010,123.080460 386.010010,112.516113 386.078918,101.489456 
z"/>
<path fill="#0F293F" opacity="1.000000" stroke="none" 
	d="
M589.260010,133.399506 
	C592.275574,133.418686 593.084778,131.913818 593.052979,128.977676 
	C592.975952,121.877357 593.201294,114.773758 593.564331,107.351906 
	C593.823853,115.912956 593.823853,124.793579 593.823853,133.803497 
	C592.248352,133.803497 590.807983,133.803497 589.260010,133.399506 
z"/>
<path fill="#0F293F" opacity="1.000000" stroke="none" 
	d="
M612.120605,124.538437 
	C611.726074,121.665871 611.135803,118.331306 611.047791,114.983543 
	C610.931335,110.550400 611.207642,106.106918 611.581665,101.354530 
	C611.948242,108.717644 612.048340,116.394104 612.120605,124.538437 
z"/>
<path fill="#0F293F" opacity="1.000000" stroke="none" 
	d="
M469.967041,204.482819 
	C469.934814,204.946991 469.487030,205.157028 469.240295,205.141769 
	C469.144501,197.604843 469.295471,190.083191 469.757812,182.280624 
	C470.045898,189.339371 470.022583,196.679016 469.967041,204.482819 
z"/>
<path fill="#02213C" opacity="1.000000" stroke="none" 
	d="
M162.023590,115.740700 
	C161.850662,115.751930 161.688782,115.506424 161.660797,115.145180 
	C161.874680,115.180954 161.954666,115.332458 162.023590,115.740700 
z"/>
<path fill="#F7FBFC" opacity="1.000000" stroke="none" 
	d="
M578.141052,180.999313 
	C577.643616,182.245178 577.057678,183.855972 576.438110,183.868988 
	C568.369385,184.038467 560.295776,183.981461 552.188782,183.981461 
	C552.942993,176.950226 556.634888,172.810394 562.786804,171.767990 
	C569.843567,170.572266 574.706055,173.395264 578.141052,180.999313 
z"/>
<path fill="#F7FBFC" opacity="1.000000" stroke="none" 
	d="
M492.995392,184.057388 
	C493.023163,177.178497 497.537567,172.239197 504.379333,171.601990 
	C512.002014,170.892029 517.398926,175.146576 518.563721,183.594330 
	C509.694183,184.015518 501.344788,184.036453 492.995392,184.057388 
z"/>
<path fill="#0F293F" opacity="1.000000" stroke="none" 
	d="
M493.298828,184.343109 
	C501.344788,184.036453 509.694183,184.015518 518.509766,183.976685 
	C515.952332,184.307678 512.932068,184.910202 509.904358,184.949951 
	C504.472687,185.021301 499.036560,184.754395 493.298828,184.343109 
z"/>
<path fill="#FAFCFC" opacity="1.000000" stroke="none" 
	d="
M693.347656,128.943039 
	C682.648743,129.979233 676.107239,124.838051 675.562744,115.357307 
	C675.149231,108.155769 679.479248,101.771111 685.862427,100.170609 
	C692.842712,98.420395 699.621277,101.529007 702.455078,107.779945 
	C705.573364,114.658485 703.560181,123.005249 697.753479,126.909241 
	C696.533752,127.729271 695.100037,128.230896 693.347656,128.943039 
z"/>
<path fill="#FAFCFC" opacity="1.000000" stroke="none" 
	d="
M462.420349,99.939926 
	C473.689972,98.408737 480.116516,107.666771 478.819305,116.967918 
	C477.833130,124.039009 472.668671,128.813370 465.897217,129.219452 
	C458.729492,129.649292 452.988892,125.727333 451.198547,119.177368 
	C449.209106,111.898949 452.178040,104.213860 458.235229,101.190315 
	C459.401276,100.608269 460.740265,100.372742 462.420349,99.939926 
z"/>
<path fill="#F7FBFC" opacity="1.000000" stroke="none" 
	d="
M634.197815,108.807037 
	C637.909180,101.213669 643.287903,98.423302 650.453857,100.032784 
	C656.008484,101.280365 659.620361,105.796288 659.870605,112.140244 
	C652.046997,112.140244 644.231140,112.066620 636.418091,112.184120 
	C634.004578,112.220428 633.506531,111.261810 634.197815,108.807037 
z"/>
<path fill="#F7FBFC" opacity="1.000000" stroke="none" 
	d="
M520.720886,103.185715 
	C522.459717,106.092522 523.910034,108.753593 525.668152,111.979462 
	C515.833191,111.979462 507.088501,111.979462 498.340759,111.979462 
	C498.566772,100.076988 513.375854,96.133438 520.720886,103.185715 
z"/>
<path fill="#F7FBFC" opacity="1.000000" stroke="none" 
	d="
M428.442932,101.125946 
	C433.697388,105.024841 434.716827,106.765953 434.959625,111.960052 
	C426.387360,111.960052 417.823151,111.960052 409.257172,111.960052 
	C409.344208,102.359283 417.819183,97.474030 428.442932,101.125946 
z"/>
<path fill="#F4F9FA" opacity="1.000000" stroke="none" 
	d="
M580.080322,116.011520 
	C583.179077,116.011375 585.806335,116.011375 588.374939,116.011375 
	C589.611084,126.212685 581.149109,132.889465 572.009399,128.936813 
	C569.820374,127.990120 567.473022,124.729385 567.382690,122.446503 
	C567.308655,120.573059 570.146301,117.942604 572.303467,116.809448 
	C574.321472,115.749428 577.141724,116.216614 580.080322,116.011520 
z"/>
</svg>