<?xml version="1.0" encoding="UTF-8" standalone="no"?>
<svg
   xmlns:dc="http://purl.org/dc/elements/1.1/"
   xmlns:cc="http://creativecommons.org/ns#"
   xmlns:rdf="http://www.w3.org/1999/02/22-rdf-syntax-ns#"
   xmlns:svg="http://www.w3.org/2000/svg"
   xmlns="http://www.w3.org/2000/svg"
   viewBox="0 0 331.73334 156.62666"
   height="156.62666"
   width="331.73334"
   xml:space="preserve"
   id="svg2"
   version="1.1"><metadata
     id="metadata8"><rdf:RDF><cc:Work
         rdf:about=""><dc:format>image/svg+xml</dc:format><dc:type
           rdf:resource="http://purl.org/dc/dcmitype/StillImage" /></cc:Work></rdf:RDF></metadata><defs
     id="defs6" /><g
     transform="matrix(1.3333333,0,0,-1.3333333,0,156.62667)"
     id="g10"><g
       transform="scale(0.1)"
       id="g12"><path
         id="path14"
         style="fill:#142735;fill-opacity:1;fill-rule:nonzero;stroke:none"
         d="m 186.977,796.441 h -2.59 c -5.379,1.559 -12.41,3.172 -21.094,4.825 -8.707,1.636 -16.34,2.48 -22.922,2.48 -21.027,0 -36.238,-4.637 -45.7147,-13.945 -9.4688,-9.266 -14.1954,-26.055 -14.1954,-50.395 v -9.883 H 168.758 V 688.371 H 82.0469 V 438.66 H 33.0859 V 688.371 H 0 v 41.152 h 33.0859 v 9.649 c 0,34.547 8.5704,61.051 25.7579,79.527 17.1875,18.5 42.0232,27.746 74.4842,27.746 10.938,0 20.781,-0.5 29.559,-1.547 8.754,-1.054 16.797,-2.257 24.09,-3.656 v -44.801" /><path
         id="path16"
         style="fill:#142735;fill-opacity:1;fill-rule:nonzero;stroke:none"
         d="m 413.805,616.516 c -0.196,25.683 -6.649,45.554 -19.383,59.605 -12.781,14.067 -32.203,21.113 -58.238,21.113 -26.204,0 -47.086,-7.711 -62.614,-23.179 -15.554,-15.453 -24.343,-34.645 -26.429,-57.539 z m 47.636,-37.52 h -214.3 c 0,-17.875 2.675,-33.453 8.039,-46.762 5.414,-13.254 12.781,-24.171 22.172,-32.656 9.023,-8.332 19.73,-14.609 32.152,-18.762 12.402,-4.148 26.051,-6.218 41.008,-6.218 19.812,0 39.722,3.933 59.773,11.824 20.059,7.883 34.313,15.676 42.82,23.312 h 2.629 v -53.379 c -16.511,-6.964 -33.336,-12.773 -50.531,-17.453 -17.18,-4.695 -35.25,-7.031 -54.168,-7.031 -48.262,0 -85.949,13.039 -113.019,39.199 -27.094,26.106 -40.621,63.223 -40.621,111.289 0,47.598 12.964,85.352 38.914,113.293 25.968,27.969 60.109,41.938 102.511,41.938 39.223,0 69.453,-11.442 90.727,-34.391 21.289,-22.902 31.894,-55.437 31.894,-97.621 v -26.582" /><path
         id="path18"
         style="fill:#142735;fill-opacity:1;fill-rule:nonzero;stroke:none"
         d="m 722.652,510.262 v 166.922 c -13.187,5.91 -24.996,9.98 -35.433,12.242 -10.395,2.246 -21.762,3.375 -34.09,3.375 -27.453,0 -48.836,-9.535 -64.059,-28.653 -15.285,-19.066 -22.933,-46.164 -22.933,-81.238 0,-34.555 5.918,-60.812 17.738,-78.793 11.77,-17.949 30.691,-26.933 56.766,-26.933 13.875,0 27.929,3.097 42.16,9.218 14.242,6.192 27.512,14.121 39.851,23.86 m 48.946,-71.614 h -48.946 v 30.461 c -14.07,-12.14 -28.754,-21.613 -44.039,-28.39 -15.246,-6.778 -31.808,-10.164 -49.707,-10.164 -34.73,0 -62.293,13.359 -82.683,40.125 -20.414,26.711 -30.606,63.789 -30.606,111.187 0,24.653 3.52,46.594 10.559,65.879 7.019,19.274 16.535,35.68 28.519,49.231 11.774,13.187 25.563,23.25 41.25,30.199 15.739,6.937 31.981,10.414 48.848,10.414 15.258,0 28.812,-1.621 40.633,-4.828 11.789,-3.215 24.199,-8.199 37.226,-14.977 v 126.07 h 48.946 V 438.648" /><path
         id="path20"
         style="fill:#142735;fill-opacity:1;fill-rule:nonzero;stroke:none"
         d="m 1063.78,616.516 c -0.16,25.683 -6.64,45.554 -19.38,59.605 -12.76,14.067 -32.2,21.113 -58.224,21.113 -26.199,0 -47.074,-7.711 -62.613,-23.179 -15.543,-15.453 -24.34,-34.645 -26.43,-57.539 z m 47.67,-37.52 H 897.133 c 0,-17.875 2.687,-33.453 8.078,-46.762 5.363,-13.254 12.766,-24.171 22.121,-32.656 9.023,-8.332 19.738,-14.609 32.141,-18.762 12.422,-4.148 26.09,-6.218 41.007,-6.218 19.82,0 39.73,3.933 59.79,11.824 20.08,7.883 34.33,15.676 42.84,23.312 h 2.6 v -53.379 c -16.51,-6.964 -33.32,-12.773 -50.53,-17.453 -17.16,-4.695 -35.23,-7.031 -54.14,-7.031 -48.282,0 -85.962,13.039 -113.04,39.199 -27.086,26.106 -40.613,63.223 -40.613,111.289 0,47.598 12.961,85.352 38.953,113.293 25.918,27.969 60.094,41.938 102.476,41.938 39.224,0 69.474,-11.442 90.724,-34.391 21.28,-22.902 31.91,-55.437 31.91,-97.621 v -26.582" /><path
         id="path22"
         style="fill:#142735;fill-opacity:1;fill-rule:nonzero;stroke:none"
         d="m 1367.18,676.145 h -2.6 c -7.27,1.703 -14.36,2.992 -21.27,3.769 -6.81,0.785 -14.96,1.191 -24.31,1.191 -15.1,0 -29.68,-3.363 -43.76,-10.042 -14.05,-6.68 -27.6,-15.325 -40.61,-25.918 V 438.648 h -48.97 v 290.86 h 48.97 v -42.942 c 19.42,15.618 36.58,26.692 51.4,33.196 14.86,6.511 30.03,9.746 45.47,9.746 8.52,0 14.66,-0.18 18.48,-0.649 3.81,-0.414 9.57,-1.242 17.2,-2.457 v -50.257" /><path
         id="path24"
         style="fill:#142735;fill-opacity:1;fill-rule:nonzero;stroke:none"
         d="m 1581.25,510.262 v 80.984 c -14.97,-0.883 -32.54,-2.172 -52.71,-3.914 -20.27,-1.73 -36.27,-4.258 -48.06,-7.562 -14.1,-3.961 -25.46,-10.204 -34.13,-18.602 -8.69,-8.418 -13.04,-20.02 -13.04,-34.766 0,-16.648 5.06,-29.218 15.12,-37.625 10.08,-8.429 25.42,-12.636 46.08,-12.636 17.2,0 32.92,3.328 47.12,10.027 14.26,6.672 27.45,14.699 39.62,24.094 m 48.69,-71.614 h -48.69 v 30.977 c -4.34,-2.957 -10.22,-7.07 -17.62,-12.383 -7.36,-5.281 -14.52,-9.5 -21.46,-12.617 -8.17,-4.012 -17.54,-7.324 -28.13,-10.039 -10.57,-2.664 -22.98,-4.031 -37.25,-4.031 -26.19,0 -48.44,8.679 -66.64,26.054 -18.23,17.364 -27.36,39.493 -27.36,66.407 0,22.039 4.73,39.882 14.18,53.523 9.47,13.606 22.99,24.336 40.53,32.156 17.68,7.797 38.96,13.098 63.79,15.887 24.82,2.75 51.47,4.848 79.96,6.246 v 7.555 c 0,11.105 -1.96,20.301 -5.88,27.597 -3.91,7.29 -9.48,13.012 -16.79,17.196 -6.94,3.988 -15.28,6.672 -25,8.082 -9.72,1.387 -19.88,2.058 -30.46,2.058 -12.84,0 -27.22,-1.691 -42.98,-5.082 -15.82,-3.375 -32.13,-8.269 -48.96,-14.707 h -2.6 v 49.731 c 9.54,2.629 23.35,5.465 41.4,8.594 18.05,3.144 35.87,4.679 53.4,4.679 20.48,0 38.3,-1.672 53.5,-5.058 15.18,-3.383 28.34,-9.157 39.47,-17.321 10.94,-7.976 19.27,-18.304 24.97,-30.976 5.72,-12.68 8.62,-28.395 8.62,-47.153 V 438.648" /><path
         id="path26"
         style="fill:#142735;fill-opacity:1;fill-rule:nonzero;stroke:none"
         d="m 1875.25,441.258 c -9.23,-2.453 -19.23,-4.434 -30.08,-6.016 -10.83,-1.554 -20.53,-2.336 -29.06,-2.336 -29.66,0 -52.24,8 -67.67,23.946 -15.49,15.976 -23.2,41.601 -23.2,76.847 v 154.688 h -33.06 v 41.136 h 33.06 v 83.579 h 48.96 v -83.579 h 101.05 V 688.387 H 1774.2 V 555.848 c 0,-15.305 0.34,-27.246 1.01,-35.84 0.71,-8.594 3.14,-16.633 7.33,-24.063 3.83,-6.965 9.08,-12.043 15.74,-15.246 6.67,-3.23 16.89,-4.844 30.61,-4.844 7.96,0 16.34,1.223 24.98,3.536 8.7,2.336 14.98,4.289 18.76,5.871 h 2.62 v -44.004" /><path
         id="path28"
         style="fill:#142735;fill-opacity:1;fill-rule:nonzero;stroke:none"
         d="m 2130.2,616.516 c -0.17,25.683 -6.65,45.554 -19.41,59.605 -12.76,14.067 -32.17,21.113 -58.2,21.113 -26.22,0 -47.09,-7.711 -62.62,-23.179 -15.57,-15.453 -24.36,-34.645 -26.44,-57.539 z m 47.64,-37.52 h -214.31 c 0,-17.875 2.67,-33.453 8.07,-46.762 5.39,-13.254 12.76,-24.171 22.15,-32.656 9,-8.332 19.73,-14.609 32.14,-18.762 12.4,-4.148 26.06,-6.218 41.01,-6.218 19.81,0 39.72,3.933 59.77,11.824 20.06,7.883 34.31,15.676 42.85,23.312 h 2.58 v -53.379 c -16.5,-6.964 -33.29,-12.773 -50.53,-17.453 -17.15,-4.695 -35.22,-7.031 -54.16,-7.031 -48.26,0 -85.91,13.039 -112.99,39.199 -27.1,26.106 -40.62,63.223 -40.62,111.289 0,47.598 12.98,85.352 38.92,113.293 25.95,27.969 60.1,41.938 102.49,41.938 39.24,0 69.45,-11.442 90.75,-34.391 21.25,-22.902 31.88,-55.437 31.88,-97.621 v -26.582" /><path
         id="path30"
         style="fill:#142735;fill-opacity:1;fill-rule:nonzero;stroke:none"
         d="m 2439.05,510.262 v 166.922 c -13.22,5.91 -25,9.98 -35.42,12.242 -10.42,2.246 -21.8,3.375 -34.1,3.375 -27.48,0 -48.82,-9.535 -64.09,-28.653 -15.28,-19.066 -22.93,-46.164 -22.93,-81.238 0,-34.555 5.88,-60.812 17.73,-78.793 11.79,-17.949 30.73,-26.933 56.76,-26.933 13.89,0 27.96,3.097 42.2,9.218 14.22,6.192 27.53,14.121 39.85,23.86 m 48.93,-71.614 h -48.93 v 30.461 c -14.07,-12.14 -28.73,-21.613 -44.04,-28.39 -15.24,-6.778 -31.81,-10.164 -49.73,-10.164 -34.7,0 -62.26,13.359 -82.69,40.125 -20.36,26.711 -30.61,63.789 -30.61,111.187 0,24.653 3.54,46.594 10.57,65.879 7.05,19.274 16.51,35.68 28.51,49.231 11.81,13.187 25.59,23.25 41.29,30.199 15.74,6.937 31.96,10.414 48.82,10.414 15.3,0 28.81,-1.621 40.64,-4.828 11.81,-3.215 24.23,-8.199 37.24,-14.977 v 126.07 h 48.93 V 438.648" /><path
         id="path32"
         style="fill:#41b43c;fill-opacity:1;fill-rule:nonzero;stroke:none"
         d="M 1939.9,1174.67 V 1042.43 L 2368.37,841.711 V 973.957 L 1939.9,1174.67" /><path
         id="path34"
         style="fill:#b1afad;fill-opacity:1;fill-rule:nonzero;stroke:none"
         d="M 265.371,230.895 226.223,56.332 168.512,230.895 h -31.27 L 80.9141,56.332 39.543,230.895 H 0 L 59.3086,5.46875 H 94.2344 L 151.754,179.246 209.688,5.46875 h 35.109 L 303.516,230.895 h -38.145" /><path
         id="path36"
         style="fill:#b1afad;fill-opacity:1;fill-rule:nonzero;stroke:none"
         d="M 356.254,268.641 H 399 v 39.375 H 356.254 Z M 358.66,5.48047 h 37.918 V 230.906 H 358.66 V 5.48047" /><path
         id="path38"
         style="fill:#b1afad;fill-opacity:1;fill-rule:nonzero;stroke:none"
         d="m 612.297,189.52 h -1.988 c -5.661,1.355 -11.157,2.312 -16.465,2.937 -5.328,0.586 -11.602,0.91 -18.856,0.91 -11.699,0 -23.019,-2.609 -33.906,-7.785 -10.914,-5.184 -21.398,-11.871 -31.488,-20.07 V 5.44922 H 471.656 V 230.895 h 37.938 v -33.309 c 15.062,12.109 28.355,20.711 39.847,25.75 11.52,5.039 23.25,7.559 35.223,7.559 6.617,0 11.344,-0.157 14.328,-0.508 2.957,-0.34 7.41,-0.957 13.305,-1.922 V 189.52" /><path
         id="path40"
         style="fill:#b1afad;fill-opacity:1;fill-rule:nonzero;stroke:none"
         d="m 799.816,143.301 c -0.16,19.91 -5.171,35.308 -15.054,46.219 -9.883,10.906 -24.907,16.355 -45.09,16.355 -20.32,0 -36.488,-5.996 -48.567,-17.957 -12.007,-11.973 -18.843,-26.848 -20.464,-44.617 z m 36.907,-29.039 H 670.641 c 0,-13.883 2.101,-25.9534 6.246,-36.2425 4.164,-10.3086 9.875,-18.75 17.152,-25.3281 6.988,-6.4531 15.309,-11.332 24.957,-14.5312 9.613,-3.2383 20.195,-4.8321 31.746,-4.8321 15.371,0 30.809,3.0117 46.336,9.1836 15.567,6.1172 26.606,12.1602 33.184,18.0469 h 2.039 V 19.1719 C 819.531,13.7813 806.48,9.33203 793.137,5.69922 779.855,2.07031 765.809,0.191406 751.164,0.191406 c -37.375,0 -66.601,10.179694 -87.566,30.378894 -21.008,20.2891 -31.52,49.0391 -31.52,86.3087 0,36.871 10.059,66.105 30.188,87.766 20.109,21.679 46.578,32.5 79.394,32.5 30.422,0 53.867,-8.868 70.348,-26.629 16.5,-17.766 24.715,-43.004 24.715,-75.707 v -20.547" /><path
         id="path42"
         style="fill:#b1afad;fill-opacity:1;fill-rule:nonzero;stroke:none"
         d="m 894.711,5.48047 h 37.922 V 319.488 H 894.711 V 5.48047" /><path
         id="path44"
         style="fill:#b1afad;fill-opacity:1;fill-rule:nonzero;stroke:none"
         d="m 1159.45,143.301 c -0.12,19.91 -5.15,35.308 -15.03,46.219 -9.91,10.906 -24.94,16.355 -45.09,16.355 -20.32,0 -36.51,-5.996 -48.56,-17.957 -12.02,-11.973 -18.86,-26.848 -20.5,-44.617 z m 36.92,-29.039 h -166.1 c 0,-13.883 2.1,-25.9534 6.27,-36.2425 4.18,-10.3086 9.87,-18.75 17.19,-25.3281 6.98,-6.4531 15.28,-11.332 24.92,-14.5312 9.61,-3.2383 20.19,-4.8321 31.77,-4.8321 15.35,0 30.78,3.0117 46.31,9.1836 15.54,6.1172 26.6,12.1602 33.21,18.0469 h 2.01 V 19.1719 c -12.8,-5.3906 -25.85,-9.83987 -39.16,-13.47268 -13.31,-3.62891 -27.3,-5.507814 -41.98,-5.507814 -37.39,0 -66.61,10.179694 -87.59,30.378894 -20.96,20.2891 -31.482,49.0391 -31.482,86.3087 0,36.871 10.042,66.105 30.172,87.766 20.13,21.679 46.58,32.5 79.42,32.5 30.41,0 53.85,-8.868 70.33,-26.629 16.5,-17.766 24.71,-43.004 24.71,-75.707 v -20.547" /><path
         id="path46"
         style="fill:#b1afad;fill-opacity:1;fill-rule:nonzero;stroke:none"
         d="m 1414.96,70.4492 c 0,-20.6172 -8.49,-37.4804 -25.53,-50.6679 -17.04,-13.19927 -40.26,-19.7695812 -69.71,-19.7695812 -16.72,0 -32.03,2.0078112 -45.95,5.9570312 -13.9,3.97266 -25.56,8.31255 -35.01,13.01175 v 42.5781 h 2.03 c 11.95,-9.0078 25.28,-16.1797 39.96,-21.4883 14.67,-5.332 28.7,-7.9492 42.16,-7.9492 16.7,0 29.75,2.6875 39.19,8.0898 9.41,5.3594 14.13,13.8008 14.13,25.3985 0,8.8906 -2.57,15.6094 -7.7,20.1719 -5.1,4.6093 -14.91,8.4804 -29.47,11.7187 -5.37,1.2188 -12.41,2.641 -21.05,4.238 -8.69,1.602 -16.62,3.352 -23.74,5.231 -19.78,5.211 -33.76,12.972 -42.09,23.121 -8.27,10.172 -12.38,22.629 -12.38,37.441 0,9.274 1.88,18.024 5.73,26.227 3.86,8.203 9.66,15.535 17.45,21.972 7.53,6.348 17.14,11.375 28.77,15.067 11.67,3.683 24.64,5.558 39.03,5.558 13.48,0 27.07,-1.671 40.89,-4.953 13.79,-3.289 25.26,-7.304 34.41,-12.011 v -40.555 h -2.04 c -9.61,7.117 -21.4,13.152 -35.28,18.047 -13.87,4.91 -27.46,7.371 -40.78,7.371 -13.89,0 -25.59,-2.664 -35.13,-7.988 -9.53,-5.282 -14.29,-13.211 -14.29,-23.684 0,-9.312 2.87,-16.293 8.63,-21 5.66,-4.703 14.81,-8.531 27.46,-11.48 6.99,-1.622 14.84,-3.243 23.51,-4.872 8.69,-1.609 15.89,-3.101 21.71,-4.429 17.62,-4.051 31.19,-10.992 40.76,-20.813 9.55,-9.968 14.33,-23.1364 14.33,-39.5388" /><path
         id="path48"
         style="fill:#b1afad;fill-opacity:1;fill-rule:nonzero;stroke:none"
         d="m 1630.31,70.4492 c 0,-20.6172 -8.53,-37.4804 -25.53,-50.6679 -17.02,-13.19927 -40.3,-19.7695812 -69.75,-19.7695812 -16.67,0 -31.98,2.0078112 -45.89,5.9570312 -13.93,3.97266 -25.59,8.31255 -35,13.01175 v 42.5781 h 2.01 c 11.95,-9.0078 25.3,-16.1797 39.97,-21.4883 14.64,-5.332 28.73,-7.9492 42.15,-7.9492 16.68,0 29.74,2.6875 39.17,8.0898 9.41,5.3594 14.11,13.8008 14.11,25.3985 0,8.8906 -2.57,15.6094 -7.67,20.1719 -5.12,4.6093 -14.93,8.4804 -29.47,11.7187 -5.38,1.2188 -12.4,2.641 -21.08,4.238 -8.67,1.602 -16.59,3.352 -23.73,5.231 -19.78,5.211 -33.8,12.972 -42.07,23.121 -8.28,10.172 -12.41,22.629 -12.41,37.441 0,9.274 1.91,18.024 5.78,26.227 3.84,8.203 9.63,15.535 17.43,21.972 7.53,6.348 17.13,11.375 28.77,15.067 11.65,3.683 24.65,5.558 39.05,5.558 13.43,0 27.05,-1.671 40.87,-4.953 13.79,-3.289 25.25,-7.304 34.4,-12.011 v -40.555 h -2.01 c -9.72,7.117 -21.46,13.152 -35.34,18.047 -13.85,4.91 -27.42,7.371 -40.78,7.371 -13.84,0 -25.53,-2.664 -35.09,-7.988 -9.56,-5.282 -14.33,-13.211 -14.33,-23.684 0,-9.312 2.88,-16.293 8.69,-21 5.64,-4.703 14.81,-8.531 27.47,-11.48 6.97,-1.622 14.8,-3.243 23.5,-4.872 8.67,-1.609 15.88,-3.101 21.7,-4.429 17.6,-4.051 31.19,-10.992 40.78,-20.813 9.5,-9.968 14.3,-23.1364 14.3,-39.5388" /><path
         id="path50"
         style="fill:#b1afad;fill-opacity:1;fill-rule:nonzero;stroke:none"
         d="m 1677.41,286.805 h -17.34 v -42.754 h -6.4 v 42.754 h -17.35 v 5.742 h 41.09 v -5.742" /><path
         id="path52"
         style="fill:#b1afad;fill-opacity:1;fill-rule:nonzero;stroke:none"
         d="m 1718.12,292.547 -12.51,-26.992 -12.92,26.992 h -8.8 V 244.07 h 6.02 v 41.758 l 13.39,-28.39 h 3.87 l 13.47,28.39 V 244.07 h 6.44 v 48.477 h -8.96" /></g></g></svg>