<?xml version="1.0" encoding="UTF-8" standalone="no"?>
<svg
   xmlns:dc="http://purl.org/dc/elements/1.1/"
   xmlns:cc="http://creativecommons.org/ns#"
   xmlns:rdf="http://www.w3.org/1999/02/22-rdf-syntax-ns#"
   xmlns:svg="http://www.w3.org/2000/svg"
   xmlns="http://www.w3.org/2000/svg"
   xmlns:sodipodi="http://sodipodi.sourceforge.net/DTD/sodipodi-0.dtd"
   xmlns:inkscape="http://www.inkscape.org/namespaces/inkscape"
   version="1.1"
   id="svg2"
   xml:space="preserve"
   width="313.77734"
   height="155.556"
   viewBox="0 0 313.77734 155.556"
   sodipodi:docname="Fii_Logo_Primary_English_CMYK.ai"><metadata
     id="metadata8"><rdf:RDF><cc:Work
         rdf:about=""><dc:format>image/svg+xml</dc:format><dc:type
           rdf:resource="http://purl.org/dc/dcmitype/StillImage" /></cc:Work></rdf:RDF></metadata><defs
     id="defs6"><clipPath
       clipPathUnits="userSpaceOnUse"
       id="clipPath18"><path
         d="M 0,116.667 H 235.333 V 0 H 0 Z"
         id="path16" /></clipPath></defs><sodipodi:namedview
     pagecolor="#ffffff"
     bordercolor="#666666"
     borderopacity="1"
     objecttolerance="10"
     gridtolerance="10"
     guidetolerance="10"
     inkscape:pageopacity="0"
     inkscape:pageshadow="2"
     inkscape:window-width="640"
     inkscape:window-height="480"
     id="namedview4" /><g
     id="g10"
     inkscape:groupmode="layer"
     inkscape:label="Fii_Logo_Primary_English_CMYK"
     transform="matrix(1.3333333,0,0,-1.3333333,0,155.556)"><g
       id="g12"><g
         id="g14"
         clip-path="url(#clipPath18)"><g
           id="g20"
           transform="translate(118.2086,74.0474)"><path
             d="m 0,0 -1.12,-3.636 c -0.34,-1.096 -1.352,-1.877 -2.498,-1.877 h -6.594 l 1.094,3.647 C -8.782,-0.755 -7.757,0 -6.599,0 Z"
             style="fill:#d00035;fill-opacity:1;fill-rule:nonzero;stroke:none"
             id="path22" /></g><g
           id="g24"
           transform="translate(106.1816,67.1783)"><path
             d="m 0,0 -1.12,-3.613 c -0.34,-1.096 -1.352,-1.843 -2.498,-1.843 h -6.594 l 1.094,3.613 c 0.336,1.111 1.361,1.868 2.519,1.861 C -4.068,0.002 0.021,-0.021 0,0"
             style="fill:#002f75;fill-opacity:1;fill-rule:nonzero;stroke:none"
             id="path26" /></g><g
           id="g28"
           transform="translate(94.6825,60.5655)"><path
             d="m 0,0 -1.12,-3.63 c -0.34,-1.097 -1.352,-1.844 -2.498,-1.844 h -6.594 l 1.094,3.614 C -8.782,-0.75 -7.757,0.007 -6.599,0 -4.068,-0.016 0.021,-0.021 0,0"
             style="fill:#002f75;fill-opacity:1;fill-rule:nonzero;stroke:none"
             id="path30" /></g><g
           id="g32"
           transform="translate(115.7823,67.1756)"><path
             d="m 0,0 -6.266,-21.475 h -8.33 L -8.199,0 Z"
             style="fill:#d00035;fill-opacity:1;fill-rule:nonzero;stroke:none"
             id="path34" /></g><g
           id="g36"
           transform="translate(103.9449,60.5655)"><path
             d="m 0,0 -4.369,-14.865 h -8.26 L -8.167,0 Z"
             style="fill:#002f75;fill-opacity:1;fill-rule:nonzero;stroke:none"
             id="path38" /></g><g
           id="g40"
           transform="translate(108.2167,74.0474)"><path
             d="m 0,0 -1.645,-5.513 h -13.596 c -3.301,0 -6.234,-2.111 -7.29,-5.245 l -5.923,-17.589 h -8.024 l 5.982,18.219 C -28.508,-4.074 -22.862,0 -16.503,0 Z"
             style="fill:#002f75;fill-opacity:1;fill-rule:nonzero;stroke:none"
             id="path42" /></g><g
           id="g44"
           transform="translate(125.3034,74.0744)"><path
             d="M 0,0 H 5.964 V -1.47 H 1.736 V -3.393 H 5.442 V -4.846 H 1.736 V -8.353 H 0 Z"
             style="fill:#002f75;fill-opacity:1;fill-rule:nonzero;stroke:none"
             id="path46" /></g><g
           id="g48"
           transform="translate(135.9303,67.3722)"><path
             d="M 0,0 C 0.253,0.336 0.38,0.814 0.38,1.434 0.38,2.053 0.253,2.53 0,2.864 -0.254,3.198 -0.617,3.366 -1.09,3.366 -1.562,3.366 -1.927,3.198 -2.182,2.864 -2.438,2.53 -2.565,2.053 -2.565,1.434 c 0,-0.62 0.127,-1.098 0.383,-1.434 0.255,-0.336 0.62,-0.504 1.092,-0.504 0.473,0 0.836,0.168 1.09,0.504 M 1.293,-0.894 C 0.771,-1.538 -0.021,-1.86 -1.084,-1.86 c -1.063,0 -1.855,0.322 -2.378,0.966 -0.521,0.644 -0.783,1.42 -0.783,2.328 0,0.892 0.262,1.665 0.783,2.318 0.523,0.654 1.315,0.981 2.378,0.981 1.063,0 1.855,-0.327 2.377,-0.981 C 1.815,3.099 2.076,2.326 2.076,1.434 2.076,0.526 1.815,-0.25 1.293,-0.894"
             style="fill:#002f75;fill-opacity:1;fill-rule:nonzero;stroke:none"
             id="path50" /></g><g
           id="g52"
           transform="translate(138.1911,65.7218)"><path
             d="m 0,0 2.111,3.132 -2.02,3.042 h 1.98 L 3.104,4.382 4.114,6.174 H 6.038 L 4.007,3.161 6.117,0 H 4.103 L 3.038,1.859 1.964,0 Z"
             style="fill:#002f75;fill-opacity:1;fill-rule:nonzero;stroke:none"
             id="path54" /></g><g
           id="g56"
           transform="translate(148.611,69.6882)"><path
             d="M 0,0 C -0.03,0.23 -0.107,0.439 -0.233,0.624 -0.415,0.874 -0.697,0.999 -1.08,0.999 -1.627,0.999 -2,0.728 -2.201,0.187 -2.308,-0.1 -2.36,-0.48 -2.36,-0.956 c 0,-0.453 0.052,-0.817 0.159,-1.092 0.193,-0.515 0.557,-0.772 1.092,-0.772 0.38,0 0.648,0.102 0.808,0.306 0.159,0.204 0.256,0.469 0.29,0.795 H 1.64 C 1.603,-2.211 1.424,-2.676 1.106,-3.115 0.599,-3.823 -0.153,-4.176 -1.148,-4.176 c -0.997,0 -1.729,0.295 -2.199,0.885 -0.469,0.59 -0.704,1.355 -0.704,2.295 0,1.061 0.259,1.887 0.778,2.477 0.519,0.59 1.234,0.885 2.147,0.885 0.776,0 1.411,-0.174 1.905,-0.522 C 1.273,1.496 1.566,0.881 1.657,0 Z"
             style="fill:#002f75;fill-opacity:1;fill-rule:nonzero;stroke:none"
             id="path58" /></g><g
           id="g60"
           transform="translate(155.1559,67.3722)"><path
             d="M 0,0 C 0.253,0.336 0.38,0.814 0.38,1.434 0.38,2.053 0.253,2.53 0,2.864 -0.254,3.198 -0.617,3.366 -1.09,3.366 -1.562,3.366 -1.927,3.198 -2.182,2.864 -2.438,2.53 -2.565,2.053 -2.565,1.434 c 0,-0.62 0.127,-1.098 0.383,-1.434 0.255,-0.336 0.62,-0.504 1.092,-0.504 0.473,0 0.836,0.168 1.09,0.504 M 1.293,-0.894 C 0.771,-1.538 -0.021,-1.86 -1.084,-1.86 c -1.063,0 -1.855,0.322 -2.378,0.966 -0.521,0.644 -0.783,1.42 -0.783,2.328 0,0.892 0.262,1.665 0.783,2.318 0.523,0.654 1.315,0.981 2.378,0.981 1.063,0 1.855,-0.327 2.377,-0.981 C 1.815,3.099 2.076,2.326 2.076,1.434 2.076,0.526 1.815,-0.25 1.293,-0.894"
             style="fill:#002f75;fill-opacity:1;fill-rule:nonzero;stroke:none"
             id="path62" /></g><g
           id="g64"
           transform="translate(163.2682,71.5519)"><path
             d="M 0,0 C 0.405,-0.334 0.607,-0.89 0.607,-1.665 V -5.83 H -1.05 v 3.762 c 0,0.325 -0.043,0.575 -0.129,0.749 -0.158,0.318 -0.459,0.477 -0.901,0.477 -0.545,0 -0.918,-0.233 -1.121,-0.699 C -3.307,-1.786 -3.359,-2.1 -3.359,-2.482 V -5.83 h -1.618 v 6.174 h 1.567 v -0.903 c 0.207,0.318 0.403,0.547 0.588,0.687 0.331,0.249 0.751,0.374 1.26,0.374 C -0.926,0.502 -0.405,0.335 0,0"
             style="fill:#002f75;fill-opacity:1;fill-rule:nonzero;stroke:none"
             id="path66" /></g><g
           id="g68"
           transform="translate(170.2253,71.5519)"><path
             d="M 0,0 C 0.405,-0.334 0.607,-0.89 0.607,-1.665 V -5.83 H -1.05 v 3.762 c 0,0.325 -0.043,0.575 -0.129,0.749 -0.158,0.318 -0.459,0.477 -0.901,0.477 -0.545,0 -0.918,-0.233 -1.121,-0.699 C -3.307,-1.786 -3.359,-2.1 -3.359,-2.482 V -5.83 h -1.618 v 6.174 h 1.567 v -0.903 c 0.207,0.318 0.403,0.547 0.588,0.687 0.331,0.249 0.751,0.374 1.26,0.374 C -0.926,0.502 -0.405,0.335 0,0"
             style="fill:#002f75;fill-opacity:1;fill-rule:nonzero;stroke:none"
             id="path70" /></g><path
           d="m 127.072,55.722 h -1.736 v 8.364 h 1.736 z"
           style="fill:#002f75;fill-opacity:1;fill-rule:nonzero;stroke:none"
           id="path72" /><g
           id="g74"
           transform="translate(133.5143,61.5524)"><path
             d="M 0,0 C 0.405,-0.334 0.607,-0.89 0.607,-1.665 V -5.83 H -1.05 v 3.762 c 0,0.325 -0.043,0.575 -0.129,0.749 -0.158,0.318 -0.459,0.477 -0.901,0.477 -0.545,0 -0.918,-0.233 -1.121,-0.699 C -3.307,-1.786 -3.359,-2.1 -3.359,-2.482 V -5.83 h -1.618 v 6.174 h 1.567 v -0.903 c 0.207,0.318 0.403,0.547 0.588,0.687 0.331,0.249 0.751,0.374 1.26,0.374 C -0.926,0.502 -0.405,0.335 0,0"
             style="fill:#002f75;fill-opacity:1;fill-rule:nonzero;stroke:none"
             id="path76" /></g><g
           id="g78"
           transform="translate(139.2223,57.402)"><path
             d="m 0,0 c 0.238,0.34 0.357,0.781 0.357,1.322 0,0.757 -0.191,1.298 -0.573,1.623 -0.234,0.197 -0.507,0.295 -0.817,0.295 -0.473,0 -0.82,-0.179 -1.041,-0.536 -0.221,-0.358 -0.332,-0.801 -0.332,-1.331 0,-0.571 0.113,-1.028 0.338,-1.37 0.224,-0.343 0.566,-0.514 1.024,-0.514 0.457,0 0.806,0.171 1.044,0.511 M -0.397,4.406 C -0.106,4.241 0.131,4.014 0.312,3.722 v 2.951 h 1.64 V -1.68 H 0.38 v 0.857 c -0.231,-0.367 -0.493,-0.634 -0.788,-0.8 -0.296,-0.167 -0.662,-0.25 -1.102,-0.25 -0.722,0 -1.33,0.292 -1.824,0.877 -0.493,0.584 -0.74,1.334 -0.74,2.25 0,1.055 0.243,1.886 0.729,2.491 0.486,0.605 1.136,0.908 1.949,0.908 0.375,0 0.708,-0.083 0.999,-0.247"
             style="fill:#002f75;fill-opacity:1;fill-rule:nonzero;stroke:none"
             id="path80" /></g><g
           id="g82"
           transform="translate(144.152,61.9074)"><path
             d="m 0,0 v -3.728 c 0,-0.352 0.041,-0.617 0.124,-0.794 0.147,-0.314 0.435,-0.472 0.864,-0.472 0.549,0 0.926,0.223 1.129,0.67 0.106,0.242 0.158,0.562 0.158,0.959 V 0 h 1.64 V -6.185 H 2.344 v 0.874 C 2.328,-5.33 2.291,-5.387 2.23,-5.481 2.17,-5.576 2.099,-5.659 2.016,-5.731 1.763,-5.958 1.519,-6.113 1.282,-6.196 1.047,-6.28 0.771,-6.321 0.453,-6.321 c -0.912,0 -1.527,0.329 -1.844,0.987 -0.177,0.363 -0.266,0.898 -0.266,1.606 V 0 Z"
             style="fill:#002f75;fill-opacity:1;fill-rule:nonzero;stroke:none"
             id="path84" /></g><g
           id="g86"
           transform="translate(150.7526,57.6969)"><path
             d="m 0,0 c 0.034,-0.288 0.108,-0.492 0.223,-0.613 0.201,-0.216 0.573,-0.323 1.117,-0.323 0.319,0 0.573,0.047 0.761,0.142 0.188,0.094 0.282,0.236 0.282,0.425 0,0.182 -0.075,0.32 -0.227,0.414 C 2.004,0.14 1.44,0.303 0.464,0.533 c -0.703,0.175 -1.198,0.392 -1.485,0.653 -0.288,0.257 -0.432,0.628 -0.432,1.112 0,0.571 0.224,1.062 0.674,1.473 0.449,0.41 1.082,0.615 1.896,0.615 0.774,0 1.404,-0.154 1.891,-0.462 C 3.495,3.615 3.775,3.083 3.847,2.327 H 2.229 C 2.207,2.535 2.148,2.699 2.054,2.82 1.875,3.04 1.571,3.149 1.144,3.149 0.79,3.149 0.539,3.094 0.39,2.985 0.239,2.875 0.164,2.747 0.164,2.599 0.164,2.414 0.244,2.279 0.403,2.196 0.562,2.109 1.126,1.959 2.092,1.748 2.736,1.596 3.219,1.368 3.541,1.061 3.858,0.751 4.018,0.363 4.018,-0.102 4.018,-0.715 3.789,-1.215 3.332,-1.603 2.875,-1.991 2.169,-2.185 1.214,-2.185 c -0.974,0 -1.693,0.206 -2.157,0.616 C -1.408,-1.159 -1.64,-0.635 -1.64,0 Z"
             style="fill:#002f75;fill-opacity:1;fill-rule:nonzero;stroke:none"
             id="path88" /></g><g
           id="g90"
           transform="translate(155.2331,60.6989)"><path
             d="M 0,0 V 1.152 H 0.862 V 2.876 H 2.463 V 1.152 H 3.467 V 0 H 2.463 v -3.269 c 0,-0.253 0.032,-0.411 0.097,-0.473 0.063,-0.063 0.26,-0.094 0.589,-0.094 0.049,0 0.101,10e-4 0.157,0.003 0.054,0.001 0.108,0.004 0.161,0.008 V -5.033 L 2.701,-5.062 C 1.937,-5.088 1.415,-4.956 1.135,-4.665 0.953,-4.479 0.862,-4.193 0.862,-3.808 V 0 Z"
             style="fill:#002f75;fill-opacity:1;fill-rule:nonzero;stroke:none"
             id="path92" /></g><g
           id="g94"
           transform="translate(163.113,62.0519)"><path
             d="m 0,0 c 0.021,-0.002 0.067,-0.005 0.139,-0.008 v -1.658 c -0.102,0.012 -0.193,0.02 -0.273,0.023 -0.079,0.004 -0.143,0.006 -0.192,0.006 -0.651,0 -1.088,-0.212 -1.311,-0.635 -0.125,-0.239 -0.187,-0.606 -0.187,-1.102 V -6.33 h -1.629 v 6.185 h 1.544 v -1.078 c 0.249,0.412 0.467,0.694 0.652,0.846 0.303,0.253 0.696,0.38 1.181,0.38 C -0.046,0.003 -0.021,0.002 0,0"
             style="fill:#002f75;fill-opacity:1;fill-rule:nonzero;stroke:none"
             id="path96" /></g><path
           d="m 164.051,61.907 h 1.64 v -6.185 h -1.64 z m 1.64,0.738 h -1.64 v 1.493 h 1.64 z"
           style="fill:#002f75;fill-opacity:1;fill-rule:nonzero;stroke:none"
           id="path98" /><g
           id="g100"
           transform="translate(170.611,58.7297)"><path
             d="m 0,0 c -0.104,-0.064 -0.208,-0.116 -0.313,-0.156 -0.106,-0.04 -0.25,-0.076 -0.435,-0.111 l -0.368,-0.068 c -0.345,-0.061 -0.593,-0.134 -0.743,-0.221 -0.255,-0.148 -0.382,-0.377 -0.382,-0.687 0,-0.276 0.077,-0.475 0.233,-0.598 0.155,-0.123 0.345,-0.185 0.568,-0.185 0.353,0 0.678,0.103 0.976,0.307 0.298,0.204 0.452,0.576 0.464,1.117 z m -0.989,0.755 c 0.301,0.037 0.516,0.085 0.646,0.141 0.233,0.099 0.349,0.252 0.349,0.46 0,0.253 -0.09,0.429 -0.268,0.525 -0.178,0.097 -0.44,0.145 -0.785,0.145 -0.388,0 -0.661,-0.095 -0.822,-0.284 C -1.984,1.602 -2.062,1.413 -2.1,1.175 h -1.56 c 0.034,0.54 0.186,0.985 0.456,1.333 0.43,0.545 1.166,0.817 2.211,0.817 0.681,0 1.284,-0.134 1.812,-0.403 C 1.348,2.654 1.611,2.147 1.611,1.401 v -2.837 c 0,-0.196 0.004,-0.435 0.012,-0.714 0.011,-0.212 0.043,-0.356 0.096,-0.432 0.053,-0.075 0.133,-0.138 0.239,-0.187 V -3.007 H 0.198 C 0.149,-2.882 0.115,-2.765 0.097,-2.656 0.077,-2.546 0.062,-2.421 0.051,-2.281 -0.174,-2.523 -0.433,-2.729 -0.726,-2.899 -1.075,-3.1 -1.471,-3.2 -1.912,-3.2 c -0.564,0 -1.028,0.159 -1.396,0.479 -0.367,0.32 -0.55,0.773 -0.55,1.359 0,0.76 0.295,1.311 0.885,1.652 0.325,0.185 0.801,0.317 1.429,0.397 z"
             style="fill:#002f75;fill-opacity:1;fill-rule:nonzero;stroke:none"
             id="path102" /></g><path
           d="m 175.201,55.722 h -1.617 v 8.364 h 1.617 z"
           style="fill:#002f75;fill-opacity:1;fill-rule:nonzero;stroke:none"
           id="path104" /><path
           d="m 127.072,45.723 h -1.736 v 8.364 h 1.736 z"
           style="fill:#002f75;fill-opacity:1;fill-rule:nonzero;stroke:none"
           id="path106" /><g
           id="g108"
           transform="translate(133.5143,51.5529)"><path
             d="M 0,0 C 0.405,-0.334 0.607,-0.89 0.607,-1.665 V -5.83 H -1.05 v 3.762 c 0,0.325 -0.043,0.575 -0.129,0.749 -0.158,0.318 -0.459,0.477 -0.901,0.477 -0.545,0 -0.918,-0.233 -1.121,-0.699 C -3.307,-1.786 -3.359,-2.1 -3.359,-2.482 V -5.83 h -1.618 v 6.174 h 1.567 v -0.903 c 0.207,0.318 0.403,0.547 0.588,0.687 0.331,0.249 0.751,0.374 1.26,0.374 C -0.926,0.502 -0.405,0.335 0,0"
             style="fill:#002f75;fill-opacity:1;fill-rule:nonzero;stroke:none"
             id="path110" /></g><g
           id="g112"
           transform="translate(134.8434,50.6994)"><path
             d="M 0,0 V 1.152 H 0.862 V 2.876 H 2.463 V 1.152 H 3.467 V 0 H 2.463 v -3.269 c 0,-0.253 0.032,-0.411 0.097,-0.473 0.063,-0.063 0.26,-0.094 0.589,-0.094 0.049,0 0.101,10e-4 0.157,0.003 0.054,0.001 0.108,0.004 0.161,0.008 V -5.033 L 2.701,-5.062 C 1.937,-5.088 1.415,-4.956 1.135,-4.665 0.953,-4.479 0.862,-4.193 0.862,-3.808 V 0 Z"
             style="fill:#002f75;fill-opacity:1;fill-rule:nonzero;stroke:none"
             id="path114" /></g><g
           id="g116"
           transform="translate(140.8249,50.3854)"><path
             d="M 0,0 C -0.229,-0.235 -0.373,-0.555 -0.432,-0.958 H 2.354 C 2.325,-0.528 2.182,-0.202 1.924,0.02 1.666,0.242 1.347,0.354 0.965,0.354 0.55,0.354 0.228,0.236 0,0 M 2.419,1.397 C 2.851,1.204 3.206,0.899 3.487,0.482 3.741,0.115 3.905,-0.312 3.98,-0.796 4.023,-1.081 4.042,-1.49 4.033,-2.024 h -4.504 c 0.025,-0.621 0.241,-1.056 0.647,-1.305 0.247,-0.155 0.544,-0.233 0.891,-0.233 0.369,0 0.668,0.095 0.899,0.284 0.125,0.102 0.236,0.244 0.332,0.425 H 3.949 C 3.905,-3.219 3.706,-3.592 3.35,-3.97 2.796,-4.572 2.021,-4.873 1.022,-4.873 c -0.822,0 -1.548,0.254 -2.177,0.761 -0.63,0.508 -0.945,1.333 -0.945,2.477 0,1.071 0.285,1.893 0.853,2.464 0.567,0.572 1.305,0.858 2.211,0.858 0.539,0 1.023,-0.097 1.455,-0.29"
             style="fill:#002f75;fill-opacity:1;fill-rule:nonzero;stroke:none"
             id="path118" /></g><g
           id="g120"
           transform="translate(149.1862,52.0524)"><path
             d="m 0,0 c 0.021,-0.002 0.067,-0.005 0.139,-0.008 v -1.658 c -0.102,0.012 -0.193,0.02 -0.273,0.023 -0.079,0.004 -0.143,0.006 -0.192,0.006 -0.651,0 -1.088,-0.212 -1.311,-0.635 -0.125,-0.239 -0.187,-0.606 -0.187,-1.102 V -6.33 h -1.629 v 6.185 h 1.544 v -1.078 c 0.249,0.412 0.467,0.694 0.652,0.846 0.303,0.253 0.696,0.38 1.181,0.38 C -0.046,0.003 -0.021,0.002 0,0"
             style="fill:#002f75;fill-opacity:1;fill-rule:nonzero;stroke:none"
             id="path122" /></g><g
           id="g124"
           transform="translate(155.0954,51.5529)"><path
             d="M 0,0 C 0.405,-0.334 0.607,-0.89 0.607,-1.665 V -5.83 H -1.05 v 3.762 c 0,0.325 -0.043,0.575 -0.129,0.749 -0.158,0.318 -0.459,0.477 -0.901,0.477 -0.545,0 -0.918,-0.233 -1.121,-0.699 C -3.307,-1.786 -3.359,-2.1 -3.359,-2.482 V -5.83 h -1.618 v 6.174 h 1.567 v -0.903 c 0.207,0.318 0.403,0.547 0.588,0.687 0.331,0.249 0.751,0.374 1.26,0.374 C -0.926,0.502 -0.405,0.335 0,0"
             style="fill:#002f75;fill-opacity:1;fill-rule:nonzero;stroke:none"
             id="path126" /></g><g
           id="g128"
           transform="translate(158.7643,50.3854)"><path
             d="M 0,0 C -0.229,-0.235 -0.373,-0.555 -0.432,-0.958 H 2.354 C 2.325,-0.528 2.182,-0.202 1.924,0.02 1.666,0.242 1.347,0.354 0.965,0.354 0.55,0.354 0.228,0.236 0,0 M 2.419,1.397 C 2.851,1.204 3.206,0.899 3.487,0.482 3.741,0.115 3.905,-0.312 3.98,-0.796 4.023,-1.081 4.042,-1.49 4.033,-2.024 h -4.504 c 0.025,-0.621 0.241,-1.056 0.647,-1.305 0.247,-0.155 0.544,-0.233 0.891,-0.233 0.369,0 0.668,0.095 0.899,0.284 0.125,0.102 0.236,0.244 0.332,0.425 H 3.949 C 3.905,-3.219 3.706,-3.592 3.35,-3.97 2.796,-4.572 2.021,-4.873 1.022,-4.873 c -0.822,0 -1.548,0.254 -2.177,0.761 -0.63,0.508 -0.945,1.333 -0.945,2.477 0,1.071 0.285,1.893 0.853,2.464 0.567,0.572 1.305,0.858 2.211,0.858 0.539,0 1.023,-0.097 1.455,-0.29"
             style="fill:#002f75;fill-opacity:1;fill-rule:nonzero;stroke:none"
             id="path130" /></g><g
           id="g132"
           transform="translate(163.0348,50.6994)"><path
             d="M 0,0 V 1.152 H 0.862 V 2.876 H 2.463 V 1.152 H 3.467 V 0 H 2.463 v -3.269 c 0,-0.253 0.032,-0.411 0.097,-0.473 0.063,-0.063 0.26,-0.094 0.589,-0.094 0.049,0 0.101,10e-4 0.157,0.003 0.054,0.001 0.108,0.004 0.161,0.008 V -5.033 L 2.701,-5.062 C 1.937,-5.088 1.415,-4.956 1.135,-4.665 0.953,-4.479 0.862,-4.193 0.862,-3.808 V 0 Z"
             style="fill:#002f75;fill-opacity:1;fill-rule:nonzero;stroke:none"
             id="path134" /></g></g></g></g></svg>
