<?xml version="1.0" encoding="utf-8"?>
<!-- Generator: Adobe Illustrator 23.0.6, SVG Export Plug-In . SVG Version: 6.00 Build 0)  -->
<svg version="1.1" id="Layer_1" xmlns="http://www.w3.org/2000/svg" xmlns:xlink="http://www.w3.org/1999/xlink" x="0px" y="0px"
	 viewBox="0 0 1000 340.9" style="enable-background:new 0 0 1000 340.9;" xml:space="preserve">
<style type="text/css">
	.st0{fill-rule:evenodd;clip-rule:evenodd;fill:#050505;}
	.st1{fill-rule:evenodd;clip-rule:evenodd;fill:#2B2B28;}
	.st2{fill-rule:evenodd;clip-rule:evenodd;fill:#FFCC04;}
	.st3{fill-rule:evenodd;clip-rule:evenodd;fill:#EF8B22;}
	.st4{fill-rule:evenodd;clip-rule:evenodd;fill:#FFFFFF;}
	.st5{fill-rule:evenodd;clip-rule:evenodd;fill:#3F3E3B;}
	.st6{fill-rule:evenodd;clip-rule:evenodd;fill:#8E764C;}
	.st7{fill-rule:evenodd;clip-rule:evenodd;fill:#917E56;}
	.st8{fill-rule:evenodd;clip-rule:evenodd;fill:#B99B60;}
	.st9{fill-rule:evenodd;clip-rule:evenodd;fill:#60605E;}
	.st10{fill:#B99B60;}
	.st11{fill:#050505;}
	.st12{fill:#2B2B28;}
	.st13{fill:#FFCC04;}
	.st14{fill:#EF8B22;}
	.st15{fill:#FFFFFF;}
	.st16{fill:#3F3E3B;}
	.st17{fill:#8E764C;}
	.st18{fill:#917E56;}
	.st19{fill:#60605E;}
	.st20{fill:#525252;}
	.st21{fill-rule:evenodd;clip-rule:evenodd;fill:#525252;}
</style>
<g>
	<g>
		<path class="st0" d="M145.5,292.2c2.6,1.6,5.3,3.8,6.4,6.3c0.7,1.4,0.7,3.1,0.2,4.6c-0.1,0.1-0.1,0.3-0.2,0.4
			c4.4,0.6,8.8,1.4,12.9,2.8c4.4,1.5,9.3,4,10.6,8.9c0.5,2,0.3,4.1-0.4,6c-1.2,3-4.2,5.1-7.3,5.7c0.4,2.1,0.1,4.2-1,6.1
			c-2.9,5.1-9.4,5.9-14.3,3.2c-0.4-0.2-0.8-0.5-1.1-0.8c-0.3,0.8-0.7,1.6-1.3,2.4c-2.3,3-6.2,3.7-9.7,2.8c-1.1-0.3-2.1-0.8-3-1.5
			c-1.3-1-2.1-2.3-2.9-3.8c-0.5-0.9-0.9-1.8-1.6-2.6c-0.3-0.3-0.6-0.7-0.8-1.1c-0.4-0.6-0.8-1.2-1.2-1.8c-1.1-1.6-2.3-3.2-3.5-4.7
			c-0.4-0.5-0.8-1-1.2-1.5c-1.7-2-3.5-4-5.4-5.7c-0.6-0.5-1.2-1.1-1.8-1.6c-0.4-0.3-0.9-0.7-1.2-1.2c-0.4-0.8-0.6-1.8-0.7-2.8
			c-2.8-0.9-5.6-2.1-8.4-3.3c-0.8,2-2.2,3.5-4.6,4.1c-3.7,0.9-9.1-2.5-12.1-4.4c-5.1-3.1-9.9-6.7-14.4-10.6
			c-0.5-0.4-0.9-0.8-1.4-1.2c-1.7,1.8-3,4-3.8,6.4c-0.2,0.6-0.6,1.2-1,1.7c0,0.9,0,1.8-0.1,2.7c0,2,0,5.5-0.9,7.3
			c-0.2,0.5-0.8,0.9-1.2,1.2c-0.6,0.5-1.2,1-1.8,1.6c-2,1.8-3.8,3.7-5.4,5.7c-0.4,0.5-0.8,1-1.2,1.5c-1.2,1.6-2.3,3.1-3.5,4.7
			c-0.4,0.6-0.8,1.2-1.2,1.8c-0.3,0.4-0.5,0.8-0.8,1.1c-0.7,0.7-1.1,1.7-1.6,2.6c-0.8,1.5-1.5,2.7-2.9,3.8c-0.9,0.7-1.9,1.2-3,1.5
			c-3.5,0.9-7.4,0.1-9.7-2.8c-0.6-0.8-1-1.6-1.3-2.4c-0.3,0.3-0.7,0.5-1.1,0.8c-4.9,2.7-11.4,1.8-14.3-3.2c-1.1-1.9-1.4-4-1-6.1
			c-3.2-0.6-6.1-2.6-7.3-5.7c-0.8-1.9-1-4-0.4-6c1.3-4.9,6.2-7.4,10.6-8.9c4.8-1.6,10.1-2.5,15.1-3.1c4.6-0.6,9.3-1,14-1.3
			c1.6-0.1,3.3-0.2,4.9-0.3c0.1-0.4,0.1-0.9,0.2-1.3c0-0.3-0.1-0.6-0.1-0.9c-0.3-2.1-0.7-4.2-1-6.3c-0.1-0.6-0.2-1.2-0.3-1.8
			c-0.8-4.1-2.4-8-4-11.8c0-0.1-0.1-0.1-0.1-0.2c-0.5,0.2-1,0.2-1.5,0.3c-0.6,0-1.2,0-1.8-0.2c-2.4-0.6-4.7-3.3-6.3-5
			c-2.6-2.9-5.1-6-7.5-9.2c-6.9-9-13.3-18.4-19-28.2C9.2,225.6,1,209.7,0.3,196.5c-0.7-13.5,2.4-27.2,8.8-39.1
			c3.6-6.8,8.8-13.8,14.9-18.7c-1-3.4-1.6-6.9-2-10.4c-1.3,0.2-2.7,0.3-3.8,0.5c-1.8,0.2-3.8,0.3-5.7,0.2c-0.9,0-1.6-0.7-1.7-1.5
			c-0.2-0.9,0.3-1.7,1.1-2c0.9-0.5,3-3.5,3.6-4.4c0.6-1,1.2-1.9,1.8-2.9c0.2-0.3,0.3-0.6,0.4-0.9v-0.1c2.6-5.1,2.9-12.3,2.7-18
			c-0.2-5.4,1.6-12.4,3.4-17.5c1.3-3.7,2.8-7.5,4.6-11c0-0.1,0-0.2,0-0.3c0-0.2,0-0.5,0-0.7c0.1-4.9,1-10.2,2.2-14.9
			c2.4-10,6.9-19.8,14.3-27.1c-0.6-1.5-0.4-3.2,0.5-4.6c2.1-3.2,6.3-5.9,9.8-7.3c1.7-0.7,3.5-0.3,4.8,0.7c1.1-0.6,2.2-1.2,3.3-1.7
			c-0.5-1.1-0.5-2.2-0.2-3.4c0.4-1.3,1.1-2.4,2.3-3.1c19.3-11.2,40.3-11.2,59.5,0c1.2,0.7,2,1.8,2.3,3.1c0.3,1.1,0.2,2.3-0.2,3.4
			c1.1,0.5,2.2,1.1,3.3,1.7c1.3-1.1,3.2-1.4,4.9-0.7c3.5,1.4,7.7,4.1,9.8,7.3c0.9,1.4,1.1,3.1,0.5,4.6c7.3,7.4,11.8,17.1,14.3,27.1
			c1.2,4.8,2,10,2.2,14.9c0,0.2,0,0.5,0,0.7s0,0.4,0,0.6c0,0.4-0.1,0.8-0.1,1.2c4.1,9.1,6.7,21.8,6.2,31.6c0,0.3,0.1,0.8,0.1,1.2
			c0.1,0.8,0.2,1.6,0.4,2.4c0.4,2.1,0.8,4.2,1.3,6.2c0.4,1,0.8,1.9,1.3,2.8c0.7,1.4,1.1,3.1,1.7,4.6c0.9,2.3,2.1,4.4,3.6,6.4
			c0.4,0.6,0.5,1.3,0.2,1.9s-0.9,1-1.6,1c-3,0.1-6.3-0.9-9.1-1.9l-0.5-0.1c-0.6,3.4-0.9,7-0.9,10.5c6.1,4.9,11.1,11.8,14.8,18.6
			c6.3,11.9,9.5,25.6,8.8,39.1c-0.7,13.2-8.8,29.1-15.5,40.4c-5.7,9.8-12.1,19.2-19,28.2c-2.4,3.1-4.9,6.2-7.5,9.2
			c-1.3,1.4-3,3.4-4.9,4.5c0.5,0.4,1,0.9,1.5,1.3c3,2.5,6,6.3,4.2,10.4C146.3,291.2,145.9,291.7,145.5,292.2z"/>
		<path class="st0" d="M142.2,292.4c2.9,1.6,6.8,4.1,8,6.8c0.4,1,0.5,2.1,0.1,3.1c-0.5,1.3-1.6,2-2.8,2.4c0.6,0.1,1.3,0.1,1.9,0.2
			c4.9,0.6,10.1,1.5,14.7,3c3.7,1.3,8.3,3.4,9.4,7.6c0.4,1.6,0.3,3.3-0.4,4.8c-1.3,3.1-4.8,4.9-8.1,4.7c0.1,0.2,0.2,0.5,0.3,0.7
			c0.8,2,0.7,4.2-0.4,6.1c-2.4,4.2-7.8,4.7-11.8,2.5c-1.5-0.8-2-2.2-2.7-3.6c-0.1-0.2-0.2-0.4-0.3-0.6c-0.4-0.3-0.9-0.6-1.3-0.9
			c1.1,2.3,1.3,5-0.4,7.2c-1.8,2.4-5,2.9-7.8,2.2c-0.9-0.2-1.6-0.6-2.3-1.1c-2.1-1.7-2.5-4.2-4.2-6.1c-0.6-0.6-3.6-5.3-6.6-9
			c-4.2-5.1-8.1-8-8.2-8.2c-0.3-0.7-0.5-1.9-0.6-3.3c-3.9-1.2-7.7-2.8-11.3-4.5c-0.3,2.3-1.3,4.3-3.8,4.9c-2.9,0.8-8.3-2.6-10.7-4.1
			c-4.9-3.1-9.8-6.6-14.2-10.4c-0.9-0.7-1.7-1.5-2.6-2.3c-2.4,2.2-4.3,5-5.5,8.3c-0.2,0.6-0.6,1.1-1.1,1.5c-0.1,3.4,0,8.3-0.8,9.9
			c-0.1,0.3-4.1,3.1-8.2,8.2c-3.1,3.7-6.1,8.4-6.6,9c-1.7,1.9-2.1,4.4-4.2,6.1c-0.7,0.5-1.5,0.9-2.3,1.1c-2.8,0.7-5.9,0.2-7.8-2.2
			c-1.7-2.2-1.5-4.9-0.4-7.2c-0.4,0.3-0.9,0.6-1.3,0.9c-0.1,0.2-0.2,0.5-0.3,0.6c-0.7,1.4-1.2,2.8-2.7,3.6c-4,2.2-9.4,1.7-11.8-2.5
			c-1.1-1.9-1.2-4.1-0.4-6.1c0.1-0.2,0.2-0.5,0.3-0.7c-3.3,0.2-6.9-1.6-8.1-4.7c-0.6-1.5-0.8-3.2-0.4-4.8c1.1-4.2,5.7-6.3,9.4-7.6
			c4.7-1.6,9.9-2.4,14.7-3c4.6-0.6,9.2-1,13.9-1.3c1.7-0.1,3.4-0.2,5.2-0.3c0.4,0,0.8-0.1,1.2-0.1c0.1-0.4,0.1-0.8,0.2-1.1
			c0.1-0.7,0.2-1.3,0.3-2c0-0.4-0.1-0.8-0.2-1.2c-0.3-2.1-0.7-4.2-1-6.3c-0.1-0.6-0.2-1.2-0.3-1.8c-0.9-4.2-2.4-8.2-4.1-12.1
			c-0.3-0.7-0.6-1.4-0.9-2.1c-0.7,0.6-1.5,1-2.5,1c-0.4,0-0.8,0-1.2-0.1c-1.8-0.4-4.2-3.1-5.4-4.5c-2.6-2.9-5.1-6-7.4-9.1
			c-6.8-8.9-13.3-18.3-18.9-28C11.1,225,2.9,209.1,2.3,196.3c-0.7-13.2,2.4-26.5,8.6-38.1c3.6-6.7,8.9-14,15.4-18.9
			c-1.3-4.1-2.1-8.4-2.6-13.3l0,0c-2.2,0.7-8.5,1.2-11,1.1c1.5-0.6,4.5-5,6.2-8.2c0.2-0.4,0.4-0.7,0.5-0.9v-0.1
			c2.7-5.5,3.1-12.9,2.9-18.9c-0.3-7.2,3.7-19.9,8-28v-0.1c0-0.2,0-0.4,0-0.7c0-0.2,0-0.4,0-0.5c0.1-4.8,1-10.2,2.1-14.6
			c2.5-10.2,7.1-20,14.7-27.2c-0.2-0.3-0.3-0.5-0.4-0.7c-0.5-1.1-0.4-2.3,0.2-3.3c1.9-2.9,5.9-5.4,9-6.6c1.4-0.6,3,0,3.8,1.3
			c2-1.2,4.1-2.2,6.2-3.1l-0.7-1.3c-0.4-0.8-0.5-1.6-0.3-2.5s0.7-1.5,1.5-2c18.7-10.9,39-10.9,57.7,0c0.8,0.4,1.3,1.1,1.5,2
			s0.1,1.7-0.3,2.5l-0.7,1.3c2.1,0.9,4.2,2,6.2,3.1c0.7-1.3,2.4-1.9,3.8-1.3c3.1,1.2,7.1,3.7,9,6.6c0.7,1,0.7,2.2,0.2,3.3
			c-0.1,0.2-0.2,0.4-0.4,0.7c7.6,7.2,12.2,16.9,14.7,27.2c1.1,4.4,2,9.9,2.1,14.6c0,0.2,0,0.4,0,0.5c0,0.2,0,0.4,0,0.7
			c0,0.5-0.1,0.9-0.3,1.3c4.5,9.5,6.8,22.5,6.4,31.4c-0.1,1.2,0.8,5.8,1.8,10.4c0.4,1.1,0.9,2.1,1.4,3.1c1.2,2.2,1.3,5.8,5.5,11.3
			c-2.9,0.1-6.2-1-8.6-1.9l-2.4-0.3c-0.9,4.4-1.3,9-1.3,13.4c6.3,4.9,11.5,12,15,18.6c6.2,11.6,9.2,25,8.6,38.1
			c-0.7,12.8-8.8,28.7-15.2,39.6c-5.7,9.7-12.1,19.1-18.9,28c-2.4,3.1-4.8,6.2-7.4,9.1c-1.2,1.4-3.5,4-5.4,4.5
			c-0.4,0.1-0.8,0.1-1.2,0.1c-0.3,0-0.6-0.1-0.9-0.2c0.7,0.7,1.5,1.5,2.3,2.1c0.7,0.6,1.4,1.2,2.1,1.8c2.3,2,5.1,5,3.7,8.3
			C144.3,291,143.3,291.9,142.2,292.4z"/>
		<path class="st0" d="M142.2,292.4c2.9,1.6,6.8,4.1,8,6.8c0.4,1,0.5,2.1,0.1,3.1c-1.1,2.7-4.4,2.9-6.9,2.8c-1.6-0.1-3.3-0.3-5-0.5
			c1.1,1.4,2,3.1,1.4,4.9c-1.2,4.4-7.9,3.8-11.4,3.5c-7.2-0.7-14.5-3.4-21.2-6.5c-0.3,2.3-1.3,4.3-3.8,4.9
			c-2.9,0.8-8.3-2.6-10.7-4.1c-4.9-3.1-9.8-6.6-14.2-10.4c-5-4.3-11.1-10.1-14.3-15.9c-0.2-0.4-0.4-0.9-0.4-1.4
			c-0.1-4,0.9-7.8,3.1-11.2c5.1-7.6,15.4-10.9,24.1-12.3c6.4-1,13.3-1.3,19.8-0.8c2.3,0.2,4.7,0.4,7,1c2,0.5,4.4,1.2,5,3.4
			c0.2,0.7,1,2,1.4,2.7c1.1,1.7,2.3,3.4,3.5,5.1c3.3,4.4,7.1,8.6,11.2,12.3c0.7,0.6,1.4,1.2,2.1,1.8c2.3,2,5.1,5,3.7,8.3
			C144.3,291,143.3,291.9,142.2,292.4z"/>
		<path class="st1" d="M67.1,279.5c6.7,12.6,32.4,29.7,35.6,28.9c1.3-0.3,1.6-2.1,1.5-4.1c-3.8-3.1-7.8-7-8.5-10.6
			c5.3,4.5,9.9,7.5,15.8,11.3c0,0,0,0,0.1,0c5.9,2.5,11.6,4.4,17.1,4.9c20.3,1.9-4-11.2-4-11.2s24.5,6,22.6,1.7
			c-1.9-4.2-17.1-10.3-17.1-10.3s18.9,2.1,8.9-6.3c-10.1-8.5-18.3-20.2-19.2-23.4C119.1,257.3,66.5,253.3,67.1,279.5z"/>
		<path class="st0" d="M156.4,136.1c9,4.2,16.4,13.7,21,22.3c6.2,11.6,9.2,25,8.6,38.1c-0.7,12.8-8.8,28.7-15.2,39.6
			c-5.7,9.7-12.1,19.1-18.9,28c-2.4,3.1-4.8,6.2-7.4,9.1c-1.2,1.4-3.5,4-5.4,4.5c-0.4,0.1-0.8,0.1-1.2,0.1c-3.6-0.2-5-4.6-5.8-7.5
			c-1.3-4.9-2-10.5-2.5-15.6c-0.8-7.3-1.3-14.6-1.6-21.9c-0.4-8.4-0.6-16.8-0.7-25.2c-0.1-8.2-0.1-16.5,0.1-24.7
			c0.2-7.2,0.4-14.5,1-21.7c0.4-5.1,0.8-10.6,1.9-15.7c0.6-3,1.7-8.2,5.5-8.4l19.4-1.2C155.5,135.8,155.9,135.9,156.4,136.1
			L156.4,136.1z M33,135.8l19.4,1.2c3.8,0.2,4.9,5.4,5.5,8.4c1,5.1,1.5,10.5,1.9,15.7c0.5,7.2,0.8,14.4,1,21.7
			c0.2,8.2,0.2,16.5,0.1,24.7c-0.1,8.4-0.3,16.8-0.7,25.2c-0.4,7.3-0.8,14.7-1.6,21.9c-0.5,5.1-1.2,10.7-2.5,15.6
			c-0.8,2.9-2.2,7.3-5.8,7.5c-0.4,0-0.8,0-1.2-0.1c-1.8-0.4-4.2-3.1-5.4-4.5c-2.6-2.9-5.1-6-7.4-9.1c-6.8-8.9-13.3-18.3-18.9-28
			C11,225.1,2.8,209.2,2.2,196.4c-0.7-13.2,2.4-26.5,8.6-38.1c4.6-8.6,12-18.1,21-22.3C32,135.9,32.4,135.8,33,135.8z"/>
		<path class="st0" d="M39,329.4c-0.4,0.3-0.9,0.6-1.3,0.9c-0.1,0.2-0.2,0.5-0.3,0.6c-0.7,1.4-1.2,2.8-2.7,3.6
			c-4,2.2-9.4,1.7-11.8-2.5c-1.1-1.9-1.2-4.1-0.4-6.1c0.1-0.2,0.2-0.5,0.3-0.7c-3.3,0.2-6.9-1.6-8.1-4.7c-0.6-1.5-0.8-3.2-0.4-4.8
			c1.1-4.2,5.7-6.3,9.4-7.6c4.7-1.6,9.9-2.4,14.7-3c4.6-0.6,9.2-1,13.9-1.3c1.7-0.1,3.4-0.2,5.2-0.3c0.4,0,0.8-0.1,1.2-0.1
			c0.1-0.4,0.1-0.8,0.2-1.1c0.2-1.4,0.3-2.8,0.5-4.1c0.2-2.2,0.5-4.9,1.1-7.1c0.7-2.3,2.1-4.6,4.8-4.5c1.5,0,2.2,0.6,3.2,1.3h0.1
			c2.4,1,2.6,4,2.7,6.3c0.1,2.4-1.4,5.1-1.6,7.5c-0.7,2.5,0,10.5-1.1,12.7c-0.1,0.3-4.1,3.1-8.2,8.2c-3.1,3.7-6.1,8.4-6.6,9
			c-1.7,1.9-2.1,4.4-4.2,6.1c-0.7,0.5-1.5,0.9-2.3,1.1c-2.8,0.7-5.9,0.2-7.8-2.2C37.7,334.4,37.9,331.8,39,329.4z"/>
		<path class="st2" d="M67.4,290.7c1.4,0.6,0,11.2-0.7,17c-0.3,2.2,0.9,4.5-4.7,8.9c-4.9,3.9-8.5,10.4-10.6,12.8
			c-2.5,2.7-2.5,5.7-5,6.3c-4.4,1.1-7.2-2.3-3.3-7c4.1-5,11.4-12.5,11.6-12.7c0,0-11.7,7-18.9,11.7c-1.2,0.8-1.7,3.5-2.6,4
			c-6.1,3.4-12.3-3.4-4.3-8.9c6.4-4.4,18.3-9.7,18.3-9.7s-5.1,0.7-19,4.3c-1.1,0.3-1.8,2.5-3.4,3.8c-2,1.6-6.2,0.6-7.2-2
			C13,308,54,305.2,62.3,307c-0.7-0.6-1.5-1.2-2.5-1.6c1.2-2.3,2.7-10.4,3.6-13.5C64.7,287.7,66.6,290.6,67.4,290.7z"/>
		<path class="st3" d="M67.5,300.8c-0.3,2.5-0.6,5-0.8,6.9c-0.3,2.2,0.9,4.5-4.7,8.9c-4.9,3.9-8.5,10.4-10.6,12.8
			c-2.5,2.7-2.5,5.7-5,6.3c-3.7,0.9-6.4-1.4-4.6-5.1c0,0.1,0,0.3,0,0.4c0,2.9,4.5,2.8,7.5-2.5s12.1-13.6,15-16
			c3-2.4,0.7-12.2,0.7-12.2S66,300.5,67.5,300.8L67.5,300.8z M54.6,316.2c0.7-0.5,1.2-0.9,1-1.1c-0.4-0.5-21.7,11.7-21.7,11.7
			s0,2.1-4.5,3.4c-2.1,0.6-3.6-0.5-4.4-2c-0.3,3.5,3.9,5.9,8.1,3.6c0.9-0.5,1.4-3.1,2.6-4C43,323.1,54.7,316.1,54.6,316.2
			C54.7,316.1,54.7,316.1,54.6,316.2L54.6,316.2z M47,313.3c1.9-0.7,5.3-1.9,3.1-1.8c-3,0.1-23.3,3.5-23.3,3.5s-0.9,1.2-2.9,3.1
			c-1.8,1.8-5,1.5-6.6-1.6c-0.2,0.8-0.2,1.7,0.2,2.7c1.1,2.6,5.2,3.6,7.2,2c1.6-1.2,2.3-3.5,3.4-3.8c13.9-3.5,19-4.3,19-4.3
			L47,313.3z"/>
		<path class="st4" d="M17.3,317.2C21,307,40.9,306.4,50.4,306c3.7-0.1,7.3-0.3,10.9,0.7c-2.6-0.1-3.4-0.1-6.7,0
			c-8.5,0.4-32.2,1.9-35.2,10.9c-0.1,0.6-0.7,0.9-1.3,0.8C17.5,318.4,17.1,317.8,17.3,317.2z"/>
		<path class="st0" d="M148.9,329.4c0.4,0.3,0.9,0.6,1.3,0.9c0.1,0.2,0.2,0.5,0.3,0.6c0.7,1.4,1.2,2.8,2.7,3.6
			c4,2.2,9.4,1.7,11.8-2.5c1.1-1.9,1.2-4.1,0.4-6.1c-0.1-0.2-0.2-0.5-0.3-0.7c3.3,0.2,6.9-1.6,8.1-4.7c0.6-1.5,0.8-3.2,0.4-4.8
			c-1.1-4.2-5.7-6.3-9.4-7.6c-4.7-1.6-9.9-2.4-14.7-3c-4.6-0.6-9.2-1-13.9-1.3c-1.7-0.1-3.4-0.2-5.2-0.3c-0.4,0-0.8-0.1-1.2-0.1
			c-0.1-0.4-0.1-0.8-0.2-1.1c-0.2-1.4-0.3-2.8-0.5-4.1c-0.2-2.2-0.5-4.9-1.1-7.1c-0.7-2.3-2.1-4.6-4.8-4.5c-1.5,0-2.2,0.6-3.2,1.3
			h-0.1c-2.4,1-2.6,4-2.6,6.3c-0.1,2.4,1.4,5.1,1.6,7.5c0.7,2.5,0,10.5,1.1,12.7c0.1,0.3,4.1,3.1,8.2,8.2c3.1,3.7,6.1,8.4,6.6,9
			c1.7,1.9,2.1,4.4,4.2,6.1c0.7,0.5,1.5,0.9,2.3,1.1c2.8,0.7,5.9,0.2,7.8-2.2C150.2,334.4,150,331.8,148.9,329.4z"/>
		<path class="st2" d="M120.5,290.7c-1.4,0.6,0,11.2,0.7,17c0.3,2.2-0.9,4.5,4.7,8.9c4.9,3.9,8.5,10.4,10.6,12.8
			c2.5,2.7,2.5,5.7,5,6.3c4.4,1.1,7.2-2.3,3.3-7c-4.1-5-11.4-12.5-11.6-12.7c0,0,11.7,7,18.9,11.7c1.2,0.8,1.7,3.5,2.6,4
			c6.1,3.4,12.3-3.4,4.3-8.9c-6.4-4.4-18.3-9.7-18.3-9.7s5.1,0.7,19,4.3c1.1,0.3,1.8,2.5,3.4,3.8c2,1.6,6.2,0.6,7.2-2
			c4.6-11.3-36.5-14.1-44.8-12.3c0.7-0.6,1.5-1.2,2.5-1.6c-1.2-2.3-2.7-10.4-3.6-13.5C123.2,287.7,121.3,290.6,120.5,290.7z"/>
		<path class="st3" d="M120.4,300.8c0.3,2.5,0.6,5,0.8,6.9c0.3,2.2-0.9,4.5,4.7,8.9c4.9,3.9,8.5,10.4,10.6,12.8
			c2.5,2.7,2.5,5.7,5,6.3c3.7,0.9,6.4-1.4,4.6-5.1c0,0.1,0,0.3,0,0.4c0,2.9-4.5,2.8-7.5-2.5s-12.1-13.6-15-16
			c-3-2.4-0.7-12.2-0.7-12.2S121.9,300.5,120.4,300.8L120.4,300.8z M133.2,316.2c-0.7-0.5-1.2-0.9-1-1.1
			c0.4-0.5,21.7,11.7,21.7,11.7s0,2.1,4.5,3.4c2.1,0.6,3.6-0.5,4.4-2c0.3,3.5-3.9,5.9-8.1,3.6c-0.9-0.5-1.4-3.1-2.6-4
			C144.9,323.1,133.2,316.1,133.2,316.2C133.2,316.1,133.2,316.1,133.2,316.2L133.2,316.2z M140.9,313.3c-1.9-0.7-5.3-1.9-3.1-1.8
			c3,0.1,23.3,3.5,23.3,3.5s0.9,1.2,2.9,3.1c1.8,1.8,5,1.5,6.6-1.6c0.2,0.8,0.2,1.7-0.2,2.7c-1.1,2.6-5.2,3.6-7.2,2
			c-1.6-1.2-2.3-3.5-3.4-3.8c-13.9-3.5-19-4.3-19-4.3L140.9,313.3z"/>
		<path class="st4" d="M170.6,317.2c-3.7-10.2-23.6-10.8-33.1-11.2c-3.7-0.1-7.3-0.3-10.9,0.7c2.6-0.1,3.4-0.1,6.7,0
			c8.5,0.4,32.2,1.9,35.2,10.9c0.1,0.6,0.7,0.9,1.3,0.8C170.4,318.4,170.8,317.8,170.6,317.2z"/>
		<path class="st1" d="M155.7,138.9c13.7,6.5,29.2,30.2,27.8,57.5c-1.4,27.2-41.2,77.4-44.6,78.2c-9.8,2.4-10.9-133.9-2.6-134.4
			L155.7,138.9z"/>
		<path class="st5" d="M155.7,138.9c13.7,6.5,29.2,30.2,27.8,57.5c0,0.5-0.1,1.1-0.1,1.6c-7.7,9.5-20.4,6.8-25.2-8.9
			c-6.5-21.3-11.4-33.2-11.4-33.2s-5.8-10.1-2-16.3L155.7,138.9z"/>
		<path class="st6" d="M182.9,200.3c-0.2,1-9.1,29.4-10.3,19c-0.2-1.9-0.3-4.4-0.4-6.1c-0.2-4.6-1.4-6.5-4.1-0.7
			c-7.3,16-13.2,20.9-10.1-2.7l0.3-2.6c-1.5,4.5-3.7,12.9-2.1,17.7c2.6,7.8,9.8-4.3,13.5-11.4c0,3.8,0.3,10.7,3,10.6
			c0.6,0,1.1-0.2,1.7-0.4C178.6,215.4,181.8,207.3,182.9,200.3z"/>
		<path class="st6" d="M162.5,244.4l0.1-0.8c0.4-3.4-0.2-6.1-2.8-1.8c-8.1,13.4-13.6,17.6-8-2.9l0.6-2.3c-1.8,3.7-4.6,10.9-4,15.2
			c1,7.1,8.3-2.6,12.1-8.3c-0.2,1.2-0.4,2.9-0.5,4.4C160.9,246.8,161.7,245.6,162.5,244.4z"/>
		<path class="st1" d="M32.8,138.9C19.1,145.4,3.6,169.1,5,196.4c1.4,27.2,41.2,77.4,44.6,78.2c9.8,2.4,10.9-133.9,2.6-134.4
			L32.8,138.9z"/>
		<path class="st5" d="M32.8,138.9C19.1,145.4,3.6,169.1,5,196.4c0,0.5,0.1,1,0.1,1.5c7.7,9.6,20.4,6.8,25.2-8.8
			c6.5-21.3,11.4-33.2,11.4-33.2s5.8-10.1,2-16.3L32.8,138.9z"/>
		<path class="st6" d="M5.5,200.3c0.2,1,9.1,29.4,10.3,19c0.2-1.9,0.3-4.4,0.4-6.1c0.2-4.6,1.4-6.5,4.1-0.7
			c7.3,16,13.2,20.9,10.1-2.7l-0.3-2.6c1.5,4.5,3.7,12.9,2.1,17.7c-2.6,7.8-9.8-4.3-13.5-11.4c0,3.8-0.3,10.7-3,10.6
			c-0.6,0-1.1-0.2-1.7-0.4C9.8,215.4,6.6,207.3,5.5,200.3z"/>
		<path class="st6" d="M25.9,244.4l-0.1-0.8c-0.4-3.4,0.2-6.1,2.8-1.8c8.1,13.4,13.6,17.6,8-2.9l-0.6-2.3c1.8,3.7,4.6,10.9,4,15.2
			c-1,7.1-8.3-2.6-12.1-8.3c0.2,1.2,0.4,2.9,0.5,4.4C27.5,246.8,26.7,245.6,25.9,244.4z"/>
		<path class="st0" d="M35.2,154.6c-8.3-8.7-10.7-17.1-11.9-28.4c-2.4-0.2-9.2,0.9-9.4,0.5c0.9-0.7,4.5-7.2,5.1-8.5
			c2.7-5.5,3.1-12.9,2.9-18.9c-0.4-8.6,5.4-25.1,10.6-32C46,49,70.2,44.3,91.7,44.2c22-0.1,49.1,3,63.8,21.5
			c7.1,9,11,26.9,10.5,38.3c-0.2,4.7,1.1,9.3,3.3,13.5c1.2,2.2,1.3,5.8,5.5,11.3c-4.3,0.1-9.6-2.3-11.5-2.9
			c-1.2,11.4-2.2,20.2-10.6,28.9c4.9,14.6,7.1,30.1,6.6,45.6c-0.6,16.7-4.5,33-11.4,48.2c-2.8,6.2-5.6,12.4-8.4,18.6
			c-1.7,3.9-3.5,7.8-5.1,11.8c-1.6,3.9-3.2,7.9-4.1,12.1c-0.1,0.6-0.2,1.2-0.3,1.8c-0.4,2.1-0.7,4.2-1,6.3c-0.1,0.5-0.2,1.1-0.2,1.6
			c-0.1,1.4-1,2.5-2.3,2.9l-5.3,1.4c-1.6,0.4-3.2-0.5-3.7-2c-1.7-4.9-4.9-8.8-9.3-11.4c-12.5-7.4-32.5-3.2-37.6,11.4
			c-0.5,1.5-2.1,2.4-3.7,2l-5.3-1.4c-1.4-0.3-2.3-1.5-2.3-2.9c0-0.5-0.1-1.1-0.2-1.6c-0.3-2.1-0.7-4.2-1-6.3
			c-0.1-0.6-0.2-1.2-0.3-1.8c-0.9-4.2-2.4-8.2-4.1-12.1c-1.6-4-3.4-7.9-5.1-11.8c-2.8-6.2-5.6-12.4-8.4-18.6
			c-6.9-15.2-10.8-31.6-11.4-48.3C28,184.7,30.3,169.2,35.2,154.6z"/>
		<path class="st7" d="M38.8,153.7c-8.9,25-9.7,53-1.2,79.5c-3.5-18.6-4.5-40.4,0.6-53l1.9-3.7l-0.8,4c-4.2,21.9,0.9,55.8,9.5,78.7
			c0.4,0.9,1.8,4,2.3,6.1c7.6,17.1,8.9,21,9.9,26.9c1.3,7.5,1.3,8.3,1.3,8.3l5.3,1.4c7.6-22,44.6-23.6,52.8,0l5.3-1.4
			c0,0,0-0.8,1.3-8.3c1-5.9,2.4-9.9,10.2-27.5c0.6-2.1,1.7-4.8,2.1-5.5c8.6-22.8,13.7-56.8,9.5-78.7l-0.8-4l1.9,3.7
			c5.1,12.4,4.2,33.7,0.8,52c8.1-26.2,7.2-53.8-1.5-78.5c9.8-9.6,11.6-18.4,12.7-31.9l8.8,3.1c0,0-8.3-9.1-7.8-21.3
			c0.4-10.5-3.2-27.8-9.9-36.2C139.7,50.7,115.1,47,91.7,47.1c-23.9,0.1-45,6-56.7,21.8C29.6,76.2,24.7,92.2,25,99
			c0.9,21.6-7.8,25.9-7.8,25.9l8.8-3.1C27.2,135.4,28.9,144.2,38.8,153.7z"/>
		<path class="st8" d="M40.7,185.9c-7,43.3,7.5,86.6,47.5,94.9c2.1,0.4,4,0.5,5.8,0.3c1.7,0.2,3.6,0.2,5.8-0.3
			c39.9-8.3,54.5-51.6,47.5-94.9c1-22.3-48-15.9-53.2-15.1C88.8,170.1,39.7,163.6,40.7,185.9z"/>
		<path class="st7" d="M38.8,153.7c-8.9,25-9.7,53-1.2,79.5c-3.5-18.6-4.5-40.4,0.6-53l1.9-3.7l-0.8,4c-4.2,21.9,0.9,55.8,9.5,78.7
			c0.4,0.9,1.8,4,2.3,6.1c0.7,1.6,1.4,3.1,2,4.4c-0.3-2.4-1.1-5.5-2.7-9.8c-10.9-28.5-11.7-68.5-3.1-85.8c0,0,42.3-68.5,1.8-75.7
			c-15.9-2.9-23.9,8.8-27.8,25.1l4.8-1.7C27.2,135.4,28.9,144.2,38.8,153.7L38.8,153.7z M134.9,269.8c0.7-1.5,1.4-3.2,2.2-5
			c0.6-2.1,1.7-4.8,2.1-5.5c8.6-22.8,13.7-56.8,9.5-78.7l-0.8-4l1.9,3.7c5.1,12.4,4.2,33.7,0.8,52c8.1-26.2,7.2-53.8-1.5-78.5
			c9.8-9.6,11.6-18.4,12.7-31.9l4.8,1.7c-3.9-16.3-11.9-27.9-27.8-25.1c-40.5,7.3,1.8,75.7,1.8,75.7c8.6,17.4,7.8,57.3-3.1,85.8
			C135.9,264.2,135.1,267.4,134.9,269.8z"/>
		<path class="st7" d="M38.8,153.7c-1.2,3.3-2.2,6.7-3.1,10.1c2.3,3.3,4.8,6.5,7.2,9.5c38.3,46.4,81.3,36,108.8-11.5
			c-0.8-2.7-1.6-5.4-2.5-8.1c9.8-9.6,11.6-18.4,12.7-31.9l6.5,2.3c-0.2-1.1-0.5-2.2-0.7-3.4c-2.3-3.8-5.1-9.9-4.8-17.1
			c0.3-7.3-1.4-18-4.7-26.6c-0.9-1.5-1.8-2.9-2.7-4.2c-14.7-18.5-41.8-21.6-63.8-21.5C70.2,51.6,46,56.2,32.5,74.5
			c-0.9,1.2-1.8,2.8-2.7,4.5c-2.9,7.3-4.9,15.6-4.7,20c0.5,12.5-2.2,19.2-4.5,22.7c-0.2,0.8-0.5,1.6-0.8,2.4l6.4-2.3
			C27.2,135.4,28.9,144.2,38.8,153.7z"/>
		<path class="st0" d="M69.4,289.2c13.5-5.2,33.1-6.1,46.5-0.4c3.3,1.4,3.8,1.2,6.4,3.6c-2.5-1-4.3-1.5-6.8-2.3
			C101.3,285.8,84.1,287.6,69.4,289.2z"/>
		<g>
			<path class="st5" d="M58.5,212.1c1.6-1.9,3.9-5.2,3.2-9.2c-0.2-1.2-0.6-1.7-1.1-1.9c-0.1,2.5-1.4,4.8-3,6.6c-0.2,0.2-0.7,0.8-1,1
				c-0.4-0.2-1.2-0.9-1.4-1.1c-1.9-1.7-3.9-3.9-4.8-6.4c-1.1-0.4-1.8-0.1-1.7,1.8c0.3,4,3.6,7.4,5.6,9.2
				C56.6,214.1,56.8,214,58.5,212.1z"/>
			<path class="st5" d="M83.6,216.5c1.8-1.9,4.5-5.2,4.2-9.2c-0.1-1.5-0.6-2-1.3-1.9c-0.2,1.1-0.6,2.1-1.1,3.1
				c-0.7,1.3-1.7,2.5-2.7,3.5c-0.2,0.2-0.9,0.9-1.2,1.1c-0.3-0.2-1-0.9-1.2-1.1c-1.8-1.8-3.6-4.1-4.1-6.6c-0.8-0.1-1.3,0.3-1.4,1.9
				c-0.1,4,2.8,7.4,4.7,9.2C81.4,218.5,81.7,218.5,83.6,216.5z"/>
			<path class="st5" d="M108.9,216.5c2-1.8,5.1-5.2,5.2-9.2c0.1-1.8-0.6-2.2-1.5-1.8c-0.7,2.5-2.7,4.8-4.5,6.5
				c-0.2,0.2-1,0.9-1.4,1.1c-0.3-0.2-0.9-0.8-1-1c-1.7-1.8-3.2-4.2-3.4-6.7c-0.6,0.1-1,0.6-1.2,1.9c-0.5,4,2,7.4,3.7,9.2
				C106.5,218.5,106.8,218.5,108.9,216.5z"/>
			<path class="st5" d="M134,212.1c2.2-1.9,5.6-5.2,6.2-9.2c0.3-2.1-0.6-2.2-1.9-1.6c-1.1,2.4-3.2,4.6-5.1,6.2
				c-0.2,0.2-1.1,1-1.5,1.1c-0.2-0.2-0.7-0.8-0.8-0.9c-1.5-1.9-2.7-4.2-2.6-6.6c-0.4,0.2-0.7,0.8-1,1.8c-1,4,1.1,7.4,2.6,9.2
				C131.4,214.1,131.7,214,134,212.1z"/>
			<path class="st5" d="M70.5,232.5c1.6-1.9,3.9-5.5,3.3-9.7c-0.2-1.4-0.6-2-1.2-2c-0.1,2.7-1.5,5.2-3.1,7.3c-0.1,0.2-0.6,0.8-0.9,1
				c-0.3-0.2-0.9-0.9-1.1-1.1c-1.9-1.9-3.7-4.4-4.4-7.1c-0.9-0.4-1.6,0-1.5,1.9c0.2,4.2,3.1,7.8,5,9.7
				C68.7,234.5,68.9,234.5,70.5,232.5z"/>
			<path class="st5" d="M96,232.5c1.8-1.9,4.5-5.5,4.5-9.7c0-1.8-0.6-2.2-1.4-2c-0.5,2.7-2.2,5.2-4,7.2c-0.2,0.2-0.7,0.8-1.1,1.1
				c-0.3-0.2-0.8-0.8-0.9-1c-1-1.1-1.8-2.4-2.5-3.7c-0.5-1.1-0.9-2.3-1-3.6c-0.6-0.1-1.1,0.5-1.2,2c-0.3,4.2,2.2,7.8,3.9,9.7
				C93.9,234.5,94.1,234.5,96,232.5z"/>
			<path class="st5" d="M121.5,232.5c2-1.9,5.2-5.5,5.6-9.7c0.2-2.1-0.6-2.4-1.7-1.8c-0.9,2.6-2.9,5-4.8,6.9
				c-0.2,0.2-0.9,0.9-1.3,1.1c-0.2-0.2-0.6-0.8-0.7-0.9c-1.6-2.1-2.7-4.7-2.6-7.3c-0.4,0.2-0.8,0.8-1.1,2c-0.8,4.2,1.3,7.8,2.7,9.7
				C119.1,234.5,119.4,234.5,121.5,232.5z"/>
			<path class="st5" d="M62.7,250.8c1.3-1.9,3.2-5.5,2.6-9.7c-0.2-1.3-0.6-1.9-1.1-2c0,2.6-1,5.2-2.5,7.4c-0.1,0.2-0.4,0.6-0.6,0.9
				c-0.3-0.3-0.8-0.8-1-1c-1.8-1.9-3.6-4.3-4.4-6.9c-1.1-0.7-1.9-0.5-1.6,1.7c0.4,4.2,3.3,7.8,5.1,9.7
				C61.1,252.9,61.3,252.8,62.7,250.8z"/>
			<path class="st5" d="M84,250.8c1.5-1.9,3.8-5.5,3.6-9.7c-0.1-1.7-0.6-2.2-1.3-2c-0.1,1.2-0.5,2.4-1,3.5c-0.6,1.3-1.4,2.6-2.3,3.7
				c-0.1,0.2-0.5,0.7-0.8,0.9c-0.3-0.3-0.7-0.8-0.8-0.9c-1.7-2.1-3.2-4.6-3.7-7.2c-0.8-0.3-1.3,0.1-1.4,2c0,4.2,2.4,7.8,4.1,9.7
				C82.2,252.9,82.4,252.8,84,250.8z"/>
			<path class="st5" d="M105.6,250.8c1.8-2,4.5-5.5,4.7-9.7c0.1-2-0.6-2.3-1.5-1.8c-0.7,2.6-2.3,5.1-4.1,7c-0.2,0.2-0.6,0.7-0.9,1
				c-0.2-0.3-0.5-0.7-0.7-0.9c-1.6-2.2-2.7-4.7-2.8-7.4c-0.5,0-1,0.6-1.2,2c-0.5,4.2,1.6,7.8,3,9.7
				C103.5,252.9,103.8,252.8,105.6,250.8z"/>
			<path class="st5" d="M126.9,250.8c2-2,5-5.5,5.7-9.7c0.4-2.4-0.6-2.4-1.9-1.5c-1,2.5-2.9,4.8-4.7,6.7c-0.2,0.2-0.7,0.7-1.1,1
				c-0.2-0.3-0.4-0.6-0.5-0.8c-1.4-2.2-2.2-4.8-2-7.3c-0.4,0.2-0.7,0.8-1,1.9c-1,4.2,0.7,7.8,1.9,9.7
				C124.7,252.9,124.9,252.8,126.9,250.8z"/>
			<path class="st5" d="M73.1,267.1c1.3-1.9,3.2-5.4,2.7-9.6c-0.2-1.6-0.6-2.1-1.2-2c-0.1,2.6-1.1,5.1-2.6,7.3
				c-0.1,0.2-0.3,0.5-0.5,0.8c-0.3-0.3-0.6-0.7-0.7-0.8c-1.7-2-3.1-4.4-3.8-6.9c-0.9-0.6-1.6-0.4-1.5,1.7c0.2,4.2,2.7,7.7,4.4,9.6
				C71.6,269.1,71.7,269.1,73.1,267.1z"/>
			<path class="st5" d="M94.5,267.1c1.5-1.9,3.8-5.4,3.9-9.6c0-2-0.6-2.3-1.4-1.9c-0.5,2.6-1.8,5-3.4,7.1c-0.1,0.2-0.4,0.6-0.7,0.8
				c-0.2-0.3-0.5-0.6-0.6-0.8c-1.5-2.1-2.7-4.6-3-7.3c-0.6-0.2-1.1,0.3-1.2,2c-0.3,4.2,1.8,7.7,3.2,9.6
				C92.7,269.1,92.9,269.1,94.5,267.1z"/>
			<path class="st5" d="M115.9,267.1c1.7-1.9,4.5-5.4,5-9.6c0.3-2.4-0.6-2.4-1.8-1.5c-0.8,2.5-2.4,4.7-4.1,6.6
				c-0.2,0.2-0.5,0.6-0.8,0.9c-0.2-0.2-0.3-0.5-0.4-0.7c-1.4-2.2-2.2-4.8-2.1-7.4c-0.4,0.1-0.8,0.7-1,2c-0.8,4.2,0.9,7.7,2.1,9.6
				C113.8,269.1,114,269.1,115.9,267.1z"/>
		</g>
		<path class="st9" d="M25.9,146.6c-0.1,0.2-5,5.8-5.1,6c-19.7,25.5-16.8,53-2.5,80.1l1.7,3.2C8.3,220.7,3.1,201.5,5,182.5
			c1.2-12.2,10.3-32.9,20.5-39.3c0.9-0.1,1.8,0.6,1.9,1.5C27.5,145.6,26.8,146.5,25.9,146.6z"/>
		<path class="st9" d="M162.2,146.6c0.1,0.2,5,5.8,5.1,6c19.7,25.5,16.8,53,2.5,80.1l-1.7,3.2c11.6-15.1,16.8-34.3,15-53.3
			c-1.2-12.2-10.3-32.9-20.5-39.3c-0.9-0.1-1.8,0.6-1.9,1.5C160.6,145.6,161.3,146.5,162.2,146.6z"/>
		<path class="st6" d="M180.1,171.5c0.1,5.7-0.4,12.1-3.2,15.7c-1.1-1.5-2.6-5.5-3.5-7.9c-1.7-4.7-3.4-5.5-4.2,0.8
			c-2.1,16.8-6.2,22.9-10.6-0.3l-0.5-2.6c-0.1,4.7,0.5,13.4,3.6,17.6c5,6.8,8.1-6.7,9.4-14.4c1.2,3.7,3.6,10.2,6.3,9.4
			s4.1-4.9,4.8-9.8C181.7,177.1,181,174.3,180.1,171.5z"/>
		<path class="st6" d="M8.3,171.5c-0.1,5.7,0.4,12.1,3.2,15.7c1.1-1.5,2.6-5.5,3.5-7.9c1.7-4.7,3.4-5.5,4.2,0.8
			c2.1,16.8,6.2,22.9,10.6-0.3l0.5-2.6c0.1,4.7-0.5,13.4-3.6,17.6c-5,6.8-8.1-6.7-9.4-14.4c-1.2,3.7-3.6,10.2-6.3,9.4
			s-4.1-4.9-4.8-9.8C6.7,177.1,7.5,174.3,8.3,171.5z"/>
		<path class="st0" d="M155.8,155.1l0.7,15.1c0,1-0.4,2-1.2,2.6s-1.8,0.8-2.8,0.5c-5.2-1.6-13.9-5.4-15.8-10.8
			c-1-2.9,1.2-7.3,2.5-9.8c2.1-4.1,4.6-8.1,7.1-11.9c3.9-6,8-11.9,12.2-17.6c0.9-1.2,2.4-1.6,3.8-1c1.3,0.6,2.1,2,1.8,3.5
			c-3.8,16.5,1,35.7,0.1,36.2C162.6,162.4,157.2,156.5,155.8,155.1z"/>
		<path class="st0" d="M32.5,155.1c-1.4,1.4-6.6,7-8,6.3c-1.3-0.6,3.9-15.7-0.1-35.9c-0.3-1.4,0.4-2.9,1.8-3.5
			c1.3-0.6,2.9-0.2,3.8,1c4.2,5.7,8.3,11.7,12.2,17.6c2.5,3.8,5,7.9,7.1,11.9c1.3,2.6,3.5,6.9,2.5,9.8c-2,5.8-20.3,14.7-20.5,14.5
			C30.8,176.8,32.4,157,32.5,155.1z"/>
		<path class="st0" d="M160.8,126.1c0.2,14.8-11.5,35.8-22.6,45.5c-2.4,2.1-17.4,10.4-19.8,8.8c-2.1-1.5,8.4-12.8,5.8-11.3
			c-3.3,2-5.1,2.6-8.4,4.1c-6,2.8-1.1-1.5-1.8-4.1c-1.3,1.1-9,8.4-10.4,7.6c-0.2-0.1,1.1-2.1,0.9-2.2c-0.9,1.1-10.3,12.9-10.3,12.9
			c-0.3,0-8.6-11.3-9.4-12.4c-0.4,0.4,1.6,3.1,0.5,2.9c-3.6-1.5-10.3-5.5-13.2-7.7c-0.2,1.6,0.3,6.9,0.2,6.9
			c-1.9,1.9-11.8-7.1-13.2-8.4c-3.3-3.1,1.3,7.5-2.1,8c-2.1,0.3-12.5-8.7-14.3-10.9c-4.4-5.3-8.9-11.4-11.9-17.6
			c-3.2-6.7-6.2-14.6-7.5-22.3c-2.1,0.7-8.6,1.2-11.2,1.1c1.6-0.6,5.2-6,6.8-9.2c2.7-5.5,3.1-12.9,2.9-18.9
			c-0.4-8.6,5.4-25.1,10.6-32c13.5-18.3,37.7-23,59.2-23.1c22-0.1,49.1,3,63.8,21.5c7.1,9,11,26.9,10.5,38.3
			c-0.1,2.7,4.3,21.3,4.3,21.4c-0.7,1.4-2.3,2-3.8,1.5L160.8,126.1z"/>
		<path class="st8" d="M67.8,185.7l1-8.7c7.7,8.7,12.8,9.5,12.8,9.5l-1.9-9.4l13.6,19.5l14-18.3l-1.5,7.5c0,0,7.5-6.1,13.9-12.5
			l-4.3,10.2c0,0,13.7-6.4,26.2-19.2c3.9,3.7,11.8,6.1,11.8,6.1c-0.1-2.4-2.8-26.4-2.5-26.9l9.5,11.8c0,0-0.7-6-0.8-13.6
			c-1-8.9,1.7-24.3,2.5-28c0.4,2.8,0.6,5.6,0.5,8.5c0.7,0.3,8.1,3,8.1,2.9c-2.4-3.6-8.2-13.3-7.8-21.3c0.4-10.5-3.2-27.8-9.9-36.2
			c-13.3-16.7-37.9-20.4-61.3-20.3c-23.9,0.1-45,6-56.7,21.8c-5.4,7.3-10.3,23.3-10,30.1c0.9,21.6-7.8,25.9-7.8,25.9l7.9-2.8
			c0.2-2.5,0.5-5.1,1.2-8.3c0.4,19,3.6,20.9,2.1,37.5c-0.1,1.2-1.4,4.9-0.4,3.9l8.8-9.4c0.6,7.5-1.6,18.6-1.8,24.4
			c0,0,6.9-2.1,11-5.4C56.1,176.9,67.7,187.2,67.8,185.7z"/>
		<path class="st7" d="M76.6,115.9c3.2-2.1,7.5-8.6,9.4-11.7s4.8-7.5,8.9-7.5s7,4.3,8.9,7.5c1.4,2.3,2.6,4.8,3.9,7.1
			c0.6,1,1.7,3,2.8,3.5c0.5,0.2,2.4,0.1,3,0.1c3,0,6,0.5,7.6,3.3c0.5,0.9,0.8,1.9,0.6,3c-0.6,3.8-6.1,4.9-9.2,5.6
			c-8,1.9-10.2,8.7-15.5,13.8l-2.3,2.1l-2.1-2.2c-4.5-4.8-9.8-13.1-16.9-13.8c-1.8-0.2-3.8-0.4-5.5-0.8c-1.8-0.5-3.4-1.4-3.8-3.4
			c-0.3-1.7,0.5-2.9,1.5-4.1c1.3-1.6,3.9-1.9,5.8-2.2C74.5,116.2,75.8,116.1,76.6,115.9z"/>
		<path class="st7" d="M129.9,174.3c3.7-2.8,7.7-6.1,11.6-10.1c3.9,3.7,11.8,6.1,11.8,6.1c-0.1-2.4-2.8-26.4-2.5-26.9l9.5,11.8
			c0,0-0.7-6-0.8-13.6c-1-8.9,1.7-24.3,2.5-28c0.4,2.8,0.6,5.6,0.5,8.5c0.7,0.3,8.1,3,8.1,2.9c-2.4-3.6-8.2-13.3-7.8-21.3
			c0.1-1.7,0-3.5-0.1-5.5c-0.7,9.7-5.7,18.2-6.4,29.8c-0.8,13-0.3,17.1-0.3,17.1l-8.3-10.5l0.4,29.6l-8.7-4.1
			C139.5,160.1,135.1,167,129.9,174.3L129.9,174.3z M25.1,96.8C25,97.6,25,98.4,25,99.1c0.9,21.6-7.8,25.9-7.8,25.9l7.9-2.8
			c0.2-2.5,0.5-5.1,1.2-8.3c0.4,19,3.6,20.9,2.1,37.5c-0.1,1.2-1.4,4.9-0.4,3.9l8.8-9.4c0.6,7.5-1.6,18.6-1.8,24.4
			c0,0,6.9-2.1,11-5.4c8.9,10.7,19.1,19.9,21.4,20.9c-8.3-8.7-18.9-25.7-18.9-25.7l-8.7,4.1l0.4-29.6l-8.3,10.5
			c0,0,0.5-4.1-0.3-17.1C30.9,115.8,25.3,107.1,25.1,96.8z"/>
		<path class="st5" d="M162.9,103.6c0.4-10.5-3.2-27.7-9.9-36c-13.3-16.7-37.9-20.4-61.3-20.3c-23.9,0.1-45,6-56.7,21.8
			c-5.4,7.3-10.3,23.3-10,30.1c0.2,5.6-0.2,10-0.9,13.5l0.1,0.1c2.6-18.2,4.9-30.3,13.2-15.6c8.3,14.8,23.3,21.5,27,16.1
			c3.6-5.4,8-5.2,7.3-10.6c-0.7-5.2,8.4-16.7,22-16.5c11.9,0.2,27.6,3.3,24.4,17.3c-2.6,11.4,10.9,16.1,10.9,16.1s15-5.4,22.3-15.6
			C156,97.4,160.2,99.2,162.9,103.6z"/>
		<path class="st5" d="M70.3,104.9c2.1,20-1,43.9-13,52.5c-19,13.7-16.6-48.7-9.9-65.9C54.2,74.4,70.3,104.9,70.3,104.9z"/>
		<path class="st5" d="M119.7,104.9c-2.1,20,1,43.9,13,52.5c19,13.7,16.6-48.7,9.9-65.9C135.8,74.4,119.7,104.9,119.7,104.9z"/>
		<path class="st0" d="M39.4,97.5c-1-5.7-1.7-10.5,2.6-15.1c6.3-6.6,17.1-2.9,22.6,3.3c5.3,5.9,8.5,15.4,6.6,23.6l-2.1,5.5
			c0-3.1,0-7.6-0.5-10.7c-1.5-8.8-7.9-17.2-15.8-19.8C43,81.1,41.2,89.5,39.4,97.5z"/>
		<path class="st0" d="M52.6,80.5C38.4,94.7,46,111.8,56.1,116c4.6,1.9,12.1,1.1,13.9-3.9C72.8,104.4,64.5,82.3,52.6,80.5z"/>
		<path class="st0" d="M150.4,97.5c1-5.7,1.7-10.5-2.6-15.1c-6.3-6.6-17.1-2.9-22.6,3.3c-5.3,5.9-8.5,15.4-6.6,23.6l2.1,5.5
			c0-3.1,0-7.6,0.5-10.7c1.5-8.8,7.9-17.2,15.8-19.8C146.8,81.1,148.6,89.5,150.4,97.5z"/>
		<path class="st0" d="M137.3,80.5c14.2,14.2,6.5,31.3-3.5,35.5c-4.6,1.9-12.1,1.1-13.9-3.9C117,104.4,125.3,82.3,137.3,80.5z"/>
		<path class="st4" d="M61.8,91.8c1.4-0.6,3.6,1.2,4.9,4.1c1.3,2.9,1.2,5.8-0.2,6.4c-1.4,0.6-3.6-1.2-4.9-4.1
			C60.3,95.3,60.4,92.5,61.8,91.8z"/>
		<path class="st4" d="M127.8,91.8c-1.4-0.6-3.6,1.2-4.9,4.1s-1.2,5.8,0.2,6.4c1.4,0.6,3.6-1.2,4.9-4.1S129.2,92.5,127.8,91.8z"/>
		<path class="st0" d="M47.4,27.6c26.4-24,68.7-24,95.1,0c7.9,7.2,12.7,17.2,15.3,27.7c1.2,4.8,2.1,10.8,2.1,15.8
			c0,1.8-1.4,3.2-3.1,3.2H33.1c-1.7,0-3.1-1.5-3.1-3.2c0-5,1-11,2.1-15.8C34.6,44.8,39.5,34.8,47.4,27.6z"/>
		<path class="st2" d="M49.4,30C33.1,44.9,33.1,71.1,33.1,71.1h123.7c0,0,0-26.2-16.3-41.1C115.2,7.1,74.6,7.1,49.4,30z"/>
		<path class="st3" d="M34.4,59.2C33,66.1,33,71.1,33,71.1h60.2c0.2-0.2,0.3-0.4,0.3-0.4s0.1,0.1,0.3,0.4h63c0,0,0-5.1-1.4-12.1
			c-11,1.3-35.1-3-38.5-9.6c-3.6-7-0.2-20.9,5.5-31c-18.1-7.8-39.3-7.5-57.2,1c5.4,10,8.4,23.2,5,30C67,55.5,46.3,59.7,34.4,59.2z"
			/>
		<path class="st0" d="M109.6,74.4H80.4c-1.7,0-3.1-1.4-3.1-3.2c-0.3-10.1-1.9-38-7-47.1c-1.8-3.2-3.6-6.4-5.4-9.6
			c-0.4-0.8-0.5-1.6-0.3-2.5s0.7-1.5,1.5-2c18.7-10.9,39-10.9,57.7,0c0.8,0.4,1.3,1.1,1.5,2s0.1,1.7-0.3,2.5
			c-1.8,3.2-3.6,6.4-5.4,9.6c-1.2,2.2-2,6-2.5,8.5c-0.8,4.3-2.2,8.8-2.7,13.2c-0.9,8.4-1.4,17-1.6,25.5
			C112.7,73,111.3,74.4,109.6,74.4z"/>
		<path class="st2" d="M94.9,71.1H79.3c0,0-1-39-6.4-48.7c-5.4-9.6-5.4-9.6-5.4-9.6c0.5-0.3,0.9-0.5,1.4-0.8
			c9.3,12,8.1,12.1,9.6,27.6c0.6,6.5,1,13.1,1.9,19.6c0.6-6.6,0.3-13.2,0-19.8c-0.8-15.7,0-16.6-8.9-28.8c15.1-7.4,31-7.4,46.1-0.2
			c-9,12.4-8.2,13.2-9,29c-0.3,6.6-0.6,13.2,0,19.8c0.9-6.5,1.3-13.1,1.9-19.6c1.5-15.6,0.4-15.6,9.7-27.7l0.1-0.1
			c0.6,0.3,1.2,0.7,1.8,1c0,0,0,0-5.4,9.6s-6.4,48.7-6.4,48.7H94.9z"/>
		<path class="st0" d="M59.6,19.2c0.9,2.6,8.9,22.9,7.4,23.8l-6.6,3.8c-1.8,1-12.6-16.5-13.9-19.4c-0.5-1.1-0.4-2.3,0.2-3.3
			c1.9-2.9,5.9-5.4,9-6.6C57.2,16.9,58.9,17.7,59.6,19.2z"/>
		<path class="st2" d="M56.7,20.6c-5.4,2.2-7.5,5.4-7.5,5.4c3.5,7.5,7.3,14.7,11.1,22.1l6.5-3.9L56.7,20.6z"/>
		<path class="st0" d="M134.2,17.5c3.1,1.2,7.1,3.7,9,6.6c0.7,1,0.7,2.2,0.2,3.3c-1.1,2.4-11.2,21.4-13.6,19.9l-6.5-3.9
			c-2.7-1.7,5.7-20.9,6.9-24.2C130.8,17.6,132.7,16.9,134.2,17.5z"/>
		<path class="st2" d="M133.1,20.6c5.4,2.2,7.5,5.4,7.5,5.4c-3.5,7.5-7.3,14.7-11.2,22.1l-6.5-3.9L133.1,20.6z"/>
		<path class="st8" d="M45.9,100.7c1.9,7.8,6.5,17.5,16.2,15.6c3.2-0.6,4.6-2.1,6.5-4.4c-1.1,3.1-2.9,4.8-6.2,5.8
			c-10.8,3-16.8-7.7-19.3-16.4c-0.2-0.7,0.3-1.5,1.1-1.6C45,99.5,45.7,100,45.9,100.7z"/>
		<path class="st0" d="M31.8,67.5c14.7-6.9,39.1-11.3,63.5-11.3c24.1,0,48.3,4.5,62.8,11.3c1.5,0.7,2.2,2.4,1.6,3.9
			c-2.7,7-17,9.8-23.4,10.9s-13,1.8-19.5,2.3c-7.3,0.5-14.6,0.8-21.9,0.8S80.3,85.2,73,84.6c-6.5-0.5-13.1-1.2-19.5-2.3
			c-6.5-1.1-20.7-3.8-23.4-10.9C29.6,69.9,30.3,68.2,31.8,67.5z"/>
		<path class="st3" d="M33.1,70.3c6.1,15.9,117.6,15.9,123.7,0C122.7,54.3,67.2,54.3,33.1,70.3z"/>
		<path class="st2" d="M151.6,68c-32.5-13-80.8-13-113.3,0C49.8,81.8,140,81.8,151.6,68z"/>
		<path class="st8" d="M144.3,100.7c-1.9,7.8-6.5,17.5-16.2,15.6c-3.2-0.6-4.6-2.1-6.5-4.4c1.1,3.1,2.9,4.8,6.2,5.8
			c10.8,3,16.8-7.7,19.3-16.4c0.2-0.7-0.3-1.5-1.1-1.6C145.2,99.5,144.5,100,144.3,100.7z"/>
		<path class="st0" d="M39.1,65.3C52.9,75.8,73.6,76,90.2,77.5l3.6,0.4c7.2,0.1,24-1.8,31.4-3.1c9.2-1.6,17.1-3.3,24.5-9.3
			c0.5-0.6,1.4-0.6,2-0.1s0.6,1.4,0.1,2l-3.8,2.9c-8.5,5.2-25.2,7.1-35,7.7c-7.4,0.4-12,0-19.1-0.1l-3.6,0.3
			c-8.6,0.4-21.6-0.8-30.2-2.3c-9.2-1.6-15.1-3.1-22.8-8.8c-0.5-0.5-0.5-1.4,0-2C37.7,64.7,38.6,64.7,39.1,65.3z"/>
		<path class="st4" d="M44.2,65.6c14.4-5.2,45.9-8.8,61-6.5c-17.9,0.3-43.5,2.2-60.1,8.5c-0.6,0.2-1.2,0-1.4-0.6
			C43.4,66.4,43.7,65.8,44.2,65.6z"/>
		<path class="st4" d="M56.9,21c1.4,3.2,8.5,19.4,8.9,21.7c-1.4-1.8-8.8-17.9-10.3-21.1c-0.2-0.4,0-0.8,0.4-1
			C56.3,20.4,56.7,20.6,56.9,21z"/>
		<path class="st4" d="M134.5,21.2c-7.7,16.2-3.8,8.2-11.9,24.2l0,0c6.8-16.6,3.3-8.4,10.4-24.8c0.2-0.4,0.6-0.6,1-0.4
			C134.5,20.3,134.7,20.8,134.5,21.2z"/>
		<path class="st0" d="M76.6,114.1c3.2-2.1,7.5-8.6,9.4-11.7c2-3.1,4.9-7.4,9-7.4s7,4.3,8.9,7.5c1.4,2.3,2.6,4.8,3.9,7.1
			c0.6,1,1.7,3,2.8,3.5c0.5,0.2,2.4,0.1,3,0.1c3,0,6,0.5,7.6,3.3c0.5,0.9,0.8,1.9,0.6,3c-0.6,3.8-6.1,4.9-9.2,5.6
			c-8,1.9-10.2,8.7-15.5,13.8l-2.3,2.1l-2.1-2.2c-4.5-4.8-9.8-13.1-16.9-13.8c-1.8-0.2-3.8-0.4-5.5-0.8c-1.8-0.5-3.4-1.4-3.8-3.4
			c-0.3-1.7,0.5-2.9,1.5-4.1c1.3-1.6,3.9-1.9,5.8-2.2C74.5,114.4,75.8,114.3,76.6,114.1z"/>
		<path class="st2" d="M88.7,104.1c-4.6,7.4-8.3,11.5-10.7,12.9c-0.9,0.5-6.7,0.6-7.6,1.7c-1.4,1.8-1.9,2.5,5.8,3.2
			c8.6,0.8,14.2,9.9,18.9,14.8c4.9-4.5,7.7-12.3,17-14.5c4.8-1.1,7.7-2.2,6.6-4c-1.8-3-7-1-9.4-2.3c-3.1-1.7-4.9-7-7.9-11.8
			C96.4,96.1,93.6,96.1,88.7,104.1z"/>
		<path class="st0" d="M79.3,120.6c7.7,2.4,11.2,9.5,15.7,14.2c4.4-4.7,8-11.7,15.7-14.2l-0.2-0.2c-13.8,5.1-9.2,8.9-15.5,0
			c-6.3,8.9-1.7,5.1-15.5,0L79.3,120.6z"/>
		<path class="st0" d="M91.9,106.3c-1.3,2.4-4,5-2.4,6.2C91.1,113.6,93.6,104.6,91.9,106.3z"/>
		<path class="st0" d="M98.1,106.3c1.3,2.4,4,5,2.4,6.2C98.9,113.6,96.3,104.6,98.1,106.3z"/>
		<path class="st0" d="M71.1,118.8c11.6,0.4,15.9,2.5,23.8,11c6.4-6.3,14.3-11.8,23.6-12.3l0,0c-1.6,1-0.9,0.6-3.3,1.6
			c-9.6,4-12.2,5.7-19.4,13.7c-3.5-0.9-1.8,0.1-3.9-2.2C84.5,122.1,81.8,121.5,71.1,118.8z"/>
		<path class="st0" d="M76.5,122c-2.3-0.5-4.1-2.5,0-2.2c2.5,0.2-3.3-2-7.1-1.4c-0.9,0.2-1.2,1.5-1.7,1.6c-0.4,0.1,0.7,0.7,0.7,0.7
			S70.3,122.8,76.5,122z"/>
		<path class="st0" d="M110.8,122.7c2.6-0.4,4.4-1.8,3.5-2.5c-0.4-0.3-2.3,0.2-4.1,0.3c-2.6,0.1,5.2-3.2,8.7-3.3
			C123,117,117.8,123.5,110.8,122.7z"/>
		<path class="st4" d="M82.7,114c3.3-5.1,6.3-10.5,10.4-14.9c-2.7,5.4-5.7,10.7-8.6,16c-0.3,0.5-1,0.7-1.5,0.4
			C82.5,115.1,82.4,114.5,82.7,114z"/>
		<g>
			<path class="st5" d="M73.1,168.6c1.3-1.9,3.2-5.4,2.7-9.6c-0.6-5.5-4.5,1.9-4.9,2.7c-0.5-0.8-5.7-8.2-5.4-2.7
				c0.2,4.2,2.7,7.7,4.4,9.6C71.6,170.6,71.7,170.6,73.1,168.6z"/>
			<path class="st5" d="M94.5,175.5c1.5-1.9,3.8-5.4,3.9-9.6c0-5.5-4.7,1.9-5.2,2.7c-0.4-0.8-4.7-8.2-5.1-2.7
				c-0.3,4.2,1.8,7.7,3.2,9.6C92.7,177.5,92.9,177.5,94.5,175.5z"/>
			<path class="st5" d="M115.9,168.6c1.7-1.9,4.5-5.4,5-9.6c0.7-5.5-5,1.9-5.6,2.7c-0.3-0.8-3.7-8.2-4.7-2.7
				c-0.8,4.2,0.9,7.7,2.1,9.6C113.8,170.7,114,170.6,115.9,168.6z"/>
		</g>
		<g>
			<g>
				<path class="st8" d="M119.7,154.6c-0.5,0.4-1,1-1.3,1.2c-0.7,0.8-1.5,1.7-2.1,2.5c-0.3,0.4-0.7,0.5-1.1,0.5
					c-0.5-0.1-0.8-0.3-1-0.7c-0.3-0.8-0.8-1.7-1.3-2.4c-0.2-0.3-0.6-0.9-0.9-1.3c-0.1,0.3-0.2,0.6-0.2,0.8c-0.6,3.1,0.3,6.1,1.9,8.8
					c0.1,0.1,0.3,0.4,0.4,0.7c0.3-0.3,0.7-0.7,0.8-0.9c2.2-2.5,4.3-5.6,4.7-8.9C119.6,154.7,119.7,154.7,119.7,154.6z"/>
			</g>
			<g>
				<path class="st8" d="M89.3,161.3c0,0.2-0.1,0.5-0.1,0.6c-0.2,3.2,1.2,6.3,3,8.8c0.1,0.1,0.4,0.5,0.6,0.8
					c0.3-0.3,0.6-0.7,0.7-0.8c2-2.5,3.6-5.6,3.6-8.8c0-0.1,0-0.3,0-0.5c-0.4,0.4-1,1-1.2,1.3c-0.6,0.8-1.3,1.7-1.8,2.5
					c-0.2,0.4-0.6,0.6-1.1,0.6s-0.8-0.3-1-0.6c-0.4-0.8-1-1.7-1.6-2.5C90.2,162.4,89.8,161.7,89.3,161.3z"/>
			</g>
			<g>
				<path class="st8" d="M74.5,154.4c-0.4,0.4-0.9,1-1,1.3c-0.5,0.8-1.1,1.6-1.5,2.5c-0.2,0.4-0.6,0.7-1,0.7c-0.5,0-0.9-0.2-1.1-0.5
					c-0.6-0.9-1.2-1.7-1.9-2.5c-0.2-0.2-0.8-0.8-1.2-1.3c0,0.1,0,0.3,0,0.4c0.2,3.3,2,6.4,4.1,8.9c0.1,0.2,0.5,0.6,0.7,0.8
					c0.2-0.3,0.4-0.6,0.5-0.8c1.7-2.6,2.9-5.6,2.5-8.8C74.6,154.9,74.6,154.7,74.5,154.4z"/>
			</g>
		</g>
		<path class="st3" d="M92.3,48.2c-1.9-0.2-3.4-0.5-4.7-1c-1.8-0.7-3.1-1.6-4-2.9c-2-2.7-2.6-6.8-3.4-12.8c0.1,2.2,0.2,4.8,0.4,7.9
			c0.1,1.7,0.2,3.4,0.2,5.1c0,1,0.1,2.1,0.1,3.1c0,1.4,0,2.8,0,4.3c0,1.6-0.1,3.2-0.2,4.8c4.8-0.3,9.6-0.5,14.5-0.5
			c4.5,0,8.9,0.2,13.3,0.5c-0.1-1.5-0.1-3-0.2-4.5c0-1.4,0-2.8,0-4.3c0-1,0.1-2.1,0.1-3.1c0.1-1.8,0.2-3.5,0.2-5.3
			c0.3-5.4,0.3-9,0.7-12c-1.8,5.7-2,11.2-2.9,13.9c-0.3,1-0.7,2.1-1.3,3.1c-0.7,1.1-1.7,2.2-3.4,2.9C99.9,48.3,96.9,48.7,92.3,48.2z
			"/>
		<path class="st4" d="M114.4,12.6C104.6,8.5,92.5,6.7,82,9.2c0,0-5.6,1.4-7.3,1.9c1.2,2.7,4.5,5.7,6.2,12.1
			c1.4,5.5,1.1,20.6,0.1,26.2c-0.1-5.1-0.5-10.8-0.8-16.3c-0.2-4.2-0.3-8.4-2.2-12.6c-1.2-2.6-6-8.6-5.7-10.1
			c0.4-1.9,7.6-3.3,8.9-3.7c11.4-3.1,24.2-1.4,35,2.9c0.8,0.5,1.1,1.5,0.6,2.3C116.3,12.8,115.2,13.1,114.4,12.6z"/>
	</g>
	<path class="st0" d="M138.6,164.9c6.4,2.2,15,5.3,19,11.2c-8-5.3-10.2-6.3-19.6-9.1c-0.6-0.2-0.9-0.8-0.7-1.3
		C137.4,165.1,138,164.8,138.6,164.9z"/>
	<path class="st0" d="M133.2,166.4c1.3,0.9,10,7,9.9,8.3c-0.5-0.1-10-5.8-11.1-6.4c-0.5-0.3-0.7-1-0.3-1.5
		C132,166.3,132.7,166.1,133.2,166.4z"/>
	<path class="st0" d="M49.7,164.9c-6.4,2.2-15,5.3-19,11.2c8-5.3,10.2-6.3,19.6-9.1c0.6-0.2,0.9-0.8,0.7-1.3
		C50.9,165.1,50.3,164.8,49.7,164.9z"/>
	<path class="st0" d="M55.1,166.4c-1.3,0.9-10,7-9.9,8.3c0.5-0.1,10-5.8,11.1-6.4c0.5-0.3,0.7-1,0.3-1.5
		C56.3,166.3,55.6,166.1,55.1,166.4z"/>
	<g>
		<path class="st10" d="M248.9,253.7V83h90.2v29h-59.4v36.9h54.6v29h-54.6v75.9L248.9,253.7L248.9,253.7z"/>
		<path class="st10" d="M461.2,253.7h-69.9c-2.9,0.2-5.3-0.3-7.2-1.4c-1.9-1.1-3.5-2.5-4.8-4.1s-2.2-3.3-2.8-5.1
			c-0.6-1.8-0.8-3.5-0.8-4.9V83h30.9v141.9h54.6L461.2,253.7L461.2,253.7z"/>
		<path class="st10" d="M491.8,238.1V83H582v29h-59.4v36.9h54.6v29h-54.6v46.9H582v29h-74.7c-2.9,0-5.3-0.6-7.2-1.7
			c-1.9-1.1-3.5-2.5-4.8-4.1s-2.2-3.3-2.8-5C492.1,241.1,491.8,239.5,491.8,238.1z"/>
		<path class="st10" d="M619.9,253.7V84.2l91.4-1.2c4.8,0,8.4,1.5,10.9,4.4c2.5,3,3.7,6,3.7,9.2v133.6c0,2.7-0.6,5.2-1.8,7.4
			s-2.8,4-4.9,5.3l-20.8,12.7c-2.2,1.4-5.7,2.2-10.3,2.2c-1.3,0-2.7-0.2-4.3-0.5l-36.1-11l-2.4,7.4L619.9,253.7L619.9,253.7z
			 M685.7,230.7l9.3-5.7V110.5h-44.3V222L685.7,230.7z"/>
		<path class="st10" d="M766.1,222.3V98.6c0-1.4,0.3-3.1,0.8-4.9c0.6-1.8,1.5-3.5,2.8-5.1s2.9-3,4.8-4.1c1.9-1.1,4.3-1.6,7.2-1.4
			h86.7l-2.4,48.6h-27.8v-21.1H797v107l16,10.5l25.1-14.1v-38.1h-23.9v-27H869v70.4c-0.5,6.2-3,10.6-7.7,13.2l-41.9,23.9
			c-2.4,1.1-4.7,1.7-6.9,1.7c-3,0-5.4-0.6-7.2-1.7L772.8,235c-2.1-1.3-3.7-3-4.9-5.3C766.7,227.5,766.1,225,766.1,222.3z"/>
		<path class="st10" d="M909.8,238.1V83h90.2v29h-59.4v36.9h54.6v29h-54.6v46.9h59.4v29h-74.7c-2.9,0-5.3-0.6-7.2-1.7
			c-1.9-1.1-3.5-2.5-4.8-4.1s-2.2-3.3-2.8-5C910,241.1,909.8,239.5,909.8,238.1z"/>
	</g>
</g>
<g>
	<path class="st11" d="M146.2,274.3c2.6-3,5.1-6.1,7.5-9.2c6.9-9,13.3-18.4,19-28.2c6.7-11.3,14.8-27.2,15.5-40.4
		c0.7-13.5-2.5-27.2-8.8-39.1c-3.7-6.8-8.7-13.7-14.8-18.6c0-3.5,0.3-7.1,0.9-10.5l0.5,0.1c2.8,1,6.1,2,9.1,1.9c0.7,0,1.3-0.4,1.6-1
		c0.3-0.6,0.2-1.3-0.2-1.9c-1.5-2-2.7-4.1-3.6-6.4c-0.6-1.5-1-3.2-1.7-4.6c-0.5-0.9-0.9-1.8-1.3-2.8c-0.5-2-0.9-4.1-1.3-6.2
		c-0.2-0.8-0.3-1.6-0.4-2.4c0-0.4-0.1-0.9-0.1-1.2c0.5-9.8-2.1-22.5-6.2-31.6c0-0.4,0.1-0.8,0.1-1.2c0-0.2,0-0.4,0-0.6
		c0-0.2,0-0.5,0-0.7c-0.2-4.9-1-10.1-2.2-14.9c-2.5-10-7-19.7-14.3-27.1c0.6-1.5,0.4-3.2-0.5-4.6c-2.1-3.2-6.3-5.9-9.8-7.3
		c-1.7-0.7-3.6-0.4-4.9,0.7c-1.1-0.6-2.2-1.2-3.3-1.7c0.4-1.1,0.5-2.3,0.2-3.4c-0.3-1.3-1.1-2.4-2.3-3.1
		c-19.2-11.2-40.2-11.2-59.5,0c-1.2,0.7-1.9,1.8-2.3,3.1c-0.3,1.2-0.3,2.3,0.2,3.4c-1.1,0.5-2.2,1.1-3.3,1.7c-1.3-1-3.1-1.4-4.8-0.7
		c-3.5,1.4-7.7,4.1-9.8,7.3c-0.9,1.4-1.1,3.1-0.5,4.6C37.5,35,33,44.8,30.6,54.8c-1.2,4.7-2.1,10-2.2,14.9c0,0.2,0,0.5,0,0.7
		c0,0.1,0,0.2,0,0.3c-1.8,3.5-3.3,7.3-4.6,11c-1.8,5.1-3.6,12.1-3.4,17.5c0.2,5.7-0.1,12.9-2.7,18v0.1c-0.1,0.3-0.2,0.6-0.4,0.9
		c-0.6,1-1.2,1.9-1.8,2.9c-0.6,0.9-2.7,3.9-3.6,4.4c-0.8,0.3-1.3,1.1-1.1,2c0.1,0.8,0.8,1.5,1.7,1.5c1.9,0.1,3.9,0,5.7-0.2
		c1.1-0.2,2.5-0.3,3.8-0.5c0.4,3.5,1,7,2,10.4c-6.1,4.9-11.3,11.9-14.9,18.7c-6.4,11.9-9.5,25.6-8.8,39.1
		c0.7,13.2,8.9,29.1,15.5,40.4c5.7,9.8,12.1,19.2,19,28.2c2.4,3.2,4.9,6.3,7.5,9.2c1.6,1.7,3.9,4.4,6.3,5c0.6,0.2,1.2,0.2,1.8,0.2
		c0.5-0.1,1-0.1,1.5-0.3c0,0.1,0.1,0.1,0.1,0.2c1.6,3.8,3.2,7.7,4,11.8c0.1,0.6,0.2,1.2,0.3,1.8c0.3,2.1,0.7,4.2,1,6.3
		c0,0.3,0.1,0.6,0.1,0.9c-0.1,0.4-0.1,0.9-0.2,1.3c-1.6,0.1-3.3,0.2-4.9,0.3c-4.7,0.3-9.4,0.7-14,1.3c-5,0.6-10.3,1.5-15.1,3.1
		c-4.4,1.5-9.3,4-10.6,8.9c-0.6,2-0.4,4.1,0.4,6c1.2,3.1,4.1,5.1,7.3,5.7c-0.4,2.1-0.1,4.2,1,6.1c2.9,5,9.4,5.9,14.3,3.2
		c0.4-0.3,0.8-0.5,1.1-0.8c0.3,0.8,0.7,1.6,1.3,2.4c2.3,2.9,6.2,3.7,9.7,2.8c1.1-0.3,2.1-0.8,3-1.5c1.4-1.1,2.1-2.3,2.9-3.8
		c0.5-0.9,0.9-1.9,1.6-2.6c0.3-0.3,0.5-0.7,0.8-1.1c0.4-0.6,0.8-1.2,1.2-1.8c1.2-1.6,2.3-3.1,3.5-4.7c0.4-0.5,0.8-1,1.2-1.5
		c1.6-2,3.4-3.9,5.4-5.7c0.6-0.6,1.2-1.1,1.8-1.6c0.4-0.3,1-0.7,1.2-1.2c0.9-1.8,0.9-5.3,0.9-7.3c0.1-0.9,0.1-1.8,0.1-2.7
		c0.4-0.5,0.8-1.1,1-1.7c0.8-2.4,2.1-4.6,3.8-6.4c0.5,0.4,0.9,0.8,1.4,1.2c4.5,3.9,9.3,7.5,14.4,10.6c3,1.9,8.4,5.3,12.1,4.4
		c2.4-0.6,3.8-2.1,4.6-4.1c2.8,1.2,5.6,2.4,8.4,3.3c0.1,1,0.3,2,0.7,2.8c0.3,0.5,0.8,0.9,1.2,1.2c0.6,0.5,1.2,1.1,1.8,1.6
		c1.9,1.7,3.7,3.7,5.4,5.7c0.4,0.5,0.8,1,1.2,1.5c1.2,1.5,2.4,3.1,3.5,4.7c0.4,0.6,0.8,1.2,1.2,1.8c0.2,0.4,0.5,0.8,0.8,1.1
		c0.7,0.8,1.1,1.7,1.6,2.6c0.8,1.5,1.6,2.8,2.9,3.8c0.9,0.7,1.9,1.2,3,1.5c3.5,0.9,7.4,0.2,9.7-2.8c0.6-0.8,1-1.6,1.3-2.4
		c0.3,0.3,0.7,0.6,1.1,0.8c4.9,2.7,11.4,1.9,14.3-3.2c1.1-1.9,1.4-4,1-6.1c3.1-0.6,6.1-2.7,7.3-5.7c0.7-1.9,0.9-4,0.4-6
		c-1.3-4.9-6.2-7.4-10.6-8.9c-4.1-1.4-8.5-2.2-12.9-2.8c0.1-0.1,0.1-0.3,0.2-0.4c0.5-1.5,0.5-3.2-0.2-4.6c-1.1-2.5-3.8-4.7-6.4-6.3
		c0.4-0.5,0.8-1,1.5-1.7c1.8-4.1-1.2-7.9-4.2-10.4c-0.5-0.4-1-0.9-1.5-1.3C143.2,277.7,144.9,275.7,146.2,274.3z M170.4,319.2
		c-0.8,1.8-2.9,2.8-4.9,2.8c-0.9,0-1.8-0.3-2.4-0.8c-1.6-1.3-2.3-3.5-3.4-3.8c-1.4-0.4-2.8-0.7-4-1c-7.3-1.8-11.5-2.7-13.5-3
		c-0.8-0.1-1.2-0.2-1.4-0.2l0,0c1.3,0.6,12.2,5.5,18.2,9.6c2.6,1.8,3.7,3.7,3.8,5.4c0,0,0,0,0,0c0.3,3.5-3.9,5.9-8.1,3.6
		c-0.9-0.5-1.4-3.1-2.6-4c-6.4-4.2-16.4-10.2-18.5-11.4c1.6,1.7,7.6,7.9,11.2,12.3c0.6,0.7,1,1.4,1.3,2c0,0,0-0.1,0-0.1
		c0.6,1.2,0.7,2.3,0.4,3.2c0,0.1,0,0.1-0.1,0.2c0,0.1-0.1,0.2-0.1,0.3c0,0.1-0.1,0.2-0.2,0.3c0,0,0,0,0,0c-0.7,1.1-2.2,1.6-4,1.3
		c-0.2,0-0.5-0.1-0.7-0.1c-2.5-0.6-2.5-3.6-5-6.3c-0.3-0.3-0.5-0.7-0.9-1.1c-0.3-0.4-0.6-0.9-1-1.4c-0.5-0.8-1.1-1.6-1.7-2.5
		c-0.4-0.6-0.9-1.2-1.3-1.8c-0.7-0.9-1.4-1.8-2.2-2.7c-0.5-0.6-1.1-1.2-1.7-1.7c-0.6-0.6-1.2-1.1-1.8-1.6c-0.7-0.5-1.3-1.1-1.8-1.6
		s-0.9-0.9-1.3-1.4c-0.2-0.2-0.3-0.4-0.5-0.6c-1.5-2.3-1-3.8-1.2-5.3c-0.1-0.8-0.2-1.6-0.3-2.6c0,0,0,0,0,0c0.1,0,0.2,0,0.3,0l1-0.3
		l4.3-1.1c0.3-0.1,0.5-0.2,0.8-0.4c0.3,0.8,0.5,1.5,0.7,2c-1,0.4-1.8,1-2.5,1.6c0.4-0.1,0.8-0.1,1.2-0.2c-0.1,0-0.1,0-0.1,0
		c3.6-1,7.2-0.8,10.9-0.7c8,0.3,23.5,0.8,30.3,7.2c1.4,1,2.4,2.2,2.7,3.4c0,0,0-0.1,0.1-0.1C170.8,317.3,170.8,318.2,170.4,319.2z
		 M111.6,305C111.5,305,111.5,305,111.6,305c-6-3.8-10.6-6.8-15.9-11.3c0.7,3.6,4.7,7.5,8.5,10.6c0.1,2-0.2,3.8-1.5,4.1
		c-2.1,0.5-14.2-6.9-24.1-15.6c8.4-5.8,20.8-6.3,29.6-1.1c4.4,2.6,7.6,6.5,9.3,11.4c0.2,0.6,0.6,1.1,1.1,1.5c0,1,0.1,2,0.1,3.1
		C116.4,306.9,114,306,111.6,305z M67.6,301.9l-5.3-1.4c0,0,0-0.8-1.3-8.3c-1-5.9-2.3-9.8-9.9-26.9c-0.5-2.1-1.9-5.2-2.3-6.1
		c-8.6-22.9-13.7-56.8-9.5-78.7l0.8-4l-1.9,3.7c-5.1,12.6-4.1,34.4-0.6,53c-6-18.9-7.4-38.5-4.4-57.2c2.8-1.3,8.2-4.2,12.5-7.3
		c3.7,3.3,9.4,7.9,11.2,8c-0.4-0.4-0.8-0.8-1.3-1.3c-0.1-0.1-0.1-0.1-0.2-0.2c-0.4-0.4-0.7-0.8-1.1-1.2c-2.7-2.8-5.5-5.8-8.2-9
		c-4.1,3.3-11,5.4-11,5.4c0,0,0-0.1,0-0.1c0,0,0,0,0,0c0.2-5.1,1.9-14.2,1.9-21.4c0-1,0-2-0.1-2.9l-8.8,9.4
		c-0.3,0.3-0.4,0.2-0.4-0.1c-0.1-0.7,0.7-3,0.8-3.9c0.3-3.1,0.4-5.7,0.4-7.9c0-9.9-2.2-14-2.5-29.5c-0.7,3.2-1,5.8-1.2,8.3l-7.9,2.8
		c0,0,0.1-0.1,0.4-0.2l-0.4,0.1c0,0,5.7-2.8,7.4-15.3c0.4-2.9,0.6-6.4,0.4-10.5c0,0,0,0,0,0v0l0,0c0,0,0-0.1,0-0.1c0,0,0,0,0,0
		c0,0,0,0,0,0c-0.2-5.5,2.9-16.9,6.9-24.9c2.8,2.9,7.8,4.9,12.6,6.2c-0.9,0.5-1.8,1.2-2.5,2c-4.3,4.6-3.6,9.4-2.6,15.1
		C41,90.4,42.6,83,49.8,83.7c-4.1,5.4-5.4,11-5,16c0.5,0.1,0.9,0.5,1,1c1.9,7.8,6.5,17.5,16.2,15.6c3.2-0.6,4.6-2.1,6.5-4.4
		c-0.7,1.9-1.6,3.3-3,4.3c1.4-0.5,2.7-1.3,3.5-2.5c0,0.4,0,0.7,0,1.1l1.6-4.3l0.5-1.2c0.4-1.6,0.5-3.3,0.5-5
		c0-6.8-2.9-13.9-7.1-18.6c-0.7-0.8-1.4-1.5-2.2-2.1c3.5,0.4,7.1,0.8,10.6,1c7.3,0.6,14.6,0.8,21.9,0.8s14.6-0.3,21.9-0.8
		c3.5-0.3,7.1-0.6,10.6-1c-0.8,0.7-1.6,1.4-2.2,2.1c-3.3,3.6-5.7,8.6-6.7,13.9c-0.3,1.4-0.4,2.7-0.4,4.1c-0.1,1.9,0.1,3.8,0.5,5.6
		l2.1,5.5c0-0.4,0-0.8,0-1.2c1,1.4,2.5,2.3,4.3,2.8c-1.6-1-2.6-2.5-3.4-4.5c1.9,2.3,3.3,3.8,6.5,4.4c2.1,0.4,3.9,0.3,5.5-0.2
		c0.1,0,0.1,0,0.2-0.1c1.5-0.6,3-1.6,4.3-2.7c3.2-3.2,5.1-8.2,6.2-12.6c0.1-0.4,0.3-0.7,0.7-0.9c0.5-5.1-0.8-10.8-4.9-16.2
		c7.2-0.6,8.8,6.8,10.3,13.9c1-5.7,1.7-10.5-2.6-15.1c-0.8-0.8-1.7-1.5-2.6-2c4.4-1.2,9.1-3,12-5.6c3.7,8.2,5.7,19,5.7,26.9
		c0,0.7,0,1.4,0,2.1c-0.4,7.4,4.6,16.3,7.2,20.4c0.4,0.4,0.6,0.7,0.6,0.7l-0.2-0.1c0.1,0.1,0.1,0.2,0.2,0.3c0,0.1-7.4-2.6-8.1-2.9
		c0,0,0,0,0-0.1c0,0-0.1,0-0.1,0c0.1-2.8-0.1-5.5-0.5-8.1c-0.9,4.1-3.4,19-2.4,27.7c0.1,7.6,0.8,13.6,0.8,13.6l-0.1-0.1c0,0,0,0,0,0
		l-9.4-11.7c-0.3,0.8,2.4,24.5,2.5,26.9c0,0-7.9-2.4-11.8-6.1c-7.4,7.5-15.1,12.9-20.3,16c5.2-1.4,15-7,16.9-8.7
		c1.2-1,2.3-2.1,3.5-3.4c3.4,2.4,7.7,4.1,10.8,5.1c0.6,0.2,1.3,0.2,1.8,0c3.4,19.2,2.4,39.5-3.6,58.9c0-0.2,0.1-0.4,0.1-0.6
		c-0.1,0.2-0.1,0.5-0.2,0.7c3.4-18.3,4.3-39.6-0.8-52l-1.7-3.3l0.7,3.5c4.2,21.9-0.9,55.9-9.5,78.7c-0.4,0.7-1.5,3.4-2.1,5.5
		c-7.8,17.6-9.2,21.6-10.2,27.5c-1.3,7.5-1.3,8.3-1.3,8.3l-5.3,1.4c-2.1-6-6.1-10.4-11-13.2c2.1,0.4,4.1,0.8,6.1,1.4
		c2.5,0.8,4.3,1.3,6.8,2.3c-2.6-2.4-3.1-2.2-6.4-3.6c-5.2-2.2-11.4-3.4-17.7-3.8c-2.4-0.3-4.8-0.3-7.2,0c-7.7,0.3-15.3,1.8-21.6,4.2
		c3.4-0.4,7-0.8,10.6-1.1C74.4,291,69.8,295.6,67.6,301.9z M43.1,328.7c3.7-4.5,9.9-10.9,11.3-12.4c-1.6,0.9-12,7.2-18.7,11.5
		c-0.1,0.1-0.3,0.2-0.4,0.4c-0.8,1-1.2,2.6-1.9,3.3c-0.1,0.1-0.2,0.3-0.3,0.3c-4.2,2.3-8.4-0.1-8.1-3.6c0,0.1,0.1,0.1,0.1,0.2
		c0-1.7,1.1-3.7,3.8-5.6c6-4.1,16.9-9.1,18.2-9.6l0,0c-0.2,0-0.6,0.1-1.4,0.2c-2,0.4-6.2,1.2-13.5,3c-1.3,0.3-2.6,0.6-4,1
		c-1.1,0.3-1.8,2.5-3.4,3.8c-0.6,0.5-1.5,0.8-2.4,0.8c-1.9,0.1-4.1-1-4.9-2.8c-0.4-1-0.4-1.9-0.2-2.7c0,0,0,0.1,0.1,0.1
		c0.3-1.2,1.2-2.3,2.6-3.3c6.7-6.5,22.4-7,30.5-7.3c3.7-0.1,7.3-0.3,10.9,0.7c-0.7,0-1.3,0-1.8-0.1c1.2,0.1,2.1,0.2,2.8,0.4
		c-0.7-0.6-1.5-1.2-2.5-1.6c0.3-0.5,0.5-1.2,0.8-2.1c0.3,0.2,0.6,0.3,1,0.4l4.1,1.1l1.2,0.3c0,0,0.1,0,0.1,0c0,0,0,0,0,0
		c-0.1,0.9-0.2,1.8-0.3,2.6c-0.2,1.5,0.3,3.1-1.2,5.3c-0.1,0.2-0.3,0.4-0.5,0.6c-0.3,0.4-0.8,0.9-1.3,1.4c-0.5,0.5-1.1,1-1.8,1.6
		c-0.6,0.5-1.2,1-1.8,1.6c-0.6,0.6-1.1,1.1-1.7,1.7c-0.8,0.9-1.5,1.8-2.2,2.7c-0.5,0.6-0.9,1.2-1.3,1.8c-0.6,0.9-1.2,1.7-1.7,2.5
		c-0.4,0.5-0.7,1-1,1.4c-0.3,0.4-0.6,0.8-0.9,1.1c-2.5,2.7-2.5,5.7-5,6.3c-0.2,0.1-0.5,0.1-0.7,0.1c-1.8,0.3-3.2-0.3-4-1.3
		c0,0,0,0,0,0c-0.1-0.1-0.1-0.2-0.2-0.3c0-0.1-0.1-0.2-0.1-0.3c0-0.1,0-0.1-0.1-0.2c-0.3-0.9-0.2-1.9,0.4-3.2c0,0,0,0.1,0,0.1
		C42.1,330.1,42.5,329.4,43.1,328.7z M49.6,274.6c-2.4-0.6-22.5-25.2-34.9-49.3c1.1,2.5,2.3,5,3.6,7.4l1.7,3.2
		C8.3,220.7,3.1,201.5,5,182.5c1.2-12.2,10.3-32.9,20.5-39.3c0.1,0,0.3,0,0.4,0c0,1.2-0.1,2.4-0.1,3.5c-0.5,8.7-2.1,14.3-1.3,14.6
		c1.4,0.7,6.6-4.9,8-6.3c-0.1,1-0.5,7-0.9,12.4c-1.1,5.1-2,10.2-2.4,15.4c0.2-1,0.4-2,0.6-3.1l0.5-2.6c0.1,3.4-0.2,8.9-1.6,13.3
		c0,0.9,0,1.9-0.1,2.8c0,2.3,0,4.6,0.1,7c0.2,6.9,1.1,13.8,2.4,20.5c0.3,1.4,0.6,2.8,0.9,4.2c1.3,5.7,3.1,11.3,5.2,16.8
		c0.8,2,1.6,3.9,2.4,5.9c0.1,0.3,0.3,0.6,0.4,0.9c2.8,6.2,5.6,12.4,8.4,18.6c0.9,2.1,1.8,4.2,2.8,6.3
		C50.8,274.3,50.2,274.8,49.6,274.6z M48.4,30.9c3,5.1,8.6,13.7,11,15.5c-3.5-6.8-7-13.5-10.3-20.5c0,0,1.8-2.7,6.2-4.8
		c0-0.2,0.2-0.4,0.5-0.6c0.2-0.1,0.5-0.1,0.7,0.1c0,0,0.1,0,0.1-0.1l0.1,0.3c0,0,0.1,0.1,0.1,0.1c1,2.2,4.6,10.4,6.9,16.1l2.6,6.2
		L67,43c1.2-0.7-4.1-14.9-6.4-21.1c1.5-0.9,3.1-1.7,4.6-2.4c0,0,0,0,0,0c0.6-0.3,1.3-0.6,2-0.9c1,1.9,2.1,3.7,3.1,5.6
		c3.5,6.2,5.3,20.9,6.2,33c-14.4,1.3-27.9,4-38.3,7.8c-0.4-0.1-0.7,0-1,0.2c0,0,0,0.1-0.1,0.1c-1.4,0.5-2.7,1.1-4,1.6
		c0.2-2,0.5-4.7,1.1-7.6c0,0,0,0,0.1,0C36.2,50.7,40,39.2,48.4,30.9z M67.5,12.8c0.5-0.3,0.9-0.5,1.4-0.8c9.3,12,8.1,12.1,9.6,27.6
		c0.5,5.7,0.9,11.5,1.6,17.2c-0.5,0-1,0.1-1.5,0.1c-0.8-12.2-2.5-28.6-5.7-34.5C67.5,12.8,67.5,12.8,67.5,12.8z M71.5,10.6
		c0.3-0.1,0.6-0.3,0.9-0.4c0.9-1.8,7.6-3.1,8.8-3.5c3.1-0.8,6.3-1.3,9.5-1.5c7.2-0.6,14.5,0.4,21.7,3c1.3,0.4,2.6,0.9,3.8,1.4
		c0.2,0.1,0.3,0.2,0.4,0.4c0.3,0.1,0.7,0.3,1,0.4c-0.2,0.3-0.4,0.5-0.6,0.8c0,0.2-0.1,0.5-0.2,0.7c-0.2,0.4-0.5,0.6-0.8,0.8
		c-6.3,8.9-6.7,11.3-7.1,21.4c-0.1,1.6-0.1,3.4-0.3,5.5c0,1.8-0.1,3.5-0.2,5.3c0,1-0.1,2.1-0.1,3.1c0,1.5,0,2.9,0,4.3
		c0.1,1.5,0.1,3,0.2,4.5c-4.4-0.3-8.8-0.5-13.3-0.5c-0.1,0-0.1,0-0.2,0c-1.1,0-2.2,0-3.3,0c-0.1,0-0.2,0-0.3,0
		c-2.8,0.1-5.6,0.2-8.4,0.3c-0.8,0-1.6,0.1-2.4,0.2c0.3-5.8,0.1-11.6-0.2-17.3c-0.6-12.1-0.3-15.4-4.2-21.9
		c-0.8-1.1-1.6-2.4-2.3-3.5C73.2,13,72.4,11.8,71.5,10.6z M140.6,26c-3.4,7.2-7,14.2-10.8,21.3c1.9,1.1,8.4-10.1,11.7-16.3
		c8.4,8.3,12.1,19.5,13.9,28c0,0,0,0,0,0c0.2,1,0.4,2,0.5,3c0,0,0,0.1,0,0.1c0.1,0.4,0.1,0.8,0.2,1.2c0,0.1,0,0.1,0,0.2
		c0,0.3,0.1,0.7,0.1,1c0,0.1,0,0.1,0,0.2c0,0.3,0.1,0.6,0.1,0.9c0,0.1,0,0.1,0,0.2c0,0.4,0.1,0.7,0.1,1c-10.8-4.7-26.3-8.2-43.1-9.8
		c0.3-3.8,0.6-7.5,1-11.2c0.2-2,0.7-4.1,1.1-6.1c0.5-2.4,1.1-4.7,1.6-7.1c0.3-1.5,0.7-3.5,1.3-5.3c0.4-1.2,0.8-2.3,1.2-3.2
		c0,0,0,0,0,0c1-1.8,2.1-3.7,3.1-5.5c2.2,1,4.4,2,6.5,3.2c-2.5,6.3-8.1,20-5.9,21.6l3-6.9c2-5.1,1.6-3.9,6.8-15.9
		c0.2-0.4,0.6-0.6,1-0.4c0.5,0.1,0.7,0.6,0.5,1c0,0,0,0,0,0C138.9,23.4,140.6,26,140.6,26z M122.9,95.9c1.3-2.9,3.5-4.7,4.9-4.1
		c1.4,0.7,1.5,3.5,0.2,6.4c-1.3,2.9-3.5,4.7-4.9,4.1C121.7,101.7,121.6,98.8,122.9,95.9z M66.5,102.3c-1.4,0.6-3.6-1.2-4.9-4.1
		c-1.3-2.9-1.2-5.7,0.2-6.4c1.4-0.6,3.6,1.2,4.9,4.1C68,98.8,67.9,101.7,66.5,102.3z M33.1,70.3c1.7-0.8,3.5-1.5,5.2-2.3
		c0,0,0,0,0,0c0.1,0,0.1,0,0.2-0.1c7.1,5,12.9,6.4,21.6,8c0.2,0,0.3,0.1,0.5,0.1c7.9,1.3,19.1,2.4,27.4,2.3c0.8,0,1.6,0,2.3-0.1
		l3.6-0.3c4.2,0.1,7.6,0.2,11.1,0.3c2.4,0,5,0,8-0.2c6.9-0.4,17.3-1.5,25.9-4c3.5-1,6.7-2.2,9.1-3.7l3.2-2.4
		c0.1,0.1,0.3,0.1,0.4,0.1c0,0,0,0,0,0c1.8,0.7,3.6,1.5,5.2,2.3C150.7,86.2,39.2,86.2,33.1,70.3z M125.2,74.8
		c-7.4,1.3-24.2,3.2-31.4,3.1l-3.6-0.4C74.5,76.1,55,75.8,41.3,66.9c0.8-0.3,1.6-0.6,2.4-0.8c0.1-0.2,0.3-0.3,0.5-0.4
		c4.4-1.6,10.3-3,16.9-4.2c28.4-5.6,61.8-3.8,87,5.3C141.2,71.7,133.8,73.3,125.2,74.8z M116.7,22.4c-3.2,5.8-4.9,22.2-5.7,34.4
		c-0.7-0.1-1.4-0.1-2.1-0.2c0.7-5.7,1.1-11.4,1.6-17.1c1.5-15.6,0.4-15.6,9.7-27.7l0.1-0.1c0.6,0.3,1.2,0.7,1.8,1
		C122.1,12.8,122.1,12.8,116.7,22.4z M128.9,301.1c1.2,0.7,2.5,1.6,3.7,2.5c-0.7,0-1.4-0.1-2.2-0.1c-0.4,0-0.8-0.1-1.2-0.1
		c-0.1-0.4-0.1-0.8-0.2-1.1C128.9,301.9,128.9,301.5,128.9,301.1z M128.9,299.7c0-0.2,0.1-0.3,0.1-0.5c0.3-2.1,0.6-4.2,1-6.3
		c0.1-0.6,0.2-1.2,0.3-1.8c0.1-0.3,0.1-0.6,0.2-0.9c2.1,0.9,15.1,6.3,16.8,10.2C148.7,303.6,135.8,301.2,128.9,299.7z M130.5,290.1
		c0.9-3.7,2.3-7.3,3.7-10.8c1.5,1.5,3.2,3,4.8,4.4C148.3,291.6,133,290.4,130.5,290.1z M138.9,274.6c-0.7,0.2-1.4-0.4-2-1.6
		c0.9-2,1.7-3.9,2.6-5.8c2.8-6.2,5.6-12.4,8.4-18.6c0.3-0.7,0.6-1.4,0.9-2.2c1-2.4,2-4.8,2.9-7.2c1.8-4.8,3.2-9.8,4.4-14.8
		c0.4-1.7,0.8-3.4,1.1-5.1c1.2-6.2,1.9-12.6,2.1-19c0.1-2.7,0.1-5.5,0-8.2c0-1.2-0.1-2.4-0.2-3.6c-0.8-3.7-1.1-7.8-1.1-10.7
		c-0.4-3.2-1-6.3-1.7-9.5l-0.6-13.2c1.4,1.4,6.8,7.3,8.4,6.8c0.5-0.3-0.8-6.3-1.3-14.5c-0.1-1.3-0.2-2.7-0.2-4.1
		c10.2,6.4,19.2,27.1,20.4,39.3c0.2,1.8,0.3,3.7,0.3,5.5c0.2,2.7,0.2,5.5,0.1,8.3c0,0.5-0.1,1.1-0.1,1.6c0,0,0,0,0,0
		c-0.3,2.6-0.8,5.3-1.7,8.2c-2.3,10.7-6.9,20.9-13.6,29.7l1.7-3.2c0.1-0.2,0.2-0.3,0.2-0.5C157.7,253.9,141,274.1,138.9,274.6z"/>
	<path class="st12" d="M130.4,303.5c0.7,0,1.4,0.1,2.2,0.1c-1.2-0.9-2.5-1.7-3.7-2.5c0,0.4,0.1,0.8,0.1,1.2c0.1,0.3,0.1,0.7,0.2,1.1
		C129.6,303.4,130,303.5,130.4,303.5z"/>
	<path class="st12" d="M130.5,290.2c-0.1,0.3-0.1,0.6-0.2,0.9c-0.1,0.6-0.2,1.2-0.3,1.8c-0.4,2.1-0.7,4.2-1,6.3
		c0,0.1-0.1,0.3-0.1,0.5c6.9,1.5,19.8,3.9,18.4,0.7C145.6,296.5,132.6,291.1,130.5,290.2z"/>
	<path class="st12" d="M117.5,303.1c-1.7-4.9-4.9-8.8-9.3-11.4c-8.7-5.2-21.2-4.7-29.6,1.1c9.8,8.7,21.9,16.1,24.1,15.6
		c1.3-0.3,1.6-2.1,1.5-4.1c-3.8-3.1-7.8-7-8.5-10.6c5.3,4.5,9.9,7.5,15.8,11.3c0,0,0,0,0.1,0c2.4,1,4.8,1.9,7.1,2.7
		c0-1.1,0-2.1-0.1-3.1C118.1,304.2,117.7,303.7,117.5,303.1z"/>
	<path class="st12" d="M139.1,283.8c-1.7-1.4-3.3-2.9-4.8-4.4c-1.4,3.5-2.8,7.1-3.7,10.8C133,290.4,148.3,291.6,139.1,283.8z"/>
	<path class="st13" d="M33.4,331.5c0.6-0.7,1.1-2.3,1.9-3.3C34.5,329.1,34.1,330.7,33.4,331.5z"/>
	<path class="st13" d="M49.3,328.5c3-5.3,12.1-13.6,15-16c1.6-1.3,1.7-4.8,1.4-7.7l-4.1-1.1c-0.4-0.1-0.7-0.2-1-0.4
		c-0.3,0.9-0.5,1.6-0.8,2.1c1,0.4,1.8,1,2.5,1.6c-0.7-0.2-1.7-0.3-2.8-0.4c-1.4,0-2.5,0-4.9,0.1c-8.5,0.4-32.2,1.9-35.2,10.9
		c-0.1,0.4-0.3,0.6-0.6,0.7c1.7,1.3,3.8,1.1,5.1-0.2c2-1.9,2.9-3.1,2.9-3.1s20.3-3.4,23.3-3.5c2.2-0.1-1.2,1.1-3.1,1.8l0.1-0.1
		c-1.3,0.6-12.2,5.5-18.2,9.6c-2.7,1.9-3.8,3.9-3.8,5.6c0.8,1.4,2.3,2.4,4.3,1.8c4.5-1.3,4.5-3.4,4.5-3.4s21.3-12.2,21.7-11.7
		c0.2,0.2-0.3,0.6-1,1.1c0,0-0.1,0-0.2,0.1c-1.4,1.5-7.6,7.9-11.3,12.4c-0.6,0.7-1,1.4-1.3,2c0,0.1,0,0.2,0,0.3
		C41.8,333.9,46.3,333.8,49.3,328.5z"/>
	<path class="st13" d="M41.7,334.5c0.7,1.1,2.2,1.6,4,1.3C43.9,336.1,42.5,335.6,41.7,334.5z"/>
	<path class="st13" d="M56.3,322.7c-0.5,0.6-0.9,1.2-1.3,1.8C55.4,323.9,55.9,323.3,56.3,322.7z"/>
	<path class="st13" d="M53.3,326.9c-0.4,0.5-0.7,1-1,1.4C52.6,327.9,52.9,327.4,53.3,326.9z"/>
	<path class="st13" d="M60.2,318.2c-0.6,0.6-1.1,1.1-1.7,1.7C59.1,319.3,59.7,318.7,60.2,318.2z"/>
	<path class="st13" d="M65.1,313.7c-0.3,0.4-0.8,0.9-1.3,1.4C64.3,314.6,64.7,314.1,65.1,313.7z"/>
	<path class="st13" d="M45.7,313.4c0.8-0.1,1.2-0.2,1.4-0.2l0,0C47.1,313.1,46.7,313.2,45.7,313.4z"/>
	<path class="st13" d="M41.7,334.5c-0.1-0.1-0.1-0.2-0.2-0.3C41.6,334.3,41.7,334.4,41.7,334.5z"/>
	<path class="st13" d="M63.8,315c-0.5,0.5-1.1,1-1.8,1.6C62.7,316,63.3,315.5,63.8,315z"/>
	<path class="st13" d="M41.4,333.9c0-0.1,0-0.1-0.1-0.2C41.4,333.8,41.4,333.9,41.4,333.9z"/>
	<path class="st13" d="M65.5,313c1.5-2.3,1-3.8,1.2-5.3c0.1-0.8,0.2-1.7,0.3-2.6c0,0,0,0,0,0c-0.1,0.9-0.2,1.8-0.3,2.6
		C66.5,309.2,67,310.8,65.5,313z"/>
	<path class="st13" d="M24.7,321.2c-0.6,0.5-1.4,0.7-2.3,0.8C23.3,322,24.2,321.7,24.7,321.2c1.7-1.3,2.4-3.5,3.5-3.8
		c1.4-0.4,2.8-0.7,4-1c-1.3,0.3-2.6,0.6-4.1,1C27,317.7,26.3,320,24.7,321.2z"/>
	<path class="st13" d="M19.9,313.3c-1.4,1-2.3,2.1-2.6,3.3c0,0.1,0.1,0.1,0.1,0.2C18,315.5,18.9,314.3,19.9,313.3z"/>
	<path class="st14" d="M41.4,333.8c0,0.1,0,0.1,0.1,0.2c0,0.1,0.1,0.2,0.1,0.3c0.1,0.1,0.1,0.2,0.2,0.3c0,0,0,0,0,0
		c0.7,1,2.2,1.6,4,1.3c0.2,0,0.5-0.1,0.7-0.1c2.5-0.6,2.5-3.6,5-6.3c0.3-0.3,0.5-0.7,0.9-1.1c0.3-0.4,0.6-0.9,1-1.4
		c0.5-0.8,1.1-1.6,1.7-2.5c0.4-0.6,0.9-1.2,1.3-1.8c0.7-0.9,1.4-1.8,2.2-2.7c0.5-0.6,1.1-1.2,1.7-1.7c0.6-0.6,1.2-1.1,1.8-1.6
		c0.7-0.5,1.3-1.1,1.8-1.6c0.5-0.5,0.9-0.9,1.3-1.4c0.2-0.2,0.3-0.4,0.5-0.6c1.5-2.3,1-3.8,1.2-5.3c0.1-0.8,0.2-1.7,0.3-2.6
		c0,0-0.1,0-0.1,0l-1.2-0.3c0.3,2.9,0.2,6.4-1.4,7.7c-2.9,2.4-12,10.7-15,16s-7.5,5.4-7.5,2.5c0-0.1,0-0.2,0-0.3c0,0,0-0.1,0-0.1
		C41.2,331.8,41.1,332.9,41.4,333.8z"/>
	<path class="st14" d="M55.6,315.1c-0.4-0.5-21.7,11.7-21.7,11.7s0,2.1-4.5,3.4c-2,0.6-3.5-0.4-4.3-1.8c0-0.1-0.1-0.1-0.1-0.2
		c-0.3,3.5,3.9,5.9,8.1,3.6c0.1-0.1,0.2-0.2,0.3-0.3c0.6-0.7,1.1-2.4,1.9-3.3c0.1-0.1,0.3-0.3,0.4-0.4c6.7-4.3,17.1-10.6,18.7-11.5
		c0.1-0.1,0.2-0.1,0.2-0.1C55.3,315.7,55.8,315.3,55.6,315.1z"/>
	<path class="st14" d="M50.1,311.5c-3,0.1-23.3,3.5-23.3,3.5s-0.9,1.2-2.9,3.1c-1.3,1.3-3.5,1.5-5.1,0.2c-0.2,0.1-0.4,0.1-0.7,0.1
		c-0.6,0-1-0.6-0.8-1.2c0.1-0.1,0.1-0.3,0.2-0.4c0-0.1-0.1-0.1-0.1-0.2c0,0,0-0.1-0.1-0.1c-0.2,0.8-0.2,1.7,0.2,2.7
		c0.8,1.8,2.9,2.8,4.9,2.8c0.9,0,1.7-0.3,2.3-0.8c1.6-1.2,2.3-3.5,3.4-3.8c1.5-0.4,2.8-0.7,4.1-1c7.3-1.8,11.5-2.7,13.5-3
		c0.9-0.2,1.4-0.3,1.4-0.3l0,0l0,0l-0.1,0.1C48.9,312.6,52.3,311.4,50.1,311.5z"/>
	<path class="st15" d="M17.5,316.8c-0.1,0.1-0.1,0.3-0.2,0.4c-0.2,0.6,0.2,1.2,0.8,1.2c0.2,0,0.5,0,0.7-0.1c0.3-0.1,0.6-0.4,0.6-0.7
		c3-9,26.7-10.5,35.2-10.9c2.4-0.1,3.5-0.1,4.9-0.1c0.5,0,1.1,0,1.8,0.1c-3.6-1-7.2-0.8-10.9-0.7c-8.1,0.3-23.8,0.8-30.5,7.3
		C18.9,314.3,18,315.5,17.5,316.8z"/>
	<path class="st13" d="M129.3,319.9c-0.5-0.6-1.1-1.2-1.7-1.7C128.2,318.7,128.8,319.3,129.3,319.9z"/>
	<path class="st13" d="M125.9,316.6c-0.7-0.5-1.3-1.1-1.8-1.6C124.6,315.5,125.2,316,125.9,316.6z"/>
	<path class="st13" d="M135.6,328.3c-0.3-0.4-0.6-0.9-1-1.4C135,327.4,135.3,327.9,135.6,328.3z"/>
	<path class="st13" d="M170.4,316.8c0-0.1,0.1-0.1,0.1-0.2c-0.3-1.3-1.3-2.4-2.7-3.4C169,314.2,169.9,315.4,170.4,316.8z"/>
	<path class="st13" d="M124.1,315c-0.5-0.5-0.9-0.9-1.3-1.4C123.2,314.1,123.6,314.6,124.1,315z"/>
	<path class="st13" d="M159.8,317.4c-1.5-0.4-2.8-0.7-4.1-1C156.9,316.7,158.3,317,159.8,317.4c1,0.3,1.7,2.5,3.3,3.8
		c0.6,0.5,1.5,0.8,2.4,0.8c-0.9,0-1.7-0.3-2.3-0.8C161.6,320,160.9,317.7,159.8,317.4z"/>
	<path class="st13" d="M142.2,335.8c1.8,0.3,3.2-0.3,4-1.3C145.4,335.6,144,336.1,142.2,335.8z"/>
	<path class="st13" d="M137.8,311.5c3,0.1,23.3,3.5,23.3,3.5s0.9,1.2,2.9,3.1c1.3,1.3,3.5,1.5,5.1,0.2c-0.3-0.1-0.6-0.4-0.6-0.7
		c-3-9-26.7-10.5-35.2-10.9c-3.2-0.1-4.1-0.1-6.6,0c-0.5,0.1-0.9,0.1-1.2,0.2c0.7-0.6,1.5-1.2,2.5-1.6c-0.2-0.5-0.5-1.1-0.7-2
		c-0.2,0.1-0.5,0.3-0.8,0.4l-4.3,1.1c-0.3,2.9-0.2,6.4,1.4,7.7c2.9,2.4,12,10.7,15,16s7.5,5.4,7.5,2.5c0-0.1,0-0.2,0-0.3
		c-0.3-0.6-0.7-1.3-1.3-2c-3.6-4.4-9.6-10.6-11.2-12.3c-0.3-0.1-0.4-0.2-0.4-0.2c-0.7-0.5-1.2-0.9-1-1.1
		c0.4-0.5,21.7,11.7,21.7,11.7s0,2.1,4.5,3.4c2.1,0.6,3.6-0.5,4.4-2c-0.1-1.7-1.2-3.6-3.8-5.4c-6-4.1-16.9-9.1-18.2-9.6l0.1,0.1
		C139,312.6,135.6,311.4,137.8,311.5z"/>
	<path class="st13" d="M140.8,313.1c0.2,0,0.6,0.1,1.4,0.2C141.2,313.2,140.8,313.1,140.8,313.1L140.8,313.1z"/>
	<path class="st13" d="M146.3,334.2c-0.1,0.1-0.1,0.2-0.2,0.3C146.2,334.4,146.3,334.3,146.3,334.2z"/>
	<path class="st13" d="M146.5,333.8c0,0.1,0,0.1-0.1,0.2C146.5,333.9,146.5,333.8,146.5,333.8z"/>
	<path class="st13" d="M132.9,324.5c-0.4-0.6-0.9-1.2-1.3-1.8C132,323.3,132.5,323.9,132.9,324.5z"/>
	<path class="st13" d="M121.2,307.7c-0.1-0.8-0.2-1.6-0.3-2.6c0,0,0,0,0,0C121,306.1,121.1,306.9,121.2,307.7
		c0.2,1.5-0.3,3.1,1.2,5.3C120.9,310.8,121.4,309.2,121.2,307.7z"/>
	<path class="st14" d="M170.5,316.6c0,0.1-0.1,0.1-0.1,0.2c0.1,0.1,0.1,0.3,0.2,0.4c0.2,0.6-0.2,1.2-0.8,1.2c-0.2,0-0.5,0-0.7-0.1
		c-1.7,1.3-3.8,1.1-5.1-0.2c-2-1.9-2.9-3.1-2.9-3.1s-20.3-3.4-23.3-3.5c-2.2-0.1,1.2,1.1,3.1,1.8l-0.1-0.1l0,0l0,0
		c0,0,0.4,0.1,1.4,0.3c2,0.4,6.2,1.2,13.5,3c1.3,0.3,2.6,0.6,4.1,1c1.1,0.3,1.8,2.6,3.4,3.8c0.6,0.5,1.4,0.7,2.3,0.8
		c1.9,0.1,4.1-1,4.9-2.8C170.8,318.2,170.8,317.3,170.5,316.6C170.6,316.5,170.6,316.6,170.5,316.6z"/>
	<path class="st14" d="M138.6,328.5c-3-5.3-12.1-13.6-15-16c-1.6-1.3-1.7-4.8-1.4-7.7l-1,0.3c-0.1,0-0.2,0-0.3,0
		c0.1,0.9,0.2,1.8,0.3,2.6c0.2,1.5-0.3,3.1,1.2,5.3c0.1,0.2,0.3,0.4,0.5,0.6c0.3,0.4,0.8,0.9,1.3,1.4s1.1,1,1.8,1.6
		c0.6,0.5,1.2,1,1.8,1.6c0.6,0.6,1.1,1.1,1.7,1.7c0.8,0.9,1.5,1.8,2.2,2.7c0.5,0.6,0.9,1.2,1.3,1.8c0.6,0.9,1.2,1.7,1.7,2.5
		c0.4,0.5,0.7,1,1,1.4c0.3,0.4,0.6,0.8,0.9,1.1c2.5,2.7,2.5,5.7,5,6.3c0.2,0.1,0.5,0.1,0.7,0.1c1.8,0.2,3.2-0.3,4-1.3c0,0,0,0,0,0
		c0.1-0.1,0.1-0.2,0.2-0.3c0-0.1,0.1-0.2,0.1-0.3c0-0.1,0-0.1,0.1-0.2c0.3-0.9,0.2-1.9-0.4-3.2c0,0,0,0.1,0,0.1c0,0.1,0,0.2,0,0.3
		C146.1,333.9,141.6,333.8,138.6,328.5z"/>
	<path class="st14" d="M158.4,330.2c-4.5-1.3-4.5-3.4-4.5-3.4s-21.3-12.2-21.7-11.7c-0.2,0.2,0.3,0.6,1,1.1c0,0,0.1,0.1,0.4,0.2
		c2.1,1.2,12.1,7.2,18.5,11.4c1.2,0.9,1.7,3.5,2.6,4c4.2,2.3,8.4-0.1,8.1-3.6c0,0,0,0,0,0C162,329.7,160.5,330.8,158.4,330.2z"/>
	<path class="st15" d="M133.3,306.7c8.5,0.4,32.2,1.9,35.2,10.9c0.1,0.4,0.3,0.6,0.6,0.7c0.2,0.1,0.4,0.1,0.7,0.1
		c0.6,0,1-0.6,0.8-1.2c-0.1-0.1-0.1-0.3-0.2-0.4c-0.6-1.4-1.5-2.6-2.6-3.6c-6.8-6.3-22.3-6.8-30.3-7.2c-3.7-0.1-7.3-0.3-10.9,0.7
		c0.1,0,0.1,0,0.1,0C129.2,306.6,130.1,306.6,133.3,306.7z"/>
	<path class="st12" d="M170,232.2c1.5-2.8,2.8-5.6,4-8.4c-0.5,0.2-0.9,0.3-1.3,0.3c-2.7,0.1-3-6.8-3-10.6
		c-3.7,7.1-10.9,19.2-13.5,11.4c0-0.1-0.1-0.3-0.1-0.4c-1.2,5-2.6,9.9-4.4,14.8c-5.4,20.1,0,15.9,8.1,2.5c2.6-4.3,3.2-1.6,2.8,1.8
		l-0.1,0.8c-0.8,1.2-1.6,2.4-2.5,3.5c0.1-1.5,0.3-3.2,0.5-4.4c-3.8,5.7-11.1,15.4-12.1,8.3c-0.2-1.5,0-3.4,0.4-5.4
		c-0.3,0.7-0.6,1.4-0.9,2.2c-2.8,6.2-5.6,12.4-8.4,18.6c-0.8,1.9-1.7,3.9-2.6,5.8c0.6,1.2,1.3,1.7,2,1.6
		C141,274.1,157.7,253.9,170,232.2z"/>
	<path class="st12" d="M168.1,212.5c2.7-5.8,3.9-3.9,4.1,0.7c0.1,1.7,0.2,4.2,0.4,6.1c0.4,3.8,1.9,2.4,3.7-1
		c2.1-5.9,3.7-11.8,4.4-17.6c-7.1,5.6-16.6,2.9-21.4-8.5c0.1,2.7,0.1,5.5,0,8.2c-0.2,6.4-0.9,12.7-2.1,19
		C156.9,231.4,162,225.8,168.1,212.5z"/>
	<path class="st12" d="M182.6,201.4c0.2-0.6,0.3-1,0.3-1.1c-0.2,1.1-0.4,2.1-0.7,3.2c-0.2,0.9-0.3,1.8-0.5,2.7
		c0.8-2.9,1.4-5.6,1.7-8.2c-0.1,0.2-0.3,0.3-0.4,0.5C182.9,199.5,182.7,200.4,182.6,201.4z"/>
	<path class="st16" d="M180.7,200.7c0.7-5.1,0.8-10.2,0.3-15.3c-0.8,2.3-2,3.9-3.6,4.4c-2.7,0.8-5.1-5.7-6.3-9.4
		c-1.3,7.7-4.4,21.2-9.4,14.4c-1.2-1.6-2-3.8-2.5-6.3c0.1,1.2,0.1,2.4,0.2,3.6C164.1,203.6,173.6,206.3,180.7,200.7z"/>
	<path class="st16" d="M183,198.5c0.1-0.2,0.3-0.3,0.4-0.5c0,0,0,0,0,0c0-0.5,0.1-1.1,0.1-1.6c0.1-2.8,0.1-5.6-0.1-8.3
		C183.5,191.6,183.3,195.1,183,198.5z"/>
	<path class="st16" d="M158.6,179.8c4.4,23.2,8.5,17.1,10.6,0.3c0.8-6.3,2.5-5.5,4.2-0.8c0.9,2.4,2.4,6.4,3.5,7.9
		c1.7-2.2,2.5-5.3,2.9-8.7c-2-8.8-6-17.4-12.5-25.9c-0.1-0.2-3.1-3.6-4.4-5.2c0.6,8.2,1.8,14.2,1.3,14.5c-1.6,0.5-7-5.4-8.4-6.8
		l0.6,13.2c0.7,3.1,1.2,6.3,1.7,9.5c0-0.2,0-0.4,0-0.6L158.6,179.8z"/>
	<path class="st17" d="M169.7,213.5c0,3.8,0.3,10.7,3,10.6c0.5,0,0.9-0.1,1.3-0.3c0.8-1.8,1.5-3.7,2.2-5.5c-1.7,3.4-3.2,4.9-3.7,1
		c-0.2-1.9-0.3-4.4-0.4-6.1c-0.2-4.6-1.4-6.5-4.1-0.7c-6.1,13.3-11.2,18.9-10.9,6.9c-0.3,1.7-0.7,3.4-1.1,5.1c0,0.1,0.1,0.3,0.1,0.4
		C158.8,232.7,166,220.6,169.7,213.5z"/>
	<path class="st17" d="M182.6,201.4c-0.1,0.7-0.2,1.5-0.3,2.2c0.3-1.1,0.5-2.2,0.7-3.2C182.9,200.4,182.8,200.8,182.6,201.4z"/>
	<path class="st17" d="M148.4,251.8c1,7.1,8.3-2.6,12.1-8.3c-0.2,1.2-0.4,2.9-0.5,4.4c0.9-1.1,1.7-2.3,2.5-3.5l0.1-0.8
		c0.4-3.4-0.2-6.1-2.8-1.8c-8.1,13.3-13.5,17.5-8.1-2.5c-0.9,2.4-1.8,4.8-2.9,7.2C148.4,248.4,148.2,250.3,148.4,251.8z"/>
	<path class="st12" d="M7.3,200.2c0.6,5.1,1.9,10.2,3.6,15.4c2.2,5.1,4.3,8.4,4.9,3.7c0.2-1.9,0.3-4.4,0.4-6.1
		c0.2-4.6,1.4-6.5,4.1-0.7c5.8,12.7,10.7,18.4,10.9,8.3c-1.4-6.8-2.2-13.6-2.4-20.5c-0.1-2.3-0.2-4.6-0.1-7
		C23.6,203.9,14.2,206.2,7.3,200.2z"/>
	<path class="st12" d="M40.2,248.6c-0.1-0.3-0.3-0.6-0.4-0.9c0.3,1.5,0.4,2.9,0.2,4.1c-1,7.1-8.3-2.6-12.1-8.3
		c0.2,1.2,0.4,2.9,0.5,4.4c-0.9-1.1-1.7-2.3-2.5-3.5l-0.1-0.8c-0.4-3.4,0.2-6.1,2.8-1.8c7.7,12.7,13,17.1,8.8,0
		c-2.1-5.5-3.9-11.1-5.2-16.8c-2.6,7.5-9.8-4.5-13.4-11.5c0,3.8-0.3,10.7-3,10.6c-0.6,0-1.1-0.2-1.7-0.4c0,0,0,0,0,0
		c0.2,0.5,0.4,1.1,0.7,1.6c12.4,24.1,32.5,48.8,34.9,49.3c0.6,0.2,1.2-0.3,1.8-1.1c-0.9-2.1-1.9-4.2-2.8-6.3
		C45.8,261,43,254.8,40.2,248.6z"/>
	<path class="st16" d="M8.5,177.6c0.3,3.8,1.2,7.3,3,9.6c1.1-1.5,2.6-5.5,3.5-7.9c1.7-4.7,3.4-5.5,4.2,0.8c2,16,5.8,22.3,10,2.8
		c0.5-5.2,1.3-10.3,2.4-15.4c0.4-5.4,0.8-11.4,0.9-12.4c-1.4,1.4-6.6,7-8,6.3c-0.8-0.4,0.8-5.9,1.3-14.6c-0.7,0.9-4.9,5.7-5,5.8
		C14.5,160.7,10.5,169.1,8.5,177.6z"/>
	<path class="st16" d="M17.3,180.4c-1.2,3.7-3.6,10.2-6.3,9.4c-1.8-0.5-3-2.5-3.8-5.1c-0.6,5.1-0.5,10.3,0.1,15.5
		c6.9,5.9,16.3,3.7,21.3-6.9c0-0.9,0-1.9,0.1-2.8c-0.5,1.6-1.2,3.1-2,4.3C21.7,201.6,18.6,188.1,17.3,180.4z"/>
	<path class="st17" d="M20.3,212.5c-2.7-5.8-3.9-3.9-4.1,0.7c-0.1,1.7-0.2,4.2-0.4,6.1c-0.5,4.7-2.7,1.4-4.9-3.7
		c0.9,2.7,1.9,5.4,3.1,8.1c0,0,0,0,0,0c0.6,0.2,1.1,0.4,1.7,0.4c2.7,0.1,3-6.8,3-10.6c3.7,7.1,10.8,19,13.4,11.5
		c-0.3-1.4-0.6-2.8-0.9-4.2C31,230.9,26.1,225.2,20.3,212.5z"/>
	<path class="st17" d="M28.6,241.8c-2.6-4.3-3.2-1.6-2.8,1.8l0.1,0.8c0.8,1.2,1.6,2.4,2.5,3.5c-0.1-1.5-0.3-3.2-0.5-4.4
		c3.8,5.7,11.1,15.4,12.1,8.3c0.2-1.2,0.1-2.6-0.2-4.1c-0.9-1.9-1.7-3.9-2.4-5.9C41.6,258.9,36.3,254.5,28.6,241.8z"/>
	<path class="st18" d="M170.7,124.9c0,0-0.2-0.3-0.6-0.7c0.1,0.2,0.3,0.4,0.4,0.6L170.7,124.9z"/>
	<path class="st18" d="M80,288.1c-3.6,0.3-7.2,0.7-10.6,1.1c6.3-2.4,13.9-3.9,21.6-4.2c2.4-0.2,4.8-0.2,7.2,0
		c6.4,0.4,12.5,1.6,17.7,3.8c3.3,1.4,3.8,1.2,6.4,3.6c-2.5-1-4.3-1.5-6.8-2.3c-2-0.6-4-1.1-6.1-1.4c4.9,2.8,8.9,7.2,11,13.2l5.3-1.4
		c0,0,0-0.8,1.3-8.3c1-5.9,2.4-9.9,10.2-27.5c0.6-2.1,1.7-4.8,2.1-5.5c8.6-22.8,13.7-56.8,9.5-78.7l-0.7-3.5l1.7,3.3
		c5.1,12.4,4.2,33.7,0.8,52c0.1-0.2,0.1-0.5,0.2-0.7c0,0.2-0.1,0.4-0.1,0.6c6-19.5,7.1-39.7,3.6-58.9c-0.6,0.2-1.2,0.2-1.8,0
		c-3.1-1-7.4-2.7-10.8-5.1c-1.2,1.2-2.3,2.4-3.5,3.4c-1.9,1.7-11.7,7.2-16.9,8.7c-3.6,2.2-5.9,3.2-5.9,3.2l4.3-10.2
		c-6.4,6.4-13.9,12.5-13.9,12.5l1.5-7.5l-14,18.3l-13.6-19.5l1.9,9.4c0,0-5.1-0.8-12.8-9.5l-1,8.7c0,0.2-0.2,0.2-0.4,0.1
		c-8.3-8.7-18.9-25.7-18.9-25.7l-8.7,4.1l0.4-29.6l-8.3,10.5c0,0,0.5-4.1-0.3-17.1c-0.6-9.8-4.3-17.3-5.8-25.2
		c-0.5,3-1.1,6.4-1.6,10l-0.1-0.1c0.2-0.9,0.4-2,0.5-3c-1.7,12.5-7.4,15.3-7.4,15.3l0.4-0.1l7.5-2.7c0.2-2.5,0.5-5.1,1.2-8.3
		c0.3,15.5,2.5,19.6,2.5,29.6c0,2.3-0.1,4.9-0.4,7.9c-0.1,0.9-0.8,3.2-0.8,3.9c0,0.2,0.1,0.3,0.4,0l8.8-9.4c0.1,1,0.1,2,0.1,3
		c0,7.2-1.7,16.3-1.9,21.4c0,0,0,0,0,0c0.1,0,6.9-2.1,11-5.4c2.7,3.2,5.5,6.3,8.2,9.1c0.4,0.4,0.8,0.8,1.1,1.2
		c0.1,0.1,0.1,0.1,0.2,0.2c0.4,0.4,0.9,0.9,1.3,1.3c-1.8-0.1-7.5-4.7-11.2-8c-4.3,3.1-9.7,6-12.5,7.3c-2.9,18.7-1.6,38.4,4.4,57.2
		c-3.5-18.6-4.5-40.4,0.6-53l1.9-3.7l-0.8,4c-4.2,21.9,0.9,55.8,9.5,78.7c0.4,0.9,1.8,4,2.3,6.1c7.6,17.1,8.9,21,9.9,26.9
		c1.3,7.5,1.3,8.3,1.3,8.3l5.3,1.4C69.8,295.6,74.4,291,80,288.1z M67.3,185.8c-1.1-0.5-4.1-2.9-7.9-6.5
		C63.2,182.8,66.1,185.2,67.3,185.8z M58.5,178.3c-0.1-0.1-0.2-0.2-0.3-0.3C58.3,178.1,58.4,178.2,58.5,178.3z M45.3,242.9
		c-5.4-24.1-5.1-51,0.7-65.9c33.1,37.2,69.2,32.9,95.6-0.3c6,14.9,6.4,42.2,0.9,66.6c-7.5,18.9-21.5,33.2-42.7,37.6
		c-2.2,0.5-4.1,0.5-5.8,0.3c-1.8,0.2-3.7,0.1-5.8-0.3C66.8,276.4,52.8,262,45.3,242.9z"/>
	<path class="st10" d="M88.2,280.8c2.1,0.4,4,0.5,5.8,0.3c1.7,0.2,3.6,0.2,5.8-0.3c21.2-4.4,35.3-18.7,42.7-37.6
		c5.5-24.3,5.1-51.7-0.9-66.6c-26.4,33.2-62.5,37.5-95.6,0.3c-5.8,14.9-6.2,41.9-0.7,65.9C52.8,262,66.8,276.4,88.2,280.8z
		 M94.5,267.1c-1.6,2-1.8,2-3.2-0.1c-1.4-1.9-3.5-5.4-3.2-9.6c0.1-1.7,0.6-2.2,1.2-2c0.3,2.7,1.5,5.2,3,7.3c0.1,0.2,0.4,0.5,0.6,0.8
		c0.3-0.2,0.6-0.6,0.7-0.8c1.6-2.1,2.9-4.5,3.4-7.1c0.8-0.4,1.4-0.1,1.4,1.9C98.3,261.7,96,265.2,94.5,267.1z M76.3,241.1
		c0.1-1.9,0.6-2.3,1.4-2c0.5,2.6,2,5.1,3.7,7.2c0.1,0.1,0.5,0.6,0.8,0.9c0.3-0.2,0.7-0.7,0.8-0.9c0.9-1.1,1.7-2.4,2.3-3.7
		c0.5-1.1,0.9-2.3,1-3.5c0.7-0.2,1.2,0.3,1.3,2c0.2,4.2-2.1,7.8-3.6,9.7c-1.6,2-1.8,2.1-3.6,0C78.7,248.9,76.3,245.3,76.3,241.1z
		 M110.3,241.1c-0.2,4.2-2.9,7.7-4.7,9.7c-1.8,2-2.1,2.1-3.5-0.1c-1.4-1.9-3.5-5.5-3-9.7c0.2-1.4,0.7-2,1.2-2
		c0.1,2.7,1.2,5.2,2.8,7.4c0.2,0.2,0.5,0.6,0.7,0.9c0.3-0.3,0.7-0.8,0.9-1c1.8-1.9,3.4-4.4,4.1-7
		C109.7,238.8,110.4,239.1,110.3,241.1z M115.9,267.1c-1.9,2-2.1,2-3.1-0.1c-1.2-1.9-2.9-5.4-2.1-9.6c0.2-1.3,0.6-1.9,1-2
		c-0.1,2.6,0.7,5.2,2.1,7.4c0.1,0.2,0.2,0.5,0.4,0.7c0.3-0.3,0.6-0.7,0.8-0.9c1.7-1.9,3.3-4.1,4.1-6.6c1.2-0.9,2.1-0.9,1.8,1.5
		C120.4,261.7,117.6,265.2,115.9,267.1z M126.9,250.8c-2,2-2.2,2.1-3.6,0c-1.2-1.9-2.9-5.5-1.9-9.7c0.3-1.1,0.6-1.7,1-1.9
		c-0.2,2.5,0.6,5.1,2,7.3c0.1,0.2,0.3,0.5,0.5,0.8c0.4-0.3,0.9-0.8,1.1-1c1.8-1.9,3.7-4.2,4.7-6.7c1.3-0.9,2.3-0.9,1.9,1.5
		C131.9,245.3,128.9,248.8,126.9,250.8z M127.3,202.9c0.3-1,0.6-1.6,1-1.8c-0.1,2.4,1.1,4.7,2.6,6.6c0.1,0.1,0.6,0.7,0.8,0.9
		c0.4-0.1,1.3-0.9,1.5-1.1c1.9-1.6,4-3.8,5.1-6.2c1.3-0.6,2.2-0.5,1.9,1.6c-0.6,4-4,7.3-6.2,9.2c-2.3,1.9-2.6,2-4.1,0
		C128.4,210.3,126.3,206.9,127.3,202.9z M114.9,222.8c0.3-1.2,0.7-1.8,1.1-2c-0.1,2.6,1,5.2,2.6,7.3c0.1,0.1,0.5,0.7,0.7,0.9
		c0.4-0.2,1.1-0.9,1.3-1.1c1.9-1.9,3.9-4.3,4.8-6.9c1.1-0.6,1.9-0.3,1.7,1.8c-0.4,4.2-3.6,7.8-5.6,9.7c-2.1,2-2.4,2-3.9,0
		C116.2,230.6,114.1,227,114.9,222.8z M101.1,207.3c0.2-1.3,0.6-1.8,1.2-1.9c0.2,2.5,1.7,4.9,3.4,6.7c0.1,0.2,0.7,0.8,1,1
		c0.4-0.2,1.2-0.9,1.4-1.1c1.8-1.7,3.8-4,4.5-6.5c0.9-0.4,1.6,0,1.5,1.8c-0.1,4-3.2,7.4-5.2,9.2c-2.1,2-2.4,2-4.1,0
		C103.1,214.7,100.6,211.3,101.1,207.3z M88.4,222.8c0.1-1.5,0.6-2.1,1.2-2c0.1,1.3,0.5,2.5,1,3.6c0.7,1.3,1.5,2.6,2.5,3.7
		c0.1,0.2,0.6,0.8,0.9,1c0.4-0.3,0.9-0.9,1.1-1.1c1.8-2,3.5-4.5,4-7.2c0.8-0.2,1.4,0.2,1.4,2c0,4.2-2.7,7.8-4.5,9.7
		c-1.9,2-2.1,2-3.7,0C90.6,230.6,88.1,227,88.4,222.8z M76.2,205.4c0.5,2.5,2.3,4.8,4.1,6.6c0.2,0.2,0.9,0.9,1.2,1.1
		c0.3-0.2,1-0.9,1.2-1.1c1-1,2-2.2,2.7-3.5c0.5-1,0.9-2,1.1-3.1c0.7-0.1,1.2,0.4,1.3,1.9c0.3,4-2.4,7.3-4.2,9.2c-1.9,2-2.2,2-4.1,0
		c-1.9-1.8-4.8-5.2-4.7-9.2C74.9,205.7,75.4,205.3,76.2,205.4z M63.1,220.9c0.7,2.7,2.5,5.2,4.4,7.1c0.2,0.2,0.8,0.9,1.1,1.1
		c0.3-0.2,0.8-0.8,0.9-1c1.6-2.1,3-4.6,3.1-7.3c0.6,0,1,0.6,1.2,2c0.6,4.2-1.7,7.8-3.3,9.7c-1.6,2-1.8,2-3.9,0
		c-1.9-1.9-4.8-5.5-5-9.7C61.5,220.9,62.2,220.5,63.1,220.9z M48.7,202.9c-0.1-1.9,0.6-2.2,1.7-1.8c0.9,2.5,2.9,4.7,4.8,6.4
		c0.2,0.2,1,0.9,1.4,1.1c0.3-0.2,0.8-0.8,1-1c1.6-1.8,2.9-4.1,3-6.6c0.5,0.2,0.9,0.7,1.1,1.9c0.7,4-1.6,7.3-3.2,9.2
		c-1.7,1.9-1.9,2-4.2,0C52.3,210.3,49,206.9,48.7,202.9z M62.7,250.8c-1.4,2-1.6,2.1-3.5,0.1c-1.8-1.9-4.7-5.5-5.1-9.7
		c-0.3-2.2,0.5-2.4,1.6-1.7c0.8,2.6,2.6,5,4.4,6.9c0.2,0.2,0.7,0.7,1,1c0.2-0.3,0.5-0.7,0.6-0.9c1.5-2.2,2.5-4.8,2.5-7.4
		c0.5,0.1,0.9,0.7,1.1,2C65.9,245.3,64,248.9,62.7,250.8z M67,255.9c0.7,2.5,2.1,4.9,3.8,6.9c0.1,0.1,0.4,0.5,0.7,0.8
		c0.2-0.3,0.4-0.6,0.5-0.8c1.5-2.2,2.5-4.7,2.6-7.3c0.6-0.1,1,0.4,1.2,2c0.5,4.2-1.4,7.7-2.7,9.6c-1.4,2-1.5,2-3.2,0.1
		c-1.7-1.9-4.2-5.4-4.4-9.6C65.4,255.5,66.1,255.3,67,255.9z"/>
	<path class="st16" d="M58.5,212.1c1.6-1.9,3.9-5.2,3.2-9.2c-0.2-1.2-0.6-1.7-1.1-1.9c-0.1,2.5-1.4,4.8-3,6.6c-0.2,0.2-0.7,0.8-1,1
		c-0.4-0.2-1.2-0.9-1.4-1.1c-1.9-1.7-3.9-3.9-4.8-6.4c-1.1-0.4-1.8-0.1-1.7,1.8c0.3,4,3.6,7.4,5.6,9.2
		C56.6,214.1,56.8,214,58.5,212.1z"/>
	<path class="st16" d="M79.5,216.5c1.9,2,2.2,2,4.1,0c1.8-1.9,4.5-5.2,4.2-9.2c-0.1-1.5-0.6-2-1.3-1.9c-0.2,1.1-0.6,2.1-1.1,3.1
		c-0.7,1.3-1.7,2.5-2.7,3.5c-0.2,0.2-0.9,0.9-1.2,1.1c-0.3-0.2-1-0.9-1.2-1.1c-1.8-1.8-3.6-4.1-4.1-6.6c-0.8-0.1-1.3,0.3-1.4,1.9
		C74.7,211.3,77.6,214.7,79.5,216.5z"/>
	<path class="st16" d="M108.9,216.5c2-1.8,5.1-5.2,5.2-9.2c0.1-1.8-0.6-2.2-1.5-1.8c-0.7,2.5-2.7,4.8-4.5,6.5
		c-0.2,0.2-1,0.9-1.4,1.1c-0.3-0.2-0.9-0.8-1-1c-1.7-1.8-3.2-4.2-3.4-6.7c-0.6,0.1-1,0.6-1.2,1.9c-0.5,4,2,7.4,3.7,9.2
		C106.5,218.5,106.8,218.5,108.9,216.5z"/>
	<path class="st16" d="M129.9,212.1c1.5,2,1.8,1.9,4.1,0c2.2-1.9,5.6-5.2,6.2-9.2c0.3-2.1-0.6-2.2-1.9-1.6c-1.1,2.4-3.2,4.6-5.1,6.2
		c-0.2,0.2-1.1,1-1.5,1.1c-0.2-0.2-0.7-0.8-0.8-0.9c-1.5-1.9-2.7-4.2-2.6-6.6c-0.4,0.2-0.7,0.8-1,1.8
		C126.3,206.9,128.4,210.3,129.9,212.1z"/>
	<path class="st16" d="M61.6,222.8c0.2,4.2,3.1,7.8,5,9.7c2.1,2,2.3,2,3.9,0c1.6-1.9,3.9-5.5,3.3-9.7c-0.2-1.4-0.6-2-1.2-2
		c-0.1,2.7-1.5,5.2-3.1,7.3c-0.1,0.2-0.6,0.8-0.9,1c-0.3-0.2-0.9-0.9-1.1-1.1c-1.9-1.9-3.7-4.4-4.4-7.1
		C62.2,220.5,61.5,220.9,61.6,222.8z"/>
	<path class="st16" d="M96,232.5c1.8-1.9,4.5-5.5,4.5-9.7c0-1.8-0.6-2.2-1.4-2c-0.5,2.7-2.2,5.2-4,7.2c-0.2,0.2-0.7,0.8-1.1,1.1
		c-0.3-0.2-0.8-0.8-0.9-1c-1-1.1-1.8-2.4-2.5-3.7c-0.5-1.1-0.9-2.3-1-3.6c-0.6-0.1-1.1,0.5-1.2,2c-0.3,4.2,2.2,7.8,3.9,9.7
		C93.9,234.5,94.1,234.5,96,232.5z"/>
	<path class="st16" d="M121.5,232.5c2-1.9,5.2-5.5,5.6-9.7c0.2-2.1-0.6-2.4-1.7-1.8c-0.9,2.6-2.9,5-4.8,6.9
		c-0.2,0.2-0.9,0.9-1.3,1.1c-0.2-0.2-0.6-0.8-0.7-0.9c-1.6-2.1-2.7-4.7-2.6-7.3c-0.4,0.2-0.8,0.8-1.1,2c-0.8,4.2,1.3,7.8,2.7,9.7
		C119.1,234.5,119.4,234.5,121.5,232.5z"/>
	<path class="st16" d="M64.2,239.1c0,2.6-1,5.2-2.5,7.4c-0.1,0.2-0.4,0.6-0.6,0.9c-0.3-0.3-0.8-0.8-1-1c-1.8-1.9-3.6-4.3-4.4-6.9
		c-1.1-0.7-1.9-0.5-1.6,1.7c0.4,4.2,3.3,7.8,5.1,9.7c1.9,2,2.1,1.9,3.5-0.1c1.3-1.9,3.2-5.5,2.6-9.7
		C65.1,239.8,64.7,239.2,64.2,239.1z"/>
	<path class="st16" d="M84,250.8c1.5-1.9,3.8-5.5,3.6-9.7c-0.1-1.7-0.6-2.2-1.3-2c-0.1,1.2-0.5,2.4-1,3.5c-0.6,1.3-1.4,2.6-2.3,3.7
		c-0.1,0.2-0.5,0.7-0.8,0.9c-0.3-0.3-0.7-0.8-0.8-0.9c-1.7-2.1-3.2-4.6-3.7-7.2c-0.8-0.3-1.3,0.1-1.4,2c0,4.2,2.4,7.8,4.1,9.7
		C82.2,252.9,82.4,252.8,84,250.8z"/>
	<path class="st16" d="M108.8,239.3c-0.7,2.6-2.3,5.1-4.1,7c-0.2,0.2-0.6,0.7-0.9,1c-0.2-0.3-0.5-0.7-0.7-0.9
		c-1.6-2.2-2.7-4.7-2.8-7.4c-0.5,0-1,0.6-1.2,2c-0.5,4.2,1.6,7.8,3,9.7c1.4,2.2,1.7,2.1,3.5,0.1c1.8-2,4.5-5.5,4.7-9.7
		C110.4,239.1,109.7,238.8,108.8,239.3z"/>
	<path class="st16" d="M130.7,239.6c-1,2.5-2.9,4.8-4.7,6.7c-0.2,0.2-0.7,0.7-1.1,1c-0.2-0.3-0.4-0.6-0.5-0.8
		c-1.4-2.2-2.2-4.8-2-7.3c-0.4,0.2-0.7,0.8-1,1.9c-1,4.2,0.7,7.8,1.9,9.7c1.4,2.1,1.6,2,3.6,0c2-2,5-5.5,5.7-9.7
		C133,238.7,132,238.7,130.7,239.6z"/>
	<path class="st16" d="M69.9,267.2c1.7,1.9,1.8,1.9,3.2-0.1c1.3-1.9,3.2-5.4,2.7-9.6c-0.2-1.6-0.6-2.1-1.2-2
		c-0.1,2.6-1.1,5.1-2.6,7.3c-0.1,0.2-0.3,0.5-0.5,0.8c-0.3-0.3-0.6-0.7-0.7-0.8c-1.7-2-3.1-4.4-3.8-6.9c-0.9-0.6-1.6-0.4-1.5,1.7
		C65.7,261.8,68.2,265.3,69.9,267.2z"/>
	<path class="st16" d="M98.4,257.5c0-2-0.6-2.3-1.4-1.9c-0.5,2.6-1.8,5-3.4,7.1c-0.1,0.2-0.4,0.6-0.7,0.8c-0.2-0.3-0.5-0.6-0.6-0.8
		c-1.5-2.1-2.7-4.6-3-7.3c-0.6-0.2-1.1,0.3-1.2,2c-0.3,4.2,1.8,7.7,3.2,9.6c1.4,2.1,1.6,2.1,3.2,0.1C96,265.2,98.3,261.7,98.4,257.5
		z"/>
	<path class="st16" d="M119.1,256c-0.8,2.5-2.4,4.7-4.1,6.6c-0.2,0.2-0.5,0.6-0.8,0.9c-0.2-0.2-0.3-0.5-0.4-0.7
		c-1.4-2.2-2.2-4.8-2.1-7.4c-0.4,0.1-0.8,0.7-1,2c-0.8,4.2,0.9,7.7,2.1,9.6c1,2.1,1.2,2.1,3.1,0.1c1.7-1.9,4.5-5.4,5-9.6
		C121.2,255.1,120.3,255.1,119.1,256z"/>
	<path class="st19" d="M10.9,215.6c-1.7-5.1-2.9-10.3-3.6-15.4c-0.7-5.2-0.7-10.4-0.1-15.5c-0.4-1.4-0.8-3-1-4.7
		c0.5-2.9,1.3-5.7,2.1-8.5c0,2,0,4,0.2,6.1c2-8.5,6-16.8,12.3-25c0.1-0.2,4.3-4.9,5-5.8c0.1-1.1,0.1-2.3,0.1-3.5c-0.1,0-0.3,0-0.4,0
		C15.3,149.6,6.2,170.3,5,182.5c-1.9,19,3.3,38.2,15,53.4l-1.7-3.2c-1.3-2.5-2.5-5-3.6-7.4c-0.2-0.5-0.5-1.1-0.7-1.6
		C12.8,221,11.8,218.3,10.9,215.6z"/>
	<path class="st19" d="M179.8,178.5c0.3-2.3,0.3-4.7,0.3-7c0.9,2.8,1.6,5.6,2.1,8.5c-0.3,2-0.7,3.8-1.2,5.4
		c0.5,5.1,0.4,10.2-0.3,15.3c-0.8,5.8-2.3,11.7-4.4,17.6c-0.7,1.8-1.4,3.7-2.2,5.5c-1.2,2.8-2.5,5.6-4,8.4c-0.1,0.2-0.2,0.3-0.2,0.5
		l-1.7,3.2c6.8-8.8,11.3-19,13.6-29.7c0.2-0.9,0.4-1.8,0.5-2.7c0.1-0.7,0.2-1.5,0.3-2.2c0.1-0.9,0.3-1.9,0.4-2.8
		c0.4-3.5,0.5-6.9,0.4-10.4c0-1.8-0.1-3.7-0.3-5.5c-1.2-12.2-10.3-32.8-20.4-39.3c0,1.4,0.1,2.8,0.2,4.1c1.4,1.6,4.3,5,4.4,5.2
		C173.8,161,177.8,169.7,179.8,178.5z"/>
	<path class="st17" d="M171.1,180.4c1.2,3.7,3.6,10.2,6.3,9.4c1.6-0.5,2.7-2.1,3.6-4.4c0.6-1.6,1-3.4,1.2-5.4
		c-0.5-2.9-1.2-5.7-2.1-8.5c0,2.3,0,4.7-0.3,7c-0.4,3.4-1.2,6.6-2.9,8.7c-1.1-1.5-2.6-5.5-3.5-7.9c-1.7-4.7-3.4-5.5-4.2,0.8
		c-2.1,16.8-6.2,22.9-10.6-0.3l-0.5-2.6c0,0.2,0,0.4,0,0.6c0,2.9,0.2,7,1.1,10.7c0.6,2.4,1.4,4.7,2.5,6.3
		C166.7,201.6,169.8,188.1,171.1,180.4z"/>
	<path class="st17" d="M19.2,180.1c-0.8-6.3-2.5-5.5-4.2-0.8c-0.9,2.4-2.4,6.4-3.5,7.9c-1.8-2.3-2.7-5.9-3-9.6
		c-0.2-2-0.2-4.1-0.2-6.1c-0.8,2.8-1.6,5.6-2.1,8.5c0.2,1.7,0.6,3.3,1,4.7c0.8,2.6,2,4.6,3.8,5.1c2.7,0.8,5.1-5.7,6.3-9.4
		c1.3,7.7,4.4,21.2,9.4,14.4c0.8-1.1,1.5-2.6,2-4.3c1.4-4.4,1.7-9.9,1.6-13.3l-0.5,2.6c-0.2,1.1-0.4,2.1-0.6,3.1
		C25,202.4,21.2,196.1,19.2,180.1z"/>
	<path class="st10" d="M58.2,178c0.1,0.1,0.2,0.2,0.3,0.3C58.4,178.2,58.3,178.1,58.2,178z"/>
	<path class="st10" d="M67.3,185.8c-1.2-0.6-4.1-3-7.9-6.5C63.2,182.8,66.2,185.3,67.3,185.8z"/>
	<path class="st10" d="M162.8,103.5c0,0.1,0,0.2,0,0.2c-0.4,8,5.4,17.7,7.8,21.3c0,0.1-6.9-2.4-8-2.9c0,0,0,0,0,0.1
		c0.7,0.3,8.1,3,8.1,2.9c-0.1-0.1-0.1-0.2-0.2-0.3c-0.1-0.2-0.3-0.4-0.4-0.6c-2.6-4.1-7.6-13-7.2-20.4c0-0.7,0-1.4,0-2.1
		c0,0.7,0,1.3,0,1.9C162.9,103.6,162.8,103.5,162.8,103.5z"/>
	<path class="st10" d="M73.8,114.5c0.7-0.1,2-0.2,2.8-0.4c3.2-2.1,7.5-8.6,9.4-11.7c2-3.1,4.9-7.4,9-7.4c4.1,0,7,4.3,8.9,7.5
		c1.4,2.3,2.6,4.8,3.9,7.1c0.6,1,1.7,3,2.8,3.5c0.5,0.2,2.4,0.1,3,0.1c2,0,3.9,0.2,5.5,1.2c0-0.9,0-1.7,0.1-2.6
		c-1.2-2.2-1.8-4.9-1.1-8.1c0-1.4,0.2-2.7,0.4-4.1c-0.4-10.6-14.1-13.2-24.8-13.4C80.1,86,71,97.5,71.7,102.7c0.1,0.6,0.1,1.1,0,1.6
		c0,1.7-0.2,3.4-0.5,5l-0.5,1.2c0.1,1.5,0.1,3,0.2,4.6C71.9,114.8,72.9,114.6,73.8,114.5z"/>
	<path class="st10" d="M46,164.9c-4.1,3.3-10.9,5.4-11,5.4c0,0,0,0.1,0,0.1c0,0,6.9-2.1,11-5.4c2.7,3.2,5.5,6.3,8.2,9
		C51.5,171.2,48.7,168.1,46,164.9z"/>
	<path class="st10" d="M55.5,175.4c-0.1-0.1-0.1-0.1-0.2-0.2C55.4,175.2,55.5,175.3,55.5,175.4z"/>
	<path class="st10" d="M159.5,141.6c0.1,7.4,0.8,13.3,0.8,13.6l0.1,0.1c0,0-0.7-6-0.8-13.6c-1-8.7,1.6-23.6,2.4-27.7
		c0-0.1,0-0.2,0-0.4C161.2,117.3,158.5,132.7,159.5,141.6z"/>
	<path class="st10" d="M153.3,170.3c0,0-7.9-2.4-11.8-6.1c-3.9,4-7.9,7.3-11.6,10.1c5.2-7.3,9.6-14.2,9.5-14.2l8.7,4.1l-0.4-29.6
		l8.3,10.5c0,0-0.5-4.1,0.3-17.1c0.6-9.9,4.3-17.5,5.8-25.5c-2.7-3.5-6.5-4.5-10.8,1.5c-1.4,2-3.1,3.8-4.9,5.4
		c2.9,24.3,0.9,58.5-13.7,48c-8.2-5.9-12.2-18.9-13.3-33c-2,1.3-4.9,1.9-6.9,2.4c-8,1.9-10.2,8.7-15.5,13.8l-2.3,2.1l-2.1-2.2
		c-4.5-4.8-9.8-13.1-16.9-13.8c-1.7-0.2-3.6-0.4-5.2-0.7c-1.2,13.5-5.3,25.8-13.2,31.4c-15.2,11-16.7-26.9-13.2-51.2
		c-2.4-2.5-4.7-5.5-6.7-9c-6.6-11.8-9.4-6.4-11.6,5.6c1.6,7.9,5.3,15.4,5.8,25.2c0.8,13,0.3,17.1,0.3,17.1l8.3-10.5l-0.4,29.6
		l8.7-4.1c0,0,10.6,17,18.9,25.7c0.3,0.1,0.4,0.1,0.4-0.1l1-8.7c7.7,8.7,12.8,9.5,12.8,9.5l-1.9-9.4l13.6,19.5l14-18.3l-1.5,7.5
		c0,0,7.5-6.1,13.9-12.5l-4.3,10.2c0,0,2.3-1.1,5.9-3.2c5.2-3.1,12.9-8.4,20.3-16C145.5,168,153.4,170.4,153.3,170.3
		c0-2.3-2.7-26-2.4-26.8l-0.1-0.1C150.5,143.9,153.2,167.9,153.3,170.3z M110.6,159c0.2-1.3,0.6-1.9,1-2c0,2.5,0.8,4.8,2.1,7
		c0.1,0.1,0.3,0.4,0.4,0.7c0.3-0.3,0.7-0.7,0.8-0.9c1.5-1.8,3-3.8,3.9-6c1.3-1.1,2.4-1.4,2.1,1.2c-0.5,4.2-3.3,7.7-5,9.6
		c-1.9,2-2.1,2.1-3.2,0C111.5,166.7,109.8,163.2,110.6,159z M88.1,165.9c0.1-1.6,0.6-2.1,1.2-2c0.3,2.5,1.5,4.8,2.9,6.8
		c0.1,0.1,0.4,0.5,0.6,0.8c0.3-0.3,0.6-0.7,0.7-0.8c1.5-1.9,2.8-4.2,3.3-6.5c0.9-0.6,1.6-0.4,1.6,1.7c-0.1,4.2-2.4,7.7-3.9,9.6
		c-1.6,2-1.8,2-3.2,0C89.9,173.6,87.8,170.1,88.1,165.9z M67.2,157.4c0.7,2.4,2.1,4.6,3.7,6.5c0.1,0.2,0.5,0.6,0.7,0.8
		c0.2-0.3,0.4-0.6,0.5-0.8c1.4-2.1,2.4-4.4,2.5-6.9c0.5-0.1,1,0.4,1.2,2c0.5,4.2-1.4,7.7-2.7,9.6c-1.4,2-1.5,2-3.2,0
		c-1.7-1.9-4.2-5.4-4.4-9.6C65.4,156.7,66.2,156.7,67.2,157.4z"/>
	<path class="st10" d="M26.3,113.9c-0.7,3.2-1,5.8-1.2,8.3l-7.5,2.7c-0.2,0.2-0.4,0.2-0.4,0.2l7.9-2.8c0.2-2.5,0.5-5.1,1.2-8.3
		c0.3,15.4,2.5,19.6,2.5,29.5C28.8,133.5,26.6,129.4,26.3,113.9z"/>
	<path class="st10" d="M36.8,145.9l-8.8,9.4c-0.2,0.2-0.4,0.2-0.4,0c0,0.3,0.1,0.4,0.4,0.1l8.8-9.4c0.1,0.9,0.1,1.9,0.1,2.9
		C36.9,147.9,36.9,146.9,36.8,145.9z"/>
	<path class="st18" d="M92.6,140.5l2.1,2.2l2.3-2.1c5.3-5.1,7.5-11.9,15.5-13.8c2-0.4,4.9-1,6.9-2.4c0-0.5-0.1-1-0.1-1.6
		c-2,1.2-4.8,1.8-6.7,2.2c-8,1.9-10.2,8.7-15.5,13.8l-2.3,2.1l-2.1-2.2c-4.5-4.8-9.8-13.1-16.9-13.8c-1.7-0.2-3.5-0.4-5.2-0.7
		c0,0.6-0.1,1.1-0.1,1.7c1.6,0.4,3.5,0.6,5.2,0.7C82.8,127.4,88.1,135.7,92.6,140.5z"/>
	<path class="st18" d="M25,99.1C25,99.1,25,99.1,25,99.1C25,99.1,25,99.1,25,99.1C25,99.1,25,99.1,25,99.1z"/>
	<path class="st18" d="M170.6,125c-2.4-3.6-8.2-13.3-7.8-21.3c0-0.1,0-0.2,0-0.2c-0.2-0.3-0.4-0.7-0.7-1c-1.5,8-5.2,15.7-5.8,25.5
		c-0.8,13-0.3,17.1-0.3,17.1l-8.3-10.5l0.4,29.6l-8.7-4.1c0.1,0-4.3,6.9-9.5,14.2c3.7-2.8,7.7-6.1,11.6-10.1
		c3.9,3.7,11.8,6.1,11.8,6.1c-0.1-2.4-2.8-26.4-2.5-26.9l0.1,0.1l9.4,11.7c0,0,0,0,0,0c0-0.3-0.7-6.2-0.8-13.6
		c-1-8.9,1.7-24.3,2.5-28c0,0.1,0,0.2,0,0.4c0.4,2.7,0.6,5.4,0.5,8.1c0,0,0.1,0,0.1,0C163.7,122.6,170.6,125.1,170.6,125z"/>
	<path class="st16" d="M119.2,111.8c0,0.9-0.1,1.7-0.1,2.6c0.8,0.5,1.5,1.2,2.1,2.1c0.5,0.9,0.8,1.9,0.6,3c-0.2,1.5-1.2,2.6-2.5,3.4
		c0,0.5,0.1,1.1,0.1,1.6c1.1,14.1,5.1,27.1,13.3,33c14.6,10.5,16.6-23.7,13.7-48c1.8-1.6,3.5-3.4,4.9-5.4c4.3-6,8.1-5,10.8-1.5
		c0.2,0.3,0.5,0.6,0.7,1c0,0,0.1,0.1,0.1,0.1c0-0.6,0-1.3,0-1.9c0-7.9-2.1-18.7-5.7-26.9c-2.9,2.6-7.6,4.4-12,5.6
		c0.9,0.5,1.8,1.2,2.6,2c4.3,4.6,3.6,9.4,2.6,15.1c-1.6-7.1-3.2-14.5-10.3-13.9c4.2,5.4,5.5,11.1,4.9,16.2c0.3-0.2,0.7-0.2,1-0.1
		c0.8,0.1,1.3,0.9,1.1,1.6c-2.5,8.7-8.5,19.4-19.3,16.4c-1.1-0.3-2-0.8-2.8-1.3c-1.7-0.5-3.3-1.4-4.3-2.8c0,0.4,0,0.8,0,1.2
		l-2.1-5.5c-0.4-1.8-0.6-3.7-0.5-5.6C117.4,106.9,118,109.6,119.2,111.8z"/>
	<path class="st16" d="M71.7,102.7c-0.7-5.2,8.4-16.7,22-16.5c10.7,0.2,24.4,2.7,24.8,13.4c1-5.2,3.4-10.2,6.7-13.9
		c0.7-0.8,1.4-1.5,2.2-2.1c-3.5,0.4-7.1,0.8-10.6,1c-7.3,0.5-14.6,0.8-21.9,0.8S80.3,85.2,73,84.6c-3.5-0.3-7.1-0.6-10.6-1
		c0.8,0.7,1.6,1.4,2.2,2.1c4.2,4.7,7.1,11.8,7.1,18.6C71.8,103.8,71.8,103.3,71.7,102.7z"/>
	<path class="st16" d="M24.1,112.7l0.1,0.1c0.5-3.6,1-7,1.6-10c2.2-11.9,5-17.3,11.6-5.6c1.9,3.4,4.2,6.4,6.7,9
		c-3.5,24.3-2,62.2,13.2,51.2c7.9-5.7,11.9-18,13.2-31.4c0.1-0.6,0.1-1.1,0.1-1.7c-0.1,0-0.2,0-0.3-0.1c-1.8-0.5-3.4-1.4-3.8-3.4
		c-0.3-1.7,0.5-2.9,1.5-4.1c0.7-0.9,1.8-1.3,2.9-1.6c0-1.5-0.1-3-0.2-4.6l-1.6,4.3c0-0.3,0-0.7,0-1.1c-0.9,1.1-2.1,1.9-3.5,2.5
		c-0.9,0.6-1.9,1.1-3.2,1.5c-10.8,3-16.8-7.7-19.3-16.4c-0.2-0.7,0.3-1.5,1.1-1.6c0.2-0.1,0.5-0.1,0.7,0c-0.5-5.1,0.8-10.7,5-16
		C42.6,83,41,90.4,39.4,97.5c-1-5.7-1.7-10.5,2.6-15.1c0.8-0.8,1.6-1.5,2.5-2c-4.8-1.3-9.8-3.2-12.6-6.2c-4,8-7.1,19.3-6.9,24.9
		c0,0,0,0,0,0c0,0,0,0.1,0,0.1l0,0c0,0,0,0,0,0c0.1,4.1,0,7.5-0.4,10.5C24.5,110.7,24.3,111.8,24.1,112.7z"/>
	<path class="st16" d="M133.8,116c0,0-0.1,0-0.2,0.1c1.7-0.5,3.2-1.5,4.4-2.8C136.8,114.4,135.3,115.4,133.8,116z"/>
	<path class="st15" d="M61.8,91.8c-1.4,0.7-1.5,3.5-0.2,6.4c1.3,2.9,3.5,4.7,4.9,4.1c1.4-0.6,1.5-3.5,0.2-6.4
		C65.4,93,63.2,91.2,61.8,91.8z"/>
	<path class="st15" d="M123.1,102.3c1.4,0.6,3.6-1.2,4.9-4.1c1.3-2.9,1.2-5.7-0.2-6.4c-1.4-0.6-3.6,1.2-4.9,4.1
		C121.6,98.8,121.7,101.7,123.1,102.3z"/>
	<path class="st13" d="M70.2,49.4c3.4-6.8,0.4-20-5-30c-1.6,0.7-3.1,1.6-4.6,2.4c2.3,6.3,7.7,20.4,6.4,21.1l-0.6,0.3l-2.6-6.2
		c1.1,2.7,1.9,4.8,2,5.6c-1.4-1.8-8.8-17.9-10.3-21.1c-0.1-0.2-0.1-0.3-0.1-0.4C51,23.3,49.2,26,49.2,26c3.2,6.9,6.7,13.6,10.3,20.5
		c-2.4-1.9-8-10.4-11-15.5c-8.5,8.3-12.3,19.7-14,28.3C46.4,59.7,67,55.5,70.2,49.4z"/>
	<path class="st13" d="M156.3,64.4c0,0.1,0,0.1,0,0.2C156.3,64.6,156.3,64.5,156.3,64.4z"/>
	<path class="st13" d="M156.4,65.6c0,0.1,0,0.1,0,0.2C156.4,65.7,156.4,65.6,156.4,65.6z"/>
	<path class="st13" d="M156.1,63.2c0,0.1,0,0.1,0,0.2C156.1,63.4,156.1,63.3,156.1,63.2z"/>
	<path class="st13" d="M155.9,62C155.9,62,155.9,62,155.9,62C155.9,62,155.9,62,155.9,62z"/>
	<path class="st14" d="M70.2,49.4c-3.2,6.1-23.8,10.3-35.7,9.8c0,0,0,0-0.1,0c-0.6,3-0.9,5.6-1.1,7.6c1.3-0.6,2.6-1.1,4-1.6
		c0,0,0-0.1,0.1-0.1c0.2-0.2,0.6-0.3,1-0.2c10.4-3.8,23.9-6.5,38.3-7.8c-0.9-12-2.8-26.8-6.2-33c-1-1.9-2.1-3.7-3.1-5.6
		c-0.7,0.3-1.3,0.6-2,0.9c0,0,0,0,0,0C70.6,29.4,73.6,42.6,70.2,49.4z"/>
	<path class="st14" d="M116.9,49.4c-1.3-2.5-1.7-5.9-1.4-9.7c-0.5,2-0.9,4.1-1.1,6.1c-0.4,3.7-0.7,7.5-1,11.2
		c16.8,1.5,32.3,5,43.1,9.8c0-0.3-0.1-0.7-0.1-1c0-0.1,0-0.1,0-0.2c0-0.3-0.1-0.6-0.1-0.9c0-0.1,0-0.1,0-0.2c0-0.3-0.1-0.7-0.1-1
		c0-0.1,0-0.1,0-0.2c-0.1-0.4-0.1-0.8-0.2-1.2c0,0,0-0.1,0-0.1c-0.2-0.9-0.3-1.9-0.5-3c0,0,0,0,0,0C144.4,60.3,120.3,56,116.9,49.4z
		"/>
	<path class="st14" d="M119.6,24.1c-0.5,0.9-0.9,2-1.2,3.2C118.8,26.2,119.2,25.1,119.6,24.1C119.6,24.1,119.6,24.1,119.6,24.1z"/>
	<path class="st13" d="M120.2,11.9C110.9,24,112,24,110.5,39.6c-0.5,5.7-0.9,11.4-1.6,17.1c0.7,0,1.4,0.1,2.1,0.2
		c0.8-12.2,2.5-28.6,5.7-34.4c5.4-9.6,5.4-9.6,5.4-9.6C121.5,12.5,120.9,12.1,120.2,11.9L120.2,11.9z"/>
	<path class="st13" d="M117,11.2c0.2-0.3,0.4-0.5,0.6-0.8c-0.3-0.2-0.7-0.3-1-0.4C116.9,10.3,117.1,10.7,117,11.2z"/>
	<path class="st13" d="M112.4,8.2c-7.1-2.6-14.4-3.6-21.7-3C98,4.8,105.5,6,112.4,8.2z"/>
	<path class="st13" d="M114.4,12.6C104.6,8.5,92.5,6.7,82,9.2c0,0-5.6,1.4-7.3,1.9c1.2,2.7,4.5,5.7,6.2,12.1
		c0.9,3.5,1.1,10.8,0.9,17.1c0.5,1.6,1,2.9,1.8,4c0.9,1.3,2.2,2.2,4,2.9c1.3,0.5,2.8,0.8,4.7,1c4.6,0.5,7.6,0.1,9.4-0.8
		c1.7-0.7,2.7-1.8,3.4-2.9c0.6-1,1-2.1,1.3-3.1c0.9-2.7,1.1-8.2,2.9-13.9c-0.2,1.9-0.3,3.9-0.4,6.5c0.5-10,0.8-12.5,7.1-21.4
		C115.5,12.9,114.9,12.9,114.4,12.6z"/>
	<path class="st13" d="M72.3,10.4c0-0.1,0.1-0.1,0.1-0.2c-0.3,0.1-0.6,0.3-0.9,0.4c0.9,1.2,1.7,2.4,2.4,3.4
		C72.9,12.4,72.2,11,72.3,10.4z"/>
	<path class="st13" d="M72.9,22.4c3.3,5.8,4.9,22.3,5.7,34.5c0.5,0,1-0.1,1.5-0.1c-0.7-5.7-1.1-11.5-1.6-17.2
		C77,24.1,78.2,24,68.9,12c-0.5,0.3-0.9,0.5-1.4,0.8C67.5,12.8,67.5,12.8,72.9,22.4z"/>
	<path class="st13" d="M91.8,56.2c-0.1,0-0.2,0-0.3,0C91.5,56.2,91.6,56.2,91.8,56.2z"/>
	<path class="st13" d="M95.1,56.2c0.1,0,0.1,0,0.2,0c0,0,0,0,0,0C95.2,56.2,95.1,56.2,95.1,56.2z"/>
	<path class="st13" d="M80.9,51.9c0-1.5,0-2.9,0-4.3c0-1-0.1-2.1-0.1-3.1c0-0.4,0-0.7,0-1.1c-0.2-3.4-0.4-6.9-0.6-10.3
		c-0.2-4.2-0.3-8.4-2.2-12.6c-0.4-0.8-1-1.8-1.8-3c3.9,6.5,3.6,9.8,4.2,21.9c0.3,5.8,0.5,11.6,0.2,17.3c0.8-0.1,1.6-0.1,2.4-0.2
		c-0.8,0-1.5,0.1-2.3,0.1C80.8,55.1,80.9,53.5,80.9,51.9z"/>
	<path class="st13" d="M56.8,20.9l-0.1-0.3c0,0-0.1,0-0.1,0.1C56.7,20.7,56.8,20.8,56.8,20.9z"/>
	<path class="st13" d="M122.6,45.4c1.8-4.4,2.9-7.1,3.6-8.9l-3,6.9c-2.2-1.6,3.4-15.3,5.9-21.6c-2.1-1.2-4.3-2.3-6.5-3.2
		c-1,1.8-2.1,3.7-3.1,5.5c-0.5,1.1-0.9,2.1-1.3,3.2c-0.5,1.8-1,3.8-1.3,5.3c-0.4,2.3-1,4.7-1.6,7.1c-0.3,3.8,0.1,7.2,1.4,9.7
		c3.4,6.6,27.5,10.9,38.5,9.6c-1.7-8.5-5.5-19.7-13.9-28c-3.3,6.2-9.8,17.4-11.7,16.3c3.8-7.1,7.4-14.1,10.8-21.3
		c0,0-1.7-2.6-6.1-4.8C126.8,37.4,130.7,29.4,122.6,45.4z"/>
	<path class="st10" d="M44.2,99.7c-0.8,0.1-1.3,0.9-1.1,1.6c2.5,8.7,8.5,19.4,19.3,16.4c1.3-0.4,2.3-0.9,3.2-1.5
		c1.4-1,2.3-2.4,3-4.3c-1.9,2.3-3.3,3.8-6.5,4.4c-9.7,1.9-14.3-7.8-16.2-15.6c-0.1-0.5-0.5-0.9-1-1C44.7,99.6,44.4,99.6,44.2,99.7z"
		/>
	<path class="st14" d="M156.8,70.3c-1.7-0.8-3.5-1.5-5.2-2.3c-2.1,2.4-6.6,4.4-12.7,6c-8.5,2.4-18.9,3.5-25.9,4
		c-3,0.2-5.5,0.2-8,0.2c-5.6,0.2-11.4,0.2-17,0.1c-8.3,0.1-19.5-0.9-27.4-2.3c-10.9-1.7-19.2-4.4-22.3-7.9c-1.8,0.7-3.6,1.5-5.2,2.3
		C39.2,86.2,150.7,86.2,156.8,70.3z"/>
	<path class="st13" d="M61.1,61.4c15.1-2.7,33.6-3.9,44.1-2.3c-17.9,0.3-43.5,2.2-60.1,8.5c-0.6,0.2-1.2,0-1.4-0.6
		c-0.2-0.4-0.1-0.7,0-1c-0.8,0.3-1.6,0.6-2.4,0.8c13.7,9,33.2,9.2,48.9,10.6l3.6,0.4c7.2,0.1,24-1.8,31.4-3.1
		c8.6-1.5,16-3.1,22.9-8.1C123,57.6,89.5,55.9,61.1,61.4z"/>
	<path class="st13" d="M105,78.2c-3.6,0-6.9-0.2-11.1-0.3l-3.6,0.3c-0.7,0-1.5,0.1-2.3,0.1C93.7,78.4,99.4,78.4,105,78.2z"/>
	<path class="st13" d="M151.6,68C151.6,68,151.6,68,151.6,68c-0.1-0.1-0.2-0.1-0.3-0.2l-3.2,2.4c-2.5,1.5-5.7,2.7-9.1,3.7
		C145,72.5,149.5,70.5,151.6,68z"/>
	<path class="st13" d="M60.6,76c-0.2,0-0.4-0.1-0.5-0.1c-8.7-1.5-14.5-3-21.6-8c-0.1,0-0.1,0-0.2,0.1c0,0,0,0,0,0
		C41.4,71.6,49.7,74.3,60.6,76z"/>
	<path class="st10" d="M147.1,101.3c0.2-0.7-0.3-1.5-1.1-1.6c-0.4-0.1-0.7,0-1,0.1c-0.3,0.2-0.6,0.5-0.7,0.9
		c-1.1,4.4-3,9.4-6.2,12.6c-1.3,1.3-2.7,2.2-4.4,2.8c-1.6,0.5-3.5,0.7-5.5,0.2c-3.2-0.6-4.6-2.1-6.5-4.4c0.7,2.1,1.8,3.5,3.4,4.5
		c0.8,0.5,1.7,0.9,2.8,1.3C138.6,120.7,144.6,110,147.1,101.3z"/>
	<path class="st15" d="M43.7,67c0.2,0.6,0.8,0.8,1.4,0.6c16.6-6.3,42.2-8.2,60.1-8.5c-10.5-1.6-29-0.3-44.1,2.3
		c-6.6,1.2-12.5,2.6-16.9,4.2c-0.2,0.1-0.3,0.2-0.5,0.4C43.6,66.3,43.5,66.6,43.7,67z"/>
	<path class="st15" d="M55.5,21.6c1.5,3.2,8.9,19.3,10.3,21.1c-0.1-0.7-0.9-2.9-2-5.6c-2.3-5.7-5.9-14-6.9-16.1c0,0,0-0.1-0.1-0.1
		c-0.1-0.1-0.1-0.2-0.2-0.2c-0.2-0.1-0.4-0.2-0.7-0.1c-0.2,0.1-0.4,0.3-0.5,0.6C55.4,21.3,55.4,21.4,55.5,21.6z"/>
	<path class="st15" d="M134,20.2c-0.4-0.2-0.8,0-1,0.4c-5.2,12-4.7,10.8-6.8,15.9c-0.7,1.8-1.8,4.5-3.6,8.9c8.1-16,4.2-8,11.9-24.2
		c0,0,0,0,0,0C134.7,20.8,134.5,20.3,134,20.2z"/>
	<path class="st11" d="M92.7,138.8l2.1,2.2l2.3-2.1c5.3-5.1,7.5-11.9,15.5-13.8c1.9-0.4,4.7-1,6.7-2.2c1.3-0.8,2.3-1.9,2.5-3.4
		c0.2-1.1-0.1-2.1-0.6-3c-0.5-1-1.3-1.6-2.1-2.1c-1.6-0.9-3.5-1.2-5.5-1.2c-0.6,0-2.5,0.1-3-0.1c-1.1-0.5-2.2-2.5-2.8-3.5
		c-1.3-2.3-2.5-4.8-3.9-7.1C102,99.3,99.1,95,95,95c-4.1,0-7,4.3-9,7.4c-1.9,3.1-6.2,9.6-9.4,11.7c-0.8,0.2-2.1,0.3-2.8,0.4
		c-0.9,0.1-1.9,0.3-2.9,0.6c-1.1,0.3-2.2,0.8-2.9,1.6c-1,1.2-1.8,2.4-1.5,4.1c0.4,2,2,2.9,3.8,3.4c0.1,0,0.2,0,0.3,0.1
		c1.6,0.4,3.5,0.5,5.2,0.7C82.9,125.7,88.2,134,92.7,138.8z M95.1,136.7c-4.7-4.9-10.3-14-18.9-14.8c0,0-0.1,0-0.1,0
		c-1.7-0.5-2.9-1.8-1-2.1c5.8,1.5,8.9,2.8,12.8,6.5c2.6,2.8,4.7,6,7.1,8.5c2.3-2.4,4.3-5.4,6.8-8.1c3.1-2.7,6-4.3,10.7-6.4
		c0.9-0.1,1.5-0.2,1.8,0c0.6,0.4,0.1,1.1-1,1.7c-0.4,0.1-0.8,0.2-1.2,0.3C102.8,124.4,100,132.2,95.1,136.7z M101.4,104.1
		c3,4.8,4.8,10.1,7.9,11.8c2.1,1.1,6.4-0.3,8.6,1.4c-0.8,0.1-1.7,0.3-2.5,0.6c-5.9,1.1-11.2,4.1-15.9,7.9c-1,0-1.7-1.5-4.4-5.3
		c-2.5,3.5-3.3,5.1-4.2,5.3c-4.6-4.2-8.5-5.9-14.9-6.6c-1.2-0.4-3.1-0.8-4.9-0.8c1.8-0.7,6.2-0.9,7-1.3c2.4-1.4,6.1-5.5,10.7-12.9
		C93.6,96.1,96.4,96.1,101.4,104.1z"/>
	<path class="st13" d="M88.7,104.1c-4.6,7.4-8.3,11.5-10.7,12.9c-0.8,0.4-5.2,0.6-7,1.3c1.8,0,3.7,0.4,4.9,0.8
		c6.4,0.7,10.3,2.4,14.9,6.6c0.9-0.2,1.7-1.8,4.2-5.3c2.7,3.8,3.4,5.3,4.4,5.3c4.7-3.8,10-6.8,15.9-7.9c0.9-0.3,1.8-0.5,2.5-0.6
		c-2.2-1.7-6.5-0.3-8.6-1.4c-3.1-1.7-4.9-7-7.9-11.8C96.4,96.1,93.6,96.1,88.7,104.1z M98.1,106.3c1.3,2.4,4,5,2.4,6.2
		C98.9,113.6,96.3,104.6,98.1,106.3z M89.5,112.5c-1.6-1.2,1.1-3.8,2.4-6.2C93.6,104.6,91.1,113.6,89.5,112.5z M84.5,115.1
		c-0.3,0.5-1,0.7-1.5,0.4c-0.5-0.4-0.6-1-0.3-1.5c3.3-5.1,6.3-10.5,10.4-14.9C90.4,104.5,87.4,109.8,84.5,115.1z"/>
	<path class="st13" d="M113.3,121.9c1.1-0.6,1.6-1.3,1-1.7c-0.2-0.2-0.9-0.1-1.8,0c-4.8,2.1-7.6,3.7-10.7,6.4
		c-2.5,2.7-4.6,5.7-6.8,8.1c-2.4-2.5-4.5-5.7-7.1-8.5c-4-3.8-7-5-12.8-6.5c-1.9,0.2-0.7,1.5,1,2.1c0,0,0.1,0,0.1,0
		c8.6,0.8,14.2,9.9,18.9,14.8c4.9-4.5,7.7-12.3,17-14.5C112.5,122.1,112.9,122,113.3,121.9z"/>
	<path class="st11" d="M91.9,106.3c-1.3,2.4-4,5-2.4,6.2C91.1,113.6,93.6,104.6,91.9,106.3z"/>
	<path class="st11" d="M100.5,112.5c1.6-1.2-1.1-3.8-2.4-6.2C96.3,104.6,98.9,113.6,100.5,112.5z"/>
	<path class="st15" d="M83,115.5c0.5,0.3,1.2,0.1,1.5-0.4c2.9-5.3,5.9-10.6,8.6-16c-4.1,4.4-7.1,9.8-10.4,14.9
		C82.4,114.5,82.5,115.1,83,115.5z"/>
	<path class="st16" d="M69.9,168.6c1.7,2,1.8,2,3.2,0c1.3-1.9,3.2-5.4,2.7-9.6c-0.2-1.6-0.6-2.1-1.2-2c-0.2,2.5-1.2,4.8-2.5,6.9
		c-0.1,0.2-0.3,0.5-0.5,0.8c-0.2-0.2-0.6-0.6-0.7-0.8c-1.6-1.9-3-4.1-3.7-6.5c-1-0.8-1.9-0.7-1.7,1.6
		C65.7,163.2,68.2,166.7,69.9,168.6z"/>
	<path class="st16" d="M91.3,175.5c1.4,2,1.6,2,3.2,0c1.5-1.9,3.8-5.4,3.9-9.6c0-2.1-0.7-2.3-1.6-1.7c-0.5,2.4-1.8,4.6-3.3,6.5
		c-0.1,0.1-0.4,0.5-0.7,0.8c-0.2-0.3-0.5-0.7-0.6-0.8c-1.4-2-2.6-4.3-2.9-6.8c-0.6-0.1-1.1,0.4-1.2,2
		C87.8,170.1,89.9,173.6,91.3,175.5z"/>
	<path class="st16" d="M115.9,168.6c1.7-1.9,4.5-5.4,5-9.6c0.3-2.6-0.8-2.3-2.1-1.2c-0.9,2.2-2.4,4.3-3.9,6
		c-0.1,0.2-0.5,0.6-0.8,0.9c-0.1-0.3-0.3-0.6-0.4-0.7c-1.3-2.2-2.1-4.5-2.1-7c-0.4,0.1-0.8,0.7-1,2c-0.8,4.2,0.9,7.7,2.1,9.6
		C113.8,170.7,114,170.6,115.9,168.6z"/>
	<path class="st14" d="M106.4,41.4c-0.3,1-0.7,2.1-1.3,3.1c-0.7,1.1-1.7,2.2-3.4,2.9c-1.8,0.9-4.8,1.3-9.4,0.8
		c-1.9-0.2-3.4-0.5-4.7-1c-1.8-0.7-3.1-1.6-4-2.9c-0.8-1.1-1.4-2.4-1.8-4c-0.1,3.7-0.4,7-0.8,9.1c0-1.9-0.1-4-0.2-6
		c0,0.4,0,0.7,0,1.1c0,1,0.1,2.1,0.1,3.1c0,1.4,0,2.8,0,4.3c0,1.6-0.1,3.2-0.2,4.8c0.8,0,1.5-0.1,2.3-0.1c2.8-0.2,5.6-0.3,8.4-0.3
		c0.1,0,0.2,0,0.3,0c1.1,0,2.2,0,3.3,0c0,0,0.1,0,0.1,0c0,0,0,0,0,0c4.5,0,8.9,0.2,13.3,0.5c-0.1-1.5-0.1-3-0.2-4.5
		c0-1.4,0-2.8,0-4.3c0-1,0.1-2.1,0.1-3.1c0.1-1.8,0.2-3.5,0.2-5.3c0.1-2.1,0.2-3.9,0.3-5.5c0.1-2.6,0.2-4.7,0.4-6.5
		C107.5,33.2,107.3,38.7,106.4,41.4z"/>
	<path class="st15" d="M73.9,14c0.7,1.1,1.5,2.4,2.3,3.5c0.8,1.2,1.4,2.2,1.8,3c1.9,4.2,2,8.4,2.2,12.6c0.2,3.4,0.4,6.9,0.6,10.3
		c0.1,2.1,0.2,4.1,0.2,6c0.4-2.1,0.6-5.4,0.8-9.1c0.2-6.3,0-13.6-0.9-17.1c-1.7-6.4-5-9.4-6.2-12.1c1.7-0.5,7.3-1.9,7.3-1.9
		c10.5-2.5,22.6-0.7,32.4,3.4c0.5,0.3,1.1,0.3,1.6,0.1c0.3-0.2,0.6-0.4,0.8-0.8c0.1-0.2,0.2-0.5,0.2-0.7c0-0.4-0.1-0.9-0.4-1.2
		c-0.1-0.1-0.3-0.3-0.4-0.4c-1.2-0.5-2.5-1-3.8-1.4C105.5,6,98,4.8,90.7,5.2c-3.2,0.2-6.4,0.7-9.5,1.5c-1.3,0.4-8,1.7-8.8,3.5
		c0,0.1-0.1,0.1-0.1,0.2C72.2,11,72.9,12.4,73.9,14z"/>
</g>
<path class="st0" d="M138.6,164.9c6.4,2.2,15,5.3,19,11.2c-8-5.3-10.2-6.3-19.6-9.1c-0.6-0.2-0.9-0.8-0.7-1.3
	C137.4,165.1,138,164.8,138.6,164.9z"/>
<path class="st0" d="M133.2,166.4c1.3,0.9,10,7,9.9,8.3c-0.5-0.1-10-5.8-11.1-6.4c-0.5-0.3-0.7-1-0.3-1.5
	C132,166.3,132.7,166.1,133.2,166.4z"/>
<path class="st0" d="M49.7,164.9c-6.4,2.2-15,5.3-19,11.2c8-5.3,10.2-6.3,19.6-9.1c0.6-0.2,0.9-0.8,0.7-1.3
	C50.9,165.1,50.3,164.8,49.7,164.9z"/>
<path class="st0" d="M55.1,166.4c-1.3,0.9-10,7-9.9,8.3c0.5-0.1,10-5.8,11.1-6.4c0.5-0.3,0.7-1,0.3-1.5
	C56.3,166.3,55.6,166.1,55.1,166.4z"/>
<g>
	<path class="st10" d="M248.9,253.7V83h90.2v29h-59.4v36.9h54.6v29h-54.6v75.9L248.9,253.7L248.9,253.7z"/>
	<path class="st10" d="M461.2,253.7h-69.9c-2.9,0.2-5.3-0.3-7.2-1.4c-1.9-1.1-3.5-2.5-4.8-4.1s-2.2-3.3-2.8-5.1
		c-0.6-1.8-0.8-3.5-0.8-4.9V83h30.9v141.9h54.6L461.2,253.7L461.2,253.7z"/>
	<path class="st10" d="M491.8,238.1V83H582v29h-59.4v36.9h54.6v29h-54.6v46.9H582v29h-74.7c-2.9,0-5.3-0.6-7.2-1.7
		c-1.9-1.1-3.5-2.5-4.8-4.1s-2.2-3.3-2.8-5C492.1,241.1,491.8,239.5,491.8,238.1z"/>
	<path class="st10" d="M619.9,253.7V84.2l91.4-1.2c4.8,0,8.4,1.5,10.9,4.4c2.5,3,3.7,6,3.7,9.2v133.6c0,2.7-0.6,5.2-1.8,7.4
		s-2.8,4-4.9,5.3l-20.8,12.7c-2.2,1.4-5.7,2.2-10.3,2.2c-1.3,0-2.7-0.2-4.3-0.5l-36.1-11l-2.4,7.4L619.9,253.7L619.9,253.7z
		 M685.7,230.7l9.3-5.7V110.5h-44.3V222L685.7,230.7z"/>
	<path class="st10" d="M766.1,222.3V98.6c0-1.4,0.3-3.1,0.8-4.9c0.6-1.8,1.5-3.5,2.8-5.1s2.9-3,4.8-4.1c1.9-1.1,4.3-1.6,7.2-1.4
		h86.7l-2.4,48.6h-27.8v-21.1H797v107l16,10.5l25.1-14.1v-38.1h-23.9v-27H869v70.4c-0.5,6.2-3,10.6-7.7,13.2l-41.9,23.9
		c-2.4,1.1-4.7,1.7-6.9,1.7c-3,0-5.4-0.6-7.2-1.7L772.8,235c-2.1-1.3-3.7-3-4.9-5.3C766.7,227.5,766.1,225,766.1,222.3z"/>
	<path class="st10" d="M909.8,238.1V83h90.2v29h-59.4v36.9h54.6v29h-54.6v46.9h59.4v29h-74.7c-2.9,0-5.3-0.6-7.2-1.7
		c-1.9-1.1-3.5-2.5-4.8-4.1s-2.2-3.3-2.8-5C910,241.1,909.8,239.5,909.8,238.1z"/>
</g>
</svg>
