<svg width="2835" height="601" viewBox="0 0 2835 601" fill="none" xmlns="http://www.w3.org/2000/svg">
<path d="M601.318 402.145H616.294V310.849H730.342V297.025H616.294V214.369H743.302V200.545H601.318V402.145ZM862.318 402.145H995.662V388.321H877.294V200.545H862.318V402.145ZM1112.63 402.145H1257.49V388.321H1127.61V307.393H1243.09V293.569H1127.61V214.369H1256.05V200.545H1112.63V402.145ZM1362.3 402.145H1379.87L1451.3 309.121L1523.01 402.145H1540.86L1460.8 299.041L1537.98 200.545H1520.42L1451.87 289.249L1383.04 200.545H1365.18L1442.66 299.329L1362.3 402.145ZM1657.41 402.145H1671.81V223.009L1813.8 402.145H1825.03V200.545H1810.63V375.937L1671.52 200.545H1657.41V402.145ZM2049.1 405.601C2110.16 405.601 2150.77 356.353 2150.77 301.345C2151.06 301.057 2151.06 301.057 2150.77 300.769C2150.77 245.761 2110.74 197.089 2049.68 197.089C1988.62 197.089 1948.02 246.337 1948.02 301.345V301.921C1948.02 356.929 1988.05 405.601 2049.1 405.601ZM2049.68 392.065C1999.86 392.065 1963.57 351.169 1963.57 301.345V300.769C1963.57 250.945 1999.28 210.625 2049.1 210.625C2098.93 210.625 2135.22 251.521 2135.22 301.345V301.921C2135.22 351.745 2099.5 392.065 2049.68 392.065ZM2273.63 402.145H2340.73C2404.09 402.145 2447.87 358.081 2447.87 301.345V300.769C2447.87 244.033 2404.09 200.545 2340.73 200.545H2273.63V402.145ZM2288.61 388.321V214.369H2340.73C2396.89 214.369 2432.32 253.537 2432.32 301.345V301.921C2432.32 350.017 2396.89 388.321 2340.73 388.321H2288.61ZM2570.91 402.145H2715.78V388.321H2585.89V307.393H2701.38V293.569H2585.89V214.369H2714.34V200.545H2570.91V402.145Z" fill="#A2927D"/>
<path fill-rule="evenodd" clip-rule="evenodd" d="M458.48 152.748C458.48 152.748 417.686 193.544 415.519 195.71C410.488 200.741 399.532 213.614 395.997 232.184C393.106 247.373 395.325 259.619 395.325 259.619L459.13 195.815C460.515 194.43 466.516 186.816 467.119 176.16C467.722 165.503 462.688 156.957 458.48 152.748ZM417.171 300.844L459.243 258.772C467.645 250.393 473.478 240.165 477.148 228.909C480.818 217.653 481.413 206.028 479.731 194.506L395.282 278.955L417.171 300.844Z" fill="#848E8F"/>
<path fill-rule="evenodd" clip-rule="evenodd" d="M142.846 449.051C142.846 449.051 183.64 408.255 185.807 406.089C190.838 401.057 201.794 388.185 205.329 369.615C208.22 354.426 206.001 342.179 206.001 342.179L142.197 405.983C140.811 407.369 134.81 414.982 134.207 425.639C133.604 436.296 138.638 444.842 142.846 449.051ZM184.155 300.954L142.083 343.026C133.682 351.405 127.849 361.633 124.179 372.89C120.508 384.146 119.913 395.77 121.595 407.293L206.044 322.844L184.155 300.954Z" fill="#848E8F"/>
<path fill-rule="evenodd" clip-rule="evenodd" d="M152.514 143.084C152.514 143.084 193.309 183.878 195.476 186.044C200.507 191.075 213.38 202.032 231.95 205.566C247.138 208.458 259.385 206.238 259.385 206.238L195.581 142.434C194.196 141.049 186.582 135.048 175.926 134.444C165.269 133.841 156.722 138.875 152.514 143.084ZM300.61 184.392L258.538 142.32C250.159 133.919 239.931 128.086 228.675 124.416C217.419 120.746 205.794 120.151 194.271 121.833L278.72 206.282L300.61 184.392Z" fill="#848E8F"/>
<path fill-rule="evenodd" clip-rule="evenodd" d="M448.812 458.715C448.812 458.715 408.017 417.921 405.85 415.754C400.819 410.723 387.946 399.767 369.376 396.232C354.188 393.341 341.941 395.561 341.941 395.561L405.745 459.365C407.13 460.75 414.744 466.751 425.401 467.354C436.057 467.958 444.604 462.923 448.812 458.715ZM300.716 417.406L342.788 459.479C351.167 467.88 361.395 473.713 372.651 477.383C383.907 481.053 395.532 481.648 407.055 479.966L322.606 395.517L300.716 417.406Z" fill="#848E8F"/>
<path fill-rule="evenodd" clip-rule="evenodd" d="M384.925 226.305C384.925 226.305 377.426 233.804 376.706 245.189C375.987 256.574 380.815 264.486 385.594 269.265C390.373 274.044 458.676 342.347 458.676 342.347C467.058 350.736 473.28 360.89 476.931 372.145C480.582 383.401 481.622 395.627 479.75 407.306L363.028 290.584C357.88 285.436 354.548 277.679 354.499 269.565C354.449 261.45 358.068 253.162 362.771 248.459" fill="#D77C07"/>
<path fill-rule="evenodd" clip-rule="evenodd" d="M216.401 375.494C216.401 375.494 223.9 367.995 224.62 356.61C225.339 345.224 220.512 337.313 215.732 332.534C210.953 327.755 142.65 259.452 142.65 259.452C134.268 251.062 128.046 240.909 124.395 229.653C120.744 218.397 119.704 206.172 121.576 194.492L238.298 311.214C243.446 316.362 246.778 324.119 246.828 332.234C246.877 340.349 243.259 348.636 238.555 353.339" fill="#D77C07"/>
<path fill-rule="evenodd" clip-rule="evenodd" d="M226.071 216.638C226.071 216.638 233.57 224.137 244.955 224.857C256.34 225.577 264.251 220.749 269.031 215.97C273.81 211.191 342.113 142.887 342.113 142.887C350.502 134.505 360.656 128.284 371.911 124.633C383.167 120.981 395.393 119.941 407.072 121.813L290.35 238.535C285.202 243.683 277.445 247.016 269.331 247.065C261.216 247.114 252.928 243.496 248.225 238.793" fill="#D77C07"/>
<path fill-rule="evenodd" clip-rule="evenodd" d="M375.255 385.16C375.255 385.16 367.756 377.661 356.371 376.942C344.986 376.222 337.075 381.05 332.295 385.829C327.516 390.608 259.213 458.911 259.213 458.911C250.824 467.293 240.671 473.515 229.415 477.166C218.159 480.817 205.933 481.857 194.254 479.985L310.976 363.263C316.124 358.115 323.881 354.783 331.995 354.734C340.11 354.684 348.398 358.303 353.101 363.006" fill="#D77C07"/>
<path d="M363.433 354.005L458.477 449.049C462.623 444.904 467.26 438.232 467.641 428.218C468.021 418.204 463.298 410.195 459.084 405.981L342.451 289.348C340.995 298.422 341.21 309.781 344.396 321.359C347.582 332.936 354.085 344.657 363.433 354.005Z" fill="#D77C07"/>
<path d="M237.894 247.794L142.849 152.749C138.703 156.894 134.066 163.566 133.685 173.581C133.305 183.595 138.029 191.604 142.242 195.818L258.875 312.45C260.332 303.376 260.116 292.017 256.93 280.44C253.744 268.862 247.241 257.141 237.894 247.794Z" fill="#D77C07"/>
<path d="M353.771 238.131L448.815 143.086C444.67 138.941 437.998 134.303 427.984 133.923C417.97 133.542 409.961 138.266 405.747 142.48L289.114 259.112C298.188 260.569 309.547 260.353 321.125 257.167C332.702 253.982 344.423 247.478 353.771 238.131Z" fill="#D77C07"/>
<path d="M247.556 363.668L152.511 458.713C156.656 462.858 163.328 467.495 173.342 467.876C183.356 468.256 191.366 463.533 195.579 459.319L312.212 342.686C303.138 341.23 291.779 341.445 280.201 344.631C268.624 347.817 256.903 354.321 247.556 363.668Z" fill="#D77C07"/>
</svg>
