<svg id="Layer_1" data-name="Layer 1" xmlns="http://www.w3.org/2000/svg" viewBox="0 0 797.33117 215.99956"><defs><style>.cls-1{fill:#e65625;}</style></defs><title>foghorn</title><path class="cls-1" d="M369.83869,182.71628c0-18.81864.045-37.63751-.04684-56.45572-.01431-2.93431,1.216-3.69268,3.88843-3.67965q21.99678.10731,43.99414-.00449c2.90915-.01725,3.68429,1.19837,3.63873,3.91262-.12875,7.66352.07046,15.3331-.09509,22.99517-.06583,3.04615.95608,4.12108,4.0119,4.01983,5.65976-.18752,11.33237-.14953,16.99512-.01543,2.72854.06462,3.84826-.81278,3.8392-3.68845q-.1133-35.99514-.00562-71.9908c.00656-2.63859-.64056-4.01219-3.62112-3.93159q-8.74246.23646-17.49533-.00062c-2.86087-.07317-3.76679,1.062-3.71066,3.81751.13229,6.49646-.12537,13.00341.10717,19.49422.11707,3.26828-.97125,4.4691-4.21673,4.4397q-21.49539-.19476-42.99271-.1268c-3.15906.00938-4.46417-1.0607-4.35229-4.379.20758-6.15882-.1363-12.33782.12268-18.49271.16049-3.81469-1.29111-4.95428-4.93473-4.77951a136.814,136.814,0,0,1-15.48977-.01917c-4.201-.27587-5.03766,1.58361-5.02231,5.28273q.15459,37.24475-.02673,74.49015c-.01087,2.17449,1.59832,5.607-1.82956,6.35219-3.47544.75556-5.91812-1.71556-7.49427-4.69415a13.12292,13.12292,0,0,1-1.20794-6.30486c.03738-23.997.00726-47.994.03366-71.991.00714-6.48945,3.18216-10.50213,9.53891-11.33776,19.11725-2.513,38.26428-4.79852,57.39737-7.19162q33.65194-4.20906,67.2998-8.45059,29.9323-3.76746,59.862-7.55543,33.89209-4.28923,67.78259-8.59078,33.64317-4.236,67.29279-8.42042,33.89-4.2749,67.77087-8.62094c16.322-2.07834,32.6344-4.23694,48.97229-6.1817,3.89423-.46355,6.62946,1.8123,8.321,5.21849a14.92925,14.92925,0,0,1,1.12329,6.826q-.03826,85.48884-.00134,170.97768c.001,2.35769-.0235,4.70286-1.10584,6.82741-1.91559,3.76052-4.85992,5.7424-9.28467,5.18262q-50.95065-6.44594-101.907-12.84731c-35.61658-4.52413-71.2179-9.16853-106.83868-13.65936-30.51178-3.84672-61.04322-7.53711-91.56275-11.32277-18.64093-2.31225-37.24032-5.03584-55.928-6.86317-9.57754-.93651-19.30887-.256-28.9685-.428-2.48593-.04425-3.95941,1.224-5.43677,2.92453-5.75839,6.62836-11.58691,13.19575-17.38934,19.78584Zm384.94925-49.13986q-19.94394-28.04984-39.89166-56.097c-1.23468-1.73539-2.21747-3.616-4.93329-3.59265-11.49206.09871-22.98559.07359-34.47827.01981-2.35571-.011-3.21668.96651-3.21289,3.27746q.05932,36.47745-.00092,72.955c-.00366,2.26115.72437,3.35852,3.14423,3.32611q9.24261-.12382,18.48761.01015c2.36993.0381,3.32233-.9783,3.30145-3.23393-.1748-18.88157.839-37.78427-.65338-56.34116,13.13556,18.47353,26.57153,37.28642,39.88031,56.18884a7.05481,7.05481,0,0,0,6.56464,3.42931c10.65765-.16448,21.32037-.15068,31.97882-.01526,3.0166.03833,4.05414-.93074,4.04175-3.99661q-.14484-35.72763.00885-71.45589c.01666-3.37906-1.24945-4.296-4.3913-4.18628-5.32361.186-10.667.234-15.98547-.01462-3.55872-.16636-4.53571,1.18685-4.49128,4.601.16266,12.49026-.02282,24.98477.10065,37.47593C754.315,121.71165,753.41074,127.5714,754.78794,133.57642Zm-245.60718-60.707c-11.81814.00341-21.28247.08513-30.76165.97638-16.86084,1.58532-21.60764,6.31767-23.2154,23.14318a201.16444,201.16444,0,0,0,.078,37.38244c.93927,10.39234,5.63144,16.30842,16.04232,18.0684,18.328,3.09839,36.83121,2.30132,55.2923,1.40944a112.451,112.451,0,0,0,17.77753-2.29375c7.10016-1.49505,11.09723-5.69414,12.42114-12.58a130.7131,130.7131,0,0,0,.23077-49.10478c-1.9699-10.50332-5.30419-13.06619-15.86767-14.98859C529.806,72.81254,518.34123,72.704,509.18076,72.86938ZM651.7595,119.45244c7.78589-4.13509,9.66089-10.33785,10.07117-17.26675.1474-2.48883.09527-4.99278.05792-7.4887-.20422-13.64554-6.95673-20.65486-20.6449-20.76139-23.46911-.18266-46.94079-.02345-70.41076-.13754-3.18219-.01548-4.4347.9052-4.42139,4.22349q.1419,35.45489.012,70.9106c-.0086,3.048.80109,4.638,4.21539,4.52559,5.65345-.18619,11.322-.18706,16.97529.00031,3.3786.112,4.34484-1.37229,4.2257-4.479-.15942-4.15522.25373-8.34668-.11-12.4758-.38239-4.34018,1.38061-5.2749,5.38794-5.17416,10.31384.2593,20.63867.06311,30.959.09737,6.30341.02092,8.71655,2.28164,9.03265,8.58153.16663,3.32129.10682,6.65792.04108,9.98548-.04339,2.19693.62274,3.44973,3.09424,3.42067q9.23694-.10863,18.47589.003c2.35449.02777,3.25476-.9695,3.20874-3.28251-.08612-4.32608-.23663-8.669.03436-12.98011C662.4517,129.39105,660.931,122.82136,651.7595,119.45244Z"/><path d="M272.5145,74.285c10.90143.1696,21.22388.32539,31.47364,1.746,12.19452,1.69013,15.82632,5.43034,17.43292,17.8753,1.29974,10.06827,1.29977,10.06823-8.8707,10.06773-2.66458-.00013-5.32934-.01839-7.99374.00449-3.5929.03083-7.39276.85634-7.47058-4.95851-.034-2.54223-2.69983-3.62642-5.21747-3.762-12.64658-.68115-25.30969-1.034-37.93216.15181-7.11159.66809-8.61884,2.62143-9.456,9.79582a83.14338,83.14338,0,0,0,.118,20.43035c.78565,6.04408,2.56238,7.8932,8.46416,8.53387a205.34424,205.34424,0,0,0,38.901.2413c2.071-.16855,3.91617-.55206,5.00763-2.63684,1.68915-3.2264.79578-4.9427-2.88184-4.98255-6.99365-.07578-13.9945-.19607-20.98083.04158-3.74307.12732-5.25354-.74988-5.21341-4.924.122-12.69135-.06744-12.693,12.719-12.69269,12.15708.00032,24.31623.12568,36.46991-.07721,3.56754-.05955,5.10337.67731,4.84018,4.611-.54388,8.12912.02237,16.31-1.21682,24.42217-1.43082,9.36674-6.37793,14.91748-15.92673,15.74382-22.59006,1.95494-45.22473,2.50021-67.75456-.86685-9.97924-1.4914-13.56917-5.06259-15.28727-14.97965a140.29614,140.29614,0,0,1-.03451-46.71818c1.31854-8.1245,5.553-13.0291,14.07481-14.48454C248.16081,74.7526,260.60829,74.46271,272.5145,74.285Z"/><path d="M157.53848,74.26159c12.30961.29185,24.60386.47645,36.77443,2.836,7.26426,1.40838,11.57606,5.45726,12.93724,12.622a134.91711,134.91711,0,0,1,.06486,50.11246c-1.27388,6.88907-5.20555,11.11256-12.37836,12.55437a131.94746,131.94746,0,0,1-22.27868,2.524c-14.97048.42639-29.94634.56291-44.90615-.73039-14.57723-1.26023-20.13809-6.6705-21.29165-21.11718-1.1026-13.80845-1.19019-27.56315,1.03462-41.307,1.36012-8.4021,5.54208-13.35527,14.24805-14.85179C133.61955,74.86266,145.56263,74.553,157.53848,74.26159Zm-.05373,60.999c6.07645-.36631,12.07074-.5851,18.036-1.12494,6.78517-.614,8.24188-2.20189,9.23582-8.8377a76.86989,76.86989,0,0,0-.089-21.89991c-.61461-4.51195-2.627-7.30886-7.50181-7.77439a208.971,208.971,0,0,0-38.88308-.02589c-5.11383.46473-7.1271,3.475-7.75938,8.13967a84.818,84.818,0,0,0-.05438,21.91022c.65414,5.30475,3.35786,8.11332,8.644,8.46025C145.25826,134.51118,151.40585,134.88065,157.48475,135.26057Z"/><path d="M51.82669,75.4332c12.48861-.00037,24.97818.08361,37.46515-.0595,3.11716-.03573,4.551.65741,4.29685,4.11009A82.09891,82.09891,0,0,0,93.58824,91.463c.25929,3.54372-1.01013,4.4917-4.47637,4.45743-16.64985-.1646-33.304.05967-49.95247-.16414-4.20864-.05658-5.87139.79935-5.65564,5.42389.3792,8.12778.07615,8.14268,8.26942,8.14305,14.6533.00065,29.30757.09007,43.95918-.06738,3.3531-.03605,4.86876.73756,4.596,4.38177a82.70011,82.70011,0,0,0-.00738,11.48112c.22579,3.48868-1.06347,4.61977-4.53556,4.5885-15.48461-.13953-30.97388.102-46.4554-.15709-4.50828-.07544-6.20011,1.087-5.803,5.7725.42038,4.95975-.01129,9.98594.13542,14.977.07624,2.59357-.37866,3.98411-3.47354,3.86511-5.81943-.2238-11.65586-.161-17.48047-.02035-2.45307.0592-3.08537-.88456-3.07939-3.19724.062-23.978.10308-47.95653-.03662-71.93385-.02027-3.47762,1.63339-3.63063,4.26913-3.61452C26.51618,75.47616,39.17156,75.43356,51.82669,75.4332Z"/><path class="cls-1" d="M506.70759,133.076c-6.78763-.35486-13.44428.25872-20.05447-1.05156-3.385-.671-5.426-2.23594-6.00992-5.63618a75.8754,75.8754,0,0,1,.004-25.75348c.586-3.44521,2.5622-5.19479,5.999-5.56647a193.41832,193.41832,0,0,1,40.286-.03355c4.07879.41052,5.71649,2.96852,6.28766,6.55218a74.61181,74.61181,0,0,1,.0144,23.84369c-.62524,3.84848-2.59186,5.9808-6.77783,6.69238C519.8173,133.25157,513.17826,132.66292,506.70759,133.076Z"/><path class="cls-1" d="M607.14677,109.95325c-5.98462-.00464-11.97-.05655-17.95355.02225-2.22986.02937-3.55054-.601-3.27076-3.08741.01844-.164-.00506-.33225-.00183-.49839.26239-13.62849-2.06054-11.01558,10.66522-11.24285,8.80787-.1573,17.62171-.09,26.43146.00274,6.71558.07069,8.34729,1.66468,8.29846,7.6336-.046,5.618-1.75,7.12861-8.21,7.16808C617.78636,109.98378,612.46647,109.9579,607.14677,109.95325Z"/></svg>