<svg id="Layer_1" data-name="Layer 1" xmlns="http://www.w3.org/2000/svg" viewBox="0 0 1287.47821 648"><defs><style>.cls-1{fill:#a2acb4;}.cls-2{fill:#495965;}.cls-3{fill:#fff200;}</style></defs><title>forgerock</title><polygon class="cls-1" points="689.169 47.618 568.08 260.418 607.331 329.789 728.118 116.37 689.169 47.618"/><polygon class="cls-2" points="748.844 152.798 628.075 366.001 659.343 421.938 718.692 421.938 809.97 261.181 810.087 260.98 748.844 152.798"/><polygon class="cls-3" points="552.304 50.657 443.127 243.169 537.785 243.096 669.018 12.195 552.304 50.657"/><polygon class="cls-1" points="618.247 421.938 537.169 279.113 442.66 278.983 523.563 421.938 618.247 421.938"/><path class="cls-2" d="M11.26119,503.16318H114.28268v26.99706H42.57814v25.48617h60.694v24.623h-60.694V632.753H11.26119Z"/><path class="cls-2" d="M121.87454,567.95792c0-37.15009,26.13066-67.6036,69.11448-67.6036,43.40966,0,69.55181,30.45351,69.55181,67.6036,0,37.15039-26.14215,67.60389-69.55181,67.60389C148.0052,635.56181,121.87454,605.10831,121.87454,567.95792Zm106.26192,0c0-22.46439-16.19658-37.36875-37.14744-37.36875-20.51913,0-36.71571,14.90436-36.71571,37.36875,0,22.46174,16.19658,37.3661,36.71571,37.3661C211.93988,605.324,228.13646,590.41966,228.13646,567.95792Z"/><path class="cls-2" d="M282.33215,503.16318h61.12567c32.8246,0,53.77545,16.847,53.77545,45.13921,0,18.14479-8.20187,31.10094-21.59534,38.661v2.80871l29.15833,40.82255V632.753H369.15705l-25.48646-37.79782H313.64881V632.753H282.33215Zm59.8249,26.99706H313.64881v38.87994h28.7269c14.46969,0,22.46439-6.48382,22.46439-19.44C364.8401,537.07284,356.63263,530.16024,342.15705,530.16024Z"/><path class="cls-2" d="M482.02067,555.64656h65.22956v14.47c0,37.80048-20.51913,65.44527-61.98912,65.44527-43.19659,0-69.33315-30.4535-69.33315-67.60389,0-37.15009,26.13656-67.6036,69.33315-67.6036,34.34433,0,48.81431,16.19659,48.81431,16.19659l-18.57387,23.75957a52.60268,52.60268,0,0,0-30.67216-9.93438c-20.95086,0-36.50266,15.11743-36.50266,37.58182,0,22.46174,15.5518,37.58211,36.50266,37.58211,18.57386,0,28.29517-11.2322,28.7269-23.97558v-1.29487H482.02067Z"/><path class="cls-2" d="M658.7842,580.26943H601.76241V605.753H673.467v27H570.43986V503.16318H673.467v26.99706H601.76241v25.48617H658.7842Z"/><path class="cls-2" d="M699.02827,503.16318h61.12567c32.83049,0,53.78135,16.847,53.78135,45.13921,0,18.14479-8.20777,31.10094-21.60125,38.661v2.80871l29.15834,40.82255V632.753H785.85877L760.3726,594.95513H730.35082V632.753H699.02827Zm59.83049,26.99706H730.35082v38.87994h28.721c14.47558,0,22.46439-6.48382,22.46439-19.44C781.53622,537.07284,773.32875,530.16024,758.85876,530.16024Z"/><path class="cls-2" d="M831.23667,567.95792c0-37.15009,26.13685-67.6036,69.11478-67.6036,43.41525,0,69.55181,30.45351,69.55181,67.6036,0,37.15039-26.13656,67.60389-69.55181,67.60389C857.37352,635.56181,831.23667,605.10831,831.23667,567.95792Zm106.26782,0c0-22.46439-16.20248-37.36875-37.153-37.36875-20.51913,0-36.71572,14.90436-36.71572,37.36875,0,22.46174,16.19659,37.3661,36.71572,37.3661C921.302,605.324,937.50449,590.41966,937.50449,567.95792Z"/><path class="cls-2" d="M1102.59555,619.797s-14.47,15.76486-46.21837,15.76486c-43.41525,0-69.5521-30.4535-69.5521-67.60389,0-37.15009,26.13685-67.6036,69.5521-67.6036,31.96145,0,46.21837,15.76486,46.21837,15.76486l-17.92348,23.97823s-13.39348-9.72131-27.86316-9.72131c-22.033,0-37.58477,15.11743-37.58477,37.58182,0,22.46174,15.5518,37.58211,37.58477,37.58211,18.36051,0,27.86316-9.7216,27.86316-9.7216Z"/><path class="cls-2" d="M1150.34484,558.88685l52.9123-55.72367h38.22926V505.969l-49.89024,52.9179,49.89024,70.84433V632.753h-38.0106c-11.44821-16.847-22.4588-33.91-33.69394-50.97263l-19.437,20.73484V632.753h-31.32255V503.16318h31.32255Z"/><path class="cls-2" d="M1263.29825,501.24426a10.56011,10.56011,0,0,1,5.1161,1.33316,9.63123,9.63123,0,0,1,3.85062,3.82355,10.39143,10.39143,0,0,1,.02707,10.37432,9.77245,9.77245,0,0,1-3.83032,3.83031,10.39065,10.39065,0,0,1-10.327,0,9.77236,9.77236,0,0,1-3.83031-3.83031,10.39136,10.39136,0,0,1,.02707-10.37432,9.6312,9.6312,0,0,1,3.85061-3.82355A10.56012,10.56012,0,0,1,1263.29825,501.24426Zm.01353,2.0302a8.45661,8.45661,0,0,0-4.101,1.06924,7.7623,7.7623,0,0,0-3.09268,3.07237,8.36548,8.36548,0,0,0-.02707,8.35089,7.88015,7.88015,0,0,0,3.07914,3.0859,8.29515,8.29515,0,0,0,8.29,0,7.9396,7.9396,0,0,0,3.07914-3.0859,8.3434,8.3434,0,0,0-.02031-8.35089,7.75034,7.75034,0,0,0-3.09944-3.07237A8.49491,8.49491,0,0,0,1263.31178,503.27446Zm-4.69653,13.88657V506.15734h2.23322q3.14,0,3.519.02707a4.3358,4.3358,0,0,1,1.72567.43988,2.75851,2.75851,0,0,1,1.02863,1.0557,3.08165,3.08165,0,0,1,.41281,1.57679,2.90247,2.90247,0,0,1-.77824,2.037,3.54506,3.54506,0,0,1-2.18585,1.04894,2.75216,2.75216,0,0,1,.77147.4128,5.50542,5.50542,0,0,1,.74441.84592q.12181.16242.81208,1.33993l1.29933,2.21969h-2.76108l-.92035-1.78658a7.44671,7.44671,0,0,0-1.543-2.26705,2.46257,2.46257,0,0,0-1.543-.46695h-.582V517.161Zm2.23322-6.253h.90682a11.02786,11.02786,0,0,0,2.40241-.14888,1.4107,1.4107,0,0,0,1.00833-1.367,1.346,1.346,0,0,0-.26392-.81885,1.44588,1.44588,0,0,0-.75118-.51432,10.68048,10.68048,0,0,0-2.39564-.15565h-.90682Z"/></svg>