<svg xmlns="http://www.w3.org/2000/svg" role="img" xmlns:xlink="http://www.w3.org/1999/xlink" viewBox="34.37 44.87 630.76 529.76"><defs><linearGradient id="a" x1="342.83" x2="342.84" y1="430.38" y2="204.34" data-name="GradientFill 1" gradientUnits="userSpaceOnUse"><stop offset="0" stop-color="#93979d"/><stop offset="1" stop-color="#fff"/></linearGradient><linearGradient id="f" x1="357.11" x2="357.12" y1="189.79" y2="430.4" xlink:href="#a"/><linearGradient id="g" x1="350.26" x2="350.27" y1="151.33" y2="56.86" xlink:href="#a"/><linearGradient id="h" x1="350.26" x2="350.27" y1="86.78" y2="180.23" xlink:href="#a"/><linearGradient id="b" x1="472.86" x2="550.72" y1="362.8" y2="284.94" gradientUnits="userSpaceOnUse"><stop offset="0" stop-color="#b7b7b7"/><stop offset=".13" stop-color="#595959"/><stop offset=".17" stop-color="#686868"/><stop offset=".24" stop-color="#909090"/><stop offset=".31" stop-color="#c3c3c3"/><stop offset=".39" stop-color="#bbb"/><stop offset=".46" stop-color="#929292"/><stop offset=".55" stop-color="#5c5c5c"/><stop offset=".78" stop-color="#868686"/><stop offset="1" stop-color="#adadad"/></linearGradient><linearGradient id="i" x1="454.03" x2="569.67" y1="319.1" y2="319.1" xlink:href="#a"/><linearGradient id="j" x1="483.52" x2="540.19" y1="319.1" y2="319.1" xlink:href="#a"/><linearGradient id="k" x1="407.91" x2="449.56" y1="404.87" y2="363.21" xlink:href="#b"/><linearGradient id="m" x1="397.97" x2="459.58" y1="381.49" y2="381.49" xlink:href="#a"/><linearGradient id="n" x1="413.61" x2="443.93" y1="381.49" y2="381.49" xlink:href="#a"/><radialGradient id="c" cx="445.78" cy="280.73" r="129.16" gradientTransform="matrix(.99 0 0 1.01 27.52 -10.8)" gradientUnits="userSpaceOnUse"><stop offset="0" stop-color="#f2f2f2"/><stop offset=".22" stop-color="#dbdbdb"/><stop offset=".31" stop-color="#bababa"/><stop offset=".45" stop-color="#8f8f8f"/><stop offset=".51" stop-color="#c5c5c5"/><stop offset=".57" stop-color="#eee"/><stop offset=".6" stop-color="#ccc"/><stop offset=".67" stop-color="#8b8b8b"/><stop offset=".72" stop-color="#636363"/><stop offset=".75" stop-color="#545454"/><stop offset=".89" stop-color="#e0e0e0"/><stop offset="1" stop-color="#eaeaea"/></radialGradient><radialGradient id="l" cx="382.15" cy="362.82" r="69.1" xlink:href="#c"/><radialGradient id="d" cx="512.65" cy="318.96" r="44.15" gradientTransform="translate(.5 1.58)" gradientUnits="userSpaceOnUse"><stop offset=".77" stop-color="#ffd300"/><stop offset="1" stop-color="#ffa900"/></radialGradient><radialGradient id="e" cx="512.98" cy="319.94" r="45.33" gradientTransform="translate(.5 1.58)" gradientUnits="userSpaceOnUse"><stop offset=".67" stop-color="#2b2b2b"/><stop offset=".77" stop-color="#9c9c9c"/><stop offset=".78" stop-color="silver"/><stop offset=".8" stop-color="#e1e1e1"/><stop offset=".82" stop-color="#f5f5f5"/><stop offset=".83" stop-color="#fcfcfc"/><stop offset=".92" stop-color="#fcfcfc"/><stop offset=".94" stop-color="#f9f9f9"/><stop offset=".95" stop-color="#f1f0ef"/><stop offset=".96" stop-color="#e2e2de"/><stop offset=".97" stop-color="#cecdc6"/><stop offset=".98" stop-color="#b3b2a7"/><stop offset=".99" stop-color="#939182"/><stop offset="1" stop-color="#73715d"/></radialGradient><radialGradient id="o" cx="428.77" cy="379.77" r="23.82" xlink:href="#d"/><radialGradient id="p" cx="428.95" cy="380.3" r="24.46" xlink:href="#e"/></defs><g data-name="Layer 1"><g fill-rule="evenodd"><path fill="url(#a)" d="M272.11 223.93c-28.77-28.78-63.3-39.06-95.94-35.93a130.36 130.36 0 0 0-101.55 68.39C59.48 285.45 56 321.27 71.88 358.73c.08.22.15.33.74 1.68a123.48 123.48 0 0 0 67.16 64.67c28.86 11.6 61.8 12.4 91.57-.2 52.7-22.34 91.27-72.8 123.87-117.9 43.6-60.3 88.48-117.47 155.45-117.47 42.41 0 73.81 17 96.05 43.27a134.36 134.36 0 0 1 26.36 126.92c-10.23 32.89-33.64 58.77-72.71 75.3a131.05 131.05 0 0 1-50.59 10.24l-167.26-.47v-14.83l167.26.48a116.45 116.45 0 0 0 23-2.26 114.08 114.08 0 0 0 21.91-6.77c34.61-14.65 54.67-36.94 63.69-65.94a121.73 121.73 0 0 0-22.9-113.11c-19.57-23.14-47.13-38-84.76-38-59.3 0-102.15 54.18-143.47 111.34-34.65 47.92-74.05 99.1-130.1 122.84-33.51 14.17-70.5 13.29-102.83.28a138.13 138.13 0 0 1-75.19-72.41c-.07-.15-.21-.5-.81-1.93-17.76-42-13.83-82.2 3.2-114.9a145.46 145.46 0 0 1 113.32-76.28c36.79-3.51 75.6 8 107.79 40.17z"/><path fill="url(#f)" d="M261.86 234c-25.42-25.46-55.92-34.53-84.77-31.78a115.33 115.33 0 0 0-89.77 60.46c-13.38 25.64-16.41 57.32-2.41 90.39a107.39 107.39 0 0 0 59 57.77 110.24 110.24 0 0 0 83.51 0c49.31-20.36 81-64.29 113.1-108.72 32.52-45 65.39-90.55 117.75-115A130.65 130.65 0 0 1 503.85 175c28.8-2.17 56.66 5.65 80.36 20.61a149.15 149.15 0 0 1 55.24 62.92 146.89 146.89 0 0 1 13.48 51.27c.12 1.39.2 3.05.28 5 1.45 37.7-12.93 72.44-37 98.46-29.13 31.5-58.57 41.66-100 46.28H342.52v-14.77h173.75a129.09 129.09 0 0 0 89.11-41.51c21.49-23.26 34.37-54.26 33.07-87.91-.05-1.17-.13-2.63-.26-4.43a132.9 132.9 0 0 0-12.1-46.1 134.47 134.47 0 0 0-49.75-56.67c-21.12-13.31-45.84-20.28-71.37-18.36a116.51 116.51 0 0 0-40.47 10.75c-48.88 22.8-80.61 66.76-112 110.23-33.32 46.13-66.29 91.77-119.5 113.76a125.13 125.13 0 0 1-94.7.05 122.24 122.24 0 0 1-67-65.78c-15.9-37.61-12.39-73.68 2.88-103a130.22 130.22 0 0 1 101.54-68.34c33-3.16 67.78 7.12 96.63 36z"/><path fill="url(#g)" d="M485.21 193.07A177.29 177.29 0 0 0 474 154.36a134.65 134.65 0 0 0-28.91-42.84A136.11 136.11 0 0 0 425 95a134.27 134.27 0 0 0-22.78-12.37 132.93 132.93 0 0 0-25.67-7.93 137.5 137.5 0 0 0-53.73 0 133 133 0 0 0-25.65 7.93 134.41 134.41 0 0 0-42.85 28.94 133 133 0 0 0-16.56 20 136.73 136.73 0 0 0-12.39 22.79 135.16 135.16 0 0 0-4.68 13.54c-1.69 5.77-4.4 17.79-5.37 22.47l-11.4-16.67c4.53-18 10.17-33.49 21.55-50.42a150.13 150.13 0 0 1 40.61-40.61 149.71 149.71 0 0 1 167.21 0A152.86 152.86 0 0 1 455.57 101a149.42 149.42 0 0 1 32.05 47.63 168.65 168.65 0 0 1 6.72 18.5c.92 3.15 1.52 5.46 2.24 8.65z"/><path fill="url(#h)" d="M468.06 183c-1.12-4.63-2.3-9-3.85-13.53-10.58-31.12-30.76-53.48-55-67a125.32 125.32 0 0 0-60.87-15.7 121.69 121.69 0 0 0-60.27 15.57c-22.57 12.85-41.2 33.76-51.17 62.74a155.07 155.07 0 0 0-4.34 15.7l-17.26 9.6a263.71 263.71 0 0 1 7.12-28.43c11-33.52 32.37-57.65 58.38-72.46A136.38 136.38 0 0 1 348.34 72a140.13 140.13 0 0 1 68 17.54c30.1 16.81 54.59 45.56 65.1 86.18.23.86 3.57 16.48 3.79 17.34z"/></g><path fill="#666" d="M511.85 292.69c-14.22 0-25.75 11.82-25.75 26.41 0 14.16 10.88 25.73 24.54 26.38-12.46-.65-22.37-11.22-22.37-24.16 0-13.36 10.56-24.19 23.58-24.19s23.58 10.83 23.58 24.19c0 12.94-9.9 23.51-22.36 24.16 13.65-.65 24.52-12.22 24.52-26.38 0-14.59-11.51-26.41-25.74-26.41z"/><path fill="url(#b)" d="M563.25 312.87l6.7-8.69s-11.1-3.32-12.34-5.51l-9.21.35a45.47 45.47 0 0 0-9.76-10.14l.47-9.44a52.53 52.53 0 0 0-13.77-5.95l-6.27 6.95a43.41 43.41 0 0 0-13.89-.09l-6.18-7a51.1 51.1 0 0 0-13.85 5.79l.36 9.45a45.56 45.56 0 0 0-9.88 10l-21.7 4.87 6.69 8.77 6.77 6.42a47.19 47.19 0 0 0-.08 14.24l-6.84 6.35c.6 2.44-.33 10.8-.33 10.8l6 3.39 9.21-.36a45.6 45.6 0 0 0 9.75 10.13l11.55 15.29 1.76.11 6.27-6.94a43.71 43.71 0 0 0 13.89.08l6.18 7 1.68-.09s10-4.42 12.17-5.69l-.35-9.45a45.35 45.35 0 0 0 9.88-10l9.21.48 5.93-3.32-6.9-17.24a46.93 46.93 0 0 0 .07-14.25zm-51.4 32.64c-14.22 0-25.75-11.83-25.75-26.41s11.53-26.41 25.75-26.41 25.74 11.82 25.74 26.41-11.51 26.41-25.74 26.41z"/><path fill="url(#c)" d="M562.13 327.46a53 53 0 0 0 .08-16.11l7.73-7.16a63.22 63.22 0 0 0-2.62-8.26 61.52 61.52 0 0 0-3.76-7.79l-10.4.4a51.16 51.16 0 0 0-11-11.46l.52-10.68a59.48 59.48 0 0 0-15.56-6.73l-7.12 7.86a49.2 49.2 0 0 0-15.7-.09l-7-7.93a59.53 59.53 0 0 0-8.06 2.69 58.71 58.71 0 0 0-7.59 3.85l.4 10.68a51.46 51.46 0 0 0-11.17 11.32l-10.41-.55a63.09 63.09 0 0 0-6.56 16l7.65 7.26a53.61 53.61 0 0 0-.08 16.1l-7.72 7.14a61.22 61.22 0 0 0 6.37 16.05l10.41-.41a51.59 51.59 0 0 0 11 11.46l-.52 10.68a59.31 59.31 0 0 0 15.56 6.72l7.09-7.85a49.49 49.49 0 0 0 15.7.1l7 7.93a59.42 59.42 0 0 0 15.65-6.53l-.4-10.69a51.19 51.19 0 0 0 11.16-11.32l10.42.54a63.16 63.16 0 0 0 6.56-16l-7.65-7.27zm-50.28 18.05c-14.22 0-25.75-11.83-25.75-26.41s11.53-26.41 25.75-26.41 25.74 11.82 25.74 26.41-11.51 26.41-25.74 26.41z"/><path fill="url(#i)" d="M519.51 370.5h-.14a50.18 50.18 0 0 1-7.54.58 48.6 48.6 0 0 1-8.08-.68h-.13l-7.08 7.84a59.23 59.23 0 0 1-15.23-6.57l.53-10.67-.11-.08a51.29 51.29 0 0 1-11-11.41l-.13-.18-.15.08-10.2.41a61.73 61.73 0 0 1-3.65-7.63 63.1 63.1 0 0 1-2.59-8.08l7.72-7.17v-.14a52.79 52.79 0 0 1 .08-16v-.11l-.07-.12-7.55-7.16a62.62 62.62 0 0 1 6.42-15.63l10.4.55.08-.12a51.15 51.15 0 0 1 11.11-11.26l.1-.07v-.13l-.4-10.55a59 59 0 0 1 7.44-3.76 61.08 61.08 0 0 1 7.87-2.64l6.89 7.81.08.18.15-.09a50.28 50.28 0 0 1 7.54-.58 48.6 48.6 0 0 1 8.08.68h.14l7.07-7.84a59.22 59.22 0 0 1 15.22 6.57l-.52 10.67.11.08a51 51 0 0 1 11 11.4l.13.19.16-.09 10.19-.4a60.29 60.29 0 0 1 6.24 15.72l-7.62 7.06-.14.09.05.14a52.53 52.53 0 0 1-.08 16l-.1.66.35-.3 7.38 7a62.86 62.86 0 0 1-6.42 15.63l-10.4-.53-.08.11a50.94 50.94 0 0 1-11.11 11.26l-.21.16.12.14.38 10.46a59 59 0 0 1-15.31 6.39zm-7.66-78.06c-14.33 0-26 12-26 26.66s11.67 26.66 26 26.66 26-12 26-26.66-11.67-26.66-26-26.66z"/><path fill="#b3b3b3" d="M497.14 260.06l6.73 7.64.13.29.38-.06a48.67 48.67 0 0 1 15.54.09l.27.05.18-.21 6.88-7.62a59.07 59.07 0 0 1 14.89 6.43l-.51 10.38v.27l.21.15a50.83 50.83 0 0 1 10.93 11.36l.28.38.29-.18 10-.39a62.72 62.72 0 0 1 3.58 7.46 60.94 60.94 0 0 1 2.52 7.91l-7.47 6.93-.25.15.05.33a52.71 52.71 0 0 1-.09 16l-.2 1.33.69-.59 7.11 6.76a62.82 62.82 0 0 1-6.28 15.3l-10.11-.53h-.27l-.16.22a50.7 50.7 0 0 1-11.06 11.21l-.41.31.22.28.38 10.23a61.11 61.11 0 0 1-7.28 3.65 60.33 60.33 0 0 1-7.69 2.6l-6.79-7.71-.18-.2h-.27a48.67 48.67 0 0 1-15.54-.09l-.27-.05-.18.2-6.93 7.66a59.38 59.38 0 0 1-14.89-6.43l.51-10.39v-.26l-.21-.16A51 51 0 0 1 471 349.37l-.28-.38-.29.18-10 .39a61.11 61.11 0 0 1-3.56-7.46 62.54 62.54 0 0 1-2.54-7.91l7.5-7 .22-.18v-.28a52.33 52.33 0 0 1 .08-15.95v-.3l-.15-.15-7.44-7.06a62.11 62.11 0 0 1 6.22-15.27l10.11.53h.27l.16-.22a51.14 51.14 0 0 1 11.06-11.21l.21-.16v-.27l-.39-10.38a57.72 57.72 0 0 1 7.28-3.67 59.34 59.34 0 0 1 7.69-2.59m14.7 85.97c14.47 0 26.24-12.07 26.24-26.91s-11.77-26.91-26.24-26.91-26.25 12.08-26.25 26.92 11.78 26.9 26.25 26.9m-14.54-86.5a59.53 59.53 0 0 0-8.06 2.69 58.71 58.71 0 0 0-7.59 3.85l.4 10.68a51.46 51.46 0 0 0-11.17 11.32l-10.41-.55a63.09 63.09 0 0 0-6.56 16l7.65 7.26a53.61 53.61 0 0 0-.08 16.1l-7.73 7.15a61.22 61.22 0 0 0 6.37 16.05l10.41-.41a51.59 51.59 0 0 0 11 11.46l-.52 10.68a59.31 59.31 0 0 0 15.56 6.72l7.09-7.85a48.89 48.89 0 0 0 8.12.68 51 51 0 0 0 7.58-.58l7 7.93a59.42 59.42 0 0 0 15.65-6.53l-.4-10.69a51.19 51.19 0 0 0 11.16-11.32l10.42.54a63.16 63.16 0 0 0 6.56-16l-7.65-7.27a53 53 0 0 0 .08-16.11l7.73-7.16a63.22 63.22 0 0 0-2.62-8.26 61.52 61.52 0 0 0-3.76-7.79l-10.4.4a51.16 51.16 0 0 0-11-11.46l.52-10.68a59.48 59.48 0 0 0-15.56-6.73l-7.1 7.91a48.9 48.9 0 0 0-15.7-.09l-7-7.93zm14.54 86c-14.22 0-25.75-11.83-25.75-26.41s11.53-26.41 25.75-26.41 25.74 11.82 25.74 26.41-11.51 26.41-25.74 26.41z"/><path fill="url(#j)" d="M511.85 290c-15.64 0-28.33 13-28.33 29.07s12.69 29.07 28.33 29.07 28.34-13 28.34-29.07S527.5 290 511.85 290zm0 55.48c-14.22 0-25.75-11.83-25.75-26.41s11.53-26.41 25.75-26.41 25.74 11.82 25.74 26.41-11.51 26.44-25.74 26.44z"/><path fill="#666" d="M428.77 367.36a14.14 14.14 0 0 0-.65 28.24 12.62 12.62 0 1 1 1.3 0 14.14 14.14 0 0 0-.65-28.24z"/><path fill="url(#k)" d="M456.27 378.15l3.59-4.64s-5.94-1.78-6.61-2.95l-4.92.19a24 24 0 0 0-5.22-5.42l.25-5.06a28.15 28.15 0 0 0-7.37-3.18l-3.35 3.72a23.43 23.43 0 0 0-7.43-.05l-3.32-3.76a27.53 27.53 0 0 0-7.41 3.09l.2 5.06a24.22 24.22 0 0 0-5.29 5.36l-11.61 2.61 3.58 4.69 3.62 3.43a25 25 0 0 0 0 7.62l-3.66 3.4c.32 1.31-.18 5.78-.18 5.78l3.19 1.81 4.93-.19a24.23 24.23 0 0 0 5.22 5.42l6.17 8.18.95.05 3.35-3.71a23.43 23.43 0 0 0 7.43.05l3.31 3.75.9-.05s5.36-2.36 6.51-3l-.19-5.06a24.44 24.44 0 0 0 5.29-5.36l4.93.26 3.17-1.78-3.69-9.22a25.27 25.27 0 0 0 0-7.62zm-27.5 17.47a14.13 14.13 0 1 1 13.78-14.13 14 14 0 0 1-13.78 14.13z"/><path fill="url(#l)" d="M455.67 386a28.62 28.62 0 0 0 .05-8.62l4.14-3.83a33.85 33.85 0 0 0-1.41-4.42 30.84 30.84 0 0 0-2-4.17l-5.56.21A27.3 27.3 0 0 0 445 359l.28-5.72a31.86 31.86 0 0 0-8.33-3.59l-3.79 4.2a26.29 26.29 0 0 0-8.4 0L421 349.6a30.95 30.95 0 0 0-8.37 3.5l.22 5.72a27.27 27.27 0 0 0-6 6.06l-5.57-.3a33.42 33.42 0 0 0-3.51 8.55l4.09 3.88a28.55 28.55 0 0 0 0 8.61l-4.14 3.84a34.84 34.84 0 0 0 1.41 4.42 34.07 34.07 0 0 0 2 4.17l5.57-.22a27.73 27.73 0 0 0 5.9 6.13l-.28 5.71a32.16 32.16 0 0 0 8.32 3.6l3.8-4.2a26.58 26.58 0 0 0 8.4.05l3.74 4.24a31.92 31.92 0 0 0 4.3-1.44 33 33 0 0 0 4.07-2.05l-.21-5.72a27.71 27.71 0 0 0 6-6.06l5.57.29a34 34 0 0 0 3.51-8.55l-4.14-3.83zm-26.9 9.66a14.13 14.13 0 1 1 13.78-14.13 14 14 0 0 1-13.78 14.09z"/><path fill="url(#m)" d="M432.91 408.86h-.13a26 26 0 0 1-8.32-.05h-.14l-3.78 4.19a31.92 31.92 0 0 1-8-3.45l.27-5.7-.1-.08a27.46 27.46 0 0 1-5.85-6.08l-.13-.18-.15.08-5.36.21a35.55 35.55 0 0 1-1.91-4 33.53 33.53 0 0 1-1.36-4.25l4.12-3.82v-.14a28 28 0 0 1 0-8.53V377l-.07-.12-4-3.78a33.48 33.48 0 0 1 3.37-8.21l5.55.29.08-.11a27.62 27.62 0 0 1 5.92-6l.11-.07v-.13l-.21-5.58a31 31 0 0 1 3.9-2 32.29 32.29 0 0 1 4.13-1.39l3.63 4.13.08.17.15-.09a27.1 27.1 0 0 1 4-.3 26.82 26.82 0 0 1 4.3.35h.14L437 350a31.66 31.66 0 0 1 8 3.45l-.28 5.69.11.08a27.46 27.46 0 0 1 5.85 6.08l.14.2.15-.1 5.34-.21a33.3 33.3 0 0 1 1.92 4 33.9 33.9 0 0 1 1.36 4.24l-4 3.73-.14.09.06.14a28.11 28.11 0 0 1-.05 8.54l-.1.64.34-.27 3.83 3.63a33.64 33.64 0 0 1-3.37 8.21l-5.56-.29-.08.11a27 27 0 0 1-5.91 6l-.2.14.1.14.2 5.5a33.08 33.08 0 0 1-3.9 2 32.28 32.28 0 0 1-4.13 1.39zm-4.14-41.75a14.38 14.38 0 1 0 14 14.38 14.22 14.22 0 0 0-14-14.38z"/><path fill="#b3b3b3" d="M420.82 350.16l3.49 4 .13.28.37-.06a26.56 26.56 0 0 1 4-.3 25.33 25.33 0 0 1 4.26.35l.27.05.18-.21 3.59-4a31.2 31.2 0 0 1 7.65 3.31l-.27 5.41v.26l.21.16a27.13 27.13 0 0 1 5.79 6l.28.39.29-.18 5.13-.2a33.52 33.52 0 0 1 1.83 3.84 32.85 32.85 0 0 1 1.31 4.07l-3.88 3.6-.25.14.05.34a27.9 27.9 0 0 1 0 8.46l-.21 1.34.69-.59 3.55 3.37a33.36 33.36 0 0 1-3.23 7.87l-5.27-.27h-.27l-.16.22a26.85 26.85 0 0 1-5.86 5.94l-.42.32.22.27.2 5.26a31.94 31.94 0 0 1-3.75 1.87 30.89 30.89 0 0 1-3.94 1.34l-3.54-4-.18-.21h-.27a25.54 25.54 0 0 1-8.24-.05h-.27l-.18.2-3.59 4a31.22 31.22 0 0 1-7.65-3.3l.27-5.42v-.26l-.21-.16a27.13 27.13 0 0 1-5.79-6l-.28-.39-.29.18-5.13.21a32.12 32.12 0 0 1-1.83-3.85 32.69 32.69 0 0 1-1.31-4.06l3.9-3.63.22-.18v-.27a27.9 27.9 0 0 1 0-8.46v-.3l-.15-.15-3.94-3.71a33 33 0 0 1 3.23-7.87l5.27.27h.27l.16-.22a26.68 26.68 0 0 1 5.86-5.95l.22-.16v-.26l-.21-5.42a30.54 30.54 0 0 1 3.75-1.88 32.57 32.57 0 0 1 3.94-1.34m7.95 46a14.63 14.63 0 1 0-14.27-14.63 14.48 14.48 0 0 0 14.27 14.63M421 349.6a30.95 30.95 0 0 0-8.37 3.5l.22 5.72a27.27 27.27 0 0 0-6 6.06l-5.57-.3a33.42 33.42 0 0 0-3.51 8.55l4.09 3.88a28.55 28.55 0 0 0 0 8.61l-4.14 3.84a34.84 34.84 0 0 0 1.41 4.42 34.07 34.07 0 0 0 2 4.17l5.57-.22a27.73 27.73 0 0 0 5.9 6.13l-.28 5.71a32.16 32.16 0 0 0 8.32 3.6l3.8-4.2a26.21 26.21 0 0 0 4.34.36 26.53 26.53 0 0 0 4.06-.31l3.74 4.24a31.92 31.92 0 0 0 4.3-1.44 33 33 0 0 0 4.07-2.05l-.21-5.72a27.71 27.71 0 0 0 6-6.06l5.57.29a34 34 0 0 0 3.51-8.55l-4.14-3.83a28.3 28.3 0 0 0 0-8.62l4.14-3.83a33.85 33.85 0 0 0-1.41-4.42 30.84 30.84 0 0 0-2-4.17l-5.56.21A27.3 27.3 0 0 0 445 359l.28-5.72a31.86 31.86 0 0 0-8.33-3.59l-3.79 4.2a26.21 26.21 0 0 0-4.34-.36 26.53 26.53 0 0 0-4.06.31L421 349.6zm7.78 46a14.13 14.13 0 1 1 13.78-14.13 14 14 0 0 1-13.78 14.13z"/><path fill="url(#n)" d="M428.77 365.93a15.56 15.56 0 1 0 15.16 15.56 15.37 15.37 0 0 0-15.16-15.56zm0 29.69a14.13 14.13 0 1 1 13.78-14.13 14 14 0 0 1-13.78 14.13z"/><path fill="url(#d)" d="M512.39 276a44.08 44.08 0 1 0 44.08 44.09A44.08 44.08 0 0 0 512.39 276zm0 78.35a34.27 34.27 0 1 1 34.26-34.26 34.26 34.26 0 0 1-34.26 34.24z"/><path d="M512.39 276a44.08 44.08 0 1 0 44.08 44.09A44.08 44.08 0 0 0 512.39 276zm0 78.35a34.27 34.27 0 1 1 34.26-34.26 34.26 34.26 0 0 1-34.26 34.24z" style="mix-blend-mode:multiply" fill="url(#e)"/><path fill="url(#o)" d="M428.64 357a23.79 23.79 0 1 0 23.79 23.79A23.79 23.79 0 0 0 428.64 357zm0 42.28a18.5 18.5 0 1 1 18.49-18.49 18.49 18.49 0 0 1-18.49 18.48z"/><path d="M428.64 357a23.79 23.79 0 1 0 23.79 23.79A23.79 23.79 0 0 0 428.64 357zm0 42.28a18.5 18.5 0 1 1 18.49-18.49 18.49 18.49 0 0 1-18.49 18.48z" style="mix-blend-mode:multiply" fill="url(#p)"/><g fill="#ffa900"><path d="M54.16 508.54v20.88h32.6v6.63h-32.6v26.05h-6.81V502h43.4v6.54zm72.84-7.26q13.44 0 22.06 9 8.44 8.72 8.45 21.78T149 553.84q-8.62 9-22.06 9t-22.06-9q-8.44-8.72-8.44-21.79t8.44-21.78q8.66-9 22.12-8.99zm0 54.92q10.71 0 17.34-7 6.36-6.72 6.36-17.16t-6.36-17.15q-6.62-7-17.34-7t-17.34 7q-6.34 6.72-6.35 17.15t6.35 17.16q6.6 7 17.34 7zm91.76-54.2v34.23q0 12-7.13 19.29t-18.47 7.31q-11.26 0-18.39-7.31t-7.12-19.29V502h6.8v34.41q0 9.72 5.81 15.16 5 4.63 12.9 4.63t13-4.63q5.81-5.36 5.81-15.16V502zm65.82 0v60.1h-7.9l-37.13-50.75v50.75h-6.81V502h7.9l37.13 50.57V502zm40.03 0a27 27 0 0 1 10.39 2.05 25.88 25.88 0 0 1 8.81 5.94q8.44 8.63 8.44 22.06t-8.44 22.06a25.77 25.77 0 0 1-8.81 5.95 27.12 27.12 0 0 1-10.35 2h-25.37V502zm-.27 53.66a19.11 19.11 0 0 0 15.34-7q5.73-6.72 5.72-16.62t-5.72-16.61a19.11 19.11 0 0 0-15.34-7h-18.25v47.21zM370 562.1h-6.8V502H392q9.16 0 14.7 5.09t5.54 13.71q0 11.25-9.35 15.34a25.69 25.69 0 0 1-5.17 1.72l15.79 24.24h-8.08L390.89 539H370zm0-29.5h20.8q9.61 0 13.25-6a12.66 12.66 0 0 0-2.54-14.85q-3.9-3.31-10.35-3.31H370zm60.74 29.5h-6.81V502h6.81zm21.52-53.56v20.16h33.41v6.62h-33.41v20.25h37.4v6.53h-44.21V502h44.21v6.54zm54.56 2.68a7.53 7.53 0 0 0-2.32 3.31 12.52 12.52 0 0 0-.59 3.86 5.2 5.2 0 0 0 1.77 3.77 14.22 14.22 0 0 0 4.68 2.9 46.43 46.43 0 0 0 6.63 2.09l7.58 1.86c2.57.64 5.1 1.36 7.58 2.18a28.2 28.2 0 0 1 6.63 3.13q6.44 4.09 6.44 11.17 0 8.44-6.31 12.89t-17.47 4.45q-12.63 0-19.25-5.26-5.91-4.73-6.72-13.44h7.08a11.16 11.16 0 0 0 6 9.44q4.9 2.82 13 2.81 16.88 0 16.88-10.62a6.58 6.58 0 0 0-3-5.72 27.17 27.17 0 0 0-7.63-3.45q-4.57-1.35-9.89-2.54a61.65 61.65 0 0 1-9.9-3 22.6 22.6 0 0 1-7.62-4.9 11.1 11.1 0 0 1-3-8.22 14.79 14.79 0 0 1 5.62-12q5.64-4.64 17-4.63t17.7 5.26a15.68 15.68 0 0 1 6.09 11.9h-7q-.91-7.46-9.63-9.9a27.73 27.73 0 0 0-7.67-.91 24.46 24.46 0 0 0-7.71 1.05 14.13 14.13 0 0 0-4.97 2.52zM562 552.84v9.26h-8.81v-9.26zm19 9.26h-6.81V502H581zm41.39-60.82q13.43 0 22.06 9 8.44 8.72 8.44 21.78t-8.44 21.79q-8.62 9-22.06 9t-22.06-9q-8.45-8.72-8.45-21.79t8.45-21.78q8.61-9.01 22.06-9zm0 54.92q10.71 0 17.34-7 6.35-6.72 6.35-17.16t-6.35-17.15q-6.63-7-17.34-7t-17.34 7q-6.36 6.72-6.36 17.15t6.36 17.16q6.62 7 17.34 7z"/></g></g></svg>