<?xml version="1.0" encoding="utf-8"?>
<!-- Generator: Adobe Illustrator 23.0.3, SVG Export Plug-In . SVG Version: 6.00 Build 0)  -->
<svg version="1.1" id="Layer_1" xmlns="http://www.w3.org/2000/svg" xmlns:xlink="http://www.w3.org/1999/xlink" x="0px" y="0px"
	 viewBox="0 0 400 245" style="enable-background:new 0 0 400 245;" xml:space="preserve">
<style type="text/css">
	.st0{fill:#C92000;}
	.st1{fill:#FFFFFF;}
	.st2{fill:url(#SVGID_1_);}
	.st3{fill:#005CB9;}
</style>
<g>
	<path class="st3" d="M227.33,90.79c0-13.84,9.36-27.29,14.48-24.73C247.63,68.98,237.45,82.02,227.33,90.79 M163.56,95.85
		c0-11.13,10.99-32.3,17.71-30.06C189.2,68.43,174.7,89.77,163.56,95.85z M152.43,175.47c-5.06,0.23-8.43-3.01-8.43-8.4
		c0-14.5,20.11-28.35,35.29-35.78C176.6,151.53,169.77,174.68,152.43,175.47z M245.2,128.24c-11.46,0-20.24,8.44-20.24,18.55
		c0,8.44,5.06,15.18,11.81,15.18c2.37,0,4.71-1.35,4.71-4.39c0-4.38-5.81-5.45-5.36-12.01c0.28-4.33,4.36-7.22,8.4-7.22
		c8.1,0,11.88,7.84,11.88,15.94c-0.34,12.48-9.52,21.17-20.31,21.17c-14.17,0-23.27-13.5-23.27-28.01
		c0-21.59,14.16-30.02,21.58-32.05c0.08-0.01,19.41,3.45,18.8-5.07c-0.26-3.74-5.84-5.17-9.88-5.34c-4.48-0.18-8.98,1.44-8.98,1.44
		c-2.36-1.19-3.99-3.51-4.99-6.2c13.83-10.46,23.61-20.58,23.61-32.05c0-6.07-4.05-11.47-11.81-11.47
		c-13.83,0-24.29,17.54-24.29,33.4c0,2.7,0,5.4,0.68,7.76c-8.77,6.41-15.29,10.39-27.1,17.47c0-1.48,0.31-5.28,1.3-10.23
		c4.05-4.38,9.6-10.95,9.6-16.01c0-2.36-1.34-4.39-4.05-4.39c-6.74,0-11.8,10.12-13.15,17.2c-3.04,3.71-9.11,8.44-14.17,8.44
		c-4.05,0-5.4-3.72-5.74-5.06c12.82-4.39,28.68-21.93,28.68-37.79c0-3.37-1.35-10.8-11.47-10.8c-15.18,0-28,22.6-28,40.15
		c-5.4,0-7.42-5.74-7.42-10.12c0-4.39,1.68-8.78,1.68-10.12c0-1.35-0.68-3.04-2.7-3.04c-5.06,0-8.1,6.75-8.1,14.5
		c0.34,10.79,7.43,17.54,16.87,18.22c1.35,6.41,7.09,12.48,14.17,12.48c4.39,0,9.78-1.35,13.5-4.72c-0.34,2.37-0.67,4.38-1.02,6.41
		c-14.84,7.76-25.64,13.16-35.42,21.92c-7.76,7.09-12.14,16.53-12.14,23.96c0,10.12,6.41,19.56,19.57,19.56
		c15.52,0,27.33-12.47,33.06-29.69c2.7-8.09,3.78-19.88,4.45-30.68c15.52-8.77,22.88-13.85,30.96-19.58
		c1.01,1.68,2.04,3.04,3.38,4.05c-7.08,3.71-23.95,14.17-23.95,38.79c0,17.55,11.81,37.11,35.08,37.11
		c19.23,0,32.39-15.84,32.39-31.03C267.81,141.06,260.05,128.24,245.2,128.24z M303.2,157.21c-0.06,0.11-0.25,0.26-0.62,0.13
		c-0.28-0.11-0.38-0.26-0.37-0.44c0.02-0.2,4.08-12.19,4.05-25.97c-0.05-14.85-6.08-23.95-13.83-23.95c-4.73,0-8.1,3.38-8.1,8.43
		c0,9.11,11.13,9.78,11.13,29.69c0,8.09-1.68,15.84-4.39,24.29c-12.48,42.17-52.3,61.72-91.08,61.72c-17.89,0-30.59-3.67-34.38-5.37
		c-0.16-0.08-0.28-0.38-0.16-0.67c0.09-0.24,0.35-0.41,0.49-0.34c1.54,0.61,12.45,4.03,25.94,4.03c14.85,0,23.62-6.06,23.62-13.5
		c0-4.71-3.71-8.42-8.44-8.42c-9.11,0-9.79,11.46-29.35,11.46c-8.43,0-15.85-1.68-24.63-4.38c-41.83-12.82-61.77-52.29-61.73-91.42
		c0.02-19.05,5.35-34.23,5.44-34.38c0.06-0.1,0.31-0.21,0.6-0.1c0.3,0.1,0.38,0.36,0.35,0.44c-0.49,1.58-4.03,12.46-4.03,25.95
		c0,14.85,6.07,23.62,13.83,23.62c4.39,0,8.1-3.37,8.1-8.09c0-9.11-11.13-10.12-11.13-29.69c0-8.44,1.68-15.86,4.39-24.63
		C121.73,33.78,161.2,14.17,200,13.87c18.03-0.14,33.81,5.26,34.4,5.73c0.1,0.09,0.22,0.33,0.1,0.61c-0.12,0.31-0.33,0.35-0.44,0.34
		c-0.19-0.02-10.45-4.31-25.98-4.31c-14.5-0.01-23.6,6.07-23.6,13.83c0,4.38,3.37,8.09,8.43,8.09c9.11,0,9.79-11.13,29.35-11.13
		c8.44,0,15.85,1.69,24.62,4.39c42.18,12.82,61.38,52.63,61.74,91.08C308.81,142.2,303.26,157.11,303.2,157.21z M200,6.45
		c-64.1,0-116.06,51.96-116.06,116.05c0,64.1,51.96,116.05,116.06,116.05c64.09,0,116.03-51.94,116.03-116.05
		C316.04,58.74,264.1,6.45,200,6.45z M200,244.28c-67.14,0-121.79-54.31-121.79-121.78C78.22,55.37,132.87,0.72,200,0.72
		c67.12,0,121.78,54.65,121.78,121.78C321.78,189.97,267.12,244.28,200,244.28z"/>
</g>
</svg>
