<?xml version="1.0" encoding="utf-8"?>
<!-- Generator: Adobe Illustrator 21.1.0, SVG Export Plug-In . SVG Version: 6.00 Build 0)  -->
<svg version="1.1" id="Layer_1" xmlns="http://www.w3.org/2000/svg" xmlns:xlink="http://www.w3.org/1999/xlink" x="0px" y="0px"
	 viewBox="0 0 400 400" style="enable-background:new 0 0 400 400;" xml:space="preserve">
<style type="text/css">
	.st0{fill:#EA4535;}
	.st1{fill:#557EBF;}
	.st2{fill:#36A852;}
	.st3{fill:#F9BC15;}
	.st4{fill:#606469;}
</style>
<g>
	<g>
		<path class="st0" d="M195.3,94.5h5.2l14.8-14.8l0.7-6.3c-27.6-24.4-69.7-21.7-94,5.9c-6.8,7.7-11.7,16.8-14.4,26.6
			c1.7-0.7,3.5-0.8,5.2-0.3l29.6-4.9c0,0,1.5-2.5,2.3-2.3c13.2-14.5,35.4-16.2,50.6-3.8C195.4,94.5,195.3,94.5,195.3,94.5z"/>
		<path class="st1" d="M236.5,105.8c-3.4-12.5-10.4-23.8-20.1-32.5l-20.8,20.8c8.8,7.2,13.8,18,13.6,29.3v3.7
			c10.2,0,18.5,8.3,18.5,18.5c0,10.2-8.3,18.5-18.5,18.5h-37l-3.7,3.7v22.2l3.7,3.7h37c26.6,0.2,48.3-21.2,48.5-47.8
			C257.8,130,249.8,114.9,236.5,105.8z"/>
		<path class="st2" d="M135,193.7h37V164h-37c-2.6,0-5.2-0.6-7.6-1.7l-5.2,1.6l-14.9,14.8l-1.3,5.2
			C114.3,190.3,124.5,193.7,135,193.7z"/>
		<path class="st3" d="M135,97.5c-26.6,0.2-48,21.9-47.9,48.4c0.1,14.9,7,28.8,18.8,37.9l21.5-21.5c-9.3-4.2-13.5-15.2-9.3-24.5
			c4.2-9.3,15.2-13.5,24.5-9.3c4.1,1.9,7.4,5.1,9.3,9.3l21.5-21.5C164.3,104.5,150,97.5,135,97.5z"/>
		<path class="st4" d="M31,267.8c-7.1,0.1-14-2.7-19-7.8c-5.2-4.9-8.1-11.7-8-18.7c-0.1-7.1,2.8-13.9,8-18.7c5-5.1,11.8-8,19-7.9
			c6.8-0.1,13.4,2.6,18.2,7.3l-5.1,5.2c-3.5-3.4-8.2-5.2-13.1-5.2c-5.1-0.1-10,2-13.5,5.8c-3.6,3.6-5.6,8.5-5.5,13.7
			c0,5.1,2,9.9,5.5,13.5c7.4,7.4,19.3,7.5,26.9,0.3c2.3-2.5,3.6-5.6,3.9-8.9H31.1v-7.4h24.4c0.2,1.5,0.3,3,0.3,4.5
			c0.3,6.3-2,12.4-6.3,17C44.7,265.3,38,268.1,31,267.8z M87.8,262.9c-6.8,6.5-17.5,6.5-24.4,0c-3.3-3.2-5.1-7.6-5-12.2
			c-0.1-4.6,1.7-9,5-12.2c6.8-6.5,17.5-6.5,24.4,0c3.3,3.2,5.1,7.6,5,12.2C92.9,255.3,91.1,259.7,87.8,262.9
			C87.8,262.9,87.8,262.9,87.8,262.9z M68.8,258.1c3.5,3.8,9.4,3.9,13.2,0.4c0.1-0.1,0.3-0.3,0.4-0.4c1.9-2,3-4.7,2.9-7.4
			c0.1-2.8-1-5.5-2.9-7.4c-3.6-3.8-9.6-3.9-13.4-0.3c-0.1,0.1-0.2,0.2-0.3,0.3c-1.9,2-3,4.7-2.9,7.4
			C65.8,253.5,66.9,256.2,68.8,258.1C68.8,258.1,68.8,258.1,68.8,258.1z M125.2,262.9c-6.8,6.5-17.5,6.5-24.4,0
			c-3.3-3.2-5.1-7.6-5-12.2c-0.1-4.6,1.7-9,5-12.2c6.8-6.5,17.5-6.5,24.4,0c3.3,3.2,5.1,7.6,5,12.2
			C130.3,255.3,128.5,259.7,125.2,262.9z M106.3,258.1c3.5,3.8,9.4,3.9,13.2,0.4c0.1-0.1,0.3-0.3,0.4-0.4c1.9-2,3-4.7,2.9-7.4
			c0.1-2.8-1-5.5-2.9-7.4c-3.6-3.8-9.6-3.9-13.4-0.3c-0.1,0.1-0.2,0.2-0.3,0.3c-1.9,2-3,4.7-2.9,7.4
			C103.3,253.5,104.3,256.2,106.3,258.1C106.2,258.1,106.3,258.1,106.3,258.1z M149.8,283.2c-3.4,0.1-6.8-1-9.6-3
			c-2.4-1.8-4.4-4.3-5.6-7.1l6.6-2.7c0.7,1.7,1.8,3.1,3.2,4.3c1.5,1.2,3.4,1.9,5.4,1.8c2.5,0.2,4.9-0.8,6.7-2.6
			c1.7-2.1,2.6-4.8,2.4-7.5v-2.5h-0.3c-2.2,2.6-5.6,4.1-9,3.9c-4.4,0-8.5-1.8-11.5-5c-3.2-3.2-5-7.5-4.9-12
			c-0.1-4.5,1.7-8.9,4.9-12.1c3-3.2,7.1-5,11.5-5c1.8,0,3.6,0.4,5.3,1.2c1.4,0.6,2.7,1.6,3.7,2.7h0.3v-2.7h7.1v30.6
			c0.4,4.9-1.3,9.7-4.6,13.4C158.4,281.7,154.2,283.3,149.8,283.2z M150.4,261.1c2.5,0.1,4.9-1,6.5-2.9c1.8-2,2.7-4.7,2.6-7.4
			c0.1-2.7-0.8-5.4-2.6-7.5c-1.6-1.9-4-2.9-6.5-2.9c-2.6-0.1-5,1-6.7,2.9c-1.9,2-2.9,4.7-2.9,7.4c-0.1,2.7,1,5.4,2.9,7.4
			C145.4,260.1,147.8,261.1,150.4,261.1z M178.8,216.5v50.3h-7.5v-50.3C171.3,216.5,178.8,216.5,178.8,216.5z M199.4,267.8
			c-4.5,0.1-8.9-1.7-12.1-4.9c-3.2-3.2-5-7.6-4.9-12.2c-0.2-4.6,1.5-9,4.7-12.3c3-3.1,7.2-4.9,11.5-4.8c2,0,3.9,0.4,5.8,1.1
			c1.6,0.7,3.1,1.6,4.4,2.9c1.1,1,2.1,2.2,2.9,3.5c0.7,1.1,1.2,2.2,1.7,3.4l0.8,2l-23,9.5c1.4,3.3,4.7,5.3,8.3,5.2
			c3.4,0,6.6-1.8,8.4-4.7l5.8,3.9c-1.5,2.1-3.3,3.9-5.5,5.2C205.5,267,202.4,267.9,199.4,267.8L199.4,267.8z M189.8,250.2l15.3-6.4
			c-0.5-1.1-1.3-2-2.4-2.6c-1.2-0.7-2.6-1-3.9-1c-2.3,0.1-4.6,1-6.2,2.7C190.6,244.8,189.6,247.5,189.8,250.2z M253.4,267.8
			c-13.1,0.2-23.9-10.2-24.1-23.3c0-0.3,0-0.6,0-1c-0.3-13.1,10.1-23.9,23.1-24.2c0.3,0,0.6,0,1,0c6.5-0.2,12.8,2.6,17,7.6l-4.1,4
			c-3.1-3.9-7.9-6.1-12.9-5.9c-4.8-0.1-9.4,1.7-12.8,5.1c-3.5,3.5-5.4,8.4-5.2,13.4c-0.2,5,1.7,9.9,5.2,13.4c3.4,3.4,8,5.2,12.8,5.1
			c5.6,0.1,10.9-2.4,14.4-6.7l4.1,4.1c-2.2,2.6-4.9,4.7-8,6.1C260.7,267.1,257.1,267.9,253.4,267.8z M283.1,266.8h-6v-46.4h6V266.8z
			 M292.8,238.8c6.5-6.4,17-6.4,23.5,0c3.1,3.3,4.7,7.6,4.6,12.1c0.1,4.5-1.5,8.8-4.6,12.1c-6.5,6.4-17,6.4-23.5,0
			c-3.1-3.3-4.7-7.6-4.6-12.1C288.1,246.4,289.7,242.1,292.8,238.8z M297.2,259.3c3.8,4,10.2,4.2,14.2,0.4c0.1-0.1,0.3-0.3,0.4-0.4
			c2.1-2.3,3.2-5.3,3.1-8.3c0.1-3.1-1-6.1-3.1-8.3c-3.8-4-10.2-4.2-14.2-0.4c-0.1,0.1-0.3,0.3-0.4,0.4c-2.1,2.3-3.2,5.3-3.1,8.3
			C294,254,295.1,257,297.2,259.3L297.2,259.3z M353.8,266.8h-5.8v-4.4h-0.2c-1,1.7-2.5,3-4.2,4c-1.8,1-3.8,1.6-5.9,1.6
			c-3.4,0.2-6.7-1.1-9-3.6c-2.2-2.8-3.3-6.2-3.1-9.7v-19.6h6v18.5c0,5.9,2.6,8.9,7.8,8.9c2.4,0.1,4.6-1,6-2.9c1.5-2,2.4-4.4,2.3-6.9
			v-17.6h6L353.8,266.8L353.8,266.8z M374,267.8c-4.1,0-8-1.8-10.6-4.9c-3-3.3-4.6-7.6-4.5-12c-0.1-4.4,1.5-8.8,4.5-12
			c2.7-3.1,6.6-4.9,10.6-4.9c2.3,0,4.5,0.5,6.5,1.6c1.8,0.9,3.2,2.2,4.3,3.9h0.3l-0.3-4.4v-14.7h6v46.4h-5.8v-4.4h-0.3
			c-1.1,1.7-2.6,3-4.3,3.9C378.5,267.3,376.3,267.9,374,267.8z M375,262.4c2.7,0,5.3-1.1,7.2-3.1c2-2.3,3.1-5.3,2.9-8.4
			c0.2-3.1-0.9-6.1-2.9-8.4c-3.6-4-9.8-4.3-13.7-0.6c-0.2,0.2-0.4,0.4-0.6,0.6c-2,2.3-3.1,5.3-2.9,8.3c-0.2,3.1,0.8,6.1,2.9,8.3
			C369.6,261.3,372.3,262.4,375,262.4z"/>
	</g>
</g>
</svg>
