<svg id="Capa_1" data-name="Capa 1" xmlns="http://www.w3.org/2000/svg" viewBox="0 0 214.51 123.57"><defs><style>.cls-1{fill:#12110c;}.cls-2{fill:#e31018;}</style></defs><title>Logotipo GRD 1</title><path class="cls-1" d="M54.23-62.46v2.05a2.43,2.43,0,0,0,.52,1.68,2.26,2.26,0,0,0,1.74.57,4.22,4.22,0,0,0,2.23-.53v0.95a4.39,4.39,0,0,1-2.2.51A3.47,3.47,0,0,1,54-58a3.22,3.22,0,0,1-.81-2.41v-2.05A3.47,3.47,0,0,1,54-65a3.28,3.28,0,0,1,2.47-.83,5,5,0,0,1,.92.08,3.8,3.8,0,0,1,.63.16l0.6,0.26v1a4.83,4.83,0,0,0-2.19-.52,2.18,2.18,0,0,0-1.69.58,2.65,2.65,0,0,0-.52,1.81" transform="translate(-18.57 162.83)"/><path class="cls-1" d="M64.22-59.91V-61.1a2,2,0,0,0-.39-1.35,1.91,1.91,0,0,0-1.44-.43,2,2,0,0,0-1.46.43,2,2,0,0,0-.4,1.35v1.19a1.92,1.92,0,0,0,.4,1.35,2,2,0,0,0,1.45.43,1.91,1.91,0,0,0,1.44-.43,2,2,0,0,0,.39-1.35m-1.83,2.69a2.89,2.89,0,0,1-2.16-.68,2.78,2.78,0,0,1-.66-2V-61.1q0-2.69,2.82-2.69a2.85,2.85,0,0,1,2.14.68,2.8,2.8,0,0,1,.65,2v1.19q0,2.69-2.79,2.69" transform="translate(-18.57 162.83)"/><path class="cls-1" d="M67.26-61.4v4h-1v-4q0-2.39,2.68-2.4a2.83,2.83,0,0,1,2,.62,2.38,2.38,0,0,1,.63,1.78v4h-1v-4a1.55,1.55,0,0,0-.36-1.13A1.89,1.89,0,0,0,69-62.88a1.92,1.92,0,0,0-1.35.37,1.51,1.51,0,0,0-.37,1.12" transform="translate(-18.57 162.83)"/><path class="cls-1" d="M73.84-61.4v4h-1v-4q0-2.39,2.68-2.4a2.83,2.83,0,0,1,2,.62,2.38,2.38,0,0,1,.63,1.78v4h-1v-4a1.55,1.55,0,0,0-.36-1.13,1.89,1.89,0,0,0-1.33-.36,1.92,1.92,0,0,0-1.35.37,1.51,1.51,0,0,0-.37,1.12" transform="translate(-18.57 162.83)"/><path class="cls-1" d="M80.29-61.37V-61h3.46v-0.42A1.46,1.46,0,0,0,82-62.94a1.46,1.46,0,0,0-1.73,1.56m4.37,0.14a4.79,4.79,0,0,1-.1,1.09H80.29v0.38a1.52,1.52,0,0,0,.47,1.25,2.45,2.45,0,0,0,1.53.38,5.5,5.5,0,0,0,2.15-.38v0.91a5.5,5.5,0,0,1-2.15.38,3.35,3.35,0,0,1-2.24-.63,2.58,2.58,0,0,1-.72-2.05v-1.19a2.39,2.39,0,0,1,2.7-2.7,2.72,2.72,0,0,1,1.95.65,2.52,2.52,0,0,1,.68,1.91" transform="translate(-18.57 162.83)"/><path class="cls-1" d="M85.56-59.87v-1.27a2.64,2.64,0,0,1,.7-2,2.94,2.94,0,0,1,2.16-.7,3.56,3.56,0,0,1,1.51.32v0.92a3.68,3.68,0,0,0-1.49-.33,2.07,2.07,0,0,0-1.5.43,1.82,1.82,0,0,0-.42,1.33v1.24A1.7,1.7,0,0,0,87-58.52a2.39,2.39,0,0,0,1.53.39,3.72,3.72,0,0,0,1.54-.31v0.92a4.72,4.72,0,0,1-1.6.3,3.16,3.16,0,0,1-2.18-.65,2.58,2.58,0,0,1-.71-2" transform="translate(-18.57 162.83)"/><path class="cls-1" d="M90.34-62.76v-0.76l1.08-.15,0.18-1.67h0.78v1.67h2.47v0.91H92.37v3.25a1.49,1.49,0,0,0,.3,1.05,1.18,1.18,0,0,0,.88.31,3.79,3.79,0,0,0,1.52-.26v0.91a3.93,3.93,0,0,1-1.51.26,2,2,0,0,1-2.15-2.27v-3.25H90.34Z" transform="translate(-18.57 162.83)"/><path class="cls-1" d="M96.14-63.67h1v6.32h-1v-6.32Zm0-1.54A0.58,0.58,0,0,1,96-65.64a0.6,0.6,0,0,1,.19-0.44,0.62,0.62,0,0,1,.46-0.19,0.59,0.59,0,0,1,.44.19,0.61,0.61,0,0,1,.18.44,0.59,0.59,0,0,1-.18.44,0.6,0.6,0,0,1-.44.18,0.63,0.63,0,0,1-.46-0.18" transform="translate(-18.57 162.83)"/><path class="cls-1" d="M99.05-63.67l1.26,4.88a1.17,1.17,0,0,0,.28.56,0.7,0.7,0,0,0,.47.14,0.69,0.69,0,0,0,.47-0.14,1.18,1.18,0,0,0,.28-0.56L103-63.67h1l-1.24,4.81a2.94,2.94,0,0,1-.57,1.28,1.57,1.57,0,0,1-1.15.34,1.6,1.6,0,0,1-1.16-.34,2.89,2.89,0,0,1-.58-1.27l-1.23-4.82h1Z" transform="translate(-18.57 162.83)"/><path class="cls-1" d="M105-63.67h1v6.32h-1v-6.32Zm0-1.54a0.58,0.58,0,0,1-.19-0.44,0.6,0.6,0,0,1,.19-0.44,0.62,0.62,0,0,1,.46-0.19,0.59,0.59,0,0,1,.44.19,0.61,0.61,0,0,1,.18.44,0.59,0.59,0,0,1-.18.44,0.6,0.6,0,0,1-.44.18,0.63,0.63,0,0,1-.46-0.18" transform="translate(-18.57 162.83)"/><path class="cls-1" d="M106.81-62.76v-0.76l1.08-.15,0.18-1.67h0.78v1.67h2.47v0.91h-2.47v3.25a1.49,1.49,0,0,0,.3,1.05,1.18,1.18,0,0,0,.88.31,3.79,3.79,0,0,0,1.52-.26v0.91a3.93,3.93,0,0,1-1.51.26,2,2,0,0,1-2.15-2.27v-3.25h-1.08Z" transform="translate(-18.57 162.83)"/><path class="cls-1" d="M113-63.67l1.31,4.84a1.12,1.12,0,0,0,.29.56,0.77,0.77,0,0,0,.51.14,0.68,0.68,0,0,0,.46-0.15,1.1,1.1,0,0,0,.27-0.55L117-63.67h1l-1.57,6.31a4.44,4.44,0,0,1-1,2.05,2.4,2.4,0,0,1-1.9.68l-0.21-.86a2.28,2.28,0,0,0,.87-0.1,1.38,1.38,0,0,0,.62-0.42,2.85,2.85,0,0,0,.4-0.62,5.19,5.19,0,0,0,.29-0.81,1.26,1.26,0,0,1-.64.14,1.13,1.13,0,0,1-.93-0.36,3,3,0,0,1-.5-1.14L112-63.67h1Z" transform="translate(-18.57 162.83)"/><path class="cls-1" d="M120.92-60.92a0.64,0.64,0,0,1-.2-0.48,0.66,0.66,0,0,1,.2-0.48,0.67,0.67,0,0,1,.49-0.2,0.65,0.65,0,0,1,.48.2,0.65,0.65,0,0,1,.2.48,0.65,0.65,0,0,1-.2.48,0.65,0.65,0,0,1-.48.2,0.68,0.68,0,0,1-.49-0.2" transform="translate(-18.57 162.83)"/><rect class="cls-1" x="106.72" y="97.16" width="1" height="8.33"/><path class="cls-1" d="M128.79-61.4v4h-1v-4q0-2.39,2.68-2.4a2.83,2.83,0,0,1,2,.62,2.38,2.38,0,0,1,.63,1.78v4h-1v-4a1.55,1.55,0,0,0-.36-1.13,1.89,1.89,0,0,0-1.33-.36,1.92,1.92,0,0,0-1.35.37,1.51,1.51,0,0,0-.37,1.12" transform="translate(-18.57 162.83)"/><path class="cls-1" d="M133.84-62.76v-0.76l1.08-.15,0.18-1.67h0.78v1.67h2.47v0.91h-2.47v3.25a1.48,1.48,0,0,0,.3,1.05,1.18,1.18,0,0,0,.88.31,3.79,3.79,0,0,0,1.52-.26v0.91a3.93,3.93,0,0,1-1.51.26,2,2,0,0,1-2.15-2.27v-3.25h-1.08Z" transform="translate(-18.57 162.83)"/><path class="cls-1" d="M140.3-61.37V-61h3.46v-0.42A1.46,1.46,0,0,0,142-62.94a1.46,1.46,0,0,0-1.73,1.56m4.37,0.14a4.79,4.79,0,0,1-.1,1.09H140.3v0.38a1.52,1.52,0,0,0,.47,1.25,2.45,2.45,0,0,0,1.53.38,5.5,5.5,0,0,0,2.15-.38v0.91a5.5,5.5,0,0,1-2.15.38,3.35,3.35,0,0,1-2.24-.63,2.59,2.59,0,0,1-.72-2.05v-1.19a2.39,2.39,0,0,1,2.7-2.7,2.72,2.72,0,0,1,1.95.65,2.52,2.52,0,0,1,.68,1.91" transform="translate(-18.57 162.83)"/><path class="cls-1" d="M145.73-59v-7.33h1v7.16c0,0.65.22,1,.65,1a1.15,1.15,0,0,0,.46-0.08v0.88a1.5,1.5,0,0,1-.59.1,1.45,1.45,0,0,1-1.08-.41,1.79,1.79,0,0,1-.41-1.31" transform="translate(-18.57 162.83)"/><path class="cls-1" d="M148.5-59v-7.33h1v7.16c0,0.65.22,1,.65,1a1.15,1.15,0,0,0,.46-0.08v0.88a1.5,1.5,0,0,1-.59.1,1.45,1.45,0,0,1-1.08-.41A1.79,1.79,0,0,1,148.5-59" transform="translate(-18.57 162.83)"/><path class="cls-1" d="M151.39-63.67h1v6.32h-1v-6.32Zm0-1.54a0.58,0.58,0,0,1-.19-0.44,0.6,0.6,0,0,1,.19-0.44,0.62,0.62,0,0,1,.46-0.19,0.59,0.59,0,0,1,.44.19,0.61,0.61,0,0,1,.18.44,0.59,0.59,0,0,1-.18.44,0.6,0.6,0,0,1-.44.18,0.63,0.63,0,0,1-.46-0.18" transform="translate(-18.57 162.83)"/><path class="cls-1" d="M157.94-61.42v-0.15q0-1.36-1.68-1.36t-1.7,1.36v0.15a1.36,1.36,0,0,0,.36,1,2,2,0,0,0,1.34.35,1.91,1.91,0,0,0,1.33-.35,1.39,1.39,0,0,0,.35-1m-1.68,4a8.85,8.85,0,0,1-1.26-.06,1.07,1.07,0,0,0-.6,1.05,0.86,0.86,0,0,0,.41.84,3.5,3.5,0,0,0,1.45.21,3.35,3.35,0,0,0,1.42-.22,0.89,0.89,0,0,0,.42-0.87,0.75,0.75,0,0,0-.41-0.77,4.13,4.13,0,0,0-1.43-.17m2.65-4q0,2.23-2.65,2.23a5.81,5.81,0,0,0-1.35.1,0.39,0.39,0,0,0-.31.39,0.36,0.36,0,0,0,.32.35,6.74,6.74,0,0,0,1.34.08,4.36,4.36,0,0,1,2.2.39,1.49,1.49,0,0,1,.61,1.36,1.73,1.73,0,0,1-.62,1.52,4,4,0,0,1-2.18.44,4.07,4.07,0,0,1-2.21-.43,1.54,1.54,0,0,1-.61-1.35,1.5,1.5,0,0,1,.72-1.37,0.86,0.86,0,0,1-.53-0.85,1,1,0,0,1,1-1,1.81,1.81,0,0,1-1.08-1.87v-0.15a2,2,0,0,1,.7-1.63,3,3,0,0,1,2-.58,3.24,3.24,0,0,1,1.32.25l1.06-.83,0.54,0.51-0.83.85a1.84,1.84,0,0,1,.56,1.43v0.15Z" transform="translate(-18.57 162.83)"/><path class="cls-1" d="M160.78-61.37V-61h3.46v-0.42a1.46,1.46,0,0,0-1.73-1.56,1.46,1.46,0,0,0-1.73,1.56m4.37,0.14a4.79,4.79,0,0,1-.1,1.09h-4.27v0.38a1.52,1.52,0,0,0,.47,1.25,2.45,2.45,0,0,0,1.53.38,5.5,5.5,0,0,0,2.15-.38v0.91a5.51,5.51,0,0,1-2.15.38,3.35,3.35,0,0,1-2.23-.63,2.58,2.58,0,0,1-.72-2.05v-1.19a2.39,2.39,0,0,1,2.7-2.7,2.72,2.72,0,0,1,1.95.65,2.52,2.52,0,0,1,.68,1.91" transform="translate(-18.57 162.83)"/><path class="cls-1" d="M167.14-61.4v4h-1v-4q0-2.39,2.68-2.4a2.83,2.83,0,0,1,2,.62,2.38,2.38,0,0,1,.63,1.78v4h-1v-4a1.55,1.55,0,0,0-.36-1.13,1.89,1.89,0,0,0-1.33-.36,1.92,1.92,0,0,0-1.35.37,1.51,1.51,0,0,0-.37,1.12" transform="translate(-18.57 162.83)"/><path class="cls-1" d="M172.63-59.87v-1.27a2.64,2.64,0,0,1,.7-2,2.94,2.94,0,0,1,2.16-.7,3.56,3.56,0,0,1,1.51.32v0.92a3.68,3.68,0,0,0-1.49-.33,2.07,2.07,0,0,0-1.5.43,1.82,1.82,0,0,0-.42,1.33v1.24a1.7,1.7,0,0,0,.47,1.36,2.39,2.39,0,0,0,1.53.39,3.73,3.73,0,0,0,1.54-.31v0.92a4.72,4.72,0,0,1-1.6.3,3.16,3.16,0,0,1-2.18-.65,2.58,2.58,0,0,1-.71-2" transform="translate(-18.57 162.83)"/><path class="cls-1" d="M178.64-61.37V-61h3.46v-0.42a1.46,1.46,0,0,0-1.73-1.56,1.46,1.46,0,0,0-1.73,1.56M183-61.23a4.79,4.79,0,0,1-.1,1.09h-4.27v0.38a1.52,1.52,0,0,0,.47,1.25,2.45,2.45,0,0,0,1.53.38,5.5,5.5,0,0,0,2.15-.38v0.91a5.5,5.5,0,0,1-2.15.38,3.35,3.35,0,0,1-2.24-.63,2.58,2.58,0,0,1-.72-2.05v-1.19a2.39,2.39,0,0,1,2.7-2.7,2.72,2.72,0,0,1,1.95.65,2.52,2.52,0,0,1,.68,1.91" transform="translate(-18.57 162.83)"/><path class="cls-1" d="M186.47-60.92a0.64,0.64,0,0,1-.2-0.48,0.66,0.66,0,0,1,.2-0.48,0.67,0.67,0,0,1,.49-0.2,0.65,0.65,0,0,1,.48.2,0.65,0.65,0,0,1,.2.48,0.65,0.65,0,0,1-.2.48,0.65,0.65,0,0,1-.48.2,0.68,0.68,0,0,1-.49-0.2" transform="translate(-18.57 162.83)"/><path class="cls-1" d="M190.4-57.68v-1a6.09,6.09,0,0,0,2.51.49,3.24,3.24,0,0,0,1.45-.24,0.88,0.88,0,0,0,.46-0.85,1.05,1.05,0,0,0-.27-0.75,4.67,4.67,0,0,0-.91-0.69l-1.9-1.16a2.31,2.31,0,0,1-1.27-2,1.62,1.62,0,0,1,.67-1.44,3.59,3.59,0,0,1,2-.46,5.61,5.61,0,0,1,2.31.46v1a5.15,5.15,0,0,0-2.31-.47,2.58,2.58,0,0,0-1.27.23,0.81,0.81,0,0,0-.38.76,1,1,0,0,0,.21.66,3.14,3.14,0,0,0,.68.56l1.93,1.2a4.46,4.46,0,0,1,1.12.93,1.89,1.89,0,0,1,.38,1.23q0,2.05-2.95,2a6.26,6.26,0,0,1-2.49-.46" transform="translate(-18.57 162.83)"/><path class="cls-1" d="M197.72-61.37V-61h3.46v-0.42a1.46,1.46,0,0,0-1.73-1.56,1.46,1.46,0,0,0-1.73,1.56m4.37,0.14a4.79,4.79,0,0,1-.1,1.09h-4.27v0.38a1.52,1.52,0,0,0,.47,1.25,2.45,2.45,0,0,0,1.53.38,5.5,5.5,0,0,0,2.15-.38v0.91a5.5,5.5,0,0,1-2.15.38,3.35,3.35,0,0,1-2.24-.63,2.59,2.59,0,0,1-.72-2.05v-1.19a2.39,2.39,0,0,1,2.7-2.7,2.72,2.72,0,0,1,1.95.65,2.52,2.52,0,0,1,.68,1.91" transform="translate(-18.57 162.83)"/><path class="cls-1" d="M203-59.87v-1.27a2.64,2.64,0,0,1,.7-2,2.94,2.94,0,0,1,2.16-.7,3.56,3.56,0,0,1,1.51.32v0.92a3.68,3.68,0,0,0-1.49-.33,2.07,2.07,0,0,0-1.5.43,1.82,1.82,0,0,0-.42,1.33v1.24a1.7,1.7,0,0,0,.47,1.36,2.39,2.39,0,0,0,1.53.39,3.73,3.73,0,0,0,1.54-.31v0.92a4.72,4.72,0,0,1-1.6.3,3.16,3.16,0,0,1-2.18-.65,2.58,2.58,0,0,1-.71-2" transform="translate(-18.57 162.83)"/><path class="cls-1" d="M209.23-63.67v4a1.51,1.51,0,0,0,.37,1.12,1.91,1.91,0,0,0,1.34.36,1.91,1.91,0,0,0,1.34-.36,1.52,1.52,0,0,0,.36-1.13v-4h1v4a2.39,2.39,0,0,1-.63,1.78,2.83,2.83,0,0,1-2,.61q-2.68,0-2.68-2.4v-4h1Z" transform="translate(-18.57 162.83)"/><path class="cls-1" d="M215.73-61.53v4.18h-1v-4.23A2,2,0,0,1,217-63.79a2.83,2.83,0,0,1,.79.1v0.92a2.5,2.5,0,0,0-.79-0.11,1.18,1.18,0,0,0-1,.33,1.61,1.61,0,0,0-.27,1" transform="translate(-18.57 162.83)"/><path class="cls-1" d="M218.63-63.67h1v6.32h-1v-6.32Zm0-1.54a0.58,0.58,0,0,1-.19-0.44,0.6,0.6,0,0,1,.19-0.44,0.62,0.62,0,0,1,.46-0.19,0.59,0.59,0,0,1,.44.19,0.61,0.61,0,0,1,.18.44,0.59,0.59,0,0,1-.18.44,0.6,0.6,0,0,1-.44.18,0.63,0.63,0,0,1-.46-0.18" transform="translate(-18.57 162.83)"/><path class="cls-1" d="M220.41-62.76v-0.76l1.08-.15,0.18-1.67h0.78v1.67h2.47v0.91h-2.47v3.25a1.49,1.49,0,0,0,.3,1.05,1.18,1.18,0,0,0,.88.31,3.79,3.79,0,0,0,1.52-.26v0.91a3.93,3.93,0,0,1-1.51.26,2,2,0,0,1-2.15-2.27v-3.25h-1.08Z" transform="translate(-18.57 162.83)"/><path class="cls-1" d="M226.6-63.67l1.31,4.84a1.12,1.12,0,0,0,.29.56,0.78,0.78,0,0,0,.51.14,0.68,0.68,0,0,0,.46-0.15,1.1,1.1,0,0,0,.27-0.55l1.15-4.84h1L230-57.36a4.44,4.44,0,0,1-1,2.05,2.4,2.4,0,0,1-1.9.68l-0.21-.86a2.28,2.28,0,0,0,.87-0.1,1.38,1.38,0,0,0,.62-0.42,2.79,2.79,0,0,0,.4-0.62,5.35,5.35,0,0,0,.29-0.81,1.27,1.27,0,0,1-.64.14,1.13,1.13,0,0,1-.93-0.36,3,3,0,0,1-.5-1.14l-1.33-4.88h1Z" transform="translate(-18.57 162.83)"/><path class="cls-2" d="M141.69-47.4v-0.76l1.08-.15v-0.95q0-2,2.15-2a4.62,4.62,0,0,1,1.37.2v0.91a4.5,4.5,0,0,0-1.33-.2,1,1,0,0,0-1.23,1v1h2.42v0.91h-2.42V-42h-1V-47.4h-1.08Z" transform="translate(-18.57 162.83)"/><path class="cls-2" d="M151.39-44.55v-1.19A2,2,0,0,0,151-47.1a1.91,1.91,0,0,0-1.44-.43,2,2,0,0,0-1.46.43,1.94,1.94,0,0,0-.4,1.35v1.19a1.93,1.93,0,0,0,.4,1.35,2,2,0,0,0,1.45.43A1.91,1.91,0,0,0,151-43.2a2,2,0,0,0,.39-1.35m-1.83,2.69a2.89,2.89,0,0,1-2.16-.68,2.78,2.78,0,0,1-.66-2v-1.19q0-2.69,2.82-2.69a2.85,2.85,0,0,1,2.14.68,2.8,2.8,0,0,1,.65,2v1.19q0,2.69-2.79,2.69" transform="translate(-18.57 162.83)"/><path class="cls-2" d="M154.46-46.17V-42h-1v-4.23a2,2,0,0,1,2.19-2.21,2.84,2.84,0,0,1,.79.1v0.92a2.51,2.51,0,0,0-.79-0.11,1.18,1.18,0,0,0-1,.33,1.62,1.62,0,0,0-.27,1" transform="translate(-18.57 162.83)"/><path class="cls-2" d="M161-48.31l1.31,4.84a1.12,1.12,0,0,0,.29.56,0.77,0.77,0,0,0,.51.14,0.68,0.68,0,0,0,.46-0.15,1.1,1.1,0,0,0,.27-0.55L165-48.31h1L164.37-42a4.44,4.44,0,0,1-1,2.05,2.4,2.4,0,0,1-1.9.68l-0.21-.86a2.28,2.28,0,0,0,.87-0.1,1.38,1.38,0,0,0,.62-0.42,2.82,2.82,0,0,0,.4-0.61,5.28,5.28,0,0,0,.29-0.81,1.25,1.25,0,0,1-.64.14,1.13,1.13,0,0,1-.93-0.36,3,3,0,0,1-.5-1.14L160-48.31h1Z" transform="translate(-18.57 162.83)"/><path class="cls-2" d="M171-44.55v-1.19a2,2,0,0,0-.39-1.35,1.91,1.91,0,0,0-1.44-.43,2,2,0,0,0-1.46.43,2,2,0,0,0-.4,1.35v1.19a1.93,1.93,0,0,0,.4,1.35,2,2,0,0,0,1.45.43,1.91,1.91,0,0,0,1.44-.43,2,2,0,0,0,.39-1.35m-1.83,2.69a2.89,2.89,0,0,1-2.16-.68,2.78,2.78,0,0,1-.66-2v-1.19q0-2.69,2.82-2.69a2.85,2.85,0,0,1,2.14.68,2.8,2.8,0,0,1,.65,2v1.19q0,2.69-2.79,2.69" transform="translate(-18.57 162.83)"/><path class="cls-2" d="M174-48.31v4a1.51,1.51,0,0,0,.37,1.12,1.91,1.91,0,0,0,1.34.37,1.91,1.91,0,0,0,1.34-.36,1.53,1.53,0,0,0,.36-1.13v-4h1v4a2.39,2.39,0,0,1-.63,1.78,2.83,2.83,0,0,1-2,.61q-2.68,0-2.68-2.4v-4h1Z" transform="translate(-18.57 162.83)"/><path class="cls-2" d="M180.59-46.17V-42h-1v-4.23a2,2,0,0,1,2.19-2.21,2.83,2.83,0,0,1,.79.1v0.92a2.51,2.51,0,0,0-.79-0.11,1.18,1.18,0,0,0-1,.33,1.62,1.62,0,0,0-.27,1" transform="translate(-18.57 162.83)"/><path class="cls-2" d="M191.28-44.55v-1.19a2,2,0,0,0-.39-1.36,1.93,1.93,0,0,0-1.44-.42,1.94,1.94,0,0,0-1.45.43,2,2,0,0,0-.4,1.35v1.19a1.94,1.94,0,0,0,.4,1.35,1.93,1.93,0,0,0,1.45.43,1.9,1.9,0,0,0,1.45-.43,2,2,0,0,0,.38-1.35m-4.64,0V-51h1v3.46a2.05,2.05,0,0,1,2-.94,2.37,2.37,0,0,1,2.65,2.7v1.19a2.7,2.7,0,0,1-.68,2,2.91,2.91,0,0,1-2.13.67q-2.81,0-2.81-2.68" transform="translate(-18.57 162.83)"/><path class="cls-2" d="M194.28-48.31v4a1.51,1.51,0,0,0,.37,1.12,1.91,1.91,0,0,0,1.34.37,1.91,1.91,0,0,0,1.34-.36,1.52,1.52,0,0,0,.36-1.13v-4h1v4a2.39,2.39,0,0,1-.63,1.78,2.83,2.83,0,0,1-2,.61q-2.68,0-2.68-2.4v-4h1Z" transform="translate(-18.57 162.83)"/><path class="cls-2" d="M199.72-42.23v-0.9a8,8,0,0,0,2.29.37,2.61,2.61,0,0,0,1.07-.16,0.58,0.58,0,0,0,.33-0.57,0.71,0.71,0,0,0-.19-0.51,2.19,2.19,0,0,0-.65-0.42L201-45.16a2.58,2.58,0,0,1-.9-0.65,1.56,1.56,0,0,1-.29-1,1.4,1.4,0,0,1,.55-1.22,3,3,0,0,1,1.72-.39,5.23,5.23,0,0,1,2,.38v0.91a5.1,5.1,0,0,0-2-.4,2.18,2.18,0,0,0-1,.17,0.58,0.58,0,0,0-.3.55,0.94,0.94,0,0,0,.68.84l1.63,0.74a2.87,2.87,0,0,1,1,.68,1.57,1.57,0,0,1,.31,1,1.41,1.41,0,0,1-.59,1.26,3.34,3.34,0,0,1-1.83.4,7,7,0,0,1-2.22-.37" transform="translate(-18.57 162.83)"/><path class="cls-2" d="M205.67-48.31h1V-42h-1v-6.32Zm0-1.54a0.58,0.58,0,0,1-.19-0.44,0.6,0.6,0,0,1,.19-0.44,0.62,0.62,0,0,1,.46-0.19,0.59,0.59,0,0,1,.44.19,0.61,0.61,0,0,1,.18.44,0.59,0.59,0,0,1-.18.44,0.6,0.6,0,0,1-.44.18,0.63,0.63,0,0,1-.46-0.18" transform="translate(-18.57 162.83)"/><path class="cls-2" d="M209-46v4h-1v-4q0-2.39,2.68-2.4a2.83,2.83,0,0,1,2,.62,2.38,2.38,0,0,1,.63,1.78v4h-1v-4a1.55,1.55,0,0,0-.36-1.13,1.89,1.89,0,0,0-1.33-.36,1.92,1.92,0,0,0-1.35.37A1.51,1.51,0,0,0,209-46" transform="translate(-18.57 162.83)"/><path class="cls-2" d="M215.52-46v0.42H219V-46a1.46,1.46,0,0,0-1.73-1.56A1.46,1.46,0,0,0,215.52-46m4.37,0.14a4.79,4.79,0,0,1-.1,1.09h-4.27v0.38a1.52,1.52,0,0,0,.47,1.25,2.45,2.45,0,0,0,1.53.38,5.5,5.5,0,0,0,2.15-.38v0.91a5.5,5.5,0,0,1-2.15.38,3.35,3.35,0,0,1-2.24-.63,2.58,2.58,0,0,1-.72-2.05v-1.19a2.39,2.39,0,0,1,2.7-2.7,2.72,2.72,0,0,1,1.95.65,2.52,2.52,0,0,1,.68,1.91" transform="translate(-18.57 162.83)"/><path class="cls-2" d="M220.8-42.23v-0.9a8,8,0,0,0,2.29.37,2.6,2.6,0,0,0,1.07-.16,0.58,0.58,0,0,0,.33-0.57A0.71,0.71,0,0,0,224.3-44a2.19,2.19,0,0,0-.65-0.42l-1.56-.74a2.58,2.58,0,0,1-.9-0.65,1.56,1.56,0,0,1-.29-1,1.4,1.4,0,0,1,.55-1.22,3,3,0,0,1,1.72-.39,5.23,5.23,0,0,1,2,.38v0.91a5.1,5.1,0,0,0-2-.4,2.18,2.18,0,0,0-1,.17,0.58,0.58,0,0,0-.3.55,0.94,0.94,0,0,0,.68.84l1.63,0.74a2.86,2.86,0,0,1,1,.68,1.57,1.57,0,0,1,.31,1,1.41,1.41,0,0,1-.59,1.26,3.35,3.35,0,0,1-1.83.4,7,7,0,0,1-2.21-.37" transform="translate(-18.57 162.83)"/><path class="cls-2" d="M226.43-42.23v-0.9a8,8,0,0,0,2.29.37,2.61,2.61,0,0,0,1.07-.16,0.58,0.58,0,0,0,.33-0.57,0.71,0.71,0,0,0-.19-0.51,2.19,2.19,0,0,0-.65-0.42l-1.56-.74a2.59,2.59,0,0,1-.9-0.65,1.56,1.56,0,0,1-.29-1,1.4,1.4,0,0,1,.55-1.22,3,3,0,0,1,1.72-.39,5.23,5.23,0,0,1,2,.38v0.91a5.1,5.1,0,0,0-2-.4,2.18,2.18,0,0,0-1,.17,0.58,0.58,0,0,0-.29.55,0.94,0.94,0,0,0,.68.84l1.63,0.74a2.89,2.89,0,0,1,1,.68,1.58,1.58,0,0,1,.31,1,1.41,1.41,0,0,1-.59,1.26,3.34,3.34,0,0,1-1.83.4,7,7,0,0,1-2.22-.37" transform="translate(-18.57 162.83)"/><path class="cls-2" d="M233.08-121.8c-9.88-6.44-27.32,6.22-33.13,10-9.72,6.25-25.31,10.83-33.37,1,13.2,1,13.34-15.05,13.09-24-0.31-11,1.24-20.88,10.14-28-0.67,4.62-1.59,9,2.73,14.1,3.65,4.29,9.41,6.62,14.75,7.94,10.65,2.62,22.19,7.23,25.78,19" transform="translate(-18.57 162.83)"/><path class="cls-1" d="M42-87.73c0-5.41-3.55-9.19-8.63-9.19s-8.68,3.84-8.74,9.19,3.55,9.25,8.74,9.25S42-82.32,42-87.73m6.43,12.86c0,8.63-6.15,14-15.57,14a21.82,21.82,0,0,1-12.47-3.95l2.76-4.68a15.15,15.15,0,0,0,9.42,3.27c5.7,0,9.42-3.33,9.42-8.52v-3.78c-2,3.27-5.41,5.08-9.93,5.08-8.12,0-13.54-5.87-13.54-14.5,0-8.46,5.36-14.21,13.31-14.27,4.62-.06,8.06,1.8,10.15,5.08v-4.85h6.43v27.07Z" transform="translate(-18.57 162.83)"/><path class="cls-1" d="M60.31-96a10.91,10.91,0,0,1,10.38-6.2V-96c-6-.34-9.87,3.21-10.38,8.35v15.68H53.82v-30h6.49v6Z" transform="translate(-18.57 162.83)"/><path class="cls-1" d="M92.79-82.48v-2.76H84.67c-4.23,0-6.2,1.13-6.2,4,0,2.71,2.2,4.46,5.81,4.46,4.62,0,8.18-2.43,8.52-5.7m0.06,6.88c-2.14,2.65-5.58,3.95-9.93,3.95-6.48,0-10.55-4-10.55-9.31,0-5.47,4.12-9,11.34-9h9.08v-0.9c0-3.78-2.43-6-7.16-6a15.83,15.83,0,0,0-8.86,3l-2.65-4.51c4.17-2.48,7.22-3.78,12.92-3.78,7.73,0,12.07,3.95,12.13,10.55l0.06,19.68H92.85V-75.6Z" transform="translate(-18.57 162.83)"/><path class="cls-1" d="M127.92-86.83c0-5.81-3.78-9.87-9.19-9.87s-9.19,4.12-9.25,9.87,3.78,9.76,9.25,9.76,9.19-4.06,9.19-9.76m6.49,14.89h-6.49v-5.13c-2.14,3.5-5.75,5.41-10.55,5.41-8.63,0-14.38-6.26-14.38-15.4s5.81-15.17,14.27-15.17c4.85,0,8.46,2,10.66,5.47v-17h6.49v41.85Z" transform="translate(-18.57 162.83)"/><path class="cls-1" d="M139.57-101.94H146v30h-6.43v-30Zm7-8.57a3.74,3.74,0,0,1-3.78,3.89,3.74,3.74,0,0,1-3.78-3.89,3.75,3.75,0,0,1,3.78-3.95,3.75,3.75,0,0,1,3.78,3.95" transform="translate(-18.57 162.83)"/><path class="cls-1" d="M170.38-82.48v-2.76h-8.12c-4.23,0-6.2,1.13-6.2,4,0,2.71,2.2,4.46,5.81,4.46,4.62,0,8.18-2.43,8.52-5.7m0.06,6.88c-2.14,2.65-5.58,3.95-9.93,3.95C154-71.66,150-75.66,150-81c0-5.47,4.12-9,11.34-9h9.08v-0.9c0-3.78-2.43-6-7.16-6a15.83,15.83,0,0,0-8.86,3l-2.65-4.51c4.17-2.48,7.22-3.78,12.92-3.78,7.73,0,12.07,3.95,12.13,10.55l0.06,19.68h-6.37V-75.6Z" transform="translate(-18.57 162.83)"/><path class="cls-1" d="M232.54-73.85a14.4,14.4,0,0,1-7.39,2.2c-4.51,0-8.4-2.59-8.4-8.74V-96h-4.23v-4.85h4.23V-109h6.43v8.23H232V-96h-8.86v14.38c0,3.1,1.18,4.06,3.21,4.06a10.46,10.46,0,0,0,4.51-1.3Z" transform="translate(-18.57 162.83)"/><path class="cls-1" d="M209.65-95.76A10.56,10.56,0,0,0,209.1-97a9.93,9.93,0,0,0-8.15-5.11l-0.1,0c-0.18,0-.35,0-0.52,0-5.16-.42-8.16,4.16-18.48,4.49v25.72h6.49v-16c0.45-4.68,3.55-8.12,8.52-8.18,4.51,0,7.22,2.76,7.22,7.28v16.86h6.49V-90.61a14.18,14.18,0,0,0-.9-5.15" transform="translate(-18.57 162.83)"/></svg>