<svg xmlns="http://www.w3.org/2000/svg" role="img" viewBox="-19.98 -19.98 1038.96 446.96"><title>Graphcore logo</title><path d="M0 204V0h1000v408H0zm622.76 53.494c3.4431-.8118 8.8681-2.7924 12.055-4.4014 5.9164-2.9866 17.184-11.533 17.184-13.034 0-.45709-2.8564-3.906-6.3476-7.6642l-6.3476-6.8331-4.9024 4.3575c-7.4845 6.6526-12.416 8.5716-21.902 8.5234-12.966-.0659-22.328-5.6632-28.336-16.943-2.459-4.616-2.6636-5.9216-2.6636-17 0-10.093.33458-12.723 2.1057-16.551 2.954-6.3843 7.8528-11.623 13.804-14.763 4.5398-2.3948 6.1709-2.6851 15.09-2.6858 11.228-.00086 16.133 1.6044 22.806 7.4631l3.7045 3.2526 6.4113-6.8582 6.4113-6.8583-3.585-3.7146c-1.9718-2.043-6.5931-5.2954-10.27-7.2273-26.679-14.019-58.939-4.7002-71.406 20.627-11.393 23.146-7.4058 50.096 9.8653 66.68 12.888 12.375 30.127 17.448 46.322 13.629zm100.96-3.8295l16.223-5.3094 10.027-13.818 10.027-13.818v-32.741l-10.036-13.785-10.036-13.785-16.214-5.2558-16.214-5.2558-15.953 5.3015-15.953 5.3015-9.7705 13.5-9.7705 13.5.0244 17 .0244 17 9.8515 13.5 9.8515 13.5 15.847 5.1559c8.7161 2.8357 15.847 5.1925 15.847 5.2372 0 .0447 7.3002-2.3079 16.223-5.2281zm-26.723-17.826l-9.5-3.0009-6.25-8.6272-6.25-8.6272v-22.516l6.2249-8.5603 6.2249-8.5603 9.6359-2.9735c5.2998-1.6354 10.238-2.9735 10.974-2.9735.73581 0 5.6384 1.4096 10.895 3.1325l9.5568 3.1325 6.2446 8.6115 6.2446 8.6115-.0366 11.006-.0366 11.006-6.3755 8.5883-6.3755 8.5883-9.9736 3.1617c-5.4855 1.7389-10.363 3.1256-10.838 3.0815-.47535-.0441-5.1393-1.4306-10.364-3.081zm-556.25 18.197l4.747-2.9641.316 2.9996.316 2.9996 9.684-.28541 9.684-.28542.26534-28.75.26533-28.75h-44.031v19h24.1l-.29991 5.666-.2999 5.666-6.9748 4.334c-6.7895 4.2188-7.199 4.334-15.416 4.334-8.245 0-8.6061-.10275-15.53-4.4179-6.2376-3.8877-7.5978-5.3135-11.334-11.88-4.1934-7.3704-4.2457-7.5821-4.2457-17.209 0-9.544.08572-9.9021 4.1194-17.209 3.693-6.6901 4.9092-7.9689 11.75-12.355 7.4585-4.7825 7.8071-4.8932 15.456-4.9106 7.5635-.0172 8.0522.12929 14.629 4.3836 3.742 2.4207 8.0958 6.0207 9.6751 8 1.5793 1.9793 3.2329 3.5987 3.6748 3.5987s3.9402-2.5028 7.7741-5.5618l6.9707-5.5618-1.996-2.6882c-4.3694-5.8846-5.9406-7.2034-16.174-13.575l-10.622-6.6133h-27.469l-10.68 6.435c-5.8741 3.5392-11.392 7.2517-12.262 8.25s-4.3414 6.7774-7.7138 12.843l-6.1317 11.028.0037 13.972.0037 13.972 6.8507 12 6.8507 12 11.396 7.181 11.396 7.181 13.253.069c13.01.0678 13.34.0147 18-2.8951zm59.247-15.939v-18.903l9.75-.40317c5.3625-.22174 10.103-.22874 10.536-.0156.43204.21319 5.0468 8.9012 10.255 19.307l9.4695 18.919h9.3283c5.1306 0 9.6201-.29174 9.9766-.6483.35656-.35657-3.8878-9.5527-9.432-20.436-5.5442-10.883-9.7954-20.249-9.4471-20.812.34826-.5635 3.2304-2.8464 6.4047-5.073 5.7329-4.0214 5.7939-4.1176 9.1012-14.351l3.3297-10.302-3.3857-10.38-3.3857-10.38-8.5-6.24-8.5-6.24-26.25-.0689-26.25-.06886v105h17zm.22395-53.347l.27605-15.25 14.137-.27677 14.137-.27677 4.2843 3.2768c6.0517 4.6285 7.8368 10.132 5.573 17.18-1.2345 3.8435-2.5979 5.7732-5.5441 7.8469-3.8308 2.6964-4.1921 2.75-18.523 2.75h-14.616zm89.776 57.75v-14.5h48v29.072l9.75-.28621 9.75-.28621.27179-17.5.27178-17.5-16.471-34.5-16.471-34.5h-22.523l-15.728 33.5-15.728 33.5-.0616 18.75-.06158 18.75h19zm10.373-39.75c9.4307-21.085 13.138-28.633 13.749-27.991.94994.99943 14.878 31.327 14.878 32.396 0 .46492-6.9693.84531-15.487.84531h-15.487zm92.399 35.022l.27199-18.728 18.728-.27199 18.728-.27198.28723-9.2278.28723-9.2278-18.787-.2722-18.787-.2722-.27746-14.25-.27745-14.25h37.055v28h20v-28h-19v-19.031l-28.75.26533-28.75.26534-.26012 51c-.14306 28.05-.0382 51.579.2331 52.288.36463.95201 2.9093 1.2127 9.7601 1l9.2669-.28775zm88.998-3.0407l.26956-21.769 22.73.26873 22.73.26872.2695 21.75.2695 21.75h18.961v-105h-19v42h-45.959l-.27029-20.75-.27029-20.75-9.75-.28621-9.75-.28621v105.14l9.75-.28621 9.75-.28621zm309.23 3.2687v-19h18.99l9.51 19 9.51 19h10.328c5.6806 0 10.602-.27412 10.937-.60915.33503-.33504-4.2025-10.287-10.083-22.115-10.207-20.528-10.602-21.557-8.6925-22.641 1.1-.62427 3.8612-3.0018 6.1359-5.2835 5.5671-5.584 7.8739-12.428 7.7848-23.098-.0613-7.345-.44331-8.9796-3.4948-14.956-2.2728-4.4511-4.8712-7.8095-7.72-9.978-7.3635-5.6052-11.705-6.32-38.387-6.32h-23.818v105h19zm.22178-52.75l.27822-13.75 12-.26985c13.775-.30978 17.504.92224 20.673 6.8315 2.5239 4.706 2.4006 11.94-.26103 15.323-3.7779 4.8028-6.7268 5.6149-20.39 5.6149h-12.578zm136.28 61.75v-9.5l-24.25-.26778-24.25-.26778v9.3511c0 5.1431.30795 9.6591.68433 10.035s11.289.56388 24.25.41666l23.566-.26766zm-47.845-22l.1551-11.5 19.095-.27159 19.095-.2716v-18.957h-37.937l-.28173-11.75-.28174-11.75-9.75-.28621-9.75-.28621v67.145l9.75-.28621 9.75-.28621zm48.134-64.25l.28894-8.75h-49.078v18.036l24.25-.26778 24.25-.26778z"/></svg>