<svg id="图层_1" data-name="图层 1" xmlns="http://www.w3.org/2000/svg" viewBox="0 0 1000 1000"><polygon points="531.56 529.53 450.97 369.76 406.8 369.76 406.8 631.13 448.03 631.13 448.03 443.02 520.15 585.48 542.97 585.48 612.91 443.02 612.91 631.13 654.51 631.13 654.51 369.76 610.33 369.76 531.56 529.53"/><path d="M344.5,578H127v0c-.31,0-.61,0-.91,0a20.62,20.62,0,1,0,0,41.23c.3,0,.6,0,.91,0v0H344.5a20.62,20.62,0,1,0,0-41.23Z"/><path d="M344.5,381.64H127v.05c-.31,0-.61-.05-.91-.05a20.62,20.62,0,1,0,0,41.23c.3,0,.6,0,.91,0v0H344.5a20.62,20.62,0,1,0,0-41.23Z"/><path d="M264.92,521.06V521a20.61,20.61,0,0,0,0-41v-.09H78.26v.05c-.3,0-.6-.05-.91-.05a20.62,20.62,0,0,0,0,41.23c.31,0,.61,0,.91,0v0Z"/><path d="M818.68,368.31C750.37,368.31,695,427.15,695,499.73s55.38,131.41,123.69,131.41,123.69-58.83,123.69-131.41S887,368.31,818.68,368.31Zm0,222.27c-45.33,0-82.08-40.68-82.08-90.85s36.75-90.86,82.08-90.86,82.08,40.68,82.08,90.86S864,590.58,818.68,590.58Z"/><polygon points="943.26 631.67 864.61 542.98 809.01 542.98 887.68 631.69 943.24 631.69 943.26 631.67"/></svg>