<svg id="Layer_1" data-name="Layer 1" xmlns="http://www.w3.org/2000/svg" viewBox="0 0 5164.52102 848.84039"><defs><style>.cls-1{fill:#175077;}.cls-2{fill:#d8d89a;}</style></defs><title>haystack</title><path class="cls-1" d="M3160.30042,391.71354c.00025,78.60243-.55536,157.21186.4409,235.80171.21477,16.95154-5.17914,20.66737-20.78,19.91442a740.57678,740.57678,0,0,0-76.49759.038c-16.57134.91705-22.38366-2.87685-21.94-20.919,1.33913-54.43722-.14351-108.94006.87523-163.39108.29436-15.7256-4.09773-20.50452-19.58791-19.2261-17.12088,1.41291-34.49191,1.07257-51.6709.07138-12.246-.71372-14.832,4.0045-14.72865,15.344.51443,56.53387-.23523,113.08167.56319,169.60894.1986,14.05339-2.84956,19.18219-17.8713,18.5072-28.21241-1.26775-56.53295-.81921-84.786-.14712-11.66633.27756-17.19264-1.59053-17.15247-15.43238q.70153-240.97638.00405-481.95526c-.03816-13.43244,4.68568-16.03108,16.7813-15.70395,28.93756.7826,57.93272.91433,86.85967-.048,13.06357-.43456,16.24034,3.97478,16.09986,16.44046-.61272,54.46321.41285,108.95082-.68068,163.399-.32241,16.061,4.58967,20.3472,19.73749,18.944,14.35621-1.3299,29.127-1.78151,43.36527.07207,20.27517,2.63954,23.42465-6.32191,23.05525-24.10646-1.07282-51.68987.188-103.42651-.734-155.1222-.27061-15.16538,3.23589-20.55306,19.29178-19.71979,27.5057,1.42752,55.17665,1.2498,82.70357.04332,14.34813-.62885,16.991,4.69508,16.90839,17.64427C3160.04573,231.74908,3160.30017,311.73213,3160.30042,391.71354Z"/><path class="cls-1" d="M26.625,392.47394c.00181-77.24662.38309-154.49692-.35816-231.73641-.12972-13.51666,3.07857-19.73661,16.94311-21.39917,61.80673-7.41158,123.568-11.62926,185.04338,1.957,60.41087,13.351,102.22415,61.31585,107.32651,123.42116,2.95884,36.01466.63542,71.75834-14.04828,105.46755-29.31017,67.28691-86.03139,91.37888-154.2165,94.18641-18.13311.74662-22.97258,4.55524-22.44206,22.75621,1.406,48.23813.164,96.54788.70956,144.82081.12793,11.3176-2.4898,15.773-14.73976,15.42342-29.63305-.84568-59.33446-1.032-88.9514.05969-13.92134.5131-15.53632-5.35923-15.47756-17.0106C26.81388,551.10629,26.62319,471.78964,26.625,392.47394Zm118.7248-92.76522q0,20.68968.00009,41.37935c.00131,30.77081,6.4473,35.12525,35.77425,24.32262,15.13343-5.57444,25.4217-15.89855,31.22445-30.90819,9.35479-24.19758,9.473-48.47273.33718-72.65673-9.12936-24.16692-27.76042-34.99471-53.33156-33.11-10.50116.774-14.5527,4.42817-14.17814,15.11713C145.82781,262.45081,145.35734,281.088,145.3498,299.70872Z"/><path class="cls-1" d="M4954.603,419.03505c15.32014-42.35913,31.58625-84.41168,45.46316-127.23828,5.07757-15.671,12.6343-19.56735,27.93372-19.08495,34.83957,1.09853,69.73777.34657,108.24555.34657-26.84271,48.15237-51.26285,93.33883-77.19647,137.63916-7.80535,13.33273-8.49058,24.1402-2.47461,38.182,27.79425,64.86963,54.58692,130.16812,82.94158,198.19939-42.982,0-83.32007-.36921-123.644.2346-11.46749.17162-11.38916-8.026-13.319-14.66245-11.71561-40.27845-23.07546-80.66044-35.13267-123.04266-10.35121,12.836-15.98364,24.74886-15.63748,39.87249.64581,28.25043-.38153,56.54293.45075,84.78364.35676,12.11279-5.307,13.12282-14.9093,12.98348-28.94842-.42006-57.92716-.77543-86.85284.13909-12.57164.39744-16.64158-2.96314-16.29038-15.94921.91415-33.75564.30573-67.55246.30573-101.33287-.00051-129.60648.29713-259.21454-.38-388.8175-.08439-16.20907,4.026-21.31179,20.428-20.4551,26.81339,1.4005,53.78142,1.11277,80.62766.07143,13.553-.52568,17.2126,3.55844,17.11962,17.10565-.61145,88.92808-.3229,177.86234-.32745,266.79459q-.00076,6.84936,0,13.69872Q4953.27881,418.76891,4954.603,419.03505Z"/><path class="cls-1" d="M3659.60157,495.53024c8.65279-66.1929,17.89656-132.31739,25.57609-198.623,2.13477-18.4308,7.69367-25.966,27.63582-24.36146,26.03872,2.09507,52.38039.89377,78.57577.34252,11.448-.24089,13.67578,2.36517,10.44116,14.09689-31.05439,112.62724-60.00256,225.85454-92.4878,338.06059-18.42489,63.64019-48.55478,121.47444-105.6916,160.72467-48.32738,33.19858-51.12566,32.49-68.82262-21.33168-.21527-.65466-.47956-1.29321-.69306-1.94831-5.336-16.36055-16.33838-33.40665-14.46891-48.89923,2.02866-16.80991,26.36492-16.30186,39.13035-26.56464,12.55269-10.09128,23.33293-21.07353,32.13909-34.54983,7.79271-11.92507,8.98024-23.12675,4.66016-36.992-33.37917-107.13-65.58116-214.62851-99.3454-321.635-5.7393-18.1885-2.50366-21.99582,15.76837-21.157,29.593,1.35849,59.32339,1.14691,88.93582.02217,13.88323-.52738,19.29381,4.0623,21.38487,17.55579,9.59119,61.89085,19.96489,123.66068,30.13343,185.4615,1.10162,6.69624,2.69392,13.31182,4.05882,19.96476Z"/><path class="cls-1" d="M3380.98071,612.59957c-32.38846,36.73312-71.00034,47.16291-113.98358,36.07657-55.47858-14.30922-86.59109-76.69979-72.719-141.70061,12.84224-60.17415,55.57308-89.13815,110.8235-103.80609,16.51044-4.38324,33.81855-6.48353,50.90053-7.74736,12.19617-.90237,11.98242-7.0466,8.77205-14.90043-7.78185-19.03919-24.40448-25.46359-42.98578-26.85714-26.05413-1.954-50.615,5.23-73.413,17.10683-10.63344,5.53957-13.92214,3.75259-16.40205-7.38545-4.03432-18.1167-9.239-35.9844-14.32742-53.84961-2.418-8.48973-1.18045-14.11593,7.85943-17.9447,53.17351-22.52111,108.04468-33.19288,165.16533-20.3479,62.05471,13.95454,94.45707,60.5968,95.68553,136.20178.98515,60.63044.69559,121.28159.971,181.92352.01263,2.75683-.19784,5.534.06013,8.26728,1.518,16.0878,10.7997,38.09392.99652,46.63737-9.53889,8.31333-31.4243,2.50954-47.89078,2.80137-7.579.13435-15.16222.02292-22.74371.02292C3386.72431,647.09786,3386.72431,647.09786,3380.98071,612.59957Zm-11.134-105.90229h.73348c0-8.96193.09779-17.92534-.03992-26.88519-.07378-4.81678.00607-9.055-7.21285-9.79155-36.944-3.76974-70.00938,37.0329-57.2442,71.74292,5.29132,14.38749,14.71626,25.6006,32.02412,23.83554,17.74017-1.80915,29.23621-11.91565,31.52713-30.00336C3370.83644,526.10615,3369.84675,516.339,3369.84675,506.69728Z"/><path class="cls-1" d="M4453.29546,612.55163c-32.8996,36.85326-71.44579,47.305-114.51216,35.97885-54.75924-14.40138-85.61175-75.45794-72.699-139.95239,12.08348-60.3544,54.50354-89.83661,109.57356-105.14645,16.445-4.5717,33.79808-6.8678,50.87324-7.88032,14.81227-.87846,13.89914-7.95683,9.41129-17.28354-8.45874-17.57922-24.597-23.44656-42.3958-24.63169-25.308-1.68509-49.42748,4.63231-71.43215,16.58845-12.8622,6.98839-16.26156,2.86169-18.70535-9.2139-2.86169-14.14344-5.40553-28.712-10.99955-41.8567-8.22376-19.32536-.09349-26.28267,17.02664-32.63883,39.27386-14.58077,79.40173-21.9348,121.227-20.2691,79.76305,3.17658,125.94984,52.87755,127.80188,139.55327,1.29517,60.62026.53919,121.28209,1.185,181.92017a276.65749,276.65749,0,0,0,3.71166,45.19912c2.32352,13.09908-2.8531,14.70679-13.90015,14.38635-23.414-.67916-46.97107-1.59558-70.25826.25115-17.29447,1.37153-23.44739-5.38349-23.80516-21.092C4455.32134,623.10687,4454.41983,619.76846,4453.29546,612.55163ZM4442.02,506.737l.73728,0c0-8.96306.11117-17.92809-.045-26.8884-.08288-4.76029.144-9.073-7.13781-9.83287-36.87758-3.84835-70.045,36.98212-57.33289,71.69536,5.27212,14.39759,14.68746,25.62789,31.993,23.894,17.74623-1.77794,29.26072-11.87857,31.57109-29.96647C4443.01753,526.15043,4442.02,516.38,4442.02,506.737Z"/><path class="cls-1" d="M571.42659,462.90629c-.594-34.77331,4.14069-68.68475,17.18165-101.10518,25.53124-63.47192,80.218-98.93839,146.8321-95.49455,60.79946,3.14322,107.45369,41.576,126.592,106.78163,19.37366,66.00773,18.67327,132.14265-8.78929,195.81164-25.21756,58.46427-75.00876,85.93624-143.231,83.073-57.62623-2.41858-102.15447-36.3663-123.33784-93.79767C575.32168,527.39676,571.28851,495.50131,571.42659,462.90629Zm116.78717-4.29055c1.028,29.104.99657,57.4025,12.26875,83.99289,4.54078,10.71132,11.97055,20.0609,23.76947,20.43112,12.80125.40168,18.75753-10.4946,21.8295-21.4421,15.20656-54.19184,15.52757-108.53507-.14781-162.69164-3.11562-10.76394-8.45116-21.49374-21.56237-21.94617-13.97614-.48224-19.93482,10.30674-24.47327,21.53189C689.36193,404.55083,689.243,432.15159,688.21376,458.61574Z"/><path class="cls-1" d="M1259.48706,509.26022c-24.11669.00029-48.26219.72174-72.34061-.23794-17.85715-.7117-18.27544,6.50582-11.44323,19.44875,10.691,20.25375,28.787,28.83075,50.20254,31.52644a184.67812,184.67812,0,0,0,77.61943-6.52288c13.53732-4.14505,17.89214-1.118,19.37845,12.93,2.01817,19.07437,6.43338,37.91679,10.27074,56.767,1.71092,8.4048-1.07825,13.10767-9.256,15.10809-50.5612,12.36793-101.48068,19.38717-153.06972,7.207-54.4069-12.8454-89.806-47.3092-104.80488-100.41879-17.73751-62.80711-15.18634-125.57914,11.31248-185.847,30.588-69.56767,97.543-104.146,169.745-89.37,52.02,10.64573,87.69624,50.90764,98.79623,111.29782,6.90207,37.55109,5.56951,75.36432,4.423,113.23838-.35626,11.76945-5.14276,15.34613-16.42125,15.06472C1309.109,508.83328,1284.29277,509.25994,1259.48706,509.26022Zm-52.68018-82.40017c43.45,0,43.83094-.09166,34.44744-39.07495-3.9119-16.252-9.36253-33.3654-29.97437-34.68255-20.56232-1.314-28.34392,14.84737-34.17747,30.511C1162.9935,421.49731,1166.99623,426.86,1206.80688,426.86005Z"/><path class="cls-1" d="M1789.25528,171.67854c0,29.298,1.19056,55.50522-.41955,81.53925-1.07,17.30446,5.462,21.45646,21.0559,20.078,12.996-1.14878,26.19967.26925,39.264-.3893,10.37408-.52289,14.86774,2.47319,14.38389,13.76615-.82559,19.26649-.535,38.60089-.09475,57.89258.20213,8.86115-2.88115,12.289-11.91218,12.01375-16.52889-.50369-33.10149.32376-49.6223-.29871-10.01807-.37745-12.915,3.375-12.82885,13.13814.41349,46.87219-.47817,93.76288.42372,140.62135.61044,31.70883,15.41287,44.81366,47.327,42.09491,14.26261-1.21494,17.995,2.94115,17.39111,16.49989-.94989,21.32765-.4817,42.73216-.13972,64.09657.12949,8.0877-1.99139,13.10666-10.85149,14.20518-30.78669,3.81709-61.39108,7.27034-92.4523,1.053-40.29058-8.06471-64.13288-32.32075-73.94528-71.349-7.29282-29.00615-6.7645-58.68424-6.75856-88.28922.00771-37.91426-.638-75.84476.32594-113.73449.36257-14.25534-3.38067-20.98057-18.11689-18.13148-21.62516,4.18095-28.5952-5.319-25.40251-25.79121,1.04957-6.72981.10321-13.76191.17951-20.65457.12192-11.01455-3.31851-24.10779,1.459-32.50245,5.65188-9.93077,20.015-3.6038,30.52-4.25638,7.84034-.48707,11.55415-3.06151,11.033-11.00681a42.91845,42.91845,0,0,1,.02451-6.201c1.51713-19.024-8.19142-43.15583,4.10481-55.721,10.95988-11.19984,34.40322-10.27955,52.3905-14.48071C1746.62,181.19376,1766.70612,176.77325,1789.25528,171.67854Z"/><path class="cls-1" d="M4066.93844,454.4689c0-32.22885-.56041-57.75261.24761-83.23294.37622-11.87276-3.60983-15.063-15.21275-15.09112-28.05474-.068-28.05323-.68877-28.05323-28.80529V306.659c0-30.6169-.02981-31.01469,31.24111-33.36246,8.931-.67061,12.17976-3.61366,11.88186-12.33712-.42321-12.39367,1.22493-24.98891-.39693-37.18075-2.558-19.22535,3.91278-28.29581,23.7382-31.37838,25.73325-4.00111,51.12034-10.56465,76.395-17.04556,14.237-3.65072,21.08218-2.6739,19.75872,15.12217-1.68275,22.62353.02577,45.479-.60589,68.21009-.29183,10.50692,2.82783,14.3799,13.84305,14.67325,19.65487.52346,48.90042-9.24564,56.65676,3.932,10.01466,17.015,2.93193,43.906,3.90722,66.514.43964,10.17826-3.6394,13.1733-13.24827,12.78321-14.45249-.58675-28.98734.51822-43.411-.35161-12.601-.75989-18.26673,1.88533-17.92184,16.5683,1.03618,44.09406.11143,88.23013.45,132.34595.27641,35.99723,13.65153,49.01147,48.8226,47.007,11.03594-.629,16.57942.71207,16.05489,13.64995-.89292,22.023-.55283,44.11481-.096,66.16457.188,9.11574-2.39325,13.94816-12.18253,15.154-30.82068,3.796-61.443,7.08178-92.44232.6112-39.3441-8.21233-62.95041-32.22815-72.457-70.3714C4063.27276,534.69558,4068.08706,491.02351,4066.93844,454.4689Z"/><path class="cls-1" d="M1023.33238,473.37234c0,59.28644,1.6499,118.632-.47173,177.84239-2.05392,57.32285-20.20164,107.14949-79.27148,130.88024-26.49384,10.6436-54.31044,14.51451-82.71772,15.48658-8.64679.29587-12.33773-2.19832-12.94419-11.187-1.57575-23.355-3.46733-46.71411-6.25158-69.94951-1.08344-9.042,2.16787-11.49913,10.16771-13.74192,43.20073-12.11134,49.71931-18.72221,52.07169-64.01249,4.8647-93.65991.99387-187.44575,1.98248-281.17246q.37095-35.16136-.052-70.32885c-.1005-8.45979.3572-14.49108,11.68339-14.2927,31.70778.55526,63.44134.6359,95.145-.03421,13.62526-.28794,11.54317,8.31306,11.54544,16.4091q.02463,92.05009.009,184.1002Z"/><path class="cls-1" d="M3879.36393,651.36779a218.33239,218.33239,0,0,1-76.77123-13.39363c-10.09172-3.66371-15.62359-8.43158-11.72369-21.41519,6.1188-20.37,10.09753-41.44432,13.9282-62.41312,1.83157-10.02546,5.331-10.65333,13.47567-6.34487a137.1558,137.1558,0,0,0,59.27741,15.68883c13.28087.51418,27.09714-1.78956,32.71314-16.36794,5.9758-15.51127-4.58714-24.64246-15.84416-32.079-12.59792-8.32252-26.00512-15.41119-38.73088-23.55126-52.26644-33.43232-71.34877-78.22118-57.244-133.69095,13.42136-52.78225,55.66555-86.73763,114.20973-91.22339,27.78287-2.12877,54.713,2.3045,81.11177,11.36873,9.30189,3.19391,13.54718,6.29466,10.76356,17.27245-5.3982,21.2874-9.33221,42.95627-13.51181,64.537-1.57714,8.144-4.68113,10.25173-12.45692,6.16628a94.27825,94.27825,0,0,0-43.77814-10.4265c-12.71919-.05259-25.21983,3.19758-30.06823,17.10225-4.80924,13.79169,4.09672,22.25941,14.21017,28.88835,15.50433,10.16234,32.09917,18.72288,47.2245,29.39074,59.06694,41.66045,71.488,119.60161,28.56058,175.8716C3973.69618,634.2927,3929.557,651.34783,3879.36393,651.36779Z"/><path class="cls-1" d="M1374.30672,466.56044c-.624-28.55812,3.42539-56.43063,12.98159-83.302,33.07887-93.01488,119.75321-126.99772,207.59448-111.53809,15.32974,2.698,18.7972,10.24941,15.28249,24.04841-1.85836,7.29607-2.36356,14.93141-3.58356,22.39657-2.44151,14.93934-1.017,32.35218-8.46417,44.15192-8.73567,13.84119-26.17466.60814-39.96693,2.20811-28.43829,3.2989-49.15726,19.4523-59.72639,52.01463-10.82345,33.34563-9.406,66.49784,4.527,98.69282,13.46089,31.10379,43.0454,46.47389,75.802,37.04327,17.15272-4.93823,19.45943.93859,19.87229,15.4363.54791,19.2398,1.71408,38.61143,4.75542,57.58322,2.40589,15.00771-4.79408,18.90919-16.98785,21.55473-119.72517,25.97593-206.46153-41.19735-211.19232-163.78278C1374.98829,477.56192,1374.60853,472.06268,1374.30672,466.56044Z"/><path class="cls-1" d="M4757.66472,651.317c-97.12118-.45518-160.3331-61.923-165.89073-158.5302-2.44025-42.41128-.091-84.10912,17.491-123.5866,38.89233-87.32621,128.2779-113.30308,206.68312-96.05322,11.05614,2.43235,13.10375,7.474,11.42453,17.07689-1.8955,10.83945-3.1467,21.79008-4.90525,32.65562-2.30937,14.26283-.63621,31.79638-8.48755,41.778-7.46173,9.48615-24.67635-.92005-37.816.03891-25.84265,1.88615-44.68444,14.29732-55.34947,37.12974-17.87054,38.25909-17.44505,77.53046-.28248,115.87852,13.26546,29.63972,42.98654,43.21728,75.40658,34.56847,14.40094-3.84185,18.87919-.76375,19.20664,13.99781a537.94114,537.94114,0,0,0,4.84664,61.72675c1.68427,12.16762-3.888,16.05223-13.70055,17.86681C4789.36821,648.99387,4772.50581,652.819,4757.66472,651.317Z"/><path class="cls-1" d="M468.984,324.58843c12.71127-19.7283,21.01873-37.66684,39.08553-47.03471,6.66469-3.45574,13.42919-7.13016,20.5867-9.15345,31.49776-8.90377,39.39628-2.95135,39.39571,28.75217q-.00066,38.285-.023,76.56988c-.0132,6.10829,1.04281,11.32836-9.19969,11.38632-53.863.30465-76.56808,23.72282-76.8378,78.39953-.27225,55.18423-.55018,110.37808.27155,165.55144.21426,14.3842-3.60188,19.00318-18.26123,18.37708-27.54256-1.17642-55.21132-1.22935-82.74785.01528-15.04845.68018-18.0715-4.66092-17.92849-18.634.69189-67.59517.62421-135.20331.20191-202.803-.28406-45.47618-.91213-90.97575-2.86656-136.40117-.62961-14.63267,4.47083-17.26926,17.304-16.79138,22.73246.84649,45.55213.97213,68.27076-.04365,13.38389-.5984,18.73927,3.55725,18.53906,17.245C464.62534,300.22924,467.14609,310.47376,468.984,324.58843Z"/><path class="cls-1" d="M2166.8611,54.66356c46.90613.00012,93.81858.41419,140.71461-.27116,12.81774-.18732,21.74063,3.88752,30.70672,12.89426q176.65392,177.457,354.156,354.06685c12.888,12.80264,12.79424,20.93042-.023,33.63938q-147.681,146.43263-294.13781,294.0961c-13.13306,13.24082-21.683,11.46312-33.91861-.83715q-176.58721-177.52164-354.0786-354.14255c-9.01157-8.97586-12.93017-18.15925-12.87344-30.90627q.63045-141.75051-.049-283.50391c-.11433-18.24087,4.865-25.949,24.656-25.44005C2070.268,55.49983,2118.57515,54.66344,2166.8611,54.66356Zm-144.12662,172.1196c0,42.77555.29663,85.55458-.20162,128.32436-.12987,11.15522,2.9788,19.44288,10.98742,27.42156q167.88919,167.26305,335.13157,335.17408c9.59549,9.64217,15.35525,11.69223,26.138.80259q133.251-134.572,267.77138-267.88347c9.405-9.33849,10.21073-14.86865.35727-24.66712q-169.51206-168.56638-338.15724-338.003c-6.34014-6.35767-12.84528-9.13576-21.8235-9.11035-87.62019.24819-175.24265.38744-262.861-.0984-13.47631-.07471-17.83972,4.08505-17.61017,17.64789C2023.20166,139.84434,2022.73966,183.31767,2022.73448,226.78316Z"/><path class="cls-1" d="M965.98363,112.69414c35.46214.46447,57.44665,24.98412,56.97872,63.54928-.42246,34.82056-26.141,60.528-59.78236,59.75659-35.03862-.80341-56.83906-25.68515-56.43416-64.41087C907.12653,135.17347,930.20805,112.22556,965.98363,112.69414Z"/><path class="cls-2" d="M2022.737,226.78316c.00265-43.46549.46465-86.93882-.27035-130.39187-.22955-13.56284,4.13386-17.7226,17.61017-17.64789,87.6183.48584,175.24076.34659,262.861.0984,8.97822-.02541,15.48336,2.75268,21.8235,9.11035q168.80485,169.27553,338.15724,338.003c9.85346,9.79847,9.04771,15.32863-.35727,24.66712q-134.38684,133.43913-267.77138,267.88347c-10.78277,10.88964-16.54253,8.83958-26.138-.80259q-167.17214-167.97959-335.13157-335.17408c-8.00862-7.97868-11.11729-16.26634-10.98742-27.42156C2023.03111,312.33774,2022.73448,269.55871,2022.737,226.78316Zm184.55718-36.844c-.18015-41.748-31.44653-72.80967-73.27105-72.79126-41.84777.01844-75.16655,33.63342-74.23156,74.89188.89772,39.61148,35.85744,73.33751,75.35491,72.69546C2175.58034,264.07792,2207.47131,231.01607,2207.29419,189.93912Z"/><path class="cls-1" d="M2207.29419,189.93912c.17712,41.077-31.71385,74.1388-72.1477,74.79608-39.49747.642-74.45719-33.084-75.35491-72.69546-.935-41.25846,32.38379-74.87344,74.23156-74.89188C2175.84766,117.12945,2207.114,148.19109,2207.29419,189.93912Zm-24.09876,1.02361c.22311-28.14859-21.04983-49.671-49.121-49.69746-27.47589-.0259-49.8838,22.41089-49.64806,49.71207.22512,26.04733,22.40741,48.51884,48.62,49.25386C2159.882,240.98372,2182.9789,218.29231,2183.19543,190.96273Z"/></svg>