<?xml version="1.0" encoding="UTF-8" standalone="no"?>
<!DOCTYPE svg PUBLIC "-//W3C//DTD SVG 1.1//EN" "http://www.w3.org/Graphics/SVG/1.1/DTD/svg11.dtd">
<svg xmlns="http://www.w3.org/2000/svg" xmlns:xlink="http://www.w3.org/1999/xlink" version="1.1" width="905.433pt" height="246.974pt" viewBox="0 0 905.433 246.974">
<g enable-background="new">
<g id="Layer-1" data-name="Layer 1">
<clipPath id="cp0">
<path transform="matrix(1,0,0,-1,0,246.974)" d="M 0 246.974 L 905.433 246.974 L 905.433 0 L 0 0 Z "/>
</clipPath>
<g clip-path="url(#cp0)">
<path transform="matrix(1,0,0,-1,524.6846,111.2699)" d="M 0 0 L 59.164 0 C 58.774 12.932 46.243 21.863 21.511 25.434 C 6.509 27.641 -8.864 28.896 -24.08 28.945 L -26.24 28.945 C -59.758 28.818 -92.264 22.885 -117.755 8.787 C -147.391 -7.656 -149.687 -32.477 -120.109 -44.561 C -95.3 -54.727 -43.072 -55.758 -5.731 -49.424 C 18.495 -45.299 36.971 -37.35 47.353 -25.461 L -13.067 -25.461 C -20.899 -31.475 -31.115 -34.471 -43.072 -34.598 C -76.979 -34.801 -81.445 -24.547 -75.529 -12.725 C -68.505 1.217 -53.765 8.787 -31.241 9.398 C -13.544 9.857 -4.777 5.965 0 0 " fill="#0066b3" fill-rule="evenodd"/>
<path transform="matrix(1,0,0,-1,678.2617,85.09799)" d="M 0 0 L -26.278 -58.541 L 62.521 -58.541 L 54.271 -76.891 L -98.471 -76.891 L -64.067 0 Z " fill="#0066b3" fill-rule="evenodd"/>
<path transform="matrix(1,0,0,-1,164.6494,162.0375)" d="M 0 0 L 62.521 0 L 75.918 30.678 L 137.193 30.678 L 123.455 .02 L 186.687 .02 L 221.392 76.93 L 157.684 76.93 L 146.271 50.992 L 85.054 50.992 L 96.622 76.93 L 34.753 76.939 Z " fill="#0066b3" fill-rule="evenodd"/>
</g>
</g>
</g>
</svg>
