<svg xmlns="http://www.w3.org/2000/svg" role="img" viewBox="-16.56 -16.56 1017.12 179.12"><title>HCL Software logo</title><path fill="#006cb7" d="M488.93 11.36c48.69-9.77 98.95-9.62 148.12-3.75 20.32 2.64 41.47 5.31 59.38 16.04 10.46 6.06 18.55 17.07 18.93 29.44-33.52.69-67.04.34-100.55.24-10.01-11.69-26.01-15.35-40.74-16.02-19.74-.66-40.26.83-58.34 9.43-15.28 7.24-28.39 20.65-32.43 37.4-1.97 7.63 2.96 15.52 9.66 18.97 12.95 6.61 27.8 7.38 42.06 7.91 18.66.75 38.1-2.74 53.94-13.09 1.57-.89 2.94-2.58 4.94-2.33 33.89-.12 67.79-.07 101.68.08-11.67 13.06-27.19 22.03-43.35 28.37-20.26 7.96-41.78 12.14-63.28 15.01-23.86 2.84-47.89 4.59-71.92 4.24-32.51-.18-65.39-2.29-96.75-11.39-14.46-4.51-29.05-11.42-38.48-23.72-7.86-9.75-8.96-23.92-3.81-35.17 6.68-14.8 19.75-25.5 33.46-33.56 23.95-13.77 50.49-22.56 77.48-28.1zM62.45 8.22c35.23-.57 70.47.33 105.71.19-6.48 14.63-13.06 29.23-19.56 43.86 34.29.06 68.58-.12 102.87.09 6.71-14.58 12.96-29.39 19.68-43.97 36.21-.04 72.41-.13 108.62.01-19.65 43.42-39.22 86.86-58.78 130.32-30.33.66-60.67.26-91 .35-5.74.06-11.5.19-17.19-.61 8.02-17.06 15.59-34.33 23.3-51.52-34.39-.01-68.79-.01-103.18-.01-7.46 17.24-15.16 34.38-22.38 51.71-35.64.76-71.28.47-106.92.27C22.94 95.21 43.01 51.85 62.45 8.22zM766.16 8H875.4c-14.75 33.08-29.59 66.11-44.49 99.13 50.18.03 100.37.15 150.55.14-4.77 10.58-9.53 21.16-14.31 31.73-86.53.07-173.06.09-259.58-.01C726.86 95.22 746.58 51.64 766.16 8z"/></svg>