<?xml version="1.0" encoding="UTF-8"?><svg id="Layer_2" xmlns="http://www.w3.org/2000/svg" viewBox="0 0 277.92 83.94"><defs><style>.cls-1{fill:#f07f12;}.cls-1,.cls-2{stroke-width:0px;}.cls-2{fill:#1e2143;}</style></defs><g id="Layer_1-2"><path class="cls-2" d="m28.8,44.68h-11.6v-20.5c0-1.38,1.12-2.5,2.5-2.5h6.6c1.38,0,2.5,1.12,2.5,2.5v20.5Z"/><path class="cls-2" d="m42.56,83.94h-6.6c-1.38,0-2.5-1.12-2.5-2.5v-20.5h11.6v20.5c0,1.38-1.12,2.5-2.5,2.5Z"/><rect class="cls-2" x="25.33" y="41.31" width="11.6" height="23" transform="translate(-28.22 37.48) rotate(-45)"/><path class="cls-2" d="m23,50.48H2.5c-1.38,0-2.5-1.12-2.5-2.5v-6.6c0-1.38,1.12-2.5,2.5-2.5h20.5v11.6Z"/><rect class="cls-1" x="59.25" y="1.3" width="11.32" height="11.96" rx="2.3" ry="2.3" transform="translate(13.86 48.03) rotate(-45)"/><path class="cls-2" d="m141.8,53.37c0-3.3.5-6.71,1.6-9.91.9-2.9,2.5-5.71,4.61-8.01,2-2.3,4.51-4.11,7.31-5.41,3-1.3,6.21-2,9.51-2,3.2-.1,6.51.6,9.51,1.9,2.8,1.2,5.21,2.9,7.31,5.11,2.1,2.2,3.5,4.71,4.71,7.61,1.1,2.9,1.7,6.01,1.7,9.11v4.31c0,1.4-1.1,2.5-2.5,2.5h-31.54c0,1.3.2,2.6.9,3.8.6,1.1,1.4,2.1,2.4,2.8,1,.8,2.2,1.3,3.5,1.7,1.3.4,2.7.6,4,.6,1.7.1,3.3-.2,4.91-.6,1.1-.3,2.1-.9,3.1-1.5.6-.4,1.1-.7,1.7-1,.6-.2,1.2-.3,1.7-.3h7.51c.7,0,1.3.2,1.8.7s.8,1.1.7,1.7c-.2,1.2-.7,2.4-1.4,3.4-1.1,1.6-2.4,2.9-4,4-2.1,1.4-4.31,2.5-6.71,3.3-2.9.9-6.11,1.4-9.11,1.3-3.2.1-6.51-.6-9.51-1.8-2.8-1.2-5.21-2.9-7.31-5.21-2.1-2.3-3.6-5.01-4.61-8.01-1.3-3.2-1.9-6.61-1.8-10.11Zm22.93-14.02c-1.6-.1-3.2.2-4.71.8-1.2.5-2.3,1.2-3.2,2.1-.9.8-1.5,1.7-2.1,2.8-.5.9-.7,1.9-.9,2.9h21.13c-.2-1-.4-2-.7-2.9-.4-1-.9-2-1.7-2.8-.9-.9-1.9-1.6-3.1-2.1-1.4-.5-3.1-.8-4.71-.8Z"/><path class="cls-2" d="m137.75,14.82s0,0,0-.01v-.3c0-1.19-.97-2.16-2.16-2.16h0c-.11-.01-.22-.03-.34-.03h-7.61c-.12,0-.23.02-.34.03h0c-1.19,0-2.16.97-2.16,2.16v24.34h-28.23V14.51c0-1.19-.97-2.16-2.16-2.16h0c-.11-.01-.22-.03-.34-.03h-7.61c-.12,0-.23.02-.34.03h0c-1.19,0-2.16.97-2.16,2.16v60.93c0,1.19.97,2.16,2.16,2.16h8.3c1.19,0,2.16-.97,2.16-2.16v-24.97h28.23v24.97c0,1.19.97,2.16,2.16,2.16h8.3c1.19,0,2.16-.97,2.16-2.16v-.33s0,0,0-.01V14.82Z"/><rect class="cls-2" x="192.09" y="11.51" width="12.11" height="66.18" rx="2.5" ry="2.5"/><rect class="cls-2" x="211.83" y="11.41" width="13.02" height="12.32" rx="2.5" ry="2.5"/><rect class="cls-2" x="212.28" y="29.14" width="12.11" height="48.46" rx="2.5" ry="2.5"/><path class="cls-2" d="m277.83,49.86c.1-2.9-.3-5.61-.9-8.41-.6-2.5-1.7-4.81-3.3-6.91-1.7-2-3.8-3.7-6.21-4.71-3-1.2-6.31-1.8-9.51-1.7-2.7-.1-5.31.5-7.71,1.6-2.2,1-4,2.3-5.71,4v-2.1c0-.6-.2-1.2-.7-1.7-.4-.5-1.1-.7-1.7-.7h-7.11c-1.38,0-2.5,1.12-2.5,2.5v43.38c0,1.38,1.12,2.5,2.51,2.5l7.12-.02c1.38,0,2.49-1.12,2.49-2.5v-23.64c0-3.7.9-6.71,2.8-9.01,2-2.2,4.81-3.5,7.81-3.3,3.6,0,6.31,1.1,8.01,3.3,1.7,2.3,2.6,5.31,2.6,9.01v23.63c0,1.38,1.12,2.5,2.5,2.5h7.1c1.38,0,2.5-1.12,2.5-2.51l-.09-25.23Z"/><path class="cls-2" d="m43.35,65.04l-8.2-8.2,14.57-14.56v-18.22l-15.1-15.1c-.98-.98-.98-2.56,0-3.54l4.67-4.67c.98-.98,2.56-.98,3.54,0l17.77,17.77c.47.47.73,1.1.73,1.77v25.76c0,.66-.26,1.3-.73,1.77l-17.23,17.23Z"/></g></svg>