<?xml version="1.0" encoding="utf-8"?>
<!-- Generator: Adobe Illustrator 24.0.1, SVG Export Plug-In . SVG Version: 6.00 Build 0)  -->
<svg version="1.1" id="Layer_1" xmlns="http://www.w3.org/2000/svg" xmlns:xlink="http://www.w3.org/1999/xlink" x="0px" y="0px"
	 viewBox="0 0 400 245" style="enable-background:new 0 0 400 245;" xml:space="preserve">
<style type="text/css">
	.st0{fill:none;stroke:#02348D;stroke-width:11.8644;stroke-linecap:round;stroke-linejoin:round;}
	.st1{fill:#02348D;}
</style>
<title>logo_horizontal_1</title>
<desc>Created with Sketch.</desc>
<g id="Page-1">
	<g id="logo_horizontal_1" transform="translate(2.000000, 0.000000)">
		<g id="logo_horizontal-copy-2" transform="translate(0.000000, 2.000000)">
			<g id="logo_hpd">
				<g id="Group-3" transform="translate(0.641176, 0.000000)">
					<g id="Group-2" transform="translate(0.143750, 0.000000)">
						<g id="Group">
							<path id="Path-24" class="st0" d="M4.8,162.8l44.6-74.7c5.4-9,17-11.9,26-6.6c2.7,1.6,5,3.9,6.6,6.6l44.6,74.7"/>
							<path id="Path-25" class="st0" d="M126.9,162.8c2.6,0,11,0,25.4,0c33.3,0.5,27.3-46.3,0-41.5c-5.3-12.8-23.3-16.3-31.7,0
								c-0.1-0.1-10.6-11.8-22,3s-17.9,0.6-32.8-10.2s-34.3,4.7-37.8,10.2"/>
						</g>
						<path id="Path-26" class="st0" d="M5.2,162.8h121.2"/>
					</g>
				</g>
			</g>
		</g>
		<g id="Group-20" transform="translate(68.000000, 0.000000)">
			<path id="HighPeakData" class="st1" d="M138,103.8V76h7.7v10.4h9.9V76h7.7v27.8h-7.7V93.2h-9.9v10.6H138z M166.6,103.8V82.3h7.5
				v21.5H166.6z M166.4,80.3v-5.6h7.9v5.6H166.4z M187.5,110.2c-4.2,0-7.7-0.9-10.8-2.5l2.4-5c2.3,1.3,4.6,2,7.5,2
				c3.8,0,5.6-1.9,5.6-5.3v-0.8c-1.5,1.7-3.5,3.2-6.6,3.2c-5.3,0-9.5-3.8-9.5-10.1c0-6.2,4.3-10,9.3-10c3.2,0,5.1,1.3,6.8,3v-2.5
				h7.5v16.3c0,3.9-0.9,6.7-2.8,8.6C195,109.1,192,110.2,187.5,110.2z M187.9,96.1c2.5,0,4.4-1.8,4.4-4.3c0-2.4-1.8-4.1-4.4-4.1
				c-2.6,0-4.4,1.8-4.4,4.3C183.5,94.3,185.3,96.1,187.9,96.1z M202.3,103.8v-29h7.5v10.4c1.4-1.8,3.4-3.4,6.4-3.4
				c4.6,0,7.3,3,7.3,7.9v14.1h-7.5V92.1c0-2.3-1.2-3.6-3-3.6c-1.8,0-3.2,1.3-3.2,3.6v11.6H202.3z M236.1,103.8V76h11.9
				c7,0,11.6,3.6,11.6,9.9c0,6.6-5,10-12,10h-3.8v7.9H236.1z M243.8,89.8h3.7c2.7,0,4.4-1.4,4.4-3.7c0-2.4-1.7-3.7-4.4-3.7h-3.6
				V89.8z M271.7,104.3c-6.8,0-11.5-4.5-11.5-11.2c0-6.3,4.5-11.2,10.8-11.2c7.4,0,10.8,5.4,10.8,11.8c0,0.5,0,1,0,1.5h-14.4
				c0.6,2.3,2.3,3.5,4.6,3.5c1.8,0,3.2-0.7,4.8-2.2l4.2,3.5C278.9,102.6,276,104.3,271.7,104.3z M267.3,91.3h7.5
				c-0.3-2.4-1.7-3.9-3.7-3.9C269,87.4,267.7,88.9,267.3,91.3z M289.8,104.3c-4.1,0-7.2-2.3-7.2-6.7c0-4.4,3.4-6.8,8.4-6.8
				c2,0,3.9,0.4,5.2,0.8v-0.4c0-2.2-1.4-3.5-4.3-3.5c-2.3,0-4,0.4-5.9,1.2l-1.5-5.3c2.4-1,5-1.7,8.7-1.7c3.9,0,6.5,0.9,8.2,2.6
				c1.6,1.6,2.3,3.8,2.3,6.8v12.4h-7.5v-2.2C294.6,103.2,292.6,104.3,289.8,104.3z M292.5,99.5c2.2,0,3.7-1.4,3.7-3.5v-1
				c-0.8-0.3-1.8-0.6-2.9-0.6c-2.2,0-3.5,1.1-3.5,2.7C289.8,98.7,290.9,99.5,292.5,99.5z M306,103.8v-29h7.5v14.7l5.8-7.2h8.5
				l-7.5,8.6l7.7,12.9h-8.3l-4.3-7.3l-1.9,2.3v5H306z"/>
			<path id="DATA" class="st1" d="M137,170.2v-51.6h19.9c18.4,0,29.1,10.6,29.1,25.6c0,14.9-10.8,25.9-29.4,25.9H137z M151.3,157.5
				h5.8c8.5,0,14.2-4.7,14.2-13.2c0-8.3-5.7-13.2-14.2-13.2h-5.8V157.5z M182.9,170.2l22-51.9h13.8l22,51.9h-15.3l-3.8-9.2h-19.9
				l-3.7,9.2H182.9z M205.8,149.9h11.6l-5.7-14.7L205.8,149.9z M248.9,170.2v-39h-15.5v-12.5h45.2v12.5h-15.5v39H248.9z
				 M271.6,170.2l22-51.9h13.8l22,51.9h-15.3l-3.8-9.2h-19.9l-3.7,9.2H271.6z M294.5,149.9H306l-5.7-14.7L294.5,149.9z"/>
		</g>
	</g>
</g>
</svg>
