<svg id="Layer_1" data-name="Layer 1" xmlns="http://www.w3.org/2000/svg" viewBox="0 0 360 234"><defs><style>.cls-1{fill:#e31837;}.cls-2{fill:#292f33;}</style></defs><title>Artboard 1</title><rect class="cls-1" x="130.04" y="31" width="12" height="100"/><rect class="cls-1" x="218.04" y="31" width="12" height="100"/><rect class="cls-1" x="154.04" y="87" width="52" height="12"/><rect class="cls-1" x="154.04" y="63" width="52" height="12"/><path class="cls-2" d="M49.28,202.7V187.88h-12V202.7H30.39V167.3H37.3v14.47h12V167.3H56.2v35.4Z"/><path class="cls-2" d="M67.39,202.7V167.3H74.3v35.4Z"/><path class="cls-2" d="M99.31,202.7H94.14L82.46,167.3h7.16l7.11,23.07,7.11-23.07H111Z"/><path class="cls-2" d="M119.28,202.7V167.3H142.6v6.16H126.19v8.3h14v6.17h-14v8.6H142.6v6.17Z"/><path class="cls-2" d="M152.4,202.7V167.3h6.91v29.23h16.06v6.17Z"/><path class="cls-2" d="M205.68,199.12a13.75,13.75,0,0,1-19.14,0c-3.58-3.58-3.48-8-3.48-14.12s-.1-10.54,3.48-14.12a13.75,13.75,0,0,1,19.14,0c3.58,3.58,3.53,8,3.53,14.12S209.25,195.54,205.68,199.12Zm-5.12-24.07a5.74,5.74,0,0,0-4.42-1.89,5.85,5.85,0,0,0-4.48,1.89c-1.34,1.49-1.69,3.13-1.69,9.94s.35,8.45,1.69,9.94a5.86,5.86,0,0,0,4.48,1.89,5.75,5.75,0,0,0,4.42-1.89c1.34-1.49,1.74-3.13,1.74-9.94S201.9,176.55,200.55,175.06Z"/><path class="cls-2" d="M231.33,203a13.05,13.05,0,0,1-9.55-3.88c-3.58-3.58-3.48-8-3.48-14.12s-.1-10.54,3.48-14.12a13,13,0,0,1,9.55-3.88c6.62,0,11.78,3.78,13,11.19h-7c-.7-2.83-2.48-5-6-5A5.71,5.71,0,0,0,227,175c-1.35,1.49-1.74,3.18-1.74,10s.4,8.5,1.74,10a5.71,5.71,0,0,0,4.42,1.84c3.48,0,5.27-2.19,6-5h7C243.11,199.22,237.89,203,231.33,203Z"/><path class="cls-2" d="M253.42,202.7V167.3h6.91v35.4Z"/><path class="cls-2" d="M285.32,173.46V202.7h-6.91V173.46h-9.25V167.3h25.41v6.16Z"/><path class="cls-2" d="M319,188.18V202.7h-6.87V188.18L301.47,167.3H309l6.62,14.27,6.52-14.27h7.5Z"/></svg>