<?xml version="1.0" encoding="UTF-8"?> <!-- Generator: Adobe Illustrator 23.0.1, SVG Export Plug-In . SVG Version: 6.00 Build 0) --> <svg xmlns="http://www.w3.org/2000/svg" xmlns:xlink="http://www.w3.org/1999/xlink" id="Layer_1" x="0px" y="0px" viewBox="0 0 400 245" style="enable-background:new 0 0 400 245;" xml:space="preserve"> <style type="text/css"> .st0{fill:#8666AC;} .st1{fill:#201747;} .st2{fill:#42C0C0;} </style> <g> <g> <g> <polygon class="st0" points="197.4,71.2 179.5,71.2 179.5,46.9 167.3,46.9 167.3,112.4 179.5,112.4 179.5,82.6 197.4,82.6 197.4,112.4 209.6,112.4 209.6,46.9 197.4,46.9 "></polygon> <path class="st0" d="M266.3,49.1c-0.5-0.6-1.1-1.1-1.9-1.6s-1.7-0.6-2.8-0.6h-29.4c-1.1,0-2.1,0.2-2.8,0.6 c-0.8,0.4-1.4,1-1.9,1.6c-0.5,0.6-0.9,1.2-1.1,1.9c-0.2,0.7-0.3,1.3-0.3,1.8v47.3c0,1,0.2,2,0.7,2.8s1.1,1.5,2,2l12.9,8.2 c0.7,0.4,1.6,0.6,2.8,0.6c0.9,0,1.8-0.2,2.8-0.6l16.9-8.7c0.9-0.5,1.7-1.2,2.6-2.1c0.8-0.9,1.2-2,1.1-3.3V52.9 c0-0.6-0.1-1.2-0.3-1.8C267.2,50.4,266.8,49.7,266.3,49.1z M255.5,97l-10.9,5.5l-6.4-4v-41h17.3V97z"></path> <path class="st0" d="M335.3,112.4h12.2V52.9c0-0.6-0.1-1.2-0.3-1.8c-0.2-0.7-0.6-1.3-1-1.9c-0.5-0.6-1.1-1.1-1.8-1.6 c-0.8-0.4-1.7-0.6-2.9-0.6h-13c-1.4,0-2.7,0.2-3.8,0.7c-1.2,0.4-2.2,1.1-3.1,2l-5.5,4.2h-0.5l-5.6-4.2c-0.9-0.8-1.9-1.5-3.1-2 c-1.1-0.4-2.4-0.7-3.8-0.7h-13c-1.1,0-2.1,0.2-2.8,0.6c-0.8,0.4-1.4,1-1.9,1.6c-0.5,0.6-0.9,1.2-1.1,1.9 c-0.2,0.7-0.3,1.3-0.3,1.8v59.4h12.2V57.5h5l8.5,4.9v50h12.2v-50l7.7-4.9h5.9V112.4z"></path> <path class="st0" d="M399.8,58V46.9h-35.6v59.4c0,0.6,0.1,1.2,0.3,1.8c0.2,0.7,0.6,1.3,1.1,1.9c0.5,0.6,1.1,1.1,1.9,1.6 c0.8,0.4,1.7,0.6,2.8,0.6h29.5v-11.1h-23.5v-18h21.5V72.2h-21.5V58H399.8z"></path> <path class="st1" d="M167.3,190.5c0,0.6,0.1,1.2,0.3,1.8c0.2,0.7,0.6,1.3,1.1,1.9c0.5,0.6,1.1,1.1,1.9,1.6 c0.8,0.4,1.7,0.6,2.8,0.6h29.5v-11.1h-23.5v-18H201v-11.1h-21.5v-14.1h23.5V131h-35.6L167.3,190.5L167.3,190.5z"></path> <path class="st1" d="M253.9,131l-36.1,0.4v65h10l1-2.8l14.3,4.2c0.6,0.1,1.2,0.2,1.7,0.2c1.8,0,3.2-0.3,4.1-0.8l8.2-4.9 c0.8-0.5,1.5-1.2,1.9-2c0.5-0.8,0.7-1.8,0.7-2.8v-51.2c0-1.2-0.5-2.4-1.5-3.5C257.2,131.6,255.8,131,253.9,131z M247.5,185.4 l-3.7,2.2l-13.8-3.3v-42.7h17.5L247.5,185.4L247.5,185.4z"></path> <path class="st1" d="M294.6,166.6h9.5v14.6l-9.9,5.4l-6.4-4v-41H304v8.1H315l1-18.6h-34.2c-1.1-0.1-2.1,0.1-2.8,0.6 c-0.8,0.4-1.4,1-1.9,1.6c-0.5,0.6-0.9,1.3-1.1,2c-0.2,0.7-0.3,1.3-0.3,1.9v47.4c0,1,0.2,2,0.7,2.8c0.5,0.8,1.1,1.5,2,2l12.9,8.1 c0.7,0.4,1.6,0.6,2.8,0.6c0.9,0,1.8-0.2,2.8-0.6l16.5-9.2c1.8-1,2.8-2.7,3-5v-27h-21.7v10.4H294.6z"></path> <path class="st1" d="M332.3,190.5c0,0.6,0.1,1.2,0.3,1.8c0.2,0.7,0.6,1.3,1.1,1.9c0.5,0.6,1.1,1.1,1.9,1.6 c0.8,0.4,1.7,0.6,2.8,0.6h29.5v-11.1h-23.5v-18H366v-11.1h-21.5v-14.1h23.5V131h-35.6L332.3,190.5L332.3,190.5z"></path> </g> <polygon class="st2" points="80.2,130 80.2,143.3 148.7,105 148.7,91.7 "></polygon> <polygon class="st2" points="80.2,169.9 148.7,131.5 148.7,118.2 80.2,156.6 "></polygon> <polygon class="st2" points="80.2,196.4 148.7,158.1 148.7,144.8 80.2,183.1 "></polygon> <polygon class="st2" points="55,148.9 13.9,125.9 13.9,99.4 0.2,91.7 0.2,158.1 13.9,165.8 13.9,139.2 55,162.2 55,188.8 68.7,196.4 68.7,130 55,122.3 "></polygon> <polygon class="st2" points="141.6,84.4 79.8,49.9 74.4,46.9 69.8,49.5 69.8,49.5 7.3,84.5 21,92.2 74.5,62.3 127.9,92.1 "></polygon> </g> <polygon class="st2" points="127.8,55.8 115.8,49.3 116.2,70.8 128.1,77.5 "></polygon> </g> </svg> 