<svg id="Layer_1" data-name="Layer 1" xmlns="http://www.w3.org/2000/svg" viewBox="0 0 512 218"><defs><style>.cls-1{fill:#00b188;}.cls-2{fill:#231f20;}</style></defs><title>hpe</title><g id="layer1"><g id="g3646"><path id="path3346" class="cls-1" d="M166.95989,43.14879H17.49679V15.44036H166.96V43.14879ZM177.6373,4.76436H6.81939V53.81942H177.6373Z"/><g id="g3348"><path id="path3350" class="cls-2" d="M17.49679,134.89644H6.8194V85.84137H17.49679V105.2265H36.574V85.84137H47.25134v49.05507H36.574V114.5671H17.49679v20.32934"/></g><g id="g3352"><path id="path3354" class="cls-2" d="M63.42139,113.38936H76.1395c-.2369-3.60764-1.726-6.12216-5.88864-6.12216C67.11025,107.2672,64.36222,108.604,63.42139,113.38936Zm8.085,22.29222c-10.83307,0-18.21079-6.82947-18.21079-18.04834,0-10.91429,7.222-18.44769,16.79954-18.44769,10.44049,0,15.62182,6.98514,15.62182,17.42563v3.92576H63.42139c1.259,5.41146,5.49607,6.8227,9.73657,6.8227a16.65654,16.65654,0,0,0,9.652-2.82587h.396v8.085c-2.82587,2.04411-6.83286,3.06278-11.69944,3.06278"/></g><g id="g3356"><path id="path3358" class="cls-2" d="M113.58311,114.33358l-5.49606,20.56286h-9.3406L88.06906,100.35991v-.39258H98.276l5.80741,20.64408,5.49607-20.64408h8.32193l5.5739,20.64408L129.364,99.96733h9.8144v.39258L128.501,134.89644h-9.344l-5.5739-20.56286"/></g><g id="g3360"><path id="path3362" class="cls-2" d="M156.52284,135.68162c-8.47761,0-11.933-3.37413-11.933-11.3001V85.84478h10.36265v37.82943c0,2.43329.94083,3.29628,2.98154,3.29628a7.79349,7.79349,0,0,0,2.35546-.47041h.15906v8.55545a12.46876,12.46876,0,0,1-3.92576.62609"/></g><g id="g3364"><path id="path3366" class="cls-2" d="M173.4814,113.38936h12.7181c-.23689-3.60764-1.726-6.12216-5.88863-6.12216C177.17364,107.2672,174.42223,108.604,173.4814,113.38936Zm8.085,22.29222c-10.83306,0-18.21078-6.82947-18.21078-18.04834,0-10.91429,7.222-18.44769,16.79954-18.44769,10.44049,0,15.62181,6.98514,15.62181,17.42563v3.92576H173.4814c1.25557,5.41146,5.49606,6.8227,9.73318,6.8227a16.6773,16.6773,0,0,0,9.65872-2.82587h.39257v8.085c-2.82587,2.04411-6.82947,3.06278-11.69944,3.06278"/></g><g id="g3368"><path id="path3370" class="cls-2" d="M238.32415,99.96735h7.69245v8.31855h-7.69245v14.20719c0,3.06276,1.17772,4.47739,4.31833,4.47739a9.84411,9.84411,0,0,0,3.14061-.4738h.23351v8.16288a18.4793,18.4793,0,0,1-6.35567,1.01866c-8.40315,0-11.69944-3.84453-11.69944-12.71472V108.2859H214.69513v14.20719c0,3.06276,1.17773,4.47739,4.315,4.47739a9.8502,9.8502,0,0,0,3.144-.4738h.23351v8.16288a18.49534,18.49534,0,0,1-6.35567,1.01866c-8.40315,0-11.69944-3.84453-11.69944-12.71472V108.2859H198.9921V99.96735h5.34038V90.39323h10.36265v9.57412h13.26636V90.39323h10.36266v9.57412"/></g><g id="g3372"><path id="path3374" class="cls-2" d="M280.93214,109.93741c5.42161,0,8.00719-3.05938,8.00719-7.45556,0-4.55523-2.58558-7.61462-8.00719-7.61462h-6.75163v15.07018Zm18.84364-7.45556c0,10.67739-7.1442,16.48142-17.98065,16.48142h-7.61462v15.93317H263.50989V85.84137h18.28524c10.83645,0,17.98065,5.80742,17.98065,16.64048"/></g><g id="g3376"><path id="path3378" class="cls-2" d="M322.53848,123.90771v-2.98155a12.11932,12.11932,0,0,0-5.72957-1.17434c-3.37413,0-5.41485,1.25218-5.41485,4.07805,0,2.90709,2.04072,4.16266,5.10011,4.16266A6.07094,6.07094,0,0,0,322.53848,123.90771Zm.31474,7.53678a11.75768,11.75768,0,0,1-9.26615,4.08144c-6.82608,0-12.40336-4.15589-12.40336-11.54038,0-6.82609,5.57728-11.37794,13.58109-11.37794a27.60248,27.60248,0,0,1,7.77368,1.17435v-.62271c0-3.77008-2.11855-5.41484-7.68907-5.41484a19.94256,19.94256,0,0,0-9.81778,2.66681h-.3892v-8.32193a25.80046,25.80046,0,0,1,12.00741-2.90371c10.52172,0,16.25129,5.02226,16.25129,13.81461v21.89626H322.85322v-3.452"/></g><g id="g3380"><path id="path3382" class="cls-2" d="M338.16027,117.4742c0-11.22564,7.93274-18.28862,18.29539-18.28862a16.4994,16.4994,0,0,1,9.73318,2.6668v8.87019h-.396a13.00551,13.00551,0,0,0-8.00381-2.748c-5.18133,0-9.10709,3.53657-9.10709,9.49966s3.92576,9.41844,9.10709,9.41844a12.98756,12.98756,0,0,0,8.00381-2.75142h.396v8.87019a16.4767,16.4767,0,0,1-9.73318,2.67019c-10.36265,0-18.29539-6.98176-18.29539-18.2074"/></g><g id="g3384"><path id="path3386" class="cls-2" d="M383.06281,119.04455v15.85194H372.70354V85.84142h10.35927V113.782l10.44387-13.81461h11.7739V100.36l-12.55905,15.85533,12.55905,18.28863v.39257H393.42546l-10.36265-15.85194"/></g><g id="g3388"><path id="path3390" class="cls-2" d="M428.517,123.90771v-2.98155a12.11936,12.11936,0,0,0-5.72958-1.17434c-3.37412,0-5.41484,1.25218-5.41484,4.07805,0,2.90709,2.04072,4.16266,5.09672,4.16266A6.06945,6.06945,0,0,0,428.517,123.90771Zm.31474,7.53678a11.76513,11.76513,0,0,1-9.26276,4.08144c-6.83285,0-12.40337-4.15589-12.40337-11.54038,0-6.82609,5.57052-11.37794,13.58448-11.37794A27.575,27.575,0,0,1,428.517,113.782v-.62271c0-3.77008-2.11855-5.41484-7.69246-5.41484a19.93971,19.93971,0,0,0-9.8144,2.66681h-.39257v-8.32193a25.81527,25.81527,0,0,1,12.01079-2.90371c10.5251,0,16.25468,5.02226,16.25468,13.81461v21.89626h-10.0513v-3.452"/></g><g id="g3392"><path id="path3394" class="cls-2" d="M456.30874,105.61907c1.88166-3.84792,4.63307-6.04431,8.481-6.04431a8.18933,8.18933,0,0,1,3.36736.62947v9.88885h-.38919a11.81157,11.81157,0,0,0-4.55185-.78515c-3.21845,0-5.72958,1.885-6.596,5.49268v20.09583H446.26083V99.96733h10.04791v5.65174"/></g><g id="g3396"><path id="path3398" class="cls-2" d="M495.63735,123.0447V111.81906a7.66886,7.66886,0,0,0-6.596-3.60764c-4.54847,0-7.61124,3.29967-7.61124,9.26277s3.06277,9.18153,7.61124,9.18153A7.67233,7.67233,0,0,0,495.63735,123.0447Zm.31135,8.2441c-2.19639,2.82587-5.65174,4.39279-10.35926,4.39279-8.95141,0-14.681-8.15949-14.681-18.2074s5.72958-18.28863,14.681-18.28863c4.55185,0,7.84813,1.41463,10.04791,4.0036V85.84475H506v49.05169H495.9487V131.2888"/></g><g id="g3400"><path id="path3402" class="cls-2" d="M6.81939,150.91763h30.3028v5.96309H13.64886v14.989H34.92241v5.8108H13.64886v16.32575H37.12219v5.96309H6.81939V150.91763"/></g><g id="g3404"><path id="path3406" class="cls-2" d="M62.16245,164.72888c7.7703,0,12.08863,5.10349,12.08863,13.49649v21.744H67.73635V178.38443c0-4.474-2.27761-7.69246-7.222-7.69246a9.08039,9.08039,0,0,0-8.71451,6.27783v22.99954H45.28507V165.43619H51.7998v5.02226a11.92255,11.92255,0,0,1,10.36265-5.72957"/></g><g id="g3408"><path id="path3410" class="cls-2" d="M91.76131,165.43614h8.87019V171.01H91.76131v18.6c0,3.92237,2.04072,5.25916,5.72958,5.25916a8.33561,8.33561,0,0,0,2.90371-.47041h.2369v5.57051a10.596,10.596,0,0,1-4.08144.70731c-8.08842,0-11.30348-3.69224-11.30348-10.4371V171.01H79.2801v-5.5739h5.96648V156.258h6.51473v9.17816"/></g><g id="g3412"><path id="path3414" class="cls-2" d="M111.54238,179.32522H128.7345c-.23351-5.10011-2.748-9.02248-8.085-9.02248C115.705,170.30274,112.48321,173.9916,111.54238,179.32522Zm10.28482,21.35139c-10.12914,0-17.03644-6.75163-17.03644-17.58131,0-10.83307,6.43689-18.36646,15.78087-18.36646,9.49966,0,14.44409,6.82946,14.44409,16.95183v2.98493H111.30549c.70731,6.98515,5.18471,10.35927,11.3847,10.35927a14.71723,14.71723,0,0,0,9.65534-3.14061h.2369v5.733c-2.82588,2.19639-6.51812,3.05938-10.75523,3.05938"/></g><g id="g3416"><path id="path3418" class="cls-2" d="M149.22294,170.77315a9.11784,9.11784,0,0,1,8.55544-5.88526,8.21415,8.21415,0,0,1,3.37751.54826v6.4335h-.23351a10.12094,10.12094,0,0,0-4.08483-.70393c-3.52979,0-6.51473,2.35207-7.61461,6.27783v22.52574h-6.51473V165.43614h6.51473v5.337"/></g><g id="g3420"><path id="path3422" class="cls-2" d="M182.19252,194.788c6.43689,0,10.207-5.1001,10.207-12.08863,0-6.90392-3.77008-12.08186-10.207-12.08186a9.74432,9.74432,0,0,0-8.55545,5.48929v13.26974A9.66674,9.66674,0,0,0,182.19252,194.788Zm1.09989-30.05913c10.28143,0,15.77749,8.39977,15.77749,17.9705,0,9.58088-5.49606,17.97727-15.77749,17.97727a12.49171,12.49171,0,0,1-9.65534-4.55523v17.11428H167.119V165.43613h6.51811v3.92238a12.30925,12.30925,0,0,1,9.65534-4.62969"/></g><g id="g3424"><path id="path3426" class="cls-2" d="M213.28051,170.77315a9.1113,9.1113,0,0,1,8.55545-5.88526,8.20705,8.20705,0,0,1,3.37412.54826v6.4335h-.23352a10.09212,10.09212,0,0,0-4.08143-.70393c-3.53319,0-6.51473,2.35207-7.61462,6.27783v22.52574h-6.51473V165.43614h6.51473v5.337"/></g><g id="g3428"><path id="path3430" class="cls-2" d="M234.63193,151.46584a4.08216,4.08216,0,1,1,0,8.16287,4.08223,4.08223,0,1,1,0-8.16287"/></g><path id="path3432" class="cls-2" d="M231.41348,199.9693h6.51812V165.43614h-6.51812Z"/><g id="g3434"><path id="path3436" class="cls-2" d="M261.168,179.799c4.94443,1.56692,10.43711,3.60764,10.43711,10.20021,0,7.06637-5.80742,10.67739-13.263,10.67739-4.55524,0-9.10709-1.09989-11.69944-3.14061v-6.2h.31473c2.9071,2.66681,7.22205,3.84453,11.30348,3.84453,3.68886,0,6.98853-1.41462,6.98853-4.39617,0-3.05939-2.74465-3.7667-8.16626-5.57052-4.86658-1.5703-10.28142-3.3775-10.28142-9.88885,0-6.67379,5.49268-10.59617,12.4812-10.59617a18.60124,18.60124,0,0,1,10.59617,2.82587v6.28122h-.23352a15.69235,15.69235,0,0,0-10.207-3.61441c-4.08144,0-6.35905,1.80721-6.35905,4.2405,0,2.748,2.51113,3.5298,8.08841,5.337"/></g><g id="g3438"><path id="path3440" class="cls-2" d="M284.01186,179.32522H301.2006c-.23352-5.10011-2.74465-9.02248-8.085-9.02248C288.17114,170.30274,284.95269,173.9916,284.01186,179.32522Zm10.28143,21.35139c-10.12575,0-17.03306-6.75163-17.03306-17.58131,0-10.83307,6.4369-18.36646,15.7775-18.36646,9.503,0,14.44408,6.82946,14.44408,16.95183v2.98493H283.775c.70732,6.98515,5.18133,10.35927,11.38132,10.35927a14.70519,14.70519,0,0,0,9.65534-3.14061h.2369v5.733c-2.82249,2.19639-6.51473,3.05938-10.75523,3.05938"/></g></g></g></svg>