<svg id="Layer_1" data-name="Layer 1" xmlns="http://www.w3.org/2000/svg" viewBox="0 0 5447.43088 705.48695"><title>IBM_Watson</title><path d="M162.65313,76.911V610.92816h-50.8582V76.911Z"/><path d="M492.47476,76.911a322.146,322.146,0,0,1,64.69645,6.35983q31.02719,6.36188,54.59843,21.68886a115.30462,115.30462,0,0,1,37.77044,40.388q14.19612,25.06715,14.21044,62.449a125.8941,125.8941,0,0,1-6.732,40.76427,123.94578,123.94578,0,0,1-19.07132,35.89725,121.20465,121.20465,0,0,1-29.16933,27.30024,108.2887,108.2887,0,0,1-37.77044,15.70531v1.49691q51.60666,6.73,82.27085,42.25708,30.65909,35.53326,30.6642,87.88427a210.26436,210.26436,0,0,1-2.24332,28.79306,140.96687,140.96687,0,0,1-8.97534,32.90753,139.19441,139.19441,0,0,1-19.44554,33.28379q-12.72681,16.4599-34.0302,28.79306-21.31566,12.34339-52.35511,20.196-31.04251,7.85265-74.4182,7.85265H266.60262V76.911Zm0,234.099q30.65908,0,53.10356-7.10419,22.43835-7.09806,37.39622-19.44759a80.122,80.122,0,0,0,22.43732-28.79306,84.04242,84.04242,0,0,0,7.47842-35.15289q0-100.21333-120.41552-100.21947h-175.014V311.01Zm0,256.54044a286.028,286.028,0,0,0,53.852-4.86292q25.41683-4.85883,44.87464-17.57849a89.86636,89.86636,0,0,0,30.6642-34.02816q11.2207-21.31872,11.21866-53.47575,0-51.60665-36.27353-77.41-36.28477-25.80333-104.336-25.80333h-175.014V567.55044Z"/><path d="M835.0181,76.911,1012.27537,545.109,1196.26261,76.911H1271.055V610.92816h-50.8582v-461.466H1218.702l-182.49442,461.466H988.34114l-175.7624-461.466h-1.49487v461.466h-50.8582V76.911Z"/><path d="M1965.87574,610.92816,1875.378,247.43624h-1.49692l-89.00286,363.49192H1665.95962L1524.60165,76.911h117.42374l84.51622,363.49193h1.49487L1820.77957,76.911h109.94328l91.24823,367.97857h1.49487l87.508-367.97857h115.18042L2082.549,610.92816Z"/><path d="M2217.92543,343.17316q2.23925-37.39212,18.695-62.07685a127.33868,127.33868,0,0,1,41.88491-39.64363q25.41683-14.95071,57.218-21.31259a325.61167,325.61167,0,0,1,63.946-6.35983,435.10953,435.10953,0,0,1,59.08712,4.11446,181.17925,181.17925,0,0,1,54.59639,16.08158,107.57828,107.57828,0,0,1,40.388,33.2838q15.7053,21.31258,15.70531,56.46548v201.1915a402.81474,402.81474,0,0,0,2.99382,50.10974q2.98155,23.94445,10.4702,35.90134H2475.21023a149.63255,149.63255,0,0,1-4.86291-18.32285,156.868,156.868,0,0,1-2.61755-19.07131,138.38344,138.38344,0,0,1-59.83149,36.64571,240.28977,240.28977,0,0,1-70.30578,10.4702,189.76447,189.76447,0,0,1-51.60665-6.732,118.07309,118.07309,0,0,1-41.88491-20.94041,97.2823,97.2823,0,0,1-28.0446-35.90134q-10.098-21.68069-10.098-51.60666,0-32.90138,11.59084-54.2242,11.5888-21.31259,29.91779-34.02816a134.13693,134.13693,0,0,1,41.8849-19.07131,449.422,449.422,0,0,1,47.49219-10.098q23.92605-3.73614,47.12-5.98356a283.44476,283.44476,0,0,0,41.13645-6.732q17.94453-4.48461,28.42087-13.08776,10.46-8.58884,9.72175-25.05487,0-17.19608-5.61138-27.30023a41.24674,41.24674,0,0,0-14.95684-15.70531,58.95111,58.95111,0,0,0-21.68887-7.48047,178.579,178.579,0,0,0-26.55178-1.86909q-31.41061,0-49.36128,13.464-17.95068,13.45994-20.9445,44.87464Zm245.31769,78.53062a47.55183,47.55183,0,0,1-16.83,9.34956,171.04858,171.04858,0,0,1-21.68887,5.60729q-11.60106,2.24536-24.30641,3.74228-12.72988,1.50918-25.43114,3.73819a192.18682,192.18682,0,0,0-23.558,5.98355,69.87549,69.87549,0,0,0-20.196,10.098,48.03992,48.03992,0,0,0-13.83621,16.08158q-5.2392,9.72379-5.2351,24.6786,0,14.21452,5.2351,23.93423a40.08475,40.08475,0,0,0,14.21248,15.33312,60.00458,60.00458,0,0,0,20.94041,7.85265,133.45167,133.45167,0,0,0,24.68268,2.24537q31.41061,0,48.61283-10.47429,17.19609-10.46,25.43114-25.05487a80.2415,80.2415,0,0,0,10.098-29.54152,204.43963,204.43963,0,0,0,1.8691-23.93423Z"/><path d="M2845.42191,224.25455V295.3047h-77.78625V486.77446q0,26.926,8.97738,35.89725,8.97532,8.97534,35.90134,8.97738,8.97534,0,17.20222-.74845a144.8067,144.8067,0,0,0,15.70531-2.24537v82.27289a252.843,252.843,0,0,1-29.91779,2.98974q-16.45991.73618-32.15907.74845a309.81813,309.81813,0,0,1-46.74782-3.366q-22.06719-3.36192-38.89108-13.08776a69.187,69.187,0,0,1-26.55178-27.67242q-9.72993-17.95066-9.72175-47.12V295.3047H2597.1104V224.25455h64.32222V108.32568h106.203V224.25455Z"/><path d="M2966.954,514.81906a61.99778,61.99778,0,0,0,18.32286,20.196,78.46027,78.46027,0,0,0,25.80333,11.59084,121.0067,121.0067,0,0,0,30.29,3.74228,113.26174,113.26174,0,0,0,23.562-2.61755,80.13786,80.13786,0,0,0,22.43732-8.22892,50.91751,50.91751,0,0,0,16.82595-14.95685q6.73609-9.34344,6.732-23.562,0-23.926-31.78688-35.90135-31.79711-11.95076-88.62864-23.93014-23.18986-5.22692-45.24682-12.34339a154.116,154.116,0,0,1-39.26735-18.695,90.72919,90.72919,0,0,1-27.67242-29.16933q-10.48452-17.56418-10.47021-43.00554,0-37.39212,14.58467-61.33249a107.55764,107.55764,0,0,1,38.51481-37.77044,168.95775,168.95775,0,0,1,53.852-19.4435,332.16723,332.16723,0,0,1,61.32839-5.61137,306.77537,306.77537,0,0,1,60.95622,5.98356q29.53947,5.99377,52.72729,20.196a121.12969,121.12969,0,0,1,38.5189,37.77044q15.32494,23.558,18.32694,59.4593h-100.972q-2.24536-30.66214-23.18578-41.50863-20.94448-10.8342-49.36128-10.84647a183.14237,183.14237,0,0,0-19.44758,1.12064,64.85964,64.85964,0,0,0-19.07132,4.86291,39.31067,39.31067,0,0,0-14.58466,10.84239q-5.99379,7.1226-5.98356,19.0754,0,14.21453,10.4702,23.18578,10.46612,8.97532,27.30024,14.58466a340.6095,340.6095,0,0,0,38.5189,10.09393q21.68068,4.49075,44.12618,9.72584a452.82923,452.82923,0,0,1,45.25091,12.71148,149.289,149.289,0,0,1,39.26326,19.81977,96.07228,96.07228,0,0,1,27.67651,30.66624q10.46,18.33718,10.47021,45.25092,0,38.14058-15.33313,63.94594a122.72361,122.72361,0,0,1-40.0158,41.50864q-24.68064,15.7053-56.46548,22.06513a329.89524,329.89524,0,0,1-64.6985,6.35574,320.11033,320.11033,0,0,1-65.815-6.732q-32.16521-6.73-57.218-22.43732a128.19143,128.19143,0,0,1-41.13236-41.50863q-16.09181-25.80333-17.57849-64.69441h100.972Q2959.84978,502.492,2966.954,514.81906Z"/><path d="M3262.7454,333.8236q14.19612-37.76022,40.388-64.32223,26.17143-26.5395,62.82531-41.13644,36.63139-14.58262,82.26881-14.58467,45.61287,0,82.64508,14.58467,37.024,14.58874,63.20158,41.13644,26.17142,26.55792,40.388,64.32223,14.19614,37.77247,14.2084,84.142,0,46.37973-14.2084,83.76571-14.22066,37.41054-40.388,63.94595-26.18982,26.55792-63.20158,40.76427-37.0179,14.19612-82.64508,14.20839-45.62514,0-82.26881-14.20839-36.65594-14.20226-62.82531-40.76427-26.18982-26.5395-40.388-63.94595-14.22066-37.39212-14.21248-83.76571Q3248.53292,371.59813,3262.7454,333.8236Zm96.48129,129.38881a120.264,120.264,0,0,0,15.33312,39.63953,81.50419,81.50419,0,0,0,28.79306,28.0487q17.95068,10.48452,44.87464,10.4702,26.926,0,45.25091-10.4702a80.744,80.744,0,0,0,29.16933-28.0487,120.62239,120.62239,0,0,0,15.33312-39.63953,226.48892,226.48892,0,0,0,4.48665-45.24682,232.23579,232.23579,0,0,0-4.48665-45.6231,116.60206,116.60206,0,0,0-15.33312-39.63953,85.20661,85.20661,0,0,0-29.16933-28.0487q-18.33717-10.8342-45.25091-10.84647-26.926,0-44.87464,10.84647a86.0996,86.0996,0,0,0-28.79306,28.0487,116.26775,116.26775,0,0,0-15.33312,39.63953,231.92859,231.92859,0,0,0-4.49074,45.6231A226.19037,226.19037,0,0,0,3359.22669,463.21241Z"/><path d="M3799.74414,224.25455v53.84793h2.24537q20.196-33.656,52.35511-48.9891,32.14679-15.31881,65.815-15.33312,42.63132,0,69.9336,11.59493,27.288,11.60108,43.00554,32.15907,15.7053,20.58253,22.061,50.10974,6.3496,29.55787,6.35983,65.447V610.92816H3955.31255V392.53444q0-47.8521-14.95685-71.42641-14.96911-23.558-53.10356-23.558-43.38591,0-62.82531,25.80332-19.45986,25.80333-19.44759,84.88636V610.92816h-106.203V224.25455Z"/><path d="M4452.67175,76.911V610.92816H4335.25006V76.911Z"/><path d="M4539.43129,333.8236q14.19613-37.76022,40.388-64.32223,26.17141-26.5395,62.82531-41.13644,36.6314-14.58262,82.2688-14.58467,45.61287,0,82.64508,14.58467,37.024,14.58874,63.20158,41.13644,26.17143,26.55792,40.388,64.32223,14.19612,37.77247,14.20839,84.142,0,46.37973-14.20839,83.76571-14.22067,37.41054-40.388,63.94595-26.18982,26.55792-63.20158,40.76427-37.0179,14.19612-82.64508,14.20839-45.62514,0-82.2688-14.20839-36.65593-14.20226-62.82531-40.76427-26.18984-26.5395-40.388-63.94595-14.22066-37.39212-14.21248-83.76571Q4525.21881,371.59813,4539.43129,333.8236Zm96.48129,129.38881a120.264,120.264,0,0,0,15.33313,39.63953,81.504,81.504,0,0,0,28.79306,28.0487q17.95066,10.48452,44.87463,10.4702,26.926,0,45.25091-10.4702a80.74406,80.74406,0,0,0,29.16934-28.0487,120.62283,120.62283,0,0,0,15.33312-39.63953,226.48965,226.48965,0,0,0,4.48664-45.24682,232.23654,232.23654,0,0,0-4.48664-45.6231,116.60247,116.60247,0,0,0-15.33312-39.63953,85.20673,85.20673,0,0,0-29.16934-28.0487q-18.33717-10.8342-45.25091-10.84647-26.926,0-44.87463,10.84647a86.09942,86.09942,0,0,0-28.79306,28.0487,116.26776,116.26776,0,0,0-15.33313,39.63953,231.92858,231.92858,0,0,0-4.49073,45.6231A226.19037,226.19037,0,0,0,4635.91258,463.21241Z"/><path d="M4911.13988,175.63764V76.911h437.53589v98.72666h-160.055V610.92816H5071.19493V175.63764Z"/><path d="M5237.13948,562.04949v-6.78518h48.40833v6.78518h-20.17559v53.74568h-8.05306V562.04949Z"/><path d="M5303.43713,555.26431l19.0754,50.86637,19.1572-50.86637h11.02235v60.53086h-7.6318V565.44h-.16769l-18.90771,50.35513h-6.867L5300.21427,565.44h-.16768v50.35513h-7.6318V555.26431Z"/></svg>