<svg id="Layer_1" data-name="Layer 1" xmlns="http://www.w3.org/2000/svg" viewBox="0 0 283.93434 218.22146"><defs><style>.cls-1{fill:#3eb2da;}.cls-2{fill:#174c6a;}.cls-3{fill:#a2c76f;}.cls-4{fill:#deeef3;}.cls-5{fill:#f0faf7;}.cls-6{fill:#fcfdfd;}</style></defs><title>ibm_watson_iot</title><path class="cls-1" d="M106.95,165.65051c-20.13289-28.89889-13.24076-61.60517,6.30718-81.01983,19.16366-19.033,48.93225-23.3845,72.41788-10.68084,24.10212,13.03713,37.20842,40.54718,31.80267,66.75369-8.80456,42.68367-57.56064,63.29214-94.27448,39.848q-1.98492-1.26749-3.96461-2.54377Q113.09367,171.82958,106.95,165.65051Zm89.45578-51.18072c-1.92471,4.22981,1.87016,5.8534,3.54843,8.86866a12.026,12.026,0,0,0,2.80416-7.65253c1.90834-.88663,1.34169-2.53243,1.238-4.03621,1.67974-13.51079-1.02185-18.88214-12.846-25.54071-2.21461-3.83-13.5273-10.30792-19.22879-11.01083-7.36691-2.2764-7.45409,4.30719-9.844,8.08822-1.838,2.5935.5493,2.45857,1.92306,2.97814a20.30677,20.30677,0,0,0,10.18156,6.64789,2.93985,2.93985,0,0,0,2.63093,1.55089c2.76538,4.56307,5.94317,9.18,11.35333,10.206,4.33016.82116,6.82529,2.70221,8.26617,6.54286Q196.41923,112.791,196.40578,114.46979Zm-51.35414,68.856,4.80814.39164c10.0913,3.04383,19.48578-.09834,28.87885-3.25307,3.60678-3.12124,9.16584-3.22365,11.8993-7.69531,11.145-5.313,15.83022-20.1552,8.522-34.43669-3.30154,3.67533-6.6539,7.24737-9.79,11.00017-.88837,1.06306-2.34285,1.78768-1.99857,3.91519,1.00684,6.222-2.33685,8.808-8.23236,8.96224-7.07459.18514-12.18379,4.17908-16.87329,8.92166a5.856,5.856,0,0,0-4.372,2.87083c-.57739.05079-1.15476.10157-1.73928.1541-1.48853-1.83374-2.93092-1.21009-4.36077.08188-1.97492.38143-3.95142.755-5.92432,1.14655-1.90783.37864-4.54259.03-4.79944,2.67942C140.8159,180.68495,141.98093,182.893,145.05164,183.32584Zm-10.673-27.2087c2.91652-2.6458,2.656-6.33,1.49509-9.15273-1.02016-2.4806-4.41526-.92623-6.75229-.98058-6.66762-.15508-13.33873-.15992-20.00847-.22385-6.0208-1.12242-5.737,2.67016-4.34052,6.24611.67876,1.73809,1.79055,4.07674,4.30109,4.56107,2.65065,7.45475,7.01972,13.21388,15.36355,14.49023,3.14116.4805,7.94772,2.472,9.12684-1.09206,1.296-3.91752,3.72526-9.09139-.77429-13.17392Q133.58411,156.45429,134.37861,156.11713Zm45.74589-43.8522c3.35638-4.41463-.47133-6.25718-3.05886-8.54374l-3.70891-3.60957c-3.6504-2.61453-7.25763-5.29274-10.97271-7.81191-1.46353-.99241-3.09167-1.91228-4.83993-.18186-3.38841,3.35382-5.25477,15.30738-3.03538,19.82854,2.35062,4.78849,1.486,9.58165-3.08193,11.64954-5.62951,2.54844-6.74555,6.70411-7.02305,11.82238-.08244,1.52078-2.03324,3.61493.9074,4.45124,2.08292.59237,3.45143-.63473,4.33994-2.3604,1.57119-3.05164,4.55315-4.51168,7.27779-3.4393,4.55032,1.79094,7.9125,2.66161,13.4843,1.23759,5.88006-1.50282,12.404-2.65339,18.63044-3.921,2.31952-.47221,6.57056-.6447,6.21323-3.59277-.38737-3.19623-2.00095-7.33831-6.25232-7.95742-4.00752-.5836-6.15994-3.39879-8.7352-5.83168Zm-11.8477,30.498-4.45668.78166c-3.43648,2.62652-6.85466,4.77522-11.57748,2.94916-8.33282-3.22186-10.21922-1.899-10.451,6.7841-2.41757,3.1798-.10832,7.07218-1.61817,10.46815-.90187,2.02852-1.44821,4.751.41225,6.31214,1.81609,1.52388,4.29682-.116,6.48669-.27528,1.84284-.134,2.3276-2.78921,4.43367-2.63609,2.61277.71487,4.4821-.44692,6.0368-2.3943,1.36657-.19847,2.9384.13126,3.76285-1.46225,5.85164-1.58771,10.59616-3.95887,11.64147-11.04207.56878-3.85411,3.97438-6.1078,8.062-5.57681,4.494.58378,6.52-2.11594,8.385-5.29276.534-.90955,1.30191-2.193,1.02123-2.96091-.54911-1.50242-2.35018-1.2275-3.48181-.895C180.735,139.34419,174.10713,139.65052,168.2768,142.763ZM150.62971,92.48688c2.62837-3.24774,2.637-3.62189.13537-5.90442-3.47118-.986-6.89511-2.20685-10.42192-2.91641-13.54054-2.72417-22.58441,1.46047-28.73817,13.083-2.87084,2.22325-5.44191,4.63355-5.40941,8.66856-1.73786.25727-1.74455,1.7549-2.21781,2.98369a48.38478,48.38478,0,0,0-2.6458,25.65119c.57659,3.63491,1.08995,5.36007,4.67564,5.57537l3.48831.45444c3.19341,1.39835,6.40164,2.29453,9.69561.28621l2.03713-.10734c5.64055,1.78458,11.75579,2.86877,16.25852-1.40388,3.79234-3.59856,2.57362-15.00019-.7884-18.88078l-.21219-1.556c.24143-3.427.35546-7.7633,3.56282-9.04149C148.03832,106.19524,147.785,98.50349,150.62971,92.48688ZM135.35763,77.11527c4.97,1.23212,9.61911,1.57785,13.46086,3.5203,6.24929,3.15979,8.54821-.359,11.29208-4.78814,2.29668-3.70727,1.03746-5.3312-2.61813-4.71971C150.15929,72.35438,142.5601,72.93432,135.35763,77.11527Zm73.02018,72.00691a27.45756,27.45756,0,0,0,4.37512-15.285c.03178-1.75513.84493-4.10489-.64582-5.096-1.85606-1.23391-3.67442.79783-5.46308,1.54888-2.29641.96423-2.66793,2.75425-2.05585,4.963C205.75054,139.44749,206.88455,143.64978,208.37781,149.12219ZM206.471,124.52135c5.76967-2.33619,7.10608-5.04517,2.98665-9.29624C207.08109,117.72,207.27146,120.85357,206.471,124.52135Z" transform="translate(-18.58486 -31.10696)"/><path class="cls-2" d="M164.10859,232.48515c-1.028,3.69485-2.20726,7.3561-3.03828,11.09474-.7234,3.25456-1.95818,5.01823-5.81355,5.01563-3.97385-.00267-4.76693-2.00413-5.58408-5.18822a65.038,65.038,0,0,0-6.471-16.334c-1.28511,5.31054-2.59658,10.61486-3.84479,15.93407-.67576,2.87969-.95344,5.56782-5.23124,5.59331-3.9713.02364-5.49143-1.36475-6.37644-5.10186-2.3392-9.87744-5.16032-19.63991-7.63809-29.48628-.3885-1.54382-2.64434-4.29059,1.15872-4.54094,2.55677-.16828,6.10041-1.7033,7.10016,2.82853,1.40821,6.3833,2.98606,12.72914,4.84925,20.60352,3.67889-6.60059,4.27266-12.786,5.81431-18.58473.84623-3.183,1.61156-5.10331,5.57992-5.15167,4.20423-.05126,4.73115,2.40917,5.39127,5.36594,1.12465,5.03745,2.32091,10.05891,3.592,15.53959,4.79137-2.85153,4.54693-7.87424,5.82677-12.0986.58821-1.9415.99571-3.93864,1.46186-5.916,1.06767-4.529,4.80511-2.91445,7.18606-2.48619,3.37435.60692,1.04191,3.29238.4711,4.75333a10.65507,10.65507,0,0,0-.69162,4.56929Q165.97978,225.68963,164.10859,232.48515Z" transform="translate(-18.58486 -31.10696)"/><path class="cls-3" d="M71.35987,209.95182c3.82337,9.78322,7.64674,19.56643,11.91042,30.47633,4.88426-7.58086,6.51345-15.26415,9.67773-22.24264a52.271,52.271,0,0,0,2.54677-6.18777c.91072-2.97534,2.83375-3.84026,5.67552-3.29675,2.939.5621,2.33149,2.95015,2.34326,4.85041q.0945,15.25048.0123,30.50183c-.00871,1.97066.268,4.53248-2.80194,4.331-2.609-.1712-2.10685-2.54526-2.12512-4.23258-.07143-6.59738-.02917-13.196-1.01295-19.92683-5.03068,5.99746-6.69325,13.243-9.73892,19.81994-.95676,2.06606-1.30883,4.56726-4.23112,4.49334-2.917-.07379-3.19161-2.656-4.075-4.71231-3.05956-7.12183-4.80926-14.85456-10.71717-21.14676,0,7.0355-.022,14.07107.01144,21.1064.0124,2.60952.11825,5.19047-3.6959,4.83285-.1701-11.1649-.19172-22.33484-.5677-33.49281C64.39078,209.76288,66.37536,208.10887,71.35987,209.95182Z" transform="translate(-18.58486 -31.10696)"/><path class="cls-2" d="M284.95478,221.55729a.91136.91136,0,0,0,.96154-.69189q2.17244-.92305,4.34425-1.84217c10.19171.80754,12.04632,2.76675,12.14818,12.90078.034,3.38381.14246,6.775-.02911,10.15022-.14114,2.77679,1.56618,6.64377-4.02384,6.45046-5.58112-.193-3.50228-4.15628-3.7404-6.84181-.27791-3.1342.03284-6.31593-.10613-9.46845-.1452-3.29419-.64506-6.56665-5.07349-6.4921-4.14612.06983-5.20093,3.08476-5.45758,6.43605a43.87469,43.87469,0,0,0-.09344,9.4551c.84274,5.89683-1.9,7.57844-7.13769,6.97651-1.25547-8.41716-.23791-16.88726-.60278-25.32352-.12518-2.89464,1.839-2.52679,3.71406-3.29354C282.46749,218.906,282.71333,223.13095,284.95478,221.55729Z" transform="translate(-18.58486 -31.10696)"/><path class="cls-2" d="M178.92675,218.99133c5.06.27414,10.25132.10313,14.18654,4.18769q.55283,1.95265,1.10547,3.90529c-.03075,5.81188-.20284,11.6282-.02031,17.43338.06971,2.21728.382,4.65285-2.6084,3.80651-5.12086-1.44924-9.89436.42741-14.82187.65311a10.68336,10.68336,0,0,1-7.96527-2.9217,12.09654,12.09654,0,0,1,.14286-10.99836l.12025-.133,4.16467-2.48917,2.69263-.19346c2.00138-.57241,4.56606.24913,5.75739-2.327,1.34094-.44839,3.61032.67408,3.84556-1.54583.19267-1.81838-1.56475-2.47093-3.21574-2.65869a5.50688,5.50688,0,0,0-4.9578,1.433c-2.58617,1.7192-6.01112,2.8317-8.02343.70719-1.962-2.0714,1.22583-4.2861,2.41157-6.33427q1.43454-.73317,2.86915-1.46635Zm3.97111,16.59987c-2.44105,1.058-6.93334-.19758-7.35678,4.56448-.26031,2.92762,2.122,3.57152,4.55813,3.52963,3.76473-.0647,5.63039-2.11919,5.95766-5.78938C186.24765,235.75648,185.32679,235.03109,182.89785,235.5912Z" transform="translate(-18.58486 -31.10696)"/><path class="cls-2" d="M244.78006,228.33036c7.01272-12.42071,20.51818-12.39119,27.89633.06093q.30758.83293.61522,1.666l.00151.08756q-.05823,3.72708-.117,7.45535c-1.83306,6.2135-5.23281,10.68333-12.25829,11.33122-7.15223.65959-12.73574-1.575-16.02212-8.30712l-1.00262-9.51984a.52033.52033,0,0,0,.14719-.83446Zm7.158,5.06095c.0294,5.05579.99841,9.39936,6.6291,9.57226,5.29805.16267,6.7039-3.96123,6.73752-8.32712.03433-4.45761-.65359-9.00075-6.57278-9.10665C253.30589,225.4327,252.25717,229.41832,251.9381,233.39131Z" transform="translate(-18.58486 -31.10696)"/><path class="cls-2" d="M220.89974,220.30823c6.93713-1.51014,13.73165-2.47039,19.24929,3.69369.87781.98067.72127,2.00262.99876,3.02087-.93556,1.775-2.65633,1.17374-4.13127,1.42423-2.801.4758-4.34206-2.2671-6.6275-2.55236-1.83283-.22874-4.7802-1.83939-5.63025,1.26262-.82363,3.00572,2.4018,2.739,3.97328,3.3041a62.78781,62.78781,0,0,0,8.29853,1.86167q1.93933,1.46967,3.87874,2.93932.66612,2.65185,1.33227,5.3037c-4.2986,9.36272-12.92485,11.30629-24.08059,5.42555-.55427-2.15993-3.91361-4.48382-1.27138-6.32553,2.20012-1.53361,5.61567-1.26009,7.38005,2.13585a3.69441,3.69441,0,0,0,2.18115,1.44011c2.69484.74386,5.90658,1.1534,6.999-1.91219,1.18479-3.32491-2.239-3.73742-4.44434-4.5298-1.46523-.5264-3.043-.73021-4.55152-1.1469-8.72694-2.4106-10.15285-6.23835-5.30167-14.17592l.1487-.10808Z" transform="translate(-18.58486 -31.10696)"/><path class="cls-3" d="M29.86041,248.49c-.14335-11.715-.27-23.43033-.44226-35.14493-.041-2.7872,1.12714-4.17653,4.01015-4.13185,5.18464.08037,10.39443-.237,15.55012.16743,6.10192.47872,10.65325,6.64738,9.14862,11.7487-.46595,1.57972-1.23934,3.32093-3.05522,2.92648-1.91969-.417-.68125-2.02314-.55078-3.27271.48979-4.69117-1.79068-7.12606-6.4821-7.26761-2.25317-.068-4.562.27309-6.75459-.10259-7.06866-1.21119-8.366,2.32768-7.81178,8.39078.30169,3.30038,1.01681,5.024,4.66047,4.83705,3.36858-.17282,6.76907.26969,10.137.09126a10.51494,10.51494,0,0,1,10.16825,14.8252c-1.16661,2.81383-3.39136,4.57527-5.37928,6.61914C45.3339,249.06115,37.59678,248.74846,29.86041,248.49Zm12.46142-18.66117c-2.11434,1.36877-6.90332-2.25714-8.214,1.85883a21.2153,21.2153,0,0,0,.15648,12.61119c1.15168,3.31665,5.63682,1.02831,8.59887,1.53065,6.63353,1.125,13.3888-2.36795,12.84256-9.24918C55.11754,229.17107,48.57072,229.91249,42.32183,229.82884Z" transform="translate(-18.58486 -31.10696)"/><path class="cls-2" d="M195.02192,222.96376l1.31336-2.99058c3.0517.67541,4.1551-.72164,3.92647-3.6293-.21257-2.70339-.02863-4.80492,3.75582-4.74614,3.4222.05313,4.37662,1.53183,4.10947,4.5508-.29507,3.33456,1.17465,4.61157,4.441,3.71317q.74817.86407,1.49633,1.728c-.444,1.59107.04008,3.89137-2.69366,3.7975-3.39677-.11658-3.64027,2.25416-3.17661,4.495.84473,4.08241-2.86083,9.95032,2.32049,11.97837,4.37693,1.71326,2.9887,4.05135,3.014,6.67448-4.47264.24812-9.04876.98409-12.68914-2.69136-.19367-3.31787-.50129-6.63406-.55433-9.95432C200.20485,230.86638,201.36169,225.41121,195.02192,222.96376Z" transform="translate(-18.58486 -31.10696)"/><path class="cls-4" d="M213.52857,248.535c-.02528-2.62312,1.36295-4.96122-3.014-6.67448-5.18132-2.028-1.47577-7.896-2.32049-11.97837-.46367-2.24082-.22017-4.61157,3.17661-4.495,2.73375.09387,2.24962-2.20643,2.69366-3.7975q2.544-.05606,5.0879-.11244c-4.85115,7.93755-3.42524,11.7653,5.30169,14.1759,1.5085.41669,3.0863.6205,4.55152,1.1469,2.20536.79239,5.62913,1.20489,4.44434,4.5298-1.09241,3.06559-4.30415,2.656-6.999,1.91219a3.69441,3.69441,0,0,1-2.18115-1.44011c-1.76438-3.39595-5.17993-3.66947-7.38005-2.13585-2.64223,1.84171.71711,4.1656,1.27138,6.32553C215.99614,245.70864,215.32666,248.14966,213.52857,248.535Z" transform="translate(-18.58486 -31.10696)"/><path class="cls-1" d="M100.9447,83.71548c-1.08167,2.63179-2.31764,4.891-5.46047,3.05938-5.60776-3.26816-11.133-6.68322-16.61342-10.16177a3.693,3.693,0,0,1-1.42024-5.27129,2.9162,2.9162,0,0,1,4.104-1.20841c6.16993,3.62237,12.23169,7.432,18.26174,11.28487C100.4379,81.8154,100.58825,82.95,100.9447,83.71548Z" transform="translate(-18.58486 -31.10696)"/><path class="cls-1" d="M160.43055,44.875c0,2.928.114,5.86187-.03723,8.782-.1141,2.20339-1.25654,4.13707-3.60945,4.10445-2.2717-.0315-3.60961-1.79667-3.63724-4.09283-.07586-6.30593-.04653-12.61355-.00807-18.92019A3.3775,3.3775,0,0,1,156.423,31.122a3.42109,3.42109,0,0,1,3.95786,3.61939c.1142,3.37427.02876,6.75529.02876,10.13343Z" transform="translate(-18.58486 -31.10696)"/><path class="cls-1" d="M125.05841,61.21157c.07434,2.50015-.92217,3.69743-2.41664,4.383a2.95423,2.95423,0,0,1-3.97441-1.58472q-4.59947-8.95183-8.83545-18.08771a3.35837,3.35837,0,0,1,1.52137-4.62694c1.61081-.90623,3.2854-.802,4.118.7938C118.86733,48.59781,122.06882,55.20815,125.05841,61.21157Z" transform="translate(-18.58486 -31.10696)"/><path class="cls-1" d="M215.50991,87.06609a2.97508,2.97508,0,0,1-3.01029-2.24215,3.48771,3.48771,0,0,1,1.57308-4.09792c5.47834-3.497,10.94921-7.00861,16.50484-10.37966a3.32812,3.32812,0,0,1,4.35086.48656,3.28187,3.28187,0,0,1,.966,3.65569C235.13256,76.46841,217.75692,87.23155,215.50991,87.06609Z" transform="translate(-18.58486 -31.10696)"/><path class="cls-1" d="M202.20062,45.0822a126.2656,126.2656,0,0,1-9.40288,19.39948,2.89132,2.89132,0,0,1-3.691.81325c-1.31231-.58507-2.36345-1.89577-1.94368-3.23717A91.81253,91.81253,0,0,1,196.64955,41.941a2.71556,2.71556,0,0,1,3.62636-.86412C201.64573,41.69382,202.20257,42.89542,202.20062,45.0822Z" transform="translate(-18.58486 -31.10696)"/><path class="cls-3" d="M22.79825,229.51828c-.00753,5.17768.03655,10.35593-.03505,15.53262-.0208,1.50392.08892,3.48541-2.297,3.22565-1.7066-.18584-1.84781-1.75569-1.85157-3.11872q-.04466-16.20825-.02951-32.41667c.00018-1.64769.242-3.52187,2.1889-3.61348,2.29117-.10781,1.99065,2.02436,2.00689,3.50677C22.8426,218.26182,22.80578,223.89025,22.79825,229.51828Z" transform="translate(-18.58486 -31.10696)"/><path class="cls-4" d="M171.74086,221.516c-1.18574,2.04817-4.37355,4.26287-2.41157,6.33427,2.01231,2.12451,5.43726,1.012,8.02327-.70715.20228,2.861,2.42673,2.564,4.32815,2.77151-1.19133,2.57617-3.756,1.75463-5.75739,2.327-4.05152-5.40861-7.91409-1.65879-11.81474.24356q1.87122-6.79545,3.74235-13.59062Q169.79586,220.20546,171.74086,221.516Z" transform="translate(-18.58486 -31.10696)"/><path class="cls-5" d="M237.0306,232.32306a62.78738,62.78738,0,0,1-8.29855-1.86167c-1.57148-.56514-4.79691-.29839-3.97328-3.3041.85-3.102,3.79742-1.49136,5.63025-1.26262,2.28544.28526,3.82649,3.02816,6.6275,2.55236,1.47494-.2505,3.19572.35073,4.13127-1.42423a2.84694,2.84694,0,0,1,2.67472,1.26034q.10857.9951.21772,1.98687a.52026.52026,0,0,1-.14721.8344q-.71957-.00543-1.43912-.01075C240.13739,229.25921,238.10316,228.67,237.0306,232.32306Z" transform="translate(-18.58486 -31.10696)"/><path class="cls-4" d="M273.17608,237.6002q.05867-3.728.117-7.45535c1.87921-1.40107,1.50285-3.466,1.67185-5.41449.17656-2.0356-.91634-4.94382,2.05521-5.54462,2.82863-.57191,6.25777-1.5862,7.93447,2.37111-2.24132,1.57409-2.48716-2.65085-5.09629-1.58392-1.875.76676-3.83924.39891-3.71406,3.29354.36487,8.43625-.6527,16.90635.60278,25.32352C272.51021,245.91662,277.266,240.32124,273.17608,237.6002Z" transform="translate(-18.58486 -31.10696)"/><path class="cls-4" d="M212.568,219.86171c-3.26636.89839-4.73608-.37862-4.441-3.71317.26714-3.019-.68727-4.49767-4.10947-4.5508-3.78446-.05878-3.96839,2.04275-3.75582,4.74614.22864,2.90766-.87477,4.30471-3.92649,3.6293.84887-1.23887,2.73751-1.74931,2.59052-3.68512-.28071-3.69661.68773-5.81087,5.13583-5.79495,4.2991.0154,6.35485,1.29187,5.86816,5.75161C209.71738,218.191,211.627,218.69766,212.568,219.86171Z" transform="translate(-18.58486 -31.10696)"/><path class="cls-4" d="M195.02189,222.96376c6.3398,2.44745,5.183,7.90262,5.26321,12.9256.053,3.32025.36067,6.63645.55433,9.95432-3.94779-4.14547-1.34889-9.20178-1.72183-13.799-.28683-3.53584-.97837-5.53621-4.89886-4.96026q-.55267-1.95281-1.10545-3.90541Q194.06752,223.07138,195.02189,222.96376Z" transform="translate(-18.58486 -31.10696)"/><path class="cls-4" d="M106.95,165.65051q6.144,6.17886,12.28864,12.35725C112.72153,176.29647,108.55546,172.24679,106.95,165.65051Z" transform="translate(-18.58486 -31.10696)"/><path class="cls-4" d="M242.45391,231.09365q.71957.00534,1.43912.01075.50134,4.76,1.00264,9.5199-1.327-.02932-2.654-.05843-.66625-2.65154-1.33235-5.3035C242.59039,234.3049,242.40849,232.65716,242.45391,231.09365Z" transform="translate(-18.58486 -31.10696)"/><path class="cls-4" d="M168.94577,235.05724a12.09654,12.09654,0,0,0-.14286,10.99836C165.05984,242.34015,164.99377,238.67259,168.94577,235.05724Z" transform="translate(-18.58486 -31.10696)"/><path class="cls-4" d="M173.23068,232.43509l-4.16467,2.48917C169.41635,232.358,171.24628,232.26731,173.23068,232.43509Z" transform="translate(-18.58486 -31.10696)"/><path class="cls-4" d="M290.26057,219.02324q-2.172.9201-4.34425,1.84217C286.64876,218.56727,288.462,218.81261,290.26057,219.02324Z" transform="translate(-18.58486 -31.10696)"/><path class="cls-4" d="M178.92675,218.99133,174.61,220.04962C175.76051,218.52066,177.33816,218.73369,178.92675,218.99133Z" transform="translate(-18.58486 -31.10696)"/><path class="cls-4" d="M244.04024,230.27q-.109-.99258-.21772-1.98687.47913.02028.95756.04718Z" transform="translate(-18.58486 -31.10696)"/><path class="cls-4" d="M273.29159,230.05729q-.30758-.833-.6152-1.666Z" transform="translate(-18.58486 -31.10696)"/><path class="cls-5" d="M180.2693,114.00457c2.57526,2.43288,4.72767,5.24808,8.7352,5.83168,4.25138.6191,5.86495,4.76118,6.25232,7.95742.35733,2.94806-3.89371,3.12056-6.21323,3.59277-6.22644,1.26761-12.75038,2.41819-18.63044,3.921-5.5718,1.424-8.934.55336-13.4843-1.23759-2.72464-1.07238-5.70659.38766-7.27779,3.4393-.88851,1.72567-2.257,2.95277-4.33994,2.3604-2.94064-.83631-.98984-2.93047-.9074-4.45124.27751-5.11828,1.39354-9.27394,7.02305-11.82238,4.56788-2.06788,5.43254-6.861,3.08193-11.64953-2.21938-4.52116-.353-16.47471,3.03538-19.82854,1.74826-1.73042,3.3764-.81054,4.83993.18186,3.71508,2.51917,7.32231,5.19738,10.971,7.80872-.40416,3.34641-.79909,6.69693-1.21169,10.04528-.28216,2.2898-2.05749,3.70048-3.68206,2.38555-4.9678-4.021-7.63032-.2098-11.47,3.1734,3.66836-1.0372,4.77771,5.02025,8.60293,1.57355,1.3568-1.22253,3.06389-2.7185,4.48991-.54082a3.56285,3.56285,0,0,1-.9534,4.84253c-3.12433,2.48208-1.95281,4.941-.09538,7.57622,1.46844,2.08335,2.988.43838,4.083-.0013,3.10835-1.24805,3.45466-3.7217,2.16757-6.67661C173.09381,117.45352,175.14523,114.79788,180.2693,114.00457Z" transform="translate(-18.58486 -31.10696)"/><path class="cls-6" d="M111.605,96.749c6.15376-11.6225,15.19762-15.80713,28.73817-13.083,3.52681.70956,6.95073,1.9304,10.41292,2.91128-6.2263,5.64479-12.55,11.1083-20.88274,13.52325-2.10162.60908-5.03137,1.05656-5.30914,3.48638-.88841,7.77157-8.08242,10.9952-11.11559,17.92516C109.83254,112.724,110.8033,104.73135,111.605,96.749Z" transform="translate(-18.58486 -31.10696)"/><path class="cls-5" d="M162.26383,171.13032c4.69146-4.74123,9.80067-8.73518,16.87526-8.92031,5.89551-.15425,9.2392-2.74023,8.23236-8.96224-.34429-2.12751,1.11019-2.85213,1.99857-3.91519,3.13607-3.7528,6.48843-7.32485,9.79-11.00017,7.30817,14.28149,2.62294,29.12371-8.52,34.43631C181.06088,174.33072,171.478,175.92489,162.26383,171.13032Z" transform="translate(-18.58486 -31.10696)"/><path class="cls-3" d="M111.605,96.749c-.8017,7.98233-1.77247,15.975,1.84363,24.76312,3.03317-6.93,10.22717-10.15359,11.11559-17.92516.27777-2.42982,3.20752-2.8773,5.30914-3.48638,8.33272-2.415,14.65644-7.87846,20.88274-13.52325,2.51058,2.28766,2.502,2.66181-.12751,5.91006-6.88127,3.20261-15.05,4.80619-16.95978,14.07594a3.89645,3.89645,0,0,1-3.36664,2.98619c-7.59493.66111-8.97253,7.26057-13.51311,12.563,7.79461-.0925,13.38541-3.83278,19.69755-3.69213q.10609.778.2119,1.55538c-2.50824.9028-5.00872,1.82765-7.52539,2.70613-13.56883,4.7364-13.57022,4.73244-7.94445,17.57918q-1.01856.05366-2.03817.10614c-1.95853-2.65207-3.916-5.30294-6.19822-8.39354-1.76275,2.76316-3.12488,5.19686-3.49634,8.10852q-1.74416-.22721-3.48338-.453c2.77647-4.63853-2.19616-11.04619,3.43446-15.12023.35543-.25718.10739-1.833-.28743-2.56468-2.80627-5.20029-2.42072-10.94172-2.964-16.52679C106.16309,101.38257,108.73416,98.97226,111.605,96.749Z" transform="translate(-18.58486 -31.10696)"/><path class="cls-5" d="M191.15038,86.109c11.82418,6.65857,14.52578,12.02992,12.84732,25.53955q-3.77981-.26444-7.56217-.52657c-1.44376-3.85048-3.93889-5.73154-8.269-6.5527-5.41016-1.026-8.58795-5.64292-11.35176-10.20714,1.18657-10.34837,1.18572-10.34352,11.68594-8.51554C189.3727,85.99842,190.26662,86.02451,191.15038,86.109Z" transform="translate(-18.58486 -31.10696)"/><path class="cls-5" d="M132.79179,156.79482c4.49737,4.07912,2.06815,9.253.77211,13.17051-1.17912,3.56406-5.98567,1.57256-9.12684,1.09206-8.34383-1.27634-12.7129-7.03548-15.36262-14.49012q.11576-4.828.22965-9.65614c5.26932.43,10.6808-.73534,15.79745,1.40777C125.4755,153.13071,126.24957,157.5795,132.79179,156.79482Z" transform="translate(-18.58486 -31.10696)"/><path class="cls-5" d="M121.22867,140.26114c-5.62578-12.84675-5.62439-12.84278,7.94445-17.57918,2.51666-.87847,5.01715-1.80333,7.52539-2.70613,3.36231,3.88124,4.581,15.28287.78869,18.88143C132.98446,143.12991,126.86922,142.04572,121.22867,140.26114Z" transform="translate(-18.58486 -31.10696)"/><path class="cls-5" d="M157.5468,164.75376c-1.5586,1.94612-3.42793,3.10791-6.04035,2.39339-3.14532-4.6878-11.85645-5.47753-9.71479-13.86927.23175-8.68307,2.11815-10.006,10.451-6.7841,4.72283,1.82606,8.141-.32264,11.57753-2.94656C164.62331,151.4741,158.76031,157.42613,157.5468,164.75376Z" transform="translate(-18.58486 -31.10696)"/><path class="cls-5" d="M136.48661,118.42044c-6.31215-.14065-11.90294,3.59963-19.69755,3.69213,4.54058-5.30247,5.91818-11.90193,13.51311-12.563a3.89645,3.89645,0,0,0,3.36664-2.98619c1.90978-9.26975,10.07851-10.87333,16.95978-14.07594-2.8436,6.01609-2.59027,13.70784-10.57915,16.89155C136.84207,110.65715,136.728,114.9934,136.48661,118.42044Z" transform="translate(-18.58486 -31.10696)"/><path class="cls-5" d="M168.2768,142.763c5.83033-3.11244,12.45816-3.41878,18.65688-5.24027,1.13162-.33251,2.93269-.60743,3.48181.895.28069.768-.48725,2.05136-1.02123,2.96091-1.865,3.17682-3.891,5.87654-8.385,5.29276-4.08763-.531-7.49322,1.7227-8.062,5.57681-1.04531,7.0832-5.78983,9.45435-11.64261,11.04049C163.92962,156.54823,167.25457,150.04678,168.2768,142.763Z" transform="translate(-18.58486 -31.10696)"/><path class="cls-3" d="M180.2693,114.00457c-5.12407.79331-7.1755,3.44895-4.98337,8.48166,1.28709,2.95491.94077,5.42856-2.16757,6.67661-1.095.43968-2.61453,2.08465-4.083.0013-1.85743-2.63521-3.02895-5.09415.09538-7.57622a3.56285,3.56285,0,0,0,.9534-4.84253c-1.426-2.17768-3.13311-.68171-4.48991.54082-3.82522,3.4467-4.93457-2.61075-8.60293-1.57355,3.83964-3.3832,6.50217-7.19442,11.47-3.1734,1.62457,1.31494,3.3999-.09575,3.68206-2.38555.41259-3.34835.80752-6.69887,1.21169-10.04528q1.857,1.80956,3.71133,3.61216c-1.23316,3.65385-3.21826,7.57707,3.05812,8.54434Z" transform="translate(-18.58486 -31.10696)"/><path class="cls-4" d="M106.19559,105.41758c.54326,5.58506.15771,11.3265,2.964,16.52679.39483.73165.64286,2.3075.28743,2.56468-5.63062,4.074-.658,10.4817-3.43446,15.12023-3.59063-.21675-4.104-1.94191-4.68057-5.57682a48.38478,48.38478,0,0,1,2.6458-25.65119C104.451,107.17247,104.45773,105.67484,106.19559,105.41758Z" transform="translate(-18.58486 -31.10696)"/><path class="cls-5" d="M156.16163,174.15484q.86608-.07615,1.73466-.15242c6.3234,4.17189,14.29555,3.01859,20.84234,6.462-9.39307,3.15472-18.78755,6.2969-28.8776,3.25267Q153.01259,178.93556,156.16163,174.15484Z" transform="translate(-18.58486 -31.10696)"/><path class="cls-3" d="M191.15038,86.109c-.88375-.08449-1.77767-.11058-2.64971-.26239-10.50022-1.828-10.49937-1.83283-11.68594,8.51554a2.92956,2.92956,0,0,1-2.63052-1.55222c.76864-5.84412-.44178-9.52457-7.50705-6.97772a12.00289,12.00289,0,0,1-2.6765.33231c-1.37376-.51957-3.76108-.38464-1.9209-2.97793,4.02133-1.79667,12.18425,1.44724,9.84183-8.08842C177.62307,75.80108,188.93576,82.279,191.15038,86.109Z" transform="translate(-18.58486 -31.10696)"/><path class="cls-5" d="M135.35763,77.11527c7.20247-4.181,14.80167-4.76089,22.13481-5.98755,3.6556-.61148,4.91482,1.01244,2.61813,4.71971-2.74387,4.42914-5.04279,7.94793-11.29208,4.78814C144.97673,78.69312,140.32763,78.34739,135.35763,77.11527Z" transform="translate(-18.58486 -31.10696)"/><path class="cls-3" d="M178.73863,180.46441c-6.5468-3.4434-14.51894-2.2901-20.84234-6.462a5.84979,5.84979,0,0,1,4.36854-2.87141c9.21315,4.79389,18.79606,3.19971,28.37511,1.63771C187.90447,177.24076,182.34541,177.34316,178.73863,180.46441Z" transform="translate(-18.58486 -31.10696)"/><path class="cls-4" d="M208.37781,149.12219c-1.49326-5.47241-2.62727-9.6747-3.78963-13.86911-.61207-2.20875-.24056-3.99878,2.05585-4.963,1.78867-.75105,3.607-2.78279,5.46308-1.54888,1.49076.99108.6776,3.34085.64582,5.096A27.45756,27.45756,0,0,1,208.37781,149.12219Z" transform="translate(-18.58486 -31.10696)"/><path class="cls-4" d="M141.79166,153.27788c-2.14166,8.39174,6.56947,9.18147,9.71479,13.86927-2.10641-.15348-2.59118,2.50172-4.434,2.63573-2.18987.1593-4.6706,1.79916-6.48669.27528-1.86046-1.56113-1.31412-4.28361-.41225-6.31214C141.68333,160.35006,139.37408,156.45767,141.79166,153.27788Z" transform="translate(-18.58486 -31.10696)"/><path class="cls-3" d="M168.2768,142.763c-1.02222,7.28382-4.34717,13.78527-6.97218,20.52572-.82332,1.59508-2.39514,1.26535-3.75976,1.46444,1.21545-7.327,7.07846-13.279,6.2753-21.20591Q166.04844,143.15248,168.2768,142.763Z" transform="translate(-18.58486 -31.10696)"/><path class="cls-4" d="M125.10155,148.3189c-5.11665-2.14311-10.52813-.9778-15.79636-1.40724q-.09767-.57485-.19225-1.15169c6.66974.06393,13.34085.06877,20.00847.22385,2.337.05435,5.73213-1.5,6.75229.98058,1.16087,2.82274,1.42143,6.50693-1.49818,9.15722C134.8173,149.3258,131.70275,146.75218,125.10155,148.3189Z" transform="translate(-18.58486 -31.10696)"/><path class="cls-4" d="M171.92158,75.09816c2.34242,9.53566-5.8205,6.29175-9.84183,8.08842C164.46749,79.40536,164.55468,72.82176,171.92158,75.09816Z" transform="translate(-18.58486 -31.10696)"/><path class="cls-3" d="M125.10155,148.3189c6.60121-1.56672,9.71575,1.0069,9.274,7.80273-.52658.22027-1.05625.445-1.58482.67147C126.24957,157.5795,125.4755,153.13071,125.10155,148.3189Z" transform="translate(-18.58486 -31.10696)"/><path class="cls-4" d="M145.05164,183.32584c-3.07071-.43282-4.23573-2.64089-3.98167-5.26138.25685-2.64938,2.89162-2.30078,4.79944-2.67942,1.9729-.39158,3.9494-.76512,5.92141-1.148C150.29915,177.82642,147.51292,180.45573,145.05164,183.32584Z" transform="translate(-18.58486 -31.10696)"/><path class="cls-4" d="M164.00066,86.16452a12.00289,12.00289,0,0,0,2.6765-.33231c7.06527-2.54685,8.27569,1.1336,7.50705,6.97772A20.2831,20.2831,0,0,1,164.00066,86.16452Z" transform="translate(-18.58486 -31.10696)"/><path class="cls-4" d="M109.49594,140.08227c.37146-2.91167,1.73359-5.34537,3.49634-8.10853,2.2822,3.0906,4.23969,5.74147,6.19822,8.39354C115.89758,142.3768,112.68935,141.48062,109.49594,140.08227Z" transform="translate(-18.58486 -31.10696)"/><path class="cls-3" d="M109.11294,145.76q.094.57656.19224,1.15169-.116,4.8273-.23074,9.6556c-2.51147-.48443-3.62326-2.82308-4.302-4.56117C103.3759,148.43014,103.09215,144.63756,109.11294,145.76Z" transform="translate(-18.58486 -31.10696)"/><path class="cls-3" d="M145.05164,183.32584c2.46128-2.8701,5.24751-5.49942,6.73918-9.08878,1.43275-1.29055,2.87514-1.9142,4.36724-.08135q-3.14431,4.77963-6.297,9.56137Q147.45508,183.52186,145.05164,183.32584Z" transform="translate(-18.58486 -31.10696)"/><path class="cls-4" d="M202.75837,115.68592a12.026,12.026,0,0,1-2.80416,7.65253c-1.67827-3.01526-5.47314-4.63884-3.54864-8.869Q199.58174,115.07738,202.75837,115.68592Z" transform="translate(-18.58486 -31.10696)"/><path class="cls-4" d="M206.471,124.52135c.80044-3.66778.61007-6.80134,2.98665-9.29624C213.5771,119.47618,212.24069,122.18516,206.471,124.52135Z" transform="translate(-18.58486 -31.10696)"/><path class="cls-4" d="M180.1245,112.26493c-6.27638-.96726-4.29127-4.89049-3.05812-8.54434C179.65317,106.00776,183.48088,107.8503,180.1245,112.26493Z" transform="translate(-18.58486 -31.10696)"/><path class="cls-3" d="M202.75837,115.68592q-3.17651-.60837-6.3528-1.21644.01376-1.67835.02853-3.35242,3.78388.27008,7.56359.53148C204.10005,113.15349,204.6667,114.79929,202.75837,115.68592Z" transform="translate(-18.58486 -31.10696)"/></svg>