<?xml version="1.0" encoding="utf-8"?>
<!-- Generator: Adobe Illustrator 23.0.3, SVG Export Plug-In . SVG Version: 6.00 Build 0)  -->
<svg version="1.1" id="Layer_1" xmlns="http://www.w3.org/2000/svg" xmlns:xlink="http://www.w3.org/1999/xlink" x="0px" y="0px"
	 viewBox="0 0 400 245" style="enable-background:new 0 0 400 245;" xml:space="preserve">
<style type="text/css">
	.st0{fill:#E1251B;}
	.st1{fill:none;stroke:#A7A8A9;stroke-width:4.3424;stroke-linecap:round;stroke-miterlimit:10;}
	.st2{fill:#222222;stroke:#222222;stroke-width:1.0856;stroke-miterlimit:10;}
	.st3{fill:#E1251B;stroke:#E1251B;stroke-width:1.0856;stroke-miterlimit:10;}
	.st4{fill:#A7A8A9;}
	.st5{fill:none;}
	.st6{enable-background:new    ;}
	.st7{fill:#FFFFFF;}
</style>
<g>
	<path class="st0" d="M89.6,138.2l1.3-9.2l-10.6-4.3c-0.2-3-0.8-6-1.8-8.8l8.1-8.4l-4.9-7.8l-11.1,3.6c-2-2-4.3-3.8-6.8-5.3l0.8-12
		l-8.8-2.8l-6.4,10.2c-2.8-0.2-5.5-0.1-8.2,0.3l-7.3-10l-8.5,3.5L27,99.7c-2.1,1.5-4.1,3.3-5.9,5.2l-12.3-3l-4.3,8.2l9.3,8.3
		c-0.4,1.4-0.7,2.8-0.9,4.3c-0.2,1.1-0.3,2.3-0.3,3.4l-11.4,5.6l2,9l12.4,0.4c1.1,2.4,2.5,4.7,4.1,6.8l-5,11.4l7.3,5.7l9.5-7.4
		c2.5,1.2,5.1,2.2,7.9,2.8l3.4,11.6l9.2-0.4l2.4-11.4c2.9-0.7,5.6-1.7,8.2-3.1l9.8,6.5l6.9-6.2l-5.4-10.1c1.8-2.4,3.2-5,4.3-7.9
		L89.6,138.2z M43.2,151c-13.1-1.8-22.2-13.9-20.5-27c1.8-13.1,13.9-22.2,27-20.5c13.1,1.8,22.2,13.9,20.4,27
		C68.4,143.7,56.3,152.8,43.2,151z"/>
	<path class="st1" d="M32.1,29.4c16-11.1,37.2-13.8,56.3-5.4c19.1,8.5,31.3,26.1,33.7,45.4"/>
	<path class="st1" d="M100,74.2c-1.6-12.3-9.3-23.5-21.5-29s-25.7-3.7-35.9,3.4"/>
	<path class="st1" d="M49.8,67.5c5.7-4,13.4-5,20.2-1.9c6.8,3.1,11.2,9.4,12.1,16.3"/>
	<g>
		<path class="st2" d="M130.9,140.9l-2.2,1.7c-1.2-1.6-2.7-2.8-4.3-3.6c-1.7-0.8-3.6-1.2-5.6-1.2c-2.2,0-4.3,0.5-6.2,1.6
			c-1.9,1.1-3.3,2.5-4.4,4.3c-1,1.8-1.6,3.8-1.6,6.1c0,3.4,1.2,6.2,3.5,8.5c2.3,2.3,5.2,3.4,8.8,3.4c3.9,0,7.2-1.5,9.8-4.6l2.2,1.7
			c-1.4,1.8-3.1,3.1-5.2,4.1c-2.1,1-4.4,1.4-6.9,1.4c-4.9,0-8.7-1.6-11.5-4.9c-2.3-2.7-3.5-6-3.5-9.9c0-4.1,1.4-7.5,4.3-10.3
			s6.4-4.2,10.7-4.2c2.6,0,4.9,0.5,7,1.5C127.9,137.6,129.6,139.1,130.9,140.9z"/>
		<path class="st2" d="M152.5,135.1c4.2,0,7.7,1.4,10.6,4.2c2.8,2.8,4.2,6.3,4.2,10.4c0,4.1-1.4,7.5-4.2,10.4
			c-2.8,2.8-6.3,4.2-10.4,4.2c-4.1,0-7.6-1.4-10.4-4.2c-2.8-2.8-4.2-6.2-4.2-10.2c0-2.7,0.6-5.1,1.9-7.4c1.3-2.3,3.1-4.1,5.3-5.4
			C147.5,135.7,149.9,135.1,152.5,135.1z M152.6,137.8c-2.1,0-4,0.5-5.9,1.6c-1.8,1.1-3.3,2.5-4.3,4.3s-1.6,3.8-1.6,6.1
			c0,3.3,1.1,6.1,3.4,8.4c2.3,2.3,5.1,3.4,8.3,3.4c2.2,0,4.1-0.5,6-1.6c1.8-1.1,3.3-2.5,4.3-4.3c1-1.8,1.5-3.8,1.5-6.1
			c0-2.2-0.5-4.2-1.5-6s-2.5-3.2-4.3-4.3C156.7,138.3,154.7,137.8,152.6,137.8z"/>
		<path class="st2" d="M175.6,163.6v-27.8h0.6l18.5,21.3v-21.3h2.7v27.8h-0.6l-18.3-21v21H175.6z"/>
		<path class="st2" d="M204.1,158.4l2.4-1.4c1.7,3.1,3.6,4.6,5.8,4.6c0.9,0,1.8-0.2,2.6-0.6c0.8-0.4,1.4-1,1.9-1.8s0.6-1.5,0.6-2.3
			c0-0.9-0.3-1.9-0.9-2.7c-0.9-1.2-2.5-2.7-4.8-4.5c-2.3-1.8-3.8-3-4.3-3.8c-1-1.3-1.5-2.7-1.5-4.2c0-1.2,0.3-2.3,0.9-3.3
			c0.6-1,1.4-1.8,2.4-2.4c1.1-0.6,2.2-0.9,3.4-0.9c1.3,0,2.5,0.3,3.7,1s2.4,1.8,3.6,3.6l-2.3,1.7c-1.1-1.4-1.9-2.3-2.7-2.7
			c-0.7-0.4-1.5-0.7-2.4-0.7c-1.1,0-2,0.3-2.8,1c-0.7,0.7-1.1,1.5-1.1,2.5c0,0.6,0.1,1.2,0.4,1.8c0.2,0.6,0.7,1.2,1.4,1.9
			c0.4,0.4,1.6,1.3,3.6,2.8c2.4,1.8,4.1,3.4,4.9,4.7c0.9,1.4,1.3,2.8,1.3,4.2c0,2-0.8,3.8-2.3,5.2c-1.5,1.5-3.4,2.2-5.6,2.2
			c-1.7,0-3.2-0.4-4.6-1.4C206.6,162,205.3,160.5,204.1,158.4z"/>
		<path class="st2" d="M242.2,135.1c4.2,0,7.7,1.4,10.6,4.2c2.8,2.8,4.2,6.3,4.2,10.4c0,4.1-1.4,7.5-4.2,10.4
			c-2.8,2.8-6.3,4.2-10.4,4.2c-4.1,0-7.6-1.4-10.4-4.2c-2.8-2.8-4.2-6.2-4.2-10.2c0-2.7,0.6-5.1,1.9-7.4c1.3-2.3,3.1-4.1,5.3-5.4
			C237.2,135.7,239.6,135.1,242.2,135.1z M242.4,137.8c-2.1,0-4,0.5-5.9,1.6c-1.8,1.1-3.3,2.5-4.3,4.3s-1.6,3.8-1.6,6.1
			c0,3.3,1.1,6.1,3.4,8.4s5.1,3.4,8.3,3.4c2.2,0,4.1-0.5,6-1.6c1.8-1.1,3.3-2.5,4.3-4.3c1-1.8,1.5-3.8,1.5-6.1c0-2.2-0.5-4.2-1.5-6
			c-1-1.8-2.5-3.2-4.3-4.3C246.4,138.3,244.5,137.8,242.4,137.8z"/>
		<path class="st2" d="M265.5,135.8h5.5c3.1,0,5.2,0.1,6.3,0.4c1.6,0.4,3,1.2,4,2.4c1,1.2,1.5,2.8,1.5,4.6c0,1.5-0.4,2.8-1.1,4
			c-0.7,1.1-1.7,2-3,2.6c-1.3,0.6-3.1,0.9-5.5,0.9l10,12.9h-3.4l-10-12.9h-1.6v12.9h-2.8L265.5,135.8L265.5,135.8z M268.3,138.5v9.4
			l4.8,0c1.9,0,3.2-0.2,4.1-0.5c0.9-0.4,1.6-0.9,2.1-1.7s0.8-1.6,0.8-2.6c0-0.9-0.2-1.8-0.8-2.5c-0.5-0.8-1.2-1.3-2-1.6
			c-0.8-0.3-2.2-0.5-4.1-0.5L268.3,138.5L268.3,138.5z"/>
		<path class="st2" d="M288.9,138.5v-2.7h15.2v2.7h-6.2v25.1h-2.8v-25.1L288.9,138.5L288.9,138.5z"/>
		<path class="st2" d="M310.4,135.8h2.8v27.8h-2.8V135.8z"/>
		<path class="st2" d="M322.4,135.8h2.8v16.8c0,2,0,3.2,0.1,3.7c0.1,1.1,0.5,2,1,2.8s1.3,1.4,2.3,1.9c1,0.5,2.1,0.8,3.1,0.8
			c0.9,0,1.8-0.2,2.6-0.6s1.5-0.9,2.1-1.6s1-1.5,1.2-2.5c0.2-0.7,0.3-2.1,0.3-4.4v-16.8h2.8v16.8c0,2.5-0.2,4.5-0.7,6
			c-0.5,1.5-1.5,2.9-2.9,4c-1.5,1.1-3.2,1.7-5.3,1.7c-2.2,0-4.2-0.5-5.8-1.6s-2.7-2.5-3.2-4.2c-0.3-1.1-0.5-3-0.5-5.9L322.4,135.8
			L322.4,135.8z"/>
		<path class="st2" d="M349.1,163.6l4-27.8h0.5l11.3,22.8l11.2-22.8h0.5l4,27.8h-2.7l-2.8-19.9l-9.8,19.9h-0.7l-9.9-20l-2.7,20
			H349.1z"/>
	</g>
	<g>
		<path class="st3" d="M109.3,88.8c0.6,0,1.1,0.2,1.5,0.6c0.4,0.4,0.6,0.9,0.6,1.5c0,0.6-0.2,1-0.6,1.4c-0.4,0.4-0.9,0.6-1.5,0.6
			c-0.6,0-1-0.2-1.4-0.6c-0.4-0.4-0.6-0.9-0.6-1.4c0-0.6,0.2-1.1,0.6-1.5C108.3,89,108.8,88.8,109.3,88.8z M108.1,96.8h2.5v19.4
			h-2.5V96.8z"/>
		<path class="st3" d="M114.5,96.8h2.5v3.5c1-1.3,2.1-2.3,3.3-3c1.2-0.7,2.5-1,4-1c1.4,0,2.7,0.4,3.9,1.1s1.9,1.7,2.5,3
			c0.5,1.2,0.8,3.2,0.8,5.8v10h-2.5V107c0-2.2-0.1-3.7-0.3-4.5c-0.3-1.3-0.8-2.2-1.7-2.9c-0.8-0.7-1.9-1-3.2-1
			c-1.5,0-2.9,0.5-4.1,1.5c-1.2,1-2,2.2-2.4,3.7c-0.2,1-0.4,2.7-0.4,5.3v7.1h-2.5L114.5,96.8L114.5,96.8z"/>
		<path class="st3" d="M154.9,89.3v26.9h-2.5v-3.3c-1.1,1.3-2.2,2.2-3.5,2.9s-2.7,1-4.3,1c-2.8,0-5.1-1-7-3c-1.9-2-2.9-4.4-2.9-7.3
			c0-2.8,1-5.2,2.9-7.2c2-2,4.3-3,7.1-3c1.6,0,3,0.3,4.3,1c1.3,0.7,2.4,1.7,3.4,3.1V89.3H154.9z M145,98.7c-1.4,0-2.7,0.3-3.9,1
			c-1.2,0.7-2.1,1.6-2.8,2.9c-0.7,1.2-1,2.5-1,3.9c0,1.4,0.4,2.7,1.1,3.9s1.6,2.2,2.8,2.9c1.2,0.7,2.4,1,3.8,1c1.4,0,2.7-0.3,3.9-1
			c1.2-0.7,2.2-1.6,2.8-2.8s1-2.5,1-4c0-2.2-0.7-4.1-2.2-5.6C148.9,99.5,147.1,98.7,145,98.7z"/>
		<path class="st3" d="M159,96.8h2.5v9.1c0,2.2,0.1,3.7,0.4,4.6c0.4,1.2,1,2.1,2.1,2.8c1,0.7,2.2,1,3.6,1s2.6-0.3,3.6-1
			c1-0.7,1.6-1.6,2-2.7c0.2-0.8,0.4-2.3,0.4-4.8v-9.1h2.6v9.5c0,2.7-0.3,4.7-0.9,6.1c-0.6,1.3-1.6,2.4-2.8,3.2
			c-1.3,0.8-2.8,1.2-4.7,1.2s-3.5-0.4-4.7-1.2c-1.3-0.8-2.2-1.8-2.8-3.2c-0.6-1.4-0.9-3.4-0.9-6.2V96.8z"/>
		<path class="st3" d="M190.1,98.9l-1.6,1.7c-1.3-1.3-2.6-1.9-3.9-1.9c-0.8,0-1.5,0.3-2.1,0.8c-0.6,0.5-0.9,1.2-0.9,1.9
			c0,0.6,0.2,1.2,0.7,1.8c0.5,0.6,1.5,1.3,3,2.1c1.9,1,3.1,1.9,3.8,2.8c0.7,0.9,1,1.9,1,3.1c0,1.6-0.6,2.9-1.7,4.1s-2.5,1.7-4.2,1.7
			c-1.1,0-2.2-0.2-3.2-0.7c-1-0.5-1.9-1.2-2.5-2l1.6-1.8c1.3,1.4,2.6,2.2,4.1,2.2c1,0,1.9-0.3,2.6-1c0.7-0.6,1.1-1.4,1.1-2.3
			c0-0.7-0.2-1.3-0.7-1.9c-0.5-0.6-1.5-1.2-3.1-2.1c-1.8-0.9-2.9-1.8-3.6-2.7c-0.6-0.9-0.9-1.9-0.9-3c0-1.5,0.5-2.7,1.5-3.7
			s2.3-1.5,3.8-1.5C186.5,96.3,188.3,97.2,190.1,98.9z"/>
		<path class="st3" d="M195.4,89.6h2.5v7.2h4V99h-4v17.2h-2.5V99H192v-2.2h3.4V89.6z"/>
		<path class="st3" d="M203.5,96.8h2.6v2.8c0.8-1.1,1.6-1.9,2.4-2.5c0.8-0.6,1.7-0.8,2.6-0.8c0.7,0,1.4,0.2,2.2,0.7l-1.3,2.1
			c-0.5-0.2-1-0.3-1.3-0.3c-0.8,0-1.6,0.3-2.4,1c-0.8,0.7-1.4,1.8-1.8,3.2c-0.3,1.1-0.5,3.3-0.5,6.7v6.6h-2.6L203.5,96.8L203.5,96.8
			z"/>
		<path class="st3" d="M215,88.8c0.6,0,1.1,0.2,1.5,0.6c0.4,0.4,0.6,0.9,0.6,1.5c0,0.6-0.2,1-0.6,1.4c-0.4,0.4-0.9,0.6-1.5,0.6
			c-0.6,0-1-0.2-1.4-0.6c-0.4-0.4-0.6-0.9-0.6-1.4c0-0.6,0.2-1.1,0.6-1.5C214,89,214.5,88.8,215,88.8z M213.8,96.8h2.5v19.4h-2.5
			V96.8z"/>
		<path class="st3" d="M239.6,96.8v19.4h-2.5v-3.3c-1.1,1.3-2.2,2.2-3.5,2.9s-2.7,1-4.3,1c-2.8,0-5.1-1-7-3c-1.9-2-2.9-4.4-2.9-7.3
			c0-2.8,1-5.2,2.9-7.2c2-2,4.3-3,7.1-3c1.6,0,3,0.3,4.3,1c1.3,0.7,2.4,1.7,3.4,3.1v-3.6L239.6,96.8L239.6,96.8z M229.6,98.7
			c-1.4,0-2.7,0.3-3.9,1c-1.2,0.7-2.1,1.6-2.8,2.9s-1,2.5-1,3.9c0,1.4,0.4,2.7,1.1,3.9s1.6,2.2,2.8,2.9c1.2,0.7,2.4,1,3.8,1
			c1.4,0,2.7-0.3,3.9-1c1.2-0.7,2.2-1.6,2.8-2.8s1-2.5,1-4c0-2.2-0.7-4.1-2.2-5.6C233.6,99.5,231.8,98.7,229.6,98.7z"/>
		<path class="st3" d="M243.6,89.3h2.5v26.9h-2.5V89.3z"/>
		<path class="st3" d="M259.8,88.8c0.6,0,1,0.2,1.5,0.6c0.4,0.4,0.6,0.9,0.6,1.5c0,0.6-0.2,1-0.6,1.4c-0.4,0.4-0.9,0.6-1.5,0.6
			c-0.6,0-1-0.2-1.4-0.6c-0.4-0.4-0.6-0.9-0.6-1.4c0-0.6,0.2-1.1,0.6-1.5C258.7,89,259.2,88.8,259.8,88.8z M258.5,96.8h2.5v19.4
			h-2.5V96.8z"/>
		<path class="st3" d="M265,96.8h2.5v3.5c1-1.3,2.1-2.3,3.3-3c1.2-0.7,2.5-1,4-1c1.5,0,2.7,0.4,3.9,1.1s2,1.7,2.5,3
			c0.5,1.2,0.8,3.2,0.8,5.8v10h-2.5V107c0-2.2-0.1-3.7-0.3-4.5c-0.3-1.3-0.8-2.2-1.7-2.9s-1.9-1-3.2-1c-1.5,0-2.9,0.5-4.1,1.5
			c-1.2,1-2,2.2-2.4,3.7c-0.2,1-0.4,2.7-0.4,5.3v7.1H265V96.8z"/>
		<path class="st3" d="M288.2,89.6h2.5v7.2h4V99h-4v17.2h-2.5V99h-3.4v-2.2h3.4V89.6z"/>
		<path class="st3" d="M313.5,109.8l2.1,1.1c-0.7,1.4-1.5,2.4-2.4,3.3c-0.9,0.8-1.9,1.5-3,1.9c-1.1,0.4-2.4,0.7-3.8,0.7
			c-3.2,0-5.6-1-7.4-3.1c-1.8-2.1-2.7-4.4-2.7-7c0-2.5,0.8-4.7,2.3-6.6c1.9-2.4,4.5-3.7,7.7-3.7c3.3,0,6,1.3,7.9,3.8
			c1.4,1.8,2.1,4,2.1,6.6h-17.5c0,2.2,0.8,4.1,2.2,5.5s3.1,2.2,5.2,2.2c1,0,2-0.2,2.9-0.5c0.9-0.3,1.7-0.8,2.4-1.4
			C312,112,312.7,111.1,313.5,109.8z M313.5,104.6c-0.3-1.3-0.8-2.4-1.5-3.2c-0.6-0.8-1.5-1.4-2.5-1.9s-2.1-0.7-3.3-0.7
			c-1.9,0-3.5,0.6-4.9,1.8c-1,0.9-1.8,2.2-2.3,4C299,104.6,313.5,104.6,313.5,104.6z"/>
		<path class="st3" d="M318.7,96.8h2.5v2.8c0.8-1.1,1.6-1.9,2.4-2.5c0.8-0.6,1.7-0.8,2.6-0.8c0.7,0,1.4,0.2,2.2,0.7l-1.3,2.1
			c-0.5-0.2-1-0.3-1.3-0.3c-0.8,0-1.6,0.3-2.4,1c-0.8,0.7-1.4,1.8-1.8,3.2c-0.3,1.1-0.5,3.3-0.5,6.7v6.6h-2.5L318.7,96.8L318.7,96.8
			z"/>
		<path class="st3" d="M329.4,96.8h2.5v3.5c1-1.3,2.1-2.3,3.3-3c1.2-0.7,2.5-1,4-1c1.5,0,2.7,0.4,3.9,1.1s2,1.7,2.5,3
			c0.5,1.2,0.8,3.2,0.8,5.8v10h-2.5V107c0-2.2-0.1-3.7-0.3-4.5c-0.3-1.3-0.8-2.2-1.7-2.9c-0.8-0.7-1.9-1-3.2-1
			c-1.5,0-2.9,0.5-4.1,1.5s-2,2.2-2.4,3.7c-0.2,1-0.4,2.7-0.4,5.3v7.1h-2.5L329.4,96.8L329.4,96.8z"/>
		<path class="st3" d="M366.8,109.8l2.1,1.1c-0.7,1.4-1.5,2.4-2.4,3.3c-0.9,0.8-1.9,1.5-3,1.9c-1.1,0.4-2.4,0.7-3.8,0.7
			c-3.2,0-5.6-1-7.4-3.1c-1.8-2.1-2.7-4.4-2.7-7c0-2.5,0.8-4.7,2.3-6.6c1.9-2.4,4.5-3.7,7.7-3.7c3.3,0,6,1.3,7.9,3.8
			c1.4,1.8,2.1,4,2.1,6.6h-17.5c0,2.2,0.8,4.1,2.2,5.5s3.1,2.2,5.2,2.2c1,0,2-0.2,2.9-0.5c0.9-0.3,1.7-0.8,2.4-1.4
			C365.3,112,366,111.1,366.8,109.8z M366.8,104.6c-0.3-1.3-0.8-2.4-1.5-3.2c-0.6-0.8-1.5-1.4-2.5-1.9s-2.1-0.7-3.3-0.7
			c-1.9,0-3.5,0.6-4.9,1.8c-1,0.9-1.8,2.2-2.3,4C352.3,104.6,366.8,104.6,366.8,104.6z"/>
		<path class="st3" d="M375.1,89.6h2.5v7.2h4V99h-4v17.2h-2.5V99h-3.4v-2.2h3.4V89.6z"/>
	</g>
	<g>
		<path class="st4" d="M37.8,202.1l2.4,9.3c0.5,2,1,3.9,1.3,5.8h0.1c0.4-1.8,1-3.8,1.6-5.8l3-9.3H49l2.8,9.1
			c0.7,2.2,1.2,4.1,1.6,5.9h0.1c0.3-1.8,0.8-3.8,1.4-5.9l2.6-9.1h3.3L55,220.3h-3l-2.8-8.7c-0.6-2-1.2-3.8-1.6-6h-0.1
			c-0.5,2.2-1,4.1-1.7,6l-2.9,8.6h-3l-5.5-18.2L37.8,202.1L37.8,202.1z"/>
		<path class="st4" d="M65.9,202.1l2.4,9.3c0.5,2,1,3.9,1.3,5.8h0.1c0.4-1.8,1-3.8,1.6-5.8l3-9.3h2.8l2.8,9.1
			c0.7,2.2,1.2,4.1,1.6,5.9h0.1c0.3-1.8,0.8-3.8,1.4-5.9l2.6-9.1H89l-5.9,18.2h-3l-2.8-8.7c-0.6-2-1.2-3.8-1.6-6h-0.1
			c-0.4,2.2-1,4.1-1.7,6l-2.9,8.6h-3l-5.5-18.2L65.9,202.1L65.9,202.1z"/>
		<path class="st4" d="M94.1,202.1l2.4,9.3c0.5,2,1,3.9,1.3,5.8h0.1c0.4-1.8,1-3.8,1.6-5.8l3-9.3h2.8l2.8,9.1
			c0.7,2.2,1.2,4.1,1.6,5.9h0.1c0.3-1.8,0.8-3.8,1.4-5.9l2.6-9.1h3.3l-5.9,18.2h-3l-2.8-8.7c-0.6-2-1.2-3.8-1.6-6h-0.1
			c-0.4,2.2-1,4.1-1.7,6l-2.9,8.6h-3l-5.5-18.2L94.1,202.1L94.1,202.1z"/>
		<path class="st4" d="M118.2,218.3c0-1.4,0.9-2.4,2.3-2.4s2.2,1,2.2,2.4c0,1.4-0.9,2.4-2.3,2.4
			C119.1,220.7,118.2,219.7,118.2,218.3z"/>
		<path class="st4" d="M130.4,197c0,1.1-0.8,2-2.1,2c-1.2,0-2-0.9-2-2c0-1.2,0.9-2.1,2.1-2.1C129.6,194.9,130.4,195.8,130.4,197z
			 M126.7,220.3v-18.2h3.3v18.2L126.7,220.3L126.7,220.3z"/>
		<path class="st4" d="M139.2,197c0,1.1-0.8,2-2.1,2c-1.2,0-2-0.9-2-2c0-1.2,0.9-2.1,2.1-2.1C138.4,194.9,139.2,195.8,139.2,197z
			 M135.5,220.3v-18.2h3.3v18.2L135.5,220.3L135.5,220.3z"/>
		<path class="st4" d="M157.3,219.6c-0.9,0.4-2.8,1.1-5.2,1.1c-5.5,0-9.1-3.7-9.1-9.3c0-5.6,3.8-9.7,9.8-9.7c2,0,3.7,0.5,4.6,0.9
			l-0.8,2.6c-0.8-0.4-2-0.9-3.8-0.9c-4.2,0-6.4,3.1-6.4,6.9c0,4.2,2.7,6.8,6.3,6.8c1.9,0,3.1-0.5,4.1-0.9L157.3,219.6z"/>
		<path class="st4" d="M177.4,211c0,6.7-4.7,9.7-9.1,9.7c-4.9,0-8.7-3.6-8.7-9.4c0-6.1,4-9.7,9-9.7
			C173.9,201.7,177.4,205.5,177.4,211z M163,211.2c0,4,2.3,7,5.5,7c3.2,0,5.5-3,5.5-7.1c0-3.1-1.5-7-5.4-7
			C164.7,204.1,163,207.8,163,211.2z"/>
		<path class="st4" d="M181.6,207c0-1.9,0-3.4-0.1-4.9h2.9l0.2,3h0.1c0.9-1.7,3-3.4,6-3.4c2.5,0,6.4,1.5,6.4,7.8v10.9h-3.3v-10.5
			c0-2.9-1.1-5.4-4.2-5.4c-2.2,0-3.9,1.5-4.4,3.4c-0.1,0.4-0.2,1-0.2,1.5v10.9h-3.3V207z"/>
		<path class="st4" d="M202.1,216.9c1,0.6,2.7,1.3,4.4,1.3c2.4,0,3.5-1.2,3.5-2.7c0-1.6-0.9-2.4-3.4-3.4c-3.3-1.2-4.8-3-4.8-5.1
			c0-2.9,2.4-5.3,6.3-5.3c1.8,0,3.5,0.5,4.5,1.1l-0.8,2.4c-0.7-0.4-2-1.1-3.7-1.1c-2,0-3.1,1.1-3.1,2.5c0,1.5,1.1,2.2,3.5,3.1
			c3.2,1.2,4.8,2.8,4.8,5.5c0,3.2-2.5,5.5-6.8,5.5c-2,0-3.8-0.5-5.1-1.2L202.1,216.9z"/>
		<path class="st4" d="M233.9,211c0,6.7-4.7,9.7-9.1,9.7c-4.9,0-8.7-3.6-8.7-9.4c0-6.1,4-9.7,9-9.7
			C230.3,201.7,233.9,205.5,233.9,211z M219.4,211.2c0,4,2.3,7,5.5,7c3.2,0,5.5-3,5.5-7.1c0-3.1-1.5-7-5.5-7
			C221.1,204.1,219.4,207.8,219.4,211.2z"/>
		<path class="st4" d="M238,207.8c0-2.1,0-4-0.1-5.7h2.9l0.1,3.6h0.1c0.8-2.4,2.8-4,5-4c0.4,0,0.6,0,0.9,0.1v3.1
			c-0.3-0.1-0.7-0.1-1.1-0.1c-2.3,0-4,1.8-4.4,4.2c-0.1,0.4-0.1,1-0.1,1.5v9.7H238L238,207.8L238,207.8z"/>
		<path class="st4" d="M255.2,196.9v5.2h4.7v2.5h-4.7v9.8c0,2.3,0.6,3.5,2.5,3.5c0.9,0,1.5-0.1,1.9-0.2l0.1,2.5
			c-0.6,0.3-1.7,0.4-2.9,0.4c-1.5,0-2.8-0.5-3.6-1.4c-0.9-1-1.3-2.6-1.3-4.7v-9.9h-2.8v-2.5h2.8v-4.4L255.2,196.9z"/>
		<path class="st4" d="M267.4,197c0,1.1-0.8,2-2.1,2c-1.2,0-2-0.9-2-2c0-1.2,0.9-2.1,2.1-2.1C266.6,194.9,267.4,195.8,267.4,197z
			 M263.7,220.3v-18.2h3.3v18.2L263.7,220.3L263.7,220.3z"/>
		<path class="st4" d="M287.7,215.3c0,1.9,0,3.5,0.1,5h-2.9l-0.2-3h-0.1c-0.9,1.5-2.8,3.4-6,3.4c-2.9,0-6.3-1.6-6.3-8v-10.6h3.3
			v10.1c0,3.5,1,5.8,4.1,5.8c2.2,0,3.8-1.5,4.4-3c0.2-0.5,0.3-1.1,0.3-1.7v-11.2h3.3L287.7,215.3L287.7,215.3z"/>
		<path class="st4" d="M293.2,207c0-1.9,0-3.4-0.1-4.9h2.9l0.1,2.9h0.1c1-1.7,2.7-3.4,5.7-3.4c2.5,0,4.4,1.5,5.1,3.6h0.1
			c0.6-1,1.3-1.8,2-2.4c1.1-0.8,2.3-1.3,4-1.3c2.4,0,6,1.6,6,7.9v10.7H316V210c0-3.5-1.3-5.6-4-5.6c-1.9,0-3.4,1.4-3.9,3
			c-0.1,0.4-0.3,1.1-0.3,1.6v11.2h-3.2v-10.9c0-2.9-1.3-5-3.8-5c-2.1,0-3.6,1.7-4.1,3.3c-0.2,0.5-0.3,1.1-0.3,1.6v11h-3.2L293.2,207
			L293.2,207z"/>
		<path class="st4" d="M323.8,218.3c0-1.4,0.9-2.4,2.3-2.4s2.2,1,2.2,2.4c0,1.4-0.9,2.4-2.3,2.4
			C324.7,220.7,323.8,219.7,323.8,218.3z"/>
		<path class="st4" d="M348.9,211c0,6.7-4.7,9.7-9.1,9.7c-4.9,0-8.7-3.6-8.7-9.4c0-6.1,4-9.7,9-9.7
			C345.3,201.7,348.9,205.5,348.9,211z M334.4,211.2c0,4,2.3,7,5.5,7c3.2,0,5.5-3,5.5-7.1c0-3.1-1.5-7-5.5-7
			C336.1,204.1,334.4,207.8,334.4,211.2z"/>
		<path class="st4" d="M353,207.8c0-2.1,0-4-0.1-5.7h2.9l0.1,3.6h0.1c0.8-2.4,2.8-4,5-4c0.4,0,0.6,0,0.9,0.1v3.1
			c-0.3-0.1-0.7-0.1-1.1-0.1c-2.3,0-4,1.8-4.4,4.2c-0.1,0.4-0.1,1-0.1,1.5v9.7H353V207.8z"/>
		<path class="st4" d="M380.7,202.1c-0.1,1.3-0.1,2.8-0.1,5v10.6c0,4.2-0.8,6.7-2.6,8.3c-1.8,1.7-4.3,2.2-6.6,2.2
			c-2.2,0-4.6-0.5-6.1-1.5l0.8-2.5c1.2,0.8,3.1,1.4,5.3,1.4c3.4,0,5.9-1.8,5.9-6.4v-2h-0.1c-1,1.7-3,3.1-5.8,3.1
			c-4.5,0-7.8-3.8-7.8-8.9c0-6.2,4-9.7,8.2-9.7c3.2,0,4.9,1.6,5.7,3.2h0.1l0.1-2.8L380.7,202.1L380.7,202.1z M377.3,209.3
			c0-0.6,0-1.1-0.2-1.5c-0.6-1.9-2.2-3.5-4.6-3.5c-3.2,0-5.4,2.7-5.4,6.9c0,3.6,1.8,6.6,5.4,6.6c2,0,3.9-1.3,4.6-3.4
			c0.2-0.6,0.3-1.2,0.3-1.8L377.3,209.3L377.3,209.3z"/>
	</g>
	<g>
		<path class="st4" d="M62,16.9h4.9C63.8,16.8,62,16.9,62,16.9z"/>
		<path class="st4" d="M381.7,17L66.9,16.9c12.7,0.7,46.1,7.1,53.5,54.9h261.3l-31.5-27.3L381.7,17z"/>
	</g>
	<g>
		<path class="st4" d="M398.8,87.2c0,4-3.2,7.2-7.3,7.2c-4.1,0-7.3-3.2-7.3-7.2c0-3.9,3.3-7.1,7.3-7.1
			C395.6,80.1,398.8,83.3,398.8,87.2z M385.9,87.2c0,3.2,2.3,5.7,5.6,5.7c3.1,0,5.4-2.5,5.4-5.6c0-3.2-2.3-5.7-5.5-5.7
			C388.3,81.6,385.9,84.1,385.9,87.2z M390.3,91h-1.6v-7.1c0.6-0.1,1.6-0.2,2.7-0.2c1.4,0,2,0.2,2.5,0.5c0.4,0.3,0.7,0.9,0.7,1.6
			c0,0.8-0.6,1.4-1.5,1.7v0.1c0.7,0.3,1.1,0.8,1.3,1.7c0.2,1.1,0.4,1.5,0.5,1.8h-1.8c-0.2-0.3-0.4-0.9-0.6-1.7
			c-0.1-0.8-0.6-1.1-1.5-1.1h-0.8L390.3,91L390.3,91z M390.4,86.9h0.8c0.9,0,1.6-0.3,1.6-1c0-0.7-0.5-1.1-1.5-1.1
			c-0.4,0-0.7,0-0.9,0.1V86.9z"/>
	</g>
	<rect x="147" y="26.4" class="st5" width="218.6" height="45.2"/>
	<g class="st6">
		<path class="st7" d="M167.8,57.6c0,0.5,0,0.9-0.1,1.2c0,0.3-0.1,0.6-0.2,0.8c-0.1,0.2-0.2,0.4-0.3,0.5c-0.1,0.1-0.3,0.1-0.4,0.1
			h-14.5c-0.5,0-1-0.2-1.4-0.5c-0.4-0.3-0.5-0.8-0.5-1.5V29.6c0-0.2,0.1-0.3,0.2-0.4c0.1-0.1,0.3-0.2,0.5-0.3c0.2-0.1,0.6-0.1,1-0.2
			s0.9-0.1,1.5-0.1c0.6,0,1.2,0,1.6,0.1c0.4,0,0.7,0.1,1,0.2c0.2,0.1,0.4,0.2,0.5,0.3c0.1,0.1,0.2,0.3,0.2,0.4v25.4h9.9
			c0.2,0,0.3,0,0.4,0.1c0.1,0.1,0.2,0.2,0.3,0.4c0.1,0.2,0.1,0.5,0.2,0.8C167.8,56.7,167.8,57.1,167.8,57.6z"/>
		<path class="st7" d="M178,59.4c0,0.2-0.1,0.3-0.2,0.4c-0.1,0.1-0.3,0.2-0.5,0.3c-0.2,0.1-0.6,0.1-1,0.2c-0.4,0-0.9,0.1-1.6,0.1
			c-0.6,0-1.1,0-1.5-0.1s-0.7-0.1-1-0.2c-0.2-0.1-0.4-0.2-0.5-0.3c-0.1-0.1-0.2-0.3-0.2-0.4V29.6c0-0.2,0.1-0.3,0.2-0.4
			c0.1-0.1,0.3-0.2,0.5-0.3c0.3-0.1,0.6-0.1,1-0.2c0.4,0,0.9-0.1,1.5-0.1c0.6,0,1.2,0,1.6,0.1c0.4,0,0.7,0.1,1,0.2
			c0.2,0.1,0.4,0.2,0.5,0.3c0.1,0.1,0.2,0.3,0.2,0.4V59.4z"/>
		<path class="st7" d="M210.7,57.8c0.2,0.6,0.3,1,0.4,1.4c0,0.3,0,0.6-0.2,0.8s-0.5,0.3-1,0.3c-0.5,0-1.1,0.1-1.9,0.1
			c-0.8,0-1.5,0-1.9,0c-0.5,0-0.8-0.1-1.1-0.1c-0.2-0.1-0.4-0.2-0.5-0.3c-0.1-0.1-0.2-0.3-0.2-0.5l-2.1-6.3h-11.9l-2,6.2
			c-0.1,0.2-0.2,0.4-0.3,0.6c-0.1,0.2-0.3,0.3-0.5,0.4c-0.2,0.1-0.6,0.1-1,0.2c-0.4,0-1,0-1.7,0c-0.7,0-1.3,0-1.8-0.1
			c-0.4,0-0.7-0.2-0.9-0.4c-0.2-0.2-0.2-0.5-0.2-0.8c0-0.3,0.2-0.8,0.4-1.4l9.7-28c0.1-0.3,0.2-0.5,0.3-0.7c0.1-0.2,0.3-0.3,0.6-0.4
			c0.3-0.1,0.7-0.1,1.2-0.2s1.2,0,2,0c1,0,1.7,0,2.3,0c0.6,0,1,0.1,1.3,0.2c0.3,0.1,0.5,0.2,0.7,0.4c0.1,0.2,0.3,0.4,0.4,0.7
			L210.7,57.8z M196.3,34.7L196.3,34.7l-4.5,13.4h8.9L196.3,34.7z"/>
		<path class="st7" d="M221.6,59.4c0,0.2-0.1,0.3-0.2,0.4s-0.3,0.2-0.5,0.3c-0.2,0.1-0.6,0.1-1,0.2c-0.4,0-0.9,0.1-1.6,0.1
			c-0.6,0-1.1,0-1.5-0.1c-0.4,0-0.7-0.1-1-0.2c-0.2-0.1-0.4-0.2-0.5-0.3s-0.2-0.3-0.2-0.4V29.6c0-0.2,0.1-0.3,0.2-0.4
			s0.3-0.2,0.5-0.3c0.3-0.1,0.6-0.1,1-0.2c0.4,0,0.9-0.1,1.5-0.1c0.6,0,1.2,0,1.6,0.1c0.4,0,0.7,0.1,1,0.2c0.2,0.1,0.4,0.2,0.5,0.3
			s0.2,0.3,0.2,0.4V59.4z"/>
		<path class="st7" d="M247.2,50.8c0,1.7-0.3,3.1-0.9,4.4s-1.5,2.3-2.5,3.1c-1.1,0.8-2.3,1.5-3.7,1.9s-2.9,0.6-4.5,0.6
			c-1.1,0-2.1-0.1-3-0.3c-0.9-0.2-1.8-0.4-2.5-0.6c-0.7-0.3-1.3-0.5-1.8-0.8c-0.5-0.3-0.8-0.5-1-0.7c-0.2-0.2-0.4-0.5-0.5-0.9
			c-0.1-0.4-0.1-1-0.1-1.7c0-0.5,0-0.9,0-1.3c0-0.3,0.1-0.6,0.2-0.8c0.1-0.2,0.2-0.4,0.3-0.5c0.1-0.1,0.3-0.1,0.4-0.1
			c0.2,0,0.5,0.1,1,0.4c0.4,0.3,0.9,0.6,1.6,0.9c0.6,0.3,1.4,0.6,2.3,0.9c0.9,0.3,1.9,0.4,3.1,0.4c0.8,0,1.5-0.1,2.1-0.3
			s1.1-0.5,1.6-0.8c0.4-0.3,0.8-0.8,1-1.3s0.3-1.1,0.3-1.7c0-0.7-0.2-1.3-0.6-1.8c-0.4-0.5-0.9-1-1.5-1.4c-0.6-0.4-1.3-0.8-2.1-1.1
			c-0.8-0.3-1.6-0.7-2.5-1.1c-0.8-0.4-1.7-0.8-2.5-1.3c-0.8-0.5-1.5-1.1-2.1-1.8c-0.6-0.7-1.1-1.5-1.5-2.5c-0.4-0.9-0.6-2.1-0.6-3.4
			c0-1.5,0.3-2.8,0.8-4s1.3-2.1,2.3-2.9s2.1-1.3,3.4-1.7c1.3-0.4,2.7-0.6,4.1-0.6c0.7,0,1.5,0.1,2.2,0.2s1.4,0.3,2.1,0.5
			c0.6,0.2,1.2,0.4,1.7,0.7c0.5,0.2,0.8,0.4,1,0.6c0.2,0.2,0.3,0.3,0.3,0.4c0.1,0.1,0.1,0.3,0.1,0.5c0,0.2,0.1,0.4,0.1,0.7
			c0,0.3,0,0.6,0,1.1c0,0.5,0,0.9,0,1.2s-0.1,0.6-0.1,0.8c-0.1,0.2-0.1,0.4-0.2,0.5s-0.2,0.1-0.4,0.1s-0.5-0.1-0.9-0.3
			c-0.4-0.2-0.9-0.5-1.4-0.7c-0.6-0.3-1.2-0.5-2-0.7c-0.7-0.2-1.6-0.3-2.5-0.3c-0.7,0-1.3,0.1-1.8,0.3s-1,0.4-1.3,0.7
			s-0.6,0.7-0.8,1.1c-0.2,0.4-0.3,0.9-0.3,1.3c0,0.7,0.2,1.3,0.6,1.8c0.4,0.5,0.9,1,1.5,1.4c0.6,0.4,1.4,0.8,2.2,1.1
			c0.8,0.3,1.6,0.7,2.5,1.1c0.8,0.4,1.7,0.8,2.5,1.3c0.8,0.5,1.5,1.1,2.2,1.8c0.6,0.7,1.1,1.5,1.5,2.4
			C247,48.4,247.2,49.5,247.2,50.8z"/>
		<path class="st7" d="M280.5,44.1c0,2.6-0.3,5-1,7s-1.6,3.8-2.9,5.3c-1.3,1.4-2.9,2.5-4.8,3.3c-1.9,0.8-4.1,1.1-6.6,1.1
			c-2.5,0-4.6-0.3-6.4-1c-1.8-0.6-3.4-1.6-4.6-2.9c-1.2-1.3-2.1-3-2.7-5c-0.6-2-0.9-4.4-0.9-7.2c0-2.6,0.3-4.8,1-6.9
			s1.6-3.8,2.9-5.2c1.3-1.4,2.9-2.5,4.8-3.3c1.9-0.8,4.1-1.1,6.6-1.1c2.4,0,4.5,0.3,6.3,1c1.8,0.6,3.4,1.6,4.6,2.9s2.2,3,2.8,5
			C280.1,39,280.5,41.4,280.5,44.1z M273.7,44.4c0-1.7-0.1-3.2-0.4-4.5c-0.3-1.4-0.7-2.5-1.3-3.5s-1.5-1.7-2.5-2.2s-2.3-0.8-3.9-0.8
			c-1.6,0-2.9,0.3-4,0.9c-1.1,0.6-1.9,1.4-2.6,2.4c-0.7,1-1.1,2.2-1.4,3.5c-0.3,1.3-0.4,2.7-0.4,4.2c0,1.7,0.1,3.3,0.4,4.6
			s0.7,2.5,1.3,3.5c0.6,1,1.4,1.7,2.5,2.2c1,0.5,2.3,0.8,3.9,0.8c1.6,0,2.9-0.3,4-0.9s1.9-1.4,2.6-2.4c0.7-1,1.1-2.2,1.4-3.5
			C273.6,47.4,273.7,45.9,273.7,44.4z"/>
		<path class="st7" d="M311.9,58c0,0.4-0.1,0.7-0.2,1c-0.1,0.3-0.3,0.5-0.5,0.7c-0.2,0.2-0.5,0.3-0.8,0.4c-0.3,0.1-0.6,0.1-0.9,0.1
			h-2.7c-0.6,0-1.1-0.1-1.5-0.2c-0.4-0.1-0.8-0.3-1.1-0.6c-0.4-0.3-0.7-0.7-1-1.2s-0.7-1.2-1.1-2l-7.9-14.8
			c-0.5-0.9-0.9-1.8-1.4-2.8c-0.5-1-0.9-2-1.3-3h0c0.1,1.2,0.1,2.3,0.1,3.5c0,1.2,0,2.4,0,3.6v16.5c0,0.2,0,0.3-0.1,0.4
			c-0.1,0.1-0.2,0.2-0.5,0.3c-0.2,0.1-0.5,0.2-0.9,0.2s-0.9,0.1-1.4,0.1c-0.6,0-1,0-1.4-0.1c-0.4,0-0.7-0.1-0.9-0.2
			c-0.2-0.1-0.4-0.2-0.4-0.3s-0.1-0.3-0.1-0.4V31c0-0.8,0.2-1.3,0.7-1.7s1-0.6,1.6-0.6h3.4c0.6,0,1.1,0.1,1.6,0.2s0.8,0.3,1.1,0.5
			c0.3,0.2,0.6,0.6,0.9,1c0.3,0.4,0.6,1,0.9,1.6l6.1,11.5c0.4,0.7,0.7,1.4,1.1,2.1c0.3,0.7,0.7,1.3,1,2s0.6,1.3,1,2
			c0.3,0.7,0.6,1.3,0.9,2h0c0-1.1-0.1-2.3-0.1-3.6s0-2.4,0-3.5V29.6c0-0.2,0-0.3,0.1-0.4s0.3-0.2,0.5-0.3c0.2-0.1,0.5-0.2,0.9-0.2
			c0.4,0,0.9-0.1,1.4-0.1c0.6,0,1,0,1.4,0.1c0.4,0,0.7,0.1,0.9,0.2s0.3,0.2,0.4,0.3s0.1,0.3,0.1,0.4V58z"/>
	</g>
</g>
</svg>
