<svg id="Layer_1" data-name="Layer 1" xmlns="http://www.w3.org/2000/svg" viewBox="0 0 612 90.73202"><defs><style>.cls-1{fill:#231f20;}</style></defs><title>imasons</title><path d="M98.49264,82.90848C81.78112,84.29516,81.75087,84.303,77.99857,69.8906,75.23382,59.27135,72.56119,48.62812,69.835,37.94668,59.55926,43.8649,54.92816,64.18256,59.85115,82.69962H43.23973c0-7.74083.96369-15.86519-.27616-23.63807-1.19459-7.489-4.66577-14.615-7.13673-21.90045q-1.55961.186-3.11922.372C31.02105,43.96,29.31784,50.38265,27.65379,56.81545c-1.09259,4.22368-2.13016,8.46163-3.18973,12.69383-3.8114,15.22379-3.811,15.22391-20.52825,13.28138C9.71812,61.79113,15.06263,40.7519,21.58189,20.08319c1.30094-4.12451,7.08881-6.83377,11.45792-10.78339,3.43984,5.13092,6.30642,9.40678,9.173,13.68262l2.17646-.58143c-.29418-6.08739-.58835-12.1748-.90244-18.67429H58.97513L57.91825,22.95054l1.84407.46246c2.76856-4.40043,5.53712-8.80085,8.35444-13.2788C76.03043,13.72669,81.39029,18.406,83.475,27.67206,87.62048,46.09725,93.30361,64.17647,98.49264,82.90848Z"/><path class="cls-1" d="M117.42831,41.57832v-2.015c4.13993-.38252,4.63013-.70932,4.63013-5.28449V13.52417c0-4.57592-.54441-5.0119-4.63013-5.3387v-2.015h16.83233v2.015c-4.08572.38177-4.63013.76278-4.63013,5.3387V34.27883c0,4.52095.49019,4.84775,4.63013,5.28449v2.015Z"/><path class="cls-1" d="M176.85352,8.18547c-3.32294.436-4.35755,1.14379-4.52095,3.59553-.1634,2.12418-.3268,3.97654-.3268,8.71586V42.1777h-3.05036l-22.7162-27.23716V27.25193a82.68974,82.68974,0,0,0,.27258,8.44252c.21762,2.39752,1.36141,3.6505,5.39292,3.86887v2.015h-13.5094v-2.015c3.10458-.27259,4.46674-1.09033,4.79354-3.6505a73.317,73.317,0,0,0,.32679-8.66089V14.34116a6.51692,6.51692,0,0,0-1.14379-4.41252c-.98039-1.3614-2.28833-1.5248-4.57592-1.74317v-2.015h10.62243L169.173,30.30305V20.49686c0-4.73932-.05422-6.53671-.21762-8.55246-.16415-2.34256-1.03536-3.48635-5.55706-3.75893v-2.015h13.45517Z"/><path class="cls-1" d="M205.4438,15.21313A14.48585,14.48585,0,0,0,203.047,10.092c-1.14379-1.198-1.85235-1.41637-4.46673-1.41637h-4.08573c-1.85235,0-2.07.10918-2.07,1.96154v11.8754h5.8289c3.21376,0,3.64974-.817,4.46674-4.63089h2.015v12.093h-2.07c-.59863-3.704-1.41638-4.62938-4.41177-4.62938h-5.8289V33.8436c0,5.0104.3268,5.39292,5.22952,5.71972v2.015H180.2224v-2.015c4.13994-.38252,4.63014-.70932,4.63014-5.71972V13.79675c0-4.8485-.4902-5.28448-4.63014-5.61128v-2.015h18.46633c4.6851,0,7.40867-.055,8.28063-.10919.05421.92618.3268,5.61053.59863,8.825Z"/><path class="cls-1" d="M245.74759,41.90512c-.3268,0-.98039,0-1.634-.05422-6.91847-.3268-8.93422-1.79814-10.56821-4.08572a97.766,97.766,0,0,1-5.61053-9.58858c-.81775-1.46984-1.57977-1.79663-3.32294-1.79663l-1.08958-.05422v7.95308c0,4.41252.54441,4.79354,4.63013,5.28449v2.015H211.48353v-2.015c4.13994-.43674,4.63014-.872,4.63014-5.28449V13.415c0-4.30334-.54441-4.90272-4.63014-5.22952v-2.015h15.797c4.84851,0,7.627.54441,9.86041,2.07a8.31973,8.31973,0,0,1,3.64974,7.24451c0,4.84851-3.21452,7.40867-6.80929,8.825.817,1.634,2.94118,5.1753,4.57592,7.68125a44.07033,44.07033,0,0,0,4.13994,5.6655,6.63988,6.63988,0,0,0,3.43138,2.396ZM224.99293,24.09238c2.34255,0,4.13994-.38176,5.3387-1.41637,1.79739-1.52556,2.56016-3.59553,2.56016-6.37406,0-5.77393-3.32294-7.8439-6.3733-7.8439-1.47135,0-2.17916.21762-2.506.54441-.38177.3268-.4902.98115-.4902,2.07073V24.09238Z"/><path class="cls-1" d="M268.39979,41.57832v-2.015c3.43138-.49095,3.43138-1.09033,2.66935-3.43213-.54516-1.634-1.41637-4.08573-2.23412-6.26488H258.21259c-.59863,1.6882-1.36141,3.75893-1.90657,5.44713-1.14379,3.43213.1634,3.86736,4.46749,4.24988v2.015H247.31833v-2.015c3.43138-.43674,4.30334-.92618,6.15569-5.50285L264.80426,5.89789l2.61514-.4902c3.48634,9.47864,7.1903,19.17489,10.73086,28.27176,2.01575,5.06612,2.50595,5.44713,6.04651,5.88387v2.015Zm-4.79429-26.0384c-1.579,3.92158-3.10457,7.57132-4.46673,11.54861h8.66164Z"/><path class="cls-1" d="M307.39488,15.15816c-1.08957-3.48635-2.61438-7.46289-7.62628-7.46289a5.01848,5.01848,0,0,0-5.22951,5.28449c0,2.99539,2.01575,4.79353,6.80929,7.1903,5.82889,2.887,9.53285,5.71971,9.53285,11.11338,0,6.42752-5.338,11.11262-13.12838,11.11262a31.46175,31.46175,0,0,1-9.15109-1.6897c-.3268-1.253-1.253-6.91848-1.63474-9.47864l2.12494-.48945c1.08957,3.43213,4.13994,9.36871,9.47863,9.36871,3.32295,0,5.338-2.06922,5.338-5.55557,0-3.15954-1.96078-5.0119-6.53671-7.46288-5.66549-3.05111-9.36945-5.77468-9.36945-11.44018,0-5.71971,4.46674-10.24066,12.63818-10.24066a40.28451,40.28451,0,0,1,7.78969.98039c.21761,2.01576.59938,4.84851,1.0346,8.27988Z"/><path class="cls-1" d="M345.03083,15.59414a16.78848,16.78848,0,0,0-2.34255-5.3387c-.98039-1.14379-1.41637-1.57977-4.63014-1.57977H334.5718V34.27883c0,4.57517.54517,4.902,5.39291,5.28449v2.015H321.8794v-2.015c4.63014-.38252,5.12033-.70932,5.12033-5.28449V8.67567h-3.32294c-3.05036,0-3.92157.49019-4.95694,1.79814a20.724,20.724,0,0,0-2.23336,5.17454h-2.07c.381-3.97654.76278-8.22566.87121-10.84h1.63474c.817,1.253,1.47059,1.36216,3.10458,1.36216h21.79a3.60282,3.60282,0,0,0,3.15955-1.36216h1.57977c.05421,2.28758.27183,7.08187.54441,10.62243Z"/><path class="cls-1" d="M385.16972,41.90512c-.3268,0-.9804,0-1.634-.05422-6.91847-.3268-8.93423-1.79814-10.56822-4.08572A97.766,97.766,0,0,1,367.357,28.1766c-.81775-1.46984-1.57978-1.79663-3.32295-1.79663l-1.08958-.05422v7.95308c0,4.41252.54442,4.79354,4.63014,5.28449v2.015H350.90566v-2.015c4.13994-.43674,4.63014-.872,4.63014-5.28449V13.415c0-4.30334-.54442-4.90272-4.63014-5.22952v-2.015h15.797c4.8485,0,7.627.54441,9.8604,2.07a8.31973,8.31973,0,0,1,3.64974,7.24451c0,4.84851-3.21451,7.40867-6.80928,8.825.817,1.634,2.94117,5.1753,4.57592,7.68125a44.07053,44.07053,0,0,0,4.13993,5.6655,6.63992,6.63992,0,0,0,3.43138,2.396ZM364.41505,24.09238c2.34256,0,4.13994-.38176,5.3387-1.41637,1.79739-1.52556,2.56017-3.59553,2.56017-6.37406,0-5.77393-3.32295-7.8439-6.37331-7.8439-1.47134,0-2.17915.21762-2.50595.54441-.38177.3268-.4902.98115-.4902,2.07073V24.09238Z"/><path class="cls-1" d="M422.80416,8.18547c-3.48635.3268-4.41252,1.36216-4.63014,3.32294a69.15837,69.15837,0,0,0-.27258,7.29949V25.944c0,4.68435-.76278,9.42367-3.86736,12.69315-2.506,2.61438-6.3733,3.75892-10.24141,3.75892-3.59553,0-7.19031-.76353-9.75047-2.83274-3.15955-2.39752-4.68511-5.71972-4.68511-11.82119v-13.782c0-5.0119-.49019-5.39291-4.63013-5.77468v-2.015H401.5593v2.015c-4.08573.38177-4.57592.76278-4.57592,5.77468V28.45069c0,6.10072,2.99615,10.13223,8.825,10.13223,6.48249,0,9.31524-4.795,9.31524-12.96573V18.8079c0-3.75817-.1634-5.71971-.27258-7.3537-.21762-2.506-1.74317-3.05036-5.55632-3.26873v-2.015h13.5094Z"/><path class="cls-1" d="M459.67507,32.20811a77.11185,77.11185,0,0,1-3.05112,8.77083,46.73164,46.73164,0,0,1-10.023,1.41712c-14.65318,0-20.70045-9.42442-20.70045-18.08606,0-11.276,8.60743-18.90231,21.68084-18.90231a57.68927,57.68927,0,0,1,10.29564,1.30719c.27258,2.56017.65359,6.59167,1.03536,8.98844l-2.17915.381c-1.1438-4.24912-2.77854-6.26412-5.6655-7.40866a13.73218,13.73218,0,0,0-4.73932-.762c-7.89887,0-11.87541,6.59092-11.87541,15.14338,0,9.96884,5.12109,16.72316,12.584,16.72316,4.57592,0,7.62629-2.396,10.56822-8.38831Z"/><path class="cls-1" d="M494.4745,15.59414a16.78848,16.78848,0,0,0-2.34255-5.3387c-.98039-1.14379-1.41638-1.57977-4.63014-1.57977h-3.48634V34.27883c0,4.57517.54516,4.902,5.39291,5.28449v2.015H471.32307v-2.015c4.63014-.38252,5.12033-.70932,5.12033-5.28449V8.67567h-3.32294c-3.05037,0-3.92157.49019-4.95694,1.79814a20.72363,20.72363,0,0,0-2.23336,5.17454h-2.07c.381-3.97654.76277-8.22566.87121-10.84h1.63474c.817,1.253,1.47059,1.36216,3.10457,1.36216h21.79a3.60282,3.60282,0,0,0,3.15955-1.36216h1.57977c.05421,2.28758.27183,7.08187.54441,10.62243Z"/><path class="cls-1" d="M538.53571,8.18547c-3.48634.3268-4.41252,1.36216-4.63013,3.32294a69.15754,69.15754,0,0,0-.27259,7.29949V25.944c0,4.68435-.76278,9.42367-3.86735,12.69315-2.50595,2.61438-6.37331,3.75892-10.24142,3.75892-3.59553,0-7.1903-.76353-9.75047-2.83274-3.15954-2.39752-4.6851-5.71972-4.6851-11.82119v-13.782c0-5.0119-.4902-5.39291-4.63014-5.77468v-2.015h16.83234v2.015c-4.08572.38177-4.57592.76278-4.57592,5.77468V28.45069c0,6.10072,2.99615,10.13223,8.825,10.13223,6.48249,0,9.31524-4.795,9.31524-12.96573V18.8079c0-3.75817-.1634-5.71971-.27258-7.3537-.21761-2.506-1.74317-3.05036-5.55631-3.26873v-2.015h13.50939Z"/><path class="cls-1" d="M575.51505,41.90512c-.3268,0-.98039,0-1.634-.05422-6.91847-.3268-8.93422-1.79814-10.56821-4.08572a97.764,97.764,0,0,1-5.61053-9.58858c-.81775-1.46984-1.57977-1.79663-3.32295-1.79663l-1.08957-.05422v7.95308c0,4.41252.54441,4.79354,4.63013,5.28449v2.015H541.251v-2.015c4.13994-.43674,4.63014-.872,4.63014-5.28449V13.415c0-4.30334-.54441-4.90272-4.63014-5.22952v-2.015h15.797c4.8485,0,7.627.54441,9.86041,2.07a8.31973,8.31973,0,0,1,3.64974,7.24451c0,4.84851-3.21452,7.40867-6.80929,8.825.817,1.634,2.94118,5.1753,4.57592,7.68125a44.07033,44.07033,0,0,0,4.13994,5.6655,6.63985,6.63985,0,0,0,3.43137,2.396ZM554.76039,24.09238c2.34255,0,4.13994-.38176,5.3387-1.41637,1.79738-1.52556,2.56016-3.59553,2.56016-6.37406,0-5.77393-3.32294-7.8439-6.3733-7.8439-1.47135,0-2.17916.21762-2.506.54441-.38176.3268-.49019.98115-.49019,2.07073V24.09238Z"/><path class="cls-1" d="M607.70086,32.31805c-.27183,1.46983-1.79739,7.73471-2.28759,9.26027H577.14151V39.61753c4.95693-.491,5.28373-.76353,5.28373-5.3387V13.47c0-4.63089-.65359-4.95768-4.35831-5.28448v-2.015h17.70431c5.71971,0,7.62628-.055,8.38906-.10919.05421.9804.32679,5.44713.54516,8.825l-2.12494.27183A13.69834,13.69834,0,0,0,600.238,10.092c-.98039-1.08958-1.6882-1.41637-4.46673-1.41637h-3.54056c-2.07,0-2.28834.10918-2.28834,1.96154v11.3852h5.3387c3.05036,0,3.59553-.81774,4.41252-4.6851h2.12419v12.148h-2.12419c-.872-4.03151-1.30719-4.68511-4.46674-4.68511h-5.28448V34.1704c0,3.75742.10918,4.902,3.48634,4.95618h3.86811c3.05037,0,3.86736-.381,5.06612-1.85235a24.3484,24.3484,0,0,0,3.32295-5.44713Z"/><path class="cls-1" d="M145.97265,84.86621v-2.015c4.13994-.43674,4.41252-.81775,4.41252-5.71972l-.055-21.24486c-3.92157,9.36871-8.22566,19.71931-12.14723,28.97958h-1.79814c-3.54056-8.87926-7.40792-19.01149-11.33024-28.54435-.70857,17.10492-.70857,20.48284-.70857,22.44362.055,2.94118,1.14455,3.70321,5.22952,4.08573v2.015H116.06615v-2.015c3.10533-.27259,4.5217-.872,4.95693-4.13994.21837-1.6355.436-4.73932,1.689-22.71621.16339-2.61438-.21762-4.08572-4.90272-4.52095v-2.0165h11.76622l10.514,24.02339L150.657,49.45761h11.49439v2.0165c-4.3583.43523-4.8485.87046-4.73932,5.22877l.436,20.42861c.05421,4.902.27258,5.12034,4.68435,5.71972v2.015Z"/><path class="cls-1" d="M185.07392,84.86621v-2.015c3.43137-.49095,3.43137-1.09033,2.66935-3.43213-.54517-1.634-1.41638-4.08573-2.23413-6.26488H174.88671c-.59862,1.6882-1.3614,3.75893-1.90657,5.44713-1.14379,3.43213.1634,3.86736,4.46749,4.24988v2.015H163.99245v-2.015c3.43138-.43674,4.30334-.92618,6.1557-5.50285L181.47839,49.185l2.61513-.48944c3.48635,9.47864,7.1903,19.17414,10.73086,28.27176,2.01576,5.06612,2.506,5.44713,6.04651,5.88387v2.015Zm-4.79429-26.0384c-1.579,3.92157-3.10458,7.57207-4.46674,11.54786h8.66165Z"/><path class="cls-1" d="M224.069,58.4468c-1.08958-3.48634-2.61438-7.46364-7.62628-7.46364a5.01849,5.01849,0,0,0-5.22952,5.28449c0,2.99539,2.01576,4.79353,6.80929,7.18955,5.8289,2.88847,9.53285,5.72121,9.53285,11.11413,0,6.42752-5.33794,11.11262-13.12838,11.11262a31.46168,31.46168,0,0,1-9.15108-1.6897c-.3268-1.253-1.253-6.91848-1.63475-9.47864l2.12494-.48945c1.08958,3.43213,4.13994,9.36871,9.47864,9.36871,3.32294,0,5.338-2.06922,5.338-5.55557,0-3.15954-1.96079-5.0119-6.53671-7.46363-5.6655-3.04961-9.36945-5.77393-9.36945-11.43943,0-5.71971,4.46673-10.24066,12.63818-10.24066a40.22285,40.22285,0,0,1,7.78968.98039c.21762,2.015.59938,4.84775,1.03461,8.27988Z"/><path class="cls-1" d="M251.02831,48.69558c10.07727,0,18.30293,7.3537,18.30293,18.08531,0,11.60358-8.27988,18.90306-18.57551,18.90306-10.895,0-18.79388-7.95458-18.79388-18.46783C231.96185,57.90164,238.60774,48.69558,251.02831,48.69558Zm-.817,2.396c-5.55632,0-9.642,5.44864-9.642,15.08992,0,9.20606,3.64974,17.10492,11.00344,17.10492,5.1753,0,9.20606-5.0119,9.20606-14.98C260.77878,57.52062,256.52966,51.09159,250.21132,51.09159Z"/><path class="cls-1" d="M312.02879,51.47411c-3.32295.43523-4.35756,1.143-4.521,3.59478-.1634,2.12493-.32679,3.97729-.32679,8.7151v21.6816h-3.05037l-22.7162-27.23716V70.53982a82.68974,82.68974,0,0,0,.27258,8.44252c.21762,2.39752,1.36141,3.6505,5.39292,3.86887v2.015h-13.5094v-2.015c3.10458-.27259,4.46674-1.09033,4.79354-3.6505a73.31627,73.31627,0,0,0,.3268-8.66089V57.62905a6.51691,6.51691,0,0,0-1.1438-4.41252c-.98039-1.3614-2.28833-1.52556-4.57592-1.74242v-2.0165h10.62243l20.75467,24.13182V63.784c0-4.73781-.05422-6.53595-.21762-8.55095-.16415-2.34331-1.03536-3.48785-5.55706-3.75893v-2.0165h13.45518Z"/><path class="cls-1" d="M335.77056,58.4468c-1.08958-3.48634-2.61438-7.46364-7.62628-7.46364a5.01849,5.01849,0,0,0-5.22952,5.28449c0,2.99539,2.01576,4.79353,6.80929,7.18955,5.8289,2.88847,9.53285,5.72121,9.53285,11.11413,0,6.42752-5.33794,11.11262-13.12838,11.11262a31.46168,31.46168,0,0,1-9.15108-1.6897c-.3268-1.253-1.253-6.91848-1.63475-9.47864l2.12494-.48945c1.08958,3.43213,4.13994,9.36871,9.47864,9.36871,3.32295,0,5.33795-2.06922,5.33795-5.55557,0-3.15954-1.96079-5.0119-6.53671-7.46363-5.6655-3.04961-9.36945-5.77393-9.36945-11.43943,0-5.71971,4.46673-10.24066,12.63818-10.24066a40.22285,40.22285,0,0,1,7.78968.98039c.21762,2.015.59938,4.84775,1.03461,8.27988Z"/></svg>