<?xml version="1.0" encoding="utf-8"?>
<!-- Generator: Adobe Illustrator 24.0.1, SVG Export Plug-In . SVG Version: 6.00 Build 0)  -->
<svg version="1.1" id="Layer_1" xmlns="http://www.w3.org/2000/svg" xmlns:xlink="http://www.w3.org/1999/xlink" x="0px" y="0px"
	 viewBox="0 0 64 53.7" style="enable-background:new 0 0 64 53.7;" xml:space="preserve">
<style type="text/css">
	.st0{fill:#0071C5;}
	.st1{fill:none;}
	.st2{font-family:'MyriadPro-Regular';}
	.st3{font-size:12px;}
</style>
<g>
	<path class="st0" d="M30.5,37.5c-12.3,1.1-25-0.6-26.8-10.2C2.8,22.6,5,17.6,7.8,14.5v-1.7c-5.2,4.5-8,10.2-6.3,16.9
		c2,8.6,13,13.5,29.7,11.9c6.6-0.6,15.3-2.8,21.3-6.1v-4.7C47,34.1,38,36.8,30.5,37.5z M62.7,12.7C59.8-1.5,32.3-2.4,14.5,8.4v1.2
		c17.7-9.1,42.9-9.1,45.2,4c0.8,4.3-1.7,8.8-6,11.4v3.4C58.9,26.5,64.3,20.3,62.7,12.7z"/>
	<path class="st0" d="M51.5,10.6h-3.2v14.3c0,1.7,0.8,3.1,3.2,3.4V10.6z"/>
	<path class="st0" d="M13.3,15.8H10v9.3c0,1.7,0.8,3.1,3.2,3.4V15.8H13.3z"/>
	<rect x="10" y="11" class="st0" width="3.2" height="3"/>
	<path class="st0" d="M32.5,28.4c-2.6,0-3.7-1.8-3.7-3.6V12.4H32v3.4h2.4v2.6H32v6.2c0,0.7,0.3,1.1,1.1,1.1h1.3v2.7H32.5"/>
	<path class="st0" d="M38.4,23.1c0,1.6,1,2.8,2.8,2.8c1.4,0,2.1-0.4,2.9-1.2l2,1.9c-1.3,1.2-2.6,2-4.9,2c-3.1,0-6-1.7-6-6.5
		c0-4.1,2.6-6.5,5.9-6.5c3.4,0,5.4,2.7,5.4,6.3V23h-8.1 M40.9,18.3c-1.1,0-1.9,0.6-2.3,1.3c-0.2,0.5-0.3,0.8-0.3,1.4h4.9
		C43.2,19.6,42.6,18.3,40.9,18.3z"/>
	<path class="st0" d="M21.9,18.4c0.9,0,1.3,0.5,1.3,1.2v8.8h3.2v-8.8c0-1.8-1-3.8-3.7-3.8h-6.6v12.6h3.2v-10
		C19.3,18.4,21.9,18.4,21.9,18.4z"/>
	<g>
		<path class="st0" d="M55,13.2c-0.7,0-1.3-0.6-1.3-1.3s0.6-1.3,1.3-1.3s1.3,0.6,1.3,1.3S55.7,13.2,55,13.2z M55,10.8
			c-0.6,0-1.1,0.5-1.1,1.1S54.4,13,55,13s1.1-0.5,1.1-1.1C56,11.3,55.5,10.8,55,10.8z M55.5,12.6h-0.2l0,0L55,12.1l0,0h-0.1
			c0,0,0,0-0.1,0v0.5c0,0,0,0.1-0.1,0.1h-0.2c0,0-0.1,0-0.1-0.1v-1.4c0-0.1,0-0.1,0.1-0.1s0.3,0,0.4,0c0.4,0,0.6,0.1,0.6,0.5l0,0
			c0,0.2-0.1,0.4-0.3,0.4L55.5,12.6C55.6,12.6,55.6,12.6,55.5,12.6C55.6,12.6,55.6,12.6,55.5,12.6z M55.2,11.6
			c0-0.2-0.1-0.2-0.3-0.2h-0.1c0,0,0,0-0.1,0v0.4h0.2C55.1,11.8,55.2,11.7,55.2,11.6L55.2,11.6z"/>
	</g>
</g>
<text transform="matrix(1 0 0 1 683 384)" class="st2 st3">secure-device-onboard</text>
<rect y="43" class="st1" width="64" height="10.2"/>
<text transform="matrix(1 0 0 1 20.9121 51.5424)" class="st2 st3">SDO</text>
</svg>
