<?xml version="1.0" encoding="UTF-8"?>
<svg id="Layer_1" data-name="Layer 1" xmlns="http://www.w3.org/2000/svg" viewBox="0 0 540 180">
  <g>
    <path d="M36.78,79.09h-8.91V31.37h8.91v47.72Z"/>
    <path d="M63.24,31.37c3.12,0,5.8.3,8.02.89,2.22.59,4.04,1.44,5.46,2.54,1.42,1.1,2.46,2.43,3.12,3.99.66,1.56.99,3.32.99,5.28,0,1.12-.17,2.19-.5,3.22-.33,1.02-.84,1.98-1.53,2.87-.69.89-1.57,1.7-2.64,2.43-1.07.73-2.34,1.34-3.81,1.85,6.56,1.47,9.83,5.02,9.83,10.63,0,2.02-.39,3.89-1.16,5.61-.77,1.72-1.89,3.2-3.37,4.44-1.47,1.24-3.29,2.22-5.44,2.92-2.16.7-4.62,1.06-7.39,1.06h-18.02V31.37h16.43ZM55.69,38.24v13.79h7.06c3.04,0,5.33-.55,6.88-1.65s2.33-2.85,2.33-5.25-.7-4.26-2.11-5.31c-1.41-1.06-3.61-1.58-6.6-1.58h-7.56ZM64.66,72.16c1.65,0,3.04-.2,4.16-.59s2.02-.92,2.69-1.58c.67-.66,1.16-1.43,1.45-2.31.3-.88.45-1.81.45-2.81s-.17-1.96-.5-2.79c-.33-.82-.85-1.53-1.55-2.11-.7-.58-1.61-1.03-2.72-1.34-1.11-.31-2.45-.46-4.01-.46h-8.94v13.99h8.98Z"/>
    <path d="M141.65,31.37v47.72h-7.82v-30.82c0-1.23.07-2.56.2-3.99l-14.42,27.09c-.68,1.3-1.73,1.95-3.13,1.95h-1.25c-1.41,0-2.45-.65-3.14-1.95l-14.59-27.19c.07.73.12,1.44.17,2.15.04.7.07,1.35.07,1.95v30.82h-7.82V31.37h6.7c.4,0,.74.01,1.02.03.29.02.54.08.78.17.23.09.44.23.63.43.19.2.37.46.54.79l14.29,26.5c.37.7.72,1.43,1.04,2.18.32.75.63,1.52.94,2.31.31-.81.63-1.6.96-2.36.33-.76.68-1.49,1.06-2.19l14.09-26.43c.18-.33.36-.59.56-.79.2-.2.41-.34.64-.43.23-.09.49-.14.78-.17.29-.02.63-.03,1.02-.03h6.7Z"/>
    <path d="M202.13,67.84c.48,0,.91.19,1.29.56l3.5,3.79c-1.94,2.4-4.32,4.24-7.14,5.51-2.83,1.28-6.22,1.91-10.18,1.91-3.54,0-6.73-.6-9.55-1.81-2.83-1.21-5.24-2.89-7.24-5.05-2-2.16-3.54-4.73-4.6-7.72-1.07-2.99-1.6-6.26-1.6-9.8s.57-6.87,1.72-9.85c1.14-2.98,2.76-5.55,4.83-7.71,2.08-2.16,4.56-3.83,7.44-5.03,2.88-1.2,6.07-1.8,9.57-1.8s6.56.57,9.26,1.72c2.69,1.14,4.99,2.64,6.88,4.49l-2.97,4.12c-.18.26-.4.5-.68.69-.27.2-.65.3-1.14.3-.33,0-.67-.09-1.02-.28-.35-.19-.74-.42-1.16-.69-.42-.27-.9-.58-1.45-.91-.55-.33-1.19-.63-1.91-.91-.73-.27-1.57-.51-2.52-.69-.96-.19-2.06-.28-3.32-.28-2.13,0-4.09.38-5.86,1.14-1.77.76-3.29,1.86-4.57,3.3-1.28,1.44-2.27,3.2-2.97,5.28-.7,2.08-1.06,4.45-1.06,7.11s.38,5.07,1.14,7.16c.76,2.09,1.79,3.85,3.09,5.28,1.3,1.43,2.83,2.52,4.59,3.28,1.76.76,3.65,1.14,5.68,1.14,1.21,0,2.3-.07,3.28-.2.98-.13,1.88-.34,2.71-.63.83-.29,1.61-.65,2.34-1.11.74-.45,1.47-1.01,2.19-1.67.22-.2.45-.36.69-.48.24-.12.49-.18.76-.18Z"/>
    <path d="M219.37,30.05v49.04h-8.15V30.05h8.15Z"/>
    <path d="M242.04,44.7c2.51,0,4.79.41,6.85,1.22,2.06.81,3.82,1.97,5.28,3.46,1.46,1.5,2.59,3.32,3.38,5.48.79,2.16,1.19,4.57,1.19,7.23s-.4,5.1-1.19,7.26c-.79,2.16-1.92,3.99-3.38,5.51s-3.22,2.68-5.28,3.5c-2.06.81-4.34,1.22-6.85,1.22s-4.83-.41-6.9-1.22c-2.07-.81-3.83-1.98-5.3-3.5s-2.6-3.35-3.4-5.51c-.8-2.16-1.21-4.58-1.21-7.26s.4-5.07,1.21-7.23c.8-2.16,1.94-3.98,3.4-5.48,1.46-1.5,3.23-2.65,5.3-3.46,2.07-.81,4.37-1.22,6.9-1.22ZM242.04,73.32c2.82,0,4.9-.95,6.25-2.84,1.35-1.89,2.03-4.66,2.03-8.32s-.68-6.43-2.03-8.35c-1.35-1.91-3.44-2.87-6.25-2.87s-4.98.96-6.35,2.89c-1.38,1.93-2.06,4.7-2.06,8.33s.69,6.4,2.06,8.3,3.49,2.85,6.35,2.85Z"/>
    <path d="M293.7,45.23v33.86h-4.98c-1.08,0-1.76-.5-2.05-1.48l-.56-2.71c-1.39,1.41-2.92,2.55-4.59,3.42-1.67.87-3.64,1.3-5.91,1.3-1.85,0-3.48-.31-4.9-.94s-2.61-1.51-3.58-2.66c-.97-1.14-1.7-2.5-2.19-4.08-.5-1.57-.74-3.31-.74-5.2v-21.52h8.15v21.52c0,2.07.48,3.67,1.44,4.8.96,1.13,2.39,1.7,4.31,1.7,1.41,0,2.73-.31,3.96-.94,1.23-.63,2.4-1.49,3.5-2.59v-24.49h8.15Z"/>
    <path d="M330.79,30.05v49.04h-4.98c-1.08,0-1.76-.5-2.05-1.48l-.69-3.27c-1.36,1.56-2.93,2.83-4.7,3.79-1.77.97-3.83,1.45-6.19,1.45-1.85,0-3.54-.39-5.08-1.16-1.54-.77-2.87-1.89-3.98-3.35-1.11-1.46-1.97-3.27-2.57-5.43-.61-2.16-.91-4.62-.91-7.39,0-2.51.34-4.84,1.02-7,.68-2.16,1.66-4.03,2.94-5.61,1.28-1.58,2.81-2.82,4.59-3.71,1.78-.89,3.78-1.34,6.01-1.34,1.89,0,3.51.3,4.85.89,1.34.59,2.54,1.4,3.6,2.41v-17.85h8.15ZM322.63,53.88c-.92-1.12-1.93-1.91-3.02-2.38-1.09-.46-2.26-.69-3.51-.69s-2.34.23-3.33.69c-.99.46-1.84,1.16-2.54,2.1-.71.94-1.24,2.12-1.62,3.56-.38,1.44-.56,3.14-.56,5.1s.16,3.66.48,5.03c.32,1.38.78,2.5,1.37,3.37.59.87,1.32,1.5,2.18,1.88s1.82.58,2.87.58c1.69,0,3.13-.35,4.32-1.06,1.19-.7,2.31-1.71,3.37-3v-15.18Z"/>
    <path d="M337.52,49.95c3.89-3.56,8.58-5.35,14.06-5.35,1.98,0,3.75.32,5.31.97,1.56.65,2.88,1.55,3.96,2.71,1.08,1.16,1.9,2.54,2.46,4.14.56,1.61.84,3.37.84,5.28v21.38h-3.7c-.77,0-1.36-.12-1.78-.35s-.75-.7-.99-1.4l-.73-2.44c-.86.77-1.69,1.45-2.51,2.03-.81.58-1.66,1.07-2.54,1.47-.88.4-1.82.7-2.82.91s-2.11.31-3.32.31c-1.43,0-2.75-.19-3.96-.58-1.21-.38-2.25-.96-3.13-1.73-.88-.77-1.56-1.73-2.05-2.87-.48-1.14-.73-2.48-.73-3.99,0-.86.14-1.71.43-2.56.29-.85.75-1.66,1.4-2.43.65-.77,1.49-1.5,2.52-2.18,1.03-.68,2.3-1.28,3.81-1.78,1.51-.51,3.26-.92,5.26-1.24,2-.32,4.29-.51,6.86-.58v-1.98c0-2.27-.48-3.94-1.45-5.03-.97-1.09-2.37-1.63-4.19-1.63-1.32,0-2.41.15-3.28.46s-1.63.65-2.29,1.04c-.66.39-1.26.73-1.8,1.04-.54.31-1.14.46-1.8.46-.57,0-1.06-.15-1.45-.45-.4-.3-.71-.64-.96-1.04l-1.45-2.61ZM356.2,64.64c-2.35.11-4.33.31-5.94.61-1.61.3-2.89.68-3.86,1.14s-1.66,1-2.08,1.62c-.42.62-.63,1.29-.63,2.01,0,1.43.42,2.45,1.27,3.07.85.62,1.95.92,3.32.92,1.67,0,3.12-.3,4.34-.91,1.22-.6,2.41-1.52,3.58-2.76v-5.71Z"/>
    <path d="M379.54,49.39c1.36-1.43,2.88-2.57,4.54-3.42,1.66-.85,3.56-1.27,5.69-1.27,1.96,0,3.72.39,5.3,1.16,1.57.77,2.92,1.88,4.03,3.32,1.11,1.44,1.96,3.18,2.56,5.23.59,2.05.89,4.35.89,6.9,0,2.75-.34,5.25-1.02,7.49s-1.66,4.16-2.92,5.76c-1.27,1.6-2.79,2.83-4.57,3.71-1.78.88-3.76,1.32-5.94,1.32-1.06,0-2.01-.1-2.87-.31-.86-.21-1.65-.5-2.38-.87-.73-.37-1.39-.83-2-1.37-.61-.54-1.18-1.14-1.73-1.8l-.36,2.28c-.13.57-.36.98-.68,1.22s-.75.36-1.3.36h-5.38V30.05h8.15v19.34ZM379.54,70.31c.92,1.12,1.93,1.91,3.02,2.38s2.24.69,3.45.69,2.38-.23,3.38-.68c1-.45,1.85-1.15,2.56-2.11s1.24-2.18,1.62-3.66c.37-1.48.56-3.26.56-5.33,0-3.72-.62-6.41-1.85-8.07-1.23-1.66-3-2.49-5.31-2.49-1.56,0-2.93.36-4.09,1.07-1.17.72-2.28,1.72-3.33,3.02v15.18Z"/>
    <path d="M417.71,35.37c0,.7-.14,1.36-.43,1.98-.29.62-.67,1.16-1.14,1.62-.47.46-1.03.83-1.67,1.11-.64.28-1.32.41-2.05.41s-1.37-.14-2-.41c-.63-.27-1.17-.64-1.63-1.11s-.83-1-1.11-1.62c-.28-.62-.41-1.28-.41-1.98s.14-1.41.41-2.05c.27-.64.64-1.19,1.11-1.65s1.01-.83,1.63-1.11c.63-.27,1.29-.41,2-.41s1.41.14,2.05.41c.64.28,1.19.64,1.67,1.11.47.46.85,1.01,1.14,1.65.29.64.43,1.32.43,2.05ZM416.59,45.23v33.86h-8.18v-33.86h8.18Z"/>
    <path d="M432.5,30.05v49.04h-8.15V30.05h8.15Z"/>
    <path d="M449.51,35.37c0,.7-.14,1.36-.43,1.98-.29.62-.67,1.16-1.14,1.62-.47.46-1.03.83-1.67,1.11-.64.28-1.32.41-2.05.41s-1.37-.14-2-.41c-.63-.27-1.17-.64-1.63-1.11-.46-.46-.83-1-1.11-1.62-.28-.62-.41-1.28-.41-1.98s.14-1.41.41-2.05c.28-.64.64-1.19,1.11-1.65.46-.46,1.01-.83,1.63-1.11.63-.27,1.29-.41,2-.41s1.41.14,2.05.41c.64.28,1.19.64,1.67,1.11.47.46.85,1.01,1.14,1.65.29.64.43,1.32.43,2.05ZM448.39,45.23v33.86h-8.18v-33.86h8.18Z"/>
    <path d="M466.99,79.62c-2.95,0-5.21-.83-6.78-2.49-1.57-1.66-2.36-3.95-2.36-6.88v-18.91h-3.46c-.44,0-.81-.14-1.12-.43-.31-.29-.46-.71-.46-1.29v-3.23l5.45-.89,1.72-9.24c.11-.44.32-.78.63-1.02.31-.24.7-.36,1.19-.36h4.22v10.66h9.04v5.81h-9.04v18.35c0,1.06.26,1.88.78,2.47.52.59,1.23.89,2.13.89.51,0,.93-.06,1.27-.18.34-.12.64-.25.89-.38.25-.13.48-.26.68-.38.2-.12.4-.18.59-.18.24,0,.44.06.59.18.15.12.32.3.5.54l2.44,3.96c-1.19.99-2.55,1.74-4.09,2.24-1.54.51-3.14.76-4.79.76Z"/>
    <path d="M512.13,45.23l-18.45,43.16c-.24.57-.56,1.01-.94,1.3-.38.3-.97.45-1.77.45h-6.07l6.34-13.6-13.7-31.32h7.16c.64,0,1.14.15,1.5.46.36.31.63.66.81,1.06l7.19,17.56c.24.59.45,1.19.61,1.78.17.59.32,1.2.48,1.81.2-.62.4-1.23.59-1.83.2-.6.42-1.2.66-1.8l6.8-17.52c.18-.44.47-.8.88-1.09.41-.29.86-.43,1.37-.43h6.53Z"/>
  </g>
  <g id="Apptio_Logo_with_IBM_tagline_dark_horizontal_" data-name="Apptio Logo with IBM tagline (dark, horizontal)">
    <g id="acquisition_lockup" data-name="acquisition lockup">
      <g id="an_IBM_Company" data-name="an IBM Company">
        <path d="M392.96,147.51c-.54,0-.76-.33-.82-.77h-.05c-.2.58-.71.88-1.37.88-1,0-1.59-.55-1.59-1.43s.64-1.39,2.02-1.39h.94v-.47c0-.67-.37-1.04-1.12-1.04-.57,0-.95.28-1.2.71l-.44-.41c.26-.51.83-.93,1.68-.93,1.14,0,1.82.6,1.82,1.6v2.61h.54v.64h-.41ZM392.09,146.13v-.78h-.97c-.84,0-1.21.26-1.21.72v.19c0,.47.37.74.94.74.73,0,1.25-.38,1.25-.86Z"/>
        <path d="M394.46,147.51v-4.75h.74v.77h.04c.23-.53.63-.88,1.34-.88.97,0,1.59.66,1.59,1.81v3.04h-.74v-2.92c0-.85-.37-1.28-1.08-1.28-.59,0-1.16.29-1.16.9v3.29h-.74Z"/>
        <path d="M401.35,147.51v-.64h.9v-5.13h-.9v-.64h2.57v.64h-.9v5.13h.9v.64h-2.57Z"/>
        <path d="M405.38,141.09h2.64c1.06,0,1.71.65,1.71,1.66s-.62,1.3-1.04,1.36v.06c.46.03,1.26.42,1.26,1.49s-.71,1.86-1.66,1.86h-2.92v-6.42ZM406.15,143.87h1.77c.61,0,.97-.32.97-.89v-.31c0-.57-.37-.89-.97-.89h-1.77v2.1ZM406.15,146.83h1.9c.66,0,1.07-.35,1.07-.99v-.31c0-.64-.4-.99-1.07-.99h-1.9v2.3Z"/>
        <path d="M411.43,141.09h1.03l1.84,3.46h.05l1.85-3.46h.99v6.42h-.75v-5.41h-.05l-.54,1.08-1.54,2.8-1.54-2.8-.54-1.08h-.05v5.41h-.75v-6.42Z"/>
        <path d="M420.47,144.34c0-2.14.97-3.36,2.58-3.36,1.07,0,1.8.52,2.21,1.41l-.63.38c-.26-.66-.79-1.09-1.58-1.09-1.1,0-1.76.87-1.76,2.19v.96c0,1.32.65,2.12,1.76,2.12.82,0,1.38-.46,1.64-1.16l.62.39c-.4.9-1.19,1.46-2.25,1.46-1.62,0-2.58-1.14-2.58-3.28Z"/>
        <path d="M426.13,145.14c0-1.51.87-2.48,2.14-2.48s2.14.97,2.14,2.48-.87,2.48-2.14,2.48-2.14-.97-2.14-2.48ZM429.62,145.48v-.68c0-1-.56-1.49-1.35-1.49s-1.35.49-1.35,1.49v.68c0,1,.56,1.49,1.35,1.49s1.35-.49,1.35-1.49Z"/>
        <path d="M431.68,147.51v-4.75h.74v.77h.04c.21-.49.54-.88,1.28-.88.63,0,1.2.29,1.45.97h.02c.17-.51.63-.97,1.44-.97.97,0,1.54.66,1.54,1.81v3.04h-.74v-2.92c0-.84-.32-1.28-1.04-1.28-.58,0-1.11.29-1.11.9v3.29h-.74v-2.92c0-.85-.32-1.28-1.02-1.28-.58,0-1.13.29-1.13.9v3.29h-.74Z"/>
        <path d="M439.75,142.77h.74v.77h.04c.25-.6.74-.88,1.39-.88,1.19,0,1.93.97,1.93,2.48s-.74,2.48-1.93,2.48c-.65,0-1.1-.29-1.39-.88h-.04v2.61h-.74v-6.58ZM443.05,145.54v-.81c0-.85-.51-1.42-1.34-1.42-.67,0-1.22.39-1.22.91v1.77c0,.62.55.97,1.22.97.83,0,1.34-.57,1.34-1.42Z"/>
        <path d="M448.58,147.51c-.54,0-.76-.33-.82-.77h-.05c-.2.58-.71.88-1.37.88-1,0-1.59-.55-1.59-1.43s.64-1.39,2.02-1.39h.94v-.47c0-.67-.37-1.04-1.12-1.04-.57,0-.95.28-1.2.71l-.44-.41c.26-.51.83-.93,1.68-.93,1.14,0,1.82.6,1.82,1.6v2.61h.54v.64h-.41ZM447.71,146.13v-.78h-.97c-.84,0-1.21.26-1.21.72v.19c0,.47.37.74.94.74.73,0,1.25-.38,1.25-.86Z"/>
        <path d="M450.09,147.51v-4.75h.74v.77h.04c.23-.53.63-.88,1.34-.88.97,0,1.59.66,1.59,1.81v3.04h-.74v-2.92c0-.85-.37-1.28-1.08-1.28-.59,0-1.16.29-1.16.9v3.29h-.74Z"/>
        <path d="M458.21,142.77h.73l-2.12,5.85c-.21.57-.4.74-1.1.74h-.38v-.64h.74l.36-1.01-1.77-4.93h.74l1.14,3.23.22.77h.05l.26-.77,1.15-3.23Z"/>
      </g>
      <g id="APPTIO_logo" data-name="APPTIO logo">
        <g>
          <g>
            <path d="M377.88,129.71c.02-.28.02-.56.03-.84l3.17.11c0-.26.01-.52.01-.78s0-.52-.01-.78l-3.17.11c0-.28-.01-.56-.03-.84l-3.16.25c-.07-.83-.2-1.66-.4-2.47l3.08-.76c-.22-.9-.52-1.79-.88-2.66l2.92-1.21c-.3-.71-.64-1.42-1.01-2.1l-2.8,1.54c.19.34.36.69.52,1.04l-2.84,1.33c-.5-1.06-.9-1.85-1.62-2.77l2.46-1.93c.22.28.23.35.42.64l2.62-1.83c-.59-.84-1.25-1.66-1.96-2.41l-2.33,2.18c.23.24.22.28.43.53l-2.4,2.02c-.54-.64-.9-1.01-1.53-1.55l2.05-2.38c.17.15.34.3.51.45l2.17-2.34c-.95-.88-1.98-1.68-3.07-2.37l-1.71,2.67c-.95-.61-1.56-.99-2.61-1.41l-1.2,2.94c-.15-.06-.7-.28-.86-.34l1.1-2.97c-.41-.15-.84-.29-1.26-.41l.88-3.04c-.74-.22-1.51-.39-2.28-.53l-.55,3.12c-.3-.05-.59-.1-.89-.14l-.4,3.15c-.16-.02-.77-.04-.94-.05l.3-3.16c-.38-.04-.33-.06-.71-.07l.1-3.16c-.23,0-.46-.01-.69-.01-11.98,0-21.74,9.75-21.74,21.73s9.75,21.74,21.74,21.74c.23,0,.32,0,.54,0l-.1-3.16c.33,0,.75-.03,1.11-.05l.38,3.16c.14-.02,1.57-.21,1.71-.23l-.67-3.15c-.09.01-.86.12-1.24.18l-.29-3.16c-.48.04-.97.07-1.45.07v-3.17c-6.73,0-12.21-5.48-12.21-12.21s5.48-12.21,12.21-12.21c1.92,0,3.75.43,5.45,1.28l1.41-2.83c.21.11.88.5,1.09.61l-1.48,2.79c2.07,1.3,3.73,3.21,4.71,5.45l2.9-1.28c.09.22.41,1.1.49,1.33l-2.92,1.19c.37,1.18.56,2.41.56,3.67,0,2.29-.64,4.53-1.85,6.46l2.68,1.67c-.38.61-.79,1.19-1.25,1.74l2.42,2.03c-.21.25-.43.51-.66.75l2.34,2.18c.88-.95,1.69-1.97,2.39-3.06l-2.66-1.72c.53-.82,1-1.68,1.4-2.57l-2.89-1.37c.06-.16.36-.81.41-.97l2.99,1.06c.11-.32.22-.64.31-.96l3.03.89c.22-.74.4-1.51.54-2.27l-3.11-.56c.07-.4.13-.4.18-.81l-3.16-.36c.02-.17.04-.73.05-.89l3.16.25Z"/>
            <path d="M371.45,142.25l-2.05-2.38c-.62.54-.98.83-1.68,1.26l-1.71-2.7c-.16.1-1.33.78-1.33.78l1.52,2.78s1.13-.59,1.19-.62l1.66,2.7c.67-.41,1.31-.88,1.92-1.37l1.99,2.47c.4-.32.8-.67,1.18-1.02l-2.18-2.34c-.17.15-.34.3-.52.45Z"/>
            <path d="M364.67,146.02c.81-.24,1.6-.54,2.37-.9l1.31,2.88c.7-.32,1.4-.68,2.07-1.08l-1.63-2.75c-.09.05-.93.53-1.02.58l-1.56-2.78c-.79.39-1.61.72-2.46.97l.91,3.06Z"/>
          </g>
          <g>
            <path d="M393.67,134.67h-4.43l8.06-12.92h5.06l8.06,12.92h-4.78l-1.2-1.94h-9.56l-1.2,1.94ZM399.66,125.03l-2.9,4.67h5.79l-2.9-4.67Z"/>
            <path d="M411.96,121.84h11.29c3.47,0,5.95.82,5.95,4.9s-2.51,4.87-5.98,4.87h-6.98v3.07h-4.27v-12.84ZM422.89,128.64c1.57,0,1.99-.43,1.99-1.8s-.45-1.81-2.02-1.81h-6.63v3.61h6.66Z"/>
            <path d="M431.35,121.84h11.28c3.47,0,5.95.82,5.95,4.9s-2.51,4.87-5.98,4.87h-6.98v3.07h-4.27v-12.84ZM442.29,128.64c1.57,0,1.99-.43,1.99-1.8s-.45-1.81-2.02-1.81h-6.63v3.61h6.66Z"/>
            <path d="M457.08,125.06h-7.22v-3.23h18.73v3.23h-7.22v9.61h-4.29v-9.61Z"/>
            <path d="M471.07,121.84h4.31v12.84h-4.31v-12.84Z"/>
            <path d="M477.82,128.25c0-5.63,3.24-6.8,10.55-6.8s10.59,1.13,10.59,6.77-3.32,6.75-10.62,6.75-10.52-1.08-10.52-6.72ZM494.32,128.25c0-3.35-1.41-3.52-5.98-3.52s-5.88.16-5.88,3.49,1.31,3.61,5.91,3.61,5.95-.25,5.95-3.58Z"/>
          </g>
        </g>
        <path d="M501.63,121.84c0,.68-.53,1.21-1.23,1.21s-1.23-.53-1.23-1.21.55-1.2,1.23-1.2,1.23.53,1.23,1.2ZM499.48,121.84c0,.53.39.96.93.96s.91-.42.91-.95-.39-.96-.92-.96-.93.43-.93.96ZM500.22,122.47h-.28v-1.2c.11-.02.26-.04.46-.04.23,0,.33.04.42.09.07.05.12.15.12.26,0,.13-.1.23-.25.28h0c.12.06.18.15.22.31.04.18.06.26.09.3h-.3s-.06-.15-.09-.29c-.02-.13-.1-.19-.25-.19h-.13v.48ZM500.23,121.79h.13c.15,0,.28-.05.28-.17,0-.11-.08-.18-.26-.18-.07,0-.12,0-.15.01v.34Z"/>
      </g>
    </g>
  </g>
</svg>