<?xml version="1.0" encoding="UTF-8"?><svg id="Layer_1" xmlns="http://www.w3.org/2000/svg" xmlns:xlink="http://www.w3.org/1999/xlink" viewBox="0 0 517 100"><defs><style>.cls-1{fill:url(#linear-gradient);}.cls-1,.cls-2,.cls-3,.cls-4,.cls-5,.cls-6{stroke-width:0px;}.cls-2{fill:#000;}.cls-3{fill:url(#linear-gradient-4);}.cls-4{fill:url(#linear-gradient-2);}.cls-5{fill:url(#linear-gradient-3);}.cls-6{fill:url(#linear-gradient-5);}</style><linearGradient id="linear-gradient" x1="40.81145" y1="81.13005" x2="40.81145" y2="14.58435" gradientUnits="userSpaceOnUse"><stop offset="0" stop-color="#f8d748"/><stop offset=".8" stop-color="#ec5929"/><stop offset="1" stop-color="#b0361a"/></linearGradient><linearGradient id="linear-gradient-2" x1="36.32459" y1="81.13005" x2="36.32459" y2="14.58435" xlink:href="#linear-gradient"/><linearGradient id="linear-gradient-3" x1="30.19347" y1="81.13005" x2="30.19347" y2="14.58435" xlink:href="#linear-gradient"/><linearGradient id="linear-gradient-4" x1="54.22396" y1="81.13005" x2="54.22396" y2="14.58435" xlink:href="#linear-gradient"/><linearGradient id="linear-gradient-5" x1="39.94414" y1="43.56417" x2="74.12838" y2="30.50502" gradientUnits="userSpaceOnUse"><stop offset="0" stop-color="#f8d748"/><stop offset=".66138" stop-color="#ec5929"/><stop offset=".96411" stop-color="#b0361a"/></linearGradient></defs><path class="cls-1" d="M53.34937,74.68057c-3.0746-.32325-5.9981-1.21837-8.81311-2.44831-4.07429-1.78015-7.75637-4.20168-10.90701-7.33199-4.67038-4.64023-8.01511-10.113-9.73314-16.50508-2.63304-9.7965-1.43267-19.17908,3.31688-28.08828,2.77441-5.20424,6.78685-9.33081,11.69453-12.59374,5.59916-3.72267,11.76736-5.67691,18.47043-6.05075,1.30063-.07254,1.85381.28874,1.68851,1.65751-.10858.89908-.07574,1.82617-.00535,2.73288.07171.92358-.3299,1.08996-1.16899,1.12215-7.15965.27471-13.45819,2.79697-18.84232,7.50181-7.8116,6.82603-11.34363,15.56678-10.78141,25.81354.37372,6.81109,2.96939,12.89571,7.44822,18.14311,4.69533,5.50106,10.64557,8.79013,17.64427,10.32177,4.38305,1.08391,4.01335,5.33544-.01152,5.72537Z"/><path class="cls-4" d="M53.34091,83.63427c-6.85468-.63812-13.13661-2.9594-18.95505-6.56102-6.85667-4.24429-12.27876-9.92842-16.13752-16.98133-2.84496-5.19992-4.64416-10.7864-5.24769-16.74965-.67559-6.67532-.16574-13.23146,2.00112-19.55724,1.84096-5.37436,4.54899-10.33725,8.26715-14.71043,1.21712-1.43153,2.58444-2.70135,3.86406-4.063.4087-.4349.72023-.53417,1.15351-.00604.78956.96239,1.76142,1.75238,2.54832,2.73445.56457.7046.48044,1.06353-.10875,1.65145-1.6571,1.65354-3.51504,3.19449-4.79892,5.11115-1.65446,2.46987-3.17704,5.06012-4.31806,7.85969-2.25711,5.53794-3.42069,11.25231-3.21844,17.23129.1285,3.79845.85477,7.47913,2.04211,11.0997,2.06927,6.30984,5.58556,11.70542,10.32201,16.26702,5.98557,5.76459,13.13789,9.35322,21.36584,10.72904.42426.07094.84437.16671,1.26685.2503,12.59615,1.73051,3.80194,6.14797-.04654,5.6946Z"/><path class="cls-5" d="M53.34106,93.43772c-6.35077-.59068-12.39949-2.27656-18.14865-5.03054-5.85055-2.80256-11.11863-6.47294-15.58195-11.16293-7.81645-8.21339-13.10469-17.77323-14.81435-29.12071-1.0784-7.15766-1.09303-14.29827.27691-21.42915.19041-.99112.51395-1.33744,1.52854-1.01675.95706.30251,1.95012.54379,2.94508.6595,1.05634.12285,1.21694.63605.98725,1.53506-.83426,3.26528-1.1061,6.59721-1.10269,9.95527.01184,11.65251,3.51515,22.13664,10.73475,31.29347,5.79682,7.3523,13.10701,12.67145,21.95384,15.87727,3.6652,1.32816,7.43736,2.10112,11.25916,2.72546,4.82711.70793,3.07104,5.71406-.0379,5.71406Z"/><path class="cls-3" d="M53.39717,64.50928c-4.82131-.92949-9.02165-3.07129-12.69689-6.33045-5.25065-4.65621-8.41907-10.46083-9.08936-17.39812-.72854-7.54021,1.15636-14.43732,6.14467-20.35219,3.46598-4.10977,7.68063-7.09904,12.83721-8.59449,9.25617-2.68437,17.86163-1.3191,25.7161,4.40924.90337.65884.86484,1.04541.12476,1.74426-.72807.68752-1.44533,1.43016-1.97858,2.26859-.59526.93594-1.11089.80047-1.84917.24439-4.22274-3.18059-9.00642-4.64665-14.26829-4.42165-9.44589.4039-17.83043,6.78936-20.31964,15.93417-2.21752,8.1467-.01206,15.18207,5.73092,21.12064,2.62251,2.71182,5.89278,4.57661,9.62994,5.47562,4.18025,2.0025,4.54995,6.34645.01834,5.89998Z"/><path class="cls-6" d="M59.2609,50.50543c-1.46746.29257-2.92686-.078-4.39292-.0721-1.12606.00453.77484,1.40243.84261,2.50723.06339,1.03326-1.73586,1.37773-1.7645,2.41636-3.0645-1.00047-6.12457-3.08345-8.25126-5.53136-2.1799-2.50916-3.47994-5.3409-4.10784-8.54707-1.43205-7.31218,2.51239-15.51329,9.13874-18.84283,6.78587-3.4097,13.38532-2.95872,19.44205,1.5903,4.38405,3.29272,6.64559,7.89439,6.90916,13.43873.11854,2.49363-.35009,4.85205-1.17464,7.18428-.35959,1.01713-.73203,1.48029-1.83232.80392-1.05885-.65088-2.56614-.89259-3.22075-1.79137-.66297-.91025.45788-2.18768.66969-3.34266,1.33717-7.29166-4.58251-14.47731-12.02072-14.4977-4.68669-.01285-8.32194,1.98578-10.73559,5.94902-2.66143,4.37009-2.56654,8.87551.20923,13.15237,2.37614,3.66112,5.95825,5.38053,10.28907,5.58289Z"/><path class="cls-2" d="M317.68512,32.96816c-.65796-.65697-1.41311-1.17841-2.27336-1.54471-1.71559-.75124-3.77782-.74731-5.49143,0-.82684.35647-1.5997.85828-2.29593,1.48873l-.11981.11588c-.63537.71294-1.12538,1.47695-1.4524,2.27434-.33586.82588-.51261,1.69594-.51261,2.67991,0,.95157.17774,1.85012.51261,2.6701.34272.8298.87302,1.58693,1.59871,2.25765.66974.72276,1.4524,1.26582,2.31265,1.60363.84649.33094,1.75485.50083,2.70153.50083.95549,0,1.85206-.17186,2.68088-.50672.79938-.32701,1.57222-.819,2.33819-1.51525.67169-.66777,1.18235-1.44847,1.51033-2.31362.33586-.84551.51261-1.74995.51261-2.69563,0-1.01638-.17774-1.94537-.51261-2.77026-.34665-.83078-.84551-1.58791-1.50934-2.24488h0Z"/><path class="cls-2" d="M64.58615,32.98289c-.65501-.65795-1.41901-1.17547-2.2714-1.54176-1.71656-.75517-3.77584-.75026-5.50222,0-.81507.35156-1.59185.85435-2.28416,1.48382l-.11686.11686c-.64126.71196-1.12834,1.48186-1.45731,2.27729-.33388.82391-.5077,1.69594-.5077,2.67893,0,.95255.17382,1.84825.5077,2.67216.33487.8298.87497,1.58193,1.60265,2.25264.66384.72669,1.44061,1.26582,2.3146,1.60854.84453.32897,1.75387.49493,2.69955.49493.94666,0,1.84815-.16596,2.67108-.50279.80132-.33487,1.57318-.82283,2.34407-1.51711.6717-.66875,1.17939-1.44955,1.51426-2.3147.33584-.83962.50181-1.74985.50181-2.69258,0-1.01638-.16597-1.94841-.51065-2.76937-.34076-.83078-.85141-1.58595-1.50542-2.24685h0Z"/><path class="cls-2" d="M53.82024,50.48728v45.6862h11.26074v-45.6862h-11.26074Z"/><path class="cls-2" d="M106.89107,96.17358v-23.81186c0-6.92123-3.78566-12.17893-10.98362-12.17893-6.92319,0-11.63293,5.81057-11.63293,12.73377v23.258h-11.16549v-45.59684h10.06072l.74241,6.18766c4.6135-4.52512,9.2211-6.82696,14.95017-6.82696,10.70866,0,19.28851,8.02305,19.28851,22.32901v23.90613h-11.25977Z"/><path class="cls-2" d="M139.92993,37.84386v12.91838h12.55308v9.69051h-12.64245v19.65892c0,4.33951,2.39513,6.46557,5.90386,6.46557,1.75389,0,3.78468-.5568,5.44528-1.38661l3.13655,9.59918c-3.23279,1.29233-5.91075,1.84521-9.31538,1.93653-9.87808.37219-16.34364-5.25769-16.34364-16.61468v-19.65892h-8.49245v-9.69051h8.49245v-11.72425l11.26271-1.19413Z"/><path class="cls-2" d="M168.62729,77.43765c.74241,5.63185,5.62792,9.69247,13.56947,9.69247,4.15391,0,9.5982-1.56729,12.18285-4.24623l7.19915,7.1088c-4.79714,4.98568-12.64342,7.38375-19.56465,7.38375-15.69159,0-25.01678-9.69247-25.01678-24.27537,0-13.84344,9.41848-23.81578,24.18697-23.81578,15.22709,0,24.73299,9.41849,22.97715,28.15333h-35.53416v-.00098ZM193.36912,68.11441c-.74142-5.90582-5.35787-8.85874-11.8205-8.85874-6.09339,0-11.07023,2.95291-12.73769,8.85874h24.55818Z"/><path class="cls-2" d="M244.49469,96.17358v-23.81186c0-6.92123-3.78369-12.17893-10.98185-12.17893-6.92221,0-11.63292,5.81057-11.63292,12.73377v23.258h-11.1655v-45.59684h10.05876l.74241,6.18766c4.61546-4.52512,9.22798-6.82696,14.95114-6.82696,10.70395,0,19.28872,8.02305,19.28872,22.32901v23.90613h-11.26076Z"/><path class="cls-2" d="M293.31547,62.76038c-3.23476-3.04129-6.92318-4.05768-11.26564-4.05768-5.35591,0-8.30294,1.66156-8.30294,4.52119,0,2.95487,2.67893,4.61546,8.48952,4.98568,8.58869.55386,19.48017,2.4953,19.48017,14.58388,0,8.02893-6.55493,14.95311-19.56858,14.95311-7.20405,0-14.39434-1.19806-21.04454-8.12125l5.53365-8.03385c3.22786,3.60202,10.62146,6.27801,15.69258,6.3713,4.25309.09427,8.21453-2.12115,8.21453-5.44625,0-3.13753-2.57877-4.43281-9.0473-4.7991-8.57886-.64911-18.82814-3.78664-18.82814-14.12037,0-10.52423,10.89742-14.2166,19.20032-14.2166,7.1029,0,12.4539,1.38366,17.72536,6.00206l-6.279,7.37787Z"/><path class="cls-2" d="M307.06072,50.48728v45.6862h11.2627v-45.6862h-11.2627Z"/><path class="cls-2" d="M373.7944,50.57566l-19.38002,45.7844h-12.18484l-19.4802-45.7844h12.28206l6.27112,15.04837,7.01746,19.19934,6.92123-19.01571,6.27703-15.23102h12.27615v-.00098Z"/><path class="cls-2" d="M412.10274,50.67101h10.80017v45.50257h-10.61065l-.56074-6.6443c-2.57581,5.35393-9.68557,7.94056-14.76259,8.03091-13.4791.0923-23.44556-8.21651-23.44556-24.18109,0-15.69159,10.42703-23.91006,23.72152-23.81677,6.09437,0,11.91084,2.86453,14.48664,7.38277l.37122-6.27408h0ZM384.77822,73.37909c0,8.67903,6.00206,13.84344,13.48107,13.84344,17.72631,0,17.72631-27.5985,0-27.5985-7.47901,0-13.48107,5.07602-13.48107,13.75506h0Z"/><path class="cls-2" d="M445.87221,37.84386v12.91838h12.55405v9.69051h-12.65127v19.65892c0,4.33951,2.401,6.46557,5.91171,6.46557,1.75092,0,3.78076-.5568,5.4433-1.38661l3.13754,9.59918c-3.23182,1.29233-5.90877,1.84521-9.32619,1.93653-9.87219.37219-16.33775-5.25769-16.33775-16.61468v-19.65892h-8.49048v-9.69051h8.49048v-11.72425l11.26861-1.19413Z"/><path class="cls-2" d="M474.56958,77.43765c.73357,5.63185,5.62988,9.69247,13.5675,9.69247,4.15782,0,9.59818-1.56729,12.18286-4.24623l7.20992,7.1088c-4.80793,4.98568-12.65127,7.38375-19.57742,7.38375-15.69255,0-25.0099-9.69247-25.0099-24.27537,0-13.84344,9.41358-23.81578,24.17914-23.81578,15.23002,0,24.7359,9.41849,22.98105,28.15333h-35.53316v-.00098ZM499.31141,68.11441c-.74241-5.90582-5.36181-8.85874-11.82147-8.85874-6.08556,0-11.07123,2.95291-12.73084,8.85874h24.55231Z"/></svg>