<?xml version="1.0" encoding="UTF-8"?> <!-- Generator: Adobe Illustrator 24.3.0, SVG Export Plug-In . SVG Version: 6.00 Build 0) --> <svg xmlns="http://www.w3.org/2000/svg" xmlns:xlink="http://www.w3.org/1999/xlink" id="Layer_1" x="0px" y="0px" viewBox="0 0 400 245" style="enable-background:new 0 0 400 245;" xml:space="preserve"> <style type="text/css"> .st0{fill:#2CC5F4;} .st1{fill:#0B69B4;} </style> <g> <rect x="1.6" y="47.7" class="st0" width="28.8" height="28.8"></rect> <path class="st1" d="M29.6,197.3V93.9H2.3v103.5H29.6z M210.3,198.4V173c-4,0-7.3-0.2-9.9-0.6c-2.8-0.4-5-1.4-6.4-2.8 c-1.4-1.4-2.4-3.5-2.8-6.2c-0.4-2.6-0.6-5.9-0.6-10v-36.2h19.7V93.9h-19.7V53.5h-27.3v100c0,8.4,0.7,15.6,2.2,21.3 c1.4,5.7,3.9,10.3,7.3,13.7c3.4,3.5,7.9,6,13.3,7.5c5.5,1.5,12.5,2.3,20.8,2.3H210.3z M366.6,197.3V45.6h-27.3v151.8H366.6z M137,104c-7.6-8.2-18.2-12.3-31.7-12.3c-6.5,0-12.5,1.3-17.9,4c-5.4,2.6-9.9,6.4-13.5,11l-1.5,1.9l0-1.7V93.9H45.5v103.5h27.1 v-55.1l0,3.8c0-0.6,0-1.3,0-1.9c0.3-9.7,2.7-16.9,7.2-21.5c4.8-4.9,10.6-7.4,17.3-7.4c7.9,0,13.9,2.4,17.8,7.2 c3.9,4.7,5.9,11.3,5.9,19.8l0,0v0.2c0,0,0,0,0,0h0l0,54.7h27.5v-58.8C148.4,123.8,144.6,112.2,137,104z M325.1,145.4 c0-7.4-1.3-14.5-3.9-20.9c-2.6-6.5-6.3-12.2-11-17.1c-4.7-4.9-10.3-8.7-16.9-11.5c-6.5-2.7-13.8-4.1-21.7-4.1 c-7.4,0-14.5,1.4-21,4.2c-6.5,2.8-12.3,6.7-17.1,11.5c-4.8,4.8-8.7,10.6-11.5,17.1c-2.8,6.5-4.2,13.6-4.2,21c0,7.4,1.4,14.5,4,21 c2.7,6.5,6.4,12.3,11.2,17.1c4.7,4.8,10.6,8.7,17.3,11.5c6.7,2.8,14.2,4.2,22.2,4.2c23.1,0,37.5-10.5,46-20.3l-19.6-14.9 c-4.1,4.9-14,11.6-26.2,11.6c-7.7,0-14-1.8-18.8-5.3c-4.8-3.5-8.1-8.3-9.8-14.4l-0.3-1h81.3V145.4z M244,135.9 c0-7.6,8.7-20.8,27.4-20.8c18.8,0,27.5,13.2,27.5,20.8L244,135.9z"></path> <path class="st1" d="M397.6,184.3c-0.5-1.2-1.3-2.3-2.2-3.2c-0.9-0.9-2-1.6-3.2-2.2c-1.2-0.5-2.5-0.8-3.9-0.8 c-1.4,0-2.7,0.3-3.9,0.8c-1.2,0.5-2.3,1.3-3.2,2.2c-0.9,0.9-1.6,2-2.2,3.2c-0.5,1.2-0.8,2.5-0.8,3.9c0,1.4,0.3,2.7,0.8,3.9 c0.5,1.2,1.3,2.3,2.2,3.2c0.9,0.9,2,1.6,3.2,2.2c1.2,0.5,2.5,0.8,3.9,0.8c1.4,0,2.7-0.3,3.9-0.8c1.2-0.5,2.3-1.3,3.2-2.2 c0.9-0.9,1.6-2,2.2-3.2c0.5-1.2,0.8-2.5,0.8-3.9C398.4,186.8,398.2,185.5,397.6,184.3z M396,191.5c-0.4,1-1,1.9-1.8,2.6 c-0.8,0.8-1.6,1.3-2.6,1.8c-1,0.4-2.1,0.7-3.2,0.7c-1.1,0-2.2-0.2-3.2-0.7c-1-0.4-1.9-1-2.6-1.8c-0.8-0.8-1.3-1.6-1.8-2.6 c-0.4-1-0.7-2.1-0.7-3.2c0-1.1,0.2-2.2,0.7-3.2c0.4-1,1-1.9,1.8-2.6c0.8-0.8,1.6-1.3,2.6-1.8c1-0.4,2.1-0.7,3.2-0.7 c1.1,0,2.2,0.2,3.2,0.7c1,0.4,1.9,1,2.6,1.8c0.8,0.8,1.3,1.6,1.8,2.6c0.4,1,0.7,2.1,0.7,3.2C396.6,189.4,396.4,190.4,396,191.5z M390.2,189c0.8-0.1,1.4-0.4,2-0.9c0.5-0.5,0.8-1.3,0.8-2.3c0-1.1-0.3-2-1-2.6c-0.7-0.6-1.7-0.9-3.1-0.9h-4.4v11.5h2.1v-4.7h1.5 l2.9,4.7h2.2L390.2,189z M389.1,187.4c-0.3,0-0.7,0-1,0h-1.5v-3.2h1.5c0.3,0,0.7,0,1,0c0.3,0,0.6,0.1,0.9,0.2 c0.3,0.1,0.5,0.3,0.6,0.5c0.2,0.2,0.2,0.5,0.2,0.9c0,0.4-0.1,0.7-0.2,0.9c-0.2,0.2-0.4,0.4-0.6,0.5 C389.7,187.3,389.4,187.3,389.1,187.4z"></path> </g> </svg> 