<svg id="圖層_1" data-name="圖層 1" xmlns="http://www.w3.org/2000/svg" viewBox="0 0 614 153"><defs><style>.cls-1{fill:#f7af00;}.cls-2{fill:#f0a000;}.cls-3{fill:#ffd900;}.cls-4{fill:#6fba2c;}.cls-5{fill:#64a827;}.cls-6{fill:#8fc31f;}.cls-7{fill:#00a7ea;}.cls-8{fill:#37bef0;}.cls-9{fill:#0093cc;}.cls-10{fill:#c81e1a;}.cls-11{fill:#d8221e;}.cls-12{fill:#e83929;}.cls-13{fill:#e72521;}.cls-14{fill:#727171;}</style></defs><title>inwinstack</title><polygon class="cls-1" points="72.486 52.667 72.486 21.556 126.372 52.667 126.372 83.778 72.486 52.667"/><polygon class="cls-2" points="126.372 83.778 153.315 68.222 153.315 37.111 126.372 52.667 126.372 83.778"/><polygon class="cls-3" points="126.372 52.667 72.486 21.556 99.429 6 153.315 37.111 126.372 52.667"/><polygon class="cls-4" points="32.071 76 32.071 107.111 5.128 91.556 5.128 60.444 32.071 76"/><polyline class="cls-5" points="32.071 76 32.071 107.111 85.89 76 85.89 44.889 32.004 76"/><polygon class="cls-6" points="85.89 44.889 58.947 29.333 5.128 60.444 32.071 76 85.89 44.889"/><polygon class="cls-7" points="112.968 107.111 112.968 76 139.843 91.556 139.843 122.667 112.968 107.111"/><polygon class="cls-8" points="166.786 44.889 193.729 60.444 139.843 91.556 112.968 76 166.786 44.889"/><polygon class="cls-9" points="139.843 122.667 193.729 91.556 193.729 60.444 139.843 91.556 139.843 122.667"/><polygon class="cls-10" points="126.372 130.444 126.372 99.333 99.429 114.889 99.429 146 126.372 130.444"/><polygon class="cls-11" points="99.429 114.889 45.543 83.778 45.543 114.889 99.429 146 99.429 114.889"/><polygon class="cls-12" points="126.372 99.333 99.429 114.889 45.543 83.778 72.486 68.222 126.372 99.333"/><path class="cls-13" d="M233.57638,43.08858a5.92384,5.92384,0,0,1-11.84715,0,5.74839,5.74839,0,0,1,1.75367-4.22386,5.83366,5.83366,0,0,1,8.33893,0A5.75587,5.75587,0,0,1,233.57638,43.08858ZM223.125,92.98577V56.29541h9.05664V92.98577Z"/><path class="cls-13" d="M278.26757,65.3528a20.03676,20.03676,0,0,1,2.72116,10.23653V93.11108h-9.23456V74.08589a11.241,11.241,0,1,0-22.48191,0V93.11108h-9.08981V75.58933A20.42168,20.42168,0,0,1,278.26757,65.3528Z"/><path class="cls-13" d="M305.637,92.98577a17.60781,17.60781,0,0,1-15.75166-9.3961,19.91683,19.91683,0,0,1-2.29041-9.50378V56.29541h9.09065v19.3299A9.45783,9.45783,0,0,0,299.5138,82.552a9.32421,9.32421,0,0,0,6.87245,2.84573,9.7505,9.7505,0,0,0,9.77412-9.77239V56.29541H325.359v19.3299a9.754,9.754,0,1,0,19.50781,0V56.29541h9.23481V74.08589a19.8267,19.8267,0,0,1-2.30716,9.50378,17.6643,17.6643,0,0,1-15.76744,9.3961,17.48444,17.48444,0,0,1-15.177-8.48371,17.94275,17.94275,0,0,1-6.38983,6.21166A17.40018,17.40018,0,0,1,305.637,92.98577Z"/><path class="cls-13" d="M372.55642,43.08858a5.92467,5.92467,0,0,1-11.84877,0,5.74874,5.74874,0,0,1,1.75455-4.22386,5.83366,5.83366,0,0,1,8.33893,0A5.75656,5.75656,0,0,1,372.55642,43.08858ZM362.10427,92.98577V56.29541h9.05566V92.98577Z"/><path class="cls-13" d="M417.2486,65.3528a20.04561,20.04561,0,0,1,2.72128,10.23653V93.11108h-9.23382V74.08589a11.24045,11.24045,0,1,0-22.4808,0V93.11108h-9.09265V75.58933a20.42193,20.42193,0,0,1,38.086-10.23653Z"/><path class="cls-14" d="M437.47992,67.674a2.02059,2.02059,0,0,1-1.621-1.98262,1.90077,1.90077,0,0,1,1.26934-1.95613l.39909-.03943h16.80342V54.90064H436.601c-5.1933,0-10.0251,4.36765-10.0251,9.56,0,2.74938.21846,4.98446,2.10005,7.2793a13.37277,13.37277,0,0,0,4.0054,3.34326c1.51072.82109,9.48026,4.33882,9.48026,4.33882.95542.335,2.02737.75789,2.02737.75789a2.19633,2.19633,0,0,1,1.03348,2.08254,2.30571,2.30571,0,0,1-1.41769,1.81678l-.39908.04041H426.60059v8.99147H444.312c5.194,0,10.01882-5.41854,10.01882-9.48986,0-2.74827-.19382-5.61778-2.07479-7.91176a13.35614,13.35614,0,0,0-4.00442-3.344c-.52538-.28511-1.32639-.68334-2.27118-1.13959Z"/><polygon class="cls-14" points="490.559 54.7 460.937 54.7 460.937 63.797 471.199 63.797 471.199 93.111 480.295 93.111 480.295 63.797 490.559 63.797 490.559 54.7"/><path class="cls-14" d="M528.09567,69.38987a15.52239,15.52239,0,0,0-30.89442-1.15611l-.03586.28672v24.5906h9.22533l.011-14.29874H518.8839l-.02132,14.29874h9.256V70.1241Zm-21.694.25444V68.51962l-.0105-.09734a6.2372,6.2372,0,1,1,12.46718,0l.02551.09734v1.12469Z"/><path class="cls-14" d="M555.84064,54.69968H565.677v9.23555H555.10013l-2.508-.00776a9.882,9.882,0,0,0,0,19.764l1.55717.00258H565.677V92.784H553.82377a19.041,19.041,0,0,1-.33859-38.07983Z"/><path class="cls-14" d="M603.01433,79.83685c-1.49741-3.00713-3.66337-6.159-6.53879-7.246a12.19485,12.19485,0,0,0,3.99395-5.15806l5.5107-12.53569H596.4939l-3.66075,8.25477-.77036,1.82294a7.048,7.048,0,0,1-4.38687,4.345,14.32266,14.32266,0,0,1-6.59954.25444V54.70054H572.283V93.11108h8.79334V77.914h6.096l.62543.03241a8.19177,8.19177,0,0,1,6.53288,4.84239l.69825,1.39206,4.21256,8.93023h9.63032Z"/></svg>