<?xml version="1.0" encoding="UTF-8" standalone="no"?><!DOCTYPE svg PUBLIC "-//W3C//DTD SVG 1.1//EN" "http://www.w3.org/Graphics/SVG/1.1/DTD/svg11.dtd"><svg width="100%" height="100%" viewBox="0 0 423 224" version="1.1" xmlns="http://www.w3.org/2000/svg" xmlns:xlink="http://www.w3.org/1999/xlink" xml:space="preserve" xmlns:serif="http://www.serif.com/" style="fill-rule:evenodd;clip-rule:evenodd;stroke-linejoin:round;stroke-miterlimit:1.41421;"><clipPath id="_clip1"><rect x="4.289" y="0.675" width="416.711" height="217.972"/></clipPath><g clip-path="url(#_clip1)"><g><rect x="4.289" y="151.966" width="416.583" height="3.558" style="fill:#080605;fill-rule:nonzero;"/><path d="M4.289,182.515l23.656,0l0,3.301l-20.098,0l0,13.399l17.502,0l0,3.302l-17.502,0l0,15.611l-3.558,0l0,-35.613Z" style="fill:#080605;fill-rule:nonzero;"/><path d="M58.686,215.338l0.512,0c7.213,0 12.47,-5.705 12.47,-15.001c0,-9.296 -5.257,-15.001 -12.47,-15.001l-0.512,0c-7.213,0 -12.47,5.705 -12.47,15.001c0,9.296 5.257,15.001 12.47,15.001Zm0.256,-33.336c9.36,0 16.284,6.86 16.284,18.335c0,11.475 -6.924,18.335 -16.284,18.335c-9.36,0 -16.284,-6.86 -16.284,-18.335c0,-11.475 6.924,-18.335 16.284,-18.335Z" style="fill:#080605;fill-rule:nonzero;"/><path d="M106.704,218.64c-8.816,0 -12.983,-5.353 -12.983,-13.238l0,-22.887l3.558,0l0,22.374c0,6.507 3.142,10.418 9.168,10.418l0.513,0c5.994,0 9.168,-3.911 9.168,-10.418l0,-22.374l3.558,0l0,22.887c0,7.917 -4.424,13.238 -12.982,13.238Z" style="fill:#080605;fill-rule:nonzero;"/><path d="M143.983,187.451l0,30.677l-3.558,0l0,-35.613l4.584,0l19.585,30.163l0,-30.163l3.558,0l0,35.613l-4.327,0l-19.842,-30.677Z" style="fill:#080605;fill-rule:nonzero;"/><path d="M200.848,214.826c8.302,0 12.982,-5.193 12.982,-14.489c0,-9.296 -4.68,-14.521 -12.982,-14.521l-8.142,0l0,29.01l8.142,0Zm-11.7,-32.311l12.213,0c9.681,0 16.027,6.731 16.027,17.918c0,11.187 -6.346,17.695 -16.027,17.695l-12.213,0l0,-35.613Z" style="fill:#080605;fill-rule:nonzero;"/><path d="M247.776,185.784l-7.789,19.233l15.579,0l-7.79,-19.233Zm-2.147,-3.269l4.487,0l14.489,35.613l-3.782,0l-3.943,-9.809l-18.207,0l-3.975,9.809l-3.654,0l14.585,-35.613Z" style="fill:#080605;fill-rule:nonzero;"/><path d="M285.825,185.816l-12.982,0l0,-3.301l29.523,0l0,3.301l-12.983,0l0,32.312l-3.558,0l0,-32.312Z" style="fill:#080605;fill-rule:nonzero;"/><rect x="319.258" y="182.515" width="3.558" height="35.613" style="fill:#080605;fill-rule:nonzero;"/><path d="M357.724,215.338l0.513,0c7.244,0 12.469,-5.705 12.469,-15.001c0,-9.296 -5.225,-15.001 -12.469,-15.001l-0.513,0c-7.244,0 -12.469,5.705 -12.469,15.001c0,9.296 5.257,15.001 12.469,15.001Zm0.256,-33.336c9.36,0 16.284,6.86 16.284,18.335c0,11.475 -6.924,18.335 -16.284,18.335c-9.36,0 -16.283,-6.86 -16.283,-18.335c0,-11.475 6.923,-18.335 16.283,-18.335Z" style="fill:#080605;fill-rule:nonzero;"/><path d="M396.703,187.451l0,30.677l-3.559,0l0,-35.613l4.584,0l19.586,30.163l0,-30.163l3.558,0l0,35.613l-4.328,0l-19.841,-30.677Z" style="fill:#080605;fill-rule:nonzero;"/><rect x="3.962" y="4.009" width="7.26" height="119.994" style="fill:#080605;fill-rule:nonzero;"/><path d="M175.881,64.006c0,8.739 -1.265,16.946 -3.795,24.621c-2.53,7.675 -6.187,14.341 -10.972,19.999c-4.784,5.658 -10.641,10.111 -17.571,13.36c-6.93,3.25 -14.794,4.874 -23.594,4.874c-8.799,0 -16.691,-1.624 -23.675,-4.874c-6.985,-3.249 -12.87,-7.702 -17.654,-13.36c-4.785,-5.658 -8.442,-12.324 -10.972,-19.999c-2.53,-7.675 -3.795,-15.882 -3.795,-24.621c0,-8.739 1.265,-16.946 3.795,-24.621c2.53,-7.674 6.187,-14.341 10.972,-19.999c4.784,-5.658 10.669,-10.111 17.654,-13.36c6.984,-3.249 14.876,-4.874 23.675,-4.874c8.8,0 16.664,1.625 23.594,4.874c6.93,3.249 12.787,7.702 17.571,13.36c4.785,5.658 8.442,12.325 10.972,19.999c2.53,7.675 3.795,15.882 3.795,24.621Zm-104.768,0c0,7.731 1.1,15.013 3.299,21.848c2.2,6.834 5.39,12.801 9.57,17.898c4.179,5.098 9.294,9.159 15.344,12.184c6.049,3.025 12.924,4.538 20.623,4.538c7.7,0 14.547,-1.513 20.542,-4.538c5.994,-3.025 11.081,-7.086 15.261,-12.184c4.18,-5.097 7.37,-11.064 9.57,-17.898c2.2,-6.835 3.299,-14.117 3.299,-21.848c0,-7.731 -1.099,-15.013 -3.299,-21.848c-2.2,-6.834 -5.39,-12.8 -9.57,-17.898c-4.18,-5.098 -9.267,-9.159 -15.261,-12.184c-5.995,-3.025 -12.842,-4.538 -20.542,-4.538c-7.699,0 -14.574,1.513 -20.623,4.538c-6.05,3.025 -11.165,7.086 -15.344,12.184c-4.18,5.098 -7.37,11.064 -9.57,17.898c-2.199,6.835 -3.299,14.117 -3.299,21.848Z" style="fill:#080605;fill-rule:nonzero;"/><path d="M208.879,10.395l0,-6.386l90.249,0l0,6.386l-41.577,0l0,113.608l-7.26,0l0,-113.608l-41.412,0Z" style="fill:#080605;fill-rule:nonzero;"/><path d="M420.89,124.003l-7.754,0l-42.403,-112.767l-0.329,0l-43.558,112.767l-7.754,0l47.352,-119.994l7.919,0l46.527,119.994Z" style="fill:#080605;fill-rule:nonzero;"/></g></g></svg>