<?xml version="1.0" encoding="utf-8"?>
<!-- Generator: Adobe Illustrator 23.0.2, SVG Export Plug-In . SVG Version: 6.00 Build 0)  -->
<svg version="1.1" id="Layer_1" xmlns="http://www.w3.org/2000/svg" xmlns:xlink="http://www.w3.org/1999/xlink" x="0px" y="0px"
	 viewBox="0 0 400 245" style="enable-background:new 0 0 400 245;" xml:space="preserve">
<style type="text/css">
	.st0{fill:#404040;}
	.st1{fill:url(#SVGID_1_);}
	.st2{fill:url(#SVGID_2_);}
	.st3{fill:url(#SVGID_3_);}
	.st4{fill:url(#SVGID_4_);}
	.st5{fill:url(#SVGID_5_);}
	.st6{fill:url(#SVGID_6_);}
	.st7{fill:url(#SVGID_7_);}
	.st8{fill:url(#SVGID_8_);}
	.st9{fill:#202945;}
	.st10{fill:#DAA900;}
	.st11{fill:#292933;}
	.st12{fill:#8E91A1;}
	.st13{fill-rule:evenodd;clip-rule:evenodd;fill:#343333;}
	.st14{fill-rule:evenodd;clip-rule:evenodd;fill:#FF3000;}
	.st15{fill:#232020;}
	.st16{fill-rule:evenodd;clip-rule:evenodd;fill:#0068B7;}
	.st17{clip-path:url(#SVGID_10_);fill:url(#SVGID_11_);}
	.st18{clip-path:url(#SVGID_13_);fill:url(#SVGID_14_);}
	.st19{clip-path:url(#SVGID_16_);fill:#FFFFFF;}
	.st20{fill:#018E82;}
	.st21{clip-path:url(#SVGID_18_);fill:#FFFFFF;}
	.st22{fill-rule:evenodd;clip-rule:evenodd;fill:#5E9FD7;}
	.st23{fill-rule:evenodd;clip-rule:evenodd;fill:#2A3457;}
	.st24{fill:#045576;}
	.st25{fill:url(#SVGID_19_);}
	.st26{fill:#22292B;}
	.st27{fill-rule:evenodd;clip-rule:evenodd;fill:url(#SVGID_20_);}
	.st28{fill:#231F20;}
	.st29{fill:#E87B1B;}
	.st30{fill:#818485;}
	.st31{fill:#231916;}
	.st32{fill:#5C186A;}
	.st33{fill:#AEBE25;}
	.st34{fill:#333333;}
	.st35{fill:#FBBC12;}
	.st36{fill:#FFFFFF;}
	.st37{fill:#EC1C24;}
	.st38{fill:#9A9C9C;}
	.st39{fill:#3D3D3A;}
	.st40{fill:#D41E46;}
	.st41{fill:#262261;}
	.st42{fill:#652D90;}
	.st43{fill:#90278E;}
	.st44{fill:#EB008B;}
</style>
<g>
	<path class="st24" d="M397.51,176.44c0.01,0,0.01,0,0.01-0.01v-44.09c0-15.63-8.51-25.29-23.13-25.29c-9.77,0-15.49,5.2-19.93,10.9
		c-0.01,0.01-0.02,0-0.02-0.01V99.54c0-8.62-6.99-15.6-15.6-15.6h-3.7c-0.01,0-0.01,0-0.01,0.01v88.23c0,2.36,1.91,4.27,4.27,4.27
		h13.23c1.01,0,1.82-0.82,1.82-1.82v-36.17c0-9.15,4.7-13.85,12.07-13.85c7.37,0,11.69,4.7,11.69,13.85v28.48
		c0,5.25,4.26,9.51,9.51,9.51H397.51z"/>
	<path class="st24" d="M284.59,142.51v-0.25c0-10.04,6.86-18.55,16.52-18.55c6.45,0,10.66,2.59,14.74,6.7
		c0.42,0.42,1.11,0.43,1.51-0.01l9.91-10.66c0.65-0.7,0.67-1.81,0-2.5c-6.17-6.37-13.97-10.19-26.03-10.19
		c-20.84,0-35.71,16.01-35.71,35.45v0.25c0,19.44,15,35.2,35.45,35.2c12.42,0,19.85-4.34,26.08-10.62c0.99-0.99,1-2.59,0.02-3.58
		l-8.83-8.93c-0.42-0.42-1.1-0.43-1.54-0.03c-4.42,4.02-8.72,6.51-14.84,6.51C291.33,161.32,284.59,152.93,284.59,142.51"/>
	<path class="st24" d="M241.22,137.05h-28.04c-0.55,0-0.97-0.52-0.86-1.05c1.75-8.17,6.86-13.44,14.54-13.44
		C234.99,122.56,240.08,128.41,241.22,137.05 M260.03,144.04c0-19.32-10.42-36.98-33.17-36.98c-19.83,0-33.68,16.01-33.68,35.45
		v0.25c0,20.84,15.12,35.2,35.58,35.2c11.12,0,19.66-3.93,25.89-10.49c1.11-1.17,1.03-3.02-0.17-4.09l-8.05-7.13
		c-0.51-0.45-1.27-0.43-1.78,0.02c-4.98,4.37-9.51,6.18-15.63,6.18c-8.28,0-14.22-4.2-16.38-12.26c-0.15-0.54,0.28-1.09,0.85-1.09
		l43.61,0c1.53,0,2.78-1.21,2.86-2.73C260,145.56,260.03,144.77,260.03,144.04"/>
	<path class="st24" d="M176.27,105.56h24.43c0.93,0,1.68-0.75,1.68-1.68v-3.85c0-6.91-5.6-12.52-12.52-12.52h-59.24
		c-1.29,0-2.34,1.05-2.34,2.34v6.85c0,4.9,3.97,8.86,8.86,8.86h17.42c0.64,0,1.16,0.52,1.16,1.16v65.47c0,2.37,1.92,4.28,4.28,4.28
		h13.43c1.03,0,1.86-0.83,1.86-1.86v-68.08C175.3,106,175.73,105.56,176.27,105.56z"/>
	<path class="st24" d="M5.79,176.48h5.04c7.46,0,13.51-6.05,13.51-13.51V90.27c0-1.52-1.23-2.75-2.75-2.75h-6.26
		c-7.1,0-12.85,5.75-12.85,12.85v72.79C2.48,174.99,3.96,176.48,5.79,176.48z"/>
	<linearGradient id="SVGID_1_" gradientUnits="userSpaceOnUse" x1="81.149" y1="177.9879" x2="81.149" y2="67.0121">
		<stop  offset="0.25" style="stop-color:#005575"/>
		<stop  offset="1" style="stop-color:#00AFAC"/>
	</linearGradient>
	<path class="st1" d="M128.26,130.33v0.8v0.76v0.55c-0.16,25.06-19.99,45.54-47.23,45.54c-27.34,0-46.96-20.36-46.98-45.54v-0.55
		v-1.2v-0.36c0-1.46,1.18-2.64,2.64-2.64h1.56c1.46,0,2.64,1.18,2.64,2.64c0-1.46,1.18-2.64,2.64-2.64h1.56
		c1.46,0,2.64,1.18,2.64,2.64v0c0-1.46,1.16-2.63,2.59-2.63h1.54c1.43,0,2.59,1.18,2.59,2.63v0.58v0.99v0.55
		C54.58,147.51,65.68,160,81.28,160c15.69,0,26.57-12.38,26.59-27.56v-0.55v-0.76v-0.8c0-1.46,1.16-2.64,2.59-2.64H112
		c1.43,0,2.59,1.18,2.59,2.64c0-1.46,1.18-2.64,2.64-2.64h1.56c1.46,0,2.64,1.18,2.64,2.64v0c0-1.46,1.18-2.63,2.63-2.63h1.57
		C127.08,127.7,128.26,128.87,128.26,130.33z M36.97,91.58h1.56c1.46,0,2.64-1.18,2.64-2.64v-1.56c0-1.46-1.18-2.64-2.64-2.64h-1.56
		c-1.46,0-2.64,1.18-2.64,2.64v1.56C34.34,90.4,35.52,91.58,36.97,91.58z M42.97,90.37h1.56c1.46,0,2.64,1.18,2.64,2.64v1.56
		c0,1.46-1.18,2.64-2.64,2.64h-1.56c-1.46,0-2.64-1.18-2.64-2.64v-1.56C40.34,91.55,41.52,90.37,42.97,90.37z M114.55,92.31v-1.56
		c0-1.46,1.18-2.64,2.64-2.64h1.56c1.46,0,2.64,1.18,2.64,2.64v1.56c0,1.46-1.18,2.64-2.64,2.64h-1.56
		C115.73,94.95,114.55,93.77,114.55,92.31z M46.39,85.2v-1.56c0-1.46,1.18-2.64,2.64-2.64h1.56c1.46,0,2.64,1.18,2.64,2.64v1.56
		c0,1.46-1.18,2.64-2.64,2.64h-1.56C47.57,87.84,46.39,86.66,46.39,85.2z M80.8,71.64v-1.56c0-1.45,1.18-2.64,2.64-2.64H85
		c1.46,0,2.64,1.18,2.64,2.64v1.56c0,1.46-1.18,2.64-2.64,2.64h-1.56C81.98,74.28,80.8,73.1,80.8,71.64z M95.39,78.04v-1.56
		c0-1.46,1.18-2.64,2.64-2.64c-1.46,0-2.64-1.18-2.64-2.64v-1.56c0-1.46,1.18-2.64,2.64-2.64h1.56c1.46,0,2.64,1.18,2.64,2.64v1.56
		c0,1.46-1.18,2.64-2.64,2.64c1.46,0,2.64,1.18,2.64,2.64v1.56c0,1.46-1.18,2.64-2.64,2.64h-1.56
		C96.57,80.68,95.39,79.5,95.39,78.04z M95.33,104.83v1.57c0,1.45-1.18,2.63-2.63,2.63h-1.57c-1.45,0-2.63-1.18-2.63-2.63v-1.57
		c0-1.45,1.18-2.63,2.63-2.63h1.57C94.16,102.2,95.33,103.38,95.33,104.83z M125.63,120.86h-0.54c0.98-0.39,1.67-1.33,1.67-2.45
		v-1.56c0-1.46-1.18-2.64-2.64-2.64h-1.31c0.84-0.44,1.42-1.31,1.42-2.32v-1.56c0-1.46-1.18-2.64-2.64-2.64h-0.36
		c0.85-0.44,1.44-1.31,1.44-2.33v-1.56c0-1.46-1.18-2.64-2.64-2.64h-1.56c-1.46,0-2.64,1.18-2.64,2.64c0-1.41-1.11-2.55-2.5-2.62
		c1.39-0.07,2.5-1.21,2.5-2.62v-1.57c0-1.45-1.18-2.63-2.64-2.63h-1.57c-1.45,0-2.63,1.18-2.63,2.63c0-1.45-1.18-2.63-2.63-2.63h0
		c1.46,0,2.64-1.18,2.64-2.64v-1.56c0-1.46-1.18-2.64-2.64-2.64h-1.56c-1.46,0-2.64,1.18-2.64,2.64c0-1.46-1.18-2.64-2.64-2.64
		h-1.56c-1.46,0-2.64,1.18-2.64,2.64v1.56c0,1.46,1.18,2.64,2.64,2.64h0c-1.43,0-2.59,1.14-2.63,2.57c-0.04-1.42-1.2-2.57-2.63-2.57
		h-1.56c-1.45,0-2.63,1.17-2.64,2.62c0-1.45-1.18-2.62-2.63-2.62h-0.01c1.46,0,2.64-1.18,2.64-2.64v-1.56
		c0-1.46-1.18-2.64-2.64-2.64c1.45,0,2.63-1.18,2.64-2.63c0.01,1.45,1.18,2.63,2.64,2.63h1.56c1.46,0,2.64-1.18,2.64-2.64v-1.56
		c0-1.46-1.18-2.64-2.64-2.64h-1.56c-1.45,0-2.63,1.18-2.64,2.63c-0.01-1.45-1.18-2.63-2.64-2.63H84.3c-1.43,0-2.58,1.14-2.63,2.56
		h-0.02c-0.04-1.42-1.2-2.55-2.62-2.56c1.45,0,2.63-1.18,2.63-2.63v-1.57c0-1.45-1.18-2.63-2.63-2.63h-1.57
		c-1.45,0-2.63,1.18-2.63,2.63v1.57c0,1.45,1.18,2.63,2.63,2.63c-1.43,0-2.58,1.14-2.62,2.56c-0.02-1.44-1.19-2.61-2.64-2.61h-1.56
		c-1.46,0-2.64,1.18-2.64,2.64v0.05c0-1.46-1.18-2.64-2.64-2.64h-1.56c-1.46,0-2.64,1.18-2.64,2.64v1.56c0,1.46,1.18,2.64,2.64,2.64
		c-1.42,0-2.58,1.13-2.63,2.54h-0.02c-0.05-1.41-1.2-2.54-2.63-2.54h-1.56c-1.46,0-2.64,1.18-2.64,2.64v1.56
		c0,1.46,1.18,2.64,2.64,2.64c-1.45,0-2.63,1.17-2.64,2.62c-0.01-1.45-1.18-2.62-2.63-2.62h-1.56c-1.46,0-2.64,1.18-2.64,2.64v1.56
		c0,1.46,1.18,2.64,2.64,2.64h1.56c1.45,0,2.63-1.17,2.63-2.63c0.01,1.41,1.11,2.54,2.5,2.61c-1.39,0.07-2.5,1.21-2.5,2.62v1.57
		c0,1.03,0.6,1.92,1.46,2.35c-0.06,0-0.11-0.02-0.17-0.02h-1.57c-1.45,0-2.63,1.18-2.63,2.63v0c0-1.46-1.18-2.64-2.64-2.64h-1.56
		c-0.08,0-0.16,0.02-0.25,0.02c0.87-0.43,1.48-1.32,1.48-2.36v-1.56c0-1.46-1.18-2.64-2.64-2.64h-1.56c-1.46,0-2.64,1.18-2.64,2.64
		v1.56c0,1.46,1.18,2.64,2.64,2.64h1.56c0.08,0,0.16-0.02,0.24-0.02c-0.87,0.43-1.48,1.32-1.48,2.36c0-1.46-1.18-2.64-2.64-2.64
		h-1.56c-1.46,0-2.64,1.18-2.64,2.64v1.56c0,1.01,0.58,1.88,1.42,2.32h-1.31c-1.46,0-2.64,1.18-2.64,2.64v1.56
		c0,1.11,0.69,2.06,1.67,2.45h-0.21c-1.46,0-2.64,1.18-2.64,2.64v1.56c0,1.46,1.18,2.64,2.64,2.64h1.56c1.46,0,2.64-1.18,2.64-2.64
		c0,1.46,1.18,2.64,2.64,2.64h1.56c1.46,0,2.64-1.18,2.64-2.64v0c0,1.46,1.18,2.63,2.63,2.63h1.57c1.45,0,2.63-1.18,2.63-2.63v-1.57
		c0-1.11-0.69-2.06-1.67-2.44h0.21c1.45,0,2.63-1.18,2.63-2.63v-1.57c0-1.01-0.58-1.88-1.41-2.32h1.31c1.45,0,2.63-1.18,2.63-2.63
		v-1.57c0-1.03-0.6-1.92-1.47-2.35c0.06,0,0.11,0.02,0.17,0.02h1.57c1.46,0,2.63-1.18,2.63-2.63c0,1.45,1.18,2.63,2.63,2.63h1.57
		c1.45,0,2.63-1.18,2.63-2.63v-1.57c0-1.41-1.11-2.55-2.5-2.62c1.39-0.07,2.5-1.21,2.5-2.62V98.5c0,1.46,1.18,2.64,2.64,2.64h1.56
		c1.43,0,2.58-1.14,2.63-2.56c0.02,1.45,1.19,2.61,2.63,2.61h1.56c1.45,0,2.62-1.17,2.64-2.61h0.01c0.01,1.44,1.18,2.61,2.63,2.61
		h1.57c1.45,0,2.63-1.18,2.63-2.62c0.01,1.45,1.19,2.62,2.64,2.62h1.56c1.43,0,2.59-1.14,2.63-2.57c0.04,1.43,1.2,2.57,2.63,2.57
		h1.56c1.45,0,2.63-1.17,2.63-2.62c0,1.4,1.11,2.54,2.5,2.61c-1.39,0.07-2.5,1.21-2.5,2.62v1.57c0,1.45,1.18,2.63,2.63,2.63h0.36
		c-0.85,0.44-1.43,1.31-1.43,2.33v1.57c0,1.45,1.18,2.63,2.63,2.63h1.31c-0.84,0.44-1.41,1.31-1.41,2.32v1.57
		c0,1.45,1.18,2.63,2.63,2.63h0.54c-0.98,0.39-1.67,1.33-1.67,2.45v1.56c0,1.46,1.18,2.64,2.64,2.64h1.56
		c1.46,0,2.64-1.18,2.64-2.64c0,1.46,1.18,2.64,2.64,2.64h1.56c1.46,0,2.64-1.18,2.64-2.64v0c0,1.46,1.18,2.63,2.63,2.63h1.57
		c1.45,0,2.63-1.18,2.63-2.63v-1.57C128.26,122.04,127.08,120.86,125.63,120.86z M43.51,120.86c-1.46,0-2.64,1.18-2.64,2.64
		c0-1.11-0.69-2.06-1.67-2.45h0.21c1.46,0,2.64-1.18,2.64-2.64c0,1.11,0.69,2.06,1.67,2.45H43.51z M44.69,114.22
		c-1.46,0-2.64,1.18-2.64,2.64c0-1.01-0.58-1.88-1.41-2.32h1.31c1.46,0,2.64-1.18,2.64-2.64c0,1.01,0.58,1.88,1.42,2.32H44.69z
		 M50.34,120.86c-1.45,0-2.63,1.18-2.63,2.63v0c0-1.11-0.69-2.06-1.67-2.45h0.21c1.46,0,2.64-1.18,2.64-2.64v0
		c0,1.11,0.69,2.06,1.66,2.44H50.34z M51.52,114.22c-1.45,0-2.63,1.18-2.63,2.63v0c0-1.01-0.58-1.88-1.42-2.32h1.32
		c1.46,0,2.64-1.18,2.64-2.64v0c0,1.01,0.58,1.88,1.41,2.32H51.52z M79.03,87.52c1.45,0,2.62-1.17,2.63-2.61h0.01
		c0.02,1.44,1.19,2.61,2.63,2.61c-1.42,0-2.58,1.13-2.63,2.54h-0.02C81.6,88.65,80.45,87.52,79.03,87.52L79.03,87.52z M74.83,84.91
		c0.01,1.44,1.19,2.61,2.63,2.61c-1.42,0-2.57,1.13-2.62,2.54c-0.02-1.44-1.19-2.6-2.63-2.6h0C73.63,87.46,74.78,86.33,74.83,84.91z
		 M65.37,87.52c1.46,0,2.63-1.18,2.63-2.64v-0.05c0,1.46,1.18,2.64,2.64,2.64c-1.44,0-2.61,1.16-2.63,2.6h-0.01
		C67.94,88.65,66.79,87.52,65.37,87.52z M61.17,103.8c0-1.41-1.11-2.55-2.5-2.62c1.39-0.07,2.5-1.21,2.5-2.62v0
		c0,1.41,1.11,2.55,2.5,2.62C62.27,101.25,61.17,102.39,61.17,103.8z M63.8,94.35c-1.45,0-2.63,1.18-2.63,2.63v0
		c0-1.46-1.18-2.64-2.64-2.64h0c1.44,0,2.61-1.16,2.63-2.6h0.01C61.19,93.2,62.36,94.35,63.8,94.35L63.8,94.35z M68,96.94v0.05
		c0-1.45-1.18-2.63-2.63-2.63h0c1.44,0,2.61-1.16,2.63-2.6h0.01c0.05,1.41,1.2,2.54,2.63,2.54h0C69.18,94.3,68,95.48,68,96.94z
		 M74.83,96.91c-0.02-1.44-1.19-2.61-2.63-2.61h0c1.42,0,2.58-1.13,2.62-2.54c0.02,1.44,1.19,2.6,2.63,2.6
		C76.03,94.35,74.88,95.49,74.83,96.91z M84.3,94.35c-1.43,0-2.58,1.14-2.62,2.56h-0.02c-0.04-1.42-1.2-2.56-2.63-2.56
		c1.44,0,2.61-1.16,2.63-2.6h0.01C81.69,93.2,82.86,94.35,84.3,94.35L84.3,94.35z M104.79,94.35c-1.45,0-2.63,1.17-2.63,2.62
		c-0.01-1.45-1.18-2.62-2.63-2.62h0c1.46,0,2.64-1.18,2.64-2.64C102.15,93.17,103.34,94.35,104.79,94.35L104.79,94.35z
		 M108.99,98.56c0,1.41,1.11,2.55,2.5,2.62c-1.39,0.07-2.5,1.22-2.5,2.62v0c0-1.41-1.11-2.55-2.5-2.62
		C107.88,101.1,108.99,99.96,108.99,98.56z M114.59,123.5c0-1.46-1.18-2.64-2.64-2.64h-0.53c0.97-0.39,1.66-1.33,1.66-2.44v0
		c0,1.46,1.18,2.64,2.64,2.64h0.53C115.28,121.44,114.59,122.38,114.59,123.5z M115.72,114.22c-1.45,0-2.64,1.18-2.64,2.64v0
		c0-1.45-1.18-2.63-2.63-2.63h-1.32c0.84-0.44,1.41-1.31,1.41-2.32v-1.57c0-1.45-1.18-2.63-2.63-2.63h-0.36
		c0.85-0.44,1.43-1.31,1.43-2.33v0c0,1.46,1.18,2.64,2.64,2.64h1.56c1.46,0,2.64-1.18,2.64-2.64c0,1.46,1.18,2.64,2.64,2.64h0.36
		c-0.85,0.44-1.44,1.31-1.44,2.33v1.56c0,1.46,1.18,2.64,2.64,2.64h1.31c-0.84,0.44-1.42,1.31-1.42,2.32c0-1.46-1.18-2.64-2.64-2.64
		H115.72z M121.42,123.49L121.42,123.49c0-1.45-1.18-2.63-2.64-2.63h-0.53c0.98-0.39,1.67-1.33,1.67-2.45
		c0,1.46,1.18,2.64,2.64,2.64h0.53C122.12,121.44,121.42,122.38,121.42,123.49z"/>
</g>
</svg>
