<svg id="Layer_1" data-name="Layer 1" xmlns="http://www.w3.org/2000/svg" xmlns:xlink="http://www.w3.org/1999/xlink" viewBox="0 0 648.64344 197.59667"><defs><style>.cls-1{fill:#045576;}.cls-2{fill:url(#IOTech_O_Gradient);}</style><linearGradient id="IOTech_O_Gradient" x1="133.92405" y1="184.31665" x2="133.92405" y2="8.10648" gradientUnits="userSpaceOnUse"><stop offset="0.25" stop-color="#005575"/><stop offset="1" stop-color="#00afac"/></linearGradient></defs><title>iotech</title><path class="cls-1" d="M636.2525,181.86378a.01645.01645,0,0,0,.01645-.01645V111.845c0-24.81987-13.51928-40.15332-36.72527-40.15332-15.51626,0-24.59109,8.25073-31.65073,17.31454a.01613.01613,0,0,1-.02893-.01V59.754a24.77281,24.77281,0,0,0-24.7728-24.77281H537.21a.01646.01646,0,0,0-.01645.01645V175.08945a6.77433,6.77433,0,0,0,6.77433,6.77433h21.00164a2.89454,2.89454,0,0,0,2.89454-2.89454V121.53181c0-14.52834,7.4682-21.99288,19.16952-21.99288,11.70506,0,18.56484,7.46454,18.56484,21.99288v45.22635A15.10562,15.10562,0,0,0,620.704,181.86378Z"/><path class="cls-1" d="M456.9543,127.98833V127.584c0-15.9382,10.89624-29.45742,26.23331-29.45742,10.24853,0,16.9303,4.10855,23.39811,10.64165a1.6631,1.6631,0,0,0,2.40231-.01348L524.72648,91.8338a2.8911,2.8911,0,0,0-.001-3.964c-9.79588-10.1148-22.17987-16.177-41.33748-16.177-33.09315,0-56.6999,25.4246-56.6999,56.29551v.40437c0,30.87091,23.81076,55.89114,56.2955,55.89114,19.71753,0,31.52434-6.89908,41.41537-16.85514a4.04024,4.04024,0,0,0,.03366-5.691l-14.02407-14.18329a1.76639,1.76639,0,0,0-2.44507-.04206c-7.01694,6.38441-13.85217,10.33777-23.5664,10.33777-16.74694,0-27.44279-13.31522-27.44279-29.86179"/><path class="cls-1" d="M388.086,119.31321h-44.5155a1.40075,1.40075,0,0,1-1.36531-1.67194c2.77465-12.97427,10.885-21.3337,23.08284-21.3337,12.91448,0,20.98375,9.28241,22.798,23.00564m29.86546,11.09663c0-30.67054-16.54657-58.71812-52.66343-58.71812-31.47929,0-53.47218,25.4246-53.47218,56.29551v.40438c0,33.09314,24.01113,55.89477,56.49586,55.89477,17.66245,0,31.21664-6.24394,41.10926-16.65516a4.51871,4.51871,0,0,0-.26948-6.49154l-12.78888-11.3186a2.14579,2.14579,0,0,0-2.83394.03234c-7.90476,6.93848-15.09963,9.81347-24.81258,9.81347-13.14017,0-22.58095-6.66354-26.01457-19.45946a1.39271,1.39271,0,0,1,1.34679-1.72827l69.24748,0a4.5605,4.5605,0,0,0,4.53836-4.3376c.0709-1.30693.11731-2.56572.11731-3.73168"/><path class="cls-1" d="M284.9538,69.32164h38.78542a2.65971,2.65971,0,0,0,2.65971-2.65971v-6.118a19.8746,19.8746,0,0,0-19.8746-19.8746H212.46917a3.71014,3.71014,0,0,0-3.71013,3.71014v10.869a14.07322,14.07322,0,0,0,14.07322,14.07322h27.667a1.84443,1.84443,0,0,1,1.84443,1.84443V175.115a6.80127,6.80127,0,0,0,6.80127,6.80127h21.32077a2.95289,2.95289,0,0,0,2.9529-2.95289V70.85679A1.53515,1.53515,0,0,1,284.9538,69.32164Z"/><path class="cls-1" d="M14.26961,181.9163h8.00731a21.44956,21.44956,0,0,0,21.44957-21.44956V45.04375a4.37443,4.37443,0,0,0-4.37442-4.37442H29.41238A20.40383,20.40383,0,0,0,9.00856,61.07316V176.65524A5.261,5.261,0,0,0,14.26961,181.9163Z"/><path class="cls-2" d="M208.72463,108.64458v3.35993c-.25394,39.79432-31.73417,72.31214-74.99783,72.31214-43.40588,0-74.56062-32.33145-74.60333-72.31214v-3.35268a4.18648,4.18648,0,0,1,4.18573-4.1894h2.47812a4.18727,4.18727,0,0,1,4.1894,4.1894,4.18724,4.18724,0,0,1,4.18931-4.1894h2.4782a4.18647,4.18647,0,0,1,4.18565,4.1894v-.00725a4.14856,4.14856,0,0,1,4.11466-4.18215h2.44887a4.14856,4.14856,0,0,1,4.11466,4.18215v3.35993c.23521,23.91528,17.85373,43.75822,42.62311,43.75822,24.90809,0,42.18869-19.66438,42.228-43.75822v-3.35268a4.15259,4.15259,0,0,1,4.11441-4.1894h2.43374a4.14965,4.14965,0,0,1,4.11091,4.1894,4.18725,4.18725,0,0,1,4.18932-4.1894h2.47811a4.18961,4.18961,0,0,1,4.1894,4.1894v-.00725a4.17874,4.17874,0,0,1,4.17848-4.18215h2.49262A4.17879,4.17879,0,0,1,208.72463,108.64458ZM63.78314,47.12289h2.47811A4.18647,4.18647,0,0,0,70.447,42.93357V40.45546a4.18883,4.18883,0,0,0-4.18574-4.1894H63.78314a4.18966,4.18966,0,0,0-4.1894,4.1894v2.47811A4.1873,4.1873,0,0,0,63.78314,47.12289Zm9.52546-1.92458h2.4782a4.18951,4.18951,0,0,1,4.18931,4.18931v2.47453a4.19188,4.19188,0,0,1-4.18931,4.1894H73.3086a4.18887,4.18887,0,0,1-4.18573-4.1894V49.38762A4.1865,4.1865,0,0,1,73.3086,45.19831ZM186.95639,48.277V45.79885a4.1926,4.1926,0,0,1,4.18932-4.193h2.47819a4.18959,4.18959,0,0,1,4.18573,4.193V48.277a4.18574,4.18574,0,0,1-4.18573,4.18573h-2.47819A4.18876,4.18876,0,0,1,186.95639,48.277ZM78.73885,36.9933V34.5151a4.18568,4.18568,0,0,1,4.18573-4.18573h2.47819a4.18568,4.18568,0,0,1,4.18566,4.18573v2.4782a4.18879,4.18879,0,0,1-4.18566,4.18931H82.92458A4.1888,4.1888,0,0,1,78.73885,36.9933ZM133.3747,15.45414v-2.4782a4.188,4.188,0,0,1,4.18573-4.18573h2.4782a4.1888,4.1888,0,0,1,4.18931,4.18573v2.4782a4.18721,4.18721,0,0,1-4.18931,4.18931h-2.4782A4.18645,4.18645,0,0,1,133.3747,15.45414Zm23.1608,10.16943V23.149a4.18646,4.18646,0,0,1,4.18573-4.18932,4.18882,4.18882,0,0,1-4.18573-4.18939V12.29221a4.18568,4.18568,0,0,1,4.18573-4.18573h2.47812a4.18334,4.18334,0,0,1,4.18573,4.18573v2.47812a4.18647,4.18647,0,0,1-4.18573,4.18939,4.18412,4.18412,0,0,1,4.18573,4.18932v2.47453a4.18412,4.18412,0,0,1-4.18573,4.18932h-2.47812A4.18646,4.18646,0,0,1,156.5355,25.62357Zm-.08685,42.53618v2.4927a4.17872,4.17872,0,0,1-4.18207,4.17848h-2.489a4.18107,4.18107,0,0,1-4.18207-4.17848v-2.4927a4.18414,4.18414,0,0,1,4.18207-4.18207h2.489A4.18179,4.18179,0,0,1,156.44865,68.15975Zm48.0975,25.44952h-.85449a4.18,4.18,0,0,0,2.64887-3.8855V87.24565a4.1834,4.1834,0,0,0-4.18573-4.18573h-2.08657a4.16878,4.16878,0,0,0,2.24936-3.69012V76.89168a4.1857,4.1857,0,0,0-4.18573-4.18573h-.57569a4.16961,4.16961,0,0,0,2.27964-3.70654V66.5213a4.18883,4.18883,0,0,0-4.18573-4.1894H193.172a4.18882,4.18882,0,0,0-4.18573,4.1894,4.18153,4.18153,0,0,0-3.97227-4.16749,4.1744,4.1744,0,0,0,3.97227-4.16063V55.70056a4.18186,4.18186,0,0,0-4.18573-4.17848h-2.489a4.18108,4.18108,0,0,0-4.18214,4.17848,4.178,4.178,0,0,0-4.17848-4.17848h-.00725a4.18951,4.18951,0,0,0,4.18931-4.18932V44.85823a4.18958,4.18958,0,0,0-4.18931-4.18939h-2.47812a4.18965,4.18965,0,0,0-4.18939,4.18939,4.18419,4.18419,0,0,0-4.18574-4.18939h-2.47811a4.18652,4.18652,0,0,0-4.18573,4.18939v2.47453a4.18645,4.18645,0,0,0,4.18573,4.18932h.00358a4.18044,4.18044,0,0,0-4.17824,4.07625,4.17973,4.17973,0,0,0-4.17473-4.07625H149.7848a4.18752,4.18752,0,0,0-4.18716,4.1643,4.17715,4.17715,0,0,0-4.17705-4.1643h-.01084a4.18723,4.18723,0,0,0,4.18932-4.18932V44.85823a4.18708,4.18708,0,0,0-4.18693-4.18915,4.18827,4.18827,0,0,0,4.18518-4.17131,4.18838,4.18838,0,0,0,4.18748,4.17155h2.47812A4.18876,4.18876,0,0,0,156.44865,36.48V34.0018a4.18875,4.18875,0,0,0-4.18573-4.18931H149.7848a4.18838,4.18838,0,0,0-4.18748,4.17154,4.18846,4.18846,0,0,0-4.18757-4.17154h-2.47819a4.1816,4.1816,0,0,0-4.17243,4.05744H134.726a4.1772,4.1772,0,0,0-4.16749-4.0572,4.18083,4.18083,0,0,0,4.18008-4.17832V23.1382a4.181,4.181,0,0,0-4.18207-4.17848h-2.489a4.181,4.181,0,0,0-4.18207,4.17848v2.49621a4.18082,4.18082,0,0,0,4.18008,4.17832,4.17709,4.17709,0,0,0-4.16749,4.0572,4.18677,4.18677,0,0,0-4.18461-4.14246h-2.47454a4.18951,4.18951,0,0,0-4.18931,4.18932v.085a4.18646,4.18646,0,0,0-4.18573-4.18931h-2.4782a4.19182,4.19182,0,0,0-4.18932,4.18931V36.48a4.19162,4.19162,0,0,0,4.18693,4.18908,4.1815,4.1815,0,0,0-4.17179,4.039h-.03027a4.17837,4.17837,0,0,0-4.1706-4.0392H95.53245a4.18418,4.18418,0,0,0-4.18573,4.18939v2.47453a4.18411,4.18411,0,0,0,4.18573,4.18932,4.18537,4.18537,0,0,0-4.18757,4.16757A4.18458,4.18458,0,0,0,87.161,51.52208h-2.4782a4.18647,4.18647,0,0,0-4.18932,4.18573V58.186a4.18722,4.18722,0,0,0,4.18932,4.18931H87.161a4.18525,4.18525,0,0,0,4.18389-4.17106,4.17531,4.17531,0,0,0,3.9667,4.14883A4.17109,4.17109,0,0,0,91.34305,66.514v2.49262A4.164,4.164,0,0,0,93.66683,72.733c-.0906-.0059-.17681-.02709-.26892-.02709H90.909a4.181,4.181,0,0,0-4.18215,4.17848v.00725A4.18569,4.18569,0,0,0,82.54108,72.706H80.063c-.13378,0-.25991.02709-.39043.03928a4.17344,4.17344,0,0,0,2.35486-3.74582V66.5213a4.19189,4.19189,0,0,0-4.18932-4.1894h-2.4782a4.18883,4.18883,0,0,0-4.18573,4.1894v2.47811a4.18569,4.18569,0,0,0,4.18573,4.18573h2.4782c.13314,0,.25872-.027.38868-.0392a4.17155,4.17155,0,0,0-2.3531,3.74574,4.18648,4.18648,0,0,0-4.1894-4.18573H69.20613a4.1857,4.1857,0,0,0-4.18573,4.18573V79.3698a4.16878,4.16878,0,0,0,2.24936,3.69012H65.18319a4.1834,4.1834,0,0,0-4.18573,4.18573v2.47812a4.18,4.18,0,0,0,2.64887,3.8855H63.3092A4.18569,4.18569,0,0,0,59.12347,97.795v2.47811a4.18647,4.18647,0,0,0,4.18573,4.18932h2.47812a4.18725,4.18725,0,0,0,4.1894-4.18932,4.18722,4.18722,0,0,0,4.18931,4.18932h2.4782a4.18645,4.18645,0,0,0,4.18565-4.18932v.00725a4.18185,4.18185,0,0,0,4.18215,4.18207h2.489a4.18178,4.18178,0,0,0,4.18206-4.18207V97.78775a4.17342,4.17342,0,0,0-2.64536-3.87825H89.375A4.181,4.181,0,0,0,93.55711,89.731V87.2384a4.16149,4.16149,0,0,0-2.24633-3.68287h2.08713a4.181,4.181,0,0,0,4.18214-4.17848V76.88443a4.1646,4.1646,0,0,0-2.3264-3.7263c.09027.00582.17609.027.26788.027h2.49262a4.17879,4.17879,0,0,0,4.18214-4.17848,4.17879,4.17879,0,0,0,4.18215,4.17848h2.489a4.18109,4.18109,0,0,0,4.18215-4.17848V66.514a4.17385,4.17385,0,0,0-3.96518-4.16023,4.17083,4.17083,0,0,0,3.96518-4.16063V58.101a4.18952,4.18952,0,0,0,4.18931,4.18932H119.717a4.17934,4.17934,0,0,0,4.17282-4.06088,4.18375,4.18375,0,0,0,4.18135,4.14589h2.47812a4.18779,4.18779,0,0,0,4.1886-4.14589h.0153a4.17648,4.17648,0,0,0,4.17481,4.14589h2.49262a4.18018,4.18018,0,0,0,4.17705-4.168,4.18838,4.18838,0,0,0,4.18716,4.168h2.47812a4.18029,4.18029,0,0,0,4.17473-4.07967,4.181,4.181,0,0,0,4.17824,4.07967h2.4782a4.18516,4.18516,0,0,0,4.1835-4.16756,4.17305,4.17305,0,0,0,3.96558,4.14581,4.17387,4.17387,0,0,0-3.967,4.16047v2.49262a4.18108,4.18108,0,0,0,4.18214,4.17848h.57473a4.16066,4.16066,0,0,0-2.27509,3.69929v2.49262a4.17874,4.17874,0,0,0,4.18214,4.17848h2.08554a4.15976,4.15976,0,0,0-2.24474,3.68287V89.731A4.17867,4.17867,0,0,0,177.963,93.9095h.85392A4.18113,4.18113,0,0,0,176.165,97.795v2.47811a4.18952,4.18952,0,0,0,4.18931,4.18932h2.4782a4.18651,4.18651,0,0,0,4.18573-4.18932,4.18723,4.18723,0,0,0,4.18932,4.18932h2.47811a4.18959,4.18959,0,0,0,4.1894-4.18932v.00725a4.17867,4.17867,0,0,0,4.17848,4.18207h2.49262a4.17872,4.17872,0,0,0,4.17848-4.18207V97.78775A4.178,4.178,0,0,0,204.54615,93.60927Zm-130.38012,0A4.18645,4.18645,0,0,0,69.97672,97.795a4.179,4.179,0,0,0-2.65047-3.8855h.33506A4.18335,4.18335,0,0,0,71.847,89.72377a4.18038,4.18038,0,0,0,2.65365,3.8855ZM76.04,83.05992a4.18729,4.18729,0,0,0-4.193,4.18573,4.16429,4.16429,0,0,0-2.24657-3.69012h2.08378a4.18648,4.18648,0,0,0,4.1894-4.18573,4.16753,4.16753,0,0,0,2.25063,3.69012Zm8.972,10.54935a4.18109,4.18109,0,0,0-4.18215,4.17848V97.795A4.18,4.18,0,0,0,78.181,93.9095h.33354a4.18883,4.18883,0,0,0,4.1894-4.18573V89.731a4.1721,4.1721,0,0,0,2.64217,3.87825Zm1.8704-10.54935A4.178,4.178,0,0,0,82.704,87.2384v.00725a4.1666,4.1666,0,0,0-2.251-3.69012h2.08808a4.18569,4.18569,0,0,0,4.18573-4.18573v.00725a4.16157,4.16157,0,0,0,2.24641,3.68287Zm43.67408-42.3906a4.1818,4.1818,0,0,0,4.17808-4.14247h.01594a4.1857,4.1857,0,0,0,4.17864,4.14223,4.1815,4.1815,0,0,0-4.17179,4.039h-.03753a4.178,4.178,0,0,0-4.16581-4.03872Zm-6.66711-4.14247a4.18165,4.18165,0,0,0,4.17752,4.14239,4.17807,4.17807,0,0,0-4.16637,4.0388,4.18083,4.18083,0,0,0-4.17633-4.12422h-.00605A4.182,4.182,0,0,0,123.8894,36.52685Zm-15.0232,4.14223A4.18626,4.18626,0,0,0,113.04954,36.48v-.085a4.18942,4.18942,0,0,0,4.18517,4.18892,4.18159,4.18159,0,0,0-4.17936,4.12414h-.02087A4.17583,4.17583,0,0,0,108.8662,40.66908Zm-6.66991,25.845A4.17149,4.17149,0,0,0,98.226,62.35325a4.17879,4.17879,0,0,0,3.97027-4.16724v.00717a4.171,4.171,0,0,0,3.9651,4.16063A4.17139,4.17139,0,0,0,102.19629,66.514Zm4.17848-14.992a4.178,4.178,0,0,0-4.17848,4.17848v.00725A4.18875,4.18875,0,0,0,98.007,51.52208h.00358a4.18268,4.18268,0,0,0,4.1792-4.1243h.01307a4.18584,4.18584,0,0,0,4.18278,4.1243Zm6.67477,4.10071v.07777a4.178,4.178,0,0,0-4.17848-4.17848h-.00725a4.18033,4.18033,0,0,0,4.17919-4.1243h.021a4.17744,4.17744,0,0,0,4.17131,4.03928h.00358A4.18875,4.18875,0,0,0,113.04954,55.62279Zm10.84878-.04326a4.1831,4.1831,0,0,0-4.18135-4.14247h.00725a4.1766,4.1766,0,0,0,4.16773-4.03928,4.18267,4.18267,0,0,0,4.17919,4.1243A4.17879,4.17879,0,0,0,123.89832,55.57953ZM138.928,51.52208a4.1689,4.1689,0,0,0-4.16629,4.05745h-.03243a4.1828,4.1828,0,0,0-4.18-4.05745,4.18269,4.18269,0,0,0,4.1792-4.1243h.02031a4.18585,4.18585,0,0,0,4.18279,4.1243Zm32.53033,0a4.18026,4.18026,0,0,0-4.18071,4.1639,4.18439,4.18439,0,0,0-4.1835-4.1639h-.00367a4.18412,4.18412,0,0,0,4.18574-4.18932,4.18958,4.18958,0,0,0,4.18939,4.18932Zm6.6711,6.6711A4.17393,4.17393,0,0,0,182.1,62.354a4.18138,4.18138,0,0,0-3.97059,4.16733V66.514a4.17106,4.17106,0,0,0-3.96343-4.16047A4.171,4.171,0,0,0,178.1294,58.19318ZM187.01822,97.795a4.18574,4.18574,0,0,0-4.18573-4.18573h-.84062a4.17218,4.17218,0,0,0,2.64226-3.87825v-.00725a4.188,4.188,0,0,0,4.18573,4.18573h.84882A4.179,4.179,0,0,0,187.01822,97.795Zm1.80164-14.73508a4.18569,4.18569,0,0,0-4.18573,4.18573V87.2384a4.178,4.178,0,0,0-4.17848-4.17848h-2.09088a4.16157,4.16157,0,0,0,2.24641-3.68287V76.88443A4.181,4.181,0,0,0,176.429,72.706h-.57346a4.162,4.162,0,0,0,2.27382-3.69929v-.00725a4.18875,4.18875,0,0,0,4.18932,4.18573h2.47819a4.18875,4.18875,0,0,0,4.18932-4.18573,4.18568,4.18568,0,0,0,4.18573,4.18573h.5725a4.169,4.169,0,0,0-2.2837,3.70654V79.3698a4.18954,4.18954,0,0,0,4.193,4.18573h2.08291a4.16485,4.16485,0,0,0-2.24936,3.69012,4.18417,4.18417,0,0,0-4.18932-4.18573ZM197.875,97.78775V97.795a4.18882,4.18882,0,0,0-4.1894-4.18573h-.84882a4.17905,4.17905,0,0,0,2.65046-3.8855,4.18648,4.18648,0,0,0,4.1894,4.18573h.84054A4.1721,4.1721,0,0,0,197.875,97.78775Z"/></svg>