<svg id="Layer_1" data-name="Layer 1" xmlns="http://www.w3.org/2000/svg" xmlns:xlink="http://www.w3.org/1999/xlink" viewBox="0 0 834.12094 214.10483"><defs><style>.cls-1{fill:#22292b;}.cls-2{fill-rule:evenodd;fill:url(#GradientFill_1);}</style><linearGradient id="GradientFill_1" x1="355.25554" y1="-178.36901" x2="-1.3985" y2="217.73543" gradientUnits="userSpaceOnUse"><stop offset="0" stop-color="#db282e"/><stop offset="1" stop-color="#eb892c"/></linearGradient></defs><title>iotium</title><path class="cls-1" d="M245.90263,157.37975V52.06335h-19.3359V38.03255h52.7026v14.0308H259.93394v105.3164h19.33539v14.0303h-52.7026v-14.0303Zm553.772-86.437a20.10025,20.10025,0,0,1,14.8965,6.1504,20.33249,20.33249,0,0,1,6.06349,14.8095v79.5074H806.60332V91.90265a6.37649,6.37649,0,0,0-2.0781-4.7632,6.78975,6.78975,0,0,0-4.8506-1.9921h-41.7471a6.802,6.802,0,0,0-6.7548,6.7553v79.5074h-14.377V91.90265a6.80393,6.80393,0,0,0-6.7549-6.7553H688.11994a6.80549,6.80549,0,0,0-6.75582,6.7553v79.5074h-14.376V91.77524a21.97562,21.97562,0,0,1,.5947-5.05129,20.34734,20.34734,0,0,1,5.4688-9.6308,20.09787,20.09787,0,0,1,14.8955-6.1504Zm-160.2256,0h14.2041v79.5073a20.17711,20.17711,0,0,1-6.1513,14.8105,20.38422,20.38422,0,0,1-14.9825,6.1495h-60.2802a20.99907,20.99907,0,0,1-20.961-20.96V70.94275h14.2051v79.5073a6.80076,6.80076,0,0,0,6.7559,6.7559h60.2802a6.79107,6.79107,0,0,0,4.85062-1.9913,6.37346,6.37346,0,0,0,2.07908-4.7646V70.94275Zm-119.5205,100.4673V70.94275h14.2041v100.4673Zm0-133.3789h14.2041V52.23524h-14.2041V38.03115Zm-132.16358.0014H512.48422v14.0308h-55.2578v119.3467h-14.0293V52.06335H387.76494V38.03255Zm-79.79541,32.9102a20.9989,20.9989,0,0,0-20.9604,20.9599v58.5474a20.99735,20.99735,0,0,0,20.9604,20.96h60.2798a20.38768,20.38768,0,0,0,14.9834-6.1495,20.18331,20.18331,0,0,0,6.148-14.8105V91.90265a20.99548,20.99548,0,0,0-21.1314-20.9599Zm60.2798,14.2046a6.80218,6.80218,0,0,1,6.7549,6.7553v58.5474a6.80077,6.80077,0,0,1-6.7549,6.7559h-60.2798a6.799,6.799,0,0,1-6.7563-6.7559V91.90265a6.80041,6.80041,0,0,1,6.7563-6.7553Z"/><path class="cls-2" d="M100.28013,19.07455,35.64784,49.51935a7.93809,7.93809,0,1,0-8.7344,12.8282l-4.6607,71.3798c-.2382-.0156-.478-.0244-.7192-.0244a11.03615,11.03615,0,1,0,9.3398,16.9151l62.0772,39.0761a7.93684,7.93684,0,1,0,15.28029.2735l63.8325-35.1485a6.10343,6.10343,0,1,0,6.01561-9.9892l1.85889-76.7764a6.1038,6.1038,0,1,0-5.1382-10.52831l-58.1025-37.37009a8.39946,8.39946,0,1,0-16.4956-2.2368,8.51962,8.51962,0,0,0,.0786,1.1562Zm-44.23629,96.3823L70.53744,99.414l10.5278,21.7461a5.7921,5.7921,0,0,0-2.1616,1.7998l-21.519-5.1807a6.09018,6.09018,0,0,0-1.3408-2.3223Zm15.9531-18.1318.1484.3086,7.3301-8.1133,39.30859,25.3574a5.90011,5.90011,0,0,0-.0889,1.02349,5.76789,5.76789,0,0,0,2.2271,4.55761l-8.2744,10.6269-23.379-5.6289a5.77757,5.77757,0,0,0-5.7036-4.8652c-.103,0-.2036.0029-.3051.0078l-11.2632-23.2744Zm8.5664-9.7461.4209.2715,5.3686-5.9429-.8432-.1767,12.89739,2.705a5.50356,5.50356,0,0,0,9.855,2.06739l10.2837,2.15771,4.6963,21.5957a5.78266,5.78266,0,0,0-3.6255,2.5137L80.56334,87.579Zm6.6147-7.7681.8985.1885,20.45409-22.64011a5.981,5.981,0,0,0,.9824.34131,6.16132,6.16132,0,0,0,2.7881.0513l5.4682,28.4775-8.5918-1.8032a5.50373,5.50373,0,0,0-10.7729-2.2603L87.178,79.81085Zm19.14359-24.1274L84.94714,79.34165l-16.5127-3.4648c.0112-.2051.0176-.4117.0176-.6192a10.99017,10.99017,0,0,0-2.2769-6.71241l11.8662-13.687.4004-.46089,26.66159-1.0967a6.17472,6.17472,0,0,0,.2862.8511,6.0971,6.0971,0,0,0,.9321,1.5317ZM83.22394,81.24885l-4.5967,5.08839.7774.501L67.69324,79.286a11.17435,11.17435,0,0,0,.396-1.2129l15.1347,3.1758Zm-5.292,7.2827-.8139-.5249-6.3179,6.9942-6.041-11.5064a11.06921,11.06921,0,0,0,1.9111-2.2246l11.2617,7.2617Zm-8.7187,8.2256-15.4785,17.1333a6.08352,6.08352,0,0,0-1.98-.3974l-4.5332-12.8262,7.5132-14.7022a11.05474,11.05474,0,0,0,8.207-1.1533l6.2715,11.9458Zm-23.1104,25.5806-15.1064,16.7207c-.0615-.1016-.1245-.2031-.189-.3027a11.011,11.011,0,0,0-1.3911-1.7383c-.1675-.1709-.3413-.3379-.52-.4981l16.9326-33.1279,3.6929,10.4453a6.10934,6.10934,0,0,0-3.6504,7.9834c.0698.1777.1474.3506.2314.5176Zm-13.9126,19.52149,15.7046-17.38279-.0693-.0528a6.10129,6.10129,0,0,0,6.8447.419l15.4546,23.18159-37.644-4.68649a11.74721,11.74721,0,0,0-.2906-1.47851Zm92.41359-89.83689-7.6025-1.438a6.1098,6.1098,0,0,0-4.3648-4.68611l-2.0683-19.81339q.40785-.099.7983-.2349l13.2373,26.1724Zm-7.6494,1.1806,9.1182,1.7251-.6499-1.2871,1.2236,2.4209,13.14061,25.9829a11.06253,11.06253,0,0,0-5.82131,7.583l-13.6972-2.874-5.898-29.8706a6.14084,6.14084,0,0,0,2.0679-2.293,6.06611,6.06611,0,0,0,.5161-1.3872Zm11.8716,2.2461,44.2456,8.3716a6.09826,6.09826,0,0,0,.4175,1.0239l-20.0127,20.2705a11.041,11.041,0,0,0-11.60549-3.8706l-12.54051-24.7959-.5044-.9995Zm44.0444,5.7056-45.5146-8.6113-14.0083-27.6968a8.45916,8.45916,0,0,0,2.3169-2.3848l57.6699,37.0913a6.03284,6.03284,0,0,0-.3321.9483,5.70558,5.70558,0,0,0-.1318.6533Zm-67.8638-10.4356-24.23379.9898,23.21279-26.7735a8.35058,8.35058,0,0,0,4.3746,1.378l2.0229,19.39889a6.10744,6.10744,0,0,0-5.3765,5.00681Zm-67.25239,5.4097,37.6294-1.5947-.3477.4013-10.3906,11.9844a11.03277,11.03277,0,0,0-14.8779.3838l-12.7627-8.7754a7.93232,7.93232,0,0,0,.7495-2.3994Zm39.2524-3.4668.7081-.8169-40.0118,1.70119a7.80535,7.80535,0,0,0-.6245-1.93949l63.92139-30.1089a8.43571,8.43571,0,0,0,1.30811,1.982L77.00664,52.662Zm69.80379,89.1719,23.7934,9.9717a6.33963,6.33963,0,0,0,.2105.8486l-63.5977,35.0186a8.01516,8.01516,0,0,0-1.1836-1.4288l34.2622-42.2265a6.109,6.109,0,0,0,6.4268-2.0713l.0884-.1123Zm23.8969,7.3916-22.8423-9.5723a6.11011,6.11011,0,0,0-1.5444-5.7715l.4375-.9629,20.92481,13.4942,3.25729,2.1006a6.83526,6.83526,0,0,0-.2329.7119Zm-47.7607-27.7529a5.77579,5.77579,0,0,0,4.7988-.8155l17.12551,11.0459-.39891.8789a6.10481,6.10481,0,0,0-8.45609,4.1299l-20.99751-5.0556,7.9282-10.1836Zm6.3764-2.4414a5.78093,5.78093,0,0,0,.2315-5.8682c3.33841-3.9365,6.8335-7.5908,10.4819-11.2959a11.0494,11.0494,0,0,0,9.7139-.1226l4.5918,9.0786-8.543,18.834-16.4761-10.6259Zm-.9296-7.3663a5.74723,5.74723,0,0,0-2.9829-1.4619l-4.3653-21.0176,12.688,2.6631-.001.0459a11.02134,11.02134,0,0,0,4.6201,8.98l-9.9589,10.7905ZM77.95,125.01545a5.7776,5.7776,0,0,0,8.1147,6.5596l5.8116,12.1074a8.82526,8.82526,0,0,0-3.1348,6.6592l-15.7056-1.9551-16.6816-25.0215a6.06564,6.06564,0,0,0,1.2817-3.2422l20.314,4.8926Zm9.9243,5.1963a5.75833,5.75833,0,0,0,1.3062-2.4922l21.96869,5.2901-8.1362,10.4502a8.84862,8.84862,0,0,0-9.25879-.9961l-5.8799-12.252ZM48.32214,69.00524a11.03814,11.03814,0,0,0,4.3076,16.19921l-6.4282,12.5776-12.6372-35.7505a7.95486,7.95486,0,0,0,2.1801-1.6738l12.5777,8.64749ZM89.011,152.61315a8.84953,8.84953,0,0,0,7.7549,6.626l1.95559,25.0195a7.86673,7.86673,0,0,0-1.4429.4922L74.66244,150.827l14.3486,1.7862Zm9.97759,6.5517a8.84551,8.84551,0,0,0,7.4116-8.0957l30.9189-8.9531a6.09344,6.09344,0,0,0,.94.8858l-34.0347,41.9453a7.88573,7.88573,0,0,0-3.291-.8916l-1.9448-24.8907Zm7.2817-10.3691a8.796,8.796,0,0,0-1.6787-3.7471l8.9292-11.4687,22.3818,5.3896a6.13445,6.13445,0,0,0,.2774,1.1641l-29.9097,8.6621Zm45.3584-48.2568a11.0405,11.0405,0,0,0,3.0586-13.4878l19.30861-19.5581-18.47751,40.7353-3.8897-7.6894ZM29.38024,62.911q.25635.01694.5171.0171a7.99927,7.99927,0,0,0,1.5732-.1557l13.3384,37.73289-17.73,34.69091a10.964,10.964,0,0,0-2.3511-1.0225l4.6524-71.2627Zm2.584,85.4405a11.00453,11.00453,0,0,0,.5737-2.7686l39.2134,4.8818,23.65179,35.47759a7.977,7.977,0,0,0-1.35449,1.49121l-62.0844-39.082Zm143.61759-3.6104a6.0696,6.0696,0,0,0-1.3881.4131l-17.3897-34.3828,19.5835-43.1743a6.06465,6.06465,0,0,0,1.0537.3647l-1.8594,76.7793Zm-3.2446,1.6651c-.0737.0732-.1465.1484-.21729.2255l-24.43361-15.7578,7.9409-17.5088Z"/></svg>