<?xml version="1.0" encoding="utf-8"?>
<!-- Generator: Adobe Illustrator 24.0.1, SVG Export Plug-In . SVG Version: 6.00 Build 0)  -->
<svg version="1.1" xmlns="http://www.w3.org/2000/svg" xmlns:xlink="http://www.w3.org/1999/xlink" x="0px" y="0px"
	 viewBox="0 0 400 245" style="enable-background:new 0 0 400 245;" xml:space="preserve">
<style type="text/css">
	.st0{fill:#FFFFFF;}
	.st1{fill:#00B6F1;}
	.st2{fill:#414042;}
</style>
<g>
	<g>
		<rect x="1.4" y="59.7" class="st0" width="125.5" height="125.5"/>
		<path class="st1" d="M1.4,59.7v125.5h125.5V59.7H1.4z M126.1,184.5H95.5v-30.6h30.6V184.5z M126.1,122.5
			c-34,0.4-61.5,27.9-61.9,61.9H32.8c0.4-51.4,42-92.9,93.3-93.3V122.5z"/>
	</g>
	<g>
		<path class="st2" d="M288.4,71.2v53.9h10.5V71.2H288.4 M277.5,87.7c0-9-6.5-16.5-17.5-16.5h-21.1v53.9h10.5v-21.5h7.6l10.5,21.5
			h12.2l-12-23.2C272.9,99.9,277.5,95.2,277.5,87.7z M259.3,94.8h-9.9V80.6h9.9c4.6,0,7.6,3,7.6,7.1C267,91.8,264,94.8,259.3,94.8z
			 M172.6,125.1h10.5V71.2h-10.5V125.1z M191.7,80.6h14.1v44.5h10.5V80.6h14.1v-9.4h-38.7V80.6z"/>
		<rect x="172.6" y="140.2" class="st2" width="2.6" height="17"/>
		<path class="st2" d="M186.7,157.2v-7.4c0-1.9-1.1-2.7-2.4-2.7c-1.4,0-2.5,0.8-2.5,2.7v7.4h-2.4v-12.1h2.4v1.2
			c0.8-0.9,2-1.4,3.2-1.4c1.2,0,2.3,0.4,3,1.1c0.9,0.9,1.2,2,1.2,3.4v7.7H186.7"/>
		<path class="st2" d="M197.3,147.1c-2.2,0-2.5,1.9-2.5,4c0,2.1,0.3,4,2.5,4c2.2,0,2.5-1.9,2.5-4C199.8,149,199.5,147.1,197.3,147.1
			 M199.8,157.2v-1.3c-0.9,1.1-1.9,1.4-3.2,1.4c-1.2,0-2.3-0.4-3-1.1c-1.2-1.2-1.4-3.3-1.4-5.1c0-1.8,0.1-3.9,1.4-5.1
			c0.7-0.7,1.7-1.1,2.9-1.1c1.3,0,2.3,0.3,3.2,1.4v-6.1h2.4v17H199.8z"/>
		<path class="st2" d="M213.4,157.2V156c-0.8,0.9-2,1.4-3.2,1.4c-1.2,0-2.3-0.4-3-1.1c-0.9-0.9-1.2-2.1-1.2-3.4v-7.7h2.4v7.4
			c0,1.9,1.1,2.7,2.4,2.7c1.4,0,2.5-0.8,2.5-2.7v-7.4h2.4v12.1H213.4"/>
		<path class="st2" d="M223.5,157.3c-2,0-3.6-0.3-5.1-1.7l1.6-1.6c1,1,2.3,1.3,3.5,1.3c1.5,0,2.6-0.5,2.6-1.7c0-0.8-0.5-1.3-1.6-1.4
			l-1.9-0.2c-2.3-0.2-3.6-1.2-3.6-3.3c0-2.4,2-3.7,4.6-3.7c1.8,0,3.4,0.4,4.5,1.4l-1.5,1.6c-0.8-0.6-1.8-0.9-3-0.9
			c-1.5,0-2.2,0.6-2.2,1.6c0,0.7,0.4,1.3,1.7,1.4l1.9,0.2c2.3,0.2,3.6,1.3,3.6,3.4C228.6,156,226.4,157.3,223.5,157.3"/>
		<path class="st2" d="M234.9,157.2c-2.3,0-3.3-1.6-3.3-3.4v-6.7h-1.4v-1.9h1.4v-3.7h2.4v3.7h2.3v1.9H234v6.5c0,0.9,0.4,1.4,1.3,1.4
			h1v2.1H234.9"/>
		<path class="st2" d="M246.1,147.9c-0.6-0.6-1-0.8-1.8-0.8c-1.3,0-2.4,1-2.4,2.7v7.3h-2.4v-12.1h2.4v1.3c0.6-0.9,1.9-1.5,3.2-1.5
			c1.2,0,2,0.3,2.9,1.1L246.1,147.9"/>
		<path class="st2" d="M249.9,157.2v-12.1h2.4v12.1H249.9 M252.4,142.7h-2.6v-2.6h2.6V142.7z"/>
		<path class="st2" d="M262.7,151.9h-2.8c-1.4,0-2.2,0.6-2.2,1.7c0,1.1,0.7,1.7,2.2,1.7c0.9,0,1.6-0.1,2.3-0.7
			c0.4-0.4,0.5-0.9,0.5-1.8V151.9 M262.7,157.2v-1.1c-0.9,0.9-1.7,1.2-3.2,1.2c-1.5,0-2.5-0.4-3.2-1.1c-0.6-0.6-1-1.6-1-2.6
			c0-2,1.4-3.5,4.2-3.5h3.2v-0.9c0-1.5-0.8-2.3-2.6-2.3c-1.3,0-2,0.3-2.6,1.2l-1.6-1.5c1.1-1.3,2.3-1.7,4.3-1.7c3.3,0,5,1.4,5,4.1
			v8.1H262.7z"/>
		<path class="st2" d="M272.1,157.2c-2.3,0-3.3-1.5-3.3-3.3v-13.6h2.4v13.5c0,0.9,0.3,1.4,1.3,1.4h1.1v2.1H272.1"/>
		<polyline class="st2" points="287.1,142.5 287.1,157.2 284.5,157.2 284.5,142.5 279.8,142.5 279.8,140.2 291.7,140.2 291.7,142.5 
			287.1,142.5 		"/>
		<path class="st2" d="M299.2,148.5c-0.4-0.9-1.2-1.5-2.4-1.5c-1.1,0-2,0.6-2.4,1.5c-0.2,0.5-0.3,0.9-0.3,1.6h5.4
			C299.5,149.4,299.5,149.1,299.2,148.5 M294.1,151.9c0,2.1,1.1,3.4,3.1,3.4c1.4,0,2.1-0.4,2.9-1.2l1.6,1.5
			c-1.2,1.2-2.4,1.9-4.5,1.9c-3,0-5.4-1.6-5.4-6.2c0-3.9,2-6.2,5.1-6.2c3.2,0,5.1,2.4,5.1,5.8v1.1H294.1z"/>
		<path class="st2" d="M310,157.3c-2.7,0-5.4-1.7-5.4-6.2c0-4.5,2.7-6.2,5.4-6.2c1.7,0,2.8,0.5,4,1.7l-1.7,1.6
			c-0.8-0.8-1.4-1.1-2.3-1.1c-0.9,0-1.7,0.4-2.2,1.1c-0.5,0.7-0.7,1.5-0.7,2.9c0,1.4,0.2,2.3,0.7,3c0.5,0.7,1.3,1.1,2.2,1.1
			c1,0,1.6-0.3,2.3-1.1l1.7,1.6C312.8,156.8,311.6,157.3,310,157.3"/>
		<path class="st2" d="M324.1,157.2v-7.4c0-1.8-1.1-2.6-2.4-2.6c-1.4,0-2.5,0.8-2.5,2.6v7.4h-2.4v-17h2.4v6.1
			c0.8-0.9,1.9-1.4,3.1-1.4c2.7,0,4.2,1.8,4.2,4.4v7.8H324.1"/>
		<path class="st2" d="M337.6,157.2v-7.4c0-1.9-1.1-2.7-2.4-2.7c-1.4,0-2.5,0.8-2.5,2.7v7.4h-2.4v-12.1h2.4v1.2
			c0.8-0.9,2-1.4,3.2-1.4c1.2,0,2.3,0.4,3,1.1c0.9,0.9,1.2,2,1.2,3.4v7.7H337.6"/>
		<path class="st2" d="M350.1,147.8c-0.4-0.4-1.1-0.7-1.8-0.7c-0.7,0-1.3,0.2-1.8,0.7c-0.7,0.7-0.8,2-0.8,3.3c0,1.3,0.1,2.6,0.8,3.3
			c0.5,0.5,1,0.7,1.8,0.7c0.7,0,1.3-0.3,1.8-0.7c0.7-0.7,0.8-2,0.8-3.3C350.9,149.8,350.8,148.6,350.1,147.8 M351.9,155.9
			c-0.8,0.8-2,1.4-3.6,1.4c-1.6,0-2.8-0.6-3.6-1.4c-1.1-1.2-1.4-2.7-1.4-4.8c0-2,0.3-3.6,1.4-4.7c0.8-0.8,2-1.4,3.6-1.4
			c1.6,0,2.8,0.6,3.6,1.4c1.1,1.2,1.4,2.7,1.4,4.7C353.3,153.2,353,154.7,351.9,155.9z"/>
		<path class="st2" d="M359.9,157.2c-2.3,0-3.3-1.5-3.3-3.3v-13.6h2.4v13.5c0,0.9,0.3,1.4,1.3,1.4h1.1v2.1H359.9"/>
		<path class="st2" d="M369.8,147.8c-0.5-0.4-1.1-0.7-1.8-0.7c-0.7,0-1.3,0.2-1.8,0.7c-0.7,0.7-0.8,2-0.8,3.3c0,1.3,0.1,2.6,0.8,3.3
			c0.5,0.5,1,0.7,1.8,0.7c0.7,0,1.3-0.3,1.8-0.7c0.7-0.7,0.8-2,0.8-3.3C370.6,149.8,370.6,148.6,369.8,147.8 M371.6,155.9
			c-0.8,0.8-2,1.4-3.6,1.4c-1.6,0-2.8-0.6-3.6-1.4c-1.1-1.2-1.4-2.7-1.4-4.8c0-2,0.3-3.6,1.4-4.7c0.8-0.8,2-1.4,3.6-1.4
			c1.6,0,2.8,0.6,3.6,1.4c1.1,1.2,1.4,2.7,1.4,4.7C373.1,153.2,372.8,154.7,371.6,155.9z"/>
		<path class="st2" d="M380.7,147.1c-2.2,0-2.5,1.9-2.5,3.8c0,1.9,0.3,3.8,2.5,3.8c2.2,0,2.5-1.9,2.5-3.8
			C383.2,149,382.9,147.1,380.7,147.1 M380.4,162.2c-1.8,0-3-0.4-4.3-1.6l1.6-1.5c0.8,0.7,1.4,1.1,2.6,1.1c2.1,0,2.8-1.5,2.8-3.1
			v-1.6c-0.9,1.1-1.9,1.4-3.1,1.4c-1.2,0-2.2-0.4-2.9-1.1c-1.2-1.2-1.4-2.9-1.4-4.9c0-2.1,0.2-3.7,1.4-4.9c0.7-0.7,1.7-1,2.9-1
			c1.3,0,2.3,0.3,3.2,1.4v-1.3h2.4v12C385.6,160.1,383.6,162.2,380.4,162.2z"/>
		<path class="st2" d="M393.3,159.6c-0.2,0.7-0.5,1.1-0.9,1.5c-0.7,0.7-1.6,0.9-2.5,0.9h-1v-2.2h0.6c1,0,1.4-0.3,1.7-1.3l0.7-1.9
			l-4.2-11.5h2.6l2.9,8.5l2.8-8.5h2.6L393.3,159.6"/>
		<path class="st2" d="M179,168.9h-3.8v5.3h3.8c1.7,0,2.9-1,2.9-2.6C181.9,169.9,180.7,168.9,179,168.9 M182,183.6l-3.6-7.1h-3.2
			v7.1h-2.6v-17h6.6c3.2,0,5.3,2.1,5.3,5c0,2.4-1.5,4-3.4,4.5l3.9,7.5H182z"/>
		<path class="st2" d="M194.8,174.9c-0.4-0.9-1.2-1.5-2.4-1.5c-1.1,0-2,0.6-2.4,1.5c-0.2,0.5-0.3,0.9-0.3,1.6h5.4
			C195.1,175.8,195.1,175.5,194.8,174.9 M189.7,178.3c0,2.1,1.1,3.4,3.1,3.4c1.4,0,2.1-0.4,2.9-1.2l1.6,1.4
			c-1.2,1.2-2.4,1.9-4.5,1.9c-3,0-5.4-1.6-5.4-6.2c0-3.9,2-6.2,5.1-6.2c3.3,0,5.1,2.4,5.1,5.8v1.1H189.7z"/>
		<path class="st2" d="M204.7,183.8c-2,0-3.6-0.3-5.1-1.7l1.6-1.6c1,1,2.3,1.3,3.5,1.3c1.5,0,2.7-0.5,2.7-1.7c0-0.8-0.5-1.3-1.6-1.4
			l-1.9-0.2c-2.3-0.2-3.6-1.2-3.6-3.3c0-2.4,2-3.7,4.6-3.7c1.8,0,3.4,0.4,4.5,1.4l-1.5,1.6c-0.8-0.6-1.8-0.9-3-0.9
			c-1.5,0-2.2,0.6-2.2,1.6c0,0.7,0.4,1.3,1.7,1.4l1.9,0.2c2.3,0.2,3.6,1.3,3.6,3.4C209.7,182.4,207.6,183.8,204.7,183.8"/>
		<path class="st2" d="M219.6,174.9c-0.4-0.9-1.2-1.5-2.4-1.5c-1.1,0-2,0.6-2.4,1.5c-0.2,0.5-0.3,0.9-0.3,1.6h5.4
			C219.9,175.8,219.8,175.5,219.6,174.9 M214.5,178.3c0,2.1,1.1,3.4,3.1,3.4c1.4,0,2.1-0.4,2.9-1.2l1.5,1.4
			c-1.2,1.2-2.4,1.9-4.5,1.9c-3,0-5.4-1.6-5.4-6.2c0-3.9,2-6.2,5.1-6.2c3.2,0,5.1,2.4,5.1,5.8v1.1H214.5z"/>
		<path class="st2" d="M232,178.3h-2.8c-1.4,0-2.2,0.6-2.2,1.7c0,1.1,0.7,1.7,2.2,1.7c0.9,0,1.6-0.1,2.3-0.7
			c0.4-0.4,0.5-0.9,0.5-1.8V178.3 M232.1,183.6v-1.1c-0.9,0.9-1.7,1.2-3.2,1.2c-1.5,0-2.5-0.3-3.2-1.1c-0.6-0.6-1-1.6-1-2.6
			c0-2,1.4-3.5,4.2-3.5h3.2v-0.9c0-1.5-0.8-2.3-2.7-2.3c-1.3,0-2,0.3-2.6,1.2l-1.6-1.5c1.1-1.3,2.3-1.7,4.3-1.7c3.3,0,5,1.4,5,4.1
			v8.1H232.1z"/>
		<path class="st2" d="M244.8,174.4c-0.5-0.5-1-0.8-1.8-0.8c-1.3,0-2.4,1-2.4,2.7v7.3h-2.4v-12.1h2.4v1.3c0.6-0.9,1.9-1.5,3.2-1.5
			c1.2,0,2,0.3,2.9,1.1L244.8,174.4"/>
		<path class="st2" d="M252.7,183.8c-2.7,0-5.4-1.7-5.4-6.2c0-4.5,2.7-6.2,5.4-6.2c1.7,0,2.8,0.5,4,1.7l-1.7,1.6
			c-0.8-0.8-1.4-1.1-2.3-1.1c-0.9,0-1.7,0.4-2.2,1.1c-0.5,0.7-0.7,1.5-0.7,2.9c0,1.4,0.2,2.3,0.7,3c0.5,0.7,1.3,1.1,2.2,1.1
			c0.9,0,1.5-0.3,2.3-1.2l1.7,1.6C255.5,183.2,254.4,183.8,252.7,183.8"/>
		<path class="st2" d="M266.8,183.6v-7.4c0-1.8-1.1-2.6-2.4-2.6c-1.4,0-2.5,0.8-2.5,2.6v7.4h-2.4v-17h2.4v6.1
			c0.8-0.9,1.9-1.4,3.1-1.4c2.7,0,4.2,1.8,4.2,4.4v7.8H266.8"/>
		<rect x="278.1" y="166.6" class="st2" width="2.6" height="17"/>
		<path class="st2" d="M292.1,183.6v-7.3c0-1.9-1.1-2.7-2.4-2.7c-1.4,0-2.5,0.8-2.5,2.7v7.3h-2.4v-12.1h2.4v1.2
			c0.8-0.9,2-1.4,3.2-1.4c1.2,0,2.3,0.4,3,1.1c0.9,0.9,1.2,2.1,1.2,3.4v7.7H292.1"/>
		<path class="st2" d="M302.2,183.8c-2,0-3.7-0.3-5.1-1.7l1.6-1.6c1,1,2.3,1.3,3.5,1.3c1.5,0,2.6-0.5,2.6-1.7c0-0.8-0.5-1.3-1.6-1.4
			l-1.9-0.2c-2.3-0.2-3.6-1.2-3.6-3.3c0-2.4,2-3.7,4.6-3.7c1.8,0,3.4,0.4,4.5,1.4l-1.5,1.6c-0.8-0.6-1.8-0.9-3-0.9
			c-1.5,0-2.2,0.6-2.2,1.6c0,0.7,0.4,1.3,1.7,1.4l1.9,0.2c2.3,0.2,3.6,1.3,3.6,3.4C307.3,182.4,305.1,183.8,302.2,183.8"/>
		<path class="st2" d="M313.6,183.6c-2.3,0-3.3-1.6-3.3-3.3v-6.7h-1.4v-1.9h1.4v-3.7h2.4v3.7h2.3v1.9h-2.3v6.5
			c0,0.9,0.4,1.4,1.3,1.4h1v2H313.6"/>
		<path class="st2" d="M318.1,183.6v-12.1h2.4v12.1H318.1 M320.7,169.1h-2.6v-2.6h2.6V169.1z"/>
		<path class="st2" d="M328,183.6c-2.3,0-3.3-1.6-3.3-3.3v-6.7h-1.4v-1.9h1.4v-3.7h2.4v3.7h2.3v1.9h-2.3v6.5c0,0.9,0.4,1.4,1.3,1.4
			h1v2H328"/>
		<path class="st2" d="M339.9,183.6v-1.2c-0.8,0.9-2,1.4-3.2,1.4c-1.2,0-2.3-0.4-3-1.1c-0.9-0.9-1.2-2-1.2-3.4v-7.7h2.4v7.4
			c0,1.9,1.1,2.7,2.4,2.7c1.4,0,2.5-0.8,2.5-2.7v-7.4h2.4v12.1H339.9"/>
		<path class="st2" d="M349.7,183.6c-2.3,0-3.3-1.6-3.3-3.3v-6.7h-1.4v-1.9h1.4v-3.7h2.4v3.7h2.3v1.9h-2.3v6.5
			c0,0.9,0.4,1.4,1.3,1.4h1v2H349.7"/>
		<path class="st2" d="M361.1,174.9c-0.4-0.9-1.2-1.5-2.4-1.5c-1.1,0-2,0.6-2.4,1.5c-0.2,0.5-0.3,0.9-0.3,1.6h5.4
			C361.4,175.8,361.4,175.5,361.1,174.9 M356,178.3c0,2.1,1.1,3.4,3.1,3.4c1.4,0,2.1-0.4,2.9-1.2l1.6,1.4c-1.2,1.2-2.4,1.9-4.5,1.9
			c-3,0-5.4-1.6-5.4-6.2c0-3.9,2-6.2,5.1-6.2c3.2,0,5.1,2.4,5.1,5.8v1.1H356z"/>
	</g>
</g>
</svg>
