<svg xmlns="http://www.w3.org/2000/svg" viewBox="0 0 471.67969 135.33333"><title>juniper</title><g id="Layer_1" data-name="Layer 1"><path d="M231.333,105.1189h2.83977l14.63048,20.17434V105.1189h2.50919v24.46862h-2.37853l-15.09043-20.77138v20.77138H231.333Z"/><path d="M257.554,105.1189H273.732v2.4765H260.16131v8.08832h13.24136v2.44637H260.16131v9.079h13.70388v2.3784H257.554Z"/><path d="M286.84124,107.5954H277.663v-2.4765h20.96757v2.4765H289.451v21.99212h-2.60973Z"/><path d="M301.79971,105.1189h2.67513l6.43775,20.23973,6.571-20.23973H319.73l6.53713,20.23973,6.47161-20.23973h2.51048L327.38969,129.751h-2.24388l-6.605-20.37168-6.571,20.37168H309.692Z"/><path d="M337.59381,117.33558c0-8.71678,4.45648-12.61394,12.28207-12.61394,7.85957,0,12.35,3.89716,12.35,12.61394,0,8.75089-4.49046,12.64675-12.35,12.64675C342.05029,129.98233,337.59381,126.08647,337.59381,117.33558Zm22.02353.03269c0-6.60484-3.06994-10.16884-9.74146-10.16884-6.63755,0-9.67479,3.564-9.67479,10.16884,0,6.63767,3.03724,10.20541,9.67479,10.20541C356.5474,127.57368,359.61734,124.00594,359.61734,117.36827Z"/><path d="M377.41572,119.61357h-7.33037v9.974h-2.54317V105.1189h10.5661c5.6798,0,8.25554,2.27787,8.25554,7.1329,0,4.22527-2.01384,6.70177-6.27427,7.26239l5.90971,10.07333h-2.77193Zm.72655-2.376c3.46719,0,5.61311-1.05725,5.61311-4.92042,0-3.79777-2.08065-4.78706-5.71236-4.78706h-7.95767v9.70748Z"/><path d="M399.34116,116.609l-4.88773,5.34909v7.6294h-2.54189V105.1189h2.54189v13.50526L406.836,105.1189h3.00454l-8.78217,9.60952,9.9715,14.8591h-2.93915Z"/><path d="M413.20968,127.111l1.32-1.98127a15.8086,15.8086,0,0,0,8.74961,2.47662c5.05366,0,7.29754-1.42065,7.29754-4.78963,0-3.46719-2.90517-3.96-7.29754-4.75191-5.28241-.92788-8.84886-1.82036-8.84886-6.76962,0-4.72437,3.03712-6.57357,8.84886-6.57357a14.86127,14.86127,0,0,1,8.51944,2.17991l-1.38655,2.11451a13.34977,13.34977,0,0,0-7.13289-1.91588c-4.38993,0-6.27311,1.22189-6.27311,4.12706,0,3.10508,2.54318,3.69852,6.90169,4.48918,5.349.96045,9.21213,1.75252,9.21213,7.00223,0,4.855-3.10379,7.19829-9.77416,7.19829A17.70231,17.70231,0,0,1,413.20968,127.111Z"/><path d="M458.70122,3.99222c-34.39867,0-35.85949,15.41174-35.85949,37.15425V94.52384h8.111V41.14647c0-16.3866-.64867-29.52922,27.74851-29.52922a70.2689,70.2689,0,0,1,8.17006.44386V4.33284C464.36582,4.11349,461.66045,3.99222,458.70122,3.99222Z"/><path d="M57.50193,59.80463V5.77487h8.27562V59.96438c0,15.5769-.16091,28.71772,28.39332,28.71772,28.39332,0,27.74594-13.14082,27.74594-29.52858V5.77487h8.111V59.15352c0,21.74316-1.462,37.15552-35.85691,37.15552C59.61129,96.309,57.50193,80.89668,57.50193,59.80463Z"/><path d="M216.279,40.49523V94.52384h-8.27447V40.335c0-15.57508.16092-28.7177-28.39331-28.7177-28.39461,0-27.74349,13.14262-27.74349,29.52922V94.52384h-8.11343V41.14647c0-21.74251,1.462-37.15425,35.85692-37.15425C214.17082,3.99222,216.279,19.404,216.279,40.49523Z"/><path d="M231.3343,5.93951h7.94119V94.52384H231.3343Z"/><path d="M254.14849,5.93951H295.621c20.56529,0,29.89057,10.22163,29.89057,28.39267,0,18.2918-9.20711,29.41234-30.005,29.41234H262.09225V94.52384h-7.94376Zm41.59322,49.83924c14.32861,0,21.449-6.982,21.449-21.08947,0-14.10372-7.68359-20.79906-21.80482-20.79906H262.09225V55.77875Z"/><path d="M334.75391,49.9074c0-26.12,7.46733-46.24073,40.89178-46.24073,34.557,0,35.68969,23.19947,35.53123,47.69962H342.70771c.1622,21.58032,5.51374,37.6438,33.58407,37.6438,14.92578,0,21.742-4.05792,29.04327-9.412l4.5408,6.00278c-8.111,6.00407-17.68149,10.70821-33.58407,10.70821C341.247,96.309,334.75391,76.02659,334.75391,49.9074Zm8.116-6.00536h60.3545c-.80958-17.68392-1.94729-32.77192-27.74478-32.77192C350.65778,11.13012,343.84426,24.597,342.86991,43.902Z"/><path d="M7.68342,113.74776c34.39738,0,35.85807-15.41225,35.85807-37.15541V5.77487H35.42678V76.59235c0,16.384.64995,29.531-27.74336,29.531-1.07232,0-2.09314-.02638-3.085-.06539v7.64833C5.59658,113.7327,6.6223,113.74776,7.68342,113.74776Z"/><path d="M448.71337,94.90861a5.6005,5.6005,0,1,1,5.59676-5.59921,5.60788,5.60788,0,0,1-5.59676,5.59921Zm0-10.47561a4.87575,4.87575,0,1,0,4.87266,4.8764,4.88222,4.88222,0,0,0-4.87266-4.8764Z"/><path d="M449.07419,90.05487h-1.7977v2.47392h-.85618V86.09618h2.86384c1.63049,0,2.25779.66875,2.25779,1.93841a1.76288,1.76288,0,0,1-1.5539,1.96119l1.4558,2.533h-.93277Zm.19979-.80456c.87884,0,1.38165-.254,1.38165-1.19306,0-.929-.489-1.144-1.408-1.144h-1.9711v2.33708Z"/></g></svg>