<?xml version="1.0" encoding="UTF-8" standalone="no"?>
<svg
   xmlns:dc="http://purl.org/dc/elements/1.1/"
   xmlns:cc="http://creativecommons.org/ns#"
   xmlns:rdf="http://www.w3.org/1999/02/22-rdf-syntax-ns#"
   xmlns:svg="http://www.w3.org/2000/svg"
   xmlns="http://www.w3.org/2000/svg"
   viewBox="0 0 2666.6667 692.06934"
   height="692.06934"
   width="2666.6667"
   xml:space="preserve"
   id="svg2"
   version="1.1"><metadata
     id="metadata8"><rdf:RDF><cc:Work
         rdf:about=""><dc:format>image/svg+xml</dc:format><dc:type
           rdf:resource="http://purl.org/dc/dcmitype/StillImage" /></cc:Work></rdf:RDF></metadata><defs
     id="defs6"><clipPath
       id="clipPath22"
       clipPathUnits="userSpaceOnUse"><path
         id="path20"
         d="M 0,519.052 H 2000 V 0 H 0 Z" /></clipPath></defs><g
     transform="matrix(1.3333333,0,0,-1.3333333,0,692.06933)"
     id="g10"><g
       transform="translate(274.6497,392.0318)"
       id="g12"><path
         id="path14"
         style="fill:#4d4d4d;fill-opacity:1;fill-rule:nonzero;stroke:none"
         d="m 0,0 v -325.636 h 63.687 v 97.013 l 73.007,-97.013 h 89.105 l -100.967,131.61 88.964,95.742 h -82.327 l -66.511,-74.56 0,172.844 z" /></g><g
       id="g16"><g
         clip-path="url(#clipPath22)"
         id="g18"><g
           transform="translate(615.254,117.7973)"
           id="g24"><path
             id="path26"
             style="fill:#4d4d4d;fill-opacity:1;fill-rule:nonzero;stroke:none"
             d="m 0,0 c -30.361,0 -54.79,27.395 -54.79,61.286 0,33.891 24.429,61.286 54.79,61.286 30.361,0 50.272,-26.406 50.272,-60.156 C 50.272,28.666 30.361,0 0,0 m 52.531,174.539 v -25.277 c 0,0 -42.505,57.755 -112.264,21.181 0,0 -72.301,-41.234 -55.214,-139.517 0,0 26.83,-94.472 118.477,-84.587 0,0 19.77,-0.423 43.635,20.759 v -18.641 h 67.782 v 225.94 H 52.531 Z" /></g><path
           id="path28"
           style="fill:#4d4d4d;fill-opacity:1;fill-rule:nonzero;stroke:none"
           d="m 772.141,392.032 h 59.874 V 66.537 h -59.874 z" /><g
           transform="translate(992.4324,114.6906)"
           id="g30"><path
             id="path32"
             style="fill:#4d4d4d;fill-opacity:1;fill-rule:nonzero;stroke:none"
             d="m 0,0 c -31.632,0 -57.05,29.09 -57.05,64.675 0,35.868 25.701,64.958 57.05,64.958 31.632,0 57.332,-29.09 57.332,-64.958 C 57.332,29.09 31.632,0 0,0 m 0,186.965 c -66.652,0 -120.737,-52.531 -120.737,-117.63 0,-64.957 54.085,-117.63 120.737,-117.63 66.652,0 120.737,52.531 120.737,117.63 0,64.817 -54.085,117.63 -120.737,117.63" /></g><g
           transform="translate(1263.5602,114.6906)"
           id="g34"><path
             id="path36"
             style="fill:#4d4d4d;fill-opacity:1;fill-rule:nonzero;stroke:none"
             d="m 0,0 c -31.632,0 -57.05,29.09 -57.05,64.675 0,35.868 25.701,64.958 57.05,64.958 31.632,0 57.332,-29.09 57.332,-64.958 C 57.05,29.09 31.632,0 0,0 m 0,186.965 c -66.652,0 -120.737,-52.531 -120.737,-117.63 0,-64.957 54.085,-117.63 120.737,-117.63 66.652,0 120.737,52.531 120.737,117.63 0,64.817 -54.085,117.63 -120.737,117.63" /></g><g
           transform="translate(1478.6267,66.396)"
           id="g38"><path
             id="path40"
             style="fill:#4d4d4d;fill-opacity:1;fill-rule:nonzero;stroke:none"
             d="M 0,0 H -60.863 V 227.07 H 0 v -21.888 c -2.401,15.251 90.235,66.369 116.641,-6.073 -0.423,37.704 140.507,65.805 140.507,-23.864 V -0.141 h -59.874 v 150.532 c -0.989,40.952 -65.664,41.799 -65.664,0 V 0 H 65.946 v 153.498 c 1.412,32.761 -65.099,39.116 -65.664,0 L 0.282,0 Z" /></g><g
           transform="translate(234.1448,292.6182)"
           id="g42"><path
             id="path44"
             style="fill:#69973f;fill-opacity:1;fill-rule:nonzero;stroke:none"
             d="m 0,0 h -94.754 l -92.635,-113.535 92.635,-113.535 H 0 l -94.754,113.535 z" /></g><g
           transform="translate(1379.0719,298.408)"
           id="g46"><path
             id="path48"
             style="fill:#69973f;fill-opacity:1;fill-rule:nonzero;stroke:none"
             d="M 0,0 V 94.612 L -113.535,187.248 -227.069,94.612 V 0 l 113.534,94.612 z" /></g><g
           transform="translate(1775.6655,65.5487)"
           id="g50"><path
             id="path52"
             style="fill:#69973f;fill-opacity:1;fill-rule:nonzero;stroke:none"
             d="M 0,0 H 94.753 L 187.389,113.535 94.753,227.07 H 0 L 94.753,113.535 Z" /></g><g
           transform="translate(1738.6589,340.6013)"
           id="g54"><path
             id="path56"
             style="fill:#4c4d4d;fill-opacity:1;fill-rule:nonzero;stroke:none"
             d="m 0,0 h -10.063 v -27.753 h -5.564 V 0 h -9.976 V 4.521 H 0 Z" /></g><g
           transform="translate(1750.1628,345.1227)"
           id="g58"><path
             id="path60"
             style="fill:#4c4d4d;fill-opacity:1;fill-rule:nonzero;stroke:none"
             d="M 0,0 9.311,-24.737 18.598,0 h 7.249 v -32.274 h -5.586 v 10.639 l 0.553,14.232 -9.531,-24.871 H 7.271 l -9.509,24.848 0.553,-14.209 v -10.639 h -5.586 l 0,32.274 z" /></g></g></g></g></svg>