<svg id="Layer_1" data-name="Layer 1" xmlns="http://www.w3.org/2000/svg" xmlns:xlink="http://www.w3.org/1999/xlink" viewBox="0 0 1920 702"><defs><style>.cls-1{fill:#2b2b2b;}.cls-2{fill:url(#Orange);}.cls-3{fill:url(#linear-gradient);}</style><linearGradient id="Orange" x1="819.83454" y1="323.31267" x2="1065.81767" y2="323.31267" gradientUnits="userSpaceOnUse"><stop offset="0" stop-color="#f06548"/><stop offset="1" stop-color="#ffcb63"/></linearGradient><linearGradient id="linear-gradient" x1="1064.69481" y1="121.63956" x2="820.9574" y2="121.63956" gradientUnits="userSpaceOnUse"><stop offset="0" stop-color="#48aef0"/><stop offset="1" stop-color="#6374ff"/></linearGradient></defs><title>kmc</title><polygon class="cls-1" points="344.311 390.521 585.849 239.389 436.127 239.389 248.348 359.38 234.218 359.38 234.218 239.389 117.538 239.389 117.538 548.947 234.218 548.947 234.218 416.331 437.541 548.947 594.739 548.947 344.311 390.521"/><polygon class="cls-1" points="787.704 239.389 595.195 239.389 595.195 548.947 708.254 548.947 708.254 314.375 722.242 314.375 897.548 548.947 989.007 548.947 1164.274 314.375 1178.268 314.375 1178.268 548.947 1291.355 548.947 1291.355 239.389 1098.823 239.389 943.283 455.655 787.704 239.389"/><path class="cls-1" d="M1598.70509,485.67722h-67.65764c-64.3583,0-85.01316-17.97821-85.01316-73.92186V376.58543c0-44.38818,15.68642-73.95017,92.24529-73.95017h70.67929c21.29435,0,71.17164,0,71.17164,38.74631v.50932H1796.8448c-.19238-31.26529-4.24968-55.53055-20.24747-71.74322-24.08976-24.4124-77.71886-34.36633-185.10174-34.36633h-82.13295c-133.855,0-183.63038,29.72606-183.63038,109.66332v97.44582c0,79.93161,49.77541,109.652,183.63038,109.652h140.56643c133.84374,0,152.29743-43.16023,152.29743-89.812V440.58168H1685.21794c-3.44631,42.87161-34.31539,45.09554-86.51285,45.09554"/><path class="cls-1" d="M364.51668,646.51885c0,9.25793-3.48594,12.54009-23.06,12.54009H292.06044c-16.16176,0-23.05428-4.67989-23.05428-15.64681V613.30126c0-10.96689,6.89252-15.64678,23.05428-15.64678h48.96624c13.587,0,22.48837.88845,22.48837,12.87395v5.08166h15.228v-8.30156c0-14.18115-11.4762-21.3453-34.1117-21.3453h-54.014c-27.39463,0-38.56524,9.09383-38.56524,31.42374v21.93945c0,22.32994,11.17061,31.44639,38.56524,31.44639h53.284c30.69371,0,36.70342-8.743,36.70342-23.80689V640.13H364.51668Z"/><path class="cls-1" d="M539.60892,585.96267H479.557c-27.39455,0-38.57086,9.0938-38.57086,31.42372v21.94513c0,22.32426,11.17631,31.4407,38.57086,31.4407h60.052c27.39463,0,38.57656-9.11644,38.57656-31.4407V617.38639c0-22.32992-11.18193-31.42372-38.57656-31.42372m21.62264,27.338v30.11089c0,10.9669-6.89822,15.64678-23.06559,15.64678H481c-16.16176,0-23.0599-4.67988-23.0599-15.64678V613.30068c0-10.96122,6.89814-15.64678,23.0599-15.64678h57.166c16.16737,0,23.06559,4.68556,23.06559,15.64678"/><polygon class="cls-1" points="759.104 655.908 665.874 587.119 665.495 586.847 642.599 586.847 642.599 669.891 659.553 669.891 659.553 600.83 752.755 669.603 753.134 669.891 776.058 669.891 776.058 586.847 759.104 586.847 759.104 655.908"/><polygon class="cls-1" points="831.824 598.546 884.525 598.546 884.525 669.887 901.485 669.887 901.485 598.546 954.192 598.546 954.192 586.849 831.824 586.849 831.824 598.546"/><path class="cls-1" d="M1094.75863,586.84886h-84.80385v83.03832h16.954v-31.684h67.41967c13.36073,0,19.3194,1.81649,19.3194,12.64191v19.04212h16.08258V647.959c0-7.58289-3.68963-12.33069-11.793-14.90547,7.03957-1.64108,13.09461-5.574,13.09461-15.55625V610.967c0-15.99766-5.61363-24.11813-36.27341-24.11813m-67.84985,11.69688h62.80214c20.98315,0,24.36712,3.06145,24.36712,10.42932V616.275c0,6.14553-3.5482,10.22558-20.90389,10.22558h-66.26537Z"/><path class="cls-1" d="M1292.05714,585.96267h-60.05768c-27.40033,0-38.57664,9.0938-38.57664,31.42372v21.94513c0,22.32426,11.17631,31.4407,38.57664,31.4407h60.05768c27.38893,0,38.56507-9.11644,38.56507-31.4407V617.38639c0-22.32992-11.17614-31.42372-38.56507-31.42372m21.61124,27.338v30.11089c0,10.9669-6.89261,15.64678-23.05428,15.64678h-57.1716c-16.16184,0-23.06568-4.67988-23.06568-15.64678V613.30068c0-10.96122,6.90384-15.64678,23.06568-15.64678h57.1716c16.16167,0,23.05428,4.68556,23.05428,15.64678"/><polygon class="cls-1" points="1412.842 586.847 1395.9 586.847 1395.9 669.891 1493.775 669.891 1493.775 658.177 1412.842 658.177 1412.842 586.847"/><path class="cls-1" d="M1628.8745,621.84389H1587.112c-22.27906,0-24.503-3.28214-24.503-11.31775,0-11.363,7.13023-12.86827,35.44723-12.86827h14.97336c37.30336,0,37.35983,2.35409,37.62026,13.67184l.02832,1.39775h16.05408v-4.19323c0-16.671-11.82132-22.57326-45.20295-22.57326h-30.37691c-28.26035,0-44.6315,3.882-44.6315,23.78426,0,22.65812,15.19406,24.684,58.58631,24.684h26.78346c18.26683,0,21.351,2.79548,21.351,11.20457,0,9.473-3.486,13.42284-25.07447,13.42284h-43.78288c-18.00088,0-21.61677-3.899-21.61677-10.20294v-7.08492h-16.08828v7.3056c0,19.127,20.29272,21.69613,40.144,21.69613h39.16519c21.92814,0,43.3413-1.74858,43.3413-22.58456v-5.21748c0-14.59989-12.47222-21.12459-40.45522-21.12459"/><path class="cls-1" d="M1761.628,163.16154a34.54863,34.54863,0,0,1,24.28784,58.94284,34.47391,34.47391,0,0,1-58.86366-24.42371,34.55492,34.55492,0,0,1,34.57582-34.51913m-.05665,4.75913a27.95347,27.95347,0,0,0-20.68318,8.71468,30.152,30.152,0,0,0,0,42.13032,28.809,28.809,0,0,0,41.32112,0,30.2456,30.2456,0,0,0,0-42.11336,27.79592,27.79592,0,0,0-20.63794-8.73164m-16.4107,48.75685V178.04441h19.68155q13.04643,0,13.05506,12.00244c0,5.81167-1.992,9.30887-5.95315,10.46325,3.66131.89979,5.506,3.418,5.506,7.58857v8.57885h-8.13187v-7.13585q0-5.458-5.65887-5.45514h-10.36689v12.591Zm8.13187-19.54011h10.36689q6.44265,0,6.4455-6.14553,0-6.00972-5.94745-6.00405h-10.86494Z"/><path class="cls-2" d="M841.29351,233.06847c-19.12133,0-26.94183,11.17627-17.37279,24.87639L925.44665,403.29874c9.56351,13.6775,25.199,13.6775,34.75109,0l101.53715-145.35388c9.56352-13.70012,1.743-24.87639-17.37261-24.87639Z"/><path class="cls-3" d="M925.61214,42.11539,824.99735,186.63169c-9.46732,13.621-1.72021,24.74066,17.23135,24.74066h201.20695c18.94586,0,26.68727-11.11971,17.21425-24.74066L960.04634,42.11539c-4.73634-6.80765-10.97253-10.20862-17.21425-10.20862s-12.48344,3.401-17.22,10.20862"/></svg>