<?xml version="1.0" encoding="utf-8"?>
<!-- Generator: Adobe Illustrator 23.0.2, SVG Export Plug-In . SVG Version: 6.00 Build 0)  -->
<svg version="1.1" id="Layer_1" xmlns="http://www.w3.org/2000/svg" xmlns:xlink="http://www.w3.org/1999/xlink" x="0px" y="0px"
	 viewBox="0 0 400 245" style="enable-background:new 0 0 400 245;" xml:space="preserve">
<style type="text/css">
	.st0{fill:#20D6F5;}
	.st1{fill:#333333;}
	.st2{fill:url(#SVGID_1_);}
	.st3{fill:url(#SVGID_2_);}
	.st4{fill:url(#SVGID_3_);}
	.st5{fill:url(#SVGID_4_);}
	.st6{fill:url(#SVGID_5_);}
	.st7{fill:url(#SVGID_6_);}
	.st8{fill:url(#SVGID_7_);}
	.st9{fill:url(#SVGID_8_);}
	.st10{fill:url(#SVGID_9_);}
	.st11{fill:url(#SVGID_10_);}
	.st12{fill:url(#SVGID_11_);}
	.st13{fill:url(#SVGID_12_);}
	.st14{fill:#F37032;}
	.st15{fill:#58595B;}
	.st16{fill:#FFFFFF;}
	.st17{fill:#2C2523;}
	.st18{fill-rule:evenodd;clip-rule:evenodd;fill:#337E3D;}
	.st19{fill-rule:evenodd;clip-rule:evenodd;fill:#8BBF45;}
	.st20{fill:#2A2E7C;}
	.st21{fill:#43B4E4;}
	.st22{fill:url(#SVGID_13_);}
	.st23{fill:url(#SVGID_14_);}
	.st24{fill:url(#SVGID_15_);}
	.st25{fill:url(#SVGID_16_);}
	.st26{fill:url(#SVGID_17_);}
	.st27{fill:url(#SVGID_18_);}
	.st28{fill:url(#SVGID_19_);}
	.st29{fill:#E1251B;}
	.st30{fill:none;}
	.st31{fill:#4D4D4D;}
	.st32{fill:#A0CC40;}
	.st33{fill:#A682B8;}
	.st34{fill:#917A81;}
	.st35{fill:#E1496D;}
	.st36{fill:#C82A5C;}
	.st37{fill:#EA8096;}
	.st38{fill:#C04A7D;}
	.st39{fill:#C9DF91;}
	.st40{fill:#BD8549;}
	.st41{fill:#8B63A9;}
	.st42{fill:#0078BA;}
	.st43{fill:#231F20;}
	.st44{fill:#536657;}
	.st45{fill:#00A75D;}
	.st46{fill:#182B4F;}
	.st47{fill:#3665B0;}
	.st48{fill:#008FC8;}
	.st49{fill:#00A9E8;}
	.st50{fill:#29C2E3;}
	.st51{fill-rule:evenodd;clip-rule:evenodd;fill:url(#in_sf_base_1_);}
	.st52{fill-rule:evenodd;clip-rule:evenodd;fill:url(#in_sf_base_2_);}
	.st53{fill-rule:evenodd;clip-rule:evenodd;fill:url(#SVGID_20_);}
	.st54{fill-rule:evenodd;clip-rule:evenodd;fill:url(#out_sf_base_1_);}
	.st55{opacity:0.74;fill-rule:evenodd;clip-rule:evenodd;fill:url(#SVGID_21_);}
	.st56{fill-rule:evenodd;clip-rule:evenodd;fill:url(#in_up_right_1_);}
	.st57{fill-rule:evenodd;clip-rule:evenodd;fill:url(#in_up_right_2_);}
	.st58{fill-rule:evenodd;clip-rule:evenodd;fill:url(#SVGID_22_);}
	.st59{opacity:0.9;fill-rule:evenodd;clip-rule:evenodd;fill:url(#SVGID_23_);}
	.st60{fill:#241D1E;}
	.st61{fill:#727172;}
	.st62{fill:#5C5B5B;}
	.st63{opacity:0.2;fill-rule:evenodd;clip-rule:evenodd;fill:url(#SVGID_24_);}
	.st64{opacity:0.2;fill-rule:evenodd;clip-rule:evenodd;fill:url(#SVGID_25_);fill-opacity:0.42;}
	.st65{opacity:0.5;fill:#C5C5C4;}
	.st66{fill-rule:evenodd;clip-rule:evenodd;fill:url(#SVGID_26_);}
	.st67{opacity:0.9;fill-rule:evenodd;clip-rule:evenodd;fill:url(#SVGID_27_);}
	.st68{fill:url(#wing_low_sf_1_);}
	.st69{fill-rule:evenodd;clip-rule:evenodd;fill:url(#SVGID_28_);}
	.st70{fill-rule:evenodd;clip-rule:evenodd;fill:url(#SVGID_29_);}
	.st71{fill-rule:evenodd;clip-rule:evenodd;fill:url(#SVGID_30_);}
	.st72{fill-rule:evenodd;clip-rule:evenodd;fill:url(#SVGID_31_);}
	.st73{fill-rule:evenodd;clip-rule:evenodd;fill:#454242;}
	.st74{fill:#C5C5C4;}
	.st75{fill:url(#SVGID_32_);fill-opacity:0.8;}
	.st76{fill:#454242;}
	.st77{fill-rule:evenodd;clip-rule:evenodd;fill:url(#SVGID_33_);}
	.st78{fill-rule:evenodd;clip-rule:evenodd;fill:#DADBDA;}
	.st79{fill-rule:evenodd;clip-rule:evenodd;fill:url(#SVGID_34_);}
	.st80{fill-rule:evenodd;clip-rule:evenodd;fill:url(#SVGID_35_);}
	.st81{fill-rule:evenodd;clip-rule:evenodd;fill:url(#SVGID_36_);}
	.st82{fill-rule:evenodd;clip-rule:evenodd;fill:url(#SVGID_37_);}
	.st83{fill:#005BAB;}
	.st84{fill:url(#SVGID_38_);}
	.st85{fill:url(#SVGID_39_);}
	.st86{fill:#ED2924;}
	.st87{fill:#2F3A79;}
	.st88{fill-rule:evenodd;clip-rule:evenodd;fill:#E13A3E;}
	.st89{fill-rule:evenodd;clip-rule:evenodd;fill:#231F20;}
</style>
<g>
	<rect x="1.33" y="56.28" class="st29" width="397.34" height="132.45"/>
	<g>
		<path class="st16" d="M174.43,100.91c-5.87,0-12.54,2.72-16.62,8.17l0-0.01l0,0l0-7.31h-14v50.98h14v-29
			c0-5.22,4.05-10.77,11.54-10.77c5.79,0,11.79,4.03,11.79,10.77v29h14v-31.6C195.13,109.42,186.75,100.91,174.43,100.91"/>
		<polygon class="st16" points="294.62,101.77 281.97,136.5 269.31,101.77 253.32,101.77 274.3,152.73 289.63,152.73 310.61,101.77 
					"/>
		<path class="st16" d="M128.92,137.07c-5.89,4.36-9.26,5.4-14.63,5.4c-4.84,0-8.62-1.5-11.29-4.13l35.79-14.85
			c-0.78-5.53-2.88-10.47-6.11-14.23c-4.7-5.46-11.66-8.35-20.13-8.35c-15.39,0-27,11.36-27,26.35c0,15.38,11.63,26.35,28.54,26.35
			c9.47,0,19.16-4.49,23.69-9.73L128.92,137.07z M102.03,117.13c2.38-3.2,6.18-5.08,10.77-5.08c5.05,0,8.87,2.88,10.85,7.13
			l-24.45,10.15C98.52,124.12,99.85,120.05,102.03,117.13z"/>
		<polygon class="st16" points="84.21,139.89 52.39,139.89 52.39,86.53 38.21,86.53 38.21,152.74 84.21,152.74 		"/>
		<path class="st16" d="M335.74,153.6c-15.31,0-27.3-11.4-27.3-26.34c0-14.77,12.08-26.35,27.49-26.35c15.31,0,27.3,11.4,27.3,26.35
			C363.23,142.03,351.16,153.6,335.74,153.6 M335.74,112.91c-7.82,0-13.49,5.92-13.49,14.35c0,8.05,6.01,14.35,13.68,14.35
			c7.82,0,13.49-6.09,13.49-14.35C349.42,119.21,343.41,112.91,335.74,112.91"/>
		<path class="st16" d="M227.97,153.6c-15.31,0-27.3-11.4-27.3-26.34c0-14.77,12.08-26.35,27.49-26.35c15.31,0,27.3,11.4,27.3,26.35
			C255.46,142.03,243.39,153.6,227.97,153.6 M227.97,112.91c-7.82,0-13.49,5.92-13.49,14.35c0,8.05,6.01,14.35,13.68,14.35
			c7.82,0,13.49-6.09,13.49-14.35C241.66,119.21,235.64,112.91,227.97,112.91"/>
		<g>
			<path class="st16" d="M365.15,146.69h-2.26v-1.29h5.93v1.29h-2.26v6.05h-1.41V146.69z M370.39,145.41h1.5l2.22,3.48l2.22-3.48
				h1.45v7.34h-1.36v-5.22l-2.26,3.53h-0.14l-2.26-3.53v5.22h-1.36V145.41z"/>
		</g>
	</g>
</g>
</svg>
