<?xml version="1.0" encoding="utf-8"?>
<!-- Generator: Adobe Illustrator 21.1.0, SVG Export Plug-In . SVG Version: 6.00 Build 0)  -->
<svg version="1.1" id="Layer_1" xmlns="http://www.w3.org/2000/svg" xmlns:xlink="http://www.w3.org/1999/xlink" x="0px" y="0px"
	 viewBox="0 0 792 200" style="enable-background:new 0 0 792 200;" xml:space="preserve">
<style type="text/css">
	.st0{fill:#0F0E0E;}
	.st1{fill:#1C1B1A;}
	.st2{fill:#1E7340;}
	.st3{fill:#2E2C2C;}
	.st4{fill:#308643;}
	.st5{fill:#F2F5D0;}
	.st6{fill:#107C40;}
	.st7{fill:#F5F8EB;}
	.st8{fill:#EAEEAA;}
	.st9{fill:#F3F2F2;}
	.st10{display:none;fill:#F3F2F2;}
	.st11{fill:#519743;}
	.st12{fill:#EDF0B6;}
	.st13{fill:#FCFCFC;}
	.st14{fill:#62A044;}
	.st15{fill:#E7EC9B;}
	.st16{fill:#E1E884;}
</style>
<g>
	<path class="st0" d="M243.4,93.4c0-8.2,0-16.5,0-24.7c0-6.2,3.4-8.8,8.9-5.8c2.6,1.4,3.9,1.2,6.4,0.2c6.8-2.8,13.9-2.7,20.3,0.8
		c3.9,2.1,6.8,1.5,10.2-0.1c7.4-3.2,15-3.3,22.6-0.6c8.1,2.9,12.4,9,12.5,17.6c0.3,13-0.1,26,0.2,38.9c0.1,4.8-2,5.9-6.2,6.1
		c-4.6,0.2-4.5-2.6-4.5-5.8c0.1-12.2,0.1-24.5,0-36.7c-0.1-9.2-4.3-13.1-13.5-12.9c-8,0.1-11.7,4.1-11.7,12.8c0,12.2,0,24.5,0,36.7
		c0,3.1,0.4,5.9-4.3,5.9c-4.4,0.1-5.5-1.7-5.5-5.7c0.2-12.7,0.1-25.5,0-38.2c0-7.7-3.6-11.3-11.3-11.5c-8.5-0.2-13.4,3.7-13.6,11.3
		c-0.2,12.5-0.2,25,0,37.4c0,4-0.3,6.7-5.4,6.6c-5.4,0-5.2-3.2-5.2-6.9C243.5,110.4,243.4,101.9,243.4,93.4z"/>
	<path class="st1" d="M505.9,97.9c0,8.7,0,17.5,0,26.2c0,12.4-6.6,20.5-18.7,23.3c-8,1.9-15.8,0.1-23.6-1c-2.3-0.3-4.9-1.3-4.3-4.9
		c0.7-3.9,3.8-2.6,5.9-2.6c6.2,0,12.5,0.3,18.7,0.6c3.8,0.2,6.9-1.4,9-4.3c1.9-2.6,3.8-6,2.5-9c-1.4-3.3-4.7-0.5-7.1-0.4
		c-17.5,1.4-27.4-3.3-30.9-16.5c-2.9-10.7-2.9-21.9,0.3-32.5c3.9-13.2,20.6-19.6,33.7-13.6c2.3,1.1,3.3,2,6-0.3
		c4.2-3.6,8.5-0.8,8.5,4.9C506,77.9,505.9,87.9,505.9,97.9z M496,95.5c0-4-0.4-8,0.1-12c0.8-7-1.5-11.5-8.8-13
		c-10.1-2-17.5,0.2-19.4,7.8c-2.6,10.6-3.2,21.7,0.6,32.2c2.5,6.9,11.3,9,23.9,6.5c7.4-1.5,2.6-7.3,3.5-11
		C496.7,102.6,496,99,496,95.5z"/>
	<path class="st1" d="M521.3,82.4c0-12.2,0-24.4,0-36.7c0-3.6-0.6-6.9,5-7c5.2-0.1,5.6,2.5,5.4,6.5c-0.2,5.5-2,12.4,0.6,16.1
		c2.6,3.7,9.6-0.3,14.7-0.1c15.5,0.7,24.1,8.5,24.7,23.9c0.4,11.5,0,22.9,0.1,34.4c0,3.8-0.9,6.1-5.3,6.2c-4.5,0-5.4-2.1-5.3-6
		c0.2-11.5,0.1-22.9,0-34.4c-0.1-10.7-4.3-14.9-14.8-15.1c-14.8-0.4-14.8-0.4-14.8,14c0,11.5,0,22.9,0,34.4c0,3.6,0.6,7-4.9,7.1
		c-5.8,0.1-5.5-3.5-5.5-7.5C521.3,106.4,521.3,94.4,521.3,82.4z"/>
	<path class="st1" d="M367.3,97c-4.2,0-8.5,0-12.7,0c-8.4,0-9.9,1.9-7.4,9.9c1.8,5.5,5.6,9.1,11.6,10.3c7.5,1.5,14.9-0.6,22.4-0.4
		c2.2,0.1,5.3-1.6,5.7,2.6c0.3,3.8-1.6,5-5.3,5.4c-9.4,1-18.7,2.8-28.1-0.1c-8.5-2.7-14.2-8-16.1-16.8c-1.9-8.9-2-17.9-0.2-26.7
		c2.6-13.3,14.3-20.9,28.3-19.7c12.7,1.1,22.1,11.2,23.3,25c0.9,10.5,0.9,10.5-9.4,10.5C375.3,97,371.3,97,367.3,97z M361.9,89.8
		c4.2,0,8.5,0,12.7,0c2.4,0,3.4-0.6,3.6-3.4c0.3-7.5-4.8-14.8-11.7-15.9c-9-1.5-17,2.6-19.3,10c-2.2,7.1-0.7,9.3,6.6,9.3
		C356.4,89.7,359.2,89.7,361.9,89.8z"/>
	<path class="st0" d="M166.9,76.2c0,9.7-0.1,19.5,0.1,29.2c0.2,8.6,2.6,11,11.3,11.4c7.7,0.3,15.5,0.2,23.2,0.1c2.7,0,4.8,0,4.7,3.8
		c-0.1,3.4-1,4.8-4.7,5c-9,0.4-17.9,1.1-26.9,0.2c-11.7-1.2-18-8-18.1-19.6c-0.2-19.4-0.4-38.9-0.3-58.3c0-3.3-1.2-8,5.1-7.8
		c4,0.1,5.9,1,5.8,5.5C166.7,55.7,166.9,65.9,166.9,76.2z"/>
	<path class="st0" d="M586.6,82.1c0-9.5,0.1-19-0.1-28.5c-0.1-4,1.1-5.9,5.5-5.9c4.4-0.1,6.1,1.7,5.3,5.7c-1.6,8.4,2.5,9.6,9.7,9.4
		c3.6-0.1,10.6-3.5,10.9,3.1c0.4,7.8-7.1,4-11,4.3c-9.6,0.6-9.7,0.2-9.7,10.1c0,10,0.2,20-0.1,30c-0.2,5.9,2.5,8.2,8,8
		c3-0.1,6-0.1,9,0c2.1,0,4,0.2,4.1,3.1c0.1,2.4-0.9,3.7-3.1,4.4c-17.2,5.7-28.6-2.4-28.6-20.4C586.6,97.6,586.6,89.8,586.6,82.1z"/>
	<path class="st1" d="M413,82.4c0,12.4-0.1,24.9,0,37.3c0,3.8-0.5,6.2-5.2,6.1c-4.3-0.1-5.5-2-5.5-6c0.1-25.1,0.1-50.3,0-75.4
		c0-4.4,1.8-5.4,5.8-5.6c4.3-0.1,4.9,1.9,4.8,5.4C413,57,413,69.7,413,82.4z"/>
	<path class="st0" d="M441.5,94.2c0,8.5-0.1,17,0,25.4c0.1,3.9-0.8,6.1-5.3,6.1c-4.2,0-5.6-1.7-5.5-5.9c0.2-17.2,0.2-34.4,0-51.6
		c0-4,0.9-5.9,5.4-5.9c4.2,0,5.7,1.4,5.5,5.6C441.3,76.8,441.5,85.5,441.5,94.2z"/>
	<path class="st1" d="M216.6,94.3c0-8.7,0.2-17.4-0.1-26.1c-0.1-4.1,1.2-5.7,5.5-5.8c4.7-0.1,5.1,2.2,5,5.9
		c-0.1,17.2-0.1,34.3,0,51.5c0,3.9-0.9,6-5.3,6c-4.5,0-5.3-2.3-5.2-6.1C216.7,111.2,216.6,102.8,216.6,94.3z"/>
	<path class="st2" d="M129.4,53.9c4.7,5.7,5.7,12.6,5.8,19.6c0.3,15.7-0.2,31.4,0.3,47c0.2,6.9-3.5,6.6-8.4,6.9
		c-5.5,0.3-7-1.7-6.6-6.9c0.5-6.2,0.3-12.4,0.3-18.6c0.4-0.5,0.8-1,1.2-1.5c6.1-1.8,10.2-8.1,10.5-15.9
		C132.9,74.1,132.4,63.9,129.4,53.9z"/>
	<path class="st2" d="M42.2,90.4c-7-9.2-4.6-20-4.8-30.3c-0.3-12.2,0.4-24.5,0.1-36.7c-0.1-4.2,1.3-5.7,5-5.1
		c3.6,0.6,9.3-2.6,9.7,4.6c0.2,3.2,0,6.5-0.1,9.7c-1.7,6.5,0,13.2-0.9,19.8c-1.5-1.3-1-3.2-1.4-4.8c-0.9-3.5-3-3.5-4.4-0.7
		c-2.6,5.2-6.1,9.7-6.2,16.3C39.1,72.5,41.1,81.4,42.2,90.4z"/>
	<path class="st3" d="M628.7,164.4c2.6-8.5,4.4-14.9,6.5-21.1c0.6-1.8,1.1-5.4,4.2-3.9c2.4,1.1-0.1,3.4-0.6,5
		c-2.9,9.1-6,18.1-9.5,28.6c-5.5-8.9-6.1-17.8-10.5-26.2c-2.4,7.5-4.5,14.3-6.7,21.2c-0.4,1.3-1,3.1-2.7,3.2c-2.2,0.2-1.8-2-2.2-3.3
		c-2.8-7.9-5.5-15.9-8.1-23.9c-0.5-1.4-1.9-3.7,0.3-4.5c2.9-1.1,3,2.2,3.5,3.7c2.2,6.2,3.9,12.6,6.4,20.9c2.8-8.4,5.1-14.9,7.2-21.5
		c0.5-1.5,0.6-3.2,2.5-3.2c1.9-0.1,2.1,1.7,2.5,3.1C623.6,149,625.8,155.6,628.7,164.4z"/>
	<path class="st4" d="M115.7,96.3c-1.3,4,2.5,9.2-2.9,12.2c-15,0-30-0.1-44.9-0.1c-5.1-0.2-9.3-3-13.6-5.3c-0.1-2.1-1.3-2.7-3.2-2.3
		l0.3-0.2c0,0-0.3,0.3-0.3,0.3c0.1-1.1,0.2-2.2,0.3-3.3c-5.3-12.9-8.9-25.9-3.3-40.2c3.2,2.7,0.5,6.5,3.1,8.7
		c1.1,4.4-1,9.3,1.7,13.5c0,2.6,2.6,4.4,2,7.1c-1.6,0.9-1.5,2.1-1.1,3.8c2,7.6,12.4,15.9,20.2,16c7.9,0.1,15.9-0.3,23.8,0.1
		c8.2,0.4,15.5-0.1,16.6-10.6C114.9,96,115.3,96.2,115.7,96.3z"/>
	<path class="st0" d="M547.2,164.8c0-8.1,0-15.1,0-22.1c0-1.4-0.2-3.3,1.9-3.4c2.1-0.1,2,1.7,2,3.2c0,8.2,0,16.5,0,24.7
		c0,1.4,0.5,3.2-1.4,3.8c-1.8,0.5-2.6-1.1-3.5-2.2c-6.7-7.6-13.4-15.3-20.4-23.3c0,7.9,0,15,0,22.1c0,1.4,0.2,3.3-1.9,3.4
		c-2.1,0-1.9-1.9-1.9-3.3c0-8.2,0-16.5,0-24.7c0-1.4-0.5-3.2,1.5-3.7c1.8-0.4,2.6,1,3.6,2.2C533.5,149,540,156.5,547.2,164.8z"/>
	<path class="st5" d="M115.7,96.3c-0.4-0.1-0.9-0.2-1.3-0.4c-4.4-3.2-9.5-0.1-14.1-1.9c0.2-0.8,0.4-1.7,0.6-2.5c0.5,0,1,0,1.5,0
		c9.2-2.7,13.2-14.2,9-25.5c0-1,0-2,0-3c-0.1-4-4.5-6.2-4.4-10.4c3,1.9,6,3.8,9,5.7c2.2,3.8,4.7,7.5,4.6,12.3
		c-0.2,7.9-0.2,15.8-0.3,23.8C116.7,90.1,117,95.1,115.7,96.3z"/>
	<path class="st4" d="M120.2,94.4c0.1-7.9,0.1-15.8,0.3-23.8c0.1-4.8-2.3-8.5-4.6-12.3c2-1.7,3.6-3.9,1.2-6.1
		c-4.9-4.7-7.4-12.8-16.4-11.9c-1.7,0.2-2.6-1.1-2.8-2.8c4.1-0.4,7.9,2,12,0.9c4.5,2,9.1,3.9,12,8.1c-0.3,3.5,0.5,6.8,2,10.1
		c3.6,8.3,6.3,17.9,1.7,25.6c-3.7,6.3-3.3,11.9-3.7,18.1c-0.4,0.5-0.8,1-1.2,1.5C120.6,99.4,120.4,96.9,120.2,94.4z"/>
	<path class="st3" d="M656,139.1c9.4,0.1,16.4,7.1,16.3,16.3c-0.1,8.5-8.6,16.9-16.7,16.8c-8.4-0.2-16.5-8.7-16.4-17.2
		C639.3,145.8,646.5,139,656,139.1z M668.2,154.8c-0.1-7.4-5.4-12.6-12.7-12.5c-7.1,0.1-12.8,5.8-12.7,12.9c0,7.4,5.9,13,13.5,12.8
		C663.5,167.8,668.3,162.5,668.2,154.8z"/>
	<path class="st6" d="M51.3,65.9c-2.6-2.1,0.1-5.9-3.1-8.7c-5.5,14.3-2,27.3,3.3,40.2c-2.1-0.9-4.3-1.8-6.4-2.8c0,0,0.1,0.1,0.1,0.1
		c0.4-2-0.4-3.2-2.5-3.4c-0.4-0.2-0.6-0.6-0.4-1c-1.1-9-3.1-17.9-3-27.2c0.1-6.6,3.6-11.2,6.2-16.3c1.4-2.8,3.5-2.8,4.4,0.7
		c0.4,1.6-0.1,3.5,1.4,4.8C51.3,56.9,51.3,61.4,51.3,65.9z"/>
	<path class="st3" d="M555.7,154.5c0-1.2,0-2.5,0-3.7c0-12,2.8-14.2,14.8-11.7c1.2,0.3,2.7,0.3,2.5,2c-0.2,1.6-1.7,1.5-2.9,1.6
		c-1.7,0-3.5,0.1-5.2,0c-3.2-0.2-5,0.3-4.9,4.3c0.1,3.7,1.1,5.1,4.6,4.5c0.2,0,0.5-0.1,0.7,0c1.9,0.5,5.3-1.4,5.1,2.2
		c-0.1,2.7-3.2,1.9-5,1.7c-4-0.4-5.4,0.6-5.6,5.1c-0.3,5.9,1.2,8.1,7.3,7.4c2-0.2,6.1-1.9,6,1.7c-0.1,3.3-4.1,1.6-6.2,1.7
		c-11.2,0.2-11.2,0.2-11.2-10.7C555.7,158.5,555.7,156.5,555.7,154.5z"/>
	<path class="st3" d="M697.2,172.1c-10-2.2-9.7-12.4-16.3-14.8c0,3.3,0,6.4,0,9.6c0,1.9,0.6,4.5-2.5,4.3c-2.8-0.1-1.7-2.6-1.8-4.1
		c-0.1-6.7-0.3-13.5,0.1-20.2c0.1-2.6-2.2-6.9,1.9-7.5c5-0.8,10.9-1.6,14.3,3.8c2.7,4.2,2.8,9.2-2,11.6c-4.6,2.3-3.3,4.1-1.2,6.8
		C692,164.5,694,167.5,697.2,172.1z M680.9,148.7c0.2,2.5-1.1,5.9,3.6,5.6c3.7-0.3,6.1-1.9,5.8-6.1c-0.2-3.6-2-5.3-5.6-5.6
		C679.5,142.3,681.2,146.1,680.9,148.7z"/>
	<path class="st6" d="M121.9,100.4c0.4-6.2,0-11.9,3.7-18.1c4.6-7.7,1.9-17.3-1.7-25.6c-1.4-3.3-2.2-6.5-2-10.1
		c2.8,2.1,6.2,3.6,7.4,7.3c3,10,3.5,20.2,3.1,30.5C132.1,92.3,128,98.6,121.9,100.4z"/>
	<path class="st7" d="M67.9,108.3c15,0,30,0.1,44.9,0.1c-3.2,1.2-6.1,2.3-8.7,4.9c-5.2,5-27.9,4.9-34,0.9
		C67.7,112.7,68.1,110.5,67.9,108.3z"/>
	<path class="st3" d="M735.3,138.6c1.4,0.4,3.3,0.4,4.7,1.3c1.6,1.1,5.2,2,3.6,4.6c-1.5,2.5-3.3-0.4-4.9-1.3
		c-3.7-1.9-7.1-1.3-8.8,2.5c-1.7,3.8,2,5,4.5,6.5c1,0.6,2.3,1,3.4,1.4c4.2,1.6,7.9,4.2,7.6,9c-0.3,4-2.9,7.2-7.2,8.6
		c-4.8,1.6-8.7,0.5-12.2-2.9c-1-1-2.5-2-1-3.7c1.6-1.7,2.7-0.3,3.6,0.9c1.9,2.6,4.6,2.8,7.4,2.4c2.7-0.4,4.5-1.9,5.2-4.6
		c0.7-2.8-1.2-4.2-3.2-5.2c-2.4-1.3-4.9-2.3-7.4-3.5c-4-1.8-5.3-5.2-4.3-9.2C727.2,140.7,730.8,139.2,735.3,138.6z"/>
	<path class="st3" d="M574.7,141.1c6.9-2.9,13.4-1.7,19.7-1.8c0.4,0,1.2,0.9,1.2,1.4c0.2,1.2-0.7,1.9-1.8,1.7c-7.7-1.3-6,4.2-6,8.4
		c0,5.5,0,11,0,16.5c0,1.8,0.1,3.9-2.2,4c-2.8,0.2-2-2.3-2-3.8c-0.1-4.5,0-9,0-13.5C583.6,148,585.9,140.6,574.7,141.1z"/>
	<path class="st1" d="M706.7,152.9c4.6-4.7,6.9-11.8,15.7-14.7c-3.2,6.1-6.9,9.5-10.4,13.1c-2.1,2.2-2.3,3.8,0,6.1
		c4,4,7.5,8.4,10.7,13.3c-8-2-11-9.5-16-14.8C706.7,155,706.7,153.9,706.7,152.9z"/>
	<path class="st1" d="M226.9,44.9c-0.2,3.3,1.6,7.6-4.7,7.7c-5.7,0.1-5.6-3.2-5.6-7.2c0-4-0.3-7.4,5.5-7.3
		C227.2,38.1,227.6,40.9,226.9,44.9z"/>
	<path class="st1" d="M430.6,43.4c-0.5-3,0.5-5.3,5.5-5.4c6.1-0.1,5.2,3.6,5.3,7.4c0.1,4.1,0,7.3-5.7,7.1
		C429.5,52.3,430.9,48.1,430.6,43.4z"/>
	<path class="st3" d="M706.7,152.9c0,1,0,2,0,3c-3.3,3.1-1.1,7.2-1.7,10.7c-0.3,1.8,0.6,4.5-2.3,4.5c-2.3-0.1-1.9-2.5-1.9-4.1
		c0-7.9,0-15.9,0-23.8c0-1.5-0.8-3.9,1.9-4c2.6-0.1,2,2.1,2.3,3.7C705.7,146.3,703.3,150.1,706.7,152.9z"/>
	<path class="st4" d="M60.4,50.7c-6-1.9-1.7-7.1-3.3-10.3c2-4.2,6.1-2.6,9.4-3.4c2,0.2,4,0.4,6,0.5c-0.2,2.1-1.5,2.7-3.4,2.9
		C62.8,41,60.3,44.8,60.4,50.7z"/>
	<path class="st8" d="M53.1,55.4c0,8-0.1,16-0.1,24.1c-2.7-4.2-0.6-9.1-1.7-13.5c0-4.5,0-9,0-13.5c1-6.6-0.7-13.3,0.9-19.8
		C52.5,40.2,52.8,47.8,53.1,55.4z"/>
	<path class="st2" d="M45.1,94.7c2.1,0.9,4.3,1.8,6.4,2.8c-0.1,1.1-0.2,2.2-0.3,3.3C48.6,99.3,46.3,97.5,45.1,94.7z"/>
	<path class="st2" d="M42.7,91.4c2.1,0.2,2.9,1.3,2.5,3.4C43.8,94,43,92.9,42.7,91.4z"/>
	<path class="st2" d="M51.1,100.7c1.9-0.4,3.1,0.2,3.2,2.3C53.3,102.3,52.2,101.5,51.1,100.7z"/>
	<path class="st9" d="M496,95.5c0,3.5,0.6,7.2-0.2,10.4c-0.9,3.7,3.9,9.5-3.5,11c-12.6,2.5-21.4,0.4-23.9-6.5
		c-3.8-10.5-3.2-21.6-0.6-32.2c1.9-7.5,9.3-9.8,19.4-7.8c7.4,1.5,9.6,5.9,8.8,13C495.7,87.4,496,91.5,496,95.5z"/>
	<path class="st10" d="M361.9,89.7c-2.7,0-5.5,0-8.2,0c-7.3,0-8.8-2.2-6.6-9.3c2.3-7.4,10.3-11.5,19.3-10c6.9,1.2,12,8.4,11.7,15.9
		c-0.1,2.8-1.2,3.4-3.6,3.4C370.4,89.7,366.1,89.8,361.9,89.7z"/>
	<path class="st11" d="M55,86.6c0.4-0.1,0.7,0,1.1,0c3.8,6.2,9.6,7.8,16.3,7.5c8.4,0.3,16.9,0.9,25.3-0.3c0.9,0.1,1.8,0.1,2.7,0.2
		c4.5,1.8,9.7-1.4,14.1,1.9c-1.1,10.5-8.3,11-16.6,10.6c-7.9-0.4-15.8,0-23.8-0.1c-7.9-0.1-18.2-8.5-20.2-16
		C53.4,88.7,53.4,87.5,55,86.6z"/>
	<path class="st11" d="M60.4,50.7c-0.1-5.9,2.4-9.7,8.6-10.3c1.9-0.2,3.3-0.7,3.4-2.9c8.5,0,17,0,25.5,0c0.2,1.7,1.1,2.9,2.8,2.8
		c9-1,11.5,7.2,16.4,11.9c2.4,2.3,0.8,4.4-1.2,6.1c-3-1.9-6-3.8-9-5.7c-1-0.6-2-1.2-3-1.8c2-3.1,0.5-4.6-2.3-6.3
		c-13-7.6-24.2-5.8-36.8,6.2l0.1,0.6C63.5,51.1,61.9,50.9,60.4,50.7z"/>
	<path class="st12" d="M104,50.8c1,0.6,2,1.2,3,1.8c-0.1,4.1,4.3,6.3,4.4,10.4c-3,0.3-5-1.3-6.9-3.5c-3.6-4.1-3.3-0.5-3.5,1.9
		c-1.5-1-3-2-4.5-3l0,0c-0.5-0.5-1-1-1.5-1.5c-12-4.4-19.4-2.1-24.1,7.3c-5.2,5.2-3.2,11-1.4,16.7c-6.6,2-1.9,5.9-1.5,9
		c-5.8-2.8-8.6-11.1-7.3-19.7c0.9-5.6,4.5-10.4,4.3-16.3c0,0,0,0,0,0c2.3-0.3,5.3,1.1,5.9-2.7C81.9,51.1,93,50.9,104,50.8z"/>
	<path class="st8" d="M101,61.4c0.2-2.5,0-6,3.5-1.9c1.9,2.2,3.9,3.8,6.9,3.5c0,1,0,2,0,3c-1.3,1-1.6,2.4-1.5,3.9
		c0.8,7.4-0.2,14-6.7,18.8c-0.6,0.5-0.6,1.8-0.8,2.7c-0.5,0-1,0-1.5,0c-1.6,0-2.8,0.7-3.3,2.4c-8.4,1.2-16.9,0.6-25.3,0.3
		c1.7-4.8-3.5-2.2-4.4-4.2c-0.3-3.2-5.1-7.1,1.5-9c8.5,10.7,16.8,12.9,26.1,7.2C104.7,82.4,106.6,72.8,101,61.4z"/>
	<path class="st12" d="M102.5,91.4c0.3-0.9,0.2-2.3,0.8-2.7c6.5-4.8,7.5-11.5,6.7-18.8c-0.2-1.5,0.1-2.9,1.5-3.9
		C115.7,77.3,111.6,88.7,102.5,91.4z"/>
	<path class="st12" d="M97.7,93.8c0.4-1.7,1.6-2.3,3.3-2.4c-0.2,0.8-0.4,1.7-0.6,2.5C99.5,93.9,98.6,93.9,97.7,93.8z"/>
	<path class="st13" d="M668.2,154.8c0.1,7.7-4.7,13-11.9,13.2c-7.5,0.2-13.5-5.4-13.5-12.8c0-7,5.7-12.8,12.7-12.9
		C662.9,142.2,668.1,147.4,668.2,154.8z"/>
	<path class="st9" d="M680.9,148.7c0.3-2.6-1.4-6.5,3.8-6.1c3.5,0.3,5.4,2,5.6,5.6c0.3,4.2-2.1,5.8-5.8,6.1
		C679.8,154.7,681.1,151.2,680.9,148.7z"/>
	<path class="st5" d="M68,89.9c0.9,2,6.1-0.6,4.4,4.2c-6.7,0.3-12.6-1.4-16.3-7.5c2.1-2.7,0.4-5.3-0.5-7.7
		c-3.1-8.3,0.1-15.4,3.7-22.5c1.2-2.4,3.4-2.6,5.7-2.5c0.2,5.8-3.4,10.7-4.3,16.3C59.3,78.9,62.1,87.2,68,89.9z"/>
	<path class="st5" d="M70.9,51.2c-0.6,3.8-3.7,2.4-5.9,2.7c0-0.9,0-1.8,0-2.7c0,0-0.1-0.6-0.1-0.6C66.9,50.9,68.9,51,70.9,51.2z"/>
	<path class="st14" d="M70.9,51.2c-2-0.2-4-0.3-6-0.5c12.5-12,23.8-13.8,36.8-6.2c2.8,1.7,4.3,3.2,2.3,6.3
		C93,50.9,81.9,51.1,70.9,51.2z"/>
	<path class="st15" d="M70.9,64.1C75.6,54.7,83,52.5,95,56.9c-1.4,2.4,0.9,1.2,1.5,1.5c0,0,0,0,0,0c0.6,2.6,1,5.3,1.8,7.9
		c2.4,8.1,0.5,13.1-6.8,17.4C86,86.9,79.3,85.3,74,80.3C68.9,75.5,71.8,69.5,70.9,64.1z M86,64.9c-4.1,0.7-7.1,3.3-7.1,7.4
		c-0.1,4.2,3,6.8,7.2,7.2c4.7,0.4,7-2.8,7-6.9C93.1,68.3,90.2,65.8,86,64.9z"/>
	<path class="st16" d="M70.9,64.1c0.9,5.4-2,11.4,3.1,16.2c5.2,5,12,6.6,17.4,3.4c7.3-4.3,9.2-9.3,6.8-17.4
		c-0.8-2.6-1.2-5.3-1.8-7.9c1.5,1,3,2,4.5,3c5.7,11.4,3.7,21-5.4,26.6c-9.2,5.8-17.6,3.5-26.1-7.2C67.8,75.1,65.7,69.3,70.9,64.1z"
		/>
	<path class="st16" d="M96.5,58.4c-0.7-0.4-2.9,0.8-1.5-1.5C95.5,57.4,96,57.9,96.5,58.4z"/>
</g>
</svg>
