<svg id="Layer_1" data-name="Layer 1" xmlns="http://www.w3.org/2000/svg" viewBox="0 0 480 240"><defs><style>.cls-1{fill:none;}.cls-2{fill:#666;}.cls-3,.cls-8{fill:#9c3;}.cls-4,.cls-5{fill:#c03;}.cls-5{opacity:0.6;}.cls-6,.cls-7{fill:#909;}.cls-7,.cls-8{opacity:0.7;}</style></defs><title>linaro</title><g id="LinaroStandard"><path class="cls-1" d="M295.55388,81.05446a11.50728,11.50728,0,0,0-3.99322,5.01474,17.19838,17.19838,0,0,0-1.12162,6.305,14.95378,14.95378,0,0,0,.65965,4.81429,7.78417,7.78417,0,0,0,1.87937,3.10384,6.8913,6.8913,0,0,0,2.93743,1.68117,13.62277,13.62277,0,0,0,3.76124.49374,37.57348,37.57348,0,0,0,3.79528-.19544,24.26844,24.26844,0,0,0,3.99072-.76251A25.784,25.784,0,0,0,311.61962,99.96a29.24848,29.24848,0,0,0,4.289-2.5075V75.94187A59.56239,59.56239,0,0,0,303.33989,77.594,22.92686,22.92686,0,0,0,295.55388,81.05446Z"/><path class="cls-1" d="M448.02738,59.48024a15.28065,15.28065,0,0,0-5.27874-4.98071,15.59425,15.59425,0,0,0-7.85208-1.84734,14.06207,14.06207,0,0,0-7.35832,1.9109,15.94056,15.94056,0,0,0-5.31054,5.24447,25.83468,25.83468,0,0,0-3.19893,7.91813,42.831,42.831,0,0,0-1.08982,9.93164,42.14622,42.14622,0,0,0,.95794,8.8418,28.69928,28.69928,0,0,0,3.03527,8.18214,18.38723,18.38723,0,0,0,5.34207,6.03626,13.05541,13.05541,0,0,0,7.82028,2.34609,12.1823,12.1823,0,0,0,7.52224-2.37537,18.35511,18.35511,0,0,0,5.21268-6.271,32.75131,32.75131,0,0,0,3.03528-8.77323,50.04906,50.04906,0,0,0,.98973-9.96617,42.78557,42.78557,0,0,0-.88964-8.87584A21.48573,21.48573,0,0,0,448.02738,59.48024Z"/><polygon class="cls-2" points="157.159 99.764 112.554 99.764 112.554 9.763 94.406 9.763 94.406 113.157 157.159 113.157 157.159 99.764"/><path class="cls-2" d="M166.40685,26.288a10.0278,10.0278,0,0,0,3.03527,2.17992,8.5825,8.5825,0,0,0,3.72671.82607,9.03433,9.03433,0,0,0,3.82706-.79179,9.598,9.598,0,0,0,2.96945-2.1116,9.11178,9.11178,0,0,0,1.91341-3.03527,10.08655,10.08655,0,0,0,.6599-3.63136,10.32346,10.32346,0,0,0-.6599-3.6609,8.69314,8.69314,0,0,0-1.91341-3.03527,9.25773,9.25773,0,0,0-6.79651-2.80553,9.96541,9.96541,0,0,0-3.72671.69394,9.01019,9.01019,0,0,0-3.03527,1.94543,9.39189,9.39189,0,0,0-2.048,2.9717,9.22446,9.22446,0,0,0-.75751,3.7585,8.98725,8.98725,0,0,0,.75751,3.59733A10.50657,10.50657,0,0,0,166.40685,26.288Z"/><rect class="cls-2" x="164.45916" y="41.89423" width="17.15557" height="71.26243"/><path class="cls-2" d="M227.51266,54.001a28.87455,28.87455,0,0,1,3.95894-.29329,17.57082,17.57082,0,0,1,5.60858.82132,9.84426,9.84426,0,0,1,4.12286,2.63913,11.66436,11.66436,0,0,1,2.54152,4.78526,26.47585,26.47585,0,0,1,.85786,7.258v43.94524H261.758V65.98071a26.35311,26.35311,0,0,0-2.04553-10.62583,23.127,23.127,0,0,0-5.5768-7.91788,24.24284,24.24284,0,0,0-8.31378-4.94642,30.367,30.367,0,0,0-10.32528-1.71546,29.72767,29.72767,0,0,0-6.46643.68919,32.6615,32.6615,0,0,0-5.77475,1.84733,33.68964,33.68964,0,0,0-4.91464,2.6101,28.886,28.886,0,0,0-3.827,2.90339c-.09034-.57207-.18819-1.19769-.29555-1.88187q-.16891-1.02627-.39614-1.97947c-.15641-.63538-.298-1.23173-.42993-1.784a8.46864,8.46864,0,0,0-.39589-1.28553H196.83013a43.06531,43.06531,0,0,1,.76,6.76474q.09535,3.33557.09785,5.44467v59.053H214.8438V58.06283a31.50978,31.50978,0,0,1,3.99322-1.784q2.14076-.792,4.35484-1.38338A36.37987,36.37987,0,0,1,227.51266,54.001Z"/><path class="cls-2" d="M340.25663,102.66772a17.62375,17.62375,0,0,1-1.97947.19545,7.08937,7.08937,0,0,1-2.44144-.36161,3.31343,3.31343,0,0,1-1.61536-1.25625,5.89637,5.89637,0,0,1-.89214-2.43893,23.57979,23.57979,0,0,1-.26375-3.86135V63.14113A19.89218,19.89218,0,0,0,330.623,53.07736a20.42748,20.42748,0,0,0-6.53249-6.96017,30.04437,30.04437,0,0,0-9.36959-4.02251,45.26624,45.26624,0,0,0-11.01921-1.31956A46.14508,46.14508,0,0,0,287.46958,43.644a40.72953,40.72953,0,0,0-13.32851,7.95242l9.03974,10.29349a59.13934,59.13934,0,0,1,5.41064-4.65313,28.77924,28.77924,0,0,1,4.719-2.90339,18.511,18.511,0,0,1,4.51874-1.52,25.4824,25.4824,0,0,1,4.75073-.42517,18.25994,18.25994,0,0,1,5.41064.7575,11.06952,11.06952,0,0,1,4.19117,2.34133,10.74263,10.74263,0,0,1,2.73723,4.09082,16.36139,16.36139,0,0,1,.98973,6.007v2.57106q-5.60845,0-11.01922.46421a73.07174,73.07174,0,0,0-10.25921,1.58358,43.75711,43.75711,0,0,0-8.94215,3.06455,25.23429,25.23429,0,0,0-7.06027,4.91714,21.31579,21.31579,0,0,0-4.65289,7.09206,25.3626,25.3626,0,0,0-1.68142,9.60431,23.0977,23.0977,0,0,0,1.45169,8.5435,16.31706,16.31706,0,0,0,4.1569,6.13411,17.66349,17.66349,0,0,0,6.53224,3.72921,27.69842,27.69842,0,0,0,8.64385,1.25625,44.67782,44.67782,0,0,0,5.83857-.39589,32.95661,32.95661,0,0,0,6.00672-1.38813,31.7042,31.7042,0,0,0,11.71091-6.99421,10.17623,10.17623,0,0,0,4.25724,6.50047,14.35175,14.35175,0,0,0,8.27974,2.27776,27.57662,27.57662,0,0,0,4.84857-.39589,28.81922,28.81922,0,0,0,4.09107-1.02652,23.9187,23.9187,0,0,0,3.53127-1.481q1.64939-.85773,3.23322-1.84759l-1.84759-7.59055Q341.70806,102.46752,340.25663,102.66772Zm-24.348-5.21519a29.24848,29.24848,0,0,1-4.289,2.5075,25.784,25.784,0,0,1-4.15689,1.54929,24.26844,24.26844,0,0,1-3.99072.76251,37.57348,37.57348,0,0,1-3.79528.19544,13.62277,13.62277,0,0,1-3.76124-.49374,6.8913,6.8913,0,0,1-2.93743-1.68117,7.78417,7.78417,0,0,1-1.87937-3.10384,14.95378,14.95378,0,0,1-.65965-4.81429,17.19838,17.19838,0,0,1,1.12162-6.305,11.50728,11.50728,0,0,1,3.99322-5.01474,22.92686,22.92686,0,0,1,7.786-3.46044,59.56239,59.56239,0,0,1,12.56875-1.65215Z"/><path class="cls-2" d="M350.95577,47.56888q.02928,1.78152.06356,3.49948c.022,1.14389.034,2.08708.034,2.83508v59.25322h17.2877l-.13188-46.64793a22.76307,22.76307,0,0,1,7.16038-7.65412,19.86926,19.86926,0,0,1,14.12055-2.54178,17.55639,17.55639,0,0,1,3.92491,1.3541L397.11,42.15825a19.562,19.562,0,0,0-2.83732-.92367,23.32728,23.32728,0,0,0-5.41063-.45946,15.99122,15.99122,0,0,0-6.10208,1.31956,28.64742,28.64742,0,0,0-6.10482,3.46045,32.00325,32.00325,0,0,0-5.27876,4.91714,22.423,22.423,0,0,0-3.62911,5.6744,126.22351,126.22351,0,0,0-1.97947-14.25244h-15.1761c.08784.528.16366,1.31006.232,2.34133Q350.919,45.78961,350.95577,47.56888Z"/><path class="cls-2" d="M467.98876,63.50274A32.71611,32.71611,0,0,0,461.752,51.62567a29.27444,29.27444,0,0,0-10.75545-7.94741,38.13854,38.13854,0,0,0-15.572-2.90314,39.31607,39.31607,0,0,0-15.73591,2.90314,31.37994,31.37994,0,0,0-11.11957,7.84956A32.41,32.41,0,0,0,401.97079,63.009a43.534,43.534,0,0,0-2.1774,13.85654,49.2766,49.2766,0,0,0,2.34357,15.6701,32.93644,32.93644,0,0,0,6.89411,12.00895A30.397,30.397,0,0,0,420.28,112.233a40.90192,40.90192,0,0,0,15.40859,2.7077,34.22476,34.22476,0,0,0,14.35254-2.90339,32.12,32.12,0,0,0,10.82127-7.91788,34.68529,34.68529,0,0,0,6.794-11.71591A42.93229,42.93229,0,0,0,470,78.12179,51.60343,51.60343,0,0,0,467.98876,63.50274ZM450.86471,85.644a32.75131,32.75131,0,0,1-3.03528,8.77323,18.35511,18.35511,0,0,1-5.21268,6.271,12.1823,12.1823,0,0,1-7.52224,2.37537,13.05541,13.05541,0,0,1-7.82028-2.34609,18.38723,18.38723,0,0,1-5.34207-6.03626,28.69928,28.69928,0,0,1-3.03527-8.18214,42.14622,42.14622,0,0,1-.95794-8.8418,42.831,42.831,0,0,1,1.08982-9.93164,25.83468,25.83468,0,0,1,3.19893-7.91813,15.94056,15.94056,0,0,1,5.31054-5.24447,14.06207,14.06207,0,0,1,7.35832-1.9109,15.59425,15.59425,0,0,1,7.85208,1.84734,15.28065,15.28065,0,0,1,5.27874,4.98071A21.48573,21.48573,0,0,1,450.9648,66.802a42.78557,42.78557,0,0,1,.88964,8.87584A50.04906,50.04906,0,0,1,450.86471,85.644Z"/><path class="cls-3" d="M202.59416,124.2467H164.07432a6.24532,6.24532,0,0,0-6.25122,6.24521v38.51984a6.24639,6.24639,0,0,0,6.25122,6.24647h38.51984a6.24537,6.24537,0,0,0,6.24647-6.24647V130.49191A6.2443,6.2443,0,0,0,202.59416,124.2467Z"/><path class="cls-3" d="M266.661,124.2467H228.1459a6.24836,6.24836,0,0,0-6.25122,6.24521v38.51984a6.24942,6.24942,0,0,0,6.25122,6.24647H266.661a6.24943,6.24943,0,0,0,6.25123-6.24647V130.49191A6.24836,6.24836,0,0,0,266.661,124.2467Z"/><path class="cls-3" d="M330.7373,124.2467H292.21746a6.24836,6.24836,0,0,0-6.25122,6.24521v38.51984a6.24943,6.24943,0,0,0,6.25122,6.24647H330.7373a6.24537,6.24537,0,0,0,6.24646-6.24647V130.49191A6.2443,6.2443,0,0,0,330.7373,124.2467Z"/><path class="cls-3" d="M394.80411,124.2467H356.289a6.24532,6.24532,0,0,0-6.25122,6.24521v38.51984a6.24639,6.24639,0,0,0,6.25122,6.24647h38.51508a6.24943,6.24943,0,0,0,6.25122-6.24647V130.49191A6.24836,6.24836,0,0,0,394.80411,124.2467Z"/><path class="cls-3" d="M458.87568,124.2467H420.36085a6.24538,6.24538,0,0,0-6.25148,6.24521v38.51984a6.24645,6.24645,0,0,0,6.25148,6.24647h38.51483a6.24943,6.24943,0,0,0,6.25122-6.24647V130.49191A6.24836,6.24836,0,0,0,458.87568,124.2467Z"/><path class="cls-3" d="M138.65473,124.3164H100.07035a6.25884,6.25884,0,0,0-6.26169,6.25568v38.58438a6.25991,6.25991,0,0,0,6.26169,6.25693h38.58438a6.25584,6.25584,0,0,0,6.25693-6.25693V130.57208A6.25477,6.25477,0,0,0,138.65473,124.3164Z"/><path class="cls-4" d="M58.44853,124.23646h-32.351a5.2477,5.2477,0,0,0-5.25011,5.24506v32.351a5.24861,5.24861,0,0,0,5.25011,5.24612h32.351a5.2452,5.2452,0,0,0,5.24611-5.24612v-32.351A5.24429,5.24429,0,0,0,58.44853,124.23646Z"/><path class="cls-5" d="M66.10134,195.28979H39.71181a4.28068,4.28068,0,0,0-4.28264,4.27853v26.38953a4.28142,4.28142,0,0,0,4.28264,4.27939H66.10134a4.27864,4.27864,0,0,0,4.27939-4.27939V199.56832A4.2779,4.2779,0,0,0,66.10134,195.28979Z"/><path class="cls-6" d="M75.2992,124.2935h11.059a1.79466,1.79466,0,0,1,1.79466,1.79466V137.1451a1.7933,1.7933,0,0,1-1.7933,1.7933h-11.06a1.7933,1.7933,0,0,1-1.7933-1.7933V126.08644A1.79294,1.79294,0,0,1,75.2992,124.2935Z"/><path class="cls-7" d="M107.26913,149.95128H61.6826a7.39466,7.39466,0,0,0-7.398,7.39093v45.58653a7.39593,7.39593,0,0,0,7.398,7.39242h45.58653a7.39112,7.39112,0,0,0,7.39241-7.39242V157.34221A7.38985,7.38985,0,0,0,107.26913,149.95128Z"/><path class="cls-8" d="M12.58578,135.09444h15.9518a2.58578,2.58578,0,0,1,2.58578,2.58578V153.627a2.58826,2.58826,0,0,1-2.58826,2.58826H12.58629A2.58629,2.58629,0,0,1,10,153.629v-15.9488A2.58578,2.58578,0,0,1,12.58578,135.09444Z"/></g></svg>