<?xml version="1.0" encoding="utf-8"?>
<!-- Generator: Adobe Illustrator 23.0.2, SVG Export Plug-In . SVG Version: 6.00 Build 0)  -->
<svg version="1.1" id="Layer_1" xmlns="http://www.w3.org/2000/svg" xmlns:xlink="http://www.w3.org/1999/xlink" x="0px" y="0px"
	 viewBox="0 0 400 245" style="enable-background:new 0 0 400 245;" xml:space="preserve">
<style type="text/css">
	.st0{fill:#20D6F5;}
	.st1{fill:#333333;}
	.st2{fill:url(#SVGID_1_);}
	.st3{fill:url(#SVGID_2_);}
	.st4{fill:url(#SVGID_3_);}
	.st5{fill:url(#SVGID_4_);}
	.st6{fill:url(#SVGID_5_);}
	.st7{fill:url(#SVGID_6_);}
	.st8{fill:url(#SVGID_7_);}
	.st9{fill:url(#SVGID_8_);}
	.st10{fill:url(#SVGID_9_);}
	.st11{fill:url(#SVGID_10_);}
	.st12{fill:url(#SVGID_11_);}
	.st13{fill:url(#SVGID_12_);}
	.st14{fill:#F37032;}
	.st15{fill:#58595B;}
	.st16{fill:#FFFFFF;}
	.st17{fill:#2C2523;}
	.st18{fill-rule:evenodd;clip-rule:evenodd;fill:#337E3D;}
	.st19{fill-rule:evenodd;clip-rule:evenodd;fill:#8BBF45;}
	.st20{fill:#2A2E7C;}
	.st21{fill:#43B4E4;}
	.st22{fill:url(#SVGID_13_);}
	.st23{fill:url(#SVGID_14_);}
	.st24{fill:url(#SVGID_15_);}
	.st25{fill:url(#SVGID_16_);}
	.st26{fill:url(#SVGID_17_);}
	.st27{fill:url(#SVGID_18_);}
	.st28{fill:url(#SVGID_19_);}
	.st29{fill:#E1251B;}
	.st30{fill:none;}
	.st31{fill:#4D4D4D;}
	.st32{fill:#A0CC40;}
	.st33{fill:#A682B8;}
	.st34{fill:#917A81;}
	.st35{fill:#E1496D;}
	.st36{fill:#C82A5C;}
	.st37{fill:#EA8096;}
	.st38{fill:#C04A7D;}
	.st39{fill:#C9DF91;}
	.st40{fill:#BD8549;}
	.st41{fill:#8B63A9;}
	.st42{fill:#0078BA;}
	.st43{fill:#231F20;}
	.st44{fill:#536657;}
	.st45{fill:#00A75D;}
	.st46{fill:#182B4F;}
	.st47{fill:#3665B0;}
	.st48{fill:#008FC8;}
	.st49{fill:#00A9E8;}
	.st50{fill:#29C2E3;}
	.st51{fill-rule:evenodd;clip-rule:evenodd;fill:url(#in_sf_base_1_);}
	.st52{fill-rule:evenodd;clip-rule:evenodd;fill:url(#in_sf_base_2_);}
	.st53{fill-rule:evenodd;clip-rule:evenodd;fill:url(#SVGID_20_);}
	.st54{fill-rule:evenodd;clip-rule:evenodd;fill:url(#out_sf_base_1_);}
	.st55{opacity:0.74;fill-rule:evenodd;clip-rule:evenodd;fill:url(#SVGID_21_);}
	.st56{fill-rule:evenodd;clip-rule:evenodd;fill:url(#in_up_right_1_);}
	.st57{fill-rule:evenodd;clip-rule:evenodd;fill:url(#in_up_right_2_);}
	.st58{fill-rule:evenodd;clip-rule:evenodd;fill:url(#SVGID_22_);}
	.st59{opacity:0.9;fill-rule:evenodd;clip-rule:evenodd;fill:url(#SVGID_23_);}
	.st60{fill:#241D1E;}
	.st61{fill:#727172;}
	.st62{fill:#5C5B5B;}
	.st63{opacity:0.2;fill-rule:evenodd;clip-rule:evenodd;fill:url(#SVGID_24_);}
	.st64{opacity:0.2;fill-rule:evenodd;clip-rule:evenodd;fill:url(#SVGID_25_);fill-opacity:0.42;}
	.st65{opacity:0.5;fill:#C5C5C4;}
	.st66{fill-rule:evenodd;clip-rule:evenodd;fill:url(#SVGID_26_);}
	.st67{opacity:0.9;fill-rule:evenodd;clip-rule:evenodd;fill:url(#SVGID_27_);}
	.st68{fill:url(#wing_low_sf_1_);}
	.st69{fill-rule:evenodd;clip-rule:evenodd;fill:url(#SVGID_28_);}
	.st70{fill-rule:evenodd;clip-rule:evenodd;fill:url(#SVGID_29_);}
	.st71{fill-rule:evenodd;clip-rule:evenodd;fill:url(#SVGID_30_);}
	.st72{fill-rule:evenodd;clip-rule:evenodd;fill:url(#SVGID_31_);}
	.st73{fill-rule:evenodd;clip-rule:evenodd;fill:#454242;}
	.st74{fill:#C5C5C4;}
	.st75{fill:url(#SVGID_32_);fill-opacity:0.8;}
	.st76{fill:#454242;}
	.st77{fill-rule:evenodd;clip-rule:evenodd;fill:url(#SVGID_33_);}
	.st78{fill-rule:evenodd;clip-rule:evenodd;fill:#DADBDA;}
	.st79{fill-rule:evenodd;clip-rule:evenodd;fill:url(#SVGID_34_);}
	.st80{fill-rule:evenodd;clip-rule:evenodd;fill:url(#SVGID_35_);}
	.st81{fill-rule:evenodd;clip-rule:evenodd;fill:url(#SVGID_36_);}
	.st82{fill-rule:evenodd;clip-rule:evenodd;fill:url(#SVGID_37_);}
	.st83{fill:#005BAB;}
	.st84{fill:url(#SVGID_38_);}
	.st85{fill:url(#SVGID_39_);}
	.st86{fill:#ED2924;}
	.st87{fill:#2F3A79;}
	.st88{fill-rule:evenodd;clip-rule:evenodd;fill:#E13A3E;}
	.st89{fill-rule:evenodd;clip-rule:evenodd;fill:#231F20;}
</style>
<g>
	<path class="st30" d="M247.89,88.91c-1.65,1.24-2.8,2.68-3.45,4.33c-0.65,1.65-0.97,3.47-0.97,5.44c0,1.67,0.19,3.05,0.57,4.16
		c0.38,1.1,0.92,2,1.62,2.68c0.7,0.68,1.55,1.16,2.54,1.45c0.99,0.28,2.07,0.43,3.25,0.43c1.06,0,2.15-0.05,3.28-0.17
		c1.12-0.11,2.27-0.33,3.45-0.66c1.18-0.32,2.37-0.77,3.59-1.34c1.22-0.57,2.45-1.29,3.7-2.16V84.5c-4.41,0.19-8.02,0.67-10.85,1.43
		C251.78,86.68,249.54,87.68,247.89,88.91z"/>
	<path class="st30" d="M379.52,70.29c-1.18-1.8-2.7-3.24-4.56-4.3c-1.86-1.06-4.12-1.59-6.78-1.59c-2.39,0-4.51,0.55-6.35,1.65
		c-1.84,1.1-3.37,2.61-4.58,4.53c-1.22,1.92-2.14,4.2-2.76,6.84c-0.63,2.64-0.94,5.5-0.94,8.57c0,2.51,0.27,5.05,0.83,7.63
		c0.55,2.58,1.42,4.94,2.62,7.06c1.19,2.13,2.73,3.87,4.61,5.21c1.88,1.35,4.13,2.03,6.75,2.03c2.51,0,4.67-0.68,6.49-2.05
		c1.82-1.37,3.32-3.17,4.5-5.41c1.18-2.24,2.05-4.76,2.62-7.57c0.57-2.81,0.85-5.68,0.85-8.6c0-2.7-0.26-5.25-0.77-7.66
		C381.54,74.2,380.7,72.09,379.52,70.29z"/>
	<polygon class="st31" points="128.42,105.06 89.91,105.06 89.91,27.37 74.25,27.37 74.25,116.62 128.42,116.62 	"/>
	<path class="st31" d="M136.4,41.63c0.74,0.78,1.61,1.41,2.62,1.88c1,0.48,2.08,0.71,3.22,0.71c1.22,0,2.31-0.23,3.3-0.68
		c0.99-0.46,1.84-1.06,2.56-1.82c0.72-0.76,1.27-1.63,1.65-2.62c0.38-0.99,0.57-2.03,0.57-3.13c0-1.1-0.19-2.16-0.57-3.16
		c-0.38-1-0.93-1.88-1.65-2.62c-0.72-0.74-1.58-1.33-2.56-1.77c-0.99-0.43-2.09-0.65-3.3-0.65c-1.14,0-2.21,0.2-3.22,0.6
		c-1.01,0.4-1.88,0.96-2.62,1.68c-0.74,0.72-1.33,1.58-1.77,2.57c-0.43,0.99-0.65,2.07-0.65,3.24c0,1.06,0.22,2.1,0.65,3.11
		C135.07,39.96,135.66,40.86,136.4,41.63z"/>
	<rect x="134.72" y="55.1" class="st31" width="14.81" height="61.52"/>
	<path class="st31" d="M189.15,65.56c1.22-0.17,2.35-0.25,3.42-0.25c1.82,0,3.44,0.24,4.84,0.71c1.4,0.48,2.59,1.24,3.56,2.28
		c0.97,1.05,1.7,2.42,2.19,4.13c0.49,1.71,0.74,3.8,0.74,6.27v37.94h14.81V75.9c0-3.42-0.59-6.48-1.77-9.17
		c-1.18-2.7-2.78-4.97-4.81-6.84c-2.03-1.86-4.42-3.28-7.18-4.27c-2.75-0.99-5.72-1.48-8.91-1.48c-1.94,0-3.8,0.2-5.58,0.59
		c-1.79,0.4-3.45,0.93-4.99,1.59c-1.54,0.67-2.95,1.42-4.24,2.25c-1.29,0.84-2.39,1.67-3.3,2.51c-0.08-0.49-0.16-1.03-0.26-1.62
		c-0.1-0.59-0.21-1.16-0.34-1.71c-0.14-0.55-0.26-1.06-0.37-1.54c-0.11-0.47-0.23-0.84-0.34-1.11h-13.96
		c0.38,1.97,0.6,3.92,0.66,5.84c0.05,1.92,0.08,3.49,0.08,4.7v50.98h14.81V69.06c1.06-0.57,2.21-1.08,3.45-1.54
		c1.23-0.46,2.49-0.85,3.76-1.19C186.69,65.99,187.94,65.73,189.15,65.56z"/>
	<path class="st31" d="M286.48,107.57c-0.84,0.11-1.41,0.17-1.71,0.17c-0.84,0-1.54-0.1-2.11-0.31c-0.57-0.21-1.04-0.57-1.39-1.08
		c-0.36-0.51-0.62-1.21-0.77-2.11c-0.15-0.89-0.23-2-0.23-3.33V73.45c0-3.34-0.7-6.24-2.11-8.69c-1.4-2.45-3.28-4.45-5.64-6.01
		c-2.35-1.56-5.05-2.71-8.09-3.47c-3.04-0.76-6.21-1.14-9.51-1.14c-4.9,0-9.57,0.82-14.01,2.48c-4.44,1.65-8.28,3.94-11.51,6.86
		l7.8,8.89c1.71-1.63,3.27-2.97,4.67-4.02c1.41-1.04,2.76-1.88,4.07-2.51c1.31-0.63,2.61-1.06,3.9-1.31
		c1.29-0.24,2.66-0.37,4.1-0.37c1.71,0,3.27,0.22,4.67,0.65c1.41,0.44,2.61,1.11,3.62,2.02c1,0.91,1.79,2.09,2.36,3.53
		c0.57,1.44,0.85,3.17,0.85,5.19v2.22c-3.23,0-6.4,0.14-9.51,0.4c-3.11,0.27-6.07,0.72-8.86,1.37c-2.79,0.65-5.36,1.53-7.72,2.65
		c-2.35,1.12-4.39,2.54-6.09,4.24s-3.05,3.75-4.02,6.12c-0.97,2.38-1.45,5.14-1.45,8.29c0,2.81,0.42,5.27,1.25,7.38
		c0.84,2.11,2.03,3.87,3.59,5.3c1.56,1.43,3.44,2.5,5.64,3.22c2.2,0.72,4.69,1.08,7.46,1.08c1.63,0,3.31-0.11,5.04-0.34
		s3.46-0.63,5.19-1.2c1.73-0.57,3.45-1.35,5.15-2.33c1.71-0.99,3.36-2.22,4.96-3.7c0.53,2.43,1.76,4.3,3.68,5.61
		c1.92,1.31,4.3,1.97,7.15,1.97c1.52,0,2.91-0.11,4.19-0.34c1.27-0.23,2.45-0.52,3.53-0.89c1.08-0.36,2.1-0.78,3.05-1.28
		c0.95-0.49,1.88-1.03,2.79-1.59l-1.59-6.55C288.12,107.32,287.32,107.45,286.48,107.57z M265.46,103.07
		c-1.25,0.87-2.49,1.59-3.7,2.16c-1.22,0.57-2.41,1.02-3.59,1.34c-1.18,0.32-2.33,0.54-3.45,0.66c-1.12,0.11-2.21,0.17-3.28,0.17
		c-1.18,0-2.26-0.14-3.25-0.43c-0.99-0.29-1.83-0.77-2.54-1.45c-0.7-0.68-1.24-1.58-1.62-2.68c-0.38-1.1-0.57-2.49-0.57-4.16
		c0-1.97,0.32-3.79,0.97-5.44c0.65-1.65,1.79-3.09,3.45-4.33c1.65-1.23,3.89-2.23,6.72-2.99c2.83-0.76,6.45-1.24,10.85-1.43V103.07z
		"/>
	<path class="st31" d="M295.72,60c0.02,1.03,0.04,2.03,0.05,3.02c0.02,0.99,0.03,1.8,0.03,2.45v51.15h14.92l-0.11-40.27
		c1.59-2.73,3.65-4.94,6.18-6.61c2.52-1.67,5.55-2.51,9.08-2.51c1.03,0,2.06,0.11,3.11,0.31c1.04,0.21,2.17,0.6,3.39,1.17
		l3.19-13.39c-0.61-0.27-1.42-0.53-2.45-0.8c-1.03-0.27-2.58-0.4-4.67-0.4c-1.67,0-3.43,0.38-5.27,1.14
		c-1.84,0.76-3.6,1.76-5.27,2.99c-1.67,1.24-3.19,2.65-4.56,4.24c-1.37,1.59-2.41,3.23-3.13,4.9c-0.34-4.18-0.91-8.28-1.71-12.3
		h-13.1c0.08,0.46,0.14,1.13,0.2,2.02C295.66,58.02,295.7,58.98,295.72,60z"/>
	<path class="st31" d="M396.75,73.76c-1.16-3.93-2.95-7.35-5.38-10.25c-2.43-2.9-5.53-5.19-9.28-6.86
		c-3.76-1.67-8.24-2.51-13.44-2.51c-5.2,0-9.73,0.84-13.58,2.51c-3.86,1.67-7.05,3.93-9.6,6.78c-2.54,2.85-4.44,6.15-5.7,9.91
		c-1.25,3.76-1.88,7.75-1.88,11.96c0,4.97,0.67,9.49,2.02,13.53c1.35,4.05,3.33,7.5,5.95,10.37c2.62,2.87,5.86,5.08,9.71,6.64
		s8.29,2.34,13.3,2.34c4.6,0,8.72-0.84,12.39-2.51c3.66-1.67,6.78-3.95,9.34-6.84c2.56-2.89,4.52-6.26,5.86-10.11
		c1.35-3.85,2.02-7.96,2.02-12.33C398.49,81.9,397.91,77.69,396.75,73.76z M381.97,92.87c-0.57,2.81-1.44,5.33-2.62,7.57
		c-1.18,2.24-2.68,4.05-4.5,5.41c-1.82,1.37-3.99,2.05-6.49,2.05c-2.62,0-4.87-0.68-6.75-2.03c-1.88-1.35-3.42-3.08-4.61-5.21
		c-1.2-2.13-2.07-4.48-2.62-7.06c-0.55-2.58-0.83-5.13-0.83-7.63c0-3.08,0.31-5.93,0.94-8.57c0.62-2.64,1.55-4.92,2.76-6.84
		c1.22-1.92,2.74-3.43,4.58-4.53c1.84-1.1,3.96-1.65,6.35-1.65c2.66,0,4.92,0.53,6.78,1.59c1.86,1.06,3.38,2.5,4.56,4.3
		c1.18,1.81,2.02,3.91,2.54,6.32c0.51,2.41,0.77,4.97,0.77,7.66C382.82,87.19,382.54,90.06,381.97,92.87z"/>
	<path class="st32" d="M166.34,126.2h-33.25c-2.98,0-5.4,2.41-5.4,5.39v33.25c0,2.98,2.41,5.39,5.4,5.39h33.25
		c2.98,0,5.39-2.41,5.39-5.39v-33.25C171.73,128.61,169.32,126.2,166.34,126.2z"/>
	<path class="st32" d="M112.33,126.2H79.08c-2.98,0-5.4,2.41-5.4,5.39v16.69h11.94c3.38,0,6.12,2.74,6.12,6.12v15.83h20.59
		c2.98,0,5.39-2.41,5.39-5.39v-33.25C117.72,128.61,115.31,126.2,112.33,126.2z"/>
	<path class="st32" d="M221.97,126.2h-33.25c-2.98,0-5.4,2.41-5.4,5.39v33.25c0,2.98,2.42,5.39,5.4,5.39h33.25
		c2.98,0,5.4-2.41,5.4-5.39v-33.25C227.37,128.61,224.95,126.2,221.97,126.2z"/>
	<path class="st32" d="M277.61,126.2h-33.25c-2.98,0-5.4,2.41-5.4,5.39v33.25c0,2.98,2.42,5.39,5.4,5.39h33.25
		c2.98,0,5.39-2.41,5.39-5.39v-33.25C283.01,128.61,280.59,126.2,277.61,126.2z"/>
	<path class="st32" d="M333.25,126.2H300c-2.98,0-5.4,2.41-5.4,5.39v33.25c0,2.98,2.41,5.39,5.4,5.39h33.25
		c2.98,0,5.4-2.41,5.4-5.39v-33.25C338.64,128.61,336.22,126.2,333.25,126.2z"/>
	<path class="st32" d="M388.88,126.2h-33.25c-2.98,0-5.4,2.41-5.4,5.39v33.25c0,2.98,2.41,5.39,5.4,5.39h33.25
		c2.98,0,5.4-2.41,5.4-5.39v-33.25C394.28,128.61,391.86,126.2,388.88,126.2z"/>
	<path class="st33" d="M73.68,164.84v-16.56H47.86v9.89c0,2.7-2.19,4.9-4.9,4.9h-3.29v24.32h9.38c2.54,0,4.6,2.05,4.6,4.6v8.37
		h31.98c3.38,0,6.12-2.74,6.12-6.12v-24H79.08C76.1,170.23,73.68,167.82,73.68,164.84z"/>
	<path class="st34" d="M85.62,148.28H73.68v16.56c0,2.98,2.41,5.39,5.4,5.39h12.66V154.4C91.74,151.02,89,148.28,85.62,148.28z"/>
	<path class="st35" d="M45.8,148.28h2.06V131.1c0-2.7-2.19-4.9-4.9-4.9H15.88c-2.7,0-4.9,2.19-4.9,4.9v4.35h5.84
		c1.69,0,3.06,1.37,3.06,3.06v12.24c0,1.69-1.37,3.06-3.06,3.06h-5.84v4.35c0,2.7,2.19,4.9,4.9,4.9h23.78v-8.66
		C39.67,151.02,42.41,148.28,45.8,148.28z"/>
	<path class="st36" d="M47.86,158.17v-9.89H45.8c-3.38,0-6.13,2.74-6.13,6.12v8.66h3.29C45.66,163.07,47.86,160.87,47.86,158.17z"/>
	<path class="st37" d="M39.67,194.23v-6.84H27.99c-2.54,0-4.59,2.05-4.59,4.6v21.06c0,2.54,2.05,4.59,4.59,4.59h21.06
		c2.54,0,4.6-2.05,4.6-4.59v-12.69H45.8C42.41,200.35,39.67,197.61,39.67,194.23z"/>
	<path class="st38" d="M49.04,187.39h-9.38v6.84c0,3.38,2.74,6.12,6.13,6.12h7.84v-8.37C53.64,189.45,51.59,187.39,49.04,187.39z"/>
	<path class="st39" d="M4.58,135.45c-1.69,0-3.06,1.37-3.06,3.06v12.24c0,1.69,1.37,3.06,3.06,3.06h6.41v-18.37H4.58z"/>
	<path class="st40" d="M19.88,150.75v-12.24c0-1.69-1.37-3.06-3.06-3.06h-5.84v18.37h5.84C18.51,153.82,19.88,152.45,19.88,150.75z"
		/>
	<path class="st41" d="M58.31,139.13h8.44c1.16,0,2.11-0.95,2.11-2.11v-8.44c0-1.16-0.95-2.11-2.11-2.11h-8.44
		c-1.16,0-2.11,0.95-2.11,2.11v8.44C56.2,138.19,57.15,139.13,58.31,139.13z"/>
</g>
</svg>
