<?xml version="1.0" encoding="UTF-8" standalone="no"?>
<svg
   xmlns:dc="http://purl.org/dc/elements/1.1/"
   xmlns:cc="http://creativecommons.org/ns#"
   xmlns:rdf="http://www.w3.org/1999/02/22-rdf-syntax-ns#"
   xmlns:svg="http://www.w3.org/2000/svg"
   xmlns="http://www.w3.org/2000/svg"
   viewBox="0 0 468.26666 177.66667"
   height="177.66667"
   width="468.26666"
   xml:space="preserve"
   id="svg2"
   version="1.1"><metadata
     id="metadata8"><rdf:RDF><cc:Work
         rdf:about=""><dc:format>image/svg+xml</dc:format><dc:type
           rdf:resource="http://purl.org/dc/dcmitype/StillImage" /></cc:Work></rdf:RDF></metadata><defs
     id="defs6" /><g
     transform="matrix(1.3333333,0,0,-1.3333333,0,177.66667)"
     id="g10"><g
       transform="scale(0.1)"
       id="g12"><path
         id="path14"
         style="fill:#2b2f31;fill-opacity:1;fill-rule:nonzero;stroke:none"
         d="M 647.715,1100.39 549.723,1155.92 352.313,755.93 141.77,1155.92 42.4609,1100.39 292.734,630.211 c -1.793,-4.457 -7.531,-16.777 -17.175,-37.164 -9.782,-19.434 -19.871,-38.867 -30.477,-58.297 -18.594,-33.555 -37.48,-60.844 -56.93,-82.078 C 168.727,430.586 148.855,412.961 128.469,399.688 108.188,386.418 87.0703,376.328 64.9688,369.215 43.7344,362.207 22.0703,356.469 0,352.012 L 45.1289,257.93 c 14.1328,1.808 33.0195,6.269 56.9101,13.281 24.742,6.148 51.609,18.16 80.793,35.777 29.109,17.621 58.746,42.793 88.676,75.496 31.008,32.707 59.664,75.922 86.113,129.758 l 290.094,588.148" /><path
         id="path16"
         style="fill:#2b2f31;fill-opacity:1;fill-rule:nonzero;stroke:none"
         d="m 1183.51,807.641 c 0,-30.899 -5.29,-59.571 -15.93,-86.118 -10.63,-26.433 -25.16,-49.476 -43.62,-68.804 -17.75,-18.578 -38.88,-33.555 -63.61,-45.125 -23.9,-10.516 -49.92,-15.821 -78.147,-15.821 -28.242,0 -54.805,5.305 -79.437,15.821 -24.731,11.57 -46.403,26.547 -64.985,45.125 -17.625,19.328 -31.746,42.371 -42.351,68.804 -10.633,26.547 -15.926,55.219 -15.926,86.118 0,30.898 5.293,59.566 15.926,86.113 10.605,26.441 24.726,49.375 42.351,68.805 18.582,19.433 40.254,34.511 64.985,45.021 24.632,11.58 51.195,17.31 79.437,17.31 28.227,0 54.247,-5.73 78.147,-17.31 24.73,-10.51 45.86,-25.588 63.61,-45.021 18.46,-19.43 32.99,-42.364 43.62,-68.805 10.64,-26.547 15.93,-55.215 15.93,-86.113 m 123.17,0 c 0,45.871 -8.37,88.769 -25.18,128.484 -15.92,39.711 -38.43,74.105 -67.52,103.315 -29.19,29.09 -63.6,51.61 -103.32,67.53 -39.71,16.78 -82.6,25.16 -128.457,25.16 -45.887,0 -88.781,-8.38 -128.492,-25.16 -39.719,-15.92 -74.207,-38.44 -103.328,-67.53 -29.082,-29.21 -52.141,-63.604 -68.903,-103.315 -16.777,-39.715 -25.175,-82.613 -25.175,-128.484 0,-45.871 8.398,-88.77 25.175,-128.481 16.762,-38.863 39.821,-72.844 68.903,-101.933 29.121,-29.204 63.609,-52.137 103.328,-68.914 39.711,-15.93 82.605,-23.895 128.492,-23.895 45.857,0 88.747,7.965 128.457,23.895 39.72,16.777 74.13,39.71 103.32,68.914 29.09,29.089 51.6,63.07 67.52,101.933 16.81,39.711 25.18,82.61 25.18,128.481" /><path
         id="path18"
         style="fill:#2b2f31;fill-opacity:1;fill-rule:nonzero;stroke:none"
         d="m 2926.07,807.641 c 0,-30.899 -5.3,-59.571 -15.92,-86.118 -10.62,-26.433 -25.17,-49.476 -43.75,-68.804 -17.63,-18.578 -38.75,-33.555 -63.49,-45.125 -23.9,-10.516 -49.91,-15.821 -78.15,-15.821 -28.25,0 -54.8,5.305 -79.54,15.821 -24.63,11.57 -46.29,26.547 -64.87,45.125 -17.63,19.328 -31.75,42.371 -42.37,68.804 -10.62,26.547 -15.93,55.219 -15.93,86.118 0,30.898 5.31,59.566 15.93,86.113 10.62,26.441 24.74,49.375 42.37,68.805 18.58,19.433 40.24,34.511 64.87,45.021 24.74,11.58 51.29,17.31 79.54,17.31 28.24,0 54.25,-5.73 78.15,-17.31 24.74,-10.51 45.86,-25.588 63.49,-45.021 18.58,-19.43 33.13,-42.364 43.75,-68.805 10.62,-26.547 15.92,-55.215 15.92,-86.113 m 123.18,0 c 0,45.871 -8.39,88.769 -25.17,128.484 -15.93,39.711 -38.44,74.105 -67.53,103.315 -29.2,29.09 -63.6,51.61 -103.32,67.53 -39.71,16.78 -82.6,25.16 -128.47,25.16 -45.98,0 -88.77,-8.38 -128.49,-25.16 -39.71,-15.92 -74.22,-38.44 -103.31,-67.53 -29.1,-29.21 -52.14,-63.604 -68.92,-103.315 -16.77,-39.715 -25.16,-82.613 -25.16,-128.484 0,-45.871 8.39,-88.77 25.16,-128.481 16.78,-38.863 39.82,-72.844 68.92,-101.933 29.09,-29.204 63.6,-52.137 103.31,-68.914 39.72,-15.93 82.51,-23.895 128.49,-23.895 45.87,0 88.76,7.965 128.47,23.895 39.72,16.777 74.12,39.71 103.32,68.914 29.09,29.089 51.6,63.07 67.53,101.933 16.78,39.711 25.17,82.61 25.17,128.481" /><path
         id="path20"
         style="fill:#6796d6;fill-opacity:1;fill-rule:nonzero;stroke:none"
         d="m 3511.99,808.277 c 0,-37.164 -30.05,-67.32 -67.32,-67.32 -37.16,0 -67.21,30.156 -67.21,67.32 0,37.161 30.05,67.321 67.21,67.321 37.27,0 67.32,-30.16 67.32,-67.321 v 0" /><path
         id="path22"
         style="fill:#2b2f31;fill-opacity:1;fill-rule:nonzero;stroke:none"
         d="m 2175.89,1332.5 -117.97,-66.25 v -144.84 h -319.06 c -230.32,0 -369.01,-112.23 -369.01,-316.637 0,-317.488 330.76,-377.371 565.97,-263.867 l -49.59,96.203 c -186.14,-81.332 -392.24,-46.718 -392.24,169.786 0,139.738 72.64,216.195 242.1,216.195 h 321.83 V 637.109 c 0,-170.632 195.49,-174.457 316.65,-104.48 l -46.65,92.059 c -77.91,-39.5 -152.03,-44.594 -152.03,31.113 v 367.289 h 161.4 v 98.32 h -161.4 v 211.09 0" /><path
         id="path24"
         style="fill:#2b2f31;fill-opacity:1;fill-rule:nonzero;stroke:none"
         d="m 843.516,189.969 h 29.414 c 14.968,0.113 29.515,-10.508 29.515,-25.59 0,-25.16 -28.457,-29.09 -28.457,-29.09 l -30.472,-0.098 v 54.778 0 0 z M 800.945,226.07 V 3.19922 h 42.571 l 0.543,93.98048 c 75.921,-4.7891 104.269,21.6603 104.269,68.2693 0,41.84 -37.601,60.621 -73.582,60.621 h -73.801 v 0" /><path
         id="path26"
         style="fill:#2b2f31;fill-opacity:1;fill-rule:nonzero;stroke:none"
         d="m 1614.93,114.48 c 0,-10.941 -1.89,-21.0191 -5.96,-30.48 -3.69,-9.1289 -9.02,-17.1914 -15.92,-24.1016 -6.91,-6.8984 -14.95,-12.3086 -24.2,-16.3593 -9.24,-3.7071 -19.1,-5.6172 -29.84,-5.6172 -10.63,0 -20.61,1.9101 -29.74,5.6172 -9.24,4.0507 -17.28,9.4609 -24.19,16.3593 -6.69,6.9102 -12.02,14.9727 -16.04,24.1016 -3.94,9.4609 -5.95,19.539 -5.95,30.48 0,10.829 2.01,20.918 5.95,30.161 4.02,9.328 9.35,17.519 16.04,24.41 6.91,6.91 14.95,12.219 24.19,16.039 9.13,3.93 19.11,5.949 29.74,5.949 10.74,0 20.6,-2.019 29.84,-5.949 9.25,-3.82 17.29,-9.129 24.2,-16.039 6.9,-6.891 12.23,-15.082 15.92,-24.41 4.07,-9.243 5.96,-19.332 5.96,-30.161 m 43.33,0 c 0,15.93 -3.1,30.692 -9.35,44.59 -6.17,13.918 -14.54,26.129 -25.47,36.321 -10.63,10.3 -23.26,18.371 -37.92,24.211 -14.44,6.046 -30.04,9.027 -46.84,9.027 -16.66,0 -32.37,-2.981 -47.02,-9.027 -14.43,-5.84 -26.96,-13.911 -37.59,-24.211 -10.72,-10.192 -19.22,-22.403 -25.48,-36.321 -6.06,-13.898 -9.02,-28.66 -9.02,-44.59 0,-16.1402 2.96,-31.1089 9.02,-44.9214 6.26,-13.7969 14.76,-25.9102 25.48,-36.3086 10.63,-10.3008 23.16,-18.3711 37.59,-24.21094 14.65,-5.83984 30.36,-8.82031 47.02,-8.82031 16.8,0 32.4,2.98047 46.84,8.82031 14.66,5.83984 27.29,13.91014 37.92,24.21094 10.93,10.3984 19.3,22.5117 25.47,36.3086 6.25,13.8125 9.35,28.7812 9.35,44.9214" /><path
         id="path28"
         style="fill:#2b2f31;fill-opacity:1;fill-rule:nonzero;stroke:none"
         d="M 1832.08,225.648 V 56.7188 c 0,-6.7969 -5,-14.3399 -13.28,-14.5469 l -13.38,-0.5313 0.85,-41.42185 12.43,-0.2070312 C 1860.32,-0.628906 1874.76,38.5586 1874.76,56.8281 V 225.328" /><path
         id="path30"
         style="fill:#2b2f31;fill-opacity:1;fill-rule:nonzero;stroke:none"
         d="M 2194.79,226.18 H 2052.72 V 4.05078 h 142.71 l -0.74,35.78122 h -99.39 v 57.9766 h 83.14 V 133.59 h -83.14 v 56.18 h 98.75 l 0.74,36.41" /><path
         id="path32"
         style="fill:#2b2f31;fill-opacity:1;fill-rule:nonzero;stroke:none"
         d="M 2539.89,208.879 C 2438.38,261.539 2334,211.531 2334,115.441 2334,9.35938 2451.76,-25.6797 2541.16,23.4883 l -13.48,36.4101 C 2434.56,11.1602 2377.96,56.5 2377.96,115.441 c 0,73.149 71.67,97.36 144.31,57.438" /><path
         id="path34"
         style="fill:#2b2f31;fill-opacity:1;fill-rule:nonzero;stroke:none"
         d="m 2682.5,226.18 -0.96,-36.41 h 68.06 V 3.41016 h 42.69 V 189.77 h 70.93 l -0.11,36.41" /><path
         id="path36"
         style="fill:#2b2f31;fill-opacity:1;fill-rule:nonzero;stroke:none"
         d="m 1159.62,189.969 h 29.52 c 14.86,0.113 29.41,-10.508 29.41,-25.59 0,-25.16 -28.45,-29.09 -28.45,-29.09 l -30.48,-0.098 v 54.778 0 0 z m -42.56,36.101 V 3.19922 h 42.56 V 99.0781 h 28.14 l 49.28,-95.87888 h 48.3 L 1226.73,110.648 c 23.25,10.411 35.37,28.68 35.37,54.801 0,43.531 -38.13,60.621 -80.09,60.621 h -64.95 v 0" /></g></g></svg>