<?xml version="1.0" encoding="UTF-8"?> <!-- Generator: Adobe Illustrator 23.0.1, SVG Export Plug-In . SVG Version: 6.00 Build 0) --> <svg xmlns="http://www.w3.org/2000/svg" xmlns:xlink="http://www.w3.org/1999/xlink" id="Layer_1" x="0px" y="0px" viewBox="0 0 1390.5 554.6" style="enable-background:new 0 0 1390.5 554.6;" xml:space="preserve"> <style type="text/css"> .st0{fill:#10CFC9;} .st1{fill:#9164CC;} .st2{fill:#FFFFFF;} </style> <g> <path class="st0" d="M668.9,257.1H550.5l0,0h-95.1c-0.6,0-1.2,0-1.9,0l-19.2-35.9H601l-39.9-74.8h-167l-19.2-35.9h167.2l-40.9-74 H335.2L316,0.8l215.4-0.2L668.9,257.1z"></path> <polygon class="st0" points="807.8,0 695.1,211.8 583.4,0 "></polygon> <path class="st0" d="M721.7,257.1h118.4l0,0h95.2c0.7,0,1.2,0,1.9,0l19.2-35.9H789.7l39.9-74.8h166.8l19.2-35.9H848.5l40.7-74 h166.1l19.2-35.7L859.1,0.5L721.7,257.1z"></path> </g> <g> <path class="st1" d="M0,395.2c0,0.9,0.2,1.9,0.5,2.9c0.3,1.1,0.9,2.1,1.7,3.1c0.8,1,1.8,1.8,2.9,2.5c1.2,0.7,2.6,1,4.4,1h45.9 v-17.8H19v-28.8h33.6v-17.8H19v-22.7h36.5v-17.8H0V395.2z"></path> <path class="st1" d="M135,299.8l-56.2,0.7v104.2h15.6l1.5-4.6l22.2,6.8c1,0.2,1.9,0.3,2.7,0.3c2.8,0,5-0.4,6.3-1.3l12.8-7.8 c1.3-0.8,2.3-1.9,3-3.2c0.7-1.4,1.1-2.9,1.1-4.6v-82.1c0-2-0.8-3.9-2.3-5.7C140.1,300.7,137.9,299.8,135,299.8z M125,387.1 l-5.7,3.5l-21.5-5.3v-68.6H125V387.1z"></path> <path class="st1" d="M198.3,356.9H213v23.4l-15.5,8.7l-9.9-6.5v-65.8H213v13h17.1l1.5-29.9h-53.3c-1.8-0.1-3.2,0.2-4.4,0.9 c-1.2,0.7-2.2,1.5-2.9,2.5c-0.8,1-1.3,2-1.7,3.2c-0.3,1.1-0.5,2.1-0.5,3v76.1c0,1.7,0.4,3.2,1.1,4.6c0.7,1.4,1.7,2.5,3,3.2l20,13.1 c1.1,0.7,2.6,1,4.4,1c1.4,0,2.8-0.3,4.3-1l25.8-14.7c2.8-1.6,4.4-4.3,4.7-8.1v-43.3h-33.7V356.9z"></path> <path class="st1" d="M259.2,401.2c0.8,1,1.8,1.8,2.9,2.5c1.2,0.7,2.6,1,4.4,1h45.9v-17.8H276v-28.8h33.6v-17.8H276v-22.7h36.5 v-17.8H257v95.4c0,0.9,0.2,1.9,0.5,2.9C257.9,399.2,258.4,400.2,259.2,401.2z"></path> <path class="st1" d="M394.5,406.2l24.7-14c1.4-0.8,2.7-1.9,4-3.4c1.3-1.5,1.9-3.2,1.8-5.3v-83.8h-19v80.4l-15.5,8.8l-9.9-6.5v-82.7 h-19v85.5c0,1.7,0.4,3.2,1.1,4.6c0.7,1.4,1.7,2.5,3,3.2l20,13.1c1,0.7,2.5,1,4.7,1C391.7,407.2,393,406.9,394.5,406.2z"></path> <rect x="450.7" y="299.8" class="st1" width="19" height="104.9"></rect> <path class="st1" d="M554.2,303.3c-0.8-1-1.8-1.8-2.9-2.5c-1.2-0.7-2.6-1-4.4-1l-51.2,0.7v104.2h19v-38.6l7.7-1.7l15.1,18.1 l0.7,22.2h17.5l-0.7-25.8c-0.2-3.6-1.5-6.8-4-9.4l-9.3-9.8l5.2-1.2c3.3-0.8,5.8-2.2,7.3-4.3c1.5-2.1,2.3-3.9,2.3-5.6v-39.3 c0-0.9-0.2-1.9-0.5-2.9C555.5,305.3,555,304.3,554.2,303.3z M537.4,344.7l-22.8,5.4v-33.4h22.8V344.7z"></path> <polygon class="st1" points="575.4,317.3 596.9,317.3 596.9,404.7 615.8,404.7 615.8,317.3 637.3,317.3 637.3,299.8 575.4,299.8 "></polygon> <path class="st1" d="M700.6,377.6l-20.3,11.2l-5.4-3.5v-85.5h-19v88.5c0,1.7,0.4,3.2,1.1,4.6c0.7,1.4,1.7,2.5,3,3.2l15.6,10.2 c1,0.7,2.6,1,4.7,1c1.2,0,2.5-0.3,4-1L702,395h1.2l0.4,9.7h16V299.8h-19V377.6z"></path> <path class="st1" d="M805.6,311.3l-20-13.1c-1.1-0.7-2.6-1-4.4-1c-1.4,0-2.8,0.3-4.3,1l-26.3,14c-1.4,0.8-2.7,1.9-4,3.4 c-1.3,1.5-1.9,3.2-1.8,5.3v83.9h19v-37.2h26.9v37.2h19v-85.7c0-1.7-0.4-3.2-1.1-4.6C807.9,313.1,806.8,312,805.6,311.3z M790.7,350 h-26.9v-24.9l17.1-8.8l9.9,6.5V350z"></path> <path class="st1" d="M854.3,299.8h-19v95.4c0,0.9,0.2,1.9,0.5,3c0.3,1.1,0.9,2.2,1.7,3.2c0.8,1,1.8,1.8,2.9,2.5 c1.2,0.7,2.6,1,4.4,0.9h43v-17.7h-33.6V299.8z"></path> <rect x="906.7" y="299.8" class="st1" width="19" height="104.9"></rect> <polygon class="st1" points="1007.1,311 1007.1,299.8 948.6,299.8 948.6,317.3 984.7,317.3 947.5,393.2 947.5,404.7 1008.7,404.7 1008.7,386.9 969.8,386.9 "></polygon> <path class="st1" d="M1089.1,311.3l-20-13.1c-1.1-0.7-2.6-1-4.4-1c-1.4,0-2.8,0.3-4.3,1l-26.3,14c-1.4,0.8-2.7,1.9-4,3.4 c-1.3,1.5-1.9,3.2-1.8,5.3v83.9h19v-37.2h26.9v37.2h19v-85.7c0-1.7-0.4-3.2-1.1-4.6C1091.3,313.1,1090.3,312,1089.1,311.3z M1074.2,350h-26.9v-24.9l17.1-8.8l9.9,6.5V350z"></path> <polygon class="st1" points="1111.7,317.3 1133.2,317.3 1133.2,404.7 1152.2,404.7 1152.2,317.3 1173.7,317.3 1173.7,299.8 1111.7,299.8 "></polygon> <rect x="1192.5" y="299.8" class="st1" width="19" height="104.9"></rect> <path class="st1" d="M1299.8,303.3c-0.8-1-1.8-1.8-2.9-2.5c-1.2-0.7-2.6-1-4.4-1h-45.8c-1.8,0-3.2,0.3-4.4,1 c-1.2,0.7-2.2,1.5-2.9,2.5c-0.8,1-1.4,2-1.7,3.1c-0.3,1.1-0.5,2.1-0.5,2.9v76c0,1.7,0.4,3.2,1.1,4.6c0.7,1.4,1.7,2.5,3,3.2l20,13.1 c1.1,0.7,2.6,1,4.4,1c1.4,0,2.8-0.3,4.3-1l26.3-14c1.4-0.8,2.7-1.9,4-3.4c1.3-1.5,1.9-3.2,1.8-5.3v-74.2c0-0.9-0.2-1.9-0.5-2.9 C1301.2,305.3,1300.6,304.3,1299.8,303.3z M1283.1,380.1L1266,389l-9.9-6.5v-65.8h26.9V380.1z"></path> <path class="st1" d="M1390,306.4c-0.3-1.1-0.9-2.1-1.7-3.1c-0.8-1-1.8-1.8-2.9-2.5c-1.2-0.7-2.7-1-4.4-1h-12.5 c-3.8,0-7.4,1.1-10.6,3.4l-11.2,7.5h-0.6v-10.9h-18.8v104.9h19v-76.2l19.1-11.8h6.2v88h19v-95.4 C1390.5,308.5,1390.3,307.5,1390,306.4z"></path> </g> <g> <path class="st2" d="M472.5,542.3c0,0.9,0.2,1.9,0.5,2.9c0.3,1.1,0.9,2.1,1.7,3.1c0.8,1,1.8,1.8,2.9,2.5c1.2,0.7,2.6,1,4.4,1H528 v-17.8h-36.5v-28.8H525v-17.8h-33.6v-22.7H528V447h-55.5V542.3z"></path> <path class="st2" d="M612.3,450.5c-0.8-1-1.8-1.8-2.9-2.5c-1.2-0.7-2.6-1-4.4-1h-12.5c-3.8,0-7.4,1.1-10.6,3.4l-11.2,7.5h-0.6V447 h-18.8v104.9h19v-76.2l19.1-11.8h6.2v88h19v-95.4c0-0.9-0.2-1.9-0.5-2.9C613.7,452.5,613.1,451.5,612.3,450.5z"></path> <path class="st2" d="M669.7,504.1h14.7v23.4l-15.5,8.7l-9.9-6.5v-65.8h25.3v13h17.1L703,447h-53.3c-1.8-0.1-3.2,0.2-4.4,0.9 c-1.2,0.7-2.2,1.5-2.9,2.5c-0.8,1-1.3,2-1.7,3.2c-0.3,1.1-0.5,2.1-0.5,3v76.1c0,1.7,0.4,3.2,1.1,4.6c0.7,1.4,1.7,2.5,3,3.2l20,13.1 c1.1,0.7,2.6,1,4.4,1c1.4,0,2.8-0.3,4.3-1l25.8-14.7c2.8-1.6,4.4-4.3,4.7-8.1v-43.3h-33.7V504.1z"></path> <rect x="728.4" y="447" class="st2" width="19" height="104.9"></rect> <path class="st2" d="M834.4,450.5c-0.8-1-1.8-1.8-2.9-2.5c-1.2-0.7-2.6-1-4.4-1h-12.5c-3.8,0-7.4,1.1-10.6,3.4l-11.2,7.5h-0.6V447 h-18.8v104.9h19v-76.2l19.1-11.8h6.2v88h19v-95.4c0-0.9-0.2-1.9-0.5-2.9C835.8,452.5,835.2,451.5,834.4,450.5z"></path> <path class="st2" d="M862.5,542.3c0,0.9,0.2,1.9,0.5,2.9c0.3,1.1,0.9,2.1,1.7,3.1c0.8,1,1.8,1.8,2.9,2.5c1.2,0.7,2.6,1,4.4,1H918 v-17.8h-36.5v-28.8h33.6v-17.8h-33.6v-22.7H918V447h-55.5V542.3z"></path> </g> </svg> 