<svg id="Layer_1" data-name="Layer 1" xmlns="http://www.w3.org/2000/svg" viewBox="0 0 1390.5 554.59998"><defs><style>.cls-1{fill:#10cfc9;}.cls-2{fill:#9164cc;}</style></defs><title>download (8)</title><path class="cls-1" d="M668.9,257.1H453.5l-19.2-35.9H601l-39.9-74.8h-167l-19.2-35.9H542.1l-40.9-74h-166L316,.8,531.4.6Z"/><polygon class="cls-1" points="807.8 0 695.1 211.8 583.4 0 807.8 0"/><path class="cls-1" d="M721.7,257.1H937.20007l19.2-35.9H789.7l39.9-74.8H996.4l19.2-35.9H848.5l40.7-74h166.1L1074.5.8,859.1.5Z"/><path class="cls-2" d="M0,395.2a10.39692,10.39692,0,0,0,.5,2.9,8.64718,8.64718,0,0,0,1.7,3.1,11.62865,11.62865,0,0,0,2.9,2.5,8.43329,8.43329,0,0,0,4.4,1H55.4V386.9H19V358.1H52.6v-17.8H19V317.6H55.5v-17.8H0Z"/><path class="cls-2" d="M135,299.8l-56.2.7V404.7H94.4l1.5-4.6,22.2,6.8a13.90262,13.90262,0,0,0,2.7.3c2.8,0,5-.4,6.3-1.3l12.8-7.8a8.371,8.371,0,0,0,3-3.2,10.07122,10.07122,0,0,0,1.1-4.6V308.2a8.849,8.849,0,0,0-2.3-5.7A8.45145,8.45145,0,0,0,135,299.8Zm-10,87.3-5.7,3.5-21.5-5.3V316.7H125Z"/><path class="cls-2" d="M198.3,356.9H213v23.4L197.5,389l-9.9-6.5V316.7H213v13h17.1l1.5-29.9H178.3a7.57057,7.57057,0,0,0-4.4.9,8.91833,8.91833,0,0,0-2.9,2.5,9.87285,9.87285,0,0,0-1.7,3.2,11.72847,11.72847,0,0,0-.5,3v76.1a10.07115,10.07115,0,0,0,1.1,4.6,7.16779,7.16779,0,0,0,3,3.2l20,13.1a8.19833,8.19833,0,0,0,4.4,1,9.96123,9.96123,0,0,0,4.3-1l25.8-14.7c2.8-1.6,4.4-4.3,4.7-8.1v-43.3H198.4V356.9Z"/><path class="cls-2" d="M259.2,401.2a11.62829,11.62829,0,0,0,2.9,2.5,8.4333,8.4333,0,0,0,4.4,1h45.9V386.9H276V358.1h33.6v-17.8H276V317.6h36.5v-17.8H257v95.4a10.39729,10.39729,0,0,0,.5,2.9A10.51707,10.51707,0,0,0,259.2,401.2Z"/><path class="cls-2" d="M394.5,406.2l24.7-14a15.427,15.427,0,0,0,4-3.4,7.16017,7.16017,0,0,0,1.8-5.3V299.7H406v80.4l-15.5,8.8-9.9-6.5V299.7h-19v85.5a10.07115,10.07115,0,0,0,1.1,4.6,7.1679,7.1679,0,0,0,3,3.2l20,13.1c1,.7,2.5,1,4.7,1A8.0589,8.0589,0,0,0,394.5,406.2Z"/><rect class="cls-2" x="450.70001" y="299.79999" width="19" height="104.89999"/><path class="cls-2" d="M554.2,303.3a11.628,11.628,0,0,0-2.9-2.5,8.43331,8.43331,0,0,0-4.4-1l-51.2.7V404.7h19V366.1l7.7-1.7,15.1,18.1.7,22.2h17.5l-.7-25.8a14.341,14.341,0,0,0-4-9.4l-9.3-9.8,5.2-1.2c3.3-.8,5.8-2.2,7.3-4.3s2.3-3.9,2.3-5.6v-39.3a10.39729,10.39729,0,0,0-.5-2.9A13.8852,13.8852,0,0,0,554.2,303.3Zm-16.8,41.4-22.8,5.4V316.7h22.8Z"/><polygon class="cls-2" points="575.4 317.3 596.9 317.3 596.9 404.7 615.8 404.7 615.8 317.3 637.3 317.3 637.3 299.8 575.4 299.8 575.4 317.3"/><path class="cls-2" d="M700.6,377.6l-20.3,11.2-5.4-3.5V299.8h-19v88.5a10.07183,10.07183,0,0,0,1.1,4.6,7.16792,7.16792,0,0,0,3,3.2l15.6,10.2a8.42544,8.42544,0,0,0,4.7,1,9.39514,9.39514,0,0,0,4-1L702,395h1.2l.4,9.7h16V299.8h-19v77.8Z"/><path class="cls-2" d="M805.6,311.3l-20-13.1a8.19833,8.19833,0,0,0-4.4-1,9.96123,9.96123,0,0,0-4.3,1l-26.3,14a15.42637,15.42637,0,0,0-4,3.4,7.16,7.16,0,0,0-1.8,5.3v83.9h19V367.6h26.9v37.2h19V319.1a10.07183,10.07183,0,0,0-1.1-4.6A7.75553,7.75553,0,0,0,805.6,311.3ZM790.7,350H763.8V325.1l17.1-8.8,9.9,6.5V350Z"/><path class="cls-2" d="M854.3,299.8h-19v95.4a11.72876,11.72876,0,0,0,.5,3,9.04342,9.04342,0,0,0,1.7,3.2,11.628,11.628,0,0,0,2.9,2.5,7.57042,7.57042,0,0,0,4.4.9h43V387.1h-33.6V299.8Z"/><rect class="cls-2" x="906.70001" y="299.79999" width="19" height="104.89999"/><polygon class="cls-2" points="1007.1 311 1007.1 299.8 948.6 299.8 948.6 317.3 984.7 317.3 947.5 393.2 947.5 404.7 1008.7 404.7 1008.7 386.9 969.8 386.9 1007.1 311"/><path class="cls-2" d="M1089.1,311.3l-20-13.1a8.19833,8.19833,0,0,0-4.4-1,9.96148,9.96148,0,0,0-4.30005,1l-26.3,14a15.42767,15.42767,0,0,0-4,3.4,7.16013,7.16013,0,0,0-1.80005,5.3v83.9h19V367.6h26.9v37.2h19V319.1a10.07184,10.07184,0,0,0-1.1-4.6A8.452,8.452,0,0,0,1089.1,311.3ZM1074.2,350h-26.9V325.1l17.1-8.8,9.9,6.5V350Z"/><polygon class="cls-2" points="1111.7 317.3 1133.2 317.3 1133.2 404.7 1152.2 404.7 1152.2 317.3 1173.7 317.3 1173.7 299.8 1111.7 299.8 1111.7 317.3"/><rect class="cls-2" x="1192.5" y="299.79999" width="19" height="104.89999"/><path class="cls-2" d="M1299.80005,303.3a11.63,11.63,0,0,0-2.9-2.5,8.43312,8.43312,0,0,0-4.4-1H1246.7a8.43341,8.43341,0,0,0-4.4,1,8.91994,8.91994,0,0,0-2.9,2.5,8.64519,8.64519,0,0,0-1.69995,3.1,11.75072,11.75072,0,0,0-.5,2.9v76a10.07183,10.07183,0,0,0,1.1,4.6,7.16727,7.16727,0,0,0,3,3.2l20,13.1a8.19827,8.19827,0,0,0,4.4,1,9.96145,9.96145,0,0,0,4.30005-1l26.30005-14a15.42762,15.42762,0,0,0,4-3.4,7.16013,7.16013,0,0,0,1.80005-5.3v-74.2a10.3951,10.3951,0,0,0-.5-2.9A10.886,10.886,0,0,0,1299.80005,303.3ZM1283.1,380.1,1266,389l-9.9-6.5V316.7H1283v63.4Z"/><path class="cls-2" d="M1390,306.4a8.64887,8.64887,0,0,0-1.69995-3.1,11.63,11.63,0,0,0-2.9-2.5,8.67708,8.67708,0,0,0-4.4-1h-12.5a17.84788,17.84788,0,0,0-10.6,3.4l-11.19995,7.5h-.6V299.8h-18.80005V404.7h19V328.5l19.1-11.8h6.2v88h19V309.3A21.50229,21.50229,0,0,0,1390,306.4Z"/><path class="cls-2" d="M472.5,542.3a10.3973,10.3973,0,0,0,.5,2.9,8.64684,8.64684,0,0,0,1.7,3.1,11.62829,11.62829,0,0,0,2.9,2.5,8.4333,8.4333,0,0,0,4.4,1h46V534H491.5V505.2H525V487.4H491.4V464.7H528V447H472.5Z"/><path class="cls-2" d="M612.3,450.5a11.6279,11.6279,0,0,0-2.9-2.5,8.43327,8.43327,0,0,0-4.4-1h-12.5a17.84805,17.84805,0,0,0-10.6,3.4l-11.2,7.5h-.6V447H551.3V551.9h19V475.7l19.1-11.8h6.2v88h19V456.5a10.39765,10.39765,0,0,0-.5-2.9A10.88028,10.88028,0,0,0,612.3,450.5Z"/><path class="cls-2" d="M669.7,504.1h14.7v23.4l-15.5,8.7-9.9-6.5V463.9h25.3v13h17.1L703,447H649.7a7.57071,7.57071,0,0,0-4.4.9,8.91881,8.91881,0,0,0-2.9,2.5,9.87416,9.87416,0,0,0-1.7,3.2,11.72876,11.72876,0,0,0-.5,3v76.1a10.07168,10.07168,0,0,0,1.1,4.6,7.16774,7.16774,0,0,0,3,3.2l20,13.1a8.19827,8.19827,0,0,0,4.4,1,9.9612,9.9612,0,0,0,4.3-1l25.8-14.7c2.8-1.6,4.4-4.3,4.7-8.1V487.5h-33.7v16.6Z"/><rect class="cls-2" x="728.40002" y="447" width="19" height="104.90002"/><path class="cls-2" d="M834.4,450.5a11.62768,11.62768,0,0,0-2.9-2.5,8.43329,8.43329,0,0,0-4.4-1H814.6a17.84805,17.84805,0,0,0-10.6,3.4l-11.2,7.5h-.6V447H773.4V551.9h19V475.7l19.1-11.8h6.2v88h19V456.5a10.39728,10.39728,0,0,0-.5-2.9A10.88146,10.88146,0,0,0,834.4,450.5Z"/><path class="cls-2" d="M862.5,542.3a10.3973,10.3973,0,0,0,.5,2.9,8.6473,8.6473,0,0,0,1.7,3.1,11.6279,11.6279,0,0,0,2.9,2.5,8.43327,8.43327,0,0,0,4.4,1H918V534H881.5V505.2h33.6V487.4H881.5V464.7H918V447H862.5Z"/></svg>