<svg id="logo" xmlns="http://www.w3.org/2000/svg" viewBox="0 0 510.24019 85.04"><defs><style>.cls-1{fill:#008fc8;}.cls-2{fill:#00a9e8;}.cls-3{fill:#29c2e3;}</style></defs><title>mainflux</title><g id="subtitle"><rect class="cls-1" x="121.5801" y="65.4414" width="1.5005" height="14.4678"/><path class="cls-1" d="M140.2954,74.251v5.6582h-1.4355V74.3125a2.87682,2.87682,0,0,0-2.9771-3.209,4.20925,4.20925,0,0,0-3.3594,1.8281v6.9776h-1.436V70.082h1.436v1.1709a4.94985,4.94985,0,0,1,3.6114-1.4902C138.585,69.7627,140.2954,71.4854,140.2954,74.251Z"/><path class="cls-1" d="M153.9839,79.8867a7.12637,7.12637,0,0,1-2.1109.3428c-2.2402,0-3.3808-1.2988-3.3808-3.8525V71.3359H145.895V70.082h2.5972V66.4434h1.4355V70.082h3.6968v1.2539h-3.6968V76.377c0,1.788.6968,2.5097,2.1758,2.5097a6.33114,6.33114,0,0,0,1.6499-.2578Z"/><path class="cls-1" d="M169.4063,75.5703l-.085-.0439v.0439h-8.2578a3.58166,3.58166,0,0,0,3.6523,3.3604,2.95665,2.95665,0,0,0,2.8306-1.5118h1.562a4.42915,4.42915,0,0,1-4.4355,2.7657,5.18193,5.18193,0,0,1,0-10.3614c2.7895,0,4.7334,2.17,4.7539,5.1289A6.06236,6.06236,0,0,1,169.4063,75.5703Zm-8.3428-1.1299h6.9043a3.32717,3.32717,0,0,0-3.336-3.3584A3.55915,3.55915,0,0,0,161.0635,74.4404Z"/><path class="cls-1" d="M177.9165,71.7803a4.6474,4.6474,0,0,1,3.8276-1.9571V71.208a4.52073,4.52073,0,0,0-3.8276,2.2774v6.4238h-1.4326V70.082h1.4326Z"/><path class="cls-1" d="M197.4995,74.251v5.6582H196.062V74.3125a2.87729,2.87729,0,0,0-2.977-3.209,4.21,4.21,0,0,0-3.3575,1.8281v6.9776h-1.4389V70.082h1.4389v1.1709a4.95043,4.95043,0,0,1,3.6084-1.4902C195.7891,69.7627,197.4995,71.4854,197.4995,74.251Z"/><path class="cls-1" d="M214.10349,75.5703l-.0869-.0439v.0439h-8.2578a3.58511,3.58511,0,0,0,3.6553,3.3604,2.95852,2.95852,0,0,0,2.8305-1.5118h1.562a4.42867,4.42867,0,0,1-4.4345,2.7657,5.18191,5.18191,0,0,1,0-10.3614c2.7876,0,4.7314,2.17,4.75191,5.1289A6.05942,6.05942,0,0,1,214.10349,75.5703Zm-8.3447-1.1299H212.666a3.32576,3.32576,0,0,0-3.33691-3.3584A3.561,3.561,0,0,0,205.75879,74.4404Z"/><path class="cls-1" d="M227.70509,79.8867a7.11759,7.11759,0,0,1-2.1113.3428c-2.2369,0-3.3775-1.2988-3.3775-3.8525V71.3359h-2.6001V70.082h2.6001V66.4434h1.4326V70.082h3.6968v1.2539h-3.6968V76.377c0,1.788.6988,2.5097,2.1758,2.5097a6.3392,6.3392,0,0,0,1.6519-.2578Z"/><path class="cls-1" d="M254.45019,74.9932a5.18658,5.18658,0,1,1-5.1758-5.17A5.13038,5.13038,0,0,1,254.45019,74.9932Zm-1.4385,0a3.74138,3.74138,0,1,0-3.7373,3.916A3.74615,3.74615,0,0,0,253.01169,74.9932Z"/><path class="cls-1" d="M267.92479,70.082v1.2539H263.998v8.5733h-1.43551V71.3359H259.708V70.082h2.85449V67.5068a3.38568,3.38568,0,0,1,3.4629-3.7011,7.43685,7.43685,0,0,1,2.0283.2968l-.2334,1.2569a7.31863,7.31863,0,0,0-1.541-.2168,2.189,2.189,0,0,0-2.28129,2.3642V70.082Z"/><polygon class="cls-1" points="288.226 66.823 288.226 79.909 286.728 79.909 286.728 66.823 281.383 66.823 281.383 65.441 293.571 65.441 293.571 66.823 288.226 66.823"/><path class="cls-1" d="M308.59079,74.251v5.6582h-1.4365V74.3125a2.87736,2.87736,0,0,0-2.9795-3.209,4.21111,4.21111,0,0,0-3.3574,1.8281v6.9776h-1.4385V64.8057h1.4385v6.4472a4.95626,4.95626,0,0,1,3.6113-1.4902C306.87889,69.7627,308.59079,71.4854,308.59079,74.251Z"/><path class="cls-1" d="M315.98239,66.3594a1.00385,1.00385,0,1,1,.9922.9756A.96387.96387,0,0,1,315.98239,66.3594Z"/><rect class="cls-1" x="316.25779" y="70.082" width="1.4385" height="9.8272"/><path class="cls-1" d="M334.99409,74.251v5.6582h-1.4365V74.3125a2.87691,2.87691,0,0,0-2.9775-3.209,4.21181,4.21181,0,0,0-3.3594,1.8281v6.9776h-1.4355V70.082h1.4355v1.1709a4.953,4.953,0,0,1,3.61131-1.4902C333.28219,69.7627,334.99409,71.4854,334.99409,74.251Z"/><path class="cls-1" d="M351.66209,80.2295a4.9211,4.9211,0,0,1-9.6767,1.1894h1.4824a3.1324,3.1324,0,0,0,3.334,2.3165,3.236,3.236,0,0,0,3.4003-3.5059h.0206V78.5029a5.277,5.277,0,0,1-3.6729,1.4063,5.08768,5.08768,0,0,1,0-10.1699,5.25926,5.25926,0,0,1,3.6729,1.4052V70.082h1.4394Zm-1.4394-3.4492V72.8672a4.098,4.098,0,0,0-3.4854-1.8526,3.81042,3.81042,0,0,0,0,7.6143A4.10092,4.10092,0,0,0,350.22269,76.7803Z"/><path class="cls-1" d="M360.08979,76.8652c.295,1.3409,1.3331,2.1475,3.2315,2.1475,1.585,0,2.6631-.6768,2.6631-1.7441,0-.8682-.6992-1.4014-1.6895-1.5508l-2.2197-.3838c-1.626-.252-2.8945-.9766-2.8945-2.6377,0-1.7647,1.5634-2.9141,3.9091-2.9141,1.9854,0,4.0557.8701,4.2256,3.126h-1.331c-.19239-1.2754-1.2481-1.957-2.8946-1.957-1.541,0-2.4921.6816-2.4921,1.6386,0,.7422.52731,1.3184,1.9218,1.5313l1.9453.3428c1.41221.2343,2.91221.8506,2.91221,2.7226,0,1.9151-1.711,3.043-4.09671,3.043-2.5362,0-4.2256-1.1279-4.541-3.3643Z"/><path class="cls-1" d="M395.49119,69.3594h-1.4766c-.3398-1.7705-1.6064-2.916-4.01559-2.916-2.17581,0-3.61131,1.0634-3.61131,2.7441,0,1.3174,1.0352,2.126,2.9385,2.4648l2.17581.4278c2.55659.4902,3.98919,1.7021,3.98919,3.7637,0,2.6357-2.1318,4.3857-5.3428,4.3857-3.4423,0-5.6386-1.8106-5.9775-4.9375h1.4795c.3574,2.2568,1.9219,3.5732,4.5615,3.5732,2.3018,0,3.7617-1.1259,3.7617-2.8506,0-1.2128-.8457-2.1259-2.705-2.4707l-2.4942-.4863c-2.6357-.4873-3.9697-1.8281-3.9697-3.7871,0-2.4883,2.0478-4.1455,5.0918-4.1455C392.81249,65.125,395.13479,66.5068,395.49119,69.3594Z"/><path class="cls-1" d="M412.41409,74.9932a5.18607,5.18607,0,1,1-5.1768-5.17A5.13066,5.13066,0,0,1,412.41409,74.9932Zm-1.4366,0a3.74079,3.74079,0,1,0-7.47949,0,3.74371,3.74371,0,1,0,7.47949,0Z"/><rect class="cls-1" x="419.57519" y="64.8057" width="1.4355" height="15.1035"/><path class="cls-1" d="M437.54879,79.9092h-1.4345V78.7588a4.9889,4.9889,0,0,1-3.5909,1.4707c-2.4502,0-4.1601-1.7031-4.1601-4.4688V70.082h1.4355v5.5938c0,2.0635,1.2041,3.2334,2.9766,3.2334a4.219,4.219,0,0,0,3.3389-1.8311V70.082h1.4345Z"/><path class="cls-1" d="M451.72459,79.8867a7.12874,7.12874,0,0,1-2.1113.3428c-2.24029,0-3.3809-1.2988-3.3809-3.8525V71.3359h-2.5986V70.082h2.5986V66.4434H447.668V70.082h3.69719v1.2539H447.668V76.377c0,1.788.69919,2.5097,2.17379,2.5097a6.31459,6.31459,0,0,0,1.6494-.2578Z"/><path class="cls-1" d="M458.69529,66.3594a1.00379,1.00379,0,1,1,.9922.9756A.96217.96217,0,0,1,458.69529,66.3594Z"/><rect class="cls-1" x="458.97069" y="70.082" width="1.4365" height="9.8272"/><path class="cls-1" d="M478.19239,74.9932a5.18658,5.18658,0,1,1-5.1758-5.17A5.13044,5.13044,0,0,1,478.19239,74.9932Zm-1.4365,0a3.73986,3.73986,0,1,0-7.4776,0,3.74281,3.74281,0,1,0,7.4776,0Z"/><path class="cls-1" d="M494.457,74.251v5.6582h-1.43551V74.3125a2.87785,2.87785,0,0,0-2.97949-3.209,4.21381,4.21381,0,0,0-3.35741,1.8281v6.9776h-1.4395V70.082h1.4395v1.1709a4.95128,4.95128,0,0,1,3.6113-1.4902C492.749,69.7627,494.457,71.4854,494.457,74.251Z"/><path class="cls-1" d="M502.38089,76.8652c.2939,1.3409,1.332,2.1475,3.2314,2.1475,1.5859,0,2.6621-.6768,2.6621-1.7441,0-.8682-.6992-1.4014-1.69039-1.5508l-2.21971-.3838c-1.625-.252-2.8916-.9766-2.8916-2.6377,0-1.7647,1.5615-2.9141,3.9062-2.9141,1.9863,0,4.0566.8701,4.2236,3.126h-1.3281c-.1933-1.2754-1.249-1.957-2.8955-1.957-1.541,0-2.4941.6816-2.4941,1.6386,0,.7422.5293,1.3184,1.9238,1.5313l1.94241.3428c1.415.2343,2.916.8506,2.916,2.7226,0,1.9151-1.709,3.043-4.09771,3.043-2.5351,0-4.2255-1.1279-4.539-3.3643Z"/></g><g id="title"><polygon class="cls-1" points="172.691 48.529 160.858 48.529 160.858 24.477 150.28 40.911 150.28 40.983 143.697 40.983 143.697 40.911 133.049 24.337 133.119 48.529 121.285 48.529 121.285 0.564 130.039 0.564 146.987 26.17 163.868 0.564 172.691 0.564 172.691 48.529"/><path class="cls-1" d="M197.3198,40.4209l-3.1538,8.252H181.5591L201.80029.4248h11.2764L233.248,48.6729H220.71289l-3.2236-8.252Zm10.085-26.0996-6.1646,15.9414h12.3296Z"/><rect class="cls-1" x="242.00289" y="0.56445" width="11.836" height="47.96485"/><polygon class="cls-1" points="310.697 48.529 301.521 48.529 278.688 22.223 278.688 48.529 266.849 48.529 266.849 0.564 275.886 0.564 298.859 27.582 298.859 0.564 310.697 0.564 310.697 48.529"/><polygon class="cls-1" points="334.725 21.234 355.174 21.234 355.174 31.602 334.725 31.602 334.725 48.529 322.885 48.529 322.885 0.564 358.396 0.564 358.396 11.079 334.725 11.079 334.725 21.234"/><polygon class="cls-1" points="402.914 48.529 367.543 48.529 367.543 0.564 379.381 0.564 379.381 38.023 402.914 38.023 402.914 48.529"/><path class="cls-1" d="M453.62009,25.6426c0,14.8847-8.5459,23.4199-22.20409,23.4199-13.59081,0-22.13081-8.5352-22.13081-23.4199V.03711h11.9052V25.8535c0,7.3369,3.9922,12.0596,10.22561,12.0596,6.23539,0,10.29589-4.7227,10.29589-12.0596V.03711h11.9082Z"/><polygon class="cls-1" points="486.345 33.79 476.052 48.529 462.461 48.529 478.361 24.902 462.675 0.564 476.89 0.564 486.278 15.378 495.658 0.564 509.88 0.564 494.189 24.902 510.159 48.529 496.571 48.529 486.345 33.79"/></g><g id="M"><polygon class="cls-1" points="95.097 0.037 82.716 0.037 100.125 32.369 100.125 10.781 95.097 0.037"/><polygon class="cls-1" points="44.484 79.821 56.865 79.821 75.069 42.973 68.876 30.448 44.484 79.821"/><polygon class="cls-1" points="36.414 36.885 18.195 0.037 5.813 0.037 30.024 49.737 36.414 36.885"/><polygon class="cls-2" points="30.024 49.737 5.813 0.037 -0.077 0.037 -0.077 18.43 23.19 63.654 30.024 49.737"/><polygon class="cls-2" points="82.716 0.037 68.939 0.037 68.889 0.142 100.125 61.428 100.125 32.369 82.716 0.037"/><polygon class="cls-2" points="61.727 15.992 30.164 79.821 44.484 79.821 68.876 30.448 61.727 15.992"/><polygon class="cls-3" points="68.889 0.142 68.836 0.037 54.619 0.037 23.19 63.654 -0.077 18.43 -0.077 47.489 16.387 79.821 30.164 79.821 61.727 15.992 93.29 79.821 100.125 79.821 100.125 61.428 68.889 0.142"/></g></svg>