<svg id="Layer_1" data-name="Layer 1" xmlns="http://www.w3.org/2000/svg" viewBox="0 0 600 241.24"><defs><style>.cls-1{fill:#212322;}</style></defs><path class="cls-1" d="M267.22,95.05l-16.41,26.37-16.4-26.37h-7.33v44.53h7.33V109.11a3.67,3.67,0,0,0-.3-1.76,13.62,13.62,0,0,0,1.47,2.93l12,19.05h5.86l11.72-19.05c.29-.58.59-.87.88-1.46s.58-.88.88-1.47a3.74,3.74,0,0,1-.29,1.76v30.47H274V95.05Zm22.56,44.53,14.36-35.16c0-.29.29-.87.29-1.17a2.2,2.2,0,0,0,.29-1.46c0,.58.3.88.3,1.46s.29.88.29,1.17l7.91,19h-16.7l4.4,6.45h15.23l3.81,9.37h7.62L308.83,94.76h-7.91l-18.46,44.82Zm112.51,0,18.17-44.53h-7.91l-12.89,33.69c-.3,1.18-.88,2.35-1.18,3.81a29.16,29.16,0,0,0-1.17-3.81L384.42,95.05h-8.2l18.16,44.53Zm69.15-44.53v44.53h29v-6.73H478.77V94.76h-7.33Zm38.09,0v44.53h29.3v-6.73h-22V94.76h-7.33ZM436,101.49h23.44V94.76H429v44.53H460v-6.74H436.28V101.49Zm-65.05,7c0-4.11-1.17-7.33-3.81-9.67s-7-3.52-12.89-3.52H336.08v44.54h7.32V101.79h11.13c5.86,0,9.09,2.34,9.09,7.32q0,7.92-9.67,7.91h-5.86l-4.1,6.45h10l12.3,16.11H375l-13.47-17.87c6.15-2.34,9.37-6.74,9.37-13.18Zm85.27,5.56H436.28l4.4,6.74h15.23l.3-6.74ZM113.4,101.2l14.65,15.24c.29.29.58.58.87.58s.59-.29.88-.58l14.65-15.24c.3-.29.59-.58.59-.88,0-.58-.29-.58-.88-.58H113.69c-.59,0-.88.29-.88.58s0,.59.59.88Zm86.14-53.62a.78.78,0,0,0-.88-.88c-.29,0-.59.3-.88.59L186.06,59.6V175.33h0l12,12.31c.3.29.59.58.88.58a.78.78,0,0,0,.88-.88V47.58ZM58.31,187.34a.78.78,0,0,0,.88.88c.29,0,.59-.29.88-.58l12-12.31h0V59.6l-12-12.31c-.29-.29-.59-.59-.88-.59a.78.78,0,0,0-.88.88ZM90,77.47h78.23L179,66.33c.29-.29.58-.58.58-.87a.78.78,0,0,0-.88-.88H79.12a.78.78,0,0,0-.88.88c0,.29.29.58.58.87ZM78.82,168.3c-.29.29-.58.58-.58.88,0,.58.29.58.87.58h99.62c.59,0,.88-.29.88-.58s-.29-.59-.58-.88l-10.84-11.14H90Zm83.51-17c.29.3.58.59.88.59.58,0,.58-.29.58-.88h0V83.91c0-.58-.29-.87-.58-.87s-.59.29-.88.58L150.9,95.34v44.24Zm-55.09-11.72V95.34L95.82,83.62c-.3-.29-.59-.58-.88-.58-.59,0-.59.29-.59.87V151h0c0,.59.29.88.59.88s.58-.29.88-.59Zm431.3-44.53v.88h2.05v4.69h.88V95.93h2v-.88Zm11.13,0-2,3.22-2-3.22h-.88v5.57h.88V96.51a.29.29,0,0,0,.29.3l1.47,2.34h.88l1.46-2.34v3.81h.88V95.05Z"/></svg>