<?xml version="1.0" encoding="utf-8"?>
<!-- Generator: Adobe Illustrator 23.0.2, SVG Export Plug-In . SVG Version: 6.00 Build 0)  -->
<svg version="1.1" id="Layer_1" xmlns="http://www.w3.org/2000/svg" xmlns:xlink="http://www.w3.org/1999/xlink" x="0px" y="0px"
	 viewBox="0 0 400 245" style="enable-background:new 0 0 400 245;" xml:space="preserve">
<style type="text/css">
	.st0{fill:#DA291C;}
	.st1{opacity:0.9;}
	.st2{fill:#231F20;}
</style>
<g>
	<g>
		<path class="st0" d="M392.28,107.92h-0.03c-3.59,0-6.53,2.94-6.53,6.53c0,3.65,2.94,6.55,6.53,6.55c3.63,0,6.51-2.9,6.51-6.55
			C398.75,110.86,395.87,107.92,392.28,107.92z M392.25,119.71c-2.75,0-4.96-2.3-4.96-5.23c0-2.9,2.21-5.26,4.94-5.26h0.02
			c2.76,0,5,2.36,5,5.26C397.25,117.41,395,119.74,392.25,119.71z"/>
		<path class="st0" d="M393.63,114.69v-0.06c0.79-0.2,1.4-0.81,1.4-1.69c0-0.75-0.23-1.24-0.64-1.56c-0.48-0.38-1.24-0.59-2.49-0.59
			c-1.1,0-1.74,0.12-2.32,0.21v7.26h1.53v-2.99h0.7c0.79,0,1.25,0.32,1.37,1.1c0.14,0.99,0.25,1.63,0.44,1.89h1.59
			c-0.12-0.23-0.26-0.67-0.41-1.8C394.69,115.38,394.28,114.81,393.63,114.69z M391.84,114.07h-0.73v-2.09
			c0.2-0.02,0.47-0.02,0.85-0.02c1.04,0,1.47,0.46,1.47,1.07C393.43,113.79,392.74,114.07,391.84,114.07z"/>
	</g>
	<g>
		<path class="st0" d="M1.25,107.92h9.72l6.71,19.02h0.09l6.75-19.02h9.68v29.16h-6.42v-22.36h-0.09l-7.66,22.36h-4.9l-7.37-22.36
			H7.67v22.36H1.25V107.92z"/>
		<path class="st0" d="M86.82,125.47H79.7l3.54-9.07L86.82,125.47z M68.17,137.08h7.08l2.43-6.18h11.33l2.51,6.18h7.25l-12.68-29.16
			h-5.31L68.17,137.08z"/>
		<path class="st0" d="M139.16,113.36h4.2c2.35,0,4.99,0.45,4.99,3.38c0,3.17-3.05,3.25-5.4,3.25h-3.79V113.36z M132.74,137.08h6.42
			v-11.65h3.18l6.09,11.65h7.7l-7.41-12.31c4.12-0.75,6.3-3.91,6.3-7.99c0-6.8-5.02-8.86-10.99-8.86h-11.28V137.08z"/>
		<path class="st0" d="M190.11,107.92h7.33l7.2,19.11h0.08l7.33-19.11h6.88l-12.02,29.16h-5.15L190.11,107.92z"/>
		<path class="st0" d="M252.9,107.92h19.8v5.93h-13.37v5.44h12.64v5.93h-12.64v5.93h14.12v5.93H252.9V107.92z"/>
		<path class="st0" d="M307.42,107.92h6.42v23.22h11.9v5.93h-18.32V107.92z"/>
		<path class="st0" d="M359.72,107.92h6.42v23.22h11.91v5.93h-18.33V107.92z"/>
	</g>
</g>
</svg>
