<?xml version="1.0" encoding="utf-8"?>
<!-- Generator: Adobe Illustrator 24.1.2, SVG Export Plug-In . SVG Version: 6.00 Build 0)  -->
<svg version="1.1" id="Marvell_logo_horizontal" xmlns="http://www.w3.org/2000/svg" xmlns:xlink="http://www.w3.org/1999/xlink"
	 x="0px" y="0px" viewBox="0 0 1003.6 288" style="enable-background:new 0 0 1003.6 288;" xml:space="preserve">
<style type="text/css">
	.st0{fill:#212322;}
</style>
<path class="st0" d="M425.9,98.4l-33.7,53.9l-33.3-53.9H344v91h14.9v-58.6c0-1.1,0-2.2-0.1-3.3c-0.1-1.1-0.2-2.2-0.3-3.5
	c0.7,1.9,1.8,3.9,3.1,6l24.2,38.9h12l24-38.9c0.6-1,1.2-1.9,1.9-2.9c0.7-1,1.3-2,1.9-3.1c-0.1,1.2-0.2,2.4-0.3,3.5
	c-0.1,1.1-0.1,2.2-0.1,3.3v58.6h14.7v-91H425.9L425.9,98.4z M471.8,189.4l29.3-71.5c0.2-0.7,0.5-1.5,0.8-2.3
	c0.3-0.8,0.6-1.7,0.8-2.8c0.2,1.1,0.5,2,0.8,2.8c0.3,0.8,0.6,1.5,0.8,2.3l16,38.9H486l8.9,13.3h30.8l8,19.3h15.7l-38.4-91h-16
	l-38.4,91H471.8L471.8,189.4z M701.1,189.4l36.9-91h-16L696,167c-0.9,2.3-1.7,5-2.5,8c-0.9-3-1.7-5.7-2.5-8l-26-68.6h-16.7l36.9,91
	H701.1L701.1,189.4z M842.1,98.4v91h59.3v-13.5h-44.4V98.4H842.1L842.1,98.4z M919.5,98.4v91h59.9v-13.5h-45V98.4H919.5L919.5,98.4z
	 M769.9,111.9h47.7V98.4h-62.4v91h63.3v-13.5h-48.6V111.9L769.9,111.9z M637.2,125.7c0-8.5-2.6-15.2-7.9-20
	c-5.3-4.8-14.1-7.3-26.5-7.3h-37.1v91h14.9v-77.5h22.7c12.3,0,18.4,5,18.4,15.1c0,10.8-6.6,16.2-19.8,16.2h-12l-8.6,13.1h20.2
	l25.1,33.1h18L617.2,153C630.5,148.2,637.2,139.1,637.2,125.7L637.2,125.7L637.2,125.7z M811.2,137h-40.4l9.1,13.5h31.3V137
	L811.2,137z M111.9,111.1l30.1,30.8c0.7,0.7,1.4,1.1,2,1.1c0.6,0,1.3-0.4,2-1.1l30.1-30.8c0.7-0.7,1.1-1.4,1.1-2
	c0-1-0.5-1.5-1.6-1.5h-63.1c-1.1,0-1.6,0.5-1.6,1.5C110.8,109.7,111.2,110.4,111.9,111.1L111.9,111.1z M288,1.6
	c0-1.1-0.5-1.6-1.5-1.6c-0.6,0-1.2,0.3-1.8,0.9l-24.7,25v235.9l0,0l24.7,25.2c0.6,0.6,1.2,0.9,1.8,0.9c1,0,1.5-0.5,1.5-1.6V1.6z
	 M0,286.4c0,1.1,0.5,1.6,1.5,1.6c0.6,0,1.2-0.3,1.8-0.9l24.7-25.2l0,0V25.9L3.3,0.9C2.7,0.3,2.1,0,1.5,0C0.5,0,0,0.5,0,1.6L0,286.4z
	 M64.2,62.8h159.7L246.3,40c0.6-0.6,0.9-1.2,0.9-1.8c0-1-0.5-1.4-1.6-1.4H42.4c-1.1,0-1.6,0.5-1.6,1.4c0,0.6,0.3,1.2,0.9,1.8
	L64.2,62.8z M41.7,248c-0.6,0.6-0.9,1.2-0.9,1.8c0,1,0.5,1.4,1.6,1.4h203.1c1.1,0,1.6-0.5,1.6-1.4c0-0.6-0.3-1.2-0.9-1.8l-22.4-22.8
	H64.2L41.7,248z M211.8,213c0.6,0.6,1.2,0.9,1.8,0.9c1,0,1.5-0.5,1.5-1.6l0,0V75.7c0-1.1-0.5-1.6-1.5-1.6c-0.6,0-1.2,0.3-1.8,0.9
	l-23.4,23.8v90.5L211.8,213z M99.6,189.3V98.8L76.2,75c-0.6-0.6-1.2-0.9-1.8-0.9c-1,0-1.5,0.5-1.5,1.6v136.6l0,0
	c0,1.1,0.5,1.6,1.5,1.6c0.6,0,1.2-0.3,1.8-0.9L99.6,189.3z M978.7,98.4v1.7h4.2v9.8h1.9v-9.8h4.2v-1.7H978.7z M1001.8,98.4l-4.3,6.8
	l-4.2-6.8h-1.9v11.5h1.9v-7.4c0-0.1,0-0.3,0-0.4c0-0.1,0-0.3,0-0.4c0.1,0.2,0.2,0.5,0.4,0.8l3.1,4.9h1.5l3-4.9
	c0.1-0.1,0.2-0.2,0.2-0.4c0.1-0.1,0.2-0.3,0.2-0.4c0,0.2,0,0.3,0,0.4c0,0.1,0,0.3,0,0.4v7.4h1.9V98.4H1001.8L1001.8,98.4z"/>
</svg>
