<svg xmlns="http://www.w3.org/2000/svg" role="img" viewBox="-5.99 -5.99 311.74 94.49"><title>Micron Technology logo</title><defs><clipPath id="a"><path d="M47.99 748.766v-32.215h116.734v32.215"/></clipPath><clipPath id="b"><path d="M48 748.74h116.7v-32.16H48v32.16z" clip-rule="evenodd"/></clipPath><clipPath id="c"><path d="M0 792.03h612V.03H0v792z"/></clipPath></defs><g clip-path="url(#a)" transform="matrix(2.5707 0 0 -2.5707 -123.393 1924.782)"><g clip-path="url(#b)"><g clip-path="url(#c)"><path fill="#104076" d="M103.736 723.308c-5.319 0-10.092 3.021-10.092 7.245 0 4.226 4.773 7.25 10.13 7.25 2.329 0 4.504-.588 6.869-1.907l-1.667-2.142c-1.516.733-3.301 1.172-5.202 1.172-2.252 0-4.852-1.261-4.852-4.373 0-3.11 2.562-4.37 4.852-4.37 1.901 0 3.725.381 5.277 1.057l1.67-2.26c-1.979-1.058-4.386-1.672-6.985-1.672"/><path fill="#104076" d="M134.119 723.363c5.355 0 10.13 3.022 10.13 7.245 0 4.226-4.775 7.25-10.13 7.25-5.357 0-10.132-3.024-10.132-7.25 0-4.223 4.775-7.245 10.132-7.245zm4.852 7.245c0-3.11-2.6-4.37-4.852-4.37-2.253 0-4.852 1.26-4.852 4.37 0 3.113 2.599 4.373 4.852 4.373 2.252 0 4.852-1.26 4.852-4.373"/><path fill="#104076" d="M146.405 723.713h5.003v8.628c0 1.165.905 2.536 2.524 2.545 1.131-.009 2.216-.783 2.216-1.765l-.01-9.408h5.016v9.675c0 2.548-2.732 4.675-5.991 4.675-.032 0-.063-.004-.095-.005-.032.001-.063.005-.094.005-1.347 0-2.625-.393-3.669-1.051-.009.037-.29.962-4.9.962v-14.261"/><path fill="#104076" d="M86.338 723.713h4.9009v13.791H86.338v-13.791z"/><path fill="#104076" d="M113.058 723.713h4.903v8.363c0 1.321 1.551 2.378 3.221 2.378.816 0 1.584-.163 2.229-.449v3.627c-.578.088-1.202.136-1.753.136-1.314 0-2.632-.381-3.711-1.021-.08.163-.681.934-4.889.934v-13.968"/><path fill="#104076" d="M76.988 729.21l-.001-5.498h5.019v10.038c-1.454-1.5-3.131-3.027-5.018-4.54"/><path fill="#104076" d="M82.006 733.75c5.527 5.702 7.816 11.002 6.034 13.553-1.86 2.664-7.639 1.585-15.13-2.373-.335-.164-.632-.338-.851-.489-.362-.251-.151-.434.116-.337.274.099.586.219.938.392 5.615 2.663 9.995 3.141 11.707 1.282 2.609-2.831-2.734-12.109-11.986-18.972-1.235-.916-3.141-2.257-4.382-3.002-.084-.052-.167-.103-.248-.155-.328-.215-.62-.415-.85-.595-.224-.174-.181-.451.223-.277.246.105.545.264.863.459.072.044.143.084.218.13 1.395.847 3.466 2.277 4.881 3.265 1.217.85 2.367 1.713 3.449 2.579 1.887 1.513 3.564 3.041 5.018 4.54"/><path fill="#104076" d="M57.369 716.551h5.019v5.201c1.372.811 2.761 1.7 4.126 2.631.307.211.579.421.776.601.325.297.09.45-.161.318-.258-.136-.563-.32-.893-.53-7.753-4.959-12.987-6.472-14.92-3.848-1.679 2.278 1.073 6.682 6.053 11.656v-11.545c1.413.48 3.083 1.245 5.018 2.321l-.001 10.711 1.104-2.349c1.21-2.594 3.406-4.145 6.198-4.145 2.791 0 4.987 1.551 6.197 4.145l1.104 2.349-.001-2.733c1.796 1.742 3.329 3.481 4.492 5.163.145.208.132.383.053.575-.774 1.615-2.421 2.728-4.335 2.728-1.893 0-3.537-1.098-4.325-2.686l-2.1-4.455c-.217-.434-.617-.675-1.085-.675-.467 0-.869.241-1.086.675l-2.1 4.455c-.4.807-1.022 1.487-1.785 1.961 1.536 1.219 3.029 2.308 4.499 3.2.334.203.608.406.839.583.227.173.185.45-.22.28-.246-.103-.565-.26-.884-.454-1.502-.91-3.037-1.841-4.505-2.844-.178-.121-.354-.243-.53-.365-.54.21-1.126.325-1.739.325-2.66 0-4.808-2.149-4.808-4.809v-.662c-7.09-6.322-10.812-12.582-8.867-15.369 1.428-2.044 4.814-1.572 8.867.189v-2.598"/><path fill="#104076" d="M163.071 736.302h.182c.207 0 .382.075.382.269 0 .138-.1.276-.382.276-.082 0-.138-.006-.182-.012v-.533zm0-.871h-.251v1.573c.132.018.257.037.446.037.238 0 .394-.05.488-.119.094-.069.144-.175.144-.325 0-.207-.138-.332-.307-.383v-.012c.138-.025.232-.151.263-.382.038-.244.075-.339.1-.389h-.263c-.037.05-.075.194-.106.401-.037.201-.138.276-.339.276h-.175v-.677zm.263 2.011c-.62 0-1.127-.532-1.127-1.19 0-.67.507-1.196 1.133-1.196.627-.007 1.128.526 1.128 1.19 0 .664-.501 1.196-1.128 1.196h-.006zm.006.22c.771 0 1.385-.627 1.385-1.41 0-.796-.614-1.416-1.391-1.416-.77 0-1.396.62-1.396 1.416 0 .783.626 1.41 1.396 1.41h.006"/></g></g></g></svg>