<svg id="Layer_1" data-name="Layer 1" xmlns="http://www.w3.org/2000/svg" viewBox="0 0 792 117.08914"><defs><style>.cls-1{fill:#0076ad;}.cls-2{fill:#43b649;}</style></defs><title>mocana</title><path class="cls-1" d="M3.367,11.05309A5.9345,5.9345,0,0,1,9.19438,5.22242h1.34733A6.48175,6.48175,0,0,1,16.077,8.36176L53.46369,64.59108l37.38-56.22932A6.36009,6.36009,0,0,1,96.379,5.22242h1.34733a5.94032,5.94032,0,0,1,5.834,5.83067v94.064a5.97158,5.97158,0,0,1-5.834,5.98,6.0947,6.0947,0,0,1-5.98-5.98v-78.062L58.249,76.25574c-1.34733,1.94466-2.84731,2.99-4.938,2.99a6.02341,6.02341,0,0,1-5.084-2.99L14.88236,27.20442v78.062a5.75813,5.75813,0,1,1-11.51533,0Z"/><path class="cls-1" d="M279.80077,58.30908v-.29866c0-29.608,22.13466-54.132,52.93733-54.132,16.898,0,27.66334,5.532,37.38666,13.606a6.48455,6.48455,0,0,1,2.396,4.78533,6.079,6.079,0,0,1-5.98665,5.834,7.086,7.086,0,0,1-3.88933-1.34732c-8.07068-7.178-17.19666-11.96333-30.05268-11.96333-23.18331,0-40.526,18.84266-40.526,42.91866v.29867c0,24.22533,17.49534,43.21732,40.526,43.21732,13.00867,0,22.128-4.48666,31.10134-12.71a5.41794,5.41794,0,0,1,3.73668-1.646,5.88588,5.88588,0,0,1,5.688,5.68465,5.59659,5.59659,0,0,1-1.94466,4.18468c-10.32066,9.42133-21.68333,15.40466-38.88,15.40466C302.08144,112.14574,279.80077,88.36841,279.80077,58.30908Z"/><path class="cls-1" d="M659.7623,102.57507,702.233,9.70908c1.49334-3.28867,3.73668-5.23333,7.47335-5.23333h.59734c3.59066,0,5.98664,1.94466,7.32733,5.23333l42.47066,92.71666a7.93626,7.93626,0,0,1,.75,2.99,5.67926,5.67926,0,0,1-5.68134,5.68134c-2.84067,0-4.78533-1.94135-5.834-4.33733l-10.918-24.076h-57.424l-10.918,24.378a5.91056,5.91056,0,0,1-5.68134,4.03534,5.36286,5.36286,0,0,1-5.38267-5.38267A6.81834,6.81834,0,0,1,659.7623,102.57507Zm74.02333-30.65666L709.70631,18.38374,685.63363,71.91841Z"/><path class="cls-1" d="M536.083,11.027a5.9316,5.9316,0,0,1,5.82735-5.82735h1.646c2.69465,0,4.34065,1.34733,5.98,3.438l63.55665,81.052V32.15069a5.75809,5.75809,0,1,1,11.51533,0v73.08963a5.30844,5.30844,0,0,1-5.38267,5.53532h-.59734c-2.542,0-4.34065-1.49334-6.13266-3.59066l-64.904-82.99665V84.10671a5.75489,5.75489,0,1,1-11.50869,0Z"/><path class="cls-1" d="M400.33013,102.57507l42.47066-92.866c1.49334-3.28867,3.73668-5.23333,7.47335-5.23333h.59734c3.59066,0,5.98664,1.94466,7.32733,5.23333l42.47066,92.71666a7.93626,7.93626,0,0,1,.75,2.99,5.67926,5.67926,0,0,1-5.68134,5.68134c-2.84067,0-4.78533-1.94135-5.834-4.33733l-10.918-24.076h-57.424l-10.918,24.378a5.91056,5.91056,0,0,1-5.68134,4.03534,5.36286,5.36286,0,0,1-5.38267-5.38267A6.81834,6.81834,0,0,1,400.33013,102.57507Zm74.02333-30.65666L450.27414,18.38374,426.20146,71.91841Z"/><path class="cls-1" d="M193.86523,112.16426A54.12235,54.12235,0,0,1,171.70176,8.66952a5.36626,5.36626,0,0,1,4.399,9.78955,43.383,43.383,0,1,0,35.22489-.13567,5.36638,5.36638,0,0,1,4.32337-9.82347,54.12252,54.12252,0,0,1-21.78383,103.66433Z"/><circle class="cls-2" cx="193.70085" cy="10.59959" r="6.72118"/><circle class="cls-2" cx="541.69948" cy="105.44307" r="6.72118"/><circle class="cls-2" cx="619.01396" cy="10.5996" r="6.72118"/><path class="cls-1" d="M775.1003,104.5288V104.492a6.56741,6.56741,0,1,1,13.13471-.03869v.03869a6.56741,6.56741,0,1,1-13.13471.03685Zm12.37931-.03685v-.03869a5.81226,5.81226,0,1,0-11.62391.03869v.03685a5.81225,5.81225,0,1,0,11.62391-.03685Zm-8.26516-2.90551a.51634.51634,0,0,1,.52878-.52878h2.41543c1.35788,0,2.45413.7167,2.45413,2.03773a2.09859,2.09859,0,0,1-1.58634,2.03773l1.43526,1.69872a.6515.6515,0,0,1,.18792.45324.4751.4751,0,0,1-.49008.49009.64857.64857,0,0,1-.52878-.30216l-1.8498-2.22566h-1.509v1.999a.52878.52878,0,1,1-1.05756,0Zm2.83183,2.79128c.94332,0,1.47026-.49008,1.47026-1.20679,0-.79225-.56563-1.16995-1.47026-1.16995H780.272v2.37674Z"/></svg>