<svg xmlns="http://www.w3.org/2000/svg" role="img" viewBox="184.88 262.38 421.98 86.98"><style>svg {enable-background:new 0 0 792 612}</style><path fill="#e60012" d="M354.56 274.38c-28.95-17.02-109.96 26.18-161.47 65.4l.57.82c64.58-43.52 119.47-57.08 133.51-44.83.32.28.62.57.9.87-9.53 1.38-20.27 3.59-31.5 6.6-36.11 9.68-63.67 23.93-61.55 31.84 2.12 7.91 33.11 6.47 69.22-3.2 5.97-1.6 11.71-3.33 17.11-5.13-3.98 5.71-8.25 10.65-10.75 13.47h43.81c11.09-25.29 19.29-54.58.15-65.84zm-31.47 51.06c3.65-5.46 6.16-10.39 7.45-14.67.7-2.31 1.04-4.43 1.04-6.37 0-2.81-.74-5.23-2.2-7.23 9.96-1.38 18.53-1.84 24.84-1.32 6.4.53 10.27 2.09 10.88 4.38.06.22.09.45.09.69 0 5.21-14.04 14.94-42.1 24.52z"/><path d="M413.93 317.17h-14.55l15.1-27.58h.24l-.79 27.58zm-47.9 23.05h20.76l6.43-11.79h20.39l-.34 11.79h20.75l-3.13-61.91h-25.05l-39.81 61.91zm91.53-61.91h20.04l-18.1 61.91h-20.04l18.1-61.91zm33.04 43.01l-.63 2.17c-1.37 4.68-.62 8.23 6.29 8.23 7.04 0 10.18-3.81 11.22-7.37 3.91-13.36-34.88-5.9-28.11-29.05 2.89-9.89 12.59-18.22 33.22-18.22 20.04 0 25.04 7.37 22.25 16.91l-.43 1.47H515.1c.86-2.95 1.01-5.11.23-6.51-.76-1.47-2.46-2.17-5.45-2.17-5 0-8.62 2.17-9.94 6.68-3.77 12.92 34.74 6.42 28.35 28.27-4.11 14.04-16.49 19.67-34.85 19.67-14.54 0-27.08-3.21-23.31-16.12l1.16-3.99h19.31zm66.94-31.21h-17.89l3.45-11.79h55.82l-3.44 11.79h-17.9l-14.65 50.12h-20.04l14.65-50.12z"/></svg>