<?xml version="1.0" encoding="utf-8"?>
<!-- Generator: Adobe Illustrator 23.1.1, SVG Export Plug-In . SVG Version: 6.00 Build 0)  -->
<svg version="1.1" xmlns="http://www.w3.org/2000/svg" xmlns:xlink="http://www.w3.org/1999/xlink" x="0px" y="0px"
	 viewBox="0 0 136.3 136.3" style="enable-background:new 0 0 136.3 136.3;" xml:space="preserve">
<style type="text/css">
	.st0{fill:url(#SVGID_1_);}
	.st1{opacity:0.26;fill:#FFFFFF;}
	.st2{fill:#C1CED3;}
	.st3{fill:#9BF315;}
	.st4{fill:#01B5FF;}
	.st5{fill:none;stroke:#000000;stroke-width:0.9273;stroke-linecap:round;stroke-linejoin:round;stroke-miterlimit:10;}
	.st6{fill:none;stroke:#000000;stroke-width:0.9273;stroke-miterlimit:10;}
	.st7{opacity:0.35;fill:#FFFFFF;}
	.st8{opacity:0.45;fill:#FFFFFF;}
	.st9{opacity:0.8;fill:#FFFFFF;}
	.st10{opacity:7.000000e-02;fill:#FFFFFF;}
	.st11{opacity:0.1;fill:#FFFFFF;}
</style>
<g id="Words">
</g>
<g id="Logo_Mark">
	<linearGradient id="SVGID_1_" gradientUnits="userSpaceOnUse" x1="11.5254" y1="11.5254" x2="128.9753" y2="128.9753">
		<stop  offset="0" style="stop-color:#026CFF"/>
		<stop  offset="1" style="stop-color:#0545B8"/>
	</linearGradient>
	<circle class="st0" cx="68.2" cy="68.2" r="68.2"/>
	<polygon class="st1" points="17.4,38.1 17.3,97.3 68.9,127.1 120.5,97.3 120.5,38.1 68.8,8.3 	"/>
	<polyline class="st2" points="94.3,52.9 68.7,67.6 43.5,52.9 43.5,23 68.7,8.3 94.2,23 94.3,52.9 68.7,67.6 	"/>
	<polyline class="st3" points="95.2,111.9 120.5,97.3 120.5,67.5 94.3,52.8 68.7,67.5 68.9,96.9 	"/>
	<polyline class="st4" points="68.7,67.5 43.5,52.8 17.3,67.5 17.3,97.3 43.5,112.4 68.9,96.9 	"/>
	<path class="st5" d="M94.3,82.2"/>
	<path class="st6" d="M43.5,82.2"/>
	<polygon class="st7" points="43.5,52.8 68.7,67.5 68.9,96.9 43.5,82.2 	"/>
	<polygon class="st8" points="94.3,52.8 94.3,82.2 68.9,96.9 68.7,67.5 	"/>
	<polygon class="st9" points="68.9,38.2 43.5,52.8 68.7,67.5 94.3,52.8 	"/>
	<polygon class="st10" points="17.3,38 68.7,8.4 120.5,38.1 68.7,67.5 	"/>
	<polygon class="st11" points="17.3,97.3 68.9,127.1 68.8,67.5 17.3,38 	"/>
</g>
</svg>
