<svg id="Layer_1" data-name="Layer 1" xmlns="http://www.w3.org/2000/svg" viewBox="0 0 612 94.73665"><defs><style>.cls-1{fill:#fff;}</style></defs><title>netfoundry</title><path d="M66.15456,85.824,17.59508,26.50871V84.56849H7.27247V9.12177c3.14712,0,6.32121-.074,9.48608.06374.61781.02689,1.30485.788,1.783,1.35872Q36.692,32.2081,54.801,53.9068c.2417.28921.50687.55881,1.00579,1.10588V9.277H66.15456Z"/><path d="M265.06211,85.87235c-19.84231.0004-34.45892-14.91145-34.45057-35.15612a34.064,34.064,0,0,1,35.00773-34.45829c19.224.25846,33.7722,15.3441,33.75263,35.51543A33.82307,33.82307,0,0,1,265.06211,85.87235ZM240.94122,51.07109c-.04448,16.12118,12.39028,27.06828,28.19085,24.81817,11.41063-1.62494,19.51406-11.46609,19.897-24.16378.49077-16.2713-12.18316-27.70966-28.17872-25.43164C249.2608,27.94438,240.97658,38.25422,240.94122,51.07109Z"/><path d="M435.3871,84.67332V17.5107H437.536q10.29062,0,20.58119.00008c15.57339.00011,28.3081,9.94046,32.16526,25.10721,4.43714,17.4478-5.11751,35.44579-21.70283,40.5389a35.49545,35.49545,0,0,1-9.40648,1.45C451.32315,84.80871,443.46461,84.67332,435.3871,84.67332Zm9.79992-9.59125c4.66935,0,9.18584.05406,13.70043-.01649a21.67486,21.67486,0,0,0,10.81088-3.11137c8.42309-4.97479,12.89512-15.19666,10.97008-25.29587-1.91977-10.07128-7.54048-17.18047-17.74757-19.26072-5.70207-1.16211-11.7401-.67581-17.73382-.937Z"/><path d="M537.87357,60.68738c8.89394,5.75256,11.45211,14.04856,10.91269,23.88h-9.8236c-.07794-1.47085-.06715-2.98255-.25187-4.47-1.04834-8.439-6.64353-14.04113-15.2122-14.82965-3.88718-.35772-7.83458-.06072-12.03385-.06072V84.57293H501.809V17.59829c.60145-.02989,1.18123-.09114,1.76-.08258,8.2535.12205,16.58-.39616,24.74454.5225A23.34922,23.34922,0,0,1,547.2164,50.02374,22.74967,22.74967,0,0,1,537.87357,60.68738ZM511.6359,26.7998V56.20653c4.55826,0,8.966.27032,13.32844-.0592a14.67874,14.67874,0,0,0,13.67188-14.58992c.13669-7.60306-5.03381-13.87837-12.70977-14.66884C521.25432,26.40743,516.4923,26.7998,511.6359,26.7998Z"/><path d="M369.0818,17.51273c2.792,0,5.454-.09459,8.10092.06409a3.46916,3.46916,0,0,1,1.98626,1.3538Q394.96538,37.87516,410.7,56.87116c.33889.40817.69408.80279,1.32954,1.53582V17.62106h9.12459V85.782L378.14173,32.90578V84.57694H369.0818Z"/><path d="M220.55923,41.619V51.80465H190.66516V84.5691H179.78188V9.22575H221.3757V19.47008H190.78337V41.619Z"/><path d="M309.87413,17.56243h9.582c.03663.80154.10163,1.56575.102,2.33q.0093,20.78632.0204,41.57262a23.414,23.414,0,0,0,.37191,4.76478c1.421,6.72631,6.86556,10.56238,14.17233,10.11155,6.48172-.39994,11.3811-5.32981,11.95083-12.051.07859-.9273.07442-1.86331.07471-2.79531q.00648-20.78632.003-41.57265V17.63513h9.79265c0,.925.00008,1.78219,0,2.63936q-.00132,21.58579-.00476,43.1716c-.00893,12.94477-9.511,22.35443-22.52534,22.44355-6.59118.04513-12.49422-1.62567-17.31413-6.32676a20.25943,20.25943,0,0,1-6.27179-14.68351c-.15986-15.45483-.055-30.9124-.0509-46.36889C309.77706,18.25482,309.82781,17.99917,309.87413,17.56243Z"/><path d="M81.22231,17.59078h36.98238v9.1315H91.07519V45.06643h26.26322V54.019H91.0336V74.9786h27.80295v9.5698H81.22231Z"/><path d="M576.976,46.41322c4.63313-9.275,9.11819-18.1882,13.52156-27.14155a2.61724,2.61724,0,0,1,2.83586-1.80356c2.9705.14436,5.953.04236,9.27031.04236-1.8453,3.4736-3.54477,6.68171-5.2524,9.88546-4.84913,9.09749-9.73389,18.17631-14.51294,27.31048a9.05557,9.05557,0,0,0-.966,3.95884c-.08818,7.85971-.04314,15.72091-.04294,23.58161,0,.72271,0,1.44543,0,2.29658h-9.79353c0-.62881,0-1.32555,0-2.02229,0-7.8607.05841-15.72221-.05076-23.5814a10.3351,10.3351,0,0,0-1.11847-4.501c-6.1494-11.71973-12.40807-23.38214-18.63082-35.06343-.27407-.51448-.51365-1.04735-.91027-1.86093,3.60489,0,6.96841-.068,10.32353.069.53981.022,1.22218.86716,1.53481,1.48542,4.20284,8.31167,8.35009,16.65142,12.517,24.98126C576.05226,44.75247,576.446,45.43379,576.976,46.41322Z"/><path d="M126.04559,17.59566h42.93809V26.6125H152.52676v57.931h-9.74589V26.76106H126.04559Z"/><path d="M603.93026,84.44484c-.95752.08254-.95752.08254-2.74547-5.386-.89686,1.83946-1.692,3.47014-2.65309,5.44138-.96572-1.87773-1.81455-3.52808-2.68218-5.215-1.35834,1.58739.00464,4.322-2.05529,5.46332l-.71136-.24351,1.76189-9.8949.37164-.14833c1.03316,2.20733,2.06633,4.41467,3.26879,6.98361,1.19416-2.52623,2.24011-4.73882,3.51768-7.44145C602.70906,77.82954,603.31851,81.131,603.93026,84.44484Z"/><path d="M591.86845,75.09453l-2.63586.9248V84.533l-.63991.28543c-.29653-.47993-.83229-.95151-.84942-1.44119-.08716-2.4968-.04021-4.99831-.04021-7.40842l-2.6365-.76216.13831-.70109h6.30308Z"/><path class="cls-1" d="M240.94122,51.07109c.03536-12.81687,8.31958-23.12671,19.90917-24.77725,15.99556-2.278,28.66949,9.16034,28.17872,25.43164-.383,12.69769-8.48641,22.53884-19.897,24.16378C253.3315,78.13937,240.89674,67.19227,240.94122,51.07109Z"/><path class="cls-1" d="M445.187,75.08207V26.46064c5.99372.26117,12.03175-.22513,17.73382.937,10.20709,2.08025,15.8278,9.18944,17.74757,19.26072,1.925,10.09921-2.547,20.32108-10.97008,25.29587a21.67486,21.67486,0,0,1-10.81088,3.11137C454.37286,75.13613,449.85637,75.08207,445.187,75.08207Z"/><path class="cls-1" d="M511.6359,26.7998c4.8564,0,9.61842-.39237,14.29055.08877,7.676.79047,12.84646,7.06578,12.70977,14.66884a14.67874,14.67874,0,0,1-13.67188,14.58992c-4.36242.32952-8.77018.0592-13.32844.0592Z"/></svg>