<?xml version="1.0" encoding="utf-8"?>
<!-- Generator: Adobe Illustrator 23.0.2, SVG Export Plug-In . SVG Version: 6.00 Build 0)  -->
<svg version="1.1" id="Layer_1" xmlns="http://www.w3.org/2000/svg" xmlns:xlink="http://www.w3.org/1999/xlink" x="0px" y="0px"
	 viewBox="0 0 400 245" style="enable-background:new 0 0 400 245;" xml:space="preserve">
<style type="text/css">
	.st0{fill:#EC1C24;}
	.st1{fill:#231F20;}
	.st2{fill:#0076AD;}
	.st3{fill:#44B549;}
	.st4{fill:#F6AF26;}
	.st5{fill:#4AA5D2;}
	.st6{fill:#B2CD41;}
	.st7{fill:#221F1F;stroke:#221F1F;stroke-width:0.0971;stroke-miterlimit:10;}
	.st8{fill:#221F1F;}
	.st9{fill:#96B85C;}
	.st10{fill:#E4B836;}
	.st11{fill:#053E72;}
	.st12{fill:#C8102E;}
	.st13{fill:#FFFFFF;}
	.st14{fill:url(#SVGID_1_);}
	.st15{fill:url(#SVGID_2_);}
	.st16{fill:#193760;}
	.st17{fill:none;stroke:#193760;stroke-width:1.3933;stroke-miterlimit:10;}
	.st18{fill:#ED5E30;}
	.st19{fill:#0067AB;}
	.st20{fill:#0077BF;}
	.st21{fill:#0077C0;}
	.st22{fill:#003DA6;}
	.st23{fill:#005CB8;}
	.st24{fill:#FFCD00;}
	.st25{fill:#008656;}
	.st26{fill:#124191;}
	.st27{fill:#0071BB;}
</style>
<g>
	<path class="st22" d="M32.81,142.24c0.01,0,1.9,0,3.79,0c1.21,0,2.19-0.98,2.19-2.19v-30.71h-4.39c-1.21,0-2.19,0.98-2.19,2.19
		v20.26L8.64,109.34H4.25c-1.21,0-2.19,0.98-2.19,2.19v30.71h4.39c1.21,0,2.19-0.98,2.19-2.19v-20.33l24.13,22.48L32.81,142.24z"/>
	<path class="st22" d="M80.47,113.73v-4.39H54.15h-4.39c-1.21,0-2.19,0.98-2.19,2.19v4.39v6.58v6.57v6.58v4.39
		c0,1.21,0.98,2.19,2.19,2.19h4.39h26.32v-4.39c0-1.21-0.98-2.19-2.19-2.19H54.15v-6.58h17.55c1.21,0,2.19-0.98,2.19-2.19v-2.18
		c0-1.21-0.98-2.19-2.19-2.19H54.15v-6.58h24.13C79.48,115.92,80.47,114.94,80.47,113.73z"/>
	<path class="st22" d="M108.98,109.34h-6.58H87.05v4.39c0,1.21,0.98,2.19,2.19,2.19h13.16v24.13c0,1.21,0.98,2.19,2.19,2.19h2.19
		c1.21,0,2.19-0.98,2.19-2.19v-24.13h13.16c1.21,0,2.19-0.98,2.19-2.19v-4.39H108.98z"/>
	<path class="st22" d="M351.89,142.24h4.39v-30.71c0-1.21-0.98-2.19-2.19-2.19c-1.91,0-4.39,0-4.39,0l-13.16,18.8l-13.16-18.8h-4.39
		c-1.21,0-2.19,0.98-2.19,2.19v30.71h4.39c1.21,0,2.19-0.98,2.19-2.19v-18.17l10.1,14.43c0.17,0.25,0.56,0.45,0.86,0.45h4.39
		c0.3,0,0.69-0.2,0.86-0.45l10.1-14.43v18.17C349.69,141.26,350.67,142.24,351.89,142.24z"/>
	<path class="st22" d="M397.94,113.73v-4.39h-26.32h-4.39c-1.21,0-2.19,0.98-2.19,2.19v4.39v6.58v6.57v6.58v4.39
		c0,1.21,0.98,2.19,2.19,2.19h4.39h26.32v-4.39c0-1.21-0.98-2.19-2.19-2.19h-24.13v-6.58h17.55c1.21,0,2.19-0.98,2.19-2.19v-2.18
		c0-1.21-0.98-2.19-2.19-2.19h-17.55v-6.58h24.13C396.96,115.92,397.94,114.94,397.94,113.73z"/>
	<path class="st22" d="M206.58,109.34h-24.13c-4.24,0-7.68,3.44-7.68,7.68v17.55c0,4.24,3.44,7.68,7.68,7.68h24.13
		c4.24,0,7.68-3.44,7.68-7.68v-17.55C214.26,112.78,210.82,109.34,206.58,109.34z M181.36,133.47v-15.35c0-1.21,0.98-2.19,2.19-2.19
		h21.93c1.21,0,2.19,0.98,2.19,2.19v15.35c0,1.21-0.98,2.19-2.19,2.19h-21.93C182.34,135.66,181.36,134.68,181.36,133.47z"/>
	<path class="st22" d="M301.44,122.13v11.33c0,1.21-0.98,2.19-2.19,2.19h-21.93c-1.21,0-2.19-0.98-2.19-2.19v-15.35
		c0-1.21,0.98-2.19,2.19-2.19h8.77v-6.58h-9.87c-4.24,0-7.68,3.44-7.68,7.68v17.55c0,4.24,3.44,7.68,7.68,7.68h24.13
		c4.24,0,7.68-3.44,7.68-7.68v-16.2L301.44,122.13z"/>
	<path class="st22" d="M166,123.6v-6.58c0-4.24-3.44-7.68-7.68-7.68h-20.84h-4.39c-1.21,0-2.19,0.98-2.19,2.19v4.39v8.77v6.58v10.97
		h4.39c1.21,0,2.19-0.98,2.19-2.19v-8.77h13.84l7.18,10.97h6.53c0.91,0,1.23-0.61,0.73-1.36l-6.51-9.66
		C163.06,130.75,166,127.52,166,123.6z M159.42,122.5c0,1.21-0.98,2.19-2.19,2.19h-19.74v-8.77h19.74c1.21,0,2.19,0.98,2.19,2.19
		V122.5z"/>
	<path class="st22" d="M253.78,142.24c0.01,0,1.9,0,3.79,0c1.21,0,2.19-0.98,2.19-2.19v-30.71h-4.39c-1.21,0-2.19,0.98-2.19,2.19
		v20.26l-23.58-22.45h-4.39c-1.21,0-2.19,0.98-2.19,2.19v30.71h4.39c1.21,0,2.19-0.98,2.19-2.19v-20.33l24.13,22.48L253.78,142.24z"
		/>
	<path class="st24" d="M291.66,122.5c-0.2,0-0.41-0.05-0.59-0.16c-0.37-0.21-0.59-0.6-0.59-1.02v-17.39c0-0.42,0.23-0.81,0.59-1.02
		c0.18-0.11,0.39-0.16,0.59-0.16c0.21,0,0.41,0.05,0.59,0.16l15.18,8.7c0.37,0.21,0.59,0.6,0.59,1.02c0,0.42-0.23,0.81-0.59,1.02
		l-15.18,8.69C292.07,122.45,291.86,122.5,291.66,122.5z"/>
</g>
</svg>
