<svg id="Layer_1" data-name="Layer 1" xmlns="http://www.w3.org/2000/svg" viewBox="0 0 1063.70728 200"><defs><style>.cls-1{fill:#404040;}</style></defs><title>netsia</title><path class="cls-1" d="M715.71857,84.10321q-16.02045-8.16486-53.04834-16.14477Q647.70859,64.84363,643.72,61.22626q-4.11429-3.48881-4.11426-7.85425a12.79892,12.79892,0,0,1,4.98694-10.16052q4.986-4.17655,14.83606-4.17652,11.96667,0,18.76331,5.61017,6.79275,5.61017,8.91406,17.95252l53.23535-3.11676q-3.49191-28.42383-21.88013-41.45282Q700.071,5,665.039,5q-28.552.001-44.94458,7.16852-16.39637,7.16857-24.56073,19.69787a47.9167,47.9167,0,0,0-8.16608,26.61713q-.00183,21.4432,15.95813,35.28162,15.83259,13.84029,52.986,22.19128,22.68851,4.98689,28.92407,10.59705,6.23364,5.61016,6.23364,12.71631.00009,7.48122-6.54529,13.15271-6.5472,5.6725-18.63855,5.67248-16.2094.002-24.93457-11.09564-5.362-6.85684-7.10632-19.94721l-53.734,3.36609h.00006q2.36884,27.67676,20.32172,45.62928Q618.78344,194,665.413,194q26.55342,0,44.00947-7.66724,17.45415-7.66524,27.17871-22.503a57.94279,57.94279,0,0,0,9.72454-32.41424,51.36408,51.36408,0,0,0-7.29339-27.05341Q731.737,92.27011,715.71857,84.10321Z"/><polygon class="cls-1" points="393.14 53.247 450.739 53.247 450.739 190.883 507.215 190.883 507.215 53.247 564.814 53.247 564.814 8.117 393.14 8.117 393.14 53.247"/><polygon class="cls-1" points="130.828 109.232 62.009 8.117 9.272 8.117 9.272 190.883 62.383 190.883 62.383 90.532 130.828 190.883 184.064 190.883 184.064 8.117 130.828 8.117 130.828 109.232"/><polygon class="cls-1" points="278.062 113.463 365.957 113.463 365.957 76.187 278.062 76.187 278.062 47.139 372.814 47.139 372.814 8.117 221.461 8.117 221.461 190.883 375.557 190.883 375.557 149.493 278.062 149.493 278.062 113.463"/><rect class="cls-1" x="776.99957" y="8.11676" width="56.60144" height="182.76648"/><path class="cls-1" d="M986.09766,8.11676h-61.604L855.799,190.88324h57.665l8.90832-30.17017h64.11884l9.144,30.17017h59.14173ZM934.63892,121.19263l19.96325-65.70117,20.17365,65.70117Z"/></svg>