<svg xmlns="http://www.w3.org/2000/svg" xmlns:xlink="http://www.w3.org/1999/xlink" width="578.25" height="190.342" viewBox="0 0 578.25 190.342">
  <defs>
    <linearGradient id="linear-gradient" x1="1" y1="0.501" x2="0.017" y2="0.501" gradientUnits="objectBoundingBox">
      <stop offset="0" stop-color="#2e3192"/>
      <stop offset="0.2" stop-color="#2d3393"/>
      <stop offset="0.27" stop-color="#2b3a98"/>
      <stop offset="0.33" stop-color="#2645a1"/>
      <stop offset="0.37" stop-color="#2056ae"/>
      <stop offset="0.4" stop-color="#186cbe"/>
      <stop offset="0.44" stop-color="#0e88d2"/>
      <stop offset="0.46" stop-color="#03a7ea"/>
      <stop offset="0.47" stop-color="#00aeef"/>
      <stop offset="0.54" stop-color="#00aeef"/>
      <stop offset="1" stop-color="#00aeef"/>
    </linearGradient>
    <linearGradient id="linear-gradient-2" x1="0.933" y1="0.75" x2="0.067" y2="0.25" gradientUnits="objectBoundingBox">
      <stop offset="0" stop-color="#00aeef"/>
      <stop offset="0.14" stop-color="#03a6e9"/>
      <stop offset="0.36" stop-color="#0b91d9"/>
      <stop offset="0.63" stop-color="#186ebf"/>
      <stop offset="0.93" stop-color="#293e9b"/>
      <stop offset="1" stop-color="#2e3192"/>
    </linearGradient>
    <linearGradient id="linear-gradient-4" x1="0.933" y1="0.75" x2="0.067" y2="0.25" gradientUnits="objectBoundingBox">
      <stop offset="0" stop-color="#2e3192"/>
      <stop offset="0.291" stop-color="#2c3696"/>
      <stop offset="0.63" stop-color="#186ebf"/>
      <stop offset="0.808" stop-color="#0b91d9"/>
      <stop offset="1" stop-color="#03a6e9"/>
      <stop offset="1" stop-color="#2e3192"/>
    </linearGradient>
  </defs>
  <g id="gonife" transform="translate(0 0)">
    <g id="logo_white_Image" data-name="logo_white Image" transform="translate(0 -0.021)">
      <path id="Path_99" data-name="Path 99" d="M177.06,392.48V326.57a44,44,0,0,1,7.3-24.15,50.17,50.17,0,0,1,13.14-13.56,69.69,69.69,0,0,1,21.78-10.15,72.123,72.123,0,0,1,11-2.2,82.679,82.679,0,0,1,14.92-.62,80.31,80.31,0,0,1,27.8,6.38,60.4,60.4,0,0,1,14.67,9,49.59,49.59,0,0,1,14.78,20.56,43.688,43.688,0,0,1,2.2,8.61,46.619,46.619,0,0,1,.49,7.17V458c0,1.15,0,2.3-.05,3.45a1.16,1.16,0,0,1-1.29,1.22h-3.45a1.19,1.19,0,0,1-1.11-1.12,7.453,7.453,0,0,0-.06-1.15V325.71a36.14,36.14,0,0,0-5.31-18.29,48.2,48.2,0,0,0-13.63-14.63,64.55,64.55,0,0,0-21-9.76,79.8,79.8,0,0,0-9.86-1.89,91.08,91.08,0,0,0-13.21-.39c-12.23,1.08-23.66,4.58-33.86,11.59a48.341,48.341,0,0,0-14.16,14.91A36.84,36.84,0,0,0,183,322a54,54,0,0,0-.4,6.59V457.81c0,1.15,0,2.31-.05,3.46a1.17,1.17,0,0,1-1.17,1.34,12,12,0,0,1-3.44-.06,1,1,0,0,1-.77-.75,11,11,0,0,1-.11-1.14c0-1,0-1.92,0-2.88Z" transform="translate(-91.81 -275.77)" fill="#3a53a4"/>
      <path id="Path_100" data-name="Path 100" d="M527,371.1v40.56c0,2.59.09,5.19.31,7.76a33.481,33.481,0,0,0,3.11,11.31A47.35,47.35,0,0,0,542,446a58.4,58.4,0,0,0,22.28,12.17,78.382,78.382,0,0,0,11.78,2.52,74.183,74.183,0,0,0,9.17.52h1.44a66.77,66.77,0,0,0,23.08-4.08,57.63,57.63,0,0,0,17.69-10,48.669,48.669,0,0,0,11.14-13.07,36.249,36.249,0,0,0,4.82-14.33,56.08,56.08,0,0,0,.41-6.6,10.245,10.245,0,0,1,.2-2,.86.86,0,0,1,.58-.53,10.711,10.711,0,0,1,4,0c.23,0,.45.31.61.53a1,1,0,0,1,.11.55,51.511,51.511,0,0,1-1,12.87,43.7,43.7,0,0,1-5.11,13.05,51.759,51.759,0,0,1-13.78,15.28,65.821,65.821,0,0,1-20.8,10.18,81,81,0,0,1-10.08,2.25,67.339,67.339,0,0,1-11.17.82c-3.26,0-6.52-.06-9.78-.21a40.543,40.543,0,0,1-5.13-.61,80.682,80.682,0,0,1-17.38-4.84A64.942,64.942,0,0,1,542,453.29a51.1,51.1,0,0,1-15.77-18A41.47,41.47,0,0,1,522,422.22a59.712,59.712,0,0,1-.66-8.88q.06-30.78,0-61.57V327.6a46.57,46.57,0,0,1,2.5-15.25,47.6,47.6,0,0,1,14.7-20.92,63.25,63.25,0,0,1,17-10,75.579,75.579,0,0,1,15.16-4.32,38,38,0,0,1,6.56-.81,5,5,0,0,0,.86-.06,49.457,49.457,0,0,1,8.6-.39,27.628,27.628,0,0,1,5.45.33,13.56,13.56,0,0,0,1.43.13,71.57,71.57,0,0,1,17.13,3.46,66.918,66.918,0,0,1,15.34,7.14,51,51,0,0,1,17.8,18.8,42.768,42.768,0,0,1,4.65,13.23,38.334,38.334,0,0,1,.73,8c-.05,1.43,0,2.87-.05,4.31a1,1,0,0,1-1,1.14h-.86c-3.76,0-3.62.39-3.61-3.54a45.539,45.539,0,0,0-1.59-12.51,35.274,35.274,0,0,0-3.44-8.19A48.291,48.291,0,0,0,626.35,294a64.219,64.219,0,0,0-20.66-10.44,62.3,62.3,0,0,0-9.51-2.16,50.51,50.51,0,0,0-8.87-.76c-1.81.07-3.64,0-5.46.05a31.144,31.144,0,0,0-3.72.33c-1.8.21-3.61.41-5.4.75a66.38,66.38,0,0,0-27.08,11.31,48.9,48.9,0,0,0-13,14,36.191,36.191,0,0,0-5.17,14.51,63.3,63.3,0,0,0-.41,8C527,343.48,527,357.29,527,371.1Z" transform="translate(-91.81 -275.77)" fill="#3a53a4"/>
      <path id="Path_101" data-name="Path 101" d="M292.09,392.07v66.18c0,1.14-.07,2.29-.14,3.44a1.14,1.14,0,0,1-1,.93,12.21,12.21,0,0,1-3.72-.05,1.08,1.08,0,0,1-.77-.76,11,11,0,0,1-.13-1.14V330.34a60.841,60.841,0,0,0-.34-6.88,32.69,32.69,0,0,0-9.13-19.11,36.249,36.249,0,0,0-8.88-6.79,51.641,51.641,0,0,0-15.06-5.43,62,62,0,0,0-16-1,53.83,53.83,0,0,0-20.48,5.16,39.319,39.319,0,0,0-11,7.74,32.42,32.42,0,0,0-8.89,17.08,55.121,55.121,0,0,0-.62,6.29c-.08,1.15,0,2.31,0,3.46v130.3c0,1.15-.53,1.46-1.64,1.53h-2.3c-1.91,0-2.11-.26-2.14-2.19V327.03a33.33,33.33,0,0,1,5.45-18.2,43.28,43.28,0,0,1,11.28-11.77,57.11,57.11,0,0,1,20.6-9.19,54.312,54.312,0,0,1,7.93-1.26,60.381,60.381,0,0,1,6.31-.4,39.664,39.664,0,0,1,4.871.3c2,.3,4,.38,6,.75a57.88,57.88,0,0,1,24.13,10.25,40.11,40.11,0,0,1,12.35,14.55A30.48,30.48,0,0,1,292,324.75c.05,1.63.09,3.26.09,4.89Q292.11,360.86,292.09,392.07Z" transform="translate(-91.81 -275.77)" fill="#3a53a4"/>
      <path id="Path_102" data-name="Path 102" d="M534.24,371V329.57c0-1.82.08-3.65.18-5.46a30.161,30.161,0,0,1,4-13.1,42.411,42.411,0,0,1,11.93-13.46,56.92,56.92,0,0,1,21-9.59,59.737,59.737,0,0,1,8.21-1.32,63.481,63.481,0,0,1,6.89-.37,20.762,20.762,0,0,1,4,.28,13.407,13.407,0,0,0,1.42.16,56.18,56.18,0,0,1,16.13,3.8,53.258,53.258,0,0,1,13,7.23,41,41,0,0,1,11.29,12.89,33.5,33.5,0,0,1,3.87,11.66,60.514,60.514,0,0,1,.37,8.61,2,2,0,0,1-.15.84c-.12.23-.37.54-.58.55-1.43.07-2.86.08-4.29.08a1,1,0,0,1-.87-1c0-1.25-.05-2.49-.05-3.74,0-10.55-4.27-19.09-12.18-25.92A39.27,39.27,0,0,0,610,296.3a53.788,53.788,0,0,0-14.75-4.59,60.471,60.471,0,0,0-13.77-.62,53.161,53.161,0,0,0-23.79,6.85,35,35,0,0,0-11.42,10.35,31.86,31.86,0,0,0-5.81,17.76q0,1.44,0,2.88v38.54c0,1.14.43,1.52,1.6,1.55s2.11,0,3.16,0h60.99a1.29,1.29,0,0,1,1.29,1.28,8.113,8.113,0,0,1,.05.86c0,1.77-.38,2.15-2.2,2.2H545.22c-1.15,0-2.31,0-3.45.1a1.19,1.19,0,0,0-1.28,1.27c0,1-.06,1.92-.06,2.88v37.97a31.69,31.69,0,0,0,9.13,22,38.75,38.75,0,0,0,13.19,9,51.229,51.229,0,0,0,12.39,3.55,83.712,83.712,0,0,0,10.59.88c1.14,0,2.29-.12,3.44-.19.57,0,1.14-.11,1.72-.15a49.641,49.641,0,0,0,21.33-6.22,37.08,37.08,0,0,0,13.63-12.93,31,31,0,0,0,4.76-16.35c0-1.34.06-2.68.11-4a.92.92,0,0,1,.76-.75,6.139,6.139,0,0,1,.85-.09c4.56,0,4.23-.55,4.24,4.09a34.239,34.239,0,0,1-7.41,21.61,44,44,0,0,1-9.59,9.05A57.079,57.079,0,0,1,600,453.93c-2.42.58-4.88.94-7.34,1.28a64.691,64.691,0,0,1-8.9.42,28.162,28.162,0,0,1-4.58-.34c-1.7-.28-3.42-.39-5.12-.71A57.53,57.53,0,0,1,551,444.89a43.829,43.829,0,0,1-12-12.7,31.349,31.349,0,0,1-4.34-11.49,49.234,49.234,0,0,1-.42-5.44c-.06-1.15,0-2.3,0-3.45Q534.23,391.38,534.24,371Z" transform="translate(-91.81 -275.77)" fill="#3a53a4"/>
      <path id="Path_103" data-name="Path 103" d="M273.55,392.33v-61a74.376,74.376,0,0,0-.31-7.47A21.94,21.94,0,0,0,265,308.31a28.42,28.42,0,0,0-9.93-5.06,48,48,0,0,0-6.74-1.39,52.277,52.277,0,0,0-9.76-.42,43.5,43.5,0,0,0-14.3,2.82,28,28,0,0,0-7.88,4.67,21.8,21.8,0,0,0-7.4,13,32.809,32.809,0,0,0-.51,6V461.17c0,1.06-.4,1.47-1.6,1.54h-1.15c-2.59,0-2.73-.14-2.77-2.76V326.72c-.06-7,2.61-12.87,7.27-17.93a33,33,0,0,1,9.67-7.14,45.64,45.64,0,0,1,12.82-4.06,68.936,68.936,0,0,1,13.77-.45c7.75.9,15,3.23,21.26,8a29.371,29.371,0,0,1,8.8,10.49,24.4,24.4,0,0,1,2.26,7.38,43.372,43.372,0,0,1,.4,6V458.8c0,.95-.05,1.91-.1,2.87a1.1,1.1,0,0,1-.95.93c-.38,0-.76.08-1.15.09-3.24.08-3.39,0-3.4-3.33V441.52Z" transform="translate(-91.81 -275.77)" fill="#3a53a4"/>
      <path id="Path_104" data-name="Path 104" d="M392.35,393.06V328.3a41.707,41.707,0,0,1,.45-6.59,32.51,32.51,0,0,1,3.75-10.8,42.61,42.61,0,0,1,12.66-14,57,57,0,0,1,20.35-9.06,59.88,59.88,0,0,1,8.22-1.32c2.2-.2,4.39-.38,6.6-.36a22.82,22.82,0,0,1,4.29.3,9,9,0,0,0,1.15.12,57.44,57.44,0,0,1,30.81,12.22,38.9,38.9,0,0,1,11.74,15.74A29.66,29.66,0,0,1,494.58,325c0,1.72.06,3.45.06,5.18a13.6,13.6,0,0,1-.12,1.42.92.92,0,0,1-.73.79h-4a.89.89,0,0,1-.74-.77c-.06-.95-.14-1.91-.13-2.86a37.994,37.994,0,0,0-.6-7.16A31.82,31.82,0,0,0,483,308.64a36,36,0,0,0-11.33-10.46,50.64,50.64,0,0,0-16.05-6,61.23,61.23,0,0,0-16-1A53.57,53.57,0,0,0,418,296.75a41.212,41.212,0,0,0-7.22,4.7,32.63,32.63,0,0,0-11.63,19.3,36.3,36.3,0,0,0-.71,7.44V365.6a20.221,20.221,0,0,0,.2,2.57.94.94,0,0,0,.78.75,6.112,6.112,0,0,0,1.13.13h62.16c3.11,0,3,.05,3,3,0,.85-.4,1.28-1.19,1.31-1,.05-2.11.07-3.16.07H401.22c-2.39,0-2.69.34-2.74,2.62v82.02c0,1.05,0,2.11-.05,3.16s-.46,1.38-1.46,1.39c-1.24,0-2.48-.05-3.72-.1a1,1,0,0,1-.78-.74c0-.48-.1-.95-.1-1.43v-5.76Z" transform="translate(-91.81 -275.77)" fill="#3a53a4"/>
      <path id="Path_105" data-name="Path 105" d="M379.63,392.05v-65.6a44,44,0,0,1,8.66-26,50.13,50.13,0,0,1,11.85-11.63,69.55,69.55,0,0,1,21.79-10.12,73.8,73.8,0,0,1,11-2.18,76,76,0,0,1,14.92-.58c2.86.22,5.72.47,8.57.89a75.66,75.66,0,0,1,19,5.4,58.62,58.62,0,0,1,14.91,9.11,49.451,49.451,0,0,1,14.74,20.58,45.17,45.17,0,0,1,2.28,9.18,66,66,0,0,1,.36,10.33,1,1,0,0,1-.88,1c-.57,0-1.15.07-1.72.07-3.3,0-3.35.26-3.32-3.28v-3.46a36.27,36.27,0,0,0-5-17.78,48.38,48.38,0,0,0-13.9-15.14,64.831,64.831,0,0,0-21-9.77,72.09,72.09,0,0,0-22.77-2.28,45.664,45.664,0,0,0-6.28.68,75.522,75.522,0,0,0-14.4,3.83,63.18,63.18,0,0,0-14.18,7.52,48.45,48.45,0,0,0-13.62,14.64,37,37,0,0,0-5,14.27,51,51,0,0,0-.42,6.88V458.3c0,1.15-.06,2.3-.1,3.45a.92.92,0,0,1-.71.79,24.789,24.789,0,0,1-2.57.16c-1.88,0-2.12-.27-2.16-2.18v-2.88Q379.63,424.85,379.63,392.05Z" transform="translate(-91.81 -275.77)" fill="#3a53a4"/>
      <path id="Path_106" data-name="Path 106" d="M345.45,370.87v87.47c0,1.15-.06,2.3-.11,3.45a1,1,0,0,1-.74.77,15,15,0,0,1-4,.09,1.18,1.18,0,0,1-1.2-1.32c0-1.15,0-2.31,0-3.46V282.94c0-1,.06-1.92.11-2.87a.89.89,0,0,1,.74-.76h4.31a1,1,0,0,1,.88,1c0,1.06.06,2.11.06,3.17Z" transform="translate(-91.81 -275.77)" fill="#3a53a4"/>
      <path id="Path_107" data-name="Path 107" d="M332.38,370.89v87.17c0,1.15,0,2.3-.1,3.45a1.17,1.17,0,0,1-1.11,1.11h-3.44a1.2,1.2,0,0,1-1.06-1.17c0-.38-.06-.77-.07-1.15V283.93c0-1.24,0-2.48.11-3.73a1,1,0,0,1,.94-.93h3.72a1,1,0,0,1,.9,1c.06,1,.11,1.91.11,2.87v87.75Z" transform="translate(-91.81 -275.77)" fill="#3a53a4"/>
      <path id="Path_108" data-name="Path 108" d="M358,371v90.34c0,.96-.48,1.37-1.46,1.38s-2.1-.06-3.15-.12a1,1,0,0,1-.78-.74,7.526,7.526,0,0,1-.17-1.13V284c0-1.15,0-2.3.08-3.45.05-.93.49-1.33,1.49-1.35s2.11,0,3.16.08a1,1,0,0,1,.77.74,8.429,8.429,0,0,1,.11.86v2.87Z" transform="translate(-91.81 -275.77)" fill="#3a53a4"/>
      <path id="Path_109" data-name="Path 109" d="M577.44,363.46H550.68c-.86,0-1.72-.06-2.57-.12a1,1,0,0,1-.77-.77c-.05-.86-.11-1.72-.11-2.57V327.2a26.34,26.34,0,0,1,7.64-18.68,35.629,35.629,0,0,1,14.8-9.1A43.221,43.221,0,0,1,583.2,297c2,0,4-.06,6,.06a41.931,41.931,0,0,1,21.8,7.29,30.45,30.45,0,0,1,8.53,8.84,24.48,24.48,0,0,1,3.89,13.05v5.18a.94.94,0,0,1-.89.95H618.8a.83.83,0,0,1-.74-.74c0-1.44-.1-2.87-.11-4.31a29.191,29.191,0,0,0-1-7.38,21.22,21.22,0,0,0-7.17-11.19,29.209,29.209,0,0,0-10.91-5.6,52.362,52.362,0,0,0-6.46-1.29,49.288,49.288,0,0,0-9.47-.4,42,42,0,0,0-15.62,3.4,27.119,27.119,0,0,0-6.77,4.31,21.82,21.82,0,0,0-7.32,13.93,46.993,46.993,0,0,0-.38,6.6v26.75c.07,1.57.48,2,2.14,2h48.3c1.06,0,2.11.07,3.16.14a1.16,1.16,0,0,1,1,.94,19.362,19.362,0,0,1,.12,2c0,1.41-.48,1.83-1.94,1.87h-2.3Z" transform="translate(-91.81 -275.77)" fill="#3a53a4"/>
      <path id="Path_110" data-name="Path 110" d="M435.66,363.46H409.2q-1.29,0-2.58-.06a1.15,1.15,0,0,1-1.07-1.15c0-.77-.07-1.54-.07-2.3V327.74a27.671,27.671,0,0,1,1-8.24,27.33,27.33,0,0,1,6-10.38,32.62,32.62,0,0,1,8.55-6.73,44.289,44.289,0,0,1,14.07-4.77,68.789,68.789,0,0,1,14.05-.47c7.74.92,14.95,3.27,21.23,8.05a29.85,29.85,0,0,1,7.21,7.74,25.18,25.18,0,0,1,3.83,10.43,52.172,52.172,0,0,1,.34,7.17,8.536,8.536,0,0,1-.16,1.13,1,1,0,0,1-.81.72h-3.45a1.15,1.15,0,0,1-1.1-1.11c0-.48-.08-1-.1-1.43-.09-1.82-.11-3.65-.26-5.46a22,22,0,0,0-9-16.63,28.7,28.7,0,0,0-9.24-4.52,48,48,0,0,0-6.74-1.39,52.206,52.206,0,0,0-9.75-.42,43.14,43.14,0,0,0-14.29,2.82,28,28,0,0,0-7.88,4.66,21.66,21.66,0,0,0-7.35,12.68,28.788,28.788,0,0,0-.56,5.71v28.18a16.382,16.382,0,0,0,.06,1.72,1.21,1.21,0,0,0,1.1,1.14c.76.07,1.53.13,2.29.13h47.17c1,0,2.1.07,3.15.14a1,1,0,0,1,.87,1v2.87a1.1,1.1,0,0,1-1,.91c-.86,0-1.72.07-2.58.07Z" transform="translate(-91.81 -275.77)" fill="#3a53a4"/>
      <path id="Path_111" data-name="Path 111" d="M577.31,379.44h26.75c.86,0,1.72.06,2.58.12a1.13,1.13,0,0,1,.78.75,6.62,6.62,0,0,1,0,3.13,1,1,0,0,1-.8.72c-1,0-1.92.07-2.88.07H556.83c-1,0-1.92,0-2.87.07a1.09,1.09,0,0,0-1,.93,16.7,16.7,0,0,0-.17,2c0,1.92,0,3.83,0,5.75v21a32.43,32.43,0,0,0,.82,7.41,21.71,21.71,0,0,0,8.91,13,30.59,30.59,0,0,0,11,4.81,44,44,0,0,0,10.53,1.26c1.73,0,3.46.05,5.18-.07a40.42,40.42,0,0,0,14.19-3.28,27.892,27.892,0,0,0,6.33-3.92,21.76,21.76,0,0,0,7.7-13.42,41.9,41.9,0,0,0,.48-7.16c0-1.95.19-2.11,2.14-2.13h2c1,0,1.33.39,1.34,1.46,0,1.82.09,3.65,0,5.46a24.49,24.49,0,0,1-3.13,10.37,29,29,0,0,1-8,9,41.5,41.5,0,0,1-14.48,6.77,49.252,49.252,0,0,1-13.68,1.37,47,47,0,0,1-5.45-.3,50.153,50.153,0,0,1-8.13-1.77,41.369,41.369,0,0,1-10.86-5.17,29,29,0,0,1-9.29-10,24.7,24.7,0,0,1-2.78-8.11,34.2,34.2,0,0,1-.42-5.44q0-15.68,0-31.35v-1.73c0-1.13.43-1.51,1.59-1.54h2.59Z" transform="translate(-91.81 -275.77)" fill="#3a53a4"/>
      <path id="Path_112" data-name="Path 112" d="M405.48,421V383.62c0-4.62-.4-4.21,4.14-4.21H462c1,0,1.91.05,2.87.09a.9.9,0,0,1,.79.72c0,1.05,0,2.09,0,3.14a.83.83,0,0,1-.73.76c-1,0-1.92.08-2.87.08H412.59a1.94,1.94,0,0,0-.84.17,1.21,1.21,0,0,0-.54.6,3.91,3.91,0,0,0-.16,1.13c0,1,0,1.92,0,2.88v72.47a1.1,1.1,0,0,1-1.1,1.1h-3.16c-.75,0-1.16-.5-1.19-1.34s-.06-1.91-.06-2.87Z" transform="translate(-91.81 -275.77)" fill="#3a53a4"/>
    </g>
    <g id="Layer_2" data-name="Layer 2" transform="translate(0 -0.021)">
      <path id="Path_113" data-name="Path 113" d="M60.09,92.84v4.71L0,93.92Z" fill="url(#linear-gradient)"/>
      <path id="Path_114" data-name="Path 114" d="M152.24,395.79A24.83,24.83,0,1,1,177.06,371a24.83,24.83,0,0,1-24.82,24.79Zm0-46.65A21.83,21.83,0,1,0,174.06,371a21.83,21.83,0,0,0-21.82-21.86Z" transform="translate(-91.81 -275.77)" fill="url(#linear-gradient-2)"/>
      <path id="Path_115" data-name="Path 115" d="M60.09,92.84v4.71L0,93.92Z" transform="translate(578.25 190.38) rotate(180)" fill="url(#linear-gradient)"/>
      <path id="Path_116" data-name="Path 116" d="M152.24,395.79A24.83,24.83,0,1,1,177.06,371a24.83,24.83,0,0,1-24.82,24.79Zm0-46.65A21.83,21.83,0,1,0,174.06,371a21.83,21.83,0,0,0-21.82-21.86Z" transform="translate(693.06 466.15) rotate(180)" fill="url(#linear-gradient-4)"/>
    </g>
  </g>
</svg>
