<svg id="Layer_1" data-name="Layer 1" xmlns="http://www.w3.org/2000/svg" viewBox="0 0 310.6665 56.6665"><defs><style>.cls-1{fill:#006cb7;}</style></defs><title>logo_nokia</title><polygon class="cls-1" points="19.706 51.799 5.236 51.799 5.236 4.252 30.27 4.252 58.975 39.759 58.975 4.252 73.442 4.252 73.442 51.799 48.926 51.799 19.706 15.703 19.706 51.799"/><path class="cls-1" d="M122.7153,40.356c3.3008,0,4.4649-.1885,5.2578-.8829.7422-.6494,1.0684-1.4892,1.0684-4.2812V20.6763c0-2.793-.3262-3.628-1.0684-4.2823-.7929-.6962-1.957-.8759-5.2578-.8759H99.2134c-3.3008,0-4.459.1797-5.25.8759-.7461.6543-1.0664,1.4893-1.0664,4.2823V35.1919c0,2.792.3203,3.6318,1.0664,4.2812.791.6944,1.9492.8829,5.25.8829Zm19.961-3.25c0,6.5996-1.211,8.8867-3.2051,11.0703-3.0781,3.2548-7.543,4.2314-16.1524,4.2314H98.6157c-8.6094,0-13.0762-.9766-16.1465-4.2314-2.0019-2.1836-3.2109-4.4707-3.2109-11.0703V18.7759c0-6.6094,1.209-8.8955,3.2109-11.083,3.0703-3.2549,7.5371-4.2276,16.1465-4.2276h24.7031c8.6094,0,13.0743.9727,16.1524,4.2276,1.9941,2.1875,3.2051,4.4736,3.2051,11.083Z"/><path class="cls-1" d="M189.2427,4.2524h19.95509L182.2642,26.4946l30.38669,25.3106H191.2876L163.7075,27.0005ZM163.7075,51.8052H148.5903V4.2524h15.1172Z"/><rect class="cls-1" x="215.44579" y="4.2524" width="15.125" height="47.5528"/><path class="cls-1" d="M259.73289,33.188h18.7969l-9.4024-17.209Zm28.4805,18.6113-4.4727-8.2803H254.481l-4.4239,8.2803H233.352l26.7989-47.5469h18.8008l26.8027,47.5469Z"/></svg>