<svg id="Layer_1" data-name="Layer 1" xmlns="http://www.w3.org/2000/svg" viewBox="0 0 380.56314 161.22743"><defs><style>.cls-1{fill:#221f1f;}.cls-1,.cls-2{stroke:#231f20;stroke-miterlimit:10;stroke-width:0.25px;}.cls-2{fill:#ed1370;}</style></defs><title>ns1</title><g id="_Group_" data-name=" Group "><path id="_Compound_Path_" data-name=" Compound Path " class="cls-1" d="M40.2436,162.6108c1.569,15.627,2.228,27.67682,2.228,54.69468v59.15058H9.88382V119.95021H50.74008l31.94445,61.62957c7.8449,14.96023,16.29387,32.36807,22.0991,47.99512h.89432c-1.81217-21.87159-1.81217-43.52352-1.81217-60.0449v-49.5798h32.36807V276.45606H96.27976L61.89554,210.37843A440.07869,440.07869,0,0,1,41.13792,162.603Z" transform="translate(-9.75882 -119.82521)"/><path id="_Compound_Path_2" data-name=" Compound Path 2" class="cls-1" d="M231.65927,236.94912c0-24.78205-72.10252-21.43227-72.10252-70.76889,0-25.88819,22.75022-46.20649,55.14184-46.20649,26.12352,0,42.41741,12.05762,47.548,18.74932l-21.18124,25.22921c-3.78908-4.70694-12.72444-14.51307-29.2458-14.51307-11.16331,0-17.4157,6.27592-17.4157,14.06591,0,25.22921,71.88287,21.43228,71.88287,71.216,0,23.44058-19.424,46.20649-59.15843,46.20649-30.14012,0-48.88945-13.3991-54.24751-19.424l19.424-28.13183c6.69954,6.69954,20.31046,18.74932,39.28729,18.74932C225.1794,252.129,231.65927,245.2098,231.65927,236.94912Z" transform="translate(-9.75882 -119.82521)"/><path id="_Compound_Path_3" data-name=" Compound Path 3" class="cls-1" d="M291.64141,168.09439,278.4463,141.63352,308.29615,120.97h32.99567V276.75417h-32.776V196.16346l1.12182-40.04824" transform="translate(-9.75882 -119.82521)"/></g><path id="_Compound_Path_4" data-name=" Compound Path 4" class="cls-2" d="M371.479,240.5107c10.66908,0,18.71793,8.04887,18.71793,18.90623,0,9.9238-8.04888,17.97268-18.71793,17.97268a18.04329,18.04329,0,0,1-18.14513-17.94086l-.00014-.03182C353.33375,248.55958,361.36693,240.5107,371.479,240.5107Z" transform="translate(-9.75882 -119.82521)"/></svg>