<svg id="Layer_1" data-name="Layer 1" xmlns="http://www.w3.org/2000/svg" viewBox="0 0 1822.95865 678.31442"><defs><style>.cls-1{fill:#0b3bda;}</style></defs><title>ntt</title><path class="cls-1" d="M694.94663,316.37549c.85522,77.599-21.501,147.69025-68.48481,209.59241-36.1109,47.57678-81.95013,82.9945-136.63617,106.90173a332.55448,332.55448,0,0,1-120.83227,28.16828c-97.16055,3.86889-181.8154-27.1272-253.16675-93.01386-53.812-49.69067-87.22092-111.24323-101.0321-183.15283C7.636,347.59943,7.30676,309.992,12.68016,272.42612c8.28224-57.902,29.348-110.53751,66.3631-156.1698,38.86467-47.91242,87.61623-80.44574,148.8521-92.24014,40.795-7.85739,80.84857-4.0185,120.00735,9.80343a12.36264,12.36264,0,0,0,7.52115.2555C436.33841,6.55094,511.00571,19.20726,578.473,70.75327c58.5766,44.75342,92.54816,105.46039,108.49909,176.7828A340.39872,340.39872,0,0,1,694.94663,316.37549ZM438.66855,102.082c1.48822,1.84845,2.19952,2.70255,2.87958,3.58084,8.44848,10.91129,17.92279,21.18827,25.14709,32.858,22.97138,37.10645,33.67444,77.58738,27.973,121.21567-10.22741,78.26154-81.49255,132.82575-160.116,123.42218-66.9701-8.0097-120.60627-62.26159-125.75043-128.96368-4.34241-56.30579,14.33526-105.10455,52.15784-146.76749,1.35165-1.48886,2.63739-3.0375,4.79788-5.53329-3.44385,0-5.41675-.0593-7.3852.00946a115.40083,115.40083,0,0,0-43.01379,10.0361c-38.7547,17.16769-67.33209,45.65567-88.47528,81.70615C94.67906,248.556,85.73036,307.80408,97.28235,370.01325c10.20715,54.96692,36.11823,101.92639,77.45987,139.509,60.6058,55.09515,132.205,77.41492,213.41229,66.79309,61.97669-8.10657,114.57337-35.76324,156.39411-82.058,52.2503-57.84,73.47546-126.28076,64.96453-203.793-4.89337-44.56552-20.71136-84.89908-48.22485-120.3783-21.7619-28.06244-48.355-50.00418-82.3081-61.90283A102.12878,102.12878,0,0,0,438.66855,102.082Zm-24.8183,131.91928c-.41772-4.80163-.55762-9.64651-1.297-14.39807-5.87451-37.748-24.07031-68.35217-53.95516-92.00116-6.38529-5.05285-6.74573-4.9685-13.26111.09448-25.16886,19.558-41.70639,45.00684-50.39322,75.51883-4.84213,17.00754-6.49048,34.288-1.93433,51.73764,11.8598,45.42191,65.61722,62.404,99.63208,31.221C407.78793,272.28864,413.702,254.26853,413.85025,234.00125Z"/><path d="M1132.25211,498.494c-2.59937,0-4.37964-.00012-6.16,0-22.82861.00116-45.658-.08765-68.4851.09137-3.832.03-5.86939-1.08984-7.71961-4.56873q-47.98333-90.218-96.25915-180.28021c-.73218-1.36926-1.5719-2.68115-3.09412-5.26245V431.445h37.39648v66.73907H833.49283V431.58484h37.17468V226.19H833.46378V159.22156c1.37713-.0697,2.95593-.21884,4.53467-.2193,35.82592-.00989,71.652.0531,107.47729-.08609,3.66931-.01425,5.58374,1.1355,7.30884,4.37714q48.12176,90.42458,96.47754,180.72451c.67492,1.26288,1.43933,2.478,2.78174,4.77674V226.0072h-37.272V159.36344h154.67627v66.36605h-37.196Z"/><path d="M1249.21768,431.63611h48.9043V226.36292h-36.06836V288.8125h-67.624V159.47742H1492.507V288.83435h-67.10791V226.32468c-2.00281-.14578-3.5835-.35459-5.1648-.36041-8.83312-.0326-17.67724.24151-26.49548-.12256-4.56665-.18854-5.50061,1.3999-5.48779,5.68588.14624,48.83276.09326,97.66614.0935,146.49933q.0002,23.74987,0,47.49982v6.10589h49.40589v66.44342H1249.21768Z"/><path d="M1584.17667,288.95008h-67.58008V159.46686h296.36206V288.77008h-65.47021V226.38819h-36.54566V431.52991h48.87988v66.5943h-188.4331V431.74072h48.90954V226.31037h-36.12243Z"/></svg>