<?xml version="1.0" encoding="utf-8"?>
<!-- Generator: Adobe Illustrator 23.0.2, SVG Export Plug-In . SVG Version: 6.00 Build 0)  -->
<svg version="1.1" id="Layer_1" xmlns="http://www.w3.org/2000/svg" xmlns:xlink="http://www.w3.org/1999/xlink" x="0px" y="0px"
	 viewBox="0 0 400 245" style="enable-background:new 0 0 400 245;" xml:space="preserve">
<style type="text/css">
	.st0{fill:#EC1C24;}
	.st1{fill:#231F20;}
	.st2{fill:#0076AD;}
	.st3{fill:#44B549;}
	.st4{fill:#F6AF26;}
	.st5{fill:#4AA5D2;}
	.st6{fill:#B2CD41;}
	.st7{fill:#221F1F;stroke:#221F1F;stroke-width:0.0971;stroke-miterlimit:10;}
	.st8{fill:#221F1F;}
	.st9{fill:#96B85C;}
	.st10{fill:#E4B836;}
	.st11{fill:#053E72;}
	.st12{fill:#C8102E;}
	.st13{fill:#FFFFFF;}
	.st14{fill:url(#SVGID_1_);}
	.st15{fill:url(#SVGID_2_);}
	.st16{fill:#193760;}
	.st17{fill:none;stroke:#193760;stroke-width:1.3933;stroke-miterlimit:10;}
	.st18{fill:#ED5E30;}
	.st19{fill:#0067AB;}
	.st20{fill:#0077BF;}
	.st21{fill:#0077C0;}
	.st22{fill:#003DA6;}
	.st23{fill:#005CB8;}
	.st24{fill:#FFCD00;}
	.st25{fill:#008656;}
	.st26{fill:#124191;}
	.st27{fill:#0071BB;}
</style>
<g>
	<polygon points="258.71,83.17 225.41,83.17 225.41,97.26 233.99,97.26 233.99,125.06 210.89,83.17 186.22,83.17 186.22,97.17 
		194.8,97.17 194.8,142 186.22,142 186.22,156 219.53,156 219.53,142 210.95,142 210.95,114.52 234.19,156 250.14,156 250.14,97.17 
		258.71,97.17 	"/>
	<polygon points="264.12,83.17 264.12,110.92 278.1,110.92 278.1,97.66 286.79,97.66 286.79,141.99 276.48,141.99 276.47,155.99 
		316.15,155.99 316.15,142 305.52,142 305.52,97.66 314.2,97.66 314.2,110.92 328.19,110.92 328.19,83.17 	"/>
	<polygon points="333.6,83.17 333.6,110.92 347.59,110.92 347.59,97.66 356.26,97.66 356.26,141.98 345.94,141.98 345.94,155.99 
		385.63,155.99 385.63,141.98 375,141.98 375,97.66 383.68,97.66 383.68,110.92 397.68,110.92 397.68,83.17 	"/>
	<path class="st27" d="M138.23,81.53c-12.45-21.81-31.31-27.49-44.7-27.49c-6.45,0-12.44,0.95-18.26,3.27
		c-5.82-2.32-11.82-3.27-18.26-3.27c-13.4,0-32.26,5.68-44.7,27.49c-15.63,27.38-13.64,63.75,11.24,88.19
		c12.76,12.53,30.41,21.24,51.72,21.24c21.31,0,38.96-8.71,51.72-21.24C151.88,145.28,153.86,108.91,138.23,81.53z M70.18,79.78
		c1.57-1.45,3.32-2.94,5.09-4.06l0,0l0,0l0,0l0,0c1.78,1.12,3.52,2.61,5.09,4.06c6.7,7.45,8.37,14.79,8.02,22.01
		c-0.4,8.42-7.91,12.25-13.12,12.3c-5.21-0.05-12.72-3.88-13.12-12.3C61.81,94.57,63.47,87.23,70.18,79.78z M75.27,173.7
		c-30.69,0-55.56-24.88-55.56-55.57c0-11.77,3.59-25.34,12.82-34.8c8.21-8.41,13.49-10.83,23.46-12.07l0.31-0.04
		c-12.2,12.16-11.56,31.27-11.56,31.27c0.64,7.67,3.27,13.94,8.43,19.39c5.73,6.04,13.45,9.65,22.11,9.65
		c8.67,0,16.38-3.6,22.11-9.65c5.16-5.45,7.8-11.72,8.43-19.39c0,0,0.64-19.11-11.56-31.27l0.31,0.04
		c9.97,1.25,15.25,3.66,23.46,12.07c9.23,9.46,12.81,23.03,12.81,34.8C130.83,148.82,105.96,173.7,75.27,173.7z"/>
</g>
</svg>
