<?xml version="1.0" encoding="utf-8"?>
<!-- Generator: Adobe Illustrator 23.0.2, SVG Export Plug-In . SVG Version: 6.00 Build 0)  -->
<svg version="1.1" id="Layer_1" xmlns="http://www.w3.org/2000/svg" xmlns:xlink="http://www.w3.org/1999/xlink" x="0px" y="0px"
	 viewBox="0 0 400 245" style="enable-background:new 0 0 400 245;" xml:space="preserve">
<style type="text/css">
	.st0{fill:#1E65F3;}
	.st1{fill:#121112;}
	.st2{fill:#7BB1DB;}
	.st3{fill:#958437;}
	.st4{fill:#739833;}
	.st5{fill:#C9D200;}
	.st6{fill:#F9B500;}
	.st7{fill:url(#SVGID_1_);}
	.st8{fill:url(#SVGID_2_);}
	.st9{fill:url(#SVGID_3_);}
	.st10{fill:url(#SVGID_4_);}
	.st11{fill:#808184;}
	.st12{clip-path:url(#SVGID_6_);fill-rule:evenodd;clip-rule:evenodd;}
	.st13{fill:none;}
	.st14{fill:#020202;}
	.st15{fill:#E7E015;}
	.st16{fill:#323644;}
	.st17{fill:#F26F21;}
	.st18{fill-rule:evenodd;clip-rule:evenodd;fill:#58595B;}
	.st19{fill:#58595B;}
	.st20{fill:url(#SVGID_7_);}
	.st21{fill:url(#SVGID_8_);}
	.st22{fill:url(#SVGID_9_);}
	.st23{fill:url(#SVGID_10_);}
	.st24{fill:url(#SVGID_11_);}
	.st25{fill:url(#SVGID_12_);}
	.st26{fill:url(#SVGID_13_);}
	.st27{fill:url(#SVGID_14_);}
	.st28{fill:url(#SVGID_15_);}
	.st29{fill:url(#SVGID_16_);}
	.st30{fill:url(#SVGID_17_);}
	.st31{fill:url(#SVGID_18_);}
	.st32{fill:#670000;}
	.st33{fill-rule:evenodd;clip-rule:evenodd;fill:#F8A03A;}
	.st34{fill-rule:evenodd;clip-rule:evenodd;fill:#FFFFFF;}
	.st35{fill:#919195;}
	.st36{fill:#EE3124;}
	.st37{fill:#455560;}
	.st38{fill-rule:evenodd;clip-rule:evenodd;fill:#D0D2D3;}
	.st39{fill-rule:evenodd;clip-rule:evenodd;fill:#EF3E42;}
	.st40{fill-rule:evenodd;clip-rule:evenodd;fill:#231F20;}
	.st41{fill-rule:evenodd;clip-rule:evenodd;fill:#231F20;stroke:#231F20;stroke-width:0.2642;stroke-miterlimit:10;}
	.st42{fill:#1F88A0;}
	.st43{fill:#231F20;}
	.st44{fill:#009DDC;}
	.st45{fill:#1D3586;}
	.st46{fill:#211D70;}
	.st47{fill:#72C5E7;}
	.st48{fill:#F48C45;}
	.st49{fill:#238BC2;}
	.st50{fill:#EC6025;}
	.st51{fill:#1090D3;}
	.st52{fill:#F48C46;}
	.st53{fill:#F18041;}
	.st54{fill:#6DB9E4;}
	.st55{fill:#6BB3E1;}
	.st56{fill:#76BDE6;}
	.st57{fill:#A6CEEE;}
	.st58{fill:#F49357;}
	.st59{fill:#77BBE3;}
	.st60{fill:#85C1E7;}
	.st61{fill:#F17C3E;}
	.st62{fill:#88C3EA;}
	.st63{fill:#9DC4EB;}
	.st64{fill:#F9BD95;}
	.st65{fill:#F6985C;}
	.st66{fill:#FAB182;}
	.st67{fill:#F49056;}
	.st68{fill:#6EBCE5;}
	.st69{fill:#F69E67;}
	.st70{fill:#ACD1EF;}
	.st71{fill:#F8B07F;}
	.st72{fill:#8DC7EC;}
	.st73{fill:#F9C29D;}
	.st74{fill:#B7DBF3;}
	.st75{fill:#F3955D;}
	.st76{fill:#FFFFFF;}
	.st77{fill:#B7274C;}
	.st78{fill:#00ABE8;}
	.st79{fill:#008CCC;}
	.st80{fill:#007BB6;}
	.st81{fill:#68CEF2;}
	.st82{fill:#595959;}
	.st83{fill:#8EC341;}
</style>
<g>
	<polygon class="st2" points="239.55,51 231.51,51 201.87,98.53 172.23,51 164.17,51 164.17,194 172.23,194 201.87,146.47 
		231.51,194 239.63,194 239.54,193.89 	"/>
	<polygon class="st3" points="164.17,51 120.21,51 164.11,122.5 120.21,194 164.17,194 	"/>
	<polygon class="st4" points="283.53,51 239.55,51 239.54,193.89 239.63,194 283.52,194 239.63,122.5 	"/>
	<path class="st5" d="M346.19,51l-62.66,0l-43.9,71.5l43.9,71.5h0.02l-0.02-31.59h74.17c31.14,0,40.46-24.44,40.46-45.73v-16.8
		C398.16,71.89,388.04,51,346.19,51z M357.16,108.7c0,8.48-3.97,18.23-14.28,18.23h-59.3V86.47h55.53
		c13.29,0,18.05,5.52,18.05,15.18V108.7z"/>
	<polygon class="st6" points="164.11,122.5 120.21,51 120.19,51 120.19,137.41 45.8,51 1.84,51 1.84,194 45.84,194 45.83,107.59 
		120.21,194 	"/>
</g>
</svg>
