<?xml version="1.0" encoding="UTF-8"?>
<svg width="357px" height="357px" viewBox="0 0 357 357" version="1.1" xmlns="http://www.w3.org/2000/svg" xmlns:xlink="http://www.w3.org/1999/xlink">
    <!-- Generator: Sketch 43.2 (39069) - http://www.bohemiancoding.com/sketch -->
    <title>objectbox-logo-square-grey</title>
    <desc>Created with Sketch.</desc>
    <defs></defs>
    <g id="Page-1" stroke="none" stroke-width="1" fill="none" fill-rule="evenodd">
        <g id="objectbox-logo-square-grey" fill="#393939">
            <g id="Page-1" transform="translate(43.000000, 43.000000)">
                <g id="Group-4">
                    <path d="M194.204128,0 L141.144266,6.47684495 L141.144266,215.15318 L245.625772,173.486733 L271,33.9833095 L190.70135,49.3716594 L194.204128,0 Z M187.094156,100.223592 L227.432207,89.639638 L220.664017,141.27196 L183.290454,153.84 L187.094156,100.223592 Z M25.3755253,173.483487 L129.862868,215.15318 L129.862868,58.8551472 L0,33.9813618 L25.3755253,173.483487 Z M50.3385775,141.270013 L43.5690901,89.6383396 L83.9110324,100.222943 L87.7147346,153.838702 L50.3385775,141.270013 Z" id="Fill-1"></path>
                    <g id="Group" transform="translate(42.000000, 248.000000)">
                        <path d="M15.2910856,11.3502899 C15.2910856,8.77091696 14.8029791,6.79470163 13.8256717,5.41880296 C12.8494587,4.04508964 11.4643744,3.35714031 9.67107541,3.35714031 C7.92002066,3.35714031 6.55135248,4.04203015 5.5637576,5.41159129 C4.57660048,6.78137097 4.07207783,8.71824993 4.05084629,11.2224467 L4.05084629,12.5653465 C4.05084629,15.1230845 4.5498969,17.1001739 5.54821699,18.4966149 C6.54609932,19.8921818 7.93096475,20.5904023 9.70303216,20.5904023 C11.4963311,20.5904023 12.8759434,19.9085719 13.8423067,18.5442556 C14.8082323,17.1797208 15.2910856,15.1871153 15.2910856,12.5653465 L15.2910856,11.3502899 Z M19.3421508,12.5653465 C19.3421508,14.8455446 18.9468502,16.8475471 18.1571245,18.5678575 C17.3669611,20.2892605 16.2384063,21.6113995 14.7710224,22.5325261 C13.3029819,23.4545268 11.6136518,23.9156364 9.70303216,23.9156364 C7.81364408,23.9156364 6.12978605,23.4545268 4.65145807,22.5325261 C3.17269233,21.6113995 2.03078575,20.2975649 1.22508168,18.5916778 C0.418720968,16.8866649 0.0102874467,14.9209393 0,12.6931897 L0,11.3821961 C0,9.1122692 0.402742594,7.10829988 1.20844666,5.37138079 C2.01480738,3.63446169 3.15167968,2.30511105 4.61950133,1.38311034 C6.08688521,0.461109624 7.77074324,0 9.67107541,0 C11.5707509,0 13.2550467,0.455864776 14.7224306,1.36650165 C16.1902523,2.2782312 17.324498,3.58922487 18.1251678,5.29926412 C18.9258376,7.0101775 19.3312067,8.99972349 19.3421508,11.2709616 L19.3421508,12.5653465 Z" id="Fill-2"></path>
                        <path d="M27.3630652,12.7725181 L27.3630652,20.0147801 L31.8624004,20.0147801 C33.1323528,20.0147801 34.1252009,19.7022746 34.8405067,19.0763893 C35.5553748,18.4502854 35.9132467,17.5798591 35.9132467,16.4659843 C35.9132467,14.057506 34.6748132,12.8260592 32.1986029,12.7725181 L27.3630652,12.7725181 Z M27.3630652,9.8 L31.3340196,9.8 C32.5932468,9.8 33.5782151,9.51437428 34.2878301,8.94399697 C34.9981017,8.37471234 35.3529091,7.56722415 35.3529091,6.52240656 C35.3529091,5.37138079 35.0243675,4.54007225 34.3683786,4.02848096 C33.7115142,3.51688966 32.689336,3.26120328 31.301844,3.26120328 L27.3630652,3.26120328 L27.3630652,9.8 Z M23.312,23.2759834 L23.312,0 L31.301844,0 C33.9382758,0 35.9454223,0.527981447 37.322408,1.58197752 C38.6993937,2.63815895 39.3877771,4.21008385 39.3877771,6.29862635 C39.3877771,7.36398626 39.0997286,8.32313799 38.5231938,9.17608153 C37.9468779,10.0290251 37.1033073,10.6892204 35.9933574,11.1584158 C37.2525847,11.4997681 38.2268278,12.1413879 38.9158678,13.0850236 C39.6038134,14.0277852 39.9483335,15.1602355 39.9483335,16.4812818 C39.9483335,18.666854 39.2463794,20.3449871 37.8424712,21.5176478 C36.4392197,22.6903086 34.4294466,23.2759834 31.8142464,23.2759834 L23.312,23.2759834 Z" id="Fill-4"></path>
                        <path d="M54.0560853,0 L58.0909533,0 L58.0909533,16.3226251 C58.0909533,18.549282 57.3946901,20.3181072 56.0012883,21.629975 C54.608762,22.939876 52.7694979,23.5959192 50.4854658,23.5959192 C48.0517186,23.5959192 46.172618,22.9781197 44.8492583,21.7414281 C43.5254609,20.5047364 42.864,18.7946972 42.864,16.6093435 L46.8988679,16.6093435 C46.8988679,17.8458166 47.2057403,18.7761217 47.8197038,19.399166 C48.4334485,20.0230845 49.3218899,20.3347159 50.4854658,20.3347159 C51.5741841,20.3347159 52.441394,19.9756623 53.0870954,19.2568995 C53.7332346,18.5390108 54.0560853,17.5468602 54.0560853,16.2802292 L54.0560853,0 Z" id="Fill-6"></path>
                        <polygon id="Fill-8" points="76.0420515 12.8850638 66.4670652 12.8850638 66.4670652 20.0149987 77.6591505 20.0149987 77.6591505 23.2762019 62.416 23.2762019 62.416 0 77.547083 0 77.547083 3.26120328 66.4670652 3.26120328 66.4670652 9.68789136 76.0420515 9.68789136"></polygon>
                        <path d="M99.7410649,16.0184239 C99.5066424,18.5020783 98.5882142,20.4389573 96.9870935,21.8292793 C95.3864106,23.2204754 93.2569091,23.9156364 90.598808,23.9156364 C88.7415956,23.9156364 87.1056727,23.4763803 85.6910393,22.596557 C84.2768437,21.7178262 83.1854988,20.4678039 82.4170047,18.8475827 C81.6482916,17.2282357 81.2481756,15.3470832 81.216,13.204781 L81.216,11.0307912 C81.216,8.83494782 81.6053908,6.90112836 82.384829,5.22714744 C83.1638295,3.55425921 84.2820969,2.26490054 85.7396311,1.35950852 C87.1960709,0.452805281 88.8799289,0 90.7909863,0 C93.3632857,0 95.4343457,0.695161003 97.0035097,2.08657568 C98.5726736,3.47689769 99.4849731,5.44568281 99.7410649,7.99336812 L95.7066347,7.99336812 C95.5144565,6.32047989 95.02635,5.11372759 94.2412208,4.37201855 C93.457186,3.63162073 92.3065242,3.26142182 90.7909863,3.26142182 C89.029863,3.26142182 87.6765165,3.9039158 86.7322602,5.18890376 C85.7871284,6.47498439 85.3042751,8.36050754 85.2830436,10.8461288 L85.2830436,12.9097583 C85.2830436,15.4275042 85.7339401,17.3477745 86.6361711,18.670132 C87.5381832,19.9933637 88.8586974,20.6544331 90.598808,20.6544331 C92.1892035,20.6544331 93.384955,20.2975649 94.1856248,19.5838284 C94.9860757,18.8692177 95.4927872,17.6810409 95.7066347,16.0184239 L99.7410649,16.0184239 Z" id="Fill-10"></path>
                        <polygon id="Fill-12" points="121.517108 3.26120328 114.247823 3.26120328 114.247823 23.2762019 110.228277 23.2762019 110.228277 3.26120328 103.024 3.26120328 103.024 0 121.517108 0"></polygon>
                        <path d="M130.452667,13.3811391 L130.452667,18.9599099 L134.13426,18.9599099 C135.148777,18.9599099 135.927558,18.7278254 136.473012,18.2647489 C137.016496,17.8005798 137.289222,17.1478146 137.289222,16.3060164 C137.289222,14.366078 136.323297,13.3914102 134.39057,13.3811391 L130.452667,13.3811391 Z M130.452667,9.70318883 L133.3824,9.70318883 C134.609452,9.69291767 135.485417,9.46913745 136.008107,9.03075551 C136.531016,8.59237356 136.793236,7.94572741 136.793236,7.08972438 C136.793236,6.1067523 136.510222,5.39826064 135.944193,4.96621622 C135.378165,4.53286058 134.465865,4.31629203 133.206638,4.31629203 L130.452667,4.31629203 L130.452667,9.70318883 Z M124.832,23.2762019 L124.832,0 L133.206638,0 C136.205538,0 138.487382,0.548742307 140.051511,1.64622692 C141.614328,2.74458567 142.396392,4.33792704 142.396392,6.42646954 C142.396392,7.63125502 142.119507,8.65946392 141.563766,9.51131478 C141.009119,10.3642583 140.192909,10.9934216 139.114478,11.3988047 C140.331461,11.718522 141.265211,12.3146865 141.917041,13.189265 C142.567777,14.0629694 142.893254,15.1283293 142.893254,16.386656 C142.893254,18.666854 142.170069,20.3801713 140.723916,21.5259522 C139.27667,22.6717331 137.134254,23.2545669 134.295575,23.2762019 L124.832,23.2762019 Z" id="Fill-14"></path>
                        <path d="M160.570156,11.4628356 C160.570156,9.14942021 160.182735,7.39414414 159.408988,6.19460351 C158.635241,4.99615556 157.527918,4.39583891 156.0868,4.39583891 C153.268915,4.39583891 151.780299,6.50601641 151.618983,10.7263714 L151.603662,12.4375033 C151.603662,14.7179199 151.982765,16.4712291 152.740972,17.696557 C153.498084,18.9227589 154.624012,19.5355321 156.118975,19.5355321 C157.538205,19.5355321 158.633271,18.9330301 159.401765,17.7295558 C160.170259,16.5247703 160.559869,14.7930961 160.570156,12.5334404 L160.570156,11.4628356 Z M166.285818,12.4375033 C166.285818,14.7076487 165.864252,16.7166444 165.021338,18.4638346 C164.178424,20.2121176 162.980264,21.5578584 161.426422,22.5006199 C159.873893,23.4442556 158.104233,23.9156364 156.118975,23.9156364 C154.133498,23.9156364 152.372156,23.4597717 150.834949,22.5491348 C149.29796,21.6374052 148.099582,20.3347159 147.240252,18.6401927 C146.380703,16.9456694 145.930244,15.0004861 145.888,12.8057354 L145.888,11.4938676 C145.888,9.21345107 146.306283,7.20227009 147.144163,5.459232 C147.981824,3.71728659 149.183266,2.37132727 150.747177,1.42332085 C152.310212,0.474440282 154.091035,0 156.0868,0 C158.061989,0 159.823332,0.469413968 161.370826,1.40693069 C162.918102,2.34444742 164.121733,3.68013558 164.981063,5.41180983 C165.840612,7.14348408 166.275531,9.12778521 166.285818,11.3658059 L166.285818,12.4375033 Z" id="Fill-16"></path>
                        <polygon id="Fill-18" points="177.336072 7.73746321 181.14593 0 187.567047 0 181.050716 11.5421639 187.742591 23.2762019 181.258435 23.2762019 177.336072 15.3945054 173.412615 23.2762019 166.944 23.2762019 173.621428 11.5421639 167.119543 0 173.524245 0"></polygon>
                    </g>
                </g>
            </g>
        </g>
    </g>
</svg>