<svg id="Layer_1" data-name="Layer 1" xmlns="http://www.w3.org/2000/svg" viewBox="0 0 1234.92 175.7"><defs><style>.cls-1{fill:#336868;}.cls-2{fill:#f16824;}</style></defs><title>openEdgeComputingInitative</title><path class="cls-1" d="M182.49,335.11c2.56,1,5.3.84,7.94,1.25a87.74,87.74,0,0,1,.77,173.18c-47.7,8.2-93.52-24.05-101.53-71.46a87.85,87.85,0,0,1,68.66-101c3.42-.72,6.93-1,10.39-1.53.5-.07,1.1.17,1.41-.46Zm-8,18.46c-38,1-69.33,32.75-67.67,72A69.52,69.52,0,0,0,180,492.49c38.24-1.81,67.7-34.53,66-73.27C244.38,382.18,211.36,351.87,174.49,353.57Z" transform="translate(-88.41 -335.11)"/><path class="cls-1" d="M1323.32,404c-1,1.58-.48,3.35-.49,5-.07,12.4,0,24.79-.06,37.19a60.8,60.8,0,0,1-1.27,12.89c-2,9.26-7.55,15.27-16.77,17.63a39.87,39.87,0,0,1-26.57-2.1c-1.63-.71-2.21-1.51-1.42-3.25s.8-4.29,2.06-5.14,3.14,1.23,4.85,1.81a32.85,32.85,0,0,0,14.14,1.8c8-.88,13-5.43,14.46-13.22a55.54,55.54,0,0,0,.5-11.63c-1.25,1.37-2.2,2.61-3.33,3.65-8.91,8.17-23.69,6.82-31.81-2.87-9.93-11.87-7.86-33.49,4.23-43.09,6.27-5,13.39-6.28,21.11-4.19,4.54,1.24,8,4,10.76,8.58.18-2.45.47-4.34.41-6.22-.06-1.68.59-2.06,2.11-2,2.36.13,4.73.08,7.09.11Zm-10.6,22c0-2,0-3.65,0-5.32-.17-7.18-4.42-12.91-10.82-14.64a14.71,14.71,0,0,0-16.84,7,25.69,25.69,0,0,0-.62,25.08c3.08,6.17,9.54,9,16.29,7.78,6.16-1.15,10.91-6.49,11.78-13.17A63.19,63.19,0,0,0,1312.72,426Z" transform="translate(-88.41 -335.11)"/><path class="cls-2" d="M597,415.89c0-11.63,0-23.26,0-34.89,0-2.07.31-3,2.68-3.25,11.47-1.16,22.93-2.2,34.29.59,15.68,3.85,25.17,15.22,26.22,31.28.53,8.28-.31,16.38-3.85,24-5.15,11.1-14.2,17.06-25.85,19.66-9.48,2.12-19.06,1.76-28.64,1.08-4.82-.34-4.81-.51-4.81-5.44Zm20.85-31.22a71.58,71.58,0,0,0-8.89.57c-1.41.19-1.92.63-1.91,2.11q.06,28.53,0,57c0,1.41.34,2,1.87,2.1a97.73,97.73,0,0,0,13.69,0c12.73-1.14,22.11-8.42,25.53-20.12a42.43,42.43,0,0,0,1-19.65c-2-10.93-8.48-17.91-19.27-20.79A41.51,41.51,0,0,0,617.86,384.67Z" transform="translate(-88.41 -335.11)"/><path class="cls-1" d="M932.65,407.68c8-13.55,27.76-13.6,33.51.79a28.11,28.11,0,0,1,4.23-5.39c5.62-5.19,12.21-6.76,19.47-4.62s10.55,7.81,12.16,14.7a36,36,0,0,1,.88,8.15c0,10.26,0,20.53.06,30.8,0,1.67-.35,2.31-2.12,2.16a36.94,36.94,0,0,0-6,0c-1.62.12-2-.41-2-2,.08-9.73,0-19.47,0-29.2a28.88,28.88,0,0,0-1.19-8.77c-1.36-4.29-3.91-7.35-8.59-8.16s-8.52.92-11.53,4.5a14.55,14.55,0,0,0-3.32,9.71c0,10.57,0,21.14,0,31.71,0,1.84-.51,2.36-2.28,2.22a37.53,37.53,0,0,0-5.71,0c-1.62.12-2-.43-2-2,.07-10.11.05-20.23,0-30.35a24.81,24.81,0,0,0-1-7.65c-2.86-8.95-13-11.23-19.34-4.31a15.51,15.51,0,0,0-4.35,10.94c0,10.42,0,20.84.05,31.26,0,1.71-.42,2.29-2.16,2.14a34,34,0,0,0-5.71,0c-1.7.13-2.17-.37-2.16-2.11q.13-18.36,0-36.74c0-4.93-.2-9.87-.4-14.81-.06-1.27.21-1.78,1.57-1.7a54.38,54.38,0,0,0,5.71,0c1.22-.06,1.57.42,1.61,1.55C932.29,402.71,932.48,405,932.65,407.68Z" transform="translate(-88.41 -335.11)"/><path class="cls-2" d="M732,432.27q0,8.34,0,16.66c0,1,0,1.85-1.28,2.27-11.66,3.75-23.49,5.3-35.53,2.28-14.9-3.75-24.6-15.29-26.28-30.66-.9-8.16-.37-16.12,3-23.67,6.25-14,17.7-20.77,32.5-22.46A54.76,54.76,0,0,1,727,378.82c2.14.66,2.84,1.54,1.91,3.7-.72,1.66-.6,4.12-1.77,5s-3.25-.82-5-1.24c-7.46-1.82-14.92-2.19-22.36-.11a27.26,27.26,0,0,0-20.35,24.52A42.72,42.72,0,0,0,680.74,427a26.66,26.66,0,0,0,24.17,19.47,48,48,0,0,0,14.54-.88c1.9-.43,2.76-1.16,2.7-3.33q-.27-9,0-18c.06-2.13-.66-2.5-2.57-2.42-3.73.14-7.47,0-11.2.07-1.41,0-2.12-.24-2-1.84.22-2-.83-4.66.41-5.93s3.9-.37,5.94-.39c5.64-.06,11.28.07,16.92-.07,2-.05,2.4.61,2.36,2.44C731.94,421.47,732,426.87,732,432.27Z" transform="translate(-88.41 -335.11)"/><path class="cls-1" d="M357.83,447v16.78c0,3.73-.06,7.46,0,11.18,0,1.45-.32,2.06-1.88,2a37.66,37.66,0,0,0-5.72,0c-2,.18-2.57-.4-2.55-2.47.09-16.28.07-32.55,0-48.82,0-8.21.15-16.42-.46-24.62-.12-1.56.3-2.24,2-2.07a36,36,0,0,0,3.89,0c3.29,0,3.29,0,3.48,3.37.1,1.82.18,3.63.26,5.47.75.1.84-.59,1.08-.95,8.33-12.49,30.87-13.52,38.86,3.66,5.44,11.71,5.06,23.57-2,34.59-6.4,10-19.93,13.28-30.31,7.88A22.13,22.13,0,0,1,357.83,447Zm0-19.85c0,1.52,0,3,0,4.56a15.52,15.52,0,0,0,12.74,15.56,15.32,15.32,0,0,0,17.22-9.34,28.51,28.51,0,0,0,.65-21.1c-2.63-7.47-8.24-11.28-15.74-11-6.42.24-12.12,5.26-14.18,12.29C357.65,421.07,357.91,424.09,357.83,427.11Z" transform="translate(-88.41 -335.11)"/><path class="cls-1" d="M1028.3,408.28c2.62-3.86,5.49-6.71,9.31-8.49a22.74,22.74,0,0,1,30,9.48c6.15,10.71,5.18,27.36-2.15,37-6.83,9-19.77,11.88-29.58,6.71a21.48,21.48,0,0,1-6.73-6.07v13.35c0,4.94-.05,9.89,0,14.83,0,1.39-.36,1.89-1.79,1.82-2.21-.11-4.42-.08-6.63,0-1.27,0-1.76-.37-1.71-1.69.09-2.51,0-5,0-7.53q-.08-31-.16-62c0-1.67-.13-3.34-.3-5-.13-1.3.32-1.76,1.64-1.7,2,.09,4,.07,5.94,0,1.13,0,1.62.26,1.65,1.48C1027.9,402.82,1028.12,405.24,1028.3,408.28Zm18.92-2.49c-9-.06-15.13,4.68-17.22,11.75-1.47,5-1,10.12-.76,15.16a15.52,15.52,0,0,0,29.74,5.47,27.53,27.53,0,0,0,.32-22.55C1056.74,409.51,1052.14,406,1047.22,405.79Z" transform="translate(-88.41 -335.11)"/><path class="cls-2" d="M540.73,415.59c0-12.09,0-24.18,0-36.27,0-1.66.35-2.21,2.12-2.2q18.77.12,37.52,0c1.7,0,2.31.4,2.15,2.14-.19,2,.65,4.74-.39,6-1.2,1.42-4,.44-6.1.46-7.7.06-15.4.08-23.1,0-1.76,0-2.15.5-2.13,2.17q.13,10,0,20.08c0,1.62.5,2,2.07,2,8.61-.07,17.23,0,25.85-.07,1.58,0,2.2.39,2,2-.22,2,.83,4.67-.42,5.92s-3.9.36-5.94.37c-7,0-14,.08-21,0-1.89,0-2.62.27-2.57,2.42.16,7.6.12,15.21,0,22.82,0,1.85.42,2.44,2.37,2.42,9.6-.1,19.21,0,28.82-.08,1.78,0,2.16.21,2.28,2.28s.65,4.36-.47,5.88a20.1,20.1,0,0,1-5.74.35c-11.67,0-23.33,0-35,.06-2,0-2.34-.58-2.33-2.41C540.77,439.77,540.73,427.68,540.73,415.59Z" transform="translate(-88.41 -335.11)"/><path class="cls-1" d="M281,424.38c.19-7.32,2.94-16.07,11.4-21.88,8.7-6,18.27-6.62,27.82-2.41,9.29,4.09,13.59,12,14.73,21.75a33.44,33.44,0,0,1-3,19.29,26.75,26.75,0,0,1-25.58,14.33C290.58,454.23,281,443.37,281,424.38Zm10.37,2.38a23.64,23.64,0,0,0,2.91,12.32c2.93,5.3,7.32,8.6,13.52,8.7,6,.1,10.59-2.83,13.46-8,5.06-9.09,5-18.43-.3-27.33-5.78-9.73-19.57-9.71-25.76-.21A24.77,24.77,0,0,0,291.32,426.76Z" transform="translate(-88.41 -335.11)"/><path class="cls-1" d="M856.91,426.74c.16-10.46,3.43-19.46,12.78-25.18,14.47-8.85,39.4-3.94,41.3,21.74a34,34,0,0,1-2.62,16.7c-4.93,11-16.27,16.85-29.42,15.13-10.79-1.42-19.52-10.11-21.47-21.34A36.14,36.14,0,0,1,856.91,426.74Zm43.78,0a25.88,25.88,0,0,0-4.62-15.45,15.23,15.23,0,0,0-24.11-.19c-6.42,8.24-6.42,22.5,0,30.75a14.7,14.7,0,0,0,22.59,1.35C899.06,438.6,900.47,432.86,900.69,426.7Z" transform="translate(-88.41 -335.11)"/><path class="cls-1" d="M438.07,428.47c-5.87,0-11.74,0-17.61,0-1.54,0-1.93.45-1.84,1.93.58,9.73,7.44,16.54,17.2,17a35.75,35.75,0,0,0,15.47-2.25c1.49-.61,1.84,0,2,1.2.05.3.09.6.16.9,1.19,5,1.22,5.13-3.77,6.43A45.76,45.76,0,0,1,430,454.79c-12-2.15-20-10.89-21-23.11-.7-8.44.42-16.52,5.4-23.72,6.46-9.33,19.46-13.15,29.88-8.56,8.52,3.75,11.85,11.1,13.16,19.7a32.65,32.65,0,0,1,.16,7.72c-.13,1.46-.69,1.69-2,1.67C449.81,428.44,443.94,428.47,438.07,428.47Zm-4.72-7.36h13c.71,0,1.42.21,1.57-1,1.06-9.14-7.68-17-16.77-14.87-7.36,1.7-10.48,7.17-12.16,13.9-.43,1.71.17,2.07,1.76,2C425,421.06,429.16,421.12,433.35,421.11Z" transform="translate(-88.41 -335.11)"/><path class="cls-1" d="M1220.82,407.29c.92.09,1-.5,1.21-.83a21.24,21.24,0,0,1,22.59-8.25c7.87,2,13.28,8.82,14.17,17.94.83,8.42.23,16.87.38,25.3.07,3.57-.1,7.15.06,10.72.08,1.79-.53,2.22-2.19,2.09a33.55,33.55,0,0,0-5.49,0c-2,.17-2.71-.35-2.68-2.55.14-9.5.08-19,.05-28.51a30.09,30.09,0,0,0-.63-7c-1.13-4.76-3.52-8.53-8.56-9.7a13.43,13.43,0,0,0-13.72,4.14,14.47,14.47,0,0,0-3.91,10.17c.05,10.34,0,20.69.07,31,0,2.1-.59,2.63-2.54,2.44a24.16,24.16,0,0,0-5,0c-2.13.23-2.83-.36-2.8-2.66.15-9.5.06-19,.07-28.52,0-7.6.05-15.2-.39-22.79,0-1,.15-1.44,1.18-1.38.76.05,1.53,0,2.29,0,5.65,0,5.66,0,5.86,5.76C1220.84,405.57,1220.82,406.45,1220.82,407.29Z" transform="translate(-88.41 -335.11)"/><path class="cls-1" d="M479.5,407.58A21.21,21.21,0,0,1,489.75,399c13-4.93,25.36,2.47,27.26,16.3.68,5,.41,10,.44,15,0,7.38,0,14.76,0,22.13,0,1.41-.35,1.86-1.78,1.77a52.56,52.56,0,0,0-6.4,0c-1.58.1-2.06-.36-2-2,.08-9.28.05-18.55,0-27.83a37.62,37.62,0,0,0-.62-7.71c-1.3-6.09-4.55-9.64-9.43-10.43a13.86,13.86,0,0,0-14.65,6.59,14.55,14.55,0,0,0-2.23,7.77c0,10.49,0,21,.06,31.48,0,1.7-.39,2.26-2.13,2.12a38,38,0,0,0-5.94,0c-1.68.12-2.18-.35-2.16-2.1q.12-16.77,0-33.53c0-5.78-.1-11.56-.43-17.32-.13-2.18.59-2.61,2.49-2.42a16.15,16.15,0,0,0,4.11,0c2.16-.33,2.56.72,2.58,2.54A22.79,22.79,0,0,0,479.5,407.58Z" transform="translate(-88.41 -335.11)"/><path class="cls-1" d="M1121.43,445.29a32.66,32.66,0,0,1-4.07,4.78c-8,7.32-21.17,7.27-27.91-.19-3.81-4.21-5.3-9.43-5.4-14.9-.23-11.48-.09-23-.17-34.46,0-1.36.49-1.66,1.73-1.61,2.2.08,4.43.13,6.63,0,1.58-.11,1.85.53,1.85,1.94-.06,9.89,0,19.77,0,29.66a28.18,28.18,0,0,0,.74,6.55c2.42,10.23,13.29,13.41,21,6.18a14.84,14.84,0,0,0,4.73-11.43c0-10.19,0-20.38-.06-30.58,0-2,.55-2.49,2.42-2.33a32,32,0,0,0,5.71,0c1.79-.16,2.11.51,2.1,2.16-.07,12.17,0,24.34,0,36.51a137.27,137.27,0,0,0,.39,15c.14,1.27-.23,1.73-1.57,1.66-2-.11-4-.08-6,0-1.16,0-1.58-.31-1.61-1.53C1121.89,450.4,1121.64,448.09,1121.43,445.29Z" transform="translate(-88.41 -335.11)"/><path class="cls-1" d="M1159.5,383c0,4.82,0,9.45,0,14.08,0,1.46.34,2,1.88,1.93,3.51-.12,7,0,10.52-.07,1.5,0,2.12.26,2.12,2,0,5.83.07,5.83-5.77,5.83-2.44,0-4.88.05-7.31,0-1.1,0-1.43.35-1.42,1.43,0,10.11,0,20.21.08,30.32,0,2.74.62,5.5,3,7.31s5.13,1.53,7.7,1c2.25-.46,2.65.17,2.76,2.22.33,5.76.31,5.86-5.48,6.23a25.25,25.25,0,0,1-7.71-.35c-5.19-1.27-8.27-4.6-9.52-9.68a31,31,0,0,1-.86-7.44c0-9.58-.06-19.15,0-28.73,0-2-.56-2.61-2.41-2.29a3.53,3.53,0,0,1-.46,0c-6.42,0-6.4,0-5.77-6.5.1-1,.46-1.3,1.4-1.27,1.6.05,3.21-.11,4.79,0,1.86.19,2.55-.36,2.44-2.32-.16-3.11,0-6.23-.07-9.34,0-1.32.4-1.85,1.7-2.14C1153.9,384.55,1156.59,383.74,1159.5,383Z" transform="translate(-88.41 -335.11)"/><path class="cls-1" d="M816.67,427.26c0,9.89,5.5,17.46,14.59,19.47A24.1,24.1,0,0,0,846,445.26c2-.81,2.54-.28,2.71,1.53a4,4,0,0,0,.11.68c1.15,5.06,1.16,5.11-3.84,6.44a37.58,37.58,0,0,1-18.75.54c-11.39-2.76-18.12-10.88-19.77-23.65-1.62-12.52,4.16-24.43,14.72-29.7,8.92-4.45,18.17-4.38,27.51-1.19,1.21.42,1.43,1,1,2.18-.66,1.85-.62,4.35-1.87,5.5-1.41,1.29-3.41-.77-5.24-1.11-8.44-1.53-16.19-.77-21.86,6.58C817.67,417.06,816.57,421.77,816.67,427.26Z" transform="translate(-88.41 -335.11)"/><path class="cls-1" d="M1195.26,426.7c0,8.51,0,17,0,25.52,0,1.53-.3,2.16-2,2-2.2-.15-4.42-.08-6.63,0-1.09,0-1.61-.16-1.61-1.45q.06-26.21,0-52.41c0-1.27.49-1.51,1.61-1.48,2.28.07,4.57.11,6.85,0,1.48-.09,1.75.49,1.74,1.82C1195.24,409.38,1195.26,418,1195.26,426.7Z" transform="translate(-88.41 -335.11)"/><path class="cls-1" d="M1190.31,377.1a6,6,0,0,1,6.17,6.42,6.16,6.16,0,0,1-6.5,6.14,6.28,6.28,0,1,1,.33-12.56Z" transform="translate(-88.41 -335.11)"/><path class="cls-1" d="M111.48,423.38c0-32.78,23.68-60.38,55.71-64.52,27.53-3.56,49.08,6.86,64.65,29.72.95,1.39.9,2-.68,2.87-4.14,2.24-8.2,4.66-12.23,7.1-1.32.8-2,.94-3-.59-9.23-14-22.36-21.24-39-21.65-22.9-.56-43.57,17.24-46.64,39.8-3.52,25.74,13.3,49,38.91,53,18.61,2.85,33.8-3.8,45.26-18.71,1.07-1.39,1.67-1.59,3.12-.58q5.8,4.05,11.82,7.79c1.32.82,1.59,1.39.62,2.73C219.49,474.76,205.54,484,187.91,487c-33.7,5.78-65.08-14.22-74.25-47a68.06,68.06,0,0,1-1.55-7.35A45.62,45.62,0,0,1,111.48,423.38Z" transform="translate(-88.41 -335.11)"/><path class="cls-2" d="M176.54,453.71c-10.52,0-21,0-31.56,0-1.75,0-2.23-.5-2.15-2.18a83.57,83.57,0,0,0,0-8.67c-.12-2,.45-2.7,2.62-2.68,14.94.1,29.89,0,44.83,0,5.87,0,11.74.05,17.61,0,1.52,0,2.18.26,2.11,2-.14,3.19-.14,6.39,0,9.58.07,1.71-.6,2-2.11,2C197.44,453.68,187,453.71,176.54,453.71Z" transform="translate(-88.41 -335.11)"/><path class="cls-2" d="M176.32,405.78c-10.14,0-20.28,0-30.42.05-1.75,0-2.23-.49-2.16-2.18a86.46,86.46,0,0,0,0-8.67c-.12-2,.43-2.7,2.61-2.69,15.09.11,30.19.06,45.29.06,5.11,0,10.22,0,15.32,0,1.51,0,2.19.25,2.11,2-.14,3.18-.14,6.39,0,9.57.08,1.71-.59,2-2.1,2C196.75,405.75,186.54,405.78,176.32,405.78Z" transform="translate(-88.41 -335.11)"/><path class="cls-2" d="M171.51,428.67c-8.85,0-17.69-.05-26.53.05-1.74,0-2.23-.45-2.15-2.16.13-3.11.08-6.23,0-9.35,0-1.29.24-1.88,1.74-1.88q26.86.07,53.74,0c1.34,0,1.68.44,1.66,1.7-.08,3.27-.11,6.54,0,9.81.06,1.56-.52,1.86-2,1.85C189.2,428.65,180.35,428.67,171.51,428.67Z" transform="translate(-88.41 -335.11)"/><path class="cls-2" d="M748.88,414.8c0-12.09,0-24.18,0-36.28,0-1.65.35-2.2,2.13-2.19q18.75.12,37.51,0c1.7,0,2.31.4,2.15,2.14-.19,2,.65,4.74-.38,6-1.21,1.42-4,.44-6.11.45-7.7.07-15.4.09-23.1,0-1.76,0-2.15.51-2.13,2.18.1,6.69.09,13.38,0,20.07,0,1.63.49,2,2.06,2,8.62-.08,17.23,0,25.85-.07,1.59,0,2.2.38,2,2-.21,2,.84,4.68-.41,5.92s-3.91.36-6,.38c-7,0-14,.08-21,0-1.89,0-2.62.27-2.57,2.42.16,7.6.12,15.21,0,22.81,0,1.86.42,2.45,2.36,2.43,9.61-.1,19.22,0,28.82-.08,1.78,0,2.17.2,2.29,2.28s.64,4.36-.48,5.87a20.09,20.09,0,0,1-5.74.36c-11.66,0-23.33,0-35,.06-2,0-2.35-.58-2.33-2.42C748.92,439,748.88,426.89,748.88,414.8Z" transform="translate(-88.41 -335.11)"/></svg>