<?xml version="1.0" encoding="UTF-8"?>
<svg xmlns="http://www.w3.org/2000/svg" xmlns:xlink="http://www.w3.org/1999/xlink" version="1.1" id="Capa_1" x="0px" y="0px" viewBox="0 0 890 380" style="enable-background:new 0 0 890 380;" xml:space="preserve">
<style type="text/css">
	.st0{fill:#007099;}
</style>
<title>AAFF_01</title>
<path class="st0" d="M370.3,58c31.8-0.1,57.6,25.6,57.7,57.4c0,0.1,0,0.2,0,0.3c0,31.6-25.9,57.1-57.7,57.1s-57.7-25.5-57.7-57.1  C312.5,84,338.2,58.2,370,58.1C370.1,58,370.2,58,370.3,58z M370.3,153.8c21,0,37.3-17.7,37.3-38.2c0-21.2-16.6-38.5-37.3-38.5  c-20.7,0-37.3,17.3-37.3,38.5C333,136.1,349.3,153.8,370.3,153.8L370.3,153.8z"></path>
<path class="st0" d="M436,87.8h18.2v9.7h0.3c6.4-8.2,16.4-12.9,26.8-12.5c27.1,0,41.4,23.4,41.4,43.9c0,24.4-18,44.4-41.4,44.4  c-14,0-20.2-5.6-25.5-10.6v35.5H436V87.8z M478.8,155.1c10.6,0,24.2-8.9,24.2-25.9c0-15.2-11.6-25.9-23.8-25.9s-24.4,10-24.4,25.9  C454.6,147.6,469.4,155.1,478.8,155.1z"></path>
<path class="st0" d="M551.1,138.1c0.9,5.4,8.6,17,22.8,17c8.8,0,15.4-3.7,19.1-10.6h20.9c-4.8,14.9-20.6,28.8-39.9,28.8  c-24,0.1-43.6-19.3-43.7-43.3c0-0.2,0-0.4,0-0.6c0-23.4,18-44.9,43.5-44.9c26.2,0,42.7,22.7,42.7,43.5c0,3.4-0.4,6.7-1.2,10  L551.1,138.1z M596.3,122.2c-2.2-13.3-12.5-19.4-22.4-19.4c-7.3,0-19.7,4-23.4,19.4H596.3z"></path>
<path class="st0" d="M624.1,87.8h18.3v7.2c3.3-3.1,10.1-10,22.7-10c7.2,0,18,3.1,24.9,11.5c7.6,9.1,7.6,23,7.6,29.4v44.7h-19.9  v-40.9c0-6.9,0-26.5-16.7-26.5c-5.4,0.1-10.5,2.8-13.6,7.3c-3.6,5.1-3.6,13.7-3.6,20.7v39.4H624L624.1,87.8L624.1,87.8z"></path>
<path class="st0" d="M325.5,209.2h23.2l45.6,80.2h0.3v-80.2H415v110.3h-22.8l-46.1-80.2h-0.3v80.2h-20.4L325.5,209.2L325.5,209.2z"></path>
<path class="st0" d="M448.4,286.9c0.9,5.4,8.6,17,22.8,17c8.8,0,15.4-3.7,19.1-10.6h20.9c-4.8,14.9-20.6,28.8-39.9,28.8  c-24,0.1-43.6-19.3-43.7-43.3c0-0.2,0-0.4,0-0.6c0-23.4,18-44.9,43.5-44.9c26.2,0,42.8,22.7,42.8,43.5c0,3.4-0.4,6.7-1.2,10  L448.4,286.9z M493.5,271c-2.2-13.3-12.5-19.4-22.4-19.4c-7.3,0-19.7,4-23.4,19.4H493.5z"></path>
<path class="st0" d="M525.3,209.2h19.8v35c6.9-6.7,16.2-10.4,25.8-10.3c25.2,0,41.6,21.9,41.6,43.9c0,16.5-10.9,44.4-41.1,44.4  c-15.9,0-22.9-7.2-27.9-12.7v10h-18.2V209.2z M568.8,303.9c13,0,23.8-10,23.8-26.1S581,252,568.4,252c-15.2,0-24.6,12.8-24.6,24.9  C543.9,295.3,557.2,303.9,568.8,303.9L568.8,303.9z"></path>
<path class="st0" d="M697.6,236.8v82.7h-18.1v-8.3h-0.3c-3.3,4.5-8.6,11-21.4,11c-15.1,0-23.5-7.5-27.7-13.1  c-6.1-8.8-6.1-22.2-6.1-29.1v-43.2h19.8v42.1c0,6.7,0,25,17.3,25c12.5,0,16.7-11.8,16.7-24.9v-42.3h19.8V236.8z"></path>
<path class="st0" d="M713.5,209.2h19.8v110.3h-19.8V209.2z"></path>
<path class="st0" d="M832.1,319.4h-18.2v-10.2c-6.3,7.4-18.5,13-28.9,13c-21.3,0-40.2-17-40.2-44.6c0-25.3,18.5-43.7,41.4-43.7  c16.9,0,26.8,12.1,27.4,13.3h0.3v-10.4h18.2V319.4z M789.2,252.1c-16.2,0-24.6,14-24.6,26.4c0,14,10.4,25.5,24.6,25.5  c13.7,0,24.2-10.7,24.2-26.1C813.3,260.8,800.9,252.1,789.2,252.1L789.2,252.1z"></path>
<polygon class="st0" points="266.7,321.1 266.7,321.1 266.7,321.1 "></polygon>
<path class="st0" d="M266.6,321.3L266.6,321.3L266.6,321.3L266.6,321.3z"></path>
<path class="st0" d="M124,322h140.5c0.8,0,1.6-0.3,2.2-0.9l0,0c0.7-0.6,1.1-1.5,1.1-2.4l0,0V188.3c-56.7,52.3-130.1,82.8-207.2,86.2  C68.8,302.6,94.6,322,124,322z"></path>
<path class="st0" d="M267.8,318.8L267.8,318.8z"></path>
<path class="st0" d="M267.7,318.9c0-0.1,0-0.1,0-0.2l0,0C267.8,318.8,267.8,318.8,267.7,318.9z"></path>
<path class="st0" d="M264.5,58h-0.2c-30.4,1.9-55.6,24.3-61,54.3l0,0c-0.3,1.6-1.7,2.7-3.2,2.7c-0.6,0-1.1-0.2-1.7-0.4l0,0l0,0  l-0.2-0.1c-30.8-19.5-71.5-10.4-91,20.4c-10.6,16.8-13.1,37.5-6.8,56.3l0,0c0.1,0.3,0.2,0.7,0.2,1.1c0,1.3-0.8,2.6-2.1,3.1l0,0  c-30.9,12.9-47.2,47-37.9,79.2c113-7.5,202.9-99.4,207.2-213.3C267.6,59.3,266.2,58,264.5,58z"></path>
</svg>
