<?xml version="1.0" encoding="utf-8"?>
<!-- Generator: Adobe Illustrator 23.0.4, SVG Export Plug-In . SVG Version: 6.00 Build 0)  -->
<svg version="1.1" baseProfile="tiny" id="Layer_1" xmlns="http://www.w3.org/2000/svg" xmlns:xlink="http://www.w3.org/1999/xlink"
	 x="0px" y="0px" viewBox="0 0 600 250" xml:space="preserve">
<g>
	<path fill="#FDFEFD" d="M122,247c-39.17,0-78.33-0.04-117.5,0.08c-2.98,0.01-3.59-0.6-3.58-3.58c0.1-79.67,0.1-159.33,0-239
		c0-2.98,0.6-3.58,3.58-3.58c197.67,0.09,395.33,0.09,593,0c2.98,0,3.6,0.6,3.58,3.58C600.95,35.67,601,66.83,601,98
		c-2.52-7.88-7.61-12.71-16.15-12.8c-14.49-0.15-28.99-0.04-43.48-0.05c-2.74,0-4.52,1.03-4.52,4.04c-0.01,18.83-0.01,37.65,0,56.48
		c0,2.84,1.42,4.32,4.29,4.33c1.67,0.01,3.34-0.13,5,0.03c4.53,0.44,6.19-1.42,6.11-6.04c-0.23-12.99,0.09-25.99-0.18-38.98
		c-0.09-4.1,1.26-5.09,5.09-4.92c6.48,0.29,12.99,0.08,19.49,0.08c8.11,0.01,9.17,1.04,9.18,9.2c0.02,11.83,0,23.66,0.01,35.49
		c0,2-0.26,4.67,2.31,4.83c4.32,0.27,8.98,1.88,12.86-1.68c0,8.67,0,17.33,0,26c-0.55-0.57-1.12-1.12-1.66-1.7
		c-3.66-3.99-9.1-4.47-12.86-1.12c-3.37,3-3.64,8.73-0.56,12.13c3.39,3.74,8.85,3.84,12.91,0.24c0.67-0.59,0.82-1.91,2.16-1.54
		c0,21.67,0,43.33,0,65c-158,0-316,0-474,0c-0.57-3.42-0.35-6.83-0.09-10.18c1.9-0.52,2.19,2.16,3.92,1.59
		c0.18-3.55-3.95-11.34-6.04-10.75c-3.14,0.88-5.16,3.84-6.62,6.75c-0.55,1.11-0.63,2.8,0.27,4.08c1.53,0,1.86-2.07,3.66-1.7
		C122.34,240.17,122.58,243.58,122,247z M67.45,118.45c1.08-0.51,2.98,1.06,3.33-0.92c0.31-1.73-1.49-1.25-2.49-1.52
		c-0.56-0.15-1.6,0.16-1.57-0.65c0.15-4.13-2.05-1.9-3.27-1.11c-0.99,0.64-3.34,1.19-1.63,3.18c1.19,1.39,1.92,4.58,4.82,1.92
		C66.91,119.05,67.18,118.75,67.45,118.45z M119.45,182.48c-0.36-0.3-0.72-0.59-1.08-0.89c-0.45-1.08,0.93-2.98-1.04-3.26
		c-1.8-0.26-1.03,1.61-1.42,2.52c-0.18,0.42-0.34,1.17-0.58,1.2c-3.72,0.45-2.18,2.35-1.08,4c0.67,1.01,1.35,2.72,2.96,1.52
		C118.8,186.38,121.51,185.39,119.45,182.48z M48.91,104.9c0.16,0.17,0.33,0.35,0.5,0.51c-0.11,0.82-0.33,1.63-0.31,2.45
		c0.01,1.03-1.37,2.39,0.28,3.03c1.98,0.78,1.97-1.19,2.44-2.27c0.53-1.23,0.21-3.28,2.73-1.91c0.75,0.41,1.4-0.87,1.3-1.65
		c-0.32-2.31-1.06-5.34-3.15-5.63c-2.13-0.3-4.7,1.42-5.54,4.08C46.67,105.01,47.84,105.02,48.91,104.9z M162.44,188.49
		c-0.19-0.23-0.39-0.44-0.61-0.64c-0.11-0.6,0.03-1.6-0.82-1.46c-1.91,0.32-4.85,5.43-3.77,6.74c1.42,1.71,3.73,1.97,5.88,1.75
		c0.86-0.09,2.92-0.58,1.86-1.78c-1.58-1.78-0.42-2.05,0.67-2.87c1.06-0.8,3.36-1.27,2.05-3.17c-1.02-1.48-2.29,0.27-3.42,0.7
		C163.67,187.99,163.06,188.24,162.44,188.49z M143.55,49.55c-0.65-0.12-1.29-0.32-1.94-0.35c-1.2-0.05-2.95-1.1-3.36,0.74
		c-0.41,1.85,1.56,1.72,2.72,2.05c1.42,0.4,2.37,0.66,1.59,2.64c-0.43,1.07,1.22,1.52,2.12,1.29c2.03-0.51,4.9-1.05,5.1-3.13
		c0.23-2.33-1.43-4.67-4.02-5.61c-1.33-0.48-1.79,0.26-1.48,1.55C144.03,49.01,143.79,49.28,143.55,49.55z M54.44,144.52
		c0.33,0,0.93,0.07,0.95-0.01c0.85-3.25-1.81-4.13-3.78-5.41c-0.74-0.48-1.78-1.45-2.56-0.2c-1.21,1.94-2.8,3.85-2.04,6.42
		c0.11,0.37,0.78,0.93,0.81,0.91c4.82-3.68,1.75,2.16,3.18,2.77c0.58,0.25,0.64,1.88,2,1.42c1-0.33,1-1.19,0.85-2.06
		c-0.17-0.98-0.34-1.96-0.52-2.93C53.71,145.13,54.07,144.83,54.44,144.52z M137.37,34.61c1.65,0.13,3.29,0.29,4.94,0.37
		c1.17,0.06,2.44,0.09,2.49-1.6c0.04-1.42-1.1-1.4-2.05-1.57c-1.95-0.35-3.89-0.69-5.83-1.04c-0.46-1.48,3.03-1.77,1.22-3.35
		c-1.07-0.93-2.83-0.63-4.17,0.37c-0.93,0.69-1.88,1.35-2.86,1.96c-1.61,1-2.61,2.07-0.82,3.81c2.02,1.97,3.22,5.52,6.98,4.23
		c0.97-0.33-0.59-1.58-0.57-2.5C136.93,35.06,137.15,34.84,137.37,34.61z M207.59,159.57c0.23,0.24,0.46,0.47,0.69,0.7
		c-0.48,1.41-0.95,2.82-1.43,4.23c-0.41,1.19-1.51,2.56,0.48,3.29c1.89,0.69,2.13-1.06,2.68-2.17c0.73-1.47,1.34-2.99,1.97-4.4
		c1.66,0.15,1.14,2.51,2.8,2.3c2.53-3.01,0.46-5.68-0.44-8.44c-1.16-3.55-3.19-1.08-4.68-0.53c-2.27,0.83-4.98,1.72-4.27,5.02
		C205.55,160.39,206.82,159.56,207.59,159.57z M213.43,88.54c0.65,0.1,1.82,0.4,1.88,0.26c0.84-2.05-0.24-3.59-1.96-4.27
		c-2.05-0.81-4.46-3.85-6.32-1.33c-1.83,2.48-3.71,5.99-0.79,9.35c1.45-0.51,0.92-2.57,2.51-2.72c0.12,0.21,0.19,0.36,0.29,0.49
		c1.7,1.97,1.07,7.16,4.14,6.09c3.6-1.25-0.94-4.51-0.57-7.03C212.87,89.11,213.15,88.83,213.43,88.54z M113.44,30.5
		c-0.28-0.3-0.57-0.6-0.85-0.9c0.63-1.29,1.97-2.94-1.13-2.48c-3.44,0.51-5.3,3.46-6.05,6c-0.69,2.31,2.91,3.04,4.64,4.42
		c1.25,1,3.15,0.99,4.2,0.03c1.12-1.02-1.92-1.78-0.96-3.17c2.37-1.36,7.21,0.7,6.94-2.83C119.96,28.15,115.77,31.26,113.44,30.5z
		 M89.46,36.57c-0.31-0.34-0.62-0.67-0.93-1.01c-0.06-0.85,1.35-2.65-1.18-1.95c-3.7,1.03-4.86,4.58-4.99,7.37
		c-0.13,2.77,3.74,2.44,5.89,3.36c1.5,0.64,3.27,0.03,3.95-1.2c0.82-1.47-2.43-0.98-2.04-2.43c1.75-2.46,7.16-1.44,6.12-4.65
		C95.21,32.76,91.89,36.74,89.46,36.57z M232.44,93.46c-0.17-0.19-0.34-0.37-0.53-0.54c0.02-1.26,1.67-2.12,0.86-3.72
		c-5.34-0.15-6.3,4.56-8.53,7.77c-0.69,1-0.04,1.89,0.99,2.37c3.52,1.65,6.72,5.1,11.37,1.82c-1.24-0.94-2.37-1.79-3.68-2.77
		c2.54-1.65,5.21-1.88,7.7-2.64c1.33-0.41,1.83-1.25,1.43-2.65c-0.38-1.31-1.34-1.32-2.34-1.13
		C237.28,92.42,234.86,92.95,232.44,93.46z M28.55,66.49c-2.21-1.14-4.42-2.28-6.63-3.41c-1.23-0.63-2.21-0.44-2.93,0.81
		c-0.82,1.43,0.03,2.11,1.14,2.73c1.02,0.57,2.05,1.1,3.01,1.75c1.05,0.71,2.83,0.92,2.84,2.43c0.01,1.9-2.82,0.44-3.28,2.27
		c3.79,4.22,7.98,1.34,12.01,0.72c0.75-0.11,1.23-0.82,0.99-1.46c-1.03-2.77-1.02-5.98-3.06-8.29c-0.77-0.87-2.02-2.24-3.32-1.47
		c-1.09,0.64-0.03,2.15-0.17,3.27C28.95,66.05,28.74,66.26,28.55,66.49z M310.18,149.95c0-0.02,0-0.05,0-0.07
		c5.49,0,11,0.29,16.47-0.06c9.55-0.62,14.66-5.64,15.42-15.06c0.9-11.28,0.93-22.6,0.02-33.88c-0.82-10.15-6.29-15.41-16.46-15.66
		c-10.31-0.24-20.64-0.25-30.96,0c-9.42,0.23-14.76,4.65-15.89,13.94c-1.45,11.9-1.23,23.95-0.17,35.86
		c0.91,10.22,6.22,14.45,16.59,14.9C300.19,150.13,305.19,149.95,310.18,149.95z M453.15,117c0,9.16,0.05,18.33-0.03,27.49
		c-0.03,3.33,0.91,5.53,4.71,5.52c16.49-0.02,32.99-0.01,49.48-0.01c3.05,0,4.68-1.36,4.54-4.55c-0.06-1.5-0.14-3.01,0.02-4.5
		c0.5-4.64-1.6-6.13-6.11-6.04c-11.16,0.22-22.33-0.1-33.49,0.16c-4.25,0.1-3.51-2.48-3.39-4.83c0.12-2.31-1.4-5.59,3.39-5.32
		c5.48,0.32,10.99,0.07,16.49,0.07c9.32,0,9.32,0,9.08-9.46c0-0.17-0.01-0.33,0-0.5c0.21-3.64-1.61-5.11-5.13-5.07
		c-6.5,0.07-13.01-0.28-19.49,0.13c-4.16,0.26-4.58-1.54-4.46-4.91c0.11-3.08-0.08-5.27,4.32-5.14c10.99,0.34,21.99-0.04,32.98,0.18
		c4.63,0.09,6.47-1.68,5.95-6.19c-0.13-1.15-0.11-2.34,0-3.49c0.37-3.83-1.27-5.46-5.16-5.44c-16.16,0.09-32.32,0.09-48.48,0
		c-3.87-0.02-5.35,1.56-5.28,5.4C453.25,99.33,453.15,108.17,453.15,117z M368.15,117.22c0,8.32,0,16.64,0,24.97
		c0.01,7.44,0.39,7.81,7.96,7.82c0.83,0,1.67-0.04,2.5,0.01c3.89,0.23,5.36-1.71,5.28-5.46c-0.12-5.32,0.12-10.66-0.09-15.98
		c-0.11-2.86,0.83-3.69,3.66-3.64c8.65,0.17,17.31,0.09,25.96,0.05c11.83-0.05,17.8-5.74,18.43-17.55
		c0.86-16.04-5.08-22.3-21.17-22.3c-12.15,0-24.3,0.14-36.45-0.07c-4.61-0.08-6.23,1.72-6.13,6.18
		C368.28,99.91,368.15,108.57,368.15,117.22z M325.76,185.84c0,2.49-0.08,4.99,0.04,7.48c0.06,1.18-0.73,3.18,1.11,3.29
		c2.02,0.11,1.26-1.95,1.29-3.09c0.11-3.82,0.18-7.65,0.01-11.47c-0.17-3.81,2.52-4.46,5.17-4.61c2.79-0.16,4.09,1.66,4.05,4.5
		c-0.07,4.16-0.02,8.31,0.01,12.47c0.01,0.99,0.02,2.23,1.32,2.27c1.45,0.05,1.22-1.29,1.23-2.2c0.04-3.99,0.22-7.99-0.03-11.97
		c-0.25-4,2.33-4.88,5.28-5.06c3.18-0.2,4.25,1.89,4.2,4.85c-0.07,3.99-0.02,7.98,0,11.97c0.01,0.98-0.08,2.28,1.2,2.38
		c1.93,0.15,1.32-1.55,1.34-2.53c0.08-3.99,0.1-7.98,0.02-11.97c-0.13-6.23-3.74-8.64-9.59-6.44c-1.62,0.61-2.93,1.94-4.93,0.35
		c-3.4-2.71-7.41-0.49-10.86-0.04c-1.87,0.24-0.53,4.76-0.84,7.33C325.68,184.17,325.76,185.01,325.76,185.84z M360.41,190.38
		c0,3.16-0.19,6.33,0.07,9.47c0.14,1.74-1.33,4.85,1.29,4.93c2.07,0.07,0.73-3,1.03-4.63c0.28-1.51-0.47-3.12,2.38-3.19
		c9.07-0.2,11.86-3.48,11.39-12.65c-0.4-7.76-2-9.16-14.02-8.48c-4.35,0.25-1.49,4.97-2.05,7.58
		C360.04,185.65,360.41,188.05,360.41,190.38z M451.15,183.15c0,3.15-0.12,6.3,0.05,9.44c0.08,1.42-1.06,3.94,1.41,3.95
		c2.01,0,1.31-2.41,1.17-3.68c-0.54-4.74,0.21-8.12,6.18-7.21c0.45,0.07,0.96-0.22,1.44-0.36c4.68-1.42,6.88-5.17,5.85-9.97
		c-1.08-5.01-4.79-6.67-12.26-6.34c-5.9,0.26-3.41,4.46-3.77,7.22C450.91,178.48,451.15,180.83,451.15,183.15z M430.2,197.21
		c0.58-0.06,1.6-0.03,2.55-0.29c1.17-0.33,3.1-0.39,2.65-2.13c-0.41-1.57-1.95-0.57-2.96-0.26c-1.47,0.45-2.94,0.6-4.42,0.24
		c-3.5-0.85-5-3.56-4.74-6.7c0.27-3.34,3.34-1.47,5.15-1.77c1.78-0.3,3.64-0.06,5.47-0.07c0.99-0.01,1.86,0.02,2.32-1.27
		c1.55-4.31-1.73-9.48-6.41-9.93c-5.72-0.55-9.12,3.37-9.38,10.83C420.17,193.28,423.42,197.23,430.2,197.21z M531.23,197.21
		c0.76-0.09,1.95-0.07,3.05-0.39c1-0.29,2.66-0.44,2.16-2.06c-0.39-1.23-1.66-0.7-2.57-0.38c-1.78,0.62-3.54,0.81-5.37,0.19
		c-3.19-1.09-4.5-3.66-4.11-6.62c0.39-2.99,3.21-1.33,4.94-1.66c1.28-0.25,2.68-0.22,3.98-0.01c3.55,0.57,4.21-1.19,3.94-4.24
		c-0.33-3.79-1.99-6.34-5.87-6.93c-3.85-0.59-6.96,0.71-8.57,4.43c-1.41,3.27-1.63,6.73-0.95,10.25
		C522.84,194.9,525.62,197.23,531.23,197.21z M504.96,186.24c0-0.99,0.08-1.99-0.01-2.97c-0.51-5.19-3.45-8.14-8.14-8.26
		c-4.7-0.12-7.87,2.63-8.88,7.59c-0.57,2.81-0.49,5.6,0.19,8.35c1.42,5.72,7.46,8.21,12.54,5.18
		C504.41,193.88,505.12,190.22,504.96,186.24z M398.58,186.47c0-2.99,0.02-5.97-0.01-8.96c-0.01-0.96,0.01-2.17-1.44-2.02
		c-1.04,0.11-1.1,1.1-1.1,1.93c-0.02,3.98-0.29,7.99,0.05,11.94c0.4,4.66-2.69,5.19-5.9,5.44c-3.62,0.28-4.35-2.2-4.32-5.21
		c0.04-3.98,0.03-7.96-0.02-11.95c-0.01-0.9,0.25-2.24-1.26-2.1c-0.93,0.08-1.13,1.07-1.13,1.95c-0.01,2.82-0.01,5.64-0.01,8.46
		c0,11.36-0.01,10.55,11.23,10.38c5.31-0.08,3.75-2.44,3.92-4.89C398.68,189.79,398.59,188.13,398.58,186.47z M301.12,186.77
		c0.05,0.57,0.07,1.74,0.28,2.87c0.95,5.1,3.63,7.54,8.27,7.55c4.88,0.01,7.53-2.59,8.65-7.23c0.77-3.18,0.62-6.26-0.34-9.29
		c-1.75-5.49-8.29-7.62-12.9-4.2C301.84,178.87,301.15,182.42,301.12,186.77z M281.01,182.94c0.01-9.55,3.19-12.44,12.31-11.2
		c0.9,0.12,2.07,0.9,2.54-0.46c0.45-1.32-0.84-1.61-1.69-1.95c-6.21-2.47-13.22,0.93-15.17,7.39c-1.23,4.07-1.23,8.19-0.1,12.29
		c1.98,7.16,9.54,10.53,16.27,7.28c0.9-0.43,2.05-0.69,1.5-2.04c-0.42-1.04-1.27-0.53-2.09-0.39
		C284.14,195.61,281,193.06,281.01,182.94z M122.62,12.34c-2.27,0.68-2.57-1.95-4.25-1.56c-0.29,3.89,2.46,9.14,5.46,10.69
		c0.91,0.47,1.54,0.38,2.15-0.3c1.65-1.84,3.5-3.57,4.85-5.61c0.97-1.47,0.79-3.36,0.16-5.08c-1.78,0.32-2.2,2.45-4.32,1.94
		c0-2.42-0.01-4.88,0-7.34c0-1.42-0.66-2.09-2.11-2.1c-1.56-0.01-1.95,0.88-1.95,2.21C122.63,7.62,122.62,10.06,122.62,12.34z
		 M221.84,71.04c3.1-1.82,5.23-3.06,7.35-4.32c1.04-0.61,1.94-1.15,1.09-2.7c-0.87-1.58-1.74-1.69-3.17-0.81
		c-2.17,1.33-4.41,2.54-7.29,4.18c0.34-2.35,0.53-3.71,0.76-5.28c-3.68,1.71-8.15,8.17-6.9,10.6c1.36,2.67,4.88,1.91,7.39,2.83
		c1.87,0.68,3.14-0.61,4.52-1.46c0.35-0.21,0.57-0.64,1.09-1.26C225.24,72.29,224.09,71.86,221.84,71.04z M73.01,22.64
		c-1.45,1.04-0.4,3.3-2.12,3.39c-1.52,0.08-1.72-1.78-2.46-2.8c-0.58-0.8-0.96-1.75-1.51-2.58c-0.69-1.04-1.15-2.64-2.98-1.63
		c-1.92,1.06-1.17,2.43-0.4,3.79c0.9,1.59,1.81,3.18,2.67,4.8c0.2,0.38,0.21,0.85,0.3,1.23c-1.34,1.03-3.03-0.87-4.15,0.72
		c1.62,3.12,9.01,7.16,10.92,6.01C75.44,34.26,75.36,25.88,73.01,22.64z M10.41,130.56c5.41,2.11,7.57-2.37,10.69-4.75
		c0.69-0.53,1.04-1.37,0.18-2.11c-3.12-2.7-5.32-7.25-10.71-5.44c-0.47,1.75,2.7,1.99,1.58,4.36c-2.38,0-4.85,0.01-7.32,0
		c-1.39-0.01-2.22,0.52-2.17,2.04c0.05,1.46,0.85,2.03,2.25,2.03c2.16-0.01,4.32,0.01,6.48,0.07c0.41,0.01,0.81,0.3,1.43,0.55
		C11.93,128.51,11.19,129.51,10.41,130.56z M226.67,176.6c-3.8-4.54-8.01-1.79-12.05-1.01c-0.85,0.16-1.44,0.86-1.07,1.85
		c1.44,3.8,1.02,8.86,6.88,9.9c0.37-1.44-1.13-2.89,0.04-4.33c2.37,0.18,4.02,1.96,6.02,2.98c1.36,0.7,2.58,1.6,3.66-0.48
		c0.96-1.84-0.36-2.31-1.48-2.98c-2.13-1.27-4.28-2.52-6.89-4.06C223.94,177.65,225.3,177.12,226.67,176.6z M100.8,236.76
		c3.46-5.03-0.39-8.34-2.1-12c-0.37-0.8-1.29-1.02-2.14-0.46c-2.21,1.46-4.53,2.8-6.53,4.5c-0.72,0.61-1.1,2.22-0.9,3.22
		c0.43,2.11,1.7,0.42,2.61,0.27c1.7-0.29,1.46,0.89,1.28,1.82c-0.32,1.63-0.72,3.24-1.2,4.83c-0.46,1.51-0.96,2.81,1.28,3.43
		c2.17,0.6,2.13-1.09,2.5-2.19c0.77-2.29,1.35-4.65,2.21-7.7C99.09,234.32,99.87,235.44,100.8,236.76z M176.35,22.66
		c-4.36,3.72-1.56,7.96-0.94,12.01c0.14,0.92,0.96,1.45,1.86,1.11c3.81-1.47,8.83-1.17,9.93-6.71c-1.3-1-2.87,0.97-4.2-0.46
		c0.23-2.35,1.97-4.03,2.98-6.04c0.61-1.23,1.39-2.32-0.37-3.28c-1.63-0.89-2.45,0.02-3.17,1.26c-1.23,2.13-2.44,4.27-3.66,6.39
		C176.9,25.89,177.66,23.73,176.35,22.66z M12.47,100.88c3.91,2.92,6.91,0.89,9.91-0.85c1.48-0.86,3.93-1.44,2.2-3.91
		c-1.99-2.84-2.78-7.1-7.5-7.01c-0.31,0.01-0.91,0.63-0.86,0.82c1.75,6.14-2.49,2.05-4.1,2.42c-1.68,0.39-4.11-2.61-5,0.56
		c-0.95,3.42,2.6,2.52,4.24,3.43c1.41,0.79,3.4,0.18,4.56,2.05C14.87,99.15,13.82,99.9,12.47,100.88z M97.7,16.01
		c-0.61-2.19-1.14-4.24-1.75-6.27c-0.42-1.39-0.56-3.13-2.78-2.71c-2.51,0.48-1.32,2.21-1.14,3.53c0.11,0.82,0.46,1.6,0.66,2.4
		c0.96,4.03,0.9,4.09-3.54,3.59c-0.3,5.53,4.79,6.14,7.83,8.57c0.75,0.6,1.66,0.28,2.03-0.66c1.42-3.59,5.44-6.68,2.26-11.23
		C99.55,13.32,99.83,15.45,97.7,16.01z M67.2,219.76c-1.67,2.94-2.88,5.1-4.1,7.24c-0.7,1.22-1.26,2.23,0.53,3.21
		c1.83,0.99,2.31-0.19,2.99-1.34c1.17-1.99,2.35-3.98,3.57-5.95c0.09-0.15,0.49-0.11,0.93-0.19c0.48,1.26,0.97,2.53,1.53,4.01
		c4.48-4.03,1.62-8.24,1.03-12.26c-0.1-0.66-0.75-1.15-1.5-0.88c-3.59,1.31-8.14,0.94-9.88,5.52c-0.15,0.38-0.02,0.87-0.02,1.45
		C63.74,220.32,64.98,220.12,67.2,219.76z M236.88,148.49c-5.37-3.34-8.69,0.38-12.39,2.23c-0.65,0.33-0.75,1.1-0.36,1.73
		c1.48,2.39,2.5,5.14,4.73,6.96c1.57,1.29,4.23,0.69,3.83-0.43c-2.06-5.91,1.96-2.17,3.43-2.19c0.96-0.01,1.95,0.38,2.9,0.67
		c1.31,0.4,2.5,0.93,3.15-1.02c0.77-2.35-0.92-2.41-2.32-2.81c-1.91-0.55-3.84-1.06-5.74-1.66c-0.35-0.11-0.61-0.54-1.08-0.98
		C234.33,150.15,235.41,149.45,236.88,148.49z M29.47,186.85c5.38-1.57,4.68-6.52,6.15-10.16c0.25-0.63-0.46-1.26-1.15-1.36
		c-4.07-0.58-8.34-3.39-12.01,1.03c1.14,1.25,3.34,0.39,4.27,2.33c-2.13,1.27-4.24,2.58-6.4,3.79c-1.26,0.71-2.3,1.31-1.37,3.04
		c0.93,1.73,1.97,1.21,3.26,0.51c2.01-1.1,3.8-2.68,6.12-3.08C29.79,183.96,28.24,185.58,29.47,186.85z M201.64,204.86
		c1.18,1.1,1.89,2.11,2.87,2.59c2.08,1.03,2.96,5.95,5.83,3.28c3.09-2.88-1.94-3.84-2.91-5.9c-0.4-0.85-1.49-1.34-1.44-2.44
		c0.77-1.44,3.1,0.26,3.56-1.75c-2.47-4.53-6.75-3.38-10.6-3.51c-1.51-0.05-2.02,0.88-1.95,2.23c0.2,3.78-1.19,8.15,3.64,10.3
		C201.77,208.36,200.62,206.71,201.64,204.86z M151.45,233.27c0.6,2.17,1.07,4.4,1.85,6.51c0.42,1.14,0.07,3.28,2.62,2.61
		c2.34-0.61,1.63-1.98,1.2-3.42c-0.28-0.95-0.77-1.95-0.68-2.88c0.13-1.33-3.09-5.24,2.21-3.18c1.57,0.61,1.29-0.96,1.21-1.85
		c-0.17-1.82-6.63-7.25-8.39-7.03c-0.44,0.05-1.06,0.37-1.21,0.73c-1.59,3.71-5.37,7.05-2.32,11.71
		C149.67,235.96,149.3,233.69,151.45,233.27z M148.19,12.79c-3.09,4.44,0.27,7.77,1.99,11.35c0.65,1.36,1.83,1.5,2.87,0.65
		c2.81-2.31,7.96-2.81,6.85-8.31c-1.51-0.64-2.49,1.66-4.21,0.53c0.63-2.49,1.18-4.91,1.86-7.29c0.38-1.32,0.36-2.29-1.22-2.63
		c-1.34-0.29-2.19,0.08-2.57,1.54c-0.65,2.49-1.44,4.94-2.17,7.39C149.46,15.59,149.79,13.37,148.19,12.79z M16.57,151.44
		c-2.68,0.71-4.46,1.11-6.19,1.67c-1.6,0.51-4.07,0.37-3.34,3.19c0.75,2.85,2.88,0.27,4,0.85c1.67,0.87,6.73-5.48,5.14,2.31
		c-0.03,0.13,0.45,0.5,0.71,0.53c2.2,0.19,4.07-0.63,4.96-2.62c1-2.24,4.7-4.53,2.52-6.68c-2.48-2.44-5.99-5.03-10.3-3.33
		c-0.44,0.17-0.85,0.43-1.42,0.71C14.1,149.32,15.04,150.13,16.57,151.44z M235.72,126.88c3.36,0,5.68,0,8,0
		c1.27,0,2.28-0.25,2.4-1.83c0.15-1.99-1.13-2.09-2.56-2.09c-2.56,0.01-5.13,0-8.07,0c0.97-2.06,3.06-2.57,3.01-4.48
		c-3.66-0.4-10.75,3.03-10.88,5.76c-0.15,3.16,3.56,3.92,5.18,6.08c0.19,0.25,0.52,0.45,0.82,0.53c1.6,0.41,3.2,0.61,5.03-0.22
		C237.82,129.58,237.06,128.61,235.72,126.88z M178.59,222.45c0.9,1.57,1.58,3.34,2.77,4.65c1.1,1.22,0.85,4.69,3.91,3.12
		c3.19-1.64-0.37-3.27-0.25-4.89c0.13-1.86-6.35-4.49,0.56-5.64c0.21-0.04,0.49-0.85,0.42-1.25c-0.38-2.19-2.21-2.89-3.98-3.2
		c-2.15-0.37-4.34-2.61-6.49-0.65c-2.47,2.25-1.75,9.23,1.06,11.91C177.29,225.2,176.9,223.4,178.59,222.45z M39.73,200.56
		c0.98,1.43,3.29-0.32,4.51,2.53c-1.72,1.43-3.65,3-5.55,4.61c-1.24,1.06-1.3,2.12-0.08,3.34c1.32,1.3,2.17,0.28,2.86-0.56
		c1.68-2.03,3.21-4.17,4.8-6.27c2.56,2.14,0.51,4.3,2.35,5.25c2.9-2.61,4.72-10.28,2.91-12.03
		C49.73,195.69,42.03,197.72,39.73,200.56z M200.67,39.74c-1.16,1.04-2.18,1.66-2.81,2.56c-1.32,1.9-1.12,9.11,0.12,9.78
		c2.81,1.5,9.35-0.61,11.68-3.91c-1.51-0.12-2.89-0.23-4.27-0.33c-0.35-0.46-0.71-0.92-1.06-1.38c1.97-1.48,4-2.88,5.89-4.46
		c0.94-0.78,2.27-1.68,0.78-3.22c-1.52-1.58-2.59-0.65-3.72,0.49c-1.4,1.41-2.81,2.81-4.26,4.16c-0.31,0.28-0.85,0.3-1.43,0.49
		C201.28,42.55,201.02,41.35,200.67,39.74z M409.15,170.15c0.48,3.33-5.57,5.4-1.24,9.21c0.5,0.44,0.09,1.92,0.09,2.91
		c0.01,3.32-0.13,6.64,0.05,9.95c0.22,4.02,3.04,5.9,6.88,4.84c0.81-0.22,1.73-0.39,1.64-1.46c-0.09-1.1-0.91-1.17-1.81-0.95
		c-2.05,0.5-3.95,0.07-4.21-2.18c-0.39-3.27,0.21-6.7-0.41-9.9c-0.88-4.53,2.58-4.9,5.52-6.4
		C411.41,176.18,409.62,174.03,409.15,170.15z M552.03,197.21c0.29-0.03,0.79-0.05,1.28-0.13c1.43-0.22,3.75-0.12,3.54-1.85
		c-0.34-2.73-2.31-0.46-3.48-0.37c-2.8,0.21-5.54,0.17-6.95-2.62c-1.98-3.9-2.08-8.07-0.17-12.02c1.34-2.77,3.96-3.22,6.82-2.77
		c1.15,0.18,2.97,1.45,3.23-0.61c0.2-1.58-1.78-1.58-3.04-1.76c-6.56-0.95-10.43,2.75-10.84,10.37
		C542.01,193.14,545.35,197.32,552.03,197.21z M39.46,48.22c2.36,5.39,7.05,3.43,10.9,3.89c1.2,0.14,1.88-0.71,1.77-1.85
		c-0.37-3.86,1.41-8.5-3.94-10.81c-0.14,1.68-0.28,3.25-0.41,4.82c-0.42,0.33-0.83,0.66-1.25,0.98c-1.61-2.07-3.18-4.17-4.86-6.18
		c-0.74-0.89-1.65-1.72-2.91-0.59c-1.47,1.31-0.7,2.4,0.39,3.27c2.05,1.63,4.2,3.14,6.31,4.69c-0.4,0.44-0.8,0.89-1.2,1.33
		C42.68,47.92,41.11,48.06,39.46,48.22z M572.29,176.49c-2.98-1.06-6.3-0.84-5.56-5.03c0.12-0.69-0.63-1.24-1.35-0.86
		c-0.5,0.27-1.13,0.91-1.14,1.39c-0.03,2.54-1.7,4.59-0.43,7.76c1.44,3.6,0.19,8.2,0.57,12.33c0.4,4.26,3.06,5.97,6.87,5
		c0.81-0.21,1.69-0.29,1.67-1.41c-0.02-1.22-0.86-1.2-1.72-1.01c-4.05,0.87-4.42-1.65-4.36-4.65c0.04-1.99,0.14-4-0.02-5.98
		C566.51,180.2,566.46,176.66,572.29,176.49z M47.94,63.48c-4.06,3.02-3.09,6.94-1.65,9.8c1.11,2.22,4.43,0.48,6.71,0.05
		c1.57-0.29,3.1-2.68,2.58-3.01c-3.97-2.49-0.8-4.17,0.4-6.07c0.55-0.88,1.1-1.65-0.04-2.53c-1.03-0.8-1.79-0.57-2.52,0.37
		c-1.23,1.55-2.47,3.09-3.95,4.93C48.91,65.73,48.49,64.77,47.94,63.48z M112.97,215.21c-2.7-0.41-4.51-0.68-6.31-0.94
		c-1.09-0.16-1.99,0.06-2.3,1.3c-0.32,1.27,0.78,1.48,1.39,2.19c1.34,1.55,7.87-2.93,4.75,3.97c-0.05,0.12,3.17,1.22,4.44-0.04
		c1.59-1.57,5.73-1.91,4.38-4.86c-1.29-2.82-3.33-6.42-8.03-5.33C111.82,212.62,112.27,213.65,112.97,215.21z M68.67,203.91
		c1.6-0.53,4.47,0.69,5.09-1.52c0.73-2.59,0.36-5.6-1.76-7.83c-0.6-0.64-2.12-1.76-2.33-0.89c-1.3,5.42-3.1,0.72-4.54,0.28
		c-1.15-0.35-2.11-2.04-3.41-0.58c-1.72,1.92,0.59,2.38,1.41,3.37c0.87,1.06,2.87,1.4,2.38,3.33
		C64.64,203.51,64.91,203.91,68.67,203.91z M136.27,214.97c-1.01,0.18-1.96,0.11-2.61,0.52c-1.61,1-5.31-0.94-4.86,2.44
		c0.39,2.97,3.33,0.42,5.02,0.98c0.91,0.3,2.35-1.07,2.75,0.92c0.53,2.67,1.65,3.13,3.66,1.23c1.53-1.45,3.89-3.12,3.54-5.11
		c-0.42-2.46-3.32-3.45-5.5-4.53c-1.14-0.57-2.85-0.72-3.58,0.55C133.93,213.26,136.39,213.3,136.27,214.97z M203.86,180.82
		c-0.03-0.33,0.02-0.69-0.11-0.98c-0.71-1.58,0.9-4.66-2.12-4.6c-2.79,0.06-6.09-0.11-7.92,2.95c-0.27,0.45-1.03,1.36,0.04,1.52
		c5.31,0.79,0.75,2.68,0.43,3.98c-0.32,1.27-2.58,2.33-0.88,3.77c2.02,1.7,2.61-0.77,3.73-1.73c0.98-0.83,1.15-3.12,3.15-2.19
		C203.07,184.87,203.84,184.38,203.86,180.82z M34.3,136.9c-0.32-2.17-0.49-3.94-0.87-5.65c-0.22-1,0.01-2.57-1.75-2.48
		c-2.01,0.1-1.56,1.61-1.65,2.91c-0.11,1.5,1.32,4.29-0.63,4.27c-4.88-0.03-2.27,3.18-1.53,3.81c1.88,1.6,3.36,5.66,6.44,3.55
		c2.34-1.6,4.62-4.45,3.47-8.12c-0.07-0.22-0.4-0.36-0.74-0.65C36.25,135.22,35.45,135.92,34.3,136.9z M215.11,136.13
		c-0.34,2.19-0.68,3.64-0.75,5.1c-0.07,1.31-1.15,3.23,1.17,3.61c2.3,0.38,1.69-1.81,2.33-2.97c0.66-1.2-1.7-6.01,3.16-2.88
		c1.09,0.7,0.85-0.92,1.06-1.54c0.83-2.5-1.06-4.01-2.25-5.7c-0.92-1.31-1.69-3.64-4.03-1.42c-2.18,2.07-5.54,3.4-4.37,7.62
		C212.51,137.41,213.51,136.92,215.11,136.13z M36.95,96.19c2.04-1.43,4.82-1.51,6.35-3.76c2.06-3.03-0.44-2.83-2.25-3.08
		c0.13-0.79,0.15-1.62,0.41-2.37c0.37-1.1,0.92-2.13,1.35-3.22c0.35-0.9,0.06-1.61-0.82-2.05c-0.78-0.39-1.28-0.35-2.13,0.27
		c-1.81,1.33,0.03,8.16-5.57,3.83c-0.72,1.48-1.79,2.94-0.89,4.68C34.4,92.41,34.1,95.16,36.95,96.19z M45.56,182.79
		c1.45,3.99,4.55,3.95,7.51,4.36c1.73,0.24,3.02,0.23,2.95-1.98c-0.1-2.65,1.74-5.66-1.35-7.75c-0.24-0.16-1.08,0.02-1.18,0.26
		c-2.26,4.88-2.57-0.44-3.72-0.81c-1.31-0.42-1.47-3.64-3.62-2.16c-2.54,1.75,0.25,3.05,0.97,4.41c0.64,1.2,1.63,2.22,2.74,3.67
		C48.16,182.79,47.05,182.79,45.56,182.79z M163.79,34.9c-3.75-3.4-7.11-1-9.75,0.6c-2.49,1.51,0.38,3.79,1.09,5.53
		c1.36,3.28,1.77,3.2,4.2,0.39c0.67-0.78,1.5-0.47,2.27-0.16c1.23,0.49,2.42,1.06,3.65,1.55c1.08,0.43,1.97,0.15,2.45-0.94
		c0.54-1.23-0.21-1.8-1.23-2.21c-0.77-0.3-1.51-0.68-2.3-0.93C161.26,37.82,159.88,36.68,163.79,34.9z M33.24,160.71
		c0.51,4.45,4.36,4.95,7.39,6.29c1.22,0.54,1.83-0.61,2.1-1.54c0.85-2.93,3.31-5.96-0.17-8.88c-0.94,0.9-0.64,2.48-2.27,2.88
		c-0.81-1.92-1.62-3.87-2.44-5.81c-0.48-1.14-1.24-1.4-2.36-0.83c-0.88,0.45-1.24,1-0.82,1.97c0.4,0.91,0.79,1.83,1.14,2.76
		C37.13,160.98,37.12,160.98,33.24,160.71z M85.19,214.53c3.95,3.06,7.59,1.17,10.17-0.97c1.88-1.56-1.01-4.04-1.75-6.09
		c-0.54-1.5-2.07-2.52-3.52-2.25c-2.3,0.42,1.2,2.62-0.83,3.47c-1.62-0.63-3.33-1.23-4.99-1.96c-1.21-0.54-2.19-0.72-2.82,0.74
		c-0.73,1.7,0.74,1.95,1.68,2.42c1.78,0.87,3.62,1.6,5.63,2.48C87.48,213.14,86.41,213.79,85.19,214.53z M514.57,188.52
		c0.01,0,0.01,0,0.02,0c0-2.81,0.12-5.64-0.05-8.44c-0.09-1.5,0.96-4.16-1.09-4.24c-2.32-0.08-1.21,2.6-1.24,4.02
		c-0.14,5.79-0.05,11.59-0.06,17.38c-0.01,2.34,0.08,4.77-2.78,5.72c-0.95,0.32-1.46,0.91-1,1.81c0.46,0.9,1.33,0.68,2.16,0.39
		c2.94-1.04,3.94-3.39,4.02-6.21C514.65,195.47,514.57,191.99,514.57,188.52z M214.89,112.87c0.26,1.63,0.28,2.99,0.73,4.21
		c0.45,1.24-0.44,3.56,1.75,3.51c2.67-0.06,1.35-2.38,1.6-3.82c0.23-1.28-1.24-3.69,0.92-3.64c4.31,0.1,2.05-2.7,1.45-3.47
		c-1.48-1.89-3.38-4.48-5.69-4.26c-2.07,0.2-2.95,3.28-4.22,5.18c-0.78,1.17-0.77,2.9,0.15,3.71
		C213.07,115.56,213.28,112.65,214.89,112.87z M69.4,52.13c0.79-0.62,1.83-1.2,2.55-2.04c1.03-1.2,4.12-1.67,2.45-3.97
		c-1.81-2.49-2.89,0.68-4.34,1.22c-1.24,0.46-2.7,2.81-3.64,1.08c-2.29-4.19-2.98-0.62-3.5,0.65c-0.78,1.94-1.87,4.56-0.59,6.16
		c1.38,1.73,4.25,1.31,6.49,1.32c1.46,0.01,3.21-0.82,3.43-2.34C72.52,52.48,69.82,54,69.4,52.13z M182.36,49.62
		c0.94-1.35,2.96-0.19,2.95-1.84c0-0.65-1.2-1.51-2.03-1.91c-2.44-1.17-5.23-0.58-7.26,0.4c-2.39,1.16-0.42,3.79-0.23,5.78
		c0.13,1.32,1.17,3.55,1.96,2.75c3.36-3.41,5.03-0.12,7.19,1.29c0.91,0.59,1.7,1.02,2.55-0.06c0.81-1.02,0.48-1.8-0.42-2.53
		C185.54,52.25,184.01,50.98,182.36,49.62z M160.47,212.28c1.09,1.53-1.09,3.11,0.32,3.43c2.09,0.47,3.79-0.97,4.34-3.12
		c0.48-1.9,3.76-3.95,0.52-5.77c-2.71-1.52-5.88-3.31-9.21-0.34c1.1,0.7,2.11,1.36,3.44,2.22c-2.38,1.02-4.35,1.83-6.3,2.71
		c-0.95,0.43-1.65,1-1,2.27c0.59,1.14,1.28,1.26,2.39,0.78C156.77,213.68,158.61,213.01,160.47,212.28z M27.55,110
		c-1.64,4.37,1.09,6.7,3.07,9.26c1.1,1.41,2.1,0.32,2.9-0.41c2.14-1.95,5.57-3.25,4.1-7.26c-1.32,0.01-1.87,1.68-3.43,1.04
		c0.19-1.41,0.49-2.86,0.57-4.32c0.07-1.36,1.06-3.37-1.09-3.74c-2.63-0.45-1.95,2.1-2.34,3.47c-0.39,1.36-0.38,2.83-0.6,4.72
		C29.58,111.75,28.76,111.04,27.55,110z M182.92,203.62c4.07-1.7,3.86-5.22,4.14-8.46c0.13-1.54-1-2-2.25-2
		c-2.89,0-6.23-1.41-8.09,2.24c0.85,1.12,2.43,0.02,3.18,1.63c-1.48,1.2-3.01,2.42-4.52,3.65c-0.77,0.63-1.65,1.25-0.88,2.41
		c0.86,1.29,1.86,1.05,2.94,0.23c1.56-1.17,3.15-2.28,4.74-3.42C183.43,201.05,182.03,202.29,182.92,203.62z M203.17,64.83
		c-3.28-2.23-7.16-4.44-9.46-1.77c-1.78,2.07-2.38,6.89,1.72,9.63c0.39-1.24,0.73-2.32,1.2-3.82c1.51,1.93,2.6,3.36,3.73,4.76
		c0.72,0.89,1.45,1.98,2.82,1c1.34-0.95,0.75-1.95-0.03-2.92c-1.2-1.49-2.4-2.98-3.58-4.45C200.07,65.68,201.99,66.46,203.17,64.83z
		 M474.01,185.96c0,2.98-0.02,5.97,0.02,8.95c0.01,0.78-0.01,1.79,1.16,1.78c1.03-0.01,1.35-0.84,1.36-1.71
		c0.04-3.31,0.18-6.64,0.01-9.94c-0.21-4.13,0.49-7.35,5.55-7.49c0.85-0.02,1.71-0.28,1.59-1.41c-0.12-1.13-1.07-1.07-1.87-1.12
		c-6.83-0.42-7.83,0.53-7.83,7.46C473.99,183.64,473.99,184.8,474.01,185.96z M72.38,66.31c-2.24-0.03-5.57,1.06-4.65,2.22
		c2.07,2.61,0.19,3.3-0.9,4.64c-0.52,0.64-1.17,1.3-0.5,2.14c0.85,1.07,1.65,0.47,2.52-0.15c1-0.72,1.67-2.7,3.1-1.91
		c4.58,2.55,3.25-1.67,3.65-3.26C76.25,67.4,75.15,65.8,72.38,66.31z M124.75,50.91c-1.53,1.49-1.88,2.39-0.14,2.39
		c3.03,0,5.34-2.07,5.81-4.5c0.36-1.84-2.37-3.28-4.25-4.26c-0.76-0.39-2.55-0.56-2.42,0.55c0.29,2.55-1.23,2.14-2.66,2.22
		c-1.1,0.07-2.74-0.26-2.75,1.31c-0.02,2.08,1.9,1.18,3.04,1.4C122.45,50.24,123.95,49.62,124.75,50.91z M54.33,161.5
		c-0.38,1.69,1.1,3.92,1.27,3.76c3.67-3.58,3.08,1.29,4.33,2.18c0.68,0.49,1.14,1.19,2.04,0.71c1.28-0.68,0.61-1.55,0.27-2.48
		c-0.51-1.39-2.74-2.9,0.32-4.21c0.81-0.35-0.05-1.52-0.55-2.05c-1.57-1.66-3.87-2.2-5.83-1.97
		C54.28,157.65,55.21,160.28,54.33,161.5z M87.47,54.4c-2.6-0.26-3.11,0.22-2.16,2.65c0.54,1.37-0.6,1.16-1,1.62
		c-1.04,1.2-4.19,1.22-2.89,3.59c0.98,1.78,2.5-0.38,3.76-0.82c0.78-0.27,1.5-0.69,2.08,0.33c1.38,2.41,2.53,0.57,3.26-0.42
		C93.24,57.7,91.92,54.84,87.47,54.4z M167.85,60.69c-0.06-3.29-1.76-4.42-5.44-3.84c-0.68,0.11-1.48-0.56-2.24-0.85
		c-0.98-0.37-2.13-1.73-2.98-0.25c-0.96,1.66,0.87,2.09,1.79,2.92c0.75,0.68,2.9,0.44,1.97,2.23c-0.34,0.66-2.03,0.76-0.69,1.94
		c1.99,1.74,4.09,0.2,6.12-0.03C167.5,62.67,168.13,61.92,167.85,60.69z M66.18,176.62c0.17,1.63-0.01,4.13,1.18,4.17
		c2.81,0.08,5.07,1,7.39,2.32c0.47,0.27,1.17-0.6,1.02-1.33c-0.44-2.03-4.97-2.9-1.57-6.33c0.46-0.46-3.4-1.66-5.49-1.8
		C66.44,173.49,65.83,174.77,66.18,176.62z M200.13,141.15c0.22-0.93,0.86-1.93-0.11-2.74c-0.31-0.26-1.28-0.33-1.36-0.18
		c-1.23,2.34-2.33,4.38-5.07,5.8c-1.44,0.74,0.69,4.07,2.11,5.43c2,1.9,3.57-0.62,4.99-1.62c1.63-1.14,2.5-2.72-0.38-3.91
		C199.37,143.53,200.02,142.11,200.13,141.15z M179.73,75.71c2.24,0.57,3.37-0.22,3.22-3.03c-0.16-3.04,0.02-2.84-3.61-3.07
		c-2.08-0.14-3.07-4.44-5.01-3.08c-3.09,2.17,2.39,2.92,1.73,5.42C175.15,75.43,175.48,75.59,179.73,75.71z M105.24,46.83
		c-0.7,0.14-1.34,0.27-1.99,0.4c2.15,4.55-2.84,2.96-3.97,4.67c-0.23,0.35-0.32,0.99-0.17,1.38c0.41,1.03,1.35,0.58,2.13,0.62
		c1.27,0.07,3.05-2.02,3.7,0.18c0.98,3.31,2.47,1.35,3.31,0.4c1.16-1.3,3.08-2.94,2.38-4.63C109.81,47.86,107.36,47.3,105.24,46.83z
		 M108.39,200.35c1.19,0.36,2.24,0.63,2.52-0.79c0.27-1.37-0.9-1.51-1.8-1.87c-1.04-0.4-2.05-0.86-3.08-1.29
		c0.87-1.77,0.67-3.3-1.6-3.02c-1.54,0.19-3.14,1.12-4.42,2.09c-2.39,1.82,0.19,3.13,0.81,4.55c0.7,1.61,2.6,3.13,3.67,1.41
		C105.87,199.25,107.11,200.19,108.39,200.35z M63.44,86.63c-0.28-1.5-0.35-2.68-0.72-3.76c-1.15-3.36-3.32-0.74-4.9-0.57
		c-1.53,0.17-3.88,1.89-2.33,3.09c2.22,1.72,0.86,2.61,0.27,3.92c-0.38,0.86-1.29,1.8-0.19,2.6c1.39,1.01,1.89-0.37,2.68-1.17
		c0.89-0.91,1.06-3.61,2.48-2.64C64.02,90.32,63.02,87.54,63.44,86.63z M202.59,105.29c-0.26-0.66-0.5-1.27-0.74-1.88
		c-4.27,1.82-2.9-2.46-4.23-3.83c-0.36-0.37-1.26-0.57-1.75-0.39c-1.01,0.36-0.62,1.29-0.51,2.1c0.2,1.48,2.2,3.48-1.27,3.96
		c-1.08,0.15-0.45,1.52-0.1,2.06c1.29,1.99,3.39,3.89,5.51,3.28C201.31,110.07,202.06,107.39,202.59,105.29z M185.83,163.07
		c0.13,0.87,0.27,1.85,0.43,2.82c0.31,1.88,1.4,2.52,3.17,1.86c1.96-0.73,5.48-2.73,4.73-3.21c-2.7-1.72-1.9-2.95-0.68-4.74
		c0.58-0.85,1.04-1.92-0.07-2.59c-1.15-0.7-1.67,0.46-2.35,1.15c-0.94,0.95-0.71,3.11-2.65,2.95
		C185.86,161.11,185.87,160.99,185.83,163.07z M176.53,183.02c2.31-0.2,5.61-1.78,5.04-2.12c-4.11-2.42-0.18-3.27,0.6-4.58
		c0.51-0.86,1.41-1.57,0.37-2.55c-1.13-1.07-1.69,0.19-2.47,0.67c-1.03,0.63-1.32,2.27-3.06,1.98c-3.21-0.55-3.15-0.48-3.42,2.87
		C173.38,181.81,173.6,183.73,176.53,183.02z M194.87,87.64c0.27-1.66-0.39-2.76-1.27-3.78c-3.32,3.32-3.32-0.86-4.58-2.07
		c-0.7-0.67-1.34-0.95-2.14-0.37c-0.64,0.46-0.36,1.07-0.28,1.74c0.22,1.75,4.5,3.75-0.22,5.27c0.25,0.56,0.36,1.3,0.79,1.64
		c1.59,1.27,3.57,2.14,5.48,1.82C194.92,91.52,194.02,88.88,194.87,87.64z M144.09,202.69c0.8-0.37,1.55-0.71,2.3-1.05
		c-3.89-4.65,2.06-2.07,2.7-3.51c0.22-0.5,1.5-0.64,1.19-1.71c-0.37-1.32-1.29-1.07-2.36-0.89c-1.38,0.23-2.92,1.69-4.07-0.86
		c-0.75-1.66-2.4-0.67-3.12,0.47c-0.92,1.45-3.13,2.92-2.14,4.59C139.62,201.47,141.98,202.17,144.09,202.69z M204.92,125.45
		c-0.16-0.73-0.06-1.95-0.58-1.68c-3.71,1.93-2.14-1.23-2.42-2.46c-0.24-1.05,0.32-2.7-1.3-2.74c-2.05-0.06-1.17,1.86-1.58,2.96
		c-0.34,0.92,1.55,4.13-2.1,2.24c-1.22-0.63-1,0.96-0.92,1.52c0.39,2.66,2.48,5.23,4.4,5.25
		C202.42,130.54,204.37,127.92,204.92,125.45z M53.15,123.57c-0.53-1.89-2.03-3.63-3.85-4.5c-2.1-1-2.92,1.53-4.13,2.66
		c-0.97,0.91-1.33,3.44-0.76,3.4c3.95-0.28,2.62,2.57,2.97,4.41c0.18,0.97,0.71,1.5,1.68,1.31c1.09-0.21,0.61-1.41,1.02-1.92
		c0.87-1.08-2.18-4.81,2.34-3.48C53.18,125.69,52.86,124.49,53.15,123.57z M124.27,196.07c-2.67,0.24-4.54,1.96-5.33,4.01
		c-0.86,2.24,1.96,3.01,3.18,4.37c0.8,0.89,2.12,0.73,3.26,0.33c-1.52-4.01,1.59-2.69,3.35-2.88c0.99-0.1,2.15-0.05,2.15-1.4
		c0-1.36-1.23-1.14-2.15-1.43c-1.34-0.42-4.95,1.81-3.22-2.53C125.08,196.37,124.65,196.21,124.27,196.07z M86.41,185.72
		c-1.51,0.39-2.83,0.6-4.06,1.06c-2.38,0.9-0.68,2.46-0.43,3.71c0.29,1.43,1.66,3.9,2.22,3.19c2.36-2.99,3.96-0.51,5.84,0.18
		c0.81,0.3,1.65,0.45,2.06-0.6c0.39-1-0.39-1.46-1.02-1.99c-0.97-0.82-3.4-1.53-2.79-2.29C91.15,185.29,87.35,186.57,86.41,185.72z
		 M117.54,70.96c2.33-0.51,0.28-2.89,1.64-4.02c3.16-2.62-0.02-3.72-1.5-4.96c-2.26-1.89-2.59,0.86-3.55,1.81
		C113.38,64.54,116.41,70.85,117.54,70.96z M69.02,144.09c-2.12-0.07-2.44,1.7-3.13,3.14c-0.74,1.54-0.29,2.24,1.29,2.91
		c2.57,1.1,4.22,1.35,4.61-2.23c0.12-1.12,3.5-0.62,2.73-2.6c-0.72-1.85-2.59,0.34-3.91-0.11C70.06,145.01,69.59,144.5,69.02,144.09
		z M146.01,174.23c-1,0.5-1.7,0.75-1.5,1.84c0.17,0.93,0.7,2.41,0.31,2.74c-2.1,1.75-0.92,2.95,0.61,3.72
		c1.15,0.57,2.53,2.3,3.87,0.78c1.02-1.16,2.04-4.09,1.37-4.3C148.13,178.25,147.03,176.45,146.01,174.23z M167.19,91.73
		c2.26,1.16,3.51-1.49,5.82-0.31c1.83,0.93,1.94-1.95,2.39-3.4c0.45-1.46,0.24-2.63-1.63-2.77c-1.63-0.13-4.67,0.04-4.31,0.94
		C170.6,89.06,167.48,89.61,167.19,91.73z M174.35,104.03c1.56,1.91,3.84-1.26,5.68,1.31c0.76,1.06,2.44-1.77,3.31-3.34
		c1.05-1.88-0.24-2.35-1.49-2.76c-1.49-0.5-4.55-1.09-4.25,0.09C178.53,102.84,174.52,101.68,174.35,104.03z M183.29,120.5
		c2.11-0.12,3.13-1.46,4.14-2.78c0.57-0.75,0.7-1.53-0.11-2.15c-1.16-0.9-3.22-2.67-3.63-2.02c-1.38,2.18-3.76,2.43-5.45,3.82
		c-0.09,0.07,0.25,1.06,0.53,1.14C180.47,119,182.21,119.39,183.29,120.5z M71.99,132.6c-2.38-2.57-5.3-1.11-6.71-3.67
		c-0.44-0.8-3.6,1.81-3.84,3.62c-0.27,2.01,2.19,3.19,3.76,3.19C67.61,135.74,67.97,131.76,71.99,132.6z M91.5,81.94
		c1.61-2.21-1.93-3.12-0.69-4.98c1.61-2.41-0.43-2.68-1.89-2.85c-1.24-0.14-3.17-1.45-3.66,0.91c-0.36,1.7,0.18,5.15,0.61,4.86
		C88.96,77.82,89.34,82.01,91.5,81.94z M76.75,164.08c0.79,0.02,5.4-5.36,5.05-6.06c-1.54-3.15-3.18,2.4-5.61-0.11
		c-1.22-1.25-2,2.03-2.39,3.68C73.14,164.39,75.18,163.94,76.75,164.08z M172.44,164.3c0.63-0.82,2.86,0.8,2.96-2.31
		c0.19-6.03-5.37-2.29-7.23-4.69c-0.28-0.36-1.08,1.16-1,1.17C170.59,158.97,167.28,165.07,172.44,164.3z M145.34,75
		c2.47-0.37,1.6-4.2,5-3.75c1.28,0.17,0.03-2.74-0.29-4.23c-0.35-1.66-1.44-1.58-2.59-1.01c-1.4,0.7-4.11,2.26-3.22,2.86
		C147.14,70.81,143.59,73.1,145.34,75z M104.19,176.48c0.36-0.8,0.61-1.69-0.51-2c-1.01-0.28-1.34,0.59-1.71,1.36
		c-0.42,0.89-0.29,2.39-1.81,2.26c-3.25-0.27-2.04,1.53-1.48,3.03c0.55,1.49,0.55,2.92,3.27,2.25
		C107.07,182.13,102.87,178.55,104.19,176.48z M157.01,167.61c-0.35,1.78,1.6,3.42,0.64,5.69c-0.66,1.58,2.22,1.81,3.72,2.27
		c1.25,0.38,2.41,0.21,2.51-1.39c0.09-1.58-0.2-4.68-0.54-4.45C160.02,172.03,159.87,166.77,157.01,167.61z M174.05,145.93
		c1.13,1.72,4.04,1.35,3.77,4.44c-0.11,1.26,2.75,0.35,4.28-0.15c1.35-0.44,1.91-1.1,1.19-2.54c-0.72-1.43-2.23-4.14-2.74-3.38
		C178.65,147.14,176.12,143.8,174.05,145.93z M101.33,65.81c-2.62-0.09-3.15,2.98-2.77,3.66c1.17,2.07,3.23,5.11,4.91,5.09
		c2.99-0.04-0.91-3.93,1.71-5.77C106.01,68.2,103.1,66.46,101.33,65.81z M136.36,182.92c-4.76,1.13-2.42-4.51-4.54-4.36
		c-2.27,0.16-0.46,4.41-2.9,6.11c-0.53,0.37,2.08,3.16,3.68,3.17C134.49,187.84,135.08,185.53,136.36,182.92z M71.85,103.88
		c1.02,0.14,2.37,1.64,2.88-0.22c0.33-1.21-1.07-1.36-1.91-1.78c-0.67-0.33-1.71-0.49-1.51-1.53c0.56-2.98-1.27-2.23-2.75-1.74
		c-1.5,0.49-3.53,0.86-2.53,3.23c0.53,1.27,0.43,3.56,3.03,2.68C69.95,104.21,70.92,104.09,71.85,103.88z M177.91,131.9
		c0.98,1.94,3.72,0.88,4.43,3.5c0.46,1.69,2.81,0.14,4.18-0.74c1.38-0.88,1.76-1.86,0.52-3.18c-1.1-1.18-3.24-3.41-3.68-2.24
		C182.21,132.29,179.53,130.06,177.91,131.9z M92.15,167.61c-3.07-1-2.89,2.98-4.95,2.4c-4.05-1.14-1.89,1.99-2.11,3.12
		c-0.33,1.7,0.41,2.56,2.57,2.29C93.27,174.72,89.42,169.66,92.15,167.61z M81.79,91.67c0.49-2.39-3.15-2.29-2.24-4.49
		c1.27-3.07-1.28-2.06-2.36-2.1c-1.29-0.05-3.28-0.51-3.25,1.84c0.03,1.74,1,5.05,1.74,4.35C78.29,88.76,79.65,93.02,81.79,91.67z
		 M132.33,71.57c1.05-1.72,0.64-4.09,3.28-4.76c1.41-0.36-0.45-3.05-1.41-4.52c-0.92-1.41-1.91-0.97-2.82-0.09
		c-1.11,1.08-3.44,3.15-2.15,3.64C132.28,67,129.97,69.59,132.33,71.57z M157.41,81.83c2.4,0.66,2.5-2.87,4.37-2.29
		c3.19,0.99,2.3-1.26,2.29-2.66c0-1.37,0.31-3.14-2.13-2.92c-1.88,0.17-4.61,1.99-4.33,2.18C160.85,78.35,156.48,79.76,157.41,81.83
		z"/>
	<path fill="#626365" d="M601,148c-3.88,3.56-8.54,1.94-12.86,1.68c-2.57-0.16-2.31-2.83-2.31-4.83c0-11.83,0.01-23.66-0.01-35.49
		c-0.01-8.15-1.07-9.19-9.18-9.2c-6.5,0-13,0.21-19.49-0.08c-3.83-0.17-5.18,0.83-5.09,4.92c0.27,12.99-0.05,25.99,0.18,38.98
		c0.08,4.62-1.58,6.48-6.11,6.04c-1.65-0.16-3.33-0.03-5-0.03c-2.88-0.01-4.29-1.49-4.29-4.33c-0.01-18.83-0.01-37.65,0-56.48
		c0-3.01,1.77-4.04,4.52-4.04c14.49,0.01,28.99-0.1,43.48,0.05c8.54,0.09,13.63,4.92,16.15,12.8C601,114.67,601,131.33,601,148z"/>
	<path fill="#96C550" d="M122,247c0.58-3.42,0.34-6.83,0.1-10.21c-1.8-0.37-2.13,1.69-3.66,1.7c-0.9-1.28-0.83-2.97-0.27-4.08
		c1.46-2.91,3.48-5.87,6.62-6.75c2.09-0.59,6.22,7.21,6.04,10.75c-1.73,0.56-2.02-2.11-3.92-1.59c-0.26,3.35-0.48,6.76,0.09,10.18
		C125.33,247,123.67,247,122,247z"/>
	<path fill="#626365" d="M601,182c-1.35-0.36-1.5,0.95-2.16,1.54c-4.06,3.6-9.52,3.5-12.91-0.24c-3.08-3.4-2.82-9.13,0.56-12.13
		c3.76-3.35,9.2-2.87,12.86,1.12c0.53,0.58,1.1,1.14,1.66,1.7C601,176.67,601,179.33,601,182z M588.99,183.01
		c2.74,2.32,5.23,3.04,6.98-1.08c2.39,0.71,2.76-1.08,3.15-2.65c0.72-2.99-0.07-5.62-2.62-7.36c-2.4-1.64-5.03-2.23-7.5,0.08
		C584.22,175.5,584.22,179.82,588.99,183.01z"/>
	<path fill="#626365" d="M310.18,149.95c-4.99,0-9.99,0.18-14.98-0.04c-10.37-0.45-15.68-4.68-16.59-14.9
		c-1.07-11.9-1.28-23.96,0.17-35.86c1.13-9.29,6.47-13.71,15.89-13.94c10.31-0.25,20.64-0.25,30.96,0
		c10.17,0.24,15.64,5.5,16.46,15.66c0.91,11.28,0.88,22.6-0.02,33.88c-0.76,9.42-5.87,14.44-15.42,15.06
		c-5.47,0.35-10.98,0.06-16.47,0.06C310.18,149.9,310.18,149.92,310.18,149.95z M293.87,117.49c0,3.99,0.05,7.99-0.02,11.98
		c-0.06,3.55,1.85,5.35,5.14,5.41c7.65,0.14,15.31,0.16,22.96-0.02c3.31-0.08,5.08-2.06,5.06-5.54c-0.05-7.82-0.07-15.64,0.01-23.46
		c0.04-3.79-1.96-5.58-5.46-5.64c-7.49-0.12-14.98-0.12-22.46,0.01c-3.59,0.06-5.39,2.04-5.27,5.78
		C293.96,109.83,293.86,113.66,293.87,117.49z"/>
	<path fill="#626365" d="M453.15,117c0-8.83,0.1-17.66-0.05-26.49c-0.07-3.84,1.41-5.42,5.28-5.4c16.16,0.09,32.32,0.09,48.48,0
		c3.89-0.02,5.53,1.61,5.16,5.44c-0.11,1.16-0.13,2.34,0,3.49c0.52,4.51-1.32,6.28-5.95,6.19c-10.99-0.22-22,0.16-32.98-0.18
		c-4.39-0.14-4.21,2.06-4.32,5.14c-0.12,3.37,0.3,5.17,4.46,4.91c6.47-0.41,12.99-0.05,19.49-0.13c3.52-0.04,5.35,1.43,5.13,5.07
		c-0.01,0.17,0,0.33,0,0.5c0.24,9.46,0.24,9.46-9.08,9.46c-5.5,0-11.01,0.24-16.49-0.07c-4.79-0.28-3.28,3-3.39,5.32
		c-0.12,2.36-0.86,4.93,3.39,4.83c11.16-0.27,22.33,0.06,33.49-0.16c4.51-0.09,6.61,1.4,6.11,6.04c-0.16,1.48-0.08,3-0.02,4.5
		c0.14,3.19-1.49,4.56-4.54,4.55c-16.49-0.01-32.99-0.01-49.48,0.01c-3.8,0-4.74-2.19-4.71-5.52
		C453.2,135.33,453.15,126.16,453.15,117z"/>
	<path fill="#626365" d="M368.15,117.22c0-8.66,0.13-17.31-0.06-25.96c-0.1-4.47,1.52-6.26,6.13-6.18
		c12.15,0.21,24.3,0.07,36.45,0.07c16.09,0,22.03,6.27,21.17,22.3c-0.64,11.8-6.6,17.5-18.43,17.55
		c-8.65,0.03-17.31,0.11-25.96-0.05c-2.83-0.05-3.77,0.78-3.66,3.64c0.21,5.32-0.04,10.65,0.09,15.98c0.09,3.75-1.39,5.68-5.28,5.46
		c-0.83-0.05-1.66-0.01-2.5-0.01c-7.57,0-7.95-0.38-7.96-7.82C368.14,133.87,368.15,125.55,368.15,117.22z M398.62,109.99
		c3.83,0,7.65,0.02,11.48-0.01c3.3-0.02,6.01-0.77,6.04-4.89c0.03-4.19-2.86-4.86-6.05-4.9c-7.65-0.08-15.31,0.12-22.95-0.08
		c-4.8-0.12-3.03,3.27-3.24,5.52c-0.22,2.27-0.6,4.73,3.26,4.42C390.95,109.75,394.8,109.99,398.62,109.99z"/>
	<path fill="#626365" d="M325.76,185.84c0-0.83-0.08-1.67,0.02-2.49c0.31-2.57-1.04-7.09,0.84-7.33c3.45-0.45,7.45-2.67,10.86,0.04
		c2,1.59,3.31,0.26,4.93-0.35c5.85-2.2,9.45,0.2,9.59,6.44c0.08,3.99,0.06,7.98-0.02,11.97c-0.02,0.97,0.59,2.67-1.34,2.53
		c-1.27-0.1-1.19-1.4-1.2-2.38c-0.02-3.99-0.08-7.98,0-11.97c0.05-2.96-1.02-5.05-4.2-4.85c-2.95,0.18-5.52,1.07-5.28,5.06
		c0.24,3.98,0.07,7.98,0.03,11.97c-0.01,0.91,0.23,2.25-1.23,2.2c-1.3-0.04-1.32-1.28-1.32-2.27c-0.03-4.16-0.07-8.31-0.01-12.47
		c0.05-2.84-1.25-4.66-4.05-4.5c-2.65,0.15-5.34,0.8-5.17,4.61c0.17,3.82,0.1,7.65-0.01,11.47c-0.03,1.14,0.74,3.2-1.29,3.09
		c-1.84-0.1-1.05-2.1-1.11-3.29C325.68,190.84,325.76,188.34,325.76,185.84z"/>
	<path fill="#626365" d="M360.41,190.38c0-2.33-0.38-4.73,0.1-6.96c0.55-2.61-2.3-7.34,2.05-7.58c12.02-0.68,13.62,0.72,14.02,8.48
		c0.47,9.16-2.32,12.45-11.39,12.65c-2.85,0.06-2.1,1.67-2.38,3.19c-0.3,1.64,1.04,4.7-1.03,4.63c-2.63-0.08-1.15-3.19-1.29-4.93
		C360.23,196.71,360.41,193.54,360.41,190.38z M373.99,185.71c-0.02-7.25-4-10.43-9.34-7.46c-2.25,1.25-2.79,14.75-0.58,16.08
		c0.67,0.41,1.56,0.55,2.37,0.63C371.41,195.45,374.01,192.25,373.99,185.71z"/>
	<path fill="#626365" d="M451.15,183.15c0-2.32-0.24-4.67,0.06-6.95c0.36-2.77-2.12-6.96,3.77-7.22c7.47-0.33,11.17,1.33,12.26,6.34
		c1.04,4.8-1.16,8.55-5.85,9.97c-0.48,0.14-0.99,0.43-1.44,0.36c-5.97-0.92-6.72,2.46-6.18,7.21c0.14,1.26,0.85,3.68-1.17,3.68
		c-2.48,0-1.34-2.53-1.41-3.95C451.03,189.45,451.15,186.3,451.15,183.15z M453.94,177.34c0.94,1.73-2.52,6.32,3.46,6.1
		c4.76-0.18,7.46-2.2,7.38-6.13c-0.08-4.34-2.68-5.9-6.74-6.24C453.22,170.67,453.7,173.75,453.94,177.34z"/>
	<path fill="#626365" d="M430.2,197.21c-6.78,0.01-10.03-3.94-9.77-11.36c0.26-7.45,3.65-11.37,9.38-10.83
		c4.68,0.45,7.96,5.62,6.41,9.93c-0.46,1.29-1.34,1.26-2.32,1.27c-1.83,0.01-3.69-0.22-5.47,0.07c-1.81,0.3-4.87-1.57-5.15,1.77
		c-0.26,3.13,1.24,5.84,4.74,6.7c1.48,0.36,2.95,0.21,4.42-0.24c1.02-0.31,2.56-1.31,2.96,0.26c0.45,1.73-1.49,1.8-2.65,2.13
		C431.81,197.19,430.78,197.16,430.2,197.21z M428.5,184.46c1.6-1.45,5.11,1.71,5.31-2.33c0.15-3.02-1.81-4.99-4.94-5.02
		c-3.37-0.04-5.46,2.2-5.41,5.24C423.52,186.03,426.88,183.19,428.5,184.46z"/>
	<path fill="#626365" d="M531.23,197.21c-5.61,0.01-8.39-2.31-9.37-7.43c-0.68-3.52-0.46-6.98,0.95-10.25
		c1.61-3.72,4.72-5.02,8.57-4.43c3.88,0.59,5.53,3.14,5.87,6.93c0.27,3.05-0.4,4.81-3.94,4.24c-1.3-0.21-2.69-0.23-3.98,0.01
		c-1.73,0.33-4.55-1.33-4.94,1.66c-0.39,2.97,0.92,5.53,4.11,6.62c1.83,0.63,3.59,0.43,5.37-0.19c0.91-0.32,2.18-0.85,2.57,0.38
		c0.51,1.61-1.16,1.76-2.16,2.06C533.18,197.14,531.98,197.13,531.23,197.21z M529.74,184.43c1.66-1.22,4.87,1.57,5.1-2.14
		c0.18-2.98-1.6-5.05-4.77-5.19c-3.4-0.15-5.54,2.03-5.52,5.07C524.58,186.11,528.18,183.02,529.74,184.43z"/>
	<path fill="#626365" d="M504.96,186.24c0.16,3.99-0.56,7.65-4.31,9.88c-5.08,3.03-11.12,0.54-12.54-5.18
		c-0.68-2.74-0.76-5.53-0.19-8.35c1.01-4.96,4.18-7.71,8.88-7.59c4.7,0.12,7.63,3.08,8.14,8.26
		C505.04,184.24,504.96,185.24,504.96,186.24z M502.44,186.23c-0.18-3.14,0.1-6.64-3.59-8.41c-2.77-1.33-5.19-0.59-7.05,1.72
		c-2.22,2.75-2.25,10.38-0.09,13.24c1.87,2.47,4.48,2.84,7.09,1.66C502.23,192.89,502.33,189.58,502.44,186.23z"/>
	<path fill="#626365" d="M398.58,186.47c0.01,1.66,0.1,3.33-0.02,4.98c-0.17,2.44,1.39,4.81-3.92,4.89
		c-11.24,0.17-11.23,0.98-11.23-10.38c0-2.82,0.01-5.64,0.01-8.46c0-0.88,0.2-1.87,1.13-1.95c1.52-0.14,1.25,1.21,1.26,2.1
		c0.05,3.98,0.06,7.97,0.02,11.95c-0.03,3.01,0.71,5.49,4.32,5.21c3.21-0.25,6.3-0.78,5.9-5.44c-0.34-3.95-0.07-7.96-0.05-11.94
		c0-0.83,0.06-1.82,1.1-1.93c1.45-0.15,1.43,1.06,1.44,2.02C398.6,180.49,398.58,183.48,398.58,186.47z"/>
	<path fill="#626365" d="M301.12,186.77c0.03-4.35,0.72-7.89,3.96-10.3c4.6-3.42,11.15-1.29,12.9,4.2c0.96,3.03,1.11,6.11,0.34,9.29
		c-1.12,4.64-3.77,7.24-8.65,7.23c-4.65-0.01-7.32-2.45-8.27-7.55C301.19,188.51,301.17,187.34,301.12,186.77z M303.85,186.08
		c-0.02,4.25,0.58,6.37,2.46,7.72c2.65,1.9,5.37,1.68,7.73-0.42c2.78-2.49,2.82-11.84,0.08-14.44c-2.32-2.2-5.13-2.41-7.7-0.53
		C303.86,180.26,303.87,183.23,303.85,186.08z"/>
	<path fill="#626365" d="M281.01,182.94c-0.01,10.12,3.14,12.67,13.56,10.92c0.82-0.14,1.66-0.65,2.09,0.39
		c0.55,1.35-0.6,1.6-1.5,2.04c-6.74,3.25-14.3-0.12-16.27-7.28c-1.13-4.11-1.13-8.23,0.1-12.29c1.95-6.46,8.96-9.85,15.17-7.39
		c0.86,0.34,2.15,0.64,1.69,1.95c-0.47,1.36-1.64,0.58-2.54,0.46C284.2,170.5,281.02,173.39,281.01,182.94z"/>
	<path fill="#96C550" d="M122.62,12.34c0-2.28,0.01-4.72,0-7.15c-0.01-1.33,0.38-2.22,1.95-2.21c1.45,0.01,2.11,0.68,2.11,2.1
		c-0.01,2.46,0,4.92,0,7.34c2.12,0.51,2.54-1.62,4.32-1.94c0.63,1.72,0.81,3.61-0.16,5.08c-1.36,2.05-3.2,3.77-4.85,5.61
		c-0.61,0.68-1.24,0.77-2.15,0.3c-2.99-1.55-5.75-6.8-5.46-10.69C120.05,10.39,120.35,13.02,122.62,12.34z"/>
	<path fill="#96C550" d="M221.84,71.04c2.25,0.83,3.4,1.25,4.84,1.78c-0.53,0.62-0.74,1.05-1.09,1.26
		c-1.38,0.85-2.66,2.14-4.52,1.46c-2.51-0.91-6.03-0.15-7.39-2.83c-1.24-2.44,3.22-8.9,6.9-10.6c-0.22,1.57-0.42,2.93-0.76,5.28
		c2.89-1.65,5.13-2.85,7.29-4.18c1.42-0.87,2.3-0.77,3.17,0.81c0.85,1.55-0.05,2.08-1.09,2.7
		C227.07,67.97,224.94,69.21,221.84,71.04z"/>
	<path fill="#96C550" d="M73.01,22.64c2.34,3.24,2.42,11.63,0.26,12.93c-1.91,1.15-9.3-2.9-10.92-6.01
		c1.12-1.59,2.81,0.31,4.15-0.72c-0.09-0.38-0.1-0.86-0.3-1.23c-0.86-1.62-1.76-3.21-2.67-4.8c-0.77-1.36-1.52-2.73,0.4-3.79
		c1.82-1.01,2.28,0.59,2.98,1.63c0.55,0.83,0.93,1.78,1.51,2.58c0.74,1.02,0.94,2.88,2.46,2.8C72.61,25.93,71.57,23.68,73.01,22.64z
		"/>
	<path fill="#96C550" d="M10.41,130.56c0.78-1.05,1.52-2.05,2.41-3.25c-0.62-0.25-1.02-0.54-1.43-0.55
		c-2.16-0.06-4.32-0.08-6.48-0.07c-1.39,0-2.19-0.57-2.25-2.03c-0.06-1.52,0.78-2.04,2.17-2.04c2.47,0.02,4.95,0,7.32,0
		c1.12-2.37-2.05-2.61-1.58-4.36c5.39-1.81,7.59,2.74,10.71,5.44c0.86,0.74,0.51,1.58-0.18,2.11
		C17.98,128.19,15.82,132.67,10.41,130.56z"/>
	<path fill="#96C550" d="M226.67,176.6c-1.37,0.53-2.72,1.05-4.89,1.89c2.62,1.54,4.76,2.79,6.89,4.06
		c1.12,0.66,2.44,1.14,1.48,2.98c-1.08,2.07-2.3,1.17-3.66,0.48c-2-1.02-3.65-2.8-6.02-2.98c-1.17,1.43,0.33,2.89-0.04,4.33
		c-5.85-1.04-5.44-6.1-6.88-9.9c-0.37-0.99,0.21-1.69,1.07-1.85C218.66,174.81,222.87,172.05,226.67,176.6z"/>
	<path fill="#96C550" d="M100.8,236.76c-0.93-1.32-1.71-2.44-2.99-4.28c-0.86,3.05-1.44,5.41-2.21,7.7c-0.37,1.1-0.33,2.79-2.5,2.19
		c-2.24-0.62-1.74-1.92-1.28-3.43c0.48-1.59,0.88-3.2,1.2-4.83c0.18-0.93,0.43-2.1-1.28-1.82c-0.92,0.15-2.19,1.84-2.61-0.27
		c-0.2-1,0.18-2.6,0.9-3.22c2.01-1.7,4.33-3.04,6.53-4.5c0.85-0.56,1.76-0.35,2.14,0.46C100.41,228.43,104.26,231.73,100.8,236.76z"
		/>
	<path fill="#96C550" d="M29.17,65.85c0.14-1.12-0.92-2.63,0.17-3.27c1.29-0.76,2.55,0.6,3.32,1.47c2.04,2.32,2.04,5.52,3.06,8.29
		c0.23,0.63-0.24,1.34-0.99,1.46c-4.03,0.62-8.22,3.49-12.01-0.72c0.45-1.83,3.29-0.37,3.28-2.27c-0.01-1.51-1.79-1.72-2.84-2.43
		c-0.96-0.65-2-1.19-3.01-1.75c-1.1-0.62-1.96-1.3-1.14-2.73c0.72-1.25,1.7-1.44,2.93-0.81c2.21,1.14,4.42,2.28,6.63,3.41
		c0.36,0.29,0.74,0.63,1.07,0.03C29.69,66.41,29.33,66.08,29.17,65.85z"/>
	<path fill="#96C550" d="M176.35,22.66c1.31,1.07,0.55,3.23,2.44,4.28c1.21-2.12,2.43-4.26,3.66-6.39c0.72-1.24,1.53-2.16,3.17-1.26
		c1.76,0.96,0.99,2.05,0.37,3.28c-1.01,2.01-2.75,3.69-2.98,6.04c1.34,1.44,2.9-0.54,4.2,0.46c-1.1,5.54-6.13,5.24-9.93,6.71
		c-0.9,0.35-1.72-0.18-1.86-1.11C174.8,30.62,172,26.38,176.35,22.66z"/>
	<path fill="#96C550" d="M12.47,100.88c1.35-0.98,2.4-1.73,3.45-2.49c-1.16-1.87-3.15-1.26-4.56-2.05c-1.65-0.92-5.2-0.01-4.24-3.43
		c0.88-3.17,3.31-0.17,5-0.56c1.61-0.37,5.85,3.72,4.1-2.42c-0.05-0.19,0.55-0.81,0.86-0.82c4.72-0.09,5.51,4.17,7.5,7.01
		c1.73,2.47-0.72,3.05-2.2,3.91C19.38,101.77,16.38,103.8,12.47,100.88z"/>
	<path fill="#96C550" d="M97.7,16.01c2.13-0.55,1.85-2.69,3.57-2.78c3.18,4.55-0.84,7.64-2.26,11.23c-0.37,0.93-1.28,1.25-2.03,0.66
		c-3.04-2.43-8.13-3.04-7.83-8.57c4.43,0.51,4.5,0.44,3.54-3.59c-0.19-0.81-0.55-1.59-0.66-2.4c-0.18-1.33-1.37-3.05,1.14-3.53
		c2.22-0.42,2.36,1.33,2.78,2.71C96.56,11.76,97.09,13.82,97.7,16.01z"/>
	<path fill="#96C550" d="M67.2,219.76c-2.22,0.36-3.46,0.56-4.92,0.79c0-0.58-0.13-1.07,0.02-1.45c1.74-4.58,6.29-4.21,9.88-5.52
		c0.75-0.27,1.4,0.22,1.5,0.88c0.6,4.03,3.45,8.23-1.03,12.26c-0.56-1.47-1.05-2.75-1.53-4.01c-0.44,0.08-0.84,0.04-0.93,0.19
		c-1.21,1.97-2.39,3.96-3.57,5.95c-0.68,1.15-1.17,2.33-2.99,1.34c-1.8-0.97-1.23-1.99-0.53-3.21
		C64.33,224.86,65.53,222.71,67.2,219.76z"/>
	<path fill="#96C550" d="M236.88,148.49c-1.47,0.95-2.55,1.66-3.85,2.5c0.47,0.44,0.72,0.87,1.08,0.98c1.9,0.6,3.83,1.11,5.74,1.66
		c1.4,0.4,3.1,0.46,2.32,2.81c-0.65,1.96-1.84,1.42-3.15,1.02c-0.95-0.29-1.93-0.68-2.9-0.67c-1.47,0.02-5.5-3.72-3.43,2.19
		c0.39,1.13-2.26,1.72-3.83,0.43c-2.22-1.82-3.25-4.57-4.73-6.96c-0.39-0.64-0.3-1.41,0.36-1.73
		C228.19,148.87,231.51,145.15,236.88,148.49z"/>
	<path fill="#96C550" d="M29.47,186.85c-1.23-1.27,0.32-2.89-1.13-3.9c-2.32,0.4-4.11,1.98-6.12,3.08
		c-1.29,0.71-2.33,1.22-3.26-0.51c-0.93-1.73,0.11-2.34,1.37-3.04c2.16-1.21,4.27-2.52,6.4-3.79c-0.93-1.94-3.13-1.08-4.27-2.33
		c3.66-4.42,7.94-1.61,12.01-1.03c0.69,0.1,1.4,0.73,1.15,1.36C34.15,180.33,34.85,185.28,29.47,186.85z"/>
	<path fill="#96C550" d="M201.64,204.86c-1.01,1.86,0.13,3.5-1.01,4.81c-4.83-2.15-3.43-6.52-3.64-10.3
		c-0.07-1.35,0.43-2.28,1.95-2.23c3.85,0.13,8.14-1.02,10.6,3.51c-0.46,2-2.79,0.3-3.56,1.75c-0.04,1.1,1.04,1.59,1.44,2.44
		c0.97,2.06,5.99,3.02,2.91,5.9c-2.87,2.67-3.75-2.25-5.83-3.28C203.53,206.97,202.82,205.96,201.64,204.86z"/>
	<path fill="#96C550" d="M151.45,233.27c-2.15,0.42-1.78,2.69-3.52,3.2c-3.04-4.66,0.73-8,2.32-11.71c0.15-0.36,0.77-0.68,1.21-0.73
		c1.76-0.22,8.23,5.21,8.39,7.03c0.08,0.89,0.36,2.46-1.21,1.85c-5.31-2.06-2.09,1.85-2.21,3.18c-0.09,0.93,0.4,1.93,0.68,2.88
		c0.43,1.44,1.14,2.81-1.2,3.42c-2.56,0.66-2.2-1.47-2.62-2.61C152.52,237.67,152.05,235.44,151.45,233.27z"/>
	<path fill="#96C550" d="M232.44,93.46c2.42-0.5,4.84-1.03,7.27-1.49c1-0.19,1.96-0.18,2.34,1.13c0.41,1.41-0.1,2.25-1.43,2.65
		c-2.49,0.76-5.16,0.99-7.7,2.64c1.31,0.99,2.44,1.84,3.68,2.77c-4.66,3.28-7.86-0.17-11.37-1.82c-1.04-0.49-1.69-1.37-0.99-2.37
		c2.23-3.21,3.19-7.92,8.53-7.77c0.81,1.6-0.84,2.46-0.86,3.72c-0.2,0.19-0.59,0.53-0.57,0.56
		C231.7,93.96,232.08,93.81,232.44,93.46z"/>
	<path fill="#96C550" d="M148.19,12.79c1.6,0.58,1.27,2.81,3.4,3.23c0.73-2.46,1.52-4.91,2.17-7.39c0.38-1.46,1.23-1.83,2.57-1.54
		c1.58,0.34,1.6,1.31,1.22,2.63c-0.68,2.38-1.23,4.79-1.86,7.29c1.72,1.13,2.69-1.17,4.21-0.53c1.11,5.51-4.04,6-6.85,8.31
		c-1.03,0.85-2.22,0.71-2.87-0.65C148.46,20.55,145.1,17.23,148.19,12.79z"/>
	<path fill="#96C550" d="M16.57,151.44c-1.53-1.31-2.47-2.12-3.92-3.37c0.57-0.29,0.98-0.54,1.42-0.71
		c4.31-1.69,7.82,0.89,10.3,3.33c2.18,2.15-1.52,4.43-2.52,6.68c-0.89,1.99-2.76,2.8-4.96,2.62c-0.26-0.02-0.73-0.4-0.71-0.53
		c1.59-7.79-3.47-1.44-5.14-2.31c-1.12-0.59-3.25,2-4-0.85c-0.74-2.82,1.74-2.68,3.34-3.19C12.11,152.55,13.89,152.15,16.57,151.44z
		"/>
	<path fill="#96C550" d="M235.72,126.88c1.34,1.72,2.1,2.69,2.93,3.76c-1.83,0.83-3.43,0.63-5.03,0.22
		c-0.3-0.08-0.63-0.28-0.82-0.53c-1.62-2.16-5.33-2.92-5.18-6.08c0.13-2.73,7.22-6.16,10.88-5.76c0.05,1.92-2.04,2.42-3.01,4.48
		c2.95,0,5.51,0,8.07,0c1.43,0,2.71,0.1,2.56,2.09c-0.12,1.57-1.13,1.83-2.4,1.83C241.4,126.88,239.08,126.88,235.72,126.88z"/>
	<path fill="#96C550" d="M178.59,222.45c-1.68,0.95-1.3,2.75-2.01,4.06c-2.81-2.68-3.53-9.66-1.06-11.91
		c2.15-1.96,4.34,0.28,6.49,0.65c1.77,0.3,3.6,1.01,3.98,3.2c0.07,0.4-0.21,1.21-0.42,1.25c-6.92,1.15-0.43,3.78-0.56,5.64
		c-0.12,1.62,3.44,3.25,0.25,4.89c-3.06,1.57-2.81-1.9-3.91-3.12C180.17,225.78,179.49,224.02,178.59,222.45z"/>
	<path fill="#96C550" d="M39.73,200.56c2.3-2.83,10-4.86,11.8-3.12c1.81,1.75-0.01,9.42-2.91,12.03c-1.84-0.94,0.21-3.1-2.35-5.25
		c-1.59,2.1-3.13,4.24-4.8,6.27c-0.69,0.84-1.54,1.86-2.86,0.56c-1.23-1.22-1.17-2.28,0.08-3.34c1.9-1.61,3.83-3.19,5.55-4.61
		C43.02,200.24,40.7,201.99,39.73,200.56z"/>
	<path fill="#96C550" d="M200.67,39.74c0.35,1.61,0.62,2.81,0.91,4.16c0.58-0.19,1.13-0.21,1.43-0.49c1.46-1.35,2.87-2.75,4.26-4.16
		c1.13-1.14,2.19-2.07,3.72-0.49c1.49,1.55,0.16,2.44-0.78,3.22c-1.89,1.58-3.92,2.98-5.89,4.46c0.35,0.46,0.71,0.92,1.06,1.38
		c1.38,0.11,2.76,0.22,4.27,0.33c-2.33,3.3-8.87,5.41-11.68,3.91c-1.24-0.66-1.44-7.88-0.12-9.78
		C198.49,41.4,199.51,40.77,200.67,39.74z"/>
	<path fill="#626365" d="M409.15,170.15c0.47,3.88,2.26,6.02,6.51,6.01c-2.95,1.51-6.4,1.88-5.52,6.4c0.62,3.21,0.02,6.63,0.41,9.9
		c0.27,2.25,2.17,2.68,4.21,2.18c0.9-0.22,1.72-0.15,1.81,0.95c0.09,1.08-0.83,1.24-1.64,1.46c-3.84,1.06-6.66-0.82-6.88-4.84
		c-0.18-3.31-0.04-6.63-0.05-9.95c0-1,0.41-2.47-0.09-2.91C403.58,175.55,409.63,173.49,409.15,170.15z"/>
	<path fill="#626365" d="M552.03,197.21c-6.69,0.11-10.03-4.07-9.61-11.75c0.41-7.61,4.28-11.32,10.84-10.37
		c1.26,0.18,3.24,0.18,3.04,1.76c-0.26,2.05-2.09,0.79-3.23,0.61c-2.87-0.46-5.48,0-6.82,2.77c-1.92,3.95-1.81,8.12,0.17,12.02
		c1.42,2.79,4.16,2.82,6.95,2.62c1.17-0.09,3.14-2.36,3.48,0.37c0.22,1.73-2.1,1.63-3.54,1.85
		C552.83,197.15,552.33,197.18,552.03,197.21z"/>
	<path fill="#96C550" d="M39.46,48.22c1.65-0.15,3.22-0.3,4.8-0.45c0.4-0.44,0.8-0.89,1.2-1.33c-2.11-1.56-4.26-3.06-6.31-4.69
		c-1.09-0.87-1.87-1.96-0.39-3.27c1.27-1.13,2.17-0.3,2.91,0.59c1.68,2.01,3.25,4.12,4.86,6.18c0.42-0.33,0.83-0.66,1.25-0.98
		c0.13-1.57,0.27-3.14,0.41-4.82c5.35,2.31,3.57,6.96,3.94,10.81c0.11,1.14-0.57,2-1.77,1.85C46.51,51.65,41.81,53.61,39.46,48.22z"
		/>
	<path fill="#626365" d="M572.29,176.49c-5.83,0.18-5.77,3.71-5.46,7.54c0.16,1.98,0.06,3.99,0.02,5.98
		c-0.06,2.99,0.31,5.52,4.36,4.65c0.86-0.19,1.69-0.21,1.72,1.01c0.02,1.12-0.86,1.2-1.67,1.41c-3.81,0.97-6.48-0.74-6.87-5
		c-0.38-4.12,0.87-8.73-0.57-12.33c-1.27-3.17,0.4-5.22,0.43-7.76c0.01-0.48,0.64-1.13,1.14-1.39c0.72-0.38,1.47,0.17,1.35,0.86
		C565.98,175.65,569.31,175.42,572.29,176.49z"/>
	<path fill="#96C550" d="M47.94,63.48c0.55,1.29,0.97,2.25,1.53,3.54c1.48-1.84,2.73-3.38,3.95-4.93c0.74-0.94,1.5-1.16,2.52-0.37
		c1.14,0.88,0.59,1.66,0.04,2.53c-1.2,1.9-4.37,3.58-0.4,6.07c0.52,0.32-1.02,2.72-2.58,3.01c-2.28,0.42-5.6,2.17-6.71-0.05
		C44.85,70.42,43.87,66.5,47.94,63.48z M52.6,69.14c-0.08,0.07-0.2,0.16-0.31,0.26c0.1,0.11,0.2,0.29,0.31,0.3
		c0.11,0.01,0.22-0.17,0.34-0.26C52.83,69.34,52.72,69.24,52.6,69.14z"/>
	<path fill="#96C550" d="M112.97,215.21c-0.7-1.56-1.15-2.58-1.67-3.73c4.7-1.09,6.74,2.52,8.03,5.33c1.35,2.95-2.79,3.29-4.38,4.86
		c-1.28,1.26-4.5,0.16-4.44,0.04c3.12-6.9-3.41-2.42-4.75-3.97c-0.61-0.7-1.71-0.92-1.39-2.19c0.31-1.24,1.21-1.45,2.3-1.3
		C108.47,214.52,110.27,214.8,112.97,215.21z"/>
	<path fill="#96C550" d="M68.67,203.91c-3.76,0-4.03-0.41-3.17-3.84c0.48-1.93-1.51-2.27-2.38-3.33c-0.82-0.99-3.13-1.45-1.41-3.37
		c1.3-1.46,2.27,0.23,3.41,0.58c1.44,0.44,3.24,5.14,4.54-0.28c0.21-0.87,1.73,0.26,2.33,0.89c2.12,2.23,2.49,5.24,1.76,7.83
		C73.14,204.6,70.27,203.38,68.67,203.91z"/>
	<path fill="#96C550" d="M136.27,214.97c0.11-1.68-2.34-1.72-1.59-3.02c0.74-1.27,2.45-1.11,3.58-0.55c2.18,1.08,5.08,2.07,5.5,4.53
		c0.34,1.99-2.02,3.66-3.54,5.11c-2,1.9-3.13,1.44-3.66-1.23c-0.39-1.99-1.83-0.62-2.75-0.92c-1.69-0.56-4.63,1.98-5.02-0.98
		c-0.45-3.38,3.25-1.44,4.86-2.44C134.31,215.09,135.26,215.16,136.27,214.97z"/>
	<path fill="#96C550" d="M89.46,36.57c2.42,0.16,5.75-3.82,6.83-0.5c1.04,3.21-4.37,2.19-6.12,4.65c-0.39,1.45,2.86,0.96,2.04,2.43
		c-0.68,1.22-2.46,1.83-3.95,1.2c-2.15-0.91-6.02-0.58-5.89-3.36c0.13-2.79,1.29-6.34,4.99-7.37c2.53-0.7,1.12,1.09,1.18,1.95
		c-0.08,0.39-0.16,0.78-0.24,1.16C88.69,36.68,89.07,36.63,89.46,36.57z"/>
	<path fill="#96C550" d="M203.85,180.82c-0.02,3.56-0.79,4.05-3.68,2.71c-2-0.92-2.17,1.36-3.15,2.19
		c-1.12,0.96-1.71,3.43-3.73,1.73c-1.7-1.43,0.56-2.49,0.88-3.77c0.33-1.29,4.89-3.19-0.43-3.98c-1.07-0.16-0.31-1.07-0.04-1.52
		c1.83-3.06,5.13-2.89,7.92-2.95c3.01-0.06,1.41,3.02,2.12,4.6C203.88,180.13,203.82,180.49,203.85,180.82z"/>
	<path fill="#96C550" d="M34.3,136.9c1.14-0.98,1.95-1.67,2.75-2.36c0.34,0.29,0.67,0.43,0.74,0.65c1.15,3.67-1.13,6.52-3.47,8.12
		c-3.08,2.11-4.56-1.95-6.44-3.55c-0.74-0.63-3.35-3.84,1.53-3.81c1.94,0.01,0.52-2.78,0.63-4.27c0.09-1.31-0.36-2.81,1.65-2.91
		c1.76-0.09,1.53,1.48,1.75,2.48C33.82,132.96,33.98,134.72,34.3,136.9z"/>
	<path fill="#96C550" d="M215.11,136.13c-1.6,0.79-2.6,1.28-3.68,1.82c-1.16-4.22,2.19-5.55,4.37-7.62
		c2.34-2.22,3.11,0.12,4.03,1.42c1.19,1.69,3.09,3.2,2.25,5.7c-0.21,0.62,0.03,2.24-1.06,1.54c-4.85-3.13-2.49,1.69-3.16,2.88
		c-0.64,1.16-0.03,3.35-2.33,2.97c-2.32-0.39-1.24-2.3-1.17-3.61C214.43,139.77,214.77,138.32,215.11,136.13z"/>
	<path fill="#96C550" d="M36.95,96.19c-2.85-1.03-2.55-3.78-3.55-5.69c-0.91-1.74,0.16-3.2,0.89-4.68c5.6,4.32,3.76-2.51,5.57-3.83
		c0.85-0.62,1.35-0.67,2.13-0.27c0.88,0.44,1.17,1.15,0.82,2.05c-0.42,1.08-0.98,2.12-1.35,3.22c-0.25,0.75-0.28,1.58-0.41,2.37
		c1.81,0.25,4.32,0.04,2.25,3.08C41.77,94.68,38.99,94.76,36.95,96.19z"/>
	<path fill="#96C550" d="M45.56,182.79c1.49,0,2.59,0,4.29,0c-1.11-1.45-2.1-2.47-2.74-3.67c-0.72-1.36-3.52-2.66-0.97-4.41
		c2.16-1.48,2.31,1.74,3.62,2.16c1.15,0.37,1.47,5.69,3.72,0.81c0.11-0.23,0.94-0.42,1.18-0.26c3.09,2.1,1.25,5.1,1.35,7.75
		c0.08,2.21-1.22,2.22-2.95,1.98C50.12,186.74,47.01,186.78,45.56,182.79z"/>
	<path fill="#96C550" d="M113.44,30.5c2.32,0.75,6.51-2.36,6.78,1.07c0.28,3.53-4.57,1.48-6.94,2.83c-0.96,1.39,2.08,2.15,0.96,3.17
		c-1.05,0.96-2.95,0.97-4.2-0.03c-1.72-1.38-5.32-2.1-4.64-4.42c0.75-2.54,2.61-5.48,6.05-6c3.1-0.46,1.76,1.19,1.13,2.48
		c-0.12,0.35-0.25,0.7-0.38,1.04C112.62,30.6,113.03,30.55,113.44,30.5z"/>
	<path fill="#96C550" d="M163.79,34.9c-3.91,1.78-2.53,2.92,0.38,3.83c0.79,0.25,1.53,0.63,2.3,0.93c1.02,0.4,1.77,0.98,1.23,2.21
		c-0.48,1.09-1.37,1.37-2.45,0.94c-1.23-0.49-2.42-1.06-3.65-1.55c-0.76-0.3-1.6-0.61-2.27,0.16c-2.43,2.81-2.84,2.9-4.2-0.39
		c-0.72-1.74-3.59-4.01-1.09-5.53C156.68,33.9,160.04,31.5,163.79,34.9z"/>
	<path fill="#96C550" d="M33.24,160.71c3.88,0.27,3.88,0.27,2.58-3.17c-0.35-0.93-0.74-1.85-1.14-2.76
		c-0.43-0.96-0.07-1.52,0.82-1.97c1.12-0.57,1.88-0.32,2.36,0.83c0.82,1.94,1.63,3.89,2.44,5.81c1.62-0.4,1.33-1.98,2.27-2.88
		c3.48,2.92,1.02,5.95,0.17,8.88c-0.27,0.93-0.88,2.08-2.1,1.54C37.6,165.66,33.75,165.16,33.24,160.71z"/>
	<path fill="#96C550" d="M85.19,214.53c1.23-0.75,2.29-1.4,3.55-2.17c-2.01-0.87-3.85-1.61-5.63-2.48
		c-0.94-0.46-2.41-0.72-1.68-2.42c0.63-1.46,1.61-1.28,2.82-0.74c1.66,0.74,3.37,1.33,4.99,1.96c2.04-0.85-1.47-3.05,0.83-3.47
		c1.45-0.27,2.98,0.75,3.52,2.25c0.74,2.06,3.63,4.53,1.75,6.09C92.78,215.7,89.14,217.59,85.19,214.53z"/>
	<path fill="#626365" d="M514.57,188.52c0,3.48,0.08,6.95-0.02,10.43c-0.08,2.82-1.08,5.17-4.02,6.21c-0.83,0.29-1.7,0.51-2.16-0.39
		c-0.46-0.9,0.05-1.49,1-1.81c2.85-0.95,2.77-3.38,2.78-5.72c0.01-5.79-0.08-11.59,0.06-17.38c0.03-1.42-1.07-4.1,1.24-4.02
		c2.05,0.07,1,2.74,1.09,4.24c0.16,2.8,0.05,5.63,0.05,8.44C514.58,188.52,514.58,188.52,514.57,188.52z"/>
	<path fill="#96C550" d="M214.89,112.87c-1.61-0.22-1.82,2.69-3.31,1.4c-0.92-0.8-0.93-2.54-0.15-3.71c1.27-1.9,2.15-4.98,4.22-5.18
		c2.31-0.22,4.21,2.37,5.69,4.26c0.6,0.77,2.86,3.57-1.45,3.47c-2.17-0.05-0.7,2.37-0.92,3.64c-0.26,1.44,1.07,3.75-1.6,3.82
		c-2.18,0.05-1.29-2.27-1.75-3.51C215.18,115.87,215.16,114.5,214.89,112.87z"/>
	<path fill="#96C550" d="M69.4,52.13c0.42,1.87,3.11,0.35,2.86,2.08c-0.22,1.51-1.97,2.34-3.43,2.34c-2.24-0.01-5.11,0.41-6.49-1.32
		c-1.28-1.6-0.19-4.22,0.59-6.16c0.51-1.27,1.21-4.84,3.5-0.65c0.94,1.73,2.4-0.62,3.64-1.08c1.45-0.54,2.53-3.71,4.34-1.22
		c1.67,2.29-1.42,2.76-2.45,3.97C71.23,50.93,70.2,51.51,69.4,52.13z"/>
	<path fill="#96C550" d="M212.6,89.39c-0.36,2.52,4.18,5.78,0.57,7.03c-3.07,1.06-2.44-4.13-4.14-6.09
		c-0.11-0.12-0.17-0.28-0.29-0.49c-1.6,0.14-1.06,2.21-2.51,2.72c-2.92-3.36-1.03-6.87,0.79-9.35c1.86-2.52,4.28,0.51,6.32,1.33
		c1.72,0.69,2.8,2.22,1.96,4.27c-0.06,0.14-1.23-0.16-1.88-0.26c-0.36-0.08-0.72-0.16-1.09-0.24
		C212.43,88.66,212.51,89.03,212.6,89.39z"/>
	<path fill="#96C550" d="M182.36,49.62c1.65,1.36,3.18,2.63,4.72,3.88c0.9,0.73,1.23,1.51,0.42,2.53c-0.85,1.08-1.64,0.65-2.55,0.06
		c-2.17-1.41-3.84-4.7-7.19-1.29c-0.79,0.8-1.83-1.43-1.96-2.75c-0.2-1.98-2.16-4.62,0.23-5.78c2.03-0.98,4.82-1.57,7.26-0.4
		c0.83,0.4,2.03,1.25,2.03,1.91C185.32,49.43,183.3,48.27,182.36,49.62z"/>
	<path fill="#96C550" d="M160.47,212.28c-1.86,0.73-3.7,1.41-5.49,2.19c-1.1,0.48-1.8,0.36-2.39-0.78c-0.66-1.28,0.05-1.84,1-2.27
		c1.94-0.88,3.92-1.69,6.3-2.71c-1.33-0.86-2.35-1.51-3.44-2.22c3.33-2.98,6.5-1.18,9.21,0.34c3.24,1.81-0.04,3.87-0.52,5.77
		c-0.54,2.14-2.25,3.59-4.34,3.12C159.38,215.38,161.56,213.81,160.47,212.28z"/>
	<path fill="#96C550" d="M207.59,159.57c-0.77-0.01-2.05,0.81-2.22-0.02c-0.71-3.3,2-4.19,4.27-5.02c1.49-0.54,3.52-3.02,4.68,0.53
		c0.9,2.76,2.97,5.43,0.44,8.44c-1.65,0.21-1.13-2.15-2.8-2.3c-0.63,1.42-1.24,2.94-1.97,4.4c-0.55,1.11-0.79,2.85-2.68,2.17
		c-1.99-0.72-0.89-2.1-0.48-3.29c0.49-1.41,0.96-2.82,1.43-4.23c0.16-0.26,0.53-0.63,0.46-0.76
		C208.38,158.88,207.96,159.24,207.59,159.57z"/>
	<path fill="#96C550" d="M27.55,110c1.21,1.04,2.02,1.75,3.19,2.76c0.22-1.89,0.2-3.36,0.6-4.72c0.4-1.37-0.28-3.93,2.34-3.47
		c2.14,0.37,1.16,2.38,1.09,3.74c-0.08,1.46-0.37,2.92-0.57,4.32c1.56,0.64,2.1-1.04,3.43-1.04c1.47,4.01-1.96,5.31-4.1,7.26
		c-0.81,0.74-1.81,1.83-2.9,0.41C28.64,116.69,25.91,114.37,27.55,110z"/>
	<path fill="#96C550" d="M136.71,35.28c-0.02,0.92,1.54,2.17,0.57,2.5c-3.77,1.29-4.96-2.26-6.98-4.23
		c-1.79-1.74-0.79-2.8,0.82-3.81c0.98-0.61,1.93-1.27,2.86-1.96c1.34-0.99,3.1-1.3,4.17-0.37c1.81,1.58-1.68,1.87-1.22,3.35
		c1.94,0.35,3.89,0.68,5.84,1.04c0.95,0.17,2.09,0.16,2.05,1.57c-0.05,1.69-1.32,1.66-2.49,1.6c-1.65-0.08-3.29-0.24-4.94-0.37
		c-0.37-0.34-0.78-0.51-1.12-0.02C136.19,34.68,136.55,35.05,136.71,35.28z"/>
	<path fill="#96C550" d="M182.92,203.62c-0.9-1.33,0.51-2.57-0.74-3.72c-1.58,1.14-3.18,2.25-4.74,3.42
		c-1.08,0.82-2.08,1.05-2.94-0.23c-0.78-1.16,0.1-1.79,0.88-2.41c1.52-1.23,3.04-2.45,4.52-3.65c-0.76-1.61-2.34-0.52-3.18-1.63
		c1.86-3.65,5.2-2.24,8.09-2.24c1.25,0,2.38,0.46,2.25,2C186.78,198.4,187,201.92,182.92,203.62z"/>
	<path fill="#96C550" d="M203.17,64.83c-1.19,1.62-3.1,0.84-3.6,2.42c1.18,1.47,2.38,2.97,3.58,4.45c0.78,0.97,1.38,1.97,0.03,2.92
		c-1.37,0.97-2.1-0.11-2.82-1c-1.13-1.4-2.22-2.83-3.73-4.76c-0.47,1.5-0.81,2.59-1.2,3.82c-4.1-2.74-3.51-7.56-1.72-9.63
		C196.01,60.39,199.89,62.6,203.17,64.83z"/>
	<path fill="#626365" d="M474,185.96c-0.01-1.16-0.01-2.32-0.01-3.48c0-6.93,1-7.89,7.83-7.46c0.8,0.05,1.75-0.01,1.87,1.12
		c0.12,1.13-0.74,1.39-1.59,1.41c-5.06,0.14-5.77,3.36-5.55,7.49c0.17,3.31,0.03,6.63-0.01,9.94c-0.01,0.87-0.32,1.7-1.36,1.71
		c-1.16,0.01-1.14-1-1.16-1.78C473.98,191.93,474.01,188.95,474,185.96z"/>
	<path fill="#96C550" d="M72.38,66.31c2.77-0.51,3.87,1.09,3.22,3.68c-0.4,1.59,0.92,5.8-3.65,3.26c-1.42-0.79-2.09,1.2-3.1,1.91
		c-0.86,0.62-1.66,1.22-2.52,0.15c-0.67-0.84-0.02-1.49,0.5-2.14c1.09-1.34,2.97-2.03,0.9-4.64C66.82,67.38,70.14,66.28,72.38,66.31
		z"/>
	<path fill="#96C550" d="M124.75,50.91c-0.79-1.29-2.29-0.67-3.38-0.89c-1.14-0.22-3.06,0.68-3.04-1.4
		c0.01-1.57,1.65-1.25,2.75-1.31c1.43-0.09,2.96,0.32,2.66-2.22c-0.13-1.11,1.66-0.94,2.42-0.55c1.88,0.98,4.61,2.42,4.25,4.26
		c-0.48,2.43-2.79,4.49-5.81,4.5C122.86,53.3,123.21,52.4,124.75,50.91z"/>
	<path fill="#96C550" d="M53.34,145.43c0.17,0.98,0.35,1.95,0.52,2.93c0.15,0.86,0.15,1.73-0.85,2.06c-1.36,0.45-1.43-1.18-2-1.42
		c-1.43-0.61,1.64-6.44-3.18-2.77c-0.03,0.02-0.7-0.54-0.81-0.91c-0.76-2.57,0.82-4.48,2.04-6.42c0.78-1.25,1.81-0.28,2.56,0.2
		c1.97,1.28,4.64,2.15,3.78,5.41c-0.02,0.08-0.62,0.01-0.95,0.01c-0.38-0.09-0.76-0.19-1.15-0.29
		C53.31,144.64,53.33,145.03,53.34,145.43z"/>
	<path fill="#96C550" d="M54.33,161.5c0.87-1.22-0.06-3.85,1.85-4.07c1.96-0.23,4.26,0.31,5.83,1.97c0.5,0.53,1.36,1.71,0.55,2.05
		c-3.06,1.31-0.83,2.82-0.32,4.21c0.34,0.93,1.02,1.8-0.27,2.48c-0.91,0.48-1.36-0.22-2.04-0.71c-1.25-0.89-0.66-5.77-4.33-2.18
		C55.43,165.42,53.95,163.18,54.33,161.5z"/>
	<path fill="#96C550" d="M87.47,54.4c4.44,0.44,5.76,3.31,3.06,6.95c-0.73,0.99-1.88,2.83-3.26,0.42c-0.58-1.02-1.31-0.6-2.08-0.33
		c-1.26,0.44-2.78,2.6-3.76,0.82c-1.31-2.37,1.85-2.39,2.89-3.59c0.4-0.46,1.54-0.25,1-1.62C84.36,54.62,84.87,54.14,87.47,54.4z"/>
	<path fill="#96C550" d="M167.85,60.69c0.28,1.24-0.35,1.99-1.46,2.11c-2.03,0.23-4.13,1.77-6.12,0.03
		c-1.34-1.18,0.35-1.27,0.69-1.94c0.93-1.8-1.21-1.55-1.97-2.23c-0.93-0.83-2.75-1.25-1.79-2.92c0.85-1.48,2-0.12,2.98,0.25
		c0.76,0.29,1.56,0.96,2.24,0.85C166.09,56.27,167.8,57.4,167.85,60.69z"/>
	<path fill="#96C550" d="M66.18,176.62c-0.36-1.85,0.26-3.12,2.53-2.97c2.09,0.14,5.95,1.34,5.49,1.8c-3.41,3.43,1.13,4.3,1.57,6.33
		c0.16,0.72-0.55,1.59-1.02,1.33c-2.31-1.32-4.58-2.24-7.39-2.32C66.17,180.75,66.36,178.24,66.18,176.62z"/>
	<path fill="#96C550" d="M200.13,141.15c-0.11,0.96-0.77,2.38,0.18,2.77c2.88,1.19,2.01,2.77,0.38,3.91c-1.42,1-3,3.52-4.99,1.62
		c-1.42-1.35-3.55-4.68-2.11-5.43c2.74-1.42,3.85-3.46,5.07-5.8c0.08-0.15,1.05-0.08,1.36,0.18
		C200.99,139.22,200.36,140.22,200.13,141.15z"/>
	<path fill="#96C550" d="M144.27,48.74c-0.3-1.29,0.16-2.03,1.48-1.55c2.59,0.93,4.25,3.28,4.02,5.61c-0.2,2.08-3.07,2.62-5.1,3.13
		c-0.9,0.23-2.55-0.22-2.12-1.29c0.79-1.98-0.16-2.24-1.59-2.64c-1.16-0.33-3.13-0.21-2.72-2.05c0.41-1.85,2.16-0.79,3.36-0.74
		c0.65,0.03,1.3,0.23,1.94,0.35c0.37,0.04,0.74,0.09,1.11,0.14C144.52,49.37,144.4,49.06,144.27,48.74z"/>
	<path fill="#96C550" d="M179.73,75.71c-4.25-0.12-4.58-0.28-3.66-3.76c0.66-2.51-4.83-3.25-1.73-5.42
		c1.94-1.36,2.93,2.94,5.01,3.08c3.62,0.24,3.45,0.03,3.61,3.07C183.1,75.49,181.97,76.28,179.73,75.71z"/>
	<path fill="#96C550" d="M162.44,188.49c0.61-0.25,1.23-0.5,1.84-0.74c1.13-0.43,2.4-2.18,3.42-0.7c1.31,1.89-0.99,2.37-2.05,3.17
		c-1.09,0.82-2.25,1.09-0.67,2.87c1.06,1.2-1,1.7-1.86,1.78c-2.14,0.22-4.46-0.04-5.88-1.75c-1.08-1.31,1.86-6.43,3.77-6.74
		c0.85-0.14,0.71,0.87,0.82,1.46c-0.16,0.23-0.52,0.56-0.46,0.66C161.69,189.08,162.08,188.79,162.44,188.49z"/>
	<path fill="#96C550" d="M105.24,46.83c2.11,0.47,4.57,1.04,5.39,3.02c0.7,1.69-1.22,3.33-2.38,4.63c-0.85,0.94-2.33,2.91-3.31-0.4
		c-0.65-2.2-2.43-0.1-3.7-0.18c-0.79-0.05-1.73,0.4-2.13-0.62c-0.15-0.38-0.06-1.02,0.17-1.38c1.13-1.71,6.12-0.12,3.97-4.67
		C103.9,47.1,104.55,46.97,105.24,46.83z"/>
	<path fill="#96C550" d="M108.39,200.35c-1.28-0.16-2.53-1.1-3.89,1.08c-1.08,1.72-2.97,0.21-3.67-1.41
		c-0.62-1.42-3.2-2.74-0.81-4.55c1.28-0.98,2.87-1.91,4.42-2.09c2.28-0.27,2.47,1.25,1.6,3.02c1.03,0.43,2.04,0.89,3.08,1.29
		c0.91,0.35,2.08,0.5,1.8,1.87C110.63,200.97,109.58,200.71,108.39,200.35z"/>
	<path fill="#96C550" d="M63.44,86.63c-0.42,0.9,0.58,3.68-2.7,1.46c-1.42-0.97-1.6,1.74-2.48,2.64c-0.79,0.81-1.3,2.19-2.68,1.17
		c-1.1-0.8-0.19-1.74,0.19-2.6c0.59-1.31,1.95-2.2-0.27-3.92c-1.55-1.2,0.8-2.92,2.33-3.09c1.58-0.17,3.74-2.79,4.9,0.57
		C63.09,83.95,63.16,85.13,63.44,86.63z"/>
	<path fill="#96C550" d="M202.59,105.29c-0.53,2.1-1.28,4.78-3.08,5.29c-2.13,0.61-4.22-1.29-5.51-3.28
		c-0.35-0.54-0.98-1.91,0.1-2.06c3.47-0.49,1.47-2.48,1.27-3.96c-0.11-0.81-0.5-1.73,0.51-2.1c0.49-0.17,1.39,0.02,1.75,0.39
		c1.33,1.38-0.04,5.65,4.23,3.83C202.09,104.02,202.33,104.63,202.59,105.29z"/>
	<path fill="#96C550" d="M185.83,163.07c0.04-2.08,0.03-1.96,2.59-1.75c1.94,0.16,1.71-1.99,2.65-2.95c0.68-0.69,1.2-1.85,2.35-1.15
		c1.11,0.67,0.65,1.74,0.07,2.59c-1.22,1.8-2.02,3.02,0.68,4.74c0.76,0.48-2.77,2.48-4.73,3.21c-1.78,0.66-2.86,0.02-3.17-1.86
		C186.1,164.91,185.96,163.93,185.83,163.07z"/>
	<path fill="#96C550" d="M176.53,183.02c-2.93,0.71-3.15-1.22-2.94-3.73c0.27-3.35,0.21-3.42,3.42-2.87
		c1.74,0.3,2.03-1.35,3.06-1.98c0.78-0.48,1.34-1.73,2.47-0.67c1.04,0.98,0.13,1.69-0.37,2.55c-0.78,1.31-4.71,2.17-0.6,4.58
		C182.14,181.24,178.84,182.83,176.53,183.02z"/>
	<path fill="#96C550" d="M194.87,87.64c-0.85,1.24,0.05,3.88-2.22,4.26c-1.91,0.32-3.9-0.55-5.48-1.82
		c-0.43-0.34-0.53-1.08-0.79-1.64c4.72-1.52,0.44-3.52,0.22-5.27c-0.08-0.68-0.36-1.28,0.28-1.74c0.8-0.58,1.44-0.3,2.14,0.37
		c1.26,1.21,1.26,5.39,4.58,2.07C194.48,84.88,195.14,85.98,194.87,87.64z"/>
	<path fill="#96C550" d="M48.91,104.9c-1.06,0.12-2.23,0.11-1.76-1.4c0.83-2.66,3.41-4.37,5.54-4.08c2.09,0.29,2.83,3.32,3.15,5.63
		c0.11,0.78-0.55,2.06-1.3,1.65c-2.52-1.37-2.2,0.68-2.73,1.91c-0.47,1.08-0.46,3.04-2.44,2.27c-1.64-0.64-0.26-2-0.28-3.03
		c-0.01-0.81,0.2-1.63,0.31-2.45c0.36-0.34,0.54-0.71,0.06-1.07C49.43,104.31,49.1,104.7,48.91,104.9z"/>
	<path fill="#96C550" d="M144.09,202.69c-2.11-0.52-4.47-1.22-5.5-2.96c-0.99-1.68,1.22-3.14,2.14-4.59
		c0.72-1.13,2.37-2.13,3.12-0.47c1.15,2.55,2.69,1.09,4.07,0.86c1.07-0.18,1.98-0.44,2.36,0.89c0.3,1.08-0.97,1.21-1.19,1.71
		c-0.63,1.44-6.59-1.14-2.7,3.51C145.64,201.98,144.89,202.32,144.09,202.69z"/>
	<path fill="#96C550" d="M204.92,125.45c-0.55,2.47-2.5,5.09-4.49,5.08c-1.92-0.01-4.01-2.58-4.4-5.25
		c-0.08-0.56-0.31-2.15,0.92-1.52c3.66,1.89,1.76-1.32,2.1-2.24c0.41-1.1-0.47-3.02,1.58-2.96c1.62,0.05,1.05,1.69,1.3,2.74
		c0.28,1.23-1.29,4.39,2.42,2.46C204.87,123.5,204.76,124.72,204.92,125.45z"/>
	<path fill="#96C550" d="M53.15,123.57c-0.29,0.93,0.03,2.12-0.73,1.89c-4.51-1.33-1.46,2.4-2.34,3.48
		c-0.41,0.51,0.07,1.71-1.02,1.92c-0.96,0.18-1.49-0.35-1.68-1.31c-0.35-1.84,0.97-4.69-2.97-4.41c-0.58,0.04-0.21-2.49,0.76-3.4
		c1.22-1.14,2.04-3.66,4.13-2.66C51.12,119.94,52.62,121.68,53.15,123.57z"/>
	<path fill="#96C550" d="M124.27,196.07c0.38,0.14,0.82,0.3,1.25,0.46c-1.73,4.34,1.89,2.12,3.22,2.53
		c0.92,0.29,2.15,0.07,2.15,1.43c0,1.36-1.16,1.3-2.15,1.4c-1.76,0.18-4.86-1.14-3.35,2.88c-1.15,0.4-2.46,0.56-3.26-0.33
		c-1.22-1.36-4.05-2.13-3.18-4.37C119.73,198.04,121.6,196.31,124.27,196.07z"/>
	<path fill="#96C550" d="M86.41,185.72c0.94,0.85,4.75-0.43,1.82,3.26c-0.61,0.77,1.83,1.48,2.79,2.29
		c0.63,0.53,1.41,0.99,1.02,1.99c-0.41,1.05-1.25,0.89-2.06,0.6c-1.89-0.69-3.49-3.16-5.84-0.18c-0.56,0.71-1.93-1.76-2.22-3.19
		c-0.25-1.25-1.95-2.82,0.43-3.71C83.57,186.32,84.89,186.11,86.41,185.72z"/>
	<path fill="#96C550" d="M117.54,70.96c-1.13-0.1-4.16-6.42-3.42-7.16c0.95-0.95,1.28-3.7,3.55-1.81c1.48,1.24,4.66,2.33,1.5,4.96
		C117.82,68.07,119.87,70.45,117.54,70.96z"/>
	<path fill="#96C550" d="M119.45,182.48c2.06,2.91-0.65,3.9-2.24,5.09c-1.61,1.2-2.29-0.51-2.96-1.52c-1.09-1.65-2.64-3.55,1.08-4
		c0.24-0.03,0.4-0.78,0.58-1.2c0.39-0.91-0.37-2.78,1.42-2.52c1.96,0.28,0.59,2.18,1.04,3.26c0,0.42-0.01,0.84-0.02,1.26
		C118.72,182.73,119.08,182.6,119.45,182.48z"/>
	<path fill="#96C550" d="M69.02,144.09c0.57,0.41,1.03,0.92,1.6,1.11c1.32,0.45,3.19-1.74,3.91,0.11c0.77,1.98-2.61,1.48-2.73,2.6
		c-0.39,3.57-2.04,3.32-4.61,2.23c-1.58-0.67-2.03-1.37-1.29-2.91C66.59,145.79,66.9,144.02,69.02,144.09z"/>
	<path fill="#96C550" d="M146.01,174.23c1.02,2.22,2.12,4.03,4.65,4.78c0.68,0.2-0.35,3.14-1.37,4.3c-1.34,1.52-2.72-0.21-3.87-0.78
		c-1.53-0.76-2.7-1.97-0.61-3.72c0.39-0.32-0.14-1.8-0.31-2.74C144.31,174.98,145.01,174.73,146.01,174.23z"/>
	<path fill="#96C550" d="M167.19,91.73c0.3-2.12,3.42-2.67,2.27-5.55c-0.36-0.91,2.68-1.07,4.31-0.94c1.88,0.14,2.08,1.31,1.63,2.77
		c-0.45,1.45-0.56,4.34-2.39,3.4C170.7,90.24,169.44,92.89,167.19,91.73z"/>
	<path fill="#96C550" d="M174.35,104.03c0.16-2.34,4.17-1.18,3.26-4.7c-0.31-1.18,2.75-0.59,4.25-0.09
		c1.25,0.42,2.54,0.88,1.49,2.76c-0.87,1.56-2.56,4.39-3.31,3.34C178.19,102.76,175.92,105.94,174.35,104.03z"/>
	<path fill="#96C550" d="M66.64,119.35c-2.9,2.66-3.63-0.53-4.82-1.92c-1.71-1.99,0.64-2.55,1.63-3.18
		c1.22-0.79,3.43-3.02,3.27,1.11c-0.03,0.81,1.01,0.5,1.57,0.65c1,0.27,2.8-0.2,2.49,1.52c-0.35,1.98-2.25,0.41-3.33,0.92
		c-0.39-0.03-0.78-0.07-1.17-0.1C66.4,118.68,66.52,119.02,66.64,119.35z"/>
	<path fill="#96C550" d="M183.29,120.5c-1.08-1.11-2.81-1.5-4.52-1.99c-0.28-0.08-0.62-1.07-0.53-1.14c1.7-1.39,4.08-1.63,5.45-3.82
		c0.41-0.65,2.47,1.12,3.63,2.02c0.81,0.62,0.68,1.4,0.11,2.15C186.41,119.04,185.4,120.37,183.29,120.5z"/>
	<path fill="#96C550" d="M71.99,132.6c-4.02-0.84-4.38,3.13-6.8,3.14c-1.57,0.01-4.03-1.18-3.76-3.19c0.24-1.81,3.4-4.42,3.84-3.62
		C66.69,131.49,69.61,130.03,71.99,132.6z"/>
	<path fill="#96C550" d="M91.5,81.94c-2.16,0.08-2.54-4.12-5.63-2.05c-0.43,0.29-0.97-3.17-0.61-4.86c0.49-2.35,2.42-1.05,3.66-0.91
		c1.46,0.17,3.5,0.44,1.89,2.85C89.57,78.82,93.12,79.73,91.5,81.94z"/>
	<path fill="#96C550" d="M76.75,164.07c-1.57-0.13-3.6,0.32-2.95-2.49c0.39-1.66,1.17-4.93,2.39-3.68c2.44,2.51,4.08-3.04,5.61,0.11
		C82.14,158.72,77.53,164.09,76.75,164.07z"/>
	<path fill="#96C550" d="M172.44,164.3c-5.16,0.77-1.85-5.33-5.27-5.84c-0.08-0.01,0.72-1.53,1-1.17c1.86,2.4,7.43-1.33,7.23,4.69
		C175.3,165.1,173.07,163.48,172.44,164.3z"/>
	<path fill="#96C550" d="M145.34,75c-1.75-1.89,1.8-4.18-1.1-6.13c-0.89-0.6,1.82-2.16,3.22-2.86c1.15-0.57,2.23-0.66,2.59,1.01
		c0.32,1.49,1.57,4.4,0.29,4.23C146.94,70.8,147.81,74.63,145.34,75z"/>
	<path fill="#96C550" d="M104.19,176.49c-1.32,2.07,2.88,5.65-2.24,6.91c-2.72,0.67-2.72-0.77-3.27-2.25
		c-0.56-1.5-1.77-3.3,1.48-3.03c1.52,0.13,1.39-1.38,1.81-2.26c0.37-0.77,0.71-1.64,1.71-1.36
		C104.8,174.8,104.55,175.68,104.19,176.49z"/>
	<path fill="#96C550" d="M157.01,167.61c2.86-0.83,3.01,4.42,6.33,2.12c0.33-0.23,0.63,2.87,0.54,4.45c-0.1,1.6-1.26,1.77-2.51,1.39
		c-1.5-0.46-4.38-0.7-3.72-2.27C158.61,171.03,156.65,169.39,157.01,167.61z"/>
	<path fill="#96C550" d="M174.05,145.93c2.07-2.14,4.6,1.2,6.49-1.62c0.51-0.76,2.02,1.95,2.74,3.38c0.73,1.43,0.17,2.09-1.19,2.54
		c-1.52,0.5-4.39,1.41-4.28,0.15C178.09,147.29,175.18,147.65,174.05,145.93z"/>
	<path fill="#96C550" d="M101.33,65.81c1.77,0.66,4.68,2.39,3.86,2.97c-2.63,1.84,1.27,5.74-1.71,5.77
		c-1.68,0.02-3.74-3.02-4.91-5.09C98.18,68.79,98.71,65.72,101.33,65.81z"/>
	<path fill="#96C550" d="M136.36,182.92c-1.27,2.61-1.87,4.92-3.76,4.92c-1.6,0-4.2-2.8-3.68-3.17c2.44-1.7,0.63-5.94,2.9-6.11
		C133.93,178.4,131.6,184.05,136.36,182.92z"/>
	<path fill="#96C550" d="M71.85,103.88c-0.94,0.21-1.9,0.33-2.81,0.64c-2.6,0.88-2.49-1.41-3.03-2.68
		c-0.99-2.37,1.04-2.73,2.53-3.23c1.48-0.49,3.31-1.24,2.75,1.74c-0.19,1.04,0.84,1.2,1.51,1.53c0.85,0.41,2.24,0.57,1.91,1.78
		C74.23,105.52,72.87,104.02,71.85,103.88z"/>
	<path fill="#96C550" d="M177.91,131.9c1.63-1.84,4.3,0.39,5.45-2.67c0.44-1.17,2.58,1.07,3.68,2.24c1.24,1.33,0.87,2.3-0.52,3.18
		c-1.37,0.87-3.72,2.43-4.18,0.74C181.63,132.78,178.88,133.84,177.91,131.9z"/>
	<path fill="#96C550" d="M92.15,167.61c-2.73,2.04,1.13,7.11-4.5,7.82c-2.16,0.27-2.9-0.6-2.57-2.29c0.22-1.13-1.94-4.26,2.11-3.12
		C89.26,170.6,89.08,166.62,92.15,167.61z"/>
	<path fill="#96C550" d="M81.79,91.67c-2.14,1.35-3.5-2.92-6.11-0.41c-0.73,0.71-1.71-2.6-1.74-4.35c-0.03-2.35,1.95-1.89,3.25-1.84
		c1.08,0.04,3.62-0.97,2.36,2.1C78.64,89.39,82.28,89.29,81.79,91.67z"/>
	<path fill="#96C550" d="M132.33,71.57c-2.36-1.98-0.05-4.57-3.1-5.73c-1.29-0.49,1.04-2.57,2.15-3.64c0.91-0.88,1.9-1.32,2.82,0.09
		c0.96,1.47,2.82,4.17,1.41,4.52C132.97,67.48,133.38,69.85,132.33,71.57z"/>
	<path fill="#96C550" d="M157.41,81.83c-0.93-2.07,3.44-3.48,0.21-5.68c-0.28-0.19,2.45-2.01,4.33-2.18
		c2.44-0.22,2.13,1.55,2.13,2.92c0,1.4,0.89,3.65-2.29,2.66C159.91,78.96,159.81,82.49,157.41,81.83z"/>
	<path fill="#FDFEFD" d="M589,172c2.47-2.3,5.1-1.71,7.5-0.08c2.55,1.74,3.34,4.37,2.62,7.36c-0.38,1.58-0.76,3.36-3.15,2.65
		l0.08,0.09c-0.44-1.74-1.96-3.1-0.14-5.34c1.47-1.8,0.06-3.74-2.49-4.09c-1.47-0.2-2.94-0.39-4.41-0.58L589,172z"/>
	<path fill="#FDFEFD" d="M588.99,183.01c-4.77-3.19-4.77-7.51,0-11.01c0,0,0.01,0.01,0.01,0.01c0,3.66,0,7.32-0.01,10.99
		L588.99,183.01z"/>
	<path fill="#FDFEFD" d="M595.97,181.93c-1.75,4.11-4.24,3.4-6.98,1.08c0,0,0.01-0.01,0.01-0.01c2.76-0.06,1.07-3.14,2.4-3.89
		c2.58-0.29,1.87,3.84,4.65,2.92L595.97,181.93z"/>
	<path fill="#FDFEFD" d="M293.86,117.49c-0.01-3.83,0.09-7.66-0.03-11.48c-0.13-3.75,1.68-5.72,5.27-5.78
		c7.49-0.13,14.98-0.13,22.46-0.01c3.5,0.06,5.5,1.85,5.46,5.64c-0.08,7.82-0.06,15.64-0.01,23.46c0.02,3.48-1.75,5.46-5.06,5.54
		c-7.65,0.17-15.31,0.16-22.96,0.02c-3.28-0.06-5.2-1.86-5.14-5.41C293.92,125.48,293.87,121.49,293.86,117.49z"/>
	<path fill="#FDFEFD" d="M398.62,109.99c-3.83,0-7.67-0.24-11.47,0.07c-3.85,0.31-3.47-2.15-3.26-4.42
		c0.21-2.25-1.56-5.64,3.24-5.52c7.65,0.2,15.3,0,22.95,0.08c3.19,0.04,6.08,0.71,6.05,4.9c-0.03,4.12-2.74,4.87-6.04,4.89
		C406.28,110.01,402.45,109.99,398.62,109.99z"/>
	<path fill="#FDFEFD" d="M373.99,185.71c0.02,6.54-2.58,9.74-7.55,9.24c-0.81-0.08-1.7-0.22-2.37-0.63
		c-2.2-1.33-1.67-14.82,0.58-16.08C369.99,175.28,373.97,178.46,373.99,185.71z"/>
	<path fill="#FDFEFD" d="M453.94,177.34c-0.24-3.6-0.72-6.67,4.1-6.28c4.06,0.34,6.66,1.91,6.74,6.24c0.07,3.93-2.63,5.95-7.38,6.13
		C451.42,183.67,454.88,179.08,453.94,177.34z"/>
	<path fill="#FDFEFD" d="M428.5,184.46c-1.62-1.27-4.98,1.57-5.04-2.11c-0.05-3.04,2.04-5.28,5.41-5.24c3.13,0.04,5.09,2,4.94,5.02
		C433.62,186.17,430.11,183.01,428.5,184.46z"/>
	<path fill="#FDFEFD" d="M529.74,184.43c-1.56-1.42-5.16,1.68-5.19-2.26c-0.02-3.04,2.12-5.22,5.52-5.07
		c3.17,0.14,4.95,2.21,4.77,5.19C534.61,186.01,531.39,183.21,529.74,184.43z"/>
	<path fill="#FDFEFD" d="M502.44,186.23c-0.11,3.35-0.21,6.66-3.63,8.21c-2.61,1.18-5.22,0.81-7.09-1.66
		c-2.16-2.86-2.13-10.48,0.09-13.24c1.87-2.32,4.29-3.06,7.05-1.72C502.53,179.59,502.26,183.1,502.44,186.23z"/>
	<path fill="#FDFEFD" d="M303.85,186.08c0.02-2.85,0.01-5.82,2.56-7.68c2.58-1.88,5.38-1.67,7.7,0.53c2.74,2.6,2.7,11.95-0.08,14.44
		c-2.35,2.1-5.08,2.32-7.73,0.42C304.43,192.44,303.83,190.33,303.85,186.08z"/>
	<path fill="#FDFEFD" d="M29.17,65.85c0.16,0.23,0.52,0.56,0.46,0.67c-0.33,0.6-0.72,0.26-1.07-0.03
		C28.74,66.26,28.95,66.05,29.17,65.85z"/>
	<path fill="#FDFEFD" d="M232.44,93.46c-0.36,0.35-0.74,0.51-1.1,0.03c-0.02-0.03,0.37-0.37,0.57-0.56
		C232.1,93.09,232.27,93.27,232.44,93.46z"/>
	<path fill="#FDFEFD" d="M52.6,69.14c0.11,0.1,0.22,0.2,0.33,0.29c-0.11,0.09-0.23,0.27-0.34,0.26c-0.11-0.01-0.2-0.19-0.31-0.3
		C52.41,69.3,52.52,69.21,52.6,69.14z"/>
	<path fill="#FDFEFD" d="M89.46,36.57c-0.39,0.05-0.78,0.11-1.17,0.16c0.08-0.39,0.16-0.78,0.24-1.16
		C88.84,35.9,89.15,36.24,89.46,36.57z"/>
	<path fill="#FDFEFD" d="M113.44,30.5c-0.41,0.05-0.82,0.09-1.23,0.14c0.13-0.35,0.25-0.7,0.38-1.04
		C112.87,29.9,113.16,30.2,113.44,30.5z"/>
	<path fill="#FDFEFD" d="M212.6,89.39c-0.09-0.36-0.17-0.72-0.26-1.09c0.36,0.08,0.72,0.16,1.09,0.24
		C213.15,88.83,212.87,89.11,212.6,89.39z"/>
	<path fill="#FDFEFD" d="M207.59,159.57c0.37-0.34,0.79-0.69,1.15-0.06c0.07,0.12-0.29,0.5-0.46,0.76
		C208.05,160.04,207.82,159.81,207.59,159.57z"/>
	<path fill="#FDFEFD" d="M136.71,35.28c-0.17-0.23-0.52-0.6-0.46-0.68c0.33-0.5,0.74-0.32,1.12,0.02
		C137.15,34.84,136.93,35.06,136.71,35.28z"/>
	<path fill="#FDFEFD" d="M53.34,145.43c-0.02-0.4-0.03-0.79-0.05-1.19c0.38,0.1,0.76,0.19,1.15,0.29
		C54.07,144.83,53.71,145.13,53.34,145.43z"/>
	<path fill="#FDFEFD" d="M144.27,48.74c0.13,0.31,0.26,0.63,0.38,0.94c-0.37-0.05-0.74-0.09-1.11-0.14
		C143.79,49.28,144.03,49.01,144.27,48.74z"/>
	<path fill="#FDFEFD" d="M162.44,188.49c-0.36,0.3-0.75,0.59-1.07,0.01c-0.06-0.1,0.3-0.43,0.46-0.66
		C162.05,188.05,162.25,188.26,162.44,188.49z"/>
	<path fill="#FDFEFD" d="M48.91,104.9c0.19-0.2,0.52-0.58,0.55-0.56c0.49,0.36,0.31,0.73-0.06,1.07
		C49.23,105.24,49.07,105.07,48.91,104.9z"/>
	<path fill="#FDFEFD" d="M119.45,182.48c-0.37,0.12-0.73,0.25-1.1,0.37c0.01-0.42,0.02-0.84,0.02-1.26
		C118.73,181.89,119.09,182.18,119.45,182.48z"/>
	<path fill="#FDFEFD" d="M66.64,119.35c-0.12-0.34-0.24-0.67-0.36-1.01c0.39,0.04,0.78,0.07,1.17,0.1
		C67.18,118.75,66.91,119.05,66.64,119.35z"/>
	<path fill="#626365" d="M596.05,182.03c-2.78,0.92-2.07-3.21-4.65-2.92c-1.33,0.75,0.36,3.82-2.4,3.89c0-3.66,0-7.32,0.01-10.99
		c1.47,0.19,2.94,0.38,4.41,0.58c2.56,0.35,3.96,2.29,2.49,4.09C594.09,178.93,595.61,180.28,596.05,182.03z"/>
</g>
</svg>
