<svg id="Layer_1" data-name="Layer 1" xmlns="http://www.w3.org/2000/svg" viewBox="0 0 500 111.8"><defs><style>.cls-1{fill:#ec1944;}.cls-2{fill:#1c1c1c;}.cls-3{fill:#fff;}</style></defs><title>OSF_Logo_RGB_Horiz_Badge</title><rect class="cls-1" x="62.31" y="-62.31" width="111.8" height="236.41" rx="20.58" ry="20.58" transform="translate(174.11 -62.31) rotate(90)"/><path class="cls-2" d="M266.44,49.64a10.51,10.51,0,0,1-4.63-1,10.19,10.19,0,0,1-3.61-2.93A14.05,14.05,0,0,1,255.87,41a21.55,21.55,0,0,1-.82-6.22,21.29,21.29,0,0,1,.82-6.19,13.21,13.21,0,0,1,2.33-4.57,10,10,0,0,1,3.61-2.83,11.43,11.43,0,0,1,9.26,0,9.86,9.86,0,0,1,3.61,2.85A13.59,13.59,0,0,1,277,28.66a21.14,21.14,0,0,1,.83,6.15A21.53,21.53,0,0,1,277,41a14.05,14.05,0,0,1-2.33,4.66,10.19,10.19,0,0,1-3.61,2.93A10.48,10.48,0,0,1,266.44,49.64Zm0-5.52q2.22,0,3.52-2.5a14.86,14.86,0,0,0,1.31-6.81A14,14,0,0,0,270,28.16a3.79,3.79,0,0,0-7,0,14,14,0,0,0-1.31,6.65,14.86,14.86,0,0,0,1.31,6.81Q264.23,44.13,266.44,44.12Z" transform="translate(0 0)"/><path class="cls-2" d="M287.71,50.82v6.31h-6.39V27.55h5.22l.47,2.17h.13a11.49,11.49,0,0,1,3-1.93,8.43,8.43,0,0,1,7,0A7.73,7.73,0,0,1,299.93,30a10.11,10.11,0,0,1,1.72,3.46,16.13,16.13,0,0,1,.59,4.5,14.17,14.17,0,0,1-.79,4.93,11.41,11.41,0,0,1-2.08,3.66,9,9,0,0,1-3,2.28,8.23,8.23,0,0,1-3.5.78,7.64,7.64,0,0,1-5.4-2.34Zm0-7.83a5.78,5.78,0,0,0,1.89,1.11,5.67,5.67,0,0,0,1.81.32,3.77,3.77,0,0,0,3-1.5c.81-1,1.22-2.61,1.22-4.85q0-5.82-4-5.82a5.63,5.63,0,0,0-4,2Z" transform="translate(0 0)"/><path class="cls-2" d="M305.37,38.34a11.6,11.6,0,0,1,.93-4.75,11,11,0,0,1,2.5-3.54,11.14,11.14,0,0,1,3.59-2.24,12.21,12.21,0,0,1,8.59,0A8.55,8.55,0,0,1,324.16,30a9.39,9.39,0,0,1,1.91,3.28,12.39,12.39,0,0,1,.65,4.11c0,.58,0,1.13-.08,1.65a11.81,11.81,0,0,1-.18,1.18H311.93a4.62,4.62,0,0,0,2.11,3.5,7.9,7.9,0,0,0,4.16,1.06,10.24,10.24,0,0,0,2.8-.37,13.8,13.8,0,0,0,2.77-1.11l2.08,3.83A16.06,16.06,0,0,1,321.76,49a15.37,15.37,0,0,1-4.43.67,14.08,14.08,0,0,1-4.7-.76,10.68,10.68,0,0,1-3.78-2.22,10.5,10.5,0,0,1-2.55-3.54A11.65,11.65,0,0,1,305.37,38.34ZM320.94,36a4.33,4.33,0,0,0-1-3,4.11,4.11,0,0,0-3.22-1.13,5,5,0,0,0-3.09,1A4.92,4.92,0,0,0,311.85,36Z" transform="translate(0 0)"/><path class="cls-2" d="M330.9,27.55h5.22l.48,2.87h.17A14.22,14.22,0,0,1,340,28a8.55,8.55,0,0,1,4.24-1c2.43,0,4.22.78,5.35,2.35a10.79,10.79,0,0,1,1.69,6.43V49.12h-6.39V36.64a5.57,5.57,0,0,0-.7-3.17,2.8,2.8,0,0,0-2.48-1,4.44,4.44,0,0,0-2.28.57,10.74,10.74,0,0,0-2.11,1.7V49.12H330.9Z" transform="translate(0 0)"/><path class="cls-2" d="M358.43,41.16a15.11,15.11,0,0,0,3.5,2.13,9.2,9.2,0,0,0,3.76.83,5.61,5.61,0,0,0,3.24-.74,2.35,2.35,0,0,0,1-2,2.1,2.1,0,0,0-.31-1.13,2.83,2.83,0,0,0-.87-.85,7.93,7.93,0,0,0-1.37-.69c-.54-.22-1.15-.46-1.85-.72l-3.65-1.57a11.8,11.8,0,0,1-2.28-1.13,8.79,8.79,0,0,1-1.94-1.63,7.67,7.67,0,0,1-1.33-2.17,7.56,7.56,0,0,1-.5-2.81,7.41,7.41,0,0,1,.76-3.28,8.28,8.28,0,0,1,2.14-2.7A10.08,10.08,0,0,1,362,20.89a13.15,13.15,0,0,1,4.22-.65,13.6,13.6,0,0,1,5,1A13.78,13.78,0,0,1,375.7,24L372.43,28a13.68,13.68,0,0,0-2.91-1.68,8.57,8.57,0,0,0-3.26-.58,5.21,5.21,0,0,0-2.89.67,2.13,2.13,0,0,0-1,1.89,2.1,2.1,0,0,0,1.31,2A31.9,31.9,0,0,0,367,31.68l3.43,1.48A10.91,10.91,0,0,1,374.89,36a7,7,0,0,1,1.63,4.83,7.78,7.78,0,0,1-.74,3.37A8.06,8.06,0,0,1,373.65,47a10.6,10.6,0,0,1-3.43,1.92,14.16,14.16,0,0,1-4.7.71,16.5,16.5,0,0,1-5.68-1,15.85,15.85,0,0,1-5.11-3.06Z" transform="translate(0 0)"/><path class="cls-2" d="M384.92,32.55h-5.44V27.81l5.74-.26.83-5.74h5.26v5.74h9.13v5h-9.13v7.57a4.64,4.64,0,0,0,1.09,3.5,4.88,4.88,0,0,0,3.43,1,11.05,11.05,0,0,0,2.31-.22,14.38,14.38,0,0,0,2-.56l1.13,4.61c-1,.29-2,.56-3.2.8a18.4,18.4,0,0,1-3.84.37,12.12,12.12,0,0,1-4.36-.69A7.41,7.41,0,0,1,387,47a7.13,7.13,0,0,1-1.58-3,14.54,14.54,0,0,1-.48-3.87Z" transform="translate(0 0)"/><path class="cls-2" d="M404.79,43.12a5.86,5.86,0,0,1,3.29-5.52,16,16,0,0,1,4.41-1.55,42.14,42.14,0,0,1,6.53-.8,3.23,3.23,0,0,0-1.29-2.31,5.56,5.56,0,0,0-3.33-.82,9.75,9.75,0,0,0-3.15.54,27.45,27.45,0,0,0-3.41,1.46l-2.26-4.18a25.88,25.88,0,0,1,4.76-2.09,17.13,17.13,0,0,1,5.33-.82,10.13,10.13,0,0,1,7.13,2.39c1.74,1.59,2.61,4,2.61,7.35V49.12h-5.22l-.48-2.43h-.17a17.78,17.78,0,0,1-3.61,2.11,10.21,10.21,0,0,1-4.05.84,8.1,8.1,0,0,1-3-.5,6.34,6.34,0,0,1-3.63-3.45A6.58,6.58,0,0,1,404.79,43.12Zm6.14-.48a1.69,1.69,0,0,0,.8,1.55,4.19,4.19,0,0,0,2.2.5,6.33,6.33,0,0,0,2.69-.59,12.94,12.94,0,0,0,2.4-1.46V39.08a29.15,29.15,0,0,0-4,.43,9.9,9.9,0,0,0-2.48.76,3,3,0,0,0-1.28,1.07A2.42,2.42,0,0,0,410.93,42.64Z" transform="translate(0 0)"/><path class="cls-2" d="M429.85,38.34a10.93,10.93,0,0,1,1-4.81A10.35,10.35,0,0,1,433.61,30a12.14,12.14,0,0,1,4-2.2,14.66,14.66,0,0,1,4.74-.76,12.4,12.4,0,0,1,4.63.82,11.6,11.6,0,0,1,3.46,2.09l-3,4a8.26,8.26,0,0,0-4.78-1.7,6.28,6.28,0,0,0-4.53,1.66,5.87,5.87,0,0,0-1.74,4.48,6,6,0,0,0,1.68,4.48,5.94,5.94,0,0,0,4.37,1.65,7.87,7.87,0,0,0,3.13-.61,12.69,12.69,0,0,0,2.57-1.44l2.61,4a12.61,12.61,0,0,1-4.33,2.41,14.9,14.9,0,0,1-4.59.76,14.19,14.19,0,0,1-4.74-.76,11.41,11.41,0,0,1-3.81-2.19,10,10,0,0,1-2.54-3.55A12,12,0,0,1,429.85,38.34Z" transform="translate(0 0)"/><path class="cls-2" d="M455,18.63h6.39V36.25h.17l7.92-8.7h7l-8.17,8.87,8.83,12.7h-6.92l-5.65-8.78-3.18,3.35v5.43H455Z" transform="translate(0 0)"/><path class="cls-2" d="M258.09,64.81h18.7V70.2H264.48v6.57H275v5.39H264.48v11h-6.39Z" transform="translate(0 0)"/><path class="cls-2" d="M280.23,82.38a12,12,0,0,1,.91-4.81A10.4,10.4,0,0,1,283.6,74a10.83,10.83,0,0,1,3.52-2.2,11.49,11.49,0,0,1,8.22,0,10.87,10.87,0,0,1,3.53,2.2,10.52,10.52,0,0,1,2.45,3.54,13,13,0,0,1,0,9.61,10.56,10.56,0,0,1-2.45,3.55,10.85,10.85,0,0,1-3.53,2.19,11.35,11.35,0,0,1-8.22,0,10.8,10.8,0,0,1-3.52-2.19,10.44,10.44,0,0,1-2.46-3.55A12,12,0,0,1,280.23,82.38Zm6.57,0a7.94,7.94,0,0,0,1.11,4.48,4.18,4.18,0,0,0,6.65,0,7.94,7.94,0,0,0,1.11-4.48,7.92,7.92,0,0,0-1.11-4.48,4.16,4.16,0,0,0-6.65,0A7.92,7.92,0,0,0,286.8,82.38Z" transform="translate(0 0)"/><path class="cls-2" d="M325.81,93.16h-5.22l-.48-3.08h-.17a12.25,12.25,0,0,1-3.18,2.63,8.22,8.22,0,0,1-4.09,1c-2.46,0-4.24-.79-5.35-2.35a11,11,0,0,1-1.65-6.44V71.59h6.4V84.07a6,6,0,0,0,.65,3.18,2.73,2.73,0,0,0,2.48,1,4.41,4.41,0,0,0,2.15-.52,7.73,7.73,0,0,0,2.07-2V71.59h6.39Z" transform="translate(0 0)"/><path class="cls-2" d="M330.9,71.59h5.22l.48,2.87h.17a14.22,14.22,0,0,1,3.2-2.39,8.55,8.55,0,0,1,4.24-1c2.43,0,4.22.78,5.35,2.35a10.79,10.79,0,0,1,1.69,6.43V93.16h-6.39V80.68a5.57,5.57,0,0,0-.7-3.17,2.8,2.8,0,0,0-2.48-1,4.43,4.43,0,0,0-2.28.56,10.74,10.74,0,0,0-2.11,1.7V93.16H330.9Z" transform="translate(0 0)"/><path class="cls-2" d="M354.6,82.38a13.46,13.46,0,0,1,.78-4.74,11.49,11.49,0,0,1,2.07-3.55,9,9,0,0,1,2.94-2.24,7.92,7.92,0,0,1,3.43-.78,7,7,0,0,1,3.13.63,10.48,10.48,0,0,1,2.4,1.67L369.13,70V62.67h6.39V93.16H370.3l-.48-2.22h-.13a11,11,0,0,1-2.78,2,7.15,7.15,0,0,1-3.22.79A8.73,8.73,0,0,1,360,92.9a8.2,8.2,0,0,1-2.87-2.24,10.44,10.44,0,0,1-1.85-3.54A16,16,0,0,1,354.6,82.38Zm6.57-.09a8,8,0,0,0,1.09,4.7,3.61,3.61,0,0,0,3.09,1.48,4.49,4.49,0,0,0,2-.46,5.74,5.74,0,0,0,1.78-1.54V77.72a5.6,5.6,0,0,0-1.76-1.11,5.54,5.54,0,0,0-1.85-.32,3.93,3.93,0,0,0-3.07,1.48A6.77,6.77,0,0,0,361.17,82.29Z" transform="translate(0 0)"/><path class="cls-2" d="M380,87.16a5.86,5.86,0,0,1,3.29-5.52,16.32,16.32,0,0,1,4.41-1.55,42.14,42.14,0,0,1,6.53-.8A3.25,3.25,0,0,0,392.94,77a5.56,5.56,0,0,0-3.33-.82,9.75,9.75,0,0,0-3.15.54,27.45,27.45,0,0,0-3.41,1.46L380.79,74a25.2,25.2,0,0,1,4.76-2.08,16.84,16.84,0,0,1,5.33-.83A10.18,10.18,0,0,1,398,73.46q2.61,2.4,2.61,7.35V93.16H395.4l-.48-2.43h-.17a17.78,17.78,0,0,1-3.61,2.11,10.22,10.22,0,0,1-4.05.85,8.09,8.09,0,0,1-3-.51,6.17,6.17,0,0,1-2.21-1.39,6.38,6.38,0,0,1-1.42-2.06A6.58,6.58,0,0,1,380,87.16Zm6.14-.48a1.69,1.69,0,0,0,.8,1.55,4.19,4.19,0,0,0,2.2.5,6.33,6.33,0,0,0,2.69-.59,12.94,12.94,0,0,0,2.4-1.46V83.12a29.15,29.15,0,0,0-4,.43,9.9,9.9,0,0,0-2.48.76,3,3,0,0,0-1.28,1.07A2.42,2.42,0,0,0,386.14,86.68Z" transform="translate(0 0)"/><path class="cls-2" d="M409.71,76.59h-5.44V71.85l5.74-.26.83-5.74h5.26v5.74h9.13v5H416.1v7.57a4.64,4.64,0,0,0,1.09,3.5,4.88,4.88,0,0,0,3.43,1,11.8,11.8,0,0,0,2.31-.21,15.45,15.45,0,0,0,2-.57l1.13,4.61c-1,.29-2,.56-3.2.81a19.1,19.1,0,0,1-3.84.37,12,12,0,0,1-4.35-.7,7.37,7.37,0,0,1-2.9-1.94,7.13,7.13,0,0,1-1.58-3,14.49,14.49,0,0,1-.48-3.87Z" transform="translate(0 0)"/><path class="cls-2" d="M430.37,71.59h15.05V93.16H439V76.59h-8.65Zm11.57-3.17a4.49,4.49,0,0,1-3.07-1,3.54,3.54,0,0,1-1.2-2.82,3.77,3.77,0,0,1,1.2-2.9,4.79,4.79,0,0,1,6.13,0,3.77,3.77,0,0,1,1.2,2.9,3.54,3.54,0,0,1-1.2,2.82A4.46,4.46,0,0,1,441.94,68.42Z" transform="translate(0 0)"/><path class="cls-2" d="M453.77,82.38a12,12,0,0,1,.91-4.81A10.4,10.4,0,0,1,457.14,74a10.83,10.83,0,0,1,3.52-2.2,11.49,11.49,0,0,1,8.22,0A10.83,10.83,0,0,1,472.4,74a10.4,10.4,0,0,1,2.46,3.54,13.14,13.14,0,0,1,0,9.61,10.44,10.44,0,0,1-2.46,3.55,10.8,10.8,0,0,1-3.52,2.19,11.35,11.35,0,0,1-8.22,0,10.8,10.8,0,0,1-3.52-2.19,10.44,10.44,0,0,1-2.46-3.55A12,12,0,0,1,453.77,82.38Zm6.56,0a7.94,7.94,0,0,0,1.11,4.48,4.19,4.19,0,0,0,6.66,0,7.94,7.94,0,0,0,1.11-4.48,7.92,7.92,0,0,0-1.11-4.48,4.17,4.17,0,0,0-6.66,0A7.92,7.92,0,0,0,460.33,82.38Z" transform="translate(0 0)"/><path class="cls-2" d="M479.65,71.59h5.21l.48,2.87h.18a14.15,14.15,0,0,1,3.19-2.39,8.6,8.6,0,0,1,4.24-1q3.66,0,5.35,2.35a10.79,10.79,0,0,1,1.7,6.43V93.16h-6.39V80.68a5.66,5.66,0,0,0-.7-3.17,2.8,2.8,0,0,0-2.48-1,4.43,4.43,0,0,0-2.28.56,10.46,10.46,0,0,0-2.11,1.7V93.16h-6.39Z" transform="translate(0 0)"/><path class="cls-3" d="M215.86,18.63H177.14a23.29,23.29,0,0,0-23.29,23.29v20.2a23.31,23.31,0,0,0-22-15.54H113.25a4.66,4.66,0,1,1,0-9.31h32.59a1.93,1.93,0,0,0,1.78-1.19l6.13-14.79A1.93,1.93,0,0,0,152,18.63H113.25a23.31,23.31,0,0,0-22.66,17.9,38.57,38.57,0,1,0,5.2,20.8,23.25,23.25,0,0,0,17.46,7.88h18.63a4.66,4.66,0,0,1,0,9.32H99.29a1.93,1.93,0,0,0-1.78,1.19L91.39,90.51a1.91,1.91,0,0,0,1.77,2.65h38.72a23.3,23.3,0,0,0,22-15.53V91.25a1.9,1.9,0,0,0,1.91,1.91h14.8a1.91,1.91,0,0,0,1.92-1.91v-26h25.68A1.92,1.92,0,0,0,199.93,64l6.13-14.8a1.92,1.92,0,0,0-1.78-2.65h-31.8V41.92a4.66,4.66,0,0,1,4.66-4.65h32.59a1.9,1.9,0,0,0,1.77-1.19l6.13-14.79A1.92,1.92,0,0,0,215.86,18.63ZM57.23,74.53A18.63,18.63,0,1,1,75.86,55.9,18.64,18.64,0,0,1,57.23,74.53Z" transform="translate(0 0)"/></svg>