<svg id="Layer_1" data-name="Layer 1" xmlns="http://www.w3.org/2000/svg" viewBox="0 0 8388 2746.04098"><defs><style>.cls-1{fill:none;}.cls-2{fill:#444b47;}.cls-3{fill:#057fbd;}.cls-4{fill:#fdfdfd;}.cls-5{fill:#fff;}</style></defs><title>Open19</title><path class="cls-1" d="M2670.87426,995.78526c122.37315-2.16248,244.88792.98864,367.163-3.28184,97.3767-3.399,172.45322-64.29956,202.02519-153.2633C3295.29,673.081,3188.893,525.79305,3004.70141,518.83719c-109.382-4.12886-219.06351.33771-328.56531-1.53607-33.679-.57738-45.23221,9.66032-44.02841,43.66618l.158,393.001C2631.58477,982.884,2638.143,996.36264,2670.87426,995.78526Z"/><path class="cls-1" d="M371.54345,1112.1013c-25.13808-2.7916-40.37072,13.95531-42.683,36.72393-2.45389,24.15217,13.19272,39.50737,37.18148,41.787,24.94471,2.37219,38.41251-12.55815,44.41514-38.40434C407.47211,1131.20951,395.03108,1114.71043,371.54345,1112.1013Z"/><path class="cls-1" d="M687.04133,1111.18892c-22.30562,4.29227-40.35983,14.58989-40.50145,40.19914-.1389,25.2443,15.54857,39.22957,40.04934,39.19689,21.45861-.03,36.38621-12.41108,37.60635-34.793C725.54644,1130.93988,710.46359,1117.46119,687.04133,1111.18892Z"/><path class="cls-1" d="M1728.24259,929.9333c25.84075,1.31273,39.22957-12.72428,41.49553-38.06663-.70267-25.7427-13.80279-40.9127-39.43655-39.79878-24.61516,1.07034-39.46924,16.38741-38.81014,41.53911C1692.06881,915.9099,1706.07315,928.80576,1728.24259,929.9333Z"/><path class="cls-1" d="M2045.96285,851.44693c-23.09544-.21516-37.99308,14.60351-39.36029,34.70035-1.49794,22.04689,8.11064,42.32621,36.06484,43.865,26.60877,1.46253,38.55413-13.95259,44.60034-41.99394C2081.76079,870.005,2072.62066,851.69477,2045.96285,851.44693Z"/><path class="cls-2" d="M2108.4894,825.519c-25.39409-21.58389-34.25642-46.18543-43.82142-74.49641-116.51758-344.94184-374.62468-580.0855-737.51982-625.82106-44.61642-5.623-152.52614-9.693-152.52614-9.693-425.66694,7.59318-807.95094,340.63323-858.80176,792.93073-5.24278,46.61848,7.65581,54.81355,48.909,53.87121,94.53606-2.16248,189.23826-3.03673,283.70351.31865,46.64843,1.6559,66.10525-10.4801,75.6648-59.98278,38.851-201.22719,213.099-364.07939,416.42059-390.3205,206.11591-26.60061,410.93542,84.45571,505.77924,266.04089,13.91174,26.63329,17.1963,47.49544,2.364,76.58535-23.99965,47.0733-7.86552,89.55475,37.46472,115.12314,45.00343,25.37775,89.887,17.36788,119.48622-25.48669,28.83662-41.74882,25.88433-88.16575-14.658-121.33821-24.58248-20.11047-37.54643-43.70159-51.64336-70.43837-111.5172-211.5003-286.93361-330.35245-526.7231-332.03558C973.84965,419.0987,782.9909,549.98661,687.91628,744.734c-23.4261,47.98519-54.92319,118.9742-54.92319,118.9742h-222.536C508.63178,418.52454,831.22442,217.00593,1191.44791,206.485c345.11342-10.07974,665.39924,216.82206,776.11573,549.60883,10.77424,32.38809,18.08961,60.29326-2.42938,95.94685-25.03459,43.5-12.3212,90.015,33.36855,117.05956,44.328,26.23566,88.291,18.9802,120.35775-22.597C2151.09613,904.70806,2147.44117,858.6234,2108.4894,825.519Zm-378.18783,26.54886c25.63376-1.11392,38.73388,14.05608,39.43655,39.79878-2.266,25.34235-15.65478,39.37936-41.49553,38.06663-22.16944-1.12754-36.17378-14.0234-36.75116-36.3263C1690.83233,868.4553,1705.68641,853.13823,1730.30157,852.06789Zm312.36583,77.94439c-27.9542-1.53879-37.56278-21.81811-36.06484-43.865,1.36721-20.09684,16.26485-34.91551,39.36029-34.70035,26.65781.24784,35.79794,18.55806,41.30489,36.57141C2081.22153,916.05969,2069.27617,931.47481,2042.6674,930.01228Z"/><path class="cls-3" d="M1990.49957,1196.50712s-5.82056,29.78921-22.25021,77.12064c-111.2503,320.51187-409.475,530.71578-755.99921,537.82689-326.68064,6.70258-636.54083-205.48678-754.43379-516.34922-14.48912-38.20825-27.21885-73.19729-3.4398-115.49082,21.7827-38.74478,1.76211-76.27214-31.45392-101.63628-36.98811-28.25106-94.07887-28.24479-121.92256,8.02833-15.26509,19.88647-21.79312,48.084-22.10132,65.321-1.1266,63.00744,61.26976,85.30931,78.04119,136.53325,144.86124,442.44109,588.55242,693.95261,1044.21892,595.77792,346.32266-74.61625,624.23052-360.43593,686.90414-706.46445,13.54133-74.75515,13.44329-74.97575-62.98955-75.07925-85.976-.11983-172.16452,3.6359-257.85187-1.35359-27.24331-1.58644-62.40507-.0689-62.40507-.0689s-16.42233,41.93751-25.43991,67.38612c-71.38343,201.49682-223.34973,316.67988-435.28852,334.80218-190.60819,16.303-341.38765-65.11389-451.12639-221.37579-22.036-31.37766-39.07977-60.2633-20.89211-105.441,18.4709-45.88857-2.32044-89.2252-52.88257-109.07693-46.87448-18.40554-85.77995-3.72305-111.13319,37.64448-27.56746,44.98163-18.73781,88.95284,23.57206,119.35276,25.64738,18.42733,41.05432,40.67031,56.35505,67.04487,111.98837,193.03212,279.69722,301.72231,503.3199,307.38723,228.97713,5.80382,413.16871-92.10941,521.85345-293.05335,23.83521-44.06549,55.16509-113.41634,55.16509-113.41634M686.58922,1190.585c-24.50077.03268-40.18824-13.95259-40.04934-39.19689.14162-25.60925,18.19583-35.90687,40.50145-40.19914,23.42226,6.27227,38.50511,19.751,37.15424,44.60307C722.97543,1178.17387,708.04783,1190.555,686.58922,1190.585Zm-320.54727.02723c-23.98876-2.27958-39.63537-17.63478-37.18148-41.787,2.31226-22.76862,17.5449-39.51553,42.683-36.72393,23.48763,2.60913,35.92866,19.10821,38.91364,40.10654C404.45446,1178.054,390.98666,1192.98437,366.042,1190.61218Z"/><path class="cls-3" d="M7239.84951,1080.04549c212.60878,98.61861,413.501,93.93961,639.44955-43.30395.89331,100.61495,18.26391,171.80229-22.13677,250.27231-102.32805,198.72428-494.56379,167.57-559.01858,32.222-13.6993-28.76581-24.321-57.52345-24.321-57.52345L7020.9603,1258.85c-9.02574,11.13374-4.68446,29.66456-1.07852,52.96971,18.16587,117.36188,82.04873,204.31022,185.85838,255.10929,226.54774,110.85539,459.90973,118.6147,689.66034,13.07289,144.352-66.31223,231.16683-181.91472,237.55621-347.27044,7.21732-186.72718,7.79471-373.4707-.48479-560.19787-5.85556-132.04709-68.76885-232.3897-173.54262-308.20157-212.60878-153.838-572.38562-150.567-782.73387,6.11975C6925.38657,557.28238,6956.53273,948.62481,7239.84951,1080.04549ZM7365.61072,534.315c138.86678-76.648,285.39209-76.57718,422.77728,5.80926,119.922,71.91179,121.74129,237.785,9.06387,320.74882-68.7852,50.64111-149.24884,61.5025-229.94125,66.57642-74.96214-4.74437-146.78133-15.39606-209.53665-57.68686C7231.30855,784.39662,7232.07114,608.02426,7365.61072,534.315Z"/><path class="cls-3" d="M2425.3218,1628.74194c53.40275-4.13975,107.4755-2.9986,161.058-.26691,36.32085,1.84927,48.00474-9.89454,47.14956-46.67294-2.3041-98.79292,1.36176-197.74381-1.77029-296.49044-1.36721-43.14053,12.89314-53.4082,54.31786-53.49535,133.082-.27235,266.39283,8.21685,399.26787-4.9323,246.266-24.37,419.19313-212.54885,424.82536-461.36954,5.6976-251.72123-159.21146-453.34061-406.76843-482.93709l-728.6448,1.42985c-.4521,206.29021-.26145,457.73092-.26145,664.02113,0,208.43907.84429,416.88631-.74625,625.31177C2373.44421,1612.47164,2379.77911,1632.27162,2425.3218,1628.74194ZM2676.1361,517.30112c109.5018,1.87378,219.18335-2.59279,328.56531,1.53607C3188.893,525.79305,3295.29,673.081,3240.06247,839.24012c-29.572,88.96374-104.64849,149.86435-202.02519,153.2633-122.2751,4.27048-244.78987,1.11936-367.163,3.28184-32.73125.57738-39.28949-12.90131-38.60861-41.81691l-.158-393.001C2630.90389,526.96144,2642.45706,516.72374,2676.1361,517.30112Z"/><path class="cls-2" d="M3729.773,527.60692c150.18572-2.08077,300.40957-.83068,450.62253-.83068s300.45316-1.7839,450.61165,1.07307c45.79324.87153,59.90652-13.18455,56.61106-57.74949-3.62773-49.086-3.083-98.78476-.10349-147.95789,2.30954-38.211-13.32346-47.96389-48.40783-46.31888-49.24667,2.30409-98.684.57193-148.03959.56921-253.211,0-506.43289,1.11937-759.62209-1.024-45.766-.38946-60.02091,13.46235-56.58928,57.99733a895.005,895.005,0,0,1-.049,141.49225C3671.17371,519.25661,3689.3178,528.16524,3729.773,527.60692Z"/><path class="cls-2" d="M4687.72168,1580.21428c-3.89463-53.44089-2.21149-107.421-.44665-161.088,1.024-31.06174-5.22371-46.63482-41.70252-46.49319q-464.16933,1.79753-928.34409.00817c-36.0376-.13618-43.23859,14.609-42.07292,46.14458,1.91191,51.50446,3.83471,103.40929-.45211,154.62506-3.99267,47.648,15.25171,56.14262,58.316,55.41,148.23569-2.51653,296.53673-.96685,444.816-.96685,152.577-.00272,305.16484-.99681,457.72.719C4672.30112,1628.98705,4690.84828,1623.13694,4687.72168,1580.21428Z"/><path class="cls-2" d="M3736.54906,1073.92029c247.00682-2.0263,494.05177-.18792,741.06948-1.53062,59.32914-.3241,137.43966,26.31464,172.99248-11.42243,34.99721-37.14608,5.18013-114.69555,11.10106-174.0029,4.54828-45.54541-15.97616-52.14177-55.1676-51.61613-143.8944,1.92553-287.82692.76258-431.74855.76258-107.40469,0-214.83117-1.3209-322.20318.53381-57.21023.98592-132.40659-25.1871-166.7665,11.25358-33.85334,35.90688-4.31406,110.71649-11.01936,167.72791C3668.70076,1067.57994,3691.54019,1074.29069,3736.54906,1073.92029Z"/><path class="cls-4" d="M2045.96285,851.44693c-23.09544-.21516-37.99308,14.60351-39.36029,34.70035-1.49794,22.04689,8.11064,42.32621,36.06484,43.865,26.60877,1.46253,38.55413-13.95259,44.60034-41.99394C2081.76079,870.005,2072.62066,851.69477,2045.96285,851.44693Z"/><path class="cls-4" d="M1728.24259,929.9333c25.84075,1.31273,39.22957-12.72428,41.49553-38.06663-.70267-25.7427-13.80279-40.9127-39.43655-39.79878-24.61516,1.07034-39.46924,16.38741-38.81014,41.53911C1692.06881,915.9099,1706.07315,928.80576,1728.24259,929.9333Z"/><path class="cls-4" d="M371.54345,1112.1013c-25.13808-2.7916-40.37072,13.95531-42.683,36.72393-2.45389,24.15217,13.19272,39.50737,37.18148,41.787,24.94471,2.37219,38.41251-12.55815,44.41514-38.40434C407.47211,1131.20951,395.03108,1114.71043,371.54345,1112.1013Z"/><path class="cls-4" d="M687.04133,1111.18892c-22.30562,4.29227-40.35983,14.58989-40.50145,40.19914-.1389,25.2443,15.54857,39.22957,40.04934,39.19689,21.45861-.03,36.38621-12.41108,37.60635-34.793C725.54644,1130.93988,710.46359,1117.46119,687.04133,1111.18892Z"/><path class="cls-4" d="M7357.974,869.76259c62.75532,42.2908,134.57451,52.94249,209.53665,57.68686,80.69241-5.07392,161.156-15.93531,229.94125-66.57642C7910.12929,777.9092,7908.31,612.036,7788.388,540.12421c-137.38519-82.38644-283.9105-82.45726-422.77728-5.80926C7232.07114,608.02426,7231.30855,784.39662,7357.974,869.76259Z"/><path class="cls-4" d="M4377.52923,2199.59422c-57.92925-2.2224-103.43925,42.98257-105.78148,105.07335-2.40759,63.75213,43.6798,115.27566,102.73658,114.859,57.33552-.40308,102.56228-47.78686,103.36844-108.298C4478.648,2251.4827,4433.96054,2201.75941,4377.52923,2199.59422Z"/><path class="cls-4" d="M3020.74838,2196.09449c-50.78817,2.44845-91.30324,52.64562-91.08536,112.84084.23967,66.02354,40.89091,111.87943,98.2809,110.869,57.01415-1.005,96.90825-49.01789,94.91463-114.22438C3120.95209,2243.25767,3074.54333,2193.5017,3020.74838,2196.09449Z"/><rect class="cls-2" x="3669.22772" y="275.36027" width="1018.83356" height="252.52682"/><rect class="cls-2" x="3671.79682" y="829.59738" width="1018.83356" height="252.52682"/><rect class="cls-2" x="3671.79682" y="1374.48409" width="1018.83356" height="252.52682"/><polygon class="cls-3" points="4939.799 279.694 4939.799 1631.345 5214.92 1631.345 5214.92 742.485 5852.373 1631.345 6066.1 1631.345 6066.1 279.694 5817.099 279.694 5817.099 1107.578 5197.06 279.687 4939.799 279.694"/><rect class="cls-3" x="6203.77174" y="275.35338" width="474.98676" height="241.08139"/><rect class="cls-3" x="6017.88483" y="819.24106" width="1062.02279" height="259.72455" transform="translate(5599.7929 7497.99956) rotate(-90)"/><rect class="cls-3" x="6217.78085" y="1390.45564" width="647.46335" height="241.08139"/><rect class="cls-3" x="2374.75694" y="284.00785" width="257.26651" height="1343.00306"/><circle class="cls-5" cx="1730.60425" cy="891.01416" r="40.47116"/><circle class="cls-5" cx="2047.18238" cy="892.87388" r="70.89384"/><path class="cls-2" d="M2047.18262,985.268a92.394,92.394,0,1,1,92.39355-92.39453A92.49905,92.49905,0,0,1,2047.18262,985.268Zm0-141.78809a49.394,49.394,0,1,0,49.39355,49.39356A49.45005,49.45005,0,0,0,2047.18262,843.47993Z"/><circle class="cls-5" cx="1730.60425" cy="892.87388" r="70.89384"/><path class="cls-2" d="M1730.604,985.268a92.394,92.394,0,1,1,92.394-92.39453A92.49894,92.49894,0,0,1,1730.604,985.268Zm0-141.78809a49.394,49.394,0,1,0,49.394,49.39356A49.44962,49.44962,0,0,0,1730.604,843.47993Z"/><circle class="cls-5" cx="684.2081" cy="1156.68653" r="70.89384"/><path class="cls-3" d="M684.20887,1255.46734a98.782,98.782,0,1,1,98.782-98.782A98.89162,98.89162,0,0,1,684.20887,1255.46734Zm0-141.7864a43.00437,43.00437,0,1,0,43.00436,43.00437A43.0553,43.0553,0,0,0,684.20887,1113.68094Z"/><circle class="cls-5" cx="367.45196" cy="1152.20907" r="70.89384"/><path class="cls-3" d="M367.45273,1250.98987a98.782,98.782,0,1,1,98.782-98.782A98.89161,98.89161,0,0,1,367.45273,1250.98987Zm0-141.78639a43.00436,43.00436,0,1,0,43.00436,43.00436A43.05529,43.05529,0,0,0,367.45273,1109.20348Z"/><path class="cls-2" d="M3008.51979,2195.75423c-105.06792.38947-185.36815,85.51577-183.82119,194.84872,1.5742,111.22306,80.92664,191.58593,188.0263,190.42026,106.96893-1.16294,184.78531-83.19533,184.25694-194.25226C3196.46438,2278.24145,3114.6771,2195.3566,3008.51979,2195.75423Zm.18519,307.84479c-57.11763-1.36448-97.04442-48.26348-97.66538-114.72279-.61007-64.61548,40.42791-115.597,94.95276-117.96649,57.12853-2.48385,103.8968,49.26845,104.67572,115.81491C3111.47425,2455.41452,3068.18664,2505.02887,3008.705,2503.599Z"/><path class="cls-2" d="M5793.72091,2195.74062c-104.959-.38947-185.793,84.22754-185.00864,193.664.77893,111.17676,79.652,192.068,186.8225,191.63768,106.84909-.43576,185.1666-81.96975,185.4444-193.08115C5981.257,2279.63045,5899.90546,2196.13825,5793.72091,2195.74062Zm-1.60143,307.83116c-59.1167-1.81114-99.33763-52.25888-97.06077-121.75763,2.108-64.04355,47.155-113.01514,101.97944-110.85811,56.829,2.23056,99.866,56.37411,97.6436,122.828C5892.48115,2459.26013,5849.43321,2505.33935,5792.11948,2503.57178Z"/><path class="cls-2" d="M4092.77988,2352.1632c-13.6993-136.51911-126.73078-188.12979-253.16742-125.16476-9.43427,4.69807-13.49776,10.13694-17.61027,9.58134V2200.4523H3733.2645v375.23826h88.73769V2376.23638c.2778-3.33358.68633-6.68351.926-10.01165,3.98179-56.34144,47.18769-96.004,96.68492-95.34767,48.47319.64,81.7437,34.51787,87.26155,89.70454V2569.451h88.73224l-.52836-40.496-.31593-24.47082C4094.6809,2453.60338,4097.82929,2402.49655,4092.77988,2352.1632Z"/><path class="cls-2" d="M5291.44411,2490.96734c-32.84564-.49023-61.7912-18.96386-62.46663-52.39778.20154-37.7044,1.36721-102.46967,2.6636-165.11333h102.6113v-70.41114H5233.16081c1.25826-56.23521,2.30409-98.92909,2.30409-98.92909H5157.703l-.3595,98.92909h-63.57238v70.41114h63.33816l-.66454,185.31912.86063,1.80024c3.78569,68.97584,56.33326,108.90263,130.14063,107.26035,12.7733,1.29639,55.81034-4.34129,55.81034-4.34129l.90966-76.48458S5311.93042,2491.27237,5291.44411,2490.96734Z"/><path class="cls-2" d="M5472.49275,2055.7926c-29.17978,1.41623-48.14092,19.47588-46.47412,50.89167,1.65589,30.96641,20.32834,46.68112,50.96248,45.796,31.51111-.9151,44.79644-21.00377,48.33157-48.66111C5519.675,2073.0243,5502.11374,2054.35186,5472.49275,2055.7926Z"/><polygon class="cls-2" points="2388.304 2055.714 2388.304 2140.516 2388.304 2280.099 2388.304 2365.53 2388.304 2581.037 2480.898 2581.037 2480.898 2365.53 2716.341 2365.53 2716.341 2280.099 2480.898 2280.099 2480.898 2140.516 2741.511 2140.516 2741.511 2051.849 2388.304 2051.849 2388.304 2055.714"/><path class="cls-2" d="M3546.07705,2207.5389v227.629c-13.64483,42.4869-47.98841,70.56093-88.94468,70.4874-54.00738-.08443-88.84119-39.46924-90.56245-105.28035-.41943-16.11778-1.89013-32.25736-3.57326-48.39693V2200.45775h-83.77v178.24886h.34316c.39763,17.13094,1.231,34.221,3.08847,51.19944,14.42376,131.9681,119.77491,186.06263,234.51132,124.06717,10.589-5.72211,19.66925-14.52452,28.90743-14.55176v32.38537h83.77V2207.5389h-83.77Z"/><path class="cls-2" d="M4478.22317,2051.53846v188.33678c-21.94067-15.3906-33.15068-19.01561-46.63209-25.34234-76.11146-35.70533-168.94533-15.14549-216.60146,48.77822-53.26658,71.457-48.15726,195.22183,10.73611,260.19138,54.149,59.73766,159.108,74.62714,230.1319,32.18382,8.03438-4.79612,15.791-12.2858,22.36554-17.78458v37.78882h88.73224v-524.1521h-88.73224Zm-106.83276,451.82361c-58.78443,1.39444-106.78372-49.40463-107.3829-113.6252-.59372-65.83835,43.97939-115.44725,104.39248-116.20711,58.621-.73535,107.72062,50.75822,108.26532,113.55168C4477.20457,2450.97519,4431.07361,2501.94584,4371.39041,2503.36207Z"/><path class="cls-2" d="M4955.37278,2234.1967c-10.53457,1.49794-21.70645-4.57823-32.85109-11.07382-77.0429-44.97075-180.493-29.23426-233.91759,35.18241-56.66553,68.31675-56.5348,191.56415.26146,260.48552,53.46812,64.8606,167.44739,78.95209,244.67,32.61414,6.82514-4.09618,15.09919-10.88319,21.83718-14.82684v39.11245h77.76191V2200.4523h-77.76191Zm-119.24111,268.874c-61.46982-2.56283-104.79556-51.65971-103.777-117.60427,1.0077-65.30181,47.75963-113.154,109.32205-111.85764,60.4022,1.26371,104.48508,51.401,103.36843,117.54162C4943.95034,2456.58019,4896.267,2505.579,4836.13167,2503.07066Z"/><path class="cls-2" d="M5436.1828,2207.77857v30.1194a89.15082,89.15082,0,0,0-.45211,11.771c.45211,16.03881.42487,32.09123.45211,48.15182V2352.904c-.08171,10.91314-.16341,21.83172-.17431,32.74214-.01089,16.83407.0926,33.67359.17431,50.51311v24.68052c.02179,20.26843-.01634,40.53686-.50658,60.7835a130.14266,130.14266,0,0,0,.50658,15.23809v31.02632H5462.541a75.32577,75.32577,0,0,0,15.0883,1.231,70.51906,70.51906,0,0,0,12.47916-1.231H5524.915V2207.77857H5436.1828Z"/><path class="cls-2" d="M6424.03033,2409.22909c-.16886-19.56576-.7408-39.08522-2.778-58.46033-14.18409-134.52822-118.64193-188.67994-237.86669-126.76619-8.82421,4.57824-16.61892,14.88676-24.40273,19.03468v-35.83607H6070.267v360.10639h88.71591V2335.22564c15.06106-39.954,50.13453-65.59323,90.72041-64.37582,51.22939,1.54151,86.42815,39.76882,87.011,101.669.14707,14.88675.50658,27.46669,1.0077,38.53779v157.4548h28.95646a80.94915,80.94915,0,0,0,11.5804.15252c1.12209-.05992,2.20605-.10622,3.31724-.15252h42.683V2409.22909Z"/><rect class="cls-3" x="525.60016" y="2256.92434" width="1517.06827" height="118.73378"/><rect class="cls-3" x="6744.72698" y="2256.92434" width="1400.39296" height="118.73378"/></svg>