<svg xmlns="http://www.w3.org/2000/svg" role="img" viewBox="-0.76 -5.76 663.52 105.02"><title>Oracle Cloud logo</title><path d="M277.99699 59.11639h40.65191L297.15362 24.5337l-39.45125 62.52702h-17.95495l47.98587-75.10828c2.08639-3.03469 5.56353-4.8681 9.42033-4.8681 3.72988 0 7.20708 1.77022 9.23028 4.74166l48.1755 75.23472h-17.955l-8.4719-13.97216h-41.15803l-8.97748-13.97217zM464.5033 73.08856V7.84301h-15.2366v71.63104c0 1.9599.7588 3.85655 2.2128 5.31065 1.4539 1.45415 3.4139 2.27602 5.5635 2.27602h69.4816l8.9775-13.97216h-70.9988zM212.43533 61.39241c14.79428 0 26.80655-11.94902 26.80655-26.7431 0-14.79403-12.01227-26.8063-26.80655-26.8063h-66.65566v79.21771h15.23056V21.81518h50.4135c7.08118 0 12.77109 5.7532 12.77109 12.83413 0 7.08092-5.68991 12.83418-12.77109 12.83418l-42.95316-.06325 45.4819 39.64048h22.12823l-30.59965-25.66831h6.95428zM52.02121 87.06072c-21.86889 0-39.61555-17.70228-39.61555-39.57723 0-21.875 17.74666-39.64048 39.61555-39.64048h46.04457c21.87495 0 39.60898 17.76548 39.60898 39.64048 0 21.87495-17.73403 39.57723-39.60898 39.57723H52.02121zm45.02034-13.97216c14.16841 0 25.64328-11.44328 25.64328-25.60507 0-14.16185-11.47487-25.66831-25.64328-25.66831H53.03887c-14.16184 0-25.64329 11.50646-25.64329 25.66831 0 14.16179 11.48145 25.60507 25.64329 25.60507h44.00268zM386.3602 87.06072c-21.875 0-39.6403-17.70228-39.6403-39.57723 0-21.875 17.7653-39.64048 39.6403-39.64048h54.6874l-8.9143 13.97217h-44.7615c-14.1619 0-25.6681 11.50646-25.6681 25.66831 0 14.16179 11.5062 25.60507 25.6681 25.60507h54.9401l-8.9774 13.97216h-46.9743zm186.3167-13.97216c-11.6963 0-21.6222-7.8396-24.657-18.65064h65.1193l8.9775-13.97216h-74.0968c3.0348-10.7478 12.9607-18.65058 24.657-18.65058h44.6983l9.0407-13.97217h-54.7506c-21.875 0-39.6403 17.76548-39.6403 39.64048 0 21.87495 17.7653 39.57723 39.6403 39.57723h46.9743l8.9774-13.97216h-54.9401m61.8949-56.83696c0-3.85661 3.0975-6.95449 6.9543-6.95449 3.92 0 7.0175 3.09788 7.0175 6.95449 0 3.91974-3.0975 7.01768-7.0175 7.01768-3.8568 0-6.9543-3.09794-6.9543-7.01768zm6.9543 8.97757c4.9311 0 8.9143-3.98304 8.9143-8.91438s-3.9832-8.91433-8.9143-8.91433c-4.8684 0-8.8511 3.98299-8.8511 8.91433s3.9827 8.91438 8.8511 8.91438zm-.822-14.22503c1.3908 0 1.96.06319 2.5924.31606 1.77.56905 1.9595 2.14958 1.9595 2.78182 0 .12644 0 .44255-.1264.82186-.0631.37937-.3159 1.13804-1.2011 1.70703-.1264.06324-.1896.12644-.4424.25287l2.276 4.10948h-2.2128l-2.0232-3.79336h-1.3907v3.79336h-1.96v-9.98912h2.5287zm.6956 4.55198c.632-.06319 1.2644-.06319 1.6436-.63224.1895-.25287.2532-.50574.2532-.88511 0-.50574-.3164-.9483-.7588-1.20122-.4428-.18963-.8852-.18963-1.8336-.18963h-.5687v2.9082h1.2643" fill="#f80000"/></svg>