<?xml version="1.0" encoding="utf-8"?>
<!-- Generator: Adobe Illustrator 24.0.1, SVG Export Plug-In . SVG Version: 6.00 Build 0)  -->
<svg version="1.1" id="Layer_1" xmlns="http://www.w3.org/2000/svg" xmlns:xlink="http://www.w3.org/1999/xlink" x="0px" y="0px"
	 viewBox="0 0 400 245" style="enable-background:new 0 0 400 245;" xml:space="preserve">
<style type="text/css">
	.st0{fill:#7215CC;}
</style>
<g>
	<path class="st0" d="M254,135.2c3,20.1,7.8,48.1,11.3,68.6h-67.1c-2.8-19.1-6.6-41.9-9.5-60.8c-3.4-22.1-11.3-71.7-11.3-71.7
		l65.3-10.2c0,0,1.9,13.3,2.5,17.4c0.3,1.8,0.7,4.9,1,6.4c0.1,0.4,0.6,0.6,0.9,0.3c1.1-1.2,3.1-3.4,4.4-4.7
		c6.6-6.7,13.2-13.4,19.8-20c1.2-1.3,5-5.4,5-5.4l9-1.4c0,0,0.8,4.5,1.2,6.9c2.7,16.6,8.8,55.5,8.8,55.5s-22.3,3.2-30.8,4.5
		c-5,0.8-9.9,1.3-11.1,2.9C252.5,125.2,253.4,130.7,254,135.2z"/>
	<path class="st0" d="M396.4,203.7l-2.2,0.1h-64.3c-4-24.7-24.2-152.5-24.2-152.5l65.2-10.1L396.4,203.7z"/>
	<path class="st0" d="M156.4,112c-2-8.2-5.2-16-9.5-23.2c-6.5-10.8-10.6-14.4-22.9-12.5c-15.7,2.4-34.1,5.2-49.9,7.7
		c-16.4,2.6-32.9,4.9-49.3,7.7c-14.5,2.5-20.6,20-21,34.3C3,148,7,169.6,11.3,191.1c0.9,4.3,1.8,8.5,3,12.7h149.1l1.4-0.1
		c1-4,1.5-8,1.6-12.1C167.4,164.5,162.9,138.1,156.4,112z M93.1,184.8c0,0-8.1,1.4-9.9,1.5c-2.9,0.2-3.6-1.1-5.6-11.3
		c-0.6-2.8-1.1-5.6-1.6-8.5c-0.5-2.8-3.7-24.5-3.6-32.7c0-2.9,0.4-4.1,3.1-4.6c3.6-0.6,7.9-1.3,9.9-1.5c4.6-0.6,4.8-0.1,7.1,11.3
		c2.6,12.6,4.4,25.4,5.2,38.3C98,183.6,98,183.9,93.1,184.8z"/>
</g>
</svg>
