<?xml version="1.0" encoding="utf-8"?>
<!-- Generator: Adobe Illustrator 23.0.3, SVG Export Plug-In . SVG Version: 6.00 Build 0)  -->
<svg version="1.1" id="Layer_1" xmlns="http://www.w3.org/2000/svg" xmlns:xlink="http://www.w3.org/1999/xlink" x="0px" y="0px"
	 viewBox="0 0 400 245" style="enable-background:new 0 0 400 245;" xml:space="preserve">
<style type="text/css">
	.st0{fill:url(#SVGID_1_);}
	.st1{fill:url(#SVGID_2_);}
	.st2{fill:url(#SVGID_3_);}
	.st3{fill:url(#SVGID_4_);}
	.st4{fill:url(#SVGID_5_);}
	.st5{fill:url(#SVGID_6_);}
	.st6{fill:#0071CE;}
	.st7{fill:#A7A9AC;}
</style>
<g>
	
		<linearGradient id="SVGID_1_" gradientUnits="userSpaceOnUse" x1="10.4681" y1="112.6176" x2="107.6946" y2="44.5388" gradientTransform="matrix(0.9925 -0.1219 0.1219 0.9925 -14.0405 24.2381)">
		<stop  offset="0" style="stop-color:#B3B3B3"/>
		<stop  offset="0.1755" style="stop-color:#D8D8D8"/>
		<stop  offset="0.3764" style="stop-color:#FFFFFF"/>
		<stop  offset="0.6798" style="stop-color:#FFFFFF"/>
		<stop  offset="1" style="stop-color:#FFFFFF"/>
	</linearGradient>
	<path class="st0" d="M9.8,134.5c0,0,1.6-19.9,18.8-34.4c14.2-12,31.8-18.3,45.6-26.9C88,64.5,97.6,55.3,97.6,55.3l0.9,0.3
		c0,0-1.1,8.1-7.8,20c-3.5,6.1-11,16.8-28.7,23.5l-4,10.4c-7.7,3.2-19.5,7-19.5,7l-9.5-1.2C21.4,117.2,9.8,134.5,9.8,134.5z"/>
	
		<linearGradient id="SVGID_2_" gradientUnits="userSpaceOnUse" x1="13.191" y1="145.8036" x2="58.4009" y2="114.1472" gradientTransform="matrix(0.9925 -0.1219 0.1219 0.9925 -14.0405 24.2381)">
		<stop  offset="0" style="stop-color:#FFFFFF"/>
		<stop  offset="0.1663" style="stop-color:#F9F9F9"/>
		<stop  offset="0.3898" style="stop-color:#E8E8E8"/>
		<stop  offset="0.6457" style="stop-color:#CCCCCC"/>
		<stop  offset="0.9239" style="stop-color:#A5A5A5"/>
		<stop  offset="1" style="stop-color:#999999"/>
	</linearGradient>
	<path class="st1" d="M56.1,129.6l-18.2-21.4c-0.8,1-43.9,32.5-28.4,50.1c3.1,3.5,14.9,17.3,18.2,21.1c3.2,3.7,7.1,6.6,11.5,8.7
		c-1.4-1.6-2.9-5.2-2.1-13C38.9,156.2,52.5,134.9,56.1,129.6z"/>
	<g>
		
			<linearGradient id="SVGID_3_" gradientUnits="userSpaceOnUse" x1="16.4799" y1="150.5256" x2="19.4907" y2="148.4174" gradientTransform="matrix(0.9925 -0.1219 0.1219 0.9925 -14.0405 24.2381)">
			<stop  offset="0" style="stop-color:#F2F2F2"/>
			<stop  offset="1" style="stop-color:#CCCCCC"/>
		</linearGradient>
		<path class="st2" d="M6.1,150c0,2.9,1,5.6,3.3,8.3c3.1,3.5,14.9,17.3,18.2,21.1c3.1,3.5,7.4,7,12.8,9.2L6.1,150z"/>
	</g>
	
		<linearGradient id="SVGID_4_" gradientUnits="userSpaceOnUse" x1="47.6139" y1="173.6928" x2="82.9956" y2="97.8165" gradientTransform="matrix(0.9925 -0.1219 0.1219 0.9925 -14.0405 24.2381)">
		<stop  offset="0" style="stop-color:#FFFFFF"/>
		<stop  offset="0.1696" style="stop-color:#F9F9F9"/>
		<stop  offset="0.3863" style="stop-color:#EAEAEA"/>
		<stop  offset="0.6284" style="stop-color:#CFCFCF"/>
		<stop  offset="0.8873" style="stop-color:#ABABAB"/>
		<stop  offset="1" style="stop-color:#999999"/>
	</linearGradient>
	<path class="st3" d="M75.3,161.8c-4.1,1.9-8.1,2.9-11.6,2.8c-2.1-13.3,4.5-33.8,7.2-41.3l-18.6-21.2c-2.5,1-5,2.1-7.2,3l-8,62.9
		l21.3,24.1l0.7,0c11,0.1,23.3-3,35-9.1L75.3,161.8z"/>
	
		<linearGradient id="SVGID_5_" gradientUnits="userSpaceOnUse" x1="47.1319" y1="169.3371" x2="74.0287" y2="150.5037" gradientTransform="matrix(0.9925 -0.1219 0.1219 0.9925 -14.0405 24.2381)">
		<stop  offset="0" style="stop-color:#E6E6E6"/>
		<stop  offset="0.2058" style="stop-color:#DDDDDD"/>
		<stop  offset="0.5413" style="stop-color:#C4C4C4"/>
		<stop  offset="0.9627" style="stop-color:#9D9D9D"/>
		<stop  offset="1" style="stop-color:#999999"/>
	</linearGradient>
	<path class="st4" d="M75.3,161.8c-7.5,3.5-20,8.4-34.5,8.6l-3.7-2.3l21.3,24.1l0.7,0c11,0.1,23.3-3,35-9.1L75.3,161.8z"/>
	
		<linearGradient id="SVGID_6_" gradientUnits="userSpaceOnUse" x1="70.2883" y1="139.3323" x2="143.5229" y2="88.0529" gradientTransform="matrix(0.9925 -0.1219 0.1219 0.9925 -14.0405 24.2381)">
		<stop  offset="0" style="stop-color:#FFFFFF"/>
		<stop  offset="6.477726e-02" style="stop-color:#E7E7E7"/>
		<stop  offset="0.1689" style="stop-color:#C7C7C7"/>
		<stop  offset="0.2823" style="stop-color:#ADADAD"/>
		<stop  offset="0.4064" style="stop-color:#999999"/>
		<stop  offset="0.5468" style="stop-color:#8A8A8A"/>
		<stop  offset="0.717" style="stop-color:#828282"/>
		<stop  offset="1" style="stop-color:#808080"/>
	</linearGradient>
	<path class="st5" d="M132.3,87.2c-3.2-3.6-15.4-17.6-18.7-21.4l-52.3,74.9c0.1,0.2,17.9,20.5,17.9,20.5c7.6,8.8,19.1,10.8,27.7,8.5
		c7.1-1.9,12.3-6.2,14.6-8.4C143.2,136.7,148.3,105.3,132.3,87.2z"/>
	<path class="st6" d="M91.6,71.4C87.2,79.6,80.7,89.7,64.4,97c-1.1,0.5-2.1,0.9-3.1,1.4c-2.9,5.7-8.2,18.5-5.1,31.6
		c4.4,18.1,21,21.4,32.2,18.4c7.1-1.9,12.3-6.2,14.6-8.4c21.6-24.6,26.7-56,10.7-74.1c-4.1-4.7-9.3-8.1-15.2-10.2
		C97.8,57.3,95.2,64.8,91.6,71.4z"/>
	<path class="st6" d="M18.8,153.6c1.9-18.8,15.5-40.1,19-45.4c-1.5,0.7-2.9,1.4-4.3,2.1c-17.8,9.2-22.5,22-22.5,22s2.2-10.1,7-17.6
		c0.8-1.2,5.5-11.4,20.5-20.8C52.8,84.7,62.4,82.4,77.8,72c12.3-8.3,18.5-14.9,20-16.6c-19.7-6.8-47,0.2-68.9,19.6
		c-28.8,25.4-37.6,62.6-19.5,83c3.2,3.7,7.1,6.6,11.5,8.7C19.5,165,18,161.4,18.8,153.6z"/>
	<path class="st6" d="M63.5,164.5c-6.7-0.4-15.3-5.6-18.2-20c-2.7-13.2,4.3-34.6,7-42.3c-2.5,1-4.9,2-7.1,2.9
		c-2.8,5-15.4,28.8-13.2,50c1,10,5.5,14.2,8.5,15.9c11,0.1,23.1-2.9,34.8-9.1C71,163.8,67.1,164.6,63.5,164.5z"/>
	<path d="M214.5,122.1c0,12.3-7.2,26.3-26.2,26.3c-19.8,0-25.8-14.7-25.8-25.7c0-13.9,8.6-26.1,26.1-26.1
		C207.7,96.5,214.5,110.5,214.5,122.1z M177.9,122.6c0,8.4,3.4,13.5,10.7,13.5c6.2,0,10.5-4.9,10.5-14c0-2.3-0.2-4.5-0.9-6.4
		c-2.3-6.7-8.2-6.9-9.6-6.9C183.1,108.7,177.9,112.5,177.9,122.6z"/>
	<path d="M225.1,130c1.4,2.1,2.5,3.9,6.7,5.3c2,0.7,4.5,1.1,6.8,1.1c1.2,0,7.3-0.1,7.3-3.6c0-0.3,0-2.1-2.7-3
		c-1.7-0.6-10.6-2.2-12.6-2.7c-4.5-1.2-13.2-3.9-13.2-14.1c0-2.1,0.5-4.3,1.4-6.2c3.2-7.1,11.3-9.9,20-9.9c5.6,0,10.6,1.1,14.6,3.1
		c3.6,1.8,5.4,3.7,7.1,5.5l-9.6,8c-0.8-1-1.6-2.1-3.7-3.2c-2.8-1.4-6.5-1.8-9-1.8c-2.6,0-5.5,0.7-5.5,3.2c0,2.3,2.5,3,6.7,3.7
		c10.8,1.9,21.5,3.8,21.5,15.8c0,5.1-2.1,8.6-4.3,10.9c-6.1,6.2-15.9,6.2-18.5,6.2c-3.6,0-7.5-0.3-11.3-1.4
		c-7.7-2.2-11.3-6.5-13.5-9.2L225.1,130z"/>
	<path d="M265.4,98.3h15.4v48.5h-15.4V98.3z"/>
	<path class="st7" d="M297.6,132.5c-5.2-1.2-11.6-2.7-11.6-9.4c0-5.9,5-9.6,12.5-9.6c6.2,0,12.8,3,13.9,10.6l-5.9,0.8
		c-0.1-2-0.2-3.6-2.3-5.2c-2.1-1.6-4.6-1.9-6.2-1.9c-4.3,0-6.4,2.5-6.4,4.7c0,3.1,3.5,4,7.8,5.1l3.1,0.8c3.8,0.9,10.8,2.5,10.8,9.3
		c0,5.3-4.7,10.2-13.6,10.2c-3.6,0-7.4-0.8-10-2.6c-1-0.8-4.2-3.4-4.8-8.8l6.2-1c-0.1,1.4-0.1,4.2,2.4,6.3c1.9,1.6,4.3,1.8,6.5,1.8
		c4.8,0,7.6-1.8,7.6-5.4c0-3.7-2.8-4.4-6.7-5.1L297.6,132.5z"/>
	<path class="st7" d="M331.4,147.7c-11.2,0-15.9-8.4-15.9-16.9c0-7.2,3.6-17.4,16.1-17.4c10.7,0,15.6,8.3,15.6,17.2
		C347.1,140.4,341.3,147.7,331.4,147.7z M340.9,126c-1.2-6.4-5.4-8.2-9.1-8.2c-7.3,0-10.3,5.7-10.3,13.1c0,6.8,2.8,12.4,9.9,12.4
		c9.1,0,9.8-9.5,9.9-12.8C341.3,128.5,341.1,127,340.9,126z"/>
	<path class="st7" d="M359.3,114.4h6.1v4.5h-6.1v27.8H354V119h-5.4v-4.5h5.4l0.1-6.6c0.1-2.7,0.2-9.2,8.4-9.2c1.6,0,2.9,0.3,4,0.4
		v4.3c-1-0.1-2.3-0.3-3-0.3c-4.1,0-4.1,3.2-4.1,5.8V114.4z"/>
	<path class="st7" d="M378.9,114.4h5.9v4.5h-5.9v18.5c0,3.8,0,5.5,2.3,5.5c1,0,2.5-0.4,3.6-0.8v4.5c-1,0.1-3.2,0.6-5.3,0.6
		c-6.3,0-6.3-3.1-6.2-7.3v-21h-5.1v-4.5h5.1v-10.2h5.6V114.4z"/>
	<g>
		<path d="M388.7,141.2c0-3.2,2.6-5.6,5.7-5.6c3,0,5.6,2.4,5.6,5.6c0,3.2-2.6,5.6-5.6,5.6C391.3,146.8,388.7,144.4,388.7,141.2z
			 M394.4,145.9c2.5,0,4.5-2,4.5-4.7c0-2.6-2-4.6-4.5-4.6c-2.5,0-4.5,2-4.5,4.6C389.8,143.9,391.8,145.9,394.4,145.9z M393.2,144.4
			h-1V138h2.4c1.5,0,2.3,0.6,2.3,1.8c0,1.1-0.7,1.6-1.7,1.8l1.8,2.8H396l-1.7-2.8h-1.1V144.4z M394.4,140.8c0.8,0,1.6-0.1,1.6-1
			c0-0.8-0.7-0.9-1.4-0.9h-1.3v2H394.4z"/>
	</g>
</g>
</svg>
