<svg id="Layer_1" data-name="Layer 1" xmlns="http://www.w3.org/2000/svg" xmlns:xlink="http://www.w3.org/1999/xlink" viewBox="0 0 612 226"><defs><style>.cls-1{fill:url(#linear-gradient);}.cls-2{fill:url(#linear-gradient-2);}.cls-3{fill:url(#linear-gradient-3);}.cls-4{fill:url(#linear-gradient-4);}.cls-5{fill:url(#linear-gradient-5);}.cls-6{fill:url(#linear-gradient-6);}.cls-7{fill:#007dc3;}.cls-8{fill:#231f20;}.cls-9{fill:#a7a9ac;}</style><linearGradient id="linear-gradient" x1="41.63232" y1="97.55549" x2="188.28567" y2="-5.13229" gradientTransform="matrix(0.9925, -0.1219, 0.1219, 0.9925, -33.359, 38.397)" gradientUnits="userSpaceOnUse"><stop offset="0" stop-color="#b3b3b3"/><stop offset="0.17427" stop-color="#d8d8d8"/><stop offset="0.3764" stop-color="#fff"/><stop offset="0.67978" stop-color="#fff"/><stop offset="1" stop-color="#fff"/></linearGradient><linearGradient id="linear-gradient-2" x1="45.73947" y1="147.61216" x2="113.93268" y2="99.86276" gradientTransform="matrix(0.9925, -0.1219, 0.1219, 0.9925, -33.359, 38.397)" gradientUnits="userSpaceOnUse"><stop offset="0" stop-color="#fff"/><stop offset="0.16629" stop-color="#f9f9f9"/><stop offset="0.38979" stop-color="#e8e8e8"/><stop offset="0.64574" stop-color="#ccc"/><stop offset="0.92392" stop-color="#a5a5a5"/><stop offset="1" stop-color="#999"/></linearGradient><linearGradient id="linear-gradient-3" x1="50.70038" y1="154.73467" x2="55.24175" y2="151.55477" gradientTransform="matrix(0.9925, -0.1219, 0.1219, 0.9925, -33.359, 38.397)" gradientUnits="userSpaceOnUse"><stop offset="0" stop-color="#f2f2f2"/><stop offset="1" stop-color="#ccc"/></linearGradient><linearGradient id="linear-gradient-4" x1="97.66183" y1="189.67932" x2="151.03043" y2="75.22998" gradientTransform="matrix(0.9925, -0.1219, 0.1219, 0.9925, -33.359, 38.397)" gradientUnits="userSpaceOnUse"><stop offset="0" stop-color="#fff"/><stop offset="0.16964" stop-color="#f9f9f9"/><stop offset="0.38627" stop-color="#eaeaea"/><stop offset="0.62842" stop-color="#cfcfcf"/><stop offset="0.88735" stop-color="#ababab"/><stop offset="1" stop-color="#999"/></linearGradient><linearGradient id="linear-gradient-5" x1="96.93478" y1="183.10932" x2="137.50504" y2="154.70172" gradientTransform="matrix(0.9925, -0.1219, 0.1219, 0.9925, -33.359, 38.397)" gradientUnits="userSpaceOnUse"><stop offset="0" stop-color="#e6e6e6"/><stop offset="0.20482" stop-color="#ddd"/><stop offset="0.53873" stop-color="#c5c5c5"/><stop offset="0.95809" stop-color="#9d9d9d"/><stop offset="1" stop-color="#999"/></linearGradient><linearGradient id="linear-gradient-6" x1="131.8632" y1="137.85101" x2="242.32781" y2="60.50286" gradientTransform="matrix(0.9925, -0.1219, 0.1219, 0.9925, -33.359, 38.397)" gradientUnits="userSpaceOnUse"><stop offset="0" stop-color="#fff"/><stop offset="0.06359" stop-color="#e8e8e8"/><stop offset="0.1678" stop-color="#c8c8c8"/><stop offset="0.28133" stop-color="#aeaeae"/><stop offset="0.40562" stop-color="#999"/><stop offset="0.54619" stop-color="#8b8b8b"/><stop offset="0.71664" stop-color="#838383"/><stop offset="1" stop-color="gray"/></linearGradient></defs><title>OSIsoft</title><path class="cls-1" d="M19.47084,129.72134s2.46873-29.95266,28.31978-51.92275c21.391-18.1752,47.93683-27.56981,68.7472-40.60723A250.91283,250.91283,0,0,0,151.94,10.3557l1.40108.49759s-1.68771,12.22338-11.7617,30.13445C136.371,50.24449,124.99144,66.33127,98.2308,76.4883L92.21323,92.223c-11.61937,4.84836-29.43457,10.48443-29.43457,10.48443L48.4575,100.85523C36.88368,103.72184,19.47084,129.72134,19.47084,129.72134Z"/><path class="cls-2" d="M89.23407,122.43251,61.72672,90.12238c-1.24781,1.512-66.17522,49.03108-42.78681,75.5192,4.67005,5.28691,22.41953,26.15628,27.39641,31.78748a54.51967,54.51967,0,0,0,17.36282,13.0705c-2.068-2.45013-4.36-7.84028-3.18273-19.62667C63.35482,162.51239,83.90483,130.40873,89.23407,122.43251Z"/><path class="cls-3" d="M13.92585,153.18831a18.54877,18.54877,0,0,0,5.01406,12.48148c4.67005,5.2882,22.41953,26.16109,27.39641,31.792a51.35693,51.35693,0,0,0,19.29,13.81267Z"/><path class="cls-4" d="M118.26593,171.024c-6.22439,2.79255-12.24038,4.35522-17.54909,4.17664-3.17472-20.02744,6.84125-50.91148,10.88963-62.24581L83.5528,80.95636C79.71892,82.52961,75.96,84.142,72.64137,85.50555L60.637,180.41833,92.772,216.72394l1.03622.01246c16.63342.202,35.136-4.468,52.72743-13.6966Z"/><path class="cls-5" d="M118.24894,171.041c-11.375,5.2914-30.22519,12.66326-52.00125,12.92809l-5.628-3.53027L92.75152,216.7364l1.04424.02025c16.63342.202,35.13281-4.471,52.72422-13.69949Z"/><path class="cls-6" d="M204.19929,58.38037c-4.82491-5.462-23.18964-26.58365-28.20885-32.26973L97.124,139.09864c.15646.33985,27.04246,30.96868,27.04246,30.96868A41.8149,41.8149,0,0,0,166.012,182.90917a52.64175,52.64175,0,0,0,22.02965-12.68987C220.60091,133.09515,228.35783,85.74184,204.19929,58.38037Z"/><path class="cls-7" d="M142.86467,34.61459c-6.738,12.40645-16.50966,27.61058-41.0834,38.54253-1.61557.7217-3.1824,1.404-4.70275,2.06315-4.42543,8.62739-12.42826,27.92991-7.663,47.69605,6.60624,27.33357,31.69648,32.31494,48.521,27.81577a52.56773,52.56773,0,0,0,22.02486-12.69024c32.56406-37.12859,40.31779-84.47709,16.16212-111.84048a55.592,55.592,0,0,0-22.99856-15.42791A167.6035,167.6035,0,0,1,142.86467,34.61459Z"/><path class="cls-7" d="M32.95905,158.57494c2.83518-28.3605,23.38842-60.47634,28.72216-68.45256-2.20582,1.01122-4.36,2.05064-6.503,3.1574-26.81546,13.86877-33.91351,33.13058-33.91351,33.13058s3.3645-15.1836,10.61742-26.60385c1.19268-1.87238,8.37057-17.15955,30.85583-31.382C84.35273,54.7497,98.71461,51.22749,122.078,35.46293c18.60584-12.55522,27.85938-22.47275,30.10143-25.02131C122.45989.19386,81.35628,10.72344,48.25393,39.948,4.80984,78.30265-8.38884,134.36318,18.779,165.13918a54.48369,54.48369,0,0,0,17.36731,13.05308C34.07382,175.7518,31.78176,170.35235,32.95905,158.57494Z"/><path class="cls-7" d="M100.41,174.96886c-10.06917-.55883-23.0739-8.49433-27.44641-30.17169C68.945,124.856,79.41208,92.5677,83.573,80.91885c-3.8339,1.57486-7.35615,2.99934-10.67032,4.36772C68.67121,92.81489,49.6473,128.74315,52.966,160.75126c1.56237,15.08037,8.258,21.383,12.80915,23.96745,16.6331.20039,34.8744-4.44113,52.47062-13.67448C111.802,173.94194,105.872,175.268,100.41,174.96886Z"/><path class="cls-8" d="M328.18946,111.045c0,18.5276-10.86911,39.64-39.54125,39.64-29.90713,0-38.91669-22.15342-38.91669-38.81185,0-20.92259,12.94188-39.35016,39.33-39.35016C317.94169,72.523,328.18946,93.63983,328.18946,111.045Zm-55.2683.7249c0,12.7306,5.17246,20.38909,16.14032,20.38909,9.31158,0,15.8383-7.34846,15.8383-21.114a28.56816,28.56816,0,0,0-1.351-9.6386,14.76315,14.76315,0,0,0-14.48726-10.45585C280.78645,90.95052,272.92116,96.644,272.92116,111.76987Z"/><path class="cls-8" d="M344.123,123.04937c2.07116,3.20774,3.82941,5.90185,10.14453,7.973a32.7844,32.7844,0,0,0,10.24776,1.65789c1.86437,0,10.974-.21129,10.974-5.49018,0-.51812,0-3.21255-4.042-4.5556-2.58607-.92689-16.04478-3.30937-19.04123-4.03588-6.7332-1.76113-19.87384-5.89576-19.87384-21.333a22.69,22.69,0,0,1,2.068-9.42283c4.76076-10.76107,17.07648-15.00535,30.22195-15.00535,8.38631,0,16.04317,1.65341,22.04858,4.65755a34.649,34.649,0,0,1,10.76716,8.27984L383.14451,97.887a14.96057,14.96057,0,0,0-5.58858-4.76047c-4.24719-2.07277-9.83292-2.69444-13.56358-2.69444-3.93264,0-8.275,1.03655-8.275,4.76239,0,3.52226,3.72585,4.45364,10.03616,5.59342,16.25157,2.79763,32.40119,5.69859,32.40119,23.81581a23.09876,23.09876,0,0,1-6.52192,16.45511c-9.21122,9.41962-23.90974,9.41962-27.94722,9.41962a60.623,60.623,0,0,1-16.973-2.17627c-11.59435-3.30622-16.98255-9.82809-20.29194-13.86846Z"/><path class="cls-8" d="M404.98341,75.21546h23.18484v73.08671H404.98341Z"/><path class="cls-9" d="M453.52941,126.77522c-7.86529-1.86469-17.493-4.03588-17.493-14.18046,0-8.90595,7.55814-14.49937,18.836-14.49937,9.318,0,19.25251,4.45364,20.912,15.94924l-8.90151,1.13978c-.10324-3.00447-.31-5.38246-3.51938-7.86978a15.2128,15.2128,0,0,0-9.418-2.89931c-6.41836,0-9.6338,3.82749-9.6338,7.14808,0,4.65242,5.285,6.10384,11.70047,7.66138l4.65883,1.13176c5.79541,1.35107,16.24676,3.83229,16.24676,14.07717,0,7.973-7.03522,15.42311-20.48911,15.42311-5.48891,0-11.18075-1.135-15.1134-3.92789a18.59282,18.59282,0,0,1-7.24522-13.24865l9.31478-1.45147a11.08078,11.08078,0,0,0,3.62261,9.52323c2.8929,2.48732,6.52192,2.78966,9.8345,2.78966,7.242,0,11.48757-2.78966,11.48757-8.07337,0-5.58893-4.24556-6.62195-10.14452-7.76173Z"/><path class="cls-9" d="M504.55823,149.75358c-16.87612,0-24.01487-12.62736-24.01487-25.46439,0-10.86623,5.38531-26.29735,24.32779-26.29735,16.14353,0,23.59843,12.53053,23.49519,25.88247C528.26278,138.68088,519.46163,149.75358,504.55823,149.75358Zm14.28044-32.708c-1.86308-9.6261-8.17179-12.42377-13.76713-12.42377-11.07111,0-15.52346,8.59468-15.52346,19.77543,0,10.24291,4.24588,18.73408,14.90692,18.73408,13.76684,0,14.79694-14.28493,14.90659-19.257A28.4013,28.4013,0,0,0,518.83867,117.04557Z"/><path class="cls-9" d="M546.5791,99.54489h9.21155v6.838H546.5791v41.91924h-7.965V106.38293h-8.18142v-6.838h8.18142l.1-9.93613c.10323-4.14072.31-13.87038,12.62735-13.87038a41.44849,41.44849,0,0,1,6.00189.61686v6.42029a40.92041,40.92041,0,0,0-4.55239-.41488c-6.1115,0-6.21189,4.86531-6.21189,8.69311Z"/><path class="cls-9" d="M576.18262,99.54489h8.90471v6.838h-8.90471v27.95043c0,5.797,0,8.27984,3.52258,8.27984a20.80386,20.80386,0,0,0,5.38213-1.13946v6.82843a55.21233,55.21233,0,0,1-7.96852.8329c-9.52126,0-9.52126-4.662-9.418-11.07586V106.38293H559.933v-6.838h7.76782V84.117h8.48183Z"/><path class="cls-8" d="M590.98919,139.93159a8.50588,8.50588,0,1,1,8.52254,8.4161A8.37831,8.37831,0,0,1,590.98919,139.93159Zm8.52254,7.01663a6.9972,6.9972,0,1,0-6.84125-7.01663A6.77824,6.77824,0,0,0,599.51173,146.94822Zm-1.772-2.15581h-1.46841v-9.68418h3.688c2.28568,0,3.419.84231,3.419,2.75541a2.52418,2.52418,0,0,1-2.511,2.6691l2.75535,4.25967h-1.64375l-2.55788-4.19234h-1.6813Zm1.75023-5.437c1.2459,0,2.3575-.09073,2.3575-1.57806,0-1.2023-1.09268-1.42609-2.11031-1.42609H597.7397v3.00415Z"/></svg>