<?xml version="1.0" encoding="utf-8"?>
<!-- Generator: Adobe Illustrator 23.0.3, SVG Export Plug-In . SVG Version: 6.00 Build 0)  -->
<svg version="1.1" id="Layer_1" xmlns="http://www.w3.org/2000/svg" xmlns:xlink="http://www.w3.org/1999/xlink" x="0px" y="0px"
	 viewBox="0 0 400 245" style="enable-background:new 0 0 400 245;" xml:space="preserve">
<style type="text/css">
	.st0{fill:#A6CE39;}
	.st1{fill:#127BA6;}
	.st2{fill:#78909C;}
</style>
<g id="XMLID_820_">
	<g id="XMLID_834_">
		<g id="XMLID_835_">
			<g id="XMLID_1066_">
				<path id="XMLID_1082_" class="st0" d="M334.09,118.37v32.17h-7.72v-30.09c0-9.2-5.54-14.65-14.75-14.65
					c-10.29,0.1-16.63,6.83-17.52,16.73v28.01h-7.72V98.37h7.72v11.48c3.66-7.92,10.69-11.68,20.2-11.78
					C326.76,98.08,334.09,105.8,334.09,118.37z"/>
				<path id="XMLID_1080_" class="st0" d="M344.68,93.23v6.73h17.48l-2.53,6.34h-14.95v44.25h-7.62v-44.25h-6.73v-6.34h6.73v-5.74
					c0-11.38,8.02-17.52,16.73-17.52c3.96,0.1,8.02,1.29,11.19,3.66l-3.17,6.24c-2.38-1.68-5.25-2.67-7.92-2.67
					C348.83,83.92,344.68,87.19,344.68,93.23z"/>
				<path id="XMLID_1077_" class="st0" d="M398.32,124.41c0,15.64-10.99,26.43-26.43,26.43c-15.44,0-26.43-10.79-26.43-26.43
					c0-15.54,10.99-26.23,26.43-26.23C387.34,98.18,398.32,108.87,398.32,124.41z M353.19,124.51c0,11.48,7.82,19.4,18.71,19.4
					c10.89,0,18.71-7.92,18.71-19.4c0-11.38-7.82-19.3-18.71-19.3C361,105.21,353.19,113.12,353.19,124.51z"/>
				<path id="XMLID_1074_" class="st1" d="M184.54,115.8c0,20.19-16.03,35.54-37.52,35.54c-21.38,0-37.42-15.24-37.42-35.54
					c0-20.19,16.04-35.14,37.42-35.14C168.5,80.66,184.54,95.7,184.54,115.8z M127.62,115.9c0,11.68,9.01,20.69,19.6,20.69
					c10.69,0,19.2-9.01,19.2-20.69c0-11.68-8.51-20.49-19.2-20.49C136.53,95.41,127.62,104.21,127.62,115.9z"/>
				<polygon id="XMLID_1073_" class="st1" points="229.05,81.15 152.26,81.15 169.48,95.41 190.17,95.41 190.17,150.54 
					207.79,150.54 207.79,95.41 222.9,95.41 				"/>
				<path id="XMLID_1070_" class="st1" d="M228.68,137.77l-5.05,12.77h-18.11l29.89-69.29h18.11l29.2,69.29h-18.81l-4.95-12.77
					H228.68z M243.92,98.77l-10.1,25.64h19.99L243.92,98.77z"/>
				<g id="XMLID_1067_">
					<polygon id="XMLID_1069_" class="st0" points="275.79,117.82 283.41,135.91 283.41,98.37 275.79,98.37 					"/>
					<path id="XMLID_1068_" class="st0" d="M279.55,88.77c2.87,0,5.05-2.27,5.05-5.34c0-3.07-2.18-5.35-5.05-5.35
						c-2.87,0-5.05,2.28-5.05,5.35C274.5,86.5,276.68,88.77,279.55,88.77z"/>
				</g>
			</g>
			<g id="XMLID_836_">
				<path id="XMLID_1064_" class="st2" d="M115.26,162.27l-0.63,1.31c-0.7-0.41-1.58-0.69-2.12-0.69c-0.44,0-0.73,0.16-0.73,0.48
					c0,1.14,3.5,0.49,3.5,2.89c0,1.32-1.17,2.02-2.65,2.02c-1.11,0-2.24-0.42-3.03-1.06l0.65-1.3c0.68,0.6,1.7,0.99,2.39,0.99
					c0.53,0,0.86-0.2,0.86-0.58c0-1.17-3.5-0.47-3.5-2.82c0-1.22,1.05-2,2.64-2C113.61,161.53,114.58,161.82,115.26,162.27z"/>
				<path id="XMLID_1062_" class="st2" d="M119.02,162.93v1.31h3.16v1.33h-3.16v1.33h3.6v1.32h-5.29v-6.62h5.18v1.32H119.02z"/>
				<path id="XMLID_1060_" class="st2" d="M130.61,162.66l-0.97,1.15c-0.43-0.53-1.08-0.86-1.67-0.86c-1.05,0-1.84,0.83-1.84,1.92
					c0,1.11,0.79,1.95,1.84,1.95c0.56,0,1.2-0.3,1.67-0.78l0.98,1.04c-0.71,0.73-1.76,1.21-2.73,1.21c-2,0-3.48-1.47-3.48-3.41
					c0-1.91,1.52-3.35,3.54-3.35C128.93,161.55,129.95,161.98,130.61,162.66z"/>
				<path id="XMLID_1058_" class="st2" d="M138.48,165.44c0,1.75-1.16,2.86-3.02,2.86c-1.86,0-3.06-1.11-3.06-2.86v-3.84h1.68v3.84
					c0,0.9,0.58,1.45,1.38,1.45c0.79,0,1.33-0.55,1.33-1.45v-3.84h1.67V165.44z"/>
				<path id="XMLID_1055_" class="st2" d="M143.84,166.36h-0.05h-1.28v1.86h-1.68v-6.62h2.96c1.75,0,2.75,0.83,2.75,2.31
					c0,1.01-0.43,1.74-1.2,2.13l1.39,2.19h-1.91L143.84,166.36z M143.79,165.04c0.73,0,1.15-0.37,1.15-1.07
					c0-0.69-0.43-1.04-1.15-1.04h-1.28v2.11H143.79z"/>
				<path id="XMLID_1053_" class="st2" d="M150.49,162.93v1.31h3.16v1.33h-3.16v1.33h3.6v1.32h-5.29v-6.62H154v1.32H150.49z"/>
				<path id="XMLID_1050_" class="st2" d="M159.17,161.6c2.08,0,3.52,1.34,3.52,3.31c0,1.96-1.46,3.31-3.59,3.31h-2.78v-6.62H159.17
					z M158.01,166.88h1.2c1.03,0,1.77-0.79,1.77-1.96c0-1.17-0.78-1.98-1.84-1.98h-1.13V166.88z"/>
				<path id="XMLID_1047_" class="st2" d="M174.77,164.91c0,1.93-1.53,3.4-3.59,3.4c-2.04,0-3.58-1.46-3.58-3.4
					c0-1.93,1.53-3.36,3.58-3.36C173.23,161.55,174.77,162.99,174.77,164.91z M169.33,164.92c0,1.12,0.86,1.98,1.87,1.98
					c1.02,0,1.83-0.86,1.83-1.98c0-1.12-0.81-1.96-1.83-1.96C170.18,162.96,169.33,163.8,169.33,164.92z"/>
				<path id="XMLID_1045_" class="st2" d="M178.6,168.23l-2.57-6.62h1.8l1.69,4.87l1.69-4.87h1.73l-2.6,6.62H178.6z"/>
				<path id="XMLID_1043_" class="st2" d="M186.41,162.93v1.31h3.16v1.33h-3.16v1.33h3.6v1.32h-5.29v-6.62h5.18v1.32H186.41z"/>
				<path id="XMLID_1040_" class="st2" d="M195.24,166.36h-0.05h-1.28v1.86h-1.68v-6.62h2.96c1.75,0,2.75,0.83,2.75,2.31
					c0,1.01-0.43,1.74-1.2,2.13l1.39,2.19h-1.91L195.24,166.36z M195.2,165.04c0.73,0,1.15-0.37,1.15-1.07
					c0-0.69-0.43-1.04-1.15-1.04h-1.28v2.11H195.2z"/>
				<path id="XMLID_1038_" class="st2" d="M206.61,162.96v5.27h-1.68v-5.27h-1.98v-1.36h5.66v1.36H206.61z"/>
				<path id="XMLID_1036_" class="st2" d="M214.89,168.23v-2.57h-2.74v2.57h-1.68v-6.62h1.68v2.72h2.74v-2.72h1.68v6.62H214.89z"/>
				<path id="XMLID_1034_" class="st2" d="M220.72,162.93v1.31h3.16v1.33h-3.16v1.33h3.6v1.32h-5.29v-6.62h5.18v1.32H220.72z"/>
				<path id="XMLID_1031_" class="st2" d="M231.38,167.01l-0.48,1.22h-1.73l2.86-6.62h1.73l2.79,6.62h-1.8l-0.47-1.22H231.38z
					 M232.83,163.28l-0.97,2.45h1.91L232.83,163.28z"/>
				<path id="XMLID_1029_" class="st2" d="M238.29,168.23v-6.62h1.68v6.62H238.29z"/>
				<path id="XMLID_1026_" class="st2" d="M245.44,166.36h-0.05h-1.28v1.86h-1.68v-6.62h2.96c1.75,0,2.75,0.83,2.75,2.31
					c0,1.01-0.43,1.74-1.2,2.13l1.39,2.19h-1.91L245.44,166.36z M245.39,165.04c0.73,0,1.15-0.37,1.15-1.07
					c0-0.69-0.43-1.04-1.15-1.04h-1.28v2.11H245.39z"/>
				<path id="XMLID_922_" class="st2" d="M253.74,168.23v-6.62h1.68v6.62H253.74z"/>
				<path id="XMLID_920_" class="st2" d="M262.51,168.23l-3.05-4.08v4.08h-1.58v-6.62h1.49l3.06,4.09v-4.09H264v6.62H262.51z"/>
				<path id="XMLID_918_" class="st2" d="M268.14,162.93v1.53h2.97v1.33h-2.97v2.44h-1.68v-6.62h4.91v1.32H268.14z"/>
				<path id="XMLID_915_" class="st2" d="M280.03,164.91c0,1.93-1.53,3.4-3.59,3.4c-2.04,0-3.58-1.46-3.58-3.4
					c0-1.93,1.53-3.36,3.58-3.36C278.5,161.55,280.03,162.99,280.03,164.91z M274.59,164.92c0,1.12,0.86,1.98,1.87,1.98
					c1.02,0,1.83-0.86,1.83-1.98c0-1.12-0.81-1.96-1.83-1.96C275.44,162.96,274.59,163.8,274.59,164.92z"/>
				<path id="XMLID_912_" class="st2" d="M285.06,166.36h-0.05h-1.28v1.86h-1.68v-6.62h2.96c1.75,0,2.75,0.83,2.75,2.31
					c0,1.01-0.43,1.74-1.2,2.13l1.39,2.19h-1.91L285.06,166.36z M285.01,165.04c0.73,0,1.15-0.37,1.15-1.07
					c0-0.69-0.43-1.04-1.15-1.04h-1.28v2.11H285.01z"/>
				<path id="XMLID_910_" class="st2" d="M295.83,168.23l-0.01-4.3l-1.59,3.64h-1.1l-1.59-3.64v4.3h-1.5v-6.63h1.85l1.8,3.94
					l1.8-3.94h1.83v6.63H295.83z"/>
				<path id="XMLID_907_" class="st2" d="M301.28,167.01l-0.48,1.22h-1.73l2.86-6.62h1.73l2.79,6.62h-1.8l-0.47-1.22H301.28z
					 M302.74,163.28l-0.97,2.45h1.91L302.74,163.28z"/>
				<path id="XMLID_904_" class="st2" d="M310.55,162.96v5.27h-1.68v-5.27h-1.98v-1.36h5.66v1.36H310.55z"/>
				<path id="XMLID_902_" class="st2" d="M314.4,168.23v-6.62h1.68v6.62H314.4z"/>
				<path id="XMLID_899_" class="st2" d="M325.27,164.91c0,1.93-1.53,3.4-3.59,3.4c-2.04,0-3.58-1.46-3.58-3.4
					c0-1.93,1.53-3.36,3.58-3.36C323.74,161.55,325.27,162.99,325.27,164.91z M319.83,164.92c0,1.12,0.86,1.98,1.87,1.98
					c1.02,0,1.83-0.86,1.83-1.98c0-1.12-0.81-1.96-1.83-1.96S319.83,163.8,319.83,164.92z"/>
				<path id="XMLID_897_" class="st2" d="M331.92,168.23l-3.05-4.08v4.08h-1.58v-6.62h1.49l3.06,4.09v-4.09h1.57v6.62H331.92z"/>
				<path id="XMLID_895_" class="st2" d="M342.26,162.96v5.27h-1.68v-5.27h-1.98v-1.36h5.66v1.36H342.26z"/>
				<path id="XMLID_892_" class="st2" d="M349.11,166.36h-0.05h-1.28v1.86h-1.68v-6.62h2.96c1.75,0,2.75,0.83,2.75,2.31
					c0,1.01-0.43,1.74-1.2,2.13l1.39,2.19h-1.91L349.11,166.36z M349.07,165.04c0.73,0,1.15-0.37,1.15-1.07
					c0-0.69-0.43-1.04-1.15-1.04h-1.28v2.11H349.07z"/>
				<path id="XMLID_889_" class="st2" d="M355.59,167.01l-0.48,1.22h-1.73l2.86-6.62h1.73l2.79,6.62h-1.8l-0.47-1.22H355.59z
					 M357.05,163.28l-0.97,2.45H358L357.05,163.28z"/>
				<path id="XMLID_846_" class="st2" d="M367.13,168.23l-3.05-4.08v4.08h-1.58v-6.62h1.49l3.06,4.09v-4.09h1.57v6.62H367.13z"/>
				<path id="XMLID_844_" class="st2" d="M376.23,162.27l-0.63,1.31c-0.7-0.41-1.58-0.69-2.12-0.69c-0.44,0-0.73,0.16-0.73,0.48
					c0,1.14,3.5,0.49,3.5,2.89c0,1.32-1.17,2.02-2.65,2.02c-1.11,0-2.24-0.42-3.03-1.06l0.65-1.3c0.68,0.6,1.7,0.99,2.39,0.99
					c0.53,0,0.86-0.2,0.86-0.58c0-1.17-3.5-0.47-3.5-2.82c0-1.22,1.05-2,2.64-2C374.58,161.53,375.55,161.82,376.23,162.27z"/>
				<path id="XMLID_842_" class="st2" d="M379.99,162.93v1.53h2.97v1.33h-2.97v2.44h-1.68v-6.62h4.91v1.32H379.99z"/>
				<path id="XMLID_840_" class="st2" d="M386.83,162.93v1.31h3.16v1.33h-3.16v1.33h3.6v1.32h-5.29v-6.62h5.18v1.32H386.83z"/>
				<path id="XMLID_837_" class="st2" d="M395.67,166.36h-0.05h-1.28v1.86h-1.68v-6.62h2.96c1.75,0,2.75,0.83,2.75,2.31
					c0,1.01-0.43,1.74-1.2,2.13l1.39,2.19h-1.91L395.67,166.36z M395.62,165.04c0.73,0,1.15-0.37,1.15-1.07
					c0-0.69-0.43-1.04-1.15-1.04h-1.28v2.11H395.62z"/>
			</g>
		</g>
	</g>
	<g id="XMLID_821_">
		<path id="XMLID_833_" class="st1" d="M1.44,90.9c0,0,0.23-0.37,0.65-1.05c0.44-0.68,1.08-1.69,1.99-2.9
			c1.82-2.41,4.59-5.81,8.6-9.17c3.99-3.38,9.21-6.74,15.35-9.13c3.07-1.19,6.34-2.18,9.74-2.81c3.41-0.64,6.91-0.97,10.44-0.99
			c3.5,0.01,7.03,0.35,10.43,0.99c3.41,0.62,6.68,1.62,9.75,2.81c6.14,2.39,11.36,5.75,15.35,9.13c4.02,3.37,6.78,6.76,8.6,9.17
			c0.91,1.21,1.55,2.22,1.99,2.9c0.43,0.69,0.65,1.05,0.65,1.05s-1.02-1.4-2.99-3.67c-1.96-2.27-5-5.33-9.08-8.42
			c-2.04-1.54-4.36-3.06-6.91-4.48c-2.55-1.41-5.36-2.7-8.34-3.78c-2.98-1.09-6.16-1.92-9.43-2.52c-3.28-0.59-6.64-0.88-10.04-0.87
			c-6.75-0.04-13.49,1.23-19.46,3.39c-5.98,2.15-11.16,5.19-15.24,8.26c-4.08,3.08-7.12,6.15-9.08,8.42
			C2.45,89.5,1.44,90.9,1.44,90.9z"/>
		<path id="XMLID_832_" class="st0" d="M14.87,89.09c0,0,0.19-0.22,0.55-0.63c0.37-0.4,0.9-1,1.62-1.72
			c1.44-1.43,3.64-3.41,6.58-5.33c2.93-1.95,6.65-3.84,10.88-5.18c2.12-0.66,4.34-1.23,6.66-1.57c2.31-0.35,4.68-0.54,7.05-0.55
			c2.37,0.01,4.74,0.2,7.05,0.55c2.31,0.34,4.54,0.91,6.66,1.57c4.23,1.34,7.94,3.24,10.88,5.18c2.95,1.93,5.14,3.9,6.58,5.33
			c0.73,0.71,1.26,1.31,1.62,1.72c0.36,0.41,0.55,0.63,0.55,0.63s-0.87-0.77-2.48-2c-1.6-1.23-3.96-2.9-6.96-4.54
			c-3.01-1.64-6.68-3.24-10.78-4.37c-2.04-0.58-4.2-0.99-6.4-1.31c-2.2-0.31-4.46-0.46-6.72-0.45c-2.26-0.01-4.52,0.14-6.72,0.45
			c-2.2,0.32-4.36,0.73-6.4,1.31c-4.1,1.13-7.77,2.73-10.78,4.37c-3.01,1.65-5.36,3.31-6.96,4.54
			C15.75,88.32,14.87,89.09,14.87,89.09z"/>
		<path id="XMLID_830_" class="st1" d="M94.99,154.1c0,0-0.23,0.37-0.65,1.05c-0.44,0.68-1.08,1.69-1.99,2.9
			c-1.82,2.41-4.59,5.81-8.6,9.17c-3.99,3.38-9.21,6.74-15.35,9.13c-3.07,1.19-6.34,2.18-9.74,2.81c-3.41,0.64-6.92,0.97-10.44,0.99
			c-3.52-0.01-7.03-0.35-10.43-0.99c-3.41-0.62-6.68-1.62-9.75-2.81c-6.14-2.39-11.36-5.75-15.35-9.13
			c-4.02-3.37-6.78-6.76-8.6-9.17c-0.91-1.21-1.55-2.22-1.99-2.9c-0.43-0.69-0.65-1.05-0.65-1.05s1.02,1.4,2.99,3.67
			c1.96,2.27,5,5.33,9.08,8.42c2.04,1.54,4.36,3.06,6.91,4.48c2.55,1.41,5.36,2.7,8.34,3.78c2.98,1.09,6.16,1.92,9.43,2.52
			c3.27,0.59,6.65,0.88,10.03,0.87c6.76,0.04,13.5-1.23,19.46-3.39c5.98-2.15,11.16-5.19,15.24-8.26c4.08-3.08,7.12-6.15,9.08-8.42
			C93.97,155.5,94.99,154.1,94.99,154.1z"/>
		<path id="XMLID_829_" class="st0" d="M81.55,155.91c0,0-0.19,0.22-0.55,0.63c-0.37,0.4-0.9,1-1.62,1.72
			c-1.44,1.43-3.64,3.41-6.58,5.33c-2.93,1.95-6.65,3.84-10.88,5.18c-2.12,0.66-4.34,1.23-6.66,1.57c-2.31,0.35-4.67,0.54-7.05,0.55
			c-2.36-0.01-4.74-0.2-7.04-0.55c-2.31-0.34-4.54-0.91-6.66-1.57c-4.23-1.34-7.94-3.24-10.88-5.18c-2.95-1.93-5.14-3.9-6.58-5.33
			c-0.73-0.71-1.26-1.31-1.62-1.72c-0.36-0.41-0.55-0.63-0.55-0.63s0.87,0.77,2.48,2c1.6,1.23,3.96,2.9,6.96,4.54
			c3.01,1.64,6.68,3.24,10.78,4.37c2.04,0.58,4.2,0.99,6.4,1.31c2.21,0.31,4.46,0.46,6.73,0.45c2.24,0.01,4.52-0.14,6.72-0.45
			c2.2-0.32,4.36-0.73,6.4-1.31c4.1-1.13,7.77-2.73,10.78-4.37c3.01-1.65,5.36-3.31,6.96-4.54
			C80.68,156.68,81.55,155.91,81.55,155.91z"/>
		<g id="XMLID_825_">
			<path id="XMLID_827_" class="st1" d="M53.06,156.03c-16.24,0-29.82-11.39-33.19-26.61h-9.13c3.44,17.52,18.88,30.73,37.4,30.73
				c13.88,0,26.03-7.42,32.69-18.5C74.68,150.35,64.54,156.03,53.06,156.03z"/>
			<path id="XMLID_826_" class="st1" d="M43.07,88.59c16.21,0,29.76,11.34,33.17,26.52c3.24,0.55,5.86,1.52,7.38,2.18
				c0.74,0.32,1.51,0.7,2.26,1.12C83.8,99.33,67.63,84.47,47.99,84.47c-13.88,0-26.03,7.42-32.69,18.5
				C21.46,94.28,31.6,88.59,43.07,88.59z"/>
		</g>
		<g id="XMLID_822_">
			<path id="XMLID_824_" class="st0" d="M4.25,128.2c-1.69-2.74-2.7-5.18,0.34-6.74c-0.8-1.98-1.26-2.23-1.26-3.62
				s2.28-3.71,12.64-3.71s32.96,3.96,32.96,3.96c-19.6-1.77-30.39-1.98-33.67-1.85s-10.11,1.22-10.11,2.99
				c0,0.72,0.97,1.48,0.97,1.98C6.1,122.64,2.39,122.93,4.25,128.2z"/>
			<path id="XMLID_823_" class="st0" d="M57.26,118.47l-33.25-4.8c6.07-3.08,14.84-4.17,19.22-4.17c8.85,0,16.27,2.15,24.02,7.63
				c10.03-1.85,20.52,3.84,20.52,5.77c0,1.18-0.93,3.2-1.43,3.96c0.51-2.44,0.17-3.62,0.17-3.62c-1.39-2.07-7.5-6.07-19.81-5.14
				c-9.36-6.57-21.24-8.93-33.17-4L57.26,118.47z"/>
		</g>
	</g>
</g>
</svg>
