<svg id="Layer_1" data-name="Layer 1" xmlns="http://www.w3.org/2000/svg" viewBox="0 0 669.7517 250.10476"><defs><style>.cls-1{fill:#394c63;}</style></defs><title>packet</title><path class="cls-1" d="M89.12466,62.80457c-10.28539,0-19.11344,2.69986-26.77089,8.31458C57.77849,74.464,53.2509,80.58029,49.42813,85.99194,47.15828,76.5306,44.20765,64.274,44.20765,64.274l-29.13633.03577a2.924,2.924,0,0,0-2.91486,2.93871V78.27467a2.91677,2.91677,0,0,0,2.95063,2.93891l16.199-.036s3.98988,14.31143,6.51051,24.39393c-3.39257,6.12819-6.68975,11.40829-9.52095,16.86763C12.19223,153.52284,4.83343,174.98979,4.83343,198.46389c0,28.09708,12.34044,46.31473,30.7254,46.31473,21.29983,0,33.99834-19.08979,33.99834-52.13253,0-.63309-.04788-2.79544-.1075-4.0497a44.32148,44.32148,0,0,0,18.3492,4.68279c23.61718,0,43.14909-15.61338,47.28224-37.12821a138.654,138.654,0,0,0,2.40121-27.85823c0-11.695-1.25426-21.84926-3.66758-30.16365C127.2327,75.68251,110.96219,62.80457,89.12466,62.80457ZM35.55883,228.48427c-9.04325,0-13.77372-15.11183-13.77372-30.02038,0-18.93459,5.45933-39.8998,21.94464-71.70021,4.82625,22.10023,8.8521,49.43267,8.8521,65.88241C52.58185,203.43341,50.94528,228.48427,35.55883,228.48427Zm82.85774-75.54683c-2.59236,13.53488-15.70915,23.928-31.17925,23.928-6.48686,0-13.16448-2.24581-19.00613-4.20508-2.41293-20.77405-7.80073-46.23107-12.6389-66.0853a89.45128,89.45128,0,0,1,10.71539-16.0555c7.80093-9.44941,15.51819-11.301,22.817-11.301,17.88342,0,25.30183,13.12871,28.40785,23.68891,1.36176,4.65894,2.9864,12.81813,2.9864,25.38529A121.472,121.472,0,0,1,118.41657,152.93744Z"/><path class="cls-1" d="M662.89371,167.99181l-8.61325-6.97668a2.90822,2.90822,0,0,0-1.89946-.74059,2.82882,2.82882,0,0,0-2.09042.90791h-.01212c-2.77159,3.357-8.03957,8.85189-8.67286,9.48518-3.082,2.99852-7.30367,5.42337-11.927,5.42337-8.13516,0-13.50595-2.4487-13.50595-16.91532V81.23957h27.72375A2.96739,2.96739,0,0,0,646.8472,78.277V67.21488a2.96254,2.96254,0,0,0-2.95083-2.93871H622.19566v-.02248h-6.023l-.04789-31.87332a2.95476,2.95476,0,0,0-2.93871-2.91486H602.14793a2.94182,2.94182,0,0,0-2.93871,2.96255V64.25369H585.82641a2.96228,2.96228,0,0,0-2.95083,2.93871V78.25454a2.96726,2.96726,0,0,0,2.95083,2.96255h13.38281v58.30725c-3.84661,4.396-14.7041,15.95992-19.81709,21.061-1.03983,1.03788-2.09081,1.98234-3.14941,2.88574a52.32866,52.32866,0,0,1-18.96841,10.07566c-8.75651,2.75967-16.25838,3.50789-27.6311,3.49147-17.20812-.02463-25.613-11.56349-25.613-11.56349,1.46613-1.51187,21.05981-21.19487,21.05981-21.19487,16.22593-16.74175,29.20238-32.66825,31.88094-35.75355A42.09363,42.09363,0,0,0,563.121,99.9187c6.00779-11.2054,6.0979-23.00305-4.16208-31.19234-4.89407-3.90642-13.69124-6.45676-28.89786-6.08637-22.68778.55237-44.99637,13.721-49.55855,36.92044-1.26325,6.42431-2.45652,13.67756-2.45652,27.42744,0,3.40429.01916,7.6338.20074,10.51719a131.69614,131.69614,0,0,0,2.13557,18.24971c.51386,2.69986,1.4501,4.6005,2.435,8.06186a53.43,53.43,0,0,1-8.31124,8.60953c-2.63731,2.1602-6.92312,2.92092-9.14508,2.92092l-.76561.02522c-6.14011,0-10.00569-3.4383-14.87982-8.623l-.836-.87194c-2.4012-2.55659-19.83058-24.8599-32.75621-41.54829L444.93781,93.7782,460.979,76.8062a2.96234,2.96234,0,0,0-.10868-4.16306L452.831,65.04452a2.96766,2.96766,0,0,0-4.18006.10945L446.52,67.40838l-.01544-.02091-43.02713,45.58724-9.70976,10.2715V8.5822a2.93933,2.93933,0,0,0-2.93891-2.95063h-8.23562V5.6388h-2.82436a2.93933,2.93933,0,0,0-2.93891,2.95063V46.32629h-.00176V141.1658c-1.44541,1.54118-9.12691,9.83172-14.72951,15.95992-4.87394,5.2801-11.42022,11.86234-18.9346,15.78068-5.79356,3.01044-9.15505,3.99067-23.7411,3.99067-15.2074,0-28.29566-10.51329-30.86417-23.95239a120.866,120.866,0,0,1-2.09022-24.65663c0-10.56039.76443-19.28094,2.23369-25.89895,2.9389-13.10487,15.6851-23.17545,30.7252-23.17545,11.69522,0,21.3356,5.18452,26.0303,12.806a4.12079,4.12079,0,0,0,1.97139,1.75619,3.03182,3.03182,0,0,0,2.30543-.26269l9.83153-5.26838A2.54851,2.54851,0,0,0,360.94,85.83166a2.7804,2.7804,0,0,0-.34635-1.30194l-.60943-1.25445c-7.70515-12.80621-22.86487-20.47539-40.55674-20.47539-22.9364,0-42.94582,15.08778-47.593,35.86183-1.74408,7.86054-2.6641,17.83554-2.6641,29.62634a139.5287,139.5287,0,0,0,2.4014,27.858A59.96647,59.96647,0,0,0,273.962,163.896a60.34411,60.34411,0,0,1-6.705,7.20536,16.12691,16.12691,0,0,1-14.89585,4.17557c-4.87765-1.01209-6.85373-5.58912-6.989-10.5776,0,0,.036-55.10154.036-58.90046,0-25.26567-19.63942-42.91005-47.87977-42.91005-14.78912,0-29.18421,6.23589-38.49015,16.67647a30.17012,30.17012,0,0,0-3.966,5.65049,5.10958,5.10958,0,0,0-.38232,1.40965,2.949,2.949,0,0,0,1.68446,2.65216v.03577l9.485,5.04145h.01211a2.7861,2.7861,0,0,0,1.3858.394,2.87253,2.87253,0,0,0,2.37716-1.30214,23.36779,23.36779,0,0,1,2.031-2.56832,35.41444,35.41444,0,0,1,25.863-11.5758c18.839,0,30.331,10.75156,30.331,26.49628,0,1.19464-.01193,1.97764-.01193,3.82941l-16.24665.03577c-57.04224,0-61.47406,36.43531-61.47406,47.605a35.51344,35.51344,0,0,0,8.73228,23.52179c8.9594,10.39289,20.17048,12.53257,30.39644,12.53257,9.19845,0,20.243-4.03894,28.58123-9.27135a53.697,53.697,0,0,0,11.53983-10.51231c2.66409,11.58752,12.22062,19.71955,23.21082,19.78366,8.56888.05,13.53546-1.55252,20.57332-6.28475a53.55114,53.55114,0,0,0,9.90813-9.23226c8.98346,9.99884,21.59265,15.47929,36.42947,15.47929,15.06394,0,21.83812-.53693,31.45484-5.54221a63.99715,63.99715,0,0,0,15.30279-11.33695c3.50026-3.57161,7.23937-7.8365,10.57232-11.82658l-.04789,24.96174a2.95445,2.95445,0,0,0,2.97468,2.95063H390.8288a2.93155,2.93155,0,0,0,2.93891-2.95063V147.38409l10.50918-10.83794c11.70265,14.94745,29.42228,37.53828,32.31017,40.97853l.78848.84809c5.11279,5.45934,12.98231,14.95058,26.91143,14.95058.57347,0,5.31157.0647,8.6797-1.39323,9.861-4.2684,16.84339-11.90964,18.94534-14.1791a73.522,73.522,0,0,0,5.67688,5.32936c9.31807,7.24425,20.55142,10.292,34.06226,10.27483,12.62658-.01622,21.43977-.51816,30.45527-3.57395,7.489-2.53822,20.33153-9.99826,27.65515-17.32187,2.40081-2.41312,6.35355-6.164,9.543-10.01077,1.02752,20.29635,10.77833,30.90659,30.93122,30.90659,11.50426,0,17.78-6.41708,21.543-10.04869.50154-.48982,11.34183-11.33675,11.34183-11.33675a2.8887,2.8887,0,0,0,.69271-1.82773A3.05882,3.05882,0,0,0,662.89371,167.99181Zm-435.29709-26.826c0,17.53687-18.93459,34.58373-36.01742,34.58373-12.51947,0-17.39321-3.15371-19.87807-6.02069a18.32682,18.32682,0,0,1-4.61124-12.45985c0-19.75884,15.81645-30.64155,44.51085-30.64155l15.99588-.02385Zm269.16294,7.701a127.85828,127.85828,0,0,1-1.35628-16.7654c-.0729-3.76726.02346-7.8105.1507-12.43289a137.20571,137.20571,0,0,1,1.36781-14.05713c1.45773-9.90425,6.07562-15.42554,11.47925-19.77507,5.98492-4.81725,14.63921-7.56266,27.69619-7.51633,12.51927.04437,14.40446,7.79036,12.248,12.068-5.49354,10.89717-19.30675,23.38126-33.23176,38.54508Z"/></svg>