<svg id="Layer_1" data-name="Layer 1" xmlns="http://www.w3.org/2000/svg" viewBox="0 0 809.89342 247.48763"><defs><style>.cls-1{fill:#595959;}.cls-2{fill:#8ec341;}</style></defs><title>pluribus</title><path class="cls-1" d="M302.90527,169.56179h8.37513l13.32592,17.12042V169.56179h8.88394v32.39h-7.82052l-13.88052-17.76789v17.76789h-8.884Z"/><path class="cls-1" d="M369.3008,169.56179h26.04889v7.589H378.18475v4.95079h15.5469v7.08019h-15.5469V194.317H395.5812v7.6348H369.3008Z"/><path class="cls-1" d="M438.19208,177.4281h-9.67261v-7.86631h28.364v7.86631h-9.71586v24.52371h-8.97553Z"/><path class="cls-1" d="M488.71761,169.56179H498.202l5.64532,18.73973L510.093,169.4702h7.72893l6.24573,18.83132,5.64533-18.73973h9.30117l-10.82762,32.62153H520.366l-6.47724-18.64687-6.52558,18.64687h-7.818Z"/><path class="cls-1" d="M569.73146,185.849v-.09159c0-9.30117,7.49741-16.84311,17.49058-16.84311,9.99571,0,17.399,7.45035,17.399,16.75025v.09286c0,9.29991-7.49742,16.84185-17.49059,16.84185C577.13474,202.59928,569.73146,195.1502,569.73146,185.849Zm25.68,0v-.09159c0-4.71927-3.33021-8.74529-8.281-8.74529s-8.23774,3.979-8.23774,8.65243v.09286c0,4.67349,3.37854,8.7453,8.32933,8.7453C592.127,194.50273,595.41145,190.5225,595.41145,185.849Z"/><path class="cls-1" d="M639.31981,169.56179h15.3154c4.95079,0,8.37512,1.29621,10.54777,3.4714a10.10939,10.10939,0,0,1,2.86973,7.54194v.09159a10.26411,10.26411,0,0,1-6.663,9.99571l7.72639,11.28938H658.79987l-6.52558-9.80872h-3.97894v9.80872h-8.97554Zm14.944,15.5469c3.00711,0,4.81341-1.48066,4.81341-3.84029v-.09159c0-2.59115-1.89789-3.88736-4.8592-3.88736h-5.92263v7.81924Z"/><path class="cls-1" d="M702.65863,169.56179h8.97553v13.14147l11.19652-13.14147h10.59611l-12.25994,13.8818L733.844,201.95181H723.108l-8.18941-12.02971-3.28441,3.60879v8.42092h-8.97553Z"/><path class="cls-1" d="M763.59455,197.13967l4.99659-5.96842a16.78014,16.78014,0,0,0,10.502,3.88609c2.4525,0,3.75-.83319,3.75-2.221v-.09286c0-1.3878-1.066-2.08106-5.50794-3.14576-6.89448-1.57352-12.21416-3.5172-12.21416-10.13309v-.09286c0-6.01549,4.76507-10.3646,12.5398-10.3646,5.5054,0,9.80745,1.48065,13.32592,4.30336l-4.49031,6.33855a15.90107,15.90107,0,0,0-9.06712-3.19283c-2.1752,0-3.23862.88025-3.23862,2.08233v.09286c0,1.48066,1.10922,2.12813,5.64532,3.147,7.40329,1.61931,12.02844,4.02475,12.02844,10.086v.09286c0,6.61716-5.2281,10.55032-13.09441,10.55032A22.70587,22.70587,0,0,1,763.59455,197.13967Z"/><path class="cls-2" d="M370.73821,85.16177c0,19.40628-12.29811,30.613-33.75492,30.613H319.35278v29.92989H302.95361V54.54879h34.02968C358.4401,54.54879,370.73821,65.75549,370.73821,85.16177Zm-16.26179,0c0-9.29355-3.27933-15.4426-18.72447-15.4426H319.35278v31.15995H335.752C351.19709,100.87912,354.47642,94.59142,354.47642,85.16177Z"/><path class="cls-2" d="M388.10668,145.70463V51.543h16.39917v94.16168Z"/><path class="cls-2" d="M487.74068,77.50916v37.309c0,20.08936-11.47891,31.97915-30.88519,31.97915-19.27144,0-30.75036-11.88979-30.75036-31.97915v-37.309h16.53656v39.49565c0,10.9332,4.09852,15.44387,14.2138,15.44387,10.25012,0,14.34864-4.51067,14.34864-15.44387V77.50916Z"/><path class="cls-2" d="M540.36508,76.4152V90.629a67.927,67.927,0,0,0-17.63051,2.32275v52.75287H506.3354V83.65821A92.12809,92.12809,0,0,1,540.36508,76.4152Z"/><path class="cls-2" d="M555.95523,68.21562v-15.033H572.764v15.033Zm.27222,77.489V77.50916h16.39917v68.19547Z"/><path class="cls-2" d="M653.5387,110.85448c0,32.39-21.45681,35.94284-30.613,35.94284-21.1846,0-28.69982-11.88979-28.69982-22.9591V51.40557h16.39917V77.50916a60.98427,60.98427,0,0,1,11.20669-1.094C642.19463,76.4152,653.5387,88.57847,653.5387,110.85448Zm-16.53655-.81919c0-16.127-6.28643-20.63635-15.71736-20.63635a46.51824,46.51824,0,0,0-10.65971,1.09268v34.85015c0,5.73946,5.05764,7.37912,12.30065,7.37912C633.44807,132.72089,637.00215,125.61526,637.00215,110.03529Z"/><path class="cls-2" d="M731.71717,77.50916v37.309c0,20.08936-11.47892,31.97915-30.8852,31.97915-19.27017,0-30.74908-11.88979-30.74908-31.97915v-37.309h16.53655v39.49565c0,10.9332,4.09852,15.44387,14.21253,15.44387,10.25012,0,14.34864-4.51067,14.34864-15.44387V77.50916Z"/><path class="cls-2" d="M795.9604,126.84533c0,11.3428-9.84052,19.952-25.4205,19.952a43.14642,43.14642,0,0,1-21.59419-5.60208v-14.6234a34.6952,34.6952,0,0,0,19.27144,6.01294c10.52234,0,11.34154-2.86972,11.34154-6.55992,0-11.20669-32.52613-4.64677-32.52613-28.29023,0-14.34863,11.75367-21.31943,25.28312-21.31943a36.84831,36.84831,0,0,1,18.58708,4.92026V93.77222a36.77162,36.77162,0,0,0-15.71736-3.2806c-6.83341,0-11.75367,1.36745-11.75367,5.74073C763.43173,106.75469,795.9604,98.9647,795.9604,126.84533Z"/><path class="cls-1" d="M114.52243,163.68012v28.53553h15.45625v-27.281c0-15.73515,6.267-19.07829,15.73677-19.07829,9.60686,0,16.01261,3.34314,16.01261,19.07829V192.214h15.17881V163.68012c0-21.86185-11.41957-34.39429-31.19142-34.39429C125.94038,129.28583,114.52243,141.81827,114.52243,163.68012Z"/><path class="cls-2" d="M144.63735,56.724H113.54211V72.18025h29.842c15.73533,0,19.07841,6.26688,19.07841,15.73676,0,9.60853-3.34308,16.01263-19.07841,16.01263h-29.842v15.17881h31.09524c21.86339,0,34.39571-11.41817,34.39571-31.19144C179.03306,68.142,166.50074,56.724,144.63735,56.724Z"/><rect class="cls-2" x="87.26983" y="56.72398" width="15.52417" height="135.49161"/><path class="cls-2" d="M235.80807,81.63809A24.23673,24.23673,0,0,0,208.8549,41.44464,116.428,116.428,0,0,0,23.8471,177.41334a24.23091,24.23091,0,0,0,29.94068,37.509A116.33985,116.33985,0,0,0,235.80807,81.63809Zm-9.01375-32.61075a14.45683,14.45683,0,1,1-18.95963,7.65055A14.47414,14.47414,0,0,1,226.79432,49.02734ZM35.82921,207.351a14.45776,14.45776,0,1,1,18.96038-7.65232A14.47415,14.47415,0,0,1,35.82921,207.351Zm50.47767,15.61115A105.76814,105.76814,0,0,1,61.35942,207.9649a24.255,24.255,0,0,0-28.99717-36.39579A106.19157,106.19157,0,0,1,201.30142,48.36423a24.22747,24.22747,0,0,0,25.3031,37.57916A106.2228,106.2228,0,0,1,86.30688,222.96217Z"/></svg>