<?xml version="1.0" encoding="utf-8"?>
<!-- Generator: Adobe Illustrator 23.0.3, SVG Export Plug-In . SVG Version: 6.00 Build 0)  -->
<svg version="1.1" id="Layer_1" xmlns="http://www.w3.org/2000/svg" xmlns:xlink="http://www.w3.org/1999/xlink" x="0px" y="0px"
	 viewBox="0 0 400 245" style="enable-background:new 0 0 400 245;" xml:space="preserve">
<style type="text/css">
	.st0{fill:#194F7A;}
	.st1{fill:#DBDB93;stroke:#565656;stroke-width:2.076;stroke-linejoin:round;stroke-miterlimit:10;}
</style>
<g>
	<g>
		<path class="st0" d="M0,106.2c2.3-0.5,5.4-0.8,8.5-0.8c4.9,0,8.7,0.7,11.4,3.2c2.5,2.2,3.6,5.7,3.6,9.2c0,4.6-1.4,7.8-3.6,10.1
			c-2.6,2.8-6.8,4-10.2,4c-0.6,0-1.1,0-1.6,0v15.6H0V106.2z M8.1,125.3c0.4,0.1,0.9,0.1,1.4,0.1c4.1,0,5.9-2.9,5.9-6.9
			c0-3.7-1.5-6.6-5.3-6.6c-0.8,0-1.5,0.1-2,0.3V125.3z"/>
		<path class="st0" d="M26,126.2c0-3-0.1-6.3-0.2-9.2h7.1l0.4,4.5h0.2c1.3-3.3,3.8-5,6-5c0.8,0,1.3,0,1.7,0.1v8.1
			c-0.5-0.1-1-0.1-1.8-0.1c-1.7,0-4,1.2-4.9,4.3c-0.2,0.7-0.4,1.8-0.4,3v15.5H26V126.2z"/>
		<path class="st0" d="M64.7,132.2c0,12.7-7,15.8-11.6,15.8c-7.3,0-11.7-5.7-11.7-15.6c0-10.9,5.7-15.8,11.8-15.8
			C60.4,116.6,64.7,122.6,64.7,132.2z M49.6,132.2c0,5.2,0.8,9.6,3.7,9.6c2.6,0,3.3-5.1,3.3-9.6c0-4.2-0.7-9.5-3.5-9.5
			C50.2,122.8,49.6,128,49.6,132.2z"/>
		<path class="st0" d="M62.6,153.5c1.4-0.2,3-0.5,4-1.7c1.2-1.2,1.4-3.4,1.4-8.1v-26.8h8.2v28.3c0,6.8-1.4,10-4,12
			c-2.2,1.8-6,2.6-8.9,2.6L62.6,153.5z M76.1,109c0,2.6-1.8,4.4-4.3,4.4c-2.3,0-4.1-1.8-4.1-4.4c0-2.7,1.9-4.5,4.2-4.5
			C74.3,104.5,76.1,106.3,76.1,109z"/>
		<path class="st0" d="M87,135.2c0.1,4.8,2.8,6.5,6.5,6.5c2.3,0,4.3-0.5,5.8-1l1.1,5.8c-2.1,0.8-5.3,1.4-8.4,1.4
			c-8.3,0-12.9-5.5-12.9-15c0-10.3,5.3-16.4,12.2-16.4c6.6,0,10.4,5.2,10.4,14.4c0,2.2-0.1,3.4-0.2,4.2H87z M94.3,129.5
			c0-3.9-1-7-3.4-7c-2.7,0-3.7,3.9-3.8,7H94.3z"/>
		<path class="st0" d="M121.6,147c-0.8,0.4-2.9,0.9-5.2,0.9c-7.7,0-12.8-5.3-12.8-15.3c0-9.4,5.5-15.9,14-15.9
			c1.9,0,3.7,0.4,4.5,0.8l-1.1,6.4c-0.7-0.2-1.7-0.6-3-0.6c-3.9,0-6.2,3.7-6.2,9c0,5.5,2.3,8.9,6.1,8.9c1.2,0,2.2-0.2,3-0.6
			L121.6,147z"/>
		<path class="st0" d="M135.7,108.8v8.2h6v5.8h-6v13.9c0,3.5,1.5,4.4,3.1,4.4c0.8,0,1.4-0.1,2.1-0.2l0.1,6.4c-1.1,0.3-2.9,0.5-5,0.5
			c-2.4,0-4.4-0.5-5.9-1.9c-1.7-1.6-2.6-3.9-2.6-8.7v-14.4h-3.6v-5.8h3.6v-6.3L135.7,108.8z"/>
		<path class="st0" d="M229.5,105.6v16.8h8.5v-16.8h8.2v42H238V130h-8.5v17.6h-8.2v-42H229.5z"/>
		<path class="st0" d="M264.6,147.5l-0.4-3h-0.1c-1.7,2.4-4,3.5-6.7,3.5c-4.6,0-8-3.9-8-9.3c0-8,7-11.3,13.9-11.3v-0.7
			c0-2.4-1.4-4.2-4.3-4.2c-2.4,0-4.4,0.7-6.2,1.8l-1.5-5.5c1.7-1,5.2-2.3,9.5-2.3c9.3,0,10.8,6.5,10.8,12.7v11.3
			c0,2.4,0.1,4.9,0.4,7H264.6z M263.5,132.7c-2.7,0-6.5,1-6.5,5.2c0,3,1.7,4.1,2.9,4.1c1.3,0,2.8-0.8,3.3-2.6
			c0.1-0.4,0.2-0.9,0.2-1.4V132.7z"/>
		<path class="st0" d="M281,117.1l3,15.9c0.3,1.8,0.6,3.4,0.9,5.1h0.1c0.2-1.6,0.5-3.3,0.7-5l2.5-16h8l-6.2,23.5
			c-1.5,5.7-3.5,11.6-6.8,15.5c-2.6,3-5.7,4.5-6.9,4.8l-2.5-7.1c1.4-0.5,2.8-1.4,4-2.5c1.1-1,2-2.3,2.6-3.6c0.2-0.5,0.4-0.9,0.4-1.3
			c0-0.4-0.1-0.7-0.2-1.1l-8.4-28.2H281z"/>
		<path class="st0" d="M297.1,140.2c1.2,0.7,3.5,1.6,5.5,1.6c2.1,0,3.3-0.9,3.3-2.7c0-1.6-0.9-2.6-3.6-4.1c-5-2.8-6.2-6-6.2-8.8
			c0-5.5,3.9-9.6,10-9.6c2.5,0,4.5,0.6,6.2,1.4l-1.4,6c-1.2-0.7-2.6-1.2-4.3-1.2c-2.1,0-3,1.2-3,2.6c0,1.3,0.7,2.1,3.6,3.8
			c4.5,2.5,6.1,5.7,6.1,9.2c0,6.3-4.5,9.6-10.8,9.6c-2.5,0-5.5-0.7-6.9-1.7L297.1,140.2z"/>
		<path class="st0" d="M325.6,108.8v8.2h6v5.8h-6v13.9c0,3.5,1.5,4.4,3.1,4.4c0.8,0,1.4-0.1,2.1-0.2l0.1,6.4c-1.1,0.3-2.9,0.5-5,0.5
			c-2.4,0-4.4-0.5-5.9-1.9c-1.7-1.6-2.6-3.9-2.6-8.7v-14.4h-3.6v-5.8h3.6v-6.3L325.6,108.8z"/>
		<path class="st0" d="M347.5,147.5l-0.4-3h-0.1c-1.7,2.4-4,3.5-6.7,3.5c-4.6,0-8-3.9-8-9.3c0-8,7-11.3,13.9-11.3v-0.7
			c0-2.4-1.4-4.2-4.3-4.2c-2.4,0-4.4,0.7-6.2,1.8l-1.5-5.5c1.7-1,5.2-2.3,9.5-2.3c9.3,0,10.8,6.5,10.8,12.7v11.3
			c0,2.4,0.1,4.9,0.4,7H347.5z M346.3,132.7c-2.7,0-6.5,1-6.5,5.2c0,3,1.7,4.1,2.9,4.1c1.3,0,2.8-0.8,3.3-2.6
			c0.1-0.4,0.2-0.9,0.2-1.4V132.7z"/>
		<path class="st0" d="M375.4,147c-0.8,0.4-2.9,0.9-5.2,0.9c-7.7,0-12.8-5.3-12.8-15.3c0-9.4,5.5-15.9,14-15.9
			c1.9,0,3.7,0.4,4.5,0.8l-1.1,6.4c-0.7-0.2-1.7-0.6-3-0.6c-3.9,0-6.2,3.7-6.2,9c0,5.5,2.3,8.9,6.1,8.9c1.2,0,2.2-0.2,3-0.6
			L375.4,147z"/>
		<path class="st0" d="M385.2,130.4h0.1c0.6-1.8,1-3,1.5-4.2l3.9-9.1h8.8l-7.4,12.8l7.8,17.7h-9.1l-4.3-12.5l-1.4,2.6v9.9h-8.1
			v-43.1h8.1V130.4z"/>
	</g>
	<path id="Tag" class="st1" d="M180.6,99.8h-25.5v25.5l30.6,30.6l25.5-25.5L180.6,99.8z M165.3,115.1c-2.8,0-5.1-2.3-5.1-5.1
		s2.3-5.1,5.1-5.1s5.1,2.3,5.1,5.1S168.1,115.1,165.3,115.1z"/>
</g>
</svg>
