<?xml version="1.0" encoding="utf-8"?>
<!-- Generator: Adobe Illustrator 23.0.2, SVG Export Plug-In . SVG Version: 6.00 Build 0)  -->
<svg version="1.1" id="Layer_1" xmlns="http://www.w3.org/2000/svg" xmlns:xlink="http://www.w3.org/1999/xlink" x="0px" y="0px"
	 viewBox="0 0 400 245" style="enable-background:new 0 0 400 245;" xml:space="preserve">
<style type="text/css">
	.st0{fill:#4094D0;}
	.st1{fill:#EE4636;}
	.st2{fill:#FFC10E;}
	.st3{fill:#2FB355;}
	.st4{fill:none;}
	.st5{fill-rule:evenodd;clip-rule:evenodd;}
	.st6{fill-rule:evenodd;clip-rule:evenodd;fill:#E82D3C;}
	.st7{fill:#4F81C2;}
	.st8{fill:#F25022;}
	.st9{fill:#80BA01;}
	.st10{fill:#777777;}
	.st11{fill:#02A4EF;}
	.st12{fill:#FFB902;}
	.st13{fill:#263C8D;}
	.st14{fill:#1853A3;}
	.st15{fill:#54565A;}
	.st16{fill:#808080;}
	.st17{fill:#0085C3;}
	.st18{fill:#4666A9;}
	.st19{fill:#006BB6;}
	.st20{fill-rule:evenodd;clip-rule:evenodd;fill:#2C348A;}
	.st21{fill:#F58220;}
	.st22{fill:#0058A9;}
	.st23{fill-rule:evenodd;clip-rule:evenodd;fill:#EC1C24;}
	.st24{fill:#ED1A3B;}
</style>
<g>
	<g>
		<path class="st13" d="M160.3,128.43c0,1.61,1.88,3.5,3.49,3.5l23.92-0.01l-5.35-8.62l-13.86,0V90.14h-8.2V128.43z"/>
		<path class="st13" d="M54.31,165.37H44.16l0.06-14.05c-2.02,0.35-4.04,0.55-6.16,0.55c-19.95,0-36.11-16.16-36.11-36.11
			c0-19.94,16.17-36.11,36.11-36.11c19.94,0,36.11,16.17,36.11,36.11c0,14.04-8.15,26.14-19.87,32.11V165.37z M61.46,115.75
			c0-12.92-10.48-23.39-23.39-23.39c-12.92,0-23.39,10.47-23.39,23.39c0,12.92,10.47,23.4,23.39,23.4c2.12,0,4.16-0.33,6.11-0.86
			l-0.01-14.41l10.15-2.91v11.66C58.73,128.37,61.46,122.38,61.46,115.75z"/>
		<path class="st13" d="M105.89,131.93h-23.6c-1.61,0-3.52-1.88-3.52-3.49l-0.01-38.31h8.2v33.15h14.22V90.14h8.2l0.01,38.31
			C109.38,130.06,107.51,131.93,105.89,131.93z"/>
		<path class="st13" d="M215.97,91.68c-3.28-1.92-7.12-3.03-11.2-3.03c-12.24,0-22.16,9.92-22.16,22.16
			c0,12.24,9.93,22.16,22.16,22.16c3.83,0,7.48-1,10.62-2.7l-3.99-7.19c-1.98,1.07-4.22,1.69-6.63,1.69
			c-7.7,0-13.95-6.25-13.95-13.95c0-7.7,6.25-13.95,13.95-13.95c2.6,0,5.05,0.73,7.13,1.98L215.97,91.68z"/>
		<path class="st13" d="M389.19,126.79l-15.01-34.64c-0.9-1.67-2.44-2.44-4.62-2.44c-2.18,0-3.72,0.77-4.62,2.44l-11.03,25.4
			l-11.03-25.4c-0.89-1.67-2.44-2.44-4.61-2.44c-2.18,0-3.72,0.77-4.62,2.44l-11.03,25.46l-11.03-25.46
			c-0.9-1.67-2.44-2.44-4.62-2.44c-2.18,0-3.72,0.77-4.62,2.44l-11.04,25.4l-11.03-25.4c-0.9-1.67-2.44-2.44-4.62-2.44
			c-2.18,0-3.72,0.77-4.62,2.44l-15.01,34.64c-2.07,5.42,5.39,8.21,7.83,3.85l11.81-27.59l11.81,27.59c1.53,2.82,6.28,2.69,7.7,0
			l11.81-27.59l11.8,27.59c0.87,1.55,2.37,2.18,3.85,2.13c1.48,0.05,2.98-0.58,3.85-2.13l11.81-27.59l11.8,27.59
			c1.42,2.69,6.17,2.82,7.7,0l11.8-27.59l11.81,27.59C383.79,135.01,391.25,132.22,389.19,126.79z"/>
		<path class="st13" d="M144.45,122.57H125.5l-4.3,9.14h-8.71l18.28-41.5h8.13l18.28,41.5h-8.7L144.45,122.57z M128.24,115.77
			l13.2-0.03l-6.61-14.98L128.24,115.77z"/>
		<path class="st13" d="M212.81,110.99c0-12.24,9.91-22.22,22.14-22.22c12.24,0,22.17,9.92,22.17,22.16
			c0,12.24-9.92,22.16-22.17,22.16C222.72,133.09,212.81,123.23,212.81,110.99z M221.01,110.99c0,7.7,6.24,13.89,13.94,13.89
			c7.71,0,13.96-6.25,13.96-13.95c0-7.7-6.25-13.96-13.96-13.96C227.25,96.98,221.01,103.28,221.01,110.99z"/>
		<path class="st13" d="M385.58,95.81c0-3.54,2.86-6.14,6.25-6.14c3.36,0,6.22,2.6,6.22,6.14c0,3.57-2.87,6.17-6.22,6.17
			C388.44,101.98,385.58,99.38,385.58,95.81z M391.82,100.96c2.79,0,4.98-2.18,4.98-5.14c0-2.91-2.2-5.11-4.98-5.11
			c-2.82,0-5.01,2.2-5.01,5.11C386.81,98.78,389.01,100.96,391.82,100.96z M390.53,99.38h-1.08v-7.1h2.7c1.68,0,2.51,0.62,2.51,2.02
			c0,1.27-0.8,1.82-1.84,1.95l2.02,3.13h-1.21l-1.87-3.08h-1.24V99.38z M391.81,95.39c0.91,0,1.73-0.06,1.73-1.15
			c0-0.88-0.8-1.04-1.55-1.04h-1.46v2.19H391.81z"/>
	</g>
</g>
</svg>
