<svg id="Layer_1" data-name="Layer 1" xmlns="http://www.w3.org/2000/svg" viewBox="0 0 446.4 195.90658"><defs><style>.cls-1{fill:#3455dc;}.cls-2{fill:#3757dd;}</style></defs><title>qualcomm</title><path class="cls-1" d="M441.81314,72.96877c-.15753-.51313-.34863-1.01661-.53979-1.51862q-5.63051-14.784-11.26569-29.56628c-1.31641-3.45258-2.67365-6.89008-3.945-10.35914a3.03337,3.03337,0,0,0-3.34625-2.2622c-2.01312.09521-4.03442.04657-6.05151.0152a2.61739,2.61739,0,0,0-2.65747,1.76367c-.209.49444-.38,1.00506-.56446,1.5097q-4.87866,13.34354-9.76934,26.68274a3.48285,3.48285,0,0,1-1.03107,1.94653c-1.25226-3.32147-2.463-6.52032-3.66467-9.72265Q395.3314,41.74,391.69052,32.02016c-.92712-2.4671-1.32666-2.7298-4.01-2.73542q-2.21932-.00466-4.43866-.00024c-2.79065.00446-3.12762.23248-4.10583,2.87622q-4.96518,13.419-9.92011,26.84174a4.92842,4.92842,0,0,1-.95,1.96734,4.28337,4.28337,0,0,1-.92938-1.84875q-4.78143-12.94986-9.56091-25.90045c-.27924-.75635-.53516-1.52332-.85682-2.26142a2.542,2.542,0,0,0-2.51147-1.67529c-2.21924.0127-4.4386.00873-6.6579.00006a2.53762,2.53762,0,0,0-2.50793,1.67615c-.18781.43085-.35437.8714-.51844,1.312q-4.95693,13.31507-9.91467,26.6297a6.23666,6.23666,0,0,1-.99579,2.18878,2.67076,2.67076,0,0,1-.71771-1.38641q-1.99008-5.3877-3.97949-10.7757-3.14484-8.50624-6.29572-17.01019c-.88531-2.37946-1.27112-2.62628-3.86029-2.63342q-2.32021-.00632-4.64038-.00025c-2.77655.00458-3.10144.21985-4.11627,2.87543q-4.38858,11.48373-8.75971,22.97418c-2.22277,5.83911-4.4552,11.67468-6.6455,17.526-.73133,1.95362-.23908,2.64917,1.79492,2.69257,1.47888.03155,2.95892.00867,4.43848.00738,3.06372-.00256,3.2276-.10711,4.26605-2.89764q3.65478-9.82124,7.29815-19.64685c1.25513-3.37714,2.51539-6.75238,3.796-10.18939.78229.48089.80958,1.21454,1.034,1.81274q3.07974,8.20752,6.11347,16.43231c1.496,4.03077,2.97735,8.067,4.49188,12.09082.79608,2.11512,1.20263,2.38086,3.398,2.39557,1.68121.01129,3.363-.02362,5.0437.00836a2.398,2.398,0,0,0,2.50061-1.63922q.33435-.84292.65765-1.69024,5.269-13.84379,10.55152-27.68232c.2221-.57959.20782-1.35217,1.00616-1.67181.28162.7077.56922,1.38635.82379,2.07721q3.10044,8.41479,6.1911,16.83331,2.12284,5.76828,4.25129,11.53443c.44244,1.206,1.05859,2.20977,2.52526,2.21991q3.2277.02234,6.45569-.00489a2.21239,2.21239,0,0,0,2.06-1.37915c.29163-.603.51733-1.23938.75092-1.86883q5.154-13.88682,10.31579-27.77075c.21295-.57074.251-1.2898.99176-1.73426,1.65253,4.36011,3.27472,8.62592,4.88629,12.89569,2.20618,5.845,4.39472,11.69666,6.611,17.53778.78961,2.08118,1.17791,2.3205,3.43707,2.33552,1.345.00891,2.69012.00476,4.03509.00128,2.67457-.00684,2.88782-.13855,3.83234-2.63239q3.39057-8.9523,6.75653-17.91382c1.51221-4.00793,3.02887-8.0141,4.57361-12.1007a3.51009,3.51009,0,0,1,.993,1.84973q3.07133,8.21036,6.09528,16.4386c1.49218,4.032,2.97668,8.06689,4.48211,12.094.73444,1.96466,1.15393,2.24512,3.2815,2.26154,1.88293.01452,3.76727.043,5.6488-.01142C441.81326,75.29836,442.29727,74.54628,441.81314,72.96877Z"/><path class="cls-1" d="M15.02542,67.35286C24.04819,75.61342,34.722,78.16255,46.64108,75.832c1.81928-.35572,1.81855-.38758,2.47266,1.297,1.02112,2.62964,2.05218,5.25562,3.0437,7.89643a2.70065,2.70065,0,0,0,2.74976,1.9364c1.88256.00207,3.76611.04053,5.6474-.00861,2.07531-.05414,2.72107-1.03045,2.08734-3.05322-.1402-.44751-.34143-.87567-.50885-1.31488-1.268-3.326-2.48706-6.67194-3.82965-9.96753a1.50157,1.50157,0,0,1,.67486-2.13117c11.6532-8.463,16.288-20.08532,14.579-34.12689C71.41824,18.783,56.80325,6.2137,39.04337,6.176A34.2377,34.2377,0,0,0,10.7402,20.273a35.11063,35.11063,0,0,0-6.56933,24.5542A33.58292,33.58292,0,0,0,15.02542,67.35286Zm5.28833-42.72107c5.26184-6.69727,12.34686-9.40387,20.77088-8.806,11.66522.82776,20.3767,9.91077,21.78179,21.72418.93055,7.82379-.69812,14.94489-5.66845,21.17792a17.57159,17.57159,0,0,1-3.0304,2.98907c-1.41046-3.68713-2.70141-7.07189-4.0003-10.45367-.92237-2.40161-1.33893-2.69727-3.83564-2.71405-1.61242-.0108-3.22558-.02667-4.83746.00574-2.26324.04553-2.93164.97143-2.14123,3.08191,1.57708,4.21087,3.221,8.39673,4.82153,12.59893a4.96044,4.96044,0,0,1,.56238,2.14014,22.00911,22.00911,0,0,1-7.64411.68726c-13.73626-1.1897-20.71338-11.6214-21.99164-21.32856C14.08316,38.00441,15.44107,30.83376,20.31375,24.63179Z"/><path class="cls-1" d="M145.71213,75.10017c8.39227,2.94544,16.13666,2.14362,22.57666-4.66516.12585-.13305.24512-.32641.48938-.24383.05591.02667.16009.05176.16168.08209.0412.80249.07159,1.60547.10419,2.40839.07812,1.9198.76318,2.65643,2.7091,2.74945,1.40821.06726,2.82221.04681,4.23279.02136,2.52521-.04566,3.06867-.598,3.07-3.114q.00824-15.52368.00195-31.04743c-.00006-3.09131.01819-6.18274-.00671-9.27386-.016-2.002-.68469-2.68793-2.61939-2.72608q-2.31765-.04567-4.63672.00019c-1.91449.03912-2.63964.77685-2.754,2.68908a7.07768,7.07768,0,0,1-.18451,2.49225c-.63611-.1958-.85138-.64465-1.16052-.973a17.18831,17.18831,0,0,0-7.64435-4.67615,22.39833,22.39833,0,0,0-25.35309,9.85089c-5.09973,8.51026-5.14606,17.37079-.68134,26.14685A20.47171,20.47171,0,0,0,145.71213,75.10017ZM142.245,46.26363c2.17157-5.36408,6.20081-8.41828,11.93842-8.8122a13.15436,13.15436,0,0,1,12.93976,6.92987A16.20437,16.20437,0,0,1,165.593,62.52138a13.0961,13.0961,0,0,1-5.98468,4.15051,14.09724,14.09724,0,0,1-4.44269.67859,13.72214,13.72214,0,0,1-7.60785-2.226,13.57968,13.57968,0,0,1-2.03668-1.6355,13.85738,13.85738,0,0,1-1.53424-1.7738,14.77478,14.77478,0,0,1-2.4679-5.56147A16.44966,16.44966,0,0,1,142.245,46.26363Z"/><path class="cls-1" d="M270.84122,76.66853c12.80163.08722,24.15674-9.59912,24.26867-24.31067a24.16121,24.16121,0,1,0-48.3219-.19415A23.96734,23.96734,0,0,0,270.84122,76.66853Zm-12.042-32.00506a13.513,13.513,0,0,1,13.54255-7.22064,13.87032,13.87032,0,0,1,11.9787,10.17327,18.9496,18.9496,0,0,1,.62634,4.87848c-.11377,4.83734-1.733,8.90155-5.51532,11.89862a13.68856,13.68856,0,0,1-19.9585-3.25573A15.75508,15.75508,0,0,1,258.79922,44.66347Z"/><path class="cls-1" d="M80.14932,56.51a26.30057,26.30057,0,0,0,.431,5.01337c1.04029,5.41541,3.67743,9.74146,8.5221,12.603,6.36242,3.758,18.92218,4.00189,24.74536-3.63727.0697-.09143.21722-.12347.60858-.33386,0,1.15478-.03589,2.09155.00854,3.02441.06434,1.35089.59632,2.03766,1.8946,2.17438a28.87971,28.87971,0,0,0,6.03784-.00006,2.15613,2.15613,0,0,0,2.07831-2.2901c.0332-.40076.0094-.80634.0094-1.20972q.00036-19.46419-.00031-38.92841a12.6338,12.6338,0,0,0-.0199-1.41076,2.19238,2.19238,0,0,0-2.18933-2.199c-1.87915-.07934-3.766-.07531-5.64581-.006a2.10682,2.10682,0,0,0-2.16223,2.17383c-.04285.53454-.01148,1.07519-.012,1.613-.00646,7.59729.08887,15.19641-.0473,22.79144-.13672,7.62457-5.53332,12.49359-13.11615,12.09082-5.88586-.31262-9.58783-3.52832-10.77978-9.30292a18.70213,18.70213,0,0,1-.29541-3.80975q-.00422-10.89184-.00171-21.78369a15.93126,15.93126,0,0,0-.02033-1.61255,2.11856,2.11856,0,0,0-2.18945-2.16132c-1.88007-.06579-3.76672-.07165-5.64587.00726a2.17235,2.17235,0,0,0-2.18909,2.18378,9.54357,9.54357,0,0,0-.016,1.00781Q80.1536,44.50878,80.14932,56.51Z"/><path class="cls-1" d="M229.56351,76.66945c.6264-.03931,1.77295-.05634,2.90521-.19232a23.05806,23.05806,0,0,0,11.00983-4.12665c1.73028-1.25464,1.86169-2.18231.59832-3.86932-.76538-1.022-1.56335-2.02063-2.37243-3.00861-1.2652-1.545-1.82624-1.66455-3.62659-.73938a33.106,33.106,0,0,1-3.99866,1.90411,13.36674,13.36674,0,0,1-16.94311-6.95605,16.90967,16.90967,0,0,1-1.29291-10.44061c1.043-5.80262,4.125-10.03485,10.04559-11.65308a14.254,14.254,0,0,1,10.19489,1.1355c.96673.467,1.89343,1.016,2.84735,1.5105a1.85764,1.85764,0,0,0,2.52673-.51154c1.06653-1.38165,2.11609-2.78564,3.047-4.25958a1.91383,1.91383,0,0,0-.56378-2.83576,19.72434,19.72434,0,0,0-2.87018-1.85858A25.0881,25.0881,0,0,0,226.62,28.07149c-8.14233.75653-14.37506,4.60144-18.2879,11.85132a26.06854,26.06854,0,0,0-2.7492,16.0213C207.14932,68.403,216.455,76.64912,229.56351,76.66945Z"/><path class="cls-1" d="M188.96109,73.30208a1.99386,1.99386,0,0,0,2.07562,2.02966c1.94715.06891,3.90015.066,5.84754.00006a1.85791,1.85791,0,0,0,1.95031-1.89074,13.94223,13.94223,0,0,0,.02851-1.61182q.00174-15.22788.00079-30.45575-.00009-15.12708-.00043-30.25409c0-.53784.03345-1.07928-.01629-1.61279-.12238-1.31189-.741-2.00818-2.02393-2.053-1.947-.06806-3.90057-.0669-5.84686.013a1.9715,1.9715,0,0,0-1.98847,1.90308,11.35152,11.35152,0,0,0-.04888,1.6101q-.00285,30.45576-.0008,60.91156A12.11049,12.11049,0,0,0,188.96109,73.30208Z"/><path class="cls-2" d="M13.089,139.3188a15.33535,15.33535,0,0,0,8.30688.91712c1.73377-.2602,1.58246-.09821,2.16565,1.32641,1.38843,3.39154,1.38007,3.395,4.92285,3.14136,1.26886-.09088,1.52173-.42609,1.09314-1.68073a35.0204,35.0204,0,0,0-1.47131-3.74633,1.67222,1.67222,0,0,1,.581-2.36945,13.40127,13.40127,0,0,0,5.08789-9.696c-.00445-9.58936-6.006-15.73688-14.31878-16.13117A14.69178,14.69178,0,0,0,13.089,139.3188Zm-2.958-16.285a9.05128,9.05128,0,0,1,9.402-6.92554,9.20423,9.20423,0,0,1,8.54217,8.66913,9.763,9.763,0,0,1-2.49585,7.65155c-.29608-.66388-.46-1.02887-.62188-1.39478-.37085-.83831-.35767-2.0545-1.3559-2.33728a10.03978,10.03978,0,0,0-3.99438-.05755c-.67511.08752-.73066.67846-.50946,1.26208q.677,1.78674,1.351,3.57453c.654,1.745.5592,1.87512-1.36627,1.90393a9.03481,9.03481,0,0,1-9.12165-7.74658A11.52226,11.52226,0,0,1,10.131,123.03377Z"/><path class="cls-2" d="M195.332,165.75008c.00488-3.3255.09418-2.90528-2.94934-2.92145a6.94313,6.94313,0,0,0-1.7959.13086c-.61407.1629-.32159,1.07818-.8103,1.42016-4.28821-3.17425-9.21326-2.85607-12.6488.73908a11.00955,11.00955,0,0,0-.40693,13.91955c3.21027,3.792,8.528,4.35138,13.20685,1.2663.3086,2.9184-.03424,4.29077-1.24933,5.40753-1.79742,1.65186-6.474,1.8938-8.05182-.93017-.62182-1.11292-1.25946-1.415-2.41259-.95075a18.02939,18.02939,0,0,1-2.32379.65753c-.86481.21882-1.01758.74512-.73743,1.52039a7.30424,7.30424,0,0,0,3.48236,4.02142,12.89578,12.89578,0,0,0,7.01556,1.44568c5.01813-.24512,9.87854-2.992,9.705-9.9931C195.22556,176.24178,195.32431,170.99464,195.332,165.75008ZM184.99936,177.705a5.34434,5.34434,0,1,1,5.01691-5.43713A5.12317,5.12317,0,0,1,184.99936,177.705Z"/><path class="cls-2" d="M196.80533,119.90376a9.81882,9.81882,0,0,0-5.51965,2.9571c-4.2627-3.79065-7.57691-4.02027-12.09284-.77625-.58331-1.6283-.58319-1.63409-2.07965-1.66638-.67175-.01453-1.34552.0274-2.01581-.00641-1.06329-.05365-1.407.47656-1.39636,1.47357.02948,2.75519.00885,5.51087.00891,8.2663s.0191,5.51111-.00793,8.26629c-.00983,1,.34082,1.51429,1.408,1.45252.80377-.04651,1.61334-.03308,2.41864-.00256,1.0274.039,1.45605-.42988,1.44427-1.44922-.02637-2.28473-.01172-4.57-.00409-6.855a29.04649,29.04649,0,0,1,.06238-3.02106,4.04824,4.04824,0,0,1,3.98584-3.808,3.7969,3.7969,0,0,1,4.2561,3.397,10.50036,10.50036,0,0,1,.15045,2.00055c.01636,2.75537.02448,5.511-.00036,8.2663-.00891.99035.33233,1.52667,1.40082,1.47015.73718-.039,1.47882.01465,2.21728-.00989,1.47156-.04889,1.62042-.16925,1.637-1.62781.02979-2.62072.00391-5.242.01288-7.863a13.92443,13.92443,0,0,1,.0849-2.01178,4.04974,4.04974,0,0,1,4.14508-3.63562c2.19-.02887,3.57825,1.12579,4.03211,3.43036a11.94628,11.94628,0,0,1,.189,2.20037c.022,2.68811.03333,5.37677-.00189,8.06458-.01324,1.00934.33356,1.51166,1.397,1.454.80408-.04358,1.61347-.03284,2.4187-.00116,1.02118.04016,1.46351-.415,1.45649-1.43848-.02491-3.62884.12475-7.26526-.05829-10.88525C206.09122,122.34309,201.95694,119.17116,196.80533,119.90376Z"/><path class="cls-2" d="M154.66623,139.85487c1.59643-.00128,1.7113-.12976,1.72607-1.73315.02472-2.68958.004-5.37952.01-8.06928a7.36271,7.36271,0,0,1,.2605-2.39141,3.98919,3.98919,0,0,1,4.09363-2.94056,3.783,3.783,0,0,1,3.88013,3.14728,8.37424,8.37424,0,0,1,.22754,2.19837c-.00232,2.08459-.03382,4.1698.00708,6.2536.07733,3.9425-.913,3.53454,3.92407,3.54522.94165.002,1.32995-.44879,1.32483-1.358-.02143-3.76532.10516-7.53741-.082-11.29406a7.34294,7.34294,0,0,0-5.45966-6.98938,8.77915,8.77915,0,0,0-8.96155,2.11987c-.22253.21576-.37964.57477-.78741.48486-2.76142-3.31659-7.12518-4.32055-12.131-.673.11291-1.36475-.47846-1.80719-1.56458-1.74567-.60327.03418-1.21026-.00421-1.81524.00684-1.83747.03363-1.88721.06787-1.89209,1.96881-.012,4.63983-.03724,9.28.00665,13.91949.03753,3.97-.83631,3.54785,3.91669,3.55957.92956.00232,1.33935-.42132,1.33178-1.34686-.017-2.08441-.00689-4.16913-.00043-6.25366.00373-1.21015-.05828-2.42749.05048-3.62879a4.08526,4.08526,0,0,1,4.11005-3.91046,3.92292,3.92292,0,0,1,4.23956,3.7063,11.03833,11.03833,0,0,1,.05859,1.61c.00586,2.15179-.01055,4.30371.00562,6.45544C151.17361,140.22463,150.63889,139.858,154.66623,139.85487Z"/><path class="cls-2" d="M91.85379,169.062a7.49831,7.49831,0,0,0-6.09766-6.65235,9.05052,9.05052,0,0,0-8.21258,2.03986,2.708,2.708,0,0,1-.26068-1.71619c-.02118-2.21637.00085-4.4331-.01227-6.6496-.01221-2.05212-.06207-2.09161-2.19183-2.10595-.67157-.00452-1.3432.00476-2.01484.00982a.90658.90658,0,0,0-1.0285.969c-.01575.53686-.01794,1.07434-.018,1.61151q-.00156,11.385-.00049,22.77014c.00024,3.08539-.27252,2.908,2.97528,2.89636,2.21893-.00793,2.27148-.05938,2.27936-2.2434.00988-2.75391-.04322-5.509.0205-8.26142a4.42316,4.42316,0,0,1,3.75342-4.55231c3.18988-.5838,5.46668,1.13617,5.62049,4.38172.1112,2.34582.03076,4.70044.05285,7.051.03742,3.97351-.64587,3.622,3.90125,3.6297.90612.00153,1.40124-.36432,1.39074-1.29767C91.96622,176.98134,92.25119,173.00978,91.85379,169.062Z"/><path class="cls-2" d="M67.50778,119.86025a9.88885,9.88885,0,0,0-8.83349,10.43292c.15228,4.03424,1.71856,7.19781,5.3219,9.05145a8.46008,8.46008,0,0,0,10.07489-1.1629c.14892,1.47632,1.00592,1.8388,2.22106,1.68969a10.95556,10.95556,0,0,1,1.20765-.00817c1.986-.02088,2.00445-.02161,2.00933-2.0373q.01722-7.15082.00257-14.30163c-.00324-3.48334.25958-3.04181-3.16248-3.12934-1.219-.03112-2.144.14557-2.22644,1.62415C71.338,120.13374,69.67282,119.62428,67.50778,119.86025Zm6.75134,10.2962a5.084,5.084,0,0,1-5.28515,5.362,5.37622,5.37622,0,0,1,.21368-10.73566A5.08837,5.08837,0,0,1,74.25912,130.15645Z"/><path class="cls-2" d="M44.74985,164.13387a10.37142,10.37142,0,0,0-11.40058-.56147c-4.01837,2.43415-5.371,6.164-4.8518,10.6861a9.58707,9.58707,0,0,0,7.14544,8.11414,12.53045,12.53045,0,0,0,6.178.06158,9.025,9.025,0,0,0,5.06562-3.08984c.3714-.44367.66265-.98426.134-1.41535a12.0625,12.0625,0,0,0-2.80884-1.9201c-.87732-.36621-1.243.815-1.91492,1.1875-.17541.09723-.33093.22986-.50408.33166-2.72669,1.60291-6.45075.54193-7.56025-2.18152-.434-1.0653-.54882-1.6123.98517-1.56909,1.94611.05481,3.895.01331,5.84265.01227s3.89563.01977,5.8429-.00781c1.4826-.021,1.655-.17432,1.6637-1.59259A9.53278,9.53278,0,0,0,44.74985,164.13387Zm-9.6485,6.30859c-.99353-.01032-1.15625-.32312-.76148-1.22083a4.77222,4.77222,0,0,1,4.71643-2.74719c2.115.13434,3.4621,1.33325,4.21167,3.97748C40.438,170.45192,37.76938,170.47017,35.10135,170.44246Z"/><path class="cls-2" d="M218.67123,162.21834a10.33162,10.33162,0,0,0-4.03369,20.18762,12.58944,12.58944,0,0,0,5.98413.04083,9.12834,9.12834,0,0,0,5.08838-3.06176c.42548-.49433.746-1.04255.09351-1.56153a8.01757,8.01757,0,0,0-2.84357-1.84912c-.85071-.206-1.2135.92383-1.90759,1.29858-.17664.0954-.33313.22791-.50861.32581a5.038,5.038,0,0,1-7.6604-3.73114c.45374-.03119.786-.07349,1.11823-.07391,3.89636-.00513,7.79284.01007,11.68915-.01117,1.61676-.00885,1.699-.12458,1.73132-1.715A9.62521,9.62521,0,0,0,218.67123,162.21834ZM213.12,170.3965a4.151,4.151,0,0,1,3.797-3.90546c2.59912-.27966,4.40711,1.01624,5.17914,3.90546Z"/><path class="cls-2" d="M128.8237,162.16048a10.31914,10.31914,0,1,0-.161,20.63257,10.31679,10.31679,0,1,0,.161-20.63257Zm-.11426,15.68182a5.08109,5.08109,0,0,1-5.12549-5.3,5.18106,5.18106,0,0,1,5.20423-5.46728,5.24606,5.24606,0,0,1,5.05462,5.44171A5.17548,5.17548,0,0,1,128.70944,177.8423Z"/><path class="cls-2" d="M162.06973,162.15987a10.3183,10.3183,0,1,0,10.50183,10.43194A10.34381,10.34381,0,0,0,162.06973,162.15987Zm.13941,15.68329a5.26266,5.26266,0,0,1-5.29505-5.42133,5.3389,5.3389,0,0,1,5.20551-5.345,5.284,5.284,0,0,1,5.1607,5.35846A5.19842,5.19842,0,0,1,162.20914,177.84316Z"/><path class="cls-2" d="M134.60757,130.10823a10.4657,10.4657,0,0,0-20.93029.17731,10.4681,10.4681,0,0,0,20.93029-.17731ZM118.96915,130.06a5.1851,5.1851,0,1,1,5.24945,5.429A5.21848,5.21848,0,0,1,118.96915,130.06Z"/><path class="cls-1" d="M30.9791,155.59212c-.00074-1.51544-.09424-1.59412-1.62165-1.60456-3.42907-.02343-6.85846-.00732-10.28778-.00793-2.95856-.00055-5.91736-.02063-8.87573.00482-3.26019.028-3.23187-.6261-3.183,3.30756.01879,1.51379.1267,1.61572,1.61145,1.64148,1.88214.03265,3.76538.00018,5.64807.01147,1.86639.01111,1.8833.01959,1.8858,1.89466q.01245,9.27922.00421,18.55847c.00012.53766-.00793,1.07678.02741,1.61261a1.13108,1.13108,0,0,0,1.28076,1.21887c.403-.01288.80676.00415,1.21014.004,3.2873-.00141,3.07953.25921,3.07715-3.02564q-.00658-9.27913.00409-18.55841c.00342-1.66772.031-1.68133,1.67407-1.7027,1.47907-.01928,2.95862.00482,4.43787-.006C31.35251,158.91518,30.98105,159.354,30.9791,155.59212Z"/><path class="cls-2" d="M115.60721,169.90462a7.72085,7.72085,0,0,0-6.77338-7.6037,9.269,9.269,0,0,0-8.03815,2.46612c.17695-1.71905-.49981-2.10821-1.6491-1.98815-.46558.04864-.94056.004-1.4112.00793-2.12756.01764-2.17761.0498-2.18274,2.11664q-.01711,6.85839-.00006,13.717c.01172,3.9212-.59375,3.62817,3.9408,3.61725.92792-.0022,1.33325-.40033,1.31878-1.34125-.0299-1.94952-.0249-3.9-.001-5.84967a19.40511,19.40511,0,0,1,.20569-4.21936,4.50015,4.50015,0,0,1,4.772-3.7536,4.34783,4.34783,0,0,1,4.529,3.99823,12.33712,12.33712,0,0,1,.06421,1.81146c.00647,2.62238.02173,5.24493-.00507,7.867-.01013.99439.34815,1.52491,1.40284,1.488.80584-.02826,1.61425-.02606,2.42022.00006,1.01306.03284,1.45887-.405,1.45044-1.44208C115.62088,177.16573,115.72739,173.53163,115.60721,169.90462Z"/><path class="cls-2" d="M290.86911,162.16023a9.34823,9.34823,0,0,0-5.84192,2.35816c-.52087-1.67127-.52051-1.68054-1.72876-1.7265-.60382-.023-1.20929-.01294-1.81378-.004-1.86847.02777-1.91071.05218-1.91559,1.93524q-.01821,7.05414.00037,14.10834c.01269,3.69073-.55115,3.42438,3.71039,3.3927,1.34332-.01,1.51208-.18646,1.53033-1.52545.03571-2.61963.00476-5.24012.01636-7.86023a10.10881,10.10881,0,0,1,.11224-1.80371,4.52725,4.52725,0,0,1,4.80695-3.96051,4.29835,4.29835,0,0,1,4.52783,3.9757,12.549,12.549,0,0,1,.12164,2.00721c.01557,1.881.00629,3.7622.00635,5.64331.00012,3.80957.15942,3.93255,3.95026,3.54437.92645-.09485,1.31158-.50745,1.30621-1.40473-.022-3.69464.13245-7.39917-.08655-11.08166C299.28885,165.00569,295.65256,161.96816,290.86911,162.16023Z"/><path class="cls-2" d="M52.10025,120.42763c-1.41046.00409-1.53265.16687-1.559,1.69812-.03119,1.81286.00268,3.62671-.01056,5.44a44.77276,44.77276,0,0,1-.10254,4.62677c-.27161,2.433-1.93957,3.74249-4.44623,3.70032a3.89271,3.89271,0,0,1-4.13153-3.80158,13.95333,13.95333,0,0,1-.05426-1.60986c-.00574-2.14917-.00293-4.29834-.003-6.44757-.00024-3.85645-.27246-4.0813-4.07855-3.6247-.84.10077-1.183.48438-1.177,1.2934.02923,3.96179-.11585,7.93359.12048,11.88269.228,3.81006,2.98975,6.358,6.786,6.77728a8.12,8.12,0,0,0,7.00208-2.38079c.00982,1.67492.72869,2.03485,1.85241,1.89141a12.0783,12.0783,0,0,1,1.40918-.01c2.07776-.01892,2.12445-.05218,2.129-2.163q.01474-6.85044-.001-13.70105C55.82053,120.02791,56.34781,120.41524,52.10025,120.42763Z"/><path class="cls-2" d="M242.67508,171.22426a16.99358,16.99358,0,0,0-2.30518-.703c-1.17736-.27491-2.36853-.49219-3.55719-.71613a3.71068,3.71068,0,0,1-1.50158-.55194,1.354,1.354,0,0,1-.01752-2.34052,3.55274,3.55274,0,0,1,2.30957-.54821,8.38274,8.38274,0,0,1,4.13635,1.4386c1.23426.72833,1.49738.65832,2.42487-.33716.22882-.24561.43878-.51.64386-.77619.97986-1.27166.95459-1.68945-.40759-2.57672a12.23249,12.23249,0,0,0-8.6825-1.80035,8.34842,8.34842,0,0,0-4.06769,1.63238,5.6803,5.6803,0,0,0,1.29059,9.8498,16.32757,16.32757,0,0,0,2.91522.77722c1.24567.27221,2.49323.54651,3.71894.89416a1.33263,1.33263,0,0,1,1.08252,1.30017,1.61365,1.61365,0,0,1-.98078,1.41931,4.04223,4.04223,0,0,1-1.7453.43482,7.19389,7.19389,0,0,1-4.83972-1.69574c-.58624-.45569-1.17725-1.05579-1.96582-.53937a13.52531,13.52531,0,0,0-2.02081,1.655,1.10979,1.10979,0,0,0-.04413,1.48553,4.77773,4.77773,0,0,0,1.47339,1.35517c2.03613,1.32355,4.29834,1.85718,7.53851,1.89111A9.20629,9.20629,0,0,0,244.444,180.229C246.73611,177.9673,246.99069,172.908,242.67508,171.22426Z"/><path class="cls-2" d="M320.48886,176.24873c-2.09582-1.74542-2.09589-1.74548-4.07318.09095a5.22739,5.22739,0,0,1-6.6521.59387,5.67135,5.67135,0,0,1-1.745-6.70471,5.07232,5.07232,0,0,1,5.95709-2.97931,5.66805,5.66805,0,0,1,2.85577,1.78692c1.36225,1.37574,1.42047,1.37177,2.99.19434.26886-.20172.53968-.40241.794-.6217,1.10065-.94892,1.183-1.38471.29871-2.53284a10.00592,10.00592,0,0,0-1.68732-1.72052,10.86385,10.86385,0,0,0-12.474-.45044,10.35651,10.35651,0,0,0-4.11163,11.54034,10.5805,10.5805,0,0,0,18.1322,3.6261C321.84482,177.74123,321.78238,177.326,320.48886,176.24873Z"/><path class="cls-2" d="M58.28433,167.637a5.35548,5.35548,0,0,1,6.26239,1.24268c1.55414,1.54632,1.55432,1.5465,3.28144.232.214-.16284.43249-.32074.63708-.49481,1.12866-.96045,1.19965-1.3421.32013-2.52222a9.78047,9.78047,0,0,0-6.63934-3.80261,10.32261,10.32261,0,1,0-1.54682,20.49939,19.4031,19.4031,0,0,0,2.06012-.2085,9.51561,9.51561,0,0,0,6.19055-3.8172c.72522-1.02392.65967-1.45178-.1914-2.25811-2.09387-1.98359-2.32733-1.98505-4.53156-.02948-.10058.08923-.20093.17926-.30676.2619a4.98238,4.98238,0,0,1-5.12885.749,4.86367,4.86367,0,0,1-3.176-4.08447A5.32712,5.32712,0,0,1,58.28433,167.637Z"/><path class="cls-2" d="M107.83481,139.51643a9.25721,9.25721,0,0,0,4.00482-3.27307c.37439-.54608.59131-1.14361.0849-1.65289a6.28087,6.28087,0,0,0-2.74164-1.97363c-1.06524-.26575-1.3905.873-2.04626,1.38647-.10578.08283-.20246.17713-.306.26294a5.24549,5.24549,0,0,1-6.35724.32514,5.56146,5.56146,0,0,1-1.96881-6.11976,5.06476,5.06476,0,0,1,5.15973-3.69427,5.39687,5.39687,0,0,1,4.003,2.04517c.44311.50048.89911,1.18072,1.66217.83136a8.00668,8.00668,0,0,0,2.68713-2.0821,1.09806,1.09806,0,0,0-.03821-1.32684,6.98412,6.98412,0,0,0-1.567-1.83282,10.44552,10.44552,0,0,0-11.5138-1.60077,9.53616,9.53616,0,0,0-5.9273,8.91595,14.49107,14.49107,0,0,0,.32934,3.176A10.47489,10.47489,0,0,0,107.83481,139.51643Z"/><path class="cls-2" d="M88.51572,113.25063c-.0185-1.43622-.21143-1.58887-1.65076-1.64063-.67072-.02411-1.34381-.025-2.01447-.0003-1.35455.04986-1.51916.205-1.61853,1.47265-.02618.33393-.01068.67127-.01074,1.007q-.00137,9.87222.00263,19.74445a18.30255,18.30255,0,0,0,.1018,2.00976,4.10864,4.10864,0,0,0,4.03449,3.98682,15.71131,15.71131,0,0,0,1.61041.032c2.97949-.0075,2.96692.45667,2.92908-3.16974-.00879-.84161-.37683-1.14654-1.21076-1.23108-2.12463-.21521-2.14782-.26886-2.15771-2.46673-.01453-3.22351-.00372-6.44714-.00409-9.67072q-.00064-.90655-.00043-1.81323C88.52646,118.75746,88.55112,116.00368,88.51572,113.25063Z"/><path class="cls-2" d="M149.34567,177.79671c-2.17779-.23023-2.18951-.27429-2.19281-2.42926q-.01364-9.059-.00329-18.11792c.00061-3.65363.25909-3.26471-3.43946-3.26526-1.72882-.00025-1.80169.0824-1.81054,1.8396-.01837,3.62347-.0055,7.24713-.00586,10.87073-.00043,3.55645-.02124,7.11309.00586,10.66937.02374,3.1145,1.551,4.6759,4.66485,4.847.33478.01844.67066.02039,1.006.02375,3.02728.03033,3.24743-.22437,2.96832-3.169C150.464,178.27663,150.20926,177.888,149.34567,177.79671Z"/><path class="cls-1" d="M275.09225,155.614c-.012-1.50861-.11828-1.58435-1.61566-1.62946-.80523-.02429-1.61291.02289-2.4176-.0086-.93188-.0365-1.37286.37445-1.3465,1.30737.01325.46973-.00274.94025-.00274,1.4104q-.00055,11.08264.002,22.16534c.00378,3.68323-.377,3.37409,3.33106,3.36957,1.98138-.00244,2.04937-.07428,2.05542-2.03131.01239-4.03.00372-8.06012.00347-12.09015q-.00027-1.10825-.00018-2.21655C275.10129,162.465,275.11954,159.03932,275.09225,155.614Z"/><path class="cls-2" d="M200.71823,162.79768c-1.45428.00208-1.53314.10975-1.54645,1.67383-.02282,2.68866-.00628,5.37769-.00647,8.06653q-.00018,3.32739.00037,6.65485c.00348,3.1391-.33978,3.06775,3.068,3.04217,2.09034-.01568,2.17969-.09112,2.18482-2.13666.01147-4.571.02423-9.14221-.00263-13.71307C204.39243,162.38686,205.014,162.79152,200.71823,162.79768Z"/><path class="cls-2" d="M254.50754,176.28328c-.33551,0-.67108-.00287-1.00653.00049-1.91724.01916-1.92786.01672-2.44385,1.89166-.55127,2.00311-1.084,4.01141-1.61749,6.01935-.79816,3.00366-1.07087,2.84338,2.284,2.91363a1.96252,1.96252,0,0,0,2.19825-1.54254c.7716-2.21441,1.65789-4.38891,2.50067-6.57843C257.46329,176.28371,257.46506,176.28438,254.50754,176.28328Z"/><path class="cls-2" d="M327.0582,175.7889a3.4144,3.4144,0,1,0-.12677,6.827,3.41407,3.41407,0,1,0,.12677-6.827Z"/><path class="cls-2" d="M201.80356,153.98286a3.02666,3.02666,0,1,0-.04846,6.053,3.02693,3.02693,0,1,0,.04846-6.053Z"/></svg>