<svg id="Layer_1" data-name="Layer 1" xmlns="http://www.w3.org/2000/svg" viewBox="0 0 1111.00946 232.62338"><defs><style>.cls-1{fill:none;}.cls-2{fill:#005aaa;}</style></defs><title>qualcomm</title><rect class="cls-1" x="281.58336" y="-599.40858" width="547.07903" height="1432.16922" transform="translate(671.7989 -438.44685) rotate(90)"/><path class="cls-2" d="M305.56055,74.15123a5.51079,5.51079,0,0,1,5.44954,5.44957V182.66733a5.46849,5.46849,0,0,1-5.44954,5.21276H291.582a5.21115,5.21115,0,0,1-5.21273-4.976v-9.47719c-7.10819,10.42547-19.19233,17.53367-36.96172,17.53367-29.61671,0-47.86186-19.66593-47.86186-48.808V79.364a5.46923,5.46923,0,0,1,5.44954-5.21275h13.97958A5.25851,5.25851,0,0,1,226.1876,79.364v58.75987c0,18.95552,9.95079,31.51215,29.61672,31.51215,19.19123,0,30.565-13.03132,30.565-31.27537V79.364a5.4218,5.4218,0,0,1,5.21273-5.21275h13.97851M99.42667,17.04916c-47.86078,0-86.48113,37.19959-86.48113,86.95583,0,49.75729,38.62035,86.9558,86.48113,86.9558a89.1513,89.1513,0,0,0,23.59041-3.16633l9.3447,24.253c.94717,2.60585,2.84263,4.26557,6.39671,4.26557h14.92676c3.5541,0,6.15993-2.37013,4.50127-6.87138l-12.171-31.737c24.00535-15.08315,39.89233-41.80079,39.89233-73.69962,0-49.75624-38.61927-86.95583-86.48115-86.95583m37.646,137.33877-10.87192-28.348c-.94719-2.369-2.84263-4.50125-7.1082-4.50125H104.87621c-3.5541,0-6.39671,2.369-4.73807,6.87138l14.3641,37.28214a62.63283,62.63283,0,0,1-15.07557,1.8118c-35.06626,0-59.94383-27.48555-59.94383-63.499,0-36.01454,24.87757-63.49794,59.94383-63.49794s59.94492,27.4834,59.94492,63.49794c0,20.91178-8.3997,38.93317-22.29889,50.38294m959.8168,27.80557c1.185,2.84373-.23681,5.68635-3.791,5.68635h-15.6382a6.1163,6.1163,0,0,1-6.15994-4.26447l-28.90627-77.71432-29.37991,77.71432a6.02682,6.02682,0,0,1-6.15994,4.26447H992.87465a6.02683,6.02683,0,0,1-6.15994-4.26447L957.098,105.4264l-29.14309,78.189a6.3139,6.3139,0,0,1-6.16,4.26447H907.10389a6.31381,6.31381,0,0,1-6.15988-4.26447l-28.90634-78.189-29.85353,78.189a6.02683,6.02683,0,0,1-6.15994,4.26447H822.04462a6.02755,6.02755,0,0,1-6.15988-4.26447l-29.14315-78.189-29.14315,78.189a6.11621,6.11621,0,0,1-6.15995,4.26447H736.27385c-3.55406,0-4.97481-2.84262-3.78975-5.68635L772.05051,78.65338c1.18507-3.08051,3.31838-4.50235,6.161-4.50235h17.059c2.84263,0,4.976,1.42184,6.161,4.50235l27.95809,75.58207,28.19484-75.58207c1.18506-3.08051,3.31731-4.50235,6.15994-4.50235h16.82327c2.84375,0,4.97594,1.42184,6.161,4.50235l27.95809,75.58207,27.95809-75.58207c1.18506-3.08051,3.31732-4.50235,6.15994-4.50235h16.82214c2.84376,0,4.976,1.42184,6.16107,4.50235l28.43165,75.58207,27.72128-75.58207c1.18506-3.08051,3.31725-4.50235,6.16094-4.50235H1051.161c2.84362,0,4.97482,1.42184,6.15981,4.50235L1096.8895,182.1935M441.08719,74.1509H427.10867a5.51145,5.51145,0,0,0-5.44953,5.44953v9.47832c-7.1082-10.66229-20.8499-18.24408-37.19851-18.24408-30.80178,0-57.33908,24.404-57.33908,59.94384,0,36.01454,26.5373,60.18171,57.10121,60.18171,16.58648,0,30.0914-7.58175,37.43638-18.24295v9.95079a5.469,5.469,0,0,0,5.44953,5.21166h13.97852a5.25921,5.25921,0,0,0,5.21381-5.21166V79.60043a5.31373,5.31373,0,0,0-5.21381-5.44953m-54.02071,94.064c-20.3763,0-34.82947-16.58648-34.82947-37.19847,0-20.851,14.45317-36.96282,34.82947-36.96282,20.13949,0,34.82944,16.11183,34.82944,36.96282,0,20.612-14.69,37.19847-34.82944,37.19847m220.82345,3.55343c3.0805,3.79091.47362,6.63354-1.18507,7.81861-9.71288,7.346-22.50852,11.37372-36.487,11.37372-35.30415,0-58.75986-25.82583-58.75986-59.94489S534.91374,70.834,570.21789,70.834c13.97845,0,26.77409,4.02769,36.487,11.37267,1.65869,1.18506,4.02882,3.792,1.18507,7.81966l-6.63351,9.24045c-2.60687,3.553-5.68738,2.60581-8.29326.94715-6.15988-3.79087-13.50488-6.87138-22.03489-6.87138-20.61308,0-34.35591,16.58543-34.35591,37.6732S550.31519,168.451,570.92827,168.451c8.53,0,15.40033-3.31622,21.56133-6.87032,2.60694-1.42184,5.44957-2.60581,8.2922,1.184Zm65.86872-100.6966c-33.17084,0-59.70818,26.06262-59.70818,59.94493,0,34.118,26.53734,59.94384,59.70818,59.94384s59.707-25.82584,59.707-59.94384c0-33.88231-26.53621-59.94493-59.707-59.94493m0,96.90553c-20.37739,0-34.82947-16.34861-34.82947-36.9606,0-20.851,14.45208-36.96282,34.82947-36.96282,20.37627,0,34.82834,16.11183,34.82834,36.96282,0,20.612-14.45207,36.9606-34.82834,36.9606M490.13324,20.13009a5.30815,5.30815,0,0,1,5.21269,5.44957V182.43118a5.30879,5.30879,0,0,1-5.21269,5.44954h-13.9796a5.67862,5.67862,0,0,1-5.44954-5.44954V25.57966a5.67784,5.67784,0,0,1,5.44954-5.44957h13.9796"/></svg>