<svg id="Layer_1" data-name="Layer 1" xmlns="http://www.w3.org/2000/svg" viewBox="0 0 612 493.45662"><defs><style>.cls-1{fill:#231f20;}.cls-2{fill:#242122;}.cls-3{fill:#252122;}.cls-4{fill:#252223;}.cls-5{fill:#262324;}.cls-6{fill:#fffefe;}.cls-7{fill:#0070af;}.cls-8{fill:#030303;}</style></defs><title>rackn</title><path class="cls-1" d="M312.658,313.42665q87.58018.00029,175.16031-.00114a31.75778,31.75778,0,0,0,6.87181-.60465,107.98145,107.98145,0,0,0,41.59413-18.88061c24.43263-18.16946,36.30972-53.35389,28.44338-84.26909-7.006-27.53386-23.80176-46.86809-49.89755-58.097a3.17208,3.17208,0,0,1-2.33542-2.79961c-3.9491-26.41948-15.39938-49.10747-35.19621-67.05564C447.48686,54.69105,412.573,45.88752,373.28667,54.3058a2.88828,2.88828,0,0,1-2.95235-.69987C333.09843,20.29038,289.63124,7.25981,240.69673,16.85222,186.956,27.38678,149.95642,59.4,129.02561,109.9562a4.41539,4.41539,0,0,1-3.473,3.085c-22.00465,5.09277-40.504,16.15614-54.85823,33.57562C51.18581,170.29131,43.44871,197.50658,48.4671,227.871c4.18491,25.32143,16.77606,46.14289,36.09951,62.83411,17.79948,15.3748,38.39115,22.96719,62.16414,22.826C202.0381,313.20263,257.34874,313.4264,312.658,313.42665ZM95.79337,283.43433c-19.38262-15.22654-31.7419-34.981-35.33033-59.45272-3.6853-25.1325,2.75945-47.96525,18.6386-67.81942,14.40941-18.01647,33.30034-28.645,56.08742-32.25564a3.429,3.429,0,0,0,3.09167-2.69083c16.872-47.36973,49.28809-78.70319,98.174-90.63293,48.81578-11.91256,91.99617.762,128.55386,35.33534,2.17405,2.056,3.80187,2.68646,6.7987,1.80349,56.7105-16.70877,117.051,20.52091,127.58549,78.5787a74.12539,74.12539,0,0,1,1.41349,11.16138,3.03926,3.03926,0,0,0,2.56824,3.33989,71.32363,71.32363,0,0,1,12.38253,131.842c-7.47406,3.83906-15.21546,6.87663-23.61657,7.93337a36.985,36.985,0,0,1-4.59519.26666q-86.415.01949-172.83008.011c-55.986,0-111.97255-.14514-167.95766.08A79.59524,79.59524,0,0,1,95.79337,283.43433Z"/><path class="cls-2" d="M130.20558,478.71977c-10.45112-12.29637-20.90148-24.59336-31.72011-37.32338,4.48856,0,8.47695.05911,12.463-.01128a21.12163,21.12163,0,0,0,20.60687-20.92327q.01416-16.02449.0019-32.049c-.00006-12.53033-9.21457-21.79267-21.84367-21.80692-31.27967-.03517-62.55947.01064-93.839-.06355-2.00667-.00475-2.34454.58894-2.33307,2.43026.08109,13.07543.04314,26.15161.04314,39.22761q0,36.27927-.044,72.55855c-.00488,1.79444.41662,2.29253,2.22651,2.23228,4.35381-.14495,8.72067-.16928,13.07226.00583,2.11019.085,2.68994-.45064,2.66935-2.62368-.11733-12.3912-.06316-24.78405-.04276-37.17621.00139-.87511-.5183-1.95022,1.33981-1.932,12.64671.12373,25.29659.23,37.94114.04511a8.34482,8.34482,0,0,1,7.31079,3.3843c10.23128,12.25816,20.67841,24.336,30.98254,36.5338a4.47393,4.47393,0,0,0,3.90717,1.75212c5.55348-.09547,11.10968-.02927,16.66481-.0401,1.87907-.00368,2.612-1.1806,1.74552-2.85689A8.13676,8.13676,0,0,0,130.20558,478.71977Zm-57.8925-54.84835q-17.95057.00028-35.90128-.00247c-3.9071-.00241-4.95719-1.07872-4.95827-5.03511q-.004-15.00168.0014-30.00328c.00234-3.4839,1.06966-4.6059,4.5879-4.60856q36.54242-.02764,73.08477-.00095c3.56125.00241,4.55667,1.05351,4.55914,4.61768q.01054,15.00166.00158,30.00328c-.00107,3.95677-1.04394,5.024-4.961,5.02644Q90.5202,423.87975,72.31308,423.87142Z"/><path class="cls-3" d="M600.5054,368.38523c.0026-1.69174-.55289-1.93888-2.03321-1.90778-4.35787.09174-8.72612.18044-13.076-.02755-2.28594-.10923-2.7827.54851-2.77623,2.78693q.12525,43.34188.04276,86.68433a5.54384,5.54384,0,0,1-.33977,2.97181c-.40223-.44519-.63259-.68771-.84938-.942q-38.23407-44.85468-76.45983-89.7167c-.83621-.98154-1.53633-1.81167-3.113-1.77664-5.89571.13127-11.79682.0996-17.69431.01895-1.44421-.01977-1.8365.37531-1.835,1.82858q.06006,56.42184.00006,112.84354c-.00152,1.45284.389,1.85944,1.83492,1.82922,4.4434-.09287,8.8961-.17162,13.33284.02376,2.24678.0989,2.797-.48947,2.79-2.76774-.08946-28.98005-.05879-57.96042-.05873-86.94072v-3.229c7.16919,8.3989,13.8735,16.24028,20.5638,24.09357q28.5813,33.5496,57.133,67.12456a4.22934,4.22934,0,0,0,3.67725,1.70739c5.55411-.11905,11.11291-.08883,16.66867-.017,1.51213.01951,2.19908-.15877,2.196-2.0004Q600.41484,424.67887,600.5054,368.38523Z"/><path class="cls-3" d="M225.74647,389.1517c-24.86642-.20521-49.73562-.056-74.60362-.10612-1.41584-.00285-1.67812.47028-1.65766,1.74255.06855,4.27176.18138,8.55316-.03453,12.81511-.12195,2.40687.43189,3.08286,2.97675,3.07006,23.50025-.11784,47.00127-.06988,70.50209-.06924,4.53576.00012,5.48493.96862,5.48626,5.59092.0012,4.18738-.10542,8.37874.04789,12.56048.07,1.90746-.42662,2.42912-2.377,2.41392-12.39057-.09681-24.78228-.04923-37.17362-.0491s-24.78291.03775-37.17374-.04239c-1.77-.01146-2.288.39736-2.2732,2.22708.09034,11.10873.04036,22.2186.05442,33.328a14.26286,14.26286,0,0,0,.21832,2.54373c1.99064,10.84663,10.47386,17.73479,22.0447,17.75481,24.01348.04156,48.02728-.02294,72.04044.07222,2.19617.00868,2.4167-.77824,2.41271-2.61062q-.07659-34.99475-.03611-69.98962C246.19642,398.72859,237.37464,389.24755,225.74647,389.1517Zm2.70426,74.28672c.02642,1.56883-.40471,2.02017-1.99875,2.01523-18.09547-.05563-36.19112-.02427-54.28672-.04435-3.61427-.004-4.77574-1.19676-4.78372-4.7205-.01008-4.43852.10972-8.88115-.052-13.31377-.07514-2.05837.37271-2.73087,2.59086-2.697,9.30175.14192,18.60686.05994,27.91076.06,9.38924,0,18.77893.04675,28.16735-.04036,1.83017-.017,2.52573.33476,2.46915,2.3543C228.31464,452.5105,228.3588,457.97706,228.45073,463.43842Z"/><path class="cls-4" d="M468.942,478.5145q-18.80481-20.46252-37.6399-40.89718c-1.18966-1.28538-1.17249-1.969.02592-3.25461,8.73213-9.368,17.37177-18.822,26.03669-28.25262,4.1002-4.46265,8.15137-8.97155,12.31676-13.37237a3.02927,3.02927,0,0,0,.80821-3.25183c-.33027-.89646-1.51448-.37905-2.30191-.38519-5.29873-.04144-10.60056.07469-15.89562-.07128a5.53627,5.53627,0,0,0-4.61432,2.01827c-10.72874,11.59225-21.52906,23.11829-32.26983,34.69945a4.05522,4.05522,0,0,1-3.33812,1.4031c-5.55449-.0733-11.11608-.17542-16.66341.03763-2.38876.0918-2.73854-.70278-2.73037-2.85137.08122-21.19588.02275-42.39233.09427-63.58827.0064-1.89713-.41186-2.488-2.37805-2.41169-4.267.16561-8.54961.1696-12.81631-.00045-2.05583-.08185-2.51445.55853-2.507,2.54113.07457,19.82839.0453,39.65721.0453,59.48585,0,20.08516.029,40.17032-.04732,60.25516-.00723,1.8979.40679,2.45478,2.35575,2.37793,4.26682-.16814,8.548-.1492,12.81675-.008,1.92545.06379,2.56419-.36,2.54176-2.44908-.11917-11.10962.00234-22.22183-.10821-33.33164-.02065-2.07769.60446-2.56564,2.5742-2.51509,5.12476.13159,10.25865.15617,15.38164-.00614a6.48882,6.48882,0,0,1,5.51179,2.35848c10.63376,11.56323,21.404,23.001,32.111,34.497a3.76994,3.76994,0,0,0,3.05949,1.44092c5.81044-.09078,11.62316-.02977,17.43493-.04333,1.87718-.00437,2.55912-1.25137,1.55959-2.90237A10.52642,10.52642,0,0,0,468.942,478.5145Z"/><path class="cls-5" d="M355.98187,465.36058c-23.50773.09611-47.016.05993-70.52414.05854-4.81737-.00032-5.74721-.90634-5.74734-5.58237q-.00066-23.85009.00006-47.70012c.00013-4.60862.92206-5.53283,5.52567-5.533q35.39046-.00114,70.78078.03744c1.69149.004,2.37184-.2581,2.30532-2.16088-.15534-4.43978-.12639-8.89058-.00988-13.33277.0434-1.65486-.38868-2.11266-2.08339-2.10854-24.36282.05892-48.726-.00583-73.08877.05974-12.15458.03269-21.2892,9.356-21.29515,21.52089-.00811,16.584.31468,33.176-.10726,49.74911a21.82017,21.82017,0,0,0,22.7044,22.62356c11.62126-.23188,23.25083-.0479,34.87665-.048,12.3952-.00006,24.79065-.03966,37.18527.04378,1.80952.01223,2.30114-.46584,2.24165-2.26072-.13874-4.18415-.18524-8.38268.01242-12.562C358.8646,465.91581,358.26641,465.35127,355.98187,465.36058Z"/><path class="cls-6" d="M314.71521,300.85463q86.4151-.00009,172.83008-.011a36.985,36.985,0,0,0,4.59519-.26666c8.40111-1.05674,16.14251-4.09431,23.61657-7.93337a71.32363,71.32363,0,0,0-12.38253-131.842,3.03926,3.03926,0,0,1-2.56824-3.33989,74.12539,74.12539,0,0,0-1.41349-11.16138c-10.53449-58.05779-70.875-95.28747-127.58549-78.5787-2.99683.883-4.62465.25253-6.7987-1.80349-36.55769-34.57332-79.73808-47.2479-128.55386-35.33534-48.88592,11.92974-81.302,43.2632-98.174,90.63293a3.429,3.429,0,0,1-3.09167,2.69083c-22.78708,3.61066-41.678,14.23917-56.08742,32.25564-15.87915,19.85417-22.3239,42.68692-18.6386,67.81942,3.58843,24.47172,15.94771,44.22618,35.33033,59.45272a79.59524,79.59524,0,0,0,50.96418,17.50032C202.74266,300.70949,258.72922,300.85463,314.71521,300.85463ZM491.62,187.904a42.33812,42.33812,0,0,1-.22972,82.88486c-1.99774.42758-2.28536-.06462-2.27757-1.87172.057-13.23749.03079-26.47529.03066-39.713-.00019-13.06694.03865-26.13407-.04067-39.2005C489.09037,187.96491,489.44889,187.46536,491.62,187.904Zm-163.09955,72.0222c-.00006.48757-.04251.97521-.08521,1.89232q-53.51636-35.59031-106.47641-70.81056l.16485-.52108h2.43456q50.63208-.0001,101.26416-.01926c1.66342-.00121,2.77566-.11341,2.76413,2.29125C328.47917,215.14754,328.52364,237.537,328.52047,259.92616Zm.04384-89.41019c.00824,1.84683-.3608,2.48138-2.36132,2.473-18.96589-.07964-37.93234-.04612-56.89855-.04878a6.4918,6.4918,0,0,1-.69486-.07254,181.7226,181.7226,0,0,0,32.72078-23.349,170.48739,170.48739,0,0,0,27.19277-30.09141v3.16067C328.52313,138.564,328.493,154.5402,328.56431,170.516ZM469.2687,271.6747q-51.93068-.12344-103.86192-.05759h-1.68623l-.12012-.46134q53.78785-35.78084,107.66125-71.61864a3.2976,3.2976,0,0,1,.35719,2.30007q.02205,33.59484.04441,67.18975C471.66721,270.83571,471.49426,271.68,469.2687,271.6747ZM437.08015,103.422c22.72024,13.8868,33.82739,34.75393,34.81716,61.07945l-.75283.52426c-33.04585-21.99357-66.09177-43.98714-99.73036-66.37522C394.56612,89.90811,416.44717,90.811,437.08015,103.422Zm-91.04441,2.38945v-3.02572c35.24069,23.43791,69.97644,46.54,104.78784,69.69243-.79186.789-1.59094.44328-2.285.44373q-49.729.03278-99.45787.07425c-2.4606.00614-3.11568-.62543-3.1039-3.10111C346.07876,148.53425,346.03562,127.17276,346.03574,105.81146Zm.02724,152.07439c-.03687-21.62409-.01254-43.24824-.05568-64.87227-.00342-1.6956.11967-2.58167,2.26319-2.57717q51.41048.108,102.82133.05391c.412,0,.824.04118,2.04006.10605-5.73651,3.82639-10.8289,7.23021-15.92832,10.62344q-43.94038,29.23863-87.89122,58.46161c-.906.60212-1.97924,1.88314-2.8022,1.47406C345.40594,260.60671,346.06489,259.00759,346.063,257.88585ZM333.39885,77.31917c-2.18241.62068-115.3483.91737-129.32513.32241C240.37128,49.18471,294.95563,47.71553,333.39885,77.31917ZM202.82755,97.1743c-.00228-1.43814.15534-2.05191,1.87673-2.04931q58.074.08722,116.148.04922c.31595,0,.63183.06608,1.16064.125a49.55378,49.55378,0,0,1-5.49861,10.45124c-22.43464,32.936-52.36455,55.14193-91.70646,63.79627a186.09643,186.09643,0,0,1-19.71992,3.04966c-1.84588.20267-2.27459-.28338-2.27041-2.09258Q202.90225,133.83918,202.82755,97.1743Zm-40.95331,50.636a110.26433,110.26433,0,0,1,22.70326-51.36,3.23936,3.23936,0,0,1,.62778-.40464v68.70372c-.82772.249-1.25283-.2837-1.71341-.58843-6.759-4.47095-13.48007-8.99974-20.26977-13.4233A2.54861,2.54861,0,0,1,161.87424,147.8103ZM114.7075,162.6597a59.15128,59.15128,0,0,1,19.218-8.72675,3.5151,3.5151,0,0,1,3.14286.30112q13.27581,8.91532,26.6044,17.75209c.20812.13868.41446.28015,1.19163.80586h-61.272A51.91569,51.91569,0,0,1,114.7075,162.6597Zm-20.624,73.83305a60.24443,60.24443,0,0,1-2.07528-43.9637c.43879-1.35109.9389-2.0896,2.60619-2.0851q35.24354.09531,70.48751.04751c.30689.00006.61384.05512,1.601.14958-19.65606,13.06808-38.70532,25.73088-57.75223,38.39729-4.05225,2.69476-8.12565,5.35956-12.12677,8.12857C95.50163,238.082,94.837,238.23143,94.08351,236.49275ZM179.526,271.6173c-10.594,0-21.19081.15642-31.78124-.03655a58.47277,58.47277,0,0,1-41.18063-17.3095c-1.12941-1.1059-1.50231-1.684.15142-2.77908q38.53635-25.51893,76.99428-51.15621a1.62695,1.62695,0,0,1,1.63314-.47027q0,33.01743.00006,65.9195C185.34307,271.6173,185.343,271.6173,179.526,271.6173Zm23.27655-2.58218c.08426-23.06406.0529-46.1285.0529-69.7303l108.7026,72.31236h-2.8622q-51.64445,0-103.28869.05518C203.2505,271.67724,202.79492,271.138,202.80259,269.03512Z"/><path class="cls-3" d="M205.08789,172.59638a186.09643,186.09643,0,0,0,19.71992-3.04966c39.34191-8.65434,69.27182-30.86027,91.70646-63.79627a49.55378,49.55378,0,0,0,5.49861-10.45124c-.52881-.05892-.84469-.125-1.16064-.125q-58.07394-.00713-116.148-.04922c-1.72139-.0026-1.879.61117-1.87673,2.04931q.05844,36.66471-.01007,73.3295C202.8133,172.313,203.242,172.79905,205.08789,172.59638Z"/><path class="cls-7" d="M471.26168,199.53713q-53.91615,35.86628-107.66125,71.61864l.12012.46134h1.68623q51.93105.0001,103.86192.05759c2.22556.00526,2.39851-.839,2.39458-2.64775q-.07422-33.59475-.04441-67.18975A3.2976,3.2976,0,0,0,471.26168,199.53713Z"/><path class="cls-8" d="M308.69589,271.61718h2.8622l-108.7026-72.31236c0,23.6018.03136,46.66624-.0529,69.7303-.00767,2.10285.44791,2.64212,2.60461,2.63724Q257.05135,271.5549,308.69589,271.61718Z"/><path class="cls-7" d="M346.51014,261.15548c.823.40908,1.89624-.87194,2.8022-1.47406q43.956-29.21525,87.89122-58.46161c5.09942-3.39323,10.19181-6.797,15.92832-10.62344-1.21608-.06487-1.62807-.10605-2.04006-.10605q-51.41076-.00475-102.82133-.05391c-2.14352-.0045-2.26661.88157-2.26319,2.57717.04314,21.624.01881,43.24818.05568,64.87227C346.06489,259.00759,345.40594,260.60671,346.51014,261.15548Z"/><path class="cls-7" d="M325.82242,190.46758q-50.63208.03839-101.26416.01926H222.1237l-.16485.52108q53.09917,35.31282,106.47641,70.81056c.0427-.91711.08515-1.40475.08521-1.89232.00317-22.38921-.0413-44.77862.06608-67.16733C328.59808,190.35417,327.48584,190.46637,325.82242,190.46758Z"/><path class="cls-7" d="M349.08072,172.99615q49.72872-.124,99.45787-.07425c.69405-.00045,1.49313.34528,2.285-.44373-34.8114-23.15244-69.54715-46.25452-104.78784-69.69243v3.02572c-.00012,21.3613.043,42.72279-.05892,64.08358C345.965,172.37072,346.62012,173.00229,349.08072,172.99615Z"/><path class="cls-7" d="M183.70987,200.336q-38.49,25.589-76.99428,51.15621c-1.65373,1.09507-1.28083,1.67318-.15142,2.77908a58.47277,58.47277,0,0,0,41.18063,17.3095c10.59043.193,21.18726.03655,31.78124.03655,5.817,0,5.817,0,5.817-5.83211q0-32.931-.00006-65.9195A1.62695,1.62695,0,0,0,183.70987,200.336Z"/><path class="cls-7" d="M471.89731,164.50146c-.98977-26.32552-12.09692-47.19265-34.81716-61.07945-20.633-12.611-42.514-13.5139-65.666-4.77151,33.63859,22.38808,66.68451,44.38165,99.73036,66.37522Z"/><path class="cls-7" d="M489.14339,229.20407c.00013,13.23774.02636,26.47554-.03066,39.713-.00779,1.8071.27983,2.2993,2.27757,1.87172A42.33812,42.33812,0,0,0,491.62,187.904c-2.17113-.4386-2.52965.06095-2.5173,2.09961C489.182,203.07,489.1432,216.13713,489.14339,229.20407Z"/><path class="cls-7" d="M333.39885,77.31917c-38.44322-29.60364-93.02757-28.13446-129.32513.32241C218.05055,78.23654,331.21644,77.93985,333.39885,77.31917Z"/><path class="cls-7" d="M166.70295,190.641c-.98718-.09446-1.29413-.14952-1.601-.14958q-35.24382-.00636-70.48751-.04751c-1.66729-.0045-2.1674.734-2.60619,2.0851a60.24443,60.24443,0,0,0,2.07528,43.9637c.75347,1.73868,1.41812,1.58929,2.74044.67415,4.00112-2.769,8.07452-5.43381,12.12677-8.12857C127.99763,216.37192,147.04689,203.70912,166.70295,190.641Z"/><path class="cls-7" d="M328.52313,119.42723a170.48739,170.48739,0,0,1-27.19277,30.09141,181.7226,181.7226,0,0,1-32.72078,23.349,6.4918,6.4918,0,0,0,.69486.07254c18.96621.00266,37.93266-.03086,56.89855.04878,2.00052.00836,2.36956-.62619,2.36132-2.473-.07127-15.97577-.04118-31.952-.04118-47.92807Z"/><path class="cls-7" d="M163.2221,150.7377c6.7897,4.42356,13.51079,8.95235,20.26977,13.4233.46058.30473.88569.83747,1.71341.58843V96.04571a3.23936,3.23936,0,0,0-.62778.40464,110.26433,110.26433,0,0,0-22.70326,51.36A2.54861,2.54861,0,0,0,163.2221,150.7377Z"/><path class="cls-7" d="M163.67273,171.98616q-13.30821-8.86706-26.6044-17.75209a3.5151,3.5151,0,0,0-3.14286-.30112,59.15128,59.15128,0,0,0-19.218,8.72675A51.91569,51.91569,0,0,0,103.59237,172.792h61.272C164.08719,172.26631,163.88085,172.12484,163.67273,171.98616Z"/></svg>