<svg id="Layer_1" data-name="Layer 1" xmlns="http://www.w3.org/2000/svg" viewBox="0 0 1225.26069 332.20986"><defs><style>.cls-1{fill:#df1c4b;}.cls-2{fill:#2e2f31;}.cls-3{fill:#df1c4c;}.cls-4{fill:#353638;}.cls-5{fill:#3e4041;}.cls-6{fill:#444547;}.cls-7{fill:#3a3c3d;}.cls-8{fill:#484a4b;}.cls-9{fill:#303233;}.cls-10{fill:#4f5051;}.cls-11{fill:#595a5b;}.cls-12{fill:#898a8a;}.cls-13{fill:#959595;}.cls-14{fill:#8f9090;}.cls-15{fill:#9a9b9a;}.cls-16{fill:#838384;}.cls-17{fill:#727374;}.cls-18{fill:#686969;}.cls-19{fill:#a4a5a5;}.cls-20{fill:#636465;}.cls-21{fill:#9fa0a0;}.cls-22{fill:#767879;}.cls-23{fill:#b6b6b7;}.cls-24{fill:#525354;}.cls-25{fill:#a9aaaa;}.cls-26{fill:#b1b2b2;}.cls-27{fill:#bcbbbb;}.cls-28{fill:#7e7f7f;}.cls-29{fill:#adadae;}.cls-30{fill:#5e5f61;}.cls-31{fill:#6d6e6f;}.cls-32{fill:#7a7c7c;}.cls-33{fill:#fefefe;}</style></defs><title>radisys</title><path class="cls-1" d="M603.007,225.72c-11.88055,7.79511-24.3822,13.42938-38.12042,16.0744-29.05627,5.59421-49.543-7.11871-57.3172-35.85046-5.91693-21.86765-5.306-44.14822-3.49878-66.44681a102.24757,102.24757,0,0,1,3.431-19.12849c7.45526-26.83609,24.52692-35.11425,48.01715-34.4659A129.08362,129.08362,0,0,1,598.85453,94.711c3.869,1.50423,4.39349.47675,4.37543-3.1549-.11676-23.49131.08111-46.98507-.18244-70.474-.0542-4.83078,1.18231-6.30875,6.04853-6.024a205.86918,205.86918,0,0,0,22.48.00919c4.319-.22043,5.11987,1.2523,5.11053,5.29q-.2026,87.21941-.09241,174.43951c0,14.16178-.09552,28.32468.0719,42.48447.03815,3.22794-.775,4.35074-4.13067,4.21619-6.48731-.26013-12.99506-.18116-19.489-.02344-2.54138.06177-3.88977-.69846-4.7771-3.18863C606.78245,234.11225,604.86539,230.09233,603.007,225.72Z"/><path class="cls-1" d="M978.27769,241.52284c-23.51062-1.03339-35.11719-15.05033-40.88953-35.37394-10.7616-37.8901-21.2804-75.84919-32.04956-113.73712-.96753-3.40394-.51257-4.37751,3.10046-4.2989,8.82532.192,17.66419.26074,26.484-.02974,3.85913-.12709,5.42285,1.11356,6.42578,4.88046,9.3219,35.01331,18.86536,69.96765,28.3291,104.94324,1.80091,6.65555,4.7992,12.04321,12.51844,13.12079,3.22412.45007,4.65-.4744,5.59985-3.81027,10.83057-38.04053,21.92188-76.00684,32.72266-114.0557,1.11889-3.94171,2.68152-5.2672,6.78271-5.101,8.64868.35042,17.32691.29027,25.98169.02664,3.84546-.11712,4.35327.939,3.32776,4.4493q-16.84845,57.66584-33.46545,115.39923-10.87372,37.60419-21.6709,75.23038a35.2288,35.2288,0,0,1-5.83924,11.9776q-7.56261,9.92889-14.60705,20.24814c-1.77661,2.59295-3.64124,3.904-6.91992,3.69748a119.52,119.52,0,0,0-13.986-.011c-4.04541.22037-5.16943-.59445-3.80639-4.96152,7.03052-22.52453,13.71887-45.15591,20.52514-67.75046C977.27024,244.9423,977.68735,243.51466,978.27769,241.52284Z"/><path class="cls-1" d="M179.54075,12.63365c10.46759.0124,21.04928-1.45932,31.36722.801,16.86547,3.69471,28.15032,14.14875,32.948,30.68168,4.84134,16.68336.95014,31.65283-11.34134,44.09819-9.36306,9.48027-18.95059,18.73941-28.477,28.05728-1.56872,1.53441-2.56774,2.48921-.34652,4.66162q34.833,34.06785,69.43521,68.3718,24.73443,24.38245,49.49447,48.73892c1.26935,1.25073,2.47019,2.57095,3.86863,4.03207-1.59641,1.06687-3.1055.64371-4.49588.6463-17.82859.03348-35.658-.05886-53.48526.09537a10.11471,10.11471,0,0,1-7.8613-3.277Q214.72189,193.94,168.65253,148.48437c-9.12213-9.01308-18.23874-18.03478-27.52975-26.87186-2.39276-2.27583-2.30829-3.53808.01391-5.807q28.23642-27.58873,56.24552-55.41c1.17026-1.15641,2.18381-2.47136,3.27026-3.71254.09558-1.787,1.36142-3.00815,2.20545-4.41033,5.20675-8.64993,4.21762-16.80039-1.84809-24.5848-.71719-.92041-1.40454-1.86223-2.08148-2.80713a28.25412,28.25412,0,0,0-6.60428-5.56133,46.82635,46.82635,0,0,0-5.97711-2.92154c-1.26514-.53914-2.63815-.69894-3.94012-1.1143C181.228,14.6433,179.44849,14.64408,179.54075,12.63365Z"/><path class="cls-1" d="M464.59507,183.02522c.00079,17.9945-.0838,35.9898.07562,53.98288.03015,3.399-.74426,4.68243-4.36413,4.49777-5.98267-.30512-12.00184-.28867-17.98645-.00372-3.26868.1556-4.76575-1.11734-5.76557-4.03067-1.184-3.45014-2.89984-6.71482-4.16144-10.14222-.93542-2.54159-1.81775-2.672-4.15545-1.18386-14.19886,9.03842-29.34681,15.62747-46.41193,16.78411-21.28784,1.44281-39.0271-9.47717-43.49933-28.10415a82.38766,82.38766,0,0,1,.50946-42.013c4.41028-15.42385,15.933-23.40425,31.4906-25.1709,17.7497-2.0156,35.615-.51941,53.426-.84972,7.01764-.13017,7.02942-.02238,7.01318-7.20668-.00677-2.99757.05151-6.00172-.12054-8.99133-.63007-10.94789-5.942-16.5024-16.90424-16.98927-16.32428-.725-32.60748.6855-48.89477,1.55487-6.6457.35475-13.29261.77484-19.91718,1.39682-2.70856.2543-3.47736-.5979-3.38507-3.228a149.09667,149.09667,0,0,0-.037-14.98787c-.20319-3.08855,1.2981-3.931,3.7594-4.68227,20.09552-6.13334,40.75446-7.97227,61.62567-8.19944,7.98956-.087,15.98676-.28243,23.88837,1.39088,21.06207,4.46027,32.61639,18.6046,33.594,41.70006.38727,9.148.186,18.32182.214,27.484C464.61576,165.03065,464.59421,174.028,464.59507,183.02522Z"/><path class="cls-1" d="M797.53159,213.44486c11.49487-.002,22.98981.02015,34.48462-.00933,8.66663-.02225,12.49292-3.8328,12.572-12.46213.03211-3.49808.12342-7.00226-.03174-10.494-.28588-6.43384-2.91333-9.76178-9.37689-10.02866-12.30285-.508-24.634-.34548-36.95367-.42559-5.99146-.03894-12.00714.21-17.92865-.89856-17.524-3.28058-25.83228-11.26732-28.24585-28.79386a119.19222,119.19222,0,0,1,.0235-33.39557C754.92808,97.46,766.70652,87.23,786.99039,86.89631c25.6333-.42166,51.26191.39108,76.63959,4.66229,6.97754,1.17437,7.08142,1.24521,6.925,8.50463-.10986,5.10644,2.21106,11.90425-.98267,14.82049-2.76684,2.52638-9.47216.83144-14.437.84239-18.65826.04116-37.31671.00179-55.975.03913a52.30893,52.30893,0,0,0-5.949.49171c-5.0354.58959-7.881,3.473-8.12335,8.5026a115.19152,115.19152,0,0,0-.05976,14.95936c.61518,7.45888,3.4336,9.94155,10.95911,10.00849,13.65955.12152,27.32086.04228,40.98145.03749a63.41883,63.41883,0,0,1,14.35711,1.52263c14.54883,3.36148,23.32337,12.62912,25.90064,27.07162a104.17447,104.17447,0,0,1-.12683,37.287c-3.03406,16.38882-13.60376,26.11008-30.23682,26.72952a439.89,439.89,0,0,1-82.61639-4.87241c-5.14368-.78213-7.57624-2.78546-6.7439-8.38586.7486-5.03732-2.078-11.88882,1.10736-14.80731,2.75855-2.52756,9.46845-.81195,14.43268-.84735C781.20524,213.40452,789.36857,213.44694,797.53159,213.44486Z"/><path class="cls-1" d="M1130.342,213.44657q16.99273.00147,33.98559-.002c9.53858-.0109,13.19092-3.6962,13.26355-13.35629.0188-2.49878.03467-4.99839-.00451-7.49671-.14295-9.12256-3.19141-12.3988-12.327-12.5281-12.32568-.1745-24.65564-.0409-36.98377-.04859a87.33649,87.33649,0,0,1-16.89611-1.23447c-14.66077-2.87939-23.1355-10.85673-25.8479-25.3982a111.3762,111.3762,0,0,1-.37635-37.29367c2.85694-18.67725,14.09046-28.55843,34.13477-29.1112,25.45325-.70192,50.92615.22519,76.14014,4.42974,8.18957,1.36561,8.16455,1.51388,8.16333,9.95712-.00049,3.16533-.24634,6.35506.06372,9.48973.37915,3.83273-.78736,5.03513-4.8302,4.99529-21.98865-.21669-43.98035-.10755-65.97107-.09967a38.72742,38.72742,0,0,0-4.98816.15617c-7.47107.97656-9.83435,3.525-10.0929,11.031-.13757,3.99316-.19775,8.00589.03076,11.99119.453,7.89655,3.38184,10.74179,11.28577,10.80512,13.82666.11078,27.65552-.05083,41.48169.09025a67.37812,67.37812,0,0,1,12.40234,1.15714c16.15284,3.21422,26.4419,14.52162,27.636,31.02624.81543,11.27011,1.48572,22.6828-.66858,33.86728-3.12805,16.23853-13.92639,26.026-30.4093,26.54877a450.91677,450.91677,0,0,1-82.12158-4.8728c-4.94678-.75122-7.88135-2.38959-6.93177-8.23389a48.79093,48.79093,0,0,0,.04578-11.47144c-.2666-3.43722.72205-4.561,4.33264-4.48828C1106.68235,213.59425,1118.51365,213.44563,1130.342,213.44657Z"/><path class="cls-1" d="M61.26259,190.2974c13.39267-12.7117,26.86266-25.34381,40.10756-38.20761,2.4148-2.34526,3.56183-2.10522,5.75153.10665,7.96072,8.04144,16.08081,15.92869,24.27576,23.73237,2.2145,2.10874,2.803,3.44315.22934,5.8797q-33.53307,31.74582-66.8227,63.74835a10.89513,10.89513,0,0,1-8.39091,3.26853c-11.98454-.21094-23.976-.16263-35.96269-.02677-3.03029.03434-4.35553-.514-4.35184-4.0166q.12166-115.623.0211-231.24625c2.72838,1.845,1.99544,4.73653,2.00754,7.26535.08852,18.48778.04544,36.97608.04579,55.46422q.00138,73.4529.02062,146.90581c.00077,1.618-.43386,3.3125.45326,4.89984,1.64947-.68237,2.41438-2.31131,3.73587-3.2839,1.65648-1.3049,3.35058-2.57684,5.05627-3.822,2.563-1.5232,4.44089-3.82288,6.53934-5.87238,1.74-1.66156,3.43393-3.37115,5.10556-5.10339,2.35783-2.29019,4.66795-4.628,6.96466-6.97986,1.80191-1.97318,4.11627-3.33679,6.06952-5.13171,2.50867-1.97242,4.0867-4.83536,6.54715-6.85462A3.99662,3.99662,0,0,1,61.26259,190.2974Z"/><path class="cls-1" d="M712.74631,164.7478c.0022,23.99852-.07574,47.99757.085,71.995.02447,3.65863-.78931,4.92138-4.66016,4.775-8.32086-.31476-16.66394-.19913-24.99365-.03711-2.95545.0575-4.0694-.73566-4.06378-3.88891q.12872-72.74538.00384-145.4909c-.00513-3.046.86743-4.06086,3.95648-3.99267,8.32874.18382,16.67.24637,24.99433-.02055,3.67474-.11785,4.79827.836,4.76886,4.66531C712.65287,116.75,712.74412,140.74928,712.74631,164.7478Z"/><path class="cls-2" d="M24.584,224.58692c-2.53094,2.442-4.34161,5.62842-7.54953,7.61182-1.18622-1.88986-.63675-3.73734-.63762-5.46481q-.0522-104.13865-.04126-208.27728c-.0003-1.65323-.15289-3.30643-.23515-4.94026,2.28287-2.06526,4.9541-.85709,7.48256-.86166a3.638,3.638,0,0,1,2.10608,3.65985c-.04062,5.65023.77559,11.30917-.29914,16.94988-1.35655,7.11981.77372,14.19858.23333,21.39139A120.176,120.176,0,0,0,25.315,72.50878c.67338,8.83718.27412,17.62163.15214,26.384-.21754,15.62687.28653,31.23809.27634,46.85681-.00987,15.11024-.72391,30.2118.02286,45.34282.38061,7.71215,1.239,15.63253-1.36669,23.25961C23.23449,217.76274,26.59682,221.134,24.584,224.58692Z"/><path class="cls-3" d="M696.56791,35.59484c3.65661.00035,7.314-.04689,10.96972.01173,5.132.08229,7.63874,2.09112,7.79956,6.99277.24518,7.4711.19282,14.95969.00434,22.43424-.10144,4.02013-2.25336,6.53686-6.574,6.54957-8.14422.02393-16.28912.06391-24.43274-.012-4.606-.0429-7.09308-2.485-7.13159-7.12938-.05926-7.14652-.15375-14.2974.02924-21.43972.136-5.31227,2.4107-7.3011,7.86719-7.39492C688.9213,35.54145,692.745,35.5945,696.56791,35.59484Z"/><path class="cls-4" d="M34.60117,215.61375a26.22162,26.22162,0,0,1-6.03125,5.77084c-2.62213-5.479-1.96918-11.54291-1.59622-17.07019,1.12129-16.61838-.66185-33.16968-.1498-49.73277.39008-12.61708-.43164-25.21427.258-37.84889.77625-14.221-.40707-28.49912-.23534-42.74486.17519-14.53008-.06474-29.063.48574-43.60217.222-5.86419-.86072-11.82165.2669-17.7331l6.99309.003c1.75708,1.90545,1.60362,4.30052,1.60471,6.6105q.04419,93.547-.00672,187.09408C36.1878,209.5182,36.078,212.69248,34.60117,215.61375Z"/><path class="cls-5" d="M46.7076,203.8899q-3.5316,3.41355-7.06322,6.82706a2.21541,2.21541,0,0,1-1.25546-2.47055c1.69783-13.05722-.64335-26.11926.34906-39.28313.80037-10.61629-.64343-21.56378-.14148-32.32216.35021-7.50581-.43477-14.91313-.38673-22.368a20.26,20.26,0,0,1,1.09492-7.85483,6.53541,6.53541,0,0,0,.24181-4.87631c-2.077-5.66763-1.60747-11.51718-.92761-17.2818.96083-8.14682.55894-16.27922.40367-24.42238-.16748-8.78317-1.11684-17.539-.0898-26.35768.63269-5.43261-.55781-10.95194.01236-16.4424.15323-1.47552-.15041-3.00693.65418-4.38282l6.9927-.00017c1.75881,1.90816,1.604,4.30618,1.60466,6.61877q.02472,86.91426-.04422,173.82845C48.14478,196.7317,48.444,200.46421,46.7076,203.8899Z"/><path class="cls-6" d="M46.7076,203.8899q-.05676-28.42823-.1084-56.8564-.025-67.18938-.0072-134.37875l5.00067-.00277a17.66027,17.66027,0,0,1,2.26044,14.24189,26.45414,26.45414,0,0,0-.41489,6.87019c-.03306,12.28011,1.59027,24.53812.45909,36.83145-.27424,2.98038-.83754,6.08556-.06651,8.95643,1.77606,6.613-.06222,13.188.25379,19.77685.31742,6.618-.93435,13.2674.5401,19.89189.77626,3.48778-1.15628,6.89215-.852,10.40257,1.41017,16.26746.64632,32.52384-.12573,48.78524a45.39049,45.39049,0,0,0,.58568,11.95041c.66026,3.00558-.61382,5.53866-1.686,8.14718Z"/><path class="cls-7" d="M39.5993,12.65492A104.19953,104.19953,0,0,1,39.83748,36.519c-.8043,6.82036.097,13.71261.26383,20.53987.22658,9.27321.66412,18.46361-.20612,27.75567-.51007,5.44645-1.72769,11.21941,1.352,16.56475a4.83448,4.83448,0,0,1,.14421,3.87675c-3.08859,6.56246-2.09823,13.2462-.8377,19.92.78953,4.18034-.74344,8.16267-.824,12.29624-.12044,6.17949,1.07605,12.36387.00892,18.55459a14.64321,14.64321,0,0,0,.32213,7.41355,13.681,13.681,0,0,1,.44006,6.91227c-1.70056,9.97206-.905,19.85551.20659,29.811.38355,3.43515-.66743,7.03045-1.06308,10.55291q-2.52152,2.44881-5.04315,4.897-.00348-4.43811-.00667-8.87638-.00153-97.04085-.00218-194.08174Z"/><path class="cls-8" d="M52.54667,198.50608c.88666-7.637-1.178-15.26605-.28725-22.85708,1.37439-11.71268.98184-23.485,1.02118-35.195.02251-6.70749.65736-13.66478-.14995-20.07249-1.18194-9.3812-.69792-18.71747-.199-27.81695.48648-8.872-2.3045-17.61254.27071-26.6575,1.44063-5.05995-.76622-11.07274-.79648-16.65908-.03659-6.75379-1.14877-13.74554-.28426-20.14185.7827-5.791-.21113-10.99274-.529-16.45417l6.99883.00136a4.35842,4.35842,0,0,1,1.29484,3.6622c-1.75166,9.67975,1.15653,19.15562,1.16123,28.75394.003,6.15671-2.78436,11.91712-2.07935,18.23548,1.79169,16.05682-.84071,32.17083.15445,48.22618.99738,16.09115-.27078,32.14859.07564,48.20674.22783,10.561.01465,21.12178.37169,31.67686C57.06991,193.62107,55.65633,196.90348,52.54667,198.50608Z"/><path class="cls-9" d="M27.59923,12.65261c1.103,1.48226.58681,3.11258.5932,4.76085.04265,10.96639-.11894,21.9455-.046,32.88962.07024,10.54286-1.03514,21.11147-.26486,31.56979,1.14845,15.59307-.23412,31.12291.127,46.6431.35826,15.39726.114,30.81265.59605,46.21725.30693,9.809,1.21082,19.80112-.4189,29.83783-.851,5.24131.29759,11.18226.38435,16.81391-1.33631,1.05765-2.14352,2.774-3.986,3.202-3.91634-9.28842,1.19281-18.547.06273-27.86724-1.57415-12.98264-.96805-26.117-.52352-39.07457.41445-12.08057.28731-24.19722.04688-36.196-.22151-11.05324.11384-22.158-.06951-33.20766-.15028-9.05705-.33722-18.27431.08323-27.43072.27784-6.05127,1.38343-12.38183-.33323-18.62942-.84752-3.08452-.26263-6.54.24268-9.884A58.93917,58.93917,0,0,0,23.603,12.65473Z"/><path class="cls-10" d="M59.57,191.41474c-1.89809-6.68707-1.40723-13.49051-1.083-20.30423.31984-6.722-.75352-13.39105-.55617-20.17483.20111-6.91307.64685-13.73479,1.48595-20.57683.31741-2.58821-.553-5.16763-.85686-7.69081-1.54205-12.803-2.0106-25.736.17784-38.51357a22.26734,22.26734,0,0,0,.11443-9.14976c-1.84346-8.07224-2.25688-16.10993.23665-24.28594,1.44844-4.74928,1.85014-10.51641.02554-14.71865-2.27771-5.24579-.63959-10.04777-.93448-14.96827a72.0126,72.0126,0,0,1,.41164-8.3785l6.00148.00338c1.37129,1.44706,1.52086,3.279,1.53692,5.117.106,12.12349.01279,24.24746.061,36.37117a4.97534,4.97534,0,0,1-.60722,2.38866c-2.48379.188-4.65868-.02263-4.64253,3.92836.17479,42.78129.12863,85.56349.15138,128.34544a13.0005,13.0005,0,0,0,.17235,1.48789Q60.41517,190.85713,59.57,191.41474Z"/><path class="cls-11" d="M78.59186,56.53843q-4.00048-.001-8.001-.002a4.9011,4.9011,0,0,1-1.65983-2.9908,230.63618,230.63618,0,0,1,.87784-39.63786c.052-.47909.47642-.86234.782-1.25529q4.00043.00049,8.00084.001c2.27991,3.16125,2.27146,6.93368,2.41965,10.517.34317,8.29956.26859,16.6167.02911,24.92232C80.9549,51.06356,80.7078,54.10253,78.59186,56.53843Z"/><path class="cls-12" d="M139.59052,56.54289l-8.00143-.00669c-3.07611-5.81782-2.77719-12.16369-2.18589-18.313a158.46992,158.46992,0,0,0,.64139-22.25408c-.06463-1.45658.14682-2.61416,1.53379-3.31773l8.01171.00241c1.50119,1.58223,1.57175,3.59173,1.58381,5.57833q.09942,16.36551.00018,32.73132C141.16205,52.9508,141.08692,54.95883,139.59052,56.54289Z"/><path class="cls-13" d="M147.59012,12.654l7.99842-.00067a3.50753,3.50753,0,0,1,.74585,2.309c-.38709,12.5685-.19461,25.13876-.12543,37.7087.00833,1.50926-.00793,3.02014-1.60645,3.86746l-7.01394-.00483c-.70511-.70932-1.60532-1.41777-1.6116-2.44622-.07911-12.93049-2.38535-25.88031.29159-38.78853A5.52976,5.52976,0,0,1,147.59012,12.654Z"/><path class="cls-14" d="M147.59012,12.654a167.0262,167.0262,0,0,0-.96459,25.2801c.17181,6.20408.63162,12.40017.96307,18.5997q-3.99908.0045-7.99808.00915-.00018-21.94474-.00043-43.88925Q143.59013,12.65395,147.59012,12.654Z"/><path class="cls-15" d="M154.60251,56.53852c-.00277-12.02974.0369-24.05974-.04113-36.089a25.6387,25.6387,0,0,1,1.02719-7.79634q3.00078.00054,6.00162.00079c1.50109,1.58207,1.57141,3.5914,1.58349,5.57778q.09944,16.3639.00009,32.72809c-.012,1.98659-.08358,3.99553-1.58355,5.578Q158.09638,56.53822,154.60251,56.53852Z"/><path class="cls-16" d="M131.57838,12.65139c-2.19584,2.35363.55307,4.45436.46368,6.86363-.45721,12.324-2.59662,24.66591-.453,37.02124q-3.49878.00016-6.99756.00046c-2.75229-6.107-1.85907-12.69311-1.92426-19.00941-.05941-5.76258.52387-11.56183.12036-17.36027-.18679-2.684-.10586-5.32378,1.8039-7.51385Z"/><path class="cls-17" d="M108.60111,56.53967l-6.00949-.00324A5.94908,5.94908,0,0,1,100.9249,52.011c.48184-11.54816-.25674-23.11166.45465-34.65478.10053-1.63086.05817-3.33059,1.21216-4.70434l6.99954.00586a21.88341,21.88341,0,0,1,1.29917,12.03665c-1.21466,8.41527.94229,16.75391-.34671,25.07006C110.18262,52.09381,111.13465,54.82546,108.60111,56.53967Z"/><path class="cls-18" d="M91.59073,12.65232l6.00083.00019c1.61545,1.75274,1.51395,3.95318,1.54092,6.09617.13544,10.75656-.17849,21.51582.19718,32.27138a7.05461,7.05461,0,0,1-1.7381,5.5168q-3.49407.00056-6.9881.00111c-1.15155-3.5848-.26373-7.254-.41058-10.8802-.14774-3.64859.12445-7.30541-1.42816-10.78018a6.1693,6.1693,0,0,1-.29844-4.41283c1.42658-4.20959,1.829-8.28976.2157-12.615C87.78947,15.457,89.663,13.86246,91.59073,12.65232Z"/><path class="cls-19" d="M173.5904,56.54525l-5.01437-.0005c-2.549-1.34651-2.46564-3.82178-2.37519-6.106.28168-7.11153.60794-14.14935-.83279-21.26093-.79724-3.93529-.56919-8.23754,2.338-11.83061,1.0723-1.32536-1.81018-3.05467-.11475-4.7,2.75956.13169,5.797-2.62579,8.24039.79266-.813,3.13845-.04422,6.2509.14456,9.3746.60047,9.93562-1.94552,19.8045-.6279,29.76524A4.80952,4.80952,0,0,1,173.5904,56.54525Z"/><path class="cls-20" d="M91.59073,12.65232c-1.286,2.55786-3.022,4.71639-.51535,7.96413,1.41758,1.83665,1.11121,5.09843-.51495,7.52612a6.97893,6.97893,0,0,0-.52487,6.66265c2.83359,7.20919,1.79059,14.45425.5679,21.73275l-6.01166-.00319c-.205-.26065-.56875-.55578-.53433-.80993.99985-7.38114-2.63422-14.485-1.19208-21.93085.85538-4.41648-.51025-8.86655-.5061-13.32314.00269-2.85877-.043-5.64357,2.23242-7.8141Q88.09122,12.65456,91.59073,12.65232Z"/><path class="cls-21" d="M167.59131,12.64726a9.47454,9.47454,0,0,1,.05521,7.36128A17.78838,17.78838,0,0,0,167.4036,33.118c2.30191,5.80312-.33807,11.44468.162,17.14695.18665,2.12832-.22717,4.32824,1.01047,6.28q-3.493-.00354-6.98587-.0069,0-21.94238-.00006-43.88423Q164.59073,12.65071,167.59131,12.64726Z"/><path class="cls-22" d="M108.60111,56.53965c.18536-8.04432.8338-16.02373.44147-24.15369a100.53524,100.53524,0,0,1,.54867-19.72829q3.00046.00042,6.001.00078c.311.39266.72366.81029.70724,1.29285-.30993,9.1369.90848,18.30819.25647,27.35946-.36425,5.05693,1.41922,10.32084-.97375,15.22676Q112.09161,56.53857,108.60111,56.53965Z"/><path class="cls-23" d="M192.69834,18.53094c2.78293.93721,4.77328,2.90587,6.60773,5.07742,1.818,9.89021-1.54331,19.76961-.06357,29.66146a2.85159,2.85159,0,0,1-1.64185,3.2883l-6.01056-.00864c-1.34475-1.43907-1.45681-3.29878-1.70868-5.09812a92.12379,92.12379,0,0,1,.73746-30.20229C190.83958,20.09053,190.63978,18.38181,192.69834,18.53094Z"/><path class="cls-24" d="M70.591,12.65244c.32981,7.81538-.5915,15.58122-.86074,23.36783-.23583,6.82064.53468,13.67606.86067,20.51612l-5.00722-.00281c-1.14186-1.77831-.9955-3.77316-.99413-5.75383q.01314-19.0615.00344-38.123Z"/><path class="cls-25" d="M173.5904,56.54525c1.0076-3.26372-.11578-6.53065.016-9.79184.29425-7.28128.70395-14.55816.95947-21.84059.08646-2.46268.37384-4.97781-.9353-7.32-1.34381-2.40411.69519-3.17184,2.20053-4.15211q1.85592-.40473,3.71015-.80742c.63736,1.516,2.55389.62042,3.37509,1.79037a22.715,22.715,0,0,0-1.79352,10.15637c.0831,8.45212.05707,16.90583.00821,25.35864-.01331,2.30122.19018,4.6878-1.54,6.60408Z"/><path class="cls-26" d="M192.69834,18.53094a86.91475,86.91475,0,0,0-1.43121,31.60062c.27786,2.11715.224,4.27784.323,6.41819q-2.99985-.001-5.99966-.00137c-2.43274-2.29848-2.75912-5.35875-2.39969-8.31813a105.35443,105.35443,0,0,0,.07684-24.81683c-.32666-2.85856-.64117-6.45023,3.32718-7.82317A11.44106,11.44106,0,0,1,192.69834,18.53094Z"/><path class="cls-27" d="M197.60065,56.55812c1.52326-1.88958.1232-3.80668-.05258-5.66276-.81143-8.56963,2.16535-17.0421.56882-25.61768-.166-.89175.06317-1.63367,1.1893-1.66933,10.452,10.82972,10.98624,23.94659,1.34659,33.07373Q199.12641,56.621,197.60065,56.55812Z"/><path class="cls-28" d="M124.59153,12.65319V56.53677q-2.99424.00153-5.98844.00316a7.83022,7.83022,0,0,1-1.28436-4.75035c.769-8.41689-.22366-16.86385.5109-25.269a32.18424,32.18424,0,0,0-.07181-7.4466c-.34769-2.41237-.05933-4.64743,1.83411-6.42179Z"/><path class="cls-29" d="M186.59479,15.59025c-2.42624,2.97-2.45318,6.57735-1.86767,9.941a55.9693,55.9693,0,0,1-.04105,20.20273c-.67813,3.60881.20938,7.23967.90442,10.81468q-2.99977-.00293-5.99945-.00558.00161-18.29769-.00778-36.59482c-.00492-2.55478-.18357-5.12894,3.33179-5.52367C184.22376,14.55628,185.6204,14.40755,186.59479,15.59025Z"/><path class="cls-30" d="M84.59171,12.65676c-1.39261,5.2966-.8168,10.5797-.08661,15.90492a18.12149,18.12149,0,0,1-.26028,6.38312c-.72214,3.147-.82788,5.87522.73947,8.99308,2.02447,4.02719-.254,8.37526-.39249,12.59692q-3,.00179-5.99994.00363c1.72843-14.62835,1.24518-29.2567-.00006-43.885Z"/><path class="cls-31" d="M97.59156,56.53686V12.65249l5.00015-.00068c-.02078,12.51273.07779,25.02786-.17709,37.53581-.04364,2.14064.50754,4.2299.177,6.34883Z"/><path class="cls-32" d="M119.59193,12.65219c.22012,8.26693-1.03922,16.46856-.26072,24.81974.58268,6.25046-.99582,12.67647-.72815,19.068q-1.51038-.00125-3.02087-.00241c-.20966-5.33414-.95831-10.55158-.21011-16.03163.94491-6.921-1.23633-13.97632-.48053-21.10755.23373-2.20521.84829-4.4632.70065-6.73995Q117.59208,12.65535,119.59193,12.65219Z"/><path class="cls-33" d="M602.76584,161.57919c-.00317,12.317-.10186,24.63533.069,36.94993.04071,2.93079-.92463,4.44187-3.53913,5.67173a93.37634,93.37634,0,0,1-38.52283,8.9804c-8.572.15363-14.57751-3.77777-18.28192-11.41058-3.39782-7.00131-4.67627-14.51669-5.25641-22.17456-1.21-15.97356-1.34539-31.9258,2.3761-47.63254,3.1966-13.49112,9.07538-17.97723,22.86219-17.93976a135.33708,135.33708,0,0,1,35.95691,4.87862c3.20544.88812,4.52453,2.12106,4.44427,5.72813C602.60013,136.94146,602.76908,149.2622,602.76584,161.57919Z"/><path class="cls-33" d="M430.76877,185.74977c.00171,2.99453-.40325,6.05734.08753,8.96914.96771,5.74109-1.7796,8.12787-6.79944,9.99915-12.63245,4.70907-25.19287,9.55417-38.9104,9.6932-10.16895.10309-14.62891-4.4273-14.71851-14.5274-.03979-4.49127-.16766-8.99158.0481-13.47314.37982-7.88862,5.26483-13.12131,13.0885-13.77088,14.73859-1.22372,29.5047-2.11989,44.23981-3.38078,2.80731-.24024,3.01745.88385,2.984,3.01558C430.718,176.76536,430.767,181.25794,430.76877,185.74977Z"/></svg>