<svg id="Layer_1" data-name="Layer 1" xmlns="http://www.w3.org/2000/svg" xmlns:xlink="http://www.w3.org/1999/xlink" viewBox="0 0 400 245"><defs><style>.cls-1{fill:none;}.cls-2{clip-path:url(#clip-path);}.cls-3{fill:#a32422;}.cls-4{fill:#dc382c;}.cls-5{fill:#fff;}.cls-6{fill:#741113;}.cls-7{fill:#ac2724;}.cls-8{fill:#494c4d;}</style><clipPath id="clip-path"><rect class="cls-1" x="4" y="80.87558" width="104.49712" height="89.55189"/></clipPath></defs><title>Redis-labs-logo</title><g class="cls-2"><path class="cls-3" d="M104.39153,149.92123c-5.57188,2.91084-34.46309,14.79317-40.65406,18.05158s-9.558,3.17151-14.42389.84718S13.77522,154.02683,8.22507,151.37665C5.45542,150.06243,4,148.94371,4,147.89016V137.32205s40.0241-8.68908,46.48661-11.02428,8.68908-2.40035,14.19579-.391,38.37318,7.95051,43.80385,9.93814v10.40518c0,1.08614-1.249,2.17227-4.09472,3.66028Z"/><path class="cls-4" d="M104.39153,139.364c-5.57188,2.9-34.46309,14.7823-40.65406,17.98641s-9.558,3.17151-14.42389.858-35.53836-14.74973-41.08851-17.389-5.65877-4.47488-.21723-6.6037,36.01626-14.11977,42.47877-16.4441,8.68908-2.40036,14.19579-.38014,34.21327,13.44636,39.644,15.434,5.6479,3.6277.06517,6.51682Z"/><path class="cls-3" d="M104.39153,132.706c-5.57188,2.9-34.46309,14.78231-40.65406,17.9864s-9.558,3.17152-14.42389.858-35.53836-14.73886-41.08851-17.389C5.45542,132.83632,4,131.71759,4,130.66405V120.1068s40.0241-8.68908,46.48661-11.03513,8.68908-2.40036,14.19579-.38015,38.37318,7.93965,43.80385,9.92728v10.416C108.48625,130.121,107.2372,131.20711,104.39153,132.706Z"/><path class="cls-4" d="M104.39153,122.13788c-5.57188,2.91084-34.46309,14.78231-40.65406,17.98641s-9.558,3.18237-14.42389.858-35.53836-14.73886-41.08851-17.389-5.65877-4.464-.21723-6.59284,36.01626-14.11977,42.47877-16.4441,8.68908-2.40036,14.19579-.391,34.21328,13.50067,39.644,15.434,5.6479,3.62769.06517,6.51681Z"/><path class="cls-3" d="M104.39153,114.83905c-5.57188,2.91084-34.46309,14.79317-40.65406,17.99727s-9.558,3.17151-14.42389.84718-35.53836-14.73886-41.08851-17.389C5.45542,114.98024,4,113.86152,4,112.808v-10.5681s40.0241-8.68909,46.48661-11.02428,8.68908-2.40036,14.19579-.391,38.37318,7.95052,43.80385,9.93815v10.416C108.48625,112.2649,107.2372,113.351,104.39153,114.83905Z"/><path class="cls-4" d="M104.39153,104.28181c-5.57188,2.86739-34.46309,14.81489-40.65406,17.9864s-9.558,3.17152-14.42389.85805-35.53836-14.74972-41.08851-17.389-5.65877-4.47488-.21723-6.60371S44.0241,85.01376,50.48661,82.68943s8.68908-2.40036,14.19579-.38015,34.21327,13.44636,39.644,15.434,5.6479,3.62769.06517,6.51681Z"/></g><polygon class="cls-5" points="57.883 89.271 64.78 87.012 62.912 91.476 69.928 94.105 60.881 95.05 58.85 99.926 55.581 94.485 45.121 93.54 52.93 90.727 50.584 86.404 57.883 89.271 57.883 89.271 57.883 89.271"/><polygon class="cls-5" points="58.318 117.772 41.417 110.755 65.627 107.041 58.318 117.772 58.318 117.772 58.318 117.772"/><path class="cls-5" d="M34.8897,96.82005c7.14677,0,12.93588,2.2483,12.93588,5.01795s-5.81083,5.018-12.93588,5.018S21.943,104.60765,21.943,101.838,27.74293,96.82006,34.8897,96.82005Z"/><polygon class="cls-6" points="80.638 95.441 94.964 101.099 80.649 106.758 80.638 95.441 80.638 95.441 80.638 95.441"/><polygon class="cls-7" points="80.638 95.441 80.649 106.758 79.095 107.366 64.78 101.708 80.638 95.441 80.638 95.441 80.638 95.441"/><path class="cls-8" d="M274.16541,76.24864a1.727,1.727,0,0,1,3.443,0v45.85665a1.727,1.727,0,0,1-3.443,0Z"/><path class="cls-8" d="M318.32767,91.02009v31.0852a1.69437,1.69437,0,0,1-3.37786,0v-5.18086a16.05315,16.05315,0,0,1-12.93588,6.82093c-9.06924,0-16.292-7.79846-16.292-17.22612s7.24454-17.22611,16.292-17.22611a16.02052,16.02052,0,0,1,12.93588,6.7449V91.02009a1.69437,1.69437,0,0,1,3.37786,0Zm-3.37786,15.5426c0-7.73328-5.83255-13.92426-12.93588-13.92426s-12.93588,6.191-12.93588,13.92426,5.89771,13.85909,12.93588,13.85909S314.94981,114.296,314.94981,106.56269Z"/><path class="cls-8" d="M328.3853,107.33385V76.24864a1.727,1.727,0,0,1,3.44307,0V96.08148a16.45491,16.45491,0,0,1,13.21825-6.7449c9.28645,0,16.67219,7.73329,16.67219,17.30214a16.90026,16.90026,0,0,1-16.64706,17.14973l-.02513.00035a16.36805,16.36805,0,0,1-13.21829-6.67973v4.99622a1.727,1.727,0,0,1-3.44306,0Zm3.44307-.69513a13.22913,13.22913,0,1,0,26.43654,1.072q.02172-.5358,0-1.072c0-7.66812-5.89771-13.85909-13.21829-13.85909a13.54412,13.54412,0,0,0-13.21829,13.28344Z"/><path class="cls-8" d="M369.23485,116.62031a1.6618,1.6618,0,0,1,2.33671-.25078q.02685.02166.0528.04442c2.38951,1.74867,6.191,4.00783,10.55724,4.00783a10.39428,10.39428,0,0,0,6.51682-2.118,5.21351,5.21351,0,0,0,2.59588-4.21421c-.06517-1.61834-.706-2.74792-2.45468-4.22507-1.47713-1.08613-3.94268-1.9659-7.32054-2.53069l-.14121-.06517c-3.09549-.56479-5.83254-1.27078-7.79844-2.67189a7.2119,7.2119,0,0,1-3.73631-6.191A8.54793,8.54793,0,0,1,373.57943,91.65a14.83666,14.83666,0,0,1,8.43926-2.31347c4.42058,0,7.603,2.04194,10.264,3.72545a1.78125,1.78125,0,0,1,.48877,2.38949,1.68352,1.68352,0,0,1-2.32435.48877c-2.53068-1.68351-5.06139-3.443-8.42842-3.443a10.36169,10.36169,0,0,0-6.51681,1.9659,5.20261,5.20261,0,0,0-2.21573,3.997,4.17078,4.17078,0,0,0,1.9659,3.443,17.28052,17.28052,0,0,0,7.0273,2.3895h.1412a24.07936,24.07936,0,0,1,8.3741,2.81309,8.60215,8.60215,0,0,1,3.86664,7.03816,8.776,8.776,0,0,1-3.94268,6.96213,14.022,14.022,0,0,1-8.56962,2.73706,20.89723,20.89723,0,0,1-12.72951-4.92019,1.57489,1.57489,0,0,1-.262-2.21178Q369.19442,116.66428,369.23485,116.62031Z"/><path class="cls-8" d="M141.77632,93.83318a12.20806,12.20806,0,0,1,4.4423-3.09549,14.25013,14.25013,0,0,1,5.21345-1.1513,4.75728,4.75728,0,0,1,3.5408,1.1513,3.51906,3.51906,0,0,1,1.08613,2.70448,3.81237,3.81237,0,0,1-1.08613,2.70448,3.50824,3.50824,0,0,1-2.70449,1.16217c-4.45316.391-10.63327,4.8333-10.63327,10.86135v13.68531a3.97526,3.97526,0,0,1-3.86664,3.86665,3.50824,3.50824,0,0,1-2.75877-1.19475,3.82321,3.82321,0,0,1-1.16217-2.70448V93.25753a3.82319,3.82319,0,0,1,1.16217-2.70448,5.1591,5.1591,0,0,1,2.9-.96666,3.95288,3.95288,0,0,1,3.86664,3.85578Z"/><path class="cls-8" d="M188.64307,106.38891a3.72539,3.72539,0,0,1-.96666,2.51983,4.34451,4.34451,0,0,1-2.70448,1.16217H162.16308a7.3749,7.3749,0,0,0,2.47639,4.68124,10.31827,10.31827,0,0,0,6.76662,3.25841,10.06843,10.06843,0,0,0,7.53778-1.73781,3.94264,3.94264,0,0,1,2.9-1.16217,3.33447,3.33447,0,0,1,2.509.96666,3.14981,3.14981,0,0,1,.18725,4.45055q-.08964.09752-.18725.18725a17.45419,17.45419,0,0,1-12.55573,4.6378,16.41149,16.41149,0,0,1-12.5666-5.43068,19.03991,19.03991,0,0,1-5.21344-12.773,17.37814,17.37814,0,0,1,5.21346-12.76209,16.09652,16.09652,0,0,1,12.17559-5.21345A15.69466,15.69466,0,0,1,183.3536,94.007a17.704,17.704,0,0,1,5.43068,11.9475v.38014ZM171.43869,96.14665a10.112,10.112,0,0,0-6.51682,2.51983,9.38427,9.38427,0,0,0-3.08462,5.01795h20.289a8.83026,8.83026,0,0,0-3.4865-4.82244,12.33843,12.33843,0,0,0-7.14678-2.71534"/><path class="cls-8" d="M225.00689,121.46447a3.82318,3.82318,0,0,1-1.16217,2.70448,3.77972,3.77972,0,0,1-2.70448,1.16217,4.17076,4.17076,0,0,1-3.86664-3.09549,16.54183,16.54183,0,0,1-9.85126,3.09549,16.80252,16.80252,0,0,1-12.37109-5.21345,17.21526,17.21526,0,0,1-5.02881-12.7621,18.334,18.334,0,0,1,5.02881-12.75123,16.998,16.998,0,0,1,12.37109-5.43068,15.96614,15.96614,0,0,1,9.65574,3.09549V78.75762a3.50821,3.50821,0,0,1,1.16218-2.70448,3.82322,3.82322,0,0,1,2.7045-1.16217,3.50822,3.50822,0,0,1,2.70448,1.16217,3.82319,3.82319,0,0,1,1.16217,2.70448v42.70685Zm-17.37817-3.86664a8.60221,8.60221,0,0,0,6.75577-3.08463,10.27483,10.27483,0,0,0,0-14.3044,9.243,9.243,0,0,0-6.75577-3.09549,8.31979,8.31979,0,0,0-6.76662,3.09549,10.27483,10.27483,0,0,0,0,14.3044,8.91717,8.91717,0,0,0,6.76662,3.08463"/><path class="cls-8" d="M236.43305,78.75762v1.55317a3.93189,3.93189,0,0,1-1.18389,2.94343,3.34528,3.34528,0,0,1-2.70448.96666,3.49737,3.49737,0,0,1-2.70448-1.1513,3.91011,3.91011,0,0,1-1.16218-2.9v-1.412a3.77977,3.77977,0,0,1,1.16218-2.70448,3.82319,3.82319,0,0,1,2.70448-1.16217,4.01245,4.01245,0,0,1,3.88837,3.86665m-6.51682,11.79543a3.77974,3.77974,0,0,1,2.70449-1.16216,3.4865,3.4865,0,0,1,2.70448,1.16216,3.93179,3.93179,0,0,1,1.10785,2.88912V121.6817a3.25842,3.25842,0,0,1-1.16218,2.70448,3.82314,3.82314,0,0,1-2.70448,1.16216,3.50818,3.50818,0,0,1-2.70448-1.16216,3.77977,3.77977,0,0,1-1.16218-2.70448V93.44217a3.88836,3.88836,0,0,1,1.16218-2.88912"/><path class="cls-8" d="M263.84712,93.25753a3.79058,3.79058,0,0,1,1.54231,2.31347,5.1049,5.1049,0,0,1-.38015,2.9,3.84492,3.84492,0,0,1-2.32433,1.54231,3.98608,3.98608,0,0,1-2.9-.57565c-2.70449-1.73782-4.82245-2.70448-6.57113-2.70448A6.23445,6.23445,0,0,0,248.96705,98.08c-.77117.58652-1.16218.96666-1.16218,1.35767a1.43374,1.43374,0,0,0,.1955.96666,2.585,2.585,0,0,0,.77116.57565,11.513,11.513,0,0,0,5.22431,1.73782h0a26.741,26.741,0,0,1,6.95127,2.17227,9.64486,9.64486,0,0,1,4.6378,4.06215,9.60791,9.60791,0,0,1-2.9,13.32689,15.55354,15.55354,0,0,1-9.27559,2.9c-4.44229,0-8.68909-1.73782-12.75124-5.018a4.10563,4.10563,0,0,1-1.35767-2.51983,3.71458,3.71458,0,0,1,5.99547-3.25841,11.20893,11.20893,0,0,0,7.91792,3.09548,8.27624,8.27624,0,0,0,4.8333-1.35767c.77117-.77115,1.35767-1.34681,1.35767-1.93332s0-.77115-.19549-.96666c0-.1955-.391-.57565-.96666-.77115a14.45653,14.45653,0,0,0-5.79995-2.04194h0a20.07174,20.07174,0,0,1-6.57112-2.17227,11.81721,11.81721,0,0,1-4.63781-4.05129,9.00427,9.00427,0,0,1-1.1513-4.44229,9.50366,9.50366,0,0,1,4.2468-7.92879,15.586,15.586,0,0,1,8.8846-2.70448c3.2584.19551,6.76662,1.54231,10.63326,4.06215"/><path class="cls-8" d="M149.15118,160.51105H146.577v-8.60219H136.38909v8.60219H133.815V141.60143h2.57414v8.43927h10.188v-8.43927h2.57414Z"/><path class="cls-8" d="M176.61954,151.06167a10.97027,10.97027,0,0,1-.67339,3.89923,9.17827,9.17827,0,0,1-1.90074,3.0629,8.55891,8.55891,0,0,1-2.95429,1.97677,10.58981,10.58981,0,0,1-7.60295,0,8.41773,8.41773,0,0,1-2.94344-1.97677,8.84114,8.84114,0,0,1-1.90072-3.08462,11.62161,11.62161,0,0,1,0-7.79846,8.84111,8.84111,0,0,1,1.90074-3.0629,8.47187,8.47187,0,0,1,2.94343-1.99849,10.58981,10.58981,0,0,1,7.60295,0,8.61288,8.61288,0,0,1,2.95428,1.99849,9.17827,9.17827,0,0,1,1.90074,3.0629A11.01347,11.01347,0,0,1,176.61954,151.06167Zm-2.62844,0a9.65589,9.65589,0,0,0-.4779-3.12807,6.40812,6.40812,0,0,0-1.34682-2.33519,5.82161,5.82161,0,0,0-2.10709-1.52059,7.74415,7.74415,0,0,0-5.52843,0,5.96287,5.96287,0,0,0-2.17227,1.47714,6.43011,6.43011,0,0,0-1.35767,2.3352,10.48128,10.48128,0,0,0,0,6.25614,6.61493,6.61493,0,0,0,1.35767,2.3352,6.07173,6.07173,0,0,0,2.17227,1.46628,7.89617,7.89617,0,0,0,5.52843,0,5.93036,5.93036,0,0,0,2.10711-1.46628,6.59276,6.59276,0,0,0,1.34681-2.3352A9.65608,9.65608,0,0,0,173.9911,151.06167Z"/><path class="cls-8" d="M195.01869,154.3418c.08689.23895.18464.467.27153.706.08689-.24982.17379-.4779.27153-.706a6.48817,6.48817,0,0,1,.3367-.67341l6.39734-11.63251a.73865.73865,0,0,1,.35843-.36929,1.60788,1.60788,0,0,1,.52134-.06517h1.88988v18.90963h-2.24831V145.38118l-6.51681,11.81715a1.0101,1.0101,0,0,1-.92322.59738h-.21721a.99923.99923,0,0,1-.92322-.59738l-6.67973-11.86059a2.77605,2.77605,0,0,0,.05431.67341,2.27712,2.27712,0,0,1,0,.60823v13.89167h-2.22658V141.60143h1.879a1.72678,1.72678,0,0,1,.53221.06517.83642.83642,0,0,1,.35843.36929l6.51681,11.64337A6.25673,6.25673,0,0,1,195.01869,154.3418Z"/><path class="cls-8" d="M226.65783,141.60143v2.08538h-9.0801v6.27786h7.35314V151.974h-7.35314v6.45165h9.0801v2.08538H214.94928V141.60143Z"/><path class="cls-8" d="M263.49955,151.06167a10.97034,10.97034,0,0,1-.6734,3.87751,9.00409,9.00409,0,0,1-1.90074,3.0629,8.46109,8.46109,0,0,1-2.95429,1.97677,10.58981,10.58981,0,0,1-7.60295,0,8.51541,8.51541,0,0,1-2.94343-1.97677,9.00393,9.00393,0,0,1-1.90074-3.0629,11.62161,11.62161,0,0,1,0-7.79846,9.00393,9.00393,0,0,1,1.90074-3.0629,8.5694,8.5694,0,0,1,2.94343-1.99849,10.58981,10.58981,0,0,1,7.60295,0,8.5151,8.5151,0,0,1,2.95429,1.99849,9.00409,9.00409,0,0,1,1.90074,3.0629A11.01348,11.01348,0,0,1,263.49955,151.06167Zm-2.62845,0a9.65562,9.65562,0,0,0-.4779-3.12807,6.408,6.408,0,0,0-1.34682-2.33519,5.82161,5.82161,0,0,0-2.10709-1.52059,7.74412,7.74412,0,0,0-5.52842,0,5.963,5.963,0,0,0-2.118,1.47714,6.58207,6.58207,0,0,0-1.35767,2.3352,10.70921,10.70921,0,0,0,0,6.25614,6.78825,6.78825,0,0,0,1.35767,2.3352,6.07161,6.07161,0,0,0,2.118,1.46628,7.89615,7.89615,0,0,0,5.52842,0,5.93036,5.93036,0,0,0,2.10711-1.46628,6.59278,6.59278,0,0,0,1.34682-2.3352A9.65635,9.65635,0,0,0,260.8711,151.06167Z"/><path class="cls-8" d="M283.92977,141.60143v2.08538h-9.08009v6.61456h7.755v2.08538h-7.755v8.1243h-2.57415V141.60143Z"/><path class="cls-8" d="M305.6742,152.62571v7.88535h-2.55243V141.60143h5.34381a11.328,11.328,0,0,1,3.10633.36929,5.98465,5.98465,0,0,1,2.17227,1.08613,4.34446,4.34446,0,0,1,1.25992,1.66179,5.89773,5.89773,0,0,1,.08688,4.04043,4.89825,4.89825,0,0,1-.91235,1.564,5.43018,5.43018,0,0,1-1.46629,1.18388,7.397,7.397,0,0,1-1.9659.73858,2.69356,2.69356,0,0,1,.84718.80373l5.51755,7.5052h-2.27a1.08616,1.08616,0,0,1-1.03185-.54307L308.9,153.25566a1.477,1.477,0,0,0-.48877-.45617,1.83554,1.83554,0,0,0-.79289-.13034Zm0-1.86815h2.67188a6.39729,6.39729,0,0,0,1.9442-.27154,3.95343,3.95343,0,0,0,1.42283-.76029,3.10647,3.10647,0,0,0,.8689-1.18388,3.77974,3.77974,0,0,0,.29324-1.50973,3.04127,3.04127,0,0,0-1.08613-2.55242,5.43076,5.43076,0,0,0-3.32358-.85805h-2.79137Z"/><path class="cls-8" d="M336.792,141.60143v2.08538h-9.12353v6.27786h7.34229V151.974h-7.34229v6.45165h9.08008v2.08538H325.13777V141.60143Z"/><path class="cls-8" d="M362.14239,151.06167a10.69793,10.69793,0,0,1-.6734,3.86664,8.35445,8.35445,0,0,1-4.84416,4.90933,10.42674,10.42674,0,0,1-3.80147.67341H345.7526V141.60143h7.07076a10.20976,10.20976,0,0,1,3.80147.68427,8.49336,8.49336,0,0,1,2.94342,1.92246A8.84114,8.84114,0,0,1,361.469,147.195,10.74158,10.74158,0,0,1,362.14239,151.06167Zm-2.62847,0a9.47068,9.47068,0,0,0-.4779-3.10635,6.36474,6.36474,0,0,0-1.3468-2.32433,5.64814,5.64814,0,0,0-2.1071-1.45541,7.25538,7.25538,0,0,0-2.7588-.49963H348.305v14.76059h4.49662a7.25533,7.25533,0,0,0,2.75879-.49963,5.74575,5.74575,0,0,0,2.10711-1.44456,6.4078,6.4078,0,0,0,1.34679-2.31346,9.53621,9.53621,0,0,0,.49962-3.11722Z"/><path class="cls-8" d="M373.93784,160.51105h-2.56327V141.60143h2.56327Z"/><path class="cls-8" d="M393.92273,144.55572a1.08644,1.08644,0,0,1-.24982.30412.57576.57576,0,0,1-.34758.09775.95579.95579,0,0,1-.52135-.22809,6.44962,6.44962,0,0,0-.74944-.48876,5.77892,5.77892,0,0,0-1.08614-.49962,4.616,4.616,0,0,0-1.54232-.22809,4.3448,4.3448,0,0,0-1.52059.239,3.2587,3.2587,0,0,0-1.08613.6191,2.672,2.672,0,0,0-.66253.93408,2.89982,2.89982,0,0,0-.22808,1.1513,2.17226,2.17226,0,0,0,.391,1.31422,3.31251,3.31251,0,0,0,1.03184.89063,7.8315,7.8315,0,0,0,1.45542.64082l1.66178.56479q.84717.29324,1.66179.65168a5.62608,5.62608,0,0,1,1.44455.91235,4.13787,4.13787,0,0,1,1.03184,1.35767,4.56188,4.56188,0,0,1,.391,1.98763,6.35377,6.35377,0,0,1-.42361,2.32433,5.43064,5.43064,0,0,1-1.22734,1.88987,5.62625,5.62625,0,0,1-1.99848,1.27078,7.38568,7.38568,0,0,1-2.68276.467,8.17875,8.17875,0,0,1-3.34528-.67341,7.85264,7.85264,0,0,1-2.585-1.803l.73856-1.20561a1.08672,1.08672,0,0,1,.26067-.24982.60825.60825,0,0,1,.3367-.09774,1.08608,1.08608,0,0,1,.62994.29325,8.69064,8.69064,0,0,0,.89064.65168,7.51631,7.51631,0,0,0,1.2925.66254,5.20275,5.20275,0,0,0,1.85729.29325,5.02844,5.02844,0,0,0,1.6292-.24981,3.49725,3.49725,0,0,0,1.20559-.706,3.2583,3.2583,0,0,0,.76031-1.08614,3.67107,3.67107,0,0,0,.26067-1.412,2.37867,2.37867,0,0,0-.391-1.412,3.33439,3.33439,0,0,0-1.021-.91235,7.0603,7.0603,0,0,0-1.44454-.63l-1.65089-.51044a16.90524,16.90524,0,0,1-1.66178-.63,5.43094,5.43094,0,0,1-1.44455-.92321,4.14887,4.14887,0,0,1-1.021-1.42284,5.02891,5.02891,0,0,1-.391-2.10711,4.9636,4.9636,0,0,1,.391-1.93332,4.77888,4.77888,0,0,1,1.08614-1.66178,5.52835,5.52835,0,0,1,1.83557-1.16217,6.58207,6.58207,0,0,1,2.4981-.43445,7.95035,7.95035,0,0,1,2.88912.49962,6.6039,6.6039,0,0,1,2.2809,1.45542Z"/></svg>