<svg id="Layer_1" data-name="Layer 1" xmlns="http://www.w3.org/2000/svg" viewBox="0 0 1289 264"><defs><style>.cls-1{fill:#b62411;}</style></defs><title>redislabs</title><path class="cls-1" d="M712,22.34061a19.69622,19.69622,0,0,1,5.9095-14.45595A19.64661,19.64661,0,0,1,732.30107,2a20.26,20.26,0,0,1,14.60957,5.88466A19.45416,19.45416,0,0,1,753,22.34061V240.65989a19.31648,19.31648,0,0,1-6.08936,14.41925A20.14676,20.14676,0,0,1,732.30107,261,20.197,20.197,0,0,1,712,240.65989Z"/><path class="cls-1" d="M792.32935,233.98032Q767.01766,207.01254,767,168.68089q0-38.29385,25.32935-65.48Q817.63956,76.01709,855.0014,76q26.23646,0,49.16951,16.27028a23.30956,23.30956,0,0,1,7.00479-11.65815A18.53552,18.53552,0,0,1,923.94843,76a18.09443,18.09443,0,0,1,13.31979,5.919A19.60872,19.60872,0,0,1,943,95.97424v145.4501a18.93332,18.93332,0,0,1-5.73178,13.83647A18.31691,18.31691,0,0,1,923.94843,261a18.961,18.961,0,0,1-12.77273-4.46823,21.94044,21.94044,0,0,1-7.00479-11.44017Q881.63748,261.00045,855.0014,261,817.6592,261,792.32935,233.98032Zm14.22576-65.29943q0,22.44531,13.49882,37.55218,13.49824,15.19953,34.76364,15.17992,21.23293,0,35.09133-15.17992,13.88283-15.14508,13.89991-37.37,0-22.22646-14.08-37.73438-14.04571-15.52547-34.91128-15.54361c-13.93431,0-25.47515,5.15751-34.58359,15.363Q806.57267,146.30979,806.55511,168.68089Z"/><path class="cls-1" d="M960,241.02421V21.97729a19.26522,19.26522,0,0,1,5.92674-14.09263,20.19882,20.19882,0,0,1,28.50243,0,19.26176,19.26176,0,0,1,5.92676,14.09263v69.553a84.73916,84.73916,0,0,1,49.62541-15.54549q37.46607,0,63.73162,27.38521,26.285,27.40261,26.287,65.3033,0,37.974-26.287,65.12269-26.28518,27.23882-63.73162,27.204-27.04812,0-50.35176-15.90971a20.20059,20.20059,0,0,1-6.87275,11.261A19.40148,19.40148,0,0,1,979.63394,261a18.72151,18.72151,0,0,1-13.7072-5.92086A19.1255,19.1255,0,0,1,960,241.02421Zm125.1752-109.17854q-14.45127-15.52826-35.19386-15.50919-20.724,0-35.15652,15.50919a52.3719,52.3719,0,0,0-14.46889,36.82763,51.19422,51.19422,0,0,0,14.65018,36.64652q14.616,15.36519,34.97523,15.36429,20.39608,0,35.01047-15.36429A51.18356,51.18356,0,0,0,1099.644,168.6733,52.37224,52.37224,0,0,0,1085.1752,131.84567Z"/><path class="cls-1" d="M1270.35834,96.37373a18.81812,18.81812,0,0,1,8.33835,12.38373,20.89924,20.89924,0,0,1-2.393,14.99973,18.9827,18.9827,0,0,1-12.39911,8.28029,18.74477,18.74477,0,0,1-14.973-3.12368q-20.66623-13.67349-34.15239-13.692c-8.9904,0-16.31413,2.25222-21.96929,6.64645-3.95215,2.7232-5.91011,5.15661-5.91011,7.22663a9.44991,9.44991,0,0,0,.9071,4.64932,12.57369,12.57369,0,0,0,3.87889,3.30488c5.438,3.70446,14.42854,6.64605,27.01144,8.89826l.36066.36229h.36366a155.97094,155.97094,0,0,1,35.81906,11.11418q16.25993,7.35286,24.00062,20.33643C1284.427,186.36662,1287,194.9025,1287,203.29148q0,25.93087-23.2753,42.92618A82.64461,82.64461,0,0,1,1215.72255,261q-34.369-.32758-65.767-25.495a18.83851,18.83851,0,0,1-6.81542-13.1832,17.691,17.691,0,0,1,4.24255-14.236,17.4291,17.4291,0,0,1,13.30632-7.37262,18.48335,18.48335,0,0,1,14.3913,4.43q19.961,16.61547,40.64229,16.26978a46.0357,46.0357,0,0,0,25.08861-7.00733c4.46047-3.74156,6.67068-6.86534,6.67068-9.44264,0-2.5792-.36166-4.39574-1.12412-5.37489-.50641-1.23486-2.10271-2.687-4.7861-4.431q-8.86532-6.32031-29.54707-10.35131h-.36177a137.39969,137.39969,0,0,1-34.15138-10.74989,58.1006,58.1006,0,0,1-23.49422-20.37373,43.75764,43.75764,0,0,1-6.27088-23.28q0-24.02339,21.78741-40.71156Q1189.49169,76.01786,1215.14287,76,1240.865,76,1270.35834,96.37373Z"/><path class="cls-1" d="M41.96137,99.03367q8.52928-9.97771,23.32332-16.104c9.86349-4.03481,18.87329-6.03485,27.01083-5.92554q12.23355.21755,17.94567,5.74327A18.17593,18.17593,0,0,1,116,96.27163a19.27278,19.27278,0,0,1-5.75881,13.88587c-3.8138,3.96184-8.45852,5.55764-13.85894,5.92464-22.87557,1.55457-54.42088,25.003-54.42088,55.90981v70.41363a18.56993,18.56993,0,0,1-5.9208,13.84974A19.74449,19.74449,0,0,1,21.8,262a19.19614,19.19614,0,0,1-14.07851-5.74468A18.93063,18.93063,0,0,1,2,242.40558V96.4529A18.38183,18.38183,0,0,1,7.72146,82.74739,19.62235,19.62235,0,0,1,21.8,77.18638a20.19169,20.19169,0,0,1,14.2406,5.561,18.03968,18.03968,0,0,1,5.9208,13.70551Z"/><path class="cls-1" d="M288.9917,163.79145a17.15471,17.15471,0,0,1-5.3604,13.12366A20.14925,20.14925,0,0,1,269.4155,182.5H152.0854c2.209,10.61529,6.3926,18.18939,12.5498,23.86073q11.7891,13.73973,34.4986,16.4681,22.70865,2.83467,39.2969-9.052c3.6948-3.9266,8.602-5.92518,14.7768-5.92518,6.1206,0,10.4312,1.59961,12.8936,4.83425,6.8818,7.67092,6.8818,15.66815,0,24.06636q-26.56575,24.42709-65.1206,24.24582-38.57235-.1617-64.5772-27.26376C119.0552,215.77639,110.2534,194.00169,110,168.59047q.3801-38.11685,26.4033-65.36294Q162.4262,76.01711,199.3154,76q36.88695,0,62.1861,24.28306,25.2627,24.2654,27.4902,61.69118Zm-88.9531-52.60192q-21.3501,1.14468-34.2979,13.34126c-8.6201,8.10753-13.7822,16.80648-15.5019,25.96921H254.6753c-2.228-8.65405-8.2046-17.09906-17.9111-25.24293Q222.2043,113.04428,200.0386,111.18953Z"/><path class="cls-1" d="M482,241.02421a19.12631,19.12631,0,0,1-5.92569,14.05493A18.77629,18.77629,0,0,1,462.36941,261,19.49384,19.49384,0,0,1,449.21,256.35129a20.32994,20.32994,0,0,1-6.83383-11.261Q419.037,261.00045,391.99086,261q-37.40665,0-63.69015-27.204Q301.99092,206.61,302,168.6733q0-37.91808,26.30071-65.3033,26.28254-27.34967,63.69015-27.38521a84.66055,84.66055,0,0,1,49.63938,15.54549v-69.553a19.33825,19.33825,0,0,1,5.92567-14.09263,20.21816,20.21816,0,0,1,28.5184,0A19.266,19.266,0,0,1,482,21.97729Zm-90.00914-20.3401q20.39355,0,35.00725-15.36429a51.24875,51.24875,0,0,0,14.63213-36.64652,52.35816,52.35816,0,0,0-14.44985-36.82763q-14.45127-15.52826-35.18953-15.50919-20.72115,0-35.15269,15.50919a52.27867,52.27867,0,0,0-14.45136,36.82763,51.17576,51.17576,0,0,0,14.63274,36.64652Q371.63251,220.685,391.99086,220.68411Z"/><path class="cls-1" d="M541,21.97729v7.73554A20.15624,20.15624,0,0,1,535.25747,44.204a18.91388,18.91388,0,0,1-14.06588,5.88417A19.53121,19.53121,0,0,1,506.92477,44.204,19.88025,19.88025,0,0,1,501,29.71283V21.97729a19.34166,19.34166,0,0,1,5.92477-14.09263A19.53209,19.53209,0,0,1,521.19159,2a19.1713,19.1713,0,0,1,14.06588,5.70245A19.31122,19.31122,0,0,1,541,21.97729ZM506.74244,82.08636a20.58153,20.58153,0,0,1,28.515,0A19.793,19.793,0,0,1,541,96.723V241.02421a20.0006,20.0006,0,0,1-40,0V96.723A19.86569,19.86569,0,0,1,506.74244,82.08636Z"/><path class="cls-1" d="M682.36139,96.37373a19.08885,19.08885,0,0,1,8.33794,12.38373,20.74275,20.74275,0,0,1-2.4288,14.99973,18.82429,18.82429,0,0,1-12.35971,8.28029,18.60065,18.60065,0,0,1-14.935-3.12368q-20.71512-13.67349-34.19156-13.692c-8.98925,0-16.31074,2.25222-21.96567,6.64645-3.95053,2.7232-5.90773,5.15661-5.90773,7.22663a9.03149,9.03149,0,0,0,.92366,4.64932,12.14357,12.14357,0,0,0,3.87869,3.30488c5.41891,3.70446,14.40816,6.64605,26.95022,8.89826l.36259.36229h.38072a156.27483,156.27483,0,0,1,35.8398,11.11418q16.20426,7.35286,23.99624,20.33643C696.39147,186.36662,699,194.9025,699,203.29148q0,25.93087-23.27191,42.92618A82.69771,82.69771,0,0,1,627.72692,261q-34.36251-.32758-65.754-25.495a19.0479,19.0479,0,0,1-6.83269-13.1832,17.63568,17.63568,0,0,1,4.25928-14.236,17.363,17.363,0,0,1,13.28528-7.37262,18.45577,18.45577,0,0,1,14.40778,4.43q19.92788,16.61547,40.63432,16.26978a46.13832,46.13832,0,0,0,25.09282-7.00733c4.45864-3.74156,6.67145-6.86534,6.67145-9.44264,0-2.5792-.40071-4.39574-1.12592-5.37489-.47108-1.23486-2.06619-2.687-4.82032-4.431-5.872-4.21354-15.74049-7.66331-29.533-10.35131h-.3626a137.75845,137.75845,0,0,1-34.16373-10.74989,57.98777,57.98777,0,0,1-23.45227-20.37373,43.92725,43.92725,0,0,1-6.27124-23.28q0-24.02339,21.78441-40.71156Q601.50237,76.01786,627.16546,76,652.816,76,682.36139,96.37373Z"/></svg>