<?xml version="1.0" encoding="UTF-8"?>
<svg version="1.1" xmlns="http://www.w3.org/2000/svg" width="175" height="204">
<path d="M0 0 C1.65 0 3.3 0 5 0 C5.99 3.63 6.98 7.26 8 11 C9.69125 11.2475 11.3825 11.495 13.125 11.75 C20.09802522 13.06246441 23.99782748 15.31828333 28.125 21.125 C31.09848699 25.82780442 33.14359884 30.76931674 35 36 C35.58007812 34.83082031 36.16015625 33.66164062 36.7578125 32.45703125 C37.54616063 30.90849028 38.33526331 29.36033328 39.125 27.8125 C39.69347656 26.65911133 39.69347656 26.65911133 40.2734375 25.48242188 C43.30131004 19.60330269 46.41767005 15.88543682 52.375 12.75 C55.90702863 11.74084896 59.34515596 11.37167906 63 11 C63.99 7.37 64.98 3.74 66 0 C71.875 0.875 71.875 0.875 73 2 C73.23529412 9.29411765 73.23529412 9.29411765 72 13 C72.99 14.485 72.99 14.485 74 16 C74.125 18.6875 74.125 18.6875 74 21 C75.175625 21.12375 75.175625 21.12375 76.375 21.25 C79 22 79 22 80.375 23.5625 C81.31588538 27.23195298 80.6209446 30.2743324 80 34 C76 34 76 34 73.625 32.5 C70.48613077 30.70636044 68.56152534 30.68341997 65 31 C64.34 31.33 63.68 31.66 63 32 C64.258125 32.268125 65.51625 32.53625 66.8125 32.8125 C70.19567947 33.64646557 71.59663339 34.49213919 74 37 C76.30988315 37.74386068 78.64315944 38.42190703 81 39 C81 39.66 81 40.32 81 41 C78.05124123 42.47437939 76.30820503 42.36089509 73 42 C70.65301321 40.85543074 68.45927377 39.57612316 66.24609375 38.19140625 C63.82310132 36.90616679 61.69887675 36.41265778 59 36 C59.33 36.99 59.66 37.98 60 39 C62.95664519 40.4783226 65.74229737 40.06032783 69 40 C68.67 40.99 68.34 41.98 68 43 C59.89108911 43.46782178 59.89108911 43.46782178 56.5 41.6875 C55 40 55 40 54 37 C53.40823243 43.41739057 53.69140451 47.92870851 57.515625 53.24609375 C61.6408121 58.12032799 65.58941558 60.76286967 72 62 C74.33215844 62.07403678 76.66860788 62.09515886 79 62 C78.67 61.01 78.34 60.02 78 59 C77.34 58.67 76.68 58.34 76 58 C76 58.99 76 59.98 76 61 C71.25 60.25 71.25 60.25 69 58 C68.3125 54.75 68.3125 54.75 69 51 C71.68858382 48.49106809 74.81149055 46.80472538 78 45 C90.6803002 37.32452807 96.65987162 27.71385082 102 14 C103.65 14.33 105.3 14.66 107 15 C106.57534294 22.36072234 104.01651083 28.32137824 101 35 C101.33 35 101.66 35 102 35 C103.17706304 33.75803624 104.31683148 32.48057906 105.4375 31.1875 C106.05496094 30.47980469 106.67242187 29.77210937 107.30859375 29.04296875 C109.13801792 26.90493031 109.13801792 26.90493031 111 24 C112.32 24.33 113.64 24.66 115 25 C114.52669034 34.22953834 107.44966727 41.06554284 101 47 C107.9525237 43.24620566 107.9525237 43.24620566 113.8125 38.0625 C114.534375 37.381875 115.25625 36.70125 116 36 C118.8125 36.1875 118.8125 36.1875 121 37 C119.92283389 43.05905939 115.30443066 47.26893798 110.53515625 50.8515625 C108.38355983 52.28596012 106.21851891 53.67190704 104 55 C109.12864538 53.47526759 113.8085434 51.25405341 118.609375 48.92578125 C119.39828125 48.62027344 120.1871875 48.31476563 121 48 C121.66 48.33 122.32 48.66 123 49 C122.69910643 52.242964 122.37478419 53.64819108 119.9609375 55.9140625 C115.09655637 59.13248989 110.48048098 61.97460485 105 64 C106.11375 63.855625 107.2275 63.71125 108.375 63.5625 C113.24126788 62.95203629 118.11846586 62.47014775 123 62 C123.0625 64.25 123.0625 64.25 122 67 C116.607651 70.54285736 110.24495245 71.81048525 104 73 C109.28 73.33 114.56 73.66 120 74 C120.33 75.32 120.66 76.64 121 78 C113.71594992 81.35066304 106.98843026 81.61594085 99 82 C104.28 83.32 109.56 84.64 115 86 C114.67 87.65 114.34 89.3 114 91 C108.72 91 103.44 91 98 91 C99.27875 91.5775 100.5575 92.155 101.875 92.75 C105.28739516 94.29108169 106.60344703 95.50126729 108 99 C107.67 99.33 107.34 99.66 107 100 C101.76242091 99.85665573 96.89342839 98.88208784 92 97 C92.66708984 97.58007812 92.66708984 97.58007812 93.34765625 98.171875 C93.91355469 98.69265625 94.47945312 99.2134375 95.0625 99.75 C95.91521484 100.51570313 95.91521484 100.51570313 96.78515625 101.296875 C98 103 98 103 97.68359375 105.203125 C97.34521484 106.09257812 97.34521484 106.09257812 97 107 C93.26512223 106.5020163 91.18762365 106.12508244 88 104 C86.9682882 109.43140841 86.68722356 114.83213199 86.48242188 120.34179688 C86.29793745 124.04192797 86.10161282 125.84758077 84 129 C83.443125 128.773125 82.88625 128.54625 82.3125 128.3125 C79.88099642 127.72861869 79.88099642 127.72861869 77.734375 129.46484375 C74.51864278 131.2702477 72.59375115 131.3424463 68.9375 131.25 C67.91527344 131.23453125 66.89304687 131.2190625 65.83984375 131.203125 C63.41460841 131.02965562 61.32155678 130.69034302 59 130 C59.804375 130.391875 60.60875 130.78375 61.4375 131.1875 C64 133 64 133 64.8125 135.6875 C64.874375 136.450625 64.93625 137.21375 65 138 C64.0925 137.835 63.185 137.67 62.25 137.5 C57.72246138 136.82272476 53.23605701 137.01535352 48.671875 137.16015625 C46 137 46 137 43 135 C42.67 134.34 42.34 133.68 42 133 C39.77695313 134.82304687 39.77695313 134.82304687 39.65234375 137.43359375 C39.76620217 140.0371808 39.76620217 140.0371808 41.44140625 141.66015625 C48.50098892 146.32754148 55.8416981 148.17271236 64 150 C63.2421875 153.8359375 63.2421875 153.8359375 61.0625 155.3125 C54.29351751 156.8320675 47.91844824 155.58221867 42 152 C45.81234923 155.3502463 49.33285711 157.16974789 54 159 C54 159.66 54 160.32 54 161 C49.57756501 163.56786548 46.48856529 162.71809676 41.79296875 161.5078125 C40.90544922 161.25644531 40.90544922 161.25644531 40 161 C39.566875 161.825 39.13375 162.65 38.6875 163.5 C38.130625 164.325 37.57375 165.15 37 166 C36.01 166 35.02 166 34 166 C32.3125 163.5 32.3125 163.5 31 161 C30.11248047 161.25136719 30.11248047 161.25136719 29.20703125 161.5078125 C21.35852373 163.53075571 21.35852373 163.53075571 17 161 C17.33 160.01 17.66 159.02 18 158 C19.77734375 157.15625 19.77734375 157.15625 21.9375 156.5 C25.41979025 155.43824907 25.8422431 155.23663534 28 152 C27.38125 152.474375 26.7625 152.94875 26.125 153.4375 C21.82490832 155.58754584 17.79522841 156.16060574 13 156 C9.375 154.5625 9.375 154.5625 7 153 C7 152.01 7 151.02 7 150 C8.46759766 149.67128906 8.46759766 149.67128906 9.96484375 149.3359375 C21.57157096 146.78515466 21.57157096 146.78515466 31 140 C31.54705806 137.45456723 31.54705806 137.45456723 31 135 C29.515 134.01 29.515 134.01 28 133 C27.67 133.99 27.34 134.98 27 136 C23.23494609 137.88252695 18.61763683 137.00725204 14.48046875 136.9375 C11.48143298 136.99135474 8.90197884 137.29246992 6 138 C6.875 133.125 6.875 133.125 8 132 C7.19175781 131.97421875 6.38351563 131.9484375 5.55078125 131.921875 C-5.06326889 131.35852373 -5.06326889 131.35852373 -9 127 C-9.33 127.66 -9.66 128.32 -10 129 C-11.9375 128.625 -11.9375 128.625 -14 128 C-15.53731305 124.92537391 -15.33637292 121.63162631 -15.5 118.25 C-15.73861163 113.42474256 -16.10184086 108.76024346 -17 104 C-17.721875 104.515625 -18.44375 105.03125 -19.1875 105.5625 C-22.4195366 107.21442982 -23.61608307 107.06351675 -27 106 C-26.42647107 102.12867972 -24.51295648 99.91827204 -22 97 C-23.19625 97.495 -24.3925 97.99 -25.625 98.5 C-29.21101476 99.85911235 -32.13404799 100.2899464 -36 100 C-36 98.68 -36 97.36 -36 96 C-35.04287109 95.47599609 -35.04287109 95.47599609 -34.06640625 94.94140625 C-33.24011719 94.48636719 -32.41382812 94.03132813 -31.5625 93.5625 C-30.73878906 93.11003906 -29.91507813 92.65757812 -29.06640625 92.19140625 C-27.07691202 91.16337603 -27.07691202 91.16337603 -26 90 C-26.763125 90.165 -27.52625 90.33 -28.3125 90.5 C-33.22145849 91.16562149 -38.05435114 91.07920078 -43 91 C-43.495 88.525 -43.495 88.525 -44 86 C-38.72 84.68 -33.44 83.36 -28 82 C-31.2175 81.8453125 -31.2175 81.8453125 -34.5 81.6875 C-40.27823876 81.28900078 -44.75864777 80.41102202 -50 78 C-49.67 76.68 -49.34 75.36 -49 74 C-41.08 73.505 -41.08 73.505 -33 73 C-34.835625 72.5875 -36.67125 72.175 -38.5625 71.75 C-43.68679973 70.48256965 -47.60918689 68.89394501 -52 66 C-52 64.68 -52 63.36 -52 62 C-45.98673249 62.57914667 -39.99107278 63.22337945 -34 64 C-34.79664062 63.62488281 -35.59328125 63.24976563 -36.4140625 62.86328125 C-47.92067989 57.30594901 -47.92067989 57.30594901 -52 53 C-52 51.68 -52 50.36 -52 49 C-49 48 -49 48 -45.71484375 49.43359375 C-44.45053263 50.09167367 -43.19155527 50.76008052 -41.9375 51.4375 C-37.68905836 53.98472455 -37.68905836 53.98472455 -33 55 C-33.72445312 54.50371094 -34.44890625 54.00742188 -35.1953125 53.49609375 C-40.91495245 49.47709341 -45.99728634 45.78169751 -50 40 C-49.640625 37.796875 -49.640625 37.796875 -49 36 C-44.94691519 36.51980637 -42.98115592 37.54587341 -40.0625 40.375 C-36.84755378 43.34592753 -34.01569013 45.2933317 -30 47 C-30.59167969 46.45472656 -31.18335937 45.90945312 -31.79296875 45.34765625 C-36.76864502 40.59925394 -41.86677823 35.71842258 -44 29 C-43.6171875 26.234375 -43.6171875 26.234375 -43 24 C-40.15745009 24.35609966 -39.14512232 24.84052149 -37.18359375 26.99609375 C-36.60738281 27.80175781 -36.03117187 28.60742188 -35.4375 29.4375 C-33.34197815 32.34509491 -32.02384796 33.98410136 -29 36 C-29.33773438 35.35933594 -29.67546875 34.71867187 -30.0234375 34.05859375 C-36.98642983 20.55521845 -36.98642983 20.55521845 -35 14 C-33.68 14 -32.36 14 -31 14 C-30.72027344 14.75023437 -30.44054687 15.50046875 -30.15234375 16.2734375 C-24.11494284 31.68725205 -15.78032703 40.61323422 -1.44140625 48.6171875 C1 50 1 50 2 51 C2.3125 54.375 2.3125 54.375 2 58 C0.1875 59.9375 0.1875 59.9375 -2 61 C-2.99 61 -3.98 61 -5 61 C-5 60.01 -5 59.02 -5 58 C-5.99 58.495 -5.99 58.495 -7 59 C-7.33 59.99 -7.66 60.98 -8 62 C-0.67704125 62.45768492 4.95888062 60.83519118 10.8125 56.3125 C14.93608697 52.49959424 16.75297509 48.28992266 17.171875 42.7109375 C17.18533408 40.8064773 17.10188111 38.90178075 17 37 C16.54625 37.804375 16.0925 38.60875 15.625 39.4375 C14 42 14 42 12 43 C10.45976004 43.06950541 8.91665012 43.08452357 7.375 43.0625 C6.14910156 43.04896484 6.14910156 43.04896484 4.8984375 43.03515625 C4.27195313 43.02355469 3.64546875 43.01195312 3 43 C3 42.01 3 41.02 3 40 C3.928125 40.04125 4.85625 40.0825 5.8125 40.125 C9.15809719 40.27136339 9.15809719 40.27136339 12 38 C12 37.34 12 36.68 12 36 C10.41375765 36.42683239 8.8310902 36.86696158 7.25 37.3125 C6.36828125 37.55613281 5.4865625 37.79976562 4.578125 38.05078125 C1.95440569 38.87609085 1.95440569 38.87609085 -0.1015625 40.58203125 C-3.03411606 42.77239533 -5.4665722 42.39260309 -9 42 C-9.66 41.01 -10.32 40.02 -11 39 C-10.39671875 38.81824219 -9.7934375 38.63648438 -9.171875 38.44921875 C-4.82776385 37.08292573 -1.63651222 35.75873341 2 33 C5.25 32.3125 5.25 32.3125 8 32 C2.43626818 30.78231122 2.43626818 30.78231122 -2.75 32.4375 C-3.4925 32.953125 -4.235 33.46875 -5 34 C-6.32 34 -7.64 34 -9 34 C-10.43115087 25.9303782 -10.43115087 25.9303782 -8.8125 22.4375 C-7 21 -7 21 -3 21 C-3.04125 20.071875 -3.0825 19.14375 -3.125 18.1875 C-3 15 -3 15 -1 12 C-1.5259375 11.195625 -1.5259375 11.195625 -2.0625 10.375 C-3.30943518 7.21609755 -2.84699399 5.24681029 -2 2 C-1.34 1.34 -0.68 0.68 0 0 Z M9 18 C8.67 19.65 8.34 21.3 8 23 C9.32 22.67 10.64 22.34 12 22 C11.67 20.68 11.34 19.36 11 18 C10.34 18 9.68 18 9 18 Z M60 18 C59.67 19.32 59.34 20.64 59 22 C59.99 22.33 60.98 22.66 62 23 C60.02 25.31 58.04 27.62 56 30 C56.33 30.66 56.66 31.32 57 32 C58.11375 30.824375 58.11375 30.824375 59.25 29.625 C63.73106686 25.80418695 69.33696986 25.61395311 75 25 C74.34 24.67 73.68 24.34 73 24 C73 23.01 73 22.02 73 21 C69.7 21.33 66.4 21.66 63 22 C62.67 20.68 62.34 19.36 62 18 C61.34 18 60.68 18 60 18 Z M-2 21 C-2.66 22.32 -3.32 23.64 -4 25 C-3.27554688 25.09796875 -2.55109375 25.1959375 -1.8046875 25.296875 C4.18194443 26.2228074 8.249116 27.22365631 13 31 C13.66 31.33 14.32 31.66 15 32 C13.41027992 28.09795981 11.30142879 25.61363112 8 23 C4.70223606 22.01521597 1.40959636 21.44357856 -2 21 Z M15 32 C16 34 16 34 16 34 Z M18.625 62.1875 C11.92935529 70.38459231 9.82089806 78.4744857 9.8125 88.8125 C9.80025391 89.59431641 9.78800781 90.37613281 9.77539062 91.18164062 C9.76287424 96.17567822 10.40077678 100.26554074 12 105 C16.36756357 101.08425335 18.44909021 97.09345722 19.9375 91.4375 C21 88 21 88 22.8125 85.75 C25.59157334 82.25630781 27.05813762 78.53454525 28.75390625 74.42578125 C30 72 30 72 33 70 C32.67 69.67 32.34 69.34 32 69 C31.82576399 65.16680771 32.12196632 61.73164314 33 58 C34.98 58.66 36.96 59.32 39 60 C39 59.34 39 58.68 39 58 C40.32 57.67 41.64 57.34 43 57 C42.39816251 59.02045442 41.72693904 61.02111039 41 63 C40.01 63.495 40.01 63.495 39 64 C38.59270772 66.32156597 38.25561323 68.6568787 38 71 C39.65 71.66 41.3 72.32 43 73 C43.38347912 76.35544232 43.27514436 77.63946602 41.1875 80.375 C40.465625 81.24125 39.74375 82.1075 39 83 C35.7370642 89.76757055 33.55895025 96.60351713 35.56640625 104.12109375 C36.84921384 107.78146097 37.9567861 110.46529228 41 113 C41.66 113 42.32 113 43 113 C42 114 41 115 40 116 C39.525625 116.53625 39.05125 117.0725 38.5625 117.625 C36.74635785 119.22320509 35.35804482 119.59344055 33 120 C33 119.01 33 118.02 33 117 C29.49408652 114.31900734 26.34159496 113.50483662 22 113 C22.20625 112.360625 22.4125 111.72125 22.625 111.0625 C23.14847264 106.78747342 22.08782441 103.12654053 21 99 C17.42307619 103.15697707 17.42307619 103.15697707 15 108 C15.60033385 114.16614089 19.42982715 117.20930008 24 121 C29.25328943 124.05645931 34.04488739 124.98278819 40 124 C48.80937362 121.41464035 53.52502376 115.77742264 58 108 C63.43645298 96.91945175 62.7008725 84.49289132 59 73 C55.37116145 64.86526223 50.22908548 58.5325875 41.875 55.125 C33.14165546 51.97229886 24.70141843 55.69084328 18.625 62.1875 Z M-16 71 C-15.39428915 76.45139766 -14.77223909 81.71209239 -13.84375 87.08984375 C-13.62589844 88.36923828 -13.40804687 89.64863281 -13.18359375 90.96679688 C-12.84236298 92.95225082 -12.49999939 94.9375035 -12.15673828 96.92260742 C-10.83293183 104.60049489 -9.61331055 112.22949266 -9 120 C-8.01 119.34 -7.02 118.68 -6 118 C-5.01 118 -4.02 118 -3 118 C-3.33 120.31 -3.66 122.62 -4 125 C-3.79375 124.401875 -3.5875 123.80375 -3.375 123.1875 C-1.49073918 120.18981233 0.81132084 119.38638224 4 118 C3.34 118.99 2.68 119.98 2 121 C1.83286431 123.62531524 1.83286431 123.62531524 2 126 C2.433125 125.505 2.86625 125.01 3.3125 124.5 C5 123 5 123 8 123 C8.33 124.65 8.66 126.3 9 128 C9.66 128 10.32 128 11 128 C11.0928125 127.071875 11.0928125 127.071875 11.1875 126.125 C12 124 12 124 14.5625 122.75 C15.366875 122.5025 16.17125 122.255 17 122 C16.62488281 121.57332031 16.24976563 121.14664063 15.86328125 120.70703125 C7.16803196 110.08437153 4.27045133 97.47120093 5 84 C5.54431169 79.6360402 6.25394421 75.33644927 7 71 C-0.59 71 -8.18 71 -16 71 Z M64 71 C64.33 72.7325 64.66 74.465 65 76.25 C67.29842205 90.35470508 66.46951869 103.70629877 58.40234375 115.87890625 C57.08973257 117.86427636 56.01809273 119.85177563 55 122 C55.639375 122.2475 56.27875 122.495 56.9375 122.75 C59 124 59 124 59.75 126.125 C59.8325 126.74375 59.915 127.3625 60 128 C61.32 127.34 62.64 126.68 64 126 C63.67 124.68 63.34 123.36 63 122 C65.46800047 123.15173355 67.04783565 124.04783565 69 126 C68.67 123.36 68.34 120.72 68 118 C70.4375 119.1875 70.4375 119.1875 73 121 C73.8125 123.6875 73.8125 123.6875 74 126 C75.23396041 124.2857711 75.23396041 124.2857711 76 122 C75.21297649 119.2806707 75.21297649 119.2806707 74 117 C75.98 117.99 77.96 118.98 80 120 C80.10489746 119.07441284 80.10489746 119.07441284 80.21191406 118.13012695 C81.62276449 105.85776969 83.25072049 93.7096848 85.72949219 81.6027832 C85.97747559 80.38401489 85.97747559 80.38401489 86.23046875 79.140625 C86.45319458 78.08149902 86.45319458 78.08149902 86.68041992 77.00097656 C87.10514217 74.67939941 87.10514217 74.67939941 87 71 C79.41 71 71.82 71 64 71 Z M30 82 C29.34 83.65 28.68 85.3 28 87 C29.32 86.67 30.64 86.34 32 86 C31.67 84.68 31.34 83.36 31 82 C30.67 82 30.34 82 30 82 Z M11 128 C11 128.66 11 129.32 11 130 C10.01 130.495 10.01 130.495 9 131 C10.32 131 11.64 131 13 131 C12.67 130.01 12.34 129.02 12 128 C11.67 128 11.34 128 11 128 Z M17 130 C17 130.33 17 130.66 17 131 C19.97 131.33 22.94 131.66 26 132 C22.5647952 129.70986347 21.014669 129.82157027 17 130 Z M45 132 C49.455 131.505 49.455 131.505 54 131 C54 130.67 54 130.34 54 130 C49.2102679 129.76571687 49.2102679 129.76571687 45 132 Z " fill="#5A666F" transform="translate(52,38)"/>
<path d="M0 0 C4.182952 4.182952 5.16933905 7.78331838 5.3125 13.5625 C5.24274056 21.79411361 2.80525624 29.00123522 -3 35 C-6.16736204 36.58368102 -8.5153015 36.42056706 -12 36 C-15.75938055 31.63751027 -16.68421487 27.86905768 -16.5625 22.25 C-16.55371826 21.54842773 -16.54493652 20.84685547 -16.53588867 20.12402344 C-16.23930076 12.51247523 -13.74510046 6.95626203 -8.5625 1.375 C-5.34607208 -0.35088815 -3.59404422 -0.68822123 0 0 Z M-7 6 C-7.33 6.66 -7.66 7.32 -8 8 C-7.01 8.495 -7.01 8.495 -6 9 C-6 10.65 -6 12.3 -6 14 C-5.34 14 -4.68 14 -4 14 C-3.731875 13.38125 -3.46375 12.7625 -3.1875 12.125 C-2 10 -2 10 1 8 C-0.89755144 5.65026182 -0.89755144 5.65026182 -4.125 5.875 C-5.07375 5.91625 -6.0225 5.9575 -7 6 Z M-12 16 C-12.33 18.64 -12.66 21.28 -13 24 C-11.29115995 22.37660195 -9.62553283 20.70680947 -8 19 C-8 18.34 -8 17.68 -8 17 C-9.32 16.67 -10.64 16.34 -12 16 Z M-2 17 C-2.77242269 18.83700789 -2.77242269 18.83700789 -3 21 C-1.64555699 22.77190909 -1.64555699 22.77190909 0 24 C0.33 22.02 0.66 20.04 1 18 C0.01 17.67 -0.98 17.34 -2 17 Z M-5 25 C-5.33 26.32 -5.66 27.64 -6 29 C-6.99 29 -7.98 29 -9 29 C-9.66 28.34 -10.32 27.68 -11 27 C-11.33 27.66 -11.66 28.32 -12 29 C-11.01 30.485 -11.01 30.485 -10 32 C-7.55519921 31.81171228 -7.55519921 31.81171228 -5 31 C-3.63979849 29.03241727 -3.63979849 29.03241727 -3 27 C-3.66 26.34 -4.32 25.68 -5 25 Z " fill="#5A666F" transform="translate(105,114)"/>
<path d="M0 0 C2.46458824 3.15954481 2.58375021 6.81598624 2.34375 10.72265625 C0.63282262 13.96751853 -1.08194207 16.14834832 -3.65625 18.72265625 C-3.64702298 21.26979029 -3.64702298 21.26979029 -2.65625 23.72265625 C-0.68866727 25.08285776 -0.68866727 25.08285776 1.34375 25.72265625 C0.01585818 31.62439768 -3.31049975 35.66726793 -7.65625 39.72265625 C-9.14125 40.21765625 -9.14125 40.21765625 -10.65625 40.72265625 C-10.6253125 38.80453125 -10.6253125 38.80453125 -10.59375 36.84765625 C-10.55605165 33.39556467 -10.91075207 30.29818479 -11.53125 26.91015625 C-12.23108422 21.12061862 -9.79819388 17.13073928 -7.00390625 12.19140625 C-5.49653533 9.89884964 -5.49653533 9.89884964 -5.65625 7.72265625 C-6.64625 7.39265625 -7.63625 7.06265625 -8.65625 6.72265625 C-9.64625 7.21765625 -9.64625 7.21765625 -10.65625 7.72265625 C-10.97354027 10.33995405 -10.97354027 10.33995405 -11.03125 13.41015625 C-11.38487834 18.8110254 -12.0617637 21.69247465 -15.65625 25.72265625 C-16.31625 26.05265625 -16.97625 26.38265625 -17.65625 26.72265625 C-20.65625 24.72265625 -20.65625 24.72265625 -21.34375 22.59765625 C-21.446875 21.97890625 -21.55 21.36015625 -21.65625 20.72265625 C-20.00625 19.73265625 -18.35625 18.74265625 -16.65625 17.72265625 C-16.85154297 16.16804688 -16.85154297 16.16804688 -17.05078125 14.58203125 C-17.19149863 13.21238213 -17.33074461 11.84258128 -17.46875 10.47265625 C-17.55833984 9.79074219 -17.64792969 9.10882813 -17.74023438 8.40625 C-17.92578125 6.39453125 -17.92578125 6.39453125 -17.65625 2.72265625 C-12.96830276 -2.08886126 -5.98329642 -4.61447625 0 0 Z " fill="#59656E" transform="translate(147.65625,32.27734375)"/>
<path d="M0 0 C3.0625 1.6875 3.0625 1.6875 5 5 C4.93119497 8.67676898 4.55350261 12.1845212 4.00390625 15.8203125 C4.00261719 16.86960937 4.00132813 17.91890625 4 19 C5.83203117 20.98457596 5.83203117 20.98457596 8 22 C7.75 23.875 7.75 23.875 7 26 C4.9375 27.25 4.9375 27.25 3 28 C-1.31960155 21.86895264 -1.75690081 16.40237027 -2 9 C-2.99 8.67 -3.98 8.34 -5 8 C-5.99 8.66 -6.98 9.32 -8 10 C-7.566875 10.55042969 -7.13375 11.10085937 -6.6875 11.66796875 C-0.32885017 21.1617862 -1.40151546 30.98021167 -2 42 C-5.93319338 41.20203471 -7.23322922 39.96557387 -9.6875 36.75 C-10.59048828 35.59757812 -10.59048828 35.59757812 -11.51171875 34.421875 C-13.06783568 31.88961124 -13.61096135 29.92557064 -14 27 C-12.35 26.01 -10.7 25.02 -9 24 C-9.32786062 20.28424636 -9.98734966 19.01388452 -12.5625 16.1875 C-14.69730319 13.77964059 -15.41683952 12.16630732 -15.5625 8.9375 C-14.94661846 4.62632922 -14.13590824 2.95671348 -11 0 C-7.11192805 -1.29602398 -3.89490477 -1.0361203 0 0 Z " fill="#5A666F" transform="translate(40,31)"/>
<path d="M0 0 C0.74636719 -0.00773437 1.49273437 -0.01546875 2.26171875 -0.0234375 C6.4578248 -0.00858403 9.66851788 0.33425894 13.5 2.25 C13.5 4.23 13.5 6.21 13.5 8.25 C11.52 8.58 9.54 8.91 7.5 9.25 C7.5 7.93 7.5 6.61 7.5 5.25 C6.84 5.25 6.18 5.25 5.5 5.25 C5.78416601 7.62611155 6.07708901 10.00060496 6.375 12.375 C6.45363281 13.04015625 6.53226563 13.7053125 6.61328125 14.390625 C7.14388026 18.55378644 8.04186554 22.31671292 9.5 26.25 C8.125 27.75 8.125 27.75 6.5 29.25 C5.84 29.25 5.18 29.25 4.5 29.25 C1.80819507 23.1485755 1.37498601 17.50148291 1.4375 10.875 C1.44652344 9.62976562 1.45554687 8.38453125 1.46484375 7.1015625 C1.47644531 6.16054688 1.48804687 5.21953125 1.5 4.25 C0.51 4.25 -0.48 4.25 -1.5 4.25 C-1.46519531 5.30058594 -1.43039063 6.35117187 -1.39453125 7.43359375 C-1.21359855 15.34939951 -1.325626 21.84312732 -4.5 29.25 C-5.16 29.25 -5.82 29.25 -6.5 29.25 C-8.5 26.25 -8.5 26.25 -8.2578125 24.375 C-8.04898438 23.67375 -7.84015625 22.9725 -7.625 22.25 C-6.2471893 16.88890325 -6.31485766 11.75284183 -6.5 6.25 C-6.83 7.24 -7.16 8.23 -7.5 9.25 C-12.375 8.375 -12.375 8.375 -13.5 7.25 C-13.54063832 5.58382885 -13.542721 3.91611905 -13.5 2.25 C-8.95765731 -0.02117134 -4.95835291 -0.0513819 0 0 Z " fill="#5A666F" transform="translate(87.5,28.75)"/>
<path d="M0 0 C2.33294775 -0.04241723 4.66702567 -0.04092937 7 0 C7.33 0.33 7.66 0.66 8 1 C7.95875 2.0725 7.9175 3.145 7.875 4.25 C7.66285497 7.96324959 7.66285497 7.96324959 9.625 10.375 C11.50127436 13.95697832 10.76480245 16.10074083 9.75 19.90625 C8.88102203 22.33214684 7.78291078 24.13604782 6 26 C2.36464239 25.79803569 1.2005214 25.21677989 -1.3125 22.5 C-3.42155329 18.12566725 -3.38082175 14.76027183 -3 10 C-2.01 9.67 -1.02 9.34 0 9 C-0.185625 7.88625 -0.37125 6.7725 -0.5625 5.625 C-1 2 -1 2 0 0 Z " fill="#5A666F" transform="translate(84,0)"/>
<path d="M0 0 C1.175625 0.309375 2.35125 0.61875 3.5625 0.9375 C9.18324884 2.2153491 14.80153894 2.41981642 20.546875 2.65625 C24.80143471 3.07978083 27.77699126 3.81775822 30.875 6.8125 C32.31686389 9.61612422 31.90277984 11.04544778 31 14 C28.43820023 13.56083432 26.15581899 13.06623664 23.7578125 12.046875 C20.55430308 10.83081193 17.43070384 10.24670972 14.0625 9.625 C8.80229273 8.52774502 4.93511099 7.7102475 1 4 C0.36328125 1.87109375 0.36328125 1.87109375 0 0 Z " fill="#59656E" transform="translate(92,174)"/>
<path d="M0 0 C-0.125 1.75 -0.125 1.75 -1 4 C-5.78333516 7.87797203 -10.26895033 9.01561176 -16.25 10.125 C-17.86067821 10.43337352 -19.47014138 10.74818333 -21.078125 11.0703125 C-22.13628418 11.26778076 -22.13628418 11.26778076 -23.21582031 11.46923828 C-25.23246127 11.91503876 -25.23246127 11.91503876 -27 14 C-29.125 13.625 -29.125 13.625 -31 13 C-31.36305732 7.55414013 -31.36305732 7.55414013 -29.8125 5.1875 C-24.93908248 1.99457128 -18.0874063 2.66605886 -12.47265625 2.37890625 C-8.11776743 1.9037384 -4.35535594 0 0 0 Z " fill="#5B6770" transform="translate(83,174)"/>
<path d="M0 0 C4.38084107 0.16849389 6.38213877 0.36669224 9.5 3.5625 C11.50181409 8.14999062 11.1721769 10.15500215 10 15 C9.01 16.32 8.02 17.64 7 19 C3.7 18.34 0.4 17.68 -3 17 C-4 14 -4 14 -3.1328125 12.140625 C-2.75898437 11.43421875 -2.38515625 10.7278125 -2 10 C-1.57336714 8.26186612 -1.19923141 6.51011335 -0.875 4.75 C-0.70742187 3.85796875 -0.53984375 2.9659375 -0.3671875 2.046875 C-0.24601562 1.37140625 -0.12484375 0.6959375 0 0 Z " fill="#59656E" transform="translate(97,10)"/>
<path d="M0 0 C0.07347656 0.85271484 0.07347656 0.85271484 0.1484375 1.72265625 C0.63143081 6.71081129 1.47638163 11.22599578 3 16 C1.75579353 16.5345256 0.50429064 17.05208611 -0.75 17.5625 C-1.44609375 17.85253906 -2.1421875 18.14257812 -2.859375 18.44140625 C-5.39282068 19.10250613 -6.61354151 19.07791718 -9 18 C-11.3417587 14.56992395 -11.53621639 11.25074111 -11.44921875 7.1953125 C-10.92355439 4.62641361 -10.24626502 3.6773914 -8.3125 1.9375 C-5.06078363 0.03555269 -3.65790882 -0.53792777 0 0 Z " fill="#5A666F" transform="translate(79,10)"/>
<path d="M0 0 C1.65 0 3.3 0 5 0 C5.144375 0.78375 5.28875 1.5675 5.4375 2.375 C5.87798925 4.96421018 5.87798925 4.96421018 7 7 C7.25082151 10.84592989 7.35080644 13.82641131 5 17 C2.875 17.75 2.875 17.75 1 18 C-1.39298577 15.50730649 -1.9828437 14.18185678 -2.3125 10.6875 C-1.98371622 6.80785143 -1.20357061 3.685935 0 0 Z " fill="#5A666F" transform="translate(61,31)"/>
<path d="M0 0 C1.65 0.33 3.3 0.66 5 1 C6.58631421 5.16407479 7.47448657 8.53982624 7 13 C5.5 15.875 5.5 15.875 4 18 C2.125 17.75 2.125 17.75 0 17 C-2.35080644 13.82641131 -2.25082151 10.84592989 -2 7 C-1.67 6.34 -1.34 5.68 -1 5 C-0.64386903 3.33805547 -0.30791692 1.671549 0 0 Z " fill="#5A676F" transform="translate(109,31)"/>
<path d="M0 0 C5 0 5 0 6.8125 1.0625 C8.65150018 4.06297398 8.30671285 6.56481613 8 10 C7.01 11.485 7.01 11.485 6 13 C0.25 12.125 0.25 12.125 -2 11 C-1.34 7.37 -0.68 3.74 0 0 Z " fill="#5A656F" transform="translate(69,38)"/>
<path d="M0 0 C0.99 3.63 1.98 7.26 3 11 C-2.86206897 13.34482759 -2.86206897 13.34482759 -6 12 C-7.52491998 8.95016004 -7.23562548 6.3576631 -7 3 C-4.8671951 -0.30584759 -4.13306865 0 0 0 Z " fill="#5A6770" transform="translate(105,38)"/>
<path d="M0 0 C2.375 -0.125 2.375 -0.125 5 0 C5.66 0.66 6.32 1.32 7 2 C7.66 1.34 8.32 0.68 9 0 C9.99 0 10.98 0 12 0 C13.125 6.625 13.125 6.625 12 10 C11.34 10 10.68 10 10 10 C10 9.01 10 8.02 10 7 C6.7 7 3.4 7 0 7 C0.66 5.68 1.32 4.36 2 3 C1.34 2.67 0.68 2.34 0 2 C0 1.34 0 0.68 0 0 Z " fill="#5B6770" transform="translate(120,130)"/>
<path d="M0 0 C2.31 0 4.62 0 7 0 C5.94124926 3.40312738 4.99097846 6.01353231 3 9 C2.34 9 1.68 9 1 9 C1.875 4.25 1.875 4.25 3 2 C2.01 2 1.02 2 0 2 C0 1.34 0 0.68 0 0 Z " fill="#5B6671" transform="translate(48,130)"/>
<path d="M0 0 C1.32 0 2.64 0 4 0 C4 2.31 4 4.62 4 7 C3.34 7 2.68 7 2 7 C2 5.35 2 3.7 2 2 C1.34 2 0.68 2 0 2 C0 1.34 0 0.68 0 0 Z " fill="#5A6770" transform="translate(43,130)"/>
</svg>
