<svg id="Layer_1" data-name="Layer 1" xmlns="http://www.w3.org/2000/svg" viewBox="0 0 800 271"><defs><style>.cls-1{fill:#034ea2;}</style></defs><title>samsung</title><path class="cls-1" d="M793.90138,66.9087c-10.7266-61.584-195.7666-80.8032-413.31989-42.9268C289.21829,39.894,206.72119,63.3677,142.478,89.7783c9.8638.2168,17.188,2.4805,21.6304,6.9155,3.4761,3.48,5.2334,8.2564,5.2334,14.2105v6.1079H148.0122v-5.396c0-4.4946-2.6948-7.2798-7.4736-7.2798-4.0069,0-6.4834,1.8106-7.2759,5.3784a10.32278,10.32278,0,0,0,.0884,4.2588c2.2827,9.3326,33.957,15.1236,37.4101,32.3496a41.06838,41.06838,0,0,1,.0996,13.7427c-1.9755,13.8862-14.1796,19.2481-29.7138,19.2481-21.6802,0-30.4893-10.2725-30.4893-24.4273l.0156-6.6987H133.543l.0112,8.3423c0,4.6904,3.4087,7.2802,8.0532,7.2802,4.3985,0,6.9688-1.7709,7.857-5.3984a10.571,10.571,0,0,0-.1553-5.9946c-4.23-10.6192-33.8135-15.5781-37.4522-32.7427a28.7578,28.7578,0,0,1-.2055-11.2949,21.82808,21.82808,0,0,1,1.8935-5.9351C42.2754,135.771.58936,172.4385,6.09668,204.0977,16.8354,265.6855,201.87349,284.8916,419.417,247.0132c95.62989-16.6485,181.59858-41.565,247.03418-69.4893-.95118.0459-1.8643.148-2.8457.148-14.8907,0-28.1836-5.5806-29.56448-20.7979-.24612-2.77-.292-3.9287-.29982-5.5112l.00782-34.9834c0-1.5078.17678-4.1553.34568-5.5249,1.7647-14.7075,13.3926-20.773,29.5108-20.773,12.4716,0,27.76852,3.5796,29.4492,20.7847a50.54363,50.54363,0,0,1,.19532,5.2251v3.3052H671.70018v-4.9317a20.10018,20.10018,0,0,0-.2686-3.1001c-.3535-1.7573-1.84958-5.8256-7.9882-5.8256-6.0616,0-7.6348,4.0781-8.02538,5.8315a18.51571,18.51571,0,0,0-.33012,3.877v38.0239a17.11587,17.11587,0,0,0,.1807,3.1113c.10742.6021,1.1923,5.8394,8.2441,5.8394,7.0098,0,8.0879-5.2373,8.1875-5.8394a18.02525,18.02525,0,0,0,.1992-3.1113V141.4893h-8.4785V128.7998h29.9785v22.5684a53.30976,53.30976,0,0,1-.291,5.5058,21.225,21.225,0,0,1-3.5918,10.2588C758.93548,134.1865,799.33788,98.1113,793.90138,66.9087ZM229.79979,176.0566l-10.9131-74.1587h-.393l-11.1895,74.1587H184.2964l15.46869-83.7461h37.5254l15.377,83.7461Zm110.63621,0-.50631-72.7216H339.563l-13.53911,72.7216h-21.5864l-13.4678-72.7216h-.3818l-.4893,72.7216h-21.3965l1.8531-83.7461h34.4082l10.019,62.2134h.4893l10.04-62.2134h34.3926l1.84771,83.7461Zm100.73389-16.2285c-2.3017,16.2227-18.1924,19.0523-29.42189,19.0523-18.64991,0-30.18451-7.9668-30.18451-24.1914l.0117-6.6162H404.167l.01849,8.2426c0,4.4756,3.1583,7.2168,8.0264,7.2168,4.3467,0,6.8906-1.7475,7.7725-5.331a10.61859,10.61859,0,0,0-.1455-5.9429c-4.1592-10.416-33.5103-15.5186-37.0782-32.4165a28.19912,28.19912,0,0,1-.2036-11.1914c2.4825-15.3174,17.1841-18.5015,29.0142-18.5015,10.585,0,18.2891,2.3115,22.9082,6.9307,3.4453,3.4507,5.1904,8.1831,5.1904,14.0703v6.0425H418.542v-5.3306c0-4.5639-2.83111-7.207-7.38481-7.207-4.04,0-6.4843,1.7954-7.2783,5.3286a10.15483,10.15483,0,0,0,.1035,4.2109c2.2598,9.2862,33.6582,14.9624,37.0957,32.0235A40.94559,40.94559,0,0,1,441.16989,159.8281Zm78.25-7.6059c.0313,1.5708-.123,4.7075-.207,5.5112-1.2891,13.7998-11.1563,20.813-29.2578,20.813-18.1699,0-28.0449-7.0132-29.3262-20.813-.08789-.8037-.2451-3.9404-.207-5.5V92.2915h21.6152V154.125a15.87256,15.87256,0,0,0,.1836,3.1172c.2686,1.3755,1.6348,5.8393,7.7344,5.8393,6.081,0,7.4512-4.4638,7.7344-5.8261a20.16411,20.16411,0,0,0,.1923-3.1304V92.2915h21.5381Zm93.128,22.9824H582.46969l-20.1875-66.3355h-.3379l1.1202,66.3355h-20.9629V92.3105h31.3369l18.6611,63.7232h.4375l-1.1055-63.7232h21.11629Z"/></svg>