<?xml version="1.0" encoding="utf-8"?>
<!-- Generator: Adobe Illustrator 23.0.3, SVG Export Plug-In . SVG Version: 6.00 Build 0)  -->
<svg version="1.1" id="Layer_1" xmlns="http://www.w3.org/2000/svg" xmlns:xlink="http://www.w3.org/1999/xlink" x="0px" y="0px"
	 viewBox="0 0 400 245" style="enable-background:new 0 0 400 245;" xml:space="preserve">
<style type="text/css">
	.st0{fill:#00A86B;}
	.st1{fill:#038754;}
</style>
<g>
	<g>
		<g>
			<path class="st0" d="M79.92,171.98l-57.13-15.54V88.45l57.05-15.42L79.92,171.98z M31.7,149.47l37.15,7.97V87.51L31.7,95.45
				V149.47z"/>
		</g>
		<g>
			<path class="st0" d="M56.49,188.64l-54.79-20V76.36l54.79-20V79.3V188.64z M11.46,163.22l34.09,10.58V71.2L11.46,81.78V163.22z"
				/>
		</g>
		<polygon class="st1" points="56.49,90.15 61.89,88.99 61.89,77.88 56.49,79.34 		"/>
		<polygon class="st1" points="56.49,165.6 61.89,167.07 61.89,155.94 56.49,154.78 		"/>
	</g>
	<g>
		<path d="M137.11,116.57c-10.67-1.55-12.73-4.04-12.73-9.03c0-4.73,3.61-8.09,10.58-8.09c6.96,0,10.64,2.7,11.81,8.97l10.06-2.74
			c-2.17-9.81-9.8-14.83-21.88-14.83c-12.82,0-21.42,7.57-21.42,17.64c0,11.53,6.97,16,21.68,17.98c9.98,1.63,12.82,3.79,12.82,9.46
			c0,5.68-4.82,9.46-11.62,9.46c-10.41,0-12.91-5.16-13.68-11.36h-0.03l-10.6,2.88c1.78,10.08,8.97,17.08,24.32,17.08
			c13.59,0,22.63-8.35,22.63-19.02C159.05,122.68,151.57,118.55,137.11,116.57z"/>
		<path d="M185.22,107.19c-12.82,0-22.37,9.29-22.37,23.23v0.69c0,14.2,9.55,22.89,22.8,22.89c11.53,0,19.19-5.16,20.65-14.63
			h-10.07c-0.77,4.39-4.05,6.88-10.33,6.88c-7.74,0-12.05-4.82-12.39-13.34h32.96v-3.01C206.47,113.82,196.4,107.19,185.22,107.19z
			 M173.69,125.95c1.03-6.97,5.25-11.19,11.53-11.19c6.45,0,10.41,3.44,10.92,11.19H173.69z"/>
		<path d="M234.18,146c-7.66,0-12.48-5.16-12.48-14.97v-0.69c0-9.29,5.08-14.8,12.22-14.8c5.5,0,9.46,2.5,10.32,8.52h10.07
			c-1.21-12.39-10.59-16.86-20.57-16.86c-12.56,0-22.71,9.03-22.71,23.32v0.69c0,14.37,9.81,22.8,22.71,22.8
			c12.22,0,20.05-7.31,20.82-17.64h-9.55C244.42,142.73,239.68,146,234.18,146z"/>
		<path d="M271.04,139.63v-23.66h9.9v-7.83h-9.9V93.68l-10.41,2.83v44.07c0,8.52,4.65,13.34,13.6,13.34c3.18,0,5.42-0.52,7.05-1.12
			v-8.26c-1.46,0.6-3.01,0.86-5.08,0.86C272.93,145.4,271.04,143.59,271.04,139.63z"/>
		<rect x="289.2" y="108.14" width="10.41" height="45"/>
		<path d="M328.95,107.19c-13.25,0-23.15,9.29-23.15,23.23v0.69c0,13.68,9.81,22.89,23.06,22.89c13.25,0,23.14-9.12,23.14-23.15
			v-0.69C352.01,116.4,342.11,107.19,328.95,107.19z M341.34,130.94c0,9.21-4.65,14.97-12.39,14.97c-7.92,0-12.48-5.76-12.48-14.97
			v-0.69c0-9.29,4.73-14.88,12.48-14.88c7.74,0,12.39,5.68,12.39,14.97V130.94z"/>
		<path d="M382.9,107.19c-7.4,0-12.39,3.7-14.54,8.09v-7.14h-10.41v45h10.41v-26.5c0-7.14,4.73-10.76,10.58-10.76
			c6.19,0,8.95,3.1,8.95,9.9v27.36h10.41v-28.31C398.3,112.44,391.94,107.19,382.9,107.19z"/>
		<rect x="289.2" y="91.56" width="10.41" height="10.41"/>
	</g>
</g>
</svg>
