<svg xmlns="http://www.w3.org/2000/svg" role="img" viewBox="-16.86 -13.86 1032.72 244.72"><title>Secure Device Onboard logo</title><path fill="none" d="M689.96 80.26V21h-22.93v57.77l18.1 4.47 4.83-2.98zM539.34 21h-19.22v28.15l19.22-4.59V21zM396.52 169.26v23.04l17.86 4.47 5.2-3.35v-25.04l-2.68-2.45-20.38 3.33zm211.37-6.59l19.22-4.58v-23.56h-19.22v28.14zm-141.57 27.28l8.31 5.45 14.37-7.44v-53.43h-22.68v55.42zm-53.68-55.42h-16.12v22.07l16.12-2.6v-19.47zm-157.2 55.42l8.31 5.45 14.38-7.44v-53.43h-22.69v55.42zm281.17-48.35v20.95h22.68v-22.93l-8.3-5.46-14.38 7.44zm139.47 50.7l18.1 4.47 4.83-2.98v-59.26h-22.93v57.77z"/><path fill="#9164cc" d="M242.92 85.47l16.86 11a6.87 6.87 0 0 0 3.72.87 8.48 8.48 0 0 0 3.6-.87l20.83-11.78a13.09 13.09 0 0 0 3.34-2.85 6.09 6.09 0 0 0 1.49-4.46V59.93a13.28 13.28 0 0 0-1.61-6.51 10.68 10.68 0 0 0-4.46-4.4l-25.91-13.51a6.5 6.5 0 0 1-2.86-5.21V21h17.67v12.15h16.06V14.8a8.48 8.48 0 0 0-1.87-5.08 8.88 8.88 0 0 0-2.49-2.11 7.37 7.37 0 0 0-3.72-.86H250a7.43 7.43 0 0 0-3.73.86 9 9 0 0 0-2.48 2.11 8 8 0 0 0-1.43 2.61 8.22 8.22 0 0 0-.44 2.47v20.83a15.81 15.81 0 0 0 1.3 6.08 9.47 9.47 0 0 0 4.9 4.83l24.8 12.52a10.4 10.4 0 0 1 2.79 2.94 6.86 6.86 0 0 1 1.06 3.78v8.68l-13 7.43-8.3-5.45V59.19h-16V78.9a8 8 0 0 0 .93 3.84 7 7 0 0 0 2.52 2.73zm70.42 8.8a7.26 7.26 0 0 0 3.72.87h38.68v-15H325v-24.3h28.27v-15H325V21.75h30.75v-15H309v80.33a8.24 8.24 0 0 0 .43 2.48 8 8 0 0 0 1.43 2.6 8.81 8.81 0 0 0 2.48 2.11zm80.83 2.98a8.43 8.43 0 0 0 3.59-.87l22.07-12.77-7.69-11.78-17.72 10-8.31-5.45V21h17.23v12.15h14.38L419 6.75h-40.82a7.37 7.37 0 0 0-3.72.86A8.84 8.84 0 0 0 372 9.72a8 8 0 0 0-1.43 2.61 8.18 8.18 0 0 0-.43 2.47v64a8 8 0 0 0 .93 3.85 7 7 0 0 0 2.54 2.73l16.86 11a6.87 6.87 0 0 0 3.7.87zm63.35-.87L472.39 87h1l.37 8.18h13.51V6.75h-16v65.58l-17.11 9.42-4.59-3v-72h-16v74.5a8 8 0 0 0 .93 3.85 7.08 7.08 0 0 0 2.54 2.72l13.14 8.56a7.05 7.05 0 0 0 4 .87 8 8 0 0 0 3.34-.87zm69.1-35.23l12.72 15.27.66 18.72h14.75l-.62-21.7a12.33 12.33 0 0 0-3.35-7.93l-7.84-8.27 4.37-1a10.2 10.2 0 0 0 6.14-3.59 8.25 8.25 0 0 0 1.92-4.72V14.8a8.5 8.5 0 0 0-.43-2.47 8.4 8.4 0 0 0-1.43-2.61A9 9 0 0 0 551 7.61a7.37 7.37 0 0 0-3.72-.86l-43.14.62v87.77h16V62.61zM520.12 21h19.22v23.56l-19.22 4.58zm98.93 59.14h-30.74v-24.3h28.26v-15h-28.26V21.75h30.74v-15h-46.74v80.33a8.28 8.28 0 0 0 .44 2.48 8 8 0 0 0 1.42 2.6 9 9 0 0 0 2.48 2.11 7.31 7.31 0 0 0 3.72.87h38.68zm46.37 11.15L684.14 97a11.87 11.87 0 0 0 2.23.25 10.1 10.1 0 0 0 5.33-1.12l10.78-6.57a7.07 7.07 0 0 0 2.52-2.73 8.08 8.08 0 0 0 1-3.83V13.81A7.38 7.38 0 0 0 704 9a6.93 6.93 0 0 0-5.64-2.29L651 7.37v87.77h13.15zM667 21h23v59.26l-4.83 3L667 78.77zm55.07 66.08a8.24 8.24 0 0 0 .43 2.48 8 8 0 0 0 1.43 2.6 8.81 8.81 0 0 0 2.48 2.11 7.26 7.26 0 0 0 3.72.87h38.68v-15h-30.75v-24.3h28.27v-15h-28.27V21.75h30.75v-15h-46.74zm98.18-12.64l-13 7.43-8.31-5.45V6.75h-16v72a8 8 0 0 0 .93 3.85 7 7 0 0 0 2.54 2.73l16.86 11a7.05 7.05 0 0 0 4 .87 8 8 0 0 0 3.34-.87l20.8-11.73a13.12 13.12 0 0 0 3.35-2.85 6.15 6.15 0 0 0 1.49-4.46V6.75h-16zm32.73-67.69h15.99v88.39h-15.99zm56.9 75.12l-8.3-5.45V21h17.23v12.15h14.38l1.24-26.4h-40.78a7.37 7.37 0 0 0-3.72.86 8.84 8.84 0 0 0-2.48 2.11 8 8 0 0 0-1.45 2.61 8.18 8.18 0 0 0-.43 2.47v64a8 8 0 0 0 .93 3.85 7 7 0 0 0 2.54 2.73l16.86 11a6.87 6.87 0 0 0 3.72.87 8.47 8.47 0 0 0 3.59-.87l22.09-12.77-7.69-11.78zm86.17-60.12v-15h-46.74v80.33a8.24 8.24 0 0 0 .43 2.48 7.86 7.86 0 0 0 1.43 2.6 8.81 8.81 0 0 0 2.48 2.11 7.25 7.25 0 0 0 3.71.87h38.69v-15H965.3v-24.3h28.27v-15H965.3V21.75z"/><path fill="#201747" d="M292.27 123.25a9.13 9.13 0 0 0-2.48-2.11 7.42 7.42 0 0 0-3.72-.86h-38.56a7.37 7.37 0 0 0-3.72.86 9 9 0 0 0-2.48 2.11 8.49 8.49 0 0 0-1.86 5.08v64a8 8 0 0 0 .93 3.85 7.11 7.11 0 0 0 2.54 2.73l16.86 11a6.87 6.87 0 0 0 3.72.87 8.48 8.48 0 0 0 3.6-.87l22.19-11.78a13.12 13.12 0 0 0 3.35-2.85 6.1 6.1 0 0 0 1.48-4.46v-62.49a8.39 8.39 0 0 0-1.85-5.08zM278.13 188l-14.38 7.44-8.3-5.45v-55.46h22.68zm83.68-64.75a9 9 0 0 0-2.48-2.11 7.37 7.37 0 0 0-3.72-.86h-10.53a15.29 15.29 0 0 0-8.93 2.85l-9.42 6.32h-.5v-9.17h-15.87v88.39h16v-64.22l16.11-9.92h5.21v74.14h16v-80.34a8.32 8.32 0 0 0-1.86-5.08zm65.46 31.37v-26.29a8.49 8.49 0 0 0-1.86-5.08 9 9 0 0 0-2.48-2.11 7.37 7.37 0 0 0-3.72-.86l-38.68.62v87.77h16v-3.35c2 .58 4.48 1.36 7.5 2.36s6.14 1.94 9.36 2.85a12 12 0 0 0 2.24.25 10.1 10.1 0 0 0 5.33-1.12l10.78-6.57a7 7 0 0 0 2.54-2.73 8 8 0 0 0 .93-3.84v-29.63a8.56 8.56 0 0 0-2.11-5.95zm-30.75-20.09h16.12V154l-16.12 2.6zm23.06 58.89l-5.2 3.35-17.86-4.47v-23l20.38-3.33 2.68 2.45zm83.56-70.17a9 9 0 0 0-2.48-2.11 7.37 7.37 0 0 0-3.72-.86h-38.56a7.42 7.42 0 0 0-3.72.86 9.13 9.13 0 0 0-2.48 2.11 8.39 8.39 0 0 0-1.85 5.08v64a8 8 0 0 0 .93 3.85 7 7 0 0 0 2.54 2.73l16.86 11a6.87 6.87 0 0 0 3.72.87 8.47 8.47 0 0 0 3.59-.87l22.19-11.78a13.12 13.12 0 0 0 3.35-2.85 6.15 6.15 0 0 0 1.49-4.46v-62.49a8.49 8.49 0 0 0-1.86-5.08zM489 188l-14.37 7.44-8.31-5.44v-55.47H489zm82.82-58l-16.86-11a6.9 6.9 0 0 0-3.72-.87 8.48 8.48 0 0 0-3.6.87l-22.19 11.78a13.12 13.12 0 0 0-3.35 2.85 6.1 6.1 0 0 0-1.48 4.46v70.67h16V177.3h22.68v31.37h16v-72.15a8 8 0 0 0-.93-3.85 7.08 7.08 0 0 0-2.55-2.67zm-12.53 32.6h-22.68v-21l14.39-7.44 8.3 5.45zm81.95-39.35a9 9 0 0 0-2.48-2.11 7.37 7.37 0 0 0-3.72-.86l-43.14.62v87.77h16v-32.53l6.49-1.46L627.11 190l.62 18.72h14.75l-.62-21.7a12.33 12.33 0 0 0-3.35-7.93l-7.84-8.27 4.37-1a10.23 10.23 0 0 0 6.14-3.59 8.25 8.25 0 0 0 1.92-4.72v-33.1a8.57 8.57 0 0 0-.43-2.48 8.46 8.46 0 0 0-1.43-2.68zm-14.13 34.84l-19.22 4.58v-28.14h19.22zm80.33-37.81l-47.36.62v87.77h13.14l1.24-3.85 18.72 5.71a12 12 0 0 0 2.24.25 10.1 10.1 0 0 0 5.33-1.12l10.78-6.57a7 7 0 0 0 2.54-2.73 8 8 0 0 0 .93-3.84v-69.18a7.36 7.36 0 0 0-1.92-4.77 6.93 6.93 0 0 0-5.64-2.29zM699 193.79l-4.83 3-18.1-4.47v-57.79H699z"/><path fill="#10cfc9" d="M188.27 80.56a28.94 28.94 0 0 0-3.86-36.23 28 28 0 0 0-20.56-8.51 27.5 27.5 0 0 0-18.85 7 58 58 0 0 0-21.29-26.12 56.32 56.32 0 0 0-32.54-10 56 56 0 0 0-41.11 17A56 56 0 0 0 33 64.89c0 1.14.07 2.76.22 4.88A50.06 50.06 0 0 0 12 88.34a50.68 50.68 0 0 0 6.87 63.37 49 49 0 0 0 35.94 14.94h32.37v44.78h51.76v-44.78h39.45A43.63 43.63 0 0 0 222 123a42.2 42.2 0 0 0-9.54-27.2 42.63 42.63 0 0 0-24.19-15.24zM132 166.65H94v-11.11a19 19 0 0 1 38 0zm-24.08 31.84l2.29-9.59a5.07 5.07 0 1 1 5.56 0l2.29 9.59zm27.46-72.3v16.63a25.72 25.72 0 0 0-44.78 0v-16.63H61.21l51.77-63 51.77 63z"/></svg>