<svg id="Layer_1" data-name="Layer 1" xmlns="http://www.w3.org/2000/svg" viewBox="0 0 1000 218.18"><defs><style>.cls-1{fill:none;}.cls-2{fill:#9164cc;}.cls-3{fill:#201747;}.cls-4{fill:#10cfc9;}</style></defs><polygon class="cls-1" points="689.96 80.26 689.96 21 667.03 21 667.03 78.77 685.13 83.24 689.96 80.26"/><polygon class="cls-1" points="539.34 21 520.12 21 520.12 49.15 539.34 44.56 539.34 21"/><polygon class="cls-1" points="396.52 169.26 396.52 192.3 414.38 196.77 419.58 193.42 419.58 168.38 416.9 165.93 396.52 169.26"/><polygon class="cls-1" points="607.89 162.67 627.11 158.09 627.11 134.53 607.89 134.53 607.89 162.67"/><polygon class="cls-1" points="466.32 189.95 474.63 195.4 489 187.96 489 134.53 466.32 134.53 466.32 189.95"/><polygon class="cls-1" points="412.64 134.53 396.52 134.53 396.52 156.6 412.64 154 412.64 134.53"/><polygon class="cls-1" points="255.44 189.95 263.75 195.4 278.13 187.96 278.13 134.53 255.44 134.53 255.44 189.95"/><polygon class="cls-1" points="536.61 141.6 536.61 162.55 559.29 162.55 559.29 139.62 550.99 134.16 536.61 141.6"/><polygon class="cls-1" points="676.08 192.3 694.18 196.77 699.01 193.79 699.01 134.53 676.08 134.53 676.08 192.3"/><path class="cls-2" d="M242.92,85.47l16.86,11a6.87,6.87,0,0,0,3.72.87,8.48,8.48,0,0,0,3.6-.87l20.83-11.78a13.09,13.09,0,0,0,3.34-2.85,6.09,6.09,0,0,0,1.49-4.46V59.93a13.28,13.28,0,0,0-1.61-6.51,10.68,10.68,0,0,0-4.46-4.4L260.78,35.51a6.5,6.5,0,0,1-2.86-5.21V21h17.67V33.15h16.06V14.8a8.48,8.48,0,0,0-1.87-5.08,8.88,8.88,0,0,0-2.49-2.11,7.37,7.37,0,0,0-3.72-.86H250a7.43,7.43,0,0,0-3.73.86,9,9,0,0,0-2.48,2.11,8,8,0,0,0-1.43,2.61,8.22,8.22,0,0,0-.44,2.47V35.63a15.81,15.81,0,0,0,1.3,6.08,9.47,9.47,0,0,0,4.9,4.83l24.8,12.52A10.4,10.4,0,0,1,275.71,62a6.86,6.86,0,0,1,1.06,3.78v8.68l-13,7.43-8.3-5.45V59.19h-16V78.9a8,8,0,0,0,.93,3.84A7,7,0,0,0,242.92,85.47Z"/><path class="cls-2" d="M313.34,94.27a7.26,7.26,0,0,0,3.72.87h38.68v-15H325V55.84h28.27v-15H325V21.75h30.75v-15H309V87.08a8.24,8.24,0,0,0,.43,2.48,8,8,0,0,0,1.43,2.6A8.81,8.81,0,0,0,313.34,94.27Z"/><path class="cls-2" d="M394.17,97.25a8.43,8.43,0,0,0,3.59-.87l22.07-12.77-7.69-11.78-17.72,10-8.31-5.45V21h17.23V33.15h14.38L419,6.75H378.18a7.37,7.37,0,0,0-3.72.86A8.84,8.84,0,0,0,372,9.72a8,8,0,0,0-1.43,2.61,8.18,8.18,0,0,0-.43,2.47v64a8,8,0,0,0,.93,3.85,7,7,0,0,0,2.54,2.73l16.86,11A6.87,6.87,0,0,0,394.17,97.25Z"/><path class="cls-2" d="M457.52,96.38,472.39,87h1l.37,8.18h13.51V6.75h-16V72.33l-17.11,9.42-4.59-3v-72h-16v74.5a8,8,0,0,0,.93,3.85,7.08,7.08,0,0,0,2.54,2.72l13.14,8.56a7.05,7.05,0,0,0,4,.87A8,8,0,0,0,457.52,96.38Z"/><path class="cls-2" d="M526.62,61.15l12.72,15.27L540,95.14h14.75l-.62-21.7a12.33,12.33,0,0,0-3.35-7.93l-7.84-8.27,4.37-1a10.2,10.2,0,0,0,6.14-3.59,8.25,8.25,0,0,0,1.92-4.72V14.8a8.5,8.5,0,0,0-.43-2.47,8.4,8.4,0,0,0-1.43-2.61A9,9,0,0,0,551,7.61a7.37,7.37,0,0,0-3.72-.86l-43.14.62V95.14h16V62.61ZM520.12,21h19.22V44.56l-19.22,4.58Z"/><path class="cls-2" d="M619.05,80.14H588.31V55.84h28.26v-15H588.31V21.75h30.74v-15H572.31V87.08a8.28,8.28,0,0,0,.44,2.48,8,8,0,0,0,1.42,2.6,9,9,0,0,0,2.48,2.11,7.31,7.31,0,0,0,3.72.87h38.68Z"/><path class="cls-2" d="M665.42,91.29,684.14,97a11.87,11.87,0,0,0,2.23.25,10.1,10.1,0,0,0,5.33-1.12l10.78-6.57A7.07,7.07,0,0,0,705,86.83,8.08,8.08,0,0,0,706,83V13.81A7.38,7.38,0,0,0,704,9a6.93,6.93,0,0,0-5.64-2.29L651,7.37V95.14h13.15ZM667,21H690V80.26l-4.83,3L667,78.77Z"/><path class="cls-2" d="M722.07,87.08a8.24,8.24,0,0,0,.43,2.48,8,8,0,0,0,1.43,2.6,8.81,8.81,0,0,0,2.48,2.11,7.26,7.26,0,0,0,3.72.87h38.68v-15H738.06V55.84h28.27v-15H738.06V21.75h30.75v-15H722.07Z"/><path class="cls-2" d="M820.25,74.44l-13,7.43-8.31-5.45V6.75h-16v72a8,8,0,0,0,.93,3.85,7,7,0,0,0,2.54,2.73l16.86,11a7.05,7.05,0,0,0,4,.87,8,8,0,0,0,3.34-.87L831.41,84.6a13.12,13.12,0,0,0,3.35-2.85,6.15,6.15,0,0,0,1.49-4.46V6.75h-16Z"/><rect class="cls-2" x="852.98" y="6.75" width="15.99" height="88.39"/><path class="cls-2" d="M909.88,81.87l-8.3-5.45V21h17.23V33.15h14.38l1.24-26.4H893.65a7.37,7.37,0,0,0-3.72.86,8.84,8.84,0,0,0-2.48,2.11A8,8,0,0,0,886,12.33a8.18,8.18,0,0,0-.43,2.47v64a8,8,0,0,0,.93,3.85,7,7,0,0,0,2.54,2.73l16.86,11a6.87,6.87,0,0,0,3.72.87,8.47,8.47,0,0,0,3.59-.87L935.3,83.61l-7.69-11.78Z"/><path class="cls-2" d="M996.05,21.75v-15H949.31V87.08a8.24,8.24,0,0,0,.43,2.48,7.86,7.86,0,0,0,1.43,2.6,8.81,8.81,0,0,0,2.48,2.11,7.25,7.25,0,0,0,3.71.87h38.69v-15H965.3V55.84h28.27v-15H965.3V21.75Z"/><path class="cls-3" d="M292.27,123.25a9.13,9.13,0,0,0-2.48-2.11,7.42,7.42,0,0,0-3.72-.86H247.51a7.37,7.37,0,0,0-3.72.86,9,9,0,0,0-2.48,2.11,8.49,8.49,0,0,0-1.86,5.08v64a8,8,0,0,0,.93,3.85,7.11,7.11,0,0,0,2.54,2.73l16.86,11a6.87,6.87,0,0,0,3.72.87,8.48,8.48,0,0,0,3.6-.87l22.19-11.78a13.12,13.12,0,0,0,3.35-2.85,6.1,6.1,0,0,0,1.48-4.46V128.33a8.39,8.39,0,0,0-1.85-5.08ZM278.13,188l-14.38,7.44-8.3-5.45V134.53h22.68Z"/><path class="cls-3" d="M361.81,123.25a9,9,0,0,0-2.48-2.11,7.37,7.37,0,0,0-3.72-.86H345.08a15.29,15.29,0,0,0-8.93,2.85l-9.42,6.32h-.5v-9.17H310.36v88.39h16V144.45l16.11-9.92h5.21v74.14h16V128.33a8.32,8.32,0,0,0-1.86-5.08Z"/><path class="cls-3" d="M427.27,154.62V128.33a8.49,8.49,0,0,0-1.86-5.08,9,9,0,0,0-2.48-2.11,7.37,7.37,0,0,0-3.72-.86l-38.68.62v87.77h16v-3.35c2,.58,4.48,1.36,7.5,2.36s6.14,1.94,9.36,2.85a12,12,0,0,0,2.24.25,10.1,10.1,0,0,0,5.33-1.12l10.78-6.57a7,7,0,0,0,2.54-2.73,8,8,0,0,0,.93-3.84V166.89a8.56,8.56,0,0,0-2.11-5.95Zm-30.75-20.09h16.12V154l-16.12,2.6Zm23.06,58.89-5.2,3.35-17.86-4.47v-23l20.38-3.33,2.68,2.45Z"/><path class="cls-3" d="M503.14,123.25a9,9,0,0,0-2.48-2.11,7.37,7.37,0,0,0-3.72-.86H458.38a7.42,7.42,0,0,0-3.72.86,9.13,9.13,0,0,0-2.48,2.11,8.39,8.39,0,0,0-1.85,5.08v64a8,8,0,0,0,.93,3.85,7,7,0,0,0,2.54,2.73l16.86,11a6.87,6.87,0,0,0,3.72.87,8.47,8.47,0,0,0,3.59-.87l22.19-11.78a13.12,13.12,0,0,0,3.35-2.85,6.15,6.15,0,0,0,1.49-4.46V128.33a8.49,8.49,0,0,0-1.86-5.08ZM489,188l-14.37,7.44L466.32,190V134.53H489Z"/><path class="cls-3" d="M571.82,130l-16.86-11a6.9,6.9,0,0,0-3.72-.87,8.48,8.48,0,0,0-3.6.87l-22.19,11.78a13.12,13.12,0,0,0-3.35,2.85,6.1,6.1,0,0,0-1.48,4.46v70.67h16V177.3h22.68v31.37h16V136.52a8,8,0,0,0-.93-3.85A7.08,7.08,0,0,0,571.82,130Zm-12.53,32.6H536.61v-21L551,134.16l8.3,5.45Z"/><path class="cls-3" d="M641.24,123.25a9,9,0,0,0-2.48-2.11,7.37,7.37,0,0,0-3.72-.86l-43.14.62v87.77h16V176.14l6.49-1.46L627.11,190l.62,18.72h14.75l-.62-21.7a12.33,12.33,0,0,0-3.35-7.93l-7.84-8.27,4.37-1a10.23,10.23,0,0,0,6.14-3.59,8.25,8.25,0,0,0,1.92-4.72v-33.1a8.57,8.57,0,0,0-.43-2.48A8.46,8.46,0,0,0,641.24,123.25Zm-14.13,34.84-19.22,4.58V134.53h19.22Z"/><path class="cls-3" d="M707.44,120.28l-47.36.62v87.77h13.14l1.24-3.85,18.72,5.71a12,12,0,0,0,2.24.25,10.1,10.1,0,0,0,5.33-1.12l10.78-6.57a7,7,0,0,0,2.54-2.73,8,8,0,0,0,.93-3.84V127.34a7.36,7.36,0,0,0-1.92-4.77A6.93,6.93,0,0,0,707.44,120.28ZM699,193.79l-4.83,3-18.1-4.47V134.53H699Z"/><path class="cls-4" d="M188.27,80.56a28.94,28.94,0,0,0-3.86-36.23,28,28,0,0,0-20.56-8.51,27.5,27.5,0,0,0-18.85,7,58,58,0,0,0-21.29-26.12,56.32,56.32,0,0,0-32.54-10,56,56,0,0,0-41.11,17A56,56,0,0,0,33,64.89c0,1.14.07,2.76.22,4.88A50.06,50.06,0,0,0,12,88.34a50.68,50.68,0,0,0,6.87,63.37,49,49,0,0,0,35.94,14.94H87.18v44.78h51.76V166.65h39.45A43.63,43.63,0,0,0,222,123a42.2,42.2,0,0,0-9.54-27.2A42.63,42.63,0,0,0,188.27,80.56ZM132,166.65H94V155.54a19,19,0,0,1,38,0Zm-24.08,31.84,2.29-9.59a5.07,5.07,0,1,1,5.56,0l2.29,9.59Zm27.46-72.3v16.63a25.72,25.72,0,0,0-44.78,0V126.19H61.21l51.77-63,51.77,63Z"/></svg>