<?xml version="1.0" encoding="utf-8"?>
<!-- Generator: Adobe Illustrator 21.0.0, SVG Export Plug-In . SVG Version: 6.00 Build 0)  -->
<svg version="1.1" id="图层_1" xmlns="http://www.w3.org/2000/svg" xmlns:xlink="http://www.w3.org/1999/xlink" x="0px" y="0px"
	 viewBox="0 0 800 600" style="enable-background:new 0 0 800 600;" xml:space="preserve">
<style type="text/css">
	.st0{fill:#86C240;}
	.st1{fill:#2E4DA1;}
	.st2{fill:#3D3B3E;}
	.st3{fill:#646464;}
</style>
<g>
	
		<ellipse transform="matrix(0.9976 -6.872094e-02 6.872094e-02 0.9976 -18.165 29.458)" class="st0" cx="419.1" cy="278.7" rx="8.3" ry="8.3"/>
	<path class="st0" d="M415.5,248.4c0,0-1.1-1-3.3-2.3c-2.7-1.6-5.6-2.7-8.7-3.4c-0.8-0.2-1.5-0.3-2.3-0.4c-0.4-0.1-0.8-0.1-1.3-0.2
		c-0.2,0-1.4-0.1-1.8-0.1c-0.2,0-1,0-1.1,0c-0.4,0-0.7,0-1.1,0c-0.6,0-1.2,0-1.9,0.1c-13.7,1.6-24.1,12.5-25.4,25.7
		c0,0.3,0,0.7-0.1,1c0,0.5-0.1,1-0.1,1.6c0,0.7,0,1.4,0.1,2.1c0,0.2,0,0.4,0,0.5c0.6,6.5,3.4,12.4,7.7,16.9
		c-1.4-2.3-2.4-4.9-2.8-7.7v0c-1.7-11.6,6.2-22.4,17.8-24.1c5.2-0.8,10.3,0.4,14.4,3l0,0c1.3,1,3,1.6,4.8,1.6c4.5,0,8-3.6,8-8.1
		C418.6,252.1,417.7,250.4,415.5,248.4z"/>
	<path class="st1" d="M407.8,299.8l-1.6-2.2l-0.5-0.8v0c-0.1,0-0.1,0.1-0.2,0.1c-2.4,1.4-5,2.4-7.9,2.8c-2.1,0.3-4.2,0.3-6.4-0.1
		c-0.3-0.1-1.8-0.3-2.3-0.4c-16.1-3.3-26.5-19-23.2-35.1c1.8-8.7,7.2-15.7,14.3-19.8c-11.4,4.9-20.2,15.2-22.3,28.3
		c-3.4,20.4,10.4,39.7,30.9,43.1c6.2,1,12.2,0.5,17.8-1.4c3.1-1,6.1-2.5,8.8-4.3L407.8,299.8z"/>
</g>
<path class="st2" d="M207.8,286.7c-0.1,0.4-0.2,1.2-0.2,2.3c0,0.7,0.7,1.5,2,2.4s3.1,1.7,5.2,2.5c2.1,0.8,4.6,1.5,7.3,2
	c2.7,0.5,5.5,0.8,8.3,0.8c5.4,0,9.4-0.6,11.9-1.9s3.8-3.1,3.8-5.5c0-1.3-1.1-2.2-3.3-2.8c-2.2-0.5-5-1-8.3-1.3
	c-3.3-0.3-6.9-0.7-10.7-1.1c-3.8-0.4-7.4-1.1-10.7-2.2c-3.3-1-6.1-2.6-8.3-4.5c-2.2-2-3.3-4.7-3.3-8.2c0-2.7,0.6-5.2,1.9-7.5
	c1.3-2.2,3-4.1,5.3-5.7c2.3-1.6,5-2.8,8.3-3.7c3.2-0.9,6.8-1.4,10.8-1.4c3.7,0,7.1,0.2,10.3,0.7c3.2,0.5,6,1,8.4,1.6
	c2.4,0.6,4.5,1.1,6.2,1.6c1.7,0.5,2.8,0.7,3.6,0.7c0.7,0,1.3-0.2,1.7-0.5c0.4-0.3,0.8-0.7,1.2-1.1l1.2,0.4l-7.5,15l-1.3-0.6v-1.2
	c0-0.6-0.7-1.3-2.1-2c-1.4-0.7-3.2-1.3-5.3-1.8c-2.2-0.5-4.6-1-7.2-1.4c-2.7-0.4-5.3-0.5-7.8-0.5c-4.7,0-8,0.5-9.8,1.6
	c-1.9,1.1-2.8,2.2-2.8,3.5c0,1.2,0.6,2.1,1.9,2.8c1.3,0.6,3,1.1,5.1,1.4c2.1,0.3,4.5,0.5,7.1,0.7c2.7,0.2,5.4,0.5,8.2,0.8
	c2.8,0.4,5.5,0.9,8.2,1.5s5,1.6,7.1,2.9c2.1,1.3,3.8,2.9,5.1,5c1.3,2.1,1.9,4.6,1.9,7.7c0,2.4-0.5,4.7-1.5,7c-1,2.3-2.6,4.4-5,6.2
	c-2.3,1.8-5.5,3.3-9.4,4.4c-3.9,1.1-8.8,1.6-14.6,1.6c-4.5,0-8.4-0.2-11.7-0.6c-3.3-0.4-6.1-1-8.4-1.6c-2.3-0.6-4.1-1.2-5.5-1.7
	c-1.3-0.5-2.3-0.8-3-0.8c-0.4,0-0.8,0.1-1.1,0.4c-0.3,0.3-0.7,0.6-1,1l-1.3-0.3l8-19.2L207.8,286.7z"/>
<path class="st2" d="M338.7,305.3c0,0.5,0.2,0.9,0.5,1.2c0.3,0.3,1.2,0.6,2.5,0.7v1.3h-22.3v-1.3c1.4-0.1,2.2-0.4,2.5-0.7
	c0.3-0.3,0.5-0.7,0.5-1.2v-20h-28.1v20c0,0.5,0.2,0.9,0.5,1.2c0.3,0.3,1.2,0.6,2.5,0.7v1.3h-22.3v-1.3c1.4-0.1,2.2-0.4,2.5-0.7
	c0.3-0.3,0.5-0.7,0.5-1.2v-50.4c0-0.5-0.2-0.9-0.5-1.2c-0.3-0.3-1.2-0.6-2.5-0.7v-1.3h22.3v1.3c-1.4,0.1-2.2,0.4-2.5,0.7
	s-0.5,0.7-0.5,1.2v17.2h28.1v-17.2c0-0.5-0.2-0.9-0.5-1.2c-0.3-0.3-1.2-0.6-2.5-0.7v-1.3h22.3v1.3c-1.4,0.1-2.2,0.4-2.5,0.7
	c-0.3,0.3-0.5,0.7-0.5,1.2V305.3z"/>
<path class="st2" d="M458.8,305.3c0,0.5,0.2,0.9,0.5,1.2c0.3,0.3,1.2,0.6,2.5,0.7v1.3h-22.3v-1.3c1.4-0.1,2.2-0.4,2.5-0.7
	c0.3-0.3,0.5-0.7,0.5-1.2v-50.4c0-0.5-0.2-0.9-0.5-1.2c-0.3-0.3-1.2-0.6-2.5-0.7v-1.3h38.7c3.4,0,6.4,0.5,9,1.5
	c2.6,1,4.8,2.3,6.5,3.9c1.7,1.7,3,3.6,3.9,5.8c0.9,2.2,1.3,4.5,1.3,6.9c0,2.4-0.4,4.7-1.3,6.9c-0.9,2.2-2.2,4.1-3.9,5.7
	c-1.7,1.6-3.9,2.9-6.5,3.9c-2.6,1-5.6,1.5-9,1.5h-19.5V305.3z M475.3,276.2c3,0,5.2-0.5,6.6-1.5c1.4-1,2.1-2.7,2.1-5
	c0-2.1-0.7-3.6-2.1-4.5c-1.4-0.9-3.6-1.4-6.6-1.4h-16.4v12.4H475.3z"/>
<path class="st2" d="M554.3,288.2c-0.1-0.7-0.5-1.3-0.9-1.8c-0.5-0.5-1.2-0.7-2.3-0.7h-20.1v10.1h34.7c0.6,0,1-0.2,1.3-0.6
	c0.3-0.4,0.5-1.3,0.7-2.6h1.3v18.5h-1.3c-0.1-0.9-0.4-1.5-0.7-1.7s-0.7-0.3-1.3-0.3h-53.9v-1.3c1.4-0.1,2.2-0.4,2.5-0.7
	s0.5-0.7,0.5-1.2v-50.4c0-0.5-0.2-0.9-0.5-1.2s-1.2-0.6-2.5-0.7v-1.3h53.9c0.6,0,1-0.2,1.3-0.6c0.3-0.4,0.5-1.2,0.7-2.4h1.3v18.8
	h-1.3c-0.1-1.2-0.4-2-0.7-2.4c-0.3-0.4-0.7-0.6-1.3-0.6h-34.7v9H551c1.1,0,1.9-0.2,2.3-0.7c0.5-0.5,0.8-1.1,0.9-1.8h1.3v16.9H554.3z
	"/>
<path class="st2" d="M584.8,254.9c0-0.5-0.2-0.9-0.5-1.2c-0.3-0.3-1.2-0.6-2.5-0.7v-1.3h26v1.3c-1.2,0.1-2,0.2-2.4,0.5
	c-0.4,0.3-0.6,0.6-0.6,0.9c0,0.1,0.5,0.8,1.4,1.9c0.9,1.2,2.2,2.6,3.7,4.3c1.5,1.7,3.2,3.7,5.1,5.8c1.9,2.1,3.8,4.3,5.8,6.4
	c1.9,2.1,3.8,4.1,5.6,6.1s3.4,3.5,4.6,4.9v-28.9c0-1.2-0.8-1.9-2.3-1.9v-1.3h19.8v1.3c-1.4,0.1-2.2,0.4-2.5,0.7s-0.5,0.7-0.5,1.2
	v50.4c0,0.5,0.2,0.9,0.5,1.2c0.3,0.3,1.2,0.6,2.5,0.7v1.3h-20.5v-1.3c1,0,1.7-0.1,2-0.3c0.3-0.2,0.5-0.5,0.5-0.9
	c0-0.2-0.1-0.5-0.3-0.8c-0.2-0.3-0.7-0.9-1.4-1.7c-0.7-0.8-1.8-1.9-3.2-3.4c-1.4-1.5-3.3-3.5-5.6-5.9c-2.3-2.5-5.2-5.6-8.5-9.3
	c-3.4-3.7-7.5-8.2-12.2-13.6v33.9c0,0.5,0.2,0.9,0.5,1.2c0.3,0.3,1.2,0.6,2.5,0.7v1.3h-20.5v-1.3c1.4-0.1,2.2-0.4,2.5-0.7
	c0.3-0.3,0.5-0.7,0.5-1.2V254.9z"/>
<g>
	<path class="st3" d="M262.5,357v1.8h-22.7V357h9.7v-19.9l2,0.1v7.1h9.3v1.9h-9.3V357H262.5z"/>
	<path class="st3" d="M282.5,348.5c-0.3-0.3-0.6-0.6-1-1c-0.4-0.4-0.8-0.7-1.3-1c-0.4-0.3-0.9-0.7-1.3-1c-0.4-0.3-0.8-0.6-1.1-0.7
		l1-1.4c0.3,0.2,0.7,0.4,1.1,0.7c0.4,0.3,0.9,0.6,1.3,0.9c0.4,0.3,0.9,0.6,1.3,1c0.4,0.3,0.7,0.6,1,0.8L282.5,348.5z M282.4,350.9
		l0.8,0.3c-0.2,0.6-0.4,1.3-0.6,2.1c-0.3,0.8-0.5,1.6-0.8,2.5s-0.6,1.6-0.9,2.4c-0.3,0.8-0.6,1.4-0.8,2l-1.9-0.7
		c0.3-0.5,0.6-1.2,0.9-1.9s0.7-1.6,1-2.4s0.6-1.7,0.9-2.5s0.5-1.5,0.6-2.1L282.4,350.9z M283.6,342.8c-0.3-0.3-0.6-0.6-1-1
		c-0.4-0.3-0.8-0.7-1.2-1c-0.4-0.3-0.8-0.7-1.2-1s-0.7-0.5-1-0.7l1-1.4c0.3,0.2,0.6,0.4,1,0.7c0.4,0.3,0.8,0.6,1.2,0.9
		c0.4,0.3,0.8,0.6,1.2,1c0.4,0.3,0.7,0.6,0.9,0.8L283.6,342.8z M297.9,350.8c0,0.7-0.1,1.4-0.1,2.1c0,0.7,0,1.3-0.1,1.8h2.2v1.8
		h-2.2c0,0.1,0,0.2,0,0.3c0,0.1,0,0.1,0,0.2c0,0.6-0.1,1.1-0.2,1.5c-0.1,0.4-0.4,0.7-0.7,1c-0.3,0.2-0.7,0.4-1.3,0.5s-1.2,0.2-2,0.2
		l-1.6,0.1l-0.7-1.8l2.1-0.1c0.5,0,1-0.1,1.3-0.1c0.3-0.1,0.6-0.2,0.8-0.3c0.2-0.1,0.3-0.3,0.4-0.5s0.1-0.5,0.2-0.8v0h-11.1l0.6-5.7
		h-2V349h2.2l0.6-5.4c-0.2,0.3-0.4,0.6-0.6,0.8c-0.2,0.3-0.4,0.5-0.7,0.8l-1.4-1.3c0.5-0.5,1-1.1,1.4-1.6c0.5-0.6,0.9-1.2,1.3-1.8
		s0.8-1.3,1.1-1.9c0.3-0.6,0.6-1.2,0.9-1.8l1.8,0.4c-0.2,0.4-0.3,0.7-0.5,1.1c-0.2,0.4-0.4,0.8-0.6,1.1h10.9v1.7h-11.9
		c-0.3,0.4-0.5,0.8-0.8,1.2s-0.5,0.8-0.8,1.1h11.9c0,0.1,0,0.3,0,0.6s0,0.7-0.1,1.2s-0.1,1.1-0.1,1.7c0,0.6,0,1.3-0.1,2h2.8v1.7
		H297.9z M286.7,354.7h5.8c-0.2-0.2-0.4-0.5-0.7-0.7c-0.3-0.3-0.6-0.5-0.9-0.8c-0.3-0.2-0.6-0.5-0.9-0.7c-0.3-0.2-0.5-0.4-0.7-0.5
		l0.9-1.3h-3.1L286.7,354.7z M287.4,349h5.5c-0.2-0.2-0.4-0.4-0.7-0.7c-0.3-0.3-0.6-0.5-0.9-0.7c-0.3-0.2-0.6-0.5-0.9-0.7
		c-0.3-0.2-0.5-0.4-0.7-0.5l0.9-1.2h-2.8L287.4,349z M296,354.7c0-0.5,0.1-1.2,0.1-1.8c0-0.7,0.1-1.4,0.1-2.1h-5.8
		c0.2,0.2,0.5,0.3,0.8,0.5c0.3,0.2,0.6,0.4,0.9,0.7c0.3,0.2,0.6,0.5,0.8,0.7c0.3,0.2,0.5,0.4,0.7,0.6l-0.9,1.4H296z M296.3,349
		c0-1,0.1-1.8,0.1-2.5s0.1-1.1,0.1-1.3h-5.6c0.2,0.2,0.4,0.3,0.7,0.5c0.3,0.2,0.6,0.4,0.9,0.6c0.3,0.2,0.6,0.4,0.8,0.6
		c0.3,0.2,0.5,0.4,0.6,0.5L293,349H296.3z"/>
	<path class="st3" d="M338.8,349.8h-5.7v10.4h-2v-10.4h-6.9c-0.1,1.3-0.2,2.4-0.4,3.3c-0.2,1-0.5,1.8-1,2.7c-0.4,0.8-1,1.6-1.7,2.4
		c-0.7,0.8-1.5,1.6-2.5,2.5l-1.5-1.4c0.9-0.8,1.7-1.5,2.3-2.2c0.6-0.7,1.1-1.4,1.5-2.1c0.4-0.7,0.7-1.5,0.9-2.3
		c0.2-0.8,0.3-1.8,0.4-2.8h-6v-1.9h6v-0.6v-6.6h-4.7v-1.9h19.9v1.9h-4.4v7.2h5.7V349.8z M331.1,347.9v-7.2h-6.8v6.4v0.8H331.1z"/>
	<path class="st3" d="M358.8,348.5c-0.3-0.3-0.6-0.6-1-1c-0.4-0.3-0.8-0.7-1.2-1c-0.4-0.3-0.8-0.7-1.2-1c-0.4-0.3-0.7-0.5-1-0.7
		l1-1.4c0.3,0.2,0.7,0.4,1.1,0.7c0.4,0.3,0.8,0.6,1.2,0.9c0.4,0.3,0.8,0.6,1.2,1c0.4,0.3,0.7,0.6,1,0.9L358.8,348.5z M359.2,350.6
		c-0.2,0.6-0.3,1.3-0.5,2.1c-0.2,0.8-0.4,1.5-0.6,2.3s-0.4,1.6-0.7,2.5s-0.5,1.6-0.8,2.4l-1.7-0.5c0.5-1.5,1-3,1.5-4.7
		s0.8-3.2,1.1-4.5l0.9,0.3L359.2,350.6z M359.6,342.8c-0.3-0.3-0.6-0.6-0.9-0.9c-0.4-0.3-0.8-0.7-1.1-1c-0.4-0.3-0.8-0.6-1.2-0.9
		c-0.4-0.3-0.7-0.5-0.9-0.7l1-1.4c0.3,0.2,0.6,0.4,1,0.7c0.4,0.3,0.8,0.6,1.2,0.9s0.8,0.6,1.1,0.9s0.7,0.6,0.9,0.8L359.6,342.8z
		 M363.1,346.9c0,1.5-0.1,2.9-0.2,4.1c-0.1,1.2-0.3,2.3-0.5,3.3s-0.5,2-0.9,3c-0.4,1-0.9,2-1.4,3.1l-1.7-0.8c0.6-1.1,1-2,1.4-3
		s0.7-1.9,0.9-2.8s0.4-2,0.5-3.1s0.1-2.3,0.1-3.8v-8.4h15.8v1.7h-14V346.9z M367.4,354.3c-0.3,0.4-0.6,0.9-0.9,1.4
		c-0.3,0.5-0.7,0.9-1,1.4c-0.4,0.5-0.7,0.9-1.1,1.3c-0.4,0.4-0.7,0.8-1.1,1.1l-1.2-1.1c0.7-0.7,1.4-1.4,2.1-2.3s1.3-1.8,1.9-2.7
		L367.4,354.3z M371.2,352.2v4.9c0,0.5,0,0.9-0.1,1.3c-0.1,0.3-0.2,0.6-0.4,0.8c-0.2,0.2-0.5,0.3-0.8,0.4c-0.3,0.1-0.8,0.2-1.3,0.2
		L367,360l-0.6-1.8l1.5-0.1c0.3,0,0.6-0.1,0.8-0.1c0.2-0.1,0.3-0.1,0.4-0.3c0.1-0.1,0.2-0.3,0.2-0.5c0-0.2,0.1-0.5,0.1-0.8v-4.1
		h-4.3v-9.1h3.5c0.1-0.4,0.3-0.8,0.4-1.3c0.1-0.4,0.2-0.8,0.3-1.3l1.8,0.3c-0.1,0.3-0.2,0.7-0.3,1.1c-0.1,0.4-0.2,0.8-0.3,1.1h4.9
		v9.1H371.2z M366.9,344.7v2.1h6.8v-2.1H366.9z M366.9,350.6h6.8v-2.3h-6.8V350.6z M373.8,353.4c0.3,0.3,0.7,0.7,1,1.1
		c0.4,0.4,0.7,0.8,1.1,1.3c0.4,0.4,0.7,0.9,1,1.3c0.3,0.4,0.6,0.8,0.9,1.2l-1.3,1.2c-0.3-0.4-0.5-0.9-0.9-1.3
		c-0.3-0.5-0.7-0.9-1-1.4c-0.3-0.5-0.7-0.9-1-1.3c-0.3-0.4-0.7-0.8-1-1.1L373.8,353.4z"/>
	<path class="st3" d="M399.6,337.7c-0.2,0.7-0.5,1.5-0.8,2.4c-0.3,0.9-0.7,1.9-1.2,2.9v17.1h-1.9v-13.4c-0.6,1.1-1.3,2.2-2.1,3.3
		l-1.6-1.2c0.7-0.9,1.3-1.9,1.9-2.9c0.6-1,1.1-2,1.6-3s0.9-2,1.3-2.9c0.4-1,0.7-1.9,0.9-2.7L399.6,337.7z M415.4,340v1.8h-16V340h7
		c-0.1-0.5-0.3-0.9-0.4-1.4c-0.2-0.5-0.3-0.8-0.4-1.1l1.9-0.4c0.1,0.3,0.3,0.8,0.5,1.3s0.3,1.1,0.5,1.6H415.4z M400.8,344.1h12.8
		v1.6h-12.8V344.1z M400.8,347.8h12.8v1.7h-12.8V347.8z M400.8,351.7h12.7v8.5h-2v-1.4h-8.9v1.4h-1.9V351.7z M402.7,353.4v3.6h8.9
		v-3.6H402.7z"/>
	<path class="st3" d="M430.6,358.5c0.5-0.8,1-1.8,1.5-2.8s0.8-2.1,1.1-3.1l1.7,0.6c-0.2,0.5-0.3,1-0.5,1.6c-0.2,0.5-0.4,1.1-0.7,1.6
		s-0.5,1-0.8,1.5c-0.3,0.5-0.5,0.9-0.8,1.4L430.6,358.5z M442,351.5h-8v-12.1h5.6c0.2-0.4,0.3-0.9,0.4-1.3c0.1-0.4,0.3-0.8,0.4-1.1
		l2,0.4c-0.1,0.2-0.2,0.5-0.3,0.9c-0.1,0.4-0.3,0.7-0.4,1.1h8.2v12.1h-7.8c0.2,0.3,0.5,0.6,0.7,0.9c0.3,0.3,0.5,0.7,0.8,1
		c0.2,0.3,0.5,0.7,0.7,1c0.2,0.3,0.4,0.6,0.5,0.9l-1.5,1.1c-0.2-0.3-0.3-0.7-0.6-1s-0.5-0.7-0.7-1.1c-0.2-0.4-0.5-0.7-0.7-1.1
		c-0.2-0.3-0.5-0.6-0.7-0.9L442,351.5z M435.9,341v1.8h12.2V341H435.9z M448.1,344.4h-12.2v1.9h12.2V344.4z M435.9,349.9h12.2v-2
		h-12.2V349.9z M445.9,356.4c0.1-0.5,0.1-1.1,0.2-1.7l1.8,0.7c-0.1,0.6-0.1,1.2-0.2,1.7c-0.1,0.5-0.2,0.9-0.3,1.2s-0.3,0.5-0.5,0.7
		s-0.5,0.3-0.9,0.3c-0.3,0.1-0.8,0.1-1.3,0.2c-1.7,0.1-3.4,0.1-5.1,0c-0.5,0-1-0.1-1.3-0.2s-0.6-0.2-0.8-0.5
		c-0.2-0.2-0.3-0.5-0.4-0.9c-0.1-0.4-0.1-0.8-0.1-1.4v-4l1.9,0.1v3.5c0,0.3,0,0.6,0.1,0.8s0.1,0.4,0.2,0.5s0.2,0.2,0.4,0.3
		c0.2,0.1,0.4,0.1,0.8,0.1c1.3,0.1,2.6,0.1,3.9,0c0.4,0,0.6,0,0.9-0.1c0.2,0,0.4-0.1,0.5-0.2c0.1-0.1,0.2-0.2,0.3-0.4
		S445.9,356.7,445.9,356.4z M449.6,352.4c0.3,0.3,0.6,0.7,1,1.1c0.3,0.4,0.7,0.9,1,1.4s0.7,1,1,1.4c0.3,0.5,0.6,0.9,0.9,1.4
		l-1.5,1.3c-0.2-0.5-0.5-1-0.9-1.5s-0.7-1-1-1.6c-0.3-0.5-0.7-1-1-1.4c-0.3-0.5-0.7-0.8-0.9-1.2L449.6,352.4z"/>
	<path class="st3" d="M477.2,349.1c-0.3,0.1-0.7,0.3-1.2,0.5c-0.5,0.2-1,0.4-1.5,0.6v7.1c0,0.5,0,0.9-0.1,1.2
		c-0.1,0.3-0.2,0.5-0.4,0.7c-0.2,0.2-0.5,0.3-0.9,0.4s-0.8,0.2-1.4,0.2l-1.3,0.1l-0.6-1.9l1.6-0.2c0.3,0,0.5-0.1,0.7-0.1
		s0.3-0.1,0.4-0.2c0.1-0.1,0.2-0.3,0.2-0.4c0-0.2,0.1-0.4,0.1-0.7v-5.6c-0.7,0.2-1.4,0.5-2,0.7c-0.6,0.2-1.2,0.4-1.6,0.5l-0.6-1.8
		c0.5-0.1,1.1-0.3,1.9-0.5s1.5-0.5,2.3-0.8v-5.3h-2.9v-1.8h2.9v-4.5l1.8,0.1v4.5h2.4v1.8h-2.4v4.7c0.4-0.2,0.9-0.3,1.3-0.5
		c0.4-0.1,0.8-0.3,1.1-0.4L477.2,349.1z M491,360.4c-1.4-0.5-2.8-1.2-3.9-1.9s-2.2-1.5-3.2-2.5c-0.9,0.8-2,1.6-3.2,2.3
		s-2.6,1.4-4.1,2l-1.3-1.7c1.5-0.5,2.8-1.1,4-1.7c1.2-0.7,2.3-1.4,3.3-2.2c-0.7-0.9-1.4-1.8-2-2.8c-0.6-1-1.1-2.1-1.5-3.2l1.6-0.7
		c0.9,2.1,2,4,3.3,5.5c0.9-0.9,1.7-1.8,2.3-2.8s1.1-2,1.5-3H478v-1.7h5v-3.6h-5.4v-1.8h5.4v-3.6l1.9,0.1v3.5h6v1.8h-6v3.6h4.8v1.7
		c-0.4,1.1-1,2.3-1.7,3.5c-0.7,1.2-1.6,2.4-2.8,3.6c1.8,1.6,4.1,2.9,6.8,3.8L491,360.4z"/>
	<path class="st3" d="M520,344.2c1.2,2.3,2.7,4.5,4.4,6.3c1.7,1.9,3.8,3.6,6.3,5.3l-1.4,1.8c-1.3-0.9-2.4-1.8-3.4-2.7
		c-1-0.9-1.9-1.8-2.6-2.7s-1.5-1.8-2-2.7c-0.6-0.9-1.1-1.8-1.5-2.6v13.3h-2v-13.3c-0.9,1.8-2.1,3.6-3.6,5.3
		c-1.5,1.7-3.4,3.5-5.7,5.3l-1.5-1.7c1.1-0.8,2.2-1.6,3.3-2.6s2-1.9,2.9-2.9c0.9-1,1.7-2,2.4-3.1c0.7-1.1,1.3-2.1,1.9-3.2h-8.8v-1.7
		h9.2v-5.2l2,0.1v5.1h9.3v1.7H520z M525.5,342.2c-0.6-0.7-1.2-1.4-1.7-2c-0.6-0.6-1.1-1.2-1.6-1.6l1.1-1.1c0.3,0.2,0.5,0.4,0.8,0.7
		c0.3,0.3,0.6,0.5,0.9,0.8s0.6,0.6,0.9,0.9s0.6,0.6,0.8,0.9L525.5,342.2z"/>
	<path class="st3" d="M550.1,345.7v14.4h-1.8v-14.4h-2.5v-1.8h2.5v-6.7l1.8,0.1v6.7h2.7v1.8H550.1z M555.8,346.5
		c-0.2,0.6-0.4,1.2-0.6,1.8c-0.2,0.6-0.4,1.2-0.7,1.9c-0.2,0.6-0.5,1.2-0.7,1.8c-0.2,0.6-0.5,1.1-0.7,1.5l-1.7-0.7
		c0.5-1,1.1-2.1,1.5-3.3c0.5-1.2,0.9-2.4,1.2-3.5L555.8,346.5z M567.5,353.2c-0.1-0.4-0.3-0.9-0.5-1.4c-0.2-0.5-0.4-1-0.6-1.5
		c-0.2-0.5-0.5-1-0.7-1.5c-0.2-0.5-0.5-1-0.7-1.4c-0.1,1-0.1,1.9-0.2,2.9c-0.1,1-0.1,1.9-0.2,2.7c0,0.8-0.1,1.5-0.1,2.1
		c0,0.6-0.1,1-0.1,1.1c0,0.7-0.1,1.2-0.2,1.6s-0.3,0.7-0.6,1c-0.3,0.2-0.6,0.4-1,0.5c-0.4,0.1-0.9,0.2-1.5,0.3l-1.5,0.2l-0.6-1.9
		l1.6-0.1c0.4,0,0.8-0.1,1-0.2c0.3-0.1,0.5-0.2,0.6-0.3c0.1-0.2,0.2-0.4,0.3-0.6s0.1-0.6,0.1-1.1c0-0.2,0-0.6,0.1-1.2
		c0-0.6,0.1-1.3,0.1-2.2c0.1-0.8,0.1-1.7,0.2-2.7s0.1-1.8,0.2-2.7c0.1-0.8,0.1-1.6,0.1-2.2c0-0.6,0.1-1,0.1-1.2h-4.1v0.3
		c-0.1,2.1-0.2,3.9-0.4,5.4s-0.5,2.9-1,4.2s-1,2.4-1.8,3.5c-0.7,1.1-1.7,2.2-2.8,3.4l-1.6-1.1c1.1-1.1,2-2.2,2.7-3.2
		c0.7-1.1,1.3-2.2,1.7-3.4s0.7-2.5,0.9-3.9c0.2-1.4,0.3-3.1,0.4-4.9v-0.2h-4.1v-1.8h4.2l0.1-4.6l1.8,0.1l-0.1,4.6h6
		c0,0.1,0,0.3,0,0.6c0,0.3,0,0.7-0.1,1.2c0,0.5-0.1,1-0.1,1.6c0,0.6-0.1,1.2-0.1,1.9l1.4-0.7c0.2,0.4,0.5,0.9,0.7,1.4
		c0.3,0.5,0.5,1,0.8,1.6c0.3,0.5,0.5,1,0.7,1.5c0.2,0.5,0.4,0.9,0.5,1.3L567.5,353.2z"/>
	<path class="st3" d="M596.3,337.2c1.1,1.6,2.6,3.1,4.4,4.5c1.8,1.4,3.9,2.7,6.3,3.8l-1,1.8c-0.9-0.5-1.8-1-2.8-1.7
		c-1-0.6-2-1.3-2.9-2c-1-0.7-1.9-1.5-2.7-2.2c-0.9-0.8-1.6-1.5-2.1-2.3c-1.1,1.5-2.6,3-4.5,4.5s-3.9,2.7-6.2,3.9l-1-1.7
		c2.4-1.2,4.6-2.5,6.4-3.9c1.8-1.5,3.3-3,4.4-4.6H596.3z M584.9,350.2h20.9v1.8h-11c-0.7,1-1.4,1.9-2.2,2.8
		c-0.8,0.9-1.6,1.7-2.3,2.4c0.4,0,1,0,1.8,0s1.7-0.1,2.7-0.1c1,0,2-0.1,2.9-0.1c1,0,1.9-0.1,2.6-0.1c-0.5-0.6-0.9-1.1-1.4-1.6
		c-0.5-0.5-0.9-0.9-1.2-1.3l1.4-1.1c0.4,0.3,0.8,0.8,1.3,1.3c0.5,0.5,1,1.1,1.5,1.6c0.5,0.6,1,1.2,1.4,1.7s0.8,1.1,1.1,1.5l-1.4,1.5
		c-0.2-0.3-0.4-0.6-0.6-0.9c-0.2-0.3-0.5-0.7-0.7-1c-0.5,0-1.1,0-1.8,0.1c-0.7,0-1.5,0.1-2.3,0.1c-0.8,0-1.7,0.1-2.5,0.1
		c-0.9,0-1.6,0.1-2.4,0.1c-0.7,0-1.4,0.1-2,0.1c-0.6,0-1,0.1-1.3,0.1c-0.5,0-0.9,0.1-1.4,0.1c-0.4,0-0.8,0.1-1.1,0.2l-0.4-1.8
		c0.4-0.1,0.7-0.3,0.9-0.4c0.2-0.1,0.4-0.3,0.7-0.5c0.3-0.3,0.7-0.6,1-1c0.4-0.4,0.7-0.8,1.1-1.2c0.4-0.4,0.7-0.8,1.1-1.3
		c0.4-0.4,0.7-0.9,1-1.3h-7.5V350.2z M601.8,345.1v1.7h-12.9v-1.7H601.8z"/>
</g>
</svg>
