<svg xmlns="http://www.w3.org/2000/svg" role="img" viewBox="2.59 5.34 203.58 38.83"><title>Siemens logo</title><style>svg {shape-rendering:geometricPrecision;text-rendering:geometricPrecision;image-rendering:optimizeQuality;fill-rule:evenodd;clip-rule:evenodd}</style><path fill="#099" d="M200.121 10.3466v5.8289c-3.0198-1.14-5.7084-1.7164-8.0615-1.7164-1.3938 0-2.5037.2581-3.3382.7571-.8346.5033-1.2605 1.1228-1.2605 1.8541 0 .9722.9421 1.8368 2.8392 2.6112l5.4805 2.6671c4.4309 2.1122 6.6291 4.9169 6.6291 8.4401 0 2.9295-1.1658 5.2654-3.5189 6.9947-2.3359 1.7466-5.4805 2.6112-9.3951 2.6112-1.8068 0-3.4285-.0774-4.8696-.2409-1.4411-.1548-3.0973-.4732-4.9342-.9292v-6.0999c3.3683 1.14 6.4355 1.7164 9.1972 1.7164 3.2952 0 4.9342-.955 4.9342-2.8822 0-.9593-.6711-1.7336-2.0347-2.3402l-6.0871-2.594c-2.2455-1.0152-3.9146-2.2455-5.0073-3.7038-1.0754-1.4712-1.6218-3.1575-1.6218-5.0847 0-2.6973 1.1357-4.8697 3.3812-6.5216 2.2628-1.639 5.2655-2.4606 8.9994-2.4606 1.2131 0 2.6112.1075 4.1599.3054 1.5615.2108 3.0628.4689 4.5082.7873zm-172.3988 0v5.8289c-3.0199-1.14-5.7042-1.7164-8.0573-1.7164-1.3981 0-2.5036.2581-3.3382.7571-.8345.5033-1.2604 1.1228-1.2604 1.8541 0 .9722.955 1.8368 2.8521 2.6112l5.4805 2.6671c4.4136 2.1122 6.6162 4.9169 6.6162 8.4401 0 2.9295-1.1701 5.2654-3.506 6.9947-2.3531 1.7466-5.4805 2.6112-9.408 2.6112-1.8068 0-3.4329-.0774-4.874-.2409-1.4411-.1548-3.0801-.4732-4.9298-.9292v-6.0999c3.3812 1.14 6.4484 1.7164 9.1929 1.7164 3.2952 0 4.9342-.955 4.9342-2.8822 0-.9593-.6668-1.7336-2.0176-2.3402l-6.087-2.594c-2.2628-1.0152-3.9319-2.2455-5.0073-3.7038-1.0927-1.4712-1.6261-3.1575-1.6261-5.0847 0-2.6973 1.1271-4.8697 3.3855-6.5216 2.2456-1.639 5.2525-2.4606 8.9865-2.4606 1.226 0 2.6069.1075 4.1727.3054 1.5487.2108 3.05.4689 4.4911.7873zM34.003 9.8h8.926v30.048h-8.926zm37.684 0v5.554H58.424v6.663h11.503v5.008H58.424v6.994h13.534v5.829H49.834V9.8zm41.671 0v30.048h-8.333V20.03l-8.646 20.094h-5.145L82.919 20.03v19.818h-6.027V9.8h10.896l7.438 18.395L103.008 9.8zm28.745 0v5.554h-13.19v6.663h11.503v5.008h-11.503v6.994h13.461v5.829H120.25V9.8zm31.321 0v30.048h-9.468l-10.625-19.272v19.272h-6.023V9.8h9.744l10.35 18.941V9.8z"/></svg>