<svg id="Logo" xmlns="http://www.w3.org/2000/svg" xmlns:xlink="http://www.w3.org/1999/xlink" viewBox="0 0 200 56"><defs><style>.cls-1{fill:url(#linear-gradient);}.cls-2{fill:url(#linear-gradient-2);}</style><linearGradient id="linear-gradient" x1="56.788" y1="27.968" x2="71.086" y2="27.968" gradientUnits="userSpaceOnUse"><stop offset="0" stop-opacity="0.2"/><stop offset="1" stop-opacity="0.9"/><stop offset="1"/></linearGradient><linearGradient id="linear-gradient-2" x1="134.44701" y1="27.968" x2="148.746" y2="27.968" xlink:href="#linear-gradient"/></defs><title>stackpath-logo-reversed-screen</title><path d="M89.323,31.362l.03.092a8.48036,8.48036,0,0,1-2.322,6.043q-2.169,2.085-6.292,2.085a9.15334,9.15334,0,0,1-6.73-2.565,8.95482,8.95482,0,0,1-2.59-6.658V25.663a9.16757,9.16757,0,0,1,2.489-6.653,8.618,8.618,0,0,1,6.478-2.572q4.23,0,6.468,2.148a9.02875,9.02875,0,0,1,2.53,6.103l-.031.093H84.31a5.55876,5.55876,0,0,0-.973-3.26,3.60511,3.60511,0,0,0-2.951-1.066,3.21707,3.21707,0,0,0-2.775,1.429A6.35443,6.35443,0,0,0,76.6,25.631V30.36a6.0164,6.0164,0,0,0,1.104,3.769,3.61794,3.61794,0,0,0,3.036,1.437,3.15848,3.15848,0,0,0,2.651-1.005,5.6851,5.6851,0,0,0,.891-3.198h5.041Z"/><path d="M29.131,33.275a2.2601,2.2601,0,0,0-.781-1.839,9.99082,9.99082,0,0,0-2.806-1.375,21.485,21.485,0,0,1-6.269-2.882,5.22291,5.22291,0,0,1-2.039-4.441,5.38013,5.38013,0,0,1,2.43-4.573,10.30255,10.30255,0,0,1,6.17-1.747,9.33392,9.33392,0,0,1,6.078,1.923,5.88689,5.88689,0,0,1,2.291,4.952l-.031.093H29.147a2.847,2.847,0,0,0-.906-2.186,3.52494,3.52494,0,0,0-2.499-.842,3.88686,3.88686,0,0,0-2.453.696,2.10193,2.10193,0,0,0-.888,1.715,1.82082,1.82082,0,0,0,.896,1.585,18.07429,18.07429,0,0,0,3.364,1.491,15.618,15.618,0,0,1,5.726,2.811,5.758,5.758,0,0,1,1.923,4.589,5.43221,5.43221,0,0,1-2.291,4.643,10.06779,10.06779,0,0,1-6.078,1.676,11.24833,11.24833,0,0,1-6.575-1.923,6.15428,6.15428,0,0,1-2.698-5.539l.031-.093h5.043a3.35762,3.35762,0,0,0,1.042,2.78,4.99264,4.99264,0,0,0,3.158.834,3.73306,3.73306,0,0,0,2.4-.648,2.0992,2.0992,0,0,0,.789-1.7"/><polygon points="35.521 16.567 35.521 21.016 41.629 21.016 41.629 39.37 46.266 39.37 46.266 21.016 52.337 21.016 52.337 16.567 35.521 16.567"/><polygon points="146.572 16.567 146.572 21.016 152.681 21.016 152.681 39.37 157.319 39.37 157.319 21.016 163.388 21.016 163.388 16.567 146.572 16.567"/><polygon points="178.734 16.567 178.734 25.728 171.192 25.728 171.192 16.567 166.593 16.567 166.593 39.37 171.192 39.37 171.192 30.173 178.734 30.173 178.734 39.37 183.333 39.37 183.333 16.567 178.734 16.567"/><path d="M117.719,31.549v7.815h-5.268V16.561h8.477a9.33361,9.33361,0,0,1,6.387,2.076,6.88178,6.88178,0,0,1,2.362,5.427,6.85326,6.85326,0,0,1-2.362,5.426,9.37711,9.37711,0,0,1-6.387,2.06h-3.209Zm0-4.071h3.209a3.18233,3.18233,0,0,0,3.497-3.381,3.53777,3.53777,0,0,0-.894-2.492,3.36308,3.36308,0,0,0-2.603-.97h-3.209Z"/><path d="M109.249,38.301c-2.66-3.08-6.816-7.855-8.989-10.408l8.989-10.445v-.881h-5.217c-2.413,2.851-4.79,5.589-7.203,8.436V16.567h-4.6V39.37h4.6V30.933l7.24,8.437h5.181V38.301Z"/><polygon points="135.85 16.566 128.005 39.369 132.907 39.369 140.94 16.566 135.85 16.566"/><polygon points="58.19 16.566 50.346 39.369 55.248 39.369 63.281 16.566 58.19 16.566"/><polygon class="cls-1" points="63.281 16.567 60.827 23.533 63.281 30.554 58.353 30.554 56.788 34.998 64.676 34.998 66.183 39.369 71.086 39.369 63.281 16.567"/><polygon class="cls-2" points="140.94 16.567 138.486 23.533 140.94 30.554 136.013 30.554 134.447 34.998 142.335 34.998 143.843 39.369 148.746 39.369 140.94 16.567"/><path d="M186.562,16.945h-.696V18.84h-.469V16.945h-.688v-.379h1.853Z"/><path d="M187.44,16.565l.584,1.649.581-1.649h.615v2.274h-.47v-.622l.047-1.073-.614,1.695h-.321l-.612-1.693.047,1.072v.622h-.469V16.566h.612Z"/></svg>