<svg id="Moniker" xmlns="http://www.w3.org/2000/svg" viewBox="0 0 74 74"><title>stackpath-monogram-reversed-screen</title><path d="M19.766,42.289a2.25313,2.25313,0,0,0-.789-1.841,10.07945,10.07945,0,0,0-2.83-1.376,21.80609,21.80609,0,0,1-6.324-2.884,5.21155,5.21155,0,0,1-2.058-4.446,5.37664,5.37664,0,0,1,2.451-4.577,10.45349,10.45349,0,0,1,6.224-1.748,9.46336,9.46336,0,0,1,6.133,1.925,5.872,5.872,0,0,1,2.311,4.956l-.031.094H19.781a2.84168,2.84168,0,0,0-.913-2.189,3.5789,3.5789,0,0,0-2.521-.842,3.9489,3.9489,0,0,0-2.475.696,2.10013,2.10013,0,0,0-.896,1.716,1.81969,1.81969,0,0,0,.904,1.586,18.17809,18.17809,0,0,0,3.394,1.492,15.78064,15.78064,0,0,1,5.777,2.815,5.741,5.741,0,0,1,1.94,4.593,5.42172,5.42172,0,0,1-2.312,4.647,10.21325,10.21325,0,0,1-6.131,1.678,11.40846,11.40846,0,0,1-6.633-1.925,6.14241,6.14241,0,0,1-2.722-5.544l.031-.093h5.088a3.34954,3.34954,0,0,0,1.052,2.783,5.0651,5.0651,0,0,0,3.185.835,3.783,3.783,0,0,0,2.421-.649,2.09214,2.09214,0,0,0,.796-1.702"/><polygon points="61.673 25.566 53.759 48.39 54.555 48.39 58.705 48.39 66.808 25.566 61.673 25.566"/><polygon points="52.181 25.566 44.268 48.39 49.214 48.39 57.317 25.566 52.181 25.566"/><path d="M33.639,36.487h3.238a3.448,3.448,0,0,0,2.625-.949,3.39139,3.39139,0,0,0,.901-2.437,3.52253,3.52253,0,0,0-.901-2.493,3.40794,3.40794,0,0,0-2.625-.971H33.639Zm0,4.076v7.823H28.325V25.561h8.552a9.46422,9.46422,0,0,1,6.442,2.077,6.86625,6.86625,0,0,1,2.383,5.432,6.834,6.834,0,0,1-2.383,5.432,9.50538,9.50538,0,0,1-6.442,2.061Z"/></svg>