<?xml version="1.0" standalone="no"?>
<!DOCTYPE svg PUBLIC "-//W3C//DTD SVG 20010904//EN"
 "http://www.w3.org/TR/2001/REC-SVG-20010904/DTD/svg10.dtd">
<svg version="1.0" xmlns="http://www.w3.org/2000/svg"
 width="5000.000000pt" height="4348.000000pt" viewBox="0 0 5000.000000 4348.000000"
 preserveAspectRatio="xMidYMid meet">

<g transform="translate(0.000000,4348.000000) scale(0.100000,-0.100000)"
fill="#000000" stroke="none">
<path d="M14220 28970 l0 -7772 33 20 c17 11 1656 958 3642 2104 1986 1147
4999 2887 6698 3868 l3088 1783 -53 30 c-83 47 -13031 7521 -13365 7714 l-43
25 0 -7772z m3790 4355 c1466 -846 3754 -2166 5085 -2935 1331 -768 2428
-1401 2438 -1407 15 -8 -365 -231 -2170 -1273 -3795 -2192 -7915 -4570 -8000
-4621 l-83 -48 0 5930 0 5931 33 -20 c17 -11 1231 -712 2697 -1557z"/>
<path d="M22855 35829 c-143 -248 -261 -456 -262 -463 -2 -6 1069 -629 2380
-1385 1310 -756 3776 -2180 5480 -3163 1704 -984 3121 -1801 3148 -1817 l50
-28 -2378 -1373 c-1308 -755 -3793 -2190 -5523 -3188 -1730 -998 -3149 -1818
-3154 -1823 -9 -8 512 -919 526 -919 7 0 2011 1156 11671 6733 l987 570 -52
30 c-29 17 -2175 1255 -4768 2752 -2593 1497 -5418 3128 -6277 3623 -859 496
-1563 902 -1565 902 -2 0 -120 -203 -263 -451z"/>
<path d="M9875 19063 c-157 -7 -419 -40 -595 -74 -562 -109 -1053 -345 -1399
-675 -396 -377 -621 -912 -621 -1480 0 -322 72 -669 185 -895 211 -418 657
-789 1205 -1002 306 -119 771 -259 1395 -418 955 -245 1240 -351 1515 -568
245 -194 340 -387 341 -696 1 -169 -23 -289 -85 -428 -74 -165 -229 -335 -416
-456 -324 -211 -876 -316 -1510 -289 -807 33 -1645 341 -2130 782 -36 33 -106
100 -156 149 l-92 89 -54 -103 c-31 -57 -137 -265 -237 -462 l-182 -358 78
-81 c321 -331 740 -579 1298 -768 549 -186 1037 -264 1645 -264 392 0 632 21
960 85 635 124 1203 427 1530 816 351 417 515 942 471 1506 -39 491 -184 819
-502 1136 -418 416 -822 591 -2174 941 -1098 284 -1352 378 -1630 603 -207
168 -299 336 -325 593 -34 333 86 653 331 877 315 290 781 427 1458 428 258 0
393 -11 606 -47 527 -91 950 -255 1391 -540 97 -63 178 -113 179 -112 14 14
395 933 392 943 -6 15 -183 135 -310 209 -515 302 -1228 511 -1895 556 -138 9
-509 11 -667 3z"/>
<path d="M23450 19054 c-853 -80 -1582 -360 -2228 -857 -320 -246 -600 -546
-827 -887 -374 -561 -582 -1159 -645 -1850 -16 -170 -16 -625 -1 -790 49 -521
179 -984 401 -1425 207 -411 437 -725 756 -1034 475 -460 1051 -789 1715 -981
398 -115 772 -164 1249 -164 478 0 818 45 1246 164 1212 338 2176 1214 2616
2375 254 672 322 1416 198 2195 -40 255 -140 597 -251 859 -429 1015 -1258
1791 -2311 2165 -333 118 -702 195 -1101 231 -205 18 -615 18 -817 -1z m760
-1049 c531 -54 973 -211 1405 -500 379 -254 673 -582 898 -1005 230 -433 340
-896 340 -1435 0 -612 -134 -1103 -441 -1610 -99 -163 -294 -408 -423 -531
-411 -391 -966 -669 -1524 -763 -477 -81 -949 -66 -1405 44 -420 101 -875 332
-1197 607 -435 372 -753 880 -903 1443 -92 342 -123 771 -85 1148 54 537 240
1026 553 1452 156 212 393 445 612 602 424 303 931 492 1472 548 173 18 523
18 698 0z"/>
<path d="M13140 18495 l0 -515 1325 0 1325 0 0 -3425 0 -3425 565 0 565 0 0
3425 0 3425 1325 0 1325 0 0 515 0 515 -3215 0 -3215 0 0 -515z"/>
<path d="M29450 15070 l0 -3940 565 0 565 0 0 1039 0 1039 681 691 c375 380
682 691 684 691 1 0 679 -778 1506 -1730 l1504 -1730 694 0 693 0 -44 53
c-379 448 -3332 3938 -3436 4061 l-143 168 24 27 c29 32 3277 3432 3356 3514
l55 57 -691 0 -690 0 -2094 -2155 -2094 -2155 -3 2155 -2 2155 -565 0 -565 0
0 -3940z"/>
<path d="M37110 15070 l0 -3940 2835 0 2835 0 0 510 0 510 -2270 0 -2270 0 0
1235 0 1235 1955 0 1955 0 0 505 0 505 -1955 0 -1955 0 0 1175 0 1175 2190 0
2190 0 0 515 0 515 -2755 0 -2755 0 0 -3940z"/>
</g>
</svg>
