<?xml version="1.0" encoding="UTF-8" standalone="no"?>
<svg
   xmlns:dc="http://purl.org/dc/elements/1.1/"
   xmlns:cc="http://creativecommons.org/ns#"
   xmlns:rdf="http://www.w3.org/1999/02/22-rdf-syntax-ns#"
   xmlns:svg="http://www.w3.org/2000/svg"
   xmlns="http://www.w3.org/2000/svg"
   viewBox="0 0 1169.9413 769.9613"
   height="769.9613"
   width="1169.9413"
   xml:space="preserve"
   id="svg2"
   version="1.1"><metadata
     id="metadata8"><rdf:RDF><cc:Work
         rdf:about=""><dc:format>image/svg+xml</dc:format><dc:type
           rdf:resource="http://purl.org/dc/dcmitype/StillImage" /></cc:Work></rdf:RDF></metadata><defs
     id="defs6"><clipPath
       id="clipPath18"
       clipPathUnits="userSpaceOnUse"><path
         id="path16"
         d="M 0,577.471 H 877.456 V 0 H 0 Z" /></clipPath></defs><g
     transform="matrix(1.3333333,0,0,-1.3333333,0,769.96133)"
     id="g10"><g
       id="g12"><g
         clip-path="url(#clipPath18)"
         id="g14"><g
           transform="translate(447.9297,212.2515)"
           id="g20"><path
             id="path22"
             style="fill:#17ad49;fill-opacity:1;fill-rule:nonzero;stroke:none"
             d="m 0,0 c -98.461,-9.849 -182.553,22.275 -187.824,71.751 -5.274,49.477 70.269,97.569 168.727,107.421 C 79.357,189.02 163.45,156.897 168.726,107.418 173.993,57.943 98.456,9.849 0,0 m 169.047,109.923 c -8.089,55.579 -101.746,88.823 -209.193,74.254 -107.444,-14.572 -187.991,-71.44 -179.903,-127.018 8.087,-55.576 101.746,-88.823 209.193,-74.251 107.443,14.57 187.99,71.438 179.903,127.015" /></g><g
           transform="translate(428.833,391.4233)"
           id="g24"><path
             id="path26"
             style="fill:#ffffff;fill-opacity:1;fill-rule:nonzero;stroke:none"
             d="m 0,0 c -98.458,-9.852 -174.001,-57.944 -168.728,-107.421 5.272,-49.476 89.364,-81.599 187.825,-71.751 98.456,9.849 173.993,57.943 168.725,107.419 C 182.547,-22.274 98.454,9.848 0,0" /></g><g
           transform="translate(299.5263,305.9727)"
           id="g28"><path
             id="path30"
             style="fill:#122f5b;fill-opacity:1;fill-rule:nonzero;stroke:none"
             d="m 0,0 h -1.276 c -0.495,7.647 -5.306,13.835 -13.089,13.835 -4.035,0 -8.138,-3.129 -8.138,-7.5 0,-10.122 25.615,-11.871 25.615,-26.144 0,-7.571 -5.801,-13.911 -14.79,-13.911 -3.253,0 -5.589,0.656 -7.429,1.385 -1.911,0.658 -3.326,1.31 -5.024,1.31 -1.628,0 -1.981,-1.237 -2.124,-2.695 h -1.272 v 16.533 h 1.272 c 1.063,-11.652 9.695,-13.69 13.87,-13.69 4.741,0 9.339,2.548 9.339,7.865 0,11.071 -24.905,12.376 -24.905,26.799 0,7.427 6.51,12.89 13.868,12.89 2.548,0 4.669,-0.656 6.369,-1.383 1.77,-0.657 3.112,-1.383 4.034,-1.383 1.697,0 2.12,1.309 2.404,2.766 l 1.276,0 z" /></g><g
           transform="translate(275.3955,276.269)"
           id="g32"><path
             id="path34"
             style="fill:#122f5b;fill-opacity:1;fill-rule:nonzero;stroke:none"
             d="m 0,0 c 1.614,0 2.992,-0.498 4.452,-1.026 0.32,-0.116 0.652,-0.236 1.002,-0.356 1.456,-0.576 3.698,-1.313 6.999,-1.313 7.804,0 13.468,5.295 13.468,12.59 0,6.958 -6.992,10.716 -13.755,14.351 -6.099,3.279 -11.86,6.376 -11.86,11.793 0,5.277 4.891,8.822 9.46,8.822 6.028,0 10.793,-3.41 13.043,-8.92 v 7.211 c -0.534,-0.506 -1.286,-0.86 -2.358,-0.86 -0.9,0 -1.836,0.389 -3.023,0.88 -0.451,0.186 -0.942,0.39 -1.471,0.586 -2.096,0.895 -3.955,1.301 -5.909,1.301 -6.918,0 -12.547,-5.189 -12.547,-11.568 0,-6.913 6.613,-10.615 13.008,-14.195 6.119,-3.425 11.897,-6.66 11.897,-12.605 0,-6.311 -5.525,-9.186 -10.66,-9.186 -1.933,0 -10.368,0.503 -13.821,8.984 V -0.659 C -1.587,-0.264 -0.919,0 0,0 m 12.453,-5.339 c -3.754,0 -6.315,0.844 -7.916,1.478 -0.308,0.104 -0.651,0.229 -0.983,0.349 -1.343,0.485 -2.403,0.868 -3.554,0.868 -0.397,0 -0.662,0 -0.808,-1.502 l -0.118,-1.193 h -3.792 v 19.177 h 3.801 l 0.109,-1.202 C 0.249,1.049 9.068,0.148 11.746,0.148 c 3.99,0 8.018,2.024 8.018,6.543 0,4.395 -5.123,7.263 -10.546,10.298 -6.731,3.769 -14.361,8.039 -14.361,16.502 0,7.836 6.816,14.211 15.191,14.211 2.291,0 4.545,-0.487 6.889,-1.489 0.502,-0.185 1.023,-0.4 1.503,-0.599 0.804,-0.333 1.637,-0.678 2.011,-0.678 0.467,0 0.777,0 1.107,1.696 l 0.207,1.07 h 3.687 v -19.32 h -3.837 l -0.08,1.237 C 21.13,35.89 17.333,42.218 9.766,42.218 c -3.225,0 -6.817,-2.538 -6.817,-6.179 0,-3.837 5.086,-6.571 10.47,-9.465 7.099,-3.816 15.145,-8.141 15.145,-16.679 0,-8.685 -6.926,-15.234 -16.111,-15.234" /></g><g
           transform="translate(310.7607,304.6396)"
           id="g36"><path
             id="path38"
             style="fill:#122f5b;fill-opacity:1;fill-rule:nonzero;stroke:none"
             d="M 0,0 C 0,4.895 0,6.349 -5.321,6.349 V 7.398 H 10.642 V 6.349 C 5.319,6.349 5.319,4.895 5.319,0 v -15.38 c 0,-2.272 0.227,-6.528 0.908,-8.566 1.301,-3.843 5.038,-5.589 8.774,-5.589 3.679,0 7.754,1.453 9.903,4.717 1.814,2.797 1.814,7.34 1.814,10.485 V 0 c 0,4.895 0,6.349 -5.32,6.349 V 7.398 H 34.472 V 6.349 c -5.32,0 -5.32,-1.454 -5.32,-6.349 v -17.186 c 0,-6.992 -2.66,-14.853 -14.433,-14.853 C 2.716,-32.039 0,-24.994 0,-17.36 Z" /></g><g
           transform="translate(337.6357,310.7163)"
           id="g40"><path
             id="path42"
             style="fill:#122f5b;fill-opacity:1;fill-rule:nonzero;stroke:none"
             d="M 0,0 C 0.639,-0.744 0.929,-1.751 1.06,-3.027 1.191,-1.751 1.481,-0.744 2.12,0 Z m -2.208,-33.259 c -1.299,-1.29 -2.878,-2.191 -4.51,-2.777 1.828,0.587 3.333,1.514 4.51,2.777 M -26.719,0 c 1.082,-1.26 1.165,-3.274 1.165,-6.077 v -17.36 c 0,-8.495 3.494,-12.661 11.262,-13.276 -3.67,0.689 -6.488,2.96 -7.609,6.266 -0.773,2.318 -0.977,6.893 -0.977,8.99 v 15.38 c 0,2.803 0.082,4.817 1.166,6.077 z m 14.563,-39.437 c -10.645,0 -16.041,5.383 -16.041,16 v 17.36 c 0,2.106 0,3.627 -0.436,4.265 -0.242,0.355 -0.865,0.763 -3.563,0.763 h -1.323 v 3.693 h 18.608 v -3.693 h -1.322 c -2.7,0 -3.324,-0.408 -3.566,-0.763 -0.435,-0.638 -0.435,-2.159 -0.435,-4.265 v -15.38 c 0,-2.178 0.228,-6.315 0.839,-8.147 1.17,-3.454 4.654,-4.686 7.521,-4.686 2.941,0 6.799,1.083 8.8,4.122 1.595,2.461 1.595,6.853 1.595,9.759 v 14.332 c 0,2.106 0,3.627 -0.436,4.266 -0.24,0.354 -0.864,0.762 -3.562,0.762 H -6.8 V 2.644 H 8.919 V -1.049 H 7.597 C 4.899,-1.049 4.276,-1.457 4.035,-1.811 3.599,-2.45 3.599,-3.971 3.599,-6.077 v -17.186 c 0,-10.43 -5.595,-16.174 -15.755,-16.174" /></g><g
           transform="translate(357.5156,291.5293)"
           id="g44"><path
             id="path46"
             style="fill:#122f5b;fill-opacity:1;fill-rule:nonzero;stroke:none"
             d="m 0,0 c 2.095,-0.461 4.19,-0.873 6.286,-0.873 10.018,0 11.659,7.575 11.659,10.604 0,5.709 -4.473,10.778 -13.302,10.778 h -15.284 v -1.05 c 5.322,0 5.322,-1.454 5.322,-6.349 v -23.769 c 0,-4.893 0,-6.352 -5.322,-6.352 v -1.048 H 5.322 v 1.048 C 0,-17.011 0,-15.552 0,-10.659 Z m 0,17.653 c 1.246,0.352 2.55,0.525 3.851,0.525 4.869,0 7.753,-3.962 7.753,-8.739 C 11.604,5.244 9.06,1.112 5.377,1.112 3.681,1.112 1.587,1.345 0,1.691 Z" /></g><g
           transform="translate(358.8379,294.3145)"
           id="g48"><path
             id="path50"
             style="fill:#122f5b;fill-opacity:1;fill-rule:nonzero;stroke:none"
             d="m 0,0 c 1.327,-0.219 2.825,-0.352 4.055,-0.352 2.934,0 4.905,3.623 4.905,7.006 0,3.692 -1.988,7.417 -6.432,7.417 -0.859,0 -1.706,-0.082 -2.528,-0.245 z m 5.214,16.318 c 3.823,-1.178 6.39,-4.884 6.39,-9.664 0,-3.521 -1.661,-7.255 -4.5,-8.85 7.95,1.092 8.197,8.265 8.197,9.142 0,4.034 -2.685,8.696 -10.087,9.372 m -11.698,-35.84 h 5.005 c -1.082,1.26 -1.165,3.275 -1.165,6.078 v 29.313 l 0.963,0.271 c 0.357,0.101 0.716,0.188 1.078,0.262 h -5.882 c 1.082,-1.26 1.165,-3.275 1.165,-6.077 v -23.769 c 0,-2.803 -0.083,-4.818 -1.164,-6.078 m 11.806,-2.644 h -18.608 v 3.692 h 1.323 c 2.697,0 3.321,0.408 3.564,0.764 0.435,0.639 0.435,2.16 0.435,4.266 v 23.769 c 0,2.106 0,3.627 -0.435,4.265 -0.243,0.355 -0.867,0.763 -3.564,0.763 h -1.323 v 3.692 H 3.32 c 10.102,0 14.625,-6.076 14.625,-12.099 0,-4.429 -2.734,-11.925 -12.981,-11.925 -1.698,0 -3.363,0.249 -4.964,0.565 v -9.03 c 0,-2.106 0,-3.627 0.436,-4.266 0.242,-0.356 0.866,-0.764 3.564,-0.764 h 1.322 z" /></g><g
           transform="translate(388.9902,294.6787)"
           id="g52"><path
             id="path54"
             style="fill:#122f5b;fill-opacity:1;fill-rule:nonzero;stroke:none"
             d="M 0,0 H 7.529 C 12,0 13.756,0.462 14.094,5.649 h 1.02 V -7.81 h -1.02 C 13.643,-2.684 12.112,-2.1 7.529,-2.1 H 0 v -14.097 c 0,-2.389 0.678,-2.914 3.058,-2.914 h 7.698 c 4.98,0 6.792,2.388 9.733,7.576 h 1.078 l -3.171,-9.673 h -29.042 v 1.048 c 5.326,0 5.326,1.459 5.326,6.352 V 9.961 c 0,4.894 0,6.349 -5.326,6.349 v 1.049 H 18.113 L 18.622,8.913 H 17.49 c -1.075,5.883 -2.604,6.349 -7.924,6.349 l -9.566,0 z" /></g><g
           transform="translate(403.6142,310.7163)"
           id="g56"><path
             id="path58"
             style="fill:#122f5b;fill-opacity:1;fill-rule:nonzero;stroke:none"
             d="M 0,0 C 0.958,-0.339 1.726,-0.879 2.351,-1.737 L 2.245,0 Z m -3.572,-17.101 c 1.16,-0.255 2.061,-0.715 2.741,-1.508 v 2.99 c -0.714,-0.81 -1.638,-1.248 -2.741,-1.482 m -16.216,-18.823 h 5.419 c -0.995,0.566 -1.576,1.664 -1.576,3.689 V 0 h -3.844 c 1.083,-1.26 1.166,-3.274 1.166,-6.077 v -23.769 c 0,-2.802 -0.083,-4.818 -1.165,-6.078 m 19.594,0 h 3.008 l 0.884,2.697 C 2.6,-34.471 1.374,-35.389 -0.194,-35.924 m 4.924,-2.643 h -31.321 v 3.691 h 1.321 c 2.701,0 3.325,0.409 3.568,0.764 0.434,0.639 0.434,2.16 0.434,4.266 v 23.769 c 0,2.106 0,3.627 -0.434,4.265 -0.242,0.355 -0.866,0.763 -3.568,0.763 h -1.321 V 2.644 H 4.733 L 5.401,-8.446 H 1.764 l -0.199,1.083 c -0.934,5.12 -1.767,5.265 -6.623,5.265 h -8.245 v -12.618 h 6.208 c 4.011,0 4.969,0.162 5.246,4.414 l 0.08,1.236 h 3.581 v -16.103 h -3.553 l -0.105,1.205 c -0.37,4.199 -1.067,4.505 -5.249,4.505 h -6.208 v -12.776 c 0,-1.562 0,-1.591 1.737,-1.591 h 7.698 c 4.265,0 5.742,1.893 8.583,6.905 l 0.38,0.67 h 3.673 z" /></g><g
           transform="translate(450.1816,273.4707)"
           id="g60"><path
             id="path62"
             style="fill:#122f5b;fill-opacity:1;fill-rule:nonzero;stroke:none"
             d="m 0,0 v 1.048 c -5.153,0.408 -7.189,3.264 -9.964,7.226 l -7.304,10.484 c 4.926,1.05 9.287,4.198 9.287,9.789 0,3.378 -1.983,10.02 -13.021,10.02 h -16.245 v -1.049 c 5.321,0 5.321,-1.455 5.321,-6.349 V 7.4 c 0,-4.893 0,-6.352 -5.321,-6.352 V 0 h 15.964 v 1.048 c -5.323,0 -5.323,1.459 -5.323,6.352 v 10.602 h 3.849 L -10.019,0 Z m -26.606,35.944 c 1.53,0.234 3.057,0.526 4.642,0.526 4.585,0 7.64,-3.495 7.64,-8.155 0,-6.471 -5.659,-8.445 -11.035,-8.445 h -1.247 z" /></g><g
           transform="translate(424.8965,308.2852)"
           id="g64"><path
             id="path66"
             style="fill:#122f5b;fill-opacity:1;fill-rule:nonzero;stroke:none"
             d="m 0,0 v -13.623 c 3.637,0.013 9.64,0.968 9.64,7.123 0,4.024 -2.599,6.833 -6.319,6.833 C 2.217,0.333 1.134,0.179 0,0 m 6.855,2.292 c 3.284,-1.364 5.428,-4.65 5.428,-8.792 0,-3.943 -1.921,-6.862 -5.36,-8.438 l 0.819,0.174 c 2.477,0.529 8.24,2.413 8.24,8.497 0,1.866 -0.705,7.593 -9.127,8.559 M -6.483,-33.493 h 5.004 c -1.081,1.26 -1.164,3.276 -1.164,6.078 V 2.266 l 1.086,0.165 h -4.927 c 1.083,-1.26 1.166,-3.274 1.166,-6.077 v -23.769 c 0,-2.802 -0.083,-4.818 -1.165,-6.078 m 22.433,0 h 4.002 c -2.391,1.451 -3.977,3.716 -5.713,6.194 l -8.327,11.953 c -0.731,-0.261 -1.521,-0.467 -2.364,-0.618 z m 10.657,-2.643 H 14.581 L 1.845,-18.134 H 0 v -9.281 c 0,-2.106 0,-3.627 0.437,-4.266 0.242,-0.355 0.866,-0.764 3.565,-0.764 h 1.322 v -3.691 h -18.607 v 3.691 h 1.321 c 2.697,0 3.321,0.408 3.565,0.764 0.434,0.639 0.434,2.16 0.434,4.266 v 23.769 c 0,2.106 0,3.627 -0.434,4.266 -0.244,0.355 -0.867,0.762 -3.565,0.762 h -1.321 V 5.075 H 4.283 c 10.586,0 14.342,-6.11 14.342,-11.342 0,-4.997 -3.119,-8.849 -8.447,-10.579 l 6.228,-8.94 c 2.657,-3.793 4.412,-6.301 8.985,-6.663 l 1.216,-0.096 z" /></g><g
           transform="translate(458.5019,305.7456)"
           id="g68"><path
             id="path70"
             style="fill:#122f5b;fill-opacity:1;fill-rule:nonzero;stroke:none"
             d="m 0,0 h -0.113 v -24.875 c 0,-4.893 0,-6.352 5.321,-6.352 v -1.048 H -7.869 v 1.048 c 5.322,0 5.322,1.459 5.322,6.352 v 23.826 c 0,4.662 -0.566,6.292 -5.322,6.292 V 6.292 H 2.772 L 16.359,-23.884 29.775,6.292 H 40.36 V 5.243 c -5.317,0 -5.317,-1.454 -5.317,-6.349 v -23.769 c 0,-4.893 0,-6.352 5.317,-6.352 v -1.048 H 24.395 v 1.048 c 5.323,0 5.323,1.459 5.323,6.352 V 0 H 29.604 L 15.283,-32.275 h -0.907 z" /></g><g
           transform="translate(457.1904,307.0674)"
           id="g72"><path
             id="path74"
             style="fill:#122f5b;fill-opacity:1;fill-rule:nonzero;stroke:none"
             d="M 0,0 H 2.171 L 16.14,-31.364 17.557,-28.17 3.229,3.649 H -1.353 C -0.493,2.744 -0.14,1.493 0,0 m -1.079,-32.275 h 2.12 c -0.639,0.744 -0.929,1.751 -1.06,3.028 -0.13,-1.277 -0.421,-2.284 -1.06,-3.028 m 32.266,0 h 5.009 c -1.081,1.26 -1.163,3.275 -1.163,6.078 v 23.769 c 0,2.803 0.082,4.817 1.163,6.077 h -4.25 L 30.323,0 h 2.028 v -26.197 c 0,-2.803 -0.082,-4.818 -1.164,-6.078 m 11.806,-2.643 H 24.385 v 3.691 h 1.321 c 2.699,0 3.323,0.409 3.565,0.764 0.437,0.639 0.437,2.16 0.437,4.266 V -7.302 L 17.454,-34.918 H 14.829 L 2.521,-7.283 v -18.914 c 0,-2.106 0,-3.627 0.435,-4.266 0.242,-0.356 0.866,-0.764 3.564,-0.764 h 1.321 v -3.691 h -15.72 v 3.691 h 1.321 c 2.699,0 3.323,0.408 3.565,0.764 0.435,0.639 0.435,2.16 0.435,4.266 v 23.826 c 0,4.459 -0.412,4.971 -4,4.971 H -7.879 V 6.292 H 4.938 L 17.663,-21.969 30.228,6.292 H 42.993 V 2.6 h -1.321 c -2.695,0 -3.319,-0.408 -3.561,-0.762 -0.435,-0.639 -0.435,-2.16 -0.435,-4.266 v -23.769 c 0,-2.106 0,-3.627 0.435,-4.266 0.243,-0.356 0.866,-0.764 3.561,-0.764 h 1.321 z" /></g><g
           transform="translate(511.9941,280.8706)"
           id="g76"><path
             id="path78"
             style="fill:#122f5b;fill-opacity:1;fill-rule:nonzero;stroke:none"
             d="M 0,0 C 0,-4.893 0,-6.352 5.324,-6.352 V -7.4 h -15.966 v 1.048 c 5.322,0 5.322,1.459 5.322,6.352 v 23.769 c 0,4.895 0,6.349 -5.322,6.349 v 1.049 H 5.324 V 30.118 C 0,30.118 0,28.664 0,23.769 Z" /></g><g
           transform="translate(506.832,274.7925)"
           id="g80"><path
             id="path82"
             style="fill:#122f5b;fill-opacity:1;fill-rule:nonzero;stroke:none"
             d="M 0,0 H 5.005 C 3.923,1.26 3.841,3.275 3.841,6.078 v 23.769 c 0,2.802 0.082,4.817 1.164,6.077 h -5.006 c 1.083,-1.26 1.166,-3.275 1.166,-6.077 V 6.078 C 1.165,3.275 1.082,1.26 0,0 m 11.809,-2.644 h -18.61 v 3.692 h 1.322 c 2.698,0 3.322,0.408 3.565,0.764 0.435,0.639 0.435,2.16 0.435,4.266 v 23.769 c 0,2.106 0,3.627 -0.435,4.265 -0.243,0.355 -0.866,0.763 -3.565,0.763 h -1.322 v 3.692 h 18.61 V 34.875 H 10.486 C 7.785,34.875 7.161,34.467 6.919,34.112 6.483,33.474 6.483,31.953 6.483,29.847 V 6.078 c 0,-2.106 0,-3.627 0.437,-4.266 0.242,-0.355 0.866,-0.764 3.566,-0.764 h 1.323 z" /></g><g
           transform="translate(553.7139,299.8042)"
           id="g84"><path
             id="path86"
             style="fill:#122f5b;fill-opacity:1;fill-rule:nonzero;stroke:none"
             d="m 0,0 h -0.851 c -1.753,6.584 -5.545,11.07 -12.564,11.07 -7.528,0 -13.081,-6.001 -13.081,-18.818 0,-12.935 7.534,-16.951 13.984,-16.951 6.001,0 9.114,2.91 12.512,7.978 l 0.847,-0.583 c -3.451,-6.523 -8.093,-9.9 -15.511,-9.9 -10.808,0 -18.165,8.501 -18.165,19.395 0,11.42 7.695,20.857 19.184,20.857 2.944,0 5.323,-0.699 7.986,-2.036 0.452,-0.235 1.073,-0.584 1.639,-0.584 1.245,0 1.982,1.455 2.208,2.681 h 0.961 z" /></g><g
           transform="translate(549.2422,308.9463)"
           id="g88"><path
             id="path90"
             style="fill:#122f5b;fill-opacity:1;fill-rule:nonzero;stroke:none"
             d="M 0,0 C 1.06,-0.963 1.989,-2.136 2.782,-3.514 L 2.502,0.799 C 1.968,0.292 1.288,-0.036 0.452,-0.036 0.298,-0.036 0.146,-0.023 0,0 m -16.166,1.195 c -6.572,-2.798 -10.87,-9.584 -10.87,-18.146 0,-10.469 7.079,-18.069 16.834,-18.073 -6.698,0.875 -13.144,5.97 -13.144,18.134 0,8.743 2.588,15.043 7.18,18.085 m 5.974,-38.862 c -11.292,0 -19.488,8.712 -19.488,20.716 0,12.644 8.816,22.179 20.507,22.179 2.974,0 5.539,-0.651 8.578,-2.178 l 0.121,-0.063 c 0.253,-0.132 0.725,-0.38 0.926,-0.38 0.283,0 0.741,0.699 0.907,1.6 L 1.56,5.289 H 4.859 L 5.882,-10.463 H 2.605 L 2.344,-9.482 C 0.536,-2.694 -3.157,0.605 -8.943,0.605 c -7.473,0 -11.76,-6.376 -11.76,-17.495 0,-14.503 9.693,-15.63 12.663,-15.63 5.428,0 8.199,2.598 11.414,7.393 l 0.743,1.11 2.921,-2.006 -0.551,-1.04 c -3.828,-7.235 -9.129,-10.604 -16.679,-10.604" /></g><g
           transform="translate(594.8662,273.4707)"
           id="g92"><path
             id="path94"
             style="fill:#122f5b;fill-opacity:1;fill-rule:nonzero;stroke:none"
             d="m 0,0 v 1.048 c -5.152,0.408 -7.188,3.264 -9.963,7.226 l -7.304,10.484 c 4.928,1.05 9.285,4.198 9.285,9.789 0,3.378 -1.981,10.02 -13.018,10.02 h -16.247 v -1.049 c 5.322,0 5.322,-1.455 5.322,-6.349 V 7.4 c 0,-4.893 0,-6.352 -5.322,-6.352 V 0 h 15.962 v 1.048 c -5.319,0 -5.319,1.459 -5.319,6.352 v 10.602 h 3.849 L -10.022,0 Z m -26.604,35.944 c 1.525,0.234 3.054,0.526 4.64,0.526 4.589,0 7.642,-3.495 7.642,-8.155 0,-6.471 -5.66,-8.445 -11.037,-8.445 h -1.245 z" /></g><g
           transform="translate(569.585,308.2856)"
           id="g96"><path
             id="path98"
             style="fill:#122f5b;fill-opacity:1;fill-rule:nonzero;stroke:none"
             d="m 0,0 v -13.624 c 3.637,0.014 9.637,0.97 9.637,7.124 0,4.023 -2.599,6.833 -6.32,6.833 C 2.214,0.333 1.131,0.178 0,0 m 6.853,2.292 c 3.283,-1.365 5.427,-4.65 5.427,-8.792 0,-3.943 -1.922,-6.863 -5.36,-8.439 l 0.82,0.175 c 2.477,0.528 8.238,2.411 8.238,8.496 0,1.866 -0.706,7.593 -9.125,8.56 M -6.486,-33.493 h 5.007 c -1.082,1.26 -1.165,3.275 -1.165,6.078 V 2.264 l 1.086,0.167 h -4.929 c 1.083,-1.26 1.165,-3.275 1.165,-6.077 v -23.769 c 0,-2.803 -0.082,-4.818 -1.164,-6.078 m 22.428,0 h 4.007 c -2.391,1.451 -3.977,3.715 -5.713,6.194 L 5.91,-15.347 c -0.731,-0.26 -1.52,-0.466 -2.364,-0.618 l 0.059,-0.085 z m 10.662,-2.644 H 14.575 L 1.843,-18.135 H 0 v -9.28 c 0,-2.106 0,-3.627 0.436,-4.267 0.242,-0.355 0.864,-0.763 3.56,-0.763 h 1.321 v -3.692 h -18.605 v 3.692 h 1.322 c 2.697,0 3.322,0.408 3.565,0.763 0.436,0.64 0.436,2.161 0.436,4.267 v 23.769 c 0,2.105 0,3.626 -0.436,4.265 -0.242,0.355 -0.866,0.762 -3.565,0.762 h -1.322 V 5.074 H 4.281 c 13.65,0 14.341,-9.448 14.341,-11.342 0,-4.997 -3.119,-8.849 -8.445,-10.579 l 6.226,-8.939 c 2.658,-3.794 4.413,-6.301 8.983,-6.663 l 1.218,-0.096 z" /></g><g
           transform="translate(633.3252,292.9468)"
           id="g100"><path
             id="path102"
             style="fill:#ea2229;fill-opacity:1;fill-rule:nonzero;stroke:none"
             d="m 0,0 c 0,-10.848 -8.544,-19.641 -19.086,-19.641 -10.543,0 -19.087,8.793 -19.087,19.641 0,10.851 8.544,19.641 19.087,19.641 C -8.544,19.641 0,10.851 0,0" /></g><g
           transform="translate(615.334,360.4238)"
           id="g104"><path
             id="path106"
             style="fill:#223a6d;fill-opacity:1;fill-rule:nonzero;stroke:none"
             d="m 0,0 h 0.769 c 0.894,0 1.62,0.3 1.62,1.024 0,0.64 -0.471,1.067 -1.493,1.067 C 0.469,2.091 0.172,2.048 0,2.005 Z m -0.043,-3.966 h -1.621 v 6.995 c 0.64,0.128 1.535,0.213 2.687,0.213 1.323,0 1.919,-0.213 2.433,-0.512 C 3.84,2.432 4.138,1.877 4.138,1.195 4.138,0.427 3.54,-0.17 2.687,-0.426 V -0.512 C 3.37,-0.767 3.754,-1.279 3.967,-2.217 4.181,-3.285 4.308,-3.71 4.479,-3.966 H 2.73 C 2.517,-3.71 2.389,-3.07 2.175,-2.26 2.048,-1.492 1.621,-1.151 0.725,-1.151 h -0.768 z m -4.309,3.668 c 0,-3.114 2.303,-5.587 5.461,-5.587 3.072,0 5.332,2.473 5.332,5.544 0,3.114 -2.26,5.631 -5.375,5.631 -3.115,0 -5.418,-2.517 -5.418,-5.588 m 12.584,0 c 0,-3.967 -3.113,-7.081 -7.166,-7.081 -4.009,0 -7.208,3.114 -7.208,7.081 0,3.881 3.199,6.996 7.208,6.996 4.053,0 7.166,-3.115 7.166,-6.996" /></g></g></g></g></svg>