<svg id="Layer_1" data-name="Layer 1" xmlns="http://www.w3.org/2000/svg" xmlns:xlink="http://www.w3.org/1999/xlink" viewBox="0 0 6912 3027.34274"><defs><style>.cls-1{fill:url(#linear-gradient);}.cls-2{fill:#6e6e6e;}.cls-3{fill:#499438;}.cls-4{fill:#fefefe;}.cls-5{fill:url(#linear-gradient-2);}.cls-6{fill:url(#linear-gradient-3);}.cls-7{fill:url(#linear-gradient-4);}</style><linearGradient id="linear-gradient" x1="140.8596" y1="1500.97116" x2="506.84106" y2="1500.97116" gradientUnits="userSpaceOnUse"><stop offset="0" stop-color="#026938"/><stop offset="1" stop-color="#1b7938"/></linearGradient><linearGradient id="linear-gradient-2" x1="2105.84341" y1="1501.4661" x2="2474.50973" y2="1501.4661" gradientUnits="userSpaceOnUse"><stop offset="0" stop-color="#99c539"/><stop offset="1" stop-color="#a4cd39"/></linearGradient><linearGradient id="linear-gradient-3" x1="800.15679" y1="1488.90292" x2="1158.32729" y2="1488.90292" gradientUnits="userSpaceOnUse"><stop offset="0" stop-color="#3b8c37"/><stop offset="1" stop-color="#519938"/></linearGradient><linearGradient id="linear-gradient-4" x1="1456.28943" y1="1489.1319" x2="1812.53997" y2="1489.1319" gradientUnits="userSpaceOnUse"><stop offset="0" stop-color="#6dab39"/><stop offset="1" stop-color="#80b73a"/></linearGradient></defs><title>synse</title><path class="cls-1" d="M427.07655,675.07535c56.48813,16.24893,79.5197,47.64421,79.53889,110.34231q.18579,610.5513.07,1221.10284c.00024,72.44949.43095,144.90235-.14184,217.34749-.51787,65.49953-40.59055,106.23409-105.37689,107.27219-48.72935.78075-97.48036.53788-146.21949.29694-75.64822-.3742-113.81621-38.18566-113.8954-114.35637q-.44987-432.72006-.1486-865.44156-.00705-280.57707.05976-561.15415c.08154-81.72189,38.67161-120.29793,120.12474-120.21464,47.38869.04828,94.77636,1.00816,142.15884,1.55812C409.36329,686.29166,417.48917,686.04735,427.07655,675.07535Z"/><path class="cls-2" d="M6214.01428,1471.88039c2.86141-146.92737-4.68371-328.82978,3.48623-510.62041a346.2324,346.2324,0,0,1,31.69089-129.6908c17.38913-37.91769,42.68168-69.45324,77.29964-93.10864,176.30518-120.47272,412.12347-14.98365,436.84432,195.89092a991.40322,991.40322,0,0,1,6.46594,110.36911c.71607,146.29509-.82424,292.611,1.12216,438.88359.45243,33.98136-10.45,41.26544-42.22345,40.68024-104.09147-1.91589-208.2515.09464-312.36034-1.27927-27.47844-.36261-39.64113,4.107-39.26837,36.03341,1.73926,148.91449-.23177,297.87,1.14148,446.79223.92805,100.56075,57.03268,148.43865,143.72969,127.08638,43.77439-10.78152,66.769-40.52332,75.32139-82.21994,4.19651-20.45926,4.88506-41.89265,4.9826-62.8951.47223-101.48442.72187-202.97656-.19845-304.455-.20667-22.78147,4.63349-33.88334,30.40793-32.49856,36.79951,1.97673,73.79169.93018,110.68681.30853,16.76818-.28246,27.7049,2.35769,27.18534,23.21964-3.31,132.99945,7.4954,266.34243-6.295,399.03238-22.18149,213.42733-263.45028,321.78663-441.38365,199.06582-69.8931-48.2055-94.02968-121.12165-103.58832-200.47981-3.92757-32.60793-4.73587-65.73708-4.83582-98.63592C6213.75209,1817.83592,6214.01428,1662.31043,6214.01428,1471.88039Zm163.81994-289.42978c0,60.53282.87735,121.0852-.44809,181.58881-.50459,23.03351,4.58086,33.09825,30.2737,32.241,55.21037-1.84226,110.56078-1.73821,165.77937-.02728,25.09119.77761,30.827-8.49335,30.62232-31.91023-1.02124-117.10927-.16224-234.23375-.82472-351.34834-.10285-18.22565-2.97006-36.84965-7.45338-54.557-12.48283-49.30372-45.406-75.42811-96.01134-78.39394-78.18182-4.58188-119.21986,36.53316-121.56413,124.76418C6376.63528,1063.98288,6377.90906,1123.23377,6377.83422,1182.45061Z"/><path class="cls-2" d="M4713.20953,822.80713c13.7537-3.54813,16.352-16.6364,23.19694-25.277,62.46386-78.84442,141.99672-114.31316,242.98486-99.07313,65.94188,9.95127,111.1745,45.22471,135.46077,106.89968,20.06127,50.94826,26.86521,104.53836,26.89708,158.85152q.3759,646.61271.72525,1293.22447c.05118,27.189-6.60935,37.34553-34.87871,35.4417a795.72188,795.72188,0,0,0-106.70759-.00483c-28.25342,1.90576-35.12351-8.01606-34.997-35.4248,1.055-228.05609.5886-456.11919.58522-684.18035q-.00435-282.7694-.11009-565.539c-.01449-15.76536-.40126-31.69778-2.62819-47.26445-9.74261-68.09864-42.31182-96.62249-104.14072-92.30086-66.60581,4.656-126.86639,56.85988-128.41491,112.55853-1.06229,38.20039-.21391,76.45438-.21439,114.68423-.0029,384.93546-.55577,769.87334.90825,1154.80325.13617,35.81155-9.75468,46.03659-43.94145,42.69633-30.03517-2.93469-60.939-3.53389-90.81482.11443-37.3746,4.56474-42.28526-11.42972-42.21911-44.18588q1.4913-741.525-.11106-1483.05314c-.08643-35.77317,8.53064-50.81766,45.20027-45.16218,12.8778,1.98615,26.32489.04611,39.50013.37685,72.797,1.82609,63.86415-14.92015,69.16979,67.58369C4709.38047,799.78086,4705.746,811.88728,4713.20953,822.80713Z"/><path class="cls-2" d="M4028.33884,1866.46825c43.21138-321.06986,77.8419-640.64413,125.47673-958.56734,8.00094-53.39962,17.19116-106.62639,24.6909-160.09313,2.86866-20.44815,10.75468-29.64451,32.95163-28.60979a1095.88357,1095.88357,0,0,0,110.70516-.0338c26.5499-1.45165,30.50064,8.55563,26.88066,32.34864q-60.03823,394.5735-118.64865,789.36379-58.644,390.794-117.6583,781.53145c-8.10476,53.37138-19.16991,106.15852-35.22685,157.924-52.841,170.35319-191.69721,195.045-326.89048,171.2025-15.4326-2.72127-21.80148-10.95075-21.48859-27.17939.83872-43.493.64075-87.01693.11347-130.5196-.211-17.37441,5.24431-25.03849,23.30607-18.61434a86.01931,86.01931,0,0,0,15.38142,3.55948c87.41985,13.80287,119.87751-7.00259,147.33953-91.10463,26.971-82.59655,20.92076-164.87781,7.89907-249.32218-71.26007-462.139-140.04357-924.65936-210.34565-1386.94728-3.6644-24.09744.35587-33.50577,26.75222-32.254,40.78212,1.934,81.84865,2.439,122.553-.19024,27.08588-1.7498,33.71116,10.76775,36.39,33.49756,23.9024,202.79767,48.939,405.4628,72.34215,608.31721,18.42149,159.67789,34.97335,319.57161,52.50252,479.35332C4024.33644,1848.985,4026.64981,1857.69244,4028.33884,1866.46825Z"/><path class="cls-2" d="M5981.92316,1079.17439c0,50.0905-.6113,100.19234.31483,150.2657.34814,18.79927-6.22935,27.01112-25.02215,24.69954a38.87478,38.87478,0,0,0-3.95219-.00555c-41.99892-.80658-96.45121,14.05442-122.59213-6.71482-27.69766-22.00627-7.14726-78.855-8.66343-120.42033-1.63206-44.759.92661-89.67181-.73491-134.42864-2.662-71.71171-46.57882-118.52737-110.40434-120.3875-69.48363-2.02526-111.91906,31.57055-115.33576,101.56143-3.97874,81.49037-1.74939,163.36846.14245,245.02372.916,39.54606,20.08541,73.10083,45.95787,102.65385a1126.742,1126.742,0,0,0,126.975,124.35883c29.34613,24.42457,57.80573,49.98693,85.69943,76.06932,93.91766,87.8165,139.24975,195.60315,135.19181,324.83237-2.39835,76.38243,1.48238,152.99083-1.81361,229.30954-5.87444,136.01621-73.19777,211.13723-206.95936,234.08069a472.03106,472.03106,0,0,1-149.70747,1.4321c-115.33914-17.2315-187.20327-91.33808-202.75417-210.15177-13.56539-103.64511-4.13325-208.03356-6.70688-312.0548-.42636-17.2414,6.82229-22.94226,23.53253-22.55092,35.57306.83362,71.2649,1.76357,106.74186-.26411,25.36691-1.44972,30.96033,8.72632,30.59963,31.93558-1.16658,75.11716-1.78174,150.29588-.03476,225.39107,1.929,82.9244,60.26782,130.495,141.90063,118.60342,46.20364-6.73051,77.29192-30.61526,82.85637-77.12552,11.74695-98.18978,12.58374-197.09682-1.9295-295.25569-4.47271-30.25121-23.41326-55.59654-41.38473-80.13384-40.70534-55.57843-88.90463-104.24-140.33617-149.74787-40.52476-35.8579-78.2924-74.26012-114.89829-114.16107-52.19156-56.8886-80.01089-122.02214-83.46139-199.40839-4.23031-94.87317-7.49057-189.73258.68855-284.36361,14.11537-163.30255,92.74432-238.51,255.53143-247.70226,39.70052-2.24181,79.26391,1.00648,118.05762,8.48273,115.2334,22.20665,169.56063,89.7283,179.49686,226.00548,3.63157,49.8066.58426,100.09965.58426,150.17083Q5980.71337,1079.17426,5981.92316,1079.17439Z"/><path class="cls-2" d="M3489.04237,1084.35813c0,46.14572-1.0874,92.32765.45581,138.4217.77885,23.26817-4.76,33.58375-30.38234,31.89551a796.64181,796.64181,0,0,0-98.82446-.04563c-24.16676,1.41833-31.93835-6.12141-31.44825-30.82071,1.49131-75.12126,1.74722-150.31857.13255-225.43549-1.66127-77.29573-45.68795-125.01863-112.82152-126.21366-67.73715-1.20564-109.448,31.6145-112.88164,99.75152-4.17382,82.817-2.0618,166.04628-.078,249.03537.9464,39.596,21.4333,72.6699,47.21233,102.14156a1141.2584,1141.2584,0,0,0,127.23457,124.13c31.31111,26.18861,61.88467,53.39721,91.26846,81.72575,87.14994,84.02092,130.65682,186.65908,127.85142,308.14165-2.06808,89.53782,8.01543,179.622-5.43021,268.54514-18.65422,123.36829-75.5097,180.15647-197.84423,203.29886a457.48367,457.48367,0,0,1-157.46167,2.08778c-112.04075-17.87849-180.81362-85.86125-198.78725-200.39266-16.83579-107.2845-5.083-215.85841-8.01471-323.81551-.5379-19.799,11.78389-20.01746,25.94827-19.89434,31.64163.275,63.43319,1.95815,94.88868-.479,28.93329-2.24182,38.64548,6.09726,37.99556,36.6104-1.62723,76.3793-2.64268,153.07,2.44229,229.212,5.32833,79.78909,63.32479,121.75731,141.87262,110.06178,45.89727-6.83408,76.69125-31.4467,82.43605-77.73679,12.03256-96.95686,12.16607-194.546-1.5606-291.49874-4.29936-30.3666-22.28241-56.042-40.22007-80.71879-42.09743-57.91271-92.27933-108.27818-145.77074-155.4859-33.63438-29.68315-64.86511-61.71215-96.39641-93.59607-64.37645-65.0966-98.851-141.76922-100.06009-233.39458-1.19941-90.903-6.38385-181.94587,2.767-272.62028,16.31768-161.68529,97.04875-236.296,260.20934-243.02164a495.36541,495.36541,0,0,1,110.25466,8.11239c119.116,21.95558,174.63545,92.78369,183.15595,235.70448,2.89714,48.60071.45968,97.51936.45968,146.29292Q3488.34366,1084.35752,3489.04237,1084.35813Z"/><path class="cls-3" d="M427.07655,675.07535c-9.58738,10.972-17.71326,11.21631-23.83-3.24683C411.81777,668.33157,419.8763,668.55488,427.07655,675.07535Z"/><path class="cls-4" d="M6377.8714,1182.45061c.03766-59.21684-1.23612-118.46773.33655-177.64281,2.34427-88.231,43.38231-129.34606,121.56413-124.76418,50.60537,2.96583,83.52851,29.09022,96.01134,78.39394,4.48332,17.70733,7.35053,36.33133,7.45338,54.557.66248,117.11459-.19652,234.23907.82472,351.34834.20473,23.41688-5.53113,32.68784-30.62232,31.91023-55.21859-1.71093-110.569-1.815-165.77937.02728-25.69284.85728-30.77829-9.20746-30.2737-32.241C6378.71157,1303.53581,6377.83422,1242.98343,6377.8714,1182.45061Z"/><path class="cls-5" d="M2105.8795,1499.83546q-.03658-351.79968-.00314-703.5991c.02317-87.43169,38.371-126.29646,124.48469-126.42852,44.80022-.06856,89.61106-.60813,134.39848.15523,65.5795,1.11753,109.38334,43.957,109.43959,109.55336q.61927,721.386-.01327,1442.77316c-.06012,66.94852-41.09816,108.02156-108.42487,110.19046-46.07182,1.48473-92.22959.75564-138.34367.3771-81.5343-.66922-121.34371-40.25414-121.42676-121.51686Q2105.6266,1855.58837,2105.8795,1499.83546Z"/><path class="cls-6" d="M1157.27847,1488.771c-.014,423.16072-1.19362,846.328,1.04442,1269.47637.41586,78.63246-28.58225,131.24095-130.58523,130.1705-36.90816-.38723-73.82622.27136-110.737.03187-78.51645-.51036-116.66772-38.18422-116.71082-116.59457q-.3138-571.46466-.11033-1142.92908-.00308-705.92709.01424-1411.854c.00435-95.23819,32.59721-127.695,128.01149-127.6484,40.86759.01992,81.74374-.41814,122.601.25639,66.65289,1.10014,105.75394,39.20083,106.22123,105.8821.86829,123.91.26339,247.83069.26448,371.74676Q1157.29549,1028.04,1157.27847,1488.771Z"/><path class="cls-7" d="M1812.52756,1490.95584q.00216,636.79434-.02173,1273.58869c-.01063,88.85992-35.08489,123.59233-124.90937,124.00564-39.55349.182-79.11761.70784-118.66023.06035-73.19875-1.19743-112.54944-40.54239-112.55958-113.09062q-.17962-1287.43248.01739-2574.86471c.01134-71.08053,38.93446-110.26723,109.48522-111.05583,43.5035-.48621,87.01859-.18782,130.52693.06712,79.69534.46678,116.05546,36.56659,116.07356,115.83482Q1812.62714,848.22858,1812.52756,1490.95584Z"/></svg>