<svg id="svg" xmlns="http://www.w3.org/2000/svg" xmlns:xlink="http://www.w3.org/1999/xlink" width="400" height="189.86666666666665" viewBox="0, 0, 400,189.86666666666665"><g id="svgg"><path id="path0" d="M54.701 13.390 C 54.701 13.547,54.570 13.675,54.410 13.675 C 54.250 13.675,54.070 13.803,54.010 13.960 C 53.950 14.117,53.781 14.245,53.636 14.245 C 53.244 14.245,52.612 14.949,52.612 15.385 C 52.612 15.596,52.485 15.764,52.327 15.764 C 52.137 15.764,52.042 15.954,52.042 16.334 C 52.042 16.714,51.947 16.904,51.757 16.904 C 51.504 16.904,51.472 25.472,51.472 92.877 C 51.472 160.283,51.504 168.851,51.757 168.851 C 51.947 168.851,52.042 169.041,52.042 169.421 C 52.042 169.734,52.135 169.991,52.249 169.991 C 52.547 169.991,53.168 170.786,53.175 171.178 C 53.179 171.404,53.333 171.510,53.656 171.510 C 53.952 171.510,54.131 171.618,54.131 171.795 C 54.131 171.952,54.293 172.080,54.491 172.080 C 54.688 172.080,54.899 172.208,54.959 172.365 C 55.096 172.721,57.450 172.775,57.665 172.427 C 57.756 172.280,57.701 172.244,57.502 172.320 C 57.324 172.389,57.156 172.316,57.089 172.142 C 57.009 171.935,57.061 171.880,57.263 171.958 C 57.460 172.033,57.550 171.949,57.550 171.690 C 57.550 171.388,57.460 171.335,57.099 171.426 C 56.700 171.526,56.658 171.485,56.737 171.067 C 56.804 170.721,56.734 170.571,56.477 170.505 C 56.163 170.424,56.161 170.412,56.458 170.392 C 56.923 170.362,56.970 166.192,56.505 166.192 C 56.315 166.192,56.220 166.002,56.220 165.622 C 56.220 165.242,56.315 165.052,56.505 165.052 C 56.662 165.052,56.790 165.138,56.790 165.242 C 56.790 165.347,56.961 165.432,57.170 165.432 C 57.381 165.432,57.550 165.305,57.550 165.147 C 57.550 164.989,57.381 164.862,57.170 164.862 C 56.959 164.862,56.790 164.736,56.790 164.577 C 56.790 164.419,56.959 164.292,57.170 164.292 C 57.379 164.292,57.550 164.207,57.550 164.103 C 57.550 163.998,57.379 163.913,57.170 163.913 C 56.864 163.913,56.790 163.786,56.790 163.262 C 56.790 162.802,56.693 162.585,56.458 162.524 C 56.141 162.441,56.141 162.436,56.458 162.415 C 56.882 162.387,56.929 161.443,56.505 161.443 C 55.978 161.443,56.215 160.930,56.823 160.756 C 57.524 160.555,57.773 160.114,57.186 160.114 C 56.873 160.114,56.790 159.995,56.790 159.544 C 56.790 159.101,56.875 158.974,57.170 158.974 C 57.379 158.974,57.550 158.881,57.550 158.767 C 57.550 158.652,57.379 158.514,57.170 158.460 C 56.875 158.382,56.790 158.201,56.790 157.645 C 56.790 157.089,56.875 156.907,57.170 156.830 C 57.379 156.775,57.550 156.637,57.550 156.523 C 57.550 156.409,57.379 156.315,57.170 156.315 C 56.875 156.315,56.790 156.189,56.790 155.745 C 56.790 155.302,56.875 155.176,57.170 155.176 C 57.487 155.176,57.550 155.049,57.550 154.416 C 57.550 153.783,57.487 153.656,57.170 153.656 C 56.961 153.656,56.790 153.581,56.790 153.488 C 56.790 153.396,56.961 153.276,57.170 153.221 C 57.379 153.167,57.550 153.032,57.550 152.921 C 57.550 152.810,57.379 152.628,57.170 152.517 C 56.623 152.224,56.637 151.081,57.189 150.937 C 57.617 150.825,57.519 150.427,57.064 150.427 C 56.878 150.427,56.790 150.215,56.790 149.763 C 56.790 149.298,56.704 149.098,56.505 149.098 C 56.349 149.098,56.220 148.970,56.220 148.813 C 56.220 148.656,56.349 148.528,56.505 148.528 C 56.733 148.528,56.790 148.243,56.790 147.104 C 56.790 145.806,56.824 145.679,57.170 145.679 C 57.379 145.679,57.550 145.586,57.550 145.471 C 57.550 145.357,57.379 145.219,57.170 145.164 C 56.849 145.080,56.790 144.905,56.790 144.042 C 56.790 143.147,56.837 143.020,57.170 143.020 C 57.379 143.020,57.550 142.926,57.550 142.812 C 57.550 142.698,57.379 142.560,57.170 142.505 C 56.809 142.411,56.790 142.246,56.790 139.199 C 56.790 136.119,56.805 135.992,57.170 135.992 C 57.449 135.992,57.550 135.866,57.550 135.518 C 57.550 135.169,57.449 135.043,57.170 135.043 C 56.917 135.043,56.790 134.916,56.790 134.663 C 56.790 134.452,56.664 134.283,56.505 134.283 C 56.315 134.283,56.220 134.093,56.220 133.713 C 56.220 133.333,56.315 133.143,56.505 133.143 C 56.720 133.143,56.790 132.911,56.790 132.194 C 56.790 131.371,56.841 131.244,57.170 131.244 C 57.379 131.244,57.550 131.151,57.550 131.036 C 57.550 130.922,57.379 130.784,57.170 130.729 C 56.591 130.578,56.607 128.677,57.189 128.525 C 57.617 128.413,57.519 128.015,57.064 128.015 C 56.866 128.015,56.790 127.778,56.790 127.160 C 56.790 126.527,56.716 126.306,56.505 126.306 C 56.349 126.306,56.220 126.178,56.220 126.021 C 56.220 125.864,56.349 125.736,56.505 125.736 C 56.662 125.736,56.790 125.651,56.790 125.546 C 56.790 125.442,56.961 125.356,57.170 125.356 C 57.391 125.356,57.550 125.230,57.550 125.053 C 57.550 124.887,57.379 124.706,57.170 124.651 C 56.601 124.503,56.633 123.352,57.209 123.202 C 57.665 123.082,57.529 122.798,57.014 122.794 C 56.839 122.793,56.704 122.685,56.714 122.555 C 56.725 122.424,56.746 121.472,56.762 120.440 C 56.788 118.735,56.825 118.554,57.170 118.463 C 57.487 118.381,57.550 118.204,57.550 117.397 C 57.550 116.556,57.500 116.429,57.170 116.429 C 56.878 116.429,56.790 116.303,56.790 115.882 C 56.790 115.494,56.901 115.305,57.170 115.235 C 57.379 115.180,57.550 115.042,57.550 114.928 C 57.550 114.813,57.379 114.720,57.170 114.720 C 56.815 114.720,56.790 114.593,56.790 112.821 C 56.790 111.048,56.815 110.921,57.170 110.921 C 57.379 110.921,57.550 110.826,57.550 110.710 C 57.550 110.572,57.321 110.542,56.885 110.624 C 55.941 110.801,55.847 109.704,56.788 109.497 C 57.504 109.340,57.711 109.028,57.189 108.892 C 56.594 108.736,56.576 106.173,57.170 106.173 C 57.379 106.173,57.550 106.079,57.550 105.965 C 57.550 105.851,57.379 105.713,57.170 105.658 C 56.885 105.583,56.790 105.399,56.790 104.916 C 56.790 104.472,56.702 104.274,56.505 104.274 C 56.349 104.274,56.220 104.145,56.220 103.989 C 56.220 103.832,56.349 103.704,56.505 103.704 C 56.662 103.704,56.790 103.789,56.790 103.894 C 56.790 103.998,56.961 104.084,57.170 104.084 C 57.452 104.084,57.550 103.957,57.550 103.591 C 57.550 103.258,57.427 103.066,57.170 102.999 C 56.960 102.944,56.790 102.740,56.790 102.542 C 56.790 102.345,56.662 102.184,56.505 102.184 C 56.349 102.184,56.220 102.056,56.220 101.899 C 56.220 101.743,56.349 101.614,56.505 101.614 C 56.704 101.614,56.790 101.414,56.790 100.950 C 56.790 100.412,56.862 100.285,57.170 100.285 C 57.379 100.285,57.550 100.197,57.550 100.089 C 57.550 99.800,56.921 99.608,56.833 99.871 C 56.725 100.196,56.220 100.146,56.220 99.810 C 56.220 99.653,56.349 99.525,56.505 99.525 C 56.662 99.525,56.790 99.440,56.790 99.335 C 56.790 99.231,56.961 99.145,57.170 99.145 C 57.904 99.145,57.660 98.259,56.885 98.113 C 56.171 97.979,55.832 96.866,56.505 96.866 C 56.943 96.866,56.899 95.403,56.458 95.288 C 56.141 95.205,56.141 95.200,56.458 95.179 C 56.735 95.160,56.790 94.967,56.790 94.017 C 56.790 93.004,56.832 92.877,57.170 92.877 C 57.820 92.877,57.594 92.358,56.885 92.225 C 56.182 92.093,56.032 91.751,56.505 91.358 C 56.727 91.174,56.790 90.660,56.790 89.056 C 56.790 87.116,56.813 86.990,57.170 86.990 C 57.381 86.990,57.550 86.863,57.550 86.705 C 57.550 86.546,57.381 86.420,57.170 86.420 C 56.748 86.420,56.682 86.224,56.998 85.908 C 57.146 85.760,57.147 85.592,57.002 85.322 C 56.834 85.008,56.864 84.925,57.175 84.844 C 57.664 84.716,57.660 84.330,57.170 84.330 C 56.670 84.330,56.670 83.640,57.170 83.001 C 57.643 82.397,57.643 82.241,57.170 82.241 C 56.917 82.241,56.790 82.115,56.790 81.861 C 56.790 81.650,56.664 81.481,56.505 81.481 C 56.349 81.481,56.220 81.353,56.220 81.197 C 56.220 81.040,56.349 80.912,56.505 80.912 C 56.662 80.912,56.790 80.826,56.790 80.722 C 56.790 80.617,56.961 80.532,57.170 80.532 C 57.379 80.532,57.550 80.446,57.550 80.342 C 57.550 80.237,57.379 80.152,57.170 80.152 C 56.961 80.152,56.790 80.034,56.790 79.889 C 56.790 79.745,56.961 79.582,57.170 79.527 C 57.774 79.369,57.612 79.068,56.838 78.907 C 56.411 78.819,56.259 78.729,56.458 78.682 C 56.925 78.573,56.972 72.934,56.505 72.934 C 56.349 72.934,56.220 72.806,56.220 72.650 C 56.220 72.493,56.349 72.365,56.505 72.365 C 56.695 72.365,56.790 72.175,56.790 71.795 C 56.790 71.415,56.695 71.225,56.505 71.225 C 56.349 71.225,56.220 71.097,56.220 70.940 C 56.220 70.783,56.349 70.655,56.505 70.655 C 56.704 70.655,56.790 70.455,56.790 69.991 C 56.790 69.452,56.862 69.326,57.170 69.326 C 57.379 69.326,57.550 69.240,57.550 69.136 C 57.550 69.031,57.379 68.946,57.170 68.946 C 56.722 68.946,56.602 67.121,57.023 66.700 C 57.202 66.521,57.204 66.385,57.033 66.112 C 56.847 65.814,56.871 65.740,57.180 65.659 C 57.665 65.532,57.657 65.147,57.170 65.147 C 56.955 65.147,56.790 65.021,56.790 64.856 C 56.790 64.696,56.662 64.516,56.505 64.456 C 56.108 64.304,56.093 62.108,56.489 62.108 C 56.637 62.108,56.792 62.209,56.833 62.332 C 56.921 62.595,57.550 62.404,57.550 62.114 C 57.550 62.006,57.379 61.918,57.170 61.918 C 56.727 61.918,56.710 61.852,57.021 61.354 C 57.202 61.063,57.202 60.847,57.021 60.346 C 56.703 59.467,56.736 59.054,57.170 58.500 C 57.581 57.973,57.673 56.800,57.330 56.456 C 57.163 56.290,57.171 56.163,57.361 55.934 C 57.576 55.675,57.553 55.616,57.201 55.524 C 56.882 55.440,56.790 55.273,56.790 54.774 C 56.790 54.329,56.702 54.131,56.505 54.131 C 56.349 54.131,56.220 54.003,56.220 53.846 C 56.220 53.689,56.349 53.561,56.505 53.561 C 56.738 53.561,56.790 53.234,56.790 51.757 C 56.790 50.280,56.738 49.953,56.505 49.953 C 56.349 49.953,56.220 49.824,56.220 49.668 C 56.220 49.511,56.349 49.383,56.505 49.383 C 56.740 49.383,56.790 49.037,56.790 47.411 C 56.790 45.598,56.821 45.430,57.170 45.339 C 57.461 45.263,57.550 45.080,57.550 44.557 C 57.550 44.001,57.479 43.875,57.170 43.875 C 56.846 43.875,56.790 43.748,56.790 43.020 C 56.790 42.292,56.846 42.165,57.170 42.165 C 57.452 42.165,57.550 42.039,57.550 41.673 C 57.550 41.340,57.427 41.148,57.170 41.081 C 56.729 40.965,56.583 36.070,56.998 35.295 C 57.148 35.014,57.148 34.850,56.998 34.699 C 56.632 34.334,56.746 33.618,57.170 33.618 C 57.379 33.618,57.550 33.525,57.550 33.411 C 57.550 33.296,57.379 33.158,57.170 33.103 C 56.863 33.023,56.790 32.844,56.790 32.172 C 56.790 31.558,56.715 31.339,56.505 31.339 C 56.349 31.339,56.220 31.211,56.220 31.054 C 56.220 30.897,56.349 30.769,56.505 30.769 C 56.720 30.769,56.790 30.537,56.790 29.820 C 56.790 28.997,56.841 28.870,57.170 28.870 C 57.381 28.870,57.550 28.743,57.550 28.585 C 57.550 28.427,57.381 28.300,57.170 28.300 C 56.896 28.300,56.790 28.173,56.790 27.847 C 56.790 27.554,56.924 27.360,57.170 27.295 C 57.432 27.227,57.550 27.036,57.550 26.681 C 57.550 26.263,57.480 26.185,57.177 26.264 C 56.679 26.394,56.311 25.960,56.669 25.663 C 56.813 25.543,57.071 25.498,57.241 25.563 C 57.479 25.655,57.550 25.564,57.550 25.169 C 57.550 24.816,57.432 24.625,57.170 24.556 C 56.828 24.467,56.790 24.297,56.790 22.871 C 56.790 21.636,56.874 21.134,57.170 20.608 C 57.379 20.236,57.550 19.798,57.550 19.635 C 57.550 19.471,57.379 19.293,57.170 19.238 C 56.607 19.091,56.622 17.752,57.189 17.604 C 57.617 17.492,57.519 17.094,57.064 17.094 C 56.866 17.094,56.790 16.857,56.790 16.239 C 56.790 15.511,56.846 15.385,57.170 15.385 C 57.482 15.385,57.550 15.257,57.553 14.672 C 57.557 13.558,57.751 13.404,59.299 13.279 C 60.331 13.195,59.922 13.159,57.692 13.136 C 55.146 13.110,54.701 13.148,54.701 13.390 M19.062 45.869 C 18.991 46.055,18.695 46.154,18.207 46.154 C 17.720 46.154,17.424 46.252,17.353 46.439 C 17.293 46.595,17.039 46.724,16.789 46.724 C 16.511 46.724,16.334 46.835,16.334 47.009 C 16.334 47.165,16.206 47.293,16.049 47.293 C 15.893 47.293,15.764 47.422,15.764 47.578 C 15.764 47.735,15.671 47.863,15.558 47.863 C 15.260 47.863,14.639 48.659,14.631 49.050 C 14.628 49.233,14.539 49.383,14.435 49.383 C 14.309 49.383,14.245 64.261,14.245 93.637 C 14.245 123.014,14.309 137.892,14.435 137.892 C 14.539 137.892,14.625 138.020,14.625 138.177 C 14.625 138.333,14.753 138.462,14.910 138.462 C 15.066 138.462,15.195 138.599,15.195 138.767 C 15.195 139.224,15.989 139.974,16.477 139.978 C 16.729 139.980,16.904 140.098,16.904 140.266 C 16.904 140.443,17.083 140.551,17.379 140.551 C 17.674 140.551,17.854 140.658,17.854 140.836 C 17.854 141.084,18.751 141.121,24.786 141.121 C 30.822 141.121,31.719 141.084,31.719 140.836 C 31.719 140.646,31.909 140.551,32.289 140.551 C 32.669 140.551,32.858 140.456,32.858 140.266 C 32.858 140.109,32.961 139.981,33.086 139.981 C 33.398 139.981,34.378 139.018,34.378 138.711 C 34.378 138.574,34.506 138.462,34.663 138.462 C 34.820 138.462,34.948 138.340,34.948 138.192 C 34.948 138.044,35.042 137.892,35.156 137.854 C 35.271 137.816,35.411 137.379,35.466 136.884 C 35.522 136.389,35.642 135.938,35.733 135.882 C 35.973 135.734,35.947 51.335,35.708 51.187 C 35.603 51.123,35.518 50.730,35.518 50.315 C 35.518 49.820,35.420 49.523,35.233 49.451 C 35.076 49.391,34.948 49.138,34.948 48.888 C 34.948 48.610,34.837 48.433,34.663 48.433 C 34.506 48.433,34.378 48.305,34.378 48.148 C 34.378 47.991,34.250 47.863,34.093 47.863 C 33.936 47.863,33.808 47.735,33.808 47.578 C 33.808 47.422,33.680 47.293,33.523 47.293 C 33.367 47.293,33.238 47.165,33.238 47.009 C 33.238 46.831,33.059 46.724,32.764 46.724 C 32.468 46.724,32.289 46.616,32.289 46.439 C 32.289 46.229,32.069 46.154,31.454 46.154 C 30.888 46.154,30.585 46.062,30.511 45.869 C 30.417 45.625,29.602 45.584,24.786 45.584 C 19.970 45.584,19.156 45.625,19.062 45.869 M325.736 47.602 C 325.736 47.854,325.788 47.867,326.021 47.673 C 326.178 47.543,326.306 47.405,326.306 47.365 C 326.306 47.326,326.178 47.293,326.021 47.293 C 325.864 47.293,325.736 47.432,325.736 47.602 M335.043 47.578 C 335.173 47.735,335.365 47.863,335.469 47.863 C 335.575 47.863,335.554 47.737,335.423 47.578 C 335.293 47.422,335.101 47.293,334.996 47.293 C 334.890 47.293,334.911 47.419,335.043 47.578 M378.849 47.578 C 378.909 47.735,379.074 47.863,379.217 47.863 C 379.368 47.863,379.430 47.746,379.366 47.578 C 379.306 47.422,379.140 47.293,378.998 47.293 C 378.846 47.293,378.785 47.411,378.849 47.578 M216.780 48.916 C 216.718 49.077,216.721 49.262,216.786 49.328 C 216.851 49.393,216.904 49.310,216.904 49.143 C 216.904 48.977,217.054 48.802,217.236 48.754 C 217.548 48.673,217.548 48.666,217.231 48.645 C 217.044 48.633,216.842 48.755,216.780 48.916 M227.956 50.154 C 228.002 50.291,228.151 50.441,228.288 50.487 C 228.431 50.534,228.502 50.463,228.454 50.321 C 228.409 50.183,228.259 50.034,228.122 49.988 C 227.980 49.941,227.908 50.012,227.956 50.154 M200.760 50.676 C 200.760 50.778,200.895 50.913,201.061 50.977 C 201.245 51.048,201.332 51.005,201.286 50.867 C 201.191 50.583,200.760 50.426,200.760 50.676 M253.799 51.388 C 253.519 51.692,253.496 51.852,253.731 51.852 C 253.893 51.852,254.196 51.280,254.088 51.179 C 254.059 51.152,253.929 51.246,253.799 51.388 M276.078 51.731 C 275.812 51.978,275.594 52.296,275.594 52.438 C 275.594 52.580,275.739 52.485,275.917 52.226 C 276.095 51.968,276.373 51.653,276.534 51.526 C 276.696 51.398,276.768 51.291,276.695 51.288 C 276.622 51.285,276.345 51.484,276.078 51.731 M203.462 54.926 C 203.557 55.210,203.989 55.367,203.989 55.117 C 203.989 55.015,203.853 54.879,203.688 54.816 C 203.503 54.745,203.416 54.787,203.462 54.926 M56.790 57.645 C 56.790 57.802,56.662 57.930,56.505 57.930 C 56.349 57.930,56.220 57.802,56.220 57.645 C 56.220 57.488,56.349 57.360,56.505 57.360 C 56.662 57.360,56.790 57.488,56.790 57.645 M345.869 57.658 C 345.869 57.718,345.997 57.895,346.154 58.052 C 346.463 58.361,346.502 58.315,346.323 57.850 C 346.215 57.568,345.869 57.422,345.869 57.658 M229.095 58.132 C 229.141 58.269,229.291 58.418,229.428 58.464 C 229.570 58.511,229.642 58.440,229.594 58.298 C 229.548 58.161,229.399 58.011,229.262 57.965 C 229.119 57.918,229.048 57.989,229.095 58.132 M330.057 58.444 C 330.292 58.489,330.677 58.489,330.912 58.444 C 331.147 58.398,330.954 58.361,330.484 58.361 C 330.014 58.361,329.822 58.398,330.057 58.444 M346.867 62.773 C 346.869 63.191,346.908 63.339,346.953 63.103 C 346.998 62.867,346.997 62.525,346.949 62.343 C 346.902 62.162,346.864 62.355,346.867 62.773 M56.831 63.657 C 56.878 63.798,57.069 63.942,57.255 63.978 C 57.472 64.020,57.563 63.952,57.509 63.788 C 57.462 63.648,57.271 63.503,57.085 63.467 C 56.868 63.425,56.777 63.494,56.831 63.657 M172.169 63.637 C 171.988 63.929,172.236 64.118,172.479 63.874 C 172.616 63.738,172.619 63.631,172.489 63.551 C 172.383 63.485,172.239 63.524,172.169 63.637 M358.787 63.865 C 358.790 64.211,358.825 64.238,358.974 64.008 C 359.212 63.639,359.212 63.438,358.974 63.438 C 358.870 63.438,358.786 63.630,358.787 63.865 M346.905 71.510 C 346.905 75.793,346.930 77.572,346.961 75.464 C 346.991 73.355,346.991 69.851,346.961 67.677 C 346.930 65.502,346.905 67.227,346.905 71.510 M183.180 70.180 C 183.180 73.419,183.206 74.770,183.238 73.184 C 183.270 71.597,183.270 68.948,183.238 67.296 C 183.206 65.644,183.180 66.942,183.180 70.180 M172.080 69.706 C 172.080 72.871,172.148 74.644,172.270 74.644 C 172.391 74.644,172.460 72.871,172.460 69.706 C 172.460 66.540,172.391 64.767,172.270 64.767 C 172.148 64.767,172.080 66.540,172.080 69.706 M219.943 73.644 C 219.943 73.929,220.500 74.575,220.507 74.298 C 220.510 74.160,220.385 73.919,220.228 73.762 C 220.071 73.605,219.943 73.552,219.943 73.644 M172.123 75.629 C 172.165 75.753,172.300 75.889,172.424 75.930 C 172.563 75.976,172.605 75.889,172.534 75.704 C 172.402 75.359,172.009 75.287,172.123 75.629 M336.372 79.384 C 336.372 80.210,337.030 80.329,341.627 80.336 C 346.292 80.342,346.528 80.315,346.835 79.741 C 347.014 79.407,346.997 79.396,346.640 79.619 C 346.425 79.754,346.249 79.928,346.249 80.008 C 346.249 80.087,344.204 80.152,341.704 80.152 L 337.160 80.152 336.766 79.651 C 336.549 79.376,336.372 79.256,336.372 79.384 M194.949 79.645 C 195.011 79.837,195.062 80.034,195.062 80.084 C 195.062 80.134,195.147 80.122,195.252 80.057 C 195.356 79.992,195.442 80.030,195.442 80.141 C 195.442 80.251,195.589 80.342,195.769 80.342 C 196.022 80.342,195.990 80.269,195.626 80.021 C 195.368 79.844,195.085 79.609,194.996 79.498 C 194.902 79.380,194.882 79.440,194.949 79.645 M204.585 79.968 C 204.338 80.174,204.225 80.342,204.334 80.342 C 204.526 80.342,205.128 79.827,205.128 79.664 C 205.128 79.534,205.061 79.572,204.585 79.968 M198.053 80.294 C 199.124 80.327,200.876 80.327,201.947 80.294 C 203.018 80.260,202.142 80.232,200.000 80.232 C 197.858 80.232,196.982 80.260,198.053 80.294 M173.029 82.851 C 173.029 83.012,173.172 83.262,173.345 83.405 C 173.634 83.643,173.640 83.625,173.415 83.191 C 173.084 82.554,173.029 82.506,173.029 82.851 M249.050 83.428 C 248.846 83.986,248.851 84.010,249.104 83.677 C 249.345 83.358,249.488 82.811,249.329 82.811 C 249.300 82.811,249.174 83.089,249.050 83.428 M232.289 85.353 C 232.289 85.394,232.416 85.671,232.572 85.971 C 232.853 86.509,232.984 86.209,232.743 85.581 C 232.644 85.322,232.289 85.144,232.289 85.353 M372.412 86.942 C 374.005 86.973,376.612 86.973,378.205 86.942 C 379.798 86.910,378.495 86.884,375.309 86.884 C 372.123 86.884,370.819 86.910,372.412 86.942 M195.442 92.387 C 195.442 92.552,195.577 92.688,195.742 92.688 C 195.908 92.688,196.009 92.586,195.968 92.462 C 195.850 92.110,195.442 92.051,195.442 92.387 M199.082 95.816 C 199.200 96.073,199.365 96.241,199.450 96.189 C 199.536 96.136,199.461 95.925,199.286 95.720 C 198.866 95.229,198.824 95.249,199.082 95.816 M56.790 97.327 C 56.790 97.503,56.953 97.626,57.186 97.626 C 57.649 97.626,57.583 97.182,57.107 97.090 C 56.919 97.053,56.790 97.150,56.790 97.327 M342.106 97.638 C 342.152 97.775,342.301 97.924,342.438 97.970 C 342.581 98.018,342.652 97.946,342.604 97.804 C 342.559 97.667,342.409 97.517,342.272 97.472 C 342.130 97.424,342.058 97.495,342.106 97.638 M233.808 99.859 C 233.808 99.963,233.936 100.155,234.093 100.285 C 234.252 100.417,234.378 100.437,234.378 100.331 C 234.378 100.227,234.250 100.035,234.093 99.905 C 233.934 99.773,233.808 99.753,233.808 99.859 M246.409 101.146 C 246.286 101.408,246.268 101.614,246.368 101.614 C 246.579 101.614,246.787 101.137,246.694 100.867 C 246.658 100.763,246.530 100.888,246.409 101.146 M346.451 106.648 C 346.451 106.752,346.576 107.004,346.730 107.206 C 346.883 107.409,347.009 107.490,347.009 107.385 C 347.009 107.281,346.883 107.029,346.730 106.826 C 346.576 106.624,346.451 106.543,346.451 106.648 M182.148 108.650 C 182.255 109.023,182.344 112.366,182.355 116.428 C 182.366 120.346,182.430 123.750,182.498 123.992 C 182.565 124.234,182.599 120.860,182.572 116.495 C 182.531 109.784,182.480 108.514,182.242 108.277 C 181.994 108.028,181.983 108.072,182.148 108.650 M172.169 108.462 C 171.988 108.754,172.236 108.942,172.479 108.698 C 172.616 108.562,172.619 108.456,172.489 108.375 C 172.383 108.310,172.239 108.348,172.169 108.462 M172.080 116.988 C 172.080 123.580,172.175 125.225,172.520 124.568 C 172.664 124.294,172.412 109.592,172.263 109.592 C 172.148 109.592,172.080 112.355,172.080 116.988 M227.584 123.682 C 227.625 123.806,227.761 123.942,227.885 123.983 C 228.024 124.029,228.066 123.943,227.995 123.758 C 227.863 123.412,227.470 123.340,227.584 123.682 M183.856 127.396 C 183.856 127.615,184.585 128.299,184.698 128.185 C 184.743 128.141,184.571 127.905,184.317 127.660 C 184.063 127.416,183.856 127.297,183.856 127.396 M334.590 127.724 C 334.234 128.267,334.211 128.395,334.473 128.395 C 334.577 128.395,334.663 128.273,334.663 128.124 C 334.663 127.974,334.797 127.718,334.961 127.554 C 335.125 127.390,335.178 127.255,335.078 127.255 C 334.978 127.255,334.758 127.466,334.590 127.724 M326.729 128.621 C 326.771 128.745,326.906 128.880,327.030 128.921 C 327.169 128.968,327.211 128.881,327.140 128.696 C 327.008 128.351,326.615 128.279,326.729 128.621 M242.009 129.741 C 241.872 129.961,241.796 130.178,241.840 130.223 C 241.972 130.354,242.397 129.755,242.325 129.539 C 242.289 129.430,242.146 129.521,242.009 129.741 M173.635 132.206 C 173.681 132.343,173.830 132.492,173.967 132.538 C 174.110 132.585,174.181 132.514,174.133 132.372 C 174.088 132.235,173.938 132.085,173.801 132.039 C 173.659 131.992,173.587 132.063,173.635 132.206 M362.587 135.375 C 362.590 135.453,362.766 135.731,362.979 135.992 L 363.366 136.467 363.064 135.850 C 362.778 135.263,362.578 135.064,362.587 135.375 M322.803 139.348 C 322.994 139.487,323.222 139.601,323.311 139.601 C 323.399 139.601,323.365 139.487,323.235 139.348 C 323.105 139.209,322.877 139.095,322.728 139.095 C 322.531 139.095,322.552 139.164,322.803 139.348 M337.702 139.332 C 337.406 139.496,337.339 139.597,337.523 139.598 C 337.686 139.600,337.985 139.476,338.188 139.322 C 338.649 138.974,338.336 138.980,337.702 139.332 M222.368 148.666 C 222.709 148.708,223.222 148.707,223.508 148.664 C 223.793 148.620,223.514 148.586,222.887 148.587 C 222.260 148.588,222.027 148.623,222.368 148.666 " stroke="none" fill="#10723c" fill-rule="evenodd"></path><path id="path1" d="M131.434 45.760 C 131.434 45.845,131.071 45.981,130.627 46.061 C 129.337 46.294,129.294 46.308,129.157 46.531 C 129.085 46.647,128.847 46.756,128.629 46.773 C 128.410 46.789,128.274 46.871,128.325 46.954 C 128.377 47.038,128.286 47.157,128.122 47.220 C 127.959 47.283,127.825 47.453,127.825 47.599 C 127.825 47.744,127.697 47.863,127.540 47.863 C 127.384 47.863,127.255 47.949,127.255 48.053 C 127.255 48.158,127.127 48.243,126.971 48.243 C 126.814 48.243,126.686 48.404,126.686 48.600 C 126.686 48.796,126.558 49.062,126.403 49.191 C 126.247 49.320,126.167 49.502,126.225 49.596 C 126.283 49.689,126.197 49.816,126.034 49.879 C 125.871 49.941,125.785 50.069,125.843 50.162 C 125.901 50.256,125.879 50.332,125.795 50.332 C 125.489 50.332,125.696 136.537,126.004 136.975 C 126.154 137.190,126.232 137.484,126.176 137.629 C 126.116 137.786,126.198 137.892,126.380 137.892 C 126.651 137.892,126.800 138.367,126.700 138.912 C 126.684 139.003,126.802 139.027,126.963 138.966 C 127.167 138.887,127.255 138.970,127.255 139.238 C 127.255 139.450,127.342 139.570,127.447 139.505 C 127.552 139.440,127.689 139.521,127.752 139.684 C 127.815 139.847,127.978 139.981,128.115 139.981 C 128.251 139.981,128.397 140.080,128.437 140.202 C 128.503 140.401,128.861 140.537,129.469 140.594 C 129.590 140.605,129.646 140.724,129.595 140.858 C 129.520 141.054,130.829 141.105,136.223 141.116 L 142.944 141.129 143.789 140.652 C 144.254 140.390,144.763 140.118,144.919 140.047 C 145.394 139.831,146.438 138.579,146.439 138.224 C 146.439 138.041,146.567 137.892,146.724 137.892 C 146.899 137.892,147.009 137.714,147.009 137.428 C 147.009 137.173,147.094 136.912,147.198 136.847 C 147.324 136.769,147.388 122.090,147.388 93.425 C 147.388 64.603,147.325 50.159,147.198 50.237 C 147.091 50.304,147.009 50.149,147.009 49.882 C 147.009 49.622,146.880 49.282,146.724 49.125 C 146.567 48.968,146.439 48.791,146.439 48.732 C 146.439 48.548,145.690 47.863,145.489 47.863 C 145.385 47.863,145.299 47.735,145.299 47.578 C 145.299 47.422,145.171 47.293,145.014 47.293 C 144.858 47.293,144.729 47.165,144.729 47.009 C 144.729 46.831,144.550 46.724,144.255 46.724 C 143.993 46.724,143.780 46.614,143.780 46.479 C 143.780 46.343,143.523 46.215,143.197 46.190 C 142.877 46.166,142.428 46.024,142.200 45.874 C 141.736 45.570,131.434 45.461,131.434 45.760 " stroke="none" fill="#9ec83c" fill-rule="evenodd"></path><path id="path2" d="M184.425 47.578 C 184.425 47.797,184.184 47.863,183.392 47.863 C 182.824 47.863,182.313 47.937,182.257 48.028 C 182.201 48.119,181.811 48.248,181.391 48.315 C 180.971 48.383,180.627 48.522,180.627 48.625 C 180.627 48.728,180.410 48.813,180.146 48.813 C 179.882 48.813,179.616 48.941,179.556 49.098 C 179.496 49.255,179.306 49.386,179.134 49.389 C 178.759 49.397,177.968 50.025,177.968 50.315 C 177.968 50.495,177.513 50.609,177.335 50.475 C 177.214 50.384,175.891 51.893,175.777 52.251 C 175.714 52.449,175.583 52.612,175.486 52.612 C 175.388 52.612,175.309 52.740,175.309 52.896 C 175.309 53.053,175.180 53.181,175.024 53.181 C 174.850 53.181,174.739 53.359,174.739 53.636 C 174.739 53.886,174.611 54.140,174.454 54.200 C 174.297 54.260,174.169 54.489,174.169 54.708 C 174.169 54.928,174.041 55.236,173.884 55.393 C 173.727 55.549,173.596 55.864,173.593 56.091 C 173.589 56.319,173.464 56.719,173.314 56.980 C 173.165 57.241,173.040 57.818,173.036 58.262 C 173.032 58.706,172.944 59.069,172.840 59.069 C 172.724 59.069,172.650 59.911,172.650 61.216 C 172.650 62.670,172.573 63.444,172.412 63.618 C 172.219 63.825,172.228 63.848,172.460 63.736 C 172.634 63.653,172.615 63.705,172.412 63.872 C 172.054 64.165,171.958 64.767,172.270 64.767 C 172.391 64.767,172.460 66.540,172.460 69.706 C 172.460 72.871,172.391 74.644,172.270 74.644 C 171.982 74.644,172.042 75.203,172.365 75.526 C 172.590 75.751,172.650 76.346,172.650 78.350 C 172.650 79.838,172.728 80.938,172.840 81.007 C 172.944 81.071,173.032 81.440,173.036 81.825 C 173.040 82.211,173.165 82.740,173.314 83.001 C 173.464 83.262,173.589 83.671,173.593 83.909 C 173.596 84.147,173.727 84.392,173.884 84.452 C 174.041 84.512,174.169 84.768,174.169 85.022 C 174.169 85.275,174.297 85.531,174.454 85.591 C 174.611 85.651,174.739 85.905,174.739 86.155 C 174.739 86.433,174.850 86.610,175.024 86.610 C 175.180 86.610,175.309 86.738,175.309 86.895 C 175.309 87.051,175.388 87.179,175.486 87.179 C 175.583 87.179,175.720 87.360,175.790 87.580 C 175.978 88.171,177.439 89.839,177.769 89.839 C 177.878 89.839,177.968 89.967,177.968 90.123 C 177.968 90.280,178.053 90.408,178.158 90.408 C 178.262 90.408,178.348 90.537,178.348 90.693 C 178.348 90.850,178.457 90.978,178.592 90.978 C 178.726 90.978,178.989 91.238,179.176 91.555 C 179.594 92.262,181.014 93.626,181.339 93.632 C 181.470 93.635,181.576 93.765,181.576 93.922 C 181.576 94.079,181.710 94.207,181.873 94.207 C 182.035 94.207,182.112 94.298,182.043 94.410 C 181.974 94.521,182.097 94.659,182.317 94.717 C 182.537 94.774,182.716 94.897,182.716 94.989 C 182.716 95.081,182.844 95.157,183.001 95.157 C 183.158 95.157,183.286 95.285,183.286 95.442 C 183.286 95.598,183.414 95.726,183.571 95.726 C 183.727 95.726,183.856 95.819,183.856 95.931 C 183.856 96.197,184.905 97.246,185.171 97.246 C 185.283 97.246,185.375 97.374,185.375 97.531 C 185.375 97.688,185.462 97.816,185.568 97.816 C 185.788 97.816,187.464 99.516,187.464 99.738 C 187.464 99.818,187.721 100.035,188.034 100.220 C 188.348 100.405,188.604 100.667,188.604 100.801 C 188.604 100.935,188.732 101.045,188.889 101.045 C 189.046 101.045,189.174 101.134,189.174 101.244 C 189.174 101.353,189.387 101.641,189.649 101.883 C 189.910 102.125,190.123 102.420,190.123 102.538 C 190.123 102.657,190.242 102.754,190.388 102.754 C 190.533 102.754,190.707 102.971,190.773 103.237 C 190.840 103.502,190.977 103.668,191.079 103.605 C 191.180 103.543,191.263 103.627,191.263 103.793 C 191.263 103.960,191.391 104.145,191.548 104.205 C 191.705 104.265,191.833 104.433,191.833 104.579 C 191.833 104.724,191.917 104.843,192.019 104.843 C 192.122 104.843,192.259 105.057,192.325 105.318 C 192.390 105.579,192.520 105.793,192.613 105.793 C 192.706 105.793,192.783 105.921,192.783 106.078 C 192.783 106.235,192.911 106.363,193.067 106.363 C 193.246 106.363,193.352 106.543,193.352 106.844 C 193.352 107.108,193.481 107.374,193.637 107.434 C 193.824 107.505,193.922 107.802,193.922 108.296 C 193.922 108.712,194.050 109.176,194.207 109.334 C 194.451 109.578,194.492 110.767,194.492 117.677 C 194.492 124.714,194.456 125.736,194.207 125.736 C 194.001 125.736,193.922 125.947,193.922 126.496 C 193.922 127.044,193.843 127.255,193.637 127.255 C 193.481 127.255,193.352 127.338,193.352 127.439 C 193.352 127.769,192.019 128.965,191.652 128.965 C 191.456 128.965,191.262 129.063,191.222 129.182 C 191.120 129.489,186.469 129.493,186.367 129.186 C 186.326 129.064,186.087 128.965,185.834 128.965 C 185.553 128.965,185.375 128.855,185.375 128.680 C 185.375 128.523,185.240 128.395,185.076 128.395 C 184.695 128.395,183.840 127.503,183.071 126.302 C 182.571 125.521,182.498 124.498,182.367 116.334 C 182.298 112.051,182.172 108.440,182.088 108.310 C 181.821 107.897,172.774 107.976,172.435 108.394 C 172.211 108.670,172.214 108.695,172.460 108.569 C 172.624 108.485,172.604 108.539,172.412 108.696 C 172.071 108.976,171.953 109.592,172.241 109.592 C 172.330 109.592,172.448 113.823,172.504 118.995 C 172.568 124.862,172.677 128.487,172.797 128.634 C 172.902 128.764,173.029 129.294,173.079 129.811 C 173.129 130.329,173.267 130.785,173.385 130.824 C 173.503 130.864,173.599 131.136,173.599 131.430 C 173.599 131.723,173.717 132.008,173.860 132.063 C 174.004 132.118,174.178 132.469,174.249 132.843 C 174.319 133.217,174.458 133.523,174.558 133.523 C 174.657 133.523,174.739 133.651,174.739 133.808 C 174.739 133.965,174.867 134.093,175.024 134.093 C 175.200 134.093,175.309 134.272,175.309 134.561 C 175.309 135.214,177.582 137.486,178.572 137.821 C 178.747 137.880,178.937 138.049,178.993 138.195 C 179.049 138.342,179.312 138.462,179.576 138.462 C 179.877 138.462,180.057 138.568,180.057 138.746 C 180.057 138.935,180.245 139.031,180.611 139.031 C 180.916 139.031,181.195 139.121,181.231 139.231 C 181.268 139.341,181.596 139.477,181.960 139.534 C 182.323 139.590,182.707 139.703,182.811 139.784 C 182.915 139.866,183.727 139.947,184.615 139.966 C 185.690 139.988,186.294 140.082,186.421 140.248 C 186.680 140.586,190.380 140.560,190.722 140.218 C 190.875 140.065,191.539 139.981,192.593 139.981 C 193.491 139.981,194.307 139.900,194.406 139.801 C 194.506 139.702,194.959 139.600,195.415 139.573 C 195.879 139.546,196.284 139.416,196.337 139.278 C 196.389 139.142,196.672 139.031,196.966 139.031 C 197.655 139.031,198.127 138.848,197.993 138.632 C 197.936 138.538,198.150 138.462,198.469 138.462 C 198.859 138.462,199.050 138.368,199.050 138.177 C 199.050 138.020,199.179 137.892,199.335 137.892 C 199.492 137.892,199.620 137.802,199.620 137.692 C 199.620 137.582,199.877 137.403,200.190 137.293 C 200.503 137.184,200.760 137.018,200.760 136.923 C 200.760 136.829,200.827 136.774,200.908 136.800 C 201.085 136.856,202.279 135.671,202.279 135.439 C 202.279 135.351,202.407 135.173,202.564 135.043 C 202.721 134.913,202.849 134.646,202.849 134.450 C 202.849 134.254,202.977 134.093,203.134 134.093 C 203.308 134.093,203.419 133.916,203.419 133.639 C 203.419 133.389,203.547 133.135,203.704 133.075 C 203.860 133.015,203.989 132.758,203.989 132.505 C 203.989 132.252,204.117 131.995,204.274 131.935 C 204.450 131.867,204.558 131.578,204.558 131.175 C 204.558 130.772,204.667 130.483,204.843 130.416 C 205.056 130.334,205.128 129.995,205.128 129.077 C 205.128 128.401,205.214 127.795,205.318 127.730 C 205.441 127.655,205.508 124.313,205.508 118.329 C 205.508 112.344,205.441 109.003,205.318 108.927 C 205.214 108.862,205.125 108.238,205.121 107.539 C 205.118 106.797,205.002 106.070,204.843 105.793 C 204.694 105.532,204.569 105.038,204.565 104.695 C 204.561 104.321,204.444 104.028,204.274 103.962 C 204.098 103.895,203.989 103.606,203.989 103.209 C 203.989 102.854,203.911 102.564,203.817 102.564 C 203.723 102.564,203.553 102.329,203.440 102.042 C 203.211 101.461,202.827 100.814,202.616 100.657 C 202.541 100.600,202.447 100.348,202.409 100.097 C 202.371 99.846,202.240 99.607,202.119 99.567 C 201.998 99.527,201.899 99.372,201.899 99.224 C 201.899 99.076,201.771 98.955,201.614 98.955 C 201.437 98.955,201.330 98.776,201.330 98.481 C 201.330 98.185,201.222 98.006,201.045 98.006 C 200.888 98.006,200.760 97.877,200.760 97.721 C 200.760 97.564,200.632 97.436,200.475 97.436 C 200.318 97.436,200.190 97.308,200.190 97.151 C 200.190 96.994,200.110 96.866,200.013 96.866 C 199.915 96.866,199.781 96.694,199.714 96.483 C 199.647 96.273,199.535 96.136,199.464 96.179 C 199.393 96.222,199.126 95.924,198.870 95.517 C 198.614 95.110,198.336 94.777,198.252 94.777 C 198.169 94.777,198.101 94.649,198.101 94.492 C 198.101 94.335,198.012 94.207,197.903 94.207 C 197.795 94.207,197.350 93.865,196.915 93.447 C 196.481 93.029,195.971 92.688,195.783 92.688 C 195.595 92.688,195.442 92.559,195.442 92.403 C 195.442 92.246,195.313 92.118,195.157 92.118 C 195.000 92.118,194.872 92.031,194.872 91.925 C 194.872 91.592,192.906 89.851,192.260 89.611 C 191.921 89.485,191.643 89.310,191.643 89.222 C 191.643 89.133,191.429 88.863,191.168 88.621 C 190.907 88.379,190.693 88.084,190.693 87.965 C 190.693 87.846,190.596 87.749,190.478 87.749 C 190.359 87.749,190.064 87.536,189.822 87.274 C 189.580 87.013,189.292 86.800,189.183 86.800 C 189.073 86.800,188.984 86.671,188.984 86.515 C 188.984 86.358,188.856 86.230,188.699 86.230 C 188.542 86.230,188.435 86.159,188.462 86.072 C 188.520 85.878,186.762 84.141,186.507 84.141 C 186.407 84.141,186.325 84.012,186.325 83.856 C 186.325 83.699,186.239 83.571,186.135 83.571 C 186.030 83.571,185.945 83.443,185.945 83.286 C 185.945 83.129,185.817 83.001,185.660 83.001 C 185.500 83.001,185.375 82.831,185.375 82.615 C 185.375 82.403,185.247 82.180,185.090 82.120 C 184.934 82.060,184.805 81.892,184.805 81.746 C 184.805 81.601,184.677 81.481,184.520 81.481 C 184.342 81.481,184.236 81.301,184.236 81.001 C 184.236 80.736,184.107 80.471,183.951 80.411 C 183.794 80.350,183.666 80.071,183.666 79.790 C 183.666 79.508,183.559 79.171,183.428 79.041 C 183.121 78.733,183.013 63.979,183.309 62.678 C 183.416 62.208,183.549 61.546,183.605 61.206 C 183.663 60.854,183.821 60.589,183.971 60.589 C 184.117 60.589,184.236 60.506,184.236 60.405 C 184.236 60.076,185.568 58.879,185.935 58.879 C 186.132 58.879,186.326 58.781,186.366 58.660 C 186.471 58.347,191.115 58.341,191.219 58.654 C 191.261 58.778,191.456 58.879,191.652 58.879 C 192.019 58.879,193.352 60.076,193.352 60.405 C 193.352 60.506,193.471 60.589,193.617 60.589 C 193.762 60.589,193.935 60.802,194.000 61.064 C 194.066 61.325,194.203 61.538,194.306 61.538 C 194.408 61.538,194.492 61.795,194.492 62.108 C 194.492 62.422,194.577 62.678,194.682 62.678 C 194.806 62.678,194.872 65.586,194.872 71.022 C 194.872 78.063,194.915 79.408,195.148 79.641 C 195.299 79.793,195.385 79.955,195.338 80.003 C 195.218 80.122,195.218 80.122,200.065 80.152 C 203.946 80.177,204.442 80.145,204.769 79.849 C 205.265 79.400,205.330 59.853,204.837 59.444 C 204.656 59.294,204.558 58.859,204.558 58.205 C 204.558 57.562,204.455 57.094,204.274 56.912 C 204.117 56.756,203.989 56.331,203.989 55.969 C 203.989 55.560,203.881 55.270,203.704 55.202 C 203.536 55.138,203.419 54.853,203.419 54.511 C 203.419 54.169,203.301 53.884,203.134 53.820 C 202.977 53.760,202.849 53.543,202.849 53.337 C 202.849 53.132,202.742 52.845,202.612 52.700 C 202.048 52.071,201.899 51.856,201.899 51.670 C 201.899 51.561,201.810 51.472,201.700 51.472 C 201.591 51.472,201.303 51.258,201.061 50.997 C 200.819 50.736,200.524 50.522,200.406 50.522 C 200.287 50.522,200.190 50.394,200.190 50.237 C 200.190 50.081,200.062 49.953,199.905 49.953 C 199.748 49.953,199.642 49.848,199.668 49.720 C 199.694 49.592,199.501 49.455,199.240 49.416 C 198.979 49.378,198.697 49.226,198.614 49.080 C 198.530 48.933,198.261 48.813,198.017 48.813 C 197.772 48.813,197.530 48.704,197.478 48.570 C 197.427 48.437,197.099 48.305,196.749 48.279 C 196.399 48.252,196.030 48.148,195.929 48.047 C 195.828 47.946,195.303 47.863,194.762 47.863 C 194.120 47.863,193.697 47.764,193.542 47.578 C 193.344 47.340,192.581 47.293,188.866 47.293 C 185.045 47.293,184.425 47.333,184.425 47.578 M283.692 47.578 C 283.620 47.765,283.324 47.863,282.828 47.863 C 282.413 47.863,282.025 47.941,281.967 48.037 C 281.908 48.132,281.518 48.268,281.101 48.338 C 280.683 48.409,280.342 48.544,280.342 48.640 C 280.342 48.735,280.223 48.813,280.077 48.813 C 279.932 48.813,279.766 48.934,279.709 49.083 C 279.652 49.232,279.408 49.383,279.166 49.420 C 278.925 49.457,278.749 49.592,278.775 49.720 C 278.801 49.848,278.694 49.953,278.538 49.953 C 278.381 49.953,278.253 50.081,278.253 50.237 C 278.253 50.394,278.092 50.522,277.896 50.522 C 277.700 50.522,277.433 50.651,277.303 50.807 C 277.173 50.964,276.949 51.092,276.805 51.092 C 276.661 51.092,276.565 51.158,276.591 51.238 C 276.617 51.319,276.443 51.595,276.203 51.852 C 275.964 52.109,275.720 52.513,275.661 52.750 C 275.601 52.987,275.433 53.181,275.288 53.181 C 275.143 53.181,275.024 53.310,275.024 53.466 C 275.024 53.623,274.896 53.751,274.739 53.751 C 274.507 53.751,274.451 53.423,274.439 51.994 C 274.423 49.960,274.361 49.510,274.084 49.418 C 273.974 49.381,273.884 49.228,273.884 49.079 C 273.884 48.848,273.189 48.814,269.373 48.857 L 264.862 48.908 264.810 93.542 C 264.782 118.091,264.805 138.369,264.862 138.604 L 264.965 139.031 270.184 139.031 L 275.404 139.031 275.404 101.134 C 275.404 67.622,275.437 63.223,275.689 63.127 C 275.845 63.066,275.973 62.823,275.973 62.586 C 275.973 62.349,276.102 62.048,276.258 61.918 C 276.415 61.788,276.543 61.521,276.543 61.325 C 276.543 61.129,276.632 60.969,276.740 60.969 C 276.985 60.969,278.063 59.881,278.063 59.633 C 278.063 59.532,278.267 59.449,278.517 59.449 C 278.767 59.449,279.021 59.321,279.081 59.164 C 279.141 59.008,279.400 58.879,279.655 58.879 C 279.911 58.879,280.149 58.800,280.184 58.702 C 280.218 58.604,280.714 58.472,281.284 58.407 C 281.854 58.343,282.426 58.203,282.554 58.097 C 282.712 57.965,282.904 57.966,283.150 58.098 C 283.350 58.205,283.975 58.345,284.540 58.409 C 285.104 58.472,285.594 58.604,285.628 58.702 C 285.663 58.800,285.813 58.879,285.961 58.879 C 286.109 58.879,286.230 58.969,286.230 59.078 C 286.230 59.188,286.448 59.466,286.714 59.696 C 286.980 59.926,287.212 60.306,287.229 60.541 C 287.246 60.776,287.370 60.969,287.505 60.969 C 287.703 60.969,287.749 68.245,287.749 99.702 C 287.749 134.822,287.777 138.463,288.051 138.736 C 288.314 138.999,289.017 139.031,293.606 138.987 L 298.860 138.936 298.907 98.772 C 298.947 63.319,298.919 58.590,298.669 58.449 C 298.467 58.336,298.386 57.965,298.386 57.155 C 298.386 56.320,298.310 55.989,298.101 55.909 C 297.914 55.838,297.816 55.542,297.816 55.054 C 297.816 54.567,297.717 54.271,297.531 54.200 C 297.374 54.140,297.246 53.893,297.246 53.651 C 297.246 53.182,296.675 52.045,296.439 52.043 C 296.360 52.042,296.296 51.871,296.296 51.662 C 296.296 51.266,295.676 50.522,295.347 50.522 C 295.242 50.522,295.157 50.394,295.157 50.237 C 295.157 50.081,295.028 49.953,294.872 49.953 C 294.715 49.953,294.587 49.824,294.587 49.668 C 294.587 49.511,294.459 49.383,294.302 49.383 C 294.145 49.383,294.017 49.299,294.017 49.196 C 294.017 49.094,293.810 48.958,293.556 48.894 C 293.302 48.831,293.049 48.658,292.992 48.511 C 292.936 48.364,292.673 48.243,292.409 48.243 C 292.144 48.243,291.928 48.158,291.928 48.053 C 291.928 47.949,291.552 47.863,291.093 47.863 C 290.527 47.863,290.224 47.772,290.150 47.578 C 290.059 47.341,289.519 47.293,286.921 47.293 C 284.323 47.293,283.783 47.341,283.692 47.578 M326.116 47.578 C 325.961 47.764,325.538 47.863,324.896 47.863 C 324.355 47.863,323.828 47.948,323.724 48.052 C 323.620 48.156,323.304 48.260,323.021 48.283 C 322.738 48.307,322.507 48.398,322.507 48.486 C 322.507 48.574,322.422 48.593,322.317 48.528 C 322.213 48.463,322.127 48.501,322.127 48.612 C 322.127 48.722,321.962 48.813,321.761 48.813 C 321.559 48.813,321.266 48.941,321.110 49.098 C 320.953 49.255,320.733 49.383,320.621 49.383 C 320.509 49.383,320.418 49.470,320.418 49.577 C 320.418 49.684,320.210 49.851,319.955 49.948 C 319.235 50.222,317.353 51.911,317.134 52.480 C 317.067 52.657,316.923 52.802,316.815 52.802 C 316.707 52.802,316.619 53.015,316.619 53.276 C 316.619 53.555,316.521 53.732,316.382 53.704 C 316.248 53.677,316.118 53.885,316.084 54.179 C 316.050 54.477,315.908 54.701,315.752 54.701 C 315.575 54.701,315.480 54.903,315.480 55.277 C 315.480 55.593,315.368 55.895,315.231 55.948 C 315.094 56.000,314.962 56.397,314.936 56.840 C 314.910 57.279,314.778 57.767,314.642 57.926 C 314.506 58.085,314.376 58.769,314.353 59.449 C 314.331 60.128,314.233 60.712,314.136 60.747 C 313.899 60.832,313.902 78.549,314.139 78.992 C 314.237 79.175,314.336 79.904,314.359 80.610 C 314.383 81.354,314.504 81.998,314.646 82.141 C 314.781 82.276,314.912 82.738,314.938 83.168 C 314.967 83.661,315.076 83.951,315.232 83.951 C 315.368 83.951,315.480 84.160,315.480 84.416 C 315.480 84.672,315.600 84.950,315.746 85.033 C 315.893 85.117,316.044 85.399,316.083 85.660 C 316.122 85.921,316.258 86.113,316.386 86.087 C 316.514 86.061,316.619 86.200,316.619 86.396 C 316.619 86.593,316.747 86.860,316.904 86.990 C 317.061 87.120,317.189 87.305,317.189 87.402 C 317.189 87.498,317.403 87.776,317.664 88.018 C 317.925 88.260,318.139 88.503,318.139 88.559 C 318.139 88.661,318.905 89.600,319.516 90.247 C 319.698 90.440,319.848 90.684,319.848 90.788 C 319.848 90.893,319.976 90.978,320.133 90.978 C 320.290 90.978,320.396 91.045,320.370 91.127 C 320.311 91.314,321.506 92.498,321.754 92.498 C 321.855 92.498,321.937 92.626,321.937 92.783 C 321.937 92.939,322.066 93.067,322.222 93.067 C 322.379 93.067,322.507 93.150,322.507 93.251 C 322.507 93.499,323.691 94.694,323.878 94.634 C 323.960 94.608,324.027 94.715,324.027 94.872 C 324.027 95.028,324.137 95.157,324.273 95.157 C 324.408 95.157,324.729 95.409,324.985 95.718 C 325.241 96.027,325.606 96.284,325.795 96.288 C 325.984 96.293,326.085 96.382,326.021 96.486 C 325.956 96.591,325.987 96.676,326.090 96.676 C 326.193 96.676,326.533 96.933,326.846 97.246 C 327.160 97.559,327.508 97.816,327.621 97.816 C 327.733 97.816,327.825 97.908,327.825 98.021 C 327.825 98.288,330.012 100.475,330.279 100.475 C 330.392 100.475,330.484 100.603,330.484 100.760 C 330.484 100.916,330.613 101.045,330.769 101.045 C 330.926 101.045,331.054 101.173,331.054 101.330 C 331.054 101.486,331.054 101.657,331.054 101.709 C 331.054 101.762,331.396 102.146,331.814 102.564 C 332.232 102.982,332.574 103.409,332.574 103.514 C 332.574 103.618,332.702 103.704,332.858 103.704 C 333.015 103.704,333.143 103.865,333.143 104.063 C 333.143 104.261,333.272 104.472,333.428 104.532 C 333.585 104.592,333.713 104.762,333.713 104.909 C 333.713 105.056,333.834 105.277,333.981 105.399 C 334.128 105.521,334.388 105.916,334.559 106.277 C 334.731 106.637,334.952 106.933,335.052 106.933 C 335.151 106.933,335.233 107.179,335.233 107.479 C 335.233 107.780,335.357 108.129,335.509 108.255 C 335.682 108.399,335.806 108.921,335.841 109.655 C 335.881 110.480,335.969 110.812,336.139 110.777 C 336.331 110.738,336.378 112.146,336.368 117.659 C 336.358 122.953,336.301 124.580,336.126 124.546 C 335.976 124.517,335.877 124.859,335.838 125.545 C 335.801 126.205,335.679 126.645,335.506 126.741 C 335.356 126.826,335.233 127.018,335.233 127.170 C 335.233 127.321,335.149 127.445,335.046 127.445 C 334.944 127.445,334.806 127.659,334.741 127.920 C 334.665 128.221,334.488 128.395,334.256 128.395 C 334.056 128.395,333.842 128.523,333.782 128.680 C 333.721 128.840,333.438 128.965,333.139 128.965 C 332.845 128.965,332.573 129.063,332.533 129.183 C 332.431 129.486,328.157 129.486,328.056 129.183 C 328.016 129.063,327.732 128.965,327.424 128.965 C 327.101 128.965,326.817 128.844,326.754 128.680 C 326.694 128.523,326.526 128.395,326.380 128.395 C 326.235 128.395,326.116 128.267,326.116 128.110 C 326.116 127.953,325.988 127.825,325.831 127.825 C 325.674 127.825,325.546 127.697,325.546 127.540 C 325.546 127.384,325.418 127.255,325.261 127.255 C 325.084 127.255,324.976 127.076,324.976 126.781 C 324.976 126.519,324.898 126.306,324.801 126.306 C 324.705 126.306,324.570 126.049,324.501 125.736 C 324.433 125.423,324.298 125.166,324.203 125.166 C 324.103 125.166,324.010 121.611,323.981 116.667 L 323.932 108.167 318.993 108.167 L 314.055 108.167 314.006 117.557 C 313.975 123.330,314.026 126.989,314.137 127.057 C 314.236 127.119,314.336 127.709,314.360 128.370 C 314.389 129.162,314.490 129.604,314.657 129.668 C 314.808 129.726,314.910 130.065,314.910 130.511 C 314.910 130.998,315.008 131.294,315.195 131.365 C 315.370 131.433,315.480 131.721,315.480 132.119 C 315.480 132.474,315.563 132.764,315.666 132.764 C 315.768 132.764,316.046 133.189,316.283 133.709 C 316.520 134.230,316.821 134.657,316.952 134.659 C 317.082 134.661,317.189 134.791,317.189 134.948 C 317.189 135.104,317.264 135.233,317.357 135.233 C 317.449 135.233,317.571 135.412,317.629 135.632 C 317.695 135.886,317.818 135.978,317.965 135.887 C 318.107 135.799,318.148 135.823,318.071 135.948 C 318.002 136.060,318.181 136.329,318.469 136.545 C 318.757 136.761,319.097 137.024,319.223 137.130 C 319.349 137.236,319.541 137.322,319.650 137.322 C 319.759 137.322,319.848 137.450,319.848 137.607 C 319.848 137.764,319.979 137.892,320.139 137.892 C 320.299 137.892,320.479 138.020,320.539 138.177 C 320.599 138.333,320.858 138.462,321.114 138.462 C 321.370 138.462,321.530 138.543,321.468 138.642 C 321.370 138.801,322.493 139.130,322.814 139.036 C 322.883 139.015,323.000 139.097,323.074 139.217 C 323.148 139.337,323.500 139.481,323.855 139.537 C 324.211 139.593,324.544 139.704,324.596 139.783 C 324.649 139.862,325.418 139.945,326.306 139.967 C 327.364 139.994,327.966 140.089,328.053 140.245 C 328.255 140.607,332.131 140.610,332.269 140.248 C 332.348 140.043,332.814 139.981,334.277 139.981 C 335.421 139.981,336.182 139.905,336.182 139.791 C 336.182 139.687,336.417 139.601,336.705 139.600 C 336.992 139.599,337.472 139.471,337.771 139.315 C 338.070 139.159,338.562 139.031,338.863 139.031 C 339.224 139.031,339.411 138.934,339.411 138.746 C 339.411 138.557,339.601 138.462,339.981 138.462 C 340.361 138.462,340.551 138.367,340.551 138.177 C 340.551 138.020,340.701 137.892,340.885 137.892 C 341.069 137.892,341.450 137.678,341.732 137.417 C 342.013 137.156,342.333 136.942,342.442 136.942 C 342.551 136.942,342.640 136.858,342.640 136.756 C 342.640 136.654,343.110 136.108,343.685 135.542 C 344.305 134.932,344.729 134.349,344.729 134.108 C 344.729 133.884,344.858 133.652,345.014 133.592 C 345.171 133.532,345.299 133.278,345.299 133.028 C 345.299 132.751,345.410 132.574,345.584 132.574 C 345.772 132.574,345.869 132.386,345.869 132.024 C 345.869 131.711,345.991 131.428,346.154 131.365 C 346.342 131.293,346.439 130.995,346.439 130.484 C 346.439 130.059,346.553 129.522,346.693 129.291 C 346.856 129.020,346.964 128.093,346.995 126.686 C 347.021 125.484,347.116 124.413,347.205 124.305 C 347.433 124.028,347.443 113.400,347.215 113.126 C 347.115 113.005,347.015 111.689,346.993 110.202 C 346.965 108.307,346.878 107.401,346.702 107.169 C 346.564 106.987,346.448 106.448,346.445 105.972 C 346.441 105.495,346.313 104.940,346.160 104.737 C 346.007 104.534,345.878 104.143,345.875 103.866 C 345.872 103.590,345.741 103.315,345.584 103.255 C 345.408 103.187,345.299 102.898,345.299 102.495 C 345.299 102.092,345.191 101.803,345.014 101.736 C 344.858 101.676,344.729 101.473,344.729 101.286 C 344.729 101.099,344.526 100.727,344.278 100.459 C 344.030 100.191,343.768 99.786,343.695 99.559 C 343.623 99.331,343.484 99.145,343.387 99.145 C 343.290 99.145,343.206 99.038,343.202 98.908 C 343.197 98.777,342.941 98.461,342.632 98.205 C 342.308 97.936,342.070 97.554,342.070 97.302 C 342.070 97.022,341.957 96.866,341.754 96.866 C 341.580 96.866,341.486 96.817,341.546 96.757 C 341.686 96.617,340.461 95.347,340.187 95.347 C 340.074 95.347,339.981 95.218,339.981 95.062 C 339.981 94.905,339.853 94.777,339.696 94.777 C 339.539 94.777,339.411 94.649,339.411 94.492 C 339.411 94.335,339.283 94.207,339.126 94.207 C 338.970 94.207,338.841 94.119,338.841 94.011 C 338.841 93.765,337.753 92.688,337.505 92.688 C 337.404 92.688,337.322 92.559,337.322 92.403 C 337.322 92.246,337.194 92.118,337.037 92.118 C 336.880 92.118,336.752 91.990,336.752 91.833 C 336.752 91.676,336.624 91.548,336.467 91.548 C 336.311 91.548,336.182 91.420,336.182 91.263 C 336.182 91.106,336.029 90.978,335.841 90.978 C 335.653 90.978,335.143 90.636,334.708 90.218 C 334.274 89.801,333.829 89.459,333.721 89.459 C 333.612 89.459,333.523 89.330,333.523 89.174 C 333.523 89.017,333.438 88.889,333.333 88.889 C 333.229 88.889,332.802 88.547,332.384 88.129 C 331.966 87.711,331.545 87.369,331.448 87.369 C 331.205 87.369,329.433 85.595,329.281 85.199 C 329.211 85.015,329.063 84.935,328.937 85.013 C 328.800 85.097,328.767 85.066,328.852 84.930 C 328.926 84.809,328.883 84.710,328.754 84.710 C 328.626 84.710,328.573 84.659,328.636 84.596 C 328.698 84.534,328.499 84.238,328.192 83.938 C 327.886 83.639,327.635 83.338,327.635 83.270 C 327.635 83.202,327.293 82.815,326.876 82.409 C 326.458 82.004,326.116 81.541,326.116 81.381 C 326.116 81.221,325.988 81.040,325.831 80.980 C 325.669 80.918,325.546 80.635,325.546 80.322 C 325.546 79.975,325.447 79.772,325.278 79.772 C 324.771 79.772,324.290 63.859,324.782 63.366 C 324.889 63.259,324.976 62.757,324.976 62.249 C 324.976 61.675,325.049 61.371,325.168 61.445 C 325.275 61.511,325.412 61.306,325.476 60.984 C 325.540 60.666,325.654 60.443,325.730 60.490 C 325.806 60.537,325.981 60.366,326.118 60.111 C 326.255 59.855,326.516 59.598,326.699 59.540 C 326.881 59.482,327.078 59.310,327.137 59.157 C 327.196 59.004,327.400 58.879,327.591 58.879 C 327.783 58.879,328.039 58.780,328.160 58.658 C 328.473 58.346,332.425 58.337,332.529 58.649 C 332.571 58.776,332.845 58.879,333.139 58.879 C 333.438 58.879,333.721 59.005,333.782 59.164 C 333.842 59.321,334.004 59.449,334.142 59.449 C 334.395 59.449,335.802 61.195,335.802 61.510 C 335.802 61.605,335.931 61.788,336.087 61.918 C 336.333 62.122,336.372 63.331,336.372 70.653 C 336.372 78.963,336.381 79.162,336.766 79.651 L 337.160 80.152 341.617 80.152 C 345.685 80.152,346.108 80.121,346.450 79.802 C 346.883 79.399,347.062 61.904,346.635 61.762 C 346.520 61.724,346.439 61.003,346.439 60.017 C 346.439 58.777,346.364 58.262,346.154 58.052 C 345.976 57.873,345.869 57.407,345.869 56.804 C 345.869 56.074,345.800 55.840,345.584 55.840 C 345.378 55.840,345.299 55.629,345.299 55.081 C 345.299 54.532,345.220 54.321,345.014 54.321 C 344.855 54.321,344.729 54.152,344.729 53.939 C 344.729 53.493,344.359 52.773,344.017 52.555 C 343.887 52.471,343.779 52.300,343.779 52.175 C 343.778 51.884,342.535 50.522,342.270 50.522 C 342.160 50.522,342.070 50.394,342.070 50.237 C 342.070 50.060,341.891 49.953,341.595 49.953 C 341.318 49.953,341.121 49.843,341.121 49.690 C 341.121 49.545,340.971 49.377,340.788 49.315 C 340.605 49.254,340.328 49.123,340.171 49.024 C 339.600 48.664,338.490 48.243,338.112 48.243 C 337.899 48.243,337.671 48.158,337.607 48.053 C 337.542 47.949,336.992 47.863,336.384 47.863 C 335.634 47.863,335.203 47.772,335.043 47.578 C 334.846 47.341,334.105 47.293,330.579 47.293 C 327.054 47.293,326.313 47.341,326.116 47.578 M371.176 47.420 C 371.045 47.473,370.986 47.594,371.045 47.690 C 371.105 47.786,370.723 47.863,370.189 47.863 C 369.659 47.863,369.077 47.934,368.896 48.021 C 368.714 48.108,368.281 48.322,367.933 48.496 C 367.585 48.670,367.179 48.813,367.031 48.813 C 366.883 48.813,366.762 48.890,366.762 48.984 C 366.762 49.079,366.505 49.245,366.192 49.354 C 365.878 49.464,365.622 49.643,365.622 49.753 C 365.622 49.863,365.494 49.953,365.337 49.953 C 365.180 49.953,365.052 50.040,365.052 50.147 C 365.052 50.254,364.839 50.423,364.577 50.522 C 364.316 50.622,364.103 50.790,364.103 50.897 C 364.103 51.005,363.974 51.092,363.818 51.092 C 363.661 51.092,363.533 51.235,363.533 51.409 C 363.533 51.583,363.479 51.672,363.414 51.607 C 363.305 51.497,362.393 52.679,362.393 52.931 C 362.393 52.992,362.179 53.241,361.918 53.483 C 361.657 53.725,361.443 54.101,361.443 54.318 C 361.443 54.535,361.315 54.762,361.159 54.822 C 361.002 54.882,360.874 55.129,360.874 55.370 C 360.874 55.611,360.783 55.839,360.672 55.876 C 360.560 55.913,360.421 56.303,360.362 56.743 C 360.303 57.182,360.189 57.502,360.109 57.452 C 359.889 57.316,359.734 57.866,359.734 58.784 C 359.734 59.251,359.636 59.640,359.509 59.683 C 359.362 59.731,359.260 60.387,359.218 61.550 C 359.182 62.536,359.066 63.642,358.961 64.008 C 358.404 65.931,358.948 127.975,359.523 128.167 C 359.639 128.205,359.734 128.608,359.734 129.062 C 359.734 129.533,359.853 130.007,360.012 130.165 C 360.164 130.318,360.310 130.749,360.335 131.123 C 360.360 131.497,360.492 131.845,360.627 131.897 C 360.763 131.949,360.874 132.211,360.874 132.479 C 360.874 132.746,361.002 133.015,361.159 133.075 C 361.315 133.135,361.443 133.350,361.443 133.553 C 361.443 133.755,361.657 134.119,361.918 134.361 C 362.179 134.603,362.393 134.898,362.393 135.017 C 362.393 135.136,362.473 135.233,362.571 135.233 C 362.669 135.233,362.937 135.568,363.167 135.977 C 363.397 136.387,363.723 136.769,363.892 136.826 C 364.344 136.981,364.936 137.384,365.109 137.654 C 365.193 137.785,365.385 137.892,365.537 137.892 C 365.688 137.892,365.812 137.976,365.812 138.078 C 365.812 138.181,366.026 138.318,366.287 138.384 C 366.548 138.449,366.762 138.622,366.762 138.767 C 366.762 138.912,366.938 139.031,367.154 139.031 C 367.370 139.031,367.733 139.134,367.961 139.260 C 368.189 139.386,368.588 139.520,368.846 139.557 C 369.105 139.595,369.404 139.694,369.511 139.778 C 369.618 139.862,370.389 139.946,371.225 139.965 C 372.177 139.987,372.815 140.089,372.934 140.238 C 373.065 140.402,373.684 140.468,374.929 140.451 C 377.156 140.420,377.259 140.406,377.113 140.171 C 377.039 140.051,377.527 139.981,378.444 139.981 C 379.240 139.981,380.048 139.898,380.238 139.796 C 380.429 139.694,380.855 139.590,381.186 139.565 C 381.517 139.539,381.879 139.409,381.991 139.275 C 382.102 139.141,382.387 139.031,382.624 139.031 C 382.861 139.031,383.104 138.903,383.165 138.746 C 383.225 138.590,383.490 138.462,383.755 138.462 C 384.055 138.462,384.236 138.355,384.236 138.177 C 384.236 138.018,384.404 137.892,384.615 137.892 C 384.824 137.892,385.337 137.550,385.755 137.132 C 386.173 136.714,386.600 136.372,386.705 136.372 C 386.809 136.372,386.895 136.244,386.895 136.087 C 386.895 135.931,387.023 135.802,387.179 135.802 C 387.336 135.802,387.464 135.720,387.464 135.619 C 387.464 135.518,387.721 135.173,388.034 134.853 C 388.348 134.532,388.604 134.102,388.604 133.897 C 388.604 133.691,388.689 133.523,388.794 133.523 C 388.898 133.523,388.984 133.310,388.984 133.048 C 388.984 132.753,389.091 132.574,389.269 132.574 C 389.459 132.574,389.554 132.384,389.554 132.004 C 389.554 131.624,389.649 131.434,389.839 131.434 C 390.036 131.434,390.123 131.236,390.123 130.792 C 390.123 130.440,390.252 130.045,390.408 129.915 C 390.581 129.772,390.693 129.356,390.693 128.862 C 390.693 128.379,390.790 128.015,390.931 127.968 C 391.178 127.886,391.409 102.990,391.172 102.039 L 391.064 101.608 386.083 101.659 L 381.102 101.709 381.053 112.773 C 381.021 119.929,380.937 123.837,380.815 123.837 C 380.712 123.837,380.627 124.254,380.627 124.763 C 380.627 125.355,380.524 125.775,380.342 125.926 C 380.185 126.056,380.057 126.262,380.057 126.384 C 380.057 126.759,378.392 128.390,377.930 128.468 C 377.689 128.509,377.514 128.637,377.540 128.753 C 377.634 129.169,372.642 129.080,372.403 128.661 C 372.319 128.515,372.130 128.395,371.982 128.395 C 371.579 128.395,370.370 127.108,370.370 126.679 C 370.370 126.474,370.242 126.306,370.085 126.306 C 369.838 126.306,369.676 125.578,369.778 124.929 C 369.790 124.850,369.715 124.786,369.611 124.786 C 369.486 124.786,369.421 119.722,369.421 109.973 L 369.421 95.160 380.294 95.111 L 391.168 95.062 391.168 77.414 C 391.168 63.464,391.118 59.749,390.931 59.687 C 390.789 59.639,390.693 59.274,390.693 58.782 C 390.693 58.302,390.574 57.838,390.408 57.672 C 390.252 57.515,390.123 57.125,390.123 56.804 C 390.123 56.483,390.041 56.220,389.941 56.220 C 389.840 56.220,389.666 55.878,389.554 55.461 C 389.441 55.043,389.288 54.700,389.214 54.699 C 389.140 54.697,388.915 54.356,388.716 53.939 C 388.516 53.522,388.281 53.181,388.194 53.181 C 388.106 53.181,388.034 53.053,388.034 52.896 C 388.034 52.740,387.927 52.609,387.797 52.607 C 387.666 52.604,387.403 52.262,387.211 51.847 C 387.020 51.432,386.742 51.092,386.594 51.092 C 386.446 51.092,386.325 50.982,386.325 50.848 C 386.325 50.713,386.151 50.590,385.938 50.574 C 385.725 50.558,385.321 50.283,385.041 49.964 C 384.760 49.644,384.345 49.383,384.119 49.383 C 383.892 49.383,383.657 49.255,383.597 49.098 C 383.537 48.941,383.335 48.810,383.149 48.807 C 382.963 48.804,382.645 48.675,382.442 48.522 C 382.240 48.369,381.881 48.243,381.646 48.243 C 381.411 48.243,381.166 48.158,381.102 48.053 C 381.037 47.949,380.528 47.863,379.971 47.863 C 379.246 47.863,378.927 47.782,378.849 47.578 C 378.741 47.297,371.835 47.154,371.176 47.420 M216.904 50.579 C 216.904 51.551,216.981 52.427,217.074 52.526 C 217.167 52.625,217.284 53.464,217.334 54.389 C 217.384 55.315,217.516 56.129,217.628 56.198 C 217.744 56.270,217.848 57.047,217.869 57.987 C 217.894 59.126,217.984 59.693,218.154 59.788 C 218.324 59.883,218.413 60.448,218.438 61.577 C 218.465 62.770,218.547 63.254,218.734 63.326 C 218.927 63.400,218.993 63.867,218.993 65.141 C 218.993 66.539,219.046 66.857,219.278 66.857 C 219.510 66.857,219.563 67.169,219.563 68.528 C 219.563 69.447,219.643 70.281,219.740 70.380 C 219.837 70.479,219.952 71.274,219.996 72.146 C 220.040 73.018,220.168 73.788,220.281 73.858 C 220.397 73.930,220.502 74.686,220.523 75.597 C 220.547 76.609,220.653 77.315,220.811 77.496 C 220.969 77.678,221.074 78.388,221.097 79.432 C 221.124 80.624,221.206 81.108,221.393 81.180 C 221.584 81.253,221.652 81.702,221.652 82.877 C 221.652 84.065,221.725 84.534,221.937 84.710 C 222.146 84.883,222.222 85.342,222.222 86.420 C 222.222 87.497,222.299 87.956,222.507 88.129 C 222.718 88.304,222.792 88.770,222.792 89.919 C 222.792 90.773,222.872 91.553,222.970 91.652 C 223.068 91.752,223.166 92.559,223.188 93.447 C 223.211 94.380,223.332 95.222,223.475 95.442 C 223.611 95.652,223.738 96.473,223.759 97.284 C 223.785 98.311,223.873 98.775,224.054 98.845 C 224.242 98.917,224.311 99.372,224.311 100.541 C 224.311 101.729,224.384 102.198,224.596 102.374 C 224.808 102.549,224.881 103.017,224.881 104.179 C 224.881 105.341,224.955 105.808,225.166 105.983 C 225.377 106.158,225.451 106.624,225.451 107.773 C 225.451 108.627,225.527 109.407,225.621 109.506 C 225.714 109.605,225.832 110.392,225.882 111.253 C 225.932 112.115,226.064 112.928,226.174 113.061 C 226.284 113.193,226.399 114.015,226.429 114.887 C 226.467 115.957,226.564 116.504,226.728 116.567 C 226.898 116.632,226.971 117.132,226.971 118.240 C 226.971 119.392,227.048 119.898,227.255 120.106 C 227.459 120.309,227.540 120.805,227.540 121.842 C 227.540 122.879,227.622 123.375,227.825 123.579 C 228.031 123.785,228.110 124.286,228.110 125.382 C 228.110 126.217,228.185 127.045,228.278 127.220 C 228.370 127.396,228.488 128.256,228.540 129.130 C 228.593 130.004,228.722 130.773,228.827 130.839 C 228.932 130.905,229.049 131.721,229.087 132.653 C 229.133 133.785,229.235 134.373,229.393 134.426 C 229.752 134.545,229.714 138.067,229.346 138.772 C 229.184 139.082,229.062 139.820,229.061 140.487 C 229.060 141.174,228.973 141.688,228.850 141.729 C 228.734 141.767,228.598 142.180,228.546 142.647 C 228.495 143.113,228.376 143.576,228.282 143.675 C 228.187 143.774,228.110 144.089,228.110 144.374 C 228.110 144.659,227.982 145.020,227.825 145.177 C 227.669 145.334,227.540 145.682,227.540 145.950 C 227.540 146.258,227.435 146.439,227.255 146.439 C 227.099 146.439,226.971 146.536,226.971 146.654 C 226.971 146.773,226.757 147.068,226.496 147.310 C 226.235 147.552,226.021 147.819,226.021 147.903 C 226.021 148.559,220.202 148.947,219.470 148.340 C 219.326 148.220,218.925 148.149,218.578 148.183 L 217.949 148.243 217.898 153.704 L 217.848 159.164 218.970 159.164 C 219.792 159.164,220.122 159.240,220.202 159.449 C 220.365 159.875,227.636 159.875,227.799 159.449 C 227.876 159.249,228.188 159.164,228.853 159.164 C 229.372 159.164,229.850 159.079,229.915 158.974 C 229.979 158.870,230.192 158.784,230.387 158.784 C 230.582 158.784,230.870 158.656,231.027 158.500 C 231.184 158.343,231.532 158.215,231.800 158.215 C 232.108 158.215,232.289 158.109,232.289 157.930 C 232.289 157.770,232.458 157.645,232.675 157.645 C 232.887 157.645,233.110 157.517,233.170 157.360 C 233.230 157.203,233.398 157.075,233.544 157.075 C 233.689 157.075,233.808 156.947,233.808 156.790 C 233.808 156.633,233.897 156.505,234.005 156.505 C 234.330 156.505,235.891 154.794,236.014 154.303 C 236.077 154.052,236.205 153.846,236.298 153.846 C 236.391 153.846,236.467 153.718,236.467 153.561 C 236.467 153.405,236.595 153.276,236.752 153.276 C 236.926 153.276,237.037 153.099,237.037 152.822 C 237.037 152.572,237.165 152.318,237.322 152.258 C 237.479 152.198,237.607 151.969,237.607 151.749 C 237.607 151.530,237.735 151.222,237.892 151.065 C 238.143 150.814,238.275 150.260,238.194 149.796 C 238.179 149.710,238.255 149.694,238.362 149.760 C 238.469 149.826,238.561 149.854,238.566 149.821 C 238.571 149.789,238.623 149.378,238.680 148.908 C 238.737 148.438,238.861 147.972,238.955 147.873 C 239.049 147.774,239.126 147.291,239.126 146.801 C 239.126 146.184,239.214 145.876,239.411 145.800 C 239.611 145.723,239.696 145.411,239.696 144.749 C 239.696 144.165,239.804 143.699,239.981 143.522 C 240.175 143.327,240.266 142.847,240.266 142.011 C 240.266 141.292,240.383 140.559,240.550 140.240 C 240.713 139.926,240.834 139.189,240.835 138.497 C 240.835 137.837,240.934 137.113,241.055 136.887 C 241.176 136.662,241.312 135.792,241.358 134.953 C 241.404 134.114,241.519 133.347,241.614 133.248 C 241.708 133.149,241.785 132.398,241.785 131.579 C 241.785 130.602,241.880 129.947,242.060 129.670 C 242.233 129.405,242.348 128.673,242.371 127.688 C 242.392 126.829,242.473 126.166,242.552 126.215 C 242.806 126.372,242.925 125.739,242.925 124.224 C 242.925 123.140,243.001 122.680,243.210 122.507 C 243.421 122.332,243.495 121.864,243.495 120.695 C 243.495 119.829,243.578 119.091,243.680 119.057 C 243.886 118.987,244.022 118.141,244.087 116.536 C 244.110 115.955,244.200 115.480,244.287 115.480 C 244.374 115.480,244.444 114.710,244.444 113.770 C 244.444 112.537,244.508 112.074,244.673 112.108 C 244.950 112.166,244.961 112.100,244.991 110.066 C 245.010 108.769,245.070 108.452,245.299 108.452 C 245.528 108.452,245.584 108.159,245.584 106.954 C 245.584 105.995,245.686 105.261,245.868 104.912 C 246.042 104.579,246.152 103.844,246.153 103.013 C 246.153 102.182,246.264 101.447,246.438 101.114 C 246.612 100.780,246.722 100.045,246.722 99.209 C 246.723 98.460,246.809 97.819,246.912 97.784 C 247.016 97.749,247.157 96.927,247.226 95.957 C 247.295 94.987,247.424 94.149,247.512 94.094 C 247.601 94.039,247.673 93.326,247.673 92.510 C 247.673 91.421,247.749 90.962,247.958 90.788 C 248.172 90.610,248.243 90.132,248.243 88.860 C 248.243 87.608,248.310 87.142,248.502 87.068 C 248.685 86.998,248.770 86.531,248.796 85.459 C 248.816 84.629,248.956 83.653,249.108 83.291 C 249.259 82.929,249.383 82.075,249.383 81.393 C 249.383 80.710,249.454 80.152,249.541 80.152 C 249.729 80.152,249.733 80.130,249.877 78.063 C 249.938 77.175,250.066 76.367,250.161 76.268 C 250.255 76.169,250.332 75.388,250.332 74.534 C 250.332 73.385,250.407 72.919,250.617 72.745 C 250.824 72.573,250.904 72.110,250.908 71.059 C 250.912 70.088,251.006 69.489,251.193 69.242 C 251.386 68.987,251.472 68.391,251.472 67.315 C 251.472 66.176,251.541 65.731,251.731 65.658 C 251.917 65.587,252.000 65.100,252.026 63.906 C 252.046 62.971,252.167 62.078,252.305 61.849 C 252.438 61.626,252.569 60.845,252.595 60.114 C 252.622 59.383,252.722 58.703,252.818 58.604 C 252.913 58.505,252.991 57.725,252.991 56.870 C 252.991 55.721,253.066 55.256,253.276 55.081 C 253.488 54.905,253.561 54.434,253.561 53.240 C 253.561 52.066,253.638 51.558,253.846 51.350 C 254.035 51.161,254.131 50.686,254.131 49.936 L 254.131 48.807 248.860 48.857 L 243.590 48.908 243.534 49.668 C 243.503 50.085,243.354 50.697,243.202 51.026 C 243.049 51.355,242.925 52.171,242.925 52.840 C 242.925 53.508,242.831 54.150,242.715 54.265 C 242.600 54.380,242.461 55.145,242.406 55.965 C 242.352 56.784,242.244 57.498,242.167 57.550 C 242.090 57.602,242.010 58.414,241.988 59.354 C 241.960 60.608,241.877 61.103,241.678 61.215 C 241.473 61.330,241.406 61.790,241.406 63.073 C 241.406 64.414,241.345 64.803,241.121 64.889 C 240.897 64.974,240.836 65.358,240.836 66.665 C 240.836 67.775,240.741 68.515,240.552 68.877 C 240.373 69.220,240.268 69.957,240.267 70.877 C 240.266 71.737,240.183 72.361,240.064 72.400 C 239.946 72.440,239.818 73.339,239.757 74.553 C 239.699 75.700,239.576 76.719,239.484 76.819 C 239.392 76.918,239.316 77.882,239.316 78.961 C 239.316 80.530,239.259 80.946,239.031 81.033 C 238.802 81.121,238.746 81.547,238.746 83.211 C 238.746 84.765,238.687 85.268,238.509 85.233 C 238.333 85.197,238.258 85.745,238.217 87.366 C 238.178 88.946,238.093 89.585,237.909 89.689 C 237.725 89.791,237.644 90.375,237.620 91.774 C 237.602 92.843,237.510 93.810,237.415 93.924 C 237.231 94.146,237.075 95.490,237.013 97.388 C 236.992 98.041,236.903 98.575,236.816 98.575 C 236.729 98.575,236.657 99.462,236.657 100.547 C 236.657 102.067,236.592 102.572,236.372 102.754 C 236.151 102.938,236.087 103.451,236.087 105.047 C 236.087 106.632,236.025 107.138,235.816 107.256 C 235.499 107.433,235.522 107.296,235.503 109.164 C 235.494 109.974,235.444 110.529,235.391 110.398 C 235.338 110.266,235.217 110.207,235.121 110.266 C 235.020 110.329,234.948 109.419,234.948 108.083 C 234.948 105.289,234.975 105.538,234.649 105.356 C 234.437 105.237,234.378 104.695,234.378 102.863 C 234.378 101.013,234.318 100.472,234.093 100.285 C 233.867 100.097,233.808 99.549,233.808 97.641 C 233.808 96.316,233.732 95.151,233.640 95.052 C 233.547 94.953,233.425 93.805,233.367 92.502 C 233.305 91.086,233.182 90.105,233.061 90.064 C 232.937 90.023,232.858 89.317,232.857 88.256 C 232.857 87.083,232.764 86.337,232.572 85.971 C 232.379 85.599,232.288 84.846,232.286 83.597 C 232.283 81.647,232.160 80.851,231.887 81.020 C 231.793 81.078,231.719 80.142,231.719 78.896 C 231.719 77.215,231.651 76.593,231.443 76.363 C 231.238 76.137,231.160 75.466,231.137 73.737 C 231.114 71.895,231.053 71.415,230.843 71.415 C 230.633 71.415,230.579 70.958,230.579 69.152 C 230.579 67.907,230.505 66.860,230.414 66.825 C 230.323 66.790,230.205 65.843,230.153 64.721 C 230.100 63.598,229.966 62.569,229.854 62.434 C 229.742 62.299,229.635 61.364,229.616 60.355 C 229.591 59.000,229.514 58.496,229.321 58.422 C 229.124 58.346,229.060 57.859,229.060 56.430 C 229.060 55.001,228.990 54.468,228.775 54.253 C 228.564 54.042,228.490 53.526,228.490 52.266 C 228.490 50.927,228.429 50.540,228.205 50.454 C 228.017 50.381,227.920 50.084,227.920 49.579 L 227.920 48.813 222.412 48.813 L 216.904 48.813 216.904 50.579 M377.588 59.164 C 377.718 59.321,377.928 59.449,378.056 59.449 C 378.418 59.449,379.892 60.984,380.098 61.575 C 380.200 61.868,380.361 62.108,380.455 62.108 C 380.550 62.108,380.627 62.488,380.627 62.952 C 380.627 63.416,380.712 63.848,380.817 63.913 C 380.940 63.989,381.007 68.062,381.007 75.513 L 381.007 86.995 375.261 86.945 L 369.516 86.895 369.530 74.929 C 369.544 63.113,369.602 61.780,370.111 61.482 C 370.254 61.398,370.370 61.163,370.370 60.959 C 370.370 60.755,370.499 60.589,370.655 60.589 C 370.812 60.589,370.940 60.461,370.940 60.304 C 370.940 60.147,371.068 60.019,371.225 60.019 C 371.382 60.019,371.510 59.891,371.510 59.734 C 371.510 59.574,371.679 59.449,371.896 59.449 C 372.108 59.449,372.331 59.321,372.391 59.164 C 372.480 58.932,372.945 58.879,374.926 58.879 C 376.850 58.879,377.400 58.938,377.588 59.164 " stroke="none" fill="#6c6c6c" fill-rule="evenodd"></path><path id="path3" d="M98.264 13.243 C 97.566 13.307,96.426 14.055,97.027 14.055 C 97.185 14.055,97.246 15.108,97.246 17.854 C 97.246 20.260,97.176 21.652,97.056 21.652 C 96.952 21.652,96.866 21.781,96.866 21.937 C 96.866 22.094,96.952 22.222,97.056 22.222 C 97.171 22.222,97.246 23.045,97.246 24.311 C 97.246 25.578,97.171 26.401,97.056 26.401 C 96.952 26.401,96.866 26.529,96.866 26.686 C 96.866 26.842,96.952 26.971,97.056 26.971 C 97.325 26.971,97.293 28.557,97.018 28.832 C 96.841 29.009,96.841 29.110,97.018 29.288 C 97.309 29.578,97.345 36.087,97.056 36.087 C 96.952 36.087,96.866 36.216,96.866 36.372 C 96.866 36.529,96.952 36.657,97.056 36.657 C 97.177 36.657,97.246 38.272,97.246 41.121 C 97.246 43.970,97.177 45.584,97.056 45.584 C 96.952 45.584,96.866 45.840,96.866 46.154 C 96.866 46.467,96.952 46.724,97.056 46.724 C 97.178 46.724,97.246 48.528,97.246 51.757 C 97.246 54.986,97.178 56.790,97.056 56.790 C 96.952 56.790,96.866 57.047,96.866 57.360 C 96.866 57.673,96.952 57.930,97.056 57.930 C 97.160 57.930,97.246 58.400,97.246 58.974 C 97.246 59.549,97.160 60.019,97.056 60.019 C 96.952 60.019,96.866 60.147,96.866 60.304 C 96.866 60.461,96.952 60.589,97.056 60.589 C 97.160 60.589,97.246 60.931,97.246 61.349 C 97.246 61.766,97.160 62.108,97.056 62.108 C 96.952 62.108,96.866 62.236,96.866 62.393 C 96.866 62.550,96.952 62.678,97.056 62.678 C 97.160 62.678,97.246 63.148,97.246 63.723 C 97.246 64.297,97.160 64.767,97.056 64.767 C 96.952 64.767,96.866 65.024,96.866 65.337 C 96.866 65.651,96.939 65.907,97.029 65.907 C 97.316 65.907,97.307 75.248,97.019 75.431 C 96.829 75.551,96.827 75.588,97.009 75.591 C 97.139 75.592,97.246 75.807,97.246 76.068 C 97.246 76.330,97.160 76.543,97.056 76.543 C 96.952 76.543,96.866 76.671,96.866 76.828 C 96.866 76.985,96.945 77.113,97.042 77.113 C 97.139 77.113,97.213 78.042,97.208 79.202 C 97.203 80.351,97.124 81.292,97.032 81.292 C 96.941 81.292,96.866 81.548,96.866 81.861 C 96.866 82.175,96.952 82.431,97.056 82.431 C 97.160 82.431,97.246 82.773,97.246 83.191 C 97.246 83.609,97.160 83.951,97.056 83.951 C 96.952 83.951,96.866 84.335,96.866 84.805 C 96.866 85.275,96.952 85.660,97.056 85.660 C 97.160 85.660,97.246 85.874,97.246 86.135 C 97.246 86.396,97.160 86.610,97.056 86.610 C 96.952 86.610,96.866 86.738,96.866 86.895 C 96.866 87.051,96.952 87.179,97.056 87.179 C 97.160 87.179,97.246 87.564,97.246 88.034 C 97.246 88.504,97.160 88.889,97.056 88.889 C 96.952 88.889,96.866 89.103,96.866 89.364 C 96.866 89.625,96.952 89.839,97.056 89.839 C 97.177 89.839,97.246 91.485,97.246 94.397 C 97.246 97.309,97.177 98.955,97.056 98.955 C 96.952 98.955,96.866 99.212,96.866 99.525 C 96.866 99.839,96.952 100.095,97.056 100.095 C 97.160 100.095,97.246 100.437,97.246 100.855 C 97.246 101.273,97.160 101.614,97.056 101.614 C 96.951 101.614,96.866 102.121,96.866 102.754 C 96.866 103.387,96.951 103.894,97.056 103.894 C 97.169 103.894,97.246 104.622,97.246 105.698 C 97.246 106.774,97.169 107.502,97.056 107.502 C 96.952 107.502,96.866 107.631,96.866 107.787 C 96.866 107.944,96.952 108.072,97.056 108.072 C 97.160 108.072,97.246 108.542,97.246 109.117 C 97.246 109.691,97.160 110.161,97.056 110.161 C 96.952 110.161,96.866 110.290,96.866 110.446 C 96.866 110.603,96.952 110.731,97.056 110.731 C 97.165 110.731,97.246 111.301,97.246 112.061 C 97.246 112.821,97.165 113.390,97.056 113.390 C 96.952 113.390,96.866 113.519,96.866 113.675 C 96.866 113.832,96.952 113.960,97.056 113.960 C 97.332 113.960,97.290 114.861,97.009 114.974 C 96.819 115.051,96.819 115.073,97.009 115.085 C 97.172 115.095,97.246 115.478,97.246 116.318 C 97.246 117.116,97.164 117.570,97.009 117.633 C 96.819 117.710,96.819 117.732,97.009 117.744 C 97.292 117.762,97.341 119.387,97.063 119.559 C 96.950 119.629,96.967 119.861,97.108 120.172 C 97.288 120.565,97.286 120.689,97.101 120.751 C 96.821 120.844,96.783 121.368,97.056 121.368 C 97.160 121.368,97.246 121.709,97.246 122.127 C 97.246 122.545,97.160 122.887,97.056 122.887 C 96.952 122.887,96.866 123.015,96.866 123.172 C 96.866 123.329,96.952 123.457,97.056 123.457 C 97.162 123.457,97.246 123.963,97.246 124.596 C 97.246 125.230,97.162 125.736,97.056 125.736 C 96.952 125.736,96.866 125.864,96.866 126.021 C 96.866 126.178,96.957 126.306,97.067 126.306 C 97.306 126.306,97.269 131.413,97.028 131.733 C 96.943 131.846,96.977 132.209,97.102 132.541 C 97.273 132.995,97.276 133.283,97.114 133.712 C 96.989 134.045,96.971 134.326,97.073 134.388 C 97.314 134.537,97.298 139.031,97.056 139.031 C 96.952 139.031,96.866 139.160,96.866 139.316 C 96.866 139.473,96.952 139.601,97.056 139.601 C 97.160 139.601,97.246 139.815,97.246 140.076 C 97.246 140.337,97.160 140.551,97.056 140.551 C 96.952 140.551,96.866 140.679,96.866 140.836 C 96.866 140.992,96.952 141.121,97.056 141.121 C 97.352 141.121,97.305 145.244,97.009 145.363 C 96.819 145.440,96.819 145.462,97.009 145.474 C 97.172 145.484,97.246 145.867,97.246 146.708 C 97.246 147.505,97.164 147.960,97.009 148.022 C 96.819 148.099,96.819 148.121,97.009 148.133 C 97.303 148.152,97.351 151.187,97.056 151.187 C 96.952 151.187,96.866 151.443,96.866 151.757 C 96.866 152.070,96.952 152.327,97.056 152.327 C 97.170 152.327,97.246 153.086,97.246 154.226 C 97.246 155.366,97.170 156.125,97.056 156.125 C 96.952 156.125,96.866 156.595,96.866 157.170 C 96.866 157.745,96.952 158.215,97.056 158.215 C 97.332 158.215,97.290 159.115,97.009 159.228 C 96.819 159.305,96.819 159.327,97.009 159.339 C 97.303 159.358,97.351 162.393,97.056 162.393 C 96.952 162.393,96.866 162.521,96.866 162.678 C 96.866 162.835,96.952 162.963,97.056 162.963 C 97.160 162.963,97.246 163.433,97.246 164.008 C 97.246 164.582,97.160 165.052,97.056 165.052 C 96.952 165.052,96.866 165.180,96.866 165.337 C 96.866 165.494,96.952 165.622,97.056 165.622 C 97.160 165.622,97.246 165.861,97.246 166.154 C 97.246 166.446,97.351 166.790,97.479 166.918 C 97.662 167.102,97.654 167.240,97.441 167.574 C 97.266 167.846,97.189 168.393,97.221 169.116 C 97.256 169.884,97.193 170.287,97.022 170.396 C 96.832 170.516,96.829 170.555,97.009 170.557 C 97.600 170.565,97.252 171.485,96.629 171.563 C 96.094 171.629,96.119 171.643,96.819 171.670 C 97.268 171.686,97.626 171.794,97.626 171.912 C 97.626 172.036,97.428 172.086,97.151 172.033 C 96.854 171.977,96.676 172.029,96.676 172.174 C 96.676 172.338,97.388 172.444,99.098 172.534 C 104.285 172.808,106.449 172.592,106.989 171.747 C 107.073 171.617,107.308 171.510,107.512 171.510 C 107.716 171.510,107.882 171.382,107.882 171.225 C 107.882 171.068,108.010 170.940,108.167 170.940 C 108.324 170.940,108.452 170.822,108.452 170.679 C 108.452 170.535,108.580 170.310,108.737 170.180 C 108.894 170.050,109.022 169.793,109.022 169.608 C 109.022 169.423,109.150 169.222,109.307 169.162 C 109.496 169.090,109.592 168.791,109.592 168.276 C 109.592 167.806,109.667 167.545,109.782 167.616 C 110.009 167.757,109.919 18.798,109.691 17.477 C 109.610 17.009,109.422 16.537,109.274 16.429 C 109.126 16.321,108.990 16.041,108.973 15.808 C 108.955 15.575,108.831 15.385,108.697 15.385 C 108.562 15.385,108.452 15.256,108.452 15.100 C 108.452 14.943,108.324 14.815,108.167 14.815 C 108.010 14.815,107.882 14.687,107.882 14.530 C 107.882 14.373,107.791 14.245,107.679 14.245 C 107.567 14.245,107.347 14.117,107.190 13.960 C 107.034 13.803,106.750 13.675,106.559 13.675 C 106.369 13.675,106.164 13.547,106.104 13.390 C 105.998 13.114,100.762 13.016,98.264 13.243 M125.639 93.542 C 125.639 116.315,125.661 125.660,125.688 114.308 C 125.716 102.956,125.716 84.323,125.689 72.902 C 125.661 61.481,125.639 70.769,125.639 93.542 " stroke="none" fill="#7bb13c" fill-rule="evenodd"></path><path id="path4" d="M59.299 13.279 C 57.751 13.404,57.557 13.558,57.553 14.672 C 57.550 15.257,57.482 15.385,57.170 15.385 C 56.591 15.385,56.609 17.002,57.189 17.154 C 57.617 17.266,57.519 17.664,57.064 17.664 C 56.599 17.664,56.697 19.115,57.170 19.238 C 57.379 19.293,57.550 19.471,57.550 19.635 C 57.550 19.798,57.379 20.236,57.170 20.608 C 56.874 21.134,56.790 21.636,56.790 22.871 C 56.790 24.297,56.828 24.467,57.170 24.556 C 57.432 24.625,57.550 24.816,57.550 25.169 C 57.550 25.564,57.479 25.655,57.241 25.563 C 57.071 25.498,56.813 25.543,56.669 25.663 C 56.311 25.960,56.679 26.394,57.177 26.264 C 57.480 26.185,57.550 26.263,57.550 26.681 C 57.550 27.036,57.432 27.227,57.170 27.295 C 56.924 27.360,56.790 27.554,56.790 27.847 C 56.790 28.173,56.896 28.300,57.170 28.300 C 57.381 28.300,57.550 28.427,57.550 28.585 C 57.550 28.743,57.381 28.870,57.170 28.870 C 56.841 28.870,56.790 28.997,56.790 29.820 C 56.790 30.537,56.720 30.769,56.505 30.769 C 56.349 30.769,56.220 30.897,56.220 31.054 C 56.220 31.211,56.349 31.339,56.505 31.339 C 56.715 31.339,56.790 31.558,56.790 32.172 C 56.790 32.844,56.863 33.023,57.170 33.103 C 57.379 33.158,57.550 33.296,57.550 33.411 C 57.550 33.525,57.379 33.618,57.170 33.618 C 56.746 33.618,56.632 34.334,56.998 34.699 C 57.148 34.850,57.148 35.014,56.998 35.295 C 56.583 36.070,56.729 40.965,57.170 41.081 C 57.427 41.148,57.550 41.340,57.550 41.673 C 57.550 42.039,57.452 42.165,57.170 42.165 C 56.846 42.165,56.790 42.292,56.790 43.020 C 56.790 43.748,56.846 43.875,57.170 43.875 C 57.479 43.875,57.550 44.001,57.550 44.557 C 57.550 45.080,57.461 45.263,57.170 45.339 C 56.821 45.430,56.790 45.598,56.790 47.411 C 56.790 49.037,56.740 49.383,56.505 49.383 C 56.349 49.383,56.220 49.511,56.220 49.668 C 56.220 49.824,56.349 49.953,56.505 49.953 C 56.738 49.953,56.790 50.280,56.790 51.757 C 56.790 53.234,56.738 53.561,56.505 53.561 C 56.349 53.561,56.220 53.689,56.220 53.846 C 56.220 54.003,56.349 54.131,56.505 54.131 C 56.702 54.131,56.790 54.329,56.790 54.774 C 56.790 55.273,56.882 55.440,57.201 55.524 C 57.553 55.616,57.576 55.675,57.361 55.934 C 57.171 56.163,57.163 56.290,57.330 56.456 C 57.673 56.800,57.581 57.973,57.170 58.500 C 56.736 59.054,56.703 59.467,57.021 60.346 C 57.202 60.847,57.202 61.063,57.021 61.354 C 56.710 61.852,56.727 61.918,57.170 61.918 C 57.379 61.918,57.550 62.006,57.550 62.114 C 57.550 62.404,56.921 62.595,56.833 62.332 C 56.792 62.209,56.637 62.108,56.489 62.108 C 56.093 62.108,56.108 64.304,56.505 64.456 C 56.662 64.516,56.790 64.696,56.790 64.856 C 56.790 65.021,56.955 65.147,57.170 65.147 C 57.657 65.147,57.665 65.532,57.180 65.659 C 56.871 65.740,56.847 65.814,57.033 66.112 C 57.204 66.385,57.202 66.521,57.023 66.700 C 56.602 67.121,56.722 68.946,57.170 68.946 C 57.379 68.946,57.550 69.031,57.550 69.136 C 57.550 69.240,57.379 69.326,57.170 69.326 C 56.862 69.326,56.790 69.452,56.790 69.991 C 56.790 70.455,56.704 70.655,56.505 70.655 C 56.349 70.655,56.220 70.783,56.220 70.940 C 56.220 71.097,56.349 71.225,56.505 71.225 C 56.695 71.225,56.790 71.415,56.790 71.795 C 56.790 72.175,56.695 72.365,56.505 72.365 C 56.349 72.365,56.220 72.493,56.220 72.650 C 56.220 72.806,56.349 72.934,56.505 72.934 C 56.972 72.934,56.925 78.573,56.458 78.682 C 56.259 78.729,56.411 78.819,56.838 78.907 C 57.612 79.068,57.774 79.369,57.170 79.527 C 56.961 79.582,56.790 79.745,56.790 79.889 C 56.790 80.034,56.961 80.152,57.170 80.152 C 57.379 80.152,57.550 80.237,57.550 80.342 C 57.550 80.446,57.379 80.532,57.170 80.532 C 56.961 80.532,56.790 80.617,56.790 80.722 C 56.790 80.826,56.662 80.912,56.505 80.912 C 56.349 80.912,56.220 81.040,56.220 81.197 C 56.220 81.353,56.349 81.481,56.505 81.481 C 56.664 81.481,56.790 81.650,56.790 81.861 C 56.790 82.115,56.917 82.241,57.170 82.241 C 57.643 82.241,57.643 82.397,57.170 83.001 C 56.670 83.640,56.670 84.330,57.170 84.330 C 57.660 84.330,57.664 84.716,57.175 84.844 C 56.864 84.925,56.834 85.008,57.002 85.322 C 57.147 85.592,57.146 85.760,56.998 85.908 C 56.682 86.224,56.748 86.420,57.170 86.420 C 57.381 86.420,57.550 86.546,57.550 86.705 C 57.550 86.863,57.381 86.990,57.170 86.990 C 56.813 86.990,56.790 87.116,56.790 89.056 C 56.790 90.660,56.727 91.174,56.505 91.358 C 56.032 91.751,56.182 92.093,56.885 92.225 C 57.594 92.358,57.820 92.877,57.170 92.877 C 56.833 92.877,56.790 93.004,56.790 94.003 C 56.790 94.916,56.727 95.145,56.458 95.216 C 56.141 95.298,56.141 95.304,56.458 95.325 C 56.903 95.354,56.950 96.866,56.505 96.866 C 55.832 96.866,56.171 97.979,56.885 98.113 C 57.660 98.259,57.904 99.145,57.170 99.145 C 56.961 99.145,56.790 99.231,56.790 99.335 C 56.790 99.440,56.662 99.525,56.505 99.525 C 56.349 99.525,56.220 99.653,56.220 99.810 C 56.220 100.146,56.725 100.196,56.833 99.871 C 56.921 99.608,57.550 99.800,57.550 100.089 C 57.550 100.197,57.379 100.285,57.170 100.285 C 56.862 100.285,56.790 100.412,56.790 100.950 C 56.790 101.414,56.704 101.614,56.505 101.614 C 56.349 101.614,56.220 101.743,56.220 101.899 C 56.220 102.056,56.349 102.184,56.505 102.184 C 56.662 102.184,56.790 102.345,56.790 102.542 C 56.790 102.740,56.960 102.944,57.170 102.999 C 57.427 103.066,57.550 103.258,57.550 103.591 C 57.550 103.957,57.452 104.084,57.170 104.084 C 56.961 104.084,56.790 103.998,56.790 103.894 C 56.790 103.789,56.662 103.704,56.505 103.704 C 56.349 103.704,56.220 103.832,56.220 103.989 C 56.220 104.145,56.349 104.274,56.505 104.274 C 56.702 104.274,56.790 104.472,56.790 104.916 C 56.790 105.399,56.885 105.583,57.170 105.658 C 57.379 105.713,57.550 105.851,57.550 105.965 C 57.550 106.079,57.379 106.173,57.170 106.173 C 56.576 106.173,56.594 108.736,57.189 108.892 C 57.711 109.028,57.504 109.340,56.788 109.497 C 55.847 109.704,55.941 110.801,56.885 110.624 C 57.321 110.542,57.550 110.572,57.550 110.710 C 57.550 110.826,57.379 110.921,57.170 110.921 C 56.815 110.921,56.790 111.048,56.790 112.821 C 56.790 114.593,56.815 114.720,57.170 114.720 C 57.663 114.720,57.663 115.106,57.170 115.235 C 56.628 115.376,56.628 116.429,57.170 116.429 C 57.500 116.429,57.550 116.556,57.550 117.397 C 57.550 118.204,57.487 118.381,57.170 118.463 C 56.825 118.554,56.788 118.735,56.762 120.440 C 56.746 121.472,56.725 122.424,56.714 122.555 C 56.704 122.685,56.839 122.793,57.014 122.794 C 57.529 122.798,57.665 123.082,57.209 123.202 C 56.633 123.352,56.601 124.503,57.170 124.651 C 57.379 124.706,57.550 124.887,57.550 125.053 C 57.550 125.230,57.391 125.356,57.170 125.356 C 56.961 125.356,56.790 125.442,56.790 125.546 C 56.790 125.651,56.662 125.736,56.505 125.736 C 56.349 125.736,56.220 125.864,56.220 126.021 C 56.220 126.178,56.349 126.306,56.505 126.306 C 56.715 126.306,56.790 126.525,56.790 127.138 C 56.790 127.824,56.860 127.989,57.189 128.075 C 57.617 128.187,57.519 128.585,57.064 128.585 C 56.587 128.585,56.687 130.603,57.170 130.729 C 57.379 130.784,57.550 130.922,57.550 131.036 C 57.550 131.151,57.379 131.244,57.170 131.244 C 56.841 131.244,56.790 131.371,56.790 132.194 C 56.790 132.911,56.720 133.143,56.505 133.143 C 56.315 133.143,56.220 133.333,56.220 133.713 C 56.220 134.093,56.315 134.283,56.505 134.283 C 56.664 134.283,56.790 134.452,56.790 134.663 C 56.790 134.916,56.917 135.043,57.170 135.043 C 57.449 135.043,57.550 135.169,57.550 135.518 C 57.550 135.866,57.449 135.992,57.170 135.992 C 56.805 135.992,56.790 136.119,56.790 139.199 C 56.790 142.246,56.809 142.411,57.170 142.505 C 57.379 142.560,57.550 142.698,57.550 142.812 C 57.550 142.926,57.379 143.020,57.170 143.020 C 56.837 143.020,56.790 143.147,56.790 144.042 C 56.790 144.905,56.849 145.080,57.170 145.164 C 57.379 145.219,57.550 145.357,57.550 145.471 C 57.550 145.586,57.379 145.679,57.170 145.679 C 56.824 145.679,56.790 145.806,56.790 147.104 C 56.790 148.243,56.733 148.528,56.505 148.528 C 56.349 148.528,56.220 148.656,56.220 148.813 C 56.220 148.970,56.349 149.098,56.505 149.098 C 56.702 149.098,56.790 149.296,56.790 149.740 C 56.790 150.234,56.883 150.407,57.189 150.487 C 57.617 150.599,57.519 150.997,57.064 150.997 C 56.617 150.997,56.706 152.268,57.170 152.517 C 57.379 152.628,57.550 152.810,57.550 152.921 C 57.550 153.032,57.379 153.167,57.170 153.221 C 56.961 153.276,56.790 153.396,56.790 153.488 C 56.790 153.581,56.961 153.656,57.170 153.656 C 57.487 153.656,57.550 153.783,57.550 154.416 C 57.550 155.049,57.487 155.176,57.170 155.176 C 56.875 155.176,56.790 155.302,56.790 155.745 C 56.790 156.189,56.875 156.315,57.170 156.315 C 57.379 156.315,57.550 156.409,57.550 156.523 C 57.550 156.637,57.379 156.775,57.170 156.830 C 56.875 156.907,56.790 157.089,56.790 157.645 C 56.790 158.201,56.875 158.382,57.170 158.460 C 57.379 158.514,57.550 158.652,57.550 158.767 C 57.550 158.881,57.379 158.974,57.170 158.974 C 56.875 158.974,56.790 159.101,56.790 159.544 C 56.790 159.995,56.873 160.114,57.186 160.114 C 57.773 160.114,57.524 160.555,56.823 160.756 C 56.215 160.930,55.978 161.443,56.505 161.443 C 56.918 161.443,56.875 162.343,56.458 162.452 C 56.141 162.535,56.141 162.540,56.458 162.561 C 56.707 162.578,56.790 162.750,56.790 163.248 C 56.790 163.786,56.862 163.913,57.170 163.913 C 57.379 163.913,57.550 163.998,57.550 164.103 C 57.550 164.207,57.379 164.292,57.170 164.292 C 56.959 164.292,56.790 164.419,56.790 164.577 C 56.790 164.736,56.959 164.862,57.170 164.862 C 57.381 164.862,57.550 164.989,57.550 165.147 C 57.550 165.305,57.381 165.432,57.170 165.432 C 56.961 165.432,56.790 165.347,56.790 165.242 C 56.790 165.138,56.662 165.052,56.505 165.052 C 56.315 165.052,56.220 165.242,56.220 165.622 C 56.220 166.002,56.315 166.192,56.505 166.192 C 56.968 166.192,56.922 170.308,56.458 170.429 C 56.159 170.507,56.162 170.518,56.480 170.538 C 56.755 170.555,56.813 170.670,56.741 171.050 C 56.657 171.486,56.696 171.527,57.099 171.426 C 57.460 171.335,57.550 171.388,57.550 171.690 C 57.550 171.949,57.460 172.033,57.263 171.958 C 57.061 171.880,57.009 171.935,57.089 172.142 C 57.156 172.316,57.324 172.389,57.502 172.320 C 57.705 172.242,57.756 172.279,57.660 172.436 C 57.549 172.615,58.776 172.654,63.168 172.610 C 67.480 172.568,68.838 172.498,68.899 172.317 C 68.942 172.187,69.131 172.080,69.318 172.080 C 69.506 172.080,69.765 171.952,69.896 171.795 C 70.026 171.638,70.250 171.510,70.394 171.510 C 70.538 171.510,70.655 171.382,70.655 171.225 C 70.655 171.068,70.774 170.940,70.918 170.940 C 71.063 170.940,71.232 170.791,71.296 170.608 C 71.359 170.425,71.576 170.019,71.779 169.706 C 71.981 169.392,72.153 168.896,72.161 168.602 C 72.168 168.309,72.250 168.116,72.343 168.173 C 72.863 168.494,72.974 18.267,72.454 17.580 C 72.300 17.377,72.175 17.014,72.175 16.773 C 72.175 16.532,72.082 16.334,71.969 16.334 C 71.856 16.334,71.799 16.227,71.842 16.097 C 71.951 15.771,69.789 13.675,69.345 13.675 C 69.148 13.675,68.937 13.547,68.877 13.390 C 68.762 13.090,62.531 13.018,59.299 13.279 M92.168 13.389 C 92.081 13.545,91.783 13.691,91.507 13.714 C 91.231 13.737,91.037 13.807,91.076 13.869 C 91.114 13.932,90.889 14.191,90.575 14.446 C 90.261 14.701,89.835 15.276,89.629 15.723 C 89.422 16.171,89.172 16.487,89.072 16.425 C 88.841 16.282,88.848 168.599,89.079 169.136 C 89.168 169.345,89.249 169.430,89.258 169.326 C 89.267 169.221,89.465 169.520,89.699 169.991 C 89.932 170.461,90.232 170.915,90.365 170.999 C 90.498 171.084,90.555 171.236,90.493 171.336 C 90.431 171.437,90.451 171.507,90.537 171.492 C 91.019 171.408,91.549 171.541,91.553 171.747 C 91.566 172.426,92.790 172.651,96.257 172.611 C 98.107 172.590,98.958 172.544,98.148 172.508 C 97.089 172.462,96.676 172.373,96.676 172.193 C 96.676 172.028,96.839 171.974,97.151 172.033 C 97.428 172.086,97.626 172.036,97.626 171.912 C 97.626 171.794,97.268 171.686,96.819 171.670 C 96.119 171.643,96.094 171.629,96.629 171.563 C 97.252 171.485,97.600 170.565,97.009 170.557 C 96.829 170.555,96.832 170.516,97.022 170.396 C 97.193 170.287,97.256 169.884,97.221 169.116 C 97.189 168.393,97.266 167.846,97.441 167.574 C 97.654 167.240,97.662 167.102,97.479 166.918 C 97.351 166.790,97.246 166.446,97.246 166.154 C 97.246 165.861,97.160 165.622,97.056 165.622 C 96.952 165.622,96.866 165.494,96.866 165.337 C 96.866 165.180,96.952 165.052,97.056 165.052 C 97.160 165.052,97.246 164.582,97.246 164.008 C 97.246 163.433,97.160 162.963,97.056 162.963 C 96.952 162.963,96.866 162.835,96.866 162.678 C 96.866 162.521,96.952 162.393,97.056 162.393 C 97.347 162.393,97.301 159.408,97.009 159.290 C 96.819 159.213,96.819 159.191,97.009 159.179 C 97.288 159.162,97.335 158.215,97.056 158.215 C 96.952 158.215,96.866 157.745,96.866 157.170 C 96.866 156.595,96.952 156.125,97.056 156.125 C 97.170 156.125,97.246 155.366,97.246 154.226 C 97.246 153.086,97.170 152.327,97.056 152.327 C 96.952 152.327,96.866 152.070,96.866 151.757 C 96.866 151.443,96.952 151.187,97.056 151.187 C 97.347 151.187,97.301 148.202,97.009 148.084 C 96.819 148.007,96.819 147.985,97.009 147.973 C 97.172 147.963,97.246 147.580,97.246 146.739 C 97.246 145.942,97.164 145.488,97.009 145.425 C 96.819 145.348,96.819 145.326,97.009 145.314 C 97.307 145.295,97.354 141.121,97.056 141.121 C 96.952 141.121,96.866 140.992,96.866 140.836 C 96.866 140.679,96.952 140.551,97.056 140.551 C 97.160 140.551,97.246 140.337,97.246 140.076 C 97.246 139.815,97.160 139.601,97.056 139.601 C 96.952 139.601,96.866 139.473,96.866 139.316 C 96.866 139.160,96.952 139.031,97.056 139.031 C 97.298 139.031,97.314 134.537,97.073 134.388 C 96.971 134.326,96.989 134.045,97.114 133.712 C 97.276 133.283,97.273 132.995,97.102 132.541 C 96.977 132.209,96.943 131.846,97.028 131.733 C 97.269 131.413,97.306 126.306,97.067 126.306 C 96.957 126.306,96.866 126.178,96.866 126.021 C 96.866 125.864,96.952 125.736,97.056 125.736 C 97.162 125.736,97.246 125.230,97.246 124.596 C 97.246 123.963,97.162 123.457,97.056 123.457 C 96.952 123.457,96.866 123.329,96.866 123.172 C 96.866 123.015,96.952 122.887,97.056 122.887 C 97.160 122.887,97.246 122.545,97.246 122.127 C 97.246 121.709,97.160 121.368,97.056 121.368 C 96.783 121.368,96.821 120.844,97.101 120.751 C 97.286 120.689,97.288 120.565,97.108 120.172 C 96.967 119.861,96.950 119.629,97.063 119.559 C 97.335 119.391,97.289 117.808,97.009 117.695 C 96.819 117.618,96.819 117.596,97.009 117.584 C 97.172 117.574,97.246 117.190,97.246 116.350 C 97.246 115.553,97.164 115.098,97.009 115.036 C 96.819 114.959,96.819 114.937,97.009 114.925 C 97.288 114.907,97.335 113.960,97.056 113.960 C 96.952 113.960,96.866 113.832,96.866 113.675 C 96.866 113.519,96.952 113.390,97.056 113.390 C 97.165 113.390,97.246 112.821,97.246 112.061 C 97.246 111.301,97.165 110.731,97.056 110.731 C 96.952 110.731,96.866 110.603,96.866 110.446 C 96.866 110.290,96.952 110.161,97.056 110.161 C 97.160 110.161,97.246 109.691,97.246 109.117 C 97.246 108.542,97.160 108.072,97.056 108.072 C 96.952 108.072,96.866 107.944,96.866 107.787 C 96.866 107.631,96.952 107.502,97.056 107.502 C 97.169 107.502,97.246 106.774,97.246 105.698 C 97.246 104.622,97.169 103.894,97.056 103.894 C 96.951 103.894,96.866 103.387,96.866 102.754 C 96.866 102.121,96.951 101.614,97.056 101.614 C 97.160 101.614,97.246 101.273,97.246 100.855 C 97.246 100.437,97.160 100.095,97.056 100.095 C 96.952 100.095,96.866 99.839,96.866 99.525 C 96.866 99.212,96.952 98.955,97.056 98.955 C 97.177 98.955,97.246 97.309,97.246 94.397 C 97.246 91.485,97.177 89.839,97.056 89.839 C 96.952 89.839,96.866 89.625,96.866 89.364 C 96.866 89.103,96.952 88.889,97.056 88.889 C 97.160 88.889,97.246 88.504,97.246 88.034 C 97.246 87.564,97.160 87.179,97.056 87.179 C 96.952 87.179,96.866 87.051,96.866 86.895 C 96.866 86.738,96.952 86.610,97.056 86.610 C 97.160 86.610,97.246 86.396,97.246 86.135 C 97.246 85.874,97.160 85.660,97.056 85.660 C 96.952 85.660,96.866 85.275,96.866 84.805 C 96.866 84.335,96.952 83.951,97.056 83.951 C 97.160 83.951,97.246 83.609,97.246 83.191 C 97.246 82.773,97.160 82.431,97.056 82.431 C 96.952 82.431,96.866 82.175,96.866 81.861 C 96.866 81.548,96.941 81.292,97.032 81.292 C 97.124 81.292,97.203 80.351,97.208 79.202 C 97.213 78.042,97.139 77.113,97.042 77.113 C 96.945 77.113,96.866 76.985,96.866 76.828 C 96.866 76.671,96.952 76.543,97.056 76.543 C 97.160 76.543,97.246 76.330,97.246 76.068 C 97.246 75.807,97.139 75.592,97.009 75.591 C 96.827 75.588,96.829 75.551,97.019 75.431 C 97.307 75.248,97.316 65.907,97.029 65.907 C 96.939 65.907,96.866 65.651,96.866 65.337 C 96.866 65.024,96.952 64.767,97.056 64.767 C 97.160 64.767,97.246 64.297,97.246 63.723 C 97.246 63.148,97.160 62.678,97.056 62.678 C 96.952 62.678,96.866 62.550,96.866 62.393 C 96.866 62.236,96.952 62.108,97.056 62.108 C 97.160 62.108,97.246 61.766,97.246 61.349 C 97.246 60.931,97.160 60.589,97.056 60.589 C 96.952 60.589,96.866 60.461,96.866 60.304 C 96.866 60.147,96.952 60.019,97.056 60.019 C 97.160 60.019,97.246 59.549,97.246 58.974 C 97.246 58.400,97.160 57.930,97.056 57.930 C 96.952 57.930,96.866 57.673,96.866 57.360 C 96.866 57.047,96.952 56.790,97.056 56.790 C 97.178 56.790,97.246 54.986,97.246 51.757 C 97.246 48.528,97.178 46.724,97.056 46.724 C 96.952 46.724,96.866 46.467,96.866 46.154 C 96.866 45.840,96.952 45.584,97.056 45.584 C 97.177 45.584,97.246 43.970,97.246 41.121 C 97.246 38.272,97.177 36.657,97.056 36.657 C 96.952 36.657,96.866 36.529,96.866 36.372 C 96.866 36.216,96.952 36.087,97.056 36.087 C 97.345 36.087,97.309 29.578,97.018 29.288 C 96.841 29.110,96.841 29.009,97.018 28.832 C 97.293 28.557,97.325 26.971,97.056 26.971 C 96.952 26.971,96.866 26.842,96.866 26.686 C 96.866 26.529,96.952 26.401,97.056 26.401 C 97.171 26.401,97.246 25.578,97.246 24.311 C 97.246 23.045,97.171 22.222,97.056 22.222 C 96.952 22.222,96.866 22.094,96.866 21.937 C 96.866 21.781,96.952 21.652,97.056 21.652 C 97.176 21.652,97.246 20.260,97.246 17.854 C 97.246 15.108,97.185 14.055,97.027 14.055 C 96.426 14.055,97.566 13.307,98.264 13.243 C 98.696 13.204,97.537 13.157,95.688 13.139 C 92.880 13.111,92.300 13.152,92.168 13.389 M109.925 92.542 C 109.958 141.678,109.910 167.272,109.786 167.421 C 109.654 167.580,109.682 167.648,109.879 167.648 C 110.186 167.648,110.325 18.167,110.019 17.978 C 109.940 17.930,109.899 51.483,109.925 92.542 M56.220 57.645 C 56.220 57.802,56.349 57.930,56.505 57.930 C 56.662 57.930,56.790 57.802,56.790 57.645 C 56.790 57.488,56.662 57.360,56.505 57.360 C 56.349 57.360,56.220 57.488,56.220 57.645 M57.509 63.788 C 57.563 63.952,57.472 64.020,57.255 63.978 C 57.069 63.942,56.878 63.798,56.831 63.657 C 56.777 63.494,56.868 63.425,57.085 63.467 C 57.271 63.503,57.462 63.648,57.509 63.788 M57.502 97.388 C 57.549 97.528,57.418 97.626,57.186 97.626 C 56.953 97.626,56.790 97.503,56.790 97.327 C 56.790 96.978,57.383 97.029,57.502 97.388 " stroke="none" fill="#6cac3c" fill-rule="evenodd"></path></g></svg>