<svg xmlns="http://www.w3.org/2000/svg" role="img" viewBox="-17.50 -10.00 520.00 106.50"><title>Telia Company logo</title><path fill="#990ae3" d="M50.20087 64.59498c11.25674-6.5314 19.30878-14.72722 23.02108-23.4568 1.5272-6.28085 2.4008-13.04318 2.4008-20.1824 0-.99778-.04575-1.952-.13725-2.86265-.65575 10.55741-14.30022 23.83152-32.35195 32.50881C21.3586 61.06132 5.02142 63.87604-2.26594 55.8959c2.53151 4.99985 5.92139 10.04762 9.77748 14.57254 8.96269 7.96708 23.7422 5.11313 42.68933-5.87346z"/><path fill="#990ae3" d="M40.59114 43.11633C61.133 33.21032 75.43757 19.11271 72.9431 9.76877 68.84736 2.69709 60.56003 0 51.6736 0 25.33017 0-7 17.36548-7 39.5195c0 2.84522.62743 6.03467 1.75376 9.36572 6.00853 7.9758 24.37834 4.58374 45.83738-5.76889zm-1.73197 31.39992c-14.444 5.8582-22.7139 3.98898-27.28457.33985l-.06536-.05663c7.07386 7.05424 15.13461 12.01488 22.20194 12.01488 12.38088 0 29.33026-15.01262 37.34962-38.30167-4.51838 8.40497-14.21743 18.73363-32.20163 26.00357z"/><path fill="#fff" d="M38.85917 74.51625c17.9842-7.26994 27.68325-17.5986 32.2038-26.00793.81698-2.37247 1.54244-4.83427 2.16116-7.37232-3.71448 8.72958-11.76652 16.92541-23.02108 23.4568C31.2559 75.5794 16.4764 78.43552 7.51154 70.46626c1.28754 1.5054 2.6252 2.96287 3.99988 4.32884l.06536.05665c4.56849 3.65348 12.83839 5.5227 27.2824-.3355zm4.2722-23.9143c18.05174-8.67512 31.6962-21.9514 32.35195-32.50882-.32243-3.2744-1.21129-6.03032-2.5424-8.32219C75.43757 19.1149 61.133 33.2125 40.58896 43.11851 19.12774 53.47114.76011 56.8632-5.24842 48.88522c.77122 2.28751 1.77772 4.64692 2.97812 7.01068 7.29172 7.98015 23.62891 5.16542 45.40167-5.29396z"/><path fill="#990ae3" d="M94.36728 32.39117c-1.12197 0-2.24612-.84093-3.36809-2.5228-.73418-1.16772-1.10018-2.05005-1.10018-2.65787 0-1.037.6819-1.99558 2.04133-2.88227 1.35943-.88232 2.8387-1.32675 4.4356-1.32675h26.49374c1.68404 0 2.52497.77557 2.52497 2.33108 0 1.77119-.47493 3.39205-1.42261 4.85606-.95204 1.47055-1.98687 2.20255-3.10884 2.20255h-8.61847v29.27797c0 1.77337-.47711 3.39206-1.42479 4.86042-.95204 1.47054-1.98687 2.1982-3.10884 2.1982s-2.24612-.8344-3.36809-2.5228c-.73418-1.1612-1.10019-2.05005-1.10019-2.6557v-31.1581zm33.10139 22.80105c.47493 2.03044 1.51193 3.66437 3.10883 4.89745 1.5969 1.22436 3.52059 1.8409 5.76453 1.8409 1.90191 0 4.16763-.64704 6.80372-1.9433 1.20911-.60346 2.33108-.9041 3.36809-.9041 1.38122 0 2.07183.62525 2.07183 1.87575 0 1.12851-.24836 2.20473-.7429 3.23956-.49889 1.037-1.13504 1.7908-1.91279 2.27008-1.46619.90193-3.09795 1.60344-4.89092 2.10451-1.79298.49672-3.57506.74726-5.34407.74726-3.11101 0-5.94971-.8235-8.52043-2.46398-2.56855-1.64265-4.56631-3.76241-5.99111-6.35275-1.42479-2.58816-2.13719-5.35278-2.13719-8.28733 0-3.2853.77776-6.2547 2.33327-8.9104 1.55333-2.6557 3.58377-4.70574 6.08696-6.15232 2.50537-1.44658 5.2482-2.16987 8.2285-2.16987 2.89316 0 5.49221.6819 7.80587 2.04133 2.30929 1.35944 4.0892 3.16549 5.34406 5.40725 1.25268 2.24612 1.87794 4.70356 1.87794 7.38975 0 1.38122-.35729 2.61866-1.06969 3.72102-.71239 1.10018-1.50104 1.64919-2.36376 1.64919zm8.03243-13.0824c-2.07401 0-3.8452.59258-5.31138 1.7799-1.46837 1.1917-2.37466 2.77117-2.72323 4.7624h15.28929c-.0871-1.85616-.82132-3.41167-2.20255-4.66218-1.3834-1.25268-3.06744-1.88011-5.05213-1.88011zm27.20614 26.62011c-1.94329 0-3.62734-.76468-5.05213-2.29623-1.42479-1.53154-2.13719-3.33759-2.13719-5.40942V26.62882c0-.94986.65793-1.85615 1.97597-2.72105 1.31587-.86272 2.72977-1.29408 4.24388-1.29408 1.5969 0 2.39644.73418 2.39644 2.20037v33.42817c0 .56208.11983 1.0283.35729 1.3943.23747.366.65793.67971 1.26358.93897.69061.305 1.037.90629 1.037 1.81258 0 1.59472-.43135 3.05655-1.29407 4.37459-.87144 1.3115-1.79951 1.96726-2.79077 1.96726zm13.08457-37.30823c-1.12415 0-2.28969-.88233-3.49663-2.6557-.82132-1.2505-1.23089-2.22432-1.23089-2.91711 0-1.07623.732-2.09362 2.20036-3.04349 1.46837-.94986 3.04566-1.42479 4.72971-1.42479 1.81258 0 2.72105.82133 2.72105 2.46398 0 1.29408-.24836 2.53587-.74508 3.72538-.49671 1.18732-1.12197 2.1263-1.87794 2.8169-.76032.69061-1.525 1.03483-2.30058 1.03483zm0 37.30823c-.99561 0-2.07401-.81261-3.24173-2.4618-.69061-1.11761-1.03483-1.96072-1.03483-2.5228V39.58267c0-.94986.65793-1.85615 1.97598-2.72105 1.31586-.86272 2.72976-1.29408 4.2417-1.29408 1.5969 0 2.39862.73419 2.39862 2.20473v24.1583c0 1.16554-.22875 2.29187-.6819 3.37027-.45314 1.08058-1.01304 1.92151-1.68187 2.52716-.671.60346-1.32893.90193-1.97597.90193zm25.19749 0c-3.11102 0-5.92792-.77122-8.45508-2.32673-2.52498-1.5555-4.49224-3.59466-5.89525-6.12181-1.403-2.52716-2.10451-5.28089-2.10451-8.26119 0-3.1938.79954-6.10657 2.39862-8.74483 1.5969-2.6339 3.66874-4.67524 6.21768-6.12182 2.54676-1.44658 5.2896-2.16987 8.22851-2.16987 2.50319 0 4.9432.69061 7.31785 2.07184 1.51194-.99344 3.02388-1.49016 4.53581-1.49016 1.59691 0 2.39862.73419 2.39862 2.20473v24.1583c0 1.16555-.23093 2.29187-.68189 3.37027-.45315 1.08058-1.01304 1.92151-1.68405 2.52716-.66882.60347-1.32675.90193-1.97379.90193-.99344 0-2.07184-.81261-3.23956-2.4618-.43136-.68625-.73636-1.2919-.90411-1.81258-.34639.95204-.81043 1.77119-1.39429 2.46616-.58386.6906-1.19822 1.14158-1.84526 1.36161-.91283.30283-1.88447.44879-2.9193.44879zm.5795-8.02808c1.94548 0 3.75806-.54029 5.44428-1.61868V44.37773c-1.59908-.90847-3.38987-1.35943-5.37674-1.35943-2.4618 0-4.52274.83221-6.185 2.49447-1.66226 1.66226-2.49448 3.74934-2.49448 6.25036 0 2.50101.83004 4.62295 2.49448 6.34839 1.66226 1.72761 3.69923 2.59033 6.11746 2.59033zm60.89357-26.88153c-.43136 0-.95204-.15032-1.55333-.45315-2.63609-1.33764-5.18285-2.01083-7.64465-2.01083-2.72105 0-5.15235.64922-7.28736 1.94548-2.13719 1.29625-3.78202 3.03694-4.92577 5.21552-1.14376 2.18077-1.71673 4.5881-1.71673 7.22419 0 2.7668.61219 5.23513 1.84744 7.4159 1.2309 2.18075 2.86048 3.86262 4.89092 5.05212 2.02826 1.18297 4.27438 1.77773 6.73618 1.77773 2.84959 0 5.65778-.62526 8.42022-1.87576 1.46837-.64922 2.65569-.96947 3.56416-.96947 1.55551 0 2.33109.7516 2.33109 2.26573 0 1.12197-.23747 2.23304-.7124 3.33105-.47929 1.10454-1.0784 1.98033-1.81476 2.62737-1.3834 1.16554-3.22866 2.11322-5.53796 2.85176-2.30929.732-4.60988 1.10455-6.89739 1.10455-4.23299 0-8.06729-1.08712-11.49856-3.24391-3.43345-2.1568-6.08914-4.9955-7.96708-8.51608-1.87794-3.51842-2.8169-7.33094-2.8169-11.4332 0-4.49007 1.11325-8.59234 3.33541-12.30682 2.22433-3.71448 5.12838-6.60764 8.71433-8.68165 3.58159-2.06966 7.42461-3.10884 11.52906-3.10884 4.49223 0 8.52697 1.12415 12.11292 3.37027.64921.38778.97164 1.037.97164 1.9433 0 1.5969-.43353 3.07833-1.29625 4.43777-.86272 1.3529-1.7908 2.03697-2.78423 2.03697zm24.2912 1.16554c3.23737 0 6.16103.79736 8.77533 2.39862 2.60994 1.5969 4.63167 3.69923 6.05646 6.31353 1.42479 2.6143 2.13719 5.42903 2.13719 8.4529 0 3.2853-.78647 6.24164-2.36594 8.87337-1.5773 2.63609-3.65131 4.67306-6.21768 6.12618-2.56855 1.44222-5.36803 2.17205-8.38754 2.17205-3.23738 0-6.16757-.8039-8.77969-2.4008-2.61212-1.5969-4.63167-3.7036-6.05646-6.3179-1.42479-2.61211-2.13719-5.42684-2.13719-8.4529 0-3.27876.78865-6.2351 2.36812-8.87336 1.57729-2.6339 3.64695-4.67524 6.2155-6.12182 2.56855-1.44658 5.36802-2.16987 8.3919-2.16987zm0 26.29767c2.37247 0 4.37241-.87143 5.9911-2.61865 1.61869-1.75158 2.42912-3.92363 2.42912-6.51396 0-2.59034-.81043-4.76239-2.42912-6.50743-1.61869-1.75158-3.61863-2.62302-5.9911-2.62302-2.37684 0-4.3746.87144-5.99328 2.62302-1.61869 1.74722-2.42695 3.91709-2.42695 6.50742 0 2.59034.80826 4.76457 2.42695 6.51397 1.61868 1.74722 3.61644 2.61865 5.99328 2.61865zm44.11412 7.4464c-.99779 0-2.07837-.81261-3.24173-2.4618-.68843-1.11761-1.03701-1.96072-1.03701-2.5228V47.16632c0-.95422-.27014-1.72544-.80825-2.33326-.54029-.60347-1.22436-.90847-2.04133-.90847-1.98687 0-4.32013 1.0784-6.99543 3.24173v14.76425c0 1.16554-.22875 2.29187-.6819 3.37027-.45314 1.08058-1.01086 1.92151-1.67969 2.52716-.67318.60346-1.32893.90193-1.97815.90193-.99343 0-2.07401-.81261-3.23737-2.4618-.69279-1.11761-1.03701-1.96072-1.03701-2.5228V39.58267c0-.94986.65793-1.85615 1.97598-2.72105 1.31586-.86272 2.72976-1.29408 4.2417-1.29408 1.59472 0 2.39862.73419 2.39862 2.20473v1.29408c1.72326-1.38122 3.35719-2.40734 4.88874-3.07834 1.53154-.66883 3.07833-1.00215 4.63166-1.00215 1.55333 0 3.01298.45097 4.37242 1.35944 1.35943.90629 2.4509 2.18294 3.27223 3.82341 3.88659-3.45523 7.48997-5.18285 10.81666-5.18285 1.7298 0 3.27224.50761 4.63603 1.52283 1.35726 1.01304 2.41169 2.36159 3.17201 4.04563.75379 1.68404 1.13505 3.5402 1.13505 5.57281v15.80344c0 1.16554-.22875 2.29187-.6819 3.37027-.45097 1.08058-1.01304 1.92151-1.68187 2.52716-.67318.60346-1.32675.90193-1.97379.90193-.99344 0-2.07619-.81261-3.23955-2.4618-.69062-1.11761-1.03701-1.96072-1.03701-2.5228V47.16632c0-.95422-.27232-1.72544-.81043-2.33326-.54029-.60347-1.22219-.90847-2.04133-.90847-1.98687 0-4.32013 1.0784-6.99543 3.24173v14.76425c0 1.16554-.22658 2.29187-.6819 3.37027-.45315 1.08058-1.01086 1.92151-1.67969 2.52716-.67754.60346-1.33329.90193-1.98033.90193zm32.0012 12.04974c-.99343 0-2.07619-.82132-3.24173-2.4618-.68843-1.12197-1.03483-1.96508-1.03483-2.51844V39.58267c0-.94986.65576-1.85615 1.97162-2.72105 1.31804-.86272 2.73195-1.29408 4.2417-1.29408 1.46837 0 2.27009.64704 2.4008 1.9433 2.50319-1.68405 5.13928-2.52498 7.90172-2.52498 2.80819 0 5.33317.75597 7.57929 2.26573 2.24612 1.51193 3.97374 3.53148 5.18285 6.05646 1.20911 2.52933 1.81258 5.30485 1.81258 8.32436 0 3.3681-.7124 6.38543-2.13719 9.03676-1.42261 2.65788-3.32234 4.70356-5.69699 6.15232-2.37902 1.44222-4.98678 2.16987-7.84072 2.16987-1.12197 0-2.29841-.13725-3.53149-.41829-1.22654-.28104-2.31801-.65793-3.26787-1.13504v6.54664c0 1.16119-.22657 2.28751-.6819 3.36373-.44878 1.07622-1.01304 1.92151-1.68186 2.52498-.67536.60783-1.3333.9063-1.97598.9063zM373.6812 43.0183c-1.16336 0-2.32019.21568-3.46613.64703-1.14157.42919-2.14808 1.0588-3.0108 1.87577v13.80132c1.90191 1.07622 3.93017 1.6165 6.08914 1.6165 2.24176 0 4.13495-.86271 5.6665-2.59469 1.53154-1.72326 2.30276-3.85827 2.30276-6.40503 0-2.59034-.7124-4.73188-2.13719-6.41593-1.42697-1.68404-3.24173-2.52497-5.44428-2.52497zm35.75708 25.71163c-3.11102 0-5.92575-.77122-8.4529-2.32673-2.5228-1.5555-4.49224-3.59466-5.89525-6.12181-1.40518-2.52716-2.10451-5.28089-2.10451-8.26119 0-3.1938.79736-6.10657 2.39862-8.74483 1.59472-2.6339 3.66873-4.67524 6.21768-6.12182 2.54458-1.44658 5.28742-2.16987 8.22415-2.16987 2.50319 0 4.9432.69061 7.31786 2.07184 1.50975-.99344 3.02169-1.49016 4.53363-1.49016 1.5969 0 2.39862.73419 2.39862 2.20473v24.1583c0 1.16555-.22658 2.29187-.6819 3.37027-.45315 1.08058-1.01522 1.92151-1.68404 2.52716-.67101.60347-1.32676.90193-1.97162.90193-.99561 0-2.07619-.81261-3.23955-2.4618-.43136-.68625-.73637-1.2919-.9063-1.81258-.34857.95204-.80825 1.77119-1.39647 2.46616-.58168.6906-1.19604 1.14158-1.84308 1.36161-.90629.30283-1.87794.44879-2.91494.44879zm.58386-8.02808c1.94329 0 3.75805-.54029 5.4421-1.61868V44.37773c-1.59908-.90847-3.39205-1.35943-5.37674-1.35943-2.4618 0-4.52274.83221-6.18936 2.49447-1.66226 1.66226-2.4923 3.74934-2.4923 6.25036 0 2.50101.83004 4.62295 2.4923 6.34839 1.66662 1.72761 3.70577 2.59033 6.124 2.59033zm45.21431 8.02808c-.99344 0-2.07401-.81261-3.23738-2.4618-.69279-1.11761-1.037-1.96072-1.037-2.5228v-16.3873c0-1.037-.35729-1.88447-1.06751-2.55548-.7124-.67318-1.63394-1.00868-2.75808-1.00868-2.37248 0-5.41814 1.27665-9.13045 3.82341v14.3133c0 1.16553-.22657 2.29186-.68189 3.37026-.45315 1.08058-1.01304 1.92151-1.67969 2.52716-.671.60346-1.32893.90193-1.9738.90193-.99561 0-2.07618-.81261-3.2439-2.4618-.68626-1.11761-1.03483-1.96072-1.03483-2.5228V39.58267c0-.94986.66011-1.85615 1.97597-2.72105 1.31587-.86272 2.72977-1.29408 4.2417-1.29408 1.5969 0 2.39862.73419 2.39862 2.20473v1.55333c3.92799-2.89316 7.70783-4.33974 11.33299-4.33974 1.94765 0 3.70359.51633 5.27871 1.55333 1.58165 1.037 2.79948 2.39862 3.66219 4.08049.86272 1.68622 1.29626 3.52059 1.29626 5.50745v15.80344c0 1.16554-.22657 2.29187-.68189 3.37027-.45097 1.08058-1.01087 1.92151-1.68405 2.52716-.671.60346-1.32676.90193-1.97597.90193zm7.64029-27.65493c-.38779-.77775-.58169-1.36161-.58169-1.7494 0-.9063.62308-1.7603 1.87794-2.55984 1.25269-.79954 2.58816-1.19822 4.01513-1.19822 1.04136 0 1.7298.40958 2.07619 1.22872l7.77318 16.3873 6.60547-14.444c.38778-.8649 1.16554-1.60997 2.33108-2.23305 1.16336-.62525 2.37466-.94115 3.62516-.94115 1.59908 0 2.4008.73419 2.4008 2.20473 0 1.12197-.23747 2.22215-.7124 3.30273l-16.97334 36.59584c-.47493.95421-1.02611 1.708-1.65136 2.27008-.62743.5599-1.24179.84093-1.84962.84093-.95204 0-2.00429-.77122-3.17201-2.33108-.64704-.99126-.96947-1.83655-.96947-2.52498 0-.25707.10893-.64704.32243-1.16118l5.63381-12.17828z"/></svg>