<svg id="Layer_1" data-name="Layer 1" xmlns="http://www.w3.org/2000/svg" viewBox="0 0 612 237"><defs><style>.cls-1{fill:#231f20;}.cls-2{fill:#f5e100;}</style></defs><title>LogoTensor</title><line class="cls-1" x1="403.50359" y1="57.37171" x2="365.19365" y2="92.37523"/><rect class="cls-1" x="358.40252" y="72.86701" width="51.89176" height="4.01249" transform="translate(50.13663 278.91293) rotate(-42.42797)"/><rect class="cls-1" x="357.91126" y="136.84571" width="4.01165" height="27.51154"/><rect class="cls-1" x="492.16836" y="111.88161" width="69.78274" height="4.01165"/><rect class="cls-1" x="381.20156" y="111.88161" width="69.78078" height="4.01165"/><rect class="cls-1" x="273.12107" y="111.88161" width="69.78176" height="4.01165"/><rect class="cls-1" x="161.13765" y="111.88161" width="69.78176" height="4.01165"/><rect class="cls-1" x="49.44119" y="111.88161" width="69.78274" height="4.01165"/><path class="cls-2" d="M30.67673,90.24456Q51.64682,91.61082,53.22562,114.62,52.09441,137.17235,30.45147,138.309,8.80413,137.16892,7.90161,114.62,9.02694,91.38459,30.67673,90.24456Zm-.4515,42.37208q14.42813-.68756,15.10833-17.99661-.6758-17.08575-14.88209-18.2248Q16.24518,97.5382,15.34314,114.62,16.01894,131.47808,30.22523,132.61664Z"/><path class="cls-2" d="M140.63083,90.2426q20.97008,1.36628,22.54888,24.37548-1.13121,22.54937-22.77415,23.69087-21.64734-1.14-22.54986-23.69087Q118.981,91.38263,140.63083,90.2426Zm-.45151,42.37012q14.42814-.68168,15.10833-17.99464-.6758-17.08577-14.88209-18.22481-14.20629,1.143-15.10833,18.22481Q125.973,131.47905,140.17932,132.61272Z"/><path class="cls-2" d="M250.58688,90.24651Q271.557,91.61279,273.13576,114.622q-1.13121,22.54938-22.77414,23.69088-21.64735-1.14-22.54987-23.69088Q228.9371,91.38654,250.58688,90.24651Zm-.45151,42.37013q14.42814-.68167,15.10833-17.99465-.67578-17.08575-14.88208-18.2248-14.2063,1.143-15.10834,18.2248Q235.92908,131.483,250.13537,132.61664Z"/><path class="cls-1" d="M188.00474,24.98472h-15.7851V65.76134h-6.99V24.98472H149.21925V19.06126h38.78549Z"/><path class="cls-1" d="M245.95624,65.76134H210.55362V19.06126h34.50059v5.92346H217.76989V38.88054h25.70552V44.802H217.76989V60.06511h28.18635Z"/><path class="cls-1" d="M270.98694,19.06126h8.34259l23.4519,38.27131h.22526V19.06126h6.76477V65.76134h-8.11733L277.75171,27.26282V65.76134h-6.76477Z"/><path class="cls-1" d="M333.90012,51.63634l7.21432-1.59448q1.57488,11.16523,12.85373,11.16328,9.91944-.22624,10.37192-7.97433.67874-5.2359-9.24364-7.97237a21.07231,21.07231,0,0,0-3.8334-1.14,6.31858,6.31858,0,0,0-1.35354-.22722q-15.11127-3.188-14.20532-12.985.89616-11.841,16.45991-12.52857,15.78118-.2233,18.49121,12.75775l-6.991,1.59448q-1.58076-8.42682-11.04967-8.42878-8.7941.22919-9.47086,6.60512-.67579,5.24472,10.8244,7.51793,4.50723,1.143,6.76574,1.82169,11.49726,3.64928,11.273,12.75776-.45249,12.984-17.81345,13.43942Q336.82856,66.89844,333.90012,51.63634Z"/><path class="cls-2" d="M416.87939,18.37764q20.973,1.36628,22.54987,24.37548Q438.298,65.304,416.65413,66.443q-21.64587-1.14-22.54791-23.68989Q395.23157,19.51767,416.87939,18.37764Zm-.45052,42.3711q14.4296-.68461,15.10833-17.99562-.67579-17.08577-14.88307-18.22481-14.20629,1.143-15.10833,18.22481Q402.22454,59.61262,416.42887,60.74874Z"/><path class="cls-1" d="M504.37177,65.76134h-9.02034L481.14611,46.39651H470.547V65.76134h-6.989V19.06126h21.42158q15.55788.45837,16.45991,13.43943,0,11.84983-12.85177,13.44138ZM470.547,24.75554v15.9467h12.85374q10.82441,0,10.59914-7.97237,0-7.9714-10.59914-7.97433Z"/><path class="cls-2" d="M470.496,90.24456q20.973,1.36626,22.54987,24.37547-1.13122,22.55232-22.77513,23.68892-21.64587-1.14-22.54791-23.68892Q448.84822,91.38459,470.496,90.24456Zm-.45052,42.37208q14.4296-.68756,15.10833-17.99661-.67579-17.08575-14.88307-18.2248-14.20629,1.143-15.10833,18.2248Q455.84119,131.47808,470.04552,132.61664Z"/><path class="cls-2" d="M360.542,90.24456q20.973,1.36626,22.54986,24.37547-1.13121,22.55232-22.77512,23.68892-21.64587-1.14-22.54791-23.68892Q338.89413,91.38459,360.542,90.24456Zm-.45053,42.37208q14.42961-.68756,15.10833-17.99661-.67578-17.08575-14.88306-18.2248-14.2063,1.143-15.10833,18.2248Q345.88708,131.47808,360.09142,132.61664Z"/><path class="cls-1" d="M79.17207,164.26715h8.34258l23.4519,38.2713h.22527v-38.2713h6.76476v46.702h-8.11733L85.93683,172.47066v38.49853H79.17207Z"/><path class="cls-1" d="M179.51622,210.96919H144.1136v-46.702h34.50058v5.92345H151.32987v13.89583h25.70551v5.92345H151.32987V205.273h28.18635Z"/><path class="cls-1" d="M239.27179,170.1906h-15.7851v40.77859h-6.99V170.1906H200.4863v-5.92345h38.78549Z"/><path class="cls-1" d="M257.31149,164.26715H264.753q6.3113,28.01888,7.6668,34.85513c.14789.45445.4515,1.8217.902,4.09784h.22526q.67727-2.73255,1.12828-4.32506,2.02884-7.05761,9.01936-34.62791h7.6668q8.56638,33.9482,9.2456,35.764.22183,1.14591.67579,4.10176h.22624q.44808-2.50336.67579-3.41618.22183-1.3692,7.89206-36.4496h7.44154l-12.177,46.702h-7.44055q-9.24953-34.85906-9.69613-35.99517a18.272,18.272,0,0,1-.45151-3.18894h-.22526a25.72826,25.72826,0,0,1-.45151,2.96172q-.22624.91084-9.92139,36.22239h-7.89206Z"/><path class="cls-2" d="M359.46069,163.58548q20.973,1.36334,22.54986,24.37548-1.13415,22.54791-22.77709,23.68989-21.64293-1.14-22.5479-23.68989Q337.81089,164.72551,359.46069,163.58548Zm-.45053,42.36914q14.42666-.68166,15.10637-17.99366-.67579-17.08869-14.88307-18.2248-14.20335,1.14-15.10637,18.2248Q344.80289,204.82047,359.01016,205.95462Z"/><path class="cls-1" d="M446.9511,210.96919h-9.02034l-14.20531-19.36484H413.12631v19.36484h-6.989v-46.702h21.42159q15.55786.45836,16.45991,13.44138,0,11.84691-12.85178,13.44138Zm-33.82479-41.00581v15.94474H425.98q10.82441,0,10.59914-7.97237,0-7.96845-10.59914-7.97237Z"/><path class="cls-1" d="M509.86428,210.96919h-9.2456l-15.78412-22.32656-9.2456,9.33962v12.98694h-6.989v-46.702h6.989v24.82992l23.67814-24.82992h9.24364l-19.39225,19.81928Z"/><path class="cls-1" d="M528.806,196.84222l7.21431-1.59447q1.5749,11.16523,12.85374,11.16524,9.91943-.22919,10.37192-7.97629.67872-5.23592-9.24365-7.97238a21.40828,21.40828,0,0,0-3.83339-1.14,6.31877,6.31877,0,0,0-1.35354-.22722q-15.11127-3.185-14.20728-12.983.8991-11.841,16.46187-12.52857,15.78119-.2233,18.4912,12.7558l-6.991,1.59447q-1.58078-8.42682-11.04967-8.42682-8.7941.22919-9.47087,6.60512-.67578,5.24179,10.82441,7.51793,4.50723,1.14,6.76574,1.8217,11.49726,3.64926,11.273,12.75579-.45247,12.98694-17.81345,13.44138Q531.73444,212.10334,528.806,196.84222Z"/><path class="cls-2" d="M580.45209,90.24651Q601.42218,91.61279,603,114.622q-1.13121,22.54938-22.77513,23.69088-21.64587-1.14-22.5479-23.69088Q558.8023,91.38654,580.45209,90.24651Zm-.45248,42.37013q14.42959-.68167,15.10833-17.99465-.67579-17.08575-14.88307-18.2248-14.20629,1.143-15.10833,18.2248Q565.79527,131.483,579.99961,132.61664Z"/></svg>