<?xml version="1.0" encoding="utf-8"?>
<!-- Generator: Adobe Illustrator 23.0.4, SVG Export Plug-In . SVG Version: 6.00 Build 0)  -->
<svg version="1.1" id="Layer_1" xmlns="http://www.w3.org/2000/svg" xmlns:xlink="http://www.w3.org/1999/xlink" x="0px" y="0px"
	 viewBox="0 0 400 245" style="enable-background:new 0 0 400 245;" xml:space="preserve">
<style type="text/css">
	.st0{fill-rule:evenodd;clip-rule:evenodd;fill:#0068B6;}
	.st1{fill-rule:evenodd;clip-rule:evenodd;fill:url(#SVGID_1_);}
	.st2{fill-rule:evenodd;clip-rule:evenodd;fill:url(#SVGID_2_);}
	.st3{fill-rule:evenodd;clip-rule:evenodd;fill:url(#SVGID_3_);}
	.st4{fill-rule:evenodd;clip-rule:evenodd;fill:url(#SVGID_4_);}
	.st5{fill-rule:evenodd;clip-rule:evenodd;fill:url(#SVGID_5_);}
	.st6{fill-rule:evenodd;clip-rule:evenodd;fill:url(#SVGID_6_);}
</style>
<g>
	<path class="st0" d="M16.8,188.9c0.8,2.1,2.2,3.7,4.1,4.8c1.9,1.1,4.2,1.6,7,1.6c2.3,0,4.1-0.4,5.4-1.2c1.3-0.8,2-2,2-3.4
		c0-2-2.6-3.8-7.8-5.5c-1.5-0.4-2.6-0.8-3.4-1.1c-5.8-2-9.9-4.3-12.5-6.9c-2.6-2.7-3.9-5.9-3.9-9.8c0-5.1,2.2-9.3,6.5-12.7
		c4.3-3.4,9.8-5.1,16.4-5.1c6,0,11.1,1.3,15.4,3.8c4.3,2.5,7.2,5.9,8.6,10.2l-14.5,3.7c-0.6-1.8-1.7-3.2-3.3-4.2
		c-1.6-1-3.6-1.5-5.9-1.5c-1.9,0-3.4,0.4-4.5,1.2c-1.1,0.8-1.7,1.8-1.7,3.1c0,1.8,2.3,3.4,6.8,5c0.6,0.2,1,0.4,1.3,0.5
		c7.3,2.6,12.4,5.2,15.2,7.9c2.8,2.7,4.2,6.1,4.2,10.2c0,5.5-2.3,9.9-7,13.4c-4.7,3.5-10.7,5.3-18.1,5.3c-6.7,0-12.3-1.4-16.9-4.2
		c-4.6-2.8-7.7-6.7-9.2-11.6L16.8,188.9L16.8,188.9z M359.1,207.5l7.8-44.1h-13.5l2.3-13.2H399l-2.3,13.2H384l-7.8,44.1H359.1
		L359.1,207.5z M300.1,207.5l10.2-57.3H352l-2.1,12.4h-25.6l-1.7,9.2h21.7l-2.3,12.4h-21.7l-1.7,10h27l-2.4,13.4H300.1L300.1,207.5z
		 M247.4,207.5H260l6.5-36.1l17.6,36.1h12.7l10.1-57.3h-12.6l-5.8,32.5l-15.5-32.5h-15.4L247.4,207.5L247.4,207.5z M217.7,174.5h7.1
		c3,0,5.3-0.6,6.9-1.8c1.7-1.2,2.5-2.8,2.5-4.8c0-2.3-0.6-3.9-2-4.9c-1.3-1-3.4-1.5-6.3-1.5H220L217.7,174.5L217.7,174.5z
		 M195.7,207.5l10.2-57.3h24.6c6.8,0,11.9,1.4,15.5,4.2c3.6,2.8,5.3,6.9,5.3,12.2c0,4-1.1,7.5-3.3,10.4c-2.2,2.9-5.2,5-9,6.3
		l6.2,24.2h-16.7l-4.9-22.1h-7.8l-3.9,22.1H195.7L195.7,207.5z M150.5,207.5h43.2l2.4-13.4h-27l1.7-10h21.7l2.3-12.4H173l1.7-9.2
		h25.6l2.1-12.4h-41.8L150.5,207.5L150.5,207.5z M123.9,174.7h5.1c2.8,0,5-0.6,6.6-1.8c1.6-1.2,2.4-2.8,2.4-4.8c0-2-0.7-3.6-2-4.7
		c-1.3-1.1-3.3-1.6-5.8-1.6h-4.2L123.9,174.7L123.9,174.7z M101.4,207.5l10.2-57.3h21.8c6.9,0,12.2,1.5,15.8,4.5
		c3.6,3,5.4,7.4,5.4,13.1c0,5.7-1.9,10.2-5.8,13.5c-3.9,3.3-9.2,5-15.9,5h-11.1l-3.7,21.1H101.4L101.4,207.5z M61.5,150.2l-6,34.1
		c-0.2,1.3-0.4,2.6-0.6,3.7c-0.1,1.2-0.2,2.3-0.2,3.3c0,5.5,1.9,9.7,5.8,12.8c3.8,3.1,9.2,4.6,16.1,4.6c4,0,7.6-0.6,10.8-1.7
		c3.2-1.1,5.9-2.8,8.1-5c1.5-1.6,2.8-3.5,3.8-5.9c1-2.3,1.8-5.3,2.4-9l6.5-36.9h-13L89,185.7c-0.6,3.5-1.7,6.1-3.1,7.7
		c-1.4,1.6-3.4,2.4-5.9,2.4c-2.4,0-4.3-0.6-5.6-1.8c-1.3-1.2-2-2.9-2-5c0-0.4,0-0.9,0.1-1.3c0.1-0.5,0.1-1,0.2-1.5l6.4-35.9H61.5z"
		/>
	<g>
		<linearGradient id="SVGID_1_" gradientUnits="userSpaceOnUse" x1="41.4572" y1="124.6769" x2="36.1468" y2="25.245">
			<stop  offset="0" style="stop-color:#0055A5"/>
			<stop  offset="0.3731" style="stop-color:#0077C3"/>
			<stop  offset="0.7736" style="stop-color:#0095DE"/>
			<stop  offset="1" style="stop-color:#00A0E8"/>
		</linearGradient>
		<polygon class="st1" points="10.2,126.7 22.5,57.7 1,57.7 4.7,37 73.7,37 69.9,57.7 49.7,57.7 37.4,126.7 		"/>
		<linearGradient id="SVGID_2_" gradientUnits="userSpaceOnUse" x1="104.4898" y1="126.0626" x2="99.7114" y2="25.0446">
			<stop  offset="0" style="stop-color:#0055A5"/>
			<stop  offset="0.3731" style="stop-color:#0077C3"/>
			<stop  offset="0.7736" style="stop-color:#0095DE"/>
			<stop  offset="1" style="stop-color:#00A0E8"/>
		</linearGradient>
		<polygon class="st2" points="61.1,126.7 77.2,36.3 143.7,36.3 140.3,55.8 99.7,55.8 96.9,70.3 131.5,70.3 127.9,89.8 93.4,89.8 
			90.6,105.6 133.6,105.6 129.8,126.7 		"/>
		<linearGradient id="SVGID_3_" gradientUnits="userSpaceOnUse" x1="179.7215" y1="124.8704" x2="175.3655" y2="27.3764">
			<stop  offset="0" style="stop-color:#0055A5"/>
			<stop  offset="0.3731" style="stop-color:#0077C3"/>
			<stop  offset="0.7736" style="stop-color:#0095DE"/>
			<stop  offset="1" style="stop-color:#00A0E8"/>
		</linearGradient>
		<path class="st3" d="M160,97.2c1.3,3.2,3.5,5.6,6.6,7.3c3.1,1.7,6.9,2.5,11.3,2.5c3.7,0,6.6-0.6,8.8-1.9c2.1-1.3,3.2-3,3.2-5.2
			c0-3.1-4.2-5.9-12.7-8.4c-2.4-0.7-4.2-1.3-5.6-1.7c-9.3-3-16.1-6.5-20.3-10.6c-4.2-4.1-6.3-9.1-6.3-15.1c0-7.8,3.5-14.3,10.6-19.5
			c7-5.2,15.9-7.8,26.6-7.8c9.7,0,18,1.9,24.9,5.8c6.9,3.9,11.6,9.1,13.9,15.7l-23.5,5.7c-0.9-2.8-2.7-4.9-5.4-6.5
			c-2.6-1.6-5.8-2.3-9.6-2.3c-3,0-5.5,0.6-7.3,1.8c-1.9,1.2-2.8,2.8-2.8,4.7c0,2.7,3.7,5.3,11.1,7.7c0.9,0.3,1.7,0.6,2.2,0.7
			c11.9,3.9,20.1,8,24.7,12.1c4.6,4.1,6.9,9.3,6.9,15.7c0,8.4-3.8,15.3-11.3,20.6c-7.6,5.4-17.4,8.1-29.4,8.1
			c-10.8,0-20-2.1-27.4-6.4c-7.4-4.3-12.4-10.2-14.8-17.8L160,97.2z"/>
		<linearGradient id="SVGID_4_" gradientUnits="userSpaceOnUse" x1="260.4604" y1="126.3292" x2="256.0451" y2="25.7192">
			<stop  offset="0" style="stop-color:#0055A5"/>
			<stop  offset="0.3731" style="stop-color:#0077C3"/>
			<stop  offset="0.7736" style="stop-color:#0095DE"/>
			<stop  offset="1" style="stop-color:#00A0E8"/>
		</linearGradient>
		<path class="st4" d="M249.8,75h11.3c4.7,0,8.4-0.9,11-2.8c2.6-1.9,3.9-4.4,3.9-7.6c0-3.5-1-6.1-3.1-7.7c-2.1-1.6-5.4-2.4-10.1-2.4
			h-9.4L249.8,75L249.8,75z M214.8,126.7L231,37h39.1c10.8,0,19,2.2,24.6,6.6c5.6,4.4,8.5,10.8,8.5,19.1c0,6.3-1.7,11.7-5.2,16.3
			c-3.5,4.6-8.3,7.9-14.4,9.8l9.9,37.9H267l-7.8-34.6h-12.4l-6.2,34.6H214.8z"/>
		<linearGradient id="SVGID_5_" gradientUnits="userSpaceOnUse" x1="337.9192" y1="126.8308" x2="333.387" y2="27.087">
			<stop  offset="0" style="stop-color:#0055A5"/>
			<stop  offset="0.3731" style="stop-color:#0077C3"/>
			<stop  offset="0.7736" style="stop-color:#0095DE"/>
			<stop  offset="1" style="stop-color:#00A0E8"/>
		</linearGradient>
		<path class="st5" d="M332.7,90.5h17.5l-3.9-31L332.7,90.5L332.7,90.5z M295.2,126.7L337.4,37h28.2l15,89.7h-25.7l-2.4-18.2H325
			l-8.4,18.2H295.2z"/>
		<linearGradient id="SVGID_6_" gradientUnits="userSpaceOnUse" x1="390.4608" y1="56.9177" x2="389.3272" y2="34.2171">
			<stop  offset="0" style="stop-color:#0055A5"/>
			<stop  offset="0.3731" style="stop-color:#0077C3"/>
			<stop  offset="0.7736" style="stop-color:#0095DE"/>
			<stop  offset="1" style="stop-color:#00A0E8"/>
		</linearGradient>
		<path class="st6" d="M390,36.5l4.5,2.6l4.5,2.6v5.2v5.2l-4.5,2.6l-4.5,2.6l-4.5-2.6l-4.5-2.6v-5.2v-5.2l4.5-2.6L390,36.5L390,36.5
			z M390,40.8l-2.6,1.5l-2.6,1.5v3v3l2.6,1.5L390,53l2.6-1.5l2.6-1.5v-3v-3l-2.6-1.5L390,40.8z"/>
	</g>
</g>
</svg>
