<svg xmlns="http://www.w3.org/2000/svg" role="img" viewBox="-3.28 -2.03 196.82 69.57"><path fill="#fff" d="M28.71903 63.9914C16.24091 56.57.505 45.7882.505 26.7449V6.63737c5.75608-2.17673 14.64905-4.90172 28.21248-4.90172 13.71998 0 23.13654 2.96602 28.21403 4.90172V26.7449c0 19.20388-16.34568 30.27057-28.21248 37.2496"/><path fill="#96bee6" d="M34.5585 53.6064c.07387-.8103.43084-2.1608.43084-2.71185 0-.27298-.0905-.37944-.29397-.37944-.28533 0-.77336.4649-1.37585 1.0898-.80088.82985-1.68646 1.74515-2.546 2.6445-2.12384 2.2216-2.02318 4.07091-2.05505 7.20873 2.36137-1.4229 4.51918-2.79077 6.11816-3.88058-.2368-1.30776-.4352-2.24548-.27807-3.9711zm-22.23134-7.80022c-.00869-.35266.00146-1.11876 0-1.252-.02534-2.0558.4569-3.14185 1.25708-4.20298.3867-.51339.71979-.98335 1.06953-1.44388.76322-1.00654 1.12456-1.7741 1.28098-3.57864.0362-.4229.1108-1.1014.14555-1.39538.03114-.25925.09269-.588.37002-.588.19406 0 .2853.15425.40985.44968.1774.41999.52644 1.22813.71542 1.6626.40188.92324 1.399 1.1955 2.44029 1.5402.76539.25271 2.22015.7444 2.80454.93483.48372.15714.69514.20566 1.00942.20566.44968 0 .66039-.94931.77552-1.86316.09848-.77844.21507-1.32804.48444-1.32804.30051 0 .39538.36062.40551.64954.09704 2.59017-.06879 2.86028 1.53804 4.77834 1.16873 1.39466 1.83492 1.45694 2.77267 1.58872-.34832-.10425-.7958-.50688-.7958-1.35483v-.9312c0-.46562.05576-.93921.28603-1.47505.10861-.252.23606-.70748.35554-.98626.2042-.47502.10717-.59523.10717-.92975 0-.35337-.11659-.70386-.3961-1.55109-.14337-.4352-.33743-1.06807-.52426-1.58872-.58218-1.62421-.81754-2.00728-2.76108-2.26433-.62347-.08327-3.34986-.46922-3.91964-.55034-2.18032-.3092-3.88771-.41274-4.77617-1.87402-1.06156-1.7444-.9544-3.8719-1.97541-3.8719-.48373 0-.74078.54167-.74078 1.33167 0 .82984.31353 2.1731.31353 4.5105 0 2.0203-.18827 2.58366-1.3657 4.07185-.30558.38595-.71688.95365-.97972 1.28387-.87693 1.09994-1.26505 1.71978-1.21145 3.00148.13758 3.31855.6633 5.75608.90513 7.02026zM35.73309 31.7576c.08544.21362.1564.4562.1564.63724 0 .40696-.10063.53152-.32439.77118-.1347.12022-.28387.2462-.41999.37293-.22304.1166-.4229.2672-.55685.45983-.25708.3693-.4468.59377-.4468.80885 0 .06733.02244.11656.07099.15568-.3114-.23101-.43592-.58726-.43592-.90442 0-.28387.09265-.4345.09265-.70169 0-.22593-.0637-.44752-.10208-.57567-.4352-1.45548-1.16727-3.18773-1.61913-4.36418-.45982-1.19985-.82116-1.85808-1.34109-1.85808-.28893 0-.546.14263-.85011.14263.41565-.00062 1.05793-.38303 1.49677-.95873.51122-.67487.54526-1.16436.54526-1.80451 0-.27153-.11225-.50834-.3273-.76468.65822.67127 1.07964 1.52573 1.5257 2.47144.97758 2.07245 1.82481 4.34186 2.53589 6.11227zm6.83364-4.32884c.08472.2281.27878.75091.32079.87764.16002.47864.41853 1.17379.41853 2.0087 0 .84866-.05794 1.10575-.29183 1.96817-.29832 1.1021-.42939 1.52138-.47864 2.12675-.08327-.1709-1.65172-2.87838-1.77119-3.0978-.12022-.22087-.22013-.43446-.22013-.68937 0-.27587.11876-.44244.45328-.65314.2006-.12602.46054-.2752.63652-.36571.80811-.41345 1.00146-.9247 1.00217-1.47213 0-.22955-.0333-.46487-.0695-.70311"/><path d="M18.33217 54.4744c3.33095 2.5996 6.89719 4.89862 10.38748 6.9843.03186-3.13751-.0688-4.98697 2.05505-7.20874.85954-.89934 1.74512-1.81465 2.546-2.64449.60249-.6249 1.09052-1.0898 1.37584-1.0898.20349 0 .29398.10645.29398.37944 0 .27953.1253 1.3085.76325 2.54023.79363 1.53078 1.96599 1.72776 2.34109 1.81465 9.09292-6.84511 16.69753-15.8038 16.69753-28.55007V8.1241c-2.24264-.7618-11.45481-4.29536-26.07503-4.29536-14.61991 0-23.83156 3.53369-26.0741 4.29536v18.57582c0 5.60263 1.46995 10.47304 3.88926 14.75414.24113-2.58075 1.98626-3.8037 1.98626-6.33888 0-1.76905-.50037-2.88635-.50037-4.36728 0-2.67781 3.61553-8.1868 5.4904-10.43088.05504-.0659.1767-.22305.3273-.22305.1347 0 .2368.09344.31862.21942.19117.29255.273.44677.47719.44677.20565 0 .2853-.11439.2853-.29688 0-.46705-.53946-1.24478-.53946-4.28823 0-2.12821.49457-2.57933 1.81753-3.8747.24186-.2368.9819-.94788 1.68792-.94788.78566 0 1.17524.46488 1.65896.95657.81754.832 1.95803 2.3056 2.1427 2.53877.05213.06517.09847.12527.20999.12527.37798 0 .69443-.11367 2.33675-.11367 2.98483 0 7.48247.4685 9.79445 1.22521 1.19043.38958 1.43809.65822 1.75382.65822.15423 0 .16725-.10065.16725-.18104 0-.15063-.31353-.39246-.31353-.5974 0-.13612.11079-.23606.21941-.29471 1.72413-.92616 3.1961-1.62639 4.54305-1.62639.78421 0 1.17162.67924 1.50112 1.35049.25776.52355.53366 1.22595.53366 1.94791 0 1.8255-.69734 2.93846-1.25345 3.71907.26647.27299.64374.68647.8733.9609.4091.48879.9008 1.12677.9008 1.79004 0 .28604-.13975.73572-.21942 1.09198-.03621.16005-.17667.4808-.45474.47504-.25054-.00508-.31574-.27881-.32513-.52139-.00217-.04994 0-.16002 0-.18392 0-.52499-.14554-1.23823-.6336-1.7379-.5612-.5735-1.07534-.9906-1.7256-.9906h-.2223c-1.06664 0-1.5518.46634-1.84505.75166-.32008.31208-.56916.72918-.56916 1.29109 0 .32224.21939.70385.51122 1.28823.17307.34466.6155 1.16582.85662 1.58872.21074.36856.48084.4982.7835.4982.74297 0 1.39032-.10357 1.39032-.32658 0-.06082-.03258-.11225-.13395-.11225-.04347 0-.14555.0123-.23753.0123-.9703 0-1.48952-1.2346-1.97612-2.35556.37076-.36134.79075-.73207 1.5525-.73207.966 0 1.60107.6488 1.60107 1.49386 0 .41925-.12965.76973-.20566.92687-.03766.07964-.05865.1289-.05865.1745 0 .13181.16728.1586.43158.21942.0934.02173.27299.06445.38232.09557.28387.0833.58581.32804.714.67056.08472.2281.27878.75092.32078.87764.16003.47864.41854 1.17379.41854 2.00871 0 .84866-.05794 1.10574-.29184 1.96816-.29831 1.10211-.42938 1.52139-.47864 2.12675.10283.19044.11154.2433.15788.35409.16654.35048.38378.99131.38378 1.68503v.57133c0 1.10503-.441 1.96528-.91818 2.60974-.37148.50108-.90372 1.20785-1.20857 1.5996-.1984.23749-.46562.4091-.76322.4091-.14195 0-.3092-.04777-.47647-.08977-.1861-.04635-.58147-.1463-.7502-.189-.64954-.16437-.88995-.5887-1.09994-1.16077-.03113-.08544-.12961-.32801-.16002-.40551-.15569-.39826-.24258-.65314-.49024-.65314-.18392 0-.36062.12018-.54383.3968-.64951.97684-1.00217 1.33095-2.14483 1.61262-.399.09777-1.20928.26722-1.6633.36784-.6843.15209-1.90663.47213-2.59455.47213-.14627 0-.29979-.00868-.45765-.02607-.93775-.13178-1.60394-.19406-2.77267-1.58872-1.60683-1.91818-1.441-2.18829-1.53804-4.77834-.01013-.28892-.105-.64954-.4055-.64954-.26938 0-.38596.5496-.48445 1.32804-.11513.91385-.32587 1.86316-.77552 1.86316-.31428 0-.5257-.04851-1.00942-.20565-.58435-.19043-2.03912-.68213-2.80454-.93484-1.0413-.34469-2.0384-.61696-2.4403-1.5402-.18899-.43447-.53803-1.2426-.71541-1.6626-.12455-.29542-.21579-.44968-.40985-.44968-.27734 0-.3389.32876-.37002.588-.03475.29398-.10934.97248-.14555 1.39538-.1564 1.80451-.51776 2.57207-1.28098 3.57864-.34974.46054-.68283.9305-1.06953 1.44389-.80017 1.06085-1.2824 2.14703-1.25708 4.20298.00146.13324-.00869.89934 0 1.252.07097 3.05942.84723 4.55916 6.00377 8.6676zM36.80228 45.1c-.24186.05937-.71616.17667-2.82915.17667-3.20075 0-3.74356-.78638-3.74356-1.41056 0-1.0413 4.59017-1.77627 6.39902-1.77627 1.73283 0 2.49822.55682 2.49822.98118 0 .49095-.78132 1.65605-2.32444 2.02898zm-6.19783-19.77583c0-.73718-.82984-1.81756-2.27664-1.81756-1.28678 0-2.26939.97104-2.52647 1.72992.30848.5967.60537 1.22667 1.83926 1.60032.16293.04926.32659.0536.32659.19263 0 .19769-.20855.29689-.64809.29689-1.39828 0-2.22958-.57133-2.59888-1.05434-.36134.05068-.77987.19117-1.30269.20999-.42795.01593-.62275-.27007-.62275-.65171 0-.24617.07313-.51702.2194-.81825.08038-.16582.16655-.33815.22955-.46053.21724-.42508.54889-1.3715 1.8255-2.09923.14845-.08472.5344-.3179.7321-.43447.72267-.42435 1.26867-.52501 2.12818-.52501h.62998c1.0297 0 1.55614.28966 2.01088.67127.92252.77627 1.4294 1.19843 1.4294 1.77481 0 .64015-.03403 1.12964-.54525 1.80451-.43955.5757-1.08184.95874-1.49749.95874-.1173 0-.15134-.0637-.15134-.12961 0-.0876.09703-.13107.19769-.21216.3396-.2759.49311-.76468.60102-1.03621zm-12.88205-4.1292c.31716 0 .55902-.21 1.03838-.74006 1.07241-1.18538 2.1079-1.34398 2.1079-1.85086 0-.22518-.14482-.44606-.29616-.68212-1.14266-1.78566-1.63073-2.7502-2.3114-4.04643-.2462-.46922-.5677-.79072-.81247-.79072-.39538 0-.81245.46125-1.05431.85662-.34106.55757-.68067 1.18613-.68067 1.75746 0 .86316.21217 2.43883.57062 3.44813.3874 1.0898.95006 2.04783 1.43809 2.04783zm20.72722-2.34831c-.05143-.02899-.2339-.0956-.2339-.27665 0-.20853.15135-.42432.45837-.83563.70674-.94786 1.67707-2.10862 2.0326-2.10862.1738 0 .28242.11873.49675.5257.12744.24115.23678.64374.23678 1.0261 0 1.25922-.43446 2.14411-1.10716 3.14402-.33527-.32222-.95945-.94569-1.88344-1.47501zM37.20556 37.9504c0-.42653.3512-1.0891.3512-1.68141 0-.70386-.86314-.92761-1.5337-1.0203-1.41056-.19552-1.88126-.13178-1.88126-.44315 0-.21508.18972-.43955.4468-.80885.37944-.54526 1.28312-.75166 1.76396-.81753.63361-.0869 1.33527-.17162 2.17599-.17162.94209 0 1.74223.14046 2.11007.20491.86462.14992.99929.51197.99929.91748v.4055c0 .40915-.33527.61914-.93846.75092-.1506.03258-.36205.07096-.46342.09195-.43738.09052-.97901.17741-1.1709.72992-.41203 1.18538-1.12893 2.11516-1.65971 2.09126-.09775-.00434-.19986-.07821-.19986-.24908M139.1308 17.7828c-.26285-.09269-1.27373-.41999-2.19917-.41999-2.01016 0-2.81393 1.09123-2.81393 2.05431 0 1.25854.93483 1.84072 2.01379 2.11228l1.7147.44968c2.41496.64158 5.08834 1.66694 5.08834 5.24613 0 3.28228-2.11082 5.49103-6.77722 5.49103-1.80525 0-3.68156-.19768-5.88566-.96307v-4.5663h3.10124v2.22958c.49315.1354 1.90083.4859 3.08912.4859 1.832 0 2.72053-.76468 2.72053-2.07245 0-1.08258-.61188-1.86533-2.81613-2.45768l-1.47502-.40622c-3.37745-.91385-4.52569-2.53807-4.52569-5.20428 0-2.73935 1.82913-4.91598 6.47156-4.91598 1.9935 0 3.9863.34543 5.394.91313v4.12176h-3.10061v-2.09777zm22.35658 9.15802c-2.81393 0-3.70233.5916-3.70233 1.70314 0 .76468.54309 1.55468 1.90083 1.55468 1.38235 0 2.76399-1.084 2.76399-3.25779h-.96237zm1.0123-2.7408c0-1.78278-.86675-2.46782-2.61044-2.46782-1.1137 0-1.91314.2882-2.14195.37005V23.83h-2.80091v-3.28259c.462-.2621 2.53515-1.3331 4.89924-1.3331 3.596 0 5.91046 1.46274 5.91046 5.07967v5.6082h1.33455v2.51777h-4.18035l-.10066-1.75746h-.04997c-.25634.35991-1.19843 2.05363-4.1109 2.05363-2.91243 0-4.31955-1.72775-4.31955-3.75224 0-2.45551 1.88418-4.14501 6.61912-4.14501h1.55106v-.61913zm-16.40922-7.45426h3.45557v2.7647h3.45557v2.51776h-3.45557v5.75112c0 1.73064.60536 2.27084 2.03769 2.27084.53583 0 1.26939-.14337 1.53874-.19697v2.45188c-.28383.08544-1.53874.4113-2.84363.4113-2.54237 0-4.1884-1.36715-4.1884-3.63815v-7.05002h-1.75237v-2.51776h1.75236v-2.7647zm23.2872 0h3.45557v2.7647h3.45557v2.51776h-3.45557v5.75112c0 1.73064.60536 2.27084 2.03694 2.27084.53658 0 1.27014-.14337 1.5395-.19697v2.45188c-.28384.08544-1.5395.4113-2.84364.4113-2.54237 0-4.1884-1.36715-4.1884-3.63815v-7.05002h-1.75237v-2.51776h1.75236v-2.7647zm-55.0932 5.2824h-1.6785V19.5104h4.74083l.09486 1.68937h.04923c.2288-.357 1.3541-1.98555 3.96676-1.98555 3.2767 0 4.99565 2.30851 4.99565 5.14693v5.54094h1.4808v2.51776h-6.34321V29.9021h1.40696v-4.94512c0-1.80013-.99786-2.7806-2.63797-2.7806-1.48084 0-2.61988.8313-2.61988 2.7806v4.94512h1.48156v2.51776h-6.34477V29.9021h1.40768v-7.874zm-16.8299 0h-1.67853V19.5104h4.74083l.09486 1.68937h.04923c.22884-.357 1.3541-1.98555 3.96676-1.98555 3.27608 0 4.99565 2.30851 4.99565 5.14693v5.54094h1.48084v2.51776h-6.34322V29.9021h1.40696v-4.94512c0-1.80013-.99857-2.7806-2.63869-2.7806-1.48012 0-2.61916.8313-2.61916 2.7806v4.94512h1.48084v2.51776h-6.34415V29.9021h1.40771v-7.874zm88.722 2.34471c0-1.77701-1.01231-2.78932-2.61625-2.78932-1.58004 0-2.49314 1.03695-2.6416 2.78932h5.2579zm-5.23311 2.37005c.09923 2.04854 1.67852 3.30708 4.09789 3.30708 2.12963 0 3.43604-.58873 3.9993-.81611v2.66767c-.52644.21074-1.96598.81465-4.7647.81465-4.98634 0-7.08411-3.11085-7.08411-6.68949 0-4.02318 2.44391-6.81256 6.4917-6.81256 4.44324 0 6.24496 3.357 6.24496 7.52866h-8.98504zm-90.4425-2.37005c0-1.77701-1.01234-2.78932-2.61628-2.78932-1.58 0-2.49314 1.03695-2.64157 2.78932h5.2579zm-5.23311 2.37005c.0992 2.04854 1.67849 3.30708 4.09789 3.30708 2.12963 0 3.43604-.58873 3.9993-.81611v2.66767c-.52644.21074-1.96598.81465-4.7647.81465-4.98634 0-7.08411-3.11085-7.08411-6.68949 0-4.02318 2.44391-6.81256 6.4917-6.81256 4.44324 0 6.24496 3.357 6.24496 7.52866h-8.98504zM74.141 23.23744c1.8016 0 2.97829-1.0355 2.97829-2.78787 0-1.59088-1.02753-2.79077-3.02755-2.79077H71.8868v5.57876h2.2542zm-5.85807-5.57876H66.5798v-2.51776h7.9329c4.17167 0 6.34973 2.1912 6.34973 5.30844 0 3.70109-2.91893 5.30565-6.34973 5.30565h-2.62567v4.14718h1.70314v2.51776h-7.01034v-2.51776h1.70314V17.65874" fill="#1e407c"/></svg>