<svg xmlns="http://www.w3.org/2000/svg" role="img" viewBox="-11.98 -11.98 622.96 173.46"><defs><style>.cls-1{fill:#ad181f}</style></defs><path d="M168.52 59.91a15 15 0 0 0-15-15h-22.44v59.92h7.49v-30l20.83 30h9.13l-20.84-30h5.84a15 15 0 0 0 15-15m-15-7.49a7.5 7.5 0 1 1 0 15h-15v-15z" class="cls-1"/><path d="M180.61 44.93h7.49v59.92h-7.49zm265.04 0h7.49v59.92h-7.49zm-245.46 7.5h14.98v52.42h7.48V52.43h14.98v-7.49h-37.44v7.49z" class="cls-1"/><path d="M247.31 52.89c-1.5 2.81-1.75 5-1.75 8.89s.25 6.09 1.75 8.9a14.88 14.88 0 0 0 13.27 7.96h7.41a7.43 7.43 0 0 1 6.66 4c.63 1.19.87 2 .87 5.38s-.24 4.19-.87 5.38a7.44 7.44 0 0 1-6.66 4h-22.43v7.49h22.43a14.89 14.89 0 0 0 13.27-8c1.5-2.81 1.75-5 1.75-8.89s-.25-6.09-1.75-8.9a14.88 14.88 0 0 0-13.27-7.95h-7.41a7.42 7.42 0 0 1-6.66-4c-.63-1.19-.87-1.95-.87-5.38s.24-4.19.87-5.38a7.43 7.43 0 0 1 6.66-4h22.43V44.9h-22.43a14.89 14.89 0 0 0-13.27 7.99z" class="cls-1"/><path d="M494.23 44.94L474.1 68.62V44.94h-7.49v59.91h7.49V81.17l20.13 23.68h9.83L478.6 74.89l25.46-29.95h-9.83zm97.44 0v43.57L569.2 44.94h-7.49v59.91h7.49V61.28l22.47 43.57h7.48V44.94h-7.48z" class="cls-1"/><path d="M325.24 44.94v44.89a7.44 7.44 0 0 1-4 6.66c-1.19.63-2.21.87-5.63.87h-3.23c-3.42 0-4.44-.23-5.63-.87a7.49 7.49 0 0 1-4-6.66v-44.9h-7.47v44.89a14.9 14.9 0 0 0 8 13.28c2.81 1.49 5.27 1.75 9.14 1.75h3.25c3.88 0 6.33-.25 9.14-1.75a14.89 14.89 0 0 0 8-13.27V44.94zm80.96 8.36c1.18-.64 2.21-.87 5.63-.87h20.34v-7.49h-20.34c-3.88 0-6.33.25-9.15 1.74a14.92 14.92 0 0 0-8 13.28v29.86a14.92 14.92 0 0 0 8 13.28c2.82 1.49 5.27 1.74 9.15 1.74h20.34v-7.49h-20.34c-3.42 0-4.45-.24-5.63-.87a7.47 7.47 0 0 1-4-6.66V78.64h30v-7.48h-30v-11.2a7.47 7.47 0 0 1 4-6.66zm143.24 6.66a14.92 14.92 0 0 0-8-13.28c-2.81-1.49-5.27-1.74-9.15-1.74h-3.21c-3.88 0-6.34.25-9.14 1.75a14.89 14.89 0 0 0-8 13.27v44.9h7.49V78.64h22.47v26.22h7.49v-44.9m-30 11.18V59.95a7.43 7.43 0 0 1 4-6.66c1.19-.63 2.21-.87 5.63-.87h3.24c3.42 0 4.44.23 5.63.87a7.48 7.48 0 0 1 4 6.66v11.19z" class="cls-1"/><path d="M382.45 44.94h-8.17l-10.55 24.3-10.56-24.3H345v59.91h7.49V62.18l7.15 16.46h8.17l7.15-16.46v42.67h7.49V44.94z" class="cls-1"/><path d="M93.62 37.44A37.44 37.44 0 0 0 56.08 0H0v149.78h18.72V74.89l52.08 74.89h22.81L41.53 74.89h14.55a37.45 37.45 0 0 0 37.5-37.45m-37.5-18.72a18.73 18.73 0 1 1 0 37.45h-37.4V18.72z" class="cls-1"/></svg>