<?xml version="1.0" encoding="utf-8"?>
<!-- Generator: Adobe Illustrator 23.0.2, SVG Export Plug-In . SVG Version: 6.00 Build 0)  -->
<svg version="1.1" id="Layer_1" xmlns="http://www.w3.org/2000/svg" xmlns:xlink="http://www.w3.org/1999/xlink" x="0px" y="0px"
	 viewBox="0 0 400 245" style="enable-background:new 0 0 400 245;" xml:space="preserve">
<style type="text/css">
	.st0{fill:#F16522;}
	.st1{fill:#004975;}
	.st2{fill:#592C82;}
	.st3{fill:#FFD100;}
	.st4{fill:#636569;}
	.st5{fill:url(#SVGID_1_);}
	.st6{fill:#FF574D;}
	.st7{fill:#D70C18;}
	.st8{fill-rule:evenodd;clip-rule:evenodd;fill:#3F3F3F;}
	.st9{fill-rule:evenodd;clip-rule:evenodd;fill:#FF4080;}
	.st10{fill:#F89D20;}
	.st11{fill:#2F347C;}
	.st12{opacity:0.6;}
	.st13{fill:url(#path2_fill_2_);}
	.st14{opacity:0.2;}
	.st15{fill:url(#path3_fill_2_);}
	.st16{opacity:0.8;}
	.st17{fill:url(#path4_fill_2_);}
	.st18{fill:url(#path5_fill_2_);}
	.st19{fill:url(#path2_fill_3_);}
	.st20{fill:url(#path3_fill_3_);}
	.st21{fill:url(#path4_fill_3_);}
	.st22{fill:url(#path5_fill_3_);}
	.st23{fill-rule:evenodd;clip-rule:evenodd;fill:#1D6734;}
	.st24{fill-rule:evenodd;clip-rule:evenodd;fill:#2A9646;}
	.st25{filter:url(#Adobe_OpacityMaskFilter);}
	.st26{filter:url(#Adobe_OpacityMaskFilter_1_);}
	.st27{mask:url(#SVGID_2_);fill-rule:evenodd;clip-rule:evenodd;fill:url(#SVGID_3_);}
	.st28{filter:url(#Adobe_OpacityMaskFilter_2_);}
	.st29{filter:url(#Adobe_OpacityMaskFilter_3_);}
	.st30{mask:url(#SVGID_4_);fill-rule:evenodd;clip-rule:evenodd;fill:url(#SVGID_5_);}
	.st31{fill-rule:evenodd;clip-rule:evenodd;fill:url(#SVGID_6_);}
	.st32{filter:url(#Adobe_OpacityMaskFilter_4_);}
	.st33{filter:url(#Adobe_OpacityMaskFilter_5_);}
	.st34{mask:url(#SVGID_7_);fill-rule:evenodd;clip-rule:evenodd;fill:url(#SVGID_8_);}
	.st35{filter:url(#Adobe_OpacityMaskFilter_6_);}
	.st36{filter:url(#Adobe_OpacityMaskFilter_7_);}
	.st37{mask:url(#SVGID_9_);fill-rule:evenodd;clip-rule:evenodd;fill:url(#SVGID_10_);}
	.st38{fill-rule:evenodd;clip-rule:evenodd;fill:url(#SVGID_11_);}
	.st39{fill:#231F20;}
	.st40{fill:#EB2027;}
	.st41{fill:none;stroke:#9DA3AD;stroke-width:0.0694;}
	.st42{fill:none;stroke:#9EA4AE;stroke-width:0.0694;}
	.st43{fill:none;stroke:#9FA5AF;stroke-width:0.0694;}
	.st44{fill:none;stroke:#A0A6AF;stroke-width:0.0694;}
	.st45{fill:none;stroke:#A1A7B0;stroke-width:0.0694;}
	.st46{fill:none;stroke:#A2A7B1;stroke-width:0.0694;}
	.st47{fill:none;stroke:#A3A8B2;stroke-width:0.0694;}
	.st48{fill:none;stroke:#A4A9B2;stroke-width:0.0694;}
	.st49{fill:none;stroke:#A5AAB3;stroke-width:0.0694;}
	.st50{fill:none;stroke:#A6ABB4;stroke-width:0.0694;}
	.st51{fill:none;stroke:#A7ACB5;stroke-width:0.0694;}
	.st52{fill:none;stroke:#A8ADB6;stroke-width:0.0694;}
	.st53{fill:none;stroke:#A9AEB6;stroke-width:0.0694;}
	.st54{fill:none;stroke:#AAAFB7;stroke-width:0.0694;}
	.st55{fill:none;stroke:#ABAFB8;stroke-width:0.0694;}
	.st56{fill:none;stroke:#ACB0B9;stroke-width:0.0694;}
	.st57{fill:none;stroke:#ADB1B9;stroke-width:0.0694;}
	.st58{fill:none;stroke:#AEB2BA;stroke-width:0.0694;}
	.st59{fill:none;stroke:#AFB3BB;stroke-width:0.0694;}
	.st60{fill:none;stroke:#B0B4BC;stroke-width:0.0694;}
	.st61{fill:none;stroke:#B1B5BC;stroke-width:0.0694;}
	.st62{fill:none;stroke:#B2B6BD;stroke-width:0.0694;}
	.st63{fill:none;stroke:#B3B6BE;stroke-width:0.0694;}
	.st64{fill:none;stroke:#B3B7BF;stroke-width:0.0694;}
	.st65{fill:none;stroke:#B4B8C0;stroke-width:0.0694;}
	.st66{fill:none;stroke:#B5B9C0;stroke-width:0.0694;}
	.st67{fill:none;stroke:#B6BAC1;stroke-width:0.0694;}
	.st68{fill:none;stroke:#B7BBC2;stroke-width:0.0694;}
	.st69{fill:none;stroke:#B8BCC3;stroke-width:0.0694;}
	.st70{fill:none;stroke:#B9BDC3;stroke-width:0.0694;}
	.st71{fill:none;stroke:#BABEC4;stroke-width:0.0694;}
	.st72{fill:none;stroke:#BBBEC5;stroke-width:0.0694;}
	.st73{fill:none;stroke:#BCBFC6;stroke-width:0.0694;}
	.st74{fill:none;stroke:#BDC0C6;stroke-width:0.0694;}
	.st75{fill:none;stroke:#BEC1C7;stroke-width:0.0694;}
	.st76{fill:none;stroke:#BFC2C8;stroke-width:0.0694;}
	.st77{fill:none;stroke:#C0C3C9;stroke-width:0.0694;}
	.st78{fill:none;stroke:#C1C4CA;stroke-width:0.0694;}
	.st79{fill:none;stroke:#C2C5CA;stroke-width:0.0694;}
	.st80{fill:none;stroke:#C3C6CB;stroke-width:0.0694;}
	.st81{fill:none;stroke:#C4C6CC;stroke-width:0.0694;}
	.st82{fill:none;stroke:#C5C7CD;stroke-width:0.0694;}
	.st83{fill:none;stroke:#C6C8CD;stroke-width:0.0694;}
	.st84{fill:none;stroke:#C7C9CE;stroke-width:0.0694;}
	.st85{fill:none;stroke:#C8CACF;stroke-width:0.0694;}
	.st86{fill:url(#SVGID_12_);}
	.st87{fill:none;}
	.st88{fill:#FFFFFF;}
	.st89{fill:#B01117;}
	.st90{fill:#B11117;}
	.st91{fill:#B21117;}
	.st92{fill:#B31218;}
	.st93{fill:#B41218;}
	.st94{fill:#B51218;}
	.st95{fill:#B61218;}
	.st96{fill:#B71218;}
	.st97{fill:#B81219;}
	.st98{fill:#B91319;}
	.st99{fill:#BA1319;}
	.st100{fill:#BB1319;}
	.st101{fill:#BC131A;}
	.st102{fill:#BD131A;}
	.st103{fill:#BE141A;}
	.st104{fill:#BF141A;}
	.st105{fill:#C0141A;}
	.st106{fill:#C1141B;}
	.st107{fill:#C2141B;}
	.st108{fill:#C3151B;}
	.st109{fill:#C4151B;}
	.st110{fill:#C5151B;}
	.st111{fill:#C6151C;}
	.st112{fill:#C7151C;}
	.st113{fill:#C8151C;}
	.st114{fill:#C9161C;}
	.st115{fill:#CA161D;}
	.st116{fill:#CB161D;}
	.st117{fill:#CC161D;}
	.st118{fill:#CD161D;}
	.st119{fill:#CE171D;}
	.st120{fill:#CF171E;}
	.st121{fill:#D0171E;}
	.st122{fill:#D1171E;}
	.st123{fill:#D2171E;}
	.st124{fill:#D3171E;}
	.st125{fill:#D4181F;}
	.st126{fill:#D5181F;}
	.st127{fill:#D6181F;}
	.st128{fill:#D7181F;}
	.st129{fill:#D81820;}
	.st130{fill:#D91920;}
	.st131{fill:#DA1920;}
	.st132{fill:#DB1920;}
	.st133{fill:#DC1921;}
	.st134{fill:#DD1921;}
	.st135{fill:#DE1A21;}
	.st136{fill:#DF1A21;}
	.st137{fill:#E01A21;}
	.st138{fill:#E11A22;}
	.st139{fill:#E21A22;}
	.st140{fill:#E31B22;}
	.st141{fill:#E41B22;}
	.st142{fill:#E51B23;}
	.st143{fill:#E61B23;}
	.st144{fill:#E71B23;}
	.st145{fill:#E81C23;}
	.st146{fill:#E91C23;}
	.st147{fill:#EA1C24;}
	.st148{fill:#EB1C24;}
	.st149{fill:#EC1C24;}
	.st150{fill:#ED1C24;}
	.st151{fill:none;stroke:#FFFFFF;stroke-width:0.0138;stroke-linecap:round;}
	.st152{fill:none;stroke:#FEFEFE;stroke-width:0.0138;stroke-linecap:round;stroke-linejoin:round;}
	.st153{fill:none;stroke:#FDFDFD;stroke-width:0.0138;stroke-linecap:round;stroke-linejoin:round;}
	.st154{fill:none;stroke:#FCFCFD;stroke-width:0.0138;stroke-linecap:round;stroke-linejoin:round;}
	.st155{fill:none;stroke:#FBFCFC;stroke-width:0.0138;stroke-linecap:round;stroke-linejoin:round;}
	.st156{fill:none;stroke:#FAFBFB;stroke-width:0.0138;stroke-linecap:round;stroke-linejoin:round;}
	.st157{fill:none;stroke:#F9FAFA;stroke-width:0.0138;stroke-linecap:round;stroke-linejoin:round;}
	.st158{fill:none;stroke:#F8F9F9;stroke-width:0.0138;stroke-linecap:round;stroke-linejoin:round;}
	.st159{fill:none;stroke:#F7F8F9;stroke-width:0.0138;stroke-linecap:round;stroke-linejoin:round;}
	.st160{fill:none;stroke:#F6F7F8;stroke-width:0.0138;stroke-linecap:round;stroke-linejoin:round;}
	.st161{fill:none;stroke:#F5F6F7;stroke-width:0.0138;stroke-linecap:round;stroke-linejoin:round;}
	.st162{fill:none;stroke:#F4F5F6;stroke-width:0.0138;stroke-linecap:round;stroke-linejoin:round;}
	.st163{fill:none;stroke:#F3F5F6;stroke-width:0.0138;stroke-linecap:round;stroke-linejoin:round;}
	.st164{fill:none;stroke:#F2F4F5;stroke-width:0.0138;stroke-linecap:round;stroke-linejoin:round;}
	.st165{fill:none;stroke:#F1F3F4;stroke-width:0.0138;stroke-linecap:round;stroke-linejoin:round;}
	.st166{fill:none;stroke:#F0F2F3;stroke-width:0.0138;stroke-linecap:round;stroke-linejoin:round;}
	.st167{fill:none;stroke:#EFF1F2;stroke-width:0.0138;stroke-linecap:round;stroke-linejoin:round;}
	.st168{fill:none;stroke:#EEF0F2;stroke-width:0.0138;stroke-linecap:round;stroke-linejoin:round;}
	.st169{fill:none;stroke:#EDEFF1;stroke-width:0.0138;stroke-linecap:round;stroke-linejoin:round;}
	.st170{fill:none;stroke:#ECEEF0;stroke-width:0.0138;stroke-linecap:round;stroke-linejoin:round;}
	.st171{fill:none;stroke:#EBEEEF;stroke-width:0.0138;stroke-linecap:round;stroke-linejoin:round;}
	.st172{fill:none;stroke:#EAEDEE;stroke-width:0.0138;stroke-linecap:round;stroke-linejoin:round;}
	.st173{fill:none;stroke:#E9ECEE;stroke-width:0.0138;stroke-linecap:round;stroke-linejoin:round;}
	.st174{fill:none;stroke:#E8EBED;stroke-width:0.0138;stroke-linecap:round;stroke-linejoin:round;}
	.st175{fill:none;stroke:#E7EAEC;stroke-width:0.0138;stroke-linecap:round;stroke-linejoin:round;}
	.st176{fill:none;stroke:#E6E9EB;stroke-width:0.0138;stroke-linecap:round;stroke-linejoin:round;}
	.st177{fill:none;stroke:#E5E8EB;stroke-width:0.0138;stroke-linecap:round;stroke-linejoin:round;}
	.st178{fill:none;stroke:#E4E7EA;stroke-width:0.0138;stroke-linecap:round;stroke-linejoin:round;}
	.st179{fill:none;stroke:#E3E7E9;stroke-width:0.0138;stroke-linecap:round;stroke-linejoin:round;}
	.st180{fill:none;stroke:#E2E6E8;stroke-width:0.0138;stroke-linecap:round;stroke-linejoin:round;}
	.st181{fill:none;stroke:#E1E5E7;stroke-width:0.0138;stroke-linecap:round;stroke-linejoin:round;}
	.st182{fill:none;stroke:#E0E4E7;stroke-width:0.0138;stroke-linecap:round;stroke-linejoin:round;}
	.st183{fill:none;stroke:#DFE3E6;stroke-width:0.0138;stroke-linecap:round;stroke-linejoin:round;}
	.st184{fill:none;stroke:#DEE2E5;stroke-width:0.0138;stroke-linecap:round;stroke-linejoin:round;}
	.st185{fill:none;stroke:#DDE1E4;stroke-width:0.0138;stroke-linecap:round;stroke-linejoin:round;}
	.st186{fill:none;stroke:#DCE0E3;stroke-width:0.0138;stroke-linecap:round;stroke-linejoin:round;}
	.st187{fill:none;stroke:#DBE0E3;stroke-width:0.0138;stroke-linecap:round;stroke-linejoin:round;}
	.st188{fill:none;stroke:#DADFE2;stroke-width:0.0138;stroke-linecap:round;stroke-linejoin:round;}
	.st189{fill:none;stroke:#D9DEE1;stroke-width:0.0138;stroke-linecap:round;stroke-linejoin:round;}
	.st190{fill:none;stroke:#D8DDE0;stroke-width:0.0138;stroke-linecap:round;stroke-linejoin:round;}
	.st191{fill:none;stroke:#D7DCDF;stroke-width:0.0138;stroke-linecap:round;stroke-linejoin:round;}
	.st192{fill:none;stroke:#D6DBDF;stroke-width:0.0138;stroke-linecap:round;stroke-linejoin:round;}
	.st193{fill:none;stroke:#D5DADE;stroke-width:0.0138;stroke-linecap:round;stroke-linejoin:round;}
	.st194{fill:none;stroke:#D4D9DD;stroke-width:0.0138;stroke-linecap:round;stroke-linejoin:round;}
	.st195{fill:none;stroke:#D3D9DC;stroke-width:0.0138;stroke-linecap:round;stroke-linejoin:round;}
	.st196{fill:none;stroke:#D2D8DC;stroke-width:0.0138;stroke-linecap:round;stroke-linejoin:round;}
	.st197{fill:none;stroke:#D1D7DB;stroke-width:0.0138;stroke-linecap:round;stroke-linejoin:round;}
	.st198{fill:none;stroke:#D0D6DA;stroke-width:0.0138;stroke-linecap:round;stroke-linejoin:round;}
	.st199{fill:none;stroke:#CFD5D9;stroke-width:0.0138;stroke-linecap:round;stroke-linejoin:round;}
	.st200{fill:none;stroke:#CED4D8;stroke-width:0.0138;stroke-linecap:round;stroke-linejoin:round;}
	.st201{fill:none;stroke:#CDD3D8;stroke-width:0.0138;stroke-linecap:round;stroke-linejoin:round;}
	.st202{fill:none;stroke:#CCD2D7;stroke-width:0.0138;stroke-linecap:round;stroke-linejoin:round;}
	.st203{fill:none;stroke:#CBD2D6;stroke-width:0.0138;stroke-linecap:round;stroke-linejoin:round;}
	.st204{fill:none;stroke:#CAD1D5;stroke-width:0.0138;stroke-linecap:round;stroke-linejoin:round;}
	.st205{fill:none;stroke:#C9D0D4;stroke-width:0.0138;stroke-linecap:round;stroke-linejoin:round;}
	.st206{fill:none;stroke:#C8CFD4;stroke-width:0.0138;stroke-linecap:round;stroke-linejoin:round;}
	.st207{fill:none;stroke:#C7CED3;stroke-width:0.0138;stroke-linecap:round;stroke-linejoin:round;}
	.st208{fill:none;stroke:#C6CDD2;stroke-width:0.0138;stroke-linecap:round;stroke-linejoin:round;}
	.st209{fill:none;stroke:#C5CCD1;stroke-width:0.0138;stroke-linecap:round;stroke-linejoin:round;}
	.st210{fill:none;stroke:#C4CCD1;stroke-width:0.0138;stroke-linecap:round;stroke-linejoin:round;}
	.st211{fill:none;stroke:#C3CBD0;stroke-width:0.0138;stroke-linecap:round;stroke-linejoin:round;}
	.st212{fill:none;stroke:#C2CACF;stroke-width:0.0138;stroke-linecap:round;stroke-linejoin:round;}
	.st213{fill:none;stroke:#C1C9CE;stroke-width:0.0138;stroke-linecap:round;stroke-linejoin:round;}
	.st214{fill:none;stroke:#C0C8CD;stroke-width:0.0138;stroke-linecap:round;stroke-linejoin:round;}
	.st215{fill:none;stroke:#BFC7CD;stroke-width:0.0138;stroke-linecap:round;stroke-linejoin:round;}
	.st216{fill:none;stroke:#BEC6CC;stroke-width:0.0138;stroke-linecap:round;stroke-linejoin:round;}
	.st217{fill:none;stroke:#BDC5CB;stroke-width:0.0138;stroke-linecap:round;stroke-linejoin:round;}
	.st218{fill:none;stroke:#BCC5CA;stroke-width:0.0138;stroke-linecap:round;stroke-linejoin:round;}
	.st219{fill:none;stroke:#BBC4C9;stroke-width:0.0138;stroke-linecap:round;stroke-linejoin:round;}
	.st220{fill:none;stroke:#BAC3C9;stroke-width:0.0138;stroke-linecap:round;stroke-linejoin:round;}
	.st221{fill:none;stroke:#B9C2C8;stroke-width:0.0138;stroke-linecap:round;stroke-linejoin:round;}
	.st222{fill:none;stroke:#B8C1C7;stroke-width:0.0138;stroke-linecap:round;stroke-linejoin:round;}
	.st223{fill:none;stroke:#B7C0C6;stroke-width:0.0138;stroke-linecap:round;stroke-linejoin:round;}
	.st224{fill:none;stroke:#B6BFC5;stroke-width:0.0138;stroke-linecap:round;stroke-linejoin:round;}
	.st225{fill:none;stroke:#B5BEC5;stroke-width:0.0138;stroke-linecap:round;stroke-linejoin:round;}
	.st226{fill:none;stroke:#B4BEC4;stroke-width:0.0138;stroke-linecap:round;stroke-linejoin:round;}
	.st227{fill:none;stroke:#B3BDC3;stroke-width:0.0138;stroke-linecap:round;stroke-linejoin:round;}
	.st228{fill:none;stroke:#B2BCC2;stroke-width:0.0138;stroke-linecap:round;stroke-linejoin:round;}
	.st229{fill:none;stroke:#B1BBC2;stroke-width:0.0138;stroke-linecap:round;stroke-linejoin:round;}
	.st230{fill:none;stroke:#B0BAC1;stroke-width:0.0138;stroke-linecap:round;stroke-linejoin:round;}
	.st231{fill:none;stroke:#AFB9C0;stroke-width:0.0138;stroke-linecap:round;stroke-linejoin:round;}
	.st232{fill:none;stroke:#AEB8BF;stroke-width:0.0138;stroke-linecap:round;stroke-linejoin:round;}
	.st233{fill:none;stroke:#ADB7BE;stroke-width:0.0138;stroke-linecap:round;stroke-linejoin:round;}
	.st234{fill:none;stroke:#ACB7BE;stroke-width:0.0138;stroke-linecap:round;stroke-linejoin:round;}
	.st235{fill:none;stroke:#ABB6BD;stroke-width:0.0138;stroke-linecap:round;stroke-linejoin:round;}
	.st236{fill:none;stroke:#AAB5BC;stroke-width:0.0138;stroke-linecap:round;stroke-linejoin:round;}
	.st237{fill:none;stroke:#A9B4BB;stroke-width:0.0138;stroke-linecap:round;stroke-linejoin:round;}
	.st238{fill:none;stroke:#A8B3BA;stroke-width:0.0138;stroke-linecap:round;stroke-linejoin:round;}
	.st239{fill:none;stroke:#A7B2BA;stroke-width:0.0138;stroke-linecap:round;stroke-linejoin:round;}
	.st240{fill:none;stroke:#A6B1B9;stroke-width:0.0138;stroke-linecap:round;stroke-linejoin:round;}
	.st241{fill:none;stroke:#A5B0B8;stroke-width:0.0138;stroke-linecap:round;stroke-linejoin:round;}
	.st242{fill:none;stroke:#A4B0B7;stroke-width:0.0138;stroke-linecap:round;stroke-linejoin:round;}
	.st243{fill:none;stroke:#A3AFB7;stroke-width:0.0138;stroke-linecap:round;stroke-linejoin:round;}
	.st244{fill:none;stroke:#A2AEB6;stroke-width:0.0138;stroke-linecap:round;stroke-linejoin:round;}
	.st245{fill:none;stroke:#A1ADB5;stroke-width:0.0138;stroke-linecap:round;stroke-linejoin:round;}
	.st246{fill:none;stroke:#A0ACB4;stroke-width:0.0138;stroke-linecap:round;stroke-linejoin:round;}
	.st247{fill:none;stroke:#9FABB3;stroke-width:0.0138;stroke-linecap:round;stroke-linejoin:round;}
	.st248{fill:none;stroke:#9EAAB3;stroke-width:0.0138;stroke-linecap:round;stroke-linejoin:round;}
	.st249{fill:none;stroke:#9DA9B2;stroke-width:0.0138;stroke-linecap:round;stroke-linejoin:round;}
	.st250{fill:none;stroke:#9CA9B1;stroke-width:0.0138;stroke-linecap:round;stroke-linejoin:round;}
	.st251{fill:none;stroke:#9BA8B0;stroke-width:0.0138;stroke-linecap:round;stroke-linejoin:round;}
	.st252{fill:none;stroke:#9AA7AF;stroke-width:0.0138;stroke-linecap:round;stroke-linejoin:round;}
	.st253{fill:none;stroke:#99A6AF;stroke-width:0.0138;stroke-linecap:round;stroke-linejoin:round;}
	.st254{fill:none;stroke:#98A5AE;stroke-width:0.0138;stroke-linecap:round;stroke-linejoin:round;}
	.st255{fill:none;stroke:#97A4AD;stroke-width:0.0138;stroke-linecap:round;stroke-linejoin:round;}
	.st256{fill:none;stroke:#96A3AC;stroke-width:0.0138;stroke-linecap:round;stroke-linejoin:round;}
	.st257{fill:none;stroke:#95A2AB;stroke-width:0.0138;stroke-linecap:round;stroke-linejoin:round;}
	.st258{fill:none;stroke:#94A2AB;stroke-width:0.0138;stroke-linecap:round;stroke-linejoin:round;}
	.st259{fill:none;stroke:#93A1AA;stroke-width:0.0138;stroke-linecap:round;stroke-linejoin:round;}
	.st260{fill:none;stroke:#92A0A9;stroke-width:0.0138;stroke-linecap:round;stroke-linejoin:round;}
	.st261{fill:none;stroke:#919FA8;stroke-width:0.0138;stroke-linecap:round;stroke-linejoin:round;}
	.st262{fill:none;stroke:#909EA8;stroke-width:0.0138;stroke-linecap:round;stroke-linejoin:round;}
	.st263{fill:none;stroke:#8F9DA7;stroke-width:0.0138;stroke-linecap:round;stroke-linejoin:round;}
	.st264{fill:none;stroke:#8E9CA6;stroke-width:0.0138;stroke-linecap:round;stroke-linejoin:round;}
	.st265{fill:none;stroke:#8D9CA5;stroke-width:0.0138;stroke-linecap:round;stroke-linejoin:round;}
	.st266{fill:none;stroke:#8C9BA4;stroke-width:0.0138;stroke-linecap:round;stroke-linejoin:round;}
	.st267{fill:none;stroke:#8B9AA4;stroke-width:0.0138;stroke-linecap:round;stroke-linejoin:round;}
	.st268{fill:none;stroke:#8A99A3;stroke-width:0.0138;stroke-linecap:round;stroke-linejoin:round;}
	.st269{fill:none;stroke:#8998A2;stroke-width:0.0138;stroke-linecap:round;stroke-linejoin:round;}
	.st270{fill:none;stroke:#8897A1;stroke-width:0.0138;stroke-linecap:round;stroke-linejoin:round;}
	.st271{fill:none;stroke:#8796A0;stroke-width:0.0138;stroke-linecap:round;stroke-linejoin:round;}
	.st272{fill:none;stroke:#8695A0;stroke-width:0.0138;stroke-linecap:round;stroke-linejoin:round;}
	.st273{fill:none;stroke:#85959F;stroke-width:0.0138;stroke-linecap:round;stroke-linejoin:round;}
	.st274{fill:none;stroke:#84949E;stroke-width:0.0138;stroke-linecap:round;stroke-linejoin:round;}
	.st275{fill:none;stroke:#83939D;stroke-width:0.0138;stroke-linecap:round;stroke-linejoin:round;}
	.st276{fill:none;stroke:#82929D;stroke-width:0.0138;stroke-linecap:round;stroke-linejoin:round;}
	.st277{fill:none;stroke:#81919C;stroke-width:0.0138;stroke-linecap:round;stroke-linejoin:round;}
	.st278{fill:none;stroke:#80909B;stroke-width:0.0138;stroke-linecap:round;stroke-linejoin:round;}
	.st279{fill:none;stroke:#7F8F9A;stroke-width:0.0138;stroke-linecap:round;stroke-linejoin:round;}
	.st280{fill:none;stroke:#7E8E99;stroke-width:0.0138;stroke-linecap:round;stroke-linejoin:round;}
	.st281{fill:none;stroke:#7D8E99;stroke-width:0.0138;stroke-linecap:round;stroke-linejoin:round;}
	.st282{fill:none;stroke:#7C8D98;stroke-width:0.0138;stroke-linecap:round;stroke-linejoin:round;}
	.st283{fill:none;stroke:#7B8C97;stroke-width:0.0138;stroke-linecap:round;stroke-linejoin:round;}
	.st284{fill:none;stroke:#7A8B96;stroke-width:0.0138;stroke-linecap:round;stroke-linejoin:round;}
	.st285{fill:none;stroke:#798A95;stroke-width:0.0138;stroke-linecap:round;stroke-linejoin:round;}
	.st286{fill:none;stroke:#788995;stroke-width:0.0138;stroke-linecap:round;stroke-linejoin:round;}
	.st287{fill:none;stroke:#778894;stroke-width:0.0138;stroke-linecap:round;stroke-linejoin:round;}
	.st288{fill:none;stroke:#768793;stroke-width:0.0138;stroke-linecap:round;stroke-linejoin:round;}
	.st289{fill:none;stroke:#758792;stroke-width:0.0138;stroke-linecap:round;stroke-linejoin:round;}
	.st290{fill:none;stroke:#748691;stroke-width:0.0138;stroke-linecap:round;stroke-linejoin:round;}
	.st291{fill:none;stroke:#738591;stroke-width:0.0138;stroke-linecap:round;stroke-linejoin:round;}
	.st292{fill:none;stroke:#728490;stroke-width:0.0138;stroke-linecap:round;stroke-linejoin:round;}
	.st293{fill:none;stroke:#71838F;stroke-width:0.0138;stroke-linecap:round;stroke-linejoin:round;}
	.st294{fill:none;stroke:#70828E;stroke-width:0.0138;stroke-linecap:round;stroke-linejoin:round;}
	.st295{fill:none;stroke:#6F818E;stroke-width:0.0138;stroke-linecap:round;stroke-linejoin:round;}
	.st296{fill:none;stroke:#6E808D;stroke-width:0.0138;stroke-linecap:round;stroke-linejoin:round;}
	.st297{fill:none;stroke:#6D808C;stroke-width:0.0138;stroke-linecap:round;stroke-linejoin:round;}
	.st298{fill:none;stroke:#6C7F8B;stroke-width:0.0138;stroke-linecap:round;stroke-linejoin:round;}
	.st299{fill:none;stroke:#6B7E8A;stroke-width:0.0138;stroke-linecap:round;stroke-linejoin:round;}
	.st300{fill:none;stroke:#6A7D8A;stroke-width:0.0138;stroke-linecap:round;stroke-linejoin:round;}
	.st301{fill:none;stroke:#697C89;stroke-width:0.0138;stroke-linecap:round;stroke-linejoin:round;}
	.st302{fill:none;stroke:#687B88;stroke-width:0.0138;stroke-linecap:round;stroke-linejoin:round;}
	.st303{fill:none;stroke:#677A87;stroke-width:0.0138;stroke-linecap:round;stroke-linejoin:round;}
	.st304{fill:none;stroke:#667986;stroke-width:0.0138;stroke-linecap:round;stroke-linejoin:round;}
	.st305{fill:none;stroke:#657986;stroke-width:0.0138;stroke-linecap:round;stroke-linejoin:round;}
	.st306{fill:none;stroke:#647885;stroke-width:0.0138;stroke-linecap:round;stroke-linejoin:round;}
	.st307{fill:none;stroke:#637784;stroke-width:0.0138;stroke-linecap:round;stroke-linejoin:round;}
	.st308{fill:none;stroke:#627683;stroke-width:0.0138;stroke-linecap:round;stroke-linejoin:round;}
	.st309{fill:none;stroke:#617583;stroke-width:0.0138;stroke-linecap:round;stroke-linejoin:round;}
	.st310{fill:none;stroke:#607482;stroke-width:0.0138;stroke-linecap:round;stroke-linejoin:round;}
	.st311{fill:none;stroke:#5F7381;stroke-width:0.0138;stroke-linecap:round;stroke-linejoin:round;}
	.st312{fill:none;stroke:#5E7280;stroke-width:0.0138;stroke-linecap:round;stroke-linejoin:round;}
	.st313{fill:none;stroke:#5D727F;stroke-width:0.0138;stroke-linecap:round;stroke-linejoin:round;}
	.st314{fill:none;stroke:#5C717F;stroke-width:0.0138;stroke-linecap:round;stroke-linejoin:round;}
	.st315{fill:none;stroke:#5B707E;stroke-width:0.0138;stroke-linecap:round;stroke-linejoin:round;}
	.st316{fill:none;stroke:#5A6F7D;stroke-width:0.0138;stroke-linecap:round;stroke-linejoin:round;}
	.st317{fill:#34DAA6;}
	.st318{fill:#878E9C;}
	.st319{fill:#0C69AA;}
	.st320{fill:#41BBEC;}
	.st321{fill:#296BA2;}
	.st322{fill:#32B3E2;}
</style>
<g>
	<g>
		<g>
			<polygon class="st7" points="44.94,104.46 9.23,104.46 6.61,108.6 42.32,108.6 			"/>
			<polygon class="st7" points="135.88,98.15 12.73,98.15 10.09,102.32 132.86,102.32 			"/>
			<polygon class="st7" points="8.91,133.82 19.27,133.82 21.9,129.66 11.53,129.66 			"/>
			<polygon class="st7" points="15.01,123.39 12.39,127.53 22.76,127.53 25.37,123.39 			"/>
			<polygon class="st7" points="32.33,110.82 21.97,110.82 19.36,114.97 29.71,114.97 			"/>
			<path class="st7" d="M66.9,127.74c3.32-4.71,4.46-8.46,2.72-10.27c-0.99-1.02-3.14-0.96-3.14-0.96l-8.44,0.09
				c-1.4,0.06-2.92,1.06-4.58,3.02l9.75-15.94h-11.8l-0.62,2.5l-22.49,36.6c-0.49,0.63-0.97,1.22-1.45,1.76
				c-0.48,0.55-1.02,1.06-1.62,1.52h13.05l0.26-1.56l0.32-1.04l10.74-17.61l1.54-2.33c3.45-1.5,5.91-1.61,7.38-0.34l-0.52,0.87
				l-10.56,17.36c-0.51,0.68-1.07,1.42-1.71,2.19c-0.63,0.78-1.35,1.6-2.17,2.46h13.5l-0.31-1.73L66.9,127.74z"/>
			<polygon class="st7" points="15.87,121.24 26.23,121.24 28.86,117.11 18.49,117.11 			"/>
			<polygon class="st7" points="5.37,140.17 15.74,140.17 18.36,136.03 8,136.03 			"/>
			<polygon class="st7" points="1.89,146.45 12.26,146.45 14.88,142.31 4.52,142.31 			"/>
			<g>
				<g>
					<path class="st7" d="M207.55,118.72c-0.09-0.68-0.59-1.76-1.39-2.16h-22.53c-1.82,0.2-3.22,0.88-4.6,1.86
						c-1.21,1.09-2.21,2.48-2.74,3.23l-12.36,20.87c-0.82,1.5-0.41,2.65,1.24,3.45l25.87,0.08c1.2-0.96,2.97-3.18,4.23-5.42
						c0.38-0.66,0.76-1.63,0.76-1.63s-8.82,1.57-13.43,1.63c-2.65,0.03-4.81-0.49-5.03-0.59c0.1-1.77,0.71-3.57,2.23-5.24
						c0,0,0.18-0.17,1.05-0.17h16.99c0.67,0,1.22-0.17,1.22-0.17l7.79-12.81l0.49-1.04C207.33,120.63,207.63,119.4,207.55,118.72z
						 M195.59,124.15l-2.73,4.46h-9.3l2.65-4.46c0.83-1.52,2.78-2.25,5.86-2.18C195.12,121.79,196.29,122.52,195.59,124.15z"/>
				</g>
			</g>
			<g>
				<g>
					<path class="st7" d="M311.36,116.99l-8.76,0.01h-14.7c-3.3,0.3-4.98,0.99-6.55,2.08c-1.18,0.86-2.13,1.75-2.86,2.67l-1.6,1.98
						l-9.22,14.92c-0.32,0.52-1.42,2.62-1.42,2.62c-0.39,0.98-0.63,1.56-0.57,2.63c0.06,1,0.99,1.84,1.8,2.08l0.41,0.08h23.51
						c1.06-0.12,2.14-0.35,3.18-0.78c4-1.64,7.27-7.24,7.27-7.24l10.28-17.31c0.43-0.73,0.65-1.2,0.58-2.23
						C312.66,117.83,312.01,117.35,311.36,116.99z M297.47,124.77l-8.8,14.33c-0.64,0.69-1.21,1.09-1.74,1.21h-6.93
						c-0.92,0,0.44-2.18,0.59-2.42l8.03-13.02l0.82-1.06c0.6-0.63,1.32-0.93,2.11-1.1h5.13
						C298.24,122.52,298.5,123.21,297.47,124.77z"/>
				</g>
			</g>
			<path class="st7" d="M361.81,117.23l3.32-5.66h-9.74c-0.95,1.5-1.85,3.05-3.5,5.66h-6.62l-3.78,6.2h6.86l-10.55,17.47
				c0,0,0.79,4.62,5.92,5.15c5.13,0.53,9.09-2.19,9.09-2.19l2.65-4.43c-7.09,3.03-6.23-1.21-6.23-1.21l9.1-14.92l6.87,0.04
				l3.73-6.11H361.81z"/>
			<path class="st7" d="M107.75,116.48H94.61l-0.16,1.55l-0.32,1.04L83.3,136.68l-1.54,2.33c-3.32,1.5-7.74,2.55-7.31,0.43
				l11.02-18.3c0.59-0.74,1.2-1.5,1.83-2.29c0.63-0.78,1.32-1.57,2.05-2.37H75.66l0.49,1.73l-9.7,16.47
				c-1.29,2.21-4.15,7.14-4.67,8.36c-0.91,2.12,0.78,2.69,5.14,2.85l5.82,0.01c2.8,0,4.98-0.9,6.64-2.85l-1.9,3.03h11.98l0.53-2.51
				l14.56-23.71C105.46,118.58,106.53,117.46,107.75,116.48z"/>
			<path class="st7" d="M342.14,117.51l-6.97-0.02l0.21-0.37c2.92-3.66,6.52-5.51,10.45-4.13l3.71-6.04h-10.81
				c-5.22,0-7.15,2.65-9.84,5.88l-3.56,4.85h-8.29l-3.77,6.2h4.2h3.65l-13.15,22.98h10.12l13.14-22.98h7.07L342.14,117.51z"/>
			<path class="st7" d="M227.12,123.17l-0.43,0.86h7.87c2.56-4.58,2.46-7.07-0.3-7.47h-5.36c-2.83,0.06-5.06,1.07-6.73,3.02
				l1.93-3.11h-11.97l-0.53,2.51l-14.6,23.79c-1.05,1.45-2.1,2.54-3.16,3.29h13.14l0.16-1.56l0.4-1.04l10.75-17.62l4.52-2.34
				C226.26,122.02,225.71,121.9,227.12,123.17z"/>
			<g>
				<g>
					<path class="st7" d="M171.37,106.71l-7.91,12.72c0.61-1.55,0.4-2.41-0.51-2.82l-10.69-0.04c-4.83,0-7.97,3.23-9.02,4.75
						l-12.83,20.42l-0.34,0.86c-0.2,0.81-0.16,1.7,0.11,2.68c0.46,0.52,0.91,0.81,1.37,0.87h27.26l1.82-4.41l19.07-30.97l3.45-3.55
						l0.29-0.52H171.37z M159.88,124.02l-9.18,15.02l-1.05,0.87c-2.29,0.98-4.06,1.23-5.31,0.78c-1.1-0.4-1.47-0.98-1.11-1.73
						l8.9-14.76c0.23-0.32,0.96-1.56,1.87-1.56h5.89c0.12,0.08,0.14,0.3,0.14,0.53C160.03,123.39,160.03,123.61,159.88,124.02z"/>
				</g>
			</g>
			<path class="st7" d="M134.91,127.72c1.2-2.05,1.81-3.07,2.52-4.4c0.9-1.67,1.31-2.57,1.83-3.97c0.78-2.13-2.94-2.7-5.29-2.7
				c-2.36,0-5.78-0.09-5.78-0.09c-2.82,0.06-5.07,1.07-6.73,3.03l1.93-3.12h-11.97l-0.54,2.51l-14.59,23.8
				c-1.04,1.45-2.1,2.53-3.17,3.29h13.14l0.16-1.56l0.41-1.04l12.28-19.94c3.45-1.5,5.87-1.61,7.29-0.34l-0.43,0.87l-10.55,17.36
				c-1.13,1.49-2.45,3.04-3.98,4.66l13.73,0.09l-0.45-1.82L134.91,127.72z"/>
			<path class="st7" d="M285.8,98.15h-27.21c-1.26,0-2.53,0.35-3.82,1.05c-1.29,0.7-2.6,1.73-3.94,3.12h32.46L285.8,98.15z"/>
			<polygon class="st7" points="254.7,110.82 246.17,110.82 243.66,114.97 252.2,114.97 			"/>
			<path class="st7" d="M282.99,104.46h-33.33c-0.08,0.13-0.17,0.26-0.26,0.38c-0.08,0.12-0.16,0.22-0.21,0.31
				c-0.1,0.1-0.18,0.2-0.25,0.32c-0.06,0.11-0.14,0.24-0.23,0.38l-1.67,2.76h33.44L282.99,104.46z"/>
			<path class="st7" d="M273.87,118.13c-0.46-0.69-1.32-1.03-2.57-1.03h-28.46l-1.67,2.75c-0.08,0.14-0.17,0.26-0.23,0.38
				c-0.07,0.12-0.11,0.22-0.13,0.31c-0.06,0.1-0.11,0.2-0.16,0.32c-0.05,0.11-0.12,0.24-0.2,0.37h33.59
				C274.38,119.86,274.32,118.83,273.87,118.13z"/>
			<path class="st7" d="M222.51,146.55h29.62c1.25,0,2.51-0.34,3.81-1.03c1.3-0.7,2.6-1.74,3.92-3.11h-34.85L222.51,146.55z"/>
			<path class="st7" d="M242.72,127.53h28.46l1.67-2.77c0.07-0.14,0.15-0.27,0.23-0.38c0.06-0.11,0.11-0.21,0.13-0.3
				c0.06-0.1,0.11-0.2,0.15-0.32c0.06-0.11,0.13-0.24,0.21-0.38h-33.58c-0.34,1.38-0.29,2.41,0.18,3.11
				C240.61,127.19,241.47,127.53,242.72,127.53z"/>
			<path class="st7" d="M226.62,140.26h35.19c0.09-0.14,0.18-0.26,0.26-0.37c0.09-0.12,0.17-0.23,0.22-0.32
				c0.1-0.08,0.18-0.19,0.25-0.32c0.06-0.11,0.14-0.23,0.22-0.38l1.67-2.76h-35.3L226.62,140.26z"/>
			<polygon class="st7" points="267.34,133.82 269.84,129.66 261.3,129.66 258.8,133.82 			"/>
		</g>
	</g>
	<g>
		<path class="st7" d="M385.95,122.94c-6.7,0-12.16-5.46-12.16-12.16c0-6.7,5.46-12.15,12.16-12.15c6.7,0,12.16,5.45,12.16,12.15
			C398.11,117.49,392.65,122.94,385.95,122.94z M385.95,100.03c-5.93,0-10.75,4.82-10.75,10.75c0,5.93,4.82,10.76,10.75,10.76
			c5.93,0,10.75-4.83,10.75-10.76C396.7,104.85,391.88,100.03,385.95,100.03z"/>
	</g>
	<g>
		<path class="st7" d="M381.64,102.81h3.21c1.8,0,3.02,0.08,3.68,0.24c0.66,0.16,1.22,0.42,1.69,0.78c0.47,0.36,0.84,0.82,1.11,1.39
			c0.27,0.57,0.4,1.2,0.4,1.89c0,1.38-0.49,2.46-1.46,3.25c-0.97,0.79-2.35,1.15-4.13,1.09l5.82,7.5h-2l-5.79-7.5h-0.92v7.5h-1.62
			V102.81z M383.25,104.39v5.48h2.78c1.38,0.02,2.39-0.2,3.04-0.64c0.65-0.44,0.98-1.14,0.98-2.1c0-0.96-0.32-1.65-0.96-2.09
			c-0.64-0.43-1.64-0.65-2.99-0.65H383.25z"/>
	</g>
</g>
</svg>
