<?xml version="1.0" encoding="utf-8"?>
<!-- Generator: Adobe Illustrator 23.0.4, SVG Export Plug-In . SVG Version: 6.00 Build 0)  -->
<svg version="1.1" id="图层_1" xmlns="http://www.w3.org/2000/svg" xmlns:xlink="http://www.w3.org/1999/xlink" x="0px" y="0px"
	 viewBox="0 0 400 245" style="enable-background:new 0 0 400 245;" xml:space="preserve">
<style type="text/css">
	.st0{fill:#D80C18;}
</style>
<g>
	<g>
		<g>
			<polygon class="st0" points="44.4,104.4 8.5,104.4 5.9,108.6 41.8,108.6 			"/>
			<polygon class="st0" points="135.7,98.1 12.1,98.1 9.4,102.2 132.6,102.2 			"/>
			<polygon class="st0" points="8.2,133.9 18.6,133.9 21.3,129.7 10.9,129.7 			"/>
			<polygon class="st0" points="14.4,123.4 11.7,127.6 22.1,127.6 24.7,123.4 			"/>
			<polygon class="st0" points="31.7,110.8 21.3,110.8 18.7,114.9 29.1,114.9 			"/>
			<path class="st0" d="M66.4,127.8c3.3-4.7,4.5-8.5,2.7-10.3c-1-1-3.1-1-3.1-1l-8.5,0.1c-1.4,0.1-2.9,1.1-4.6,3l9.8-16H50.9
				l-0.6,2.5l-22.6,36.7c-0.5,0.6-1,1.2-1.5,1.8c-0.5,0.6-1,1.1-1.6,1.5h13.1l0.3-1.6l0.3-1L49,125.9l1.5-2.3
				c3.5-1.5,5.9-1.6,7.4-0.3l-0.5,0.9l-10.6,17.4c-0.5,0.7-1.1,1.4-1.7,2.2c-0.6,0.8-1.4,1.6-2.2,2.5h13.6l-0.3-1.7L66.4,127.8z"/>
			<polygon class="st0" points="15.2,121.2 25.6,121.2 28.2,117.1 17.8,117.1 			"/>
			<polygon class="st0" points="4.7,140.2 15.1,140.2 17.7,136.1 7.3,136.1 			"/>
			<polygon class="st0" points="1.2,146.5 11.6,146.5 14.2,142.4 3.8,142.4 			"/>
			<g>
				<g>
					<path class="st0" d="M207.6,118.7c-0.1-0.7-0.6-1.8-1.4-2.2h-22.6c-1.8,0.2-3.2,0.9-4.6,1.9c-1.2,1.1-2.2,2.5-2.8,3.2
						l-12.4,20.9c-0.8,1.5-0.4,2.7,1.2,3.5l26,0.1c1.2-1,3-3.2,4.2-5.4c0.4-0.7,0.8-1.6,0.8-1.6s-8.9,1.6-13.5,1.6
						c-2.7,0-4.8-0.5-5.1-0.6c0.1-1.8,0.7-3.6,2.2-5.3c0,0,0.2-0.2,1.1-0.2h17.1c0.7,0,1.2-0.2,1.2-0.2l7.8-12.9l0.5-1
						C207.4,120.6,207.7,119.4,207.6,118.7z M195.6,124.2l-2.7,4.5h-9.3l2.7-4.5c0.8-1.5,2.8-2.3,5.9-2.2
						C195.1,121.8,196.3,122.5,195.6,124.2z"/>
				</g>
			</g>
			<g>
				<g>
					<path class="st0" d="M311.8,117l-8.8,0h-14.8c-3.3,0.3-5,1-6.6,2.1c-1.2,0.9-2.1,1.8-2.9,2.7l-1.6,2l-9.3,15
						c-0.3,0.5-1.4,2.6-1.4,2.6c-0.4,1-0.6,1.6-0.6,2.6c0.1,1,1,1.8,1.8,2.1l0.4,0.1h23.6c1.1-0.1,2.1-0.3,3.2-0.8
						c4-1.6,7.3-7.3,7.3-7.3l10.3-17.4c0.4-0.7,0.7-1.2,0.6-2.2C313.1,117.8,312.4,117.3,311.8,117z M297.8,124.8l-8.8,14.4
						c-0.6,0.7-1.2,1.1-1.7,1.2h-7c-0.9,0,0.4-2.2,0.6-2.4l8.1-13.1l0.8-1.1c0.6-0.6,1.3-0.9,2.1-1.1h5.2
						C298.6,122.5,298.9,123.2,297.8,124.8z"/>
				</g>
			</g>
			<path class="st0" d="M362.4,117.2l3.3-5.7H356c-1,1.5-1.9,3.1-3.5,5.7h-6.6l-3.8,6.2h6.9L338.3,141c0,0,0.8,4.6,5.9,5.2
				c5.1,0.5,9.1-2.2,9.1-2.2l2.7-4.4c-7.1,3-6.3-1.2-6.3-1.2l9.1-15l6.9,0l3.7-6.1H362.4z"/>
			<path class="st0" d="M107.4,116.5H94.2l-0.2,1.6l-0.3,1l-10.9,17.7l-1.5,2.3c-3.3,1.5-7.8,2.6-7.3,0.4L85,121.1
				c0.6-0.7,1.2-1.5,1.8-2.3c0.6-0.8,1.3-1.6,2.1-2.4H75.2l0.5,1.7L66,134.7c-1.3,2.2-4.2,7.2-4.7,8.4c-0.9,2.1,0.8,2.7,5.2,2.9
				l5.8,0c2.8,0,5-0.9,6.7-2.9l-1.9,3h12l0.5-2.5l14.6-23.8C105.1,118.6,106.2,117.4,107.4,116.5z"/>
			<path class="st0" d="M342.7,117.5l-7,0l0.2-0.4c2.9-3.7,6.5-5.5,10.5-4.1l3.7-6.1h-10.9c-5.2,0-7.2,2.7-9.9,5.9l-3.6,4.9h-8.3
				l-3.8,6.2h4.2h3.7l-13.2,23.1h10.2l13.2-23.1h7.1L342.7,117.5z"/>
			<path class="st0" d="M227.2,123.2l-0.4,0.9h7.9c2.6-4.6,2.5-7.1-0.3-7.5H229c-2.8,0.1-5.1,1.1-6.8,3l1.9-3.1h-12l-0.5,2.5
				L197,142.8c-1.1,1.5-2.1,2.5-3.2,3.3H207l0.2-1.6l0.4-1l10.8-17.7l4.5-2.3C226.4,122,225.8,121.9,227.2,123.2z"/>
			<g>
				<g>
					<path class="st0" d="M171.3,106.7l-7.9,12.8c0.6-1.6,0.4-2.4-0.5-2.8l-10.7,0c-4.8,0-8,3.2-9.1,4.8l-12.9,20.5l-0.3,0.9
						c-0.2,0.8-0.2,1.7,0.1,2.7c0.5,0.5,0.9,0.8,1.4,0.9h27.4l1.8-4.4l19.1-31.1l3.5-3.6l0.3-0.5H171.3z M159.7,124l-9.2,15.1
						l-1.1,0.9c-2.3,1-4.1,1.2-5.3,0.8c-1.1-0.4-1.5-1-1.1-1.7l8.9-14.8c0.2-0.3,1-1.6,1.9-1.6h5.9c0.1,0.1,0.1,0.3,0.1,0.5
						C159.9,123.4,159.9,123.6,159.7,124z"/>
				</g>
			</g>
			<path class="st0" d="M134.7,127.7c1.2-2.1,1.8-3.1,2.5-4.4c0.9-1.7,1.3-2.6,1.8-4c0.8-2.1-2.9-2.7-5.3-2.7
				c-2.4,0-5.8-0.1-5.8-0.1c-2.8,0.1-5.1,1.1-6.8,3l1.9-3.1h-12l-0.5,2.5l-14.6,23.9c-1,1.5-2.1,2.5-3.2,3.3h13.2l0.2-1.6l0.4-1
				l12.3-20c3.5-1.5,5.9-1.6,7.3-0.3l-0.4,0.9l-10.6,17.4c-1.1,1.5-2.5,3.1-4,4.7l13.8,0.1l-0.5-1.8L134.7,127.7z"/>
			<path class="st0" d="M286.1,98.1h-27.3c-1.3,0-2.5,0.4-3.8,1.1c-1.3,0.7-2.6,1.7-4,3.1h32.6L286.1,98.1z"/>
			<polygon class="st0" points="254.9,110.8 246.3,110.8 243.8,114.9 252.4,114.9 			"/>
			<path class="st0" d="M283.3,104.4h-33.4c-0.1,0.1-0.2,0.3-0.3,0.4c-0.1,0.1-0.2,0.2-0.2,0.3c-0.1,0.1-0.2,0.2-0.3,0.3
				c-0.1,0.1-0.1,0.2-0.2,0.4l-1.7,2.8h33.6L283.3,104.4z"/>
			<path class="st0" d="M274.1,118.1c-0.5-0.7-1.3-1-2.6-1H243l-1.7,2.8c-0.1,0.1-0.2,0.3-0.2,0.4c-0.1,0.1-0.1,0.2-0.1,0.3
				c-0.1,0.1-0.1,0.2-0.2,0.3c-0.1,0.1-0.1,0.2-0.2,0.4h33.7C274.6,119.9,274.6,118.8,274.1,118.1z"/>
			<path class="st0" d="M222.6,146.6h29.7c1.3,0,2.5-0.3,3.8-1c1.3-0.7,2.6-1.7,3.9-3.1h-35L222.6,146.6z"/>
			<path class="st0" d="M242.9,127.6h28.6l1.7-2.8c0.1-0.1,0.2-0.3,0.2-0.4c0.1-0.1,0.1-0.2,0.1-0.3c0.1-0.1,0.1-0.2,0.2-0.3
				c0.1-0.1,0.1-0.2,0.2-0.4h-33.7c-0.3,1.4-0.3,2.4,0.2,3.1C240.8,127.2,241.6,127.6,242.9,127.6z"/>
			<path class="st0" d="M226.7,140.3H262c0.1-0.1,0.2-0.3,0.3-0.4c0.1-0.1,0.2-0.2,0.2-0.3c0.1-0.1,0.2-0.2,0.3-0.3
				c0.1-0.1,0.1-0.2,0.2-0.4l1.7-2.8h-35.4L226.7,140.3z"/>
			<polygon class="st0" points="267.6,133.9 270.1,129.7 261.5,129.7 259,133.9 			"/>
		</g>
	</g>
	<g>
		<path class="st0" d="M386.6,122.9c-6.7,0-12.2-5.5-12.2-12.2c0-6.7,5.5-12.2,12.2-12.2c6.7,0,12.2,5.5,12.2,12.2
			C398.8,117.5,393.3,122.9,386.6,122.9z M386.6,99.9c-6,0-10.8,4.8-10.8,10.8c0,6,4.8,10.8,10.8,10.8c6,0,10.8-4.8,10.8-10.8
			C397.4,104.8,392.6,99.9,386.6,99.9z"/>
	</g>
	<g>
		<path class="st0" d="M393.1,117.8h-1.9l-2.5-4.1c-0.5-0.9-1-1.5-1.4-1.7s-0.9-0.4-1.5-0.4h-1.4v6.3h-1.6v-14.6h4.3
			c1.3,0,2.4,0.3,3.2,1c0.8,0.7,1.2,1.6,1.2,2.9c0,2-1.1,3.3-3.2,3.9v0c0.4,0.2,0.7,0.4,1,0.7c0.3,0.3,0.7,0.8,1.2,1.7L393.1,117.8z
			 M384.3,104.7v5.4h2.4c0.9,0,1.6-0.3,2.2-0.8c0.6-0.5,0.8-1.2,0.8-2.1c0-0.8-0.3-1.4-0.8-1.9c-0.5-0.4-1.3-0.7-2.2-0.7H384.3z"/>
	</g>
</g>
</svg>
