<svg xmlns="http://www.w3.org/2000/svg" viewBox="0 0 162.45 60.81"><defs><style>.cls-1{fill:#0067b1;}</style></defs><title>Asset 1</title><g id="Layer_2" data-name="Layer 2"><g id="Layer_1-2" data-name="Layer 1"><path class="cls-1" d="M71.76,9.71h90.69V7.14H127.9a30.28,30.28,0,0,0-39.06,0H69A30.28,30.28,0,0,0,30,7.14H0V9.71H71.76ZM108.35,3a27.18,27.18,0,0,1,14.34,4.1H94A27.23,27.23,0,0,1,108.35,3Z"/><path class="cls-1" d="M96.14,31.85c0,2.5-1.45,4.54-3.23,4.54s-3.24-2-3.24-4.54,1.45-4.54,3.24-4.54S96.14,29.34,96.14,31.85Z"/><polygon class="cls-1" points="3.94 13.62 2.75 21.66 8.55 21.66 5.06 47.32 11.9 47.32 15.47 21.66 21.05 21.66 22.16 13.62 3.94 13.62"/><polygon class="cls-1" points="125.86 13.62 124.67 21.66 130.47 21.66 126.97 47.32 133.82 47.32 137.39 21.66 142.97 21.66 144.08 13.62 125.86 13.62"/><path class="cls-1" d="M37.34,41.89c.37-2.75.74-8.26-1.19-9.75,1.19-1.11,3.42-1.86,3.72-8.55S37,13.85,32,13.55l-9.22.07L18.08,47.25h6.76l1.64-12.06s2.3,0,2.31,0c1.7.12,2.24.39,1.92,4.14s-.27,7.29.16,7.92c0,0,3.76,0,7.21,0V45S37,44.64,37.34,41.89ZM33.22,24.34A2.86,2.86,0,0,1,30,27.28H27.6l.86-6s2.43,0,2.43,0C32.15,21.31,33.46,20.94,33.22,24.34Z"/><path class="cls-1" d="M69.86,25.14c.68-6.67-2.31-11.29-7.36-11.59l-9.23.07L48.59,47.25h6.77l1.55-11.46h2.7C67,35.79,69.11,32.58,69.86,25.14Zm-6.74-.21c-.24,3.34-2.73,2.94-2.73,2.94H58l.88-6.58c.62,0,1.28.05,2.52.05S63.36,21.53,63.12,24.93Z"/><path class="cls-1" d="M89.67,25.14c.67-6.67-2.31-11.29-7.37-11.59l-9.22.07L68.39,47.25h6.77l1.55-11.46h2.71C86.75,35.79,88.92,32.58,89.67,25.14Zm-6.75-.21c-.23,3.34-2.73,2.94-2.73,2.94H77.81l.89-6.58c.62,0,1.28.05,2.51.05S83.16,21.53,82.92,24.93Z"/><polygon class="cls-1" points="50.44 13.58 43.8 13.58 39.03 47.2 45.67 47.2 50.44 13.58"/><polygon class="cls-1" points="103.72 38.98 107.14 13.57 100.37 13.57 96.95 38.98 95.82 47.29 102.6 47.29 112.61 47.29 113.73 38.98 103.72 38.98"/><polygon class="cls-1" points="125.06 13.65 118.2 13.65 113.59 47.22 120.44 47.22 125.06 13.65"/><polygon class="cls-1" points="159.69 21.62 160.78 13.56 145.03 13.56 145.02 13.65 144.78 13.65 141.24 39.4 141.17 39.4 140.1 47.24 156.51 47.24 157.57 39.4 148.09 39.4 148.87 33.74 157.25 33.74 158.31 25.9 149.95 25.9 150.54 21.62 159.69 21.62"/><path class="cls-1" d="M126.53,50.82H0v2.57H29.66a30.27,30.27,0,0,0,39.71,0H88.5a30.27,30.27,0,0,0,39.71,0h34.24V50.82H126.53Zm-18.18,7a27.2,27.2,0,0,1-14.82-4.38h29.63A27.19,27.19,0,0,1,108.35,57.77Z"/></g></g></svg>