<svg id="Layer_1" data-name="Layer 1" xmlns="http://www.w3.org/2000/svg" viewBox="0 0 670.21344 245"><defs><style>.cls-1{fill:#010101;}.cls-2{fill:#e55625;}.cls-3{fill:#888;}.cls-4{fill:#898888;}.cls-5{fill:#898989;}.cls-6{fill:#8c8c8c;}.cls-7{fill:#919191;}.cls-8{fill:#8b8b8b;}.cls-9{fill:#fff;}.cls-10{fill:#fffffd;}</style></defs><title>ubuntu</title><path class="cls-1" d="M107.86558,129.91829c0,5.82362.0348,11.64726-.02611,17.46915-.0174,1.45331.20887,2.37924,1.85361,2.77606,14.73835,3.55927,29.61418,6.03422,44.78242,3.88125,15.72694-2.233,27.86848-10.06517,34.7364-24.74084,7.34306-15.69211,7.25255-31.97078,2.02069-48.15545-6.1021-18.88067-20.87874-29.09726-40.68533-29.24868a51.78086,51.78086,0,0,0-24.77566,6.33707V54.7559c0-15.42235-.05047-30.84469.05221-46.2653.01741-2.26784-.62657-2.71862-2.70644-2.287a111.73228,111.73228,0,0,1-11.7569,2.05376c-2.89441.28544-3.568,1.42022-3.561,4.21891q.14447,58.72014.06614,117.442Zm17.8799-52.72071a3.30689,3.30689,0,0,1,1.55424-3.23033c8.63275-5.48946,17.97389-7.82,28.02512-5.55908,11.76561,2.649,17.28117,11.17907,19.62211,22.27808a77.39725,77.39725,0,0,1,1.281,12.69329c-.322,6.37014-.89286,12.8708-3.76813,18.9555-5.73486,12.1311-16.5084,16.987-28.50027,16.65982a83.7767,83.7767,0,0,1-15.72-1.44459c-1.76484-.38291-2.52368-.85109-2.515-2.837q.11662-28.75786.02089-57.51573Zm166.98635,69.85221q-.03482-22.47128-.01392-44.94427c0-14.98027-.07484-29.964.06961-44.94428.02438-2.649-.79017-3.23728-3.23728-3.11545a100.81387,100.81387,0,0,1-11.63507-.01043c-2.69426-.174-3.16768.83543-3.15549,3.28079.09571,17.67452.05221,35.35079.05221,53.027,0,8.0845-.01219,16.169.00871,24.25178.00524,1.47594.05917,2.62811-2.01372,2.8944a114.94414,114.94414,0,0,1-20.60722,1.19918c-10.07733-.52215-16.30823-5.55908-19.15565-15.2953a57.57519,57.57519,0,0,1-2.01025-16.28039c-.00348-16.70855-.0383-33.41363.0435-50.1187.01044-2.1756-.45251-3.06324-2.823-2.94837q-5.975.29081-11.95705,0c-2.44364-.11835-3.25991.46123-3.24076,3.11545.13576,17.457.07659,34.91915.06613,52.37959a82.63223,82.63223,0,0,0,1.33669,14.76793c3.24251,17.946,14.79055,28.415,32.95065,29.92572,14.75922,1.22876,29.17035-1.02863,43.52406-4.09013,1.93716-.41249,1.79964-1.65867,1.79792-3.09456ZM559.91734,54.13455c-7.07328-.11836-7.075-.03481-7.075,6.88184q0,36.54995-.01392,73.10341c0,1.38368.60047,3.011-1.84144,3.32952a107.97879,107.97879,0,0,1-21.2634,1.194c-9.72229-.6579-15.66948-5.44768-18.57089-14.75573a60.45154,60.45154,0,0,1-2.287-17.86424c-.07308-16.28039-.0905-32.56427.04175-48.84293.02263-2.61419-.73447-3.27209-3.21989-3.1346a103.80676,103.80676,0,0,1-11.31308,0c-2.49582-.13576-3.2669.543-3.24772,3.16245.1253,17.35949.07484,34.719.05742,52.07849a93.25363,93.25363,0,0,0,.85281,12.87254c2.66117,19.30186,14.36067,30.50008,33.73912,32.09959,14.54168,1.20093,28.75788-1.0495,42.90965-4.06922,2.045-.43512,2.08859-1.61343,2.08508-3.23729q-.05743-22.4817-.02262-44.96342c0-12.39914.03479-24.79829-.02263-37.19743-.01392-3.42526,1.45158-7.9383-.557-9.98858-2.1791-2.22259-6.73562-.60916-10.25142-.66835ZM37.902,154.2484c14.54689,1.18526,28.76135-1.0234,42.91488-4.03269,1.92845-.41073,2.20693-1.39063,2.19822-3.13286-.06613-14.98548-.03829-29.971-.03829-44.95646s-.047-29.971.05222-44.95646c.01392-2.2835-.3394-3.2895-2.93792-3.1346a116.6266,116.6266,0,0,1-12.28427.01044c-2.334-.10791-2.837.70663-2.82306,2.91006.094,14.446.04874,28.89362.04874,43.3413q0,17.14194.01044,34.28387c.00174,1.469.087,2.6229-1.99458,2.89615a109.34838,109.34838,0,0,1-20.93269,1.17656c-9.70837-.59524-15.7513-5.385-18.67008-14.64436-2.13382-6.77045-2.30438-13.77064-2.31483-20.77779-.02436-15.41713-.047-30.83426.03655-46.25137.01219-2.1669-.43512-3.05453-2.80564-2.93618a110.59441,110.59441,0,0,1-11.96228-.007c-2.49584-.14619-3.00232.66312-2.98492,3.04584.11313,15.847.04351,31.69578.06788,47.54454A133.15444,133.15444,0,0,0,4.142,121.40561c2.51325,19.66735,14.35369,31.2624,33.76,32.84276Zm359.4463-55.71087a106.31705,106.31705,0,0,0-1.19745-16.089c-2.61071-17.40474-13.69405-28.046-30.98218-29.87177-14.87235-1.56817-29.40881.60047-43.92261,3.51054-2.75866.55347-3.57318,1.57338-3.54359,4.386.15663,14.6635.07311,29.33047.07311,43.99745,0,15.09687.03654,30.1955-.04526,45.29237-.01043,2.03983.42641,2.80739,2.62463,2.71165q6.30385-.26057,12.61321-.00523c2.092.07832,2.70818-.50823,2.68555-2.65073-.11313-10.56642-.05221-21.13632-.05221-31.70449,0-15.20479.03306-30.41132-.0383-45.6161-.00871-2.00677.27153-2.99014,2.62115-3.34171a100.45383,100.45383,0,0,1,21.58188-1.0791c9.48558.62831,15.27616,5.44246,17.78069,14.61477a68.96994,68.96994,0,0,1,1.96152,18.25062c.01043,16.176.06265,32.35194-.05917,48.52792-.0174,2.45928.61961,3.145,3.0406,3.00753a94.27986,94.27986,0,0,1,11.31656.00348c2.76214.17406,3.63759-.49952,3.60627-3.47571-.16707-16.82169-.10965-33.64512-.0644-50.46855Z"/><path class="cls-2" d="M626.353,6.00346A39.68456,39.68456,0,1,0,666.081,46.02915,39.2164,39.2164,0,0,0,627.68585,6.00842Q627.01955,5.99461,626.353,6.00346ZM639.9983,16.951a5.31541,5.31541,0,0,1,5.243,5.38686l-.00069.03994a5.19185,5.19185,0,0,1-5.193,5.19067q-.12215,0-.24422-.0058a5.28752,5.28752,0,0,1-5.28665-5.28845q0-.04743.00085-.09483a5.38677,5.38677,0,0,1,5.479-5.22839Zm-9.29413,6.0116a2.75863,2.75863,0,0,1,2.37052,1.85883,6.92015,6.92015,0,0,0,8.20113,4.59485,2.68034,2.68034,0,0,1,2.70467,1.27055,23.09789,23.09789,0,0,1,5.251,11.24869c.29936,1.563-.01567,2.49235-1.91453,2.27306a14.9855,14.9855,0,0,0-3.21989.06962c-1.66739.1723-2.31831-.37246-2.74472-2.15993A14.96114,14.96114,0,0,0,623.596,30.61247q-.17273.03692-.34461.07788c-2.89094.72056-4.35989.27673-5.32935-2.44014a24.508,24.508,0,0,0-1.69522-3.19551,22.55648,22.55648,0,0,1,14.4755-2.09205ZM599.27991,50.86071a5.28408,5.28408,0,1,1,5.41307-5.15186l-.00192.0627a4.983,4.983,0,0,1-5.41285,5.08916Zm11.50627,11.56894a20.00319,20.00319,0,0,1-5.18138-6.92884c-1.06166-2.19822-1.70568-4.04138.15839-6.39625a5.89151,5.89151,0,0,0-.26457-7.51537,4.01529,4.01529,0,0,1-.44207-4.69058,25.348,25.348,0,0,1,6.5842-9.05569c1.57863-1.422,2.45752-1.19745,3.34173.637.69618,1.44807,1.61518,2.78823,2.40532,4.12493-.11834.93986-.905,1.22878-1.4185,1.737a15.19954,15.19954,0,0,0-1.02751,21.47085q.45717.50312.95788.96387c1.57338,1.55772,1.01121,4.379-1.5908,6.90969C612.5249,65.42151,611.73821,63.21284,610.78618,62.42965Zm29.17557,11.736a5.28755,5.28755,0,0,1-5.44078-5.12977l-.0017-.07772a5.41809,5.41809,0,0,1,5.345-5.36415,5.26842,5.26842,0,0,1,5.37354,5.16115q.00112.05538.00107.11075a5.10656,5.10656,0,0,1-4.90662,5.29895Q640.14713,74.172,639.96175,74.16566ZM649.195,49.29428a24.95161,24.95161,0,0,1-5.1605,11.30612,3.44613,3.44613,0,0,1-3.66372,1.03211,6.97755,6.97755,0,0,0-7.209,4.51305,3.159,3.159,0,0,1-2.80214,2.14253,24.04628,24.04628,0,0,1-12.35913-1.21658c-1.48287-.51692-1.90062-1.19222-.959-2.5324a7.03453,7.03453,0,0,0,.77973-1.4063c1.03208-2.57067,2.29048-3.55231,5.493-2.63856,7.73818,2.2104,15.86271-3.05278,18.07134-11.11293.26106-.952-.11489-2.41578,1.47941-2.42971a16.42687,16.42687,0,0,1,6.05688.26977c.74663.282.39507,1.36976.27327,2.07117Z"/><path class="cls-1" d="M439.65924,152.6193a55.86224,55.86224,0,0,0,37.87445-2.86133c1.27056-.53259,1.56817-1.05821,1.16614-2.40186a92.5438,92.5438,0,0,1-2.68205-10.28622c-.46645-2.61594-1.57167-2.51324-3.44961-1.59252a38.17565,38.17565,0,0,1-18.56387,3.27731c-7.99573-.27849-12.601-3.77683-14.6809-11.515a37.22394,37.22394,0,0,1-1.07213-6.35273c-.8006-9.03307-.23323-18.09223-.41074-25.65112,0-8.60143.09922-15.71822-.054-22.8298-.05222-2.44362.4699-3.31212,3.13633-3.27035,10.563.16883,21.12939.01915,31.694.11314,1.98762.01741,2.63334-.52389,2.53412-2.53587a91.25946,91.25946,0,0,1,.00871-10.02166c.13922-2.26262-.7606-2.64727-2.76734-2.6316-10.5647.08354-21.12939-.01915-31.694.087-2.2.02262-2.95533-.49429-2.91358-2.82479.14448-8.19068-.07484-16.38831.12881-24.57551.06963-2.7395-.87375-2.98491-3.12588-2.52368-3.79247.77625-7.60934,1.49159-11.44885,1.94933C420.85,26.46971,420.10684,27.38,420.119,29.989c.11486,29.106.08527,58.21366.06092,87.31961a69.30889,69.30889,0,0,0,1.44112,14.11525c2.13557,10.3332,7.538,18.18448,18.0383,21.19377Z"/><path class="cls-3" d="M28.83759,189.51213c-6.34229-2.84567-12.97-2.63682-19.64648-1.52116-1.72133.28716-1.79791,1.4707-1.78747,2.87177.04178,5.707.01741,11.414.01741,17.12279s.06266,11.4175-.03481,17.12278c-.03307,1.90582.63,2.6229,2.52369,2.86657a45.48782,45.48782,0,0,0,13.8124-.02088,18.66136,18.66136,0,0,0,15.85573-16.05413C41.04876,201.53709,37.10832,193.2211,28.83759,189.51213Zm6.37014,20.78127c-.57958,8.60491-6.79307,14.24926-15.94275,14.48076-7.444.18622-7.444.18622-7.444-7.136v-9.69095c0-4.73758.07484-9.4769-.03481-14.211-.04525-1.93716.59-2.77954,2.5585-2.68382a66.70709,66.70709,0,0,1,7.40746.22975c9.69444,1.58036,14.19531,8.04969,13.45561,19.00946Zm201.19365-27.22275c-1.60123.08876-3.21641.24715-3.09108,2.68731.1723,3.32779-.07659,6.67473.08007,10.00425.11834,2.56721-.29588,3.32431-3.13286,2.34617-8.62753-2.97272-16.28389,1.39411-18.17229,10.14a22.95724,22.95724,0,0,0-.04,9.30632,13.43642,13.43642,0,0,0,10.93366,10.94409,35.02312,35.02312,0,0,0,12.18508-.53606,2.77426,2.77426,0,0,0,2.53064-3.31037c-.11314-6.5616-.04351-13.12665-.04351-19.69,0-6.45717.04-12.91259-.04525-19.368-.01044-.89461.8981-2.63857-1.20441-2.52368Zm-5.2075,41.77139a21.89467,21.89467,0,0,1-7.34133.01044,9.61784,9.61784,0,0,1-7.32218-6.948,17.3663,17.3663,0,0,1,.13924-10.46548,10.18177,10.18177,0,0,1,15.66775-4.654,3.13638,3.13638,0,0,1,1.01469,2.86657q-.00346,4.1893,0,8.37864c-.00176,2.79172-.06093,5.58693.01915,8.37515.047,1.60472-.52215,2.29046-2.1756,2.43666Zm35.94429-26.52136c-1.93193.66659-2.4767.39162-2.43317-1.62734.08355-3.87429-.03307-7.75206.047-11.62636.03481-1.75962-.51867-2.153-2.28177-1.88842-2.06421.31327-1.94585,1.60123-1.94412,3.03191q.00873,9.52737.00175,19.05471c0,6.46066-.01043,12.91955.01044,19.38018.00348,1.12261-.39858,2.54458,1.23747,2.924,6.14563,1.422,12.3887,2.5324,18.1549-1.00424,5.35543-3.28254,6.626-8.5962,6.47456-14.5556-.28892-11.29046-8.63972-17.35254-19.26706-13.68885Zm14.66175,18.61787a11.7916,11.7916,0,0,1-16.14639,7.68941c-1.03211-.51691-.90506-1.35408-.91374-2.17907-.02438-2.90138-.00871-5.80449-.01044-8.70585,0-2.47147.14968-4.95688-.0435-7.41441a3.89343,3.89343,0,0,1,3.07717-4.49914c7.41964-2.65421,12.75245.36551,14.211,8.09667a16.96589,16.96589,0,0,1-.17406,7.01411ZM61.52719,197.47134c-7.397-1.49333-13.55134,2.53064-15.4119,10.59949-1.422,6.17-1.22182,12.427,3.742,17.135,4.80371,4.55308,10.79965,4.05879,16.74859,2.69774,1.51421-.34636,2.48017-.88763,1.85883-2.88223-.65094-2.09552-1.74918-.818-2.7047-.66139-1.4794.24194-2.93618.70141-4.42255.82673-6.1578.51519-10.79094-3.2164-11.34093-8.8973-.174-1.81531.31329-2.56023,2.22259-2.4767,2.68381.11486,5.37806.02786,8.06884.0261,2.79694-.00175,5.59563.01567,8.39257-.01219.92245-.00871,1.85883.19669,2.21388-1.21832a12.87254,12.87254,0,0,0-9.36723-15.13692Zm3.23728,13.03617c-2.13556-.11314-4.28156-.02786-6.42583-.02786-2.03635,0-4.07619-.10095-6.10385.02611-2.29742.14444-2.4297-.83718-1.85535-2.703a9.16188,9.16188,0,0,1,8.859-7.02107c4.01006.21408,6.6608,2.98143,7.45967,7.52234.30981,1.76486-.21408,2.29221-1.93192,2.2017ZM198.2728,197.856a12.69156,12.69156,0,0,0-15.79133,6.51286,19.04432,19.04432,0,0,0-1.817,9.71708c.41945,11.80913,10.68825,18.25932,21.6689,13.61573.75711-.3185,1.58906-.45774,1.43415-1.74222-.24888-2.06942-1.02513-2.22781-2.9327-1.65868-8.80157,2.63158-15.05162-.82326-15.76-8.37691-.1549-1.64649.27151-2.12686,1.817-2.09728,2.90659.05569,5.81841.01567,8.72674.01219q4.20324-.00347,8.4065-.00175c1.0025,0,1.77179-.02263,2.01024-1.42022,1.02688-6.01507-2.48714-12.74028-7.76251-14.55908Zm1.85535,12.63583c-2.14949-.04525-4.30246-.01391-6.45369-.01567-2.25913,0-4.52-.06092-6.7774.01915-1.52639.054-1.7979-.65268-1.6256-1.97543a9.503,9.503,0,0,1,8.68845-7.74338c4.30767.01219,7.16378,3.04408,7.78862,7.87739.20537,1.596-.2837,1.8658-1.61865,1.83619Zm-54.08-12.96825c-8.06013-1.6082-14.68961,2.97271-16.0141,11.85262-2.15471,14.42853,6.22045,22.00308,20.57415,18.57434,1.43938-.34288,2.7047-.74491,2.16689-2.76734-.583-2.18256-1.82576-1.00773-2.9588-.76582a31.52478,31.52478,0,0,1-4.43472.77973c-5.96983.39335-10.16089-2.84394-11.12511-8.44479-.322-1.87448-.17753-3.13806,2.31831-2.95532,2.67859.19318,5.38155.0435,8.07232.0435,1.50725,0,3.01451-.01044,4.52176,0,7.65113.05221,6.39625.4647,5.59562-6.73563a10.61171,10.61171,0,0,0-8.71631-9.583Zm2.96577,12.98395c-2.13556-.12185-4.28156-.02786-6.42409-.02959-2.25044-.00175-4.49913-.03481-6.74782.01044-1.20093.02438-1.72655-.29067-1.563-1.65345a9.47687,9.47687,0,0,1,8.73022-8.0584c4.10752-.02438,7.14987,2.88919,7.88782,7.41789.26282,1.61167-.03132,2.41578-1.88319,2.31308Zm306.7099-.12708a14.52606,14.52606,0,0,0-9.56215-12.63759,13.17535,13.17535,0,0,0-14.92108,4.85071,18.21755,18.21755,0,0,0-.80932,19.58034c2.78127,5.244,7.58149,7.06632,13.33029,6.50243a12.54716,12.54716,0,0,0,10.70742-8.16284,15.29875,15.29875,0,0,0,1.2636-7.71379c0-.69793.06093-1.56294-.00871-2.41926Zm-6.56853,11.29221a8.86772,8.86772,0,0,1-14.714-.74666,15.59641,15.59641,0,0,1-1.32448-12.75941c1.32974-4.77412,4.97774-7.60414,9.32027-7.37439a9.66485,9.66485,0,0,1,8.82421,8.79808c.15489,1.16612.14448,2.35661.20885,3.53492a12.86915,12.86915,0,0,1-2.3148,8.54746ZM359.634,223.86388c-11.27306,3.9909-19.90059-.20885-22.064-10.5699a44.02985,44.02985,0,0,1-.48037-5.1344c.08007-14.2423,9.496-20.94138,22.466-15.88879,1.06517.416,1.8832.96423,2.48887-.65615.53083-1.41674.731-2.36705-.99556-3.02145a22.53744,22.53744,0,0,0-15.7687-.80932c-8.0758,2.77431-12.50183,10.19047-12.59406,20.48016-.13576,15.39971,11.29569,24.79654,28.31926,19.23225.96595-.31677,2.146-.4003,1.697-2.09552-.49256-1.85361-1.01992-2.26262-3.06846-1.53683Zm194.5015-7.82v-6.78959c-.00871-10.013-8.30731-15.31618-17.56139-11.32005-1.60991.69618-1.30535,1.7753-1.11392,2.89616.29239,1.73524,1.46024.65092,2.26259.56912,1.60126-.16534,3.1903-.5726,4.78631-.59523,5.12916-.07311,7.7242,2.66292,7.75379,7.773.01046,1.65172-.50821,2.11642-2.07117,1.73176a18.59672,18.59672,0,0,0-8.94952.16883c-5.00907,1.21832-7.88955,4.82285-7.5502,9.4438a8.82772,8.82772,0,0,0,8.75459,8.66235,44.317,44.317,0,0,0,11.57589-.62481c1.59951-.27849,2.18606-.93464,2.14081-2.5376-.09051-3.12415-.02784-6.25178-.02614-9.37768Zm-3.88473,3.37305c.0035,5.848.0035,5.86887-6.00987,5.81318-2.4767-.02438-5.01082-.14968-6.88881-2.04331a5.53642,5.53642,0,0,1,2.15993-8.96344,18.54478,18.54478,0,0,1,9.19841-.37419c1.1313.13576,1.60471.88067,1.549,2.03287-.054,1.17483-.01047,2.35661-.00871,3.53316Zm-160.99563-3.3539v-7.10114c-.01044-9.865-8.59447-15.13169-17.67452-10.93541-1.43764.66311-1.18527,1.57513-1.01644,2.61246.24367,1.502,1.241,1.0878,2.19647.818a17.99673,17.99673,0,0,1,5.4146-.691c4.77239.13925,7.23167,2.79521,7.16727,7.6111-.02263,1.683-.36028,2.29744-2.22257,1.8397a18.89274,18.89274,0,0,0-8.94256.31327c-4.94294,1.18351-7.33958,4.466-7.08375,9.63874a8.38213,8.38213,0,0,0,8.15587,8.38211,41.95563,41.95563,0,0,0,11.87526-.58479c1.59775-.28892,2.18951-.959,2.15121-2.54631-.07484-3.11544-.02087-6.23786-.02087-9.35681Zm-9.74667,9.16535a16.6847,16.6847,0,0,1-2.86657-.25238c-3.90388-.69618-5.5991-2.52368-5.49991-5.85147.094-3.08065,2.33223-5.1344,5.99245-5.479.63876-.06092,1.28272-.08179,1.925-.094,6.25525-.11662,6.25525-.11487,6.25525,5.96633,0,5.71572,0,5.72615-5.80622,5.70876Zm-67.27109-27.53084c-1.66216.02786-1.77181,1.21485-2.03287,2.3949a185.15812,185.15812,0,0,1-6.673,23.81492,6.88718,6.88718,0,0,1-1.84142-2.98143,118.60318,118.60318,0,0,1-7.52582-20.89962c-.59176-2.44188-2.019-2.72732-3.72462-2.193-2.01024.63-.54477,2.17907-.27152,3.20246a136.74826,136.74826,0,0,0,9.99033,25.46836c.50648,1.01819,1.22877,1.93541.7571,3.30689a8.47609,8.47609,0,0,1-9.36376,5.73138c-1.4237-.25237-2.76039-.919-3.0406,1.31407-.2924,2.34442,1.53511,1.95456,2.76039,2.05725,6.93056.57609,10.47939-1.66388,13.60877-8.87643a182.28125,182.28125,0,0,0,9.43685-30.10846c.56217-2.33223-.49429-2.25567-2.07988-2.22956Z"/><path class="cls-4" d="M421.285,207.89677c-.37072-5.85148-3.55056-9.62134-8.19765-10.2392a34.76229,34.76229,0,0,0-13.47476.78668,2.17561,2.17561,0,0,0-1.94088,2.38734l.00723.06151q.09571,12.45481.00695,24.90966c-.01043,1.61515.449,2.31308,2.193,2.31832,1.88843.00695,2.06594-.98338,2.04507-2.45756-.04874-3.55754-.0174-7.11853-.01567-10.67607.00175-3.66717-.01044-7.33262.01043-10.99982.00524-1.04081-.24541-2.28349,1.29665-2.5411,10.13653-1.68826,13.92728.275,14.258,9.98858.02438.75362.00348,1.509.00348,2.26262.00348,4.20674.03654,8.41346-.007,12.61844-.01739,1.49158.76406,1.76834,2.02592,1.7753,1.26881.007,2.02591-.25411,2.005-1.76311-.087-6.14387.17406-12.30864-.21581-18.43162Z"/><path class="cls-3" d="M486.13164,206.33556c-.83194-5.18313-4.00658-8.349-8.866-8.7894a37.04394,37.04394,0,0,0-12.17461.80758c-1.59776.38814-2.29394,1.06342-2.23652,2.82828.13576,4.08489.0435,8.17674.0435,12.26687s.03479,8.18022-.01742,12.2686c-.01912,1.47766.13922,2.42273,2.03638,2.40186,1.91453-.01739,2.00679-1.04254,2.00154-2.47147-.02959-6.351-.01217-12.70024-.01217-19.04948,0-5.03,0-5.03,4.83331-5.62173,7.06983-.865,10.3976,1.88492,10.61691,9.0174.16535,5.37806.1288,10.76135.101,16.14117-.00871,1.62734.76757,1.9911,2.19126,1.96151,1.26011-.02786,2.07117-.2924,2.02767-1.78573-.19493-6.65731.51867-13.34771-.54475-19.97543ZM124.374,197.69934c-1.70915.0174-1.66911,1.30012-1.98066,2.428a138.74644,138.74644,0,0,1-8.31251,23.39719c-.89808-2.01025-1.44807-3.1694-1.93888-4.35467a123.59711,123.59711,0,0,1-6.398-19.5873c-.5117-2.22432-1.9737-1.90406-3.44265-1.83446-1.35235.06265-1.13827,1.02688-.89809,1.88492a168.04943,168.04943,0,0,0,9.93637,26.87294,2.6577,2.6577,0,0,0,2.81958,1.59775,2.36876,2.36876,0,0,0,2.47844-1.57165,181.60839,181.60839,0,0,0,9.825-26.577c.644-2.30788-.49778-2.27131-2.08856-2.25567Zm400.40142,26.8416c-9.16883,2.31831-14.70352-1.99633-14.70528-11.45929,0-9.71533,5.12917-13.85244,14.47726-11.67336a2.37678,2.37678,0,0,1,.61613.181c1.29144.71881,1.61167-.04,1.97195-1.11565.39858-1.18351.57088-1.99806-.98337-2.40535-5.40764-1.42021-10.66561-1.70565-15.27791,2.146-5.60433,4.68188-6.98277,14.8915-3.08062,22.017,3.1485,5.754,10.31229,8.0758,17.84507,5.77838,1.28793-.39334,2.82827-.42816,2.13554-2.65769-.6718-2.16515-1.84665-1.10171-2.99882-.81106Zm45.06437.6318c-3.4409-.70489-3.43219-3.27035-3.42353-5.96809q.05218-16.79037-.02959-33.58246c-.0052-.89809.89807-2.62114-1.19222-2.54806-1.54729.054-2.77951.35505-2.70993,2.59852.188,6.02206.06437,12.05452.06437,18.08353s-.04875,12.05452.01743,18.08178c.047,4.09709,2.69251,6.81047,6.27092,6.76522a1.59429,1.59429,0,0,0,1.7955-1.36368l.00239-.01827c.22973-.91374.37245-1.80836-.79539-2.04854ZM84.68942,224.9952c-2.58634-.53781-2.96054-2.39315-2.93792-4.64186.05744-5.71223.0174-11.42446.0174-17.13845,0-5.82014.06614-11.642-.06962-17.45871-.01914-.8772,1.27055-2.837-1.321-2.70295-1.99633.10443-2.736.94335-2.66293,3.02145.15664,4.41211.047,8.83638.04873,13.25545.00348,7.437-.06265,14.87411.04177,22.31115.05744,4.16844,2.2017,6.539,5.79056,6.9062,1.19223.12185,2.00677.02088,2.30961-1.462.25585-1.25314-.047-1.8449-1.21659-2.08856Z"/><path class="cls-5" d="M176.33064,197.628a30.40607,30.40607,0,0,0-12.12415.84238,2.656,2.656,0,0,0-2.16864,3.00929c.10443,4.08141.03307,8.16631.03307,12.24945,0,3.977.02784,7.954-.01393,11.92922-.01567,1.43764.087,2.46451,2.00677,2.45755,1.94759-.00523,1.96673-1.10171,1.96151-2.49758-.02437-5.80274-.0087-11.60548-.0087-17.40822,0-7.1342,1.20093-8.175,8.34557-7.216a10.82393,10.82393,0,0,1,1.25837.275c1.40282.362,2.25391-.02438,2.49583-1.58556.228-1.47942-.57784-1.94933-1.78746-2.05726Z"/><path class="cls-6" d="M498.98331,213.0799c0-4.299-.02088-8.59795.01216-12.89693.01046-1.44459-.16535-2.48886-2.03112-2.52368-1.90582-.03482-2.34269.818-2.33223,2.54111.05917,8.49.0435,16.98006.01216,25.47011-.0052,1.44632.10443,2.44536,2.01025,2.46451,1.89711.01739,2.39491-.724,2.35661-2.48191-.087-4.18932-.02783-8.38211-.02783-12.57319Z"/><path class="cls-7" d="M95.87371,213.07294c0-4.20323-.01044-8.4065.007-12.608.00521-1.47243.06962-2.8039-2.07117-2.8248-2.03983-.02087-2.22432,1.09651-2.21736,2.689q.05047,12.608-.00522,25.21774c-.0087,1.62909.22627,2.61419,2.2487,2.60027,2.20343-.01219,2.04853-1.3419,2.04331-2.78825-.01392-4.09533-.00522-8.19066-.00522-12.286Z"/><path class="cls-8" d="M93.86694,185.95286a2.649,2.649,0,0,0-3.03016,2.94313,2.60375,2.60375,0,0,0,3.01624,2.92226,2.65243,2.65243,0,0,0,2.75343-2.85785C96.53857,187.12421,95.63875,186.012,93.86694,185.95286Zm402.73713-.06265a2.79,2.79,0,0,0-2.649,2.924,2.61241,2.61241,0,0,0,2.90662,3.011,2.56553,2.56553,0,0,0,2.82131-2.78649c.02613-1.91278-1.0913-2.90312-3.07892-3.15026Z"/><path class="cls-9" d="M648.92174,47.22138a16.42687,16.42687,0,0,0-6.05688-.26977c-1.59424.01393-1.21835,1.47766-1.47941,2.43145-2.21038,8.05839-10.33322,13.32333-18.07134,11.11119-3.20247-.91375-4.46082.06789-5.493,2.63856a7.03453,7.03453,0,0,1-.77973,1.4063c-.94157,1.34016-.52387,2.01721.95724,2.5324a24.04627,24.04627,0,0,0,12.36084,1.21832,3.15893,3.15893,0,0,0,2.80213-2.14253,6.97757,6.97757,0,0,1,7.209-4.51479,3.44614,3.44614,0,0,0,3.66372-1.03211,24.95171,24.95171,0,0,0,5.1605-11.30612c.12184-.70315.47341-1.79269-.275-2.07291ZM615.898,56.77484a15.19954,15.19954,0,0,1-.8926-21.47689q.46028-.50022.96393-.95782c.51347-.50648,1.30016-.79366,1.4185-1.73526-.7902-1.33668-1.71089-2.67685-2.40707-4.12493-.8824-1.83446-1.76135-2.059-3.34-.637a25.348,25.348,0,0,0-6.5842,9.0557,4.0153,4.0153,0,0,0,.44207,4.69058,5.89151,5.89151,0,0,1,.26457,7.51537c-1.86232,2.35485-1.21835,4.198-.15664,6.39625a20.00364,20.00364,0,0,0,5.17968,6.92883c.952.78321,1.73872,2.99362,3.5227,1.25662,2.602-2.53065,3.16417-5.35195,1.589-6.90968Zm7.35346-26.08449a14.96116,14.96116,0,0,1,18.02306,11.08332q.04095.17186.07787.34464c.42641,1.78747,1.07909,2.33223,2.743,2.15993a14.985,14.985,0,0,1,3.22164-.06962c1.89886.21929,2.21389-.71011,1.91453-2.27306a23.0979,23.0979,0,0,0-5.251-11.25043,2.68031,2.68031,0,0,0-2.70467-1.26706,6.92015,6.92015,0,0,1-8.20113-4.59659,2.75868,2.75868,0,0,0-2.37227-1.85883,22.55665,22.55665,0,0,0-14.47551,2.09206,24.50744,24.50744,0,0,1,1.69522,3.19551c.96946,2.71514,2.43666,3.1607,5.32936,2.44015Z"/><path class="cls-10" d="M639.80337,27.56271a5.19186,5.19186,0,0,0,5.43144-4.94064q.00581-.12289.00579-.246a5.31543,5.31543,0,0,0-5.20417-5.42439l-.03989-.00067a5.38677,5.38677,0,0,0-5.479,5.22839,5.28759,5.28759,0,0,0,5.191,5.38242q.04742.00086.09481.00086Zm.06092,36.03131a5.41809,5.41809,0,0,0-5.345,5.36415,5.28755,5.28755,0,0,0,5.36478,5.2092l.0777-.00171a5.10656,5.10656,0,0,0,5.27794-4.92921q.0063-.18522-.00079-.37053a5.26843,5.26843,0,0,0-5.26211-5.2747q-.05625-.00008-.1125.00106Z"/><path class="cls-9" d="M599.628,40.29951a5.28408,5.28408,0,0,0-.34812,10.5612,4.983,4.983,0,0,0,5.41115-5.08916,5.08217,5.08217,0,0,0-4.67737-5.45707Q599.82116,40.29966,599.628,40.29951Z"/></svg>