<svg id="Layer_1" data-name="Layer 1" xmlns="http://www.w3.org/2000/svg" xmlns:xlink="http://www.w3.org/1999/xlink" viewBox="0 0 400 245"><defs><style>.cls-1{fill:none;}.cls-2{clip-path:url(#clip-path);}.cls-3{fill:#91afe5;}.cls-4{fill:#003594;}.cls-5{fill:#757c83;}</style><clipPath id="clip-path"><rect class="cls-1" x="3.51877" y="75.71599" width="394.41781" height="94.52803"/></clipPath></defs><title>iol</title><g class="cls-2"><path class="cls-3" d="M150.62769,105.86966c.97811,8.01069-2.072,15.52987-5.59678,21.05776-7.228,11.3445-18.21306,19.56562-30.07853,26.21127A132.01319,132.01319,0,0,1,67.2037,168.65352a137.73555,137.73555,0,0,1-19.079.9712,72.85038,72.85038,0,0,1-12.5574-1.50659c-11.697-2.19662-21.5938-6.67506-27.54938-14.68579a23.91467,23.91467,0,0,1-4.23424-9.72768,21.67368,21.67368,0,0,1-.29117-5.4941c.40139-9.66382,5.9487-17.57936,11.14663-23.48861a89.98322,89.98322,0,0,1,14.94-13.17669c.70445.41577.1102,1.55794-.19538,1.99312a72.16956,72.16956,0,0,0-13.5292,12.01013c-3.83974,4.50535-7.51415,9.78656-8.81035,16.68141a20.06791,20.06791,0,0,0,5.98754,18.72213c8.60557,7.903,22.96074,11.85609,39.76488,11.18544a132.06642,132.06642,0,0,0,22.67958-2.82031,127.60974,127.60974,0,0,0,36.94458-14.05458c10.53483-6.09523,20.54181-13.78347,26.674-24.36464a30.29641,30.29641,0,0,0,3.60052-9.14348,21.76152,21.76152,0,0,0-.63368-11.1366c-2.11586-6.05388-6.87108-10.119-12.45972-13.032a57.41313,57.41313,0,0,0-19.90562-5.5918C93.50073,80.15247,77.39665,83.026,64.67206,86.8075c-3.263.97122-6.42773,2.06954-9.53922,3.20917-3.114,1.14277-6.186,2.50034-9.05268,3.84288a21.34394,21.34394,0,0,1,2.38451-2.918c13.22615-5.58427,27.364-10.161,44.82818-11.52545,18.66076-1.45774,35.47242,1.82468,46.23708,9.38769,5.36634,3.76709,10.13408,9.16288,11.09776,17.06589"/></g><path class="cls-4" d="M109.93794,143.94886v1.50723a168.23189,168.23189,0,0,0-17.03646,0v-1.50723c1.923-.144,3.90172-.42518,4.72327-1.75142.62868-1.015.58234-2.98874.58234-4.96.0025-9.1654,0-18.404,0-27.525,0-3.43458.36194-7.91553-.77772-10.21237-.75078-1.5141-2.89607-1.80277-4.91675-1.89543V96.0975c3.98437-.819,8.00571-1.59926,11.97318-2.43333h.09831v36.76549c0,1.93049-.042,4.1071.04884,6.07895.09517,2.07389-.1985,4.20416.53539,5.5423.75329,1.37449,2.8153,1.79778,4.7696,1.898"/><path class="cls-4" d="M69.88,144.53121c7.85856-.09769,10.471-7.39893,10.2706-15.75468-.19536-8.18917-2.8203-15.11408-11.09778-15.0283-7.88547.0833-10.491,7.88612-10.27059,15.85486.23733,8.5317,3.21167,15.02831,11.09777,14.92812m17.76534-16.53238a16.08983,16.08983,0,0,1-4.72076,12.83668A18.09723,18.09723,0,0,1,70.66022,146.185a18.75088,18.75088,0,0,1-13.2894-4.27806,16.76938,16.76938,0,0,1-6.08335-11.52609,15.52843,15.52843,0,0,1,4.72078-12.83918,19.04264,19.04264,0,0,1,25.60259-1.11773,15.954,15.954,0,0,1,6.03449,11.57493"/><path class="cls-5" d="M44.32624,98.77127a6.33119,6.33119,0,0,0-2.28681-5.3006,7.85933,7.85933,0,0,0-5.79215-1.84909,7.37477,7.37477,0,0,0-4.81906,2.04259,5.96911,5.96911,0,0,0-2.1403,4.62058c.02255,4.31687,4.19978,6.96372,8.275,6.56487,3.28057-.32062,6.48973-2.43648,6.76336-6.07835M53.0389,86.46751c-1.09581,1.28176-3.31435,2.88165-4.57423,4.474a21.34394,21.34394,0,0,0-2.38451,2.918c-.07073.12021-.2179.30118-.76831,1.0814a3.5336,3.5336,0,0,0-.69192,1.69006c.149.71634,1.92488.8635,2.774.97371,1.23481.16092,2.31624.17093,3.407.29054-1.12526.24984-2.31876.41391-3.50537.7295-.94428.25422-2.4997.58924-2.62682,1.55794-.1152.87789.87791,1.84408,1.4114,2.43145,1.74392,1.91735,4.24614,3.938,5.74333,5.54232a64.7083,64.7083,0,0,0-6.91239-3.598c-.77834-.3275-2.79339-1.39889-3.30936-.29118a7.78819,7.78819,0,0,0-.09831,2.965,73.00409,73.00409,0,0,0,1.31622,8.16913c-.69506-1.05635-1.22292-2.2793-1.9474-3.30433.0075-.04134-.01941-.04634-.04886-.04886-.73825-1.26675-1.36193-2.46526-2.238-3.74454-.58234-.8516-1.898-2.928-3.11587-2.86916-1.25737.05823-1.928,2.51661-2.38513,3.598a29.46382,29.46382,0,0,0-1.41139,4.52228c.12712-2.24548.61177-4.91362.536-7.6826-.02255-.80276-.02255-1.99125-.58486-2.14027-.77082-.2029-1.60927.56731-2.0451.87539-.64057.45525-1.1008.85849-1.70195,1.216a15.71214,15.71214,0,0,0,1.5091-2.28744c.303-.43268.8973-1.57485.19285-1.99312-2.25987-.36444-5.69384.1271-8.12781.4377-2.551.32748-5.02883.64309-7.35008.87539,3.593-.8679,7.67069-1.81966,11.43966-2.86916.79524-.22228,3.18975-.66,3.21169-1.50659.01939-.73135-1.77837-1.60928-2.33566-1.94677-.97621-.58735-1.84471-.97122-2.774-1.45777,1.14714-.15215,5.21232,1.41079,5.59617-.24231.18347-.78775-.49407-1.95931-.82656-2.62683C27.27726,89.934,25.673,87.703,24.46946,85.78809c1.17661.8973,2.40455,2.09331,3.79652,3.20917,1.17848.94616,2.87856,2.36258,4.47846,2.578,2.02505.26862,2.17221-2.11085,2.4828-3.6475A82.5656,82.5656,0,0,0,36.5898,75.81806a93.28335,93.28335,0,0,0,1.84911,12.54549c.29555,1.24737.63556,3.34631,2.042,3.45339,1.08893.08327,2.50034-.73576,3.40768-1.06889a50.79538,50.79538,0,0,0,9.15035-4.28054"/><path class="cls-4" d="M46.17787,143.94886v1.50723a165.7656,165.7656,0,0,0-16.93878,0v-1.50723a8.07367,8.07367,0,0,0,3.943-1.02193c1.50472-1.14965,1.2649-4.11962,1.2649-6.9055V123.23112c0-1.64625.18786-4.94057-.38886-6.0295-.7558-1.41829-3.05513-1.58987-5.1591-1.40891v-1.50909c3.97248-.74577,7.94245-1.49908,11.92433-2.23546.02945.00252.05636.00752.04886.04886v22.51551c0,2.444-.3275,5.38641.38948,7.09837.71886,1.722,2.85662,2.12839,4.91614,2.238"/><path class="cls-4" d="M36.3938,95.07556c4.71326-.58483,4.57175,6.24427.48656,6.2737a3.08845,3.08845,0,0,1-3.16221-3.16283,3.0377,3.0377,0,0,1,2.67565-3.11087"/><path class="cls-5" d="M123.39828,152.16747a2.11887,2.11887,0,0,1,1.01754.26424,1.85293,1.85293,0,0,1,.77333.77334,2.08109,2.08109,0,0,1,.28367,1.037,2.1429,2.1429,0,0,1-.27427,1.037,1.9172,1.9172,0,0,1-.7727.76331,2.07167,2.07167,0,0,1-1.02757.27362,2.1149,2.1149,0,0,1-1.037-.27362,1.9096,1.9096,0,0,1-.76331-.76331,2.1016,2.1016,0,0,1,0-2.07392,1.90763,1.90763,0,0,1,.78272-.77334,2.15191,2.15191,0,0,1,1.01754-.26424Zm0,.34252a1.75561,1.75561,0,0,0-.851.22543,1.64146,1.64146,0,0,0-.6456.64558,1.71367,1.71367,0,0,0-.23481.861,1.75083,1.75083,0,0,0,.2248.861,1.70915,1.70915,0,0,0,.64558.64559,1.76131,1.76131,0,0,0,1.722,0,1.64648,1.64648,0,0,0,.6362-.64559,1.69592,1.69592,0,0,0,0-1.722,1.57927,1.57927,0,0,0-.64559-.64558,1.75611,1.75611,0,0,0-.85161-.22543Zm-.90982,2.87666v-2.23107h.77332a1.75262,1.75262,0,0,1,.56732.06889.50856.50856,0,0,1,.27363.2154.53544.53544,0,0,1,.10771.32249.60258.60258,0,0,1-.176.43079.69036.69036,0,0,1-.45962.19537.64222.64222,0,0,1,.186.11774,2.92892,2.92892,0,0,1,.33249.44959l.27366.4308h-.44022l-.19536-.35253a1.846,1.846,0,0,0-.382-.51848.45511.45511,0,0,0-.28366-.07827h-.21542v.94928Zm.36191-1.25234h.44084a.70619.70619,0,0,0,.42016-.08831.31167.31167,0,0,0,.11773-.25421.29166.29166,0,0,0-.05886-.176.32437.32437,0,0,0-.14653-.11771,1.17652,1.17652,0,0,0-.36193-.03881h-.41141Z"/><path class="cls-4" d="M175.72369,83.74049v.9931h-1.60926v5.62059a8.80049,8.80049,0,0,0,.09017,1.248,2.41718,2.41718,0,0,0,.49656,1.12523,1.94281,1.94281,0,0,0,.8854.67754,3.27317,3.27317,0,0,0,1.11336.19536,2.81351,2.81351,0,0,0,1.27678-.30057,2.19773,2.19773,0,0,0,.94617-.91734,2.88976,2.88976,0,0,0,.377-1.18662c.03883-.40074.06136-.82155.06136-1.26174V84.73359h-1.58047v-.9931h4.07518v.9931h-1.33816v5.516c0,.42016-.01439.809-.04634,1.17157a3.35955,3.35955,0,0,1-.30117,1.11022,3.77493,3.77493,0,0,1-.26864.48217,3.96365,3.96365,0,0,1-.37695.46713,4.242,4.242,0,0,1-.4208.42077,2.40761,2.40761,0,0,1-.43519.28368,4.13456,4.13456,0,0,1-1.00753.36194,4.56455,4.56455,0,0,1-2.70573-.196,3.28649,3.28649,0,0,1-1.35253-1.00751,3.44167,3.44167,0,0,1-.45024-.69006,3.38157,3.38157,0,0,1-.23919-.72136,6.08344,6.08344,0,0,1-.10522-.7683c-.01-.25926-.015-.53539-.015-.82656v-5.6037h-1.32312v-.9931h4.25361"/><path class="cls-4" d="M185.52215,88.06989a2.444,2.444,0,0,1,.85662-1.24737,2.98184,2.98184,0,0,1,3.00568,0,2.27735,2.27735,0,0,1,.88541,1.24737,2.9843,2.9843,0,0,1,.04694.511c.00942.159.01442.32561.01442.49467V93.554h1.23044v.9468h-3.6813V93.554h1.23292V89.49569a4.79133,4.79133,0,0,0-.06134-.78022,2.05865,2.05865,0,0,0-.22482-.69192,1.25278,1.25278,0,0,0-.46522-.47965,1.5472,1.5472,0,0,0-.79713-.181,3.08984,3.08984,0,0,0-.56985.04385,1.25188,1.25188,0,0,0-.49654.22792,1.75733,1.75733,0,0,0-.40577.345,2.50711,2.50711,0,0,0-.25486.42016,2.59974,2.59974,0,0,0-.28617.99062c-.01939.34252-.02943.68255-.02943,1.02257V93.554h1.23046v.9468h-3.75707V93.554h1.30871V87.5439h-1.27678V86.656h2.49468v1.41391"/><path class="cls-4" d="M196.51725,94.50075H192.819V93.554h1.26428V87.5439h-1.24737V86.656h2.46339v6.898h1.21794v.9468M195.3895,83.74049v1.26237h-1.3964V83.74049h1.3964"/><polyline class="cls-4" points="197.498 86.656 200.834 86.656 200.834 87.544 199.587 87.544 201.419 93.463 201.524 93.463 203.388 87.544 202.14 87.544 202.14 86.656 205.401 86.656 205.401 87.544 204.606 87.544 202.231 94.501 200.683 94.501 198.278 87.544 197.498 87.544 197.498 86.656"/><path class="cls-4" d="M213.95256,90.81944h-5.78524a5.84991,5.84991,0,0,0,.16406,1.11271,2.40931,2.40931,0,0,0,.526.99061,1.91722,1.91722,0,0,0,.81214.63119,3.57333,3.57333,0,0,0,1.052.13715,2.00336,2.00336,0,0,0,.692-.12272,2.51057,2.51057,0,0,0,.60176-.34441,2.08413,2.08413,0,0,0,.45022-.526,1.66355,1.66355,0,0,0,.2248-.64623h1.15717a3.043,3.043,0,0,1-.40638,1.11336,3.00955,3.00955,0,0,1-.73577.80965,3.23446,3.23446,0,0,1-1.00816.48152,4.52117,4.52117,0,0,1-1.186.14964,4.136,4.136,0,0,1-1.65372-.30118,2.87086,2.87086,0,0,1-1.11022-.84158,3.58145,3.58145,0,0,1-.64873-1.27676,6.3549,6.3549,0,0,1-.19285-1.62182,5.96631,5.96631,0,0,1,.13461-1.26176,4.12848,4.12848,0,0,1,.44962-1.2035,3.08281,3.08281,0,0,1,1.27679-1.24735,3.73825,3.73825,0,0,1,2.90106-.25486,2.71527,2.71527,0,0,1,1.00814.51158,2.8694,2.8694,0,0,1,.72136.88541,3.65859,3.65859,0,0,1,.38886,1.052,6.94677,6.94677,0,0,1,.12211.78274,6.17486,6.17486,0,0,1,.04445.78021v.21041m-1.29178-.903a3.27816,3.27816,0,0,0-.13713-.92926,2.51781,2.51781,0,0,0-.40329-.82654,2.0216,2.0216,0,0,0-.6775-.60176,1.72565,1.72565,0,0,0-.93178-.23982,1.99544,1.99544,0,0,0-.9618.2248,2.202,2.202,0,0,0-.69192.59924,2.86448,2.86448,0,0,0-.45022.82717,3.82913,3.82913,0,0,0-.181.94617h4.43462"/><path class="cls-4" d="M217.93444,88.21891a5.83585,5.83585,0,0,1,.362-.82656,1.5438,1.5438,0,0,1,.46463-.51095,1.62912,1.62912,0,0,1,.63119-.26927,3.9132,3.9132,0,0,1,.91733-.09079h.31559V87.6491a2.07628,2.07628,0,0,0-.25671-.04634,2.26272,2.26272,0,0,0-.25426-.01441,2.08782,2.08782,0,0,0-1.09831.25672,1.85514,1.85514,0,0,0-.6606.675,2.76391,2.76391,0,0,0-.33.9468,6.54393,6.54393,0,0,0-.09079,1.09769V93.554h1.4872v.9468h-3.95245V93.554h1.24735V87.5439h-1.24735V86.656h2.46525v1.56293"/><path class="cls-4" d="M226.98211,89.1801a2.67769,2.67769,0,0,0-.2417-1.05137,1.32328,1.32328,0,0,0-.85662-.6606,1.91354,1.91354,0,0,0-.37384-.09019,1.79193,1.79193,0,0,0-.39134-.04445,2.14322,2.14322,0,0,0-.63119.09079,1.61347,1.61347,0,0,0-.54041.23982,1.16911,1.16911,0,0,0-.36253.43522,1.39771,1.39771,0,0,0-.134.63119,1.24151,1.24151,0,0,0,.07577.39134.71239.71239,0,0,0,.23982.31561,1.94409,1.94409,0,0,0,.70634.28617c.25984.04882.51657.10017.76582.149.35.06138.69254.13463,1.02253.22481a3.03725,3.03725,0,0,1,.88543.362,1.81532,1.81532,0,0,1,.63119.6462,1.91635,1.91635,0,0,1,.24231,1.02255,5.658,5.658,0,0,1-.03192.58422,1.0241,1.0241,0,0,1-.17846.54039,3.68254,3.68254,0,0,1-.91735.96371,2.46333,2.46333,0,0,1-1.44336.38945,3.88577,3.88577,0,0,1-.79713-.07387,2.14689,2.14689,0,0,1-.63117-.2104,2.20486,2.20486,0,0,1-.494-.42018,4.02869,4.02869,0,0,1-.45273-.64871v1.248h-.94679V91.795h.94679a4.21979,4.21979,0,0,0,.2104.78272,1.46054,1.46054,0,0,0,.511.675,2.13129,2.13129,0,0,0,.6462.34753,2.80456,2.80456,0,0,0,.72135.09081,1.78882,1.78882,0,0,0,1.12774-.36257,1.29087,1.29087,0,0,0,.46715-1.06636,1.01641,1.01641,0,0,0-.196-.66,1.18729,1.18729,0,0,0-.49656-.36193,2.60592,2.60592,0,0,0-.66-.16405c-.23233-.042-.45272-.07579-.66311-.10522a9.35415,9.35415,0,0,1-.96121-.196,2.77958,2.77958,0,0,1-.79711-.37634,2.01836,2.01836,0,0,1-.55544-.63119,2.22154,2.22154,0,0,1-.196-.9931,4.30946,4.30946,0,0,1,.06136-.70445,1.1947,1.1947,0,0,1,.28617-.6312,2.95392,2.95392,0,0,1,1.08138-.78271,3.442,3.442,0,0,1,1.30812-.23984,2.79408,2.79408,0,0,1,1.14027.23984,1.83062,1.83062,0,0,1,.87288.78271V86.656h.9468V89.1801h-.9468"/><path class="cls-4" d="M233.56951,94.50075h-3.6982V93.554h1.26424V87.5439h-1.24733V86.656H232.351v6.898h1.21852v.9468m-1.12775-10.76026v1.26237h-1.39637V83.74049h1.39637"/><path class="cls-4" d="M236.99849,86.656H239.254v.88792h-2.25549v5.07831a2.63352,2.63352,0,0,0,.02941.39136,1.16978,1.16978,0,0,0,.12022.34439.85943.85943,0,0,0,.24172.25737.77339.77339,0,0,0,.39138.09016.61128.61128,0,0,0,.4502-.16656.93228.93228,0,0,0,.22482-.4352,2.34777,2.34777,0,0,0,.09077-.526c.01-.181.01443-.34.01443-.48152h.97619v.28616c0,.09016-.005.186-.01439.28617a3.0399,3.0399,0,0,1-.25487,1.06638,1.44753,1.44753,0,0,1-.7827.73639c-.139.02943-.27365.06073-.40577.09016a1.81951,1.81951,0,0,1-.4039.04444,2.17823,2.17823,0,0,1-.37632-.0294c-.10021-.02-.22043-.03945-.36194-.05886a1.17014,1.17014,0,0,1-.6312-.34753,1.92534,1.92534,0,0,1-.38886-.61618,1.39268,1.39268,0,0,1-.07577-.30119c-.02-.12962-.03443-.25924-.04445-.38884-.0119-.14154-.01691-.27114-.01691-.39138V87.5439H234.428V86.656h1.35255V85.125l1.21794-.45274V86.656"/><path class="cls-4" d="M243.97976,86.656v.88792h-1.21793l1.92488,5.49849,1.861-5.49849H245.3179V86.656h3.21356v.88792H247.842l-2.58547,7.03262c-.08078.20038-.16155.39136-.23983.57232-.07076.18848-.15153.38386-.24232.58422a3.65668,3.65668,0,0,1-.33.58737,1.39777,1.39777,0,0,1-.47967.46461,1.851,1.851,0,0,1-.58672.24234,2.30546,2.30546,0,0,1-.61617.08766,2.69031,2.69031,0,0,1-.48217-.04384c-.149-.01942-.30307-.03881-.46462-.06136v-.9906a3.65814,3.65814,0,0,0,.90235.10518.80984.80984,0,0,0,.51156-.16595,1.27776,1.27776,0,0,0,.35945-.40638,2.20111,2.20111,0,0,0,.23982-.526c.07076-.18784.13212-.35943.181-.50844l-2.62993-6.97376h-.75079V86.656h3.35131"/><path class="cls-4" d="M255.75693,90.48881a7.89214,7.89214,0,0,0,.0883,1.14278,2.35743,2.35743,0,0,0,.45272,1.05135,2.60467,2.60467,0,0,0,.78021.7364,2.02063,2.02063,0,0,0,1.03695.27176,1.98341,1.98341,0,0,0,1.09834-.34753,2.23213,2.23213,0,0,0,.7802-.8416,3.10789,3.10789,0,0,0,.345-.9906,6.42839,6.42839,0,0,0,.09018-1.0689,5.62455,5.62455,0,0,0-.10518-1.0958,2.87476,2.87476,0,0,0-.37384-.99312,2.07206,2.07206,0,0,0-.722-.71886,1.9909,1.9909,0,0,0-1.11273-.28616,2.0856,2.0856,0,0,0-1.12772.30057,2.47105,2.47105,0,0,0-.79463.80965,2.84505,2.84505,0,0,0-.34753.9931,6.65426,6.65426,0,0,0-.0883,1.037m-1.29369-.01441a5.64331,5.64331,0,0,1,.21041-1.54856,3.38714,3.38714,0,0,1,.76579-1.36692,3.15364,3.15364,0,0,1,1.23233-.8566,4.09816,4.09816,0,0,1,1.51911-.28618,3.58259,3.58259,0,0,1,1.59238.33063,3.06861,3.06861,0,0,1,1.11274.90233,3.6759,3.6759,0,0,1,.64621,1.30621,5.88172,5.88172,0,0,1,.21037,1.578,5.32094,5.32094,0,0,1-.22539,1.56294,3.685,3.685,0,0,1-.692,1.29369,3.28253,3.28253,0,0,1-1.12772.8854,3.54883,3.54883,0,0,1-1.578.33061,4.25826,4.25826,0,0,1-1.59176-.28427,2.99365,2.99365,0,0,1-1.21854-1.037,4.71865,4.71865,0,0,1-.66-1.33815,5.39521,5.39521,0,0,1-.196-1.47215"/><path class="cls-4" d="M263.09013,94.50075V93.554h1.32121v-5.995h-1.382V86.656h1.382v-.99061a2.91524,2.91524,0,0,1,.04636-.5404,2.19281,2.19281,0,0,1,.17846-.511,1.5633,1.5633,0,0,1,.36194-.48217,1.76207,1.76207,0,0,1,.856-.49656,3.93206,3.93206,0,0,1,.99314-.11959,5.87019,5.87019,0,0,1,1.23044.134v1.02253c-.18848-.02943-.37386-.05385-.55544-.07575a3.43284,3.43284,0,0,0-.55479-.04384,2.10642,2.10642,0,0,0-.6462.10518.8486.8486,0,0,0-.496.37634,1.33845,1.33845,0,0,0-.18158.66062c-.0094.24985-.01441.47714-.01441.675V86.656h1.66815v.90294h-1.66815v5.995h1.4872v.9468h-4.02633"/><polyline class="cls-4" points="273.398 94.501 273.398 93.51 274.917 93.51 274.917 84.734 273.398 84.734 273.398 83.74 276.854 83.74 281.604 93.104 281.604 84.734 280.102 84.734 280.102 83.74 284.248 83.74 284.248 84.734 282.776 84.734 282.776 94.501 280.959 94.501 276.059 84.868 276.059 93.51 277.607 93.51 277.607 94.501 273.398 94.501"/><path class="cls-4" d="M292.96074,90.81944h-5.78713a5.95765,5.95765,0,0,0,.16654,1.11271,2.40211,2.40211,0,0,0,.526.99061,1.91346,1.91346,0,0,0,.81215.63119,3.56892,3.56892,0,0,0,1.05137.13715,2.01438,2.01438,0,0,0,.69252-.12272,2.45792,2.45792,0,0,0,.59928-.34441,2.0787,2.0787,0,0,0,.45209-.526,1.69462,1.69462,0,0,0,.22541-.64623h1.1572a3.054,3.054,0,0,1-.40638,1.11336,3.00134,3.00134,0,0,1-.73641.80965,3.2376,3.2376,0,0,1-1.00751.48152,4.52273,4.52273,0,0,1-1.1866.14964,4.12651,4.12651,0,0,1-1.65312-.30118,2.90491,2.90491,0,0,1-1.11336-.84158,3.61694,3.61694,0,0,1-.64557-1.27676,6.35071,6.35071,0,0,1-.19538-1.62182,6.01071,6.01071,0,0,1,.1365-1.26176,4.14707,4.14707,0,0,1,.45022-1.2035,3.07944,3.07944,0,0,1,1.2768-1.24735,3.73827,3.73827,0,0,1,2.90107-.25486,2.70773,2.70773,0,0,1,1.00752.51158,2.88079,2.88079,0,0,1,.722.88541,3.658,3.658,0,0,1,.38886,1.052,6.37631,6.37631,0,0,1,.11962.78274,5.72233,5.72233,0,0,1,.04632.78021v.21041m-1.29367-.903a3.27464,3.27464,0,0,0-.13463-.92926,2.52189,2.52189,0,0,0-.40578-.82654,2.01342,2.01342,0,0,0-.675-.60176,1.73828,1.73828,0,0,0-.93235-.23982,1.981,1.981,0,0,0-.96121.2248,2.1955,2.1955,0,0,0-.69191.59924,2.86448,2.86448,0,0,0-.45022.82717,3.83053,3.83053,0,0,0-.181.94617h4.43212"/><polyline class="cls-4" points="294.238 86.656 297.74 86.656 297.74 87.544 296.432 87.544 297.934 93.39 298.039 93.39 299.888 86.656 301.603 86.656 303.481 93.39 303.586 93.39 305.059 87.544 303.75 87.544 303.75 86.656 307.163 86.656 307.163 87.544 306.275 87.544 304.261 94.501 302.655 94.501 300.776 87.635 300.671 87.635 298.76 94.501 297.154 94.501 295.124 87.544 294.238 87.544 294.238 86.656"/><polyline class="cls-4" points="313.003 94.501 313.003 93.51 314.506 93.51 314.506 84.734 313.003 84.734 313.003 83.74 317.316 83.74 317.316 84.734 315.814 84.734 315.814 88.535 320.953 88.535 320.953 84.734 319.434 84.734 319.434 83.74 323.764 83.74 323.764 84.734 322.262 84.734 322.262 93.51 323.764 93.51 323.764 94.501 319.434 94.501 319.434 93.51 320.953 93.51 320.953 89.601 315.814 89.601 315.814 93.51 317.316 93.51 317.316 94.501 313.003 94.501"/><path class="cls-4" d="M330.47578,92.95471a2.78263,2.78263,0,0,1-1.00566,1.27678,2.92277,2.92277,0,0,1-1.56292.37443,3.66448,3.66448,0,0,1-.81216-.08826,2.55859,2.55859,0,0,1-.72134-.28617,2.31369,2.31369,0,0,1-.55544-.526,2.00838,2.00838,0,0,1-.34752-.75078,1.97854,1.97854,0,0,1-.07327-.46715v-.27173a2.32029,2.32029,0,0,1,.23979-1.11023,2.18962,2.18962,0,0,1,.66061-.75142,2.82848,2.82848,0,0,1,.96373-.4377,4.74481,4.74481,0,0,1,1.12524-.13463h.4208c.15153-.0094.29554-.01441.43772-.01441h1.23042v-.72136a3.04328,3.04328,0,0,0-.12024-.70694,1.5469,1.5469,0,0,0-.40573-.59927,1.26959,1.26959,0,0,0-.541-.31559,1.92281,1.92281,0,0,0-.61616-.10518,3.05284,3.05284,0,0,0-.856.10518,1.47922,1.47922,0,0,0-.707.526,1.03862,1.03862,0,0,0-.22472.4496c-.02943.159-.05385.32062-.07579.48217h-1.26241a2.66237,2.66237,0,0,1,.46715-1.44335,2.38006,2.38006,0,0,1,1.233-.85848,2.27385,2.27385,0,0,1,.66-.13466c.22041-.01938.44522-.02941.67568-.02941a4.04419,4.04419,0,0,1,1.14213.14965,2.78057,2.78057,0,0,1,1.00753.526,1.67183,1.67183,0,0,1,.61678.88794,4.02839,4.02839,0,0,1,.134,1.06637V93.554h1.248v.9468h-2.37511v-1.546m-3.78651-.707a1.6256,1.6256,0,0,0,.345,1.06638,1.26812,1.26812,0,0,0,1.0219.40578,2.25094,2.25094,0,0,0,1.12777-.25674,1.98141,1.98141,0,0,0,.7364-.675,2.77215,2.77215,0,0,0,.40573-.96119,5.31446,5.31446,0,0,0,.14967-1.12775,3.88351,3.88351,0,0,0-.59924-.04634c-.21039-.01-.41142-.01439-.60175-.01439-.30121,0-.60677.0094-.91737.0313a2.39224,2.39224,0,0,0-.82718.196,1.3887,1.3887,0,0,0-.60114.47967,1.47182,1.47182,0,0,0-.23983.90231"/><path class="cls-4" d="M336.53218,88.06989a1.99606,1.99606,0,0,1,.78273-1.20353,2.284,2.284,0,0,1,1.41073-.45022,2.241,2.241,0,0,1,1.45844.45022,2.203,2.203,0,0,1,.78272,1.20353,1.89189,1.89189,0,0,1,.79461-1.20353,2.41879,2.41879,0,0,1,1.41391-.45022,2.60068,2.60068,0,0,1,1.56293.46526,1.7809,1.7809,0,0,1,.79465,1.18849,5.53751,5.53751,0,0,1,.09077.70445c.01.181.01441.35689.01441.52848V93.554h1.14278v.9468h-3.59113V93.554h1.23291V89.63284c0-.27115-.01-.54042-.02939-.81217a1.84706,1.84706,0,0,0-.166-.72135,1.09387,1.09387,0,0,0-.45022-.526,1.492,1.492,0,0,0-.85843-.21039,1.58555,1.58555,0,0,0-.97623.31561,2.00534,2.00534,0,0,0-.63119.78022,2.69659,2.69659,0,0,0-.19537.88792q-.02913.4809-.02943.91735V93.554h1.21792v.9468h-3.65193V93.554h1.21609V89.63284c0-.27115-.01-.54042-.02943-.81217a1.816,1.816,0,0,0-.16656-.72135,1.09088,1.09088,0,0,0-.45022-.526,1.48776,1.48776,0,0,0-.856-.21039,1.55267,1.55267,0,0,0-.96121.31561,1.99493,1.99493,0,0,0-.63122.78022,2.433,2.433,0,0,0-.21036.88792c-.0219.3206-.0313.62616-.0313.91735V93.554h1.2323v.9468h-3.72761V93.554h1.27926V87.5439h-1.27926V86.656h2.49531v1.41391"/><path class="cls-4" d="M350.22236,88.18948a3.35433,3.35433,0,0,1,1.06883-1.33751,2.84774,2.84774,0,0,1,1.65317-.43583,3.16711,3.16711,0,0,1,.8566.1052,1.91944,1.91944,0,0,1,.70445.31559,2.357,2.357,0,0,1,.60176.55542,5.30718,5.30718,0,0,1,.5573.79713,2.99166,2.99166,0,0,1,.345,1.09583,9.96092,9.96092,0,0,1,.07578,1.2035,7.59581,7.59581,0,0,1-.15153,1.45774,3.06759,3.06759,0,0,1-.56981,1.33815,3.8399,3.8399,0,0,1-1.052.97622,2.63158,2.63158,0,0,1-1.38449.345,3.40808,3.40808,0,0,1-1.59235-.36,2.61153,2.61153,0,0,1-1.11271-1.20349v2.99185h1.26421v.90235h-3.742v-.90235h1.26176V87.5439H347.774V86.656h2.44838v1.5335m2.38949-.856a2.08737,2.08737,0,0,0-1.92237,1.11083,2.80341,2.80341,0,0,0-.39137.99314,7.16456,7.16456,0,0,0-.07575,1.05135,7.56013,7.56013,0,0,0,.09012,1.14278,3.01653,3.01653,0,0,0,.40639,1.037,2.40312,2.40312,0,0,0,.75085.76518,2.02047,2.02047,0,0,0,1.03688.27176,1.98346,1.98346,0,0,0,1.06894-.27176,2.24294,2.24294,0,0,0,.71947-.72136,3.05392,3.05392,0,0,0,.40577-.99062,4.61073,4.61073,0,0,0,.13713-1.09832,6.79962,6.79962,0,0,0-.10518-1.17158,3.46863,3.46863,0,0,0-.40642-1.11271,1.89586,1.89586,0,0,0-.72134-.73638,1.96056,1.96056,0,0,0-.99312-.26927"/><path class="cls-4" d="M362.76781,89.1801a2.70951,2.70951,0,0,0-.24231-1.05137,1.32032,1.32032,0,0,0-.856-.6606,1.90308,1.90308,0,0,0-.377-.09019,1.753,1.753,0,0,0-.38884-.04445,2.142,2.142,0,0,0-.63058.09079,1.61093,1.61093,0,0,0-.541.23982,1.17345,1.17345,0,0,0-.36194.43522,1.39831,1.39831,0,0,0-.13464.63119,1.30438,1.30438,0,0,0,.0733.39134.74443.74443,0,0,0,.24227.31561,1.9476,1.9476,0,0,0,.707.28617c.25924.04882.51348.10017.76584.149.34939.06138.69191.13463,1.02254.22481a3.03753,3.03753,0,0,1,.88542.362,1.80839,1.80839,0,0,1,.63054.6462,1.91616,1.91616,0,0,1,.24234,1.02255c0,.17847-.01188.37382-.03195.58422a1.01344,1.01344,0,0,1-.17844.54039,3.671,3.671,0,0,1-.91741.96371,2.45959,2.45959,0,0,1-1.44261.38945,3.87078,3.87078,0,0,1-.79782-.07387,2.159,2.159,0,0,1-.63119-.2104,2.288,2.288,0,0,1-.49654-.42018,4.1945,4.1945,0,0,1-.44961-.64871v1.248h-.94679V91.795h.94679a4.21979,4.21979,0,0,0,.2104.78272,1.45657,1.45657,0,0,0,.51095.675,2.13621,2.13621,0,0,0,.64559.34753,2.79923,2.79923,0,0,0,.722.09081,1.79207,1.79207,0,0,0,1.12711-.36257,1.28785,1.28785,0,0,0,.46528-1.06636,1.016,1.016,0,0,0-.1935-.66,1.20719,1.20719,0,0,0-.49658-.36193,2.60337,2.60337,0,0,0-.6631-.16405c-.22981-.042-.44961-.07579-.66-.10522a9.35224,9.35224,0,0,1-.96117-.196,2.77524,2.77524,0,0,1-.79778-.37634,2.00192,2.00192,0,0,1-.5554-.63119,2.22166,2.22166,0,0,1-.19538-.9931,4.24315,4.24315,0,0,1,.06138-.70445,1.20648,1.20648,0,0,1,.28366-.6312A2.98513,2.98513,0,0,1,359.446,86.656a3.441,3.441,0,0,1,1.30621-.23984,2.79426,2.79426,0,0,1,1.14214.23984,1.83161,1.83161,0,0,1,.87349.78271V86.656h.94684V89.1801h-.94684"/><path class="cls-4" d="M365.58313,94.50075V93.554h1.26241V84.62841h-1.26241v-.88792h2.47781v3.95243a2.883,2.883,0,0,1,2.43642-1.27678,3.026,3.026,0,0,1,1.05141.196,1.88565,1.88565,0,0,1,.88542.60175,1.84963,1.84963,0,0,1,.43581.91485,6.1828,6.1828,0,0,1,.07575,1.00755V93.554h1.29371v.9468H370.436V93.554h1.29188V89.52762q0-.28647-.01506-.58672a2.25084,2.25084,0,0,0-.07322-.58735,1.57556,1.57556,0,0,0-.25676-.526,1.08312,1.08312,0,0,0-.47965-.37382,1.86684,1.86684,0,0,0-.31561-.1052,1.6473,1.6473,0,0,0-.34688-.02943,2.59022,2.59022,0,0,0-.58486.05884,1.476,1.476,0,0,0-.526.21041,1.6967,1.6967,0,0,0-.5867.511,2.11689,2.11689,0,0,0-.31565.63119,3.02986,3.02986,0,0,0-.13457.707c-.02193.23919-.03195.479-.03195.72137V93.554h1.29368v.9468h-3.77149"/><path class="cls-4" d="M379.0435,94.50075h-3.69822V93.554h1.26238V87.5439h-1.248V86.656h2.46589v6.898h1.218v.9468m-1.12776-10.76026v1.26237h-1.39885V83.74049h1.39885"/><path class="cls-4" d="M382.72727,88.21891a5.83907,5.83907,0,0,1,.362-.82656,1.54346,1.54346,0,0,1,.46462-.51095,1.62931,1.62931,0,0,1,.63119-.26927,3.91357,3.91357,0,0,1,.91737-.09079h.31557V87.6491a2.0773,2.0773,0,0,0-.25671-.04634,2.2662,2.2662,0,0,0-.25489-.01441,2.087,2.087,0,0,0-1.09768.25672,1.85574,1.85574,0,0,0-.66065.675,2.77867,2.77867,0,0,0-.3306.9468,6.604,6.604,0,0,0-.0902,1.09769V93.554h1.48722v.9468h-3.95306V93.554h1.248V87.5439h-1.248V86.656h2.46584v1.56293"/><path class="cls-4" d="M393.9547,90.81944h-5.78776a5.85532,5.85532,0,0,0,.16652,1.11271,2.38009,2.38009,0,0,0,.526.99061,1.90229,1.90229,0,0,0,.81215.63119,3.55979,3.55979,0,0,0,1.05132.13715,1.99014,1.99014,0,0,0,.69-.12272,2.50922,2.50922,0,0,0,.60179-.34441,2.035,2.035,0,0,0,.45018-.526,1.66753,1.66753,0,0,0,.22733-.64623h1.15719a3.042,3.042,0,0,1-.40642,1.11336,3.00166,3.00166,0,0,1-.73636.80965,3.2316,3.2316,0,0,1-1.00753.48152,4.52156,4.52156,0,0,1-1.186.14964,4.12733,4.12733,0,0,1-1.65373-.30118,2.89734,2.89734,0,0,1-1.11275-.84158,3.53657,3.53657,0,0,1-.64621-1.27676,6.35028,6.35028,0,0,1-.19537-1.62182,6.13241,6.13241,0,0,1,.13464-1.26176,4.13093,4.13093,0,0,1,.4521-1.2035A3.07928,3.07928,0,0,1,388.7687,86.852a3.7382,3.7382,0,0,1,2.901-.25486,2.6858,2.6858,0,0,1,1.0057.51158,2.84368,2.84368,0,0,1,.72134.88541,3.66335,3.66335,0,0,1,.39136,1.052,6.37505,6.37505,0,0,1,.11955.78274,5.71136,5.71136,0,0,1,.047.78021v.21041m-1.29432-.903a3.2739,3.2739,0,0,0-.13461-.92926,2.52175,2.52175,0,0,0-.40581-.82654,2.03679,2.03679,0,0,0-.675-.60176,1.73729,1.73729,0,0,0-.9317-.23982,1.99838,1.99838,0,0,0-.96434.2248,2.22128,2.22128,0,0,0-.68939.59924,2.86457,2.86457,0,0,0-.45026.82717,3.83049,3.83049,0,0,0-.181.94617h4.4321"/><polyline class="cls-4" points="171.5 104.04 180.156 104.04 180.156 106.024 177.12 106.024 177.12 123.576 180.156 123.576 180.156 125.56 171.5 125.56 171.5 123.576 174.506 123.576 174.506 106.024 171.5 106.024 171.5 104.04"/><path class="cls-4" d="M186.64741,112.69625a4.91984,4.91984,0,0,1,1.7126-2.4947,5.96845,5.96845,0,0,1,6.01193,0,4.55741,4.55741,0,0,1,1.77336,2.4947,5.73134,5.73134,0,0,1,.09079,1.02007c.0194.32308.02941.65308.02941.9931v8.95749h2.46528v1.89294h-7.36512v-1.89294h2.4659V115.551a9.81,9.81,0,0,0-.12021-1.56293,4.11312,4.11312,0,0,0-.45213-1.382,2.516,2.516,0,0,0-.93174-.96182,3.05189,3.05189,0,0,0-1.59238-.36192,5.89259,5.89259,0,0,0-1.14276.09079,2.47365,2.47365,0,0,0-.99062.4502,3.60371,3.60371,0,0,0-.81215.69194,5.51976,5.51976,0,0,0-.511.84158,5.23645,5.23645,0,0,0-.56984,1.98375c-.04193.68254-.06135,1.36257-.06135,2.04447v6.28182h2.46587v1.89294h-7.51415v-1.89294h2.61494V111.64428h-2.55669v-1.77334h4.99v2.82531"/><path class="cls-4" d="M204.57178,109.87094h4.50787v1.77334h-4.50787V121.8028a5.19642,5.19642,0,0,0,.05887.78022,2.15036,2.15036,0,0,0,.24233.69254,1.64641,1.64641,0,0,0,.479.511,1.51177,1.51177,0,0,0,.78272.18095,1.2194,1.2194,0,0,0,.90044-.33,1.94,1.94,0,0,0,.45211-.87351,4.56592,4.56592,0,0,0,.1791-1.05137c.02191-.36.03132-.68.03132-.9618h1.95239v.57046c0,.181-.01.37131-.02941.57233a6.01813,6.01813,0,0,1-.5116,2.13277,2.88489,2.88489,0,0,1-1.56292,1.47213c-.27866.06136-.55043.12272-.81215.1816a3.54681,3.54681,0,0,1-.80967.09016,4.08863,4.08863,0,0,1-.75328-.06136c-.1979-.03881-.4402-.07827-.71888-.11959a2.33111,2.33111,0,0,1-1.26485-.69006,3.83435,3.83435,0,0,1-.78024-1.23233,3.18214,3.18214,0,0,1-.149-.60176c-.04133-.25922-.07074-.521-.09079-.7802-.01939-.28179-.03132-.54353-.03132-.78273v-9.85794h-2.70569v-1.77334h2.70569v-3.067l2.43585-.89982v3.96684"/><path class="cls-4" d="M225.94515,118.19474H214.37337a11.72705,11.72705,0,0,0,.33251,2.22606,4.75043,4.75043,0,0,0,1.05134,1.98375,3.838,3.838,0,0,0,1.6218,1.26236,7.143,7.143,0,0,0,2.104.26866,4.01443,4.01443,0,0,0,1.38448-.23921,5.07441,5.07441,0,0,0,1.201-.69257,4.08079,4.08079,0,0,0,.90235-1.052,3.33818,3.33818,0,0,0,.45022-1.29119h2.31372a5.93775,5.93775,0,0,1-2.28429,3.84726,6.45607,6.45607,0,0,1-2.01317.96182,9.07329,9.07329,0,0,1-2.37511.30055,8.2362,8.2362,0,0,1-3.305-.60176,5.86454,5.86454,0,0,1-2.22543-1.68253A7.20047,7.20047,0,0,1,212.24,120.9324a12.603,12.603,0,0,1-.39134-3.24611,11.98077,11.98077,0,0,1,.27173-2.52663,8.239,8.239,0,0,1,.89983-2.40453,6.143,6.143,0,0,1,2.55608-2.4947,7.49252,7.49252,0,0,1,5.79965-.51158,5.53653,5.53653,0,0,1,2.01567,1.02253,5.78164,5.78164,0,0,1,1.44334,1.77334,7.35186,7.35186,0,0,1,.78024,2.10334,13.707,13.707,0,0,1,.23982,1.56294,12.10956,12.10956,0,0,1,.09016,1.56358v.42016m-2.58547-1.80214a6.633,6.633,0,0,0-.26925-1.86415,5.09722,5.09722,0,0,0-.81154-1.65373,4.12049,4.12049,0,0,0-1.35317-1.201,3.49171,3.49171,0,0,0-1.86353-.48154,4.00172,4.00172,0,0,0-1.92236.45211,4.40255,4.40255,0,0,0-1.38261,1.201,5.72889,5.72889,0,0,0-.90231,1.65373,7.65262,7.65262,0,0,0-.35943,1.89358h8.8642"/><path class="cls-4" d="M232.90891,112.99744a11.87448,11.87448,0,0,1,.72137-1.65374,3.08751,3.08751,0,0,1,.92984-1.02252,3.25627,3.25627,0,0,1,1.26429-.5404,7.98832,7.98832,0,0,1,1.83219-.181h.63117v2.25488a3.53448,3.53448,0,0,0-.511-.09016,4.79073,4.79073,0,0,0-.51158-.03195,4.19933,4.19933,0,0,0-2.19413.5116,3.73887,3.73887,0,0,0-1.32062,1.35255,5.51385,5.51385,0,0,0-.66313,1.89293,13.39816,13.39816,0,0,0-.17845,2.19665v5.98062h2.97434v1.89294h-7.9055v-1.89294h2.4947V111.64428h-2.4947v-1.77334h4.93116v3.1265"/><path class="cls-4" d="M250.63291,125.91928a10.97859,10.97859,0,0,1-4.35883-.80963,9.28687,9.28687,0,0,1-3.18727-2.28432,10.01536,10.01536,0,0,1-1.98372-3.42706,13.52724,13.52724,0,0,1-.66063-4.29749,17.82277,17.82277,0,0,1,.5116-4.3294,9.62267,9.62267,0,0,1,2.01314-3.84787,8.0421,8.0421,0,0,1,3.397-2.46275,11.67517,11.67517,0,0,1,4.17788-.75079,11.0038,11.0038,0,0,1,4.17785.78022,8.37634,8.37634,0,0,1,3.36573,2.556,8.84758,8.84758,0,0,1,1.86413,3.72515,19.06307,19.06307,0,0,1,.44961,4.17786,17.46811,17.46811,0,0,1-.11961,2.1647,12.03382,12.03382,0,0,1-.48155,2.07392,17.00369,17.00369,0,0,1-.78082,1.89357,8.62851,8.62851,0,0,1-1.022,1.712,7.85675,7.85675,0,0,1-3.30745,2.407,11.63526,11.63526,0,0,1-4.05515.71884m-.181-20.25753a6.29445,6.29445,0,0,0-5.53042,2.88607,8.82111,8.82111,0,0,0-1.233,2.91549,15.23552,15.23552,0,0,0-.35941,3.30749q0,.78147.05885,1.6218a12.01628,12.01628,0,0,0,.2392,1.68255,11.11857,11.11857,0,0,0,.48217,1.62431,5.59829,5.59829,0,0,0,.7827,1.4114,6.66547,6.66547,0,0,0,5.70888,2.85662,6.23355,6.23355,0,0,0,5.501-3.03508,8.52872,8.52872,0,0,0,1.14215-2.94806,15.44544,15.44544,0,0,0-.02883-6.4916,8.83827,8.83827,0,0,0-1.2035-2.94492,6.31175,6.31175,0,0,0-2.22356-2.0739,6.38831,6.38831,0,0,0-3.33628-.81217"/><path class="cls-4" d="M267.65435,112.9361a6.66945,6.66945,0,0,1,2.13337-2.67567,5.71732,5.71732,0,0,1,3.30687-.871,6.38729,6.38729,0,0,1,1.712.21039,3.90534,3.90534,0,0,1,1.41391.63121,4.79329,4.79329,0,0,1,1.201,1.1127,10.3351,10.3351,0,0,1,1.11271,1.5924,5.88523,5.88523,0,0,1,.69255,2.19413,19.354,19.354,0,0,1,.149,2.4045,15.173,15.173,0,0,1-.30055,2.91552,6.07439,6.07439,0,0,1-1.14279,2.67565,7.652,7.652,0,0,1-2.10332,1.95243,5.22851,5.22851,0,0,1-2.764.69192,6.7845,6.7845,0,0,1-3.18723-.72136,5.22451,5.22451,0,0,1-2.22356-2.40451V128.625h2.52475v1.80465h-7.48473V128.625h2.52412V111.64428h-2.46337v-1.77334h4.89923v3.06516m4.77961-1.712a4.17881,4.17881,0,0,0-3.84724,2.22293,5.52086,5.52086,0,0,0-.78272,1.98373,14.04233,14.04233,0,0,0-.14965,2.10395,14.62375,14.62375,0,0,0,.17908,2.28431,6.00379,6.00379,0,0,0,.81154,2.07455,4.7996,4.7996,0,0,0,1.50468,1.53349,4.063,4.063,0,0,0,2.07391.5404,3.98324,3.98324,0,0,0,2.13338-.5404,4.54228,4.54228,0,0,0,1.44275-1.44333A6.24186,6.24186,0,0,0,276.61184,120a9.34708,9.34708,0,0,0,.26926-2.19415,13.37812,13.37812,0,0,0-.2104-2.34567,6.90588,6.90588,0,0,0-.81217-2.22354,3.75485,3.75485,0,0,0-1.44082-1.47216,3.87981,3.87981,0,0,0-1.98375-.54039"/><path class="cls-4" d="M296.09667,118.19474h-11.5718a11.72624,11.72624,0,0,0,.3325,2.22606,4.75151,4.75151,0,0,0,1.052,1.98375,3.83048,3.83048,0,0,0,1.62178,1.26236,7.13592,7.13592,0,0,0,2.10334.26866,4.01426,4.01426,0,0,0,1.38448-.23921,5.06259,5.06259,0,0,0,1.201-.69257,4.06835,4.06835,0,0,0,.90232-1.052,3.338,3.338,0,0,0,.45022-1.29119h2.31373a5.93777,5.93777,0,0,1-2.28431,3.84726,6.45559,6.45559,0,0,1-2.01314.96182,9.07348,9.07348,0,0,1-2.37512.30055,8.23068,8.23068,0,0,1-3.30433-.60176,5.86173,5.86173,0,0,1-2.22606-1.68253,7.18826,7.18826,0,0,1-1.29119-2.55356,12.60167,12.60167,0,0,1-.39137-3.24611,11.97793,11.97793,0,0,1,.27113-2.52663,8.22372,8.22372,0,0,1,.90044-2.40453,6.13959,6.13959,0,0,1,2.55606-2.4947,7.49108,7.49108,0,0,1,5.79906-.51158,5.532,5.532,0,0,1,2.01569,1.02253,5.78244,5.78244,0,0,1,1.44332,1.77334,7.35244,7.35244,0,0,1,.78023,2.10334,13.70724,13.70724,0,0,1,.23983,1.56294,12.10932,12.10932,0,0,1,.09018,1.56358v.42016m-2.5855-1.80214a6.63026,6.63026,0,0,0-.26866-1.86415,5.09736,5.09736,0,0,0-.81213-1.65373,4.1181,4.1181,0,0,0-1.35255-1.201,3.49389,3.49389,0,0,0-1.86415-.48154,4.0019,4.0019,0,0,0-1.92237.45211,4.40014,4.40014,0,0,0-1.382,1.201,5.71591,5.71591,0,0,0-.903,1.65373,7.6807,7.6807,0,0,0-.35941,1.89358h8.86419"/><path class="cls-4" d="M303.06041,112.99744a11.79513,11.79513,0,0,1,.722-1.65374,3.07965,3.07965,0,0,1,.92924-1.02252,3.255,3.255,0,0,1,1.26489-.5404,7.98286,7.98286,0,0,1,1.83157-.181h.63121v2.25488a3.535,3.535,0,0,0-.511-.09016,4.78187,4.78187,0,0,0-.5116-.03195,4.19531,4.19531,0,0,0-2.1935.5116,3.73568,3.73568,0,0,0-1.32123,1.35255,5.50028,5.50028,0,0,0-.66253,1.89293,13.33381,13.33381,0,0,0-.17905,2.19665v5.98062h2.97435v1.89294h-7.90551v-1.89294h2.49529V111.64428h-2.49529v-1.77334h4.93116v3.1265"/><path class="cls-4" d="M320.39305,122.46339a5.55188,5.55188,0,0,1-2.01571,2.55607,5.80465,5.80465,0,0,1-3.12335.75079,7.2355,7.2355,0,0,1-1.62432-.181,5.05589,5.05589,0,0,1-1.44273-.56984,4.67006,4.67006,0,0,1-1.11332-1.052,3.9756,3.9756,0,0,1-.68945-1.50409,3.82682,3.82682,0,0,1-.15152-.93174v-.541a4.68373,4.68373,0,0,1,.48152-2.22356,4.39371,4.39371,0,0,1,1.3231-1.50407,5.649,5.649,0,0,1,1.923-.8704,9.197,9.197,0,0,1,2.25486-.26927h.8416c.30057-.0219.58926-.03193.871-.03193h2.4653v-1.44334a6.17509,6.17509,0,0,0-.24235-1.41139,3.082,3.082,0,0,0-.80963-1.20292,2.64844,2.64844,0,0,0-1.08328-.63117,3.90011,3.90011,0,0,0-1.23046-.21041,6.18726,6.18726,0,0,0-1.7145.21041,2.997,2.997,0,0,0-1.41139,1.05135,2.1275,2.1275,0,0,0-.45272.90294c-.05884.3206-.1102.64061-.149.9612h-2.52413a5.27989,5.27989,0,0,1,.93174-2.88356,4.78171,4.78171,0,0,1,2.46339-1.71511,4.46518,4.46518,0,0,1,1.32312-.26864c.4402-.04195.89042-.06136,1.35255-.06136a8.0886,8.0886,0,0,1,2.28432.30057,5.58335,5.58335,0,0,1,2.01315,1.052,3.31683,3.31683,0,0,1,1.23294,1.77334,8.05264,8.05264,0,0,1,.26927,2.13277v9.01885h2.49469v1.89294h-4.74767v-3.09646m-7.5755-1.41138a3.24043,3.24043,0,0,0,.69253,2.13277,2.53537,2.53537,0,0,0,2.04257.81213,4.52958,4.52958,0,0,0,2.2549-.51095,3.975,3.975,0,0,0,1.47275-1.35318,5.51261,5.51261,0,0,0,.81217-1.92237,10.63372,10.63372,0,0,0,.30058-2.25488,7.88552,7.88552,0,0,0-1.20352-.09079q-.63119-.0291-1.201-.02941c-.60176,0-1.2129.01939-1.83409.06136a4.85161,4.85161,0,0,0-1.65369.38884,2.8055,2.8055,0,0,0-1.201.96118,2.93628,2.93628,0,0,0-.48213,1.8053"/><path class="cls-4" d="M331.17274,112.6061a5.35782,5.35782,0,0,1,.89979-1.29431,5.911,5.911,0,0,1,1.20351-1.02006,5.22635,5.22635,0,0,1,1.44338-.66251,5.33051,5.33051,0,0,1,1.56292-.23982,6.21113,6.21113,0,0,1,2.97432.66063,5.95727,5.95727,0,0,1,2.07456,1.77332,7.26527,7.26527,0,0,1,1.1716,2.58551,11.3926,11.3926,0,0,1,.39137,3.00566q0,.63122-.02943,1.26239a9.61292,9.61292,0,0,1-.15154,1.29117,10.39586,10.39586,0,0,1-.36006,1.35318,11.75915,11.75915,0,0,1-.66,1.50407,5.02431,5.02431,0,0,1-2.25549,2.16221,7.37435,7.37435,0,0,1-3.39766.78271,5.8355,5.8355,0,0,1-2.88354-.75079,4.72168,4.72168,0,0,1-1.95429-2.19413l-.02943-.36194v3.09646h-4.92868v-1.89294h2.49218v-17.8536h-2.46275V104.04h4.89925v8.56615M335.71,123.84789a4.16881,4.16881,0,0,0,2.13525-.5116,4.78079,4.78079,0,0,0,1.44338-1.38448,5.52357,5.52357,0,0,0,.80963-1.89294,8.86379,8.86379,0,0,0,.27108-2.16218,12.95789,12.95789,0,0,0-.21035-2.28494,6.74544,6.74544,0,0,0-.75081-2.13528,4.26321,4.26321,0,0,0-1.41388-1.56292,4.04366,4.04366,0,0,0-3.90612-.23984,5.0233,5.0233,0,0,0-1.38449.99063,4.40273,4.40273,0,0,0-.92921,1.26488,13.402,13.402,0,0,0-.48221,1.47213,4.64681,4.64681,0,0,0-.18093,1.08141c-.01942.35943-.02943.712-.02943,1.052a13.68315,13.68315,0,0,0,.18093,2.28431,6.41747,6.41747,0,0,0,.78089,2.104,3.568,3.568,0,0,0,1.53346,1.50406,5.29568,5.29568,0,0,0,2.13281.42081"/><path class="cls-4" d="M352.40145,125.55985h-7.39391v-1.89294h2.52413V111.64428h-2.49283v-1.77334h4.92929v13.796h2.43332v1.89294M350.14906,104.04v2.52415h-2.79587V104.04h2.79587"/><polyline class="cls-4" points="353.542 125.56 353.542 123.667 356.034 123.667 356.034 105.813 353.542 105.813 353.542 104.04 358.47 104.04 358.47 123.667 360.874 123.667 360.874 125.56 353.542 125.56"/><path class="cls-4" d="M369.66083,125.55985H362.2663v-1.89294h2.52406V111.64428h-2.49218v-1.77334h4.92867v13.796h2.434v1.89294m-2.253-21.5199v2.52415H364.612V104.04h2.79587"/><path class="cls-4" d="M375.51872,109.87094h4.50789v1.77334h-4.50789V121.8028a5.19121,5.19121,0,0,0,.0589.78022,2.14984,2.14984,0,0,0,.24231.69254,1.6462,1.6462,0,0,0,.479.511,1.512,1.512,0,0,0,.78273.18095,1.21932,1.21932,0,0,0,.90044-.33,1.93988,1.93988,0,0,0,.45213-.87351,4.56591,4.56591,0,0,0,.17909-1.05137c.02194-.36.03126-.68.03126-.9618h1.9525v.57046c0,.181-.01.37131-.02943.57233a6.018,6.018,0,0,1-.51164,2.13277,2.88484,2.88484,0,0,1-1.56293,1.47213c-.27861.06136-.55043.12272-.81215.1816a3.54691,3.54691,0,0,1-.80963.09016,4.08851,4.08851,0,0,1-.75329-.06136c-.1979-.03881-.44021-.07827-.7189-.11959a2.33121,2.33121,0,0,1-1.2649-.69006,3.8356,3.8356,0,0,1-.7802-1.23233,3.17869,3.17869,0,0,1-.149-.60176c-.04135-.25922-.07078-.521-.0908-.7802-.01942-.28179-.03131-.54353-.03131-.78273v-9.85794h-2.70578v-1.77334h2.70578v-3.067l2.43581-.89982v3.96684"/><path class="cls-4" d="M388.47816,109.87094v1.77334H386.0417l3.84723,11.0001,3.72826-11.0001h-2.46592v-1.77334h6.43339v1.77334h-1.38261l-5.17033,14.06461q-.2386.60206-.48217,1.14276c-.13965.38137-.29811.77272-.479,1.17409a7.98254,7.98254,0,0,1-.66061,1.1716,2.91483,2.91483,0,0,1-.96369.93174,3.6186,3.6186,0,0,1-1.17157.47965,4.50036,4.50036,0,0,1-1.23294.181,5.09246,5.09246,0,0,1-.96121-.09079c-.30124-.03883-.61177-.0808-.93239-.11963v-1.98371a7.47455,7.47455,0,0,0,1.80279.21037,1.6001,1.6001,0,0,0,1.02251-.33061,2.55069,2.55069,0,0,0,.722-.81152,4.53647,4.53647,0,0,0,.48152-1.052c.13966-.382.25924-.722.35938-1.02255l-5.25863-13.945h-1.50406v-1.77334h6.70452"/><polyline class="cls-4" points="171.514 156.118 171.514 154.134 174.611 154.134 174.611 136.582 171.514 136.582 171.514 134.598 180.833 134.598 180.833 136.582 177.225 136.582 177.225 153.953 185.4 153.953 185.4 149.084 187.837 149.084 187.837 156.118 171.514 156.118"/><path class="cls-4" d="M200.52854,153.02158a5.56155,5.56155,0,0,1-2.01315,2.55607,5.843,5.843,0,0,1-3.12589.75079,7.2507,7.2507,0,0,1-1.62432-.181,5.059,5.059,0,0,1-1.44021-.5698,4.59838,4.59838,0,0,1-1.11333-1.05448,4.01028,4.01028,0,0,1-.69194-1.50159,3.83876,3.83876,0,0,1-.149-.93239v-.54039a4.67712,4.67712,0,0,1,.479-2.22356,4.41377,4.41377,0,0,1,1.32312-1.50407,5.6374,5.6374,0,0,1,1.92551-.871,9.20834,9.20834,0,0,1,2.25238-.27114h.84158c.30119-.02.59175-.02941.8735-.02941h2.46277v-1.44334a6.15894,6.15894,0,0,0-.23983-1.41143,3.09756,3.09756,0,0,0-.81213-1.20351,2.606,2.606,0,0,0-1.08079-.63056,3.90343,3.90343,0,0,0-1.233-.21039,6.16906,6.16906,0,0,0-1.712.21039,2.98518,2.98518,0,0,0-1.41391,1.05137,2.12322,2.12322,0,0,0-.45023.90294c-.06073.32-.11019.64057-.15152.96117H190.911a5.3386,5.3386,0,0,1,.93178-2.88668,4.77377,4.77377,0,0,1,2.46587-1.712,4.47525,4.47525,0,0,1,1.32064-.27176c.4402-.03883.89293-.05822,1.35255-.05822a8.08277,8.08277,0,0,1,2.2849.30055,5.5269,5.5269,0,0,1,2.01255,1.052,3.30344,3.30344,0,0,1,1.233,1.77334,8.04871,8.04871,0,0,1,.27174,2.13277v9.01822h2.49472V156.118h-4.75021v-3.09645m-7.573-1.41142a3.25359,3.25359,0,0,0,.69,2.13277,2.54067,2.54067,0,0,0,2.0451.81215,4.51953,4.51953,0,0,0,2.25237-.51158,4.017,4.017,0,0,0,1.47527-1.35255,5.52721,5.52721,0,0,0,.80965-1.92486,10.61412,10.61412,0,0,0,.30056-2.253,7.59844,7.59844,0,0,0-1.201-.09016q-.63121-.02913-1.20354-.02945c-.60176,0-1.21041.01943-1.83157.05888a4.91229,4.91229,0,0,0-1.65373.39134,2.7973,2.7973,0,0,0-1.20351.96121,2.93132,2.93132,0,0,0-.47965,1.80525"/><path class="cls-4" d="M211.30823,143.16364a5.29574,5.29574,0,0,1,.90233-1.2937,5.80509,5.80509,0,0,1,1.201-1.02252,5.25065,5.25065,0,0,1,1.44334-.66,5.33019,5.33019,0,0,1,1.563-.23982,6.22889,6.22889,0,0,1,2.97683.66,5.96633,5.96633,0,0,1,2.07455,1.77332,7.31925,7.31925,0,0,1,1.17156,2.58551,11.49975,11.49975,0,0,1,.38886,3.00629q0,.63116-.02941,1.26237a9.60072,9.60072,0,0,1-.149,1.29119,10.37882,10.37882,0,0,1-.36254,1.35255,11.206,11.206,0,0,1-.66,1.5047,5.0401,5.0401,0,0,1-2.25548,2.16218,7.35659,7.35659,0,0,1-3.39514.78274,5.87364,5.87364,0,0,1-2.88606-.75079,4.73535,4.73535,0,0,1-1.95431-2.19413l-.02943-.36194V156.118h-4.92866v-1.89356h2.49469v-17.853H206.409v-1.77334h4.89925v8.5655m4.53978,11.23992a4.12692,4.12692,0,0,0,2.13279-.5116,4.70782,4.70782,0,0,0,1.44334-1.382,5.52826,5.52826,0,0,0,.81213-1.89293,8.9916,8.9916,0,0,0,.26927-2.1647,12.82067,12.82067,0,0,0-.21039-2.28494,6.687,6.687,0,0,0-.75142-2.13277,4.25742,4.25742,0,0,0-1.41139-1.563,4.04836,4.04836,0,0,0-3.90861-.23982,4.99916,4.99916,0,0,0-1.382.99061,4.4237,4.4237,0,0,0-.93174,1.26238,14.31366,14.31366,0,0,0-.48217,1.47217,4.721,4.721,0,0,0-.17847,1.08389c-.02191.35943-.03191.712-.03191,1.052a13.88129,13.88129,0,0,0,.18156,2.28432,6.42179,6.42179,0,0,0,.78272,2.10335,3.5454,3.5454,0,0,0,1.531,1.50219,5.25775,5.25775,0,0,0,2.13527.42079"/><path class="cls-4" d="M227.81868,148.09291a15.51661,15.51661,0,0,0,.181,2.28432,4.7265,4.7265,0,0,0,.90294,2.10335,5.21724,5.21724,0,0,0,1.56293,1.47274,4.063,4.063,0,0,0,2.07391.5404,3.94867,3.94867,0,0,0,2.19415-.68941,4.49635,4.49635,0,0,0,1.56293-1.68567,6.3015,6.3015,0,0,0,.69-1.98375,12.989,12.989,0,0,0,.181-2.13277,11.52116,11.52116,0,0,0-.21039-2.19411,5.7726,5.7726,0,0,0-.75079-1.98376,4.16365,4.16365,0,0,0-1.44334-1.44334,4.00354,4.00354,0,0,0-2.22358-.56982,4.1817,4.1817,0,0,0-2.25486.59925,4.94353,4.94353,0,0,0-1.59237,1.62431,5.65535,5.65535,0,0,0-.69255,1.98375,13.08734,13.08734,0,0,0-.181,2.07451m-2.583-.02941a11.18808,11.18808,0,0,1,.42081-3.09708,6.75335,6.75335,0,0,1,1.531-2.73454,6.32708,6.32708,0,0,1,2.46588-1.71449,8.19542,8.19542,0,0,1,3.03572-.5698,7.17608,7.17608,0,0,1,3.18474.66,6.15841,6.15841,0,0,1,2.22543,1.80275,7.46671,7.46671,0,0,1,1.29182,2.61492,11.64079,11.64079,0,0,1,.42078,3.15784,10.63464,10.63464,0,0,1-.4502,3.12587,7.30392,7.30392,0,0,1-1.382,2.583,6.53653,6.53653,0,0,1-2.25547,1.77334,7.083,7.083,0,0,1-3.15532.66314,8.42629,8.42629,0,0,1-3.18725-.57235,5.91446,5.91446,0,0,1-2.43336-2.07452,9.50824,9.50824,0,0,1-1.32372-2.67317,10.833,10.833,0,0,1-.38888-2.9449"/><path class="cls-4" d="M246.71427,143.55313a12.27692,12.27692,0,0,1,.72136-1.65125,3.03118,3.03118,0,0,1,.93237-1.02255,3.23,3.23,0,0,1,1.26176-.5404,7.85583,7.85583,0,0,1,1.83472-.18095h.63119v2.25236a4.085,4.085,0,0,0-.51158-.08765,4.25934,4.25934,0,0,0-.511-.03194,4.18713,4.18713,0,0,0-2.19415.511,3.71159,3.71159,0,0,0-1.32312,1.35255,5.41909,5.41909,0,0,0-.6606,1.89358,13.39,13.39,0,0,0-.181,2.19411v5.98253h2.97685V156.118h-7.90549v-1.89356h2.49468V142.2h-2.49468v-1.77335h4.92864v3.12652"/><path class="cls-4" d="M264.04692,153.02158a5.56528,5.56528,0,0,1-2.01318,2.55607,5.843,5.843,0,0,1-3.12587.75079,7.24681,7.24681,0,0,1-1.62431-.181,5.0631,5.0631,0,0,1-1.44085-.5698,4.58565,4.58565,0,0,1-1.11273-1.05448,4.01153,4.01153,0,0,1-.69252-1.50159,3.84,3.84,0,0,1-.14906-.93239v-.54039a4.677,4.677,0,0,1,.47967-2.22356,4.41346,4.41346,0,0,1,1.32312-1.50407,5.63406,5.63406,0,0,1,1.92488-.871,9.21681,9.21681,0,0,1,2.253-.27114h.84158q.45089-.03.87292-.02941h2.46338v-1.44334a6.22843,6.22843,0,0,0-.23982-1.41143,3.10478,3.10478,0,0,0-.81215-1.20351,2.60466,2.60466,0,0,0-1.08141-.63056,3.89979,3.89979,0,0,0-1.23233-.21039,6.17692,6.17692,0,0,0-1.71259.21039,2.99077,2.99077,0,0,0-1.41391,1.05137,2.12874,2.12874,0,0,0-.44961.90294c-.06138.32-.1102.64057-.15156.96117H254.4288a5.33893,5.33893,0,0,1,.93237-2.88668,4.77216,4.77216,0,0,1,2.46529-1.712,4.47519,4.47519,0,0,1,1.3206-.27176c.44082-.03883.89295-.05822,1.35318-.05822a8.08141,8.08141,0,0,1,2.28429.30055,5.52956,5.52956,0,0,1,2.01319,1.052,3.30658,3.30658,0,0,1,1.23292,1.77334,8.04737,8.04737,0,0,1,.27114,2.13277v9.01822h2.49532V156.118h-4.75018v-3.09645m-7.573-1.41142a3.25038,3.25038,0,0,0,.69,2.13277,2.54018,2.54018,0,0,0,2.04448.81215,4.52024,4.52024,0,0,0,2.253-.51158,4.01477,4.01477,0,0,0,1.47468-1.35255,5.51591,5.51591,0,0,0,.80963-1.92486,10.65366,10.65366,0,0,0,.3012-2.253,7.60406,7.60406,0,0,0-1.201-.09016q-.63115-.02913-1.20351-.02945c-.60174,0-1.211.01943-1.83218.05888a4.91217,4.91217,0,0,0-1.65373.39134,2.79562,2.79562,0,0,0-1.20293.96121,2.93132,2.93132,0,0,0-.47963,1.80525"/><path class="cls-4" d="M274.61618,140.42661h4.50787V142.2h-4.50787v10.161a4.962,4.962,0,0,0,.06077.78022,2.16571,2.16571,0,0,0,.23983.69194,1.6723,1.6723,0,0,0,.48215.5116,1.50581,1.50581,0,0,0,.78022.17846,1.22013,1.22013,0,0,0,.90233-.33,1.91579,1.91579,0,0,0,.4502-.871,4.59027,4.59027,0,0,0,.181-1.052q.0291-.5429.02941-.96119h1.95431v.56985q0,.27142-.02941.57231a6.07176,6.07176,0,0,1-.511,2.1334,2.89927,2.89927,0,0,1-1.56355,1.47214c-.28116.06136-.55231.12023-.81156.181a3.68231,3.68231,0,0,1-.81216.09079,4.0348,4.0348,0,0,1-.75079-.06138c-.201-.03881-.44082-.08077-.722-.11961a2.30532,2.30532,0,0,1-1.26176-.69254,3.80024,3.80024,0,0,1-.78274-1.23044,3.37283,3.37283,0,0,1-.14965-.60113c-.03883-.26174-.07074-.521-.09017-.78274-.0194-.27927-.02943-.541-.02943-.78083V142.2h-2.70508v-1.77335h2.70508v-3.06453l2.43395-.903v3.96748"/><path class="cls-4" d="M284.05774,148.09291a15.43605,15.43605,0,0,0,.18094,2.28432,4.72571,4.72571,0,0,0,.90235,2.10335,5.2172,5.2172,0,0,0,1.563,1.47274,4.06352,4.06352,0,0,0,2.0745.5404,3.94858,3.94858,0,0,0,2.19415-.68941,4.49651,4.49651,0,0,0,1.56293-1.68567,6.28616,6.28616,0,0,0,.68943-1.98375,12.92362,12.92362,0,0,0,.181-2.13277,11.51794,11.51794,0,0,0-.21042-2.19411,5.75945,5.75945,0,0,0-.75077-1.98376,4.162,4.162,0,0,0-1.44273-1.44334,4.005,4.005,0,0,0-2.22358-.56982,4.18539,4.18539,0,0,0-2.25549.59925,4.94387,4.94387,0,0,0-1.59235,1.62431,5.643,5.643,0,0,0-.692,1.98375,13.0179,13.0179,0,0,0-.18094,2.07451m-2.583-.02941a11.1656,11.1656,0,0,1,.42077-3.09708,6.74636,6.74636,0,0,1,1.531-2.73454,6.32068,6.32068,0,0,1,2.46526-1.71449,8.20033,8.20033,0,0,1,3.03573-.5698,7.19487,7.19487,0,0,1,3.18725.66,6.17325,6.17325,0,0,1,2.22356,1.80275,7.46634,7.46634,0,0,1,1.29119,2.61492,11.642,11.642,0,0,1,.42079,3.15784,10.61383,10.61383,0,0,1-.45022,3.12587,7.29449,7.29449,0,0,1-1.382,2.583,6.53974,6.53974,0,0,1-2.2549,1.77334,7.08465,7.08465,0,0,1-3.15532.66314,8.424,8.424,0,0,1-3.18723-.57235,5.91208,5.91208,0,0,1-2.43395-2.07452,9.4903,9.4903,0,0,1-1.32313-2.67317,10.83264,10.83264,0,0,1-.38885-2.9449"/><path class="cls-4" d="M302.95271,143.55313a12.19191,12.19191,0,0,1,.72195-1.65125,3.03569,3.03569,0,0,1,.93178-1.02255,3.22859,3.22859,0,0,1,1.26237-.5404,7.8501,7.8501,0,0,1,1.83409-.18095h.63119v2.25236a4.07473,4.07473,0,0,0-.511-.08765,4.268,4.268,0,0,0-.51156-.03194,4.18335,4.18335,0,0,0-2.19354.511,3.71337,3.71337,0,0,0-1.32371,1.35255,5.43015,5.43015,0,0,0-.66,1.89358,13.32573,13.32573,0,0,0-.18157,2.19411v5.98253h2.97683V156.118H298.024v-1.89356h2.49531V142.2H298.024v-1.77335h4.92868v3.12652"/><path class="cls-4" d="M316.45751,140.42661V142.2h-2.434l3.84785,11.00257L321.59656,142.2h-2.4634v-1.77335H325.564V142.2h-1.382l-5.171,14.0671c-.15905.40138-.3206.78274-.47965,1.14216-.139.382-.30057.77334-.48156,1.17221a7.61228,7.61228,0,0,1-.66061,1.17408,2.87739,2.87739,0,0,1-.96117.93174,3.63226,3.63226,0,0,1-1.17409.479,4.45938,4.45938,0,0,1-1.23044.181,5.141,5.141,0,0,1-.96371-.09018c-.29807-.03944-.60923-.08078-.92923-.11959v-1.98373a7.46684,7.46684,0,0,0,1.80275.21037,1.60444,1.60444,0,0,0,1.02193-.33061,2.569,2.569,0,0,0,.722-.81215,4.67066,4.67066,0,0,0,.479-1.05135c.13964-.382.26174-.722.36253-1.02257L311.25707,142.2h-1.50156v-1.77335h6.702"/></svg>