<svg xmlns="http://www.w3.org/2000/svg" role="img" viewBox="-10.70 29.30 3806.40 1266.40"><g transform="matrix(1.33333 0 0 -1.33333 0 1322.84) scale(.1)"><path fill="#bd1f33" fill-opacity="1" fill-rule="nonzero" stroke="none" d="M6453.51 3067.29h1165.47L4050.66 9155.91 482.34 3067.29H5383.6L3515.13 6251.3l535.53 913.14 2402.85-4097.15"/><path fill="#231f20" fill-opacity="1" fill-rule="nonzero" stroke="none" d="M11096.8 7230.92h-788.3V5407.05c0-390.22-144.2-589.57-530.36-589.57-386.12 0-530.39 199.35-530.39 589.57v1823.87h-788.29V5453.71c0-877.81 402.62-1314.35 1318.68-1314.35 916.06 0 1318.66 436.54 1318.66 1314.35zm517.9-3027.94h741.7v1887.18h8.5l1052.2-1887.18h809.5v3027.94H13485V5364.97h-8.5l-1052.2 1865.95h-809.6zm3151.1 0h788.2v3027.94h-788.2zm2124.1 1327.61h632.2c237.6 0 424.3-89.14 424.3-356.56 0-250.45-173.9-339.59-424.3-339.59h-632.2zm-788.3-1327.61h1454.5c648.8 0 1178.6 220.38 1178.6 941.33 0 343.83-199.2 623.56-521.3 716.78 237.3 118.64 398.3 339.28 398.3 610.99 0 631.7-572.1 767.32-1093.8 758.84h-1416.3zm788.3 2417.69h611c165.5 0 322.5-72.17 322.5-292.94 0-216.51-186.7-288.69-322.5-288.69h-611zm2273.6-2417.69h2455v678.12h-1666.7v577.38h1484.3v610.25h-1484.3v530.73h1624.3v631.46h-2412.6zm2905.1 0h788.3v1102.8h598.2c369.2 0 420.1-313.87 441.3-619.26 8.5-84.83 21.2-381.74 89-483.54h779.9c-106 110.28-118.7 555.64-127.2 682.89-25.4 288.43-118.7 648.76-440.8 725.04v8.48c317.9 122.9 474.7 432.48 474.7 759.34 0 610.63-525.5 852.19-1059.9 852.19h-1543.5zm788.3 2396.48h627.9c220.7 0 398.9-101.88 398.9-326.85 0-229.23-127.3-356.57-364.9-356.57h-661.9zm5067.8-738.56H26653v-584.81h551.1c-42.4-276.02-305.2-458.61-695.4-458.61-509.2 0-704.4 450.12-704.4 899.34 0 449.69 195.2 899.61 704.4 899.61 318.1 0 572.4-157.05 597.9-415.97h788.5c-72.1 759.26-741.9 1094.08-1369.4 1094.08-916.4 0-1509.7-699.34-1509.7-1577.72 0-878.11 593.3-1577.46 1509.7-1577.46 279.9 0 636 101.72 843.7 394.15l46.6-330.53h508.7V5860.9"/><g fill="#5a5758" transform="scale(10) matrix(1 0 0 -1 40.752 104.747)"><path d="M105.34514-20.25213q.85093 0 1.44658.59565l3.40372 3.659q-3.74409 3.99937-8.16893 7.2329-4.42484 3.14844-9.7006 5.44595Q87.13523-1.1062 80.83835.0851q-6.21179 1.2764-13.69997 1.2764-12.50867 0-22.97511-4.33975-10.38135-4.42483-17.86953-12.42357-7.4031-8.08384-11.57265-19.4863-4.16956-11.40246-4.16956-25.35772 0-13.69997 4.25465-25.01734 4.33975-11.31737 12.0832-19.4012 7.82856-8.16893 18.63538-12.59377 10.8919-4.50993 23.99622-4.50993 6.55216 0 11.99812 1.02112 5.44595.93602 10.12606 2.80807 4.76521 1.78695 8.93477 4.50993 4.16956 2.72297 8.16893 6.29688l-2.63789 3.82919q-.68074 1.02111-2.12732 1.02111-.76584 0-1.95714-.85093-1.1913-.93602-3.06335-2.21242-1.78695-1.36148-4.42483-2.89316-2.5528-1.61677-6.1267-2.89316-3.5739-1.36149-8.25402-2.21242-4.68012-.93602-10.63663-.93602-10.977 0-20.16704 3.82918-9.19004 3.7441-15.8273 10.80681-6.63725 6.97763-10.38134 17.0186-3.659 9.95589-3.659 22.37946 0 12.76395 3.659 22.80493 3.659 10.04097 10.12606 17.0186Q39.73843-13.5298 48.50301-9.7857q8.84967 3.659 19.14593 3.659 6.46707 0 11.48755-.85093 5.10558-.85093 9.36023-2.55279t7.91365-4.16955q3.659-2.4677 7.23291-5.78633.42546-.34037.76583-.51056.42547-.25528.93603-.25528z"/><path d="M136.91308 0v-84.66754h4.25465q1.44658 0 2.04223.59565.68075.59566.76584 2.04224l.68074 17.86953q4.08447-10.29626 10.89191-16.08258 6.80744-5.87142 16.76332-5.87142 3.82918 0 7.06272.85093 3.23353.76584 6.12669 2.29751l-1.1062 5.61614q-.25528 1.36149-1.70186 1.36149-.51056 0-1.44659-.34037-.93602-.34037-2.3826-.76584-1.36149-.42546-3.40372-.76584-2.04223-.34037-4.68012-.34037-9.6155 0-15.82729 5.95651-6.1267 5.95651-9.95588 17.18879V0z"/><path d="M239.78834-86.02903q7.14781 0 13.18942 2.4677 6.12669 2.4677 10.55153 7.2329 4.50993 4.68012 6.97763 11.57265 2.55279 6.89254 2.55279 15.8273 0 1.87205-.59566 2.5528-.51055.68074-1.70186.68074h-61.18186v1.61676q0 9.53042 2.21241 16.76333 2.21242 7.2329 6.29689 12.1683 4.08446 4.8503 9.87078 7.318 5.78633 2.4677 12.93414 2.4677 6.38198 0 11.06209-1.3615 4.68012-1.44658 7.82856-3.14844 3.23353-1.78695 5.10558-3.14844 1.87204-1.44658 2.72297-1.44658 1.10621 0 1.70186.85093l2.21242 2.72298q-2.04223 2.55279-5.44595 4.7652-3.31863 2.21242-7.48819 3.82919-4.08446 1.53167-8.84967 2.4677-4.68011.93602-9.44532.93602-8.67949 0-15.8273-2.97826-7.14781-3.06334-12.25339-8.84967-5.10558-5.78632-7.91365-14.12544-2.72298-8.4242-2.72298-19.23102 0-9.10495 2.55279-16.76332 2.63789-7.74346 7.48819-13.2745 4.93539-5.61614 11.99811-8.76458 7.14781-3.14845 16.16767-3.14845zm.0851 6.0416q-6.55216 0-11.74283 2.04224-5.19067 2.04223-9.01986 5.87142-3.74409 3.82918-6.12669 9.19004-2.29752 5.36086-3.06335 11.99811h55.82101q0-6.80744-1.87205-12.1683-1.87205-5.44595-5.27577-9.19004-3.40372-3.7441-8.16892-5.70123-4.76521-2.04223-10.55154-2.04223z"/><path d="M352.27884 0q-2.55279 0-3.14844-2.3826l-1.1913-10.80682q-3.48882 3.40372-6.97763 6.1267-3.40372 2.72298-7.14781 4.59502-3.74409 1.87205-8.08384 2.80807-4.33974 1.02112-9.53041 1.02112-4.33975 0-8.42421-1.2764t-7.23291-3.91428q-3.14844-2.63788-5.10558-6.72234-1.87204-4.16956-1.87204-9.95588 0-5.36086 3.06335-9.95589 3.06334-4.59502 9.53041-7.99874 6.55216-3.40372 16.76332-5.44595 10.29626-2.04223 24.67697-2.3826v-8.84968q0-11.74283-5.10558-18.03971-5.02048-6.38198-14.97636-6.38198-6.1267 0-10.46644 1.70186-4.25465 1.70186-7.23291 3.7441-2.97825 2.04223-4.8503 3.74409-1.87205 1.70186-3.14844 1.70186-1.70186 0-2.55279-1.53168l-1.44658-2.4677q6.63725-6.63725 13.95525-10.04097t16.59314-3.40372q6.80744 0 11.91302 2.21242 5.10558 2.12732 8.4242 6.21179 3.40372 3.99937 5.10558 9.7857 1.70186 5.70122 1.70186 12.76394V0zm-34.0372-4.50993q4.93539 0 9.01986-1.02112 4.16955-1.1062 7.65837-2.97825 3.5739-1.95714 6.63725-4.59502t6.0416-5.70123v-22.0391q-12.0832.34038-20.84778 1.87206-8.67949 1.44658-14.38072 3.99937-5.61614 2.55279-8.33911 6.1267-2.63789 3.4888-2.63789 7.99873 0 4.25465 1.36149 7.4031 1.44658 3.06334 3.74409 5.10558 2.29752 1.95713 5.36086 2.89316 3.06335.93602 6.38198.93602z"/><path d="M407.58847 1.36149q-8.59439 0-13.44469-4.76521-4.76521-4.7652-4.76521-14.72109v-57.86324h-12.1683q-.93602 0-1.53167-.51056-.59565-.51056-.59565-1.44658v-3.14844l14.46581-1.02112 2.04223-30.29311q.0851-.76583.59565-1.36148.59565-.59566 1.53168-.59566h3.82918v32.33535h26.63411v6.0416H397.5475v57.43777q0 3.48882.85093 6.0416.93602 2.4677 2.4677 4.08447 1.61676 1.61677 3.74409 2.3826 2.12732.76584 4.59502.76584 3.06335 0 5.27577-.85093 2.21242-.93602 3.82918-1.95714 1.61677-1.1062 2.63789-1.95713 1.02111-.93603 1.61676-.93603.68075 0 1.36149.85093l2.21242 3.5739q-3.23354 3.57391-8.25402 5.78633-4.9354 2.12733-10.29626 2.12733z"/><path d="M458.98301-84.66754V0h-8.08383v-84.66754zm3.57391-29.1869q0 1.53168-.68075 2.89316-.59565 1.2764-1.61676 2.29752-1.02112 1.02111-2.38261 1.61676t-2.89316.59565q-1.53167 0-2.89316-.59565-1.36149-.59565-2.38261-1.61676-1.02111-1.02112-1.61676-2.29752-.59565-1.36148-.59565-2.89316 0-1.53167.59565-2.89316.59565-1.44658 1.61676-2.4677 1.02112-1.02111 2.38261-1.61676t2.89316-.59565q1.53167 0 2.89316.59565 1.36149.59565 2.38261 1.61676 1.02111 1.02112 1.61676 2.4677.68075 1.36149.68075 2.89316z"/><path d="M492.33737 0v-84.66754h4.42484q2.21242 0 2.55279 2.12733l.76584 12.76395q5.78632-7.318 13.44469-11.74284 7.74346-4.50993 17.18879-4.50993 6.97762 0 12.25339 2.21242 5.36086 2.21242 8.84967 6.38198 3.48882 4.16955 5.27577 10.04097 1.78695 5.87142 1.78695 13.27451V0h-8.08383v-54.11915q0-11.91302-5.44596-18.63537-5.44595-6.80744-16.67822-6.80744-8.33912 0-15.48693 4.33975-7.14781 4.25465-12.76395 11.74283V0z"/><path d="M615.71962-86.11412q5.53104 0 10.21116 1.36149 4.76521 1.36149 8.5093 3.82918h21.69872v2.80807q0 2.12733-2.38261 2.29751l-12.84904.93603q2.3826 3.23353 3.659 7.318 1.27639 3.99937 1.27639 8.59439 0 6.1267-2.21242 11.14718-2.21241 4.9354-6.21179 8.5093-3.91427 3.48882-9.44532 5.44595-5.53104 1.95714-12.25339 1.95714-7.318 0-13.27451-2.21241-3.57391 2.04223-5.61614 4.8503-2.04223 2.80807-2.04223 5.44595 0 3.659 2.55279 5.61614 2.55279 1.95714 6.72235 2.89316 4.25465.85093 9.61551 1.1062 5.44595.25529 10.97699.59566 5.61614.25528 10.977 1.02112 5.44595.76583 9.61551 2.72297 4.25465 1.87205 6.80744 5.36086 2.55279 3.40372 2.55279 9.10495 0 5.27577-2.63788 10.12607-2.63789 4.8503-7.65837 8.5944-4.9354 3.74408-11.99812 5.9565-7.06271 2.29751-15.82729 2.29751-8.93477 0-15.65712-1.87204-6.72234-1.78696-11.31737-4.9354-4.50992-3.06334-6.80744-7.1478-2.29751-4.08447-2.29751-8.6795 0-6.72234 4.42484-11.57264t12.1683-7.48819q-4.25465-1.44658-6.80744-4.16955-2.4677-2.72298-2.4677-7.57328 0-1.78696.68075-3.7441.68074-1.95713 2.04223-3.82918 1.36149-1.95714 3.23353-3.659 1.95714-1.70186 4.50993-3.06335-6.0416-3.4888-9.44532-9.27513-3.31863-5.78633-3.31863-13.5298 0-6.12669 2.12733-11.06208 2.21241-5.02049 6.12669-8.5944 3.99937-3.5739 9.61551-5.53104 5.61614-1.95714 12.42358-1.95714zm31.39932 91.81535q0-3.99937-2.12733-6.38197-2.04223-2.4677-5.53104-3.82919-3.48882-1.36149-8.08384-1.87205-4.50993-.59565-9.53041-.85093-4.9354-.25527-9.95589-.51055-5.02048-.25528-9.36023-1.02112-3.23353 1.2764-6.0416 2.97826-2.72298 1.61676-4.68011 3.74409Q589.85135 0 588.74514 2.4677q-1.10621 2.55279-1.10621 5.53104 0 3.7441 1.87204 6.89254 1.95714 3.23353 5.61614 5.53104 3.74409 2.3826 9.10495 3.7441 5.36086 1.36148 12.33849 1.36148 6.46707 0 11.99811-1.44658 5.61614-1.44658 9.7006-4.08446 4.16956-2.63789 6.46707-6.29689 2.38261-3.659 2.38261-7.99874zm-31.39932-43.14215q5.44595 0 9.7006-1.53168 4.25465-1.61676 7.14781-4.42483 2.89317-2.80807 4.33975-6.72235 1.53167-3.91428 1.53167-8.67949 0-4.7652-1.53167-8.67948-1.53168-3.99937-4.50993-6.80744-2.89316-2.80807-7.14781-4.33974-4.16956-1.53168-9.53042-1.53168t-9.61551 1.53168q-4.25465 1.53167-7.23291 4.33974-2.89316 2.80807-4.42483 6.80744-1.53168 3.91428-1.53168 8.67949 0 4.7652 1.53168 8.67948 1.53167 3.91428 4.42483 6.72235 2.97826 2.80807 7.23291 4.42483 4.25465 1.53168 9.61551 1.53168z"/><path d="M752.36036 1.36149q-8.5944 0-13.4447-4.76521-4.76521-4.7652-4.76521-14.72109v-57.86324h-12.1683q-.93602 0-1.53167-.51056-.59565-.51056-.59565-1.44658v-3.14844l14.46581-1.02112 2.04223-30.29311q.0851-.76583.59565-1.36148.59565-.59566 1.53168-.59566h3.82918v32.33535h26.63411v6.0416h-26.63411v57.43777q0 3.48882.85093 6.0416.93602 2.4677 2.4677 4.08447 1.61677 1.61677 3.74409 2.3826 2.12733.76584 4.59502.76584 3.06335 0 5.27577-.85093 2.21242-.93602 3.82918-1.95714 1.61677-1.1062 2.63789-1.95713 1.02111-.93603 1.61676-.93603.68075 0 1.36149.85093l2.21242 3.5739q-3.23353 3.57391-8.25402 5.78633-4.9354 2.12733-10.29625 2.12733z"/><path d="M793.28855 0v-123.81032h8.08383v53.6086q5.87142-7.23291 13.3596-11.48756 7.57328-4.33975 16.93351-4.33975 6.97763 0 12.25339 2.21242 5.36086 2.21242 8.84967 6.38198 3.48882 4.16955 5.27577 10.04097 1.78695 5.87142 1.78695 13.27451V0h-8.08383v-54.11915q0-11.91302-5.44595-18.63537-5.44596-6.80744-16.67823-6.80744-8.33912 0-15.48693 4.33975-7.14781 4.25465-12.76395 11.74283V0z"/><path d="M920.67004-86.02903q7.14781 0 13.18942 2.4677 6.12669 2.4677 10.55153 7.2329 4.50993 4.68012 6.97762 11.57265 2.55279 6.89254 2.55279 15.8273 0 1.87205-.59565 2.5528-.51056.68074-1.70186.68074h-61.18187v1.61676q0 9.53042 2.21242 16.76333 2.21242 7.2329 6.29688 12.1683 4.08447 4.8503 9.87079 7.318 5.78633 2.4677 12.93414 2.4677 6.38197 0 11.06209-1.3615 4.68011-1.44658 7.82856-3.14844 3.23353-1.78695 5.10558-3.14844 1.87204-1.44658 2.72297-1.44658 1.10621 0 1.70186.85093l2.21242 2.72298q-2.04223 2.55279-5.44595 4.7652-3.31863 2.21242-7.48819 3.82919-4.08446 1.53167-8.84967 2.4677-4.68011.93602-9.44532.93602-8.67949 0-15.8273-2.97826-7.14781-3.06334-12.25339-8.84967-5.10558-5.78632-7.91365-14.12544-2.72298-8.4242-2.72298-19.23102 0-9.10495 2.55279-16.76332 2.63789-7.74346 7.48819-13.2745 4.93539-5.61614 11.99811-8.76458 7.14781-3.14845 16.16767-3.14845zm.0851 6.0416q-6.55216 0-11.74283 2.04224-5.19067 2.04223-9.01986 5.87142-3.74409 3.82918-6.1267 9.19004-2.29751 5.36086-3.06334 11.99811h55.82101q0-6.80744-1.87205-12.1683-1.87205-5.44595-5.27577-9.19004-3.40372-3.7441-8.16892-5.70123-4.76521-2.04223-10.55154-2.04223z"/><path d="M1107.5155-120.4066v7.23291h-63.3943v50.63033h54.885v7.2329h-54.885V0h-8.7645v-120.4066z"/><path d="M1132.9569-84.66754v54.11915q0 11.91302 5.446 18.72046 5.4459 6.72235 16.5931 6.72235 8.254 0 15.4018-4.16956 7.1479-4.25465 12.8491-11.74283v-63.64957h8.1689V0h-4.5099q-2.3826 0-2.4677-2.21242l-.7659-12.59376q-5.8714 7.318-13.6148 11.74283-7.6584 4.42484-17.1037 4.42484-7.0627 0-12.3385-2.21242-5.2758-2.21242-8.7646-6.38198-3.4888-4.16955-5.2758-10.04097-1.7869-5.87142-1.7869-13.2745v-54.11916z"/><path d="M1245.5324 1.36149q-8.5944 0-13.4447-4.76521-4.7652-4.7652-4.7652-14.72109v-57.86324h-12.1683q-.936 0-1.5317-.51056-.5956-.51056-.5956-1.44658v-3.14844l14.4658-1.02112 2.0422-30.29311q.085-.76583.5957-1.36148.5956-.59566 1.5317-.59566h3.8291v32.33535h26.6341v6.0416h-26.6341v57.43777q0 3.48882.851 6.0416.936 2.4677 2.4677 4.08447 1.6167 1.61677 3.7441 2.3826 2.1273.76584 4.595.76584 3.0633 0 5.2757-.85093 2.2125-.93602 3.8292-1.95714 1.6168-1.1062 2.6379-1.95713 1.0211-.93603 1.6168-.93603.6807 0 1.3615.85093l2.2124 3.5739q-3.2335 3.57391-8.254 5.78633-4.9354 2.12733-10.2963 2.12733z"/><path d="M1292.5021-84.66754v54.11915q0 11.91302 5.4459 18.72046 5.446 6.72235 16.5932 6.72235 8.254 0 15.4018-4.16956 7.1478-4.25465 12.849-11.74283v-63.64957h8.169V0h-4.51q-2.3826 0-2.4676-2.21242l-.7659-12.59376q-5.8714 7.318-13.6149 11.74283-7.6583 4.42484-17.1037 4.42484-7.0627 0-12.3384-2.21242-5.2758-2.21242-8.7646-6.38198-3.4888-4.16955-5.2758-10.04097-1.7869-5.87142-1.7869-13.2745v-54.11916z"/><path d="M1381.9323 0v-84.66754h4.2546q1.4466 0 2.0423.59565.6807.59566.7658 2.04224l.6807 17.86953q4.0845-10.29626 10.892-16.08258 6.8074-5.87142 16.7633-5.87142 3.8292 0 7.0627.85093 3.2335.76584 6.1267 2.29751l-1.1062 5.61614q-.2553 1.36149-1.7019 1.36149-.5105 0-1.4466-.34037-.936-.34037-2.3826-.76584-1.3615-.42546-3.4037-.76584-2.0422-.34037-4.6801-.34037-9.6155 0-15.8273 5.95651-6.1267 5.95651-9.9559 17.18879V0z"/><path d="M1484.8075-86.02903q7.1478 0 13.1894 2.4677 6.1267 2.4677 10.5515 7.2329 4.51 4.68012 6.9777 11.57265 2.5528 6.89254 2.5528 15.8273 0 1.87205-.5957 2.5528-.5106.68074-1.7019.68074h-61.1818v1.61676q0 9.53042 2.2124 16.76333 2.2124 7.2329 6.2969 12.1683 4.0844 4.8503 9.8708 7.318 5.7863 2.4677 12.9341 2.4677 6.382 0 11.0621-1.3615 4.6801-1.44658 7.8285-3.14844 3.2336-1.78695 5.1056-3.14844 1.8721-1.44658 2.723-1.44658 1.1062 0 1.7019.85093l2.2124 2.72298q-2.0423 2.55279-5.446 4.7652-3.3186 2.21242-7.4882 3.82919-4.0844 1.53167-8.8496 2.4677-4.6801.93602-9.4454.93602-8.6794 0-15.8272-2.97826-7.1479-3.06334-12.2534-8.84967-5.1056-5.78632-7.9137-14.12544-2.723-8.4242-2.723-19.23102 0-9.10495 2.5528-16.76332 2.6379-7.74346 7.4882-13.2745 4.9354-5.61614 11.9981-8.76458 7.1478-3.14845 16.1677-3.14845zm.085 6.0416q-6.5522 0-11.7429 2.04224-5.1906 2.04223-9.0198 5.87142-3.7441 3.82918-6.1267 9.19004-2.2975 5.36086-3.0634 11.99811h55.8211q0-6.80744-1.8721-12.1683-1.872-5.44595-5.2758-9.19004-3.4037-3.7441-8.1689-5.70123-4.7652-2.04223-10.5515-2.04223z"/><path d="M1627.6601-86.02903q9.1049 0 16.2527 3.14845 7.2329 3.06334 12.1683 8.76457 4.9354 5.70124 7.4882 13.78507 2.6379 7.99874 2.6379 17.95462 0 9.95589-2.6379 17.95463-2.5528 7.99874-7.4882 13.69997-4.9354 5.70123-12.1683 8.76458-7.1478 3.06335-16.2527 3.06335-9.105 0-16.3379-3.06335-7.1478-3.06335-12.1683-8.76458-4.9354-5.70123-7.5733-13.69997-2.5528-7.99874-2.5528-17.95463 0-9.95588 2.5528-17.95462 2.6379-8.08383 7.5733-13.78507 5.0205-5.70123 12.1683-8.76457 7.2329-3.14845 16.3379-3.14845zm0 80.75326q7.5732 0 13.1894-2.55279 5.7012-2.63788 9.4453-7.48818 3.8292-4.8503 5.7012-11.65774 1.8721-6.89254 1.8721-15.40184 0-8.4242-1.8721-15.31674-1.872-6.89253-5.7012-11.74283-3.7441-4.9354-9.4453-7.57328-5.6162-2.63788-13.1894-2.63788-7.5733 0-13.2745 2.63788-5.6162 2.63789-9.4454 7.57328-3.7441 4.8503-5.7012 11.74283-1.872 6.89254-1.872 15.31675 0 8.5093 1.872 15.40183 1.9571 6.80744 5.7012 11.65774 3.8292 4.8503 9.4454 7.48818 5.7012 2.5528 13.2745 2.5528z"/><path d="M1694.0299 0v-75.81786l-11.913-.76584q-2.4677-.17019-2.4677-2.12733v-3.31862h14.3807v-10.72172q0-7.2329 1.8721-12.67886 1.872-5.53105 5.2758-9.19004 3.4037-3.659 8.1689-5.44596 4.8503-1.87204 10.6366-1.87204 2.6379 0 5.2758.51056 2.723.42546 4.7652 1.27639l-.2553 3.91428q-.085 1.1913-1.6168 1.1913-1.0211 0-2.808-.25528-1.7019-.25528-4.2547-.25528-4.1695 0-7.7434 1.2764-3.4889 1.1913-6.0416 3.91428-2.5528 2.72297-3.9994 7.14781-1.3615 4.33974-1.3615 10.72172v10.46644h27.485v6.0416h-27.3148V0z"/><path d="M1892.7895-20.25213q.8509 0 1.4466.59565l3.4037 3.659q-3.7441 3.99937-8.169 7.2329-4.4248 3.14844-9.7006 5.44595-5.1906 2.21242-11.4875 3.40372-6.2118 1.2764-13.7 1.2764-12.5087 0-22.9751-4.33975-10.3813-4.42483-17.8695-12.42357-7.4031-8.08384-11.5727-19.4863-4.1695-11.40246-4.1695-25.35772 0-13.69997 4.2546-25.01734 4.3398-11.31737 12.0832-19.4012 7.8286-8.16893 18.6354-12.59377 10.8919-4.50993 23.9962-4.50993 6.5522 0 11.9981 1.02112 5.446.93602 10.1261 2.80807 4.7652 1.78695 8.9348 4.50993 4.1695 2.72297 8.1689 6.29688l-2.6379 3.82919q-.6807 1.02111-2.1273 1.02111-.7659 0-1.9572-.85093-1.1913-.93602-3.0633-2.21242-1.787-1.36148-4.4248-2.89316-2.5528-1.61677-6.1267-2.89316-3.5739-1.36149-8.2541-2.21242-4.6801-.93602-10.6366-.93602-10.977 0-20.167 3.82918-9.1901 3.7441-15.8273 10.80681-6.6373 6.97763-10.3814 17.0186-3.659 9.95589-3.659 22.37946 0 12.76395 3.659 22.80493 3.659 10.04097 10.1261 17.0186 6.4671 6.89253 15.2316 10.63662 8.8497 3.659 19.146 3.659 6.467 0 11.4875-.85093 5.1056-.85093 9.3603-2.55279 4.2546-1.70186 7.9136-4.16955 3.659-2.4677 7.2329-5.78633.4255-.34037.7658-.51056.4255-.25528.9361-.25528z"/><path d="M1956.6075-86.02903q9.1049 0 16.2527 3.14845 7.2329 3.06334 12.1683 8.76457 4.9354 5.70124 7.4882 13.78507 2.6379 7.99874 2.6379 17.95462 0 9.95589-2.6379 17.95463-2.5528 7.99874-7.4882 13.69997-4.9354 5.70123-12.1683 8.76458-7.1478 3.06335-16.2527 3.06335-9.105 0-16.3379-3.06335-7.1478-3.06335-12.1683-8.76458-4.9354-5.70123-7.5733-13.69997-2.5528-7.99874-2.5528-17.95463 0-9.95588 2.5528-17.95462 2.6379-8.08383 7.5733-13.78507 5.0205-5.70123 12.1683-8.76457 7.2329-3.14845 16.3379-3.14845zm0 80.75326q7.5732 0 13.1894-2.55279 5.7012-2.63788 9.4453-7.48818 3.8292-4.8503 5.7012-11.65774 1.8721-6.89254 1.8721-15.40184 0-8.4242-1.8721-15.31674-1.872-6.89253-5.7012-11.74283-3.7441-4.9354-9.4453-7.57328-5.6162-2.63788-13.1894-2.63788-7.5733 0-13.2746 2.63788-5.6161 2.63789-9.4453 7.57328-3.7441 4.8503-5.7012 11.74283-1.8721 6.89254-1.8721 15.31675 0 8.5093 1.8721 15.40183 1.9571 6.80744 5.7012 11.65774 3.8292 4.8503 9.4453 7.48818 5.7013 2.5528 13.2746 2.5528z"/><path d="M2019.8288 0v-84.66754h4.4248q2.2124 0 2.5528 2.12733l.7658 12.76395q5.7864-7.318 13.4447-11.74284 7.7435-4.50993 17.1888-4.50993 6.9776 0 12.2534 2.21242 5.3609 2.21242 8.8497 6.38198 3.4888 4.16955 5.2757 10.04097 1.787 5.87142 1.787 13.27451V0h-8.0838v-54.11915q0-11.91302-5.446-18.63537-5.4459-6.80744-16.6782-6.80744-8.3391 0-15.4869 4.33975-7.1479 4.25465-12.764 11.74283V0z"/><path d="M2115.3007 0v-84.66754h4.4248q2.2124 0 2.5528 2.12733l.7659 12.76395q5.7863-7.318 13.4446-11.74284 7.7435-4.50993 17.1888-4.50993 6.9777 0 12.2534 2.21242 5.3609 2.21242 8.8497 6.38198 3.4888 4.16955 5.2758 10.04097 1.7869 5.87142 1.7869 13.27451V0h-8.0838v-54.11915q0-11.91302-5.446-18.63537-5.4459-6.80744-16.6782-6.80744-8.3391 0-15.4869 4.33975-7.1478 4.25465-12.764 11.74283V0z"/><path d="M2242.682-86.02903q7.1478 0 13.1894 2.4677 6.1267 2.4677 10.5516 7.2329 4.5099 4.68012 6.9776 11.57265 2.5528 6.89254 2.5528 15.8273 0 1.87205-.5957 2.5528-.5105.68074-1.7018.68074h-61.1819v1.61676q0 9.53042 2.2124 16.76333 2.2124 7.2329 6.2969 12.1683 4.0845 4.8503 9.8708 7.318 5.7863 2.4677 12.9341 2.4677 6.382 0 11.0621-1.3615 4.6801-1.44658 7.8286-3.14844 3.2335-1.78695 5.1055-3.14844 1.8721-1.44658 2.723-1.44658 1.1062 0 1.7019.85093l2.2124 2.72298q-2.0422 2.55279-5.446 4.7652-3.3186 2.21242-7.4881 3.82919-4.0845 1.53167-8.8497 2.4677-4.6801.93602-9.4453.93602-8.6795 0-15.8273-2.97826-7.1478-3.06334-12.2534-8.84967-5.1056-5.78632-7.9137-14.12544-2.723-8.4242-2.723-19.23102 0-9.10495 2.5528-16.76332 2.6379-7.74346 7.4882-13.2745 4.9354-5.61614 11.9981-8.76458 7.1478-3.14845 16.1677-3.14845zm.085 6.0416q-6.5522 0-11.7428 2.04224-5.1907 2.04223-9.0199 5.87142-3.7441 3.82918-6.1267 9.19004-2.2975 5.36086-3.0633 11.99811h55.821q0-6.80744-1.8721-12.1683-1.872-5.44595-5.2757-9.19004-3.4038-3.7441-8.169-5.70123-4.7652-2.04223-10.5515-2.04223z"/><path d="M2356.8743-73.35017q-.4255.42547-.851.76584-.3403.25528-1.0211.25528-.8509 0-2.3826-1.10621-1.4466-1.1913-3.9143-2.5528-2.4677-1.36148-6.2118-2.46769-3.659-1.1913-8.9347-1.1913-7.318 0-13.0193 2.63788-5.6161 2.5528-9.5304 7.4031-3.8292 4.8503-5.8714 11.74283-2.0422 6.89253-2.0422 15.48693 0 8.93476 2.0422 15.8273 2.1273 6.89253 5.9565 11.65774 3.8292 4.68011 9.2752 7.1478 5.4459 2.4677 12.0832 2.4677 6.1267 0 10.2111-1.44658 4.1696-1.44658 6.8075-3.14844 2.7229-1.70186 4.2546-3.14844 1.6168-1.44658 2.5528-1.44658 1.1062 0 1.7019.85093l2.2124 2.72298q-1.9572 2.55279-4.9354 4.7652-2.9783 2.21242-6.7224 3.82919-3.7441 1.61677-8.1689 2.4677-4.3397.93602-9.1049.93602-8.0839 0-14.8062-2.89316-6.6373-2.97826-11.4876-8.5093-4.7652-5.61614-7.4882-13.69998-2.6378-8.08383-2.6378-18.38008 0-9.7006 2.5527-17.69935 2.5528-7.99874 7.4031-13.78507 4.9354-5.78632 11.9982-8.93476 7.1478-3.23353 16.3378-3.23353 8.254 0 14.636 2.63788 6.4671 2.63788 11.2323 7.14781z"/><path d="M2405.1193 1.36149q-8.5944 0-13.4447-4.76521-4.7652-4.7652-4.7652-14.72109v-57.86324h-12.1683q-.936 0-1.5316-.51056-.5957-.51056-.5957-1.44658v-3.14844l14.4658-1.02112 2.0422-30.29311q.085-.76583.5957-1.36148.5956-.59566 1.5317-.59566h3.8292v32.33535h26.6341v6.0416h-26.6341v57.43777q0 3.48882.8509 6.0416.936 2.4677 2.4677 4.08447 1.6167 1.61677 3.7441 2.3826 2.1273.76584 4.595.76584 3.0633 0 5.2758-.85093 2.2124-.93602 3.8291-1.95714 1.6168-1.1062 2.6379-1.95713 1.0211-.93603 1.6168-.93603.6807 0 1.3615.85093l2.2124 3.5739q-3.2335 3.57391-8.254 5.78633-4.9354 2.12733-10.2963 2.12733z"/><path d="M2456.5142-84.66754V0h-8.0838v-84.66754zm3.5739-29.1869q0 1.53168-.6807 2.89316-.5957 1.2764-1.6168 2.29752-1.0211 1.02111-2.3826 1.61676-1.3615.59565-2.8932.59565-1.5316 0-2.8931-.59565t-2.3826-1.61676q-1.0212-1.02112-1.6168-2.29752-.5957-1.36148-.5957-2.89316 0-1.53167.5957-2.89316.5956-1.44658 1.6168-2.4677 1.0211-1.02111 2.3826-1.61676 1.3615-.59565 2.8931-.59565 1.5317 0 2.8932.59565 1.3615.59565 2.3826 1.61676 1.0211 1.02112 1.6168 2.4677.6807 1.36149.6807 2.89316z"/><path d="M2521.0975 0h-7.1479l-35.739-84.66754h6.382q1.1913 0 1.872.68075.7658.59565 1.1062 1.36149l27.9105 66.798q.8509 1.95714 1.2764 3.7441.4255 1.78695.8509 3.5739l.851-3.5739q.5105-1.87205 1.2764-3.7441l28.0807-66.798q.4254-.93603 1.1062-1.44659.7658-.59565 1.7869-.59565h6.1267z"/><path d="M2586.6189-84.66754V0h-8.0838v-84.66754zm3.5739-29.1869q0 1.53168-.6807 2.89316-.5957 1.2764-1.6168 2.29752-1.0211 1.02111-2.3826 1.61676-1.3615.59565-2.8931.59565-1.5317 0-2.8932-.59565-1.3615-.59565-2.3826-1.61676-1.0211-1.02112-1.6168-2.29752-.5956-1.36148-.5956-2.89316 0-1.53167.5956-2.89316.5957-1.44658 1.6168-2.4677 1.0211-1.02111 2.3826-1.61676 1.3615-.59565 2.8932-.59565 1.5316 0 2.8931.59565t2.3826 1.61676q1.0211 1.02112 1.6168 2.4677.6807 1.36149.6807 2.89316z"/><path d="M2643.1184 1.36149q-8.5944 0-13.4447-4.76521-4.7653-4.7652-4.7653-14.72109v-57.86324h-12.1683q-.936 0-1.5316-.51056-.5957-.51056-.5957-1.44658v-3.14844l14.4658-1.02112 2.0423-30.29311q.085-.76583.5956-1.36148.5957-.59566 1.5317-.59566h3.8292v32.33535h26.6341v6.0416h-26.6341v57.43777q0 3.48882.8509 6.0416.936 2.4677 2.4677 4.08447 1.6168 1.61677 3.7441 2.3826 2.1273.76584 4.595.76584 3.0634 0 5.2758-.85093 2.2124-.93602 3.8292-1.95714 1.6167-1.1062 2.6379-1.95713 1.0211-.93603 1.6167-.93603.6808 0 1.3615.85093l2.2124 3.5739q-3.2335 3.57391-8.254 5.78633-4.9354 2.12733-10.2962 2.12733z"/><path d="M2702.5117 27.22976q-.5105 1.1913-1.3615 1.95714-.7658.76584-2.2975.76584h-5.7863l14.8913-33.10118-35.8242-81.5191h6.7224q1.2764 0 1.9571.68075.7658.59565 1.1062 1.36149l28.5062 65.86198q.5105 1.2764.8509 2.63788.4255 1.2764.7658 2.63789.4255-1.3615.851-2.63789.5105-1.36149 1.0211-2.63788l28.1658-65.86199q.4254-.93602 1.1913-1.44658.7658-.59565 1.7018-.59565h6.2118z"/></g></g></svg>