<?xml version="1.0" encoding="utf-8"?>
<!-- Generator: Adobe Illustrator 26.4.1, SVG Export Plug-In . SVG Version: 6.00 Build 0)  -->
<svg version="1.1" id="Layer_1" xmlns="http://www.w3.org/2000/svg" xmlns:xlink="http://www.w3.org/1999/xlink" x="0px" y="0px"
	 viewBox="0 0 290.9 135.2" style="enable-background:new 0 0 290.9 135.2;" xml:space="preserve">
<style type="text/css">
	.st0{fill:url(#SVGID_1_);}
</style>
<linearGradient id="SVGID_1_" gradientUnits="userSpaceOnUse" x1="236.2451" y1="85.0996" x2="236.2451" y2="32.374">
	<stop  offset="7.812500e-02" style="stop-color:#E71E25"/>
	<stop  offset="0.2899" style="stop-color:#B6161C"/>
	<stop  offset="0.5092" style="stop-color:#8D0A0D"/>
	<stop  offset="0.6745" style="stop-color:#750000"/>
	<stop  offset="0.7651" style="stop-color:#6D0000"/>
</linearGradient>
<path class="st0" d="M221.8,60.5c0,1.3,0.1,2.6,0.2,3.8l-17-29.8c-0.7-1.2-0.7-2.2-0.3-3c0.5-0.8,1.4-1.2,2.7-1.2h34.9
	c-4.3,2-7.7,4-11.2,7.5C224.9,44.1,221.8,51.6,221.8,60.5z M235.9,86.5c0.2,0,0.4,0.1,0.6,0.1c1,0,1.8-0.6,2.4-1.8l28.5-50
	c0.6-1,0.8-2,0.5-2.7c0,0-0.3-0.7-0.9-1.1s-1.2-0.5-2.1-0.5h-6.7c-8.3,0.5-15.4,3.7-21.4,9.7c-6.5,6.5-9.8,14.4-9.8,23.6
	c0,5.3,1.1,10.2,3.2,14.6c0.1,0.2,3.6,6.4,3.6,6.4C234.5,85.7,235.1,86.3,235.9,86.5z"/>
<g>
	<path d="M41.6,64.4c-0.9-3.1-1.7-6.1-2.4-8.8h-12c2.7,9.5,5.7,18.4,9,26.7c3.2,8.3,6.4,15.6,9.5,22h9.6c3-6.2,6.2-13.6,9.6-22
		c3.2-8.2,6.2-17.1,8.9-26.7H62.3c-0.6,2.6-1.4,5.5-2.4,8.8c-0.9,3-1.8,6.1-2.9,9.4c-1,2.9-2,6-3.2,9.1c-1.1,3-2.1,5.7-2.9,8
		c-0.9-2.3-1.9-5-3.1-8c-1.1-3.1-2.2-6.1-3.2-9.1C43.5,70.6,42.5,67.5,41.6,64.4 M132.9,56c-2.7,1.1-5.1,2.7-7.3,4.9
		c-2.1,2.1-3.8,4.8-5.1,8c-1.3,3.3-1.9,7-1.9,11.3c0,3.6,0.5,7,1.5,10.1c1,3,2.5,5.7,4.5,8c2.1,2.3,4.7,4.1,7.9,5.3
		c3.2,1.3,6.9,1.9,11.2,1.9c1.7,0,3.3-0.1,4.9-0.3c1.6-0.2,3.1-0.4,4.5-0.7c1.4-0.3,2.7-0.6,3.8-0.9c1-0.3,1.9-0.7,2.6-0.9l-1.5-9.3
		c-1.4,0.6-3.2,1.1-5.4,1.6c-2.2,0.5-4.7,0.7-7.5,0.7c-4.7,0-8.2-1.1-10.7-3.2c-2.4-2.1-3.8-5.2-4.1-9.1h32.1c0.1-0.4,0.1-1.1,0.2-2
		l0.1-2.1c0-8.2-1.9-14.4-5.6-18.6c-3.8-4.2-9-6.3-15.7-6.3C138.4,54.4,135.6,54.9,132.9,56 M145.7,64.7c1.2,0.6,2.2,1.4,3,2.4
		c0.8,1,1.5,2.2,2,3.6c0.4,1.4,0.6,2.9,0.6,4.4h-20.9c0.2-1.5,0.5-2.9,1-4.2c0.5-1.4,1.2-2.6,2.1-3.6c0.9-1.1,1.9-1.9,3.2-2.6
		c1.3-0.6,2.9-0.9,4.6-0.9C143.1,63.8,144.5,64.1,145.7,64.7 M109.8,60.7c-3.8-4.2-9-6.3-15.7-6.3c-2.8,0-5.6,0.6-8.4,1.7
		c-2.7,1.1-5.1,2.7-7.3,4.9c-2.1,2.1-3.8,4.8-5.1,8c-1.2,3.2-1.8,7-1.8,11.3c0,3.7,0.5,7,1.5,10.1c1,3.1,2.5,5.8,4.5,8
		c2,2.2,4.7,4,7.8,5.3c3.1,1.3,6.8,1.9,11.1,1.9c1.7,0,3.3-0.1,4.9-0.3c1.6-0.2,3.1-0.4,4.5-0.7c1.4-0.3,2.6-0.6,3.7-0.9
		c1.1-0.3,1.9-0.7,2.6-0.9l-1.5-9.3c-1.4,0.6-3.2,1.1-5.4,1.6c-2.2,0.5-4.7,0.7-7.5,0.7c-4.7,0-8.2-1.1-10.7-3.2
		c-2.5-2.1-3.8-5.2-4.1-9.1h32.2l0.2-4.2C115.4,71,113.5,64.8,109.8,60.7 M94.1,63.8c1.7,0,3.1,0.3,4.3,0.9c1.2,0.6,2.3,1.4,3.1,2.4
		c0.8,0.9,1.4,2.1,1.9,3.6c0.4,1.4,0.7,2.9,0.7,4.4h-21c0.2-1.4,0.5-2.8,1-4.2c0.5-1.4,1.3-2.6,2.1-3.6c0.9-1.1,2-1.9,3.3-2.6
		C90.9,64.2,92.4,63.8,94.1,63.8 M193.9,56c-2.6-0.9-5.7-1.4-9.5-1.4c-3.1,0-6,0.3-8.7,0.8c-2.7,0.5-4.8,1-6.2,1.5l1.4,9.1
		c1.3-0.5,3.1-0.9,5.3-1.3c2.2-0.3,4.7-0.5,7.2-0.5c1.9,0,3.5,0.2,4.8,0.7c1.3,0.5,2.3,1.2,3.1,2.1c0.8,0.9,1.3,1.9,1.7,3.1
		c0.3,1.2,0.4,2.4,0.4,3.7v1.8c-1.6-0.4-3.1-0.7-4.4-0.8c-1.4-0.1-2.7-0.2-3.9-0.2c-2.6,0-5.2,0.3-7.7,0.8c-2.4,0.5-4.6,1.4-6.4,2.7
		c-1.9,1.2-3.3,2.7-4.4,4.7c-1.1,1.9-1.6,4.3-1.6,7c0,2.9,0.5,5.3,1.4,7.3c1,2,2.3,3.6,4,4.9c1.7,1.2,3.8,2.1,6.2,2.7
		c2.4,0.5,5.1,0.8,8,0.8c4.3,0,8.3-0.2,11.9-0.7c3.6-0.5,6.2-1,7.8-1.4V73.9c0-2.8-0.3-5.4-0.9-7.8c-0.7-2.4-1.8-4.4-3.2-6.1
		C198.4,58.2,196.4,56.9,193.9,56 M176,89.5c0-1.4,0.3-2.5,1-3.4c0.6-0.9,1.5-1.6,2.5-2.1c1-0.5,2.2-0.8,3.4-1
		c1.3-0.1,2.6-0.2,3.8-0.2c1.4,0,2.7,0.1,3.9,0.2c1.1,0.2,2,0.4,2.7,0.6V96c-1.8,0.4-4.4,0.6-7.9,0.6c-2.8,0-5.1-0.5-6.8-1.5
		C176.9,94.1,176,92.2,176,89.5z"/>
</g>
<g>
	<path d="M226.2,96.9c0,4.3-3.4,7.7-7.8,7.7c-4.3,0-7.8-3.4-7.8-7.7c0-4.2,3.5-7.6,7.8-7.6C222.8,89.3,226.2,92.7,226.2,96.9z
		 M212.6,96.9c0,3.4,2.5,6,5.9,6c3.3,0,5.8-2.7,5.8-6c0-3.4-2.4-6.1-5.8-6.1C215.1,90.9,212.6,93.6,212.6,96.9z M217.2,100.9h-1.8
		v-7.6c0.7-0.1,1.7-0.2,2.9-0.2c1.4,0,2.1,0.2,2.6,0.6c0.4,0.3,0.7,0.9,0.7,1.7c0,0.8-0.6,1.5-1.6,1.8v0.1c0.7,0.3,1.2,0.8,1.4,1.8
		c0.2,1.2,0.4,1.6,0.6,1.9h-1.9c-0.2-0.3-0.4-1-0.6-1.8c-0.1-0.8-0.6-1.2-1.6-1.2h-0.8V100.9z M217.3,96.6h0.8c1,0,1.8-0.3,1.8-1.1
		c0-0.7-0.5-1.2-1.6-1.2c-0.5,0-0.8,0-1,0.1V96.6z"/>
</g>
</svg>
