<?xml version="1.0" encoding="utf-8"?>
<!-- Generator: Adobe Illustrator 24.2.3, SVG Export Plug-In . SVG Version: 6.00 Build 0)  -->
<svg version="1.1" id="Layer_1" xmlns="http://www.w3.org/2000/svg" xmlns:xlink="http://www.w3.org/1999/xlink" x="0px" y="0px"
	 viewBox="0 0 264 94" style="enable-background:new 0 0 264 94;" xml:space="preserve">
<style type="text/css">
	.st0{fill:url(#SVGID_1_);}
</style>
<linearGradient id="SVGID_1_" gradientUnits="userSpaceOnUse" x1="222.1735" y1="226.6191" x2="222.1735" y2="165.1815" gradientTransform="matrix(1 0 0 1 0 -156)">
	<stop  offset="7.812500e-02" style="stop-color:#E71E25"/>
	<stop  offset="0.2899" style="stop-color:#B6161C"/>
	<stop  offset="0.5092" style="stop-color:#8D0A0D"/>
	<stop  offset="0.6745" style="stop-color:#750000"/>
	<stop  offset="0.7651" style="stop-color:#6D0000"/>
</linearGradient>
<path class="st0" d="M207.3,43.6c0,1.5,0.1,3,0.2,4.4l-19.3-34c-0.7-1.3-0.8-2.5-0.3-3.4s1.6-1.4,3.1-1.4h40.2
	c-4.9,1.7-9.3,4.6-13.2,8.5C210.9,24.9,207.3,33.5,207.3,43.6z M255.6,9.8c-0.7-0.4-1.3-0.6-2.3-0.6H246
	c-9.1,0.5-16.9,4.1-23.4,10.6c-7.1,7.1-10.7,15.8-10.7,25.8c0,5.8,1.2,11.2,3.5,16c0.1,0.2,4,7,4,7c0.6,1.1,1.3,1.7,2.2,1.9h0.1h0.2
	c0.1,0,0.1,0,0.2,0h0.2c1,0,1.9-0.7,2.6-2L256.1,14c0.7-1.1,0.8-2.1,0.5-3C256.6,11,256.3,10.2,255.6,9.8z"/>
<g>
	<path d="M23.9,45.3c-0.9-3.1-1.7-6.1-2.4-8.8h-12c2.7,9.5,5.7,18.4,9,26.7c3.2,8.3,6.4,15.6,9.5,22h9.6c3-6.2,6.2-13.6,9.6-22
		c3.2-8.2,6.2-17.1,8.9-26.7H44.5c-0.6,2.6-1.4,5.5-2.4,8.8c-0.9,3-1.8,6.1-2.9,9.4c-1,2.9-2,6-3.2,9.1c-1.1,3-2.1,5.7-2.9,8
		c-0.9-2.3-1.9-5-3.1-8c-1.1-3.1-2.2-6.1-3.2-9.1C25.7,51.4,24.8,48.3,23.9,45.3 M115.1,36.9c-2.7,1.1-5.1,2.7-7.3,4.9
		c-2.1,2.1-3.8,4.8-5.1,8c-1.3,3.3-1.9,7-1.9,11.3c0,3.6,0.5,7,1.5,10.1c1,3,2.5,5.7,4.5,8c2.1,2.3,4.7,4.1,7.9,5.3
		c3.2,1.3,6.9,1.9,11.2,1.9c1.7,0,3.3-0.1,4.9-0.3c1.6-0.2,3.1-0.4,4.5-0.7c1.4-0.3,2.7-0.6,3.8-0.9c1-0.3,1.9-0.7,2.6-0.9l-1.5-9.3
		c-1.4,0.6-3.2,1.1-5.4,1.6s-4.7,0.7-7.5,0.7c-4.7,0-8.2-1.1-10.7-3.2c-2.4-2.1-3.8-5.2-4.1-9.1h32.1c0.1-0.4,0.1-1.1,0.2-2l0.1-2.1
		c0-8.2-1.9-14.4-5.6-18.6c-3.8-4.2-9-6.3-15.7-6.3C120.6,35.2,117.9,35.8,115.1,36.9 M127.9,45.5c1.2,0.6,2.2,1.4,3,2.4
		s1.5,2.2,2,3.6c0.4,1.4,0.6,2.9,0.6,4.4h-20.9c0.2-1.5,0.5-2.9,1-4.2c0.5-1.4,1.2-2.6,2.1-3.6c0.9-1.1,1.9-1.9,3.2-2.6
		c1.3-0.6,2.9-0.9,4.6-0.9C125.3,44.7,126.7,45,127.9,45.5 M92,41.5c-3.8-4.2-9-6.3-15.7-6.3c-2.8,0-5.6,0.6-8.4,1.7
		c-2.7,1.1-5.1,2.7-7.3,4.9c-2.1,2.1-3.8,4.8-5.1,8c-1.2,3.2-1.8,7-1.8,11.3c0,3.7,0.5,7,1.5,10.1s2.5,5.8,4.5,8s4.7,4,7.8,5.3
		c3.1,1.3,6.8,1.9,11.1,1.9c1.7,0,3.3-0.1,4.9-0.3c1.6-0.2,3.1-0.4,4.5-0.7c1.4-0.3,2.6-0.6,3.7-0.9s1.9-0.7,2.6-0.9l-1.5-9.3
		c-1.4,0.6-3.2,1.1-5.4,1.6c-2.2,0.5-4.7,0.7-7.5,0.7c-4.7,0-8.2-1.1-10.7-3.2s-3.8-5.2-4.1-9.1h32.2l0.2-4.2
		C97.6,51.9,95.7,45.7,92,41.5 M76.4,44.7c1.7,0,3.1,0.3,4.3,0.9c1.2,0.6,2.3,1.4,3.1,2.4c0.8,0.9,1.4,2.1,1.9,3.6
		c0.4,1.4,0.7,2.9,0.7,4.4h-21c0.2-1.4,0.5-2.8,1-4.2c0.5-1.4,1.3-2.6,2.1-3.6c0.9-1.1,2-1.9,3.3-2.6C73.1,45,74.6,44.7,76.4,44.7
		 M176.1,36.8c-2.6-0.9-5.7-1.4-9.5-1.4c-3.1,0-6,0.3-8.7,0.8s-4.8,1-6.2,1.5l1.4,9.1c1.3-0.5,3.1-0.9,5.3-1.3
		c2.2-0.3,4.7-0.5,7.2-0.5c1.9,0,3.5,0.2,4.8,0.7s2.3,1.2,3.1,2.1s1.3,1.9,1.7,3.1c0.3,1.2,0.4,2.4,0.4,3.7v1.8
		c-1.6-0.4-3.1-0.7-4.4-0.8c-1.4-0.1-2.7-0.2-3.9-0.2c-2.6,0-5.2,0.3-7.7,0.8c-2.4,0.5-4.6,1.4-6.4,2.7c-1.9,1.2-3.3,2.7-4.4,4.7
		c-1.1,1.9-1.6,4.3-1.6,7c0,2.9,0.5,5.3,1.4,7.3c1,2,2.3,3.6,4,4.9c1.7,1.2,3.8,2.1,6.2,2.7c2.4,0.5,5.1,0.8,8,0.8
		c4.3,0,8.3-0.2,11.9-0.7c3.6-0.5,6.2-1,7.8-1.4V54.7c0-2.8-0.3-5.4-0.9-7.8c-0.7-2.4-1.8-4.4-3.2-6.1
		C180.6,39.1,178.6,37.7,176.1,36.8 M158.3,70.4c0-1.4,0.3-2.5,1-3.4c0.6-0.9,1.5-1.6,2.5-2.1s2.2-0.8,3.4-1
		c1.3-0.1,2.6-0.2,3.8-0.2c1.4,0,2.7,0.1,3.9,0.2c1.1,0.2,2,0.4,2.7,0.6V77c-1.8,0.4-4.4,0.6-7.9,0.6c-2.8,0-5.1-0.5-6.8-1.5
		C159.1,74.9,158.3,73.1,158.3,70.4z"/>
</g>
</svg>
