<?xml version="1.0" encoding="utf-8"?>
<!-- Generator: Adobe Illustrator 24.0.1, SVG Export Plug-In . SVG Version: 6.00 Build 0)  -->
<svg version="1.1" id="Layer_1" xmlns="http://www.w3.org/2000/svg" xmlns:xlink="http://www.w3.org/1999/xlink" x="0px" y="0px"
	 viewBox="0 0 1024 768" style="enable-background:new 0 0 1024 768;" xml:space="preserve">
<style type="text/css">
	.st0{fill:#8BC542;}
	.st1{fill:#5A5B5D;}
</style>
<path class="st0" d="M325.21,334.38c4.05-6.44,8.52-12.6,13-18.74c13.72-18.8,28.57-36.64,45.27-52.89
	c19.07-18.55,39.95-34.6,64.1-46.08c16.35-7.77,33.48-12.86,51.5-14.87c2.36-0.26,4.75-0.2,7.08-0.76c5.85,0,11.69,0,17.54,0
	c1.62,0.68,3.36,0.43,5.03,0.59c15.85,1.48,31.07,5.45,45.82,11.34c22.87,9.14,43.35,22.23,62.31,37.79
	c28.91,23.72,53.34,51.5,74.32,82.36c0.96,1.41,1.89,1.97,3.47,1.55c1.21-0.32,2.41-0.07,3.57,0.18c2.29,0.5,3.68,2.23,3.93,4.62
	c0.35,3.39-0.62,6.35-2.95,8.82c-2.31,2.45-4.91,4.54-8.35,5.1c-6,0.97-9.68-2.38-8.01-9c0.75-2.97,2.69-5.31,5.1-7.15
	c0.93-0.71,1.02-1.13,0.36-2.11c-7.51-11.04-15.54-21.69-24.08-31.95c-9.17-11.01-18.83-21.57-29.17-31.49
	c-21.45-20.58-44.84-38.44-71.92-51.12c-16.23-7.6-33.16-12.86-50.99-14.98c-26.48-3.16-51.9,1.06-76.36,11.45
	c-20.43,8.68-38.63,20.89-55.43,35.27c-23.73,20.31-43.76,43.94-61.94,69.22c-3.21,4.46-6.26,9.03-9.39,13.55
	C327.76,334.84,326.48,334.61,325.21,334.38z"/>
<path class="st0" d="M791.97,367.59c0-9.1,0.02-18.2-0.01-27.31c-0.01-2.81-0.22-5.61-1.07-8.31c-0.86-2.73-1.6-3.22-4.47-3.22
	c-2.87,0-5.73-0.05-8.6,0.02c-1.3,0.03-1.86-0.38-1.9-1.74c-0.11-3.47-0.1-3.63,3.42-3.51c8.99,0.31,17.63-1.3,26.09-4.3
	c4.73-1.68,4.87-1.53,4.72,3.5c-1.05,33.43-0.4,66.88-0.54,100.32c-0.02,3.65,0.04,7.33,0.92,10.92c0.22,0.88,0.49,1.77,0.88,2.58
	c0.86,1.76,1.91,2.19,3.77,1.56c2.92-0.99,5.94-1.67,8.79-2.92c0.69-0.3,1.48-0.73,2.3-0.27c0.57,0.32,0.7-0.17,0.89-0.47
	c2.35-3.55,5.52-6.26,8.96-8.66c1.3-0.9,1.1-1.53-0.07-2.24c-1.81-1.09-3.64-2.16-5.43-3.29c-7.55-4.75-10.92-11.85-11.04-20.52
	c-0.21-15.55,9.77-27.17,25.25-29.61c8.92-1.4,17.8-0.62,26.69,0.49c7.44,0.93,14.93,1.7,22.36-0.17c1.33-0.33,2.63-0.81,3.92-1.27
	c1.14-0.41,1.77-0.12,1.83,1.14c0.16,3.26-0.89,6.08-3.18,8.41c-0.91,0.92-2.13,1.03-3.35,1.07c-3.22,0.11-6.39-0.46-9.59-0.71
	c-1.03-0.08-2.5-0.63-3.04,0.37c-0.58,1.07,0.94,1.63,1.58,2.33c6.35,6.95,7.63,18.68,2.68,27.46
	c-5.48,9.72-14.03,15.15-24.96,16.88c-5.05,0.8-10.13,1.05-15.17-0.27c-0.36-0.09-0.86-0.09-1.16,0.09c-2.52,1.49-5,3.07-6.39,5.8
	c-1.75,3.43-0.56,6.12,3.17,7.08c3.13,0.8,6.35,0.91,9.55,0.99c6.87,0.18,13.74,0.08,20.59,0.76c7.25,0.72,14.13,2.44,20.49,6.26
	c10.35,6.21,10.95,19.37,6.67,26.89c-3.37,5.94-8.43,10.04-14.53,12.91c-6.45,3.03-13.36,4.39-20.4,5.03
	c-8.12,0.74-16.24,0.87-24.31-0.58c-4.54-0.82-8.89-2.16-12.77-4.77c-9.07-6.13-10.6-16.95-3.75-25.52c3.55-4.45,8.29-6.9,13.41-8.9
	c0.91-0.35,2.48-0.37,2.43-1.48c-0.05-0.9-1.61-0.72-2.5-1.01c-2.13-0.68-4.24-1.4-6.13-2.63c-1.94-1.26-3.45-2.86-3.72-5.28
	c-0.15-1.35-0.9-0.97-1.69-0.69c-7.32,2.64-14.65,5.22-21.85,8.19c-1.8,0.74-3.65,1.34-5.57,1.7c-2.25,0.42-2.77,0.01-2.77-2.33
	c0-3.26,0.03-6.53,0.03-9.79c0-0.62,0.18-1.35-0.5-1.7c-0.72-0.37-1.14,0.3-1.6,0.7c-3.04,2.63-6.26,5.02-9.74,7.02
	c-11.94,6.89-28.19,6.51-39.05-5.12c-3.87-4.15-5.89-9.24-7.32-14.57c-3-11.23-2.93-22.47,1.13-33.41
	c4.53-12.2,13.65-18.88,26.4-21.03c9.82-1.66,18.87,0.37,27.5,4.98c1.89,1.01,2.09,0.86,2.1-1.3c0.01-2.18,0-4.35,0-6.53
	C792.2,367.59,792.08,367.59,791.97,367.59z M793.33,424.74c-0.01,0-0.03,0-0.04,0c-0.2-7.38-0.45-14.75-0.59-22.13
	c-0.11-6.06-0.14-12.13-0.66-18.18c-0.17-1.97-1.05-3.29-2.73-4.25c-4.77-2.71-9.92-4.04-15.36-4.44
	c-8.46-0.62-17.42,4.58-20.82,12.35c-3.25,7.42-3.76,15.27-3.25,23.22c0.42,6.6,2.05,12.85,5.66,18.49
	c2.42,3.79,5.8,6.33,10.17,7.35c7.86,1.84,15.41,0.83,22.74-2.55c3.74-1.73,5.64-4.29,4.9-8.5
	C793.26,425.66,793.33,425.19,793.33,424.74z M855.17,454.27c-2.98,0.02-5.95-0.06-8.91,0.39c-5.46,0.84-10.38,2.7-14.08,7.07
	c-4.47,5.28-4.92,12.79-0.89,17.49c2.3,2.67,5.25,4.42,8.63,5.36c9.39,2.6,18.87,2.62,28.38,0.82c5.68-1.08,10.8-3.38,14.87-7.63
	c4.83-5.04,5.1-11.22,0.73-16.52c-1.89-2.29-4.33-3.69-7.16-4.48C869.69,454.79,862.46,454.3,855.17,454.27z M834.91,393.38
	c0,4.92,0.59,9.43,2.11,13.8c3.45,9.92,10.47,14.79,20.53,14.15c4.26-0.27,7.68-2.02,9.85-5.88c4.87-8.66,4.83-17.65,1.32-26.63
	c-3.67-9.4-12.87-14.51-22.84-13.18c-3.82,0.51-6.72,2.32-8.45,5.92C835.56,385.41,834.81,389.45,834.91,393.38z"/>
<path class="st1" d="M411.78,436.45c-4.43,3.64-9.2,6.75-14.46,9.08c-9.89,4.37-20.22,5.14-30.38,2.04
	c-11.81-3.61-19.76-11.85-23.02-23.89c-2.93-10.82-2.55-21.79,1.65-32.19c5.38-13.29,15.25-21.07,29.96-22.11
	c7.02-0.5,13.84-0.01,20.27,3.11c5.22,2.54,9.42,6.25,12.5,11.18c1.41,2.26,2.03,4.72,1.27,7.38c-0.47,1.64-1.52,2.49-3.24,2.5
	c-7.04,0.06-11.29-3.95-14.28-9.78c-0.78-1.53-1.33-3.15-1.82-4.8c-0.47-1.59-1.3-3-2.9-3.63c-4.75-1.86-14.84-2.45-20.02,2.96
	c-3.1,3.24-5.3,6.92-6.39,11.19c-2.98,11.63-2.79,23.08,2.2,34.22c4.69,10.48,12.99,15.21,24.21,15.45
	c8.48,0.18,16.3-1.73,23.32-6.73c1.29-0.92,1.88-1.78,2.27-3.2c2.25-8.09,7.85-13.3,15.18-16.72c7.28-3.39,15.05-5.41,22.83-7.33
	c2.46-0.61,2.57-0.7,2.61-3.17c0.08-4.81,0.28-9.61,0.06-14.42c-0.26-5.83-3.08-9.38-8.77-10.72c-4.19-0.98-8.29-0.55-12.26,1.15
	c-2.02,0.87-3.01,2.3-2.93,4.54c0.08,2.34,0.08,4.7-0.47,7c-1.46,6.11-6.45,9.4-12.62,8.37c-2.5-0.42-3.83-2.33-3.45-5.03
	c0.61-4.32,3.05-7.72,5.72-10.96c6.12-7.38,14.36-10.49,23.6-11.48c4.57-0.49,9.15-0.5,13.65,0.59c9.83,2.37,13.91,7.02,13.9,18.25
	c-0.01,10.68-0.92,21.37-1.42,32.05c-0.2,4.35,0.04,8.63,2.85,12.26c2.24,2.9,5.43,4.51,8.69,5.94c1.56,0.69,3.23,1.15,4.84,1.71
	c1.5,0.52,1.74,1.05,0.74,2.16c-2.43,2.7-5.2,5.06-8.52,6.54c-1.82,0.81-3.88,0.28-5.72-0.33c-7.62-2.51-13.48-7.13-17.04-14.45
	c-0.24-0.49-0.28-1.27-0.98-1.27c-0.54,0.01-0.69,0.7-0.97,1.11c-4.62,6.83-10.54,11.92-18.86,13.55
	c-5.7,1.12-11.18,0.33-16.19-2.76c-2.94-1.81-4.69-4.47-5.15-7.92c-0.05-0.4-0.12-0.79-0.21-1.18
	C412.03,436.67,411.91,436.6,411.78,436.45z M453.15,413.33c0-0.29,0-0.57,0-0.86c0-2.55-0.16-2.73-2.76-2.53
	c-5.88,0.46-11.02,2.86-15.68,6.32c-5.28,3.92-7.78,9.1-6.98,15.77c0.59,4.97,4.15,8.43,8.78,8.35c6.18-0.11,14.26-6.94,15.37-13.07
	C452.71,422.69,452.96,418.01,453.15,413.33z"/>
<path class="st0" d="M549.85,430.11c0.4-28.4,0.32-56.81,0.4-85.21c0.02-6.35,0.22-12.7,0.2-19.06c-0.01-2.74-0.22-5.49-0.95-8.16
	c-0.79-2.93-1.56-3.53-4.55-3.53c-2.41,0-4.82-0.07-7.22,0.03c-1.47,0.06-1.99-0.54-1.87-1.91c0.03-0.28,0-0.57,0-0.86
	c0.02-2.21,0.15-2.34,2.33-2.34c6.99,0,13.98-0.03,20.87-1.46c2.09-0.43,4.06-1.14,6-2.01c2.96-1.33,3.46-0.96,3.37,2.33
	c-0.22,7.95-0.49,15.9-0.68,23.85c-0.21,8.93-0.27,17.86-0.53,26.78c-0.21,7.21-0.17,14.42-0.23,21.64c0,0.5-0.23,1.18,0.22,1.45
	c0.62,0.38,1.01-0.35,1.42-0.67c2.66-2.08,5.36-4.11,8.13-6.04c10.07-7.03,30.64-6.99,41.54,7.91c5.12,7,7.32,14.92,7.83,23.42
	c0.46,7.57-0.09,15.04-3.4,21.99c-5.7,11.99-15.26,19.12-28.33,21.2c-9.55,1.52-18.82-0.05-27.69-3.89
	c-2.05-0.89-4.07-1.83-6.25-2.38c-2.59-0.65-3.66-0.15-4.73,2.32c-0.83,1.91-1.16,3.94-1.44,5.98c-0.27,1.94-0.68,2.22-2.73,2.17
	c-1.73-0.04-1.71-1.29-1.71-2.41C549.83,444.2,549.85,437.16,549.85,430.11z M567,407.72c0,4.7-0.02,9.39,0.01,14.09
	c0.03,5.27,0.35,10.51,1.36,15.7c0.41,2.09,1.56,3.46,3.51,4.3c4.84,2.08,9.94,2.64,15.13,2.48c10.61-0.33,19.62-7.13,22.43-17.36
	c3.03-11.03,2.21-21.86-2.89-32.24c-2.82-5.73-7.12-9.74-13.4-11.44c-4.65-1.25-9.38-1.5-14.14-1.03c-3.69,0.36-7.12,1.59-10.23,3.7
	c-1.25,0.85-1.83,1.84-1.81,3.41C567.04,395.46,567,401.59,567,407.72z"/>
<path class="st1" d="M502.68,383.27c0-18.9,0.04-37.79-0.03-56.69c-0.01-3.31-0.34-6.62-1.28-9.84c-0.49-1.68-1.37-2.61-3.31-2.48
	c-2.34,0.16-4.7,0.01-7.05,0.05c-1.17,0.02-1.64-0.48-1.65-1.64c-0.01-4.42,0.02-3.65,3.45-3.54c8.38,0.27,16.55-0.77,24.57-3.2
	c2.07-0.63,2.95,0.03,2.94,2.19c-0.09,12.31-0.02,24.61-0.31,36.92c-0.14,5.95-0.08,11.91-0.13,17.86
	c-0.14,13.85-0.24,27.7-0.45,41.55c-0.14,8.99-0.36,17.97-0.1,26.96c0.09,3.08,0.33,6.16,1.21,9.16c0.5,1.71,1.4,2.56,3.33,2.46
	c2.86-0.15,5.73,0,8.59-0.06c1.13-0.02,1.49,0.41,1.54,1.49c0.16,3.63,0.19,3.63-3.38,3.63c-13.35,0-26.7,0.01-40.06-0.01
	c-0.8,0-1.99,0.36-2.21-0.72c-0.26-1.31-0.41-2.74,0.16-4.04c0.23-0.52,0.93-0.32,1.43-0.32c3.32-0.01,6.65,0,9.97-0.01
	c2.6,0,2.87-0.27,2.87-2.84c0-18.96,0-37.91,0-56.87C502.75,383.27,502.72,383.27,502.68,383.27z"/>
<path class="st1" d="M141.1,449.47c-9.22,0.05-17.7-2.11-24.63-8.59c-6.25-5.84-9.92-13.09-11.26-21.48
	c-1.83-11.43-0.03-22.38,5.25-32.63c4.56-8.85,11.54-15.24,21.68-16.45c13.46-1.61,25.66,1.87,35.79,11.29
	c2.06,1.91,3.96,3.97,5.65,6.22c0.55,0.73,1.08,1.48,1.56,2.26c1.57,2.6,1.02,4.07-1.92,4.75c-5.01,1.16-10.03,2.33-15.09,3.29
	c-9.62,1.82-19.26,3.48-29.03,4.25c-2.05,0.16-4.12,0.13-6.18,0.09c-1.34-0.02-2.01,0.43-2.01,1.87
	c-0.01,9.55,2.12,18.45,7.65,26.42c2.29,3.29,5.32,5.45,9.07,6.71c8.19,2.74,16.48,3.1,24.87,1.06c3.68-0.89,7-2.54,9.82-5.05
	c1.32-1.18,2.13-0.76,3.13,0.29c1.17,1.23,0.08,1.89-0.62,2.51c-7.9,7.03-17.13,11.28-27.57,12.89c-0.96,0.15-1.93,0.25-2.9,0.29
	C143.28,449.51,142.19,449.47,141.1,449.47z M126.23,397.93c1.95-0.15,5.03-0.24,8.07-0.65c6.86-0.92,13.6-2.41,20.24-4.41
	c1.55-0.47,1.83-1.23,1.26-2.64c-3-7.43-8.17-12.6-15.92-14.86c-4.21-1.22-8.17-0.52-11.42,2.72c-1.64,1.63-2.91,3.5-3.73,5.68
	c-1.24,3.32-2.2,6.71-2.78,10.22C121.3,397.92,121.36,398.05,126.23,397.93z"/>
<path class="st0" d="M929.98,449.55c-8.46-0.01-15.54-1.37-21.74-5.66c-8.56-5.92-13.43-14.29-15.05-24.44
	c-1.98-12.4,0.04-24.26,6.59-34.99c6.49-10.63,16.15-15.53,28.82-14.43c13.67,1.19,24.74,6.92,33.02,17.9
	c0.58,0.78,1.16,1.57,1.64,2.41c1.34,2.37,0.77,3.84-1.85,4.46c-4.67,1.1-9.36,2.16-14.07,3.1c-9.43,1.88-18.92,3.36-28.48,4.38
	c-2.61,0.28-5.26,0.2-7.9,0.19c-1.41,0-2.11,0.44-2.1,1.97c0.06,10.29,2.45,19.82,8.99,28.02c1.84,2.31,4.3,3.75,7.04,4.72
	c9.19,3.28,18.46,3.58,27.79,0.66c2.81-0.88,5.37-2.33,7.53-4.33c1.25-1.16,2.13-0.91,3.16,0.19c1.19,1.27,0.11,1.96-0.66,2.65
	c-7.29,6.54-15.83,10.57-25.4,12.48C934.55,449.37,931.76,449.65,929.98,449.55z M913.55,397.97c3.8-0.15,7.61-0.35,11.36-1.02
	c5.88-1.06,11.73-2.29,17.49-3.93c1.48-0.42,2.07-1.35,1.42-2.86c-2.92-6.85-7.63-11.95-14.74-14.43
	c-3.97-1.38-8.02-1.45-11.56,1.43c-2.17,1.76-3.81,3.92-4.84,6.55c-1.41,3.63-2.32,7.4-3.07,11.21c-0.49,2.48,0.07,3.07,2.55,3.06
	C912.64,397.96,913.09,397.96,913.55,397.97z"/>
<path class="st1" d="M190.74,412.71c0-8.59,0-17.18,0-25.77c0-2.75-0.11-5.49-0.64-8.2c-0.57-2.92-1.17-3.4-4.11-3.4
	c-2.24,0-4.47-0.05-6.7,0.02c-1.22,0.04-1.6-0.43-1.58-1.6c0.07-4.4-0.38-3.62,3.63-3.68c5.38-0.08,10.77,0.1,16.15-0.22
	c2.67-0.16,5.14-1.1,7.72-1.53c1.91-0.32,2.45,0.07,2.42,1.97c-0.05,2.74-0.21,5.49-0.31,8.23c-0.02,0.63-0.15,1.43,0.44,1.74
	c0.56,0.3,0.98-0.42,1.41-0.74c3.65-2.74,6.94-5.99,11.25-7.8c3.5-1.47,7.05-2.27,10.87-1.63c4.15,0.69,7.27,2.89,9.62,6.29
	c0.57,0.83,0.57,1.72,0.41,2.64c-0.59,3.44-1.31,6.85-2.7,10.08c-0.16,0.37-0.29,0.75-0.49,1.09c-1.46,2.6-2.95,2.75-4.58,0.31
	c-2.53-3.78-5.7-6.63-10.38-7.15c-4.76-0.54-9.35,0.14-13.61,2.52c-1.64,0.91-2.29,2.15-2.29,4.03c0.04,11.17,0.01,22.33-0.03,33.5
	c-0.02,4.69-0.21,9.38,0.39,14.06c0.07,0.57,0.16,1.13,0.28,1.69c0.74,3.51,1.02,3.75,4.6,3.87c3.78,0.13,7.55,0.29,11.33,0.34
	c1.4,0.02,1.91,0.53,1.91,1.94c0,3.2,0.06,3.21-3.16,3.18c-13.86-0.13-27.72-0.26-41.59-0.4c-2.03-0.02-2.1-0.12-2.1-2.55
	c0-2.46,0.07-2.55,2.06-2.55c2.46-0.01,4.93,0.01,7.39-0.01c2.02-0.02,2.37-0.38,2.37-2.44
	C190.75,431.26,190.74,421.99,190.74,412.71z"/>
<path class="st0" d="M636.47,412.84c0-8.48,0-16.95,0-25.43c0-2.86-0.11-5.72-0.64-8.54c-0.56-3-1.21-3.53-4.19-3.53
	c-2.24,0-4.47-0.04-6.71,0.02c-1.12,0.03-1.52-0.39-1.5-1.5c0.07-4.5-0.45-3.71,3.71-3.77c6.29-0.1,12.61,0.34,18.87-0.61
	c1.74-0.27,3.45-0.77,5.17-1.19c1.54-0.37,2.19,0.37,2.17,1.79c-0.05,2.63-0.2,5.26-0.3,7.89c-0.02,0.46-0.04,0.92,0,1.37
	c0.09,1.05,0.49,1.31,1.39,0.58c2.13-1.73,4.23-3.52,6.47-5.11c4.78-3.42,9.95-5.63,16.04-4.68c4.16,0.65,7.28,2.86,9.64,6.26
	c0.52,0.76,0.62,1.59,0.48,2.46c-0.6,3.62-1.4,7.18-2.84,10.57c-0.18,0.42-0.38,0.84-0.64,1.21c-1.46,2.14-2.77,2.22-4.22,0.05
	c-2.56-3.82-5.72-6.76-10.48-7.3c-4.89-0.56-9.59,0.15-13.91,2.68c-1.21,0.71-1.97,1.66-1.97,3.17c0.02,15.12-0.01,30.23,0.04,45.35
	c0.01,2.11,0.33,4.21,0.97,6.25c0.47,1.48,1.28,2.21,2.98,2.22c4.23,0.01,8.47,0.25,12.7,0.34c1.23,0.03,1.72,0.53,1.77,1.75
	c0.15,3.38,0.19,3.4-3.19,3.37c-13.86-0.12-27.73-0.26-41.59-0.39c-2.01-0.02-2.11-0.15-2.1-2.56c0.01-2.42,0.1-2.54,2.1-2.54
	c2.35-0.01,4.7,0,7.05,0c2.37-0.01,2.71-0.33,2.71-2.65C636.47,431.17,636.47,422,636.47,412.84z"/>
<path class="st1" d="M267.84,403.79c0,7.62-0.03,15.23,0.02,22.85c0.01,2.23,0.39,4.44,1.07,6.58c0.8,2.49,2.38,4.14,5,4.65
	c7.7,1.49,15.26,1.11,22.63-1.68c0.75-0.28,1.49-0.58,2.22-0.92c1.06-0.49,1.96-1.03,2.84,0.48c0.87,1.5,0.72,2.5-0.62,3.5
	c-6.05,4.49-12.94,7.03-20.22,8.55c-5.72,1.19-11.47,1.52-17.15-0.29c-7.04-2.24-11.63-8.14-11.63-15.51
	c0.01-10.87,0.26-21.75,0.5-32.62c0.13-5.9,0.09-11.79-0.17-17.67c-0.09-1.99-1.17-3.43-2.95-4.3c-1.8-0.87-3.63-1.68-5.46-2.5
	c-0.94-0.42-1.72-1.02-1.78-2.12c-0.06-1.1,0.69-1.71,1.55-2.28c7.07-4.68,13.94-9.64,20.49-15.02c0.69-0.57,1.45-0.91,2.33-1
	c1.76-0.18,2.52,0.44,2.39,2.19c-0.26,3.48-0.6,6.95-0.96,10.43c-0.28,2.68,0.01,3.09,2.69,3.32c8.34,0.7,16.68,1.08,25.05,1.08
	c2.21,0,2.52,0.37,2.06,2.54c-0.3,1.4-0.72,2.77-1,4.17c-0.27,1.37-1.02,1.93-2.41,1.84c-4.74-0.3-9.49-0.57-14.23-0.84
	c-3.54-0.21-7.09-0.39-10.63-0.64c-1.45-0.1-1.72,0.61-1.71,1.86c0.03,7.79,0.02,15.58,0.02,23.37
	C267.8,403.79,267.82,403.79,267.84,403.79z"/>
<path class="st1" d="M44.12,370.96c5.5,0,11,0.04,16.5-0.03c1.5-0.02,1.99,0.45,1.93,1.97c-0.15,3.63,0.47,3.07-3.08,3.12
	c-1.78,0.02-3.55,0.06-5.33-0.01c-1.56-0.06-2.07,0.73-1.92,2.12c0.15,1.43,0.57,2.8,1.09,4.13c5.71,14.46,12.18,28.59,18.31,42.87
	c0.18,0.42,0.44,0.8,0.68,1.19c0.42,0.69,0.86,0.67,1.3,0.01c0.19-0.29,0.39-0.57,0.53-0.88c4.43-10.1,9.32-20,13.14-30.36
	c1.6-4.35,2.89-8.79,3.19-13.46c0.03-0.51,0.06-1.03,0.06-1.54c0-3.22-0.59-3.82-3.75-3.82c-2.35,0-4.7-0.04-7.05,0.02
	c-1.13,0.03-1.71-0.31-1.69-1.54c0.05-4.38-0.32-3.75,3.58-3.76c8.36-0.02,16.73-0.01,25.1-0.01c2.16,0,2.18,0.02,2.18,2.22
	c0,0.06,0,0.11,0,0.17c-0.04,3.33,0.41,2.92-2.94,2.87c-1.52-0.02-2.57,0.3-3.3,1.81c-10.52,21.63-20.62,43.46-30.3,65.48
	c-0.53,1.2-1,2.44-1.65,3.58c-1.57,2.74-3.83,2.82-5.63,0.25c-1.02-1.46-1.68-3.12-2.38-4.74c-8.16-18.82-16.64-37.49-25.13-56.16
	c-1.16-2.55-2.19-5.15-3.82-7.46c-1.46-2.07-3.26-3.29-5.94-3c-0.76,0.08-2,0.51-2.29-0.52c-0.36-1.29-0.37-2.75,0.05-4.05
	c0.2-0.62,1.1-0.45,1.71-0.45C32.89,370.96,38.51,370.96,44.12,370.96z"/>
<path class="st1" d="M323.69,448.09c-6.59,0-13.18-0.05-19.77,0.03c-1.66,0.02-2.19-0.49-2.12-2.16c0.15-3.5-0.36-2.94,3.06-2.98
	c2.46-0.03,4.93,0,7.39-0.01c2.15-0.01,2.38-0.25,2.41-2.35c0.11-8.13,0.25-16.25,0.34-24.38c0.1-9.04,0.19-18.09,0.22-27.13
	c0.01-3.37-0.06-6.75-0.9-10.06c-0.74-2.91-1.38-3.38-4.4-3.38c-2.29,0-4.59-0.05-6.88,0.02c-1.22,0.04-1.57-0.46-1.59-1.62
	c-0.08-4.24-0.11-4.26,4.06-4.24c7.96,0.05,15.92,0.07,23.84-1.01c2.9-0.4,3.21,0.06,3.07,3.44c-0.71,18.3-1.43,36.6-1.24,54.91
	c0.04,4.11,0.1,8.24,0.97,12.3c0.67,3.13,1.14,3.51,4.35,3.51c2.52,0,5.04,0.04,7.56-0.02c1.05-0.02,1.44,0.38,1.43,1.39
	c-0.04,4.26,0.38,3.71-3.43,3.72C335.95,448.1,329.82,448.09,323.69,448.09z"/>
<path class="st0" d="M713.86,448.09c-6.59,0-13.18-0.04-19.77,0.03c-1.67,0.02-2.33-0.57-2.16-2.2c0.05-0.45,0.04-0.92,0-1.37
	c-0.1-1.18,0.38-1.62,1.59-1.59c3.04,0.07,6.07-0.02,9.11,0.04c1.6,0.03,2.29-0.59,2.29-2.22c0.01-4.98,0.09-9.96,0.16-14.94
	c0.19-13.74,0.38-27.48,0.2-41.22c-0.03-2.17-0.32-4.33-1-6.42c-0.56-1.73-1.58-2.64-3.53-2.56c-2.52,0.11-5.04-0.02-7.56,0.05
	c-1.14,0.03-1.47-0.45-1.53-1.51c-0.23-4.35-0.25-4.37,4.15-4.35c7.91,0.04,15.8,0.08,23.67-1c2.97-0.41,3.06-0.21,3.07,2.84
	c0.05,9.85-0.91,19.66-0.98,29.5c-0.08,11.67-0.57,23.36,0.28,35.02c0.12,1.71,0.43,3.4,1.03,5.03c0.45,1.2,1.2,1.82,2.58,1.78
	c2.92-0.08,5.85,0.01,8.77-0.04c1.04-0.02,1.43,0.33,1.41,1.38c-0.08,4.35,0.52,3.72-3.55,3.74
	C726.01,448.12,719.93,448.09,713.86,448.09z"/>
<path class="st1" d="M325.21,334.38c1.28,0.23,2.55,0.45,3.83,0.68c3.79,1.98,3.69,6.97,2.02,10.18c-2.18,4.21-5.65,7.06-10.31,8.12
	c-5.89,1.34-9.78-2.88-8.2-8.72c1.4-5.17,6.25-9.36,11.52-9.97C324.45,334.63,324.83,334.48,325.21,334.38z"/>
<path class="st1" d="M979.54,482.96c0.74-2.41,1.42-4.29,1.87-6.23c0.29-1.22,1.04-1.14,1.92-1.1c1.08,0.06,0.66,0.9,0.67,1.42
	c0.05,2.12,0.05,4.23,0,6.35c-0.01,0.55,0.49,1.53-0.75,1.49c-1.09-0.03-0.64-0.9-0.66-1.42c-0.06-1.64-0.02-3.28-0.34-4.99
	c-0.55,1.76-1.1,3.52-1.66,5.28c-0.16,0.51-0.14,1.12-0.98,1.17c-0.93,0.05-0.97-0.63-1.15-1.19c-0.54-1.66-1.04-3.33-1.55-5
	c-0.17,0.01-0.34,0.03-0.5,0.04c0,1.65,0.02,3.3-0.01,4.94c-0.01,0.5,0.26,1.21-0.73,1.19c-0.99-0.02-0.68-0.75-0.68-1.24
	c-0.03-2.29-0.02-4.58-0.01-6.86c0-0.53-0.21-1.25,0.75-1.18c0.67,0.05,1.47-0.33,1.78,0.78
	C978.05,478.45,978.74,480.44,979.54,482.96z"/>
<path class="st1" d="M969.43,480.82c0-0.51-0.06-1.04,0.01-1.54c0.24-1.63-0.11-2.66-2.08-2.28c-0.46,0.09-0.92,0.01-0.92-0.67
	c0-0.68,0.44-0.69,0.92-0.69c1.89,0,3.78,0,5.66,0c0.47,0,0.91-0.02,0.91,0.68c0,0.69-0.43,0.77-0.89,0.68
	c-2.04-0.4-2.2,0.74-2.08,2.33c0.11,1.54,0.01,3.09,0.03,4.63c0,0.58-0.07,0.97-0.82,0.98c-0.83,0-0.73-0.51-0.73-1.02
	C969.43,482.88,969.43,481.85,969.43,480.82z"/>
</svg>
