<svg xmlns="http://www.w3.org/2000/svg" role="img" viewBox="1.15 -8.35 850.20 233.20"><title>Vertiv logo</title><style>svg {fill-rule:evenodd;clip-rule:evenodd;stroke-linejoin:round;stroke-miterlimit:1.41421}</style><path fill="#222" fill-rule="nonzero" d="M124.059 107.925l40.493-41.994 53.679-.701C200.549 31.234 165.028 8 124.059 8 83.086 8 47.563 31.238 29.882 65.239l51.911.692 42.266 41.994zM29.6444 65.69585c-7.45896 14.51814-11.69586 30.96404-11.69615 48.40826 0 41.073 23.3514 76.6696 57.48915 94.30584l47.87907-48.04902L29.6444 65.69585zM230.167 114.108c0-17.625-4.322-34.231-11.926-48.858l-94.921 95.114L171.532 209c34.76-17.426 58.635-53.361 58.635-94.892m84.318-48.69l-25.006.184L326.197 162h22.207l36.27-96.393-23.938-.068-23.634 64.379-22.617-64.5zM403 65v97h70v-20h-48v-20h39v-19h-39V86h48V65h-70zm346.763.418l-25.006.184L761.475 162h22.207l36.27-96.393-23.938-.068-23.634 64.379-22.617-64.5z"/><path fill="#222" d="M615 65h24v97h-24z"/><path fill="#222" d="M668 65h-82v21h82zm17 0h22v97h-22zm128 83h2v15h-2zm9-1h2v16h-2z"/><path fill="#222" fill-rule="nonzero" d="M822.181 147l5.735 16h1.241l.595-2.306L824.765 147h-2.584z"/><path fill="#222" fill-rule="nonzero" d="M835.387 147l-5.735 16h-1.179l-.657-2.306L832.803 147h2.584z"/><path fill="#222" d="M833 147h2v16h-2zm-12 0h-13v2h13zM498 65h22v97h-22z"/><path fill="#222" fill-rule="nonzero" d="M520.054 64.914h18.51c2.302 0 5.878.337 6.397.426 5.022.857 28.585 6.136 28.585 32.642 0 27.245-27.512 31.126-31.72 31.56-.315.033-.628.049-.945.049h-20.827c-5.103 0-5.103-18.479 0-18.479h19.245c1.43 0 2.839-.327 4.118-.967 2.975-1.49 7.598-4.963 7.598-12.163 0-8.247-6.699-11.017-9.69-11.843-.778-.215-1.583-.315-2.39-.315h-18.881c-5.103 0-5.103-20.91 0-20.91"/><path fill="#222" fill-rule="nonzero" d="M528.96937 129.02567l23.25675 32.97709 25.27723-.00011-31.68546-44.83842-16.84852 11.86144z"/></svg>