<?xml version="1.0" encoding="utf-8"?>
<!-- Generator: Adobe Illustrator 28.4.1, SVG Export Plug-In . SVG Version: 6.00 Build 0)  -->
<svg version="1.1" id="Layer_1" xmlns="http://www.w3.org/2000/svg" xmlns:xlink="http://www.w3.org/1999/xlink" x="0px" y="0px"
	 width="400px" height="245px" viewBox="0 0 400 245" style="enable-background:new 0 0 400 245;" xml:space="preserve">
<style type="text/css">
	.st0{fill:#8E8F94;}
	.st1{fill:url(#SVGID_1_);}
	.st2{fill:url(#SVGID_00000099648367400155886920000003332104599190394504_);}
	.st3{filter:url(#Adobe_OpacityMaskFilter);}
	.st4{fill:url(#SVGID_00000152952728356634384810000006758077727568489905_);}
	
		.st5{mask:url(#SVGID_00000023269653964645920080000010885713432521593222_);fill:url(#SVGID_00000150076571485826501080000014514181813160760205_);}
</style>
<g>
	<g>
		<path class="st0" d="M0,195.8h8.4l9.1,25l9.2-25h8.2L21,230.1h-7L0,195.8z"/>
		<path class="st0" d="M38.2,183.2h7.9v7.4h-7.9V183.2z M38.2,195.8h7.9v34.3h-7.9V195.8z"/>
		<path class="st0" d="M72.5,229.8v-4.2c-1.2,1.4-2.6,2.5-4.4,3.5c-1.8,0.9-4,1.4-6.6,1.4c-1.6,0-3.2-0.2-4.6-0.7
			c-1.5-0.5-2.7-1.1-3.8-2s-2-2-2.6-3.3c-0.7-1.3-1-2.8-1-4.5v-0.1c0-1.9,0.3-3.5,1-4.9s1.6-2.6,2.9-3.5c1.2-0.9,2.7-1.6,4.4-2.1
			s3.5-0.7,5.5-0.7c2.1,0,3.8,0.1,5.2,0.4c1.4,0.3,2.8,0.6,4.2,1v-0.6c0-2.4-0.7-4.2-2.2-5.4c-1.4-1.2-3.5-1.9-6.2-1.9
			c-1.9,0-3.7,0.2-5.2,0.6c-1.5,0.4-3,0.9-4.6,1.5l-2.1-6.2c1.9-0.9,3.8-1.5,5.8-2.1c2-0.5,4.4-0.8,7.1-0.8c5.1,0,8.8,1.3,11.3,3.8
			s3.7,6,3.7,10.6v20.2H72.5z M72.7,215.6c-1-0.4-2.2-0.7-3.5-1c-1.4-0.3-2.8-0.4-4.3-0.4c-2.4,0-4.4,0.5-5.7,1.4
			c-1.4,0.9-2.1,2.2-2.1,3.9v0.1c0,1.6,0.6,2.9,1.9,3.7c1.3,0.9,2.8,1.3,4.7,1.3c1.3,0,2.5-0.2,3.6-0.5s2-0.8,2.9-1.4
			c0.8-0.6,1.4-1.4,1.9-2.3c0.4-0.9,0.7-1.9,0.7-2.9L72.7,215.6L72.7,215.6z"/>
		<path class="st0" d="M101.1,230.6c-2.5,0-4.9-0.5-7-1.4s-4-2.2-5.6-3.8s-2.8-3.5-3.7-5.6c-0.9-2.1-1.3-4.4-1.3-6.8v-0.1
			c0-2.4,0.4-4.7,1.3-6.9s2.1-4.1,3.7-5.7c1.6-1.6,3.5-2.9,5.6-3.8c2.2-0.9,4.5-1.4,7-1.4c3.2,0,5.9,0.5,8,1.6s4,2.5,5.6,4.2
			l-4.8,5.2c-1.2-1.2-2.5-2.3-3.8-3.1c-1.4-0.8-3-1.2-5-1.2c-1.4,0-2.7,0.3-3.9,0.9c-1.2,0.6-2.2,1.4-3.1,2.3c-0.9,1-1.5,2.1-2,3.4
			c-0.5,1.3-0.7,2.7-0.7,4.2v0.1c0,1.5,0.2,2.9,0.7,4.2s1.2,2.5,2.1,3.5s2,1.8,3.2,2.4c1.2,0.6,2.6,0.9,4.1,0.9
			c1.8,0,3.5-0.4,4.9-1.2s2.7-1.8,4-3.1l4.7,4.6c-1.7,1.9-3.6,3.4-5.7,4.6C107.1,230,104.4,230.6,101.1,230.6z"/>
		<path class="st0" d="M131.8,230.6c-2.5,0-4.9-0.5-7-1.4s-4-2.2-5.6-3.8s-2.8-3.5-3.7-5.6c-0.9-2.1-1.3-4.4-1.3-6.8v-0.1
			c0-2.4,0.4-4.7,1.3-6.9s2.1-4.1,3.7-5.7c1.6-1.6,3.5-2.9,5.6-3.8c2.2-0.9,4.5-1.4,7.1-1.4c3.2,0,5.9,0.5,8,1.6s4,2.5,5.6,4.2
			l-4.8,5.2c-1.2-1.2-2.5-2.3-3.8-3.1c-1.4-0.8-3-1.2-5-1.2c-1.4,0-2.7,0.3-3.9,0.9c-1.2,0.6-2.2,1.4-3.1,2.3c-0.9,1-1.5,2.1-2,3.4
			c-0.5,1.3-0.7,2.7-0.7,4.2v0.1c0,1.5,0.2,2.9,0.7,4.2s1.2,2.5,2.1,3.5s2,1.8,3.2,2.4c1.2,0.6,2.6,0.9,4.1,0.9
			c1.8,0,3.5-0.4,4.9-1.2s2.7-1.8,4-3.1l4.7,4.6c-1.7,1.9-3.6,3.4-5.7,4.6C137.8,230,135.1,230.6,131.8,230.6z"/>
		<path class="st0" d="M162.4,230.6c-2.4,0-4.7-0.4-6.9-1.3c-2.1-0.9-4-2.1-5.5-3.6c-1.6-1.5-2.8-3.4-3.7-5.6
			c-0.9-2.2-1.4-4.6-1.4-7.2v-0.1c0-2.4,0.4-4.7,1.2-6.9c0.8-2.1,2-4,3.4-5.6c1.5-1.6,3.2-2.9,5.2-3.8c2-0.9,4.2-1.4,6.7-1.4
			c2.7,0,5.1,0.5,7.1,1.5s3.7,2.3,5.1,4c1.4,1.7,2.4,3.6,3.1,5.8c0.7,2.2,1,4.5,1,7c0,0.3,0,0.7,0,1.1c0,0.4-0.1,0.7-0.1,1.1h-25
			c0.4,2.8,1.5,4.9,3.3,6.4s3.9,2.2,6.5,2.2c1.9,0,3.6-0.3,5-1s2.8-1.7,4.2-3l4.6,4.1c-1.6,1.9-3.6,3.5-5.8,4.6
			C168.2,230,165.5,230.6,162.4,230.6z M170.1,210.4c-0.1-1.2-0.4-2.4-0.8-3.5c-0.4-1.1-1-2-1.7-2.8s-1.6-1.4-2.6-1.9
			s-2.2-0.7-3.4-0.7c-2.4,0-4.4,0.8-6,2.5s-2.5,3.8-2.9,6.5h17.4V210.4z"/>
		<path class="st0" d="M192.3,230.5c-2.4,0-4.9-0.4-7.4-1.3c-2.5-0.9-4.8-2.1-7-3.8l3.5-5.3c1.8,1.4,3.7,2.4,5.6,3.1
			c1.9,0.7,3.7,1.1,5.5,1.1c1.7,0,3-0.3,3.9-1s1.4-1.6,1.4-2.7v-0.1c0-0.6-0.2-1.2-0.6-1.7c-0.4-0.5-1-0.9-1.7-1.2s-1.5-0.7-2.4-1
			s-1.9-0.6-2.9-0.9c-1.2-0.3-2.5-0.7-3.8-1.2s-2.4-1.1-3.4-1.8s-1.8-1.7-2.5-2.8c-0.6-1.1-1-2.5-1-4.1v-0.1c0-1.6,0.3-3,0.9-4.3
			c0.6-1.3,1.5-2.4,2.6-3.3c1.1-0.9,2.4-1.6,3.9-2.1s3.1-0.7,4.7-0.7c2.1,0,4.3,0.3,6.5,1s4.2,1.6,6,2.9l-3.1,5.6
			c-1.6-1-3.3-1.8-5-2.3c-1.7-0.6-3.2-0.9-4.6-0.9c-1.5,0-2.7,0.3-3.5,1c-0.8,0.6-1.3,1.5-1.3,2.4v0.1c0,0.6,0.2,1.1,0.6,1.6
			c0.4,0.4,1,0.9,1.7,1.2c0.7,0.4,1.5,0.7,2.4,1s1.9,0.6,2.9,0.9c1.2,0.4,2.5,0.8,3.7,1.3s2.4,1.1,3.4,1.9c1,0.8,1.8,1.7,2.5,2.7
			c0.6,1.1,1,2.4,1,3.9v0.1c0,1.8-0.3,3.4-1,4.7c-0.6,1.3-1.5,2.4-2.7,3.3c-1.1,0.9-2.5,1.5-4,2
			C195.8,230.2,194.1,230.5,192.3,230.5z"/>
		<path class="st0" d="M220.5,230.5c-2.4,0-4.9-0.4-7.4-1.3c-2.5-0.9-4.8-2.1-7-3.8l3.5-5.3c1.8,1.4,3.7,2.4,5.6,3.1
			c1.9,0.7,3.7,1.1,5.5,1.1c1.7,0,3-0.3,3.9-1s1.4-1.6,1.4-2.7v-0.1c0-0.6-0.2-1.2-0.6-1.7c-0.4-0.5-1-0.9-1.7-1.2s-1.5-0.7-2.4-1
			s-1.9-0.6-2.9-0.9c-1.2-0.3-2.5-0.7-3.8-1.2s-2.4-1.1-3.4-1.8s-1.8-1.7-2.5-2.8c-0.6-1.1-1-2.5-1-4.1v-0.1c0-1.6,0.3-3,0.9-4.3
			c0.6-1.3,1.5-2.4,2.6-3.3c1.1-0.9,2.4-1.6,3.9-2.1s3.1-0.7,4.7-0.7c2.1,0,4.3,0.3,6.5,1s4.2,1.6,6,2.9l-3.1,5.6
			c-1.6-1-3.3-1.8-5-2.3c-1.7-0.6-3.2-0.9-4.6-0.9c-1.5,0-2.7,0.3-3.5,1c-0.8,0.6-1.3,1.5-1.3,2.4v0.1c0,0.6,0.2,1.1,0.6,1.6
			c0.4,0.4,1,0.9,1.7,1.2c0.7,0.4,1.5,0.7,2.4,1s1.9,0.6,2.9,0.9c1.2,0.4,2.5,0.8,3.7,1.3s2.4,1.1,3.4,1.9c1,0.8,1.8,1.7,2.5,2.7
			c0.6,1.1,1,2.4,1,3.9v0.1c0,1.8-0.3,3.4-1,4.7c-0.6,1.3-1.5,2.4-2.7,3.3c-1.1,0.9-2.5,1.5-4,2
			C223.9,230.2,222.3,230.5,220.5,230.5z"/>
	</g>
	<g>
		<path class="st0" d="M276.4,230.7c-2.6,0-5-0.5-7.2-1.4s-4.1-2.2-5.7-3.8s-2.9-3.5-3.8-5.6s-1.4-4.4-1.4-6.8V213
			c0-2.4,0.5-4.7,1.4-6.9c0.9-2.1,2.2-4,3.8-5.6c1.6-1.6,3.5-2.9,5.7-3.8c2.2-0.9,4.6-1.4,7.2-1.4s5,0.5,7.2,1.4s4.1,2.2,5.7,3.8
			s2.9,3.5,3.8,5.6s1.4,4.4,1.4,6.9v0.1c0,2.4-0.5,4.7-1.4,6.8s-2.2,4-3.8,5.6c-1.6,1.6-3.5,2.9-5.8,3.8
			C281.4,230.2,279,230.7,276.4,230.7z M276.5,224c1.6,0,3-0.3,4.3-0.9c1.3-0.6,2.3-1.4,3.2-2.4c0.9-1,1.6-2.1,2-3.4
			c0.5-1.3,0.7-2.7,0.7-4.2V213c0-1.5-0.3-2.9-0.8-4.3c-0.5-1.3-1.2-2.5-2.1-3.5s-2-1.8-3.3-2.4c-1.3-0.6-2.7-0.9-4.2-0.9
			s-2.9,0.3-4.2,0.9c-1.3,0.6-2.3,1.4-3.2,2.3c-0.9,1-1.6,2.1-2,3.4c-0.5,1.3-0.7,2.7-0.7,4.2v0.1c0,1.5,0.3,2.9,0.8,4.2
			s1.2,2.5,2.1,3.5s2,1.8,3.3,2.4C273.6,223.7,275,224,276.5,224z"/>
		<path class="st0" d="M297.9,195.9h7.9v7.7c1.1-2.6,2.6-4.6,4.6-6.2c2-1.5,4.5-2.3,7.5-2.1v8.2h-0.4c-1.7,0-3.3,0.3-4.7,0.8
			c-1.4,0.6-2.6,1.4-3.7,2.5c-1,1.1-1.8,2.5-2.4,4.2s-0.8,3.7-0.8,5.9v12.9H298v-33.9H297.9z"/>
		<path class="st0" d="M336.1,230.7c-2.5,0-4.9-0.5-7-1.4s-4-2.2-5.6-3.8s-2.8-3.5-3.7-5.6c-0.9-2.1-1.3-4.4-1.3-6.8V213
			c0-2.4,0.4-4.7,1.3-6.9s2.1-4.1,3.7-5.7c1.6-1.6,3.5-2.9,5.6-3.8c2.2-0.9,4.5-1.4,7.1-1.4c3.2,0,5.9,0.5,8,1.6s4,2.5,5.6,4.2
			l-4.8,5.2c-1.2-1.2-2.5-2.3-3.8-3.1c-1.4-0.8-3-1.2-5-1.2c-1.4,0-2.7,0.3-3.9,0.9c-1.2,0.6-2.2,1.4-3.1,2.3c-0.9,1-1.5,2.1-2,3.4
			c-0.5,1.3-0.7,2.7-0.7,4.2v0.1c0,1.5,0.2,2.9,0.7,4.2s1.2,2.5,2.1,3.5s2,1.8,3.2,2.4c1.2,0.6,2.6,0.9,4.1,0.9
			c1.8,0,3.5-0.4,4.9-1.2s2.7-1.8,4-3.1l4.7,4.6c-1.7,1.9-3.6,3.4-5.7,4.6C342.1,230.1,339.4,230.7,336.1,230.7z"/>
		<path class="st0" d="M375.4,229.9v-4.2c-1.2,1.4-2.6,2.5-4.4,3.5c-1.8,0.9-4,1.4-6.6,1.4c-1.6,0-3.2-0.2-4.6-0.7
			c-1.5-0.5-2.7-1.1-3.8-2c-1.1-0.9-2-2-2.6-3.3c-0.7-1.3-1-2.8-1-4.5V220c0-1.9,0.3-3.5,1-4.9s1.6-2.6,2.9-3.5
			c1.2-0.9,2.7-1.6,4.4-2.1c1.7-0.5,3.5-0.7,5.5-0.7c2.1,0,3.8,0.1,5.2,0.4c1.4,0.3,2.8,0.6,4.2,1v-0.6c0-2.4-0.7-4.2-2.2-5.4
			c-1.4-1.2-3.5-1.9-6.2-1.9c-1.9,0-3.6,0.2-5.1,0.6c-1.5,0.4-3,0.9-4.6,1.5l-2.1-6.2c1.9-0.9,3.8-1.5,5.8-2.1
			c2-0.5,4.4-0.8,7.1-0.8c5.1,0,8.8,1.3,11.3,3.8c2.4,2.5,3.7,6,3.7,10.6v20.2L375.4,229.9L375.4,229.9z M375.6,215.7
			c-1-0.4-2.2-0.7-3.5-1c-1.4-0.3-2.8-0.4-4.3-0.4c-2.4,0-4.4,0.5-5.7,1.4c-1.4,0.9-2.1,2.2-2.1,3.9v0.1c0,1.6,0.6,2.9,1.9,3.7
			c1.3,0.9,2.8,1.3,4.7,1.3c1.3,0,2.5-0.2,3.6-0.5s2-0.8,2.9-1.4c0.8-0.6,1.4-1.4,1.9-2.3c0.4-0.9,0.7-1.9,0.7-2.9v-1.9H375.6z"/>
	</g>
	<path class="st0" d="M250.8,212.8c0,3.1-2.5,5.7-5.7,5.7c-3.1,0-5.7-2.5-5.7-5.7c0-3.1,2.5-5.7,5.7-5.7
		C248.2,207.1,250.8,209.6,250.8,212.8z"/>
</g>
<linearGradient id="SVGID_1_" gradientUnits="userSpaceOnUse" x1="411.1479" y1="158.8432" x2="129.3021" y2="156.1779" gradientTransform="matrix(1 0 0 -1 0 245)">
	<stop  offset="0" style="stop-color:#5D2D75"/>
	<stop  offset="1" style="stop-color:#EA71AB"/>
</linearGradient>
<path class="st1" d="M327.3,159.6c40.2,0,72.7-32.5,72.7-72.6s-32.6-72.7-72.7-72.7c-40,0-57.6,26.6-73.5,56.3
	c-19.6,36.2-24.5,45.6-24.5,45.6l-40.1-87.8c-2.3-6-7.4-10.5-15.1-10.5c-8.3,0-14.9,6.4-14.9,14.7c0,2.5,0.8,4.8,1.7,7.2l50.2,105.3
	c3.9,7,8.7,11.8,16.9,11.8h1.9c8.1,0,12.9-4.6,16.9-11.8l14.4-27.6C281,156.8,317.2,159.6,327.3,159.6z M327.3,133.2
	c-25.5,0-46.2-20.7-46.2-46.2s20.7-46.2,46.2-46.2s46.2,20.7,46.2,46.2C373.6,112.5,352.9,133.2,327.3,133.2z"/>
<linearGradient id="SVGID_00000092437969551673304170000003585213006894236555_" gradientUnits="userSpaceOnUse" x1="217.2761" y1="119.5601" x2="165.0424" y2="232.7563" gradientTransform="matrix(1 0 0 -1 0 245)">
	<stop  offset="0" style="stop-color:#C1282D"/>
	<stop  offset="0.4765" style="stop-color:#EE2D2F"/>
	<stop  offset="0.9755" style="stop-color:#F79421"/>
</linearGradient>
<path style="fill:url(#SVGID_00000092437969551673304170000003585213006894236555_);" d="M202.9,127.8C201.8,126,161,39.9,161,39.9
	c-1-2.3-1.7-4.7-1.7-7.2c0-8.3,6.6-14.7,14.9-14.7c7.8,0,12.8,4.5,15.1,10.5l40,87.6C229.3,116,214.5,143.3,202.9,127.8z"/>
<defs>
	<filter id="Adobe_OpacityMaskFilter" filterUnits="userSpaceOnUse" x="202.8" y="14.3" width="169.1" height="142.6">
		<feColorMatrix  type="matrix" values="1 0 0 0 0  0 1 0 0 0  0 0 1 0 0  0 0 0 1 0"/>
	</filter>
</defs>
<mask maskUnits="userSpaceOnUse" x="202.8" y="14.3" width="169.1" height="142.6" id="SVGID_00000023269653964645920080000010885713432521593222_">
	<g class="st3">
		
			<linearGradient id="SVGID_00000017503171089046020760000003769314390424524461_" gradientUnits="userSpaceOnUse" x1="324.8554" y1="164.05" x2="373.2737" y2="164.05" gradientTransform="matrix(1 0 0 -1 0 245)">
			<stop  offset="0" style="stop-color:#FFFFFF"/>
			<stop  offset="1" style="stop-color:#010101"/>
		</linearGradient>
		
			<rect x="201.1" y="-30.3" style="fill:url(#SVGID_00000017503171089046020760000003769314390424524461_);" width="170.8" height="222.5"/>
	</g>
</mask>
<linearGradient id="SVGID_00000126288581809085007120000010095996563098284427_" gradientUnits="userSpaceOnUse" x1="228.8974" y1="51.6568" x2="341.7007" y2="244.5141" gradientTransform="matrix(1 0 0 -1 0 245)">
	<stop  offset="0" style="stop-color:#EC2227"/>
	<stop  offset="0.5984" style="stop-color:#EE305D"/>
	<stop  offset="1" style="stop-color:#722D71"/>
</linearGradient>
<path style="mask:url(#SVGID_00000023269653964645920080000010885713432521593222_);fill:url(#SVGID_00000126288581809085007120000010095996563098284427_);" d="
	M351.3,18.4c-7.5-2.6-15.6-4.1-24-4.1c-40,0-57.6,26.6-73.5,56.3c-19.6,36.2-24.5,45.6-24.5,45.6l-0.1-0.2c0,0-14.8,27.3-26.4,11.8
	l0,0l8.3,17.3c3.9,7,8.7,11.8,16.9,11.8h1.9c8.1,0,12.9-4.6,16.9-11.8l14.3-27.4L284.7,69c7-16.6,23.4-28.3,42.6-28.3
	c17.6,0,33,9.9,40.8,24.4c0.1,0,0.2-0.1,0.3-0.1l0,0C368.4,65,383.4,33.1,351.3,18.4z"/>
</svg>
