<svg id="Layer_1" data-name="Layer 1" xmlns="http://www.w3.org/2000/svg" viewBox="0 0 612 331.57828"><defs><style>.cls-1{fill:#f3c713;}.cls-2{fill:#f4cf12;}.cls-3{fill:#ed4120;}.cls-4{fill:#ed4720;}.cls-5{fill:#ed4f1f;}.cls-6{fill:#f4d611;}.cls-7{fill:#ec3c21;}.cls-8{fill:#f6e24c;}.cls-9{fill:#f6ce4d;}.cls-10{fill:#f8dc8a;}.cls-11{fill:#f9ee88;}.cls-12{fill:#fbecc3;}.cls-13{fill:#fcf7c2;}.cls-14{fill:#49a3cd;}.cls-15{fill:#4aa4c7;}.cls-16{fill:#47a2d3;}.cls-17{fill:#4ba5c5;}.cls-18{fill:#4ba5c2;}.cls-19{fill:#4ca6c0;}.cls-20{fill:#4ca6be;}.cls-21{fill:#4fa8b1;}.cls-22{fill:#4ea7b6;}.cls-23{fill:#50a9ac;}.cls-24{fill:#52aaa6;}.cls-25{fill:#4ea7b7;}.cls-26{fill:#4fa8b2;}.cls-27{fill:#4da6bc;}.cls-28{fill:#51a9ac;}.cls-29{fill:#53aba0;}.cls-30{fill:#54ac9b;}.cls-31{fill:#4da6bb;}.cls-32{fill:#46a2d7;}.cls-33{fill:#56ad95;}.cls-34{fill:#57ae8f;}.cls-35{fill:#54ac9c;}.cls-36{fill:#57ae8e;}.cls-37{fill:#52aaa7;}.cls-38{fill:#63b75c;}.cls-39{fill:#62b662;}.cls-40{fill:#53aba1;}.cls-41{fill:#66b950;}.cls-42{fill:#60b568;}.cls-43{fill:#5bb17e;}.cls-44{fill:#59af89;}.cls-45{fill:#6abb45;}.cls-46{fill:#68ba49;}.cls-47{fill:#5fb46d;}.cls-48{fill:#65b855;}.cls-49{fill:#61b666;}.cls-50{fill:#5ab084;}.cls-51{fill:#66b951;}.cls-52{fill:#5fb46e;}.cls-53{fill:#64b859;}.cls-54{fill:#59af88;}.cls-55{fill:#f4e90f;}.cls-56{fill:#d2df1c;}.cls-57{fill:#5db277;}.cls-58{fill:#5eb373;}.cls-59{fill:#9acc32;}.cls-60{fill:#5db278;}.cls-61{fill:#f5e210;}.cls-62{fill:#62b65f;}.cls-63{fill:#5cb17d;}.cls-64{fill:#8bc738;}.cls-65{fill:#7ac13e;}.cls-66{fill:#80c33c;}.cls-67{fill:#68ba4a;}.cls-68{fill:#5bb181;}.cls-69{fill:#c3d922;}.cls-70{fill:#cddd1f;}.cls-71{fill:#b0d329;}.cls-72{fill:#bdd824;}.cls-73{fill:#a0ce2f;}.cls-74{fill:#aad12c;}.cls-75{fill:#a6d02d;}.cls-76{fill:#90c936;}.cls-77{fill:#85c53a;}.cls-78{fill:#70be42;}.cls-79{fill:#75bf40;}.cls-80{fill:#e4e416;}.cls-81{fill:#d8e01a;}.cls-82{fill:#c8db20;}.cls-83{fill:#b5d528;}.cls-84{fill:#95ca34;}.cls-85{fill:#f0e911;}.cls-86{fill:#cbdc1f;}.cls-87{fill:#dce219;}.cls-88{fill:#e9e614;}.cls-89{fill:#5ab085;}.cls-90{fill:#ece712;}.cls-91{fill:#ee571e;}.cls-92{fill:#e0e317;}.cls-93{fill:#b9d626;}.cls-94{fill:#4da7bb;}.cls-95{fill:#7bc13e;}.cls-96{fill:#69bb45;}.cls-97{fill:#e2e416;}.cls-98{fill:#6fbd42;}.cls-99{fill:#74bf40;}.cls-100{fill:#9bcc32;}.cls-101{fill:#f0831a;}.cls-102{fill:#ef731b;}.cls-103{fill:#f07b1a;}.cls-104{fill:#bfd824;}.cls-105{fill:#d3df1c;}.cls-106{fill:#ee5c1e;}.cls-107{fill:#81c33c;}.cls-108{fill:#c5da21;}.cls-109{fill:#efe812;}.cls-110{fill:#f4d411;}.cls-111{fill:#f4dc10;}.cls-112{fill:#f3bf13;}.cls-113{fill:#abd12c;}.cls-114{fill:#a5d02e;}.cls-115{fill:#f08a19;}.cls-116{fill:#b0d32a;}.cls-117{fill:#f19118;}.cls-118{fill:#f19718;}.cls-119{fill:#f19e17;}.cls-120{fill:#f2a616;}.cls-121{fill:#90c835;}.cls-122{fill:#f3b714;}.cls-123{fill:#f3c613;}.cls-124{fill:#f4cd12;}.cls-125{fill:#ef6d1c;}.cls-126{fill:#ee631d;}.cls-127{fill:#f5e310;}.cls-128{fill:#f2ac15;}.cls-129{fill:#ef681c;}.cls-130{fill:#f2b215;}.cls-131{fill:#4ca6bf;}.cls-132{fill:#ec3022;}.cls-133{fill:#ec2b23;}.cls-134{fill:#ec3422;}.cls-135{fill:#ec3821;}.cls-136{fill:#eb2623;}.cls-137{fill:#ed4520;}.cls-138{fill:#ed4020;}.cls-139{fill:#ec3b21;}.cls-140{fill:#ed4b1f;}.cls-141{fill:#f3b814;}.cls-142{fill:#f08b19;}.cls-143{fill:#ed501f;}.cls-144{fill:#ee551e;}.cls-145{fill:#eb2124;}.cls-146{fill:#ef6e1c;}.cls-147{fill:#f2b015;}.cls-148{fill:#f2a416;}.cls-149{fill:#f07d1a;}.cls-150{fill:#f2aa16;}.cls-151{fill:#ee591e;}.cls-152{fill:#ee5e1d;}.cls-153{fill:#ef781b;}.cls-154{fill:#ec3621;}.cls-155{fill:#f3be13;}.cls-156{fill:#f4db11;}.cls-157{fill:#fefefe;}</style></defs><title>virto</title><path class="cls-1" d="M305.4834,319.17672h-9.544q-.29659-.31084-.60455-.61121c-5.96174-7.01251-12.88247-13.08872-19.23942-19.715-1.16226-1.21153-2.44358-2.31133-3.49434-3.62633-.81779-1.02347-1.04479-1.95787.6065-2.40029,8.60915-.4786,17.21675-.1758,25.82234-.16852a3.94849,3.94849,0,0,1,1.99276.51175.84019.84019,0,0,1,.39741.95222c-1.77582,1.44217-3.87431.69234-5.83578.86164-1.82955.04953-3.66111-.00095-5.48782-.04518-2.17438-.06212-4.35359-.14414-6.96346-.03485,3.5454,3.542,6.87083,6.86753,10.1953,10.19407,3.43686,3.43893,6.90631,6.846,10.29441,10.33249C304.61463,316.44816,305.991,317.37171,305.4834,319.17672Z"/><path class="cls-2" d="M305.4834,319.17672a9.822,9.822,0,0,0-2.42252-3.33307q-9.59025-9.543-19.13-19.13669c-.66806-.67206-1.593-1.17487-1.88717-2.526h7.36712a10.5029,10.5029,0,0,1,2.84108,2.1034c6.14,6.16851,12.32429,12.29322,18.43642,18.4892,1.20157,1.21805,2.73928,2.33758,2.54956,4.40316Z"/><path class="cls-3" d="M7.82953,170.648V163.49c1.77429-.90923,2.5089.68348,3.396,1.55324,5.29741,5.19408,10.5197,10.4647,15.76114,15.71568a6.65892,6.65892,0,0,0,3.38846,2.26812c2.07989,3.07172,2.9014,6.66283,4.16094,10.07454-.04,1.74465-.89339,2.07621-2.29936,1.2543a11.57941,11.57941,0,0,1-2.19787-1.97344q-8.58957-8.5806-17.16447-17.17583A53.52821,53.52821,0,0,0,7.82953,170.648Z"/><path class="cls-4" d="M29.9889,182.983c-1.35171,1.52733-1.88581-.18115-2.47454-.76-5.64955-5.55431-11.22438-11.18455-16.84481-16.7687-.81807-.8128-1.4593-1.94085-2.84-1.96433v-6.56151c2.05706-.92074,3.12435.70491,4.2586,1.80319,5.63393,5.45527,11.04,11.142,16.73259,16.54394A13.12777,13.12777,0,0,1,29.9889,182.983Z"/><path class="cls-5" d="M28.14545,175.4123c-5.78285-5.01022-10.87327-10.72751-16.36426-16.036-1.14862-1.11046-2.22872-2.28529-3.95166-2.4478V155.139c1.14786-1.17756.68221-2.85194,1.29173-4.19526.538-2.093,1.6238-1.21038,2.52151-.38251,2.70023,2.49017,5.20988,5.17715,7.8376,7.743,2.04686,1.99863,3.95246,4.15084,6.27014,6.05522.76428-.99829.28749-2.07955.67147-2.954.51128-1.16432,1.06369-1.47771,1.70085-.07236C28.376,166.02946,28.90431,170.72017,28.14545,175.4123Z"/><path class="cls-6" d="M313.23791,319.17672c-2.54253-4.19824-6.441-7.15708-9.7681-10.63351-4.632-4.84-9.36822-9.58033-14.05938-14.36278q2.98167.0026,5.96251.00409a10.15145,10.15145,0,0,1,2.21509,1.47759c6.65832,6.662,13.33653,13.30423,19.95889,20.00194.79292.80187,1.89942,1.61019,1.11622,3.04447-.76565.40773-1.72011-.16722-2.44272.4682Z"/><path class="cls-7" d="M7.82953,170.648c1.51434-.22667,2.33032.83665,3.23679,1.74359,6.85694,6.86054,13.698,13.73729,20.61364,20.53816.50441.496,1.20449,2.67089,2.38617.41979.91942-.30289,1.32411.41814,1.53654.99606,1.33124,3.62176,3.73409,6.68446,5.24887,10.205-.28845,1.45632-1.18376,1.04165-1.9908.583a11.07886,11.07886,0,0,1-2.20971-1.97424q-11.353-11.3439-22.69413-22.6997a65.03235,65.03235,0,0,0-5.445-5.03907l-.68236-.59712Z"/><path class="cls-8" d="M316.22042,319.17672c.61284-.89828,1.57222-.48688,2.38462-.63087a3.60364,3.60364,0,0,1,3.97024-.27007.6387.6387,0,0,1,.20665.90094Z"/><path class="cls-9" d="M295.935,318.603q.003.28683.00444.57375h-6.56151a.66133.66133,0,0,1,.255-.92712A6.95431,6.95431,0,0,1,295.935,318.603Z"/><path class="cls-10" d="M289.33155,318.63607q.03345.26944.04633.54065h-4.772a.59492.59492,0,0,1,.13023-.8499,4.80756,4.80756,0,0,1,2.86043-.48695A2.21041,2.21041,0,0,1,289.33155,318.63607Z"/><path class="cls-11" d="M322.78193,319.17672q.013-.27114.04612-.54062a2.71557,2.71557,0,0,1,2.22792-.8259,4.18539,4.18539,0,0,1,2.37.51262.59985.59985,0,0,1,.12793.8539Z"/><path class="cls-12" d="M284.57265,318.65329a3.492,3.492,0,0,1,.03323.52343h-3.579q-.0072-.2517-.03007-.50246A2.37487,2.37487,0,0,1,284.57265,318.65329Z"/><path class="cls-13" d="M327.55393,319.17672a3.55164,3.55164,0,0,1,.03353-.52391,2.37532,2.37532,0,0,1,3.57515.02087q-.0226.251-.02967.503Z"/><path class="cls-14" d="M499.91782,48.37893a156.22206,156.22206,0,0,1,20.86056,10.14662,23.41252,23.41252,0,0,0,4.26234,5.28266q34.6106,34.63093,69.2341,69.24894c1.67886,1.67949,3.62211,3.06419,5.26336,4.78278a50.17229,50.17229,0,0,1,3.619,14.315c-1.12543.46215-1.89035-.26012-2.66882-.85a19.59747,19.59747,0,0,1-1.94383-1.84356q-48.23841-48.23652-96.4548-96.495c-1.25067-1.25276-3.16367-2.24817-2.67872-4.56893.00972-.04669.14407-.09339.2203-.09355A1.10755,1.10755,0,0,1,499.91782,48.37893Z"/><path class="cls-15" d="M499.91782,48.37893c-.51721,1.46759.68992,2.117,1.46278,2.89054q49.41343,49.45681,98.84881,98.89167a9.01869,9.01869,0,0,0,2.92775,1.99382,32.54628,32.54628,0,0,1,1.07395,8.9275c-1.13082.39914-1.89479-.30536-2.66194-.92237a27.62819,27.62819,0,0,1-2.148-2.06677Q544.06342,102.73738,488.7094,47.37774a13.50575,13.50575,0,0,1-2.39328-2.64546c-.39954-.69689-.96666-1.61083.56169-1.76824C491.21515,44.79145,495.78367,46.0622,499.91782,48.37893Z"/><path class="cls-16" d="M599.53818,137.83993a13.19367,13.19367,0,0,1-5.00975-3.5507q-35.43742-35.41075-70.82725-70.869c-1.33372-1.33794-3.11787-2.57149-2.92276-4.89469,5.774,3.17079,11.67636,6.11739,17.1605,9.7948.9.60352,1.76019,1.26653,2.63878,1.902.797,1.81419,2.5703,2.701,3.88108,4.01785q21.98,22.08153,44.05648,44.06687c1.3292,1.32461,2.31417,2.99291,3.965,3.99543A63.72443,63.72443,0,0,1,599.53818,137.83993Z"/><path class="cls-17" d="M486.87781,42.964c-.5037.31807-.66782.76137-.27076,1.22544.57946.67728,1.22027,1.30352,1.85158,1.93487q56.12908,56.1338,112.25624,112.26965a11.00826,11.00826,0,0,0,3.51627,2.68847q.00012,2.38614.00037,4.77231c-1.13093.39976-1.89392-.30644-2.66044-.92313a27.66049,27.66049,0,0,1-2.1471-2.06645Q540.70926,104.15246,482.00882,45.42557c-1.7121-1.71358-3.76363-3.24971-4.12137-5.93019A52.11208,52.11208,0,0,1,486.87781,42.964Z"/><path class="cls-18" d="M477.88745,39.49538a52.48045,52.48045,0,0,0,6.91175,7.74947q57.85835,57.84741,115.70509,115.70654a11.49882,11.49882,0,0,0,3.72725,2.90341c.0596,2.625.40522,5.26738-.47315,7.83581a1.66355,1.66355,0,0,1-.51822-.674c-.06208-2.305-1.56287-3.73871-3.05929-5.23423Q537.14647,104.78411,474.17093,41.727c-1.11312-1.11517-3.26186-1.941-2.2178-4.27629Z"/><path class="cls-19" d="M471.95313,37.45067c-.10489,1.67616,1.29414,2.38412,2.23626,3.32689q63.65452,63.70276,127.35976,127.35484c1.3932,1.39184,2.65148,2.70662,2.11775,4.87253-1.61555.283-2.61337-.83434-3.55366-1.77032q-25.30223-25.18613-50.48008-50.49688a7.1334,7.1334,0,0,1-.72928-.93828c-5.86168-6.39516-12.01182-12.50117-18.385-18.38353a20.77878,20.77878,0,0,1-2.87277-2.57629q-28.27422-28.27125-56.54262-56.54838a11.49729,11.49729,0,0,1-2.65608-3.17217c-.28052-1.045-1.10212-1.97507-.69389-3.17138A11.57163,11.57163,0,0,1,471.95313,37.45067Z"/><path class="cls-20" d="M468.92461,38.82137c.50505.60445.96684,1.25212,1.5214,1.80713q29.34264,29.365,58.70763,58.70759c.555.55452,1.20261,1.01633,1.80705,1.52135q8.86357,9.628,18.49152,18.49153c.64438.74381,1.24569,1.53064,1.93943,2.22509q24.04863,24.07309,48.10147,48.14192a25.96393,25.96393,0,0,0,4.17426,3.28936q.0449.34206.09091.68508c-.01711,1.44247.20574,2.91621-.55812,4.26067a49.35913,49.35913,0,0,0-5.57334-6.14981q-19.81341-19.797-39.60817-39.61253a26.73015,26.73015,0,0,0-5.81964-4.60008c-2.7618-2.33056-4.53484-5.49688-6.86718-8.19877a156.87594,156.87594,0,0,0-23.29444-21.6532,10.62374,10.62374,0,0,1-2.15372-2.04349,28.12,28.12,0,0,0-4.49109-5.54042q-26.17212-26.12773-52.28465-52.31516c-1.00805-1.01207-2.82355-1.79951-1.93732-3.8424a12.75925,12.75925,0,0,1,5.36883,1.94274A14.56467,14.56467,0,0,1,468.92461,38.82137Z"/><path class="cls-21" d="M425.9846,24.43233A85.03949,85.03949,0,0,1,439.11537,27.56c1.69244.94487,2.71684,2.59059,4.04419,3.91141Q460.89217,49.11721,478.529,66.859c1.28955,1.29947,3.34392,2.44068,2.2695,4.91654a1.34676,1.34676,0,0,1-.87433.01815c-5.682-2.72874-11.54523-5.07227-17.11456-8.0424-2.36743-3.20281-5.34713-5.83443-8.139-8.6381-8.80851-8.8456-17.66216-17.64627-26.45705-26.50533C427.08673,27.47281,425.4892,26.48023,425.9846,24.43233Z"/><path class="cls-22" d="M480.8598,71.44811c-.276-1.68591-1.4535-2.76592-2.58188-3.89336q-18.24525-18.23016-36.48412-36.4667a10.77812,10.77812,0,0,1-2.67843-3.52812,89.1806,89.1806,0,0,1,11.34313,3.02649,24.72075,24.72075,0,0,1,4.05966,3.88079q21.24,21.18768,42.41315,42.44222c1.13854,1.145,3.15337,2.1509,1.79547,4.40785-1.87371.23742-3.125-1.07139-4.56805-1.87048-3.5577-1.97008-7.08829-3.98619-10.75576-5.75425C482.37653,73.19771,481.09218,72.88817,480.8598,71.44811Z"/><path class="cls-23" d="M425.9846,24.43233a9.18118,9.18118,0,0,0,2.57805,3.56492q15.86605,15.83856,31.71674,31.69242a11.53431,11.53431,0,0,1,2.68309,3.506,1.5194,1.5194,0,0,1-1.90481.19454c-4.81289-2.01689-9.6691-3.92418-14.53253-5.81433a2.84724,2.84724,0,0,1-1.13974-.91555,14.91865,14.91865,0,0,0-2.96907-3.68089q-13.89048-13.87328-27.74154-27.78565c-.93881-.94749-2.64919-1.68549-1.82118-3.60082A84.412,84.412,0,0,1,425.9846,24.43233Z"/><path class="cls-24" d="M412.85361,21.593c.06841,1.36638,1.19836,2.00006,2.01206,2.81646q14.36391,14.41119,28.75379,28.7964c.8725.87573,2.1472,1.55655,1.97674,3.11829a1.4448,1.4448,0,0,1-1.12441.28837c-5.12723-1.48839-10.329-2.76741-15.10759-5.25791a18.86885,18.86885,0,0,0-3.18089-3.87006q-12.16526-12.13688-24.28618-24.318c-1.01962-1.02951-2.71767-1.95589-1.57051-3.92479A100.16878,100.16878,0,0,1,412.85361,21.593Z"/><path class="cls-25" d="M602.57573,181.39369a21.58683,21.58683,0,0,1-1.75735,7.17357c-1.89709.87777-2.67945-.78962-3.63424-1.73505q-12.6512-12.52687-25.20139-25.15584a74.35994,74.35994,0,0,0-6.93662-6.46462,126.06345,126.06345,0,0,1-4.55319-13.48794c.2732-.572.75032-.536,1.24939-.40389a5.015,5.015,0,0,1,2.22785,1.42331C576.8599,155.60553,589.78992,168.42759,602.57573,181.39369Z"/><path class="cls-26" d="M565.59156,155.13791a10.73319,10.73319,0,0,1,3.5316,2.65917q14.3987,14.43093,28.83086,28.82843c.82135.81937,1.48782,1.91933,2.86432,1.94174a30.56858,30.56858,0,0,1-2.96568,8.47521c-1.16337-.23-1.80072-1.17684-2.56226-1.92816-9.23094-9.107-18.23918-18.43806-27.59817-27.41606a5.10673,5.10673,0,0,1-1.56439-2.4746c-.25573-2.3447-.50374-4.6861-.89-7.01289C565.06609,157.176,564.68938,156.06955,565.59156,155.13791Z"/><path class="cls-27" d="M602.57573,181.39369c-1.49558-.04494-2.17822-1.28216-3.06245-2.16383q-17.59384-17.5434-35.14214-35.13249a11.28778,11.28778,0,0,0-3.51828-2.68025,2.11731,2.11731,0,0,1-1.48834-1.33654c-1.94554-3.80027-4.2686-7.37723-6.47693-11.02231a2.24858,2.24858,0,0,1-.51954-1.9347c2.01538.48651,3.44055,1.90041,4.81872,3.27368q22.17982,22.10077,44.30475,44.2567c.93585.93447,1.83395,1.83579,1.70838,3.29655C603.14187,179.12581,603.34884,180.34863,602.57573,181.39369Z"/><path class="cls-28" d="M566.8917,165.87428Q581.213,180.11777,595.526,194.3694c.83425.83193,1.55359,1.77906,2.32648,2.67286a22.06,22.06,0,0,1-2.91264,6.49024c-1.34245.42166-1.99808-.636-2.73285-1.35967-8.32968-8.20413-16.46228-16.607-24.88731-24.71454-1.21353-1.1678-1.31555-2.58932-1.40992-4.08337C566.16709,170.86325,565.03907,168.17148,566.8917,165.87428Z"/><path class="cls-29" d="M400.32662,19.24178c-.2097,1.53411.92912,2.309,1.82569,3.20653q12.72285,12.73557,25.44656,25.47019c.8147.81756,1.94548,1.46143,1.95236,2.85a2.09033,2.09033,0,0,1-2.238.31081c-3.84078-1.30049-7.87291-2.01225-11.5698-3.75141-7.85409-9.41961-17.14019-17.45262-25.55564-26.33052-.91784-.96827-2.6358-1.68987-1.79085-3.59689A85.65141,85.65141,0,0,1,400.32662,19.24178Z"/><path class="cls-30" d="M388.3969,17.40047c.05665,1.36724,1.18375,2.00142,1.99531,2.81681q10.87355,10.92494,21.79919,21.79789a19.7577,19.7577,0,0,1,3.62622,4.62894,2.5206,2.5206,0,0,1-2.53793.24306c-3.71437-1.00042-7.57426-1.51952-11.05722-3.29274-7.25711-8.11585-15.31708-15.44809-22.86847-23.27951-1.26735-1.31433-2.925-2.44831-2.859-4.61488A96.499,96.499,0,0,1,388.3969,17.40047Z"/><path class="cls-31" d="M461.17061,33.99523c.018,1.50734,1.2632,2.18873,2.14477,3.07176q26.71917,26.76407,53.47536,53.49117a12.77668,12.77668,0,0,1,3.4396,4.74635c-.73529.67938-1.30871.0447-1.79912-.32119-4.34523-3.24182-8.93986-6.118-13.39283-9.20107a3.0762,3.0762,0,0,1-1.167-1.30314c-.20814-1.50693-1.33525-2.39238-2.31414-3.36252-13.12119-13.004-26.02249-26.22838-39.25782-39.11893-2.4132-2.35035-4.80237-4.752-7.02771-7.28858-.709-.80813-2.3607-2.2511.54025-2.453Z"/><path class="cls-32" d="M592.48022,122.30252c-1.15969.09008-1.76584-.7682-2.45551-1.45755Q566.06357,96.89455,542.1145,72.93205c-.753-.75343-1.73941-1.40122-1.53684-2.70912,17.08084,10.863,32.23693,23.87172,44.33019,40.20867C587.69358,114.1949,589.96963,118.33554,592.48022,122.30252Z"/><path class="cls-33" d="M376.495,15.7c4.79643,6.467,11.08638,11.50734,16.56607,17.32232,2.37195,2.51707,4.89161,4.89451,7.321,7.35823.74523.75576,1.74512,1.37051,1.73387,2.63485a2.12754,2.12754,0,0,1-2.17651.49846c-3.7664-.9649-7.64674-1.49684-11.2867-2.94-5.76706-7.41605-13.01961-13.41027-19.43527-20.209-1.08247-1.14711-2.27988-2.18745-3.31221-3.379-.60586-.69928-1.55056-1.37934-.77144-2.53505A90.55149,90.55149,0,0,1,376.495,15.7Z"/><path class="cls-33" d="M582.8532,222.44085a26.23753,26.23753,0,0,1-4.80012,5.98884,4.35717,4.35717,0,0,1-2.39259-1.65849q-9.69153-9.65794-19.35-19.349c-.83177-.83462-1.7796-1.612-1.96364-2.8978,1.00321-2.57667,2.02225-5.145,4.47375-6.76675,1.47211-.00068,2.25287,1.12177,3.14317,2.00749q9.66735,9.61707,19.26763,19.301C582.09993,219.94778,583.71241,220.65412,582.8532,222.44085Z"/><path class="cls-34" d="M365.13381,14.45084c.077,1.35818,1.20359,1.98723,2.01351,2.80182q9.70274,9.75855,19.44915,19.47363c.89392.89482,2.01279,1.67366,1.802,3.19608-1.4199,1.0737-2.87073.23916-4.26238-.01941a45.47064,45.47064,0,0,1-7.243-1.60923c-1.86978-.69795-2.85424-2.406-4.17722-3.72038-5.419-5.38371-10.83972-10.76641-16.19264-16.21553-1.42055-1.44607-3.11474-2.79084-3.29969-5.07385Z"/><path class="cls-35" d="M582.8532,222.44085a2.53776,2.53776,0,0,0-.96975-1.76614q-11.028-11.01134-22.05874-22.01985a5.14945,5.14945,0,0,0-.99713-.62069c-.06578-3.14733,1.68982-5.495,3.44208-7.84477,1.48987.45018,2.45372,1.62454,3.49006,2.65209q10.11237,10.0264,20.1406,20.13736c.799.80408,1.94872,1.47376,1.70591,2.917A22.13539,22.13539,0,0,1,582.8532,222.44085Z"/><path class="cls-36" d="M554.77907,204.54989c4.50041,5.31513,9.751,9.89775,14.56173,14.91017,2.88613,3.00715,5.807,5.9809,8.71228,8.96965a30.5899,30.5899,0,0,1-5.15206,5.53658c-1.35116.4403-2.003-.634-2.73428-1.35893q-9.5241-9.44133-18.97243-18.95876c-.83646-.84127-1.73434-1.68222-1.60437-3.04856C550.99269,208.30456,551.93713,205.61272,554.77907,204.54989Z"/><path class="cls-37" d="M566.73865,174.19662c.09968.84633-.09812,1.67412.68355,2.443q13.30457,13.08647,26.53354,26.24983a5.76244,5.76244,0,0,0,.984.64294c-1.09186,2.28967-1.95319,4.70424-3.621,6.68176-1.25464-.29229-1.93852-1.33526-2.77083-2.15781-7.618-7.52884-15.08735-15.20722-22.78266-22.6583a3.76671,3.76671,0,0,1-1.433-2.189c.00338-2.70743,1.00834-5.256,1.24346-7.92894A1.05669,1.05669,0,0,1,566.73865,174.19662Z"/><path class="cls-38" d="M527.35689,268.36866c-2.56087,1.42312-4.8931,3.2696-7.733,4.176-6.94339-6.48144-13.493-13.36-20.21768-20.06192a2.76559,2.76559,0,0,1-1.03819-2.63951c1.84247-2.49226,4.50423-3.57007,7.384-4.27295q10.50776,10.42748,20.91452,20.96267A1.767,1.767,0,0,1,527.35689,268.36866Z"/><path class="cls-39" d="M527.35689,268.36866q-9.38959-9.49842-18.78646-18.98954a11.01737,11.01737,0,0,1-2.66084-3.52017c1.65785-2.64424,4.23332-3.79623,7.14869-4.39868,6.44314,6.53371,12.98139,12.97515,19.42191,19.51344.89.90351,2.38673,1.69572,1.50717,3.44015A31.218,31.218,0,0,1,527.35689,268.36866Z"/><path class="cls-40" d="M564.8981,183.63135c8.95822,8.71019,17.96227,17.37482,26.42043,26.58251a18.87258,18.87258,0,0,1-3.71222,5.68214q-12.04081-12.0924-24.10123-24.16474c-.43169-.43061-.90054-.74526-.93138-1.40318A6.38864,6.38864,0,0,1,564.8981,183.63135Z"/><path class="cls-41" d="M513.05868,276.05032c-2.33846,1.14846-4.466,2.78341-7.16278,3.10527a5.3215,5.3215,0,0,1-2.40745-1.66125q-8.81409-8.80791-17.609-17.63482c-.93517-.9441-2.23073-1.80856-1.63033-3.50772,2.31734-1.83108,4.77466-3.36433,7.81713-3.64265,5.88211,7.19946,12.97382,13.23017,19.31877,19.98254C512.23463,273.59584,513.86179,274.26282,513.05868,276.05032Z"/><path class="cls-42" d="M533.98736,264.41386c-.02662-1.3679-1.10148-2.05136-1.9228-2.8761-5.66555-5.689-11.35739-11.35187-17.01556-17.04819-.81265-.81809-1.948-1.45378-1.97831-2.83509,1.43078-2.56272,3.76592-3.77866,6.51665-4.37833,6.55037,6.5938,13.15488,13.13622,19.68759,19.74986.84531.85581,2.13428,1.6695,1.2897,3.25374A31.90735,31.90735,0,0,1,533.98736,264.41386Z"/><path class="cls-43" d="M319.244,11.52628a103.31013,103.31013,0,0,1,13.67794.53826c6.73015,6.33731,13.19769,12.93959,19.6057,19.59759.59909.6225,2.32794,1.40651.74883,2.80885a56.71853,56.71853,0,0,1-12.15461-1.64714c-5.99664-6.00544-12.13335-11.88512-17.90012-18.114C321.99731,13.38738,320.10117,13.14152,319.244,11.52628Z"/><path class="cls-44" d="M353.22352,13.284c6.98959,8.80884,15.75463,15.91542,23.24464,24.24447a1.5295,1.5295,0,0,1-1.588.57641c-3.57668-.70844-7.27761-.81285-10.7186-2.1775-6.01171-6.75346-12.70385-12.84616-18.97366-19.35262-1.054-1.09379-2.56612-2.02393-2.117-3.95657C346.48413,12.39773,349.84221,13.01781,353.22352,13.284Z"/><path class="cls-45" d="M498.74655,282.67731q-2.98674,1.24736-5.97349,2.49475c-1.27765.678-2.07246-.22809-2.81615-.96376q-9.84981-9.74424-19.5993-19.58919a2.78136,2.78136,0,0,1-1.01766-1.76588c1.84837-2.21807,4.4881-2.69794,7.10289-3.23666,1.39877.16085,2.224,1.19986,3.123,2.0952,5.87078,5.8471,11.74809,11.68814,17.55694,17.59642C497.98957,280.18982,499.59605,280.89483,498.74655,282.67731Z"/><path class="cls-46" d="M498.74659,282.67731c-.12528-.36915-.14366-.846-.39134-1.09181-7.23272-7.17794-14.16937-14.656-21.74323-21.4883a9.59531,9.59531,0,0,1,7.82409-3.463c.0798,1.36635,1.21994,1.992,2.0299,2.817q9.693,9.87376,19.42989,19.7044A28.90641,28.90641,0,0,1,498.74659,282.67731Z"/><path class="cls-47" d="M283.31248,11.93522c6.38-.82026,12.78627-.53221,19.18756-.45326,5.00946,5.73124,10.66477,10.83283,15.89372,16.348.74577.78655,2.66358,1.67117.69877,3.20478-3.99834.57549-7.911-.48468-11.87094-.59775-5.19574-4.82789-10.17042-9.89308-15.05087-15.0361-1.79178-1.88817-3.51607-2.99161-6.12292-2.70755A2.8474,2.8474,0,0,1,283.31248,11.93522Z"/><path class="cls-48" d="M513.05868,276.05032c-.09794-1.23574-1.12066-1.82152-1.86713-2.57228q-8.58106-8.63074-17.201-17.22294c-.89653-.89765-2.01949-1.679-1.8002-3.20752a7.90879,7.90879,0,0,1,6.47693-3.32645c.0138,1.35919,1.025,2.09227,1.85759,2.92624q8.63338,8.64778,17.27008,17.29217c.74952.75353,1.7741,1.34939,1.82886,2.60508A34.07588,34.07588,0,0,1,513.05868,276.05032Z"/><path class="cls-49" d="M283.31248,11.93523c4.71155-.83117,8.10209.96792,11.12945,4.65736,3.12632,3.81,6.93048,7.0621,10.41384,10.58226.7463.75416,1.76351,1.35066,1.82134,2.6-.80182.97532-1.87243.82037-2.93453.70711-3.10285-.84192-6.30531-.0454-9.42713-.54933a3.91593,3.91593,0,0,1-2.18332-1.45275c-3.898-4.90019-8.68305-8.94438-12.95527-13.482-.77865-.827-1.94412-1.4788-1.71394-2.91923Z"/><path class="cls-50" d="M343.07092,12.61816a10.116,10.116,0,0,0,2.42565,3.30171q8.27875,8.22812,16.506,16.508c.80876.81389,1.92734,1.45605,1.9375,2.83259-3.60052,1.18346-6.93774.414-10.13858-1.36692q-9.9558-10.02735-19.9136-20.05265a2.55919,2.55919,0,0,1-.966-1.77637A51.9977,51.9977,0,0,1,343.07092,12.61816Z"/><path class="cls-51" d="M243.36939,14.91588A60.76719,60.76719,0,0,1,255.299,13.72539c.67918-.31954,1.1699.08967,1.54561.51939,3.91681,4.47989,8.38823,8.41688,12.4403,12.76081.86826.93079,2.28978,1.9945.51495,3.4255-3.71251,1.35572-7.52154.98591-11.327.651-5.07781-4.60706-9.831-9.54821-14.5351-14.53721A2.11047,2.11047,0,0,1,243.36939,14.91588Z"/><path class="cls-52" d="M540.56463,260.27975c-.02825-1.355-1.07362-2.05285-1.8945-2.87634q-8.56627-8.5933-17.14733-17.1718c-.8141-.8181-1.90666-1.48263-1.91914-2.85379,1.01132-2.34972,3.06474-3.2057,5.34877-3.73479,1.68691.76376,2.74112,2.26416,4,3.51085q8.047,7.96917,16.00606,16.02671c.81815.83146,2.25071,1.5174,1.50094,3.15559A31.23658,31.23658,0,0,1,540.56463,260.27975Z"/><path class="cls-53" d="M270.29,29.8399a2.51962,2.51962,0,0,0-.92236-1.78562q-7.03965-7.15894-14.06845-14.32879c2.32912-.78387,4.74339-.53825,7.1332-.589a7.60562,7.60562,0,0,1,8.18361,2.483c3.55974,3.95351,7.5586,7.50411,11.18648,11.40286.74524.80088,2.3382,1.489,1.32161,3.13738C278.82052,30.98143,274.52635,31.55292,270.29,29.8399Z"/><path class="cls-54" d="M550.063,210.6675a2.4338,2.4338,0,0,0,.92155,1.77782q10.46373,10.445,20.92875,20.88861a5.42573,5.42573,0,0,0,.98755.63225q-2.43642,2.43627-4.87329,4.87229c-.338-.20954.02461.14541-.27127-.11486-7.65115-6.73172-14.57178-14.20481-21.72579-21.44081a2.26988,2.26988,0,0,1-.6135-1.9219C546.51136,213.34831,547.65841,211.38484,550.063,210.6675Z"/><path class="cls-55" d="M340.67076,317.95128l-.27306.08326-.28278-.03906c-1.9478.69247-4.0085-.08214-5.96795.45928q-.91065.01326-1.82132.0265c-7.72939-7.27553-15.08681-14.92581-22.57425-22.44474-.73612-.73922-1.61041-1.63912-.54531-2.81741a5.33012,5.33012,0,0,1,2.61717-.46427c3.77561-.53993,6.38282,1.024,8.97038,3.8433,5.76822,6.28483,12.00654,12.1367,18.01152,18.20636C339.6626,315.67118,340.96049,316.367,340.67076,317.95128Z"/><path class="cls-56" d="M384.20727,313.73126l-8.31046,1.14256A12.46217,12.46217,0,0,0,373.08095,311.1c-6.814-6.75123-13.551-13.57982-20.36542-20.33085a.69114.69114,0,0,1-.1208-.809c1.29851-1.18708,2.90408-.7067,4.3993-.82712a14.36694,14.36694,0,0,0,3.11084-.12674,2.68317,2.68317,0,0,1,.87007.07295c2.93572,2.04907,5.16976,4.84586,7.70288,7.322,4.58826,4.48512,9.11088,9.03824,13.61,13.61314C383.28372,311.027,384.648,311.93836,384.20727,313.73126Z"/><path class="cls-57" d="M556.00753,249.23486a24.71573,24.71573,0,0,1-4.79607,3.64794,4.30875,4.30875,0,0,1-2.39947-1.65893q-8.87439-8.84-17.71321-17.71551c-.90119-.90611-1.93808-1.77425-1.7781-3.275a8.20129,8.20129,0,0,1,5.18807-4.27213c6.67535,6.71578,13.40157,13.38337,20.05661,20.12152C555.38118,246.90874,556.79878,247.6101,556.00753,249.23486Z"/><path class="cls-58" d="M319.79993,30.40713q-7.49819-7.61546-15.00208-15.2252a6.57349,6.57349,0,0,1-2.29781-3.7q4.78177-.00028,9.56355-.0006c6.00283,5.5461,11.64574,11.455,17.36005,17.29041.825.84249,1.55373,1.998-.15393,2.86517A14.931,14.931,0,0,1,319.79993,30.40713Z"/><path class="cls-59" d="M449.34039,300.13087a23.08946,23.08946,0,0,1-6.55925,1.78574c-1.53782.6358-2.412-.46886-3.29456-1.3447q-9.25747-9.18763-18.43771-18.45267c-1.00543-1.01945-2.26844-2.03606-1.668-3.81085,1.43249-1.36956,3.259-1.46824,5.08184-1.58265a4.61714,4.61714,0,0,1,3.0898,1.58263C434.82293,285.57471,442.14368,292.7909,449.34039,300.13087Z"/><path class="cls-60" d="M329.93975,31.101c.018-1.26938-.97918-1.89194-1.73-2.64679q-6.81725-6.85405-13.67307-13.66962a10.61034,10.61034,0,0,1-2.47312-3.30326q3.59015.02243,7.18033.04488c2.13828.28678,3.44076,1.68272,4.87369,3.18725,4.82053,5.0614,9.8475,9.92586,14.777,14.88409.744.74837,1.74832,1.35034,1.783,2.59865C336.95544,33.23184,333.34546,33.16782,329.93975,31.101Z"/><path class="cls-61" d="M309.063,293.56039c.04258,1.37142,1.16927,2.00727,1.98021,2.82264Q320.76,306.1528,330.512,315.88766c.74613.74934,1.75986,1.346,1.81364,2.5936l-1.163.19238q-1.78765-.01054-3.57518-.021-1.22062-.075-2.44131-.15033a9.43766,9.43766,0,0,1-2.8581-2.093c-6.44154-6.46464-12.914-12.89854-19.33576-19.38272-.78109-.7887-2.013-1.42308-1.64706-2.90443q.00392-.23872.00093-.47748A7.26826,7.26826,0,0,1,309.063,293.56039Z"/><path class="cls-62" d="M283.61965,29.38393c-1.608-.18855-2.0451-1.7421-3.00236-2.66018-3.48766-3.3449-7.0175-6.66922-10.22777-10.27189-2.22184-2.49342-4.62362-3.83532-7.95664-3.31522,2.92593-.81531,5.92794-.52673,8.90448-.61011,1.79116-.62433,3.69077.117,5.48761-.43581l.63793-.01215c3.19371,3.26488,6.35221,6.56516,9.59289,9.78269a58.47109,58.47109,0,0,1,6.504,7.327,1.85815,1.85815,0,0,1-1.25876.77592,28.71732,28.71732,0,0,1-3.96259.14833c-.97115-.05114-1.94526-.02869-2.91848-.06767A2.71681,2.71681,0,0,1,283.61965,29.38393Z"/><path class="cls-63" d="M556.00753,249.23486c-.07991-1.23879-1.09856-1.82682-1.84327-2.57549q-8.87456-8.92149-17.77867-17.81349c-.74482-.7487-1.763-1.3375-1.8392-2.57756a5.80608,5.80608,0,0,1,4.15956-3.93379c1.59378.708,2.58574,2.12042,3.76909,3.29344q8.22212,8.15007,16.367,16.37768c.85631.86636,2.152,1.54437,1.92414,3.11448A19.46719,19.46719,0,0,1,556.00753,249.23486Z"/><path class="cls-64" d="M464.79651,295.422a16.671,16.671,0,0,1-5.33225,1.71547c-1.01143.55645-1.69171-.02715-2.32007-.70056-6.90556-7.4007-14.17588-14.43835-21.39917-21.52292a1.25719,1.25719,0,0,1-.35894-.792c1.58278-1.63149,3.722-1.75451,5.76764-2.13524a4.40433,4.40433,0,0,1,3.10931,1.553q9.7278,9.65076,19.37251,19.38467C464.28906,293.58355,465.25772,294.19947,464.79651,295.422Z"/><path class="cls-65" d="M482.09579,289.37036a29.62587,29.62587,0,0,1-6.591,2.43666c-7.626-7.43623-15.02072-15.10524-22.65909-22.52917a.79181.79181,0,0,1-.159-.55452,9.87374,9.87374,0,0,1,6.99338-2.43552c7.03571,7.03734,14.12721,14.02385,21.06509,21.16293A5.03254,5.03254,0,0,1,482.09579,289.37036Z"/><path class="cls-66" d="M452.72374,269.03012a3.22707,3.22707,0,0,1,2.23866,1.28655q9.62448,9.63275,19.25637,19.25792a3.10685,3.10685,0,0,1,1.286,2.2324,17.257,17.257,0,0,1-5.3368,1.84533,1.86653,1.86653,0,0,1-.81414-.34857c-7.40576-7.31354-15.04879-14.394-21.8965-22.2562a.826.826,0,0,1-.129-.5663C448.87718,269.067,450.55862,268.1478,452.72374,269.03012Z"/><path class="cls-67" d="M243.36939,14.91588q6.22126,6.35418,12.43395,12.71666c.80365.82794,1.93874,1.46045,1.96,2.84119-1.60031,1.7084-3.7276,1.34779-5.72612,1.41987-1.25824.04539-2.51689.15064-3.77529.10856-2.4548-1.34652-3.96382-3.71882-5.94941-5.578-2.50948-2.34964-4.93041-4.79984-7.28782-7.30566a5.54945,5.54945,0,0,1-1.77168-2.99244A46.07781,46.07781,0,0,1,243.36939,14.91588Z"/><path class="cls-68" d="M560.76614,245.12013q-9.71917-9.83286-19.43357-19.67047c-.90065-.9137-1.73635-1.89139-2.60212-2.83944.1389-2.54932,2.2379-3.05106,4.03691-3.86813a1.13125,1.13125,0,0,1,.54738.20575q11.09068,10.46764,21.553,21.56365a1.00822,1.00822,0,0,1,.17552.55762A9.454,9.454,0,0,1,560.76614,245.12013Z"/><path class="cls-69" d="M402.12312,310.84506a19.38624,19.38624,0,0,1-5.40117,1.038,8.79932,8.79932,0,0,1-3.29608-2.477c-5.96071-5.96627-12.0084-11.8493-17.82916-17.94894-1.40584-1.47318-3.62739-1.8757-4.52342-3.85747,2.26007-1.2849,4.76236-1.28573,7.24608-1.38589a3.84047,3.84047,0,0,1,2.56826,1.326c6.51218,6.81854,13.31911,13.3451,19.90989,20.08555C401.62877,308.47546,402.97181,309.24651,402.12312,310.84506Z"/><path class="cls-70" d="M384.20727,313.73126a10.96146,10.96146,0,0,0-2.65626-3.50185q-10.31384-10.38273-20.59442-20.79842c1.49027-1.7025,3.49556-1.436,5.43273-1.42992a3.84925,3.84925,0,0,1,2.55388,1.316c6.47187,6.7773,13.2231,13.27773,19.80438,19.94677a9.73027,9.73027,0,0,1,1.35461,1.56145c.84476,1.32727.28573,1.98681-1.0797,2.25954C387.41965,313.31689,385.86505,313.9085,384.20727,313.73126Z"/><path class="cls-58" d="M529.738,230.20381c.01354,1.37122,1.10431,2.038,1.91631,2.863q9.76488,9.92153,19.55717,19.816-2.376,1.72683-4.752,3.45351c-.11355-1.2257-1.133-1.8072-1.877-2.55552-5.84071-5.87423-11.71281-11.71725-17.55432-17.59071-.75556-.75968-1.39146-1.63841-2.0828-2.462A5.19083,5.19083,0,0,1,529.738,230.20381Z"/><path class="cls-71" d="M425.59985,306.15683a31.32652,31.32652,0,0,1-7.379,1.63275c-7.34667-7.00395-14.42273-14.28-21.56661-21.48743-.74294-.74954-1.52417-1.598-1.16777-2.85391,1.70052-1.22506,3.67992-1.19566,5.63872-1.262a2.41946,2.41946,0,0,1,1.3.65846C410.01637,290.74831,417.90519,298.35606,425.59985,306.15683Z"/><path class="cls-72" d="M402.12312,310.84506c.01911-1.0072-.68618-1.58589-1.30791-2.21543q-10.58956-10.72255-21.19092-21.43338c-.18-.18149-.55012-.17445-.83155-.25533,1.50942-2.32238,3.94312-1.40163,6.02239-1.72306a5.01078,5.01078,0,0,1,2.39656,1.652q9.32111,9.30849,18.62718,18.63209a9.64586,9.64586,0,0,1,2.22814,3.10717c.2432.59582.27269,1.16748-.53621,1.3837C405.73656,310.32982,403.98867,310.96085,402.12312,310.84506Z"/><path class="cls-73" d="M419.41483,278.66944a10.00253,10.00253,0,0,0,1.22573,2.01287q10.23623,10.31561,20.55587,20.54809a4.90544,4.90544,0,0,0,1.58445.6861,27.643,27.643,0,0,1-7.20705,1.88261c-5.80274-5.69785-11.49782-11.50354-17.26681-17.23524-1.4101-1.401-2.84492-2.77928-4.20121-4.23143-.64445-.69-1.61715-1.26509-1.30077-2.4849C414.87292,278.68992,416.93693,277.51542,419.41483,278.66944Z"/><path class="cls-74" d="M425.59985,306.15683a3.00678,3.00678,0,0,1-1.84546-.84458q-11.12858-11.27106-22.26535-22.53409c1.28406-2.21254,3.48333-1.68875,5.4592-1.83327a3.11818,3.11818,0,0,1,1.75841,1.01184c6.81407,7.1522,13.944,13.99094,20.86981,21.03222a3.57225,3.57225,0,0,1,1.28711,1.93421A14.08925,14.08925,0,0,1,425.59985,306.15683Z"/><path class="cls-75" d="M430.86357,304.92316c-5.573-4.76549-10.43967-10.25331-15.68261-15.35657-2.68654-2.615-5.24607-5.36057-7.863-8.04713,1.45619-1.87087,3.29965-2.01408,5.35751-1.201,6.36829,5.49528,11.98168,11.76218,17.984,17.63156,1.818,1.77778,3.97851,3.312,4.91429,5.84891A12.31125,12.31125,0,0,1,430.86357,304.92316Z"/><path class="cls-76" d="M435.46741,274.41777c1.36528.02744,2.04337,1.10555,2.84157,1.9349,6.552,6.80728,13.66942,13.06165,19.82608,20.25794.27389.32015.8783.35758,1.329.52678a19.87714,19.87714,0,0,1-5.982,1.79639c-.72035.35033-1.08927-.20627-1.47734-.6116-6.28845-6.56831-12.85258-12.86264-19.21363-19.35831-1.00244-1.02371-2.3528-1.97638-1.65618-3.78411C432.43012,274.07489,433.81455,273.47919,435.46741,274.41777Z"/><path class="cls-77" d="M447.35447,270.81909c2.04.1415,2.40038,2.16485,3.54678,3.27575,5.80139,5.622,11.47368,11.37744,17.17157,17.10567.75589.76,1.39943,1.63166,2.09511,2.4517a15.60527,15.60527,0,0,1-5.37142,1.76975c-6.41319-7.22341-13.56624-13.71973-20.29909-20.62923-.86569-.88845-1.5606-2.10087-3.04177-2.15461C442.96165,270.53921,444.99905,270.16345,447.35447,270.81909Z"/><path class="cls-78" d="M469.36205,263.03181c6.44839,5.582,12.07925,12.00029,18.27166,17.84153,1.61824,1.52645,2.74436,3.68815,5.13935,4.29876a22.07939,22.07939,0,0,1-5.94727,2.39336c-.84058.32854-1.27052-.28218-1.7271-.77973-5.94582-6.47924-12.3948-12.46163-18.51286-18.77018-.929-.958-2.23892-1.7362-2.08677-3.38654A4.58045,4.58045,0,0,1,469.36205,263.03181Z"/><path class="cls-79" d="M464.722,264.78729c4.53794,5.39487,9.86709,10.0183,14.725,15.10135q3.6784,3.84893,7.37879,7.67682a14.18851,14.18851,0,0,1-4.73,1.80488c-1.57943-.251-2.03165-1.78561-2.98433-2.71813-5.819-5.69577-11.551-11.4806-17.29954-17.24806-.82539-.82807-1.88452-1.52835-1.88456-2.90254C461.01774,264.50989,462.66241,264.06834,464.722,264.78729Z"/><path class="cls-80" d="M359.80415,316.62761q-3.57972.31576-7.15947.63149c.90327-1.39681.4287-2.36627-.70984-3.48267q-9.0381-8.8623-17.90933-17.89413c-.97146-.98488-2.55475-1.81106-1.78215-3.6968a2.395,2.395,0,0,1,.75491-.41327c1.27776-.29151,2.60067-.11086,3.88152-.37821a2.59527,2.59527,0,0,1,.86308.08178c3.05189,2.21833,5.44769,5.13143,8.11876,7.75107,4.72268,4.63173,9.41069,9.30085,14.01271,14.05225C360.80608,314.24106,362.787,315.58808,359.80415,316.62761Z"/><path class="cls-81" d="M352.50877,290.50187a2.79267,2.79267,0,0,1,2.16184.726c6.33666,7.44244,13.6956,13.88739,20.44708,20.92568.75124.7831,1.72656,1.46653.77909,2.72033q-2.39946.28448-4.799.569c-7.61249-7.08163-14.85995-14.53243-22.06088-22.024-.82907-.86258-2.61031-1.21863-2.26389-3.02637A5.52819,5.52819,0,0,1,352.50877,290.50187Z"/><path class="cls-82" d="M389.02249,313.08487c1.89942-1.25646.44075-2.0761-.40729-2.92647-6.168-6.185-12.31717-12.38946-18.55589-18.50247-1.02327-1.00266-1.55657-2.59089-3.1972-2.92591,1.11916-2.09272,2.625-1.48961,4.17215-.59839a4.04157,4.04157,0,0,1,3.25014,1.09328q11.17958,11.36764,22.43755,22.6582Q392.87225,312.484,389.02249,313.08487Z"/><path class="cls-83" d="M395.523,283.97078q10.34987,10.48925,20.6901,20.98791c.8105.8254,1.95126,1.4553,2.00769,2.83089a6.52251,6.52251,0,0,1-3.51482.67188c-1.4251.68794-2.51292-.006-3.45777-.94345q-10.4776-10.39515-20.86289-20.88275c-.53359-.54154-1.199-1.11878-.80107-2.06556C391.48764,283.60379,393.40828,282.81957,395.523,283.97078Z"/><path class="cls-84" d="M431.33345,275.58236c.01136,1.38077,1.12787,2.03137,1.93837,2.856q10.08861,10.26381,20.21014,20.49537a9.93677,9.93677,0,0,1-4.14172,1.1971c-1.36644-.03264-2.04719-1.11014-2.87131-1.93125q-9.47867-9.444-18.93446-18.911c-.82634-.82381-1.52078-1.88156-2.8794-1.92446C426.46045,275.19311,428.75409,274.85226,431.33345,275.58236Z"/><path class="cls-85" d="M340.67076,317.95128q-8.98459-9.12066-17.97013-18.24044a18.41306,18.41306,0,0,1-2.69969-2.76459c-1.92665-3.06307-4.66774-3.952-8.05919-3.46425.3385-1.42792,1.56886-1.32669,2.58087-1.37274a34.57538,34.57538,0,0,1,6.72567.1279,2.80663,2.80663,0,0,1,1.53222.82889c6.79564,7.56554,14.32337,14.41122,21.33935,21.75815.69273.72546,2.5439,1.50334.75935,2.99929Z"/><path class="cls-86" d="M118.1255,45.85694a30.95107,30.95107,0,0,1,7.19533-2.90856c4.37648,2.97193,7.66352,7.08424,11.291,10.83617a2.08089,2.08089,0,0,1,.28572,2.50117,14.988,14.988,0,0,1-7.26608,3.016c-3.44047-3.29077-6.75386-6.712-10.08822-10.11078C118.67633,48.30726,117.593,47.39147,118.1255,45.85694Z"/><path class="cls-87" d="M346.60886,291.12808c.684.04409,1.42714-.05538,1.93757.53734,6.78083,7.87405,14.579,14.75276,21.73675,22.25717a6.448,6.448,0,0,1,.81458,1.52025q-2.68431.29807-5.36862.59617c-6.305-6.96186-13.17551-13.36755-19.74678-20.06759-1.44927-1.47769-2.81954-3.0579-4.84249-3.82832a.68107.68107,0,0,1-.31431-1.17037C342.78163,290.068,344.71592,289.85289,346.60886,291.12808Z"/><path class="cls-88" d="M332.3255,292.36839c.04424,1.36847,1.16806,2.00407,1.97791,2.8184,6.3285,6.36385,12.62474,12.76194,19.06556,19.01067,1.83381,1.77911,1.48958,2.50508-.72433,3.06168q-1.21536.04761-2.43078.09531c-3.62211-3.21011-6.86289-6.80684-10.31782-10.18684-3.39085-3.31736-6.71387-6.7039-10.07276-10.054-1.5314-1.52737-2.91675-3.24014-5.211-3.74137-.65457-.143-1.00106-.63853-.38367-1.29776C326.96511,291.21908,329.67984,290.8595,332.3255,292.36839Z"/><path class="cls-89" d="M565.04329,241.06911c-7.68478-7.1616-15.18368-14.5084-22.22744-22.30869.49223-1.59312,1.08494-3.09164,3.07935-3.27031.02679,1.26251,1.05906,1.84972,1.80374,2.59821q9.10589,9.15265,18.24078,18.27632c.7583.76233,1.39466,1.64594,2.08768,2.47358Q566.53547,239.95392,565.04329,241.06911Z"/><path class="cls-90" d="M323.93837,292.91594c1.94147-.27022,3.33238.54555,4.69038,1.93,6.32519,6.44825,12.73958,12.80917,19.14228,19.181a10.05655,10.05655,0,0,1,2.44283,3.32754,17.19824,17.19824,0,0,1-5.33468.46907c.795-1.47974-.66342-1.91143-1.322-2.57845q-9.40986-9.53046-18.9251-18.9567a10.3179,10.3179,0,0,1-2.447-3.32339A1.1923,1.1923,0,0,1,323.93837,292.91594Z"/><path class="cls-91" d="M27.37721,160.5078c-1.05545,1.49424.0162,3.30667-.707,4.87647-1.427.11381-2.10293-.987-2.91631-1.79351q-6.227-6.17446-12.41021-12.393c-.67117-.67084-1.30507-1.71589-2.22241-.254a31.49242,31.49242,0,0,1,1.78033-7.71762,1.76617,1.76617,0,0,1,1.83907.68386c5.10016,4.957,10.06409,10.05162,15.15412,15.0231A1.3079,1.3079,0,0,1,27.37721,160.5078Z"/><path class="cls-92" d="M340.53219,291.67206a4.74907,4.74907,0,0,1,3.90973,1.699c6.34412,6.43586,12.7533,12.80765,19.15411,19.18745a6.35764,6.35764,0,0,1,2.13311,3.48049q-2.96254.2943-5.925.58863c1.94038-1.26973.38261-2.07816-.4299-2.89456q-9.72284-9.76932-19.47915-19.50533c-.76456-.76637-1.4693-1.59248-2.20178-2.3909A1.91552,1.91552,0,0,1,340.53219,291.67206Z"/><path class="cls-93" d="M389.43608,285.105c4.82476,3.97124,8.91012,8.70337,13.39057,13.02922,2.99194,2.88866,5.90458,5.86009,8.8257,8.82108.85874.87043,1.70591,1.66971,3.05339,1.50614-2.29426.96617-4.76349,1.11364-7.175,1.53154.294-1.95972-1.20782-2.95542-2.31144-4.08467q-9.86143-10.09088-19.80518-20.1013A2.72764,2.72764,0,0,1,389.43608,285.105Z"/><path class="cls-94" d="M455.81193,32.256c-2.04708.55044-.67943,1.379-.097,1.97472,2.82952,2.89371,5.70725,5.74027,8.56924,8.60219q19.53724,19.53681,39.05274,39.09531c.54553.54792,2.05244,1.06657.66073,2.27853a5.20168,5.20168,0,0,1-5.2444-3.12345c.21517-1.66875-1.07668-2.46176-2.0327-3.41889Q474.9491,55.86739,453.15266,34.09537a11.128,11.128,0,0,1-2.6942-3.509A21.11072,21.11072,0,0,1,455.81193,32.256Z"/><path class="cls-95" d="M205.27279,20.4157a35.22842,35.22842,0,0,1,7.16871-1.21826c4.93076,3.41328,8.74266,7.99333,12.76608,12.34225.69595.75222,1.25573,1.88491.10569,2.88983a22.76729,22.76729,0,0,1-7.62654,1.23511c-2.83352-4.66309-7.23483-7.89844-10.819-11.8795C206.03562,22.86083,204.42,22.185,205.27279,20.4157Z"/><path class="cls-96" d="M233.253,16.12607q6.74993,6.88781,13.48629,13.78878a7.28252,7.28252,0,0,1,.88286,1.49647c-2.07959,1.82976-4.66118,1.1244-7.04649,1.4015-4.54752-3.82345-8.39874-8.36651-12.70493-12.44527a6.97614,6.97614,0,0,1-1.68756-2.06143c-.2896-.62959-.19833-1.156.54031-1.41327A28.10312,28.10312,0,0,1,233.253,16.12607Z"/><path class="cls-97" d="M96.05465,56.09814a29.75785,29.75785,0,0,1,7.21007-3.57535c3.62545,3.35426,7.01041,6.95084,10.49854,10.44321.76383.76475,1.54575,1.60037,1.02918,2.86335-2.02036,1.41418-3.90355,3.12355-6.5997,3.10448C104.1557,64.64908,99.57735,60.87261,96.05465,56.09814Z"/><path class="cls-55" d="M79.94225,64.92774a22.46276,22.46276,0,0,1,4.91568-2.81708,1.941,1.941,0,0,1,2.65834.32026c3.48354,3.32293,6.95553,6.6598,10.17246,10.24747a1.70349,1.70349,0,0,1,.40954,1.373,8.99366,8.99366,0,0,1-5.48853,3.52247,2.38424,2.38424,0,0,1-1.6586-.50077A139.02738,139.02738,0,0,1,80.1212,66.28585,1.11561,1.11561,0,0,1,79.94225,64.92774Z"/><path class="cls-98" d="M226.7235,16.89285c-.78532,1.30227.469,1.75159,1.07769,2.3725,3.38834,3.45631,6.83954,6.85093,10.24315,10.29246.74388.75216,1.76043,1.34484,1.82223,2.58986-1.94,1.7571-4.23863,1.64449-6.587,1.27024-4.54543-4.19023-8.78681-8.69462-13.13709-13.08882-.59006-.596-1.28786-1.32671-.55376-2.31432Z"/><path class="cls-64" d="M187.35086,24.05141l5.42323-1.18635c2.33146.88532,3.67253,2.9495,5.37305,4.57113,2.28914,2.18293,4.53228,4.41863,6.70077,6.72221.83894.89121,2.03231,1.80817.887,3.29151a10.21461,10.21461,0,0,1-6.68994,1.23347c-3.85576-3.81542-7.70032-7.64772-11.472-11.55022C186.75576,26.28759,185.45794,25.21184,187.35086,24.05141Z"/><path class="cls-99" d="M219.58873,18.01477c.0641,1.3599,1.19333,1.98393,1.99736,2.80143,3.10616,3.15827,6.26344,6.26623,9.37983,9.41454.743.75065,1.741,1.36,1.74421,2.61575a6.37461,6.37461,0,0,1-7.1607,1.0479,6.77485,6.77485,0,0,0-2.32861-3.68057c-3.60788-3.65758-7.18837-7.34213-10.77932-11.01639A32.20684,32.20684,0,0,1,219.58873,18.01477Z"/><path class="cls-100" d="M169.39575,28.43861l6.06079-1.49549c3.456,1.85537,5.57512,5.177,8.42419,7.6994a28.61564,28.61564,0,0,1,3.09135,3.15335c.73941.89344,1.60677,1.79774,1.01647,3.1463a9.749,9.749,0,0,1-6.39133,1.76594q-5.64449-5.5533-11.186-11.21586C169.60807,30.67653,168.6329,29.8197,169.39575,28.43861Z"/><path class="cls-101" d="M22.8467,116.96785a19.07182,19.07182,0,0,1,3.2986-4.84431c1.57664-.83521,2.39167.438,3.25978,1.27964,3.61751,3.50731,7.11189,7.14023,10.76139,10.61761.06468,2.41079-1.66793,3.86576-2.95835,5.55786a2.83156,2.83156,0,0,1-2.90412-1.04892C30.4255,124.73538,26.45892,121.02647,22.8467,116.96785Z"/><path class="cls-102" d="M17.29994,126.47784l2.61185-4.70535a2.2476,2.2476,0,0,1,2.39632.75011c4.08883,4.08075,8.49086,7.85845,12.09349,12.41616.193,1.772-.7806,3.067-1.77773,4.35468a1.944,1.944,0,0,1-2.90795.089C25.48663,135.16928,20.81093,131.38189,17.29994,126.47784Z"/><path class="cls-103" d="M34.008,134.85556c-3.60611-3.52835-7.226-7.04283-10.8094-10.594a11.04854,11.04854,0,0,0-3.28686-2.489,20.57483,20.57483,0,0,1,2.93492-4.80464c2.01456.434,2.88021,2.28529,4.25963,3.49281,3.32847,2.91368,5.92347,6.62032,9.72875,9.02427C37.32509,132.02911,35.7291,133.47526,34.008,134.85556Z"/><path class="cls-104" d="M131.30539,40.64282a15.8088,15.8088,0,0,1,5.23761-1.88826c.90894-.33349,1.53085.23737,2.07955.76809q5.014,4.84962,9.86506,9.86362a2.19515,2.19515,0,0,1,.85424,2.096,8.58931,8.58931,0,0,1-5.94661,2.60223c-4.3863-3.2834-7.87511-7.502-11.73242-11.33714C131.11545,42.20311,130.63065,41.47679,131.30539,40.64282Z"/><path class="cls-105" d="M118.1255,45.85694c1.401,3.21269,4.43056,5.0046,6.58468,7.559,1.5734,1.86579,3.88556,3.08962,4.80132,5.5245a7.5496,7.5496,0,0,1-5.82441,2.76125c-3.47693-3.34-6.83946-6.79825-10.21461-10.24266-.79779-.81417-1.74462-1.68311-1.24734-3.075A26.26488,26.26488,0,0,1,118.1255,45.85694Z"/><path class="cls-88" d="M96.05465,56.09814c2.22211.37885,2.79593,2.57868,4.11181,3.90661,2.7187,2.74356,6.05315,4.95835,7.872,8.53655a7.27047,7.27047,0,0,1-5.28579,3.27665c-4.15092-4.25079-8.49436-8.31477-12.519-12.69317A22.30375,22.30375,0,0,1,96.05465,56.09814Z"/><path class="cls-106" d="M27.4354,158.71717c-2.93721-1.403-4.74243-4.09067-7.02105-6.2337-3.22261-3.03081-6.34662-6.16648-9.51277-9.25734a12.94536,12.94536,0,0,1,1.22954-4.19c1.16539-.914,2.08719-.20806,2.86488.55493,4.57656,4.49,9.16888,8.96491,13.614,13.59384A5.93289,5.93289,0,0,1,27.4354,158.71717Z"/><path class="cls-77" d="M205.86619,36.96882c-.09224-1.46132-1.32956-2.11155-2.18874-2.99827-3.60994-3.72559-7.26489-7.40757-10.90336-11.1055q3.2667-.63588,6.53343-1.2718c4.09847,3.69827,7.87684,7.7211,11.75956,11.63725.82933.83647,1.65192,1.80666.68532,3.10646C209.87324,37.32742,207.99166,38.29277,205.86619,36.96882Z"/><path class="cls-107" d="M211.83368,35.85837c.00966-1.26287-.98681-1.87984-1.73322-2.6339-2.98895-3.01964-6.01363-6.00395-8.99879-9.02729-.74361-.7531-1.75843-1.35057-1.79415-2.60394l5.96527-1.17754c.49552,2.08657,2.37546,3.05239,3.68892,4.45331,2.42141,2.58264,4.985,5.032,7.49022,7.536.7595.75914,1.753,1.45144.74705,2.69843C215.57921,36.55384,213.82926,37.079,211.83368,35.85837Z"/><path class="cls-108" d="M131.30539,40.64282c.2586,1.87633,1.92278,2.67624,3.04038,3.86439,2.9089,3.09258,5.91716,6.0917,8.88579,9.1281a6.42926,6.42926,0,0,1-6.56076,2.4174c.22078-1.50943-.89337-2.27453-1.75887-3.19167-3.15589-3.34415-6.71932-6.29392-9.59109-9.91265A21.41455,21.41455,0,0,1,131.30539,40.64282Z"/><path class="cls-109" d="M90.23374,59.12478c2.043.39093,3.01407,2.17041,4.2478,3.49362,2.73646,2.935,6.19422,5.2102,8.18584,8.83116a4.22621,4.22621,0,0,1-4.769,2.45916q-5.34573-5.44115-10.68477-10.8888a2.66182,2.66182,0,0,0-2.35573-.90928A22.50789,22.50789,0,0,1,90.23374,59.12478Z"/><path class="cls-110" d="M66.13813,73.93953A24.42228,24.42228,0,0,1,71.583,70.20967c3.47283,3.5228,6.98578,7.00573,10.45988,10.52718a3.4174,3.4174,0,0,1,1.28676,2.26851c-.73495,2.07077-2.63232,2.59166-4.39373,3.29664a1.31483,1.31483,0,0,1-.85358-.181C73.81974,82.33707,69.561,78.54726,66.13813,73.93953Z"/><path class="cls-73" d="M169.39575,28.43861c.06071,1.5783,1.37618,2.29932,2.2623,3.31473,3.14316,3.60187,7.24818,6.31109,9.75059,10.50741a6.24735,6.24735,0,0,1-5.60237,1.78121c-3.93379-3.84036-7.80424-7.75-11.64478-11.68842-.57822-.593-1.35443-1.27432-.63951-2.29341Z"/><path class="cls-111" d="M83.0123,83.04132c-2.846-3.65133-6.44208-6.57927-9.58883-9.94063-.79514-.84937-1.82559-1.54544-1.84037-2.89066a16.74492,16.74492,0,0,1,4.27154-2.7434c.57006-.25933.9226.10483,1.25514.4621C80.794,71.887,84.76818,75.558,88.52272,79.4491,87.45189,81.82083,85.43888,82.74847,83.0123,83.04132Z"/><path class="cls-112" d="M53.54773,83.44742a16.7687,16.7687,0,0,1,4.3374-3.49278,1.16822,1.16822,0,0,1,1.358.22942c3.92806,3.79783,8.07867,7.38064,11.42921,11.74312-.4498,2.42458-2.68724,2.78435-4.37205,3.78583a1.18683,1.18683,0,0,1-.8521-.148C61.205,91.79807,56.98233,88.0089,53.54773,83.44742Z"/><path class="cls-113" d="M152.69188,33.26032A22.29282,22.29282,0,0,1,158.1543,31.695c3.97381,3.5903,7.61389,7.51687,11.37322,11.32259.70065.70927,1.29753,1.57141.555,2.64843a7.35223,7.35223,0,0,1-5.13992,1.337c-4.36153-3.27276-7.88053-7.42009-11.63942-11.3163A2.07344,2.07344,0,0,1,152.69188,33.26032Z"/><path class="cls-114" d="M170.07435,45.21036c-1.01029-2.57956-3.48191-3.877-5.16173-5.87114-2.19119-2.60122-5.24464-4.44114-6.75832-7.64427,1.65831-.97476,3.55939-1.15252,5.36768-1.63486,2.55888,4.14683,6.62189,6.89238,9.76764,10.49155.81746.93527,2.09844,1.55249,2.15631,3.03159A4.42067,4.42067,0,0,1,170.07435,45.21036Z"/><path class="cls-115" d="M40.00483,124.112c-3.30136-1.40078-4.98418-4.62961-7.63784-6.75877-2.1142-1.69636-3.36606-4.41826-6.22164-5.22962a15.659,15.659,0,0,1,3.092-4.13359c1.59357-.84176,2.37325.486,3.22749,1.31951,3.60049,3.51335,7.13164,7.0976,10.7163,10.63009C42.77393,121.82553,42.25224,123.62613,40.00483,124.112Z"/><path class="cls-116" d="M152.69188,33.26032c1.60172,3.528,4.89865,5.56415,7.35809,8.33694,1.49559,1.68613,3.10123,3.27466,4.65742,4.907-1.17109,1.98807-3.1731,2.06243-5.13465,2.23408-4.493-3.31771-8.07093-7.59015-11.93892-11.55745-.75527-.77464-.96453-1.78895.35187-2.42044Z"/><path class="cls-117" d="M42.89648,119.93949c-3.95923-2.21593-6.38214-6.10219-9.74986-8.95854-1.25014-1.0603-2.00808-2.77933-3.90923-2.991a16.23929,16.23929,0,0,1,3.454-4.23953c1.48858-.47152,2.12754.77606,2.91608,1.54521,3.53385,3.44692,6.98366,6.9796,10.53271,10.41445A4.5813,4.5813,0,0,1,42.89648,119.93949Z"/><path class="cls-84" d="M187.97237,40.6012c-1.70134-3.46743-4.96964-5.5346-7.44563-8.3099-1.6346-1.83221-3.37639-3.56879-5.0702-5.34819a34.05155,34.05155,0,0,1,7.12426-1.74851,4.82121,4.82121,0,0,0,1.6845,3.28755c2.67193,2.59732,5.31863,5.22289,7.89927,7.911.90968.94755,2.19184,1.88739,1.10455,3.516C191.59791,40.871,189.90172,41.63493,187.97237,40.6012Z"/><path class="cls-118" d="M46.03782,115.78049c-1.38093-.021-2.00733-1.16283-2.85762-1.95134-3.55572-3.29733-6.62723-7.09876-10.48877-10.07868a11.95632,11.95632,0,0,1,3.07388-3.52822,1.76508,1.76508,0,0,1,2.37533.501c3.71548,3.77849,7.80922,7.19287,11.05048,11.43174C48.74352,113.887,48.10615,115.45657,46.03782,115.78049Z"/><path class="cls-119" d="M48.99171,112.19222Q43.80915,107.16,38.6218,102.13276c-.83225-.80263-1.49627-1.88557-2.85647-1.9105q1.89222-2.04434,3.78447-4.08866c1.32531-.28925,1.95093.7633,2.6868,1.48518,3.51849,3.45153,6.97612,6.96482,10.49311,10.421C52.09456,109.97321,51.43209,111.88352,48.99171,112.19222Z"/><path class="cls-120" d="M52.51308,108.01357c-2.03991-.38571-2.92611-2.22418-4.26392-3.46388-2.95874-2.74175-5.8064-5.60337-8.69937-8.41609a14.12614,14.12614,0,0,1,3.98287-3.81951c2.73736,1.47872,4.47731,4.054,6.67451,6.12233,2.06551,1.94433,4.07353,3.955,6.08222,5.96433A4.04572,4.04572,0,0,1,52.51308,108.01357Z"/><path class="cls-121" d="M193.34146,39.42213c-.28236-1.99215-2.05653-2.8359-3.24482-4.098-2.44859-2.60066-4.9904-5.11775-7.576-7.58313-1.03275-.98475-1.15424-1.72376.06013-2.54641q2.385-.57157,4.77006-1.14319c-.97489,1.27749.046,1.96488.80779,2.727q4.42471,4.42656,8.84592,8.85661c.7542.76053,1.73174,1.3986,1.72384,2.66192C197.27162,40.29416,195.42177,40.40978,193.34146,39.42213Z"/><path class="cls-87" d="M114.59707,65.48441c-2.335-3.97542-6.23738-6.498-9.18053-9.90894-.81529-.94489-2.10327-1.56486-2.15181-3.05267,1.14946-1.02312,2.63888-1.31151,4.01005-1.85547,1.15627-.33174,1.83284.47077,2.51154,1.13554,2.93815,2.87786,5.8548,5.77819,8.72086,8.728.74768.76954,1.528,1.57926,1.10555,2.8321C118.20183,64.6852,116.83549,66.11719,114.59707,65.48441Z"/><path class="cls-122" d="M53.54773,83.44742c4.58015,3.5982,8.19785,8.2,12.55,12.03586-.1313,2.10641-1.85619,2.6598-3.34955,3.44222a2.83639,2.83639,0,0,1-2.378-.94344c-3.26-3.12313-6.44283-6.32483-9.57849-9.57231-.52707-.54587-1.13434-1.15088-.69647-2.06238A10.52689,10.52689,0,0,1,53.54773,83.44742Z"/><path class="cls-123" d="M70.55025,91.94157c-3.73867-2.943-6.76-6.62941-10.22179-9.8589-.78928-.7363-1.62757-1.42007-2.44332-2.128,1.29041-1.10155,2.40343-2.44146,4.07406-3.03214a1.52269,1.52269,0,0,1,1.8346.5426c3.71715,3.76207,7.791,7.183,10.99174,11.44316A4.18045,4.18045,0,0,1,70.55025,91.94157Z"/><path class="cls-124" d="M74.45627,88.922c-3.27468-3.23387-6.53814-6.47924-9.83181-9.69366-.83918-.819-1.77417-1.53979-2.66519-2.30574a13.7066,13.7066,0,0,1,4.17891-2.983c3.743,2.91755,6.74795,6.60133,10.1983,9.82256.78859.73623,1.60443,1.44328,2.40773,2.16376C78.3178,88.35992,76.26764,88.47005,74.45627,88.922Z"/><path class="cls-83" d="M147.98569,34.76049c-1.05639,1.44306.20515,2.12608.98933,2.93162q5.16748,5.30823,10.36283,10.58933c-1.18171,1.98713-3.26208,1.78461-5.12721,2.108-4.2966-4.42253-9.16732-8.30012-12.79119-13.3703A28.52727,28.52727,0,0,1,147.98569,34.76049Z"/><path class="cls-125" d="M17.29994,126.47784c4.31677,3.53066,7.92124,7.79463,11.95682,11.61481.83716.79247,1.53951,2,2.96273.93912.9072,2.16459-.5992,3.68178-1.43918,5.37866a1.56611,1.56611,0,0,1-2.16642-.1856c-4.49507-4.433-9.38727-8.4841-13.17617-13.601Z"/><path class="cls-93" d="M141.41945,37.01914c4.37513,4.1508,9.08609,7.97756,12.55016,13.0074-1.29,1.55312-2.775,2.37162-4.77078,1.26666a149.33617,149.33617,0,0,0-12.65559-12.5385A15.0176,15.0176,0,0,1,141.41945,37.01914Z"/><path class="cls-126" d="M28.10055,152.75294c-1.26777-.00555-1.88012-1.01631-2.637-1.76618q-5.18817-5.1402-10.335-10.32215c-.8394-.84015-1.59619-1.82554-2.99746-1.62843l1.75748-4.75524c1.19062-.27259,1.81171.62458,2.48424,1.29113q6.62372,6.56495,13.22055,13.16069A4.92889,4.92889,0,0,1,28.10055,152.75294Z"/><path class="cls-127" d="M88.54357,79.46981c-1.45223-.06829-2.19787-1.20316-3.07352-2.09541-3.22349-3.28458-6.41308-6.60245-9.61542-9.90778q2.04384-1.26941,4.08764-2.53886c3.9884,4.26819,7.61649,8.91328,12.64689,12.09166A3.27082,3.27082,0,0,1,88.54357,79.46981Z"/><path class="cls-128" d="M56.07864,104.43444c-2.022-.39259-2.959-2.172-4.22469-3.45692-2.80877-2.85152-5.94882-5.39244-8.32124-8.66334A10.96,10.96,0,0,1,46.497,89.47141a1.33184,1.33184,0,0,1,1.60186.3786c3.8022,3.80575,7.94283,7.28477,11.236,11.58684A3.267,3.267,0,0,1,56.07864,104.43444Z"/><path class="cls-129" d="M29.16971,148.57569c-1.54978-.1975-2.2413-1.54142-3.20917-2.47522-4.0527-3.91007-8.05266-7.87483-12.07194-11.81953q.77458-1.82854,1.54914-3.65709c4.402,3.53238,8.01219,7.88293,12.12012,11.7184.84392.788,1.44543,1.93523,2.7885,2.05758A3.15745,3.15745,0,0,1,29.16971,148.57569Z"/><path class="cls-81" d="M119.37283,63.21094c-.39039-2.02067-2.17-2.95406-3.45144-4.22072-2.84394-2.81111-5.39933-5.92983-8.64641-8.32278a15.66029,15.66029,0,0,1,4.95016-2.28341c2.23848,4.0597,6.14773,6.59678,9.10547,10.0002.81822.94152,2.10268,1.551,2.21669,3.01352C122.61092,63.05,121.36394,63.987,119.37283,63.21094Z"/><path class="cls-130" d="M59.32769,101.53085c-3.71847-2.77089-6.58627-6.43011-9.97346-9.54652-.93314-.85855-1.90376-1.67638-2.8572-2.5129a12.28622,12.28622,0,0,1,3.59828-3.124c3.94478,4.306,7.61932,8.893,12.60111,12.121C62.64513,100.66809,61.01246,101.12812,59.32769,101.53085Z"/><path class="cls-85" d="M334.147,318.45476c1.92774-.95228,3.98094-.27459,5.96785-.45932A17.93655,17.93655,0,0,1,334.147,318.45476Z"/><path class="cls-131" d="M468.92461,38.82136c-1.08494-.72135-2.18172-1.43291-2.38517-2.88341q.60706.00483,1.21409.00968Q468.33912,37.38456,468.92461,38.82136Z"/><path class="cls-49" d="M276.825,12.09072c-1.76245.97774-3.65557.31194-5.48676.436A15.90986,15.90986,0,0,1,276.825,12.09072Z"/><path class="cls-132" d="M102.10308,277.40883a54.72569,54.72569,0,0,1-9.5426-4.7716c-.1825-1.10069-1.15761-1.58277-1.83859-2.264Q51.61677,231.25674,12.4908,192.161a13.88884,13.88884,0,0,1-1.76922-5.8224c-.148-1.37675.75561-1.14869,1.48111-.86635a7.86887,7.86887,0,0,1,2.50043,2.08216q43.00532,42.99319,85.99876,85.99824a8.10477,8.10477,0,0,1,2.08039,2.503C103.02087,276.64631,103.3521,277.47717,102.10308,277.40883Z"/><path class="cls-133" d="M12.4908,192.161c1.29684-.10955,1.92765.89448,2.68078,1.64722q38.15513,38.13552,76.26882,76.31243c.61547.617,2.18458,1.05482,1.12008,2.51655a77.5698,77.5698,0,0,1-11.40339-6.43132,66.19521,66.19521,0,0,0-5.0335-5.06561c-19.76195-19.85417-39.66451-39.568-59.37019-59.47836a3.54845,3.54845,0,0,0-.70474-.54559C14.53706,198.26062,13.01068,195.41077,12.4908,192.161Z"/><path class="cls-134" d="M102.10308,277.40883c1.11817-1.64939-.68592-2.05546-1.33768-2.71241Q81.26486,255.04065,61.64729,235.501q-23.99943-23.99936-48.03349-47.9639c-.69321-.68932-1.20241-2.60636-2.89214-1.1986q-.79989-2.77454-1.59961-5.54933c1.00943-.865,1.84927-.27761,2.64887.34529a24.11052,24.11052,0,0,1,2.15145,2.05633q46.43348,46.43144,92.86308,92.86671a13.02024,13.02024,0,0,1,2.38586,2.6441c.39916.71157.901,1.62874-.61371,1.74248A17.58889,17.58889,0,0,1,102.10308,277.40883Z"/><path class="cls-135" d="M8.51189,175.42066c1.53424-.21588,2.316.91466,3.21584,1.81387q13.1694,13.15941,26.3568,26.30059c.64315.6375,1.07809,2.13914,2.54884,1.22908,1.339-.40017,1.70841.80674,2.21706,1.50241,7.0232,9.60582,15.578,17.69471,24.754,25.1785.75978.61963,1.65746,1.1283,1.9676,2.1636.16272,1.66117,1.48291,2.52587,2.51429,3.55906Q92.9135,258.03132,113.765,278.87059a8.96505,8.96505,0,0,1,2.57832,3.22589c.32488.958.45963,1.9633-1.154,1.294a11.004,11.004,0,0,1-4.13226-1.8038,16.11992,16.11992,0,0,0-3.08526-3.9568q-47.81205-47.80425-95.60416-95.62844a36.41645,36.41645,0,0,1-3.28279-3.002A5.30985,5.30985,0,0,1,8.51189,175.42066Z"/><path class="cls-136" d="M16.04866,201.11635c1.298-.1299,1.93177.86925,2.68392,1.62092q30.40444,30.385,60.78932,60.78956c.75155.752,1.75147,1.38381,1.63519,2.67908a103.65163,103.65163,0,0,1-14.91266-9.54452c-9.13324-9.27937-18.38995-18.43558-27.60088-27.63731-5.34076-5.33545-10.57746-10.77619-16.0632-15.9659A54.31964,54.31964,0,0,1,16.04866,201.11635Z"/><path class="cls-137" d="M142.01584,293.66839a47.73069,47.73069,0,0,1-10.24642-3.64555c-.49012-1.49175-1.7221-2.40172-2.76141-3.44365Q113.42177,270.954,97.80548,255.35882a15.227,15.227,0,0,1-2.02531-2.1829c-.57952-.86723-1.10054-1.80321.40591-2.34842a27.85854,27.85854,0,0,1,10.81221,5.20539,7.37416,7.37416,0,0,0,2.201,2.75424q15.33991,15.34665,30.666,30.707C140.98316,290.61908,142.61394,291.60522,142.01584,293.66839Z"/><path class="cls-138" d="M96.31516,251.10753c-1.64266,1.58133.386,2.062.98081,2.66267,11.10508,11.21531,22.29481,22.34682,33.40168,33.56039.61658.6225,2.57431,1.08347,1.07178,2.69223a32.6405,32.6405,0,0,1-7.66859-2.92546C111.01578,273.868,97.799,260.77,84.66245,247.592a14.30191,14.30191,0,0,1-2.01119-2.178c-.55515-.855-1.13261-1.80083.4271-2.30527,4.23783,1.78356,8.1294,4.234,12.19359,6.35233A1.747,1.747,0,0,1,96.31516,251.10753Z"/><path class="cls-101" d="M228.52816,313.76523a52.68387,52.68387,0,0,1-11.36411-1.73172c.68185-1.616-.62636-2.34424-1.49238-3.21444-6.91749-6.95045-13.891-13.84552-20.757-20.84641-.91195-.92989-3.04709-1.821-1.14946-3.75575,3.04263.08694,6.08494.16686,8.9548,1.36046.16408,1.03934,1.0339,1.55218,1.69364,2.21216q11.009,11.01288,22.00408,22.03949C227.48177,310.90173,228.96785,311.84466,228.52816,313.76523Z"/><path class="cls-139" d="M83.12246,243.37636c-1.49085,1.61575.47722,2.062,1.08832,2.67832q18.86567,19.02474,37.83926,37.94253c.87568.87808,2.15052,1.55214,2.0508,3.10015a48.55977,48.55977,0,0,1-8.91154-3.70686c.86647-.04395,1.03831-.53876.58654-1.15288a21.68763,21.68763,0,0,0-2.1156-2.46388q-21.5406-21.56952-43.06893-43.15112c-.681-.68526-2.379-1.10757-1.42147-2.74265,2.15927.03866,3.34539,1.89486,5.08039,2.74536,2.81652,1.38063,5.15987,3.54213,7.89183,5.08724A1.63068,1.63068,0,0,1,83.12246,243.37636Z"/><path class="cls-140" d="M142.01584,293.66839a8.23827,8.23827,0,0,0-2.5271-3.59861q-15.58-15.55678-31.11288-31.16043c-.62143-.62622-2.04351-.96742-1.41729-2.39971a20.36858,20.36858,0,0,1,10.39176,4.38966,14.11241,14.11241,0,0,0,3.00131,3.67128q14.12792,14.12354,28.227,28.27573c.94074.9492,2.65384,1.69166,1.81451,3.61019A42.07129,42.07129,0,0,1,142.01584,293.66839Z"/><path class="cls-141" d="M284.57265,318.65325q-1.78791.01054-3.57585.021-.29253-.09677-.585-.19369a8.82886,8.82886,0,0,1-2.87054-2.05309q-9.73609-9.77047-19.4983-19.51492c-.20956-.20992-.42058-.419-.617-.6411-.78748-.89-1.88433-1.85032-1.43879-3.06407.48409-1.31874,2.01242-.92563,3.15031-1.10375,3.43634.18009,6.92523-.63555,10.29866.55625.61718.62636.317,1.02826-.35148,1.30441-.91554.37822-1.95506.14361-3.03615.51848.22575,1.23922,1.20333,1.82037,1.91824,2.54,5.99769,6.03673,12.048,12.02134,18.01528,18.0878.87125.8857,2.45609,1.6124,1.603,3.38781Q286.07882,318.57575,284.57265,318.65325Z"/><path class="cls-142" d="M228.52816,313.76523a10.21923,10.21923,0,0,0-2.44475-3.31885q-10.95376-10.90962-21.84063-21.88591c-.56492-.57216-1.971-.835-1.3255-2.20389,2.601-1.38045,5.001-.07152,7.45274.549,4.61575,3.876,8.60961,8.39746,12.91863,12.59543,3.53522,3.44417,6.99086,6.97008,10.47912,10.46241a17.69032,17.69032,0,0,1,1.81122,1.95225c.52812.71795,1.248,1.60227.66911,2.39468-.55108.75435-1.6026.46664-2.452.13094A13.49981,13.49981,0,0,1,228.52816,313.76523Z"/><path class="cls-143" d="M150.39313,296.4565c-.0562-1.3688-1.18446-2.00363-1.99717-2.81891q-14.66168-14.70767-29.34814-29.39058c-.87237-.87555-2.141-1.55377-2.00625-3.10442,3.93321-.14889,7.05319,1.88411,10.21661,3.80291a7.25408,7.25408,0,0,0,2.43883,3.616q13.53315,13.51159,27.02768,27.06166c.90334.9104,2.38734,1.59228,2.01053,3.3261A38.661,38.661,0,0,1,150.39313,296.4565Z"/><path class="cls-118" d="M249.37556,316.20769a14.00819,14.00819,0,0,1-5.35686-.53509q-11.77981-11.71269-23.4715-23.51323c-.959-.97071-2.90845-1.90243-1.20391-3.83112a15.03911,15.03911,0,0,1,7.80179,1.07833c7.20675,7.66269,14.82688,14.92059,22.20754,22.41567.55718.56583,1.144,1.10465,1.66011,1.70808.57506.67225,1.42785,1.4109.96011,2.32165C251.39989,316.96758,250.31393,316.55225,249.37556,316.20769Z"/><path class="cls-144" d="M158.73522,298.94927c-1.26742-2.05128-3.1825-3.50492-4.847-5.18083-8.51182-8.57027-17.08749-17.07722-25.5702-25.676-.6071-.61545-2.58475-1.08757-1.023-2.67707,3.1037-.59062,5.49816.995,7.89881,2.56753a13.70167,13.70167,0,0,0,2.98574,3.67358q12.75065,12.74605,25.47318,25.52c.94041.95,2.63729,1.75393,1.61506,3.65126A21.06067,21.06067,0,0,1,158.73522,298.94927Z"/><path class="cls-129" d="M192.11141,307.39126a36.05746,36.05746,0,0,1-8.4017-1.89794c-.26494-1.27548-1.33934-1.93572-2.16232-2.76222q-11.25808-11.30654-22.55316-22.57627a11.61607,11.61607,0,0,1-2.33251-2.69561c-.47015-.90777-.92769-1.91485.65246-2.28918,2.716.64576,5.60035.69315,8.05631,2.263a7.98092,7.98092,0,0,0,2.46532,3.61438q11.361,11.3252,22.66834,22.70392C191.44139,304.69973,193.13063,305.50133,192.11141,307.39126Z"/><path class="cls-117" d="M218.99163,288.834c.07242,1.36091,1.19957,1.99158,2.01041,2.80653q10.5498,10.60335,21.13389,21.17261c.80913.81278,1.942,1.45655,1.88277,2.85939a48.30478,48.30478,0,0,1-10.22221-1.23138c.672-.09892,1.84106-.043,1.92884-.32437.33751-1.08176-.60266-1.76524-1.292-2.45565q-10.80337-10.81934-21.61384-21.63153c-.76433-.76627-1.45444-1.60657-2.179-2.41254C213.566,287.04943,216.485,286.52693,218.99163,288.834Z"/><path class="cls-145" d="M22.58035,213.05818c1.30266-.15815,1.94172.83727,2.69459,1.58937q19.67734,19.65708,39.33393,39.33494c.75136.7522,1.75176,1.38356,1.63556,2.6789A144.85989,144.85989,0,0,1,46.70654,241.3732,139.56484,139.56484,0,0,1,23.518,214.85983,18.36088,18.36088,0,0,1,22.58035,213.05818Z"/><path class="cls-146" d="M192.11141,307.39126c.11136-1.42131-1.02174-2.07871-1.83559-2.89538-7.91315-7.94037-15.86727-15.8402-23.72936-23.83065-.61252-.6225-2.57452-1.05283-1.14358-2.6878,3.219-.63814,6.08663.41861,8.87857,1.83728-.09167,1.66137.964,2.6782,2.02876,3.73835q10.40644,10.36138,20.77429,20.76153a17.17,17.17,0,0,1,2.00778,2.17848c.40866.58128.81069,1.27393.26079,1.88793a1.46011,1.46011,0,0,1-1.90426.08273A11.1263,11.1263,0,0,1,192.11141,307.39126Z"/><path class="cls-119" d="M249.37556,316.20769c.718-.16806,1.76711.39192,2.09649-.56275.30426-.88187-.68193-1.32966-1.20718-1.85733Q239.8111,303.286,229.33,292.81145c-.8112-.81522-1.93821-1.45009-1.98767-2.81945,3.16084-1.356,6.23824-.29589,9.32788.317a5.82558,5.82558,0,0,0,2.11005,4.46107c5.9073,5.7409,11.68612,11.614,17.51121,17.43953.49127.4913,1.00813.9603,1.46218,1.48473.69666.80463,1.93321,1.63184,1.32988,2.74144-.67123,1.2345-2.05473.64131-3.17683.37867C253.71308,316.7909,251.49861,316.99129,249.37556,316.20769Z"/><path class="cls-147" d="M258.39392,292.91647c-.65348.12043-1.659-.30007-1.89619.37117-.323.91418.54609,1.60162,1.1731,2.22924q10.27342,10.283,20.549,20.56382c.76439.76627,1.46292,1.59829,2.192,2.39983a31.01158,31.01158,0,0,1-8.36063-.48163c-2.94648-4.01934-6.79408-7.18275-10.23209-10.73356-3.92617-4.055-8.01525-7.95147-11.93652-12.01158-1.8943-1.96138-1.7881-2.40262.372-3.65155a28.073,28.073,0,0,1,5.60539-.08734C256.85485,291.58823,258.14065,291.39356,258.39392,292.91647Z"/><path class="cls-148" d="M255.90674,316.81449c.91055-.22871,2.267.52671,2.68147-.56854.39517-1.04428-.92513-1.60852-1.58325-2.27137-6.77826-6.82712-13.6091-13.60216-20.36291-20.45318-.64145-.6507-3.254-2.02388.279-2.39449,1.86237-1.27128,3.782-1.00747,5.71764-.219-.31952,1.12352.54336,1.64071,1.18037,2.27565q9.54244,9.51182,19.058,19.05051a17.66406,17.66406,0,0,1,2.016,2.16455c.61084.85984,1.75682,1.82486,1.145,2.82035-.58671.95471-1.91625.53646-2.9424.18145C260.68475,317.38427,258.25433,317.60741,255.90674,316.81449Z"/><path class="cls-149" d="M193.34982,284.54529c-.01094,1.389,1.11638,2.0323,1.9277,2.847,7.39178,7.423,14.82216,14.8077,22.18443,22.25974.65829.66631,3.205,2.03793-.29789,2.38145a8.7393,8.7393,0,0,1-4.14486-.64381,11.50849,11.50849,0,0,1-2.86-2.10811c-7.64592-7.67543-15.34349-15.29985-22.9342-23.02935-.89393-.91028-3.10108-1.75262-1.22834-3.72986a20.91085,20.91085,0,0,1,5.74644.72713C192.45723,283.38818,193.35746,283.44551,193.34982,284.54529Z"/><path class="cls-102" d="M197.44881,308.46373c2.69376-.07625,1.60528-1.16383.57466-2.19608q-9.46146-9.47625-18.93488-18.94055c-1.68325-1.68345-3.37223-3.36127-5.045-5.0551-.81009-.82026-1.42512-1.63868.3894-1.95281,1.93659-1.1538,3.63418-.32049,5.31777.63357a20.71435,20.71435,0,0,0,3.19831,3.87432q10.73858,10.6981,21.42673,21.44656c1.063,1.073,2.55721,2.02,2.08732,3.94756A26.99268,26.99268,0,0,1,197.44881,308.46373Z"/><path class="cls-150" d="M263.09566,317.40043c.83735-.14162,1.74516.2574,2.58308-.3304a10.30655,10.30655,0,0,0-2.74808-3.77061c-6.56933-6.54986-13.13889-13.09977-19.63632-19.72041-.30226-.308-2.48175-.80173-.41064-1.85445,2.88932-1.39534,4.85811-1.23389,6.66764.54677-1.504,1.60018.45276,2.05466,1.063,2.67671,6.57492,6.70237,13.24818,13.30817,19.86508,19.96964.82638.83193,2.11084,1.51635,1.57177,3.08122C269.05561,317.95485,266.04008,318.2097,263.09566,317.40043Z"/><path class="cls-151" d="M165.26783,300.82779c.11178-1.42126-1.02169-2.07811-1.83538-2.89417q-13.23461-13.27389-26.489-26.5281c-.8745-.87818-2.14786-1.55858-2.00466-3.11577a20.19772,20.19772,0,0,1,8.963,2.631c-.28959,1.74845.97835,2.66545,2.00588,3.69451,8.09419,8.10628,16.21628,16.18489,24.27341,24.32783.937.947,2.61832,1.73342,1.66187,3.6242A19.5543,19.5543,0,0,1,165.26783,300.82779Z"/><path class="cls-152" d="M171.843,302.56726c.0659-1.40773-1.0661-2.05762-1.87861-2.87275-8.59832-8.62631-17.2303-17.21921-25.7918-25.88181-.5018-.50774-2.653-1.28874-.30894-2.36553a8.50037,8.50037,0,0,1,7.223,1.95025c.45425.48806-1.08215.33769-.26563,1.21777,2.368,2.55232,4.86088,4.97531,7.312,7.4407,6.2362,6.27239,12.526,12.49171,18.73142,18.79429.87331.887,2.4738,1.62428,1.56421,3.40639A18.97775,18.97775,0,0,1,171.843,302.56726Z"/><path class="cls-126" d="M178.42872,304.25657c-.02872-1.38223-1.15927-2.02435-1.97458-2.84277-8.19442-8.22579-16.42714-16.41353-24.59164-24.6688-.706-.71386-2.65116-1.41955-.77524-2.94368,2.365-.66538,4.40228-.24648,5.94853,1.79751-.7312,1.75861.85348,2.40388,1.70814,3.26678,8.12938,8.20791,16.3276,16.3477,24.443,24.56925.403.40827,2.40905.8879.52281,2.05842A15.30934,15.30934,0,0,1,178.42872,304.25657Z"/><path class="cls-153" d="M206.46315,310.2212a10.28279,10.28279,0,0,0-2.63476-3.535q-11.147-11.11165-22.25549-22.26174c-.81284-.81635-1.94118-1.45927-1.94675-2.84534,2.23932-.74561,4.15431.01693,5.96129,1.28187.06778,1.36446,1.19634,1.99682,2.00848,2.81252Q199.21,297.33871,210.8591,308.969c.76256.76449,1.442,1.61185,2.1601,2.42074C210.72343,311.61974,208.60815,310.83709,206.46315,310.2212Z"/><path class="cls-154" d="M9.08482,178.9995c1.37352.06336,2.01036,1.19766,2.82831,2.015q49.13253,49.098,98.19644,98.26442c.49332.49476,2.55819.78926.94745,2.30776a4.50008,4.50008,0,0,1-2.49942-1.14263c.50464-.30771.69752-.74666.29943-1.21816-.57539-.68147-1.21743-1.30834-1.8493-1.94026q-47.122-47.12718-94.25781-94.24051c-1.01683-1.016-1.82069-2.47045-3.62787-2.256Z"/><path d="M185.58744,282.861q-2.98065-.64095-5.96129-1.28187a14.11393,14.11393,0,0,0-5.19337-1.25987c-2.87689-1.29359-6.05126-1.44077-9.03-2.34184q-4.18347-1.18929-8.36708-2.37857a23.02009,23.02009,0,0,0-5.94853-1.79751c-2.20941-1.39347-4.88625-1.35291-7.22352-2.35419-2.8065-1.52848-6.15588-1.52243-8.92482-3.15731a43.35862,43.35862,0,0,0-7.64389-2.87439q-5.12656-2.13642-10.25336-4.27281-5.04161-2.31658-10.08313-4.633-5.32171-2.70105-10.6435-5.40207c-4.12556-3.041-9.11459-4.60885-13.19257-7.73121q-6.97613-4.74823-13.95249-9.49641c-3.71608-3.234-7.4666-6.42942-11.14058-9.71054a142.53814,142.53814,0,0,1-17.39591-19.40526c-2.605-3.56561-4.35611-7.62248-6.56723-11.41467q-2.03877-5.18286-4.07738-10.36617-.92152-3.78583-1.84332-7.571c-1.05862-4.92683-.54831-9.93452-.76822-14.90453l.05818-1.7906c.25419-1.98446.88373-3.92705.66516-5.96423-.27326-1.55358,1.239-2.65014,1.06916-4.17725l1.17665-4.17586q.93655-2.684,1.87313-5.36807.89427-2.08809,1.78854-4.17621,1.41354-2.68532,2.82707-5.37062,1.58483-2.6865,3.16972-5.373,1.44584-2.08622,2.89166-4.17245l3.14133-4.159q1.47694-1.79412,2.95389-3.58826a13.10056,13.10056,0,0,0,3.52137-4.17865c1.30295-1.07906,2.87951-1.88553,3.56556-3.57914q1.62449-1.45181,3.249-2.90359,1.68443-1.53118,3.36878-3.06239a14.14731,14.14731,0,0,0,3.40132-2.98517c1.20459-1.532,3.39368-1.82641,4.4525-3.54171a13.00168,13.00168,0,0,0,3.906-3.01962c1.13783-1.41587,3.25421-1.43125,4.28795-2.99607a17.87508,17.87508,0,0,0,4.26808-2.88456l5.53127-3.57152a14.3333,14.3333,0,0,0,4.04559-2.45038,21.50674,21.50674,0,0,0,5.3092-3.1107,19.386,19.386,0,0,0,4.769-2.45916l5.37112-2.90826c2.36406-.63734,4.385-2.01081,6.55857-3.05689l4.77576-2.27347,4.17447-1.81319,5.96419-2.45725,7.15931-2.88779,6.56076-2.4174a18.63062,18.63062,0,0,0,5.96727-2.34211c1.75583.20137,3.18261-.83658,4.77078-1.26666l5.36824-1.7451a18.03249,18.03249,0,0,0,5.36954-1.77714c1.91341.08483,3.591-.80858,5.367-1.29394,1.81152-.473,3.71039-.65777,5.37158-1.62713,2.10175.074,3.97091-.90076,5.96271-1.32248l6.56373-1.65955a17.91336,17.91336,0,0,0,5.36909-1.17908,17.59569,17.59569,0,0,0,5.38695-1.12525,32.84382,32.84382,0,0,0,7.13778-1.328,21.01365,21.01365,0,0,0,5.96749-1.11046,21.60184,21.60184,0,0,0,5.3653-.75492l8.35045-1.209c2.38587-.35636,4.8462-.2038,7.1607-1.04791,2.42771.19953,4.77464-.42823,7.15644-.69882q3.87782-.36806,7.7556-.73622c3.36741-.4532,6.80637-.132,10.14117-.93773A86.82915,86.82915,0,0,0,270.29,29.83992c4.44485-.09248,8.90788.34622,13.329-.45635q.6969-.0247,1.39254-.05013a5.088,5.088,0,0,0,3.3638.00088,9.54141,9.54141,0,0,0,3.79723.00028c3.80578.64779,7.65613-.06373,11.46875.37587l3.03576.06435q6.56142.31617,13.12282.63232a74.44541,74.44541,0,0,0,10.13982.69383,78.38493,78.38493,0,0,0,10.73785,1.09525l13.12386,1.69735q5.06928.68341,10.13858,1.36688,6.26407,1.134,12.52812,2.268l11.93027,2.39393,13.71751,3.09305a133.97677,133.97677,0,0,0,13.70168,3.62866,139.55054,139.55054,0,0,0,13.73361,4.12438q8.0225,2.77767,16.045,5.5555,8.68308,3.436,17.36624,6.87172,8.94865,4.12623,17.89732,8.25245,8.94669,4.8176,17.89345,9.63521a18.0576,18.0576,0,0,0,5.24443,3.12341q8.11628,5.54892,16.23266,11.09779c5.495,4.53048,11.14092,8.87353,16.29371,13.81894a143.06129,143.06129,0,0,1,15.844,18.00008,131.99592,131.99592,0,0,1,8.48477,14.29355q2.36937,6.8604,4.7387,13.72079.65009,5.36819,1.30014,10.73639-.07646,4.16121-.153,8.32237-.92019,4.71748-1.84051,9.43488-1.16229,3.34809-2.32447,6.69653-1.87295,3.853-3.746,7.7061-2.02438,3.2579-4.04862,6.51575-2.35806,3.05867-4.71616,6.11748-2.0838,2.41139-4.16771,4.82263-1.53966,1.63545-3.07928,3.27056-2.04279,1.9246-4.08547,3.84959-2.09205,1.829-4.18406,3.658-2.4042,1.96793-4.80841,3.93562a24.67286,24.67286,0,0,0-4.79261,3.52439q-2.67089,1.82472-5.34171,3.64964-3.26647,2.13822-6.533,4.2766l-7.1611,4.20445q-3.621,1.93164-7.24215,3.86273-3.2386,1.6624-6.477,3.3259l-7.75429,3.58658q-3.91192,1.73161-7.82394,3.46312a32.72861,32.72861,0,0,0-7.24987,2.93466,18.17806,18.17806,0,0,0-4.64028,1.75546,16.51608,16.51608,0,0,0-4.79465,1.71445,40.07989,40.07989,0,0,0-7.20345,2.52836,17.3356,17.3356,0,0,0-5.36931,1.789,21.36509,21.36509,0,0,0-5.89893,1.819,22.85362,22.85362,0,0,0-5.98819,1.77967,9.9257,9.9257,0,0,0-4.134,1.16455,27.534,27.534,0,0,0-6.6782,1.78182,17.72437,17.72437,0,0,0-5.24042,1.30526,28.462,28.462,0,0,0-6.73911,1.64917,16.98113,16.98113,0,0,0-5.35747,1.201,17.80054,17.80054,0,0,0-5.82917,1.25859,18.732,18.732,0,0,0-5.966,1.19262,20.87749,20.87749,0,0,0-6.08672,1.13427,9.6648,9.6648,0,0,0-4.02219.7019,25.1101,25.1101,0,0,0-6.62133,1.134,31.13207,31.13207,0,0,0-7.75847,1.19071,8.5452,8.5452,0,0,0-4.17216.59839,21.1025,21.1025,0,0,0-5.90559.70093l-.61216.03295c-.95351.46857-2.0813-.18029-3.00667.4689a11.627,11.627,0,0,0-4.82888.56906,16.496,16.496,0,0,0-5.9.62618,18.53388,18.53388,0,0,0-6.07649.54407q-1.41978.08227-2.83913.16474l-.61176.01253c-1.36058.52172-2.86392-.23734-4.204.4686l-.28311-.05232-.26894.10269a33.6728,33.6728,0,0,0-8.38713.54755l-1.75331.049a59.36764,59.36764,0,0,0-10.24325.517q-1.43947.03917-2.87886.07837-3.87829.04217-7.75669.08434-14.611-.04154-29.22171-.08314a1.4757,1.4757,0,0,1-2.23948-.10434,73.69616,73.69616,0,0,0-11.45117-.54076,40.85645,40.85645,0,0,0-8.84284-.64505,22.69918,22.69918,0,0,0-6.6674-.54686c-1.93486-.72479-3.95724-.57662-5.96264-.59767a56.27623,56.27623,0,0,0-9.57865-1.13493l-8.35074-1.15794-8.35114-1.21694a34.87471,34.87471,0,0,0-7.72325-1.2605c-3.06267-1.27162-6.43394-.91352-9.56742-1.81131C190.88423,283.42219,188.1387,283.5893,185.58744,282.861Z"/><path class="cls-155" d="M269.84507,293.45725q1.11975.05216,2.23948.10434,10.61793,10.75255,21.24278,21.49826a9.91794,9.91794,0,0,1,2.60766,3.54287q-3.3015.01661-6.60318.033-.87362-.068-1.74678-.137c-.07263-1.36845-1.2086-1.999-2.02251-2.81776-6.43359-6.4718-12.90579-12.90527-19.33053-19.38579-.64575-.65133-1.99539-1.20765-1.49592-2.27958.47023-1.00922,1.79322-.35619,2.73266-.46629C268.25366,293.45723,269.05242,293.48341,269.84507,293.45725Z"/><path class="cls-156" d="M301.3052,294.12223q9.46887,9.61734,18.93391,19.23842c1.65971,1.6907,3.27282,3.427,4.90719,5.14209q-1.15956.06592-2.3185.133-2.11112-.0443-4.22273-.08957c-.04325-1.37413-1.17629-2.006-1.98417-2.82773q-10.605-10.78663-21.24837-21.5345Q298.33928,294.15364,301.3052,294.12223Z"/><path class="cls-131" d="M549.45221,119.349a2.76745,2.76745,0,0,1-2.01268-1.1166q-7.67763-7.68461-15.36222-15.36225a2.768,2.768,0,0,1-1.11662-2.01268Q540.57636,109.73327,549.45221,119.349Z"/><path class="cls-53" d="M303.64135,29.71047a61.35908,61.35908,0,0,1-11.46733-.376q.6914-.07231,1.38572-.14556C296.90759,29.608,300.32256,28.73078,303.64135,29.71047Z"/><path class="cls-70" d="M357.33776,289.93284a5.483,5.483,0,0,1,3.00667-.4689C359.4471,290.29283,358.35123,289.84859,357.33776,289.93284Z"/><path class="cls-53" d="M288.37537,29.33432a4.15437,4.15437,0,0,1-3.36235-.001Q286.69274,29.33393,288.37537,29.33432Z"/><path class="cls-92" d="M332.87755,292.318a10.65471,10.65471,0,0,1,4.204-.46862C335.76776,292.79114,334.27924,292.165,332.87755,292.318Z"/><path class="cls-157" d="M500.98565,171.9411c-.13474,13.83542-2.10144,26.19524-8.19355,37.57712-9.69448,18.11218-25.00362,27.37857-45.41076,28.21361-16.70355.68353-31.31782-4.33615-42.80337-16.86318-9.02095-9.839-13.49638-21.79907-15.19293-34.86305-1.94617-14.98539-1.05491-29.70118,4.8123-43.83956C403.494,119.76368,424.5014,107.328,448.68,108.91075c26.30694,1.72209,45.152,19.08548,50.66706,46.67281A110.55216,110.55216,0,0,1,500.98565,171.9411Z"/><path class="cls-157" d="M148.21778,200.66435c2.23808-11.91461,4.29443-22.96806,6.39369-34.01337,3.53713-18.61077,7.12914-37.21121,10.60522-55.83331.29874-1.60041.77606-2.15137,2.41768-2.14087,10.23388.06552,20.46838.03305,31.0918.03305-1.4594,5.88973-2.85746,11.597-4.28837,17.29614q-13.65006,54.36578-27.27775,108.73711c-.473,1.89326-1.06676,2.71782-3.283,2.68591-10.83281-.15606-21.6709-.17709-32.50289.00539-2.65032.04465-3.4984-.888-4.11028-3.27824Q112.665,177.12745,97.90534,120.1399c-.96129-3.72678-1.91649-7.45514-2.93791-11.42945,11.206,0,22.13087.03907,33.055-.03734,1.88342-.01318,1.73867,1.30935,1.94775,2.34868q4.57976,22.76618,9.08536,45.54724,4.18945,21.0228,8.40283,42.04083A19.65389,19.65389,0,0,0,148.21778,200.66435Z"/><path class="cls-157" d="M265.51785,175.1409c0-15.63595-.04656-28.45434.04835-41.27168.01487-2.00723-.35375-2.76186-2.53711-2.6457-3.76521.20032-7.55385-.06183-11.32263.10156-2.09953.091-2.94661-.28593-2.86-2.68427.20783-5.75564.15067-11.52574.02194-17.286-.04509-2.01709.40727-2.80253,2.5881-2.696,3.76687.184,7.55541-.07883,11.32266.10125,2.14783.10267,2.83908-.36808,2.80471-2.69915-.15235-10.33168.03679-20.66862-.13815-30.99958-.04378-2.58632.7321-3.03552,3.11876-2.996,9.03972.14957,18.08431.13073,27.12488.01024,2.24062-.02987,3.03746.42792,3.00185,2.87707-.15024,10.33174-.00031,20.66762-.11516,31.00027-.02393,2.154.39237,2.92533,2.72689,2.81951,4.66056-.21126,9.34193.05745,14.00553-.11718,2.08565-.07811,2.471.68962,2.44193,2.542-.09357,5.96041-.12255,11.92524.01507,17.88393.04518,1.95779-.6549,2.27537-2.39259,2.23672-4.96577-.11047-9.93627.0063-14.9034-.06787-1.37981-.0206-1.88147.28376-1.87422,1.78893.11374,23.64344.05131,47.28838.29575,70.93022.08232,7.959,3.36193,10.7071,11.3917,10.71925,1.09293.00165,2.1886.041,3.27835-.02,4.15526-.23295,4.15457-.24566,4.15457,3.80741,0,5.56442.00757,11.12885-.007,16.69323-.00273,1.042.30178,2.23105-1.50352,2.2093-9.71526-.11716-19.391,1.0985-29.15121.26852-13.135-1.11694-19.46875-5.33335-20.92946-21.53794C264.81082,201.53622,265.87155,186.91686,265.51785,175.1409Z"/><path class="cls-157" d="M355.89165,125.11916c3.68986-4.92349,7.21389-9.73511,11.91767-13.61275,6.694-5.51837,14.4618-6.52593,22.71829-5.84827,1.18794.0975,1.46588.63752,1.463,1.71361-.02582,9.54264-.04435,19.08556.01572,28.62789.00947,1.5081-.63447,1.42769-1.78946,1.38894-4.95223-.16613-9.90794-.668-14.8487.36122-11.47477,2.39031-17.98051,10.31858-17.98582,22.11119-.011,24.652-.0758,49.30446.08643,73.95539.02075,3.1589-.91812,3.6695-3.7676,3.61032-8.94241-.18577-17.892-.13589-26.83678-.01842-2.1014.02757-2.64191-.57451-2.639-2.64738q.088-61.72924-.00033-123.45861c-.003-2.07986.55016-2.66982,2.64417-2.64213q13.268.17553,26.53944.00395c1.93685-.02275,2.58272.4725,2.52574,2.45807C355.80067,115.78441,355.89165,120.45309,355.89165,125.11916Z"/><path class="cls-157" d="M240.17068,173.057c0,20.46961-.0391,40.93943.05369,61.40863.01059,2.338-.58707,2.98865-2.94856,2.95139-9.13948-.14421-18.28307-.10839-27.42394-.01864-1.94027.019-2.74891-.29324-2.74507-2.53158q.10594-61.85574.01006-123.7117c-.0026-1.95414.51921-2.51178,2.48307-2.49033,9.24.10085,18.48344.14133,27.72176-.01981,2.45323-.04279,2.90588.75023,2.89687,3.00345C240.13693,132.1177,240.17068,152.58744,240.17068,173.057Z"/><path class="cls-157" d="M223.791,99.068a16.404,16.404,0,1,1,16.37916-16.44371A16.24033,16.24033,0,0,1,223.791,99.068Z"/><path d="M422.43673,173.14178c.348-7.875.61856-15.70175,3.50575-23.144,3.47062-8.94614,9.67071-13.26665,19.0653-13.25036,9.09275.01578,15.23451,4.38577,18.57279,13.423,3.40257,9.21125,3.49126,18.828,3.13243,28.46232-.263,7.06191-1.1934,13.99922-4.28167,20.49457-3.48143,7.32239-9.4025,10.79673-17.32677,10.85467-8.11116.05931-14.37755-3.23667-18.02416-10.77126C423.07786,190.94085,422.78678,182.01673,422.43673,173.14178Z"/></svg>