<svg id="Layer_1" data-name="Layer 1" xmlns="http://www.w3.org/2000/svg" viewBox="0 0 400 245"><defs><style>.cls-1{fill:#257cbb;}.cls-2{fill:#34b1e1;}.cls-3{fill:none;}.cls-4{fill:#247cbb;}</style></defs><title>VoerEir</title><path class="cls-1" d="M164.10008,93.123q-18.63592-35.896-37.27192-71.79209l.61895-.60692,54.74407,46.5475a2.14223,2.14223,0,0,1,.05446,1.48495c-4.58538,7.19706-9.45179,14.2106-14.18267,21.314C167.12025,91.486,166.34451,93.31247,164.10008,93.123Z"/><path class="cls-2" d="M182.23216,68.15137a8.78946,8.78946,0,0,1-.04066-.87989q26.80467-22.936,53.60994-45.8721l.91046.707q-1.67345,3.24759-3.34662,6.4953Q218.17453,58.1376,202.96976,87.66624c-.977,1.894-2.16323,3.6802-3.25234,5.51642-1.62869.62057-2.32615-.69188-2.95472-1.64666-4.91843-7.47081-10.52535-14.5054-14.43465-22.62018C182.29427,68.66159,182.26321,68.40648,182.23216,68.15137Z"/><path class="cls-2" d="M164.10008,93.123c4.85332-7.041,9.73366-14.06367,14.538-21.13789,1.01043-1.4878,1.82719-3.08584,3.59431-3.83358l.04273.04679a16.22552,16.22552,0,0,1,1.72813,7.84036c.022,20.74925.11906,41.4995-.093,62.24681-.03568,3.48866.70515,7.52335-2.74118,10.24617q-8.171-26.69452-16.34613-53.38774C164.61365,94.46063,164.34247,93.79625,164.10008,93.123Z"/><path class="cls-1" d="M181.16914,148.53169c1.71279-1.83177,1.03832-4.11268,1.04332-6.19984q.08873-37.067.06243-74.13393,6.95574,10.14782,13.92076,20.288c1.111,1.60891,2.34472,3.13311,3.52191,4.69652q-8.21944,27.92166-16.46155,55.836c-.24664.833-.25418,2.38994-1.82376,1.5651C181.08191,150.3994,181.24335,149.24133,181.16914,148.53169Z"/><path class="cls-3" d="M127.51941,174.54291c-5.40991-3.67328-10.81732-4.52637-16.21985-.12708-.16913.13776-.33826.26349-.50738.41162-5.4759,10.25812-6.28852,20.92853-2.21,31.76294,3.25922,8.65808,12.331,10.51721,19.19873,4.23694a15.09027,15.09027,0,0,0,4.50849-7.23559c2.77313-10.2212,1.97619-19.92926-4.369-28.78016C127.78668,174.71747,127.65308,174.63367,127.51941,174.54291Z"/><path class="cls-3" d="M178.66449,190.61969l.10895.00024c.032-3.04724.26446-6.1087.04834-9.1383-.31031-4.3501-1.66187-8.22186-6.68531-9.14734-5.082-.93622-9.244.43689-11.809,5.267a27.76628,27.76628,0,0,0-2.96923,12.96911l.94616.0022Z"/><path class="cls-4" d="M130.6626,173.268l-.00061-.00025c-7.754-4.92889-15.82691-4.92889-22.63013-.00018l-.00049.00018c-8.259,6.47815-11.22253,18.56372-7.31439,29.872,2.26764,6.56164,6.45239,11.10919,13.417,12.72986,10.67591,2.48431,20.50867-2.51306,24.63654-12.52979C143.488,191.89233,140.03339,179.07947,130.6626,173.268Zm1.62677,30.32373a15.09027,15.09027,0,0,1-4.50849,7.23559c-6.86773,6.28027-15.93951,4.42114-19.19873-4.23694-4.07849-10.83441-3.26587-21.50482,2.21-31.76294.16912-.14813.33825-.27386.50738-.41162,5.40253-4.39929,10.80994-3.5462,16.21985.12708.13367.09076.26727.17456.40094.26867C134.26556,183.66248,135.0625,193.37054,132.28937,203.59174Z"/><path class="cls-4" d="M224.907,170.385c-4.583-2.07984-8.09692-.06519-10.86157,3.47064a82.88388,82.88388,0,0,0-4.5711,7.26221c-1.19336-3.59015.82537-6.91455-1.24262-9.77472H196.91956l.0241.83087q2.83421.13944,5.66834.27881h.00006c.0708,11.37927-.10547,22.76788.32776,34.13324.186,4.8789-.66876,7.81274-6.19849,7.45349a5.54568,5.54568,0,0,0-.383,1.17731H217.8269c-.60345-1.9765-1.90289-1.70691-2.81823-1.56452-4.64588.72266-5.8487-1.3006-5.53546-5.71258.39556-5.57324-.03095-11.19953.13836-16.7956.185-6.11523,1.91522-11.74914,6.33289-16.23169,1.41229-1.4331,3.16107-2.5401,5.32611-1.7221a4.85615,4.85615,0,0,1,3.2052,5.1148,25.19563,25.19563,0,0,1-.23444,3.77967c-.32232,1.84491-.18414,3.23242,2.1015,3.48669,2.21491.24634,3.91163-.20367,4.55414-2.66571C231.847,179.26532,228.52747,172.028,224.907,170.385Z"/><path class="cls-4" d="M347.67261,170.16858c-5.26575-1.98908-8.45032,1.229-11.44776,4.87268-1.54211,1.87463-1.39679,4.919-4.15661,5.91785.00891-10.53083.0086-10.53669-10.53247-9.99683a14.252,14.252,0,0,0-2.04694.39844c.51221,1.20123,1.50879,1.11584,2.33344.98712,3.59393-.56085,4.60443.93323,4.5335,4.46814-.24469,12.21124-.17907,24.42877-.23132,36.6438l-.0003.00024c-2.2414.53131-4.83869-.59588-8.02436,1.76471h23.63587c-2.51007-2.10608-4.341-1.6134-5.9599-1.58166-2.12146.04156-2.824-.82245-2.79389-2.88172.11365-7.76025-.09411-15.53119.24018-23.28a19.4549,19.4549,0,0,1,4.716-11.30279c1.72717-2.13135,3.80505-4.13367,6.9082-2.81751,2.83936,1.20423,2.85449,3.87409,2.76343,6.45105a15.193,15.193,0,0,1-.33948,2.13758c-.38531,2.12829.15338,3.52258,2.62891,3.65558,2.32239.12469,3.744-.55658,4.0603-3.1493C354.50885,177.95349,351.51392,171.61963,347.67261,170.16858Z"/><path class="cls-4" d="M304.76575,206.94183c-.0011-10.2799.05621-20.56042-.05713-30.83905-.01764-1.59845,1.10895-3.60089-.98218-4.83831-3.88086-.27063-7.76538-.73169-12.02667.37536,6.30871-.55353,5.58093,3.44043,5.54242,7.28906-.11524,11.50635-.04627,23.01453-.04926,34.522h.00006c-1.61206.81317-3.79712-.18445-5.97912,1.83374h20.13141C304.76831,213.08813,304.76636,213.08813,304.76575,206.94183Z"/><path class="cls-4" d="M80.06848,151.22052c5.3512.2019,3.56616,2.87671,2.77045,5.30328q-7.34537,22.49186-14.67706,44.9881H68.1618c-1.59924-.286-1.6101-1.6004-2.00323-2.81775q-6.5647-20.25265-13.213-40.478c-2.63794-8.025-2.66089-8.0174-11.171-7.49079.92767,2.44379,1.93695,4.86762,2.77545,7.34918q9.12881,27.07306,18.22876,54.15589c.44562,1.32641.49609,3.14026,2.29962,3.20086,1.79675.06043,2.05511-1.59582,2.4693-3.02063.84979-2.92321,1.84906-5.803,2.7868-8.70062,5.11292-15.11078,10.329-30.18793,15.26728-45.35559,1.25781-3.8634,2.08123-7.57471,7.54522-7.15137A31.864,31.864,0,0,0,80.06848,151.22052Z"/><path class="cls-4" d="M278.084,205.00708c-.82281,2.8186.30109,6.29926-2.93426,8.26526l-.00018.00006q-12.78763-.04092-25.57514-.08173l-.00043-.00018a.62861.62861,0,0,0-.10961-.75818l.23492-27.05762h-.00006c4.99176-2.22088,10.27911-.46246,15.372-1.14648,5.49408-.73791,9.60034-.0896,8.603,7.0155a4.87793,4.87793,0,0,0,1.00263.39563V173.94025c-1.07892.68261-1.44061,1.39532-1.33081,2.02594.76813,4.41082-1.22473,5.46875-5.33484,5.1795-6.08069-.42792-12.19885-.322-18.3017-.439q.09265-13.937.185-27.87385l.00018-.00018,25.63642-.18091c2.59131,3.90247.11407,8.90662,2.91925,13.41413,1.60522-5.25513.84924-10.13581,1.2417-14.90137.13348-1.62085-.98371-1.29742-2.15479-1.27972-12.09656.18316-24.19494.24377-36.29217.39068-1.79236.02179-3.72235-.49908-5.89368,1.21411,8.22992-1.33685,7.61481,3.61322,7.54761,8.76758q-.27659,22.5065-.00537,45.00818c.06237,5.17108.82818,10.30255-7.7378,7.90552,2.55738,3.9339,5.39289,2.15716,7.895,2.152,11.9043.197,23.809.37366,35.7121.62342,1.15893.02429,2.236.28149,2.24377-1.33057.02606-5.37048.00989-10.74127.00989-16.11188C277.90564,200.35614,278.707,202.873,278.084,205.00708Z"/><path class="cls-4" d="M301.01373,159.963q.10318.0066.20661.00824a4.36384,4.36384,0,0,0,4.43322-4.29333c.2074-2.93006-1.60784-4.52881-4.35907-5.09565-2.98718.17823-4.88616,1.79114-4.99,4.60553C296.19781,158.08093,298.18939,159.91333,301.01373,159.963Z"/><path class="cls-4" d="M162.86914,212.055l-.00006-.00006c-5.35693-5.65649-6.17078-12.56207-5.46741-19.88483,8.19672-.043,16.39411-.15972,24.58979-.08575,2.57983.02332,4.27685-.31634,3.39971-3.4563.52588-3.88122-.534-7.52118-1.94628-11.02508a12.76738,12.76738,0,0,0-13.69782-8.30152c-10.62854,1.0777-17.4646,7.92005-19.7157,19.73377-2.04205,10.71692,2.613,20.88885,11.64154,25.43805,12.10645,5.01007,23.58472.0589,24.20471-11.39881C180.84772,213.61621,173.53076,217.61761,162.86914,212.055Zm-2.54169-34.45367c2.56507-4.83014,6.727-6.20325,11.809-5.267,5.02344.92548,6.375,4.79724,6.68531,9.14734.21612,3.0296-.0163,6.09106-.04834,9.1383l-.10895-.00024-20.36011-.04706-.94616-.0022A27.76628,27.76628,0,0,1,160.32745,177.60132Z"/></svg>