<svg id="Layer_1" data-name="Layer 1" xmlns="http://www.w3.org/2000/svg" viewBox="0 0 152.21022 42.73676"><defs><style>.cls-1{fill:#34daa6;}.cls-2{fill:#878e9c;}</style></defs><title>volterra</title><path class="cls-1" d="M21.369.9112a20.3,20.3,0,1,0,20.3,20.3A20.31459,20.31459,0,0,0,21.369.9112Zm1.5,29h-3.1l-6.7-16.6h1.3a4.13187,4.13187,0,0,1,3.7,2.5l3.2,8.1,3.2-8.1a3.924,3.924,0,0,1,3.7-2.5h1.3Z"/><path class="cls-1" d="M65.069,7.1112h3.7l-5.9,17.5h-4l-6-17.5h3.7l3.3,10.4q.3.9.6,2.1c.2.8.3,1.4.4,1.7q.15-1.05.9-3.9Z"/><path class="cls-1" d="M82.369,17.9112a7.29314,7.29314,0,0,1-1.7,5.1,6.18592,6.18592,0,0,1-4.8,1.8,7.4156,7.4156,0,0,1-3.4-.8,6.61883,6.61883,0,0,1-2.3-2.4,8.74356,8.74356,0,0,1-.8-3.7,7.29314,7.29314,0,0,1,1.7-5.1,6.18589,6.18589,0,0,1,4.8-1.8,7.41558,7.41558,0,0,1,3.4.8,6.61874,6.61874,0,0,1,2.3,2.4A8.74356,8.74356,0,0,1,82.369,17.9112Zm-9.2,0a5.12873,5.12873,0,0,0,.7,3,2.705,2.705,0,0,0,4.2,0,6.12182,6.12182,0,0,0,.6-3,6.12182,6.12182,0,0,0-.6-3,2.705,2.705,0,0,0-4.2,0A5.1288,5.1288,0,0,0,73.169,17.9112Z"/><path class="cls-1" d="M89.069,24.6112h-3.6v-18.6h3.6Z"/><path class="cls-1" d="M98.469,21.9112a7.395,7.395,0,0,0,2.3-.4v2.7a8.10907,8.10907,0,0,1-3.3.6,4.25991,4.25991,0,0,1-3.2-1.1,4.50257,4.50257,0,0,1-1-3.3v-6.4h-1.7v-1.5l2-1.2,1.1-2.8h2.3v2.8h3.7v2.7h-3.7v6.4a1.246,1.246,0,0,0,.4,1.1A1.36581,1.36581,0,0,0,98.469,21.9112Z"/><path class="cls-1" d="M109.569,24.8112a6.65505,6.65505,0,0,1-5-1.8,6.81034,6.81034,0,0,1-1.8-5,7.56241,7.56241,0,0,1,1.7-5.2,6.02505,6.02505,0,0,1,4.6-1.8,5.67066,5.67066,0,0,1,4.4,1.6,6.48424,6.48424,0,0,1,1.6,4.5v1.8h-8.6a3.09713,3.09713,0,0,0,3.3,3.3,8.52388,8.52388,0,0,0,2.3-.3,9.74906,9.74906,0,0,0,2.2-.8v2.8a6.78854,6.78854,0,0,1-2,.7A19.93786,19.93786,0,0,1,109.569,24.8112Zm-.5-11.2a2.13948,2.13948,0,0,0-1.8.7,4.03081,4.03081,0,0,0-.8,2.1h5.1a3.30073,3.30073,0,0,0-.7-2.1A2.26822,2.26822,0,0,0,109.069,13.6112Z"/><path class="cls-1" d="M125.469,11.0112a4.12077,4.12077,0,0,1,1.2.1l-.3,3.4a3.74953,3.74953,0,0,0-1.1-.1,3.66705,3.66705,0,0,0-2.7.9,3.04035,3.04035,0,0,0-1,2.5v6.8h-3.6v-13.4h2.8l.5,2.2h.2a4.89768,4.89768,0,0,1,1.7-1.8A4.383,4.383,0,0,1,125.469,11.0112Z"/><path class="cls-1" d="M136.569,11.0112a4.1208,4.1208,0,0,1,1.2.1l-.3,3.4a3.7496,3.7496,0,0,0-1.1-.1,3.66705,3.66705,0,0,0-2.7.9,3.04035,3.04035,0,0,0-1,2.5v6.8h-3.6v-13.4h2.8l.5,2.2h.2a4.8976,4.8976,0,0,1,1.7-1.8A4.64529,4.64529,0,0,1,136.569,11.0112Z"/><path class="cls-1" d="M148.269,24.6112l-.7-1.8h-.1a4.66185,4.66185,0,0,1-1.9,1.6,6.24925,6.24925,0,0,1-2.5.4,4.0813,4.0813,0,0,1-3-1.1,4.33133,4.33133,0,0,1-1.1-3.1,3.38983,3.38983,0,0,1,1.5-3.1,8.72275,8.72275,0,0,1,4.5-1.1l2.3-.1v-.6c0-1.4-.7-2-2.1-2a8.95461,8.95461,0,0,0-3.8,1l-1.2-2.5a10.66735,10.66735,0,0,1,5.1-1.2,6.08166,6.08166,0,0,1,4.1,1.2,4.279,4.279,0,0,1,1.4,3.6v8.9h-2.5Zm-1.1-6.2h-1.4a3.84489,3.84489,0,0,0-2.4.6,1.94316,1.94316,0,0,0-.8,1.6q0,1.5,1.8,1.5a2.72383,2.72383,0,0,0,2-.7,2.56044,2.56044,0,0,0,.8-1.9v-1.1Z"/><path class="cls-2" d="M59.869,37.4112h-3.7v-6.4h3.7v1.1h-2.3v1.4h2.2v1.1h-2.2v1.7h2.3Z"/><path class="cls-2" d="M68.969,34.1112a2.95291,2.95291,0,0,1-.9,2.4,3.53676,3.53676,0,0,1-2.6.8h-1.8v-6.4h2a3.46407,3.46407,0,0,1,2.4.8A3.24368,3.24368,0,0,1,68.969,34.1112Zm-1.4,0q0-2.1-1.8-2.1h-.7v4.2h.6C66.869,36.3112,67.569,35.6112,67.569,34.1112Z"/><path class="cls-2" d="M74.569,33.8112h2.5v3.3l-1.2.3a4.102,4.102,0,0,1-1.1.1,2.65629,2.65629,0,0,1-2.2-.9,3.74218,3.74218,0,0,1-.8-2.5,3.24365,3.24365,0,0,1,.9-2.4,3.32752,3.32752,0,0,1,2.5-.9,4.05816,4.05816,0,0,1,1.9.4l-.5,1.1a4.19073,4.19073,0,0,0-1.5-.4,1.67805,1.67805,0,0,0-1.4.6,3.07331,3.07331,0,0,0-.1,3.2,1.42548,1.42548,0,0,0,1.2.6,2.76883,2.76883,0,0,0,.9-.1v-1.3h-1.2v-1.1Z"/><path class="cls-2" d="M84.769,37.4112h-3.7v-6.4h3.7v1.1h-2.3v1.4h2.2v1.1h-2.2v1.7h2.3Z"/><path class="cls-2" d="M97.669,35.6112a1.81566,1.81566,0,0,1-.6,1.4,2.86021,2.86021,0,0,1-1.7.5,3.42457,3.42457,0,0,1-1.8-.4v-1.3a7.59622,7.59622,0,0,0,1.1.4,2.48518,2.48518,0,0,0,.8.1,1.44528,1.44528,0,0,0,.7-.2c.2-.1.2-.3.2-.5a.36737.36737,0,0,0-.1-.3l-.3-.3a5.56133,5.56133,0,0,0-.8-.4c-.4-.2-.7-.4-.9-.5a1.46991,1.46991,0,0,1-.5-.6,1.88389,1.88389,0,0,1-.2-.8,1.48566,1.48566,0,0,1,.6-1.3,2.54453,2.54453,0,0,1,1.6-.5,3.4019,3.4019,0,0,1,1,.1c.3.1.6.2,1,.3l-.4,1.1-.9-.3a1.48276,1.48276,0,0,0-.7-.1.84536.84536,0,0,0-.6.2.76391.76391,0,0,0-.2.5.36739.36739,0,0,0,.1.3c.1.1.1.2.3.3.1.1.4.2.9.5a3.09214,3.09214,0,0,1,1.2.9A1.69023,1.69023,0,0,1,97.669,35.6112Z"/><path class="cls-2" d="M105.169,37.4112h-3.7v-6.4h3.7v1.1h-2.3v1.4h2.2v1.1h-2.2v1.7h2.3Z"/><path class="cls-2" d="M110.669,34.9112v2.5h-1.4v-6.4h1.9a3.09035,3.09035,0,0,1,1.9.5,1.88541,1.88541,0,0,1,.3,2.4,2.17763,2.17763,0,0,1-.9.7c1,1.4,1.6,2.4,1.9,2.8h-1.5l-1.5-2.5Zm0-1.1h.4a2.9585,2.9585,0,0,0,1-.2.77855.77855,0,0,0,.3-.7.9078.9078,0,0,0-.3-.7,2.15133,2.15133,0,0,0-1-.2h-.4Z"/><path class="cls-2" d="M121.169,31.0112h1.4l-2.2,6.4h-1.5l-2.2-6.4h1.4l1.2,3.8c.1.2.1.5.2.8a1.75944,1.75944,0,0,1,.1.6,5.82316,5.82316,0,0,1,.3-1.4Z"/><path class="cls-2" d="M125.969,37.4112v-6.4h1.4v6.4Z"/><path class="cls-2" d="M134.069,32.0112a1.42548,1.42548,0,0,0-1.2.6,2.5371,2.5371,0,0,0-.4,1.6c0,1.4.5,2.1,1.6,2.1a4.97293,4.97293,0,0,0,1.6-.3v1.1a4.84429,4.84429,0,0,1-1.8.3,2.58282,2.58282,0,0,1-2.1-.9,3.61243,3.61243,0,0,1-.7-2.4,3.42463,3.42463,0,0,1,.4-1.8,2.58711,2.58711,0,0,1,2.6-1.6,4.48555,4.48555,0,0,1,1.9.5l-.4,1.1c-.2-.1-.5-.2-.7-.3S134.269,32.0112,134.069,32.0112Z"/><path class="cls-2" d="M143.369,37.4112h-3.7v-6.4h3.7v1.1h-2.3v1.4h2.2v1.1h-2.2v1.7h2.3Z"/><path class="cls-2" d="M150.969,35.6112a1.81563,1.81563,0,0,1-.6,1.4,2.8602,2.8602,0,0,1-1.7.5,3.42456,3.42456,0,0,1-1.8-.4v-1.3a7.59545,7.59545,0,0,0,1.1.4,2.48518,2.48518,0,0,0,.8.1,1.44531,1.44531,0,0,0,.7-.2c.2-.1.2-.3.2-.5a.36737.36737,0,0,0-.1-.3l-.3-.3a5.56191,5.56191,0,0,0-.8-.4c-.4-.2-.7-.4-.9-.5a1.46991,1.46991,0,0,1-.5-.6,1.88374,1.88374,0,0,1-.2-.8,1.48565,1.48565,0,0,1,.6-1.3,2.54445,2.54445,0,0,1,1.6-.5,3.4019,3.4019,0,0,1,1,.1c.3.1.6.2,1,.3l-.4,1.1-.9-.3a1.48276,1.48276,0,0,0-.7-.1.8454.8454,0,0,0-.6.2.76386.76386,0,0,0-.2.5.36739.36739,0,0,0,.1.3c.1.1.1.2.3.3.1.1.4.2.9.5a3.09214,3.09214,0,0,1,1.2.9A1.69036,1.69036,0,0,1,150.969,35.6112Z"/></svg>