<svg id="Layer_1" data-name="Layer 1" xmlns="http://www.w3.org/2000/svg" viewBox="0 0 593.07692 257"><defs><style>.cls-1{fill:#69224b;}.cls-2{fill:#460d2e;}.cls-3{fill:#8c3367;}.cls-4{fill:#fdfdfd;}.cls-5{fill:#a6a5a5;}.cls-6{fill:#8b8b8b;}</style></defs><title>volutus</title><path class="cls-1" d="M197.08834,74.6645c-5.83413,9.96379-11.47437,20.04819-17.57089,29.84876-4.03269,6.48283-4.40334,10.45075,3.48958,15.012,39.16366,22.63226,77.90067,46.00222,116.84332,69.01869,3.03124,1.79157,5.74033,4.52958,9.68445,4.40883a46.56924,46.56924,0,0,0,15.44148,17.687c-2.03228,3.58595-5.8713,5.34855-9.09615,4.25727-15.3528-5.19541-24.49586,6.79786-35.67095,12.559-13.52565,6.9729-26.404,15.20138-39.56238,22.88647a11.99612,11.99612,0,0,1-6.34583-6.4794c20.0295-13.43678,41.43828-24.52667,62.25653-36.622,2.48847-1.44578,6.40325-2.208,6.565-5.32037.17365-3.34134-3.92655-3.93134-6.33379-5.36Q243.49889,164.93333,190.0801,133.524c-6.43864-3.77475-13.2614-11.70063-19.484-9.64862-5.1891,1.7112-7.72175,11.43616-11.47087,17.58753-.84736,1.39034-1.86028,2.67976-2.797,4.01563-5.62125.14878-7.28985-3.06083-6.84987-8.06194,6.54125-4.001,7.5711-11.81292,11.94217-17.32586,1.21908-1.53756.60644-3.21036-1.01225-4.13129-10.54783-6.00116-20.4764-13.19008-33.2757-18.51509l22.38005,40.02137a6.53233,6.53233,0,0,0-5.26648,3.73486c-10.65166-10.68887-15.20423-25.34781-24.17109-37.13336l-9.90366-2.05063c.79545-7.984-7.27985-10.26972-10.19448-15.87047V78.23846c4.89652-3.41434,8.85491-10.23052,15.87531-7.30912,6.29946,2.62139,10.398-.08808,15.23608-2.87817,23.14037-13.34478,46.38138-26.515,69.58663-39.74732l2.05547,8.23721c-10.65313,6.61414-21.2196,13.37325-31.98156,19.8053-13.13376,7.8496-26.25209,15.7588-39.72379,22.99694-8.52544,4.58059-4.15566,7.61063.64108,10.44811,9.79419,5.7937,19.99647,10.909,29.68147,16.871,4.86726,2.99622,6.94792,2.13246,9.63052-2.73746,6.27949-11.3996,13.26462-22.4105,19.964-33.57877C194.04629,70.28351,195.92973,71.95818,197.08834,74.6645Z" transform="translate(-99.97692 -14.97692)"/><path class="cls-2" d="M234.301,243.86307a11.99612,11.99612,0,0,0,6.34583,6.4794c-11.72706,2.44806-12.046,14.44065-18.10066,21.63445H210.68462c-6.26581-3.9943-4.64674-13.12061-11.52561-17.00264-20.86338-11.774-41.53486-23.88859-62.25488-35.91565-2.5999-1.50915-5.26352-3.07855-8.25685-1.92439-16.0981,6.207-19.17561,5.35247-28.67036-8.41886V196.85385c8.182-7.47785,10.574-16.50534,10.15907-27.68081-.83-22.35421-.0688-44.76751.03541-67.1564q4.95183,1.02531,9.9037,2.05057c-.10278,24.9443-.23539,49.88864-.25264,74.83306-.0014,2.02507-1.16982,5.0544,2.172,5.62844,2.929.5031,3.62422-2.338,4.72667-4.23226,4.92122-8.45559,9.60383-17.05485,14.70584-25.39845,2.65726-4.34557,4.10063-8.6711,2.81913-13.69736a6.53233,6.53233,0,0,1,5.26648-3.73486l-.03429-.04915c-.44,5.00115,1.22863,8.21075,6.84994,8.062-.3356,4.15977,1.83974,7.51614,3.78678,10.81232,16.80745,28.45347,33.807,56.79384,50.53269,85.295,4.1384,7.052,9.558,7.96205,16.46809,5.12589C229.49914,245.73363,231.90527,244.81106,234.301,243.86307Zm-33.98891.43049,1.47765-1.5537-51.9183-87.77679c-4.216,10.84068-9.26941,17.63611-13.7771,24.763-3.135,4.95653-.97884,26.46966,3.49236,29.15254C159.67806,220.93426,180.04471,232.53118,200.31207,244.29356Z" transform="translate(-99.97692 -14.97692)"/><path class="cls-3" d="M200.67493,28.30385l11.9866-13.32692h11.86154C243.94851,41.951,276.264,50.13327,301.88645,68.07207c2.9711,2.08013,5.75608,1.61387,9.18518,1.02205,5.97891-1.03187,10.19926,2.43939,11.70771,8.16976,1.471,5.588-1.36953,9.64982-6.40127,11.87926-5.35668,2.37341-10.60471.59194-12.52387-4.35764-2.34435-6.04618-7.13742-8.20662-11.87677-10.95642q-25.99374-15.08177-52.02887-30.09222c-11.00327-6.34571-25.15354-1.75573-31.1579,9.82912-3.69924,7.13735-7.78835,14.07263-11.70236,21.09858-1.15856-2.70638-3.042-4.38105-6.14609-4.31844,3.89511-9.21671,9.15489-17.67938,14.42522-26.1376,2.25168-3.61368,4.28715-7.1918-2.637-7.66746Z" transform="translate(-99.97692 -14.97692)"/><path class="cls-4" d="M110.1714,102.01663c-.1042,22.3889-.86543,44.80219-.03541,67.1564.415,11.17547-1.97706,20.203-10.15907,27.68081V86.14615C102.89156,91.74691,110.96686,94.03268,110.1714,102.01663Z" transform="translate(-99.97692 -14.97692)"/><path class="cls-4" d="M693.05385,119.75385v27.67692a3.71724,3.71724,0,0,0-1.66815-.19956c-1.15178-4.98636-5.37784-6.35138-9.4159-7.672-6.23043-2.03756-12.55082-3.80522-18.85558-5.60844-4.48331-1.28225-7.95759-3.435-7.55675-8.77308.40017-5.32979,3.63638-8.46884,8.68258-9.24931,5.86561-.9072,12.16929-1.62017,17.22839,1.9935C685.36123,120.7025,689.04576,120.1523,693.05385,119.75385Z" transform="translate(-99.97692 -14.97692)"/><path class="cls-5" d="M693.05385,119.75385c-4.00808.39846-7.69261.94865-11.5854-1.83193-5.05911-3.61367-11.36278-2.90069-17.22839-1.9935-5.0462.78047-8.28241,3.91952-8.68258,9.24931-.40084,5.338,3.07344,7.49083,7.55675,8.77308,6.30476,1.80322,12.62515,3.57089,18.85558,5.60844,4.03807,1.32058,8.26413,2.6856,9.41542,7.67231-2.43489.22731-5.11274-.17424-6.58011,2.54913-5.64824-5.08421-12.93983-6.17457-19.86872-8.0684-14.70686-4.01975-19.05419-8.60789-17.08028-18.34452,1.7905-8.832,12.82744-15.3085,24.12367-14.63018,7.741.46483,13.89487,5.19227,21.07407,7.06241Z" transform="translate(-99.97692 -14.97692)"/><path class="cls-6" d="M684.8051,149.78069c1.46737-2.72337,4.14522-2.32182,6.58011-2.54913a3.71349,3.71349,0,0,1,1.66863.19921v11.86154c-10.89287,13.01329-28.52228,15.69754-42.92689,6.426-2.00106-1.288-5.3852-2.28941-3.62878-5.77061,2.24045-4.44064,4.714-1.10689,7.13485.09912,6.50174,3.23891,13.16131,5.704,20.65784,4.12792C682.15845,162.52061,686.72441,158.54167,684.8051,149.78069Z" transform="translate(-99.97692 -14.97692)"/><path class="cls-5" d="M384.67011,145.451c-3.10976-12.28272,2.94922-26.38746,13.99086-32.56934a29.40712,29.40712,0,0,1,35.33509,4.69742c8.93118,8.99292,12.75757,27.32559,4.09487,37.7704q-4.00546-.01717-8.0108-.0343a62.85111,62.85111,0,0,0,3.2833-7.15715c3.61536-11.3003-.95552-23.95352-10.41951-29.29313-8.74-4.93114-18.202-3.18235-24.92,4.43469-5.70694,6.47078-5.89849,14.34575-6.01225,22.28125Z" transform="translate(-99.97692 -14.97692)"/><path class="cls-6" d="M590.90062,131.93557c.30917,4.87026.6396,9.73927.92327,14.611.69305,11.90056,4.48346,16.77632,13.19853,16.93155,9.96063.17743,19.86582-7.72542,20.94991-16.98437.49133-4.19686.43106-8.45829.62-12.69073q3.53759-.092,7.07742-.18332c2.05662,10.48643-2.34434,21.65774,3.44894,31.80466.77284,1.35364-.02793,3.25144-2.01191,3.829a6.02084,6.02084,0,0,1-5.54725-1.09345c-2.61516-1.95558-1.50037-5.37114-2.97-8.86851-5.6331,5.0568-10.84593,9.39494-17.79418,10.97707-13.166,2.99789-23.14167-3.51081-24.52128-16.93336-.66859-6.50447-.22874-13.12289-.2901-19.68973C586.21533,132.77349,588.27614,131.21454,590.90062,131.93557Z" transform="translate(-99.97692 -14.97692)"/><path class="cls-6" d="M368.67711,139.49574c-3.23793,8.55113-6.51791,17.0867-9.68944,25.66236-1.01823,2.75317-2.55553,4.29419-5.72773,4.333-3.42731.04195-5.40035-1.21282-6.64889-4.48952-5.01027-13.14929-10.22063-26.22232-15.357-39.32354l7.24834.21933c4.58458,10.97155,9.16917,21.9431,14.11613,33.78187,5.58791-6.96648,6.19049-15.42664,10.50892-22.02467Q365.9021,138.57507,368.67711,139.49574Z" transform="translate(-99.97692 -14.97692)"/><path class="cls-6" d="M532.168,145.66478c1.46058,5.4106-.83628,11.19138,1.72519,16.52756,1.2846,2.67617,2.74367,5.9719-1.54079,7.1576-3.15458.873-5.82739-.72046-6.80318-4.11582a50.132,50.132,0,0,1-.88837-5.67316c-9.23889,8.00546-18.761,14.4656-31.21011,10.06692-6.45064-2.27921-10.01761-7.20787-10.13351-14.2839q3.46121-.269,6.92158-.53815c7.88664,11.112,20.2967,11.61955,29.20489.884,2.44977-2.95223,3.87321-6.75607,5.76706-10.1693Q528.68889,145.59249,532.168,145.66478Z" transform="translate(-99.97692 -14.97692)"/><path class="cls-5" d="M454.21327,157.42392c-.11418-21.3975-.25906-42.79492-.30838-64.19255-.00715-3.1008-.92611-7.22822,4.41453-6.8509,4.63788.32765,3.41925,4.14071,3.42076,6.8051.012,21.4-.11749,42.80017-.20353,64.20022Q457.87517,157.4048,454.21327,157.42392Z" transform="translate(-99.97692 -14.97692)"/><path class="cls-5" d="M550.99547,139.6057c-.10452-5.23984-1.24713-10.72657-.07324-15.66237,1.81623-7.63654-7.57192-6.65671-7.65243-10.95909-.08111-4.33285,9.3687-3.09505,7.81879-10.85243-.67727-3.39-4.16745-11.73364,3.75195-11.45421,7.16653.25286,3.28969,7.86894,3.50562,12.00782.28476,5.45821,1.77831,7.79287,7.4128,7.30873,2.29951-.19758,5.96465-1.16505,6.17858,2.74179.2174,3.96943-3.41316,3.47709-5.78591,3.22649-6.25619-.66073-8.05357,2.16681-7.64272,7.98329.32117,4.5477-.18875,9.1541-.32889,13.73427Q554.58816,138.64269,550.99547,139.6057Z" transform="translate(-99.97692 -14.97692)"/><path class="cls-6" d="M430.08012,155.31517q4.00537.01713,8.0108.0343c-5.91077,11.53477-17.58525,17.53656-29.78784,15.31382-12.69984-2.3133-21.72947-11.94635-23.633-25.21232q3.67085.06493,7.34239.12977C400.62609,165.77437,413.781,169.13834,430.08012,155.31517Z" transform="translate(-99.97692 -14.97692)"/><path class="cls-6" d="M550.99547,139.6057q3.59248-.96294,7.18454-1.92571c.1466,3.60846.40017,7.21614.42162,10.8252.07861,13.21666.05038,13.26088,13.12719,13.01321,1.81581-.0344,3.23594.107,3.99213,1.91492.95658,2.28689.01291,3.84088-2.09614,4.69844-5.60139,2.27754-11.30281,3.74507-17.114.761-5.13208-2.6353-6.11279-7.27387-5.89216-12.53373C550.85276,150.77916,550.87867,145.19052,550.99547,139.6057Z" transform="translate(-99.97692 -14.97692)"/><path class="cls-5" d="M490.23884,154.80583q-3.46058.26909-6.92158.53815c-3.93487-13.81976-.96825-27.922-1.67783-41.87465-.12117-2.38321,1.45775-3.38469,3.79282-3.41566,3.07413-.04077,3.91536,1.80312,3.92338,4.40839.02627,8.53818-.05559,17.078.08754,25.61405C489.52555,144.98909,489.96183,149.89612,490.23884,154.80583Z" transform="translate(-99.97692 -14.97692)"/><path class="cls-5" d="M532.168,145.66478q-3.47886-.07222-6.95724-.14424c-.14672-9.86068-.33885-19.72119-.41031-29.58257-.01843-2.54179-.43649-5.60105,3.484-5.84472,4.51013-.2803,4.39613,2.96945,4.35806,5.99088C532.51838,125.94478,532.331,135.80462,532.168,145.66478Z" transform="translate(-99.97692 -14.97692)"/><path class="cls-3" d="M324.9763,210.63976a46.56924,46.56924,0,0,1-15.44148-17.687c5.59283-4.3415,11.11236-3.13538,15.3669,1.49844C329.43342,199.3869,330.29371,205.22171,324.9763,210.63976Z" transform="translate(-99.97692 -14.97692)"/><path class="cls-5" d="M368.67711,139.49575q-2.77489-.92063-5.54963-1.84115c2.93682-7.91053,5.89424-15.81354,8.8002-23.73545,1.21443-3.31067,3.64634-5.00369,6.80026-3.52542,3.12623,1.4653.65,4.12368-.06552,5.89649C375.51166,124.09711,372.03543,131.77263,368.67711,139.49575Z" transform="translate(-99.97692 -14.97692)"/><path class="cls-5" d="M590.90062,131.93557c-2.62448-.721-4.6853.83792-6.91661,1.7098-2.21405-6.33416-.63-12.86465-.966-19.29595-.136-2.604.9922-4.29186,3.95315-4.39028,3.25431-.10816,4.94122,1.32677,4.82508,4.55938C591.58758,120.32781,592.754,126.21159,590.90062,131.93557Z" transform="translate(-99.97692 -14.97692)"/><path class="cls-6" d="M454.21327,157.42392q3.6618-.01909,7.32339-.03813c1.90585,3.7404,4.54286,6.23547,9.15829,5.674,2.33731-.28435,4.80192-.29553,4.84557,3.00191.04226,3.19351-2.71809,3.04959-4.81419,3.63584C460.45528,172.57017,455.09908,168.59312,454.21327,157.42392Z" transform="translate(-99.97692 -14.97692)"/><path class="cls-5" d="M633.66977,133.6197q-3.53931.09151-7.07748.18332c-.15583-6.23064-.32561-12.4613-.46425-18.69266-.06552-2.94551.64059-5.24665,4.32241-5.04235,3.20182.17767,3.52489,2.42825,3.50348,4.84158C633.89861,121.14664,633.76944,127.383,633.66977,133.6197Z" transform="translate(-99.97692 -14.97692)"/><path class="cls-5" d="M338.50242,125.8974l-7.24834-.21933c-1.50013-3.25267-3.08392-6.47021-4.46848-9.77131-.81472-1.94248-2.74863-4.43284.68245-5.63944,2.65255-.93283,5.20986-.35168,6.35443,2.80046Q336.153,119.486,338.50242,125.8974Z" transform="translate(-99.97692 -14.97692)"/></svg>