<svg id="Layer_1" data-name="Layer 1" xmlns="http://www.w3.org/2000/svg" viewBox="0 0 533.73887 248.9916"><defs><style>.cls-1{fill:#020202;}.cls-2{fill:#fe802c;}</style></defs><title>vyos</title><path class="cls-1" d="M115.16916,22.126a3.27238,3.27238,0,0,1,1.76255-.40043,191.66931,191.66931,0,0,0,28.48032.01139c2.05587-.15722,1.85612,1.32312,2.13331,2.33613,3.29624,12.04617,6.50211,24.117,9.77262,36.1703,9.63365,35.5043,22.17341,70.047,34.65534,104.60825a4.6493,4.6493,0,0,0,.44715.72957c.92959-.34808.92428-1.21462,1.1863-1.8915,12.63345-32.63561,23.04212-66.02164,33.537-99.37928q6.30061-20.02619,11.60349-40.33664c.495-1.90958,1.138-2.20418,3.023-2.01411a59.2411,59.2411,0,0,0,13.03182-.06312c1.96173-.23672,2.62788-.18166,1.75005,2.06135-21.7499,55.57467-41.36046,111.926-60.94333,168.286-.68875,1.98223-1.56421,2.34389-3.57314,2.20734a80.53712,80.53712,0,0,0-11.97282.033c-2.12427.17333-2.853-.40411-3.46464-2.32657C164.27709,153.43053,150.7481,115.11582,137.08,76.8498c-6.435-18.01584-14.81337-35.25446-21.39313-53.21474-.06808-.18584-.34061-.29678-.51769-.44269Z" transform="translate(-115.16916 -14.66971)"/><path class="cls-2" d="M275.65952,263.66131c-.21274-1.0702.46537-1.86049.8773-2.725,9.6981-20.35236,18.51462-41.07269,26.1465-62.294a7.5213,7.5213,0,0,0-.00026-5.37148C289.2896,154.63885,275.017,116.33067,260.3882,78.153c-1.30834-3.41445-1.25038-3.36324,2.52616-3.07147a96.89815,96.89815,0,0,0,18.88049-.07828c2.50215-.29662,3.31946.49247,3.981,2.77346,8.54877,29.47544,17.87217,58.6997,28.74623,87.412.2182.57615.45676,1.1446.68623,1.71767.778-.01915.80215-.61987.96647-1.05945,10.56034-28.2476,20.61972-56.66441,28.907-85.679.46156-1.616.52234-3.57973,1.51442-4.75049,1.17958-1.392,3.1322.1222,4.77519-.01565,2.6477-.22215,5.31622.16836,7.97343-.29732,2.97907-.52207,3.20529-.19677,2.10536,2.57055-6.45348,16.23649-13.11921,32.39234-19.32165,48.72415-13.19155,34.73505-27.04491,69.22792-38.865,104.47079-3.439,10.25362-6.45906,20.64784-9.65752,30.98181a16.40289,16.40289,0,0,0-.35122,1.80956h-3.19914a26.28826,26.28826,0,0,0-10.66381,0Z" transform="translate(-115.16916 -14.66971)"/><path class="cls-1" d="M535.80634,108.16659c-.145,19.388-3.56239,37.98675-14.02736,54.6738-13.49739,21.52241-32.94792,33.41063-58.38925,35.3412-18.018,1.36726-35.003-1.79565-50.43152-11.54637-15.05033-9.51173-24.763-23.30815-30.17869-39.966-9.4923-29.19685-9.21952-58.33276,3.9672-86.35858,12.10107-25.71849,33.12985-39.50654,61.44636-41.99948,17.003-1.49692,33.2824,1.06023,48.325,9.51416,17.48227,9.825,28.11929,25.03581,34.01459,43.86986A120.02131,120.02131,0,0,1,535.80634,108.16659Zm-133.737-1.60457A182.87433,182.87433,0,0,0,403.1,126.93487c1.31384,12.18154,4.34643,23.85344,10.11009,34.75588,17.2021,32.5392,58.63824,32.593,77.9784,10.96759,8.52962-9.5375,13.07228-20.98959,15.86815-33.21912,3.4961-15.29238,3.87032-30.80688,2.50685-46.3682-1.09089-12.44995-3.85086-24.51146-9.37679-35.81495-11.291-23.096-33.86795-33.75248-57.82153-27.11243-16.04961,4.449-25.97735,15.601-32.26268,30.46294C403.68618,75.77817,402.2654,91.81562,402.06933,106.562Z" transform="translate(-115.16916 -14.66971)"/><path class="cls-1" d="M627.26508,152.4642c.38072-12.14448-5.98206-22.229-17.7266-29.35191-7.43772-4.51091-15.30808-8.19613-22.906-12.3988-19.91345-11.01489-26.885-28.17948-24.87111-48.90179,1.586-16.31956,9.01263-29.15606,23.68363-37.196,9.54738-5.23212,19.91924-6.73792,30.65358-6.07639A77.72323,77.72323,0,0,1,643.44226,25.813c1.49921.67789,1.893,1.27134,1.30173,2.946a111.9043,111.9043,0,0,0-4.72862,20.43624c-.30692,2.00594-1.41632,1.76791-2.68362,2.04669-1.65818.36475-1.91977-.68931-2.25636-1.83488a33.8785,33.8785,0,0,0-3.70617-8.20718c-6.47834-10.54059-16.32509-13.83136-28.82083-11.45256-10.6864,2.03436-17.90282,10.7715-19.34655,22.3195a42.93968,42.93968,0,0,0,.869,15.85781c2.0679,8.3026,7.33069,14.2135,14.33265,18.77556a67.16912,67.16912,0,0,0,8.64576,4.66955c6.44639,2.96584,12.67141,6.33811,18.79669,9.91832,13.55021,7.9201,20.976,19.69074,22.642,35.25485,1.34,12.51931-.44194,24.46881-6.55905,35.53374-8.44094,15.26842-21.66943,23.61017-38.86153,25.46262-14.77641,1.59214-28.94742-1.2086-42.59361-6.971-2.29961-.97106-3.09845-2.31256-2.75265-4.83337,1.07377-7.82754,2.43161-15.60311,3.79482-23.38186.342-1.95176,1.77671-1.554,2.94677-1.88418,1.56482-.44158,1.49332.875,1.74667,1.696a53.53668,53.53668,0,0,0,3.02709,7.64782c6.7425,13.85915,19.931,17.64254,32.95638,16.27564C619.15137,184.30859,627.52406,170.77551,627.26508,152.4642Z" transform="translate(-115.16916 -14.66971)"/><path class="cls-2" d="M260.55811,68.83069c-1.38734-15.77024,2.61756-29.84133,13.86715-41.231,19.10138-19.33914,49.091-16.608,64.76233,5.67086,7.17332,10.19785,10.05322,21.55762,9.253,33.99368-2.5068-13.30641-8.70164-24.28263-20.08281-31.949A41.24832,41.24832,0,0,0,304.0039,28.069a42.27659,42.27659,0,0,0-29.26,12.1971C266.623,48.06284,262.26934,57.75973,260.55811,68.83069Z" transform="translate(-115.16916 -14.66971)"/></svg>