<svg id="Layer_1" data-name="Layer 1" xmlns="http://www.w3.org/2000/svg" viewBox="0 0 345.77289 73.99352"><defs><style>.cls-1,.cls-2{fill:#00378b;}.cls-1{fill-rule:evenodd;}</style></defs><title>wanxiang</title><path class="cls-1" d="M30.918,9.00352c-12.746,4.625-21.73,15.313-21.73,27.84a27.71048,27.71048,0,0,0,8.308,19.453v12.461A37.504,37.504,0,0,1,0,36.84752c0-18.617,13.516-33.887,30.75-36.539,0-.289,21.516-.309,23.379-.309.367,11.532.633,23.125.633,34.653.191,13.277-14.071,17.191-14.211,17.101l-8.797-5.507c12.746-3.086,12.309-10.071,13.078-11.27.199.137-.281-26.219-.289-26.082Z"/><path class="cls-1" d="M43.012,64.99251c12.746-4.629,21.726-15.317,21.726-27.844a27.68143,27.68143,0,0,0-8.308-19.449V5.23451a37.50015,37.50015,0,0,1,17.5,31.914c0,18.613-13.516,33.883-30.754,36.539,0,.285-21.516.305-23.375.305-.367-11.532-.633-23.125-.633-34.649-.191-13.281,14.07-17.195,14.211-17.105l8.797,5.511c-13,3.485-13.082,11.266-13.082,11.266-.016-.137.043,22.664.293,26.086Z"/><path class="cls-1" d="M85.48,49.96852h5.219l4.61,10.813,1.632-3.282-3.367-7.531h4.981l5.191,10.93,4.883-10.93h2.562l-8.679,19.106-4.067-8.262-4.871,8.648Zm30.473-.215-9.191,19.493h2.086l2.746-5.164h7.219l2.707,4.949h5.093Zm-3.808,12.996,2.82-5.722,3.262,5.722Zm68.281-12.695-9.192,19.496h2.086l2.746-5.164h7.215l2.731,5.16h5.09Zm-3.809,12.996,2.821-5.722,3.257,5.722Zm15.199-12.476v19h2.344v-14.246l12.453,14.332h2.297v-19.004h-2.629v11.789l-10.41-11.871Zm-64.433-.219v18.418h2.16v-13.856l12.602,13.942h2.195v-18.414h-2.195v12.176l-10.809-12.266Zm23.57.391h-5.422l7.196,9.328-7.379,8.707h2.535l6.215-6.821,6.414,7.598h5.07l-8.691-11.027,6.586-7.957h-2.864l-5.047,6.109Zm19.613,18.886v-19.058h-4.429v19.058Zm59.227-15.359s-1.793-3.961-8.934-4.219c-1.504-.051-11.004.387-10.812,10.285.043,2.067,2.129,9.766,11.25,9.555,1.906-.047,6.848-.734,9.742-3.23v-6.926h-5.016v6.883s.036.777-.992,1.164c-1.023.386-11.168,2.925-11.097-8.09.015-2.196,1.054-7.531,7.168-7.789a9.483,9.483,0,0,1,7.703,3.398Zm35.309,0s-1.793-3.961-8.934-4.219c-1.504-.051-11,.387-10.809,10.285.039,2.067,2.129,9.766,11.246,9.555,1.907-.047,6.852-.734,9.743-3.23v-6.926h-5.016v6.883s.035.777-.988,1.164c-1.028.386-11.172,2.925-11.098-8.09.012-2.196,1.051-7.531,7.168-7.789a9.4896,9.4896,0,0,1,7.703,3.398Zm15.386,6.711s5.02.258,5.129-4.602a4.92905,4.92905,0,0,0-3.957-5.336H269.941v19.493h4.942v-9.985l6.375,9.899h5.273Zm-2.675-1.117h-2.965v-7.36h3.332a3.55,3.55,0,0,1,2.929,3.442C281.184,59.91051,277.813,59.86751,277.813,59.86751Zm19.859-9.196c-6.086,0-11.024,4.282-11.024,9.555,0,5.277,4.938,9.555,11.024,9.555s11.023-4.278,11.023-9.555C308.695,54.95351,303.758,50.67151,297.672,50.67151Zm0,17.442c-3.805,0-6.891-3.571-6.891-7.973s3.086-7.973,6.891-7.973,6.891,3.571,6.891,7.973S301.477,68.11351,297.672,68.11351Zm17.512-17.367h-4.11v14.242s-.625,5.465,8.641,5.551c1.394.011,6.191-.95,6.633-4.305v-15.32h-2.2v15.234s-.621,2.41-4.578,2.453c-1.289.016-4.617-.816-4.394-4.176Zm22.078.472h-8.789v19.449h4.687v-8.648h5.676c4.578-.477,5.281-3.918,5.277-5.078C344.074,51.73451,337.262,51.21852,337.262,51.21852Zm-.805,9.594h-3.371v-8.02h3.187c2.012,0,3.114,2.254,3.075,4.192C339.313,59.00352,337.699,60.81252,336.457,60.81252ZM83.816,47.60151H345.773v25.219H83.816Z"/><path class="cls-1" d="M136.516,2.46452V.85152H125.141v1.613H103.465V.85152H92.09v1.613H84.293v4.739H92.09v1.757H84.906v17.329H95.648V9.30852h1.93v4.926h11.176v2.09H97.578v3.383h11.176v1.89H97.527v4.774h11.227v1.894H96.281v4.973h12.473v2.586H98.074v5.472h22.653V9.30852H103.465v-2.105h21.676v2.254h-2.34v4.894h10.433v2.07H122.801v3.383h10.433v2.09H122.801v4.578h18.441a3.49565,3.49565,0,0,0,2.613-2.488v-9.633h.004v-4.894h-7.343v-2.254h8.867v-4.739Z"/><rect class="cls-2" x="83.906" y="28.16452" width="10.578" height="15.82"/><path class="cls-1" d="M144.973,28.26551h-4.391v-.101H122.801v5.074h10.297v4.011h-3.391v-2.718h-6.906v6.867h4.562v2.453h14.914c2.993-.793,2.696-2.852,2.696-2.852Z"/><path class="cls-1" d="M173.605,2.78951s-1.332.152-.699-1.082l.535-1.008H159.039a32.10125,32.10125,0,0,1-2.094,3.98c-.601.699-1.097,2.289-5.375,1.891v8.359h1.684v29.438H166.82v-32.965h34.325v25.816h-5.29v6.996H208.43s4.187-.726,4.687-3.613V2.78951Z"/><rect class="cls-2" x="170.06599" y="14.43351" width="10.32401" height="24.402"/><path class="cls-1" d="M197.078,21.59752v-7.015H182.41v7.015h5.09v10.371h-5.164v6.942h10.18a6.33572,6.33572,0,0,0,4.562-5.153Z"/><path class="cls-1" d="M223.945.43752s.821,4.293-3.668,4.516v5.3h1.047v16.012h11.375V.40251Z"/><polygon class="cls-1" points="250.957 0.18 250.957 1.821 234.793 1.821 234.793 5.852 250.957 5.852 250.957 8.688 234.793 8.688 234.793 12.715 250.957 12.715 250.957 15.254 234.793 15.254 234.793 19.731 250.957 19.731 250.957 21.969 234.793 21.969 234.793 26.297 244.148 26.297 244.148 28.129 220.277 28.129 220.277 32.684 244.148 32.684 244.148 43.985 257.168 43.985 257.168 26.372 262.93 26.372 262.93 0.18 250.957 0.18"/><path class="cls-1" d="M240.258,34.20752H226.785s-1.195,1.57-1.644,2.089c-.45.524-.672,1.418-3.071,1.196a15.476,15.476,0,0,0-1.976-.035v6.453h8.64s2.993.297,6.286-2.836A74.06847,74.06847,0,0,0,240.258,34.20752Z"/><path class="cls-1" d="M260.48,34.03952h12.008s2.043,3.152,2.492,3.675c.446.524,1.27,1.047,3.567.95.973-.043,2.508-.008,2.508-.008l.031,5.371-8.91-.031a7.05685,7.05685,0,0,1-6.625-2.325C264.242,40.07051,260.48,34.03952,260.48,34.03952Z"/><rect class="cls-2" x="259.34" y="28.23851" width="21.461" height="4.179"/><rect class="cls-2" x="265.43799" y="22.04251" width="15.36301" height="4.407"/><rect class="cls-2" x="265.43799" y="15.40252" width="15.36301" height="4.476"/><rect class="cls-2" x="265.43799" y="8.51952" width="15.36301" height="4.629"/><rect class="cls-2" x="265.43799" y="1.37151" width="15.36301" height="4.703"/><path class="cls-1" d="M341.629,43.83551H288.383V1.26151h33.215v27.352H298.551v-3.36h14.293v-1.269h-4.039v-3.133h4.039v-1.344H308.73v-2.687h4.114v-1.715H308.73v-2.836h4.114v-1.719H298.551v-3.656h14.293v-1.117H297.652v33.207h38.465V5.77751H323.621v-4.516h21.551v38.844S344.922,43.88651,341.629,43.83551Z"/><rect class="cls-2" x="299.22299" y="12.19551" width="8.16" height="11.863"/><path class="cls-1" d="M298.625,32.93752h25.09v2.242h-4.586v2.586h11.75a2.54788,2.54788,0,0,0,2.019-2.437v-1.793h1.516v-3.805h-1.516v-1.043h1.516v-5.102l-2.301-.011.004-.297a2.47052,2.47052,0,0,0,2.297-1.981v-8.992H323.715v2.875h2.973v1.715h-2.973v2.613h2.973v1.344h-2.973v3.281h5.367v.899h-5.367v4.551h-25.09Z"/><rect class="cls-2" x="323.69501" y="7.11752" width="10.71899" height="3.957"/><path class="cls-1" d="M311.945,34.35952h-11s1.012,3.332,2.731,3.406c1.722.074,13.086,0,13.086,0l-.028-2.586h-3.89Z"/></svg>