<?xml version="1.0" encoding="utf-8"?>
<!-- Generator: Adobe Illustrator 23.0.2, SVG Export Plug-In . SVG Version: 6.00 Build 0)  -->
<svg version="1.1" id="Layer_1" xmlns="http://www.w3.org/2000/svg" xmlns:xlink="http://www.w3.org/1999/xlink" x="0px" y="0px"
	 viewBox="0 0 400 245" style="enable-background:new 0 0 400 245;" xml:space="preserve">
<style type="text/css">
	.st0{fill-rule:evenodd;clip-rule:evenodd;fill:#00378B;}
	.st1{clip-path:url(#SVGID_2_);fill-rule:evenodd;clip-rule:evenodd;fill:#00378B;}
	.st2{fill:#2A2676;}
	.st3{fill:#D1D700;}
	.st4{fill:#FFFFFF;}
	.st5{fill:#82CDE3;}
	.st6{fill:#2C2582;}
	.st7{fill:#44B4E4;}
	.st8{fill:#201F1E;}
	.st9{fill:#32324B;}
	.st10{fill:#00D2FF;}
	.st11{fill:#FF4B19;}
	.st12{fill:#00B26D;}
	.st13{fill:#0067A6;}
	.st14{fill:#231F20;}
	.st15{fill:#CC0000;}
	.st16{fill:#2F1157;}
	.st17{clip-path:url(#SVGID_4_);}
	.st18{clip-path:url(#SVGID_6_);}
	.st19{fill:#00AED6;}
	.st20{clip-path:url(#SVGID_10_);}
	.st21{clip-path:url(#SVGID_12_);fill:#004361;}
	.st22{clip-path:url(#SVGID_14_);}
	.st23{clip-path:url(#SVGID_16_);fill:#009BBA;}
	.st24{clip-path:url(#SVGID_18_);}
	.st25{clip-path:url(#SVGID_20_);fill:#52E2FF;}
	.st26{clip-path:url(#SVGID_22_);}
	.st27{clip-path:url(#SVGID_24_);fill:#004361;}
	.st28{clip-path:url(#SVGID_26_);}
	.st29{clip-path:url(#SVGID_28_);fill:#0D9CB9;}
	.st30{fill:none;}
	.st31{fill:#D6D8D6;}
	.st32{fill:#006DAA;}
	.st33{fill:#797E82;}
	.st34{fill:#626363;}
	.st35{fill:#F05928;}
	.st36{fill:#FF0033;}
	.st37{fill:#010101;}
	.st38{fill:#42A9D2;}
	.st39{fill:#737373;}
	.st40{fill:#868686;}
	.st41{fill:#008ED3;}
	.st42{fill:#3D3D3D;}
	.st43{fill:#F8BE34;}
	.st44{fill:#FECB33;stroke:#333333;stroke-width:2.7217;stroke-miterlimit:10;stroke-opacity:0;}
	.st45{fill:#EAA536;stroke:#333333;stroke-width:2.7217;stroke-miterlimit:10;stroke-opacity:0;}
	.st46{fill:#EF4136;}
	.st47{fill:#FFD100;}
	.st48{fill:none;stroke:#221F1F;stroke-width:0.3387;}
	.st49{fill:none;stroke:#221F1F;stroke-width:0.1129;}
	.st50{fill:#157715;}
	.st51{fill:#3D3E3F;}
	.st52{fill:none;stroke:#3D3E3F;stroke-width:0.2383;stroke-miterlimit:10;}
	.st53{fill:#363E49;}
	.st54{fill:#91C9E5;}
	.st55{fill:url(#SVGID_29_);}
	.st56{fill:url(#SVGID_30_);}
	.st57{fill:url(#SVGID_31_);}
	.st58{fill:url(#SVGID_32_);}
	.st59{fill:url(#SVGID_33_);}
	.st60{fill:url(#SVGID_34_);}
	.st61{fill:url(#SVGID_35_);}
	.st62{fill:url(#SVGID_36_);}
	.st63{fill:url(#SVGID_37_);}
	.st64{fill:url(#SVGID_38_);}
	.st65{fill:url(#SVGID_39_);}
	.st66{fill:url(#SVGID_40_);}
	.st67{fill:url(#SVGID_41_);}
	.st68{fill:url(#SVGID_42_);}
	.st69{fill:url(#SVGID_43_);}
	.st70{fill:url(#SVGID_44_);}
	.st71{fill:url(#SVGID_45_);}
	.st72{fill:url(#SVGID_46_);}
	.st73{fill:url(#SVGID_47_);}
	.st74{fill:url(#SVGID_48_);}
	.st75{fill:url(#SVGID_49_);}
	.st76{fill:url(#SVGID_50_);}
	.st77{fill:url(#SVGID_51_);}
</style>
<g>
	<path class="st13" d="M182.88,162.94c0,6.25-5.07,11.31-11.31,11.31H12.46c-6.24,0-11.31-5.06-11.31-11.31V79.25
		c0-6.25,5.06-11.31,11.31-11.31h159.11c6.25,0,11.31,5.06,11.31,11.31V162.94z"/>
	<g>
		<g>
			<polygon class="st4" points="101.64,104.61 105.79,92.55 89.47,92.55 85.63,104.61 			"/>
			<polygon class="st4" points="75.41,104.6 74.14,92.55 61.65,92.55 55.28,104.6 			"/>
			<polygon class="st4" points="84.1,109.41 77.95,128.71 75.88,109.13 53.3,108.33 43.16,127.51 46.04,108.07 30.37,107.52 
				25.81,148.54 47.35,148.54 63.8,115.26 67.15,148.54 86.51,148.54 99.79,109.97 			"/>
			<polygon class="st4" points="46.56,104.6 48.37,92.35 32.05,92.35 30.69,104.59 			"/>
		</g>
		<path class="st4" d="M140.84,92.55h-30.87l-4.02,12.06l27.85,0.01c7.68,0.2,11.46,6.49,8.86,14.26
			c-2.64,7.89-10.35,13.87-19.12,14.29c-2.25,0.11-3.03,0.36-6.24,0.1l7.6-22.42l-20.78-0.73l-12.81,38.42h30.87
			c15.52,0,32.53-12.25,37.77-28C165.2,104.8,156.44,92.55,140.84,92.55z"/>
	</g>
	<path class="st14" d="M218.51,76.77h9.83l7.07,30.48h0.11l6.51-30.48h8.31l-10.33,40.53h-9.66l-7.3-30.87h-0.11l-7.86,30.87h-9.88
		l-9.88-40.53h8.98l6.23,30.48h0.11L218.51,76.77z"/>
	<path class="st14" d="M256.66,105.46c0,3.65,0.5,7.07,4.82,7.07c2.92,0,4.38-1.07,5.17-3.65h7.58c-0.73,6.96-6.18,9.26-12.74,9.26
		c-9.65,0-13.53-5.45-13.53-14.88c0-8.48,4.94-14.99,13.53-14.99c5.28,0,9.66,1.79,12.01,6.73c0.79,1.57,1.18,3.26,1.4,5.05
		c0.22,1.74,0.22,3.54,0.22,5.39H256.66z M266.42,99.85c0-3.09-0.84-5.95-4.94-5.95c-3.87,0-4.71,2.86-4.82,5.95H266.42z"/>
	<path class="st14" d="M293.43,96.65c-0.11-1.91-1.91-2.75-3.82-2.75c-2.3,0-3.37,0.67-3.37,2.52c0,4.44,16.11,1.91,16.11,12.46
		c0,6.17-7.52,9.26-12.74,9.26c-6.57,0-12.29-2.58-12.4-9.04h7.8c0.17,2.19,2.13,3.42,4.6,3.42c2.3,0,4.04-0.95,4.04-3.14
		c0-2.24-4.04-3.2-5.73-3.59c-5.39-1.29-10.38-2.47-10.38-9.04c0-5.89,7.13-8.48,12.07-8.48c5.95,0,11,2.13,11.39,8.36H293.43z"/>
	<path class="st14" d="M306,89.12v-5.56l8.42-3.03v8.59h6.34v5.62h-6.34v13.08c0,3.7,0.56,4.72,3.48,4.72c0.9,0,1.8-0.11,2.7-0.17
		v4.94c-0.96,0.45-5.45,0.84-6.62,0.84c-6.57,0-7.97-3.42-7.97-9.54V94.74h-3.1v-5.62H306z"/>
	<path class="st14" d="M330.36,105.46c0,3.65,0.51,7.07,4.83,7.07c2.92,0,4.38-1.07,5.16-3.65h7.58c-0.73,6.96-6.18,9.26-12.74,9.26
		c-9.65,0-13.53-5.45-13.53-14.88c0-8.48,4.94-14.99,13.53-14.99c5.28,0,9.65,1.79,12.01,6.73c0.79,1.57,1.18,3.26,1.4,5.05
		c0.23,1.74,0.23,3.54,0.23,5.39H330.36z M340.13,99.85c0-3.09-0.84-5.95-4.94-5.95c-3.88,0-4.72,2.86-4.83,5.95H340.13z"/>
	<path class="st14" d="M366.04,96.25c-1.4,0.11-3.25,0.9-4.1,2.08c-0.9,1.57-1.07,3.14-1.12,5v13.98h-8.36l-0.06-22.56
		c0-1.18-0.17-3.54-0.28-5.62h7.69l0.17,5.11h0.11c1.8-4.43,5.39-5.56,9.6-5.44L366.04,96.25z"/>
	<path class="st14" d="M380.27,92.38l0.11,0.17c1.74-2.58,4.38-4.27,8.64-4.27c2.81,0,8.25,2.07,9.26,6.17
		c0.45,1.74,0.56,3.54,0.56,4.49v18.35h-8.42v-16.95c-0.06-3.03-0.9-6.46-5.05-6.46c-2.64,0-4.94,2.36-5.05,6.46v16.95h-8.42V89.12
		h8.36V92.38z"/>
	<path class="st14" d="M198.42,125.42h13.81c12.63-0.11,20.49,6.17,20.49,20.26c0,14.09-7.86,20.38-20.49,20.26h-13.81V125.42z
		 M207.12,159.21h4.49c10.33,0.11,11.84-7.07,11.84-13.53c0-6.45-1.52-13.64-11.84-13.53h-4.49V159.21z"/>
	<path class="st14" d="M245.23,125.42v7.24h-8.98v-7.24H245.23z M244.95,137.77v28.18h-8.42v-28.18H244.95z"/>
	<path class="st14" d="M276.5,163.42c0,6.57-1.46,13.76-13.81,13.64c-6.23,0-12.91-1.51-13.08-9.09h7.97
		c0.11,2.53,2.36,3.48,4.66,3.48c6.4,0,6.17-5.84,5.84-9.94h-0.11c-1.74,2.75-4.72,3.87-7.91,3.87c-7.64,0-11.56-7.19-11.56-14.03
		c0-7.19,4.1-14.43,11.96-14.43c3.76,0,6.18,1.23,7.52,4.1h0.11v-3.25h8.42V163.42z M262.64,159.78c4.6,0,5.45-4.72,5.45-8.37
		c0-4.15-0.84-8.87-5.45-8.87c-4.6,0-5.44,4.72-5.44,8.87C257.19,155.06,258.03,159.78,262.64,159.78z"/>
	<path class="st14" d="M290.22,125.42v7.24h-8.98v-7.24H290.22z M289.94,137.77v28.18h-8.42v-28.18H289.94z"/>
	<path class="st14" d="M296.06,137.77v-5.56l8.42-3.03v8.59h6.34v5.61h-6.34v13.08c0,3.7,0.56,4.72,3.48,4.72
		c0.9,0,1.8-0.11,2.69-0.17v4.94c-0.95,0.45-5.44,0.84-6.62,0.84c-6.57,0-7.97-3.42-7.97-9.54v-13.87h-3.33v-5.61H296.06z"/>
	<path class="st14" d="M314.08,145.74c0.05-3.54,1.57-5.72,3.82-7.02c2.3-1.35,5.28-1.8,8.31-1.8c5.67,0,12.01,2.08,12.01,10.55
		v15.38c0.06,1.4,0.28,2.24,0.39,3.08h-7.58c-0.17-1.29-0.28-2.58-0.28-3.76h-0.11c-1.91,3.26-4.83,4.6-8.65,4.6
		c-5.28,0-9.21-3.03-9.21-8.53c0-1.96,0.9-6.74,6.01-8.93c3.37-1.46,7.63-1.63,11-1.51v-2.64c0-1.18-0.9-3.48-3.87-3.48
		c-2.92,0-3.87,2.75-3.76,4.04H314.08z M320.87,157.14c0,2.35,1.74,4.04,4.1,4.04c4.66,0,4.83-5.16,4.83-8.48
		C326.88,152.65,320.87,152.59,320.87,157.14z"/>
	<path class="st14" d="M351.87,125.42v40.53h-8.42v-40.53H351.87z"/>
	<path d="M356.15,130.15c0-3.36,2.73-6.09,6.13-6.09c3.38,0,6.09,2.73,6.09,6.09c0,3.4-2.71,6.13-6.09,6.13
		C358.88,136.28,356.15,133.55,356.15,130.15z M367.3,130.15c0-2.76-2.24-5.02-5.02-5.02c-2.8,0-5.05,2.26-5.05,5.02
		c0,2.8,2.26,5.05,5.05,5.05C365.06,135.21,367.3,132.95,367.3,130.15z M360.98,130.56v3.1h-1.12v-7.18h2.32
		c1.32,0,2.68,0.36,2.68,1.98c0,0.83-0.5,1.48-1.46,1.68v0.03c0.99,0.19,1.1,0.63,1.22,1.41c0.1,0.68,0.18,1.43,0.42,2.08h-1.43
		c-0.08-0.41-0.19-0.86-0.25-1.28c-0.08-0.62-0.08-1.19-0.41-1.53c-0.28-0.29-0.65-0.26-1.04-0.29H360.98z M362.17,129.44
		c1.05-0.03,1.3-0.47,1.3-1.03c0-0.53-0.25-0.81-1.14-0.81h-1.35v1.84H362.17z"/>
</g>
<g>
	<g>
		<defs>
			<path id="SVGID_21_" d="M384.4,354.71c0-1.36-0.26-2.71-0.79-4.07c-0.53-1.36-1.3-2.58-2.32-3.67c-1.02-1.09-2.32-2-3.9-2.71
				c-1.58-0.72-3.39-1.07-5.43-1.07c-2.19,0-4.13,0.36-5.82,1.07c-1.7,0.72-3.11,1.62-4.24,2.71c-1.13,1.09-2,2.32-2.6,3.67
				c-0.6,1.36-0.9,2.71-0.9,4.07H384.4z M397.41,379.12l-1.87,1.86c-1.02,1.02-2.49,2.09-4.41,3.22c-1.92,1.13-4.37,2.15-7.35,3.05
				c-2.98,0.9-6.54,1.36-10.69,1.36c-4.22,0-8.07-0.72-11.54-2.15c-3.47-1.43-6.43-3.41-8.88-5.93c-2.45-2.52-4.34-5.56-5.66-9.1
				c-1.32-3.54-1.98-7.46-1.98-11.75c0-3.92,0.66-7.55,1.98-10.91c1.32-3.35,3.17-6.27,5.54-8.76c2.38-2.49,5.2-4.45,8.48-5.88
				c3.28-1.43,6.92-2.15,10.91-2.15c4.83,0,8.92,0.89,12.27,2.66c3.36,1.77,6.05,4.09,8.09,6.95c2.04,2.86,3.51,6.1,4.41,9.72
				c0.9,3.62,1.36,7.31,1.36,11.08v1.92H358.5c0,1.96,0.43,3.73,1.3,5.31c0.87,1.58,2,2.94,3.39,4.07c1.4,1.13,2.98,2,4.75,2.6
				c1.77,0.6,3.53,0.9,5.26,0.9c2.56,0,4.81-0.24,6.73-0.73c1.92-0.49,3.56-1.05,4.92-1.7c1.36-0.64,2.47-1.32,3.34-2.03
				c0.87-0.72,1.53-1.3,1.98-1.75L397.41,379.12z M319.55,345.33c-1.06-0.38-2.15-0.66-3.28-0.85c-1.13-0.19-2.9-0.28-5.32-0.28
				c-2.71,0-5.09,0.45-7.13,1.36c-2.04,0.9-3.77,2.11-5.2,3.62c-1.43,1.51-2.51,3.26-3.22,5.26c-0.72,2-1.07,4.09-1.07,6.27
				c0,4.07,1.02,7.5,3.05,10.28c2.04,2.79,5.32,4.18,9.84,4.18c4.07,0,7.14-0.87,9.22-2.6c2.07-1.73,3.11-4.48,3.11-8.25V345.33z
				 M291.84,395.4c2.11,1.43,4.39,2.47,6.84,3.11s5.33,0.96,8.65,0.96c3.47,0,6.37-1.05,8.71-3.16c2.34-2.11,3.51-5.05,3.51-8.82
				v-5.76c-1.81,1.51-3.79,2.73-5.94,3.67s-5,1.41-8.54,1.41c-3.85,0-7.26-0.64-10.24-1.92c-2.98-1.28-5.52-3.07-7.63-5.37
				c-2.11-2.3-3.71-5.01-4.81-8.14c-1.09-3.13-1.64-6.57-1.64-10.34c0-3.92,0.7-7.61,2.09-11.08c1.4-3.47,3.39-6.48,5.99-9.04
				c2.6-2.56,5.75-4.58,9.44-6.05c3.69-1.47,7.84-2.2,12.44-2.2c4.6,0,8.84,0.38,12.72,1.13c3.88,0.75,7.03,1.54,9.44,2.37v51.54
				c0,3.69-0.64,6.97-1.92,9.83s-3.05,5.27-5.32,7.23c-2.26,1.96-4.94,3.45-8.03,4.46c-3.09,1.02-6.45,1.53-10.07,1.53
				c-2.79,0-5.26-0.13-7.41-0.4c-2.15-0.26-4.07-0.62-5.77-1.07c-1.7-0.45-3.24-1.02-4.64-1.7c-1.4-0.68-2.7-1.47-3.9-2.37
				L291.84,395.4z M255.69,362.85c-1.36-0.08-2.68-0.15-3.96-0.23c-1.06-0.08-2.17-0.13-3.34-0.17c-1.17-0.04-2.17-0.06-3-0.06
				c-4.3,0-7.31,0.85-9.05,2.54c-1.73,1.7-2.6,3.64-2.6,5.82c0,2.26,0.81,4.03,2.43,5.31c1.62,1.28,4.02,1.92,7.18,1.92
				c1.58,0,3.11-0.26,4.58-0.79c1.47-0.53,2.77-1.24,3.9-2.15c1.13-0.9,2.05-1.96,2.77-3.16c0.72-1.21,1.07-2.49,1.07-3.84V362.85z
				 M255.69,381.83c-1.43,1.73-3.62,3.28-6.56,4.63c-2.94,1.36-6.22,2.03-9.84,2.03c-2.19,0-4.35-0.34-6.5-1.02
				c-2.15-0.68-4.11-1.71-5.88-3.11c-1.77-1.39-3.2-3.18-4.3-5.37c-1.09-2.18-1.64-4.75-1.64-7.69c0-3.01,0.57-5.71,1.7-8.08
				c1.13-2.37,2.71-4.37,4.75-5.99c2.04-1.62,4.49-2.84,7.35-3.67c2.87-0.83,6.03-1.24,9.5-1.24c1.06,0,2.22,0.02,3.51,0.06
				c1.28,0.04,2.53,0.09,3.73,0.17c1.36,0.08,2.75,0.15,4.18,0.23v-1.24c0-2.64-1.06-4.71-3.17-6.22c-2.11-1.51-4.86-2.26-8.26-2.26
				c-3.77,0-6.79,0.49-9.05,1.47c-2.26,0.98-4.26,2.03-5.99,3.16l-6.11-9.04c1.06-0.75,2.26-1.53,3.62-2.32
				c1.36-0.79,2.94-1.51,4.75-2.15c1.81-0.64,3.9-1.17,6.28-1.58c2.38-0.41,5.15-0.62,8.31-0.62c3.39,0,6.47,0.47,9.22,1.41
				c2.75,0.94,5.11,2.26,7.07,3.96c1.96,1.7,3.47,3.73,4.52,6.1c1.06,2.37,1.58,4.95,1.58,7.74v35.6h-12.44L255.69,381.83z
				 M176.62,360.02L157.4,333.8h16.85l10.63,15.37l10.75-15.37h15.04l-18.66,24.86l20.7,28.14h-16.85l-12.1-17.29l-12.22,17.29
				h-15.04L176.62,360.02z"/>
		</defs>
		<clipPath id="SVGID_2_">
			<use xlink:href="#SVGID_21_"  style="overflow:visible;"/>
		</clipPath>
		<g style="clip-path:url(#SVGID_2_);">
			<defs>
				<rect id="SVGID_23_" x="-149.32" y="-10.14" width="1395.97" height="785.23"/>
			</defs>
			<clipPath id="SVGID_4_">
				<use xlink:href="#SVGID_23_"  style="overflow:visible;"/>
			</clipPath>
		</g>
	</g>
	<g>
		<defs>
			<path id="SVGID_25_" d="M383.48,445.01h-2.01v-8.5l-7.39-11.23h2.51l5.94,9.56l6-9.56h2.34l-7.39,11.23V445.01z M352.05,445.01
				h-2.01v-17.95h-6.61v-1.78h15.23v1.78h-6.61V445.01z M325.39,445.01h-2.01v-19.74h2.01V445.01z M293.6,434.05h3.49
				c1.62,0,2.86-0.29,3.74-0.88c0.87-0.59,1.31-1.46,1.31-2.63c0-0.65-0.12-1.2-0.36-1.64c-0.24-0.45-0.58-0.81-1-1.09
				c-0.43-0.28-0.95-0.48-1.56-0.61c-0.61-0.13-1.29-0.2-2.04-0.2h-3.57V434.05z M293.6,445.01h-2.01v-19.74h5.8
				c0.97,0,1.86,0.09,2.69,0.28s1.54,0.49,2.15,0.91c0.6,0.42,1.07,0.96,1.41,1.63c0.33,0.67,0.5,1.49,0.5,2.45
				c0,0.72-0.13,1.38-0.39,1.98c-0.26,0.59-0.61,1.11-1.06,1.55c-0.45,0.44-0.98,0.79-1.59,1.05s-1.28,0.43-2.01,0.5l5.78,9.39
				h-2.46l-5.47-9.23h-3.35V445.01z M263.98,445.51c-1.49,0-2.71-0.26-3.65-0.77c-0.95-0.51-1.7-1.16-2.26-1.94
				c-0.56-0.78-0.94-1.63-1.16-2.55c-0.21-0.92-0.32-1.79-0.32-2.61v-12.38h2.01v12.15c0,0.8,0.09,1.58,0.28,2.33
				c0.19,0.75,0.49,1.42,0.91,2.01c0.42,0.59,0.97,1.06,1.66,1.42c0.69,0.36,1.53,0.54,2.54,0.54c1,0,1.85-0.18,2.54-0.54
				c0.69-0.36,1.24-0.84,1.66-1.42c0.42-0.59,0.72-1.25,0.91-2.01c0.19-0.75,0.28-1.53,0.28-2.33v-12.15h2.01v12.38
				c0,0.82-0.11,1.69-0.32,2.61s-0.6,1.77-1.16,2.55c-0.56,0.78-1.32,1.43-2.27,1.94S265.45,445.51,263.98,445.51z M238.16,441.83
				c-0.33,0.5-0.74,0.98-1.21,1.42c-0.47,0.45-1.02,0.84-1.65,1.17c-0.62,0.33-1.31,0.6-2.06,0.79c-0.75,0.2-1.58,0.29-2.47,0.29
				c-1.49,0-2.86-0.26-4.13-0.78c-1.26-0.52-2.35-1.24-3.26-2.16c-0.91-0.92-1.62-2.01-2.13-3.28c-0.51-1.26-0.77-2.65-0.77-4.15
				c0-1.51,0.26-2.89,0.78-4.15s1.24-2.36,2.16-3.28c0.92-0.92,2.01-1.64,3.26-2.16c1.26-0.52,2.62-0.78,4.09-0.78
				c0.73,0,1.44,0.07,2.13,0.22c0.7,0.15,1.35,0.36,1.97,0.63c0.61,0.27,1.17,0.59,1.67,0.98c0.5,0.38,0.92,0.81,1.26,1.3
				l-1.67,1.23c-0.2-0.32-0.48-0.63-0.82-0.95c-0.34-0.32-0.75-0.59-1.21-0.84c-0.46-0.24-0.97-0.44-1.52-0.59
				c-0.55-0.15-1.14-0.22-1.77-0.22c-1.28,0-2.43,0.23-3.45,0.7c-1.01,0.46-1.87,1.09-2.58,1.88c-0.71,0.79-1.25,1.71-1.62,2.75
				s-0.56,2.14-0.56,3.29c0,1.15,0.19,2.25,0.57,3.29c0.38,1.04,0.93,1.96,1.63,2.75c0.71,0.79,1.57,1.42,2.58,1.88
				c1.01,0.46,2.15,0.7,3.42,0.7c1.13,0,2.21-0.23,3.24-0.7c1.02-0.46,1.88-1.21,2.57-2.23L238.16,441.83z M191.94,443.23h10.57
				v1.78h-12.58v-19.74h12.25v1.78h-10.24v6.8h9.57v1.76h-9.57V443.23z M168.68,428.45c-0.43-0.59-0.98-1.07-1.65-1.44
				c-0.67-0.36-1.48-0.54-2.43-0.54c-0.48,0-0.98,0.07-1.48,0.22c-0.5,0.15-0.96,0.38-1.37,0.68c-0.41,0.31-0.74,0.69-0.99,1.16
				s-0.38,1.01-0.38,1.64c0,0.63,0.12,1.15,0.36,1.56s0.56,0.76,0.96,1.05c0.4,0.29,0.86,0.53,1.37,0.71
				c0.51,0.19,1.05,0.37,1.6,0.56c0.69,0.22,1.38,0.46,2.08,0.72s1.33,0.6,1.88,1.02c0.56,0.42,1.01,0.95,1.37,1.59
				c0.35,0.64,0.53,1.45,0.53,2.44s-0.19,1.84-0.57,2.55c-0.38,0.72-0.87,1.31-1.48,1.77c-0.6,0.46-1.29,0.81-2.06,1.03
				c-0.77,0.22-1.55,0.33-2.33,0.33c-0.6,0-1.19-0.06-1.79-0.18s-1.16-0.3-1.7-0.54c-0.54-0.24-1.04-0.55-1.51-0.92
				c-0.47-0.37-0.87-0.8-1.23-1.28l1.73-1.28c0.43,0.71,1.03,1.3,1.8,1.77c0.77,0.47,1.68,0.71,2.72,0.71c0.5,0,1.01-0.08,1.53-0.24
				c0.52-0.16,0.99-0.4,1.41-0.72c0.42-0.33,0.76-0.72,1.03-1.2c0.27-0.47,0.4-1.03,0.4-1.66c0-0.69-0.13-1.26-0.4-1.71
				c-0.27-0.46-0.63-0.84-1.07-1.14c-0.45-0.31-0.96-0.56-1.53-0.77c-0.58-0.2-1.18-0.41-1.81-0.61c-0.65-0.2-1.29-0.44-1.93-0.7
				s-1.2-0.6-1.7-1.02c-0.5-0.42-0.91-0.93-1.21-1.55c-0.31-0.61-0.46-1.37-0.46-2.26c0-0.95,0.19-1.77,0.57-2.45
				c0.38-0.69,0.88-1.25,1.49-1.7c0.61-0.45,1.29-0.77,2.04-0.98c0.74-0.2,1.48-0.31,2.2-0.31c1.34,0,2.48,0.24,3.43,0.71
				c0.95,0.47,1.66,1.04,2.15,1.69L168.68,428.45z"/>
		</defs>
		<clipPath id="SVGID_6_">
			<use xlink:href="#SVGID_25_"  style="overflow:visible;"/>
		</clipPath>
		<g class="st18">
			<defs>
				<rect id="SVGID_27_" x="-149.32" y="-10.14" width="1395.97" height="785.23"/>
			</defs>
			<clipPath id="SVGID_8_">
				<use xlink:href="#SVGID_27_"  style="overflow:visible;"/>
			</clipPath>
		</g>
	</g>
</g>
</svg>
