<svg id="Layer_1" data-name="Layer 1" xmlns="http://www.w3.org/2000/svg" viewBox="0 0 761.48147 280.12854"><defs><style>.cls-1{fill:#014382;}.cls-2{fill:#fdfefe;}.cls-3{fill:#2fbb9d;}</style></defs><title>wia</title><path class="cls-1" d="M167.52219,315.7886c-2.49061,9.20969-4.85124,17.91915-7.20108,26.63151q-13.66486,50.664-27.2748,101.34277c-.52434,1.96034-1.41405,2.368-3.27169,2.36025-16.74184-.06986-33.48461-.11-50.22559.02671-2.51636.02051-3.46494-.706-4.17136-3.08826Q49.02823,354.2015,22.52056,265.38835q-3.34511-11.23253-6.6593-22.47425c-.24646-.83349-.45506-1.67818-.73746-2.72645,3.66277,0,7.12762.00018,10.59246,0,14.0705-.00083,28.14147.05552,42.211-.05959,2.32121-.019,3.27713.52359,3.94848,2.91351q15.63113,55.646,31.52,111.21946a5.851,5.851,0,0,0,1.20609,2.91c2.03433-6.78255,4.04222-13.42742,6.02048-20.08107q14.00408-47.10127,27.9595-94.217c.58626-1.98464,1.354-2.77055,3.61451-2.75364q25.24536.18885,50.49244-.003c2.42952-.01953,3.32054.74108,3.97959,2.97014q16.80277,56.83129,33.75552,113.61823a1.91647,1.91647,0,0,0,.13988.27619c.92994-.4612.83835-1.42547,1.05821-2.19842Q247.544,298.808,263.38825,242.81158c.59067-2.09449,1.4165-2.70547,3.58755-2.69126,16.74135.10962,33.48378.06593,50.22585.06974.88039.0002,1.76077,0,2.95924,0-2.12008,7.109-4.16835,13.96876-6.21165,20.83q-22.15587,74.39827-44.3091,148.79732c-3.37041,11.32017-6.76459,22.63355-10.054,33.97727-.50281,1.73406-1.20206,2.345-3.08986,2.33543q-25.64684-.1293-51.29445.00646c-1.90964.01037-2.55988-.62939-3.02459-2.35882q-16.862-62.754-33.82494-125.481C168.17023,317.62219,167.91486,316.96744,167.52219,315.7886Z" transform="translate(-15.1238 -166.02172)"/><path class="cls-1" d="M559.91132,446.07966c-8.54692.00359-17.09417-.03385-25.64051.037a2.3602,2.3602,0,0,1-2.753-2.04931c-4.48973-15.332-9.13313-30.61906-13.60218-45.957-.62971-2.161-1.53528-2.85434-3.80584-2.84341q-30.31421.14571-60.62907-.01313c-2.42209-.01471-3.37289.73294-4.02152,2.96423-4.41,15.17-8.97153,30.29585-13.39625,45.46161-.53034,1.81762-1.28281,2.46449-3.25019,2.45438q-25.50653-.1314-51.01391.00277c-2.42978.01389-2.4668-.69367-1.86673-2.69755q17.29966-57.77289,34.48611-115.57962,12.663-42.48928,25.28228-84.99144c.58953-1.99465,1.29915-2.75716,3.5584-2.74839q40.5973.15772,81.19535.01447c2.03395-.00616,2.66033.70577,3.1969,2.51462q17.719,59.72936,35.5614,119.422,12.16523,40.82764,24.34364,81.65123c.588,1.95936.27885,2.41064-1.73748,2.39055C577.18369,446.02669,568.54721,446.07607,559.91132,446.07966Zm-76.032-173.90221a5.35975,5.35975,0,0,0-.65391.96142q-11.82939,39.8185-23.681,79.63024c-.58115,1.94193-.05939,2.17756,1.70011,2.17132q22.43487-.07957,44.87.00046c1.88343.00691,2.52306-.32073,1.9029-2.375C499.96443,325.88967,491.979,299.19308,483.87931,272.17745Z" transform="translate(-15.1238 -166.02172)"/><path class="cls-1" d="M588.08346,281.25954q.004-32.857-.00026-65.7141a49.31429,49.31429,0,0,1,44.56016-49.13214c2.31169-.22871,4.61183-.33017,6.92639-.33008q66.91616.00276,133.83226-.06147c2.57247-.005,3.20819.60475,3.20323,3.1883q-.12925,67.71734-.06973,135.43506c-.01383,23.37153-14.88372,42.60969-37.44682,48.51178a44.70115,44.70115,0,0,1-11.34221,1.4715q-68.38546-.00227-136.7708.05562c-2.33374.0039-2.96051-.5343-2.95112-2.90233C588.11732,328.2746,588.08072,304.767,588.08346,281.25954Zm82.32379,51.54076q28.05073,0,56.10139-.004a27.91758,27.91758,0,0,0,28.31284-28.21189c.04579-37.93517-.016-75.8705.07462-113.80551.006-2.53958-.80974-2.922-3.08732-2.91786q-57.16979.10377-114.33991.06166a21.04851,21.04851,0,0,0-3.71834.26374c-14.60428,2.63886-23.98606,13.88525-23.9993,28.90283-.03327,37.66806.01,75.33621-.064,113.00416-.00431,2.21024.51211,2.776,2.74878,2.76465C631.75939,332.76011,651.08345,332.80171,670.40726,332.80029Z" transform="translate(-15.1238 -166.02172)"/><path class="cls-1" d="M290.78418,445.89036c2.64752-8.90855,5.26744-17.74466,7.89943-26.57712q17.07-57.28366,34.14487-114.56588,9.27732-31.13582,18.49593-62.289c.51987-1.76742,1.22812-2.32818,3.09257-2.31935,16.91431.08022,33.82959.10185,50.74341-.02093,2.6317-.0191,2.85615.61544,2.15733,2.9474Q390.773,298.27661,374.368,353.5296q-13.45788,45.17082-26.91269,90.34253c-.36221,1.21745-.51713,2.25634-2.29864,2.24936-17.7156-.06966-35.4316-.04334-53.14746-.05222A9.53382,9.53382,0,0,1,290.78418,445.89036Z" transform="translate(-15.1238 -166.02172)"/><path class="cls-2" d="M670.40726,332.801c-19.3238.0007-38.64787-.0409-57.97122.05709-2.23668.01135-2.75309-.55441-2.74878-2.76465.074-37.66795.03072-75.3361.064-113.00416.01324-15.01758,9.395-26.264,23.9993-28.90283a21.04851,21.04851,0,0,1,3.71834-.26374q57.17-.0208,114.33991-.06166c2.27757-.00413,3.09332.37827,3.08732,2.91786-.0906,37.935-.02883,75.87034-.07462,113.80551a27.91758,27.91758,0,0,1-28.31284,28.21189Q698.45792,332.82183,670.40726,332.801Zm9.29085-20.30112q22.16776,0,44.33558-.00038c5.90264-.00046,9.57362-3.5061,9.57955-9.37019.03059-30.00214-.00183-60.00436.05349-90.00643.00339-1.82726-.60571-2.22146-2.29806-2.193-5.607.09435-11.21965.14058-16.82361-.02042-2.14784-.06171-2.85576.38469-2.8084,2.694.16255,7.9201.06458,15.84557.06386,23.769-.00157,17.09323-.0347,34.18659.03614,51.27951.00783,1.88816-.50363,2.402-2.37842,2.34256-4.53578-.14383-9.08121-.12506-13.61848-.00753-1.74251.04514-2.27771-.43431-2.2432-2.217.1118-5.78459-.035-11.5742.08127-17.35861.036-1.79037-.51126-2.26435-2.243-2.23506-5.69612.09637-11.39642.11236-17.09176-.00515-1.916-.03954-2.4034.611-2.36942,2.436.1041,5.60679-.02485,11.21787.07612,16.8248.03438,1.91125-.42014,2.66316-2.51638,2.57506-4.26586-.17925-8.55338-.22205-12.81422.00763-2.45663.13243-2.94258-.702-2.92438-2.98064.09341-11.66143-.00848-23.3243.03764-34.98636.0062-1.5628-.27-2.16954-2.01947-2.13381-5.87328.11993-11.75237.12944-17.625-.00525-1.8791-.04311-2.13205.6517-2.12748,2.28124q.07906,28.44381-.01037,56.8877c-.00894,2.03747.53278,2.47827,2.51161,2.46639C649.60669,312.45368,664.65256,312.49451,679.69811,312.49989Zm3.02581-61.44322v-.01624c3.01987,0,6.04125-.05578,9.0589.02585,1.31578.0356,1.90532-.236,1.88686-1.72684-.07449-6.039-.06458-12.07972-.00613-18.119.01415-1.46218-.39378-2.03714-1.95463-2.01541q-8.79172.12245-17.5858.0099c-1.79423-.02528-2.27607.65863-2.25031,2.3515.088,5.77206.12863,11.54752.01716,17.3184-.03575,1.85045.62117,2.27219,2.30836,2.20352C677.03595,250.97282,679.8816,251.05667,682.72392,251.05667Z" transform="translate(-15.1238 -166.02172)"/><path class="cls-1" d="M679.69811,312.4972c-15.04555-.00269-30.09142-.04352-45.13639.04672-1.97883.01187-2.52055-.42892-2.51161-2.46639q.125-28.44342.01037-56.8877c-.00457-1.62954.24839-2.32434,2.12748-2.28124,5.87263.13469,11.75172.12518,17.625.00525,1.74942-.03573,2.02566.571,2.01947,2.13381-.04612,11.66205.05577,23.32493-.03764,34.98636-.0182,2.27863.46775,3.11307,2.92438,2.98064,4.26084-.22968,8.54836-.18688,12.81422-.00763,2.09624.08809,2.55075-.66381,2.51638-2.57506-.101-5.60692.028-11.218-.07612-16.8248-.034-1.825.4534-2.47551,2.36942-2.436,5.69534.11751,11.39564.10153,17.09176.00515,1.73174-.02929,2.279.44469,2.243,2.23506-.1163,5.78441.03053,11.574-.08127,17.35861-.03451,1.78269.50069,2.26213,2.2432,2.217,4.53728-.11752,9.08271-.13629,13.61848.00753,1.87479.05942,2.38625-.4544,2.37842-2.34256-.07084-17.09292-.0377-34.18628-.03614-51.27951.00072-7.92342.09869-15.8489-.06386-23.769-.04736-2.3093.66057-2.7557,2.8084-2.694,5.604.161,11.21659.11478,16.82361.02042,1.69235-.02847,2.30145.36573,2.29806,2.193-.05531,30.00207-.0229,60.00428-.05349,90.00643-.00594,5.86409-3.67692,9.36973-9.57955,9.37019Q701.86593,312.50123,679.69811,312.4972Z" transform="translate(-15.1238 -166.02172)"/><path class="cls-3" d="M682.72392,251.05667c-2.84232,0-5.688-.08385-8.52559.03163-1.68719.06867-2.34411-.35306-2.30836-2.20352.11148-5.77088.07084-11.54634-.01716-17.3184-.02577-1.69288.45608-2.37678,2.25031-2.3515q8.79153.12387,17.5858-.0099c1.56085-.02172,1.96878.55323,1.95463,2.01541-.05844,6.03933-.06836,12.08008.00613,18.119.01846,1.49084-.57107,1.76243-1.88686,1.72684-3.01765-.08163-6.039-.02585-9.0589-.02585Z" transform="translate(-15.1238 -166.02172)"/></svg>