<svg xmlns="http://www.w3.org/2000/svg" role="img" viewBox="-4.09 -4.09 290.94 48.94"><title>Wilderness Labs logo</title><defs><clipPath id="clip-path"><path d="M54.27 27.33l-1 2.47-4.09-6.7-12.28-2.52-3.54 3a1.53 1.53 0 0 1-.82.4 2 2 0 0 1-.92-.43l-2.87-2-4.54 8.25L23 27.47l13.66-25s.35-.91 1.16-.91 1.19.92 1.19.92l15.26 24.85z" class="cls-1"/></clipPath><clipPath id="clip-path-2"><path d="M25.68 36a1.12 1.12 0 0 0 .92-.53 1.08 1.08 0 0 0 .06-1L14.1 9.64a1 1 0 0 0-1-.53 1 1 0 0 0-1 .53L1.65 34.38a1.42 1.42 0 0 0 .09 1.13 1.18 1.18 0 0 0 .88.51h10.19v2.39a1.08 1.08 0 0 0 1.12 1.05A1 1 0 0 0 15 38.39V36zM13.23 12.77l10.66 21.11H4.24l9-21.11z" class="cls-1"/></clipPath><clipPath id="clip-path-3"><path d="M75.24 36a1.12 1.12 0 0 0 .92-.53 1 1 0 0 0 .06-1L63.66 9.64a1 1 0 0 0-1-.53 1 1 0 0 0-1 .53L51.21 34.38a1.42 1.42 0 0 0 .09 1.13 1.18 1.18 0 0 0 .88.51h10.19v2.39a1.08 1.08 0 0 0 1.12 1.05 1 1 0 0 0 1.09-1.07V36zM62.79 12.77l10.66 21.11H53.8l9-21.11z" class="cls-1"/></clipPath><style>.cls-1,.cls-2,.cls-4{fill:#28aae1}.cls-1{clip-rule:evenodd}.cls-2{fill-rule:evenodd}</style></defs><g id="Layer_2" data-name="Layer 2"><g id="BrandMark"><path d="M54.27 27.33l-1 2.47-4.09-6.7-12.28-2.52-3.54 3a1.53 1.53 0 0 1-.82.4 2 2 0 0 1-.92-.43l-2.87-2-4.54 8.25L23 27.47l13.66-25s.35-.91 1.16-.91 1.19.92 1.19.92l15.26 24.85z" class="cls-2"/><g clip-path="url(#clip-path)"><path d="M21.47 0h34.37v31.32H21.47z" class="cls-4"/></g><path d="M25.68 36a1.12 1.12 0 0 0 .92-.53 1.08 1.08 0 0 0 .06-1L14.1 9.64a1 1 0 0 0-1-.53 1 1 0 0 0-1 .53L1.65 34.38a1.42 1.42 0 0 0 .09 1.13 1.18 1.18 0 0 0 .88.51h10.19v2.39a1.08 1.08 0 0 0 1.12 1.05A1 1 0 0 0 15 38.39V36zM13.23 12.77l10.66 21.11H4.24l9-21.11z" class="cls-2"/><g clip-path="url(#clip-path-2)"><path d="M0 7.58h28.32v33.41H0z" class="cls-4"/></g><path d="M75.24 36a1.12 1.12 0 0 0 .92-.53 1 1 0 0 0 .06-1L63.66 9.64a1 1 0 0 0-1-.53 1 1 0 0 0-1 .53L51.21 34.38a1.42 1.42 0 0 0 .09 1.13 1.18 1.18 0 0 0 .88.51h10.19v2.39a1.08 1.08 0 0 0 1.12 1.05 1 1 0 0 0 1.09-1.07V36zM62.79 12.77l10.66 21.11H53.8l9-21.11z" class="cls-2"/><g clip-path="url(#clip-path-3)"><path d="M49.56 7.58h28.32v33.41H49.56z" class="cls-4"/></g><path d="M80.38 13.3h3l1.52 10.2.21 1.5c.12.78.21 1.54.27 2.24l.15 1.87a4.64 4.64 0 0 1 .09.7l.06-.7c.24-2.45.51-4.55.81-6.33l1.61-9.5h2.33L92 22.54c.45 2.71.78 5 .93 7.14.21-2.24.48-4.31.72-6.33l.23-1.45 1.29-8.6H98l-4 22h-2.31l-1.58-9.51c0-.08-.12-.61-.27-1.63l-.3-2.21c0-.32-.12-1-.24-2l-.06-.95c0 .47-.09.76-.12 1-.12 1.2-.12 1.9-.18 2l-.3 2.13c-.15 1-.21 1.52-.24 1.63l-1.67 9.51H84.3zm21.83 0h3.05v22h-3.05zm8.1 0h3v19.47h5v2.51h-8zm12.2 0h3.74a8.59 8.59 0 0 1 2.87.38 4.36 4.36 0 0 1 1.95 1.25 7.79 7.79 0 0 1 1.79 3.56 24.63 24.63 0 0 1 .54 6.09 24.46 24.46 0 0 1-.6 5.92 6.45 6.45 0 0 1-1.91 3.35c-1.11 1-3.08 1.43-5.92 1.43h-2.46zm3.06 19.38c1.82 0 3.08-.55 3.7-1.63s1-3.21 1-6.35c0-3.41-.3-5.75-.93-7a3.43 3.43 0 0 0-3.38-1.9h-.35zM138.3 13.3h8.07v2.5h-5v7h4.46v2.51h-4.46v7.49h5v2.51h-8.07zm12.7 0h4a5.11 5.11 0 0 1 3.68 1.16 6 6 0 0 1 1.54 4.54c0 3.15-1.13 5.13-3.14 5.57l4.16 10.7h-3.08L154 24.52v10.76h-3zm3 9.7c2.37 0 3.23-1 3.23-3.49 0-2.74-.83-3.79-2.72-3.79H154zm11.64-9.7h2.84l3 8.77a83.57 83.57 0 0 1 2.33 7.93 56.38 56.38 0 0 1-.71-8.51V13.3h3v22h-2.88l-3.38-9.88a54 54 0 0 1-1.64-5.89c0-.27-.15-.64-.27-1.14a6.37 6.37 0 0 1 .12 1.08l.15 2.24.18 2.71v1.29l.15 9.59h-3zm15.86 0h8.08v2.5h-5v7H189v2.51h-4.45v7.49h5v2.51h-8.05zm20.37 3.35a4.59 4.59 0 0 0-2.52-1 2.49 2.49 0 0 0-1.94.81 2.91 2.91 0 0 0-.78 2.1 3.62 3.62 0 0 0 .54 2 20.29 20.29 0 0 0 2.57 2.79 12.77 12.77 0 0 1 2.52 3.18 7 7 0 0 1 .68 3.18 6.08 6.08 0 0 1-1.49 4.2 4.86 4.86 0 0 1-3.77 1.6 5.52 5.52 0 0 1-3.32-1v-2.93a5.17 5.17 0 0 0 3 1.16c1.65 0 2.63-1.16 2.63-3a4.36 4.36 0 0 0-.54-2.16 12.82 12.82 0 0 0-2-2.36 16.14 16.14 0 0 1-3-3.44 6.65 6.65 0 0 1-.69-3.18 5.78 5.78 0 0 1 1.38-4.08 4.73 4.73 0 0 1 3.62-1.52 7 7 0 0 1 3.11.75zm13.01 0a4.59 4.59 0 0 0-2.52-1 2.49 2.49 0 0 0-1.94.81 2.91 2.91 0 0 0-.78 2.1 3.62 3.62 0 0 0 .54 2 20.29 20.29 0 0 0 2.57 2.79 12.77 12.77 0 0 1 2.52 3.18 7 7 0 0 1 .68 3.18 6.08 6.08 0 0 1-1.49 4.2 4.86 4.86 0 0 1-3.77 1.6 5.52 5.52 0 0 1-3.32-1v-2.93a5.17 5.17 0 0 0 3 1.16c1.65 0 2.63-1.16 2.63-3a4.36 4.36 0 0 0-.54-2.16 12.82 12.82 0 0 0-2-2.36 16.14 16.14 0 0 1-3-3.44 6.65 6.65 0 0 1-.69-3.18 5.78 5.78 0 0 1 1.38-4.08 4.73 4.73 0 0 1 3.62-1.52 7 7 0 0 1 3.11.75zm15.67-3.35h3v19.47h5v2.51h-8zm17.35 0h2.36l4.81 22h-3l-.85-4.3h-4.46l-.87 4.29H243zm2.9 15.39l-.69-3.5q-.68-3.59-1.08-7.61c-.27 2.6-.72 5.28-1.28 8.31l-.57 2.8zm8.01-15.39h4.13c3.2 0 4.82 1.95 4.82 5.86 0 2.94-.72 4.22-2.85 4.95a4.88 4.88 0 0 1 2.52 1.81 6.41 6.41 0 0 1 .69 3.3c0 4.05-1.77 6.06-5.33 6.06h-4zm2.87 9.7a3.18 3.18 0 0 0 2.46-.79 4.84 4.84 0 0 0 .68-3c0-2.36-.86-3.55-2.63-3.55h-.51zm0 9.76c2.49 0 3.29-.9 3.29-3.61a4.42 4.42 0 0 0-.74-2.95 3.25 3.25 0 0 0-2.55-.84zm18.58-16.11a4.59 4.59 0 0 0-2.51-1 2.5 2.5 0 0 0-1.95.81 2.91 2.91 0 0 0-.78 2.1 3.62 3.62 0 0 0 .54 2 20.29 20.29 0 0 0 2.57 2.79 12.77 12.77 0 0 1 2.52 3.18 6.88 6.88 0 0 1 .69 3.18 6.09 6.09 0 0 1-1.5 4.2 4.86 4.86 0 0 1-3.77 1.6 5.52 5.52 0 0 1-3.32-1v-2.93a5.17 5.17 0 0 0 3 1.16c1.65 0 2.63-1.16 2.63-3a4.46 4.46 0 0 0-.53-2.16 13.39 13.39 0 0 0-2-2.36 16.44 16.44 0 0 1-3.05-3.44 6.65 6.65 0 0 1-.69-3.18 5.78 5.78 0 0 1 1.38-4.08 4.74 4.74 0 0 1 3.66-1.52 7 7 0 0 1 3.11.75z" class="cls-4"/></g></g></svg>