<svg id="Layer_1" data-name="Layer 1" xmlns="http://www.w3.org/2000/svg" viewBox="0 0 246 45"><defs><style>.cls-1{fill:#d92231;}</style></defs><title>wind</title><path class="cls-1" d="M90.2393,4.5557s-8.8965,22.9765-9.75,25.1035c-.8223-1.8321-9.7969-25.1035-9.7969-25.1035H64.6592S55.6514,27.5029,54.833,29.4326c-.6016-2.0039-8.7324-24.8769-8.7324-24.8769H.001V7.7383H33.1279c5.5625,0,5.7266.6416,6.7891,4.1982L50.5947,41.4443h6.2051s9.166-23.5429,9.8574-25.1718c.7246,1.6152,10.4844,25.1718,10.4844,25.1718h6.2676L96.6279,4.5557Z"/><path class="cls-1" d="M101.8428,4.5557l-.0196,3.1709h1.7071c5.7441,0,5.7011.7353,5.6777,4.0527v29.665h8.9219V4.5557Z"/><path class="cls-1" d="M161.8975,4.5557s-.0469,22.2285-.0469,24.2773c-1.3516-1.5918-20.7285-24.2773-20.7285-24.2773H124.1943V7.7646h1.0176c6.5781,0,6.5977,1.3184,6.5977,4.4668V41.4443h8.0019s-.0254-24.3222-.0254-26.3808c1.3614,1.6035,22.4766,26.3808,22.4766,26.3808h7.4805V4.5557Z"/><path class="cls-1" d="M192.8721,4.5557h-17.291l-.0157,3.2773h1.5215c6.1445,0,6.1035.9453,6.1035,3.7363v29.875h9.3711c14.88089,0,29.40239-1.3769,29.40239-18.3808,0-17.0469-14.3731-18.5078-29.09179-18.5078m2.1269,32.7187c-2.8828,0-2.8828-.2031-2.8828-2.7109V11.5693c0-2.6621,0-2.7656,4.0274-2.7656,11.1074,0,16.05849,4.3994,16.05849,14.2598C212.20209,32.8916,206.89749,37.2744,194.999,37.2744Z"/><path class="cls-1" d="M224.49414,5.78076H222.1543v-1.188h5.86718v1.188h-2.33984v6.228h-1.1875Zm5.02148-1.188h1.89063l2.21387,5.63428L235.834,4.59277h1.83594v7.416h-1.1875v-6.228h-.03613l-2.44824,6.228h-.81055l-2.44727-6.228h-.03613v6.228h-1.18848Z"/></svg>