<svg id="Layer_1" data-name="Layer 1" xmlns="http://www.w3.org/2000/svg" viewBox="0 0 500.36926 214.95721"><defs><style>.cls-1{fill:#8fd305;}.cls-2{fill:#0d7094;}</style></defs><title>wiwynn</title><path class="cls-1" d="M297.01507,47.70969c11.6762,1.729,21.455,6.71169,28.39687,16.56139q-2.7772,4.4944-5.556,8.98624c-26.57965,46.20756-54.46257,91.73323-79.15484,138.92826-11.28886,21.57665-24.69185,30.17344-49.3101,23.07555q51.31377-91.29464,102.74184-182.79587Q295.5727,50.08651,297.01507,47.70969Z" transform="translate(-122.85563 -43.64903)"/><path class="cls-2" d="M183.10724,170.64492c-12.16385,1.15-18.53017-5.32108-20.23015-18.15788-2.48108-18.735-6.102-37.33049-8.15265-56.10392-.61619-5.64117-8.73824-14.74149,3.98424-17.37071,13.93074-2.87891,24.515,2.38159,26.5374,13.45686,3.39325,18.58247,5.94568,37.31862,8.8364,55.99251.44483,2.87343.70812,5.77753,1.2239,8.637C197.80208,170.93446,197.82249,170.93078,183.10724,170.64492Z" transform="translate(-122.85563 -43.64903)"/><path class="cls-2" d="M208.01819,185.72722c-3.66394,18.56585-14.54165,23.10378-30.11013,19.97507-3.81076-.76584-7.67-1.28985-11.48207-2.04981-37.11535-7.39906-52.83136-37.31118-38.07427-72.218,4.20131-9.93792,10.13727-18.71414,17.28461-27.65215,3.70757,4.88729,3.46877,9.33808,1.38312,14.53844-18.036,44.97106,1.47684,71.33533,50.30586,68.16988C200.694,186.27226,204.06,186.01093,208.01819,185.72722Z" transform="translate(-122.85563 -43.64903)"/><path class="cls-2" d="M363.39317,197.65959c-8.91047,7.78572-12.31841,19.086-18.209,28.785-3.90937,6.4369-7.3158,12.64332-16.52575,10.59247-9.60409-2.13857-4.77312-10.10441-6.42171-15.44485-.52278-1.69367-.83543-3.4522-1.57651-6.58622-6.58582,5.0329-8.88689,11.40459-11.73851,17.03571-3.32333,6.56262-8.75405,4.90433-13.82389,4.8816-5.85432-.02621-4.834-4.98792-5.47323-8.53109-1.63207-9.04756-3.1119-18.12256-4.65529-27.18613-.68508-4.02322-1.34159-8.0652,4.70462-8.15812,4.79979-.07376,9.92849-1.0899,9.89548,6.706-.02168,5.11823-1.09762,10.70552,2.70262,15.34242,9.87045-5.6734,7.51443-26.24909,24.72593-21.6585,11.08483,2.95654,2.60031,15.75527,9.02747,22.74488,2.68435-5.78833,4.7844-12.20324,8.37867-17.62823,5.48949-8.28551,12.23344-8.73911,18.81261-.69322Z" transform="translate(-122.85563 -43.64903)"/><path class="cls-2" d="M423.80621,214.16709c-3.36316,5.96769-6.78325,11.18094-9.33333,16.78975-2.83949,6.24527-7.86476,6.15571-13.38816,6.17185-6.83579.02005-5.90825-5.35652-6.65291-9.26827-1.72733-9.07379-3.03584-18.22691-4.542-27.3433-.7525-4.55486.1116-7.72575,5.72082-7.52206,4.37206.1588,9.081-.74182,8.99655,6.17513-.06307,5.16128.5293,10.33054.95381,17.62816,6.36787-4.76982,8.07067-10.21729,10.49692-15.037,3.1164-6.19041,7.2554-9.62682,14.87983-8.91548,9.02961.84243,5.08576,7.81425,6.57511,12.1513,1.04334,3.03823,1.42811,6.30264,2.33486,10.528,8.854-8.36487,6.71727-29.44808,27.9524-20.80044-6.97942,12.28806-14.17407,24.28089-20.65391,36.64826-3.23122,6.16719-8.18,6.02251-13.57314,5.61354-7.58633-.57531-5.393-6.63384-6.00407-11.07676C427.06344,222.234,428.09678,218.122,423.80621,214.16709Z" transform="translate(-122.85563 -43.64903)"/><path class="cls-2" d="M214.63949,160.09123c-4.1462-26.59142-7.796-50.36608-11.60244-74.11564-.80284-5.009.75846-7.29666,5.99249-7.11162,8.62508.30489,19.14553-2.11355,23.68607,7.14986,5.483,11.186,9.13954,24.00128,3.37084,36.231C230.3533,134.39912,222.8796,145.73241,214.63949,160.09123Z" transform="translate(-122.85563 -43.64903)"/><path class="cls-2" d="M319.85595,73.25731q2.7784-4.49248,5.556-8.98624c10.16831,9.39121,13.41358,21.59659,11.03193,34.42184-7.64379,41.16126-36.0982,65.14525-70.41852,83.91264,6.889-14.83647,15.08428-28.12411,28.32356-38.60926,14.5619-11.53261,25.058-26.80745,29.15558-45.746C325.44768,89.26905,324.9877,81.02,319.85595,73.25731Z" transform="translate(-122.85563 -43.64903)"/><path class="cls-1" d="M524.47365,192.68474q-15.74933,26.82621-31.51285,53.644c-1.95834,3.3228-3.53445,7.16762-6.29539,9.64977-3.94559,3.54712-9.70593,3.204-13.62555.74773-3.98051-2.49442.14872-6.3544,1.81368-8.62657,11.47375-15.65825-.205-30.81151-.64755-46.15944-.1187-4.11674-2.95854-9.30634,4.8134-8.86512,4.46908.25372,10.45339-1.873,10.4562,6.15689a35.82158,35.82158,0,0,0,.56627,5.80457c.46926,2.83327,1.10186,5.63946,2.41917,12.23212,7.84951-14.91562,13.25117-30.16774,32.02484-24.31031Z" transform="translate(-122.85563 -43.64903)"/><path class="cls-2" d="M524.47365,192.68474l.01222.27366c10.61-1.26737,20.868,3.59978,32.12008-.51277,8.53823-3.12069,14.98608,3.12207,13.63394,13.19573-1.15458,8.6013-3.37307,17.05982-5.12194,25.58129-1.60961,7.843-7.88453,6.032-12.81684,5.64133-7.44431-.58971-4.27415-5.79457-3.4902-9.78791.74532-3.79642,1.56126-7.58156,2.19136-11.39725.578-3.4997,4.03828-8.23312-1.15775-10.05144-6.11018-2.13824-8.43443,3.47243-10.00911,7.93359a62.97076,62.97076,0,0,0-3.58682,15.50161c-.72663,8.70249-6.5653,8.3363-12.53654,7.9484-8.62557-.5603-4.84217-6.36029-4.26688-10.6766C520.94353,215.09193,526.54721,204.46364,524.47365,192.68474Z" transform="translate(-122.85563 -43.64903)"/><path class="cls-2" d="M571.65639,228.89481c1.96053-9.50533,3.81163-19.03553,5.96116-28.498.51444-2.26474,1.95352-6.12457,3.08424-6.16748,12.54385-.47584,25.20453-1.23494,37.62415.07224,4.80421.50563,5.56626,7.24057,4.44312,12.44157-1.6395,7.59244-3.76614,15.13208-4.686,22.81389-1.07621,8.98688-7.38619,7.99977-12.98982,7.327-8.67142-1.04122-3.85914-6.87893-3.22471-11.07995.508-3.36357,1.2578-6.69131,1.73848-10.05809.502-3.516,4.061-8.28743-1.14495-10.1142-6.127-2.14995-8.5575,3.48376-10.03936,7.97577-1.96887,5.96818-2.8,12.3022-4.34588,18.422-1.73286,6.86021-7.464,4.88733-12.01661,4.94536C570.02515,237.05188,570.56529,232.93423,571.65639,228.89481Z" transform="translate(-122.85563 -43.64903)"/><path class="cls-2" d="M297.01507,47.70969q-1.44176,2.37731-2.8822,4.75557c-36.40726-7.83813-69.0726,2.603-100.34734,20.30117-3.14163,1.77781-7.16849,8.03218-10.535,1.67593-2.138-4.03669,3.84814-5.57327,6.75978-7.10391C223.60641,49.67695,258.135,36.70626,297.01507,47.70969Z" transform="translate(-122.85563 -43.64903)"/><path class="cls-1" d="M363.21671,197.8613c5.7425-4.791,12.84735-7.73572,19.06468-3.44774,5.038,3.47459.55807,9.7655-.4325,14.76486-.847,4.27442-2.422,8.50827-2.57065,12.79835-.4916,14.18272-7.78764,17.32489-20.06421,13.26429-.61088-12.80924,7.61841-24.54951,4.18369-37.58916C363.39317,197.65959,363.21671,197.8613,363.21671,197.8613Z" transform="translate(-122.85563 -43.64903)"/><path class="cls-2" d="M388.93515,177.67363c-.92013,5.83972-4.54255,9.65275-10.29615,10.22833-4.76723.47686-8.8821-2.4315-8.64029-7.49527.27513-5.763,3.86984-9.72754,10.15738-10.15917C385.32986,169.89233,388.31838,172.32064,388.93515,177.67363Z" transform="translate(-122.85563 -43.64903)"/></svg>