<svg id="Layer_1" data-name="Layer 1" xmlns="http://www.w3.org/2000/svg" viewBox="0 0 763.08136 279.12384"><defs><style>.cls-1{fill:#4e9fb8;}.cls-2{fill:#0d4663;}</style></defs><title>xage_security</title><path class="cls-1" d="M132.50923,149.9464q-.10509-.46241-.18284-.9302h2.38426q50.02085,36.51326,100.04266,73.0252c5.45044,3.978,10.66244,8.36343,16.44535,11.781,5.20722,3.07732,6.31407,7.0575,6.26175,12.72776-.26391,28.59894-.10976,57.20167-.14438,85.803-.0026,2.15049.48076,4.376-.57549,6.44317-6.69481-3.1-12.06322-8.1477-18.00111-12.34261-17.259-12.1929-34.37674-24.58587-51.54989-36.90035-17.22138-13.93815-35.46572-26.48223-53.52592-39.27724q.07053-48.01753.12839-96.03506C133.79345,152.70872,134.13755,151.017,132.50923,149.9464Z" transform="translate(-10.61075 -149.0162)"/><path class="cls-2" d="M773.69211,253.9236q-34.83912.11056-69.67817.22151c-6.638.02136-7.18472.80656-5.00587,7.169,3.58236,10.46031,15.63411,18.06625,28.51354,17.5092,10.45667-.45226,20.48005-2.69213,28.63454-9.90347,1.96173-1.73492,3.18646-1.63757,4.7961.358a63.77308,63.77308,0,0,0,7.53107,8.42545c4.14451,3.58537,3.73916,6.02569-.32372,9.59258-20.92222,18.368-59.74633,18.86681-79.64436.02218-16.91327-16.01793-20.41646-36.374-14.65248-58.0648,5.34872-20.12829,19.107-32.42081,39.64253-36.6796,27.38325-5.67892,50.95219,9.27211,57.93027,36.45065.60181,2.344.08258,5.15121,2.25656,7.01734ZM722.53,235.28487c6.9278,0,13.85851-.11837,20.78216.05051,3.40256.083,4.52258-.59588,3.52858-4.36149-2.775-10.51306-11.66539-17.43321-23.226-17.51247-11.92137-.08173-22.284,7.1081-25.27142,16.98361-1.30542,4.31564.11809,5.03586,3.99921,4.90472C709.06477,235.12261,715.80012,235.28671,722.53,235.28487Z" transform="translate(-10.61075 -149.0162)"/><path class="cls-2" d="M187.18954,289.55334c17.17315,12.31448,34.29086,24.70746,51.54989,36.90035,5.93789,4.1949,11.30629,9.24259,18.00111,12.34261-.172,2.15986-2.09616,2.762-3.47434,3.76573Q195.748,384.45461,138.2545,426.38048c-3.35674,2.4601-5.41262,2.26044-8.63835-.099q-57.19364-41.8331-114.6264-83.33873c-2.97647-2.15375-4.40454-4.29471-4.37865-8.21814q.3008-45.58976.03386-91.18245c-.0153-3.50042.87271-5.75416,3.81572-7.882q59.10807-42.73611,118.04629-85.712c1.63057,1.06886,1.28648,2.76055,1.285,4.29287q-.04529,48.01755-.12963,96.0359c-17.62522,12.81725-35.2492,25.63365-53.1539,38.65421,1.3481,1.11578,2.338,2.02864,3.41925,2.81591,15.3877,11.20326,30.87688,22.27048,46.11286,33.676,3.209,2.40227,5.12936,2.02276,8.09687-.171C154.39838,313.23109,170.82188,301.43,187.18954,289.55334Z" transform="translate(-10.61075 -149.0162)"/><path class="cls-2" d="M622.39883,288.36379c-22.9203,17.04593-54.31833,8.66845-66.25116-9.98035-17.38462-27.16893-9.37816-74.69937,35.07676-83.86913,18.23957-3.76228,36.2889-.77584,54.04482,4.22991,2.71227.76464,3.25937,2.08459,3.25267,4.59856-.08833,33.15841.31731,66.32453-.28988,99.47244-.29985,16.36943-8.54093,29.11831-23.75368,35.56781-20.38906,8.644-40.98066,7.01195-61.1705-1.71314-4.818-2.08208-6.29884-4.456-2.66967-9.12466,2.9024-3.7337,4.2235-9.22931,7.79272-11.77419,4.254-3.03324,8.02927,2.94107,12.50841,3.73235,7.62551,1.3472,15.16815,3.11488,22.96367,1.64152,11.7797-2.22631,18.26605-9.92207,18.48638-21.91548C622.45078,295.888,622.39883,292.54439,622.39883,288.36379Zm-.03755-49.33931.04839,0c0-5.75068-.2332-11.51431.08506-17.24733.19937-3.59027-1.23484-4.743-4.51975-5.39523a59.8471,59.8471,0,0,0-16.58093-.55423c-17.70095,1.42781-28.80051,16.75971-26.84955,36.69649,1.62092,16.56372,12.15031,23.98975,30.89936,21.79215,10.46781-1.22694,16.49794-7.5534,16.88009-18.04164C622.53322,250.53178,622.36128,244.775,622.36128,239.02449Z" transform="translate(-10.61075 -149.0162)"/><path class="cls-2" d="M499.30959,288.86366c-12.81419,10.88451-26.89309,14.44094-42.53765,10.28909-13.272-3.52218-22.41682-13.755-23.89262-25.955-1.90334-15.73448,4.2128-28.74437,16.83508-35.90855,9.10359-5.167,19.05043-6.40945,29.27088-6.30939,5.555.05439,11.12666.06292,16.656.5164,3.92808.32215,4.25293-1.47158,3.68215-4.53224-1.42388-7.6353-8.52645-12.86547-18.71281-13.57615-10.1681-.70941-19.75178,1.22643-28.38347,6.82611-2.68942,1.74471-4.4866,1.65514-6.085-1.34029a73.354,73.354,0,0,0-4.23983-6.46006c-5.6354-8.30725-5.81647-8.6735,3.01983-12.9014,18.22978-8.7224,37.24241-10.97106,56.48016-3.9253,14.8497,5.43865,22.91841,17.8106,22.98229,33.48293.08648,21.2346-.06319,42.47051.11031,63.704.031,3.79738-.83,5.4436-4.89625,5.08808-3.7421-.32719-7.53529-.06929-11.306-.06942C499.9798,297.79218,499.9798,297.7921,499.30959,288.86366Zm-15.1405-38.35651c-7.147-.1064-12.51591.10326-17.50376,2.24014-9.67314,4.14412-12.65033,17.47813-4.9326,23.41626,7.58633,5.837,16.31178,5.35283,24.73916,1.73719,7.79053-3.34241,12.91526-8.95116,13.05314-18.034.12249-8.073.15782-8.0711-7.67794-8.71719C488.69615,250.88979,485.54582,250.62246,484.16909,250.50715Z" transform="translate(-10.61075 -149.0162)"/><path class="cls-2" d="M413.025,195.24615c-7.55726,10.10787-14.39549,19.27026-21.25234,28.41871-3.81054,5.08407-7.45321,10.31326-11.55094,15.156-2.6526,3.13483-2.67189,5.29337-.11224,8.66866,11.15395,14.70816,21.95933,29.68072,32.87637,44.5682,1.12955,1.54036,2.16,3.15339,3.90942,5.72005-10.91631,0-20.73563-.0432-30.55407.02948-2.5507.01889-3.2578-1.96261-4.35425-3.5163-6.85005-9.70647-13.657-19.44343-20.96821-29.869-7.0571,9.96141-13.88412,19.30205-20.34981,28.88646-2.23957,3.31984-4.617,4.77643-8.70944,4.58408-7.4766-.35143-14.98151-.1-23.69727-.1,1.90472-2.65886,3.19261-4.53162,4.55587-6.34781,10.48805-13.97271,20.90482-28.00056,31.56024-41.84463,2.17427-2.82492,2.29895-4.60109.0859-7.534-10.162-13.46748-20.03038-27.15662-29.99308-40.77429-1.25245-1.71194-2.43939-3.47178-4.23588-6.03619,10.84026,0,20.696.03781,30.55092-.02629,2.49944-.01626,3.32489,1.87629,4.41759,3.44529,5.89385,8.46318,11.73586,16.96245,17.94423,25.95389,6.14826-8.738,12.19037-17.05583,17.90137-25.59508,1.871-2.79764,3.82989-3.97806,7.23336-3.86788C396.132,195.4196,403.995,195.24615,413.025,195.24615Z" transform="translate(-10.61075 -149.0162)"/><path class="cls-1" d="M594.35151,409.22166c-3.80475,1.56609-5.45383-.03926-6.85947-2.5479-2.224-3.9691-4.70318-7.79665-6.88294-11.78861-1.21472-2.22458-2.8089-3.12326-5.2792-2.7081-3.12152.52461-1.962,2.98187-2.05207,4.70974-.17514,3.35887-.05981,6.73272-.07109,10.10034-.00513,1.52985-.39739,2.76517-2.25587,2.80395-1.85583.03871-2.333-1.13758-2.33333-2.69824q-.004-16.64009-.00462-33.28018c-.00193-1.98951.97243-2.81228,2.92386-2.84242,4.95482-.07655,9.9146-.22307,14.74136,1.17026a9.19165,9.19165,0,0,1,6.96476,8.02545c.56743,4.06016-.85113,7.92658-4.54125,9.52348-4.72537,2.04488-3.80839,4.29076-1.68036,7.51415C589.51005,400.97327,591.74085,404.91325,594.35151,409.22166ZM573.317,381.67507c.46524,2.64116-1.96937,6.96323,4.08467,6.75592,7.06521-.242,11.61089-2.48378,11.33844-6.69307-.34882-5.38856-4.26159-6.28164-8.82022-6.39189C575.483,375.23873,571.76592,375.45619,573.317,381.67507Z" transform="translate(-10.61075 -149.0162)"/><path class="cls-1" d="M372.33542,390.11c.0004-4.96707.02739-9.93435-.011-14.90113-.01914-2.476.50431-4.29371,3.56329-4.25609,5.95952.07331,11.9206.01244,17.881.02836,1.42657.0038,2.91862.08515,3.05214,1.99655.16531,2.36552-1.57253,2.39365-3.20865,2.40345-4.37091.02619-8.74626.14109-13.11182-.01053-4.79424-.1665-3.61826,3.33025-3.4751,5.78415.14545,2.49375-1.88962,6.50763,3.40292,6.44953,3.97309-.04362,7.94734-.01464,11.92075.0165,1.39666.01093,2.96432-.02829,3.12363,1.90736.19053,2.31523-1.48365,2.46139-3.16627,2.46741-3.77492.01353-7.55712.15509-11.32268-.03141-3.132-.15513-4.01591,1.10387-4.12392,4.15284-.33238,9.38258-.46448,9.3756,8.98325,9.37993,2.98007.00136,5.96017.01766,8.94024.029,1.6223.00615,2.75007.65658,2.62248,2.43386-.10492,1.46157-1.21119,1.91289-2.52411,1.91344-6.55595.00267-13.11212.02614-19.66774-.02345-2.90047-.02194-2.85943-2.21825-2.86991-4.24252C372.31723,400.4416,372.335,395.27575,372.33542,390.11Z" transform="translate(-10.61075 -149.0162)"/><path class="cls-1" d="M505.40565,385.52821c0,3.37357-.14705,6.75488.03045,10.11909.376,7.12758,3.87355,10.93417,9.89015,11.028,6.13378.09566,9.83383-3.40343,10.27011-10.60407.39542-6.52566.01546-13.095.20864-19.63831.05534-1.87418-1.37709-5.11061,2.00655-5.22235,3.91415-.1293,2.40631,3.4,2.466,5.42558.18118,6.14625.24568,12.30937-.00015,18.45169-.394,9.84282-6.31674,16.09824-14.80477,16.02341-8.48974-.07485-14.3897-6.44379-14.6762-16.19141-.19817-6.74149-.0517-13.49341-.04056-20.24061.00262-1.5865-.146-3.411,2.10795-3.56686,2.7859-.19258,2.48049,1.94882,2.49908,3.69976.03791,3.57166.01135,7.144.01135,10.71611Z" transform="translate(-10.61075 -149.0162)"/><path class="cls-1" d="M431.51664,391.00907c.06589-8.65236,3.56005-14.83251,10.72949-18.411,6.35727-3.17305,13.03251-3.22364,19.29327.53957,1.42137.85437,4.27585,1.81059,2.5801,4.3758-1.77248,2.6814-3.33089.15058-4.86129-.7755-6.95188-4.2068-14.95372-2.88124-19.69477,3.27057-4.9756,6.45621-4.40951,16.63643,1.24706,22.42512a14.8283,14.8283,0,0,0,19.4731,1.25958c1.388-1.02843,2.73672-3.08024,4.43676-1.03335,2.09008,2.51645-.959,3.49846-2.18908,4.43292-6.27862,4.76963-13.202,5.07217-20.11588,1.64656C434.96,405.0454,431.505,398.71372,431.51664,391.00907Z" transform="translate(-10.61075 -149.0162)"/><path class="cls-1" d="M325.83243,370.54244a10.81887,10.81887,0,0,1,7.03916,2.38615c1.00575.84673,2.62179,1.61759,1.23913,3.26812-.96762,1.15508-2.17187,1.54924-3.56409.32668a9.023,9.023,0,0,0-7.14772-2.26968c-3.44684.36874-6.11923,1.81981-6.80348,5.51-.69415,3.74338,1.26013,6.01236,4.57559,7.28109,2.029.77646,4.14353,1.33025,6.169,2.11486,6.3548,2.46181,9.47443,6.7961,8.63432,11.87278-.94776,5.72754-6.501,10.12963-13.02215,10.00555a16.21162,16.21162,0,0,1-9.84236-3.69088c-1.03125-.81815-2.40778-1.746-.99649-3.37749,1.25179-1.44707,2.49784-1.7915,3.93249-.16069,2.32525,2.64311,5.41654,3.08943,8.69158,2.75254a6.888,6.888,0,0,0,6.54885-5.89005c.68032-3.49235-1.5041-5.6133-4.34817-6.983-2.1273-1.02454-4.45222-1.62983-6.64912-2.5204-6.95512-2.81937-9.1574-6.31416-8.00633-12.58145C313.22048,373.48011,317.70916,370.52194,325.83243,370.54244Z" transform="translate(-10.61075 -149.0162)"/><path class="cls-1" d="M744.28164,409.7769c-2.115.1655-3.05-.94168-2.70943-2.48913,2.93121-13.31847-5.724-22.27845-11.889-32.20478-.68978-1.11064-2.998-2.444-.89148-3.81161a3.29784,3.29784,0,0,1,4.63194,1.34715c2.80475,4.54458,5.722,9.02108,8.461,13.60442,1.43952,2.40885,2.51814,2.62561,4.04185.06876,2.532-4.24884,5.26839-8.37525,7.85478-12.59245,1.10773-1.80631,2.54-3.71165,4.642-2.36771,2.371,1.516-.18205,3.04119-.90756,4.3761a39.80232,39.80232,0,0,1-3.89589,5.95568c-5.52611,6.86526-8.92329,14.32149-7.54962,23.43995C746.32573,406.79927,746.99434,409.27372,744.28164,409.7769Z" transform="translate(-10.61075 -149.0162)"/><path class="cls-1" d="M680.77934,392.346q-.001-3.27327-.00058-6.54656c.00051-9.3161.0024-9.332-9.00427-10.40092-1.394-.16541-2.95071-.03034-3.08918-1.94718-.164-2.27015,1.47641-2.473,3.16936-2.47467q11.60515-.01141,23.21036-.00118c1.628.00367,3.41071.06459,3.27632,2.37331-.13585,2.33291-2.05377,1.92375-3.58025,2.04537-9.35375.74508-9.3536.74706-9.35375,10.04881-.00007,6.54656.066,13.09422-.04431,19.63892-.02961,1.75381,1.00069,4.53317-2.09765,4.631-3.63533.11484-2.35334-2.98989-2.43163-4.8712C680.6606,400.6829,680.77993,396.512,680.77934,392.346Z" transform="translate(-10.61075 -149.0162)"/><path class="cls-1" d="M634.1802,390.6521q-.00306,8.01514-.0024,16.03026c-.00036,1.706-.20955,3.25187-2.50206,3.11431-1.89144-.11347-2.11482-1.44771-2.11555-2.92632q-.00775-16.32707-.00982-32.65416c-.00051-1.73009.30269-3.2699,2.53451-3.12337,2.32925.15295,2.078,1.9813,2.0863,3.529C634.19978,379.96513,634.18217,385.30867,634.1802,390.6521Z" transform="translate(-10.61075 -149.0162)"/></svg>