<?xml version="1.0" encoding="utf-8"?>
<!-- Generator: Adobe Illustrator 21.1.0, SVG Export Plug-In . SVG Version: 6.00 Build 0)  -->
<svg version="1.1" id="Layer_1" xmlns="http://www.w3.org/2000/svg" xmlns:xlink="http://www.w3.org/1999/xlink" x="0px" y="0px"
	 viewBox="0 0 792 612" style="enable-background:new 0 0 792 612;" xml:space="preserve">
<style type="text/css">
	.st0{fill:#EE3436;}
	.st1{fill:#B52144;}
	.st2{fill:#322F30;}
</style>
<g id="g10" transform="matrix(1.3333333,0,0,-1.3333333,0,5583.0267)">
	<g id="g12" transform="scale(0.1)">
		<g id="g14" transform="scale(1.52291)">
			<path id="path16" class="st0" d="M66.1,26295.6l158.3,181.8h232l-157.9-181.8"/>
		</g>
		<g id="g18" transform="scale(1.52291)">
			<path id="path20" class="st1" d="M66.1,26295.6l158.3-181.6h232l-157.9,181.6"/>
		</g>
		<g id="g22" transform="scale(1.52291)">
			<path id="path24" class="st0" d="M66.1,25932.3l158.3,181.7h232l-157.9-181.7"/>
		</g>
		<g id="g26" transform="scale(1.52291)">
			<path id="path28" class="st1" d="M66.1,25932.3l158.3-181.7h232l-157.9,181.7"/>
		</g>
		<g id="g30" transform="scale(1.54529)">
			<path id="path32" class="st0" d="M761,26094H449.9l155.6-179.2"/>
		</g>
		<g id="g34" transform="scale(1.54529)">
			<path id="path36" class="st1" d="M761,25377.7H449.9l155.6,179.1"/>
		</g>
		<g id="g38" transform="scale(1.60514)">
			<path id="path40" class="st2" d="M1437.9,24431.6l-162,280l-163.2-280h-94l211.1,353.2l-197.6,336.2h96l147.8-262.6l147.6,262.6
				h96l-198.5-336.2l212.9-353.2"/>
		</g>
		<g id="g42" transform="scale(1.61511)">
			<path id="path44" class="st2" d="M1574.7,24280.8h82.4v685.1h-82.4V24280.8"/>
		</g>
		<g id="g46" transform="scale(1.651)">
			<path id="path48" class="st2" d="M1732.5,23753v670.2h80.5V23826h275.1v-73.1"/>
		</g>
		<g id="g50" transform="scale(1.66234)">
			<path id="path52" class="st2" d="M2140.3,23591h80.2v665.7h-80.2V23591"/>
		</g>
		<g id="g54" transform="scale(1.70915)">
			<path id="path56" class="st2" d="M2676.2,22944.9l-331.2,500.1v-500.1h-77.6v647.4h71.8l331.2-498.5v498.5h77.8v-647.4"/>
		</g>
		<g id="g58" transform="scale(1.75141)">
			<path id="path60" class="st2" d="M3112.3,22391.2l-148.6,256.6l-149.4-256.6h-86.2l193.5,323.7l-181.3,308.2h88.1l135.3-240.7
				l135.4,240.7h88.1l-182.2-308.2l195.4-323.7"/>
		</g>
		<g id="g62" transform="scale(1.7628)">
			<path id="path64" class="st2" d="M3249.6,22318.5c2.6,0,5.3,0.2,7.9,0.3c2.4,0.1,4.6,0.6,6.5,1.5c2,0.8,3.6,2.2,4.7,3.9
				c1.1,1.7,1.6,4.1,1.6,7.3c0,2.6-0.5,4.7-1.6,6.4c-0.9,1.4-2.2,2.7-4,3.5c-1.6,0.8-3.3,1.4-5.4,1.7c-2.2,0.3-4.4,0.5-6.3,0.5
				h-16.3v-25.1H3249.6z M3254.9,22353.5c9.5,0,16.5-1.9,21.1-5.6c4.4-3.7,6.7-9.4,6.7-17c0-7-2-12.3-6.1-15.6
				c-4-3.3-9-5.2-14.8-5.9l22.5-34.9h-13.2l-21.5,34.1h-13.1v-34.1h-12.1v79H3254.9z M3199.2,22291.2c2.8-7.1,6.7-13.2,11.7-18.3
				c5-5.2,10.9-9.3,17.7-12.2c6.9-3.1,14.2-4.4,22.1-4.4s15.2,1.3,21.9,4.4c6.7,2.9,12.7,6.9,17.5,12.2c5.3,5.1,9,11.2,11.9,18.3
				c2.8,7,4.4,14.7,4.4,23c0,8.1-1.6,15.6-4.4,22.5c-2.9,7.1-6.6,13.1-11.9,18.2c-4.9,5.2-10.8,9.1-17.5,12
				c-6.7,3.1-14,4.5-21.9,4.5s-15.3-1.4-22.1-4.5c-6.7-2.9-12.7-6.8-17.7-12c-5-5.2-9-11.1-11.7-18.2c-2.8-6.9-4.2-14.4-4.2-22.5
				C3195,22306,3196.5,22298.3,3199.2,22291.2 M3188.2,22340.8c3.6,8.2,8.6,15.3,14.8,21.3c6.1,6.1,13.4,10.8,21.6,14.1
				c8.3,3.4,17,5.2,26.2,5.2c9.4,0,18.1-1.8,26.2-5.2c8.2-3.4,15.3-8.1,21.5-14.1c6.1-6,10.9-13.1,14.6-21.3
				c3.7-8.3,5.4-17,5.4-26.5c0-9.7-1.7-18.8-5.4-27c-3.7-8.3-8.6-15.4-14.6-21.5c-6.2-6.1-13.3-10.8-21.5-14.4
				c-8.2-3.2-16.9-4.9-26.2-4.9c-9.2,0-17.9,1.7-26.2,4.9c-8.2,3.5-15.6,8.2-21.6,14.4c-6.2,6.1-11.2,13.2-14.8,21.5
				c-3.7,8.2-5.5,17.3-5.5,27C3182.6,22323.9,3184.5,22332.5,3188.2,22340.8"/>
		</g>
	</g>
</g>
</svg>
