<svg xmlns="http://www.w3.org/2000/svg" role="img" viewBox="24.50 145.75 351.00 107.75"><title>Xnor.ai logo</title><style>svg {enable-background:new 0 0 400 400}</style><path d="M164.356 200.089l-13.245-19.167h9.534l8.833 13.689 9.011-13.689h9.445l-13.245 19.167 13.867 20.044h-9.445l-9.71-14.655-9.712 14.655h-9.444l14.11-20.044m65.356 20.044h-8.389v-24.022c0-3-.622-5.3-1.766-6.8s-3.178-2.211-5.834-2.211c-3.533 0-6.177 1.055-7.766 3.089-1.589 2.033-2.478 5.566-2.478 10.422v19.433h-8.3v-39.033h6.533l1.145 5.122h.444c1.234-1.944 3-3.533 5.034-4.411 2.3-1.056 4.766-1.589 7.244-1.5 9.444 0 14.133 4.767 14.133 14.311v25.6m43.545-19.611c0 6.444-1.767 11.478-4.945 15.011-3.266 3.533-7.944 5.3-13.689 5.3-3.533 0-6.8-.878-9.71-2.478-2.823-1.766-5.123-4.155-6.445-7.066a23.927 23.927 0 0 1-2.3-10.778c0-6.356 1.589-11.3 4.855-14.833s7.945-5.3 13.778-5.3c5.656 0 10.156 1.766 13.422 5.477 3.267 3.723 5.034 8.49 5.034 14.667m-28.611 0c0 9.1 3.355 13.6 10.066 13.6s9.978-4.411 9.89-13.6c0-8.833-3.356-13.422-9.979-13.422-3.533 0-6 1.144-7.6 3.533-1.588 2.211-2.377 5.567-2.377 9.889M345.5 220.133l-1.767-5.478h-.266c-1.5 2.034-3.534 3.711-5.745 4.856-2.389.878-4.855 1.411-7.422 1.322-3.889 0-6.889-1.055-9.01-3.089-2.123-2.122-3.268-5.033-3.268-8.833 0-4.067 1.5-7.067 4.411-9.1 3-2.033 7.6-3.178 13.69-3.356l6.8-.177v-2.123c0-2.477-.623-4.41-1.767-5.566-1.145-1.234-3-1.767-5.478-1.767-1.945 0-3.889.267-5.745.878a65.857 65.857 0 0 0-5.3 2.122l-2.644-5.922a32.113 32.113 0 0 1 7.067-2.645c2.389-.533 4.766-.877 7.066-.877 4.945 0 8.834 1.055 11.3 3.266s3.8 5.567 3.8 10.245v26.5h-5.744v-.256m-12.345-5.655c2.645 0 5.3-.878 7.245-2.645 1.767-1.767 2.644-4.067 2.644-7.067v-3.533l-5.033.178c-3.889.178-6.8.878-8.567 1.944-1.766 1.145-2.822 3.267-2.644 5.3 0 1.5.444 3 1.589 4.067 1.41 1.489 3.178 1.933 4.766 1.756m26.323-43.889c0-1.234.355-2.478 1.233-3.534.878-.877 2.211-1.322 3.533-1.233 1.234 0 2.478.356 3.534 1.233.877.878 1.322 2.212 1.233 3.534 0 1.233-.356 2.478-1.233 3.355-.878.878-2.123 1.322-3.534 1.234-1.322 0-2.644-.356-3.533-1.234-.889-.877-1.322-2.122-1.233-3.355m8.822 49.544h-8.3v-39.122h8.3v39.122m-261.322-67.566c-2.389 0-4.589 1.233-5.922 3.266L89.378 173.59l-11.655-17.667c-1.323-2.033-3.534-3.267-5.923-3.267H31.267l27.111 38.856c2.39 3.533 6.178 5.833 10.245 6.444 1.766-6.355 8.21-10.066 14.566-8.389 4.156 1.145 7.334 4.412 8.39 8.478h16.954c4.677-.266 8.833-2.644 11.477-6.533l27.112-39.033h-40.19v.089m9.734 37.455a11.576 11.576 0 0 1-9.278 5.033c-2.122 0-4.155-.877-5.566-2.477-.623-.712-1.145-1.412-1.767-2.212L91.4 177.122l12.723-19.078c.877-1.233 2.122-1.944 3.533-1.944h32.5l-23.489 33.922m-9.711 56.688v.09h40.189l-27.111-39.034c-2.645-3.888-6.8-6.266-11.478-6.533H91.6c-1.055 4.067-4.244 7.333-8.388 8.478a11.91 11.91 0 0 1-14.567-8.389c-4.067.622-7.856 2.911-10.245 6.444l-27.11 38.856h40.533c2.389 0 4.589-1.233 5.922-3.267L89.4 225.69l11.656 17.755c1.311 2.034 3.511 3.267 5.9 3.267m9.711-37.445l23.489 33.912h-32.489c-1.411 0-2.644-.712-3.533-1.945l-12.722-19.078 8.655-13.244c.622-.8 1.144-1.5 1.767-2.211a7.436 7.436 0 0 1 5.566-2.478 11.58 11.58 0 0 1 9.267 5.044"/><path d="M300.278 180.3c1.411 0 2.822 0 4.156.355l-.878 7.767c-1.234-.267-2.478-.444-3.711-.444-3 0-6 1.055-8.123 3.266-2.122 2.3-3.266 5.3-3.088 8.478v20.5h-8.3v-39.211h6.533l1.055 6.889h.445c1.233-2.211 3-4.156 5.122-5.567 2.022-1.322 4.489-2.033 6.789-2.033m-.267 35.422c0-1.411.356-2.911 1.323-3.978 1.055-.878 2.477-1.5 3.888-1.41 1.412 0 2.912.444 3.978 1.41.878 1.056 1.411 2.478 1.322 3.89 0 1.41-.444 2.91-1.322 3.977-2.21 1.944-5.566 1.944-7.944 0a5.705 5.705 0 0 1-1.245-3.889m-219.9-8.133c3.534 0 6.445-2.911 6.445-6.445s-2.911-6.444-6.444-6.444-6.445 2.91-6.445 6.444 2.911 6.445 6.445 6.445"/></svg>