<svg id="Layer_1" data-name="Layer 1" xmlns="http://www.w3.org/2000/svg" viewBox="0 0 671.57094 145.57539"><defs><style>.cls-1{fill:#44beee;}.cls-2{fill:#4cc0ef;}.cls-3{fill:#fefefe;}</style></defs><title>xnorai</title><path class="cls-1" d="M132.06649,190.815c-.30538.7862-.59681,1.57809-.9182,2.35774-8.03569,19.49387-21.38828,29.15595-43.49107,25.6654-9.93065-1.56827-20.31354-.35012-30.49-.25728-6.80171.062-7.15451-2.5782-3.65849-7.55791,11.93469-16.99953,23.63466-34.1651,35.68666-51.0803,5.0563-7.09659,9.87579-10.59373,17.64088-1.32662,7.25989,8.66423,17.37291,6.25149,20.31268-3.1588l-.07029.07064c12.93944-7.68347,26.65628-8.35956,40.87255-4.53528q.01527,1.8.03035,3.6016c-13.54085,1.18546-24.25318,12.89628-28.93683,31.6339C135.52821,185.94592,132.47935,186.3753,132.06649,190.815Z" transform="translate(-51.0963 -73.96544)"/><path class="cls-1" d="M160.35046,142.48578c-9.39986.29865-18.86724,2.02418-28.09407-1.32959l.06533.15468c-6.56562-13.11009-17.32919-15.52562-26.55766-4.61218-5.28676,6.252-9.18824,5.7382-12.971.56457C79.00557,118.406,65.58432,99.2746,52.35836,80.01758c-3.49845-5.09374,1.01557-5.49786,4.56913-5.50937q24.87445-.08068,49.74933.02251c6.04047.02584,10.52059,2.95283,13.60864,8.053,3.95321,6.52906,7.857,13.08805,11.78231,19.63326.45931,4.5477,3.63588,4.8492,7.17236,4.58825,2.95771,13.35975,10.25647,23.87152,21.05225,32.08906Q160.32143,140.69,160.35046,142.48578Z" transform="translate(-51.0963 -73.96544)"/><path class="cls-2" d="M682.87757,155.34965c0,7.23155.08417,14.46451-.03791,21.694-.05562,3.292.54062,7.30855-3.96572,8.27987-3.25.7005-7.40805,1.55949-9.16573-2.20031-3.39132-7.25417-6.59915-3.18451-10.71418-.83141-19.96689,11.41749-41.67422,2.77066-43.10253-16.92117-.88434-12.193,4.29492-20.41006,15.86926-24.59684,7.3316-2.652,14.93125-3.02515,22.61156-3.29378,4.27214-.14941,10.28863,1.67493,10.36188-5.78089.06631-6.74585-3.10806-11.47111-10.18651-12.50419a33.51212,33.51212,0,0,0-18.69016,2.85372c-4.92128,2.19749-7.89695,1.24477-9.70838-4.08882-1.89131-5.56874.8795-7.85533,5.511-9.33242,8.16523-2.60412,16.46339-4.27883,25.08967-3.53718,15.94368,1.37078,23.89883,8.72756,25.42957,24.7802.80305,8.42029.14182,16.98022.14182,25.47708Zm-25.22549-7.19325c-14.457-.037-23.96061,5.45445-24.035,14.03673-.07591,8.7674,5.52009,11.48489,13.351,11.34642a18.91146,18.91146,0,0,0,18.86888-18.2011C666.15377,148.55329,662.52046,147.54046,657.65207,148.1564Z" transform="translate(-51.0963 -73.96544)"/><path class="cls-2" d="M513.11694,145.60445c.10407,26.05694-14.09691,41.98849-37.26914,41.81082-22.2089-.1703-36.64369-16.55248-36.62028-41.56075.02356-25.19193,14.13709-40.81738,36.91193-40.86614C499.20511,104.939,513.0151,120.10793,513.11694,145.60445Zm-17.59156.61376c.03694-5.977-.06857-11.92022-3.12225-17.34769-3.68269-6.54538-9.1433-9.54719-16.75048-9.40788-7.11672.13032-12.67484,2.87061-15.41683,9.26592-4.88793,11.40027-5.20524,23.12735.07259,34.58861,3.198,6.94478,9.13129,9.88137,16.54792,9.64936,7.40446-.23166,12.84023-3.71,16.1219-10.537C495.473,157.2394,495.42674,151.73569,495.52538,146.21821Z" transform="translate(-51.0963 -73.96544)"/><path class="cls-2" d="M352.43966,146.3676c.00562-10.62343-.24359-21.25474.09147-31.86761.23119-7.32288,9.33341-11.67918,12.63907-5.97742,4.65545,8.02992,7.38867,3.06043,11.34966.92646,23.42452-12.61971,44.40181-.57208,44.68176,25.71535.14026,13.17156-.14046,26.34884.09584,39.51769.11784,6.5658-.04384,11.43107-9.08705,11.29837-8.53321-.12525-8.32515-4.90544-8.271-10.78782.11737-12.74693.01092-25.49584.01268-38.24394.00125-8.988-2.67689-16.35275-12.90154-17.23978-10.067-.87332-17.29976,3.219-19.68531,13.86869-3.11048,13.886-1.19038,27.94632-1.50437,41.92068-.13984,6.22239-.49221,10.474-8.673,10.46556-7.96026-.00819-9.04641-3.80954-8.83644-10.27817C352.66828,165.92236,352.434,156.14119,352.43966,146.3676Z" transform="translate(-51.0963 -73.96544)"/><path class="cls-2" d="M266.37174,108.182c12.05395-4.08172,19.49441-.393,25.57892,10.12736,8.85918,15.318,10.11883,15.32156,19.26627-.40794,5.9073-10.1579,13.1848-13.40934,24.78071-9.97459-3.63752,10.605-10.90979,18.9607-17.23859,27.65237-5.01513,6.88756-5.64956,12.01036-.16769,18.99044,7.21934,9.19241,13.21991,19.342,19.88244,29.28591-16.3078,6.79285-22.24647-3.46484-28.69306-13.94167-8.03558-13.05909-8.16063-12.71346-16.9404-.011-5.01232,7.25183-7.50923,17.61777-20.24048,16.04514-6.66842-.82368-8.76541-2.04332-4.45734-8.134,5.88421-8.319,11.31171-16.97152,17.4165-25.12037,3.93365-5.25072,3.77779-9.45923.08133-14.87305C279.04027,128.15425,271.14207,119.23289,266.37174,108.182Z" transform="translate(-51.0963 -73.96544)"/><path class="cls-2" d="M531.49645,145.6552c-.00218-10.19269-.04813-20.3857.02208-30.5779.02559-3.71128-.80445-8.16236,4.77072-8.76838,3.76835-.40964,8.18692-1.10158,9.40515,3.97574,1.80714,7.53121,5.0514,4.892,8.5524,1.55477a24.15669,24.15669,0,0,1,14.86533-6.5917c4.27355-.36942,10.192-1.98132,10.18292,5.63259-.00647,5.46937.54148,10.54213-8.20673,10.97074-14.86377.72824-21.6808,8.67588-22.20707,23.81179-.36876,10.605-.40613,21.24421-.00055,31.84555.27546,7.20089-3.34233,8.32488-9.38354,8.35769-6.15651.03347-8.22592-2.45463-8.07489-8.36069C531.69343,166.895,531.49872,156.27256,531.49645,145.6552Z" transform="translate(-51.0963 -73.96544)"/><path class="cls-2" d="M722.14178,146.01093c-.00031,10.17258-.20985,20.35114.07832,30.51557.173,6.09656-1.20512,9.51686-8.35121,9.37281-6.26315-.12626-9.23095-1.69336-9.12274-8.62644.32406-20.764.47181-41.54533-.05664-62.30091-.2189-8.59556,4.91863-8.0966,10.53085-8.57015,7.38441-.62308,6.93507,4.28566,6.927,9.09135Q722.12188,130.752,722.14178,146.01093Z" transform="translate(-51.0963 -73.96544)"/><path class="cls-2" d="M139.24012,106.80519c-3.53646.261-6.713-.04053-7.17234-4.58823,9.54845,1.20231,10.6806-7.73541,13.4555-12.81121,6.58924-12.0528,15.452-16.3354,28.99089-15.28825,14.76171,1.14172,29.68.25937,44.37254.25937,2.20812,5.16672-1.54244,7.65586-3.53341,10.557q-16.22474,23.64182-32.7599,47.07035c-5.38962,7.67425-11.84981,13.31286-22.24294,10.48172q-.029-1.796-.05808-3.59257c6.45711-.5375,12.90775-1.39237,16.997-7.19354,10.03211-14.23182,19.91652-28.56838,29.78489-42.9147,3.76889-5.4791,2.60434-8.61046-4.46772-8.67617-24.47925-.22748-51.23841-5.97672-62.37052,25.92719C140.12028,106.36794,139.58146,106.55212,139.24012,106.80519Z" transform="translate(-51.0963 -73.96544)"/><path class="cls-2" d="M132.06649,190.815c.41286-4.43967,3.46172-4.869,6.97928-4.58688q7.27883,10.36258,14.55629,20.72466c2.7446,3.90518,5.72033,7.333,11.13786,7.30816,13.56964-.06218,27.13987.02485,40.70978.00476,3.83672-.00569,7.8338-.89928,4.13211-5.60111-14.06908-17.87037-22.81991-39.84212-41.60021-54.07041q-.01512-1.80125-.03035-3.6016a10.77579,10.77579,0,0,1,10.00993,4.53879c14.5242,20.091,28.81993,40.34732,44.95026,63.02285-22.65369,0-41.97848.08632-61.30182-.04256-7.72068-.05149-9.73792-7.12152-13.91016-11.69869C142.68792,201.315,142.75947,190.72487,132.06649,190.815Z" transform="translate(-51.0963 -73.96544)"/><path class="cls-2" d="M589.46892,187.78879c-6.95824-1.15118-10.1039-5.36637-9.78615-12.2819.30674-6.67966,4.01978-9.80332,10.56057-9.76423,7.44534.04451,10.72229,4.632,10.69444,11.26518C600.90806,184.05851,596.31021,187.34654,589.46892,187.78879Z" transform="translate(-51.0963 -73.96544)"/><path class="cls-2" d="M132.32173,141.31087l-.06533-.15468c-4.24966,3.88146-5.16534,8.964-5.1776,14.37179l.07021-.0708c-2.39593.39981-4.78129.88356-7.18956,1.18215-5.22979.64859-8.96159-1.51459-11.06652-6.31609-1.72622-3.93771-.64164-7.3819,2.21947-10.372,3.69476-3.86134,7.835-4.57149,12.45286-1.67054C126.24841,139.96627,128.3111,143.45726,132.32173,141.31087Z" transform="translate(-51.0963 -73.96544)"/><path class="cls-2" d="M722.667,85.49543c.03159,6.8387-3.57457,9.91117-9.35046,10.09188-6.15183.19251-9.29874-3.81383-9.46319-9.515-.1742-6.03739,3.56591-9.26229,9.48409-9.38683C719.491,76.55589,722.49244,80.01106,722.667,85.49543Z" transform="translate(-51.0963 -73.96544)"/><path class="cls-3" d="M167.98161,154.59415c18.7803,14.22829,27.53112,36.2,41.60021,54.07041,3.70169,4.70183-.29539,5.59541-4.13211,5.60111-13.56991.02009-27.14015-.06693-40.70978-.00476-5.41753.02481-8.39326-3.403-11.13786-7.30816q-7.281-10.35995-14.55629-20.72466C143.72843,167.49043,154.44076,155.77961,167.98161,154.59415Z" transform="translate(-51.0963 -73.96544)"/><path class="cls-3" d="M139.24012,106.80519c.34134-.25307.88016-.43725.99593-.769,11.13211-31.9039,37.89127-26.15467,62.37052-25.92719,7.07206.06571,8.23661,3.19707,4.46772,8.67617-9.86838,14.34632-19.75279,28.68288-29.78489,42.9147-4.08927,5.80117-10.5399,6.656-16.997,7.19354C149.4966,130.67673,142.19785,120.165,139.24012,106.80519Z" transform="translate(-51.0963 -73.96544)"/><path class="cls-3" d="M657.65207,148.1564c4.86839-.61594,8.5017.39688,8.18489,7.18205a18.91146,18.91146,0,0,1-18.86888,18.2011c-7.83087.13847-13.42687-2.579-13.351-11.34642C633.69146,153.61085,643.19506,148.11939,657.65207,148.1564Z" transform="translate(-51.0963 -73.96544)"/><path class="cls-3" d="M495.537,146.21786c-.11023,5.51783-.064,11.02155-2.55874,16.21165-3.28167,6.82706-8.71744,10.30536-16.1219,10.537-7.41663.232-13.34988-2.70458-16.54792-9.64936-5.27783-11.46126-4.96052-23.18834-.07259-34.58861,2.742-6.39531,8.30011-9.1356,15.41683-9.26592,7.60718-.13931,13.06779,2.8625,16.75048,9.40788C495.45681,134.298,495.56232,140.24118,495.537,146.21786Z" transform="translate(-51.0963 -73.96544)"/></svg>