<?xml version="1.0" encoding="utf-8"?>
<!-- Generator: Adobe Illustrator 23.0.6, SVG Export Plug-In . SVG Version: 6.00 Build 0)  -->
<svg version="1.1" baseProfile="tiny" id="Layer_1" xmlns="http://www.w3.org/2000/svg" xmlns:xlink="http://www.w3.org/1999/xlink"
	 x="0px" y="0px" viewBox="0 0 1000 1000" xml:space="preserve">
<g>
	<path display="none" fill="#FEFDFD" d="M500.42,668.92c-163.26,0-326.51-0.02-489.77,0.1c-3.81,0-4.67-0.86-4.66-4.66
		c0.12-108.78,0.12-217.56,0-326.34c0-3.48,0.68-4.16,4.16-4.16c327.19,0.1,654.37,0.1,981.56,0c3.47,0,4.16,0.68,4.16,4.16
		c-0.12,108.95-0.12,217.9,0,326.85c0,3.48-0.68,4.16-4.16,4.16C827.95,668.91,664.19,668.92,500.42,668.92z M485.18,573.27
		c-8.67-10.51-7.94-21.94-7.91-33.26c0.05-17.76,0.04-35.52,0.01-53.28c-0.04-23.68,0.34-47.37-0.31-71.03
		c-0.77-27.83-14.45-47.17-40.4-57.67c-14.6-5.9-29.91-8.41-45.49-9.32c-26.97-1.57-53.78-0.64-79.81,7.57
		c-29.69,9.37-49.17,28.13-54.38,59.86c-0.58,3.53-0.47,5.1,3.98,4.94c23.99-0.85,47.98-1.43,71.98-1.88
		c3.51-0.07,4.98-1.04,5.72-4.55c1.88-8.95,7.65-14.12,16.73-15.24c7.57-0.93,15.19-1.18,22.71,0.51
		c10.75,2.41,15.84,8.44,16.85,19.34c0.28,3.02-0.43,4.43-3.65,5.29c-11.29,3.01-22.73,5.13-34.26,6.88
		c-17.86,2.72-35.89,4.38-53.44,9.02c-30.61,8.1-57.37,32.86-54.98,72.7c1.64,27.24,17.37,50.69,43.47,59.18
		c34.74,11.3,68.36,7.43,100.09-11.03c2.14-1.24,4.2-2.62,6.75-4.22c0.13,1.37,0.23,2.16,0.29,2.95c0.32,4.17-1.81,9.58,0.87,12.22
		c2.88,2.85,8.36,0.94,12.69,0.96C436.34,573.32,460,573.27,485.18,573.27z M590.9,504.64c-1.62-10.6-3.03-20.62-4.7-30.6
		c-6.46-38.69-16.79-76.54-24.93-114.86c-0.73-3.45-2.39-4.04-5.55-4.02c-26.89,0.12-53.78,0.06-80.67,0.07
		c-5.62,0-5.65,0.02-3.79,5.4c9.8,28.42,19.63,56.83,29.43,85.25c14.37,41.68,28.8,83.33,43.02,125.06
		c3.8,11.15,0.11,16.2-11.76,16.94c-8.28,0.51-16.58,0.22-24.81-0.79c-3.83-0.47-4.96,0.44-4.92,4.4
		c0.21,17.59,0.21,35.18-0.01,52.76c-0.05,3.76,1.21,4.89,4.72,5.31c19.87,2.39,39.79,2.57,59.75,1.99
		c21.75-0.64,38.35-10.61,50.81-28.04c6.76-9.45,11.09-20.1,14.86-30.98c26.82-77.4,53.57-154.82,80.44-232.21
		c1.33-3.82,1.29-5.22-3.44-5.19c-26.89,0.2-53.78,0.17-80.67,0c-3.6-0.02-4.91,1.08-5.7,4.53c-3.87,16.96-7.96,33.87-12.08,50.78
		c-6.52,26.75-13.14,53.47-16.72,80.83C593.63,495.59,594.09,500.25,590.9,504.64z M814.57,346.01c-7.9-0.19-19.33,0.93-30.61,3.3
		c-36.59,7.7-65.45,26.19-81.89,60.79c-13.58,28.59-15.51,58.67-7.68,89.09c9.13,35.49,30.84,60.68,65.49,73.21
		c37.28,13.49,75.12,12.7,112.32-0.4c29.8-10.5,51.9-30.26,63.66-60.04c13.09-33.18,11.74-66.46-1.69-99.3
		c-11.4-27.87-31.61-46.65-59.79-57.02C856.24,348.97,837.48,346.07,814.57,346.01z M94.7,555.18c1.75-1.92,2.61-2.93,3.54-3.88
		c46.08-46.71,92.1-93.49,138.36-140.03c5.04-5.07,7.46-10.06,6.97-17.27c-0.64-9.32-0.15-18.71-0.15-29.46
		c-68.69,69.68-136.35,138.31-204.77,207.71c2.12,0.14,2.92,0.24,3.71,0.24c65.29,0.01,130.58-0.02,195.87,0.09
		c3.76,0.01,4.4-1.35,4.38-4.69c-0.14-18.6-0.16-37.21,0.02-55.82c0.04-3.7-0.83-4.91-4.74-4.88c-23.51,0.19-47.02,0.16-70.53,0.01
		c-3.21-0.02-5.33,1.11-7.46,3.3c-13.58,13.92-27.25,27.76-40.92,41.59c-1.38,1.39-2.49,3.17-4.94,3.12
		C108,555.11,101.95,555.18,94.7,555.18z M23.51,564.14c0.39,0.17,0.77,0.34,1.16,0.51c68.8-69.79,137.6-139.58,206.59-209.57
		c-0.93-0.47-1.07-0.6-1.2-0.6c-63.26-0.03-126.51-0.03-189.77-0.15c-3.55-0.01-3.66,1.7-3.65,4.37
		c0.07,18.77,0.13,37.55-0.04,56.32c-0.03,3.65,1.17,4.5,4.62,4.47c20.13-0.14,40.26-0.13,60.38,0c2.83,0.02,4.66-1.02,6.56-2.95
		c13.71-14.03,27.51-27.97,41.31-41.92c1.27-1.29,2.29-2.98,4.48-2.98c6.19,0.02,12.38,0.01,18.61,0.01
		c0.03,2.01-1.33,2.68-2.21,3.58c-13.01,13.29-26.07,26.54-39.11,39.81c-34.15,34.73-68.23,69.52-102.53,104.1
		c-3.91,3.94-5.55,7.78-5.32,13.29C23.82,542.99,23.51,553.57,23.51,564.14z M956.19,357.15c-9.27-0.03-16.51,7.02-16.53,16.11
		c-0.02,9.14,7.16,16.41,16.26,16.48c9.12,0.06,16.44-7.12,16.5-16.21C972.49,364.32,965.41,357.19,956.19,357.15z"/>
	<path fill="#F48320" d="M485.18,573.27c-25.18,0-48.84,0.05-72.5-0.05c-4.33-0.02-9.81,1.89-12.69-0.96
		c-2.67-2.65-0.55-8.05-0.87-12.22c-0.06-0.79-0.15-1.57-0.29-2.95c-2.55,1.6-4.61,2.98-6.75,4.22
		c-31.73,18.46-65.35,22.33-100.09,11.03c-26.11-8.5-41.84-31.94-43.47-59.18c-2.39-39.84,24.37-64.6,54.98-72.7
		c17.55-4.64,35.58-6.3,53.44-9.02c11.53-1.76,22.97-3.87,34.26-6.88c3.22-0.86,3.93-2.27,3.65-5.29
		c-1.01-10.91-6.1-16.93-16.85-19.34c-7.44-1.67-14.97-1.45-22.46-0.54c-8.3,1.01-15.25,7.13-16.99,15.31
		c-0.74,3.48-2.21,4.45-5.71,4.51c-24,0.45-48,1.03-71.98,1.88c-4.46,0.16-4.56-1.41-3.98-4.94c5.2-31.73,24.69-50.49,54.38-59.86
		c26.04-8.21,52.84-9.14,79.81-7.57c15.58,0.91,30.89,3.41,45.49,9.32c25.95,10.5,39.64,29.84,40.4,57.67
		c0.65,23.66,0.27,47.35,0.31,71.03c0.03,17.76,0.04,35.52-0.01,53.28C477.23,551.33,476.51,562.76,485.18,573.27z M394.62,477.88
		c0.32-5.93,0.32-5.95-5.4-4c-9.89,3.37-19.84,6.51-30.06,8.83c-7.89,1.79-15.83,3.72-22.28,9.07c-5,4.14-8.89,9.06-7.45,16.08
		c1.57,7.61,6.88,11.72,14.14,13.52c2.94,0.73,5.95,1.02,9.03,0.72C377.42,519.73,393.24,503.11,394.62,477.88z"/>
	<path fill="#F48320" d="M590.9,504.64c3.2-4.39,2.73-9.05,3.29-13.37c3.58-27.36,10.2-54.08,16.72-80.83
		c4.12-16.9,8.22-33.81,12.08-50.78c1.02-4.46,2.91-5,9.49-4.25c23.41,2.65,47.03,2.72,70.45,0.2c10.99-1.18,11.63-0.38,9.86,4.71
		c-26.87,77.38-53.62,154.81-80.44,232.21c-3.77,10.88-8.11,21.52-14.86,30.98c-12.46,17.44-29.06,27.4-50.81,28.04
		c-19.96,0.59-39.89,0.41-59.75-1.99c-3.97-0.48-5.06-1.87-4.63-6.96c1.36-16.12,1.47-32.31,0.08-48.42
		c-0.54-6.25,0.19-7.66,4.76-7.1c8.22,1.01,16.52,1.31,24.81,0.79c11.87-0.74,15.56-5.79,11.76-16.94
		c-14.22-41.73-28.65-83.38-43.02-125.06c-9.8-28.42-19.63-56.83-29.43-85.25c-1.85-5.38-1.82-5.4,3.79-5.4
		c26.89,0,53.78,0.05,80.67-0.07c3.15-0.01,4.82,0.58,5.55,4.02c8.14,38.32,18.47,76.17,24.93,114.86
		C587.87,484.02,589.28,494.04,590.9,504.64z"/>
	<path fill="#F48320" d="M814.57,346.01c22.91,0.06,41.67,2.96,59.8,9.63c28.18,10.37,48.39,29.15,59.79,57.02
		c13.43,32.84,14.78,66.12,1.69,99.3c-11.75,29.78-33.86,49.55-63.66,60.04c-37.2,13.1-75.04,13.89-112.32,0.4
		c-34.65-12.53-56.35-37.72-65.49-73.21c-7.83-30.42-5.9-60.5,7.68-89.09c16.44-34.6,45.3-53.09,81.89-60.79
		C795.23,346.94,806.67,345.82,814.57,346.01z M856.83,462.17c0.37-9.54-0.73-20.08-4.29-30.25c-5.44-15.51-16.51-23.94-32.36-24.77
		c-16.71-0.87-29.67,6.62-36.69,21.05c-4.14,8.51-5.89,17.58-6.51,26.9c-1.01,15.15-0.04,30.09,6.33,44.16
		c6.67,14.72,18.34,21.89,34.6,21.63c14.53-0.24,27.44-8.93,33.12-22.32C855.79,487.32,856.98,475.43,856.83,462.17z"/>
	<path fill="#F48421" d="M94.7,555.18c7.25,0,13.3-0.07,19.34,0.03c2.45,0.04,3.56-1.73,4.94-3.12
		c13.67-13.83,27.34-27.67,40.92-41.59c2.13-2.18,4.25-3.32,7.46-3.3c23.51,0.15,47.02,0.17,70.53-0.01
		c3.91-0.03,4.77,1.19,4.74,4.88c-0.18,18.6-0.15,37.21-0.02,55.82c0.03,3.35-0.61,4.7-4.38,4.69
		c-65.29-0.11-130.58-0.08-195.87-0.09c-0.8,0-1.6-0.1-3.71-0.24c68.42-69.41,136.08-138.03,204.77-207.71
		c0,10.75-0.48,20.14,0.15,29.46c0.49,7.21-1.93,12.2-6.97,17.27c-46.26,46.53-92.28,93.31-138.36,140.03
		C97.31,552.25,96.45,553.26,94.7,555.18z"/>
	<path fill="#F48421" d="M23.51,564.18c0-10.58,0.31-21.18-0.13-31.75c-0.23-5.51,1.41-9.35,5.32-13.29
		c34.31-34.57,68.39-69.37,102.53-104.1c13.04-13.26,26.1-26.52,39.11-39.81c0.88-0.9,2.23-1.58,2.21-3.58
		c-6.23,0-12.42,0.02-18.61-0.01c-2.19-0.01-3.21,1.69-4.48,2.98c-13.8,13.95-27.6,27.89-41.31,41.92
		c-1.89,1.94-3.72,2.97-6.56,2.95c-20.13-0.12-40.26-0.14-60.38,0c-3.44,0.02-4.65-0.83-4.62-4.47c0.17-18.77,0.11-37.55,0.04-56.32
		c-0.01-2.67,0.1-4.37,3.65-4.37c63.26,0.12,126.51,0.12,189.77,0.15c0.14,0,0.27,0.13,1.2,0.6L24.67,564.66
		C24.11,564.43,24.07,564.41,23.51,564.18z"/>
	<path fill="#F48421" d="M956.19,357.15c9.22,0.03,16.29,7.17,16.23,16.38c-0.06,9.09-7.38,16.27-16.5,16.21
		c-9.1-0.06-16.28-7.34-16.26-16.48C939.68,364.18,946.92,357.12,956.19,357.15z M964.31,382.71c0.58-0.26,1.32-0.36,1.7-0.79
		c3.93-4.31,4.42-10.42,1.3-15.5c-2.88-4.7-8.6-7.14-14.02-5.99c-5.49,1.17-9.94,6.2-10.37,11.74c-0.48,6.12,2.78,11.32,8.51,13.58
		c5.08,2,9.62,0.91,12.95-3.11C964.38,382.64,964.31,382.71,964.31,382.71z"/>
	<path display="none" fill="#FEFDFD" d="M394.62,477.88c-1.38,25.23-17.2,41.85-42.01,44.21c-3.08,0.29-6.09,0-9.03-0.72
		c-7.25-1.8-12.57-5.9-14.14-13.52c-1.44-7.02,2.45-11.93,7.45-16.08c6.45-5.34,14.39-7.28,22.28-9.07
		c10.22-2.31,20.16-5.45,30.06-8.83C394.94,471.93,394.95,471.96,394.62,477.88z"/>
	<path display="none" fill="#FEFDFD" d="M856.83,462.17c0.15,13.27-1.04,25.15-5.81,36.4c-6.27,14.79-17.53,22.2-33.59,22.32
		c-16.01,0.12-27.52-7.06-34.12-21.63c-6.37-14.06-7.34-29.01-6.33-44.16c0.62-9.31,2.37-18.39,6.51-26.9
		c7.03-14.44,19.98-21.92,36.69-21.05c15.85,0.83,26.92,9.26,32.36,24.77C856.11,442.09,857.2,452.63,856.83,462.17z"/>
	<path display="none" fill="#FEFDFD" d="M964.38,382.64c-3.33,4.02-7.87,5.11-12.95,3.11c-5.73-2.26-8.99-7.46-8.51-13.58
		c0.43-5.53,4.88-10.57,10.37-11.74c5.43-1.15,11.14,1.29,14.02,5.99c3.12,5.08,2.64,11.2-1.3,15.5c-0.39,0.43-1.13,0.53-1.71,0.79
		c-0.26-3.1-4.32-5.35-1.89-9.11c3.12-4.81,1.33-8.42-4.33-9.05c-8.85-0.98-8.99-0.86-8.99,7.95c0,2.19-0.03,4.38,0.01,6.58
		c0.02,1.47-0.33,3.27,2.05,3.22c2.42-0.05,1.71-1.94,1.94-3.33c0.22-1.3-0.86-3.23,1.58-3.58c2.13-0.3,3.19,0.9,3.55,2.74
		C958.9,381.59,961.23,382.64,964.38,382.64z"/>
	<path fill="#F48421" d="M964.38,382.64c-3.15,0-5.48-1.04-6.16-4.51c-0.36-1.83-1.42-3.04-3.55-2.74
		c-2.45,0.35-1.37,2.27-1.58,3.58c-0.23,1.39,0.48,3.29-1.94,3.33c-2.37,0.05-2.02-1.76-2.05-3.22c-0.04-2.19-0.01-4.38-0.01-6.58
		c0-8.81,0.14-8.93,8.99-7.95c5.66,0.63,7.45,4.24,4.33,9.05c-2.43,3.76,1.62,6,1.89,9.11
		C964.31,382.71,964.38,382.64,964.38,382.64z M956.13,367.58c-1.51-0.01-3.05-0.22-3.07,2.1c-0.02,1.85,0.55,2.8,2.54,2.66
		c1.86-0.13,4.1-0.19,4.22-2.47C959.92,367.78,957.86,367.57,956.13,367.58z"/>
	<path display="none" fill="#FEFDFD" d="M956.13,367.57c1.73,0,3.79,0.2,3.68,2.3c-0.12,2.28-2.35,2.33-4.22,2.47
		c-1.99,0.14-2.56-0.81-2.54-2.66C953.08,367.36,954.62,367.57,956.13,367.57z"/>
</g>
</svg>
