<?xml version="1.0" encoding="utf-8"?>
<!-- Generator: Adobe Illustrator 23.0.6, SVG Export Plug-In . SVG Version: 6.00 Build 0)  -->
<svg version="1.1" id="Layer_1" xmlns="http://www.w3.org/2000/svg" xmlns:xlink="http://www.w3.org/1999/xlink" x="0px" y="0px"
	 viewBox="0 0 400 245" style="enable-background:new 0 0 400 245;" xml:space="preserve">
<style type="text/css">
	.st0{fill:url(#SVGID_1_);}
	.st1{fill:url(#SVGID_2_);}
	.st2{fill:url(#SVGID_3_);}
	.st3{fill:#323E48;}
</style>
<g>
	<g>
		<linearGradient id="SVGID_1_" gradientUnits="userSpaceOnUse" x1="6.7494" y1="112.2544" x2="80.223" y2="141.7906">
			<stop  offset="0" style="stop-color:#1DBFFF"/>
			<stop  offset="1" style="stop-color:#1EA0F3"/>
		</linearGradient>
		<path class="st0" d="M54.4,90.2c-2.7-1.1-5.7-1.8-8.7-2c-0.3,0-0.7,0-1,0c-0.2,0-0.4,0-0.6,0c-15.2,0-27.6,12.4-27.6,27.6
			c0,3.4,0.6,6.7,1.8,9.7c0-0.5,0-0.9,0-1.4c0-14,11.4-25.4,25.4-25.4s25.4,11.4,25.4,25.4c0,1.5-0.1,2.9-0.4,4.3
			c-0.1,0.8-0.3,1.5-0.5,2.3c-0.8,2.8-2,5.5-3.6,7.8c-6,9.4-16.5,15.6-28.4,15.6c-18.3,0-33.1-14.6-33.6-32.7c0,0.3,0,0.6,0,1
			c0,23.9,19.4,43.2,43.2,43.2c5.5,0,10.8-1,15.7-2.9c12.1-6.9,20.3-19.9,20.3-34.8C81.5,110.6,70.2,95.7,54.4,90.2z"/>
		<linearGradient id="SVGID_2_" gradientUnits="userSpaceOnUse" x1="5.0157" y1="108.6956" x2="66.719" y2="132.3812">
			<stop  offset="0" style="stop-color:#2BCDFD"/>
			<stop  offset="1" style="stop-color:#87E6FF"/>
		</linearGradient>
		<path class="st1" d="M43.5,149.5c-13.6,0-24.6-10.6-25.3-24c-1.1-3-1.8-6.3-1.8-9.7c0-15.2,12.4-27.6,27.6-27.6c0.2,0,0.4,0,0.6,0
			c0.4,0,0.7,0,1,0c-0.5-0.1-0.9-0.1-1.4-0.1C43.2,88,42.1,88,41,88C24,88,9.4,98.3,3.4,113c-0.1,0.3-0.3,0.7-0.4,1
			c-0.4,2.2-0.7,4.4-0.7,6.7c0,0.3,0,0.6,0,0.9c0.5,18.1,15.3,32.7,33.6,32.7c12,0,22.5-6.2,28.4-15.6
			C59.8,145.2,52.1,149.5,43.5,149.5z"/>
		<linearGradient id="SVGID_3_" gradientUnits="userSpaceOnUse" x1="18.1604" y1="92.2075" x2="88.87" y2="140.8049">
			<stop  offset="0" style="stop-color:#32B4F8"/>
			<stop  offset="1" style="stop-color:#1073D8"/>
		</linearGradient>
		<path class="st2" d="M45.6,79.3C27,79.3,11.2,91,5.1,107.4c-0.9,2.1-1.6,4.3-2.1,6.6c0.1-0.3,0.3-0.7,0.4-1C9.4,98.3,24,88,41,88
			c1.1,0,2.2,0,3.3,0.1c0.5,0,0.9,0.1,1.4,0.1c3.1,0.2,6,0.9,8.7,2c15.8,5.5,27.1,20.4,27.1,37.8c0,14.9-8.2,27.8-20.3,34.8
			c16.1-6.3,27.6-22,27.6-40.3C88.8,98.6,69.4,79.3,45.6,79.3z"/>
	</g>
	<g>
		<g>
			<path class="st3" d="M142.3,107.7v3l-20.4,24.7h21.2v4.4h-28.3v-3l20.5-24.8h-19.5v-4.3H142.3z"/>
			<path class="st3" d="M174,107.7c2.9,0,5.3,0.9,7.3,2.7c2,1.8,3,4,3,6.6v6.2c-0.8,0.4-1.5,0.6-2,0.9c-0.5,0.2-1.1,0.4-1.7,0.6
				c-0.6,0.2-1.1,0.3-1.4,0.3h-17.4c-0.8,0-1.5-0.2-2.3-0.7c-0.8-0.5-1.7-1.2-2.9-2.2v7.5c0,1.6,0.6,3,1.9,4.2
				c1.3,1.2,2.8,1.7,4.6,1.7h10c1.8,0,3.3-0.6,4.5-1.7c1.3-1.2,1.9-2.6,1.9-4.2v-0.4h4.7v1.3c0,2.6-1,4.8-3.1,6.6
				c-2,1.8-4.4,2.7-7.2,2.8h-12.3c-2.8,0-5.2-0.9-7.3-2.8c-2-1.8-3-4-3-6.6V117c0-2.6,1-4.8,3-6.6c2-1.8,4.5-2.7,7.3-2.7H174z
				 M158.4,113.4c-1.2,1.1-1.9,2.5-1.9,4.2v3.2h22.6v-3.2c0-1.7-0.6-3.1-1.9-4.2c-1.3-1.2-2.8-1.8-4.6-1.8H163
				C161.3,111.7,159.7,112.3,158.4,113.4z"/>
			<path class="st3" d="M199.4,107.7l0.8,2.9c0.8-0.6,1.4-1.1,2-1.4c0.5-0.4,1.1-0.7,1.7-1c0.6-0.3,1.1-0.5,1.5-0.5h10.4
				c2.9,0,5.3,0.9,7.3,2.7c2,1.8,3,4,3,6.6v22.8h-5.2V118c0-1.7-0.6-3.1-1.9-4.2c-1.3-1.2-2.8-1.8-4.6-1.7h-14.1v27.8h-5.2v-32.1
				H199.4z"/>
			<path class="st3" d="M238.2,92.8h5.2v46.9h-5.2V92.8z"/>
			<path class="st3" d="M273.5,107.7c2.9,0,5.3,0.9,7.3,2.7c2,1.8,3,4,3,6.6v22.7h-4.3l-0.8-2.9c-0.8,0.6-1.5,1.1-2,1.5
				c-0.5,0.4-1.1,0.7-1.7,1c-0.6,0.3-1.1,0.4-1.4,0.4H263c-2.8,0-5.2-0.9-7.3-2.8c-2-1.8-3-4-3-6.6v-0.8c0-2.6,1-4.8,3-6.6
				c2-1.8,4.5-2.7,7.2-2.7h15.7v-2.6c0-1.7-0.6-3.1-1.9-4.3c-1.3-1.2-2.8-1.8-4.6-1.8h-16v-4H273.5z M259.7,126.1
				c-1.2,0.9-1.9,2.2-1.9,3.9c0,1.4,0.6,2.7,1.9,3.8c1.3,1.1,2.8,1.6,4.6,1.6h14.3v-11.1h-14.3C262.6,124.3,261,124.9,259.7,126.1z"
				/>
			<path class="st3" d="M297.6,107.7l11.9,27.6l12.4-27.6h6l-21.5,44.4h-6l4.5-7.8c0.4-0.7,1.1-1.6,2.2-3l-15.6-33.7H297.6z"/>
			<path class="st3" d="M357.8,107.7c2.9,0,5.3,0.9,7.3,2.7c2,1.8,3,4,3,6.6v6.2c-0.8,0.4-1.5,0.6-2,0.9c-0.5,0.2-1.1,0.4-1.7,0.6
				c-0.6,0.2-1.1,0.3-1.4,0.3h-17.4c-0.8,0-1.5-0.2-2.3-0.7c-0.8-0.5-1.7-1.2-2.9-2.2v7.5c0,1.6,0.6,3,1.9,4.2
				c1.3,1.2,2.8,1.7,4.6,1.7h10c1.8,0,3.3-0.6,4.5-1.7c1.3-1.2,1.9-2.6,1.9-4.2v-0.4h4.7v1.3c0,2.6-1,4.8-3.1,6.6
				c-2,1.8-4.4,2.7-7.2,2.8h-12.3c-2.8,0-5.2-0.9-7.2-2.8c-2-1.8-3-4-3-6.6V117c0-2.6,1-4.8,3-6.6c2-1.8,4.5-2.7,7.2-2.7H357.8z
				 M342.2,113.4c-1.2,1.1-1.9,2.5-1.9,4.2v3.2H363v-3.2c0-1.7-0.6-3.1-1.9-4.2c-1.3-1.2-2.8-1.8-4.6-1.8h-9.6
				C345.1,111.7,343.6,112.3,342.2,113.4z"/>
			<path class="st3" d="M383.2,107.7l0.8,2.9c0.8-0.6,1.4-1.1,2-1.4c0.5-0.4,1.1-0.7,1.7-1c0.6-0.3,1.1-0.5,1.5-0.5h8.4v4.3h-13.6
				v27.8h-5.2v-32.1H383.2z"/>
		</g>
	</g>
</g>
</svg>
