<svg id="Layer_1" data-name="Layer 1" xmlns="http://www.w3.org/2000/svg" xmlns:xlink="http://www.w3.org/1999/xlink" viewBox="0 0 1066.21 531.15"><defs><style>.cls-1{fill:#7929d2;}.cls-2{fill:#9454db;}.cls-3{fill:#af7fe4;}.cls-4{fill:url(#linear-gradient);}.cls-5{fill:url(#linear-gradient-2);}.cls-6{fill:url(#linear-gradient-3);}.cls-7{fill:url(#linear-gradient-4);}.cls-8{fill:#2d3136;}</style><linearGradient id="linear-gradient" x1="410.04" y1="186.76" x2="650.37" y2="186.76" gradientUnits="userSpaceOnUse"><stop offset="0" stop-color="#7929d2"/><stop offset="1" stop-color="#0070c5"/></linearGradient><linearGradient id="linear-gradient-2" x1="426.4" y1="-24.95" x2="424.39" y2="212.61" gradientUnits="userSpaceOnUse"><stop offset="0" stop-color="#00aeff"/><stop offset="1" stop-color="#9454db"/></linearGradient><linearGradient id="linear-gradient-3" x1="558.68" y1="73.55" x2="507.37" y2="-15.32" gradientUnits="userSpaceOnUse"><stop offset="0" stop-color="#66a9dc"/><stop offset="1" stop-color="#b1e4fa"/></linearGradient><linearGradient id="linear-gradient-4" x1="570.09" y1="3.92" x2="599.24" y2="205.55" xlink:href="#linear-gradient-2"/></defs><title>Untitled-1</title><polygon class="cls-1" points="320.11 282.9 240.72 316.42 308.22 350.51 320.11 282.9"/><polygon class="cls-2" points="148.7 327.32 64.01 295.62 83.64 362.2 148.7 327.32"/><polygon class="cls-3" points="188.85 267.73 240.72 316.42 148.7 327.32 188.85 267.73"/><polygon class="cls-3" points="74.24 221.98 64.01 295.62 0 231.73 74.24 221.98"/><polygon class="cls-4" points="320.11 282.9 529.1 90.63 623.05 215.12 320.11 282.9"/><polygon class="cls-5" points="320.11 282.9 409.38 0 529.1 90.63 320.11 282.9"/><polygon class="cls-6" points="409.38 0 623.05 0 529.1 90.63 409.38 0"/><polygon class="cls-7" points="623.05 215.12 623.05 0 529.1 90.63 623.05 215.12"/><path class="cls-8" d="M1182.91,485.56v19.68H1178V485.56h-7.45v-4.51h19.82v4.51Z" transform="translate(-150.39 -118.93)"/><path class="cls-8" d="M1211.83,505.24V489l-5.8,10.1h-2.84l-5.74-10.1v16.25h-4.75V481.05h5.68l6.31,11.48,6.36-11.48h5.56v24.19Z" transform="translate(-150.39 -118.93)"/><path class="cls-8" d="M558.78,612.56V590l60.3-84.34H561.63v-24.5h89.46v21.56l-60.88,85.38H652.7v24.5Z" transform="translate(-150.39 -118.93)"/><path class="cls-8" d="M690,569.16q.66,13.29,6.45,19.09T714.7,594a40.54,40.54,0,0,0,12.68-1.8,20.27,20.27,0,0,0,9.54-6.94l18.24,13a36.93,36.93,0,0,1-15.53,12.91q-9.54,4.28-26.07,4.28-24.6,0-36.71-12.92t-12.11-39q0-53.47,47.87-53.47,21.27,0,32.43,12t11.16,35v12.06Zm41.88-16.91q0-22.69-19.85-22.69a22.64,22.64,0,0,0-10.73,2.23,16.67,16.67,0,0,0-6.7,6.65q-2.52,4.41-3.94,13.81Z" transform="translate(-150.39 -118.93)"/><path class="cls-8" d="M866.45,562q0,16.05-4.85,28.3t-13.86,18.71q-9,6.45-21.56,6.46-16.53,0-28.21-10.36v44.92h-24.5V512.94h22.6v9.78a58.83,58.83,0,0,1,14.39-9.26,42.06,42.06,0,0,1,17.33-3.37q18.9,0,28.78,13.29T866.45,562Zm-25.27.38q0-14.53-5-22.65t-15-8.12a30.14,30.14,0,0,0-12.29,2.8A41.16,41.16,0,0,0,798,541.33v43.59a39.29,39.29,0,0,0,9.64,6.23,27.5,27.5,0,0,0,11.82,2.7q10.08,0,15.91-8.59T841.18,562.42Z" transform="translate(-150.39 -118.93)"/><path class="cls-8" d="M948.38,612.56V557.67q0-15.76-2.94-20.9T935,531.65q-10.92,0-26.3,14.43v66.48H884.18V471.15h24.51v54.7a56.39,56.39,0,0,1,16.62-11.77,41.81,41.81,0,0,1,17.28-4q16.71,0,23.51,9.4t6.79,26.59v66.48Z" transform="translate(-150.39 -118.93)"/><path class="cls-8" d="M984.46,626a44.33,44.33,0,0,0,14.34,2.76,15.07,15.07,0,0,0,9.68-3.33q4.18-3.32,8.65-13.77l2.56-5.89-36-92.78h25.45l23.55,63.63,24.12-63.63h24.89L1038.87,619.4q-5.22,12.83-10.16,19a29,29,0,0,1-11.54,8.93q-6.6,2.76-16.57,2.75a81.53,81.53,0,0,1-21.37-2.84Z" transform="translate(-150.39 -118.93)"/><path class="cls-8" d="M1153.2,536.87a22.59,22.59,0,0,0-10.07-1.9,27,27,0,0,0-13,3.28,56.92,56.92,0,0,0-12.58,9.54v64.77h-24.51V512.94h24.51v14.24a63.86,63.86,0,0,1,13.48-11.3,30.12,30.12,0,0,1,16.15-4.46q7.59,0,10.82,2Z" transform="translate(-150.39 -118.93)"/></svg>