<svg id="Layer_1" data-name="Layer 1" xmlns="http://www.w3.org/2000/svg" viewBox="0 0 443.93872 177.61548"><defs><style>.cls-1{fill:#e14b26;}.cls-2{fill:#494849;}.cls-3{fill:#464546;}.cls-4{fill:#f0ae8e;}</style></defs><title>zt-systems</title><path class="cls-1" d="M172.25725,37.75282c3.26677,1.87457,7.0795,1.91307,10.54342,3.1441,16.20945,5.76062,26.46339,19.15742,26.83722,36.89145.49173,23.32818.22,46.67277.24677,70.01033q.03479,30.32441.00474,60.64887c-.00008,6.83257-.00054,6.83249-7.07857,6.83264q-85.30285.00169-170.6057.00346,0-86.90452-.0729-173.80891c-.00511-3.00578.58782-3.81506,3.737-3.8065Q104.06284,37.85354,172.25725,37.75282ZM71.06,184.002c10.94545-13.12173,21.37416-25.2912,31.377-37.80115,3.376-4.22214,7.5592-2.95436,11.23415-2.46569,3.66622.48751,1.63629,4.37726,1.68267,6.63834.22573,11.006.0371,22.01972.124,33.0297.065,8.23736,2.84144,12.127,9.772,13.84534,5.99862,1.48726,12.05163,1.061,18.112.28317,1.71658-.22032,2.20129-1.09073,2.16891-2.61725a27.96642,27.96642,0,0,1,.03856-4.92342c.6808-4.29161-.82434-5.69129-5.27325-5.43009-6.07517.35666-8.19689-2.05735-8.23953-8.26741-.06432-9.36684.20917-18.74254-.12435-28.098-.1463-4.10365,1.30436-4.90072,5.02358-4.81194,8.68358.20729,8.49524.02969,8.66618-8.78228.06947-3.58105-1.1219-4.32675-4.45423-4.27733-9.12832.13539-9.13058-.01685-9.13058-9.25785,0-12.65787.00269-12.57993-12.83518-12.13774-2.53831.08743-3.48753.74526-3.39236,3.35.16791,4.59532-.17281,9.21514.11822,13.79811.21852,3.441-.83455,4.45679-4.33736,4.41049-14.78765-.19545-29.57941-.10428-44.36955-.06844-3.916.00949-9.11605-1.29454-11.41426.68671-2.72375,2.34811-.80006,7.70721-.86463,11.749-.15118,9.46305-.04338,9.26385,9.39483,9.49687,3.7253.092,4.97667-.92345,4.56133-4.616-.183-1.62666-1.14661-4.281,2.28455-4.26358,4.32519.02195,8.65058.0053,13.95756.0053-9.72463,11.734-18.47257,22.78635-27.79919,33.3266-4.4364,5.01369-6.6568,10.14028-5.93877,16.80706.27931,2.59334.67375,3.74681,3.60963,3.72228q23.663-.19775,47.32838-.003c2.98644.02366,3.62944-1.21448,3.51013-3.82171-.1501-3.27988-.036-6.57187-.03594-9.85863.00011-8.73264-.00844-8.501-8.77489-8.82441-4.346-.16028-6.4668.84437-5.61842,5.53083.46644,2.57665-.37148,3.84591-3.36419,3.71176C82.81315,183.83259,77.55108,184.002,71.06,184.002Z" transform="translate(-32.1322 -37.66819)"/><path class="cls-2" d="M250.426,152.1711c7.12152.15823,13.056,1.62855,16.054,8.23148.68374,1.5059,2.18005,4.56693-.067,5.08224-2.50173.5737-6.08875,2.44313-8.25461-1.412-2.25-4.00485-6.84971-5.48332-11.28911-3.74932-1.59338.62236-3.08362,1.60833-3.15914,3.39224a3.69058,3.69058,0,0,0,2.894,3.57405c3.10328.98979,6.27014,1.778,9.39169,2.71307,9.65344,2.89161,13.687,7.70541,12.81108,15.23093-.81993,7.04483-6.08124,11.03918-15.68142,11.90529-8.1435.73472-14.7636-2.20127-17.54-8.1591-.9843-2.11221-3.20707-4.77556-.6669-6.89882,2.27854-1.9046,6.88637.04935,8.46732,3.01981,2.62276,4.928,10.25249,6.3001,14.48923,2.60571,3.30292-2.88009,2.86255-6.4062-1.28142-7.93934-4.27646-1.58217-8.84107-2.401-13.08311-4.05716-7.18531-2.80527-10.15953-9.4615-7.28134-15.81559S244.89827,152.53934,250.426,152.1711Z" transform="translate(-32.1322 -37.66819)"/><path class="cls-3" d="M395.665,180.73649c-.00042-3.94068-.07922-7.8838.044-11.82063.041-1.30914-.91468-3.46288,1.09909-3.73618,2.11695-.28732,5.5079-1.4258,6.32554.67419,1.27018,3.262,2.10208,1.15141,3.28389.46361,5.51175-3.20772,9.29088-3.17443,13.90921.87484,1.79047,1.56984,2.435.99229,3.83936-.18511,3.7066-3.10761,7.92834-3.86018,12.37609-1.72249,4.33338,2.08273,5.13672,5.924,5.02093,10.32689-.15531,5.90675-.22806,11.83032.05249,17.72818.15724,3.306-1.54119,3.31638-3.88189,3.19073-2.21775-.119-4.58482.64565-4.36465-3.24483a147.24779,147.24779,0,0,0-.09093-16.73424c-.1377-2.39676-.08208-5.59168-3.98965-5.65155-3.3585-.05147-4.96166,1.76049-5.77,4.87-1.43575,5.523-.61032,11.11174-.65489,16.66-.0242,3.01277-.5339,4.21953-3.95208,4.22111-3.51688.00163-4.41823-1.03206-4.28814-4.4301.2131-5.56456.00581-11.15606-.279-16.72314-.10366-2.02566-.32492-4.43479-3.357-4.59585-2.93838-.15611-5.136.75241-6.08526,3.78485-1.76275,5.63088-.70579,11.4069-.78844,17.10781-.04686,3.2312-.20214,4.888-4.32958,4.90375-4.38331.01674-4.236-2.1483-4.1449-5.12572C395.74968,187.96367,395.66544,184.34878,395.665,180.73649Z" transform="translate(-32.1322 -37.66819)"/><path class="cls-2" d="M304.15812,165.29773c-4.5214,12.31773-8.90818,24.6158-13.57062,36.80846-2.01187,5.26121-5.89121,7.22482-11.70189,7.11058-3.00666-.05908-4.35282-1.312-4.76551-4.26469-.3091-2.2117.07078-2.664,2.42033-2.68919,6.06792-.065,8.19321-3.40394,6.10307-8.97-3.49514-9.30766-7.009-18.60832-10.53645-27.969,8.5793-.88921,8.60576-.89833,11.2211,6.6925,1.59472,4.62859,3.09289,9.29045,4.90374,14.74924,1.8522-5.41068,3.48874-10.18962,5.12408-14.969C295.85129,164.50388,295.85093,164.50376,304.15812,165.29773Z" transform="translate(-32.1322 -37.66819)"/><path class="cls-2" d="M334.27877,172.67776c-3.29412.1089-6.72137,3.183-9.576-1.29927-.49687-.78021-2.45273-.93429-3.70467-.8614-2.00778.1169-4.98523-.42181-5.39879,2.1191-.40348,2.47887,2.69482,2.41579,4.3394,3.02839,2.73488,1.0187,5.71564,1.35465,8.51647,2.22416,4.00132,1.24217,7.178,3.50737,7.30622,8.154.12645,4.583-2.283,7.68536-6.36707,9.6067-6.01449,2.82948-16.38831,1.37379-20.14351-3.08669-1.19809-1.42308-3.86161-3.668-1.77105-5.07322,1.94286-1.306,5.70715-2.75273,7.83533.2278,2.36352,3.31012,5.35183,3.37027,8.68433,2.91289,1.50447-.20648,2.87225-.85881,3.07386-2.65239.22818-2.03039-1.4409-2.46086-2.784-2.85565-3.12876-.9197-6.37613-1.455-9.47151-2.46462-4.39722-1.43417-7.62-4.174-7.22769-9.2521.37509-4.85468,3.48681-7.45516,8.08837-8.65185C324.83255,162.37291,332.1382,165.33458,334.27877,172.67776Z" transform="translate(-32.1322 -37.66819)"/><path class="cls-2" d="M388.928,187.99252c-2.67164,7.03172-7.289,9.69218-15.38914,8.867-7.03072-.7162-11.86726-4.841-12.72126-11.50775-.51553-4.02459-.78173-8.18017.87353-12.13825,2.60407-6.22689,8.32871-9.74538,14.84053-9.04967,6.75761.72194,11.397,5.21857,12.73962,12.34769,1.22771,6.51859,1.22768,6.51888-5.37435,6.52007-3.77745.00069-7.56176.14247-11.33042-.03937-3.82082-.18436-3.6808,1.82662-2.53936,4.28254,1.52626,3.284,6.07514,4.45386,8.79371,2.41932C383.38488,186.27843,383.38488,186.27844,388.928,187.99252Zm-13.58465-9.82064c1.77141-1.5648,5.60268,1.86139,5.69421-2.23549.06923-3.09846-2.38417-5.20647-5.95911-5.03571-3.23184.15439-5.604,1.95291-5.44857,5.003C369.84361,180.09866,373.59649,176.57738,375.34332,178.17188Z" transform="translate(-32.1322 -37.66819)"/><path class="cls-2" d="M474.94415,172.46235c-3.93174,1.24121-7.48648,2.46923-10.38856-1.37348-.37548-.49722-1.55566-.58631-2.34179-.53535-2.13775.13862-5.27921-.822-5.77,2.03838-.4799,2.797,2.77413,2.59,4.60767,3.21354,2.464.83794,5.07321,1.24152,7.55734,2.02939,3.92313,1.24426,7.244,3.11294,7.44961,7.951.20877,4.91153-2.21248,8.01941-6.49918,9.94807-5.99014,2.695-15.99326,1.2738-19.74982-3.00862-1.28137-1.46078-3.85817-3.76761-1.72458-5.22136,1.92438-1.31116,5.70273-2.85291,7.81128.29146,2.32268,3.4637,5.37871,3.20376,8.67049,2.8079a3.21462,3.21462,0,0,0,3.09736-2.703c.22655-1.89044-1.49688-2.37389-2.87728-2.76364-3.13839-.88613-6.37327-1.45354-9.47208-2.45135-4.398-1.4161-7.56414-4.11411-7.23492-9.21023.31778-4.91868,3.38192-7.4859,7.97749-8.69766C464.95708,162.43064,471.83093,165.10578,474.94415,172.46235Z" transform="translate(-32.1322 -37.66819)"/><path class="cls-2" d="M351.77243,153.55077c0,3.19339.10228,5.32514-.02628,7.44288-.155,2.55306-.0472,4.57579,3.46969,4.016,2.63119-.41881,2.316,1.61281,2.24833,3.22164-.06372,1.51523.54464,3.80944-2.06966,3.47252-3.85252-.4965-3.76047,1.73286-3.64673,4.373.11272,2.61638-.01788,5.24229.036,7.86242.0599,2.91048-1.16441,6.596,4.30833,5.86434,2.20649-.295,1.385,2.13409,1.50684,3.40719.1297,1.35435.50386,2.75749-1.66315,3.416-7.547,2.29334-12.33262-.77725-12.7401-8.598-.18731-3.59485.08377-7.21386-.11107-10.80793-.12094-2.23047,1.46738-5.29373-2.94885-5.836-1.5994-.19638-.91453-5.62044.93018-6.35.86742-.34307,2.235-.08494,2.00008-1.4655C341.963,157.08654,347.66507,156.77106,351.77243,153.55077Z" transform="translate(-32.1322 -37.66819)"/><path class="cls-4" d="M218.86893,212.99913c-1.91541-.40107-1.58044-2.30254-1.892-3.44138-.52313-1.9122,1.18688-2.90789,2.81388-3.11395,2.3283-.29483,1.94618,1.46979,1.78237,2.9194C220.2689,210.27554,218.37654,210.7505,218.86893,212.99913Z" transform="translate(-32.1322 -37.66819)"/><path class="cls-1" d="M218.86893,212.99913c-.49239-2.24863,1.4-2.72359,2.70427-3.63592.439.76849.94571.23381,1.43291.07442-2.26806-.54219-.36528,3.16251-2.71774,2.67082C219.89447,212.02614,219.346,212.68353,218.86893,212.99913Z" transform="translate(-32.1322 -37.66819)"/></svg>