<svg xmlns="http://www.w3.org/2000/svg" role="img" viewBox="4.88 17.63 357.24 102.24"><title>Akraino logo</title><defs><linearGradient id="b" x1="-133.918" x2="-132.918" y1="622.251" y2="622.251" gradientTransform="matrix(.2193 0 0 -.2193 149.668 201.08)" gradientUnits="userSpaceOnUse"><stop offset="0" stop-color="#49bcec"/><stop offset=".256" stop-color="#42b7e9"/><stop offset=".636" stop-color="#2eabe1"/><stop offset="1" stop-color="#149bd6"/></linearGradient><clipPath id="a"><path fill="none" d="M120.411 64.638c.034.059.073.115.107.174-.073-.127-.147-.254-.219-.382.04.069.072.139.112.208"/></clipPath></defs><path fill="#9164cc" d="M140.073 70.14V54.36H128.66v15.78h-8.045V34.592a3.069 3.069 0 0 1 .749-2.244 6.594 6.594 0 0 1 1.684-1.435l11.163-5.925a4.274 4.274 0 0 1 1.808-.436 3.475 3.475 0 0 1 1.87.436l8.482 5.551a3.54 3.54 0 0 1 1.279 1.372 4.027 4.027 0 0 1 .468 1.933V70.14zm0-34.737l-4.18-2.744-7.233 3.742v10.54h11.413zm37.853 34.737l-.5-16.963-7.732-5.55-2.682 3.305V70.14h-8.044V25.676h8.044v15.028l10.103-13.594a3.784 3.784 0 0 1 3.056-1.434h5.363l-.063 7.42h-3.99l-6.673 8.794 8.544 5.363a4.934 4.934 0 0 1 1.683 1.995 6.372 6.372 0 0 1 .436 2.433l.499 18.459zm36.544 0l-.311-9.417-7.483-8.98 2.43.998-6.11 1.372 1.497-2.495V70.14h-8.045V25.987l21.702-.311a3.677 3.677 0 0 1 1.87.436 4.457 4.457 0 0 1 1.248 1.06 4.09 4.09 0 0 1 .718 1.31 4.16 4.16 0 0 1 .217 1.247v16.65a4.134 4.134 0 0 1-.966 2.37 5.124 5.124 0 0 1-3.087 1.809l-3.18.748.312-.935 4.615 4.864a6.209 6.209 0 0 1 1.683 3.99l.312 10.915zm-.311-37.293h-9.666v14.157l9.666-2.308zm38.228 37.293V54.36h-11.413v15.78h-8.045V34.592a3.069 3.069 0 0 1 .749-2.244 6.594 6.594 0 0 1 1.684-1.435l11.162-5.925a4.282 4.282 0 0 1 1.809-.436 3.475 3.475 0 0 1 1.87.436l8.482 5.551a3.547 3.547 0 0 1 1.279 1.372 4.027 4.027 0 0 1 .468 1.933V70.14zm0-34.737l-4.18-2.744-7.233 3.742v10.54h11.413zm18.894-9.727h8.045V70.14h-8.045zm27.003 4.614h.25l4.74-3.18a7.692 7.692 0 0 1 4.49-1.434h5.3a3.677 3.677 0 0 1 1.871.436 4.471 4.471 0 0 1 1.247 1.06 4.087 4.087 0 0 1 .717 1.31 4.164 4.164 0 0 1 .218 1.247v40.41h-8.044V32.848h-2.619l-8.108 4.989V70.14h-8.044V25.676h7.982zm57.186 30.87a3.084 3.084 0 0 1-.749 2.244 6.606 6.606 0 0 1-1.684 1.435l-11.162 5.924a4.272 4.272 0 0 1-1.809.437 3.46 3.46 0 0 1-1.87-.437l-8.482-5.55a3.54 3.54 0 0 1-1.279-1.372 4.025 4.025 0 0 1-.468-1.933v-32.18a4.14 4.14 0 0 1 .22-1.247 4.068 4.068 0 0 1 .716-1.31 4.484 4.484 0 0 1 1.247-1.059 3.669 3.669 0 0 1 1.871-.437h19.395a3.664 3.664 0 0 1 1.871.437 4.47 4.47 0 0 1 1.247 1.06 4.24 4.24 0 0 1 .936 2.556zm-8.045-1.435V32.847h-11.413v27.876l4.18 2.744z"/><g clip-path="url(#a)"><path fill="url(#b)" d="M120.299 64.43h.219v.382h-.219z"/></g><path fill="#fff" d="M120.3 64.43c.038.069.072.139.111.208.034.059.073.115.107.174l-.219-.382"/><path fill="#201747" d="M121.385 109.382v-29.42h17.117v5.493h-11.26v6.992h10.352v5.494h-10.352v8.9h11.26v5.492h-14.166a2.658 2.658 0 0 1-1.362-.318 3.2 3.2 0 0 1-.908-.772 2.923 2.923 0 0 1-.522-.952 2.992 2.992 0 0 1-.16-.909m24.291 2.951V80.19l17.343-.227a2.542 2.542 0 0 1 2.066.84 2.698 2.698 0 0 1 .704 1.748v25.334a2.928 2.928 0 0 1-.341 1.407 2.558 2.558 0 0 1-.931 1l-3.95 2.406a3.681 3.681 0 0 1-1.952.41 4.245 4.245 0 0 1-.817-.092l-6.856-2.089-.454 1.407zm12.485-4.358l1.77-1.09V85.183h-8.398v21.158zm15.255-1.589V82.913a3.235 3.235 0 0 1 .159-.93 2.908 2.908 0 0 1 .523-.977 3.24 3.24 0 0 1 .907-.771 2.4 2.4 0 0 1 1.363-.273h16.435l-.454 9.217h-5.266v-3.996h-7.81v20.295l3.042 1.998 4.768-2.678v-7.22h-4.541v-5.13h10.397v13.348a2.887 2.887 0 0 1-1.452 2.497l-7.946 4.54a3.105 3.105 0 0 1-1.316.318 2.52 2.52 0 0 1-1.363-.318l-6.175-4.04a2.575 2.575 0 0 1-.93-1 2.935 2.935 0 0 1-.341-1.407m27.241 2.996v-29.42h17.116v5.493h-11.26v6.992h10.352v5.494h-10.352v8.9h11.26v5.492h-14.165a2.662 2.662 0 0 1-1.363-.318 3.208 3.208 0 0 1-.907-.772 2.904 2.904 0 0 1-.522-.952 2.991 2.991 0 0 1-.159-.909m45.607-19.75v-4.449h-6.472v3.405a2.381 2.381 0 0 0 1.045 1.907l9.49 4.95a3.897 3.897 0 0 1 1.633 1.61 4.852 4.852 0 0 1 .591 2.384v6.401a2.248 2.248 0 0 1-.545 1.635 4.82 4.82 0 0 1-1.226 1.045l-7.628 4.313a3.105 3.105 0 0 1-1.316.318 2.52 2.52 0 0 1-1.363-.318l-6.174-4.04a2.57 2.57 0 0 1-.93-1 2.93 2.93 0 0 1-.342-1.408v-7.218h5.858v6.311l3.042 1.997 4.767-2.724v-3.178a2.55 2.55 0 0 0-.386-1.385 3.815 3.815 0 0 0-1.022-1.067l-9.08-4.585a3.467 3.467 0 0 1-1.794-1.77 5.73 5.73 0 0 1-.476-2.225v-7.628a3.017 3.017 0 0 1 .16-.908 2.975 2.975 0 0 1 .522-.954 3.248 3.248 0 0 1 .911-.772 2.685 2.685 0 0 1 1.365-.317h12.29a2.692 2.692 0 0 1 1.365.317 3.257 3.257 0 0 1 .91.772 3.07 3.07 0 0 1 .683 1.862v6.72zm18.5 22.702V85.365h-6.628v-5.403h19.114v5.403h-6.629v26.969h-5.857zm32.235 0v-11.486h-8.31v11.486h-5.855v-25.88a2.231 2.231 0 0 1 .545-1.633 4.77 4.77 0 0 1 1.225-1.045l8.128-4.313a3.117 3.117 0 0 1 1.316-.318 2.528 2.528 0 0 1 1.362.318l6.175 4.04a2.595 2.595 0 0 1 .93 1 2.933 2.933 0 0 1 .34 1.407v26.424zm0-25.29l-3.042-1.996-5.267 2.724v7.672h8.309zm25.832 2.588v-4.449h-6.31v20.295l3.042 1.997 6.493-3.677 2.815 4.313-8.082 4.677a3.12 3.12 0 0 1-1.316.318 2.523 2.523 0 0 1-1.362-.318l-6.175-4.04a2.57 2.57 0 0 1-.931-1 2.934 2.934 0 0 1-.34-1.408V82.913a2.986 2.986 0 0 1 .159-.908 2.934 2.934 0 0 1 .522-.954 3.244 3.244 0 0 1 .907-.772 2.682 2.682 0 0 1 1.363-.317h14.937l-.454 9.67zm26.788 22.702l-.363-12.35-5.63-4.04-1.952 2.407v13.983h-5.857V79.962h5.857v10.942l7.355-9.898a2.756 2.756 0 0 1 2.225-1.044h3.904l-.045 5.403h-2.906l-4.858 6.402 6.22 3.904a3.596 3.596 0 0 1 1.226 1.454 4.637 4.637 0 0 1 .318 1.77l.363 13.439z"/><path fill="#10cfc9" fill-rule="evenodd" d="M62.412 44.167L28.73 102.504h25.839l26.425-45.768 32.087 55.576H71.554l5.661-9.808h18.879L80.993 76.349l-20.764 35.963H11.742l50.67-87.759 12.919 22.376-5.662 9.807-7.257-12.569z"/></svg>