<svg xmlns="http://www.w3.org/2000/svg" role="img" xmlns:xlink="http://www.w3.org/1999/xlink" viewBox="-18.94 -17.94 1036.88 294.88"><title>Akraino logo</title><style>svg {enable-background:new 0 0 999.9 260}</style><path fill="#9164cc" d="M373.8 195.7v-45.8h-33.1v45.8h-23.2v-103c0-2.6.6-4.6 2-6.4 1.5-1.7 3.2-3.2 4.9-4.1l32.5-17.1c1.7-.9 3.5-1.2 5.2-1.2 2.3 0 4.1.3 5.5 1.2l24.7 16.2c1.5.9 2.9 2.3 3.8 4.1.9 1.7 1.5 3.5 1.5 5.5v105.3h-23.8v-.5zm0-100.7l-12.2-7.8L340.7 98v30.5h33.1V95zm109.6 100.7l-1.5-49.3-22.3-16.2-7.8 9.6v55.7h-23.2V66.9h23.2v43.5L481.1 71c2.3-2.9 5.2-4.1 9-4.1h15.7l-.3 21.5h-11.6l-19.4 25.5 24.7 15.7c2.3 1.7 4.1 3.8 4.9 5.8.9 2 1.2 4.4 1.2 7l1.5 53.7h-23.2v-.4zm106.2 0l-.9-27.3-21.8-26.1 7 2.9-17.7 4.1 4.4-7.3v53.7h-23.2V67.8l62.9-.9c2 0 4.1.3 5.5 1.2 1.5.9 2.6 1.7 3.5 3.2.9 1.2 1.7 2.6 2 3.8.3 1.5.6 2.6.6 3.5V127c0 2-.9 4.4-2.9 7-1.7 2.6-4.9 4.4-9 5.2l-9.3 2 .9-2.6 13.3 14.2c2.9 3.2 4.6 7.3 4.9 11.6l.9 31.6h-21.2v-.3zm-.9-108.2h-28.1v41.2l28.1-6.7V87.5zm110.8 108.2v-45.8h-33.1v45.8h-23.2v-103c0-2.6.6-4.6 2-6.4 1.5-1.7 3.2-3.2 4.9-4.1l32.5-17.1c1.7-.9 3.5-1.2 5.2-1.2 2.3 0 4.1.3 5.5 1.2L718 81.4c1.5.9 2.9 2.3 3.8 4.1.9 1.7 1.5 3.5 1.5 5.5v105.3h-23.8v-.6zm0-100.7l-12.2-7.8L666.4 98v30.5h33.1V95zm54.8-28.1h23.2V196h-23.2zm78.3 13.4h.6l13.6-9.3c4.1-2.9 8.4-4.1 13.1-4.1h15.4c2 0 4.1.3 5.5 1.2s2.6 1.7 3.5 3.2c.9 1.2 1.7 2.6 2 3.8.3 1.5.6 2.6.6 3.5v117.2h-23.2V87.5h-7.5L832.6 102v93.7h-23.2V66.9h23.2v13.4zm165.9 89.3c0 2.6-.6 4.6-2 6.4s-3.2 3.2-4.9 4.1l-32.5 17.1c-1.7.9-3.5 1.2-5.2 1.2-2.3 0-4.1-.3-5.5-1.2l-24.7-16c-1.5-.9-2.9-2.3-3.8-4.1-.9-1.7-1.5-3.5-1.5-5.5V78.5c0-1.2.3-2.3.6-3.5.3-1.5 1.2-2.6 2-3.8.9-1.2 2-2.3 3.5-3.2 1.5-.9 3.2-1.2 5.5-1.2h56.3c2 0 4.1.3 5.5 1.2 1.5.9 2.6 1.7 3.5 3.2.9 1.2 1.7 2.6 2 3.8.3 1.5.6 2.6.6 3.5v91.1h.6zm-23.5-4.1v-78h-33v80.9l12.2 7.8 20.8-10.7z"/><defs><path id="a" d="M316.6 118.8c0 .3.3.3.3.6-.3-.3-.3-.9-.6-1.2 0 .3.3.6.3.6"/></defs><clipPath id="c"><use overflow="visible" xlink:href="#a"/></clipPath><linearGradient id="b" x1="1159.909" x2="1162.81" y1="1918.049" y2="1918.049" gradientTransform="translate(61.989 -301.795) scale(.2193)" gradientUnits="userSpaceOnUse"><stop offset="0" stop-color="#49bcec"/><stop offset=".287" stop-color="#42b6e8"/><stop offset=".713" stop-color="#2ea7de"/><stop offset="1" stop-color="#149bd6"/></linearGradient><path fill="url(#b)" d="M316.3 118.3h.6v1.2h-.6z" clip-path="url(#c)"/><path fill="#fff" d="M316.3 118.3c0 .3.3.3.3.6s.3.3.3.6c0-.4-.3-.7-.6-1.2"/><path fill="#10cfc9" fill-rule="evenodd" d="M148.4 59.7L50.7 228.8h75.1l76.6-132.9 93.1 161.3H175.1l16.2-28.4h54.8l-43.7-75.7L142 257.2H1.4l147-254.4 37.4 64.7-16.2 28.4z" clip-rule="evenodd"/></svg>