<svg xmlns="http://www.w3.org/2000/svg" role="img" viewBox="-5.92 -5.67 438.10 166.60"><title>Alef Mobitech logo</title><path fill="#231f20" d="M346.39 133.173l.004.001zM52.125 69.882v-6.187a1.426 1.426 0 0 1 1.22-.314q7.011-.013 14.022-.003c1.502.002 1.514.017 1.514 1.592q.005 20.531.002 41.063v18.862c0 1.797.076 1.695-1.754 1.695q-6.677 0-13.354-.003c-.49-.001-.981-.044-1.56-.071-.273-2.156-.02-4.262-.159-6.458a4.336 4.336 0 0 0-1.329 1.165 22.399 22.399 0 0 1-10.484 6.193 28.473 28.473 0 0 1-10.574.595 29.608 29.608 0 0 1-11.986-4.199A30.035 30.035 0 0 1 5.78 110.029a36.788 36.788 0 0 1-3.008-18.214 33.794 33.794 0 0 1 6.093-17.38A29.206 29.206 0 0 1 28.95 62.004a28.487 28.487 0 0 1 11.08.426 21.977 21.977 0 0 1 10.75 6.358c.346.36.707.704 1.066 1.05.033.03.107.018.28.044zm.376 24.624a27.988 27.988 0 0 0-.348-3.827c-1.779-8.468-8.716-14.442-18.947-12.705-6.21 1.054-10.225 5.013-12.093 11.06a19.688 19.688 0 0 0-.62 9.368 16.275 16.275 0 0 0 7.409 11.532 16.034 16.034 0 0 0 9.735 2.222 14.776 14.776 0 0 0 11.7-6.36 17.788 17.788 0 0 0 3.164-11.29zm82.587 6.388a4.933 4.933 0 0 0 .52 2.447 14.615 14.615 0 0 0 13.452 10.164 24.644 24.644 0 0 0 16.94-5.234c.886-.676.985-.7 1.661.043q4.49 4.935 8.935 9.91a1.228 1.228 0 0 1 .131.365 9.745 9.745 0 0 1-2.777 2.509 35.024 35.024 0 0 1-14.069 6.137 47.3 47.3 0 0 1-11.089 1.004 33.344 33.344 0 0 1-19.54-6.608 29.425 29.425 0 0 1-8.76-10.951 36.428 36.428 0 0 1-3.236-18.49 33.707 33.707 0 0 1 7.136-19.198 29.094 29.094 0 0 1 17.261-10.553 32.956 32.956 0 0 1 18.068.926 28.22 28.22 0 0 1 16.97 15.718 36.37 36.37 0 0 1 3.125 13.862c.07 2.172-.113 4.324-.107 6.486.003 1.179-.169 1.279-1.399 1.33-.389.017-.779.004-1.168.004q-20.026 0-40.053.004a6.635 6.635 0 0 0-2 .125zm27.395-11.954c-.8-6.538-5.313-12.984-14.694-12.45-7.694.437-12.025 6.287-12.615 12.45zM240.5 36.908c-2.256 4.406-4.5 8.786-6.76 13.202a50.024 50.024 0 0 0-4.867-2.077 16.072 16.072 0 0 0-7.38-.857c-3.338.407-5.125 2.513-5.681 5.828a21.578 21.578 0 0 0-.302 3.15c-.044 2.329-.014 4.66-.014 7.075a31.126 31.126 0 0 0 4.861.14c1.613.03 3.226.006 4.839.006h9.562c.486.363.39.78.391 1.154q.01 6.34.001 12.681c-.004 1.33-.028 1.35-1.426 1.352q-8.092.014-16.185.004h-1.811a3.107 3.107 0 0 0-.224 1.849q-.017 22.025-.012 44.05c-.002 2.4.259 2.113-2.15 2.12-4.339.015-8.677.005-13.015.004-.445 0-.89 0-1.334-.018a.583.583 0 0 1-.627-.623q-.017-.75-.016-1.501-.001-21.942-.007-43.883a4.619 4.619 0 0 0-.12-1.801c-.404-.314-.866-.19-1.296-.19-2.948-.013-5.896 0-8.844-.01-1.416-.006-1.44-.022-1.444-1.33q-.017-6.424 0-12.848c0-.268.048-.536.085-.932h11.177c.593-.471.438-.95.441-1.371.018-2.336-.03-4.673.027-7.008a30.626 30.626 0 0 1 2.38-11.826 19.487 19.487 0 0 1 14.33-11.548 32.232 32.232 0 0 1 9.77-.46 33.916 33.916 0 0 1 13.245 4.084 10.075 10.075 0 0 1 2.406 1.584zM86.581 126.431a5.125 5.125 0 0 1-.148-1.895q-.008-44.902-.003-89.803c0-2.265-.192-2.053 2.068-2.057q6.843-.01 13.687.002c1.365.003 1.366.023 1.391 1.377.006.278.001.557.001.835l-.002 89.469c0 2.498.258 2.221-2.229 2.228q-6.426.016-12.853-.002a5.058 5.058 0 0 1-1.912-.154z"/><circle cx="349.08" cy="77.744" r="74.082" fill="none" stroke="#1dcad3" stroke-miterlimit="10" stroke-width="1.685"/><path fill="none" stroke="#36c0ca" stroke-miterlimit="10" stroke-width="1.584" d="M300.726 130.34c26.705 26.706 74.246 22.463 100.951-4.242s22.462-74.246-4.243-100.951-74.246-22.462-100.95 4.243-22.463 74.246 4.242 100.95z"/><path fill="none" stroke="#23bec8" stroke-miterlimit="10" stroke-width="1.483" d="M304.755 130.554c24.48 24.48 72.655 15.994 97.135-8.486s15.994-72.655-8.485-97.134S320.75 8.94 296.27 33.419s-15.994 72.655 8.485 97.135z"/><path fill="none" stroke="#1fb5be" stroke-miterlimit="10" stroke-width="1.382" d="M308.785 130.768c22.254 22.254 71.064 9.525 93.318-12.729s9.526-71.064-12.728-93.319-71.064-9.525-93.319 12.729-9.525 71.064 12.729 93.319z"/><path fill="none" stroke="#1cafb9" stroke-miterlimit="10" stroke-width="1.281" d="M312.814 130.981c20.03 20.029 69.474 3.058 89.503-16.971s3.057-69.474-16.972-89.503-69.473-3.057-89.502 16.972-3.058 69.473 16.971 89.502z"/><path fill="none" stroke="#11a8b4" stroke-miterlimit="10" stroke-width="1.18" d="M316.844 131.194c17.803 17.804 67.882-3.41 85.686-21.214s-3.41-67.882-21.214-85.686-67.883 3.41-85.687 21.214 3.411 67.883 21.215 85.686z"/><path fill="none" stroke="#007481" stroke-miterlimit="10" stroke-width=".373" d="M303.134 86.957l44.042 44.041 9.51-5.703 45.615-45.615-5.646-9.516-45.787-45.786-11.533 7.954L295.1 76.567l8.034 10.39z"/><path fill="none" stroke="#107b86" stroke-miterlimit="10" stroke-width=".474" d="M353.46 127.153c15.142-12.259 45.669-40.697 50.093-44.924.227-.217-.443-2.937-2.877-6.1-10.368-13.47-41.095-46.517-46.745-52.47-.417-.44-5.284 1.41-10.835 5.988-15.521 12.802-43.952 39.284-48.43 43.556-.26.248 1.735 4.972 6.311 10.52 12.61 15.29 38.503 43.114 43.355 48.22.359.377 4.438-.993 9.127-4.79z"/><path fill="none" stroke="#0c828d" stroke-miterlimit="10" stroke-width=".575" d="M341.02 132.475c4.45 4.45 58.338-42.22 62.79-46.671s-42.221-58.338-46.672-62.79-58.338 42.221-62.79 46.672 42.221 58.338 46.672 62.789z"/><path fill="none" stroke="#128894" stroke-miterlimit="10" stroke-width=".676" d="M336.99 132.262c6.677 6.676 59.93-35.752 66.606-42.429s-35.752-59.929-42.428-66.605-59.93 35.752-66.606 42.428 35.752 59.93 42.429 66.606z"/><path fill="none" stroke="#078f99" stroke-miterlimit="10" stroke-width=".777" d="M332.961 132.048c8.902 8.902 61.52-29.284 70.422-38.185s-29.284-61.52-38.186-70.422-61.52 29.284-70.421 38.186 29.284 61.52 38.185 70.421z"/><path fill="none" stroke="#0d94a0" stroke-miterlimit="10" stroke-width=".878" d="M328.932 131.835c11.127 11.127 63.11-22.816 74.238-33.943s-22.816-63.11-33.943-74.238-63.11 22.816-74.238 33.943 22.816 63.11 33.943 74.238z"/><path fill="none" stroke="#019fae" stroke-miterlimit="10" stroke-width=".978" d="M324.902 131.621c13.353 13.353 64.702-16.347 78.054-29.7s-16.347-64.7-29.7-78.053-64.7 16.347-78.053 29.7 16.347 64.7 29.7 78.053z"/><path fill="none" stroke="#10a4ac" stroke-miterlimit="10" stroke-width="1.079" d="M320.873 131.408c15.578 15.578 66.292-9.88 81.87-25.457s-9.879-66.292-25.457-81.87-66.292 9.879-81.87 25.457 9.879 66.292 25.457 81.87z"/></svg>