<svg xmlns="http://www.w3.org/2000/svg" role="img" viewBox="-1.80 -1.80 613.60 220.10"><title>Alleantia logo</title><defs><style>.cls-2{fill:#545454}.cls-3{fill:#84c8eb}.cls-5{fill:#94bf48}.cls-6{fill:#00628b}.cls-7{fill:#f19300}.cls-8{fill:#e9e45d}.cls-9{fill:#95bf48}.cls-10{fill:#01628b}.cls-11{fill:#cbda83}.cls-12{fill:#e8e45f}.cls-13{fill:#91cce5}.cls-15{fill:#fafae9}.cls-16{fill:#dbdb3c}.cls-17{fill:#e54116}.cls-18{fill:#c8d100}</style></defs><path fill="none" d="M367.302 56.147v-.02c-.007.006-.015.009-.022.016z"/><path d="M112.495 174.437q-3.955-21.722-7.893-43.447-4.1-22.512-8.224-45.02c-.217-1.19-.213-1.198-1.43-1.2-5.226-.002-10.451.03-15.676-.026a2.01 2.01 0 0 0-2.071 1.222c-4.69 8.474-9.436 16.916-14.17 25.366Q42.057 148.77 21.08 186.207q-4.941 8.82-9.894 17.632c-.198.352-.229.915-.84.903v.268c5.224.015 10.449.002 15.672.068a1.916 1.916 0 0 0 1.971-1.147c5.638-10.143 11.328-20.256 16.969-30.397a1.94 1.94 0 0 1 1.951-1.197q22.374.054 44.749.026c1.298 0 1.292.007 1.517 1.242q2.777 15.204 5.558 30.407c.189 1.028.196 1.039 1.261 1.04q8.508.006 17.016-.004c.334-.001.712.124.998-.204a1.49 1.49 0 0 0-.002-.265l-5.51-30.142zm-58.322-17.294l27.164-48.497 8.833 48.447c-1.011.27-34.257.331-35.997.05zm545.855-27.638a16.094 16.094 0 0 0-8.924-11.693 33.15 33.15 0 0 0-11.982-3.089 81.78 81.78 0 0 0-16.043.202 87.326 87.326 0 0 0-22.308 5.384 2.05 2.05 0 0 0-1.45 1.81c-.37 2.199-.833 4.381-1.255 6.571-.454 2.352-.904 4.705-1.359 7.074.576.173.946-.146 1.337-.298a114.458 114.458 0 0 1 11.016-3.75 67.174 67.174 0 0 1 21.945-2.777 17.828 17.828 0 0 1 6.245 1.357 6.96 6.96 0 0 1 4.326 5.251 14.97 14.97 0 0 1 .21 4 115.943 115.943 0 0 1-1.946 11.741c-.135.748-.454.924-1.145.916-3.216-.033-6.428.1-9.638.293a94.246 94.246 0 0 0-15.896 2.153 51.175 51.175 0 0 0-18.237 7.769c-8.935 6.335-13.638 14.911-13.327 25.985.174 6.154 2.558 11.263 7.69 14.876a21.15 21.15 0 0 0 10.65 3.616 35.957 35.957 0 0 0 14.121-1.743 57.406 57.406 0 0 0 15.94-8.359 1.73 1.73 0 0 1 1.073-.542l-1.673 8.802h1.084q8.039 0 16.077-.002c1.185 0 1.2-.006 1.43-1.19q2.059-10.573 4.104-21.149l6.56-33.757a62.79 62.79 0 0 0 1.543-10.715 1.122 1.122 0 0 1 .208-.758v-5.36c-.451-.824-.195-1.749-.376-2.618zm-25.44 48.991a6.016 6.016 0 0 1-2.356 3.954 60.12 60.12 0 0 1-10.963 7.376 26.33 26.33 0 0 1-9.847 2.767 15.364 15.364 0 0 1-4.778-.417c-4.271-1.057-6.545-4.084-6.36-8.497a15.317 15.317 0 0 1 6.367-11.844 30.175 30.175 0 0 1 9.911-4.86 64.095 64.095 0 0 1 13.656-2.455 70.988 70.988 0 0 1 5.478-.257 4.251 4.251 0 0 1 1.59.126c-.921 4.744-1.901 9.41-2.699 14.107z" class="cls-2"/><path d="M122.403 39.437a10.26 10.26 0 0 1 1.01-.329l2.604-1.314a22.65 22.65 0 0 1 3.92-2.53c4.988-2.955 10.047-5.785 15.305-8.237a120.142 120.142 0 0 1 15.903-5.899 126.004 126.004 0 0 1 13.88-3.316c2.885-.53 5.801-.873 8.716-1.229a158.49 158.49 0 0 1 23.109-.694c3.33.08 6.665.316 9.99.658 2.168.223 4.345.373 6.512.62 3.18.363 6.357.75 9.523 1.235 3.295.504 6.578 1.08 9.865 1.633 4.832.812 9.586 1.95 14.335 3.123q20.157 4.977 40.092 10.776 10.067 2.919 20.128 5.856c.314.092.709.088.927.42.378.06.813-.081 1.1.308a59.274 59.274 0 0 0 5.93 1.495q7.465 1.776 14.966 3.396c7.128 1.546 14.273 3 21.464 4.232a18.453 18.453 0 0 1 4.292.918 2.538 2.538 0 0 1 1.102-.095c5.79-.704 11.593-1.306 17.35-2.263-.566-.373-1.218-.173-1.826-.267-3.426-.526-6.852-1.058-10.287-1.53-4.494-.618-8.95-1.458-13.41-2.266-9.101-1.65-18.073-3.901-27.083-5.97-2.34-.538-4.647-1.222-6.953-1.894-9.059-2.639-18.105-5.322-27.168-7.946q-19.615-5.681-39.441-10.58c-4.446-1.102-8.893-2.197-13.41-2.973-6.791-1.168-13.585-2.305-20.446-3.016-4.072-.422-8.14-.85-12.23-1.086-1.69-.097-3.378-.207-5.07-.241a1.085 1.085 0 0 1-.875-.233h-13.398a.593.593 0 0 1-.462.226c-3.564.076-7.105.436-10.645.836a113.4 113.4 0 0 0-8.044 1.19 139.582 139.582 0 0 0-15.671 3.838 116.509 116.509 0 0 0-17.415 6.787 146.034 146.034 0 0 0-17.295 10.139 103.184 103.184 0 0 0-16.75 14.1 3.35 3.35 0 0 0-.842 1.028c1.67-1.018 3.327-2.055 5.01-3.05a108.99 108.99 0 0 1 11.688-5.856z" class="cls-3"/><path d="M337.861 202.738q5.543-28.502 11.08-57.005a51.804 51.804 0 0 0 1.16-13.038c-.465-7.532-4.028-12.885-11.145-15.709a40.62 40.62 0 0 0-13.492-2.497 87.932 87.932 0 0 0-35.012 5.823 2.06 2.06 0 0 0-1.447 1.815c-.45 2.591-.996 5.166-1.496 7.75-.38 1.956-.745 3.916-1.115 5.864.177.05.268.11.333.09.34-.11.674-.232 1.006-.363a111.145 111.145 0 0 1 11.919-4 66.284 66.284 0 0 1 20.908-2.536 17.022 17.022 0 0 1 6.858 1.604 6.953 6.953 0 0 1 3.961 5.812 22.943 22.943 0 0 1-.167 5.607c-.428 3.096-1.09 6.148-1.685 9.213-.193.995-.202 1.009-1.169 1.021-2.768.034-5.534.107-8.3.244a100.184 100.184 0 0 0-15.927 1.931 52.582 52.582 0 0 0-18.655 7.46c-9.817 6.586-14.876 15.703-14.129 27.658a17.387 17.387 0 0 0 8.52 14.39 21.268 21.268 0 0 0 9.356 2.99 35.717 35.717 0 0 0 13.882-1.518 56.736 56.736 0 0 0 16.145-8.243 5.072 5.072 0 0 1 1.506-.914l-1.657 8.717a3.432 3.432 0 0 0 1.535.145q7.235.012 14.47-.003c.748-.003 1.666.314 2.203-.17.52-.467.41-1.402.554-2.138zm-12.136-31.974c-.596 3.064-1.211 6.124-1.795 9.19a2.01 2.01 0 0 1-.63 1.27 55.454 55.454 0 0 1-13.595 9.18 24.875 24.875 0 0 1-8.644 2.185 13.699 13.699 0 0 1-6.548-1.03c-3.307-1.485-4.763-4.37-4.564-8.058a15.162 15.162 0 0 1 5.792-11.195 29.792 29.792 0 0 1 10.938-5.459 70.361 70.361 0 0 1 19.568-2.586c.173 0 .346.04.708.083-.426 2.224-.821 4.324-1.23 6.42zm-57.391-50.726a28.512 28.512 0 0 0-9.324-4.26 45.777 45.777 0 0 0-18.063-.848 50.198 50.198 0 0 0-19.903 7.06c-9.31 5.758-15.825 13.898-20.155 23.862a73.424 73.424 0 0 0-5.43 20.627 50.218 50.218 0 0 0 .284 15.595c2.044 10.631 8.04 17.989 18.194 21.864 6.568 2.507 13.432 3.138 20.39 3.065a99.975 99.975 0 0 0 10.151-.62 103.268 103.268 0 0 0 16.657-3.256 1.368 1.368 0 0 0 1.15-1.233c.547-3.073 1.186-6.129 1.78-9.193.33-1.699.638-3.402 1-5.338-.67.177-1.1.286-1.525.403-8.66 2.38-17.39 4.379-26.406 4.795a35.103 35.103 0 0 1-11.923-1.232 15.073 15.073 0 0 1-9.842-8.248 21.094 21.094 0 0 1-1.648-5.771 41.992 41.992 0 0 1-.218-8.152c.05-1.138.075-1.137 1.265-1.152h.134c5.359.038 10.711-.08 16.058-.475a85.82 85.82 0 0 0 16.876-2.752 48.276 48.276 0 0 0 18.687-9.54 28.546 28.546 0 0 0 9.191-13.236 18.938 18.938 0 0 0-7.38-21.965zm-10.55 20.124a13.184 13.184 0 0 1-4.702 6.36 28.553 28.553 0 0 1-11.07 5.147 60.45 60.45 0 0 1-12.317 1.572c-3.922.14-7.85.122-11.775.165a2.295 2.295 0 0 1-1.202-.161 33.31 33.31 0 0 1 1.824-4.901 34.02 34.02 0 0 1 10.068-13.473 27.827 27.827 0 0 1 19.505-5.934 13.687 13.687 0 0 1 5.984 1.75 7.602 7.602 0 0 1 3.685 9.475zm154.261 24.632q-3.822 19.7-7.65 39.399c-.05.25-.191.502.013.774a1.71 1.71 0 0 0 .369.08c5.67.005 11.34-.005 17.011.02.706.003.875-.302.994-.923 1.215-6.351 2.464-12.695 3.699-19.042q3.155-16.218 6.302-32.438c1.136-5.867 2.391-11.715 2.703-17.71a29.834 29.834 0 0 0-.745-8.902 14 14 0 0 0-10.334-10.708 24.335 24.335 0 0 0-5.406-.87 39.897 39.897 0 0 0-16.145 2.555 56.458 56.458 0 0 0-15.869 9.297 2.79 2.79 0 0 1-1.21.788l2.038-10.574a1.987 1.987 0 0 0-1.249-.179q-7.903-.011-15.806-.004c-1.276 0-1.29.003-1.532 1.25q-3.79 19.502-7.572 39.005-4.094 21.077-8.192 42.154c-.397 2.046-.787 4.094-1.188 6.182a4.361 4.361 0 0 0 .61.099c5.625.006 11.251-.009 16.877.024.793.005.923-.369 1.048-1.02q2.759-14.318 5.564-28.628 2.835-14.576 5.656-29.156a2.688 2.688 0 0 1 .535-1.205 50.48 50.48 0 0 1 13.792-12.541 24.068 24.068 0 0 1 13.903-3.63c4.385.274 6.484 2.417 6.627 6.778a35.116 35.116 0 0 1-.707 7.716c-1.355 7.141-2.75 14.274-4.136 21.41zm50.59 42.119a89.53 89.53 0 0 0 18.003-1.173c1.13-.165 1.121-.191 1.334-1.283.588-3.02 1.205-6.035 1.761-9.062a35.685 35.685 0 0 0 .75-4.347 8.29 8.29 0 0 0-.883.07c-2.496.49-5.006.894-7.535 1.166a27.55 27.55 0 0 1-5.606.295c-4.026-.39-5.578-2.107-5.67-6.156a40.282 40.282 0 0 1 .977-8.494q1.911-9.987 3.87-19.965 2.551-13.134 5.088-26.27c.14-.738.454-.989 1.153-.914a8.866 8.866 0 0 0 .937.005l18.22-.001c1.236 0 1.249-.003 1.497-1.26q.907-4.593 1.79-9.192a32.71 32.71 0 0 0 .693-4.026h-21.278l3.737-19.234a5.176 5.176 0 0 0-.582-.089c-5.627-.004-11.254.01-16.88-.024-.773-.005-.962.318-1.09.992q-1.655 8.674-3.372 17.335c-.205 1.04-.224 1.047-1.26 1.05-3.082.005-6.163-.002-9.244.003-1.18.001-1.178.009-1.415 1.213-.499 2.538-1.007 5.074-1.5 7.614-.354 1.829-.689 3.661-1.057 5.623h11.358a3.954 3.954 0 0 1-.004.634c-1.447 7.442-2.94 14.876-4.34 22.326-1.897 10.08-4.175 20.09-5.612 30.254a36.235 36.235 0 0 0-.149 10.938c.865 5.322 3.781 8.936 8.955 10.654a28.187 28.187 0 0 0 7.354 1.318zM201.265 77.59a1.773 1.773 0 0 0-.373-.078c-5.672-.006-11.344.003-17.016-.022-.711-.004-.879.311-.996.932-.773 4.12-1.588 8.234-2.387 12.35l-6.786 34.94q-3.436 17.666-6.882 35.33l-6.574 33.754c-.655 3.367-1.302 6.735-1.946 10.067a1.02 1.02 0 0 0 .7.189l5.359.002q5.627 0 11.254.003c.772.001 1.094.135 1.201-.978.051-.53.197-1.051.3-1.577l8.452-43.34q4.087-21.016 8.152-42.036 3.765-19.375 7.548-38.746a1.026 1.026 0 0 0-.006-.79zm-34.674.066a1.838 1.838 0 0 0-.393-.134c-5.716-.01-11.432-.003-17.149-.035-.736-.004-.871.361-.986.955q-1.985 10.315-4.004 20.623l-6.308 32.444-6.561 33.757q-3.015 15.499-6.036 30.997-.841 4.322-1.668 8.657a2.103 2.103 0 0 0 .452.12c5.716.008 11.433 0 17.15.026.661.003.793-.298.9-.86.756-3.988 1.554-7.968 2.33-11.952q3.299-16.943 6.59-33.888l7.332-37.698 6.872-35.333c.492-2.535.977-5.07 1.479-7.68z" class="cls-2"/><path fill="#e54016" d="M336.47 65.457c-6.472-1.295-12.873-2.891-19.302-4.371-10.26-2.363-20.24-5.709-30.396-8.434-14.943-4.009-29.946-7.752-45.126-10.76-.917-.18-1.84-.326-2.761-.489h-.002l-1.57-.145c-2.745.248-5.497.412-8.245.612-2.08.15-4.17.261-6.238.521-2.291.288-4.595.45-6.888.694-2.072.22-4.157.416-6.224.665-1.166.14-2.4-.048-3.514.493.532.021 1.065.036 1.598.065 3.644.195 7.304.02 10.937.476a71.171 71.171 0 0 1 8.937.659c16.547 1.847 32.6 6.09 48.68 10.171 11.503 2.92 22.861 6.365 34.284 9.576 3.215.904 6.498 1.566 9.747 2.35.559.135 1.105.32 1.658.483h.001c2.426.383 4.794 1.037 7.19 1.554a364.614 364.614 0 0 0 41.079 6.496c7.108.705 14.24 1.095 21.376 1.324a282.88 282.88 0 0 0 36.376-1.206q11.793-1.142 23.494-2.967a356.754 356.754 0 0 0 38.96-8.343 238.179 238.179 0 0 0 49.698-19.563 3.125 3.125 0 0 0 1.179-.748c-.35-.167-.588-.005-.835.076-2.884.937-5.765 1.885-8.652 2.812-14.358 4.61-28.933 8.45-43.495 12.347a372.455 372.455 0 0 1-42.698 8.745q-11.324 1.647-22.737 2.552c-8.015.625-16.036 1.032-24.075.952a345.872 345.872 0 0 1-23.938-1.09c-2.799-.223-5.607-.414-8.382-.889-3.565-.212-7.09-.764-10.616-1.268q-9.795-1.4-19.5-3.35z"/><path d="M522.264 123.736c.466-2.402.937-4.803 1.44-7.38h-1.548c-5.089 0-10.177-.01-15.266.005-1.804.005-1.481-.277-1.84 1.504-.987 4.895-1.911 9.802-2.864 14.703q-3.279 16.871-6.561 33.741l-6 30.853c-.5 2.577-1.003 5.154-1.496 7.686a.98.98 0 0 0 .707.204c5.58.001 11.16-.012 16.74.018.76.004.957-.306 1.085-.986.887-4.732 1.816-9.456 2.736-14.182q3.168-16.278 6.34-32.556 3.268-16.804 6.527-33.61z" class="cls-2"/><path d="M536.119 38.308c-1.37.3-2.745.58-4.11.903q-13.708 3.246-27.553 5.843c-7.086 1.317-14.165 2.671-21.26 3.936-5.43.968-10.863 1.945-16.333 2.676-3.352.448-6.723.753-10.078 1.178-4.33.549-8.687.816-13.028 1.238-1.374.133-2.757.16-4.135.274-2.22.183-4.452.215-6.678.332-8.07.426-16.146.37-24.22.223q-6.546-.119-13.078-.708c-2.926-.261-5.856-.47-8.767-.883l-1.091.02a5.02 5.02 0 0 1-1.922.325c-1.385.248-2.765.534-4.156.737-2.583.377-5.166.78-7.763 1.019a26.442 26.442 0 0 1-3.44.336 1.434 1.434 0 0 0-1.206.37v.02c3.8.718 7.631 1.238 11.463 1.739 4.194.548 8.391 1.08 12.599 1.502 3.19.32 6.39.598 9.6.694.522.015 1.09-.086 1.493.398a28.747 28.747 0 0 1 6.39-.066c1.377.047 2.755.124 4.133.126 3.783.005 7.568.047 11.349-.04 2.044-.047 4.088-.161 6.134-.19a2.744 2.744 0 0 1 1.44.163 13.8 13.8 0 0 1 3.18-.399c1.026-.018 2.054-.032 3.077-.107 6-.443 12.006-.815 17.985-1.511 4.027-.47 8.06-.889 12.075-1.442 6.002-.827 11.954-1.96 17.906-3.091a249.339 249.339 0 0 0 41.608-11.832c1.86-.967 3.87-1.576 5.781-2.418a13.246 13.246 0 0 0 2.605-1.365z" class="cls-5"/><path d="M387.687 53.047q8.472.882 16.98 1.294c7.898.377 15.793.265 23.682.144 5.558-.085 11.122-.517 16.677-.95 11.305-.88 22.549-2.193 33.714-4.171 18.586-3.294 37.156-6.664 55.526-11.046.665-.158 1.696-.64 1.948.072.272.768-.867.908-1.46 1.18a67.887 67.887 0 0 1-7.02 2.521 3.395 3.395 0 0 0 1.435-.244q3.65-1.079 7.306-2.134c7.795-2.243 15.465-4.858 23.043-7.748a287.608 287.608 0 0 0 29.877-13.743c.682-.354 1.341-.752 2.094-1.176a.933.933 0 0 0-.916.048c-2.856 1.01-5.707 2.032-8.57 3.023q-19.32 6.688-39.01 12.194-9.892 2.789-19.81 5.483c-7.13 1.928-14.33 3.564-21.57 5.014-5.098 1.022-10.204 2.01-15.348 2.793-3.164.481-6.311 1.072-9.482 1.493-.836.112-1.705.586-2.584.123a26.14 26.14 0 0 1-6.022 1.013c-3.889.478-7.787.873-11.683 1.29q-1.728.185-3.462.296a1.723 1.723 0 0 1-1.292-.164c-.73-.054-1.316.442-2.056.472-2.976.118-5.947.436-8.923.477-3.474.049-6.94.29-10.413.31-6.146.036-12.283-.2-18.42-.485-3.11-.144-6.222-.235-9.317-.592a25.649 25.649 0 0 0-3.639.836c-3.741.891-7.49 1.739-11.285 2.377z" class="cls-3"/><path d="M536.214 38.39c-.252-.712-1.283-.23-1.948-.072-18.37 4.382-36.94 7.752-55.526 11.046-11.165 1.978-22.41 3.292-33.714 4.172-5.555.432-11.118.864-16.677.95-7.889.12-15.784.232-23.681-.145q-8.517-.407-16.981-1.294c-.156.026-.31.057-.467.083a1.172 1.172 0 0 0-.341.19c2.91.412 5.84.622 8.767.883q6.53.584 13.078.708c8.074.147 16.15.203 24.22-.223 2.226-.117 4.458-.15 6.678-.332 1.378-.114 2.761-.14 4.135-.274 4.341-.422 8.697-.689 13.028-1.238 3.355-.425 6.726-.73 10.078-1.178 5.47-.731 10.902-1.708 16.333-2.676 7.095-1.265 14.174-2.619 21.26-3.936q13.85-2.576 27.553-5.843c1.365-.323 2.74-.603 4.11-.903a13.246 13.246 0 0 1-2.605 1.365c-1.912.842-3.921 1.45-5.78 2.419a67.887 67.887 0 0 0 7.02-2.523c.593-.27 1.732-.41 1.46-1.179z" class="cls-3"/><path d="M408.253 60.76c-1.916-.117-3.837-.006-5.755-.006a6.47 6.47 0 0 0-.648-.193c-4.527.6-9.049 1.244-13.585 1.763-4.163.477-8.34.85-12.518 1.18a253.605 253.605 0 0 1-26.612.765q-7.023-.186-14.037-.631c-3.077-.2-6.03-1.176-9.027-1.85-2.521-.566-4.998-1.349-7.532-1.839-6.187-1.196-12.106-3.332-18.157-5.004a5.133 5.133 0 0 1-.61-.255c-3.621-.945-7.244-1.879-10.86-2.837-5.52-1.464-10.982-3.12-16.406-4.903-1.437-.472-2.901-.86-4.353-1.288h-.003l-12-3.154c-2.281-.597-4.566-1.181-6.847-1.778a4.795 4.795 0 0 1-.607-.249 75.365 75.365 0 0 0-8.834.785c5.18.82 10.293 1.983 15.41 3.118 19.57 4.338 38.762 10.094 58.08 15.384a315.291 315.291 0 0 0 31.366 6.86c6.864 1.146 13.735 2.227 20.654 2.977a1.704 1.704 0 0 1 1.214.47h.001c1.86-.207 3.659-.788 5.546-.817 1.115-.018 2.23-.102 3.342-.191 5.87-.475 11.731-1.029 17.576-1.758q8.765-1.094 17.471-2.568 10.752-1.822 21.38-4.267c-1.737.009-3.463.214-5.196.306a161.576 161.576 0 0 1-18.453-.02z" class="cls-6"/><path d="M344.718 66.628a315.291 315.291 0 0 1-31.365-6.86c-19.32-5.29-38.511-11.046-58.08-15.384-5.118-1.135-10.23-2.298-15.411-3.118-.326.047-.652.087-.977.137.92.163 1.844.308 2.761.49 15.18 3.007 30.183 6.75 45.126 10.76 10.156 2.724 20.136 6.07 30.396 8.433 6.43 1.48 12.83 3.076 19.302 4.37q9.705 1.942 19.5 3.35c3.526.505 7.051 1.057 10.616 1.269a1.704 1.704 0 0 0-1.214-.47c-6.92-.75-13.79-1.831-20.654-2.977zm85.744-6.318c-2.046.029-4.09.143-6.134.19-3.781.087-7.566.046-11.349.04-1.378-.002-2.756-.079-4.132-.125a28.747 28.747 0 0 0-6.391.065l-.606.081a6.47 6.47 0 0 1 .648.193c1.918 0 3.84-.11 5.755.006a161.576 161.576 0 0 0 18.453.02c1.732-.092 3.459-.297 5.196-.307a2.744 2.744 0 0 0-1.44-.162z" class="cls-6"/><path d="M207.337 43.583c6.735-.71 13.465-1.458 20.223-1.954 2.887-.212 5.778-.385 8.661-.647-1.148-.236-2.32-.33-3.48-.481q-4.626-.607-9.276-1.03c-1.506-.135-3.02-.208-4.53-.299q-6.947-.416-13.91-.298a2.799 2.799 0 0 1-.397-.049l-1.91.098a8.734 8.734 0 0 1-2.74.398c-2.402.414-4.847.58-7.266.905-2.901.39-5.793.848-8.69 1.267-2.68.388-5.365.734-8.04 1.15-2.85.443-5.693.928-8.533 1.428-3.801.668-7.606 1.322-11.391 2.07-2.918.575-5.812 1.277-8.712 1.94q-8.774 2.004-17.42 4.502a164.473 164.473 0 0 0-20.394 7.177c-1.96.855-3.895 1.768-5.843 2.652a1.59 1.59 0 0 1-1.015.265c-3.66 1.8-7.129 3.94-10.646 5.994-.342.2-.697.377-1.047.566l-.001.001-.543.56v.002l10.192-3.861a.845.845 0 0 1 .827-.267c.194-.31.498-.298.808-.272a9.011 9.011 0 0 1 3.018-1.287c10.012-3.623 20.176-6.758 30.464-9.508 6.23-1.666 12.448-3.379 18.73-4.841a139 139 0 0 1 10.869-2.06c2.724-.409 5.441-.87 8.17-1.25 1.848-.258 3.71-.421 5.568-.618 2.343-.248 4.687-.482 7.03-.73 1.329-.142 2.67-.184 3.997-.256a116.646 116.646 0 0 1 11.895-.35l4.198-.257c.098-.698.685-.612 1.134-.66z" class="cls-7"/><path d="M209.718 43.75c2.067-.25 4.152-.445 6.224-.665 2.293-.244 4.597-.406 6.888-.694 2.067-.26 4.158-.37 6.238-.521 2.748-.2 5.5-.364 8.245-.612-.36-.112-.725-.2-1.092-.276-2.883.262-5.774.435-8.661.647-6.758.496-13.488 1.244-20.223 1.954-.45.048-1.036-.038-1.134.66 1.114-.54 2.349-.352 3.515-.493z" class="cls-7"/><path d="M512.744 84.772c-1.454.002-1.224-.137-1.51 1.264-.75 3.67-1.445 7.352-2.157 11.03-.38 1.965-.75 3.93-1.125 5.903.221.109.261.146.301.146 5.76.01 11.522.01 17.282.035.646.003.814-.295.923-.861 1.048-5.476 2.129-10.946 3.185-16.42.208-1.078.179-1.096-.955-1.097q-7.972-.008-15.944 0z" class="cls-2"/><path d="M267.097 53.622c-10.264-2.533-20.557-4.958-30.995-6.691-4.355-.724-8.743-1.193-13.145-1.555-1.41-.116-2.815-.374-4.218-.592a1.147 1.147 0 0 0 .608.243c6.105 1.501 12.175 3.134 18.26 4.712 10.83 2.808 21.446 6.38 32.349 8.936 8.25 1.935 16.487 3.9 24.823 5.438q9.805 1.809 19.69 3.094c2.518.326 5.035.696 7.577.817a154.33 154.33 0 0 1-17.394-4.114c-12.445-3.697-24.952-7.177-37.555-10.288z" class="cls-6"/><path d="M310.64 65.19c-11.423-3.21-22.781-6.657-34.284-9.576-16.08-4.08-32.132-8.324-48.68-10.171a71.171 71.171 0 0 0-8.937-.659c1.403.218 2.808.476 4.218.592 4.402.362 8.79.831 13.145 1.554 10.438 1.734 20.73 4.159 30.995 6.692 12.604 3.11 25.11 6.59 37.555 10.288a154.33 154.33 0 0 0 17.393 4.113c-.553-.162-1.099-.349-1.658-.483-3.25-.784-6.532-1.446-9.747-2.35z" class="cls-6"/><path d="M369.348 50.528c-.407.033-.808.121-1.213.183 1.503.32 3.033.49 4.549.725 3.673.57 7.36 1.046 11.039 1.584a10.442 10.442 0 0 1 1.653.12 3.26 3.26 0 0 0 .406-.102 5.397 5.397 0 0 1 1.17-.064l.028.003c.183-.277.58-.241.876-.299 4.44-.856 8.857-1.818 13.237-2.948.505-.13 1.038-.31 1.518.104a1.495 1.495 0 0 1 .34-.198c5.38-1.451 10.654-3.236 15.881-5.158a11.927 11.927 0 0 0 2.88-1.258c-1.25.097-2.474.283-3.7.463-3.52.517-7.038 1.05-10.562 1.54-2.997.416-6.002.773-9.001 1.168-3 .395-5.995.815-8.994 1.207-1.674.219-3.353.403-5.03.603a1.879 1.879 0 0 1-1.42.632c-4.542.645-9.08 1.328-13.657 1.695z" class="cls-8"/><path d="M368.135 50.71c.405-.061.806-.15 1.213-.182 4.577-.367 9.115-1.05 13.657-1.695a1.879 1.879 0 0 0 1.42-.632c-5.756.957-11.559 1.56-17.348 2.263.35.096.704.172 1.058.247zm17.653 2.63l1.09-.02h.001a.66.66 0 0 1 .1-.343l-.028-.003a5.397 5.397 0 0 0-1.17.064 3.26 3.26 0 0 1-.405.103 1.413 1.413 0 0 1 .411.2zm15.305-3.61c-4.38 1.13-8.796 2.092-13.237 2.948-.296.058-.693.022-.876.299.235.025.471.045.707.07 3.794-.638 7.544-1.486 11.285-2.377a25.649 25.649 0 0 1 3.639-.836c-.48-.414-1.013-.234-1.518-.104z" class="cls-8"/><path d="M387.22 53.13c.156-.025.311-.057.467-.083-.236-.025-.472-.045-.707-.07a.66.66 0 0 0-.101.343 1.172 1.172 0 0 1 .341-.19z" class="cls-8"/><path d="M183.886 45.717a237.876 237.876 0 0 0-23.732 3.28c-12.364 2.453-24.47 5.923-36.55 9.47-6.803 1.998-13.536 4.219-20.244 6.515a6.272 6.272 0 0 0-1.09.42l-.009.008a4.28 4.28 0 0 0 1.532-.384c2.173-.665 4.33-1.38 6.509-2.029 8.887-2.644 17.91-4.758 26.926-6.907 10.356-2.468 20.722-4.869 31.237-6.603 10.109-1.668 20.234-3.195 30.395-4.496a11.528 11.528 0 0 0 3.145-.491c-1.627.243-3.273.266-4.91.352-4.407.23-8.817.447-13.21.865z" class="cls-9"/><path d="M190.11 44.85c-1.328.072-2.668.114-3.997.255-2.343.25-4.687.483-7.03.731-1.857.197-3.72.36-5.569.618-2.728.38-5.445.841-8.17 1.25a139 139 0 0 0-10.868 2.06c-6.282 1.462-12.5 3.175-18.73 4.841-10.288 2.75-20.452 5.885-30.464 9.508a9.011 9.011 0 0 0-3.019 1.287h.007v.001a6.272 6.272 0 0 1 1.09-.42c6.708-2.295 13.441-4.516 20.244-6.513 12.08-3.548 24.186-7.018 36.55-9.47a237.876 237.876 0 0 1 23.732-3.28c4.392-.42 8.802-.635 13.21-.866 1.636-.086 3.282-.109 4.909-.352a116.646 116.646 0 0 0-11.895.35z" class="cls-9"/><path d="M456.083 49.121c5.807-.534 11.618-1.06 17.371-2.061a.754.754 0 0 1 .745.157 218.97 218.97 0 0 0 21.509-10.438c-1.695.413-3.336.955-4.979 1.492-12.874 4.214-25.882 7.967-38.99 11.381 1.489.175 2.887-.397 4.344-.53z" class="cls-10"/><path d="M453.032 49.816q1.733-.112 3.462-.296c3.896-.417 7.794-.812 11.683-1.29a26.14 26.14 0 0 0 6.022-1.013.754.754 0 0 0-.745-.157c-5.753 1-11.564 1.527-17.37 2.061-1.458.134-2.856.706-4.344.531a1.723 1.723 0 0 0 1.292.164z" class="cls-10"/><path d="M102.454 51.877a110.265 110.265 0 0 0-7.47 9.96 11.33 11.33 0 0 0-1.835 3.034c1.14-1.225 2.233-2.499 3.432-3.663a24.637 24.637 0 0 1 4.9-4.198c.852-.927 2.036-1.43 2.928-2.305-.34-.42.127-.555.305-.717 1.774-1.613 3.53-3.25 5.367-4.788 2.31-1.935 4.645-3.845 7.117-5.577q2.78-1.948 5.572-3.88c.105-.072.212-.138.311-.21a101.369 101.369 0 0 0-15.818 8.274c-.462.3-.887.802-1.558.536-.612.694-1.524 1.034-2.098 1.774.005.834-.716 1.25-1.153 1.76z" class="cls-11"/><path d="M107.263 47.807a101.369 101.369 0 0 1 15.818-8.274.792.792 0 0 0 .332-.425 10.26 10.26 0 0 0-1.01.329 108.99 108.99 0 0 0-11.688 5.855c-1.683.996-3.34 2.033-5.01 3.05.67.267 1.096-.234 1.558-.535z" class="cls-11"/><path d="M93.106 64.887c-.304-.827.322-1.361.695-1.91a126.23 126.23 0 0 1 8.552-11.488c.406-.471.996-.772 1.254-1.372-.256.175-.526.334-.767.528a38.98 38.98 0 0 0-9.507 10.92 30.726 30.726 0 0 0-3.392 7.951l3.195-4.626c-.01-.002-.019 0-.03-.003z" class="cls-12"/><path d="M102.353 51.489a126.23 126.23 0 0 0-8.552 11.489c-.373.548-.999 1.082-.695 1.909l.03.003.013-.019a11.33 11.33 0 0 1 1.835-3.035 110.265 110.265 0 0 1 7.47-9.959c.437-.51 1.158-.926 1.153-1.76-.258.6-.848.9-1.254 1.372z" class="cls-12"/><path d="M89.86 70.298c.209.117.558-.119.576-.498-.153-.44.181-.612.446-.825.17-.106.344-.206.515-.31a12.11 12.11 0 0 0 1.484-1.642c-.447-.307-.086-.528.097-.735.878-.993 1.754-1.988 2.66-2.956 1.739-1.86 3.497-3.7 5.243-5.553a53.646 53.646 0 0 0-6.62 6.386c-.312.339-.52.845-1.12.726a9.336 9.336 0 0 1-3.2 4.625c.042.28-.415.594-.08.782z" class="cls-13"/><path d="M90.98 69.238a3.368 3.368 0 0 1 .417-.574c-.171.105-.345.205-.515.311-.265.213-.599.386-.446.825v-.001l.544-.56zm10.5-12.227h.001a24.637 24.637 0 0 0-4.9 4.197c-1.2 1.164-2.292 2.438-3.432 3.663l-.007.02c.599.12.807-.387 1.118-.726a53.646 53.646 0 0 1 6.621-6.386l.128-.135a6.686 6.686 0 0 0 .471-.633zm-8.338 7.88h-.006l-3.195 4.625a9.336 9.336 0 0 0 3.2-4.625z" class="cls-13"/><path d="M93.15 64.871l-.014.02h.006l.007-.02z" class="cls-13"/><path d="M100.629 65.939a.785.785 0 0 0 .83-.256h-.01c-.238.197-.597.013-.82.256z" class="cls-9"/><path d="M101.446 65.683l.01-.011a.845.845 0 0 0-.827.267c.223-.243.582-.059.82-.256zm.016-.011h.008l-.011.011a.788.788 0 0 0 .802-.273h-.009c-.224.203-.578.024-.79.262z" class="cls-9"/><path fill="none" stroke="#95bf48" stroke-linecap="round" stroke-linejoin="round" stroke-width="0" d="M101.47 65.673h0"/><path d="M102.252 65.41h-.004l.015-.01c-.309-.026-.613-.037-.807.272h.006c.212-.238.566-.059.79-.262zm.015-.008c-.004.004-.01.004-.015.008h.01l.007-.009z" class="cls-9"/><path d="M102.252 65.41c.005-.004.01-.004.015-.008l-.019.008z" class="cls-9"/><path d="M102.267 65.402l.003-.001-.022.01z" class="cls-9"/><path d="M102.269 65.401h.001l-.003.001.002-.001zm.001-.001h-.007l-.015.01zm-.82.283h.009l.01-.01c-.005.005-.014.005-.02.01z" class="cls-9"/><path d="M101.47 65.673h-.008c-.005.004-.012.004-.016.01zm-.02.01c.005-.005.014-.005.02-.01l-.024.01z" class="cls-9"/><path d="M101.462 65.672h-.006l-.01.01c.004-.005.011-.005.016-.01z" class="cls-9"/><path d="M123.45 45.03a2.208 2.208 0 0 1 1.155-.272 61.475 61.475 0 0 1 11.178-4.26 242.559 242.559 0 0 1 25.959-5.693q11.676-1.944 23.476-2.824a48.18 48.18 0 0 1 6.539-.233h.003c3.245-.17 6.47-.633 9.725-.694 1.29-.024 2.573-.207 3.87-.2a133.1 133.1 0 0 1 15.323.993 129.459 129.459 0 0 1 17.653 3.535.996.996 0 0 1 .59.271l1.07.035h-.001c2.563-.267 5.12-.646 7.69-.766 1.886-.088 3.766-.296 5.653-.343-11.21-3.583-22.486-6.89-34.267-8.089a117.016 117.016 0 0 0-19.904-.409c-4.002.275-8.017.375-12.018.635-6.853.445-13.691 1.108-20.488 2.138a250.414 250.414 0 0 0-32.869 6.9c-1.97.576-3.941 1.148-5.866 1.87a2.36 2.36 0 0 1-1.62.31 18.021 18.021 0 0 1-2.82 1.423l-.037.016c-.017.452-.475.617-.79.823a123.555 123.555 0 0 0-13.802 10.51 27.495 27.495 0 0 0-3.983 3.725c2.867-1.714 5.74-3.423 8.759-4.859 3.257-1.548 6.548-3.028 9.822-4.543z" class="cls-8"/><path d="M123.481 39.357a18.021 18.021 0 0 0 2.82-1.423 1.246 1.246 0 0 1-.284-.14l-2.604 1.314a.837.837 0 0 1 .031.265zM104.869 54.43a27.495 27.495 0 0 1 3.983-3.725 123.555 123.555 0 0 1 13.803-10.51c.314-.205.772-.37.79-.822-.123.052-.242.109-.364.16-.1.072-.206.138-.311.21q-2.797 1.925-5.572 3.88c-2.472 1.732-4.807 3.642-7.117 5.577-1.837 1.539-3.593 3.175-5.367 4.788-.178.162-.644.296-.305.717l.46-.274z" class="cls-8"/><path d="M123.413 39.108a.792.792 0 0 1-.332.426c.122-.052.241-.11.363-.16a.837.837 0 0 0-.03-.266zm4.508-1.483c1.925-.723 3.897-1.295 5.866-1.87a250.414 250.414 0 0 1 32.87-6.9c6.796-1.03 13.634-1.694 20.487-2.139 4.001-.26 8.016-.36 12.018-.635a117.016 117.016 0 0 1 19.904.41c11.78 1.198 23.056 4.505 34.267 8.088.294-.008.588-.022.882-.02-1.214-.719-2.635-.772-3.934-1.224-3.495-1.216-7.018-2.35-10.597-3.298a140.681 140.681 0 0 0-15.948-3.308c-4.194-.606-8.4-1.036-12.63-1.233-6.923-.322-13.813.35-20.716.706q-5.879.303-11.736.831c-4.084.365-8.15.861-12.205 1.446q-7.6 1.097-15.13 2.622a209.862 209.862 0 0 0-20.48 5.117c-1.322.41-2.599.953-3.927 1.337-.175.11-.353.215-.527.326-.027.02-.057.034-.084.053a2.36 2.36 0 0 0 1.62-.309z" class="cls-8"/><path d="M126.385 37.88c.174-.11.352-.215.527-.325-.297.086-.592.173-.895.239a1.246 1.246 0 0 0 .284.14c.027-.019.057-.034.084-.053z" class="cls-8"/><path d="M316.442 40.34c-7.93-1.551-15.88-2.977-23.917-3.863-4.92-.542-9.846-1.004-14.794-1.257-5.836-.297-11.67-.533-17.514-.513-1.552.006-3.088.293-4.639.26 2.052.847 4.164 1.541 6.221 2.372 2.257.91 4.629 1.51 6.83 2.564h.001l.897.085c3.126-.09 6.237.209 9.353.382 2.627.145 5.247.372 7.868.604 4.752.42 9.48 1.025 14.194 1.74 3.611.548 7.184 1.332 10.782 1.948 6.335 1.084 12.497 2.894 18.77 4.227 4.271.908 8.528 1.882 12.791 2.827.478.106.954.219 1.43.328l.615.016c.713-.018 1.425-.044 2.137-.053 2.487-.032 4.957-.312 7.433-.478 1.505-.1 3.008-.24 4.513-.343 1.544-.105 3.082-.312 4.623-.465.341-.034.686-.033 1.028-.047-5.91-1.151-11.849-2.15-17.747-3.366-9.008-1.857-17.964-3.942-26.917-6.043a4.118 4.118 0 0 1-1.01-.345 2.85 2.85 0 0 0-1.137-.473 2.287 2.287 0 0 1-.239-.074 2.33 2.33 0 0 1-1.572-.032z" class="cls-5"/><path d="M318.237 40.226a1.252 1.252 0 0 1-.223.147 2.287 2.287 0 0 0 .239.074 2.85 2.85 0 0 1 1.137.473 4.118 4.118 0 0 0 1.01.346c8.953 2.1 17.909 4.185 26.917 6.042 5.899 1.216 11.837 2.215 17.747 3.367l.038-.002.871-.114h.001a18.453 18.453 0 0 0-4.292-.918c-7.19-1.232-14.336-2.686-21.464-4.232q-7.498-1.626-14.965-3.396a59.274 59.274 0 0 1-5.932-1.494c-.366-.093-.796.042-1.092-.3zm-25.447-4.123c-4.473-.52-8.956-.908-13.446-1.228-3.16-.225-6.329-.276-9.494-.401a145.32 145.32 0 0 0-15.114.144c.278.123.561.232.842.348 1.55.034 3.087-.253 4.639-.259 5.844-.02 11.678.216 17.514.513 4.948.253 9.873.715 14.794 1.257 8.037.886 15.987 2.312 23.917 3.864a2.33 2.33 0 0 0 1.572.032c-.057-.018-.115-.03-.171-.053l-1.018-.297c-2.94-.574-5.881-1.15-8.829-1.685-5.043-.916-10.113-1.642-15.205-2.235z" class="cls-5"/><path d="M318.014 40.373a1.252 1.252 0 0 0 .223-.147l-.008-.008-.01-.007.018.015a5.29 5.29 0 0 1-1.188-.16l-.224-.043 1.018.297c.056.022.114.035.171.053z" class="cls-5"/><path d="M368.98 51.463c4.613.712 9.234 1.374 13.852 2.05.307-.045.613-.097.92-.138.17-.038.342-.064.515-.085-4.11-.206-8.145-1.04-12.213-1.591-1.364-.185-2.731-.357-4.075-.665-.276-.063-.625-.027-.799-.265-.44-.004-.876.089-1.318.058l-.095-.018a.733.733 0 0 1-.099.063 20.326 20.326 0 0 0 3.312.591z" class="cls-15"/><path d="M365.862 50.827c.442.03.879-.062 1.319-.058a.595.595 0 0 1-.105-.305 2.538 2.538 0 0 0-1.102.095.65.65 0 0 1-.207.25l.095.018zm17.891 2.548c-.308.041-.614.093-.92.139l1.034.15a5.02 5.02 0 0 0 1.92-.324 36.73 36.73 0 0 1-1.52-.05 5.391 5.391 0 0 0-.514.085z" class="cls-15"/><path d="M367.18 50.769c.174.238.523.202.799.265 1.344.308 2.711.48 4.075.665 4.068.551 8.103 1.385 12.213 1.591.37-.045.743-.074 1.109-.15a10.442 10.442 0 0 0-1.653-.12c-3.679-.538-7.366-1.014-11.039-1.584-1.516-.235-3.046-.405-4.549-.725a3.923 3.923 0 0 1-.903.055c-.017 0-.034.003-.052.003z" class="cls-15"/><path d="M367.18 50.769c.018 0 .035-.004.052-.003a3.923 3.923 0 0 0 .903-.055c-.354-.075-.708-.15-1.058-.247a.595.595 0 0 0 .103.305zm18.607 2.571a1.413 1.413 0 0 0-.411-.2c-.366.076-.739.105-1.11.15a36.73 36.73 0 0 0 1.521.05zm-20.02-2.531c-.203-.04-.407-.077-.61-.117.167.074.34.123.511.18a.733.733 0 0 0 .099-.063z" class="cls-15"/><path d="M365.102 50.673c.018.008.037.011.055.02.203.039.407.076.61.116a.65.65 0 0 0 .207-.25l-.872.114z" class="cls-15"/><path d="M253.572 40.119q-6.187-1.962-12.371-3.926c-.215-.069-.438-.119-.652-.193-.148.01-.295.025-.443.034a4.022 4.022 0 0 1-1.22-.115c-.137-.038-.276-.071-.414-.108a1.24 1.24 0 0 1-.873.035c-2.684.024-5.348.441-8.036.395a15.215 15.215 0 0 1-3.43.387c-2.518.309-5.06.417-7.588.659-3.102.296-6.2.647-9.299.972-.73.076-1.459.148-2.188.221 3.858-.013 7.715-.02 11.567.252 5.866.415 11.724.907 17.532 1.857.342.056.766.03 1.002.318a5.901 5.901 0 0 1 1.85.215l.09.015a1.117 1.117 0 0 1 .54-.21 46.999 46.999 0 0 1 9.016-.742c.241.062.482.127.724.189 1.388-.203 2.799-.118 4.192-.255z" class="cls-5"/><path d="M239.1 41.137l-.09-.015a5.901 5.901 0 0 0-1.851-.215.759.759 0 0 1 .155.35l1.57.147-.002-.001a.71.71 0 0 1 .218-.266zm9.555-.952a46.999 46.999 0 0 0-9.015.743 1.117 1.117 0 0 0-.54.21c.255.038.507.087.762.128a75.365 75.365 0 0 1 8.834-.785c.226-.052.455-.074.683-.107-.242-.062-.483-.127-.724-.189z" class="cls-5"/><path d="M238.882 41.403h.003c.325-.05.651-.09.977-.137-.255-.04-.507-.09-.762-.129a.71.71 0 0 0-.218.266zm-1.723-.496c-.236-.288-.66-.262-1.002-.318-5.808-.95-11.666-1.442-17.532-1.857-3.852-.272-7.71-.265-11.567-.252q-.635.063-1.269.128a2.09 2.09 0 0 0-1.16.217 2.799 2.799 0 0 0 .397.049q6.96-.128 13.908.298c1.51.09 3.025.164 4.53.299q4.648.418 9.277 1.03c1.16.152 2.332.245 3.48.48.307-.027.615-.044.922-.075l.016.001z" class="cls-5"/><path d="M237.159 40.907h-.016c-.307.03-.615.047-.922.075.367.075.732.164 1.092.276a.759.759 0 0 0-.154-.351zm1.451-5.178a.685.685 0 0 1-.138.082c.138.037.277.07.414.108a4.022 4.022 0 0 0 1.22.115c.148-.01.295-.024.443-.034a1.563 1.563 0 0 1-.558-.312h-.001l-1.07-.035z" class="cls-5"/><path d="M368.521 55.394q4.45-.514 8.893-1.076c1.468-.186 2.93-.422 4.391-.65-1.606-.087-3.197-.362-4.792-.587-3.383-.477-6.765-.967-10.13-1.56-.544-.096-1.21-.027-1.595-.517l-.16.035c-6.125.616-12.25 1.262-18.413 1.33 1.469.331 2.936.665 4.413.952 3.768.731 7.54 1.446 11.323 2.098a19.465 19.465 0 0 1 2.443.435 2.07 2.07 0 0 0 .33-.073c.726-.11 1.462-.27 2.056.362.007-.007.015-.01.021-.017.023-.726.716-.674 1.22-.732z" class="cls-16"/><path d="M381.805 53.669c-1.462.227-2.923.463-4.391.649q-4.444.563-8.893 1.076c-.504.058-1.197.006-1.22.732a1.434 1.434 0 0 1 1.206-.369 26.442 26.442 0 0 0 3.44-.336c2.597-.239 5.18-.642 7.763-1.019 1.391-.203 2.771-.489 4.156-.737a15.554 15.554 0 0 1-2.06.004zm-22.392-2.483c-1.505.103-3.008.242-4.513.343-2.476.166-4.946.446-7.433.478-.712.009-1.424.035-2.137.053.462.101.924.206 1.385.31 6.164-.07 12.288-.715 18.413-1.331l.16-.035a1.173 1.173 0 0 1-.182-.322l-.042-.008c-.342.014-.687.013-1.028.047-1.541.153-3.079.36-4.623.465z" class="cls-16"/><path d="M365.101 50.673l-.037.002.042.008zm.567.199a1.483 1.483 0 0 1-.38.132c.385.49 1.05.421 1.595.517 3.365.593 6.747 1.083 10.13 1.56 1.595.225 3.186.5 4.792.588q.513-.08 1.027-.155c-4.618-.676-9.239-1.34-13.852-2.05a20.326 20.326 0 0 1-3.312-.592z" class="cls-16"/><path d="M382.832 53.514q-.514.075-1.027.155a15.554 15.554 0 0 0 2.061-.004l-1.034-.151zm-17.544-2.51a1.483 1.483 0 0 0 .38-.132c-.171-.057-.344-.106-.511-.18l-.05-.01a1.173 1.173 0 0 0 .18.322z" class="cls-16"/><path d="M365.106 50.682l.05.01c-.017-.008-.036-.011-.054-.02zm.313 5.357l1.861.104c-.594-.633-1.33-.472-2.055-.362a2.07 2.07 0 0 1-.331.073 4.32 4.32 0 0 1 .525.185z" class="cls-16"/><path d="M301.55 54.497a142.009 142.009 0 0 0 17.358 2.378 188.039 188.039 0 0 0 21.92.569c7.48-.276 14.96-.66 22.404-1.513.115-.013.23-.013.345-.016-2.353-.247-4.658-.814-6.988-1.209-3.38-.573-6.753-1.202-10.09-1.997-.34-.081-.782-.028-1.022-.326h-.018a3.205 3.205 0 0 1-.724-.005c-.209-.04-.417-.087-.626-.128-.227.01-.46-.02-.684-.015-5.663.106-11.33.189-16.99-.021-4.133-.153-8.257-.505-12.378-.94-10.496-1.108-20.63-3.808-30.719-6.744-4.191-1.22-8.34-2.568-12.468-3.986-.213-.073-.43-.137-.64-.212-.2-.006-.4-.017-.6-.023a3.354 3.354 0 0 1-.886-.108c-.274-.096-.546-.197-.82-.294-4.123.018-8.246.032-12.368.064-.465.003-.992-.175-1.375.28a34.896 34.896 0 0 0 5.298 2.108c2.256.859 4.54 1.644 6.81 2.464.605.162 1.21.321 1.814.483 10.604 3.304 21.265 6.407 32.03 9.152a2.38 2.38 0 0 1 1.417.039z" class="cls-8"/><path d="M268.103 45.306c-.604-.162-1.21-.321-1.814-.483.276.1.554.196.83.297.357.132.805.143 1.034.542h-.003.003c1.452.428 2.916.816 4.353 1.288 5.424 1.784 10.887 3.44 16.406 4.903 3.616.958 7.239 1.892 10.86 2.837a1.207 1.207 0 0 1 .362-.232c-10.766-2.745-21.427-5.848-32.03-9.152zm-.18-5.399c.275.097.547.198.821.294a3.354 3.354 0 0 0 .887.108c.2.006.399.017.598.023a2.84 2.84 0 0 1-.702-.343l-.897-.086-.707.004zm76.813 12.471a3.205 3.205 0 0 0 .723.005h.018a.726.726 0 0 1-.147-.323l-.614-.016a1.008 1.008 0 0 1-.607.206c.209.041.417.087.627.128z" class="cls-8"/><path d="M300.84 54.753c.263.06.527.11.791.166-.48-.15-.96-.299-1.44-.446l-.057-.015a1.207 1.207 0 0 0-.362.232h.001a6.394 6.394 0 0 1 1.067.063zm45.659-2.044c3.337.795 6.71 1.424 10.09 1.997 2.33.395 4.635.962 6.988 1.21a8.6 8.6 0 0 0 1.317-.062 19.465 19.465 0 0 0-2.443-.435 548.255 548.255 0 0 1-11.323-2.098c-1.477-.287-2.944-.62-4.413-.951-.412.005-.825.014-1.238.013.24.298.681.245 1.022.326z" class="cls-8"/><path d="M345.477 52.383c.413.001.826-.008 1.238-.013-.461-.104-.923-.209-1.385-.31a.726.726 0 0 0 .147.323zm19.942 3.656a4.32 4.32 0 0 0-.525-.185 8.6 8.6 0 0 1-1.317.061c.61.064 1.223.112 1.842.124z" class="cls-8"/><path d="M102.903 62.343c.42-.198.843-.391 1.265-.587.577-.307 1.168-.586 1.753-.873 3.103-1.526 6.224-3.013 9.337-4.519.196-.095.377-.222.565-.334a125.353 125.353 0 0 1 23.678-11.469 130.798 130.798 0 0 1 26.37-6.288c3.323-.424 6.656-.698 9.994-.938a42.672 42.672 0 0 1 7.467.53c2.572.267 5.128.69 7.689 1.056a3.232 3.232 0 0 1 .62.221c2.903.106 5.795-.218 8.694-.244.832-.1 1.665-.197 2.496-.308a8.705 8.705 0 0 1 1.904-.103h.058c.244-.28.666-.227 1.015-.268 7.063-.836 14.145-1.48 21.23-2.102.55-.049 1.108-.01 1.66-.054-2.853-.599-5.737-1.018-8.614-1.473a253.464 253.464 0 0 0-16.72-2.054c-2.843-.256-5.691-.483-8.546-.609-.997.076-1.995.145-2.991.22a160.581 160.581 0 0 0-21.55 1.782 258.545 258.545 0 0 0-29.042 5.497 92.092 92.092 0 0 0-16.452 5.557 12.687 12.687 0 0 0-1.334.417c-2.651 1.473-5.314 2.927-7.931 4.458a113.22 113.22 0 0 0-22.444 16.98 1.188 1.188 0 0 0-.046.265 2.3 2.3 0 0 1-.724 1.014c2.616-1.567 5.28-3.053 7.916-4.586a15.283 15.283 0 0 1 2.683-1.188z" class="cls-6"/><path d="M204.735 38.487a8.705 8.705 0 0 0-1.904.103c-.831.11-1.664.207-2.496.308.217-.002.434-.014.651-.013.578.005 1.155.025 1.732.038l1.91-.098a.754.754 0 0 1 .165-.339zM102.903 62.343a15.283 15.283 0 0 0-2.683 1.188c-2.636 1.533-5.3 3.019-7.916 4.586a12.396 12.396 0 0 0-1.323 1.12c.35-.189.705-.366 1.047-.566 3.517-2.055 6.986-4.195 10.646-5.994a11.618 11.618 0 0 1 1.494-.921c-.422.196-.844.389-1.265.587z" class="cls-6"/><path d="M93.028 67.103a1.188 1.188 0 0 1 .046-.265c-.063.063-.13.122-.193.185a12.11 12.11 0 0 1-1.484 1.641c.301-.184.604-.365.907-.547a2.3 2.3 0 0 0 .724-1.014z" class="cls-6"/><path d="M90.98 69.237a12.396 12.396 0 0 1 1.324-1.12c-.303.182-.606.363-.907.547a3.368 3.368 0 0 0-.417.573zm100.777-37.489h.003-.003a48.18 48.18 0 0 0-6.539.233q-11.799.892-23.476 2.824a242.559 242.559 0 0 0-25.959 5.694 61.475 61.475 0 0 0-11.178 4.26l-1.156.64a12.687 12.687 0 0 1 1.334-.416 92.092 92.092 0 0 1 16.452-5.557 258.545 258.545 0 0 1 29.042-5.497 160.581 160.581 0 0 1 21.55-1.781c.996-.076 1.994-.145 2.991-.22-.488-.022-.976-.047-1.464-.062-.533-.016-1.065-.077-1.597-.118zm26.788 5.539c2.528-.242 5.07-.35 7.588-.659a15.215 15.215 0 0 0 3.43-.387c-.287-.064-.577-.117-.865-.178-.552.044-1.11.005-1.66.054-7.085.621-14.167 1.266-21.23 2.102-.349.041-.77-.013-1.015.268q1.132-.002 2.265-.007c.73-.073 1.459-.145 2.188-.221 3.1-.325 6.197-.676 9.3-.972z" class="cls-6"/><path d="M207.058 38.48l-2.265.006a.754.754 0 0 0-.165.34 2.09 2.09 0 0 1 1.161-.218l1.269-.128z" class="cls-6"/><path d="M191.764 39.462c-.315-.061-.631-.11-.947-.168-1.396.226-2.818.197-4.222.308a251.604 251.604 0 0 0-25.447 3.233 231.257 231.257 0 0 0-41.584 11.825c-.865.333-1.694.768-2.572 1.07-.257.153-.522.293-.777.448-1.62.904-3.295 1.69-4.98 2.459 4.11-1.71 8.282-3.26 12.542-4.583a335.319 335.319 0 0 1 45.832-10.727 902.704 902.704 0 0 1 24.482-3.656c.504-.068 1.01-.124 1.515-.188a22.486 22.486 0 0 1-3.842-.02z" class="cls-17"/><path d="M195.606 39.483c-.505.064-1.01.12-1.515.188a902.704 902.704 0 0 0-24.482 3.656 335.319 335.319 0 0 0-45.832 10.727c-4.26 1.323-8.432 2.873-12.542 4.583-1.986.905-3.986 1.781-5.934 2.768-.866.44-1.718.917-2.627 1.272a1.59 1.59 0 0 0 1.015-.265c1.948-.884 3.883-1.797 5.843-2.652a164.473 164.473 0 0 1 20.394-7.177q8.647-2.485 17.42-4.502c2.9-.663 5.793-1.365 8.711-1.94 3.786-.748 7.59-1.402 11.392-2.07 2.84-.5 5.684-.985 8.534-1.428 2.674-.416 5.36-.762 8.038-1.15 2.898-.419 5.79-.877 8.69-1.267 2.42-.326 4.865-.49 7.267-.905a8.734 8.734 0 0 0 2.74-.398c-2.379.023-4.74.4-7.112.56z" class="cls-17"/><path d="M191.641 39.142c-.273.07-.549.107-.824.152.316.058.632.107.947.168a22.486 22.486 0 0 0 3.842.021q2.364-.296 4.73-.585c-2.9.026-5.792.35-8.695.244zM116.992 55.73a6.345 6.345 0 0 1-1.169.3c-.188.112-.37.239-.565.334-3.113 1.506-6.234 2.993-9.337 4.519-.585.287-1.176.566-1.753.873q3.505-1.63 7.067-3.12c1.685-.767 3.36-1.554 4.98-2.458.255-.155.52-.295.777-.448z" class="cls-17"/><path d="M200.986 38.886c-.217-.002-.434.01-.651.012q-2.366.287-4.729.585c2.372-.16 4.733-.537 7.112-.56-.577-.013-1.154-.033-1.732-.037zm-89.751 19.751q-3.564 1.482-7.067 3.119a11.618 11.618 0 0 0-1.494.92c.91-.354 1.761-.832 2.627-1.27 1.948-.988 3.948-1.864 5.934-2.77z" class="cls-17"/><path d="M252.852 39.525c.276.136.906.1.766.578a.434.434 0 0 1 .502.091.883.883 0 0 1 .142-.34 2.77 2.77 0 0 1 1.681-.33c3.305-.013 6.61 0 9.914-.01a8.239 8.239 0 0 1 1.275.11 392.28 392.28 0 0 1-11.194-4.134c-.371-.144-.848-.18-1.079-.545a2.57 2.57 0 0 1-.7-.105l-.254-.08a6.445 6.445 0 0 1-2.904.363c-3.256.197-6.496.573-9.747.822a54.614 54.614 0 0 1 6.643 2.057c1.631.577 3.388.753 4.955 1.523z" class="cls-18"/><path d="M254.16 34.84a2.57 2.57 0 0 0 .7.105.834.834 0 0 1-.124-.327l-.52-.059a2.287 2.287 0 0 1-.311.2l.254.081zm-3.159.283a6.445 6.445 0 0 0 2.904-.363l-.572-.181c-1.887.047-3.767.255-5.653.343-2.57.12-5.127.5-7.69.766.428.067.845.167 1.264.257 3.25-.249 6.49-.625 9.747-.822z" class="cls-18"/><path d="M254.215 34.559c-.294-.002-.588.012-.882.02l.572.18a2.287 2.287 0 0 0 .31-.2zm.645.386c.23.365.707.401 1.078.545a392.28 392.28 0 0 0 11.194 4.133c.501.077.999.181 1.497.28-2.201-1.053-4.573-1.654-6.83-2.564-2.057-.83-4.169-1.525-6.22-2.373-.235-.005-.469.003-.704-.02h-.016z" class="cls-18"/><path d="M254.875 34.946c.235.023.469.015.703.02-.28-.116-.564-.225-.842-.348a.834.834 0 0 0 .123.327c.006 0 .011.002.016.001zm-2.023 4.579c-1.567-.77-3.324-.946-4.955-1.523a54.614 54.614 0 0 0-6.643-2.057c-.235.018-.47.038-.705.055.214.074.437.124.652.193q6.183 1.968 12.37 3.926c.017-.008.031-.01.047-.016.14-.478-.49-.442-.766-.578z" class="cls-18"/><path d="M241.254 35.945c-.42-.09-.837-.19-1.263-.257a1.563 1.563 0 0 0 .558.312c.236-.017.47-.037.705-.055zm24.603 3.569c-3.305.01-6.61-.003-9.914.01a2.77 2.77 0 0 0-1.681.33.883.883 0 0 0-.142.34.622.622 0 0 1 .062.058c.382-.456.91-.278 1.374-.281 4.122-.033 8.245-.046 12.367-.064-.264-.093-.527-.19-.791-.284a8.239 8.239 0 0 0-1.275-.109z" class="cls-18"/><path d="M267.923 39.907q.354-.001.707-.004c-.5-.099-.997-.203-1.498-.28.264.094.527.191.791.284zm-14.305.196c-.002.01 0 .015-.004.025l.497.108c.001-.013.007-.028.009-.042a.434.434 0 0 0-.502-.091z" class="cls-18"/><path d="M253.572 40.119l.042.009c.003-.01.002-.016.004-.025-.016.006-.03.008-.046.016zm.539.117l.07.016a.622.622 0 0 0-.061-.058c-.002.014-.008.03-.009.042z" class="cls-18"/><path d="M237.6 35.846a1.24 1.24 0 0 0 .872-.035l-.114-.03a2.545 2.545 0 0 0-.758.065z" class="cls-8"/><path d="M238.61 35.73a.911.911 0 0 1-.252.051l.114.03a.685.685 0 0 0 .137-.082zm-.586-.036a.878.878 0 0 0-.424.152 2.545 2.545 0 0 1 .758-.065c-.111-.03-.223-.058-.334-.087z" class="cls-8"/><path d="M238.61 35.73v-.001a2.146 2.146 0 0 0-.586-.035c.111.03.223.057.334.087a.911.911 0 0 0 .251-.052z" class="cls-8"/></svg>