<svg xmlns="http://www.w3.org/2000/svg" role="img" viewBox="-5.66 81.09 411.32 82.57"><title>Altran logo</title><style>svg {enable-background:new 0 0 400 245}</style><path fill="#0074a6" d="M38.9 89c-8.4 0-18.3 1.6-24.7 6.6-5 3.9 5.2 8.8 14.3 4.6 2.2-1 5.4-2 8.7-2 14-.1 18.6 5.8 19.1 15.7-6 0-12.6 0-20.8.3-22.2.6-33.2 7.3-33.2 21 0 12 11.6 20.8 27.9 20.8 17.9 0 35.7-3.4 35.7-3.4 5.1-5 4.3-41.2 4.3-41.2C70 95.4 56.3 89 38.9 89zM33 146.2c-11.3 0-16.3-6.2-16.3-11.4 0-7.5 7.6-9.7 20.6-10.1 8-.4 14.2-.4 18.9-.4-.6 13.2 3.7 21.9-23.2 21.9zm59.1-17.3V89.7H77.8v49.6c0 14.4 14.4 14.3 14.4 14.3h35.2v-10.5h-20.9c-14.4.1-14.4.1-14.4-14.2zm21.2-28.7h13.9c10.5 0 10.5 0 10.5 10.2v43.3H152v-43.3c0-10.2 0-10.2 10.3-10.2h14V89.7h-63.1v10.5zm136.1 8.7c0-12.7-10.6-19.2-24.6-19.2h-39.2v63.9h14.3v-25.2h17.4c13 .2 17.6 3 17.6 15.1v10.1h14.6V142c0-9.3-1.9-15-9.7-17.4 5.8-3.5 9.6-9.1 9.6-15.7zm-30 9.6h-19.5v-18.3H220c7.6 0 14.8.8 14.8 8.5s-7 9.8-15.4 9.8zM366 89h-.1c-18.3 0-31.9 9.1-31.8 27.6v37h13.5v-37c0-10.4 6.3-16.8 18.4-16.8 12.1 0 18.5 6.4 18.5 16.8v37H398v-37c-.2-18.5-13.8-27.6-32-27.6zm-72.3 0s-.1 0 0 0c-8.4 0-18.3 1.6-24.7 6.6-5 3.9 5.2 8.8 14.2 4.6 2.2-1 5.4-2 8.7-2 14-.1 18.6 5.8 19.1 15.7-6 0-12.6 0-20.8.3-22.2.6-33.2 7.3-33.2 21 0 12 11.6 20.8 27.9 20.8 18 0 35.7-3.4 35.7-3.4 5.1-5 4.3-41.2 4.3-41.2-.2-16-13.8-22.4-31.2-22.4zm-5.9 57.2c-11.3 0-16.3-6.2-16.3-11.4 0-7.5 7.6-9.7 20.6-10.1 8-.4 14.2-.4 18.9-.4-.7 13.2 3.7 21.9-23.2 21.9z"/></svg>