<svg xmlns="http://www.w3.org/2000/svg" role="img" viewBox="2.42 -5.83 393.90 251.40"><title>Amazon Cloudfront logo</title><defs><style>.cls-1{fill:#221f1f}.cls-2{fill:#fdba0b}.cls-4{fill:none;stroke:#fdba0b;stroke-miterlimit:10;stroke-width:2.83px}</style></defs><path d="M172.5 168.2c-.1-.2-.1-.4-.5-.4s-1.8.9-3.5.9a2.7 2.7 0 0 1-2.7-2.4c-.1-.8-.2-4.3-.2-6.4v-36.2c0-.3 0-.9-.5-.9h-.8l-3.4.8c-.3.1-.5.3-.5.8v35.2c0 2.4 0 7.6.9 9.8s3.1 3.3 6.4 3.3 5.8-.9 5.8-1.7a1.3 1.3 0 0 0-.1-.5zm-17.9-2.2c-.1-.2-.2-.4-.4-.4s-3.9 2.8-8.3 2.8c-6.6 0-7.8-6.5-7.8-12.7 0-7.7 2-12.7 8.6-12.7 4 0 6.9 3.5 7.2 3.5s.3-.2.4-.4l1.6-2.8c.1-.2.2-.3.2-.5s-5.2-4.2-9.8-4.2c-8.3 0-13.8 6.9-13.8 18.3s4.7 16.2 12.8 16.2c5 0 10.7-2.8 10.7-3.5s-.1-.3-.2-.5z" class="cls-1"/><path d="M187.7 168.7c-6.2 0-8-5.8-8-13.5s1.8-12.6 7.9-12.6 7.9 6.1 7.9 12.8-1.8 13.3-7.8 13.3zm13.4-13.2c0-9.6-3.9-17-13.2-17s-13.8 8-13.8 17.4S178 173 187.2 173s13.9-8 13.9-17.5z" class="cls-2"/><path d="M387.7 166.9a.5.5 0 0 0-.5-.4c-.6 0-3.3 1.8-6.5 1.8s-4.1-2.8-4.1-5.5v-19.2h9a1 1 0 0 0 .9-.6l.9-2.6c0-.2.1-.3.1-.5s-.3-.5-.7-.5h-10V129c0-.4 0-.7-.3-.7h-.5l-3.6 1c-.5.1-.7.4-.7.8v9.3h-5.1c-.5 0-.5.3-.5.8v2.6c0 .3 0 .8.5.8h5.1v19.3c0 2.5 0 5.6 2 7.7s3.5 2.4 6.4 2.4 8.8-1.9 8.8-2.8a3 3 0 0 0-.1-.7zm-25.1-18.3c0-4.9-.5-10.2-8.1-10.2-5.2 0-8.7 2.8-10.9 4.6-.1-.5-.9-4.6-2.1-4.6s-.4.2-.5.3l-3.1 1.7c-.3.2-.3.3-.3.5a26 26 0 0 1 1.1 2.8 14.5 14.5 0 0 1 .3 4v23.4a.7.7 0 0 0 .8.8h3.5a.7.7 0 0 0 .8-.8v-24c1.7-1.5 4.5-4.1 9-4.1s4.4 2.6 4.4 5.5v22.7a.7.7 0 0 0 .8.8h3.5a.7.7 0 0 0 .8-.8zm-44.2 20.1c-6.2 0-8-5.8-8-13.5s1.8-12.6 7.9-12.6 7.9 6.1 7.9 12.8-1.8 13.3-7.9 13.3zm13.4-13.2c0-9.6-3.9-17-13.2-17s-13.8 8-13.8 17.4 3.9 17.1 13.1 17.1 13.9-8 13.9-17.5zm-37.4-6.7c1.6-1.8 4-5.3 6.4-5.3a6.6 6.6 0 0 1 2.2.6c.3 0 .3-.3.4-.5l1.5-3.5a2.8 2.8 0 0 0 .2-.5c0-.6-1.8-1.2-3.3-1.2-3.9 0-6.4 3.8-8.1 5.7-.3-1.5-1.4-5.7-2.6-5.7l-.7.3-2.5 1.6a.9.9 0 0 0-.5.7 5.1 5.1 0 0 0 .7 1.7 11.4 11.4 0 0 1 1.2 5.2v23.3a.7.7 0 0 0 .8.8h3.5a.7.7 0 0 0 .8-.8zm-17.9-5.2h8.7a1 1 0 0 0 .9-.6l.9-2.6c0-.2.1-.3.1-.5s-.3-.5-.7-.5h-9.8v-5.2c0-3.9.3-6.8 4.1-6.8s4.7 1.4 5.9 1.4.3-.2.5-.4l.9-2.2a8.8 8.8 0 0 0 .3-.9c0-1-4.3-2.4-7.5-2.4-8.4 0-9.4 6.2-9.4 11.3v5.3h-4.7c-.5 0-.5.3-.5.8v2.6c0 .3 0 .8.5.8h4.7v27.5a.7.7 0 0 0 .8.8h3.5a.7.7 0 0 0 .8-.8zM261 123.7c0-.3 0-.9-.5-.9h-.8l-3.3.8c-.3.1-.5.3-.5.8v16.1a14.3 14.3 0 0 0-8.3-2.3c-7.9 0-11.3 8.1-11.3 17.9s3.3 16.6 10.6 16.6c5 0 8.3-2.8 10-4 .3 1.1 1.5 4 2.4 4l.5-.2 2.6-1.6c.3-.1.6-.3.6-.5a20.1 20.1 0 0 0-1.2-2.5c-.7-1.7-.7-3.7-.7-6.8zm-5.2 40.6c-1.6 1-4.6 4-8.1 4-5.5 0-6-6.4-6-12.1s.5-13.2 6.4-13.2a15.1 15.1 0 0 1 7.7 2.2zm-30.2.5c-1.3 1.2-5.6 3.5-7.7 3.5-4.4 0-5.6-2.6-5.6-5.5v-23.5c0-.3 0-.9-.5-.9h-.8l-3.4.8c-.3.1-.5.3-.5.8v22.5c0 4.9.7 10.2 9.9 10.2 3.9 0 7.5-2.4 9.4-4 .7 1.6 1.5 4 2.5 4l.5-.2 2.6-1.6c.3-.1.6-.3.6-.5a14.9 14.9 0 0 0-1.3-2.6 10.1 10.1 0 0 1-.7-4.5v-24c0-.3 0-.9-.5-.9h-.8l-3.4.8c-.3.1-.5.3-.5.8z" class="cls-1"/><path fill="#221f1f" fill-rule="evenodd" d="M162.9 115.9a1.5 1.5 0 0 1-1.6.2 17.2 17.2 0 0 1-4-4.6c-3.8 3.9-6.5 5.1-11.5 5.1s-10.4-3.6-10.4-10.9a11.8 11.8 0 0 1 7.4-11.4c3.8-1.7 9.1-2 13.1-2.4V91c0-1.7.1-3.6-.8-5.1a4.7 4.7 0 0 0-3.9-1.8c-2.7 0-5 1.4-5.6 4.2a1.5 1.5 0 0 1-1.2 1.3l-6.8-.7a1.2 1.2 0 0 1-1-1.5c1.6-8.2 9-10.7 15.6-10.7 3.4 0 7.8.9 10.5 3.5s3.1 7.4 3.1 12V103c0 3.3 1.4 4.7 2.6 6.5a1.3 1.3 0 0 1 0 1.9l-5.3 4.6m-7-17c0 2.7.1 5-1.3 7.4a5.7 5.7 0 0 1-4.8 3.2c-2.7 0-4.2-2-4.2-5 0-5.9 5.3-7 10.4-7v1.5m98.4 17a1.5 1.5 0 0 1-1.6.2 17 17 0 0 1-4-4.6c-3.8 3.9-6.5 5.1-11.5 5.1s-10.4-3.6-10.4-10.9a11.8 11.8 0 0 1 7.4-11.4c3.8-1.7 9.1-2 13.1-2.4v-.9c0-1.7.1-3.6-.9-5.1a4.6 4.6 0 0 0-3.9-1.8c-2.7 0-5 1.4-5.6 4.2a1.5 1.5 0 0 1-1.2 1.3l-6.8-.7a1.2 1.2 0 0 1-1-1.5c1.5-8.2 9-10.7 15.6-10.7 3.4 0 7.8.9 10.5 3.5s3.1 7.4 3.1 12V103c0 3.3 1.4 4.7 2.6 6.5a1.3 1.3 0 0 1 0 1.9l-5.3 4.6m-7-17c0 2.7.1 5-1.3 7.4a5.7 5.7 0 0 1-4.8 3.2c-2.7 0-4.2-2-4.2-5 0-5.9 5.3-7 10.4-7v1.5m92.3 16.9h-6.9a1.3 1.3 0 0 1-1.3-1.3V79a1.3 1.3 0 0 1 1.3-1.2h6.5a1.3 1.3 0 0 1 1.2 1v5.5h.1c2-4.9 4.7-7.2 9.5-7.2a9.1 9.1 0 0 1 8.1 4.2c1.8 2.9 1.8 7.7 1.8 11.1v22.5a1.3 1.3 0 0 1-1.3 1.1h-7a1.3 1.3 0 0 1-1.2-1.1V95.5c0-3.9.5-9.6-4.4-9.6a4.6 4.6 0 0 0-4 2.9 15.8 15.8 0 0 0-1.1 6.8v19.3a1.3 1.3 0 0 1-1.4 1.3m-29.2-31.9c-5.1 0-5.5 7-5.5 11.4s-.1 13.7 5.4 13.7 5.7-7.5 5.7-12.1a33.1 33.1 0 0 0-1-9.5 4.4 4.4 0 0 0-4.6-3.5m-.1-7.3c10.3 0 15.9 8.9 15.9 20.2s-6.2 19.6-15.9 19.6-15.7-8.9-15.7-20S300.7 77 310.8 77m-128.9 39h-7a1.3 1.3 0 0 1-1.2-1.2V79.1a1.3 1.3 0 0 1 1.3-1.3h6.5a1.3 1.3 0 0 1 1.3 1.2v4.7h.1c1.7-4.5 4.9-6.6 9.2-6.6s7.1 2.1 9.1 6.6a10.3 10.3 0 0 1 17.7-2.7c2.2 3 1.8 7.4 1.8 11.2v22.6a1.3 1.3 0 0 1-1.3 1.3h-7a1.3 1.3 0 0 1-1.3-1.3v-19a44.8 44.8 0 0 0-.2-6.7c-.5-2.4-2.1-3.1-4.1-3.1a4.6 4.6 0 0 0-4.2 2.9c-.7 1.8-.6 4.8-.6 6.9v19a1.3 1.3 0 0 1-1.3 1.3h-7a1.3 1.3 0 0 1-1.3-1.3v-19c0-4 .7-9.9-4.3-9.9s-4.8 5.7-4.8 9.9v19a1.3 1.3 0 0 1-1.3 1.3m83.6-31.9V79a1.3 1.3 0 0 1 1.3-1.3h22.9A1.3 1.3 0 0 1 291 79v4.4c0 .7-.6 1.7-1.7 3.2l-11.9 17a25.3 25.3 0 0 1 13.1 2.8 2.3 2.3 0 0 1 1.2 2v5.5c0 .7-.8 1.6-1.7 1.2a26.4 26.4 0 0 0-24.2 0c-.8.4-1.6-.4-1.6-1.2v-5.2a6.2 6.2 0 0 1 .8-3.5l13.8-19.7h-12a1.3 1.3 0 0 1-1.3-1.3"/><path d="M187.6 169.8s1.6 35.9-32.4 38.2c-25.9 1.7-39.5-5.7-58.7-37.9C80.3 143 87.9 109 99.6 80c14.5-36.2 50.4-39.5 78.6-32.1" class="cls-4"/><path d="M155.8 208.4c-49.7 42.1-98.7 33.2-124.4.6-30.2-38.3-23.7-74.3 3.7-106.4 21.8-25.7 35.1-31.1 63.2-23.2" class="cls-4"/><path d="M98.3 79.7c.9-22.5-9.9-43.1-30.3-62.4m28.8 153.2C82 166.9 32.6 155.6 36 102.9 26 61.2 37.9 32 67.5 15.2c52.1-29.7 98.6 1.7 111 33.6" class="cls-4"/><path d="M165 208.4a8.8 8.8 0 0 1-2.8 6.4 9.8 9.8 0 0 1-6.7 2.6 9.1 9.1 0 1 1 0-18.1 9.8 9.8 0 0 1 6.7 2.6 8.8 8.8 0 0 1 2.8 6.5zm-123 0a9.3 9.3 0 0 1-9.5 9 9.1 9.1 0 1 1 0-18.1 9.3 9.3 0 0 1 9.5 9.1zm65.3-38.7a9.5 9.5 0 1 1-9.5-9 9.3 9.3 0 0 1 9.5 8.9zm-61.6-66.5a9.3 9.3 0 0 1-9.5 9 9.1 9.1 0 1 1 0-18.1 9.3 9.3 0 0 1 9.5 9.1zm31.6-87.6a8.8 8.8 0 0 1-2.8 6.4 9.8 9.8 0 0 1-6.7 2.6 9.3 9.3 0 0 1-9.5-9 9.5 9.5 0 0 1 19.1 0zm31.9 64.2a9.5 9.5 0 1 1-9.5-9 9.3 9.3 0 0 1 9.6 8.9zm78.5-30.6a9.5 9.5 0 0 1-19.1 0 9.5 9.5 0 0 1 19.1 0z" class="cls-2"/></svg>