<svg xmlns="http://www.w3.org/2000/svg" role="img" viewBox="45.65 39.40 200.20 200.20"><style>svg {enable-background:new 0 0 291.8 279.3}</style><path fill="#231f20" d="M210.396 182.723c4.548 0 8.46.455 11.826 1.274 3.274.818 6.276 2.183 9.096 4.093 4.185 2.82 6.55 5.731 9.006 10.098 1.274 2.456 1.91 6.64 1.91 12.008 0 4.548-1.546 8.005-4.002 12.371-1.092 1.91-3.093 4.185-7.277 7.642-2.548 2.092-4.822 3.547-8.188 4.457-2.365.637-7.277 1.274-11.825 1.274l-23.288-.182V182.54l22.742.182zm-3.184 10.37l-4.912.092v32.748h5.549c7.641 0 11.007.273 15.282-3.912 3.64-3.547 5.367-6.731 5.186-13.736-.273-8.824-5.004-10.734-8.279-13.008 0 0-2.456-2.092-10.097-2.092m-92.879-10.644h13.828l15.919 20.013 14.919-20.013h13.827l-.091 53.308h-13.736v-33.113l-14.919 17.466-15.92-17.375v32.93H116.88l.182-53.216zm-67.407 53.49l21.56-53.308H86.86l24.198 53.126H95.594l-3.82-10.098H67.666l-4.094 10.189H49.655zm38.116-21.469l-8.37-20.013-7.095 20.013h15.465"/><path fill="#009a68" d="M119.61 126.687l51.76-.182-35.477 35.023h-49.85V113.86L119.7 80.111l-.09 46.576zm86.146-83.418v118.259l-34.204-34.841V80.02l-51.942.091-33.66-36.842h119.805"/></svg>