<svg xmlns="http://www.w3.org/2000/svg" role="img" viewBox="2.05 4.55 2493.40 1138.40"><title>American Tower Corporation (member) logo</title><path fill="#d21241" fill-opacity="1" stroke="none" d="M1209.104 236.31v182.8l19.1 28.4c10.5 15.6 36.9 54.9 58.7 87.4 21.8 32.5 53.5 79.8 70.5 105.1 17 25.3 38.1 56.9 47 70.2l16.2 24.2 128.8.1c70.8 0 128.7-.3 128.7-.6 0-.4-8.4-12.9-18.7-27.8-10.3-14.9-37-53.7-59.3-86.1-70.1-101.8-135.1-196.2-150.5-218.5-8.2-11.8-24.3-35.2-35.8-52-11.6-16.8-28-40.6-36.5-53-8.6-12.4-36.3-52.7-61.7-89.5-25.4-36.9-59.5-86.5-75.9-110.3-16.4-23.7-30-43.2-30.2-43.2-.2 0-.4 82.3-.4 182.8z"/><g fill="#000" stroke="none" transform="matrix(.1 0 0 -.1 0 1150)"><path d="M11796 10530c-165-239-507-736-761-1105-254-368-531-771-617-895-85-124-249-362-365-530-115-168-276-402-358-520-154-223-804-1167-1505-2185-223-324-490-712-593-861s-187-274-187-278c0-3 579-6 1288-6l1287 1 162 242c166 249 627 936 1276 1902 203 303 438 654 523 780l154 230-2 1830-3 1830-299-435z"/><path d="M24092 1779c-272-135-175-544 128-542 153 0 267 108 278 263 7 96-17 160-82 225-90 91-211 111-324 54zm249-54c127-90 137-282 21-387-137-124-352-30-369 161-10 103 44 202 132 243 63 29 162 21 216-17z"/><path d="M24143 1683l-33-4v-160c0-133 2-161 15-165 17-7 46 13 44 30-1 6-1 33 0 59l1 48 37-3c42-3 58-25 68-90 5-30 11-39 31-44 14-4 27-4 30-2 9 9-17 114-34 137-17 24-17 25 6 48 32 32 28 98-8 124-26 19-100 29-157 22zm117-63c24-24 24-29 4-58-11-16-25-22-54-22-43 0-47 5-42 61 4 37 6 39 38 39 21 0 42-8 54-20z"/><path d="M9645 1748c-511-50-845-295-845-617 1-295 249-502 690-576 134-23 418-30 578-16 119 11 236 32 247 43 5 5-59 236-68 244-3 3-31 0-64-6-32-6-132-14-223-17-140-4-179-2-261 15-232 48-350 161-351 333-1 162 127 282 346 324 131 25 400 16 547-18 6-1 33 54 60 122 38 93 47 126 38 132-17 10-113 27-234 39-110 12-335 11-460-2z"/><path d="M16895 1753c-70-8-195-36-270-60-295-95-476-287-492-524-11-149 39-274 156-389 125-124 299-200 541-237 153-23 435-13 585 20 390 87 605 297 605 592 0 142-53 257-164 363-92 86-170 131-304 175-146 48-292 68-477 65-82-1-163-3-180-5zm325-269c62-17 146-70 177-112 58-79 68-111 68-227 0-102-2-114-29-168-36-70-89-120-165-155-80-38-249-44-348-13-93 28-157 80-202 161-35 63-36 68-36 170 0 124 17 171 89 248 100 106 272 143 446 96z"/><path d="M6580 1740c-58-4-124-8-147-9l-43-1V550h518l1 221v222l98-2c158-3 204-34 263-178 48-119 87-201 110-234l21-29h528l-24 43c-13 23-49 103-80 177-88 208-144 277-257 321l-42 16 55 18c115 37 225 121 257 195 48 115-17 259-149 325-156 79-278 97-679 100-179 1-372-1-430-5zm668-254c93-40 119-118 60-180-52-54-104-68-260-74l-138-5v285l148-4c111-3 157-9 190-22z"/><path d="M22365 1738c-77-4-146-10-153-13-10-4-12-124-12-575 0-313 3-577 6-585 5-13 43-15 260-15h254v440h91c165 0 214-31 270-172 19-46 54-123 79-173l45-90 268-3 268-2-25 47c-13 27-43 93-66 148-94 223-157 305-260 342l-47 17 76 31c124 50 191 102 227 180 43 91 23 187-55 265-82 82-240 137-455 159-125 13-563 12-771-1zm687-247c98-31 132-126 68-190-48-47-108-63-262-68l-138-5v134c0 74 3 138 8 142 11 12 282 1 324-13z"/><path d="M1042 1713c-5-16-86-190-179-388-272-577-315-667-339-722l-24-53h536l53 135 52 135 250-2 250-3 58-130 58-130 281-3 281-2-73 152c-40 84-169 352-286 596l-213 442h-695l-10-27zm432-430c47-117 86-215 86-218s-76-5-170-5c-93 0-170 4-170 8 0 8 127 353 151 411 5 13 11 22 13 20s43-100 90-216z"/><path d="M2566 1703c-3-21-17-157-31-303s-27-283-30-305c-2-22-14-132-25-245s-23-226-26-252l-6-48h482l1 48c0 26 2 58 4 72 6 38 34 446 41 605 4 77 10 147 15 155 7 13 8 12 9-2 0-33 107-346 205-600l99-258h404l151 328c83 180 170 376 194 435 25 59 47 111 51 114 3 4 6-72 6-168 1-96 3-208 5-249 10-154 25-433 25-456v-24h506l-17 208c-28 329-79 957-79 970 0 9-86 12-342 12l-343-1-85-187c-46-103-116-269-156-370-39-100-73-185-76-187-3-3-22 48-42 112-21 65-83 234-138 376l-101 257h-695l-6-37z"/><path d="M4890 1145V550h1290v260h-770v220h690v260h-690v190h730v260H4890v-595z"/><path d="M8080 1145V550h520v1190h-520v-595z"/><path d="M10951 1678c-16-35-117-252-226-483s-204-434-211-452c-8-18-32-69-53-113l-40-80 271 2 270 3 52 133 51 132h500l59-135 59-135h278c154 0 279 2 279 4s-127 269-283 593l-283 588-347 3-348 2-28-62zm437-368c38-96 78-192 86-212l16-38h-175c-96 0-175 2-175 5 0 2 27 74 60 159 33 86 60 158 60 160 0 20 44 116 49 109 4-4 40-87 79-183z"/><path d="M12410 1145V550h483l-7 358c-3 196-9 381-12 410-3 28-4 52 0 52 3 0 24-28 47-62 77-114 168-230 387-495l217-263h545v1190h-472l5-297c4-164 12-340 20-390 7-51 12-92 11-90-1 1-37 54-79 117-90 134-92 136-339 433l-190 227h-616v-595z"/><path d="M14620 1605v-135h490V550h520v920h500v270h-1510v-135z"/><path d="M18060 1733c0-5 97-272 217-595l218-588h574l45 143c24 78 63 201 85 272 40 128 83 294 97 368 3 21 8 36 10 35 2-2 15-60 29-128 29-139 173-671 184-683 4-4 133-6 286-5l280 3 232 585c128 322 233 588 233 593 0 4-117 7-259 7h-259l-16-52c-9-29-52-201-97-383-45-181-86-348-92-370-9-39-11-34-44 120-18 88-64 277-102 420l-68 260h-557l-63-220c-34-121-85-305-113-410-28-104-54-197-57-205s-27 77-53 190c-41 176-118 488-151 613l-10 37h-274c-151 0-275-3-275-7z"/><path d="M20700 1145V550h1290v260h-770v220h690v260h-690v190h730v260h-1250v-595z"/></g></svg>