<svg xmlns="http://www.w3.org/2000/svg" role="img" xmlns:xlink="http://www.w3.org/1999/xlink" viewBox="-4.09 1.91 225.68 64.68"><title>AnyLog (member) logo</title><defs><path d="M20.51563-37.90625l-8.03126 21.76563H28.5625zm-3.34376-5.82813H23.875L40.54688 0h-6.15626l-3.98437-11.21875H10.6875L6.70312 0H.46875zm0 0" id="a"/><path d="M32.9375-19.8125V0h-5.39063v-19.625c0-3.10156-.60937-5.42578-1.82812-6.96875-1.21094-1.55078-3.02344-2.32813-5.4375-2.32813-2.91797 0-5.21484.9336-6.89063 2.79688-1.67968 1.85547-2.51562 4.38281-2.51562 7.57813V0H5.45312v-32.8125H10.875v5.09375c1.28125-1.96875 2.79688-3.4414 4.54688-4.42188 1.75-.97656 3.76562-1.46874 6.04687-1.46874 3.76953 0 6.625 1.16796 8.5625 3.5 1.9375 2.33593 2.90625 5.76562 2.90625 10.29687zm0 0" id="b"/><path d="M19.3125 3.04688C17.78125 6.95313 16.28906 9.5 14.84375 10.6875c-1.4375 1.19531-3.3711 1.79688-5.79688 1.79688H4.75V7.96875h3.15625c1.48828 0 2.64063-.35547 3.45313-1.0625.8203-.69922 1.73437-2.35547 2.73437-4.96875l.96875-2.46875L1.78125-32.8125H7.5L17.75-7.15625 28.01563-32.8125h5.70312zm0 0" id="c"/><path d="M5.89063-43.73438h5.92187v38.75h21.29688V0H5.89062zm0 0" id="d"/><path d="M18.375-29.03125c-2.89844 0-5.1836 1.13281-6.85938 3.39063C9.83595-23.39063 9-20.30079 9-16.375c0 3.92969.83203 7.02344 2.5 9.28125 1.66406 2.25 3.95703 3.375 6.875 3.375 2.86328 0 5.13281-1.1289 6.8125-3.39063 1.6875-2.26953 2.53125-5.35937 2.53125-9.26562 0-3.88281-.84375-6.96094-2.53125-9.23438-1.67969-2.28124-3.94922-3.42187-6.8125-3.42187zm0-4.57813c4.6875 0 8.36328 1.52735 11.03125 4.57813 2.67578 3.04297 4.01563 7.26172 4.01563 12.65625 0 5.36719-1.33985 9.57813-4.01563 12.64063C26.73828-.6797 23.0625.84375 18.375.84375c-4.71094 0-8.39844-1.52344-11.0625-4.57813-2.66797-3.0625-4-7.27343-4-12.64062 0-5.39453 1.33203-9.61328 4-12.65625 2.66406-3.05078 6.35156-4.57813 11.0625-4.57813zm0 0" id="e"/><path d="M27.25-16.78125c0-3.90625-.8086-6.92969-2.42188-9.07813-1.61718-2.15624-3.875-3.23437-6.78124-3.23437-2.88672 0-5.13672 1.07813-6.75 3.23438C9.67967-23.71094 8.875-20.6875 8.875-16.78126c0 3.88672.80469 6.90234 2.42188 9.04688 1.61328 2.14843 3.86328 3.21875 6.75 3.21875 2.90624 0 5.16406-1.07032 6.78124-3.21875C26.44141-9.87891 27.25-12.89454 27.25-16.78126zm5.39063 12.70313c0 5.59375-1.2422 9.75-3.71876 12.46875-2.48046 2.72656-6.28124 4.09375-11.40624 4.09375-1.89844 0-3.6836-.14844-5.35938-.4375-1.67969-.28125-3.3086-.71485-4.89063-1.29688V5.51562C8.84766 6.3672 10.41016 7 11.95313 7.40625c1.53907.41406 3.11329.625 4.71875.625 3.53126 0 6.17579-.92969 7.9375-2.78125C26.3672 3.40625 27.25.61719 27.25-3.10938v-2.65625c-1.11719 1.9297-2.54297 3.3711-4.28125 4.32813C21.22656-.47656 19.14844 0 16.73437 0 12.70313 0 9.45704-1.53125 7-4.59375c-2.46094-3.07031-3.6875-7.13281-3.6875-12.1875C3.3125-21.86328 4.53906-25.9375 7-29c2.45703-3.07031 5.70313-4.60938 9.73438-4.60938 2.41406 0 4.49218.48047 6.23437 1.4375 1.73828.96094 3.16406 2.40626 4.28125 4.34376v-4.98438h5.39063zm0 0" id="f"/></defs><use y="50" xlink:href="#a"/><use x="41.045" y="50" xlink:href="#b"/><use x="79.072" y="50" xlink:href="#c"/><use x="114.58" y="50" xlink:href="#d"/><use x="148.008" y="50" xlink:href="#e"/><use x="184.717" y="50" xlink:href="#f"/></svg>