<svg xmlns="http://www.w3.org/2000/svg" role="img" viewBox="-3.83 -3.83 199.03 95.66"><title>APC logo</title><path fill="#00a650" d="M2.5739 81.54371c0 .30207.0552.5755.16562.82393.10937.24895.2604.4625.45155.64218.19166.17812.41405.3177.66977.4156.25468.0974.53384.14688.83435.14688.66145 0 1.19164-.22811 1.5911-.68488.4-.45572.60051-1.05466.60051-1.79422 0-.76197-.19686-1.36872-.59112-1.81923-.39479-.45051-.92237-.6755-1.58225-.6755-.52239 0-.96196.12343-1.32133.37238-.35988.24896-.63176.58592-.8182 1.013zm0 2.65617c0 .4349-.1.73541-.30312.90207-.20053.16561-.45728.24894-.76822.24894H1.2432c-.33437 0-.6026-.08071-.80415-.24218-.20208-.16145-.3026-.4677-.3026-.9182V73.5241c0-.0468.09271-.1036.27604-.17293.1849-.0692.39843-.10413.6406-.10413.18386 0 .36614.02866.54427.086.17864.05826.3401.1588.48332.30465.14478.1432.263.34373.35571.59732.09219.25413.1375.5771.1375.97031l.00782 2.82545c.30103-.42863.68124-.7656 1.14476-1.0156.46197-.2474.99372-.3724 1.59476-.3724.56665 0 1.09006.10418 1.56922.3125.4802.20834.8932.5026 1.23956.8828.3479.3828.61977.84738.81507 1.3958.19792.54946.29532 1.15882.29532 1.82912 0 .65884-.09479 1.26194-.28645 1.8114-.19114.54947-.45938 1.01665-.80727 1.40363-.3474.388-.76405.69008-1.24997.90987-.48542.2203-1.02446.32967-1.61455.32967-.65988 0-1.21871-.14167-1.67548-.42446-.45728-.28386-.80102-.6276-1.03278-1.03123v.13801m10.14818 3.79262c-.2198.0573-.48541.08333-.79634.07813-.313-.00625-.62133-.0401-.92757-.10417-.30573-.06354-.59218-.1625-.8578-.29426-.26562-.13385-.46613-.29791-.59894-.49478-.13281-.19635-.18073-.42707-.14688-.69269.0349-.26666.19636-.56093.48542-.88384.40363.17291.79164.29427 1.16142.36458.32291.05729.64946.07135.97915.04322.32967-.0302.60936-.1656.84111-.4078.12605-.15104.22553-.28123.29427-.3906.06927-.10939.11563-.19792.13801-.26824.03543-.0927.04694-.16145.03543-.20833-.19687-.02238-.35832-.07447-.48593-.15623-.12604-.08073-.23072-.2073-.31145-.3802l-2.91243-6.76025c-.01042-.03385.01824-.0927.08698-.17292.06927-.08125.16406-.15937.2854-.23488.1224-.07396.26719-.14427.43489-.20833.16666-.06355.34375-.0948.52864-.0948.288 0 .54843.08073.77862.2422.23177.163.42864.4854.58957.97132l1.83746 4.8358 1.63023-4.81914c.15-.48436.34626-.81091.58852-.97913.24212-.16772.49732-.25105.76291-.25105.17293 0 .3412.02865.50266.08699.16146.05729.30305.12655.42438.20728.12147.08072.2188.15625.29426.22656.0756.06874.1068.12082.0964.15469l-3.08579 8.07792c-.0928.23072-.20573.47029-.33866.71872-.1328.24896-.30359.48854-.51038.7203-.20826.2302-.45986.44114-.75518.6328-.29426.1901-.64319.33697-1.04838.44113"/><path fill="#231f20" d="M32.71892 81.8812c0 .73123-.18747 1.36403-.56092 1.89943-.37493.53384-.89678.94268-1.56663 1.22809-.67025.28384-1.4385.4255-2.30461.4255-.2416 0-.54012-.0156-.89158-.04686-.35159-.03125-.81771-.11614-1.40103-.25625-.58332-.14114-1.1885-.34947-1.81929-.62394v-2.87232c.59012.36718 1.16984.67185 1.7385.91403.57038.24375 1.1813.36458 1.83235.36458.60091 0 .98957-.10051 1.16663-.30103.17707-.20051.2656-.38802.2656-.5625 0-.31613-.15267-.58331-.45466-.8005-.30372-.2177-.74331-.44165-1.3213-.67342-.64065-.27082-1.2021-.56611-1.68489-.88383-.48332-.3203-.87758-.71873-1.18384-1.19945-.30732-.48018-.45932-1.04788-.45932-1.70307 0-.6328.15466-1.20413.46452-1.71455.30826-.51197.78118-.9193 1.41663-1.22395.63639-.30626 1.41397-.45826 2.33061-.45826.65212 0 1.25624.06347 1.80996.19013.55465.1276 1.01197.2708 1.37236.42959.35933.15786.60772.28132.74212.37239v2.75256c-.47919-.34374-1.01304-.65103-1.60156-.92186-.58852-.27082-1.21864-.40624-1.88795-.40624-.44013 0-.75772.08438-.95571.25364-.19627.16927-.29586.37915-.29586.62655 0 .23177.098.43228.29426.60154.19692.16928.54745.375 1.0521.61821.90265.42343 1.6265.8052 2.16822 1.14374.54158.338.9661.72862 1.27343 1.17287.30826.44271.46186.99478.46186 1.65517m9.2879 3.00358c-.2552.09635-.52346.1849-.80478.26666-.2828.08228-.59892.14843-.95145.20208-.35319.05312-.73851.08072-1.15517.08072-.94277 0-1.73955-.15885-2.3922-.47811-.65199-.31874-1.15304-.71873-1.50623-1.20153-.35253-.48176-.59626-.97394-.73172-1.47652-.13546-.50155-.20306-.94426-.20306-1.3281 0-.3828.0676-.8255.20666-1.3281.13866-.50154.3792-.98694.72292-1.45465.34479-.46717.8437-.8604 1.49476-1.17549.65105-.31508 1.45423-.47395 2.40887-.47395.63639 0 1.15624.04532 1.55716.13543.39946.08957.80572.21092 1.21877.363v2.39213c-.99317-.31509-1.76969-.47395-2.32807-.47395-.54159 0-1.02344.16406-1.44263.49219-.42093.32707-.63025.8359-.63025 1.52338 0 .45833.10413.84374.31252 1.15727.20826.31406.47399.54321.79585.6906.32132.14689.64318.21979.9645.21979.30467 0 .65106-.04427 1.04172-.13541.38799-.08958.86184-.2203 1.42183-.38958v2.39214m10.67786.40363h-3.04112v-4.4702c0-.03386.00107-.06614.0036-.09739.00267-.03021.0052-.09636.0052-.19791 0-.41145-.08853-.79061-.26293-1.13435-.17453-.34478-.50785-.51665-.99744-.51665-.38439 0-.72292.12863-1.01557.3854-.29266.25677-.57292.57968-.83692.96872v5.06238h-3.04219V73.55956h3.0422v4.34621c.50105-.5354.99677-.90101 1.48796-1.09633.48958-.19426 1.01037-.29166 1.56342-.29166 2.06249 0 3.0938 1.15988 3.0938 3.47909v5.29153m11.02825 0h-3.04099v-4.64728c0-.47395-.07813-.88643-.23333-1.2406-.15466-.35155-.49479-.52862-1.01984-.52862-.2484 0-.46719.04688-.65465.13906-.19013.09374-.35932.21353-.50772.36092-.14946.14583-.27506.2875-.37666.42291-.10093.13593-.20573.27864-.31346.43123v5.06238h-3.04165v-8.62478h3.04165v1.24215c.4792-.513.95931-.87237 1.44103-1.07809.4824-.20729 1.01985-.3099 1.6109-.3099 2.06248 0 3.09472 1.23592 3.09472 3.70824v5.06238m7.81914-5.0832c0-.55103-.138-.9906-.41306-1.31872-.27546-.32968-.67185-.49374-1.1869-.49374-.51199 0-.92505.16666-1.2401.50104-.31453.33488-.4724.77236-.4724 1.31142zm2.85406 1.49996h-6.08158c.11826.52603.40986.95675.87344 1.29007.46346.33489.98958.50155 1.5781.50155 1.02957 0 2.16661-.28906 3.41031-.8656v1.88902c-.44532.23176-.98757.4427-1.62236.63018-.63598.18854-1.44423.28385-2.427.28385-1.06144 0-1.96609-.1979-2.71087-.59218-.74478-.39477-1.3037-.93017-1.67342-1.60724-.36986-.67707-.55466-1.44372-.55466-2.30047 0-.84633.1848-1.60412.55466-2.27233.36972-.6677.92864-1.19216 1.67342-1.57392.74478-.3802 1.64836-.5703 2.71087-.5703.70051 0 1.37596.15104 2.02848.45207.65212.30156 1.18864.79425 1.60943 1.4786.42025.68384.63118 1.56663.63118 2.6489v.6078m4.44256-7.0275c0 .35579-.12653.65787-.37853.90525-.2532.24844-.55372.3724-.90104.3724-.23706 0-.45052-.05626-.64479-.16927-.19372-.11198-.34785-.26562-.45932-.46093-.112-.19375-.16826-.4104-.16826-.64744 0-.34893.124-.65092.37079-.90465.2464-.25252.54745-.38012.90158-.38012.34732 0 .64785.1276.90104.38012.252.25373.37853.55572.37853.90465zm.24479 10.61074h-3.04152v-8.62478h3.04152v8.62478m8.1822-2.73534v-3.29732c-.3568-.19791-.63706-.33854-.83758-.4229-.20053-.0849-.43746-.1276-.70932-.1276-.48172 0-.88118.2031-1.2021.6104-.31973.40624-.48012.95986-.48012 1.66036 0 .76301.16826 1.31873.50518 1.66663.33693.3474.73012.52083 1.17704.52083.3688 0 .66505-.0573.89171-.17448.22706-.11458.44519-.2604.65519-.43592zm3.04099 2.73534h-3.041v-.77862c-.32185.26822-.66251.48956-1.02184.66404-.35999.17343-.8557.2604-1.48863.2604-.62758 0-1.24463-.15519-1.84888-.46456-.60572-.31145-1.1025-.79426-1.4937-1.45205-.38906-.65623-.58438-1.48434-.58438-2.4817 0-.78383.14746-1.5182.44172-2.20464.29426-.68487.75518-1.24215 1.38276-1.67026.62759-.42865 1.39584-.64323 2.30568-.64323.56505 0 1.02344.0625 1.37397.18594.35092.125.66145.28281.9333.47551v-3.61967h3.041V85.2884m7.91913-5.0832c0-.55103-.138-.9906-.41146-1.31872-.27612-.32968-.67185-.49374-1.18743-.49374-.51306 0-.92451.16666-1.23957.50104-.3152.33488-.47399.77236-.47399 1.31142zm2.85406 1.49996h-6.08051c.11706.52603.40879.95675.87224 1.29007.4636.33489.98958.50155 1.5781.50155 1.0313 0 2.16661-.28906 3.41138-.8656v1.88902c-.44519.23176-.98691.4427-1.62236.63018-.63532.18854-1.44516.28385-2.427.28385-1.06238 0-1.9661-.1979-2.71087-.59218-.74478-.39477-1.30464-.93017-1.67436-1.60724-.36986-.67707-.55479-1.44372-.55479-2.30047 0-.84633.18493-1.60412.55479-2.27233.36972-.6677.92958-1.19216 1.67436-1.57392.74478-.3802 1.64849-.5703 2.71086-.5703.70052 0 1.37504.15104 2.02862.45207.65105.30156 1.18744.79425 1.6093 1.4786.41932.68384.63024 1.56663.63024 2.6489v.6078m9.06751-4.5728l-1.12504 3.04524c-.46345-.4401-.93224-.6599-1.40623-.6599-.42706 0-.79945.14584-1.11184.4375-.31252.29166-.61465.82914-.90104 1.61559v3.71761h-3.04166v-8.62478h3.04166v2.07807c.19013-.5104.52865-1.00935 1.01557-1.49475.48439-.48592 1.05464-.72916 1.70823-.72916.34385 0 .64585.05053.90104.15105.25786.10156.56519.25676.91931.46352m8.24713-1.8437h5.66652v1.2708h-4.22896v3.06243h4.10403v1.29163h-4.10403v3.10408h4.37483v1.27081h-5.8124v-9.99975m9.97376 0h1.3125v9.99975h-1.3125v-9.99975m6.98102 6.04152h3.31325c-.03466-.52603-.188-.93227-.46398-1.21872-.27866-.28384-.64799-.42708-1.11731-.42708-.46532 0-.84931.14324-1.14797.42708-.29733.28645-.49199.6927-.58399 1.21872zm4.60389.7708h-4.62389c.03334.63646.244 1.14322.63199 1.51925.38532.37655.88798.56404 1.49996.56404.85731 0 1.64663-.263 2.36794-.79165v1.263c-.39866.26458-.79731.4531-1.19064.56613-.39332.11354-.85464.17082-1.38263.17082-.72398 0-1.3093-.15104-1.75729-.45207-.44799-.30207-.80798-.70675-1.07864-1.21715-.26799-.50885-.40399-1.09894-.40399-1.76819 0-1.00519.284-1.82287.85465-2.4515.56798-.62915 1.30397-.94425 2.21061-.94425.87464 0 1.5733.30572 2.09195.9177.51998.61195.77998 1.4312.77998 2.45827v.1656m9.14644 1.66663v1.28226c-.65865.2427-1.30264.36354-1.92929.36354-1.0373 0-1.86262-.30625-2.47994-.91924-.61732-.61302-.92397-1.43487-.92397-2.46505 0-1.03904.29866-1.87755.90397-2.514.60132-.63696 1.39197-.95571 2.37461-.95571.34133 0 .64798.03281.92131.09636.27066.0651.60665.18644 1.00798.36301v1.39475c-.66932-.42968-1.28664-.64582-1.8573-.64582-.59598 0-1.08263.20833-1.46529.62499-.38265.41665-.57332.9479-.57332 1.59372 0 .67966.20533 1.21871.61732 1.61818.412.4.96664.6005 1.66396.6005.50532 0 1.08397-.14583 1.73996-.43749m3.33591-4.0249l2.4586-2.41243v1.37496h2.06129v1.16664h-2.06128v3.2395c0 .7578.30932 1.1354.92664 1.1354.46266 0 .95331-.1526 1.46796-.45833v1.2057c-.49998.27968-1.04397.41926-1.63195.41926-.59599 0-1.08931-.17448-1.48397-.52343-.12266-.10573-.22666-.22395-.30799-.35572-.08133-.13124-.148-.30467-.20266-.51666-.05467-.21352-.08133-.61873-.08133-1.21767v-2.92805h-1.1453v-.12917m9.98108-1.03747v1.49737l.07333-.11459c.63198-1.0182 1.26797-1.52861 1.90128-1.52861.49466 0 1.00931.24843 1.54663.74738l-.69065 1.14841c-.45599-.42968-.8773-.64582-1.26797-.64582-.42132 0-.78931.20053-1.09597.6026-.31066.40103-.46665.87653-.46665 1.42704v3.4494h-1.31197v-6.58318h1.31197m7.24248 0h1.31197v6.58317h-1.31197zm.65599-2.77077c.21332 0 .39865.07448.55198.2224.15066.14843.22933.32968.22933.54425 0 .21094-.07867.3922-.22933.54583-.15333.15207-.33866.22915-.55198.22915-.2 0-.37733-.07812-.532-.23333-.15332-.15467-.22799-.33592-.22799-.54165 0-.20051.07467-.37863.228-.53384.15466-.15467.332-.2328.53199-.2328m10.2624 7.83313v1.28226c-.65864.2427-1.3013.36354-1.92928.36354-1.03597 0-1.86262-.30625-2.4786-.91924-.61732-.61302-.92531-1.43487-.92531-2.46505 0-1.03904.29999-1.87755.90397-2.514.60132-.63696 1.3933-.95571 2.37461-.95571.34133 0 .64932.03281.92264.09636.27066.0651.60666.18644 1.00665.36301v1.39475c-.66932-.42968-1.2853-.64582-1.85596-.64582-.59598 0-1.08397.20833-1.46663.62499-.38266.41665-.57198.9479-.57198 1.59372 0 .67966.20532 1.21871.61598 1.61818.41199.4.96664.6005 1.6653.6005.50398 0 1.08263-.14583 1.73862-.43749"/><path fill="none" stroke="#231f20" stroke-width=".99664175" d="M.84633 61.60666h179.71582"/><path fill="#e51635" d="M32.256 49.26164l-6.39625-11.40332h23.10676L37.36267 13.27827 20.35109 49.26164H0L26.6452.69005h21.43533l26.4488 48.57159H32.256m42.37334-28.21636h25.3651c6.39558 0 8.94765-.39586 8.94765-4.91761 0-4.32963-2.06249-4.82082-8.65339-4.82082H74.52934L68.82374.69005h35.79298c16.91624 0 23.20515 7.37888 23.20515 15.24069 0 7.57274-5.79945 15.92773-24.37966 15.92773h-8.46338v17.40317h-20.4495V21.04528h.1"/><path fill="#e51635" d="M180.82348 45.62533c-6.09718 2.85153-13.66633 4.23016-21.73146 4.23016-24.38472 0-32.74158-13.57113-32.74158-24.78071 0-14.15432 12.38742-25.07231 33.72822-25.07231 7.76514 0 14.54897 1.17704 20.25016 3.34272v14.06058c-5.89585-3.1442-11.01039-4.52336-17.01024-4.52336-10.2264 0-18.58353 4.61962-18.58353 11.99344 0 7.27848 8.55445 11.9997 18.78086 11.9997 5.90385 0 10.7184-1.17864 17.30757-4.2291v12.97888"/><path fill="#231f20" d="M183.88474 3.9285c-.196 0-.30266-.1016-.30266-.27866v-.03026c0-.17546.10666-.2708.30266-.2708h2.87992c.196 0 .29466.09534.29466.2708v.03026c0 .17707-.09866.27866-.29466.27866h-1.1133v3.21966c0 .19426-.1.29586-.28933.29586h-.088c-.18266 0-.27732-.1016-.27732-.29586V3.9285h-1.11197m3.73724 3.21966V3.6821c0-.21973.14533-.35932.37199-.35932h.168c.25332 0 .32265.09533.42265.32705l.96264 2.17182.96798-2.17182c.10133-.23852.17733-.32705.41599-.32705h.15733c.23332 0 .38399.1396.38399.35932v3.46605c0 .19426-.08267.29586-.27066.29586h-.08933c-.18133 0-.256-.1016-.256-.29586V4.16023l-.9013 2.02595c-.068.16413-.13734.27613-.41333.27613-.284 0-.34-.112-.416-.27613l-.88797-2.00768v2.96966c0 .19426-.076.29586-.264.29586h-.09999c-.176 0-.252-.1016-.252-.29586"/></svg>