<svg xmlns="http://www.w3.org/2000/svg" role="img" viewBox="-29.10 -26.60 2943.20 775.70"><title>Aricent logo</title><defs><style>.cls-3{fill-rule:evenodd;fill:#e4722b}</style><mask id="mask" width="2708.178" height="662.604" x="28" y="31.381" maskUnits="userSpaceOnUse"><g id="mask-2"><path id="path-1" fill="#fff" fill-rule="evenodd" d="M1382.119 31.381H28.059v662.604h2708.119V31.381H1382.119z"/></g></mask></defs><g id="Page-1"><g id="Aricent-Logo-CMYK"><g mask="url(#mask)" id="Group-3"><path id="Fill-1" d="M798.134 291.055h7.299v58.307c5.365-13.496 31.763-63.862 108.792-63.862 20.771 0 33.126 4.674 34.937 5.438v70.134a137.944 137.944 0 0 0-54.945-11.9c-53.37 0-88.784 32.743-88.784 96.75v143.85c0 38.728-1.503 71.544 31.979 88.664v4.652H696.996v-4.652c35.678-18.982 31.932-49.936 31.932-88.664V388.88c0-38.681 3.172-62.172-31.096-75.072v-4.65zM317.606 142.844L371.359 31.38l215.392 526.482c20.006 49.22 37.296 96.322 84.634 120.573v4.652h-185.2v-4.652c19.698-6.867 30.739-13.067 30.739-27.924 0-13.57-7.082-30.31-18.124-59.117zM216.325 519.66c55.518-137.863 146.71-136.982 168.841-139.32-4.435-1.24-25.325-7.13-54.683-7.13-110.461 0-154.628 63.126-197.077 151.624-7.963 16.598-24.585 50.913-24.585 50.913C88.31 620.703 73.262 658.38 28 678.485v4.65h171.87v-4.58c-20.987-4.959-30.62-15.452-30.62-29.618 0-12.351 6.248-28.212 14.737-49.101zm845.587-329.719c-30.043 0-52.7-23.514-52.7-53.514 0-28.448 25.943-47.934 52.7-47.934 27.643 0 48.743 23.538 48.743 50.32 0 26.804-21.1 51.128-48.743 51.128zm38.444 399.83c0 38.728-1.476 71.544 31.951 88.664v4.652H991.921v-4.652c35.679-18.982 31.93-49.936 31.93-88.664V388.88c0-38.681 3.13-62.172-31.094-75.072v-4.65l100.3-18.103h7.299zM1533.43 383.3c-18.7-18.554-52.757-43.57-108.957-43.57-93.316 0-149.979 64.388-149.979 149.763 0 87.855 58.473 150.24 149.979 150.24 61.974 0 98.746-33.554 105.357-41.327h5.174l-15.602 79.89c-17.117 5.675-62.742 15.69-100.802 15.69-135.478 0-225.902-83.849-225.902-204.182 0-128.872 99.395-204.303 225.902-204.303 29.57 0 76.868 7.035 107.58 16.908zm1076.507 171.607c0 49.46 19.527 83.632 79.84 83.632a53.445 53.445 0 0 0 29.048-8.463h4.594l-40.46 61.336c-4.702.906-14.746 2.574-30.978 2.574-79.533 0-118.548-53.18-118.548-138.889V370.04c0-42.281-34.46-56.231-57.164-56.231v-4.65l128.73-107.436h4.938v98.373h72.49c33.791 0 44.219-6.559 48.124-8.99h5.627l-35.571 69.396h-90.67zm-737.28-127.346c-7.22-51.081-39.94-87.831-100.133-87.831-51.292 0-92.195 37.822-100.163 87.831zm-203.414 48.72c0 100.782 51.025 163.453 144.47 163.453 68.27 0 106.044-35.367 116.039-45.716h5.155l-21.249 79.006c-14.382 5.629-48.605 20.962-110.157 20.962-130.402 0-215.819-87.209-215.819-204.014 0-116.855 73.19-204.47 191.708-204.47 104.363 0 175.663 82.37 172.584 190.828zm460.372 113.492c0 38.728-1.544 71.544 31.932 88.713v4.603h-140.368v-4.603c35.63-19.03 31.893-49.985 31.893-88.713V388.88c0-38.681 3.167-62.172-31.057-75.072v-4.604l100.31-18.149h7.29zm16.89-234.59c8.156-6.581 38.946-25.206 77.793-25.206 75.668 0 110.6 58.237 110.6 137.122V590.63c0 37.87 1.053 68.825-31.863 87.807v4.652h140.348v-4.652c-34.558-19.362-31.96-49.126-31.96-87.807V449.86c0-96.44-55.729-162.522-147.067-162.522-68.438 0-108.554 53.658-117.85 67.845z" class="cls-3"/></g><path id="Fill-4" d="M2766.546 325.659a46.108 46.108 0 1 1 46.018 46.336 46.049 46.049 0 0 1-46.018-46.336zm86.843 0c0-22.895-18.002-41.471-40.825-41.471-22.793 0-40.706 18.46-40.706 41.47 0 22.823 18.002 41.424 40.824 41.424 22.852 0 40.707-18.506 40.707-41.423zm-57.489-26.374h17.402c11.569 0 17.963 4.935 17.963 14.022 0 8.06-4.722 12.352-11.55 13.76l12.425 23.132h-6.502l-12.12-22.298h-11.607v22.298h-6.011zm17.146 23.56c7.752 0 12.307-2.408 12.307-9.324 0-6.393-4.555-8.825-12.405-8.825h-11.037v18.15z" class="cls-3"/></g></g></svg>