<svg xmlns="http://www.w3.org/2000/svg" role="img" viewBox="-4.12 54.63 408.98 135.73"><title>Arm Limited (member) logo</title><style>svg {enable-background:new 0 0 1400 980}</style><path fill="none" d="M0 0h400v245H0z" pointer-events="none"/><path fill="#0091bd" d="M92.7304 65.8373h26.43726v113.23123H92.7304v-11.80531c-11.63904 13.46803-25.77216 15.29702-33.91949 15.29702-34.91712 0-54.86976-29.0976-54.86976-60.19046 0-36.91239 25.27334-59.52538 55.2023-59.52538 8.3136 0 22.94554 2.16154 33.58695 16.12838V65.8373zm-61.85318 57.0313c0 19.62009 12.30413 36.08102 31.42541 36.08102 16.6272 0 32.0905-12.13786 32.0905-35.74848 0-24.77453-15.29703-36.57984-32.0905-36.57984-19.12128 0-31.4254 16.12838-31.4254 36.2473zM150.4268 65.8373h26.43725v10.14259c2.9929-3.49171 7.31597-7.31597 10.97395-9.4775 5.15443-2.9929 10.1426-3.82426 16.12839-3.82426 6.4846 0 13.46803.99763 20.784 5.3207L213.9427 91.942c-5.9858-3.82426-10.80768-3.99053-13.46804-3.99053-5.65324 0-11.3065.83136-16.46092 6.15207-7.31597 7.81478-7.31597 18.62246-7.31597 26.1047v58.69402h-26.43725V65.8373zm91.28333 0h26.43725v10.47513c8.81241-10.80768 19.28755-13.46803 27.9337-13.46803 11.8053 0 22.94553 5.65325 29.26387 16.6272 9.4775-13.46803 23.61062-16.6272 33.58694-16.6272 13.80058 0 25.77216 6.4846 32.25677 17.7911 2.16153 3.82426 5.98579 12.13786 5.98579 28.59879v70.00051h-26.43725v-62.352c0-12.63667-1.33017-17.7911-2.49408-20.11891-1.66272-4.32307-5.65325-9.97632-15.13075-9.97632-6.4846 0-12.13786 3.49171-15.62957 8.3136-4.65561 6.4846-5.15443 16.12838-5.15443 25.77216v58.36147h-26.43725v-62.352c0-12.63667-1.33017-17.7911-2.49408-20.11891-1.66272-4.32307-5.65325-9.97632-15.13075-9.97632-6.4846 0-12.13786 3.49171-15.62957 8.3136-4.65561 6.4846-5.15443 16.12838-5.15443 25.77216v58.36147h-25.77216V65.8373z" class="st0"/></svg>