<svg xmlns="http://www.w3.org/2000/svg" role="img" viewBox="-8.52 -9.52 807.04 267.04"><title>Arm logo</title><path fill="#0091bd" d="M182.499 11.993h51.995v223.371H182.5V212.02c-22.815 26.527-50.935 30.243-66.853 30.243-68.974 0-108.237-57.303-108.237-118.85C7.41 50.725 57.284 6.156 116.177 6.156c16.448 0 45.1 4.245 66.323 31.835zM60.467 124.473c0 38.732 24.406 71.099 62.076 71.099 32.896 0 63.139-23.876 63.139-70.567 0-48.812-30.243-72.158-63.139-72.158-37.67 0-62.076 31.834-62.076 71.627zm235.94-112.48h51.997v20.162c5.836-6.898 14.325-14.326 21.753-18.571 10.08-5.836 20.162-7.428 31.835-7.428 12.734 0 26.529 2.124 40.853 10.612l-21.22 47.22c-11.676-7.428-21.226-7.957-26.53-7.957-11.143 0-22.285 1.59-32.366 12.203-14.326 15.387-14.326 36.61-14.326 51.465v115.665h-51.996zm180.017 0h51.996v20.692c17.51-21.223 38.202-26.53 55.179-26.53 23.346 0 45.1 11.143 57.835 32.897 18.57-26.53 46.688-32.896 66.32-32.896 27.06 0 50.937 12.734 63.67 35.017 4.244 7.428 11.672 23.876 11.672 56.242v137.95h-51.995V112.27c0-24.936-2.655-35.017-4.777-39.792-3.184-8.49-11.141-19.632-29.711-19.632-12.734 0-23.876 6.898-30.774 16.447-9.02 12.734-10.081 31.835-10.081 50.937v115.133H603.76V112.271c0-24.936-2.651-35.017-4.773-39.792-3.184-8.49-11.144-19.632-29.713-19.632-12.734 0-23.876 6.898-30.772 16.447-9.02 12.734-10.083 31.835-10.083 50.937v115.133h-51.996z"/></svg>