<svg xmlns="http://www.w3.org/2000/svg" role="img" viewBox="-12.57 -12.57 653.64 245.64"><title>ASRock Rack logo</title><path fill="#83B817" d="M224.287.331c-.104 5.824-.425 11.656-.237 17.472.127 3.966-1.316 5.164-5.216 5.133-19.827-.155-39.656-.084-59.484-.063-8.04.008-12.521 3.95-12.535 10.928-.014 6.944 4.396 10.773 12.617 10.827 12.496.082 24.995-.035 37.488.178 14.806.252 28.495 9.941 31.881 22.264 5.29 19.254-10.104 40.49-30.248 40.7-35.82.373-71.647.068-107.471.2-4.237.016-4.409-2.191-4.399-5.364.073-23.827.065-47.654.064-71.481 0-6.164-2.816-8.493-8.289-5.462-3.755 2.081-7.154 6.006-9.123 9.909-9.745 19.313-19.7 38.587-28.074 58.509-4.636 11.031-8.636 13.95-22.605 13.95-7.904 0-11.919-.167-18.654-.167.706-1.882 1.063-3.25 1.702-4.474C16.766 74.446 31.928 45.551 46.91 16.565 51.333 8.006 58.37 3.074 67.287.331h49c-.151 27.481-.276 54.963-.486 82.443-.024 3.142 1.47 4.002 4.288 3.991 23.157-.081 46.314.03 69.469-.3 3.239-.046 6.98-1.481 9.563-3.474 6.213-4.791 4.359-13.661-3.122-16.141-2.156-.715-4.567-.892-6.864-.908-12.828-.091-25.658.075-38.484-.099-16.768-.228-31.447-14.753-31.425-31.981.024-17.6 9.007-30.837 28.399-33.532 3.313-.107 2.75 0 5.663 0 23.666.001 47.333.001 70.999.001zM309.541 1c4.337 1.514 8.746 2.844 12.994 4.572 19.914 8.102 19.289 30.746 10.33 40.037-3.735 3.875-9.35 5.978-14.209 8.709-1.512.85-3.35 1.117-6.053 1.972 2.5 1.838 4.129 3.152 5.872 4.296 16.119 10.579 18.938 26.758 18.457 44.222-.025.944-2.08 2.597-3.228 2.626-8.653.226-17.317.052-25.979.167-3.331.045-3.413-1.871-3.824-4.452-.987-6.191-1.732-12.586-3.929-18.388-5.324-14.074-19.449-17.2-30.019-16.999-.987.021-2.729 2.526-2.762 3.91 0 11.266-.04 17.828-.04 30.476.133 4.496-1.457 5.896-5.766 5.611-5.409 0-9.222-.007-13.983-.007-4.099.238-5.502-1.19-5.467-5.389.179-20.985.138-41.974.062-62.96-.045-12.801-.297-25.602-.457-38.403h68.001zm-30.373 42.513h8.372c5.252-.154 5.595-.161 10.841-.839 4.555-.588 7.188-3.791 7.164-8.251-.024-4.631-3.181-7.354-7.604-7.807-5.926-.604-11.914-.94-17.867-.867-15.661.191-12.667-1.251-13.022 15.676-.053 2.532.89 2.159 3.479 2.088h8.637zM629 108c-8.49-.104-16.981-.313-25.473-.258-3.325.021-5.122-.588-5.434-4.526-.44-5.591-1.154-11.295-2.803-16.627-3.692-11.962-15.344-18.741-27.73-17.104-3.319.439-2.953 2.592-2.963 4.693-.045 9.33-.243 18.668.063 27.988.149 4.52-1.486 5.791-5.775 5.601-6.651-.295-13.345-.374-19.984.021-4.999.297-6.578-1.226-6.54-6.392.232-31.489.125-62.98.098-94.471-.004-1.975-.301-3.949-.459-5.925h33c-.133 14.814-.263 29.629-.396 44.443-.028 3.111 1.901 3.892 4.564 3.972 12.966.388 23.638-3.585 29.784-15.869 1.406-2.81 2.047-4.457 5.482-4.299 5.487.252 9.634.362 15.12.098 4.511-.218 7.974-.283 7.974 2.03-.84 9.361-6.575 19.181-13.929 24.021-1.734 1.142-3.57 2.13-6.053 3.599 2.071 1.673 3.428 2.806 4.821 3.889 8.119 6.301 13.061 14.521 14.984 24.604.419 2.196 1.087 4.344 1.641 6.514.008 4.665.008 9.331.008 13.998z"/><path fill="#003576" d="M171 220.998v-80.712c13.304 0 26.233-.204 39.153.088 6.255.142 12.738.336 18.672 2.056 10.467 3.03 15.34 10.215 15.006 19.737-.332 9.438-5.438 15.455-15.811 18.626-.762.232-1.524.463-2.482.753.288.644.354 1.242.664 1.421 11.604 6.682 15.839 17.369 16.421 30.063.122 2.656.251 5.313.377 7.971h-26c-.349-3.967-.323-8.009-1.109-11.887C213.288 196.27 203.2 189.3 190 191.227v29.771h-19zm19.025-49.828c7.867 0 15.315.383 22.677-.257 1.942-.169 4.977-3.457 5.021-5.37.043-1.859-2.982-5.271-4.878-5.434-7.5-.635-15.084-.26-22.818-.26-.002 3.765-.002 7.387-.002 11.321zm203.256 49.828c.127-6.648 0-78.505 0-80.566h24.671v29.625c.002 8.317.854 7.188 9.201 5.789 7.018-1.175 12.605-4.541 15.561-11.117 1.432-3.188 3.38-3.883 6.519-3.742 4.96.221 11.938.06 16.771.06 0 9.205-2.589 14.888-14.521 22.362 0 .326-.127.82.021.924 11.837 8.229 15.022 20.123 14.354 33.678-.05.992.093 1.993.146 2.989h-24c-.34-4.793-.102-9.713-1.132-14.353-2.414-10.863-12.102-16.664-22.868-13.945V221c-8.338-.002-16.389-.002-24.723-.002zm-149.281 0c9.287-17.064 18.765-34.031 27.771-51.244 3.815-7.29 8.93-11.015 17.362-10.688 9.957.389 19.938.092 30.865.092v61.84h-22.999V177.34c-4.263-1.52-6.124.926-7.675 3.883-3.544 6.754-7.106 13.498-10.577 20.289-3.307 6.467-6.502 12.988-9.748 19.486H244zm121 0c-4.687-1.014-9.613-1.419-13.996-3.184-6.247-2.515-12.765-5.172-17.979-9.275-12.422-9.775-12.246-24.751-.303-35.205 8.906-7.796 19.734-10.996 31.191-11.827 8.268-.601 16.611-.116 25.313-.116v13.103c-6.367.438-12.879.284-19.115 1.521-4.725.938-9.61 2.928-13.514 5.725-6.847 4.904-6.98 13.291-.083 18.092 4.446 3.096 10.079 4.956 15.45 6.123 5.441 1.184 11.221.833 17.316 1.18.242 4.707.479 9.288.713 13.869-8.327-.006-16.659-.006-24.993-.006z"/><path fill="#83B817" d="M386.072 107.676c-13.223.46-25.381-2.877-36.211-10.529-21.371-15.099-21.787-40.896-.991-56.611 21.017-15.882 55.672-15.108 75.946 1.673 8.557 7.081 13.787 16.186 13.453 27.228-.354 11.653-6.607 20.727-16.072 27.42-10.804 7.639-22.853 11.318-36.125 10.819zm-.048-16.183c11.236 1.052 22.645-8.187 24.313-18.54 2.003-12.418-4.577-22.898-16.741-26.37-3.58-1.021-7.604-1.313-11.311-.902-9.071 1.002-15.771 5.839-19.593 14.23-3.676 8.076-2.192 15.705 3.111 22.441 5.019 6.37 11.832 9.485 20.221 9.141zm122.617 16.198c-16.842.354-34.096-1.721-49.434-11.512-10.407-6.643-18.276-15.35-17.695-28.731.51-11.719 7.77-19.536 16.783-25.81 11.695-8.139 25.173-11.149 39.094-12.074 8.465-.563 16.994-.07 25.488-.31 3.76-.106 4.84 1.365 4.882 4.982.143 12.318.246 12.021-11.854 12.552-9.415.413-19.313.153-27.394 5.911-4.133 2.945-7.998 7.131-10.254 11.624-2.872 5.724.107 12.378 5.918 17.134 5.859 4.798 12.74 7.192 20.146 7.907 6.114.59 12.279.857 18.422.869 3.604.008 5.085 1.095 4.996 4.873-.357 15.092 1.953 12.265-12.207 12.577-1.997.046-3.998.008-6.891.008z"/><path fill="#83B817" d="M385.933 84.568c-10.048-.001-17.446-6.704-17.495-15.854-.051-9.39 7.436-16.307 17.617-16.279 9.518.025 17.535 7.442 17.471 16.161-.065 8.763-8.005 15.972-17.593 15.972z"/></svg>