<svg xmlns="http://www.w3.org/2000/svg" role="img" viewBox="-2.63 -3.13 500.76 217.26"><title>AT&amp;T logo</title><path fill="none" d="M0 0h496.09v288H0z"/><path fill="#231f20" d="M462.808 145.65a2.08 2.08 0 0 0 2.178-2.18V79.598h21.688a2.079 2.079 0 0 0 2.177-2.18v-8.81a2.079 2.079 0 0 0-2.177-2.18h-57.735a2.078 2.078 0 0 0-2.178 2.18v8.81a2.078 2.078 0 0 0 2.178 2.18h21.69v63.872a2.08 2.08 0 0 0 2.177 2.18zm-150.893-2.577l-26.837-74.665a2.814 2.814 0 0 0-2.97-1.98h-13.272a2.697 2.697 0 0 0-2.868 1.98l-26.838 74.665a1.848 1.848 0 0 0 1.683 2.577h9.705a2.776 2.776 0 0 0 2.87-2.081l5.846-16.832h31.983l5.844 16.832a2.778 2.778 0 0 0 2.872 2.081h10.3a1.813 1.813 0 0 0 1.682-2.577zm-48.13-29.31l11.49-32.678 11.386 32.679zm173.375 29.115l-16.737-18.125 11.093-19.011c.99-1.682.098-2.774-1.489-2.774h-9.604a3.342 3.342 0 0 0-3.267 1.782l-6.24 10.896-11.092-11.983c7.529-4.162 14.66-9.707 14.66-19.607 0-11.586-8.123-19.41-21.392-19.41-12.973 0-21.588 8.415-21.588 20.697 0 4.85 2.082 10.396 6.634 15.645-9.307 5.15-15.448 11.288-15.448 22.778 0 14.954 11.39 23.666 25.848 23.666 11.682 0 18.717-5.05 23.765-11.782l7.525 8.315a4.093 4.093 0 0 0 3.666 1.685h12.575c1.587 0 2.38-1.386 1.091-2.772zm-43.869-65.955c5.15 0 7.724 3.367 7.724 7.43 0 4.357-2.972 6.832-10.002 10.89-4.062-4.355-5.841-7.326-5.841-10.694 0-4.357 2.97-7.626 8.119-7.626zm-4.456 58.03c-6.539 0-12.083-4.848-12.083-11.682 0-6.935 3.962-10.399 10.103-13.866l16.042 17.233c-3.467 5.248-7.728 8.316-14.062 8.316zm-60.503 10.697a2.08 2.08 0 0 1-2.177-2.18V79.598h-21.686a2.08 2.08 0 0 1-2.18-2.18v-8.81a2.08 2.08 0 0 1 2.18-2.18h57.733a2.079 2.079 0 0 1 2.179 2.18v8.81a2.079 2.079 0 0 1-2.179 2.18h-21.686v63.872a2.08 2.08 0 0 1-2.18 2.18z"/><path fill="#00b0eb" d="M156.703 20.899a98.9 98.9 0 0 0-102.016.415c-4.464 2.75-6.98 4.956-6.98 7.785 0 8.357 19.515 17.336 54.134 17.336 34.256 0 60.831-9.836 60.831-19.308 0-2.258-1.972-3.841-5.969-6.228zm14.74 11.003a4.008 4.008 0 0 1 .624 2.284c0 11.003-33.66 30.467-87.25 30.467-39.368 0-46.74-14.61-46.74-23.902 0-3.321 1.273-6.721 4.076-10.172.155-.208.025-.286-.156-.13A99.355 99.355 0 0 0 28.06 44.93c-1.972 2.491-3.191 4.697-3.191 6.02 0 19.257 48.27 33.219 93.4 33.219 48.088 0 69.55-15.7 69.55-29.507 0-4.931-1.92-7.812-6.825-13.391a116.318 116.318 0 0 0-9.395-9.499c-.155-.13-.259-.026-.155.13zM16.564 63.485A98.148 98.148 0 0 0 9.48 84.013a6.575 6.575 0 0 0 .52 4.801c6.072 12.898 36.799 33.53 108.477 33.53 43.73 0 77.7-10.744 83.202-30.363 1.012-3.608 1.064-7.423-.234-12.561a95.888 95.888 0 0 0-6.488-17.129c-.078-.155-.208-.13-.182.052.857 25.718-70.848 42.302-107.025 42.302-39.187 0-71.886-15.623-71.886-35.346a23.896 23.896 0 0 1 .882-5.762c.052-.181-.104-.208-.181-.052zm69.577 82.19c-50.683 0-74.585-23.617-78.918-39.733-.052-.233-.208-.181-.208.026a98.232 98.232 0 0 0 1.479 17.076 19.892 19.892 0 0 0 4.983 8.643c12.275 12.794 42.872 30.727 95.865 30.727 72.198 0 88.703-24.058 92.077-31.973 2.414-5.658 3.66-15.883 3.66-24.472 0-2.077-.053-3.738-.13-5.373 0-.26-.156-.285-.208-.026-3.607 19.36-65.294 45.105-118.6 45.105zm26.627 43.572c24.369 0 51.15-6.642 67.163-19.801a53.475 53.475 0 0 0 12.301-14.766 94.321 94.321 0 0 0 5.97-12.38c.077-.206-.053-.31-.208-.077-14.897 21.928-58.028 35.605-102.562 35.605-31.48 0-65.346-10.069-78.608-29.3-.13-.18-.26-.103-.182.105 12.354 26.263 49.828 40.614 96.126 40.614zm-67.449-5.061a98.98 98.98 0 0 0 125.97-3.736c.208-.182.104-.311-.104-.182-7.811 5.216-30.078 16.61-65.139 16.61-30.467 0-49.723-6.8-60.597-12.872-.207-.104-.285.051-.13.18z"/></svg>