<svg xmlns="http://www.w3.org/2000/svg" role="img" viewBox="-6.68 -6.68 347.36 153.86"><title>Automotive Edge Computing Consortium logo</title><defs><clipPath id="clip-path"><path fill="none" d="M0 0h334.296v140.725H0z"/></clipPath><style>.cls-2{fill:#231f20}.cls-3{clip-path:url(#clip-path)}</style></defs><path d="M102.185 115.855h5.392l1.674 3.903h1.27l-4.982-11.595h-1.302l-4.95 11.595h1.205l1.693-3.903m2.712-6.377l2.224 5.328h-4.496zm12.248 10.483a3.724 3.724 0 0 0 3.51-2.162 5.992 5.992 0 0 0 .437-2.412v-7.224h-1.159v7.224a4.812 4.812 0 0 1-.391 2.098 2.73 2.73 0 0 1-4.796 0 4.813 4.813 0 0 1-.391-2.098v-7.224h-1.159v7.224a5.994 5.994 0 0 0 .439 2.412 3.72 3.72 0 0 0 3.51 2.162m13.265-11.798h-6.47v1.049h2.663v10.546h1.159v-10.546h2.648v-1.049m8.473-.205a6.003 6.003 0 1 0 6.142 6.003 6.083 6.083 0 0 0-6.142-6.003m0 10.953a4.952 4.952 0 1 1 4.982-4.935 4.994 4.994 0 0 1-4.982 4.935zm20.428-9.479v10.326h1.159v-11.595h-1.787l-4.23 9.871-4.216-9.871h-1.785v11.595h1.159v-10.326h.03l4.311 10.326h.987l4.339-10.326h.033m10.709-1.474a6.003 6.003 0 1 0 6.142 6.003 6.082 6.082 0 0 0-6.142-6.003m0 10.953a4.952 4.952 0 1 1 4.982-4.935 4.994 4.994 0 0 1-4.982 4.935zm12.292.847v-10.546h2.648v-1.049h-6.471v1.049h2.664v10.546h1.159m5.514-11.595h1.159v11.595h-1.159zm9.964 11.595l4.809-11.595h-1.254l-4.105 10.152-4.09-10.152h-1.283l4.777 11.595h1.146m7.608 0h6.347v-1.05h-5.188v-4.277h5.015v-1.05h-5.015v-4.169h5.188v-1.049h-6.347v11.595m15.866 0h6.347v-1.05h-5.188v-4.277h5.015v-1.05h-5.015v-4.169h5.188v-1.049h-6.347v11.595m17.182-10.64a7.354 7.354 0 0 0-3.775-.955h-3.385v11.595h3.385a7.385 7.385 0 0 0 3.775-.956 5.767 5.767 0 0 0 0-9.684m-.342 8.651a5.91 5.91 0 0 1-3.731.939h-1.928v-9.496h1.677a6.36 6.36 0 0 1 3.823.893 4.654 4.654 0 0 1 1.975 3.839 4.767 4.767 0 0 1-1.816 3.825zm10.35-2.29h6.47a4.916 4.916 0 0 1-4.685 3.432 4.953 4.953 0 1 1-.046-9.903 4.848 4.848 0 0 1 4.122 2.242h1.348a4.12 4.12 0 0 0-.752-1.16 6.296 6.296 0 0 0-4.734-2.132 6.003 6.003 0 1 0 6.144 6.473h-7.867v1.048m11.214 4.279h6.345v-1.05h-5.186v-4.277h5.013v-1.05h-5.013v-4.169h5.186v-1.049h-6.345v11.595m-153.846 19.917a4.944 4.944 0 0 1-.016-9.888 4.86 4.86 0 0 1 4.027 2.115h1.299a4.007 4.007 0 0 0-.735-1.096 6.086 6.086 0 0 0-4.575-2.069 5.994 5.994 0 1 0 .014 11.988 6.127 6.127 0 0 0 5.343-3.244h-1.3a5.051 5.051 0 0 1-4.057 2.194m14.378-10.953a6.003 6.003 0 1 0 6.141 6.002 6.082 6.082 0 0 0-6.141-6.002m0 10.953a4.952 4.952 0 1 1 4.982-4.937 4.996 4.996 0 0 1-4.982 4.937zm15.567-.878l-4.216-9.871h-1.785v11.594h1.159v-10.326h.03l4.311 10.326h.986l4.34-10.326h.033v10.326h1.159v-11.594h-1.787l-4.23 9.871m16.165-9.198a5.223 5.223 0 0 0-2.994-.673h-3.228v11.594h1.16v-4.668h2.068a5.224 5.224 0 0 0 2.994-.674 3.422 3.422 0 0 0 0-5.579m-1.067 4.905a4.307 4.307 0 0 1-1.99.298h-2.005v-4.827h2.005a4.307 4.307 0 0 1 1.99.297 2.335 2.335 0 0 1 0 4.232zm12.42 1.645a4.83 4.83 0 0 1-.39 2.099 2.728 2.728 0 0 1-4.796 0 4.817 4.817 0 0 1-.391-2.099v-7.223h-1.16v7.223a6 6 0 0 0 .44 2.413 3.93 3.93 0 0 0 7.02 0 6.014 6.014 0 0 0 .437-2.413v-7.223h-1.16v7.223m4.007-6.174h2.664v10.545h1.159v-10.545h2.647v-1.049h-6.47v1.049m9.335-1.049h1.159v11.594h-1.159zm13.158 9.62h-.03l-6.472-9.62h-1.567v11.594h1.16v-10.2h.032l6.877 10.2h1.162v-11.594h-1.162v9.62m9.021-2.303h6.47a4.916 4.916 0 0 1-4.683 3.432 4.954 4.954 0 1 1-.048-9.904 4.853 4.853 0 0 1 4.122 2.242h1.347a4.145 4.145 0 0 0-.752-1.161 6.288 6.288 0 0 0-4.733-2.13 6.003 6.003 0 1 0 6.143 6.472h-7.866v1.049m22.743 3.432a4.944 4.944 0 0 1-.015-9.888 4.86 4.86 0 0 1 4.027 2.115h1.3a4.033 4.033 0 0 0-.736-1.096 6.088 6.088 0 0 0-4.576-2.069 5.994 5.994 0 1 0 .014 11.988 6.129 6.129 0 0 0 5.344-3.244h-1.3a5.051 5.051 0 0 1-4.058 2.194m14.378-10.953a6.003 6.003 0 1 0 6.142 6.002 6.082 6.082 0 0 0-6.142-6.002m0 10.953a4.952 4.952 0 1 1 4.983-4.937 4.995 4.995 0 0 1-4.983 4.937zm17.619-1.129h-.03l-6.472-9.62h-1.566v11.594h1.159v-10.2h.032l6.877 10.2h1.16v-11.594h-1.16v9.62m8.486-4.574c-1.176-.362-2.758-.627-2.758-2.179a2.025 2.025 0 0 1 2.1-2.022 2.092 2.092 0 0 1 2.054 2.1h1.159a3.238 3.238 0 0 0-6.472-.03c0 2.005 1.363 2.568 3.009 3.055 1.269.376 2.585.909 2.585 2.475a2.375 2.375 0 0 1-4.748-.093h-1.16a3.376 3.376 0 0 0 3.573 3.447 3.428 3.428 0 0 0 3.494-3.401c0-1.802-1.176-2.851-2.836-3.352m11.593-5.25a6.003 6.003 0 1 0 6.14 6.002 6.082 6.082 0 0 0-6.14-6.002m0 10.953a4.952 4.952 0 1 1 4.981-4.937 4.995 4.995 0 0 1-4.981 4.937zm17.339-7.004a3.59 3.59 0 0 0-2.069-3.307 7.06 7.06 0 0 0-2.851-.438h-2.946v11.594h1.159v-10.545h2.023a4.454 4.454 0 0 1 2.256.439 2.59 2.59 0 0 1 1.269 2.226 2.546 2.546 0 0 1-1.913 2.46 9.543 9.543 0 0 1-2.491.172l3.933 5.248h1.459l-3.276-4.323a3.525 3.525 0 0 0 3.447-3.526m2.298-2.696h2.664v10.545h1.16v-10.545h2.647v-1.049h-6.471v1.049m9.334-1.049h1.159v11.594h-1.159zm11.827 7.223a4.83 4.83 0 0 1-.39 2.099 2.728 2.728 0 0 1-4.796 0 4.817 4.817 0 0 1-.391-2.099v-7.223h-1.159v7.223a5.999 5.999 0 0 0 .439 2.413 3.93 3.93 0 0 0 7.02 0 5.997 5.997 0 0 0 .437-2.413v-7.223h-1.16v7.223m11.106 2.648l-4.217-9.871h-1.784v11.594h1.159v-10.326h.032l4.308 10.326h.987l4.34-10.326h.032v10.326h1.159v-11.594h-1.787l-4.229 9.871m-93.675-59.931a42.832 42.832 0 0 0 8.296-5.985 39.325 39.325 0 0 0 6.721-7.772l-10.991-3.636a5.065 5.065 0 0 0-5.02 1.087 29.243 29.243 0 0 1-7.407 4.964 28.57 28.57 0 0 1-11.657 2.415 27.615 27.615 0 0 1-27.934-27.933 26.87 26.87 0 0 1 8.087-19.744 26.955 26.955 0 0 1 19.847-8.19 26.617 26.617 0 0 1 16.344 5.246 5.174 5.174 0 0 0 6.745-.331l6.736-6.595a43.542 43.542 0 0 0-13.443-9.136A41.095 41.095 0 0 0 211.796 0a39.725 39.725 0 0 0-29.614 12.392 40.052 40.052 0 0 0-12.391 29.614 40.286 40.286 0 0 0 12.391 29.614 40.29 40.29 0 0 0 29.614 12.392 38.363 38.363 0 0 0 10.501-1.366 36.303 36.303 0 0 0 9.557-3.78" class="cls-2"/><g class="cls-3"><path d="M334.296 65.109l-10.991-3.636a5.063 5.063 0 0 0-5.019 1.087 29.248 29.248 0 0 1-7.408 4.964 28.57 28.57 0 0 1-11.657 2.415 27.614 27.614 0 0 1-27.933-27.933 26.873 26.873 0 0 1 8.086-19.744 26.958 26.958 0 0 1 19.847-8.19 26.62 26.62 0 0 1 16.345 5.246 5.172 5.172 0 0 0 6.744-.331l6.736-6.595a43.538 43.538 0 0 0-13.442-9.136A41.097 41.097 0 0 0 299.221 0a39.725 39.725 0 0 0-29.613 12.392 40.054 40.054 0 0 0-12.393 29.614 40.288 40.288 0 0 0 12.393 29.614 40.288 40.288 0 0 0 29.613 12.391 38.413 38.413 0 0 0 10.502-1.365 36.35 36.35 0 0 0 9.557-3.78 42.826 42.826 0 0 0 8.295-5.985 39.26 39.26 0 0 0 6.721-7.772M42.447 32.275a5.088 5.088 0 0 0 4.544 2.8h12.522L42.006 0 0 84.012h15.542l7.141-14.073 6.931-13.861 12.392-24.679.441.876" class="cls-2"/></g><path fill="#70c38b" d="M63.234 49.042H50.982l10.439 21.002H43.608a5.087 5.087 0 0 0-4.53 2.772l-5.724 11.196h50.658L67.776 51.837a5.088 5.088 0 0 0-4.542-2.795"/><path d="M155.071 70.044h-45.803a5.088 5.088 0 0 0-4.544 2.798l-5.626 11.169h55.973V70.044" class="cls-2"/><g class="cls-3"><path d="M142.669 46.243l5.626-11.168h-35.178l.053-.053v-20.95h41.901V0H99.098v49.042h39.027a5.089 5.089 0 0 0 4.544-2.799" class="cls-2"/></g></svg>