<svg xmlns="http://www.w3.org/2000/svg" role="img" viewBox="-4.11 -4.11 213.46 54.71"><title>AVEVA Group (member) logo</title><g fill="#3d1152" fill-opacity="1" fill-rule="nonzero" stroke="none" transform="matrix(1.33333 0 0 -1.33333 0 46.77) scale(.1)"><path d="M680.383 3.95313V45.7031c0 2.1797 1.765 3.9453 3.949 3.9453h224.945c2.184 0 3.953-1.7656 3.953-3.9453V3.95313C913.23 1.76953 911.461 0 909.277 0H684.332c-2.184 0-3.949 1.76953-3.949 3.95313"/><path d="M680.383 154.512v41.75c0 2.179 1.765 3.949 3.949 3.949h224.945c2.184 0 3.953-1.77 3.953-3.949v-41.75c0-2.188-1.769-3.953-3.953-3.953H684.332c-2.184 0-3.949 1.765-3.949 3.953"/><path d="M680.383 305.074v41.746c0 2.184 1.765 3.953 3.949 3.953h224.945c2.184 0 3.953-1.769 3.953-3.953v-41.746c0-2.183-1.769-3.957-3.953-3.957H684.332c-2.184 0-3.949 1.774-3.949 3.957"/><path d="M376.129 348.352l95.605-218.692c1.387-3.137 5.844-3.137 7.231 0l94.5 218.692c.629 1.429 2.043 2.336 3.613 2.336h46c2.86 0 4.774-2.961 3.61-5.575L478.977 2.34375c-1.399-3.125-5.825-3.125-7.219 0L322.938 345.148c-1.165 2.61.746 5.555 3.605 5.555h45.969c1.566 0 2.984-.922 3.617-2.351"/><path d="M157.508 124.934l41.527 96.105c1.387 3.145 5.844 3.145 7.231 0l42.023-96.105zM355.07 5.55859L206.246 348.359c-1.391 3.125-5.824 3.125-7.223.004l-96.277-223.429H3.50391c-2.51563 0-4.21094-2.579-3.21485-4.895L18.8242 77.1875c.5039-1.1602 1.6446-1.9023 2.9063-1.9023h59.6172L51.3203 5.59766c-1.168-2.61719.7422-5.57813 3.6094-5.57813h45.9963c1.566 0 2.98.91016 3.617 2.33594l31.508 72.92973h133.941l31.883-72.92973C302.508.92969 303.926 0 305.488 0h45.969c2.859 0 4.773 2.94922 3.613 5.55859"/><path d="M1015.88 348.352l95.61-218.692c1.38-3.137 5.84-3.137 7.22 0l94.5 218.692c.63 1.429 2.05 2.421 3.61 2.421h46.16c2.87 0 4.78-2.882 3.61-5.5L1118.72 2.34375c-1.39-3.125-5.82-3.125-7.21 0L962.684 345.148c-1.164 2.61.75 5.555 3.613 5.555h45.963c1.56 0 2.99-.922 3.62-2.351"/><path d="M1341.73 124.934l41.56 96.175c1.39 3.137 5.84 3.137 7.23 0l42.05-96.175zM1539.32 5.625L1390.5 348.43c-1.39 3.125-5.83 3.125-7.22 0L1235.41 5.49609C1234.24 2.88281 1236.15 0 1239.02 0h46.16c1.56 0 2.98.98828 3.62 2.42188l31.47 72.86332h134l31.86-72.86332c.63-1.4336 2.05-2.35157 3.61-2.35157h45.97c2.86 0 4.77 2.9375 3.61 5.55469"/></g></svg>