<svg xmlns="http://www.w3.org/2000/svg" role="img" viewBox="-3.59 -3.59 186.94 42.06"><title>Azion logo</title><g data-name="Camada 2"><path fill="#f47929" d="M131.47 34.89H96.59L103.3 0h34.88zm-26.9-6.59H126l4.17-21.7h-21.43zm-14.69 6.59h-6.71L89.88.01h6.71l-6.71 34.88zM.98 29.76L0 34.89h5.11l27.5-23.05-4.43 23.05h6.7L41.59 0h-5.12L.98 29.76zM149.08 0h-4.2l-6.7 34.88h6.71L149.48 11l19.38 23.92h4.2l.82-4.27zm24 0l-3 15.47 5.42 6.71L179.76 0zm-89.9.01H48.3L47.03 6.6h23.16L42.58 29.75l-.99 5.13h34.88l1.27-6.58H54.57L82.19 5.13l.99-5.12z" data-name="Camada 1"/></g></svg>