<svg xmlns="http://www.w3.org/2000/svg" role="img" viewBox="-15.82 -16.82 1030.64 232.64"><title>Baetyl logo</title><style>svg {enable-background:new 0 0 1000 200}</style><path fill="#9164cc" d="M347.2 164.8c0 2.8-.8 5.6-2 7.9-1.3 2.3-3 4.3-5.3 5.6l-22.1 13.4c-2.3 1.5-6.1 2.3-10.9 2.3-1.3 0-2.8-.3-4.6-.5-6.6-1.8-12.9-3.8-19.3-5.8-6.1-2-11.4-3.5-15.5-4.8v6.8h-32.9V9.4l79.6-1.3c3 0 5.6.5 7.6 1.8s3.8 2.5 5.1 4.3c1.3 1.8 2.3 3.5 3 5.3.5 1.8 1 3.5 1 5.1v54l11.9 12.9c2.8 3.3 4.3 7.4 4.3 12.2l.1 61.1zm-24.6-64.9L260.2 110l7.6-13.9v60.1l36.8 9.1 10.6-6.8V107l-17.7-16.2 25.1 9.1zm-21.8-62.6h-33.2v45.4l33.2-5.3V37.3zm156.1 152.3v-64.4h-46.6v64.4h-32.9V44.4c-.3-3.5.8-6.6 3-9.1 2.3-2.5 4.6-4.6 6.8-5.8l45.6-24.1c2.5-1.3 5.1-1.8 7.4-1.8 3.3 0 5.8.5 7.6 1.8L482.5 28c2.3 1.3 4.1 3.3 5.3 5.6 1.3 2.3 2 5.1 2 7.9v148.3h-32.9zm0-141.7l-17-11.2L410.3 52v43.1h46.6V47.9zm67.2 125.2V8.1h96.1V39H557v39.3h58v30.9h-58v49.9h63.1V190h-79.6c-3 0-5.6-.5-7.6-1.8s-3.8-2.5-5.1-4.3c-1.3-1.8-2.3-3.5-3-5.3-.5-2.2-.7-4-.7-5.5zm151 16.5V38.3h-37.3V7.9H745v30.4h-37.3v151.3h-32.6zm127-.3v-58L773 112c-6.1-4.1-9.1-9.6-9.1-16.7V8.6h32.9v83.6l23.6 15.7 20-13.2V8.6h32.9v86.7c0 3.8-.8 6.8-2.5 9.6-1.8 2.5-4.1 5.1-7.4 7.4l-28.6 19.3v58h-32.7v-.3zm193.4.3h-74.3c-3 .3-5.6-.3-7.6-1.5s-3.8-2.5-5.1-4.3c-1.3-1.8-2.3-3.5-3-5.6-.5-2-1-3.8-1-5.3V8.1h32.9v151.1h58v30.4z"/><path fill="#00d2cb" d="M178.9 71c-6.8 0-12.9 3.8-16 9.4l-29.7-19c-1.5-13.7-7.4-26.4-16.2-36.2h34.2c1.5 8.6 9.1 15 18 15 10.1 0 18.2-8.1 18.2-18.2s-8.1-18.2-18.2-18.2c-9.6 0-17.5 7.4-18.2 17h-38.8c-11.4-10.6-26.6-17-43.1-17C33.4 3.6 4.5 33 4.5 69.2c0 35.7 28.1 64.6 63.1 65.6v25.1c-9.4.8-17 8.6-17 18.2 0 10.1 8.1 18.2 18.2 18.2S87 188.2 87 178.1c0-8.9-6.3-16.5-15-18v-25.3c15.7-.8 29.7-7.4 40.6-17.5l15 30.2c-3.5 3.3-5.8 8.1-5.8 13.2 0 10.1 8.1 18.2 18.2 18.2s18.2-8.1 18.2-18.2-8.1-18.2-18.2-18.2c-3 0-6.1.8-8.6 2.3l-15.2-30.9c10.6-11.7 17.2-27.4 17.2-44.6v-1.8L161 85c-.3 1.5-.5 2.8-.5 4.3 0 10.1 8.1 18.2 18.2 18.2s18.2-8.1 18.2-18.2c.2-10.2-7.9-18.3-18-18.3z"/></svg>