<svg xmlns="http://www.w3.org/2000/svg" role="img" viewBox="-4.08 -6.08 602.16 209.16"><title>Baidu logo</title><defs><style>.cls-1{fill:#2319dc}</style></defs><path d="M233.481 103.815c20.238-4.35 17.486-28.54 16.879-33.831-.997-8.154-10.583-22.396-23.601-21.273-16.382 1.468-18.774 25.132-18.774 25.132-2.22 10.945 5.302 34.319 25.496 29.972zm37.572-40.571c11.178 0 20.212-12.866 20.212-28.775 0-15.893-9.033-28.755-20.212-28.755-11.163 0-20.222 12.862-20.222 28.755 0 15.909 9.059 28.775 20.222 28.775zm48.145 1.901c14.948 1.94 24.552-14.006 26.463-26.092 1.95-12.069-7.693-26.093-18.272-28.502-10.604-2.43-23.838 14.549-25.042 25.622-1.442 13.535 1.939 27.052 16.851 28.972zm59.234 20.295c0-5.78-4.8-23.194-22.615-23.194-17.85 0-20.23 16.436-20.23 28.051 0 11.089.933 26.564 23.102 26.074 22.17-.489 19.743-25.115 19.743-30.93zm-123.46 60.449c-.59 1.702-1.914 6.051-.77 9.839 2.264 8.499 9.64 8.879 9.64 8.879h10.6v-25.912H263.09a12.446 12.446 0 0 0-8.118 7.194z" class="cls-1"/><path d="M355.817 136.195s-23.12-17.885-36.619-37.22c-18.293-28.503-44.285-16.905-52.975-2.409-8.653 14.497-22.142 23.665-24.063 26.093-1.94 2.392-27.922 16.415-22.153 42.04 5.763 25.604 26.022 25.112 26.022 25.112a113.544 113.544 0 0 0 32.253-2.408 68.04 68.04 0 0 1 32.245.96s40.472 13.554 51.54-12.541c11.064-26.092-6.25-39.627-6.25-39.627zm-69.254 38.83h-26.31c-11.36-2.263-15.89-10.02-16.463-11.342-.56-1.34-3.778-7.574-2.075-18.175 4.912-15.892 18.92-17.033 18.92-17.033h14.004v-17.213l11.924.18zm49.005-.18H305.29c-11.732-3.026-12.284-11.362-12.284-11.362v-33.486l12.284-.199v30.098c.75 3.208 4.738 3.787 4.738 3.787h12.476v-33.686h13.064z" class="cls-1"/><path fill="#e11408" d="M479.76 108.035V93.902h-92.975l-.127 14.332h39.964l-3.741 8.554h-33.978v70.832h80.745c8.443 0 7.703-8.517 7.703-8.517v-62.315h-34.057l2.98-8.753zm-18.049 64.454s-.988 2.356-2.354 2.356h-53.59v-16.508h55.944zm-.109-43.29v15.494h-55.834V129.2zm124.394-34.911h-36.474v-7.144h-17.115v6.783h-41.85v93.564h15.06v-81.503h80.38zm-9.844 19.346v-5.4h-14.705v5.4H531.21v-5.217h-13.94v5.217h-9.424l.188 10.601h9.236v19.896h50.883c7.065 0 8-7.448 8-7.448v-12.448h10.777v-10.6zm-14.705 17.85s-1.296 2.409-2.972 2.409H531.04v-9.857h30.407zm-51.536 27.179l23.43 13.572c-1.858 2.049-9.857 4.64-9.857 4.64h-15.638v10.436h21.218c6.323-1.304 18.049-7.247 18.049-7.247 4.847 4.456 14.15 6.306 14.15 6.306h24.172v-10.42h-18.228a27.617 27.617 0 0 1-9.303-3.534l27.532-15.818v-8.553H509.91zm48.734-.18l-13.39 7.048-12.277-7.049zM179.91 91.294v17.866h20.274V91.294zm0 95.817h20.274v-70.143H179.91zm-33.007-70.069l-43.289-.127v14.75h37.954s9.05 2.228 9.05 7.954v5.2h-34.356s-13.516 1.25-17.858 17.378c-.75 7.557.256 11.27.753 12.648.5 1.375 4.457 10.292 16.244 12.522h54.696V137.12s-2.6-17.233-23.194-20.078zm3.715 56.443h-27.66a9.157 9.157 0 0 1-5.21-4.601 6.563 6.563 0 0 1-.118-5.074 10.428 10.428 0 0 1 5.952-5.328h27.036zm-56.67-10.981c.599-17.087-14.733-22.993-14.733-22.993 12.974-6.777 11.318-23.864 11.318-23.864-1.406-26.166-33.361-24.952-33.361-24.952H7.778V188.2h55.765c32.767-.109 30.405-25.696 30.405-25.696zm-31.512 7.576v.035H29.014v-21.019h33.242l1.122.218s6.334 1.159 8.635 6.85c0 0 1.323 5.343-1.54 9.312 0 0-2.11 3.678-8.037 4.604zm7.086-45.21a11.342 11.342 0 0 1-8.209 5.018H29.014v-20.185h32.153s6.995-.308 9.305 5.237c0 0 1.388 5.889-.95 9.93z"/></svg>