<svg xmlns="http://www.w3.org/2000/svg" role="img" viewBox="-7.22 23.78 414.18 197.18"><title>Beechwoods Software, Inc. (member) logo</title><style>svg {enable-background:new 0 0 400 245}</style><style>.st11{fill:#313130}</style><g><path fill="#faf8d5" d="M114.08 39.19H282.36V134.59H114.08z"/><path d="M288.58,146.52c-3.67,0-173.45,0-177.43,0c-3.98,0-6.12-2.5-6.12-6.17c0-3.67,0-99.4,0-102.77 s1.99-5.76,5.66-5.76c6.12,0,174.52,0,178.19,0c6.07,0,6.07,4.23,6.07,5.76s0,99.11,0,102.77 C294.96,144.01,292.26,146.52,288.58,146.52z M117.64,134.6h164.72V43.75H117.64V134.6z" class="st11"/><path fill="#86c440" stroke="#58b847" stroke-miterlimit="10" stroke-width="1.553" d="M285.2,39.19c-22.82,17.14-40.76,22.77-60.5,16.73c-21.6-6.62-46.9-16.73-66.94,2.97 c-18.08,17.78-3.87,32.87-11.94,45.63c-8.07,12.76-27.78,15.94-30.56,25.22c-2.78,9.29,7.58,9.99,10.05,5.38 c4.07-7.6,13.19-19.8,28.71-20.45c12.35-0.52,16.48,17.24,48.56,15.83C242.41,128.76,278.45,68.24,285.2,39.19z"/><g><g><path d="M27.84 185.9c.95.32 1.68.53 2.38.8 5.05 1.88 7.86 5.89 7.97 11.33.12 5.97-2.62 10.48-8.04 12.5-2.53.94-5.3 1.56-7.98 1.66-6.42.24-12.85.05-19.27.11-1.51.01-2-.57-2-2.05.04-15.27.04-30.54 0-45.8 0-1.52.53-2.02 2.02-2 5.27.07 10.54 0 15.82.06 3.51.04 6.83.78 9.88 2.64 7.99 4.88 6.75 17.13-.2 20.31C28.27 185.5 28.16 185.63 27.84 185.9zM11.56 191.46c0 4.45 0 8.06 0 11.93 3.71 0 7.34.27 10.91-.08 3.35-.32 5.02-2.72 4.96-6.08-.05-2.96-2-5.69-5.13-5.69C18.33 191.55 15.54 191.46 11.56 191.46zM11.52 182.6c2.35 0 4.54.09 6.72-.02 3.04-.16 4.89-1.92 5.18-4.72.35-3.34-.94-5.81-3.96-6.43-2.56-.53-5.26-.38-7.93-.54M223.47 207.84c-5.37 5.65-14.34 6.82-20.2 2.79-3.6-2.48-4.9-6.18-5.04-10.23-.23-6.69-.1-13.4-.15-20.1-.01-1.13.51-1.59 1.59-1.59 2.09.01 4.17.03 6.26-.01 1.36-.03 1.82.59 1.81 1.91-.04 5.49-.04 10.98 0 16.47.01 1.14.11 2.3.32 3.43.47 2.56 1.97 3.9 4.43 4.11 2.59.22 4.62-.93 5.43-3.32.41-1.22.65-2.56.66-3.86.07-5.55.08-11.09.01-16.64-.02-1.59.54-2.19 2.11-2.11 1.86.08 3.74.08 5.6 0 1.53-.07 2 .58 1.99 2.05-.06 5.22-.06 10.43 0 15.65.02 1.47.16 2.98.55 4.38.78 2.81 2.92 4.15 5.71 3.84 2.62-.3 4.28-1.95 4.47-4.84.19-2.73.14-5.49.16-8.23.02-3.62.05-7.25-.02-10.87-.02-1.42.52-2.01 1.93-1.97 1.98.05 3.95.04 5.93 0 1.25-.02 1.78.5 1.77 1.77-.07 6.64.09 13.3-.19 19.93-.33 7.96-5.17 12.36-13.14 12.56C230.69 213.08 226.6 211.72 223.47 207.84zM357.62 178.52c0-4.46 0-8.9 0-13.34 0-2.72 0-2.72 2.72-2.72 1.7 0 3.41.04 5.11-.01 1.23-.04 1.81.39 1.81 1.7-.02 15.49-.02 30.97-.01 46.46 0 .95-.29 1.68-1.36 1.65-5.92-.19-11.9.06-17.73-.76-6.62-.92-11.37-4.77-12.99-11.62-1.6-6.79.41-16.1 8.47-19.91 4.21-1.99 8.64-2.3 13.18-1.46C357.03 178.55 357.25 178.52 357.62 178.52zM357.62 204.4c0-4.91 0-9.46 0-14 0-3.99 0-3.99-4.02-4.06-4.71-.08-8.2 2.85-8.79 7.38-.72 5.51 1.44 8.95 6.53 10.04C353.29 204.18 355.33 204.18 357.62 204.4zM166.14 182.01c4.36-3.9 9.13-4.62 14.26-3.4 5.45 1.29 8.94 5.23 9.15 10.85.26 7.08.13 14.17.18 21.25.01 1.09-.47 1.59-1.6 1.57-2.03-.05-4.07-.07-6.1.01-1.49.06-2.05-.5-2.03-2.01.06-5.05.04-10.11.01-15.16 0-1.09-.06-2.2-.22-3.28-.48-3.21-1.72-4.76-4.13-5.28-3.1-.67-6.07.24-7.48 2.81-1 1.82-1.8 3.95-1.92 5.99-.29 4.87-.12 9.77-.13 14.66-.01 2.08-.17 2.24-2.27 2.25-1.81 0-3.63-.07-5.44.02-1.54.08-2.02-.57-2.02-2.03.04-6.97.02-13.95.02-20.92 0-8.18 0-16.37 0-24.55 0-2.22.12-2.33 2.32-2.34 1.7 0 3.41 0 5.11 0 2.11 0 2.27.15 2.27 2.23.01 5.05 0 10.11 0 15.16C166.14 180.43 166.14 181.03 166.14 182.01zM272.11 212.96c-8.47-.03-14.95-4.42-17.21-11.66-3.97-12.69 5.45-24.35 18.7-23.16 8.86.8 15.03 6.01 16.34 13.82C291.95 203.92 284.25 212.99 272.11 212.96zM280.7 195.66c-.09-3.39-1.05-6.33-4.1-8.15-3.99-2.39-9.29-1.18-11.6 2.6-2.68 4.37-1.51 11.01 2.45 13.42 2.83 1.72 5.84 1.84 8.77.33C279.52 202.16 280.54 199.1 280.7 195.66zM312.43 212.96c-8.47-.02-14.95-4.41-17.22-11.66-3.97-12.69 5.44-24.35 18.69-23.16 8.86.8 15.03 6.01 16.35 13.81C332.27 203.92 324.57 212.99 312.43 212.96zM320.99 196.15c.02-4.15-1.47-7.13-4.07-8.65-4.01-2.35-9.29-1.16-11.6 2.62-2.68 4.37-1.5 11.01 2.46 13.42 2.83 1.72 5.84 1.83 8.77.32C319.84 202.15 320.85 199.09 320.99 196.15zM52.72 198.42c.39 3.42 2.72 5.9 6.08 6.59 3.43.7 6.64.04 9.72-1.53 2.04-1.04 2.05-1.03 3.12.94.53.96 1.02 1.94 1.59 2.88.67 1.11.54 1.96-.65 2.58-7.08 3.68-14.39 4.51-21.63.85-6.65-3.36-8.89-9.48-8.58-16.53.3-6.55 3.21-11.85 9.41-14.5 6.19-2.64 12.44-2.47 18.12 1.64 3.27 2.37 4.65 5.89 5.22 9.74.26 1.79.25 3.61.41 5.41.12 1.42-.46 1.95-1.9 1.94-6.37-.05-12.74-.02-19.12-.02C53.93 198.42 53.33 198.42 52.72 198.42zM52.58 192c4.55 0 9.01 0 13.46 0-.1-3.81-2.41-6.12-6.21-6.3C55.8 185.51 53.22 187.71 52.58 192zM91.25 198.42c.72 4.44 4.09 7.16 8.85 6.81 2.45-.18 4.9-1.04 7.22-1.93 1.43-.54 2.21-.53 2.83.92.41.95.98 1.84 1.47 2.76.96 1.79.91 2.44-.99 3.18-2.73 1.07-5.55 2.16-8.43 2.57-5.72.8-11.27.01-15.73-4.08-5.38-4.94-6.59-11.28-4.94-18.1 1.56-6.46 5.72-10.73 12.36-11.98 6.48-1.22 12.57-.41 16.95 5.23 3.07 3.95 3.28 8.73 3.23 13.49-.01 1.16-.95 1.14-1.81 1.14-6.37-.01-12.74 0-19.12 0C92.55 198.42 91.95 198.42 91.25 198.42zM104.6 192.05c-.05-3.86-2.49-6.27-6.33-6.36-4.09-.1-6.74 2.27-7.09 6.36C95.62 192.05 100.04 192.05 104.6 192.05zM384.84 213.17c-3.76-.21-7.34-.84-10.72-2.47-1.34-.64-1.87-1.33-1-2.78.76-1.26 1.38-2.62 1.93-3.99.57-1.4 1.34-1.5 2.54-.78 2.44 1.46 5.03 2.46 7.94 2.25.59-.04 1.33-.02 1.73-.35.67-.54 1.46-1.3 1.56-2.05.09-.67-.49-1.78-1.1-2.13-1.7-.97-3.58-1.63-5.37-2.44-1.6-.72-3.25-1.35-4.75-2.24-3.4-2.03-4.5-5.29-4.2-9.03.33-4.13 2.78-6.81 6.59-8 5.93-1.84 11.8-1.44 17.49 1.16 1.12.51 1.46 1.17.82 2.32-.69 1.24-1.38 2.51-1.88 3.84-.57 1.5-1.25 1.58-2.74 1.04-2.28-.82-4.72-1.26-7.12-1.64-1.2-.19-2.46.2-2.83 1.68-.4 1.6.7 2.35 1.88 2.86 2.26.99 4.6 1.77 6.85 2.79 5.04 2.27 6.93 5.18 6.58 9.87-.33 4.34-3.44 7.88-8.25 9.14C388.88 212.72 386.84 212.86 384.84 213.17zM138.04 212.96c-4.09.01-8-.76-11.43-3.06-5.65-3.78-7.63-9.42-7.04-15.86.91-9.95 8.67-16.13 19.3-15.85 3.59.1 6.91 1 9.96 2.93.99.63 1.2 1.3.62 2.31-.76 1.33-1.5 2.68-2.14 4.07-.62 1.35-1.44 1.43-2.6.72-2.36-1.43-4.91-2.14-7.69-1.76-4.93.67-8.18 4.92-7.63 9.98.59 5.43 4.5 8.93 9.63 8.31 2.07-.25 4.12-1.01 6.09-1.76 1.21-.46 1.91-.45 2.47.83.54 1.25 1.13 2.51 1.88 3.65.94 1.42.37 2.14-.87 2.86C145.32 212.25 141.78 212.96 138.04 212.96z" class="st11"/></g></g><path fill="#d1dd26" d="M149.94,105.74c5.77-16.57,24.63-31.58,39.79-32.62c15.16-1.04,31.73,7.51,48.69,4.27 c16.66-3.18,27.41-15.14,33.7-21.87c-8.56,12.94-17.73,25.81-35.65,27.44c-17.08,1.55-32.03-6.93-51.07-3.63 C170.61,81.89,157.82,92.07,149.94,105.74z"/></g></svg>