<svg xmlns="http://www.w3.org/2000/svg" role="img" viewBox="-4.05 -4.05 418.60 199.35"><title>Beechwoods Software logo</title><defs><style>.cls-2{fill:#323130}</style></defs><path fill="#fbf9d6" d="M118.454 11.554h170.161v96.469H118.454z" id="Layer_5" data-name="Layer 5"/><g id="Layer_4" data-name="Layer 4"><path d="M294.909 120.079H115.498c-4.024 0-6.19-2.525-6.19-6.238V9.926c0-3.404 2.011-5.821 5.724-5.821h180.186c6.14 0 6.14 4.273 6.14 5.82v103.916a6.102 6.102 0 0 1-6.45 6.238zm-172.857-12.056h166.563V16.16H122.052z" class="cls-2"/><path fill="#87c540" stroke="#58b947" stroke-miterlimit="10" d="M291.49 11.554c-23.076 17.327-41.217 23.029-61.174 16.913-21.842-6.694-47.429-16.913-67.685 3.007-18.281 17.978-3.916 33.233-12.075 46.138-8.16 12.906-28.09 16.114-30.904 25.506s7.664 10.1 10.16 5.436c4.11-7.685 13.337-20.023 29.03-20.68 12.485-.523 16.66 17.431 49.108 16.012 40.272-1.762 76.712-62.96 83.54-92.332z"/></g><path d="M31.25 159.899c.961.32 1.694.54 2.41.807a11.78 11.78 0 0 1 8.056 11.456c.117 6.036-2.647 10.601-8.132 12.636a26.446 26.446 0 0 1-8.07 1.675c-6.49.242-12.993.056-19.49.109-1.53.012-2.025-.576-2.022-2.075Q4.057 161.348 4 138.19c-.004-1.537.54-2.044 2.045-2.025 5.33.066 10.663 0 15.994.055a19.092 19.092 0 0 1 9.995 2.67c8.081 4.937 6.821 17.325-.206 20.539a4.066 4.066 0 0 0-.577.47zm-16.466 5.626v12.068c3.747 0 7.417.27 11.028-.079 3.389-.327 5.08-2.749 5.018-6.145-.053-2.99-2.024-5.75-5.188-5.75-4.008 0-6.83-.094-10.858-.094zm-.042-8.961c2.377 0 4.59.094 6.791-.023 3.07-.162 4.943-1.945 5.242-4.768.357-3.374-.955-5.878-4.01-6.506a56.38 56.38 0 0 0-8.023-.543m214.326 37.358c-5.432 5.71-14.505 6.892-20.423 2.824-3.644-2.503-4.958-6.252-5.1-10.346-.232-6.767-.103-13.547-.15-20.32-.008-1.14.512-1.612 1.611-1.605 2.11.015 4.221.034 6.33-.008 1.374-.028 1.838.595 1.828 1.93q-.065 8.328-.003 16.658a19.801 19.801 0 0 0 .325 3.468 4.585 4.585 0 0 0 4.477 4.152 4.92 4.92 0 0 0 5.486-3.357 12.883 12.883 0 0 0 .672-3.898q.11-8.411.008-16.825c-.02-1.603.544-2.21 2.13-2.138a63.81 63.81 0 0 0 5.663 0c1.546-.067 2.026.586 2.009 2.076q-.09 7.913.002 15.826a17.554 17.554 0 0 0 .551 4.433 4.999 4.999 0 0 0 5.772 3.88 4.81 4.81 0 0 0 4.525-4.897c.19-2.765.14-5.548.157-8.323.022-3.665.048-7.331-.016-10.995-.025-1.437.522-2.028 1.947-1.992 1.998.05 3.999.04 5.997.004 1.26-.022 1.803.5 1.79 1.787-.07 6.718.088 13.444-.188 20.152-.33 8.046-5.223 12.504-13.282 12.698-4.822.117-8.955-1.257-12.118-5.184zm135.646-29.648v-13.492c0-2.753.001-2.754 2.75-2.754 1.722 0 3.444.04 5.164-.013 1.242-.038 1.835.395 1.833 1.721q-.032 23.49-.009 46.98c0 .965-.29 1.704-1.374 1.67-5.982-.193-12.03.06-17.925-.764-6.69-.935-11.5-4.821-13.135-11.75-1.62-6.862.418-16.283 8.566-20.129a21.373 21.373 0 0 1 13.33-1.474 5.277 5.277 0 0 0 .8.005zm0 26.173v-14.158c0-4.035 0-4.035-4.07-4.106-4.758-.083-8.293 2.883-8.89 7.46-.727 5.572 1.458 9.049 6.601 10.155a57.62 57.62 0 0 0 6.359.649zm-193.622-22.636c4.41-3.945 9.232-4.668 14.423-3.439 5.512 1.306 9.042 5.292 9.25 10.971.262 7.155.135 14.324.183 21.486.007 1.104-.47 1.61-1.617 1.584-2.054-.047-4.112-.072-6.163.007-1.505.059-2.075-.504-2.056-2.035.063-5.109.036-10.218.014-15.328a23.145 23.145 0 0 0-.223-3.313c-.487-3.25-1.743-4.813-4.176-5.336-3.138-.675-6.134.24-7.56 2.84a14.943 14.943 0 0 0-1.94 6.06c-.29 4.926-.118 9.88-.136 14.822-.007 2.102-.174 2.266-2.293 2.27-1.832.004-3.67-.075-5.496.024-1.556.085-2.047-.572-2.039-2.05.04-7.052.018-14.105.018-21.158q0-12.412.003-24.824c.002-2.248.124-2.36 2.341-2.364q2.582-.005 5.165 0c2.135.006 2.297.156 2.3 2.251q.01 7.664.002 15.328zM278.25 187.26c-8.563-.025-15.114-4.464-17.405-11.793-4.011-12.834 5.51-24.624 18.91-23.415 8.963.809 15.192 6.078 16.522 13.974 2.038 12.101-5.747 21.272-18.026 21.235zm8.684-17.486c-.094-3.426-1.063-6.397-4.142-8.246a8.668 8.668 0 0 0-11.73 2.626c-2.708 4.418-1.522 11.135 2.477 13.571a8.646 8.646 0 0 0 8.865.334c3.34-1.716 4.366-4.809 4.53-8.285zm32.087 17.486c-8.563-.023-15.116-4.46-17.41-11.788-4.015-12.832 5.503-24.626 18.902-23.42 8.963.806 15.198 6.075 16.528 13.969 2.04 12.102-5.741 21.274-18.02 21.24zm8.655-16.996c.024-4.195-1.487-7.208-4.119-8.75a8.711 8.711 0 0 0-11.734 2.645c-2.705 4.422-1.513 11.138 2.487 13.57a8.644 8.644 0 0 0 8.865.327c3.338-1.72 4.362-4.813 4.501-7.792zm-271.268 2.3a7.48 7.48 0 0 0 6.152 6.664 14.654 14.654 0 0 0 9.826-1.543c2.063-1.048 2.069-1.037 3.158.953.533.972 1.03 1.966 1.605 2.913.681 1.12.544 1.984-.652 2.607-7.158 3.725-14.552 4.556-21.872.856-6.72-3.396-8.994-9.586-8.672-16.713.3-6.622 3.242-11.985 9.518-14.66 6.26-2.668 12.582-2.498 18.326 1.661 3.307 2.395 4.7 5.958 5.275 9.854.266 1.805.257 3.65.413 5.474.123 1.433-.46 1.968-1.92 1.957-6.443-.053-12.887-.023-19.33-.023zm-.148-6.496h13.614c-.105-3.855-2.44-6.186-6.282-6.37-4.075-.195-6.676 2.033-7.332 6.37zm39.109 6.496c.733 4.485 4.13 7.242 8.945 6.885a26.515 26.515 0 0 0 7.301-1.952c1.443-.55 2.23-.533 2.861.933.414.963.99 1.856 1.486 2.786.968 1.814.922 2.462-1.005 3.214a38.788 38.788 0 0 1-8.527 2.594c-5.78.81-11.4.01-15.902-4.127-5.436-4.996-6.66-11.406-4.993-18.306 1.577-6.531 5.782-10.848 12.502-12.112 6.552-1.232 12.714-.42 17.142 5.287 3.103 3.999 3.316 8.83 3.27 13.645-.011 1.171-.96 1.156-1.83 1.156q-9.665-.009-19.33-.003zm13.499-6.442c-.053-3.907-2.513-6.337-6.397-6.429-4.132-.097-6.817 2.296-7.165 6.43zm283.374 21.358a28.085 28.085 0 0 1-10.844-2.502c-1.351-.65-1.895-1.346-1.008-2.811a28.013 28.013 0 0 0 1.955-4.037c.572-1.418 1.352-1.515 2.572-.786a13.558 13.558 0 0 0 8.031 2.273 3.373 3.373 0 0 0 1.754-.354 3.986 3.986 0 0 0 1.58-2.074 2.656 2.656 0 0 0-1.11-2.155c-1.719-.982-3.616-1.652-5.43-2.471a46.798 46.798 0 0 1-4.8-2.266c-3.44-2.054-4.548-5.346-4.242-9.131a8.809 8.809 0 0 1 6.663-8.087 24.112 24.112 0 0 1 17.685 1.176c1.137.52 1.474 1.186.825 2.348a29.048 29.048 0 0 0-1.9 3.879c-.572 1.52-1.264 1.593-2.767 1.056a39.884 39.884 0 0 0-7.201-1.663 2.305 2.305 0 0 0-2.857 1.7c-.4 1.62.708 2.374 1.903 2.897 2.282.998 4.654 1.793 6.923 2.817 5.094 2.3 7.008 5.24 6.651 9.976-.33 4.386-3.474 7.973-8.338 9.242a61.046 61.046 0 0 1-6.045.973zm-249.562-.212a20.14 20.14 0 0 1-11.557-3.092c-5.71-3.827-7.713-9.53-7.116-16.037.924-10.065 8.768-16.315 19.518-16.027a19.461 19.461 0 0 1 10.076 2.96 1.502 1.502 0 0 1 .628 2.339c-.764 1.35-1.517 2.71-2.164 4.118-.625 1.363-1.46 1.442-2.632.731a11.643 11.643 0 0 0-7.776-1.782 8.908 8.908 0 0 0-7.717 10.094c.597 5.493 4.546 9.026 9.742 8.406a26.478 26.478 0 0 0 6.155-1.783c1.225-.467 1.935-.458 2.493.836a23.356 23.356 0 0 0 1.906 3.686c.95 1.432.376 2.162-.88 2.895a20.667 20.667 0 0 1-10.675 2.656z" class="cls-2" id="Layer_1" data-name="Layer 1"/><path fill="#d2de26" d="M154.71 78.843c5.836-16.751 24.908-31.933 40.238-32.98 15.33-1.047 32.082 7.591 49.237 4.317 16.844-3.215 27.72-15.31 34.075-22.115-8.66 13.087-17.927 26.097-36.049 27.745-17.275 1.57-32.387-7.01-51.642-3.675-14.958 2.592-27.888 12.882-35.86 26.708z" id="Layer_2" data-name="Layer 2"/></svg>