<svg xmlns="http://www.w3.org/2000/svg" role="img" viewBox="-2.76 -2.76 143.39 32.77"><title>CenturyLink logo</title><path fill="#060807" d="M132.91 11.396v-.304h2.054v.304h-.852v2.233h-.35v-2.233zm4.732-.053l-.813 2.286h-.329l-.812-2.286h-.008v2.286h-.348v-2.537h.626l.731 2.088h.009l.717-2.088H138v2.537h-.349v-2.286z"/><path fill="#060807" d="M97.03125 7.375v12.59375h8.15625V17.875h-5.46875v-10.5h-2.6875zm9.71875 0v2.25h2.78125v-2.25H106.75zm16.125 0v12.59375h2.59375v-4.75l.0312-.03125 2.65625 4.78125h3.03125L128 14.9375l3-3.8125h-2.90625L125.5 14.78125l-.0312-.03125V7.375h-2.59375zm-5.59375 3.5625c-1.327 0-2.1435.54075-2.6875 1.34375l-.0312-.0625v-1h-2.59375v8.75h2.59375V14.6875c.035-1.272.77475-2 1.59375-2 1.291 0 1.5465 1.057 1.5625 2v5.28125h2.625v-5.6875c0-.296-.0485-.86525-.1875-1.40625-.315-1.274-2.004-1.9375-2.875-1.9375zm-10.46875.28125v8.75h2.625v-8.75h-2.625zM39.71875 7.125c-3.6279.30575-4.8125 3.66562-4.8125 6.5625 0 3.525 1.4695 6.53125 5.1875 6.53125 2.459 0 4.60925-1.388 4.78125-3.5h-1.84375c-.208 1.343-1.44025 2-2.78125 2-2.741 0-3.53125-2.43025-3.53125-5.03125 0-2.218.5785-5.0625 3.6875-5.0625 1.291 0 2.6005.794 2.6875 2h1.8125c-.188-2.25-1.98025-3.431-4.40625-3.5-.26388-.00762-.53939-.02038-.78125 0zm28 1.6875l-1.65625.53125v1.875h-1.5v1.1875h1.5v5.53125c0 1.172.077 1.207.375 1.625.277.387.738.53975 1 .59375.4.068.69075.0625 1.09375.0625.381 0 .743-.07375 1.125-.09375v-1.28125c-.26.069-.58275.125-.84375.125-.594 0-1.09375-.3115-1.09375-.9375v-5.625H69.75v-1.1875h-2.03125V8.8125zM50.25 10.9375c-2.775 0-4.0625 2.15275-4.0625 4.71875 0 2.582 1.1285 4.5625 3.9375 4.5625 2.095 0 3.611-.97975 3.875-2.96875h-1.75c-.195 1.272-.833 1.78125-2.125 1.78125-1.691 0-2.3085-1.589-2.1875-3.125h6.1875v-.8125c0-2.423-1.257-4.10425-3.875-4.15625zm9.875 0c-.872 0-2.09625.4625-2.65625 1.5625h-.03125v-1.28125h-1.625v8.75h1.65625v-4.75c0-1.709.4425-2.10075.6875-2.34375.698-.699 1.625-.65625 1.625-.65625 1.4 0 2 .801 2 2.25v5.5h1.65625v-6.0625c0-2.808-2.7015-2.96875-3.3125-2.96875zm25.03125.15625c-1.207 0-2.3195.6095-2.5625 1.8125h-.03125v-1.6875h-1.65625v8.75h1.65625V15.625c0-1.851.37375-2.96325 2.46875-3.03125.227 0 .4595.0068.6875.09375V11.125c-.189 0-.3535-.03125-.5625-.03125zm-14 .125v5.84375c0 1.763 1.043 3.15625 2.875 3.15625 1.221 0 2.336-.43525 3-1.53125h.03125v1.28125h1.625v-8.75h-1.65625v4.5c0 .212-.03075 1.2445-.34375 2.0625-.352.908-1.2575 1.25-1.9375 1.25-1.59 0-1.9375-1.104-1.9375-2.625v-5.1875h-1.65625zm15.46875 0l3.65625 8.71875-1.34375 3.375h1.6875l5.15625-12.09375H94L91.21875 18.125l-2.75-6.90625H86.625zm-36.5.9375c1.605 0 2.284 1.12475 2.25 2.59375h-4.4375c0-1.434.8085-2.59375 2.1875-2.59375z"/><path fill="#8dc643" d="M14.90625 0v9.0625l4.53125-7.84375C18.0355.56675 16.51325.143 14.90625 0zM5.75 2.4375C4.465 3.3435 3.3435 4.466 2.4375 5.75l7.84375 4.53125L5.75 2.4375zm15.8125 0l-4.5 7.84375L24.90625 5.75c-.908-1.284-2.05775-2.4075-3.34375-3.3125zM10.28125 17.03125L2.4375 21.5625c.907 1.285 2.0275 2.43575 3.3125 3.34375l4.53125-7.875zm6.75 0l4.53125 7.875c1.287-.908 2.43575-2.05875 3.34375-3.34375l-7.875-4.53125zm-4.59375 1.25L7.90625 26.125c1.403.651 2.92625 1.07375 4.53125 1.21875v-9.0625z"/><path fill="#118745" d="M12.4375 0c-1.605.142-3.12825.56675-4.53125 1.21875L12.4375 9.0625V0zM1.21875 7.90625C.57175 9.30425.144 10.8315 0 12.4375h9.0625L1.21875 7.90625zm24.90625 0l-7.84375 4.53125h9.0625c-.145-1.606-.57175-3.13325-1.21875-4.53125zm-26.125 7c.146 1.609.57175 3.13525 1.21875 4.53125l7.84375-4.53125H0zm18.28125 0L26.125 19.4375c.648-1.396 1.07575-2.92225 1.21875-4.53125h-9.0625zm-3.375 3.375v9.0625c1.606-.145 3.12825-.56675 4.53125-1.21875l-4.53125-7.84375z"/><path fill="#118745" d="M23.254.302V0h2.049v.302h-.849v2.233h-.35V.302zm4.73-.051l-.811 2.284h-.329L26.032.251h-.008v2.284h-.352V0h.63l.73 2.089h.008L27.757 0h.587v2.535h-.35V.251z"/></svg>