<svg xmlns="http://www.w3.org/2000/svg" role="img" viewBox="-26.54 -7.54 1900.08 432.08"><title>CertusNet logo</title><defs><style>.cls-1{fill:#d80e19}</style></defs><path d="M259.158 148.656h-13.5q1.249-19.5 1.25-31.248 0-35.248-14.623-49.122-14.624-13.874-36.873-13.874-29.752 0-61.746 24.123-32.002 24.129-54.996 75.246-23.004 51.125-23 105.118 0 52.251 21.375 80.12 21.374 27.872 53.621 27.874 43.744 0 80.245-52.497 3.75-5.25 7.75-5.25a7.728 7.728 0 0 1 5.5 2.125 6.538 6.538 0 0 1 2.249 4.874q0 6.75-16.624 26.5-16.628 19.743-41.873 32.871-25.251 13.126-49.746 13.124a103.357 103.357 0 0 1-54.747-15.372q-25.252-15.376-39.247-43.873-14.003-28.499-14-67.746 0-54.747 28.624-108.993 28.621-54.243 71.62-83.745 42.994-29.494 83.995-29.498a133.481 133.481 0 0 1 29.249 3.25q6.244 1.5 51.496 17.249a319.425 319.425 0 0 0-15.999 88.744zm142.741 128.242l8.25 11q-61.252 58.249-104.994 58.245-17.753 0-27.123-11.998-9.375-12-9.375-38.498 0-53.493 32.498-106.493 36.496-60.243 87.244-60.246 17.748 0 27.124 8.874 9.374 8.876 9.375 24.373 0 16.254-11.25 31.998-11.25 15.75-40.248 32.748-14.5 8.25-61.995 29.748a156.835 156.835 0 0 0-2.25 25.749q0 17.752 5.624 24.748 5.625 7.001 16.374 7 10.247 0 22.498-5.75 16.5-7.745 48.248-31.498zm-87.495-36.248q40.246-17.998 60.497-38.748 13.744-14.494 13.748-28.747 0-10.746-5.624-17.124a18.589 18.589 0 0 0-14.624-6.375q-9.251 0-17.999 7-11.753 9.252-19.749 27.998a252.085 252.085 0 0 0-16.25 55.996zm176.739 98.994h-37.247l17.498-67.245q12.75-49.498 22.249-93.995 2.25-10.998 2.25-13.749 0-6-5.5-6-3.75 0-11.499 5.125-7.752 5.127-27.998 25.374l-7.75-8.75q23.987-25.744 47.853-38.622 23.863-12.873 36.61-12.874a11.004 11.004 0 0 1 7.121 2.124 6.633 6.633 0 0 1 2.625 5.375q0 3.27-3.289 17.335l-10.874 44.974q25.3-39.9 57.11-68.258 15.28-13.546 25.548-13.55a17.238 17.238 0 0 1 12.523 4.875 15.707 15.707 0 0 1 .141 22.873q-4.875 4.752-24.354 11.25-18.485 6.257-30.1 15.006-11.618 8.755-25.478 26.757-13.863 18.004-19.378 31.377-5.514 13.37-16.784 62.109z" class="cls-1"/><path d="M668.382 90.91l39.69-15.226-17.96 69.972h51.765l-3.999 17.75h-51.805l-21.808 83.775q-10.382 37.726-10.382 52.466 0 6.75 2.875 9.75a10.384 10.384 0 0 0 7.875 3q7.745 0 23.748-9.25a311.09 311.09 0 0 0 39.998-27.75l9.499 11.5q-54.747 41.248-73.245 50.497-18.504 9.245-29.749 9.25-9.25 0-14.623-6.75-5.38-6.75-5.375-21.998 0-18 9.5-54.997l25.446-99.494h-40.497l4.5-17.749h40.54zm262.636 44.997h35.596l-23.499 87.37q-20.753 76.108-20.748 86.619 0 4.752 2.249 7.25a6.63 6.63 0 0 0 5 2.5q4.248 0 9.999-3.75 8.25-5.749 31.249-28.999l8.249 9.25q-50.248 52.25-73.996 52.247a17.825 17.825 0 0 1-13.624-6.125q-5.625-6.123-5.625-17.374 0-12.996 5.415-34.748-22.235 25.498-54.954 44.747-21.737 12.75-37.72 12.749-8.742 0-13.738-5.757-4.997-5.753-4.996-18.273a107.651 107.651 0 0 1 2.25-21.025q3.246-15.772 16.5-63.332 16.744-60.325 16.748-72.343 0-7.007-5-7.008-4.499 0-12.249 4.625-7.751 4.629-26.498 22.373l-11-8.748q33.497-29.999 51.122-39.374 17.624-9.374 28.373-9.374a12.226 12.226 0 0 1 9.75 4.383q3.75 4.383 3.75 13.64 0 17.272-18 84.861-16 60.829-15.998 69.34a13.014 13.014 0 0 0 3.37 9.01q3.37 3.757 7.371 3.755 13.98 0 39.709-23.124 25.727-23.12 33.72-52.621zm176.336-6.5q22.247 0 34.373 8.625 12.123 8.624 12.125 19.874a15.899 15.899 0 0 1-5.125 11.749 17.072 17.072 0 0 1-12.375 5 15.567 15.567 0 0 1-8.249-2.126q-3.503-2.12-10-10.624-12.25-16.247-24.248-16.249-10.253 0-18.124 7.867a26.58 26.58 0 0 0-7.875 19.596 42.47 42.47 0 0 0 5 19.85q5 9.616 25.25 31.085 27.748 29.464 27.747 55.926 0 26.47-22.498 46.317-22.5 19.851-57.997 19.846-29.752 0-44.247-12.124-14.5-12.122-14.498-29.873a20.137 20.137 0 0 1 5.498-14.499 17.952 17.952 0 0 1 13.5-5.75 17.068 17.068 0 0 1 12 4.625 14.373 14.373 0 0 1 4.998 10.875q0 2.5-.33 6.499-.17 3.252-.17 5.5 0 8.249 6.977 13.999 6.726 5.754 18.433 5.75 13.453 0 23.662-4.617a35.284 35.284 0 0 0 15.944-13.984q5.731-9.363 5.73-18.6a34.785 34.785 0 0 0-5.374-17.976q-5.38-8.987-24.124-29.712-26.002-28.962-25.999-55.677 0-24.467 19.75-42.821 19.744-18.35 50.246-18.35z" class="cls-1"/><path d="M1346.588 38.663l7 29.249q9.75 39.998 19.25 69.995 9.497 29.998 48.746 138.74 3.75-13.743 14.998-60.995 14.496-61.496 19.25-77.245 13.996-46.245 26.999-67.996 12.993-21.749 28.997-31.248 15.995-9.497 36.249-9.5 16.245 0 24.872 6.25 8.624 6.252 8.625 15a15.295 15.295 0 0 1-4.624 10.998 14.7 14.7 0 0 1-10.879 4.75 27.937 27.937 0 0 1-10.5-2.5q-12.502-4.998-15.002-5.749a45.136 45.136 0 0 0-9.753-1 29.54 29.54 0 0 0-21.003 8.25q-15.503 14.5-34.128 72.745-18.63 58.25-47.382 186.238l-8.5 37.247q-28.492-62.743-38.486-88.993-13.499-35.249-30.736-88.995l-27.49-86.494q-5.004 29.998-23.375 101.118-18.372 71.123-21.873 81.87-11.5 33.748-24.623 51.746-13.126 18-28.75 26.249a72.48 72.48 0 0 1-34.371 8.249q-23.5 0-38.498-10.5-11.5-7.75-11.499-19.748a12.734 12.734 0 0 1 4.25-9.374 14.177 14.177 0 0 1 10.249-4.125q7.746 0 16.748 8.25 15.995 14.747 29.25 14.75 14.249 0 27.998-12.75 20.494-19.5 39.497-81.746 22.997-75.24 44.246-190.987-8.752 0-33.497 5-24.75 5.003-41.372 14.123-16.629 9.13-25.499 23.749a58.167 58.167 0 0 0-8.874 30.623 61.567 61.567 0 0 0 2.25 16.249q1.5 5.502 6.499 13.5 5.748 9.25 5.75 13.999a13.777 13.777 0 0 1-4.374 10.249 14.99 14.99 0 0 1-10.876 4.25q-9.502 0-16.249-9.875-6.748-9.872-6.749-30.123 0-33.496 16.874-56.997 16.875-23.494 45.122-35.497 18-7.5 69.496-14.5a350.497 350.497 0 0 0 35.747-6.499zm304.231 238.235l8.25 11q-61.25 58.249-104.994 58.245-17.752 0-27.122-11.998-9.374-12-9.374-38.498 0-53.493 32.497-106.493 36.496-60.243 87.244-60.246 17.748 0 27.125 8.874 9.374 8.876 9.374 24.373 0 16.254-11.25 31.998-11.25 15.75-40.247 32.748-14.502 8.25-61.997 29.748a156.828 156.828 0 0 0-2.249 25.749q0 17.752 5.624 24.748 5.625 7.001 16.374 7 10.247 0 22.499-5.75 16.498-7.745 48.246-31.498zm-87.493-36.248q40.245-17.998 60.496-38.748 13.745-14.494 13.75-28.747 0-10.746-5.627-17.124a18.586 18.586 0 0 0-14.623-6.375q-9.251 0-18 7-11.75 9.252-19.748 27.998a252.092 252.092 0 0 0-16.248 55.996zm200.487-149.74l39.69-15.226-17.961 69.972h51.767l-4 17.75h-51.805l-21.808 83.775q-10.382 37.726-10.382 52.466 0 6.75 2.874 9.75a10.386 10.386 0 0 0 7.875 3q7.747 0 23.749-9.25a310.923 310.923 0 0 0 39.997-27.75l9.5 11.5q-54.746 41.248-73.246 50.497-18.502 9.245-29.748 9.25-9.25 0-14.623-6.75-5.38-6.75-5.375-21.998 0-18 9.5-54.997l25.447-99.494h-40.497l4.499-17.749h40.54z"/><path fill="none" d="M-115.858-208.02h2090.064V904H-115.858z"/></svg>