<svg xmlns="http://www.w3.org/2000/svg" role="img" viewBox="-7.84 -4.34 511.68 167.68"><title>CloudPlugs logo</title><defs><style>.cls-3{fill:#23b5e9}</style></defs><path fill="#838383" d="M201.484 104.313a23.278 23.278 0 0 1-8.093-31.179 22.517 22.517 0 0 1 8.037-8.322 21.122 21.122 0 0 1 11.172-3.078 22.148 22.148 0 0 1 7.466 1.197 21.3 21.3 0 0 1 6.498 3.82 1.522 1.522 0 0 1 .627 1.31 1.548 1.548 0 0 1-.228.826 1.336 1.336 0 0 1-.627.542 1.04 1.04 0 0 1-.512.627 1.694 1.694 0 0 1-.855.228 2.05 2.05 0 0 1-1.426-.513 14.227 14.227 0 0 0-4.844-2.907 18.578 18.578 0 0 0-6.1-.912 16.608 16.608 0 0 0-8.891 2.537 18.713 18.713 0 0 0-6.527 6.811 18.413 18.413 0 0 0-2.422 9.234 18.811 18.811 0 0 0 2.393 9.348 18.261 18.261 0 0 0 6.498 6.783 16.835 16.835 0 0 0 8.95 2.508 17.58 17.58 0 0 0 11.229-3.99 2.126 2.126 0 0 1 1.253-.456 2.093 2.093 0 0 1 2.11 2.166 2.286 2.286 0 0 1-.628 1.596q-5.358 4.903-13.964 4.902a21.028 21.028 0 0 1-11.116-3.078zm32.69-.257a11.06 11.06 0 0 1-2.195-7.096V64.47a2.065 2.065 0 0 1 .627-1.567 2.143 2.143 0 0 1 1.539-.599 2.054 2.054 0 0 1 2.166 2.166v32.49a7.22 7.22 0 0 0 .998 3.99 2.948 2.948 0 0 0 2.536 1.54h1.425a1.71 1.71 0 0 1 1.368.598 2.323 2.323 0 0 1 .513 1.567 1.948 1.948 0 0 1-.712 1.567 2.782 2.782 0 0 1-1.853.6h-.74a6.91 6.91 0 0 1-5.672-2.766zm17.215.999a14.785 14.785 0 0 1-5.673-5.672 17.16 17.16 0 0 1 0-16.274 14.732 14.732 0 0 1 5.673-5.7 17.046 17.046 0 0 1 16.215 0 14.996 14.996 0 0 1 5.671 5.7 17.053 17.053 0 0 1 .03 16.274 14.79 14.79 0 0 1-5.672 5.672 17.102 17.102 0 0 1-16.244 0zm14.05-3.478a10.902 10.902 0 0 0 4.104-4.247 13.295 13.295 0 0 0 0-12.197 10.911 10.911 0 0 0-4.105-4.247 12.13 12.13 0 0 0-11.827 0 11.03 11.03 0 0 0-4.16 4.247 13.066 13.066 0 0 0 0 12.197 11.02 11.02 0 0 0 4.16 4.247 12.13 12.13 0 0 0 11.827 0zm43.319-25.337a2.068 2.068 0 0 1 .627 1.568v26.79a2.145 2.145 0 0 1-2.223 2.223 2.064 2.064 0 0 1-1.567-.627 2.215 2.215 0 0 1-.599-1.596v-1.938a13.278 13.278 0 0 1-4.56 3.306 14.07 14.07 0 0 1-5.814 1.197 15.239 15.239 0 0 1-7.266-1.71 12.243 12.243 0 0 1-5.045-4.987 15.868 15.868 0 0 1-1.825-7.838v-14.82a2.142 2.142 0 0 1 2.166-2.166 2.162 2.162 0 0 1 1.596.627 2.093 2.093 0 0 1 .627 1.539v14.82q0 5.074 2.822 7.723a10.337 10.337 0 0 0 7.381 2.65 11.486 11.486 0 0 0 5.045-1.082 8.894 8.894 0 0 0 3.563-2.992 7.34 7.34 0 0 0 1.31-4.247V77.808a2.055 2.055 0 0 1 2.166-2.166 2.217 2.217 0 0 1 1.596.599zm38.075 1.568v13.395a16.053 16.053 0 0 1-2.08 8.095 15.15 15.15 0 0 1-5.7 5.727 16.67 16.67 0 0 1-16.131 0 15.129 15.129 0 0 1-5.7-5.727 16.044 16.044 0 0 1-2.081-8.095 16.24 16.24 0 0 1 2.024-8.066 15.01 15.01 0 0 1 13.366-7.78 14.733 14.733 0 0 1 6.783 1.568 14.104 14.104 0 0 1 5.073 4.303v-16.7a2.146 2.146 0 0 1 2.223-2.224 2.07 2.07 0 0 1 1.568.627 2.222 2.222 0 0 1 .598 1.596v12.768a1.758 1.758 0 0 1 .057.513zm-9.975 23.74a11.308 11.308 0 0 0 4.132-4.274 12.245 12.245 0 0 0 1.511-6.071 12.974 12.974 0 0 0-.057-1.425.632.632 0 0 1-.057-.285 11.439 11.439 0 0 0-3.734-7.296 11.049 11.049 0 0 0-7.666-2.85 11.534 11.534 0 0 0-5.9 1.539 11.026 11.026 0 0 0-4.16 4.247 12.952 12.952 0 0 0 0 12.14 11.226 11.226 0 0 0 4.16 4.276 11.362 11.362 0 0 0 5.9 1.567 11.216 11.216 0 0 0 5.871-1.567zm18.582 4.646a2.157 2.157 0 0 1-.628-1.596v-40.07a2.145 2.145 0 0 1 2.223-2.224h11.4a14.86 14.86 0 0 1 7.439 1.853 13.125 13.125 0 0 1 5.102 5.13 15.157 15.157 0 0 1 1.823 7.495 14.876 14.876 0 0 1-1.823 7.41 12.973 12.973 0 0 1-5.102 5.073 15.03 15.03 0 0 1-7.438 1.824h-9.177v13.51a2.258 2.258 0 0 1-3.82 1.595zm12.996-19.38a10.397 10.397 0 0 0 5.186-1.282 9.17 9.17 0 0 0 3.563-3.563 10.39 10.39 0 0 0 1.283-5.187 10.67 10.67 0 0 0-1.283-5.272 9.321 9.321 0 0 0-3.563-3.62 10.222 10.222 0 0 0-5.186-1.311h-9.177v20.235zm18.895 17.242a11.064 11.064 0 0 1-2.194-7.096V64.47a2.065 2.065 0 0 1 .627-1.567 2.144 2.144 0 0 1 1.539-.599 2.055 2.055 0 0 1 2.166 2.166v32.49a7.22 7.22 0 0 0 .997 3.99 2.948 2.948 0 0 0 2.537 1.54h1.425a1.712 1.712 0 0 1 1.368.598 2.325 2.325 0 0 1 .513 1.567 1.948 1.948 0 0 1-.713 1.567 2.782 2.782 0 0 1-1.853.6h-.74a6.91 6.91 0 0 1-5.672-2.766zm39.871-27.816a2.068 2.068 0 0 1 .627 1.568v26.79a2.145 2.145 0 0 1-2.223 2.223 2.063 2.063 0 0 1-1.567-.627 2.215 2.215 0 0 1-.599-1.596v-1.938a13.287 13.287 0 0 1-4.56 3.306 14.077 14.077 0 0 1-5.814 1.197 15.242 15.242 0 0 1-7.267-1.71 12.254 12.254 0 0 1-5.045-4.987 15.868 15.868 0 0 1-1.824-7.838v-14.82a2.142 2.142 0 0 1 2.166-2.166 2.165 2.165 0 0 1 1.596.627 2.097 2.097 0 0 1 .627 1.539v14.82q0 5.074 2.822 7.723a10.34 10.34 0 0 0 7.381 2.65 11.479 11.479 0 0 0 5.044-1.082 8.881 8.881 0 0 0 3.563-2.992 7.333 7.333 0 0 0 1.311-4.247V77.808a2.055 2.055 0 0 1 2.166-2.166 2.22 2.22 0 0 1 1.596.599zm30.38 1.14a14.644 14.644 0 0 1 5.644 5.644 16.404 16.404 0 0 1 2.051 8.236v11.628a16.961 16.961 0 0 1-2.023 8.265 15.104 15.104 0 0 1-5.614 5.843 15.525 15.525 0 0 1-8.095 2.137 17.733 17.733 0 0 1-7.809-1.653 16.232 16.232 0 0 1-5.757-4.617 1.903 1.903 0 0 1-.512-1.31 1.841 1.841 0 0 1 .798-1.483 2.133 2.133 0 0 1 1.254-.4 2.276 2.276 0 0 1 1.025.258 2.13 2.13 0 0 1 .799.655 11.502 11.502 0 0 0 4.332 3.363 14.117 14.117 0 0 0 5.927 1.197 10.882 10.882 0 0 0 9.862-5.957 13.712 13.712 0 0 0 1.481-6.468v-2.566a12.656 12.656 0 0 1-4.844 5.102 13.74 13.74 0 0 1-7.125 1.852 15.623 15.623 0 0 1-7.953-2.023 14.218 14.218 0 0 1-5.471-5.643 16.861 16.861 0 0 1-1.967-8.18 16.405 16.405 0 0 1 2.053-8.236 14.59 14.59 0 0 1 5.67-5.643 17.372 17.372 0 0 1 16.274 0zm-2.223 24.225a10.7 10.7 0 0 0 4.105-4.218 13.413 13.413 0 0 0 0-12.254 10.911 10.911 0 0 0-4.105-4.247 12.296 12.296 0 0 0-11.913 0 10.889 10.889 0 0 0-4.103 4.247 13.405 13.405 0 0 0 0 12.254 10.678 10.678 0 0 0 4.103 4.218 12.498 12.498 0 0 0 11.913 0zm19.721 4.304a13.143 13.143 0 0 1-5.244-3.363 2.08 2.08 0 0 1-.57-1.31 2.167 2.167 0 0 1 .912-1.71 2.338 2.338 0 0 1 1.425-.514 2.106 2.106 0 0 1 1.653.797 8.734 8.734 0 0 0 3.619 2.453 13.965 13.965 0 0 0 4.987.854 10.64 10.64 0 0 0 5.986-1.368 4.32 4.32 0 0 0 2.051-3.591 4.04 4.04 0 0 0-1.995-3.42 15.94 15.94 0 0 0-6.326-2.052q-5.587-.91-8.35-3.163a6.8 6.8 0 0 1-2.765-5.444 7.43 7.43 0 0 1 3.22-6.441 13.616 13.616 0 0 1 8.066-2.28 15.58 15.58 0 0 1 6.555 1.282 11.523 11.523 0 0 1 4.503 3.563 2.595 2.595 0 0 1 .456 1.31 1.742 1.742 0 0 1-.912 1.54 1.829 1.829 0 0 1-1.083.285 2.617 2.617 0 0 1-1.996-.855 9.625 9.625 0 0 0-7.637-3.192 8.758 8.758 0 0 0-5.016 1.282 3.806 3.806 0 0 0-.114 6.499q1.765 1.226 6.27 1.966 6.099 1.026 8.721 3.334a7.33 7.33 0 0 1 2.622 5.729 7.497 7.497 0 0 1-1.568 4.674 10.16 10.16 0 0 1-4.36 3.192 16.604 16.604 0 0 1-6.328 1.14 19.462 19.462 0 0 1-6.782-1.197z"/><path fill="#797979" d="M245.503 147.667a11.43 11.43 0 0 1-4.71.846c-5.029 0-8.814-3.175-8.814-9.024 0-5.584 3.785-9.369 9.316-9.369a9.567 9.567 0 0 1 4.234.795l-.555 1.879a8.387 8.387 0 0 0-3.6-.742c-4.181 0-6.96 2.673-6.96 7.358 0 4.367 2.514 7.172 6.855 7.172a9.218 9.218 0 0 0 3.757-.741zm14.107-5.929c0 4.738-3.28 6.802-6.377 6.802-3.467 0-6.14-2.54-6.14-6.59 0-4.287 2.805-6.801 6.352-6.801 3.678 0 6.166 2.673 6.166 6.59zm-10.162.133c0 2.805 1.614 4.922 3.89 4.922 2.224 0 3.89-2.09 3.89-4.975 0-2.17-1.084-4.923-3.837-4.923s-3.943 2.541-3.943 4.976zm13.102-2.964c0-1.323-.026-2.408-.106-3.467h2.065l.132 2.117h.053a4.711 4.711 0 0 1 4.234-2.408c1.773 0 4.525 1.058 4.525 5.452v7.648h-2.328v-7.384c0-2.064-.768-3.784-2.964-3.784a3.308 3.308 0 0 0-3.123 2.382 3.346 3.346 0 0 0-.16 1.085v7.701h-2.328zm14.69 0c0-1.323-.026-2.408-.105-3.467h2.063l.133 2.117h.053a4.711 4.711 0 0 1 4.234-2.408c1.774 0 4.526 1.058 4.526 5.452v7.648h-2.329v-7.384c0-2.064-.768-3.784-2.964-3.784a3.416 3.416 0 0 0-3.282 3.467v7.701h-2.329zm15.986 3.361c.053 3.15 2.064 4.446 4.393 4.446a8.432 8.432 0 0 0 3.547-.661l.397 1.666a10.372 10.372 0 0 1-4.26.794c-3.944 0-6.3-2.593-6.3-6.457s2.276-6.907 6.008-6.907c4.181 0 5.292 3.678 5.292 6.034a8.818 8.818 0 0 1-.079 1.085zm6.828-1.667c.027-1.482-.608-3.785-3.229-3.785-2.355 0-3.387 2.17-3.573 3.785zm14.266 7.172a8.585 8.585 0 0 1-3.678.74c-3.864 0-6.378-2.62-6.378-6.536a6.508 6.508 0 0 1 6.88-6.802 7.786 7.786 0 0 1 3.229.662l-.529 1.8a5.398 5.398 0 0 0-2.7-.609c-2.937 0-4.525 2.17-4.525 4.843 0 2.964 1.906 4.79 4.446 4.79a6.605 6.605 0 0 0 2.858-.635zm5.876-16.012v3.679h3.335v1.773h-3.335v6.908c0 1.587.451 2.487 1.748 2.487a5.156 5.156 0 0 0 1.35-.159l.105 1.747a5.697 5.697 0 0 1-2.064.317 3.228 3.228 0 0 1-2.514-.978 4.748 4.748 0 0 1-.9-3.335v-6.987h-1.985v-1.773h1.985v-3.07zm8.55.08a1.442 1.442 0 0 1-2.884 0 1.42 1.42 0 0 1 1.455-1.455 1.382 1.382 0 0 1 1.429 1.455zm-2.593 16.408v-12.81h2.328v12.81zm6.193-9.342c0-1.323-.026-2.408-.106-3.467h2.064l.133 2.117h.052a4.711 4.711 0 0 1 4.235-2.408c1.773 0 4.526 1.058 4.526 5.452v7.648h-2.33v-7.384c0-2.064-.767-3.784-2.963-3.784a3.416 3.416 0 0 0-3.282 3.467v7.701h-2.329zm25.724-3.467a56.635 56.635 0 0 0-.105 3.52v7.436c0 2.938-.582 4.738-1.826 5.85a6.792 6.792 0 0 1-4.658 1.534 8.27 8.27 0 0 1-4.26-1.059l.582-1.772a7.227 7.227 0 0 0 3.758 1.005c2.382 0 4.128-1.244 4.128-4.473v-1.428h-.053a4.574 4.574 0 0 1-4.075 2.143c-3.176 0-5.452-2.7-5.452-6.246 0-4.34 2.832-6.801 5.77-6.801a4.26 4.26 0 0 1 3.996 2.223h.052l.107-1.932zm-2.407 5.055a3.306 3.306 0 0 0-.133-1.06 3.354 3.354 0 0 0-3.255-2.46c-2.223 0-3.81 1.88-3.81 4.843 0 2.514 1.27 4.605 3.784 4.605a3.404 3.404 0 0 0 3.228-2.382 4.043 4.043 0 0 0 .186-1.244zm14.162-8.125h-5.426v-1.958h13.206v1.958h-5.452v15.879h-2.328zm9.502-2.911h2.328v7.992h.053a4.327 4.327 0 0 1 1.668-1.64 4.791 4.791 0 0 1 2.381-.662c1.721 0 4.473 1.058 4.473 5.478v7.622h-2.328v-7.357c0-2.065-.768-3.811-2.964-3.811a3.346 3.346 0 0 0-3.123 2.329 2.814 2.814 0 0 0-.16 1.11v7.729h-2.328zm17.283 2.382a1.442 1.442 0 0 1-2.884 0 1.42 1.42 0 0 1 1.456-1.455 1.382 1.382 0 0 1 1.428 1.455zm-2.593 16.408v-12.81h2.329v12.81zm6.193-9.342c0-1.323-.026-2.408-.105-3.467h2.063l.133 2.117h.053a4.711 4.711 0 0 1 4.234-2.408c1.774 0 4.526 1.058 4.526 5.452v7.648h-2.329v-7.384c0-2.064-.768-3.784-2.964-3.784a3.416 3.416 0 0 0-3.282 3.467v7.701h-2.329zm25.726-3.467a56.635 56.635 0 0 0-.106 3.52v7.436c0 2.938-.582 4.738-1.826 5.85a6.792 6.792 0 0 1-4.658 1.534 8.27 8.27 0 0 1-4.26-1.059l.582-1.772a7.227 7.227 0 0 0 3.758 1.005c2.382 0 4.128-1.244 4.128-4.473v-1.428h-.053a4.574 4.574 0 0 1-4.075 2.143c-3.177 0-5.452-2.7-5.452-6.246 0-4.34 2.831-6.801 5.77-6.801a4.26 4.26 0 0 1 3.995 2.223h.053l.106-1.932zm-2.408 5.055a3.306 3.306 0 0 0-.133-1.06 3.354 3.354 0 0 0-3.255-2.46c-2.223 0-3.81 1.88-3.81 4.843 0 2.514 1.27 4.605 3.784 4.605a3.404 3.404 0 0 0 3.228-2.382 4.043 4.043 0 0 0 .186-1.244zm5.85 5.372a6.104 6.104 0 0 0 3.07.926c1.694 0 2.488-.846 2.488-1.905 0-1.111-.662-1.72-2.382-2.355-2.302-.82-3.387-2.091-3.387-3.626 0-2.064 1.667-3.758 4.419-3.758a6.39 6.39 0 0 1 3.149.794l-.582 1.694a4.984 4.984 0 0 0-2.62-.742c-1.376 0-2.144.795-2.144 1.748 0 1.058.768 1.534 2.435 2.17 2.223.846 3.362 1.958 3.362 3.863 0 2.25-1.748 3.837-4.79 3.837a7.299 7.299 0 0 1-3.6-.873z"/><path d="M140.082 133.866h-.018a3.75 3.75 0 0 1-3.733-3.768l.387-84.35a3.75 3.75 0 0 1 7.5.034l-.387 84.352a3.75 3.75 0 0 1-3.75 3.732z" class="cls-3"/><path d="M140.081 74.001h-17.057a3.75 3.75 0 1 1 0-7.5h17.057a3.75 3.75 0 0 1 0 7.5zm0 17.106h-17.057a3.75 3.75 0 0 1 0-7.5h17.057a3.75 3.75 0 0 1 0 7.5z" class="cls-3"/><path d="M138.932 113.548H32.211c-16.558 0-30.03-12.013-30.03-26.78 0-13.653 11.517-24.954 26.341-26.58l-.015-.093c-2.528-15.963 1.127-31.097 10.03-41.521a36.987 36.987 0 0 1 28.56-13.11c12.7 0 25.688 6.012 36.024 16.59a27.48 27.48 0 0 1 11.361-2.488c13.749 0 25.5 10.2 28.916 24.656 20.429 1.9 36.02 16.608 36.02 34.553 0 19.174-18.162 34.773-40.486 34.773zM32.211 67.486c-12.423 0-22.53 8.65-22.53 19.282 0 10.631 10.107 19.28 22.53 19.28h106.721c18.189 0 32.986-12.235 32.986-27.273 0-14.737-13.952-26.703-31.762-27.241l-3.13-.095-.465-3.096c-1.852-12.329-11.137-21.277-22.079-21.277a19.926 19.926 0 0 0-10.252 2.854l-2.653 1.568-2.052-2.299c-9.208-10.311-21.027-16.225-32.429-16.225a29.213 29.213 0 0 0-22.856 10.48C36.764 32.2 33.73 45.13 35.915 58.922a59.08 59.08 0 0 0 .782 3.977l1.052 4.588z" class="cls-3"/></svg>