<svg xmlns="http://www.w3.org/2000/svg" role="img" viewBox="-6.44 80.06 412.62 84.62"><style>svg {enable-background:new 0 0 400 245}</style><style>.st0{fill-rule:evenodd;clip-rule:evenodd;fill:#00a7af}.st3{fill:#717b7d}</style><path d="M377.8 126.2L392 113h4.7v.7L381 128.2l17.5 16.2v.7H394l-16.2-14.8v14.8H374V99.9h3.8zm-37.9-8.6c2.5-3.5 6.5-5.1 10.8-5.2 8.7 0 14.5 5.4 14.5 14.2v18.5h-3.9v-18.4c0-6.8-4.1-10.5-10.8-10.4-6.3.1-10.6 4.8-10.6 11v17.8H336V113h3.9v4.6zm-18.1-14.4c0-3.8 5.8-3.8 5.8 0s-5.8 3.8-5.8 0zm.9 9.7h3.9v32.3h-3.9zm-22.5 4.6c2.2-3.3 6.1-4.8 10-4.8 2.5-.1 4.8.6 6.9 1.9l.3.2-1.8 3.2-.4-.2c-1.5-.9-3.3-1.4-5.1-1.4-5.6 0-9.9 4.5-9.9 10.1v18.7h-3.9V113h3.7l.2 4.5zm-40.8 1.2c2.8-4.2 7.5-6.2 12.6-6.2 9.8 0 16.1 6.8 16.1 16.6s-6.2 16.6-16.1 16.6c-5 0-9.8-2.3-12.7-6.4v5.9h-3.9V99.9h3.9v18.8h.1zm12.5-2.4c-7.3 0-12.4 5.5-12.4 12.7 0 7.3 5 12.8 12.4 12.8 7.6 0 12.4-5.1 12.4-12.7 0-7.7-4.7-12.8-12.4-12.8z" class="st0"/><path fill="#717b7d" fill-rule="evenodd" d="M243.3 139.2c-2.8 4.1-7.7 6.4-12.7 6.4-9.8 0-16.1-6.8-16.1-16.6 0-9.7 6.3-16.6 16.1-16.6 5.1 0 9.8 2 12.6 6.2V99.9h3.9v45.3h-3.9v-6h.1zm-12.5-22.9c-7.7 0-12.4 5.1-12.4 12.8 0 7.6 4.8 12.7 12.4 12.7 7.4 0 12.4-5.5 12.4-12.8 0-7.3-5.1-12.7-12.4-12.7zm-27.2 24.2c-2.5 3.5-6.5 5.1-10.8 5.2-8.7 0-14.5-5.4-14.5-14.2V113h3.9v18.4c0 6.8 4.1 10.5 10.8 10.4 6.3-.1 10.6-4.8 10.6-11V113h3.9v32.2h-3.9v-4.7zm-49.3 5.1c-9.6 0-16.3-6.8-16.3-16.4 0-9.6 6.7-16.7 16.3-16.7 9.6 0 16.3 7.1 16.3 16.7 0 9.5-6.7 16.4-16.3 16.4zm0-3.9c7.4 0 12.5-5.2 12.5-12.6 0-7.3-5-13-12.5-13s-12.5 5.7-12.5 13c0 7.4 5.1 12.6 12.5 12.6zm-28.1-41.8h3.9v45.3h-3.9zm-9.4 37.8l2.7 2.7-.3.3c-3.1 3.1-7.3 4.8-11.7 4.8-9.5 0-16.5-6.8-16.5-16.4 0-9.7 6.8-16.4 16.5-16.4 4.4 0 8.6 1.7 11.7 4.8l.3.3-2.6 2.5-.3-.3c-2.4-2.4-5.7-3.6-9.1-3.6-7.5 0-12.7 5.1-12.7 12.7s5.1 12.7 12.7 12.7c3.4 0 6.7-1.4 9-3.8l.3-.3z" clip-rule="evenodd"/><path fill="#00a7af" d="M71.5 126.5c-1.2 0-2.3-.5-3-1.3-.6 4.4-2.6 8.4-5.7 11.5-3.8 3.8-8.9 5.9-14.3 5.9s-10.5-2.1-14.3-5.9c-3-3-5-6.9-5.6-11h-5.7c1.6 12.7 12.4 22.5 25.6 22.5 13.2 0 24-9.9 25.6-22.7-.7.7-1.6 1-2.6 1zm0-8.1c1 0 1.9.4 2.6.9-1.5-12.8-12.4-22.7-25.6-22.7-13 0-23.8 9.7-25.5 22.2h5.7c.7-4 2.6-7.8 5.6-10.7 3.8-3.8 8.9-5.9 14.3-5.9s10.5 2.1 14.3 5.9c3.2 3.2 5.1 7.2 5.7 11.5.6-.7 1.7-1.2 2.9-1.2z"/><path d="M64.9 143.6h-.2c-.5 0-1.1.1-1.6.2l-5.2-8.9c3.8-2.8 6.3-7.3 6.3-12.5 0-5-2.4-9.5-6.1-12.3l5.1-8.9c.5.1.9.2 1.4.2 3.7.1 6.8-2.8 6.9-6.5.1-3.7-2.8-6.8-6.5-6.9-3.7-.1-6.8 2.8-6.9 6.5-.1 1.9.7 3.6 1.9 4.8l-5.1 8.9c-1.9-.8-4-1.3-6.2-1.3-7.8 0-14.2 5.8-15.3 13.3H17.7c-.9-3.5-4.1-6.1-8-6.1-4.6 0-8.2 3.7-8.2 8.2 0 4.6 3.7 8.2 8.2 8.2 3.8 0 7-2.6 8-6.1h15.7c1 7.6 7.5 13.4 15.3 13.4 2.1 0 4.1-.4 5.9-1.2l5.2 8.9c-1.1 1.2-1.8 2.7-1.9 4.4-.1 3.7 2.8 6.8 6.5 6.9h.2c3.6 0 6.6-2.9 6.7-6.5.2-3.5-2.7-6.6-6.4-6.7zm-26.7-21.2c0-5.8 4.7-10.5 10.5-10.5s10.5 4.7 10.5 10.5-4.7 10.5-10.5 10.5-10.5-4.7-10.5-10.5zM64.7 154h-.1c-1 0-1.9-.5-2.6-1.2-.7-.7-1-1.7-1-2.7.1-2 1.7-3.6 3.7-3.6h.1c1 0 1.9.5 2.6 1.2.7.7 1 1.7 1 2.7-.1 2-1.7 3.6-3.7 3.6z" class="st3"/><circle cx="48.7" cy="122.5" r="5.6" class="st0"/><path d="M71.5 121c.8 0 1.5.7 1.5 1.5s-.7 1.5-1.5 1.5-1.5-.7-1.5-1.5.6-1.5 1.5-1.5m0-1.3c-1.5 0-2.8 1.2-2.8 2.8 0 1.5 1.2 2.8 2.8 2.8 1.5 0 2.8-1.2 2.8-2.8-.1-1.6-1.3-2.8-2.8-2.8z" class="st3"/></svg>