<svg xmlns="http://www.w3.org/2000/svg" role="img" viewBox="8.51 -2.49 233.74 68.74"><title>Concept Reply (member) logo</title><path d="M63 2h1v1h-1zm5 0h1v1h-1zm-5 1h1v1h-1zm3 0h1v1h-1zm3 0h1v2h-1zm2 0h1v1h-1zm-2 2h2v1h-2zm2 0h1v2h-1zM60 7h1v1h-1zm11 0h1v2h-1zM60 8h1v1h-1zm1 0h1v1h-1zm8 0h1v2h-1zM35 9h1v1h-1zm1 0h3v1h-3zm3 0h1v1h-1zm5 0h1v1h-1zm1 0h1v1h-1zm8 0h1v1h-1zm4 0h1v1h-1zm-15 1h1v1h-1zm1 0h2v1h-2zm2 0h2v1h-2zm2 0h1v1h-1zm11 0h1v1h-1zm-22 1h1v1h-1zm1 0h2v1h-2zm31 0h1v1h-1zm-23 2h1v1h-1zm22 0h1v1h-1zm-21 1h1v1h-1zm5 0h1v1h-1zm0 1h2v1h-2zm2 0h1v1h-1zm4 0h1v1h-1zm0 1h1v1h-1zm-6 2h1v1h-1zm1 0h1v1h-1zm-2 1h1v1h-1zm4 0h1v2h-1zm4 0h1v1h-1zm-12 1h1v1h-1zm4 0h1v1h-1zm7 0h1v1h-1zm1 0h1v1h-1zm-1 1h1v1h-1zm-12 1h1v2h-1zm1 0h2v1h-2zm2 0h1v1h-1zm5 0h1v1h-1zm-10 1h1v1h-1zm5 0h1v1h-1zm-4 1h2v1h-2zm12 0h1v1h-1zm-15 1h1v1h-1zm12 0h1v1h-1zm2 0h1v1h-1zm-14 1h1v1h-1zm1 0h1v1h-1zm-3 1h1v1h-1zm3 0h1v1h-1zm-2 1h1v1h-1zm8 0h1v1h-1zm3 0h1v1h-1zm-13 1h1v1h-1zm4 1h1v1h-1zm1 0h1v1h-1zm-6 1h1v1h-1zm1 0h1v1h-1zm4 0h1v1h-1zm11 0h1v1h-1zm1 1h1v1h-1zm-21 1h1v1h-1zm11 0h1v1h-1zm3 0h1v1h-1zm3 0h1v2h-1zm1 0h1v2h-1zm3 0h1v1h-1zm-10 1h2v1h-2zm-30 1h1v1h-1zm2 0h1v1h-1zm1 0h1v1h-1zm9 0h1v1h-1zm1 0h2v1h-2zm2 0h1v1h-1zm5 0h1v1h-1zm6 0h1v1h-1zm10 0h3v1h-3zm-22 1h1v2h-1zm1 0h2v1h-2zm2 0h1v1h-1zm14 0h1v1h-1zm-18 1h1v1h-1zm4 0h1v1h-1zm8 0h1v1h-1zm6 0h1v1h-1zm1 0h1v1h-1zm10 0h1v1h-1zm-43 1h1v1h-1zm8 0h1v1h-1zm1 0h1v1h-1zm6 0h1v1h-1zm1 0h1v1h-1zm-13 1h1v1h-1zm4 0h1v1h-1zm14 0h2v1h-2zm2 0h1v1h-1zm15 0h1v1h-1zm1 0h1v1h-1zm-35 1h3v1h-3zm3 0h1v1h-1zm2 0h1v1h-1zm15 0h1v1h-1zm12 0h1v1h-1zm2 0h1v1h-1zm1 0h1v1h-1zm7 0h1v1h-1zm-5 1h1v1h-1zm-1 2h1v1h-1zm3 2h1v1h-1zm5 0h1v1h-1zm0 1h1v1h-1zm0 4h1v1h-1zm-4 1h1v1h-1zm1 0h1v1h-1zm-2 2h1v1h-1zm0 1h1v1h-1zm3 3h1v1h-1zm1 0h1v1h-1zm0 1h1v1h-1zm-3 2h1v1h-1zm1 0h1v1h-1zm1 0h1v1h-1zm2 1h1v1h-1z" fill="#2eb454"/><g fill="#2db453"><path d="M64 2h1v1h-1zm6 0h1v1h-1zm-8 1h1v1h-1zm5 0h1v2h-1zm-6 1h1v1h-1zm2 0h2v1h-2z"/><path d="M65 4h5v1h-5zm5 0h1v1h-1zm1 0h1v1h-1zm1 0h1v1h-1zM61 5h1v1h-1zm1 0h1v2h-1zm1 0h2v1h-2zm2 0h3v1h-3zm3 0h1v1h-1zm4 0h1v1h-1zM60 6h1v1h-1z"/><path d="M61 6h2v1h-2zm2 0h1v2h-1zm3 0h3v1h-3zm3 0h1v1h-1zm-5 1h2v2h-2zm2 0h1v2h-1zm6 0h1v1h-1zm-9 1h1v4h-1zm4 0h1v2h-1zm3 0h2v2h-2zm2 0h1v1h-1zM41 9h1v1h-1zm1 0h1v1h-1zm4 0h1v1h-1zm1 0h4v1h-4zm4 0h1v1h-1zm3 0h1v1h-1zm7 0h1v1h-1z"/><path d="M62 9h6v1h-6zm6 0h1v1h-1zm4 0h1v1h-1zm-38 1h1v1h-1zm1 0h3v1h-3zm3 0h3v2h-3zm3 0h1v3h-1zm8 0h2v1h-2zm2 0h3v1h-3zm3 0h1v3h-1zm3 0h1v1h-1zm4 0h1v1h-1zm1 0h1v1h-1zm5 0h1v2h-1zm1 0h3v1h-3zm3 0h1v1h-1zm1 0h1v1h-1zm-30 1h1v2h-1zm1 0h2v1h-2zm2 0h2v1h-2zm2 0h2v3h-2zm2 0h2v1h-2zm2 0h2v1h-2z"/><path d="M53 11h3v1h-3zm3 0h1v2h-1zm5 0h1v1h-1zm8 0h1v1h-1zm1 0h1v1h-1zm1 0h1v1h-1zm-35 1h1v1h-1zm1 0h6v1h-6zm6 0h3v1h-3zm3 0h1v1h-1zm3 0h1v2h-1zm6 0h1v1h-1zm4 0h1v1h-1zm3 0h1v1h-1zm1 0h1v1h-1zm3 0h1v1h-1zm1 0h2v1h-2zm2 0h1v1h-1zm1 0h1v1h-1zm-32 1h1v1h-1zm1 0h1v1h-1zm2 0h1v1h-1zm1 0h2v1h-2zm2 0h1v1h-1zm9 0h1v1h-1zm1 0h2v2h-2zm2 0h2v1h-2zm2 0h1v2h-1zm2 0h1v1h-1zm3 0h1v1h-1zm2 0h1v1h-1zm1 0h1v1h-1zm2 0h1v1h-1zm1 0h1v1h-1zm1 0h1v1h-1zm-28 1h1v1h-1zm2 0h1v1h-1zm1 0h1v1h-1zm2 0h2v1h-2zm2 0h1v1h-1zm3 0h1v3h-1zm1 0h1v1h-1zm4 0h1v1h-1zm3 0h1v1h-1zm7 0h1v1h-1zm-19 1h1v1h-1zm1 0h1v1h-1zm1 0h1v1h-1zm4 0h1v1h-1zm1 0h1v3h-1zm3 0h2v1h-2zm2 0h1v2h-1zm1 0h1v1h-1zm-10 1h1v1h-1zm5 0h1v3h-1zm5 0h1v1h-1zm-12 1h1v1h-1zm1 0h3v1h-3zm7 0h1v2h-1zm1 0h2v1h-2zm2 0h1v1h-1zm-12 1h1v1h-1zm1 0h1v3h-1zm1 0h1v1h-1z"/><path d="M54 18h5v1h-5zm5 0h1v1h-1zm-12 1h1v1h-1zm1 0h1v2h-1zm3 0h2v3h-2zm2 0h1v2h-1zm3 0h1v3h-1zm1 0h1v1h-1zm2 0h1v1h-1z"/><path d="M47 20h2v1h-2zm8 0h1v1h-1zm4 0h1v1h-1zm-14 1h1v1h-1zm1 0h3v1h-3zm3 0h4v1h-4zm4 0h3v1h-3zm5 0h1v1h-1zm-14 1h1v1h-1zm6 0h2v1h-2zm2 0h1v1h-1zm4 0h1v1h-1zm1 0h1v1h-1zm-11 1h1v7h-1zm3 0h1v4h-1zm3 0h1v4h-1zm1 0h2v1h-2zm2 0h1v1h-1zm1 0h1v1h-1zm-14 1h1v1h-1zm1 0h1v1h-1zm4 0h2v1h-2z"/><path d="M51 24h3v1h-3zm3 0h1v1h-1zm1 0h1v1h-1zm-13 1h1v1h-1zm5 0h2v1h-2zm4 0h1v2h-1zm-11 1h1v1h-1zm3 0h4v1h-4zm4 0h2v1h-2zm-4 1h3v2h-3zm6 0h3v1h-3zm3 0h1v1h-1zm-13 1h1v1h-1zm3 0h1v1h-1zm5 0h1v4h-1zm3 0h1v4h-1zm3 0h1v1h-1z"/><path d="M42 29h7v1h-7zm7 0h1v5h-1zm-12 1h1v1h-1zm2 0h2v1h-2zm2 0h1v4h-1zm4 0h3v2h-3z"/><path d="M48 30h3v2h-3zm4 0h1v1h-1zm-16 1h1v1h-1zm3 0h1v2h-1zm1 0h1v3h-1zm12 0h1v3h-1zm-17 1h1v1h-1zm1 0h3v1h-3zm6 0h9v1h-9zm9 0h1v1h-1zm-23 1h1v1h-1zm3 0h1v1h-1zm1 0h1v1h-1z"/><path d="M34 33h7v1h-7zm12 0h1v3h-1zm7 0h1v1h-1zm-32 1h1v1h-1zm2 0h1v1h-1zm1 0h1v1h-1zm2 0h1v1h-1zm1 0h2v1h-2zm2 0h3v1h-3zm3 0h1v2h-1zm4 0h2v3h-2zm2 0h5v1h-5zm5 0h1v2h-1zm4 0h3v2h-3zm5 0h2v4h-2zm2 0h1v2h-1zm1 0h1v1h-1zm-35 1h3v2h-3zm3 0h2v1h-2zm2 0h1v2h-1z"/><path d="M30 35h3v1h-3zm3 0h1v1h-1zm6 0h1v1h-1zm5 0h2v1h-2zm11 0h1v3h-1zm-42 1h1v1h-1zm1 0h1v1h-1zm1 0h1v2h-1zm8 0h4v1h-4zm4 0h1v1h-1zm5 0h2v1h-2zm2 0h7v1h-7zm7 0h2v1h-2zm2 0h1v1h-1zm3 0h8v1h-8zm8 0h1v4h-1zm2 0h1v1h-1zm-43 1h1v1h-1zm1 0h1v1h-1zm6 0h3v1h-3zm3 0h2v1h-2zm2 0h1v2h-1zm5 0h1v1h-1zm4 0h3v1h-3zm3 0h1v2h-1zm3 0h2v1h-2zm2 0h1v1h-1zm1 0h1v1h-1zm4 0h2v1h-2zm2 0h4v1h-4zm-35 1h1v1h-1zm1 0h2v1h-2zm2 0h3v1h-3zm3 0h1v1h-1zm3 0h1v1h-1zm3 0h1v1h-1zm4 0h2v1h-2zm2 0h4v1h-4z"/><path d="M36 38h2v1h-2zm2 0h2v1h-2zm2 0h1v1h-1zm2 0h1v1h-1zm5 0h1v1h-1zm2 0h1v1h-1zm1 0h5v1h-5zm5 0h2v3h-2zm2 0h1v3h-1zm1 0h1v1h-1zm-41 1h1v1h-1zm4 0h1v1h-1zm3 0h1v1h-1zm1 0h4v1h-4zm4 0h4v1h-4zm4 0h1v1h-1zm4 0h1v1h-1zm1 0h1v1h-1zm1 0h1v1h-1zm1 0h1v1h-1zm7 0h1v1h-1zm2 0h1v1h-1zm1 0h1v1h-1zm3 0h1v3h-1zm6 0h1v1h-1zm-44 1h1v1h-1zm1 0h1v1h-1zm7 0h2v1h-2zm2 0h2v1h-2zm2 0h1v1h-1zm6 0h1v1h-1zm1 0h2v1h-2zm2 0h1v1h-1zm12 0h1v1h-1zm2 0h1v1h-1z"/><path d="M54 40h4v1h-4zm4 0h1v4h-1zm-8 1h1v1h-1zm2 0h1v1h-1zm3 0h2v3h-2zm2 0h1v2h-1zm3 0h1v1h-1zm-9 1h1v1h-1zm2 0h1v1h-1zm1 0h1v1h-1zm5 0h1v3h-1zm1 0h1v1h-1zm1 0h1v1h-1z"/><path d="M54 43h6v1h-6zm6 0h1v3h-1zm1 0h1v1h-1zm-8 1h1v1h-1zm1 0h1v1h-1zm1 0h1v1h-1zm1 0h3v1h-3zm5 0h1v1h-1zm-2 1h1v1h-1zm-4 1h1v1h-1zm1 0h1v2h-1zm1 0h1v4h-1zm3 0h1v2h-1zm1 1h1v1h-1z"/><path d="M56 48h2v1h-2zm2 0h2v2h-2zm2 0h1v1h-1zm1 0h1v1h-1zm-5 1h1v1h-1zm0 1h1v1h-1zm1 0h2v1h-2zm2 0h1v3h-1zm-3 1h1v1h-1zm4 0h1v5h-1zm1 0h1v2h-1z"/><path d="M57 52h3v1h-3zm2 1h1v1h-1zm2 0h1v2h-1zm-4 1h1v1h-1zm-1 1h1v1h-1zm5 0h1v3h-1zm-2 1h1v1h-1zm1 0h1v1h-1zm-3 1h1v1h-1zm1 0h1v2h-1zm-1 1h1v1h-1zm4 0h1v2h-1zm-4 1h1v1h-1zm1 0h2v1h-2zm2 0h1v2h-1zm1 1h1v1h-1zm-4 1h1v1h-1zm1 0h1v1h-1zm1 0h1v1h-1zm1 0h1v1h-1z"/></g><g fill="#2db353"><path d="M65 2h2v1h-2zm2 0h1v1h-1zm2 0h1v1h-1zm-5 1h1v1h-1zm1 0h1v1h-1zm3 0h1v1h-1zm-4 3h1v1h-1zm1 0h1v1h-1zm-4 1h2v1h-2zm6 0h1v1h-1zm1 0h2v1h-2zm2 0h1v1h-1zm-8 1h1v1h-1zm6 0h1v1h-1zM40 9h1v1h-1zm12 0h1v1h-1zm3 0h1v1h-1zm5 0h1v1h-1zm-5 1h1v1h-1zm1 0h1v1h-1zm8 0h2v2h-2zm2 0h1v1h-1zm-31 1h1v1h-1zm22 0h1v2h-1zm1 0h1v1h-1z"/><path d="M62 11h4v1h-4zm4 0h1v1h-1zm6 0h1v1h-1zm-22 1h3v1h-3zm3 0h1v1h-1zm11 0h1v1h-1zm1 0h1v1h-1zm6 0h1v1h-1zm-34 1h1v1h-1zm3 0h1v1h-1zm6 0h1v1h-1zm4 0h2v1h-2zm2 0h1v1h-1zm7 0h1v1h-1zm5 0h1v1h-1zm-21 1h1v1h-1zm13 0h1v1h-1zm3 0h1v3h-1zm7 0h1v1h-1zm-10 1h1v1h-1zm-3 1h1v2h-1z"/><path d="M58 16h2v1h-2zm-4 1h1v1h-1zm7 0h1v1h-1zm-8 1h1v1h-1zm7 0h1v1h-1zm-11 4h1v1h-1zm5 0h1v1h-1zm1 0h1v1h-1zm-11 1h1v1h-1zm7 0h1v1h-1zm-1 1h1v2h-1zm-7 1h1v1h-1zm1 0h1v2h-1zm10 0h1v1h-1zm-4 1h1v1h-1zm3 0h1v1h-1zm1 0h1v1h-1zm-14 1h1v1h-1zm1 0h1v2h-1zm7 0h1v1h-1zm5 0h1v1h-1zm-15 1h1v1h-1zm14 0h1v1h-1zm-13 1h2v1h-2zm2 0h1v1h-1zm10 0h1v2h-1zm-13 1h1v1h-1zm6 0h1v1h-1zm-1 1h3v1h-3zm8 0h1v1h-1zm-22 2h1v1h-1zm1 0h1v1h-1zm15 0h1v1h-1zm3 0h1v1h-1zm-26 1h1v1h-1zm3 0h1v1h-1zm8 0h2v1h-2zm2 0h1v1h-1zm-20 1h1v1h-1zm3 0h1v1h-1zm1 0h1v1h-1zm16 0h1v1h-1zm3 0h1v2h-1zm3 0h1v1h-1zm1 0h1v1h-1zm-26 1h2v1h-2zm2 0h4v1h-4zm39 0h1v1h-1zm-41 1h3v1h-3zm3 0h1v2h-1zm7 0h1v1h-1zm3 0h1v1h-1zm3 0h1v1h-1zm1 0h1v1h-1zm5 0h1v1h-1zm19 0h1v1h-1zm-33 1h1v1h-1zm3 0h1v1h-1zm14 0h1v1h-1zm5 0h1v1h-1zm2 0h1v1h-1zm-34 1h1v1h-1zm1 0h1v1h-1zm3 0h1v1h-1zm1 0h1v1h-1zm3 0h1v1h-1zm1 0h1v1h-1zm25 0h1v1h-1zm10 0h1v1h-1zm-37 1h1v1h-1zm17 0h1v1h-1zm22 0h1v1h-1zm-9 1h1v1h-1zm8 0h1v1h-1zm-7 1h1v1h-1zm5 3h1v1h-1zm1 0h1v2h-1zm1 1h1v2h-1zm-4 1h1v1h-1z"/><path d="M58 47h2v1h-2zm2 2h1v1h-1zm1 0h1v1h-1zm-1 1h1v1h-1zm-4 2h1v1h-1zm1 1h1v1h-1zm1 0h1v1h-1zm0 1h1v2h-1zm1 0h1v1h-1zm0 1h1v1h-1zm-2 1h1v1h-1zm1 0h1v1h-1zm1 2h1v1h-1z"/></g><path d="M70 3h1v1h-1zm-8 1h1v1h-1zm8 2h1v1h-1zm2 0h1v1h-1zM43 9h1v1h-1zm13 0h1v1h-1zm-8 1h1v1h-1zm10 2h1v1h-1zm-8 2h1v1h-1zm-3 1h1v1h-1zm3 1h1v1h-1zm4 0h1v1h-1zm1 3h1v1h-1zm-8 4h1v1h-1zm3 0h1v1h-1zm-5 2h1v1h-1zm2 2h1v1h-1zm2 1h1v1h-1zm3 1h1v1h-1zm1 3h1v1h-1zm-11 1h1v1h-1zm1 0h1v1h-1zm13 2h1v1h-1zm-12 1h1v1h-1zm-16 4h2v1h-2zm2 0h2v1h-2zm2 0h1v1h-1zm20 3h1v1h-1zm3 2h1v1h-1zm2 10h1v1h-1z" fill="#2eb453"/><g fill="#003f47"><path d="M85 11h1v1h-1zm19 0h1v1h-1zm16 0h1v1h-1zm20 0h1v1h-1zm1 0h1v1h-1zm21 0h1v1h-1zm1 0h2v1h-2zm2 0h1v1h-1zm6 0h1v1h-1zm16 0h2v1h-2zm2 0h1v1h-1zM87 12h1v2h-1zm11 0h1v2h-1zm1 0h1v2h-1zm6 0h1v3h-1zm2 0h1v1h-1zm16 0h1v3h-1zm10 0h1v3h-1zm1 0h2v1h-2zm2 0h3v1h-3zm3 0h1v1h-1zm13 0h1v1h-1zm22 0h1v1h-1zm28 0h1v1h-1zm1 0h2v1h-2zm2 0h1v2h-1zm-104 1h2v1h-2zm2 0h1v1h-1zm3 0h1v1h-1zm3 0h1v1h-1zm12 0h1v1h-1zm13 0h3v1h-3zm3 0h1v1h-1zm4 0h1v2h-1zm11 0h2v1h-2zm12 0h1v1h-1zm1 0h1v1h-1zm5 0h1v1h-1zm1 0h1v1h-1zm35 0h1v1h-1zm6 0h1v1h-1zm15 0h1v1h-1zm8 0h1v1h-1zm1 0h1v1h-1zM86 14h1v1h-1zm1 0h1v2h-1zm10 0h2v1h-2zm2 0h1v2h-1zm11 0h1v1h-1zm14 0h1v1h-1zm81 0h1v1h-1zm3 0h1v1h-1zm1 0h1v1h-1zM88 15h1v2h-1zm7 0h1v2h-1zm5 0h1v1h-1zm7 0h1v1h-1zm22 0h1v1h-1zm1 0h1v1h-1zm3 0h1v1h-1zm5 0h1v1h-1zm3 0h1v1h-1zm35 0h1v1h-1zm28 0h1v1h-1zm22 0h1v1h-1zm8 0h1v1h-1zm1 0h1v1h-1z"/><path d="M87 16h2v1h-2zm2 0h1v1h-1zm9 0h1v1h-1zm1 0h2v1h-2zm2 0h3v1h-3zm3 0h1v2h-1zm3 0h2v1h-2zm2 0h1v2h-1zm3 0h1v1h-1zm10 0h1v1h-1zm50 0h1v1h-1zm5 0h1v1h-1zm1 0h1v1h-1zm53 0h1v1h-1zm3 0h1v1h-1zm1 0h1v1h-1zM88 17h1v1h-1zm1 0h1v1h-1zm6 0h1v1h-1zm1 0h1v1h-1zm7 0h1v1h-1zm9 0h1v1h-1zm12 0h2v1h-2zm2 0h2v1h-2zm2 0h1v1h-1zm24 0h1v2h-1zm13 0h2v1h-2zm2 0h2v1h-2zm2 0h3v1h-3zm3 0h1v1h-1zm34 0h1v1h-1zm4 0h1v1h-1zm1 0h2v1h-2zm2 0h1v1h-1zm18 0h2v1h-2zm2 0h1v1h-1zm1 0h1v1h-1zM85 18h1v1h-1zm5 0h1v1h-1zm7 0h1v1h-1zm6 0h2v1h-2zm2 0h2v1h-2zm2 0h2v1h-2zm2 0h1v2h-1zm4 0h1v1h-1zm12 0h1v2h-1zm1 0h1v1h-1zm1 0h1v1h-1zm7 0h1v1h-1zm1 0h1v1h-1zm5 0h2v1h-2zm2 0h1v1h-1zm3 0h1v1h-1zm20 0h1v1h-1zm1 0h1v1h-1zm3 0h1v1h-1zm1 0h1v1h-1zm37 0h1v1h-1zm8 0h1v1h-1zm9 0h1v1h-1zM85 19h1v2h-1zm23 0h1v1h-1zm15 0h1v1h-1zm29 0h1v2h-1zm3 0h1v3h-1zm15 0h1v1h-1zm8 0h1v1h-1zm14 0h1v1h-1zm15 0h1v1h-1zm9 0h1v1h-1zM87 20h1v1h-1zm1 0h1v1h-1zm20 0h1v1h-1zm1 0h2v1h-2zm2 0h1v1h-1zm12 0h2v3h-2zm2 0h1v1h-1zm46 0h1v1h-1zm36 0h1v1h-1zm16 0h1v1h-1zm1 0h1v2h-1zm6 0h1v2h-1zm2 0h1v1h-1zM85 21h1v1h-1zm26 0h1v2h-1zm41 0h1v5h-1zm25 0h1v1h-1zm3 0h1v1h-1zm28 0h1v1h-1zm19 0h1v1h-1zm4 0h1v1h-1zm-54 1h1v1h-1zm40 0h1v1h-1zm7 0h1v2h-1zm6 0h1v1h-1zm1 0h1v1h-1zm-125 1h1v1h-1zm5 0h1v1h-1zm3 0h1v1h-1zm8 0h2v1h-2zm2 0h1v1h-1zm93 0h1v1h-1zm9 0h3v1h-3zm3 0h1v1h-1zm1 0h1v1h-1zM85 24h1v2h-1zm21 0h1v1h-1zm3 0h1v2h-1zm13 0h1v1h-1zm50 0h1v1h-1zm8 0h1v1h-1zm9 0h1v1h-1zm33 0h2v1h-2zm2 0h4v1h-4zm4 0h1v1h-1zM86 25h1v1h-1zm5 0h1v1h-1zm15 0h3v1h-3zm8 0h1v1h-1zm44 0h1v1h-1zm1 0h1v1h-1zm18 0h2v1h-2zm12 0h1v1h-1zm1 0h2v1h-2zm21 0h1v1h-1zm9 0h1v1h-1zM85 26h1v2h-1zm23 0h1v1h-1zm1 0h2v1h-2zm2 0h1v1h-1zm20 0h1v2h-1zm21 0h1v1h-1zm6 0h1v2h-1zm13 0h1v1h-1zm42 0h1v1h-1zm6 0h1v1h-1zm-114 1h1v1h-1zm3 0h1v1h-1zm5 0h1v1h-1zm7 0h1v2h-1zm21 0h2v1h-2zm2 0h1v2h-1zm27 0h1v1h-1zm42 0h1v1h-1zm1 0h2v1h-2zm2 0h1v1h-1zm12 0h1v1h-1zM85 28h2v1h-2zm2 0h1v4h-1zm6 0h2v1h-2zm2 0h1v1h-1zm7 0h1v3h-1zm1 0h1v1h-1zm18 0h2v1h-2zm2 0h1v2h-1zm8 0h1v1h-1zm23 0h4v1h-4zm4 0h1v1h-1zm2 0h1v1h-1zm5 0h1v1h-1zm1 0h1v1h-1zm1 0h1v1h-1zm25 0h1v2h-1zm32 0h1v1h-1zm-123 1h1v1h-1zm6 0h1v1h-1zm4 0h1v1h-1zm8 0h1v1h-1zm1 0h1v1h-1zm1 0h2v1h-2zm55 0h1v1h-1zm1 0h1v1h-1zm12 0h3v1h-3zm25 0h1v1h-1zm6 0h1v1h-1zm-113 1h1v2h-1zm1 0h1v1h-1zm11 0h1v2h-1zm3 0h1v1h-1zm1 0h1v1h-1zm9 0h1v1h-1zm8 0h2v1h-2zm2 0h2v1h-2zm3 0h1v1h-1zm11 0h1v1h-1zm12 0h1v1h-1zm1 0h1v1h-1zm23 0h1v2h-1z"/><path d="M85 31h3v1h-3zm3 0h1v2h-1zm14 0h1v1h-1zm7 0h1v1h-1zm1 0h1v1h-1zm30 0h1v1h-1zm1 0h2v1h-2zm2 0h1v1h-1zm14 0h1v1h-1zm1 0h2v1h-2zm2 0h1v1h-1zm27 0h2v1h-2zm2 0h2v1h-2zm32 0h1v1h-1zm1 0h1v1h-1zM85 32h2v1h-2zm2 0h1v1h-1zm6 0h2v1h-2zm2 0h1v1h-1zm6 0h1v2h-1zm6 0h1v1h-1zm12 0h1v1h-1zm14 0h1v1h-1zm24 0h1v2h-1zm3 0h1v1h-1zm1 0h2v1h-2zm2 0h1v2h-1zm11 0h1v1h-1zm1 0h1v1h-1zm2 0h1v1h-1zm8 0h1v1h-1zm7 0h1v1h-1zm23 0h1v1h-1zm-112 1h2v1h-2zm2 0h1v1h-1zm15 0h1v2h-1zm1 0h1v1h-1zm43 0h1v1h-1zm4 0h1v1h-1zm5 0h1v1h-1zm2 0h1v1h-1zm10 0h2v1h-2zm31 0h1v1h-1zm8 0h1v1h-1zM85 34h1v2h-1zm16 0h1v1h-1zm3 0h1v1h-1zm1 0h1v2h-1zm1 0h1v1h-1zm16 0h1v2h-1zm30 0h1v1h-1zm1 0h1v1h-1zm4 0h1v1h-1zm5 0h1v1h-1zm1 0h1v1h-1zm-77 1h2v1h-2zm2 0h2v1h-2zm2 0h1v1h-1zm16 0h1v1h-1zm14 0h2v1h-2zm31 0h1v1h-1zm1 0h1v1h-1zm1 0h1v1h-1zm13 0h2v1h-2zm2 0h1v1h-1zm19 0h1v1h-1zM85 36h2v1h-2zm2 0h1v1h-1zm11 0h1v1h-1zm7 0h1v1h-1zm1 0h1v1h-1zm45 0h1v1h-1zm3 0h2v1h-2zm2 0h2v1h-2zm35 0h1v1h-1zm25 0h1v1h-1zM99 37h1v1h-1zm1 0h1v1h-1zm1 0h1v2h-1zm22 0h2v1h-2zm2 0h1v1h-1zm34 0h1v1h-1zm57 0h1v2h-1zm4 0h1v1h-1zm-112 1h1v1h-1zm1 0h1v1h-1zm11 0h1v1h-1zm1 0h1v3h-1zm38 0h1v1h-1zm26 0h1v1h-1zm1 0h1v1h-1zm31 0h1v1h-1zM87 39h1v2h-1zm1 0h1v2h-1zm13 0h1v1h-1zm19 0h1v1h-1zm33 0h1v1h-1zm1 0h1v1h-1zm31 0h2v1h-2zm31 0h1v1h-1zm8 0h1v1h-1zm-101 1h1v1h-1zm101 0h1v2h-1zM87 41h1v1h-1zm1 0h1v1h-1zm13 0h1v1h-1zm3 0h2v1h-2zm2 0h1v1h-1zm15 0h1v1h-1zm11 0h2v1h-2zm2 0h2v1h-2zm2 0h1v1h-1zm6 0h1v1h-1zm1 0h1v1h-1zm62 0h2v1h-2zm2 0h1v1h-1zm10 0h1v1h-1zm1 0h1v1h-1zm-113 1h2v1h-2zm2 0h2v2h-2zm2 0h1v1h-1zm18 0h1v1h-1zm1 0h1v1h-1zm61 0h3v1h-3zm3 0h2v1h-2zm2 0h3v1h-3zm3 0h2v1h-2zm2 0h1v1h-1zm6 0h2v1h-2zm2 0h1v1h-1zm10 0h1v1h-1zm7 0h1v1h-1zM86 43h1v1h-1zm16 0h1v1h-1zm1 0h1v1h-1zm6 0h1v2h-1zm47 0h1v2h-1zm31 0h4v1h-4zm4 0h1v2h-1zm9 0h3v1h-3zm-97 1h1v1h-1zm4 0h1v1h-1zm1 0h1v1h-1zm12 0h1v1h-1zm19 0h1v1h-1z"/><path d="M154 44h3v1h-3zm32 0h3v1h-3zm3 0h2v1h-2zm11 0h1v1h-1zm1 0h1v1h-1zm-97 1h1v1h-1zm1 0h2v1h-2zm2 0h2v1h-2zm2 0h1v1h-1zm11 0h2v2h-2zm2 0h7v1h-7zm7 0h1v1h-1zm23 0h1v1h-1zm34 0h1v1h-1zm1 0h1v1h-1zm37 0h1v1h-1zM90 46h1v1h-1zm14 0h1v1h-1zm24 0h1v1h-1zm1 0h1v1h-1zm73 0h2v1h-2zm2 0h3v1h-3zm16 0h1v1h-1zm4 0h1v1h-1zM88 47h2v1h-2zm2 0h1v1h-1zm15 0h1v1h-1zm15 0h1v1h-1zm1 0h3v1h-3zm3 0h1v1h-1zm4 0h1v1h-1zm7 0h1v1h-1zm1 0h1v1h-1z"/></g><g fill="#004048"><path d="M86 11h2v1h-2zm2 0h3v1h-3zm3 0h9v1h-9zm9 0h3v1h-3zm3 0h1v1h-1zm16 0h1v1h-1zm2 0h5v1h-5zm5 0h8v1h-8zm8 0h3v1h-3zm3 0h2v1h-2zm2 0h1v1h-1zm3 0h2v1h-2zm2 0h1v1h-1zm7 0h1v1h-1zm1 0h3v1h-3zm3 0h6v1h-6zm6 0h1v1h-1zm5 0h2v1h-2zm2 0h2v1h-2zm2 0h1v1h-1zm15 0h1v1h-1zm1 0h1v1h-1zm4 0h2v1h-2zm2 0h1v1h-1zm10 0h1v1h-1zm1 0h2v1h-2zm2 0h5v1h-5zm5 0h1v1h-1zm1 0h1v1h-1zm18 0h4v1h-4zm4 0h4v1h-4zm4 0h1v1h-1zM85 12h1v5h-1zm1 0h1v1h-1zm3 0h6v1h-6zm6 0h2v2h-2zm2 0h1v1h-1zm3 0h4v1h-4zm4 0h1v3h-1zm2 0h1v1h-1zm13 0h1v3h-1zm1 0h1v4h-1zm1 0h1v1h-1zm3 0h4v1h-4zm4 0h4v1h-4zm4 0h1v5h-1zm8 0h1v4h-1zm1 0h2v1h-2zm2 0h1v3h-1zm2 0h1v3h-1zm6 0h1v5h-1zm3 0h1v3h-1zm1 0h3v2h-3zm3 0h3v2h-3zm3 0h6v1h-6zm6 0h4v1h-4zm4 0h1v1h-1zm1 0h1v1h-1zm13 0h1v2h-1zm1 0h3v2h-3zm3 0h3v1h-3zm3 0h1v1h-1zm14 0h4v1h-4zm4 0h1v2h-1zm1 0h1v1h-1zm1 0h1v1h-1zm16 0h1v1h-1zm1 0h7v1h-7zm7 0h1v1h-1zm1 0h1v1h-1z"/><path d="M86 13h11v1H86zm11 0h2v1h-2zm10 0h1v1h-1zm15 0h3v1h-3zm3 0h2v2h-2zm2 0h6v1h-6zm11 0h2v1h-2zm4 0h2v2h-2zm2 0h1v2h-1zm18 0h1v1h-1zm1 0h1v2h-1zm3 0h1v1h-1zm1 0h2v2h-2zm2 0h1v3h-1zm3 0h2v2h-2zm2 0h1v1h-1zm1 0h1v1h-1zm1 0h1v1h-1zm13 0h3v1h-3zm3 0h1v4h-1zm11 0h1v1h-1zm1 0h1v1h-1zm3 0h4v1h-4zm4 0h1v3h-1zm17 0h1v1h-1zm1 0h1v9h-1zm1 0h2v2h-2zm2 0h2v1h-2zm2 0h1v1h-1zM88 14h3v1h-3zm3 0h2v3h-2zm2 0h3v1h-3zm3 0h1v2h-1zm4 0h4v1h-4zm6 0h1v4h-1zm1 0h2v1h-2zm2 0h1v1h-1zm13 0h1v1h-1zm5 0h3v1h-3zm3 0h2v1h-2zm4 0h2v1h-2zm2 0h5v1h-5zm16 0h10v1h-10z"/><path d="M162 14h4v1h-4zm4 0h2v2h-2zm4 0h5v1h-5zm5 0h1v1h-1zm1 0h1v1h-1zm1 0h1v1h-1zm8 0h4v1h-4zm4 0h2v3h-2zm2 0h1v3h-1zm15 0h1v2h-1zm1 0h1v3h-1zm3 0h2v2h-2zm2 0h1v6h-1zm1 0h1v1h-1zm14 0h1v1h-1zm5 0h3v1h-3zm3 0h1v1h-1zm1 0h1v1h-1zM86 15h1v2h-1zm3 0h1v1h-1zm1 0h1v2h-1zm3 0h1v2h-1zm1 0h1v2h-1zm3 0h2v1h-2zm5 0h2v1h-2zm2 0h2v1h-2zm5 0h1v1h-1zm1 0h1v15h-1zm1 0h1v1h-1zm8 0h1v3h-1zm2 0h1v12h-1zm1 0h6v1h-6zm6 0h1v1h-1zm6 0h2v1h-2zm2 0h1v2h-1zm3 0h1v2h-1zm3 0h2v2h-2zm2 0h1v2h-1zm1 0h1v2h-1zm7 0h2v1h-2zm2 0h2v1h-2zm2 0h3v2h-3zm3 0h2v1h-2zm2 0h4v1h-4z"/><path d="M165 15h5v1h-5zm5 0h3v1h-3zm3 0h2v2h-2zm2 0h1v6h-1zm2 0h1v1h-1zm1 0h1v1h-1zm9 0h1v2h-1zm1 0h4v2h-4zm17 0h1v1h-1zm3 0h1v4h-1zm1 0h3v1h-3zm4 0h1v1h-1zm14 0h4v2h-4zm4 0h2v1h-2zm2 0h1v1h-1zM96 16h1v1h-1zm1 0h1v1h-1zm8 0h1v1h-1zm6 0h1v3h-1zm9 0h1v2h-1zm3 0h1v2h-1zm1 0h4v1h-4zm4 0h2v1h-2zm2 0h4v1h-4zm4 0h4v1h-4zm4 0h3v1h-3zm3 0h1v1h-1zm12 0h9v1h-9zm9 0h5v1h-5zm5 0h2v1h-2zm2 0h2v1h-2zm2 0h1v3h-1zm5 0h1v8h-1zm9 0h1v1h-1zm1 0h1v1h-1zm19 0h1v1h-1z"/><path d="M206 16h6v1h-6zm8 0h1v1h-1zm12 0h1v1h-1zm6 0h1v3h-1zm1 0h1v1h-1zM85 17h2v1h-2zm2 0h1v2h-1zm3 0h4v1h-4zm4 0h1v1h-1zm4 0h2v1h-2zm2 0h2v1h-2zm2 0h1v1h-1zm3 0h3v1h-3zm3 0h2v1h-2zm5 0h1v1h-1zm9 0h1v5h-1zm7 0h5v1h-5zm5 0h5v1h-5zm5 0h5v1h-5zm5 0h1v1h-1zm1 0h1v1h-1zm6 0h1v3h-1zm2 0h1v8h-1zm1 0h4v1h-4zm4 0h2v1h-2zm2 0h2v1h-2zm2 0h2v1h-2zm2 0h1v1h-1zm9 0h5v3h-5zm5 0h1v1h-1zm1 0h1v1h-1zm6 0h7v2h-7zm7 0h1v1h-1zm15 0h2v1h-2zm2 0h1v4h-1zm5 0h1v4h-1zm1 0h1v1h-1zm11 0h4v1h-4zm4 0h1v2h-1zM88 18h1v1h-1zm1 0h1v6h-1zm3 0h1v3h-1zm1 0h3v1h-3zm3 0h1v1h-1zm3 0h2v1h-2zm2 0h1v1h-1zm1 0h1v1h-1zm17 0h1v2h-1z"/><path d="M120 18h4v1h-4zm4 0h1v3h-1zm4 0h3v1h-3zm3 0h2v1h-2zm2 0h1v1h-1zm3 0h2v1h-2zm2 0h1v1h-1zm5 0h1v1h-1zm1 0h1v1h-1zm10 0h1v4h-1zm4 0h1v2h-1zm1 0h1v1h-1zm1 0h4v1h-4zm4 0h1v1h-1zm3 0h1v1h-1zm1 0h1v1h-1zm4 0h6v1h-6zm6 0h1v1h-1zm1 0h1v1h-1zm27 0h1v1h-1zm4 0h4v1h-4zm15 0h1v1h-1zm1 0h1v4h-1zm1 0h5v1h-5zm6 0h1v1h-1zM86 19h6v1h-6zm17 0h1v1h-1zm1 0h1v1h-1zm1 0h2v1h-2zm2 0h1v2h-1zm4 0h1v1h-1zm1 0h1v1h-1zm1 0h1v1h-1zm13 0h1v5h-1zm1 0h1v6h-1zm29 0h1v8h-1zm1 0h1v1h-1zm2 0h1v2h-1zm10 0h1v1h-1zm2 0h6v1h-6zm9 0h1v1h-1zm5 0h6v1h-6zm6 0h1v1h-1zm17 0h7v1h-7zm7 0h1v3h-1zm9 0h1v1h-1zm1 0h1v2h-1zm5 0h2v1h-2zm2 0h1v1h-1zm1 0h1v1h-1zM86 20h1v4h-1zm4 0h2v1h-2zm14 0h1v1h-1zm1 0h1v1h-1zm1 0h1v2h-1zm6 0h1v6h-1zm1 0h1v3h-1zm6 0h1v2h-1zm1 0h2v6h-2zm31 0h1v2h-1zm6 0h1v2h-1zm1 0h1v4h-1zm15 0h4v1h-4zm4 0h2v1h-2zm2 0h1v4h-1zm1 0h1v1h-1zm6 0h6v1h-6zm6 0h1v2h-1zm16 0h1v1h-1zm2 0h2v2h-2zm2 0h2v2h-2zm4 0h1v1h-1zm1 0h1v1h-1zm11 0h1v2h-1zm3 0h1v1h-1zM87 21h3v1h-3zm3 0h2v3h-2zm2 0h1v3h-1zm13 0h1v1h-1zm2 0h3v1h-3zm7 0h1v1h-1zm11 0h1v2h-1zm34 0h1v3h-1zm13 0h1v1h-1zm1 0h3v4h-3zm5 0h1v4h-1zm7 0h2v2h-2zm2 0h3v1h-3zm3 0h2v1h-2z"/><path d="M209 21h2v1h-2zm5 0h1v1h-1zm3 0h1v1h-1zm5 0h1v1h-1zm1 0h1v1h-1zm2 0h1v4h-1zm7 0h1v1h-1zM85 22h4v1h-4zm21 0h7v1h-7zm8 0h1v1h-1zm5 0h1v6h-1zm3 0h1v1h-1zm29 0h1v3h-1zm3 0h4v2h-4zm18 0h1v1h-1zm8 0h1v1h-1zm7 0h3v1h-3zm3 0h2v2h-2zm2 0h1v2h-1zm17 0h1v1h-1zm1 0h3v1h-3zm3 0h3v2h-3zm3 0h1v5h-1zm2 0h1v1h-1zm4 0h1v1h-1zm1 0h1v2h-1zm3 0h3v1h-3zm3 0h1v1h-1zM85 23h2v1h-2zm2 0h5v1h-5zm20 0h1v5h-1zm1 0h2v1h-2zm5 0h1v3h-1zm12 0h1v2h-1zm47 0h1v1h-1zm5 0h2v1h-2zm8 0h2v5h-2zm2 0h2v4h-2z"/><path d="M189 23h2v1h-2zm20 0h1v1h-1zm1 0h1v1h-1zm1 0h2v1h-2zm7 0h1v1h-1zm3 0h1v1h-1zm1 0h3v1h-3zM86 24h6v1h-6zm6 0h1v3h-1zm19 0h1v1h-1zm15 0h1v2h-1zm28 0h4v3h-4zm4 0h1v1h-1zm1 0h1v1h-1zm17 0h3v1h-3zm3 0h1v3h-1zm11 0h2v1h-2zm2 0h1v3h-1zm18 0h1v1h-1zm1 0h7v1h-7zm7 0h1v1h-1zm1 0h1v1h-1zm2 0h1v1h-1zm8 0h1v1h-1zM87 25h1v2h-1zm1 0h2v2h-2zm2 0h1v2h-1zm15 0h1v1h-1zm6 0h2v1h-2zm11 0h3v1h-3zm3 0h1v6h-1zm2 0h1v1h-1zm24 0h1v4h-1zm2 0h1v2h-1zm19 0h1v1h-1zm1 0h2v2h-2zm2 0h1v6h-1zm5 0h1v1h-1zm32 0h2v1h-2zm2 0h4v1h-4zm4 0h1v2h-1zm4 0h4v2h-4zm4 0h2v1h-2zm2 0h1v1h-1zm1 0h1v1h-1z"/><path d="M86 26h3v1h-3zm5 0h1v9h-1zm14 0h1v1h-1zm1 0h1v7h-1zm6 0h1v2h-1zm1 0h1v1h-1zm7 0h4v1h-4zm4 0h6v2h-6zm6 0h1v4h-1zm3 0h2v3h-2zm2 0h2v5h-2zm2 0h4v2h-4zm4 0h3v1h-3zm3 0h1v1h-1zm32 0h1v2h-1zm1 0h2v2h-2zm3 0h1v1h-1zm9 0h1v2h-1zm1 0h2v2h-2zm21 0h1v1h-1zm1 0h1v1h-1zm2 0h2v1h-2zm6 0h2v2h-2zm6 0h1v2h-1zm1 0h1v1h-1zm1 0h1v1h-1z"/><path d="M86 27h6v1h-6zm6 0h1v4h-1zm10 0h1v1h-1zm1 0h1v1h-1zm6 0h2v3h-2zm2 0h1v1h-1zm10 0h2v1h-2zm2 0h2v1h-2zm9 0h3v2h-3zm12 0h1v2h-1zm8 0h6v1h-6zm7 0h1v1h-1zm10 0h1v1h-1zm3 0h3v1h-3zm7 0h1v1h-1zm1 0h1v1h-1zm7 0h5v1h-5zm5 0h1v1h-1zm24 0h3v1h-3zm3 0h6v1h-6zm6 0h1v2h-1zM89 28h2v3h-2zm8 0h3v1h-3zm3 0h1v1h-1zm1 0h1v1h-1z"/><path d="M105 28h7v1h-7zm7 0h1v1h-1zm1 0h1v1h-1zm6 0h1v1h-1zm5 0h6v1h-6zm13 0h4v1h-4zm4 0h2v1h-2zm11 0h1v2h-1zm7 0h1v1h-1zm2 0h2v1h-2zm2 0h1v1h-1zm5 0h3v1h-3zm3 0h2v1h-2zm2 0h5v1h-5zm5 0h1v1h-1zm1 0h1v1h-1zm6 0h1v2h-1zm1 0h1v9h-1zm3 0h2v1h-2zm2 0h1v2h-1zm22 0h1v1h-1zm4 0h5v1h-5zm5 0h1v2h-1zm4 0h1v1h-1zm1 0h1v1h-1zM85 29h3v1h-3zm3 0h4v1h-4zm6 0h2v2h-2zm2 0h4v3h-4zm4 0h1v7h-1zm3 0h3v1h-3zm5 0h2v1h-2zm4 0h1v1h-1zm12 0h2v2h-2zm2 0h11v1h-11zm11 0h2v3h-2zm2 0h3v1h-3zm3 0h2v1h-2zm2 0h1v3h-1zm1 0h1v1h-1zm6 0h1v2h-1zm2 0h3v2h-3zm3 0h3v1h-3zm3 0h9v1h-9zm9 0h4v1h-4zm4 0h3v1h-3zm6 0h1v1h-1zm1 0h1v1h-1zm8 0h1v1h-1zm1 0h1v13h-1zm25 0h1v1h-1zm2 0h1v1h-1zm1 0h3v2h-3zm3 0h1v2h-1zm4 0h2v2h-2zm2 0h1v1h-1zm1 0h1v1h-1zM85 30h1v1h-1z"/><path d="M86 30h11v1H86zm15 0h2v1h-2zm2 0h3v2h-3zm6 0h1v1h-1zm1 0h1v1h-1zm1 0h1v1h-1zm1 0h1v1h-1zm8 0h1v1h-1zm1 0h1v2h-1zm5 0h2v1h-2zm2 0h3v2h-3zm3 0h1v2h-1zm3 0h2v2h-2zm5 0h1v1h-1zm13 0h2v2h-2zm5 0h2v1h-2zm2 0h2v1h-2zm2 0h4v1h-4zm4 0h2v1h-2zm2 0h1v1h-1zm3 0h1v4h-1zm1 0h2v3h-2zm2 0h4v1h-4zm4 0h1v1h-1zm1 0h1v1h-1zm7 0h4v1h-4zm4 0h2v1h-2zm2 0h1v5h-1zm23 0h1v1h-1zm6 0h4v1h-4zm5 0h1v1h-1zm1 0h1v1h-1zM89 31h3v2h-3zm3 0h9v1h-9zm9 0h1v1h-1zm7 0h1v1h-1zm3 0h1v1h-1z"/><path d="M120 31h7v1h-7zm7 0h2v1h-2zm5 0h7v1h-7zm7 0h1v1h-1zm12 0h1v3h-1zm3 0h2v2h-2zm2 0h1v4h-1zm5 0h5v1h-5zm5 0h2v3h-2zm2 0h2v1h-2zm5 0h3v1h-3zm3 0h1v1h-1zm1 0h1v1h-1zm38 0h1v1h-1zm1 0h4v1h-4zm4 0h1v3h-1zm3 0h1v4h-1zm1 0h1v1h-1zm1 0h1v1h-1zM96 32h4v2h-4zm7 0h3v1h-3zm5 0h1v1h-1zm1 0h1v1h-1zm1 0h1v1h-1zm11 0h3v1h-3zm3 0h2v2h-2zm2 0h5v1h-5zm5 0h1v1h-1zm3 0h1v1h-1zm1 0h3v1h-3zm3 0h6v1h-6zm6 0h1v1h-1zm1 0h1v1h-1zm7 0h2v1h-2zm6 0h1v1h-1zm1 0h1v2h-1zm6 0h1v2h-1zm3 0h5v1h-5zm5 0h1v1h-1zm3 0h1v1h-1zm11 0h2v2h-2zm2 0h2v3h-2zm27 0h2v1h-2zm2 0h1v2h-1zm3 0h2v3h-2zm3 0h1v1h-1zM85 33h2v1h-2z"/><path d="M87 33h10v1H87zm19 0h1v1h-1zm1 0h1v1h-1zm1 0h1v1h-1zm1 0h1v1h-1zm10 0h1v2h-1zm3 0h1v1h-1zm1 0h3v1h-3zm3 0h1v1h-1zm1 0h1v2h-1zm25 0h9v1h-9zm9 0h2v1h-2zm8 0h3v1h-3zm3 0h1v1h-1zm2 0h1v1h-1zm18 0h1v1h-1zm25 0h6v1h-6zM86 34h3v1h-3zm3 0h11v1H89zm13 0h1v7h-1zm1 0h1v8h-1zm18 0h1v2h-1zm3 0h2v2h-2zm2 0h1v4h-1zm25 0h1v1h-1zm3 0h2v1h-2zm5 0h1v1h-1zm1 0h1v1h-1zm4 0h3v1h-3zm3 0h3v1h-3zm3 0h1v1h-1zm1 0h1v1h-1zm1 0h1v1h-1zm1 0h1v1h-1zm12 0h7v1h-7zm7 0h1v7h-1zm24 0h1v1h-1zm1 0h1v2h-1zm1 0h5v1h-5zm6 0h1v4h-1zM91 35h1v3h-1zm1 0h1v5h-1zm1 0h2v1h-2zm2 0h2v1h-2zm2 0h1v1h-1zm1 0h1v1h-1zm1 0h3v1h-3zm5 0h1v5h-1zm3 0h1v1h-1zm12 0h1v2h-1z"/><path d="M123 35h2v1h-2zm4 0h1v2h-1zm31 0h1v4h-1zm2 0h2v1h-2zm2 0h2v1h-2zm2 0h1v1h-1zm5 0h1v1h-1zm16 0h1v2h-1zm4 0h2v6h-2zm2 0h1v1h-1zm25 0h1v1h-1zm5 0h2v3h-2zm2 0h1v2h-1zM88 36h2v2h-2zm2 0h1v1h-1zm9 0h1v1h-1zm1 0h4v1h-4zm7 0h1v1h-1zm13 0h1v1h-1zm1 0h5v1h-5zm31 0h1v3h-1zm1 0h1v2h-1zm6 0h1v1h-1zm28 0h1v2h-1zm30 0h1v1h-1zm1 0h2v2h-2zm2 0h1v1h-1zM85 37h2v1h-2z"/><path d="M87 37h5v1h-5zm18 0h2v3h-2zm2 0h1v4h-1zm1 0h1v1h-1zm11 0h1v2h-1zm1 0h2v1h-2zm2 0h1v2h-1zm5 0h1v3h-1zm27 0h4v1h-4zm31 0h5v1h-5zm38 0h1v2h-1zM85 38h4v1h-4zm4 0h3v3h-3zm11 0h1v1h-1zm23 0h3v1h-3zm3 0h1v6h-1zm25 0h1v4h-1zm2 0h2v1h-2zm2 0h3v1h-3zm32 0h5v3h-5zm31 0h1v2h-1zm1 0h3v4h-3zm3 0h1v2h-1zm2 0h1v1h-1zM85 39h1v6h-1zm15 0h1v1h-1zm9 0h1v1h-1zm10 0h1v6h-1zm3 0h1v3h-1zm1 0h2v1h-2zm2 0h1v2h-1zm27 0h1v4h-1zm4 0h2v1h-2zm2 0h1v8h-1zm1 0h1v4h-1z"/><path d="M217 39h3v1h-3zm6 0h1v2h-1zM86 40h1v2h-1zm6 0h1v2h-1zm9 0h1v1h-1zm3 0h5v1h-5zm5 0h1v1h-1zm1 0h1v1h-1zm10 0h1v3h-1zm4 0h2v1h-2zm3 0h1v1h-1zm26 0h2v2h-2zm2 0h2v2h-2zm2 0h1v1h-1zm28 0h7v1h-7zm31 0h1v3h-1zm1 0h5v1h-5zm5 0h1v2h-1zM89 41h2v3h-2zm2 0h1v2h-1zm11 0h1v1h-1zm5 0h2v1h-2zm2 0h1v1h-1zm1 0h1v1h-1zm14 0h5v1h-5zm5 0h2v1h-2zm2 0h1v6h-1zm6 0h4v2h-4zm4 0h1v6h-1zm3 0h1v2h-1zm1 0h1v3h-1zm12 0h1v2h-1zm28 0h12v1h-12zm12 0h3v1h-3zm3 0h4v1h-4zm4 0h1v2h-1zm4 0h1v2h-1zm15 0h1v2h-1zM86 42h3v1h-3zm6 0h1v2h-1zm11 0h1v1h-1zm1 0h1v2h-1zm6 0h1v5h-1zm1 0h1v1h-1zm10 0h3v1h-3zm3 0h2v1h-2z"/><path d="M129 42h3v1h-3zm3 0h8v1h-8zm10 0h2v3h-2zm9 0h1v5h-1zm2 0h3v1h-3zm3 0h2v1h-2zm30 0h2v1h-2zm2 0h1v1h-1zm12 0h3v1h-3zm3 0h1v3h-1zm15 0h4v1h-4zm4 0h1v5h-1zM87 43h4v1h-4zm4 0h1v2h-1zm14 0h2v1h-2zm6 0h1v1h-1zm1 0h1v1h-1zm8 0h1v1h-1zm1 0h3v1h-3zm3 0h2v1h-2z"/><path d="M130 43h14v1h-14zm14 0h1v4h-1zm8 0h1v1h-1zm1 0h1v4h-1zm4 0h1v4h-1zm2 0h1v2h-1zm26 0h1v4h-1zm1 0h1v1h-1zm6 0h1v2h-1zm1 0h3v2h-3zm3 0h3v2h-3zm3 0h1v1h-1zm5 0h3v2h-3zm3 0h1v2h-1zm1 0h1v4h-1zm8 0h1v4h-1zm1 0h1v4h-1zm1 0h3v1h-3zm3 0h2v1h-2zm2 0h1v4h-1zm1 0h1v1h-1zM87 44h3v2h-3zm3 0h2v1h-2zm2 0h1v3h-1zm12 0h2v1h-2zm2 0h1v1h-1zm5 0h1v3h-1zm1 0h1v1h-1zm9 0h1v2h-1zm1 0h2v1h-2zm2 0h5v1h-5zm5 0h5v1h-5zm5 0h3v1h-3zm3 0h1v3h-1zm3 0h3v2h-3zm5 0h1v3h-1zm54 0h1v1h-1zm3 0h1v1h-1zm17 0h1v3h-1zm1 0h2v1h-2zm4 0h1v1h-1zM85 45h1v2h-1z"/><path d="M86 45h2v2h-2zm4 0h1v1h-1zm1 0h1v2h-1zm22 0h1v1h-1zm6 0h1v2h-1zm11 0h3v2h-3zm3 0h3v1h-3zm3 0h3v1h-3zm3 0h5v1h-5zm15 0h1v2h-1zm1 0h3v2h-3zm4 0h1v2h-1zm29 0h2v1h-2zm2 0h8v1h-8zm8 0h3v1h-3zm3 0h6v1h-6zm6 0h1v2h-1zm11 0h2v2h-2zm2 0h3v1h-3zM88 46h1v1h-1zm1 0h1v1h-1zm16 0h7v1h-7zm8 0h1v1h-1zm10 0h2v1h-2zm2 0h2v1h-2zm2 0h1v1h-1zm6 0h2v1h-2zm2 0h3v1h-3zm3 0h4v1h-4zm4 0h2v1h-2zm10 0h1v1h-1zm34 0h1v1h-1zm1 0h1v1h-1zm3 0h1v1h-1zm1 0h2v1h-2zm2 0h3v1h-3zm3 0h2v1h-2zm2 0h3v1h-3zm3 0h1v1h-1zm20 0h2v1h-2zM85 47h2v1h-2zm2 0h1v1h-1zm4 0h1v1h-1zm1 0h1v1h-1zm14 0h5v1h-5zm5 0h2v1h-2zm2 0h1v1h-1zm1 0h1v1h-1zm5 0h1v1h-1zm6 0h1v1h-1zm4 0h5v1h-5zm5 0h1v1h-1zm3 0h2v1h-2zm2 0h2v1h-2zm2 0h3v1h-3zm3 0h1v1h-1zm1 0h1v1h-1zm6 0h1v1h-1zm2 0h5v1h-5zm5 0h1v1h-1zm1 0h1v1h-1zm26 0h2v1h-2zm2 0h6v1h-6zm6 0h2v1h-2zm2 0h4v1h-4zm4 0h4v1h-4zm4 0h2v1h-2zm2 0h2v1h-2zm2 0h1v1h-1zm1 0h1v1h-1zm8 0h1v1h-1zm1 0h2v1h-2zm2 0h4v1h-4zm4 0h1v1h-1zm1 0h1v1h-1z"/></g><path d="M145 11h1v1h-1zm-57 1h1v1h-1zm34 0h1v1h-1zm22 0h1v1h-1zm9 0h1v1h-1zm20 0h1v1h-1zm-73 1h1v1h-1zm8 0h1v1h-1zm53 0h1v1h-1zm76 0h1v1h-1zm-116 1h1v1h-1zm83 0h1v1h-1zm24 0h1v1h-1zm-127 1h1v1h-1zm7 0h1v1h-1zm23 0h1v1h-1zm6 0h1v1h-1zm48 0h1v1h-1zm1 0h1v1h-1zm-34 1h1v1h-1zm61 0h1v1h-1zM97 17h1v1h-1zm128 0h1v1h-1zM86 18h1v1h-1zm5 0h1v1h-1zm7 0h1v1h-1zm14 0h1v1h-1zm27 0h1v1h-1zm16 0h2v1h-2zm2 0h1v1h-1zm35 0h1v1h-1zm-72 1h1v1h-1zm59 0h1v1h-1zm48 0h1v1h-1zm1 0h1v1h-1zm-56 1h1v1h-1zm13 0h1v1h-1zm42 0h1v1h-1zm-11 1h1v1h-1zm-36 2h1v1h-1zm-72 1h1v1h-1zm6 0h1v1h-1zm9 0h2v1h-2zm107 0h1v1h-1zm-54 1h1v1h-1zm43 0h1v1h-1zm2 0h1v1h-1zm-117 1h1v1h-1zm28 0h1v1h-1zm13 0h1v2h-1zm14 0h1v1h-1zm13 0h1v1h-1zm45 0h1v1h-1zm-113 1h1v1h-1zm67 0h1v1h-1zm57 0h1v1h-1zM88 28h1v1h-1zm8 0h1v1h-1zm8 0h1v1h-1zm41 0h1v1h-1zm8 0h1v1h-1zm11 0h1v1h-1zm23 0h1v1h-1zm1 0h1v1h-1zm26 0h2v1h-2zm2 0h1v1h-1zm7 0h1v1h-1zM93 29h1v1h-1zm128 0h1v1h-1zm-88 1h1v1h-1zm82 0h1v1h-1zm-70 1h1v1h-1zm40 0h1v1h-1zm-93 1h1v1h-1zm10 0h1v1h-1zm18 0h1v1h-1zm12 0h1v1h-1zm32 0h1v1h-1zm55 0h1v1h-1zm-117 1h1v1h-1zm21 1h1v1h-1zm35 0h1v1h-1zm3 0h1v1h-1zm-7 1h1v1h-1zm1 0h2v1h-2zm2 0h1v1h-1zm2 0h1v1h-1zm6 0h1v1h-1zm53 0h2v1h-2zm2 0h1v1h-1zm-69 2h1v1h-1zm40 0h1v1h-1zm26 0h1v1h-1zM86 39h1v1h-1zm22 0h1v1h-1zm47 0h1v1h-1zm-32 2h1v1h-1zm-21 1h1v1h-1zm83 0h1v1h-1zm-58 1h2v1h-2zm2 0h1v1h-1zm25 0h1v1h-1zm1 0h1v1h-1zm-69 1h1v1h-1zm52 0h1v1h-1zm14 0h1v1h-1zm66 0h1v1h-1zm-115 1h1v1h-1zm9 0h1v2h-1zm10 1h1v1h-1zm66 0h1v1h-1zm1 0h1v1h-1zm-63 1h1v1h-1zm1 0h1v1h-1zm25 0h1v1h-1z" fill="#004047"/></svg>