<svg xmlns="http://www.w3.org/2000/svg" role="img" viewBox="-11.11 -10.61 551.72 551.22"><defs><style>.cls-1{fill:#36256c}</style></defs><path d="M265.154 530.277q-131.816 0-263.632.031c-1.242 0-1.522-.28-1.522-1.522Q.048 265.154 0 1.522C0 .28.279-.001 1.522 0q263.632.048 527.264 0c1.241 0 1.523.278 1.522 1.521q-.048 263.632 0 527.264c0 1.242-.277 1.524-1.521 1.523q-131.816-.05-263.633-.03zM128.97 458.584c.385.025.77.073 1.154.073q56.73 0 113.46-.009c.598-.384.358-.993.36-1.505q.024-12.71.007-25.42c0-.528.177-1.112-.3-1.557l-.4-.328c-.502-.521-1.147-.29-1.726-.291q-19.462-.02-38.925-.004c-.59 0-1.22-.174-1.765.23-.417-.48-.189-1.055-.189-1.577q-.022-55.561-.047-111.123c-.002-1.41.263-1.856 1.79-1.845 10.322.08 20.645.05 30.968.039 3.42-.004 6.838-.052 10.258-.08.632-.175.328-.694.329-1.04q.026-12.994.005-25.988c0-.477.153-1.01-.318-1.387-.493-.03-.986-.087-1.48-.087q-55.785-.005-111.57.003c-.547 0-1.093.079-1.64.121-.088.005-.226-.023-.255.02a.592.592 0 0 0-.059.311q-.006 13.812 0 27.625c0 .158-.089.504.313.345l.479.255c.438.03.877.084 1.315.084 13.025.004 26.05.028 39.075-.031 1.547-.007 1.95.47 1.948 1.97q-.057 55.136 0 110.271c.003 1.587-.518 1.909-1.978 1.904-12.914-.047-25.829-.028-38.744-.01-.573.001-1.224-.252-1.715.297l-.39.38c-.422.326-.309.797-.309 1.222q-.01 12.977.001 25.954c0 .411-.163.903.348 1.178zm225.013-358.008c10.066 1.599 17.134 8.763 18.498 18.749 1.228 8.993-3.876 18.069-12.436 22.076a22.403 22.403 0 0 1-9.624 1.921c-6.456.015-12.936-.406-19.363.336a48.515 48.515 0 0 0-28.157 12.899c-10.264 9.57-15.929 21.396-16.152 35.501-.264 16.672-.205 33.349-.331 50.023-.01 1.198.23 1.577 1.517 1.576q55.831-.058 111.662-.001c1.251.001 1.54-.313 1.532-1.542-.058-8.394-.083-16.788.017-25.181.02-1.657-.463-1.935-2.002-1.932-27.391.05-54.783.025-82.174.07-1.403.002-1.737-.385-1.722-1.744.07-6.516.035-13.033.033-19.55a21.41 21.41 0 0 1 19.775-21.687 1.476 1.476 0 0 0 1.088.28q8.998-.01 17.996-.03c.344-.001.8.176.973-.353 1.623-.246 3.256-.44 4.868-.745a50.17 50.17 0 0 0-7.866-99.529c-21.358-.318-42.726-.058-64.09-.09-1.063 0-1.383.25-1.378 1.353.047 8.722.023 17.444.036 26.166 0 .457-.22 1.018.37 1.326.562.54 1.262.292 1.894.292q31.791.023 63.582.016a2.73 2.73 0 0 0 1.454-.2zM243.567 191.36c.683-.345.358-.977.358-1.464q.03-32.041.002-64.082c0-.552.306-1.225-.344-1.665-.431-2.485-.782-4.987-1.306-7.453a57.415 57.415 0 0 0-55.67-45.048q-27.826-.005-55.653.002c-.661 0-1.322.047-1.983.071-.608.388-.343 1.002-.343 1.51q-.023 84.47-.002 168.943c0 .437-.298 1.009.315 1.325.547.042 1.094.12 1.641.121q27.913.01 55.826.015a47.088 47.088 0 0 0 9.546-.773q34.234-7.037 45.328-40.223c1.216-3.665 1.637-7.496 2.285-11.28zm105.826 95.497l.232-.347a.875.875 0 0 0-.284-.109q-5.315-.008-10.63.002c-.205 0-.452.05-.317.376a3.865 3.865 0 0 1-.775.233 50.012 50.012 0 0 0-12.68 2.83 57.396 57.396 0 0 0-38.489 54.63q-.052 28.168.008 56.336a57.536 57.536 0 0 0 .342 6.61 55.847 55.847 0 0 0 14.612 32.37c13.264 14.26 29.738 20.42 49.085 18.436a53.938 53.938 0 0 0 28.551-11.81c1.187-.948 1.676-.638 2.56.254 6.407 6.478 12.883 12.889 19.287 19.37.84.85 1.255.957 2.158.038q9.004-9.154 18.152-18.165c.883-.87.862-1.27-.004-2.126-7.613-7.538-15.156-15.146-22.768-22.685a2.149 2.149 0 0 1-.648-2.675 51.07 51.07 0 0 0 3.26-17.6q.043-29.16.051-58.322a52.695 52.695 0 0 0-.484-8.42c-2.942-18.273-12.277-32.256-28.198-41.758a57.242 57.242 0 0 0-23.021-7.468z" class="cls-1"/><path d="M315.277 341.657a28.66 28.66 0 0 1 56.878-2.111 20.537 20.537 0 0 1 .304 3.293q.028 26.908.013 53.821c-.61.16-.781-.373-1.059-.649-5.671-5.648-11.353-11.287-16.962-16.996-.894-.91-1.31-.85-2.166.018q-9.072 9.196-18.266 18.27c-.786.776-.713 1.136.024 1.868 8.264 8.21 16.467 16.478 24.752 24.666 1.091 1.078.861 1.437-.304 2.11a28.768 28.768 0 0 1-11.468 3.814c-2.271-.47-4.564-.142-6.847-.194a25.12 25.12 0 0 1-14.7-6.259 27.87 27.87 0 0 1-10.223-19.918c.453-.588.27-1.275.27-1.919q.015-29.108.005-58.215a2.462 2.462 0 0 0-.25-1.6zM189.33 100.515a28.601 28.601 0 0 1 24.944 22.123 30.649 30.649 0 0 1 .71 6.554q.023 28.572.003 57.144a28.626 28.626 0 0 1-24.553 28.382 27.463 27.463 0 0 1-3.96.306c-9.164.026-18.33-.023-27.494.052-1.469.012-1.266-.766-1.266-1.65q.006-22.194.003-44.39 0-33.126.003-66.253c0-.66.048-1.32.074-1.98q14.89-.015 29.782-.035c.59 0 1.22.179 1.755-.253z" class="cls-1"/></svg>