<svg xmlns="http://www.w3.org/2000/svg" role="img" viewBox="2.32 -3.18 763.36 605.36"><title>DATA AHEAD AG logo</title><path fill="#006767" d="M321.354 424.01H750.75v16.692c-1.8.12-3.555.339-5.31.339q-360.957.023-721.915.115c-4.831.002-6.169-1.315-6.125-6.135.233-25.495.148-50.993.097-76.49-.035-17.367 5.057-32.186 19.189-43.522 12.707-10.193 18.342-23.67 17.953-40.345-.648-27.815-.17-55.656-.19-83.486-.001-1.924-.194-3.848-.298-5.788-10.148.982-16.842 8.218-16.871 18.035-.075 25.33.008 50.66-.049 75.991-.023 10.28-9.163 22.516-19.436 25.858-.1-1.689-.274-3.27-.275-4.853-.015-34.995.197-69.993-.138-104.986-.1-10.457 3.837-18.43 12.413-23.47 14.192-8.34 28.624-16.358 43.393-23.622Q190.376 90.708 307.807 33.569c10.917-5.325 22.084-10.135 33.123-15.211 23.291-10.71 45.384-7.705 66.46 5.935 21.439 13.874 37.348 33.028 50.694 54.403 2.78 4.453 5.608 5.707 10.66 5.697 20.794-.042 41.633-.26 62.372.985 22.77 1.365 43.552 8.044 57.587 28.063 12.624 18.006 17.187 38.043 15.097 59.678a144.954 144.954 0 0 1-10.785 42.374c-5.453 13.014-9.018 26.813-14.345 39.888a127.779 127.779 0 0 1-13.195 24.505c-7.793 11.227-18.442 16.902-32.82 13.328-2.232-.555-5.993 1.19-7.687 3.086a117.516 117.516 0 0 0-10.53 14.514c-4.711 7.262-9.047 14.767-13.734 22.045a65.518 65.518 0 0 1-6.71 8.686c-8.972 9.813-17.278 10.312-26.328.486-6.158-6.687-11.03-14.567-16.388-21.98-2.828-3.911-5.322-8.068-8.214-11.93-6.252-8.346-11.246-10.365-20.69-5.93-10.024 4.708-19.978 10.096-28.801 16.732-22.358 16.814-38.328 39.23-51.859 63.37-6.502 11.601-12.022 23.755-17.94 35.683-.858 1.73-1.45 3.592-2.42 6.034zm-169.767.106h5.477c40.47 0 80.94-.095 121.408.12 5.063.027 6.082-1.738 6.066-6.301-.1-28.978.037-57.956.08-86.933.002-1.602-.142-3.204-.24-5.267-2.02.356-3.473.534-4.889.872-34.442 8.227-68.87 16.514-103.337 24.638-3.25.766-4.652 2.395-5.498 5.461-3.226 11.693-6.724 23.311-10.039 34.98-2.99 10.526-5.873 21.082-9.028 32.43zm-37.297-57.332a8.064 8.064 0 0 0-2.026-.224c-19.085 4.552-38.174 9.095-57.223 13.795a4.352 4.352 0 0 0-2.782 2.822c-1.324 13.368-2.418 26.759-3.603 40.506h70.106zM506.305 106.23c-13.977 4.124-21.761 12.37-25.493 24.69a30.063 30.063 0 0 0 9.94 32.295c9.937 7.88 29.164 10.317 38.299 4.78 3.986-2.416 6.487-5.803 5.693-10.732a11.186 11.186 0 0 0-7.973-9.328 40.223 40.223 0 0 0-4.848-1.124c-4.56-.924-9.182-1.606-13.68-2.77-8.11-2.096-11.291-6.007-10.58-14.389.411-4.845 2.22-9.628 3.825-14.294.951-2.766 2.728-5.249 4.817-9.128zM17.76 587.261c-.082-1.732-.24-3.514-.24-5.296-.016-29.96.127-59.92-.141-89.878-.048-5.26 1.64-6.4 6.51-6.285 12.976.308 25.964.027 38.946.131 14.045.113 26.668 12.78 26.71 26.731q.076 24.716-.006 49.433c-.05 11.815-12.346 25.327-24.084 25.655-15.3.428-30.62.09-45.932.056a7.678 7.678 0 0 1-1.763-.547zm16.677-50.607c0 9.986.148 19.977-.076 29.958-.085 3.777 1.204 4.917 4.885 4.796 7.316-.24 14.646-.009 21.969-.092a11.548 11.548 0 0 0 11.176-11.062q.144-23.218.002-46.438c-.034-5.77-5.424-11.135-11.132-11.213-7.489-.104-14.985.14-22.468-.098-3.656-.117-4.474 1.36-4.417 4.688.17 9.818.06 19.64.06 29.46zm151.039 51.23c-5.726 0-10.875.207-15.984-.147-1.268-.088-2.977-1.767-3.508-3.102-1.902-4.788-3.122-9.855-5.168-14.571-.726-1.674-3.038-3.714-4.683-3.765-10.82-.336-21.66-.311-32.483-.022a6.378 6.378 0 0 0-4.545 3.307c-2.132 4.862-3.424 10.093-5.548 14.96a6.437 6.437 0 0 1-4.487 3.2c-4.607.431-9.28.151-14.65.151.6-2.087.969-3.638 1.488-5.137q16.004-46.221 31.98-92.452c1.188-3.462 2.78-4.94 6.697-4.915 15.64.103 15.597-.03 20.69 14.73q14.166 41.053 28.414 82.077c.587 1.698 1.08 3.428 1.787 5.686zm-31.49-38.593l-13.389-39.54-1.328.114-13.407 39.426zm176.66 38.592c-5.757 0-10.897.176-16.008-.133-1.168-.07-2.771-1.597-3.256-2.818-1.9-4.786-3.59-9.671-5.044-14.612-.889-3.02-2.38-4.317-5.648-4.265-10.325.166-20.656.182-30.98-.007-3.47-.064-5.094 1.281-6.014 4.5-1.325 4.636-3.108 9.138-4.553 13.742-.792 2.521-1.988 3.85-4.943 3.677-4.63-.27-9.286-.072-14.652-.072.595-2.072.96-3.621 1.48-5.116 10.774-30.94 21.611-61.857 32.282-92.831 1.095-3.18 2.594-4.398 6-4.489 15.994-.422 15.914-.494 21.126 14.644q14.133 41.047 28.422 82.04c.586 1.693 1.07 3.422 1.788 5.74zm-44.784-78.031l-1.374.034-13.37 39.193h27.974l-13.23-39.227zm-81.912-7.011h-27.97c0-4.928-.25-9.553.202-14.109.096-.966 2.753-2.375 4.246-2.395 13.997-.183 27.998-.109 41.997-.109h26.387v16.504h-27.377v84.72h-17.484zm482.276 85.057v-5.47c0-30.156.101-60.313-.101-90.467-.033-4.868 1.024-6.768 6.304-6.587 11.982.411 23.99.028 35.982.238 11.656.204 22.633 11.26 22.714 22.89q.197 28.489-.003 56.98c-.083 11.387-11.296 22.378-22.552 22.407-13.818.037-27.636.009-42.344.009zm5.182-51.502c0 13.649.115 27.3-.075 40.946-.052 3.796.874 5.286 4.975 5.178 10.48-.275 20.971-.049 31.457-.105 8.335-.044 17.973-9.706 17.988-18.024q.05-27.464.003-54.929c-.01-8.651-9.531-18.332-18.24-18.419-10.32-.102-20.645.16-30.958-.114-4.317-.114-5.293 1.528-5.23 5.52.21 13.312.08 26.63.08 39.947zM493.656 486.54c3.737-1.086 5.54-.646 5.532 3.094q-.11 47.959-.085 95.918a10.372 10.372 0 0 1-.47 2.082h-4.978v-17.582q-.001-12.99.002-25.978c.004-2.262.102-4.318-3.215-4.302-16.793.079-33.587.036-51.06.036v47.759l-5.358.305V486.235h5.159v5.549c0 12.656.13 25.314-.078 37.966-.063 3.798 1.235 4.818 4.882 4.777q22.478-.253 44.96.003c3.822.046 4.82-1.353 4.771-4.958-.169-12.487-.063-24.977-.062-37.467v-5.566zm86.1 53.254c-14.979 0-29.794.186-44.599-.11-4.658-.093-5.965 1.32-5.822 5.878.319 10.157.348 20.339-.008 30.493-.172 4.9.984 6.67 6.273 6.51 13.32-.407 26.663-.064 39.994-.18 3.544-.032 5.637.713 4.306 5.156h-55.05V486.476h55.135l.3 5.203h-5.627c-13.5 0-27.001.124-40.498-.077-3.776-.056-4.865 1.177-4.797 4.862.203 11.162.185 22.333.01 33.497-.057 3.547 1.246 4.584 4.653 4.551 13.998-.134 27.999.007 41.998-.09 3.519-.024 5.103 1.082 3.732 5.372zm14.634 47.486c4.43-13.698 8.731-26.966 13.012-40.24 6.126-18.999 12.346-37.968 18.265-57.03 1.189-3.828 3.176-4.89 6.843-4.561 3.552.317 6.867-.504 8.455 4.587 9.656 30.96 19.709 61.796 29.617 92.677.492 1.533.87 3.102 1.289 4.613-4.4 1.748-5.87-.38-6.987-3.954q-13.468-43.103-27.204-86.123c-.723-2.27-.391-5.527-4.414-5.613-4.05-.088-3.831 3.115-4.563 5.421q-13.808 43.52-27.41 87.103c-1.098 3.532-2.916 4.387-6.902 3.12zm-253.765-.105c3.458-10.846 6.9-21.735 10.403-32.604 6.889-21.374 13.9-42.71 20.635-64.132 1.125-3.578 2.578-5.385 6.531-5.004 3.653.352 7.11-.794 8.813 4.65 9.832 31.416 20.142 62.681 30.277 94.002.346 1.068.547 2.183.816 3.277-3.96 1.443-5.808.182-7.019-3.725-9.005-29.066-18.209-58.07-27.38-87.084-.714-2.258-.772-4.959-4.454-4.942-3.744.016-3.654 2.9-4.343 5.062Q361.051 540.17 347.4 583.73c-1.097 3.513-2.56 5.258-6.775 3.445z"/></svg>