<svg xmlns="http://www.w3.org/2000/svg" role="img" viewBox="2.32 -3.18 763.36 605.36"><title>DATA AHEAD AG (member) logo</title><path fill="#006767" d="M321.3537 424.00967H750.75v16.692c-1.80048.11993-3.555.33914-5.30945.33923q-360.95765.02261-721.91527.115c-4.83157.00232-6.16917-1.31473-6.12521-6.13477.23252-25.49487.14819-50.9931.09677-76.49-.035-17.36715 5.05715-32.18661 19.1891-43.52237 12.70669-10.19247 18.34227-23.6694 17.95344-40.34518-.64857-27.815-.17086-55.656-.19041-83.48608-.00135-1.92366-.19389-3.84719-.29845-5.788-10.14719.98272-16.84164 8.2185-16.87052 18.0355-.0746 25.33014.00844 50.66074-.04853 75.991-.02313 10.28-9.16351 22.51587-19.436 25.85757-.09982-1.68844-.27426-3.27023-.275-4.85208-.01537-34.99588.19652-69.99377-.1385-104.98645-.10012-10.45741 3.83674-18.43023 12.41263-23.47007 14.19289-8.34082 28.62467-16.35833 43.39355-23.622Q190.37551 90.70783 307.807 33.56938c10.91668-5.32559 22.08438-10.1358 33.12344-15.21168C364.221 7.6484 386.31418 10.6529 407.39 24.29253c21.4388 13.87447 37.34767 33.02878 50.69429 54.40388 2.78021 4.4526 5.60754 5.70619 10.65988 5.6962 20.79407-.04114 41.63333-.25878 62.37216.98509 22.77033 1.3657 43.55139 8.04429 57.58643 28.06286 12.62421 18.0063 17.18689 38.04308 15.09692 59.67861a144.9537 144.9537 0 0 1-10.78468 42.37358c-5.453 13.0141-9.01818 26.81358-14.34472 39.88832A127.77857 127.77857 0 0 1 565.475 279.886c-7.79285 11.2273-18.4422 16.90225-32.81916 13.32846-2.23309-.55505-5.99426 1.18936-7.68811 3.08576a117.516 117.516 0 0 0-10.529 14.51413c-4.71185 7.26153-9.04761 14.76663-13.73468 22.045a65.51756 65.51756 0 0 1-6.71051 8.68555c-8.9714 9.81317-17.27795 10.31247-26.3276.486-6.15833-6.68692-11.03058-14.56735-16.388-21.9791-2.82782-3.91223-5.322-8.06927-8.21421-11.93045-6.25152-8.34591-11.2453-10.36544-20.68908-5.93023-10.025 4.70819-19.97889 10.09576-28.8021 16.73138-22.35711 16.81406-38.328 39.23059-51.85809 63.37012-6.50281 11.60184-12.02286 23.75567-17.94052 35.683-.85826 1.73003-1.45036 3.59212-2.42024 6.03405zm-169.76685.10675h5.4767c40.46973 0 80.94-.09494 121.40853.12009 5.0632.02688 6.08209-1.73871 6.06619-6.30173-.10089-28.9773.03665-57.95541.07919-86.93326.00238-1.60174-.1416-3.20367-.23929-5.26642-2.01986.35575-3.47332.5343-4.88873.87238-34.44275 8.22613-68.87114 16.51309-103.33777 24.63785-3.24949.766-4.65213 2.39422-5.49806 5.46066-3.2258 11.69333-6.72327 23.31134-10.03812 34.98056-2.98994 10.52545-5.87381 21.08115-9.02864 32.42987zm-37.29707-57.33249a8.0641 8.0641 0 0 0-2.02539-.22366c-19.08578 4.55185-38.17392 9.095-57.22334 13.795a4.35188 4.35188 0 0 0-2.7821 2.82215c-1.32366 13.36788-2.41837 26.75842-3.60261 40.506h70.10582zM506.30542 106.23c-13.97705 4.12388-21.76151 12.36912-25.49323 24.69009a30.06255 30.06255 0 0 0 9.93915 32.2948c9.93756 7.88 29.16461 10.31751 38.29956 4.78035 3.98615-2.41621 6.48743-5.80319 5.69306-10.73244a11.18622 11.18622 0 0 0-7.97278-9.328 40.22274 40.22274 0 0 0-4.84815-1.12414c-4.56073-.92342-9.18219-1.6059-13.68-2.76874-8.11-2.09667-11.29132-6.00774-10.57995-14.38979.41113-4.84509 2.22027-9.62857 3.8247-14.29382.95137-2.76631 2.72835-5.24889 4.81764-9.12831zM17.76035 587.2611c-.08228-1.73223-.23981-3.51422-.24072-5.29638-.01514-29.95948.1277-59.92017-.14106-89.87723-.04718-5.25971 1.64055-6.40076 6.51125-6.28534 12.9752.30743 25.96308.02664 38.9447.131 14.04514.11286 26.66894 12.78024 26.71127 26.731q.075 24.71631-.00681 49.433c-.05017 11.8147-12.34639 25.32679-24.08351 25.65491-15.29967.42767-30.62088.08917-45.93277.05591a7.67831 7.67831 0 0 1-1.76235-.54687zm16.67629-50.60748c0 9.98682.14789 19.977-.07575 29.9588-.08462 3.77674 1.204 4.917 4.88525 4.796 7.3158-.24041 14.64576-.00909 21.96851-.09228a11.548 11.548 0 0 0 11.17639-11.062q.14367-23.21852.002-46.43836c-.03409-5.76953-5.4237-11.1344-11.132-11.21319-7.48871-.10328-14.98522.1408-22.46777-.09754-3.65641-.11658-4.47441 1.36078-4.41715 4.68842.16894 9.81745.06036 19.63978.06052 29.46015zm151.03963 51.23004c-5.72613 0-10.87481.20722-15.98466-.14654-1.26767-.08777-2.9767-1.76709-3.5072-3.10248-1.90191-4.78742-3.12284-9.85486-5.168-14.57074-.726-1.67413-3.03888-3.71423-4.68384-3.76514-10.82039-.33557-21.6599-.311-32.483-.02185a6.37819 6.37819 0 0 0-4.54483 3.307c-2.13193 4.86243-3.42383 10.09277-5.54782 14.95941a6.43721 6.43721 0 0 1-4.48734 3.20062c-4.60687.43116-9.2803.15107-14.64957.15107.59984-2.08735.96858-3.63813 1.48751-5.13678q16.004-46.2216 31.98076-92.45237c1.18779-3.4617 2.78067-4.94021 6.69664-4.91443 15.63977.10291 15.5971-.03088 20.69043 14.73014q14.16527 41.05233 28.41349 82.07617c.5876 1.69801 1.08075 3.42872 1.78743 5.68592zm-31.49063-38.59283c-4.65623-13.75128-9.02241-26.64588-13.38859-39.54053l-1.32808.115c-4.402 12.945-8.804 25.88989-13.40688 39.42548zM330.646 587.88311c-5.75748 0-10.89713.17566-16.0076-.13269-1.16861-.07055-2.77143-1.59753-3.25632-2.81872-1.90012-4.78559-3.58957-9.6709-5.04379-14.61139-.88913-3.02057-2.38059-4.31745-5.6481-4.26508-10.3248.16559-20.65616.182-30.98014-.00763-3.46924-.06372-5.09445 1.2818-6.01443 4.50074-1.3248 4.63555-3.10782 9.13812-4.553 13.74212-.79126 2.52069-1.98785 3.84918-4.94241 3.67658-4.62958-.27033-9.28653-.07166-14.65235-.07166.59482-2.07269.95954-3.62164 1.48-5.11627 10.77368-30.93951 21.61161-61.85675 32.2825-92.8316 1.095-3.17859 2.5936-4.398 5.99949-4.48807 15.99459-.42291 15.91378-.49484 21.12591 14.64322q14.13286 41.04693 28.42227 82.04c.58637 1.69291 1.06903 3.42185 1.78797 5.74045zm-44.78391-78.03131l-1.37378.03461c-4.422 12.96142-8.844 25.92285-13.37121 39.19293h27.97528c-4.55872-13.51648-8.8945-26.37201-13.23029-39.22754zm-81.91131-7.01062h-27.97056c0-4.92792-.251-9.55353.20185-14.10913.096-.96564 2.75322-2.37515 4.24594-2.39471 13.99722-.18363 27.99785-.10923 41.99748-.10935 8.64823-.00009 17.29646 0 26.38646 0v16.50415h-27.37688v84.72064h-17.48429zm482.27499 85.05676c0-2.216-.00006-3.84307 0-5.47021.00037-30.15582.10156-60.31232-.10089-90.46677-.03266-4.86822 1.02429-6.76815 6.30414-6.587 11.98223.41107 23.98925.02847 35.9815.238 11.65613.20367 22.63349 11.26013 22.714 22.89068q.19739 28.48837-.00238 56.979c-.08355 11.3869-11.29626 22.37811-22.55212 22.40765-13.81788.03636-27.63594.00865-42.34425.00865zm5.18219-51.50231c0 13.6491.11517 27.2998-.07446 40.94628-.05274 3.79578.8731 5.28638 4.97479 5.17853 10.47931-.27527 20.97088-.04931 31.45709-.10516 8.33435-.04443 17.97217-9.70636 17.98731-18.02387q.04989-27.46462.00323-54.92938c-.0108-8.65137-9.53137-18.33243-18.24029-18.41855-10.319-.10208-20.64478.15882-30.95765-.11425-4.31671-.11426-5.2929 1.52752-5.2301 5.519.20947 13.31294.07935 26.63117.08012 39.9474zm-197.75238-49.85651c3.73724-1.08536 5.54071-.6449 5.53223 3.095q-.10932 47.95853-.085 95.91742a10.37238 10.37238 0 0 1-.46923 2.08228h-4.97834c0-6.0022.00061-11.79224-.00006-17.58228q-.00145-12.98895.0022-25.97784c.00384-2.26215.10175-4.31775-3.21555-4.30213-16.79327.079-33.58718.03632-51.05963.03632v47.75891c-2.09494.11932-3.52685.20093-5.35794.30524V486.23547h5.15824c0 1.99069-.00007 3.7695 0 5.54831.00042 12.65585.131 25.31387-.07795 37.96634-.06274 3.79791 1.235 4.81775 4.88208 4.77673q22.478-.253 44.96.00336c3.82282.04614 4.82059-1.35358 4.77176-4.95783-.16928-12.48706-.06378-24.97778-.06286-37.46716.00017-1.80341.00005-3.60678.00005-5.5661zm86.10004 53.25452c-14.97852 0-29.79334.18621-44.59845-.10944-4.65839-.093-5.9654 1.32019-5.82233 5.87811.31885 10.15637.3479 20.33844-.00794 30.49231-.17169 4.89972.98365 6.67114 6.27314 6.50989 13.32055-.40625 26.66247-.0636 39.99438-.18042 3.5434-.031 5.63629.71423 4.30536 5.15649h-55.04932V486.47564h55.13416c.08972 1.556.17139 2.97257.30005 5.20368-2.122 0-3.87427-.00006-5.62647 0-13.49963.00052-27.00116.12368-40.4978-.07727-3.776-.05625-4.865 1.17706-4.79785 4.86175.20361 11.16266.18579 22.33313.00964 33.49671-.056 3.54773 1.24671 4.584 4.65363 4.55151 13.99835-.13367 27.99908.00671 41.998-.08966 3.51918-.02423 5.10289 1.08124 3.7318 5.37128zm14.63507 47.48626c4.42981-13.69745 8.73077-26.96576 13.01153-40.24054 6.12628-18.998 12.34552-37.9674 18.26477-57.02975 1.1886-3.82779 3.17554-4.88886 6.84271-4.561 3.55182.31748 6.86707-.50375 8.455 4.58741 9.65637 30.95974 19.70892 61.79592 29.61713 92.67727.4917 1.53253.86957 3.10156 1.289 4.61267-4.39984 1.74829-5.87024-.38061-6.98657-3.95349q-13.46778-43.10376-27.20386-86.12335c-.72369-2.26935-.39172-5.52682-4.41461-5.61359-4.0503-.08731-3.83075 3.11554-4.56256 5.42194q-13.808 43.51894-27.41016 87.10266c-1.09788 3.53231-2.91569 4.3868-6.90238 3.11977zm-253.76569-.10443c3.45834-10.84619 6.89944-21.73523 10.40262-32.60431 6.889-21.37414 13.8999-42.70965 20.63568-64.13183 1.125-3.57807 2.57782-5.38514 6.53088-5.00418 3.65283.352 7.109-.79371 8.81278 4.64993 9.83239 31.41546 20.14239 62.68133 30.277 94.00232.34555 1.06781.547 2.18225.816 3.27667-3.95993 1.44293-5.80845.182-7.019-3.725-9.00543-29.06561-18.20846-58.07006-27.37976-87.08416-.7138-2.25812-.77234-4.9585-4.4541-4.94239-3.74444.01633-3.65426 2.90125-4.34268 5.06275q-13.85329 43.49505-27.50433 87.05432c-1.09687 3.51357-2.55964 5.25802-6.77509 3.44588z"/></svg>