<svg xmlns="http://www.w3.org/2000/svg" role="img" viewBox="-27.06 -26.06 1407.12 227.12"><title>Dell Technologies logo</title><defs><clipPath id="a" clipPathUnits="userSpaceOnUse"><path d="M0 132h1017V0H0z"/></clipPath></defs><g clip-path="url(#a)" transform="matrix(1.33333 0 0 -1.33333 0 176)"><path fill="gray" d="M395.568 119.116v4.077l-1.357 1.357h-70.648l-1.363-1.357v-4.077l1.363-1.357h29.887l1.356-1.357V30.808l1.364-1.358h5.434l1.358 1.358v85.594l1.356 1.357h29.893zm36.607-51.625H391.42l-1.357 1.358c0 9.512 5.434 23.095 21.732 23.095 16.308 0 21.743-13.583 21.743-23.095zm8.155-6.797l1.363 1.363v4.072c0 19.023-10.875 32.612-29.898 32.612-19.012 0-29.887-13.589-29.887-32.612v-2.715c0-19.017 9.512-35.32 31.25-35.32 19.017 0 25.808 12.226 27.172 20.38l-1.364 1.357h-5.428l-1.363-1.357c-2.714-8.154-8.149-13.589-19.017-13.589-17.661 0-23.095 16.303-23.095 24.452l1.357 1.357zm14.946 2.72c0 19.024 9.506 28.53 23.095 28.53 13.583 0 19.017-8.149 20.375-16.298l1.356-1.363h5.441l1.357 1.363c-1.357 13.583-12.231 23.095-28.529 23.095-17.66 0-31.243-10.875-31.243-35.327 0-24.452 13.583-35.32 31.243-35.32 16.298 0 27.172 9.511 28.529 23.094l-1.357 1.357h-5.441l-1.356-1.357c-1.358-8.148-6.792-16.303-20.375-16.303-13.589 0-23.095 9.512-23.095 28.529m116.831-32.606v40.761c0 17.66-9.512 27.172-24.451 27.172-9.513 0-17.661-4.083-21.738-10.875h-1.358v35.327l-1.356 1.357h-5.435l-1.363-1.357V30.808l1.363-1.358h5.435l1.356 1.358v36.683c0 14.947 6.798 24.453 21.738 24.453 10.87 0 17.661-6.792 17.661-20.375V30.808l1.357-1.358h5.44zm69.291 0v40.761c0 17.66-9.506 27.172-24.452 27.172-9.512 0-17.666-4.083-21.738-10.875h-1.363l-1.351 8.161-1.364 1.357h-4.077l-1.357-1.357V30.808l1.357-1.358h5.441l1.351 1.358v36.683c0 14.947 6.797 24.453 21.738 24.453 10.869 0 17.661-6.792 17.661-20.375V30.808l1.362-1.358h5.435zm39.399-2.714c17.66 0 31.249 12.226 31.249 35.32 0 23.095-13.589 35.327-31.249 35.327-17.662 0-31.25-12.232-31.25-35.327 0-23.094 13.588-35.32 31.25-35.32m0 63.85c13.583 0 23.094-10.869 23.094-28.53 0-17.66-9.511-28.529-23.094-28.529-13.59 0-23.102 10.869-23.102 28.529 0 17.661 9.512 28.53 23.102 28.53M729.7 30.808v92.385l-1.357 1.357h-5.434l-1.363-1.357V30.808l1.363-1.358h5.434zm40.762-2.714c17.66 0 31.243 12.226 31.243 35.32 0 23.095-13.583 35.327-31.243 35.327-17.667 0-31.25-12.232-31.25-35.327 0-23.094 13.583-35.32 31.25-35.32m0 63.85c13.583 0 23.088-10.869 23.088-28.53 0-17.66-9.505-28.529-23.088-28.529-13.589 0-23.101 10.869-23.101 28.529 0 17.661 9.512 28.53 23.101 28.53m88.301-52.982c0-17.66-4.077-31.249-20.38-31.249-12.226 0-16.303 5.434-17.661 12.226l-1.356 1.363h-5.435l-1.357-1.363C813.931 9.07 822.08.921 838.383.921c17.666 0 28.53 10.869 28.53 38.041v57.065l-1.358 1.357h-4.077l-1.357-1.357-1.358-8.161h-1.362c-2.715 5.435-9.506 10.875-21.738 10.875-19.018 0-28.53-14.946-28.53-35.327 0-20.374 9.512-35.32 28.53-35.32 12.232 0 19.023 5.428 21.738 10.868zm-21.731-4.077c-13.589 0-21.744 9.512-21.744 28.529 0 19.024 8.155 28.53 21.744 28.53 13.577 0 21.731-9.506 21.731-28.53 0-19.017-8.154-28.529-21.731-28.529m51.618 74.725v8.149l-1.357 1.357h-5.435l-1.356-1.357v-8.149l1.356-1.363h5.435zm0-78.802v65.219l-1.357 1.357h-5.435l-1.356-1.357V30.808l1.356-1.358h5.435zm59.779 36.683h-40.756l-1.363 1.358c0 9.512 5.435 23.095 21.738 23.095s21.738-13.583 21.738-23.095zm8.155-6.797l1.351 1.363v4.072c0 19.023-10.869 32.612-29.887 32.612-19.017 0-29.886-13.589-29.886-32.612v-2.715c0-19.017 9.511-35.32 31.25-35.32 19.017 0 25.808 12.226 27.172 20.38l-1.364 1.357h-5.434l-1.357-1.357c-2.72-8.154-8.155-13.589-19.017-13.589-17.667 0-23.102 16.303-23.102 24.452l1.363 1.357zM1015 47.111c0 12.226-6.798 17.661-20.387 20.38-13.583 2.715-21.733 4.078-21.733 13.584 0 6.791 5.435 10.869 14.947 10.869 12.226 0 16.303-5.435 16.303-12.226l1.358-1.357h5.434l1.363 1.357c0 13.583-10.875 19.023-24.458 19.023-14.947 0-23.095-8.154-23.095-17.666 0-10.869 8.148-16.303 21.732-19.018 13.589-2.72 20.38-4.077 20.38-14.946 0-6.791-4.071-12.226-17.66-12.226-12.225 0-17.66 6.797-17.66 14.946l-1.357 1.357h-5.435l-1.357-1.357c0-12.226 9.505-21.737 25.809-21.737 17.66 0 25.816 8.148 25.816 19.017"/><path fill="#0076ce" d="M21.6 48.35v57.3h16.95c14.332 0 25.95-12.827 25.95-28.65 0-15.823-11.618-28.65-25.95-28.65zm16.95-18.9c22.128 0 40.725 15.115 46.031 35.584L138.383 23l53.767 42.008V29.45h61.35v18.9h-39.75v76.2h-21.6V88.992l-51.574-40.295-11.535 9.012L153.732 77l26.884 21.004-15.349 11.992-51.575-40.295-11.535 9.012 51.575 40.295L138.383 131 84.581 88.966c-5.306 20.468-23.903 35.584-46.031 35.584H0v-95.1zm283.65 18.9v-18.9h-61.35v95.1h21.6v-76.2z"/></g></svg>