<svg xmlns="http://www.w3.org/2000/svg" role="img" viewBox="-8.59 -7.34 446.68 262.93"><title>Dell Technologies logo</title><defs><clipPath id="a" clipPathUnits="userSpaceOnUse"><path d="M0 187h323V0H0z"/></clipPath></defs><g clip-path="url(#a)" transform="matrix(1.33333 0 0 -1.33333 0 249.333)"><path fill="#0076ce" d="M21.6 103.35v57.3h16.95c14.332 0 25.95-12.827 25.95-28.65 0-15.823-11.618-28.65-25.95-28.65zm16.95-18.9c22.128 0 40.725 15.115 46.031 35.584L138.383 78l53.767 42.008V84.45h61.35v18.9h-39.75v76.2h-21.6v-35.558l-51.575-40.295-11.534 9.012L153.732 132l26.884 21.004-15.349 11.992-51.576-40.295-11.534 9.012 51.575 40.295L138.383 186l-53.802-42.034c-5.306 20.468-23.903 35.584-46.031 35.584H0v-95.1zm283.65 18.9v-18.9h-61.35v95.1h21.6v-76.2z"/><path fill="gray" d="M34.121 56.572v1.896l-.631.631H.634L0 58.468v-1.896l.634-.631h13.899l.631-.631V15.503l.634-.632h2.528l.631.632V55.31l.631.631H33.49zm17.025-24.009H32.192l-.631.632c0 4.423 2.527 10.74 10.106 10.74 7.585 0 10.113-6.317 10.113-10.74zm3.792-3.161l.634.634v1.893c0 8.848-5.057 15.167-13.905 15.167-8.841 0-13.899-6.319-13.899-15.167v-1.262c0-8.845 4.424-16.427 14.534-16.427 8.844 0 12.003 5.686 12.636 9.479l-.633.631H51.78l-.634-.631c-1.262-3.793-3.79-6.32-8.844-6.32-8.214 0-10.741 7.582-10.741 11.372l.631.631zm6.952 1.265c0 8.847 4.42 13.268 10.74 13.268 6.317 0 8.845-3.79 9.476-7.579l.631-.634h2.53l.631.634c-.631 6.317-5.689 10.74-13.268 10.74-8.213 0-14.53-5.057-14.53-16.429 0-11.372 6.317-16.427 14.53-16.427 7.579 0 12.637 4.424 13.268 10.741l-.631.631h-2.53l-.631-.631c-.631-3.789-3.159-7.582-9.476-7.582-6.32 0-10.74 4.423-10.74 13.268m54.335-15.164V34.46c0 8.213-4.424 12.636-11.373 12.636-4.423 0-8.213-1.899-10.109-5.057h-.631v16.429l-.632.631h-2.527l-.634-.631V15.503l.634-.632h2.527l.632.632v17.06c0 6.951 3.161 11.372 10.109 11.372 5.055 0 8.213-3.158 8.213-9.475V15.503l.632-.632h2.53zm32.224 0V34.46c0 8.213-4.421 12.636-11.371 12.636-4.424 0-8.217-1.899-10.11-5.057h-.634l-.629 3.795-.633.632h-1.897l-.631-.632V15.503l.631-.632h2.53l.629.632v17.06c0 6.951 3.161 11.372 10.109 11.372 5.055 0 8.214-3.158 8.214-9.475V15.503l.634-.632h2.527zm18.323-1.263c8.213 0 14.533 5.686 14.533 16.427s-6.32 16.429-14.533 16.429-14.533-5.688-14.533-16.429 6.32-16.427 14.533-16.427m0 29.695c6.317 0 10.741-5.054 10.741-13.268 0-8.213-4.424-13.268-10.741-13.268-6.319 0-10.743 5.055-10.743 13.268 0 8.214 4.424 13.268 10.743 13.268m22.744-28.432v42.965l-.631.631h-2.528l-.633-.631V15.503l.633-.632h2.528zm18.957-1.263c8.213 0 14.53 5.686 14.53 16.427s-6.317 16.429-14.53 16.429c-8.216 0-14.534-5.688-14.534-16.429s6.318-16.427 14.534-16.427m0 29.695c6.317 0 10.738-5.054 10.738-13.268 0-8.213-4.421-13.268-10.738-13.268-6.32 0-10.744 5.055-10.744 13.268 0 8.214 4.424 13.268 10.744 13.268m41.066-24.64c0-8.213-1.896-14.533-9.478-14.533-5.686 0-7.582 2.527-8.213 5.686l-.631.634h-2.528l-.631-.634c.631-5.055 4.421-8.845 12.003-8.845 8.216 0 13.268 5.055 13.268 17.692v26.539l-.631.632h-1.896l-.631-.632-.632-3.795h-.633c-1.263 2.528-4.421 5.057-10.11 5.057-8.844 0-13.268-6.951-13.268-16.429 0-9.475 4.424-16.427 13.268-16.427 5.689 0 8.847 2.525 10.11 5.055zm-10.106-1.896c-6.32 0-10.113 4.423-10.113 13.268 0 8.847 3.793 13.268 10.113 13.268 6.314 0 10.106-4.421 10.106-13.268 0-8.845-3.792-13.268-10.106-13.268m24.006 34.752v3.79l-.631.631h-2.528l-.631-.631v-3.79l.631-.634h2.528zm0-36.648v30.331l-.631.632h-2.528l-.631-.632V15.503l.631-.632h2.528zm27.801 17.06h-18.954l-.634.632c0 4.423 2.528 10.74 10.11 10.74 7.582 0 10.109-6.317 10.109-10.74zm3.793-3.161l.628.634v1.893c0 8.848-5.055 15.167-13.899 15.167-8.845 0-13.9-6.319-13.9-15.167v-1.262c0-8.845 4.424-16.427 14.533-16.427 8.845 0 12.004 5.686 12.638 9.479l-.634.631h-2.528l-.631-.631c-1.265-3.793-3.792-6.32-8.845-6.32-8.215 0-10.743 7.582-10.743 11.372l.634.631zm27.167-6.317c0 5.686-3.161 8.214-9.481 9.478-6.318 1.262-10.107 1.897-10.107 6.318 0 3.158 2.528 5.054 6.951 5.054 5.686 0 7.582-2.527 7.582-5.686l.631-.631h2.528l.633.631c0 6.318-5.057 8.847-11.374 8.847-6.951 0-10.741-3.792-10.741-8.215 0-5.056 3.79-7.582 10.107-8.845 6.32-1.265 9.478-1.896 9.478-6.951 0-3.159-1.893-5.686-8.213-5.686-5.686 0-8.214 3.161-8.214 6.951l-.63.631h-2.528l-.631-.631c0-5.686 4.421-10.11 12.003-10.11 8.213 0 12.006 3.79 12.006 8.845"/></g></svg>