<svg xmlns="http://www.w3.org/2000/svg" role="img" viewBox="-5.31 -11.31 640.12 132.12"><path fill="gray" d="M585.894 103.907c19.024 0 33.964-9.512 36.678-29.887l-1.351-1.363h-5.435l-1.363 1.363c-2.714 14.935-12.226 23.095-28.529 23.095-20.375 0-35.32-14.946-35.32-42.118s14.945-42.113 35.32-42.113c16.303 0 25.815 8.15 28.53 21.732l1.362 1.363h5.435l1.351-1.363C619.858 15.6 604.918 6.093 585.894 6.093c-23.095 0-43.475 16.303-43.475 48.904 0 32.606 20.38 48.91 43.475 48.91m-59.779-2.72V8.806l-1.35-1.357h-9.513l-1.357 1.357-35.326 82.868h-1.358l-35.32-82.868-1.363-1.357h-9.506l-1.363 1.357v92.38l1.363 1.363h5.434l1.357-1.364v-78.79h1.363l33.958 78.79 1.363 1.364h6.792l1.357-1.364 33.964-78.79h1.357v78.79l1.363 1.364h5.434zm-114.11 0v-4.072l-1.364-1.363H360.38l-1.363-1.357V59.074l1.363-1.357h47.547l1.357-1.363v-4.071l-1.357-1.363H360.38l-1.363-1.358V15.6l1.363-1.357h50.261l1.363-1.358V8.807l-1.363-1.357h-58.41l-1.363 1.357v92.38l1.363 1.363h58.41z"/><path fill="#0085c3" d="M329.269 83.65v18.9h-61.35V7.45h21.6v76.2zm-61.35-76.2h21.6m-243.9 95.1a47.57 47.57 0 0 0 46.03-35.584L145.452 109l53.767-42.008v35.558h61.35v-18.9h-39.75V7.45h-21.6v35.558l-51.574 40.294-11.535-9.011L160.8 55l26.884-21.004-15.35-11.992-51.574 40.294-11.534-9.011L160.8 12.992 145.451 1 91.65 43.034A47.57 47.57 0 0 0 45.619 7.45H7.069v95.1zm-16.95-18.9v-57.3h16.95c14.331 0 25.95 12.827 25.95 28.65S59.95 83.65 45.619 83.65z"/></svg>