<svg xmlns="http://www.w3.org/2000/svg" role="img" viewBox="-2.31 -2.31 614.12 200.62"><defs><style>.cls-1{fill:#1b9bd7}.cls-3{fill:#757c84}</style></defs><path d="M524.641 31.834c-2.833-.004-4.953-.834-5.01-3.61-.08-3.808 2.607-5.497 5.938-5.7 2.332-.14 4.522 1.088 4.429 3.89-.116 3.476-2.471 4.99-5.357 5.42zm2.271-16.202c-1.609-.208-2.492-1.082-2.283-2.728a3.201 3.201 0 0 1 3.452-3.008c1.545-.031 2.884.743 2.665 2.32a3.871 3.871 0 0 1-3.834 3.416z" class="cls-1"/><path fill="none" d="M134.326 185.77h8.021c-2.35-.033-5.156-.023-8.02 0zm41.082-33.354c-1.111-7.95-2.154-15.908-3.222-23.863.987 7.353 1.953 16.295 2.972 23.887zm3.657 28.656c-.98-5.343-2.426-11.35-2.426-11.35a98.899 98.899 0 0 1-10.094-.326 86.001 86.001 0 0 0-12.753.163l-8.866 16.211h51.186c-4.544-.262-9.094-.6-13.637-.552-3.201.034-3.069-2.288-3.41-4.146zm76.199-8.29c-4.78-12.516-9.584-25.022-15.449-37.582-1.333 7.24-2.712 14.473-3.988 21.723-1.459 8.285-2.878 16.577-4.202 24.884-.403 2.532-1.631 3.429-4.163 3.41a94.006 94.006 0 0 0-11.363.53c-.093.01-.177.015-.266.023h50.254c-6.06-.56-7.04-3.08-10.823-12.988zM16.95 185.77h7.54c-2.515-.034-5.03-.062-7.54 0z"/><path d="M384.388 185.604c3.963-.195 7.941-.526 11.894-.362 2.76.114 3.76-1.249 4.12-3.489 1.138-7.118 2.257-14.241 3.259-21.38 1.47-10.481 2.834-20.978 4.243-31.468l.667-.016a43.46 43.46 0 0 1 1.184 4.428c2.457 15.256 4.857 30.52 7.298 45.778.376 2.346-.503 6.152 3.17 5.828 4.256-.375 9.518 3.031 12.628-3.42 7.097-14.726 14.655-29.231 22.092-43.792.9-1.762 1.359-3.907 3.363-5.02.61 1.483.045 2.773-.237 4.11-3.145 14.953-6.855 29.785-9.302 44.893-.505 3.121.518 3.769 2.871 3.86 4.48.176 8.968.164 13.453.216 1.894.022 2.53-.932 2.856-2.824q6.557-38.091 13.317-76.147c.45-2.556-.215-3.833-3.132-3.765-5.693.134-11.402.2-17.085-.095-3.889-.202-5.823 1.474-7.428 4.847-7.543 15.85-15.292 31.604-23.052 47.35-.595 1.207-.581 3.206-2.75 3.237-2.516-17.224-5.106-34.382-7.457-51.573-.403-2.95-1.704-3.812-4.34-3.782-5.868.067-11.739.144-17.605.05-2.821-.045-3.727 1.122-4.205 3.887-4.303 24.865-8.785 49.7-13.245 74.538-.51 2.837.385 4.261 3.423 4.111zm-168.289.143a94.006 94.006 0 0 1 11.363-.53c2.532.019 3.76-.878 4.163-3.41 1.324-8.307 2.743-16.6 4.202-24.884 1.276-7.25 2.655-14.483 3.988-21.723 5.865 12.56 10.67 25.066 15.449 37.582 3.782 9.907 4.764 12.428 10.823 12.988h9.932c2.173-.3 3.046-1.375 3.517-4.16 3.863-22.855 8.066-45.652 12.072-68.483 1.781-10.148 1.689-10.165-8.528-10.067-1.899.018-3.811.196-5.692.027-2.608-.236-3.76.937-4.154 3.385-1.035 6.446-2.137 12.881-3.25 19.314q-2.362 13.653-4.777 27.296l-1.216.17-14.344-37.536c-5.264-13.807-5.252-13.744-20.034-12.705-2.738.192-3.798 1.077-4.272 3.875-2.18 12.863-4.693 25.668-6.99 38.511-2.146 12.007-4.129 24.042-6.274 36.049-.484 2.705.076 4.067 2.083 4.324h1.673c.089-.008.173-.012.266-.023zm-191.609.023h3.946c7.416-1.2 14.969.392 22.283-2.539 22.998-9.215 31.165-30.511 29.46-50.585-1.314-15.482-11.363-26.977-25.655-28.973-9.152-1.278-18.585-.547-27.893-.718-2.57-.048-2.96 1.719-3.314 3.735-1.573 8.96-3.27 17.9-4.856 26.858-2.814 15.881-5.523 31.78-8.408 47.649-.515 2.83.052 4.184 1.986 4.573h4.912c2.509-.062 5.024-.034 7.539 0zm7.504-18.714q4.118-23.06 8.058-46.152a3.016 3.016 0 0 1 2.98-2.864c10.659-1.539 17.399 4.048 17.789 14.91.043 1.205.006 2.413.006 3.62-.333 7.796-1.397 15.425-5.12 22.451-4.338 8.189-11.37 11.528-20.373 11.555-2.593.008-3.866-.58-3.34-3.52zm110.353 18.714h2.579l8.866-16.211a86.001 86.001 0 0 1 12.753-.163 98.899 98.899 0 0 0 10.094.326s1.446 6.007 2.426 11.35c.341 1.858.209 4.18 3.41 4.146 4.543-.048 9.093.29 13.637.552h1.426c1.616-.155 2.02-1.05 1.599-3.298-4.211-22.455-8.134-44.964-12.385-67.411-2.344-12.373-2.553-12.194-15.12-12.182-3.927.004-6.296 1.15-8.082 4.813-3.772 7.738-8.035 15.236-12.08 22.842-9.52 17.895-20.056 36.823-29.844 55.236h12.7c2.865-.023 5.67-.033 8.021 0zm21.519-42.69c2.155-5.033 4.73-9.886 7.124-14.816l1.196.289c1.068 7.955 2.11 15.914 3.222 23.863l-.25.024c.083.622.166 1.252.25 1.853l-16.639-.359s3.506-7.139 5.097-10.855zm342.544 39.357c3.969-23.484 8.236-46.917 12.232-70.396 1.551-9.116 1.338-9.153-8.136-9.097-9.37.054-9.358.057-10.63 7.223q-5.575 31.387-11.162 62.772c-1.98 11.168-2.224 12.636 6.254 12.832h9.164c1.352-.29 1.94-1.335 2.278-3.334zm-396.987.214c4.024-23.484 8.242-46.934 12.297-70.413 1.611-9.332 1.488-9.353-7.865-9.151-1.896 0-3.804.14-5.684-.031-3.196-.29-4.461.983-5.01 4.227-3.604 21.297-7.41 42.56-11.193 63.827-1.712 9.623-2.183 13.44 1.57 14.66h12.85c1.783-.245 2.663-.949 3.035-3.119z" class="cls-3"/><path d="M512.669 87.909c8.438.01 15.505-6.313 15.586-13.946.067-6.259-4.2-10.298-10.922-10.34-8.437-.05-16.108 6.615-16.237 14.11-.108 6.283 4.31 10.166 11.573 10.175zm7.071-34.367c4.831.046 10.026-4.383 9.845-8.711-.172-4.101-2.7-6.175-6.723-6.296-4.895-.147-9.973 4.15-10.184 8.483-.18 3.703 2.828 6.483 7.062 6.524zm19.829 8.945c4.756.06 10.004-4.416 10.122-8.632.106-3.771-2.847-6.509-7.067-6.55-4.789-.048-9.405 3.901-9.659 8.263-.232 3.994 2.51 6.868 6.604 6.92zm-57.842 20.549c4.325.294 10.109-4.481 10.114-8.56.006-4.106-2.304-6.326-6.334-6.64-4.962-.385-10.074 3.639-10.363 8.033a6.907 6.907 0 0 0 6.583 7.167zm55.849-5.892c.264 4.141 3.35 5.643 7.01 6.248 4.453.147 10.107-4.556 10.039-8.735-.068-4.165-3.042-6.02-6.728-6.472-4.5-.552-10.591 4.719-10.32 8.959zm-42.621-14.88c4.656.11 9.204-3.617 9.41-8.012.204-4.331-2.217-6.59-7.212-6.732-4.631-.13-9.598 4.198-9.409 8.502.184 4.196 2.958 5.926 7.21 6.242zm-12.781-14.47c3.534-.05 5.688-2.031 6.238-5.921-.123-2.25-1.758-3.482-4.01-3.408-3.34.11-6.125 1.522-6.466 5.28-.254 2.805 1.774 4.083 4.238 4.049zM463.958 80.07c2.705-.343 5.034-1.857 5.173-5.372.11-2.805-1.85-3.988-4.365-3.927-3.392.083-5.464 1.954-5.713 5.396-.218 2.997 1.935 3.645 4.905 3.904zm97.313-31.834c3.444-.075 5.417-2.283 5.638-5.507.18-2.62-1.573-4.012-5.255-3.79-1.97.687-4.76 1.723-4.778 5.354-.014 2.724 1.9 3.998 4.395 3.943zm2.359 28.043a3.604 3.604 0 0 0 4.056 4.155c3.48-.153 5.778-2.03 6.035-5.627.208-2.906-1.798-3.735-5.739-3.791-2.114-.003-4.026 2.114-4.352 5.263zm-89.205-39.385a3.595 3.595 0 0 0 3.2-3.171c.238-2.004-1.319-2.769-2.88-2.79a3.178 3.178 0 0 0-3.429 3.087c-.064 1.619.893 2.897 3.11 2.874zM575.5 38.918a3.609 3.609 0 0 0 3.295-3.392c-.471-1.868-1.936-2.249-3.536-2.068a2.835 2.835 0 0 0-2.826 3.032c.036 1.982 1.265 2.733 3.067 2.428zm7.142 39.484a3.433 3.433 0 0 0 3.314-2.825c.239-2.321-1.115-2.993-2.483-2.943-1.746.064-3.415.837-3.611 2.947-.18 1.924.967 2.914 2.78 2.821zm-133.073.225c1.738-.194 2.924-1.087 2.901-2.972-.02-1.607-.86-2.553-3.09-2.548a3.203 3.203 0 0 0-2.674 3.327c.027 1.641 1.252 2.374 2.863 2.193z" class="cls-1"/><path d="M339.908 185.77a32.731 32.731 0 0 0 11.695-5.14c15.244-10.593 20.206-26.2 20.95-43.775 0-1.552.056-3.106-.008-4.655-.673-16.29-11.06-28.36-25.845-30.023-13.405-1.508-24.606 3.098-32.922 13.418-12.006 14.9-15.144 32.115-10.39 50.498 2.707 10.468 9.871 17.46 20.528 19.618.11.022.218.038.327.06a38.289 38.289 0 0 0 15.665 0zm-18.933-26.629c-.795-10.753.37-21.367 5.066-31.237 2.688-5.65 6.677-10.019 13.597-10.455 7.377-.465 11.81 2.808 13.063 10.152a82.15 82.15 0 0 1 .59 8.75 69.007 69.007 0 0 1-4.24 21.68 22.595 22.595 0 0 1-5.45 8.679c-4.295 4.043-9.307 5.892-15.149 3.846-5.33-1.867-7.116-6.529-7.477-11.415zm244.159 26.957c.773-.076 1.54-.193 2.303-.328 12.864-2.274 23.967-12.65 26.43-24.83.576-2.841.014-3.874-2.905-3.584a57.379 57.379 0 0 1-8.762.533c-4.318-.238-7.001.626-8.787 5.385-2.417 6.439-9.663 9.298-16.33 7.775-5.808-1.328-8.216-5.46-8.454-13.577a81.042 81.042 0 0 1 1.318-15.414c1.074-6.594 2.282-13.269 6.398-18.874 4.245-5.78 10.197-6.69 16.662-5.383a9.115 9.115 0 0 1 7.65 9.185c.11 3.914 1.765 4.696 5.021 4.477 1.714-.116 3.443-.021 5.165-.021 10.348.786 10.743.269 7.588-9.91a29.442 29.442 0 0 0-1.462-3.845c-7.56-16.019-30.78-20.88-46.928-10.165-19.546 12.97-25.107 46.375-17.01 63.728 3.801 8.146 10.01 12.907 18.878 14.52a47.83 47.83 0 0 0 13.225.328z" class="cls-3"/></svg>