<svg xmlns="http://www.w3.org/2000/svg" role="img" viewBox="-19.78 -19.78 999.56 1028.56"><title>Digital Twin Consortium logo</title><g><g><path fill="#2648a3" d="m 6918.93,5002.69 c -181.38,428.81 -441.01,813.91 -771.7,1144.6 -330.68,330.69 -715.78,590.32 -1144.6,771.69 -75.41,31.9 -151.68,60.9 -228.61,87.45 l -42.33,-123.57 C 6092.14,6412.81 7071.94,5119.19 7071.94,3601 7071.94,1687.08 5514.86,130 3600.94,130 1688.69,130 132.684,1684.37 129.973,3596 H 0.00390625 C 0.652344,3111.66 95.8047,2641.77 282.953,2199.31 464.324,1770.49 723.957,1385.39 1054.65,1054.71 1385.33,724.012 1770.43,464.379 2199.25,283.012 2643.24,95.2109 3114.84,0 3600.94,0 c 486.1,0 957.71,95.2109 1401.69,283.012 428.82,181.367 813.92,441 1144.6,771.698 330.69,330.68 590.32,715.78 771.7,1144.6 187.79,443.98 283.01,915.58 283.01,1401.69 0,486.1 -95.22,957.7 -283.01,1401.69" transform="matrix(.13333 0 0 -.13333 0 989.2)"/><path fill="#2648a3" d="M 6621.12,3606 C 6621.12,1938 5268.94,585.82 3600.94,585.82 1932.94,585.82 580.758,1938 580.758,3606 c 0,1667.99 1352.182,3020.18 3020.182,3020.18 1668,0 3020.18,-1352.19 3020.18,-3020.18" transform="matrix(.13333 0 0 -.13333 0 989.2)"/><path fill="#fff" d="M1961.97 2159.3c-12.48-6.24-37.44-12.48-69.43-12.48-74.1 0-129.88 46.78-129.88 132.97 0 82.3 55.78 138.08 137.29 138.08 32.75 0 53.44-7.03 62.4-11.72l-8.17-27.68c-12.89 6.24-31.2 10.92-53.06 10.92-61.61 0-102.57-39.4-102.57-108.42 0-64.34 37.06-105.71 101.02-105.71 20.65 0 41.72 4.31 55.37 10.93l7.03-26.89M2177.21 2280.59c0-56.17 30.44-106.5 83.85-106.5 53.85 0 84.26 49.54 84.26 109.22 0 52.27-27.3 106.88-83.85 106.88-56.16 0-84.26-51.89-84.26-109.6zm204 4.27c0-90.47-54.99-138.45-122.08-138.45-69.44 0-118.19 53.81-118.19 133.38 0 83.47 51.89 138.08 122.08 138.08 71.78 0 118.19-54.99 118.19-133.01M2585.55 2150.71v262.85h37.04l84.25-132.97c19.51-30.82 34.72-58.51 47.2-85.43l.76.41c-3.1 35.09-3.89 67.06-3.89 108.01v109.98h31.99v-262.85h-34.34l-83.44 133.39c-18.34 29.24-35.88 59.27-49.16 87.75l-1.17-.39c1.97-33.16 2.73-64.74 2.73-108.42v-112.33h-31.97M2997.82 2192.05c15.2-9.37 37.44-17.17 60.85-17.17 34.72 0 54.99 18.34 54.99 44.86 0 24.58-14.03 38.61-49.54 52.26-42.89 15.21-69.41 37.44-69.41 74.5 0 40.93 33.93 71.37 85.02 71.37 26.9 0 46.41-6.24 58.1-12.89l-9.35-27.69c-8.58 4.69-26.13 12.49-49.92 12.49-35.89 0-49.54-21.45-49.54-39.38 0-24.58 16-36.68 52.27-50.71 44.44-17.17 67.09-38.62 67.09-77.23 0-40.55-30.03-75.64-92.05-75.64-25.35 0-53.06 7.41-67.09 16.75l8.58 28.48M3375.69 2280.59c0-56.17 30.44-106.5 83.85-106.5 53.85 0 84.26 49.54 84.26 109.22 0 52.27-27.31 106.88-83.85 106.88-56.16 0-84.26-51.89-84.26-109.6zm204 4.27c0-90.47-55-138.45-122.09-138.45-69.43 0-118.18 53.81-118.18 133.38 0 83.47 51.89 138.08 122.08 138.08 71.78 0 118.19-54.99 118.19-133.01M3817.95 2290.34h34.73c36.27 0 59.26 19.89 59.26 49.92 0 33.93-24.55 48.75-60.43 49.13-16.39 0-28.11-1.55-33.56-3.13zm-33.92 119.74c17.16 3.48 41.71 5.45 65.13 5.45 36.27 0 59.67-6.62 76.06-21.45 13.26-11.72 20.64-29.65 20.64-49.92 0-34.72-21.81-57.74-49.51-67.09v-1.17c20.27-7.03 32.38-25.75 38.61-53.03 8.6-36.68 14.83-62.02 20.28-72.16h-35.1c-4.3 7.41-10.14 30.03-17.54 62.79-7.83 36.27-21.86 49.92-52.66 51.09h-31.99v-113.88h-33.92v259.37M4207.58 2384.71h-79.96v28.85h194.63v-28.85h-80.37v-234h-34.3v234M4545.73 2413.56v-262.85h-33.93v262.85h33.93M4799.22 2413.56v-155.59c0-58.92 26.13-83.88 61.23-83.88 39.01 0 63.97 25.75 63.97 83.88v155.59h34.33v-153.25c0-80.74-42.52-113.9-99.47-113.9-53.81 0-94.39 30.82-94.39 112.32v154.83h34.33M5399.44 2266.14c-1.94 36.68-4.28 80.74-3.91 113.5h-1.17c-8.97-30.82-19.88-63.58-33.13-99.85l-46.44-127.52h-25.73l-42.5 125.18c-12.48 37.06-23.02 70.99-30.44 102.19h-.77c-.78-32.76-2.71-76.82-5.05-116.22l-7.04-112.71h-32.38l18.34 262.85h43.3l44.83-127.14c10.93-32.35 19.9-61.23 26.54-88.51h1.17c6.62 26.51 15.98 55.37 27.7 88.51l46.77 127.14h43.3l16.39-262.85h-33.14l-6.64 115.43M2601.29 5126.49c-21.78 4.96-34.35 26.75-29.12 48.07 5.23 21.32 26.37 34.45 47.7 29.22 21.68-5.32 34.45-26.38 29.12-48.06-5.23-21.33-26-34.54-47.7-29.23M2667.74 5314.04c-18.96 11.83-23.68 36.56-11.74 54.99 11.96 18.43 36.24 23.88 54.67 11.92 18.75-12.14 23.89-36.24 11.73-54.97-11.95-18.43-35.93-24.1-54.66-11.94M2791.66 5469.02c-14.07 17.36-10.51 42.27 6.77 55.81 17.29 13.53 42.04 10.81 55.58-6.48 13.77-17.59 10.81-42.04-6.79-55.81-17.28-13.53-41.79-11.1-55.56 6.48M2959.48 5575.26c-7.61 20.99 3.94 43.35 24.69 50.47 20.77 7.12 43.24-3.59 50.35-24.35 7.25-21.12-3.58-43.23-24.7-50.46-20.77-7.12-43.11 3.22-50.34 24.34M3154.65 5621.13c-.01 22.34 18.43 39.46 40.39 39.12 21.95-.35 39.47-18.04 39.12-40-.35-22.34-18.03-39.48-40.37-39.13-21.96.35-39.49 17.67-39.14 40.01M3350.47 5600.37c6.99 21.23 29.88 31.69 50.61 24.46 20.74-7.22 31.82-29.51 24.6-50.26-7.36-21.09-29.52-31.8-50.61-24.46-20.75 7.22-31.94 29.17-24.6 50.26M3530.43 5516.58c13.56 17.77 38.63 20.16 55.85 6.55 17.23-13.62 20.39-38.34 6.77-55.56-13.84-17.54-38.32-20.39-55.84-6.54-17.24 13.63-20.64 38.03-6.78 55.55M3673.24 5378.51c18.61 12.36 43.1 6.43 54.94-12.07 11.83-18.51 6.76-42.9-11.75-54.75-18.84-12.04-42.89-6.75-54.93 12.07-11.87 18.51-7.09 42.69 11.74 54.75M3763.13 5200.92c21.62 5.55 42.77-8.07 47.87-29.43 5.1-21.34-7.71-42.68-29.06-47.78-21.71-5.18-42.69 7.71-47.88 29.41-5.09 21.36 7.33 42.62 29.07 47.8M1943.23 4455.79c-109.33 0-174.99-72.89-174.99-179.36 0-106.41 65.66-179.3 174.99-179.3 109.37 0 175 72.89 175 179.3 0 106.47-65.63 179.36-175 179.36zm376.15-533.62h-201.15v93.34h-2.93c-33.55-51.09-118.12-110.8-217.27-110.8-209.94 0-348.46 151.58-348.46 365.92 0 196.82 122.46 377.64 323.67 377.64 90.41 0 174.99-24.79 224.57-93.34h2.9v469.51h218.67V3922.17" transform="matrix(.13333 0 0 -.13333 0 989.2)"/><path fill="#f68a12" d="m 2577.45,5007.68 c 69.99,0 126.83,-56.84 126.83,-126.8 0,-70.02 -56.84,-126.85 -126.83,-126.85 -69.99,0 -126.85,56.83 -126.85,126.85 0,69.96 56.86,126.8 126.85,126.8" transform="matrix(.13333 0 0 -.13333 0 989.2)"/><path fill="#fff" d="M2468.09 4630.75h218.7v-708.58h-218.7v708.58M3182.49 4105.86c99.14 0 174.99 83.15 174.99 174.96 0 91.88-75.85 174.97-174.99 174.97-99.14 0-174.93-83.09-174.93-174.97 0-91.81 75.79-174.96 174.93-174.96zm376.2-123.92c0-266.78-135.64-409.68-409.74-409.68-125.36 0-253.65 21.9-355.72 103.53l120.99 180.76c67.09-56.84 141.45-91.82 230.39-91.82 132.66 0 195.35 72.89 195.35 173.5v68.49h-2.9c-49.57-68.49-134.15-93.28-199.77-93.28-209.94 0-348.46 151.58-348.46 365.92 0 188.09 122.52 368.91 323.67 368.91 123.93 0 208.54-59.83 242.05-110.8h2.93v93.28h201.21v-648.81" transform="matrix(.13333 0 0 -.13333 0 989.2)"/><path fill="#f68a12" d="m 3816.74,5007.68 c 69.96,0 126.8,-56.84 126.8,-126.8 0,-70.02 -56.84,-126.85 -126.8,-126.85 -69.99,0 -126.85,56.83 -126.85,126.85 0,69.96 56.86,126.8 126.85,126.8" transform="matrix(.13333 0 0 -.13333 0 989.2)"/><path fill="#fff" d="M3707.35 4630.75h218.73v-708.58h-218.73v708.58M4566.15 4455.79h-192.48v-236.2c0-75.82 8.73-131.19 103.54-131.19 23.32 0 69.96 2.87 88.94 20.39v-182.22c-48.13-17.52-102.07-21.86-153.1-21.86-145.81 0-258.08 59.71-258.08 214.28v336.8h-139.95v174.96h139.95v209.94h218.7v-209.94h192.48v-174.96M5038.54 4232.72c-67.09 0-215.8-5.86-215.8-102.07 0-52.5 55.4-77.29 103.53-77.29 86.02 0 166.23 45.18 166.23 132.72v46.64zm53.96-221.6h-2.93c-48.13-75.82-135.64-106.41-224.53-106.41-132.68 0-252.24 75.82-252.24 218.61 0 244.99 297.42 249.38 479.7 249.38 0 77.29-64.22 126.86-139.98 126.86-71.45 0-131.25-32.11-177.89-84.61L4658 4534.54c80.16 75.82 196.79 113.73 312.01 113.73 255.15 0 323.67-129.79 323.67-365.98V3922.17H5092.5v88.95M5433.64 5024.44h218.67V3922.17h-218.67v1102.27M2697.72 3235.8h-192.45v-236.18c0-75.82 8.7-131.19 103.5-131.19 23.32 0 69.99 2.87 88.95 20.38v-182.23c-48.11-17.52-102.07-21.84-153.11-21.84-145.78 0-258.05 59.69-258.05 214.27v336.79h-139.98v174.97h139.98v209.94h218.71v-209.94h192.45V3235.8M2723.97 3410.77h233.26l144.34-444.67h2.91l121.02 444.67h239.15l131.19-444.67h2.93l132.66 444.67h221.63l-252.22-708.58h-215.8l-147.24 470.93h-2.93l-131.22-470.93h-220.17l-259.51 708.58M4135.31 3787.7c69.97 0 126.8-56.84 126.8-126.8 0-70.01-56.83-126.85-126.8-126.85-70.01 0-126.85 56.84-126.85 126.85 0 69.96 56.84 126.8 126.85 126.8M4025.92 3410.77h218.73v-708.58h-218.73v708.58M4372.91 3410.77h209.94v-96.22h2.93c29.18 55.44 100.61 113.74 207.04 113.74 221.64 0 262.48-145.78 262.48-335.34v-390.76h-218.74v346.99c0 81.69-1.46 186.62-113.73 186.62-113.73 0-131.22-88.93-131.22-180.75v-352.86h-218.7v708.58M5173.67 3332.73h-36.88v13.33h89.77v-13.33h-37.07V3224.8h-15.82v107.93M5342.31 3278.07c-.91 16.9-2 37.23-1.82 52.35h-.53c-4.13-14.24-9.17-29.33-15.29-46.05l-21.42-58.83h-11.86l-19.63 57.74c-5.74 17.08-10.61 32.73-14.03 47.14h-.35c-.36-15.12-1.26-35.45-2.35-53.61l-3.22-52.01h-14.94l8.46 121.26h19.96l20.71-58.65c5.01-14.94 9.17-28.24 12.22-40.84h.55c3.05 12.25 7.36 25.55 12.78 40.84l21.56 58.65h19.98l7.56-121.26h-15.3l-3.04 53.27" transform="matrix(.13333 0 0 -.13333 0 989.2)"/><path fill="#8e9194" d="M69.0781 5069.83l47.9959 103.02 478.242-222.79 108.075 232.01 86.269-40.19-156.07-335.02-564.5119 262.97M410.813 5706.72l524.917-335.07-61.148-95.79-524.918 335.06 61.149 95.8M1047.72 5940.17l-147.646 64.23c-36.41 15.93-75.074 36.29-108.273 53.08l-1.219-1.39c21.023-30.69 47.598-66.26 68.094-98.95l83.719-137.21zm-52.865-190.76l97.445-156.6-77.33-88.27-336.947 560.48 95.586 109.12 601.791-258.13-80.36-91.75-169.9 73.89-130.285-148.74M1183.71 6563.21l401.51-476.07-86.88-73.27-401.5 476.07 86.87 73.27M1674.69 6316.1c42.59 1.87 99.31 15.97 148.46 47.17 61.63 39.11 77.64 89.77 50.41 132.68-25.26 39.79-66.63 46.35-149.08 27.96-106.41-23.75-191.01-12.88-239.04 62.8-54.47 85.82-24.29 196.91 89.62 269.2 56.95 36.14 107.01 50.4 143.23 53.68l25.61-92.09c-25.16-1.74-71.24-10.18-120.39-41.38-60.85-38.62-66.58-88.23-47.27-118.66 25.74-40.56 68.06-39.98 155.6-22.72 113.07 23.6 186.76 5.8 234.78-69.88 53.48-84.26 36.05-198.2-99.7-284.35-55.39-35.16-123.03-56.19-162.79-57.35l-29.44 92.94M2177.93 6814.39c45.61-118.1 141.38-189.08 243.09-149.79 102.58 39.62 123.7 156.74 76.76 278.28-42.28 109.47-136.54 191.93-242.56 150.98-105.16-40.62-123.57-159.66-77.29-279.47zm430.24 176.08c75.25-194.8.11-351.61-160.22-413.54-163.77-63.26-315.49 21.78-381.41 192.45-68.92 178.42-5.47 347.55 158.3 410.82 169.81 65.59 319.41-24.23 383.33-189.73M2877.06 6729.62l-92.76 615.83 127.91 19.27 198.76-240.11c51.44-62.33 97.81-128.23 136.19-190.66l1.82.27c-19.7 81.13-34.41 160.21-48.59 254.32l-32.34 214.72 104.16 15.69 92.77-615.83-116.04-17.48-201.55 246.23c-49.48 61.69-102.02 131.34-142.63 196.24l-2.6-1.33c16.54-78.81 29.7-159.98 44.98-261.4l33.17-220.2-103.25-15.56" transform="matrix(.13333 0 0 -.13333 0 989.2)"/></g></g></svg>