<svg xmlns="http://www.w3.org/2000/svg" role="img" viewBox="-8.63 -8.63 449.02 91.27"><title>Douyin Vision Co., Ltd. (member) logo</title><path fill="#325ab4" d="M127.94 32.67a11.81 11.81 0 0 0 3.45-3.6 10.9 10.9 0 0 0 1.61-5.84 13.52 13.52 0 0 0-1.74-6.85 13.88 13.88 0 0 0-5.09-5 14.43 14.43 0 0 0-4.92-1.68 48.5 48.5 0 0 0-7.81-.5h-12.25V60h18.63a17.55 17.55 0 0 0 11.89-4.16 13.27 13.27 0 0 0 4.83-10.35 13.6 13.6 0 0 0-2.54-8.32 14 14 0 0 0-6.06-4.5zm-4.72-4.07a9.76 9.76 0 0 1-6.44 1.91h-7.89V16h7.45c3.06 0 5.37.62 6.87 1.85a6.52 6.52 0 0 1 2.21 5.42 6.53 6.53 0 0 1-2.2 5.33zm-14.33 8.88h9.38c3.47 0 6.11.67 7.84 2a6.6 6.6 0 0 1 2.53 5.68 6.65 6.65 0 0 1-2.6 5.75c-1.79 1.32-4.49 2-8 2h-9.12zm79.41-21.09H181v8.29h-13.9l-9 21.92c-.16.38-.44 1.17-.86 2.43-.25.75-.53 1.61-.85 2.56-.29-1-.55-1.9-.78-2.65a18.21 18.21 0 0 0-.8-2.33l-8.93-21.93h-8.18l14.48 34.67-6.25 14.76h7.49L172.34 31H181v21.29c0 3 .72 5.22 2.13 6.56s3.74 2 6.93 2h4v-7h-3.81a2 2 0 0 1-1.5-.47 2.78 2.78 0 0 1-.46-1.8V31h5.77v-6.32h-5.76zm27.35 7.44A17.54 17.54 0 0 0 202.53 29c-3.33 3.44-5 8-5 13.55a19.18 19.18 0 0 0 1.21 6.76 17.29 17.29 0 0 0 3.47 5.69 17.59 17.59 0 0 0 6.2 4.3 20 20 0 0 0 7.75 1.5 21.18 21.18 0 0 0 9-1.86 22.14 22.14 0 0 0 7.35-5.77l.43-.5-5.33-4.28-.4.46a16.27 16.27 0 0 1-5 4 13.24 13.24 0 0 1-5.86 1.32 11.94 11.94 0 0 1-8.08-2.75 9.61 9.61 0 0 1-3.38-6.42h29.22v-1.13c0-6-1.71-10.84-5.09-14.5a17.4 17.4 0 0 0-13.37-5.54zM208.29 33a10.92 10.92 0 0 1 7.3-2.59A10.53 10.53 0 0 1 222.7 33a10.09 10.09 0 0 1 3.34 5.9H204.9a9.86 9.86 0 0 1 3.39-5.9zm66.41-17.36c-4.94-4.29-12.21-6.47-21.61-6.47h-10.9V60h10.9c9.4 0 16.67-2.18 21.61-6.47s7.48-10.69 7.48-18.92-2.51-14.61-7.48-18.97zm-20.63 37.24H250V16.31h4.11c6.72 0 11.85 1.54 15.22 4.59s5.06 7.65 5.06 13.7-1.7 10.63-5.06 13.67-8.54 4.61-15.26 4.61zm61.33-23.74a16.08 16.08 0 0 0-4.65-3.46 16.91 16.91 0 0 0-7.47-1.68c-5.35 0-9.71 1.69-13 5s-4.91 7.77-4.91 13.17a19.4 19.4 0 0 0 1.24 7 17.4 17.4 0 0 0 3.74 5.83 17.89 17.89 0 0 0 5.92 4 18.15 18.15 0 0 0 7 1.39 16.64 16.64 0 0 0 7.35-1.57 14.08 14.08 0 0 0 4.38-3.23V60h7.3V24.68h-6.9zm-3.28 4.74a11.71 11.71 0 0 1 3.15 8.41 11.68 11.68 0 0 1-3.15 8.42 11.53 11.53 0 0 1-16 0 11.64 11.64 0 0 1-3.15-8.43 11.65 11.65 0 0 1 3.15-8.42 11.48 11.48 0 0 1 16 0zM344.66 24a13.31 13.31 0 0 0-5.59 1.18 15.16 15.16 0 0 0-3.83 2.52v-3H328V60h7.23V40.48c0-3.35.71-5.87 2.11-7.51s3.48-2.42 6.27-2.42c2.45 0 4.18.73 5.3 2.23s1.72 4 1.72 7.45V60h7.29V39.63c0-4.8-1.19-8.63-3.54-11.4a12.13 12.13 0 0 0-9.72-4.23zm42.48 26.66a8.8 8.8 0 0 1-3.3 2.63 10.79 10.79 0 0 1-4.5.89 9.66 9.66 0 0 1-7.61-3.27 12.39 12.39 0 0 1-3-8.56 12.51 12.51 0 0 1 3-8.61 9.64 9.64 0 0 1 7.58-3.32 10.9 10.9 0 0 1 4.26.79 9 9 0 0 1 3.3 2.45l.49.55 4.72-5.46-.47-.42a17 17 0 0 0-5.54-3.39 20.9 20.9 0 0 0-14 .18 16.41 16.41 0 0 0-5.68 3.88 17.47 17.47 0 0 0-3.93 6 21.1 21.1 0 0 0 0 14.69 17.75 17.75 0 0 0 3.92 6 16.45 16.45 0 0 0 5.76 3.82 19.48 19.48 0 0 0 7.2 1.31 19.11 19.11 0 0 0 6.83-1.16A18.45 18.45 0 0 0 392 56l.46-.42-4.81-5.52zM432 43.87c0-6-1.71-10.84-5.09-14.5A19 19 0 0 0 400.4 29c-3.34 3.44-5 8-5 13.55a19 19 0 0 0 1.22 6.76 17.26 17.26 0 0 0 3.45 5.69 17.72 17.72 0 0 0 6.21 4.3 19.93 19.93 0 0 0 7.75 1.5 21.21 21.21 0 0 0 9-1.86 22.24 22.24 0 0 0 7.35-5.77l.43-.5-5.33-4.28-.4.46a16 16 0 0 1-5 4 13.21 13.21 0 0 1-5.86 1.32 12 12 0 0 1-8.08-2.75 9.64 9.64 0 0 1-3.38-6.42H432zM406.16 33a10.9 10.9 0 0 1 7.29-2.59 10.54 10.54 0 0 1 7.12 2.59 10.09 10.09 0 0 1 3.34 5.9h-21.14a9.86 9.86 0 0 1 3.39-5.9zM13.01 59.4L0 62.74V3.47l13.01 3.34V59.4z"/><path fill="#78e6dc" d="M75.85 62.87l-13.01 3.34V0l13.01 3.34v59.53z"/><path fill="#3c8cff" d="M33.64 61.2l-13.01 3.34v-34.9l13.01 3.34V61.2z"/><path fill="#00c8d2" d="M42.15 24.47l13.01-3.34v34.9l-13.01-3.34V24.47z"/></svg>