<svg xmlns="http://www.w3.org/2000/svg" role="img" viewBox="-21.44 -23.44 1374.88 194.88"><title>EdgeX Foundry logo</title><defs><clipPath id="a" clipPathUnits="userSpaceOnUse"><path d="M0 111.654h1000V0H0z"/></clipPath></defs><path fill="#35144b" d="M537.945 3.624h29.18l-62.944 82.664 35.931 47.004h-10.37l-35.686-47.004 57.145-75.37h-8.672l-102.245 134.33-28.699.203 54.258-71.928-53.05-69.899h10.371l53.05 69.697-48.71 64.635h8.196z"/><g clip-path="url(#a)" transform="matrix(1.33333 0 0 -1.33333 0 148.872)"><path fill="#35144b" d="M37.895 18.634c-1.212-2.397-3.028-6.125-3.483-6.925-.755-1.198-2.421-2.53-5.902-2.53H4.287v90.559c.152 1.466 1.515 2.665 3.33 2.665h28.31l-3.632-6.925c-.607-1.2-2.271-2.664-5.753-2.664h-8.78c-1.515 0-2.574-.932-2.574-2.264V62.849h16.35c-1.212-2.397-3.028-6.258-3.483-7.06-.756-1.196-2.27-2.528-5.752-2.528h-4.54c-1.364 0-2.575-1.065-2.575-2.265V18.634zM102.53 88.02c0 3.46-2.725 4.792-5.752 4.792h-7.114V18.635h7.114c3.027 0 5.752 1.331 5.752 4.927zm-2.725 14.38c7.417 0 13.322-5.192 13.475-11.717V20.896c-.153-6.524-6.058-11.72-13.475-11.72H78.763V102.4zm92.343-25.434c0-3.195-1.514-4.53-3.028-5.193-.758-.4-4.996-2.132-7.872-3.197v21.308c0 2.796-2.575 5.062-5.753 5.062-3.18 0-5.751-2.266-5.751-5.062V21.696c0-2.794 2.57-5.06 5.75-5.06 3.179 0 5.754 2.266 5.754 5.06V49.53h-.454c-2.422 0-3.938 3.063-3.938 3.063l-3.633 6.66h13.625c3.331 0 5.3-1.6 5.3-5.195v-33.96c0-6.393-5.906-11.585-13.173-11.852h-6.66c-7.418 0-13.473 5.326-13.473 11.852v71.384c0 6.525 6.055 11.853 13.472 11.853h6.661c7.267-.267 13.172-5.462 13.172-11.853zm84.164-58.332c-1.212-2.397-3.028-6.125-3.483-6.925-.756-1.198-2.422-2.53-5.903-2.53h-24.222v90.559c.151 1.466 1.514 2.665 3.33 2.665h28.31l-3.633-6.925c-.607-1.2-2.272-2.664-5.753-2.664h-8.779c-1.516 0-2.575-.932-2.575-2.264V62.849h16.35c-1.213-2.397-3.028-6.258-3.484-7.06-.755-1.196-2.269-2.528-5.751-2.528h-4.54c-1.365 0-2.575-1.065-2.575-2.265V18.634z"/><path fill="#832841" d="M367.47 80.216l21.7 28.872h7.776l-36.53-48.17-37.439 48.17h22.425l18.811-24.616-3.797-5.168-18.629 24.313h-6.876l25.505-32.671 6.871 8.967zm21.34-28.568l.543-.76 36.89-48.172h-36.166L367.105 32.35 344.319 2.716h-7.776l30.385 39.661 26.764-34.189h20.619L384.83 46.48zm105.981 50.938c-1.065-2.406-3.04-6.15-3.497-6.953-.76-1.204-2.28-2.674-5.776-2.674h-12.16c-1.367 0-2.585-1.07-2.585-2.273V61.534h19.457l-3.648-6.953c-.759-1.204-2.28-2.676-5.775-2.676h-7.297c-1.519 0-2.737-.936-2.737-2.273V11.79c0-1.605-1.519-2.807-3.19-2.807h-7.602V99.78c0 1.47 1.37 2.807 3.191 2.807zm58.517-86.116c3.193 0 5.776 2.273 5.776 5.215v68.198c0 2.942-2.583 5.216-5.776 5.216h-1.673c-3.191-.134-5.774-2.407-5.774-5.216V21.685c0-2.81 2.583-5.081 5.774-5.215zm3.648 87.053c7.296-.266 13.226-5.481 13.226-11.9v-71.81c-.153-6.418-5.93-11.5-13.226-11.768h-8.361c-7.447 0-13.527 5.35-13.681 11.769v71.809c0 6.552 6.08 11.9 13.68 11.9zm92.871-83.577c0-6.419-5.929-11.232-13.072-11.365v-.135h-8.362c-7.447 0-13.527 4.948-13.527 11.5v79.966c.15 1.471 1.52 2.675 3.19 2.675h7.752V21.684c0-2.806 2.434-5.08 5.625-5.08h1.673c3.194 0 5.777 2.274 5.777 5.08v80.903h10.944zm79.797-10.965h-5.016c-5.928 0-6.84 4.146-7.297 6.018l-11.705 46.267V8.981h-10.942v93.604h5.016c6.08 0 7.143-2.539 7.752-5.214l11.248-48.675v53.89h10.944zm68.853 79.164c0 3.478-2.737 4.814-5.776 4.814h-7.145V18.475h7.145c3.039 0 5.776 1.338 5.776 4.947zm-2.737 14.442c7.449 0 13.378-5.216 13.53-11.768V20.75c-.152-6.551-6.081-11.768-13.53-11.768h-21.128v93.606zm157.469-54.692V8.98h-7.753c-1.671 0-3.04 1.204-3.191 2.81v36.105l-13.075 54.691h8.057c.305 0 3.04-.133 3.497-3.207l6.993-35.439 6.991 35.439c.457 3.073 3.193 3.207 3.497 3.207h8.055zm-81.622 10.43c2.888 0 5.624 1.07 5.624 5.35v25.139c0 3.476-2.736 4.814-5.624 4.814h-5.776V58.325zM877.21 8.98v34.233c0 4.548-2.736 6.018-5.624 6.018h-5.776V8.98h-10.943v93.606h19.912c7.295 0 13.375-5.215 13.375-11.767V61.936c0-2.713-4.064-7.356-8.473-8.291 4.257-1.872 8.485-6.01 8.473-8.825-.042-10.01 0-35.84 0-35.84z"/><path fill="#832841" fill-rule="evenodd" d="M986.831 102.845h-2.998V92.04h1.971v8.912l3.497-8.912h1.105l3.33 8.912V92.04h1.977v10.806h-3.003l-2.833-7.724zm-5.379 0h-9.08v-1.605h3.452v-9.2h2.177v9.2h3.451z"/></g></svg>