<svg xmlns="http://www.w3.org/2000/svg" role="img" viewBox="-3.40 -3.40 176.67 176.67"><title>Electronics and Telecommunications Research Institute (member) logo</title><g fill="#fff"><path d="M0 0h169v67H0zm169 0h1v67h-1zM0 67h169v1H0zm169 0h1v1h-1zM43 68h6v101h-6zm6 0h1v101h-1zm46 0h4v101h-4zm4 0h1v101h-1zm45 0h11v1h-11zm11 0h1v101h-1zm-9 1h9v1h-9zm0 1h9v1h-9zm1 1h8v26h-8zm-97 4h1v94h-1z"/><path d="M94 75h5v94h-5zm-80 1h50v3H14zm50 0h1v93h-1z"/><path d="M80 76h19v93H80zm35 0h17v8h-17zM14 79h50v1H14zm37 1h13v89H51zm64 4h17v1h-17zm17 0h1v1h-1zm-17 1h2v84h-2zm2 0h1v84h-1zm19 1h19v1h-19zm-18 1h1v82h-1zm1 0h1v82h-1zm18 0h18v1h-18z"/><path d="M14 88h50v4H14zm124 0h17v1h-17zm-18 1h1v80h-1zm19 0h16v1h-16zm-18 1h1v79h-1zm19 0h15v1h-15zm-18 1h1v78h-1zm19 0h14v1h-14zM14 92h50v1H14zm109 0h1v77h-1zm1 0h1v77h-1zm18 0h13v1h-13zm-17 1h1v76h-1zm18 0h12v1h-12zm-17 1h1v75h-1zm18 0h11v1h-11zm-17 1h1v74h-1zm18 0h10v1h-10zm-17 1h1v73h-1zm18 0h9v1h-9zm-17 1h1v72h-1zm18 0h8v1h-8zM0 98h1v71H0zm130 0h1v71h-1zm18 0h7v1h-7zM1 99h1v70H1zm130 0h1v70h-1zm18 0h6v1h-6zM2 100h1v69H2zm130 0h1v69h-1zm18 0h5v1h-5z"/><path d="M3 101h130v68H3zm130 0h1v68h-1zm18 0h18v68h-18zm18 0h1v68h-1zm-35 1h1v67h-1z"/><path d="M135 103h34v66h-34zM0 169h169v1H0zm169 0h1v1h-1z"/></g><path d="M50 68h1v6h-1zm0 6h1v1h-1zM13 93h1v1h-1zM0 96h1v1H0zm1 2h1v1H1zm3 2h1v1H4z" fill="#98a9cd"/><g fill="#0b3f8b"><path d="M1 69h40v4H1zm40 0h1v4h-1zm10 0h42v4H51zm42 0h1v4h-1zm64 0h11v30h-11zm11 0h1v30h-1zM1 73h40v1H1zm40 0h1v1h-1zm10 0h42v1H51zm42 0h1v1h-1zM1 74h11v22H1zm11 0h1v25h-1zm54 0h12v1H66zm12 0h1v1h-1zm-11 1h10v24H67zm10 0h1v24h-1zm-64 6h28v5H13zm28 0h1v5h-1zm-28 5h28v1H13zm28 0h1v1h-1zm-28 8h28v5H13zm28 0h1v5h-1z"/><path d="M1 96h40v1H1zm1 1h39v1H2zm0 1h39v1H2zm2 1h37v1H4zm37 0h1v1h-1zm26 0h10v1H67zm10 0h1v1h-1zm80 0h11v1h-11zm11 0h1v1h-1z"/></g><path d="M145 69h1v1h-1zM14 75h28v1H14zm28 0h1v1h-1zm9 0h13v1H51zm13 0h1v1h-1zm16 0h13v1H80zm13 0h1v1h-1zm22 0h17v1h-17zm17 0h1v2h-1zm-18 1h1v24h-1zm18 1h1v2h-1zm0 2h1v2h-1zM14 80h2v1h-2zm2 0h2v1h-2zm2 0h2v1h-2zm2 0h2v1h-2zm2 0h2v1h-2zm2 0h2v1h-2zm2 0h2v1h-2zm2 0h2v1h-2zm2 0h2v1h-2zm2 0h2v1h-2zm2 0h2v1h-2zm2 0h2v1h-2zm2 0h2v1h-2zm2 0h2v1h-2zm2 0h1v1h-1zm90 1h1v2h-1zm0 2h1v1h-1zm-14 3h1v1h-1zm17 0h1v1h-1zm1 1h1v1h-1zm-16 1h1v1h-1zm17 0h1v1h-1zm-16 1h1v1h-1zm17 0h1v1h-1zm-16 1h1v1h-1zm17 0h1v1h-1zm-16 1h1v1h-1zm17 0h1v1h-1zm-61 9h1v1h-1zm35 0h1v1h-1z" fill="#f8f5f6"/><path d="M145 71h1v1h-1zm-11 4h1v9h-1zm0 9h1v1h-1zm0 3h1v1h-1zm0 1h1v1h-1zm1 0h1v1h-1zm-10 3h1v1h-1zm1 1h1v1h-1zm1 1h1v1h-1zm1 1h1v1h-1zm13 0h1v1h-1z" fill="#ff3001"/><path d="M42 87h1v1h-1zM5 100h37v1H5zm37 0h1v1h-1zm24 0h12v1H66zm12 0h1v1h-1zm79 0h12v1h-12zm12 0h1v1h-1z" fill="#5978ae"/><path d="M0 68h1v27H0zm42 0h1v6h-1zm127 0h1v31h-1zM42 74h1v1h-1zm0 7h1v5h-1zm0 5h1v1h-1zm-29 1h28v1H13zm28 0h1v1h-1zm1 7h1v5h-1zM0 95h1v1H0zm42 4h1v1h-1zm127 0h1v1h-1z" fill="#335b9c"/><path d="M94 68h1v6h-1zm0 6h1v1h-1zm-81 1h1v5h-1zm0 5h1v1h-1zm0 8h1v4h-1zm0 4h1v1h-1zM2 99h1v1H2z" fill="#b3c2da"/><path d="M156 68h1v31h-1zm-91 7h1v1h-1zM14 93h28v1H14zm28 0h1v1h-1zm114 6h1v1h-1z" fill="#d1d9e7"/><path d="M13 74h1v1h-1zm53 1h1v24h-1zm12 0h1v1h-1zm0 1h1v2h-1zm0 2h1v2h-1zm0 2h1v2h-1zm0 2h1v2h-1zm0 2h1v2h-1zm0 2h1v2h-1zm0 2h1v2h-1zm0 2h1v2h-1zm0 2h1v2h-1zm0 2h1v2h-1zm0 2h1v2h-1zM1 97h1v1H1zm77 1h1v1h-1zm-12 1h1v1h-1z" fill="#164790"/><path d="M79 75h1v24h-1zm-14 1h1v24h-1zM0 97h1v1H0zm79 2h1v1h-1zm-76 1h1v1H3zm62 0h1v1h-1zm91 0h1v1h-1z" fill="#e8ebf2"/><path d="M133 75h1v1h-1zm0 25h1v1h-1zm1 1h1v1h-1zm1 1h1v1h-1z" fill="#ffae9c"/><path d="M1 68h40v1H1zm40 0h1v1h-1zm10 0h42v1H51zm42 0h1v1h-1zm64 0h11v1h-11zm11 0h1v1h-1zM14 74h27v1H14zm27 0h1v1h-1zm10 0h14v1H51zm14 0h1v1h-1zm14 0h14v1H79zm14 0h1v1h-1zM3 99h1v1H3zm75 0h1v1h-1z" fill="#224f96"/><path d="M100 68h1v32h-1zm43 0h1v1h-1zm3 3h1v1h-1zm-32 4h1v1h-1zm19 1h1v8h-1zm0 8h1v1h-1zm-15 1h1v1h-1zm23 7h1v1h-1zm1 1h1v1h-1zm1 1h1v1h-1zm1 1h1v1h-1zm1 1h1v1h-1zm1 1h1v1h-1zm1 1h1v1h-1zm1 1h1v1h-1zm-48 1h1v1h-1zm49 0h1v1h-1zm1 1h1v1h-1z" fill="#ffdad2"/><path d="M101 68h40v1h-40zm40 0h1v1h-1zm5 5h1v11h-1zm-32 1h19v1h-19zm19 0h1v1h-1zm-20 1h1v1h-1zm0 1h1v2h-1zm0 2h1v2h-1zm0 2h1v2h-1zm0 2h1v2h-1zm0 2h1v2h-1zm33 0h1v1h-1zm-33 2h1v2h-1zm0 2h1v2h-1zm23 0h1v1h-1zm0 1h1v1h-1zm1 0h1v1h-1zm-24 1h1v2h-1zm25 0h1v1h-1zm0 1h1v1h-1zm1 0h1v1h-1zm-26 1h1v2h-1zm27 0h1v1h-1zm-27 2h1v2h-1zm29 0h1v1h-1zm0 1h1v1h-1zm1 0h1v1h-1zm-30 1h1v2h-1zm31 0h1v1h-1zm0 1h1v1h-1zm1 0h1v1h-1zm-32 1h1v1h-1zm33 0h1v1h-1zm1 1h1v1h-1zm1 1h1v2h-1zm1 1h1v1h-1zm-13 1h14v1h-14zm14 0h1v1h-1z" fill="#ff441b"/><path d="M142 68h1v1h-1zm4 4h1v1h-1zm-27 14h1v1h-1zm15 0h1v1h-1zm-14 1h1v1h-1zm15 0h1v1h-1zm6 6h1v1h-1zm-40 7h12v1h-12zm12 0h1v1h-1z" fill="#ff6f56"/><g fill="#ff3401"><path d="M101 69h42v4h-42zm42 0h1v15h-1zm1 1h1v14h-1zm1 2h1v12h-1z"/><path d="M101 73h44v1h-44zm0 1h12v25h-12zm12 0h1v1h-1zm21 0h11v1h-11zm1 1h10v9h-10zm0 9h10v1h-10zm10 0h1v1h-1zm-25 2h9v1h-9zm9 0h2v9h-2zm2 0h2v11h-2zm2 0h1v13h-1z"/><path d="M121 87h11v1h-11zm1 1h11v1h-11zm1 1h12v1h-12zm12 0h1v12h-1z"/><path d="M124 90h13v1h-13zm13 0h1v11h-1zm-11 1h11v1h-11z"/><path d="M127 92h12v1h-12zm12 0h1v9h-1z"/><path d="M128 93h12v1h-12zm12 0h1v8h-1zm-6 1h6v6h-6z"/><path d="M129 95h12v1h-12zm12 0h1v6h-1z"/><path d="M130 96h13v1h-13zm13 0h1v5h-1zm-12 1h12v1h-12z"/><path d="M132 98h13v1h-13zm13 0h1v3h-1zm-44 1h12v1h-12zm12 0h1v1h-1z"/><path d="M133 99h13v1h-13zm13 0h1v2h-1z"/><path d="M134 100h13v1h-13zm13 0h1v1h-1zm-12 1h13v1h-13z"/></g><path d="M144 69h1v1h-1zm1 1h1v1h-1zm-26 15h13v1h-13zm13 0h14v1h-14zm14 0h1v1h-1zm-25 3h1v1h-1zm1 1h1v1h-1zm1 1h1v1h-1zm1 1h1v1h-1zm1 1h1v1h-1zm1 1h1v1h-1zm1 1h1v1h-1zm1 1h1v1h-1zm1 1h1v1h-1zm1 1h1v1h-1zm1 1h1v1h-1zm1 1h1v1h-1z" fill="#ff8a7a"/></svg>