<svg xmlns="http://www.w3.org/2000/svg" role="img" viewBox="-8.53 -3.53 625.56 557.56"><title>EMQ Technologies logo</title><defs><style>.cls-1{fill:#2db17c}</style></defs><path d="M304.45 542.042c-41.304 0-82.61-.23-123.911.097-20.873.164-35.563-8.939-45.821-26.772Q73.425 408.813 11.795 302.453c-10.422-17.996-10.544-35.678-.134-53.677q62.092-107.35 124.067-214.769c9.606-16.605 23.912-25.126 43.428-25.096q125.276.188 250.553-.003c19.526-.032 33.842 8.512 43.445 25.082q49.75 85.839 99.255 171.819c8.54 14.792 17.125 29.559 25.571 44.404 9.505 16.707 9.72 33.612.116 50.293q-62.563 108.65-125.363 217.164c-9.392 16.204-23.701 24.462-42.734 24.408-41.85-.12-83.7-.037-125.55-.036zm-.367-15.313q62.78 0 125.559.017c13.184.015 23.113-5.616 29.669-16.953q62.631-108.307 125.175-216.665c6.895-11.934 6.709-23.672-.196-35.608Q522.6 150.87 461.16 44.078c-7.88-13.75-18.796-20.088-34.61-20.044q-122.828.337-245.658.054c-14.458-.018-24.941 5.903-32.183 18.479q-61.755 107.242-123.8 214.317c-7.258 12.523-7.342 24.553-.092 37.074q62.28 107.566 124.363 215.247c6.761 11.705 16.77 17.596 30.437 17.562 41.489-.104 82.978-.038 124.467-.038z" class="cls-1"/><path d="M347.977 244.27c-6.943 12.528-13.442 24.237-19.925 35.954-10.728 19.391-21.702 38.653-32.018 58.261-3.303 6.278-8.241 3.762-12.691 4.125-4.487.366-3.72-3.846-4.342-6.276-7.87-30.784-15.567-61.612-23.325-92.426-.35-1.39-.849-2.742-1.759-5.642-2.04 13.438-3.867 25.385-5.666 37.336-3.137 20.838-6.343 41.666-9.304 62.529-.517 3.641-1.845 5.212-5.493 4.572a6.31 6.31 0 0 0-1.09-.008c-13.189.034-12.96.07-10.999-12.72q8.713-56.825 17.078-113.703c1.358-9.167 1.195-9.289 10.19-9.153 5.06.076 11.522-2.127 14.792.897 3.152 2.915 3.203 9.29 4.396 14.2q10.997 45.254 21.9 90.53c.246 1.013.662 1.985 1.322 3.931 1.717-3.09 3.017-5.382 4.272-7.697q26.358-48.619 52.623-97.287c1.903-3.547 4.047-5.005 8.047-4.693a107.86 107.86 0 0 0 13.636.026c3.315-.163 3.818.946 3.335 4.097-4.377 28.553-8.567 57.134-12.821 85.705-1.98 13.295-4.23 26.557-5.837 39.897-.592 4.91-2.399 6.206-7.162 6.085-12.472-.32-12.456-.091-10.605-12.411q6.03-40.147 11.999-80.302a8.33 8.33 0 0 0-.553-5.826zm152.696 11.478c-1.331 12.35-2.905 27.352-6.796 41.967a61.56 61.56 0 0 1-12.495 23.99c-1.764 2.095-1.797 3.452.099 5.469 4.108 4.37 7.818 9.118 11.962 13.452 2.416 2.525 2.11 4.082-.629 5.94-3.894 2.643-7.012 8.459-11.075 8.164-4.367-.317-6.919-6.342-10.21-9.904-6.966-7.54-6.835-7.587-16.562-4.093a61.623 61.623 0 0 1-32.234 2.945c-19.454-3.56-34.297-18.775-35.271-39.039-1.094-22.748 1.492-45.567 11.769-66.383 12.448-25.214 39.98-37.617 67.363-31.49 19.99 4.471 34.087 23.626 34.08 48.982zm-18.618.872c.166-20.767-9.03-33.106-24.763-35.49-11.793-1.786-22.346 1.276-31.128 9.554-6.878 6.483-12.161 14.181-14.286 23.396-3.463 15.02-6.347 30.225-6.293 45.71.063 18.232 11.764 29.48 29.902 29.286 17.164-.183 28.505-9.657 36.223-23.909 8.651-15.975 7.32-34.159 10.345-48.547zm-325.282 86.075c-12.556 0-25.115-.114-37.669.071-3.557.053-4.308-1.053-3.791-4.438q9.667-63.336 19.037-126.716c.553-3.763 1.916-4.632 5.49-4.61q36.304.226 72.61.006c4.01-.024 5.367.57 4.495 5.123-1.868 9.748-1.552 9.809-11.196 9.809-16.56 0-33.122.112-49.68-.087-3.692-.044-4.89 1.025-5.352 4.722-1.397 11.179-3.218 22.308-5.036 33.43-.626 3.829.01 5.514 4.538 5.429 15.099-.283 30.21.078 45.309-.219 4.568-.09 5.037 1.462 4.318 5.346-1.758 9.494-1.62 9.52-11.086 9.52-13.648 0-27.3.14-40.944-.088-3.93-.065-5.288 1.15-5.796 5.072q-2.52 19.463-5.861 38.816c-.659 3.82.654 4.193 3.838 4.174 18.38-.109 36.762.103 55.138-.162 4.621-.066 5.536 1.359 4.734 5.579-1.75 9.197-1.61 9.223-10.885 9.223h-32.21z" class="cls-1"/></svg>