<svg xmlns="http://www.w3.org/2000/svg" role="img" viewBox="-17.34 -20.34 1057.68 886.68"><defs><style>.cls-1{fill:#08e}.cls-3{fill:#009fee}</style></defs><path d="M42.551 768.49q7.135 6.915 20.522 6.913a28.215 28.215 0 0 0 16.505-4.794q6.915-4.796 8.48-10.152h27.882q-6.69 20.75-20.522 29.67-13.835 8.927-33.461 8.924a65.846 65.846 0 0 1-24.538-4.35 50.986 50.986 0 0 1-18.515-12.38 55.669 55.669 0 0 1-11.712-19.185 70.16 70.16 0 0 1-4.125-24.538 67.211 67.211 0 0 1 4.238-24.091 55.75 55.75 0 0 1 30.673-32.124 59.718 59.718 0 0 1 23.979-4.685q14.72 0 25.654 5.688a51.272 51.272 0 0 1 17.956 15.28 62.9 62.9 0 0 1 10.151 21.864 81.472 81.472 0 0 1 2.229 25.654H34.744q.665 15.39 7.807 22.306zm35.802-60.675q-5.686-6.244-17.287-6.248a27.564 27.564 0 0 0-12.605 2.566 24.034 24.034 0 0 0-8.029 6.357 23.267 23.267 0 0 0-4.238 8.03 36.205 36.205 0 0 0-1.45 7.585h51.53q-2.237-12.044-7.92-18.29zm92.905-26.991v16.058h.668a36.327 36.327 0 0 1 15.619-14.608 45.16 45.16 0 0 1 19.627-4.576q12.715 0 20.86 3.46a30.951 30.951 0 0 1 12.824 9.592 37.112 37.112 0 0 1 6.582 14.946 93.056 93.056 0 0 1 1.897 19.519v70.935H217.66v-65.138q0-14.27-4.464-21.303-4.463-7.028-15.836-7.026-12.94 0-18.738 7.695-5.804 7.698-5.8 25.32v60.452h-31.677V680.824zm103.059-17.847v-26.1h31.673v26.1zm31.673 17.847V796.15h-31.673V680.824zm133.955 130.791a39.037 39.037 0 0 1-8.142 16.618q-6.244 7.699-18.068 13.052t-31.677 5.354a73.939 73.939 0 0 1-17.287-2.119 55.04 55.04 0 0 1-16.062-6.582 39.456 39.456 0 0 1-12.045-11.49 33.271 33.271 0 0 1-5.467-16.84h31.455q2.227 8.917 8.698 12.38a31.25 31.25 0 0 0 14.946 3.457q13.385 0 19.519-8.029c4.091-5.354 6.06-19.112 5.913-27.288V774.96h-.447a31.375 31.375 0 0 1-14.611 13.496 47.38 47.38 0 0 1-19.966 4.347q-12.94 0-22.306-4.573a42.274 42.274 0 0 1-15.393-12.492 52.126 52.126 0 0 1-8.81-18.512 87.729 87.729 0 0 1-2.789-22.42 71.903 71.903 0 0 1 3.235-21.528 56.223 56.223 0 0 1 9.48-18.29 45.804 45.804 0 0 1 15.505-12.605 46.551 46.551 0 0 1 21.303-4.685 44.652 44.652 0 0 1 19.966 4.238q8.584 4.243 14.386 14.277h.447v-15.39h30.114V788.79c0 4.61-.634 16.877-1.897 22.825zm-43.384-45.357a24.7 24.7 0 0 0 8.476-7.138 31.66 31.66 0 0 0 5.02-10.149 42.198 42.198 0 0 0 1.671-11.936 65.54 65.54 0 0 0-1.337-13.496 33.77 33.77 0 0 0-4.464-11.264 23.167 23.167 0 0 0-8.254-7.807q-5.134-2.897-12.936-2.9a23.224 23.224 0 0 0-11.49 2.678 24.137 24.137 0 0 0-8.029 7.248 30.533 30.533 0 0 0-4.685 10.486 51.666 51.666 0 0 0-1.45 12.38 62.605 62.605 0 0 0 1.228 12.38 33.326 33.326 0 0 0 4.238 11.042 24.682 24.682 0 0 0 7.917 8.03 22.411 22.411 0 0 0 12.27 3.125 25.215 25.215 0 0 0 11.825-2.679zm71.379-84.766h8.476v23.423h.447a30.687 30.687 0 0 1 4.685-10.152 36.254 36.254 0 0 1 8.142-8.364 38.59 38.59 0 0 1 10.708-5.575 38.132 38.132 0 0 1 12.38-2.01 43.2 43.2 0 0 1 14.277 2.119 33.852 33.852 0 0 1 10.261 5.579 27.646 27.646 0 0 1 6.692 7.807 29.889 29.889 0 0 1 3.347 8.811h.444q5.129-12.049 13.72-18.18 8.585-6.133 22.642-6.136a42.614 42.614 0 0 1 14.39 2.344 30.19 30.19 0 0 1 11.376 7.139 32.726 32.726 0 0 1 7.473 12.154 50.953 50.953 0 0 1 2.676 17.4v78.3h-8.477v-78.522q0-10.928-3.347-17.178a26.88 26.88 0 0 0-7.917-9.48 22.574 22.574 0 0 0-9.148-4.015 45.219 45.219 0 0 0-7.026-.778 37.803 37.803 0 0 0-14.387 2.675 30.508 30.508 0 0 0-11.376 8.03 37.68 37.68 0 0 0-7.474 13.273 56.725 56.725 0 0 0-2.678 18.181v67.813h-8.476v-78.52q0-10.709-3.235-17.066a25.76 25.76 0 0 0-7.583-9.48 22.835 22.835 0 0 0-8.923-4.016 40.227 40.227 0 0 0-7.251-.89 35.793 35.793 0 0 0-24.316 10.035 38.386 38.386 0 0 0-8.698 13.162 49.094 49.094 0 0 0-3.348 18.962v67.813h-8.476zm180.465 58.444v1.337a67.677 67.677 0 0 0 2.685 19.184 48.998 48.998 0 0 0 7.937 16.062 37.638 37.638 0 0 0 13.2 10.93 40.325 40.325 0 0 0 18.45 4.016q17.224 0 27.288-9.032 10.063-9.034 13.868-25.098h8.476q-3.793 20.08-16.393 30.786-12.607 10.708-33.352 10.705-12.714 0-22.194-4.573a45.094 45.094 0 0 1-15.84-12.492 52.966 52.966 0 0 1-9.48-18.738 83.589 83.589 0 0 1-3.122-23.31 81.685 81.685 0 0 1 3.235-23.087 58.007 58.007 0 0 1 9.702-19.41 48.096 48.096 0 0 1 16.174-13.383q9.705-5.016 22.866-5.02a48.493 48.493 0 0 1 21.303 4.464 44.687 44.687 0 0 1 15.503 12.155 54.107 54.107 0 0 1 9.48 17.846 71.251 71.251 0 0 1 3.234 21.75c0 .748-.037 1.601-.11 2.567a30.15 30.15 0 0 0-.112 2.34zm84.322-7.36a68.634 68.634 0 0 0-3.133-17.735 43.979 43.979 0 0 0-7.937-14.724 39.526 39.526 0 0 0-12.752-10.148 37.384 37.384 0 0 0-17.109-3.791 40.115 40.115 0 0 0-18.116 3.903 40.896 40.896 0 0 0-13.199 10.261 45.708 45.708 0 0 0-8.275 14.834 69.65 69.65 0 0 0-3.58 17.4zm116.89 39.036h-.447q-7.14 13.61-17.847 20.413-10.708 6.802-26.097 6.8-12.945 0-22.31-4.906a43.993 43.993 0 0 1-15.39-13.162 56.986 56.986 0 0 1-8.923-19.071 90.891 90.891 0 0 1 .222-46.398 54.005 54.005 0 0 1 9.48-19.075 45.474 45.474 0 0 1 15.952-12.714q9.587-4.684 22.528-4.685a49.78 49.78 0 0 1 13.608 1.897 47.644 47.644 0 0 1 12.38 5.467 39.246 39.246 0 0 1 16.397 20.968h.447v-70.27h8.476V796.15h-8.476zm-42.607 19.853q10.923 0 18.847-4.46a40.177 40.177 0 0 0 13.161-11.823 52.265 52.265 0 0 0 7.807-16.844 73.532 73.532 0 0 0 2.566-19.293 74.439 74.439 0 0 0-2.566-19.519 55.195 55.195 0 0 0-7.694-16.955 38.043 38.043 0 0 0-13.274-11.934 39.105 39.105 0 0 0-19.072-4.46q-11.378 0-19.406 4.348a38.702 38.702 0 0 0-13.274 11.711 48.964 48.964 0 0 0-7.586 16.956 83.515 83.515 0 0 0-2.34 19.853 74.278 74.278 0 0 0 2.566 19.518 52.1 52.1 0 0 0 7.807 16.84 38.601 38.601 0 0 0 13.274 11.712q8.026 4.35 19.184 4.35zm80.081-131.61v-22.979h8.476v22.979zm0 136.295V681.492h8.476V796.15zm111.536-22.753h-.447a35.291 35.291 0 0 1-5.801 9.705 41.096 41.096 0 0 1-9.258 8.142 45.894 45.894 0 0 1-12.38 5.575 54.282 54.282 0 0 1-15.168 2.007q-18.293 0-28.329-7.917-10.042-7.918-10.04-24.425 0-10.043 4.017-16.397a30.412 30.412 0 0 1 10.148-10.039 43.497 43.497 0 0 1 13.609-5.241 133.277 133.277 0 0 1 14.386-2.232l13.162-1.116a77.63 77.63 0 0 0 14.39-2.119 18.355 18.355 0 0 0 7.916-4.016 11.43 11.43 0 0 0 3.348-6.579 62.573 62.573 0 0 0 .668-10.04 21.202 21.202 0 0 0-1.784-8.697 19.55 19.55 0 0 0-5.576-7.139 27.66 27.66 0 0 0-9.817-4.907 52.358 52.358 0 0 0-14.721-1.784q-15.391 0-24.873 7.582-9.484 7.585-10.373 22.979h-8.476q.89-18.96 12.158-28.442 11.26-9.48 32.01-9.483 20.746 0 30.227 8.142 9.475 8.148 9.48 21.303v66.7c0 1.639.034 3.273.112 4.908a16.4 16.4 0 0 0 .778 4.46 6.686 6.686 0 0 0 2.232 3.235 7.071 7.071 0 0 0 4.463 1.228 41.036 41.036 0 0 0 6.245-.669v7.139a26.795 26.795 0 0 1-6.917.89 20.432 20.432 0 0 1-8.142-1.337 10.731 10.731 0 0 1-4.572-3.57 13.152 13.152 0 0 1-2.12-5.24 36.205 36.205 0 0 1-.555-6.583zm0-42.385q-3.128 3.798-9.483 5.133a118.566 118.566 0 0 1-14.165 2.006l-14.277 1.338q-6.245.67-12.49 1.897a36.424 36.424 0 0 0-11.267 4.129 23.063 23.063 0 0 0-8.142 7.916q-3.127 5.022-3.122 13.053 0 12.714 8.03 18.846 8.03 6.142 22.084 6.135 14.5 0 22.979-5.241a40.663 40.663 0 0 0 12.936-12.046 37.028 37.028 0 0 0 5.688-13.161 56.511 56.511 0 0 0 1.229-8.589z"/><path d="M273.922 0h469.322v124.631H273.922z" class="cls-1"/><path fill="#026fc2" d="M273.922 387.309h469.322V511.94H273.922z"/><path d="M273.922 511.94l349.453-188.513V200.386L273.922 387.167V511.94z" class="cls-3"/><path fill="#00beee" d="M623.375 323.427L273.922 124.773V0l349.453 200.386v123.041z"/><path d="M273.922 124.773l217.559-.142L273.922 0v124.773z" class="cls-3"/><path fill="#00afee" d="M623.375 323.427V200.386L511.82 260.011l111.555 63.416z"/><path d="M273.922 511.94V387.167h231.296L273.922 511.94z" class="cls-1"/></svg>