<svg xmlns="http://www.w3.org/2000/svg" role="img" viewBox="-15.80 -15.30 925.60 311.10"><title>EpiSensor logo</title><defs><style>.cls-1{fill:#002b54}</style></defs><path d="M343.848 169.714h-34.64v-66.713h34.64v8.859H318.86v19.977h24.987v8.675H318.86v19.977h24.987zm40.172 0h-9.592v-66.713h15.498a57.975 57.975 0 0 1 9.966.642 18.447 18.447 0 0 1 5.983 2.151 17.64 17.64 0 0 1 6.644 6.936 20.007 20.007 0 0 1 2.474 9.775q0 9.295-6.279 14.811-6.28 5.518-17.003 5.517h-7.691zm0-35.739h7.006q7.463 0 10.827-2.616 3.365-2.614 3.366-8.304 0-5.687-3.412-8.442-3.41-2.752-10.462-2.753h-7.326zm67.067 35.739h-9.652v-66.713h9.652z" class="cls-1"/><path fill="#b1b3b6" d="M477.96 150.47h8.675a12.616 12.616 0 0 0 3.07 8.27 9.554 9.554 0 0 0 7.377 3.093 10.618 10.618 0 0 0 7.995-3.096 11.399 11.399 0 0 0 3.002-8.282q0-4.542-2.2-7.018-2.2-2.48-9.202-4.636-.366-.091-1.237-.32-8.385-2.243-12.134-7.368a16.614 16.614 0 0 1-2.543-4.782 17.015 17.015 0 0 1-.848-5.422q0-8.557 5.078-13.845 5.08-5.283 13.318-5.285 7.641 0 12.333 4.739 4.691 4.736 5.193 12.978h-9.041a9.479 9.479 0 0 0-2.673-6.415 9.001 9.001 0 0 0-12.616.28 9.99 9.99 0 0 0-2.49 7.021 8.628 8.628 0 0 0 .46 2.837 7.726 7.726 0 0 0 1.42 2.47q1.964 2.334 8.419 4.027 2.972.779 4.578 1.327a21.024 21.024 0 0 1 10 7.197 18.82 18.82 0 0 1 3.41 11.321q0 9.674-5.499 15.582-5.492 5.917-14.563 5.915a18.156 18.156 0 0 1-13.852-5.663q-5.338-5.664-5.43-14.925zm101.524 19.244h-34.64v-66.713h34.64v8.859h-24.987v19.977h24.987v8.675h-24.987v19.977h24.987zm40.233 0h-9.653v-66.713h9.943l32.76 50.493L652.28 103h9.53v66.713h-9.259l-33.505-52.005zm68.973-19.244h8.675a12.616 12.616 0 0 0 3.07 8.27 9.553 9.553 0 0 0 7.377 3.093 10.619 10.619 0 0 0 7.995-3.096 11.399 11.399 0 0 0 3.001-8.282q0-4.542-2.199-7.018-2.2-2.48-9.202-4.636-.366-.091-1.237-.32-8.385-2.243-12.135-7.368a16.633 16.633 0 0 1-2.543-4.782 17.024 17.024 0 0 1-.847-5.422q0-8.557 5.078-13.845 5.08-5.283 13.318-5.285 7.64 0 12.333 4.739 4.69 4.736 5.193 12.978h-9.041a9.48 9.48 0 0 0-2.673-6.415 9.001 9.001 0 0 0-12.616.28 9.99 9.99 0 0 0-2.49 7.021 8.617 8.617 0 0 0 .459 2.837 7.732 7.732 0 0 0 1.42 2.47q1.965 2.334 8.42 4.027 2.972.779 4.578 1.327a21.024 21.024 0 0 1 10 7.197 18.823 18.823 0 0 1 3.41 11.321q0 9.674-5.499 15.582-5.492 5.917-14.563 5.915a18.156 18.156 0 0 1-13.853-5.663q-5.337-5.664-5.429-14.925zm63.891-14.525a33.754 33.754 0 0 1 2.658-13.293 34.792 34.792 0 0 1 7.785-11.323 33.755 33.755 0 0 1 10.79-7.22 33.069 33.069 0 0 1 12.757-2.452 34.382 34.382 0 0 1 31.562 20.949 34.48 34.48 0 0 1 2.565 13.34 37.655 37.655 0 0 1-2.199 13.086 32.042 32.042 0 0 1-6.594 10.75 35.303 35.303 0 0 1-11.57 8.435 33.736 33.736 0 0 1-13.856 2.84 33.066 33.066 0 0 1-13.856-2.885 34.066 34.066 0 0 1-11.386-8.572 32.517 32.517 0 0 1-6.457-10.75 37.36 37.36 0 0 1-2.199-12.905zm10.08.077a27.96 27.96 0 0 0 1.741 9.88 23.187 23.187 0 0 0 4.99 8.047 24.71 24.71 0 0 0 7.92 5.547 22.597 22.597 0 0 0 9.16 1.97 22.846 22.846 0 0 0 17.308-7.357 25.569 25.569 0 0 0 6.96-18.27 23.612 23.612 0 0 0-1.672-8.827 26.203 26.203 0 0 0-13.001-13.755 24.035 24.035 0 0 0-18.572-.16 22.736 22.736 0 0 0-7.552 5.181 25.632 25.632 0 0 0-5.361 8.207 24.922 24.922 0 0 0-1.92 9.537zm95.181 33.692h-9.652v-66.713h19.21q12.005 0 18.331 5.546 6.323 5.547 6.323 16.043a18.855 18.855 0 0 1-5.296 13.637 19.567 19.567 0 0 1-13.642 5.89l18.938 25.597h-12.092l-22.12-30.97zm0-32.073h4.937q10.046 0 14.957-3.254 4.908-3.253 4.91-9.896 0-6.461-4.223-9.485-4.221-3.024-13.356-3.024h-7.225z"/><path fill="#e1134f" d="M139.983 2.795a137.791 137.791 0 1 0 137.807 137.79A137.789 137.789 0 0 0 139.983 2.794zm0 241.134A103.341 103.341 0 1 1 243.34 140.584 103.345 103.345 0 0 1 139.983 243.93z"/><path d="M139.983 56.604a83.968 83.968 0 1 0 83.983 83.98 83.984 83.984 0 0 0-83.983-83.98zm23.744 46.644a40.825 40.825 0 0 0-23.856-7.18 40.296 40.296 0 0 0-16.308 3.491 43.39 43.39 0 0 0-14.076 9.832 40.93 40.93 0 0 0-8.887 14.235 49.154 49.154 0 0 0-3.097 17.504 43.848 43.848 0 0 0 3.415 16.885 45.136 45.136 0 0 0 9.542 14.536 40.71 40.71 0 0 0 13.454 9.175 41.412 41.412 0 0 0 15.972 3.158 42.292 42.292 0 0 0 18.16-3.8 38.058 38.058 0 0 0 14.026-11.343h21.098a52.354 52.354 0 0 1-20.476 23.89q-13.522 8.403-31.531 8.408a63.114 63.114 0 0 1-23.68-4.261 57.08 57.08 0 0 1-19.293-12.875 61.62 61.62 0 0 1-13.835-20.046 59.715 59.715 0 0 1-4.708-23.536 66.018 66.018 0 0 1 3.893-22.867 57.573 57.573 0 0 1 11.474-19.038 60.077 60.077 0 0 1 20.22-15.174 58.925 58.925 0 0 1 24.637-5.14q25.707 0 42.478 17.156 16.755 17.162 17.985 44.823H127.01v-16.66h53.744q-6.679-14.003-17.026-21.173z" class="cls-1"/></svg>