<svg xmlns="http://www.w3.org/2000/svg" role="img" viewBox="-2.07 -2.07 107.51 98.51"><title>Equinix Metal logo</title><style>svg {enable-background:new 0 0 103.4 94.2}</style><style>.st0{fill:#707073}</style><path d="M0 65.5h103.4v.5H0z" class="st0"/><path d="M20.2 82.9h2.2l3.7 5.4 3.6-5.4H32v11.4h-2.1v-8.1l-3.8 5.4H26l-3.7-5.3v8.1h-2.1V82.9zm16 0H45v1.8h-6.7v3h6v1.8h-6v3h6.8v1.8h-8.9V82.9zm16 1.8h-3.8v-1.9h9.7v1.9h-3.8v9.5h-2.1v-9.5zm11.9-1.9h2l5.2 11.4h-2.2l-1.2-2.7h-5.6L61 94.2h-2.1l5.2-11.4zm3 6.9L65 85.2l-2 4.5h4.1zm7.7-6.8h2.1v9.5h6.3v1.8h-8.4V82.9z" class="st0"/><path d="M0 38.6v10.6h9.4v-1.4H1.5v-3.4h5.1V43H1.5v-3h7.6v-1.4zM41.8 45c0 1.9-1.2 3.1-3.1 3.1-1.8 0-2.9-1.3-2.9-3.1v-6.3h-1.5V45c0 2.9 2.1 4.4 4.4 4.4 3.5 0 4.6-2.4 4.6-4.4v-6.4h-1.5V45zm10-6.4h1.5v10.5h-1.5zm19.6 0v8.3l-7.5-8.3h-1.5v10.6h1.5v-8.4l7.5 8.4h1.5V38.6zm10.6 0h1.5v10.5H82zm18.8 0l-3.5 3.8-3.4-3.8h-2l4.3 4.9-5.3 5.7h1.9l4.4-4.7 4.1 4.7h2.1l-5.1-5.7 4.4-4.9zm-79.9-.4c-3.1 0-5.6 2.4-5.6 5.7 0 3.3 2.5 5.6 5.6 5.6.8 0 1.7-.2 2.5-.6l.9 1h1.8l-1.5-1.7c1.2-.9 2-2.5 2-4.4-.1-3.3-2.5-5.6-5.7-5.6m4.1 5.7c0 1.5-.5 2.5-1.4 3.3l-.8-.9H21l1.4 1.7c-.4.2-1 .3-1.5.3-2.3 0-4.1-1.8-4.1-4.3s1.7-4.3 4-4.3c2.4-.2 4.2 1.6 4.2 4.2z"/><path fill="#ed1c24" d="M52.5 0l-4.3 1.5V24l-2.8-1V2.5l-8.6 3V20l-2.9-1V6.5l-2.9 1v13.6l8.6 3V7.5l2.9-1v18.6l8.6 3V3.5l1.4-.5 1.5.5v24.6l8.5-3V6.5l2.9 1v16.6l8.6-3V7.5l-2.9-1V19l-2.8 1V5.5l-8.6-3V23l-2.9 1V1.5zm27 20.1c1.4 0 2.6-1.2 2.6-2.6 0-1.4-1.1-2.6-2.6-2.6-1.4 0-2.6 1.2-2.6 2.6 0 1.5 1.1 2.6 2.6 2.6m0-.3c-1.3 0-2.3-1-2.3-2.3 0-1.3 1-2.3 2.3-2.3 1.3 0 2.3 1 2.3 2.3 0 1.3-1 2.3-2.3 2.3m-1.1-1h.7V18h.4l.6.8h.8l-.7-1c.4-.1.6-.4.6-.8 0-.6-.5-.9-1.1-.9h-1.3v2.7zm.7-1.4v-.7h.6c.3 0 .5.1.5.4 0 .2-.2.4-.5.4h-.6z"/></svg>