<svg xmlns="http://www.w3.org/2000/svg" role="img" viewBox="-5.23 -5.23 271.70 136.70"><title>Equinix logo</title><path fill="#ee2722" d="M179.88884 16.44082v31.71014l-7.23582 2.53273V13.91701l-21.73946-7.58794v51.93777l-7.24115 2.52393V3.79327L132.81228.00588l-10.86533 3.78737v56.99751l-7.24248-2.52393V6.32907L92.97634 13.917V50.6837l-7.23942-2.53273V16.44082l-7.25088 2.5318v34.3262l21.73279 7.58368V19.05688l7.24675-2.52807v46.88176l21.72599 7.58781V8.941l3.62071-1.26397 3.6203 1.26397v62.05738l21.73413-7.5878V16.5288l7.23715 2.52807V60.8825l21.73013-7.58367V18.97262l-7.24515-2.5318"/><path fill="#231f20" d="M3.89574 112.24989h12.89237v-3.50512H3.89574v-7.55607h19.22608v-3.49205H0v26.6738h23.7994v-3.44002H3.89575v-8.68054m101.70789 1.49479c0 4.76549-3.1562 7.9149-7.83887 7.9149-4.54936 0-7.39102-3.19002-7.39102-7.9149v-15.9767h-3.8571v16.15637c0 7.26909 5.24933 11.23254 11.21785 11.23254 8.82018 0 11.69037-6.02068 11.69037-11.23254V97.76798h-3.82123v15.9767m25.2967 10.6216h3.82564V97.69665h-3.82564v26.66963m49.53516-5.76913l-18.92753-20.8969h-3.7839v26.6702h3.8279v-21.07234l18.95953 21.07234h3.7359v-26.6702h-3.8119v20.8969m27.03399 5.76913h3.82257V97.69665h-3.82257v26.66963m41.04297-14.4694l11.10906-12.2289h-4.72122l-8.81444 9.58576-8.57712-9.58576h-4.99588l10.71307 12.23663-13.397 14.45803h4.88788l10.99039-11.86956 10.47707 11.86956h5.30387l-12.97568-14.46576M52.90028 96.62014c-7.94834.052-14.07258 6.06439-14.07258 14.4579v.10267c0 8.33829 6.27584 14.21054 14.1627 14.15846 2.02902-.01562 4.42176-.5453 6.22372-1.47132l2.17075 2.50515 4.44988-.00885-3.80403-4.36188c3.11405-2.3765 5.078-6.28786 5.078-11.12368v-.10413c0-8.28886-6.2957-14.21431-14.20844-14.15432m10.2288 14.39751c0 3.76867-1.22183 6.22017-3.44617 8.31386l-2.06982-2.39734-4.44202-.0073 3.63684 4.17386c-.88957.42708-2.48993.77394-3.7363.7828-5.71133.0354-10.25135-4.57385-10.25135-10.83828l-.0036-.09533c0-6.37944 4.25456-10.8888 9.99762-10.91746 5.74212-.0468 10.3148 4.53802 10.3148 10.87733v.10786"/><path fill="#ee2722" d="M201.00564 50.89462c3.63591 0 6.5225-3.003 6.5225-6.5633v-.0396c0-3.56031-2.85059-6.5269-6.5225-6.5269-3.6399 0-6.5265 3.00245-6.5265 6.5665v.03586c0 3.56138 2.84926 6.52744 6.5265 6.52744m0-.71345c-3.29725 0-5.77452-2.62393-5.77452-5.81399v-.03586c0-3.18952 2.50927-5.84932 5.77452-5.84932 3.29725 0 5.77319 2.6238 5.77319 5.80972v.0396c0 3.18632-2.51194 5.84985-5.77319 5.84985m-2.69993-2.58793h1.65062v-2.13755h1.04931l1.46263 2.13755h1.98529l-1.7213-2.43648c.90132-.30252 1.49863-1.0129 1.49863-2.10141 0-1.5349-1.16397-2.25261-2.7426-2.25261h-3.18258zm1.65062-3.48538V42.2303h1.42397c.70931 0 1.1653.33853 1.1653.93691 0 .56612-.41199.94065-1.1653.94065h-1.42397"/></svg>