<svg xmlns="http://www.w3.org/2000/svg" role="img" viewBox="-1.49 -1.49 285.48 251.48"><title>Ericsson logo</title><path fill="#002561" d="M102.39 67.897a16.124 16.124 0 0 1-11.102-30.276l89.147-32.684a16.123 16.123 0 0 1 11.1 30.275zm0 48.253a16.124 16.124 0 0 1-11.102-30.277l89.147-32.684a16.123 16.123 0 0 1 11.1 30.276zm0 48.253a16.124 16.124 0 0 1-11.102-30.277l89.147-32.686a16.124 16.124 0 0 1 11.1 30.278zM4.228 204.496h29.904v8.127H14.788v7.065h18.551v8.432H14.788v7.296h19.658v8.186H4.228v-39.106zm76.374 0h10.641v39.13H80.602v-39.13zm49.453 1.256l-.714 8.375c-8.595-4.974-21.77-3.39-22.002 9.656-.242 13.034 13.566 14.938 22.321 10.51l.55 8.547c-15.458 4.816-33.924-.083-33.843-19.057.078-18.587 18.696-23.728 33.688-18.031zm31.321-.605l-.716 8.148c-5.361-2.954-15.542-3.031-15.542 1.606 0 6.866 18.147 1.91 18.147 16.612 0 14.464-17.274 14.625-28.48 11.27l.794-8.625c7.02 3.272 16.962 3.988 16.962-1.684 0-6.23-18.226-2.72-18.226-16.7 0-11.467 14.2-14.54 27.061-10.627zm32.101 0l-.707 8.148c-5.367-2.954-15.541-3.031-15.541 1.606 0 6.866 18.146 1.91 18.146 16.612 0 14.464-17.281 14.625-28.487 11.27l.798-8.625c7.017 3.272 16.956 3.988 16.956-1.684 0-6.23-18.22-2.72-18.22-16.7 0-11.467 14.198-14.54 27.055-10.627zm48.993-.651h13.48l12.864 25.239v-25.239h9.782v39.13h-12.698l-13.567-25.716v25.716h-9.861v-39.13zm-24.534-.943c11.054.008 19.484 6.476 19.484 20.591 0 13.492-8.474 20.434-19.484 20.434-10.991.004-19.414-6.781-19.414-20.434 0-14.115 8.379-20.59 19.414-20.59zm-8.521 20.591c0 5.964 2.557 12.714 8.521 12.704 5.965-.008 8.474-6.74 8.518-12.704.044-5.392-2.553-12.69-8.518-12.7-5.964-.002-8.521 6.74-8.521 12.7zm-157.378-3.16h5.837c2.627.043 4.996-1.536 4.97-4.421a4.45 4.45 0 0 0-4.815-4.333h-5.992v8.754zm-10.179-16.488h19.173c5.208 0 12.46 2.286 12.46 10.416 0 5.199-2.36 8.115-6.843 9.464a6.034 6.034 0 0 1 3.531 3.949c.038.097 5.484 15.265 5.548 15.301H64.422l-4.024-11.758a4.016 4.016 0 0 0-3.867-3c-1.657 0-4.26-.107-4.26 0v14.758H41.858v-39.13z"/></svg>