<svg xmlns="http://www.w3.org/2000/svg" role="img" viewBox="-0.39 -0.89 592.28 229.28"><title>ETRI logo</title><defs><style>.cls-1{fill:#0066a6}.cls-2{fill:#f15a22}</style></defs><path d="M536.691 10.714h43.863v110.113h-43.863zm-356.051 0v23.17h51.286v86.943h43.976V33.884h51.302v-23.17H180.64zm-25.955 23.17v-23.17H11.468v89.042a21.044 21.044 0 0 0 21.037 21.041h122.18V97.613H55.453V77.34h99.232V54.164H55.453v-20.28z" class="cls-1"/><path d="M459.452 69.472h-51.764l59.371 58.727h51.768l-59.375-58.727z" class="cls-2"/><path d="M482.415 10.714H349.24v110.113h43.986V33.884h66.239v35.588h43.996V31.734a21.026 21.026 0 0 0-21.046-21.02z" class="cls-2"/><path d="M11.49 148.49h14.05v4.262h-9.275v6.666h8.49v4.261h-8.49v7.596h9.343v4.263H11.491zm18.654-2.016h4.57v29.064h-4.57zm12.618 17.129c.203-2.674 1.5-4.689 4.057-4.689s3.58 2.17 3.715 4.689zm10.842 6.586a10.846 10.846 0 0 1-5.83 2.016c-2.831 0-4.809-1.82-5.012-5.038H54.9c0-6.974-1.841-12.051-8.355-12.051-5.456 0-8.149 4.766-8.149 10.54 0 6.55 3.376 10.346 9.174 10.346a10.904 10.904 0 0 0 6.034-1.589zm16.268-10.307a6.23 6.23 0 0 0-3.105-.736c-2.828 0-4.637 2.558-4.637 6.317 0 3.68 1.535 6.51 4.74 6.51a8.737 8.737 0 0 0 3.512-.93l.204 4.301a13.22 13.22 0 0 1-4.567.658c-5.763 0-8.662-4.456-8.662-10.54 0-5.773 3-10.346 8.491-10.346a13.187 13.187 0 0 1 4.431.66zm5.251-.503h-3.377v-3.799h3.377v-3.99l4.569-1.667v5.657h4.057v3.799h-4.057v9.3c0 1.705.41 3.294 2.148 3.294a3.696 3.696 0 0 0 2.08-.543l.135 4.108a10.65 10.65 0 0 1-3.376.464c-3.58 0-5.556-2.518-5.556-6.47zm11.867-3.799h4.057v4.535h.067c.206-1.86 2.08-5 4.809-5a4.396 4.396 0 0 1 1.399.156v5.232a4.178 4.178 0 0 0-2.048-.427c-3.718 0-3.718 5.27-3.718 8.138v7.324H86.99zm16.202 9.495c0-2.983 1.432-5.929 4.399-5.929 3.002 0 4.434 2.868 4.434 5.929 0 3.332-.92 6.898-4.434 6.898-3.48 0-4.399-3.605-4.399-6.898zm-4.772.62c0 5.735 3.376 10.307 9.171 10.307 5.83 0 9.207-4.572 9.207-10.307 0-6.588-3.99-10.58-9.207-10.58-5.182 0-9.171 3.992-9.171 10.58zm21.96-10.115h4.33v2.714h.066a6.323 6.323 0 0 1 5.765-3.178c4.16 0 5.967 3.332 5.967 7.827v12.595h-4.567V164.88c0-2.441-.036-5.735-2.97-5.735-3.306 0-4.024 4.069-4.024 6.626v9.766h-4.567zm20.936 0h4.572v19.958h-4.572zm0-8.602h4.572v4.96h-4.572zm20.769 12.904a6.229 6.229 0 0 0-3.105-.736c-2.828 0-4.637 2.558-4.637 6.317 0 3.68 1.535 6.51 4.74 6.51a8.737 8.737 0 0 0 3.512-.93l.204 4.301a13.22 13.22 0 0 1-4.567.658c-5.763 0-8.662-4.456-8.662-10.54 0-5.773 3-10.346 8.491-10.346a13.187 13.187 0 0 1 4.431.66zm14.184-.116a10.021 10.021 0 0 0-4.09-.852c-1.231 0-2.696.504-2.696 2.208 0 3.178 7.946 1.163 7.946 8.37 0 4.65-3.647 6.51-7.365 6.51a18.185 18.185 0 0 1-5.185-.852l.274-4.262a9.096 9.096 0 0 0 4.501 1.317c1.158 0 3.002-.503 3.002-2.441 0-3.914-7.948-1.24-7.948-8.448 0-4.301 3.308-6.2 6.888-6.2a18.7 18.7 0 0 1 4.98.736zm17.426 9.998c0-3.061 3.034-3.45 5.082-3.45h1.974a7.285 7.285 0 0 1-.954 4.11 3.74 3.74 0 0 1-3.206 1.781c-1.635 0-2.896-.736-2.896-2.441zm-2.319-8.68a8.514 8.514 0 0 1 5.421-2.17c2.693 0 3.954 1.085 3.954 4.3h-2.522a12.424 12.424 0 0 0-5.898 1.164c-1.739.968-3.002 2.712-3.002 5.696a5.88 5.88 0 0 0 6.137 5.928 6.152 6.152 0 0 0 5.423-3.449h.068a27.853 27.853 0 0 0 .206 2.985h4.025a97.002 97.002 0 0 1-.206-4.457 194.783 194.783 0 0 1-.068-4.999v-2.557c0-5.89-2.218-8.41-7.572-8.41a14.14 14.14 0 0 0-6.101 1.512zm18.037-5.504h4.33v2.714h.071a6.319 6.319 0 0 1 5.763-3.178c4.16 0 5.968 3.332 5.968 7.827v12.595h-4.572V164.88c0-2.441-.032-5.735-2.964-5.735-3.308 0-4.024 4.069-4.024 6.626v9.766h-4.572zm24.487 9.92c0-2.672.817-6.354 3.784-6.354 2.934 0 4.092 3.565 4.092 6.355 0 2.83-.987 6.472-4.024 6.472-3.002 0-3.851-3.72-3.851-6.472zm8.047 10.038h4.434v-29.064h-4.572v11.433h-.066a5.991 5.991 0 0 0-5.252-2.791c-5.389 0-7.366 4.883-7.366 10.385 0 5.463 1.977 10.501 7.366 10.501a6.213 6.213 0 0 0 5.388-2.711h.068zm23.36-22.786h-6.823v-4.262H276.9v4.262h-6.82v22.786h-4.774zm13.678 10.851c.203-2.674 1.5-4.689 4.057-4.689s3.582 2.17 3.718 4.689zm10.844 6.586a10.862 10.862 0 0 1-5.833 2.016c-2.828 0-4.808-1.82-5.011-5.038h12.14c0-6.974-1.843-12.051-8.355-12.051-5.456 0-8.149 4.766-8.149 10.54 0 6.55 3.377 10.346 9.172 10.346a10.92 10.92 0 0 0 6.036-1.589zm4.979-23.715h4.57v29.064h-4.57zm12.616 17.129c.206-2.674 1.502-4.689 4.06-4.689s3.58 2.17 3.717 4.689zm10.845 6.586a10.86 10.86 0 0 1-5.831 2.016c-2.831 0-4.808-1.82-5.014-5.038h12.14c0-6.974-1.84-12.051-8.354-12.051-5.454 0-8.15 4.766-8.15 10.54 0 6.55 3.377 10.346 9.172 10.346a10.907 10.907 0 0 0 6.036-1.589zm16.265-10.307a6.211 6.211 0 0 0-3.102-.736c-2.831 0-4.638 2.558-4.638 6.317 0 3.68 1.535 6.51 4.74 6.51a8.724 8.724 0 0 0 3.513-.93l.206 4.301a13.25 13.25 0 0 1-4.572.658c-5.763 0-8.662-4.456-8.662-10.54 0-5.773 3.002-10.346 8.49-10.346a13.207 13.207 0 0 1 4.437.66zm7.401 5.193c0-2.983 1.432-5.929 4.398-5.929 3.002 0 4.434 2.868 4.434 5.929 0 3.332-.922 6.898-4.434 6.898-3.479 0-4.398-3.605-4.398-6.898zm-4.773.62c0 5.735 3.376 10.307 9.171 10.307 5.83 0 9.207-4.572 9.207-10.307 0-6.588-3.989-10.58-9.207-10.58-5.182 0-9.171 3.992-9.171 10.58zm21.89-10.115h4.263v2.791h.068a6.022 6.022 0 0 1 5.217-3.255 5.092 5.092 0 0 1 5.183 3.527 5.921 5.921 0 0 1 5.491-3.527c4.33 0 5.56 3.37 5.56 7.827v12.595h-4.57v-11.896c0-1.86 0-4.496-2.628-4.496-3.034 0-3.409 4.108-3.409 6.704v9.688h-4.569v-11.896c0-1.86 0-4.496-2.625-4.496-3.037 0-3.409 4.108-3.409 6.704v9.688h-4.572zm30.316 0h4.263v2.791h.068a6.022 6.022 0 0 1 5.217-3.255 5.092 5.092 0 0 1 5.182 3.527 5.922 5.922 0 0 1 5.492-3.527c4.33 0 5.557 3.37 5.557 7.827v12.595h-4.567v-11.896c0-1.86 0-4.496-2.628-4.496-3.035 0-3.409 4.108-3.409 6.704v9.688h-4.57v-11.896c0-1.86 0-4.496-2.627-4.496-3.035 0-3.409 4.108-3.409 6.704v9.688h-4.57zm46.513 19.958h-4.33v-2.713h-.068a7.049 7.049 0 0 1-5.766 3.177c-4.16 0-5.966-3.332-5.966-7.827V155.58h4.57v10.658c0 2.44.035 5.735 2.966 5.735 3.309 0 4.025-4.07 4.025-6.627v-9.766h4.57zm4.705-19.958h4.331v2.714h.068a6.319 6.319 0 0 1 5.763-3.178c4.16 0 5.968 3.332 5.968 7.827v12.595h-4.57V164.88c0-2.441-.032-5.735-2.966-5.735-3.306 0-4.024 4.069-4.024 6.626v9.766h-4.57zm20.938 0h4.57v19.958h-4.57zm0-8.602h4.57v4.96h-4.57zm20.768 12.904a6.22 6.22 0 0 0-3.103-.736c-2.83 0-4.637 2.558-4.637 6.317 0 3.68 1.532 6.51 4.738 6.51a8.724 8.724 0 0 0 3.512-.93l.206 4.301a13.234 13.234 0 0 1-4.57.658c-5.762 0-8.661-4.456-8.661-10.54 0-5.773 3.002-10.346 8.49-10.346a13.191 13.191 0 0 1 4.434.66zm6.991 9.882c0-3.061 3.034-3.45 5.08-3.45h1.979a7.326 7.326 0 0 1-.955 4.11 3.75 3.75 0 0 1-3.205 1.781c-1.638 0-2.9-.736-2.9-2.441zm-2.321-8.68a8.53 8.53 0 0 1 5.423-2.17c2.696 0 3.957 1.085 3.957 4.3h-2.525a12.44 12.44 0 0 0-5.9 1.164c-1.74.968-3 2.712-3 5.696a5.88 5.88 0 0 0 6.14 5.928 6.149 6.149 0 0 0 5.42-3.449h.068a27.101 27.101 0 0 0 .204 2.985h4.024c-.1-1.55-.17-2.946-.203-4.457-.033-1.472-.068-2.983-.068-4.999v-2.557c0-5.89-2.216-8.41-7.572-8.41a14.15 14.15 0 0 0-6.104 1.512zm19.541-1.705h-3.376v-3.799h3.376v-3.99l4.57-1.667v5.657h4.06v3.799h-4.06v9.3c0 1.705.41 3.294 2.147 3.294a3.696 3.696 0 0 0 2.08-.543l.138 4.108a10.672 10.672 0 0 1-3.376.464c-3.582 0-5.559-2.518-5.559-6.47zm11.867-3.799h4.57v19.958h-4.57zm0-8.602h4.57v4.96h-4.57zm13.025 18.097c0-2.983 1.432-5.929 4.401-5.929 3 0 4.432 2.868 4.432 5.929 0 3.332-.92 6.898-4.432 6.898-3.479 0-4.4-3.605-4.4-6.898zm-4.773.62c0 5.735 3.377 10.307 9.174 10.307 5.83 0 9.205-4.572 9.205-10.307 0-6.588-3.99-10.58-9.205-10.58-5.185 0-9.174 3.992-9.174 10.58zm21.961-10.115h4.33v2.714h.068a6.319 6.319 0 0 1 5.763-3.178c4.163 0 5.969 3.332 5.969 7.827v12.595h-4.57V164.88c0-2.441-.035-5.735-2.969-5.735-3.306 0-4.022 4.069-4.022 6.626v9.766h-4.57zm31.27 4.186a10.025 10.025 0 0 0-4.092-.852c-1.228 0-2.696.504-2.696 2.208 0 3.178 7.949 1.163 7.949 8.37 0 4.65-3.65 6.51-7.368 6.51a18.154 18.154 0 0 1-5.183-.852l.272-4.262a9.103 9.103 0 0 0 4.501 1.317c1.16 0 3.002-.503 3.002-2.441 0-3.914-7.945-1.24-7.945-8.448 0-4.301 3.308-6.2 6.888-6.2a18.7 18.7 0 0 1 4.979.736zM15.855 193.91h1.569c2.388 0 5.047.27 5.047 3.527 0 3.37-2.694 3.758-5.047 3.758h-1.569zm-4.774 22.785h4.774v-11.237h1.535c2.012 0 2.625.775 3.307 2.79l2.865 8.447h5.32l-3.819-10.58c-.478-1.2-1.228-2.672-2.523-2.789v-.077c3.034-.466 4.91-3.1 4.91-6.277 0-7.519-6.105-7.324-11.22-7.324h-5.149zm24.075-11.935c.205-2.674 1.502-4.688 4.059-4.688s3.58 2.169 3.718 4.689zM46 211.348a10.861 10.861 0 0 1-5.83 2.016c-2.832 0-4.809-1.821-5.014-5.038h12.14c0-6.975-1.841-12.051-8.355-12.051-5.456 0-8.149 4.766-8.149 10.54 0 6.55 3.374 10.346 9.172 10.346a10.907 10.907 0 0 0 6.036-1.59zm15.311-10.425a10.025 10.025 0 0 0-4.092-.851c-1.228 0-2.693.503-2.693 2.208 0 3.178 7.946 1.163 7.946 8.37 0 4.65-3.65 6.51-7.366 6.51a18.173 18.173 0 0 1-5.185-.853l.274-4.261a9.094 9.094 0 0 0 4.5 1.317c1.16 0 3.001-.504 3.001-2.442 0-3.913-7.945-1.24-7.945-8.448 0-4.3 3.308-6.2 6.888-6.2a18.7 18.7 0 0 1 4.979.737zm7.946 3.837c.203-2.674 1.5-4.688 4.057-4.688s3.582 2.169 3.718 4.689zm10.844 6.587a10.87 10.87 0 0 1-5.833 2.016c-2.828 0-4.808-1.821-5.011-5.038h12.14c0-6.975-1.843-12.051-8.354-12.051-5.457 0-8.15 4.766-8.15 10.54 0 6.55 3.374 10.346 9.172 10.346a10.92 10.92 0 0 0 6.036-1.589zm8.115-.426c0-3.06 3.034-3.449 5.081-3.449h1.977a7.305 7.305 0 0 1-.954 4.109 3.744 3.744 0 0 1-3.206 1.782c-1.637 0-2.898-.736-2.898-2.442zm-2.317-8.68a8.514 8.514 0 0 1 5.421-2.17c2.693 0 3.954 1.086 3.954 4.301h-2.522a12.424 12.424 0 0 0-5.898 1.164c-1.74.968-3.002 2.711-3.002 5.696a5.879 5.879 0 0 0 6.137 5.928 6.146 6.146 0 0 0 5.421-3.449h.07a28.434 28.434 0 0 0 .204 2.984h4.024a97.034 97.034 0 0 1-.203-4.456c-.035-1.472-.07-2.983-.07-4.999v-2.557c0-5.89-2.216-8.41-7.57-8.41a14.15 14.15 0 0 0-6.104 1.512zm18.14-5.503h4.057v4.535h.07c.204-1.86 2.08-5 4.808-5a4.388 4.388 0 0 1 1.397.156v5.232a4.16 4.16 0 0 0-2.045-.427c-3.717 0-3.717 5.27-3.717 8.137v7.324h-4.57zm23.945 4.302a6.219 6.219 0 0 0-3.102-.736c-2.831 0-4.638 2.557-4.638 6.317 0 3.68 1.533 6.51 4.738 6.51a8.725 8.725 0 0 0 3.512-.931l.206 4.302a13.233 13.233 0 0 1-4.57.658c-5.762 0-8.661-4.456-8.661-10.54 0-5.773 3.002-10.346 8.49-10.346a13.192 13.192 0 0 1 4.435.659zm3.751-13.408h4.57v11.82h.067a6.337 6.337 0 0 1 5.524-3.178c4.16 0 5.966 3.332 5.966 7.827v12.594h-4.567V206.04c0-2.442-.035-5.735-2.97-5.735-3.305 0-4.02 4.068-4.02 6.626v9.765h-4.57zm30.315 2.016h4.773v27.047h-4.773zm9.48 7.09h4.332v2.713h.065a6.321 6.321 0 0 1 5.763-3.177c4.162 0 5.968 3.332 5.968 7.827v12.594h-4.567V206.04c0-2.442-.035-5.735-2.969-5.735-3.306 0-4.024 4.068-4.024 6.626v9.765h-4.567zm31.271 4.185a10.037 10.037 0 0 0-4.095-.851c-1.225 0-2.692.503-2.692 2.208 0 3.178 7.945 1.163 7.945 8.37 0 4.65-3.65 6.51-7.365 6.51a18.125 18.125 0 0 1-5.183-.853l.272-4.261a9.103 9.103 0 0 0 4.501 1.317c1.16 0 3-.504 3-2.442 0-3.913-7.943-1.24-7.943-8.448 0-4.3 3.306-6.2 6.888-6.2a18.717 18.717 0 0 1 4.979.737zm6.205-.386h-3.376v-3.799h3.376v-3.99l4.57-1.667v5.657h4.056v3.799h-4.057v9.3c0 1.705.41 3.294 2.148 3.294a3.697 3.697 0 0 0 2.08-.543l.136 4.107a10.65 10.65 0 0 1-3.376.465c-3.58 0-5.557-2.518-5.557-6.471zm11.867-3.799h4.567v19.957h-4.567zm0-8.602h4.567v4.96h-4.567zm10.877 12.401h-3.376v-3.799h3.376v-3.99l4.57-1.667v5.657h4.057v3.799h-4.057v9.3c0 1.705.41 3.294 2.148 3.294a3.697 3.697 0 0 0 2.08-.543l.135 4.107a10.65 10.65 0 0 1-3.376.465c-3.577 0-5.557-2.518-5.557-6.471zm27.894 16.158h-4.33v-2.713h-.068a7.048 7.048 0 0 1-5.763 3.178c-4.163 0-5.969-3.332-5.969-7.827v-12.595h4.57v10.658c0 2.44.035 5.735 2.967 5.735 3.308 0 4.024-4.07 4.024-6.627v-9.766h4.57zm6.206-16.158h-3.377v-3.799h3.376v-3.99l4.572-1.667v5.657h4.057v3.799h-4.057v9.3c0 1.705.407 3.294 2.148 3.294a3.703 3.703 0 0 0 2.08-.543l.136 4.107a10.655 10.655 0 0 1-3.374.465c-3.582 0-5.562-2.518-5.562-6.471zm15.006 4.223c.204-2.674 1.497-4.688 4.057-4.688 2.558 0 3.58 2.169 3.716 4.689zm10.842 6.587a10.854 10.854 0 0 1-5.83 2.016c-2.831 0-4.808-1.821-5.012-5.038h12.139c0-6.975-1.842-12.051-8.356-12.051-5.456 0-8.149 4.766-8.149 10.54 0 6.55 3.376 10.346 9.174 10.346a10.904 10.904 0 0 0 6.034-1.589z" class="cls-1"/></svg>