<svg xmlns="http://www.w3.org/2000/svg" role="img" viewBox="-6.63 -6.63 344.76 169.76"><title>Federated Wireless logo</title><path fill="#142735" d="M24.92964 50.43752h-.34532c-.71718-.20786-1.65463-.42292-2.81246-.64332-1.1609-.21812-2.17862-.33065-3.0562-.33065-2.80352 0-4.8316.61825-6.09514 1.85928-1.26247 1.23544-1.89267 3.47392-1.89267 6.71917v1.3177H22.5005v5.4868H10.93931v33.29396H4.41134V64.8465H0v-5.4868h4.41134v-1.2865c0-4.60614 1.1427-8.13992 3.4343-10.60333 2.29161-2.4666 5.60296-3.69937 9.93098-3.69937 1.45837 0 2.77073.06666 3.9411.20626 1.16717.14053 2.23955.30093 3.21192.48745v5.97332m30.24298 23.9894c-.02613-3.42431-.88651-6.07371-2.58433-7.94713-1.7041-1.87556-4.29363-2.815-7.76488-2.815-3.49378 0-6.27797 1.0281-8.34832 3.09046-2.07382 2.06035-3.24565 4.61921-3.52378 7.67167zm6.3513 5.00254H32.95132c0 2.38328.35666 4.4603 1.07184 6.23478.72185 1.76716 1.70409 3.22272 2.9562 4.35403 1.20303 1.1109 2.6306 1.94781 4.28682 2.50153 1.65356.55306 3.47338.82905 5.4676.82905 2.64153 0 5.29613-.52439 7.96953-1.5765 2.67447-1.05104 4.57495-2.09008 5.70919-3.10818h.35052v7.11702c-2.2014.9285-4.44468 1.70302-6.7373 2.327-2.2906.626-4.69988.93745-7.22221.93745-6.43478 0-11.45958-1.73849-15.06883-5.2264-3.61244-3.48072-5.416-8.42953-5.416-14.83817 0-6.34624 1.7285-11.37998 5.1884-15.10535 3.46232-3.7291 8.01434-5.5916 13.6678-5.5916 5.2296 0 9.26017 1.52557 12.09663 4.58536 2.83846 3.05352 4.25243 7.39141 4.25243 13.0158v3.54418m34.82726 9.1643v-22.2557c-1.75822-.78798-3.33272-1.33064-4.72428-1.63223-1.38597-.29946-2.90153-.44999-4.54522-.44999-3.6603 0-6.5113 1.2713-8.54099 3.8203-2.03795 2.54208-3.05765 6.15505-3.05765 10.83147 0 4.60722.78904 8.10806 2.365 10.50547 1.5693 2.39314 4.09203 3.59098 7.56861 3.59098 1.84996 0 3.72378-.41293 5.6212-1.22904 1.89888-.82558 3.66817-1.88275 5.31333-3.18125m6.52597 9.5483H96.3512V94.0807c-1.87595 1.61862-3.83377 2.88166-5.87172 3.78524-2.03275.9037-4.24096 1.35516-6.62743 1.35516-4.63055 0-8.30553-1.78115-11.02413-5.34986-2.7218-3.56138-4.0807-8.505-4.0807-14.82457 0-3.28698.46933-6.21238 1.40784-8.78364.93584-2.5698 2.2046-4.75722 3.80243-6.56397 1.56983-1.75823 3.40832-3.09993 5.49987-4.02644 2.09848-.9249 4.26402-1.3885 6.5129-1.3885 2.03435 0 3.8415.21613 5.4176.64372 1.57183.42866 3.22645 1.09318 4.96334 1.99689V44.1158h6.52597v54.02625m38.95663-23.71514c-.02134-3.42431-.88531-6.07371-2.58394-7.94713-1.70129-1.87556-4.29322-2.815-7.763-2.815-3.49312 0-6.27638 1.0281-8.3482 3.09046-2.07234 2.06035-3.24525 4.61921-3.5239 7.67167zm6.35584 5.00254h-28.57489c0 2.38328.35826 4.4603 1.07704 6.23478.71505 1.76716 1.7021 3.22272 2.9494 4.35403 1.20303 1.1109 2.63166 1.94781 4.28536 2.50153 1.65622.55306 3.47857.82905 5.46746.82905 2.6426 0 5.2972-.52439 7.9718-1.5765 2.67727-1.05104 4.57722-2.09008 5.71186-3.10818h.34665v7.11702c-2.20127.9285-4.44255 1.70302-6.73716 2.327-2.28794.626-4.69722.93745-7.21849.93745-6.43744 0-11.46131-1.73849-15.07162-5.2264-3.61138-3.48072-5.41493-8.42953-5.41493-14.83817 0-6.34624 1.72809-11.37998 5.1936-15.10535 3.45565-3.7291 8.01234-5.5916 13.66313-5.5916 5.22973 0 9.26297 1.52557 12.09623 4.58536 2.83726 3.05352 4.25456 7.39141 4.25456 13.0158v3.54418M182.2861 66.4766h-.34666c-.9693-.22706-1.91462-.39893-2.83593-.50252-.90797-.10467-1.99461-.1588-3.24125-.1588-2.01328 0-3.95723.44839-5.83452 1.3389-1.87329.89064-3.6799 2.04328-5.41453 3.45565v27.53224h-6.52917V59.3617h6.52917v5.72546c2.58927-2.08235 4.8772-3.55885 6.85316-4.42603 1.98128-.8681 4.0039-1.29943 6.06252-1.29943 1.13597 0 1.95461.024 2.46393.08653.508.0552 1.27597.1656 2.29328.3276v6.70076m28.54195 22.11718v-10.7976c-1.99595.11773-4.33856.2896-7.02782.52185-2.7026.23067-4.83588.56772-6.40784 1.00825-1.87995.52812-3.39458 1.3605-4.55055 2.4802-1.15864 1.12237-1.73863 2.66927-1.73863 4.63535 0 2.21968.67465 3.89564 2.01595 5.01654 1.34397 1.12384 3.38925 1.68476 6.14385 1.68476 2.29327 0 4.38922-.44372 6.2825-1.3369 1.9013-.88958 3.65992-1.95982 5.28254-3.21245m6.49184 9.5483h-6.49184V94.0119c-.57865.39426-1.36263.94264-2.34927 1.65102-.98131.70412-1.93595 1.26664-2.86126 1.68223-1.08931.53492-2.33861.9765-3.75058 1.3385-1.4093.35519-3.06392.53745-4.96654.53745-3.49191 0-6.4585-1.15717-8.88511-3.47378-2.4306-2.31514-3.6479-5.2656-3.6479-8.85404 0-2.93846.63064-5.31747 1.89061-7.13622 1.26264-1.8141 3.06526-3.24472 5.40386-4.28736 2.35728-1.03958 5.19454-1.74636 8.50513-2.11822 3.30925-.36666 6.8625-.64638 10.66106-.83278v-1.0073c0-1.48064-.26132-2.70674-.78398-3.67951-.52132-.97198-1.26397-1.7349-2.2386-2.29275-.92532-.53172-2.0373-.88957-3.33326-1.07757-1.29597-.18493-2.6506-.2744-4.06123-.2744-1.71196 0-3.62924.22547-5.73052.6776-2.10928.44998-4.2839 1.1025-6.52784 1.96088h-.34666V60.195c1.27197-.35052 3.11326-.72865 5.51986-1.14584 2.40661-.41919 4.78255-.62385 7.11983-.62385 2.7306 0 5.10653.22293 7.13315.67438 2.02395.45106 3.77857 1.2209 5.26254 2.30941 1.45863 1.06344 2.56926 2.44048 3.32925 4.13003.76264 1.69063 1.1493 3.7859 1.1493 6.28691v26.31601m32.70718-.34799c-1.23063.32706-2.56393.59119-4.01056.80211-1.44397.2072-2.73727.31146-3.87457.31146-3.95457 0-6.96516-1.06664-9.02244-3.19272-2.06529-2.13008-3.09326-5.54666-3.09326-10.246V64.84435h-4.4079V59.3597h4.4079V48.2161h6.52784V59.3597h13.473v5.48466h-13.473V82.5158c0 2.04061.04533 3.6327.13466 4.77854.09466 1.14584.41866 2.21768.9773 3.20832.51066.92865 1.21064 1.6057 2.09862 2.03275.88931.43066 2.25195.64585 4.08123.64585 1.06131 0 2.17862-.16306 3.33059-.47145 1.15997-.31146 1.99728-.57185 2.50127-.78278h.34932v5.86705m33.99249-23.36715c-.02267-3.42431-.88665-6.07371-2.58794-7.94713-1.70129-1.87556-4.28923-2.815-7.7598-2.815-3.49592 0-6.27852 1.0281-8.34913 3.09046-2.07595 2.06035-3.24792 4.61921-3.52525 7.67167zm6.35184 5.00254h-28.57396c0 2.38328.356 4.4603 1.07598 6.23478.71865 1.76716 1.70129 3.22272 2.95326 4.35403 1.19997 1.1109 2.6306 1.94781 4.28522 2.50153 1.6533.55306 3.47458.82905 5.46787.82905 2.64126 0 5.29586-.52439 7.96913-1.5765 2.6746-1.05104 4.57455-2.09008 5.7132-3.10818h.34398v7.11702c-2.19994.9285-4.43855 1.70302-6.73716 2.327-2.28661.626-4.69588.93745-7.22115.93745-6.43451 0-11.45439-1.73849-15.06496-5.2264-3.61324-3.48072-5.41587-8.42953-5.41587-14.83817 0-6.34624 1.73063-11.37998 5.1892-15.10535 3.45992-3.7291 8.01314-5.5916 13.665-5.5916 5.23187 0 9.25977 1.52557 12.0997 4.58536 2.83326 3.05352 4.25056 7.39141 4.25056 13.0158v3.54418m34.82713 9.1643v-22.2557c-1.76263-.78798-3.33325-1.33064-4.72255-1.63223-1.3893-.29946-2.9066-.44999-4.54656-.44999-3.6639 0-6.50917 1.2713-8.54511 3.8203-2.03729 2.54208-3.05726 6.15505-3.05726 10.83147 0 4.60722.78398 8.10806 2.36394 10.50547 1.57196 2.39314 4.09723 3.59098 7.56781 3.59098 1.85195 0 3.7279-.41293 5.62653-1.22904 1.89595-.82558 3.67057-1.88275 5.3132-3.18125m6.52383 9.5483h-6.52383V94.0807c-1.87596 1.61862-3.83057 2.88166-5.87186 3.78524-2.03195.9037-4.24122 1.35516-6.6305 1.35516-4.62655 0-8.30112-1.78115-11.02506-5.34986-2.7146-3.56138-4.08123-8.505-4.08123-14.82457 0-3.28698.472-6.21238 1.4093-8.78364.93998-2.5698 2.20128-4.75722 3.80124-6.56397 1.57463-1.75823 3.41191-3.09993 5.5052-4.02644 2.09861-.9249 4.26122-1.3885 6.50917-1.3885 2.03995 0 3.84123.21613 5.41853.64372 1.57462.42866 3.23058 1.09318 4.9652 1.99689V44.1158h6.52384v54.02625"/><path fill="#41b43c" d="M258.64687.00825V17.6398l57.1279 26.76186V26.76931L258.64687.00825"/><path fill="#b1afad" d="M35.38192 125.84177l-5.2196 23.27448-7.69462-23.27448h-4.16922l-7.5102 23.27448-5.51601-23.27448H0l7.90762 30.05608h4.65665l7.6691-23.16972 7.72433 23.16972h4.68108l7.829-30.05608h-5.08586m12.11743-5.03267h5.69932v-5.24987h-5.69932zm.32079 35.08719h5.0556V125.8403h-5.0556v30.05599m33.81742-24.538h-.26506c-.75478-.18065-1.48756-.30825-2.19528-.39158-.71038-.07813-1.5469-.12133-2.51407-.12133-1.55983 0-3.06912.34786-4.52069 1.03797-1.45516.69118-2.853 1.58276-4.1983 2.67594v21.34117H62.8859v-30.05869h5.05828v4.44109c2.00821-1.6145 3.78057-2.7614 5.3128-3.43325 1.53596-.67185 3.09992-1.00784 4.69628-1.00784.88225 0 1.5125.02093 1.91035.06773.39426.04533.98798.1276 1.77396.25626v5.19254m25.0019 6.16238c-.02133-2.6546-.68944-4.70762-2.00714-6.16238-1.3177-1.4541-3.32085-2.18061-6.01185-2.18061-2.70927 0-4.86495.79944-6.47544 2.3942-1.6009 1.59636-2.51234 3.57965-2.72847 5.94879zm4.92082 3.87177H89.41656c0 1.85102.28013 3.46036.83278 4.83221.55519 1.37445 1.31664 2.49994 2.28688 3.377.93171.86039 2.04115 1.5109 3.32752 1.93744 1.2817.43176 2.6926.64426 4.2327.64426 2.0494 0 4.10775-.40155 6.17797-1.22444 2.07555-.81561 3.54738-1.62132 4.42442-2.4062h.27186v5.5181c-1.70262.71872-3.44271 1.31194-5.22173 1.7963-1.7709.48385-3.64365.73436-5.59626.73436-4.98321 0-8.87992-1.35726-11.67518-4.05042-2.801-2.70514-4.20256-6.53838-4.20256-11.50754 0-4.916 1.34117-8.81378 4.02497-11.70184 2.68113-2.89046 6.21024-4.33322 10.5856-4.33322 4.05616 0 7.18208 1.18237 9.3795 3.55044 2.19994 2.36874 3.29525 5.73373 3.29525 10.09402v2.73953m7.73154 14.50384h5.05614v-41.86663h-5.05614v41.86663m35.29765-18.37561c-.016-2.6546-.68665-4.70762-2.00395-6.16238-1.3213-1.4541-3.32525-2.18061-6.01185-2.18061-2.70927 0-4.86788.79944-6.4745 2.3942-1.60263 1.59636-2.51461 3.57965-2.73327 5.94879zm4.92254 3.87177H137.3659c0 1.85102.28 3.46036.83598 4.83221.55732 1.37445 1.31597 2.49994 2.29194 3.377.93064.86039 2.03728 1.5109 3.32258 1.93744 1.2813.43176 2.69194.64426 4.2359.64426 2.04661 0 4.1039-.40155 6.17451-1.22444 2.07195-.81561 3.54658-1.62132 4.42789-2.4062h.268v5.5181c-1.70663.71872-3.44659 1.31194-5.2212 1.7963-1.77463.48385-3.63992.73436-5.5972.73436-4.98521 0-8.88111-1.35726-11.67838-4.05042-2.7946-2.70514-4.1975-6.53838-4.1975-11.50754 0-4.916 1.3389-8.81378 4.02284-11.70184 2.68393-2.89046 6.21051-4.33322 10.58907-4.33322 4.05456 0 7.17982 1.18237 9.3771 3.55044 2.19994 2.36874 3.29458 5.73373 3.29458 10.09402v2.73953m29.1446 5.84156c0 2.74889-1.13196 4.99726-3.4039 6.75555-2.27195 1.75986-5.36787 2.63588-9.29444 2.63588-2.22928 0-4.27056-.2677-6.12652-.79425-1.85328-.52968-3.40791-1.10832-4.66788-1.73486v-5.67694h.27066c1.5933 1.20101 3.37058 2.15724 5.32787 2.86504 1.95595.71091 3.82657 1.05986 5.62119 1.05986 2.22661 0 3.96657-.35832 5.2252-1.0786 1.25464-.71458 1.88396-1.84007 1.88396-3.3864 0-1.18538-.34266-2.0812-1.02665-2.68951-.67998-.61456-1.98795-1.1307-3.92923-1.56246-.71598-.1625-1.65463-.35212-2.8066-.56505-1.15863-.2136-2.21594-.44692-3.16525-.69745-2.63727-.69478-4.50122-1.72955-5.61186-3.08272-1.10264-1.35623-1.65063-3.01712-1.65063-4.992 0-1.23651.25066-2.40315.76398-3.49685.51466-1.09371 1.28797-2.07129 2.32661-2.92953 1.00398-.84638 2.28528-1.51663 3.8359-2.00888 1.55597-.49106 3.28526-.74105 5.20388-.74105 1.79729 0 3.60924.2228 5.45186.66038 1.83862.43852 3.36792.97384 4.58789 1.60143v5.4072h-.272c-1.2813-.94891-2.85326-1.75356-4.70388-2.40621-1.84929-.65465-3.66124-.98278-5.4372-.98278-1.85195 0-3.41191.3552-4.68388 1.06504-1.27063.70425-1.90529 1.76143-1.90529 3.1578 0 1.24156.38266 2.17234 1.15064 2.79992.75465.62705 1.97462 1.13744 3.66124 1.53063.93198.21626 1.97862.43239 3.1346.64958 1.15863.21453 2.1186.41346 2.89459.59052 2.34927.54012 4.15856 1.46557 5.43453 2.775 1.2733 1.32903 1.91062 3.08478 1.91062 5.2717m28.71261 0c0 2.7489-1.1373 4.99727-3.40391 6.75556-2.26928 1.75986-5.3732 2.63588-9.29977 2.63588-2.22261 0-4.2639-.2677-6.11851-.79425-1.8573-.52968-3.41192-1.10832-4.66655-1.73486v-5.67694h.26799c1.5933 1.20101 3.37325 2.15724 5.3292 2.86504 1.95195.71091 3.83057 1.05986 5.61986 1.05986 2.22394 0 3.96523-.35832 5.22254-1.0786 1.25463-.71458 1.88128-1.84007 1.88128-3.3864 0-1.18538-.34266-2.0812-1.02264-2.68951-.68265-.61456-1.99062-1.1307-3.92923-1.56246-.71732-.1625-1.6533-.35212-2.8106-.56505-1.15597-.2136-2.21195-.44692-3.16392-.69745-2.63727-.69478-4.50656-1.72955-5.6092-3.08272-1.10397-1.35623-1.65462-3.01712-1.65462-4.992 0-1.23651.25466-2.40315.77065-3.49685.51198-1.09371 1.28396-2.07129 2.32394-2.92953 1.00397-.84638 2.28394-1.51663 3.8359-2.00888 1.5533-.49106 3.28659-.74105 5.20654-.74105 1.79062 0 3.60658.2228 5.4492.66038 1.83862.43852 3.36658.97384 4.58655 1.60143v5.4072h-.268c-1.29596-.94891-2.86126-1.75356-4.71188-2.40621-1.84662-.65465-3.6559-.98278-5.4372-.98278-1.84528 0-3.4039.3552-4.67854 1.06504-1.27464.70425-1.91062 1.76143-1.91062 3.1578 0 1.24156.38399 2.17234 1.15863 2.79992.75199.62705 1.97462 1.13744 3.66258 1.53063.92931.21626 1.97328.43239 3.13325.64958 1.15598.21453 2.11729.41346 2.89327.59052 2.3466.54012 4.15856 1.46557 5.4372 2.775 1.26663 1.32903 1.90661 3.08478 1.90661 5.2717m6.27985-28.84671h-2.31195v5.70039h-.8533v-5.7004h-2.31328v-.76557h5.47853v.76558m5.42786-.76558l-1.66796 3.59884-1.72262-3.59884h-1.1733v6.46344h.80264v-5.5676l1.78529 3.78524h.51599l1.79595-3.78524v5.5676h.85865v-6.46344h-1.19464"/></svg>