<svg xmlns="http://www.w3.org/2000/svg" role="img" viewBox="-4.80 10.20 249.34 110.34"><title>Fisher-Rosemount Systems, Inc., an Emerson Company (member) logo</title><path d="M117 43h1v1h-1zm1 4h1v1h-1zm-6 8h1v1h-1z" fill="#6483b3"/><path d="M112 18h1v1h-1zm6 1h1v1h-1zm-7 3h1v1h-1zm12 3h1v1h-1zm-11 1h1v1h-1zm3 1h1v1h-1zm12 3h1v1h-1zm-10 2h2v1h-2zm2 0h1v1h-1zm12 3h1v1h-1zm1 1h1v1h-1zm-11 1h2v1h-2zm2 0h1v1h-1zm13 4h1v1h-1zm-21 3h2v1h-2zm2 0h1v1h-1zm-8 7h1v1h-1zm3 3h1v1h-1zm-21 1h1v1h-1zm4 5h1v1h-1zm13 4h2v1h-2zm2 0h1v1h-1zm-11 1h1v1h-1zm23 2h1v1h-1zm-10 2h2v1h-2zm2 0h1v1h-1zm-10 2h1v1h-1zm16 2h1v1h-1zm-3 2h1v1h-1zm-9 1h1v1h-1zm6 7h1v1h-1z" fill="#bbbdc2"/><path d="M106 31h1v1h-1zm-4 4h1v1h-1zm-3 5h1v1h-1zm-3 5h1v1h-1zm36 5h1v1h-1zm-40 2h1v1h-1zm40 1h1v1h-1zm-3 5h1v1h-1zm-23 2h1v1h-1zm20 3h1v1h-1zM28 87h1v1h-1zm157 0h1v1h-1zm13 0h1v1h-1zm-75 1h1v1h-1zm35 0h1v1h-1zM24 89h1v1h-1zm72 0h1v1h-1zm29 0h1v1h-1zm40 1h1v1h-1zM55 91h1v1h-1zm109 0h1v1h-1zM40 92h1v1h-1zm135 0h1v1h-1zm36 0h1v1h-1zm-83 1h1v1h-1zm14 0h1v1h-1zm70 0h1v1h-1zm-94 1h1v1h-1zm14 0h1v1h-1zm-90 1h1v1h-1zm10 1h1v1h-1zm92 0h1v1h-1zm50 0h1v1h-1zm-66 1h1v1h-1zm19 0h1v1h-1zm37 1h1v1h-1zm-51 1h1v1h-1zm84 0h1v1h-1zm-160 1h1v1h-1zm-19 1h1v1h-1zm87 0h1v1h-1zm10 0h1v1h-1zm2 1h1v1h-1zm-25 2h1v1h-1zm49 0h1v1h-1zm23 0h1v1h-1zm28 0h1v1h-1zm-158 1h1v1h-1zm59 0h1v1h-1zm34 0h1v1h-1zm47 1h1v1h-1zm-151 3h1v1h-1zm91 0h1v1h-1zm15 0h1v1h-1zm10 0h1v1h-1zm23 0h1v1h-1zm-131 1h1v1h-1zm66 0h1v1h-1zm31 0h1v1h-1zm-19 1h1v1h-1zm35 0h1v1h-1zm54 0h1v1h-1zm-173 1h1v1h-1zm85 0h1v1h-1zm1 1h1v1h-1zm35 0h1v1h-1zm-13 2h1v1h-1zm17 0h1v1h-1z" fill="#115181"/><g fill="#114885"><path d="M108 33h1v1h-1zM97 49h1v1h-1zm-5 4h1v1h-1zm49 34h1v1h-1zm2 0h6v3h-6zm6 0h1v3h-1zm1 0h1v1h-1zm24 0h1v1h-1zm1 0h5v3h-5zm5 0h1v3h-1zm3 0h1v1h-1zM0 88h23v3H0zm23 0h1v1h-1zm6 0h7v26h-7zm7 0h1v8h-1zm23 0h6v26h-6zm6 0h1v26h-1zm7 0h23v3H72zm23 0h1v1h-1zm6 0h18v3h-18zm18 0h1v5h-1zm1 0h1v1h-1zm1 0h1v1h-1z"/><path d="M139 88h16v2h-16zm16 0h1v4h-1zm16 0h14v2h-14zm14 0h1v26h-1zm14 0h7v26h-7zm7 0h1v8h-1zm1 0h1v1h-1zm15 0h6v26h-6zm6 0h1v26h-1zM58 89h7v7h-7zm62 0h2v12h-2zm2 0h1v12h-1zm2 0h1v1h-1zm12 0h1v1h-1z"/><path d="M137 89h20v1h-20zm20 0h1v1h-1zm1 0h1v1h-1zm10 0h19v1h-19zm19 0h1v24h-1zm20 0h1v7h-1zM23 90h1v1h-1zm14 0h1v7h-1zm20 0h8v6h-8zm38 0h1v1h-1zm28 0h1v11h-1zm1 0h1v10h-1zm11 0h22v1h-22zm22 0h1v1h-1z"/><path d="M167 90h21v1h-21zm21 0h1v22h-1zm20 0h1v7h-1zM0 91h22v1H0zm22 0h1v1h-1zm16 0h1v8h-1zm34 0h22v1H72zm22 0h1v1h-1zm7 0h24v1h-24zm24 0h1v8h-1zm10 0h8v1h-8zm8 0h1v1h-1zm7 0h1v1h-1zm1 0h5v1h-5zm5 0h1v1h-1zm10 0h8v1h-8zm8 0h1v1h-1zm2 0h1v1h-1z"/><path d="M181 91h9v1h-9zm9 0h1v20h-1zM0 92h8v22H0zm8 0h1v22H8zm48 0h9v4h-9zm16 0h8v22h-8zm8 0h1v22h-1zm21 0h7v22h-7zm7 0h1v22h-1zm9 0h1v1h-1zm1 0h8v1h-8zm8 0h1v6h-1zm7 0h1v1h-1zm1 0h7v6h-7zm7 0h1v1h-1zm12 0h1v1h-1zm2 0h1v1h-1zm10 0h8v1h-8zm8 0h1v1h-1zm10 0h7v1h-7zm26 0h1v7h-1zm1 0h1v1h-1zM39 93h1v7h-1z"/><path d="M55 93h10v3H55zm63 0h1v1h-1zm1 0h8v1h-8zm8 0h1v4h-1zm37 0h8v2h-8zm8 0h1v1h-1zm12 0h7v1h-7zm7 0h1v17h-1zm19 0h1v7h-1zM40 94h1v8h-1zm93 0h7v2h-7zm30 0h1v1h-1z"/><path d="M184 94h8v1h-8zm8 0h1v14h-1zm19 0h1v7h-1zm1 0h1v1h-1zM41 95h1v1h-1zm13 0h11v1H54zm87 0h1v7h-1zm22 0h8v12h-8zm8 0h1v1h-1zm13 0h1v1h-1zm2 0h6v15h-6zm26 0h1v7h-1zM36 96h5v1h-5zm5 0h1v7h-1zm13 0h11v1H54zm79 0h8v1h-8zm29 0h1v1h-1zm31 0h1v10h-1z"/><path d="M206 96h7v1h-7zm7 0h1v7h-1zM37 97h5v1h-5zm5 0h1v8h-1zm11 0h4v2h-4zm4 0h8v1h-8zm62 0h8v1h-8zm8 0h1v1h-1zm6 0h1v1h-1zm9 0h2v5h-2zm2 0h1v6h-1zm18 0h1v1h-1z"/><path d="M208 97h6v1h-6zm6 0h1v7h-1zM37 98h1v1h-1zm6 0h1v1h-1zm9 0h5v1h-5zm5 0h8v1h-8zm62 0h7v1h-7zm7 0h1v1h-1zm8 0h13v1h-13zm13 0h1v6h-1zm15 0h8v6h-8zM9 99h11v3H9zm11 0h1v3h-1zm18 0h5v1h-5zm5 0h1v8h-1zm8 0h1v1h-1zm1 0h4v2h-4zm4 0h1v1h-1zm1 0h1v1h-1zm24 0h11v3H81zm11 0h1v3h-1zm17 0h1v1h-1zm8 0h8v1h-8zm8 0h1v1h-1z"/><path d="M135 99h15v1h-15zm15 0h1v7h-1zm1 0h1v1h-1zm58 0h6v1h-6zm6 0h1v7h-1zm-177 1h1v1h-1zm1 0h5v1h-5zm5 0h1v8h-1zm7 0h4v3h-4zm58 0h15v1h-15zm15 0h1v1h-1z"/><path d="M136 100h17v1h-17zm17 0h1v14h-1zm57 0h6v1h-6zm6 0h1v7h-1zm-161 1h1v1h-1zm54 0h14v1h-14zm14 0h1v1h-1zm1 0h1v1h-1zm12 0h1v1h-1z"/><path d="M137 101h18v1h-18zm18 0h1v12h-1zm56 0h6v1h-6zm6 0h1v7h-1zm1 0h1v1h-1zM9 102h11v1H9zm11 0h1v1h-1zm20 0h5v1h-5zm5 0h1v8h-1zm5 0h4v2h-4zm31 0h11v1H81zm11 0h1v1h-1zm17 0h11v1h-11zm11 0h1v10h-1zm1 0h1v1h-1z"/><path d="M140 102h16v1h-16zm16 0h1v10h-1zm55 0h1v1h-1zm1 0h6v1h-6zm6 0h1v7h-1zm-177 1h4v1h-4zm8 0h5v1h-5zm5 0h1v1h-1zm55 0h11v1h-11zm33 0h1v1h-1z"/><path d="M144 103h13v1h-13zm13 0h1v8h-1zm56 0h6v1h-6zm6 0h1v7h-1zm-173 1h1v7h-1zm2 0h1v1h-1zm1 0h4v2h-4zm4 0h1v1h-1zm1 0h1v1h-1zm60 0h7v1h-7zm7 0h1v9h-1zm26 0h10v1h-10zm15 0h8v1h-8zm52 0h5v1h-5z"/><path d="M42 105h10v1H42zm73 0h7v1h-7zm7 0h1v9h-1zm29 0h7v6h-7zm7 0h1v4h-1zm62 0h8v6h-8zm-173 1h5v2h-5zm5 0h1v1h-1z"/><path d="M116 106h7v1h-7zm7 0h1v8h-1zm27 0h8v1h-8zm43 0h1v1h-1zm22 0h13v1h-13zm-172 1h8v1h-8zm73 0h7v1h-7zm47 0h8v1h-8zm8 0h1v7h-1zm13 0h1v1h-1zm32 0h12v1h-12zm-172 1h7v1h-7zm7 0h1v1h-1z"/><path d="M117 108h7v1h-7zm7 0h1v6h-1zm40 0h7v1h-7zm20 0h8v2h-8zm8 0h1v1h-1zm25 0h11v1h-11zm-173 1h1v1h-1zm3 0h3v2h-3zm3 0h1v1h-1z"/><path d="M118 109h7v1h-7zm7 0h1v5h-1zm33 0h1v1h-1zm6 0h8v1h-8zm8 0h1v5h-1zm20 0h1v1h-1zm25 0h1v1h-1zm1 0h10v1h-10zm-173 1h4v1h-4z"/><path d="M119 110h7v1h-7zm7 0h1v4h-1zm9 0h1v3h-1zm2 0h1v1h-1zm12 0h1v1h-1zm1 0h7v2h-7zm15 0h8v1h-8zm8 0h1v4h-1zm9 0h1v1h-1zm1 0h8v1h-8zm8 0h1v1h-1zm28 0h9v1h-9zM9 111h14v3H9zm14 0h1v3h-1zm23 0h3v1h-3zm3 0h1v1h-1zm32 0h14v3H81zm14 0h1v3h-1zm32 0h1v3h-1z"/><path d="M134 111h6v2h-6zm6 0h1v3h-1zm9 0h8v1h-8zm8 0h1v1h-1zm9 0h8v1h-8zm8 0h1v3h-1zm1 0h1v1h-1zm6 0h9v1h-9zm9 0h1v1h-1zm30 0h8v1h-8zm-173 1h1v1h-1zm1 0h1v1h-1zm72 0h8v1h-8zm8 0h1v2h-1zm5 0h1v1h-1zm8 0h15v1h-15zm15 0h1v1h-1z"/><path d="M167 112h22v1h-22zm22 0h1v1h-1zm32 0h7v1h-7zm13 0h1v1h-1zm2 0h1v1h-1zm3 0h1v1h-1zm-192 1h1v1h-1zm74 0h8v1h-8zm8 0h1v1h-1zm4 0h22v1h-22zm22 0h1v1h-1zm13 0h19v1h-19zm19 0h1v1h-1zm34 0h7v1h-7zm15 0h1v1h-1zM0 114h23v1H0zm23 0h1v1h-1zm6 0h6v1h-6zm6 0h1v1h-1zm24 0h6v1h-6zm6 0h1v1h-1zm7 0h23v1H72zm23 0h1v1h-1zm6 0h7v1h-7zm7 0h1v1h-1zm14 0h8v1h-8zm8 0h1v1h-1zm4 0h1v1h-1zm1 0h1v1h-1zm1 0h17v1h-17zm17 0h1v1h-1zm1 0h1v1h-1zm15 0h1v1h-1zm2 0h14v1h-14zm14 0h1v1h-1zm14 0h6v1h-6zm6 0h1v1h-1zm17 0h6v1h-6zm6 0h1v1h-1zm-86 1h6v1h-6zm6 0h1v1h-1zm27 0h6v1h-6zm6 0h1v1h-1zm2 0h1v1h-1z"/></g><path d="M116 37h1v1h-1zm0 1h1v1h-1zm-1 1h1v1h-1zm-3 2h2v1h-2zm2 0h1v1h-1zm10 0h1v1h-1zm0 1h1v1h-1zm-1 1h1v1h-1zm0 1h1v1h-1zm-12 2h1v1h-1zm-1 1h1v1h-1zm0 1h1v1h-1zm-1 1h1v1h-1zm11 0h1v1h-1zm-1 1h1v1h-1zm-16 1h1v1h-1zm15 0h1v1h-1zm-13 1h1v1h-1zm13 0h1v1h-1zm-11 1h1v1h-1zm-1 1h1v1h-1zm0 1h1v1h-1zm-1 1h1v1h-1zm-1 1h1v1h-1zm11 0h1v1h-1zm1 0h1v1h-1zm-2 1h1v1h-1zm0 1h1v1h-1zm-1 1h1v1h-1zm0 1h1v1h-1z" fill="#3b6ba1"/><path d="M130 41h1v1h-1zm-28 7h1v2h-1zm26 0h1v1h-1zm-26 2h1v1h-1zm25 0h1v1h-1zm-28 7h1v1h-1zm20 8h1v1h-1z" fill="#9fa8b1"/><path d="M121 33h1v1h-1zm9 2h1v1h-1zm-11 1h1v1h-1zm6 2h1v1h-1zm-12 5h1v1h-1zm0 9h1v1h-1zm-1 13h1v1h-1zm-11 1h1v1h-1zm9 2h1v1h-1zm-4 4h1v1h-1z" fill="#d4d6d9"/><path d="M103 35h1v1h-1zm32 11h1v1h-1zm-37 3h1v1h-1zm-5 3h1v1h-1zm33 5h1v1h-1zm-1 6h1v1h-1zm56 24h1v1h-1zM58 88h1v1h-1zm112 0h1v1h-1zM23 89h1v1h-1zm14 0h1v1h-1zm58 0h1v1h-1zm28 0h1v1h-1zm2 1h1v1h-1zm64 0h1v1h-1zM56 91h1v1h-1zm70 0h1v1h-1zm8 0h1v1h-1zm41 0h1v1h-1zm34 0h1v1h-1zM39 92h1v1h-1zm115 0h1v1h-1zm28 0h1v1h-1zm9 0h1v1h-1zm-58 1h1v1h-1zm8 0h1v1h-1zm42 0h1v1h-1zm-64 1h1v2h-1zm-66 2h1v1h-1zm66 0h1v1h-1zm23 0h1v1h-1zm29 0h1v1h-1zM36 97h1v1h-1zm82 1h1v1h-1zm90 0h1v1h-1zm7 0h1v1h-1zm-99 1h1v1h-1zm10 0h1v1h-1zm8 0h1v1h-1zm-78 1h1v1h-1zm69 0h1v1h-1zm10 0h1v1h-1zm-96 1h1v1h-1zm11 0h1v1h-1zm-4 2h1v1h-1zm97 0h1v1h-1zm-102 1h1v1h-1zm179 0h1v1h-1zm-167 1h1v1h-1zm61 0h1v1h-1zm35 0h1v1h-1zm13 0h1v1h-1zm52 0h1v1h-1zm-99 1h1v1h-1zm56 0h1v1h-1zm-47 1h1v1h-1zm1 1h1v1h-1zm38 0h1v1h-1zm-37 1h1v1h-1zm24 0h1v1h-1zm33 0h1v1h-1zm-133 1h1v1h-1zm77 0h1v1h-1zm9 0h1v1h-1zm-17 1h1v1h-1zm29 0h1v1h-1zm17 0h1v1h-1zm-119 1h1v1h-1zm174 0h1v1h-1zm-172 1h1v1h-1zm122 1h1v1h-1zm-29 1h1v1h-1zm8 0h1v1h-1zm25 0h1v1h-1z" fill="#114785"/><path d="M102 37h1v1h-1zm3 1h1v1h-1zm28 5h1v1h-1zm3 1h1v1h-1zm-37 2h1v1h-1zm31 2h1v1h-1zm-30 2h1v1h-1zm30 2h1v1h-1zm-34 3h1v1h-1zm26 0h1v1h-1zm2 1h1v1h-1zm-3 3h1v1h-1z" fill="#1d528a"/><path d="M122 25h1v1h-1zm-3 6h1v1h-1zm-3 1h1v1h-1zm15 4h1v1h-1zm-16 33h1v1h-1zm-3 1h1v1h-1zm-3 6h1v1h-1z" fill="#c3c4c6"/><path d="M103 34h1v1h-1zm24 24h1v1h-1zm-2 6h1v1h-1zM0 87h1v1H0zm24 0h1v1h-1zm48 0h1v1h-1zm24 0h1v1h-1zm5 0h1v1h-1zm83 0h1v1h-1zm15 0h1v1h-1zm-77 1h1v1h-1zm15 0h1v1h-1zm20 0h1v1h-1zm51 1h1v1h-1zM56 90h1v1h-1zm134 0h1v1h-1zM39 91h1v1h-1zm152 0h1v1h-1zm-39 1h1v1h-1zm11 1h1v1h-1zm20 1h1v1h-1zm31 2h1v1h-1zm-68 1h1v1h-1zm63 3h1v1h-1zm-88 3h1v1h-1zm20 0h1v1h-1zm79 0h1v1h-1zm-98 1h1v1h-1zm1 1h1v1h-1zm-8 2h1v1h-1zm47 0h1v1h-1zm53 0h1v1h-1zm-32 1h1v1h-1zm10 0h1v1h-1zm-55 2h1v1h-1zm-88 1h1v1h-1zm83 0h1v1h-1zm58 0h1v1h-1zm-1 1h1v1h-1zm47 0h1v1h-1zm-117 1h1v1h-1zm67 1h1v1h-1zm34 0h1v1h-1zm-185 1h1v1h-1zm30 0h1v1h-1zm43 0h1v1h-1zm127 0h1v1h-1z" fill="#104885"/><g fill="#6b87b5"><path d="M114 35h1v1h-1zm2 1h1v1h-1zm4 2h1v3h-1zm1 1h1v1h-1zm-2 1h1v3h-1zm1 1h1v1h-1zm-2 1h1v1h-1zm1 1h1v1h-1zm-4 4h1v2h-1zm1 0h1v1h-1z"/><path d="M114 48h2v1h-2zm2 0h1v1h-1zm-2 1h1v2h-1zm1 0h1v1h-1zm-2 1h1v1h-1zm0 1h1v1h-1zm1 0h1v1h-1zm-4 4h1v3h-1zm1 0h1v1h-1zm0 1h1v1h-1zm-2 1h1v3h-1z"/><path d="M108 58h2v1h-2zm2 0h1v1h-1zm-2 1h1v1h-1zm1 1h1v1h-1zm2 1h1v1h-1zm2 1h1v1h-1z"/></g><path d="M123 36h1v1h-1zm-20 33h1v1h-1z" fill="#e6e9ea"/><path d="M117 37h1v1h-1zm-1 2h1v1h-1zm-1 1h1v1h-1zm9 0h2v1h-2zm2 0h1v1h-1zm-11 1h1v1h-1zm8 1h1v1h-1zm-1 2h1v1h-1zm-10 1h1v1h-1zm0 1h1v1h-1zm-1 1h1v1h-1zm0 1h1v1h-1zm9 0h1v1h-1zm-10 1h1v1h-1zm9 0h1v1h-1zm4 0h1v1h-1zm-14 1h1v1h-1zm9 0h1v1h-1zm-1 2h1v1h-1zm-10 2h1v1h-1zm-1 2h1v1h-1zm-1 1h1v1h-1zm9 0h1v1h-1zm-11 1h2v1h-2zm2 0h1v1h-1zm14 0h1v1h-1zm-6 1h1v1h-1zm-1 1h1v1h-1zm0 1h1v1h-1z" fill="#4370a5"/><path d="M112 44h1v1h-1zm2 1h1v1h-1zm0 7h1v1h-1zm2 1h1v1h-1zm2 1h1v1h-1z" fill="#94a9c3"/><path d="M115 15h1v1h-1zm2 3h1v1h-1zm-5 5h1v1h-1zm9 0h1v1h-1zm-10 2h1v1h-1zm5 3h1v1h-1zm-1 2h1v1h-1zm-14 8h1v1h-1zm34 2h1v1h-1zM92 56h1v1h-1zm35 3h1v1h-1zm-12 14h1v1h-1z" fill="#a5a6a8"/><path d="M104 32h1v1h-1zm33 12h1v1h-1zm-43 5h1v1h-1zm40 0h1v1h-1zm-30 10h1v1h-1zM29 87h6v1h-6zm6 0h1v1h-1zm24 0h6v1h-6zm6 0h1v1h-1zm51 0h1v1h-1zm1 0h1v1h-1zm37 0h1v1h-1zm17 0h1v1h-1zm58 0h1v1h-1zM28 88h1v26h-1zm72 0h1v26h-1zm87 0h1v1h-1zm11 0h1v26h-1zm23 0h1v15h-1zm-63 2h1v1h-1zm51 0h1v1h-1zM9 92h13v1H9zm13 0h1v1h-1zm59 0h13v1H81zm13 0h1v1h-1zm21 0h1v1h-1zm66 0h1v1h-1zM54 93h1v1h-1zm101 0h1v1h-1zm-27 1h1v2h-1zm4 1h1v1h-1zm-4 1h1v1h-1zm-85 1h1v1h-1zm141 0h1v1h-1zm10 0h1v1h-1zM21 98h1v1h-1zm30 0h1v1h-1zm42 0h1v1h-1zm-56 1h1v1h-1zm21 0h1v15h-1zm103 0h1v4h-1zm-6 1h1v1h-1zm16 0h1v2h-1zm0 2h1v1h-1zM9 103h11v1H9zm11 0h1v1h-1zm35 0h1v1h-1zm26 0h11v1H81zm11 0h1v1h-1zm66 0h1v1h-1zm3 0h1v1h-1zm60 0h1v1h-1zm-37 2h1v1h-1zm-25 1h1v2h-1zm13 1h1v1h-1zm-13 1h1v1h-1zM9 110h14v1H9zm14 0h1v1h-1zm21 0h1v1h-1zm37 0h14v1H81zm14 0h1v1h-1zm86 0h1v1h-1zm-23 1h1v1h-1zm75 0h1v3h-1zm1 0h2v1h-2zm2 0h1v1h-1zm3 0h1v1h-1zm-211 3h1v1h-1zm30 0h1v1h-1zm42 0h1v1h-1zm33 0h1v1h-1zm65 0h1v1h-1zm35 0h1v1h-1zm-209 1h1v1h-1zm72 0h1v1h-1zm110 0h1v1h-1zm16 0h1v1h-1zm7 0h1v1h-1zm5 0h1v1h-1zm4 0h1v1h-1zm1 0h1v1h-1z" fill="#104883"/><path d="M112 35h1v1h-1zm-1 1h1v2h-1zm1 0h1v1h-1zm-2 2h1v1h-1zm1 0h1v1h-1zm-1 1h1v1h-1zm19 3h1v1h-1zm-22 1h1v1h-1zm21 0h1v1h-1zm1 0h1v1h-1zm-22 1h1v1h-1zm21 0h1v1h-1zm-22 1h1v1h-1zm21 0h1v1h-1zm-22 1h1v2h-1zm1 0h1v1h-1zm21 0h1v1h-1zm-22 2h1v1h-1zm19 2h1v1h-1zm-1 1h1v2h-1zm1 0h1v1h-1zm-22 1h1v1h-1zm-1 1h1v1h-1zm1 0h1v1h-1zm20 0h1v1h-1zm1 0h1v1h-1zm-22 1h1v1h-1zm21 0h1v1h-1zm-22 1h1v1h-1zm-1 1h1v1h-1zm1 0h1v1h-1zm19 3h1v1h-1zm-1 1h1v1h-1zm0 1h1v1h-1zm-1 1h1v1h-1zm0 1h1v1h-1z" fill="#094e8c"/><path d="M113 36h1v1h-1zm-1 1h1v1h-1zm0 1h1v1h-1zm-1 1h1v1h-1zm0 1h1v1h-1zm17 2h1v1h-1zm-20 1h1v2h-1zm19 0h1v1h-1zm-1 1h1v2h-1zm1 0h1v1h-1zm-20 1h1v1h-1zm1 0h1v1h-1zm-1 1h1v1h-1zm19 0h1v1h-1zm-20 1h1v1h-1zm0 1h1v1h-1zm17 2h1v1h-1zm-1 1h1v1h-1zm-19 1h1v1h-1zm19 0h1v1h-1zm-19 1h1v1h-1zm18 0h1v1h-1zm-19 1h1v1h-1zm19 0h1v1h-1zm-20 1h1v1h-1zm1 0h1v1h-1zm-1 1h1v1h-1zm17 2h1v1h-1zm0 1h1v1h-1zm-1 1h1v1h-1zm-1 1h1v1h-1zm1 0h1v1h-1zm-1 1h1v1h-1z" fill="#105491"/><path d="M114 36h1v1h-1zm-1 1h1v1h-1zm0 1h1v1h-1zm-1 1h1v1h-1zm-2 1h1v1h-1zm17 1h1v1h-1zm1 0h1v1h-1zm-1 1h1v1h-1zm-1 1h1v1h-1zm-17 1h1v1h-1zm-1 2h1v1h-1zm-1 1h1v1h-1zm-3 1h1v1h-1zm3 0h1v1h-1zm15 2h1v1h-1zm3 0h1v1h-1zm-4 1h1v1h-1zm-17 1h1v1h-1zm17 0h1v1h-1zm-17 1h1v1h-1zm16 0h1v1h-1zm-17 1h1v1h-1zm17 0h1v1h-1zm-17 1h1v1h-1zm-1 1h1v1h-1zm-1 1h1v1h-1zm16 1h1v1h-1zm0 1h1v1h-1zm-1 1h1v1h-1zm-1 2h1v1h-1z" fill="#1b5a95"/><path d="M111 54h1v1h-1zm15 4h1v1h-1zm-4 11h1v1h-1zm-5 3h1v1h-1z" fill="#919aa9"/><path d="M108 40h1v1h-1zm19 0h1v1h-1zm-1 7h1v1h-1zm-21 2h1v1h-1zm19 0h1v1h-1zm-20 2h1v1h-1zm2 1h1v1h-1zm-4 6h1v1h-1zm18 0h1v1h-1zm-3 6h1v1h-1z" fill="#879db2"/><path d="M97 45h1v1h-1zm37 3h1v1h-1zm-40 2h1v1h-1zm37 3h1v1h-1z" fill="#0f4986"/><path d="M115 19h1v2h-1zm1 0h1v1h-1zm0 1h1v1h-1zm-2 1h1v2h-1zm1 0h1v1h-1zm-2 2h1v1h-1zm1 0h1v1h-1zm-4 4h1v3h-1zm1 0h1v1h-1zm0 1h1v1h-1zm-2 1h1v2h-1zm1 1h1v1h-1zm-2 1h1v1h-1zm1 0h1v1h-1zm1 2h1v1h-1zm-7 6h1v1h-1zm1 0h1v1h-1zm0 1h1v1h-1zm32 3h1v1h-1zm-37 4h1v1h-1zm0 1h1v1h-1zm32 3h1v1h-1zm-38 5h1v1h-1zm1 0h1v1h-1zm0 1h1v1h-1zm32 2h1v1h-1zm0 1h1v1h-1zm-5 8h1v1h-1zm-1 1h1v1h-1zm0 1h1v1h-1zm-1 1h1v1h-1zm-1 1h1v1h-1zm1 0h1v1h-1zm-3 4h1v1h-1zm-1 1h1v1h-1zm0 1h1v1h-1zm-1 1h1v1h-1zm0 1h1v1h-1z" fill="#9d9fa1"/><path d="M122 26h1v1h-1zm-1 1h1v1h-1zm-1 2h1v1h-1zm-1 1h1v1h-1zm-2 4h1v1h-1zm-1 1h1v1h-1zm14 2h1v1h-1zm1 0h1v1h-1zm-1 1h1v1h-1zm-1 1h1v1h-1zm-17 3h1v1h-1zm11 4h1v1h-1zm1 1h1v1h-1zm1 0h1v1h-1zm-1 1h1v1h-1zm-17 3h1v1h-1zm0 1h1v1h-1zm2 1h1v1h-1zm11 3h1v1h-1zm-1 1h1v1h-1zm-17 2h1v1h-1zm-1 2h1v1h-1zm-1 1h1v1h-1zm0 1h1v1h-1zm14 1h1v1h-1zm1 0h1v1h-1zm-1 1h1v1h-1zm-1 1h1v1h-1zm-2 4h1v1h-1zm-1 1h1v1h-1zm0 1h1v1h-1zm-1 1h1v1h-1zm-1 1h1v1h-1zm1 0h1v1h-1z" fill="#c7c9cb"/><path d="M124 28h1v1h-1zm0 1h1v1h-1zm1 0h1v1h-1zm1 0h1v1h-1zm-3 1h1v1h-1zm0 1h1v1h-1zm-1 1h1v1h-1zm-2 1h1v1h-1zm8 0h1v1h-1zm-1 1h1v1h-1zm1 0h1v1h-1zm2 0h1v1h-1zm-3 1h1v1h-1zm-7 1h1v1h-1zm6 0h1v1h-1zm-1 1h1v1h-1zm1 0h1v1h-1zm-12 6h1v1h-1zm5 2h1v1h-1zm0 1h1v1h-1zm1 0h1v1h-1zm-7 7h1v1h-1zm3 1h1v1h-1zm0 1h1v1h-1zm-12 7h1v1h-1zm2 0h1v1h-1zm5 0h1v1h-1zm-7 1h1v1h-1zm-1 1h1v1h-1zm-1 1h1v1h-1zm9 0h1v1h-1zm-9 1h1v1h-1zm6 0h1v1h-1zm-7 1h1v1h-1zm7 0h1v1h-1zm-1 1h1v1h-1zm4 0h1v1h-1zm-5 1h1v2h-1zm1 0h1v1h-1zm-1 2h1v1h-1zm-1 1h1v1h-1z" fill="#dcdddf"/><path d="M126 30h1v1h-1zm1 1h1v1h-1zm-3 6h1v1h-1zm-6 7h1v1h-1zm-8 19h1v1h-1zm-3 1h1v1h-1zm-3 6h1v1h-1z" fill="#e2e4e6"/><path d="M109 33h1v1h-1zm-5 5h1v1h-1zm5 2h1v1h-1zm-5 1h1v1h-1zm30 2h1v1h-1zm-36 3h1v1h-1zm3 1h1v1h-1zm28 1h1v1h-1zm-28 2h1v1h-1zm27 1h1v1h-1zm3 1h1v1h-1zm-39 2h1v1h-1zm3 1h1v1h-1zm29 5h1v1h-1zm-6 4h1v1h-1zm2 1h1v1h-1z" fill="#4e7195"/><path d="M116 18h1v1h-1zm-4 2h1v1h-1zm-3 5h1v1h-1zM98 48h1v1h-1zm32 1h1v1h-1zm-11 24h1v1h-1zm-3 5h1v1h-1z" fill="#979b9e"/><g fill="#e5e8e9"><path d="M125 30h1v3h-1z"/><path d="M124 31h2v2h-2zm2 0h1v1h-1zm-3 2h2v2h-2zm2 0h1v1h-1zm-2 2h1v1h-1zm1 0h1v1h-1zm-10 18h1v1h-1zm-9 11h1v3h-1zm1 0h1v1h-1z"/><path d="M104 65h3v1h-3zm3 0h1v1h-1zm-3 1h1v3h-1z"/><path d="M103 67h2v1h-2zm2 0h1v1h-1zm-2 1h1v1h-1zm1 1h1v1h-1z"/></g><path d="M101 37h1v1h-1zm22 1h1v1h-1zm-25 4h1v1h-1zm17 1h1v1h-1zm21 3h1v1h-1zm-22 9h1v1h-1zm16 1h1v1h-1zM58 87h1v1h-1zm8 0h1v1h-1zm73 0h1v1h-1zm82 0h1v1h-1zm-53 1h1v1h-1zM38 89h1v1h-1zm151 0h1v1h-1zM23 91h1v1h-1zm72 0h1v1h-1zm32 0h1v1h-1zm6 0h1v1h-1zm10 1h1v1h-1zm8 0h1v1h-1zm-24 7h1v1h-1zm-78 2h1v1h-1zm74 1h1v1h-1zm-102 1h1v1h-1zm26 0h1v1h-1zm46 0h1v1h-1zm47 0h1v1h-1zm-100 1h1v1h-1zm-16 6h1v1h-1zm72 0h1v1h-1zm32 0h1v1h-1zm-10 1h1v1h-1zm114 0h1v1h-1zm-67 1h1v1h-1zm67 0h1v1h-1zm6 0h1v1h-1zm-189 1h1v1h-1zm106 1h1v1h-1zm13 0h1v1h-1zm-68 1h1v1h-1zm36 0h1v1h-1zm49 0h1v1h-1zm13 0h1v1h-1zm35 0h1v1h-1z" fill="#154b89"/><path d="M121 38h1v1h-1zm-10 3h1v1h-1zm7 2h1v1h-1zm2 1h1v1h-1zm2 1h1v1h-1zm2 1h1v1h-1zm-3 2h1v1h-1zm-13 5h1v1h-1zm2 1h1v1h-1zm7 3h1v1h-1zm-2 6h1v1h-1z" fill="#7693b6"/><path d="M114 68h1v1h-1zm-6 7h1v1h-1z" fill="#c4c5c7"/><g fill="#0e4986"><path d="M105 32h1v5h-1zm1 0h1v6h-1zm1 1h1v5h-1z"/><path d="M104 34h6v3h-6zm6 0h1v3h-1zm1 1h1v1h-1zm-9 1h1v1h-1z"/><path d="M103 36h7v1h-7zm0 1h7v1h-7zm7 0h1v1h-1zm-4 1h3v1h-3zm3 0h1v1h-1zm-1 1h1v1h-1zm1 0h1v1h-1zm-9 2h3v5h-3zm3 0h1v6h-1z"/><path d="M99 42h6v3h-6zm6 0h1v3h-1zm25 0h1v5h-1zm-24 1h1v1h-1zm25 0h1v5h-1zm1 0h1v6h-1z"/><path d="M98 44h8v1h-8zm8 0h1v1h-1zm23 0h4v3h-4zm4 0h2v3h-2zm2 0h1v1h-1zm-37 1h7v1h-7zm7 0h1v1h-1z"/><path d="M128 45h7v2h-7zm7 0h1v1h-1zm-35 1h4v1h-4zm4 0h1v1h-1zm-2 1h2v1h-2zm2 0h1v1h-1zm24 0h6v1h-6zm6 0h1v1h-1zm-3 1h2v1h-2zm2 0h1v1h-1zm-38 1h1v5h-1zm1 0h1v5h-1zm36 0h1v1h-1zm1 0h1v1h-1zm-36 1h2v1h-2zm2 0h1v5h-1z"/><path d="M94 51h8v1h-8zm8 0h1v1h-1zm23 0h2v5h-2zm2 0h1v6h-1zm-33 1h3v2h-3zm3 0h4v2h-4zm4 0h1v1h-1z"/><path d="M124 52h5v3h-5zm5 0h1v4h-1zm-36 1h7v1h-7zm37 0h1v1h-1zm-36 1h6v1h-6zm6 0h1v1h-1z"/><path d="M123 54h7v1h-7zm7 0h1v1h-1zm-33 1h2v1h-2zm2 0h1v1h-1zm24 0h6v1h-6zm2 1h4v1h-4zm4 0h1v1h-1zm-2 1h1v1h-1zm1 0h1v1h-1zm-8 2h1v5h-1z"/><path d="M119 60h4v4h-4zm4 0h1v5h-1zm1 1h2v1h-2zm2 0h1v1h-1z"/><path d="M118 62h7v1h-7zm7 0h1v1h-1zm1 0h1v1h-1zm-8 1h6v1h-6zm6 0h1v1h-1zm-5 1h5v1h-5zm5 0h1v1h-1zm-3 1h2v1h-2zm2 0h1v1h-1z"/></g><path d="M112 34h1v1h-1zm-9 4h1v1h-1zm2 3h1v1h-1zm2 1h1v1h-1zm25 0h1v1h-1zm-32 5h1v1h-1zm29 4h1v1h-1zm-32 5h1v1h-1zm26 0h1v1h-1z" fill="#7c8fa2"/><path d="M118 38h1v1h-1zm0 1h1v1h-1zm5 0h1v1h-1zm-6 1h1v1h-1zm5 0h1v1h-1zm-5 1h1v1h-1zm5 0h1v1h-1zm-6 1h1v1h-1zm5 0h1v1h-1zm0 1h1v1h-1zm-10 1h1v1h-1zm3 2h1v1h-1zm-1 1h1v1h-1zm4 1h1v1h-1zm-5 1h1v1h-1zm5 0h1v1h-1zm-6 1h1v1h-1zm5 0h1v1h-1zm0 1h1v1h-1zm-1 1h1v1h-1zm2 1h1v1h-1zm-8 1h1v1h-1zm-1 1h1v1h-1zm0 1h1v1h-1zm5 0h1v1h-1zm-13 1h1v1h-1zm7 0h1v1h-1zm5 0h1v1h-1zm0 1h1v1h-1zm-6 1h1v1h-1zm5 0h1v1h-1z" fill="#567bac"/><path d="M99 41h1v1h-1zm36 6h1v1h-1zm-39 1h1v1h-1zm-3 3h1v1h-1zm36 6h1v1h-1zm-1 1h1v1h-1z" fill="#104a85"/><path d="M115 45h1v1h-1zm-6 7h1v1h-1zm-6 7h1v1h-1zm-3 6h1v1h-1z" fill="#cfd3d5"/><path d="M124 27h1v1h-1zm-6 7h1v1h-1zm4 1h1v1h-1zm-2 12h1v1h-1zM98 63h1v1h-1zm11 3h1v1h-1zm4 1h1v1h-1zm-6 7h1v1h-1z" fill="#d0d2d4"/><path d="M119 47h1v1h-1zm-22 1h1v1h-1zm13 3h1v1h-1z" fill="#4b71a2"/><path d="M113 17h1v1h-1zm3 0h1v1h-1zm-3 7h1v1h-1zm-7 5h1v1h-1zm28 10h1v1h-1zm3 4h1v1h-1zM93 57h1v1h-1zm22 24h1v1h-1z" fill="#9c9ea0"/><path d="M119 22h1v1h-1zm-1 1h1v1h-1zm0 1h1v1h-1zm-1 1h1v1h-1zm-1 1h1v1h-1zm0 1h1v1h-1zm-2 3h1v1h-1zm-1 1h1v1h-1zm0 1h1v1h-1zm-1 1h1v1h-1zm21 8h1v1h-1zm0 1h1v1h-1zm-30 7h1v1h-1zm25 1h1v1h-1zm-30 7h1v1h-1zm26 0h1v1h-1zm-27 1h1v1h-1zm26 0h1v1h-1zm-26 1h1v1h-1zm21 7h1v1h-1zm0 1h1v1h-1zm-1 1h1v1h-1zm0 1h1v1h-1zm-1 1h1v1h-1zm-2 3h1v1h-1zm0 1h1v1h-1zm-1 1h1v1h-1zm-1 2h1v1h-1zm-1 1h1v1h-1z" fill="#b0b2b4"/><path d="M121 25h1v1h-1zm-1 1h1v1h-1zm-1 2h1v1h-1zm-1 1h1v1h-1zm-2 4h1v1h-1zm-1 1h1v1h-1zm17 4h1v1h-1zm-1 1h1v1h-1zm-5 9h1v1h-1zm-1 1h1v1h-1zm-19 1h1v1h-1zm-1 1h1v1h-1zm16 6h1v1h-1zm-21 3h1v1h-1zm-1 1h1v1h-1zm0 1h1v1h-1zm17 2h1v1h-1zm0 1h1v1h-1zm-1 1h1v1h-1zm-3 5h1v1h-1zm0 1h1v1h-1zm-1 1h1v1h-1zm-1 2h1v1h-1z" fill="#c0c1c3"/><path d="M115 37h1v1h-1zm0 1h1v1h-1zm-1 1h1v1h-1zm-1 1h1v1h-1zm1 0h1v1h-1zm11 1h1v1h-1zm0 1h1v1h-1zm-1 1h1v1h-1zm0 1h1v1h-1zm-14 1h1v1h-1zm1 0h1v1h-1zm12 0h1v1h-1zm-13 1h1v1h-1zm-1 1h1v1h-1zm0 1h1v1h-1zm-1 1h1v1h-1zm13 0h1v1h-1zm-1 1h1v1h-1zm-1 1h1v1h-1zm1 0h1v1h-1zm-1 1h1v1h-1zm-13 1h1v1h-1zm12 0h1v1h-1zm-13 1h1v1h-1zm-1 1h1v1h-1zm1 0h1v1h-1zm-1 1h1v1h-1zm-1 1h1v1h-1zm12 1h1v1h-1zm0 1h1v1h-1zm-1 1h1v1h-1zm0 1h1v1h-1z" fill="#31659d"/><path d="M100 40h1v1h-1zm36 5h1v1h-1zm-12 20h1v1h-1zm-2 1h1v1h-1zm16 22h1v1h-1zm18 0h1v1h-1zm30 0h1v1h-1zm-20 2h1v1h-1zm-1 1h1v1h-1zm15 0h1v1h-1zm-38 1h1v1h-1zm14 0h1v1h-1zM40 93h1v1h-1zm171 0h1v1h-1zM54 94h1v1h-1zm139 1h1v1h-1zM52 97h1v1h-1zm93 0h1v1h-1zm26 0h1v1h-1zm36 0h1v1h-1zm-80 1h1v1h-1zm21 0h1v1h-1zm68 1h1v1h-1zm-171 2h1v1h-1zm4 1h1v1h-1zm6 0h1v1h-1zm84 0h1v1h-1zm73 1h1v1h-1zm-99 1h1v1h-1zm33 0h1v1h-1zm12 0h1v1h-1zm55 0h1v1h-1zm-42 1h1v1h-1zm-129 1h1v1h-1zm120 0h1v1h-1zm-110 1h1v1h-1zm65 2h1v1h-1zm1 1h1v1h-1zm16 0h1v1h-1zm24 0h1v1h-1zm6 0h1v1h-1zm54 0h1v1h-1zm-173 1h1v1h-1zm83 0h1v1h-1zm14 0h1v1h-1zm5 0h1v1h-1zm72 0h1v1h-1zm-90 1h1v1h-1zm37 0h1v1h-1zm-36 1h1v1h-1zm58 0h1v1h-1zm51 0h1v1h-1zm-192 1h1v1h-1zm139 0h1v1h-1zm-47 1h1v1h-1zm43 0h1v1h-1z" fill="#104785"/><path d="M120 23h1v1h-1zm-1 1h1v1h-1zm0 1h1v1h-1zm-1 1h1v1h-1zm0 1h1v1h-1zm-1 1h1v1h-1zm-2 4h1v1h-1zm-1 1h1v1h-1zm-1 1h1v1h-1zm20 5h1v1h-1zm-1 1h1v1h-1zm0 1h1v1h-1zm-23 1h1v1h-1zm18 7h1v1h-1zm-23 1h1v1h-1zm-5 8h2v1h-2zm2 0h1v1h-1zm21 0h1v1h-1zm-23 1h1v1h-1zm-1 1h1v1h-1zm19 6h1v1h-1zm-1 1h1v1h-1zm0 1h1v1h-1zm-3 4h1v1h-1zm0 1h1v1h-1zm-1 1h1v1h-1zm0 1h1v1h-1zm-1 1h1v1h-1zm-1 1h1v1h-1z" fill="#b8babb"/><path d="M107 27h1v1h-1zm-1 3h1v1h-1zM96 46h1v1h-1zm21 0h1v1h-1zm15 5h1v1h-1zm-20 1h1v1h-1zm4 19h1v1h-1zm5 0h1v1h-1zm-11 7h1v1h-1z" fill="#959da7"/><path d="M123 28h1v1h-1zm0 1h1v1h-1zm-1 1h1v1h-1zm0 1h1v1h-1zm-1 1h1v1h-1zm8 2h1v1h-1zm-1 1h1v1h-1zm-1 1h1v1h-1zm1 0h1v1h-1zm-1 1h1v1h-1zm-1 1h1v1h-1zm0 1h1v1h-1zm-5 7h1v1h-1zm1 0h1v1h-1zm-1 1h1v1h-1zm-6 6h1v1h-1zm2 1h1v1h-1zm0 1h1v1h-1zm-13 6h1v1h-1zm-1 1h1v1h-1zm0 1h1v1h-1zm8 0h1v1h-1zm1 0h1v1h-1zm-10 1h1v1h-1zm7 3h1v1h-1zm-1 1h1v1h-1zm1 0h1v1h-1zm-1 1h1v1h-1zm-1 1h1v1h-1zm0 1h1v1h-1z" fill="#d6d8da"/><path d="M114 16h1v1h-1zm-2 11h1v1h-1zm-5 1h1v1h-1zM97 47h1v1h-1zm24 23h1v1h-1zm-5 5h1v1h-1zm-3 6h1v1h-1zm1 1h1v1h-1z" fill="#9a9d9e"/><path d="M113 18h1v1h-1zm4 1h1v1h-1zm-5 3h1v1h-1zm-1 4h1v1h-1zm-8 14h1v1h-1zM92 55h1v1h-1zm29 12h1v1h-1zm-6 13h1v1h-1z" fill="#9a9c9f"/><path d="M112 19h1v1h-1zm-1 2h1v1h-1zm-2 3h1v1h-1zm1 0h1v1h-1zm-3 7h1v1h-1zm18 8h1v1h-1zm2 21h1v1h-1zm-8 14h1v1h-1zm-3 5h1v1h-1z" fill="#959a9e"/><path d="M116 21h1v1h-1zm-1 1h1v1h-1zm1 0h1v1h-1zm-1 1h1v1h-1zm-1 1h1v1h-1zm-2 4h1v1h-1zm-1 1h1v1h-1zm0 1h1v1h-1zm-1 1h1v1h-1zm-1 1h1v1h-1zm1 0h1v1h-1zm-5 7h1v1h-1zm0 1h1v1h-1zm30 2h1v1h-1zm-35 6h1v1h-1zm0 1h1v1h-1zm30 2h1v1h-1zm-35 5h1v1h-1zm0 1h1v1h-1zm30 2h1v1h-1zm-5 8h1v1h-1zm0 1h1v1h-1zm-1 1h1v1h-1zm0 1h1v1h-1zm-1 1h1v1h-1zm-3 5h1v1h-1zm-1 1h1v1h-1zm0 1h1v1h-1zm-1 1h1v1h-1zm0 1h1v1h-1z" fill="#a2a5a6"/><path d="M120 22h1v1h-1zm0 2h1v1h-1zm1 0h1v1h-1zm-1 1h1v1h-1zm-1 1h1v1h-1zm0 1h1v1h-1zm-1 1h1v1h-1zm-4 1h1v1h-1zm3 0h1v1h-1zm-2 4h1v1h-1zm-1 1h1v1h-1zm5 1h1v1h-1zm14 3h1v1h-1zm-1 1h1v1h-1zm-1 1h1v1h-1zm0 1h1v1h-1zm-4 7h1v1h-1zm-1 1h1v1h-1zm-21 1h1v1h-1zm17 7h1v1h-1zm-1 1h1v1h-1zm-21 1h1v1h-1zm-1 1h1v1h-1zm-1 1h1v1h-1zm-1 1h1v1h-1zm1 0h1v1h-1zm19 3h1v1h-1zm-1 1h1v1h-1zm-6 1h1v1h-1zm5 0h1v1h-1zm0 1h1v1h-1zm-1 4h1v1h-1zm-2 1h1v1h-1zm-1 1h1v1h-1zm0 1h1v1h-1zm-1 1h1v1h-1zm1 3h1v1h-1z" fill="#bcbdbf"/><path d="M97 44h1v1h-1zm34 10h1v1h-1zm-16 33h1v1h-1zm91 0h1v1h-1zm-72 3h1v1h-1zm-93 4h1v1h-1zm152 0h1v1h-1zm-31 1h1v1h-1zm10 0h1v1h-1zm-54 2h1v1h-1zm-79 5h1v1h-1zm9 1h1v1h-1zm146 2h1v1h-1zm-70 1h1v1h-1zm54 5h1v1h-1zm-132 2h1v1h-1zm91 2h1v1h-1zm15 0h1v1h-1zm19 0h1v1h-1z" fill="#104986"/><path d="M114 42h1v1h-1zm-9 17h1v1h-1z" fill="#4671a6"/><path d="M1 87h22v1H1zm22 0h1v1h-1zm50 0h22v1H73zm22 0h1v1h-1zm7 0h12v1h-12zm12 0h1v1h-1zm58 0h1v1h-1zm28 0h5v1h-5zm5 0h1v1h-1zm17 0h6v1h-6zm6 0h1v1h-1zM66 88h1v26h-1zm163 0h1v26h-1zm-62 1h1v1h-1zm-21 2h1v1h-1zm1 0h1v1h-1zm10 0h1v1h-1zm20 0h2v1h-2zm2 0h1v1h-1zm-5 1h1v1h-1zm39 3h1v1h-1zm-70 1h1v1h-1zM9 98h11v1H9zm11 0h1v1h-1zm16 0h1v16h-1zm45 0h11v1H81zm11 0h1v1h-1zm41 0h1v1h-1zm16 0h1v1h-1zm22 0h1v1h-1zm23 0h1v1h-1zm12 0h1v16h-1zM21 99h1v3h-1zm23 0h1v1h-1zm49 0h1v3h-1zm17 0h4v1h-4zm4 0h1v1h-1zm-64 1h1v1h-1zm160 1h1v1h-1zm-189 1h1v1h-1zm72 0h1v1h-1zm78 2h1v1h-1zm23 0h1v1h-1zm-153 1h1v1h-1zm107 0h1v1h-1zm68 3h1v1h-1zm-42 2h1v1h-1zm-150 1h1v3h-1zm72 0h1v3h-1zm47 0h3v1h-3zm3 0h1v1h-1zm33 0h1v1h-1zm55 2h1v1h-1zm-210 1h1v1h-1zm12 0h1v1h-1zm30 0h1v1h-1zm30 0h1v1h-1zm110 0h1v1h-1zm23 0h1v1h-1zm5 0h1v1h-1zm5 0h1v1h-1zM0 115h23v1H0zm23 0h1v1h-1zm49 0h23v1H72zm23 0h1v1h-1zm6 0h7v1h-7zm7 0h1v1h-1zm15 0h8v1h-8zm8 0h1v1h-1zm7 0h1v1h-1zm61 0h6v1h-6zm6 0h1v1h-1zm18 0h5v1h-5zm5 0h1v1h-1z" fill="#124885"/><path d="M114 17h1v3h-1zm1 0h1v1h-1zm0 1h1v1h-1zm-2 1h1v3h-1zm1 1h1v1h-1zm-2 1h1v1h-1zm1 1h1v1h-1zm-3 3h1v1h-1zm-1 1h1v2h-1zm1 0h1v1h-1zm-2 1h1v3h-1zm1 1h1v1h-1zm-2 1h1v1h-1zm0 1h1v1h-1zm1 0h1v1h-1zm-6 8h1v1h-1zm33 5h1v1h-1zm-37 4h1v1h-1zm-5 8h1v1h-1zm1 0h1v1h-1zm27 14h1v1h-1zm-1 2h1v1h-1zm-4 6h1v1h-1zm-1 2h1v1h-1zm-1 2h1v1h-1z" fill="#989b9c"/><path d="M121 26h1v1h-1zm-1 1h1v1h-1zm0 1h1v1h-1zm-1 1h1v1h-1zm-3 5h1v1h-1zm15 4h1v1h-1zm-1 1h1v1h-1zm-2 1h2v1h-2zm2 0h1v1h-1zm-19 2h1v1h-1zm0 1h1v1h-1zm11 5h1v1h-1zm3 0h1v1h-1zm-19 3h1v1h-1zm10 5h1v1h-1zm5 0h1v1h-1zm-1 1h1v1h-1zm-19 2h1v1h-1zm0 1h1v1h-1zm-1 1h1v1h-1zm12 1h1v1h-1zm-13 1h1v1h-1zm15 0h1v1h-1zm1 2h1v1h-1zm-1 1h1v1h-1zm0 1h1v1h-1zm-3 4h1v1h-1zm0 1h1v1h-1zm-1 1h1v1h-1zm0 1h1v1h-1zm-1 1h1v1h-1z" fill="#c3c5c7"/><path d="M128 32h1v1h-1zm-18 21h1v1h-1zm5 2h1v1h-1zm-11 5h1v1h-1zm5 2h1v1h-1zm-1 3h1v1h-1z" fill="#dde0e1"/><path d="M118 37h1v1h-1zm1 1h1v1h-1zm0 1h1v1h-1zm3 0h1v1h-1zm-4 1h1v1h-1zm3 0h1v1h-1zm-3 1h1v1h-1zm3 0h1v1h-1zm-4 1h1v1h-1zm3 0h1v1h-1zm0 1h1v1h-1zm-7 2h1v1h-1zm2 1h1v1h-1zm-1 1h1v1h-1zm3 0h1v1h-1zm-4 1h1v1h-1zm0 1h1v1h-1zm3 0h1v1h-1zm-4 1h1v1h-1zm3 0h1v1h-1zm-3 1h1v1h-1zm3 0h1v1h-1zm-6 4h1v1h-1zm0 1h1v1h-1zm3 0h1v1h-1zm-4 1h1v1h-1zm3 0h1v1h-1zm-4 1h1v1h-1zm4 0h1v1h-1zm-4 1h1v1h-1zm3 0h1v1h-1zm0 1h1v1h-1z" fill="#6080b1"/><path d="M113 42h1v1h-1zm18 8h1v1h-1zm-37 8h1v1h-1zm23 18h1v1h-1z" fill="#99a0a8"/><path d="M95 48h1v1h-1zm37 4h1v1h-1zm8 35h1v1h-1zm13 0h1v1h-1zM24 88h1v1h-1zm13 0h1v1h-1zm59 0h1v1h-1zm20 4h1v1h-1zm57 1h1v1h-1zM53 95h1v1h-1zm64 3h1v1h-1zm54 1h1v1h-1zm-115 2h1v1h-1zm-10 1h1v1h-1zm92 0h1v1h-1zm81 0h1v1h-1zm-48 1h1v1h-1zm-26 1h1v1h-1zm76 0h1v1h-1zm-168 2h1v1h-1zm110 3h1v1h-1zm10 0h1v1h-1zm4 2h1v1h-1zm-45 2h1v1h-1zm24 0h1v1h-1zm-108 1h1v1h-1zm74 1h1v1h-1zm62 0h1v1h-1z" fill="#114a84"/><path d="M117 20h1v2h-1zm0 2h1v1h-1zm-1 1h1v1h-1zm-1 1h1v1h-1zm1 0h1v1h-1zm-1 1h1v1h-1zm-3 4h1v1h-1zm1 0h1v1h-1zm-1 1h1v1h-1zm-1 1h1v1h-1zm0 1h1v1h-1zm-5 8h1v1h-1zm28 2h1v1h-1zm-33 6h1v1h-1zm0 1h1v1h-1zm29 1h1v1h-1zm-34 6h1v1h-1zm0 1h1v1h-1zm-1 1h1v1h-1zm30 0h1v1h-1zm-2 1h1v1h-1zm1 0h1v1h-1zm-4 7h1v1h-1zm-1 2h1v1h-1zm-1 1h1v1h-1zm0 1h1v1h-1zm-1 1h1v1h-1zm-2 3h1v1h-1zm0 1h1v1h-1zm-1 1h1v1h-1zm-1 2h1v1h-1zm-1 1h1v1h-1z" fill="#a7a9ab"/><path d="M118 21h1v1h-1zm0 1h1v1h-1zm-1 1h1v1h-1zm0 1h1v1h-1zm-1 1h1v1h-1zm-3 5h1v1h-1zm-1 1h1v1h-1zm0 1h1v1h-1zm-1 1h1v1h-1zm-4 7h1v1h-1zm27 0h1v1h-1zm-28 1h1v1h-1zm1 0h1v1h-1zm27 0h1v1h-1zm-26 1h1v1h-1zm21 7h1v1h-1zm0 1h1v1h-1zm-32 7h1v1h-1zm-1 1h1v2h-1zm28 0h1v1h-1zm-28 2h1v1h-1zm23 6h1v1h-1zm0 1h1v1h-1zm-1 1h1v1h-1zm-1 2h1v1h-1zm-3 5h1v1h-1zm-1 1h1v1h-1zm0 1h1v1h-1zm-1 1h1v1h-1z" fill="#acaeb0"/><path d="M122 27h1v1h-1zm-1 1h1v1h-1zm0 1h1v1h-1zm-1 1h1v1h-1zm0 1h1v1h-1zm-3 4h1v1h-1zm13 1h1v1h-1zm-1 1h1v1h-1zm0 1h1v1h-1zm-1 1h1v1h-1zm-16 4h1v1h-1zm11 4h1v1h-1zm0 1h1v1h-1zm-4 7h1v1h-1zm-1 1h1v1h-1zm1 0h1v1h-1zm-17 4h1v1h-1zm0 1h1v1h-1zm-1 1h1v1h-1zm0 1h1v1h-1zm-1 1h1v1h-1zm13 0h1v1h-1zm0 1h1v1h-1zm-3 4h1v1h-1zm0 1h1v1h-1zm-1 1h1v1h-1zm-1 1h1v1h-1zm1 0h1v1h-1zm-1 1h1v1h-1z" fill="#cdcecf"/><path d="M111 34h1v1h-1zm-4 5h1v1h-1zm-1 3h1v1h-1zm25 0h1v1h-1zm-4 5h1v1h-1zm-34 7h1v1h-1zm5 2h1v1h-1z" fill="#366391"/><path d="M117 38h1v1h-1zm0 1h1v1h-1zm-1 1h1v1h-1zm7 0h1v1h-1zm-7 1h1v1h-1zm7 0h1v1h-1zm6 0h1v1h-1zm-14 1h1v1h-1zm7 0h1v1h-1zm-13 1h1v1h-1zm13 0h1v1h-1zm-1 1h1v1h-1zm-8 2h1v1h-1zm-1 1h1v1h-1zm0 1h1v1h-1zm6 0h1v1h-1zm1 0h1v1h-1zm-13 1h1v1h-1zm5 0h1v1h-1zm7 0h1v1h-1zm-8 1h1v1h-1zm7 0h1v1h-1zm0 1h1v1h-1zm-1 1h1v1h-1zm-8 2h1v1h-1zm11 0h1v1h-1zm-12 1h1v1h-1zm14 0h1v1h-1zm-14 1h1v1h-1zm7 0h1v1h-1zm-8 1h1v1h-1zm7 0h1v1h-1zm-7 1h1v1h-1zm7 0h1v1h-1zm-1 1h1v1h-1zm-1 1h1v1h-1z" fill="#4d76a8"/><path d="M115 16h1v1h-1zm4 5h1v1h-1zm-5 4h1v1h-1zm-6 1h1v1h-1zm5 2h1v1h-1zm-11 11h1v1h-1zm34 3h1v1h-1zm-20 4h1v1h-1zm6 22h1v1h-1zm-2 4h1v1h-1zm-2 1h1v1h-1zm-1 4h1v1h-1zm-5 3h1v1h-1z" fill="#9b9fa4"/><path d="M113 35h1v1h-1zm2 1h1v1h-1zm-1 1h1v1h-1zm0 1h1v1h-1zm-1 1h1v1h-1zm-1 1h1v1h-1zm14 1h1v1h-1zm0 1h1v1h-1zm-1 1h1v1h-1zm-15 1h1v1h-1zm15 0h1v2h-1zm-16 1h1v1h-1zm15 0h1v1h-1zm-15 1h1v1h-1zm16 0h1v1h-1zm-17 1h1v1h-1zm0 1h1v1h-1zm-1 1h1v1h-1zm15 0h1v1h-1zm-1 1h1v1h-1zm-1 2h1v1h-1zm-15 1h1v1h-1zm14 0h1v1h-1zm-15 1h1v1h-1zm-1 2h1v1h-1zm-1 1h1v1h-1zm14 1h1v1h-1zm0 1h1v1h-1zm-1 1h1v1h-1zm0 1h1v1h-1zm-1 1h1v1h-1zm2 1h1v1h-1z" fill="#265f99"/><path d="M108 32h1v1h-1zm-2 7h1v1h-1zm-9 7h1v1h-1zm6 2h1v1h-1zm-4 1h1v1h-1zm27 1h1v1h-1zm-1 7h1v1h-1zm-3 2h1v1h-1zm3 1h1v1h-1z" fill="#6d849c"/><path d="M102 40h1v1h-1zm50 47h1v1h-1zm17 1h1v1h-1zm-24 3h1v1h-1zm3 0h1v1h-1zm-93 1h1v1h-1zm-13 4h1v1h-1zm142 0h1v1h-1zm22 1h1v1h-1zm-54 2h1v1h-1zm42 0h1v1h-1zm-38 2h1v1h-1zm-34 1h1v1h-1zm35 0h1v1h-1zm37 1h1v1h-1zm-10 3h1v1h-1zm-141 2h1v1h-1zm73 0h1v1h-1zm-65 1h1v1h-1zm125 2h1v1h-1zm-19 1h1v1h-1zm10 1h1v1h-1zm71 0h1v1h-1zm-117 1h1v1h-1zm30 1h1v1h-1zm21 0h1v1h-1z" fill="#124786"/><path d="M114 15h1v1h-1zm-3 5h1v1h-1zm-1 3h1v1h-1zm12 1h1v1h-1zm-14 1h1v1h-1zm8 6h1v1h-1zm8 7h1v1h-1zm-6 7h1v1h-1zM96 61h1v1h-1zm11 2h1v1h-1zm-7 3h1v1h-1zm15 4h1v1h-1zm1 4h2v1h-2zm2 0h1v1h-1zm-9 3h1v1h-1zm8 1h1v1h-1zm-4 4h1v1h-1z" fill="#b3b6b6"/><path d="M118 20h1v1h-1zm-3 6h1v1h-1zm20 15h1v1h-1zM95 59h1v1h-1z" fill="#a9abac"/><path d="M119 23h1v1h-1zm-1 2h1v1h-1zm-1 1h1v1h-1zm0 1h1v1h-1zm-3 4h1v1h-1zm1 0h1v1h-1zm-1 1h1v1h-1zm-1 1h1v1h-1zm2 2h1v1h-1zm18 5h1v1h-1zm-25 1h2v1h-2zm2 0h1v2h-1zm0 2h1v1h-1zm-6 6h1v1h-1zm24 0h1v1h-1zm-25 1h1v1h-1zm19 6h1v1h-1zm1 1h1v1h-1zm-25 1h1v1h-1zm0 1h1v1h-1zm-1 1h1v1h-1zm0 1h1v1h-1zm21 4h1v1h-1zm-1 2h1v1h-1zm-1 2h1v1h-1zm-3 5h1v1h-1zm-1 2h1v1h-1zm-1 1h1v1h-1z" fill="#b3b6b8"/><path d="M123 27h1v1h-1zm-1 1h1v1h-1zm0 1h1v1h-1zm-1 1h1v1h-1zm0 1h1v1h-1zm-3 4h1v1h-1zm11 0h1v1h-1zm-11 1h1v1h-1zm11 0h1v1h-1zm-1 1h1v1h-1zm-1 1h1v1h-1zm1 0h1v1h-1zm-1 1h1v1h-1zm-14 5h1v1h-1zm9 3h1v1h-1zm-14 5h1v1h-1zm10 3h1v1h-1zm-1 1h1v1h-1zm-14 4h1v1h-1zm0 1h1v1h-1zm-1 1h1v1h-1zm0 1h1v1h-1zm11 0h1v1h-1zm-12 1h1v1h-1zm11 0h1v1h-1zm-11 1h1v1h-1zm8 4h1v1h-1zm-1 1h1v1h-1zm1 0h1v1h-1zm-1 1h1v1h-1zm-1 1h1v1h-1zm0 1h1v1h-1z" fill="#d2d3d5"/><path d="M125 28h1v1h-1zm4 5h1v1h-1zm-8 1h1v1h-1zm-7 20h1v1h-1zm-9 7h1v1h-1zm3 0h1v1h-1zm4 5h1v1h-1zm-10 2h1v1h-1zm4 5h1v1h-1z" fill="#dcdedf"/><path d="M123 26h1v1h-1zm-5 4h1v1h-1zm-1 3h1v1h-1zm15 4h1v1h-1zM99 64h1v1h-1zm14 7h1v1h-1z" fill="#c5c6c8"/><path d="M107 32h1v1h-1zm-3 1h1v1h-1zm-3 7h1v1h-1zm-3 3h1v1h-1zm33 6h1v1h-1zm-1 6h1v1h-1zm-7 11h1v1h-1zm19 21h1v1h-1zm9 0h1v1h-1zm22 0h1v1h-1zm9 0h1v1h-1zM57 89h1v1h-1zm131 0h1v1h-1zM38 90h1v1h-1zm106 1h1v1h-1zm5 0h1v1h-1zm-40 1h1v6h-1zm18 0h1v1h-1zm37 0h1v1h-1zm28 1h1v1h-1zm-51 1h1v1h-1zm31 0h1v1h-1zm-63 4h1v1h-1zm6 1h1v1h-1zm39 1h1v1h-1zm40 0h1v2h-1zm23 0h1v1h-1zm-23 2h1v1h-1zm-154 1h1v1h-1zm7 1h1v1h-1zm62 0h1v10h-1zm41 3h1v1h-1zm43 0h1v1h-1zm-43 1h1v1h-1zm22 0h1v1h-1zm-31 3h1v1h-1zm39 0h1v1h-1zm-131 1h1v1h-1zm188 1h1v1h-1zm-128 1h1v1h-1zm22 0h1v1h-1zm105 0h2v1h-2zm2 0h1v1h-1zm-209 1h6v1h-6zm6 0h1v1h-1zm24 0h6v1h-6zm6 0h1v1h-1zm75 0h1v1h-1zm10 0h1v1h-1zm23 0h1v1h-1z" fill="#104886"/><path d="M120 32h1v1h-1zm0 5h1v1h-1zm-6 7h1v1h-1zm-6 7h1v1h-1zm3 13h1v1h-1zm0 5h1v1h-1zm-6 2h1v1h-1z" fill="#d4d7d8"/><path d="M122 38h1v1h-1zm-6 5h1v1h-1zm-3 12h1v1h-1zm-6 5h1v1h-1zm14 6h1v1h-1z" fill="#5b7cab"/><path d="M124 39h1v1h-1zm-16 11h1v1h-1zm3 1h1v1h-1zm4 5h1v1h-1z" fill="#5078a9"/><path d="M124 30h1v1h-1zm-1 2h1v1h-1zm3 0h1v3h-1zm1 0h1v1h-1zm-5 1h1v1h-1zm5 0h1v1h-1zm-5 1h1v1h-1zm3 0h1v2h-1zm1 1h1v1h-1zm-2 1h1v1h-1zm1 0h1v1h-1zm-5 9h1v1h-1zm-5 9h1v1h-1zm-6 7h1v1h-1zm-4 1h1v1h-1zm5 0h1v1h-1zm-5 1h1v1h-1zm1 0h1v1h-1zm-2 1h1v1h-1zm-1 1h1v1h-1zm0 1h1v1h-1zm3 0h1v2h-1zm1 0h1v1h-1zm-5 1h1v1h-1zm5 0h1v1h-1zm-2 1h1v2h-1zm1 0h1v1h-1zm-1 2h1v1h-1z" fill="#e1e3e4"/><path d="M105 31h1v1h-1zm28 19h1v1h-1zm-42 4h1v1h-1zm36 7h1v1h-1zm-3 5h1v1h-1zM36 87h1v1h-1zm82 0h1v1h-1zm-61 1h1v1h-1zm78 1h1v1h-1zm-9 1h1v1h-1zm84 1h1v1h-1zm-96 1h1v1h-1zm78 0h1v1h-1zm-10 1h1v1h-1zm-40 2h1v1h-1zm73 2h1v1h-1zm-65 1h1v1h-1zm57 0h1v1h-1zm9 0h1v1h-1zm-63 1h1v1h-1zm55 0h1v1h-1zm-163 1h1v1h-1zm81 0h1v1h-1zm8 0h1v1h-1zm10 4h1v1h-1zm69 1h1v1h-1zm-99 1h1v1h-1zm35 0h1v1h-1zm65 0h1v1h-1zm-172 1h1v1h-1zm83 0h1v1h-1zm-73 1h1v1h-1zm74 0h1v1h-1zm1 1h1v1h-1zm8 0h1v1h-1zm4 1h1v1h-1zm53 0h1v1h-1zm-73 2h1v1h-1zm100 0h1v1h-1zm16 0h1v1h-1zm-46 1h1v1h-1zm31 0h1v1h-1zm-192 2h1v1h-1zm30 0h1v1h-1zm74 0h1v1h-1zm105 0h1v1h-1z" fill="#114a85"/><path d="M117 36h1v1h-1zm2 1h1v1h-1zm0 7h1v1h-1zm2 1h1v1h-1zm-14 5h1v1h-1zm13 5h1v1h-1zm-2 2h1v1h-1zm-10 3h1v1h-1zm2 1h1v1h-1z" fill="#afbbcb"/></svg>