<svg xmlns="http://www.w3.org/2000/svg" role="img" viewBox="-19.98 -19.98 1038.96 379.96"><title>Fledge logo</title><style>svg {enable-background:new 0 0 1000 340.9}</style><style>.st0,.st1{fill-rule:evenodd;clip-rule:evenodd;fill:#050505}.st1{fill:#2b2b28}.st2{fill:#ffcc04}.st2,.st3,.st4,.st5,.st6,.st7,.st8{fill-rule:evenodd;clip-rule:evenodd}.st3{fill:#ef8b22}.st4{fill:#fff}.st5{fill:#3f3e3b}.st6{fill:#8e764c}.st7{fill:#917e56}.st10,.st8{fill:#b99b60}.st11{fill:#050505}.st12{fill:#2b2b28}.st13{fill:#ffcc04}.st14{fill:#ef8b22}.st15{fill:#fff}.st16{fill:#3f3e3b}.st17{fill:#8e764c}.st18{fill:#917e56}</style><path d="M145.5 292.2c2.6 1.6 5.3 3.8 6.4 6.3.7 1.4.7 3.1.2 4.6-.1.1-.1.3-.2.4 4.4.6 8.8 1.4 12.9 2.8 4.4 1.5 9.3 4 10.6 8.9.5 2 .3 4.1-.4 6-1.2 3-4.2 5.1-7.3 5.7.4 2.1.1 4.2-1 6.1-2.9 5.1-9.4 5.9-14.3 3.2-.4-.2-.8-.5-1.1-.8-.3.8-.7 1.6-1.3 2.4-2.3 3-6.2 3.7-9.7 2.8-1.1-.3-2.1-.8-3-1.5-1.3-1-2.1-2.3-2.9-3.8-.5-.9-.9-1.8-1.6-2.6-.3-.3-.6-.7-.8-1.1l-1.2-1.8c-1.1-1.6-2.3-3.2-3.5-4.7l-1.2-1.5c-1.7-2-3.5-4-5.4-5.7-.6-.5-1.2-1.1-1.8-1.6-.4-.3-.9-.7-1.2-1.2-.4-.8-.6-1.8-.7-2.8-2.8-.9-5.6-2.1-8.4-3.3-.8 2-2.2 3.5-4.6 4.1-3.7.9-9.1-2.5-12.1-4.4-5.1-3.1-9.9-6.7-14.4-10.6-.5-.4-.9-.8-1.4-1.2-1.7 1.8-3 4-3.8 6.4-.2.6-.6 1.2-1 1.7 0 .9 0 1.8-.1 2.7 0 2 0 5.5-.9 7.3-.2.5-.8.9-1.2 1.2-.6.5-1.2 1-1.8 1.6-2 1.8-3.8 3.7-5.4 5.7l-1.2 1.5c-1.2 1.6-2.3 3.1-3.5 4.7l-1.2 1.8c-.3.4-.5.8-.8 1.1-.7.7-1.1 1.7-1.6 2.6-.8 1.5-1.5 2.7-2.9 3.8-.9.7-1.9 1.2-3 1.5-3.5.9-7.4.1-9.7-2.8-.6-.8-1-1.6-1.3-2.4-.3.3-.7.5-1.1.8-4.9 2.7-11.4 1.8-14.3-3.2-1.1-1.9-1.4-4-1-6.1-3.2-.6-6.1-2.6-7.3-5.7-.8-1.9-1-4-.4-6 1.3-4.9 6.2-7.4 10.6-8.9 4.8-1.6 10.1-2.5 15.1-3.1 4.6-.6 9.3-1 14-1.3 1.6-.1 3.3-.2 4.9-.3.1-.4.1-.9.2-1.3 0-.3-.1-.6-.1-.9-.3-2.1-.7-4.2-1-6.3l-.3-1.8c-.8-4.1-2.4-8-4-11.8 0-.1-.1-.1-.1-.2-.5.2-1 .2-1.5.3-.6 0-1.2 0-1.8-.2-2.4-.6-4.7-3.3-6.3-5-2.6-2.9-5.1-6-7.5-9.2-6.9-9-13.3-18.4-19-28.2C9.2 225.6 1 209.7.3 196.5c-.7-13.5 2.4-27.2 8.8-39.1 3.6-6.8 8.8-13.8 14.9-18.7-1-3.4-1.6-6.9-2-10.4-1.3.2-2.7.3-3.8.5-1.8.2-3.8.3-5.7.2-.9 0-1.6-.7-1.7-1.5-.2-.9.3-1.7 1.1-2 .9-.5 3-3.5 3.6-4.4.6-1 1.2-1.9 1.8-2.9.2-.3.3-.6.4-.9v-.1c2.6-5.1 2.9-12.3 2.7-18-.2-5.4 1.6-12.4 3.4-17.5 1.3-3.7 2.8-7.5 4.6-11v-1c.1-4.9 1-10.2 2.2-14.9 2.4-10 6.9-19.8 14.3-27.1-.6-1.5-.4-3.2.5-4.6 2.1-3.2 6.3-5.9 9.8-7.3 1.7-.7 3.5-.3 4.8.7 1.1-.6 2.2-1.2 3.3-1.7-.5-1.1-.5-2.2-.2-3.4.4-1.3 1.1-2.4 2.3-3.1 19.3-11.2 40.3-11.2 59.5 0 1.2.7 2 1.8 2.3 3.1.3 1.1.2 2.3-.2 3.4 1.1.5 2.2 1.1 3.3 1.7 1.3-1.1 3.2-1.4 4.9-.7 3.5 1.4 7.7 4.1 9.8 7.3.9 1.4 1.1 3.1.5 4.6 7.3 7.4 11.8 17.1 14.3 27.1 1.2 4.8 2 10 2.2 14.9V71c0 .4-.1.8-.1 1.2 4.1 9.1 6.7 21.8 6.2 31.6 0 .3.1.8.1 1.2.1.8.2 1.6.4 2.4.4 2.1.8 4.2 1.3 6.2.4 1 .8 1.9 1.3 2.8.7 1.4 1.1 3.1 1.7 4.6.9 2.3 2.1 4.4 3.6 6.4.4.6.5 1.3.2 1.9s-.9 1-1.6 1c-3 .1-6.3-.9-9.1-1.9l-.5-.1c-.6 3.4-.9 7-.9 10.5 6.1 4.9 11.1 11.8 14.8 18.6 6.3 11.9 9.5 25.6 8.8 39.1-.7 13.2-8.8 29.1-15.5 40.4-5.7 9.8-12.1 19.2-19 28.2-2.4 3.1-4.9 6.2-7.5 9.2-1.3 1.4-3 3.4-4.9 4.5.5.4 1 .9 1.5 1.3 3 2.5 6 6.3 4.2 10.4-.7.7-1.1 1.2-1.5 1.7z" class="st0"/><path d="M142.2 292.4c2.9 1.6 6.8 4.1 8 6.8.4 1 .5 2.1.1 3.1-.5 1.3-1.6 2-2.8 2.4.6.1 1.3.1 1.9.2 4.9.6 10.1 1.5 14.7 3 3.7 1.3 8.3 3.4 9.4 7.6.4 1.6.3 3.3-.4 4.8-1.3 3.1-4.8 4.9-8.1 4.7.1.2.2.5.3.7.8 2 .7 4.2-.4 6.1-2.4 4.2-7.8 4.7-11.8 2.5-1.5-.8-2-2.2-2.7-3.6l-.3-.6c-.4-.3-.9-.6-1.3-.9 1.1 2.3 1.3 5-.4 7.2-1.8 2.4-5 2.9-7.8 2.2-.9-.2-1.6-.6-2.3-1.1-2.1-1.7-2.5-4.2-4.2-6.1-.6-.6-3.6-5.3-6.6-9-4.2-5.1-8.1-8-8.2-8.2-.3-.7-.5-1.9-.6-3.3-3.9-1.2-7.7-2.8-11.3-4.5-.3 2.3-1.3 4.3-3.8 4.9-2.9.8-8.3-2.6-10.7-4.1-4.9-3.1-9.8-6.6-14.2-10.4-.9-.7-1.7-1.5-2.6-2.3-2.4 2.2-4.3 5-5.5 8.3-.2.6-.6 1.1-1.1 1.5-.1 3.4 0 8.3-.8 9.9-.1.3-4.1 3.1-8.2 8.2-3.1 3.7-6.1 8.4-6.6 9-1.7 1.9-2.1 4.4-4.2 6.1-.7.5-1.5.9-2.3 1.1-2.8.7-5.9.2-7.8-2.2-1.7-2.2-1.5-4.9-.4-7.2-.4.3-.9.6-1.3.9-.1.2-.2.5-.3.6-.7 1.4-1.2 2.8-2.7 3.6-4 2.2-9.4 1.7-11.8-2.5-1.1-1.9-1.2-4.1-.4-6.1.1-.2.2-.5.3-.7-3.3.2-6.9-1.6-8.1-4.7-.6-1.5-.8-3.2-.4-4.8 1.1-4.2 5.7-6.3 9.4-7.6 4.7-1.6 9.9-2.4 14.7-3 4.6-.6 9.2-1 13.9-1.3 1.7-.1 3.4-.2 5.2-.3.4 0 .8-.1 1.2-.1.1-.4.1-.8.2-1.1.1-.7.2-1.3.3-2 0-.4-.1-.8-.2-1.2-.3-2.1-.7-4.2-1-6.3l-.3-1.8c-.9-4.2-2.4-8.2-4.1-12.1l-.9-2.1c-.7.6-1.5 1-2.5 1-.4 0-.8 0-1.2-.1-1.8-.4-4.2-3.1-5.4-4.5-2.6-2.9-5.1-6-7.4-9.1-6.8-8.9-13.3-18.3-18.9-28-6.4-10.9-14.6-26.8-15.2-39.6-.7-13.2 2.4-26.5 8.6-38.1 3.6-6.7 8.9-14 15.4-18.9-1.3-4.1-2.1-8.4-2.6-13.3-2.2.7-8.5 1.2-11 1.1 1.5-.6 4.5-5 6.2-8.2.2-.4.4-.7.5-.9v-.1c2.7-5.5 3.1-12.9 2.9-18.9-.3-7.2 3.7-19.9 8-28v-1.3c.1-4.8 1-10.2 2.1-14.6 2.5-10.2 7.1-20 14.7-27.2-.2-.3-.3-.5-.4-.7-.5-1.1-.4-2.3.2-3.3 1.9-2.9 5.9-5.4 9-6.6 1.4-.6 3 0 3.8 1.3 2-1.2 4.1-2.2 6.2-3.1l-.7-1.3c-.4-.8-.5-1.6-.3-2.5s.7-1.5 1.5-2c18.7-10.9 39-10.9 57.7 0 .8.4 1.3 1.1 1.5 2s.1 1.7-.3 2.5l-.7 1.3c2.1.9 4.2 2 6.2 3.1.7-1.3 2.4-1.9 3.8-1.3 3.1 1.2 7.1 3.7 9 6.6.7 1 .7 2.2.2 3.3-.1.2-.2.4-.4.7 7.6 7.2 12.2 16.9 14.7 27.2 1.1 4.4 2 9.9 2.1 14.6v1.2c0 .5-.1.9-.3 1.3 4.5 9.5 6.8 22.5 6.4 31.4-.1 1.2.8 5.8 1.8 10.4.4 1.1.9 2.1 1.4 3.1 1.2 2.2 1.3 5.8 5.5 11.3-2.9.1-6.2-1-8.6-1.9l-2.4-.3c-.9 4.4-1.3 9-1.3 13.4 6.3 4.9 11.5 12 15 18.6 6.2 11.6 9.2 25 8.6 38.1-.7 12.8-8.8 28.7-15.2 39.6-5.7 9.7-12.1 19.1-18.9 28-2.4 3.1-4.8 6.2-7.4 9.1-1.2 1.4-3.5 4-5.4 4.5-.4.1-.8.1-1.2.1-.3 0-.6-.1-.9-.2.7.7 1.5 1.5 2.3 2.1l2.1 1.8c2.3 2 5.1 5 3.7 8.3-1.1 1.4-2.1 2.3-3.2 2.8z" class="st0"/><path d="M142.2 292.4c2.9 1.6 6.8 4.1 8 6.8.4 1 .5 2.1.1 3.1-1.1 2.7-4.4 2.9-6.9 2.8-1.6-.1-3.3-.3-5-.5 1.1 1.4 2 3.1 1.4 4.9-1.2 4.4-7.9 3.8-11.4 3.5-7.2-.7-14.5-3.4-21.2-6.5-.3 2.3-1.3 4.3-3.8 4.9-2.9.8-8.3-2.6-10.7-4.1-4.9-3.1-9.8-6.6-14.2-10.4-5-4.3-11.1-10.1-14.3-15.9-.2-.4-.4-.9-.4-1.4-.1-4 .9-7.8 3.1-11.2 5.1-7.6 15.4-10.9 24.1-12.3 6.4-1 13.3-1.3 19.8-.8 2.3.2 4.7.4 7 1 2 .5 4.4 1.2 5 3.4.2.7 1 2 1.4 2.7 1.1 1.7 2.3 3.4 3.5 5.1 3.3 4.4 7.1 8.6 11.2 12.3l2.1 1.8c2.3 2 5.1 5 3.7 8.3-.4 1.1-1.4 2-2.5 2.5z" class="st0"/><path d="M67.1 279.5c6.7 12.6 32.4 29.7 35.6 28.9 1.3-.3 1.6-2.1 1.5-4.1-3.8-3.1-7.8-7-8.5-10.6 5.3 4.5 9.9 7.5 15.8 11.3h.1c5.9 2.5 11.6 4.4 17.1 4.9 20.3 1.9-4-11.2-4-11.2s24.5 6 22.6 1.7c-1.9-4.2-17.1-10.3-17.1-10.3s18.9 2.1 8.9-6.3c-10.1-8.5-18.3-20.2-19.2-23.4-.8-3.1-53.4-7.1-52.8 19.1z" class="st1"/><path d="M156.4 136.1c9 4.2 16.4 13.7 21 22.3 6.2 11.6 9.2 25 8.6 38.1-.7 12.8-8.8 28.7-15.2 39.6-5.7 9.7-12.1 19.1-18.9 28-2.4 3.1-4.8 6.2-7.4 9.1-1.2 1.4-3.5 4-5.4 4.5-.4.1-.8.1-1.2.1-3.6-.2-5-4.6-5.8-7.5-1.3-4.9-2-10.5-2.5-15.6-.8-7.3-1.3-14.6-1.6-21.9-.4-8.4-.6-16.8-.7-25.2-.1-8.2-.1-16.5.1-24.7.2-7.2.4-14.5 1-21.7.4-5.1.8-10.6 1.9-15.7.6-3 1.7-8.2 5.5-8.4l19.4-1.2c.3-.1.7 0 1.2.2zM33 135.8l19.4 1.2c3.8.2 4.9 5.4 5.5 8.4 1 5.1 1.5 10.5 1.9 15.7.5 7.2.8 14.4 1 21.7.2 8.2.2 16.5.1 24.7-.1 8.4-.3 16.8-.7 25.2-.4 7.3-.8 14.7-1.6 21.9-.5 5.1-1.2 10.7-2.5 15.6-.8 2.9-2.2 7.3-5.8 7.5-.4 0-.8 0-1.2-.1-1.8-.4-4.2-3.1-5.4-4.5-2.6-2.9-5.1-6-7.4-9.1-6.8-8.9-13.3-18.3-18.9-28-6.4-10.9-14.6-26.8-15.2-39.6-.7-13.2 2.4-26.5 8.6-38.1 4.6-8.6 12-18.1 21-22.3.2-.1.6-.2 1.2-.2zm6 193.6c-.4.3-.9.6-1.3.9-.1.2-.2.5-.3.6-.7 1.4-1.2 2.8-2.7 3.6-4 2.2-9.4 1.7-11.8-2.5-1.1-1.9-1.2-4.1-.4-6.1.1-.2.2-.5.3-.7-3.3.2-6.9-1.6-8.1-4.7-.6-1.5-.8-3.2-.4-4.8 1.1-4.2 5.7-6.3 9.4-7.6 4.7-1.6 9.9-2.4 14.7-3 4.6-.6 9.2-1 13.9-1.3 1.7-.1 3.4-.2 5.2-.3.4 0 .8-.1 1.2-.1.1-.4.1-.8.2-1.1.2-1.4.3-2.8.5-4.1.2-2.2.5-4.9 1.1-7.1.7-2.3 2.1-4.6 4.8-4.5 1.5 0 2.2.6 3.2 1.3h.1c2.4 1 2.6 4 2.7 6.3.1 2.4-1.4 5.1-1.6 7.5-.7 2.5 0 10.5-1.1 12.7-.1.3-4.1 3.1-8.2 8.2-3.1 3.7-6.1 8.4-6.6 9-1.7 1.9-2.1 4.4-4.2 6.1-.7.5-1.5.9-2.3 1.1-2.8.7-5.9.2-7.8-2.2-1.8-2.2-1.6-4.8-.5-7.2z" class="st0"/><path d="M67.4 290.7c1.4.6 0 11.2-.7 17-.3 2.2.9 4.5-4.7 8.9-4.9 3.9-8.5 10.4-10.6 12.8-2.5 2.7-2.5 5.7-5 6.3-4.4 1.1-7.2-2.3-3.3-7 4.1-5 11.4-12.5 11.6-12.7 0 0-11.7 7-18.9 11.7-1.2.8-1.7 3.5-2.6 4-6.1 3.4-12.3-3.4-4.3-8.9 6.4-4.4 18.3-9.7 18.3-9.7s-5.1.7-19 4.3c-1.1.3-1.8 2.5-3.4 3.8-2 1.6-6.2.6-7.2-2C13 308 54 305.2 62.3 307c-.7-.6-1.5-1.2-2.5-1.6 1.2-2.3 2.7-10.4 3.6-13.5 1.3-4.2 3.2-1.3 4-1.2z" class="st2"/><path d="M67.5 300.8c-.3 2.5-.6 5-.8 6.9-.3 2.2.9 4.5-4.7 8.9-4.9 3.9-8.5 10.4-10.6 12.8-2.5 2.7-2.5 5.7-5 6.3-3.7.9-6.4-1.4-4.6-5.1v.4c0 2.9 4.5 2.8 7.5-2.5s12.1-13.6 15-16c3-2.4.7-12.2.7-12.2l2.5.5zm-12.9 15.4c.7-.5 1.2-.9 1-1.1-.4-.5-21.7 11.7-21.7 11.7s0 2.1-4.5 3.4c-2.1.6-3.6-.5-4.4-2-.3 3.5 3.9 5.9 8.1 3.6.9-.5 1.4-3.1 2.6-4 7.3-4.7 19-11.7 18.9-11.6.1-.1.1-.1 0 0zm-7.6-2.9c1.9-.7 5.3-1.9 3.1-1.8-3 .1-23.3 3.5-23.3 3.5s-.9 1.2-2.9 3.1c-1.8 1.8-5 1.5-6.6-1.6-.2.8-.2 1.7.2 2.7 1.1 2.6 5.2 3.6 7.2 2 1.6-1.2 2.3-3.5 3.4-3.8 13.9-3.5 19-4.3 19-4.3l-.1.2z" class="st3"/><path d="M17.3 317.2C21 307 40.9 306.4 50.4 306c3.7-.1 7.3-.3 10.9.7-2.6-.1-3.4-.1-6.7 0-8.5.4-32.2 1.9-35.2 10.9-.1.6-.7.9-1.3.8-.6 0-1-.6-.8-1.2z" class="st4"/><path d="M148.9 329.4c.4.3.9.6 1.3.9.1.2.2.5.3.6.7 1.4 1.2 2.8 2.7 3.6 4 2.2 9.4 1.7 11.8-2.5 1.1-1.9 1.2-4.1.4-6.1-.1-.2-.2-.5-.3-.7 3.3.2 6.9-1.6 8.1-4.7.6-1.5.8-3.2.4-4.8-1.1-4.2-5.7-6.3-9.4-7.6-4.7-1.6-9.9-2.4-14.7-3-4.6-.6-9.2-1-13.9-1.3-1.7-.1-3.4-.2-5.2-.3-.4 0-.8-.1-1.2-.1-.1-.4-.1-.8-.2-1.1-.2-1.4-.3-2.8-.5-4.1-.2-2.2-.5-4.9-1.1-7.1-.7-2.3-2.1-4.6-4.8-4.5-1.5 0-2.2.6-3.2 1.3h-.1c-2.4 1-2.6 4-2.6 6.3-.1 2.4 1.4 5.1 1.6 7.5.7 2.5 0 10.5 1.1 12.7.1.3 4.1 3.1 8.2 8.2 3.1 3.7 6.1 8.4 6.6 9 1.7 1.9 2.1 4.4 4.2 6.1.7.5 1.5.9 2.3 1.1 2.8.7 5.9.2 7.8-2.2 1.7-2.2 1.5-4.8.4-7.2z" class="st0"/><path d="M120.5 290.7c-1.4.6 0 11.2.7 17 .3 2.2-.9 4.5 4.7 8.9 4.9 3.9 8.5 10.4 10.6 12.8 2.5 2.7 2.5 5.7 5 6.3 4.4 1.1 7.2-2.3 3.3-7-4.1-5-11.4-12.5-11.6-12.7 0 0 11.7 7 18.9 11.7 1.2.8 1.7 3.5 2.6 4 6.1 3.4 12.3-3.4 4.3-8.9-6.4-4.4-18.3-9.7-18.3-9.7s5.1.7 19 4.3c1.1.3 1.8 2.5 3.4 3.8 2 1.6 6.2.6 7.2-2 4.6-11.3-36.5-14.1-44.8-12.3.7-.6 1.5-1.2 2.5-1.6-1.2-2.3-2.7-10.4-3.6-13.5-1.2-4.1-3.1-1.2-3.9-1.1z" class="st2"/><path d="M120.4 300.8c.3 2.5.6 5 .8 6.9.3 2.2-.9 4.5 4.7 8.9 4.9 3.9 8.5 10.4 10.6 12.8 2.5 2.7 2.5 5.7 5 6.3 3.7.9 6.4-1.4 4.6-5.1v.4c0 2.9-4.5 2.8-7.5-2.5s-12.1-13.6-15-16c-3-2.4-.7-12.2-.7-12.2l-2.5.5zm12.8 15.4c-.7-.5-1.2-.9-1-1.1.4-.5 21.7 11.7 21.7 11.7s0 2.1 4.5 3.4c2.1.6 3.6-.5 4.4-2 .3 3.5-3.9 5.9-8.1 3.6-.9-.5-1.4-3.1-2.6-4-7.2-4.7-18.9-11.7-18.9-11.6 0-.1 0-.1 0 0zm7.7-2.9c-1.9-.7-5.3-1.9-3.1-1.8 3 .1 23.3 3.5 23.3 3.5s.9 1.2 2.9 3.1c1.8 1.8 5 1.5 6.6-1.6.2.8.2 1.7-.2 2.7-1.1 2.6-5.2 3.6-7.2 2-1.6-1.2-2.3-3.5-3.4-3.8-13.9-3.5-19-4.3-19-4.3l.1.2z" class="st3"/><path d="M170.6 317.2c-3.7-10.2-23.6-10.8-33.1-11.2-3.7-.1-7.3-.3-10.9.7 2.6-.1 3.4-.1 6.7 0 8.5.4 32.2 1.9 35.2 10.9.1.6.7.9 1.3.8.6 0 1-.6.8-1.2z" class="st4"/><path d="M155.7 138.9c13.7 6.5 29.2 30.2 27.8 57.5-1.4 27.2-41.2 77.4-44.6 78.2-9.8 2.4-10.9-133.9-2.6-134.4l19.4-1.3z" class="st1"/><path d="M155.7 138.9c13.7 6.5 29.2 30.2 27.8 57.5 0 .5-.1 1.1-.1 1.6-7.7 9.5-20.4 6.8-25.2-8.9-6.5-21.3-11.4-33.2-11.4-33.2s-5.8-10.1-2-16.3l10.9-.7z" class="st5"/><path d="M182.9 200.3c-.2 1-9.1 29.4-10.3 19-.2-1.9-.3-4.4-.4-6.1-.2-4.6-1.4-6.5-4.1-.7-7.3 16-13.2 20.9-10.1-2.7l.3-2.6c-1.5 4.5-3.7 12.9-2.1 17.7 2.6 7.8 9.8-4.3 13.5-11.4 0 3.8.3 10.7 3 10.6.6 0 1.1-.2 1.7-.4 4.2-8.3 7.4-16.4 8.5-23.4zm-20.4 44.1l.1-.8c.4-3.4-.2-6.1-2.8-1.8-8.1 13.4-13.6 17.6-8-2.9l.6-2.3c-1.8 3.7-4.6 10.9-4 15.2 1 7.1 8.3-2.6 12.1-8.3-.2 1.2-.4 2.9-.5 4.4.9-1.1 1.7-2.3 2.5-3.5z" class="st6"/><path d="M32.8 138.9C19.1 145.4 3.6 169.1 5 196.4c1.4 27.2 41.2 77.4 44.6 78.2 9.8 2.4 10.9-133.9 2.6-134.4l-19.4-1.3z" class="st1"/><path d="M32.8 138.9C19.1 145.4 3.6 169.1 5 196.4c0 .5.1 1 .1 1.5 7.7 9.6 20.4 6.8 25.2-8.8 6.5-21.3 11.4-33.2 11.4-33.2s5.8-10.1 2-16.3l-10.9-.7z" class="st5"/><path d="M5.5 200.3c.2 1 9.1 29.4 10.3 19 .2-1.9.3-4.4.4-6.1.2-4.6 1.4-6.5 4.1-.7 7.3 16 13.2 20.9 10.1-2.7l-.3-2.6c1.5 4.5 3.7 12.9 2.1 17.7-2.6 7.8-9.8-4.3-13.5-11.4 0 3.8-.3 10.7-3 10.6-.6 0-1.1-.2-1.7-.4-4.2-8.3-7.4-16.4-8.5-23.4zm20.4 44.1l-.1-.8c-.4-3.4.2-6.1 2.8-1.8 8.1 13.4 13.6 17.6 8-2.9l-.6-2.3c1.8 3.7 4.6 10.9 4 15.2-1 7.1-8.3-2.6-12.1-8.3.2 1.2.4 2.9.5 4.4-.9-1.1-1.7-2.3-2.5-3.5z" class="st6"/><path d="M35.2 154.6c-8.3-8.7-10.7-17.1-11.9-28.4-2.4-.2-9.2.9-9.4.5.9-.7 4.5-7.2 5.1-8.5 2.7-5.5 3.1-12.9 2.9-18.9-.4-8.6 5.4-25.1 10.6-32C46 49 70.2 44.3 91.7 44.2c22-.1 49.1 3 63.8 21.5 7.1 9 11 26.9 10.5 38.3-.2 4.7 1.1 9.3 3.3 13.5 1.2 2.2 1.3 5.8 5.5 11.3-4.3.1-9.6-2.3-11.5-2.9-1.2 11.4-2.2 20.2-10.6 28.9 4.9 14.6 7.1 30.1 6.6 45.6-.6 16.7-4.5 33-11.4 48.2l-8.4 18.6c-1.7 3.9-3.5 7.8-5.1 11.8-1.6 3.9-3.2 7.9-4.1 12.1l-.3 1.8c-.4 2.1-.7 4.2-1 6.3-.1.5-.2 1.1-.2 1.6-.1 1.4-1 2.5-2.3 2.9l-5.3 1.4c-1.6.4-3.2-.5-3.7-2-1.7-4.9-4.9-8.8-9.3-11.4-12.5-7.4-32.5-3.2-37.6 11.4-.5 1.5-2.1 2.4-3.7 2l-5.3-1.4c-1.4-.3-2.3-1.5-2.3-2.9 0-.5-.1-1.1-.2-1.6-.3-2.1-.7-4.2-1-6.3l-.3-1.8c-.9-4.2-2.4-8.2-4.1-12.1-1.6-4-3.4-7.9-5.1-11.8l-8.4-18.6c-6.9-15.2-10.8-31.6-11.4-48.3-.8-15.6 1.5-31.1 6.4-45.7z" class="st0"/><path d="M38.8 153.7c-8.9 25-9.7 53-1.2 79.5-3.5-18.6-4.5-40.4.6-53l1.9-3.7-.8 4c-4.2 21.9.9 55.8 9.5 78.7.4.9 1.8 4 2.3 6.1 7.6 17.1 8.9 21 9.9 26.9 1.3 7.5 1.3 8.3 1.3 8.3l5.3 1.4c7.6-22 44.6-23.6 52.8 0l5.3-1.4s0-.8 1.3-8.3c1-5.9 2.4-9.9 10.2-27.5.6-2.1 1.7-4.8 2.1-5.5 8.6-22.8 13.7-56.8 9.5-78.7l-.8-4 1.9 3.7c5.1 12.4 4.2 33.7.8 52 8.1-26.2 7.2-53.8-1.5-78.5 9.8-9.6 11.6-18.4 12.7-31.9l8.8 3.1s-8.3-9.1-7.8-21.3c.4-10.5-3.2-27.8-9.9-36.2-13.3-16.7-37.9-20.4-61.3-20.3-23.9.1-45 6-56.7 21.8-5.4 7.3-10.3 23.3-10 30.1.9 21.6-7.8 25.9-7.8 25.9l8.8-3.1c1.2 13.6 2.9 22.4 12.8 31.9z" class="st7"/><path d="M40.7 185.9c-7 43.3 7.5 86.6 47.5 94.9 2.1.4 4 .5 5.8.3 1.7.2 3.6.2 5.8-.3 39.9-8.3 54.5-51.6 47.5-94.9 1-22.3-48-15.9-53.2-15.1-5.3-.7-54.4-7.2-53.4 15.1z" class="st8"/><path d="M38.8 153.7c-8.9 25-9.7 53-1.2 79.5-3.5-18.6-4.5-40.4.6-53l1.9-3.7-.8 4c-4.2 21.9.9 55.8 9.5 78.7.4.9 1.8 4 2.3 6.1.7 1.6 1.4 3.1 2 4.4-.3-2.4-1.1-5.5-2.7-9.8-10.9-28.5-11.7-68.5-3.1-85.8 0 0 42.3-68.5 1.8-75.7-15.9-2.9-23.9 8.8-27.8 25.1l4.8-1.7c1.1 13.6 2.8 22.4 12.7 31.9zm96.1 116.1c.7-1.5 1.4-3.2 2.2-5 .6-2.1 1.7-4.8 2.1-5.5 8.6-22.8 13.7-56.8 9.5-78.7l-.8-4 1.9 3.7c5.1 12.4 4.2 33.7.8 52 8.1-26.2 7.2-53.8-1.5-78.5 9.8-9.6 11.6-18.4 12.7-31.9l4.8 1.7c-3.9-16.3-11.9-27.9-27.8-25.1-40.5 7.3 1.8 75.7 1.8 75.7 8.6 17.4 7.8 57.3-3.1 85.8-1.6 4.2-2.4 7.4-2.6 9.8z" class="st7"/><path d="M38.8 153.7c-1.2 3.3-2.2 6.7-3.1 10.1 2.3 3.3 4.8 6.5 7.2 9.5 38.3 46.4 81.3 36 108.8-11.5-.8-2.7-1.6-5.4-2.5-8.1 9.8-9.6 11.6-18.4 12.7-31.9l6.5 2.3c-.2-1.1-.5-2.2-.7-3.4-2.3-3.8-5.1-9.9-4.8-17.1.3-7.3-1.4-18-4.7-26.6-.9-1.5-1.8-2.9-2.7-4.2-14.7-18.5-41.8-21.6-63.8-21.5-21.5.3-45.7 4.9-59.2 23.2-.9 1.2-1.8 2.8-2.7 4.5-2.9 7.3-4.9 15.6-4.7 20 .5 12.5-2.2 19.2-4.5 22.7-.2.8-.5 1.6-.8 2.4l6.4-2.3c1 13.6 2.7 22.4 12.6 31.9z" class="st7"/><path d="M69.4 289.2c13.5-5.2 33.1-6.1 46.5-.4 3.3 1.4 3.8 1.2 6.4 3.6-2.5-1-4.3-1.5-6.8-2.3-14.2-4.3-31.4-2.5-46.1-.9z" class="st0"/><path d="M58.5 212.1c1.6-1.9 3.9-5.2 3.2-9.2-.2-1.2-.6-1.7-1.1-1.9-.1 2.5-1.4 4.8-3 6.6-.2.2-.7.8-1 1-.4-.2-1.2-.9-1.4-1.1-1.9-1.7-3.9-3.9-4.8-6.4-1.1-.4-1.8-.1-1.7 1.8.3 4 3.6 7.4 5.6 9.2 2.3 2 2.5 1.9 4.2 0zm25.1 4.4c1.8-1.9 4.5-5.2 4.2-9.2-.1-1.5-.6-2-1.3-1.9-.2 1.1-.6 2.1-1.1 3.1-.7 1.3-1.7 2.5-2.7 3.5-.2.2-.9.9-1.2 1.1-.3-.2-1-.9-1.2-1.1-1.8-1.8-3.6-4.1-4.1-6.6-.8-.1-1.3.3-1.4 1.9-.1 4 2.8 7.4 4.7 9.2 1.9 2 2.2 2 4.1 0zm25.3 0c2-1.8 5.1-5.2 5.2-9.2.1-1.8-.6-2.2-1.5-1.8-.7 2.5-2.7 4.8-4.5 6.5-.2.2-1 .9-1.4 1.1-.3-.2-.9-.8-1-1-1.7-1.8-3.2-4.2-3.4-6.7-.6.1-1 .6-1.2 1.9-.5 4 2 7.4 3.7 9.2 1.7 2 2 2 4.1 0zm25.1-4.4c2.2-1.9 5.6-5.2 6.2-9.2.3-2.1-.6-2.2-1.9-1.6-1.1 2.4-3.2 4.6-5.1 6.2-.2.2-1.1 1-1.5 1.1-.2-.2-.7-.8-.8-.9-1.5-1.9-2.7-4.2-2.6-6.6-.4.2-.7.8-1 1.8-1 4 1.1 7.4 2.6 9.2 1.5 2 1.8 1.9 4.1 0zm-63.5 20.4c1.6-1.9 3.9-5.5 3.3-9.7-.2-1.4-.6-2-1.2-2-.1 2.7-1.5 5.2-3.1 7.3-.1.2-.6.8-.9 1-.3-.2-.9-.9-1.1-1.1-1.9-1.9-3.7-4.4-4.4-7.1-.9-.4-1.6 0-1.5 1.9.2 4.2 3.1 7.8 5 9.7 2.1 2 2.3 2 3.9 0zm25.5 0c1.8-1.9 4.5-5.5 4.5-9.7 0-1.8-.6-2.2-1.4-2-.5 2.7-2.2 5.2-4 7.2-.2.2-.7.8-1.1 1.1-.3-.2-.8-.8-.9-1-1-1.1-1.8-2.4-2.5-3.7-.5-1.1-.9-2.3-1-3.6-.6-.1-1.1.5-1.2 2-.3 4.2 2.2 7.8 3.9 9.7 1.6 2 1.8 2 3.7 0zm25.5 0c2-1.9 5.2-5.5 5.6-9.7.2-2.1-.6-2.4-1.7-1.8-.9 2.6-2.9 5-4.8 6.9-.2.2-.9.9-1.3 1.1-.2-.2-.6-.8-.7-.9-1.6-2.1-2.7-4.7-2.6-7.3-.4.2-.8.8-1.1 2-.8 4.2 1.3 7.8 2.7 9.7 1.5 2 1.8 2 3.9 0zm-58.8 18.3c1.3-1.9 3.2-5.5 2.6-9.7-.2-1.3-.6-1.9-1.1-2 0 2.6-1 5.2-2.5 7.4-.1.2-.4.6-.6.9l-1-1c-1.8-1.9-3.6-4.3-4.4-6.9-1.1-.7-1.9-.5-1.6 1.7.4 4.2 3.3 7.8 5.1 9.7 1.9 2 2.1 1.9 3.5-.1zm21.3 0c1.5-1.9 3.8-5.5 3.6-9.7-.1-1.7-.6-2.2-1.3-2-.1 1.2-.5 2.4-1 3.5-.6 1.3-1.4 2.6-2.3 3.7-.1.2-.5.7-.8.9-.3-.3-.7-.8-.8-.9-1.7-2.1-3.2-4.6-3.7-7.2-.8-.3-1.3.1-1.4 2 0 4.2 2.4 7.8 4.1 9.7 1.8 2.1 2 2 3.6 0zm21.6 0c1.8-2 4.5-5.5 4.7-9.7.1-2-.6-2.3-1.5-1.8-.7 2.6-2.3 5.1-4.1 7-.2.2-.6.7-.9 1-.2-.3-.5-.7-.7-.9-1.6-2.2-2.7-4.7-2.8-7.4-.5 0-1 .6-1.2 2-.5 4.2 1.6 7.8 3 9.7 1.4 2.2 1.7 2.1 3.5.1zm21.3 0c2-2 5-5.5 5.7-9.7.4-2.4-.6-2.4-1.9-1.5-1 2.5-2.9 4.8-4.7 6.7-.2.2-.7.7-1.1 1-.2-.3-.4-.6-.5-.8-1.4-2.2-2.2-4.8-2-7.3-.4.2-.7.8-1 1.9-1 4.2.7 7.8 1.9 9.7 1.4 2.1 1.6 2 3.6 0zm-53.8 16.3c1.3-1.9 3.2-5.4 2.7-9.6-.2-1.6-.6-2.1-1.2-2-.1 2.6-1.1 5.1-2.6 7.3-.1.2-.3.5-.5.8-.3-.3-.6-.7-.7-.8-1.7-2-3.1-4.4-3.8-6.9-.9-.6-1.6-.4-1.5 1.7.2 4.2 2.7 7.7 4.4 9.6 1.7 1.9 1.8 1.9 3.2-.1zm21.4 0c1.5-1.9 3.8-5.4 3.9-9.6 0-2-.6-2.3-1.4-1.9-.5 2.6-1.8 5-3.4 7.1-.1.2-.4.6-.7.8-.2-.3-.5-.6-.6-.8-1.5-2.1-2.7-4.6-3-7.3-.6-.2-1.1.3-1.2 2-.3 4.2 1.8 7.7 3.2 9.6 1.4 2.1 1.6 2.1 3.2.1zm21.4 0c1.7-1.9 4.5-5.4 5-9.6.3-2.4-.6-2.4-1.8-1.5-.8 2.5-2.4 4.7-4.1 6.6-.2.2-.5.6-.8.9-.2-.2-.3-.5-.4-.7-1.4-2.2-2.2-4.8-2.1-7.4-.4.1-.8.7-1 2-.8 4.2.9 7.7 2.1 9.6 1 2.1 1.2 2.1 3.1.1z" class="st5"/><path fill="#60605e" fill-rule="evenodd" d="M25.9 146.6c-.1.2-5 5.8-5.1 6-19.7 25.5-16.8 53-2.5 80.1l1.7 3.2C8.3 220.7 3.1 201.5 5 182.5c1.2-12.2 10.3-32.9 20.5-39.3.9-.1 1.8.6 1.9 1.5.1.9-.6 1.8-1.5 1.9zm136.3 0c.1.2 5 5.8 5.1 6 19.7 25.5 16.8 53 2.5 80.1l-1.7 3.2c11.6-15.1 16.8-34.3 15-53.3-1.2-12.2-10.3-32.9-20.5-39.3-.9-.1-1.8.6-1.9 1.5-.1.8.6 1.7 1.5 1.8z" clip-rule="evenodd"/><path d="M180.1 171.5c.1 5.7-.4 12.1-3.2 15.7-1.1-1.5-2.6-5.5-3.5-7.9-1.7-4.7-3.4-5.5-4.2.8-2.1 16.8-6.2 22.9-10.6-.3l-.5-2.6c-.1 4.7.5 13.4 3.6 17.6 5 6.8 8.1-6.7 9.4-14.4 1.2 3.7 3.6 10.2 6.3 9.4s4.1-4.9 4.8-9.8c-.5-2.9-1.2-5.7-2.1-8.5zm-171.8 0c-.1 5.7.4 12.1 3.2 15.7 1.1-1.5 2.6-5.5 3.5-7.9 1.7-4.7 3.4-5.5 4.2.8 2.1 16.8 6.2 22.9 10.6-.3l.5-2.6c.1 4.7-.5 13.4-3.6 17.6-5 6.8-8.1-6.7-9.4-14.4-1.2 3.7-3.6 10.2-6.3 9.4s-4.1-4.9-4.8-9.8c.5-2.9 1.3-5.7 2.1-8.5z" class="st6"/><path d="M155.8 155.1l.7 15.1c0 1-.4 2-1.2 2.6s-1.8.8-2.8.5c-5.2-1.6-13.9-5.4-15.8-10.8-1-2.9 1.2-7.3 2.5-9.8 2.1-4.1 4.6-8.1 7.1-11.9 3.9-6 8-11.9 12.2-17.6.9-1.2 2.4-1.6 3.8-1 1.3.6 2.1 2 1.8 3.5-3.8 16.5 1 35.7.1 36.2-1.6.5-7-5.4-8.4-6.8zm-123.3 0c-1.4 1.4-6.6 7-8 6.3-1.3-.6 3.9-15.7-.1-35.9-.3-1.4.4-2.9 1.8-3.5 1.3-.6 2.9-.2 3.8 1 4.2 5.7 8.3 11.7 12.2 17.6 2.5 3.8 5 7.9 7.1 11.9 1.3 2.6 3.5 6.9 2.5 9.8-2 5.8-20.3 14.7-20.5 14.5-.5 0 1.1-19.8 1.2-21.7z" class="st0"/><path d="M160.8 126.1c.2 14.8-11.5 35.8-22.6 45.5-2.4 2.1-17.4 10.4-19.8 8.8-2.1-1.5 8.4-12.8 5.8-11.3-3.3 2-5.1 2.6-8.4 4.1-6 2.8-1.1-1.5-1.8-4.1-1.3 1.1-9 8.4-10.4 7.6-.2-.1 1.1-2.1.9-2.2-.9 1.1-10.3 12.9-10.3 12.9-.3 0-8.6-11.3-9.4-12.4-.4.4 1.6 3.1.5 2.9-3.6-1.5-10.3-5.5-13.2-7.7-.2 1.6.3 6.9.2 6.9-1.9 1.9-11.8-7.1-13.2-8.4-3.3-3.1 1.3 7.5-2.1 8-2.1.3-12.5-8.7-14.3-10.9-4.4-5.3-8.9-11.4-11.9-17.6-3.2-6.7-6.2-14.6-7.5-22.3-2.1.7-8.6 1.2-11.2 1.1 1.6-.6 5.2-6 6.8-9.2 2.7-5.5 3.1-12.9 2.9-18.9-.4-8.6 5.4-25.1 10.6-32 13.5-18.3 37.7-23 59.2-23.1 22-.1 49.1 3 63.8 21.5 7.1 9 11 26.9 10.5 38.3-.1 2.7 4.3 21.3 4.3 21.4-.7 1.4-2.3 2-3.8 1.5l-5.6-.4z" class="st0"/><path d="M67.8 185.7l1-8.7c7.7 8.7 12.8 9.5 12.8 9.5l-1.9-9.4 13.6 19.5 14-18.3-1.5 7.5s7.5-6.1 13.9-12.5l-4.3 10.2s13.7-6.4 26.2-19.2c3.9 3.7 11.8 6.1 11.8 6.1-.1-2.4-2.8-26.4-2.5-26.9l9.5 11.8s-.7-6-.8-13.6c-1-8.9 1.7-24.3 2.5-28 .4 2.8.6 5.6.5 8.5.7.3 8.1 3 8.1 2.9-2.4-3.6-8.2-13.3-7.8-21.3.4-10.5-3.2-27.8-9.9-36.2-13.3-16.7-37.9-20.4-61.3-20.3-23.9.1-45 6-56.7 21.8-5.4 7.3-10.3 23.3-10 30.1.9 21.6-7.8 25.9-7.8 25.9l7.9-2.8c.2-2.5.5-5.1 1.2-8.3.4 19 3.6 20.9 2.1 37.5-.1 1.2-1.4 4.9-.4 3.9l8.8-9.4c.6 7.5-1.6 18.6-1.8 24.4 0 0 6.9-2.1 11-5.4 10.1 11.9 21.7 22.2 21.8 20.7z" class="st8"/><path d="M76.6 115.9c3.2-2.1 7.5-8.6 9.4-11.7s4.8-7.5 8.9-7.5 7 4.3 8.9 7.5c1.4 2.3 2.6 4.8 3.9 7.1.6 1 1.7 3 2.8 3.5.5.2 2.4.1 3 .1 3 0 6 .5 7.6 3.3.5.9.8 1.9.6 3-.6 3.8-6.1 4.9-9.2 5.6-8 1.9-10.2 8.7-15.5 13.8l-2.3 2.1-2.1-2.2c-4.5-4.8-9.8-13.1-16.9-13.8-1.8-.2-3.8-.4-5.5-.8-1.8-.5-3.4-1.4-3.8-3.4-.3-1.7.5-2.9 1.5-4.1 1.3-1.6 3.9-1.9 5.8-2.2.8 0 2.1-.1 2.9-.3zm53.3 58.4c3.7-2.8 7.7-6.1 11.6-10.1 3.9 3.7 11.8 6.1 11.8 6.1-.1-2.4-2.8-26.4-2.5-26.9l9.5 11.8s-.7-6-.8-13.6c-1-8.9 1.7-24.3 2.5-28 .4 2.8.6 5.6.5 8.5.7.3 8.1 3 8.1 2.9-2.4-3.6-8.2-13.3-7.8-21.3.1-1.7 0-3.5-.1-5.5-.7 9.7-5.7 18.2-6.4 29.8-.8 13-.3 17.1-.3 17.1l-8.3-10.5.4 29.6-8.7-4.1c.1 0-4.3 6.9-9.5 14.2zM25.1 96.8c-.1.8-.1 1.6-.1 2.3.9 21.6-7.8 25.9-7.8 25.9l7.9-2.8c.2-2.5.5-5.1 1.2-8.3.4 19 3.6 20.9 2.1 37.5-.1 1.2-1.4 4.9-.4 3.9l8.8-9.4c.6 7.5-1.6 18.6-1.8 24.4 0 0 6.9-2.1 11-5.4 8.9 10.7 19.1 19.9 21.4 20.9-8.3-8.7-18.9-25.7-18.9-25.7l-8.7 4.1.4-29.6-8.3 10.5s.5-4.1-.3-17.1c-.7-12.2-6.3-20.9-6.5-31.2z" class="st7"/><path d="M162.9 103.6c.4-10.5-3.2-27.7-9.9-36-13.3-16.7-37.9-20.4-61.3-20.3-23.9.1-45 6-56.7 21.8-5.4 7.3-10.3 23.3-10 30.1.2 5.6-.2 10-.9 13.5l.1.1c2.6-18.2 4.9-30.3 13.2-15.6 8.3 14.8 23.3 21.5 27 16.1 3.6-5.4 8-5.2 7.3-10.6-.7-5.2 8.4-16.7 22-16.5 11.9.2 27.6 3.3 24.4 17.3-2.6 11.4 10.9 16.1 10.9 16.1s15-5.4 22.3-15.6c4.7-6.6 8.9-4.8 11.6-.4z" class="st5"/><path d="M70.3 104.9c2.1 20-1 43.9-13 52.5-19 13.7-16.6-48.7-9.9-65.9 6.8-17.1 22.9 13.4 22.9 13.4zm49.4 0c-2.1 20 1 43.9 13 52.5 19 13.7 16.6-48.7 9.9-65.9-6.8-17.1-22.9 13.4-22.9 13.4z" class="st5"/><path d="M39.4 97.5c-1-5.7-1.7-10.5 2.6-15.1 6.3-6.6 17.1-2.9 22.6 3.3 5.3 5.9 8.5 15.4 6.6 23.6l-2.1 5.5c0-3.1 0-7.6-.5-10.7-1.5-8.8-7.9-17.2-15.8-19.8-9.8-3.2-11.6 5.2-13.4 13.2z" class="st0"/><path d="M52.6 80.5C38.4 94.7 46 111.8 56.1 116c4.6 1.9 12.1 1.1 13.9-3.9 2.8-7.7-5.5-29.8-17.4-31.6zm97.8 17c1-5.7 1.7-10.5-2.6-15.1-6.3-6.6-17.1-2.9-22.6 3.3-5.3 5.9-8.5 15.4-6.6 23.6l2.1 5.5c0-3.1 0-7.6.5-10.7 1.5-8.8 7.9-17.2 15.8-19.8 9.8-3.2 11.6 5.2 13.4 13.2z" class="st0"/><path d="M137.3 80.5c14.2 14.2 6.5 31.3-3.5 35.5-4.6 1.9-12.1 1.1-13.9-3.9-2.9-7.7 5.4-29.8 17.4-31.6z" class="st0"/><path d="M61.8 91.8c1.4-.6 3.6 1.2 4.9 4.1 1.3 2.9 1.2 5.8-.2 6.4-1.4.6-3.6-1.2-4.9-4.1-1.3-2.9-1.2-5.7.2-6.4zm66 0c-1.4-.6-3.6 1.2-4.9 4.1s-1.2 5.8.2 6.4c1.4.6 3.6-1.2 4.9-4.1s1.2-5.7-.2-6.4z" class="st4"/><path d="M47.4 27.6c26.4-24 68.7-24 95.1 0 7.9 7.2 12.7 17.2 15.3 27.7 1.2 4.8 2.1 10.8 2.1 15.8 0 1.8-1.4 3.2-3.1 3.2H33.1c-1.7 0-3.1-1.5-3.1-3.2 0-5 1-11 2.1-15.8 2.5-10.5 7.4-20.5 15.3-27.7z" class="st0"/><path d="M49.4 30C33.1 44.9 33.1 71.1 33.1 71.1h123.7s0-26.2-16.3-41.1C115.2 7.1 74.6 7.1 49.4 30z" class="st2"/><path d="M34.4 59.2C33 66.1 33 71.1 33 71.1h60.2c.2-.2.3-.4.3-.4s.1.1.3.4h63s0-5.1-1.4-12.1c-11 1.3-35.1-3-38.5-9.6-3.6-7-.2-20.9 5.5-31-18.1-7.8-39.3-7.5-57.2 1 5.4 10 8.4 23.2 5 30-3.2 6.1-23.9 10.3-35.8 9.8z" class="st3"/><path d="M109.6 74.4H80.4c-1.7 0-3.1-1.4-3.1-3.2-.3-10.1-1.9-38-7-47.1l-5.4-9.6c-.4-.8-.5-1.6-.3-2.5s.7-1.5 1.5-2c18.7-10.9 39-10.9 57.7 0 .8.4 1.3 1.1 1.5 2s.1 1.7-.3 2.5l-5.4 9.6c-1.2 2.2-2 6-2.5 8.5-.8 4.3-2.2 8.8-2.7 13.2-.9 8.4-1.4 17-1.6 25.5-.1 1.7-1.5 3.1-3.2 3.1z" class="st0"/><path d="M94.9 71.1H79.3s-1-39-6.4-48.7l-5.4-9.6c.5-.3.9-.5 1.4-.8 9.3 12 8.1 12.1 9.6 27.6.6 6.5 1 13.1 1.9 19.6.6-6.6.3-13.2 0-19.8-.8-15.7 0-16.6-8.9-28.8 15.1-7.4 31-7.4 46.1-.2-9 12.4-8.2 13.2-9 29-.3 6.6-.6 13.2 0 19.8.9-6.5 1.3-13.1 1.9-19.6 1.5-15.6.4-15.6 9.7-27.7l.1-.1c.6.3 1.2.7 1.8 1l-5.4 9.6c-5.4 9.6-6.4 48.7-6.4 48.7H94.9z" class="st2"/><path d="M59.6 19.2c.9 2.6 8.9 22.9 7.4 23.8l-6.6 3.8c-1.8 1-12.6-16.5-13.9-19.4-.5-1.1-.4-2.3.2-3.3 1.9-2.9 5.9-5.4 9-6.6 1.5-.6 3.2.2 3.9 1.7z" class="st0"/><path d="M56.7 20.6c-5.4 2.2-7.5 5.4-7.5 5.4 3.5 7.5 7.3 14.7 11.1 22.1l6.5-3.9-10.1-23.6z" class="st2"/><path d="M134.2 17.5c3.1 1.2 7.1 3.7 9 6.6.7 1 .7 2.2.2 3.3-1.1 2.4-11.2 21.4-13.6 19.9l-6.5-3.9c-2.7-1.7 5.7-20.9 6.9-24.2.6-1.6 2.5-2.3 4-1.7z" class="st0"/><path d="M133.1 20.6c5.4 2.2 7.5 5.4 7.5 5.4-3.5 7.5-7.3 14.7-11.2 22.1l-6.5-3.9 10.2-23.6z" class="st2"/><path d="M45.9 100.7c1.9 7.8 6.5 17.5 16.2 15.6 3.2-.6 4.6-2.1 6.5-4.4-1.1 3.1-2.9 4.8-6.2 5.8-10.8 3-16.8-7.7-19.3-16.4-.2-.7.3-1.5 1.1-1.6.8-.2 1.5.3 1.7 1z" class="st8"/><path d="M31.8 67.5c14.7-6.9 39.1-11.3 63.5-11.3 24.1 0 48.3 4.5 62.8 11.3 1.5.7 2.2 2.4 1.6 3.9-2.7 7-17 9.8-23.4 10.9s-13 1.8-19.5 2.3c-7.3.5-14.6.8-21.9.8s-14.6-.2-21.9-.8c-6.5-.5-13.1-1.2-19.5-2.3-6.5-1.1-20.7-3.8-23.4-10.9-.5-1.5.2-3.2 1.7-3.9z" class="st0"/><path d="M33.1 70.3c6.1 15.9 117.6 15.9 123.7 0-34.1-16-89.6-16-123.7 0z" class="st3"/><path d="M151.6 68c-32.5-13-80.8-13-113.3 0C49.8 81.8 140 81.8 151.6 68z" class="st2"/><path d="M144.3 100.7c-1.9 7.8-6.5 17.5-16.2 15.6-3.2-.6-4.6-2.1-6.5-4.4 1.1 3.1 2.9 4.8 6.2 5.8 10.8 3 16.8-7.7 19.3-16.4.2-.7-.3-1.5-1.1-1.6-.8-.2-1.5.3-1.7 1z" class="st8"/><path d="M39.1 65.3C52.9 75.8 73.6 76 90.2 77.5l3.6.4c7.2.1 24-1.8 31.4-3.1 9.2-1.6 17.1-3.3 24.5-9.3.5-.6 1.4-.6 2-.1s.6 1.4.1 2l-3.8 2.9c-8.5 5.2-25.2 7.1-35 7.7-7.4.4-12 0-19.1-.1l-3.6.3c-8.6.4-21.6-.8-30.2-2.3-9.2-1.6-15.1-3.1-22.8-8.8-.5-.5-.5-1.4 0-2 .4-.4 1.3-.4 1.8.2z" class="st0"/><path d="M44.2 65.6c14.4-5.2 45.9-8.8 61-6.5-17.9.3-43.5 2.2-60.1 8.5-.6.2-1.2 0-1.4-.6-.3-.6 0-1.2.5-1.4zM56.9 21c1.4 3.2 8.5 19.4 8.9 21.7-1.4-1.8-8.8-17.9-10.3-21.1-.2-.4 0-.8.4-1 .4-.2.8 0 1 .4zm77.6.2c-7.7 16.2-3.8 8.2-11.9 24.2 6.8-16.6 3.3-8.4 10.4-24.8.2-.4.6-.6 1-.4.5.1.7.6.5 1z" class="st4"/><path d="M76.6 114.1c3.2-2.1 7.5-8.6 9.4-11.7 2-3.1 4.9-7.4 9-7.4s7 4.3 8.9 7.5c1.4 2.3 2.6 4.8 3.9 7.1.6 1 1.7 3 2.8 3.5.5.2 2.4.1 3 .1 3 0 6 .5 7.6 3.3.5.9.8 1.9.6 3-.6 3.8-6.1 4.9-9.2 5.6-8 1.9-10.2 8.7-15.5 13.8l-2.3 2.1-2.1-2.2c-4.5-4.8-9.8-13.1-16.9-13.8-1.8-.2-3.8-.4-5.5-.8-1.8-.5-3.4-1.4-3.8-3.4-.3-1.7.5-2.9 1.5-4.1 1.3-1.6 3.9-1.9 5.8-2.2.7-.1 2-.2 2.8-.4z" class="st0"/><path d="M88.7 104.1c-4.6 7.4-8.3 11.5-10.7 12.9-.9.5-6.7.6-7.6 1.7-1.4 1.8-1.9 2.5 5.8 3.2 8.6.8 14.2 9.9 18.9 14.8 4.9-4.5 7.7-12.3 17-14.5 4.8-1.1 7.7-2.2 6.6-4-1.8-3-7-1-9.4-2.3-3.1-1.7-4.9-7-7.9-11.8-5-8-7.8-8-12.7 0z" class="st2"/><path d="M79.3 120.6c7.7 2.4 11.2 9.5 15.7 14.2 4.4-4.7 8-11.7 15.7-14.2l-.2-.2c-13.8 5.1-9.2 8.9-15.5 0-6.3 8.9-1.7 5.1-15.5 0l-.2.2zm12.6-14.3c-1.3 2.4-4 5-2.4 6.2 1.6 1.1 4.1-7.9 2.4-6.2zm6.2 0c1.3 2.4 4 5 2.4 6.2-1.6 1.1-4.2-7.9-2.4-6.2z" class="st0"/><path d="M71.1 118.8c11.6.4 15.9 2.5 23.8 11 6.4-6.3 14.3-11.8 23.6-12.3-1.6 1-.9.6-3.3 1.6-9.6 4-12.2 5.7-19.4 13.7-3.5-.9-1.8.1-3.9-2.2-7.4-8.5-10.1-9.1-20.8-11.8z" class="st0"/><path d="M76.5 122c-2.3-.5-4.1-2.5 0-2.2 2.5.2-3.3-2-7.1-1.4-.9.2-1.2 1.5-1.7 1.6-.4.1.7.7.7.7s1.9 2.1 8.1 1.3zm34.3.7c2.6-.4 4.4-1.8 3.5-2.5-.4-.3-2.3.2-4.1.3-2.6.1 5.2-3.2 8.7-3.3 4.1-.2-1.1 6.3-8.1 5.5z" class="st0"/><path d="M82.7 114c3.3-5.1 6.3-10.5 10.4-14.9-2.7 5.4-5.7 10.7-8.6 16-.3.5-1 .7-1.5.4-.5-.4-.6-1-.3-1.5z" class="st4"/><path d="M73.1 168.6c1.3-1.9 3.2-5.4 2.7-9.6-.6-5.5-4.5 1.9-4.9 2.7-.5-.8-5.7-8.2-5.4-2.7.2 4.2 2.7 7.7 4.4 9.6 1.7 2 1.8 2 3.2 0zm21.4 6.9c1.5-1.9 3.8-5.4 3.9-9.6 0-5.5-4.7 1.9-5.2 2.7-.4-.8-4.7-8.2-5.1-2.7-.3 4.2 1.8 7.7 3.2 9.6 1.4 2 1.6 2 3.2 0zm21.4-6.9c1.7-1.9 4.5-5.4 5-9.6.7-5.5-5 1.9-5.6 2.7-.3-.8-3.7-8.2-4.7-2.7-.8 4.2.9 7.7 2.1 9.6 1.1 2.1 1.3 2 3.2 0z" class="st5"/><path d="M119.7 154.6c-.5.4-1 1-1.3 1.2-.7.8-1.5 1.7-2.1 2.5-.3.4-.7.5-1.1.5-.5-.1-.8-.3-1-.7-.3-.8-.8-1.7-1.3-2.4-.2-.3-.6-.9-.9-1.3-.1.3-.2.6-.2.8-.6 3.1.3 6.1 1.9 8.8.1.1.3.4.4.7.3-.3.7-.7.8-.9 2.2-2.5 4.3-5.6 4.7-8.9 0-.2.1-.2.1-.3z" class="st8"/><path d="M89.3 161.3c0 .2-.1.5-.1.6-.2 3.2 1.2 6.3 3 8.8.1.1.4.5.6.8.3-.3.6-.7.7-.8 2-2.5 3.6-5.6 3.6-8.8v-.5c-.4.4-1 1-1.2 1.3-.6.8-1.3 1.7-1.8 2.5-.2.4-.6.6-1.1.6s-.8-.3-1-.6c-.4-.8-1-1.7-1.6-2.5-.2-.3-.6-1-1.1-1.4z" class="st8"/><path d="M74.5 154.4c-.4.4-.9 1-1 1.3-.5.8-1.1 1.6-1.5 2.5-.2.4-.6.7-1 .7-.5 0-.9-.2-1.1-.5-.6-.9-1.2-1.7-1.9-2.5-.2-.2-.8-.8-1.2-1.3v.4c.2 3.3 2 6.4 4.1 8.9.1.2.5.6.7.8.2-.3.4-.6.5-.8 1.7-2.6 2.9-5.6 2.5-8.8 0-.2 0-.4-.1-.7z" class="st8"/><path d="M92.3 48.2c-1.9-.2-3.4-.5-4.7-1-1.8-.7-3.1-1.6-4-2.9-2-2.7-2.6-6.8-3.4-12.8.1 2.2.2 4.8.4 7.9.1 1.7.2 3.4.2 5.1 0 1 .1 2.1.1 3.1v4.3c0 1.6-.1 3.2-.2 4.8 4.8-.3 9.6-.5 14.5-.5 4.5 0 8.9.2 13.3.5-.1-1.5-.1-3-.2-4.5v-4.3c0-1 .1-2.1.1-3.1.1-1.8.2-3.5.2-5.3.3-5.4.3-9 .7-12-1.8 5.7-2 11.2-2.9 13.9-.3 1-.7 2.1-1.3 3.1-.7 1.1-1.7 2.2-3.4 2.9-1.8.9-4.8 1.3-9.4.8z" class="st3"/><path d="M114.4 12.6C104.6 8.5 92.5 6.7 82 9.2c0 0-5.6 1.4-7.3 1.9 1.2 2.7 4.5 5.7 6.2 12.1 1.4 5.5 1.1 20.6.1 26.2-.1-5.1-.5-10.8-.8-16.3-.2-4.2-.3-8.4-2.2-12.6-1.2-2.6-6-8.6-5.7-10.1.4-1.9 7.6-3.3 8.9-3.7 11.4-3.1 24.2-1.4 35 2.9.8.5 1.1 1.5.6 2.3-.5.9-1.6 1.2-2.4.7z" class="st4"/><path d="M138.6 164.9c6.4 2.2 15 5.3 19 11.2-8-5.3-10.2-6.3-19.6-9.1-.6-.2-.9-.8-.7-1.3.1-.6.7-.9 1.3-.8zm-5.4 1.5c1.3.9 10 7 9.9 8.3-.5-.1-10-5.8-11.1-6.4-.5-.3-.7-1-.3-1.5.3-.5 1-.7 1.5-.4zm-83.5-1.5c-6.4 2.2-15 5.3-19 11.2 8-5.3 10.2-6.3 19.6-9.1.6-.2.9-.8.7-1.3-.1-.6-.7-.9-1.3-.8zm5.4 1.5c-1.3.9-10 7-9.9 8.3.5-.1 10-5.8 11.1-6.4.5-.3.7-1 .3-1.5-.3-.5-1-.7-1.5-.4z" class="st0"/><g><path d="M248.9 253.7V83h90.2v29h-59.4v36.9h54.6v29h-54.6v75.9l-30.8-.1zm212.3 0h-69.9c-2.9.2-5.3-.3-7.2-1.4-1.9-1.1-3.5-2.5-4.8-4.1s-2.2-3.3-2.8-5.1c-.6-1.8-.8-3.5-.8-4.9V83h30.9v141.9h54.6v28.8zm30.6-15.6V83H582v29h-59.4v36.9h54.6v29h-54.6v46.9H582v29h-74.7c-2.9 0-5.3-.6-7.2-1.7-1.9-1.1-3.5-2.5-4.8-4.1s-2.2-3.3-2.8-5c-.4-1.9-.7-3.5-.7-4.9zm128.1 15.6V84.2l91.4-1.2c4.8 0 8.4 1.5 10.9 4.4 2.5 3 3.7 6 3.7 9.2v133.6c0 2.7-.6 5.2-1.8 7.4s-2.8 4-4.9 5.3l-20.8 12.7c-2.2 1.4-5.7 2.2-10.3 2.2-1.3 0-2.7-.2-4.3-.5l-36.1-11-2.4 7.4h-25.4zm65.8-23l9.3-5.7V110.5h-44.3V222l35 8.7zm80.4-8.4V98.6c0-1.4.3-3.1.8-4.9.6-1.8 1.5-3.5 2.8-5.1s2.9-3 4.8-4.1c1.9-1.1 4.3-1.6 7.2-1.4h86.7l-2.4 48.6h-27.8v-21.1H797v107l16 10.5 25.1-14.1v-38.1h-23.9v-27H869v70.4c-.5 6.2-3 10.6-7.7 13.2l-41.9 23.9c-2.4 1.1-4.7 1.7-6.9 1.7-3 0-5.4-.6-7.2-1.7L772.8 235c-2.1-1.3-3.7-3-4.9-5.3-1.2-2.2-1.8-4.7-1.8-7.4zm143.7 15.8V83h90.2v29h-59.4v36.9h54.6v29h-54.6v46.9h59.4v29h-74.7c-2.9 0-5.3-.6-7.2-1.7-1.9-1.1-3.5-2.5-4.8-4.1s-2.2-3.3-2.8-5c-.5-1.9-.7-3.5-.7-4.9z" class="st10"/></g><g><path d="M146.2 274.3c2.6-3 5.1-6.1 7.5-9.2 6.9-9 13.3-18.4 19-28.2 6.7-11.3 14.8-27.2 15.5-40.4.7-13.5-2.5-27.2-8.8-39.1-3.7-6.8-8.7-13.7-14.8-18.6 0-3.5.3-7.1.9-10.5l.5.1c2.8 1 6.1 2 9.1 1.9.7 0 1.3-.4 1.6-1 .3-.6.2-1.3-.2-1.9-1.5-2-2.7-4.1-3.6-6.4-.6-1.5-1-3.2-1.7-4.6-.5-.9-.9-1.8-1.3-2.8-.5-2-.9-4.1-1.3-6.2-.2-.8-.3-1.6-.4-2.4 0-.4-.1-.9-.1-1.2.5-9.8-2.1-22.5-6.2-31.6 0-.4.1-.8.1-1.2v-1.3c-.2-4.9-1-10.1-2.2-14.9-2.5-10-7-19.7-14.3-27.1.6-1.5.4-3.2-.5-4.6-2.1-3.2-6.3-5.9-9.8-7.3-1.7-.7-3.6-.4-4.9.7-1.1-.6-2.2-1.2-3.3-1.7.4-1.1.5-2.3.2-3.4a4.8 4.8 0 0 0-2.3-3.1c-19.2-11.2-40.2-11.2-59.5 0-1.2.7-1.9 1.8-2.3 3.1-.3 1.2-.3 2.3.2 3.4-1.1.5-2.2 1.1-3.3 1.7-1.3-1-3.1-1.4-4.8-.7-3.5 1.4-7.7 4.1-9.8 7.3-.9 1.4-1.1 3.1-.5 4.6C37.5 35 33 44.8 30.6 54.8c-1.2 4.7-2.1 10-2.2 14.9v1c-1.8 3.5-3.3 7.3-4.6 11-1.8 5.1-3.6 12.1-3.4 17.5.2 5.7-.1 12.9-2.7 18v.1c-.1.3-.2.6-.4.9-.6 1-1.2 1.9-1.8 2.9-.6.9-2.7 3.9-3.6 4.4-.8.3-1.3 1.1-1.1 2 .1.8.8 1.5 1.7 1.5 1.9.1 3.9 0 5.7-.2 1.1-.2 2.5-.3 3.8-.5.4 3.5 1 7 2 10.4-6.1 4.9-11.3 11.9-14.9 18.7C2.7 169.3-.4 183 .3 196.5c.7 13.2 8.9 29.1 15.5 40.4 5.7 9.8 12.1 19.2 19 28.2 2.4 3.2 4.9 6.3 7.5 9.2 1.6 1.7 3.9 4.4 6.3 5 .6.2 1.2.2 1.8.2.5-.1 1-.1 1.5-.3 0 .1.1.1.1.2 1.6 3.8 3.2 7.7 4 11.8l.3 1.8c.3 2.1.7 4.2 1 6.3 0 .3.1.6.1.9-.1.4-.1.9-.2 1.3-1.6.1-3.3.2-4.9.3-4.7.3-9.4.7-14 1.3-5 .6-10.3 1.5-15.1 3.1-4.4 1.5-9.3 4-10.6 8.9-.6 2-.4 4.1.4 6 1.2 3.1 4.1 5.1 7.3 5.7-.4 2.1-.1 4.2 1 6.1 2.9 5 9.4 5.9 14.3 3.2.4-.3.8-.5 1.1-.8.3.8.7 1.6 1.3 2.4 2.3 2.9 6.2 3.7 9.7 2.8 1.1-.3 2.1-.8 3-1.5 1.4-1.1 2.1-2.3 2.9-3.8.5-.9.9-1.9 1.6-2.6.3-.3.5-.7.8-1.1l1.2-1.8c1.2-1.6 2.3-3.1 3.5-4.7l1.2-1.5c1.6-2 3.4-3.9 5.4-5.7.6-.6 1.2-1.1 1.8-1.6.4-.3 1-.7 1.2-1.2.9-1.8.9-5.3.9-7.3.1-.9.1-1.8.1-2.7.4-.5.8-1.1 1-1.7.8-2.4 2.1-4.6 3.8-6.4.5.4.9.8 1.4 1.2 4.5 3.9 9.3 7.5 14.4 10.6 3 1.9 8.4 5.3 12.1 4.4 2.4-.6 3.8-2.1 4.6-4.1 2.8 1.2 5.6 2.4 8.4 3.3.1 1 .3 2 .7 2.8.3.5.8.9 1.2 1.2.6.5 1.2 1.1 1.8 1.6 1.9 1.7 3.7 3.7 5.4 5.7l1.2 1.5c1.2 1.5 2.4 3.1 3.5 4.7l1.2 1.8c.2.4.5.8.8 1.1.7.8 1.1 1.7 1.6 2.6.8 1.5 1.6 2.8 2.9 3.8.9.7 1.9 1.2 3 1.5 3.5.9 7.4.2 9.7-2.8.6-.8 1-1.6 1.3-2.4.3.3.7.6 1.1.8 4.9 2.7 11.4 1.9 14.3-3.2 1.1-1.9 1.4-4 1-6.1 3.1-.6 6.1-2.7 7.3-5.7.7-1.9.9-4 .4-6-1.3-4.9-6.2-7.4-10.6-8.9-4.1-1.4-8.5-2.2-12.9-2.8.1-.1.1-.3.2-.4.5-1.5.5-3.2-.2-4.6-1.1-2.5-3.8-4.7-6.4-6.3.4-.5.8-1 1.5-1.7 1.8-4.1-1.2-7.9-4.2-10.4-.5-.4-1-.9-1.5-1.3 1.9-1.1 3.6-3.1 4.9-4.5zm24.2 44.9c-.8 1.8-2.9 2.8-4.9 2.8-.9 0-1.8-.3-2.4-.8-1.6-1.3-2.3-3.5-3.4-3.8-1.4-.4-2.8-.7-4-1-7.3-1.8-11.5-2.7-13.5-3-.8-.1-1.2-.2-1.4-.2 1.3.6 12.2 5.5 18.2 9.6 2.6 1.8 3.7 3.7 3.8 5.4.3 3.5-3.9 5.9-8.1 3.6-.9-.5-1.4-3.1-2.6-4-6.4-4.2-16.4-10.2-18.5-11.4 1.6 1.7 7.6 7.9 11.2 12.3.6.7 1 1.4 1.3 2v-.1c.6 1.2.7 2.3.4 3.2 0 .1 0 .1-.1.2 0 .1-.1.2-.1.3 0 .1-.1.2-.2.3-.7 1.1-2.2 1.6-4 1.3-.2 0-.5-.1-.7-.1-2.5-.6-2.5-3.6-5-6.3-.3-.3-.5-.7-.9-1.1-.3-.4-.6-.9-1-1.4-.5-.8-1.1-1.6-1.7-2.5-.4-.6-.9-1.2-1.3-1.8-.7-.9-1.4-1.8-2.2-2.7-.5-.6-1.1-1.2-1.7-1.7-.6-.6-1.2-1.1-1.8-1.6-.7-.5-1.3-1.1-1.8-1.6s-.9-.9-1.3-1.4c-.2-.2-.3-.4-.5-.6-1.5-2.3-1-3.8-1.2-5.3-.1-.8-.2-1.6-.3-2.6h.3l1-.3 4.3-1.1c.3-.1.5-.2.8-.4.3.8.5 1.5.7 2-1 .4-1.8 1-2.5 1.6.4-.1.8-.1 1.2-.2h-.1c3.6-1 7.2-.8 10.9-.7 8 .3 23.5.8 30.3 7.2 1.4 1 2.4 2.2 2.7 3.4 0 0 0-.1.1-.1.4.7.4 1.6 0 2.6zM111.6 305c-.1 0-.1 0 0 0-6-3.8-10.6-6.8-15.9-11.3.7 3.6 4.7 7.5 8.5 10.6.1 2-.2 3.8-1.5 4.1-2.1.5-14.2-6.9-24.1-15.6 8.4-5.8 20.8-6.3 29.6-1.1 4.4 2.6 7.6 6.5 9.3 11.4.2.6.6 1.1 1.1 1.5 0 1 .1 2 .1 3.1-2.3-.8-4.7-1.7-7.1-2.7zm-44-3.1l-5.3-1.4s0-.8-1.3-8.3c-1-5.9-2.3-9.8-9.9-26.9-.5-2.1-1.9-5.2-2.3-6.1-8.6-22.9-13.7-56.8-9.5-78.7l.8-4-1.9 3.7c-5.1 12.6-4.1 34.4-.6 53-6-18.9-7.4-38.5-4.4-57.2 2.8-1.3 8.2-4.2 12.5-7.3 3.7 3.3 9.4 7.9 11.2 8l-1.3-1.3-.2-.2c-.4-.4-.7-.8-1.1-1.2-2.7-2.8-5.5-5.8-8.2-9-4.1 3.3-11 5.4-11 5.4v-.1c.2-5.1 1.9-14.2 1.9-21.4 0-1 0-2-.1-2.9l-8.8 9.4c-.3.3-.4.2-.4-.1-.1-.7.7-3 .8-3.9.3-3.1.4-5.7.4-7.9 0-9.9-2.2-14-2.5-29.5-.7 3.2-1 5.8-1.2 8.3l-7.9 2.8s.1-.1.4-.2l-.4.1s5.7-2.8 7.4-15.3c.4-2.9.6-6.4.4-10.5v-.1c-.2-5.5 2.9-16.9 6.9-24.9 2.8 2.9 7.8 4.9 12.6 6.2-.9.5-1.8 1.2-2.5 2-4.3 4.6-3.6 9.4-2.6 15.1C41 90.4 42.6 83 49.8 83.7c-4.1 5.4-5.4 11-5 16 .5.1.9.5 1 1 1.9 7.8 6.5 17.5 16.2 15.6 3.2-.6 4.6-2.1 6.5-4.4-.7 1.9-1.6 3.3-3 4.3 1.4-.5 2.7-1.3 3.5-2.5v1.1l1.6-4.3.5-1.2c.4-1.6.5-3.3.5-5 0-6.8-2.9-13.9-7.1-18.6-.7-.8-1.4-1.5-2.2-2.1 3.5.4 7.1.8 10.6 1 7.3.6 14.6.8 21.9.8s14.6-.3 21.9-.8c3.5-.3 7.1-.6 10.6-1-.8.7-1.6 1.4-2.2 2.1-3.3 3.6-5.7 8.6-6.7 13.9-.3 1.4-.4 2.7-.4 4.1-.1 1.9.1 3.8.5 5.6l2.1 5.5v-1.2c1 1.4 2.5 2.3 4.3 2.8-1.6-1-2.6-2.5-3.4-4.5 1.9 2.3 3.3 3.8 6.5 4.4 2.1.4 3.9.3 5.5-.2.1 0 .1 0 .2-.1 1.5-.6 3-1.6 4.3-2.7 3.2-3.2 5.1-8.2 6.2-12.6.1-.4.3-.7.7-.9.5-5.1-.8-10.8-4.9-16.2 7.2-.6 8.8 6.8 10.3 13.9 1-5.7 1.7-10.5-2.6-15.1-.8-.8-1.7-1.5-2.6-2 4.4-1.2 9.1-3 12-5.6 3.7 8.2 5.7 19 5.7 26.9v2.1c-.4 7.4 4.6 16.3 7.2 20.4.4.4.6.7.6.7l-.2-.1c.1.1.1.2.2.3 0 .1-7.4-2.6-8.1-2.9v-.1h-.1c.1-2.8-.1-5.5-.5-8.1-.9 4.1-3.4 19-2.4 27.7.1 7.6.8 13.6.8 13.6l-.1-.1-9.4-11.7c-.3.8 2.4 24.5 2.5 26.9 0 0-7.9-2.4-11.8-6.1-7.4 7.5-15.1 12.9-20.3 16 5.2-1.4 15-7 16.9-8.7 1.2-1 2.3-2.1 3.5-3.4 3.4 2.4 7.7 4.1 10.8 5.1.6.2 1.3.2 1.8 0 3.4 19.2 2.4 39.5-3.6 58.9 0-.2.1-.4.1-.6-.1.2-.1.5-.2.7 3.4-18.3 4.3-39.6-.8-52L148 177l.7 3.5c4.2 21.9-.9 55.9-9.5 78.7-.4.7-1.5 3.4-2.1 5.5-7.8 17.6-9.2 21.6-10.2 27.5-1.3 7.5-1.3 8.3-1.3 8.3l-5.3 1.4c-2.1-6-6.1-10.4-11-13.2 2.1.4 4.1.8 6.1 1.4 2.5.8 4.3 1.3 6.8 2.3-2.6-2.4-3.1-2.2-6.4-3.6-5.2-2.2-11.4-3.4-17.7-3.8-2.4-.3-4.8-.3-7.2 0-7.7.3-15.3 1.8-21.6 4.2 3.4-.4 7-.8 10.6-1.1-5.5 2.9-10.1 7.5-12.3 13.8zm-24.5 26.8c3.7-4.5 9.9-10.9 11.3-12.4-1.6.9-12 7.2-18.7 11.5-.1.1-.3.2-.4.4-.8 1-1.2 2.6-1.9 3.3-.1.1-.2.3-.3.3-4.2 2.3-8.4-.1-8.1-3.6 0 .1.1.1.1.2 0-1.7 1.1-3.7 3.8-5.6 6-4.1 16.9-9.1 18.2-9.6-.2 0-.6.1-1.4.2-2 .4-6.2 1.2-13.5 3-1.3.3-2.6.6-4 1-1.1.3-1.8 2.5-3.4 3.8-.6.5-1.5.8-2.4.8-1.9.1-4.1-1-4.9-2.8-.4-1-.4-1.9-.2-2.7 0 0 0 .1.1.1.3-1.2 1.2-2.3 2.6-3.3 6.7-6.5 22.4-7 30.5-7.3 3.7-.1 7.3-.3 10.9.7-.7 0-1.3 0-1.8-.1 1.2.1 2.1.2 2.8.4-.7-.6-1.5-1.2-2.5-1.6.3-.5.5-1.2.8-2.1.3.2.6.3 1 .4l4.1 1.1 1.2.3h.1c-.1.9-.2 1.8-.3 2.6-.2 1.5.3 3.1-1.2 5.3-.1.2-.3.4-.5.6-.3.4-.8.9-1.3 1.4-.5.5-1.1 1-1.8 1.6-.6.5-1.2 1-1.8 1.6l-1.7 1.7c-.8.9-1.5 1.8-2.2 2.7-.5.6-.9 1.2-1.3 1.8-.6.9-1.2 1.7-1.7 2.5-.4.5-.7 1-1 1.4-.3.4-.6.8-.9 1.1-2.5 2.7-2.5 5.7-5 6.3-.2.1-.5.1-.7.1-1.8.3-3.2-.3-4-1.3-.1-.1-.1-.2-.2-.3 0-.1-.1-.2-.1-.3 0-.1 0-.1-.1-.2-.3-.9-.2-1.9.4-3.2v.1c.4-.5.8-1.2 1.4-1.9zm6.5-54.1c-2.4-.6-22.5-25.2-34.9-49.3 1.1 2.5 2.3 5 3.6 7.4l1.7 3.2C8.3 220.7 3.1 201.5 5 182.5c1.2-12.2 10.3-32.9 20.5-39.3h.4c0 1.2-.1 2.4-.1 3.5-.5 8.7-2.1 14.3-1.3 14.6 1.4.7 6.6-4.9 8-6.3-.1 1-.5 7-.9 12.4-1.1 5.1-2 10.2-2.4 15.4.2-1 .4-2 .6-3.1l.5-2.6c.1 3.4-.2 8.9-1.6 13.3 0 .9 0 1.9-.1 2.8 0 2.3 0 4.6.1 7 .2 6.9 1.1 13.8 2.4 20.5l.9 4.2c1.3 5.7 3.1 11.3 5.2 16.8.8 2 1.6 3.9 2.4 5.9.1.3.3.6.4.9l8.4 18.6c.9 2.1 1.8 4.2 2.8 6.3-.4.9-1 1.4-1.6 1.2zM48.4 30.9c3 5.1 8.6 13.7 11 15.5-3.5-6.8-7-13.5-10.3-20.5 0 0 1.8-2.7 6.2-4.8 0-.2.2-.4.5-.6.2-.1.5-.1.7.1 0 0 .1 0 .1-.1l.1.3.1.1c1 2.2 4.6 10.4 6.9 16.1l2.6 6.2.7-.2c1.2-.7-4.1-14.9-6.4-21.1 1.5-.9 3.1-1.7 4.6-2.4.6-.3 1.3-.6 2-.9 1 1.9 2.1 3.7 3.1 5.6 3.5 6.2 5.3 20.9 6.2 33-14.4 1.3-27.9 4-38.3 7.8-.4-.1-.7 0-1 .2 0 0 0 .1-.1.1-1.4.5-2.7 1.1-4 1.6.2-2 .5-4.7 1.1-7.6h.1c1.9-8.6 5.7-20.1 14.1-28.4zm19.1-18.1c.5-.3.9-.5 1.4-.8 9.3 12 8.1 12.1 9.6 27.6.5 5.7.9 11.5 1.6 17.2-.5 0-1 .1-1.5.1-.8-12.2-2.5-28.6-5.7-34.5l-5.4-9.6zm4-2.2c.3-.1.6-.3.9-.4.9-1.8 7.6-3.1 8.8-3.5 3.1-.8 6.3-1.3 9.5-1.5 7.2-.6 14.5.4 21.7 3 1.3.4 2.6.9 3.8 1.4.2.1.3.2.4.4.3.1.7.3 1 .4-.2.3-.4.5-.6.8 0 .2-.1.5-.2.7-.2.4-.5.6-.8.8-6.3 8.9-6.7 11.3-7.1 21.4-.1 1.6-.1 3.4-.3 5.5 0 1.8-.1 3.5-.2 5.3 0 1-.1 2.1-.1 3.1v4.3c.1 1.5.1 3 .2 4.5-4.4-.3-8.8-.5-13.3-.5h-3.8l-8.4.3c-.8 0-1.6.1-2.4.2.3-5.8.1-11.6-.2-17.3-.6-12.1-.3-15.4-4.2-21.9-.8-1.1-1.6-2.4-2.3-3.5-.7-1.1-1.5-2.3-2.4-3.5zM140.6 26c-3.4 7.2-7 14.2-10.8 21.3 1.9 1.1 8.4-10.1 11.7-16.3 8.4 8.3 12.1 19.5 13.9 28 .2 1 .4 2 .5 3v.1c.1.4.1.8.2 1.2v.2c0 .3.1.7.1 1v.2c0 .3.1.6.1.9v.2c0 .4.1.7.1 1-10.8-4.7-26.3-8.2-43.1-9.8.3-3.8.6-7.5 1-11.2.2-2 .7-4.1 1.1-6.1.5-2.4 1.1-4.7 1.6-7.1.3-1.5.7-3.5 1.3-5.3.4-1.2.8-2.3 1.2-3.2 1-1.8 2.1-3.7 3.1-5.5 2.2 1 4.4 2 6.5 3.2-2.5 6.3-8.1 20-5.9 21.6l3-6.9c2-5.1 1.6-3.9 6.8-15.9.2-.4.6-.6 1-.4.5.1.7.6.5 1 4.4 2.2 6.1 4.8 6.1 4.8zm-17.7 69.9c1.3-2.9 3.5-4.7 4.9-4.1 1.4.7 1.5 3.5.2 6.4-1.3 2.9-3.5 4.7-4.9 4.1-1.4-.6-1.5-3.5-.2-6.4zm-56.4 6.4c-1.4.6-3.6-1.2-4.9-4.1-1.3-2.9-1.2-5.7.2-6.4 1.4-.6 3.6 1.2 4.9 4.1 1.3 2.9 1.2 5.8-.2 6.4zm-33.4-32c1.7-.8 3.5-1.5 5.2-2.3.1 0 .1 0 .2-.1 7.1 5 12.9 6.4 21.6 8 .2 0 .3.1.5.1 7.9 1.3 19.1 2.4 27.4 2.3.8 0 1.6 0 2.3-.1l3.6-.3c4.2.1 7.6.2 11.1.3 2.4 0 5 0 8-.2 6.9-.4 17.3-1.5 25.9-4 3.5-1 6.7-2.2 9.1-3.7l3.2-2.4c.1.1.3.1.4.1 1.8.7 3.6 1.5 5.2 2.3-6.1 15.9-117.6 15.9-123.7 0zm92.1 4.5c-7.4 1.3-24.2 3.2-31.4 3.1l-3.6-.4C74.5 76.1 55 75.8 41.3 66.9c.8-.3 1.6-.6 2.4-.8.1-.2.3-.3.5-.4 4.4-1.6 10.3-3 16.9-4.2 28.4-5.6 61.8-3.8 87 5.3-6.9 4.9-14.3 6.5-22.9 8zm-8.5-52.4c-3.2 5.8-4.9 22.2-5.7 34.4-.7-.1-1.4-.1-2.1-.2.7-5.7 1.1-11.4 1.6-17.1 1.5-15.6.4-15.6 9.7-27.7l.1-.1c.6.3 1.2.7 1.8 1 0 .1 0 .1-5.4 9.7zm12.2 278.7c1.2.7 2.5 1.6 3.7 2.5-.7 0-1.4-.1-2.2-.1-.4 0-.8-.1-1.2-.1-.1-.4-.1-.8-.2-1.1-.1-.4-.1-.8-.1-1.2zm0-1.4c0-.2.1-.3.1-.5.3-2.1.6-4.2 1-6.3l.3-1.8c.1-.3.1-.6.2-.9 2.1.9 15.1 6.3 16.8 10.2 1.4 3.2-11.5.8-18.4-.7zm1.6-9.6c.9-3.7 2.3-7.3 3.7-10.8 1.5 1.5 3.2 3 4.8 4.4 9.3 7.9-6 6.7-8.5 6.4zm8.4-15.5c-.7.2-1.4-.4-2-1.6.9-2 1.7-3.9 2.6-5.8l8.4-18.6c.3-.7.6-1.4.9-2.2 1-2.4 2-4.8 2.9-7.2 1.8-4.8 3.2-9.8 4.4-14.8.4-1.7.8-3.4 1.1-5.1 1.2-6.2 1.9-12.6 2.1-19 .1-2.7.1-5.5 0-8.2 0-1.2-.1-2.4-.2-3.6-.8-3.7-1.1-7.8-1.1-10.7-.4-3.2-1-6.3-1.7-9.5l-.6-13.2c1.4 1.4 6.8 7.3 8.4 6.8.5-.3-.8-6.3-1.3-14.5-.1-1.3-.2-2.7-.2-4.1 10.2 6.4 19.2 27.1 20.4 39.3.2 1.8.3 3.7.3 5.5.2 2.7.2 5.5.1 8.3 0 .5-.1 1.1-.1 1.6-.3 2.6-.8 5.3-1.7 8.2-2.3 10.7-6.9 20.9-13.6 29.7l1.7-3.2c.1-.2.2-.3.2-.5-12.2 21.7-28.9 41.9-31 42.4z" class="st11"/><path d="M130.4 303.5c.7 0 1.4.1 2.2.1-1.2-.9-2.5-1.7-3.7-2.5 0 .4.1.8.1 1.2.1.3.1.7.2 1.1.4 0 .8.1 1.2.1zm.1-13.3c-.1.3-.1.6-.2.9l-.3 1.8c-.4 2.1-.7 4.2-1 6.3 0 .1-.1.3-.1.5 6.9 1.5 19.8 3.9 18.4.7-1.7-3.9-14.7-9.3-16.8-10.2zm-13 12.9c-1.7-4.9-4.9-8.8-9.3-11.4-8.7-5.2-21.2-4.7-29.6 1.1 9.8 8.7 21.9 16.1 24.1 15.6 1.3-.3 1.6-2.1 1.5-4.1-3.8-3.1-7.8-7-8.5-10.6 5.3 4.5 9.9 7.5 15.8 11.3h.1c2.4 1 4.8 1.9 7.1 2.7 0-1.1 0-2.1-.1-3.1-.5-.4-.9-.9-1.1-1.5zm21.6-19.3c-1.7-1.4-3.3-2.9-4.8-4.4-1.4 3.5-2.8 7.1-3.7 10.8 2.4.2 17.7 1.4 8.5-6.4z" class="st12"/><path d="M33.4 331.5c.6-.7 1.1-2.3 1.9-3.3-.8.9-1.2 2.5-1.9 3.3z" class="st13"/><path d="M49.3 328.5c3-5.3 12.1-13.6 15-16 1.6-1.3 1.7-4.8 1.4-7.7l-4.1-1.1c-.4-.1-.7-.2-1-.4-.3.9-.5 1.6-.8 2.1 1 .4 1.8 1 2.5 1.6-.7-.2-1.7-.3-2.8-.4-1.4 0-2.5 0-4.9.1-8.5.4-32.2 1.9-35.2 10.9-.1.4-.3.6-.6.7 1.7 1.3 3.8 1.1 5.1-.2 2-1.9 2.9-3.1 2.9-3.1s20.3-3.4 23.3-3.5c2.2-.1-1.2 1.1-3.1 1.8l.1-.1c-1.3.6-12.2 5.5-18.2 9.6-2.7 1.9-3.8 3.9-3.8 5.6.8 1.4 2.3 2.4 4.3 1.8 4.5-1.3 4.5-3.4 4.5-3.4s21.3-12.2 21.7-11.7c.2.2-.3.6-1 1.1 0 0-.1 0-.2.1-1.4 1.5-7.6 7.9-11.3 12.4-.6.7-1 1.4-1.3 2v.3c0 2.9 4.5 2.8 7.5-2.5zm-7.6 6c.7 1.1 2.2 1.6 4 1.3-1.8.3-3.2-.2-4-1.3zm14.6-11.8c-.5.6-.9 1.2-1.3 1.8.4-.6.9-1.2 1.3-1.8zm-3 4.2c-.4.5-.7 1-1 1.4.3-.4.6-.9 1-1.4zm6.9-8.7l-1.7 1.7 1.7-1.7zm4.9-4.5c-.3.4-.8.9-1.3 1.4.5-.5.9-1 1.3-1.4z" class="st13"/><path d="M45.7 313.4c.8-.1 1.2-.2 1.4-.2 0-.1-.4 0-1.4.2zm-4 21.1c-.1-.1-.1-.2-.2-.3.1.1.2.2.2.3zM63.8 315c-.5.5-1.1 1-1.8 1.6.7-.6 1.3-1.1 1.8-1.6zm-22.4 18.9c0-.1 0-.1-.1-.2.1.1.1.2.1.2zM65.5 313c1.5-2.3 1-3.8 1.2-5.3-.2 1.5.3 3.1-1.2 5.3zm-40.8 8.2c-.6.5-1.4.7-2.3.8.9 0 1.8-.3 2.3-.8 1.7-1.3 2.4-3.5 3.5-3.8 1.4-.4 2.8-.7 4-1-1.3.3-2.6.6-4.1 1-1.1.3-1.8 2.6-3.4 3.8zm-4.8-7.9c-1.4 1-2.3 2.1-2.6 3.3 0 .1.1.1.1.2.6-1.3 1.5-2.5 2.5-3.5z" class="st13"/><path d="M41.4 333.8c0 .1 0 .1.1.2 0 .1.1.2.1.3.1.1.1.2.2.3.7 1 2.2 1.6 4 1.3.2 0 .5-.1.7-.1 2.5-.6 2.5-3.6 5-6.3.3-.3.5-.7.9-1.1.3-.4.6-.9 1-1.4.5-.8 1.1-1.6 1.7-2.5.4-.6.9-1.2 1.3-1.8.7-.9 1.4-1.8 2.2-2.7.5-.6 1.1-1.2 1.7-1.7.6-.6 1.2-1.1 1.8-1.6.7-.5 1.3-1.1 1.8-1.6s.9-.9 1.3-1.4c.2-.2.3-.4.5-.6 1.5-2.3 1-3.8 1.2-5.3.1-.8.2-1.7.3-2.6h-.1l-1.2-.3c.3 2.9.2 6.4-1.4 7.7-2.9 2.4-12 10.7-15 16S42 334 42 331.1v-.4c-.8 1.1-.9 2.2-.6 3.1zm14.2-18.7c-.4-.5-21.7 11.7-21.7 11.7s0 2.1-4.5 3.4c-2 .6-3.5-.4-4.3-1.8 0-.1-.1-.1-.1-.2-.3 3.5 3.9 5.9 8.1 3.6l.3-.3c.6-.7 1.1-2.4 1.9-3.3l.4-.4c6.7-4.3 17.1-10.6 18.7-11.5.1-.1.2-.1.2-.1.7-.5 1.2-.9 1-1.1zm-5.5-3.6c-3 .1-23.3 3.5-23.3 3.5s-.9 1.2-2.9 3.1c-1.3 1.3-3.5 1.5-5.1.2-.2.1-.4.1-.7.1-.6 0-1-.6-.8-1.2.1-.1.1-.3.2-.4 0-.1-.1-.1-.1-.2 0 0 0-.1-.1-.1-.2.8-.2 1.7.2 2.7.8 1.8 2.9 2.8 4.9 2.8.9 0 1.7-.3 2.3-.8 1.6-1.2 2.3-3.5 3.4-3.8 1.5-.4 2.8-.7 4.1-1 7.3-1.8 11.5-2.7 13.5-3 .9-.2 1.4-.3 1.4-.3l-.1.1c1.9-.6 5.3-1.8 3.1-1.7z" class="st14"/><path d="M17.5 316.8c-.1.1-.1.3-.2.4-.2.6.2 1.2.8 1.2.2 0 .5 0 .7-.1.3-.1.6-.4.6-.7 3-9 26.7-10.5 35.2-10.9 2.4-.1 3.5-.1 4.9-.1.5 0 1.1 0 1.8.1-3.6-1-7.2-.8-10.9-.7-8.1.3-23.8.8-30.5 7.3-1 1-1.9 2.2-2.4 3.5z" class="st15"/><path d="M129.3 319.9zm-3.4-3.3c-.7-.5-1.3-1.1-1.8-1.6.5.5 1.1 1 1.8 1.6zm9.7 11.7c-.3-.4-.6-.9-1-1.4.4.5.7 1 1 1.4zm34.8-11.5c0-.1.1-.1.1-.2-.3-1.3-1.3-2.4-2.7-3.4 1.2 1 2.1 2.2 2.6 3.6zm-46.3-1.8c-.5-.5-.9-.9-1.3-1.4.4.5.8 1 1.3 1.4zm35.7 2.4c-1.5-.4-2.8-.7-4.1-1 1.2.3 2.6.6 4.1 1 1 .3 1.7 2.5 3.3 3.8.6.5 1.5.8 2.4.8-.9 0-1.7-.3-2.3-.8-1.6-1.2-2.3-3.5-3.4-3.8zm-17.6 18.4c1.8.3 3.2-.3 4-1.3-.8 1.1-2.2 1.6-4 1.3z" class="st13"/><path d="M137.8 311.5c3 .1 23.3 3.5 23.3 3.5s.9 1.2 2.9 3.1c1.3 1.3 3.5 1.5 5.1.2-.3-.1-.6-.4-.6-.7-3-9-26.7-10.5-35.2-10.9-3.2-.1-4.1-.1-6.6 0-.5.1-.9.1-1.2.2.7-.6 1.5-1.2 2.5-1.6-.2-.5-.5-1.1-.7-2-.2.1-.5.3-.8.4l-4.3 1.1c-.3 2.9-.2 6.4 1.4 7.7 2.9 2.4 12 10.7 15 16s7.5 5.4 7.5 2.5v-.3c-.3-.6-.7-1.3-1.3-2-3.6-4.4-9.6-10.6-11.2-12.3-.3-.1-.4-.2-.4-.2-.7-.5-1.2-.9-1-1.1.4-.5 21.7 11.7 21.7 11.7s0 2.1 4.5 3.4c2.1.6 3.6-.5 4.4-2-.1-1.7-1.2-3.6-3.8-5.4-6-4.1-16.9-9.1-18.2-9.6l.1.1c-1.9-.7-5.3-1.9-3.1-1.8z" class="st13"/><path d="M140.8 313.1c.2 0 .6.1 1.4.2-1-.1-1.4-.2-1.4-.2zm5.5 21.1c-.1.1-.1.2-.2.3.1-.1.2-.2.2-.3zm.2-.4c0 .1 0 .1-.1.2.1-.1.1-.2.1-.2zm-13.6-9.3c-.4-.6-.9-1.2-1.3-1.8.4.6.9 1.2 1.3 1.8zm-11.7-16.8c-.1-.8-.2-1.6-.3-2.6.1 1 .2 1.8.3 2.6.2 1.5-.3 3.1 1.2 5.3-1.5-2.2-1-3.8-1.2-5.3z" class="st13"/><path d="M170.5 316.6c0 .1-.1.1-.1.2.1.1.1.3.2.4.2.6-.2 1.2-.8 1.2-.2 0-.5 0-.7-.1-1.7 1.3-3.8 1.1-5.1-.2-2-1.9-2.9-3.1-2.9-3.1s-20.3-3.4-23.3-3.5c-2.2-.1 1.2 1.1 3.1 1.8l-.1-.1s.4.1 1.4.3c2 .4 6.2 1.2 13.5 3 1.3.3 2.6.6 4.1 1 1.1.3 1.8 2.6 3.4 3.8.6.5 1.4.7 2.3.8 1.9.1 4.1-1 4.9-2.8.4-1.1.4-2 .1-2.7.1-.1.1 0 0 0zm-31.9 11.9c-3-5.3-12.1-13.6-15-16-1.6-1.3-1.7-4.8-1.4-7.7l-1 .3h-.3c.1.9.2 1.8.3 2.6.2 1.5-.3 3.1 1.2 5.3.1.2.3.4.5.6.3.4.8.9 1.3 1.4s1.1 1 1.8 1.6c.6.5 1.2 1 1.8 1.6l1.7 1.7c.8.9 1.5 1.8 2.2 2.7.5.6.9 1.2 1.3 1.8.6.9 1.2 1.7 1.7 2.5.4.5.7 1 1 1.4.3.4.6.8.9 1.1 2.5 2.7 2.5 5.7 5 6.3.2.1.5.1.7.1 1.8.2 3.2-.3 4-1.3.1-.1.1-.2.2-.3 0-.1.1-.2.1-.3 0-.1 0-.1.1-.2.3-.9.2-1.9-.4-3.2v.4c-.2 3-4.7 2.9-7.7-2.4zm19.8 1.7c-4.5-1.3-4.5-3.4-4.5-3.4s-21.3-12.2-21.7-11.7c-.2.2.3.6 1 1.1 0 0 .1.1.4.2 2.1 1.2 12.1 7.2 18.5 11.4 1.2.9 1.7 3.5 2.6 4 4.2 2.3 8.4-.1 8.1-3.6-.8 1.5-2.3 2.6-4.4 2z" class="st14"/><path d="M133.3 306.7c8.5.4 32.2 1.9 35.2 10.9.1.4.3.6.6.7.2.1.4.1.7.1.6 0 1-.6.8-1.2-.1-.1-.1-.3-.2-.4-.6-1.4-1.5-2.6-2.6-3.6-6.8-6.3-22.3-6.8-30.3-7.2-3.7-.1-7.3-.3-10.9.7h.1c2.5-.1 3.4-.1 6.6 0z" class="st15"/><path d="M170 232.2c1.5-2.8 2.8-5.6 4-8.4-.5.2-.9.3-1.3.3-2.7.1-3-6.8-3-10.6-3.7 7.1-10.9 19.2-13.5 11.4 0-.1-.1-.3-.1-.4-1.2 5-2.6 9.9-4.4 14.8-5.4 20.1 0 15.9 8.1 2.5 2.6-4.3 3.2-1.6 2.8 1.8l-.1.8c-.8 1.2-1.6 2.4-2.5 3.5.1-1.5.3-3.2.5-4.4-3.8 5.7-11.1 15.4-12.1 8.3-.2-1.5 0-3.4.4-5.4-.3.7-.6 1.4-.9 2.2l-8.4 18.6c-.8 1.9-1.7 3.9-2.6 5.8.6 1.2 1.3 1.7 2 1.6 2.1-.5 18.8-20.7 31.1-42.4z" class="st12"/><path d="M168.1 212.5c2.7-5.8 3.9-3.9 4.1.7.1 1.7.2 4.2.4 6.1.4 3.8 1.9 2.4 3.7-1 2.1-5.9 3.7-11.8 4.4-17.6-7.1 5.6-16.6 2.9-21.4-8.5.1 2.7.1 5.5 0 8.2-.2 6.4-.9 12.7-2.1 19-.3 12 4.8 6.4 10.9-6.9zm14.5-11.1c.2-.6.3-1 .3-1.1-.2 1.1-.4 2.1-.7 3.2-.2.9-.3 1.8-.5 2.7.8-2.9 1.4-5.6 1.7-8.2-.1.2-.3.3-.4.5-.1 1-.3 1.9-.4 2.9z" class="st12"/><path d="M180.7 200.7c.7-5.1.8-10.2.3-15.3-.8 2.3-2 3.9-3.6 4.4-2.7.8-5.1-5.7-6.3-9.4-1.3 7.7-4.4 21.2-9.4 14.4-1.2-1.6-2-3.8-2.5-6.3.1 1.2.1 2.4.2 3.6 4.7 11.5 14.2 14.2 21.3 8.6zm2.3-2.2c.1-.2.3-.3.4-.5 0-.5.1-1.1.1-1.6.1-2.8.1-5.6-.1-8.3.1 3.5-.1 7-.4 10.4z" class="st16"/><path d="M158.6 179.8c4.4 23.2 8.5 17.1 10.6.3.8-6.3 2.5-5.5 4.2-.8.9 2.4 2.4 6.4 3.5 7.9 1.7-2.2 2.5-5.3 2.9-8.7-2-8.8-6-17.4-12.5-25.9-.1-.2-3.1-3.6-4.4-5.2.6 8.2 1.8 14.2 1.3 14.5-1.6.5-7-5.4-8.4-6.8l.6 13.2c.7 3.1 1.2 6.3 1.7 9.5v-.6l.5 2.6z" class="st16"/><path d="M169.7 213.5c0 3.8.3 10.7 3 10.6.5 0 .9-.1 1.3-.3.8-1.8 1.5-3.7 2.2-5.5-1.7 3.4-3.2 4.9-3.7 1-.2-1.9-.3-4.4-.4-6.1-.2-4.6-1.4-6.5-4.1-.7-6.1 13.3-11.2 18.9-10.9 6.9-.3 1.7-.7 3.4-1.1 5.1 0 .1.1.3.1.4 2.7 7.8 9.9-4.3 13.6-11.4zm12.9-12.1c-.1.7-.2 1.5-.3 2.2.3-1.1.5-2.2.7-3.2-.1 0-.2.4-.4 1zm-34.2 50.4c1 7.1 8.3-2.6 12.1-8.3-.2 1.2-.4 2.9-.5 4.4.9-1.1 1.7-2.3 2.5-3.5l.1-.8c.4-3.4-.2-6.1-2.8-1.8-8.1 13.3-13.5 17.5-8.1-2.5-.9 2.4-1.8 4.8-2.9 7.2-.4 1.9-.6 3.8-.4 5.3z" class="st17"/><path d="M7.3 200.2c.6 5.1 1.9 10.2 3.6 15.4 2.2 5.1 4.3 8.4 4.9 3.7.2-1.9.3-4.4.4-6.1.2-4.6 1.4-6.5 4.1-.7 5.8 12.7 10.7 18.4 10.9 8.3-1.4-6.8-2.2-13.6-2.4-20.5-.1-2.3-.2-4.6-.1-7-5.1 10.6-14.5 12.9-21.4 6.9z" class="st12"/><path d="M40.2 248.6c-.1-.3-.3-.6-.4-.9.3 1.5.4 2.9.2 4.1-1 7.1-8.3-2.6-12.1-8.3.2 1.2.4 2.9.5 4.4-.9-1.1-1.7-2.3-2.5-3.5l-.1-.8c-.4-3.4.2-6.1 2.8-1.8 7.7 12.7 13 17.1 8.8 0-2.1-5.5-3.9-11.1-5.2-16.8-2.6 7.5-9.8-4.5-13.4-11.5 0 3.8-.3 10.7-3 10.6-.6 0-1.1-.2-1.7-.4.2.5.4 1.1.7 1.6 12.4 24.1 32.5 48.8 34.9 49.3.6.2 1.2-.3 1.8-1.1-.9-2.1-1.9-4.2-2.8-6.3-2.9-6.2-5.7-12.4-8.5-18.6z" class="st12"/><path d="M8.5 177.6c.3 3.8 1.2 7.3 3 9.6 1.1-1.5 2.6-5.5 3.5-7.9 1.7-4.7 3.4-5.5 4.2.8 2 16 5.8 22.3 10 2.8.5-5.2 1.3-10.3 2.4-15.4.4-5.4.8-11.4.9-12.4-1.4 1.4-6.6 7-8 6.3-.8-.4.8-5.9 1.3-14.6-.7.9-4.9 5.7-5 5.8-6.3 8.1-10.3 16.5-12.3 25z" class="st16"/><path d="M17.3 180.4c-1.2 3.7-3.6 10.2-6.3 9.4-1.8-.5-3-2.5-3.8-5.1-.6 5.1-.5 10.3.1 15.5 6.9 5.9 16.3 3.7 21.3-6.9 0-.9 0-1.9.1-2.8-.5 1.6-1.2 3.1-2 4.3-5 6.8-8.1-6.7-9.4-14.4z" class="st16"/><path d="M20.3 212.5c-2.7-5.8-3.9-3.9-4.1.7-.1 1.7-.2 4.2-.4 6.1-.5 4.7-2.7 1.4-4.9-3.7.9 2.7 1.9 5.4 3.1 8.1.6.2 1.1.4 1.7.4 2.7.1 3-6.8 3-10.6 3.7 7.1 10.8 19 13.4 11.5l-.9-4.2c-.2 10.1-5.1 4.4-10.9-8.3zm8.3 29.3c-2.6-4.3-3.2-1.6-2.8 1.8l.1.8c.8 1.2 1.6 2.4 2.5 3.5-.1-1.5-.3-3.2-.5-4.4 3.8 5.7 11.1 15.4 12.1 8.3.2-1.2.1-2.6-.2-4.1-.9-1.9-1.7-3.9-2.4-5.9 4.2 17.1-1.1 12.7-8.8 0z" class="st17"/><path d="M170.7 124.9s-.2-.3-.6-.7c.1.2.3.4.4.6l.2.1zM80 288.1c-3.6.3-7.2.7-10.6 1.1 6.3-2.4 13.9-3.9 21.6-4.2 2.4-.2 4.8-.2 7.2 0 6.4.4 12.5 1.6 17.7 3.8 3.3 1.4 3.8 1.2 6.4 3.6-2.5-1-4.3-1.5-6.8-2.3-2-.6-4-1.1-6.1-1.4 4.9 2.8 8.9 7.2 11 13.2l5.3-1.4s0-.8 1.3-8.3c1-5.9 2.4-9.9 10.2-27.5.6-2.1 1.7-4.8 2.1-5.5 8.6-22.8 13.7-56.8 9.5-78.7l-.7-3.5 1.7 3.3c5.1 12.4 4.2 33.7.8 52 .1-.2.1-.5.2-.7 0 .2-.1.4-.1.6 6-19.5 7.1-39.7 3.6-58.9-.6.2-1.2.2-1.8 0-3.1-1-7.4-2.7-10.8-5.1-1.2 1.2-2.3 2.4-3.5 3.4-1.9 1.7-11.7 7.2-16.9 8.7-3.6 2.2-5.9 3.2-5.9 3.2l4.3-10.2c-6.4 6.4-13.9 12.5-13.9 12.5l1.5-7.5-14 18.3-13.6-19.5 1.9 9.4s-5.1-.8-12.8-9.5l-1 8.7c0 .2-.2.2-.4.1-8.3-8.7-18.9-25.7-18.9-25.7l-8.7 4.1.4-29.6-8.3 10.5s.5-4.1-.3-17.1c-.6-9.8-4.3-17.3-5.8-25.2-.5 3-1.1 6.4-1.6 10l-.1-.1c.2-.9.4-2 .5-3-1.7 12.5-7.4 15.3-7.4 15.3l.4-.1 7.5-2.7c.2-2.5.5-5.1 1.2-8.3.3 15.5 2.5 19.6 2.5 29.6 0 2.3-.1 4.9-.4 7.9-.1.9-.8 3.2-.8 3.9 0 .2.1.3.4 0l8.8-9.4c.1 1 .1 2 .1 3 0 7.2-1.7 16.3-1.9 21.4.1 0 6.9-2.1 11-5.4 2.7 3.2 5.5 6.3 8.2 9.1.4.4.8.8 1.1 1.2l.2.2 1.3 1.3c-1.8-.1-7.5-4.7-11.2-8-4.3 3.1-9.7 6-12.5 7.3-2.9 18.7-1.6 38.4 4.4 57.2-3.5-18.6-4.5-40.4.6-53l1.9-3.7-.8 4c-4.2 21.9.9 55.8 9.5 78.7.4.9 1.8 4 2.3 6.1 7.6 17.1 8.9 21 9.9 26.9 1.3 7.5 1.3 8.3 1.3 8.3l5.3 1.4c2.3-6.3 6.9-10.9 12.5-13.8zM67.3 185.8c-1.1-.5-4.1-2.9-7.9-6.5 3.8 3.5 6.7 5.9 7.9 6.5zm-8.8-7.5l-.3-.3.3.3zm-13.2 64.6c-5.4-24.1-5.1-51 .7-65.9 33.1 37.2 69.2 32.9 95.6-.3 6 14.9 6.4 42.2.9 66.6-7.5 18.9-21.5 33.2-42.7 37.6-2.2.5-4.1.5-5.8.3-1.8.2-3.7.1-5.8-.3-21.4-4.5-35.4-18.9-42.9-38z" class="st18"/><path d="M88.2 280.8c2.1.4 4 .5 5.8.3 1.7.2 3.6.2 5.8-.3 21.2-4.4 35.3-18.7 42.7-37.6 5.5-24.3 5.1-51.7-.9-66.6-26.4 33.2-62.5 37.5-95.6.3-5.8 14.9-6.2 41.9-.7 65.9 7.5 19.2 21.5 33.6 42.9 38zm6.3-13.7c-1.6 2-1.8 2-3.2-.1-1.4-1.9-3.5-5.4-3.2-9.6.1-1.7.6-2.2 1.2-2 .3 2.7 1.5 5.2 3 7.3.1.2.4.5.6.8.3-.2.6-.6.7-.8 1.6-2.1 2.9-4.5 3.4-7.1.8-.4 1.4-.1 1.4 1.9-.1 4.2-2.4 7.7-3.9 9.6zm-18.2-26c.1-1.9.6-2.3 1.4-2 .5 2.6 2 5.1 3.7 7.2.1.1.5.6.8.9.3-.2.7-.7.8-.9.9-1.1 1.7-2.4 2.3-3.7.5-1.1.9-2.3 1-3.5.7-.2 1.2.3 1.3 2 .2 4.2-2.1 7.8-3.6 9.7-1.6 2-1.8 2.1-3.6 0-1.7-1.9-4.1-5.5-4.1-9.7zm34 0c-.2 4.2-2.9 7.7-4.7 9.7-1.8 2-2.1 2.1-3.5-.1-1.4-1.9-3.5-5.5-3-9.7.2-1.4.7-2 1.2-2 .1 2.7 1.2 5.2 2.8 7.4.2.2.5.6.7.9.3-.3.7-.8.9-1 1.8-1.9 3.4-4.4 4.1-7 .9-.5 1.6-.2 1.5 1.8zm5.6 26c-1.9 2-2.1 2-3.1-.1-1.2-1.9-2.9-5.4-2.1-9.6.2-1.3.6-1.9 1-2-.1 2.6.7 5.2 2.1 7.4.1.2.2.5.4.7.3-.3.6-.7.8-.9 1.7-1.9 3.3-4.1 4.1-6.6 1.2-.9 2.1-.9 1.8 1.5-.5 4.2-3.3 7.7-5 9.6zm11-16.3c-2 2-2.2 2.1-3.6 0-1.2-1.9-2.9-5.5-1.9-9.7.3-1.1.6-1.7 1-1.9-.2 2.5.6 5.1 2 7.3.1.2.3.5.5.8.4-.3.9-.8 1.1-1 1.8-1.9 3.7-4.2 4.7-6.7 1.3-.9 2.3-.9 1.9 1.5-.7 4.2-3.7 7.7-5.7 9.7zm.4-47.9c.3-1 .6-1.6 1-1.8-.1 2.4 1.1 4.7 2.6 6.6.1.1.6.7.8.9.4-.1 1.3-.9 1.5-1.1 1.9-1.6 4-3.8 5.1-6.2 1.3-.6 2.2-.5 1.9 1.6-.6 4-4 7.3-6.2 9.2-2.3 1.9-2.6 2-4.1 0-1.5-1.8-3.6-5.2-2.6-9.2zm-12.4 19.9c.3-1.2.7-1.8 1.1-2-.1 2.6 1 5.2 2.6 7.3.1.1.5.7.7.9.4-.2 1.1-.9 1.3-1.1 1.9-1.9 3.9-4.3 4.8-6.9 1.1-.6 1.9-.3 1.7 1.8-.4 4.2-3.6 7.8-5.6 9.7-2.1 2-2.4 2-3.9 0-1.4-1.9-3.5-5.5-2.7-9.7zm-13.8-15.5c.2-1.3.6-1.8 1.2-1.9.2 2.5 1.7 4.9 3.4 6.7.1.2.7.8 1 1 .4-.2 1.2-.9 1.4-1.1 1.8-1.7 3.8-4 4.5-6.5.9-.4 1.6 0 1.5 1.8-.1 4-3.2 7.4-5.2 9.2-2.1 2-2.4 2-4.1 0-1.7-1.8-4.2-5.2-3.7-9.2zm-12.7 15.5c.1-1.5.6-2.1 1.2-2 .1 1.3.5 2.5 1 3.6.7 1.3 1.5 2.6 2.5 3.7.1.2.6.8.9 1 .4-.3.9-.9 1.1-1.1 1.8-2 3.5-4.5 4-7.2.8-.2 1.4.2 1.4 2 0 4.2-2.7 7.8-4.5 9.7-1.9 2-2.1 2-3.7 0-1.7-1.9-4.2-5.5-3.9-9.7zm-12.2-17.4c.5 2.5 2.3 4.8 4.1 6.6.2.2.9.9 1.2 1.1.3-.2 1-.9 1.2-1.1 1-1 2-2.2 2.7-3.5.5-1 .9-2 1.1-3.1.7-.1 1.2.4 1.3 1.9.3 4-2.4 7.3-4.2 9.2-1.9 2-2.2 2-4.1 0-1.9-1.8-4.8-5.2-4.7-9.2.1-1.6.6-2 1.4-1.9zm-13.1 15.5c.7 2.7 2.5 5.2 4.4 7.1.2.2.8.9 1.1 1.1.3-.2.8-.8.9-1 1.6-2.1 3-4.6 3.1-7.3.6 0 1 .6 1.2 2 .6 4.2-1.7 7.8-3.3 9.7-1.6 2-1.8 2-3.9 0-1.9-1.9-4.8-5.5-5-9.7-.1-1.9.6-2.3 1.5-1.9zm-14.4-18c-.1-1.9.6-2.2 1.7-1.8.9 2.5 2.9 4.7 4.8 6.4.2.2 1 .9 1.4 1.1.3-.2.8-.8 1-1 1.6-1.8 2.9-4.1 3-6.6.5.2.9.7 1.1 1.9.7 4-1.6 7.3-3.2 9.2-1.7 1.9-1.9 2-4.2 0-2-1.8-5.3-5.2-5.6-9.2zm14 47.9c-1.4 2-1.6 2.1-3.5.1-1.8-1.9-4.7-5.5-5.1-9.7-.3-2.2.5-2.4 1.6-1.7.8 2.6 2.6 5 4.4 6.9l1 1c.2-.3.5-.7.6-.9 1.5-2.2 2.5-4.8 2.5-7.4.5.1.9.7 1.1 2 .6 4.2-1.3 7.8-2.6 9.7zm4.3 5.1c.7 2.5 2.1 4.9 3.8 6.9.1.1.4.5.7.8.2-.3.4-.6.5-.8 1.5-2.2 2.5-4.7 2.6-7.3.6-.1 1 .4 1.2 2 .5 4.2-1.4 7.7-2.7 9.6-1.4 2-1.5 2-3.2.1-1.7-1.9-4.2-5.4-4.4-9.6-.1-2.1.6-2.3 1.5-1.7z" class="st10"/><path d="M58.5 212.1c1.6-1.9 3.9-5.2 3.2-9.2-.2-1.2-.6-1.7-1.1-1.9-.1 2.5-1.4 4.8-3 6.6-.2.2-.7.8-1 1-.4-.2-1.2-.9-1.4-1.1-1.9-1.7-3.9-3.9-4.8-6.4-1.1-.4-1.8-.1-1.7 1.8.3 4 3.6 7.4 5.6 9.2 2.3 2 2.5 1.9 4.2 0zm21 4.4c1.9 2 2.2 2 4.1 0 1.8-1.9 4.5-5.2 4.2-9.2-.1-1.5-.6-2-1.3-1.9-.2 1.1-.6 2.1-1.1 3.1-.7 1.3-1.7 2.5-2.7 3.5-.2.2-.9.9-1.2 1.1-.3-.2-1-.9-1.2-1.1-1.8-1.8-3.6-4.1-4.1-6.6-.8-.1-1.3.3-1.4 1.9-.1 4 2.8 7.4 4.7 9.2zm29.4 0c2-1.8 5.1-5.2 5.2-9.2.1-1.8-.6-2.2-1.5-1.8-.7 2.5-2.7 4.8-4.5 6.5-.2.2-1 .9-1.4 1.1-.3-.2-.9-.8-1-1-1.7-1.8-3.2-4.2-3.4-6.7-.6.1-1 .6-1.2 1.9-.5 4 2 7.4 3.7 9.2 1.7 2 2 2 4.1 0zm21-4.4c1.5 2 1.8 1.9 4.1 0 2.2-1.9 5.6-5.2 6.2-9.2.3-2.1-.6-2.2-1.9-1.6-1.1 2.4-3.2 4.6-5.1 6.2-.2.2-1.1 1-1.5 1.1-.2-.2-.7-.8-.8-.9-1.5-1.9-2.7-4.2-2.6-6.6-.4.2-.7.8-1 1.8-1 4 1.1 7.4 2.6 9.2zm-68.3 10.7c.2 4.2 3.1 7.8 5 9.7 2.1 2 2.3 2 3.9 0 1.6-1.9 3.9-5.5 3.3-9.7-.2-1.4-.6-2-1.2-2-.1 2.7-1.5 5.2-3.1 7.3-.1.2-.6.8-.9 1-.3-.2-.9-.9-1.1-1.1-1.9-1.9-3.7-4.4-4.4-7.1-.9-.4-1.6 0-1.5 1.9zm34.4 9.7c1.8-1.9 4.5-5.5 4.5-9.7 0-1.8-.6-2.2-1.4-2-.5 2.7-2.2 5.2-4 7.2-.2.2-.7.8-1.1 1.1-.3-.2-.8-.8-.9-1-1-1.1-1.8-2.4-2.5-3.7-.5-1.1-.9-2.3-1-3.6-.6-.1-1.1.5-1.2 2-.3 4.2 2.2 7.8 3.9 9.7 1.6 2 1.8 2 3.7 0zm25.5 0c2-1.9 5.2-5.5 5.6-9.7.2-2.1-.6-2.4-1.7-1.8-.9 2.6-2.9 5-4.8 6.9-.2.2-.9.9-1.3 1.1-.2-.2-.6-.8-.7-.9-1.6-2.1-2.7-4.7-2.6-7.3-.4.2-.8.8-1.1 2-.8 4.2 1.3 7.8 2.7 9.7 1.5 2 1.8 2 3.9 0zm-57.3 6.6c0 2.6-1 5.2-2.5 7.4-.1.2-.4.6-.6.9l-1-1c-1.8-1.9-3.6-4.3-4.4-6.9-1.1-.7-1.9-.5-1.6 1.7.4 4.2 3.3 7.8 5.1 9.7 1.9 2 2.1 1.9 3.5-.1 1.3-1.9 3.2-5.5 2.6-9.7-.2-1.3-.6-1.9-1.1-2zM84 250.8c1.5-1.9 3.8-5.5 3.6-9.7-.1-1.7-.6-2.2-1.3-2-.1 1.2-.5 2.4-1 3.5-.6 1.3-1.4 2.6-2.3 3.7-.1.2-.5.7-.8.9-.3-.3-.7-.8-.8-.9-1.7-2.1-3.2-4.6-3.7-7.2-.8-.3-1.3.1-1.4 2 0 4.2 2.4 7.8 4.1 9.7 1.8 2.1 2 2 3.6 0zm24.8-11.5c-.7 2.6-2.3 5.1-4.1 7-.2.2-.6.7-.9 1-.2-.3-.5-.7-.7-.9-1.6-2.2-2.7-4.7-2.8-7.4-.5 0-1 .6-1.2 2-.5 4.2 1.6 7.8 3 9.7 1.4 2.2 1.7 2.1 3.5.1s4.5-5.5 4.7-9.7c.1-2-.6-2.3-1.5-1.8zm21.9.3c-1 2.5-2.9 4.8-4.7 6.7-.2.2-.7.7-1.1 1-.2-.3-.4-.6-.5-.8-1.4-2.2-2.2-4.8-2-7.3-.4.2-.7.8-1 1.9-1 4.2.7 7.8 1.9 9.7 1.4 2.1 1.6 2 3.6 0s5-5.5 5.7-9.7c.4-2.4-.6-2.4-1.9-1.5zm-60.8 27.6c1.7 1.9 1.8 1.9 3.2-.1 1.3-1.9 3.2-5.4 2.7-9.6-.2-1.6-.6-2.1-1.2-2-.1 2.6-1.1 5.1-2.6 7.3-.1.2-.3.5-.5.8-.3-.3-.6-.7-.7-.8-1.7-2-3.1-4.4-3.8-6.9-.9-.6-1.6-.4-1.5 1.7.2 4.2 2.7 7.7 4.4 9.6zm28.5-9.7c0-2-.6-2.3-1.4-1.9-.5 2.6-1.8 5-3.4 7.1-.1.2-.4.6-.7.8-.2-.3-.5-.6-.6-.8-1.5-2.1-2.7-4.6-3-7.3-.6-.2-1.1.3-1.2 2-.3 4.2 1.8 7.7 3.2 9.6 1.4 2.1 1.6 2.1 3.2.1 1.5-1.9 3.8-5.4 3.9-9.6zm20.7-1.5c-.8 2.5-2.4 4.7-4.1 6.6-.2.2-.5.6-.8.9-.2-.2-.3-.5-.4-.7-1.4-2.2-2.2-4.8-2.1-7.4-.4.1-.8.7-1 2-.8 4.2.9 7.7 2.1 9.6 1 2.1 1.2 2.1 3.1.1 1.7-1.9 4.5-5.4 5-9.6.3-2.4-.6-2.4-1.8-1.5z" class="st16"/><path fill="#60605e" d="M10.9 215.6c-1.7-5.1-2.9-10.3-3.6-15.4-.7-5.2-.7-10.4-.1-15.5-.4-1.4-.8-3-1-4.7.5-2.9 1.3-5.7 2.1-8.5 0 2 0 4 .2 6.1 2-8.5 6-16.8 12.3-25 .1-.2 4.3-4.9 5-5.8.1-1.1.1-2.3.1-3.5h-.4c-10.2 6.3-19.3 27-20.5 39.2-1.9 19 3.3 38.2 15 53.4l-1.7-3.2c-1.3-2.5-2.5-5-3.6-7.4-.2-.5-.5-1.1-.7-1.6-1.2-2.7-2.2-5.4-3.1-8.1zm168.9-37.1c.3-2.3.3-4.7.3-7 .9 2.8 1.6 5.6 2.1 8.5-.3 2-.7 3.8-1.2 5.4.5 5.1.4 10.2-.3 15.3-.8 5.8-2.3 11.7-4.4 17.6-.7 1.8-1.4 3.7-2.2 5.5-1.2 2.8-2.5 5.6-4 8.4-.1.2-.2.3-.2.5l-1.7 3.2c6.8-8.8 11.3-19 13.6-29.7.2-.9.4-1.8.5-2.7.1-.7.2-1.5.3-2.2.1-.9.3-1.9.4-2.8.4-3.5.5-6.9.4-10.4 0-1.8-.1-3.7-.3-5.5-1.2-12.2-10.3-32.8-20.4-39.3 0 1.4.1 2.8.2 4.1 1.4 1.6 4.3 5 4.4 5.2 6.5 8.4 10.5 17.1 12.5 25.9z"/><path d="M171.1 180.4c1.2 3.7 3.6 10.2 6.3 9.4 1.6-.5 2.7-2.1 3.6-4.4.6-1.6 1-3.4 1.2-5.4-.5-2.9-1.2-5.7-2.1-8.5 0 2.3 0 4.7-.3 7-.4 3.4-1.2 6.6-2.9 8.7-1.1-1.5-2.6-5.5-3.5-7.9-1.7-4.7-3.4-5.5-4.2.8-2.1 16.8-6.2 22.9-10.6-.3l-.5-2.6v.6c0 2.9.2 7 1.1 10.7.6 2.4 1.4 4.7 2.5 6.3 5 6.8 8.1-6.7 9.4-14.4zm-151.9-.3c-.8-6.3-2.5-5.5-4.2-.8-.9 2.4-2.4 6.4-3.5 7.9-1.8-2.3-2.7-5.9-3-9.6-.2-2-.2-4.1-.2-6.1-.8 2.8-1.6 5.6-2.1 8.5.2 1.7.6 3.3 1 4.7.8 2.6 2 4.6 3.8 5.1 2.7.8 5.1-5.7 6.3-9.4 1.3 7.7 4.4 21.2 9.4 14.4.8-1.1 1.5-2.6 2-4.3 1.4-4.4 1.7-9.9 1.6-13.3l-.5 2.6c-.2 1.1-.4 2.1-.6 3.1-4.2 19.5-8 13.2-10-2.8z" class="st17"/><path d="M58.2 178l.3.3-.3-.3zm9.1 7.8c-1.2-.6-4.1-3-7.9-6.5 3.8 3.5 6.8 6 7.9 6.5zm95.5-82.3v.2c-.4 8 5.4 17.7 7.8 21.3 0 .1-6.9-2.4-8-2.9v.1c.7.3 8.1 3 8.1 2.9-.1-.1-.1-.2-.2-.3-.1-.2-.3-.4-.4-.6-2.6-4.1-7.6-13-7.2-20.4v-2.1 1.9l-.1-.1zm-89 11c.7-.1 2-.2 2.8-.4 3.2-2.1 7.5-8.6 9.4-11.7 2-3.1 4.9-7.4 9-7.4s7 4.3 8.9 7.5c1.4 2.3 2.6 4.8 3.9 7.1.6 1 1.7 3 2.8 3.5.5.2 2.4.1 3 .1 2 0 3.9.2 5.5 1.2 0-.9 0-1.7.1-2.6-1.2-2.2-1.8-4.9-1.1-8.1 0-1.4.2-2.7.4-4.1-.4-10.6-14.1-13.2-24.8-13.4-13.6-.2-22.7 11.3-22 16.5.1.6.1 1.1 0 1.6 0 1.7-.2 3.4-.5 5l-.5 1.2c.1 1.5.1 3 .2 4.6 1-.3 2-.5 2.9-.6zM46 164.9c-4.1 3.3-10.9 5.4-11 5.4v.1s6.9-2.1 11-5.4c2.7 3.2 5.5 6.3 8.2 9-2.7-2.8-5.5-5.9-8.2-9.1zm9.5 10.5l-.2-.2c.1 0 .2.1.2.2zm104-33.8c.1 7.4.8 13.3.8 13.6l.1.1s-.7-6-.8-13.6c-1-8.7 1.6-23.6 2.4-27.7v-.4c-.8 3.7-3.5 19.1-2.5 28z" class="st10"/><path d="M153.3 170.3s-7.9-2.4-11.8-6.1c-3.9 4-7.9 7.3-11.6 10.1 5.2-7.3 9.6-14.2 9.5-14.2l8.7 4.1-.4-29.6 8.3 10.5s-.5-4.1.3-17.1c.6-9.9 4.3-17.5 5.8-25.5-2.7-3.5-6.5-4.5-10.8 1.5-1.4 2-3.1 3.8-4.9 5.4 2.9 24.3.9 58.5-13.7 48-8.2-5.9-12.2-18.9-13.3-33-2 1.3-4.9 1.9-6.9 2.4-8 1.9-10.2 8.7-15.5 13.8l-2.3 2.1-2.1-2.2c-4.5-4.8-9.8-13.1-16.9-13.8-1.7-.2-3.6-.4-5.2-.7-1.2 13.5-5.3 25.8-13.2 31.4-15.2 11-16.7-26.9-13.2-51.2-2.4-2.5-4.7-5.5-6.7-9-6.6-11.8-9.4-6.4-11.6 5.6 1.6 7.9 5.3 15.4 5.8 25.2.8 13 .3 17.1.3 17.1l8.3-10.5-.4 29.6 8.7-4.1s10.6 17 18.9 25.7c.3.1.4.1.4-.1l1-8.7c7.7 8.7 12.8 9.5 12.8 9.5l-1.9-9.4 13.6 19.5 14-18.3-1.5 7.5s7.5-6.1 13.9-12.5l-4.3 10.2s2.3-1.1 5.9-3.2c5.2-3.1 12.9-8.4 20.3-16 3.9 3.7 11.8 6.1 11.7 6 0-2.3-2.7-26-2.4-26.8l-.1-.1c-.3.5 2.4 24.5 2.5 26.9zM110.6 159c.2-1.3.6-1.9 1-2 0 2.5.8 4.8 2.1 7 .1.1.3.4.4.7.3-.3.7-.7.8-.9 1.5-1.8 3-3.8 3.9-6 1.3-1.1 2.4-1.4 2.1 1.2-.5 4.2-3.3 7.7-5 9.6-1.9 2-2.1 2.1-3.2 0-1.2-1.9-2.9-5.4-2.1-9.6zm-22.5 6.9c.1-1.6.6-2.1 1.2-2 .3 2.5 1.5 4.8 2.9 6.8.1.1.4.5.6.8.3-.3.6-.7.7-.8 1.5-1.9 2.8-4.2 3.3-6.5.9-.6 1.6-.4 1.6 1.7-.1 4.2-2.4 7.7-3.9 9.6-1.6 2-1.8 2-3.2 0-1.4-1.9-3.5-5.4-3.2-9.6zm-20.9-8.5c.7 2.4 2.1 4.6 3.7 6.5.1.2.5.6.7.8.2-.3.4-.6.5-.8 1.4-2.1 2.4-4.4 2.5-6.9.5-.1 1 .4 1.2 2 .5 4.2-1.4 7.7-2.7 9.6-1.4 2-1.5 2-3.2 0-1.7-1.9-4.2-5.4-4.4-9.6-.1-2.3.7-2.3 1.7-1.6zm-40.9-43.5c-.7 3.2-1 5.8-1.2 8.3l-7.5 2.7c-.2.2-.4.2-.4.2l7.9-2.8c.2-2.5.5-5.1 1.2-8.3.3 15.4 2.5 19.6 2.5 29.5 0-10-2.2-14.1-2.5-29.6z" class="st10"/><path d="M36.8 145.9l-8.8 9.4c-.2.2-.4.2-.4 0 0 .3.1.4.4.1l8.8-9.4c.1.9.1 1.9.1 2.9 0-1 0-2-.1-3z" class="st10"/><path d="M92.6 140.5l2.1 2.2 2.3-2.1c5.3-5.1 7.5-11.9 15.5-13.8 2-.4 4.9-1 6.9-2.4 0-.5-.1-1-.1-1.6-2 1.2-4.8 1.8-6.7 2.2-8 1.9-10.2 8.7-15.5 13.8l-2.3 2.1-2.1-2.2c-4.5-4.8-9.8-13.1-16.9-13.8-1.7-.2-3.5-.4-5.2-.7 0 .6-.1 1.1-.1 1.7 1.6.4 3.5.6 5.2.7 7.1.8 12.4 9.1 16.9 13.9zM25 99.1zM170.6 125c-2.4-3.6-8.2-13.3-7.8-21.3v-.2c-.2-.3-.4-.7-.7-1-1.5 8-5.2 15.7-5.8 25.5-.8 13-.3 17.1-.3 17.1l-8.3-10.5.4 29.6-8.7-4.1c.1 0-4.3 6.9-9.5 14.2 3.7-2.8 7.7-6.1 11.6-10.1 3.9 3.7 11.8 6.1 11.8 6.1-.1-2.4-2.8-26.4-2.5-26.9l.1.1 9.4 11.7c0-.3-.7-6.2-.8-13.6-1-8.9 1.7-24.3 2.5-28v.4c.4 2.7.6 5.4.5 8.1h.1c1.1.5 8 3 8 2.9z" class="st18"/><path d="M119.2 111.8c0 .9-.1 1.7-.1 2.6.8.5 1.5 1.2 2.1 2.1.5.9.8 1.9.6 3-.2 1.5-1.2 2.6-2.5 3.4 0 .5.1 1.1.1 1.6 1.1 14.1 5.1 27.1 13.3 33 14.6 10.5 16.6-23.7 13.7-48 1.8-1.6 3.5-3.4 4.9-5.4 4.3-6 8.1-5 10.8-1.5.2.3.5.6.7 1l.1.1v-1.9c0-7.9-2.1-18.7-5.7-26.9-2.9 2.6-7.6 4.4-12 5.6.9.5 1.8 1.2 2.6 2 4.3 4.6 3.6 9.4 2.6 15.1-1.6-7.1-3.2-14.5-10.3-13.9 4.2 5.4 5.5 11.1 4.9 16.2.3-.2.7-.2 1-.1.8.1 1.3.9 1.1 1.6-2.5 8.7-8.5 19.4-19.3 16.4-1.1-.3-2-.8-2.8-1.3-1.7-.5-3.3-1.4-4.3-2.8v1.2l-2.1-5.5c-.4-1.8-.6-3.7-.5-5.6-.7 3.1-.1 5.8 1.1 8zm-47.5-9.1c-.7-5.2 8.4-16.7 22-16.5 10.7.2 24.4 2.7 24.8 13.4 1-5.2 3.4-10.2 6.7-13.9.7-.8 1.4-1.5 2.2-2.1-3.5.4-7.1.8-10.6 1-7.3.5-14.6.8-21.9.8s-14.6-.2-21.9-.8c-3.5-.3-7.1-.6-10.6-1 .8.7 1.6 1.4 2.2 2.1 4.2 4.7 7.1 11.8 7.1 18.6.1-.5.1-1 0-1.6zm-47.6 10l.1.1c.5-3.6 1-7 1.6-10 2.2-11.9 5-17.3 11.6-5.6 1.9 3.4 4.2 6.4 6.7 9-3.5 24.3-2 62.2 13.2 51.2 7.9-5.7 11.9-18 13.2-31.4.1-.6.1-1.1.1-1.7-.1 0-.2 0-.3-.1-1.8-.5-3.4-1.4-3.8-3.4-.3-1.7.5-2.9 1.5-4.1.7-.9 1.8-1.3 2.9-1.6 0-1.5-.1-3-.2-4.6l-1.6 4.3v-1.1c-.9 1.1-2.1 1.9-3.5 2.5-.9.6-1.9 1.1-3.2 1.5-10.8 3-16.8-7.7-19.3-16.4-.2-.7.3-1.5 1.1-1.6.2-.1.5-.1.7 0-.5-5.1.8-10.7 5-16-7.3-.7-8.9 6.7-10.5 13.8-1-5.7-1.7-10.5 2.6-15.1.8-.8 1.6-1.5 2.5-2-4.8-1.3-9.8-3.2-12.6-6.2-4 8-7.1 19.3-6.9 24.9v.1c.1 4.1 0 7.5-.4 10.5-.1 1-.3 2.1-.5 3z" class="st16"/><path d="M133.8 116s-.1 0-.2.1c1.7-.5 3.2-1.5 4.4-2.8-1.2 1.1-2.7 2.1-4.2 2.7z" class="st16"/><path d="M61.8 91.8c-1.4.7-1.5 3.5-.2 6.4 1.3 2.9 3.5 4.7 4.9 4.1 1.4-.6 1.5-3.5.2-6.4-1.3-2.9-3.5-4.7-4.9-4.1zm61.3 10.5c1.4.6 3.6-1.2 4.9-4.1 1.3-2.9 1.2-5.7-.2-6.4-1.4-.6-3.6 1.2-4.9 4.1-1.3 2.9-1.2 5.8.2 6.4z" class="st15"/><path d="M70.2 49.4c3.4-6.8.4-20-5-30-1.6.7-3.1 1.6-4.6 2.4 2.3 6.3 7.7 20.4 6.4 21.1l-.6.3-2.6-6.2c1.1 2.7 1.9 4.8 2 5.6-1.4-1.8-8.8-17.9-10.3-21.1-.1-.2-.1-.3-.1-.4-4.4 2.2-6.2 4.9-6.2 4.9 3.2 6.9 6.7 13.6 10.3 20.5-2.4-1.9-8-10.4-11-15.5-8.5 8.3-12.3 19.7-14 28.3 11.9.4 32.5-3.8 35.7-9.9zm86.1 15zm.1 1.2zm-.3-2.4zm-.2-1.2z" class="st13"/><path d="M70.2 49.4c-3.2 6.1-23.8 10.3-35.7 9.8h-.1c-.6 3-.9 5.6-1.1 7.6 1.3-.6 2.6-1.1 4-1.6 0 0 0-.1.1-.1.2-.2.6-.3 1-.2 10.4-3.8 23.9-6.5 38.3-7.8-.9-12-2.8-26.8-6.2-33-1-1.9-2.1-3.7-3.1-5.6-.7.3-1.3.6-2 .9 5.2 10 8.2 23.2 4.8 30zm46.7 0c-1.3-2.5-1.7-5.9-1.4-9.7-.5 2-.9 4.1-1.1 6.1-.4 3.7-.7 7.5-1 11.2 16.8 1.5 32.3 5 43.1 9.8 0-.3-.1-.7-.1-1v-.2c0-.3-.1-.6-.1-.9v-.2c0-.3-.1-.7-.1-1v-.2c-.1-.4-.1-.8-.2-1.2V62c-.2-.9-.3-1.9-.5-3-11.1 1.3-35.2-3-38.6-9.6zm2.7-25.3c-.5.9-.9 2-1.2 3.2.4-1.1.8-2.2 1.2-3.2z" class="st14"/><path d="M120.2 11.9C110.9 24 112 24 110.5 39.6c-.5 5.7-.9 11.4-1.6 17.1.7 0 1.4.1 2.1.2.8-12.2 2.5-28.6 5.7-34.4l5.4-9.6c-.6-.4-1.2-.8-1.9-1zm-3.2-.7c.2-.3.4-.5.6-.8-.3-.2-.7-.3-1-.4.3.3.5.7.4 1.2zm-4.6-3c-7.1-2.6-14.4-3.6-21.7-3 7.3-.4 14.8.8 21.7 3z" class="st13"/><path d="M114.4 12.6C104.6 8.5 92.5 6.7 82 9.2c0 0-5.6 1.4-7.3 1.9 1.2 2.7 4.5 5.7 6.2 12.1.9 3.5 1.1 10.8.9 17.1.5 1.6 1 2.9 1.8 4 .9 1.3 2.2 2.2 4 2.9 1.3.5 2.8.8 4.7 1 4.6.5 7.6.1 9.4-.8 1.7-.7 2.7-1.8 3.4-2.9.6-1 1-2.1 1.3-3.1.9-2.7 1.1-8.2 2.9-13.9-.2 1.9-.3 3.9-.4 6.5.5-10 .8-12.5 7.1-21.4-.5.3-1.1.3-1.6 0zm-42.1-2.2c0-.1.1-.1.1-.2-.3.1-.6.3-.9.4.9 1.2 1.7 2.4 2.4 3.4-1-1.6-1.7-3-1.6-3.6zm.6 12c3.3 5.8 4.9 22.3 5.7 34.5.5 0 1-.1 1.5-.1-.7-5.7-1.1-11.5-1.6-17.2C77 24.1 78.2 24 68.9 12c-.5.3-.9.5-1.4.8l5.4 9.6zm18.9 33.8h-.3.3zm3.3 0h.2-.2z" class="st13"/><path d="M80.9 51.9v-4.3c0-1-.1-2.1-.1-3.1v-1.1c-.2-3.4-.4-6.9-.6-10.3-.2-4.2-.3-8.4-2.2-12.6-.4-.8-1-1.8-1.8-3 3.9 6.5 3.6 9.8 4.2 21.9.3 5.8.5 11.6.2 17.3.8-.1 1.6-.1 2.4-.2-.8 0-1.5.1-2.3.1.1-1.5.2-3.1.2-4.7zm-24.1-31l-.1-.3s-.1 0-.1.1c.1 0 .2.1.2.2zm65.8 24.5c1.8-4.4 2.9-7.1 3.6-8.9l-3 6.9c-2.2-1.6 3.4-15.3 5.9-21.6-2.1-1.2-4.3-2.3-6.5-3.2-1 1.8-2.1 3.7-3.1 5.5-.5 1.1-.9 2.1-1.3 3.2-.5 1.8-1 3.8-1.3 5.3-.4 2.3-1 4.7-1.6 7.1-.3 3.8.1 7.2 1.4 9.7 3.4 6.6 27.5 10.9 38.5 9.6-1.7-8.5-5.5-19.7-13.9-28-3.3 6.2-9.8 17.4-11.7 16.3 3.8-7.1 7.4-14.1 10.8-21.3 0 0-1.7-2.6-6.1-4.8-7.5 16.2-3.6 8.2-11.7 24.2z" class="st13"/><path d="M44.2 99.7c-.8.1-1.3.9-1.1 1.6 2.5 8.7 8.5 19.4 19.3 16.4 1.3-.4 2.3-.9 3.2-1.5 1.4-1 2.3-2.4 3-4.3-1.9 2.3-3.3 3.8-6.5 4.4-9.7 1.9-14.3-7.8-16.2-15.6-.1-.5-.5-.9-1-1-.2-.1-.5-.1-.7 0z" class="st10"/><path d="M156.8 70.3c-1.7-.8-3.5-1.5-5.2-2.3-2.1 2.4-6.6 4.4-12.7 6-8.5 2.4-18.9 3.5-25.9 4-3 .2-5.5.2-8 .2-5.6.2-11.4.2-17 .1-8.3.1-19.5-.9-27.4-2.3-10.9-1.7-19.2-4.4-22.3-7.9-1.8.7-3.6 1.5-5.2 2.3 6.1 15.8 117.6 15.8 123.7-.1z" class="st14"/><path d="M61.1 61.4c15.1-2.7 33.6-3.9 44.1-2.3-17.9.3-43.5 2.2-60.1 8.5-.6.2-1.2 0-1.4-.6-.2-.4-.1-.7 0-1-.8.3-1.6.6-2.4.8 13.7 9 33.2 9.2 48.9 10.6l3.6.4c7.2.1 24-1.8 31.4-3.1 8.6-1.5 16-3.1 22.9-8.1-25.1-9-58.6-10.7-87-5.2zM105 78.2c-3.6 0-6.9-.2-11.1-.3l-3.6.3c-.7 0-1.5.1-2.3.1 5.7.1 11.4.1 17-.1zM151.6 68c-.1-.1-.2-.1-.3-.2l-3.2 2.4c-2.5 1.5-5.7 2.7-9.1 3.7 6-1.4 10.5-3.4 12.6-5.9zm-91 8c-.2 0-.4-.1-.5-.1-8.7-1.5-14.5-3-21.6-8-.1 0-.1 0-.2.1 3.1 3.6 11.4 6.3 22.3 8z" class="st13"/><path d="M147.1 101.3c.2-.7-.3-1.5-1.1-1.6-.4-.1-.7 0-1 .1-.3.2-.6.5-.7.9-1.1 4.4-3 9.4-6.2 12.6-1.3 1.3-2.7 2.2-4.4 2.8-1.6.5-3.5.7-5.5.2-3.2-.6-4.6-2.1-6.5-4.4.7 2.1 1.8 3.5 3.4 4.5.8.5 1.7.9 2.8 1.3 10.7 3 16.7-7.7 19.2-16.4z" class="st10"/><path d="M43.7 67c.2.6.8.8 1.4.6 16.6-6.3 42.2-8.2 60.1-8.5-10.5-1.6-29-.3-44.1 2.3-6.6 1.2-12.5 2.6-16.9 4.2-.2.1-.3.2-.5.4-.1.3-.2.6 0 1zm11.8-45.4c1.5 3.2 8.9 19.3 10.3 21.1-.1-.7-.9-2.9-2-5.6-2.3-5.7-5.9-14-6.9-16.1 0 0 0-.1-.1-.1-.1-.1-.1-.2-.2-.2-.2-.1-.4-.2-.7-.1-.2.1-.4.3-.5.6 0 .1 0 .2.1.4zm78.5-1.4c-.4-.2-.8 0-1 .4-5.2 12-4.7 10.8-6.8 15.9-.7 1.8-1.8 4.5-3.6 8.9 8.1-16 4.2-8 11.9-24.2.2-.4 0-.9-.5-1z" class="st15"/><path d="M92.7 138.8l2.1 2.2 2.3-2.1c5.3-5.1 7.5-11.9 15.5-13.8 1.9-.4 4.7-1 6.7-2.2 1.3-.8 2.3-1.9 2.5-3.4.2-1.1-.1-2.1-.6-3-.5-1-1.3-1.6-2.1-2.1-1.6-.9-3.5-1.2-5.5-1.2-.6 0-2.5.1-3-.1-1.1-.5-2.2-2.5-2.8-3.5-1.3-2.3-2.5-4.8-3.9-7.1C102 99.3 99.1 95 95 95c-4.1 0-7 4.3-9 7.4-1.9 3.1-6.2 9.6-9.4 11.7-.8.2-2.1.3-2.8.4-.9.1-1.9.3-2.9.6-1.1.3-2.2.8-2.9 1.6-1 1.2-1.8 2.4-1.5 4.1.4 2 2 2.9 3.8 3.4.1 0 .2 0 .3.1 1.6.4 3.5.5 5.2.7 7.1.7 12.4 9 16.9 13.8zm2.4-2.1c-4.7-4.9-10.3-14-18.9-14.8h-.1c-1.7-.5-2.9-1.8-1-2.1 5.8 1.5 8.9 2.8 12.8 6.5 2.6 2.8 4.7 6 7.1 8.5 2.3-2.4 4.3-5.4 6.8-8.1 3.1-2.7 6-4.3 10.7-6.4.9-.1 1.5-.2 1.8 0 .6.4.1 1.1-1 1.7l-1.2.3c-9.3 2.1-12.1 9.9-17 14.4zm6.3-32.6c3 4.8 4.8 10.1 7.9 11.8 2.1 1.1 6.4-.3 8.6 1.4-.8.1-1.7.3-2.5.6-5.9 1.1-11.2 4.1-15.9 7.9-1 0-1.7-1.5-4.4-5.3-2.5 3.5-3.3 5.1-4.2 5.3-4.6-4.2-8.5-5.9-14.9-6.6-1.2-.4-3.1-.8-4.9-.8 1.8-.7 6.2-.9 7-1.3 2.4-1.4 6.1-5.5 10.7-12.9 4.8-8.1 7.6-8.1 12.6-.1z" class="st11"/><path d="M88.7 104.1c-4.6 7.4-8.3 11.5-10.7 12.9-.8.4-5.2.6-7 1.3 1.8 0 3.7.4 4.9.8 6.4.7 10.3 2.4 14.9 6.6.9-.2 1.7-1.8 4.2-5.3 2.7 3.8 3.4 5.3 4.4 5.3 4.7-3.8 10-6.8 15.9-7.9.9-.3 1.8-.5 2.5-.6-2.2-1.7-6.5-.3-8.6-1.4-3.1-1.7-4.9-7-7.9-11.8-4.9-7.9-7.7-7.9-12.6.1zm9.4 2.2c1.3 2.4 4 5 2.4 6.2-1.6 1.1-4.2-7.9-2.4-6.2zm-8.6 6.2c-1.6-1.2 1.1-3.8 2.4-6.2 1.7-1.7-.8 7.3-2.4 6.2zm-5 2.6c-.3.5-1 .7-1.5.4-.5-.4-.6-1-.3-1.5 3.3-5.1 6.3-10.5 10.4-14.9-2.7 5.4-5.7 10.7-8.6 16z" class="st13"/><path d="M113.3 121.9c1.1-.6 1.6-1.3 1-1.7-.2-.2-.9-.1-1.8 0-4.8 2.1-7.6 3.7-10.7 6.4-2.5 2.7-4.6 5.7-6.8 8.1-2.4-2.5-4.5-5.7-7.1-8.5-4-3.8-7-5-12.8-6.5-1.9.2-.7 1.5 1 2.1h.1c8.6.8 14.2 9.9 18.9 14.8 4.9-4.5 7.7-12.3 17-14.5.4 0 .8-.1 1.2-.2z" class="st13"/><path d="M91.9 106.3c-1.3 2.4-4 5-2.4 6.2 1.6 1.1 4.1-7.9 2.4-6.2zm8.6 6.2c1.6-1.2-1.1-3.8-2.4-6.2-1.8-1.7.8 7.3 2.4 6.2z" class="st11"/><path d="M83 115.5c.5.3 1.2.1 1.5-.4 2.9-5.3 5.9-10.6 8.6-16-4.1 4.4-7.1 9.8-10.4 14.9-.3.5-.2 1.1.3 1.5z" class="st15"/><path d="M69.9 168.6c1.7 2 1.8 2 3.2 0 1.3-1.9 3.2-5.4 2.7-9.6-.2-1.6-.6-2.1-1.2-2-.2 2.5-1.2 4.8-2.5 6.9-.1.2-.3.5-.5.8-.2-.2-.6-.6-.7-.8-1.6-1.9-3-4.1-3.7-6.5-1-.8-1.9-.7-1.7 1.6.2 4.2 2.7 7.7 4.4 9.6zm21.4 6.9c1.4 2 1.6 2 3.2 0 1.5-1.9 3.8-5.4 3.9-9.6 0-2.1-.7-2.3-1.6-1.7-.5 2.4-1.8 4.6-3.3 6.5-.1.1-.4.5-.7.8-.2-.3-.5-.7-.6-.8-1.4-2-2.6-4.3-2.9-6.8-.6-.1-1.1.4-1.2 2-.3 4.2 1.8 7.7 3.2 9.6zm24.6-6.9c1.7-1.9 4.5-5.4 5-9.6.3-2.6-.8-2.3-2.1-1.2-.9 2.2-2.4 4.3-3.9 6-.1.2-.5.6-.8.9-.1-.3-.3-.6-.4-.7-1.3-2.2-2.1-4.5-2.1-7-.4.1-.8.7-1 2-.8 4.2.9 7.7 2.1 9.6 1.1 2.1 1.3 2 3.2 0z" class="st16"/><path d="M106.4 41.4c-.3 1-.7 2.1-1.3 3.1-.7 1.1-1.7 2.2-3.4 2.9-1.8.9-4.8 1.3-9.4.8-1.9-.2-3.4-.5-4.7-1-1.8-.7-3.1-1.6-4-2.9-.8-1.1-1.4-2.4-1.8-4-.1 3.7-.4 7-.8 9.1 0-1.9-.1-4-.2-6v1.1c0 1 .1 2.1.1 3.1v4.3c0 1.6-.1 3.2-.2 4.8.8 0 1.5-.1 2.3-.1 2.8-.2 5.6-.3 8.4-.3h3.7c4.5 0 8.9.2 13.3.5-.1-1.5-.1-3-.2-4.5V48c0-1 .1-2.1.1-3.1.1-1.8.2-3.5.2-5.3.1-2.1.2-3.9.3-5.5.1-2.6.2-4.7.4-6.5-1.7 5.6-1.9 11.1-2.8 13.8z" class="st14"/><path d="M73.9 14c.7 1.1 1.5 2.4 2.3 3.5.8 1.2 1.4 2.2 1.8 3 1.9 4.2 2 8.4 2.2 12.6.2 3.4.4 6.9.6 10.3.1 2.1.2 4.1.2 6 .4-2.1.6-5.4.8-9.1.2-6.3 0-13.6-.9-17.1-1.7-6.4-5-9.4-6.2-12.1 1.7-.5 7.3-1.9 7.3-1.9 10.5-2.5 22.6-.7 32.4 3.4.5.3 1.1.3 1.6.1.3-.2.6-.4.8-.8.1-.2.2-.5.2-.7 0-.4-.1-.9-.4-1.2l-.4-.4c-1.2-.5-2.5-1-3.8-1.4-6.9-2.2-14.4-3.4-21.7-3-3.2.2-6.4.7-9.5 1.5-1.3.4-8 1.7-8.8 3.5 0 .1-.1.1-.1.2-.1.6.6 2 1.6 3.6z" class="st15"/></g><path d="M138.6 164.9c6.4 2.2 15 5.3 19 11.2-8-5.3-10.2-6.3-19.6-9.1-.6-.2-.9-.8-.7-1.3.1-.6.7-.9 1.3-.8zm-5.4 1.5c1.3.9 10 7 9.9 8.3-.5-.1-10-5.8-11.1-6.4-.5-.3-.7-1-.3-1.5.3-.5 1-.7 1.5-.4zm-83.5-1.5c-6.4 2.2-15 5.3-19 11.2 8-5.3 10.2-6.3 19.6-9.1.6-.2.9-.8.7-1.3-.1-.6-.7-.9-1.3-.8zm5.4 1.5c-1.3.9-10 7-9.9 8.3.5-.1 10-5.8 11.1-6.4.5-.3.7-1 .3-1.5-.3-.5-1-.7-1.5-.4z" class="st0"/><g><path d="M248.9 253.7V83h90.2v29h-59.4v36.9h54.6v29h-54.6v75.9l-30.8-.1zm212.3 0h-69.9c-2.9.2-5.3-.3-7.2-1.4-1.9-1.1-3.5-2.5-4.8-4.1s-2.2-3.3-2.8-5.1c-.6-1.8-.8-3.5-.8-4.9V83h30.9v141.9h54.6v28.8zm30.6-15.6V83H582v29h-59.4v36.9h54.6v29h-54.6v46.9H582v29h-74.7c-2.9 0-5.3-.6-7.2-1.7-1.9-1.1-3.5-2.5-4.8-4.1s-2.2-3.3-2.8-5c-.4-1.9-.7-3.5-.7-4.9zm128.1 15.6V84.2l91.4-1.2c4.8 0 8.4 1.5 10.9 4.4 2.5 3 3.7 6 3.7 9.2v133.6c0 2.7-.6 5.2-1.8 7.4s-2.8 4-4.9 5.3l-20.8 12.7c-2.2 1.4-5.7 2.2-10.3 2.2-1.3 0-2.7-.2-4.3-.5l-36.1-11-2.4 7.4h-25.4zm65.8-23l9.3-5.7V110.5h-44.3V222l35 8.7zm80.4-8.4V98.6c0-1.4.3-3.1.8-4.9.6-1.8 1.5-3.5 2.8-5.1s2.9-3 4.8-4.1c1.9-1.1 4.3-1.6 7.2-1.4h86.7l-2.4 48.6h-27.8v-21.1H797v107l16 10.5 25.1-14.1v-38.1h-23.9v-27H869v70.4c-.5 6.2-3 10.6-7.7 13.2l-41.9 23.9c-2.4 1.1-4.7 1.7-6.9 1.7-3 0-5.4-.6-7.2-1.7L772.8 235c-2.1-1.3-3.7-3-4.9-5.3-1.2-2.2-1.8-4.7-1.8-7.4zm143.7 15.8V83h90.2v29h-59.4v36.9h54.6v29h-54.6v46.9h59.4v29h-74.7c-2.9 0-5.3-.6-7.2-1.7-1.9-1.1-3.5-2.5-4.8-4.1s-2.2-3.3-2.8-5c-.5-1.9-.7-3.5-.7-4.9z" class="st10"/></g></svg>