<svg xmlns="http://www.w3.org/2000/svg" role="img" viewBox="68.10 68.10 2698.80 463.80"><title>Flexnode (member) logo</title><path fill="#A2927D" d="M601.318 402.145h14.976v-91.296h114.048v-13.824H616.294v-82.656h127.008v-13.824H601.318v201.6zm261 0h133.344v-13.824H877.294V200.545h-14.976v201.6zm250.312 0h144.86v-13.824h-129.88v-80.928h115.48v-13.824h-115.48v-79.2h128.44v-13.824h-143.42v201.6zm249.67 0h17.57l71.43-93.024 71.71 93.024h17.85l-80.06-103.104 77.18-98.496h-17.56l-68.55 88.704-68.83-88.704h-17.86l77.48 98.784-80.36 102.816zm295.11 0h14.4V223.009l141.99 179.136h11.23v-201.6h-14.4v175.392l-139.11-175.392h-14.11v201.6zm391.69 3.456c61.06 0 101.67-49.248 101.67-104.256.29-.288.29-.288 0-.576 0-55.008-40.03-103.68-101.09-103.68s-101.66 49.248-101.66 104.256v.576c0 55.008 40.03 103.68 101.08 103.68zm.58-13.536c-49.82 0-86.11-40.896-86.11-90.72v-.576c0-49.824 35.71-90.144 85.53-90.144 49.83 0 86.12 40.896 86.12 90.72v.576c0 49.824-35.72 90.144-85.54 90.144zm223.95 10.08h67.1c63.36 0 107.14-44.064 107.14-100.8v-.576c0-56.736-43.78-100.224-107.14-100.224h-67.1v201.6zm14.98-13.824V214.369h52.12c56.16 0 91.59 39.168 91.59 86.976v.576c0 48.096-35.43 86.4-91.59 86.4h-52.12zm282.3 13.824h144.87v-13.824h-129.89v-80.928h115.49v-13.824h-115.49v-79.2h128.45v-13.824h-143.43v201.6z"/><path fill="#848E8F" fill-rule="evenodd" d="M458.48 152.748s-40.794 40.796-42.961 42.962c-5.031 5.031-15.987 17.904-19.522 36.474-2.891 15.189-.672 27.435-.672 27.435l63.805-63.804c1.385-1.385 7.386-8.999 7.989-19.655.603-10.657-4.431-19.203-8.639-23.412zm-41.309 148.096l42.072-42.072c8.402-8.379 14.235-18.607 17.905-29.863 3.67-11.256 4.265-22.881 2.583-34.403l-84.449 84.449 21.889 21.889zM142.846 449.051s40.794-40.796 42.961-42.962c5.031-5.032 15.987-17.904 19.522-36.474 2.891-15.189.672-27.436.672-27.436l-63.804 63.804c-1.386 1.386-7.387 8.999-7.99 19.656-.603 10.657 4.431 19.203 8.639 23.412zm41.309-148.097l-42.072 42.072c-8.401 8.379-14.234 18.607-17.904 29.864-3.671 11.256-4.266 22.88-2.584 34.403l84.449-84.449-21.889-21.89zm-31.641-157.87s40.795 40.794 42.962 42.96c5.031 5.031 17.904 15.988 36.474 19.522 15.188 2.892 27.435.672 27.435.672l-63.804-63.804c-1.385-1.385-8.999-7.386-19.655-7.99-10.657-.603-19.204 4.431-23.412 8.64zm148.096 41.308l-42.072-42.072c-8.379-8.401-18.607-14.234-29.863-17.904s-22.881-4.265-34.404-2.583l84.449 84.449 21.89-21.89zm148.202 274.323s-40.795-40.794-42.962-42.961c-5.031-5.031-17.904-15.987-36.474-19.522-15.188-2.891-27.435-.671-27.435-.671l63.804 63.804c1.385 1.385 8.999 7.386 19.656 7.989 10.656.604 19.203-4.431 23.411-8.639zm-148.096-41.309l42.072 42.073c8.379 8.401 18.607 14.234 29.863 17.904s22.881 4.265 34.404 2.583l-84.449-84.449-21.89 21.889z" clip-rule="evenodd"/><path fill="#D77C07" fill-rule="evenodd" d="M384.925 226.305s-7.499 7.499-8.219 18.884c-.719 11.385 4.109 19.297 8.888 24.076l73.082 73.082c8.382 8.389 14.604 18.543 18.255 29.798 3.651 11.256 4.691 23.482 2.819 35.161L363.028 290.584c-5.148-5.148-8.48-12.905-8.529-21.019-.05-8.115 3.569-16.403 8.272-21.106m-146.37 127.035s7.499-7.499 8.219-18.884c.719-11.386-4.108-19.297-8.888-24.076l-73.082-73.082c-8.382-8.39-14.604-18.543-18.255-29.799s-4.691-23.481-2.819-35.161l116.722 116.722c5.148 5.148 8.48 12.905 8.53 21.02.049 8.115-3.569 16.402-8.273 21.105m-12.484-136.701s7.499 7.499 18.884 8.219c11.385.72 19.296-4.108 24.076-8.887 4.779-4.779 73.082-73.083 73.082-73.083 8.389-8.382 18.543-14.603 29.798-18.254 11.256-3.652 23.482-4.692 35.161-2.82L290.35 238.535c-5.148 5.148-12.905 8.481-21.019 8.53-8.115.049-16.403-3.569-21.106-8.272m127.03 146.367s-7.499-7.499-18.884-8.218c-11.385-.72-19.296 4.108-24.076 8.887l-73.082 73.082c-8.389 8.382-18.542 14.604-29.798 18.255-11.256 3.651-23.482 4.691-35.161 2.819l116.722-116.722c5.148-5.148 12.905-8.48 21.019-8.529 8.115-.05 16.403 3.569 21.106 8.272" clip-rule="evenodd"/><path fill="#D77C07" d="M363.433 354.005l95.044 95.044c4.146-4.145 8.783-10.817 9.164-20.831.38-10.014-4.343-18.023-8.557-22.237L342.451 289.348c-1.456 9.074-1.241 20.433 1.945 32.011 3.186 11.577 9.689 23.298 19.037 32.646zM237.894 247.794l-95.045-95.045c-4.146 4.145-8.783 10.817-9.164 20.832-.38 10.014 4.344 18.023 8.557 22.237L258.875 312.45c1.457-9.074 1.241-20.433-1.945-32.01-3.186-11.578-9.689-23.299-19.036-32.646zm115.877-9.663l95.044-95.045c-4.145-4.145-10.817-8.783-20.831-9.163-10.014-.381-18.023 4.343-22.237 8.557L289.114 259.112c9.074 1.457 20.433 1.241 32.011-1.945 11.577-3.185 23.298-9.689 32.646-19.036zM247.556 363.668l-95.045 95.045c4.145 4.145 10.817 8.782 20.831 9.163 10.014.38 18.024-4.343 22.237-8.557l116.633-116.633c-9.074-1.456-20.433-1.241-32.011 1.945-11.577 3.186-23.298 9.69-32.645 19.037z"/></svg>