<svg xmlns="http://www.w3.org/2000/svg" role="img" viewBox="-6.09 -5.09 810.68 226.18"><defs><style>.cls-1{fill:#e65625}</style></defs><path d="M369.839 182.716c0-18.818.045-37.637-.047-56.455-.014-2.935 1.216-3.693 3.888-3.68q21.997.107 43.994-.005c2.91-.017 3.685 1.199 3.64 3.913-.13 7.664.07 15.333-.096 22.995-.066 3.046.956 4.121 4.012 4.02 5.66-.187 11.332-.15 16.995-.015 2.729.064 3.848-.813 3.84-3.689q-.114-35.995-.006-71.99c.006-2.64-.64-4.013-3.621-3.932q-8.743.236-17.496 0c-2.86-.074-3.767 1.061-3.71 3.817.132 6.496-.126 13.003.107 19.494.117 3.268-.972 4.469-4.217 4.44q-21.495-.195-42.993-.127c-3.159.01-4.464-1.06-4.352-4.38.208-6.158-.136-12.337.123-18.492.16-3.815-1.291-4.954-4.935-4.78a136.814 136.814 0 0 1-15.49-.019c-4.2-.275-5.037 1.584-5.022 5.283q.154 37.245-.027 74.49c-.01 2.175 1.598 5.607-1.83 6.352-3.475.756-5.918-1.715-7.494-4.694a13.123 13.123 0 0 1-1.208-6.305c.038-23.997.008-47.994.034-71.99.007-6.49 3.182-10.503 9.539-11.338 19.117-2.513 38.264-4.799 57.397-7.192q33.652-4.209 67.3-8.45 29.932-3.768 59.862-7.556 33.892-4.29 67.783-8.59 33.643-4.237 67.292-8.421 33.89-4.275 67.771-8.621c16.322-2.078 32.635-4.237 48.973-6.182 3.894-.463 6.63 1.813 8.32 5.219a14.93 14.93 0 0 1 1.124 6.826q-.038 85.489-.001 170.977c0 2.358-.024 4.703-1.106 6.828-1.916 3.76-4.86 5.742-9.285 5.182q-50.95-6.446-101.907-12.847c-35.616-4.524-71.218-9.168-106.839-13.66-30.511-3.846-61.043-7.536-91.562-11.322-18.641-2.312-37.24-5.036-55.928-6.863-9.578-.937-19.31-.256-28.969-.428-2.486-.044-3.96 1.224-5.437 2.924-5.758 6.629-11.587 13.196-17.389 19.786zm384.949-49.14q-19.944-28.05-39.892-56.097c-1.234-1.735-2.217-3.616-4.933-3.592-11.492.098-22.986.073-34.478.02-2.356-.011-3.217.966-3.213 3.277q.06 36.477-.001 72.955c-.004 2.261.724 3.359 3.144 3.326q9.243-.124 18.488.01c2.37.038 3.322-.978 3.301-3.234-.175-18.881.84-37.784-.653-56.34 13.135 18.473 26.571 37.286 39.88 56.188a7.055 7.055 0 0 0 6.565 3.43c10.657-.165 21.32-.151 31.979-.016 3.016.038 4.054-.93 4.041-3.997q-.144-35.727.01-71.455c.016-3.38-1.25-4.296-4.392-4.187-5.324.186-10.667.234-15.986-.014-3.558-.167-4.535 1.187-4.49 4.6.162 12.491-.024 24.985.1 37.477.057 5.785-.847 11.644.53 17.65zM509.18 72.87c-11.818.004-21.283.086-30.762.977-16.86 1.585-21.608 6.317-23.215 23.143a201.164 201.164 0 0 0 .078 37.382c.939 10.393 5.631 16.309 16.042 18.069 18.328 3.098 36.831 2.301 55.292 1.41a112.451 112.451 0 0 0 17.778-2.294c7.1-1.496 11.097-5.695 12.421-12.58a130.713 130.713 0 0 0 .23-49.105c-1.97-10.504-5.303-13.066-15.867-14.989-11.372-2.07-22.837-2.178-31.997-2.013zm142.579 46.583c7.785-4.135 9.66-10.337 10.07-17.266.148-2.49.096-4.993.059-7.489-.205-13.646-6.957-20.655-20.645-20.761-23.47-.183-46.941-.024-70.411-.138-3.182-.015-4.435.905-4.421 4.224q.141 35.454.012 70.91c-.01 3.048.8 4.638 4.215 4.526a257.2 257.2 0 0 1 16.975 0c3.379.112 4.345-1.372 4.226-4.479-.16-4.155.254-8.347-.11-12.476-.382-4.34 1.38-5.275 5.388-5.174 10.314.26 20.639.063 30.959.097 6.303.021 8.716 2.282 9.033 8.582.166 3.321.106 6.658.04 9.985-.043 2.197.623 3.45 3.095 3.421q9.237-.108 18.476.003c2.354.028 3.254-.97 3.208-3.282-.086-4.326-.236-8.67.035-12.98.488-7.764-1.033-14.334-10.205-17.703z" class="cls-1"/><path d="M272.514 74.285c10.902.17 21.224.325 31.474 1.746 12.195 1.69 15.826 5.43 17.433 17.875 1.3 10.069 1.3 10.069-8.87 10.068-2.665 0-5.33-.018-7.994.005-3.593.03-7.393.856-7.471-4.959-.034-2.542-2.7-3.626-5.217-3.762-12.647-.681-25.31-1.034-37.933.152-7.111.668-8.618 2.621-9.456 9.796a83.143 83.143 0 0 0 .118 20.43c.786 6.044 2.563 7.893 8.465 8.534a205.344 205.344 0 0 0 38.9.241c2.072-.168 3.917-.552 5.008-2.637 1.69-3.226.796-4.942-2.882-4.982-6.993-.076-13.994-.196-20.98.041-3.744.128-5.254-.75-5.214-4.924.122-12.691-.067-12.693 12.72-12.692 12.156 0 24.315.125 36.469-.078 3.568-.06 5.103.678 4.84 4.611-.544 8.13.023 16.31-1.217 24.423-1.43 9.366-6.378 14.917-15.926 15.743-22.59 1.955-45.225 2.5-67.755-.866-9.98-1.492-13.57-5.063-15.287-14.98a140.296 140.296 0 0 1-.035-46.718c1.319-8.125 5.553-13.03 14.075-14.485 12.382-2.114 24.83-2.404 36.736-2.582zm-114.976-.023c12.31.291 24.604.476 36.775 2.836 7.264 1.408 11.576 5.457 12.937 12.622a134.917 134.917 0 0 1 .065 50.112c-1.274 6.89-5.206 11.113-12.378 12.554a131.947 131.947 0 0 1-22.279 2.524c-14.97.427-29.946.563-44.906-.73-14.577-1.26-20.138-6.67-21.292-21.117-1.102-13.809-1.19-27.563 1.035-41.307 1.36-8.402 5.542-13.355 14.248-14.852 11.877-2.041 23.82-2.351 35.795-2.642zm-.053 60.999c6.076-.367 12.07-.586 18.036-1.125 6.785-.614 8.242-2.202 9.236-8.838a76.87 76.87 0 0 0-.09-21.9c-.614-4.512-2.626-7.309-7.501-7.774a208.971 208.971 0 0 0-38.883-.026c-5.114.464-7.127 3.475-7.76 8.14a84.818 84.818 0 0 0-.054 21.91c.654 5.304 3.358 8.113 8.644 8.46 6.145.403 12.293.773 18.372 1.153zM51.827 75.433c12.488 0 24.978.084 37.465-.06 3.117-.035 4.55.658 4.297 4.11a82.099 82.099 0 0 0 0 11.98c.259 3.544-1.01 4.492-4.477 4.457-16.65-.164-33.304.06-49.953-.164-4.208-.056-5.871.8-5.655 5.424.379 8.128.076 8.143 8.27 8.143 14.652 0 29.307.09 43.958-.067 3.353-.036 4.87.737 4.596 4.382a82.7 82.7 0 0 0-.007 11.48c.226 3.49-1.063 4.62-4.536 4.59-15.484-.14-30.973.101-46.455-.158-4.508-.075-6.2 1.087-5.803 5.773.42 4.96-.011 9.986.135 14.977.077 2.593-.378 3.984-3.473 3.865-5.82-.224-11.656-.161-17.48-.02-2.454.059-3.086-.885-3.08-3.198.062-23.978.103-47.956-.037-71.934-.02-3.477 1.634-3.63 4.27-3.614 12.654.077 25.31.035 37.965.034z"/><path d="M506.708 133.076c-6.788-.355-13.445.259-20.055-1.052-3.385-.67-5.426-2.236-6.01-5.636a75.875 75.875 0 0 1 .004-25.753c.586-3.445 2.562-5.195 6-5.567a193.418 193.418 0 0 1 40.285-.033c4.079.41 5.717 2.968 6.288 6.552a74.612 74.612 0 0 1 .014 23.844c-.625 3.848-2.592 5.98-6.778 6.692-6.639 1.129-13.278.54-19.748.953zm100.439-23.123c-5.985-.004-11.97-.056-17.954.022-2.23.03-3.55-.6-3.27-3.087.018-.164-.006-.332-.002-.498.262-13.629-2.06-11.016 10.665-11.243 8.808-.157 17.622-.09 26.431.003 6.716.07 8.348 1.664 8.299 7.633-.046 5.618-1.75 7.129-8.21 7.168-5.32.033-10.64.007-15.96.002z" class="cls-1"/></svg>