<svg xmlns="http://www.w3.org/2000/svg" role="img" viewBox="-14.24 -13.24 1312.48 673.48"><defs><style>.cls-1{fill:#a2acb4}.cls-2{fill:#495965}</style></defs><path d="M689.169 47.618l-121.089 212.8 39.251 69.371L728.118 116.37l-38.949-68.752z" class="cls-1"/><path d="M748.844 152.798L628.075 366.001l31.268 55.937h59.349l91.278-160.757.117-.201-61.243-108.182z" class="cls-2"/><path fill="#fff200" d="M552.304 50.657L443.127 243.169l94.658-.073L669.018 12.195 552.304 50.657z"/><path d="M618.247 421.938l-81.078-142.825-94.509-.13 80.903 142.955h94.684z" class="cls-1"/><path d="M11.261 503.163h103.022v26.997H42.578v25.486h60.694v24.623H42.578v52.484H11.261zm110.614 64.795c0-37.15 26.13-67.604 69.114-67.604 43.41 0 69.552 30.454 69.552 67.604s-26.142 67.604-69.552 67.604c-42.984 0-69.114-30.454-69.114-67.604zm106.261 0c0-22.464-16.196-37.369-37.147-37.369-20.52 0-36.716 14.905-36.716 37.369 0 22.462 16.197 37.366 36.716 37.366 20.95 0 37.147-14.904 37.147-37.366zm54.196-64.795h61.126c32.824 0 53.775 16.847 53.775 45.14 0 18.144-8.202 31.1-21.595 38.66v2.81l29.158 40.822v2.158h-35.639l-25.486-37.798h-30.022v37.798h-31.317zm59.825 26.997H313.65v38.88h28.727c14.47 0 22.464-6.484 22.464-19.44 0-12.527-8.207-19.44-22.683-19.44zm139.863 25.487h65.23v14.47c0 37.8-20.519 65.445-61.989 65.445-43.196 0-69.333-30.454-69.333-67.604s26.137-67.604 69.333-67.604c34.344 0 48.814 16.197 48.814 16.197l-18.573 23.76a52.603 52.603 0 0 0-30.673-9.935c-20.95 0-36.502 15.118-36.502 37.582 0 22.462 15.552 37.582 36.502 37.582 18.574 0 28.296-11.232 28.727-23.976v-1.294h-31.535zm176.764 24.623h-57.022v25.483h71.705v27H570.44v-129.59h103.027v26.997h-71.705v25.486h57.022zm40.244-77.107h61.126c32.83 0 53.781 16.847 53.781 45.14 0 18.144-8.207 31.1-21.601 38.66v2.81l29.158 40.822v2.158H785.86l-25.486-37.798H730.35v37.798h-31.323zm59.83 26.997h-28.507v38.88h28.72c14.476 0 22.465-6.484 22.465-19.44 0-12.527-8.207-19.44-22.677-19.44zm72.379 37.798c0-37.15 26.137-67.604 69.114-67.604 43.416 0 69.552 30.454 69.552 67.604s-26.136 67.604-69.552 67.604c-42.977 0-69.114-30.454-69.114-67.604zm106.267 0c0-22.464-16.202-37.369-37.153-37.369-20.519 0-36.715 14.905-36.715 37.369 0 22.462 16.196 37.366 36.715 37.366 20.951 0 37.153-14.904 37.153-37.366zm165.092 51.839s-14.47 15.765-46.219 15.765c-43.415 0-69.552-30.454-69.552-67.604s26.137-67.604 69.552-67.604c31.962 0 46.219 15.765 46.219 15.765l-17.924 23.978s-13.393-9.72-27.863-9.72c-22.033 0-37.585 15.117-37.585 37.581 0 22.462 15.552 37.582 37.585 37.582 18.36 0 27.863-9.722 27.863-9.722zm47.749-60.91l52.912-55.724h38.23v2.806l-49.89 52.918 49.89 70.844v3.022h-38.011c-11.448-16.847-22.459-33.91-33.694-50.973l-19.437 20.735v30.238h-31.323v-129.59h31.323zm112.953-57.643a10.56 10.56 0 0 1 5.116 1.333 9.631 9.631 0 0 1 3.851 3.824 10.391 10.391 0 0 1 .027 10.374 9.772 9.772 0 0 1-3.83 3.83 10.39 10.39 0 0 1-10.327 0 9.772 9.772 0 0 1-3.83-3.83 10.391 10.391 0 0 1 .026-10.374 9.631 9.631 0 0 1 3.851-3.824 10.56 10.56 0 0 1 5.116-1.333zm.014 2.03a8.457 8.457 0 0 0-4.101 1.07 7.762 7.762 0 0 0-3.093 3.072 8.365 8.365 0 0 0-.027 8.351 7.88 7.88 0 0 0 3.08 3.086 8.295 8.295 0 0 0 8.29 0 7.94 7.94 0 0 0 3.078-3.086 8.343 8.343 0 0 0-.02-8.35 7.75 7.75 0 0 0-3.1-3.073 8.495 8.495 0 0 0-4.107-1.07zm-4.697 13.887v-11.004h2.233q3.14 0 3.52.027a4.336 4.336 0 0 1 1.725.44 2.759 2.759 0 0 1 1.029 1.056 3.082 3.082 0 0 1 .413 1.577 2.902 2.902 0 0 1-.779 2.037 3.545 3.545 0 0 1-2.186 1.049 2.752 2.752 0 0 1 .772.413 5.505 5.505 0 0 1 .744.845q.122.163.812 1.34l1.3 2.22h-2.761l-.92-1.787a7.447 7.447 0 0 0-1.544-2.267 2.463 2.463 0 0 0-1.543-.467h-.582v4.521zm2.233-6.253h.907a11.028 11.028 0 0 0 2.403-.149 1.41 1.41 0 0 0 1.008-1.367 1.346 1.346 0 0 0-.264-.819 1.446 1.446 0 0 0-.751-.514 10.68 10.68 0 0 0-2.396-.156h-.907z" class="cls-2"/></svg>