<svg xmlns="http://www.w3.org/2000/svg" role="img" viewBox="92.87 53.99 143.39 43.52"><title>Foxconn Industrial Internet (member) logo</title><defs><clipPath id="a" clipPathUnits="userSpaceOnUse"><path d="M0 116.667h235.333V0H0z"/></clipPath></defs><g clip-path="url(#a)" transform="matrix(1.33333 0 0 -1.33333 0 155.556)"><path fill="#d00035" d="M118.209 74.047l-1.12-3.636c-.34-1.096-1.352-1.877-2.498-1.877h-6.594l1.094 3.647c.336 1.111 1.361 1.866 2.519 1.866z"/><path fill="#002f75" d="M106.182 67.178l-1.12-3.613c-.34-1.096-1.352-1.843-2.498-1.843H95.97l1.094 3.613c.336 1.111 1.361 1.868 2.519 1.861 2.531-.016 6.62-.039 6.599-.018"/><path fill="#002f75" d="M94.683 60.566l-1.12-3.63c-.34-1.097-1.352-1.844-2.498-1.844h-6.594l1.094 3.614c.336 1.11 1.361 1.867 2.519 1.86 2.531-.016 6.62-.021 6.599 0"/><path fill="#d00035" d="M115.782 67.176l-6.266-21.475h-8.33l6.397 21.475z"/><path fill="#002f75" d="M103.945 60.566l-4.369-14.865h-8.26l4.462 14.865z"/><path fill="#002f75" d="M108.217 74.047l-1.645-5.513H92.976c-3.301 0-6.234-2.111-7.29-5.245L79.763 45.7h-8.024l5.982 18.219c1.988 6.054 7.634 10.128 13.993 10.128z"/><path fill="#002f75" d="M125.303 74.074h5.964v-1.47h-4.228v-1.923h3.706v-1.453h-3.706v-3.507h-1.736z"/><path fill="#002f75" d="M135.93 67.372c.253.336.38.814.38 1.434 0 .619-.127 1.096-.38 1.43-.254.334-.617.502-1.09.502-.472 0-.837-.168-1.092-.502-.256-.334-.383-.811-.383-1.43 0-.62.127-1.098.383-1.434.255-.336.62-.504 1.092-.504.473 0 .836.168 1.09.504m1.293-.894c-.522-.644-1.314-.966-2.377-.966-1.063 0-1.855.322-2.378.966-.521.644-.783 1.42-.783 2.328 0 .892.262 1.665.783 2.318.523.654 1.315.981 2.378.981 1.063 0 1.855-.327 2.377-.981.522-.653.783-1.426.783-2.318 0-.908-.261-1.684-.783-2.328"/><path fill="#002f75" d="M138.191 65.722l2.111 3.132-2.02 3.042h1.98l1.033-1.792 1.01 1.792h1.924l-2.031-3.013 2.11-3.161h-2.014l-1.065 1.859-1.074-1.859z"/><path fill="#002f75" d="M148.611 69.688c-.03.23-.107.439-.233.624-.182.25-.464.375-.847.375-.547 0-.92-.271-1.121-.812-.107-.287-.159-.667-.159-1.143 0-.453.052-.817.159-1.092.193-.515.557-.772 1.092-.772.38 0 .648.102.808.306.159.204.256.469.29.795h1.651c-.037-.492-.216-.957-.534-1.396-.507-.708-1.259-1.061-2.254-1.061-.997 0-1.729.295-2.199.885-.469.59-.704 1.355-.704 2.295 0 1.061.259 1.887.778 2.477.519.59 1.234.885 2.147.885.776 0 1.411-.174 1.905-.522.494-.348.787-.963.878-1.844z"/><path fill="#002f75" d="M155.156 67.372c.253.336.38.814.38 1.434 0 .619-.127 1.096-.38 1.43-.254.334-.617.502-1.09.502-.472 0-.837-.168-1.092-.502-.256-.334-.383-.811-.383-1.43 0-.62.127-1.098.383-1.434.255-.336.62-.504 1.092-.504.473 0 .836.168 1.09.504m1.293-.894c-.522-.644-1.314-.966-2.377-.966-1.063 0-1.855.322-2.378.966-.521.644-.783 1.42-.783 2.328 0 .892.262 1.665.783 2.318.523.654 1.315.981 2.378.981 1.063 0 1.855-.327 2.377-.981.522-.653.783-1.426.783-2.318 0-.908-.261-1.684-.783-2.328"/><path fill="#002f75" d="M163.268 71.552c.405-.334.607-.89.607-1.665v-4.165h-1.657v3.762c0 .325-.043.575-.129.749-.158.318-.459.477-.901.477-.545 0-.918-.233-1.121-.699-.106-.245-.158-.559-.158-.941v-3.348h-1.618v6.174h1.567v-.903c.207.318.403.547.588.687.331.249.751.374 1.26.374.636 0 1.157-.167 1.562-.502"/><path fill="#002f75" d="M170.225 71.552c.405-.334.607-.89.607-1.665v-4.165h-1.657v3.762c0 .325-.043.575-.129.749-.158.318-.459.477-.901.477-.545 0-.918-.233-1.121-.699-.106-.245-.158-.559-.158-.941v-3.348h-1.618v6.174h1.567v-.903c.207.318.403.547.588.687.331.249.751.374 1.26.374.636 0 1.157-.167 1.562-.502"/><path fill="#002f75" d="M127.072 55.722h-1.736v8.364h1.736z"/><path fill="#002f75" d="M133.514 61.552c.405-.334.607-.89.607-1.665v-4.165h-1.657v3.762c0 .325-.043.575-.129.749-.158.318-.459.477-.901.477-.545 0-.918-.233-1.121-.699-.106-.245-.158-.559-.158-.941v-3.348h-1.618v6.174h1.567v-.903c.207.318.403.547.588.687.331.249.751.374 1.26.374.636 0 1.157-.167 1.562-.502"/><path fill="#002f75" d="M139.222 57.402c.238.34.357.781.357 1.322 0 .757-.191 1.298-.573 1.623-.234.197-.507.295-.817.295-.473 0-.82-.179-1.041-.536-.221-.358-.332-.801-.332-1.331 0-.571.113-1.028.338-1.37.224-.343.566-.514 1.024-.514.457 0 .806.171 1.044.511m-.397 4.406c.291-.165.528-.392.709-.684v2.951h1.64v-8.353h-1.572v.857c-.231-.367-.493-.634-.788-.8-.296-.167-.662-.25-1.102-.25-.722 0-1.33.292-1.824.877-.493.584-.74 1.334-.74 2.25 0 1.055.243 1.886.729 2.491.486.605 1.136.908 1.949.908.375 0 .708-.083.999-.247"/><path fill="#002f75" d="M144.152 61.907v-3.728c0-.352.041-.617.124-.794.147-.314.435-.472.864-.472.549 0 .926.223 1.129.67.106.242.158.562.158.959v3.365h1.64v-6.185h-1.571v.874c-.016-.019-.053-.076-.114-.17-.06-.095-.131-.178-.214-.25-.253-.227-.497-.382-.734-.465-.235-.084-.511-.125-.829-.125-.912 0-1.527.329-1.844.987-.177.363-.266.898-.266 1.606v3.728z"/><path fill="#002f75" d="M150.753 57.697c.034-.288.108-.492.223-.613.201-.216.573-.323 1.117-.323.319 0 .573.047.761.142.188.094.282.236.282.425 0 .182-.075.32-.227.414-.152.095-.716.258-1.692.488-.703.175-1.198.392-1.485.653-.288.257-.432.628-.432 1.112 0 .571.224 1.062.674 1.473.449.41 1.082.615 1.896.615.774 0 1.404-.154 1.891-.462.487-.309.767-.841.839-1.597h-1.618c-.022.208-.081.372-.175.493-.179.22-.483.329-.91.329-.354 0-.605-.055-.754-.164-.151-.11-.226-.238-.226-.386 0-.185.08-.32.239-.403.159-.087.723-.237 1.689-.448.644-.152 1.127-.38 1.449-.687.317-.31.477-.698.477-1.163 0-.613-.229-1.113-.686-1.501-.457-.388-1.163-.582-2.118-.582-.974 0-1.693.206-2.157.616-.465.41-.697.934-.697 1.569z"/><path fill="#002f75" d="M155.233 60.699v1.152h.862v1.724h1.601v-1.724h1.004v-1.152h-1.004V57.43c0-.253.032-.411.097-.473.063-.063.26-.094.589-.094.049 0 .101.001.157.003.054.001.108.004.161.008v-1.208l-.766-.029c-.764-.026-1.286.106-1.566.397-.182.186-.273.472-.273.857v3.808z"/><path fill="#002f75" d="M163.113 62.052c.021-.002.067-.005.139-.008v-1.658c-.102.012-.193.02-.273.023-.079.004-.143.006-.192.006-.651 0-1.088-.212-1.311-.635-.125-.239-.187-.606-.187-1.102v-2.956h-1.629v6.185h1.544v-1.078c.249.412.467.694.652.846.303.253.696.38 1.181.38.03 0 .055-.001.076-.003"/><path fill="#002f75" d="M164.051 61.907h1.64v-6.185h-1.64zm1.64.738h-1.64v1.493h1.64z"/><path fill="#002f75" d="M170.611 58.73c-.104-.064-.208-.116-.313-.156-.106-.04-.25-.076-.435-.111l-.368-.068c-.345-.061-.593-.134-.743-.221-.255-.148-.382-.377-.382-.687 0-.276.077-.475.233-.598.155-.123.345-.185.568-.185.353 0 .678.103.976.307.298.204.452.576.464 1.117zm-.989.755c.301.037.516.085.646.141.233.099.349.252.349.46 0 .253-.09.429-.268.525-.178.097-.44.145-.785.145-.388 0-.661-.095-.822-.284-.115-.14-.193-.329-.231-.567h-1.56c.034.54.186.985.456 1.333.43.545 1.166.817 2.211.817.681 0 1.284-.134 1.812-.403.529-.268.792-.775.792-1.521v-2.837c0-.196.004-.435.012-.714.011-.212.043-.356.096-.432.053-.075.133-.138.239-.187v-.238h-1.76c-.049.125-.083.242-.101.351-.02.11-.035.235-.046.375-.225-.242-.484-.448-.777-.618-.349-.201-.745-.301-1.186-.301-.564 0-1.028.159-1.396.479-.367.32-.55.773-.55 1.359 0 .76.295 1.311.885 1.652.325.185.801.317 1.429.397z"/><path fill="#002f75" d="M175.201 55.722h-1.617v8.364h1.617zm-48.129-9.999h-1.736v8.364h1.736z"/><path fill="#002f75" d="M133.514 51.553c.405-.334.607-.89.607-1.665v-4.165h-1.657v3.762c0 .325-.043.575-.129.749-.158.318-.459.477-.901.477-.545 0-.918-.233-1.121-.699-.106-.245-.158-.559-.158-.941v-3.348h-1.618v6.174h1.567v-.903c.207.318.403.547.588.687.331.249.751.374 1.26.374.636 0 1.157-.167 1.562-.502"/><path fill="#002f75" d="M134.843 50.7v1.152h.862v1.724h1.601v-1.724h1.004V50.7h-1.004v-3.269c0-.253.032-.411.097-.473.063-.063.26-.094.589-.094.049 0 .101.001.157.003.054.001.108.004.161.008v-1.208l-.766-.029c-.764-.026-1.286.106-1.566.397-.182.186-.273.472-.273.857V50.7z"/><path fill="#002f75" d="M140.825 50.385c-.229-.235-.373-.555-.432-.958h2.786c-.029.43-.172.756-.43.978-.258.222-.577.334-.959.334-.415 0-.737-.118-.965-.354m2.419 1.397c.432-.193.787-.498 1.068-.915.254-.367.418-.794.493-1.278.043-.285.062-.694.053-1.228h-4.504c.025-.621.241-1.056.647-1.305.247-.155.544-.233.891-.233.369 0 .668.095.899.284.125.102.236.244.332.425h1.651c-.044-.366-.243-.739-.599-1.117-.554-.602-1.329-.903-2.328-.903-.822 0-1.548.254-2.177.761-.63.508-.945 1.333-.945 2.477 0 1.071.285 1.893.853 2.464.567.572 1.305.858 2.211.858.539 0 1.023-.097 1.455-.29"/><path fill="#002f75" d="M149.186 52.052c.021-.002.067-.005.139-.008v-1.658c-.102.012-.193.02-.273.023-.079.004-.143.006-.192.006-.651 0-1.088-.212-1.311-.635-.125-.239-.187-.606-.187-1.102v-2.956h-1.629v6.185h1.544v-1.078c.249.412.467.694.652.846.303.253.696.38 1.181.38.03 0 .055-.001.076-.003"/><path fill="#002f75" d="M155.095 51.553c.405-.334.607-.89.607-1.665v-4.165h-1.657v3.762c0 .325-.043.575-.129.749-.158.318-.459.477-.901.477-.545 0-.918-.233-1.121-.699-.106-.245-.158-.559-.158-.941v-3.348h-1.618v6.174h1.567v-.903c.207.318.403.547.588.687.331.249.751.374 1.26.374.636 0 1.157-.167 1.562-.502"/><path fill="#002f75" d="M158.764 50.385c-.229-.235-.373-.555-.432-.958h2.786c-.029.43-.172.756-.43.978-.258.222-.577.334-.959.334-.415 0-.737-.118-.965-.354m2.419 1.397c.432-.193.787-.498 1.068-.915.254-.367.418-.794.493-1.278.043-.285.062-.694.053-1.228h-4.504c.025-.621.241-1.056.647-1.305.247-.155.544-.233.891-.233.369 0 .668.095.899.284.125.102.236.244.332.425h1.651c-.044-.366-.243-.739-.599-1.117-.554-.602-1.329-.903-2.328-.903-.822 0-1.548.254-2.177.761-.63.508-.945 1.333-.945 2.477 0 1.071.285 1.893.853 2.464.567.572 1.305.858 2.211.858.539 0 1.023-.097 1.455-.29"/><path fill="#002f75" d="M163.035 50.7v1.152h.862v1.724h1.601v-1.724h1.004V50.7h-1.004v-3.269c0-.253.032-.411.097-.473.063-.063.26-.094.589-.094.049 0 .101.001.157.003.054.001.108.004.161.008v-1.208l-.766-.029c-.764-.026-1.286.106-1.566.397-.182.186-.273.472-.273.857V50.7z"/></g></svg>