<svg xmlns="http://www.w3.org/2000/svg" role="img" viewBox="-0.20 24.80 400.14 195.39"><title>Fujitsu logo</title><path fill="none" d="M0 0h400v245H0z" pointer-events="none"/><path fill="#e60012" d="M28.803 139.193H48.28c3.692 0 7.14 2.696 7.327 6.27h.178v-14.684h-26.98l-.014-25.775h26.031c3.708 0 7.16 2.687 7.354 6.25h.17L62.32 96.56l-54.627.023v.161c3.679.2 6.437 4.096 6.437 7.735v67.52c0 3.626-2.758 7.538-6.437 7.745v.157h27.562v-.157c-3.682-.207-6.464-4.119-6.464-7.745l.013-32.806zM85.2 157.495c0 8.664 7.225 16.155 16.142 16.155 8.907 0 16.159-7.59 16.159-16.257v-52.915c0-3.64-2.769-7.535-6.457-7.735v-.158l27.58-.026v.184c-3.68.2-6.469 4.096-6.469 7.735v51.418c0 16.55-13.722 26.192-30.74 26.192-17.05 0-30.919-9.643-30.919-26.192l.037-51.418c0-3.64-2.782-7.535-6.444-7.735v-.184H91.63v.184c-3.672.22-6.444 4.119-6.444 7.735l.013 53.017zm225.356-47.44c-4.62-7.446-15.167-6.549-15.167-6.549-17.248 0-16.434 13.12-16.434 13.12s-1.186 6.582 7.482 11.072l17.245 9.137c16.648 8.907 14.674 21.564 14.674 21.564s.752 23.647-34.064 23.647c0 0-10.116.308-15.843-1.833l-4.9-15.314h.17c5.305 7.626 20.714 8.726 20.714 8.726 19.564-.857 19.7-14.113 19.7-14.113s.88-5.708-6.78-9.843l-17.163-9.133c-17.919-9.547-15.866-22.405-15.866-22.405s-.424-23.263 30.38-23.263c0 0 13.826.355 16.03 2.506v12.68h-.178zM176.168 67.586c3.054 2.988 7.317 4.824 11.97 4.824 9.377 0 16.967-7.376 16.967-16.493 0-9.091-7.59-16.48-16.966-16.48 0 0-13.062-1.206-18.94 15.044l.02-12.197c4.374-5.567 11.146-9.613 18.92-9.613 13.229 0 23.932 10.398 23.932 23.246 0 12.828-10.703 23.265-23.932 23.265-6.608 0-12.585-2.591-16.904-6.818l-8.23-8.995c-2.257-2.191-5.36-3.524-8.763-3.524-6.854 0-12.411 5.386-12.411 12.04 0 6.68 5.557 12.08 12.411 12.08 0 0 9.167 1.195 14.957-9.85l.02 9.767c-3.548 4.184-8.963 6.854-14.977 6.854-10.7 0-19.39-8.44-19.39-18.851 0-10.392 8.69-18.813 19.39-18.813 5.33 0 10.172 2.083 13.686 5.518l8.24 8.996zm4.41 36.717c0-3.642-2.772-7.373-6.447-7.56v-.158h27.519v.157c-3.652.204-6.437 3.938-6.437 7.56v67.666c0 3.633 2.785 7.54 6.437 7.758v.154h-27.52v-.154c3.675-.217 6.447-4.125 6.447-7.758v-67.665zm-17.281.176c0-3.64 2.766-7.534 6.444-7.735v-.16h-27.562v.16c3.689.2 6.44 4.096 6.44 7.735l.024 84.592s-.309 14.937-12.342 23.532l.03.164c2.374-.387 26.986-4.93 26.986-28.704l-.02-79.584z"/><path fill="#e60012" d="M201.547 111.573h.164c3.731-6.492 9.485-6.568 9.485-6.568h14.92l.01 66.995c0 3.626-2.775 7.508-6.45 7.725v.154h27.598v-.154c-3.705-.217-6.49-4.125-6.49-7.725l.02-66.995 12.47-.03c3.787 0 6.785 2.937 6.894 6.598h.15l4.582-15.015h-58.758l-4.595 15.015zm137.343 45.922c0 8.664 7.225 16.155 16.145 16.155 8.897 0 16.155-7.59 16.155-16.257v-52.915c0-3.64-2.772-7.535-6.444-7.735v-.158l27.562-.026v.184c-3.656.2-6.44 4.096-6.44 7.735v51.418c0 16.55-13.729 26.192-30.774 26.192-17.016 0-30.889-9.643-30.889-26.192l.02-51.418c0-3.64-2.775-7.535-6.457-7.735v-.184h27.568v.184c-3.691.22-6.466 4.119-6.466 7.735l.02 53.017z"/></svg>