<svg xmlns="http://www.w3.org/2000/svg" role="img" viewBox="73.13 -4.13 253.50 253.00"><title>GE Research logo</title><style>svg {enable-background:new 0 0 400 245}</style><style/><path fill="#005cb9" d="M227.33 90.79c0-13.84 9.36-27.29 14.48-24.73 5.82 2.92-4.36 15.96-14.48 24.73m-63.77 5.06c0-11.13 10.99-32.3 17.71-30.06 7.93 2.64-6.57 23.98-17.71 30.06zm-11.13 79.62c-5.06.23-8.43-3.01-8.43-8.4 0-14.5 20.11-28.35 35.29-35.78-2.69 20.24-9.52 43.39-26.86 44.18zm92.77-47.23c-11.46 0-20.24 8.44-20.24 18.55 0 8.44 5.06 15.18 11.81 15.18 2.37 0 4.71-1.35 4.71-4.39 0-4.38-5.81-5.45-5.36-12.01.28-4.33 4.36-7.22 8.4-7.22 8.1 0 11.88 7.84 11.88 15.94-.34 12.48-9.52 21.17-20.31 21.17-14.17 0-23.27-13.5-23.27-28.01 0-21.59 14.16-30.02 21.58-32.05.08-.01 19.41 3.45 18.8-5.07-.26-3.74-5.84-5.17-9.88-5.34-4.48-.18-8.98 1.44-8.98 1.44-2.36-1.19-3.99-3.51-4.99-6.2 13.83-10.46 23.61-20.58 23.61-32.05 0-6.07-4.05-11.47-11.81-11.47-13.83 0-24.29 17.54-24.29 33.4 0 2.7 0 5.4.68 7.76-8.77 6.41-15.29 10.39-27.1 17.47 0-1.48.31-5.28 1.3-10.23 4.05-4.38 9.6-10.95 9.6-16.01 0-2.36-1.34-4.39-4.05-4.39-6.74 0-11.8 10.12-13.15 17.2-3.04 3.71-9.11 8.44-14.17 8.44-4.05 0-5.4-3.72-5.74-5.06 12.82-4.39 28.68-21.93 28.68-37.79 0-3.37-1.35-10.8-11.47-10.8-15.18 0-28 22.6-28 40.15-5.4 0-7.42-5.74-7.42-10.12 0-4.39 1.68-8.78 1.68-10.12 0-1.35-.68-3.04-2.7-3.04-5.06 0-8.1 6.75-8.1 14.5.34 10.79 7.43 17.54 16.87 18.22 1.35 6.41 7.09 12.48 14.17 12.48 4.39 0 9.78-1.35 13.5-4.72-.34 2.37-.67 4.38-1.02 6.41-14.84 7.76-25.64 13.16-35.42 21.92-7.76 7.09-12.14 16.53-12.14 23.96 0 10.12 6.41 19.56 19.57 19.56 15.52 0 27.33-12.47 33.06-29.69 2.7-8.09 3.78-19.88 4.45-30.68 15.52-8.77 22.88-13.85 30.96-19.58 1.01 1.68 2.04 3.04 3.38 4.05-7.08 3.71-23.95 14.17-23.95 38.79 0 17.55 11.81 37.11 35.08 37.11 19.23 0 32.39-15.84 32.39-31.03.01-13.81-7.75-26.63-22.6-26.63zm58 28.97c-.06.11-.25.26-.62.13-.28-.11-.38-.26-.37-.44.02-.2 4.08-12.19 4.05-25.97-.05-14.85-6.08-23.95-13.83-23.95-4.73 0-8.1 3.38-8.1 8.43 0 9.11 11.13 9.78 11.13 29.69 0 8.09-1.68 15.84-4.39 24.29-12.48 42.17-52.3 61.72-91.08 61.72-17.89 0-30.59-3.67-34.38-5.37-.16-.08-.28-.38-.16-.67.09-.24.35-.41.49-.34 1.54.61 12.45 4.03 25.94 4.03 14.85 0 23.62-6.06 23.62-13.5 0-4.71-3.71-8.42-8.44-8.42-9.11 0-9.79 11.46-29.35 11.46-8.43 0-15.85-1.68-24.63-4.38-41.83-12.82-61.77-52.29-61.73-91.42.02-19.05 5.35-34.23 5.44-34.38.06-.1.31-.21.6-.1.3.1.38.36.35.44-.49 1.58-4.03 12.46-4.03 25.95 0 14.85 6.07 23.62 13.83 23.62 4.39 0 8.1-3.37 8.1-8.09 0-9.11-11.13-10.12-11.13-29.69 0-8.44 1.68-15.86 4.39-24.63 12.83-41.84 52.3-61.45 91.1-61.75 18.03-.14 33.81 5.26 34.4 5.73.1.09.22.33.1.61-.12.31-.33.35-.44.34-.19-.02-10.45-4.31-25.98-4.31-14.5-.01-23.6 6.07-23.6 13.83 0 4.38 3.37 8.09 8.43 8.09 9.11 0 9.79-11.13 29.35-11.13 8.44 0 15.85 1.69 24.62 4.39 42.18 12.82 61.38 52.63 61.74 91.08.19 19.7-5.36 34.61-5.42 34.71zM200 6.45c-64.1 0-116.06 51.96-116.06 116.05 0 64.1 51.96 116.05 116.06 116.05 64.09 0 116.03-51.94 116.03-116.05C316.04 58.74 264.1 6.45 200 6.45zm0 237.83c-67.14 0-121.79-54.31-121.79-121.78C78.22 55.37 132.87.72 200 .72c67.12 0 121.78 54.65 121.78 121.78 0 67.47-54.66 121.78-121.78 121.78z"/></svg>