<svg xmlns="http://www.w3.org/2000/svg" role="img" viewBox="-3.99 48.76 402.48 241.98"><title>Google Cloud logo</title><style>svg {enable-background:new 0 0 400 400}</style><path fill="#ea4535" d="M195.3 94.5h5.2l14.8-14.8.7-6.3c-27.6-24.4-69.7-21.7-94 5.9-6.8 7.7-11.7 16.8-14.4 26.6 1.7-.7 3.5-.8 5.2-.3l29.6-4.9s1.5-2.5 2.3-2.3c13.2-14.5 35.4-16.2 50.6-3.8.1-.1 0-.1 0-.1z"/><path fill="#557ebf" d="M236.5 105.8c-3.4-12.5-10.4-23.8-20.1-32.5l-20.8 20.8c8.8 7.2 13.8 18 13.6 29.3v3.7c10.2 0 18.5 8.3 18.5 18.5s-8.3 18.5-18.5 18.5h-37l-3.7 3.7V190l3.7 3.7h37c26.6.2 48.3-21.2 48.5-47.8.1-15.9-7.9-31-21.2-40.1z"/><path fill="#36a852" d="M135 193.7h37V164h-37c-2.6 0-5.2-.6-7.6-1.7l-5.2 1.6-14.9 14.8-1.3 5.2c8.3 6.4 18.5 9.8 29 9.8z"/><path fill="#f9bc15" d="M135 97.5c-26.6.2-48 21.9-47.9 48.4.1 14.9 7 28.8 18.8 37.9l21.5-21.5c-9.3-4.2-13.5-15.2-9.3-24.5 4.2-9.3 15.2-13.5 24.5-9.3 4.1 1.9 7.4 5.1 9.3 9.3l21.5-21.5c-9.1-11.8-23.4-18.8-38.4-18.8z"/><path fill="#606469" d="M31 267.8c-7.1.1-14-2.7-19-7.8-5.2-4.9-8.1-11.7-8-18.7-.1-7.1 2.8-13.9 8-18.7 5-5.1 11.8-8 19-7.9 6.8-.1 13.4 2.6 18.2 7.3l-5.1 5.2c-3.5-3.4-8.2-5.2-13.1-5.2-5.1-.1-10 2-13.5 5.8-3.6 3.6-5.6 8.5-5.5 13.7 0 5.1 2 9.9 5.5 13.5 7.4 7.4 19.3 7.5 26.9.3 2.3-2.5 3.6-5.6 3.9-8.9H31.1V239h24.4c.2 1.5.3 3 .3 4.5.3 6.3-2 12.4-6.3 17-4.8 4.8-11.5 7.6-18.5 7.3zm56.8-4.9c-6.8 6.5-17.5 6.5-24.4 0-3.3-3.2-5.1-7.6-5-12.2-.1-4.6 1.7-9 5-12.2 6.8-6.5 17.5-6.5 24.4 0 3.3 3.2 5.1 7.6 5 12.2.1 4.6-1.7 9-5 12.2zm-19-4.8c3.5 3.8 9.4 3.9 13.2.4l.4-.4c1.9-2 3-4.7 2.9-7.4.1-2.8-1-5.5-2.9-7.4-3.6-3.8-9.6-3.9-13.4-.3l-.3.3c-1.9 2-3 4.7-2.9 7.4 0 2.8 1.1 5.5 3 7.4zm56.4 4.8c-6.8 6.5-17.5 6.5-24.4 0-3.3-3.2-5.1-7.6-5-12.2-.1-4.6 1.7-9 5-12.2 6.8-6.5 17.5-6.5 24.4 0 3.3 3.2 5.1 7.6 5 12.2.1 4.6-1.7 9-5 12.2zm-18.9-4.8c3.5 3.8 9.4 3.9 13.2.4l.4-.4c1.9-2 3-4.7 2.9-7.4.1-2.8-1-5.5-2.9-7.4-3.6-3.8-9.6-3.9-13.4-.3l-.3.3c-1.9 2-3 4.7-2.9 7.4 0 2.8 1 5.5 3 7.4-.1 0 0 0 0 0zm43.5 25.1c-3.4.1-6.8-1-9.6-3-2.4-1.8-4.4-4.3-5.6-7.1l6.6-2.7c.7 1.7 1.8 3.1 3.2 4.3 1.5 1.2 3.4 1.9 5.4 1.8 2.5.2 4.9-.8 6.7-2.6 1.7-2.1 2.6-4.8 2.4-7.5v-2.5h-.3c-2.2 2.6-5.6 4.1-9 3.9-4.4 0-8.5-1.8-11.5-5-3.2-3.2-5-7.5-4.9-12-.1-4.5 1.7-8.9 4.9-12.1 3-3.2 7.1-5 11.5-5 1.8 0 3.6.4 5.3 1.2 1.4.6 2.7 1.6 3.7 2.7h.3v-2.7h7.1v30.6c.4 4.9-1.3 9.7-4.6 13.4-3 2.8-7.2 4.4-11.6 4.3zm.6-22.1c2.5.1 4.9-1 6.5-2.9 1.8-2 2.7-4.7 2.6-7.4.1-2.7-.8-5.4-2.6-7.5-1.6-1.9-4-2.9-6.5-2.9-2.6-.1-5 1-6.7 2.9-1.9 2-2.9 4.7-2.9 7.4-.1 2.7 1 5.4 2.9 7.4 1.7 2 4.1 3 6.7 3zm28.4-44.6v50.3h-7.5v-50.3h7.5zm20.6 51.3c-4.5.1-8.9-1.7-12.1-4.9-3.2-3.2-5-7.6-4.9-12.2-.2-4.6 1.5-9 4.7-12.3 3-3.1 7.2-4.9 11.5-4.8 2 0 3.9.4 5.8 1.1 1.6.7 3.1 1.6 4.4 2.9 1.1 1 2.1 2.2 2.9 3.5.7 1.1 1.2 2.2 1.7 3.4l.8 2-23 9.5c1.4 3.3 4.7 5.3 8.3 5.2 3.4 0 6.6-1.8 8.4-4.7l5.8 3.9c-1.5 2.1-3.3 3.9-5.5 5.2-2.7 1.4-5.8 2.3-8.8 2.2zm-9.6-17.6l15.3-6.4c-.5-1.1-1.3-2-2.4-2.6-1.2-.7-2.6-1-3.9-1-2.3.1-4.6 1-6.2 2.7-2 1.9-3 4.6-2.8 7.3zm63.6 17.6c-13.1.2-23.9-10.2-24.1-23.3v-1c-.3-13.1 10.1-23.9 23.1-24.2h1c6.5-.2 12.8 2.6 17 7.6l-4.1 4c-3.1-3.9-7.9-6.1-12.9-5.9-4.8-.1-9.4 1.7-12.8 5.1-3.5 3.5-5.4 8.4-5.2 13.4-.2 5 1.7 9.9 5.2 13.4 3.4 3.4 8 5.2 12.8 5.1 5.6.1 10.9-2.4 14.4-6.7l4.1 4.1c-2.2 2.6-4.9 4.7-8 6.1-3.2 1.6-6.8 2.4-10.5 2.3zm29.7-1h-6v-46.4h6v46.4zm9.7-28c6.5-6.4 17-6.4 23.5 0 3.1 3.3 4.7 7.6 4.6 12.1.1 4.5-1.5 8.8-4.6 12.1-6.5 6.4-17 6.4-23.5 0-3.1-3.3-4.7-7.6-4.6-12.1-.1-4.5 1.5-8.8 4.6-12.1zm4.4 20.5c3.8 4 10.2 4.2 14.2.4l.4-.4c2.1-2.3 3.2-5.3 3.1-8.3.1-3.1-1-6.1-3.1-8.3-3.8-4-10.2-4.2-14.2-.4l-.4.4c-2.1 2.3-3.2 5.3-3.1 8.3-.1 3 1 6 3.1 8.3zm56.6 7.5H348v-4.4h-.2c-1 1.7-2.5 3-4.2 4-1.8 1-3.8 1.6-5.9 1.6-3.4.2-6.7-1.1-9-3.6-2.2-2.8-3.3-6.2-3.1-9.7v-19.6h6v18.5c0 5.9 2.6 8.9 7.8 8.9 2.4.1 4.6-1 6-2.9 1.5-2 2.4-4.4 2.3-6.9v-17.6h6l.1 31.7zm20.2 1c-4.1 0-8-1.8-10.6-4.9-3-3.3-4.6-7.6-4.5-12-.1-4.4 1.5-8.8 4.5-12 2.7-3.1 6.6-4.9 10.6-4.9 2.3 0 4.5.5 6.5 1.6 1.8.9 3.2 2.2 4.3 3.9h.3l-.3-4.4v-14.7h6v46.4H385v-4.4h-.3c-1.1 1.7-2.6 3-4.3 3.9-1.9 1-4.1 1.6-6.4 1.5zm1-5.4c2.7 0 5.3-1.1 7.2-3.1 2-2.3 3.1-5.3 2.9-8.4.2-3.1-.9-6.1-2.9-8.4-3.6-4-9.8-4.3-13.7-.6l-.6.6c-2 2.3-3.1 5.3-2.9 8.3-.2 3.1.8 6.1 2.9 8.3 1.7 2.2 4.4 3.3 7.1 3.3z"/></svg>