<svg xmlns="http://www.w3.org/2000/svg" role="img" viewBox="152.98 70.48 599.04 105.54"><title>HCL logo</title><g data-name="Layer 1"><clipPath id="a"><path d="M0 246.974h905.433V0H0z" transform="matrix(1 0 0 -1 0 246.974)"/></clipPath><g fill="#0066b3" fill-rule="evenodd" clip-path="url(#a)"><path d="M524.685 111.27h59.164c-.39-12.932-12.921-21.863-37.653-25.434-15.002-2.207-30.375-3.462-45.591-3.511h-2.16c-33.518.127-66.024 6.06-91.515 20.158-29.636 16.443-31.932 41.264-2.354 53.348 24.809 10.166 77.037 11.197 114.378 4.863 24.226-4.125 42.702-12.074 53.084-23.963h-60.42c-7.832 6.014-18.048 9.01-30.005 9.137-33.907.203-38.373-10.051-32.457-21.873 7.024-13.942 21.764-21.512 44.288-22.123 17.697-.459 26.464 3.433 31.241 9.398"/><path d="M678.262 85.098l-26.278 58.541h88.799l-8.25 18.35H579.791l34.404-76.891z"/><path d="M164.65 162.037h62.521l13.397-30.678h61.275l-13.738 30.658h63.232l34.705-76.91h-63.708l-11.413 25.938h-61.217l11.568-25.938-61.869-.009z"/></g></g></svg>