<svg xmlns="http://www.w3.org/2000/svg" role="img" viewBox="-6.45 66.55 413.66 111.91"><title>High Peak Data logo</title><style>svg {enable-background:new 0 0 400 245}</style><style>.st0{fill:none;stroke:#02348d;stroke-width:11.8644;stroke-linecap:round;stroke-linejoin:round}.st1{fill:#02348d}</style><g id="Page-1"><g id="logo_horizontal_1" transform="translate(2)"><g id="logo_horizontal-copy-2" transform="translate(0 2)"><g id="logo_hpd"><g id="Group-3" transform="translate(.641)"><g id="Group-2" transform="translate(.144)"><g id="Group"><path id="Path-24" d="M4.8 162.8l44.6-74.7c5.4-9 17-11.9 26-6.6 2.7 1.6 5 3.9 6.6 6.6l44.6 74.7" class="st0"/><path id="Path-25" d="M126.9 162.8h25.4c33.3.5 27.3-46.3 0-41.5-5.3-12.8-23.3-16.3-31.7 0-.1-.1-10.6-11.8-22 3s-17.9.6-32.8-10.2-34.3 4.7-37.8 10.2" class="st0"/></g><path id="Path-26" d="M5.2 162.8h121.2" class="st0"/></g></g></g></g><g id="Group-20" transform="translate(68)"><path id="HighPeakData" d="M138 103.8V76h7.7v10.4h9.9V76h7.7v27.8h-7.7V93.2h-9.9v10.6H138zm28.6 0V82.3h7.5v21.5h-7.5zm-.2-23.5v-5.6h7.9v5.6h-7.9zm21.1 29.9c-4.2 0-7.7-.9-10.8-2.5l2.4-5c2.3 1.3 4.6 2 7.5 2 3.8 0 5.6-1.9 5.6-5.3v-.8c-1.5 1.7-3.5 3.2-6.6 3.2-5.3 0-9.5-3.8-9.5-10.1 0-6.2 4.3-10 9.3-10 3.2 0 5.1 1.3 6.8 3v-2.5h7.5v16.3c0 3.9-.9 6.7-2.8 8.6-1.9 2-4.9 3.1-9.4 3.1zm.4-14.1c2.5 0 4.4-1.8 4.4-4.3 0-2.4-1.8-4.1-4.4-4.1-2.6 0-4.4 1.8-4.4 4.3 0 2.3 1.8 4.1 4.4 4.1zm14.4 7.7v-29h7.5v10.4c1.4-1.8 3.4-3.4 6.4-3.4 4.6 0 7.3 3 7.3 7.9v14.1H216V92.1c0-2.3-1.2-3.6-3-3.6s-3.2 1.3-3.2 3.6v11.6h-7.5zm33.8 0V76H248c7 0 11.6 3.6 11.6 9.9 0 6.6-5 10-12 10h-3.8v7.9h-7.7zm7.7-14h3.7c2.7 0 4.4-1.4 4.4-3.7 0-2.4-1.7-3.7-4.4-3.7h-3.6v7.4zm27.9 14.5c-6.8 0-11.5-4.5-11.5-11.2 0-6.3 4.5-11.2 10.8-11.2 7.4 0 10.8 5.4 10.8 11.8v1.5h-14.4c.6 2.3 2.3 3.5 4.6 3.5 1.8 0 3.2-.7 4.8-2.2l4.2 3.5c-2.1 2.6-5 4.3-9.3 4.3zm-4.4-13h7.5c-.3-2.4-1.7-3.9-3.7-3.9-2.1 0-3.4 1.5-3.8 3.9zm22.5 13c-4.1 0-7.2-2.3-7.2-6.7s3.4-6.8 8.4-6.8c2 0 3.9.4 5.2.8v-.4c0-2.2-1.4-3.5-4.3-3.5-2.3 0-4 .4-5.9 1.2l-1.5-5.3c2.4-1 5-1.7 8.7-1.7 3.9 0 6.5.9 8.2 2.6 1.6 1.6 2.3 3.8 2.3 6.8v12.4h-7.5v-2.2c-1.6 1.7-3.6 2.8-6.4 2.8zm2.7-4.8c2.2 0 3.7-1.4 3.7-3.5v-1c-.8-.3-1.8-.6-2.9-.6-2.2 0-3.5 1.1-3.5 2.7s1.1 2.4 2.7 2.4zm13.5 4.3v-29h7.5v14.7l5.8-7.2h8.5l-7.5 8.6 7.7 12.9h-8.3l-4.3-7.3-1.9 2.3v5H306z" class="st1"/><path id="DATA" d="M137 170.2v-51.6h19.9c18.4 0 29.1 10.6 29.1 25.6 0 14.9-10.8 25.9-29.4 25.9H137zm14.3-12.7h5.8c8.5 0 14.2-4.7 14.2-13.2 0-8.3-5.7-13.2-14.2-13.2h-5.8v26.4zm31.6 12.7l22-51.9h13.8l22 51.9h-15.3l-3.8-9.2h-19.9l-3.7 9.2h-15.1zm22.9-20.3h11.6l-5.7-14.7-5.9 14.7zm43.1 20.3v-39h-15.5v-12.5h45.2v12.5h-15.5v39h-14.2zm22.7 0l22-51.9h13.8l22 51.9h-15.3l-3.8-9.2h-19.9l-3.7 9.2h-15.1zm22.9-20.3H306l-5.7-14.7-5.8 14.7z" class="st1"/></g></g></g></svg>