<svg xmlns="http://www.w3.org/2000/svg" role="img" viewBox="24.27 25.02 311.22 183.72"><title>Hivelocity logo</title><path fill="#e31837" d="M130.04 31h12v100h-12zm88 0h12v100h-12zm-64 56h52v12h-52zm0-24h52v12h-52z"/><path fill="#292f33" d="M49.28 202.7v-14.82h-12v14.82h-6.89v-35.4h6.91v14.47h12V167.3h6.9v35.4zm18.11 0v-35.4h6.91v35.4zm31.92 0h-5.17l-11.68-35.4h7.16l7.11 23.07 7.11-23.07H111zm19.97 0v-35.4h23.32v6.16h-16.41v8.3h14v6.17h-14v8.6h16.41v6.17zm33.12 0v-35.4h6.91v29.23h16.06v6.17zm53.28-3.58a13.75 13.75 0 0 1-19.14 0c-3.58-3.58-3.48-8-3.48-14.12s-.1-10.54 3.48-14.12a13.75 13.75 0 0 1 19.14 0c3.58 3.58 3.53 8 3.53 14.12s.04 10.54-3.53 14.12zm-5.12-24.07a5.74 5.74 0 0 0-4.42-1.89 5.85 5.85 0 0 0-4.48 1.89c-1.34 1.49-1.69 3.13-1.69 9.94s.35 8.45 1.69 9.94a5.86 5.86 0 0 0 4.48 1.89 5.75 5.75 0 0 0 4.42-1.89c1.34-1.49 1.74-3.13 1.74-9.94s-.4-8.44-1.75-9.93zM231.33 203a13.05 13.05 0 0 1-9.55-3.88c-3.58-3.58-3.48-8-3.48-14.12s-.1-10.54 3.48-14.12a13 13 0 0 1 9.55-3.88c6.62 0 11.78 3.78 13 11.19h-7c-.7-2.83-2.48-5-6-5A5.71 5.71 0 0 0 227 175c-1.35 1.49-1.74 3.18-1.74 10s.4 8.5 1.74 10a5.71 5.71 0 0 0 4.42 1.84c3.48 0 5.27-2.19 6-5h7c-1.31 7.38-6.53 11.16-13.09 11.16zm22.09-.3v-35.4h6.91v35.4zm31.9-29.24v29.24h-6.91v-29.24h-9.25v-6.16h25.41v6.16zM319 188.18v14.52h-6.87v-14.52l-10.66-20.88H309l6.62 14.27 6.52-14.27h7.5z"/></svg>