<svg xmlns="http://www.w3.org/2000/svg" role="img" viewBox="-7.99 38.76 415.74 167.24"><style>svg {enable-background:new 0 0 400 245}</style><style>.st2{fill:#42c0c0}</style><path fill="#8666ac" d="M197.4 71.2h-17.9V46.9h-12.2v65.5h12.2V82.6h17.9v29.8h12.2V46.9h-12.2zm68.9-22.1c-.5-.6-1.1-1.1-1.9-1.6s-1.7-.6-2.8-.6h-29.4c-1.1 0-2.1.2-2.8.6-.8.4-1.4 1-1.9 1.6-.5.6-.9 1.2-1.1 1.9-.2.7-.3 1.3-.3 1.8v47.3c0 1 .2 2 .7 2.8s1.1 1.5 2 2l12.9 8.2c.7.4 1.6.6 2.8.6.9 0 1.8-.2 2.8-.6l16.9-8.7c.9-.5 1.7-1.2 2.6-2.1.8-.9 1.2-2 1.1-3.3V52.9c0-.6-.1-1.2-.3-1.8-.4-.7-.8-1.4-1.3-2zM255.5 97l-10.9 5.5-6.4-4v-41h17.3V97zm79.8 15.4h12.2V52.9c0-.6-.1-1.2-.3-1.8-.2-.7-.6-1.3-1-1.9-.5-.6-1.1-1.1-1.8-1.6-.8-.4-1.7-.6-2.9-.6h-13c-1.4 0-2.7.2-3.8.7-1.2.4-2.2 1.1-3.1 2l-5.5 4.2h-.5l-5.6-4.2c-.9-.8-1.9-1.5-3.1-2-1.1-.4-2.4-.7-3.8-.7h-13c-1.1 0-2.1.2-2.8.6-.8.4-1.4 1-1.9 1.6-.5.6-.9 1.2-1.1 1.9-.2.7-.3 1.3-.3 1.8v59.4h12.2V57.5h5l8.5 4.9v50h12.2v-50l7.7-4.9h5.9v54.9zM399.8 58V46.9h-35.6v59.4c0 .6.1 1.2.3 1.8.2.7.6 1.3 1.1 1.9.5.6 1.1 1.1 1.9 1.6.8.4 1.7.6 2.8.6h29.5v-11.1h-23.5v-18h21.5V72.2h-21.5V58h23.5z"/><path fill="#201747" d="M167.3 190.5c0 .6.1 1.2.3 1.8.2.7.6 1.3 1.1 1.9.5.6 1.1 1.1 1.9 1.6.8.4 1.7.6 2.8.6h29.5v-11.1h-23.5v-18H201v-11.1h-21.5v-14.1H203V131h-35.6l-.1 59.5zm86.6-59.5l-36.1.4v65h10l1-2.8 14.3 4.2c.6.1 1.2.2 1.7.2 1.8 0 3.2-.3 4.1-.8l8.2-4.9c.8-.5 1.5-1.2 1.9-2 .5-.8.7-1.8.7-2.8v-51.2c0-1.2-.5-2.4-1.5-3.5-1-1.2-2.4-1.8-4.3-1.8zm-6.4 54.4l-3.7 2.2-13.8-3.3v-42.7h17.5v43.8zm47.1-18.8h9.5v14.6l-9.9 5.4-6.4-4v-41H304v8.1h11l1-18.6h-34.2c-1.1-.1-2.1.1-2.8.6-.8.4-1.4 1-1.9 1.6-.5.6-.9 1.3-1.1 2-.2.7-.3 1.3-.3 1.9v47.4c0 1 .2 2 .7 2.8.5.8 1.1 1.5 2 2l12.9 8.1c.7.4 1.6.6 2.8.6.9 0 1.8-.2 2.8-.6l16.5-9.2c1.8-1 2.8-2.7 3-5v-27h-21.7v10.4h-.1zm37.7 23.9c0 .6.1 1.2.3 1.8.2.7.6 1.3 1.1 1.9.5.6 1.1 1.1 1.9 1.6.8.4 1.7.6 2.8.6h29.5v-11.1h-23.5v-18H366v-11.1h-21.5v-14.1H368V131h-35.6l-.1 59.5z"/><path d="M80.2 130v13.3l68.5-38.3V91.7zm0 39.9l68.5-38.4v-13.3l-68.5 38.4zm0 26.5l68.5-38.3v-13.3l-68.5 38.3zM55 148.9l-41.1-23V99.4L.2 91.7v66.4l13.7 7.7v-26.6l41.1 23v26.6l13.7 7.6V130L55 122.3zm86.6-64.5L79.8 49.9l-5.4-3-4.6 2.6-62.5 35L21 92.2l53.5-29.9 53.4 29.8z" class="st2"/><path d="M127.8 55.8l-12-6.5.4 21.5 11.9 6.7z" class="st2"/></svg>