<svg xmlns="http://www.w3.org/2000/svg" role="img" viewBox="-8.19 -8.69 815.88 815.88"><path fill="#00a1dd" d="M400 792c-3.903 0-7.788-.071-11.664-.182l80.213-220.45h110.39c19.377 0 40.647-14.896 47.272-33.095l87.025-239.035c14.237-39.134-8.18-71.154-49.822-71.154H510.268L381.77 581.182h-.048l-72.846 200.164C136.052 740.254 7.5 584.898 7.5 399.5c0-180.05 121.24-331.77 286.53-378.012l-75.167 206.595h-.021L93.885 571.367l83.185.007 106.268-291.705h62.517L239.586 571.374l83.153.014 99.03-272.15c14.247-39.135-8.171-71.154-49.775-71.154H302.07L382.36 7.412A399.002 399.002 0 0 1 400 7c216.773 0 392.5 175.727 392.5 392.501C792.5 616.27 616.773 792 400 792zm237.484-512.541h-62.498l-87.525 240.148h62.5zm73.319 454.098a25.868 25.868 0 1 1 25.869 25.801 25.65 25.65 0 0 1-25.87-25.801zm4.203 0a21.665 21.665 0 1 0 21.666-21.603 21.593 21.593 0 0 0-21.666 21.603zm33.482 14.7h-4.79l-7.419-13.387h-5.388v13.387h-4.2V719.24h12.213c5.25 0 9.979 1.572 9.979 7.684 0 5.71-3.875 7.807-7.748 7.946zm-17.597-24.815v7.226h4.468c3.936 0 9.325.653 9.325-3.28 0-3.68-3.09-3.946-6.57-3.946z"/></svg>