<svg xmlns="http://www.w3.org/2000/svg" role="img" viewBox="-3.48 -5.48 518.96 228.46"><defs><style>.cls-2{fill:#231f20}</style></defs><g id="layer1"><g id="g3646"><path id="path3346" fill="#00b188" d="M166.96 43.149H17.497V15.44H166.96v27.71zm10.677-38.385H6.82V53.82h170.818z"/><g id="g3348"><path id="path3350" d="M17.497 134.896H6.819V85.841h10.678v19.386h19.077V85.84h10.677v49.055H36.574v-20.329H17.497v20.33" class="cls-2"/></g><g id="g3352"><path id="path3354" d="M63.421 113.39H76.14c-.236-3.608-1.725-6.123-5.888-6.123-3.14 0-5.889 1.337-6.83 6.122zm8.085 22.292c-10.833 0-18.21-6.83-18.21-18.049 0-10.914 7.222-18.447 16.8-18.447 10.44 0 15.621 6.985 15.621 17.425v3.926H63.421c1.26 5.411 5.496 6.823 9.737 6.823a16.657 16.657 0 0 0 9.652-2.826h.396v8.085c-2.826 2.044-6.833 3.063-11.7 3.063" class="cls-2"/></g><g id="g3356"><path id="path3358" d="M113.583 114.334l-5.496 20.562h-9.34L88.068 100.36v-.393h10.207l5.807 20.644 5.496-20.644h8.322l5.574 20.644 5.889-20.644h9.814v.393L128.5 134.896h-9.344l-5.574-20.562" class="cls-2"/></g><g id="g3360"><path id="path3362" d="M156.523 135.682c-8.478 0-11.933-3.375-11.933-11.3V85.845h10.362v37.83c0 2.433.941 3.295 2.982 3.295a7.793 7.793 0 0 0 2.355-.47h.16v8.556a12.469 12.469 0 0 1-3.926.626" class="cls-2"/></g><g id="g3364"><path id="path3366" d="M173.481 113.39H186.2c-.237-3.608-1.726-6.123-5.89-6.123-3.136 0-5.888 1.337-6.829 6.122zm8.085 22.292c-10.833 0-18.21-6.83-18.21-18.049 0-10.914 7.222-18.447 16.8-18.447 10.44 0 15.621 6.985 15.621 17.425v3.926h-22.296c1.256 5.411 5.496 6.823 9.734 6.823a16.677 16.677 0 0 0 9.658-2.826h.393v8.085c-2.826 2.044-6.83 3.063-11.7 3.063" class="cls-2"/></g><g id="g3368"><path id="path3370" d="M238.324 99.967h7.693v8.319h-7.693v14.207c0 3.063 1.178 4.477 4.318 4.477a9.844 9.844 0 0 0 3.141-.473h.234v8.163a18.48 18.48 0 0 1-6.356 1.018c-8.403 0-11.7-3.844-11.7-12.714v-14.678h-13.266v14.207c0 3.063 1.178 4.477 4.315 4.477a9.85 9.85 0 0 0 3.144-.473h.234v8.163a18.495 18.495 0 0 1-6.356 1.018c-8.403 0-11.7-3.844-11.7-12.714v-14.678h-5.34v-8.319h5.34v-9.574h10.363v9.574h13.266v-9.574h10.363v9.574" class="cls-2"/></g><g id="g3372"><path id="path3374" d="M280.932 109.937c5.422 0 8.007-3.059 8.007-7.455 0-4.555-2.585-7.615-8.007-7.615h-6.751v15.07zm18.844-7.455c0 10.677-7.144 16.481-17.98 16.481h-7.615v15.933H263.51V85.841h18.285c10.837 0 17.98 5.808 17.98 16.64" class="cls-2"/></g><g id="g3376"><path id="path3378" d="M322.538 123.908v-2.982a12.12 12.12 0 0 0-5.73-1.174c-3.373 0-5.414 1.252-5.414 4.078 0 2.907 2.04 4.163 5.1 4.163a6.07 6.07 0 0 0 6.044-4.085zm.315 7.536a11.758 11.758 0 0 1-9.266 4.082c-6.826 0-12.403-4.156-12.403-11.54 0-6.827 5.577-11.378 13.58-11.378a27.602 27.602 0 0 1 7.774 1.174v-.623c0-3.77-2.118-5.415-7.689-5.415a19.943 19.943 0 0 0-9.817 2.667h-.39v-8.322a25.8 25.8 0 0 1 12.008-2.903c10.522 0 16.251 5.022 16.251 13.814v21.896h-10.048v-3.452" class="cls-2"/></g><g id="g3380"><path id="path3382" d="M338.16 117.474c0-11.225 7.933-18.288 18.296-18.288a16.5 16.5 0 0 1 9.733 2.666v8.87h-.396a13.006 13.006 0 0 0-8.004-2.747c-5.181 0-9.107 3.536-9.107 9.5s3.926 9.418 9.107 9.418a12.988 12.988 0 0 0 8.004-2.752h.396v8.87a16.477 16.477 0 0 1-9.733 2.67c-10.363 0-18.296-6.981-18.296-18.207" class="cls-2"/></g><g id="g3384"><path id="path3386" d="M383.063 119.045v15.851h-10.36V85.841h10.36v27.941l10.444-13.815h11.774v.393l-12.56 15.855 12.56 18.289v.393h-11.856l-10.362-15.852" class="cls-2"/></g><g id="g3388"><path id="path3390" d="M428.517 123.908v-2.982a12.12 12.12 0 0 0-5.73-1.174c-3.374 0-5.414 1.252-5.414 4.078 0 2.907 2.04 4.163 5.096 4.163a6.07 6.07 0 0 0 6.048-4.085zm.315 7.536a11.765 11.765 0 0 1-9.263 4.082c-6.833 0-12.403-4.156-12.403-11.54 0-6.827 5.57-11.378 13.584-11.378a27.575 27.575 0 0 1 7.767 1.174v-.623c0-3.77-2.119-5.415-7.692-5.415a19.94 19.94 0 0 0-9.815 2.667h-.392v-8.322a25.815 25.815 0 0 1 12.01-2.903c10.525 0 16.255 5.022 16.255 13.814v21.896h-10.051v-3.452" class="cls-2"/></g><g id="g3392"><path id="path3394" d="M456.309 105.62c1.881-3.849 4.633-6.045 8.48-6.045a8.19 8.19 0 0 1 3.368.63v9.888h-.39a11.812 11.812 0 0 0-4.55-.785c-3.22 0-5.73 1.885-6.597 5.493v20.095h-10.36V99.967h10.049v5.652" class="cls-2"/></g><g id="g3396"><path id="path3398" d="M495.637 123.045v-11.226a7.669 7.669 0 0 0-6.596-3.608c-4.548 0-7.61 3.3-7.61 9.263s3.062 9.182 7.61 9.182a7.672 7.672 0 0 0 6.596-3.611zm.312 8.244c-2.197 2.826-5.652 4.393-10.36 4.393-8.951 0-14.68-8.16-14.68-18.208s5.729-18.288 14.68-18.288c4.552 0 7.849 1.414 10.048 4.003V85.845H506v49.051h-10.051v-3.607" class="cls-2"/></g><g id="g3400"><path id="path3402" d="M6.82 150.918h30.302v5.963H13.65v14.989h21.273v5.81H13.65v16.326h23.473v5.963H6.82v-49.051" class="cls-2"/></g><g id="g3404"><path id="path3406" d="M62.162 164.729c7.77 0 12.09 5.103 12.09 13.496v21.744h-6.516v-21.585c0-4.474-2.277-7.692-7.222-7.692a9.08 9.08 0 0 0-8.714 6.278v23h-6.515v-34.534H51.8v5.022a11.923 11.923 0 0 1 10.362-5.73" class="cls-2"/></g><g id="g3408"><path id="path3410" d="M91.761 165.436h8.87v5.574h-8.87v18.6c0 3.922 2.041 5.26 5.73 5.26a8.336 8.336 0 0 0 2.904-.471h.237v5.57a10.596 10.596 0 0 1-4.082.708c-8.088 0-11.303-3.693-11.303-10.438V171.01H79.28v-5.574h5.967v-9.178h6.514v9.178" class="cls-2"/></g><g id="g3412"><path id="path3414" d="M111.542 179.325h17.192c-.233-5.1-2.748-9.022-8.085-9.022-4.944 0-8.166 3.689-9.107 9.022zm10.285 21.352c-10.129 0-17.036-6.752-17.036-17.582 0-10.833 6.437-18.366 15.78-18.366 9.5 0 14.445 6.83 14.445 16.952v2.985h-23.71c.707 6.985 5.184 10.359 11.384 10.359a14.717 14.717 0 0 0 9.656-3.14h.236v5.732c-2.825 2.197-6.518 3.06-10.755 3.06" class="cls-2"/></g><g id="g3416"><path id="path3418" d="M149.223 170.773a9.118 9.118 0 0 1 8.555-5.885 8.214 8.214 0 0 1 3.378.548v6.434h-.234a10.12 10.12 0 0 0-4.084-.704c-3.53 0-6.515 2.352-7.615 6.278v22.525h-6.515v-34.533h6.515v5.337" class="cls-2"/></g><g id="g3420"><path id="path3422" d="M182.193 194.788c6.436 0 10.207-5.1 10.207-12.089 0-6.904-3.77-12.081-10.207-12.081a9.744 9.744 0 0 0-8.556 5.489v13.27a9.667 9.667 0 0 0 8.556 5.411zm1.1-30.06c10.28 0 15.777 8.4 15.777 17.971 0 9.581-5.496 17.978-15.778 17.978a12.492 12.492 0 0 1-9.655-4.556v17.115h-6.518v-47.8h6.518v3.923a12.31 12.31 0 0 1 9.655-4.63" class="cls-2"/></g><g id="g3424"><path id="path3426" d="M213.28 170.773a9.111 9.111 0 0 1 8.556-5.885 8.207 8.207 0 0 1 3.374.548v6.434h-.233a10.092 10.092 0 0 0-4.082-.704c-3.533 0-6.515 2.352-7.614 6.278v22.525h-6.515v-34.533h6.515v5.337" class="cls-2"/></g><g id="g3428"><path id="path3430" d="M234.632 151.466a4.082 4.082 0 1 1 0 8.163 4.082 4.082 0 1 1 0-8.163" class="cls-2"/></g><path id="path3432" d="M231.413 199.97h6.519v-34.534h-6.519z" class="cls-2"/><g id="g3434"><path id="path3436" d="M261.168 179.799c4.944 1.567 10.437 3.608 10.437 10.2 0 7.067-5.807 10.678-13.263 10.678-4.555 0-9.107-1.1-11.7-3.141v-6.2h.315c2.908 2.667 7.222 3.845 11.304 3.845 3.689 0 6.988-1.415 6.988-4.397 0-3.059-2.744-3.766-8.166-5.57-4.866-1.57-10.281-3.378-10.281-9.889 0-6.674 5.492-10.596 12.48-10.596a18.601 18.601 0 0 1 10.597 2.826v6.28h-.233a15.692 15.692 0 0 0-10.207-3.614c-4.082 0-6.36 1.808-6.36 4.241 0 2.748 2.512 3.53 8.089 5.337" class="cls-2"/></g><g id="g3438"><path id="path3440" d="M284.012 179.325H301.2c-.234-5.1-2.745-9.022-8.085-9.022-4.945 0-8.163 3.689-9.104 9.022zm10.281 21.352c-10.125 0-17.033-6.752-17.033-17.582 0-10.833 6.437-18.366 15.778-18.366 9.503 0 14.444 6.83 14.444 16.952v2.985h-23.707c.707 6.985 5.181 10.359 11.381 10.359a14.705 14.705 0 0 0 9.656-3.14h.237v5.732c-2.823 2.197-6.515 3.06-10.756 3.06" class="cls-2"/></g></g></g></svg>