<svg xmlns="http://www.w3.org/2000/svg" role="img" viewBox="5.20 -29.80 5449.60 754.60"><path d="M162.653 76.911v534.017h-50.858V76.911zm329.822 0a322.146 322.146 0 0 1 64.696 6.36q31.027 6.362 54.599 21.689a115.305 115.305 0 0 1 37.77 40.388q14.196 25.067 14.21 62.449a125.894 125.894 0 0 1-6.731 40.764 123.946 123.946 0 0 1-19.072 35.897 121.205 121.205 0 0 1-29.17 27.3 108.289 108.289 0 0 1-37.77 15.706v1.497q51.607 6.73 82.271 42.257 30.66 35.533 30.664 87.884a210.264 210.264 0 0 1-2.243 28.793 140.967 140.967 0 0 1-8.975 32.908 139.194 139.194 0 0 1-19.446 33.283q-12.727 16.46-34.03 28.793-21.316 12.344-52.355 20.196-31.043 7.853-74.418 7.853H266.603V76.911zm0 234.099q30.659 0 53.103-7.104 22.439-7.098 37.397-19.448a80.122 80.122 0 0 0 22.437-28.793 84.042 84.042 0 0 0 7.478-35.153q0-100.213-120.415-100.22H317.46V311.01zm0 256.54a286.028 286.028 0 0 0 53.852-4.862q25.417-4.86 44.874-17.579a89.866 89.866 0 0 0 30.665-34.028q11.22-21.319 11.218-53.476 0-51.607-36.273-77.41-36.285-25.803-104.336-25.803H317.46V567.55zM835.018 76.911l177.257 468.198 183.988-468.198h74.792v534.017h-50.858V149.462h-1.495l-182.494 461.466H988.34L812.58 149.462h-1.495v461.466h-50.858V76.911zm1130.858 534.017l-90.498-363.492h-1.497l-89.003 363.492H1665.96L1524.602 76.911h117.423l84.517 363.492h1.494L1820.78 76.91h109.943l91.248 367.979h1.495l87.508-367.979h115.18L2082.55 610.928zm252.049-267.755q2.24-37.392 18.695-62.077a127.339 127.339 0 0 1 41.885-39.643q25.417-14.951 57.218-21.313a325.612 325.612 0 0 1 63.946-6.36 435.11 435.11 0 0 1 59.087 4.115 181.18 181.18 0 0 1 54.597 16.081 107.578 107.578 0 0 1 40.388 33.284q15.705 21.313 15.705 56.466v201.191a402.815 402.815 0 0 0 2.994 50.11q2.982 23.944 10.47 35.901h-107.7a149.633 149.633 0 0 1-4.863-18.323 156.868 156.868 0 0 1-2.617-19.071 138.383 138.383 0 0 1-59.832 36.646 240.29 240.29 0 0 1-70.305 10.47 189.764 189.764 0 0 1-51.607-6.732 118.073 118.073 0 0 1-41.885-20.94 97.282 97.282 0 0 1-28.045-35.902q-10.098-21.68-10.098-51.607 0-32.9 11.591-54.224 11.589-21.312 29.918-34.028a134.137 134.137 0 0 1 41.885-19.071 449.422 449.422 0 0 1 47.492-10.098q23.926-3.736 47.12-5.984a283.445 283.445 0 0 0 41.137-6.732q17.944-4.484 28.42-13.087 10.46-8.59 9.722-25.055 0-17.196-5.611-27.3a41.247 41.247 0 0 0-14.957-15.706 58.951 58.951 0 0 0-21.689-7.48 178.579 178.579 0 0 0-26.552-1.87q-31.41 0-49.361 13.465-17.95 13.46-20.945 44.874zm245.318 78.53a47.552 47.552 0 0 1-16.83 9.35 171.049 171.049 0 0 1-21.689 5.608q-11.6 2.245-24.306 3.742-12.73 1.51-25.431 3.738a192.187 192.187 0 0 0-23.558 5.984 69.875 69.875 0 0 0-20.196 10.098 48.04 48.04 0 0 0-13.837 16.081q-5.239 9.724-5.235 24.679 0 14.214 5.235 23.934a40.085 40.085 0 0 0 14.213 15.333 60.005 60.005 0 0 0 20.94 7.853 133.452 133.452 0 0 0 24.683 2.245q31.41 0 48.613-10.474 17.196-10.46 25.431-25.055a80.242 80.242 0 0 0 10.098-29.541 204.44 204.44 0 0 0 1.87-23.935zm382.179-197.448v71.05h-77.786v191.47q0 26.925 8.977 35.897 8.975 8.975 35.901 8.977 8.976 0 17.203-.748a144.807 144.807 0 0 0 15.705-2.246v82.273a252.843 252.843 0 0 1-29.918 2.99q-16.46.736-32.159.748a309.818 309.818 0 0 1-46.748-3.366q-22.067-3.362-38.89-13.087a69.187 69.187 0 0 1-26.553-27.673q-9.73-17.95-9.721-47.12V295.305h-64.323v-71.05h64.323v-115.93h106.203v115.93zm121.532 290.565a61.998 61.998 0 0 0 18.323 20.195 78.46 78.46 0 0 0 25.803 11.59 121.007 121.007 0 0 0 30.29 3.743 113.262 113.262 0 0 0 23.562-2.617 80.138 80.138 0 0 0 22.438-8.23 50.918 50.918 0 0 0 16.825-14.956q6.737-9.344 6.732-23.562 0-23.926-31.786-35.901-31.798-11.951-88.63-23.93-23.189-5.228-45.246-12.344a154.116 154.116 0 0 1-39.267-18.695 90.73 90.73 0 0 1-27.673-29.17q-10.484-17.564-10.47-43.005 0-37.392 14.585-61.332a107.558 107.558 0 0 1 38.515-37.77 168.958 168.958 0 0 1 53.852-19.444 332.167 332.167 0 0 1 61.328-5.612 306.775 306.775 0 0 1 60.956 5.984q29.54 5.994 52.728 20.196a121.13 121.13 0 0 1 38.518 37.77q15.325 23.558 18.327 59.46h-100.972q-2.245-30.663-23.185-41.509-20.945-10.834-49.362-10.846a183.142 183.142 0 0 0-19.447 1.12 64.86 64.86 0 0 0-19.072 4.863 39.31 39.31 0 0 0-14.584 10.842q-5.994 7.123-5.984 19.076 0 14.214 10.47 23.186 10.467 8.975 27.3 14.584a340.61 340.61 0 0 0 38.52 10.094q21.68 4.491 44.126 9.726a452.83 452.83 0 0 1 45.25 12.712 149.289 149.289 0 0 1 39.264 19.82 96.072 96.072 0 0 1 27.676 30.666q10.46 18.337 10.47 45.25 0 38.141-15.333 63.946a122.724 122.724 0 0 1-40.015 41.509q-24.681 15.705-56.466 22.065a329.895 329.895 0 0 1-64.698 6.356 320.11 320.11 0 0 1-65.815-6.732q-32.166-6.73-57.218-22.437a128.191 128.191 0 0 1-41.133-41.509q-16.091-25.803-17.578-64.694h100.972q0 17.214 7.104 29.541zm295.791-180.996q14.197-37.76 40.388-64.323 26.172-26.54 62.826-41.136 36.631-14.583 82.269-14.585 45.612 0 82.645 14.585 37.024 14.589 63.201 41.136 26.172 26.558 40.388 64.323 14.196 37.772 14.209 84.142 0 46.38-14.209 83.765-14.22 37.41-40.388 63.946-26.19 26.558-63.201 40.765-37.018 14.196-82.645 14.208-45.626 0-82.27-14.208-36.655-14.203-62.825-40.765-26.19-26.54-40.388-63.946-14.22-37.392-14.212-83.765 0-46.368 14.212-84.142zm96.482 129.388a120.264 120.264 0 0 0 15.333 39.64 81.504 81.504 0 0 0 28.793 28.049q17.95 10.484 44.875 10.47 26.926 0 45.25-10.47a80.744 80.744 0 0 0 29.17-28.05 120.622 120.622 0 0 0 15.333-39.639 226.489 226.489 0 0 0 4.487-45.246 232.236 232.236 0 0 0-4.487-45.624 116.602 116.602 0 0 0-15.333-39.639 85.207 85.207 0 0 0-29.17-28.049q-18.337-10.834-45.25-10.846-26.926 0-44.875 10.846a86.1 86.1 0 0 0-28.793 28.049 116.268 116.268 0 0 0-15.333 39.64 231.929 231.929 0 0 0-4.491 45.623 226.19 226.19 0 0 0 4.49 45.246zm440.517-238.957v53.847h2.246q20.196-33.656 52.355-48.989 32.146-15.318 65.815-15.333 42.63 0 69.933 11.595 27.288 11.601 43.006 32.16 15.705 20.582 22.06 50.109 6.35 29.558 6.36 65.447v237.837h-106.206V392.534q0-47.852-14.957-71.426-14.97-23.558-53.104-23.558-43.386 0-62.825 25.803-19.46 25.804-19.448 84.887v202.688h-106.203V224.255zm652.928-147.344v534.017H4335.25V76.911zm86.759 256.913q14.196-37.76 40.388-64.323 26.172-26.54 62.826-41.136 36.631-14.583 82.268-14.585 45.613 0 82.645 14.585 37.024 14.589 63.202 41.136 26.171 26.558 40.388 64.323 14.196 37.772 14.208 84.142 0 46.38-14.208 83.765-14.22 37.41-40.388 63.946-26.19 26.558-63.202 40.765-37.017 14.196-82.645 14.208-45.625 0-82.268-14.208-36.656-14.203-62.826-40.765-26.19-26.54-40.388-63.946-14.22-37.392-14.212-83.765 0-46.368 14.212-84.142zm96.482 129.388a120.264 120.264 0 0 0 15.333 39.64 81.504 81.504 0 0 0 28.793 28.049q17.95 10.484 44.874 10.47 26.926 0 45.251-10.47a80.744 80.744 0 0 0 29.17-28.05 120.623 120.623 0 0 0 15.333-39.639 226.49 226.49 0 0 0 4.486-45.246 232.237 232.237 0 0 0-4.486-45.624 116.602 116.602 0 0 0-15.333-39.639 85.207 85.207 0 0 0-29.17-28.049q-18.337-10.834-45.25-10.846-26.927 0-44.875 10.846a86.1 86.1 0 0 0-28.793 28.049 116.268 116.268 0 0 0-15.333 39.64 231.929 231.929 0 0 0-4.491 45.623 226.19 226.19 0 0 0 4.49 45.246zm275.227-287.574V76.91h437.536v98.727H5188.62v435.29h-117.426v-435.29zm326 386.412v-6.786h48.408v6.785h-20.176v53.746h-8.053V562.05zm66.297-6.786l19.076 50.867 19.157-50.867h11.022v60.531h-7.632V565.44h-.167l-18.908 50.355h-6.867l-18.904-50.355h-.167v50.355h-7.632v-60.53z"/></svg>