<svg xmlns="http://www.w3.org/2000/svg" role="img" viewBox="-5.93 -5.68 295.36 229.36"><title>IBM Watson IoT logo</title><defs><style>.cls-1{fill:#3eb2da}.cls-2{fill:#174c6a}.cls-3{fill:#a2c76f}.cls-4{fill:#deeef3}.cls-5{fill:#f0faf7}</style></defs><path d="M88.365 134.543c-20.133-28.898-13.24-61.605 6.307-81.02 19.164-19.032 48.932-23.384 72.418-10.68 24.102 13.037 37.208 40.547 31.803 66.754-8.805 42.683-57.56 63.292-94.275 39.848q-1.985-1.268-3.964-2.544l-12.289-12.358zm89.456-51.18c-1.925 4.23 1.87 5.853 3.548 8.868a12.026 12.026 0 0 0 2.804-7.652c1.909-.887 1.342-2.533 1.238-4.036 1.68-13.511-1.021-18.882-12.846-25.541-2.214-3.83-13.527-10.308-19.228-11.01-7.367-2.277-7.455 4.306-9.844 8.087-1.838 2.594.549 2.459 1.923 2.979a20.307 20.307 0 0 0 10.181 6.647 2.94 2.94 0 0 0 2.631 1.551c2.766 4.563 5.943 9.18 11.353 10.206 4.33.821 6.826 2.703 8.267 6.543l-.027 3.358zm-51.354 68.856l4.808.391c10.091 3.044 19.486-.098 28.879-3.253 3.606-3.12 9.165-3.223 11.899-7.695 11.145-5.313 15.83-20.155 8.522-34.437-3.302 3.676-6.654 7.248-9.79 11-.888 1.064-2.343 1.788-1.999 3.916 1.007 6.222-2.336 8.808-8.232 8.962-7.075.185-12.184 4.179-16.873 8.922a5.856 5.856 0 0 0-4.372 2.87l-1.74.155c-1.488-1.834-2.93-1.21-4.36.081-1.975.382-3.952.755-5.925 1.147-1.907.379-4.542.03-4.8 2.68-.253 2.62.912 4.828 3.983 5.26zm-10.673-27.209c2.916-2.646 2.656-6.33 1.495-9.153-1.02-2.48-4.416-.926-6.753-.98-6.667-.155-13.338-.16-20.008-.224-6.02-1.122-5.737 2.67-4.34 6.246.678 1.738 1.79 4.077 4.3 4.561 2.651 7.455 7.02 13.214 15.364 14.49 3.141.48 7.948 2.472 9.127-1.092 1.296-3.917 3.725-9.091-.774-13.174l1.589-.674zm45.746-43.852c3.356-4.415-.472-6.257-3.06-8.544l-3.708-3.61c-3.65-2.614-7.258-5.292-10.973-7.811-1.463-.993-3.092-1.913-4.84-.182-3.388 3.354-5.255 15.307-3.035 19.828 2.35 4.789 1.486 9.582-3.082 11.65-5.63 2.548-6.746 6.704-7.023 11.822-.083 1.521-2.033 3.615.907 4.452 2.083.592 3.452-.635 4.34-2.36 1.571-3.053 4.553-4.513 7.278-3.44 4.55 1.79 7.912 2.661 13.484 1.237 5.88-1.502 12.404-2.653 18.63-3.92 2.32-.473 6.571-.645 6.214-3.593-.388-3.197-2.001-7.339-6.252-7.958-4.008-.583-6.16-3.399-8.736-5.831zm-11.848 30.498l-4.457.782c-3.436 2.626-6.855 4.775-11.577 2.949-8.333-3.222-10.22-1.9-10.451 6.784-2.418 3.18-.109 7.072-1.619 10.468-.901 2.028-1.448 4.751.413 6.312 1.816 1.524 4.297-.116 6.486-.275 1.843-.134 2.328-2.79 4.434-2.636 2.613.715 4.482-.447 6.037-2.395 1.366-.198 2.938.132 3.763-1.462 5.851-1.588 10.596-3.959 11.641-11.042.569-3.854 3.975-6.108 8.062-5.577 4.494.584 6.52-2.116 8.385-5.292.534-.91 1.302-2.193 1.021-2.961-.549-1.503-2.35-1.228-3.481-.895-6.199 1.821-12.827 2.128-18.657 5.24zM132.045 61.38c2.628-3.248 2.637-3.622.135-5.905-3.471-.986-6.895-2.206-10.422-2.916-13.54-2.724-22.584 1.46-28.738 13.083-2.87 2.223-5.442 4.634-5.41 8.669-1.737.257-1.744 1.755-2.217 2.983a48.385 48.385 0 0 0-2.646 25.651c.577 3.635 1.09 5.36 4.676 5.576l3.488.454c3.193 1.399 6.402 2.295 9.696.287l2.037-.108c5.64 1.785 11.755 2.869 16.258-1.404 3.793-3.598 2.574-15-.788-18.88l-.212-1.556c.241-3.427.355-7.764 3.562-9.042 7.99-3.184 7.736-10.876 10.58-16.892zm-15.272-15.372c4.97 1.232 9.619 1.578 13.46 3.52 6.25 3.16 8.549-.358 11.293-4.788 2.296-3.707 1.037-5.33-2.619-4.72-7.333 1.227-14.932 1.807-22.134 5.988zm73.02 72.007a27.458 27.458 0 0 0 4.375-15.285c.032-1.755.845-4.105-.646-5.096-1.856-1.234-3.674.798-5.463 1.55-2.296.963-2.668 2.753-2.056 4.962 1.163 4.194 2.297 8.397 3.79 13.87zm-1.907-24.6c5.77-2.337 7.106-5.046 2.987-9.297-2.377 2.495-2.187 5.629-2.987 9.296z" class="cls-1"/><path d="M145.524 201.378c-1.028 3.695-2.208 7.356-3.039 11.095-.723 3.254-1.958 5.018-5.813 5.016-3.974-.003-4.767-2.005-5.584-5.189a65.038 65.038 0 0 0-6.471-16.334c-1.285 5.31-2.597 10.615-3.845 15.934-.676 2.88-.954 5.568-5.231 5.594-3.972.023-5.492-1.365-6.377-5.102-2.339-9.878-5.16-19.64-7.638-29.486-.388-1.544-2.644-4.291 1.159-4.541 2.557-.169 6.1-1.704 7.1 2.828 1.408 6.383 2.986 12.73 4.85 20.604 3.678-6.6 4.272-12.786 5.814-18.585.846-3.183 1.611-5.103 5.58-5.152 4.204-.051 4.73 2.41 5.39 5.366 1.125 5.038 2.322 10.06 3.593 15.54 4.791-2.852 4.547-7.874 5.827-12.099.588-1.941.995-3.938 1.461-5.916 1.068-4.529 4.805-2.914 7.186-2.486 3.375.607 1.042 3.292.472 4.753a10.655 10.655 0 0 0-.692 4.57l-3.742 13.59z" class="cls-2"/><path d="M52.775 178.845l11.91 30.476c4.885-7.58 6.514-15.264 9.678-22.242a52.271 52.271 0 0 0 2.547-6.188c.91-2.976 2.834-3.84 5.675-3.297 2.94.562 2.332 2.95 2.344 4.85q.094 15.25.012 30.502c-.009 1.97.268 4.533-2.802 4.331-2.61-.171-2.107-2.545-2.125-4.232-.072-6.598-.03-13.196-1.013-19.927-5.03 5.997-6.693 13.243-9.74 19.82-.956 2.066-1.308 4.567-4.23 4.493-2.917-.074-3.192-2.656-4.075-4.712-3.06-7.122-4.81-14.855-10.717-21.147 0 7.036-.022 14.071.011 21.106.012 2.61.118 5.19-3.696 4.833-.17-11.165-.192-22.335-.568-33.493-.18-5.362 1.804-7.016 6.789-5.173z" class="cls-3"/><path d="M266.37 190.45a.911.911 0 0 0 .961-.692q2.173-.923 4.345-1.842c10.191.808 12.046 2.767 12.148 12.901.034 3.384.142 6.775-.03 10.15-.14 2.777 1.567 6.644-4.023 6.45-5.581-.192-3.502-4.156-3.74-6.841-.279-3.134.032-6.316-.107-9.469-.145-3.294-.645-6.566-5.073-6.492-4.146.07-5.201 3.085-5.458 6.436a43.875 43.875 0 0 0-.093 9.455c.843 5.897-1.9 7.579-7.138 6.977-1.255-8.417-.238-16.887-.603-25.324-.125-2.894 1.84-2.526 3.714-3.293 2.61-1.067 2.855 3.158 5.097 1.584zm-106.028-2.566c5.06.274 10.251.103 14.186 4.188l1.106 3.905c-.031 5.812-.203 11.629-.02 17.434.07 2.217.381 4.653-2.609 3.806-5.12-1.449-9.894.428-14.822.653a10.683 10.683 0 0 1-7.965-2.921 12.097 12.097 0 0 1 .143-10.999l.12-.133 4.165-2.489 2.692-.193c2.002-.573 4.566.249 5.758-2.327 1.34-.449 3.61.674 3.845-1.546.193-1.819-1.564-2.471-3.215-2.659a5.507 5.507 0 0 0-4.958 1.433c-2.586 1.72-6.011 2.832-8.024.707-1.962-2.071 1.226-4.286 2.412-6.334l2.869-1.466zm3.97 16.6c-2.44 1.058-6.932-.197-7.356 4.565-.26 2.927 2.122 3.571 4.558 3.53 3.765-.065 5.63-2.12 5.958-5.79.19-2.14-.73-2.865-3.16-2.305zm61.883-7.261c7.013-12.42 20.518-12.39 27.896.061l.616 1.666.001.088-.117 7.455c-1.833 6.214-5.233 10.684-12.258 11.331-7.152.66-12.736-1.575-16.022-8.307l-1.003-9.52a.52.52 0 0 0 .147-.834zm7.158 5.061c.03 5.056.998 9.4 6.63 9.573 5.297.162 6.703-3.962 6.737-8.328.034-4.457-.654-9-6.573-9.106-5.426-.097-6.475 3.888-6.794 7.861zm-31.038-13.083c6.937-1.51 13.731-2.47 19.249 3.694.878.98.721 2.003.999 3.02-.936 1.776-2.657 1.175-4.131 1.425-2.801.476-4.343-2.267-6.628-2.552-1.833-.23-4.78-1.84-5.63 1.262-.824 3.006 2.402 2.74 3.973 3.304a62.788 62.788 0 0 0 8.299 1.862l3.878 2.94 1.333 5.303c-4.299 9.363-12.925 11.306-24.081 5.426-.554-2.16-3.914-4.484-1.271-6.326 2.2-1.534 5.615-1.26 7.38 2.136a3.694 3.694 0 0 0 2.18 1.44c2.696.744 5.907 1.153 7-1.912 1.185-3.325-2.24-3.738-4.445-4.53-1.465-.526-3.043-.73-4.551-1.147-8.727-2.41-10.153-6.238-5.302-14.176l.149-.108z" class="cls-2"/><path d="M11.275 217.383c-.143-11.715-.27-23.43-.442-35.145-.04-2.787 1.127-4.176 4.01-4.132 5.185.08 10.395-.237 15.55.168 6.102.478 10.654 6.647 9.149 11.748-.466 1.58-1.24 3.321-3.055 2.927-1.92-.417-.681-2.023-.551-3.273.49-4.691-1.79-7.126-6.482-7.267-2.253-.068-4.562.273-6.755-.103-7.068-1.211-8.366 2.328-7.811 8.39.301 3.301 1.016 5.025 4.66 4.838 3.369-.173 6.77.27 10.137.091a10.515 10.515 0 0 1 10.168 14.825c-1.166 2.814-3.391 4.575-5.379 6.62-7.725.884-15.462.571-23.199.313zm12.462-18.661c-2.115 1.369-6.903-2.257-8.214 1.859a21.215 21.215 0 0 0 .156 12.61c1.152 3.318 5.637 1.03 8.6 1.532 6.633 1.125 13.388-2.368 12.842-9.25-.588-7.409-7.135-6.668-13.384-6.751z" class="cls-3"/><path d="M176.437 191.857l1.313-2.99c3.052.675 4.155-.722 3.927-3.63-.213-2.704-.029-4.805 3.756-4.746 3.422.053 4.376 1.532 4.109 4.55-.295 3.335 1.175 4.612 4.441 3.714l1.496 1.728c-.444 1.59.04 3.891-2.693 3.797-3.397-.116-3.64 2.254-3.177 4.495.845 4.083-2.86 9.95 2.32 11.979 4.378 1.713 2.99 4.05 3.015 6.674-4.473.248-9.05.984-12.69-2.691-.193-3.318-.5-6.634-.554-9.955-.08-5.023 1.077-10.478-5.263-12.925z" class="cls-2"/><path d="M194.944 217.428c-.026-2.623 1.363-4.961-3.014-6.674-5.182-2.028-1.476-7.896-2.32-11.979-.465-2.24-.221-4.611 3.176-4.495 2.733.094 2.25-2.206 2.693-3.797l5.088-.113c-4.85 7.938-3.425 11.766 5.302 14.176 1.508.417 3.086.62 4.551 1.147 2.206.792 5.63 1.205 4.445 4.53-1.093 3.065-4.304 2.656-7 1.912a3.694 3.694 0 0 1-2.18-1.44c-1.765-3.396-5.18-3.67-7.38-2.136-2.643 1.842.717 4.166 1.271 6.326-2.165-.283-2.834 2.158-4.632 2.543z" class="cls-4"/><path d="M82.36 52.608c-1.082 2.632-2.318 4.891-5.46 3.06-5.609-3.268-11.134-6.683-16.614-10.162a3.693 3.693 0 0 1-1.42-5.271 2.916 2.916 0 0 1 4.104-1.209c6.17 3.623 12.231 7.432 18.261 11.285.622.397.772 1.532 1.129 2.297zm59.485-38.84c0 2.928.115 5.862-.037 8.782-.114 2.203-1.256 4.137-3.61 4.104-2.27-.031-3.609-1.796-3.636-4.092-.076-6.306-.047-12.614-.008-18.92a3.377 3.377 0 0 1 3.284-3.627 3.421 3.421 0 0 1 3.958 3.62c.114 3.374.029 6.755.029 10.133zm-35.372 16.337c.075 2.5-.922 3.697-2.416 4.383a2.954 2.954 0 0 1-3.975-1.585q-4.6-8.952-8.835-18.088a3.358 3.358 0 0 1 1.521-4.627c1.611-.906 3.286-.802 4.118.794 3.396 6.509 6.598 13.12 9.587 19.123zm90.452 25.854a2.975 2.975 0 0 1-3.01-2.242 3.488 3.488 0 0 1 1.573-4.098c5.478-3.497 10.949-7.009 16.505-10.38a3.328 3.328 0 0 1 4.35.487 3.282 3.282 0 0 1 .966 3.656c-.761 1.98-18.137 12.743-20.384 12.577zm-13.31-41.984a126.266 126.266 0 0 1-9.402 19.4 2.891 2.891 0 0 1-3.691.813c-1.313-.585-2.364-1.896-1.944-3.237a91.813 91.813 0 0 1 9.487-20.117 2.716 2.716 0 0 1 3.626-.864c1.37.617 1.927 1.818 1.925 4.005z" class="cls-1"/><path d="M4.213 198.411c-.007 5.178.037 10.356-.035 15.533-.02 1.504.09 3.485-2.297 3.226-1.706-.186-1.848-1.756-1.851-3.12q-.045-16.207-.03-32.416c0-1.648.242-3.522 2.189-3.613 2.291-.108 1.99 2.024 2.007 3.506.062 5.628.025 11.256.017 16.884z" class="cls-3"/><path d="M153.155 190.409c-1.185 2.048-4.373 4.263-2.41 6.334 2.012 2.125 5.437 1.012 8.023-.707.202 2.861 2.426 2.564 4.328 2.772-1.192 2.576-3.756 1.754-5.758 2.327-4.051-5.409-7.914-1.66-11.814.243l3.742-13.59 3.89 2.621z" class="cls-4"/><path d="M218.445 201.216a62.787 62.787 0 0 1-8.298-1.862c-1.571-.565-4.797-.298-3.973-3.304.85-3.102 3.797-1.491 5.63-1.262 2.285.285 3.827 3.028 6.628 2.552 1.474-.25 3.195.35 4.13-1.424a2.847 2.847 0 0 1 2.676 1.26l.217 1.987a.52.52 0 0 1-.147.834l-1.44-.01c-2.316-1.835-4.35-2.424-5.422 1.23z" class="cls-5"/><path d="M254.591 206.493l.117-7.455c1.88-1.401 1.503-3.466 1.672-5.415.176-2.035-.916-4.943 2.055-5.544 2.829-.572 6.258-1.586 7.935 2.37-2.242 1.575-2.488-2.65-5.097-1.583-1.875.767-3.839.399-3.714 3.293.365 8.437-.652 16.907.603 25.324-4.237-2.673.519-8.269-3.57-10.99zm-60.608-17.738c-3.266.898-4.736-.379-4.441-3.713.267-3.02-.687-4.498-4.11-4.551-3.784-.059-3.968 2.042-3.755 4.746.228 2.908-.875 4.305-3.927 3.63.85-1.24 2.738-1.75 2.59-3.686-.28-3.697.688-5.81 5.137-5.795 4.299.016 6.354 1.292 5.868 5.752-.213 1.946 1.697 2.453 2.638 3.617zm-17.546 3.102c6.34 2.447 5.183 7.902 5.263 12.925.053 3.32.36 6.637.554 9.955-3.947-4.146-1.348-9.202-1.721-13.8-.287-3.535-.979-5.536-4.9-4.96l-1.105-3.905 1.909-.215zm-88.072-57.314q6.144 6.18 12.289 12.358c-6.517-1.712-10.684-5.761-12.289-12.357zm135.504 65.444l1.439.01 1.003 9.52-2.654-.058-1.333-5.304c1.681-.957 1.5-2.605 1.545-4.168zm-73.508 3.963a12.097 12.097 0 0 0-.143 10.999c-3.743-3.716-3.81-7.383.143-10.999zm4.284-2.622l-4.164 2.49c.35-2.567 2.18-2.658 4.165-2.49zm117.03-13.412l-4.344 1.842c.733-2.298 2.546-2.052 4.345-1.842zm-111.333-.032l-4.317 1.059c1.15-1.53 2.728-1.316 4.317-1.059zm65.113 11.279l-.217-1.987q.479.02.957.047zm29.252-.213l-.616-1.666z" class="cls-4"/><path d="M161.685 82.898c2.575 2.432 4.727 5.248 8.734 5.831 4.252.62 5.865 4.761 6.253 7.958.357 2.948-3.894 3.12-6.213 3.592-6.227 1.268-12.75 2.419-18.63 3.921-5.573 1.424-8.935.554-13.485-1.237-2.725-1.073-5.707.388-7.278 3.44-.888 1.725-2.257 2.952-4.34 2.36-2.94-.837-.99-2.93-.907-4.452.277-5.118 1.393-9.274 7.023-11.822 4.568-2.068 5.432-6.861 3.082-11.65-2.22-4.52-.353-16.474 3.035-19.828 1.748-1.73 3.376-.81 4.84.182 3.715 2.519 7.322 5.197 10.971 7.808-.404 3.347-.8 6.697-1.212 10.046-.282 2.29-2.057 3.7-3.682 2.385-4.968-4.02-7.63-.21-11.47 3.174 3.669-1.038 4.778 5.02 8.603 1.573 1.357-1.222 3.064-2.718 4.49-.54a3.563 3.563 0 0 1-.953 4.842c-3.125 2.482-1.953 4.94-.096 7.576 1.469 2.083 2.988.439 4.083-.001 3.109-1.248 3.455-3.722 2.168-6.677-2.192-5.032-.14-7.688 4.983-8.481z" class="cls-5"/><path fill="#fcfdfd" d="M93.02 65.642c6.154-11.623 15.198-15.807 28.738-13.083 3.527.71 6.95 1.93 10.413 2.911-6.226 5.645-12.55 11.109-20.883 13.524-2.101.609-5.031 1.056-5.309 3.486-.888 7.771-8.082 10.995-11.115 17.925-3.616-8.788-2.646-16.78-1.844-24.763z"/><path d="M143.679 140.023c4.691-4.74 9.8-8.735 16.875-8.92 5.896-.154 9.24-2.74 8.232-8.962-.344-2.128 1.11-2.852 1.999-3.915 3.136-3.753 6.488-7.325 9.79-11 7.308 14.28 2.623 29.123-8.52 34.436-9.58 1.562-19.162 3.156-28.376-1.639z" class="cls-5"/><path d="M93.02 65.642c-.802 7.982-1.772 15.975 1.844 24.763 3.033-6.93 10.227-10.153 11.115-17.925.278-2.43 3.208-2.877 5.31-3.486 8.332-2.415 14.656-7.879 20.882-13.524 2.51 2.288 2.502 2.662-.127 5.91-6.882 3.203-15.05 4.807-16.96 14.076a3.896 3.896 0 0 1-3.367 2.987c-7.595.66-8.972 7.26-13.513 12.563 7.795-.093 13.385-3.833 19.698-3.693l.212 1.556c-2.509.903-5.01 1.827-7.526 2.706-13.569 4.736-13.57 4.732-7.944 17.58l-2.038.105-6.199-8.393c-1.762 2.763-3.125 5.197-3.496 8.108l-3.483-.453c2.776-4.638-2.197-11.046 3.434-15.12.355-.257.107-1.833-.287-2.565-2.807-5.2-2.421-10.941-2.964-16.526-.033-4.035 2.538-6.446 5.409-8.669z" class="cls-3"/><path d="M172.565 55.002c11.825 6.659 14.526 12.03 12.848 25.54q-3.78-.265-7.562-.527c-1.444-3.85-3.94-5.732-8.27-6.553-5.41-1.026-8.587-5.643-11.351-10.207 1.185-10.348 1.185-10.342 11.685-8.515.872.151 1.766.178 2.65.262zm-58.358 70.686c4.497 4.079 2.068 9.253.772 13.17-1.18 3.564-5.986 1.573-9.127 1.092-8.344-1.276-12.713-7.035-15.363-14.49l.23-9.656c5.27.43 10.68-.735 15.798 1.408.373 4.812 1.148 9.26 7.69 8.476zm-11.563-16.534c-5.626-12.847-5.625-12.843 7.944-17.579 2.517-.879 5.017-1.803 7.526-2.706 3.362 3.881 4.58 15.283.788 18.881-4.503 4.273-10.618 3.189-16.258 1.404zm36.318 24.493c-1.559 1.946-3.428 3.108-6.04 2.393-3.146-4.688-11.857-5.477-9.715-13.87.231-8.682 2.118-10.005 10.45-6.783 4.723 1.826 8.142-.323 11.578-2.947.803 7.927-5.06 13.88-6.273 21.207zm-21.06-46.334c-6.313-.14-11.903 3.6-19.698 3.693 4.54-5.303 5.918-11.902 13.513-12.563a3.896 3.896 0 0 0 3.367-2.987c1.91-9.27 10.078-10.873 16.96-14.076-2.844 6.017-2.59 13.708-10.58 16.892-3.207 1.278-3.321 5.614-3.562 9.041zm31.79 24.343c5.83-3.112 12.458-3.419 18.657-5.24 1.131-.333 2.932-.608 3.481.895.281.768-.487 2.051-1.02 2.96-1.866 3.177-3.892 5.877-8.386 5.293-4.087-.53-7.493 1.723-8.062 5.577-1.045 7.083-5.79 9.455-11.642 11.04 2.625-6.74 5.95-13.241 6.972-20.525z" class="cls-5"/><path d="M161.685 82.898c-5.125.793-7.176 3.449-4.984 8.481 1.287 2.955.94 5.429-2.168 6.677-1.095.44-2.614 2.084-4.083.001-1.857-2.635-3.029-5.094.096-7.576a3.563 3.563 0 0 0 .953-4.843c-1.426-2.177-3.133-.681-4.49.541-3.825 3.447-4.934-2.61-8.603-1.573 3.84-3.384 6.502-7.195 11.47-3.174 1.625 1.315 3.4-.095 3.682-2.385.413-3.349.808-6.7 1.212-10.046q1.857 1.81 3.711 3.613c-1.233 3.653-3.218 7.577 3.058 8.544z" class="cls-3"/><path d="M87.611 74.311c.543 5.585.157 11.326 2.964 16.526.394.732.642 2.308.287 2.565-5.63 4.074-.658 10.482-3.434 15.12-3.591-.216-4.104-1.942-4.681-5.577a48.385 48.385 0 0 1 2.646-25.65c.473-1.23.48-2.727 2.218-2.984z" class="cls-4"/><path d="M137.577 143.048l1.734-.153c6.324 4.172 14.296 3.019 20.843 6.462-9.393 3.155-18.788 6.297-28.878 3.253q3.152-4.781 6.3-9.562z" class="cls-5"/><path d="M172.565 55.002c-.883-.084-1.777-.11-2.65-.262-10.5-1.828-10.499-1.833-11.685 8.515a2.93 2.93 0 0 1-2.63-1.552c.768-5.844-.443-9.525-7.508-6.978a12.003 12.003 0 0 1-2.676.333c-1.374-.52-3.761-.385-1.921-2.978 4.021-1.797 12.184 1.447 9.842-8.089 5.701.703 17.014 7.181 19.228 11.011z" class="cls-3"/><path d="M116.773 46.008c7.202-4.18 14.801-4.76 22.134-5.987 3.656-.612 4.915 1.012 2.619 4.72-2.744 4.429-5.043 7.947-11.293 4.788-3.841-1.943-8.49-2.289-13.46-3.52z" class="cls-5"/><path d="M160.154 149.357c-6.547-3.443-14.52-2.29-20.843-6.462a5.85 5.85 0 0 1 4.369-2.871c9.213 4.794 18.796 3.2 28.375 1.638-2.736 4.472-8.295 4.574-11.901 7.695z" class="cls-3"/><path d="M189.793 118.015c-1.493-5.472-2.627-9.675-3.79-13.869-.612-2.209-.24-3.999 2.056-4.963 1.789-.751 3.607-2.783 5.463-1.549 1.49.991.678 3.341.646 5.096a27.458 27.458 0 0 1-4.375 15.285zm-66.586 4.156c-2.142 8.392 6.57 9.181 9.714 13.87-2.106-.154-2.59 2.5-4.434 2.635-2.19.16-4.67 1.799-6.486.275-1.86-1.561-1.314-4.283-.412-6.312 1.51-3.396-.8-7.288 1.618-10.468z" class="cls-4"/><path d="M149.692 111.656c-1.022 7.284-4.347 13.785-6.972 20.526-.824 1.595-2.396 1.265-3.76 1.464 1.215-7.327 7.078-13.279 6.275-21.206q2.228-.395 4.457-.784z" class="cls-3"/><path d="M106.517 117.212c-5.117-2.143-10.529-.978-15.797-1.407q-.097-.575-.192-1.152c6.67.064 13.34.069 20.008.224 2.337.054 5.733-1.5 6.753.98 1.16 2.823 1.421 6.507-1.498 9.158.441-6.796-2.673-9.37-9.274-7.803zm46.82-73.221c2.342 9.536-5.82 6.292-9.842 8.089 2.387-3.782 2.475-10.365 9.842-8.089z" class="cls-4"/><path d="M106.517 117.212c6.6-1.567 9.715 1.007 9.274 7.803-.527.22-1.057.445-1.585.671-6.541.786-7.316-3.662-7.69-8.474z" class="cls-3"/><path d="M126.467 152.219c-3.071-.433-4.236-2.641-3.982-5.262.257-2.649 2.892-2.3 4.8-2.679 1.972-.392 3.949-.765 5.92-1.148-1.49 3.59-4.277 6.219-6.738 9.089zm18.948-97.161a12.003 12.003 0 0 0 2.677-.333c7.065-2.547 8.276 1.134 7.507 6.978a20.283 20.283 0 0 1-10.183-6.645zm-54.504 53.917c.371-2.911 1.734-5.345 3.496-8.108l6.199 8.393c-3.293 2.01-6.502 1.114-9.695-.285z" class="cls-4"/><path d="M90.528 114.653q.094.577.192 1.152-.116 4.827-.23 9.655c-2.512-.484-3.624-2.823-4.303-4.56-1.396-3.577-1.68-7.37 4.34-6.247zm35.939 37.566c2.46-2.87 5.247-5.5 6.739-9.089 1.433-1.29 2.875-1.914 4.367-.081q-3.144 4.78-6.297 9.561l-4.81-.391z" class="cls-3"/><path d="M184.173 84.579a12.026 12.026 0 0 1-2.804 7.652c-1.678-3.015-5.473-4.638-3.548-8.869l6.352 1.217zm3.713 8.835c.8-3.667.61-6.801 2.987-9.296 4.12 4.251 2.783 6.96-2.987 9.296zM161.54 81.158c-6.277-.967-4.292-4.89-3.059-8.544 2.587 2.287 6.415 4.13 3.059 8.544z" class="cls-4"/><path d="M184.173 84.579l-6.352-1.217q.013-1.678.028-3.352 3.784.27 7.564.532c.102 1.504.669 3.15-1.24 4.037z" class="cls-3"/></svg>