<svg xmlns="http://www.w3.org/2000/svg" role="img" viewBox="-24.74 -24.74 1286.48 380.48"><title>Imperva logo</title><path fill="#295be5" d="M135.57 88.21c20-17.91 42.8-21.14 67.61-13.43a49.52 49.52 0 0 1 23.28 15.44c2.91 3.44 4.33 2.8 7.24.1 19.27-17.93 42.42-22.93 67.43-17.47 24.84 5.41 37.44 23.16 42.31 47.15a79 79 0 0 1 1.41 16c-.08 38.36-.13 76.72.07 115.08 0 4.92-1.07 6.56-6.26 6.39-12.63-.41-25.29-.36-37.93 0-4.95.14-6.46-1.1-6.42-6.27.25-33.43.11-66.86.14-100.29a56.72 56.72 0 0 0-1.8-15.26c-3.76-13.65-14-20.77-27.19-19.11-14.61 1.85-25.09 12.55-25.14 26.22-.12 34.93 0 69.86 0 104.79 0 9.81 0 9.81-9.79 9.81-11.15 0-22.31-.36-33.43.14-6.16.27-8.27-1-8.18-7.81.44-32.78.16-65.57.23-98.36a68.64 68.64 0 0 0-1.43-14.68c-2.91-13.54-13.39-21.51-26.35-20.26-15.16 1.46-26.36 12.5-26.41 26.51-.11 35.36 0 70.72 0 106.08 0 8.38 0 8.38-8.63 8.38-12.65 0-25.3-.13-37.94.08-3.63.05-4.7-1-4.69-4.66q.17-86.79 0-173.58c0-3.83 1.36-4.56 4.81-4.52 13.29.17 26.59.33 39.87-.06 5.32-.15 7.37 1.31 6.68 6.71-.36 2.12-.77 4.53.51 6.88zm291.76 1.03c9.9-9.18 20.28-15.05 32.3-17.05 30.87-5.12 56.83 3.9 76.36 28.68 28.46 36.13 27.08 98.15-2.32 133.51-25.56 30.74-76.2 36.61-104.1 10.32a10.64 10.64 0 0 0-2.24-1.07v36.82c0 15.41-.16 30.84.1 46.25.07 4.31-1.31 5.37-5.42 5.29-12.85-.25-25.71-.38-38.55.05-5.41.18-6.64-1.37-6.63-6.68q.27-117.9.13-235.79c0-14.86 0-14.86 14.88-14.86 9.64 0 19.29.33 28.91-.13 5.34-.25 7.48 1.22 6.63 6.64-.32 2.08-.05 4.23-.05 8.02zm0 76.48c0 8.35.16 16.7-.07 25a16.53 16.53 0 0 0 3.51 10.73c16.69 23 52.82 20.79 66.89-4.73 11.1-20.13 11-41.28 0-61.39-13.48-24.59-47.79-27.71-65.27-6.68-3.41 4.11-5.4 8.39-5.08 14 .35 7.64.02 15.37.02 23.07zm758.38-12.92c1.78-22.94-7.46-34.21-29.59-37.16-19.36-2.57-37.44 1.25-54.56 10.33-1.65.88-3.31 1.74-5.9 3.09V87.49c0-2.44 2-3.13 3.7-3.91 32.11-14.7 65.08-18.36 98.38-5.2 27.07 10.69 38.72 32.91 39.26 60.8.73 37.9.21 75.82.39 113.73 0 4-1.61 4.5-4.94 4.46-12.43-.15-24.86-.29-37.28 0-6.18.16-11.36.2-8.79-9-22.14 12.88-44.77 15.24-68.26 8.83-25.91-7.07-41.19-25.91-43.38-52.61-1.82-22.23 11.22-43.26 33.45-53.8a83.2 83.2 0 0 1 32.87-7.84 89.1 89.1 0 0 1 44.65 9.85zm.13 48.11c1.91-7-1.88-11.86-7.45-15.29-15.06-9.24-30.91-10-46.35-1.55-14.32 7.83-14 26.72.52 34.17 15.12 7.73 30.59 7.15 45.29-1.7 5.55-3.34 9.66-7.97 7.99-15.63zm-456.45 4.13c0 12.3-.14 24.51.09 36.72.07 3.44-1.67 4.93-4.16 6.45-12 7.27-25.09 10.84-38.86 12.24-17.63 1.8-35.12 1.33-52.08-4.51-25-8.6-43.09-24.85-51.79-49.88-11.63-33.46-9.68-66.39 8.94-97 30.16-49.6 96.18-45.92 124-19.76 15.64 14.73 22.65 33.34 25.46 54 1.3 9.59 1 19.24 1.28 28.87.15 4.75-1.61 5.56-5.88 5.54-34.94-.16-69.88-.09-104.82-.09-7.53 0-7.53 0-5.5 7.53 6 22.12 23.73 34.38 50.29 34.56 16.6.11 32.26-3.59 46.62-12.18 1.65-1 3.36-1.87 5.06-2.77.09-.08.35.07 1.35.28zm-68.72-60.59h29.52c2.3 0 4.6.55 4.54-3.36-.2-12.41-10.55-25.95-22.8-28.79-21.63-5-38.53 7.31-44.94 29-1.13 3.81 1.5 3.17 3.51 3.18 10.06-.03 20.11-.03 30.17-.03zm416.37-69.75c-11.68 30.79-22.94 60.54-34.25 90.27-10.94 28.77-22 57.47-32.78 86.31-1.67 4.47-3.54 6.32-8.55 6.16-12.84-.41-25.7-.2-38.55-.08-2.84 0-4.66-.43-5.81-3.49q-33.27-88.51-66.74-177a9.64 9.64 0 0 1 0-2.21h23.27c7.93 0 15.87.23 23.78-.09 4.12-.17 5.79 1.24 7.14 5.18 12.51 36.6 25.3 73.1 38 109.63.55 1.59 1.21 3.15 1.88 4.9 2.16-2.1 2.39-4.75 3.18-7.08q18.26-53.37 36.25-106.84c1.43-4.28 3.25-5.95 8-5.83 14.75.4 29.52.17 45.18.17zM819.77 91.54c3-3.27 5-5.72 7.23-7.82 14.22-13.08 31-15.24 49.13-11.26 2.1.46 3.85 1.28 3.83 4.19-.13 15.58-.06 31.15-.06 47.5-8.8-3.64-17.17-6-26.06-5.69-6.74.2-13.2 1.53-19 5-9.7 5.84-15.06 14.31-15.06 25.85 0 34-.11 68.08.12 102.12 0 4.92-1.38 6.09-6.1 6-13-.33-26.12-.25-39.18 0-4 .07-5.48-.77-5.47-5.19q.24-86.07 0-172.13c0-4 .72-5.59 5.17-5.48q19.9.47 39.83 0c4.49-.1 6.16 1.16 5.67 5.69-.32 3.26-.05 6.62-.05 11.22zM51.55 166.32c0 28.28-.15 56.57.13 84.86 0 5.19-1.49 6.36-6.41 6.24-13.49-.33-27-.22-40.5 0-3.54.05-4.77-.82-4.76-4.59q.18-86.77 0-173.57c0-3.75 1.19-4.64 4.75-4.59 13.93.18 27.86.28 41.79-.05 4.63-.11 5.08 1.78 5.07 5.6-.13 28.67-.07 57.38-.07 86.1z"/><path d="M51.54 26.33c0 6.86-.16 13.72.08 20.56.12 3.42-.56 4.83-4.43 4.76-14.14-.24-28.29-.19-42.43 0-3.42 0-4.83-.55-4.76-4.43C.24 33.08.2 18.94 0 4.8 0 1.39.56-.02 4.44.04c14.13.25 28.29.3 42.42 0 4.29-.1 4.88 1.46 4.74 5.12-.24 7.02-.06 14.1-.06 21.17zM1186 305.71c0-6.85.16-13.71-.07-20.56-.11-3.37.45-4.87 4.39-4.8q21.53.38 43.07 0c3.63-.06 4.15 1.29 4.12 4.41-.14 14.35-.2 28.71 0 43.06.06 3.63-1.29 4.14-4.41 4.11-14.36-.13-28.72-.19-43.08 0-3.62.06-4.19-1.29-4.11-4.42.22-7.22.09-14.51.09-21.8z"/></svg>