<svg xmlns="http://www.w3.org/2000/svg" role="img" viewBox="-6.95 8.80 413.66 227.16"><title>Industrial Internet Consortium logo</title><style>svg {enable-background:new 0 0 400 245}</style><style>.st1{stroke-miterlimit:10;stroke-linecap:round;fill:none;stroke:#a7a8a9;stroke-width:4.3424}.st4{fill:#a7a8a9}</style><path fill="#e1251b" d="M89.6 138.2l1.3-9.2-10.6-4.3c-.2-3-.8-6-1.8-8.8l8.1-8.4-4.9-7.8-11.1 3.6c-2-2-4.3-3.8-6.8-5.3l.8-12-8.8-2.8-6.4 10.2c-2.8-.2-5.5-.1-8.2.3l-7.3-10-8.5 3.5L27 99.7c-2.1 1.5-4.1 3.3-5.9 5.2l-12.3-3-4.3 8.2 9.3 8.3c-.4 1.4-.7 2.8-.9 4.3-.2 1.1-.3 2.3-.3 3.4l-11.4 5.6 2 9 12.4.4c1.1 2.4 2.5 4.7 4.1 6.8l-5 11.4L22 165l9.5-7.4c2.5 1.2 5.1 2.2 7.9 2.8l3.4 11.6 9.2-.4 2.4-11.4c2.9-.7 5.6-1.7 8.2-3.1l9.8 6.5 6.9-6.2-5.4-10.1c1.8-2.4 3.2-5 4.3-7.9l11.4-1.2zM43.2 151c-13.1-1.8-22.2-13.9-20.5-27 1.8-13.1 13.9-22.2 27-20.5 13.1 1.8 22.2 13.9 20.4 27-1.7 13.2-13.8 22.3-26.9 20.5z"/><path d="M32.1 29.4c16-11.1 37.2-13.8 56.3-5.4 19.1 8.5 31.3 26.1 33.7 45.4" class="st1"/><path d="M100 74.2c-1.6-12.3-9.3-23.5-21.5-29s-25.7-3.7-35.9 3.4m7.2 18.9c5.7-4 13.4-5 20.2-1.9 6.8 3.1 11.2 9.4 12.1 16.3" class="st1"/><path fill="#222" stroke="#222" stroke-miterlimit="10" stroke-width="1.086" d="M130.9 140.9l-2.2 1.7c-1.2-1.6-2.7-2.8-4.3-3.6-1.7-.8-3.6-1.2-5.6-1.2-2.2 0-4.3.5-6.2 1.6-1.9 1.1-3.3 2.5-4.4 4.3-1 1.8-1.6 3.8-1.6 6.1 0 3.4 1.2 6.2 3.5 8.5s5.2 3.4 8.8 3.4c3.9 0 7.2-1.5 9.8-4.6l2.2 1.7c-1.4 1.8-3.1 3.1-5.2 4.1-2.1 1-4.4 1.4-6.9 1.4-4.9 0-8.7-1.6-11.5-4.9-2.3-2.7-3.5-6-3.5-9.9 0-4.1 1.4-7.5 4.3-10.3s6.4-4.2 10.7-4.2c2.6 0 4.9.5 7 1.5 2.1 1.1 3.8 2.6 5.1 4.4zm21.6-5.8c4.2 0 7.7 1.4 10.6 4.2 2.8 2.8 4.2 6.3 4.2 10.4 0 4.1-1.4 7.5-4.2 10.4-2.8 2.8-6.3 4.2-10.4 4.2-4.1 0-7.6-1.4-10.4-4.2-2.8-2.8-4.2-6.2-4.2-10.2 0-2.7.6-5.1 1.9-7.4 1.3-2.3 3.1-4.1 5.3-5.4 2.2-1.4 4.6-2 7.2-2zm.1 2.7c-2.1 0-4 .5-5.9 1.6-1.8 1.1-3.3 2.5-4.3 4.3s-1.6 3.8-1.6 6.1c0 3.3 1.1 6.1 3.4 8.4 2.3 2.3 5.1 3.4 8.3 3.4 2.2 0 4.1-.5 6-1.6 1.8-1.1 3.3-2.5 4.3-4.3 1-1.8 1.5-3.8 1.5-6.1 0-2.2-.5-4.2-1.5-6s-2.5-3.2-4.3-4.3c-1.8-1-3.8-1.5-5.9-1.5zm23 25.8v-27.8h.6l18.5 21.3v-21.3h2.7v27.8h-.6l-18.3-21v21h-2.9zm28.5-5.2l2.4-1.4c1.7 3.1 3.6 4.6 5.8 4.6.9 0 1.8-.2 2.6-.6.8-.4 1.4-1 1.9-1.8s.6-1.5.6-2.3c0-.9-.3-1.9-.9-2.7-.9-1.2-2.5-2.7-4.8-4.5-2.3-1.8-3.8-3-4.3-3.8-1-1.3-1.5-2.7-1.5-4.2 0-1.2.3-2.3.9-3.3.6-1 1.4-1.8 2.4-2.4 1.1-.6 2.2-.9 3.4-.9 1.3 0 2.5.3 3.7 1s2.4 1.8 3.6 3.6l-2.3 1.7c-1.1-1.4-1.9-2.3-2.7-2.7-.7-.4-1.5-.7-2.4-.7-1.1 0-2 .3-2.8 1-.7.7-1.1 1.5-1.1 2.5 0 .6.1 1.2.4 1.8.2.6.7 1.2 1.4 1.9.4.4 1.6 1.3 3.6 2.8 2.4 1.8 4.1 3.4 4.9 4.7.9 1.4 1.3 2.8 1.3 4.2 0 2-.8 3.8-2.3 5.2-1.5 1.5-3.4 2.2-5.6 2.2-1.7 0-3.2-.4-4.6-1.4-1.1-.9-2.4-2.4-3.6-4.5zm38.1-23.3c4.2 0 7.7 1.4 10.6 4.2 2.8 2.8 4.2 6.3 4.2 10.4 0 4.1-1.4 7.5-4.2 10.4-2.8 2.8-6.3 4.2-10.4 4.2-4.1 0-7.6-1.4-10.4-4.2-2.8-2.8-4.2-6.2-4.2-10.2 0-2.7.6-5.1 1.9-7.4 1.3-2.3 3.1-4.1 5.3-5.4 2.2-1.4 4.6-2 7.2-2zm.2 2.7c-2.1 0-4 .5-5.9 1.6-1.8 1.1-3.3 2.5-4.3 4.3s-1.6 3.8-1.6 6.1c0 3.3 1.1 6.1 3.4 8.4s5.1 3.4 8.3 3.4c2.2 0 4.1-.5 6-1.6 1.8-1.1 3.3-2.5 4.3-4.3 1-1.8 1.5-3.8 1.5-6.1 0-2.2-.5-4.2-1.5-6-1-1.8-2.5-3.2-4.3-4.3-1.9-1-3.8-1.5-5.9-1.5zm23.1-2h5.5c3.1 0 5.2.1 6.3.4 1.6.4 3 1.2 4 2.4s1.5 2.8 1.5 4.6c0 1.5-.4 2.8-1.1 4-.7 1.1-1.7 2-3 2.6-1.3.6-3.1.9-5.5.9l10 12.9h-3.4l-10-12.9h-1.6v12.9h-2.8l.1-27.8zm2.8 2.7v9.4h4.8c1.9 0 3.2-.2 4.1-.5.9-.4 1.6-.9 2.1-1.7s.8-1.6.8-2.6c0-.9-.2-1.8-.8-2.5-.5-.8-1.2-1.3-2-1.6-.8-.3-2.2-.5-4.1-.5h-4.9zm20.6 0v-2.7h15.2v2.7h-6.2v25.1h-2.8v-25.1h-6.2zm21.5-2.7h2.8v27.8h-2.8v-27.8zm12 0h2.8v16.8c0 2 0 3.2.1 3.7.1 1.1.5 2 1 2.8s1.3 1.4 2.3 1.9c1 .5 2.1.8 3.1.8.9 0 1.8-.2 2.6-.6s1.5-.9 2.1-1.6 1-1.5 1.2-2.5c.2-.7.3-2.1.3-4.4v-16.8h2.8v16.8c0 2.5-.2 4.5-.7 6-.5 1.5-1.5 2.9-2.9 4-1.5 1.1-3.2 1.7-5.3 1.7-2.2 0-4.2-.5-5.8-1.6s-2.7-2.5-3.2-4.2c-.3-1.1-.5-3-.5-5.9l.1-16.9zm26.7 27.8l4-27.8h.5l11.3 22.8 11.2-22.8h.5l4 27.8h-2.7l-2.8-19.9-9.8 19.9h-.7l-9.9-20-2.7 20h-2.9z"/><path fill="#e1251b" stroke="#e1251b" stroke-miterlimit="10" stroke-width="1.086" d="M109.3 88.8c.6 0 1.1.2 1.5.6.4.4.6.9.6 1.5s-.2 1-.6 1.4c-.4.4-.9.6-1.5.6s-1-.2-1.4-.6c-.4-.4-.6-.9-.6-1.4 0-.6.2-1.1.6-1.5.4-.4.9-.6 1.4-.6zm-1.2 8h2.5v19.4h-2.5V96.8zm6.4 0h2.5v3.5c1-1.3 2.1-2.3 3.3-3 1.2-.7 2.5-1 4-1 1.4 0 2.7.4 3.9 1.1s1.9 1.7 2.5 3c.5 1.2.8 3.2.8 5.8v10H129V107c0-2.2-.1-3.7-.3-4.5-.3-1.3-.8-2.2-1.7-2.9-.8-.7-1.9-1-3.2-1-1.5 0-2.9.5-4.1 1.5-1.2 1-2 2.2-2.4 3.7-.2 1-.4 2.7-.4 5.3v7.1h-2.5l.1-19.4zm40.4-7.5v26.9h-2.5v-3.3c-1.1 1.3-2.2 2.2-3.5 2.9s-2.7 1-4.3 1c-2.8 0-5.1-1-7-3-1.9-2-2.9-4.4-2.9-7.3 0-2.8 1-5.2 2.9-7.2 2-2 4.3-3 7.1-3 1.6 0 3 .3 4.3 1 1.3.7 2.4 1.7 3.4 3.1V89.3h2.5zm-9.9 9.4c-1.4 0-2.7.3-3.9 1-1.2.7-2.1 1.6-2.8 2.9-.7 1.2-1 2.5-1 3.9s.4 2.7 1.1 3.9 1.6 2.2 2.8 2.9c1.2.7 2.4 1 3.8 1s2.7-.3 3.9-1c1.2-.7 2.2-1.6 2.8-2.8s1-2.5 1-4c0-2.2-.7-4.1-2.2-5.6-1.6-1.4-3.4-2.2-5.5-2.2zm14-1.9h2.5v9.1c0 2.2.1 3.7.4 4.6.4 1.2 1 2.1 2.1 2.8 1 .7 2.2 1 3.6 1s2.6-.3 3.6-1 1.6-1.6 2-2.7c.2-.8.4-2.3.4-4.8v-9.1h2.6v9.5c0 2.7-.3 4.7-.9 6.1-.6 1.3-1.6 2.4-2.8 3.2-1.3.8-2.8 1.2-4.7 1.2s-3.5-.4-4.7-1.2c-1.3-.8-2.2-1.8-2.8-3.2-.6-1.4-.9-3.4-.9-6.2v-9.3zm31.1 2.1l-1.6 1.7c-1.3-1.3-2.6-1.9-3.9-1.9-.8 0-1.5.3-2.1.8-.6.5-.9 1.2-.9 1.9 0 .6.2 1.2.7 1.8.5.6 1.5 1.3 3 2.1 1.9 1 3.1 1.9 3.8 2.8.7.9 1 1.9 1 3.1 0 1.6-.6 2.9-1.7 4.1s-2.5 1.7-4.2 1.7c-1.1 0-2.2-.2-3.2-.7-1-.5-1.9-1.2-2.5-2l1.6-1.8c1.3 1.4 2.6 2.2 4.1 2.2 1 0 1.9-.3 2.6-1 .7-.6 1.1-1.4 1.1-2.3 0-.7-.2-1.3-.7-1.9-.5-.6-1.5-1.2-3.1-2.1-1.8-.9-2.9-1.8-3.6-2.7-.6-.9-.9-1.9-.9-3 0-1.5.5-2.7 1.5-3.7s2.3-1.5 3.8-1.5c1.6-.2 3.4.7 5.2 2.4zm5.3-9.3h2.5v7.2h4V99h-4v17.2h-2.5V99H192v-2.2h3.4v-7.2zm8.1 7.2h2.6v2.8c.8-1.1 1.6-1.9 2.4-2.5.8-.6 1.7-.8 2.6-.8.7 0 1.4.2 2.2.7l-1.3 2.1c-.5-.2-1-.3-1.3-.3-.8 0-1.6.3-2.4 1-.8.7-1.4 1.8-1.8 3.2-.3 1.1-.5 3.3-.5 6.7v6.6h-2.6l.1-19.5zm11.5-8c.6 0 1.1.2 1.5.6.4.4.6.9.6 1.5s-.2 1-.6 1.4c-.4.4-.9.6-1.5.6s-1-.2-1.4-.6c-.4-.4-.6-.9-.6-1.4 0-.6.2-1.1.6-1.5.4-.4.9-.6 1.4-.6zm-1.2 8h2.5v19.4h-2.5V96.8zm25.8 0v19.4h-2.5v-3.3c-1.1 1.3-2.2 2.2-3.5 2.9s-2.7 1-4.3 1c-2.8 0-5.1-1-7-3-1.9-2-2.9-4.4-2.9-7.3 0-2.8 1-5.2 2.9-7.2 2-2 4.3-3 7.1-3 1.6 0 3 .3 4.3 1 1.3.7 2.4 1.7 3.4 3.1v-3.6h2.5zm-10 1.9c-1.4 0-2.7.3-3.9 1-1.2.7-2.1 1.6-2.8 2.9s-1 2.5-1 3.9.4 2.7 1.1 3.9 1.6 2.2 2.8 2.9c1.2.7 2.4 1 3.8 1s2.7-.3 3.9-1c1.2-.7 2.2-1.6 2.8-2.8s1-2.5 1-4c0-2.2-.7-4.1-2.2-5.6-1.5-1.4-3.3-2.2-5.5-2.2zm14-9.4h2.5v26.9h-2.5V89.3zm16.2-.5c.6 0 1 .2 1.5.6.4.4.6.9.6 1.5s-.2 1-.6 1.4c-.4.4-.9.6-1.5.6s-1-.2-1.4-.6c-.4-.4-.6-.9-.6-1.4 0-.6.2-1.1.6-1.5.3-.4.8-.6 1.4-.6zm-1.3 8h2.5v19.4h-2.5V96.8zm6.5 0h2.5v3.5c1-1.3 2.1-2.3 3.3-3 1.2-.7 2.5-1 4-1s2.7.4 3.9 1.1 2 1.7 2.5 3c.5 1.2.8 3.2.8 5.8v10h-2.5V107c0-2.2-.1-3.7-.3-4.5-.3-1.3-.8-2.2-1.7-2.9s-1.9-1-3.2-1c-1.5 0-2.9.5-4.1 1.5-1.2 1-2 2.2-2.4 3.7-.2 1-.4 2.7-.4 5.3v7.1H265V96.8zm23.2-7.2h2.5v7.2h4V99h-4v17.2h-2.5V99h-3.4v-2.2h3.4v-7.2zm25.3 20.2l2.1 1.1c-.7 1.4-1.5 2.4-2.4 3.3-.9.8-1.9 1.5-3 1.9-1.1.4-2.4.7-3.8.7-3.2 0-5.6-1-7.4-3.1-1.8-2.1-2.7-4.4-2.7-7 0-2.5.8-4.7 2.3-6.6 1.9-2.4 4.5-3.7 7.7-3.7 3.3 0 6 1.3 7.9 3.8 1.4 1.8 2.1 4 2.1 6.6h-17.5c0 2.2.8 4.1 2.2 5.5s3.1 2.2 5.2 2.2c1 0 2-.2 2.9-.5.9-.3 1.7-.8 2.4-1.4.5-.6 1.2-1.5 2-2.8zm0-5.2c-.3-1.3-.8-2.4-1.5-3.2-.6-.8-1.5-1.4-2.5-1.9s-2.1-.7-3.3-.7c-1.9 0-3.5.6-4.9 1.8-1 .9-1.8 2.2-2.3 4h14.5zm5.2-7.8h2.5v2.8c.8-1.1 1.6-1.9 2.4-2.5.8-.6 1.7-.8 2.6-.8.7 0 1.4.2 2.2.7l-1.3 2.1c-.5-.2-1-.3-1.3-.3-.8 0-1.6.3-2.4 1-.8.7-1.4 1.8-1.8 3.2-.3 1.1-.5 3.3-.5 6.7v6.6h-2.5l.1-19.5zm10.7 0h2.5v3.5c1-1.3 2.1-2.3 3.3-3 1.2-.7 2.5-1 4-1s2.7.4 3.9 1.1 2 1.7 2.5 3c.5 1.2.8 3.2.8 5.8v10h-2.5V107c0-2.2-.1-3.7-.3-4.5-.3-1.3-.8-2.2-1.7-2.9-.8-.7-1.9-1-3.2-1-1.5 0-2.9.5-4.1 1.5s-2 2.2-2.4 3.7c-.2 1-.4 2.7-.4 5.3v7.1h-2.5l.1-19.4zm37.4 13l2.1 1.1c-.7 1.4-1.5 2.4-2.4 3.3-.9.8-1.9 1.5-3 1.9-1.1.4-2.4.7-3.8.7-3.2 0-5.6-1-7.4-3.1-1.8-2.1-2.7-4.4-2.7-7 0-2.5.8-4.7 2.3-6.6 1.9-2.4 4.5-3.7 7.7-3.7 3.3 0 6 1.3 7.9 3.8 1.4 1.8 2.1 4 2.1 6.6h-17.5c0 2.2.8 4.1 2.2 5.5s3.1 2.2 5.2 2.2c1 0 2-.2 2.9-.5.9-.3 1.7-.8 2.4-1.4.5-.6 1.2-1.5 2-2.8zm0-5.2c-.3-1.3-.8-2.4-1.5-3.2-.6-.8-1.5-1.4-2.5-1.9s-2.1-.7-3.3-.7c-1.9 0-3.5.6-4.9 1.8-1 .9-1.8 2.2-2.3 4h14.5zm8.3-15h2.5v7.2h4V99h-4v17.2h-2.5V99h-3.4v-2.2h3.4v-7.2z"/><path d="M37.8 202.1l2.4 9.3c.5 2 1 3.9 1.3 5.8h.1c.4-1.8 1-3.8 1.6-5.8l3-9.3H49l2.8 9.1c.7 2.2 1.2 4.1 1.6 5.9h.1c.3-1.8.8-3.8 1.4-5.9l2.6-9.1h3.3L55 220.3h-3l-2.8-8.7c-.6-2-1.2-3.8-1.6-6h-.1c-.5 2.2-1 4.1-1.7 6l-2.9 8.6h-3L34.4 202l3.4.1zm28.1 0l2.4 9.3c.5 2 1 3.9 1.3 5.8h.1c.4-1.8 1-3.8 1.6-5.8l3-9.3h2.8l2.8 9.1c.7 2.2 1.2 4.1 1.6 5.9h.1c.3-1.8.8-3.8 1.4-5.9l2.6-9.1H89l-5.9 18.2h-3l-2.8-8.7c-.6-2-1.2-3.8-1.6-6h-.1c-.4 2.2-1 4.1-1.7 6l-2.9 8.6h-3L62.5 202l3.4.1zm28.2 0l2.4 9.3c.5 2 1 3.9 1.3 5.8h.1c.4-1.8 1-3.8 1.6-5.8l3-9.3h2.8l2.8 9.1c.7 2.2 1.2 4.1 1.6 5.9h.1c.3-1.8.8-3.8 1.4-5.9l2.6-9.1h3.3l-5.9 18.2h-3l-2.8-8.7c-.6-2-1.2-3.8-1.6-6h-.1c-.4 2.2-1 4.1-1.7 6l-2.9 8.6h-3L90.6 202l3.5.1zm24.1 16.2c0-1.4.9-2.4 2.3-2.4s2.2 1 2.2 2.4-.9 2.4-2.3 2.4c-1.3 0-2.2-1-2.2-2.4zm12.2-21.3c0 1.1-.8 2-2.1 2-1.2 0-2-.9-2-2 0-1.2.9-2.1 2.1-2.1 1.2 0 2 .9 2 2.1zm-3.7 23.3v-18.2h3.3v18.2h-3.3zm12.5-23.3c0 1.1-.8 2-2.1 2-1.2 0-2-.9-2-2 0-1.2.9-2.1 2.1-2.1 1.2 0 2 .9 2 2.1zm-3.7 23.3v-18.2h3.3v18.2h-3.3zm21.8-.7c-.9.4-2.8 1.1-5.2 1.1-5.5 0-9.1-3.7-9.1-9.3 0-5.6 3.8-9.7 9.8-9.7 2 0 3.7.5 4.6.9l-.8 2.6c-.8-.4-2-.9-3.8-.9-4.2 0-6.4 3.1-6.4 6.9 0 4.2 2.7 6.8 6.3 6.8 1.9 0 3.1-.5 4.1-.9l.5 2.5zm20.1-8.6c0 6.7-4.7 9.7-9.1 9.7-4.9 0-8.7-3.6-8.7-9.4 0-6.1 4-9.7 9-9.7 5.3.1 8.8 3.9 8.8 9.4zm-14.4.2c0 4 2.3 7 5.5 7s5.5-3 5.5-7.1c0-3.1-1.5-7-5.4-7-3.9 0-5.6 3.7-5.6 7.1zm18.6-4.2c0-1.9 0-3.4-.1-4.9h2.9l.2 3h.1c.9-1.7 3-3.4 6-3.4 2.5 0 6.4 1.5 6.4 7.8v10.9h-3.3v-10.5c0-2.9-1.1-5.4-4.2-5.4-2.2 0-3.9 1.5-4.4 3.4-.1.4-.2 1-.2 1.5v10.9h-3.3V207zm20.5 9.9c1 .6 2.7 1.3 4.4 1.3 2.4 0 3.5-1.2 3.5-2.7 0-1.6-.9-2.4-3.4-3.4-3.3-1.2-4.8-3-4.8-5.1 0-2.9 2.4-5.3 6.3-5.3 1.8 0 3.5.5 4.5 1.1l-.8 2.4c-.7-.4-2-1.1-3.7-1.1-2 0-3.1 1.1-3.1 2.5 0 1.5 1.1 2.2 3.5 3.1 3.2 1.2 4.8 2.8 4.8 5.5 0 3.2-2.5 5.5-6.8 5.5-2 0-3.8-.5-5.1-1.2l.7-2.6zm31.8-5.9c0 6.7-4.7 9.7-9.1 9.7-4.9 0-8.7-3.6-8.7-9.4 0-6.1 4-9.7 9-9.7 5.2.1 8.8 3.9 8.8 9.4zm-14.5.2c0 4 2.3 7 5.5 7s5.5-3 5.5-7.1c0-3.1-1.5-7-5.5-7-3.8 0-5.5 3.7-5.5 7.1zm18.6-3.4c0-2.1 0-4-.1-5.7h2.9l.1 3.6h.1c.8-2.4 2.8-4 5-4 .4 0 .6 0 .9.1v3.1c-.3-.1-.7-.1-1.1-.1-2.3 0-4 1.8-4.4 4.2-.1.4-.1 1-.1 1.5v9.7H238v-12.4zm17.2-10.9v5.2h4.7v2.5h-4.7v9.8c0 2.3.6 3.5 2.5 3.5.9 0 1.5-.1 1.9-.2l.1 2.5c-.6.3-1.7.4-2.9.4-1.5 0-2.8-.5-3.6-1.4-.9-1-1.3-2.6-1.3-4.7v-9.9h-2.8v-2.5h2.8v-4.4l3.3-.8zm12.2.1c0 1.1-.8 2-2.1 2-1.2 0-2-.9-2-2 0-1.2.9-2.1 2.1-2.1 1.2 0 2 .9 2 2.1zm-3.7 23.3v-18.2h3.3v18.2h-3.3zm24-5c0 1.9 0 3.5.1 5h-2.9l-.2-3h-.1c-.9 1.5-2.8 3.4-6 3.4-2.9 0-6.3-1.6-6.3-8v-10.6h3.3v10.1c0 3.5 1 5.8 4.1 5.8 2.2 0 3.8-1.5 4.4-3 .2-.5.3-1.1.3-1.7v-11.2h3.3v13.2zm5.5-8.3c0-1.9 0-3.4-.1-4.9h2.9l.1 2.9h.1c1-1.7 2.7-3.4 5.7-3.4 2.5 0 4.4 1.5 5.1 3.6h.1c.6-1 1.3-1.8 2-2.4 1.1-.8 2.3-1.3 4-1.3 2.4 0 6 1.6 6 7.9v10.7H316V210c0-3.5-1.3-5.6-4-5.6-1.9 0-3.4 1.4-3.9 3-.1.4-.3 1.1-.3 1.6v11.2h-3.2v-10.9c0-2.9-1.3-5-3.8-5-2.1 0-3.6 1.7-4.1 3.3-.2.5-.3 1.1-.3 1.6v11h-3.2V207zm30.6 11.3c0-1.4.9-2.4 2.3-2.4s2.2 1 2.2 2.4-.9 2.4-2.3 2.4c-1.3 0-2.2-1-2.2-2.4zm25.1-7.3c0 6.7-4.7 9.7-9.1 9.7-4.9 0-8.7-3.6-8.7-9.4 0-6.1 4-9.7 9-9.7 5.2.1 8.8 3.9 8.8 9.4zm-14.5.2c0 4 2.3 7 5.5 7s5.5-3 5.5-7.1c0-3.1-1.5-7-5.5-7-3.8 0-5.5 3.7-5.5 7.1zm18.6-3.4c0-2.1 0-4-.1-5.7h2.9l.1 3.6h.1c.8-2.4 2.8-4 5-4 .4 0 .6 0 .9.1v3.1c-.3-.1-.7-.1-1.1-.1-2.3 0-4 1.8-4.4 4.2-.1.4-.1 1-.1 1.5v9.7H353v-12.4zm27.7-5.7c-.1 1.3-.1 2.8-.1 5v10.6c0 4.2-.8 6.7-2.6 8.3-1.8 1.7-4.3 2.2-6.6 2.2-2.2 0-4.6-.5-6.1-1.5l.8-2.5c1.2.8 3.1 1.4 5.3 1.4 3.4 0 5.9-1.8 5.9-6.4v-2h-.1c-1 1.7-3 3.1-5.8 3.1-4.5 0-7.8-3.8-7.8-8.9 0-6.2 4-9.7 8.2-9.7 3.2 0 4.9 1.6 5.7 3.2h.1l.1-2.8h3zm-3.4 7.2c0-.6 0-1.1-.2-1.5-.6-1.9-2.2-3.5-4.6-3.5-3.2 0-5.4 2.7-5.4 6.9 0 3.6 1.8 6.6 5.4 6.6 2 0 3.9-1.3 4.6-3.4.2-.6.3-1.2.3-1.8l-.1-3.3z" class="st4"/><path d="M62 16.9h4.9c-3.1-.1-4.9 0-4.9 0zm319.7.1l-314.8-.1c12.7.7 46.1 7.1 53.5 54.9h261.3l-31.5-27.3L381.7 17z" class="st4"/><path d="M398.8 87.2c0 4-3.2 7.2-7.3 7.2s-7.3-3.2-7.3-7.2c0-3.9 3.3-7.1 7.3-7.1 4.1 0 7.3 3.2 7.3 7.1zm-12.9 0c0 3.2 2.3 5.7 5.6 5.7 3.1 0 5.4-2.5 5.4-5.6 0-3.2-2.3-5.7-5.5-5.7-3.1 0-5.5 2.5-5.5 5.6zm4.4 3.8h-1.6v-7.1c.6-.1 1.6-.2 2.7-.2 1.4 0 2 .2 2.5.5.4.3.7.9.7 1.6 0 .8-.6 1.4-1.5 1.7v.1c.7.3 1.1.8 1.3 1.7.2 1.1.4 1.5.5 1.8h-1.8c-.2-.3-.4-.9-.6-1.7-.1-.8-.6-1.1-1.5-1.1h-.8l.1 2.7zm.1-4.1h.8c.9 0 1.6-.3 1.6-1s-.5-1.1-1.5-1.1c-.4 0-.7 0-.9.1v2z" class="st4"/><path fill="none" d="M147 26.4h218.6v45.2H147z"/><path fill="#fff" d="M167.8 57.6c0 .5 0 .9-.1 1.2 0 .3-.1.6-.2.8-.1.2-.2.4-.3.5-.1.1-.3.1-.4.1h-14.5c-.5 0-1-.2-1.4-.5-.4-.3-.5-.8-.5-1.5V29.6c0-.2.1-.3.2-.4.1-.1.3-.2.5-.3.2-.1.6-.1 1-.2s.9-.1 1.5-.1 1.2 0 1.6.1c.4 0 .7.1 1 .2.2.1.4.2.5.3.1.1.2.3.2.4V55h9.9c.2 0 .3 0 .4.1.1.1.2.2.3.4.1.2.1.5.2.8.1.4.1.8.1 1.3zm10.2 1.8c0 .2-.1.3-.2.4-.1.1-.3.2-.5.3-.2.1-.6.1-1 .2-.4 0-.9.1-1.6.1-.6 0-1.1 0-1.5-.1s-.7-.1-1-.2c-.2-.1-.4-.2-.5-.3-.1-.1-.2-.3-.2-.4V29.6c0-.2.1-.3.2-.4.1-.1.3-.2.5-.3.3-.1.6-.1 1-.2.4 0 .9-.1 1.5-.1s1.2 0 1.6.1c.4 0 .7.1 1 .2.2.1.4.2.5.3.1.1.2.3.2.4v29.8zm32.7-1.6c.2.6.3 1 .4 1.4 0 .3 0 .6-.2.8s-.5.3-1 .3-1.1.1-1.9.1h-1.9c-.5 0-.8-.1-1.1-.1-.2-.1-.4-.2-.5-.3-.1-.1-.2-.3-.2-.5l-2.1-6.3h-11.9l-2 6.2-.3.6c-.1.2-.3.3-.5.4-.2.1-.6.1-1 .2h-1.7c-.7 0-1.3 0-1.8-.1-.4 0-.7-.2-.9-.4-.2-.2-.2-.5-.2-.8 0-.3.2-.8.4-1.4l9.7-28c.1-.3.2-.5.3-.7.1-.2.3-.3.6-.4.3-.1.7-.1 1.2-.2s1.2 0 2 0h2.3c.6 0 1 .1 1.3.2.3.1.5.2.7.4.1.2.3.4.4.7l9.9 27.9zm-14.4-23.1l-4.5 13.4h8.9l-4.4-13.4zm25.3 24.7c0 .2-.1.3-.2.4s-.3.2-.5.3c-.2.1-.6.1-1 .2-.4 0-.9.1-1.6.1-.6 0-1.1 0-1.5-.1-.4 0-.7-.1-1-.2-.2-.1-.4-.2-.5-.3s-.2-.3-.2-.4V29.6c0-.2.1-.3.2-.4s.3-.2.5-.3c.3-.1.6-.1 1-.2.4 0 .9-.1 1.5-.1s1.2 0 1.6.1c.4 0 .7.1 1 .2.2.1.4.2.5.3s.2.3.2.4v29.8zm25.6-8.6c0 1.7-.3 3.1-.9 4.4s-1.5 2.3-2.5 3.1c-1.1.8-2.3 1.5-3.7 1.9s-2.9.6-4.5.6c-1.1 0-2.1-.1-3-.3-.9-.2-1.8-.4-2.5-.6-.7-.3-1.3-.5-1.8-.8-.5-.3-.8-.5-1-.7-.2-.2-.4-.5-.5-.9-.1-.4-.1-1-.1-1.7v-1.3c0-.3.1-.6.2-.8.1-.2.2-.4.3-.5.1-.1.3-.1.4-.1.2 0 .5.1 1 .4.4.3.9.6 1.6.9.6.3 1.4.6 2.3.9.9.3 1.9.4 3.1.4.8 0 1.5-.1 2.1-.3s1.1-.5 1.6-.8c.4-.3.8-.8 1-1.3s.3-1.1.3-1.7c0-.7-.2-1.3-.6-1.8-.4-.5-.9-1-1.5-1.4-.6-.4-1.3-.8-2.1-1.1-.8-.3-1.6-.7-2.5-1.1-.8-.4-1.7-.8-2.5-1.3s-1.5-1.1-2.1-1.8c-.6-.7-1.1-1.5-1.5-2.5-.4-.9-.6-2.1-.6-3.4 0-1.5.3-2.8.8-4s1.3-2.1 2.3-2.9 2.1-1.3 3.4-1.7c1.3-.4 2.7-.6 4.1-.6.7 0 1.5.1 2.2.2s1.4.3 2.1.5c.6.2 1.2.4 1.7.7.5.2.8.4 1 .6.2.2.3.3.3.4.1.1.1.3.1.5s.1.4.1.7v2.3c0 .3-.1.6-.1.8-.1.2-.1.4-.2.5s-.2.1-.4.1-.5-.1-.9-.3c-.4-.2-.9-.5-1.4-.7-.6-.3-1.2-.5-2-.7-.7-.2-1.6-.3-2.5-.3-.7 0-1.3.1-1.8.3s-1 .4-1.3.7-.6.7-.8 1.1c-.2.4-.3.9-.3 1.3 0 .7.2 1.3.6 1.8.4.5.9 1 1.5 1.4.6.4 1.4.8 2.2 1.1.8.3 1.6.7 2.5 1.1.8.4 1.7.8 2.5 1.3s1.5 1.1 2.2 1.8c.6.7 1.1 1.5 1.5 2.4.4.8.6 1.9.6 3.2zm33.3-6.7c0 2.6-.3 5-1 7s-1.6 3.8-2.9 5.3c-1.3 1.4-2.9 2.5-4.8 3.3-1.9.8-4.1 1.1-6.6 1.1s-4.6-.3-6.4-1c-1.8-.6-3.4-1.6-4.6-2.9-1.2-1.3-2.1-3-2.7-5-.6-2-.9-4.4-.9-7.2 0-2.6.3-4.8 1-6.9s1.6-3.8 2.9-5.2c1.3-1.4 2.9-2.5 4.8-3.3 1.9-.8 4.1-1.1 6.6-1.1 2.4 0 4.5.3 6.3 1 1.8.6 3.4 1.6 4.6 2.9s2.2 3 2.8 5c.5 1.9.9 4.3.9 7zm-6.8.3c0-1.7-.1-3.2-.4-4.5-.3-1.4-.7-2.5-1.3-3.5s-1.5-1.7-2.5-2.2-2.3-.8-3.9-.8-2.9.3-4 .9c-1.1.6-1.9 1.4-2.6 2.4-.7 1-1.1 2.2-1.4 3.5-.3 1.3-.4 2.7-.4 4.2 0 1.7.1 3.3.4 4.6s.7 2.5 1.3 3.5c.6 1 1.4 1.7 2.5 2.2 1 .5 2.3.8 3.9.8s2.9-.3 4-.9 1.9-1.4 2.6-2.4c.7-1 1.1-2.2 1.4-3.5.3-1.3.4-2.8.4-4.3zM311.9 58c0 .4-.1.7-.2 1-.1.3-.3.5-.5.7-.2.2-.5.3-.8.4-.3.1-.6.1-.9.1h-2.7c-.6 0-1.1-.1-1.5-.2-.4-.1-.8-.3-1.1-.6-.4-.3-.7-.7-1-1.2s-.7-1.2-1.1-2l-7.9-14.8c-.5-.9-.9-1.8-1.4-2.8-.5-1-.9-2-1.3-3 .1 1.2.1 2.3.1 3.5v20.1c0 .2 0 .3-.1.4-.1.1-.2.2-.5.3-.2.1-.5.2-.9.2s-.9.1-1.4.1c-.6 0-1 0-1.4-.1-.4 0-.7-.1-.9-.2-.2-.1-.4-.2-.4-.3s-.1-.3-.1-.4V31c0-.8.2-1.3.7-1.7s1-.6 1.6-.6h3.4c.6 0 1.1.1 1.6.2s.8.3 1.1.5c.3.2.6.6.9 1 .3.4.6 1 .9 1.6l6.1 11.5c.4.7.7 1.4 1.1 2.1.3.7.7 1.3 1 2s.6 1.3 1 2c.3.7.6 1.3.9 2 0-1.1-.1-2.3-.1-3.6V29.6c0-.2 0-.3.1-.4s.3-.2.5-.3c.2-.1.5-.2.9-.2s.9-.1 1.4-.1c.6 0 1 0 1.4.1.4 0 .7.1.9.2s.3.2.4.3.1.3.1.4V58z"/></svg>