<svg xmlns="http://www.w3.org/2000/svg" role="img" viewBox="-6.70 51.55 413.14 141.39"><style>svg {enable-background:new 0 0 400 245}</style><path fill="#fff" d="M1.4 59.7h125.5v125.5H1.4z"/><path fill="#00b6f1" d="M1.4 59.7v125.5h125.5V59.7H1.4zm124.7 124.8H95.5v-30.6h30.6v30.6zm0-62c-34 .4-61.5 27.9-61.9 61.9H32.8c.4-51.4 42-92.9 93.3-93.3v31.4z"/><path fill="#414042" d="M288.4 71.2v53.9h10.5V71.2h-10.5m-10.9 16.5c0-9-6.5-16.5-17.5-16.5h-21.1v53.9h10.5v-21.5h7.6l10.5 21.5h12.2l-12-23.2c5.2-2 9.8-6.7 9.8-14.2zm-18.2 7.1h-9.9V80.6h9.9c4.6 0 7.6 3 7.6 7.1.1 4.1-2.9 7.1-7.6 7.1zm-86.7 30.3h10.5V71.2h-10.5v53.9zm19.1-44.5h14.1v44.5h10.5V80.6h14.1v-9.4h-38.7v9.4zm-19.1 59.6h2.6v17h-2.6zm14.1 17v-7.4c0-1.9-1.1-2.7-2.4-2.7-1.4 0-2.5.8-2.5 2.7v7.4h-2.4v-12.1h2.4v1.2c.8-.9 2-1.4 3.2-1.4 1.2 0 2.3.4 3 1.1.9.9 1.2 2 1.2 3.4v7.7h-2.5m10.6-10c-2.2 0-2.5 1.9-2.5 4s.3 4 2.5 4 2.5-1.9 2.5-4-.3-4-2.5-4m2.5 10.1v-1.3c-.9 1.1-1.9 1.4-3.2 1.4-1.2 0-2.3-.4-3-1.1-1.2-1.2-1.4-3.3-1.4-5.1 0-1.8.1-3.9 1.4-5.1.7-.7 1.7-1.1 2.9-1.1 1.3 0 2.3.3 3.2 1.4v-6.1h2.4v17h-2.3zm13.6 0V156c-.8.9-2 1.4-3.2 1.4-1.2 0-2.3-.4-3-1.1-.9-.9-1.2-2.1-1.2-3.4v-7.7h2.4v7.4c0 1.9 1.1 2.7 2.4 2.7 1.4 0 2.5-.8 2.5-2.7v-7.4h2.4v12.1h-2.3m10.1 0c-2 0-3.6-.3-5.1-1.7l1.6-1.6c1 1 2.3 1.3 3.5 1.3 1.5 0 2.6-.5 2.6-1.7 0-.8-.5-1.3-1.6-1.4l-1.9-.2c-2.3-.2-3.6-1.2-3.6-3.3 0-2.4 2-3.7 4.6-3.7 1.8 0 3.4.4 4.5 1.4l-1.5 1.6c-.8-.6-1.8-.9-3-.9-1.5 0-2.2.6-2.2 1.6 0 .7.4 1.3 1.7 1.4l1.9.2c2.3.2 3.6 1.3 3.6 3.4 0 2.3-2.2 3.6-5.1 3.6m11.4-.1c-2.3 0-3.3-1.6-3.3-3.4v-6.7h-1.4v-1.9h1.4v-3.7h2.4v3.7h2.3v1.9H234v6.5c0 .9.4 1.4 1.3 1.4h1v2.1h-1.4m11.2-9.2c-.6-.6-1-.8-1.8-.8-1.3 0-2.4 1-2.4 2.7v7.3h-2.4V145h2.4v1.3c.6-.9 1.9-1.5 3.2-1.5 1.2 0 2 .3 2.9 1.1l-1.9 2m3.8 9.3v-12.1h2.4v12.1h-2.4m2.5-14.5h-2.6v-2.6h2.6v2.6zm10.3 9.2h-2.8c-1.4 0-2.2.6-2.2 1.7s.7 1.7 2.2 1.7c.9 0 1.6-.1 2.3-.7.4-.4.5-.9.5-1.8v-.9m0 5.3v-1.1c-.9.9-1.7 1.2-3.2 1.2-1.5 0-2.5-.4-3.2-1.1-.6-.6-1-1.6-1-2.6 0-2 1.4-3.5 4.2-3.5h3.2v-.9c0-1.5-.8-2.3-2.6-2.3-1.3 0-2 .3-2.6 1.2l-1.6-1.5c1.1-1.3 2.3-1.7 4.3-1.7 3.3 0 5 1.4 5 4.1v8.1h-2.5zm9.4 0c-2.3 0-3.3-1.5-3.3-3.3v-13.6h2.4v13.5c0 .9.3 1.4 1.3 1.4h1.1v2.1h-1.5m15-14.8v14.7h-2.6v-14.7h-4.7v-2.3h11.9v2.3h-4.6m12.1 6c-.4-.9-1.2-1.5-2.4-1.5-1.1 0-2 .6-2.4 1.5-.2.5-.3.9-.3 1.6h5.4c0-.7 0-1-.3-1.6m-5.1 3.4c0 2.1 1.1 3.4 3.1 3.4 1.4 0 2.1-.4 2.9-1.2l1.6 1.5c-1.2 1.2-2.4 1.9-4.5 1.9-3 0-5.4-1.6-5.4-6.2 0-3.9 2-6.2 5.1-6.2 3.2 0 5.1 2.4 5.1 5.8v1.1h-7.9zm15.9 5.4c-2.7 0-5.4-1.7-5.4-6.2s2.7-6.2 5.4-6.2c1.7 0 2.8.5 4 1.7l-1.7 1.6c-.8-.8-1.4-1.1-2.3-1.1-.9 0-1.7.4-2.2 1.1-.5.7-.7 1.5-.7 2.9s.2 2.3.7 3c.5.7 1.3 1.1 2.2 1.1 1 0 1.6-.3 2.3-1.1l1.7 1.6c-1.2 1.1-2.4 1.6-4 1.6m14.1-.1v-7.4c0-1.8-1.1-2.6-2.4-2.6-1.4 0-2.5.8-2.5 2.6v7.4h-2.4v-17h2.4v6.1c.8-.9 1.9-1.4 3.1-1.4 2.7 0 4.2 1.8 4.2 4.4v7.8h-2.4m13.5.1v-7.4c0-1.9-1.1-2.7-2.4-2.7-1.4 0-2.5.8-2.5 2.7v7.4h-2.4v-12.1h2.4v1.2c.8-.9 2-1.4 3.2-1.4 1.2 0 2.3.4 3 1.1.9.9 1.2 2 1.2 3.4v7.7h-2.5m12.5-9.3c-.4-.4-1.1-.7-1.8-.7s-1.3.2-1.8.7c-.7.7-.8 2-.8 3.3 0 1.3.1 2.6.8 3.3.5.5 1 .7 1.8.7.7 0 1.3-.3 1.8-.7.7-.7.8-2 .8-3.3 0-1.3-.1-2.5-.8-3.3m1.8 8.1c-.8.8-2 1.4-3.6 1.4s-2.8-.6-3.6-1.4c-1.1-1.2-1.4-2.7-1.4-4.8 0-2 .3-3.6 1.4-4.7.8-.8 2-1.4 3.6-1.4s2.8.6 3.6 1.4c1.1 1.2 1.4 2.7 1.4 4.7 0 2.1-.3 3.6-1.4 4.8zm8 1.3c-2.3 0-3.3-1.5-3.3-3.3v-13.6h2.4v13.5c0 .9.3 1.4 1.3 1.4h1.1v2.1h-1.5m9.9-9.5c-.5-.4-1.1-.7-1.8-.7s-1.3.2-1.8.7c-.7.7-.8 2-.8 3.3 0 1.3.1 2.6.8 3.3.5.5 1 .7 1.8.7.7 0 1.3-.3 1.8-.7.7-.7.8-2 .8-3.3 0-1.3 0-2.5-.8-3.3m1.8 8.1c-.8.8-2 1.4-3.6 1.4s-2.8-.6-3.6-1.4c-1.1-1.2-1.4-2.7-1.4-4.8 0-2 .3-3.6 1.4-4.7.8-.8 2-1.4 3.6-1.4s2.8.6 3.6 1.4c1.1 1.2 1.4 2.7 1.4 4.7.1 2.1-.2 3.6-1.4 4.8zm9.1-8.8c-2.2 0-2.5 1.9-2.5 3.8s.3 3.8 2.5 3.8 2.5-1.9 2.5-3.8-.3-3.8-2.5-3.8m-.3 15.1c-1.8 0-3-.4-4.3-1.6l1.6-1.5c.8.7 1.4 1.1 2.6 1.1 2.1 0 2.8-1.5 2.8-3.1v-1.6c-.9 1.1-1.9 1.4-3.1 1.4-1.2 0-2.2-.4-2.9-1.1-1.2-1.2-1.4-2.9-1.4-4.9 0-2.1.2-3.7 1.4-4.9.7-.7 1.7-1 2.9-1 1.3 0 2.3.3 3.2 1.4v-1.3h2.4v12c0 3-2 5.1-5.2 5.1zm12.9-2.6c-.2.7-.5 1.1-.9 1.5-.7.7-1.6.9-2.5.9h-1v-2.2h.6c1 0 1.4-.3 1.7-1.3l.7-1.9-4.2-11.5h2.6l2.9 8.5 2.8-8.5h2.6l-5.3 14.5M179 168.9h-3.8v5.3h3.8c1.7 0 2.9-1 2.9-2.6 0-1.7-1.2-2.7-2.9-2.7m3 14.7l-3.6-7.1h-3.2v7.1h-2.6v-17h6.6c3.2 0 5.3 2.1 5.3 5 0 2.4-1.5 4-3.4 4.5l3.9 7.5h-3zm12.8-8.7c-.4-.9-1.2-1.5-2.4-1.5-1.1 0-2 .6-2.4 1.5-.2.5-.3.9-.3 1.6h5.4c0-.7 0-1-.3-1.6m-5.1 3.4c0 2.1 1.1 3.4 3.1 3.4 1.4 0 2.1-.4 2.9-1.2l1.6 1.4c-1.2 1.2-2.4 1.9-4.5 1.9-3 0-5.4-1.6-5.4-6.2 0-3.9 2-6.2 5.1-6.2 3.3 0 5.1 2.4 5.1 5.8v1.1h-7.9zm15 5.5c-2 0-3.6-.3-5.1-1.7l1.6-1.6c1 1 2.3 1.3 3.5 1.3 1.5 0 2.7-.5 2.7-1.7 0-.8-.5-1.3-1.6-1.4l-1.9-.2c-2.3-.2-3.6-1.2-3.6-3.3 0-2.4 2-3.7 4.6-3.7 1.8 0 3.4.4 4.5 1.4l-1.5 1.6c-.8-.6-1.8-.9-3-.9-1.5 0-2.2.6-2.2 1.6 0 .7.4 1.3 1.7 1.4l1.9.2c2.3.2 3.6 1.3 3.6 3.4-.2 2.2-2.3 3.6-5.2 3.6m14.9-8.9c-.4-.9-1.2-1.5-2.4-1.5-1.1 0-2 .6-2.4 1.5-.2.5-.3.9-.3 1.6h5.4c0-.7-.1-1-.3-1.6m-5.1 3.4c0 2.1 1.1 3.4 3.1 3.4 1.4 0 2.1-.4 2.9-1.2l1.5 1.4c-1.2 1.2-2.4 1.9-4.5 1.9-3 0-5.4-1.6-5.4-6.2 0-3.9 2-6.2 5.1-6.2 3.2 0 5.1 2.4 5.1 5.8v1.1h-7.8zm17.5 0h-2.8c-1.4 0-2.2.6-2.2 1.7s.7 1.7 2.2 1.7c.9 0 1.6-.1 2.3-.7.4-.4.5-.9.5-1.8v-.9m.1 5.3v-1.1c-.9.9-1.7 1.2-3.2 1.2-1.5 0-2.5-.3-3.2-1.1-.6-.6-1-1.6-1-2.6 0-2 1.4-3.5 4.2-3.5h3.2v-.9c0-1.5-.8-2.3-2.7-2.3-1.3 0-2 .3-2.6 1.2l-1.6-1.5c1.1-1.3 2.3-1.7 4.3-1.7 3.3 0 5 1.4 5 4.1v8.1h-2.4zm12.7-9.2c-.5-.5-1-.8-1.8-.8-1.3 0-2.4 1-2.4 2.7v7.3h-2.4v-12.1h2.4v1.3c.6-.9 1.9-1.5 3.2-1.5 1.2 0 2 .3 2.9 1.1l-1.9 2m7.9 9.4c-2.7 0-5.4-1.7-5.4-6.2s2.7-6.2 5.4-6.2c1.7 0 2.8.5 4 1.7l-1.7 1.6c-.8-.8-1.4-1.1-2.3-1.1-.9 0-1.7.4-2.2 1.1-.5.7-.7 1.5-.7 2.9s.2 2.3.7 3c.5.7 1.3 1.1 2.2 1.1.9 0 1.5-.3 2.3-1.2l1.7 1.6c-1.2 1.1-2.3 1.7-4 1.7m14.1-.2v-7.4c0-1.8-1.1-2.6-2.4-2.6-1.4 0-2.5.8-2.5 2.6v7.4h-2.4v-17h2.4v6.1c.8-.9 1.9-1.4 3.1-1.4 2.7 0 4.2 1.8 4.2 4.4v7.8h-2.4m11.3-16.9h2.6v17h-2.6zm14 17v-7.3c0-1.9-1.1-2.7-2.4-2.7-1.4 0-2.5.8-2.5 2.7v7.3h-2.4v-12.1h2.4v1.2c.8-.9 2-1.4 3.2-1.4 1.2 0 2.3.4 3 1.1.9.9 1.2 2.1 1.2 3.4v7.7h-2.5m10.1.3c-2 0-3.7-.3-5.1-1.7l1.6-1.6c1 1 2.3 1.3 3.5 1.3 1.5 0 2.6-.5 2.6-1.7 0-.8-.5-1.3-1.6-1.4l-1.9-.2c-2.3-.2-3.6-1.2-3.6-3.3 0-2.4 2-3.7 4.6-3.7 1.8 0 3.4.4 4.5 1.4l-1.5 1.6c-.8-.6-1.8-.9-3-.9-1.5 0-2.2.6-2.2 1.6 0 .7.4 1.3 1.7 1.4l1.9.2c2.3.2 3.6 1.3 3.6 3.4 0 2.2-2.2 3.6-5.1 3.6m11.4-.2c-2.3 0-3.3-1.6-3.3-3.3v-6.7h-1.4v-1.9h1.4V168h2.4v3.7h2.3v1.9h-2.3v6.5c0 .9.4 1.4 1.3 1.4h1v2h-1.4m4.5.1v-12.1h2.4v12.1h-2.4m2.6-14.5h-2.6v-2.6h2.6v2.6zm7.3 14.5c-2.3 0-3.3-1.6-3.3-3.3v-6.7h-1.4v-1.9h1.4V168h2.4v3.7h2.3v1.9h-2.3v6.5c0 .9.4 1.4 1.3 1.4h1v2H328m11.9.1v-1.2c-.8.9-2 1.4-3.2 1.4-1.2 0-2.3-.4-3-1.1-.9-.9-1.2-2-1.2-3.4v-7.7h2.4v7.4c0 1.9 1.1 2.7 2.4 2.7 1.4 0 2.5-.8 2.5-2.7v-7.4h2.4v12.1h-2.3m9.8-.1c-2.3 0-3.3-1.6-3.3-3.3v-6.7H345v-1.9h1.4V168h2.4v3.7h2.3v1.9h-2.3v6.5c0 .9.4 1.4 1.3 1.4h1v2h-1.4m11.4-8.6c-.4-.9-1.2-1.5-2.4-1.5-1.1 0-2 .6-2.4 1.5-.2.5-.3.9-.3 1.6h5.4c0-.7 0-1-.3-1.6m-5.1 3.4c0 2.1 1.1 3.4 3.1 3.4 1.4 0 2.1-.4 2.9-1.2l1.6 1.4c-1.2 1.2-2.4 1.9-4.5 1.9-3 0-5.4-1.6-5.4-6.2 0-3.9 2-6.2 5.1-6.2 3.2 0 5.1 2.4 5.1 5.8v1.1H356z"/></svg>