<svg xmlns="http://www.w3.org/2000/svg" role="img" viewBox="-8.58 -8.58 628.16 106.16"><path d="M98.493 82.908C81.78 84.295 81.75 84.303 77.999 69.891c-2.765-10.62-5.438-21.263-8.164-31.944-10.276 5.918-14.907 26.236-9.984 44.753H43.24c0-7.741.963-15.866-.276-23.638-1.195-7.49-4.666-14.615-7.137-21.9l-3.12.371c-1.686 6.427-3.39 12.85-5.053 19.282-1.093 4.224-2.13 8.462-3.19 12.694-3.811 15.224-3.81 15.224-20.528 13.282 5.782-21 11.127-42.04 17.646-62.708C22.882 15.96 28.67 13.25 33.04 9.3l9.173 13.682 2.176-.581-.902-18.674h15.488L57.918 22.95l1.844.462 8.355-13.279c7.913 3.593 13.273 8.272 15.358 17.538 4.145 18.425 9.829 36.504 15.018 55.236z"/><path fill="#231f20" d="M117.428 41.578v-2.015c4.14-.382 4.63-.709 4.63-5.284V13.524c0-4.576-.544-5.012-4.63-5.339V6.17h16.833v2.015c-4.086.382-4.63.763-4.63 5.34v20.754c0 4.52.49 4.848 4.63 5.284v2.015zm59.426-33.393c-3.323.436-4.358 1.144-4.521 3.596-.164 2.124-.327 3.977-.327 8.716v21.68h-3.05l-22.717-27.236v12.31a82.69 82.69 0 0 0 .273 8.443c.217 2.398 1.361 3.651 5.393 3.87v2.014h-13.51v-2.015c3.105-.272 4.467-1.09 4.794-3.65a73.317 73.317 0 0 0 .327-8.661v-12.91a6.517 6.517 0 0 0-1.144-4.413c-.98-1.362-2.288-1.525-4.576-1.744V6.17h10.622l20.755 24.133v-9.806c0-4.74-.054-6.537-.218-8.553-.164-2.342-1.035-3.486-5.557-3.759V6.17h13.455zm28.59 7.028a14.486 14.486 0 0 0-2.397-5.121c-1.144-1.198-1.852-1.416-4.467-1.416h-4.085c-1.853 0-2.07.109-2.07 1.961v11.876h5.828c3.214 0 3.65-.817 4.467-4.631h2.015v12.093h-2.07c-.598-3.704-1.416-4.63-4.412-4.63h-5.828v8.499c0 5.01.326 5.393 5.229 5.72v2.014h-17.432v-2.015c4.14-.382 4.63-.709 4.63-5.72V13.798c0-4.849-.49-5.285-4.63-5.612V6.17h18.467c4.685 0 7.408-.055 8.28-.109.055.926.327 5.61.599 8.825zm40.304 26.692c-.327 0-.98 0-1.634-.054-6.919-.327-8.935-1.798-10.569-4.086a97.766 97.766 0 0 1-5.61-9.588c-.818-1.47-1.58-1.797-3.323-1.797l-1.09-.054v7.953c0 4.412.545 4.793 4.63 5.284v2.015h-16.668v-2.015c4.14-.436 4.63-.872 4.63-5.284V13.415c0-4.303-.545-4.903-4.63-5.23V6.17h15.797c4.848 0 7.627.545 9.86 2.07a8.32 8.32 0 0 1 3.65 7.245c0 4.848-3.215 7.409-6.81 8.825.817 1.634 2.942 5.175 4.576 7.681a44.07 44.07 0 0 0 4.14 5.666 6.64 6.64 0 0 0 3.432 2.396zm-20.755-17.813c2.342 0 4.14-.381 5.339-1.416 1.797-1.526 2.56-3.596 2.56-6.374 0-5.774-3.323-7.844-6.374-7.844-1.47 0-2.179.218-2.506.544-.381.327-.49.982-.49 2.071v13.02zM268.4 41.578v-2.015c3.431-.49 3.431-1.09 2.67-3.432a199.331 199.331 0 0 0-2.235-6.265h-10.622c-.599 1.689-1.362 3.76-1.907 5.447-1.144 3.433.163 3.868 4.468 4.25v2.015h-13.456v-2.015c3.432-.436 4.304-.926 6.156-5.503l11.33-28.162 2.615-.49c3.487 9.478 7.19 19.175 10.731 28.271 2.016 5.067 2.506 5.448 6.047 5.884v2.015zm-4.794-26.038c-1.58 3.921-3.105 7.571-4.467 11.549h8.661zm43.789-.382c-1.09-3.486-2.614-7.463-7.626-7.463a5.018 5.018 0 0 0-5.23 5.285c0 2.995 2.016 4.793 6.81 7.19 5.828 2.887 9.532 5.72 9.532 11.113 0 6.428-5.338 11.113-13.128 11.113a31.462 31.462 0 0 1-9.151-1.69c-.327-1.253-1.253-6.918-1.635-9.478l2.125-.49c1.09 3.432 4.14 9.369 9.479 9.369 3.323 0 5.338-2.07 5.338-5.556 0-3.16-1.961-5.011-6.537-7.462-5.666-3.052-9.37-5.775-9.37-11.44 0-5.72 4.467-10.241 12.639-10.241a40.285 40.285 0 0 1 7.79.98c.217 2.016.599 4.849 1.034 8.28zm37.635.436a16.788 16.788 0 0 0-2.342-5.339c-.98-1.143-1.416-1.58-4.63-1.58h-3.486V34.28c0 4.575.545 4.902 5.393 5.284v2.015h-18.086v-2.015c4.63-.382 5.12-.709 5.12-5.284V8.676h-3.322c-3.05 0-3.922.49-4.957 1.798a20.724 20.724 0 0 0-2.234 5.174h-2.07c.381-3.976.763-8.225.872-10.84h1.634c.817 1.253 1.471 1.363 3.105 1.363h21.79a3.603 3.603 0 0 0 3.16-1.363h1.58c.054 2.288.271 7.082.544 10.623zm40.14 26.311c-.327 0-.98 0-1.634-.054-6.919-.327-8.935-1.798-10.569-4.086a97.766 97.766 0 0 1-5.61-9.588c-.818-1.47-1.58-1.797-3.323-1.797l-1.09-.054v7.953c0 4.412.545 4.793 4.63 5.284v2.015h-16.668v-2.015c4.14-.436 4.63-.872 4.63-5.284V13.415c0-4.303-.545-4.903-4.63-5.23V6.17h15.797c4.848 0 7.627.545 9.86 2.07a8.32 8.32 0 0 1 3.65 7.245c0 4.848-3.215 7.409-6.81 8.825.818 1.634 2.942 5.175 4.576 7.681a44.07 44.07 0 0 0 4.14 5.666 6.64 6.64 0 0 0 3.432 2.396zm-20.755-17.813c2.343 0 4.14-.381 5.339-1.416 1.797-1.526 2.56-3.596 2.56-6.374 0-5.774-3.323-7.844-6.373-7.844-1.472 0-2.18.218-2.506.544-.382.327-.49.982-.49 2.071v13.02zm58.389-15.907c-3.486.327-4.412 1.363-4.63 3.323a69.158 69.158 0 0 0-.273 7.3v7.136c0 4.684-.762 9.424-3.867 12.693-2.506 2.615-6.373 3.76-10.241 3.76-3.596 0-7.19-.764-9.75-2.834-3.16-2.397-4.686-5.72-4.686-11.82V13.96c0-5.012-.49-5.393-4.63-5.775V6.17h16.832v2.015c-4.085.382-4.576.763-4.576 5.775v14.49c0 6.101 2.997 10.133 8.825 10.133 6.483 0 9.316-4.795 9.316-12.966v-6.81c0-3.757-.164-5.719-.273-7.353-.218-2.506-1.743-3.05-5.556-3.269V6.17h13.51zm36.871 24.023a77.112 77.112 0 0 1-3.051 8.77 46.732 46.732 0 0 1-10.023 1.418c-14.653 0-20.7-9.424-20.7-18.086 0-11.276 8.607-18.902 21.68-18.902a57.69 57.69 0 0 1 10.296 1.307c.273 2.56.654 6.592 1.035 8.988l-2.179.381c-1.144-4.249-2.778-6.264-5.665-7.408a13.732 13.732 0 0 0-4.74-.762c-7.899 0-11.875 6.59-11.875 15.143 0 9.969 5.121 16.723 12.584 16.723 4.576 0 7.626-2.396 10.568-8.388zm34.799-16.614a16.788 16.788 0 0 0-2.342-5.339c-.98-1.143-1.416-1.58-4.63-1.58h-3.487V34.28c0 4.575.546 4.902 5.393 5.284v2.015h-18.085v-2.015c4.63-.382 5.12-.709 5.12-5.284V8.676h-3.323c-3.05 0-3.921.49-4.956 1.798a20.724 20.724 0 0 0-2.234 5.174h-2.07c.381-3.976.763-8.225.871-10.84h1.635c.817 1.253 1.47 1.363 3.105 1.363h21.79a3.603 3.603 0 0 0 3.16-1.363H496c.054 2.288.272 7.082.544 10.623zm44.062-7.409c-3.487.327-4.413 1.363-4.63 3.323a69.158 69.158 0 0 0-.273 7.3v7.136c0 4.684-.763 9.424-3.867 12.693-2.506 2.615-6.374 3.76-10.242 3.76-3.595 0-7.19-.764-9.75-2.834-3.16-2.397-4.685-5.72-4.685-11.82V13.96c0-5.012-.49-5.393-4.63-5.775V6.17h16.832v2.015c-4.086.382-4.576.763-4.576 5.775v14.49c0 6.101 2.996 10.133 8.825 10.133 6.482 0 9.315-4.795 9.315-12.966v-6.81c0-3.757-.163-5.719-.272-7.353-.218-2.506-1.744-3.05-5.557-3.269V6.17h13.51zm36.979 33.72c-.327 0-.98 0-1.634-.054-6.918-.327-8.934-1.798-10.568-4.086a97.764 97.764 0 0 1-5.61-9.588c-.818-1.47-1.58-1.797-3.324-1.797l-1.09-.054v7.953c0 4.412.545 4.793 4.63 5.284v2.015h-16.668v-2.015c4.14-.436 4.63-.872 4.63-5.284V13.415c0-4.303-.544-4.903-4.63-5.23V6.17h15.797c4.848 0 7.627.545 9.86 2.07a8.32 8.32 0 0 1 3.65 7.245c0 4.848-3.214 7.409-6.81 8.825.818 1.634 2.942 5.175 4.577 7.681a44.07 44.07 0 0 0 4.14 5.666 6.64 6.64 0 0 0 3.431 2.396zM554.76 24.092c2.343 0 4.14-.381 5.34-1.416 1.796-1.526 2.56-3.596 2.56-6.374 0-5.774-3.324-7.844-6.374-7.844-1.471 0-2.18.218-2.506.544-.382.327-.49.982-.49 2.071v13.02zm52.94 8.226c-.271 1.47-1.797 7.735-2.287 9.26h-28.271v-1.96c4.956-.491 5.283-.764 5.283-5.34V13.47c0-4.63-.653-4.958-4.358-5.284V6.17h17.704c5.72 0 7.627-.055 8.39-.11.054.98.326 5.447.544 8.825l-2.124.272a13.698 13.698 0 0 0-2.343-5.066c-.98-1.09-1.688-1.416-4.467-1.416h-3.54c-2.07 0-2.289.109-2.289 1.961v11.385h5.34c3.05 0 3.595-.817 4.412-4.685h2.124v12.148h-2.124c-.872-4.031-1.308-4.685-4.467-4.685h-5.285v9.37c0 3.758.11 4.902 3.487 4.957h3.868c3.05 0 3.867-.381 5.066-1.853a24.348 24.348 0 0 0 3.323-5.447zM145.973 84.866v-2.015c4.14-.437 4.412-.818 4.412-5.72l-.055-21.244c-3.921 9.368-8.225 19.719-12.147 28.98h-1.798c-3.54-8.88-7.408-19.012-11.33-28.545-.709 17.105-.709 20.483-.709 22.443.055 2.942 1.145 3.704 5.23 4.086v2.015h-13.51v-2.015c3.105-.272 4.522-.872 4.957-4.14.218-1.635.436-4.739 1.69-22.716.162-2.614-.219-4.086-4.904-4.52v-2.017h11.767L140.09 73.48l10.567-24.023h11.494v2.016c-4.358.435-4.848.87-4.739 5.229l.436 20.428c.054 4.902.273 5.12 4.684 5.72v2.015zm39.101 0v-2.015c3.431-.49 3.431-1.09 2.67-3.432a199.36 199.36 0 0 0-2.235-6.265h-10.622c-.599 1.688-1.362 3.76-1.907 5.447-1.144 3.432.164 3.868 4.468 4.25v2.015h-13.456v-2.015c3.432-.437 4.304-.926 6.156-5.503l11.33-28.163 2.616-.49c3.486 9.48 7.19 19.175 10.73 28.272 2.016 5.066 2.506 5.447 6.047 5.884v2.015zm-4.794-26.038c-1.58 3.921-3.105 7.572-4.467 11.548h8.662zm43.789-.381c-1.09-3.487-2.614-7.464-7.626-7.464a5.018 5.018 0 0 0-5.23 5.285c0 2.995 2.016 4.793 6.81 7.19 5.828 2.888 9.532 5.72 9.532 11.113 0 6.428-5.338 11.113-13.128 11.113a31.462 31.462 0 0 1-9.151-1.69c-.327-1.253-1.253-6.918-1.635-9.478l2.125-.49c1.09 3.432 4.14 9.369 9.479 9.369 3.323 0 5.338-2.07 5.338-5.556 0-3.16-1.961-5.012-6.537-7.463-5.665-3.05-9.37-5.774-9.37-11.44 0-5.72 4.467-10.24 12.639-10.24a40.223 40.223 0 0 1 7.79.98c.217 2.015.599 4.848 1.034 8.28zm26.959-9.751c10.078 0 18.303 7.353 18.303 18.085 0 11.603-8.28 18.903-18.575 18.903-10.895 0-18.794-7.955-18.794-18.468 0-9.314 6.646-18.52 19.066-18.52zm-.817 2.396c-5.556 0-9.642 5.448-9.642 15.09 0 9.206 3.65 17.104 11.004 17.104 5.175 0 9.206-5.011 9.206-14.98 0-10.785-4.25-17.214-10.568-17.214zm61.818.382c-3.323.435-4.358 1.143-4.521 3.595-.164 2.125-.327 3.977-.327 8.715v21.682h-3.05l-22.717-27.238V70.54a82.69 82.69 0 0 0 .273 8.442c.218 2.398 1.361 3.65 5.393 3.87v2.014h-13.51v-2.015c3.105-.272 4.467-1.09 4.794-3.65a73.316 73.316 0 0 0 .327-8.661V57.629a6.517 6.517 0 0 0-1.144-4.412c-.98-1.362-2.288-1.526-4.576-1.743v-2.016h10.623l20.754 24.131v-9.805c0-4.738-.054-6.536-.217-8.55-.165-2.344-1.036-3.489-5.557-3.76v-2.016h13.455zm23.741 6.973c-1.089-3.487-2.614-7.464-7.626-7.464a5.018 5.018 0 0 0-5.23 5.285c0 2.995 2.017 4.793 6.81 7.19 5.829 2.888 9.533 5.72 9.533 11.113 0 6.428-5.338 11.113-13.128 11.113a31.462 31.462 0 0 1-9.152-1.69c-.326-1.253-1.253-6.918-1.634-9.478l2.125-.49c1.09 3.432 4.14 9.369 9.478 9.369 3.323 0 5.338-2.07 5.338-5.556 0-3.16-1.96-5.012-6.536-7.463-5.666-3.05-9.37-5.774-9.37-11.44 0-5.72 4.467-10.24 12.638-10.24a40.223 40.223 0 0 1 7.79.98c.218 2.015.6 4.848 1.035 8.28z"/></svg>