<svg xmlns="http://www.w3.org/2000/svg" role="img" viewBox="-6.44 37.56 412.62 169.62"><title>Intel logo</title><style>svg {enable-background:new 0 0 400 245}</style><path fill="#2cc5f4" d="M1.6 47.7h28.8v28.8H1.6z"/><path fill="#0b69b4" d="M29.6 197.3V93.9H2.3v103.5h27.3zm180.7 1.1V173c-4 0-7.3-.2-9.9-.6-2.8-.4-5-1.4-6.4-2.8-1.4-1.4-2.4-3.5-2.8-6.2-.4-2.6-.6-5.9-.6-10v-36.2h19.7V93.9h-19.7V53.5h-27.3v100c0 8.4.7 15.6 2.2 21.3 1.4 5.7 3.9 10.3 7.3 13.7 3.4 3.5 7.9 6 13.3 7.5 5.5 1.5 12.5 2.3 20.8 2.3h3.4zm156.3-1.1V45.6h-27.3v151.8h27.3zM137 104c-7.6-8.2-18.2-12.3-31.7-12.3-6.5 0-12.5 1.3-17.9 4-5.4 2.6-9.9 6.4-13.5 11l-1.5 1.9V93.9H45.5v103.5h27.1v-55.1 1.9c.3-9.7 2.7-16.9 7.2-21.5 4.8-4.9 10.6-7.4 17.3-7.4 7.9 0 13.9 2.4 17.8 7.2 3.9 4.7 5.9 11.3 5.9 19.8V197.2h27.5v-58.8c.1-14.6-3.7-26.2-11.3-34.4zm188.1 41.4c0-7.4-1.3-14.5-3.9-20.9-2.6-6.5-6.3-12.2-11-17.1-4.7-4.9-10.3-8.7-16.9-11.5-6.5-2.7-13.8-4.1-21.7-4.1-7.4 0-14.5 1.4-21 4.2-6.5 2.8-12.3 6.7-17.1 11.5-4.8 4.8-8.7 10.6-11.5 17.1-2.8 6.5-4.2 13.6-4.2 21s1.4 14.5 4 21c2.7 6.5 6.4 12.3 11.2 17.1 4.7 4.8 10.6 8.7 17.3 11.5 6.7 2.8 14.2 4.2 22.2 4.2 23.1 0 37.5-10.5 46-20.3l-19.6-14.9c-4.1 4.9-14 11.6-26.2 11.6-7.7 0-14-1.8-18.8-5.3-4.8-3.5-8.1-8.3-9.8-14.4l-.3-1h81.3v-9.7zm-81.1-9.5c0-7.6 8.7-20.8 27.4-20.8 18.8 0 27.5 13.2 27.5 20.8H244zm153.6 48.4c-.5-1.2-1.3-2.3-2.2-3.2-.9-.9-2-1.6-3.2-2.2-1.2-.5-2.5-.8-3.9-.8s-2.7.3-3.9.8c-1.2.5-2.3 1.3-3.2 2.2-.9.9-1.6 2-2.2 3.2-.5 1.2-.8 2.5-.8 3.9s.3 2.7.8 3.9c.5 1.2 1.3 2.3 2.2 3.2.9.9 2 1.6 3.2 2.2 1.2.5 2.5.8 3.9.8s2.7-.3 3.9-.8c1.2-.5 2.3-1.3 3.2-2.2.9-.9 1.6-2 2.2-3.2.5-1.2.8-2.5.8-3.9s-.2-2.7-.8-3.9zm-1.6 7.2c-.4 1-1 1.9-1.8 2.6-.8.8-1.6 1.3-2.6 1.8-1 .4-2.1.7-3.2.7s-2.2-.2-3.2-.7c-1-.4-1.9-1-2.6-1.8-.8-.8-1.3-1.6-1.8-2.6-.4-1-.7-2.1-.7-3.2s.2-2.2.7-3.2c.4-1 1-1.9 1.8-2.6.8-.8 1.6-1.3 2.6-1.8 1-.4 2.1-.7 3.2-.7s2.2.2 3.2.7c1 .4 1.9 1 2.6 1.8.8.8 1.3 1.6 1.8 2.6.4 1 .7 2.1.7 3.2-.1 1.1-.3 2.1-.7 3.2zm-5.8-2.5c.8-.1 1.4-.4 2-.9.5-.5.8-1.3.8-2.3 0-1.1-.3-2-1-2.6-.7-.6-1.7-.9-3.1-.9h-4.4v11.5h2.1v-4.7h1.5l2.9 4.7h2.2l-3-4.8zm-1.1-1.6h-2.5v-3.2h2.5c.3 0 .6.1.9.2.3.1.5.3.6.5.2.2.2.5.2.9s-.1.7-.2.9c-.2.2-.4.4-.6.5-.3.1-.6.1-.9.2z"/></svg>