<svg xmlns="http://www.w3.org/2000/svg" role="img" viewBox="-0.24 -0.24 64.38 53.08"><title>Intel Secure Device Onboard logo</title><style>svg {enable-background:new 0 0 64 53.7}</style><style>.st0{fill:#0071c5}</style><path d="M30.5 37.5c-12.3 1.1-25-.6-26.8-10.2-.9-4.7 1.3-9.7 4.1-12.8v-1.7C2.6 17.3-.2 23 1.5 29.7c2 8.6 13 13.5 29.7 11.9 6.6-.6 15.3-2.8 21.3-6.1v-4.7c-5.5 3.3-14.5 6-22 6.7zm32.2-24.8C59.8-1.5 32.3-2.4 14.5 8.4v1.2C32.2.5 57.4.5 59.7 13.6c.8 4.3-1.7 8.8-6 11.4v3.4c5.2-1.9 10.6-8.1 9-15.7z" class="st0"/><path d="M51.5 10.6h-3.2v14.3c0 1.7.8 3.1 3.2 3.4V10.6zm-38.2 5.2H10v9.3c0 1.7.8 3.1 3.2 3.4V15.8h.1zM10 11h3.2v3H10zm22.5 17.4c-2.6 0-3.7-1.8-3.7-3.6V12.4H32v3.4h2.4v2.6H32v6.2c0 .7.3 1.1 1.1 1.1h1.3v2.7h-1.9m5.9-5.3c0 1.6 1 2.8 2.8 2.8 1.4 0 2.1-.4 2.9-1.2l2 1.9c-1.3 1.2-2.6 2-4.9 2-3.1 0-6-1.7-6-6.5 0-4.1 2.6-6.5 5.9-6.5 3.4 0 5.4 2.7 5.4 6.3V23h-8.1m2.5-4.7c-1.1 0-1.9.6-2.3 1.3-.2.5-.3.8-.3 1.4h4.9c0-1.4-.6-2.7-2.3-2.7zm-19 .1c.9 0 1.3.5 1.3 1.2v8.8h3.2v-8.8c0-1.8-1-3.8-3.7-3.8h-6.6v12.6h3.2v-10h2.6z" class="st0"/><path d="M55 13.2c-.7 0-1.3-.6-1.3-1.3s.6-1.3 1.3-1.3 1.3.6 1.3 1.3-.6 1.3-1.3 1.3zm0-2.4c-.6 0-1.1.5-1.1 1.1S54.4 13 55 13s1.1-.5 1.1-1.1c-.1-.6-.6-1.1-1.1-1.1zm.5 1.8h-.2l-.3-.5h-.1-.1v.5s0 .1-.1.1h-.2s-.1 0-.1-.1v-1.4c0-.1 0-.1.1-.1h.4c.4 0 .6.1.6.5 0 .2-.1.4-.3.4l.3.6c.1 0 .1 0 0 0 .1 0 .1 0 0 0zm-.3-1c0-.2-.1-.2-.3-.2h-.1-.1v.4h.2c.2 0 .3-.1.3-.2z" class="st0"/><g><path d="M21.7 50.3c.5.3 1.2.5 1.9.5 1.1 0 1.7-.6 1.7-1.4 0-.8-.4-1.2-1.5-1.6-1.3-.5-2.1-1.2-2.1-2.3 0-1.3 1-2.2 2.6-2.2.8 0 1.4.2 1.8.4l-.3.9c-.3-.1-.8-.4-1.5-.4-1.1 0-1.5.7-1.5 1.2 0 .8.5 1.1 1.6 1.6 1.4.5 2.1 1.2 2.1 2.4s-.9 2.3-2.8 2.3c-.8 0-1.6-.2-2.1-.5l.1-.9zm6-6.7c.6-.1 1.4-.2 2.2-.2 1.5 0 2.6.3 3.3 1 .7.7 1.1 1.6 1.1 2.9 0 1.3-.4 2.4-1.2 3.1-.8.8-2 1.2-3.6 1.2-.7 0-1.4 0-1.9-.1v-7.9zm1.1 7.1c.3 0 .6.1 1.1.1 2.2 0 3.4-1.2 3.4-3.4 0-1.9-1.1-3.1-3.3-3.1-.5 0-.9 0-1.2.1v6.3zm13.8-3.3c0 2.8-1.7 4.3-3.8 4.3-2.1 0-3.6-1.7-3.6-4.1 0-2.6 1.6-4.2 3.8-4.2 2.2-.1 3.6 1.6 3.6 4zm-6.2.1c0 1.7.9 3.3 2.6 3.3 1.7 0 2.6-1.5 2.6-3.4 0-1.6-.8-3.3-2.6-3.3-1.8.1-2.6 1.7-2.6 3.4z"/></g></svg>