<svg xmlns="http://www.w3.org/2000/svg" role="img" viewBox="-7.07 -6.07 627.64 163.64"><path fill="#f7af00" d="M72.486 52.667V21.556l53.886 31.111v31.111L72.486 52.667z"/><path fill="#f0a000" d="M126.372 83.778l26.943-15.556V37.111l-26.943 15.556v31.111z"/><path fill="#ffd900" d="M126.372 52.667L72.486 21.556 99.429 6l53.886 31.111-26.943 15.556z"/><path fill="#6fba2c" d="M32.071 76v31.111L5.128 91.556V60.444L32.071 76z"/><path fill="#64a827" d="M32.071 76v31.111L85.89 76V44.889L32.004 76"/><path fill="#8fc31f" d="M85.89 44.889L58.947 29.333 5.128 60.444 32.071 76 85.89 44.889z"/><path fill="#00a7ea" d="M112.968 107.111V76l26.875 15.556v31.111l-26.875-15.556z"/><path fill="#37bef0" d="M166.786 44.889l26.943 15.555-53.886 31.112L112.968 76l53.818-31.111z"/><path fill="#0093cc" d="M139.843 122.667l53.886-31.111V60.444l-53.886 31.112v31.111z"/><path fill="#c81e1a" d="M126.372 130.444V99.333l-26.943 15.556V146l26.943-15.556z"/><path fill="#d8221e" d="M99.429 114.889L45.543 83.778v31.111L99.429 146v-31.111z"/><path fill="#e83929" d="M126.372 99.333l-26.943 15.556-53.886-31.111 26.943-15.556 53.886 31.111z"/><path fill="#e72521" d="M233.576 43.089a5.924 5.924 0 0 1-11.847 0 5.748 5.748 0 0 1 1.754-4.224 5.834 5.834 0 0 1 8.339 0 5.756 5.756 0 0 1 1.754 4.224zm-10.451 49.897v-36.69h9.057v36.69zm55.143-27.633a20.037 20.037 0 0 1 2.72 10.236v17.522h-9.234V74.086a11.241 11.241 0 1 0-22.482 0V93.11h-9.09V75.59a20.422 20.422 0 0 1 38.086-10.236zm27.369 27.633a17.608 17.608 0 0 1-15.752-9.396 19.917 19.917 0 0 1-2.29-9.504v-17.79h9.09v19.33a9.458 9.458 0 0 0 2.829 6.926 9.324 9.324 0 0 0 6.872 2.846 9.75 9.75 0 0 0 9.774-9.773v-19.33h9.199v19.33a9.754 9.754 0 1 0 19.508 0v-19.33h9.235v17.79a19.827 19.827 0 0 1-2.308 9.505 17.664 17.664 0 0 1-15.767 9.396 17.484 17.484 0 0 1-15.177-8.484 17.943 17.943 0 0 1-6.39 6.212 17.4 17.4 0 0 1-8.823 2.272zm66.919-49.897a5.925 5.925 0 0 1-11.848 0 5.749 5.749 0 0 1 1.754-4.224 5.834 5.834 0 0 1 8.34 0 5.757 5.757 0 0 1 1.754 4.224zm-10.452 49.897v-36.69h9.056v36.69zm55.145-27.633a20.046 20.046 0 0 1 2.72 10.236v17.522h-9.233V74.086a11.24 11.24 0 1 0-22.48 0V93.11h-9.093V75.59a20.422 20.422 0 0 1 38.086-10.236z"/><path fill="#727171" d="M437.48 67.674a2.02 2.02 0 0 1-1.621-1.983 1.9 1.9 0 0 1 1.27-1.956l.398-.04h16.804v-8.794H436.6c-5.193 0-10.025 4.367-10.025 9.56 0 2.749.218 4.984 2.1 7.279a13.373 13.373 0 0 0 4.005 3.343c1.511.821 9.48 4.339 9.48 4.339.956.335 2.028.758 2.028.758a2.196 2.196 0 0 1 1.033 2.082 2.306 2.306 0 0 1-1.417 1.817l-.4.04H426.6v8.992h17.711c5.194 0 10.019-5.418 10.019-9.49 0-2.748-.194-5.618-2.075-7.912a13.356 13.356 0 0 0-4.004-3.344 60.186 60.186 0 0 0-2.272-1.14zM490.559 54.7h-29.622v9.097h10.262v29.314h9.096V63.797h10.264V54.7zm37.537 14.69a15.522 15.522 0 0 0-30.895-1.156l-.036.286v24.591h9.226l.01-14.299h12.483l-.021 14.3h9.256V70.123zm-21.694.254V68.52l-.01-.098a6.237 6.237 0 1 1 12.466 0l.026.098v1.124zM555.84 54.7h9.837v9.235H555.1l-2.508-.008a9.882 9.882 0 0 0 0 19.764l1.557.003h11.528v9.09h-11.853a19.041 19.041 0 0 1-.339-38.08zm47.174 25.137c-1.497-3.007-3.663-6.16-6.538-7.246a12.195 12.195 0 0 0 3.993-5.158l5.511-12.536h-9.486l-3.66 8.255-.771 1.823a7.048 7.048 0 0 1-4.387 4.345 14.323 14.323 0 0 1-6.6.254V54.701h-8.793v38.41h8.793V77.914h6.096l.626.032a8.192 8.192 0 0 1 6.533 4.843l.698 1.392 4.212 8.93h9.63z"/></svg>