<svg xmlns="http://www.w3.org/2000/svg" role="img" viewBox="-3.54 -4.54 652.08 201.08"><title>IOTech logo</title><defs><linearGradient id="a" x1="133.924" x2="133.924" y1="184.317" y2="8.106" gradientUnits="userSpaceOnUse"><stop offset=".25" stop-color="#005575"/><stop offset="1" stop-color="#00afac"/></linearGradient></defs><path fill="#045576" d="M636.253 181.864a.016.016 0 0 0 .016-.017v-70.002c0-24.82-13.52-40.153-36.725-40.153-15.517 0-24.591 8.25-31.651 17.314a.016.016 0 0 1-.029-.01V59.754a24.773 24.773 0 0 0-24.773-24.773h-5.881a.016.016 0 0 0-.016.017v140.091a6.774 6.774 0 0 0 6.774 6.775h21.002a2.895 2.895 0 0 0 2.894-2.895v-57.437c0-14.529 7.468-21.993 19.17-21.993 11.705 0 18.564 7.464 18.564 21.993v45.226a15.106 15.106 0 0 0 15.106 15.106zm-179.299-53.876v-.404c0-15.938 10.897-29.457 26.234-29.457 10.248 0 16.93 4.108 23.398 10.641a1.663 1.663 0 0 0 2.402-.013l15.738-16.921a2.891 2.891 0 0 0 0-3.964c-9.796-10.115-22.18-16.177-41.338-16.177-33.093 0-56.7 25.424-56.7 56.295v.405c0 30.87 23.81 55.89 56.296 55.89 19.717 0 31.524-6.898 41.415-16.854a4.04 4.04 0 0 0 .034-5.691l-14.024-14.184a1.766 1.766 0 0 0-2.446-.042c-7.016 6.385-13.852 10.338-23.566 10.338-16.747 0-27.443-13.315-27.443-29.862m-68.868-8.675H343.57a1.4 1.4 0 0 1-1.365-1.672c2.775-12.974 10.885-21.333 23.083-21.333 12.915 0 20.984 9.282 22.798 23.005m29.865 11.097c0-30.67-16.546-58.718-52.663-58.718-31.48 0-53.472 25.424-53.472 56.295v.405c0 33.093 24.011 55.894 56.496 55.894 17.662 0 31.216-6.244 41.109-16.655a4.519 4.519 0 0 0-.27-6.491l-12.788-11.319a2.146 2.146 0 0 0-2.834.032c-7.905 6.939-15.1 9.814-24.813 9.814-13.14 0-22.58-6.664-26.014-19.46a1.393 1.393 0 0 1 1.346-1.728h69.248a4.56 4.56 0 0 0 4.538-4.337c.071-1.307.117-2.566.117-3.732M284.954 69.322h38.785a2.66 2.66 0 0 0 2.66-2.66v-6.118a19.875 19.875 0 0 0-19.875-19.875H212.47a3.71 3.71 0 0 0-3.71 3.71v10.87a14.073 14.073 0 0 0 14.073 14.073H250.5a1.844 1.844 0 0 1 1.845 1.844v103.949a6.801 6.801 0 0 0 6.801 6.801h21.32a2.953 2.953 0 0 0 2.954-2.953V70.857a1.535 1.535 0 0 1 1.535-1.535zM14.27 181.916h8.007a21.45 21.45 0 0 0 21.45-21.45V45.045a4.374 4.374 0 0 0-4.375-4.375h-9.94A20.404 20.404 0 0 0 9.01 61.073v115.582a5.261 5.261 0 0 0 5.26 5.261z"/><path fill="url(#a)" d="M208.725 108.645v3.36c-.254 39.794-31.735 72.312-74.998 72.312-43.406 0-74.56-32.332-74.604-72.312v-3.353a4.186 4.186 0 0 1 4.186-4.19h2.478a4.187 4.187 0 0 1 4.19 4.19 4.187 4.187 0 0 1 4.189-4.19h2.478a4.186 4.186 0 0 1 4.186 4.19v-.007a4.149 4.149 0 0 1 4.115-4.183h2.448a4.149 4.149 0 0 1 4.115 4.183v3.36c.235 23.915 17.854 43.758 42.623 43.758 24.908 0 42.189-19.665 42.228-43.758v-3.353a4.153 4.153 0 0 1 4.115-4.19h2.433a4.15 4.15 0 0 1 4.111 4.19 4.187 4.187 0 0 1 4.19-4.19h2.478a4.19 4.19 0 0 1 4.19 4.19v-.007a4.179 4.179 0 0 1 4.178-4.183h2.492a4.179 4.179 0 0 1 4.179 4.183zM63.783 47.123h2.478a4.186 4.186 0 0 0 4.186-4.19v-2.478a4.189 4.189 0 0 0-4.186-4.189h-2.478a4.19 4.19 0 0 0-4.19 4.19v2.478a4.187 4.187 0 0 0 4.19 4.189zm9.526-1.925h2.478a4.19 4.19 0 0 1 4.19 4.19v2.474a4.192 4.192 0 0 1-4.19 4.19h-2.478a4.189 4.189 0 0 1-4.186-4.19v-2.474a4.186 4.186 0 0 1 4.186-4.19zm113.647 3.079v-2.478a4.193 4.193 0 0 1 4.19-4.193h2.478a4.19 4.19 0 0 1 4.186 4.193v2.478a4.186 4.186 0 0 1-4.186 4.186h-2.478a4.189 4.189 0 0 1-4.19-4.186zM78.74 36.993v-2.478a4.186 4.186 0 0 1 4.186-4.186h2.478a4.186 4.186 0 0 1 4.185 4.186v2.478a4.189 4.189 0 0 1-4.185 4.19h-2.478a4.189 4.189 0 0 1-4.186-4.19zm54.636-21.539v-2.478a4.188 4.188 0 0 1 4.185-4.186h2.479a4.189 4.189 0 0 1 4.189 4.186v2.478a4.187 4.187 0 0 1-4.19 4.19h-2.478a4.186 4.186 0 0 1-4.185-4.19zm23.16 10.17v-2.475a4.186 4.186 0 0 1 4.186-4.19 4.189 4.189 0 0 1-4.186-4.189v-2.478a4.186 4.186 0 0 1 4.186-4.186h2.478a4.183 4.183 0 0 1 4.186 4.186v2.478a4.186 4.186 0 0 1-4.186 4.19 4.184 4.184 0 0 1 4.186 4.189v2.475a4.184 4.184 0 0 1-4.186 4.189h-2.478a4.186 4.186 0 0 1-4.185-4.19zm-.086 42.536v2.492a4.179 4.179 0 0 1-4.182 4.179h-2.49a4.181 4.181 0 0 1-4.181-4.179V68.16a4.184 4.184 0 0 1 4.182-4.182h2.489a4.182 4.182 0 0 1 4.182 4.182zm48.097 25.45h-.854a4.18 4.18 0 0 0 2.649-3.886v-2.478a4.183 4.183 0 0 0-4.186-4.186h-2.087a4.169 4.169 0 0 0 2.25-3.69v-2.478a4.186 4.186 0 0 0-4.186-4.186h-.576a4.17 4.17 0 0 0 2.28-3.707v-2.478a4.189 4.189 0 0 0-4.186-4.19h-2.478a4.189 4.189 0 0 0-4.186 4.19 4.182 4.182 0 0 0-3.972-4.167 4.174 4.174 0 0 0 3.972-4.16V55.7a4.182 4.182 0 0 0-4.185-4.179h-2.49a4.181 4.181 0 0 0-4.182 4.179 4.178 4.178 0 0 0-4.178-4.179h-.007a4.19 4.19 0 0 0 4.189-4.19v-2.474a4.19 4.19 0 0 0-4.19-4.19h-2.477a4.19 4.19 0 0 0-4.19 4.19 4.184 4.184 0 0 0-4.186-4.19h-2.478a4.187 4.187 0 0 0-4.185 4.19v2.475a4.186 4.186 0 0 0 4.185 4.19h.004a4.18 4.18 0 0 0-4.178 4.075 4.18 4.18 0 0 0-4.175-4.076h-2.478a4.188 4.188 0 0 0-4.187 4.164 4.177 4.177 0 0 0-4.177-4.164h-.011a4.187 4.187 0 0 0 4.19-4.19v-2.474a4.187 4.187 0 0 0-4.188-4.189 4.188 4.188 0 0 0 4.185-4.171 4.188 4.188 0 0 0 4.188 4.171h2.478a4.189 4.189 0 0 0 4.186-4.189v-2.478a4.189 4.189 0 0 0-4.186-4.19h-2.478a4.188 4.188 0 0 0-4.188 4.172 4.188 4.188 0 0 0-4.187-4.172h-2.478a4.182 4.182 0 0 0-4.173 4.058h-.033a4.177 4.177 0 0 0-4.167-4.057 4.18 4.18 0 0 0 4.18-4.179v-2.496a4.181 4.181 0 0 0-4.182-4.178h-2.49a4.181 4.181 0 0 0-4.182 4.178v2.496a4.18 4.18 0 0 0 4.18 4.179 4.177 4.177 0 0 0-4.167 4.057 4.187 4.187 0 0 0-4.185-4.143h-2.474a4.19 4.19 0 0 0-4.19 4.19v.085a4.186 4.186 0 0 0-4.185-4.19h-2.478a4.192 4.192 0 0 0-4.19 4.19v2.478a4.192 4.192 0 0 0 4.187 4.19 4.181 4.181 0 0 0-4.172 4.038h-.03a4.178 4.178 0 0 0-4.17-4.04h-2.479a4.184 4.184 0 0 0-4.185 4.19v2.475a4.184 4.184 0 0 0 4.185 4.19 4.185 4.185 0 0 0-4.187 4.167 4.185 4.185 0 0 0-4.184-4.168h-2.478a4.186 4.186 0 0 0-4.19 4.186v2.478a4.187 4.187 0 0 0 4.19 4.19h2.478a4.185 4.185 0 0 0 4.184-4.172 4.175 4.175 0 0 0 3.967 4.15 4.171 4.171 0 0 0-3.969 4.16v2.493a4.164 4.164 0 0 0 2.324 3.726c-.09-.006-.177-.027-.27-.027H90.91a4.181 4.181 0 0 0-4.182 4.178v.008a4.186 4.186 0 0 0-4.186-4.186h-2.478c-.134 0-.26.027-.39.04a4.173 4.173 0 0 0 2.354-3.747V66.52a4.192 4.192 0 0 0-4.189-4.19H75.36a4.189 4.189 0 0 0-4.186 4.19V69a4.186 4.186 0 0 0 4.186 4.186h2.478c.133 0 .259-.027.389-.04a4.172 4.172 0 0 0-2.353 3.747 4.186 4.186 0 0 0-4.19-4.186h-2.478a4.186 4.186 0 0 0-4.186 4.186v2.478a4.169 4.169 0 0 0 2.25 3.69h-2.087a4.183 4.183 0 0 0-4.186 4.186v2.478a4.18 4.18 0 0 0 2.65 3.885h-.338a4.186 4.186 0 0 0-4.186 4.186v2.478a4.186 4.186 0 0 0 4.186 4.19h2.478a4.187 4.187 0 0 0 4.19-4.19 4.187 4.187 0 0 0 4.189 4.19h2.478a4.186 4.186 0 0 0 4.186-4.19v.007a4.182 4.182 0 0 0 4.182 4.182h2.489a4.182 4.182 0 0 0 4.182-4.182v-2.492a4.173 4.173 0 0 0-2.645-3.878h.337a4.181 4.181 0 0 0 4.182-4.179v-2.493a4.161 4.161 0 0 0-2.246-3.682h2.087a4.181 4.181 0 0 0 4.182-4.179v-2.493a4.165 4.165 0 0 0-2.326-3.726c.09.006.176.027.268.027h2.492a4.179 4.179 0 0 0 4.182-4.178 4.179 4.179 0 0 0 4.182 4.178h2.49a4.181 4.181 0 0 0 4.182-4.178v-2.493a4.174 4.174 0 0 0-3.966-4.16 4.17 4.17 0 0 0 3.966-4.16V58.1a4.19 4.19 0 0 0 4.189 4.19h2.478a4.18 4.18 0 0 0 4.173-4.062 4.184 4.184 0 0 0 4.181 4.146h2.478a4.188 4.188 0 0 0 4.189-4.146h.015a4.176 4.176 0 0 0 4.175 4.146h2.493a4.18 4.18 0 0 0 4.177-4.168 4.188 4.188 0 0 0 4.187 4.168h2.478a4.18 4.18 0 0 0 4.175-4.08 4.181 4.181 0 0 0 4.178 4.08h2.478a4.185 4.185 0 0 0 4.184-4.167 4.173 4.173 0 0 0 3.965 4.146 4.174 4.174 0 0 0-3.967 4.16v2.493a4.181 4.181 0 0 0 4.182 4.178h.575a4.16 4.16 0 0 0-2.275 3.7v2.492a4.179 4.179 0 0 0 4.182 4.179h2.086a4.16 4.16 0 0 0-2.245 3.682v2.493a4.179 4.179 0 0 0 4.182 4.178h.854a4.181 4.181 0 0 0-2.652 3.886v2.478a4.19 4.19 0 0 0 4.19 4.19h2.478a4.187 4.187 0 0 0 4.185-4.19 4.187 4.187 0 0 0 4.19 4.19h2.478a4.19 4.19 0 0 0 4.19-4.19v.007a4.179 4.179 0 0 0 4.178 4.182h2.492a4.179 4.179 0 0 0 4.179-4.182v-2.492a4.178 4.178 0 0 0-4.179-4.179zm-130.38 0a4.186 4.186 0 0 0-4.19 4.185 4.179 4.179 0 0 0-2.65-3.885h.335a4.183 4.183 0 0 0 4.186-4.186 4.18 4.18 0 0 0 2.654 3.885zm1.874-10.55a4.187 4.187 0 0 0-4.193 4.186 4.164 4.164 0 0 0-2.247-3.69h2.084a4.186 4.186 0 0 0 4.19-4.186 4.168 4.168 0 0 0 2.25 3.69zm8.972 10.55a4.181 4.181 0 0 0-4.182 4.178v.007a4.18 4.18 0 0 0-2.649-3.886h.334a4.189 4.189 0 0 0 4.189-4.185v.007a4.172 4.172 0 0 0 2.642 3.878zm1.87-10.55a4.178 4.178 0 0 0-4.178 4.178v.008a4.167 4.167 0 0 0-2.251-3.69h2.088a4.186 4.186 0 0 0 4.186-4.186v.007a4.162 4.162 0 0 0 2.246 3.683zm43.674-42.39a4.182 4.182 0 0 0 4.179-4.143h.015a4.186 4.186 0 0 0 4.18 4.142 4.181 4.181 0 0 0-4.173 4.04h-.037a4.178 4.178 0 0 0-4.166-4.04zm-6.667-4.143a4.182 4.182 0 0 0 4.178 4.142 4.178 4.178 0 0 0-4.166 4.039 4.18 4.18 0 0 0-4.177-4.124h-.006a4.182 4.182 0 0 0 4.171-4.057zm-15.023 4.142a4.186 4.186 0 0 0 4.184-4.189v-.085a4.19 4.19 0 0 0 4.185 4.189 4.182 4.182 0 0 0-4.18 4.124h-.02a4.176 4.176 0 0 0-4.169-4.039zm-6.67 25.845a4.171 4.171 0 0 0-3.97-4.16 4.179 4.179 0 0 0 3.97-4.168v.007a4.171 4.171 0 0 0 3.965 4.16 4.171 4.171 0 0 0-3.965 4.161zm4.179-14.992a4.178 4.178 0 0 0-4.179 4.179v.007a4.189 4.189 0 0 0-4.189-4.186h.004a4.183 4.183 0 0 0 4.179-4.124h.013a4.186 4.186 0 0 0 4.183 4.124zm6.675 4.1v.079a4.178 4.178 0 0 0-4.179-4.179h-.007a4.18 4.18 0 0 0 4.179-4.124h.021a4.177 4.177 0 0 0 4.171 4.04h.004a4.189 4.189 0 0 0-4.19 4.185zm10.848-.042a4.183 4.183 0 0 0-4.181-4.143h.007a4.177 4.177 0 0 0 4.168-4.04 4.183 4.183 0 0 0 4.18 4.125 4.179 4.179 0 0 0-4.174 4.058zm15.03-4.058a4.169 4.169 0 0 0-4.166 4.058h-.033a4.183 4.183 0 0 0-4.18-4.058 4.183 4.183 0 0 0 4.18-4.124h.02a4.186 4.186 0 0 0 4.183 4.124zm32.53 0a4.18 4.18 0 0 0-4.18 4.164 4.184 4.184 0 0 0-4.184-4.164h-.004a4.184 4.184 0 0 0 4.186-4.19 4.19 4.19 0 0 0 4.19 4.19zm6.671 6.671a4.174 4.174 0 0 0 3.971 4.161 4.181 4.181 0 0 0-3.97 4.167v-.007a4.171 4.171 0 0 0-3.964-4.16 4.171 4.171 0 0 0 3.963-4.16zm8.89 39.602a4.186 4.186 0 0 0-4.187-4.186h-.84a4.172 4.172 0 0 0 2.642-3.878v-.007a4.188 4.188 0 0 0 4.186 4.185h.849a4.179 4.179 0 0 0-2.65 3.886zm1.8-14.735a4.186 4.186 0 0 0-4.185 4.186v-.008a4.178 4.178 0 0 0-4.178-4.178h-2.091a4.162 4.162 0 0 0 2.246-3.683v-2.493a4.181 4.181 0 0 0-4.182-4.178h-.573a4.162 4.162 0 0 0 2.273-3.7V69a4.189 4.189 0 0 0 4.19 4.186h2.478a4.189 4.189 0 0 0 4.19-4.186 4.186 4.186 0 0 0 4.185 4.186h.572a4.169 4.169 0 0 0-2.283 3.707v2.478a4.19 4.19 0 0 0 4.193 4.186h2.083a4.165 4.165 0 0 0-2.25 3.69 4.184 4.184 0 0 0-4.189-4.186zm9.056 14.728v.007a4.189 4.189 0 0 0-4.19-4.186h-.848a4.18 4.18 0 0 0 2.65-3.885 4.186 4.186 0 0 0 4.19 4.185h.84a4.172 4.172 0 0 0-2.642 3.879z"/></svg>