<svg xmlns="http://www.w3.org/2000/svg" role="img" viewBox="-5.70 -6.70 842.40 222.40"><defs><linearGradient id="a" x1="355.256" x2="-1.399" y1="-178.369" y2="217.735" gradientUnits="userSpaceOnUse"><stop offset="0" stop-color="#db282e"/><stop offset="1" stop-color="#eb892c"/></linearGradient></defs><path fill="#22292b" d="M245.903 157.38V52.063h-19.336v-14.03h52.702v14.03h-19.335V157.38h19.335v14.03h-52.702v-14.03zm553.772-86.437a20.1 20.1 0 0 1 14.896 6.15 20.332 20.332 0 0 1 6.064 14.81v79.507h-14.032V91.903a6.376 6.376 0 0 0-2.078-4.764 6.79 6.79 0 0 0-4.85-1.992h-41.747a6.802 6.802 0 0 0-6.755 6.756v79.507h-14.377V91.903a6.804 6.804 0 0 0-6.755-6.756H688.12a6.805 6.805 0 0 0-6.756 6.756v79.507h-14.376V91.775a21.976 21.976 0 0 1 .595-5.051 20.347 20.347 0 0 1 5.469-9.63 20.098 20.098 0 0 1 14.895-6.151zm-160.226 0h14.204v79.507a20.177 20.177 0 0 1-6.151 14.81 20.384 20.384 0 0 1-14.983 6.15h-60.28a21 21 0 0 1-20.96-20.96V70.943h14.204v79.507a6.8 6.8 0 0 0 6.756 6.756h60.28a6.791 6.791 0 0 0 4.851-1.991 6.373 6.373 0 0 0 2.079-4.765V70.943zM519.929 171.41V70.943h14.204V171.41zm0-133.379h14.204v14.204h-14.204V38.031zm-132.164.002h124.72v14.03h-55.259V171.41h-14.029V52.063h-55.432v-14.03zm-79.795 32.91a20.999 20.999 0 0 0-20.96 20.96v58.547a20.997 20.997 0 0 0 20.96 20.96h60.28a20.388 20.388 0 0 0 14.983-6.15 20.183 20.183 0 0 0 6.148-14.81V91.903a20.995 20.995 0 0 0-21.132-20.96zm60.28 14.204a6.802 6.802 0 0 1 6.754 6.756v58.547a6.8 6.8 0 0 1-6.755 6.756h-60.28a6.799 6.799 0 0 1-6.756-6.756V91.903a6.8 6.8 0 0 1 6.757-6.756z"/><path fill="url(#a)" fill-rule="evenodd" d="M100.28 19.075L35.648 49.519a7.938 7.938 0 1 0-8.735 12.829l-4.66 71.38a11.003 11.003 0 0 0-.72-.025 11.036 11.036 0 1 0 9.34 16.915l62.078 39.076a7.937 7.937 0 1 0 15.28.274l63.832-35.149a6.103 6.103 0 1 0 6.016-9.99l1.859-76.775a6.104 6.104 0 1 0-5.138-10.529l-58.103-37.37a8.4 8.4 0 1 0-16.495-2.237 8.52 8.52 0 0 0 .078 1.157zm-44.236 96.382l14.493-16.043 10.528 21.746a5.792 5.792 0 0 0-2.161 1.8l-21.52-5.18a6.09 6.09 0 0 0-1.34-2.323zm15.953-18.132l.148.309 7.33-8.114 39.309 25.358a5.9 5.9 0 0 0-.089 1.023 5.768 5.768 0 0 0 2.227 4.558l-8.274 10.627-23.38-5.63a5.778 5.778 0 0 0-5.703-4.864 6.29 6.29 0 0 0-.305.007L71.997 97.325zm8.566-9.746l.421.271 5.369-5.942-.843-.177 12.897 2.705a5.504 5.504 0 0 0 9.855 2.067l10.284 2.158 4.696 21.596a5.783 5.783 0 0 0-3.625 2.513L80.563 87.58zm6.615-7.768l.899.188 20.454-22.64a5.981 5.981 0 0 0 .982.342 6.161 6.161 0 0 0 2.788.05l5.468 28.478-8.591-1.803a5.504 5.504 0 0 0-10.773-2.26L87.178 79.81zm19.144-24.128L84.947 79.342l-16.513-3.465c.012-.205.018-.412.018-.62a10.99 10.99 0 0 0-2.277-6.712l11.866-13.687.4-.46 26.662-1.097a6.175 6.175 0 0 0 .287.85 6.097 6.097 0 0 0 .932 1.532zM83.224 81.25l-4.597 5.088.778.501-11.712-7.552a11.174 11.174 0 0 0 .396-1.213l15.135 3.176zm-5.292 7.283l-.814-.525L70.8 95l-6.04-11.507a11.07 11.07 0 0 0 1.91-2.224l11.262 7.262zm-8.719 8.225L53.735 113.89a6.084 6.084 0 0 0-1.98-.397l-4.533-12.826 7.513-14.702a11.055 11.055 0 0 0 8.207-1.154l6.271 11.946zm-23.11 25.58l-15.107 16.721a11.78 11.78 0 0 0-.189-.302 11.011 11.011 0 0 0-1.39-1.739c-.168-.17-.342-.337-.52-.498l16.932-33.128 3.693 10.446a6.11 6.11 0 0 0-3.65 7.983c.07.178.147.35.23.518zM32.19 141.86l15.705-17.383-.07-.052a6.101 6.101 0 0 0 6.845.419l15.455 23.181-37.644-4.686a11.747 11.747 0 0 0-.29-1.479zm92.414-89.837L117 50.584a6.11 6.11 0 0 0-4.364-4.686l-2.069-19.813q.408-.1.799-.235l13.237 26.172zm-7.65 1.181l9.119 1.725-.65-1.287 1.223 2.42 13.14 25.984a11.063 11.063 0 0 0-5.82 7.583l-13.698-2.874-5.898-29.87a6.14 6.14 0 0 0 2.068-2.294 6.066 6.066 0 0 0 .516-1.387zm11.872 2.246l44.246 8.372a6.098 6.098 0 0 0 .417 1.024l-20.013 20.27a11.041 11.041 0 0 0-11.605-3.87l-12.54-24.796-.505-1zm44.044 5.706l-45.514-8.612-14.008-27.696a8.46 8.46 0 0 0 2.316-2.385l57.67 37.091a6.033 6.033 0 0 0-.332.948 5.706 5.706 0 0 0-.132.654zM105.007 50.72l-24.234.99 23.213-26.774a8.35 8.35 0 0 0 4.374 1.378l2.023 19.4a6.107 6.107 0 0 0-5.376 5.006zm-67.253 5.41l37.63-1.595-.348.401-10.39 11.985a11.033 11.033 0 0 0-14.879.384l-12.762-8.776a7.932 7.932 0 0 0 .75-2.4zm39.253-3.467l.708-.817-40.012 1.701a7.805 7.805 0 0 0-.625-1.94L101 21.499a8.436 8.436 0 0 0 1.308 1.982L77.007 52.662zm69.803 89.172l23.794 9.972a6.34 6.34 0 0 0 .21.848l-63.597 35.019a8.015 8.015 0 0 0-1.184-1.43l34.262-42.226a6.109 6.109 0 0 0 6.427-2.07l.088-.113zm23.897 7.391l-22.842-9.572a6.11 6.11 0 0 0-1.544-5.771l.437-.963 20.925 13.494 3.257 2.1a6.835 6.835 0 0 0-.233.712zm-47.76-27.752a5.776 5.776 0 0 0 4.798-.816l17.126 11.046-.399.879a6.105 6.105 0 0 0-8.456 4.13l-20.998-5.056 7.929-10.183zm6.376-2.442a5.78 5.78 0 0 0 .232-5.868c3.338-3.937 6.833-7.59 10.481-11.296a11.05 11.05 0 0 0 9.714-.123l4.592 9.079-8.543 18.834-16.476-10.626zm-.93-7.366a5.747 5.747 0 0 0-2.982-1.462l-4.366-21.018 12.688 2.663v.046a11.021 11.021 0 0 0 4.62 8.98l-9.96 10.79zm-50.443 13.35a5.778 5.778 0 0 0 8.115 6.56l5.811 12.107a8.825 8.825 0 0 0-3.135 6.66l-15.705-1.955-16.682-25.022a6.066 6.066 0 0 0 1.282-3.242l20.314 4.892zm9.924 5.197a5.758 5.758 0 0 0 1.307-2.492l21.968 5.29-8.136 10.45a8.849 8.849 0 0 0-9.259-.996l-5.88-12.252zM48.322 69.005a11.038 11.038 0 0 0 4.308 16.2l-6.428 12.577-12.638-35.75a7.955 7.955 0 0 0 2.18-1.674l12.578 8.647zm40.689 83.608a8.85 8.85 0 0 0 7.755 6.626l1.955 25.02a7.867 7.867 0 0 0-1.442.492l-22.617-33.924 14.349 1.786zm9.978 6.552a8.846 8.846 0 0 0 7.411-8.096l30.92-8.953a6.093 6.093 0 0 0 .94.886l-34.036 41.945a7.886 7.886 0 0 0-3.29-.891l-1.945-24.891zm7.281-10.37a8.796 8.796 0 0 0-1.678-3.746l8.929-11.469 22.382 5.39a6.134 6.134 0 0 0 .277 1.164l-29.91 8.662zm45.359-48.256a11.04 11.04 0 0 0 3.058-13.488l19.309-19.558-18.478 40.735-3.89-7.689zM29.38 62.911q.257.017.517.017a8 8 0 0 0 1.574-.156l13.338 37.733-17.73 34.691a10.964 10.964 0 0 0-2.351-1.022L29.38 62.91zm2.584 85.44a11.005 11.005 0 0 0 .574-2.768l39.213 4.882 23.652 35.477a7.977 7.977 0 0 0-1.354 1.491l-62.085-39.082zm143.618-3.61a6.07 6.07 0 0 0-1.388.413l-17.39-34.383 19.584-43.174a6.065 6.065 0 0 0 1.053.365l-1.86 76.78zm-3.245 1.665a6.809 6.809 0 0 0-.217.226l-24.434-15.758 7.941-17.509z"/></svg>