<svg xmlns="http://www.w3.org/2000/svg" role="img" viewBox="-5.66 59.09 411.06 126.56"><title>IOTech Systems Limited (member) logo</title><style>svg {enable-background:new 0 0 400 245}</style><path fill="#045576" d="M397.51 176.44c.01 0 .01 0 .01-.01v-44.09c0-15.63-8.51-25.29-23.13-25.29-9.77 0-15.49 5.2-19.93 10.9-.01.01-.02 0-.02-.01v-18.4c0-8.62-6.99-15.6-15.6-15.6h-3.7c-.01 0-.01 0-.01.01v88.23c0 2.36 1.91 4.27 4.27 4.27h13.23c1.01 0 1.82-.82 1.82-1.82v-36.17c0-9.15 4.7-13.85 12.07-13.85s11.69 4.7 11.69 13.85v28.48c0 5.25 4.26 9.51 9.51 9.51h9.79zm-112.92-33.93v-.25c0-10.04 6.86-18.55 16.52-18.55 6.45 0 10.66 2.59 14.74 6.7.42.42 1.11.43 1.51-.01l9.91-10.66c.65-.7.67-1.81 0-2.5-6.17-6.37-13.97-10.19-26.03-10.19-20.84 0-35.71 16.01-35.71 35.45v.25c0 19.44 15 35.2 35.45 35.2 12.42 0 19.85-4.34 26.08-10.62.99-.99 1-2.59.02-3.58l-8.83-8.93c-.42-.42-1.1-.43-1.54-.03-4.42 4.02-8.72 6.51-14.84 6.51-10.54.02-17.28-8.37-17.28-18.79m-43.37-5.46h-28.04c-.55 0-.97-.52-.86-1.05 1.75-8.17 6.86-13.44 14.54-13.44 8.13 0 13.22 5.85 14.36 14.49m18.81 6.99c0-19.32-10.42-36.98-33.17-36.98-19.83 0-33.68 16.01-33.68 35.45v.25c0 20.84 15.12 35.2 35.58 35.2 11.12 0 19.66-3.93 25.89-10.49 1.11-1.17 1.03-3.02-.17-4.09l-8.05-7.13c-.51-.45-1.27-.43-1.78.02-4.98 4.37-9.51 6.18-15.63 6.18-8.28 0-14.22-4.2-16.38-12.26-.15-.54.28-1.09.85-1.09h43.61c1.53 0 2.78-1.21 2.86-2.73.04-.81.07-1.6.07-2.33m-83.76-38.48h24.43c.93 0 1.68-.75 1.68-1.68v-3.85c0-6.91-5.6-12.52-12.52-12.52h-59.24c-1.29 0-2.34 1.05-2.34 2.34v6.85c0 4.9 3.97 8.86 8.86 8.86h17.42c.64 0 1.16.52 1.16 1.16v65.47c0 2.37 1.92 4.28 4.28 4.28h13.43c1.03 0 1.86-.83 1.86-1.86v-68.08c.01-.53.44-.97.98-.97zM5.79 176.48h5.04c7.46 0 13.51-6.05 13.51-13.51v-72.7c0-1.52-1.23-2.75-2.75-2.75h-6.26c-7.1 0-12.85 5.75-12.85 12.85v72.79c0 1.83 1.48 3.32 3.31 3.32z"/><linearGradient id="a" x1="81.149" x2="81.149" y1="177.988" y2="67.012" gradientUnits="userSpaceOnUse"><stop offset=".25" stop-color="#005575"/><stop offset="1" stop-color="#00afac"/></linearGradient><path fill="url(#a)" d="M128.26 130.33V132.44c-.16 25.06-19.99 45.54-47.23 45.54-27.34 0-46.96-20.36-46.98-45.54v-2.11c0-1.46 1.18-2.64 2.64-2.64h1.56c1.46 0 2.64 1.18 2.64 2.64 0-1.46 1.18-2.64 2.64-2.64h1.56c1.46 0 2.64 1.18 2.64 2.64 0-1.46 1.16-2.63 2.59-2.63h1.54c1.43 0 2.59 1.18 2.59 2.63v2.12C54.58 147.51 65.68 160 81.28 160c15.69 0 26.57-12.38 26.59-27.56V130.33c0-1.46 1.16-2.64 2.59-2.64H112c1.43 0 2.59 1.18 2.59 2.64 0-1.46 1.18-2.64 2.64-2.64h1.56c1.46 0 2.64 1.18 2.64 2.64 0-1.46 1.18-2.63 2.63-2.63h1.57c1.45 0 2.63 1.17 2.63 2.63zM36.97 91.58h1.56c1.46 0 2.64-1.18 2.64-2.64v-1.56c0-1.46-1.18-2.64-2.64-2.64h-1.56c-1.46 0-2.64 1.18-2.64 2.64v1.56c.01 1.46 1.19 2.64 2.64 2.64zm6-1.21h1.56c1.46 0 2.64 1.18 2.64 2.64v1.56c0 1.46-1.18 2.64-2.64 2.64h-1.56c-1.46 0-2.64-1.18-2.64-2.64v-1.56c.01-1.46 1.19-2.64 2.64-2.64zm71.58 1.94v-1.56c0-1.46 1.18-2.64 2.64-2.64h1.56c1.46 0 2.64 1.18 2.64 2.64v1.56c0 1.46-1.18 2.64-2.64 2.64h-1.56c-1.46 0-2.64-1.18-2.64-2.64zM46.39 85.2v-1.56c0-1.46 1.18-2.64 2.64-2.64h1.56c1.46 0 2.64 1.18 2.64 2.64v1.56c0 1.46-1.18 2.64-2.64 2.64h-1.56c-1.46 0-2.64-1.18-2.64-2.64zM80.8 71.64v-1.56c0-1.45 1.18-2.64 2.64-2.64H85c1.46 0 2.64 1.18 2.64 2.64v1.56c0 1.46-1.18 2.64-2.64 2.64h-1.56c-1.46 0-2.64-1.18-2.64-2.64zm14.59 6.4v-1.56c0-1.46 1.18-2.64 2.64-2.64-1.46 0-2.64-1.18-2.64-2.64v-1.56c0-1.46 1.18-2.64 2.64-2.64h1.56c1.46 0 2.64 1.18 2.64 2.64v1.56c0 1.46-1.18 2.64-2.64 2.64 1.46 0 2.64 1.18 2.64 2.64v1.56c0 1.46-1.18 2.64-2.64 2.64h-1.56c-1.46 0-2.64-1.18-2.64-2.64zm-.06 26.79v1.57c0 1.45-1.18 2.63-2.63 2.63h-1.57c-1.45 0-2.63-1.18-2.63-2.63v-1.57c0-1.45 1.18-2.63 2.63-2.63h1.57c1.46 0 2.63 1.18 2.63 2.63zm30.3 16.03h-.54c.98-.39 1.67-1.33 1.67-2.45v-1.56c0-1.46-1.18-2.64-2.64-2.64h-1.31c.84-.44 1.42-1.31 1.42-2.32v-1.56c0-1.46-1.18-2.64-2.64-2.64h-.36c.85-.44 1.44-1.31 1.44-2.33v-1.56c0-1.46-1.18-2.64-2.64-2.64h-1.56c-1.46 0-2.64 1.18-2.64 2.64 0-1.41-1.11-2.55-2.5-2.62 1.39-.07 2.5-1.21 2.5-2.62v-1.57c0-1.45-1.18-2.63-2.64-2.63h-1.57c-1.45 0-2.63 1.18-2.63 2.63 0-1.45-1.18-2.63-2.63-2.63 1.46 0 2.64-1.18 2.64-2.64v-1.56c0-1.46-1.18-2.64-2.64-2.64h-1.56c-1.46 0-2.64 1.18-2.64 2.64 0-1.46-1.18-2.64-2.64-2.64h-1.56c-1.46 0-2.64 1.18-2.64 2.64v1.56c0 1.46 1.18 2.64 2.64 2.64-1.43 0-2.59 1.14-2.63 2.57-.04-1.42-1.2-2.57-2.63-2.57h-1.56c-1.45 0-2.63 1.17-2.64 2.62 0-1.45-1.18-2.62-2.63-2.62h-.01c1.46 0 2.64-1.18 2.64-2.64v-1.56c0-1.46-1.18-2.64-2.64-2.64 1.45 0 2.63-1.18 2.64-2.63.01 1.45 1.18 2.63 2.64 2.63h1.56c1.46 0 2.64-1.18 2.64-2.64v-1.56c0-1.46-1.18-2.64-2.64-2.64h-1.56c-1.45 0-2.63 1.18-2.64 2.63-.01-1.45-1.18-2.63-2.64-2.63H84.3c-1.43 0-2.58 1.14-2.63 2.56h-.02c-.04-1.42-1.2-2.55-2.62-2.56 1.45 0 2.63-1.18 2.63-2.63v-1.57c0-1.45-1.18-2.63-2.63-2.63h-1.57c-1.45 0-2.63 1.18-2.63 2.63v1.57c0 1.45 1.18 2.63 2.63 2.63-1.43 0-2.58 1.14-2.62 2.56-.02-1.44-1.19-2.61-2.64-2.61h-1.56c-1.46 0-2.64 1.18-2.64 2.64v.05c0-1.46-1.18-2.64-2.64-2.64H63.8c-1.46 0-2.64 1.18-2.64 2.64v1.56c0 1.46 1.18 2.64 2.64 2.64-1.42 0-2.58 1.13-2.63 2.54h-.02c-.05-1.41-1.2-2.54-2.63-2.54h-1.56c-1.46 0-2.64 1.18-2.64 2.64v1.56c0 1.46 1.18 2.64 2.64 2.64-1.45 0-2.63 1.17-2.64 2.62-.01-1.45-1.18-2.62-2.63-2.62h-1.56c-1.46 0-2.64 1.18-2.64 2.64v1.56c0 1.46 1.18 2.64 2.64 2.64h1.56c1.45 0 2.63-1.17 2.63-2.63.01 1.41 1.11 2.54 2.5 2.61-1.39.07-2.5 1.21-2.5 2.62v1.57c0 1.03.6 1.92 1.46 2.35-.06 0-.11-.02-.17-.02h-1.57c-1.45 0-2.63 1.18-2.63 2.63 0-1.46-1.18-2.64-2.64-2.64h-1.56c-.08 0-.16.02-.25.02.87-.43 1.48-1.32 1.48-2.36v-1.56c0-1.46-1.18-2.64-2.64-2.64h-1.56c-1.46 0-2.64 1.18-2.64 2.64v1.56c0 1.46 1.18 2.64 2.64 2.64h1.56c.08 0 .16-.02.24-.02-.87.43-1.48 1.32-1.48 2.36 0-1.46-1.18-2.64-2.64-2.64h-1.56c-1.46 0-2.64 1.18-2.64 2.64v1.56c0 1.01.58 1.88 1.42 2.32h-1.31c-1.46 0-2.64 1.18-2.64 2.64v1.56c0 1.11.69 2.06 1.67 2.45h-.21c-1.46 0-2.64 1.18-2.64 2.64v1.56c0 1.46 1.18 2.64 2.64 2.64h1.56c1.46 0 2.64-1.18 2.64-2.64 0 1.46 1.18 2.64 2.64 2.64h1.56c1.46 0 2.64-1.18 2.64-2.64 0 1.46 1.18 2.63 2.63 2.63h1.57c1.45 0 2.63-1.18 2.63-2.63v-1.57c0-1.11-.69-2.06-1.67-2.44h.21c1.45 0 2.63-1.18 2.63-2.63v-1.57c0-1.01-.58-1.88-1.41-2.32h1.31c1.45 0 2.63-1.18 2.63-2.63v-1.57c0-1.03-.6-1.92-1.47-2.35.06 0 .11.02.17.02h1.57c1.46 0 2.63-1.18 2.63-2.63 0 1.45 1.18 2.63 2.63 2.63h1.57c1.45 0 2.63-1.18 2.63-2.63v-1.57c0-1.41-1.11-2.55-2.5-2.62 1.39-.07 2.5-1.21 2.5-2.62v-.06c0 1.46 1.18 2.64 2.64 2.64h1.56c1.43 0 2.58-1.14 2.63-2.56.02 1.45 1.19 2.61 2.63 2.61h1.56c1.45 0 2.62-1.17 2.64-2.61h.01c.01 1.44 1.18 2.61 2.63 2.61h1.57c1.45 0 2.63-1.18 2.63-2.62.01 1.45 1.19 2.62 2.64 2.62h1.56c1.43 0 2.59-1.14 2.63-2.57.04 1.43 1.2 2.57 2.63 2.57h1.56c1.45 0 2.63-1.17 2.63-2.62 0 1.4 1.11 2.54 2.5 2.61-1.39.07-2.5 1.21-2.5 2.62v1.57c0 1.45 1.18 2.63 2.63 2.63h.36c-.85.44-1.43 1.31-1.43 2.33v1.57c0 1.45 1.18 2.63 2.63 2.63h1.31c-.84.44-1.41 1.31-1.41 2.32v1.57c0 1.45 1.18 2.63 2.63 2.63h.54c-.98.39-1.67 1.33-1.67 2.45v1.56c0 1.46 1.18 2.64 2.64 2.64h1.56c1.46 0 2.64-1.18 2.64-2.64 0 1.46 1.18 2.64 2.64 2.64h1.56c1.46 0 2.64-1.18 2.64-2.64 0 1.46 1.18 2.63 2.63 2.63h1.57c1.45 0 2.63-1.18 2.63-2.63v-1.57c.06-1.45-1.12-2.63-2.57-2.63zm-82.12 0c-1.46 0-2.64 1.18-2.64 2.64 0-1.11-.69-2.06-1.67-2.45h.21c1.46 0 2.64-1.18 2.64-2.64 0 1.11.69 2.06 1.67 2.45h-.21zm1.18-6.64c-1.46 0-2.64 1.18-2.64 2.64 0-1.01-.58-1.88-1.41-2.32h1.31c1.46 0 2.64-1.18 2.64-2.64 0 1.01.58 1.88 1.42 2.32h-1.32zm5.65 6.64c-1.45 0-2.63 1.18-2.63 2.63 0-1.11-.69-2.06-1.67-2.45h.21c1.46 0 2.64-1.18 2.64-2.64 0 1.11.69 2.06 1.66 2.44h-.21zm1.18-6.64c-1.45 0-2.63 1.18-2.63 2.63 0-1.01-.58-1.88-1.42-2.32h1.32c1.46 0 2.64-1.18 2.64-2.64 0 1.01.58 1.88 1.41 2.32h-1.32zm27.51-26.7c1.45 0 2.62-1.17 2.63-2.61h.01c.02 1.44 1.19 2.61 2.63 2.61-1.42 0-2.58 1.13-2.63 2.54h-.02c-.05-1.41-1.2-2.54-2.62-2.54zm-4.2-2.61c.01 1.44 1.19 2.61 2.63 2.61-1.42 0-2.57 1.13-2.62 2.54-.02-1.44-1.19-2.6-2.63-2.6 1.42 0 2.57-1.13 2.62-2.55zm-9.46 2.61c1.46 0 2.63-1.18 2.63-2.64v-.05c0 1.46 1.18 2.64 2.64 2.64-1.44 0-2.61 1.16-2.63 2.6H68c-.06-1.42-1.21-2.55-2.63-2.55zm-4.2 16.28c0-1.41-1.11-2.55-2.5-2.62 1.39-.07 2.5-1.21 2.5-2.62 0 1.41 1.11 2.55 2.5 2.62-1.4.07-2.5 1.21-2.5 2.62zm2.63-9.45c-1.45 0-2.63 1.18-2.63 2.63 0-1.46-1.18-2.64-2.64-2.64 1.44 0 2.61-1.16 2.63-2.6h.01c.02 1.46 1.19 2.61 2.63 2.61zm4.2 2.59v.05c0-1.45-1.18-2.63-2.63-2.63 1.44 0 2.61-1.16 2.63-2.6h.01c.05 1.41 1.2 2.54 2.63 2.54-1.46 0-2.64 1.18-2.64 2.64zm6.83-.03c-.02-1.44-1.19-2.61-2.63-2.61 1.42 0 2.58-1.13 2.62-2.54.02 1.44 1.19 2.6 2.63 2.6-1.42-.01-2.57 1.13-2.62 2.55zm9.47-2.56c-1.43 0-2.58 1.14-2.62 2.56h-.02c-.04-1.42-1.2-2.56-2.63-2.56 1.44 0 2.61-1.16 2.63-2.6h.01c.02 1.45 1.19 2.6 2.63 2.6zm20.49 0c-1.45 0-2.63 1.17-2.63 2.62-.01-1.45-1.18-2.62-2.63-2.62 1.46 0 2.64-1.18 2.64-2.64-.02 1.46 1.17 2.64 2.62 2.64zm4.2 4.21c0 1.41 1.11 2.55 2.5 2.62-1.39.07-2.5 1.22-2.5 2.62 0-1.41-1.11-2.55-2.5-2.62 1.39-.08 2.5-1.22 2.5-2.62zm5.6 24.94c0-1.46-1.18-2.64-2.64-2.64h-.53c.97-.39 1.66-1.33 1.66-2.44 0 1.46 1.18 2.64 2.64 2.64h.53c-.97.38-1.66 1.32-1.66 2.44zm1.13-9.28c-1.45 0-2.64 1.18-2.64 2.64 0-1.45-1.18-2.63-2.63-2.63h-1.32c.84-.44 1.41-1.31 1.41-2.32v-1.57c0-1.45-1.18-2.63-2.63-2.63h-.36c.85-.44 1.43-1.31 1.43-2.33 0 1.46 1.18 2.64 2.64 2.64h1.56c1.46 0 2.64-1.18 2.64-2.64 0 1.46 1.18 2.64 2.64 2.64h.36c-.85.44-1.44 1.31-1.44 2.33v1.56c0 1.46 1.18 2.64 2.64 2.64h1.31c-.84.44-1.42 1.31-1.42 2.32 0-1.46-1.18-2.64-2.64-2.64h-1.55zm5.7 9.27c0-1.45-1.18-2.63-2.64-2.63h-.53c.98-.39 1.67-1.33 1.67-2.45 0 1.46 1.18 2.64 2.64 2.64h.53c-.97.39-1.67 1.33-1.67 2.44z"/></svg>