<svg xmlns="http://www.w3.org/2000/svg" role="img" viewBox="-4.08 -7.33 433.16 234.16"><title>IOTA Foundation (member) logo</title><style>svg {fill-rule:evenodd;clip-rule:evenodd;stroke-linejoin:round;stroke-miterlimit:1.41421}</style><clipPath id="_clip1"><path d="M4.289.675H421v217.972H4.289z"/></clipPath><g clip-path="url(#_clip1)"><path d="M4.289 151.966h416.583v3.558H4.289zm0 30.549h23.656v3.301H7.847v13.399h17.502v3.302H7.847v15.611H4.289v-35.613zm54.397 32.823h.512c7.213 0 12.47-5.705 12.47-15.001s-5.257-15.001-12.47-15.001h-.512c-7.213 0-12.47 5.705-12.47 15.001s5.257 15.001 12.47 15.001zm.256-33.336c9.36 0 16.284 6.86 16.284 18.335 0 11.475-6.924 18.335-16.284 18.335s-16.284-6.86-16.284-18.335c0-11.475 6.924-18.335 16.284-18.335zm47.762 36.638c-8.816 0-12.983-5.353-12.983-13.238v-22.887h3.558v22.374c0 6.507 3.142 10.418 9.168 10.418h.513c5.994 0 9.168-3.911 9.168-10.418v-22.374h3.558v22.887c0 7.917-4.424 13.238-12.982 13.238zm37.279-31.189v30.677h-3.558v-35.613h4.584l19.585 30.163v-30.163h3.558v35.613h-4.327l-19.842-30.677zm56.865 27.375c8.302 0 12.982-5.193 12.982-14.489 0-9.296-4.68-14.521-12.982-14.521h-8.142v29.01h8.142zm-11.7-32.311h12.213c9.681 0 16.027 6.731 16.027 17.918s-6.346 17.695-16.027 17.695h-12.213v-35.613zm58.628 3.269l-7.789 19.233h15.579l-7.79-19.233zm-2.147-3.269h4.487l14.489 35.613h-3.782l-3.943-9.809h-18.207l-3.975 9.809h-3.654l14.585-35.613zm40.196 3.301h-12.982v-3.301h29.523v3.301h-12.983v32.312h-3.558v-32.312zm33.433-3.301h3.558v35.613h-3.558zm38.466 32.823h.513c7.244 0 12.469-5.705 12.469-15.001s-5.225-15.001-12.469-15.001h-.513c-7.244 0-12.469 5.705-12.469 15.001s5.257 15.001 12.469 15.001zm.256-33.336c9.36 0 16.284 6.86 16.284 18.335 0 11.475-6.924 18.335-16.284 18.335s-16.283-6.86-16.283-18.335c0-11.475 6.923-18.335 16.283-18.335zm38.723 5.449v30.677h-3.559v-35.613h4.584l19.586 30.163v-30.163h3.558v35.613h-4.328l-19.841-30.677zM3.962 4.009h7.26v119.994h-7.26zm171.919 59.997c0 8.739-1.265 16.946-3.795 24.621-2.53 7.675-6.187 14.341-10.972 19.999-4.784 5.658-10.641 10.111-17.571 13.36-6.93 3.25-14.794 4.874-23.594 4.874-8.799 0-16.691-1.624-23.675-4.874-6.985-3.249-12.87-7.702-17.654-13.36-4.785-5.658-8.442-12.324-10.972-19.999-2.53-7.675-3.795-15.882-3.795-24.621 0-8.739 1.265-16.946 3.795-24.621 2.53-7.674 6.187-14.341 10.972-19.999 4.784-5.658 10.669-10.111 17.654-13.36 6.984-3.249 14.876-4.874 23.675-4.874 8.8 0 16.664 1.625 23.594 4.874 6.93 3.249 12.787 7.702 17.571 13.36 4.785 5.658 8.442 12.325 10.972 19.999 2.53 7.675 3.795 15.882 3.795 24.621zm-104.768 0c0 7.731 1.1 15.013 3.299 21.848 2.2 6.834 5.39 12.801 9.57 17.898 4.179 5.098 9.294 9.159 15.344 12.184 6.049 3.025 12.924 4.538 20.623 4.538 7.7 0 14.547-1.513 20.542-4.538 5.994-3.025 11.081-7.086 15.261-12.184 4.18-5.097 7.37-11.064 9.57-17.898 2.2-6.835 3.299-14.117 3.299-21.848 0-7.731-1.099-15.013-3.299-21.848-2.2-6.834-5.39-12.8-9.57-17.898-4.18-5.098-9.267-9.159-15.261-12.184-5.995-3.025-12.842-4.538-20.542-4.538-7.699 0-14.574 1.513-20.623 4.538-6.05 3.025-11.165 7.086-15.344 12.184-4.18 5.098-7.37 11.064-9.57 17.898-2.199 6.835-3.299 14.117-3.299 21.848zm137.766-53.611V4.009h90.249v6.386h-41.577v113.608h-7.26V10.395h-41.412zM420.89 124.003h-7.754L370.733 11.236h-.329l-43.558 112.767h-7.754L366.444 4.009h7.919l46.527 119.994z" fill="#080605" fill-rule="nonzero"/></g></svg>