<svg xmlns="http://www.w3.org/2000/svg" role="img" viewBox="-3.36 -3.36 174.59 69.59"><title>Jeju National University (member) logo</title><defs><clipPath id="a"><path fill="none" d="M0 0h168v63H0z" data-name="사각형 16"/></clipPath></defs><g data-name="벡터 고급 개체"><g data-name="그룹 27"><g clip-path="url(#a)" data-name="그룹 26"><path fill="#000" d="M125.611 28c0 2.657 2.764 4.814 6.171 4.814s6.174-2.158 6.174-4.814a4.339 4.339 0 0 0-1.834-3.424h2.351v-1.889h-4.8v-2.171H129.9v2.172h-4.8v1.885h2.342A4.366 4.366 0 0 0 125.611 28m6.171-3.038A2.853 2.853 0 0 1 134.4 28a2.651 2.651 0 1 1-5.245 0 2.855 2.855 0 0 1 2.623-3.038m-5.457 26.473h1.109v-3.89l2.308 3.89h1.1v-5.56h-1.11v3.857l-2.316-3.857h-1.09zm-18.016-1.09h1.995l.417 1.09h1.183l-2.043-5.556h-1.108l-2.041 5.556h1.192zm1-3.03l.781 2.408h-1.569zM103.6 34.692a2.788 2.788 0 0 0 1.887.6h5.028a6.2 6.2 0 0 0 1.747-.215c.476-.142.9-.283 1.5-.518v7.4h3.549V28.7h1.667v13.26h3.548V21.085h-3.548v5.672h-1.667v-5.672h-3.551v11.73a10.332 10.332 0 0 1-1.448.4 8.355 8.355 0 0 1-1.66.142h-4.06v-9.551h5.34v-1.939h-9.026v11.211a2.041 2.041 0 0 0 .692 1.613m40.733-6.565h3.04v-1.941h-3.04V21.05h-3.748v12.379h3.748zm-76.79 17.749v4.068a1.325 1.325 0 0 0 .553 1.181 4.286 4.286 0 0 0 3.489 0 1.317 1.317 0 0 0 .548-1.181v-4.068h-1.16V50a.666.666 0 0 1-.275.59 2.032 2.032 0 0 1-1.712 0A.663.663 0 0 1 68.7 50v-4.125zm52.575 0v4.068a1.32 1.32 0 0 0 .55 1.181 4.281 4.281 0 0 0 3.487 0 1.319 1.319 0 0 0 .552-1.181v-4.068h-1.16V50a.669.669 0 0 1-.276.59 1.527 1.527 0 0 1-.853.189 1.556 1.556 0 0 1-.86-.189.664.664 0 0 1-.281-.59v-4.125zm45.964 0l-.732 1.553a3.9 3.9 0 0 0-.171.424c-.051.147-.092.3-.138.459a5.174 5.174 0 0 0-.152-.506 2.858 2.858 0 0 0-.152-.382L164 45.875h-1.218l1.65 3.19v2.366h1.21v-2.366l1.659-3.19zm-53.157 0v5.556h3.7v-.7H114.1v-4.856zM168 39.173h-7.445v-8.657h-3.606v8.657h-1.857v-8.657h-3.609v8.657h-3.763v1.918H168zm-5.475-8.96c0 1.563-.047 2.852-.15 3.857a5.643 5.643 0 0 1-.875 2.6h3.307a7.849 7.849 0 0 0 1.034-2.544 16.151 16.151 0 0 0 .373-3.66v-8.481h-16.56v1.942h12.87zm-15.647 15.662h-1.406v5.556h1.17v-2.714h.028l2.005 2.714h1.26l-2.081-2.738a2.191 2.191 0 0 0 1.236-.408 1.191 1.191 0 0 0 .412-.962 1.177 1.177 0 0 0-.6-1.114 4.46 4.46 0 0 0-2.024-.333m1.138 2.2a1.81 1.81 0 0 1-1.016.213h-.358v-1.756h.324a2.289 2.289 0 0 1 1.066.171.659.659 0 0 1 .284.618.859.859 0 0 1-.3.75m12.805 3.358v-4.859h1.618v-.7h-4.427v.7h1.62v4.859zM153 50.572a1.58 1.58 0 0 1-.854.2 3.021 3.021 0 0 1-.662-.079 5.341 5.341 0 0 1-.766-.237v.762a5.066 5.066 0 0 0 .773.209 4.312 4.312 0 0 0 .738.069 2.969 2.969 0 0 0 1.639-.412 1.231 1.231 0 0 0 .635-1.051 1.2 1.2 0 0 0-.311-.811 3.528 3.528 0 0 0-1.054-.736c-.041-.019-.1-.052-.183-.094-.857-.435-1.284-.812-1.284-1.134A.633.633 0 0 1 152 46.7a1.657 1.657 0 0 1 .888-.21 2.8 2.8 0 0 1 .642.077 3.376 3.376 0 0 1 .662.227v-.751a4.721 4.721 0 0 0-.741-.192 5.409 5.409 0 0 0-.782-.058 2.68 2.68 0 0 0-1.547.421 1.228 1.228 0 0 0-.626 1.046 1.129 1.129 0 0 0 .31.782 3.925 3.925 0 0 0 1.087.757c.044.027.117.062.212.113q1.211.632 1.21 1.123a.6.6 0 0 1-.318.532m2.781.858h1.171v-5.55h-1.171zm-66.276 0v-4.854h1.618v-.7H86.7v.7h1.616v4.859zm54.574-4.885v-.67H140.6v5.556h3.481v-.7h-2.311v-1.872h2.115v-.659h-2.115v-1.65zm-10.375-.67h-1.169v5.556h1.168zm2.252 0h-1.188l1.912 5.556h.993l1.915-5.556h-1.179l-1.226 3.77zm8.374-11.527H127.2v1.916h13.378v5.661h3.748zm-86.749-2.628a5.594 5.594 0 0 1-3.452 2.6l1.72 1.311a6.01 6.01 0 0 0 3.134-1.491 4.889 4.889 0 0 0 1.806-2.6 5.078 5.078 0 0 0 1.816 2.6 5.956 5.956 0 0 0 3.098 1.491l1.669-1.266v7.6h3.521V21.085h-3.526v5.708h-3.078v1.942h3.078v5.354a5.371 5.371 0 0 1-3.389-2.395 9.048 9.048 0 0 1-1.359-5.021v-2.992h3.028v-1.914H55.356v1.914h3.574v2.991a9.089 9.089 0 0 1-1.352 5.043m18.674 14.16v5.556h1.114v-3.89l2.306 3.89h1.1v-5.556H79.66v3.857l-2.318-3.857zm-20.821 5.634a2.132 2.132 0 0 0 1.373-.371A1.406 1.406 0 0 0 57.25 50v-4.12h-1.174v4.141a.774.774 0 0 1-.208.593.954.954 0 0 1-.651.189 1.8 1.8 0 0 1-.5-.075 2.67 2.67 0 0 1-.534-.231v.768a2.953 2.953 0 0 0 .6.186 3.242 3.242 0 0 0 .641.062m20.455-30.428h-3.521v20.879h3.521zM62.36 46.545v-.67h-3.478v5.556h3.478v-.7h-2.309v-1.877h2.113v-.659h-2.113v-1.65zM84.974 27.68a10.123 10.123 0 0 1-5.535 1.747l1.469 1.473a14.493 14.493 0 0 0 5.262-1.062 6.2 6.2 0 0 0 3.341-2.572 6.485 6.485 0 0 0 3.37 2.561 14.276 14.276 0 0 0 5.233 1.073l1.47-1.469a10.161 10.161 0 0 1-5.523-1.747Q91.4 25.953 91.4 23.659v-.128h6.793v-1.942H80.831v1.942h6.794v.128q0 2.29-2.651 4.021m14.2 23.156a3.291 3.291 0 0 0 .578-2.185 3.322 3.322 0 0 0-.578-2.2 3.045 3.045 0 0 0-3.788.005 3.321 3.321 0 0 0-.582 2.191 3.29 3.29 0 0 0 .582 2.185 3.046 3.046 0 0 0 3.788 0m-2.885-.532a3.368 3.368 0 0 1-.3-1.662 3.374 3.374 0 0 1 .3-1.666 1.281 1.281 0 0 1 1.99 0 3.417 3.417 0 0 1 .291 1.668 3.44 3.44 0 0 1-.286 1.687 1.062 1.062 0 0 1-.983.46 1.1 1.1 0 0 1-1.006-.485m8.319 1.132h1.1v-5.559H104.6v3.857l-2.318-3.857h-1.085v5.556h1.103v-3.89zm-22.833 0h1.19l.4-1.09h1.987l.42 1.09h1.189l-2.043-5.556h-1.107zm3.38-1.712h-1.57l.787-2.408zm7 1.712h1.173v-5.559H92.16zm-4.509-9.467H91.4v-7.241h8.849V32.81H78.775v1.916h8.876zm-22.165 9.171A1.4 1.4 0 0 0 65.934 50v-4.12h-1.171v4.141a.77.77 0 0 1-.209.593.946.946 0 0 1-.65.189 1.812 1.812 0 0 1-.5-.075 2.659 2.659 0 0 1-.536-.231v.768a3.068 3.068 0 0 0 .607.186 3.179 3.179 0 0 0 .639.062 2.107 2.107 0 0 0 1.369-.371" data-name="패스 208"/><path fill="#000" d="M125.611 28c0 2.657 2.764 4.814 6.171 4.814s6.174-2.158 6.174-4.814a4.339 4.339 0 0 0-1.834-3.424h2.351v-1.889h-4.8v-2.171H129.9v2.172h-4.8v1.885h2.342A4.366 4.366 0 0 0 125.611 28m6.171-3.038A2.853 2.853 0 0 1 134.4 28a2.651 2.651 0 1 1-5.245 0 2.855 2.855 0 0 1 2.623-3.038m-5.457 26.473h1.109v-3.89l2.308 3.89h1.1v-5.56h-1.11v3.857l-2.316-3.857h-1.09zm-18.016-1.09h1.995l.417 1.09h1.183l-2.043-5.556h-1.108l-2.041 5.556h1.192zm1-3.03l.781 2.408h-1.569zM103.6 34.692a2.788 2.788 0 0 0 1.887.6h5.028a6.2 6.2 0 0 0 1.747-.215c.476-.142.9-.283 1.5-.518v7.4h3.549V28.7h1.667v13.26h3.548V21.085h-3.548v5.672h-1.667v-5.672h-3.551v11.73a10.332 10.332 0 0 1-1.448.4 8.355 8.355 0 0 1-1.66.142h-4.06v-9.551h5.34v-1.939h-9.026v11.211a2.041 2.041 0 0 0 .692 1.613m40.733-6.565h3.04v-1.941h-3.04V21.05h-3.748v12.379h3.748zm-76.79 17.749v4.068a1.325 1.325 0 0 0 .553 1.181 4.286 4.286 0 0 0 3.489 0 1.317 1.317 0 0 0 .548-1.181v-4.068h-1.16V50a.666.666 0 0 1-.275.59 2.032 2.032 0 0 1-1.712 0A.663.663 0 0 1 68.7 50v-4.125zm52.575 0v4.068a1.32 1.32 0 0 0 .55 1.181 4.281 4.281 0 0 0 3.487 0 1.319 1.319 0 0 0 .552-1.181v-4.068h-1.16V50a.669.669 0 0 1-.276.59 1.527 1.527 0 0 1-.853.189 1.556 1.556 0 0 1-.86-.189.664.664 0 0 1-.281-.59v-4.125zm45.964 0l-.732 1.553a3.9 3.9 0 0 0-.171.424c-.051.147-.092.3-.138.459a5.174 5.174 0 0 0-.152-.506 2.858 2.858 0 0 0-.152-.382L164 45.875h-1.218l1.65 3.19v2.366h1.21v-2.366l1.659-3.19zm-53.157 0v5.556h3.7v-.7H114.1v-4.856zM168 39.173h-7.445v-8.657h-3.606v8.657h-1.857v-8.657h-3.609v8.657h-3.763v1.918H168zm-5.475-8.96c0 1.563-.047 2.852-.15 3.857a5.643 5.643 0 0 1-.875 2.6h3.307a7.849 7.849 0 0 0 1.034-2.544 16.151 16.151 0 0 0 .373-3.66v-8.481h-16.56v1.942h12.87zm-15.647 15.662h-1.406v5.556h1.17v-2.714h.028l2.005 2.714h1.26l-2.081-2.738a2.191 2.191 0 0 0 1.236-.408 1.191 1.191 0 0 0 .412-.962 1.177 1.177 0 0 0-.6-1.114 4.46 4.46 0 0 0-2.024-.333m1.138 2.2a1.81 1.81 0 0 1-1.016.213h-.358v-1.756h.324a2.289 2.289 0 0 1 1.066.171.659.659 0 0 1 .284.618.859.859 0 0 1-.3.75m12.805 3.358v-4.859h1.618v-.7h-4.427v.7h1.62v4.859zM153 50.572a1.58 1.58 0 0 1-.854.2 3.021 3.021 0 0 1-.662-.079 5.341 5.341 0 0 1-.766-.237v.762a5.066 5.066 0 0 0 .773.209 4.312 4.312 0 0 0 .738.069 2.969 2.969 0 0 0 1.639-.412 1.231 1.231 0 0 0 .635-1.051 1.2 1.2 0 0 0-.311-.811 3.528 3.528 0 0 0-1.054-.736c-.041-.019-.1-.052-.183-.094-.857-.435-1.284-.812-1.284-1.134A.633.633 0 0 1 152 46.7a1.657 1.657 0 0 1 .888-.21 2.8 2.8 0 0 1 .642.077 3.376 3.376 0 0 1 .662.227v-.751a4.721 4.721 0 0 0-.741-.192 5.409 5.409 0 0 0-.782-.058 2.68 2.68 0 0 0-1.547.421 1.228 1.228 0 0 0-.626 1.046 1.129 1.129 0 0 0 .31.782 3.925 3.925 0 0 0 1.087.757c.044.027.117.062.212.113q1.211.632 1.21 1.123a.6.6 0 0 1-.318.532m2.781.858h1.171v-5.55h-1.171zm-66.276 0v-4.854h1.618v-.7H86.7v.7h1.616v4.859zm54.574-4.885v-.67H140.6v5.556h3.481v-.7h-2.311v-1.872h2.115v-.659h-2.115v-1.65zm-10.375-.67h-1.169v5.556h1.168zm2.252 0h-1.188l1.912 5.556h.993l1.915-5.556h-1.179l-1.226 3.77zm8.374-11.527H127.2v1.916h13.378v5.661h3.748zm-86.749-2.628a5.594 5.594 0 0 1-3.452 2.6l1.72 1.311a6.01 6.01 0 0 0 3.134-1.491 4.889 4.889 0 0 0 1.806-2.6 5.078 5.078 0 0 0 1.816 2.6 5.956 5.956 0 0 0 3.098 1.491l1.669-1.266v7.6h3.521V21.085h-3.526v5.708h-3.078v1.942h3.078v5.354a5.371 5.371 0 0 1-3.389-2.395 9.048 9.048 0 0 1-1.359-5.021v-2.992h3.028v-1.914H55.356v1.914h3.574v2.991a9.089 9.089 0 0 1-1.352 5.043m18.674 14.16v5.556h1.114v-3.89l2.306 3.89h1.1v-5.556H79.66v3.857l-2.318-3.857zm-20.821 5.634a2.132 2.132 0 0 0 1.373-.371A1.406 1.406 0 0 0 57.25 50v-4.12h-1.174v4.141a.774.774 0 0 1-.208.593.954.954 0 0 1-.651.189 1.8 1.8 0 0 1-.5-.075 2.67 2.67 0 0 1-.534-.231v.768a2.953 2.953 0 0 0 .6.186 3.242 3.242 0 0 0 .641.062m20.455-30.428h-3.521v20.879h3.521zM62.36 46.545v-.67h-3.478v5.556h3.478v-.7h-2.309v-1.877h2.113v-.659h-2.113v-1.65zM84.974 27.68a10.123 10.123 0 0 1-5.535 1.747l1.469 1.473a14.493 14.493 0 0 0 5.262-1.062 6.2 6.2 0 0 0 3.341-2.572 6.485 6.485 0 0 0 3.37 2.561 14.276 14.276 0 0 0 5.233 1.073l1.47-1.469a10.161 10.161 0 0 1-5.523-1.747Q91.4 25.953 91.4 23.659v-.128h6.793v-1.942H80.831v1.942h6.794v.128q0 2.29-2.651 4.021m14.2 23.156a3.291 3.291 0 0 0 .578-2.185 3.322 3.322 0 0 0-.578-2.2 3.045 3.045 0 0 0-3.788.005 3.321 3.321 0 0 0-.582 2.191 3.29 3.29 0 0 0 .582 2.185 3.046 3.046 0 0 0 3.788 0m-2.885-.532a3.368 3.368 0 0 1-.3-1.662 3.374 3.374 0 0 1 .3-1.666 1.281 1.281 0 0 1 1.99 0 3.417 3.417 0 0 1 .291 1.668 3.44 3.44 0 0 1-.286 1.687 1.062 1.062 0 0 1-.983.46 1.1 1.1 0 0 1-1.006-.485m8.319 1.132h1.1v-5.559H104.6v3.857l-2.318-3.857h-1.085v5.556h1.103v-3.89zm-22.833 0h1.19l.4-1.09h1.987l.42 1.09h1.189l-2.043-5.556h-1.107zm3.38-1.712h-1.57l.787-2.408zm7 1.712h1.173v-5.559H92.16zm-4.509-9.467H91.4v-7.241h8.849V32.81H78.775v1.916h8.876zm-22.165 9.171A1.4 1.4 0 0 0 65.934 50v-4.12h-1.171v4.141a.77.77 0 0 1-.209.593.946.946 0 0 1-.65.189 1.812 1.812 0 0 1-.5-.075 2.659 2.659 0 0 1-.536-.231v.768a3.068 3.068 0 0 0 .607.186 3.179 3.179 0 0 0 .639.062 2.107 2.107 0 0 0 1.369-.371" data-name="패스 209"/><path fill="#64a91c" d="M14.014 20.278C12.742 23.291 8.7 28.33 8.7 28.33c-2.1 2.751-4.586 6.2-5.462 10.765C1.385 51.722 9.265 58.228 14.1 60.059a17.1 17.1 0 0 1-8.894-18.192c.784-3.872 2.864-7.85 7.588-12.91 0 0 5.573-5.786 6.326-10.812A17.663 17.663 0 0 0 11.334 0a19.285 19.285 0 0 1 2.681 20.278" data-name="패스 210"/><path fill="#b0bcc2" d="M20.865 22.192c-1.65 3.931-5.971 7.871-5.971 7.871-6.822 6.553-7.7 10.44-7.7 10.44A16.51 16.51 0 0 0 8.86 54.32a14.634 14.634 0 0 0 8.959 6.457 11.776 11.776 0 0 1-7.97-10.345c-.289-3.9 1.908-8.848 8.26-13.823a35.115 35.115 0 0 0 5.688-5.74 18.981 18.981 0 0 0 3.592-8.56 20.312 20.312 0 0 0-1.172-9.991 21.7 21.7 0 0 0-5.66-8.484c4.835 9.289.309 18.359.309 18.359" data-name="패스 211"/><path fill="#003288" d="M44.491 42.752V21.109h-8.615v24.134c-.026 1.675-.173 3.547-.173 3.547a11.4 11.4 0 0 1-.892 3.921 13.418 13.418 0 0 1-5.078 6.155c-8.989 6.038-17.978 1.043-17.978 1.043 11.236 6.635 22.172.522 22.172.522 7.7-4.44 9.795-10.481 10.362-13.731a30.549 30.549 0 0 0 .2-3.948" data-name="패스 212"/><path fill="#0099e7" d="M10.007 58.539a19.431 19.431 0 0 1-7.237-9.918 22.92 22.92 0 0 1-.733-10.45 27.029 27.029 0 0 1 2.6-7.4 41.321 41.321 0 0 1 3-4.517 41.132 41.132 0 0 0 2.538-3.954A12.77 12.77 0 0 0 9.141 8.057s2.243 5.776-.686 11.155c0 0-1.377 2.35-2.873 4.578 0 0-3.288 4.738-4.25 7.953A23.487 23.487 0 0 0 .589 44.87s1.556 9.356 9.418 13.669" data-name="패스 213"/><path fill="#003288" d="M18.972 58.089V55.4h-.531v-.369h1.071v3.06z" data-name="패스 214"/><path fill="#003288" d="M21.753 55.965a.8.8 0 0 0-.108-.466.394.394 0 0 0-.341-.148.367.367 0 0 0-.322.146.871.871 0 0 0-.1.473.85.85 0 0 0 .1.475.388.388 0 0 0 .335.134.382.382 0 0 0 .335-.146.828.828 0 0 0 .1-.468m-.1.8a.756.756 0 0 1-.23.116.809.809 0 0 1-.259.038.79.79 0 0 1-.619-.216 1.4 1.4 0 0 1 .044-1.478.981.981 0 0 1 .733-.245.937.937 0 0 1 .719.259 1.132 1.132 0 0 1 .236.782 2.1 2.1 0 0 1-.2.858 7.007 7.007 0 0 1-.773 1.207h-.628q.412-.512.619-.8c.138-.189.256-.362.355-.523" data-name="패스 215"/><path fill="#003288" d="M22.771 57.62a1.3 1.3 0 0 0 .278.105 1.2 1.2 0 0 0 .292.036.785.785 0 0 0 .575-.189.738.738 0 0 0 .193-.558.487.487 0 0 0-.2-.422 1.017 1.017 0 0 0-.586-.139c-.106 0-.194 0-.269.009a2.176 2.176 0 0 0-.223.032l.284-1.464h1.5v.37h-1.043l-.168.746.153-.017h.122a1.01 1.01 0 0 1 .708.245.846.846 0 0 1 .268.653 1.025 1.025 0 0 1-.327.811 1.317 1.317 0 0 1-.91.291 2.26 2.26 0 0 1-.408-.036 2.069 2.069 0 0 1-.386-.109z" data-name="패스 216"/><path fill="#003288" d="M25.114 58.09l1.147-1.622a2.427 2.427 0 0 0 .227-.4.83.83 0 0 0 .074-.325.425.425 0 0 0-.094-.3.406.406 0 0 0-.3-.1.374.374 0 0 0-.32.13.781.781 0 0 0-.094.442v.106h-.539a.236.236 0 0 1-.006-.059v-.1a.83.83 0 0 1 .248-.658 1.084 1.084 0 0 1 .742-.221 1.115 1.115 0 0 1 .7.2.671.671 0 0 1 .255.555 1.039 1.039 0 0 1-.1.428 2.683 2.683 0 0 1-.335.526l-.777 1h1.123v.388z" data-name="패스 217"/><path fill="#003288" d="M26.461 48.06v3.683a1.194 1.194 0 0 0 .5 1.069 2.9 2.9 0 0 0 1.576.335 2.933 2.933 0 0 0 1.58-.335 1.2 1.2 0 0 0 .5-1.069V48.06h-1.055v3.74a.6.6 0 0 1-.249.534 1.849 1.849 0 0 1-1.549 0 .594.594 0 0 1-.255-.534v-3.74z" data-name="패스 218"/><path fill="#003288" d="M15.708 53.158a1.924 1.924 0 0 0 1.241-.334 1.27 1.27 0 0 0 .4-1.035V48.06H16.29v3.748a.7.7 0 0 1-.187.537.854.854 0 0 1-.588.172 1.634 1.634 0 0 1-.449-.069 2.43 2.43 0 0 1-.483-.209v.7a2.65 2.65 0 0 0 .549.168 2.977 2.977 0 0 0 .577.055" data-name="패스 219"/><path fill="#003288" d="M21.709 48.669v-.609h-3.151v5.029h3.151v-.631h-2.09v-1.7h1.913v-.6h-1.913v-1.489z" data-name="패스 220"/><path fill="#003288" d="M24.863 52.824a1.267 1.267 0 0 0 .4-1.034v-3.73h-1.056v3.749a.7.7 0 0 1-.189.536.855.855 0 0 1-.589.172 1.669 1.669 0 0 1-.449-.069 2.266 2.266 0 0 1-.485-.209v.7a2.749 2.749 0 0 0 .55.168 2.874 2.874 0 0 0 .58.055 1.909 1.909 0 0 0 1.238-.334" data-name="패스 221"/><path fill="#b0bcc2" d="M23.193 46.442a1.984 1.984 0 0 0 .918-.305l5.345.37v-6.865l-.556-.032.247.388v6.219l-5.14-.329a1.507 1.507 0 0 1-1.791 0l-5.138.329V40l.245-.388-.558.032v6.865l5.346-.37a1.97 1.97 0 0 0 .916.305 1.471 1.471 0 0 0 .167 0" data-name="패스 222"/><path fill="#b0bcc2" d="M17.9 39.219c-.119.186-.528.828-.541.845v5.577c.12-.2.53-.879.541-.9z" data-name="패스 223"/><path fill="#b0bcc2" d="M22.275 45.6l.015.014a1.191 1.191 0 0 0 .608.282 1.171 1.171 0 0 0-.6-.88 3.722 3.722 0 0 0-1.691-.291c-.354 0-.732.021-1.162.063s-.854.1-1.3.183c-.019.03-.495.819-.567.938.159-.009 4.7-.309 4.7-.309" data-name="패스 224"/><path fill="#b0bcc2" d="M28.861 40.065l-.54-.845v5.526c.011.017.42.7.54.9z" data-name="패스 225"/><path fill="#b0bcc2" d="M23.92 45.011a1.18 1.18 0 0 0-.6.88 1.187 1.187 0 0 0 .61-.282l.014-.014s4.54.3 4.7.309c-.072-.119-.547-.908-.565-.938-.448-.08-.887-.142-1.3-.184s-.808-.062-1.161-.062a3.73 3.73 0 0 0-1.692.291" data-name="패스 226"/><path fill="#b0bcc2" d="M26.766 38.631a10.982 10.982 0 0 0-1.2-.068l-.536.023-.408.061a2.144 2.144 0 0 0-.744.287l-.058.044-.02.022a1.826 1.826 0 0 0-.521.547v5.6a1.3 1.3 0 0 1 .283-.276 3.321 3.321 0 0 1 1.352-.421h.05a7.9 7.9 0 0 1 1-.033l.741.051c.375.036.81.092 1.3.164v-5.804c-.421-.087-.836-.154-1.23-.2m.54 1.24a2.675 2.675 0 0 1-1.567 1.507s.205.049.682.612a1.965 1.965 0 0 0 .622.514s-.673 1.321-.74 1.477a2.944 2.944 0 0 1-.83-1.305.237.237 0 0 0-.234-.122s-.535.059-.753.077a.2.2 0 0 1-.216 0l-.079-.083s-.019.005-.052-.024a.179.179 0 0 1-.073-.128.142.142 0 0 1 .044-.113 7.923 7.923 0 0 0 1.057-.832s-.009.031.04-.093a1.728 1.728 0 0 1-.427-.177s-.188-.128-.183-.294h.044s0 .2.387.318a.855.855 0 0 1-.127-.282.188.188 0 0 1 .054-.012s.11.326.3.334c0 0 .365-.224.393-.476 0 0-.152-.093-.213-.473l.05-.028s.06.359.24.349c0 0 .163 0 .263-.3a1.472 1.472 0 0 0 .079-.5 1.765 1.765 0 0 0-.037-.244l.037-.06a1.083 1.083 0 0 1 .049.184.765.765 0 0 1 .143-.367l.033.018a.657.657 0 0 0-.087.4 1.827 1.827 0 0 1-.12.648 2.7 2.7 0 0 1-.605.9 5.417 5.417 0 0 0 .741-.36s.221-.137.247-.607h.058a1 1 0 0 1-.007.383 1.611 1.611 0 0 0 .676-.822.508.508 0 0 0-.015-.334l.024-.032a.6.6 0 0 1 .082.232.423.423 0 0 1 .252-.23l.013.035a.621.621 0 0 0-.243.315" data-name="패스 227"/><path fill="#b0bcc2" d="M22.421 39l-.022-.017-.059-.043a2.121 2.121 0 0 0-.742-.288l-.411-.061-.533-.023a10.7 10.7 0 0 0-1.2.068c-.4.043-.811.109-1.231.2v5.795c.486-.073.921-.129 1.295-.164l.743-.052a7.981 7.981 0 0 1 .993.034H21.312a3.285 3.285 0 0 1 1.347.424 1.251 1.251 0 0 1 .284.273v-5.6a1.831 1.831 0 0 0-.522-.546m-.745 4.674H19.6a4.673 4.673 0 0 0-.323-2.484c.436-.488.99-1.209 1.234-1.533v1.94a.328.328 0 1 0 .243 0v-1.96c.236.314.8 1.052 1.246 1.549a4.668 4.668 0 0 0-.321 2.484" data-name="패스 228"/></g></g></g></svg>