<svg xmlns="http://www.w3.org/2000/svg" role="img" viewBox="-10.18 -10.18 529.36 164.36"><title>Jiangxing Intelligence logo</title><path fill="#1f2756" d="M182.24 68.46c-5.27 9.17-12 19.84-17.74 28.21l-6.64-5.61a253.24 253.24 0 0 0 18.71-28.12zm-8.62-11.48c-3.37-2.67-10.46-6.85-15.61-9.61l4.88-6.05c5.09 2.31 12.3 6.14 15.84 8.81zm6-23.31c-3.18-2.94-10-7.47-14.92-10.5l5.21-5.78a129.07 129.07 0 0 1 15.21 9.69zm57.16 50.28l-.58 8.28h-56.7l.58-8.28h23.14l3.64-51.7h-18.69l.58-8.28h47.7l-.58 8.28h-20l-3.64 51.7zm42.74-45.92a125.39 125.39 0 0 1-10.66 13.7l-3.27 46.45h-8.28l2.62-37.29a100.22 100.22 0 0 1-9.46 8 47.67 47.67 0 0 0-5.35-6.92 104.84 104.84 0 0 0 26.72-26.87zm-2-18.78a128.57 128.57 0 0 1-25.18 22.6 35.79 35.79 0 0 0-4.43-6.59c7.82-4.89 16.92-12.81 21.73-19.22zm50.6 34.17h-12.66l-2.42 34.35c-.32 4.63-1.55 6.85-5 8.1s-8.81 1.25-16.64 1.25a34.79 34.79 0 0 0-2.29-7.92c5.59.18 11.56.18 13.16.18s2.26-.44 2.35-1.78l2.41-34.17h-28l.55-7.83h49.13zm-.43-24.29h-43.27l.55-7.83h43.25zm43.97 29.9c-2.43-2.14-7.92-6.32-12-9.25-3.45 4.81-9 9.52-18 13.44a22.9 22.9 0 0 0-4.86-5.52c10.61-4 15.6-9.17 18-14.15h-16.13l.46-6.59h6.05a46.63 46.63 0 0 0-6.06-3.74 45.31 45.31 0 0 0 11-17.53l7.28 1.51c-.77 2-1.61 3.91-2.46 5.87h23.08l-.46 6.58h-12.29l-.33 4.63c-.06.89-.12 1.78-.28 2.67h14.6l-.46 6.59h-15.84l-.32.8c3.52 1.78 12.91 7.56 15.19 9.25zm-14.82-22.07c.16-1 .22-1.87.28-2.76l.32-4.54h-6.23a39.21 39.21 0 0 1-5.68 7.3zm-7 24h55.8l-2.6 36.58h-8.46l.21-3h-39.15l-.22 3.11h-8.19zm45.46 26.87l.5-7.12h-39.19l-.5 7.12zm-37.77-20.29l-.49 7h39.16l.49-6.94zm58.23-44.58l-2.24 31.8H381.4l2.24-31.77zm-8.7 7.3h-16.2l-1.21 17.17h16.2zm54.97 58.58c-.28 3.92-1.23 6.05-3.89 7.3-2.85 1.34-6.78 1.42-12.21 1.42a28.54 28.54 0 0 0-2.23-7.48c3.72.18 7.37.18 8.63.09s1.45-.36 1.52-1.42l.6-8.45h-16.38l-1.22 17.35h-7.73l3.51-50.11h32.31zm-1.84-67.45c3.94 6 8 13.88 9.41 19.31l-7.61 3.11a33.34 33.34 0 0 0-1.54-4.63c-23 1.78-26.23 2.22-28.43 3.11a52.54 52.54 0 0 0-2.21-7.83c1.44-.27 2.87-1.6 4.43-3.47a77.41 77.41 0 0 0 9.79-15.22l8.46 2.49a112.26 112.26 0 0 1-11.37 15.76l16.72-1.07a79.93 79.93 0 0 0-4.8-8.9zm-5.3 52.5l.47-6.67h-16.37l-.47 6.67zm-15-19.4l-.44 6.32h16.37l.44-6.32zm54.83 35.33c3.38 0 4.12-1.69 5.24-11.21a23.58 23.58 0 0 0 7.08 3.12c-1.83 12.1-4.28 15.31-12.11 15.31h-14.08c-9.35 0-11.58-2.4-11-10.68l2-29h8.27l-1 13.24c7.48-2.58 15.09-5.78 20-9l5 6.14c-7 3.92-16.79 7.12-25.51 9.7l-.63 8.9c-.21 2.94.47 3.47 4.3 3.47zm-11.18-34.79c-9.26 0-11.31-2.4-10.74-10.59l2-28.21h8.1l-1 14a155.24 155.24 0 0 0 19.22-7.95l4.92 6c-7 3.29-16.28 6.23-24.64 8.63l-.53 7.47c-.2 2.85.38 3.38 4.12 3.38h12.19c3.2 0 3.93-1.42 4.87-9.7a20.68 20.68 0 0 0 7.08 3.11c-1.75 10.95-4.18 13.88-11.66 13.88zm-310.99 65.73a9.61 9.61 0 0 1-.55 2.65 5.55 5.55 0 0 1-1.42 2.15 6.81 6.81 0 0 1-2.55 1.45 12.33 12.33 0 0 1-3.91.53 13.5 13.5 0 0 1-2.14-.16 12.72 12.72 0 0 1-1.75-.4 9.91 9.91 0 0 1-1.34-.51 4.84 4.84 0 0 1-.89-.53l1.46-2.19a13.21 13.21 0 0 0 1.81.9 7.39 7.39 0 0 0 2.84.47 5.56 5.56 0 0 0 3.69-1 5 5 0 0 0 1.39-3.57l.92-13.12h3.34zm8.37 6.34h-3.2l1-14.8h3.2zm-.39-17.48a2.18 2.18 0 0 1-1.43-.47 1.42 1.42 0 0 1-.51-1.27 1.65 1.65 0 0 1 .69-1.27 2.45 2.45 0 0 1 1.5-.47 2.17 2.17 0 0 1 1.43.47 1.42 1.42 0 0 1 .51 1.27 1.65 1.65 0 0 1-.69 1.27 2.45 2.45 0 0 1-1.5.47zm13.18 2.31a10.79 10.79 0 0 1 3.23.41 5 5 0 0 1 2.05 1.17 3.89 3.89 0 0 1 1 1.79 7.1 7.1 0 0 1 .18 2.29l-.65 9.25-1.16.16q-.75.1-1.68.19l-2 .16q-1.09.07-2.16.07a13.91 13.91 0 0 1-2.77-.26 6.45 6.45 0 0 1-2.15-.81 3.57 3.57 0 0 1-1.34-1.47 4.21 4.21 0 0 1-.36-2.19 3.87 3.87 0 0 1 .75-2.11 4.89 4.89 0 0 1 1.74-1.42 9.1 9.1 0 0 1 2.47-.8 16.14 16.14 0 0 1 2.91-.26h1c.35 0 .67.07 1 .11l.8.13.48.09.05-.74a4.85 4.85 0 0 0-.08-1.3 2.53 2.53 0 0 0-.54-1.14 2.82 2.82 0 0 0-1.17-.8 5.52 5.52 0 0 0-2-.3 18.51 18.51 0 0 0-2.78.19 11.86 11.86 0 0 0-1.8.38l-.22-2.19a12.09 12.09 0 0 1 2.1-.44 21.87 21.87 0 0 1 3.1-.16zm-.66 13.27h2a10.72 10.72 0 0 0 1.47-.16l.31-4.41a4.63 4.63 0 0 0-1.1-.24 15.72 15.72 0 0 0-3.41 0 5.74 5.74 0 0 0-1.5.36 3.46 3.46 0 0 0-1.17.74 1.84 1.84 0 0 0-.54 1.24 1.87 1.87 0 0 0 1 2 6.46 6.46 0 0 0 2.94.47zm12.52-12.47q1.12-.23 3-.48a30.89 30.89 0 0 1 4.22-.26 10.47 10.47 0 0 1 3.51.5 5.09 5.09 0 0 1 2.16 1.39 4.62 4.62 0 0 1 1 2.15 10.21 10.21 0 0 1 .15 2.76l-.58 8.31h-3.2l.54-7.74a10.36 10.36 0 0 0-.06-2.33 3.33 3.33 0 0 0-.63-1.57 2.68 2.68 0 0 0-1.32-.87 7.05 7.05 0 0 0-2.12-.27h-1.07l-1.05.07-.9.1-.57.08-.88 12.5h-3.2zm30.21 12.89a10.09 10.09 0 0 1-1.64.58 10 10 0 0 1-2.8.36 10.27 10.27 0 0 1-3-.43 6.31 6.31 0 0 1-2.4-1.32 5.76 5.76 0 0 1-1.53-2.23 7.28 7.28 0 0 1-.4-3.19 7.75 7.75 0 0 1 .79-3 7.22 7.22 0 0 1 1.87-2.33 8.78 8.78 0 0 1 2.85-1.54 11.56 11.56 0 0 1 3.69-.56 24.4 24.4 0 0 1 3.89.27q1.65.27 2.77.5l-.93 13.21a6.14 6.14 0 0 1-2.48 5q-2.24 1.54-6.58 1.54a20.85 20.85 0 0 1-3.17-.23 20.47 20.47 0 0 1-2.56-.54l.75-2.31a17.42 17.42 0 0 0 5.21.8 7.33 7.33 0 0 0 4.18-.94 3.76 3.76 0 0 0 1.47-3zm.74-11a12.34 12.34 0 0 0-1.28-.21 18.51 18.51 0 0 0-2.18-.1 5.74 5.74 0 0 0-4.08 1.4 5.37 5.37 0 0 0-1.66 3.7 5.3 5.3 0 0 0 .24 2.19 3.87 3.87 0 0 0 1 1.51 3.92 3.92 0 0 0 1.49.88 5.65 5.65 0 0 0 1.79.29 8.92 8.92 0 0 0 2.36-.3 6.76 6.76 0 0 0 1.74-.7zm19.28 12.48q-.34-.63-.83-1.39t-1.09-1.58q-.6-.81-1.23-1.61t-1.24-1.51q-.7.71-1.45 1.52t-1.44 1.62q-.69.81-1.3 1.58t-1 1.37h-3.31a39.42 39.42 0 0 1 3.15-3.94q1.81-2 3.59-3.83l-5.43-7h3.62l3.91 5.18 4.67-5.18h3.41l-6.27 6.86q1.52 1.85 3.12 3.91a30.48 30.48 0 0 1 2.66 4zm10.77 0h-3.2l1-14.8h3.2zm-.39-17.48a2.18 2.18 0 0 1-1.43-.47 1.42 1.42 0 0 1-.51-1.27 1.65 1.65 0 0 1 .69-1.27 2.45 2.45 0 0 1 1.5-.47 2.17 2.17 0 0 1 1.43.47 1.42 1.42 0 0 1 .51 1.27 1.65 1.65 0 0 1-.69 1.27 2.45 2.45 0 0 1-1.5.47zm7.51 3.11q1.12-.23 3-.48a30.89 30.89 0 0 1 4.22-.26 10.47 10.47 0 0 1 3.51.5 5.09 5.09 0 0 1 2.16 1.39 4.62 4.62 0 0 1 1 2.15 10.16 10.16 0 0 1 .15 2.76l-.58 8.31h-3.2l.54-7.74a10.4 10.4 0 0 0-.06-2.33 3.33 3.33 0 0 0-.63-1.57 2.68 2.68 0 0 0-1.32-.87 7.06 7.06 0 0 0-2.12-.27h-1.07l-1.05.07-.9.1-.57.08-.88 12.5h-3.2zm30.04 12.89a10.63 10.63 0 0 1-4.44.94 10.27 10.27 0 0 1-3-.43 6.32 6.32 0 0 1-2.4-1.32 5.76 5.76 0 0 1-1.53-2.23 7.26 7.26 0 0 1-.4-3.19 7.74 7.74 0 0 1 .79-3 7.21 7.21 0 0 1 1.87-2.33 8.77 8.77 0 0 1 2.85-1.54 11.56 11.56 0 0 1 3.69-.56 24.4 24.4 0 0 1 3.89.27q1.65.27 2.77.5l-.93 13.21a6.14 6.14 0 0 1-2.48 5q-2.25 1.54-6.58 1.54a20.83 20.83 0 0 1-3.17-.23 20.44 20.44 0 0 1-2.56-.54l.75-2.31a17.43 17.43 0 0 0 5.21.8 7.32 7.32 0 0 0 4.18-.94 3.76 3.76 0 0 0 1.47-3zm.74-11a12.33 12.33 0 0 0-1.28-.21 18.53 18.53 0 0 0-2.18-.1 5.73 5.73 0 0 0-4.08 1.4 5.37 5.37 0 0 0-1.66 3.7 5.29 5.29 0 0 0 .24 2.19 3.85 3.85 0 0 0 1 1.51 3.92 3.92 0 0 0 1.49.88 5.64 5.64 0 0 0 1.79.29 8.92 8.92 0 0 0 2.36-.3 6.77 6.77 0 0 0 1.74-.7zm20.53-7.25h3.34l-1.39 19.73h-3.33zm8.29 5.36q1.12-.23 3-.48a30.89 30.89 0 0 1 4.22-.26 10.47 10.47 0 0 1 3.51.5 5.09 5.09 0 0 1 2.16 1.39 4.62 4.62 0 0 1 1 2.15 10.21 10.21 0 0 1 .15 2.76l-.58 8.31h-3.2l.54-7.74a10.4 10.4 0 0 0-.06-2.33 3.33 3.33 0 0 0-.63-1.57 2.68 2.68 0 0 0-1.32-.87 7.06 7.06 0 0 0-2.12-.27h-1.07l-1.05.07-.9.1-.57.08-.88 12.5h-3.2zm22.17-.43h6.78l-.12 2.24h-6.78l-.48 6.83a6.79 6.79 0 0 0 .08 1.84 2.37 2.37 0 0 0 .54 1.14 2.09 2.09 0 0 0 1 .58 5.32 5.32 0 0 0 1.43.17 8.32 8.32 0 0 0 2.34-.27l1.25-.38.47 2.19a14.34 14.34 0 0 1-1.72.5 11.78 11.78 0 0 1-2.78.3 9.68 9.68 0 0 1-3-.38 4 4 0 0 1-1.83-1.15 3.94 3.94 0 0 1-.88-1.89 10.2 10.2 0 0 1-.11-2.6l.93-13.21 3.24-.46zm10.89 7.43a8.37 8.37 0 0 1 .93-3.43 7.87 7.87 0 0 1 2-2.43 8.38 8.38 0 0 1 2.72-1.45 10 10 0 0 1 3.06-.48 7.19 7.19 0 0 1 5.41 1.87q1.8 1.87 1.53 5.68v.44a3.47 3.47 0 0 1-.07.5h-12.29a4.59 4.59 0 0 0 1.37 3.5 6.37 6.37 0 0 0 4.32 1.2 14.39 14.39 0 0 0 2.86-.24 12.35 12.35 0 0 0 1.77-.47l.29 2.22a11.52 11.52 0 0 1-2.09.54 17.9 17.9 0 0 1-3.34.29 12.14 12.14 0 0 1-4-.58 7.07 7.07 0 0 1-2.69-1.61 5.79 5.79 0 0 1-1.46-2.43 8.41 8.41 0 0 1-.32-3.12zm12.4-1.45a3.71 3.71 0 0 0-.88-2.95 3.83 3.83 0 0 0-3-1.15 5.17 5.17 0 0 0-2 .36 5 5 0 0 0-1.49.93 4.59 4.59 0 0 0-1 1.31 5.92 5.92 0 0 0-.54 1.51zm12.99 9.11q-3-.06-4.13-1.05a3.51 3.51 0 0 1-1-3.1l1.25-17.77 3.23-.46-1.25 17.79a3.48 3.48 0 0 0 .06 1.08 1.3 1.3 0 0 0 .4.68 1.89 1.89 0 0 0 .8.38 9.87 9.87 0 0 0 1.26.21zm10.38 0q-3-.06-4.13-1.05a3.51 3.51 0 0 1-1-3.1l1.25-17.77 3.23-.46-1.25 17.79a3.48 3.48 0 0 0 .06 1.08 1.3 1.3 0 0 0 .4.68 1.89 1.89 0 0 0 .8.38 9.87 9.87 0 0 0 1.26.21zm8.43-.29h-3.2l1-14.8h3.2zm-.43-17.48a2.18 2.18 0 0 1-1.43-.47 1.42 1.42 0 0 1-.51-1.27 1.65 1.65 0 0 1 .69-1.27 2.45 2.45 0 0 1 1.5-.47 2.17 2.17 0 0 1 1.43.47 1.42 1.42 0 0 1 .51 1.27 1.65 1.65 0 0 1-.69 1.27 2.45 2.45 0 0 1-1.5.47zm18.2 16a10.63 10.63 0 0 1-4.44.94 10.27 10.27 0 0 1-3-.43 6.32 6.32 0 0 1-2.4-1.32 5.76 5.76 0 0 1-1.53-2.23 7.26 7.26 0 0 1-.4-3.19 7.74 7.74 0 0 1 .79-3 7.21 7.21 0 0 1 1.87-2.33 8.77 8.77 0 0 1 2.85-1.54 11.56 11.56 0 0 1 3.69-.56 24.4 24.4 0 0 1 3.89.27q1.65.27 2.77.5l-.93 13.21a6.14 6.14 0 0 1-2.48 5q-2.25 1.54-6.58 1.54a20.83 20.83 0 0 1-3.17-.23 20.44 20.44 0 0 1-2.56-.54l.75-2.31a17.43 17.43 0 0 0 5.21.8 7.32 7.32 0 0 0 4.18-.94 3.76 3.76 0 0 0 1.47-3zm.74-11a12.33 12.33 0 0 0-1.28-.21 18.53 18.53 0 0 0-2.18-.1 5.73 5.73 0 0 0-4.08 1.4 5.37 5.37 0 0 0-1.66 3.7 5.29 5.29 0 0 0 .24 2.19 3.85 3.85 0 0 0 1 1.51 3.92 3.92 0 0 0 1.49.88 5.64 5.64 0 0 0 1.79.29 8.92 8.92 0 0 0 2.36-.3 6.77 6.77 0 0 0 1.74-.7zm7.51 5.11a8.37 8.37 0 0 1 .93-3.43 7.87 7.87 0 0 1 2-2.43 8.38 8.38 0 0 1 2.72-1.45 10 10 0 0 1 3.06-.48 7.19 7.19 0 0 1 5.41 1.87q1.8 1.87 1.53 5.68v.44a3.47 3.47 0 0 1-.07.5h-12.29a4.59 4.59 0 0 0 1.37 3.5 6.37 6.37 0 0 0 4.32 1.2 14.39 14.39 0 0 0 2.86-.24 12.35 12.35 0 0 0 1.77-.47l.29 2.22a11.52 11.52 0 0 1-2.09.54 17.9 17.9 0 0 1-3.34.29 12.14 12.14 0 0 1-4-.58 7.06 7.06 0 0 1-2.69-1.61 5.77 5.77 0 0 1-1.46-2.43 8.38 8.38 0 0 1-.32-3.12zm12.4-1.45a3.71 3.71 0 0 0-.88-2.95 3.83 3.83 0 0 0-3-1.15 5.17 5.17 0 0 0-2 .36 5 5 0 0 0-1.49.93 4.59 4.59 0 0 0-1 1.31 5.92 5.92 0 0 0-.54 1.51zm8.45-5.55q1.12-.23 3-.48a30.89 30.89 0 0 1 4.22-.26 10.47 10.47 0 0 1 3.51.5 5.09 5.09 0 0 1 2.16 1.39 4.62 4.62 0 0 1 1 2.15 10.21 10.21 0 0 1 .15 2.76l-.58 8.31h-3.2l.54-7.74a10.4 10.4 0 0 0-.06-2.33 3.33 3.33 0 0 0-.63-1.57 2.68 2.68 0 0 0-1.32-.87 7.06 7.06 0 0 0-2.12-.27h-1.07l-1.05.07-.9.1-.57.08-.88 12.5h-3.2zm26.49 14.72a11.2 11.2 0 0 1-3.77-.57 7.14 7.14 0 0 1-2.64-1.59 5.83 5.83 0 0 1-1.5-2.43 8.84 8.84 0 0 1 .49-6.25 7.94 7.94 0 0 1 1.88-2.46 8.49 8.49 0 0 1 2.82-1.62 10.7 10.7 0 0 1 3.61-.58 16.86 16.86 0 0 1 2.4.17 12.38 12.38 0 0 1 2.27.54l-.88 2.25a8.48 8.48 0 0 0-1.64-.46 11.13 11.13 0 0 0-2-.17 6 6 0 0 0-4.21 1.4 5.82 5.82 0 0 0-1.72 4.07 6.81 6.81 0 0 0 .17 2.19 3.94 3.94 0 0 0 .91 1.71 4.24 4.24 0 0 0 1.73 1.1 8 8 0 0 0 2.66.38 12.41 12.41 0 0 0 2.32-.2 10.16 10.16 0 0 0 1.65-.43l.29 2.22a4 4 0 0 1-.81.27c-.35.09-.75.16-1.19.23s-.91.12-1.41.17-.98.06-1.43.06zm7.8-7.72a8.37 8.37 0 0 1 .93-3.43 7.87 7.87 0 0 1 2-2.43 8.38 8.38 0 0 1 2.72-1.45 10 10 0 0 1 3.06-.48 7.19 7.19 0 0 1 5.41 1.87q1.8 1.87 1.53 5.68v.44a3.47 3.47 0 0 1-.07.5H495a4.59 4.59 0 0 0 1.37 3.5 6.37 6.37 0 0 0 4.32 1.2 14.39 14.39 0 0 0 2.86-.24 12.35 12.35 0 0 0 1.77-.47l.29 2.22a11.52 11.52 0 0 1-2.09.54 17.9 17.9 0 0 1-3.34.29 12.14 12.14 0 0 1-4-.58 7.07 7.07 0 0 1-2.69-1.61 5.79 5.79 0 0 1-1.46-2.43 8.41 8.41 0 0 1-.32-3.12zm12.4-1.45a3.71 3.71 0 0 0-.88-2.95 3.83 3.83 0 0 0-3-1.15 5.17 5.17 0 0 0-2 .36 5 5 0 0 0-1.49.93 4.59 4.59 0 0 0-1 1.31 5.92 5.92 0 0 0-.54 1.51z"/><path fill="#1a2653" d="M106.37.06L92.02 0a29.85 29.85 0 0 0-26.81 15.93L0 143.68l14.35.06a28.47 28.47 0 0 0 26.77-15.93L103.67 5.33z"/><path fill="#2296c8" d="M106.1 65.66l29.66.12.27-65.61-29.68-.12-.25 65.61zM105.98 95l-.14 49.11 29.61.12.2-49.12-29.67-.11z"/></svg>