<svg xmlns="http://www.w3.org/2000/svg" role="img" viewBox="-4.74 -5.74 480.48 144.48"><g data-name="Layer 1"><path d="M231.333 105.119h2.84l14.63 20.174V105.12h2.51v24.469h-2.38l-15.09-20.772v20.772h-2.51zm26.221 0h16.178v2.476h-13.57v8.089h13.24v2.446h-13.24v9.08h13.703v2.377h-16.311zm29.287 2.476h-9.178v-2.476h20.968v2.476h-9.18v21.993h-2.61zm14.959-2.476h2.675l6.438 20.24 6.57-20.24h2.247l6.537 20.24 6.472-20.24h2.51l-7.86 24.632h-2.243l-6.605-20.372-6.571 20.372h-2.278zm35.794 12.217c0-8.717 4.456-12.614 12.282-12.614 7.86 0 12.35 3.897 12.35 12.614 0 8.75-4.49 12.646-12.35 12.646-7.826 0-12.282-3.896-12.282-12.646zm22.023.032c0-6.605-3.07-10.169-9.741-10.169-6.638 0-9.675 3.564-9.675 10.17 0 6.637 3.037 10.205 9.675 10.205 6.671 0 9.741-3.568 9.741-10.206zm17.799 2.246h-7.33v9.974h-2.544v-24.47h10.566c5.68 0 8.256 2.279 8.256 7.134 0 4.225-2.014 6.702-6.274 7.262l5.91 10.074h-2.773zm.726-2.376c3.467 0 5.613-1.058 5.613-4.92 0-3.799-2.08-4.788-5.712-4.788h-7.958v9.708zm21.199-.629l-4.888 5.35v7.628h-2.541V105.12h2.541v13.505l12.383-13.505h3.005l-8.783 9.61 9.972 14.859h-2.94zm13.869 10.502l1.32-1.981a15.809 15.809 0 0 0 8.75 2.476c5.053 0 7.297-1.42 7.297-4.79 0-3.466-2.905-3.96-7.298-4.751-5.282-.928-8.849-1.82-8.849-6.77 0-4.724 3.038-6.573 8.85-6.573a14.861 14.861 0 0 1 8.519 2.18l-1.387 2.114a13.35 13.35 0 0 0-7.133-1.916c-4.39 0-6.273 1.222-6.273 4.127 0 3.105 2.543 3.699 6.902 4.49 5.349.96 9.212 1.752 9.212 7.002 0 4.855-3.104 7.198-9.774 7.198a17.702 17.702 0 0 1-10.136-2.806zM458.701 3.992c-34.398 0-35.86 15.412-35.86 37.154v53.378h8.112V41.146c0-16.386-.649-29.529 27.748-29.529a70.269 70.269 0 0 1 8.17.444V4.333c-2.505-.22-5.21-.34-8.17-.34zM57.502 59.805V5.775h8.276v54.19c0 15.576-.161 28.717 28.393 28.717 28.393 0 27.746-13.14 27.746-29.528V5.774h8.11v53.38c0 21.743-1.461 37.155-35.856 37.155-34.56 0-36.67-15.412-36.67-36.504zm158.777-19.31v54.029h-8.274V40.335c0-15.575.16-28.718-28.394-28.718-28.394 0-27.743 13.143-27.743 29.53v53.377h-8.114V41.146c0-21.742 1.462-37.154 35.857-37.154 34.56 0 36.668 15.412 36.668 36.503zM231.334 5.94h7.941v88.584h-7.94zm22.814 0h41.473c20.565 0 29.89 10.221 29.89 28.392 0 18.292-9.207 29.413-30.004 29.413h-33.415v30.779h-7.944zm41.594 49.839c14.328 0 21.449-6.982 21.449-21.09 0-14.103-7.684-20.799-21.805-20.799h-33.294v41.89zm39.012-5.872c0-26.12 7.467-46.24 40.892-46.24 34.557 0 35.69 23.2 35.53 47.7h-68.468c.162 21.58 5.513 37.643 33.584 37.643 14.926 0 21.742-4.058 29.043-9.412l4.54 6.003c-8.11 6.004-17.68 10.708-33.583 10.708-35.045 0-41.538-20.282-41.538-46.402zm8.116-6.005h60.354c-.81-17.684-1.947-32.772-27.744-32.772-24.822 0-31.636 13.467-32.61 32.772zM7.683 113.748c34.398 0 35.858-15.412 35.858-37.156V5.775h-8.114v70.817c0 16.384.65 29.531-27.744 29.531-1.072 0-2.093-.026-3.085-.065v7.648c.999.027 2.024.042 3.085.042zm441.03-18.839a5.6 5.6 0 1 1 5.597-5.6 5.608 5.608 0 0 1-5.597 5.6zm0-10.476a4.876 4.876 0 1 0 4.873 4.876 4.882 4.882 0 0 0-4.873-4.876z"/><path d="M449.074 90.055h-1.798v2.474h-.856v-6.433h2.864c1.63 0 2.258.669 2.258 1.939a1.763 1.763 0 0 1-1.554 1.96l1.456 2.534h-.933zm.2-.805c.879 0 1.382-.254 1.382-1.193 0-.929-.49-1.144-1.408-1.144h-1.971v2.337z"/></g></svg>