<svg xmlns="http://www.w3.org/2000/svg" role="img" viewBox="11.45 -8.55 2654.60 664.60"><title>Kaloom logo</title><defs><clipPath id="a" clipPathUnits="userSpaceOnUse"><path d="M0 519.052h2000V0H0z"/></clipPath></defs><path fill="#4d4d4d" d="M366.2 169.36v434.18025h84.91579V474.1899l97.34242 129.35035h118.80637L532.64225 428.06069 651.26062 300.405H541.49156l-88.68111 99.41308V169.36z"/><g clip-path="url(#a)" transform="matrix(1.33333 0 0 -1.33333 0 692.07)"><path fill="#4d4d4d" d="M615.254 117.797c-30.361 0-54.79 27.395-54.79 61.286 0 33.891 24.429 61.286 54.79 61.286s50.272-26.406 50.272-60.156-19.911-62.416-50.272-62.416m52.531 174.539v-25.277s-42.505 57.755-112.264 21.181c0 0-72.301-41.234-55.214-139.517 0 0 26.83-94.472 118.477-84.587 0 0 19.77-.423 43.635 20.759V66.254h67.782v225.94h-62.416z"/><path fill="#4d4d4d" d="M772.141 392.032h59.874V66.537h-59.874z"/><path fill="#4d4d4d" d="M992.432 114.69c-31.632 0-57.05 29.09-57.05 64.675 0 35.868 25.701 64.958 57.05 64.958 31.632 0 57.332-29.09 57.332-64.958 0-35.585-25.7-64.675-57.332-64.675m0 186.965c-66.652 0-120.737-52.531-120.737-117.63 0-64.957 54.085-117.63 120.737-117.63 66.652 0 120.737 52.531 120.737 117.63 0 64.817-54.085 117.63-120.737 117.63"/><path fill="#4d4d4d" d="M1263.56 114.69c-31.632 0-57.05 29.09-57.05 64.675 0 35.868 25.701 64.958 57.05 64.958 31.632 0 57.332-29.09 57.332-64.958-.282-35.585-25.7-64.675-57.332-64.675m0 186.965c-66.652 0-120.737-52.531-120.737-117.63 0-64.957 54.085-117.63 120.737-117.63 66.652 0 120.737 52.531 120.737 117.63 0 64.817-54.085 117.63-120.737 117.63"/><path fill="#4d4d4d" d="M1478.627 66.396h-60.863v227.07h60.863v-21.888c-2.401 15.251 90.235 66.369 116.641-6.073-.423 37.704 140.507 65.805 140.507-23.864V66.255h-59.874v150.532c-.989 40.952-65.664 41.799-65.664 0V66.396h-65.664v153.498c1.412 32.761-65.099 39.116-65.664 0V66.396z"/><path fill="#69973f" d="M234.145 292.618h-94.754L46.756 179.083l92.635-113.535h94.754l-94.754 113.535z"/><path fill="#69973f" d="M1379.072 298.408v94.612l-113.535 92.636-113.534-92.636v-94.612l113.534 94.612z"/><path fill="#69973f" d="M1775.666 65.549h94.753l92.636 113.535-92.636 113.535h-94.753l94.753-113.535z"/><path fill="#4c4d4d" d="M1738.659 340.601h-10.063v-27.753h-5.564v27.753h-9.976v4.521h25.603z"/><path fill="#4c4d4d" d="M1750.163 345.123l9.311-24.737 9.287 24.737h7.249v-32.274h-5.586v10.639l.553 14.232-9.531-24.871h-4.012l-9.509 24.848.553-14.209v-10.639h-5.586v32.274z"/></g></svg>