<svg xmlns="http://www.w3.org/2000/svg" role="img" viewBox="83.30 -1.70 1752.40 705.40"><defs><linearGradient id="a" x1="819.835" x2="1065.818" y1="323.313" y2="323.313" gradientUnits="userSpaceOnUse"><stop offset="0" stop-color="#f06548"/><stop offset="1" stop-color="#ffcb63"/></linearGradient><linearGradient id="b" x1="1064.695" x2="820.957" y1="121.64" y2="121.64" gradientUnits="userSpaceOnUse"><stop offset="0" stop-color="#48aef0"/><stop offset="1" stop-color="#6374ff"/></linearGradient></defs><path fill="#2b2b2b" d="M344.311 390.521l241.538-151.132H436.127L248.348 359.38h-14.13V239.389h-116.68v309.558h116.68V416.331l203.323 132.616h157.198L344.311 390.521zm443.393-151.132H595.195v309.558h113.059V314.375h13.988l175.306 234.572h91.459l175.267-234.572h13.994v234.572h113.087V239.389h-192.532l-155.54 216.266-155.579-216.266zm811.001 246.288h-67.658c-64.358 0-85.013-17.978-85.013-73.922v-35.17c0-44.388 15.687-73.95 92.246-73.95h70.679c21.294 0 71.172 0 71.172 38.747v.509h116.714c-.193-31.265-4.25-55.53-20.248-71.743-24.09-24.413-77.719-34.367-185.101-34.367h-82.133c-133.855 0-183.63 29.726-183.63 109.664v97.445c0 79.932 49.775 109.652 183.63 109.652h140.566c133.844 0 152.298-43.16 152.298-89.812v-22.148h-117.01c-3.445 42.871-34.314 45.095-86.512 45.095M364.517 646.519c0 9.258-3.486 12.54-23.06 12.54H292.06c-16.161 0-23.054-4.68-23.054-15.647v-30.11c0-10.968 6.893-15.648 23.054-15.648h48.967c13.587 0 22.488.889 22.488 12.874v5.082h15.228v-8.301c0-14.182-11.476-21.346-34.112-21.346h-54.014c-27.394 0-38.565 9.094-38.565 31.424v21.94c0 22.33 11.17 31.446 38.565 31.446h53.284c30.694 0 36.704-8.743 36.704-23.807v-6.836h-16.088zm175.092-60.556h-60.052c-27.395 0-38.57 9.093-38.57 31.423v21.946c0 22.324 11.175 31.44 38.57 31.44h60.052c27.395 0 38.577-9.116 38.577-31.44v-21.946c0-22.33-11.182-31.423-38.577-31.423m21.623 27.338v30.11c0 10.967-6.899 15.647-23.066 15.647H481c-16.162 0-23.06-4.68-23.06-15.646V613.3c0-10.962 6.898-15.647 23.06-15.647h57.166c16.167 0 23.066 4.685 23.066 15.647m197.872 42.608l-93.23-68.789-.379-.272h-22.896v83.044h16.954V600.83l93.202 68.773.379.288h22.924v-83.044h-16.954v69.061zm72.72-57.362h52.701v71.341h16.96v-71.341h52.707v-11.697H831.824v11.697zm262.935-11.697h-84.804v83.038h16.954v-31.684h67.42c13.36 0 19.319 1.817 19.319 12.642v19.042h16.082V647.96c0-7.583-3.69-12.33-11.793-14.905 7.04-1.642 13.095-5.574 13.095-15.557v-6.53c0-15.998-5.614-24.118-36.273-24.118m-67.85 11.697h62.802c20.983 0 24.367 3.061 24.367 10.43v7.299c0 6.146-3.548 10.226-20.904 10.226h-66.265zm265.148-12.584H1232c-27.4 0-38.576 9.093-38.576 31.423v21.946c0 22.324 11.176 31.44 38.576 31.44h60.058c27.39 0 38.565-9.116 38.565-31.44v-21.946c0-22.33-11.176-31.423-38.565-31.423m21.611 27.338v30.11c0 10.967-6.892 15.647-23.054 15.647h-57.172c-16.161 0-23.065-4.68-23.065-15.646V613.3c0-10.962 6.904-15.647 23.066-15.647h57.171c16.162 0 23.054 4.685 23.054 15.647m99.173-26.453H1395.9v83.044h97.875v-11.714h-80.933v-71.33zm216.032 34.997h-41.762c-22.28 0-24.503-3.282-24.503-11.318 0-11.363 7.13-12.868 35.447-12.868h14.974c37.303 0 37.36 2.354 37.62 13.672l.028 1.397h16.054v-4.193c0-16.67-11.821-22.573-45.203-22.573h-30.377c-28.26 0-44.631 3.882-44.631 23.784 0 22.658 15.194 24.684 58.586 24.684h26.784c18.266 0 21.35 2.796 21.35 11.205 0 9.473-3.485 13.423-25.074 13.423h-43.783c-18 0-21.616-3.9-21.616-10.203v-7.085h-16.089v7.305c0 19.127 20.293 21.697 40.144 21.697h39.165c21.929 0 43.342-1.75 43.342-22.585v-5.218c0-14.6-12.472-21.124-40.455-21.124m132.753-458.682a34.549 34.549 0 0 1 24.288 58.942 34.474 34.474 0 0 1-58.864-24.423 34.555 34.555 0 0 1 34.576-34.52m-.057 4.76a27.953 27.953 0 0 0-20.683 8.714 30.152 30.152 0 0 0 0 42.13 28.809 28.809 0 0 0 41.321 0 30.246 30.246 0 0 0 0-42.113 27.796 27.796 0 0 0-20.638-8.731m-16.41 48.757v-38.634h19.681q13.047 0 13.055 12.003c0 5.812-1.992 9.309-5.953 10.463 3.661.9 5.506 3.418 5.506 7.589v8.579h-8.132v-7.136q0-5.458-5.659-5.455h-10.367v12.59zm8.132-19.54h10.366q6.443 0 6.446-6.146 0-6.01-5.948-6.004h-10.864z"/><path fill="url(#a)" d="M841.294 233.068c-19.122 0-26.942 11.177-17.373 24.877l101.526 145.354c9.563 13.677 25.199 13.677 34.75 0l101.538-145.354c9.563-13.7 1.743-24.877-17.373-24.877z"/><path fill="url(#b)" d="M925.612 42.115L824.997 186.632c-9.467 13.62-1.72 24.74 17.232 24.74h201.207c18.946 0 26.687-11.12 17.214-24.74L960.046 42.115c-4.736-6.807-10.972-10.208-17.214-10.208s-12.483 3.4-17.22 10.208"/></svg>