<svg xmlns="http://www.w3.org/2000/svg" role="img" viewBox="-6.70 48.30 413.14 148.14"><style>svg {enable-background:new 0 0 400 245}</style><path fill="#e1251b" d="M1.33 56.28h397.34v132.45H1.33z"/><path fill="#fff" d="M174.43 100.91c-5.87 0-12.54 2.72-16.62 8.17v-7.32h-14v50.98h14v-29c0-5.22 4.05-10.77 11.54-10.77 5.79 0 11.79 4.03 11.79 10.77v29h14v-31.6c-.01-11.72-8.39-20.23-20.71-20.23m120.19.86l-12.65 34.73-12.66-34.73h-15.99l20.98 50.96h15.33l20.98-50.96zm-165.7 35.3c-5.89 4.36-9.26 5.4-14.63 5.4-4.84 0-8.62-1.5-11.29-4.13l35.79-14.85c-.78-5.53-2.88-10.47-6.11-14.23-4.7-5.46-11.66-8.35-20.13-8.35-15.39 0-27 11.36-27 26.35 0 15.38 11.63 26.35 28.54 26.35 9.47 0 19.16-4.49 23.69-9.73l-8.86-6.81zm-26.89-19.94c2.38-3.2 6.18-5.08 10.77-5.08 5.05 0 8.87 2.88 10.85 7.13L99.2 129.33c-.68-5.21.65-9.28 2.83-12.2zm-17.82 22.76H52.39V86.53H38.21v66.21h46zm251.53 13.71c-15.31 0-27.3-11.4-27.3-26.34 0-14.77 12.08-26.35 27.49-26.35 15.31 0 27.3 11.4 27.3 26.35 0 14.77-12.07 26.34-27.49 26.34m0-40.69c-7.82 0-13.49 5.92-13.49 14.35 0 8.05 6.01 14.35 13.68 14.35 7.82 0 13.49-6.09 13.49-14.35 0-8.05-6.01-14.35-13.68-14.35M227.97 153.6c-15.31 0-27.3-11.4-27.3-26.34 0-14.77 12.08-26.35 27.49-26.35 15.31 0 27.3 11.4 27.3 26.35 0 14.77-12.07 26.34-27.49 26.34m0-40.69c-7.82 0-13.49 5.92-13.49 14.35 0 8.05 6.01 14.35 13.68 14.35 7.82 0 13.49-6.09 13.49-14.35.01-8.05-6.01-14.35-13.68-14.35m137.18 33.78h-2.26v-1.29h5.93v1.29h-2.26v6.05h-1.41v-6.05zm5.24-1.28h1.5l2.22 3.48 2.22-3.48h1.45v7.34h-1.36v-5.22l-2.26 3.53h-.14l-2.26-3.53v5.22h-1.36v-7.34z"/></svg>