<svg xmlns="http://www.w3.org/2000/svg" role="img" viewBox="22.84 3.84 736.32 182.82"><title>Limelight Networks logo</title><style>svg {enable-background:new 0 0 792 200}</style><style>.st0{fill:#0f0e0e}.st1{fill:#1c1b1a}.st2{fill:#1e7340}.st3{fill:#2e2c2c}.st4{fill:#308643}.st5{fill:#f2f5d0}.st6{fill:#107c40}.st8{fill:#eaeeaa}.st9{fill:#f3f2f2}.st12{fill:#edf0b6}.st16{fill:#e1e884}</style><path d="M243.4 93.4V68.7c0-6.2 3.4-8.8 8.9-5.8 2.6 1.4 3.9 1.2 6.4.2 6.8-2.8 13.9-2.7 20.3.8 3.9 2.1 6.8 1.5 10.2-.1 7.4-3.2 15-3.3 22.6-.6 8.1 2.9 12.4 9 12.5 17.6.3 13-.1 26 .2 38.9.1 4.8-2 5.9-6.2 6.1-4.6.2-4.5-2.6-4.5-5.8.1-12.2.1-24.5 0-36.7-.1-9.2-4.3-13.1-13.5-12.9-8 .1-11.7 4.1-11.7 12.8v36.7c0 3.1.4 5.9-4.3 5.9-4.4.1-5.5-1.7-5.5-5.7.2-12.7.1-25.5 0-38.2 0-7.7-3.6-11.3-11.3-11.5-8.5-.2-13.4 3.7-13.6 11.3-.2 12.5-.2 25 0 37.4 0 4-.3 6.7-5.4 6.6-5.4 0-5.2-3.2-5.2-6.9.2-8.4.1-16.9.1-25.4z" class="st0"/><path d="M505.9 97.9v26.2c0 12.4-6.6 20.5-18.7 23.3-8 1.9-15.8.1-23.6-1-2.3-.3-4.9-1.3-4.3-4.9.7-3.9 3.8-2.6 5.9-2.6 6.2 0 12.5.3 18.7.6 3.8.2 6.9-1.4 9-4.3 1.9-2.6 3.8-6 2.5-9-1.4-3.3-4.7-.5-7.1-.4-17.5 1.4-27.4-3.3-30.9-16.5-2.9-10.7-2.9-21.9.3-32.5 3.9-13.2 20.6-19.6 33.7-13.6 2.3 1.1 3.3 2 6-.3 4.2-3.6 8.5-.8 8.5 4.9.1 10.1 0 20.1 0 30.1zm-9.9-2.4c0-4-.4-8 .1-12 .8-7-1.5-11.5-8.8-13-10.1-2-17.5.2-19.4 7.8-2.6 10.6-3.2 21.7.6 32.2 2.5 6.9 11.3 9 23.9 6.5 7.4-1.5 2.6-7.3 3.5-11 .8-3.4.1-7 .1-10.5zm25.3-13.1V45.7c0-3.6-.6-6.9 5-7 5.2-.1 5.6 2.5 5.4 6.5-.2 5.5-2 12.4.6 16.1 2.6 3.7 9.6-.3 14.7-.1 15.5.7 24.1 8.5 24.7 23.9.4 11.5 0 22.9.1 34.4 0 3.8-.9 6.1-5.3 6.2-4.5 0-5.4-2.1-5.3-6 .2-11.5.1-22.9 0-34.4-.1-10.7-4.3-14.9-14.8-15.1-14.8-.4-14.8-.4-14.8 14v34.4c0 3.6.6 7-4.9 7.1-5.8.1-5.5-3.5-5.5-7.5.1-11.8.1-23.8.1-35.8zM367.3 97h-12.7c-8.4 0-9.9 1.9-7.4 9.9 1.8 5.5 5.6 9.1 11.6 10.3 7.5 1.5 14.9-.6 22.4-.4 2.2.1 5.3-1.6 5.7 2.6.3 3.8-1.6 5-5.3 5.4-9.4 1-18.7 2.8-28.1-.1-8.5-2.7-14.2-8-16.1-16.8-1.9-8.9-2-17.9-.2-26.7 2.6-13.3 14.3-20.9 28.3-19.7 12.7 1.1 22.1 11.2 23.3 25 .9 10.5.9 10.5-9.4 10.5h-12.1zm-5.4-7.2h12.7c2.4 0 3.4-.6 3.6-3.4.3-7.5-4.8-14.8-11.7-15.9-9-1.5-17 2.6-19.3 10-2.2 7.1-.7 9.3 6.6 9.3 2.6-.1 5.4-.1 8.1 0z" class="st1"/><path d="M166.9 76.2c0 9.7-.1 19.5.1 29.2.2 8.6 2.6 11 11.3 11.4 7.7.3 15.5.2 23.2.1 2.7 0 4.8 0 4.7 3.8-.1 3.4-1 4.8-4.7 5-9 .4-17.9 1.1-26.9.2-11.7-1.2-18-8-18.1-19.6-.2-19.4-.4-38.9-.3-58.3 0-3.3-1.2-8 5.1-7.8 4 .1 5.9 1 5.8 5.5-.4 10-.2 20.2-.2 30.5zm419.7 5.9c0-9.5.1-19-.1-28.5-.1-4 1.1-5.9 5.5-5.9 4.4-.1 6.1 1.7 5.3 5.7-1.6 8.4 2.5 9.6 9.7 9.4 3.6-.1 10.6-3.5 10.9 3.1.4 7.8-7.1 4-11 4.3-9.6.6-9.7.2-9.7 10.1 0 10 .2 20-.1 30-.2 5.9 2.5 8.2 8 8 3-.1 6-.1 9 0 2.1 0 4 .2 4.1 3.1.1 2.4-.9 3.7-3.1 4.4-17.2 5.7-28.6-2.4-28.6-20.4.1-7.8.1-15.6.1-23.3z" class="st0"/><path d="M413 82.4c0 12.4-.1 24.9 0 37.3 0 3.8-.5 6.2-5.2 6.1-4.3-.1-5.5-2-5.5-6 .1-25.1.1-50.3 0-75.4 0-4.4 1.8-5.4 5.8-5.6 4.3-.1 4.9 1.9 4.8 5.4.1 12.8.1 25.5.1 38.2z" class="st1"/><path d="M441.5 94.2c0 8.5-.1 17 0 25.4.1 3.9-.8 6.1-5.3 6.1-4.2 0-5.6-1.7-5.5-5.9.2-17.2.2-34.4 0-51.6 0-4 .9-5.9 5.4-5.9 4.2 0 5.7 1.4 5.5 5.6-.3 8.9-.1 17.6-.1 26.3z" class="st0"/><path d="M216.6 94.3c0-8.7.2-17.4-.1-26.1-.1-4.1 1.2-5.7 5.5-5.8 4.7-.1 5.1 2.2 5 5.9-.1 17.2-.1 34.3 0 51.5 0 3.9-.9 6-5.3 6-4.5 0-5.3-2.3-5.2-6.1.2-8.5.1-16.9.1-25.4z" class="st1"/><path d="M129.4 53.9c4.7 5.7 5.7 12.6 5.8 19.6.3 15.7-.2 31.4.3 47 .2 6.9-3.5 6.6-8.4 6.9-5.5.3-7-1.7-6.6-6.9.5-6.2.3-12.4.3-18.6l1.2-1.5c6.1-1.8 10.2-8.1 10.5-15.9.4-10.4-.1-20.6-3.1-30.6zM42.2 90.4c-7-9.2-4.6-20-4.8-30.3-.3-12.2.4-24.5.1-36.7-.1-4.2 1.3-5.7 5-5.1 3.6.6 9.3-2.6 9.7 4.6.2 3.2 0 6.5-.1 9.7-1.7 6.5 0 13.2-.9 19.8-1.5-1.3-1-3.2-1.4-4.8-.9-3.5-3-3.5-4.4-.7-2.6 5.2-6.1 9.7-6.2 16.3-.1 9.3 1.9 18.2 3 27.2z" class="st2"/><path d="M628.7 164.4c2.6-8.5 4.4-14.9 6.5-21.1.6-1.8 1.1-5.4 4.2-3.9 2.4 1.1-.1 3.4-.6 5-2.9 9.1-6 18.1-9.5 28.6-5.5-8.9-6.1-17.8-10.5-26.2-2.4 7.5-4.5 14.3-6.7 21.2-.4 1.3-1 3.1-2.7 3.2-2.2.2-1.8-2-2.2-3.3-2.8-7.9-5.5-15.9-8.1-23.9-.5-1.4-1.9-3.7.3-4.5 2.9-1.1 3 2.2 3.5 3.7 2.2 6.2 3.9 12.6 6.4 20.9 2.8-8.4 5.1-14.9 7.2-21.5.5-1.5.6-3.2 2.5-3.2 1.9-.1 2.1 1.7 2.5 3.1 2.1 6.5 4.3 13.1 7.2 21.9z" class="st3"/><path d="M115.7 96.3c-1.3 4 2.5 9.2-2.9 12.2-15 0-30-.1-44.9-.1-5.1-.2-9.3-3-13.6-5.3-.1-2.1-1.3-2.7-3.2-2.3l.3-.2-.3.3.3-3.3c-5.3-12.9-8.9-25.9-3.3-40.2 3.2 2.7.5 6.5 3.1 8.7 1.1 4.4-1 9.3 1.7 13.5 0 2.6 2.6 4.4 2 7.1-1.6.9-1.5 2.1-1.1 3.8 2 7.6 12.4 15.9 20.2 16 7.9.1 15.9-.3 23.8.1 8.2.4 15.5-.1 16.6-10.6.5 0 .9.2 1.3.3z" class="st4"/><path d="M547.2 164.8v-22.1c0-1.4-.2-3.3 1.9-3.4 2.1-.1 2 1.7 2 3.2v24.7c0 1.4.5 3.2-1.4 3.8-1.8.5-2.6-1.1-3.5-2.2-6.7-7.6-13.4-15.3-20.4-23.3v22.1c0 1.4.2 3.3-1.9 3.4-2.1 0-1.9-1.9-1.9-3.3V143c0-1.4-.5-3.2 1.5-3.7 1.8-.4 2.6 1 3.6 2.2 6.4 7.5 12.9 15 20.1 23.3z" class="st0"/><path d="M115.7 96.3c-.4-.1-.9-.2-1.3-.4-4.4-3.2-9.5-.1-14.1-1.9.2-.8.4-1.7.6-2.5h1.5c9.2-2.7 13.2-14.2 9-25.5v-3c-.1-4-4.5-6.2-4.4-10.4l9 5.7c2.2 3.8 4.7 7.5 4.6 12.3-.2 7.9-.2 15.8-.3 23.8-3.6-4.3-3.3.7-4.6 1.9z" class="st5"/><path d="M120.2 94.4c.1-7.9.1-15.8.3-23.8.1-4.8-2.3-8.5-4.6-12.3 2-1.7 3.6-3.9 1.2-6.1-4.9-4.7-7.4-12.8-16.4-11.9-1.7.2-2.6-1.1-2.8-2.8 4.1-.4 7.9 2 12 .9 4.5 2 9.1 3.9 12 8.1-.3 3.5.5 6.8 2 10.1 3.6 8.3 6.3 17.9 1.7 25.6-3.7 6.3-3.3 11.9-3.7 18.1l-1.2 1.5c-.1-2.4-.3-4.9-.5-7.4z" class="st4"/><path d="M656 139.1c9.4.1 16.4 7.1 16.3 16.3-.1 8.5-8.6 16.9-16.7 16.8-8.4-.2-16.5-8.7-16.4-17.2.1-9.2 7.3-16 16.8-15.9zm12.2 15.7c-.1-7.4-5.4-12.6-12.7-12.5-7.1.1-12.8 5.8-12.7 12.9 0 7.4 5.9 13 13.5 12.8 7.2-.2 12-5.5 11.9-13.2z" class="st3"/><path d="M51.3 65.9c-2.6-2.1.1-5.9-3.1-8.7-5.5 14.3-2 27.3 3.3 40.2-2.1-.9-4.3-1.8-6.4-2.8l.1.1c.4-2-.4-3.2-2.5-3.4-.4-.2-.6-.6-.4-1-1.1-9-3.1-17.9-3-27.2.1-6.6 3.6-11.2 6.2-16.3 1.4-2.8 3.5-2.8 4.4.7.4 1.6-.1 3.5 1.4 4.8v13.6z" class="st6"/><path d="M555.7 154.5v-3.7c0-12 2.8-14.2 14.8-11.7 1.2.3 2.7.3 2.5 2-.2 1.6-1.7 1.5-2.9 1.6-1.7 0-3.5.1-5.2 0-3.2-.2-5 .3-4.9 4.3.1 3.7 1.1 5.1 4.6 4.5.2 0 .5-.1.7 0 1.9.5 5.3-1.4 5.1 2.2-.1 2.7-3.2 1.9-5 1.7-4-.4-5.4.6-5.6 5.1-.3 5.9 1.2 8.1 7.3 7.4 2-.2 6.1-1.9 6 1.7-.1 3.3-4.1 1.6-6.2 1.7-11.2.2-11.2.2-11.2-10.7v-6.1zm141.5 17.6c-10-2.2-9.7-12.4-16.3-14.8v9.6c0 1.9.6 4.5-2.5 4.3-2.8-.1-1.7-2.6-1.8-4.1-.1-6.7-.3-13.5.1-20.2.1-2.6-2.2-6.9 1.9-7.5 5-.8 10.9-1.6 14.3 3.8 2.7 4.2 2.8 9.2-2 11.6-4.6 2.3-3.3 4.1-1.2 6.8 2.3 2.9 4.3 5.9 7.5 10.5zm-16.3-23.4c.2 2.5-1.1 5.9 3.6 5.6 3.7-.3 6.1-1.9 5.8-6.1-.2-3.6-2-5.3-5.6-5.6-5.2-.3-3.5 3.5-3.8 6.1z" class="st3"/><path d="M121.9 100.4c.4-6.2 0-11.9 3.7-18.1 4.6-7.7 1.9-17.3-1.7-25.6-1.4-3.3-2.2-6.5-2-10.1 2.8 2.1 6.2 3.6 7.4 7.3 3 10 3.5 20.2 3.1 30.5-.3 7.9-4.4 14.2-10.5 16z" class="st6"/><path fill="#f5f8eb" d="M67.9 108.3c15 0 30 .1 44.9.1-3.2 1.2-6.1 2.3-8.7 4.9-5.2 5-27.9 4.9-34 .9-2.4-1.5-2-3.7-2.2-5.9z"/><path d="M735.3 138.6c1.4.4 3.3.4 4.7 1.3 1.6 1.1 5.2 2 3.6 4.6-1.5 2.5-3.3-.4-4.9-1.3-3.7-1.9-7.1-1.3-8.8 2.5-1.7 3.8 2 5 4.5 6.5 1 .6 2.3 1 3.4 1.4 4.2 1.6 7.9 4.2 7.6 9-.3 4-2.9 7.2-7.2 8.6-4.8 1.6-8.7.5-12.2-2.9-1-1-2.5-2-1-3.7 1.6-1.7 2.7-.3 3.6.9 1.9 2.6 4.6 2.8 7.4 2.4 2.7-.4 4.5-1.9 5.2-4.6.7-2.8-1.2-4.2-3.2-5.2-2.4-1.3-4.9-2.3-7.4-3.5-4-1.8-5.3-5.2-4.3-9.2.9-4.7 4.5-6.2 9-6.8zm-160.6 2.5c6.9-2.9 13.4-1.7 19.7-1.8.4 0 1.2.9 1.2 1.4.2 1.2-.7 1.9-1.8 1.7-7.7-1.3-6 4.2-6 8.4v16.5c0 1.8.1 3.9-2.2 4-2.8.2-2-2.3-2-3.8-.1-4.5 0-9 0-13.5 0-6 2.3-13.4-8.9-12.9z" class="st3"/><path d="M706.7 152.9c4.6-4.7 6.9-11.8 15.7-14.7-3.2 6.1-6.9 9.5-10.4 13.1-2.1 2.2-2.3 3.8 0 6.1 4 4 7.5 8.4 10.7 13.3-8-2-11-9.5-16-14.8v-3zm-479.8-108c-.2 3.3 1.6 7.6-4.7 7.7-5.7.1-5.6-3.2-5.6-7.2s-.3-7.4 5.5-7.3c5.1 0 5.5 2.8 4.8 6.8zm203.7-1.5c-.5-3 .5-5.3 5.5-5.4 6.1-.1 5.2 3.6 5.3 7.4.1 4.1 0 7.3-5.7 7.1-6.2-.2-4.8-4.4-5.1-9.1z" class="st1"/><path d="M706.7 152.9v3c-3.3 3.1-1.1 7.2-1.7 10.7-.3 1.8.6 4.5-2.3 4.5-2.3-.1-1.9-2.5-1.9-4.1v-23.8c0-1.5-.8-3.9 1.9-4 2.6-.1 2 2.1 2.3 3.7.7 3.4-1.7 7.2 1.7 10z" class="st3"/><path d="M60.4 50.7c-6-1.9-1.7-7.1-3.3-10.3 2-4.2 6.1-2.6 9.4-3.4 2 .2 4 .4 6 .5-.2 2.1-1.5 2.7-3.4 2.9-6.3.6-8.8 4.4-8.7 10.3z" class="st4"/><path d="M53.1 55.4c0 8-.1 16-.1 24.1-2.7-4.2-.6-9.1-1.7-13.5V52.5c1-6.6-.7-13.3.9-19.8.3 7.5.6 15.1.9 22.7z" class="st8"/><path d="M45.1 94.7c2.1.9 4.3 1.8 6.4 2.8l-.3 3.3c-2.6-1.5-4.9-3.3-6.1-6.1z" class="st2"/><path d="M42.7 91.4c2.1.2 2.9 1.3 2.5 3.4-1.4-.8-2.2-1.9-2.5-3.4zm8.4 9.3c1.9-.4 3.1.2 3.2 2.3-1-.7-2.1-1.5-3.2-2.3z" class="st2"/><path d="M496 95.5c0 3.5.6 7.2-.2 10.4-.9 3.7 3.9 9.5-3.5 11-12.6 2.5-21.4.4-23.9-6.5-3.8-10.5-3.2-21.6-.6-32.2 1.9-7.5 9.3-9.8 19.4-7.8 7.4 1.5 9.6 5.9 8.8 13-.3 4 0 8.1 0 12.1z" class="st9"/><path fill="#519743" d="M55 86.6c.4-.1.7 0 1.1 0 3.8 6.2 9.6 7.8 16.3 7.5 8.4.3 16.9.9 25.3-.3.9.1 1.8.1 2.7.2 4.5 1.8 9.7-1.4 14.1 1.9-1.1 10.5-8.3 11-16.6 10.6-7.9-.4-15.8 0-23.8-.1-7.9-.1-18.2-8.5-20.2-16-.5-1.7-.5-2.9 1.1-3.8zm5.4-35.9c-.1-5.9 2.4-9.7 8.6-10.3 1.9-.2 3.3-.7 3.4-2.9h25.5c.2 1.7 1.1 2.9 2.8 2.8 9-1 11.5 7.2 16.4 11.9 2.4 2.3.8 4.4-1.2 6.1l-9-5.7-3-1.8c2-3.1.5-4.6-2.3-6.3-13-7.6-24.2-5.8-36.8 6.2l.1.6c-1.4-.2-3-.4-4.5-.6z"/><path d="M104 50.8l3 1.8c-.1 4.1 4.3 6.3 4.4 10.4-3 .3-5-1.3-6.9-3.5-3.6-4.1-3.3-.5-3.5 1.9l-4.5-3-1.5-1.5c-12-4.4-19.4-2.1-24.1 7.3-5.2 5.2-3.2 11-1.4 16.7-6.6 2-1.9 5.9-1.5 9-5.8-2.8-8.6-11.1-7.3-19.7.9-5.6 4.5-10.4 4.3-16.3 2.3-.3 5.3 1.1 5.9-2.7 11-.1 22.1-.3 33.1-.4z" class="st12"/><path d="M101 61.4c.2-2.5 0-6 3.5-1.9 1.9 2.2 3.9 3.8 6.9 3.5v3c-1.3 1-1.6 2.4-1.5 3.9.8 7.4-.2 14-6.7 18.8-.6.5-.6 1.8-.8 2.7h-1.5c-1.6 0-2.8.7-3.3 2.4-8.4 1.2-16.9.6-25.3.3 1.7-4.8-3.5-2.2-4.4-4.2-.3-3.2-5.1-7.1 1.5-9 8.5 10.7 16.8 12.9 26.1 7.2 9.2-5.7 11.1-15.3 5.5-26.7z" class="st8"/><path d="M102.5 91.4c.3-.9.2-2.3.8-2.7 6.5-4.8 7.5-11.5 6.7-18.8-.2-1.5.1-2.9 1.5-3.9 4.2 11.3.1 22.7-9 25.4zm-4.8 2.4c.4-1.7 1.6-2.3 3.3-2.4-.2.8-.4 1.7-.6 2.5-.9 0-1.8 0-2.7-.1z" class="st12"/><path fill="#fcfcfc" d="M668.2 154.8c.1 7.7-4.7 13-11.9 13.2-7.5.2-13.5-5.4-13.5-12.8 0-7 5.7-12.8 12.7-12.9 7.4-.1 12.6 5.1 12.7 12.5z"/><path d="M680.9 148.7c.3-2.6-1.4-6.5 3.8-6.1 3.5.3 5.4 2 5.6 5.6.3 4.2-2.1 5.8-5.8 6.1-4.7.4-3.4-3.1-3.6-5.6z" class="st9"/><path d="M68 89.9c.9 2 6.1-.6 4.4 4.2-6.7.3-12.6-1.4-16.3-7.5 2.1-2.7.4-5.3-.5-7.7-3.1-8.3.1-15.4 3.7-22.5 1.2-2.4 3.4-2.6 5.7-2.5.2 5.8-3.4 10.7-4.3 16.3-1.4 8.7 1.4 17 7.3 19.7z" class="st5"/><path d="M70.9 51.2c-.6 3.8-3.7 2.4-5.9 2.7v-2.7l-.1-.6c2 .3 4 .4 6 .6z" class="st5"/><path fill="#62a044" d="M70.9 51.2c-2-.2-4-.3-6-.5 12.5-12 23.8-13.8 36.8-6.2 2.8 1.7 4.3 3.2 2.3 6.3-11 .1-22.1.3-33.1.4z"/><path fill="#e7ec9b" d="M70.9 64.1C75.6 54.7 83 52.5 95 56.9c-1.4 2.4.9 1.2 1.5 1.5.6 2.6 1 5.3 1.8 7.9 2.4 8.1.5 13.1-6.8 17.4-5.5 3.2-12.2 1.6-17.5-3.4-5.1-4.8-2.2-10.8-3.1-16.2zm15.1.8c-4.1.7-7.1 3.3-7.1 7.4-.1 4.2 3 6.8 7.2 7.2 4.7.4 7-2.8 7-6.9 0-4.3-2.9-6.8-7.1-7.7z"/><path d="M70.9 64.1c.9 5.4-2 11.4 3.1 16.2 5.2 5 12 6.6 17.4 3.4 7.3-4.3 9.2-9.3 6.8-17.4-.8-2.6-1.2-5.3-1.8-7.9l4.5 3c5.7 11.4 3.7 21-5.4 26.6-9.2 5.8-17.6 3.5-26.1-7.2-1.6-5.7-3.7-11.5 1.5-16.7z" class="st16"/><path d="M96.5 58.4c-.7-.4-2.9.8-1.5-1.5l1.5 1.5z" class="st16"/></svg>