<svg xmlns="http://www.w3.org/2000/svg" role="img" viewBox="0.81 0.31 477.88 238.88"><path fill="none" d="M295.554 81.054a11.507 11.507 0 0 0-3.993 5.015 17.198 17.198 0 0 0-1.122 6.305 14.954 14.954 0 0 0 .66 4.814 7.784 7.784 0 0 0 1.88 3.104 6.891 6.891 0 0 0 2.936 1.682 13.623 13.623 0 0 0 3.762.493 37.573 37.573 0 0 0 3.795-.195 24.268 24.268 0 0 0 3.99-.763 25.784 25.784 0 0 0 4.158-1.549 29.248 29.248 0 0 0 4.289-2.507V75.942a59.562 59.562 0 0 0-12.57 1.652 22.927 22.927 0 0 0-7.785 3.46zM448.027 59.48a15.28 15.28 0 0 0-5.278-4.98 15.594 15.594 0 0 0-7.852-1.848 14.062 14.062 0 0 0-7.359 1.911 15.94 15.94 0 0 0-5.31 5.245 25.835 25.835 0 0 0-3.2 7.918 42.831 42.831 0 0 0-1.09 9.931 42.146 42.146 0 0 0 .959 8.842 28.7 28.7 0 0 0 3.035 8.182 18.387 18.387 0 0 0 5.342 6.037 13.055 13.055 0 0 0 7.82 2.346 12.182 12.182 0 0 0 7.523-2.376 18.355 18.355 0 0 0 5.212-6.27 32.751 32.751 0 0 0 3.036-8.774 50.05 50.05 0 0 0 .99-9.966 42.786 42.786 0 0 0-.89-8.876 21.486 21.486 0 0 0-2.938-7.322z"/><path fill="#666" d="M157.159 99.764h-44.605V9.763H94.406v103.394h62.753V99.764zm9.248-73.476a10.028 10.028 0 0 0 3.035 2.18 8.582 8.582 0 0 0 3.727.826 9.034 9.034 0 0 0 3.827-.792 9.598 9.598 0 0 0 2.97-2.111 9.112 9.112 0 0 0 1.913-3.036 10.087 10.087 0 0 0 .66-3.631 10.323 10.323 0 0 0-.66-3.66 8.693 8.693 0 0 0-1.914-3.036 9.258 9.258 0 0 0-6.796-2.806 9.965 9.965 0 0 0-3.727.694 9.01 9.01 0 0 0-3.035 1.946 9.392 9.392 0 0 0-2.048 2.971 9.224 9.224 0 0 0-.758 3.759 8.987 8.987 0 0 0 .758 3.597 10.507 10.507 0 0 0 2.048 3.099zm-1.948 15.606h17.156v71.262h-17.156zm63.054 12.107a28.875 28.875 0 0 1 3.959-.293 17.57 17.57 0 0 1 5.608.821 9.844 9.844 0 0 1 4.123 2.64 11.664 11.664 0 0 1 2.542 4.784 26.476 26.476 0 0 1 .857 7.258v43.946h17.156V65.98a26.353 26.353 0 0 0-2.046-10.626 23.127 23.127 0 0 0-5.576-7.918 24.243 24.243 0 0 0-8.314-4.946 30.367 30.367 0 0 0-10.325-1.716 29.728 29.728 0 0 0-6.467.69 32.661 32.661 0 0 0-5.775 1.847 33.69 33.69 0 0 0-4.914 2.61 28.886 28.886 0 0 0-3.827 2.903l-.296-1.882q-.169-1.026-.396-1.98c-.156-.635-.298-1.23-.43-1.783a8.469 8.469 0 0 0-.396-1.286H196.83a43.065 43.065 0 0 1 .76 6.765q.095 3.336.098 5.445v59.053h17.156V58.063a31.51 31.51 0 0 1 3.993-1.784q2.14-.792 4.355-1.384a36.38 36.38 0 0 1 4.32-.894zm112.744 48.667a17.624 17.624 0 0 1-1.98.195 7.09 7.09 0 0 1-2.441-.361 3.313 3.313 0 0 1-1.616-1.257 5.896 5.896 0 0 1-.892-2.439 23.58 23.58 0 0 1-.264-3.861V63.141a19.892 19.892 0 0 0-2.441-10.064 20.427 20.427 0 0 0-6.532-6.96 30.044 30.044 0 0 0-9.37-4.022 45.266 45.266 0 0 0-11.02-1.32 46.145 46.145 0 0 0-16.231 2.869 40.73 40.73 0 0 0-13.329 7.952l9.04 10.294a59.14 59.14 0 0 1 5.41-4.653 28.78 28.78 0 0 1 4.72-2.904 18.511 18.511 0 0 1 4.518-1.52 25.482 25.482 0 0 1 4.75-.425 18.26 18.26 0 0 1 5.412.758 11.07 11.07 0 0 1 4.19 2.341 10.743 10.743 0 0 1 2.738 4.09 16.361 16.361 0 0 1 .99 6.008v2.57q-5.609 0-11.02.465a73.072 73.072 0 0 0-10.259 1.584 43.757 43.757 0 0 0-8.942 3.064 25.234 25.234 0 0 0-7.06 4.917 21.316 21.316 0 0 0-4.653 7.092 25.363 25.363 0 0 0-1.681 9.605 23.098 23.098 0 0 0 1.451 8.543 16.317 16.317 0 0 0 4.157 6.134 17.663 17.663 0 0 0 6.532 3.73 27.698 27.698 0 0 0 8.644 1.256 44.678 44.678 0 0 0 5.839-.396 32.957 32.957 0 0 0 6.006-1.388 31.704 31.704 0 0 0 11.711-6.994 10.176 10.176 0 0 0 4.258 6.5 14.352 14.352 0 0 0 8.28 2.278 27.577 27.577 0 0 0 4.848-.396 28.82 28.82 0 0 0 4.091-1.027 23.919 23.919 0 0 0 3.531-1.48q1.65-.858 3.234-1.848l-1.848-7.59q-1.32.264-2.771.464zm-24.348-5.215a29.248 29.248 0 0 1-4.29 2.507 25.784 25.784 0 0 1-4.156 1.55 24.268 24.268 0 0 1-3.991.762 37.573 37.573 0 0 1-3.795.195 13.623 13.623 0 0 1-3.762-.493 6.891 6.891 0 0 1-2.937-1.682 7.784 7.784 0 0 1-1.88-3.103 14.954 14.954 0 0 1-.659-4.815 17.198 17.198 0 0 1 1.122-6.305 11.507 11.507 0 0 1 3.993-5.015 22.927 22.927 0 0 1 7.786-3.46 59.562 59.562 0 0 1 12.569-1.652zm35.047-49.884q.029 1.781.063 3.5c.022 1.143.034 2.086.034 2.834v59.254h17.288l-.132-46.648a22.763 22.763 0 0 1 7.16-7.654 19.87 19.87 0 0 1 14.121-2.542 17.556 17.556 0 0 1 3.925 1.354l3.695-15.509a19.562 19.562 0 0 0-2.837-.923 23.327 23.327 0 0 0-5.41-.46 15.991 15.991 0 0 0-6.103 1.32 28.647 28.647 0 0 0-6.105 3.46 32.003 32.003 0 0 0-5.279 4.917 22.423 22.423 0 0 0-3.629 5.675 126.224 126.224 0 0 0-1.98-14.253h-15.175c.088.528.163 1.31.232 2.342q.095 1.554.132 3.333zm117.033 15.934a32.716 32.716 0 0 0-6.237-11.877 29.274 29.274 0 0 0-10.755-7.948 38.139 38.139 0 0 0-15.572-2.903 39.316 39.316 0 0 0-15.736 2.903 31.38 31.38 0 0 0-11.12 7.85 32.41 32.41 0 0 0-6.598 11.481 43.534 43.534 0 0 0-2.178 13.857 49.277 49.277 0 0 0 2.344 15.67 32.936 32.936 0 0 0 6.894 12.009 30.397 30.397 0 0 0 11.249 7.688 40.902 40.902 0 0 0 15.409 2.708 34.225 34.225 0 0 0 14.352-2.904 32.12 32.12 0 0 0 10.821-7.918 34.685 34.685 0 0 0 6.794-11.715A42.932 42.932 0 0 0 470 78.122a51.603 51.603 0 0 0-2.011-14.62zm-17.124 22.141a32.751 32.751 0 0 1-3.036 8.773 18.355 18.355 0 0 1-5.212 6.271 12.182 12.182 0 0 1-7.522 2.376 13.055 13.055 0 0 1-7.82-2.346 18.387 18.387 0 0 1-5.343-6.037 28.7 28.7 0 0 1-3.035-8.182 42.146 42.146 0 0 1-.958-8.842 42.831 42.831 0 0 1 1.09-9.931 25.835 25.835 0 0 1 3.199-7.918 15.94 15.94 0 0 1 5.31-5.245 14.062 14.062 0 0 1 7.359-1.91 15.594 15.594 0 0 1 7.852 1.847 15.28 15.28 0 0 1 5.278 4.98 21.486 21.486 0 0 1 2.938 7.322 42.786 42.786 0 0 1 .89 8.876 50.05 50.05 0 0 1-.99 9.966z"/><path fill="#9c3" d="M202.594 124.247h-38.52a6.245 6.245 0 0 0-6.25 6.245v38.52a6.246 6.246 0 0 0 6.25 6.246h38.52a6.245 6.245 0 0 0 6.247-6.246v-38.52a6.244 6.244 0 0 0-6.247-6.245zm64.067 0h-38.515a6.248 6.248 0 0 0-6.251 6.245v38.52a6.25 6.25 0 0 0 6.25 6.246h38.516a6.25 6.25 0 0 0 6.251-6.246v-38.52a6.248 6.248 0 0 0-6.251-6.245zm64.076 0h-38.52a6.248 6.248 0 0 0-6.25 6.245v38.52a6.25 6.25 0 0 0 6.25 6.246h38.52a6.245 6.245 0 0 0 6.247-6.246v-38.52a6.244 6.244 0 0 0-6.247-6.245zm64.067 0H356.29a6.245 6.245 0 0 0-6.251 6.245v38.52a6.246 6.246 0 0 0 6.251 6.246h38.515a6.25 6.25 0 0 0 6.251-6.246v-38.52a6.248 6.248 0 0 0-6.25-6.245zm64.072 0H420.36a6.245 6.245 0 0 0-6.252 6.245v38.52a6.246 6.246 0 0 0 6.252 6.246h38.515a6.25 6.25 0 0 0 6.25-6.246v-38.52a6.248 6.248 0 0 0-6.25-6.245zm-320.221.069H100.07a6.259 6.259 0 0 0-6.261 6.256v38.584a6.26 6.26 0 0 0 6.261 6.257h38.585a6.256 6.256 0 0 0 6.257-6.257v-38.584a6.255 6.255 0 0 0-6.257-6.256z"/><path fill="#c03" d="M58.449 124.236H26.098a5.248 5.248 0 0 0-5.25 5.246v32.35a5.249 5.249 0 0 0 5.25 5.247h32.35a5.245 5.245 0 0 0 5.247-5.246v-32.351a5.244 5.244 0 0 0-5.246-5.246z"/><path fill="#c03" d="M66.101 195.29h-26.39a4.28 4.28 0 0 0-4.282 4.278v26.39a4.281 4.281 0 0 0 4.283 4.28h26.39a4.279 4.279 0 0 0 4.279-4.28v-26.39a4.278 4.278 0 0 0-4.28-4.278z" opacity=".6"/><path fill="#909" d="M75.3 124.293h11.058a1.795 1.795 0 0 1 1.795 1.795v11.057a1.793 1.793 0 0 1-1.793 1.793H75.3a1.793 1.793 0 0 1-1.794-1.793v-11.059a1.793 1.793 0 0 1 1.793-1.793z"/><path fill="#909" d="M107.27 149.951H61.682a7.395 7.395 0 0 0-7.398 7.391v45.587a7.396 7.396 0 0 0 7.398 7.392h45.586a7.391 7.391 0 0 0 7.393-7.392v-45.587a7.39 7.39 0 0 0-7.393-7.39z" opacity=".7"/><path fill="#9c3" d="M12.586 135.094h15.952a2.586 2.586 0 0 1 2.585 2.586v15.947a2.588 2.588 0 0 1-2.588 2.588H12.586A2.586 2.586 0 0 1 10 153.63v-15.95a2.586 2.586 0 0 1 2.586-2.586z" opacity=".7"/></svg>