<svg xmlns="http://www.w3.org/2000/svg" role="img" viewBox="-6.44 19.31 412.62 206.12"><title>Linaro Limited (member) logo</title><style>svg {enable-background:new 0 0 400 245}</style><path fill="none" d="M247.89 88.91c-1.65 1.24-2.8 2.68-3.45 4.33-.65 1.65-.97 3.47-.97 5.44 0 1.67.19 3.05.57 4.16.38 1.1.92 2 1.62 2.68.7.68 1.55 1.16 2.54 1.45.99.28 2.07.43 3.25.43 1.06 0 2.15-.05 3.28-.17 1.12-.11 2.27-.33 3.45-.66 1.18-.32 2.37-.77 3.59-1.34 1.22-.57 2.45-1.29 3.7-2.16V84.5c-4.41.19-8.02.67-10.85 1.43-2.84.75-5.08 1.75-6.73 2.98zm131.63-18.62c-1.18-1.8-2.7-3.24-4.56-4.3-1.86-1.06-4.12-1.59-6.78-1.59-2.39 0-4.51.55-6.35 1.65-1.84 1.1-3.37 2.61-4.58 4.53-1.22 1.92-2.14 4.2-2.76 6.84-.63 2.64-.94 5.5-.94 8.57 0 2.51.27 5.05.83 7.63.55 2.58 1.42 4.94 2.62 7.06 1.19 2.13 2.73 3.87 4.61 5.21 1.88 1.35 4.13 2.03 6.75 2.03 2.51 0 4.67-.68 6.49-2.05 1.82-1.37 3.32-3.17 4.5-5.41 1.18-2.24 2.05-4.76 2.62-7.57.57-2.81.85-5.68.85-8.6 0-2.7-.26-5.25-.77-7.66-.51-2.43-1.35-4.54-2.53-6.34z"/><path fill="#4d4d4d" d="M128.42 105.06H89.91V27.37H74.25v89.25h54.17zm7.98-63.43c.74.78 1.61 1.41 2.62 1.88 1 .48 2.08.71 3.22.71 1.22 0 2.31-.23 3.3-.68.99-.46 1.84-1.06 2.56-1.82s1.27-1.63 1.65-2.62c.38-.99.57-2.03.57-3.13s-.19-2.16-.57-3.16c-.38-1-.93-1.88-1.65-2.62-.72-.74-1.58-1.33-2.56-1.77-.99-.43-2.09-.65-3.3-.65-1.14 0-2.21.2-3.22.6-1.01.4-1.88.96-2.62 1.68-.74.72-1.33 1.58-1.77 2.57-.43.99-.65 2.07-.65 3.24 0 1.06.22 2.1.65 3.11.44.99 1.03 1.89 1.77 2.66zm-1.68 13.47h14.81v61.52h-14.81zm54.43 10.46c1.22-.17 2.35-.25 3.42-.25 1.82 0 3.44.24 4.84.71 1.4.48 2.59 1.24 3.56 2.28.97 1.05 1.7 2.42 2.19 4.13s.74 3.8.74 6.27v37.94h14.81V75.9c0-3.42-.59-6.48-1.77-9.17-1.18-2.7-2.78-4.97-4.81-6.84-2.03-1.86-4.42-3.28-7.18-4.27-2.75-.99-5.72-1.48-8.91-1.48-1.94 0-3.8.2-5.58.59-1.79.4-3.45.93-4.99 1.59-1.54.67-2.95 1.42-4.24 2.25-1.29.84-2.39 1.67-3.3 2.51-.08-.49-.16-1.03-.26-1.62-.1-.59-.21-1.16-.34-1.71-.14-.55-.26-1.06-.37-1.54-.11-.47-.23-.84-.34-1.11h-13.96c.38 1.97.6 3.92.66 5.84.05 1.92.08 3.49.08 4.7v50.98h14.81V69.06c1.06-.57 2.21-1.08 3.45-1.54 1.23-.46 2.49-.85 3.76-1.19 1.27-.34 2.52-.6 3.73-.77zm97.33 42.01c-.84.11-1.41.17-1.71.17-.84 0-1.54-.1-2.11-.31-.57-.21-1.04-.57-1.39-1.08-.36-.51-.62-1.21-.77-2.11-.15-.89-.23-2-.23-3.33V73.45c0-3.34-.7-6.24-2.11-8.69-1.4-2.45-3.28-4.45-5.64-6.01-2.35-1.56-5.05-2.71-8.09-3.47-3.04-.76-6.21-1.14-9.51-1.14-4.9 0-9.57.82-14.01 2.48-4.44 1.65-8.28 3.94-11.51 6.86l7.8 8.89c1.71-1.63 3.27-2.97 4.67-4.02 1.41-1.04 2.76-1.88 4.07-2.51 1.31-.63 2.61-1.06 3.9-1.31 1.29-.24 2.66-.37 4.1-.37 1.71 0 3.27.22 4.67.65 1.41.44 2.61 1.11 3.62 2.02 1 .91 1.79 2.09 2.36 3.53.57 1.44.85 3.17.85 5.19v2.22c-3.23 0-6.4.14-9.51.4-3.11.27-6.07.72-8.86 1.37-2.79.65-5.36 1.53-7.72 2.65-2.35 1.12-4.39 2.54-6.09 4.24s-3.05 3.75-4.02 6.12c-.97 2.38-1.45 5.14-1.45 8.29 0 2.81.42 5.27 1.25 7.38.84 2.11 2.03 3.87 3.59 5.3 1.56 1.43 3.44 2.5 5.64 3.22 2.2.72 4.69 1.08 7.46 1.08 1.63 0 3.31-.11 5.04-.34s3.46-.63 5.19-1.2c1.73-.57 3.45-1.35 5.15-2.33 1.71-.99 3.36-2.22 4.96-3.7.53 2.43 1.76 4.3 3.68 5.61 1.92 1.31 4.3 1.97 7.15 1.97 1.52 0 2.91-.11 4.19-.34 1.27-.23 2.45-.52 3.53-.89 1.08-.36 2.1-.78 3.05-1.28.95-.49 1.88-1.03 2.79-1.59l-1.59-6.55c-.75.14-1.55.27-2.39.39zm-21.02-4.5c-1.25.87-2.49 1.59-3.7 2.16-1.22.57-2.41 1.02-3.59 1.34-1.18.32-2.33.54-3.45.66-1.12.11-2.21.17-3.28.17-1.18 0-2.26-.14-3.25-.43-.99-.29-1.83-.77-2.54-1.45-.7-.68-1.24-1.58-1.62-2.68-.38-1.1-.57-2.49-.57-4.16 0-1.97.32-3.79.97-5.44.65-1.65 1.79-3.09 3.45-4.33 1.65-1.23 3.89-2.23 6.72-2.99 2.83-.76 6.45-1.24 10.85-1.43v18.58zM295.72 60c.02 1.03.04 2.03.05 3.02.02.99.03 1.8.03 2.45v51.15h14.92l-.11-40.27c1.59-2.73 3.65-4.94 6.18-6.61 2.52-1.67 5.55-2.51 9.08-2.51 1.03 0 2.06.11 3.11.31 1.04.21 2.17.6 3.39 1.17l3.19-13.39c-.61-.27-1.42-.53-2.45-.8-1.03-.27-2.58-.4-4.67-.4-1.67 0-3.43.38-5.27 1.14-1.84.76-3.6 1.76-5.27 2.99-1.67 1.24-3.19 2.65-4.56 4.24-1.37 1.59-2.41 3.23-3.13 4.9-.34-4.18-.91-8.28-1.71-12.3h-13.1c.08.46.14 1.13.2 2.02.06.91.1 1.87.12 2.89zm101.03 13.76c-1.16-3.93-2.95-7.35-5.38-10.25-2.43-2.9-5.53-5.19-9.28-6.86-3.76-1.67-8.24-2.51-13.44-2.51-5.2 0-9.73.84-13.58 2.51-3.86 1.67-7.05 3.93-9.6 6.78-2.54 2.85-4.44 6.15-5.7 9.91-1.25 3.76-1.88 7.75-1.88 11.96 0 4.97.67 9.49 2.02 13.53 1.35 4.05 3.33 7.5 5.95 10.37 2.62 2.87 5.86 5.08 9.71 6.64s8.29 2.34 13.3 2.34c4.6 0 8.72-.84 12.39-2.51 3.66-1.67 6.78-3.95 9.34-6.84 2.56-2.89 4.52-6.26 5.86-10.11 1.35-3.85 2.02-7.96 2.02-12.33.01-4.49-.57-8.7-1.73-12.63zm-14.78 19.11c-.57 2.81-1.44 5.33-2.62 7.57-1.18 2.24-2.68 4.05-4.5 5.41-1.82 1.37-3.99 2.05-6.49 2.05-2.62 0-4.87-.68-6.75-2.03-1.88-1.35-3.42-3.08-4.61-5.21-1.2-2.13-2.07-4.48-2.62-7.06-.55-2.58-.83-5.13-.83-7.63 0-3.08.31-5.93.94-8.57.62-2.64 1.55-4.92 2.76-6.84 1.22-1.92 2.74-3.43 4.58-4.53 1.84-1.1 3.96-1.65 6.35-1.65 2.66 0 4.92.53 6.78 1.59 1.86 1.06 3.38 2.5 4.56 4.3 1.18 1.81 2.02 3.91 2.54 6.32.51 2.41.77 4.97.77 7.66-.01 2.94-.29 5.81-.86 8.62z"/><path fill="#a0cc40" d="M166.34 126.2h-33.25c-2.98 0-5.4 2.41-5.4 5.39v33.25c0 2.98 2.41 5.39 5.4 5.39h33.25c2.98 0 5.39-2.41 5.39-5.39v-33.25c0-2.98-2.41-5.39-5.39-5.39zm-54.01 0H79.08c-2.98 0-5.4 2.41-5.4 5.39v16.69h11.94c3.38 0 6.12 2.74 6.12 6.12v15.83h20.59c2.98 0 5.39-2.41 5.39-5.39v-33.25c0-2.98-2.41-5.39-5.39-5.39zm109.64 0h-33.25c-2.98 0-5.4 2.41-5.4 5.39v33.25c0 2.98 2.42 5.39 5.4 5.39h33.25c2.98 0 5.4-2.41 5.4-5.39v-33.25c0-2.98-2.42-5.39-5.4-5.39zm55.64 0h-33.25c-2.98 0-5.4 2.41-5.4 5.39v33.25c0 2.98 2.42 5.39 5.4 5.39h33.25c2.98 0 5.39-2.41 5.39-5.39v-33.25c.01-2.98-2.41-5.39-5.39-5.39zm55.64 0H300c-2.98 0-5.4 2.41-5.4 5.39v33.25c0 2.98 2.41 5.39 5.4 5.39h33.25c2.98 0 5.4-2.41 5.4-5.39v-33.25c-.01-2.98-2.43-5.39-5.4-5.39zm55.63 0h-33.25c-2.98 0-5.4 2.41-5.4 5.39v33.25c0 2.98 2.41 5.39 5.4 5.39h33.25c2.98 0 5.4-2.41 5.4-5.39v-33.25c0-2.98-2.42-5.39-5.4-5.39z"/><path fill="#a682b8" d="M73.68 164.84v-16.56H47.86v9.89c0 2.7-2.19 4.9-4.9 4.9h-3.29v24.32h9.38c2.54 0 4.6 2.05 4.6 4.6v8.37h31.98c3.38 0 6.12-2.74 6.12-6.12v-24H79.08c-2.98-.01-5.4-2.42-5.4-5.4z"/><path fill="#917a81" d="M85.62 148.28H73.68v16.56c0 2.98 2.41 5.39 5.4 5.39h12.66V154.4c0-3.38-2.74-6.12-6.12-6.12z"/><path fill="#e1496d" d="M45.8 148.28h2.06V131.1c0-2.7-2.19-4.9-4.9-4.9H15.88c-2.7 0-4.9 2.19-4.9 4.9v4.35h5.84c1.69 0 3.06 1.37 3.06 3.06v12.24c0 1.69-1.37 3.06-3.06 3.06h-5.84v4.35c0 2.7 2.19 4.9 4.9 4.9h23.78v-8.66c.01-3.38 2.75-6.12 6.14-6.12z"/><path fill="#c82a5c" d="M47.86 158.17v-9.89H45.8c-3.38 0-6.13 2.74-6.13 6.12v8.66h3.29c2.7.01 4.9-2.19 4.9-4.89z"/><path fill="#ea8096" d="M39.67 194.23v-6.84H27.99c-2.54 0-4.59 2.05-4.59 4.6v21.06c0 2.54 2.05 4.59 4.59 4.59h21.06c2.54 0 4.6-2.05 4.6-4.59v-12.69H45.8c-3.39-.01-6.13-2.75-6.13-6.13z"/><path fill="#c04a7d" d="M49.04 187.39h-9.38v6.84c0 3.38 2.74 6.12 6.13 6.12h7.84v-8.37c.01-2.53-2.04-4.59-4.59-4.59z"/><path fill="#c9df91" d="M4.58 135.45c-1.69 0-3.06 1.37-3.06 3.06v12.24c0 1.69 1.37 3.06 3.06 3.06h6.41v-18.37H4.58z"/><path fill="#bd8549" d="M19.88 150.75v-12.24c0-1.69-1.37-3.06-3.06-3.06h-5.84v18.37h5.84c1.69 0 3.06-1.37 3.06-3.07z"/><path fill="#8b63a9" d="M58.31 139.13h8.44c1.16 0 2.11-.95 2.11-2.11v-8.44c0-1.16-.95-2.11-2.11-2.11h-8.44c-1.16 0-2.11.95-2.11 2.11v8.44c0 1.17.95 2.11 2.11 2.11z"/></svg>