<svg xmlns="http://www.w3.org/2000/svg" role="img" viewBox="-10.71 -10.21 530.92 105.42"><defs><style>.cls-1{fill:#008fc8}</style></defs><path id="subtitle" d="M121.58 65.441h1.5v14.468h-1.5zm18.715 8.81v5.658h-1.435v-5.597a2.877 2.877 0 0 0-2.977-3.208 4.21 4.21 0 0 0-3.36 1.828v6.977h-1.436v-9.827h1.436v1.17a4.95 4.95 0 0 1 3.612-1.49c2.45 0 4.16 1.723 4.16 4.489zm13.689 5.636a7.126 7.126 0 0 1-2.111.343c-2.24 0-3.38-1.3-3.38-3.853v-5.041h-2.598v-1.254h2.597v-3.639h1.436v3.639h3.696v1.254h-3.696v5.041c0 1.788.696 2.51 2.175 2.51a6.331 6.331 0 0 0 1.65-.258zm15.422-4.317l-.085-.044v.044h-8.258a3.582 3.582 0 0 0 3.653 3.36 2.957 2.957 0 0 0 2.83-1.511h1.562a4.43 4.43 0 0 1-4.435 2.766 5.182 5.182 0 0 1 0-10.362c2.79 0 4.733 2.17 4.754 5.13a6.062 6.062 0 0 1-.02.617zm-8.343-1.13h6.905a3.327 3.327 0 0 0-3.336-3.358 3.56 3.56 0 0 0-3.569 3.358zm16.854-2.66a4.647 4.647 0 0 1 3.827-1.957v1.385a4.52 4.52 0 0 0-3.827 2.277v6.424h-1.433v-9.827h1.432zm19.583 2.471v5.658h-1.438v-5.597a2.877 2.877 0 0 0-2.977-3.208 4.21 4.21 0 0 0-3.357 1.828v6.977h-1.44v-9.827h1.44v1.17a4.95 4.95 0 0 1 3.608-1.49c2.453 0 4.163 1.723 4.163 4.489zm16.603 1.319l-.086-.044v.044h-8.258a3.585 3.585 0 0 0 3.655 3.36 2.959 2.959 0 0 0 2.83-1.511h1.563a4.429 4.429 0 0 1-4.435 2.766 5.182 5.182 0 0 1 0-10.362c2.788 0 4.731 2.17 4.752 5.13a6.06 6.06 0 0 1-.02.617zm-8.344-1.13h6.907a3.326 3.326 0 0 0-3.337-3.358 3.561 3.561 0 0 0-3.57 3.358zm21.946 5.447a7.118 7.118 0 0 1-2.111.343c-2.237 0-3.378-1.3-3.378-3.853v-5.041h-2.6v-1.254h2.6v-3.639h1.433v3.639h3.697v1.254h-3.697v5.041c0 1.788.699 2.51 2.176 2.51a6.34 6.34 0 0 0 1.652-.258zm26.745-4.894a5.187 5.187 0 1 1-5.176-5.17 5.13 5.13 0 0 1 5.176 5.17zm-1.438 0a3.741 3.741 0 1 0-3.738 3.916 3.746 3.746 0 0 0 3.738-3.916zm14.913-4.911v1.254h-3.927v8.573h-1.436v-8.573h-2.854v-1.254h2.854v-2.575a3.386 3.386 0 0 1 3.463-3.701 7.437 7.437 0 0 1 2.029.297l-.234 1.256a7.319 7.319 0 0 0-1.54-.216 2.189 2.189 0 0 0-2.282 2.364v2.575zm20.301-3.259v13.086h-1.498V66.823h-5.345v-1.382h12.188v1.382h-5.345zm20.364 7.428v5.658h-1.436v-5.597a2.877 2.877 0 0 0-2.98-3.208 4.211 4.211 0 0 0-3.357 1.828v6.977h-1.438V64.806h1.438v6.447a4.956 4.956 0 0 1 3.612-1.49c2.45 0 4.162 1.722 4.162 4.488zm7.392-7.891a1.004 1.004 0 1 1 .993.975.964.964 0 0 1-.993-.976zm.276 3.722h1.438v9.827h-1.438zm18.736 4.169v5.658h-1.436v-5.597a2.877 2.877 0 0 0-2.978-3.208 4.212 4.212 0 0 0-3.36 1.828v6.977h-1.435v-9.827h1.436v1.17a4.953 4.953 0 0 1 3.611-1.49c2.45 0 4.162 1.723 4.162 4.489zm16.668 5.979a4.921 4.921 0 0 1-9.677 1.189h1.483a3.132 3.132 0 0 0 3.334 2.316 3.236 3.236 0 0 0 3.4-3.505h.02v-1.727a5.277 5.277 0 0 1-3.672 1.406 5.088 5.088 0 0 1 0-10.17 5.26 5.26 0 0 1 3.673 1.405v-1.062h1.44zm-1.44-3.45v-3.913a4.098 4.098 0 0 0-3.485-1.852 3.81 3.81 0 0 0 0 7.614 4.1 4.1 0 0 0 3.486-1.849zm9.868.085c.295 1.341 1.333 2.148 3.231 2.148 1.585 0 2.663-.677 2.663-1.744 0-.869-.699-1.402-1.69-1.551l-2.219-.384c-1.626-.252-2.894-.977-2.894-2.638 0-1.764 1.563-2.914 3.909-2.914 1.985 0 4.055.87 4.225 3.126h-1.33c-.193-1.275-1.249-1.957-2.895-1.957-1.541 0-2.492.682-2.492 1.639 0 .742.527 1.318 1.921 1.531l1.946.343c1.412.234 2.912.85 2.912 2.723 0 1.915-1.711 3.043-4.097 3.043-2.536 0-4.225-1.128-4.54-3.365zm35.401-7.505h-1.476c-.34-1.771-1.607-2.917-4.016-2.917-2.176 0-3.611 1.064-3.611 2.744 0 1.318 1.035 2.127 2.938 2.465l2.176.428c2.557.49 3.99 1.702 3.99 3.764 0 2.636-2.133 4.386-5.344 4.386-3.442 0-5.638-1.811-5.977-4.938h1.48c.357 2.257 1.921 3.573 4.56 3.573 2.303 0 3.763-1.126 3.763-2.85 0-1.213-.846-2.126-2.705-2.471l-2.495-.486c-2.635-.488-3.97-1.828-3.97-3.787 0-2.489 2.048-4.146 5.092-4.146 2.916 0 5.239 1.382 5.595 4.234zm16.923 5.633a5.186 5.186 0 1 1-5.177-5.17 5.13 5.13 0 0 1 5.177 5.17zm-1.437 0a3.74 3.74 0 1 0-7.479 0 3.744 3.744 0 1 0 7.48 0zm8.598-10.187h1.435V79.91h-1.435zm17.974 15.104h-1.435v-1.151a4.989 4.989 0 0 1-3.59 1.47c-2.45 0-4.16-1.703-4.16-4.468v-5.679h1.435v5.594c0 2.063 1.204 3.233 2.976 3.233a4.219 4.219 0 0 0 3.34-1.83v-6.997h1.434zm14.176-.023a7.129 7.129 0 0 1-2.112.343c-2.24 0-3.38-1.3-3.38-3.853v-5.041h-2.6v-1.254h2.6v-3.639h1.435v3.639h3.697v1.254h-3.697v5.041c0 1.788.7 2.51 2.174 2.51a6.315 6.315 0 0 0 1.65-.258zm6.97-13.527a1.004 1.004 0 1 1 .992.975.962.962 0 0 1-.992-.976zm.276 3.722h1.437v9.827h-1.437zm19.221 4.911a5.187 5.187 0 1 1-5.175-5.17 5.13 5.13 0 0 1 5.175 5.17zm-1.436 0a3.74 3.74 0 1 0-7.478 0 3.743 3.743 0 1 0 7.478 0zm17.701-.742v5.658h-1.436v-5.597a2.878 2.878 0 0 0-2.979-3.208 4.214 4.214 0 0 0-3.357 1.828v6.977h-1.44v-9.827h1.44v1.17a4.951 4.951 0 0 1 3.61-1.49c2.454 0 4.162 1.723 4.162 4.489zm7.923 2.614c.295 1.341 1.333 2.148 3.232 2.148 1.586 0 2.662-.677 2.662-1.744 0-.869-.699-1.402-1.69-1.551l-2.22-.384c-1.625-.252-2.891-.977-2.891-2.638 0-1.764 1.561-2.914 3.906-2.914 1.986 0 4.056.87 4.223 3.126h-1.328c-.193-1.275-1.249-1.957-2.895-1.957-1.541 0-2.494.682-2.494 1.639 0 .742.53 1.318 1.924 1.531l1.942.343c1.415.234 2.916.85 2.916 2.723 0 1.915-1.709 3.043-4.098 3.043-2.535 0-4.225-1.128-4.539-3.365z" class="cls-1"/><path id="title" d="M172.691 48.529h-11.833V24.477L150.28 40.911v.072h-6.583v-.072l-10.648-16.574.07 24.192h-11.834V.564h8.754l16.948 25.606L163.868.564h8.823v47.965zm24.629-8.109l-3.154 8.253h-12.607L201.8.425h11.277l20.171 48.248h-12.535l-3.224-8.252zm10.085-26.099l-6.165 15.942h12.33zM242.003.564h11.836v47.965h-11.836zm68.694 47.965h-9.176l-22.833-26.306v26.306h-11.839V.564h9.037l22.973 27.018V.564h11.838v47.965zm24.028-27.295h20.449v10.368h-20.449v16.927h-11.84V.564h35.511v10.515h-23.671v10.155zm68.189 27.295h-35.371V.564h11.838v37.459h23.533v10.506zm50.706-22.886c0 14.884-8.546 23.42-22.204 23.42-13.59 0-22.13-8.536-22.13-23.42V.037h11.904v25.817c0 7.336 3.993 12.06 10.226 12.06 6.235 0 10.296-4.724 10.296-12.06V.037h11.908zm32.725 8.147l-10.293 14.739h-13.591l15.9-23.627L462.675.564h14.215l9.388 14.814 9.38-14.814h14.222l-15.691 24.338 15.97 23.627h-13.588L486.345 33.79z" class="cls-1"/><g id="M"><path d="M95.097.037H82.716l17.409 32.332V10.781L95.097.037zM44.484 79.821h12.381l18.204-36.848-6.193-12.525-24.392 49.373zm-8.07-42.936L18.195.037H5.813l24.211 49.7 6.39-12.852z" class="cls-1"/><path fill="#00a9e8" d="M30.024 49.737L5.813.037h-5.89V18.43L23.19 63.654l6.834-13.917zM82.716.037H68.939l-.05.105 31.236 61.286V32.369L82.716.037zM61.727 15.992L30.164 79.821h14.32l24.392-49.373-7.149-14.456z"/><path fill="#29c2e3" d="M68.889.142l-.053-.105H54.619L23.19 63.654-.077 18.43v29.059l16.464 32.332h13.777l31.563-63.829L93.29 79.821h6.835V61.428L68.889.142z"/></g></svg>