<svg xmlns="http://www.w3.org/2000/svg" role="img" viewBox="-6.70 99.81 413.14 45.14"><title>Marvell Technology logo</title><style>svg {enable-background:new 0 0 400 245}</style><style>.st0{fill:#da291c}</style><path d="M392.28 107.92h-.03c-3.59 0-6.53 2.94-6.53 6.53a6.53 6.53 0 0 0 6.53 6.55c3.63 0 6.51-2.9 6.51-6.55-.01-3.59-2.89-6.53-6.48-6.53zm-.03 11.79c-2.75 0-4.96-2.3-4.96-5.23 0-2.9 2.21-5.26 4.94-5.26h.02c2.76 0 5 2.36 5 5.26 0 2.93-2.25 5.26-5 5.23z" class="st0"/><path d="M393.63 114.69v-.06c.79-.2 1.4-.81 1.4-1.69 0-.75-.23-1.24-.64-1.56-.48-.38-1.24-.59-2.49-.59-1.1 0-1.74.12-2.32.21v7.26h1.53v-2.99h.7c.79 0 1.25.32 1.37 1.1.14.99.25 1.63.44 1.89h1.59c-.12-.23-.26-.67-.41-1.8-.11-1.08-.52-1.65-1.17-1.77zm-1.79-.62h-.73v-2.09c.2-.02.47-.02.85-.02 1.04 0 1.47.46 1.47 1.07 0 .76-.69 1.04-1.59 1.04zM1.25 107.92h9.72l6.71 19.02h.09l6.75-19.02h9.68v29.16h-6.42v-22.36h-.09l-7.66 22.36h-4.9l-7.37-22.36h-.09v22.36H1.25v-29.16zm85.57 17.55H79.7l3.54-9.07 3.58 9.07zm-18.65 11.61h7.08l2.43-6.18h11.33l2.51 6.18h7.25l-12.68-29.16h-5.31l-12.61 29.16zm70.99-23.72h4.2c2.35 0 4.99.45 4.99 3.38 0 3.17-3.05 3.25-5.4 3.25h-3.79v-6.63zm-6.42 23.72h6.42v-11.65h3.18l6.09 11.65h7.7l-7.41-12.31c4.12-.75 6.3-3.91 6.3-7.99 0-6.8-5.02-8.86-10.99-8.86h-11.28v29.16zm57.37-29.16h7.33l7.2 19.11h.08l7.33-19.11h6.88l-12.02 29.16h-5.15l-11.65-29.16zm62.79 0h19.8v5.93h-13.37v5.44h12.64v5.93h-12.64v5.93h14.12v5.93H252.9v-29.16zm54.52 0h6.42v23.22h11.9v5.93h-18.32v-29.15zm52.3 0h6.42v23.22h11.91v5.93h-18.33v-29.15z" class="st0"/></svg>