<svg xmlns="http://www.w3.org/2000/svg" role="img" viewBox="-20.06 -20.06 1043.12 327.12"><title>Marvell International Ltd (member) logo</title><style>svg {enable-background:new 0 0 1003.6 288}</style><path fill="#212322" d="M425.9 98.4l-33.7 53.9-33.3-53.9H344v91h14.9v-58.6c0-1.1 0-2.2-.1-3.3-.1-1.1-.2-2.2-.3-3.5.7 1.9 1.8 3.9 3.1 6l24.2 38.9h12l24-38.9c.6-1 1.2-1.9 1.9-2.9s1.3-2 1.9-3.1c-.1 1.2-.2 2.4-.3 3.5-.1 1.1-.1 2.2-.1 3.3v58.6h14.7v-91h-14zm45.9 91l29.3-71.5c.2-.7.5-1.5.8-2.3.3-.8.6-1.7.8-2.8.2 1.1.5 2 .8 2.8.3.8.6 1.5.8 2.3l16 38.9H486l8.9 13.3h30.8l8 19.3h15.7l-38.4-91h-16l-38.4 91h15.2zm229.3 0l36.9-91h-16L696 167c-.9 2.3-1.7 5-2.5 8-.9-3-1.7-5.7-2.5-8l-26-68.6h-16.7l36.9 91h15.9zm141-91v91h59.3v-13.5H857V98.4h-14.9zm77.4 0v91h59.9v-13.5h-45V98.4h-14.9zm-149.6 13.5h47.7V98.4h-62.4v91h63.3v-13.5h-48.6v-64zm-132.7 13.8c0-8.5-2.6-15.2-7.9-20-5.3-4.8-14.1-7.3-26.5-7.3h-37.1v91h14.9v-77.5h22.7c12.3 0 18.4 5 18.4 15.1 0 10.8-6.6 16.2-19.8 16.2h-12l-8.6 13.1h20.2l25.1 33.1h18L617.2 153c13.3-4.8 20-13.9 20-27.3zm174 11.3h-40.4l9.1 13.5h31.3V137zm-699.3-25.9l30.1 30.8c.7.7 1.4 1.1 2 1.1.6 0 1.3-.4 2-1.1l30.1-30.8c.7-.7 1.1-1.4 1.1-2 0-1-.5-1.5-1.6-1.5h-63.1c-1.1 0-1.6.5-1.6 1.5-.1.6.3 1.3 1 2zM288 1.6c0-1.1-.5-1.6-1.5-1.6-.6 0-1.2.3-1.8.9l-24.7 25v235.9l24.7 25.2c.6.6 1.2.9 1.8.9 1 0 1.5-.5 1.5-1.6V1.6zM0 286.4c0 1.1.5 1.6 1.5 1.6.6 0 1.2-.3 1.8-.9L28 261.9v-236L3.3.9C2.7.3 2.1 0 1.5 0 .5 0 0 .5 0 1.6v284.8zM64.2 62.8h159.7L246.3 40c.6-.6.9-1.2.9-1.8 0-1-.5-1.4-1.6-1.4H42.4c-1.1 0-1.6.5-1.6 1.4 0 .6.3 1.2.9 1.8l22.5 22.8zM41.7 248c-.6.6-.9 1.2-.9 1.8 0 1 .5 1.4 1.6 1.4h203.1c1.1 0 1.6-.5 1.6-1.4 0-.6-.3-1.2-.9-1.8l-22.4-22.8H64.2L41.7 248zm170.1-35c.6.6 1.2.9 1.8.9 1 0 1.5-.5 1.5-1.6V75.7c0-1.1-.5-1.6-1.5-1.6-.6 0-1.2.3-1.8.9l-23.4 23.8v90.5l23.4 23.7zM99.6 189.3V98.8L76.2 75c-.6-.6-1.2-.9-1.8-.9-1 0-1.5.5-1.5 1.6v136.6c0 1.1.5 1.6 1.5 1.6.6 0 1.2-.3 1.8-.9l23.4-23.7zm879.1-90.9v1.7h4.2v9.8h1.9v-9.8h4.2v-1.7h-10.3zm23.1 0l-4.3 6.8-4.2-6.8h-1.9v11.5h1.9v-7.4-.4-.4c.1.2.2.5.4.8l3.1 4.9h1.5l3-4.9c.1-.1.2-.2.2-.4.1-.1.2-.3.2-.4V109.9h1.9V98.4h-1.8z"/></svg>