<svg xmlns="http://www.w3.org/2000/svg" role="img" viewBox="-5.71 -5.71 296.92 52.92"><title>MobiledgeX, Inc. (member) logo</title><path fill="#080c01" d="M81.82 20.74c0 6.92-5 12-11.75 12s-11.69-5-11.69-11.95 5-11.9 11.69-11.9a11.47 11.47 0 0 1 11.75284 11.18q.00836.335-.00284.67zm-5.43 0c0-4.66-3-7.06-6.32-7.06s-6.31 2.4-6.31 7.06 3 7.15 6.31 7.15 6.32-2.44 6.32-7.15zM85 32.16V.09h5.31v12.26c1-1.76 3.62-3.39 7.1-3.39 6.78 0 10.45 5.15 10.45 11.79 0 6.82-4 12-10.63 12a7.8 7.8 0 0 1-7-3.62l-3 3zm11.33-18.43c-3.44 0-6.08 2.55-6.08 7.06s2.64 7.14 6.08 7.14 6.08-2.69 6.08-7.14-2.51-7.06-6.08-7.06zm15.24-4.24v22.68h5.34V9.49zm9.6 22.68V.09h5.38v32.08zM172.59 0v12.2c-.7-1.43-2.69-3.2-6.59-3.2-6.36 0-10.77 5.34-10.77 11.84 0 6.82 4.33 12 10.82 12a7.54 7.54 0 0 0 6.68-3.52l2.93 2.92h2.22V0zm-5.94 28c-3.67 0-6.08-2.87-6.08-7.19s2.6-7 6.13-7 5.94 2.69 5.94 7-2.46 7.19-5.99 7.19zM21.66.09h7.05l9.78 17.75L48.18.09h7.06v32.08h-5.67v-23l-10 18.52h-2.29l-10-18.52v23h-5.62zm95.21 0h-5.29v5.28h5.29zm83.9 9.41l-2.63 2.64c-.7-1.44-2.7-3.24-6.63-3.24a10.23 10.23 0 0 0-5.23 1.39 10.87 10.87 0 0 0-5.51 9.57v.87c0 6.83 4.36 12 10.86 12a7.65 7.65 0 0 0 6.15-2.81v.26c0 4.56-2.11 6.74-6.33 6.77h-.07a9.56 9.56 0 0 1-6.29-2.17c-.4-.34-.53-.49-.62-.57l-3.37 3.36c.23.23.36.36.61.59a13.78 13.78 0 0 0 9.74 3.48h.07c8.49 0 11.6-5.62 11.6-11.65V9.49zm-8.57 18.42c-3.66 0-6.08-2.88-6.08-7.2 0-3.76 2-6.32 4.82-6.92a9.41063 9.41063 0 0 1 1.15-.08 6.54 6.54 0 0 1 3.45 1c1.55 1.16 2.44 3.24 2.44 6 .02 4.28-2.25 7.2-5.78 7.2zm-47-.53a7.99994 7.99994 0 0 1-3.27.68 6.2 6.2 0 0 1-4.14-1.42 6.84 6.84 0 0 1-2.22-3.91H152a15.15592 15.15592 0 0 0 .15-1.71c0-3.84-.89-6.65-2.68-8.77a10.18 10.18 0 0 0-8.11-3.37 11.47 11.47 0 0 0-5.87 1.5 10.59006 10.59006 0 0 0-4 4.22 13.00008 13.00008 0 0 0-1.49 6.21 13.1 13.1 0 0 0 1.45 6.18 10.14 10.14 0 0 0 4 4.17 11.83 11.83 0 0 0 6 1.49 13.10992 13.10992 0 0 0 5.31-1 12 12 0 0 0 4.15-3l-3.09-3.09a7.99989 7.99989 0 0 1-2.62 1.82zm-7.78-12.58a5.55 5.55 0 0 1 4-1.51 5.27 5.27 0 0 1 4 1.56 5.7 5.7 0 0 1 1.55 4.08h-11.44a6.06 6.06 0 0 1 1.89-4.13zm83.75 12.58a8 8 0 0 1-3.26.68 6.18 6.18 0 0 1-4.14-1.42 6.8 6.8 0 0 1-2.23-3.91H228a15.15592 15.15592 0 0 0 .15-1.71c0-3.84-.9-6.65-2.68-8.77a10.21 10.21 0 0 0-8.12-3.37 11.43 11.43 0 0 0-5.86 1.5 10.44991 10.44991 0 0 0-4 4.22 13.04994 13.04994 0 0 0-1.49 6.21 13.1 13.1 0 0 0 1.42 6.18 10.22 10.22 0 0 0 4 4.17 11.77993 11.77993 0 0 0 6 1.49 13.00009 13.00009 0 0 0 5.3-1 11.99991 11.99991 0 0 0 4.16-3l-3.1-3.09a7.86984 7.86984 0 0 1-2.61 1.82zm-7.78-12.58a5.55 5.55 0 0 1 4-1.51 5.29 5.29 0 0 1 4 1.56 5.69 5.69 0 0 1 1.54 4.08h-11.42a6.09 6.09 0 0 1 1.88-4.13z"/><path fill="#93e019" d="M263.9 28.39v3.8h-3.81l-9.66-9.66 3.8-3.81zM18 3.86V.09h-3.86L0 14.22V18l14.14 14.17H18V28.4L5.71 16.13zm261.84 12.26L267.57 28.4v3.77h3.84L285.55 18v-3.78L271.41.08h-3.84v3.77zM235.58.08h-3.84v3.77l9.67 9.68 3.81-3.81zm28.32 3.77V.08h-3.84L231.74 28.4v3.77h3.84z"/></svg>