<svg xmlns="http://www.w3.org/2000/svg" role="img" viewBox="-12.70 -12.20 816.40 139.90"><title>Mocana logo</title><defs><style>.cls-1{fill:#0076ad}.cls-2{fill:#43b649}</style></defs><path d="M3.367 11.053a5.934 5.934 0 0 1 5.827-5.83h1.348a6.482 6.482 0 0 1 5.535 3.139l37.387 56.23 37.38-56.23a6.36 6.36 0 0 1 5.535-3.14h1.347a5.94 5.94 0 0 1 5.834 5.831v94.064a5.972 5.972 0 0 1-5.834 5.98 6.095 6.095 0 0 1-5.98-5.98V27.055l-33.497 49.2c-1.347 1.945-2.847 2.99-4.938 2.99a6.023 6.023 0 0 1-5.084-2.99l-33.345-49.05v78.061a5.758 5.758 0 1 1-11.515 0zM279.8 58.31v-.3c0-29.608 22.135-54.132 52.938-54.132 16.898 0 27.663 5.532 37.387 13.606a6.485 6.485 0 0 1 2.396 4.786 6.079 6.079 0 0 1-5.987 5.834 7.086 7.086 0 0 1-3.89-1.348c-8.07-7.178-17.196-11.963-30.052-11.963-23.183 0-40.526 18.843-40.526 42.919v.298c0 24.226 17.495 43.218 40.526 43.218 13.009 0 22.128-4.487 31.101-12.71a5.418 5.418 0 0 1 3.737-1.646 5.886 5.886 0 0 1 5.688 5.684 5.597 5.597 0 0 1-1.945 4.185c-10.32 9.421-21.683 15.405-38.88 15.405-30.212 0-52.492-23.778-52.492-53.837zm379.962 44.265L702.233 9.71c1.493-3.289 3.737-5.233 7.473-5.233h.598c3.59 0 5.986 1.944 7.327 5.233l42.47 92.717a7.936 7.936 0 0 1 .75 2.99 5.68 5.68 0 0 1-5.68 5.681c-2.841 0-4.786-1.941-5.835-4.337l-10.918-24.076h-57.424l-10.918 24.378a5.91 5.91 0 0 1-5.681 4.035 5.363 5.363 0 0 1-5.383-5.383 6.818 6.818 0 0 1 .75-3.139zm74.024-30.657l-24.08-53.534-24.072 53.534zM536.083 11.027A5.932 5.932 0 0 1 541.91 5.2h1.646c2.695 0 4.341 1.347 5.98 3.438l63.557 81.052V32.15a5.758 5.758 0 1 1 11.515 0v73.09a5.308 5.308 0 0 1-5.382 5.536h-.598c-2.542 0-4.34-1.494-6.132-3.591l-64.904-82.997v59.919a5.755 5.755 0 1 1-11.509 0zM400.33 102.575L442.8 9.71c1.494-3.289 3.737-5.233 7.474-5.233h.597c3.591 0 5.987 1.944 7.328 5.233l42.47 92.717a7.936 7.936 0 0 1 .75 2.99 5.68 5.68 0 0 1-5.68 5.681c-2.842 0-4.786-1.941-5.835-4.337l-10.918-24.076h-57.424l-10.918 24.378a5.91 5.91 0 0 1-5.681 4.035 5.363 5.363 0 0 1-5.383-5.383 6.818 6.818 0 0 1 .75-3.139zm74.023-30.657l-24.079-53.534-24.073 53.534zm-280.488 40.246A54.122 54.122 0 0 1 171.702 8.67a5.366 5.366 0 0 1 4.399 9.79 43.383 43.383 0 1 0 35.225-.137 5.366 5.366 0 0 1 4.323-9.823 54.123 54.123 0 0 1-21.784 103.664z" class="cls-1"/><circle cx="193.701" cy="10.6" r="6.721" class="cls-2"/><circle cx="541.699" cy="105.443" r="6.721" class="cls-2"/><circle cx="619.014" cy="10.6" r="6.721" class="cls-2"/><path d="M775.1 104.529v-.037a6.567 6.567 0 1 1 13.135-.039v.039a6.567 6.567 0 1 1-13.135.037zm12.38-.037v-.039a5.812 5.812 0 1 0-11.624.039v.037a5.812 5.812 0 1 0 11.624-.037zm-8.266-2.906a.516.516 0 0 1 .53-.528h2.415c1.358 0 2.454.716 2.454 2.037a2.099 2.099 0 0 1-1.587 2.038l1.436 1.699a.651.651 0 0 1 .188.453.475.475 0 0 1-.49.49.649.649 0 0 1-.53-.302l-1.849-2.226h-1.509v2a.529.529 0 1 1-1.058 0zm2.832 2.792c.944 0 1.47-.49 1.47-1.207 0-.792-.565-1.17-1.47-1.17h-1.774v2.377z" class="cls-1"/></svg>