<svg xmlns="http://www.w3.org/2000/svg" role="img" viewBox="-4.93 -2.93 620.36 100.36"><path d="M66.155 85.824l-48.56-59.315v58.06H7.272V9.121c3.148 0 6.322-.074 9.487.064.617.026 1.304.788 1.783 1.358Q36.692 32.208 54.8 53.907c.242.289.507.559 1.006 1.106V9.277h10.348zm198.907.048c-19.842 0-34.459-14.911-34.45-35.156a34.064 34.064 0 0 1 35.007-34.458c19.224.258 33.772 15.344 33.753 35.515a33.823 33.823 0 0 1-34.31 34.1zm-24.12-34.8c-.045 16.12 12.39 27.067 28.19 24.817 11.41-1.625 19.514-11.466 19.897-24.164.49-16.27-12.183-27.71-28.179-25.431-11.59 1.65-19.873 11.96-19.909 24.777zm194.445 33.601V17.511h22.73c15.574 0 28.308 9.94 32.165 25.107 4.438 17.448-5.117 35.446-21.702 40.539a35.495 35.495 0 0 1-9.407 1.45c-7.85.202-15.708.066-23.786.066zm9.8-9.59c4.67 0 9.186.053 13.7-.017a21.675 21.675 0 0 0 10.811-3.112c8.423-4.975 12.895-15.196 10.97-25.296-1.92-10.07-7.54-17.18-17.747-19.26-5.702-1.162-11.74-.676-17.734-.937zm92.687-14.396c8.894 5.753 11.452 14.049 10.912 23.88h-9.823c-.078-1.47-.067-2.982-.252-4.47-1.049-8.439-6.644-14.04-15.212-14.83-3.888-.357-7.835-.06-12.034-.06v19.366h-9.656V17.598c.601-.03 1.181-.09 1.76-.082 8.254.122 16.58-.396 24.745.522a23.35 23.35 0 0 1 18.902 31.986 22.75 22.75 0 0 1-9.342 10.663zM511.636 26.8v29.407c4.558 0 8.966.27 13.328-.06a14.679 14.679 0 0 0 13.672-14.59c.137-7.603-5.034-13.878-12.71-14.668-4.672-.482-9.434-.09-14.29-.09zm-142.554-9.287c2.792 0 5.454-.095 8.1.064a3.47 3.47 0 0 1 1.987 1.354q15.796 18.944 31.531 37.94c.339.408.694.803 1.33 1.536V17.621h9.124v68.161l-43.012-52.876v51.67h-9.06zM220.56 41.619v10.186h-29.895v32.764h-10.883V9.226h41.594V19.47h-30.593v22.15zm89.314-24.057h9.582c.037.802.102 1.566.102 2.33l.02 41.573a23.414 23.414 0 0 0 .372 4.765c1.421 6.726 6.866 10.562 14.173 10.111 6.481-.4 11.38-5.33 11.95-12.05.08-.928.075-1.864.075-2.796q.007-20.786.003-41.573v-2.287h9.793v2.64q-.001 21.585-.005 43.171c-.009 12.945-9.51 22.355-22.525 22.444-6.591.045-12.494-1.626-17.314-6.327a20.26 20.26 0 0 1-6.272-14.684c-.16-15.454-.055-30.912-.051-46.369 0-.255.05-.51.097-.948zm-228.652.028h36.983v9.132h-27.13v18.344h26.263v8.953H91.034v20.96h27.803v9.57H81.222zm495.754 28.823c4.633-9.275 9.118-18.188 13.522-27.141a2.617 2.617 0 0 1 2.835-1.804c2.97.144 5.953.042 9.27.042-1.845 3.474-3.544 6.682-5.252 9.886-4.849 9.097-9.734 18.176-14.513 27.31a9.056 9.056 0 0 0-.966 3.96c-.088 7.859-.043 15.72-.043 23.58v2.297h-9.793v-2.022c0-7.86.058-15.722-.05-23.581a10.335 10.335 0 0 0-1.12-4.501c-6.149-11.72-12.407-23.382-18.63-35.064-.274-.514-.514-1.047-.91-1.86 3.604 0 6.968-.069 10.323.068.54.022 1.222.868 1.535 1.486 4.203 8.311 8.35 16.651 12.517 24.981.351.702.745 1.384 1.275 2.363zm-450.93-28.817h42.938v9.017h-16.457v57.93h-9.746V26.761h-16.735zM603.93 84.445c-.957.082-.957.082-2.745-5.386l-2.653 5.441-2.682-5.215c-1.359 1.588.004 4.322-2.056 5.464l-.711-.244 1.762-9.895.371-.148 3.27 6.983 3.517-7.441 1.927 10.44zm-12.062-9.35l-2.635.924v8.514l-.64.285c-.297-.48-.833-.951-.85-1.44-.087-2.498-.04-5-.04-7.41l-2.636-.761.138-.701h6.303z"/><path fill="#fff" d="M240.941 51.071c.036-12.817 8.32-23.127 19.91-24.777 15.995-2.278 28.669 9.16 28.178 25.431-.383 12.698-8.486 22.54-19.897 24.164-15.8 2.25-28.235-8.697-28.19-24.818zm204.246 24.011V26.461c5.994.26 12.032-.225 17.734.937 10.207 2.08 15.828 9.19 17.747 19.26 1.925 10.1-2.547 20.321-10.97 25.296a21.675 21.675 0 0 1-10.81 3.112c-4.515.07-9.032.016-13.701.016zM511.636 26.8c4.856 0 9.618-.393 14.29.089 7.676.79 12.847 7.065 12.71 14.668a14.679 14.679 0 0 1-13.672 14.59c-4.362.33-8.77.06-13.328.06z"/></svg>