<svg xmlns="http://www.w3.org/2000/svg" role="img" viewBox="-2.73 -2.73 141.83 141.83"><title>NetFoundry logo</title><style>svg {enable-background:new 0 0 136.3 136.3}</style><linearGradient id="a" x1="11.525" x2="128.975" y1="11.525" y2="128.975" gradientUnits="userSpaceOnUse"><stop offset="0" stop-color="#026cff"/><stop offset="1" stop-color="#0545b8"/></linearGradient><circle cx="68.2" cy="68.2" r="68.2" fill="url(#a)"/><path fill="#fff" d="M17.4 38.1l-.1 59.2 51.6 29.8 51.6-29.8V38.1L68.8 8.3z" opacity=".26"/><path fill="#c1ced3" d="M94.3 52.9L68.7 67.6 43.5 52.9V23L68.7 8.3 94.2 23l.1 29.9-25.6 14.7"/><path fill="#9bf315" d="M95.2 111.9l25.3-14.6V67.5L94.3 52.8 68.7 67.5l.2 29.4"/><path fill="#01b5ff" d="M68.7 67.5L43.5 52.8 17.3 67.5v29.8l26.2 15.1 25.4-15.5"/><path fill="#fff" d="M43.5 52.8l25.2 14.7.2 29.4-25.4-14.7z" opacity=".35"/><path fill="#fff" d="M94.3 52.8v29.4L68.9 96.9l-.2-29.4z" opacity=".45"/><path fill="#fff" d="M68.9 38.2L43.5 52.8l25.2 14.7 25.6-14.7z" opacity=".8"/><path fill="#fff" d="M17.3 38L68.7 8.4l51.8 29.7-51.8 29.4z" opacity=".07"/><path fill="#fff" d="M17.3 97.3l51.6 29.8-.1-59.6L17.3 38z" opacity=".1"/></svg>