<svg xmlns="http://www.w3.org/2000/svg" role="img" viewBox="-5.91 94.84 411.58 55.08"><title>Netronome Systems logo</title><style>svg {enable-background:new 0 0 400 245}</style><path fill="#003da6" d="M32.81 142.24h3.79c1.21 0 2.19-.98 2.19-2.19v-30.71H34.4c-1.21 0-2.19.98-2.19 2.19v20.26L8.64 109.34H4.25c-1.21 0-2.19.98-2.19 2.19v30.71h4.39c1.21 0 2.19-.98 2.19-2.19v-20.33l24.13 22.48.04.04zm47.66-28.51v-4.39H49.76c-1.21 0-2.19.98-2.19 2.19v28.51c0 1.21.98 2.19 2.19 2.19h30.71v-4.39c0-1.21-.98-2.19-2.19-2.19H54.15v-6.58H71.7c1.21 0 2.19-.98 2.19-2.19v-2.18c0-1.21-.98-2.19-2.19-2.19H54.15v-6.58h24.13a2.21 2.21 0 0 0 2.19-2.2zm28.51-4.39H87.05v4.39c0 1.21.98 2.19 2.19 2.19h13.16v24.13c0 1.21.98 2.19 2.19 2.19h2.19c1.21 0 2.19-.98 2.19-2.19v-24.13h13.16c1.21 0 2.19-.98 2.19-2.19v-4.39h-15.34zm242.91 32.9h4.39v-30.71c0-1.21-.98-2.19-2.19-2.19h-4.39l-13.16 18.8-13.16-18.8h-4.39c-1.21 0-2.19.98-2.19 2.19v30.71h4.39c1.21 0 2.19-.98 2.19-2.19v-18.17l10.1 14.43c.17.25.56.45.86.45h4.39c.3 0 .69-.2.86-.45l10.1-14.43v18.17c0 1.21.98 2.19 2.2 2.19zm46.05-28.51v-4.39h-30.71c-1.21 0-2.19.98-2.19 2.19v28.51c0 1.21.98 2.19 2.19 2.19h30.71v-4.39c0-1.21-.98-2.19-2.19-2.19h-24.13v-6.58h17.55c1.21 0 2.19-.98 2.19-2.19v-2.18c0-1.21-.98-2.19-2.19-2.19h-17.55v-6.58h24.13c1.21-.01 2.19-.99 2.19-2.2zm-191.36-4.39h-24.13c-4.24 0-7.68 3.44-7.68 7.68v17.55c0 4.24 3.44 7.68 7.68 7.68h24.13c4.24 0 7.68-3.44 7.68-7.68v-17.55c0-4.24-3.44-7.68-7.68-7.68zm-25.22 24.13v-15.35c0-1.21.98-2.19 2.19-2.19h21.93c1.21 0 2.19.98 2.19 2.19v15.35c0 1.21-.98 2.19-2.19 2.19h-21.93a2.19 2.19 0 0 1-2.19-2.19zm120.08-11.34v11.33c0 1.21-.98 2.19-2.19 2.19h-21.93a2.19 2.19 0 0 1-2.19-2.19v-15.35c0-1.21.98-2.19 2.19-2.19h8.77v-6.58h-9.87c-4.24 0-7.68 3.44-7.68 7.68v17.55c0 4.24 3.44 7.68 7.68 7.68h24.13c4.24 0 7.68-3.44 7.68-7.68v-16.2l-6.59 3.76zM166 123.6v-6.58c0-4.24-3.44-7.68-7.68-7.68h-25.23c-1.21 0-2.19.98-2.19 2.19v30.71h4.39c1.21 0 2.19-.98 2.19-2.19v-8.77h13.84l7.18 10.97h6.53c.91 0 1.23-.61.73-1.36l-6.51-9.66c3.81-.48 6.75-3.71 6.75-7.63zm-6.58-1.1c0 1.21-.98 2.19-2.19 2.19h-19.74v-8.77h19.74c1.21 0 2.19.98 2.19 2.19v4.39zm94.36 19.74h3.79c1.21 0 2.19-.98 2.19-2.19v-30.71h-4.39c-1.21 0-2.19.98-2.19 2.19v20.26l-23.58-22.45h-4.39c-1.21 0-2.19.98-2.19 2.19v30.71h4.39c1.21 0 2.19-.98 2.19-2.19v-20.33l24.13 22.48.05.04z"/><path fill="#ffcd00" d="M291.66 122.5c-.2 0-.41-.05-.59-.16-.37-.21-.59-.6-.59-1.02v-17.39a1.189 1.189 0 0 1 1.18-1.18c.21 0 .41.05.59.16l15.18 8.7c.37.21.59.6.59 1.02 0 .42-.23.81-.59 1.02l-15.18 8.69c-.18.11-.39.16-.59.16z"/></svg>