<svg xmlns="http://www.w3.org/2000/svg" role="img" viewBox="-11.90 -15.90 1086.80 229.80"><title>Netsia logo</title><path fill="#404040" d="M715.719 84.103q-16.02-8.165-53.049-16.145-14.961-3.114-18.95-6.732-4.114-3.489-4.114-7.854a12.799 12.799 0 0 1 4.987-10.16q4.986-4.177 14.836-4.177 11.966 0 18.763 5.61 6.793 5.61 8.914 17.953l53.235-3.117q-3.491-28.424-21.88-41.453Q700.071 5 665.04 5q-28.552.001-44.945 7.169-16.396 7.168-24.56 19.697a47.917 47.917 0 0 0-8.166 26.618q-.002 21.443 15.958 35.281 15.832 13.84 52.986 22.191 22.688 4.987 28.924 10.597 6.233 5.61 6.233 12.717 0 7.481-6.545 13.152-6.547 5.673-18.638 5.673-16.21.002-24.935-11.096-5.362-6.857-7.106-19.947l-53.734 3.366q2.369 27.677 20.321 45.63Q618.784 194 665.413 194q26.553 0 44.01-7.667 17.454-7.665 27.178-22.503a57.943 57.943 0 0 0 9.725-32.414 51.364 51.364 0 0 0-7.294-27.054q-7.295-12.092-23.313-20.259zM393.14 53.247h57.599v137.636h56.476V53.247h57.599V8.117H393.14v45.13zm-262.312 55.985L62.009 8.117H9.272v182.766h53.111V90.532l68.445 100.351h53.236V8.117h-53.236v101.115zm147.234 4.231h87.895V76.187h-87.895V47.139h94.752V8.117H221.461v182.766h154.096v-41.39h-97.495v-36.03zM777 8.117h56.601v182.766H777zm209.098 0h-61.604l-68.695 182.766h57.665l8.908-30.17h64.12l9.143 30.17h59.142zm-51.46 113.076l19.964-65.702 20.174 65.702z"/></svg>