<svg xmlns="http://www.w3.org/2000/svg" role="img" viewBox="-1.01 -2.76 312.52 61.02"><path fill="#006cb7" d="M19.706 51.799H5.236V4.252H30.27l28.705 35.507V4.252h14.467v47.547H48.926l-29.22-36.096v36.096zm103.009-11.443c3.301 0 4.465-.189 5.258-.883.742-.65 1.069-1.49 1.069-4.281V20.676c0-2.793-.327-3.628-1.069-4.282-.793-.696-1.957-.876-5.258-.876H99.213c-3.3 0-4.459.18-5.25.876-.746.654-1.066 1.49-1.066 4.282v14.516c0 2.792.32 3.632 1.066 4.281.791.694 1.95.883 5.25.883zm19.961-3.25c0 6.6-1.21 8.887-3.205 11.07-3.078 3.255-7.543 4.232-16.152 4.232H98.616c-8.61 0-13.076-.977-16.147-4.232-2.002-2.183-3.21-4.47-3.21-11.07v-18.33c0-6.61 1.208-8.896 3.21-11.083 3.07-3.255 7.537-4.228 16.147-4.228h24.703c8.61 0 13.074.973 16.152 4.228 1.994 2.187 3.205 4.474 3.205 11.083zm46.567-32.854h19.955l-26.934 22.243 30.387 25.31h-21.363L163.708 27zm-25.535 47.553H148.59V4.252h15.118zm51.738-47.553h15.125v47.553h-15.125zm44.287 28.936h18.797l-9.403-17.209zm28.48 18.611l-4.472-8.28h-29.26l-4.424 8.28h-16.705l26.799-47.547h18.8L305.755 51.8z"/></svg>