<svg xmlns="http://www.w3.org/2000/svg" role="img" viewBox="-7.61 -7.61 395.72 176.22"><title>NS1 logo</title><defs><style>.cls-1{fill:#221f1f;stroke:#231f20;stroke-miterlimit:10;stroke-width:.25px}</style></defs><g id="_Group_" data-name="Group"><path id="_Compound_Path_" d="M40.244 162.61c1.569 15.628 2.228 27.678 2.228 54.695v59.151H9.884V119.95H50.74l31.945 61.63c7.844 14.96 16.293 32.368 22.099 47.995h.894c-1.812-21.872-1.812-43.524-1.812-60.045v-49.58h32.368v156.506H96.28l-34.384-66.078a440.079 440.079 0 0 1-20.758-47.775z" class="cls-1" data-name="Compound Path" transform="translate(-9.759 -119.825)"/><path id="_Compound_Path_2" d="M231.66 236.95c0-24.783-72.103-21.433-72.103-70.77 0-25.888 22.75-46.206 55.142-46.206 26.123 0 42.417 12.057 47.548 18.75l-21.182 25.228c-3.789-4.707-12.724-14.513-29.245-14.513-11.164 0-17.416 6.276-17.416 14.066 0 25.23 71.883 21.432 71.883 71.216 0 23.44-19.424 46.207-59.159 46.207-30.14 0-48.89-13.4-54.247-19.424l19.424-28.132c6.7 6.7 20.31 18.75 39.287 18.75 13.587.007 20.067-6.912 20.067-15.173z" class="cls-1" data-name="Compound Path 2" transform="translate(-9.759 -119.825)"/><path id="_Compound_Path_3" d="M291.641 168.094l-13.195-26.46 29.85-20.664h32.996v155.784h-32.776v-80.59l1.122-40.049" class="cls-1" data-name="Compound Path 3" transform="translate(-9.759 -119.825)"/></g><path id="_Compound_Path_4" fill="#ed1370" stroke="#231f20" stroke-miterlimit="10" stroke-width=".25" d="M361.72 120.685c10.67 0 18.718 8.05 18.718 18.907 0 9.924-8.049 17.972-18.718 17.972a18.043 18.043 0 0 1-18.145-17.94v-.032c0-10.858 8.033-18.907 18.145-18.907z" data-name="Compound Path 4"/></svg>