<svg xmlns="http://www.w3.org/2000/svg" role="img" viewBox="-27.06 -16.06 1875.12 713.12"><title>NTT Group logo</title><path fill="#0b3bda" d="M694.947 316.375c.855 77.6-21.501 147.69-68.485 209.593-36.111 47.577-81.95 82.994-136.636 106.902a332.554 332.554 0 0 1-120.833 28.168c-97.16 3.869-181.815-27.127-253.166-93.014-53.812-49.69-87.221-111.243-101.032-183.153-7.159-37.272-7.488-74.879-2.115-112.445 8.282-57.902 29.348-110.537 66.363-156.17 38.865-47.912 87.616-80.445 148.852-92.24 40.795-7.857 80.849-4.018 120.008 9.804a12.363 12.363 0 0 0 7.52.255c80.915-27.524 155.583-14.868 223.05 36.678 58.577 44.754 92.548 105.46 108.5 176.783a340.399 340.399 0 0 1 7.974 68.84zM438.669 102.082c1.488 1.848 2.2 2.703 2.88 3.58 8.448 10.912 17.922 21.19 25.146 32.859 22.972 37.106 33.675 77.587 27.973 121.216-10.227 78.261-81.492 132.825-160.116 123.422-66.97-8.01-120.606-62.262-125.75-128.964-4.343-56.306 14.335-105.105 52.158-146.767 1.351-1.49 2.637-3.038 4.798-5.534-3.444 0-5.417-.06-7.386.01a115.4 115.4 0 0 0-43.013 10.036c-38.755 17.167-67.333 45.655-88.476 81.706-32.204 54.91-41.153 114.158-29.6 176.367 10.206 54.967 36.118 101.927 77.46 139.51 60.605 55.094 132.204 77.414 213.412 66.792 61.976-8.106 114.573-35.763 156.394-82.058 52.25-57.84 73.475-126.28 64.964-203.793-4.893-44.565-20.711-84.899-48.225-120.378-21.762-28.062-48.355-50.004-82.308-61.903a102.129 102.129 0 0 0-40.311-6.101zm-24.819 131.92c-.417-4.802-.557-9.647-1.297-14.399-5.874-37.748-24.07-68.352-53.955-92.001-6.385-5.053-6.746-4.968-13.261.095-25.169 19.558-41.706 45.006-50.393 75.518-4.842 17.008-6.49 34.288-1.935 51.738 11.86 45.422 65.618 62.404 99.633 31.221 15.146-13.885 21.06-31.905 21.208-52.173z"/><path d="M1132.252 498.494h-6.16c-22.829.001-45.658-.088-68.485.091-3.832.03-5.87-1.09-7.72-4.568q-47.983-90.218-96.259-180.28c-.732-1.37-1.572-2.682-3.094-5.263v122.971h37.397v66.74H833.493v-66.6h37.175V226.19h-37.204v-66.968c1.377-.07 2.956-.22 4.534-.22 35.826-.01 71.652.053 107.478-.086 3.67-.014 5.583 1.136 7.309 4.377q48.121 90.425 96.477 180.725c.675 1.263 1.44 2.478 2.782 4.777V226.007h-37.272v-66.644h154.676v66.366h-37.196zm116.966-66.858h48.904V226.363h-36.068v62.45h-67.624V159.476h298.077v129.357h-67.108v-62.51c-2.003-.145-3.583-.354-5.165-.36-8.833-.032-17.677.242-26.495-.122-4.567-.189-5.5 1.4-5.488 5.686.146 48.832.093 97.666.094 146.499v53.606h49.405v66.443h-188.532zm334.959-142.686h-67.58V159.467h296.362V288.77h-65.47v-62.382h-36.546V431.53h48.88v66.594H1571.39v-66.383h48.91V226.31h-36.123z"/></svg>