<svg xmlns="http://www.w3.org/2000/svg" role="img" viewBox="-5.66 46.09 411.06 152.56"><title>NTT Corporation (member) logo</title><style>svg {enable-background:new 0 0 400 245}</style><style/><path d="M258.71 83.17h-33.3v14.09h8.58v27.8l-23.1-41.89h-24.67v14h8.58V142h-8.58v14h33.31v-14h-8.58v-27.48L234.19 156h15.95V97.17h8.57zm5.41 0v27.75h13.98V97.66h8.69v44.33h-10.31l-.01 14h39.68V142h-10.63V97.66h8.68v13.26h13.99V83.17zm69.48 0v27.75h13.99V97.66h8.67v44.32h-10.32v14.01h39.69v-14.01H375V97.66h8.68v13.26h14V83.17z"/><path fill="#0071bb" d="M138.23 81.53c-12.45-21.81-31.31-27.49-44.7-27.49-6.45 0-12.44.95-18.26 3.27-5.82-2.32-11.82-3.27-18.26-3.27-13.4 0-32.26 5.68-44.7 27.49-15.63 27.38-13.64 63.75 11.24 88.19 12.76 12.53 30.41 21.24 51.72 21.24s38.96-8.71 51.72-21.24c24.89-24.44 26.87-60.81 11.24-88.19zm-68.05-1.75c1.57-1.45 3.32-2.94 5.09-4.06 1.78 1.12 3.52 2.61 5.09 4.06 6.7 7.45 8.37 14.79 8.02 22.01-.4 8.42-7.91 12.25-13.12 12.3-5.21-.05-12.72-3.88-13.12-12.3-.33-7.22 1.33-14.56 8.04-22.01zm5.09 93.92c-30.69 0-55.56-24.88-55.56-55.57 0-11.77 3.59-25.34 12.82-34.8 8.21-8.41 13.49-10.83 23.46-12.07l.31-.04c-12.2 12.16-11.56 31.27-11.56 31.27.64 7.67 3.27 13.94 8.43 19.39 5.73 6.04 13.45 9.65 22.11 9.65 8.67 0 16.38-3.6 22.11-9.65 5.16-5.45 7.8-11.72 8.43-19.39 0 0 .64-19.11-11.56-31.27l.31.04c9.97 1.25 15.25 3.66 23.46 12.07 9.23 9.46 12.81 23.03 12.81 34.8-.01 30.69-24.88 55.57-55.57 55.57z"/></svg>