<svg xmlns="http://www.w3.org/2000/svg" role="img" viewBox="4.02 30.02 622.96 180.96"><title>NuNet (member) logo</title><style>svg {enable-background:new 0 0 630.8 218.6}</style><style>.st0{fill:#00bcaa}.st1{fill:#1178b7}.st2{fill:#03aeea}</style><path d="M36.2 86.9l4.9.5c1.3.1 1.9-.7 1.3-1.9l-2-4.5c-.5-1.2-1.5-1.3-2.3-.2l-2.9 4c-.6 1-.2 1.9 1 2.1z" class="st0"/><path d="M26.4 96.2l20.7 2.1 22.4 9.5c.9.4 1.9.1 2.5-.7 0-.1.1-.1.2-.2.6-.8.5-1.9-.2-2.6L54.7 86.4l-8.1-18.1c-2.5-5.5-7.4-6-11-1.1L21.9 86.1c-3.6 4.9-1.5 9.4 4.5 10.1zm3.4-11l7.1-9.8c1.8-2.5 4.4-2.3 5.7.6l5 11.1c1.3 2.9-.2 5-3.3 4.6l-12.1-1.2c-3.2-.5-4.2-2.8-2.4-5.3zM85 151.3l-1.5-2.6c-.4-.7-1-.7-1.4 0l-1.5 2.6c-.4.7-.1 1.2.7 1.2h3c.7.1 1.1-.5.7-1.2z" class="st0"/><path d="M93 152.8l-6.1-11.1-3.1-14.5c-.1-.6-.6-1-1.2-1h-.2c-.6 0-1.1.4-1.2 1L78.3 142l-6.2 10.4c-1.9 3.2-.4 5.8 3.2 5.9l14.2.2c3.8.1 5.3-2.5 3.5-5.7zm-6.6 2.1l-7.4-.1c-1.9 0-2.7-1.4-1.7-3l3.8-6.3c1-1.6 2.5-1.6 3.5.1l3.6 6.4c.9 1.6.1 3-1.8 2.9z" class="st0"/><path d="M73.2 80c-.1-1.8-1.7-3.1-3.5-3-1.8.1-3.1 1.7-3 3.5.1 1.8 1.7 3.1 3.5 3 1.9-.1 3.2-1.7 3-3.5z" class="st1"/><path d="M78 102.8c.8-.3 1.3-1.1 1.1-1.9l-2.3-11.3C80.5 86.8 82.5 82 81 77c-1.3-4.3-5-7.5-9.4-8-7.5-.9-13.6 5.2-13 12.3.5 6 5.6 10.5 11.5 10.5l5.6 10.2c.5.7 1.4 1.1 2.3.8zM62.9 80.9c-.3-3.9 2.6-7.4 6.6-7.7 3.9-.3 7.4 2.6 7.7 6.6.3 3.9-2.6 7.4-6.6 7.7-3.9.3-7.4-2.7-7.7-6.6z" class="st1"/><path d="M86.6 64.7v.2l-.1.6-.1 1-.1 1.3-.1 1.6-.2 1.8-.2 2-.2 2.2-.2 2.3-.2 2.4-.2 2.4-.2 2.3-.2 2.3-.2 2.2c-.2 2.6-.5 5.1-.8 7.7-.3 2.4-.6 4.7-.6 5.8 0 .8.2.6 1.1.7.3 0-.2.2 0 0 .9-.8.9-1.3 1.8-4.4.7-2.6 1.3-5.5 2-8l.6-2.2.6-2.3.6-2.4.6-2.5.6-2.4.6-2.4.6-2.3.6-2.1.5-1.9.4-1.6.3-1.3.2-1 .1-.5v-.1l4.9-1.6c1.7-.6 3.5-2.5 3.9-4.3l1.4-6.7c.4-1.8-.4-4.3-1.8-5.5l-5.1-4.6c-1.4-1.2-3.9-1.8-5.6-1.2l-6.5 2.1c-1.7.6-3.5 2.5-3.9 4.3l-1.4 6.7c-.4 1.8.4 4.3 1.8 5.5l4.7 3.9zm-1.8-10.9l.4-2.1c.4-1.8 2.1-3.7 3.9-4.3l2.1-.7c1.7-.6 4.3 0 5.7 1.2l1.6 1.4c1.4 1.2 2.2 3.7 1.8 5.5l-.5 2.2c-.4 1.8-2.1 3.7-3.9 4.3l-2 .7c-1.7.6-4.3 0-5.7-1.2l-1.6-1.4c-1.4-1.3-2.2-3.8-1.8-5.6zm62 40.1c-.4-.3-1-.4-1.5-.2l-1.6.6c-.4.2-.9.7-.9 1.1l-.3 1.7c-.1.5.2 1.1.5 1.4l1.3 1.1c.4.3 1 .4 1.5.2l1.6-.6c.4-.2.9-.7.9-1.1l.3-1.7c.1-.5-.2-1.1-.5-1.4l-1.3-1.1z" class="st2"/><path d="M91 57.6c.4.4 1.2.5 1.7.4l1.9-.6c.5-.2 1-.7 1.2-1.3l.4-2c.1-.5-.1-1.3-.5-1.6l-1.5-1.4c-.4-.4-1.2-.5-1.7-.4l-1.9.6c-.5.2-1 .7-1.2 1.3l-.4 2c-.1.5.1 1.3.5 1.6l1.5 1.4zm48.6 104.5c-1.9-2.4-6-4-9-3.5l-7.6 1.2-.3-.3-.8-.8-1.2-1.3-1.6-1.7-1.9-2.1-2.2-2.4-2.4-2.6-2.5-2.7-2.5-2.8-2.6-2.8-2.5-2.7-2.4-2.6-2.2-2.4-2-2.1-1.7-1.8-1.3-1.4c-.5-.6-1.1-1.2-1.6-1.8-.4-.4-.7-.8-1.1-1.2-.5-.5-1.1-1-1.9-1.1h-.1c-.7 0-.9.6-.8 1.2 0 .4.2.8.3 1.1.4.8.8 1.5 1.2 2.3l22.6 39.2-4 10.3c-1.1 2.9-.4 7.2 1.5 9.5l7.2 8.9c1.9 2.4 6 4 9 3.5l11.3-1.8c3-.5 6.4-3.2 7.5-6.1l4.1-10.6c1.1-2.9.4-7.2-1.5-9.6l-7-9zm1 19.6l-1.3 3.4c-1.1 2.9-4.5 5.6-7.5 6.1l-3.6.6c-3 .5-7.1-1.1-9-3.5l-2.3-2.8c-1.9-2.4-2.6-6.7-1.5-9.6l1.3-3.4c1.1-2.9 4.5-5.6 7.5-6.1l3.6-.6c3-.5 7.1 1.1 9 3.5l2.3 2.8c2 2.4 2.6 6.7 1.5 9.6zm15.1-91.8l-5.2-4.4c-1.4-1.2-4-1.6-5.7-1l-6.4 2.4c-1.7.6-3.4 2.6-3.7 4.4l-.9 5c-.6.2-1.1.4-1.7.5-.7.2-1.4.4-2 .7-.8.3-1.6.5-2.4.8l-2.7.9c-1 .3-1.9.6-2.9.9-1 .3-2 .7-3.1 1-1.1.3-2.1.7-3.2 1-1.1.3-2.2.7-3.3 1.1-1.1.4-2.2.7-3.3 1.1-1.1.4-2.2.7-3.3 1.1-1.1.3-2.1.7-3.2 1-1 .3-2 .7-3 1-1 .3-1.9.6-2.9.9-.7.2-1.3.4-2 .6-.3.1-.7.2-1 .3-.4.1-.7.3-.9.6-.2.5-.1 1 .4 1.1.5.2 1.1.2 1.7.1l1.8-.3 1.3-.2 1.5-.3 1.8-.3 2-.3 2.2-.4 2.3-.4 2.4-.4 2.5-.4 2.5-.4 2.5-.4 2.5-.4 2.5-.4 2.3-.4 2.2-.4 2-.3 1.8-.3 1.6-.3 1.3-.2 1-.2.6-.1h.2l4.5 3.7c1.4 1.2 4 1.6 5.7 1l6.4-2.4c1.7-.6 3.4-2.6 3.7-4.4l1.2-6.7c.7-1.8-.2-4.3-1.6-5.5zm-3.5 7l-.3 1.8c-.3 1.6-1.7 3.3-3.2 3.8l-1.7.6c-1.5.6-3.7.2-4.9-.8l-1.4-1.2c-1.2-1-2-3.1-1.7-4.7l.3-1.8c.3-1.6 1.7-3.3 3.2-3.8l1.7-.6c1.5-.6 3.7-.2 4.9.8l1.4 1.2c1.2 1.1 2 3.2 1.7 4.7z" class="st2"/><path d="M131.3 174.1c-.5-.7-1.7-1.1-2.5-1l-3.1.5c-.8.1-1.8.9-2.1 1.7l-1.1 3c-.3.8-.1 2 .4 2.7l2 2.5c.5.7 1.7 1.1 2.5 1l3.1-.5c.8-.1 1.8-.9 2.1-1.7l1.1-3c.3-.8.1-2-.4-2.7l-2-2.5z" class="st2"/><path d="M47.4 115.9c.6.7 1.7.8 2.4.2l1.1-1c.7-.6.8-1.7.2-2.4l-1-1.1c-.6-.7-1.7-.8-2.4-.2l-1.1 1c-.7.6-.8 1.7-.2 2.4l1 1.1z" class="st1"/><path d="M43.8 121.5c2.2 2.6 6.1 3 8.7.8l4.1-3.5c.2-.1.3-.3.5-.5 1.6-.3 3.2-.6 4.9-1 1.7-.4 5.8-.7 7.3-1.4.4-.2.7-.3 1-.6.6-.5.7-1.1.1-1.8-.2-.3-.6-.5-.9-.7-2-1-6.3-1.4-8.4-1.7l-3.3-.5c-.1-.2-.2-.4-.4-.5l-3.5-4.1c-2.2-2.6-6.1-3-8.7-.8l-4.1 3.5c-2.6 2.2-3 6.1-.8 8.7l3.5 4.1zm.3-10.9l2.5-2.1c1.6-1.3 3.9-1.1 5.3.5l2.1 2.5c1.3 1.6 1.1 3.9-.5 5.3l-2.5 2.1c-1.6 1.3-3.9 1.1-5.3-.5l-2.1-2.5c-1.2-1.6-1-3.9.5-5.3z" class="st1"/><path d="M62.4 156.1c-.1-1.1-.4-2.2-.8-3.1l.3-.6.9-1.7 1.4-2.5 1.7-3.1 1.8-3.4 1.9-3.4 1.8-3.2c.9-1.6 1.8-3.2 2.6-4.8.8-1.5 1.9-3 2-4.8 0-1.1-1-1.3-1.9-.8-1 .6-1.7 1.5-2.4 2.4-2.7 2.7-5.2 5.7-7.7 8.6l-2.7 3-2.5 2.8-2.3 2.5-1.8 2-1.1 1.2-.2.3h-1l-8.1.6c-5.1.4-9 4.8-8.6 9.9l.6 8.1c.4 5.1 4.8 9 9.9 8.6l8.1-.6c5.1-.4 9-4.8 8.6-9.9l-.5-8.1zm-10 12.8l-4.9.3c-3.1.2-5.7-2.1-6-5.2l-.3-4.9c-.2-3.1 2.1-5.8 5.2-6l4.9-.3c3.1-.2 5.7 2.1 6 5.2l.3 4.9c.2 3.2-2.2 5.8-5.2 6z" class="st2"/><path d="M115.9 68H107c-5.6 0-10.2 4.6-10.2 10.2v8.9c0 .8.1 1.6.3 2.3l-8.5 14c-.6 1.1 0 2.1.9 3v1.6c.9.8.6-.6 1.7-1.2l15.3-9.5h9.4c5.6 0 10.2-4.6 10.2-10.2v-8.9c0-5.6-4.6-10.1-10.2-10.2zm5.7 17.8c0 3.9-3.2 7.1-7.1 7.1h-6.2c-3.9 0-7.1-3.2-7.1-7.1v-6.2c0-3.9 3.2-7.1 7.1-7.1h6.2c3.9 0 7.1 3.2 7.1 7.1v6.2z" class="st1"/><path d="M110 78h2.9c1.8 0 3.3 1.5 3.3 3.3v2.9c0 1.8-1.5 3.3-3.3 3.3H110c-1.8 0-3.3-1.5-3.3-3.3v-2.9c0-1.8 1.5-3.3 3.3-3.3z" class="st1"/><path d="M48 157.4l2.3-.2c1.5-.1 2.7 1 2.8 2.5l.2 2.3c.1 1.5-1 2.7-2.5 2.8l-2.3.2c-1.5.1-2.7-1-2.8-2.5l-.2-2.3c-.1-1.5 1-2.7 2.5-2.8z" class="st2"/><path d="M158 153.2c-1.6 0-2.9 1.4-2.9 3.1s1.4 2.9 3.1 2.9c1.6 0 2.9-1.4 2.9-3.1s-1.4-2.9-3.1-2.9zm-7.6-7.3c-.1.1-.3.2-.4.3.1-.1.3-.2.4-.3z" class="st1"/><path d="M152.3 167.7c.4.2.8.4 1.1.5.1 0 .2.1.3.1.4.2.9.3 1.3.4.1 0 .2.1.3.1.1 0 .3.1.4.1.1 0 .2 0 .4.1H159.2l1.8-.3c.2-.1.4-.1.6-.2.1 0 .2-.1.3-.1l.9-.3c.1 0 .2-.1.3-.1l.6-.3c.1-.1.2-.1.4-.2.1-.1.3-.1.4-.2.2-.1.5-.3.7-.4 1.5-1 2.8-2.3 3.7-3.9.1-.1.1-.2.2-.4.1-.1.1-.2.2-.3v-.1c.1-.1.1-.2.2-.3.3-.6.5-1.2.7-1.7 0-.1.1-.2.1-.3v-.1c0-.1.1-.2.1-.3v-.1c0-.1 0-.2.1-.3 0-.1.1-.3.1-.4.1-.3.1-.6.2-.9 0-.2.1-.5.1-.7v-.1-.4-.4-.4-.6c0-.2 0-.4-.1-.6 0-.1 0-.3-.1-.4v-.2c0-.2-.1-.4-.1-.6 0-.1 0-.2-.1-.3-.1-.2-.1-.4-.2-.6 0-.1-.1-.2-.1-.3-.1-.2-.1-.4-.2-.6 0-.1-.1-.2-.1-.3 0-.1-.1-.2-.1-.3s-.1-.2-.1-.3c0-.1-.1-.2-.1-.3 0-.1-.1-.1-.1-.2s-.1-.2-.1-.3c-.1-.1-.1-.2-.2-.4-.1-.1-.1-.2-.2-.3-.1-.2-.3-.4-.4-.6-.9-1.3-2-2.4-3.3-3.2-.1-.1-.2-.1-.3-.2-.1-.1-.2-.1-.4-.2-.1-.1-.2-.1-.3-.2-.7-.4-1.4-.7-2.1-.9-.1 0-.2-.1-.3-.1h-.1c-.1 0-.2-.1-.3-.1h-.1c-.1 0-.2 0-.3-.1-.1 0-.3-.1-.4-.1-.3-.1-.6-.1-.9-.2H156.3c-.5.1-1.1.2-1.6.3-.2.1-.3.1-.5.2l-.9.3c-.2.1-.4.2-.7.3-.1.1-.2.1-.3.2l-.6.3c-.1 0-.1.1-.2.1h-.1s-.1 0-.1.1c-.1 0-.2.1-.2.1-.3.2-.5.3-.7.5-.1.1-.3.2-.4.3l-56.9-26.8c-1.2-.6-2.1 1.1-1 1.8l47.3 29.6.8.5.9.6.9.6c.9.6 1.7 1.1 2.6 1.7l.7.5c-.1.8-.1.8 0 1.6v1.2c0 .2 0 .3.1.5.1.9.4 1.8.7 2.7.1.1.1.3.2.4l.3.6c0 .1.1.2.1.3 0 .1.1.2.1.3.1.3.3.5.4.7l.1.1c.1.1.2.2.2.3.1.1.2.2.2.3.1.1.1.2.2.3.1.2.3.3.4.5.1.2.3.3.4.5l.2.2.3.3.3.3c.2.2.4.3.6.5.2.2.5.4.7.6.1.1.2.1.3.2.1.1.2.1.3.2.1.1.2.1.3.2.1.1.3.1.4.2 0 .1.1.2.2.2zm-1.3-11.3c-.1-3.9 3-7.2 6.9-7.3 3.9-.1 7.2 3 7.3 6.9.1 3.9-3 7.2-6.9 7.3-3.9.2-7.2-3-7.3-6.9z" class="st1"/><path d="M151.4 145.2s-.1 0-.1.1l.1-.1zm-1.4 1c.4-.3.8-.6 1.2-.8-.3.2-.5.3-.7.5-.2.1-.4.2-.5.3zm-4.8 10.3v-.1.1zm-.6-2.2L141 152l.9.6c1 .6 1.8 1.2 2.7 1.7z" class="st1"/><g><path d="M154.2 134.2l3.1-16.6c.6-3.5-2.7-6.4-6.1-5.2l-15.9 5.7c-3.3 1.2-4.2 5.6-1.5 7.9l12.9 11c2.6 2.2 6.8.7 7.5-2.8zm-6.5-2.1l-9.4-8c-1-.8-.7-2.3.5-2.8l11.6-4.1c1.2-.4 2.4.6 2.1 1.8l-2.2 12.1c-.2 1.3-1.7 1.8-2.6 1z" class="st0"/><path d="M143.5 122.8l4.1-1.5c.7-.2 1.3.3 1.2 1l-.4 2.2-.4 2.2c-.1.7-1 1-1.5.5l-3.3-2.9c-.5-.4-.4-1.3.3-1.5z" class="st0"/><path d="M95.3 114l40.9 4.2-1.4 7.8L95 115.8c-2.1-.5-1.8-2 .3-1.8z" class="st0"/></g><g><path d="M16.6 136.7l7.2 15.3c1.5 3.2 5.9 3.6 8 .7l9.6-13.9c2-2.9.1-6.9-3.4-7.2l-16.8-1.4c-3.6-.3-6.1 3.3-4.6 6.5zm6.5-2l12.3 1c1.2.1 1.9 1.5 1.2 2.5l-7 10.1c-.7 1-2.3.9-2.8-.2L21.5 137c-.6-1.2.3-2.4 1.6-2.3z" class="st0"/><path d="M31.9 139.8l-2.5 3.6c-.4.6-1.3.5-1.6-.1l-.9-2-.9-2c-.3-.6.2-1.4.9-1.3l4.4.4c.7 0 1 .8.6 1.4z" class="st0"/><path d="M69.7 122.4l-29.4 18.1-4-9 32.4-11.2c1.9-.7 2.7 1.1 1 2.1z" class="st0"/></g><g><path fill="#111828" d="M615.1 98.6h-29v46.6H574V98.7c0 .1-62.7 0-74 .1-3 0-6.1.4-9 1.2-4.6 1.3-7.4 5.9-7.1 10.8h60.3v10.8H484c-.8 5.4 3.2 10.5 9.2 11.5 2.4.4 4.9.5 7.4.5h44.7V145c-.4.1-.8.2-1.2.2-16.5 0-33 0-49.5-.2-11.2-.2-18.8-5.9-21.7-15.7-.6-2-1-4.1-1.2-6.3-.6-6.3-.6-12.6.9-18.9 2.3-9.4 8.5-14.7 17.8-16.3 3.1-.5 6.2-.8 9.3-.8h115.5c0 3.7-.1 7.9-.1 11.6zM382.7 86.9c5.4.2 10.5.2 15.5.7 7.2.8 12.5 5 16.7 10.5 6.2 7.9 12.1 16 18.1 24 2 2.6 4 5.1 6.2 7.6 2 2.2 4.5 3.4 7.9 3.2V87.2h12.1v57.9c-10.7.6-21.4 1-29.2-8.4-6.3-7.5-12.3-15.3-18.5-22.9-3-3.8-6.1-7.5-9.2-11.2-1.8-2.2-4.2-3.4-7.4-3.1v45.7h-11.1c-.4 0-.9-.7-1.1-1.1-.2-.4 0-1 0-1.5V86.9zm-175.5.3c7.2-.4 14.3-.2 19.5 5.3 5.5 5.8 10.5 12 15.5 18.2 6.4 8 12.6 16.1 19 24.1 3.6 4.4 8.3 6.9 14.1 6.8.5 0 1-.1 1.7-.1V87.3h3.7v57.9c-6.7.5-13.5.4-18.6-4.6-5.1-5-9.7-10.5-14.2-16.1-6.8-8.4-13.3-17-20.1-25.5-1.7-2.1-3.9-3.9-6.1-5.6-3.1-2.3-6.8-2.6-10.8-2.4v54.2h-3.7m90.8-58h3.8v2.5c0 10.2-.2 20.5.1 30.7.3 13.1 5.1 18.7 18 20.9 9.1 1.6 18.3 1.5 27.4-.3 10.9-2.2 15.9-8.4 16.1-19.6.2-10.5.1-20.9.1-31.4v-2.7h3.7c0 .5.1 1 .1 1.4 0 10.7.1 21.3-.1 32 0 3-.5 6.1-1.3 9-1.9 7.4-6.9 12.1-14.2 14-12.6 3.3-25.3 3.4-37.9.1-9.3-2.5-14.3-9-15.2-18.4-.6-6.7-.5-13.5-.5-20.2-.2-5.9-.1-11.9-.1-18z"/></g><g><path d="M81.1 107.4c3.8 0 7 3.1 7 7 0 3.8-3.1 7-7 7s-7-3.1-7-7 3.1-7 7-7m0-6.5c-7.4 0-13.4 6-13.4 13.4s6 13.4 13.4 13.4 13.4-6 13.4-13.4-6-13.4-13.4-13.4z" class="st1"/></g></svg>