<svg xmlns="http://www.w3.org/2000/svg" role="img" viewBox="-6.17 43.08 412.10 158.60"><style>svg {enable-background:new 0 0 400 245}</style><style/><path fill="#7bb1db" d="M239.55 51h-8.04l-29.64 47.53L172.23 51h-8.06v143h8.06l29.64-47.53L231.51 194h8.12l-.09-.11z"/><path fill="#958437" d="M164.17 51h-43.96l43.9 71.5-43.9 71.5h43.96z"/><path fill="#739833" d="M283.53 51h-43.98l-.01 142.89.09.11h43.89l-43.89-71.5z"/><path fill="#c9d200" d="M346.19 51h-62.66l-43.9 71.5 43.9 71.5h.02l-.02-31.59h74.17c31.14 0 40.46-24.44 40.46-45.73v-16.8c0-27.99-10.12-48.88-51.97-48.88zm10.97 57.7c0 8.48-3.97 18.23-14.28 18.23h-59.3V86.47h55.53c13.29 0 18.05 5.52 18.05 15.18v7.05z"/><path fill="#f9b500" d="M164.11 122.5L120.21 51h-.02v86.41L45.8 51H1.84v143h44l-.01-86.41L120.21 194z"/></svg>