<svg xmlns="http://www.w3.org/2000/svg" role="img" viewBox="37.56 37.56 281.62 282.62"><title>ObjectBox logo</title><g fill="#393939" fill-rule="evenodd"><path d="M237.20413 43l-53.05986 6.47684v208.67634l104.4815-41.66645L314 76.98331l-80.29865 15.38835L237.20413 43zm-7.10997 100.2236l40.33805-10.58396-6.7682 51.63232L226.29046 196.84l3.8037-53.6164zM68.37553 216.48348l104.48734 41.66969V101.85515L43 76.98136 68.37553 216.4835zM93.33858 184.27l-6.76949-51.63167 40.34194 10.5846 3.8037 53.61576-37.37615-12.56869z"/><path d="M100.29109 302.35029c0-2.57937-.48811-4.55559-1.46542-5.93149-.97621-1.37371-2.3613-2.06166-4.1546-2.06166-1.75105 0-3.11972.68489-4.10731 2.05445-.98716 1.36978-1.49168 3.30666-1.51291 5.81086v1.3429c0 2.55773.49905 4.53482 1.49737 5.93126.99788 1.39557 2.38274 2.0938 4.15481 2.0938 1.7933 0 3.17291-.68184 4.13928-2.04615.96592-1.36454 1.44878-3.35714 1.44878-5.97891v-1.21506zm4.05106 1.21506c0 2.2802-.3953 4.2822-1.18503 6.0025-.79016 1.72141-1.91871 3.04355-3.3861 3.96468-1.46804.922-3.15737 1.3831-5.06799 1.3831-1.88939 0-3.57324-.4611-5.05157-1.3831-1.47877-.92113-2.62067-2.23497-3.42638-3.94085-.80636-1.70502-1.2148-3.67074-1.22508-5.89849v-1.311c0-2.26992.40274-4.27389 1.20845-6.0108.80636-1.73693 1.94323-3.06628 3.41105-3.98828C91.0869 291.46111 92.77074 291 94.67108 291c1.89967 0 3.58397.45586 5.05135 1.3665 1.46782.91173 2.60207 2.22272 3.40274 3.93276.80067 1.71092 1.20604 3.70046 1.21698 5.9717v1.29439zm8.02092.20717v7.24226h4.49933c1.26995 0 2.2628-.3125 2.9781-.9384.71487-.6261 1.07275-1.49652 1.07275-2.6104 0-2.40847-1.23844-3.63992-3.71465-3.69346h-4.83553zm0-2.97252h3.97095c1.25923 0 2.2442-.28563 2.95381-.856.71027-.56929 1.06508-1.37678 1.06508-2.4216 0-1.15102-.32854-1.98233-.98453-2.49392-.65687-.51159-1.67904-.76728-3.06654-.76728h-3.93877V300.8zm-4.05107 13.47598V291h7.98984c2.63644 0 4.64358.52798 6.02057 1.58198 1.37698 1.05618 2.06537 2.6281 2.06537 4.71665 0 1.06536-.28805 2.0245-.86459 2.87745-.57631.85295-1.41988 1.51314-2.52983 1.98234 1.25922.34135 2.23347.98297 2.9225 1.9266.68795.94277 1.03247 2.07522 1.03247 3.39626 0 2.18557-.70195 3.8637-2.10586 5.03637-1.40325 1.17266-3.41302 1.75833-6.02822 1.75833H108.312zM139.05609 291h4.03486v16.32263c0 2.22665-.69626 3.99548-2.08966 5.30734-1.39253 1.3099-3.2318 1.96595-5.51582 1.96595-2.43375 0-4.31285-.6178-5.63621-1.8545-1.3238-1.23668-1.98526-2.94672-1.98526-5.13208h4.03487c0 1.23648.30687 2.16678.92083 2.78983.61375.62391 1.50219.93555 2.66577.93555 1.08871 0 1.95592-.35906 2.60163-1.07782.64613-.71789.96899-1.71004.96899-2.97667V291zm21.98591 12.885h-9.575v7.13h11.192v3.261h-15.243V291h15.131v3.261h-11.08v6.427h9.575zm23.69906 3.13342c-.23442 2.48366-1.15285 4.42054-2.75397 5.81086-1.60068 1.3912-3.73018 2.08636-6.38828 2.08636-1.85721 0-3.49314-.43926-4.90777-1.31908-1.4142-.87873-2.50554-2.12876-3.27404-3.74898-.7687-1.61934-1.16882-3.5005-1.201-5.6428v-2.17399c0-2.19584.3894-4.12966 1.16883-5.80364.779-1.6729 1.89727-2.96225 3.3548-3.86764 1.45644-.9067 3.1403-1.35951 5.05136-1.35951 2.5723 0 4.64336.69516 6.21252 2.08658 1.56916 1.39032 2.48146 3.3591 2.73755 5.90679h-4.03443c-.19217-1.67289-.68028-2.87964-1.4654-3.62135-.78404-.7404-1.9347-1.1106-3.45024-1.1106-1.76113 0-3.11447.6425-4.05873 1.92748-.94513 1.28608-1.42798 3.1716-1.44922 5.65723v2.06363c0 2.51774.4509 4.43801 1.35313 5.76037.90201 1.32323 2.22253 1.9843 3.96264 1.9843 1.5904 0 2.78615-.35687 3.58681-1.0706.80046-.71461 1.30717-1.90279 1.52101-3.5654h4.03443zM206.517 294.261h-7.269v20.015h-4.02v-20.015h-7.204V291h18.493zm8.93567 10.12014v5.57877h3.68159c1.01452 0 1.7933-.23208 2.33875-.69516.54349-.46417.81621-1.11694.81621-1.95873 0-1.93994-.96592-2.91461-2.89865-2.92488h-3.9379zm0-3.67795h2.92973c1.22705-.01027 2.10302-.23405 2.6257-.67243.52292-.43839.78514-1.08503.78514-1.94104 0-.98297-.28302-1.69146-.84905-2.1235-.56602-.43336-1.47832-.64993-2.73755-.64993h-2.75397v5.3869zM209.832 314.2762V291h8.37464c2.9989 0 5.28074.54874 6.84487 1.64623 1.56282 1.09836 2.34488 2.6917 2.34488 4.78024 0 1.20479-.27688 2.233-.83262 3.08484-.55465.85295-1.37086 1.48211-2.4493 1.8875 1.217.31971 2.15074.91588 2.80257 1.79046.65074.8737.97621 1.93906.97621 3.19739 0 2.2802-.72318 3.99351-2.16933 5.1393-1.44725 1.14577-3.58967 1.7286-6.42834 1.75024H209.832zm35.73816-11.81336c0-2.31342-.38742-4.0687-1.16117-5.26824-.77375-1.19844-1.88107-1.79876-3.32219-1.79876-2.81789 0-4.3065 2.11018-4.46782 6.33053l-.01532 1.71113c0 2.28042.3791 4.03373 1.13731 5.25906.75711 1.2262 1.88304 1.83897 3.378 1.83897 1.41924 0 2.5143-.6025 3.2828-1.80597.76849-1.20479 1.1581-2.93646 1.16839-5.19612v-1.0706zm5.71566.97466c0 2.27015-.42157 4.27914-1.26448 6.02633-.84292 1.74829-2.04108 3.09403-3.59492 4.03679-1.55253.94364-3.32219 1.41502-5.30745 1.41502-1.98547 0-3.74681-.45587-5.28402-1.3665-1.53699-.91173-2.73537-2.21442-3.5947-3.90895-.85955-1.69452-1.31-3.6397-1.35225-5.83445v-1.31187c0-2.28042.41828-4.2916 1.25616-6.03464.83766-1.74194 2.0391-3.0879 3.60302-4.0359C237.3102 291.47443 239.09104 291 241.0868 291c1.97519 0 3.73653.46941 5.28403 1.40693 1.54727.93752 2.7509 2.2732 3.61023 4.00488.85955 1.73167 1.29447 3.71598 1.30476 5.954v1.0717zm11.05018-4.7005l3.81-7.737h6.421l-6.516 11.542 6.692 11.734h-6.485l-3.922-7.881-3.923 7.881h-6.469l6.677-11.734L252.12 291h6.404z"/></g></svg>