<svg xmlns="http://www.w3.org/2000/svg" role="img" viewBox="-15.18 -15.18 789.36 198.86"><title>Open Glossary of Edge Computing logo</title><defs><style>.cls-1{fill:#261f4d}.cls-2{fill:#9569cd}</style></defs><path d="M484.093 138.608c.002 7.694-.207 15.396.083 23.078.164 4.32-.69 6.362-5.67 6.225-4.586-.125-6.042-1.496-5.933-6.12q.44-18.743-.032-37.501c-.07-2.892 2.47-8.327-3.039-8.199-4.598.107-9.011 2.641-8.863 9.067.274 11.855.009 23.721.115 35.582.036 4.043.476 7.293-5.63 7.228-5.817-.062-5.904-2.89-5.845-7.15.158-11.538.02-23.08.074-34.621.016-3.27.172-6.433-3.608-8-2.304-.954-4.414-3.434-7.033-2.046-2.327 1.232-1.227 4.018-1.242 6.102-.093 13.143-.198 26.29.035 39.429.078 4.415-1.015 6.188-5.818 6.21-4.83.023-5.852-1.773-5.785-6.172.223-14.743.058-29.492.092-44.239.026-11.28 11.192-16.923 22.178-10.142 5.46 3.37 8.582 4.208 13.925.042 4.984-3.886 11.797-1.817 17.74-1.3 3.949.344 4.255 4.178 4.245 7.522-.001.32.009.641.009.962l.002 24.043zm237.97-4.903c0-7.037.034-14.074-.011-21.11-.031-4.777 2.24-7.004 7.036-6.93 6.075.091 12.153.003 18.23.003 12.202 0 13.587 1.811 11.034 13.585-.548 2.531-1.24 4.369-4.098 4.045-2.5-.284-6.268 1.58-6.594-3.134-.556-8.059-6.612-3.805-10.183-4.33-5.164-.76-4.11 3.63-4.141 6.582-.1 9.274.047 18.552-.07 27.826-.052 4.162 1.788 7.44 5.762 7.098 3.443-.296 8.326-1.726 8.295-6.31-.03-4.334 4.003-11.35-5.905-11.706-3.472-.126-2.78-5.383-1.71-7.256 3.215-5.616 9.046-1.758 13.669-2.604 2.95-.54 5.793-.243 5.679 4.168-.182 7.032.444 14.118-.203 21.096-.737 7.962-18.858 15.85-25.95 12.147-8.201-4.28-12.725-9.93-11-19.76.764-4.343.13-8.933.13-13.41zm-348.583-.286v-.96c0-29.016 2.3-30.898 31.529-26.845 4.387.608 6.418 2.786 6.456 6.776.133 14.09.536 28.206-.134 42.265-.366 7.662-19.438 16.064-26.231 12.568-8.416-4.331-13.58-10.029-11.748-20.374.77-4.347.129-8.946.129-13.43zm26.82 1.22c0-4.475-.248-8.967.057-13.421.481-7.056-4.51-5.29-8.37-5.569-4.218-.304-7.447-.063-7.21 5.766.376 9.254.21 18.537.048 27.803-.075 4.314 1.085 8.613 5.654 8.097 4.214-.476 9.852-1.663 9.818-8.294-.024-4.794-.005-9.588.003-14.383zm-187.635-1.164c0-30.166 2.36-32.44 32.69-27.616 9.422 1.499 2.483 9.357 3.37 14.081 1.008 5.379-4.26 2.827-6.915 3.317a2.133 2.133 0 0 1-2.743-1.926c-.48-9.81-8.1-5.656-12.176-5.21-5.441.597-2.543 6.237-2.73 9.555-.45 7.992.05 16.033-.224 24.042-.145 4.274 1.759 7.52 5.484 7.567 3.928.05 8.86-1.773 9.098-6.566.18-3.604 3.696-9.782-3.56-10.744-4.458-.592-5.07-2.644-5.005-6.314.093-5.166 3.763-4.143 6.816-4.275 13.507-.587 13.435-.58 13.534 12.996.065 8.97.953 17.078-10.067 22.215-15.638 7.29-27.559.918-27.572-16.69q-.005-7.216 0-14.432zm-52.387 3.405c0-1.599-.098-3.205.016-4.795.609-8.496-3.686-21.752 1.664-24.45 8.471-4.274 20.44-1.704 30.93-1.842 4.642-.06 5.807 3.205 5.813 7.12.024 14.709.215 29.42-.066 44.123-.146 7.634-9.4 13.64-17.357 11.502-4.766-1.28-9.04-3.373-14.399-1.16-3.83 1.582-7.162.346-6.747-5.569.58-8.272.146-16.616.146-24.93zm27.005.151c0-5.122-.402-10.284.1-15.356.66-6.67-3.445-6.156-7.77-6.044-4.08.106-8.4-1.064-8.041 5.832a191.927 191.927 0 0 1-.071 27.826c-.882 9.384 6.157 8.87 11.117 9.325 6.802.623 4.287-5.51 4.587-9.105.345-4.133.08-8.316.078-12.478zm482.774-.91c0-8.016-.127-16.036.083-24.047.057-2.19-1.669-5.726 2.264-6.21 2.663-.33 6.743-1.7 7.967 1.161 2.24 5.238 4.27 2.36 7.007.972 13.268-6.733 19.667-2.83 19.67 11.841.002 13.79-.058 27.578.038 41.366.026 3.778.234 6.656-5.25 6.619-5.289-.037-6.417-1.969-6.294-6.781.296-11.537.417-23.1-.104-34.62-.152-3.389 3.282-10.25-2.611-9.811-4.848.36-11.883 3.124-11.597 11.517.382 11.21.006 22.444.138 33.666.044 3.744-.582 5.98-5.156 5.962-4.218-.017-6.509-.557-6.266-5.666.41-8.638.112-17.31.111-25.969zm-84.41.865c0 8.335-.334 16.688.096 25.002.413 7.985-7.345 7.03-8.337 5.082-3.024-5.936-5.397-2.77-8.406-1.016-9.223 5.379-20.652-.707-20.832-11.362-.244-14.423.103-28.856-.16-43.279-.087-4.793 1.758-5.835 6.173-5.891 4.545-.058 5.232 1.893 5.177 5.744-.173 12.18-.23 24.369.045 36.545.076 3.379-2.01 9.682 3.3 9.2 4.713-.428 11.688-2.018 11.554-10.104-.192-11.538.106-23.086-.122-34.623-.09-4.546.57-6.922 6.1-6.81 5.186.107 5.563 2.477 5.47 6.506-.193 8.331-.058 16.67-.058 25.006z" class="cls-1"/><path d="M218.203 32.446c.002-8.01-.077-16.022.05-24.03.038-2.35-1.088-5.615 2.422-6.423 2.693-.62 7.125-1.669 7.982.75 1.939 5.472 3.909 2.715 6.686 1.29 13.624-6.981 20.647-2.862 20.665 11.977.016 13.457-.08 26.915.048 40.37.041 4.356-.402 7.25-6.056 7.277-5.686.027-6.103-2.9-6.053-7.235.131-11.213.313-22.438-.116-33.636-.137-3.578 2.825-10.435-2.725-10.179-5.084.235-11.75 3.405-11.483 11.637.331 10.242.17 20.504.026 30.755-.053 3.773 1.73 8.51-5.402 8.636-7.64.137-5.947-4.908-6.013-9.082-.117-7.368-.033-14.738-.031-22.107zm354.267 4.041c-.004 7.046-.103 14.093.036 21.135.074 3.772-.77 5.975-5.258 5.965-4.373-.01-6.695-1.211-6.286-5.978.218-2.542-.223-5.15.08-7.676.75-6.26-1.735-8.32-8.064-8.243-5.952.072-8.111 2.052-7.512 7.84.327 3.166-.057 6.4.036 9.599.123 4.237-2.654 4.34-5.742 4.38-3.273.043-5.64-.602-5.619-4.62.079-14.73-.156-29.466.21-44.187.117-4.75 16.442-15.15 21.928-14.687 7.082.598 16.098 10.15 16.179 17.258.073 6.404.015 12.81.012 19.214zm-11.571-13.136c.17-4.992 1.01-11.179-5.596-11.014-5.092.127-10.1 2.911-9.938 10.224.124 5.612.813 8.718 7.63 8.472 5.885-.213 9.263-1.32 7.904-7.682zm-275.245 6.377c.007-6.732.03-13.465 0-20.197-.023-4.917 1.852-8 7.267-7.977 8.015.034 16.03.051 24.044-.022 3.39-.031 6.007 1 5.24 4.835-.854 4.267 2.76 10.125-3.236 12.533-3.311 1.33-6.154.31-7.557-4.527-1.54-5.307-7.13-2.54-10.919-2.632-4.537-.109-3.329 3.867-3.366 6.475-.13 8.974.081 17.955-.107 26.928-.087 4.114 1.491 7.638 5.32 7.807 4.048.178 8.655-1.831 9.272-6.587.462-3.555 2.965-9.073-3.142-10.4-4.482-.975-5.924-2.92-5.442-7.159.58-5.101 4.484-3.585 7.362-3.7 13.088-.53 13.013-.47 13.123 12.547.075 8.978.977 17.242-9.872 22.424-16.241 7.757-27.984 1.353-27.994-16.883q-.004-6.733.007-13.465zm329.3 8.026c7.633 5.241 7.783 12.208 7.505 19.403-.128 3.318.26 6.353-4.665 6.412-4.304.051-5.638-1.798-5.477-5.717.078-1.896.216-4.043-.542-5.671-2.256-4.849-4.945-11.7-10.252-11.108-5.362.599-1.594 7.526-2.52 11.542a20.012 20.012 0 0 0-.067 5.733c.304 4.486-2.295 5.12-6.012 5.216-4.264.11-5.487-1.725-5.455-5.718.131-16.612.233-33.23-.05-49.838-.092-5.352 2.242-6.486 6.874-6.316 5.741.212 11.563.494 17.235-.195 9.827-1.193 12.846 3.882 11.957 12.316-.867 8.224 4.232 18.504-8.531 23.94zm-2.956-18.035c.847-5.509-.313-8.402-6.815-8.366-9.191.05-5.935 6.492-6.054 10.762-.077 2.747-2.574 8.084 3.22 7.9 6.018-.193 11.64-2.27 9.65-10.296z" class="cls-2"/><path d="M.504 134.159c.001-6.734.131-13.471-.04-20.2-.139-5.51 1.925-8.455 7.808-8.325 7.371.162 14.753.19 22.123-.01 5.676-.154 8.351 2.43 8.358 7.974.017 13.147.292 26.302-.092 39.438-.256 8.766-19.003 18.105-26.747 14.069-8.466-4.413-13.367-10.23-11.53-20.462.724-4.038.118-8.316.12-12.484zm26.88.592c0-4.142-.434-8.34.097-12.414.902-6.922-3.166-6.588-8.036-6.82-5.608-.266-8.075.995-7.67 7.248.555 8.567.259 17.2.09 25.799-.088 4.507.577 9.379 5.83 8.715 4.362-.552 10.374-1.815 9.757-9.151-.372-4.43-.068-8.916-.068-13.377z" class="cls-1"/><path d="M108.55 29.123c0 4.153-.534 8.391.106 12.443 1.55 9.81-2.79 14.993-11.452 19.198-14.324 6.953-26.942-.037-26.996-15.997-.039-11.181.086-22.364-.036-33.545-.073-6.66 2.391-9.89 9.635-9.705 34.575.886 27.997-5.265 28.743 27.606zm-26.948 2.44c0 4.159.164 8.325-.043 12.473-.236 4.722 1.221 9.317 6.126 8.953 4.732-.351 9.925-2.458 9.481-9.592-.456-7.329-.255-14.712-.05-22.064.163-5.822.395-10.228-8.117-10.111-8.188.111-7.608 4.481-7.422 9.786.124 3.515.024 7.037.025 10.555zM502.485 1.646c3.526 0 7.052.052 10.576-.014 3.92-.073 6.188 2.123 6.502 5.661.355 3.998 2.258 9.053-1.337 11.763-2.907 2.192-8.66 3.94-9.518-2.578-.71-5.4-3.742-4.987-7.32-4.922-2.38.043-4.464.313-4.729 3.409-.302 3.54.669 6.264 4.063 7.895 2.886 1.386 5.7 2.92 8.542 4.398 10.522 5.47 13.985 13.189 10.904 24.29-1.453 5.233-18.013 14.482-22.877 12.777-10.406-3.646-16.406-13.9-13.822-22.905 1.041-3.629 3.544-2.961 5.976-3.15 3.502-.27 5.518 1.035 5.353 4.863-.183 4.244-.44 9.321 5 9.803 3.44.305 7.742-1.593 8.842-5.924 1.45-5.713-1.795-8.848-6.714-11.087-9.668-4.4-19.368-8.207-17.74-22.464.99-8.659 3.051-13.39 12.537-11.896a37.484 37.484 0 0 0 5.762.042zm-51.65 0c3.518.002 7.037.024 10.554-.005 3.25-.026 5.971 1.24 6.357 4.543.503 4.312 2.387 9.751-1.125 12.704-2.855 2.4-8.972 4.612-9.769-3.04-.439-4.214-2.711-4.514-5.788-4.28-2.349.18-5.504-.925-5.968 2.966-.35 2.932-.303 5.862 2.727 7.58 2.778 1.573 5.614 3.048 8.446 4.526 12.757 6.66 14.092 9.177 12.303 23.31-1.053 8.319-18.156 16.6-25.587 12.797-8.15-4.172-13.174-9.513-11.46-19.517.605-3.536 1.55-5.145 5.217-5.005 3.328.127 6.617-.167 6.404 4.724-.199 4.586-.258 9.816 5.83 10.028a8.073 8.073 0 0 0 7.93-5.846c1.441-5.602-1.164-9.141-6.444-11.074a48.651 48.651 0 0 1-5.112-2.625c-11.02-5.603-15.305-15.863-11.602-27.403 1.076-3.351 3.383-4.379 6.533-4.384q5.277-.008 10.554 0z" class="cls-2"/><path d="M499.078 137.47c0-7.675.395-15.377-.123-23.016-.432-6.378 1.075-8.916 8.171-8.75 32.298.755 27.01-5.404 28.14 27.66.359 10.51-3.02 15.71-13.301 16.343-7.983.491-13.399 3.035-11.425 12.582 1.06 5.127-2.133 5.47-6.164 5.575-4.196.11-5.533-1.267-5.384-5.455.293-8.304.086-16.625.086-24.94zm11.495-11.172a61.191 61.191 0 0 1-.035 6.487c-.734 6.212.606 8.206 7.645 6.241 10.377-2.896 4.085-10.462 5.46-15.735 1.682-6.444-1.882-8.108-7.932-7.732-9.632.598-2.932 7.91-5.138 10.739z" class="cls-1"/><path d="M123.456 32.503c.002-7.993.194-15.993-.071-23.978-.158-4.743 1.143-7.068 6.38-6.846 7.02.296 14.069.125 21.097-.103 5.865-.19 8.036 2.67 7.83 8.198-.156 4.15-.02 8.312-.02 12.469.002 18.72.054 18.905-18.27 24.111-5.446 1.548-5.88 4.991-5.568 9.405.323 4.564.003 8.111-6.336 7.854-6.391-.26-4.942-4.557-5.003-8.089-.133-7.671-.041-15.347-.04-23.02zm11.38-8.573c-.005 12.119 1.715 14.016 9.19 10.138 3.555-1.845 5.205-19.926 1.642-21.667-2.313-1.13-5.56-.845-8.294-.48-2.98.399-2.387 3.25-2.495 5.355-.113 2.212-.025 4.435-.043 6.654zm282.045 5.534v9.59c0 16.265-2.06 19.19-17.523 24.869-6.519 2.394-19.625-5.922-19.816-13.183-.371-14.056-.09-28.13-.106-42.195-.005-4.779 2.335-7.066 7.096-6.914.32.01.64-.02.959-.014 35.687.716 28.564-5.66 29.39 27.847zm-10.626 1.39c0-4.453-.277-8.927.065-13.354.509-6.601-3.819-6.062-8.063-5.98-4.055.08-8.535-.996-8.292 5.763.319 8.895.205 17.813.013 26.716-.101 4.685 1.314 9.365 6.026 9.099 4.53-.257 10.373-1.854 10.265-8.884-.069-4.452-.013-8.906-.014-13.36z" class="cls-2"/><path d="M114.136 135.528v-4.806c0-27.727-.01-27.63 27.984-25.168 3.727.328 4.963 1.282 4.849 5.016-.111 3.637-.364 6.352-5.072 5.927-2.86-.259-5.766.047-8.645-.06-4.345-.159-7.806-.548-7.878 6.09-.073 6.684 2.852 7.382 8.023 6.895 2.54-.24 5.124.037 7.685-.04 4.56-.135 3.919 3.12 4.006 5.96.084 2.731.038 5.246-3.84 5.002-2.233-.14-4.527.27-6.717-.068-6.884-1.059-9.105 1.117-9.246 8.594-.152 8.008 3.125 8.308 9.441 8.705 4.028.253 11.751-5.332 12.19 4.961.147 3.483-.587 5.664-4.637 5.101a8.595 8.595 0 0 0-.96-.002c-33.486-.825-26.323 6.33-27.183-32.107zm150.218-.321c.001-8.007.18-16.02-.074-24.02-.129-4.056.993-5.772 5.34-5.598 7.355.295 14.738.275 22.095.002 4.083-.152 5.595 1.023 5.508 5.327-.082 4.083-1.233 5.926-5.48 5.58-2.864-.235-5.781.173-8.64-.087-4.868-.443-7.488.414-7.482 6.46.005 5.91 2.326 7.23 7.345 6.514a1.9 1.9 0 0 1 .953.01c3.85 1.664 11.112-4.165 11.427 5.304.323 9.752-7.225 5.543-10.906 5.32-7.503-.457-8.825 2.243-8.872 9.15-.047 6.988 2.249 8.187 8.67 8.427 4.266.16 12.93-5.29 12.675 5.212-.238 9.79-8.349 4.473-12.394 4.544-21.556.377-20.189 3.436-20.166-19.653q.006-6.246.001-12.492z" class="cls-1"/><path d="M172.071 30.744v-4.806c0-27.143-.005-27.09 27.293-24.388 3.295.326 5.37.828 5.474 4.795.113 4.314-1.802 5.69-5.762 5.482-2.876-.15-5.785.197-8.647-.053-5.705-.498-6.898 2.379-6.997 7.495-.114 5.886 3.24 5.983 7.39 5.804 2.239-.096 4.493.117 6.727-.027 4.227-.272 5.514 1.79 5.522 5.774.008 4.263-2.03 5.08-5.848 5.606-4.541.626-10.855-3.585-13.413 3.192-3.213 8.507.315 12.37 9.705 12.967 4.161.264 11.193-3.658 11.294 5.592.038 3.438-.869 5.643-4.813 5.308-.635-.054-1.28.022-1.921.014-29.136-.398-25.823 4.144-26.001-25.064-.016-2.563-.003-5.127-.003-7.69z" class="cls-2"/><path d="M52.892 136.207c0-8.338.173-16.68-.073-25.01-.122-4.131 1.23-5.734 5.456-5.594 7.367.244 14.76.307 22.12-.026 4.382-.198 5.354 1.5 5.347 5.538-.009 4.228-1.488 5.818-5.63 5.382a58.308 58.308 0 0 0-6.73-.034c-4.71.053-9.445-1.095-9.287 6.886.153 7.72 4.967 5.487 9.008 6.097 3.527.532 8.553-2.349 10.302 2.076 1.808 4.573 1.786 9.162-6.142 8.994-12.91-.274-12.92.23-12.92 13.021 0 2.886-.222 5.794.055 8.653.392 4.056-.85 5.77-5.245 5.578-3.977-.175-6.634-.337-6.377-5.592.424-8.637.115-17.31.116-25.969zm272.936-2.743v-1.924c0-28.244 1.506-29.458 29.704-25.988 4.015.495 5.295 2.188 4.245 5.43-1.47 4.541 3.013 11.46-4.853 13.44-4.387 1.104-6.246-.935-6.146-5.672.101-4.822-4.084-2.658-6.53-3.037-2.846-.441-4.974.21-4.94 3.882.095 10.575-.46 21.182.185 31.719.487 7.97 5.418 6.897 10.82 3.977 2.835-1.532 5.827-6.212 9.39-.377 1.94 3.179 2.675 4.805-1.261 7.394-12.7 8.353-13.959 8.489-25.324.677-3.855-2.65-5.604-5.604-5.37-10.297.32-6.394.08-12.816.08-19.225z" class="cls-1"/><path d="M674.272 20.309c.923 7.543.72 16.408-9.932 21.465-5.517 2.62-2.727 8.572-3.305 13.106-.474 3.715 1.772 8.573-5.413 8.707-6.64.123-6.43-3.834-6.032-8.11.733-7.858-.329-14.51-8.774-18.02-3.358-1.396-3.566-5.003-3.548-8.332.036-6.412-.008-12.824.002-19.237.006-4.115-.902-8.454 5.874-8.312 7.026.147 5.28 4.962 5.418 8.774.186 5.124.133 10.26.045 15.388-.088 5.139 3.193 8.348 7.392 8.488 4.66.155 7.004-3.56 6.8-8.598-.233-5.762.058-11.543-.08-17.31-.094-3.927.242-6.657 5.459-6.773 5.577-.123 6.423 2.577 6.134 7.074-.205 3.193-.04 6.41-.04 11.69z" class="cls-2"/><path d="M608.86 141.73c0-5.129-.108-10.261.029-15.388.157-5.891 1.16-12.04-8.336-10.443-4.364.734-3.923-2.881-4.081-5.787-.18-3.284 1.152-4.524 4.43-4.479 8.974.125 17.956.177 26.928-.024 3.754-.085 5.112 1.209 4.976 4.972-.119 3.288-.537 6.01-4.61 5.376-7.512-1.17-8.154 2.925-7.94 8.933.387 10.887.409 21.81-.055 32.691-.16 3.743 3.634 9.976-5.336 10.233-8.833.252-5.639-5.734-5.912-9.738-.371-5.425-.093-10.895-.093-16.345z" class="cls-1"/><path d="M337.43 30.796c.003-7.663.151-15.331-.055-22.99-.116-4.292 1.055-6.365 5.857-6.367 4.89-.003 5.819 2.26 5.767 6.456-.153 12.451.295 24.92-.19 37.354-.25 6.407 1.89 8.8 8.12 8.047 2.202-.267 4.468.066 6.7-.018 3.923-.148 4.775 2.09 4.738 5.468-.034 3.074-1.036 4.885-4.383 4.725-.636-.03-1.277.032-1.915.026-28.558-.268-24.328 3.369-24.638-23.121-.037-3.193-.005-6.386-.002-9.58z" class="cls-2"/><path d="M655.014 137.008c0 8.33-.145 16.666.064 24.992.097 3.853-.613 5.934-5.167 5.746-3.972-.163-6.533-.306-6.442-5.536q.445-25.467-.004-50.945c-.089-5.016 1.984-5.687 6.229-5.724 4.23-.036 5.53 1.362 5.401 5.514-.268 8.643-.08 17.3-.08 25.953z" class="cls-1"/></svg>