<svg xmlns="http://www.w3.org/2000/svg" role="img" viewBox="0.81 1.31 503.88 238.38"><title>Open Glossary of Edge Computing logo</title><path fill="#231f20" d="M38.46181 61.72907c.26873-1.33956.93647-2.01138 2.01138-2.01138h86.52992q2.00934 0 1.60829 2.01138l-4.42585 24.95084a2.139 2.139 0 0 1-2.215 2.01545H68.64468a1.06634 1.06634 0 0 0-1.2052 1.2052l-4.02275 22.13736c-.2728.80211.06514 1.20519 1.00569 1.20519h43.46447q2.00934 0 1.60828 2.01138l-4.22633 24.55183a2.2383 2.2383 0 0 1-2.41447 2.01137h-43.664c-.67588 0-1.0749.40309-1.20926 1.20927l-4.22634 23.34256c0 .80211.33387 1.2052 1.00566 1.2052h53.12644q2.00934 0 1.60828 2.01138l-4.42582 24.9549a2.138 2.138 0 0 1-2.215 2.01138H16.528c-1.34363 0-1.88108-.66775-1.60828-2.01138zm113.29263 0c.26466-1.33956.93647-2.01138 2.00731-2.01138h51.001q20.28275 0 30.9239 9.95917 10.63912 9.9612 10.6432 30.08514a141.9121 141.9121 0 0 1-1.00569 15.09347q-1.00772 9.0512-2.80941 18.61135-1.8078 9.5581-4.21819 18.51362a86.683 86.683 0 0 1-5.21981 14.79217q-8.2328 16.70379-21.4859 23.24077-13.2531 6.541-30.72439 6.539h-51.0458c-1.34363 0-1.88108-.66775-1.61235-2.01138zm27.36531 104.43687q9.05731 0 14.4868-2.81756 5.43561-2.81551 9.25885-10.464a50.53853 50.53853 0 0 0 3.22065-9.45429q1.60625-6.23566 2.91527-13.08209 1.307-6.84032 2.11317-13.078a81.63261 81.63261 0 0 0 .80618-9.66194q0-9.45428-4.62942-13.48111-4.62944-4.02478-15.0894-4.02275h-10.26454c-.67182 0-1.0749.40309-1.20927 1.2052l-13.078 73.6514q-.4031 1.20317.80618 1.2052zm82.10001-10.26046a118.44309 118.44309 0 0 1 1.10748-13.8842q1.09933-8.85576 2.91527-18.71721 1.81391-9.85737 4.22634-19.11622a77.94678 77.94678 0 0 1 5.232-14.88989q8.25113-16.90534 21.832-24.45 13.5829-7.54266 32.9027-7.5447 17.50387 0 28.47279 8.1473a38.61813 38.61813 0 0 1 14.5886 21.02984 2.50555 2.50555 0 0 1-1.40878 3.22065l-26.35962 10.464a2.38675 2.38675 0 0 1-3.01706-1.00568 19.76356 19.76356 0 0 0-5.93642-8.55446q-3.72552-2.91324-10.56583-2.91528a19.617 19.617 0 0 0-11.87282 3.51788 24.22389 24.22389 0 0 0-7.64649 9.56014 36.26233 36.26233 0 0 0-2.11317 5.83462q-1.10544 3.82936-2.215 8.754-1.10544 4.93481-2.10909 10.46405-1.01383 5.53943-1.81187 10.66355-.80617 5.13635-1.31106 9.36064a60.77773 60.77773 0 0 0-.50081 6.84031q0 7.24339 4.02275 11.57152 4.0248 4.33017 11.67332 4.32406 7.43883 0 12.37363-3.11886a20.34321 20.34321 0 0 0 7.54877-8.55039q.80007-2.00934 1.5065-4.22633a46.79546 46.79546 0 0 0 1.31106-5.43153 1.06885 1.06885 0 0 0-1.20927-1.20927h-14.08774c-1.2052 0-1.67751-.66775-1.40471-2.01138l3.82325-21.73427a2.13486 2.13486 0 0 1 2.21088-2.01137h47.28771q1.8139 0 1.40878 2.01137l-1.60828 10.061q-2.217 12.27591-4.42585 20.525a72.71112 72.71112 0 0 1-5.4356 14.49087q-8.45266 16.89922-21.63248 24.24645t-32.09245 7.34519a60.91273 60.91273 0 0 1-18.71721-2.71576 38.34115 38.34115 0 0 1-14.385-8.15137 37.14887 37.14887 0 0 1-9.25885-13.48111 48.84374 48.84374 0 0 1-3.31837-18.71316zm144.07402-94.17641c.26873-1.33956.93648-2.01138 2.01138-2.01138h86.52992q2.00934 0 1.60829 2.01138l-4.42585 24.95084a2.139 2.139 0 0 1-2.21495 2.01545h-53.32592a1.06634 1.06634 0 0 0-1.2052 1.2052l-4.02275 22.13736c-.2728.80211.06515 1.20519 1.00569 1.20519h43.46447q2.00934 0 1.60828 2.01138l-4.22633 24.55183a2.2383 2.2383 0 0 1-2.41447 2.01137h-43.664c-.67589 0-1.07491.40309-1.20927 1.20927l-4.22634 23.34256c0 .80211.33388 1.2052 1.00569 1.2052h53.12641q2.00934 0 1.60828 2.01138l-4.42581 24.9549a2.138 2.138 0 0 1-2.215 2.01138H383.36c-1.34364 0-1.88109-.66775-1.60829-2.01138zM45.21255 39.74846a15.74085 15.74085 0 0 1-3.20843-.32776 17.9582 17.9582 0 0 1-2.96007-.87743 13.67185 13.67185 0 0 1-2.47554-1.26627 8.06147 8.06147 0 0 1-1.7345-1.49225.70821.70821 0 0 1-.10179-.32777.4162.4162 0 0 1 .18322-.36644l4.16933-4.00443c.2443-.24633.44788-.25855.61074-.04072a8.64287 8.64287 0 0 0 2.63433 1.85869 8.32952 8.32952 0 0 0 3.66039.796 5.03835 5.03835 0 0 0 3.20435-.91815 2.7876 2.7876 0 0 0 1.16449-2.26788 1.64649 1.64649 0 0 0-.61075-1.32735 5.18739 5.18739 0 0 0-2.329-.798l-1.38842-.20358a10.48539 10.48539 0 0 1-5.6799-2.3086 6.10989 6.10989 0 0 1-1.96252-4.75972 10.22106 10.22106 0 0 1 .8184-4.12658 8.91142 8.91142 0 0 1 2.329-3.20843 10.73912 10.73912 0 0 1 3.61559-2.06227 14.0797 14.0797 0 0 1 4.67829-.737 15.289 15.289 0 0 1 5.20759.85911 12.31421 12.31421 0 0 1 3.98611 2.24753c.21579.16286.20358.36644-.04072.61278l-3.59523 4.12658c-.21987.21783-.42345.25854-.61482.12215a9.986 9.986 0 0 0-2.59361-1.4495 8.38012 8.38012 0 0 0-2.96414-.511 3.92594 3.92594 0 0 0-2.57326.83672 2.5386 2.5386 0 0 0-1.022 2.02359 1.68242 1.68242 0 0 0 .63517 1.34771 4.96554 4.96554 0 0 0 2.39.77564l1.3477.20561a11.01758 11.01758 0 0 1 5.6799 2.28825 5.91884 5.91884 0 0 1 1.96255 4.69865 10.57929 10.57929 0 0 1-.89983 4.45231 9.39223 9.39223 0 0 1-2.53254 3.33058 11.27623 11.27623 0 0 1-3.925 2.08467 16.91765 16.91765 0 0 1-5.06508.71456zm20.71636-.49062q-.40919 0-.3298-.4092L69.32057 17.888c.02443-.16286-.04072-.24429-.20765-.24429h-6.57566c-.3013 0-.42345-.1364-.37052-.4092l.98126-5.35213a.4385.4385 0 0 1 .45195-.4092H84.1901c.3013 0 .42345.1364.37051.4092l-.94054 5.35213a.457.457 0 0 1-.48859.4092H76.511a.25983.25983 0 0 0-.285.24429l-3.72143 20.96064a.43245.43245 0 0 1-.44788.4092zm13.31825 0c-.26873 0-.33794-.1364-.20358-.4092l14.05521-26.96629a.63452.63452 0 0 1 .57409-.4092h6.4128q.45194 0 .45194.4092l4.32813 26.96629c.057.2728-.04072.4092-.285.4092h-6.29066a.45833.45833 0 0 1-.49266-.4092l-.48859-4.41159h-8.6644l-2.08059 4.41159a.63453.63453 0 0 1-.5741.4092zM96.65331 28.635l-.98126-8.99012h-.08144L91.34392 28.635zm14.75145 10.62284q-.4092 0-.3298-.4092l3.72145-20.96064c.02443-.16286-.04071-.24429-.20765-.24429h-6.57565c-.3013 0-.42345-.1364-.37052-.4092l.98126-5.35213a.4385.4385 0 0 1 .45195-.4092h20.59014c.3013 0 .42345.1364.37052.4092l-.94054 5.35213a.457.457 0 0 1-.4886.4092h-6.62044a.25982.25982 0 0 0-.285.24429l-3.72146 20.96067a.43244.43244 0 0 1-.44787.4092zm22.34908-27.37549c.05293-.2728.19137-.4092.40716-.4092h17.569q.4092 0 .3298.4092l-.8998 5.06712a.43573.43573 0 0 1-.45195.40716h-10.82643a.21657.21657 0 0 0-.2443.24633l-.81839 4.493c-.05293.1649.01221.24633.20358.24633h8.82726c.2728 0 .38273.1364.32573.4092l-.85911 4.98365a.45216.45216 0 0 1-.4886.4092h-8.868q-.20154 0-.2443.24429l-.85911 4.73936c0 .1649.06922.24633.20765.24633h10.78571c.2728 0 .38273.1364.32573.4092l-.89983 5.06509a.43245.43245 0 0 1-.44788.4092H129.2995c-.2728 0-.38273-.1364-.32573-.4092zm43.46447 27.86611a9.83376 9.83376 0 0 1-6.70187-2.20681q-2.53458-2.20477-2.53255-6.537a23.95644 23.95644 0 0 1 .22394-2.8196c.14658-1.19909.34609-2.46536.59039-3.80085a54.22136 54.22136 0 0 1 .85911-3.88024 15.70819 15.70819 0 0 1 1.06267-3.02518 10.82708 10.82708 0 0 1 4.4747-4.9633 13.34964 13.34964 0 0 1 6.51458-1.533 9.844 9.844 0 0 1 6.70188 2.20681q2.53458 2.20784 2.53254 6.537a23.92482 23.92482 0 0 1-.22394 2.81959q-.226 1.79864-.59038 3.80085-.37256 2.00017-.85911 3.88025a15.70868 15.70868 0 0 1-1.06269 3.02521 11.06779 11.06779 0 0 1-4.51542 4.96329 13.255 13.255 0 0 1-6.47385 1.53298zm.81432-6.17052a3.9046 3.9046 0 0 0 2.36968-.71457 4.91985 4.91985 0 0 0 1.55536-1.94013 12.47836 12.47836 0 0 0 .6311-2.04395q.34812-1.42913.65553-3.04353.30537-1.61541.50895-3.14735a18.56144 18.56144 0 0 0 .20358-2.30861 3.42341 3.42341 0 0 0-.77361-2.34932 2.89935 2.89935 0 0 0-2.28824-.87743 3.9046 3.9046 0 0 0-2.36968.71457 4.91982 4.91982 0 0 0-1.55536 1.94012 12.14838 12.14838 0 0 0-.6311 2.044q-.34812 1.43219-.65553 3.04353-.30537 1.61541-.50895 3.14736a18.59455 18.59455 0 0 0-.20358 2.3086 3.42341 3.42341 0 0 0 .77361 2.34932 2.89256 2.89256 0 0 0 2.28824.87739zm19.36867-21.69559c.05293-.2728.19136-.4092.40716-.4092h17.569q.4092 0 .3298.4092l-.89983 5.06712a.43573.43573 0 0 1-.452.40716h-10.82636a.21656.21656 0 0 0-.24429.24633l-.89983 4.86151c0 .16286.06922.24429.20358.24429h8.82726c.2728 0 .37866.13844.32573.4092l-.85911 4.98569a.45056.45056 0 0 1-.4886.40716h-8.82725a.26368.26368 0 0 0-.285.24634L199.486 38.84864c-.057.2728-.19136.4092-.41123.4092h-6.12778c-.2728 0-.38273-.1364-.32573-.4092zm38.84319 27.37549q-.4092 0-.32981-.4092l3.72146-20.96064c.02443-.16286-.04072-.24429-.20765-.24429h-6.57566c-.3013 0-.42345-.1364-.37052-.4092l.98126-5.35213a.4385.4385 0 0 1 .45195-.4092h20.59015c.3013 0 .42345.1364.37052.4092l-.94055 5.35213a.457.457 0 0 1-.48859.4092h-6.62044a.25983.25983 0 0 0-.285.24429l-3.72145 20.96067a.43245.43245 0 0 1-.44788.4092zm22.34908-27.37549a.43245.43245 0 0 1 .44788-.4092h6.12777q.4092 0 .3298.4092l-1.75893 9.96934c-.05293.16286 0 .2443.16286.2443h7.35741c.13436 0 .228-.08144.285-.2443l1.75486-9.96934a.43851.43851 0 0 1 .452-.4092h6.1685q.45195 0 .36644.4092l-4.78007 26.96629a.43356.43356 0 0 1-.452.4092h-6.16442c-.3013 0-.42345-.1364-.37052-.4092l1.84037-10.33783c.0285-.16286-.04072-.24429-.20358-.24429h-7.35741q-.20154 0-.24429.24429L260.719 38.84864c-.057.2728-.19137.4092-.41123.4092h-6.12778q-.452 0-.36644-.4092zm27.04772 0c.05293-.2728.19137-.4092.40717-.4092h17.569q.40918 0 .3298.4092l-.89983 5.06712a.43573.43573 0 0 1-.452.40716h-10.82636a.21657.21657 0 0 0-.2443.24633l-.81839 4.493c-.05293.1649.01222.24633.20358.24633h8.82726c.2728 0 .38273.1364.32573.4092l-.85911 4.98365a.45215.45215 0 0 1-.4886.4092h-8.868q-.20154 0-.2443.24429l-.85911 4.73936c0 .1649.06922.24633.20766.24633h10.7857c.2728 0 .38273.1364.32573.4092l-.89983 5.06509a.43245.43245 0 0 1-.44788.4092H281.187c-.2728 0-.38273-.1364-.32573-.4092z"/><path fill="#e03821" d="M466.445 230.351H10.722l3.387-10.918h455.724l-3.388 10.918z"/></svg>