<svg xmlns="http://www.w3.org/2000/svg" role="img" viewBox="-6.45 -6.45 335.66 168.66"><title>OpenStack Foundation (member) logo</title><g fill="#ed1844"><path d="M123 0h65v16h-65zm65 0h1v22h-1z"/><path d="M122 1h66v15h-66z"/><path d="M120 2h71v14h-71zm71 0h1v20h-1z"/><path d="M117 3h75v1h-75zm75 0h1v19h-1z"/><path d="M118 4h75v12h-75zm75 0h1v18h-1z"/><path d="M117 6h76v10h-76zm0 10h76v1h-76zm0 1h17v1h-17zm17 0h1v1h-1zm42 0h17v1h-17zm-59 1h16v2h-16zm16 0h1v1h-1zm45 0h15v1h-15zm0 1h15v1h-15zm-61 1h15v2h-15zm15 0h1v1h-1zm47 0h14v2h-14zm-62 2h14v1h-14zm14 0h1v1h-1zm48 0h14v1h-14zm14 0h1v1h-1zm-77 2h1v1h-1zm62 0h1v1h-1zm-45 6h1v1h-1zm-15 2h14v14h-14zm14 0h1v14h-1zm47 0h14v14h-14zm14 0h1v14h-1zm-75 14h14v1h-14zm14 0h1v1h-1zm47 0h14v1h-14zm14 0h1v1h-1zm2 1h1v1h-1zm-77 8h14v18h-14zm14 0h1v21h-1zm47 0h15v18h-15zm15 0h1v16h-1zm-61 4h1v17h-1z"/><path d="M178 59h16v14h-16zm-44 1h1v16h-1z"/><path d="M177 60h17v13h-17zm-42 1h1v15h-1zm1 0h1v15h-1z"/><path d="M175 61h19v12h-19z"/><path d="M137 62h57v11h-57zm57 9h1v1h-1zm-76 2h75v1h-75zm75 0h1v1h-1zm-74 1h73v1h-73zm73 0h2v1h-2zm2 0h1v1h-1zm-74 1h71v1h-71zm71 0h1v1h-1zm-69 1h67v1h-67zm67 0h1v1h-1zm1 1h1v1h-1z"/></g><path d="M195 6h1v1h-1zm-18 14h1v1h-1zm-61 52h1v1h-1z" fill="#f37e90"/><path d="M55 106h1v1h-1zm110 0h2v1h-2zm2 0h1v1h-1zm82 5h1v1h-1zm-82 1h1v1h-1zm-22 2h1v1h-1zm122 0h1v1h-1zm-187 2h1v1h-1zm210 3h1v1h-1zm-61 3h1v1h-1zM0 123h1v1H0zm47 0h1v1h-1zm39 0h1v1h-1zm128 0h1v1h-1zm81 0h1v1h-1zM0 127h1v1H0zm218 1h1v1h-1zm-139 3h1v1h-1zm26 4h1v1h-1zm165 0h1v1h-1zm-247 1h1v1h-1zm80 0h1v1h-1zM3 137h1v1H3zm57 0h1v1h-1zm169 0h1v1h-1zm-182 2h1v1h-1zm174 0h1v1h-1zm78 2h1v1h-1zm15 1h1v1h-1zm-46 1h1v1h-1zm-206 1h1v1h-1zm109 0h1v1h-1zm94 0h1v1h-1z" fill="#5c5550"/><path d="M98 106h1v1h-1zm124 0h1v1h-1zm-157 1h1v1h-1zm147 3h1v1h-1zm85 0h1v1h-1zm-113 1h1v1h-1zm52 0h1v1h-1zm69 0h1v1h-1zm-139 1h1v1h-1zm-12 2h1v1h-1zm-46 1h1v1h-1zm-36 1h1v1h-1zm-7 4h1v1h-1zm156 1h1v1h-1zm2 5h1v1h-1zm68 2h1v1h-1zM8 130h1v1H8zm18 1h1v1h-1zm183 1h1v1h-1zM1 133h1v1H1zm103 2h1v1h-1zm-91 2h1v1h-1zm304 0h1v1h-1zm-224 1h1v1h-1zm213 0h1v1h-1zm-256 3h1v1h-1zm55 1h1v1h-1zm165 0h1v1h-1zm-56 1h1v1h-1zm86 0h1v1h-1z" fill="#716b67"/><path d="M191 0h1v1h-1zm-73 1h1v1h-1zm-1 1h1v1h-1zm19 16h1v1h-1zm40 1h1v1h-1zm1 38h1v1h-1zm-41 2h1v1h-1zm58 16h1v1h-1z" fill="#fbdae0"/><path d="M133 22h1v1h-1zm0 1h1v1h-1zm-17 32h1v15h-1zm0 15h1v1h-1z" fill="#ef3659"/><path d="M189 97h4v1h-4zm4 0h1v1h-1zm-5 9h1v1h-1zm6 0h1v1h-1zm-181 1h1v1h-1zm8 0h1v1h-1zm26 0h1v1h-1zm8 0h1v1h-1zm8 0h1v1h-1zm28 0h1v1h-1zm7 0h1v1h-1zm33 0h1v1h-1zm6 0h1v1h-1zm27 0h1v1h-1zm1 0h3v1h-3zm3 0h1v1h-1zm4 0h1v1h-1zm15 0h1v1h-1zm8 0h1v1h-1zm26 0h5v1h-5zm5 0h1v1h-1zm31 0h1v1h-1zm9 0h1v1h-1zm-242 1h1v1h-1zm41 0h1v1h-1zm23 0h1v1h-1zm13 0h1v1h-1zm15 0h1v34h-1zm24 0h1v1h-1zm20 0h1v1h-1zm56 0h1v1h-1zm38 0h1v1h-1zm-228 1h1v1h-1zm149 0h1v1h-1zm123 0h1v1h-1zM6 110h1v1H6zm1 0h1v1H7zm78 0h1v1h-1zm128 0h1v1h-1zm21 0h1v1h-1zm1 0h1v1h-1zm16 0h1v1h-1zm47 0h1v1h-1zm-242 1h1v1h-1zm1 0h1v1h-1zm27 0h1v1h-1zm9 0h2v1h-2zm2 0h1v1h-1zm48 0h1v1h-1zm22 0h2v1h-2zm2 0h1v1h-1zm18 0h1v1h-1zm50 0h1v1h-1zm15 0h1v1h-1zM5 112h1v1H5zm50 0h1v1h-1zm5 0h1v1h-1zm38 0h1v1h-1zm30 0h1v1h-1zm6 0h1v1h-1zm53 0h1v1h-1zm8 0h1v1h-1zm24 0h1v1h-1zm7 0h1v1h-1zm32 0h1v1h-1zm7 0h1v1h-1zm38 0h1v1h-1zm-290 1h1v1h-1zm8 0h1v1h-1zm9 0h1v1h-1zm76 0h1v1h-1zm65 0h1v1h-1zm17 0h1v1h-1zm6 0h1v1h-1zm20 0h1v1h-1zm14 0h1v1h-1zm39 0h1v1h-1zm-196 1h1v2h-1zm10 0h1v2h-1zm74 0h1v1h-1zm60 0h1v1h-1zm32 0h1v1h-1zm8 0h1v1h-1zm40 0h1v1h-1zM3 115h1v1H3zm29 0h1v2h-1zm75 0h1v1h-1zm53 0h1v1h-1zm94 0h1v1h-1zm-183 1h1v1h-1zm10 0h1v1h-1zm57 0h1v2h-1zm93 0h1v1h-1zm15 0h1v2h-1zm-214 1h1v1h-1zm76 1h1v1h-1zm30 0h1v1h-1zm94 0h1v1h-1zm14 0h1v1h-1zm7 0h1v1h-1zm45 0h1v1h-1zm-251 1h1v1h-1zm33 0h1v1h-1zm23 0h1v1h-1zm36 0h1v23h-1zm15 0h1v1h-1zm7 0h1v1h-1zm130 0h1v1h-1zM7 120h1v1H7zm26 0h1v1h-1zm33 0h1v1h-1zm6 0h1v1h-1zm83 0h1v1h-1zM1 121h1v1H1zm71 0h1v1h-1zm13 0h1v1h-1zm-84 1h1v1H1zm46 0h1v1h-1zm173 0h4v1h-4zm4 0h1v1h-1zm8 0h1v1h-1zm19 0h1v1h-1zm-148 1h1v1h-1zm113 0h1v1h-1zm15 0h1v1h-1zm20 0h1v1h-1zm43 0h1v1h-1zm-248 1h1v2h-1zm41 0h15v1H87zm15 0h1v1h-1zm68 0h1v1h-1zm44 0h1v1h-1zm-42 1h1v1h-1zm51 0h3v1h-3zm3 0h1v1h-1zm-180 1h1v1h-1zm184 0h1v1h-1zm-203 1h1v1h-1zm60 0h21v1H87zm21 0h1v1h-1zm56 0h1v1h-1zm54 0h1v1h-1zm33 0h1v1h-1zm-204 1h1v1h-1zm119 0h1v1h-1zm51 0h1v1h-1zm34 0h1v1h-1zm46 0h1v1h-1zM1 129h1v1H1zm33 0h1v1h-1zm38 0h1v1h-1zm96 0h1v1h-1zm121 0h1v1h-1zm7 0h1v1h-1zM7 130h1v1H7zm26 0h1v1h-1zm33 0h1v1h-1zm20 0h1v1h-1zm91 0h1v1h-1zm118 0h1v2h-1zm-268 1h1v1h-1zm20 0h1v1h-1zm124 0h1v1h-1zm39 0h1v4h-1zm91 0h1v1h-1zm-55 1h1v1h-1zm7 0h1v1h-1zm42 0h1v1h-1zM2 133h1v2H2zm46 0h1v1h-1zm16 0h1v1h-1zm222 0h1v1h-1zm16 0h1v1h-1zm-231 1h1v1h-1zm161 0h1v1h-1zm64 0h1v1h-1zM2 135h1v1H2zm192 0h1v1h-1zm16 0h1v1h-1zm44 0h1v1h-1zm-230 1h1v1h-1zm192 0h1v1h-1zm40 0h1v1h-1zM4 137h1v1H4zm19 0h1v1h-1zm8 0h1v1h-1zm72 0h1v1h-1zm75 0h1v1h-1zm52 0h1v1h-1zm37 0h1v1h-1zm-254 1h1v1h-1zm40 0h1v1h-1zm7 0h1v1h-1zm9 0h1v1h-1zm14 0h1v1h-1zm8 0h1v1h-1zm138 0h1v1h-1zm20 0h1v1h-1zm9 0h1v1h-1zm7 0h1v1h-1zm40 0h1v1h-1zm-289 1h1v1h-1zm3 0h1v1h-1zm65 0h1v1h-1zm9 0h1v1h-1zm6 0h1v1h-1zm63 0h1v1h-1zm7 0h1v1h-1zm50 0h1v1h-1zm31 0h1v1h-1zm-165 1h1v1h-1zm127 0h1v1h-1zm9 0h1v1h-1zm4 0h1v1h-1zm7 0h1v1h-1zm19 0h1v1h-1zM8 141h1v1H8zm97 0h1v1h-1zm165 0h1v1h-1zm30 0h1v1h-1zm-212 1h1v1h-1zm15 0h1v1h-1zm13 0h1v1h-1zm23 0h1v1h-1zm75 0h1v1h-1zm13 0h1v1h-1zm27 0h1v1h-1zm14 0h1v1h-1zm-256 1h1v1h-1zm10 0h1v1h-1zm31 0h2v1h-2zm2 0h1v1h-1zm7 0h1v1h-1zm55 0h5v1h-5zm5 0h1v1h-1zm18 0h4v1h-4zm4 0h1v1h-1zm16 0h1v1h-1zm11 0h1v1h-1zm20 0h2v1h-2zm2 0h1v1h-1zm8 0h1v1h-1zm15 0h1v1h-1zm17 0h4v1h-4zm4 0h1v1h-1zm20 0h1v1h-1zm8 0h1v1h-1zm36 0h1v1h-1zm7 0h1v1h-1z" fill="#484039"/><path d="M41 106h4v1h-4zm4 0h2v1h-2zm2 0h1v1h-1zm16 0h1v1h-1zm106 0h1v1h-1zm58 0h1v1h-1zm6 2h1v1h-1zm-72 7h1v1h-1zm77 0h1v1h-1zm7 3h1v1h-1zm-107 3h1v22h-1zm87 0h1v1h-1zm-152 9h1v1h-1zm6 2h1v1h-1zm208 1h1v1h-1zm-277 1h1v1h-1zm258 1h1v1h-1zm48 0h2v1h-2zm2 0h1v1h-1zm-22 1h1v1h-1zm-280 2h1v1h-1zm206 1h2v1h-2zm2 0h1v1h-1zm93 0h2v1h-2zm2 0h1v1h-1zm-131 1h1v1h-1zm64 2h1v1h-1zm-187 1h1v1h-1zm73 0h1v1h-1zm19 0h1v1h-1z" fill="#8d8986"/><path d="M138 106h1v1h-1zm25 0h1v1h-1zm57 0h1v1h-1zm-47 1h1v1h-1zm-46 1h1v1h-1zm145 1h1v1h-1zm-223 1h1v1h-1zm247 1h1v1h-1zm-112 1h1v1h-1zm-131 1h1v1h-1zm92 0h1v1h-1zm71 1h1v1h-1zm-42 1h1v1h-1zM1 117h1v1H1zm48 0h1v1h-1zm112 0h1v1h-1zm70 2h1v1h-1zm-205 1h1v1h-1zm76 0h1v1h-1zM0 121h1v1H0zm166 0h1v1h-1zm-80 1h1v1h-1zm145 0h1v1h-1zm-121 3h1v2h-1zm0 2h1v1h-1zm100 0h1v1h-1zm82 0h1v1h-1zm-204 7h1v1h-1zm107 0h1v1h-1zm74 0h1v1h-1zm-98 2h1v1h-1zm47 1h1v1h-1zm-200 1h1v1h-1zm298 0h1v1h-1zm-287 2h1v1h-1zm287 1h1v1h-1zm-226 3h1v1h-1zm176 0h1v1h-1z" fill="#94908d"/><path d="M121 0h1v1h-1zm74 7h1v16h-1zm0 16h1v1h-1zm-78 30h15v1h-15zm15 0h1v1h-1zm46 0h17v1h-17zm17 0h1v1h-1z" fill="#f26d81"/><path d="M116 3h1v1h-1zm-1 3h1v1h-1zm62 25h1v15h-1zm0 15h1v1h-1zm0 7h1v2h-1zm19 0h1v17h-1zm-19 2h1v1h-1zm-42 3h1v1h-1zm61 12h1v1h-1zm-74 8h1v1h-1zm165 14h1v1h-1zm-29 13h1v1h-1zm-205 1h1v1h-1zm161 1h1v1h-1zm-129 1h1v1h-1zm149 0h1v1h-1zm-78 1h1v1h-1zm141 0h1v1h-1zm8 3h1v1h-1zm-233 2h1v1h-1zm221 0h1v1h-1zm-78 1h1v1h-1zm-115 1h1v1h-1zm-90 1h1v1h-1zm143 1h1v1h-1zm-75 2h1v1h-1zm79 5h1v1h-1zm-109 3h1v1h-1zm243 1h1v1h-1zm3 0h1v1h-1zm-284 4h1v1h-1zm78 0h1v1h-1zm15 2h1v1h-1zm-83 2h1v1h-1zm133 0h1v1h-1zm34 2h1v1h-1zm125 2h1v1h-1zm10 0h1v1h-1zm-237 1h1v1h-1zm69 0h1v1h-1zm161 0h1v1h-1zm-111 1h1v1h-1zm-194 1h1v1h-1zm14 0h1v1h-1zm149 0h1v1h-1zm18 0h1v1h-1zm3 1h1v1h-1zm70 0h1v1h-1z" fill="#fffeff"/><path d="M287 93h1v27h-1zM89 106h1v1h-1zm50 0h1v1h-1zm32 0h1v1h-1zm47 0h1v1h-1zm-94 1h1v2h-1zm35 0h1v1h-1zm17 1h1v1h-1zm122 0h1v1h-1zm-174 1h1v1h-1zm-17 3h1v1h-1zm-48 1h1v1h-1zm110 0h1v1h-1zm-79 1h1v1h-1zm127 0h1v1h-1zm40 0h1v1h-1zm14 0h1v1h-1zm-182 1h1v1h-1zm-39 1h1v1h-1zm29 1h1v1h-1zm58 0h1v1h-1zm-50 2h1v1h-1zm76 0h1v1h-1zm136 0h1v1h-1zm-46 1h1v1h-1zm34 0h1v1h-1zm-163 1h1v22h-1zM8 123h1v1H8zm163 0h1v1h-1zm-106 1h1v2h-1zm0 2h1v1h-1zm-57 1h1v1H8zm18 2h1v1h-1zm227 1h1v1h-1zm-166 1h1v1h-1zm82 0h1v1h-1zm48 0h1v1h-1zm-183 1h1v1h-1zm145 0h1v1h-1zm-8 3h1v1h-1zm116 0h1v9h-1zm-185 1h1v1h-1zm94 0h1v1h-1zm-182 1h1v1h-1zm150 1h1v1h-1zm154 0h1v1h-1zm-6 1h1v1h-1zm0 1h1v1h-1zM7 142h1v1H7zm205 0h1v1h-1zm-88 1h1v1h-1zm129 0h1v1h-1zm-164 1h1v1h-1zm198 0h1v1h-1zm13 0h1v1h-1zm-242 1h1v1h-1zm1 0h1v1h-1zm103 0h1v1h-1zm34 0h1v1h-1zm22 0h1v1h-1zm43 0h1v1h-1zm1 0h1v1h-1z" fill="#dcdbda"/><path d="M21 106h1v1h-1zm143 0h1v1h-1zm4 0h1v1h-1zm19 0h1v1h-1zm8 0h1v1h-1zm-20 2h1v1h-1zm97 4h1v1h-1zm-174 1h1v1h-1zm36 0h1v1h-1zm92 0h1v1h-1zm67 2h1v1h-1zm-184 3h1v1h-1zM0 122h1v1H0zm155 0h1v1h-1zm70 4h1v1h-1zm74 0h1v1h-1zm-190 2h1v1h-1zm-23 1h1v1h-1zm92 1h1v1h-1zm117 4h1v1h-1zm-37 3h1v1h-1zm-239 1h1v1h-1zm208 5h1v1h-1zm27 0h1v1h-1zm-242 1h1v1h-1zm10 0h1v1h-1zm33 0h1v1h-1zm68 0h1v1h-1zm16 0h1v1h-1zm6 0h1v1h-1zm15 0h1v1h-1z" fill="#726d69"/><path d="M195 5h1v1h-1zm-20 13h1v1h-1zm20 55h1v1h-1zm-75 4h1v1h-1z" fill="#f7a9b4"/><path d="M280 92h5v1h-5zm5 0h1v1h-1zM61 105h1v1h-1zm33 0h1v1h-1zm1 0h1v1h-1zm-72 1h1v1h-1zm77 0h1v1h-1zm155 0h1v1h-1zm-216 1h1v47h-1zm27 0h1v1h-1zm36 0h1v1h-1zm39 0h1v1h-1zm63 0h1v5h-1zm28 0h1v1h-1zm77 0h1v1h-1zm-97 1h1v1h-1zm-88 2h1v1h-1zm-93 2h1v1h-1zm173 0h1v1h-1zm-189 1h1v1h-1zm4 0h1v1h-1zm111 0h2v1h-2zm2 0h1v1h-1zm162 0h1v1h-1zm10 0h1v1h-1zM2 114h1v1H2zm160 0h1v1h-1zm-36 1h1v1h-1zM1 116h1v1H1zm254 0h1v1h-1zm-221 2h1v1h-1zm76 2h1v1h-1zm-32 1h1v1h-1zm209 0h1v1h-1zM8 124h1v2H8zm0 2h1v1H8zm159 4h1v1h-1zm77 0h1v1h-1zm46 0h1v1h-1zm-241 2h1v1h-1zm122 2h1v1h-1zm124 1h1v1h-1zm-237 2h1v1h-1zm162 1h1v1h-1zm100 0h1v1h-1zm-71 2h1v1h-1zm70 0h1v1h-1zm-235 1h1v1h-1zm230 0h1v1h-1zm-158 2h1v1h-1zm-32 1h1v1h-1zm131 0h1v1h-1zm-198 1h1v1h-1zm3 0h1v1h-1zm135 0h1v1h-1zm28 0h1v1h-1zm40 0h1v1h-1zm-224 9h1v1h-1z" fill="#e6e5e4"/><path d="M60 105h1v1h-1zm200 0h1v1h-1zm-132 2h1v1h-1zm55 1h1v1h-1zm-135 3h1v1h-1zm174 2h1v1h-1zm1 0h1v1h-1zm41 0h1v1h-1zm-156 1h1v1h-1zm27 0h1v1h-1zm41 0h1v1h-1zm37 0h1v1h-1zm25 0h1v1h-1zm65 0h1v1h-1zm-241 1h1v1h-1zm74 0h1v1h-1zm109 2h1v1h-1zm46 0h1v1h-1zm-218 1h1v1h-1zm-47 3h1v1h-1zm84 0h1v1h-1zm134 0h1v1h-1zm-166 1h1v1h-1zm133 3h1v1h-1zm89 2h1v1h-1zM8 128h1v1H8zm201 1h1v1h-1zm35 0h1v1h-1zM0 131h1v1H0zm289 0h1v1h-1zm-210 2h1v1h-1zm100 0h1v1h-1zm-107 2h1v1h-1zm85 0h1v1h-1zm73 0h1v1h-1zm-21 2h1v1h-1zm55 0h1v1h-1zm-112 2h1v1h-1zm121 1h1v1h-1zm-120 1h1v1h-1zm164 0h1v1h-1zm1 0h1v1h-1zm-251 1h1v1h-1zm232 0h1v1h-1zm-109 1h1v1h-1zm12 1h1v1h-1zm113 0h1v1h-1zm4 0h1v1h-1zm-150 1h1v1h-1zm53 0h1v1h-1z" fill="#cccac9"/><path fill="#f8b4bf" d="M120 0h1v1h-1z"/><path d="M134 19h1v1h-1zm-1 34h1v1h-1zm44 5h1v1h-1zm-1 1h1v1h-1z" fill="#f05871"/><path d="M189 0h1v1h-1zm-54 59h1v1h-1zm3 1h35v1h-35zm35 0h1v1h-1z" fill="#ef3e5e"/><path d="M193 2h1v1h-1zm-58 16h1v1h-1zm-19 53h1v1h-1zm79 1h1v1h-1zm-78 2h1v1h-1z" fill="#f04d69"/><path d="M187 96h1v1h-1zM22 106h1v1h-1zm77 0h1v1h-1zm85 0h2v1h-2zm2 0h1v1h-1zm10 0h6v1h-6zm6 0h1v1h-1zm-99 2h1v1h-1zm-34 2h1v1h-1zm56 0h1v1h-1zm52 2h1v1h-1zm-163 1h1v1h-1zm6 0h1v1h-1zm51 0h1v1h-1zm83 0h1v1h-1zm71 0h1v1h-1zm-202 2h1v1h-1zm206 0h1v1h-1zm17 0h1v1h-1zm56 0h1v1h-1zm-48 2h1v1h-1zM9 118h1v1H9zm64 1h1v1h-1zm158 1h1v1h-1zm57 1h1v1h-1zm-1 1h1v1h-1zm-43 1h1v1h-1zm-70 2h1v1h-1zm46 2h1v1h-1zm81 2h1v1h-1zm-267 2h1v1h-1zm-25 1h1v1H9zm245 1h1v1h-1zm-67 3h1v1h-1zm131 0h1v1h-1zm-297 1h1v1h-1zm60 0h1v1h-1zm166 0h1v1h-1zm-153 1h1v1h-1zm-64 1h1v1h-1zm180 0h1v1h-1zm-182 2h1v1h-1zm203 0h1v1h-1zM9 143h1v1H9zm307 0h2v1h-2zm2 0h1v1h-1zm-62 1h1v1h-1zm-92 1h1v1h-1z" fill="#a9a6a4"/><path d="M188 98h1v7h-1zm6 0h1v7h-1zm-6 7h1v1h-1zm6 0h1v1h-1zm-174 1h1v1h-1zm21 1h5v1h-5zm5 0h1v1h-1zm44 0h1v1h-1zm48 0h1v1h-1zm25 0h1v1h-1zm6 0h1v1h-1zm51 0h1v1h-1zm7 0h1v1h-1zm-217 1h1v1h-1zm163 0h1v1h-1zm58 0h1v1h-1zm38 0h1v1h-1zm1 0h1v1h-1zm-184 1h1v1h-1zm127 0h1v1h-1zm20 0h1v1h-1zm-76 1h1v1h-1zm-34 1h1v1h-1zm181 0h1v1h-1zm-251 1h1v1h-1zm5 0h1v1h-1zm25 0h1v1h-1zm87 0h1v1h-1zm50 0h1v1h-1zm29 0h1v1h-1zm-237 1h1v1h-1zm10 0h1v1h-1zm122 0h1v1h-1zm18 0h1v1h-1zm54 0h2v1h-2zm2 0h1v1h-1zm-129 1h1v1h-1zm37 0h1v1h-1zm62 0h1v21h-1zm6 0h1v20h-1zm74 0h1v1h-1zm-167 1h1v1h-1zm136 0h1v1h-1zm57 0h1v1h-1zM9 116h1v1H9zm16 0h1v1h-1zm-23 1h1v1H2zm46 0h1v1h-1zm54 0h1v1h-1zm58 0h1v1h-1zm-80 1h1v1h-1zm6 0h1v2h-1zm37 0h1v1h-1zm-14 1h1v1h-1zm123 0h1v1h-1zm20 0h1v1h-1zm-225 1h1v1h-1zm52 0h1v1h-1zm7 0h1v1h-1zm17 0h1v1h-1zm187 0h1v1h-1zM7 121h1v1H7zm59 0h1v1h-1zm98 0h1v1h-1zm-79 1h1v1h-1zm71 0h1v1h-1zm10 0h1v1h-1zm53 0h1v1h-1zm6 0h1v1h-1zm1 0h1v1h-1zm60 0h1v1h-1zm9 0h1v1h-1zm-186 1h1v3h-1zm59 0h1v1h-1zm62 0h1v1h-1zm15 0h1v4h-1zm-87 1h1v1h-1zm93 0h1v2h-1zm-142 2h1v1h-1zm118 0h1v1h-1zm24 0h1v1h-1zm-76 1h1v1h-1zm36 0h1v1h-1zm34 0h1v1h-1zm45 1h1v1h-1zm6 0h1v1h-1zM7 129h1v1H7zm59 0h1v1h-1zm-65 1h1v1H1zm71 0h1v1h-1zm138 0h1v1h-1zm6 0h1v1h-1zm29 1h1v1h-1zm7 0h1v1h-1zm-172 1h1v2h-1zm6 0h1v1h-1zm-77 1h1v1H9zm17 0h1v1h-1zm206 0h1v1h-1zM9 134h1v1H9zm55 0h1v1h-1zm16 0h1v1h-1zm7 0h1v1h-1zm107 0h1v1h-1zm-113 1h1v1h-1zm107 0h1v1h-1zm59 0h1v1h-1zm-143 1h1v1h-1zm1 0h1v1h-1zm67 0h1v1h-1zm38 0h1v2h-1zm60 0h1v1h-1zm27 0h1v1h-1zm7 0h1v1h-1zm-150 1h1v1h-1zm4 0h1v1h-1zm38 0h1v1h-1zm-95 1h1v1h-1zm53 0h1v1h-1zm6 0h1v1h-1zm17 0h1v1h-1zm33 0h1v1h-1zm-193 1h1v1h-1zm1 0h1v1h-1zm65 0h1v1h-1zm11 0h1v1h-1zm4 0h1v1h-1zm90 0h1v1h-1zm39 0h1v1h-1zm22 0h1v1h-1zm49 0h1v1h-1zm15 0h1v1h-1zm-124 1h1v1h-1zm33 0h2v1h-2zm2 0h1v1h-1zm89 0h1v1h-1zm8 0h1v1h-1zm-166 1h1v1h-1zm77 0h1v1h-1zm20 0h1v1h-1zm-187 1h1v1h-1zm92 0h1v1h-1zm75 0h1v1h-1zm-222 1h1v1h-1zm14 0h1v1h-1zm66 0h1v1h-1zm11 0h1v1h-1zm15 0h1v1h-1zm57 0h1v1h-1zm52 0h1v1h-1zm41 0h1v1h-1zm-101 1h2v1h-2zm2 0h1v1h-1zm33 0h1v1h-1z" fill="#453c35"/><path d="M123 107h1v1h-1zm80 0h1v1h-1zm105 0h1v1h-1zm-105 5h1v1h-1zm11 2h1v1h-1zm55 1h1v1h-1zm29 11h1v1h-1zm17 10h1v1h-1zm6 2h1v1h-1zm-48 1h1v1h-1zM7 141h1v1H7zm314 0h1v1h-1zm-35 3h1v1h-1zm15 0h1v1h-1zM40 154h1v1h-1z" fill="#2f2218"/><path d="M189 1h1v1h-1zm-70 1h1v1h-1zm-2 3h1v1h-1zm60 13h1v1h-1zm-45 3h1v1h-1zm0 1h1v1h-1zm-15 1h14v1h-14zm14 0h1v1h-1zm48 0h14v1h-14zm14 0h1v1h-1zm-75 8h14v1h-14zm14 0h1v1h-1zm47 0h14v1h-14zm14 0h1v1h-1zm-76 1h1v14h-1zm77 0h1v14h-1zm-77 14h1v1h-1zm77 0h1v1h-1zm-77 9h1v16h-1zm16 3h1v1h-1zm2 2h1v1h-1zm2 1h37v1h-37zm37 0h1v1h-1zm-57 10h1v1h-1zm75 4h1v1h-1zm-71 1h1v1h-1zm69 0h1v1h-1z" fill="#ed1341"/><path d="M116 6h1v1h-1zm21 11h1v1h-1zm41 30h1v1h-1zm-45 7h1v1h-1zm-11 23h1v1h-1zm67 0h1v1h-1z" fill="#ec0029"/><path d="M195 24h1v1h-1zm-79 29h1v1h-1z" fill="#f3778b"/><path d="M280 93h1v1h-1zM15 106h1v1h-1zm1 0h3v1h-3zm3 0h1v1h-1zm37 0h1v1h-1zm5 0h1v1h-1zm31 0h1v1h-1zm1 0h1v1h-1zm40 0h3v1h-3zm3 0h1v1h-1zm122 0h1v1h-1zm7 0h1v1h-1zm-242 1h1v1h-1zm17 0h1v1h-1zm24 0h1v1h-1zm36 0h1v1h-1zm39 0h1v1h-1zm45 0h1v1h-1zm71 0h1v1h-1zm45 0h1v1h-1zm-275 1h1v1h-1zm27 0h1v1h-1zm14 0h1v1h-1zm21 0h1v1h-1zm15 0h1v1h-1zm26 0h1v1h-1zm13 0h1v1h-1zm18 0h1v1h-1zm15 0h1v1h-1zm58 0h1v1h-1zm21 0h1v1h-1zm46 0h1v1h-1zm8 0h1v1h-1zm-240 1h1v1h-1zm75 0h1v1h-1zm34 0h1v1h-1zm95 0h1v1h-1zm35 0h1v1h-1zm-278 1h1v1h-1zm40 0h1v1h-1zm75 0h1v1h-1zm-114 1h1v1h-1zm20 0h1v1h-1zm20 0h1v1h-1zm37 1h1v1h-1zm38 0h1v1h-1zm41 0h1v1h-1zm111 0h1v1h-1zm-244 1h1v1h-1zm38 0h1v1h-1zm37 0h1v1h-1zm100 0h1v1h-1zm21 0h1v1h-1zm9 0h1v1h-1zm9 0h1v1h-1zm29 0h1v1h-1zM3 114h1v1H3zm172 0h1v1h-1zm95 0h1v1h-1zm32 0h1v1h-1zm-239 1h1v1h-1zm74 0h1v1h-1zM2 116h1v1H2zm47 0h1v1h-1zm59 0h1v1h-1zm46 0h1v2h-1zm-74 1h1v1h-1zm151 0h1v1h-1zm7 0h1v1h-1zm54 0h1v1h-1zm-244 1h1v1h-1zm54 0h1v1h-1zm52 0h1v1h-1zm144 1h1v1h-1zm-189 1h1v1h-1zm54 0h1v1h-1zm82 0h1v1h-1zm52 0h1v1h-1zm-218 1h1v1h-1zm76 0h1v1h-1zm97 0h1v1h-1zm-218 1h1v1h-1zm194 0h1v1h-1zm-59 1h1v1h-1zm-96 1h1v2h-1zm98 0h1v1h-1zm42 0h1v1h-1zm-1 1h1v1h-1zm81 0h1v1h-1zm-220 1h1v1h-1zm219 0h1v1h-1zm7 1h1v1h-1zm-272 1h1v1h-1zm7 0h1v1h-1zm131 0h1v1h-1zm12 1h1v1h-1zm75 0h1v1h-1zm-83 1h1v1h-1zm76 0h1v1h-1zm56 0h1v1h-1zm-123 1h1v1h-1zm110 0h1v1h-1zm6 0h1v1h-1zm-246 1h1v1h-1zm254 0h1v1h-1zm-7 1h1v1h-1zm-270 1h1v1h-1zm24 0h1v1h-1zm-39 1h1v1h-1zm53 0h1v1h-1zm25 0h1v1h-1zm68 0h1v1h-1zm113 0h1v1h-1zm-112 1h1v1h-1zm21 0h1v1h-1zm-88 1h1v1h-1zm12 0h1v1h-1zm164 0h1v1h-1zm39 0h1v1h-1zM4 138h1v1H4zm16 0h1v1h-1zm10 0h1v1h-1zm25 0h2v1h-2zm2 0h1v1h-1zm35 0h1v1h-1zm8 0h1v1h-1zm7 0h1v2h-1zm54 0h1v1h-1zm37 0h2v1h-2zm2 0h1v1h-1zm3 0h1v4h-1zm25 0h1v1h-1zm32 0h3v1h-3zm3 0h1v1h-1zm9 0h1v2h-1zM5 139h1v1H5zm64 0h1v1h-1zm84 0h1v1h-1zM6 140h1v1H6zm62 0h1v1h-1zm39 0h1v1h-1zm46 0h1v1h-1zm119 0h1v1h-1zm-245 1h1v1h-1zm40 0h1v1h-1zm122 0h1v1h-1zm23 0h1v1h-1zm17 0h1v1h-1zm-177 1h1v1h-1zm35 0h1v1h-1zm69 0h1v1h-1zm34 0h1v1h-1zm13 0h1v1h-1zm50 0h1v1h-1zm55 0h1v1h-1zm-185 1h1v1h-1zm92 0h1v1h-1zm11 0h1v1h-1zm12 0h1v1h-1zm77 0h1v1h-1z" fill="#3a2f27"/><path d="M286 93h1v1h-1zm-74 16h1v1h-1zm101 29h1v1h-1zm-205 1h1v1h-1zm205 2h1v1h-1zm-4 3h1v1h-1z" fill="#2b1d10"/><path d="M189 96h4v1h-4zm4 0h1v1h-1zm30 10h2v1h-2zm2 0h1v1h-1zm41 0h1v1h-1zm-242 1h1v1h-1zm64 0h1v1h-1zm52 0h1v1h-1zM7 109h1v1H7zm150 0h1v1h-1zm94 0h1v1h-1zm-95 1h1v1h-1zm-100 2h1v1h-1zm37 0h1v1h-1zm14 1h1v1h-1zm68 2h1v1h-1zm125 2h1v1h-1zm-69 1h1v1h-1zm-152 1h1v1h-1zm59 0h1v1h-1zM8 120h1v1H8zm65 1h1v1h-1zm13 0h1v1h-1zm136 0h1v1h-1zm1 0h1v1h-1zm-7 1h1v1h-1zm36 0h1v1h-1zm-165 1h14v1H87zm14 0h1v1h-1zm75 4h1v1h-1zM0 128h1v1H0zm164 0h1v1h-1zm88 0h1v1h-1zm-179 1h1v1h-1zm-8 1h1v1h-1zm229 0h1v1h-1zm-246 1h1v1h-1zm161 2h1v1h-1zm0 1h1v1h-1zm-14 1h1v1h-1zm-142 2h1v1h-1zm29 1h1v1h-1zm17 0h1v1h-1zm149 0h1v1h-1zm-160 5h1v1h-1zm105 1h1v1h-1zm64 0h1v1h-1z" fill="#67615d"/><path d="M195 96h1v1h-1zm-8 9h1v1h-1zm16 1h1v1h-1zm53 0h1v1h-1zM8 108h1v1H8zm98 3h1v1h-1zm49 0h1v1h-1zm118 0h1v1h-1zm-182 2h1v1h-1zm129 0h1v1h-1zm-33 1h1v1h-1zm-176 1h1v1h-1zm77 1h1v1h-1zm13 1h1v1h-1zm-22 1h1v1h-1zm-71 3h1v1H8zm57 0h1v1h-1zm161 0h1v1h-1zm-116 2h1v1h-1zm134 4h1v1h-1zM8 129h1v1H8zm-8 1h1v1H0zm231 3h1v1h-1zm-198 1h1v1h-1zm283 2h1v1h-1zm-3 1h1v1h-1zm8 0h1v1h-1zm-94 1h1v1h-1zM5 140h1v1H5zm172 0h1v1h-1zm-152 3h1v1h-1zm38 1h1v1h-1zm75 0h1v1h-1z" fill="#a4a19f"/><path d="M116 106h6v1h-6zm6 0h1v1h-1zm61 0h1v1h-1zm36 0h1v1h-1zm-190 4h1v1h-1zm183 1h1v1h-1zm25 1h1v1h-1zm-74 1h1v1h-1zm23 0h1v1h-1zm10 0h1v1h-1zm25 0h1v1h-1zm-149 2h1v1h-1zm52 4h1v1h-1zm-22 2h1v1h-1zm59 6h1v1h-1zm-96 1h1v1h-1zm166 4h1v1h-1zm-60 1h1v1h-1zM1 134h1v1H1zm216 1h1v1h-1zm-165 1h1v1h-1zm135 1h1v1h-1zm10 0h1v1h-1zm119 0h1v1h-1zm-219 1h1v1h-1zm11 0h1v1h-1zm209 0h1v1h-1zm-248 2h1v1h-1zm-58 4h1v1h-1zm12 0h1v1h-1zm31 0h1v1h-1zm-38 1h1v1h-1zm80 0h1v1h-1zm124 0h1v1h-1zm1 0h1v1h-1zM40 155h1v1h-1z" fill="#bbb9b7"/><path d="M116 4h1v1h-1zm75 73h1v1h-1z" fill="#f69ca9"/><path fill="#eb001e" d="M133 47h1v1h-1z"/><path d="M279 93h1v1h-1zM58 106h2v1h-2zm2 0h1v1h-1zm200 0h3v1h-3zm3 0h1v1h-1zm-251 1h1v1h-1zm104 0h1v1h-1zm1 0h1v1h-1zm13 0h1v1h-1zm32 0h1v1h-1zm145 0h1v1h-1zm-123 1h1v1h-1zm31 0h1v1h-1zM8 109h1v1H8zm19 0h1v1h-1zm24 0h1v1h-1zm76 0h1v1h-1zm-77 1h1v1h-1zm222 0h1v1h-1zm-147 1h1v1h-1zm31 0h1v1h-1zm21 0h1v1h-1zm95 0h1v1h-1zm-108 1h1v1h-1zm4 0h1v1h-1zm1 0h1v1h-1zm53 0h1v1h-1zm1 0h1v1h-1zm36 0h1v1h-1zm1 0h1v1h-1zm4 0h1v1h-1zm-165 1h1v1h-1zm-68 1h1v1h-1zm69 0h1v1h-1zm36 0h1v1h-1zm93 0h1v1h-1zm8 0h1v1h-1zm56 2h1v1h-1zm-55 3h1v23h-1zm-211 2h1v2h-1zm82 0h1v1h-1zm136 0h1v1h-1zm51 0h1v1h-1zM7 122h1v1H7zm72 0h1v1h-1zm24 0h1v1h-1zm115 0h1v1h-1zm9 0h1v1h-1zm61 0h1v1h-1zm-261 1h1v1h-1zm46 0h1v1h-1zm142 0h1v1h-1zm-54 3h1v1h-1zm13 0h1v1h-1zm-65 1h1v1h-1zm54 0h1v1h-1zM7 128h1v1H7zm72 0h1v1h-1zm138 1h1v1h-1zm28 0h1v1h-1zm44 1h1v1h-1zM1 131h1v1H1zm7 0h1v1H8zm208 1h1v1h-1zm-129 1h1v1h-1zm91 0h1v1h-1zm68 0h1v1h-1zm-68 1h1v1h-1zm125 0h1v1h-1zm-232 1h1v1h-1zm-68 1h1v1H3zm244 0h1v1h-1zm-235 1h1v1h-1zm40 0h1v1h-1zm18 0h1v1h-1zm12 0h1v1h-1zm24 0h1v1h-1zm142 0h1v1h-1zm49 0h1v1h-1zm-79 1h1v1h-1zm41 0h1v1h-1zm5 0h1v1h-1zm-99 1h3v1h-3zm3 0h1v1h-1zm131 1h1v1h-1zm-193 1h1v1h-1zm165 0h1v1h-1zm-33 1h1v1h-1zm-227 1h1v1h-1zm12 0h1v1h-1zm135 0h1v1h-1zm74 0h1v1h-1zm-217 1h1v1h-1zm4 0h1v1h-1zm150 0h1v1h-1zm50 0h1v1h-1zm3 0h2v1h-2zm2 0h1v1h-1zm57 0h4v1h-4zm4 0h1v1h-1zm17 0h6v1h-6zm6 0h1v1h-1z" fill="#3e352d"/><path d="M16 105h2v1h-2zm2 0h1v1h-1zm75 0h1v1h-1zm-54 1h1v1h-1zm-30 1h1v1H9zm75 2h1v1h-1zm99 0h1v1h-1zm52 0h1v1h-1zM5 110h1v1H5zm78 0h1v1h-1zm61 0h1v1h-1zm2 5h1v1h-1zm-37 1h1v1h-1zm44 1h1v1h-1zm77 0h1v1h-1zm-129 1h1v1h-1zm61 0h1v1h-1zm128 0h1v1h-1zm-46 2h1v1h-1zm-196 1h1v1h-1zm119 0h1v1h-1zm50 0h1v1h-1zm11 0h1v1h-1zm-202 1h1v1h-1zm9 2h1v3h-1zm138 0h1v1h-1zm-138 3h1v1h-1zm186 0h1v1h-1zm7 0h1v1h-1zm67 1h1v1h-1zm-270 4h1v1h-1zm131 2h1v1h-1zm61 0h1v1h-1zm53 0h1v1h-1zm-248 2h1v1h-1zm157 0h1v1h-1zm-124 1h1v1h-1zm37 0h1v1h-1zm8 0h1v1h-1zm101 0h1v1h-1zm27 0h1v1h-1zm32 0h1v1h-1zm-34 1h1v1h-1zm-48 1h1v1h-1zm10 2h1v1h-1zm62 0h1v1h-1zm70 0h1v1h-1zm-11 1h1v1h-1zm-96 1h1v1h-1zm-149 1h1v1h-1zm28 1h1v1h-1zm7 0h1v1h-1zm71 0h1v1h-1zm29 0h1v1h-1zm60 0h1v1h-1z" fill="#edecec"/><path d="M131 106h1v1h-1zm95 0h1v1h-1zm-125 1h1v1h-1zm59 0h1v1h-1zm56 0h1v1h-1zm38 0h1v1h-1zm-228 1h1v1h-1zm78 1h1v1h-1zm1 1h1v1h-1zm168 0h1v1h-1zm-129 1h1v1h-1zm-62 1h1v1h-1zm-22 1h1v1h-1zm68 0h1v1h-1zm59 0h1v1h-1zm8 0h1v1h-1zm24 0h1v1h-1zM2 115h1v1H2zm266 0h1v1h-1zm-44 6h1v1h-1zm72 1h1v1h-1zm-126 1h1v1h-1zm2 1h1v1h-1zm-14 1h1v1h-1zm17 1h1v1h-1zm49 0h1v1h-1zm-137 2h21v1H87zm21 0h1v1h-1zm58 1h1v1h-1zm-132 1h1v1h-1zm175 1h1v1h-1zm-160 2h1v1h-1zm23 1h1v1h-1zm83 1h1v1h-1zm54 0h1v1h-1zm-103 1h1v1h-1zm165 0h1v1h-1zm47 1h1v1h-1zm-156 1h1v1h-1zm57 0h1v1h-1zm-43 3h1v1h-1zm143 0h1v1h-1zm-10 2h1v1h-1zm-193 1h6v1h-6zm6 0h1v1h-1zm18 0h4v1h-4zm4 0h1v1h-1zm88 0h1v1h-1zm6 0h1v1h-1z" fill="#7b7673"/><path d="M122 0h1v1h-1zm-3 1h1v1h-1zm14 20h1v1h-1zm61 3h1v1h-1zm-16 6h1v1h-1zm-62 17h1v1h-1zm21 13h1v1h-1z" fill="#ee214c"/><path d="M121 1h1v1h-1zm69 0h1v1h-1zm4 5h1v17h-1zm-59 11h1v1h-1zm-1 1h1v1h-1zm42 0h1v1h-1zm-43 1h1v1h-1zm45 1h1v1h-1zm-46 3h1v1h-1zm62 0h1v1h-1zm-77 8h1v1h-1zm61 0h1v15h-1zm16 0h1v1h-1zm-16 15h1v1h-1zm-61 8h15v1h-15zm15 0h1v1h-1zm47 0h15v1h-15zm15 0h1v1h-1zm1 1h1v16h-1zm-17 3h1v1h-1zm-44 1h1v1h-1zm43 0h1v1h-1zm-1 1h1v1h-1zm19 11h1v1h-1zm-78 1h1v1h-1zm77 0h1v1h-1zm-76 2h1v1h-1zm0 1h1v1h-1zm1 0h1v1h-1zm72 1h1v1h-1zm1 0h1v1h-1z" fill="#ed063d"/><path d="M115 7h1v17h-1zm0 17h1v1h-1zm19 29h1v1h-1zm41 6h1v1h-1zm-58 16h1v1h-1z" fill="#fdecef"/><path d="M10 107h1v1h-1zm221 0h1v1h-1zm38 0h1v1h-1zm-218 1h1v1h-1zm107 0h1v1h-1zm55 0h1v1h-1zm93 2h1v1h-1zm-294 4h1v1h-1zm10 0h1v1h-1zm2 2h1v1h-1zm100 2h1v1h-1zm40 2h1v1h-1zm88 4h1v2h-1zm0 2h1v1h-1zm-227 7h1v1h-1zm38 1h1v1h-1zm242 2h1v1h-1zm-204 1h1v1h-1zm130 3h1v1h-1zm-76 2h1v1h-1zm-54 2h1v1h-1z" fill="#918d8a"/><path d="M195 4h1v1h-1zm-21 14h1v1h-1zm-58 30h17v1h-17zm17 0h1v1h-1zm45 0h17v1h-17zm17 0h1v1h-1zm-3 29h1v1h-1zm-3 1h1v1h-1z" fill="#fef2f4"/><path d="M133 24h1v1h-1zm-17 6h1v1h-1zm79 0h1v1h-1z" fill="#f04666"/><path d="M281 93h4v1h-4zm4 0h1v1h-1zm1 1h1v27h-1zM57 106h1v1h-1zm37 0h1v1h-1zm1 0h2v1h-2zm2 0h1v1h-1zm162 0h1v1h-1zm5 0h1v1h-1zm-253 1h1v1h-1zm78 0h1v1h-1zm72 0h1v1h-1zm10 0h1v1h-1zm97 0h1v1h-1zM9 108h1v1H9zm31 0h1v45h-1zm83 0h1v2h-1zm80 0h1v3h-1zm-100 1h1v1h-1zm81 0h1v1h-1zm-61 1h1v1h-1zm3 0h1v1h-1zm51 0h1v1h-1zm-72 1h1v1h-1zm98 0h1v1h-1zm-173 1h1v1h-1zm24 0h1v1h-1zm5 0h1v1h-1zm33 0h1v1h-1zm5 0h1v1h-1zm33 0h2v1h-2zm2 0h1v1h-1zm23 0h1v1h-1zm58 0h1v1h-1zm23 0h1v1h-1zm27 0h1v1h-1zm-202 1h1v1h-1zm21 0h1v1h-1zm53 0h1v1h-1zm168 0h1v1h-1zm-292 1h1v1h-1zm12 0h1v1h-1zm39 0h1v1h-1zm45 0h1v1h-1zm54 0h1v1h-1zm-151 1h1v1h-1zm14 0h1v1h-1zm64 0h1v1h-1zm37 0h1v1h-1zm20 0h1v1h-1zm9 0h1v1h-1zm76 0h1v1h-1zm71 0h1v1h-1zm-156 1h1v1h-1zm109 0h1v1h-1zm-182 1h1v1h-1zm-39 1h1v1h-1zm39 0h1v1h-1zm166 0h1v1h-1zm53 0h1v1h-1zM1 119h1v1H1zm7 0h1v1H8zm115 1h1v22h-1zm129 0h1v1h-1zm-205 1h1v1h-1zm118 0h1v1h-1zm121 0h1v1h-1zm3 0h1v1h-1zm-122 1h1v1h-1zm50 0h1v1h-1zM7 123h1v4H7zm27 0h1v4h-1zm32 0h1v4h-1zm93 2h1v1h-1zm14 0h1v1h-1zm48 1h1v1h-1zm7 0h1v1h-1zM7 127h1v1H7zm27 0h1v1h-1zm32 0h1v1h-1zm231 0h1v1h-1zm-87 1h1v1h-1zm-183 1h1v1h-1zm20 0h1v1h-1zm32 0h1v1h-1zm88 0h1v1h-1zm43 0h1v1h-1zm-131 1h1v1h-1zm173 0h1v1h-1zm-187 1h1v1h-1zm21 0h1v1h-1zm130 0h1v1h-1zM1 132h1v1H1zm25 0h1v1h-1zm7 0h1v1h-1zm145 0h1v1h-1zm109 0h1v1h-1zm-115 2h1v1h-1zm74 0h1v1h-1zm8 0h1v1h-1zm32 0h1v9h-1zm-254 1h1v1h-1zm18 0h1v1h-1zm122 0h1v1h-1zm6 0h1v1h-1zm53 0h1v1h-1zm65 0h1v1h-1zm-285 1h1v1h-1zm40 0h1v1h-1zm11 0h1v1h-1zm19 0h1v1h-1zm8 0h1v1h-1zm66 0h1v1h-1zm40 0h1v1h-1zm-24 1h1v1h-1zm86 0h1v1h-1zm14 0h1v1h-1zm-257 1h1v1h-1zm44 0h1v1h-1zm112 0h1v1h-1zm18 0h1v1h-1zm13 0h1v1h-1zm-172 1h1v1h-1zm20 0h1v1h-1zm115 0h1v1h-1zm13 0h1v1h-1zm43 0h1v1h-1zm6 0h1v1h-1zm80 0h1v1h-1zm-278 1h1v1h-1zm56 0h1v1h-1zm92 0h1v1h-1zm-72 2h1v1h-1zm19 0h1v1h-1zm51 0h1v1h-1zm95 0h1v1h-1zm31 0h1v1h-1zm-236 1h1v1h-1zm25 0h1v1h-1zm13 0h1v1h-1zm43 0h1v1h-1zm57 0h1v1h-1zm53 0h1v1h-1zm12 0h1v1h-1zm19 0h1v1h-1zm33 0h1v1h-1zm-306 1h1v1h-1zm1 0h1v1h-1zm6 0h1v1h-1zm1 0h1v1h-1zm35 0h5v1h-5zm5 0h1v1h-1zm31 0h1v1h-1zm1 0h1v1h-1zm5 0h1v1h-1zm1 0h1v1h-1zm62 0h1v1h-1zm1 0h1v1h-1zm8 0h1v1h-1zm24 0h5v1h-5zm5 0h1v1h-1zm18 0h1v1h-1zm1 0h1v1h-1zm40 0h6v1h-6zm6 0h1v1h-1zm16 0h1v1h-1zm-240 9h1v1h-1z" fill="#3d332b"/><path d="M279 94h1v49h-1zM14 106h1v1h-1zm115 1h1v1h-1zm-82 1h1v2h-1zm38 1h1v1h-1zm149 0h1v1h-1zm-187 1h1v2h-1zm203 0h1v1h-1zm-167 1h1v1h-1zm-36 1h1v1h-1zm1 0h1v1h-1zm22 0h1v1h-1zm26 0h1v1h-1zm208 0h1v1h-1zm-128 1h1v1h-1zm80 1h1v1h-1zm38 0h1v1h-1zm-39 1h1v1h-1zm-230 2h1v1h-1zm39 0h1v1h-1zm98 2h1v1h-1zm83 0h1v1h-1zm-211 2h1v1h-1zm39 1h1v1h-1zm-73 2h1v2H0zm27 0h1v2h-1zm130 0h1v1h-1zM0 126h1v1H0zm27 0h1v1h-1zm133 0h1v1h-1zm62 0h1v1h-1zm-175 1h1v1h-1zm26 1h1v1h-1zm227 0h1v1h-1zm-10 1h1v1h-1zm5 0h1v1h-1zm-125 2h1v1h-1zm1 1h1v1h-1zm-138 1h1v1h-1zm-9 2h1v1h-1zm47 1h1v1h-1zm159 0h1v1h-1zm84 1h1v1h-1zm6 0h1v1h-1zm-305 1h1v1h-1zm32 2h1v13h-1zm164 0h1v1h-1zm19 0h1v1h-1zm88 0h1v1h-1zm-67 1h1v1h-1zM8 142h1v1H8zm312 0h1v1h-1zm-41 1h1v1h-1zM47 153h1v1h-1z" fill="#4e4640"/><path d="M188 97h1v1h-1zm6 0h1v1h-1zm-132 9h1v1h-1zm70 0h1v1h-1zm-110 1h1v1h-1zm31 0h1v1h-1zm1 0h1v1h-1zm45 0h1v1h-1zm19 0h4v1h-4zm4 0h1v1h-1zm48 0h1v1h-1zm15 0h1v1h-1zm1 0h1v1h-1zm10 0h6v1h-6zm6 0h1v1h-1zm15 0h2v1h-2zm2 0h1v1h-1zm9 0h2v1h-2zm2 0h1v1h-1zm26 0h1v1h-1zm11 0h1v1h-1zm34 0h5v1h-5zm5 0h1v1h-1zm-92 1h1v1h-1zm-56 1h1v1h-1zm94 0h1v1h-1zm-168 1h1v1h-1zm20 0h1v1h-1zm201 0h1v1h-1zm-92 1h1v1h-1zm84 0h1v1h-1zm-283 1h4v1h-4zm4 0h2v1h-2zm2 0h1v1h-1zm71 0h1v1h-1zm38 0h1v1h-1zm4 0h1v1h-1zm30 0h1v1h-1zm13 0h1v1h-1zm10 0h1v1h-1zm10 0h6v1h-6zm6 0h1v1h-1zm19 0h1v1h-1zm3 0h1v1h-1zm1 0h1v1h-1zm36 0h1v1h-1zm1 0h1v1h-1zM4 113h1v1H4zm66 0h1v1h-1zm85 0h1v1h-1zm17 0h1v1h-1zm2 1h1v1h-1zm73 1h1v1h-1zm-183 1h1v1h-1zm23 0h1v1h-1zm14 0h1v1h-1zm59 0h1v1h-1zm140 0h1v1h-1zM9 117h1v1H9zm78 0h1v1h-1zm21 0h1v1h-1zm37 0h1v25h-1zm108 0h1v1h-1zM8 118h1v1H8zm57 0h1v1h-1zm96 0h1v1h-1zm-128 1h1v1h-1zm32 0h1v1h-1zm7 0h1v1h-1zm51 0h1v1h-1zM1 120h1v1H1zm46 0h1v1h-1zm185 0h1v1h-1zm-129 1h1v1h-1zm129 0h1v1h-1zm-166 1h1v1h-1zm43 0h1v1h-1zm136 0h1v1h-1zm-166 1h1v4h-1zm215 1h1v1h-1zm-83 2h1v1h-1zm9 0h1v1h-1zm9 0h1v1h-1zm-156 1h1v1h-1zm6 0h1v1h-1zm140 0h1v1h-1zm12 0h1v1h-1zm60 0h1v1h-1zm-225 1h1v1h-1zm110 0h1v1h-1zm56 0h1v4h-1zm13 0h1v1h-1zm55 1h1v1h-1zm-273 1h1v1h-1zm20 0h1v1h-1zm-14 1h1v1h-1zm39 0h1v2h-1zm-64 1h1v1H8zm57 0h1v1h-1zm167 0h1v1h-1zm-160 1h1v1h-1zm100 0h1v1h-1zm44 0h1v2h-1zm37 0h1v1h-1zm-221 1h1v1h-1zm184 1h1v1h-1zm88 0h1v1h-1zm-273 1h1v1h-1zm157 0h1v1h-1zm80 0h1v1h-1zm-246 1h1v1h-1zm39 0h1v1h-1zm98 0h1v1h-1zm29 0h1v1h-1zm29 0h1v1h-1zm-196 1h1v1h-1zm33 0h1v1h-1zm5 0h1v1h-1zm138 0h1v1h-1zm5 0h1v1h-1zm96 0h1v1h-1zm-203 1h2v1h-2zm2 0h1v1h-1zm66 0h1v1h-1zm48 0h1v1h-1zm110 0h1v1h-1zm-271 1h1v1h-1zm200 0h1v1h-1zm-199 1h1v1h-1zm103 0h1v1h-1zm21 0h1v1h-1zM9 142h1v1H9zm57 0h1v1h-1zm79 0h1v1h-1zm68 0h1v1h-1zm15 0h1v1h-1zm-165 1h1v1h-1zm76 0h1v1h-1zm20 0h1v1h-1zm13 0h1v1h-1zm84 0h1v1h-1zm-240 1h2v1h-2zm2 0h1v1h-1zm76 0h3v1h-3zm3 0h1v1h-1zm66 0h1v1h-1zm1 0h1v1h-1zm4 0h1v1h-1zm52 0h1v1h-1zm1 0h1v1h-1zm58 0h1v1h-1zM41 154h4v1h-4zm4 0h2v1h-2zm2 0h1v1h-1z" fill="#423932"/><path d="M40 106h1v1h-1zm181 0h1v1h-1zm-171 3h1v1h-1zm45 3h1v1h-1zm153 0h1v1h-1zm-35 1h1v1h-1zm52 0h1v1h-1zm-255 3h1v1h-1zm127 0h1v1h-1zm164 0h1v1h-1zm-253 3h1v1h-1zm241 1h1v1h-1zm13 11h1v1h-1zm-57 1h1v1h-1zm20 5h1v1h-1zm-96 1h1v1h-1zm-120 2h1v1h-1zm37 2h1v1h-1zm89 0h1v1h-1zm139 1h1v1h-1zm6 0h1v1h-1zm-104 1h1v1h-1zm17 0h4v1h-4zm4 0h1v1h-1zm79 0h2v1h-2zm2 0h1v1h-1z" fill="#817c79"/><path d="M123 106h1v1h-1zm47 0h1v1h-1zm131 0h7v1h-7zm7 0h1v1h-1zm-9 1h1v1h-1zm-232 1h1v1h-1zm118 5h1v1h-1zm12 0h5v1h-5zm5 0h1v1h-1zm-30 1h1v1h-1zm-92 1h1v1h-1zm-47 1h1v1h-1zm128 0h1v1h-1zm-97 2h1v1h-1zm82 0h1v1h-1zm-112 1h1v1h-1zm-34 1h1v1H0zm231 1h1v1h-1zm-121 1h1v1h-1zm134 0h1v1h-1zm-166 2h1v1h-1zm220 1h1v1h-1zm-5 1h1v1h-1zm-215 1h1v1h-1zm32 1h1v1h-1zm-62 2h1v1h-1zm256 4h1v1h-1zm-293 1h1v1h-1zm51 0h1v1h-1zm-3 2h1v1h-1zm12 0h1v1h-1zm92 1h1v1h-1zM4 139h1v1H4zm294 1h1v1h-1zm-230 1h1v1h-1zm106 2h1v1h-1zm-15 1h1v1h-1zm72 0h1v1h-1zm-214 1h1v1h-1zm1 0h1v1h-1zm77 0h1v1h-1z" fill="#b7b4b3"/><path d="M191 1h1v1h-1zm-73 1h1v1h-1zm-2 5h1v16h-1zm22 10h36v1h-36zm36 0h1v1h-1zm-41 3h1v1h-1zm-17 3h1v1h-1zm62 0h1v1h-1zm-45 8h1v1h-1zm-16 16h1v1h-1zm77 0h1v1h-1zm-61 8h1v1h-1zm0 1h1v1h-1zm45 1h1v1h-1zm-42 3h1v1h-1zm39 0h1v1h-1zm-58 13h1v1h-1zm76 2h1v1h-1zm-70 2h65v1h-65zm65 0h1v1h-1z" fill="#ec002f"/><path d="M116 5h1v1h-1zm1 19h15v1h-15zm15 0h1v1h-1zm47 0h14v1h-14zm14 0h1v1h-1zm-76 6h15v1h-15zm15 0h1v1h-1zm47 0h15v1h-15zm15 0h1v1h-1zm-78 1h1v15h-1zm79 0h1v15h-1zm-79 15h1v1h-1zm79 0h1v1h-1zm-79 8h1v1h-1zm18 4h1v1h-1zm40 2h1v1h-1zm-55 16h1v1h-1zm2 1h1v1h-1z" fill="#ef2e54"/><path d="M13 106h1v1h-1zm73 2h1v1h-1zm40 1h1v1h-1zm51 0h1v1h-1zm-83 3h1v1h-1zm164 1h1v1h-1zm-30 1h1v1h-1zm-128 1h1v1h-1zm130 1h1v1h-1zm-196 4h1v1h-1zm39 0h1v1h-1zm65 0h1v1h-1zm16 0h1v1h-1zm66 1h1v1h-1zm-52 1h1v1h-1zm84 1h1v1h-1zm-22 4h1v1h-1zm22 0h1v1h-1zm-75 1h1v1h-1zM0 129h1v1H0zm168 1h1v1h-1zm-10 6h1v1h-1zm156 0h1v1h-1zm6 0h1v1h-1zm-229 1h1v1h-1zm62 1h1v1h-1zm-102 4h1v1h-1zm150 2h1v1h-1zm24 0h1v1h-1z" fill="#85817d"/><path d="M188 96h1v1h-1zm6 0h1v1h-1zM91 106h1v1h-1zm46 0h1v1h-1zm120 0h1v1h-1zM4 112h1v1H4zm53 0h1v1h-1zm108 0h1v1h-1zm-134 1h1v1h-1zm2 4h1v1h-1zm69 2h1v1h-1zm0 4h1v1h-1zm-55 1h1v2h-1zm0 2h1v1h-1zm179 0h1v1h-1zm-140 2h1v1h-1zm208 4h1v1h-1zm9 1h1v1h-1zm-72 1h1v1h-1zm-14 2h1v1h-1zm50 0h1v1h-1zm-64 1h1v1h-1zm-133 1h1v1h-1zm249 0h1v1h-1zm-94 1h1v1h-1zm-122 4h1v1h-1z" fill="#5e5752"/><path fill="#f8b6c0" d="M134 57h1v1h-1z"/><path d="M279 92h1v1h-1zm7 0h1v1h-1zm-27 13h1v1h-1zm5 0h1v1h-1zm-90 2h1v1h-1zm79 0h1v1h-1zm-108 5h1v1h-1zm-91 1h1v1h-1zm43 0h1v1h-1zm87 0h1v1h-1zm-132 1h1v1h-1zm214 0h1v1h-1zm-27 4h1v1h-1zM0 119h1v1H0zm169 3h1v1h-1zm44 1h1v1h-1zm86 2h1v1h-1zm-3 2h1v1h-1zm-248 2h1v1h-1zm-24 5h1v1h-1zm231 0h1v1h-1zm32 0h1v1h-1zm-21 2h1v1h-1zm40 1h1v1h-1zM3 138h1v1H3zm311 0h1v1h-1zm-244 1h1v1h-1zm252 0h1v1h-1zm-239 1h1v1h-1zm239 0h1v1h-1zm-111 1h1v1h-1zm19 0h1v1h-1zm-216 4h1v1h-1zm6 0h1v1h-1zm178 0h1v1h-1zm62 0h1v1h-1z" fill="#e2e1e1"/><path d="M57 105h1v1h-1zm206 0h1v1h-1zm-199 1h1v1h-1zm165 0h1v1h-1zm-204 1h1v1h-1zm62 0h1v1h-1zm221 1h1v1h-1zm-280 1h1v1h-1zm42 2h1v1h-1zm189 2h1v1h-1zm-132 1h1v1h-1zm19 2h1v1h-1zm93 3h1v1h-1zm-115 1h1v1h-1zm30 1h1v1h-1zm-52 1h1v1h-1zm-37 1h1v1h-1zm229 2h1v1h-1zm3 1h1v1h-1zm-232 1h1v1h-1zm13 2h1v1h-1zm87 0h1v1h-1zm13 0h1v1h-1zm-105 3h1v1h-1zm230 0h1v1h-1zm-9 1h1v1h-1zm-243 2h1v1h-1zm128 0h1v1h-1zm136 0h1v1h-1zm4 0h1v2h-1zm-62 1h1v1h-1zm62 1h1v1h-1zm-288 1h1v1h-1zm137 0h1v1h-1zm19 0h1v1h-1zm-80 3h1v1h-1zm165 0h1v1h-1zm-245 1h1v1h-1zm202 0h1v1h-1zm-142 1h1v1h-1zm15 1h1v1h-1zm113 0h1v1h-1zm11 0h1v1h-1zm13 0h1v1h-1zm28 0h1v1h-1zm-174 1h1v1h-1zm5 0h1v1h-1zm99 0h1v1h-1z" fill="#d5d4d3"/><path d="M58 105h1v1h-1zm1 0h1v1h-1zm202 0h1v1h-1zm1 0h1v1h-1zm-250 1h1v1h-1zm118 0h1v1h-1zm32 0h1v1h-1zm138 0h1v1h-1zm9 0h1v1h-1zm-257 1h1v1h-1zm163 0h1v1h-1zm-73 1h1v1h-1zm129 0h1v1h-1zm-128 1h1v1h-1zm-113 2h1v1h-1zm265 1h1v1h-1zm-214 1h1v1h-1zm48 0h1v1h-1zm4 0h1v1h-1zm91 0h1v1h-1zm23 0h1v1h-1zm-186 1h1v1h-1zm85 3h1v1h-1zm-121 1h1v1h-1zm23 2h1v1h-1zm191 0h1v23h-1zm59 0h1v1h-1zm-80 1h1v1h-1zm9 0h1v1h-1zM8 122h1v1H8zm57 0h1v1h-1zm150 0h1v1h-1zm-137 1h1v1h-1zm134 1h1v1h-1zm-53 2h1v1h-1zm70 1h1v1h-1zm-151 1h1v1h-1zm85 0h1v1h-1zm68 0h1v3h-1zm0 3h1v1h-1zm14 2h1v1h-1zm-195 1h1v1h-1zm129 0h1v1h-1zm-90 1h1v1h-1zm1 1h1v1h-1zm64 0h1v1h-1zm163 0h1v1h-1zm-263 1h1v1h-1zm116 0h1v1h-1zm32 0h1v1h-1zm57 0h1v1h-1zm-164 1h1v1h-1zm1 0h1v1h-1zm177 0h1v1h-1zm34 1h1v1h-1zm-199 1h1v1h-1zm81 2h1v1h-1zm-137 1h1v1h-1zm52 0h1v1h-1zm135 0h1v1h-1zm30 0h1v1h-1zm-123 1h1v1h-1zm-131 1h1v1h-1zm4 0h1v1h-1zm75 0h1v1h-1zm3 0h1v1h-1zm66 0h1v1h-1zm56 0h1v1h-1zM41 155h6v1h-6zm6 0h1v1h-1z" fill="#c5c3c1"/><path d="M190 0h1v1h-1zm4 3h1v1h-1z" fill="#f48797"/><path d="M187 97h1v7h-1zm8 0h1v8h-1zm-8 7h1v1h-1zm8 1h1v1h-1zm-105 1h1v1h-1zm93 1h1v1h-1zm69 1h1v1h-1zm-184 1h1v1h-1zm-65 4h1v1H3zm167 0h1v1h-1zm-71 1h1v1h-1zm96 0h1v19h-1zm-8 1h1v20h-1zm-124 1h1v1h-1zm229 0h1v1h-1zm-205 2h1v1h-1zm166 1h1v1h-1zm-34 2h1v1h-1zm78 0h1v1h-1zm-67 1h1v1h-1zm-120 2h1v1h-1zm134 0h1v2h-1zm0 2h1v1h-1zm-179 3h1v1h-1zm144 1h1v1h-1zm8 0h1v1h-1zm36 1h1v1h-1zm-166 1h1v1h-1zm108 1h1v1h-1zm-115 2h1v1h-1zm107 0h1v1h-1zm59 0h1v1h-1zm-214 1h1v1h-1zm29 0h1v1h-1zm148 0h1v1h-1zm-102 1h1v1h-1zm53 0h1v1h-1zm112 0h1v1h-1zm-255 1h1v1h-1zm81 0h1v1h-1zm80 0h1v1h-1zm119 0h1v1h-1zm19 1h1v1h-1zm-164 1h1v1h-1zm164 0h1v1h-1zm1 0h1v1h-1zm-9 1h1v1h-1zm-77 1h1v1h-1zm82 0h1v1h-1zm8 0h1v1h-1zm-90 1h1v1h-1zm-66 2h2v1h-2zm2 0h1v1h-1z" fill="#a19d9b"/><g fill="#fff"><path d="M0 0h119v1H0zm119 0h1v1h-1zm73 0h130v1H192zm130 0h1v138h-1zM0 1h117v1H0zm117 0h1v1h-1zm76 0h129v1H193zM0 2h116v3H0zm116 0h1v1h-1zm78 0h128v1H194zm1 1h127v1H195zm1 1h126v48H196zM0 5h115v99H0zm115 0h1v1h-1zm22 13h36v41h-36zm36 0h1v41h-1z"/><path d="M135 19h40v38h-40zm40 0h1v39h-1zm1 1h1v38h-1z"/><path d="M134 21h42v31h-42z"/><path d="M115 25h207v4H115zm0 4h207v1H115zm0 1h1v125h-1zm62 0h1v1h-1zm0 17h1v5h-1z"/><path d="M116 49h206v3H116zm0 3h206v1H116zm81 1h125v38H197zm-20 3h1v1h-1zm-42 1h41v1h-41zm1 1h40v1h-40zm40 0h1v1h-1zm-39 1h37v1h-37zm37 0h1v1h-1z"/><path d="M196 71h126v20H196zm-80 3h1v31h-1z"/><path d="M195 74h127v17H195zm-78 2h1v29h-1z"/><path d="M194 76h128v15H194zm-76 1h1v28h-1zm1 0h1v28h-1z"/><path d="M193 77h129v14H193zm-73 1h1v27h-1zm1 0h1v27h-1z"/><path d="M190 78h132v13H190z"/><path d="M122 79h200v12H122zm0 12h200v1H122zm0 1h156v3H122zm156 0h1v63h-1zm10 0h34v13h-34zm-166 3h156v1H122zm0 1h64v8h-64zm64 0h1v9h-1zm10 0h82v8h-82zM0 104h186v1H0zm196 0h82v1h-82zM0 105h15v1H0zm15 0h1v1h-1zm5 0h35v1H20zm35 0h1v1h-1zm7 0h30v1H62zm30 0h1v1h-1zm5 0h35v1H97zm35 0h1v1h-1zm4 0h50v1h-50zm50 0h1v1h-1zm10 0h61v1h-61zm61 0h1v1h-1zm8 0h13v1h-13zm23 0h34v1h-34zM0 106h10v1H0zm10 0h1v1h-1zm14 0h14v1H24zm14 0h1v49h-1zm10 0h4v1h-4zm4 0h1v1h-1zm13 0h23v1H65zm23 0h1v1h-1zm13 0h14v1h-14zm24 0h4v1h-4zm4 0h1v1h-1zm11 0h20v1h-20zm20 0h1v1h-1zm12 0h10v1h-10zm10 0h1v49h-1zm23 0h12v1h-12zm12 0h1v1h-1zm13 0h24v1h-24zm24 0h1v1h-1zm15 0h9v1h-9zm19 0h11v1h-11zm11 0h1v1h-1zm11 0h12v28h-12zM0 107h8v1H0zm8 0h1v1H8zm18 0h12v1H26zm22 0h3v1h-3zm3 0h1v1h-1zm16 0h19v1H67zm19 0h1v1h-1zm17 0h12v1h-12zm22 0h2v1h-2zm2 0h1v1h-1zm15 0h16v1h-16zm16 0h1v1h-1zm17 0h7v1h-7zm30 0h8v1h-8zm8 0h1v1h-1zm20 0h19v1h-19zm19 0h1v1h-1zm19 0h7v1h-7zm17 0h10v1h-10zm10 0h1v1h-1zM0 108h7v1H0zm7 0h1v1H7zm21 0h10v1H28zm20 0h2v1h-2zm2 0h1v1h-1zm18 0h16v1H68zm16 0h1v1h-1zm20 0h11v1h-11zm21 0h1v1h-1zm1 0h1v1h-1zm17 0h14v1h-14zm14 0h1v1h-1zm20 0h5v1h-5zm28 0h6v17h-6zm6 0h1v16h-1zm24 0h16v1h-16zm16 0h1v1h-1zm21 0h6v1h-6zm16 0h9v2h-9zm9 0h1v1h-1z"/><path d="M309 108h13v26h-13zM0 109h5v1H0zm5 0h1v1H5zm24 0h9v1h-9zm19 0h1v1h-1zm1 0h1v1h-1zm20 0h14v1H69zm14 0h1v1h-1zm22 0h10v1h-10zm20 0h1v1h-1zm19 0h11v1h-11zm11 0h1v1h-1zm24 0h3v22h-3zm57 0h13v1h-13zm13 0h1v1h-1zm24 0h5v1h-5z"/><path d="M308 109h14v25h-14zM0 110h4v2H0zm4 0h1v1H4zm26 0h8v1h-8zm18 0h1v1h-1zm22 0h12v1H70zm12 0h1v1h-1zm24 0h9v1h-9zm39 0h10v1h-10zm10 0h1v1h-1zm28 0h1v45h-1zm54 0h11v1h-11zm11 0h1v1h-1zm26 0h4v28h-4zm14 0h8v1h-8zm8 0h1v1h-1z"/><path d="M307 110h15v24h-15zm-276 1h7v1h-7zm40 0h11v1H71zm11 0h1v1h-1zm25 0h8v1h-8zm38 0h9v1h-9zm9 0h1v1h-1zm83 0h11v1h-11zm11 0h1v1h-1zm40 0h7v1h-7zm7 0h1v1h-1z"/><path d="M306 111h16v23h-16zM0 112h3v1H0zm3 0h1v1H3zm29 0h6v1h-6zm39 0h10v1H71zm10 0h1v1h-1zm27 0h7v1h-7zm38 0h7v2h-7zm7 0h1v3h-1zm25 0h5v16h-5zm60 0h9v1h-9zm9 0h1v1h-1zm26 0h5v25h-5zm15 0h6v1h-6zm6 0h1v1h-1zM0 113h2v2H0zm2 0h1v1H2zm14 0h2v24h-2zm2 0h1v24h-1zm14 0h6v1h-6zm23 0h3v23h-3zm3 0h1v23h-1zm14 0h8v1h-8zm8 0h1v1h-1zm13 0h3v9h-3zm3 0h1v9h-1zm12 0h7v1h-7zm56 0h4v6h-4zm4 0h1v8h-1z"/><path d="M177 113h6v14h-6zm35 0h1v10h-1zm26 0h8v1h-8zm8 0h1v1h-1zm15 0h1v24h-1zm1 0h1v24h-1zm26 0h5v2h-5zm5 0h1v1h-1zm12 0h17v21h-17zm-292 1h8v22h-8zm8 0h1v22h-1zm12 0h5v1h-5zm20 0h7v22h-7zm7 0h1v22h-1zm13 0h7v2h-7zm7 0h1v1h-1zm11 0h7v8h-7zm7 0h1v8h-1zm11 0h6v1h-6zm19 0h6v41h-6zm6 0h1v41h-1zm12 0h7v1h-7zm17 0h8v4h-8zm8 0h1v8h-1zm13 0h2v41h-2zm2 0h1v41h-1zm10 0h16v10h-16zm22 0h8v6h-8zm8 0h1v6h-1zm13 0h7v2h-7zm7 0h1v1h-1z"/><path d="M258 114h7v22h-7zm7 0h1v22h-1zm7 0h6v22h-6zm32 0h18v19h-18zM0 115h1v3H0zm1 0h1v1H1zm11 0h10v20H12zm10 0h1v20h-1zm11 0h5v1h-5zm19 0h9v20h-9zm9 0h1v20h-1zm29 0h9v7h-9zm9 0h1v7h-1zm10 0h6v1h-6zm18 0h8v40h-8zm8 0h1v40h-1zm12 0h6v23h-6zm6 0h1v1h-1zm9 0h11v2h-11zm11 0h1v8h-1zm3 0h10v11h-10zm37 0h1v7h-1zm3 0h12v5h-12zm12 0h1v5h-1z"/><path d="M257 115h10v20h-10zm10 0h1v20h-1zm4 0h7v20h-7zm17 0h4v1h-4zm4 0h1v1h-1zm11 0h19v16h-19zm-292 1h12v18H11zm12 0h1v18h-1zm11 0h4v1h-4zm17 0h11v18H51zm11 0h1v18h-1zm11 0h6v1h-6zm6 0h1v1h-1zm10 0h10v6H89zm21 0h5v3h-5zm16 0h10v39h-10zm10 0h1v39h-1zm38 0h12v8h-12zm40 0h15v4h-15zm15 0h1v5h-1zm10 0h6v1h-6zm6 0h1v1h-1z"/><path d="M256 116h12v18h-12zm12 0h10v17h-10zm20 0h3v1h-3zm3 0h1v1h-1zm11 0h20v13h-20zm-278 1h1v16h-1zm10 0h4v1h-4zm16 0h13v16H50zm13 0h1v16h-1zm11 0h4v38h-4zm4 0h1v2h-1zm10 0h12v5H88zm12 0h1v5h-1zm25 0h11v38h-11zm37 0h24v1h-24zm78 0h4v38h-4zm4 0h1v2h-1z"/><path d="M255 117h23v16h-23zm33 0h2v2h-2zm2 0h1v1h-1zm11 0h21v11h-21zM0 118h1v1H0zm10 0h14v14H10zm25 0h3v4h-3zm102 0h1v37h-1zm26 0h23v1h-23zm67 0h1v3h-1z"/><path d="M254 118h24v14h-24zm-229 1h1v12h-1zm24 0h14v12H49zm29 0h1v1h-1zm23 0h1v3h-1zm9 0h5v1h-5zm43 0h1v17h-1zm11 0h22v1h-22zm80 0h1v1h-1zm44 0h1v1h-1zm1 0h1v1h-1zm11 0h22v7h-22zM9 120h16v10H9zm55 0h1v10h-1zm23 0h14v2H87zm24 0h4v35h-4zm55 0h20v1h-20zm48 0h16v1h-16zm74 0h1v1h-1z"/><path d="M299 120h23v4h-23zm-131 1h18v1h-18zm46 0h2v1h-2zm2 0h1v1h-1zm13 0h1v1h-1zm1 0h1v1h-1zm23 0h25v8h-25z"/><path d="M298 121h24v3h-24zm-263 1h3v1h-3zm13 0h16v5H48zm39 0h14v1H87zm14 0h1v1h-1zm53 0h1v13h-1zm16 0h16v1h-16zm43 0h1v1h-1zm1 0h1v1h-1z"/><path d="M297 122h25v2h-25zm-271 1h1v4h-1zm10 0h2v32h-2zm136 0h14v1h-14zm40 0h1v1h-1z"/><path d="M296 123h26v1h-26zm-141 1h1v9h-1zm19 0h12v1h-12zm22 0h15v1h-15zm15 0h1v1h-1zm85 0h26v1h-26zm-140 1h1v8h-1zm19 0h11v1h-11zm21 0h14v3h-14zm14 0h1v1h-1zm85 0h2v1h-2zm2 0h1v1h-1zm-140 1h1v8h-1zm1 0h1v9h-1zm18 0h10v1h-10zm118 0h2v1h-2zm2 0h1v1h-1zm4 0h22v1h-22zm-274 1h1v1h-1zm22 0h16v1H48zm111 0h1v8h-1zm1 0h1v9h-1zm17 0h9v1h-9zm45 0h5v10h-5zm5 0h1v10h-1zm66 0h2v1h-2zm2 0h1v1h-1zm-260 1h3v27h-3zm126 0h1v8h-1zm1 0h1v9h-1zm16 0h8v1h-8zm18 0h13v7h-13zm13 0h1v1h-1z"/><path d="M220 128h10v7h-10zm10 0h1v6h-1zm62 0h2v2h-2zm2 0h1v1h-1zm7 0h21v1h-21zm-214 1h28v1H87zm76 0h1v8h-1zm1 0h1v8h-1z"/><path d="M219 129h11v6h-11zm34 0h25v1h-25zm49 0h20v1h-20zM9 130h16v1H9zm55 0h1v1h-1zm23 0h28v1H87zm78 0h1v7h-1zm1 0h1v7h-1z"/><path d="M218 130h12v5h-12zm73 0h2v25h-2zm2 0h1v25h-1zm-268 1h1v1h-1zm24 0h14v1H49zm29 0h1v24h-1zm10 0h27v1H88zm79 0h1v6h-1zm1 0h1v6h-1zm11 0h7v1h-7zm65 0h1v24h-1z"/><path d="M290 131h2v24h-2zm13 0h19v1h-19zm-293 1h14v1H10zm78 0h27v1H88zm81 0h1v5h-1zm11 0h6v23h-6zm74 0h24v1h-24z"/><path d="M289 132h4v23h-4zM0 133h1v22H0zm24 0h1v1h-1zm10 0h4v22h-4zm16 0h13v1H50zm13 0h1v1h-1zm10 0h5v22h-5zm16 0h26v1H89zm66 0h15v1h-15zm15 0h1v3h-1zm85 0h23v1h-23z"/><path d="M288 133h5v22h-5zm16 0h18v1h-18zm-293 1h12v1H11zm12 0h1v1h-1zm28 0h11v1H51zm11 0h1v1h-1zm17 0h1v21h-1zm10 0h15v1H89zm15 0h11v1h-11zm53 0h13v1h-13zm73 0h1v1h-1zm15 0h1v21h-1zm11 0h12v1h-12zm12 0h1v1h-1zm26 0h1v21h-1zm11 0h17v1h-17zM1 135h1v20H1zm11 0h10v1H12zm10 0h1v1h-1zm30 0h9v1h-9zm9 0h1v1h-1zm29 0h12v1H90zm12 0h1v1h-1zm4 0h9v1h-9zm48 0h1v1h-1zm4 0h12v1h-12zm38 0h12v1h-12zm12 0h1v20h-1zm10 0h11v1h-11zm11 0h1v1h-1zm28 0h10v1h-10zm10 0h1v1h-1zm4 0h7v1h-7zm35 0h8v1h-8zm8 0h1v1h-1zm6 0h2v1h-2zm-307 1h8v1h-8zm8 0h1v1h-1zm12 0h5v19h-5zm20 0h7v1h-7zm7 0h1v1h-1zm12 0h7v19h-7zm19 0h10v1H91zm10 0h1v1h-1zm6 0h8v1h-8zm46 0h1v1h-1zm7 0h10v1h-10zm10 0h1v1h-1zm27 0h11v1h-11zm21 0h10v1h-10zm10 0h1v1h-1zm30 0h7v1h-7zm7 0h1v1h-1zm7 0h6v1h-6zm23 0h1v19h-1zm11 0h7v1h-7zm7 0h1v1h-1zm8 0h1v1h-1zM2 137h1v18H2zm13 0h4v1h-4zm4 0h1v1h-1z"/><path d="M32 137h6v18h-6zm24 0h1v1h-1zm1 0h1v1h-1zm23 0h1v18h-1zm13 0h6v1h-6zm6 0h1v1h-1zm9 0h7v1h-7zm54 0h7v1h-7zm7 0h1v1h-1zm10 0h7v18h-7zm20 0h1v1h-1zm1 0h1v1h-1zm5 0h3v18h-3zm14 0h8v1h-8zm8 0h1v1h-1zm19 0h1v18h-1zm15 0h1v1h-1zm1 0h1v1h-1zm11 0h5v1h-5zm34 0h5v1h-5zm5 0h1v1h-1zm3 0h1v4h-1z"/><path d="M71 138h10v17H71zm10 0h1v17h-1zm28 0h6v17h-6zm38 0h5v17h-5zm5 0h1v1h-1zm57 0h1v17h-1zm12 0h4v1h-4zm4 0h1v1h-1zm22 0h1v17h-1zm27 0h4v17h-4zm22 0h1v17h-1zm11 0h5v1h-5zm5 0h1v1h-1zm10 0h1v1h-1zM3 139h1v16H3zm28 0h7v16h-7zm266 0h1v16h-1zm11 0h3v1h-3zm3 0h1v16h-1zm3 0h1v1h-1zm6 0h1v1h-1zM4 140h1v15H4z"/><path d="M30 140h8v15h-8zm18 0h1v15h-1zm22 0h12v15H70zm12 0h1v15h-1zm96 0h9v15h-9zm9 0h1v15h-1zm23 0h1v15h-1zm38 0h1v15h-1zm60 0h3v1h-3zm6 0h1v1h-1zm6 0h1v1h-1zM5 141h1v14H5z"/><path d="M29 141h9v14h-9zm20 0h1v14h-1zm20 0h14v14H69zm14 0h1v14h-1zm25 0h7v14h-7zm44 0h1v14h-1zm25 0h10v14h-10zm72 0h1v14h-1zm24 0h5v14h-5zm25 0h1v14h-1zm11 0h2v1h-2zm6 0h1v1h-1zM6 142h1v13H6z"/><path d="M28 142h10v13H28zm22 0h1v13h-1zm18 0h16v13H68zm16 0h1v13h-1zm23 0h8v13h-8zm46 0h1v13h-1zm23 0h12v13h-12zm12 0h1v13h-1zm23 0h1v13h-1zm19 0h1v13h-1zm20 0h1v13h-1zm1 0h1v13h-1zm21 0h6v13h-6zm38 0h2v1h-2zm2 0h1v13h-1zm4 0h3v1h-3zm3 0h1v1h-1zm3 0h1v13h-1zM7 143h1v12H7zm1 0h1v12H8z"/><path d="M26 143h12v12H26zm25 0h1v12h-1zm16 0h19v12H67zm19 0h1v12h-1zm19 0h10v12h-10zm49 0h1v12h-1zm1 0h1v12h-1zm20 0h14v12h-14zm14 0h1v12h-1zm23 0h1v12h-1zm17 0h1v12h-1zm23 0h1v12h-1zm18 0h8v12h-8zm29 0h1v12h-1zm11 0h3v12h-3zm3 0h1v12h-1zm8 0h1v12h-1zM9 144h1v11H9z"/><path d="M25 144h13v11H25zm27 0h1v11h-1zm1 0h1v11h-1zm12 0h23v11H65zm23 0h1v11h-1zm15 0h12v11h-12zm53 0h1v11h-1zm1 0h1v11h-1zm17 0h16v11h-16zm16 0h1v11h-1zm13 0h11v11h-11zm11 0h1v11h-1zm13 0h3v11h-3zm26 0h1v11h-1zm1 0h1v11h-1zm14 0h10v11h-10zm46 0h1v11h-1zm6 0h2v11h-2zm-310 1h3v10h-3zm3 0h1v10h-1z"/><path d="M21 145h17v10H21zm33 0h2v10h-2zm2 0h1v10h-1zm6 0h29v10H62zm29 0h1v10h-1zm9 0h61v10h-61zm61 0h1v10h-1zm10 0h22v10h-22zm22 0h1v10h-1zm7 0h17v10h-17zm17 0h1v10h-1zm7 0h34v10h-34zm34 0h1v10h-1zm7 0h57v10h-57z"/><path d="M14 146h24v9H14zm43 0h265v9H57zm-57 9h38v1H0zm38 0h1v1h-1zm10 0h274v1H48zm274 0h1v1h-1z"/></g><path d="M19 105h1v1h-1zm37 0h1v1h-1zm40 0h1v1h-1zm37 0h2v1h-2zm2 0h1v1h-1zm-124 1h1v1h-1zm113 0h1v1h-1zm37 0h1v1h-1zm43 0h1v1h-1zm64 0h1v1h-1zm2 1h1v1h-1zm-243 1h1v1h-1zm-21 1h1v1H6zm172 0h1v2h-1zm72 0h1v1h-1zm-14 1h1v1h-1zm13 0h1v1h-1zM4 111h1v1H4zm174 0h1v1h-1zm-24 1h1v1h-1zm58 0h1v1h-1zm-120 1h1v1h-1zm112 0h1v1h-1zm56 0h1v1h-1zm3 0h1v1h-1zm9 0h1v1h-1zm-45 1h1v1h-1zm-176 1h1v1h-1zm205 0h1v1h-1zm-103 1h1v1h-1zm-80 1h1v1h-1zm166 0h1v1h-1zm-190 1h1v1h-1zm251 0h1v1h-1zM9 119h1v1H9zm55 0h1v1h-1zm101 1h1v1h-1zm-130 3h1v1h-1zm120 0h1v1h-1zm1 1h1v1h-1zm139 0h1v1h-1zm-85 2h1v1h-1zm-184 2h1v1h-1zm193 0h1v1h-1zm-1 1h1v1h-1zm-140 1h1v1h-1zm224 0h1v1h-1zM9 131h1v1H9zm55 0h1v1h-1zm-64 1h1v1H0zm170 0h1v1h-1zm47 0h1v1h-1zm0 1h1v1h-1zm-62 1h1v1h-1zm-132 1h1v1h-1zm10 0h1v1h-1zm223 0h1v1h-1zm49 0h1v1h-1zm-225 1h1v1h-1zm79 0h1v1h-1zm70 0h1v1h-1zm17 0h1v1h-1zm-85 1h1v1h-1zm37 0h1v1h-1zm6 0h1v5h-1zm59 0h1v1h-1zm33 0h1v1h-1zm-131 1h2v1h-2zm2 0h1v1h-1zm-85 1h1v1h-1zm166 0h1v1h-1zm-142 3h1v1h-1zm98 0h1v1h-1zm67 0h1v1h-1zm-205 1h1v1h-1zm162 0h1v1h-1zm-70 1h1v1h-1zm-97 1h1v1h-1zm-22 10h1v1h-1z" fill="#f3f2f2"/><path d="M54 106h1v1h-1zm174 0h1v1h-1zm39 0h1v1h-1zm40 3h1v1h-1zm-183 2h1v1h-1zm79 2h1v1h-1zm-171 1h1v1h-1zm182 1h1v1h-1zm56 0h1v1h-1zm-145 1h1v1h-1zm-16 1h1v1h-1zm37 2h1v24h-1zm-68 6h1v1h-1zm0 1h1v1h-1zm166 2h1v1h-1zm-218 2h1v1h-1zm47 1h1v1h-1zm-9 1h1v1h-1zm224 0h1v1h-1zM2 136h1v1H2zm10 0h1v1h-1zm36 3h1v1h-1zm-42 2h1v1H6zm140 2h1v1h-1zm26 1h1v1h-1zm20 0h1v1h-1zm-24 1h1v1h-1z" fill="#b1aead"/><path d="M120 1h1v1h-1zm72 1h1v1h-1zm1 1h1v1h-1zm-76 1h1v1h-1zm77 0h1v1h-1zm0 1h1v1h-1zm-58 12h1v1h-1zm39 0h1v1h-1zm2 2h1v1h-1zm1 2h1v1h-1zm0 1h1v1h-1zm-45 10h1v14h-1zm0 14h1v1h-1zm-15 1h14v1h-14zm14 0h1v1h-1zm47 0h14v1h-14zm14 0h1v1h-1zm-15 7h1v2h-1zm17 0h1v1h-1zm-17 2h1v1h-1zm-45 1h1v1h-1zm61 16h1v1h-1zm-74 3h1v1h-1z" fill="#ec0033"/><path fill="#f27387" d="M192 1h1v1h-1z"/><path d="M134 20h1v1h-1zm0 34h1v2h-1zm0 2h1v1h-1zm-16 20h1v1h-1zm5 2h65v1h-65zm65 0h1v1h-1z" fill="#fde7eb"/><path d="M177 21h1v3h-1zm0 3h1v1h-1zm-61 49h1v1h-1zm77 3h1v1h-1z" fill="#fac9d0"/><g fill="#4d453f"><path d="M280 94h5v49h-5zm5 0h1v49h-1zm-96 4h4v41h-4zm4 0h1v44h-1zm-179 9h6v4h-6zm6 0h1v4h-1zm36 0h6v3h-6zm6 0h1v6h-1zm30 0h5v3h-5zm5 0h1v4h-1zm35 0h4v4h-4zm4 0h1v6h-1z"/><path d="M188 107h6v5h-6zm6 0h1v5h-1zm64 0h7v4h-7zm7 0h1v4h-1zm-254 1h12v3H11zm12 0h1v5h-1zm18 0h5v45h-5zm5 0h1v15h-1zm7 0h11v2H53zm11 0h1v7h-1zm25 0h11v2H89zm11 0h1v5h-1zm17 0h5v34h-5zm5 0h1v34h-1zm7 0h10v3h-10zm10 0h1v10h-1zm22 0h11v2h-11zm11 0h1v4h-1z"/><path d="M185 108h17v2h-17zm17 0h1v3h-1zm15 0h13v3h-13zm13 0h1v6h-1zm25 0h13v3h-13zm13 0h1v5h-1zm32 0h6v1h-6zm6 0h1v1h-1zM9 109h16v2H9zm16 0h1v6h-1zm27 0h14v1H52zm14 0h1v10h-1zm21 0h15v1H87zm15 0h1v7h-1zm26 0h13v2h-13zm13 0h1v33h-1zm18 0h15v1h-15zm15 0h1v4h-1z"/><path d="M214 109h18v2h-18zm18 0h1v8h-1zm21 0h17v2h-17zm17 0h1v4h-1zm29 0h6v1h-6zm6 0h1v1h-1zM8 110h19v1H8zm19 0h1v9h-1zm24 0h16v1H51zm16 0h1v30h-1zm19 0h17v1H86zm17 0h1v8h-1zm24 0h15v1h-15zm15 0h1v32h-1zm16 0h18v1h-18zm18 0h1v1h-1zm8 0h18v1h-18zm49 0h1v32h-1z"/><path d="M252 110h19v1h-19zm19 0h1v1h-1zm28 0h5v1h-5zm5 0h1v1h-1zM5 111h23v1H5zm23 0h1v28h-1zm22 0h5v1h-5zm5 0h1v1h-1zm3 0h10v1H58zm10 0h1v28h-1zm17 0h7v1h-7zm7 0h1v1h-1zm4 0h8v1h-8zm8 0h1v15h-1zm22 0h16v1h-16zm31 0h7v1h-7zm7 0h1v1h-1zm4 0h8v1h-8zm8 0h1v1h-1zm10 0h16v1h-16zm16 0h1v1h-1zm12 0h20v1h-20zm20 0h1v31h-1zm17 0h20v1h-20zm20 0h1v2h-1zm27 0h5v2h-5zm5 0h1v1h-1zM6 112h7v1H6zm7 0h1v1h-1z"/><path d="M21 112h8v1h-8zm8 0h1v26h-1zm20 0h3v1h-3zm3 0h1v1h-1zm9 0h8v1h-8zm8 0h1v25h-1zm15 0h6v1h-6zm6 0h1v1h-1zm9 0h6v1h-6zm6 0h1v14h-1zm18 0h4v1h-4zm4 0h1v1h-1zm8 0h8v1h-8zm8 0h1v30h-1zm13 0h6v1h-6zm6 0h1v1h-1zm9 0h4v1h-4zm4 0h1v1h-1zm13 0h6v1h-6zm6 0h1v1h-1zm20 0h4v1h-4zm4 0h1v1h-1zm9 0h8v1h-8zm8 0h1v30h-1zm15 0h7v1h-7zm7 0h1v1h-1zm9 0h4v1h-4zm31 0h5v2h-5zM5 113h6v1H5zm6 0h1v1h-1zm12 0h6v1h-6zm24 0h4v2h-4zm4 0h1v1h-1zm11 0h7v1h-7zm21 0h6v1h-6zm6 0h1v1h-1zm11 0h5v1h-5zm23 0h3v1h-3zm3 0h1v1h-1zm10 0h7v1h-7zm20 0h5v1h-5zm5 0h1v1h-1zm12 0h2v1h-2zm2 0h1v1h-1zm40 0h1v1h-1z"/><path d="M229 113h8v1h-8zm8 0h1v1h-1zm12 0h7v1h-7zm7 0h1v1h-1zm12 0h3v1h-3zm3 0h1v1h-1zm25 0h6v1h-6zm6 0h1v1h-1zM4 114h6v1H4zm6 0h1v1h-1zm14 0h6v1h-6zm6 0h1v23h-1zm21 0h1v1h-1zm12 0h7v1h-7zm7 0h1v22h-1zm12 0h6v1h-6zm6 0h1v1h-1zm13 0h5v1h-5zm5 0h1v12h-1zm17 0h2v1h-2zm2 0h1v1h-1zm12 0h7v1h-7zm7 0h1v28h-1zm12 0h4v7h-4zm4 0h1v1h-1zm13 0h1v1h-1zm57 0h6v1h-6zm6 0h1v28h-1zm12 0h6v2h-6zm6 0h1v1h-1zm15 0h1v1h-1zm27 0h5v1h-5zm5 0h1v1h-1zM4 115h5v2H4zm5 0h1v1H9z"/><path d="M25 115h6v1h-6zm6 0h1v20h-1zm16 0h3v1h-3zm3 0h1v1h-1zm14 0h6v1h-6zm18 0h5v2h-5zm5 0h1v1h-1zm36 0h1v2h-1zm1 0h1v2h-1zm14 0h6v1h-6zm17 0h4v4h-4zm76 0h5v1h-5zm64 0h5v1h-5zm5 0h1v1h-1zM3 116h5v3H3zm23 0h5v1h-5zm21 0h1v2h-1zm1 0h1v1h-1zm17 0h5v1h-5zm37 0h5v1h-5zm5 0h1v10h-1zm33 0h4v26h-4zm97 0h1v26h-1zm1 0h1v1h-1zm9 0h6v2h-6zm6 0h1v1h-1zm41 0h5v1h-5zm5 0h1v2h-1zM8 117h1v1H8zm18 0h5v2h-5zm39 0h6v1h-6zm6 0h1v16h-1zm10 0h5v3h-5zm5 0h1v1h-1zm37 0h1v1h-1zm1 0h1v1h-1zm108 0h5v1h-5zm61 0h5v2h-5zm5 0h1v1h-1z"/><path d="M1 118h6v1H1zm31 0h1v15h-1zm15 0h1v1h-1zm56 0h4v1h-4zm36 0h5v1h-5zm21 0h1v7h-1zm87 0h5v3h-5zm5 0h1v1h-1zm40 0h5v2h-5zm7 0h1v1h-1zM2 119h5v13H2zm5 0h1v1H7zm19 0h6v1h-6zm40 0h5v1h-5zm42 0h1v7h-1zm47 0h5v1h-5z"/><path d="M246 119h5v12h-5zm51 0h1v1h-1zm-217 1h5v11h-5zm5 0h1v1h-1zm76 0h1v5h-1zm1 0h1v7h-1zm129 0h5v1h-5zm5 0h1v1h-1zm-263 1h1v8h-1z"/><path d="M156 121h7v1h-7zm7 0h1v5h-1zm88 0h1v1h-1zm39 0h5v1h-5zm5 0h1v1h-1zm-223 1h1v6h-1z"/><path d="M157 122h8v1h-8zm8 0h1v5h-1zm124 0h5v2h-5zm5 0h1v1h-1zM1 123h5v5H1zm45 0h1v1h-1zm39 0h1v5h-1z"/><path d="M156 123h11v1h-11zm11 0h1v5h-1zm50 0h12v1h-12zm12 0h1v2h-1zm3 0h5v4h-5zm54 0h7v2h-7zm-200 1h1v3h-1zm17 0h5v2h-5z"/><path d="M159 124h10v1h-10zm10 0h1v5h-1zm46 0h22v1h-22zm78 0h1v1h-1zm-206 1h21v1H87z"/><path d="M160 125h11v1h-11zm11 0h1v5h-1zm42 0h9v1h-9zm9 0h1v1h-1zm5 0h10v1h-10zm59 0h6v1h-6zm6 0h1v1h-1zm-205 1h21v1H87zm21 0h1v1h-1z"/><path d="M163 126h10v1h-10zm10 0h1v16h-1zm39 0h7v1h-7zm7 0h1v1h-1zm12 0h6v1h-6zm55 0h5v1h-5zm5 0h1v1h-1zm-245 1h1v26h-1zm40 0h1v1h-1zm76 0h1v1h-1z"/><path d="M165 127h9v1h-9zm9 0h1v14h-1zm38 0h5v2h-5zm5 0h1v1h-1zm15 0h5v1h-5zm54 0h4v1h-4zm4 0h1v1h-1zm8 0h1v10h-1zM1 128h5v1H1zm71 0h1v1h-1zm13 0h1v11h-1z"/><path d="M167 128h8v1h-8zm8 0h1v12h-1zm36 0h5v10h-5zm75 0h3v2h-3zm3 0h1v1h-1zm10 0h1v11h-1zm-266 1h1v1h-1z"/><path d="M169 129h7v1h-7zm7 0h1v10h-1zm40 0h1v1h-1zm35 0h1v10h-1zm46 0h2v6h-2zm-127 1h6v1h-6zm116 0h2v1h-2zm2 0h1v1h-1z"/><path d="M296 130h4v3h-4zm4 0h1v10h-1zM7 131h1v9H7zm59 0h5v5h-5zm14 0h5v1h-5zm92 0h5v1h-5zm5 0h1v6h-1zm69 0h5v1h-5zm40 0h1v1h-1zm1 0h1v1h-1zM2 132h5v1H2zm25 0h5v3h-5zm20 0h1v6h-1zm34 0h4v2h-4zm91 0h5v1h-5zm75 0h5v2h-5zm5 0h1v8h-1zm34 0h1v1h-1zm15 0h1v10h-1z"/><path d="M3 133h5v2H3zm5 0h1v7H8zm24 0h1v1h-1zm33 0h6v3h-6zm6 0h1v1h-1zm15 0h1v7h-1zm210 0h5v1h-5zm-270 1h5v3h-5zm22 0h1v3h-1zm33 0h5v1h-5zm166 0h6v1h-6zm6 0h1v7h-1zm49 0h1v9h-1z"/><path d="M3 135h6v1H3zm6 0h1v6H9zm16 0h6v2h-6zm6 0h1v1h-1zm18 0h1v3h-1zm15 0h6v2h-6zm18 0h5v1h-5zm5 0h1v6h-1zm145 0h5v4h-5zm16 0h5v1h-5zm7 0h1v7h-1zm42 0h6v1h-6zm6 0h1v8h-1z"/><path d="M4 136h6v1H4zm6 0h1v6h-1zm40 0h1v3h-1zm13 0h7v1h-7zm7 0h1v1h-1zm12 0h6v1h-6zm6 0h1v5h-1zm68 0h1v5h-1zm38 0h1v7h-1zm37 0h6v2h-6zm17 0h6v1h-6zm6 0h1v5h-1zm15 0h1v5h-1z"/><path d="M5 137h6v1H5zm6 0h1v5h-1zm13 0h6v1h-6zm6 0h1v1h-1zm18 0h3v1h-3zm3 0h1v3h-1zm11 0h7v2h-7zm7 0h1v1h-1zm14 0h6v1h-6zm6 0h1v5h-1zm15 0h1v4h-1zm1 0h1v3h-1zm50 0h2v3h-2zm2 0h1v4h-1zm15 0h5v2h-5zm5 0h1v1h-1zm18 0h1v6h-1zm21 0h1v5h-1zm33 0h7v1h-7zm7 0h1v5h-1zm12 0h2v4h-2zm2 0h1v3h-1zm28 0h6v1h-6zm6 0h1v6h-1z"/><path d="M5 138h7v1H5zm7 0h1v4h-1zm10 0h7v1h-7zm7 0h1v1h-1zm18 0h5v1h-5zm5 0h1v3h-1zm9 0h7v2h-7zm23 0h6v1h-6zm6 0h1v4h-1zm12 0h4v2h-4zm4 0h1v2h-1zm52 0h1v4h-1zm1 0h1v4h-1zm12 0h5v2h-5zm25 0h1v5h-1zm15 0h6v1h-6zm6 0h1v5h-1zm13 0h7v1h-7zm20 0h7v1h-7zm7 0h1v4h-1zm9 0h5v2h-5zm5 0h1v2h-1z"/><path d="M6 139h9v1H6zm9 0h1v4h-1zm5 0h8v1h-8zm8 0h1v1h-1zm22 0h18v1H50zm18 0h1v1h-1zm17 0h7v1h-7zm7 0h1v4h-1zm8 0h7v1h-7zm54 0h7v1h-7zm7 0h1v4h-1zm9 0h6v1h-6zm6 0h1v1h-1zm13 0h13v1h-13zm13 0h1v3h-1zm10 0h6v1h-6zm6 0h1v4h-1zm10 0h2v1h-2zm2 0h7v1h-7zm21 0h21v1h-21zm48 0h6v1h-6zm6 0h1v4h-1z"/><path d="M7 140h20v1H7zm20 0h1v1h-1zm24 0h16v1H51zm16 0h1v1h-1zm19 0h20v1H86zm20 0h1v1h-1zm48 0h21v1h-21zm21 0h1v1h-1zm15 0h12v1h-12zm23 0h7v1h-7zm7 0h1v3h-1zm6 0h3v1h-3zm3 0h1v1h-1zm23 0h19v1h-19zm19 0h1v1h-1zm29 0h7v1h-7zm7 0h1v3h-1zM9 141h17v1H9zm17 0h1v1h-1zm26 0h14v1H52zm14 0h1v1h-1zm19 0h19v1H85zm19 0h1v1h-1zm52 0h18v1h-18zm18 0h1v1h-1zm16 0h12v1h-12z"/><path d="M213 141h15v1h-15zm15 0h1v1h-1zm25 0h16v1h-16zm16 0h1v1h-1zm37 0h1v2h-1zm-296 1h14v1H10zm14 0h2v1h-2zm2 0h1v1h-1zm27 0h11v1H53zm11 0h1v1h-1zm25 0h13v1H89zm13 0h1v1h-1zm15 0h5v1h-5zm5 0h1v1h-1zm18 0h4v1h-4zm4 0h1v1h-1zm14 0h15v1h-15zm15 0h1v1h-1zm18 0h11v1h-11zm11 0h1v1h-1zm13 0h11v1h-11zm11 0h1v1h-1zm7 0h4v1h-4zm4 0h1v1h-1zm18 0h12v1h-12zm12 0h1v1h-1z"/><path d="M301 142h6v1h-6zm-288 1h8v1h-8zm8 0h1v1h-1zm35 0h5v1h-5zm5 0h1v1h-1zm30 0h9v1h-9zm9 0h1v1h-1zm61 0h9v1h-9zm9 0h1v1h-1zm24 0h6v1h-6zm6 0h1v1h-1zm3 0h1v1h-1zm14 0h7v1h-7zm7 0h1v1h-1zm34 0h6v1h-6zm6 0h1v1h-1zm16 0h5v1h-5zm5 0h1v1h-1zm17 0h5v1h-5zm5 0h1v1h-1zm-216 1h1v1h-1zm9 0h1v1h-1zm-59 9h5v1h-5zm5 0h1v1h-1z"/></g></svg>