<svg xmlns="http://www.w3.org/2000/svg" role="img" viewBox="107.40 -42.60 8195.20 2780.20"><title>Open19 Foundation logo</title><defs><style>.cls-2{fill:#444b47}.cls-3{fill:#057fbd}.cls-5{fill:#fff}</style></defs><path fill="none" d="M2670.874 995.785c122.373-2.162 244.888.989 367.163-3.282 97.377-3.399 172.453-64.3 202.025-153.263 55.228-166.159-51.169-313.447-235.36-320.403-109.383-4.129-219.064.338-328.566-1.536-33.679-.577-45.232 9.66-44.028 43.666l.158 393.001c-.681 28.916 5.877 42.395 38.608 41.817zM371.543 1112.101c-25.138-2.791-40.37 13.956-42.683 36.724-2.453 24.152 13.193 39.508 37.182 41.787 24.945 2.372 38.412-12.558 44.415-38.404-2.985-20.998-15.426-37.498-38.914-40.107zm315.498-.912c-22.305 4.292-40.36 14.59-40.501 40.2-.139 25.243 15.548 39.229 40.05 39.196 21.458-.03 36.385-12.411 37.606-34.793 1.35-24.852-13.732-38.33-37.155-44.603zm1041.202-181.256c25.84 1.313 39.23-12.724 41.495-38.066-.703-25.743-13.803-40.913-39.436-39.8-24.616 1.071-39.47 16.388-38.81 41.54.577 22.303 14.581 35.199 36.75 36.326zm317.72-78.486c-23.096-.215-37.993 14.603-39.36 34.7-1.498 22.047 8.11 42.326 36.064 43.865 26.61 1.463 38.555-13.952 44.6-41.994-5.506-18.013-14.646-36.323-41.304-36.571z"/><path d="M2108.49 825.519c-25.395-21.584-34.257-46.185-43.822-74.496-116.518-344.942-374.625-580.086-737.52-625.821-44.616-5.623-152.526-9.693-152.526-9.693-425.667 7.593-807.95 340.633-858.802 792.93-5.243 46.619 7.656 54.814 48.91 53.871 94.535-2.162 189.238-3.036 283.703.32 46.648 1.655 66.105-10.481 75.665-59.984 38.85-201.227 213.099-364.079 416.42-390.32 206.116-26.6 410.936 84.456 505.78 266.04 13.911 26.634 17.196 47.496 2.363 76.586-24 47.073-7.865 89.555 37.465 115.123 45.004 25.378 89.887 17.368 119.486-25.486 28.837-41.75 25.885-88.166-14.658-121.339-24.582-20.11-37.546-43.701-51.643-70.438-111.517-211.5-286.934-330.352-526.723-332.036C973.85 419.1 782.99 549.986 687.916 744.734c-23.426 47.985-54.923 118.974-54.923 118.974H410.457c98.175-445.183 420.767-646.702 780.99-657.223 345.114-10.08 665.4 216.822 776.117 549.609 10.774 32.388 18.09 60.293-2.43 95.947-25.034 43.5-12.32 90.015 33.369 117.06 44.328 26.235 88.29 18.98 120.358-22.598 32.235-41.795 28.58-87.88-10.372-120.984zm-378.188 26.549c25.633-1.114 38.733 14.056 39.436 39.799-2.266 25.342-15.655 39.379-41.495 38.066-22.17-1.127-36.174-14.023-36.752-36.326-.659-25.152 14.195-40.469 38.81-41.54zm312.365 77.944c-27.954-1.539-37.562-21.818-36.064-43.865 1.367-20.097 16.264-34.915 39.36-34.7 26.658.248 35.798 18.558 41.305 36.571-6.046 28.042-17.992 43.457-44.6 41.994z" class="cls-2"/><path d="M1990.5 1196.507s-5.821 29.79-22.25 77.12c-111.25 320.513-409.476 530.717-756 537.828-326.68 6.702-636.54-205.487-754.434-516.35-14.489-38.208-27.218-73.197-3.44-115.49 21.783-38.745 1.763-76.273-31.453-101.637-36.988-28.25-94.08-28.244-121.923 8.029-15.265 19.886-21.793 48.084-22.101 65.32-1.127 63.008 61.27 85.31 78.041 136.534 144.861 442.441 588.552 693.953 1044.219 595.778 346.323-74.616 624.23-360.436 686.904-706.465 13.541-74.755 13.443-74.975-62.99-75.079-85.976-.12-172.164 3.636-257.851-1.353-27.244-1.587-62.405-.07-62.405-.07s-16.423 41.938-25.44 67.387c-71.384 201.497-223.35 316.68-435.289 334.802-190.608 16.303-341.388-65.114-451.126-221.376-22.036-31.378-39.08-60.263-20.892-105.44 18.47-45.89-2.32-89.226-52.883-109.078-46.874-18.405-85.78-3.723-111.133 37.645-27.568 44.981-18.738 88.953 23.572 119.352 25.647 18.428 41.054 40.67 56.355 67.045 111.988 193.032 279.697 301.723 503.32 307.388 228.977 5.803 413.169-92.11 521.853-293.054 23.835-44.065 55.165-113.416 55.165-113.416m-1081.73-1.342c-24.5.033-40.188-13.953-40.05-39.197.142-25.61 18.197-35.907 40.502-40.199 23.423 6.272 38.505 19.751 37.155 44.603-1.22 22.382-16.148 34.763-37.607 34.793zm-320.547.027c-23.989-2.28-39.635-17.635-37.182-41.787 2.313-22.768 17.545-39.515 42.683-36.724 23.488 2.61 35.93 19.109 38.914 40.107-6.003 25.846-19.47 40.776-44.415 38.404zm6873.808-110.567c212.608 98.62 413.5 93.94 639.45-43.303.892 100.614 18.263 171.802-22.138 250.272-102.328 198.724-494.564 167.57-559.018 32.222-13.7-28.766-24.321-57.524-24.321-57.524l-252.863-2.862c-9.025 11.134-4.684 29.665-1.078 52.97 18.166 117.362 82.049 204.31 185.858 255.109 226.548 110.855 459.91 118.615 689.66 13.073 144.353-66.312 231.167-181.915 237.557-347.27 7.217-186.728 7.794-373.471-.485-560.198-5.856-132.048-68.769-232.39-173.543-308.202-212.608-153.838-572.385-150.567-782.734 6.12-250.808 186.83-219.662 578.173 63.655 709.593zm125.76-545.73c138.868-76.648 285.393-76.577 422.778 5.81 119.922 71.911 121.741 237.784 9.064 320.748-68.785 50.641-149.249 61.503-229.941 66.577-74.963-4.745-146.782-15.397-209.537-57.687-126.665-85.366-125.903-261.739 7.637-335.448zM2425.322 1628.742c53.403-4.14 107.475-2.999 161.058-.267 36.32 1.85 48.005-9.895 47.15-46.673-2.305-98.793 1.361-197.744-1.77-296.49-1.368-43.14 12.892-53.409 54.317-53.496 133.082-.272 266.393 8.217 399.268-4.932 246.266-24.37 419.193-212.549 424.825-461.37 5.698-251.72-159.211-453.34-406.768-482.937l-728.645 1.43c-.452 206.29-.262 457.731-.262 664.021 0 208.44.845 416.887-.746 625.312-.305 39.132 6.03 58.932 51.573 55.402zm250.814-1111.44c109.502 1.873 219.183-2.594 328.565 1.535 184.192 6.956 290.589 154.244 235.361 320.403-29.572 88.964-104.648 149.864-202.025 153.263-122.275 4.27-244.79 1.12-367.163 3.282-32.731.578-39.29-12.901-38.608-41.817l-.158-393c-1.204-34.007 10.35-44.244 44.028-43.667z" class="cls-3"/><path d="M3729.773 527.607c150.186-2.08 300.41-.83 450.623-.83s300.453-1.785 450.611 1.072c45.793.872 59.907-13.184 56.611-57.75-3.627-49.085-3.083-98.784-.103-147.957 2.31-38.211-13.324-47.964-48.408-46.319-49.247 2.304-98.684.572-148.04.57-253.21 0-506.433 1.119-759.622-1.025-45.766-.39-60.02 13.463-56.589 57.998a895.005 895.005 0 0 1-.049 141.492c-3.633 44.399 14.51 53.307 54.966 52.749zm957.949 1052.607c-3.895-53.44-2.212-107.42-.447-161.088 1.024-31.061-5.224-46.635-41.702-46.493q-464.17 1.798-928.345.008c-36.037-.136-43.238 14.61-42.073 46.145 1.912 51.504 3.835 103.41-.452 154.625-3.992 47.648 15.252 56.143 58.316 55.41 148.236-2.517 296.537-.967 444.816-.967 152.577-.003 305.165-.997 457.72.72 36.746.413 55.293-5.437 52.167-48.36zM3736.55 1073.92c247.006-2.026 494.05-.188 741.069-1.53 59.329-.324 137.44 26.314 172.992-11.423 34.997-37.146 5.18-114.695 11.101-174.003 4.548-45.545-15.976-52.141-55.168-51.616-143.894 1.926-287.826.763-431.748.763-107.405 0-214.831-1.321-322.203.534-57.21.986-132.407-25.188-166.767 11.253-33.853 35.907-4.314 110.717-11.02 167.728-6.105 51.954 16.734 58.665 61.743 58.294z" class="cls-2"/><path fill="#fdfdfd" d="M2045.963 851.447c-23.096-.215-37.993 14.603-39.36 34.7-1.498 22.047 8.11 42.326 36.064 43.865 26.61 1.463 38.555-13.952 44.6-41.994-5.506-18.013-14.646-36.323-41.304-36.571zm-317.72 78.486c25.84 1.313 39.23-12.724 41.495-38.066-.703-25.743-13.803-40.913-39.436-39.8-24.616 1.071-39.47 16.388-38.81 41.54.577 22.303 14.581 35.199 36.75 36.326zm-1356.7 182.168c-25.138-2.791-40.37 13.956-42.683 36.724-2.453 24.152 13.193 39.508 37.182 41.787 24.945 2.372 38.412-12.558 44.415-38.404-2.985-20.998-15.426-37.498-38.914-40.107zm315.498-.912c-22.305 4.292-40.36 14.59-40.501 40.2-.139 25.243 15.548 39.229 40.05 39.196 21.458-.03 36.385-12.411 37.606-34.793 1.35-24.852-13.732-38.33-37.155-44.603zm6670.933-241.426c62.755 42.29 134.575 52.942 209.537 57.686 80.692-5.073 161.156-15.935 229.94-66.576 112.678-82.964 110.859-248.837-9.063-320.749-137.385-82.386-283.91-82.457-422.777-5.81-133.54 73.71-134.302 250.083-7.637 335.449zM4377.53 2199.594c-57.93-2.222-103.44 42.983-105.782 105.074-2.408 63.752 43.68 115.275 102.736 114.859 57.336-.404 102.563-47.787 103.369-108.298.795-59.746-43.892-109.47-100.324-111.635zm-1356.782-3.5c-50.788 2.449-91.303 52.646-91.085 112.841.24 66.024 40.89 111.88 98.28 110.87 57.015-1.006 96.91-49.019 94.916-114.225-1.907-62.322-48.316-112.078-102.11-109.486z"/><path d="M3669.228 275.36h1018.834v252.527H3669.228zm2.569 554.237h1018.834v252.527H3671.797zm0 544.887h1018.834v252.527H3671.797z" class="cls-2"/><path d="M4939.799 279.694v1351.651h275.121v-888.86l637.453 888.86H6066.1V279.694h-249.001v827.884L5197.06 279.687l-257.261.007zm1263.973-4.341h474.987v241.081h-474.987z" class="cls-3"/><path d="M6419.034 1480.114V418.091h259.725v1062.023z" class="cls-3"/><path d="M6217.781 1390.456h647.463v241.081h-647.463zM2374.757 284.008h257.267v1343.003h-257.267z" class="cls-3"/><circle cx="1730.604" cy="891.014" r="40.471" class="cls-5"/><circle cx="2047.182" cy="892.874" r="70.894" class="cls-5"/><path d="M2047.183 985.268a92.394 92.394 0 1 1 92.393-92.395 92.499 92.499 0 0 1-92.393 92.395zm0-141.788a49.394 49.394 0 1 0 49.393 49.393 49.45 49.45 0 0 0-49.393-49.393z" class="cls-2"/><circle cx="1730.604" cy="892.874" r="70.894" class="cls-5"/><path d="M1730.604 985.268a92.394 92.394 0 1 1 92.394-92.395 92.499 92.499 0 0 1-92.394 92.395zm0-141.788a49.394 49.394 0 1 0 49.394 49.393 49.45 49.45 0 0 0-49.394-49.393z" class="cls-2"/><circle cx="684.208" cy="1156.687" r="70.894" class="cls-5"/><path d="M684.209 1255.467a98.782 98.782 0 1 1 98.782-98.782 98.892 98.892 0 0 1-98.782 98.782zm0-141.786a43.004 43.004 0 1 0 43.004 43.004 43.055 43.055 0 0 0-43.004-43.004z" class="cls-3"/><circle cx="367.452" cy="1152.209" r="70.894" class="cls-5"/><path d="M367.453 1250.99a98.782 98.782 0 1 1 98.782-98.782 98.892 98.892 0 0 1-98.782 98.782zm0-141.787a43.004 43.004 0 1 0 43.004 43.005 43.055 43.055 0 0 0-43.004-43.005z" class="cls-3"/><path d="M3008.52 2195.754c-105.068.39-185.368 85.516-183.821 194.849 1.574 111.223 80.926 191.586 188.026 190.42 106.969-1.163 184.785-83.195 184.257-194.252-.518-108.53-82.305-191.414-188.462-191.017zm.185 307.845c-57.118-1.364-97.044-48.263-97.665-114.723-.61-64.615 40.428-115.597 94.952-117.966 57.129-2.484 103.897 49.268 104.676 115.815.806 68.69-42.481 118.304-101.963 116.874zM5793.72 2195.74c-104.958-.389-185.792 84.228-185.008 193.665.78 111.176 79.652 192.068 186.823 191.637 106.849-.435 185.166-81.97 185.444-193.08.278-108.332-81.074-191.824-187.258-192.221zm-1.6 307.832c-59.117-1.811-99.338-52.26-97.061-121.758 2.108-64.043 47.155-113.015 101.98-110.858 56.828 2.23 99.865 56.374 97.643 122.828-2.2 65.476-45.249 111.555-102.563 109.788zm-1699.34-151.409c-13.7-136.519-126.73-188.13-253.168-125.165-9.434 4.699-13.497 10.137-17.61 9.582v-36.128h-88.737v375.239h88.737v-199.455c.278-3.333.687-6.683.926-10.011 3.982-56.342 47.188-96.004 96.685-95.348 48.473.64 81.744 34.518 87.262 89.705v208.869h88.732l-.528-40.496-.316-24.47c-.082-50.882 3.066-101.988-1.983-152.322zm1198.664 138.804c-32.846-.49-61.791-18.964-62.467-52.397.202-37.705 1.368-102.47 2.664-165.114h102.611v-70.41h-101.091a51684.17 51684.17 0 0 1 2.304-98.93h-77.762l-.36 98.93h-63.572v70.41h63.338l-.664 185.32.86 1.8c3.786 68.975 56.334 108.902 130.141 107.26 12.773 1.296 55.81-4.341 55.81-4.341l.91-76.485s-32.236 4.262-52.722 3.957zm181.049-435.174c-29.18 1.416-48.141 19.475-46.474 50.891 1.656 30.967 20.328 46.681 50.962 45.796 31.511-.915 44.797-21.003 48.332-48.66-5.638-30.796-23.2-49.468-52.82-48.027zm-3084.189-.079v525.323h92.594V2365.53h235.443v-85.431h-235.443v-139.583h260.613v-88.667h-353.207v3.865zm1157.773 151.825v227.629c-13.645 42.487-47.988 70.56-88.945 70.487-54.007-.084-88.84-39.469-90.562-105.28-.42-16.118-1.89-32.257-3.573-48.397v-151.52h-83.77v178.249h.343c.397 17.13 1.23 34.22 3.088 51.2 14.424 131.967 119.775 186.062 234.512 124.066 10.589-5.722 19.669-14.524 28.907-14.552v32.386h83.77v-364.268h-83.77zm932.146-156.001v188.337c-21.94-15.39-33.15-19.015-46.632-25.342-76.111-35.705-168.945-15.146-216.601 48.778-53.267 71.457-48.158 195.222 10.736 260.192 54.149 59.737 159.108 74.627 230.132 32.183 8.034-4.796 15.79-12.285 22.365-17.784v37.789h88.732v-524.153h-88.732zm-106.833 451.824c-58.784 1.395-106.783-49.405-107.382-113.625-.594-65.838 43.979-115.447 104.392-116.207 58.621-.736 107.72 50.758 108.265 113.551.54 63.894-45.591 114.865-105.275 116.281zm583.983-269.165c-10.535 1.498-21.707-4.579-32.851-11.074-77.043-44.97-180.493-29.234-233.918 35.182-56.665 68.317-56.535 191.564.262 260.486 53.468 64.86 167.447 78.952 244.67 32.614 6.825-4.096 15.099-10.883 21.837-14.827v39.113h77.762v-375.239h-77.762zm-119.241 268.874c-61.47-2.563-104.796-51.66-103.777-117.605 1.007-65.301 47.76-113.154 109.322-111.857 60.402 1.264 104.485 51.4 103.368 117.541-1.095 65.43-48.778 114.429-108.913 111.92zm600.051-295.292v30.119a89.15 89.15 0 0 0-.452 11.771c.452 16.039.425 32.091.452 48.152v55.083c-.082 10.913-.164 21.832-.175 32.742-.01 16.834.093 33.674.175 50.513v24.68c.022 20.27-.017 40.538-.507 60.784a130.143 130.143 0 0 0 .507 15.238v31.027h26.358a75.326 75.326 0 0 0 15.088 1.23 70.52 70.52 0 0 0 12.48-1.23h34.806v-360.11h-88.732zm987.847 201.451c-.169-19.567-.74-39.086-2.778-58.461-14.184-134.528-118.642-188.68-237.866-126.766-8.825 4.578-16.62 14.886-24.403 19.034v-35.836h-88.716v360.107h88.716v-232.082c15.061-39.954 50.134-65.594 90.72-64.376 51.23 1.541 86.428 39.769 87.011 101.669.147 14.887.507 27.467 1.008 38.538v157.454h28.956a80.95 80.95 0 0 0 11.58.153c1.123-.06 2.207-.106 3.318-.153h42.683V2409.23z" class="cls-2"/><path d="M525.6 2256.924h1517.068v118.734H525.6zm6219.127 0H8145.12v118.734H6744.727z" class="cls-3"/></svg>