<svg xmlns="http://www.w3.org/2000/svg" role="img" viewBox="-9.38 -9.38 487.76 244.76"><title>OpenStack logo</title><defs><style>.cls-1{fill:#4e4540}</style></defs><path d="M469.33 203.66a7 7 0 1 0-7 7 7 7 0 0 0 7-7zm-7 5.25a5.25 5.25 0 1 1 5.25-5.25 5.26 5.26 0 0 1-5.21 5.21z" class="cls-1"/><path d="M464.98 202.4a2.17 2.17 0 0 0-.58-1.58 2.53 2.53 0 0 0-1.85-.65h-2.56v6.82h1.41v-2.24h.89l1.25 2.24h1.62l-1.41-2.57a2.07 2.07 0 0 0 1.23-2.02zm-1.43 0a1 1 0 0 1-1.11 1h-1v-2h1c.73 0 1.14.34 1.14 1zM51.21 183.34v-.94c0-16.48-10.81-28.44-25.5-28.44S0 166.14 0 182.51v.94c0 16.47 10.81 28.33 25.5 28.33s25.71-12.07 25.71-28.44zm-39.35-.21v-.62c0-10.39 5.35-18.05 13.64-18.05 8.08 0 13.85 7.76 13.85 18.15v.63c0 10.39-5.35 18.15-13.64 18.15-8.08 0-13.85-7.87-13.85-18.26zm95.79.42v-1.46c0-18.79-10.49-28.13-21.61-28.13-8 0-12.8 4.62-16.27 10v-8.92H57.92v71.43h11.83v-24.24c3.36 4.93 8.19 9.44 16.27 9.44 11.25 0 21.63-9.44 21.63-28.12zm-38.09-.21v-1.05c0-10.91 6.09-17.83 13.23-17.83s12.9 6.82 12.9 17.94v.94c0 11.13-5.66 17.84-12.9 17.84s-13.23-6.92-13.23-17.84zm89.47 19.84l-6.19-7.31c-3.67 3.57-7.55 5.88-12.8 5.88-7.24 0-13-5-14.06-14.38h34.84c.1-1.68.1-3.36.1-4.09 0-16.68-8-29.28-23.08-29.28-13.65 0-23.72 12-23.72 28.65v.84c0 17.42 11.12 28.33 25.4 28.33a25.56 25.56 0 0 0 19.51-8.64zm-21.19-39.25c6.92 0 10.91 6.4 11.54 15.22h-23.51c.88-9.45 5.46-15.22 11.97-15.22zm57.91-9.97c-7.56 0-12.07 4.31-15.22 9.24v-8.19h-11.86v55.62h11.85v-33.69c0-7.66 4.31-12.27 10.5-12.27s10 4.3 10 12.06v33.9h11.86v-37.25c-.04-11.86-6.44-19.42-17.13-19.42zm64.89 40.82v-.1c0-8.71-6.51-12.7-15.11-16.58-6.51-2.94-10.92-4.83-10.92-8.5v-.21c0-3 2.63-5.46 7-5.46s9 2.1 13.22 4.93l5-8.71a31.81 31.81 0 0 0-18-6c-10.38 0-18.36 6.3-18.36 16.27v.21c0 9.13 6.93 12.9 15.22 16.47 6.61 2.83 10.91 4.62 10.91 8.61v.1c0 3.46-2.83 6.09-7.77 6.09s-10.28-2.42-15.32-6.51l-5.56 8.5a32.82 32.82 0 0 0 20.67 7.76c10.73.02 19.02-5.96 19.02-16.87zm36.71 14.27v-9.76a13.42 13.42 0 0 1-6.4 1.58c-3.78 0-6-1.79-6-6.09v-29.59h12.49v-10.18h-12.47v-15h-11.86v15h-6.08l1.94 10.18h4.14v32c0 10.81 6.19 14.28 14.38 14.28a20.16 20.16 0 0 0 9.86-2.42zm45.4-49c-3.57-3.67-9.13-5.67-16.37-5.67a39.57 39.57 0 0 0-18.36 4.41l3.36 9.44a31.75 31.75 0 0 1 13.46-3.36c7.55 0 12 3.88 12 11.33v2.31a37.79 37.79 0 0 0-12.8-2.21c-11.75 0-19.73 5.88-19.73 17.84v.53c0 10.8 7.77 17 17 17 7.24 0 12.17-3.14 15.43-7.86v6.82h11.64V176.1c-.04-6.92-1.93-12.38-5.63-16.05zm-5.87 31.9c0 6.29-5.25 10.91-12.07 10.81-5.14-.11-9-3.26-9-8.82v-.21c0-5.87 4-9.34 10.8-9.34a26.68 26.68 0 0 1 10.29 2zm61.87 11.44l-6.4-7.87c-3.26 3.25-6.51 5.66-11.34 5.66-8.08 0-13.74-7.24-13.74-18.05v-.52c0-10.49 5.66-17.94 13.43-17.94 5 0 8.29 2.52 11.23 5.56l6.61-8.71c-4.62-4.62-9.87-7.56-17.84-7.56-14.59 0-25.39 12-25.39 28.55v1c0 16.58 10.49 28.23 25 28.23 8.44.04 14.03-3.42 18.44-8.35zm36.28-21.63l-8.32 8.95 11.16 19.92h13.75l-16.59-28.87z" class="cls-1"/><path d="M437.03 155.02l-18.99 24.45v-44.6h-11.85v75.76h11.85v-16.06l33.06-39.55h-14.07z" class="cls-1"/><path fill="#ed1944" d="M274.21 0h-94.63a10.83 10.83 0 0 0-10.8 10.8v25.45h26.25v-4.16a5.83 5.83 0 0 1 5.84-5.84h52.05a5.83 5.83 0 0 1 5.84 5.84v4.16h26.25V10.8A10.83 10.83 0 0 0 274.21 0zm-15.46 81.67a5.84 5.84 0 0 1-5.84 5.84h-52.04a5.84 5.84 0 0 1-5.84-5.84v-4.16h-26.28v25.45a10.83 10.83 0 0 0 10.8 10.8h94.63a10.83 10.83 0 0 0 10.8-10.8V77.51h-26.23zm-89.98-37.91h26.25v26.25h-26.25zm89.99 0h26.25v26.25h-26.25z" opacity=".98"/></svg>