<svg xmlns="http://www.w3.org/2000/svg" role="img" viewBox="-14.01 -14.01 728.52 138.02"><title>Open-IX (member) logo</title><g fill="none" fill-rule="evenodd"><path fill="#005695" d="M431.19923 7.32925c.42934 0 1.55246.43245 1.85424.71245l56.5016 56.67272v-53.0389c0-1.44046 1.14802-2.71292 2.72226-2.71292h17.13622c1.4218 0 2.70981 1.27246 2.70981 2.71293v96.08788c0 1.41557-1.28801 2.56047-2.7098 2.56047h-2.27737c-.43867 0-1.57735-.42934-1.86358-.71556l-56.40516-56.6665h-.13689v53.24735c0 1.4249-1.13868 2.7098-2.71292 2.7098h-16.98688c-1.43735 0-2.79382-1.2849-2.79382-2.7098l-.03733-96.29322c0-1.41869 1.2849-2.5667 2.7067-2.5667h2.29292zM195.8491 7.08907c28.55725 0 51.3962 22.97895 51.3962 51.5362s-22.83895 51.26554-51.3962 51.26554c-28.56347 0-51.26865-22.70829-51.26865-51.26554s22.70518-51.5362 51.26865-51.5362zm106.6602 1.81286c17.56555 0 31.99195 14.2864 31.99195 31.55951 0 17.5285-14.13932 31.83396-31.31803 32.11832l-.52148.00431h-23.66341v33.5631c0 1.37213-1.19726 2.6202-2.55832 2.71077l-.15772.00526h-16.84377c-1.52192 0-2.62842-1.19726-2.7083-2.55832l-.00462-.15772V51.7456h44.49568c6.14452 0 11.28414-4.8565 11.28414-11.28415 0-5.90308-4.97776-10.42011-10.99232-10.56202l-.29183-.00344H256.7256v-18.2749c0-1.37213 1.05013-2.6231 2.5392-2.71388l.17372-.00527h43.07077zm111.55465-.0003c1.48976 0 2.61134 1.19659 2.6954 2.54154l.00507.16204v15.57131c0 1.36711-1.06428 2.60478-2.52351 2.69797l-.17696.00562h-47.83083v57.98251h47.83083c1.49197 0 2.63197 1.18572 2.71437 2.55426l.00477.15867v15.55886c0 1.36614-1.08474 2.61977-2.5486 2.71075l-.17054.00528h-67.39686c-1.52192 0-2.61976-1.20303-2.699-2.55896l-.00459-.15707V11.6052c0-1.35514 1.0384-2.60386 2.5233-2.69791l.1803-.00568h67.39685zM195.8491 29.91868c-15.56198 0-28.41103 12.99527-28.41103 28.70658 0 15.56509 12.84905 28.41103 28.41103 28.41103 15.69886 0 28.55725-12.84594 28.55725-28.41103 0-15.7113-12.85839-28.70658-28.55725-28.70658zm355.90005 20.82604c1.4218 0 2.71293 1.2849 2.71293 2.71603v17.12689c0 1.4218-1.29113 2.70981-2.71293 2.70981h-16.5202c-1.44358 0-2.72226-1.28802-2.72226-2.70981V53.46076c0-1.43112 1.27868-2.71603 2.72225-2.71603h16.52021zm-138.18952-3.15688c1.37213 0 2.61444 1.20303 2.70458 2.56451l.00523.15774v15.54953c0 1.51894-1.19149 2.64263-2.55212 2.72378l-.1577.0047h-36.93868V47.58785h36.93869z"/><path fill="#00AEDA" d="M594.6964 8.90225c1.4218 0 2.71604 1.29423 2.71604 2.71914v94.52608c0 1.42491-1.29424 2.71604-2.71603 2.71604h-17.13622c-1.4249 0-2.71292-1.29113-2.71292-2.71604V11.6214c0-1.4249 1.28801-2.71914 2.71292-2.71914h17.13622zm37.19412.00404c.98935 0 1.85425.72179 2.27736 1.29113l16.42688 26.55678h.13378l.01244-.02178 13.31261 20.80115-.03422.06222.01556.0249-31.8644 49.93396c-.43246.5849-1.28491 1.29735-2.41426 1.29735H609.8978c-2.43292 0-3.71783-2.1467-2.43292-4.00405l29.98527-47.25216-28.84037-44.69167c-1.1449-1.85425 0-3.99783 2.43603-3.99783zm42.4672 54.76558l26.13056 41.17608c1.2849 1.99113 0 4.00405-2.2898 4.00405H678.368c-.86179 0-2.00358-.56934-2.42981-1.29735l-14.9273-22.99451 13.34683-20.88827zm22.7083-54.76558c2.4298 0 3.7147 2.14358 2.4298 3.99783L674.4324 51.55705l-13.36861-20.91004 12.8646-20.4496c.29868-.56933 1.29425-1.29112 2.28981-1.29112h20.84782zM27.22753 29.35246L46.9118 48.52959h-7.41698L27.22754 36.56411 14.9074 48.52648h-7.3672l19.68735-19.17402zM0 .98156l23.70074 22.68652L0 46.37636V38.9905l15.62109-15.32552L0 8.36122V.98157zM14.95779 0l12.26727 11.96237L39.5452 0h7.3672L27.22507 19.17402 7.5408 0h7.41698z"/><path fill="#005695" d="M61.39109 82.92896l19.68113 19.17402h-7.41387L61.3911 90.14061l-12.32327 11.96237h-7.3641L61.3911 82.92896zm-27.23066-28.3712l23.70386 22.6865-23.70386 22.70518v-7.38276l15.62109-15.32553L34.16043 61.9343v-7.37653zm55.40181 1.98398l19.68425 19.17402h-7.3641L89.56225 63.75338 77.29498 75.71576h-7.41699l19.68425-19.17402zm27.22755-28.374v7.38275L101.1687 50.85424l15.6242 15.32242v7.38898L93.08904 50.86047l23.70075-22.69274zM49.11667 53.57307l12.26726 11.96548L73.7072 53.57308h7.3641L61.38392 72.7502 41.7028 53.57308h7.41388zm28.12946-26.3838L89.5663 39.15165l12.26726-11.96237h7.41699L89.56629 46.3633 69.87893 27.18928h7.3672z"/></g></svg>