<svg xmlns="http://www.w3.org/2000/svg" role="img" viewBox="-10.19 135.31 789.88 198.88"><title>Open Glossary of Edge Computing logo</title><defs><style>.cls-1{fill:#fdfdfe}.cls-2{fill:#261f4d}.cls-3{fill:#9569cd}</style></defs><g id="Layer_2" data-name="Layer 2"><g id="Layer_1-2" data-name="Layer 1"><path d="M386.148 475.658q-189.132 0-378.262.186c-6.593.013-7.896-1.294-7.886-7.886Q.36 237.92 0 7.883C-.01 1.292 1.294-.006 7.885 0q378.262.324 756.524 0c6.59-.006 7.896 1.29 7.886 7.883q-.359 230.037 0 460.074c.01 6.591-1.292 7.9-7.885 7.887q-189.13-.378-378.262-.186zm103.365-186.612v-24.043c0-.32-.01-.641-.01-.962.01-3.344-.295-7.178-4.244-7.522-5.943-.517-12.756-2.586-17.74 1.3-5.343 4.166-8.465 3.328-13.925-.042-10.986-6.781-22.152-1.138-22.178 10.143-.034 14.746.131 29.495-.092 44.238-.067 4.399.956 6.195 5.785 6.173 4.804-.023 5.897-1.796 5.818-6.211-.233-13.14-.127-26.286-.034-39.43.014-2.083-1.085-4.87 1.24-6.101 2.62-1.387 4.73 1.092 7.034 2.047 3.78 1.566 3.624 4.728 3.609 7.999-.056 11.54.083 23.083-.075 34.621-.059 4.26.029 7.088 5.846 7.15 6.105.065 5.665-3.184 5.63-7.228-.107-11.86.158-23.727-.116-35.582-.148-6.426 4.265-8.96 8.864-9.067 5.509-.128 2.967 5.307 3.038 8.199q.461 18.742.032 37.502c-.109 4.623 1.347 5.994 5.933 6.12 4.98.136 5.834-1.905 5.67-6.225-.29-7.683-.081-15.385-.085-23.079zm237.972-4.903h-.03c0 4.477.634 9.067-.13 13.41-1.725 9.83 2.799 15.48 11 19.76 7.092 3.702 25.213-4.185 25.95-12.147.646-6.977.02-14.064.203-21.096.114-4.41-2.729-4.708-5.68-4.168-4.622.846-10.453-3.012-13.667 2.604-1.072 1.873-1.762 7.13 1.709 7.256 9.908.357 5.876 7.372 5.905 11.707.031 4.583-4.852 6.013-8.295 6.31-3.974.341-5.814-2.937-5.762-7.1.117-9.273-.03-18.55.07-27.825.032-2.952-1.023-7.342 4.14-6.583 3.572.526 9.628-3.728 10.184 4.332.326 4.713 4.093 2.849 6.594 3.133 2.858.324 3.55-1.514 4.098-4.045 2.553-11.774 1.168-13.585-11.034-13.585-6.077 0-12.155.088-18.23-.004-4.797-.073-7.067 2.154-7.036 6.931.045 7.037.011 14.073.011 21.11zm-348.582-.286c0 4.484.642 9.083-.128 13.43-1.834 10.345 3.33 16.043 11.747 20.374 6.793 3.496 25.865-4.906 26.23-12.567.671-14.06.268-28.175.135-42.266-.038-3.99-2.07-6.168-6.456-6.776-29.229-4.053-31.528-2.171-31.528 26.844v.961zm-160.816.056v14.432c.013 17.608 11.934 23.98 27.572 16.69 11.02-5.137 10.132-13.245 10.067-22.215-.098-13.576-.027-13.583-13.534-12.996-3.053.132-6.723-.891-6.816 4.276-.066 3.669.547 5.722 5.005 6.313 7.256.963 3.74 7.14 3.56 10.744-.238 4.793-5.17 6.616-9.098 6.567-3.725-.047-5.63-3.293-5.483-7.568.273-8.008-.227-16.05.223-24.042.187-3.318-2.71-8.958 2.73-9.554 4.076-.447 11.695-4.601 12.176 5.21a2.133 2.133 0 0 0 2.743 1.925c2.655-.49 7.923 2.062 6.914-3.317-.886-4.723 6.053-12.582-3.369-14.08-30.33-4.824-32.69-2.55-32.69 27.615zm-52.387 3.405c0 8.313.434 16.657-.146 24.93-.415 5.914 2.917 7.15 6.747 5.569 5.36-2.214 9.633-.121 14.4 1.159 7.956 2.137 17.21-3.868 17.356-11.502.281-14.702.09-29.414.066-44.122-.006-3.916-1.171-7.181-5.812-7.12-10.491.137-22.46-2.432-30.931 1.84-5.35 2.7-1.055 15.955-1.664 24.45-.114 1.591-.016 3.197-.016 4.796zm509.78-.758c0 8.658.298 17.33-.112 25.968-.242 5.109 2.048 5.65 6.266 5.666 4.574.018 5.2-2.218 5.156-5.962-.132-11.222.244-22.456-.138-33.666-.286-8.392 6.749-11.156 11.597-11.517 5.893-.439 2.459 6.422 2.612 9.81.52 11.52.4 23.084.104 34.62-.124 4.813 1.004 6.745 6.292 6.782 5.485.038 5.277-2.84 5.251-6.619-.096-13.788-.036-27.577-.038-41.366-.003-14.671-6.401-18.574-19.67-11.841-2.736 1.388-4.768 4.266-7.007-.972-1.223-2.86-5.304-1.49-7.967-1.162-3.933.485-2.206 4.021-2.264 6.21-.21 8.012-.083 16.032-.082 24.049zm-84.411.864c0-8.336-.135-16.675.058-25.006.093-4.03-.284-6.4-5.47-6.505-5.53-.113-6.19 2.263-6.1 6.81.228 11.536-.07 23.084.122 34.622.134 8.086-6.841 9.676-11.554 10.104-5.31.482-3.224-5.821-3.3-9.2-.274-12.176-.218-24.364-.045-36.545.055-3.851-.632-5.802-5.177-5.744-4.415.056-6.26 1.098-6.173 5.891.263 14.423-.084 28.856.16 43.279.18 10.655 11.609 16.741 20.832 11.362 3.009-1.755 5.382-4.92 8.406 1.016.992 1.948 8.75 2.903 8.337-5.082-.43-8.314-.096-16.667-.096-25.002zm-367.446-104.54c0 7.369-.084 14.74.033 22.107.066 4.174-1.627 9.219 6.013 9.083 7.132-.128 5.35-4.864 5.402-8.637.143-10.25.305-20.513-.026-30.755-.266-8.232 6.4-11.401 11.483-11.636 5.55-.257 2.588 6.6 2.725 10.178.43 11.198.247 22.423.116 33.636-.05 4.335.367 7.262 6.053 7.235 5.654-.027 6.097-2.921 6.056-7.276-.128-13.456-.032-26.914-.048-40.37-.018-14.84-7.04-18.96-20.664-11.977-2.778 1.424-4.748 4.182-6.687-1.29-.857-2.42-5.288-1.371-7.982-.751-3.51.808-2.383 4.073-2.421 6.423-.128 8.008-.05 16.02-.053 24.03zm354.272 4.041c0-6.404.058-12.81-.015-19.214-.08-7.108-9.097-16.66-16.18-17.258-5.485-.463-21.81 9.937-21.927 14.687-.366 14.721-.131 29.457-.21 44.186-.021 4.019 2.346 4.664 5.619 4.621 3.088-.04 5.865-.143 5.742-4.38-.093-3.199.291-6.433-.036-9.6-.599-5.787 1.56-7.767 7.512-7.839 6.33-.077 8.813 1.984 8.063 8.243-.302 2.525.14 5.134-.08 7.677-.408 4.766 1.914 5.967 6.288 5.977 4.487.01 5.331-2.192 5.257-5.964-.139-7.043-.04-14.09-.033-21.136zm-286.826-6.759v13.465c.01 18.236 11.753 24.64 27.994 16.883 10.849-5.182 9.947-13.446 9.872-22.423-.11-13.018-.034-13.077-13.123-12.549-2.878.117-6.782-1.4-7.362 3.701-.482 4.239.96 6.184 5.442 7.159 6.107 1.327 3.604 6.845 3.142 10.4-.617 4.756-5.224 6.765-9.272 6.587-3.829-.169-5.406-3.693-5.32-7.807.189-8.973-.023-17.953.107-26.928.037-2.608-1.171-6.584 3.366-6.474 3.789.091 9.379-2.676 10.919 2.63 1.403 4.838 4.246 5.858 7.557 4.528 5.996-2.408 2.382-8.266 3.236-12.533.767-3.836-1.85-4.866-5.24-4.835-8.014.073-16.03.056-24.044.022-5.415-.023-7.29 3.06-7.267 7.977.03 6.732.007 13.465-.007 20.197zm329.307 8.026c12.764-5.437 7.664-15.717 8.53-23.94.89-8.435-2.129-13.51-11.956-12.317-5.672.689-11.494.407-17.235.196-4.632-.171-6.966.963-6.874 6.315.283 16.609.181 33.226.05 49.838-.032 3.993 1.19 5.827 5.455 5.718 3.717-.096 6.316-.73 6.012-5.216a20.012 20.012 0 0 1 .068-5.733c.926-4.016-2.843-10.943 2.52-11.541 5.306-.593 7.995 6.258 10.251 11.107.758 1.629.62 3.775.542 5.67-.16 3.92 1.173 5.77 5.477 5.718 4.924-.059 4.537-3.094 4.665-6.412.278-7.195.128-14.162-7.505-19.403zM5.925 284.597c0 4.168.606 8.446-.12 12.484-1.836 10.233 3.065 16.049 11.531 20.462 7.744 4.037 26.49-5.303 26.747-14.07.384-13.135.109-26.29.092-39.437-.006-5.544-2.682-8.128-8.358-7.974-7.37.2-14.752.172-22.123.01-5.883-.13-7.947 2.814-7.807 8.324.17 6.73.04 13.467.038 20.2zM113.973 179.56c-.747-32.871 5.83-26.72-28.744-27.605-7.244-.186-9.708 3.045-9.635 9.705.122 11.18-.002 22.363.036 33.544.054 15.96 12.672 22.95 26.996 15.997 8.663-4.205 13.003-9.387 11.453-19.198-.64-4.052-.107-8.29-.106-12.443zm393.934-27.477v-.038a37.484 37.484 0 0 1-5.762-.043c-9.486-1.493-11.548 3.237-12.537 11.896-1.628 14.258 8.072 18.065 17.74 22.465 4.92 2.238 8.164 5.373 6.714 11.086-1.1 4.331-5.402 6.23-8.843 5.924-5.439-.482-5.182-5.56-4.999-9.803.165-3.827-1.85-5.132-5.353-4.862-2.432.188-4.935-.48-5.976 3.149-2.583 9.006 3.416 19.259 13.822 22.906 4.864 1.704 21.424-7.545 22.877-12.778 3.081-11.101-.382-18.82-10.904-24.29-2.842-1.477-5.656-3.012-8.542-4.398-3.394-1.63-4.365-4.356-4.063-7.895.265-3.095 2.349-3.366 4.73-3.41 3.577-.064 6.609-.477 7.32 4.923.857 6.519 6.61 4.77 9.517 2.578 3.595-2.71 1.692-7.764 1.337-11.763-.314-3.538-2.581-5.734-6.502-5.66-3.524.065-7.05.013-10.576.013zm-51.65-.002l-10.554.001c-3.15.005-5.457 1.033-6.533 4.384-3.703 11.54.582 21.8 11.602 27.403a48.651 48.651 0 0 0 5.112 2.625c5.28 1.933 7.885 5.472 6.445 11.074a8.073 8.073 0 0 1-7.931 5.846c-6.088-.212-6.029-5.442-5.83-10.028.213-4.89-3.076-4.597-6.404-4.724-3.667-.14-4.612 1.469-5.217 5.006-1.714 10.003 3.31 15.344 11.46 19.516 7.431 3.803 24.534-4.478 25.587-12.797 1.79-14.133.454-16.65-12.303-23.31-2.832-1.478-5.668-2.953-8.446-4.527-3.03-1.717-3.076-4.647-2.727-7.579.464-3.891 3.62-2.786 5.968-2.965 3.077-.235 5.35.065 5.788 4.28.797 7.65 6.914 5.439 9.769 3.039 3.512-2.953 1.628-8.392 1.125-12.704-.386-3.303-3.107-4.569-6.357-4.542-3.517.028-7.035.006-10.553.002zM504.5 287.908c0 8.314.207 16.636-.086 24.94-.148 4.187 1.188 5.564 5.384 5.455 4.031-.106 7.224-.448 6.164-5.576-1.974-9.547 3.443-12.09 11.425-12.582 10.28-.633 13.66-5.833 13.3-16.342-1.13-33.065 4.16-26.906-28.139-27.661-7.096-.166-8.602 2.372-8.17 8.75.517 7.64.122 15.341.122 23.016zM128.876 182.94c0 7.674-.092 15.35.04 23.021.062 3.532-1.387 7.83 5.004 8.089 6.339.257 6.659-3.29 6.336-7.854-.312-4.414.122-7.857 5.568-9.405 18.324-5.206 18.272-5.39 18.27-24.111 0-4.157-.136-8.318.02-12.469.206-5.528-1.965-8.389-7.83-8.198-7.028.228-14.078.4-21.097.103-5.237-.222-6.538 2.103-6.38 6.846.265 7.985.073 15.985.069 23.978zm293.427-3.04c-.826-33.506 6.297-27.13-29.39-27.846-.32-.006-.64.024-.959.014-4.76-.152-7.101 2.136-7.096 6.914.016 14.066-.265 28.14.106 42.195.192 7.261 13.298 15.577 19.816 13.183 15.462-5.68 17.523-8.603 17.523-24.868v-9.591zM119.558 285.967c.86 38.437-6.303 31.282 27.182 32.107a8.595 8.595 0 0 1 .96.002c4.05.563 4.785-1.618 4.637-5.1-.438-10.294-8.16-4.71-12.189-4.962-6.316-.397-9.593-.697-9.441-8.705.141-7.477 2.362-9.653 9.246-8.594 2.19.337 4.484-.073 6.718.068 3.877.244 3.923-2.27 3.84-5.003-.088-2.839.553-6.094-4.007-5.958-2.56.077-5.145-.2-7.685.039-5.171.487-8.096-.21-8.023-6.896.072-6.637 3.533-6.248 7.878-6.088 2.88.106 5.785-.2 8.645.059 4.708.425 4.96-2.29 5.072-5.927.114-3.734-1.122-4.688-4.85-5.016-27.992-2.461-27.983-2.559-27.983 25.169zm150.217-.32v12.491c-.023 23.09-1.39 20.03 20.166 19.653 4.045-.07 12.156 5.245 12.394-4.544.255-10.503-8.409-5.053-12.674-5.212-6.422-.24-8.718-1.439-8.67-8.427.046-6.907 1.368-9.607 8.871-9.15 3.68.223 11.23 4.432 10.906-5.32-.315-9.469-7.578-3.64-11.427-5.304a1.9 1.9 0 0 0-.953-.01c-5.02.716-7.34-.604-7.345-6.513-.006-6.047 2.614-6.904 7.482-6.46 2.859.26 5.776-.149 8.64.085 4.247.347 5.398-1.496 5.48-5.579.087-4.303-1.425-5.479-5.508-5.327-7.357.273-14.74.293-22.095-.002-4.347-.174-5.469 1.542-5.34 5.598.254 8 .075 16.013.073 24.02zm-92.282-104.464c0 2.564-.013 5.128.003 7.691.178 29.209-3.135 24.666 26 25.064.641.008 1.287-.068 1.922-.014 3.944.335 4.85-1.87 4.813-5.308-.101-9.25-7.133-5.328-11.294-5.592-9.39-.597-12.917-4.46-9.705-12.967 2.558-6.776 8.872-2.566 13.413-3.192 3.818-.527 5.856-1.343 5.848-5.606-.008-3.984-1.295-6.045-5.522-5.774-2.234.144-4.488-.069-6.727.027-4.15.18-7.504.082-7.39-5.804.099-5.116 1.292-7.993 6.998-7.495 2.861.25 5.77-.098 8.646.053 3.96.208 5.876-1.168 5.762-5.482-.104-3.967-2.179-4.47-5.474-4.795-27.298-2.701-27.293-2.755-27.293 24.388v4.806zM58.313 286.645c0 8.659.309 17.332-.114 25.97-.258 5.254 2.4 5.416 6.376 5.59 4.395.194 5.638-1.521 5.245-5.576-.277-2.86-.056-5.767-.055-8.654 0-12.79.01-13.294 12.92-13.021 7.928.168 7.95-4.42 6.142-8.994-1.75-4.425-6.775-1.544-10.302-2.076-4.04-.61-8.855 1.623-9.008-6.097-.158-7.98 4.578-6.833 9.287-6.886a58.308 58.308 0 0 1 6.73.034c4.142.436 5.621-1.154 5.63-5.382.008-4.039-.965-5.736-5.347-5.538-7.36.333-14.753.27-22.12.026-4.226-.14-5.578 1.463-5.456 5.594.246 8.33.073 16.673.072 25.01zm272.937-2.743c0 6.41.24 12.831-.08 19.225-.234 4.693 1.515 7.647 5.37 10.297 11.365 7.812 12.625 7.676 25.324-.677 3.936-2.589 3.201-4.215 1.26-7.394-3.562-5.834-6.554-1.155-9.389.377-5.402 2.92-10.333 3.993-10.82-3.977-.644-10.537-.09-21.144-.186-31.719-.033-3.673 2.095-4.323 4.94-3.882 2.447.379 6.632-1.785 6.53 3.037-.1 4.737 1.76 6.776 6.147 5.672 7.866-1.98 3.383-8.899 4.853-13.44 1.05-3.242-.23-4.935-4.245-5.43-28.198-3.47-29.704-2.256-29.704 25.988v1.923zm348.444-113.155c0-5.28-.165-8.497.04-11.69.289-4.497-.557-7.197-6.134-7.074-5.217.116-5.553 2.846-5.46 6.773.139 5.767-.152 11.548.081 17.31.204 5.038-2.14 8.753-6.8 8.598-4.2-.14-7.48-3.349-7.392-8.488.088-5.128.141-10.264-.045-15.387-.138-3.813 1.608-8.628-5.418-8.775-6.776-.141-5.868 4.197-5.874 8.313-.01 6.412.034 12.825-.002 19.237-.018 3.328.19 6.935 3.548 8.331 8.445 3.51 9.507 10.162 8.774 18.02-.398 4.277-.609 8.233 6.032 8.11 7.185-.134 4.94-4.992 5.413-8.706.578-4.534-2.212-10.488 3.305-13.107 10.652-5.056 10.855-13.921 9.932-21.465zm-65.411 121.422c0 5.45-.28 10.92.092 16.345.273 4.004-2.92 9.99 5.913 9.738 8.969-.257 5.175-6.49 5.335-10.233.464-10.88.442-21.804.055-32.69-.214-6.01.428-10.104 7.94-8.934 4.073.635 4.491-2.088 4.61-5.376.136-3.763-1.222-5.057-4.976-4.972-8.972.201-17.953.149-26.929.024-3.277-.045-4.608 1.195-4.43 4.479.159 2.906-.282 6.521 4.082 5.787 9.496-1.598 8.493 4.552 8.336 10.443-.137 5.127-.029 10.26-.029 15.389zM342.848 181.234c0 3.194-.032 6.387.005 9.58.31 26.49-3.92 22.853 24.638 23.121.639.006 1.279-.057 1.915-.026 3.347.16 4.349-1.65 4.383-4.725.037-3.377-.815-5.616-4.738-5.468-2.231.084-4.498-.248-6.7.018-6.23.753-8.37-1.64-8.12-8.046.485-12.435.037-24.903.19-37.355.052-4.197-.877-6.46-5.767-6.456-4.802.003-5.973 2.075-5.857 6.368.206 7.658.058 15.326.051 22.99zm317.588 106.212c0-8.652-.186-17.31.081-25.953.129-4.152-1.172-5.55-5.401-5.514-4.245.037-6.318.708-6.229 5.724q.45 25.466.004 50.945c-.091 5.23 2.47 5.373 6.442 5.537 4.554.187 5.264-1.893 5.167-5.747-.209-8.326-.064-16.661-.064-24.992z" class="cls-1"/><path d="M489.515 289.046c.002 7.694-.207 15.396.084 23.079.163 4.32-.69 6.36-5.671 6.224-4.586-.125-6.042-1.496-5.933-6.12q.441-18.743-.032-37.501c-.07-2.892 2.47-8.327-3.038-8.199-4.599.107-9.012 2.641-8.864 9.067.274 11.855.009 23.722.115 35.582.036 4.044.476 7.293-5.63 7.228-5.816-.062-5.904-2.89-5.845-7.15.158-11.538.02-23.08.075-34.621.015-3.27.171-6.433-3.61-8-2.303-.954-4.413-3.433-7.032-2.046-2.326 1.232-1.227 4.018-1.241 6.102-.093 13.143-.199 26.29.034 39.429.078 4.415-1.015 6.188-5.818 6.21-4.83.023-5.852-1.773-5.785-6.172.223-14.743.058-29.492.092-44.238.026-11.281 11.192-16.924 22.178-10.143 5.46 3.37 8.582 4.208 13.925.042 4.984-3.886 11.797-1.816 17.74-1.3 3.949.344 4.255 4.178 4.245 7.522-.001.321.009.642.009.962q0 12.022.002 24.043zm237.97-4.903c0-7.037.034-14.073-.011-21.11-.031-4.777 2.24-7.003 7.036-6.93 6.075.091 12.153.003 18.23.003 12.202 0 13.587 1.811 11.034 13.585-.548 2.531-1.24 4.369-4.098 4.045-2.5-.284-6.268 1.58-6.594-3.133-.556-8.06-6.612-3.806-10.183-4.332-5.164-.759-4.11 3.63-4.141 6.583-.1 9.275.047 18.552-.07 27.826-.052 4.162 1.788 7.44 5.762 7.098 3.443-.296 8.326-1.726 8.295-6.31-.03-4.334 4.003-11.35-5.905-11.706-3.471-.125-2.78-5.383-1.71-7.256 3.215-5.616 9.046-1.758 13.669-2.604 2.95-.54 5.793-.242 5.679 4.168-.182 7.032.444 14.119-.203 21.096-.737 7.962-18.858 15.85-25.95 12.147-8.201-4.28-12.725-9.93-11-19.76.764-4.343.13-8.932.13-13.41zm-348.582-.286v-.96c0-29.016 2.3-30.898 31.528-26.845 4.387.608 6.418 2.786 6.456 6.776.133 14.09.536 28.206-.134 42.266-.366 7.66-19.438 16.063-26.231 12.567-8.416-4.331-13.58-10.029-11.747-20.374.77-4.347.128-8.945.128-13.43zm26.819 1.22c0-4.475-.248-8.967.057-13.421.481-7.055-4.51-5.29-8.37-5.568-4.218-.305-7.447-.063-7.21 5.766.377 9.253.21 18.536.048 27.802-.075 4.315 1.085 8.613 5.654 8.097 4.214-.475 9.852-1.663 9.818-8.294-.024-4.794-.005-9.588.003-14.383zm-187.635-1.164c0-30.165 2.36-32.44 32.69-27.616 9.422 1.499 2.483 9.358 3.37 14.081 1.008 5.379-4.26 2.827-6.915 3.317a2.133 2.133 0 0 1-2.743-1.926c-.48-9.81-8.1-5.656-12.176-5.21-5.44.597-2.543 6.237-2.73 9.555-.45 7.992.05 16.034-.223 24.042-.146 4.275 1.758 7.52 5.483 7.568 3.928.05 8.86-1.774 9.098-6.567.18-3.604 3.696-9.782-3.56-10.744-4.458-.591-5.07-2.644-5.005-6.314.093-5.166 3.763-4.143 6.816-4.275 13.507-.587 13.436-.58 13.534 12.996.065 8.97.953 17.078-10.067 22.215-15.638 7.29-27.559.918-27.572-16.69q-.005-7.216 0-14.432zm-52.387 3.405c0-1.599-.098-3.205.016-4.795.609-8.496-3.686-21.752 1.664-24.45 8.471-4.273 20.44-1.703 30.93-1.841 4.642-.061 5.807 3.204 5.813 7.12.024 14.708.215 29.42-.066 44.122-.146 7.634-9.4 13.64-17.357 11.502-4.766-1.28-9.04-3.373-14.399-1.16-3.83 1.583-7.162.346-6.747-5.569.58-8.272.146-16.616.146-24.93zm27.005.151c0-5.122-.402-10.284.1-15.356.66-6.67-3.445-6.155-7.77-6.044-4.08.106-8.4-1.064-8.041 5.832a191.927 191.927 0 0 1-.071 27.827c-.881 9.383 6.157 8.87 11.117 9.324 6.802.623 4.287-5.51 4.587-9.105.346-4.133.08-8.316.078-12.478zm482.775-.909c-.001-8.017-.128-16.037.082-24.048.057-2.19-1.669-5.726 2.264-6.21 2.663-.33 6.744-1.7 7.967 1.161 2.24 5.238 4.27 2.36 7.007.972 13.269-6.733 19.667-2.83 19.67 11.842.002 13.788-.058 27.577.038 41.365.026 3.778.234 6.657-5.25 6.619-5.289-.037-6.417-1.969-6.293-6.781.295-11.537.416-23.1-.104-34.62-.153-3.389 3.281-10.25-2.612-9.811-4.848.361-11.883 3.125-11.597 11.517.382 11.21.006 22.444.138 33.666.044 3.744-.582 5.98-5.156 5.962-4.218-.017-6.509-.557-6.266-5.666.41-8.638.112-17.31.112-25.968zm-84.41.864c0 8.335-.335 16.688.095 25.002.413 7.985-7.345 7.03-8.337 5.082-3.024-5.936-5.397-2.77-8.406-1.016-9.223 5.38-20.652-.706-20.832-11.362-.244-14.423.103-28.856-.16-43.279-.087-4.793 1.758-5.835 6.173-5.891 4.545-.058 5.232 1.893 5.177 5.744-.173 12.18-.23 24.369.045 36.546.076 3.378-2.01 9.681 3.3 9.199 4.713-.428 11.688-2.018 11.554-10.104-.192-11.538.106-23.085-.122-34.623-.09-4.546.57-6.922 6.1-6.809 5.186.106 5.563 2.476 5.47 6.505-.193 8.331-.058 16.67-.058 25.006z" class="cls-2"/><path d="M223.625 182.884c.002-8.01-.077-16.022.05-24.03.039-2.35-1.088-5.615 2.422-6.423 2.694-.62 7.125-1.669 7.982.751 1.939 5.472 3.909 2.714 6.687 1.29 13.623-6.982 20.646-2.863 20.664 11.976.016 13.457-.08 26.915.048 40.37.041 4.356-.402 7.25-6.056 7.277-5.686.027-6.103-2.9-6.053-7.235.131-11.213.313-22.438-.116-33.636-.137-3.577 2.825-10.435-2.725-10.178-5.083.235-11.75 3.404-11.483 11.636.331 10.242.17 20.504.026 30.755-.053 3.773 1.73 8.51-5.402 8.637-7.64.136-5.947-4.909-6.013-9.083-.117-7.367-.033-14.738-.031-22.107zm354.267 4.041c-.004 7.046-.103 14.093.036 21.136.074 3.772-.77 5.974-5.257 5.964-4.374-.01-6.696-1.211-6.287-5.977.218-2.543-.223-5.152.08-7.677.75-6.26-1.734-8.32-8.064-8.243-5.952.072-8.111 2.052-7.512 7.84.327 3.166-.057 6.4.036 9.6.123 4.236-2.654 4.339-5.742 4.38-3.273.042-5.64-.603-5.619-4.622.08-14.73-.156-29.465.21-44.186.117-4.75 16.442-15.15 21.928-14.687 7.082.599 16.098 10.15 16.18 17.258.072 6.404.014 12.81.01 19.214zM566.32 173.79c.17-4.992 1.01-11.178-5.596-11.014-5.092.127-10.099 2.911-9.938 10.225.124 5.611.814 8.717 7.63 8.47 5.886-.212 9.264-1.319 7.904-7.681zm-275.244 6.376c.007-6.732.03-13.465 0-20.197-.023-4.917 1.852-8 7.267-7.977 8.015.034 16.03.051 24.044-.022 3.39-.031 6.007 1 5.24 4.835-.854 4.267 2.76 10.125-3.236 12.533-3.311 1.33-6.154.31-7.557-4.527-1.54-5.307-7.13-2.54-10.919-2.631-4.537-.11-3.329 3.866-3.366 6.474-.13 8.975.082 17.955-.107 26.928-.086 4.114 1.491 7.638 5.32 7.807 4.048.178 8.655-1.831 9.272-6.587.462-3.555 2.965-9.073-3.142-10.4-4.482-.975-5.924-2.92-5.442-7.159.58-5.101 4.484-3.584 7.362-3.7 13.089-.53 13.013-.47 13.123 12.548.075 8.977.977 17.241-9.872 22.423-16.24 7.758-27.984 1.353-27.994-16.883q-.004-6.732.007-13.465zm329.3 8.026c7.633 5.241 7.783 12.208 7.506 19.403-.128 3.318.258 6.353-4.666 6.412-4.304.051-5.638-1.798-5.477-5.717.078-1.896.216-4.042-.542-5.671-2.256-4.849-4.945-11.7-10.252-11.107-5.362.598-1.593 7.525-2.52 11.541a20.012 20.012 0 0 0-.067 5.733c.304 4.486-2.295 5.12-6.012 5.216-4.264.11-5.487-1.725-5.455-5.718.131-16.612.233-33.23-.05-49.838-.092-5.352 2.242-6.486 6.874-6.315 5.741.211 11.563.493 17.235-.196 9.827-1.192 12.846 3.882 11.957 12.316-.867 8.224 4.233 18.504-8.531 23.94zm-2.956-18.035c.847-5.509-.313-8.402-6.815-8.366-9.191.05-5.935 6.492-6.054 10.762-.077 2.747-2.574 8.084 3.22 7.9 6.018-.193 11.64-2.27 9.65-10.296z" class="cls-3"/><path d="M5.926 284.597c.001-6.734.131-13.471-.04-20.2-.139-5.51 1.925-8.455 7.808-8.325 7.371.162 14.753.19 22.123-.01 5.676-.154 8.352 2.43 8.358 7.974.017 13.147.292 26.302-.092 39.438-.256 8.766-19.003 18.106-26.747 14.069-8.466-4.413-13.367-10.229-11.53-20.462.725-4.038.119-8.316.12-12.484zm26.88.592c0-4.142-.434-8.34.097-12.414.902-6.921-3.166-6.588-8.036-6.82-5.608-.266-8.075.995-7.67 7.248.555 8.567.259 17.2.09 25.8-.088 4.506.577 9.378 5.83 8.714 4.362-.551 10.374-1.815 9.758-9.151-.373-4.43-.069-8.916-.069-13.377z" class="cls-2"/><path d="M113.972 179.561c0 4.154-.534 8.391.107 12.443 1.55 9.81-2.79 14.993-11.453 19.198-14.324 6.953-26.942-.036-26.996-15.997-.038-11.181.086-22.364-.036-33.544-.073-6.66 2.391-9.89 9.635-9.705 34.575.885 27.997-5.266 28.743 27.605zm-26.948 2.44c0 4.159.164 8.325-.043 12.473-.236 4.722 1.221 9.318 6.126 8.953 4.732-.351 9.925-2.458 9.481-9.592-.456-7.329-.255-14.712-.05-22.064.163-5.821.395-10.227-8.117-10.111-8.188.111-7.608 4.481-7.422 9.787.124 3.514.024 7.036.025 10.555zm420.883-29.917c3.526 0 7.052.052 10.576-.014 3.92-.073 6.188 2.123 6.502 5.661.355 3.999 2.258 9.053-1.337 11.763-2.907 2.192-8.66 3.941-9.518-2.578-.71-5.4-3.742-4.987-7.319-4.922-2.381.043-4.465.314-4.73 3.409-.302 3.54.669 6.264 4.063 7.895 2.886 1.386 5.7 2.92 8.542 4.398 10.522 5.47 13.985 13.189 10.904 24.29-1.453 5.233-18.013 14.482-22.877 12.778-10.406-3.647-16.405-13.9-13.822-22.906 1.041-3.629 3.544-2.961 5.976-3.15 3.502-.27 5.518 1.036 5.353 4.863-.183 4.244-.44 9.321 5 9.803 3.44.305 7.742-1.593 8.842-5.924 1.45-5.713-1.795-8.848-6.714-11.086-9.668-4.4-19.368-8.207-17.74-22.465.99-8.659 3.051-13.39 12.537-11.896a37.484 37.484 0 0 0 5.762.043zm-51.649 0c3.518.002 7.036.024 10.553-.004 3.25-.027 5.971 1.239 6.357 4.542.503 4.312 2.387 9.751-1.125 12.704-2.854 2.4-8.971 4.612-9.769-3.039-.439-4.215-2.711-4.515-5.788-4.28-2.349.179-5.504-.926-5.968 2.965-.35 2.932-.303 5.862 2.727 7.58 2.779 1.574 5.614 3.048 8.446 4.526 12.757 6.66 14.092 9.177 12.303 23.31-1.053 8.319-18.156 16.6-25.587 12.797-8.15-4.172-13.174-9.513-11.46-19.516.605-3.537 1.55-5.146 5.217-5.006 3.328.127 6.617-.167 6.404 4.724-.198 4.586-.258 9.816 5.83 10.028a8.073 8.073 0 0 0 7.93-5.846c1.441-5.602-1.164-9.14-6.444-11.074a48.651 48.651 0 0 1-5.112-2.625c-11.02-5.603-15.305-15.863-11.602-27.403 1.076-3.351 3.383-4.379 6.533-4.384q5.277-.008 10.555.001z" class="cls-3"/><path d="M504.5 287.908c0-7.675.395-15.377-.123-23.016-.431-6.378 1.075-8.916 8.171-8.75 32.299.755 27.01-5.404 28.14 27.66.359 10.51-3.02 15.71-13.301 16.343-7.982.491-13.399 3.035-11.425 12.582 1.06 5.128-2.133 5.47-6.164 5.576-4.196.11-5.532-1.268-5.384-5.455.293-8.304.086-16.626.086-24.94zm11.495-11.172a61.191 61.191 0 0 1-.035 6.487c-.734 6.213.606 8.206 7.645 6.242 10.377-2.897 4.085-10.463 5.46-15.736 1.682-6.444-1.882-8.108-7.932-7.732-9.632.598-2.932 7.91-5.138 10.739z" class="cls-2"/><path d="M128.878 182.941c.002-7.993.194-15.993-.07-23.978-.159-4.743 1.142-7.068 6.379-6.846 7.02.296 14.069.125 21.097-.103 5.865-.19 8.036 2.67 7.83 8.198-.156 4.15-.02 8.312-.02 12.469.002 18.721.054 18.905-18.27 24.111-5.446 1.548-5.88 4.991-5.568 9.405.323 4.564.003 8.111-6.336 7.854-6.391-.26-4.942-4.557-5.003-8.089-.133-7.671-.041-15.347-.04-23.02zm11.38-8.573c-.005 12.119 1.715 14.016 9.19 10.138 3.555-1.845 5.205-19.926 1.642-21.667-2.313-1.13-5.56-.845-8.294-.48-2.98.399-2.387 3.25-2.495 5.355-.113 2.213-.025 4.435-.043 6.654zm282.045 5.534v9.59c0 16.266-2.06 19.19-17.523 24.869-6.518 2.394-19.624-5.922-19.816-13.183-.371-14.056-.09-28.129-.106-42.195-.005-4.778 2.335-7.066 7.096-6.914.32.01.64-.02.96-.014 35.686.716 28.563-5.66 29.39 27.847zm-10.626 1.39c0-4.452-.277-8.927.065-13.354.509-6.6-3.819-6.062-8.063-5.979-4.055.08-8.535-.997-8.292 5.762.319 8.895.205 17.813.013 26.716-.101 4.685 1.314 9.365 6.027 9.099 4.53-.257 10.373-1.854 10.264-8.883-.069-4.453-.013-8.907-.014-13.36z" class="cls-3"/><path d="M119.558 285.966v-4.805c0-27.728-.009-27.63 27.984-25.169 3.727.328 4.963 1.282 4.849 5.016-.111 3.637-.364 6.352-5.072 5.927-2.86-.259-5.766.047-8.645-.059-4.345-.16-7.806-.55-7.878 6.088-.073 6.686 2.852 7.383 8.023 6.896 2.54-.24 5.124.038 7.685-.039 4.56-.136 3.919 3.119 4.006 5.958.084 2.733.039 5.247-3.84 5.003-2.233-.14-4.527.27-6.717-.068-6.884-1.059-9.105 1.117-9.246 8.594-.152 8.008 3.125 8.308 9.441 8.705 4.028.253 11.751-5.332 12.19 4.961.147 3.483-.587 5.664-4.637 5.101a8.595 8.595 0 0 0-.96-.002c-33.486-.825-26.323 6.33-27.183-32.107zm150.218-.321c.001-8.007.18-16.02-.074-24.02-.129-4.056.993-5.772 5.34-5.598 7.355.295 14.738.275 22.095.002 4.083-.152 5.595 1.024 5.508 5.327-.082 4.083-1.232 5.926-5.48 5.58-2.864-.234-5.781.173-8.64-.087-4.868-.443-7.487.414-7.482 6.46.005 5.91 2.326 7.23 7.345 6.514a1.9 1.9 0 0 1 .953.01c3.85 1.664 11.112-4.164 11.427 5.304.324 9.752-7.225 5.543-10.906 5.32-7.503-.457-8.825 2.243-8.871 9.15-.048 6.988 2.248 8.187 8.67 8.427 4.265.16 12.93-5.29 12.674 5.212-.238 9.79-8.349 4.473-12.394 4.544-21.556.377-20.189 3.437-20.166-19.653q.006-6.246.001-12.492z" class="cls-2"/><path d="M177.493 181.182v-4.806c0-27.143-.005-27.09 27.293-24.388 3.295.326 5.37.828 5.474 4.795.114 4.314-1.802 5.69-5.762 5.482-2.876-.15-5.785.197-8.646-.053-5.706-.498-6.899 2.38-6.998 7.495-.114 5.886 3.24 5.983 7.39 5.805 2.239-.097 4.493.116 6.727-.028 4.227-.271 5.514 1.79 5.522 5.774.008 4.263-2.03 5.08-5.848 5.606-4.541.626-10.855-3.584-13.413 3.192-3.212 8.508.315 12.37 9.705 12.967 4.161.264 11.193-3.658 11.294 5.592.038 3.438-.869 5.643-4.812 5.308-.636-.054-1.282.022-1.922.014-29.136-.398-25.823 4.145-26.001-25.064-.016-2.563-.003-5.127-.003-7.69z" class="cls-3"/><path d="M58.314 286.645c0-8.337.173-16.68-.073-25.01-.122-4.131 1.23-5.734 5.456-5.594 7.367.244 14.76.307 22.12-.026 4.382-.198 5.354 1.5 5.347 5.538-.009 4.228-1.488 5.818-5.63 5.382a58.308 58.308 0 0 0-6.73-.034c-4.71.053-9.445-1.095-9.287 6.886.153 7.72 4.968 5.487 9.008 6.097 3.527.532 8.553-2.349 10.302 2.076 1.808 4.573 1.786 9.162-6.142 8.994-12.91-.273-12.92.23-12.92 13.021 0 2.887-.222 5.794.055 8.654.392 4.055-.85 5.77-5.245 5.577-3.977-.175-6.634-.337-6.377-5.592.424-8.637.115-17.31.116-25.969zm272.936-2.743v-1.923c0-28.244 1.506-29.458 29.704-25.987 4.015.494 5.295 2.187 4.245 5.43-1.47 4.54 3.013 11.46-4.853 13.439-4.387 1.104-6.246-.935-6.146-5.672.101-4.822-4.084-2.658-6.53-3.037-2.846-.44-4.974.21-4.94 3.882.095 10.576-.46 21.182.185 31.719.487 7.97 5.418 6.897 10.82 3.977 2.835-1.532 5.827-6.211 9.39-.377 1.94 3.179 2.675 4.805-1.261 7.394-12.7 8.353-13.959 8.489-25.324.677-3.855-2.65-5.604-5.604-5.37-10.297.32-6.394.08-12.815.08-19.225z" class="cls-2"/><path d="M679.694 170.747c.923 7.544.72 16.409-9.932 21.465-5.517 2.62-2.727 8.573-3.305 13.107-.474 3.714 1.772 8.572-5.413 8.706-6.64.123-6.43-3.833-6.032-8.11.733-7.858-.329-14.51-8.774-18.02-3.358-1.396-3.566-5.003-3.548-8.331.036-6.412-.008-12.825.002-19.237.006-4.116-.902-8.454 5.874-8.313 7.026.147 5.28 4.962 5.418 8.774.186 5.124.133 10.26.045 15.388-.088 5.14 3.193 8.348 7.392 8.488 4.66.155 7.004-3.56 6.8-8.598-.233-5.762.058-11.543-.08-17.31-.094-3.927.242-6.657 5.459-6.773 5.577-.123 6.423 2.577 6.134 7.074-.205 3.193-.04 6.41-.04 11.69z" class="cls-3"/><path d="M614.282 292.169c0-5.13-.108-10.262.029-15.389.157-5.891 1.16-12.04-8.336-10.443-4.364.734-3.923-2.881-4.081-5.787-.179-3.284 1.152-4.524 4.43-4.479 8.975.125 17.956.177 26.928-.024 3.754-.085 5.112 1.209 4.976 4.972-.119 3.288-.537 6.01-4.61 5.376-7.512-1.17-8.154 2.925-7.94 8.933.388 10.887.409 21.81-.055 32.691-.16 3.743 3.634 9.976-5.335 10.233-8.834.252-5.64-5.734-5.913-9.738-.371-5.425-.092-10.895-.093-16.345z" class="cls-2"/><path d="M342.852 181.234c.003-7.663.151-15.331-.055-22.99-.116-4.292 1.055-6.364 5.857-6.367 4.89-.003 5.819 2.26 5.767 6.456-.153 12.452.295 24.92-.19 37.355-.25 6.406 1.89 8.8 8.12 8.046 2.202-.267 4.469.066 6.7-.018 3.923-.148 4.775 2.09 4.738 5.468-.034 3.075-1.036 4.885-4.383 4.725-.636-.03-1.276.032-1.915.026-28.558-.268-24.328 3.369-24.638-23.12-.037-3.194-.005-6.387-.001-9.58z" class="cls-3"/><path d="M660.436 287.446c0 8.331-.145 16.666.064 24.992.097 3.854-.613 5.934-5.167 5.747-3.972-.164-6.533-.306-6.442-5.537q.445-25.467-.004-50.945c-.089-5.015 1.984-5.687 6.229-5.724 4.23-.036 5.53 1.362 5.401 5.514-.267 8.644-.08 17.301-.08 25.953z" class="cls-2"/><path d="M405.718 285.076c-.004 4.795-.023 9.59.001 14.383.034 6.631-5.604 7.818-9.818 8.294-4.57.516-5.73-3.782-5.654-8.097.162-9.266.329-18.549-.048-27.802-.237-5.83 2.992-6.07 7.21-5.767 3.86.279 8.851-1.486 8.37 5.569-.305 4.454-.057 8.946-.06 13.42zm-213.012 2.394c.001 4.16.267 8.344-.079 12.477-.3 3.594 2.215 9.728-4.587 9.105-4.96-.454-11.998.059-11.117-9.324a191.927 191.927 0 0 0 .07-27.827c-.358-6.896 3.961-5.726 8.042-5.832 4.325-.112 8.43-.626 7.77 6.044-.502 5.072-.1 10.234-.099 15.356zm373.615-113.681c1.36 6.362-2.018 7.469-7.903 7.682-6.817.246-7.507-2.86-7.63-8.471-.162-7.314 4.845-10.098 9.937-10.225 6.605-.164 5.767 6.022 5.596 11.014zm51.099-3.632c1.992 8.027-3.631 10.103-9.65 10.295-5.792.185-3.296-5.152-3.22-7.899.12-4.27-3.136-10.711 6.055-10.762 6.502-.036 7.662 2.857 6.815 8.366zM32.806 285.19c0 4.46-.304 8.947.069 13.376.616 7.336-5.396 8.6-9.757 9.15-5.254.665-5.92-4.207-5.83-8.714.168-8.6.464-17.232-.09-25.799-.406-6.253 2.06-7.514 7.67-7.247 4.869.231 8.937-.102 8.035 6.82-.53 4.072-.097 8.271-.097 12.413zm54.217-103.188c0-3.519.1-7.041-.024-10.555-.186-5.306-.766-9.676 7.422-9.787 8.512-.116 8.28 4.29 8.117 10.111-.205 7.352-.406 14.735.05 22.064.444 7.134-4.75 9.24-9.481 9.592-4.905.365-6.362-4.23-6.126-8.952.207-4.149.043-8.315.042-12.473zm428.972 94.734c2.206-2.828-4.494-10.141 5.138-10.74 6.05-.375 9.614 1.29 7.933 7.733-1.376 5.273 4.916 12.839-5.461 15.736-7.039 1.964-8.38-.03-7.645-6.242a61.191 61.191 0 0 0 .035-6.487zM140.267 174.368c.009-2.219-.08-4.441.034-6.654.108-2.105-.484-4.956 2.495-5.355 2.734-.365 5.981-.65 8.294.48 3.563 1.741 1.913 19.822-1.642 21.667-7.475 3.878-9.195 1.981-9.181-10.138zm271.41 6.925c.001 4.453-.055 8.907.014 13.36.109 7.03-5.735 8.627-10.264 8.883-4.713.266-6.128-4.414-6.027-9.099.192-8.903.306-17.82-.013-26.716-.243-6.76 4.237-5.683 8.292-5.762 4.244-.083 8.572-.622 8.063 5.979-.342 4.427-.065 8.901-.065 13.355z" class="cls-1"/></g></g></svg>