<svg xmlns="http://www.w3.org/2000/svg" role="img" xmlns:xlink="http://www.w3.org/1999/xlink" viewBox="4.77 5.27 713.96 625.96"><title>Open Horizon logo</title><defs><linearGradient id="linear-gradient" x1="62.801" x2="62.801" y1="525.337" y2="618.525" gradientUnits="userSpaceOnUse"><stop offset=".047" stop-color="#2b2e8a"/><stop offset=".392" stop-color="#282a7f" stop-opacity=".4"/><stop offset=".548" stop-color="#1b1c55" stop-opacity=".269"/><stop offset=".829" stop-color="#070817" stop-opacity=".073"/><stop offset="1" stop-opacity="0"/></linearGradient><linearGradient id="linear-gradient-2" x1="123.679" x2="123.679" y1="525.337" y2="618.525" xlink:href="#linear-gradient"/><linearGradient id="linear-gradient-3" x1="179.979" x2="179.979" y1="525.337" y2="618.525" xlink:href="#linear-gradient"/><linearGradient id="linear-gradient-4" x1="237.144" x2="237.144" y1="525.337" y2="618.525" xlink:href="#linear-gradient"/><linearGradient id="linear-gradient-5" x1="318.082" x2="318.082" y1="525.337" y2="618.525" xlink:href="#linear-gradient"/><linearGradient id="linear-gradient-6" x1="381.054" x2="381.054" y1="525.337" y2="618.525" xlink:href="#linear-gradient"/><linearGradient id="linear-gradient-7" x1="441.931" x2="441.931" y1="525.337" y2="618.525" xlink:href="#linear-gradient"/><linearGradient id="linear-gradient-8" x1="487.542" x2="487.542" y1="525.337" y2="618.525" xlink:href="#linear-gradient"/><linearGradient id="linear-gradient-9" x1="530.352" x2="530.352" y1="525.337" y2="618.525" xlink:href="#linear-gradient"/><linearGradient id="linear-gradient-10" x1="587.826" x2="587.826" y1="525.337" y2="618.525" xlink:href="#linear-gradient"/><linearGradient id="linear-gradient-11" x1="649.569" x2="649.569" y1="525.337" y2="618.525" xlink:href="#linear-gradient"/><linearGradient id="linear-gradient-12" x1="354.64" x2="354.64" y1="232.295" y2="442.069" gradientUnits="userSpaceOnUse"><stop offset="0" stop-color="#7fd6ff"/><stop offset=".066" stop-color="#77c3f4"/><stop offset=".32" stop-color="#597ecb"/><stop offset=".55" stop-color="#4148aa"/><stop offset=".747" stop-color="#302193"/><stop offset=".903" stop-color="#260984"/><stop offset="1" stop-color="#22007f"/></linearGradient><linearGradient id="linear-gradient-13" x1="151.55" x2="151.55" y1="232.295" y2="442.069" xlink:href="#linear-gradient-12"/><linearGradient id="linear-gradient-14" x1="497.484" x2="497.484" y1="232.295" y2="442.069" xlink:href="#linear-gradient-12"/><linearGradient id="linear-gradient-15" x1="75.766" x2="75.766" y1="232.295" y2="442.069" xlink:href="#linear-gradient-12"/><linearGradient id="linear-gradient-16" x1="626.426" x2="626.426" y1="232.295" y2="442.069" xlink:href="#linear-gradient-12"/><linearGradient id="linear-gradient-17" x1="400.71" x2="400.71" y1="232.295" y2="442.069" xlink:href="#linear-gradient-12"/><linearGradient id="linear-gradient-18" x1="207.979" x2="207.979" y1="232.295" y2="442.069" xlink:href="#linear-gradient-12"/><linearGradient id="linear-gradient-19" x1="275.312" x2="275.312" y1="232.295" y2="442.069" xlink:href="#linear-gradient-12"/><linearGradient id="linear-gradient-20" x1="337.466" x2="337.466" y1="232.295" y2="442.069" xlink:href="#linear-gradient-12"/><linearGradient id="linear-gradient-21" x1="201.658" x2="228.436" y1="196.538" y2="381.554" gradientUnits="userSpaceOnUse"><stop offset=".649" stop-color="#2ad6ff"/><stop offset=".692" stop-color="#2ad3fd" stop-opacity=".984"/><stop offset=".736" stop-color="#2accf8" stop-opacity=".936"/><stop offset=".781" stop-color="#2bbeef" stop-opacity=".857"/><stop offset=".825" stop-color="#2bace3" stop-opacity=".745"/><stop offset=".87" stop-color="#2c94d4" stop-opacity=".601"/><stop offset=".914" stop-color="#2c77c0" stop-opacity=".425"/><stop offset=".958" stop-color="#2d55aa" stop-opacity=".221"/><stop offset="1" stop-color="#2e3192" stop-opacity="0"/></linearGradient><linearGradient id="linear-gradient-22" x1="238.08" x2="278.247" y1="233.729" y2="389.531" gradientUnits="userSpaceOnUse"><stop offset=".049" stop-color="#2ad6ff"/><stop offset=".545" stop-color="#7fd6ff" stop-opacity=".8"/><stop offset=".855" stop-color="#4763b3" stop-opacity=".242"/><stop offset="1" stop-color="#2e3192" stop-opacity="0"/></linearGradient><linearGradient id="linear-gradient-23" x1="272.619" x2="306.701" y1="213.926" y2="367.294" gradientUnits="userSpaceOnUse"><stop offset=".302" stop-color="#2ad6ff"/><stop offset=".349" stop-color="#3cdaff" stop-opacity=".914"/><stop offset=".534" stop-color="#80e7ff" stop-opacity=".594"/><stop offset=".698" stop-color="#b7f1ff" stop-opacity=".339"/><stop offset=".835" stop-color="#def9ff" stop-opacity=".155"/><stop offset=".94" stop-color="#f6fdff" stop-opacity=".042"/><stop offset="1" stop-color="#fff" stop-opacity="0"/></linearGradient><style>.cls-1{fill:#2ad6ff}.cls-27{fill:#0071bc}.cls-28{fill:#fff}</style></defs><g id="Layer_6" data-name="Layer 6"><path d="M461.10811 406.59435l-.18348-.29431a10.96976 10.96976 0 0 1 2.803-14.65364A133.97024 133.97024 0 0 0 503.188 221.47015a10.9696 10.9696 0 0 1 3.93309-14.39165l.30248-.18859a10.98836 10.98836 0 0 1 15.53916 4.18429 156.28424 156.28424 0 0 1-46.06 198.60279 10.98838 10.98838 0 0 1-15.79462-3.08264z" class="cls-1"/><path d="M437.37777 368.53334l-.18881-.30272a10.96264 10.96264 0 0 1 2.49617-14.42081 89.3198 89.3198 0 0 0 25.26053-108.9481 10.9626 10.9626 0 0 1 4.10608-14.04772l.30278-.1887a11.01746 11.01746 0 0 1 15.75087 4.60569 111.65468 111.65468 0 0 1-31.55719 136.09977 11.01745 11.01745 0 0 1-16.17043-2.79741z" class="cls-1"/><path d="M413.48505 330.21189l-.192-.30787a11.09675 11.09675 0 0 1 1.924-13.94134 44.67887 44.67887 0 0 0 11.09983-47.88722 11.09652 11.09652 0 0 1 4.40852-13.36572l.308-.19193a10.97732 10.97732 0 0 1 16.069 5.34906 67.02466 67.02466 0 0 1-16.83392 72.61475 10.97711 10.97711 0 0 1-16.78343-2.26973z" class="cls-1"/></g><g id="Layer_5" data-name="Layer 5"><g opacity=".57"><path fill="url(#linear-gradient)" d="M85.24686 615.3834a6.79673 6.79673 0 0 1-.3562 2.036 6.68968 6.68968 0 0 1-1.17081 2.13824 7.28609 7.28609 0 0 1-2.03628 1.73039 5.98942 5.98942 0 0 1-3.05428.71293H46.96647a5.98873 5.98873 0 0 1-3.05428-.71293 7.26353 7.26353 0 0 1-2.03628-1.73039 6.61838 6.61838 0 0 1-1.17082-2.13824 6.74817 6.74817 0 0 1-.35646-2.036v-52.5338a6.57243 6.57243 0 0 1 .76377-3.15625 5.76268 5.76268 0 0 1 2.08713-2.23993l13.84611-9.0609a5.65373 5.65373 0 0 1 3.05428-.71292 6.979 6.979 0 0 1 2.95233.71292l18.224 9.6716a10.777 10.777 0 0 1 2.74894 2.34162 5.03045 5.03045 0 0 1 1.22166 3.66525zm-24.94328-55.07882l-6.82123 4.47934v45.50892h18.63106v-43.88022z"/><path fill="url(#linear-gradient-2)" d="M115.78838 549.41053v18.42794l22.29657 4.78441a7.4756 7.4756 0 0 1 5.09056 2.74947 6.87634 6.87634 0 0 1 1.527 3.86864v36.14241a6.797 6.797 0 0 1-.35619 2.036 6.68991 6.68991 0 0 1-1.17082 2.13824 7.28987 7.28987 0 0 1-2.03627 1.73039 5.99015 5.99015 0 0 1-3.05429.71293l-35.43-.509v-72.08143zm15.78069 35.2261l-15.78069-3.86863v29.52484h15.78069z"/><path fill="url(#linear-gradient-3)" d="M161.14476 553.99209a6.59091 6.59091 0 0 1 1.17082-2.13824 7.20824 7.20824 0 0 1 2.03627-1.7304 5.97277 5.97277 0 0 1 3.05429-.71292h31.76451v12.31883h-25.2489v19.95495h23.21289v12.31883h-23.21289v15.679h25.2489V622.001H160.7883v-65.9729a6.7343 6.7343 0 0 1 .35646-2.03601z"/><path fill="url(#linear-gradient-4)" d="M228.28712 622.001h-13.03176v-72.59047h13.13345v52.73773l13.23541 8.14458h4.27595v-60.88231h13.13345v65.97287a6.797 6.797 0 0 1-.35619 2.036 6.67945 6.67945 0 0 1-1.17082 2.13824 7.28609 7.28609 0 0 1-2.03628 1.73039 5.98942 5.98942 0 0 1-3.05428.71293h-8.65385a12.55734 12.55734 0 0 1-7.33023-2.34163l-7.73754-5.19226h-.40731z"/><path fill="url(#linear-gradient-5)" d="M327.75357 622.001v-26.97985h-19.344V622.001h-13.13344v-72.59047h13.13346v32.9867h19.344v-32.9867H340.887V622.001z"/><path fill="url(#linear-gradient-6)" d="M403.49946 615.3834a6.79673 6.79673 0 0 1-.3562 2.036 6.68968 6.68968 0 0 1-1.17081 2.13824 7.28609 7.28609 0 0 1-2.03628 1.73039 5.98942 5.98942 0 0 1-3.05428.71293h-31.66282a5.98875 5.98875 0 0 1-3.05428-.71293 7.26353 7.26353 0 0 1-2.03628-1.73039 6.61838 6.61838 0 0 1-1.17082-2.13824 6.74817 6.74817 0 0 1-.35646-2.036v-52.5338a6.57243 6.57243 0 0 1 .76377-3.15625 5.76268 5.76268 0 0 1 2.08713-2.23993l13.84611-9.0609a5.65375 5.65375 0 0 1 3.05428-.71292 6.979 6.979 0 0 1 2.95233.71292l18.224 9.6716a10.777 10.777 0 0 1 2.74894 2.34162 5.03045 5.03045 0 0 1 1.22166 3.66525zm-24.94328-55.07882l-6.82123 4.47934v45.50892H390.366v-43.88022z"/><path fill="url(#linear-gradient-7)" d="M462.44612 549.41053l-.509 17.81671a10.12632 10.12632 0 0 1-2.74894 6.51588l-7.53388 7.94119-.509-1.52754 5.19226 1.22246a8.36 8.36 0 0 1 5.03944 2.95177 6.75722 6.75722 0 0 1 1.57812 3.86917v27.18323a6.797 6.797 0 0 1-.35619 2.036 6.68991 6.68991 0 0 1-1.17082 2.13824 7.28987 7.28987 0 0 1-2.03627 1.73039 5.99015 5.99015 0 0 1-3.05429.71293l-35.43-.509v-72.08143H434.041v30.23723l-2.44332-4.072 9.97747 2.2394-3.9706 1.62924 12.21714-14.66046.509-15.37339zm-12.62445 41.53859l-15.78067-3.76747v23.11119h15.78069z"/><path fill="url(#linear-gradient-8)" d="M480.975 622.001v-72.59047h13.1334V622.001z"/><path fill="url(#linear-gradient-9)" d="M550.40862 614.26317v7.73783h-40.41836v-12.11547h24.94328l-25.7579-52.53381v-7.94119h42.353v12.31883h-26.87792z"/><path fill="url(#linear-gradient-10)" d="M610.27133 615.3834a6.797 6.797 0 0 1-.3562 2.036 6.68968 6.68968 0 0 1-1.17081 2.13824 7.28623 7.28623 0 0 1-2.03628 1.73039 5.98943 5.98943 0 0 1-3.05429.71293h-31.66281a5.98879 5.98879 0 0 1-3.05429-.71293 7.26362 7.26362 0 0 1-2.03627-1.73039 6.61819 6.61819 0 0 1-1.17082-2.13824 6.74786 6.74786 0 0 1-.35646-2.036v-52.5338a6.57243 6.57243 0 0 1 .76377-3.15625 5.7626 5.7626 0 0 1 2.08713-2.23993l13.84611-9.0609a5.65373 5.65373 0 0 1 3.05428-.71292 6.979 6.979 0 0 1 2.95233.71292l18.224 9.6716a10.777 10.777 0 0 1 2.74894 2.34162 5.0305 5.0305 0 0 1 1.22166 3.66525zm-24.94328-55.07882l-6.82123 4.47934v45.50892h18.63106v-43.88022z"/><path fill="url(#linear-gradient-11)" d="M640.71115 622.001h-13.03176v-72.59047h13.13346v52.73773l13.23541 8.14458h4.27594v-60.88231h13.13346v65.97287a6.797 6.797 0 0 1-.3562 2.036 6.67961 6.67961 0 0 1-1.17081 2.13824 7.28623 7.28623 0 0 1-2.03628 1.73039 5.98946 5.98946 0 0 1-3.05429.71293h-8.65385a12.55736 12.55736 0 0 1-7.33023-2.34163l-7.73754-5.19226h-.40731z"/></g><path fill="url(#linear-gradient-12)" d="M77.401 408.824h554.477v49.069H77.401z"/><circle cx="151.55" cy="358.665" r="99.228" fill="url(#linear-gradient-13)"/><circle cx="497.484" cy="353.485" r="104.407" fill="url(#linear-gradient-14)"/><circle cx="75.766" cy="400.646" r="57.247" fill="url(#linear-gradient-15)"/><circle cx="626.426" cy="378.838" r="79.055" fill="url(#linear-gradient-16)"/><circle cx="400.71" cy="383.199" r="74.694" fill="url(#linear-gradient-17)"/><circle cx="207.979" cy="378.565" r="78.783" fill="url(#linear-gradient-18)"/><circle cx="275.312" cy="414.276" r="43.071" fill="url(#linear-gradient-19)"/><circle cx="337.466" cy="414.276" r="43.071" fill="url(#linear-gradient-20)"/><path fill="#2e3192" d="M85.24686 535.44942a5.02964 5.02964 0 0 1-1.22166 3.66524 10.76618 10.76618 0 0 1-2.74894 2.34163l-18.224 9.67186a6.979 6.979 0 0 1-2.95233.71292 5.65373 5.65373 0 0 1-3.05428-.71292l-13.84611-9.06089a5.76092 5.76092 0 0 1-2.08713-2.23994 6.57213 6.57213 0 0 1-.76377-3.156v-52.53405a6.75245 6.75245 0 0 1 .35646-2.03628 6.62255 6.62255 0 0 1 1.17082-2.138 7.26881 7.26881 0 0 1 2.03628-1.73067 5.99157 5.99157 0 0 1 3.05428-.71265h31.66281a5.99226 5.99226 0 0 1 3.05428.71265 7.29141 7.29141 0 0 1 2.03628 1.73067 6.694 6.694 0 0 1 1.17081 2.138 6.80105 6.80105 0 0 1 .3562 2.03628zm-13.13345-2.34163v-43.88H53.48235v45.50893l6.82123 4.4796zm30.54152 17.00235V478.0287l35.43-.509a5.993 5.993 0 0 1 3.05429.71265 7.29519 7.29519 0 0 1 2.03627 1.73067 6.69418 6.69418 0 0 1 1.17082 2.138 6.80133 6.80133 0 0 1 .35619 2.03628v36.14242a6.87915 6.87915 0 0 1-1.527 3.8689 7.4752 7.4752 0 0 1-5.09056 2.74893l-22.29657 4.78495v18.42767zm28.91414-60.88231h-15.78069v29.52485l15.78069-3.86891zm29.21923 54.26474V477.5197h38.38235v12.31883h-25.2489v15.67873h23.21289v12.3191h-23.21289V537.791h25.2489v12.3191h-31.76451a5.9755 5.9755 0 0 1-3.05429-.71265 7.21747 7.21747 0 0 1-2.03627-1.73067 6.58806 6.58806 0 0 1-1.17082-2.13824 6.7342 6.7342 0 0 1-.35646-2.03597zm67.49882-58.43899h.40731l7.73754-5.19226a12.55733 12.55733 0 0 1 7.33023-2.34162h8.65385a5.99226 5.99226 0 0 1 3.05428.71265 7.29141 7.29141 0 0 1 2.03628 1.73067 6.68371 6.68371 0 0 1 1.17082 2.138 6.80133 6.80133 0 0 1 .35619 2.03628v65.97287h-13.13345v-60.88234h-4.27595l-13.23541 8.14485v52.73746h-13.13345V477.5197h13.03176zM340.887 477.5197v72.59044h-13.13343v-32.98643h-19.344v32.98643h-13.13344V477.5197h13.13346v26.97956h19.344V477.5197zm62.61246 57.92972a5.02964 5.02964 0 0 1-1.22166 3.66524 10.76618 10.76618 0 0 1-2.74894 2.34163l-18.224 9.67186a6.979 6.979 0 0 1-2.95233.71292 5.65375 5.65375 0 0 1-3.05428-.71292l-13.84611-9.06089a5.76092 5.76092 0 0 1-2.08713-2.23994 6.57213 6.57213 0 0 1-.76377-3.156v-52.53405a6.75245 6.75245 0 0 1 .35646-2.03628 6.62255 6.62255 0 0 1 1.17082-2.138 7.26881 7.26881 0 0 1 2.03628-1.73067 5.9916 5.9916 0 0 1 3.05428-.71265h31.66282a5.99226 5.99226 0 0 1 3.05428.71265 7.29141 7.29141 0 0 1 2.03628 1.73067 6.694 6.694 0 0 1 1.17081 2.138 6.80105 6.80105 0 0 1 .3562 2.03628zm-13.13346-2.34163v-43.88h-18.631v45.50893l6.82123 4.4796zm59.96468 17.00235l-.509-15.37338-12.21715-14.66046 3.9706 1.629-9.97747 2.23966 2.44332-4.07229v30.2375h-13.13345V478.0287l35.43-.509a5.993 5.993 0 0 1 3.05429.71265 7.29519 7.29519 0 0 1 2.03627 1.73067 6.69418 6.69418 0 0 1 1.17082 2.138 6.80133 6.80133 0 0 1 .35619 2.03628v27.18322a6.75518 6.75518 0 0 1-1.57812 3.8689 8.35927 8.35927 0 0 1-5.03945 2.95232l-5.19226 1.22193.509-1.52728 7.53388 7.9412a10.12627 10.12627 0 0 1 2.74894 6.51588l.509 17.8167zm-.509-60.88231H434.041v23.11093l15.78069-3.76721zm44.28672-11.70813v72.59044H480.975V477.5197zm30.54232 60.2713h26.87787v12.3191h-42.353v-7.9411l25.7579-52.53381h-24.94323V477.5197h40.41836v7.73754zm85.62061-2.34158a5.02969 5.02969 0 0 1-1.22166 3.66524 10.76618 10.76618 0 0 1-2.74894 2.34163l-18.224 9.67186a6.979 6.979 0 0 1-2.95233.71292 5.65373 5.65373 0 0 1-3.05428-.71292l-13.84612-9.06089a5.76084 5.76084 0 0 1-2.08713-2.23994 6.57213 6.57213 0 0 1-.76377-3.156v-52.53405a6.75214 6.75214 0 0 1 .35646-2.03628 6.62236 6.62236 0 0 1 1.17082-2.138 7.2689 7.2689 0 0 1 2.03627-1.73067 5.99164 5.99164 0 0 1 3.05429-.71265h31.66281a5.99228 5.99228 0 0 1 3.05429.71265 7.29155 7.29155 0 0 1 2.03628 1.73067 6.694 6.694 0 0 1 1.17081 2.138 6.80137 6.80137 0 0 1 .3562 2.03628zm-13.13345-2.34163v-43.88h-18.63106v45.50893l6.82123 4.4796zm43.57327-48.05421h.40731l7.73754-5.19226a12.55735 12.55735 0 0 1 7.33023-2.34162h8.65385a5.9923 5.9923 0 0 1 3.05429.71265 7.29155 7.29155 0 0 1 2.03628 1.73067 6.68387 6.68387 0 0 1 1.17081 2.138 6.80137 6.80137 0 0 1 .3562 2.03628v65.97287H658.3242v-60.88234h-4.27594l-13.23541 8.14485v52.73746h-13.13346V477.5197h13.03176z"/></g><g id="Layer_11" data-name="Layer 11"><path d="M474.45123 164.64148l-.26533.2653a11.86761 11.86761 0 0 1-16.12821.62754 144.93521 144.93521 0 0 0-188.98924.00729 11.86744 11.86744 0 0 1-16.12831-.62745l-.27269-.27268a11.88772 11.88772 0 0 1 .61172-17.399 169.07552 169.07552 0 0 1 220.56032 0 11.88774 11.88774 0 0 1 .61174 17.399z" class="cls-1"/><path d="M440.13971 198.953l-.27288.273a11.85988 11.85988 0 0 1-15.80783.894 96.63032 96.63032 0 0 0-120.99177.0071 11.85984 11.85984 0 0 1-15.80812-.89382l-.27288-.273a11.91919 11.91919 0 0 1 1.00408-17.72515 120.79321 120.79321 0 0 1 151.14523-.00748 11.91918 11.91918 0 0 1 1.00417 17.72535z" class="cls-1"/><path d="M405.59342 233.49926l-.27754.27754a12.005 12.005 0 0 1-15.16268 1.37982 48.33569 48.33569 0 0 0-53.18012.00651 12.00472 12.00472 0 0 1-15.16331-1.37924l-.27754-.27763a11.87577 11.87577 0 0 1 1.70972-18.24215 72.5104 72.5104 0 0 1 80.64136-.00729 11.87556 11.87556 0 0 1 1.71011 18.24244zm-29.94663 35.40097a17.09265 17.09265 0 1 1-24.16742.00525 17.0801 17.0801 0 0 1 24.16742-.00525z" class="cls-1"/><path fill="url(#linear-gradient-21)" d="M223.57062 205.15572l.27658.19465a10.69722 10.69722 0 0 1 3.04819 14.22574A130.64166 130.64166 0 0 0 256.09 387.40687a10.69706 10.69706 0 0 1 1.93371 14.41966l-.2.28426a10.71534 10.71534 0 0 1-15.54569 2.14394 152.40128 152.40128 0 0 1-34.06413-195.86859 10.71537 10.71537 0 0 1 15.35673-3.23042z"/><path fill="url(#linear-gradient-22)" d="M259.34013 230.32687l.28456.20017a10.69028 10.69028 0 0 1 3.23531 13.90007 87.10062 87.10062 0 0 0 18.69269 107.44564 10.69022 10.69022 0 0 1 1.64772 14.17645l-.20027.28449a10.74373 10.74373 0 0 1-15.8959 1.84587 108.88058 108.88058 0 0 1-23.35005-134.22337 10.74372 10.74372 0 0 1 15.58594-3.62932z"/><path fill="url(#linear-gradient-23)" d="M295.35442 255.67025l.28933.2036a10.82107 10.82107 0 0 1 3.56713 13.25212 43.56882 43.56882 0 0 0 8.21911 47.2256 10.82082 10.82082 0 0 1 1.117 13.67879l-.20369.28935a10.70457 10.70457 0 0 1-16.464 1.29906 65.3594 65.3594 0 0 1-12.461-71.61243 10.70439 10.70439 0 0 1 15.93612-4.33609z"/></g><g id="dots"><circle cx="363.908" cy="37.81" r="18.81" class="cls-27"/><circle cx="209.677" cy="92.755" r="18.81" class="cls-27"/><circle cx="126.846" cy="233.983" r="18.81" class="cls-27"/><circle cx="146.266" cy="361.22" r="9.934" class="cls-28"/><circle cx="577.526" cy="361.22" r="9.934" class="cls-28"/><circle cx="598.267" cy="237.205" r="18.81" class="cls-27"/><circle cx="517.375" cy="94.857" r="18.81" class="cls-27"/></g></svg>