<svg xmlns="http://www.w3.org/2000/svg" role="img" viewBox="-11.55 -11.55 600.60 109.60"><title>OpenStack Foundation (member) logo</title><path d="M140.04 22.55V11.74q0-5.4-2.56-8c-1.71-1.71-4.36-2.56-8-2.56h-5.64q-5.35 0-7.94 2.5t-2.58 8v10.87q0 5.38 2.57 8t7.95 2.57h5.64c3.61 0 6.26-.86 8-2.57s2.56-4.41 2.56-8zm-4 0a10.5 10.5 0 0 1-.6 3.95 3.65 3.65 0 0 1-2 2 10.5 10.5 0 0 1-3.95.6h-5.64a10.45 10.45 0 0 1-3.94-.6 3.66 3.66 0 0 1-2-2 10.5 10.5 0 0 1-.6-3.95V11.7a10.23 10.23 0 0 1 .62-4 3.59 3.59 0 0 1 2-2 10.48 10.48 0 0 1 3.92-.57h5.64a10.26 10.26 0 0 1 3.95.62 3.63 3.63 0 0 1 2 2 10.4 10.4 0 0 1 .6 3.92zm32.19 8.26q2.26-2.26 2.26-6.94v-5.41q0-4.69-2.26-7t-7-2.26h-1.79a12.79 12.79 0 0 0-4.19.65 8.17 8.17 0 0 0-3.14 1.91v-.58a2 2 0 1 0-3.94 0V40.5a2 2 0 1 0 3.94 0v-7.42h9.12q4.7 0 7-2.27zm-16.07-14.67c.08-1 .83-1.76 2.26-2.23a16.24 16.24 0 0 1 5.07-.71h1.79c2.05 0 3.44.36 4.17 1.09s1.09 2.12 1.09 4.17v5.41c0 2-.36 3.42-1.09 4.16s-2.12 1.1-4.17 1.1h-9.12zm38.44 16.94a11.54 11.54 0 0 0 6.25-1.44 6.1 6.1 0 0 0 2.77-4.34 1.6 1.6 0 0 0-.32-1.51 2.07 2.07 0 0 0-1.51-.51 1.87 1.87 0 0 0-1.4.47 3.16 3.16 0 0 0-.71 1.36 2.44 2.44 0 0 1-1.53 1.57 10.41 10.41 0 0 1-3.55.45h-3.85c-2 0-3.42-.36-4.16-1.09s-1.1-2.1-1.1-4.13v-1.12h16.35a1.75 1.75 0 0 0 2-2v-2.33q0-4.73-2.25-7t-7-2.25h-3.85q-4.68 0-6.94 2.2c-1.52 1.5-2.27 3.83-2.27 7v5.45c0 3.11.75 5.41 2.27 6.91s3.82 2.26 6.94 2.26zm-9.11-14.62c0-2.06.36-3.47 1.1-4.2s2.12-1.09 4.16-1.06h3.85c2.05 0 3.44.36 4.17 1.09s1.09 2.12 1.09 4.17v.38h-14.37zm39.09-9.21h-1.31q-4.84 0-7.33 2.75v-.77a2 2 0 1 0-3.95 0V31.1a2 2 0 1 0 3.95 0V15.88c.22-.93 1-1.6 2.42-2a16.69 16.69 0 0 1 4.91-.65h1.31c2 0 3.41.36 4.15 1.09s1.12 2.12 1.12 4.17V31.1a2 2 0 1 0 3.94 0V18.46q0-4.69-2.25-7c-1.51-1.46-3.82-2.21-6.96-2.21zm35.81 23.35a2.09 2.09 0 0 0 .47-1.5V3.24a2.1 2.1 0 0 0-.47-1.51 2 2 0 0 0-3.46 1.51V31.1a2.13 2.13 0 0 0 3.48 1.5zm22.37-23.35h-1.32c-3.22 0-5.67.92-7.33 2.75v-.77a2 2 0 1 0-3.95 0V31.1a2 2 0 1 0 3.95 0V15.88c.22-.93 1-1.6 2.42-2a16.74 16.74 0 0 1 4.91-.65h1.32c2 0 3.4.36 4.14 1.09s1.12 2.12 1.12 4.17V31.1a2 2 0 1 0 4 0V18.46q0-4.69-2.26-7t-7-2.21zM302.72 5c.72-.7 2.07-1.06 4-1.06 1.13 0 1.7-.65 1.7-2s-.57-2-1.7-2c-3.07 0-5.34.74-6.83 2.22s-2.24 3.76-2.24 6.84v.19h-1.72a2 2 0 1 0 0 4h1.73V31.1a2 2 0 1 0 3.95 0V13.2h4.84a2 2 0 1 0 0-4h-4.84v-.19c.03-1.95.39-3.3 1.11-4.01zm13.72 28.08a1.75 1.75 0 0 0 2-2v-12.4a5 5 0 0 1 2.25-4 10.79 10.79 0 0 1 6.24-1.48 2 2 0 0 0 0-4 11.85 11.85 0 0 0-4.93 1 8.76 8.76 0 0 0-3.53 2.84v-1.81a2 2 0 1 0-3.95 0V31.1a1.75 1.75 0 0 0 1.92 1.98zm28.25-23.83h-2.76a13 13 0 0 0-6.26 1.24 6 6 0 0 0-2.92 3.91 1.39 1.39 0 0 0 .33 1.46 2.1 2.1 0 0 0 1.55.56 2.06 2.06 0 0 0 1.34-.38 3.7 3.7 0 0 0 .87-1.36 2.5 2.5 0 0 1 1.62-1.14 14.26 14.26 0 0 1 3.5-.32h2.73a6.55 6.55 0 0 1 3.94.9 4.43 4.43 0 0 1 1.3 3.36H340q-4 0-5.89 1.92c-1.28 1.29-1.91 3.25-1.91 5.88s.64 4.59 1.92 5.87 3.24 1.93 5.88 1.93h2.63q4.81 0 7.33-3v1a2 2 0 1 0 4 0V18.46c0-3.13-.76-5.45-2.26-7s-3.88-2.21-7.01-2.21zm5.26 16a4.07 4.07 0 0 1-1.45 2.42 6.27 6.27 0 0 1-2.57 1.14 15.34 15.34 0 0 1-3.26.32h-2.63c-1.55 0-2.58-.25-3.09-.76a4.48 4.48 0 0 1-.77-3.09 4.49 4.49 0 0 1 .75-3.08q.76-.78 3.09-.78h10zm26.08-6.27h-7.57a3.28 3.28 0 0 1-2.29-.59 3.34 3.34 0 0 1-.57-2.28 3.55 3.55 0 0 1 .54-2.37 3.44 3.44 0 0 1 2.32-.54h7.33a5.52 5.52 0 0 1 1.68.19 1.39 1.39 0 0 1 .86.75 3.31 3.31 0 0 0 .71 1.35 1.77 1.77 0 0 0 1.36.48 2.15 2.15 0 0 0 1.53-.57 1.57 1.57 0 0 0 .38-1.52c-.68-3.11-2.85-4.66-6.54-4.66h-7.33a6.9 6.9 0 0 0-5.13 1.71 7 7 0 0 0-1.68 5.15 6.06 6.06 0 0 0 6.81 6.82h7.57a3.65 3.65 0 0 1 2.47.61 3.56 3.56 0 0 1 .63 2.49 3.54 3.54 0 0 1-.63 2.5 3.71 3.71 0 0 1-2.47.6h-7.71a6.49 6.49 0 0 1-2-.23 1.55 1.55 0 0 1-.95-.94 3.69 3.69 0 0 0-.72-1.45 1.8 1.8 0 0 0-1.4-.48 2.05 2.05 0 0 0-1.53.56 1.7 1.7 0 0 0-.39 1.55 5.66 5.66 0 0 0 2.23 3.7 8 8 0 0 0 4.72 1.24h7.71a7.07 7.07 0 1 0 0-14.1zm25.28-5.78a2 2 0 0 0 0-4h-5.38V5.82a2 2 0 0 0-4 0v3.43h-2.3a2 2 0 1 0 0 4h2.3v10.81q0 4.61 2.21 6.81t6.86 2.21a1.74 1.74 0 0 0 2-2 1.89 1.89 0 0 0-.53-1.5 2.1 2.1 0 0 0-1.44-.47c-2 0-3.32-.35-4-1s-1.08-2-1.08-4V13.2zm21.29-3.95a11.77 11.77 0 0 0-4.92 1 8.72 8.72 0 0 0-3.54 2.84v-1.86a2 2 0 1 0-3.95 0V31.1a2 2 0 1 0 3.95 0V18.68a5 5 0 0 1 2.25-4 10.79 10.79 0 0 1 6.21-1.5 2 2 0 0 0 0-4zm26.55 0a1.75 1.75 0 0 0-2 2v15.2c-.22.93-1 1.6-2.42 2a16.36 16.36 0 0 1-4.91.65h-1.29c-2 0-3.41-.36-4.15-1.09s-1.12-2.12-1.12-4.17V11.23a2 2 0 1 0-3.94 0v12.64q0 4.69 2.25 7c1.51 1.51 3.82 2.26 7 2.26h1.31q4.85 0 7.33-2.75v.77a2 2 0 1 0 4 0V11.23a1.75 1.75 0 0 0-2.06-1.98zm15.21 5c.75-.73 2.13-1.08 4.15-1h3.85a11.23 11.23 0 0 1 2.75.25 1.92 1.92 0 0 1 1.29.88 4.76 4.76 0 0 0 .78 1.31 1.69 1.69 0 0 0 1.34.47 2.15 2.15 0 0 0 1.58-.54 1.52 1.52 0 0 0 .34-1.52 5.36 5.36 0 0 0-2.57-3.7 10.84 10.84 0 0 0-5.51-1.18h-3.85q-4.73 0-7 2.21c-1.49 1.51-2.24 3.82-2.24 7v5.45c0 3.12.75 5.43 2.27 6.94s3.82 2.27 6.94 2.27h3.85a10.84 10.84 0 0 0 5.51-1.19 5.38 5.38 0 0 0 2.57-3.61 1.52 1.52 0 0 0-.34-1.52 2.09 2.09 0 0 0-1.53-.54 1.89 1.89 0 0 0-1.38.44 4.22 4.22 0 0 0-.79 1.34 1.88 1.88 0 0 1-1.29.88 11.23 11.23 0 0 1-2.75.25h-3.85c-2 0-3.4-.37-4.15-1.1s-1.12-2.13-1.12-4.16V18.4c.03-2 .41-3.43 1.15-4.15zm34.18-1.05a2 2 0 0 0 0-4h-5.41V5.82a2 2 0 0 0-4 0v3.43h-2.2a2 2 0 0 0 0 4h2.3v10.81q0 4.61 2.21 6.81t6.86 2.21a1.75 1.75 0 0 0 2-2 1.93 1.93 0 0 0-.53-1.5 2.12 2.12 0 0 0-1.45-.47c-2 0-3.32-.35-4-1s-1.08-2-1.08-4V13.2zm28.24-3.95a1.75 1.75 0 0 0-2 2v15.2c-.22.93-1 1.6-2.42 2a16.36 16.36 0 0 1-4.91.65h-1.31c-2 0-3.41-.36-4.15-1.09s-1.06-2.09-1.06-4.14V11.23a2 2 0 1 0-3.94 0v12.64q0 4.69 2.25 7c1.51 1.51 3.82 2.26 7 2.26h1.31q4.85 0 7.33-2.75v.77a2 2 0 1 0 4 0V11.23a1.75 1.75 0 0 0-2.1-1.98zm23.68 0a11.77 11.77 0 0 0-4.92 1 8.85 8.85 0 0 0-3.54 2.84v-1.86a2 2 0 1 0-4 0V31.1a2 2 0 1 0 4 0V18.68a5 5 0 0 1 2.26-4 10.73 10.73 0 0 1 6.2-1.5 2 2 0 0 0 0-4zm25.47 13.54a1.75 1.75 0 0 0 2-2v-2.33q0-4.73-2.26-7t-6.95-2.25h-3.86c-3.11 0-5.43.7-6.94 2.2s-2.27 3.83-2.27 7v5.45q0 4.67 2.27 6.91c1.51 1.51 3.83 2.26 6.94 2.26h3.86a11.59 11.59 0 0 0 6.21-1.39 6.13 6.13 0 0 0 2.77-4.34 1.58 1.58 0 0 0-.33-1.51 2 2 0 0 0-1.5-.51 1.84 1.84 0 0 0-1.4.47 3.07 3.07 0 0 0-.72 1.36 2.44 2.44 0 0 1-1.53 1.57 10.34 10.34 0 0 1-3.54.45h-3.86c-2 0-3.42-.36-4.15-1.09s-1.11-2.1-1.11-4.13v-1.12zm-16.4-4.33c0-2.06.37-3.47 1.11-4.2s2.12-1.09 4.15-1.06h3.86c2 0 3.44.36 4.17 1.09s1.11 2.11 1.11 4.17v.38h-14.4zM125.82 65.9h-11.48a.88.88 0 0 0-1 1v18.74a1 1 0 0 0 2 0v-8.5h6.93a1 1 0 0 0 0-2h-6.93v-7.26h10.48a.88.88 0 0 0 1-1 1 1 0 0 0-.26-.74 1 1 0 0 0-.74-.24zm16.93 0h-3.82q-3.45 0-5.1 1.59t-1.63 5.15v7.24q0 3.5 1.63 5.12t5.12 1.63h3.8q3.51 0 5.13-1.63t1.62-5.12v-7.23q0-3.51-1.62-5.13t-5.13-1.62zm4.76 14a7.29 7.29 0 0 1-.45 2.82 2.82 2.82 0 0 1-1.49 1.49 7.22 7.22 0 0 1-2.82.45h-3.82a7.2 7.2 0 0 1-2.81-.45 2.77 2.77 0 0 1-1.5-1.49 7.29 7.29 0 0 1-.45-2.82v-7.24a7.28 7.28 0 0 1 .45-2.83 2.75 2.75 0 0 1 1.49-1.49 7.19 7.19 0 0 1 2.8-.43h3.82a7.22 7.22 0 0 1 2.82.45 2.81 2.81 0 0 1 1.49 1.5 7.2 7.2 0 0 1 .45 2.81zm26.9-14a1 1 0 0 0-.74.26 1 1 0 0 0-.26.74v13a7.29 7.29 0 0 1-.45 2.82 2.79 2.79 0 0 1-1.49 1.49 7.22 7.22 0 0 1-2.82.45h-3.8a7.2 7.2 0 0 1-2.81-.45 2.77 2.77 0 0 1-1.5-1.49 7.29 7.29 0 0 1-.45-2.82v-13a1 1 0 0 0-.26-.74 1 1 0 0 0-.73-.26.91.91 0 0 0-1 1v13q0 3.5 1.63 5.12c1.09 1.09 2.79 1.63 5.12 1.63h3.8q3.51 0 5.13-1.63t1.62-5.12v-13a1 1 0 0 0-.26-.74 1 1 0 0 0-.73-.26zm25.84 0a.88.88 0 0 0-1 1v15.91l-12.7-16.32a1.36 1.36 0 0 0-1-.59.88.88 0 0 0-1 1v18.74a1 1 0 0 0 2 0V69.72l12.7 16.33a1.33 1.33 0 0 0 1 .58.88.88 0 0 0 1-1V66.9a.88.88 0 0 0-1-1zm18.91 0h-7.62a.88.88 0 0 0-1 1v18.74a.88.88 0 0 0 1 1h7.62q4 0 5.86-1.85t1.84-5.85V73.6q0-4-1.85-5.85t-5.85-1.85zm5.71 13a8.47 8.47 0 0 1-.55 3.36 3.37 3.37 0 0 1-1.79 1.81 8.69 8.69 0 0 1-3.37.54h-6.63V67.89h6.63a8.67 8.67 0 0 1 3.37.55 3.32 3.32 0 0 1 1.79 1.8 8.47 8.47 0 0 1 .55 3.36zm18.48-12.22a1.1 1.1 0 0 0-1.07-.78h-.08a1.14 1.14 0 0 0-1.12.78l-7.74 18.55a.91.91 0 0 0 .56 1.31.87.87 0 0 0 1.29-.54l1.95-4.7h10.2l2 4.7a1 1 0 1 0 1.84-.77zm-5.42 12.63l4.25-10.26 4.3 10.26zm31.66-13.41h-15.05a1 1 0 0 0-.74.26 1 1 0 0 0-.26.74 1 1 0 0 0 .26.73 1 1 0 0 0 .74.26h6.53v17.76a1 1 0 0 0 .26.74 1 1 0 0 0 .73.26 1 1 0 0 0 .74-.27 1 1 0 0 0 .26-.73V67.89h6.53a1 1 0 0 0 .74-.26 1 1 0 0 0 .26-.73.91.91 0 0 0-1-1zm8.92 0a1.07 1.07 0 0 0-.74.25 1 1 0 0 0-.26.75v18.74a1 1 0 0 0 .26.73 1 1 0 0 0 .74.26 1 1 0 0 0 .74-.26 1 1 0 0 0 .26-.73V66.9a1 1 0 0 0-.26-.75 1 1 0 0 0-.74-.25zm20.3 0H295q-3.46 0-5.1 1.59t-1.63 5.15v7.24q0 3.5 1.63 5.12t5.12 1.63h3.79q3.51 0 5.14-1.63t1.62-5.12v-7.23q0-3.51-1.62-5.13t-5.14-1.62zm4.76 14a7.29 7.29 0 0 1-.45 2.82 2.77 2.77 0 0 1-1.48 1.49 7.24 7.24 0 0 1-2.83.45h-3.79a7.29 7.29 0 0 1-2.82-.45 2.79 2.79 0 0 1-1.49-1.49 7.29 7.29 0 0 1-.45-2.82v-7.24a7.28 7.28 0 0 1 .45-2.83 2.75 2.75 0 0 1 1.49-1.49 7.19 7.19 0 0 1 2.8-.43h3.81a7.24 7.24 0 0 1 2.83.45 2.75 2.75 0 0 1 1.48 1.5 7.2 7.2 0 0 1 .45 2.81zm26.46-14a.89.89 0 0 0-1 1v15.91l-12.69-16.32a1.38 1.38 0 0 0-1-.59.88.88 0 0 0-1 1v18.74a1 1 0 0 0 2 0V69.72l12.7 16.33a1.32 1.32 0 0 0 1 .58.88.88 0 0 0 1-1V66.9a.89.89 0 0 0-1.01-1z"/><path fill="#f6b649" d="M0 14.44v7.22h49.67L0 71.33l5.11 5.11 62-62H0z"/><path fill="#ec3830" d="M74.33 7.22L81.55 0H0v7.22h74.33z"/><path fill="#45b65c" d="M79.43 12.33v74.32h7.22V5.11l-7.22 7.22z"/><path fill="#2fb2df" d="M72.21 86.65v-67.1l-62 62 5.11 5.1 49.67-49.67v49.67h7.22z"/></svg>