<svg xmlns="http://www.w3.org/2000/svg" role="img" viewBox="-4.36 33.14 408.46 178.46"><title>ORI Industries logo</title><style>svg {enable-background:new 0 0 400 245}</style><path fill="#7215cc" d="M254 135.2c3 20.1 7.8 48.1 11.3 68.6h-67.1c-2.8-19.1-6.6-41.9-9.5-60.8-3.4-22.1-11.3-71.7-11.3-71.7l65.3-10.2s1.9 13.3 2.5 17.4c.3 1.8.7 4.9 1 6.4.1.4.6.6.9.3 1.1-1.2 3.1-3.4 4.4-4.7 6.6-6.7 13.2-13.4 19.8-20 1.2-1.3 5-5.4 5-5.4l9-1.4s.8 4.5 1.2 6.9c2.7 16.6 8.8 55.5 8.8 55.5s-22.3 3.2-30.8 4.5c-5 .8-9.9 1.3-11.1 2.9-.9 1.7 0 7.2.6 11.7zm142.4 68.5l-2.2.1h-64.3c-4-24.7-24.2-152.5-24.2-152.5l65.2-10.1 25.5 162.5zm-240-91.7c-2-8.2-5.2-16-9.5-23.2-6.5-10.8-10.6-14.4-22.9-12.5-15.7 2.4-34.1 5.2-49.9 7.7-16.4 2.6-32.9 4.9-49.3 7.7-14.5 2.5-20.6 20-21 34.3-.8 22 3.2 43.6 7.5 65.1.9 4.3 1.8 8.5 3 12.7h149.1l1.4-.1c1-4 1.5-8 1.6-12.1 1-27.1-3.5-53.5-10-79.6zm-63.3 72.8s-8.1 1.4-9.9 1.5c-2.9.2-3.6-1.1-5.6-11.3-.6-2.8-1.1-5.6-1.6-8.5-.5-2.8-3.7-24.5-3.6-32.7 0-2.9.4-4.1 3.1-4.6 3.6-.6 7.9-1.3 9.9-1.5 4.6-.6 4.8-.1 7.1 11.3 2.6 12.6 4.4 25.4 5.2 38.3.3 6.3.3 6.6-4.6 7.5z"/></svg>