<svg xmlns="http://www.w3.org/2000/svg" role="img" viewBox="-8.25 44.75 416.00 155.25"><title>OSIsoft (member) logo</title><style>svg {enable-background:new 0 0 400 245}</style><style>.st6{fill:#0071ce}</style><linearGradient id="SVGID_1_" x1="10.468" x2="107.695" y1="112.618" y2="44.539" gradientTransform="rotate(-7.002 191.074 126.87)" gradientUnits="userSpaceOnUse"><stop offset="0" stop-color="#b3b3b3"/><stop offset=".175" stop-color="#d8d8d8"/><stop offset=".376" stop-color="#fff"/><stop offset=".68" stop-color="#fff"/><stop offset="1" stop-color="#fff"/></linearGradient><path fill="url(#SVGID_1_)" d="M9.8 134.5s1.6-19.9 18.8-34.4c14.2-12 31.8-18.3 45.6-26.9C88 64.5 97.6 55.3 97.6 55.3l.9.3s-1.1 8.1-7.8 20c-3.5 6.1-11 16.8-28.7 23.5l-4 10.4c-7.7 3.2-19.5 7-19.5 7l-9.5-1.2c-7.6 1.9-19.2 19.2-19.2 19.2z"/><linearGradient id="SVGID_2_" x1="13.191" x2="58.401" y1="145.804" y2="114.147" gradientTransform="rotate(-7.002 191.074 126.87)" gradientUnits="userSpaceOnUse"><stop offset="0" stop-color="#fff"/><stop offset=".166" stop-color="#f9f9f9"/><stop offset=".39" stop-color="#e8e8e8"/><stop offset=".646" stop-color="#ccc"/><stop offset=".924" stop-color="#a5a5a5"/><stop offset="1" stop-color="#999"/></linearGradient><path fill="url(#SVGID_2_)" d="M56.1 129.6l-18.2-21.4c-.8 1-43.9 32.5-28.4 50.1 3.1 3.5 14.9 17.3 18.2 21.1 3.2 3.7 7.1 6.6 11.5 8.7-1.4-1.6-2.9-5.2-2.1-13 1.8-18.9 15.4-40.2 19-45.5z"/><linearGradient id="SVGID_3_" x1="16.48" x2="19.491" y1="150.526" y2="148.417" gradientTransform="rotate(-7.002 191.074 126.87)" gradientUnits="userSpaceOnUse"><stop offset="0" stop-color="#f2f2f2"/><stop offset="1" stop-color="#ccc"/></linearGradient><path fill="url(#SVGID_3_)" d="M6.1 150c0 2.9 1 5.6 3.3 8.3 3.1 3.5 14.9 17.3 18.2 21.1 3.1 3.5 7.4 7 12.8 9.2L6.1 150z"/><linearGradient id="SVGID_4_" x1="47.614" x2="82.996" y1="173.693" y2="97.817" gradientTransform="rotate(-7.002 191.074 126.87)" gradientUnits="userSpaceOnUse"><stop offset="0" stop-color="#fff"/><stop offset=".17" stop-color="#f9f9f9"/><stop offset=".386" stop-color="#eaeaea"/><stop offset=".628" stop-color="#cfcfcf"/><stop offset=".887" stop-color="#ababab"/><stop offset="1" stop-color="#999"/></linearGradient><path fill="url(#SVGID_4_)" d="M75.3 161.8c-4.1 1.9-8.1 2.9-11.6 2.8-2.1-13.3 4.5-33.8 7.2-41.3l-18.6-21.2c-2.5 1-5 2.1-7.2 3l-8 62.9 21.3 24.1h.7c11 .1 23.3-3 35-9.1l-18.8-21.2z"/><linearGradient id="SVGID_5_" x1="47.132" x2="74.029" y1="169.337" y2="150.504" gradientTransform="rotate(-7.002 191.074 126.87)" gradientUnits="userSpaceOnUse"><stop offset="0" stop-color="#e6e6e6"/><stop offset=".206" stop-color="#ddd"/><stop offset=".541" stop-color="#c4c4c4"/><stop offset=".963" stop-color="#9d9d9d"/><stop offset="1" stop-color="#999"/></linearGradient><path fill="url(#SVGID_5_)" d="M75.3 161.8c-7.5 3.5-20 8.4-34.5 8.6l-3.7-2.3 21.3 24.1h.7c11 .1 23.3-3 35-9.1l-18.8-21.3z"/><linearGradient id="SVGID_6_" x1="70.288" x2="143.523" y1="139.332" y2="88.053" gradientTransform="rotate(-7.002 191.074 126.87)" gradientUnits="userSpaceOnUse"><stop offset="0" stop-color="#fff"/><stop offset=".065" stop-color="#e7e7e7"/><stop offset=".169" stop-color="#c7c7c7"/><stop offset=".282" stop-color="#adadad"/><stop offset=".406" stop-color="#999"/><stop offset=".547" stop-color="#8a8a8a"/><stop offset=".717" stop-color="#828282"/><stop offset="1" stop-color="gray"/></linearGradient><path fill="url(#SVGID_6_)" d="M132.3 87.2c-3.2-3.6-15.4-17.6-18.7-21.4l-52.3 74.9c.1.2 17.9 20.5 17.9 20.5 7.6 8.8 19.1 10.8 27.7 8.5 7.1-1.9 12.3-6.2 14.6-8.4 21.7-24.6 26.8-56 10.8-74.1z"/><path d="M91.6 71.4C87.2 79.6 80.7 89.7 64.4 97c-1.1.5-2.1.9-3.1 1.4-2.9 5.7-8.2 18.5-5.1 31.6 4.4 18.1 21 21.4 32.2 18.4 7.1-1.9 12.3-6.2 14.6-8.4 21.6-24.6 26.7-56 10.7-74.1-4.1-4.7-9.3-8.1-15.2-10.2-.7 1.6-3.3 9.1-6.9 15.7z" class="st6"/><path d="M18.8 153.6c1.9-18.8 15.5-40.1 19-45.4-1.5.7-2.9 1.4-4.3 2.1-17.8 9.2-22.5 22-22.5 22s2.2-10.1 7-17.6c.8-1.2 5.5-11.4 20.5-20.8C52.8 84.7 62.4 82.4 77.8 72c12.3-8.3 18.5-14.9 20-16.6-19.7-6.8-47 .2-68.9 19.6C.1 100.4-8.7 137.6 9.4 158c3.2 3.7 7.1 6.6 11.5 8.7-1.4-1.7-2.9-5.3-2.1-13.1z" class="st6"/><path d="M63.5 164.5c-6.7-.4-15.3-5.6-18.2-20-2.7-13.2 4.3-34.6 7-42.3-2.5 1-4.9 2-7.1 2.9-2.8 5-15.4 28.8-13.2 50 1 10 5.5 14.2 8.5 15.9 11 .1 23.1-2.9 34.8-9.1-4.3 1.9-8.2 2.7-11.8 2.6z" class="st6"/><path d="M214.5 122.1c0 12.3-7.2 26.3-26.2 26.3-19.8 0-25.8-14.7-25.8-25.7 0-13.9 8.6-26.1 26.1-26.1 19.1-.1 25.9 13.9 25.9 25.5zm-36.6.5c0 8.4 3.4 13.5 10.7 13.5 6.2 0 10.5-4.9 10.5-14 0-2.3-.2-4.5-.9-6.4-2.3-6.7-8.2-6.9-9.6-6.9-5.5-.1-10.7 3.7-10.7 13.8zm47.2 7.4c1.4 2.1 2.5 3.9 6.7 5.3 2 .7 4.5 1.1 6.8 1.1 1.2 0 7.3-.1 7.3-3.6 0-.3 0-2.1-2.7-3-1.7-.6-10.6-2.2-12.6-2.7-4.5-1.2-13.2-3.9-13.2-14.1 0-2.1.5-4.3 1.4-6.2 3.2-7.1 11.3-9.9 20-9.9 5.6 0 10.6 1.1 14.6 3.1 3.6 1.8 5.4 3.7 7.1 5.5l-9.6 8c-.8-1-1.6-2.1-3.7-3.2-2.8-1.4-6.5-1.8-9-1.8-2.6 0-5.5.7-5.5 3.2 0 2.3 2.5 3 6.7 3.7 10.8 1.9 21.5 3.8 21.5 15.8 0 5.1-2.1 8.6-4.3 10.9-6.1 6.2-15.9 6.2-18.5 6.2-3.6 0-7.5-.3-11.3-1.4-7.7-2.2-11.3-6.5-13.5-9.2l11.8-7.7zm40.3-31.7h15.4v48.5h-15.4V98.3z"/><path fill="#a7a9ac" d="M297.6 132.5c-5.2-1.2-11.6-2.7-11.6-9.4 0-5.9 5-9.6 12.5-9.6 6.2 0 12.8 3 13.9 10.6l-5.9.8c-.1-2-.2-3.6-2.3-5.2-2.1-1.6-4.6-1.9-6.2-1.9-4.3 0-6.4 2.5-6.4 4.7 0 3.1 3.5 4 7.8 5.1l3.1.8c3.8.9 10.8 2.5 10.8 9.3 0 5.3-4.7 10.2-13.6 10.2-3.6 0-7.4-.8-10-2.6-1-.8-4.2-3.4-4.8-8.8l6.2-1c-.1 1.4-.1 4.2 2.4 6.3 1.9 1.6 4.3 1.8 6.5 1.8 4.8 0 7.6-1.8 7.6-5.4 0-3.7-2.8-4.4-6.7-5.1l-3.3-.6zm33.8 15.2c-11.2 0-15.9-8.4-15.9-16.9 0-7.2 3.6-17.4 16.1-17.4 10.7 0 15.6 8.3 15.6 17.2-.1 9.8-5.9 17.1-15.8 17.1zm9.5-21.7c-1.2-6.4-5.4-8.2-9.1-8.2-7.3 0-10.3 5.7-10.3 13.1 0 6.8 2.8 12.4 9.9 12.4 9.1 0 9.8-9.5 9.9-12.8 0-2-.2-3.5-.4-4.5zm18.4-11.6h6.1v4.5h-6.1v27.8H354V119h-5.4v-4.5h5.4l.1-6.6c.1-2.7.2-9.2 8.4-9.2 1.6 0 2.9.3 4 .4v4.3c-1-.1-2.3-.3-3-.3-4.1 0-4.1 3.2-4.1 5.8v5.5zm19.6 0h5.9v4.5h-5.9v18.5c0 3.8 0 5.5 2.3 5.5 1 0 2.5-.4 3.6-.8v4.5c-1 .1-3.2.6-5.3.6-6.3 0-6.3-3.1-6.2-7.3v-21h-5.1v-4.5h5.1v-10.2h5.6v10.2z"/><g><path d="M388.7 141.2c0-3.2 2.6-5.6 5.7-5.6 3 0 5.6 2.4 5.6 5.6 0 3.2-2.6 5.6-5.6 5.6-3.1 0-5.7-2.4-5.7-5.6zm5.7 4.7c2.5 0 4.5-2 4.5-4.7 0-2.6-2-4.6-4.5-4.6s-4.5 2-4.5 4.6c-.1 2.7 1.9 4.7 4.5 4.7zm-1.2-1.5h-1V138h2.4c1.5 0 2.3.6 2.3 1.8 0 1.1-.7 1.6-1.7 1.8l1.8 2.8h-1l-1.7-2.8h-1.1v2.8zm1.2-3.6c.8 0 1.6-.1 1.6-1 0-.8-.7-.9-1.4-.9h-1.3v2h1.1z"/></g></svg>