<svg xmlns="http://www.w3.org/2000/svg" role="img" viewBox="-7.56 -5.56 627.12 233.62"><title>OSIsoft logo</title><defs><style>.cls-7{fill:#007dc3}.cls-8{fill:#231f20}</style><linearGradient id="linear-gradient" x1="41.632" x2="188.286" y1="97.555" y2="-5.132" gradientTransform="rotate(-7.002 297.133 291.838)" gradientUnits="userSpaceOnUse"><stop offset="0" stop-color="#b3b3b3"/><stop offset=".174" stop-color="#d8d8d8"/><stop offset=".376" stop-color="#fff"/><stop offset=".68" stop-color="#fff"/><stop offset="1" stop-color="#fff"/></linearGradient><linearGradient id="linear-gradient-2" x1="45.739" x2="113.933" y1="147.612" y2="99.863" gradientTransform="rotate(-7.002 297.133 291.838)" gradientUnits="userSpaceOnUse"><stop offset="0" stop-color="#fff"/><stop offset=".166" stop-color="#f9f9f9"/><stop offset=".39" stop-color="#e8e8e8"/><stop offset=".646" stop-color="#ccc"/><stop offset=".924" stop-color="#a5a5a5"/><stop offset="1" stop-color="#999"/></linearGradient><linearGradient id="linear-gradient-3" x1="50.7" x2="55.242" y1="154.735" y2="151.555" gradientTransform="rotate(-7.002 297.133 291.838)" gradientUnits="userSpaceOnUse"><stop offset="0" stop-color="#f2f2f2"/><stop offset="1" stop-color="#ccc"/></linearGradient><linearGradient id="linear-gradient-4" x1="97.662" x2="151.03" y1="189.679" y2="75.23" gradientTransform="rotate(-7.002 297.133 291.838)" gradientUnits="userSpaceOnUse"><stop offset="0" stop-color="#fff"/><stop offset=".17" stop-color="#f9f9f9"/><stop offset=".386" stop-color="#eaeaea"/><stop offset=".628" stop-color="#cfcfcf"/><stop offset=".887" stop-color="#ababab"/><stop offset="1" stop-color="#999"/></linearGradient><linearGradient id="linear-gradient-5" x1="96.935" x2="137.505" y1="183.109" y2="154.702" gradientTransform="rotate(-7.002 297.133 291.838)" gradientUnits="userSpaceOnUse"><stop offset="0" stop-color="#e6e6e6"/><stop offset=".205" stop-color="#ddd"/><stop offset=".539" stop-color="#c5c5c5"/><stop offset=".958" stop-color="#9d9d9d"/><stop offset="1" stop-color="#999"/></linearGradient><linearGradient id="linear-gradient-6" x1="131.863" x2="242.328" y1="137.851" y2="60.503" gradientTransform="rotate(-7.002 297.133 291.838)" gradientUnits="userSpaceOnUse"><stop offset="0" stop-color="#fff"/><stop offset=".064" stop-color="#e8e8e8"/><stop offset=".168" stop-color="#c8c8c8"/><stop offset=".281" stop-color="#aeaeae"/><stop offset=".406" stop-color="#999"/><stop offset=".546" stop-color="#8b8b8b"/><stop offset=".717" stop-color="#838383"/><stop offset="1" stop-color="gray"/></linearGradient></defs><path fill="url(#linear-gradient)" d="M19.47 129.721S21.94 99.77 47.79 77.8c21.392-18.176 47.937-27.57 68.748-40.608a250.913 250.913 0 0 0 35.402-26.835l1.401.497s-1.688 12.224-11.762 30.135c-5.208 9.256-16.588 25.343-43.348 35.5l-6.018 15.735c-11.62 4.848-29.434 10.484-29.434 10.484l-14.322-1.852c-11.573 2.867-28.986 28.866-28.986 28.866z"/><path fill="url(#linear-gradient-2)" d="M89.234 122.433l-27.507-32.31c-1.248 1.511-66.175 49.03-42.787 75.519 4.67 5.286 22.42 26.156 27.396 31.787A54.52 54.52 0 0 0 63.7 210.5c-2.068-2.45-4.36-7.84-3.183-19.626 2.839-28.36 23.389-60.464 28.718-68.44z"/><path fill="url(#linear-gradient-3)" d="M13.926 153.188a18.549 18.549 0 0 0 5.014 12.482c4.67 5.288 22.42 26.16 27.396 31.792a51.357 51.357 0 0 0 19.29 13.812z"/><path fill="url(#linear-gradient-4)" d="M118.266 171.024c-6.224 2.793-12.24 4.355-17.55 4.177-3.174-20.028 6.842-50.912 10.89-62.246L83.553 80.956c-3.834 1.574-7.593 3.186-10.912 4.55l-12.004 94.912 32.135 36.306 1.036.012c16.634.202 35.136-4.468 52.728-13.696z"/><path fill="url(#linear-gradient-5)" d="M118.249 171.041c-11.375 5.291-30.225 12.663-52.001 12.928l-5.628-3.53 32.132 36.297 1.044.02c16.633.203 35.133-4.47 52.724-13.699z"/><path fill="url(#linear-gradient-6)" d="M204.2 58.38c-4.826-5.462-23.19-26.583-28.21-32.27L97.124 139.1c.156.34 27.042 30.968 27.042 30.968a41.815 41.815 0 0 0 41.846 12.842 52.642 52.642 0 0 0 22.03-12.69c32.559-37.124 40.316-84.477 16.157-111.839z"/><path d="M142.865 34.615c-6.738 12.406-16.51 27.61-41.084 38.542a461.933 461.933 0 0 1-4.702 2.063c-4.426 8.628-12.429 27.93-7.663 47.696 6.606 27.334 31.696 32.315 48.52 27.816a52.568 52.568 0 0 0 22.025-12.69c32.564-37.129 40.318-84.477 16.162-111.84a55.592 55.592 0 0 0-22.998-15.429 167.603 167.603 0 0 1-10.26 23.842z" class="cls-7"/><path d="M32.959 158.575c2.835-28.36 23.388-60.476 28.722-68.453a153.654 153.654 0 0 0-6.503 3.158c-26.815 13.869-33.913 33.13-33.913 33.13s3.364-15.183 10.617-26.603c1.193-1.873 8.37-17.16 30.856-31.382 21.615-13.675 35.977-17.198 59.34-32.962 18.606-12.555 27.86-22.473 30.101-25.021-29.72-10.248-70.823.281-103.925 29.506C4.81 78.303-8.39 134.363 18.779 165.139a54.484 54.484 0 0 0 17.367 13.053c-2.072-2.44-4.364-7.84-3.187-19.617z" class="cls-7"/><path d="M100.41 174.969c-10.07-.559-23.074-8.494-27.446-30.172-4.019-19.941 6.448-52.23 10.609-63.878-3.834 1.575-7.356 3-10.67 4.368-4.232 7.528-23.256 43.456-19.937 75.464 1.562 15.08 8.258 21.383 12.81 23.968 16.632.2 34.874-4.441 52.47-13.675-6.444 2.898-12.374 4.224-17.836 3.925z" class="cls-7"/><path d="M328.19 111.045c0 18.528-10.87 39.64-39.542 39.64-29.907 0-38.916-22.153-38.916-38.812 0-20.922 12.941-39.35 39.33-39.35 28.88 0 39.127 21.117 39.127 38.522zm-55.269.725c0 12.73 5.173 20.389 16.14 20.389 9.312 0 15.839-7.348 15.839-21.114a28.568 28.568 0 0 0-1.351-9.639 14.763 14.763 0 0 0-14.487-10.455c-8.276 0-16.14 5.693-16.14 20.819zm71.202 11.28c2.071 3.207 3.83 5.901 10.145 7.972a32.784 32.784 0 0 0 10.247 1.658c1.865 0 10.974-.211 10.974-5.49 0-.518 0-3.212-4.042-4.556-2.586-.926-16.044-3.309-19.04-4.035-6.734-1.762-19.875-5.896-19.875-21.333a22.69 22.69 0 0 1 2.068-9.423c4.761-10.761 17.077-15.006 30.222-15.006 8.386 0 16.043 1.654 22.049 4.658a34.649 34.649 0 0 1 10.767 8.28l-14.493 12.112a14.96 14.96 0 0 0-5.59-4.76c-4.246-2.073-9.832-2.695-13.563-2.695-3.932 0-8.275 1.037-8.275 4.762 0 3.523 3.726 4.454 10.037 5.594 16.251 2.798 32.4 5.698 32.4 23.816a23.099 23.099 0 0 1-6.521 16.455c-9.211 9.42-23.91 9.42-27.947 9.42a60.623 60.623 0 0 1-16.973-2.177c-11.595-3.306-16.983-9.828-20.292-13.868zm60.86-47.835h23.185v73.087h-23.185z" class="cls-8"/><path fill="#a7a9ac" d="M453.53 126.775c-7.866-1.864-17.494-4.036-17.494-14.18 0-8.906 7.559-14.5 18.836-14.5 9.318 0 19.253 4.454 20.912 15.95l-8.901 1.14c-.103-3.005-.31-5.383-3.52-7.87a15.213 15.213 0 0 0-9.417-2.9c-6.419 0-9.634 3.828-9.634 7.148 0 4.653 5.285 6.104 11.7 7.662l4.659 1.132c5.795 1.35 16.247 3.832 16.247 14.077 0 7.973-7.035 15.423-20.49 15.423-5.488 0-11.18-1.135-15.113-3.928a18.593 18.593 0 0 1-7.245-13.249l9.315-1.451a11.08 11.08 0 0 0 3.622 9.523c2.893 2.487 6.522 2.79 9.835 2.79 7.242 0 11.488-2.79 11.488-8.074 0-5.589-4.246-6.622-10.145-7.761zm51.028 22.979c-16.876 0-24.015-12.628-24.015-25.465 0-10.866 5.386-26.297 24.328-26.297 16.144 0 23.599 12.53 23.495 25.882-.103 14.807-8.904 25.88-23.808 25.88zm14.28-32.708c-1.862-9.627-8.171-12.424-13.766-12.424-11.072 0-15.524 8.594-15.524 19.775 0 10.243 4.246 18.734 14.907 18.734 13.767 0 14.797-14.285 14.907-19.257a28.401 28.401 0 0 0-.523-6.828zm27.742-17.501h9.21v6.838h-9.21v41.92h-7.966v-41.92h-8.181v-6.838h8.181l.1-9.936c.103-4.14.31-13.87 12.627-13.87a41.448 41.448 0 0 1 6.002.616v6.42a40.92 40.92 0 0 0-4.552-.414c-6.112 0-6.212 4.865-6.212 8.693zm29.603 0h8.904v6.838h-8.904v27.95c0 5.797 0 8.28 3.522 8.28a20.804 20.804 0 0 0 5.382-1.14v6.83a55.212 55.212 0 0 1-7.968.832c-9.521 0-9.521-4.662-9.418-11.076v-31.676h-7.768v-6.838h7.768V84.117h8.482z"/><path d="M590.99 139.932a8.506 8.506 0 1 1 8.522 8.416 8.378 8.378 0 0 1-8.523-8.416zm8.522 7.016a6.997 6.997 0 1 0-6.842-7.016 6.778 6.778 0 0 0 6.842 7.016zm-1.772-2.156h-1.469v-9.684h3.688c2.286 0 3.42.843 3.42 2.756a2.524 2.524 0 0 1-2.512 2.669l2.756 4.26h-1.644l-2.558-4.193h-1.681zm1.75-5.437c1.246 0 2.357-.09 2.357-1.578 0-1.202-1.092-1.426-2.11-1.426h-1.997v3.004z" class="cls-8"/></svg>