<svg xmlns="http://www.w3.org/2000/svg" role="img" viewBox="-6.70 56.80 413.14 131.14"><style>svg {enable-background:new 0 0 400 245}</style><style>.st0{fill:#a6ce39}.st1{fill:#127ba6}.st2{fill:#78909c}</style><g id="XMLID_820_"><g id="XMLID_834_"><g id="XMLID_835_"><g id="XMLID_1066_"><path id="XMLID_1082_" d="M334.09 118.37v32.17h-7.72v-30.09c0-9.2-5.54-14.65-14.75-14.65-10.29.1-16.63 6.83-17.52 16.73v28.01h-7.72V98.37h7.72v11.48c3.66-7.92 10.69-11.68 20.2-11.78 12.46.01 19.79 7.73 19.79 20.3z" class="st0"/><path id="XMLID_1080_" d="M344.68 93.23v6.73h17.48l-2.53 6.34h-14.95v44.25h-7.62V106.3h-6.73v-6.34h6.73v-5.74c0-11.38 8.02-17.52 16.73-17.52 3.96.1 8.02 1.29 11.19 3.66l-3.17 6.24c-2.38-1.68-5.25-2.67-7.92-2.67-5.06-.01-9.21 3.26-9.21 9.3z" class="st0"/><path id="XMLID_1077_" d="M398.32 124.41c0 15.64-10.99 26.43-26.43 26.43s-26.43-10.79-26.43-26.43c0-15.54 10.99-26.23 26.43-26.23 15.45 0 26.43 10.69 26.43 26.23zm-45.13.1c0 11.48 7.82 19.4 18.71 19.4s18.71-7.92 18.71-19.4c0-11.38-7.82-19.3-18.71-19.3-10.9 0-18.71 7.91-18.71 19.3z" class="st0"/><path id="XMLID_1074_" d="M184.54 115.8c0 20.19-16.03 35.54-37.52 35.54-21.38 0-37.42-15.24-37.42-35.54 0-20.19 16.04-35.14 37.42-35.14 21.48 0 37.52 15.04 37.52 35.14zm-56.92.1c0 11.68 9.01 20.69 19.6 20.69 10.69 0 19.2-9.01 19.2-20.69 0-11.68-8.51-20.49-19.2-20.49s-19.6 8.8-19.6 20.49z" class="st1"/><path id="XMLID_1073_" d="M229.05 81.15h-76.79l17.22 14.26h20.69v55.13h17.62V95.41h15.11z" class="st1"/><path id="XMLID_1070_" d="M228.68 137.77l-5.05 12.77h-18.11l29.89-69.29h18.11l29.2 69.29h-18.81l-4.95-12.77h-30.28zm15.24-39l-10.1 25.64h19.99l-9.89-25.64z" class="st1"/><g id="XMLID_1067_"><path id="XMLID_1069_" d="M275.79 117.82l7.62 18.09V98.37h-7.62z" class="st0"/><path id="XMLID_1068_" d="M279.55 88.77c2.87 0 5.05-2.27 5.05-5.34s-2.18-5.35-5.05-5.35c-2.87 0-5.05 2.28-5.05 5.35s2.18 5.34 5.05 5.34z" class="st0"/></g></g><g id="XMLID_836_"><path id="XMLID_1064_" d="M115.26 162.27l-.63 1.31c-.7-.41-1.58-.69-2.12-.69-.44 0-.73.16-.73.48 0 1.14 3.5.49 3.5 2.89 0 1.32-1.17 2.02-2.65 2.02-1.11 0-2.24-.42-3.03-1.06l.65-1.3c.68.6 1.7.99 2.39.99.53 0 .86-.2.86-.58 0-1.17-3.5-.47-3.5-2.82 0-1.22 1.05-2 2.64-2 .97.02 1.94.31 2.62.76z" class="st2"/><path id="XMLID_1062_" d="M119.02 162.93v1.31h3.16v1.33h-3.16v1.33h3.6v1.32h-5.29v-6.62h5.18v1.32h-3.49z" class="st2"/><path id="XMLID_1060_" d="M130.61 162.66l-.97 1.15c-.43-.53-1.08-.86-1.67-.86-1.05 0-1.84.83-1.84 1.92 0 1.11.79 1.95 1.84 1.95.56 0 1.2-.3 1.67-.78l.98 1.04c-.71.73-1.76 1.21-2.73 1.21-2 0-3.48-1.47-3.48-3.41 0-1.91 1.52-3.35 3.54-3.35.98.02 2 .45 2.66 1.13z" class="st2"/><path id="XMLID_1058_" d="M138.48 165.44c0 1.75-1.16 2.86-3.02 2.86s-3.06-1.11-3.06-2.86v-3.84h1.68v3.84c0 .9.58 1.45 1.38 1.45.79 0 1.33-.55 1.33-1.45v-3.84h1.67v3.84z" class="st2"/><path id="XMLID_1055_" d="M143.84 166.36h-1.33v1.86h-1.68v-6.62h2.96c1.75 0 2.75.83 2.75 2.31 0 1.01-.43 1.74-1.2 2.13l1.39 2.19h-1.91l-.98-1.87zm-.05-1.32c.73 0 1.15-.37 1.15-1.07 0-.69-.43-1.04-1.15-1.04h-1.28v2.11h1.28z" class="st2"/><path id="XMLID_1053_" d="M150.49 162.93v1.31h3.16v1.33h-3.16v1.33h3.6v1.32h-5.29v-6.62h5.2v1.32h-3.51z" class="st2"/><path id="XMLID_1050_" d="M159.17 161.6c2.08 0 3.52 1.34 3.52 3.31 0 1.96-1.46 3.31-3.59 3.31h-2.78v-6.62h2.85zm-1.16 5.28h1.2c1.03 0 1.77-.79 1.77-1.96s-.78-1.98-1.84-1.98h-1.13v3.94z" class="st2"/><path id="XMLID_1047_" d="M174.77 164.91c0 1.93-1.53 3.4-3.59 3.4-2.04 0-3.58-1.46-3.58-3.4 0-1.93 1.53-3.36 3.58-3.36s3.59 1.44 3.59 3.36zm-5.44.01c0 1.12.86 1.98 1.87 1.98 1.02 0 1.83-.86 1.83-1.98s-.81-1.96-1.83-1.96-1.87.84-1.87 1.96z" class="st2"/><path id="XMLID_1045_" d="M178.6 168.23l-2.57-6.62h1.8l1.69 4.87 1.69-4.87h1.73l-2.6 6.62h-1.74z" class="st2"/><path id="XMLID_1043_" d="M186.41 162.93v1.31h3.16v1.33h-3.16v1.33h3.6v1.32h-5.29v-6.62h5.18v1.32h-3.49z" class="st2"/><path id="XMLID_1040_" d="M195.24 166.36h-1.33v1.86h-1.68v-6.62h2.96c1.75 0 2.75.83 2.75 2.31 0 1.01-.43 1.74-1.2 2.13l1.39 2.19h-1.91l-.98-1.87zm-.04-1.32c.73 0 1.15-.37 1.15-1.07 0-.69-.43-1.04-1.15-1.04h-1.28v2.11h1.28z" class="st2"/><path id="XMLID_1038_" d="M206.61 162.96v5.27h-1.68v-5.27h-1.98v-1.36h5.66v1.36h-2z" class="st2"/><path id="XMLID_1036_" d="M214.89 168.23v-2.57h-2.74v2.57h-1.68v-6.62h1.68v2.72h2.74v-2.72h1.68v6.62h-1.68z" class="st2"/><path id="XMLID_1034_" d="M220.72 162.93v1.31h3.16v1.33h-3.16v1.33h3.6v1.32h-5.29v-6.62h5.18v1.32h-3.49z" class="st2"/><path id="XMLID_1031_" d="M231.38 167.01l-.48 1.22h-1.73l2.86-6.62h1.73l2.79 6.62h-1.8l-.47-1.22h-2.9zm1.45-3.73l-.97 2.45h1.91l-.94-2.45z" class="st2"/><path id="XMLID_1029_" d="M238.29 168.23v-6.62h1.68v6.62h-1.68z" class="st2"/><path id="XMLID_1026_" d="M245.44 166.36h-1.33v1.86h-1.68v-6.62h2.96c1.75 0 2.75.83 2.75 2.31 0 1.01-.43 1.74-1.2 2.13l1.39 2.19h-1.91l-.98-1.87zm-.05-1.32c.73 0 1.15-.37 1.15-1.07 0-.69-.43-1.04-1.15-1.04h-1.28v2.11h1.28z" class="st2"/><path id="XMLID_922_" d="M253.74 168.23v-6.62h1.68v6.62h-1.68z" class="st2"/><path id="XMLID_920_" d="M262.51 168.23l-3.05-4.08v4.08h-1.58v-6.62h1.49l3.06 4.09v-4.09H264v6.62h-1.49z" class="st2"/><path id="XMLID_918_" d="M268.14 162.93v1.53h2.97v1.33h-2.97v2.44h-1.68v-6.62h4.91v1.32h-3.23z" class="st2"/><path id="XMLID_915_" d="M280.03 164.91c0 1.93-1.53 3.4-3.59 3.4-2.04 0-3.58-1.46-3.58-3.4 0-1.93 1.53-3.36 3.58-3.36 2.06 0 3.59 1.44 3.59 3.36zm-5.44.01c0 1.12.86 1.98 1.87 1.98 1.02 0 1.83-.86 1.83-1.98s-.81-1.96-1.83-1.96-1.87.84-1.87 1.96z" class="st2"/><path id="XMLID_912_" d="M285.06 166.36h-1.33v1.86h-1.68v-6.62h2.96c1.75 0 2.75.83 2.75 2.31 0 1.01-.43 1.74-1.2 2.13l1.39 2.19h-1.91l-.98-1.87zm-.05-1.32c.73 0 1.15-.37 1.15-1.07 0-.69-.43-1.04-1.15-1.04h-1.28v2.11h1.28z" class="st2"/><path id="XMLID_910_" d="M295.83 168.23l-.01-4.3-1.59 3.64h-1.1l-1.59-3.64v4.3h-1.5v-6.63h1.85l1.8 3.94 1.8-3.94h1.83v6.63h-1.49z" class="st2"/><path id="XMLID_907_" d="M301.28 167.01l-.48 1.22h-1.73l2.86-6.62h1.73l2.79 6.62h-1.8l-.47-1.22h-2.9zm1.46-3.73l-.97 2.45h1.91l-.94-2.45z" class="st2"/><path id="XMLID_904_" d="M310.55 162.96v5.27h-1.68v-5.27h-1.98v-1.36h5.66v1.36h-2z" class="st2"/><path id="XMLID_902_" d="M314.4 168.23v-6.62h1.68v6.62h-1.68z" class="st2"/><path id="XMLID_899_" d="M325.27 164.91c0 1.93-1.53 3.4-3.59 3.4-2.04 0-3.58-1.46-3.58-3.4 0-1.93 1.53-3.36 3.58-3.36 2.06 0 3.59 1.44 3.59 3.36zm-5.44.01c0 1.12.86 1.98 1.87 1.98 1.02 0 1.83-.86 1.83-1.98s-.81-1.96-1.83-1.96-1.87.84-1.87 1.96z" class="st2"/><path id="XMLID_897_" d="M331.92 168.23l-3.05-4.08v4.08h-1.58v-6.62h1.49l3.06 4.09v-4.09h1.57v6.62h-1.49z" class="st2"/><path id="XMLID_895_" d="M342.26 162.96v5.27h-1.68v-5.27h-1.98v-1.36h5.66v1.36h-2z" class="st2"/><path id="XMLID_892_" d="M349.11 166.36h-1.33v1.86h-1.68v-6.62h2.96c1.75 0 2.75.83 2.75 2.31 0 1.01-.43 1.74-1.2 2.13l1.39 2.19h-1.91l-.98-1.87zm-.04-1.32c.73 0 1.15-.37 1.15-1.07 0-.69-.43-1.04-1.15-1.04h-1.28v2.11h1.28z" class="st2"/><path id="XMLID_889_" d="M355.59 167.01l-.48 1.22h-1.73l2.86-6.62h1.73l2.79 6.62h-1.8l-.47-1.22h-2.9zm1.46-3.73l-.97 2.45H358l-.95-2.45z" class="st2"/><path id="XMLID_846_" d="M367.13 168.23l-3.05-4.08v4.08h-1.58v-6.62h1.49l3.06 4.09v-4.09h1.57v6.62h-1.49z" class="st2"/><path id="XMLID_844_" d="M376.23 162.27l-.63 1.31c-.7-.41-1.58-.69-2.12-.69-.44 0-.73.16-.73.48 0 1.14 3.5.49 3.5 2.89 0 1.32-1.17 2.02-2.65 2.02-1.11 0-2.24-.42-3.03-1.06l.65-1.3c.68.6 1.7.99 2.39.99.53 0 .86-.2.86-.58 0-1.17-3.5-.47-3.5-2.82 0-1.22 1.05-2 2.64-2 .97.02 1.94.31 2.62.76z" class="st2"/><path id="XMLID_842_" d="M379.99 162.93v1.53h2.97v1.33h-2.97v2.44h-1.68v-6.62h4.91v1.32h-3.23z" class="st2"/><path id="XMLID_840_" d="M386.83 162.93v1.31h3.16v1.33h-3.16v1.33h3.6v1.32h-5.29v-6.62h5.18v1.32h-3.49z" class="st2"/><path id="XMLID_837_" d="M395.67 166.36h-1.33v1.86h-1.68v-6.62h2.96c1.75 0 2.75.83 2.75 2.31 0 1.01-.43 1.74-1.2 2.13l1.39 2.19h-1.91l-.98-1.87zm-.05-1.32c.73 0 1.15-.37 1.15-1.07 0-.69-.43-1.04-1.15-1.04h-1.28v2.11h1.28z" class="st2"/></g></g></g><g id="XMLID_821_"><path id="XMLID_833_" d="M1.44 90.9l.65-1.05c.44-.68 1.08-1.69 1.99-2.9 1.82-2.41 4.59-5.81 8.6-9.17 3.99-3.38 9.21-6.74 15.35-9.13 3.07-1.19 6.34-2.18 9.74-2.81 3.41-.64 6.91-.97 10.44-.99 3.5.01 7.03.35 10.43.99 3.41.62 6.68 1.62 9.75 2.81a54.723 54.723 0 0 1 15.35 9.13c4.02 3.37 6.78 6.76 8.6 9.17.91 1.21 1.55 2.22 1.99 2.9.43.69.65 1.05.65 1.05s-1.02-1.4-2.99-3.67c-1.96-2.27-5-5.33-9.08-8.42A59.79 59.79 0 0 0 76 74.33c-2.55-1.41-5.36-2.7-8.34-3.78-2.98-1.09-6.16-1.92-9.43-2.52a55.78 55.78 0 0 0-10.04-.87c-6.75-.04-13.49 1.23-19.46 3.39-5.98 2.15-11.16 5.19-15.24 8.26-4.08 3.08-7.12 6.15-9.08 8.42-1.96 2.27-2.97 3.67-2.97 3.67z" class="st1"/><path id="XMLID_832_" d="M14.87 89.09s.19-.22.55-.63c.37-.4.9-1 1.62-1.72a41.81 41.81 0 0 1 6.58-5.33c2.93-1.95 6.65-3.84 10.88-5.18 2.12-.66 4.34-1.23 6.66-1.57 2.31-.35 4.68-.54 7.05-.55 2.37.01 4.74.2 7.05.55 2.31.34 4.54.91 6.66 1.57 4.23 1.34 7.94 3.24 10.88 5.18 2.95 1.93 5.14 3.9 6.58 5.33.73.71 1.26 1.31 1.62 1.72.36.41.55.63.55.63s-.87-.77-2.48-2c-1.6-1.23-3.96-2.9-6.96-4.54a51.152 51.152 0 0 0-10.78-4.37c-2.04-.58-4.2-.99-6.4-1.31-2.2-.31-4.46-.46-6.72-.45-2.26-.01-4.52.14-6.72.45-2.2.32-4.36.73-6.4 1.31-4.1 1.13-7.77 2.73-10.78 4.37a54.182 54.182 0 0 0-6.96 4.54c-1.6 1.23-2.48 2-2.48 2z" class="st0"/><path id="XMLID_830_" d="M94.99 154.1l-.65 1.05c-.44.68-1.08 1.69-1.99 2.9-1.82 2.41-4.59 5.81-8.6 9.17a54.723 54.723 0 0 1-15.35 9.13c-3.07 1.19-6.34 2.18-9.74 2.81-3.41.64-6.92.97-10.44.99a57.42 57.42 0 0 1-10.43-.99c-3.41-.62-6.68-1.62-9.75-2.81a54.723 54.723 0 0 1-15.35-9.13c-4.02-3.37-6.78-6.76-8.6-9.17-.91-1.21-1.55-2.22-1.99-2.9-.43-.69-.65-1.05-.65-1.05s1.02 1.4 2.99 3.67c1.96 2.27 5 5.33 9.08 8.42a59.79 59.79 0 0 0 6.91 4.48c2.55 1.41 5.36 2.7 8.34 3.78 2.98 1.09 6.16 1.92 9.43 2.52 3.27.59 6.65.88 10.03.87 6.76.04 13.5-1.23 19.46-3.39 5.98-2.15 11.16-5.19 15.24-8.26 4.08-3.08 7.12-6.15 9.08-8.42 1.96-2.27 2.98-3.67 2.98-3.67z" class="st1"/><path id="XMLID_829_" d="M81.55 155.91s-.19.22-.55.63c-.37.4-.9 1-1.62 1.72a41.81 41.81 0 0 1-6.58 5.33c-2.93 1.95-6.65 3.84-10.88 5.18-2.12.66-4.34 1.23-6.66 1.57-2.31.35-4.67.54-7.05.55-2.36-.01-4.74-.2-7.04-.55-2.31-.34-4.54-.91-6.66-1.57a44.218 44.218 0 0 1-10.88-5.18c-2.95-1.93-5.14-3.9-6.58-5.33-.73-.71-1.26-1.31-1.62-1.72-.36-.41-.55-.63-.55-.63s.87.77 2.48 2c1.6 1.23 3.96 2.9 6.96 4.54 3.01 1.64 6.68 3.24 10.78 4.37 2.04.58 4.2.99 6.4 1.31 2.21.31 4.46.46 6.73.45 2.24.01 4.52-.14 6.72-.45 2.2-.32 4.36-.73 6.4-1.31 4.1-1.13 7.77-2.73 10.78-4.37 3.01-1.65 5.36-3.31 6.96-4.54 1.59-1.23 2.46-2 2.46-2z" class="st0"/><g id="XMLID_825_"><path id="XMLID_827_" d="M53.06 156.03c-16.24 0-29.82-11.39-33.19-26.61h-9.13c3.44 17.52 18.88 30.73 37.4 30.73 13.88 0 26.03-7.42 32.69-18.5-6.15 8.7-16.29 14.38-27.77 14.38z" class="st1"/><path id="XMLID_826_" d="M43.07 88.59c16.21 0 29.76 11.34 33.17 26.52 3.24.55 5.86 1.52 7.38 2.18.74.32 1.51.7 2.26 1.12-2.08-19.08-18.25-33.94-37.89-33.94-13.88 0-26.03 7.42-32.69 18.5 6.16-8.69 16.3-14.38 27.77-14.38z" class="st1"/></g><g id="XMLID_822_"><path id="XMLID_824_" d="M4.25 128.2c-1.69-2.74-2.7-5.18.34-6.74-.8-1.98-1.26-2.23-1.26-3.62s2.28-3.71 12.64-3.71 32.96 3.96 32.96 3.96c-19.6-1.77-30.39-1.98-33.67-1.85s-10.11 1.22-10.11 2.99c0 .72.97 1.48.97 1.98-.02 1.43-3.73 1.72-1.87 6.99z" class="st0"/><path id="XMLID_823_" d="M57.26 118.47l-33.25-4.8c6.07-3.08 14.84-4.17 19.22-4.17 8.85 0 16.27 2.15 24.02 7.63 10.03-1.85 20.52 3.84 20.52 5.77 0 1.18-.93 3.2-1.43 3.96.51-2.44.17-3.62.17-3.62-1.39-2.07-7.5-6.07-19.81-5.14-9.36-6.57-21.24-8.93-33.17-4l23.73 4.37z" class="st0"/></g></g></g></svg>