<svg xmlns="http://www.w3.org/2000/svg" role="img" viewBox="-8.68 -7.68 685.36 265.36"><title>Packet logo</title><path fill="#394c63" d="M89.125 62.805c-10.286 0-19.114 2.7-26.771 8.314-4.576 3.345-9.103 9.461-12.926 14.873-2.27-9.461-5.22-21.718-5.22-21.718l-29.137.036a2.924 2.924 0 0 0-2.915 2.938v11.027a2.917 2.917 0 0 0 2.951 2.939l16.2-.036s3.989 14.311 6.51 24.394c-3.393 6.128-6.69 11.408-9.521 16.867-16.104 31.084-23.463 52.55-23.463 76.025 0 28.097 12.34 46.315 30.726 46.315 21.3 0 33.998-19.09 33.998-52.133 0-.633-.048-2.795-.107-4.05a44.321 44.321 0 0 0 18.349 4.683c23.617 0 43.149-15.613 47.282-37.128a138.654 138.654 0 0 0 2.401-27.858c0-11.695-1.254-21.85-3.667-30.164-6.582-22.446-22.853-35.324-44.69-35.324zm-53.566 165.68c-9.043 0-13.774-15.113-13.774-30.021 0-18.935 5.46-39.9 21.945-71.7 4.826 22.1 8.852 49.432 8.852 65.882 0 10.787-1.637 35.838-17.023 35.838zm82.858-75.548c-2.593 13.535-15.71 23.928-31.18 23.928-6.487 0-13.164-2.245-19.006-4.205-2.413-20.774-7.8-46.23-12.639-66.085A89.451 89.451 0 0 1 66.308 90.52c7.8-9.45 15.518-11.301 22.817-11.301 17.883 0 25.302 13.128 28.408 23.688 1.361 4.66 2.986 12.819 2.986 25.386a121.472 121.472 0 0 1-2.102 24.644zm544.477 15.055l-8.614-6.977a2.908 2.908 0 0 0-1.899-.74 2.829 2.829 0 0 0-2.09.907h-.013c-2.771 3.357-8.04 8.852-8.672 9.486-3.082 2.998-7.304 5.423-11.927 5.423-8.136 0-13.506-2.449-13.506-16.915V81.24h27.723a2.967 2.967 0 0 0 2.951-2.963V67.215a2.963 2.963 0 0 0-2.95-2.939h-21.701v-.022h-6.023l-.048-31.874a2.955 2.955 0 0 0-2.939-2.914h-11.038a2.942 2.942 0 0 0-2.939 2.962v31.826h-13.383a2.962 2.962 0 0 0-2.95 2.938v11.063a2.967 2.967 0 0 0 2.95 2.962h13.383v58.307c-3.846 4.396-14.704 15.96-19.817 21.061a54.397 54.397 0 0 1-3.15 2.886 52.329 52.329 0 0 1-18.968 10.076c-8.756 2.76-16.258 3.508-27.63 3.491-17.209-.024-25.614-11.563-25.614-11.563 1.466-1.512 21.06-21.195 21.06-21.195 16.226-16.742 29.202-32.668 31.881-35.754a42.094 42.094 0 0 0 6.15-8.607c6.008-11.206 6.098-23.003-4.162-31.193-4.894-3.906-13.691-6.456-28.898-6.086-22.688.552-44.996 13.721-49.558 36.92-1.264 6.425-2.457 13.678-2.457 27.428 0 3.404.02 7.634.2 10.517a131.696 131.696 0 0 0 2.136 18.25c.514 2.7 1.45 4.6 2.435 8.062a53.43 53.43 0 0 1-8.31 8.61c-2.638 2.16-6.924 2.92-9.146 2.92l-.766.025c-6.14 0-10.005-3.438-14.88-8.623l-.835-.872c-2.402-2.556-19.831-24.86-32.757-41.548l28.815-30.55 16.041-16.973a2.962 2.962 0 0 0-.109-4.163l-8.039-7.598a2.968 2.968 0 0 0-4.18.109l-2.131 2.254-.015-.02-43.028 45.587-9.71 10.271V8.582a2.94 2.94 0 0 0-2.938-2.95h-8.236v.007h-2.824a2.94 2.94 0 0 0-2.94 2.95v132.577a2679.486 2679.486 0 0 0-14.73 15.96c-4.874 5.28-11.42 11.862-18.935 15.78-5.794 3.01-9.155 3.991-23.741 3.991-15.208 0-28.296-10.513-30.864-23.952a120.866 120.866 0 0 1-2.09-24.657c0-10.56.764-19.28 2.233-25.899 2.94-13.105 15.685-23.175 30.725-23.175 11.696 0 21.336 5.184 26.03 12.806a4.12 4.12 0 0 0 1.972 1.756 3.032 3.032 0 0 0 2.306-.263l9.831-5.268a2.549 2.549 0 0 0 1.374-2.413 2.78 2.78 0 0 0-.346-1.302l-.61-1.255C352.28 70.47 337.12 62.8 319.427 62.8c-22.936 0-42.945 15.088-47.593 35.862-1.744 7.86-2.664 17.835-2.664 29.626a139.529 139.529 0 0 0 2.402 27.858 59.966 59.966 0 0 0 2.39 7.75 60.344 60.344 0 0 1-6.705 7.205 16.127 16.127 0 0 1-14.896 4.176c-4.877-1.012-6.854-5.59-6.989-10.578 0 0 .036-55.101.036-58.9 0-25.266-19.64-42.91-47.88-42.91-14.789 0-29.184 6.236-38.49 16.676a30.17 30.17 0 0 0-3.966 5.65 5.11 5.11 0 0 0-.382 1.41 2.949 2.949 0 0 0 1.684 2.653v.035l9.485 5.042h.012a2.786 2.786 0 0 0 1.386.394 2.873 2.873 0 0 0 2.377-1.302 23.368 23.368 0 0 1 2.031-2.569 35.414 35.414 0 0 1 25.863-11.575c18.84 0 30.331 10.751 30.331 26.496 0 1.194-.011 1.977-.011 3.83l-16.247.035c-57.042 0-61.474 36.435-61.474 47.605a35.513 35.513 0 0 0 8.732 23.522c8.96 10.393 20.17 12.532 30.397 12.532 9.198 0 20.243-4.039 28.58-9.271a53.697 53.697 0 0 0 11.54-10.512c2.665 11.587 12.221 19.72 23.211 19.783 8.57.05 13.536-1.552 20.574-6.284a53.551 53.551 0 0 0 9.908-9.233c8.983 10 21.592 15.48 36.43 15.48 15.063 0 21.837-.537 31.454-5.543a63.997 63.997 0 0 0 15.303-11.337c3.5-3.571 7.24-7.836 10.572-11.826l-.048 24.962a2.954 2.954 0 0 0 2.975 2.95h11.074a2.932 2.932 0 0 0 2.939-2.95v-42.158l10.509-10.838c11.703 14.948 29.422 37.538 32.31 40.979l.789.848c5.112 5.46 12.982 14.95 26.911 14.95.573 0 5.312.065 8.68-1.393 9.86-4.268 16.843-11.91 18.945-14.179a73.522 73.522 0 0 0 5.677 5.33c9.318 7.244 20.551 10.291 34.062 10.274 12.627-.016 21.44-.518 30.455-3.574 7.49-2.538 20.332-9.998 27.656-17.322 2.4-2.413 6.353-6.164 9.543-10.01 1.027 20.296 10.778 30.906 30.93 30.906 11.505 0 17.78-6.417 21.544-10.048.501-.49 11.342-11.337 11.342-11.337a2.889 2.889 0 0 0 .692-1.828 3.059 3.059 0 0 0-.92-2.15zm-435.297-26.826c0 17.537-18.935 34.584-36.018 34.584-12.52 0-17.393-3.154-19.878-6.021a18.327 18.327 0 0 1-4.611-12.46c0-19.759 15.816-30.642 44.51-30.642l15.997-.023zm269.163 7.7a127.858 127.858 0 0 1-1.357-16.765c-.073-3.767.024-7.81.151-12.432a137.206 137.206 0 0 1 1.368-14.058c1.458-9.904 6.075-15.425 11.479-19.775 5.985-4.817 14.64-7.562 27.696-7.516 12.52.044 14.405 7.79 12.248 12.068-5.493 10.897-19.307 23.381-33.232 38.545z"/></svg>