<svg xmlns="http://www.w3.org/2000/svg" role="img" viewBox="-21.54 -21.54 1120.08 259.08"><title>PerimeterX logo</title><defs><style>.cls-1{fill:#ce162e}.cls-2{fill:#cf172f}</style></defs><path d="M366.3 124.78c0-14.08-.09-28.16 0-42.25a52.33 52.33 0 0 1 3.41-17.81c4.8-12.84 13.92-21 27.22-24.26a61.46 61.46 0 0 1 29.5 0c9 2.21 16.46 7 21.6 14.89 1 1.62 2 2.6 3.51.37 6.45-9.91 15.94-14.76 27.39-16.29 9.08-1.22 18.13-1 27 1.66 15.78 4.78 24 16.1 27.09 31.76a78 78 0 0 1 1.32 14.95v79.39c0 5.17-.55 5.72-5.65 5.73h-9.3c-4.46 0-5-.56-5-4.95V95.3c0-4.36-.25-8.73-.45-13.09a36.46 36.46 0 0 0-1.57-8.79c-4-13.37-13.75-18.64-28.23-17.47s-22.18 9.68-23.5 25.08c-.36 4.26-.55 8.51-.54 12.78v73.94c0 4.63-.54 5.16-5.15 5.17h-9.94c-4 0-4.89-.84-4.89-4.88V90.89a71.7 71.7 0 0 0-.66-11.16c-1.5-9.61-5-17.91-14.79-21.93-10.26-4.23-23.92-2-30.55 5-4.48 4.69-6.24 10.59-7.17 16.77a75.62 75.62 0 0 0-.73 11.16v76.83c0 4.78-.58 5.37-5.29 5.38h-9.62c-4.41 0-5.07-.63-5.07-5v-43.22z" class="cls-1"/><path d="M992.87 113.42c3.47 0 9.84 1.65 15.52 5.33 1.88 1.21 2.81.93 4.17-.62 2.73-3.13 5.63-6.13 8.57-9.07 1-1.05 1.21-1.65.07-2.79q-4.85-4.87-9.42-10c-1.37-1.52-2.2-.33-3.23.27-11.22 6.51-22.79 7.1-34.64 1.9-5.6-2.45-9.82-6.7-13.92-11.08-3.78-4.06-7.63-8.06-11.44-12.08-5.94-6.27-5.86-12.7.37-18.71 4.84-4.66 9.77-9.23 14.68-13.82 5.87-5.47 12.55-5.33 18.07.46 9 9.5 18.13 19 27 28.64 2.1 2.29 3.08 1.75 4.86-.17q13.39-14.4 27-28.61c5.24-5.49 12.08-5.71 17.64-.57q7.76 7.15 15.34 14.51c5.76 5.62 5.82 12.16.26 18-9.69 10.22-19.34 20.48-29.16 30.57-1.79 1.84-1.39 2.63.15 4.21q14.65 15.21 29.12 30.59c5.49 5.81 5.31 12.51-.46 18.05q-7.52 7.2-15.15 14.25c-5.68 5.25-12.54 5-17.85-.57-9-9.51-18.11-19-27-28.62-2-2.15-3-1.92-4.86.09q-13.48 14.56-27.25 28.84c-5 5.19-11.94 5.45-17.16.67q-8.16-7.44-16-15.19c-5.11-5-5.34-11.51-.5-16.82 5.39-5.91 10.88-11.74 16.54-17.39 6.81-6.85 15.64-10.27 28.68-10.27zm39.2-16.18c1-.9 1.43-1.21 1.78-1.59q13.13-13.8 26.23-27.62c1.33-1.4 1-2.63-.28-3.84-2.66-2.47-5.33-4.92-7.93-7.45-1.43-1.39-2.61-1.49-4 0q-12.51 13.27-25.12 26.46c-1 1-1.47 1.82-.15 3.12 3 3 5.9 6.16 8.8 9.29a5.68 5.68 0 0 1 .67 1.63zm28.89 51.42a8.4 8.4 0 0 0-.91-1.4q-13.08-13.84-26.18-27.66c-.93-1-1.53-1.1-2.52 0q-4.19 4.63-8.59 9.05c-1.21 1.21-1.33 2.06-.07 3.36q12.64 13.15 25.15 26.43c1.46 1.55 2.61 1.43 4 .05 2.61-2.52 5.28-5 7.93-7.44a2.93 2.93 0 0 0 1.19-2.39zm-60.85-64.55c-8.86-9.37-17.5-18.5-26.13-27.64-1.22-1.3-2.27-1.21-3.51 0-2.67 2.6-5.37 5.19-8.18 7.64-1.71 1.5-1.56 2.66-.07 4.19 4 4 7.74 8.25 11.71 12.26a21.6 21.6 0 0 0 26.18 3.55zm-10.73 44.05a22.17 22.17 0 0 0-15.27 6.38c-4.08 4.06-7.91 8.38-12 12.47-1.62 1.65-1.34 2.8.25 4.21 2.71 2.4 5.39 4.86 7.92 7.44 1.54 1.56 2.58 1.29 3.94-.17 6.71-7.16 13.53-14.22 20.21-21.41 1.85-2 4.2-3.57 5.32-6.19-2.89-1.77-6.15-2.32-9.45-2.72a7.67 7.67 0 0 0-.92-.01z" class="cls-2"/><path d="M.13 146.9c0-20.69-.22-41.38.08-62.06.18-12.67 3.51-24.43 12.94-33.72 5.81-5.72 12.92-9 20.76-10.68a75.54 75.54 0 0 1 31.44-.1c17.88 3.7 29.37 15.36 32.89 33.23a64.26 64.26 0 0 1 1.36 12.36c0 15.57.12 31.14-.16 46.71a52.52 52.52 0 0 1-4.92 21.34c-4.44 9.58-11.58 16.25-21.62 19.6-11.64 3.88-23.41 4.38-35.21.62a29.85 29.85 0 0 1-13.68-9.07c-.9-1-1.69-2.58-3.31-1.85-1.43.65-.65 2.27-.66 3.42v45.11c0 4-.67 4.67-4.63 4.69H4.52c-3.46 0-4.37-.89-4.44-4.33-.07-3.73 0-7.47 0-11.2V146.9zm79.58-39.08c-.35-8.84.54-17.71-.71-26.52-1.58-11.11-5.87-20.31-17.66-23.88a39 39 0 0 0-22.72-.05c-12 3.57-16.76 12.92-17.9 24.35-1.56 15.73-.8 31.54-.46 47.3.17 7.61 1.94 15 7 21.19 6.6 8.07 15.66 9.67 25.41 9.29 14.18-.54 23-8.1 25.78-22 1.94-9.85.87-19.79 1.26-29.68zm529.62 6.48c-11.11 0-22.23.05-33.33 0-2.06 0-2.77.5-2.72 2.65.15 6.17-.2 12.37 1 18.49 2.84 14.82 12.12 22.8 27.34 24 12.69 1 23.86-2.09 33.31-10.83 2.78-2.57 4.17-2.32 6.58.67 1.54 1.91 3.13 3.78 4.61 5.73 2 2.62 1.82 4.35-.62 6.66-11.3 10.71-25 15.12-40.3 15a74.41 74.41 0 0 1-20.55-2.79c-17.8-5.22-27.46-17.46-30.46-35.38a75.55 75.55 0 0 1-1-13.69c.17-14.6-.61-29.23.4-43.81.82-11.9 4.51-22.76 13.68-31.08 5.93-5.38 13-8.36 20.84-9.82a72.35 72.35 0 0 1 30.17.47c17.82 4.24 27.9 15.9 31.35 33.57 2.18 11.19 1.09 22.54 1.19 33.82 0 3.08-2.53 5.52-5.65 6a25 25 0 0 1-4.15.28q-15.83.08-31.69.06zm-6.62-16.35h24c3.79 0 5.12-1.4 5.16-5.22a82.4 82.4 0 0 0-.71-12.75c-1.92-13-8.6-20.81-20.24-23.34a40.43 40.43 0 0 0-10.18-.83c-14.65.56-23 7.59-26.22 21.87a64.5 64.5 0 0 0-1.21 14.93c.05 4 1.35 5.33 5.37 5.34 8.02.02 16.03 0 24.03 0zM174.72 114.3c-10.9 0-21.8.13-32.7-.08-2.95-.05-3.52.86-3.44 3.58.18 5.85-.08 11.73 1.08 17.52 3 15.07 12 22.8 27.27 24.09 12.7 1.07 23.86-2.07 33.34-10.78 2.82-2.59 4.15-2.38 6.59.6q2.13 2.6 4.2 5.25c2.59 3.33 2.48 4.81-.59 7.62-11.28 10.32-24.76 14.7-39.85 14.58a75.71 75.71 0 0 1-19-2.39c-18.69-5-29.85-17.84-32.22-37-1.46-11.91-.58-23.86-.69-35.8-.07-7.87-.43-15.76.57-23.64 2.93-22.95 17.42-36.91 40.54-38.72a76.92 76.92 0 0 1 22.6 1.14c18 3.9 28.66 15.1 32.42 32.9 2.42 11.48 1.47 23.15 1.35 34.75 0 3.35-2.48 5.63-5.91 6.1a42.42 42.42 0 0 1-5.75.26c-9.94.04-19.88.02-29.81.02zm-6.82-16.35h24.34c3.62 0 5-1.41 5.09-5a67.91 67.91 0 0 0-1-14.31c-2-10.31-6.88-18.3-17.61-21.41a38.75 38.75 0 0 0-13-1.38c-14.72.82-22.85 7.88-25.85 22.29a64.64 64.64 0 0 0-1.23 14.28c.06 4.15 1.41 5.53 5.56 5.54q11.85.01 23.7-.01zm627.71 16.35c-10.9 0-21.8.12-32.69-.07-2.94-.05-3.56.87-3.47 3.6.17 5.75 0 11.5 1.09 17.2 2.86 15.29 12.11 23.29 27.65 24.39 12.72.93 23.85-2.27 33.24-11.08 2.36-2.21 3.86-2 5.93.37 1.73 2 3.33 4.17 5 6.23 2 2.41 1.77 4.53-.54 6.69a53.28 53.28 0 0 1-27.92 13.94 70.38 70.38 0 0 1-36.89-3.09c-16.72-6.19-25.13-19.16-26.69-36.2a341.52 341.52 0 0 1-.09-57.83c1.82-23 17.6-37.87 40.79-39.39a80.25 80.25 0 0 1 22 1.12c18 3.8 28.72 14.85 32.69 32.66 1.35 6.08 1.47 12.25 1.42 18.44-.21 25.11 3.25 23-23.24 23zm-6.9-16.35h24.34c3.7 0 5.17-1.52 5.25-5.24a72.4 72.4 0 0 0-1.2-14.62c-2.24-12-9-19.31-20.22-21.53a43 43 0 0 0-9.55-.76c-14.46.42-23.33 7.49-26.42 21.29a63.82 63.82 0 0 0-1.41 14.92c.07 4.59 1.34 5.94 5.83 5.94q11.7.02 23.38 0zM670.19 72.83V5.32c0-4.41.78-5.2 5.18-5.22h9.29c4.53 0 5.5.94 5.51 5.39 0 10 .08 20.05-.05 30.07 0 2.42.5 3.25 3.11 3.22 11-.16 22-.08 33-.06 5 0 5.72.71 5.73 5.69v7c0 3.49-.85 4.33-4.4 4.34-11.43 0-22.87.1-34.29-.05-2.56 0-3.16.69-3.15 3.18.09 25.17.06 50.34.06 75.51 0 20.89 16.26 31.21 35.45 22.47.77-.36 1.5-.83 2.3-1.11 2.12-.75 3.75-.37 4.55 2 .92 2.72 1.85 5.45 2.94 8.1 1.21 2.94.4 4.86-2.44 6.21-9.37 4.47-19.26 5.16-29.39 4.18-8.59-.84-16.55-3.31-22.84-9.55-8-8-10.46-18.12-10.52-28.95-.16-21.61-.04-43.26-.04-64.91zm186.05 51.59c0-13.76-.06-27.51 0-41.26a57.63 57.63 0 0 1 3.85-20.93c4.11-10.45 11.38-17.8 22.24-20.87 15.42-4.36 30.57-3.76 44.92 4.13 4.84 2.66 5.05 3.85 2.3 8.53l-2.75 4.68c-2.41 4.11-3.25 4.36-7.31 2.06a35.25 35.25 0 0 0-17.3-4.94c-14.66-.13-23.64 7.81-25.39 22.36a76.46 76.46 0 0 0-.57 9.57v79c0 5.93-.29 6.22-6.09 6.22h-9.3c-3.9 0-4.59-.73-4.59-4.73q-.06-21.92-.01-43.82zm-620.76-.19c0-14.08-.11-28.16 0-42.24a54.29 54.29 0 0 1 4.38-21.14c4.19-9.65 11.17-16.43 21.28-19.37 15.53-4.53 30.78-3.9 45.27 4 4.81 2.61 5.06 3.88 2.34 8.55-.91 1.57-1.81 3.14-2.74 4.69-2.42 4.07-3.28 4.35-7.33 2.06a35.45 35.45 0 0 0-17.35-4.93c-14.58-.12-23.46 7.65-25.35 22.09a82.33 82.33 0 0 0-.67 10.52v78.42c0 5.69-.44 6.12-6.25 6.12h-9.29c-3.75 0-4.44-.72-4.44-4.56v-44.17zm111.71-16.31v58.85c0 6-.17 6.2-6.37 6.2h-8.63c-4.19 0-5-.8-5-5.1V47.63c0-4.49.89-5.35 5.46-5.37h9.61c4 0 4.91 1 4.91 4.9q.02 30.39.02 60.76z" class="cls-1"/><path d="M350.26 12.92c.07 7.5-5.57 13.07-13.19 13a12.6 12.6 0 0 1-13-12.94c0-7.51 5.46-13 12.89-13 7.81-.02 13.23 5.27 13.3 12.94z" class="cls-2"/></svg>