<svg xmlns="http://www.w3.org/2000/svg" role="img" viewBox="-4.69 -7.19 815.88 264.38"><defs><style>.cls-1{fill:#595959}.cls-2{fill:#8ec341}</style></defs><path d="M302.905 169.562h8.375l13.326 17.12v-17.12h8.884v32.39h-7.82l-13.88-17.768v17.768h-8.885zm66.395 0h26.05v7.589h-17.165v4.95h15.547v7.08h-15.547v5.136h17.396v7.635h-26.28zm68.892 7.866h-9.673v-7.866h28.364v7.866h-9.715v24.524h-8.976zm50.526-7.866h9.484l5.645 18.74 6.246-18.832h7.729l6.246 18.832 5.645-18.74h9.301l-10.827 32.621h-7.821l-6.477-18.647-6.526 18.647h-7.818zm81.013 16.287v-.092c0-9.3 7.498-16.843 17.491-16.843 9.996 0 17.399 7.45 17.399 16.75v.093c0 9.3-7.497 16.842-17.49 16.842-9.996 0-17.4-7.449-17.4-16.75zm25.68 0v-.092c0-4.719-3.33-8.745-8.28-8.745s-8.238 3.98-8.238 8.653v.092c0 4.674 3.378 8.746 8.329 8.746 4.905 0 8.19-3.98 8.19-8.654zm43.909-16.287h15.315c4.951 0 8.375 1.296 10.548 3.471a10.11 10.11 0 0 1 2.87 7.542v.092a10.264 10.264 0 0 1-6.663 9.995l7.726 11.29H658.8l-6.526-9.809h-3.979v9.809h-8.975zm14.944 15.547c3.007 0 4.813-1.481 4.813-3.84v-.092c0-2.591-1.898-3.888-4.859-3.888h-5.923v7.82zm48.395-15.547h8.975v13.141l11.197-13.141h10.596l-12.26 13.882 12.677 18.508h-10.736l-8.19-12.03-3.284 3.609v8.42h-8.975zm60.936 27.578l4.996-5.969a16.78 16.78 0 0 0 10.502 3.886c2.453 0 3.75-.833 3.75-2.22v-.094c0-1.387-1.066-2.08-5.508-3.145-6.894-1.574-12.214-3.517-12.214-10.133v-.093c0-6.016 4.765-10.365 12.54-10.365 5.505 0 9.807 1.48 13.326 4.304l-4.49 6.338a15.901 15.901 0 0 0-9.068-3.193c-2.175 0-3.238.88-3.238 2.083v.092c0 1.481 1.109 2.129 5.645 3.147 7.403 1.62 12.028 4.025 12.028 10.086v.093c0 6.617-5.228 10.55-13.094 10.55a22.706 22.706 0 0 1-15.175-5.367z" class="cls-1"/><path d="M370.738 85.162c0 19.406-12.298 30.613-33.755 30.613h-17.63v29.93h-16.4V54.549h34.03c21.457 0 33.755 11.206 33.755 30.613zm-16.262 0c0-9.294-3.279-15.443-18.724-15.443h-16.4v31.16h16.4c15.445 0 18.724-6.288 18.724-15.717zm33.631 60.543V51.543h16.399v94.162zM487.74 77.51v37.308c0 20.09-11.478 31.98-30.885 31.98-19.271 0-30.75-11.89-30.75-31.98V77.51h16.537v39.496c0 10.933 4.098 15.444 14.213 15.444 10.25 0 14.35-4.511 14.35-15.444V77.509zm52.625-1.095V90.63a67.927 67.927 0 0 0-17.63 2.323v52.753h-16.4V83.658a92.128 92.128 0 0 1 34.03-7.243zm15.59-8.199V53.183h16.809v15.033zm.272 77.489V77.509h16.4v68.196zm97.312-34.851c0 32.39-21.457 35.943-30.613 35.943-21.185 0-28.7-11.89-28.7-22.959V51.406h16.399v26.103a60.984 60.984 0 0 1 11.207-1.094c20.363 0 31.707 12.163 31.707 34.44zm-16.537-.819c0-16.127-6.286-20.636-15.717-20.636a46.518 46.518 0 0 0-10.66 1.093v34.85c0 5.74 5.058 7.379 12.3 7.379 10.523 0 14.077-7.106 14.077-22.686zm94.715-32.525v37.308c0 20.09-11.479 31.98-30.885 31.98-19.27 0-30.75-11.89-30.75-31.98V77.51h16.537v39.496c0 10.933 4.099 15.444 14.213 15.444 10.25 0 14.349-4.511 14.349-15.444V77.509zm64.243 49.335c0 11.343-9.84 19.952-25.42 19.952a43.146 43.146 0 0 1-21.594-5.602v-14.623a34.695 34.695 0 0 0 19.271 6.013c10.522 0 11.342-2.87 11.342-6.56 0-11.207-32.526-4.647-32.526-28.29 0-14.349 11.753-21.32 25.283-21.32a36.848 36.848 0 0 1 18.587 4.92v12.437a36.772 36.772 0 0 0-15.718-3.28c-6.833 0-11.753 1.367-11.753 5.74 0 10.523 32.528 2.733 32.528 30.613z" class="cls-2"/><path d="M114.522 163.68v28.536h15.457v-27.281c0-15.736 6.267-19.079 15.736-19.079 9.607 0 16.013 3.343 16.013 19.079v27.279h15.179V163.68c0-21.862-11.42-34.394-31.192-34.394-19.775 0-31.193 12.532-31.193 34.394z" class="cls-1"/><path d="M144.637 56.724h-31.095V72.18h29.842c15.735 0 19.079 6.267 19.079 15.737 0 9.609-3.344 16.013-19.079 16.013h-29.842v15.178h31.095c21.864 0 34.396-11.418 34.396-31.191 0-19.775-12.532-31.193-34.396-31.193zm-57.367 0h15.524v135.492H87.27z" class="cls-2"/><path d="M235.808 81.638a24.237 24.237 0 0 0-26.953-40.193A116.428 116.428 0 0 0 23.847 177.413a24.23 24.23 0 0 0 29.94 37.51A116.34 116.34 0 0 0 235.809 81.637zm-9.014-32.61a14.457 14.457 0 1 1-18.96 7.65 14.474 14.474 0 0 1 18.96-7.65zM35.83 207.35a14.458 14.458 0 1 1 18.96-7.652 14.474 14.474 0 0 1-18.96 7.652zm50.478 15.611a105.768 105.768 0 0 1-24.948-14.997 24.255 24.255 0 0 0-28.997-36.396 106.192 106.192 0 0 1 168.94-123.205 24.227 24.227 0 0 0 25.303 37.58A106.223 106.223 0 0 1 86.307 222.961z" class="cls-2"/></svg>