<svg xmlns="http://www.w3.org/2000/svg" role="img" viewBox="-27.80 -27.80 1445.60 609.60"><path fill="#10cfc9" d="M668.9 257.1H453.5l-19.2-35.9H601l-39.9-74.8h-167l-19.2-35.9h167.2l-40.9-74h-166L316 .8 531.4.6zM807.8 0L695.1 211.8 583.4 0h224.4zm-86.1 257.1h215.5l19.2-35.9H789.7l39.9-74.8h166.8l19.2-35.9H848.5l40.7-74h166.1L1074.5.8 859.1.5z"/><path fill="#9164cc" d="M0 395.2a10.397 10.397 0 0 0 .5 2.9 8.647 8.647 0 0 0 1.7 3.1 11.629 11.629 0 0 0 2.9 2.5 8.433 8.433 0 0 0 4.4 1h45.9v-17.8H19v-28.8h33.6v-17.8H19v-22.7h36.5v-17.8H0zm135-95.4l-56.2.7v104.2h15.6l1.5-4.6 22.2 6.8a13.903 13.903 0 0 0 2.7.3c2.8 0 5-.4 6.3-1.3l12.8-7.8a8.371 8.371 0 0 0 3-3.2 10.071 10.071 0 0 0 1.1-4.6v-82.1a8.849 8.849 0 0 0-2.3-5.7 8.451 8.451 0 0 0-6.7-2.7zm-10 87.3l-5.7 3.5-21.5-5.3v-68.6H125zm73.3-30.2H213v23.4l-15.5 8.7-9.9-6.5v-65.8H213v13h17.1l1.5-29.9h-53.3a7.57 7.57 0 0 0-4.4.9 8.918 8.918 0 0 0-2.9 2.5 9.873 9.873 0 0 0-1.7 3.2 11.728 11.728 0 0 0-.5 3v76.1a10.071 10.071 0 0 0 1.1 4.6 7.168 7.168 0 0 0 3 3.2l20 13.1a8.198 8.198 0 0 0 4.4 1 9.961 9.961 0 0 0 4.3-1l25.8-14.7c2.8-1.6 4.4-4.3 4.7-8.1v-43.3h-33.7v16.6zm60.9 44.3a11.628 11.628 0 0 0 2.9 2.5 8.433 8.433 0 0 0 4.4 1h45.9v-17.8H276v-28.8h33.6v-17.8H276v-22.7h36.5v-17.8H257v95.4a10.397 10.397 0 0 0 .5 2.9 10.517 10.517 0 0 0 1.7 3.1zm135.3 5l24.7-14a15.427 15.427 0 0 0 4-3.4 7.16 7.16 0 0 0 1.8-5.3v-83.8h-19v80.4l-15.5 8.8-9.9-6.5v-82.7h-19v85.5a10.071 10.071 0 0 0 1.1 4.6 7.168 7.168 0 0 0 3 3.2l20 13.1c1 .7 2.5 1 4.7 1a8.059 8.059 0 0 0 4.1-.9zm56.2-106.4h19v104.9h-19zm103.5 3.5a11.628 11.628 0 0 0-2.9-2.5 8.433 8.433 0 0 0-4.4-1l-51.2.7v104.2h19v-38.6l7.7-1.7 15.1 18.1.7 22.2h17.5l-.7-25.8a14.341 14.341 0 0 0-4-9.4l-9.3-9.8 5.2-1.2c3.3-.8 5.8-2.2 7.3-4.3s2.3-3.9 2.3-5.6v-39.3a10.397 10.397 0 0 0-.5-2.9 13.885 13.885 0 0 0-1.8-3.1zm-16.8 41.4l-22.8 5.4v-33.4h22.8zm38-27.4h21.5v87.4h18.9v-87.4h21.5v-17.5h-61.9v17.5zm125.2 60.3l-20.3 11.2-5.4-3.5v-85.5h-19v88.5a10.072 10.072 0 0 0 1.1 4.6 7.168 7.168 0 0 0 3 3.2l15.6 10.2a8.425 8.425 0 0 0 4.7 1 9.395 9.395 0 0 0 4-1L702 395h1.2l.4 9.7h16V299.8h-19v77.8zm105-66.3l-20-13.1a8.198 8.198 0 0 0-4.4-1 9.961 9.961 0 0 0-4.3 1l-26.3 14a15.426 15.426 0 0 0-4 3.4 7.16 7.16 0 0 0-1.8 5.3v83.9h19v-37.2h26.9v37.2h19v-85.7a10.072 10.072 0 0 0-1.1-4.6 7.756 7.756 0 0 0-3-3.2zM790.7 350h-26.9v-24.9l17.1-8.8 9.9 6.5V350zm63.6-50.2h-19v95.4a11.729 11.729 0 0 0 .5 3 9.043 9.043 0 0 0 1.7 3.2 11.628 11.628 0 0 0 2.9 2.5 7.57 7.57 0 0 0 4.4.9h43v-17.7h-33.6v-87.3zm52.4 0h19v104.9h-19zm100.4 11.2v-11.2h-58.5v17.5h36.1l-37.2 75.9v11.5h61.2v-17.8h-38.9l37.3-75.9zm82 .3l-20-13.1a8.198 8.198 0 0 0-4.4-1 9.961 9.961 0 0 0-4.3 1l-26.3 14a15.428 15.428 0 0 0-4 3.4 7.16 7.16 0 0 0-1.8 5.3v83.9h19v-37.2h26.9v37.2h19v-85.7a10.072 10.072 0 0 0-1.1-4.6 8.452 8.452 0 0 0-3-3.2zm-14.9 38.7h-26.9v-24.9l17.1-8.8 9.9 6.5V350zm37.5-32.7h21.5v87.4h19v-87.4h21.5v-17.5h-62v17.5zm80.8-17.5h19v104.9h-19zm107.3 3.5a11.63 11.63 0 0 0-2.9-2.5 8.433 8.433 0 0 0-4.4-1h-45.8a8.433 8.433 0 0 0-4.4 1 8.92 8.92 0 0 0-2.9 2.5 8.645 8.645 0 0 0-1.7 3.1 11.75 11.75 0 0 0-.5 2.9v76a10.072 10.072 0 0 0 1.1 4.6 7.167 7.167 0 0 0 3 3.2l20 13.1a8.198 8.198 0 0 0 4.4 1 9.961 9.961 0 0 0 4.3-1l26.3-14a15.428 15.428 0 0 0 4-3.4 7.16 7.16 0 0 0 1.8-5.3v-74.2a10.395 10.395 0 0 0-.5-2.9 10.886 10.886 0 0 0-1.8-3.1zm-16.7 76.8L1266 389l-9.9-6.5v-65.8h26.9v63.4zm106.9-73.7a8.649 8.649 0 0 0-1.7-3.1 11.63 11.63 0 0 0-2.9-2.5 8.677 8.677 0 0 0-4.4-1h-12.5a17.848 17.848 0 0 0-10.6 3.4l-11.2 7.5h-.6v-10.9h-18.8v104.9h19v-76.2l19.1-11.8h6.2v88h19v-95.4a21.502 21.502 0 0 0-.6-2.9zM472.5 542.3a10.397 10.397 0 0 0 .5 2.9 8.647 8.647 0 0 0 1.7 3.1 11.628 11.628 0 0 0 2.9 2.5 8.433 8.433 0 0 0 4.4 1h46V534h-36.5v-28.8H525v-17.8h-33.6v-22.7H528V447h-55.5zm139.8-91.8a11.628 11.628 0 0 0-2.9-2.5 8.433 8.433 0 0 0-4.4-1h-12.5a17.848 17.848 0 0 0-10.6 3.4l-11.2 7.5h-.6V447h-18.8v104.9h19v-76.2l19.1-11.8h6.2v88h19v-95.4a10.398 10.398 0 0 0-.5-2.9 10.88 10.88 0 0 0-1.8-3.1zm57.4 53.6h14.7v23.4l-15.5 8.7-9.9-6.5v-65.8h25.3v13h17.1L703 447h-53.3a7.57 7.57 0 0 0-4.4.9 8.919 8.919 0 0 0-2.9 2.5 9.874 9.874 0 0 0-1.7 3.2 11.729 11.729 0 0 0-.5 3v76.1a10.072 10.072 0 0 0 1.1 4.6 7.168 7.168 0 0 0 3 3.2l20 13.1a8.198 8.198 0 0 0 4.4 1 9.961 9.961 0 0 0 4.3-1l25.8-14.7c2.8-1.6 4.4-4.3 4.7-8.1v-43.3h-33.7v16.6zm58.7-57.1h19v104.9h-19zm106 3.5a11.628 11.628 0 0 0-2.9-2.5 8.433 8.433 0 0 0-4.4-1h-12.5a17.848 17.848 0 0 0-10.6 3.4l-11.2 7.5h-.6V447h-18.8v104.9h19v-76.2l19.1-11.8h6.2v88h19v-95.4a10.397 10.397 0 0 0-.5-2.9 10.881 10.881 0 0 0-1.8-3.1zm28.1 91.8a10.397 10.397 0 0 0 .5 2.9 8.647 8.647 0 0 0 1.7 3.1 11.628 11.628 0 0 0 2.9 2.5 8.433 8.433 0 0 0 4.4 1h46V534h-36.5v-28.8h33.6v-17.8h-33.6v-22.7H918V447h-55.5z"/></svg>