<svg xmlns="http://www.w3.org/2000/svg" role="img" viewBox="-77.20 -52.20 5314.40 959.40"><title>Project Haystack logo</title><defs><style>.cls-1{fill:#175077}</style></defs><path d="M3160.3 391.714c0 78.602-.555 157.211.441 235.801.215 16.952-5.179 20.668-20.78 19.915a740.577 740.577 0 0 0-76.497.038c-16.572.917-22.384-2.877-21.94-20.92 1.339-54.437-.144-108.94.875-163.39.294-15.726-4.098-20.505-19.588-19.227-17.12 1.413-34.492 1.073-51.67.072-12.247-.714-14.833 4.004-14.73 15.344.515 56.534-.235 113.082.564 169.609.198 14.053-2.85 19.182-17.872 18.507-28.212-1.268-56.533-.82-84.786-.147-11.666.277-17.192-1.59-17.152-15.432q.701-240.977.004-481.956c-.038-13.432 4.686-16.03 16.781-15.704 28.938.783 57.933.915 86.86-.048 13.064-.434 16.24 3.975 16.1 16.44-.613 54.464.413 108.952-.68 163.4-.323 16.06 4.589 20.347 19.737 18.944 14.356-1.33 29.127-1.782 43.365.072 20.275 2.64 23.425-6.322 23.055-24.107-1.073-51.69.188-103.426-.734-155.122-.27-15.165 3.236-20.553 19.292-19.72 27.506 1.428 55.177 1.25 82.703.044 14.349-.63 16.991 4.695 16.909 17.644-.511 79.978-.257 159.961-.257 239.943zm-3133.675.76c.002-77.247.383-154.497-.358-231.736-.13-13.517 3.078-19.737 16.943-21.4 61.807-7.411 123.568-11.629 185.043 1.957 60.411 13.351 102.224 61.316 107.327 123.422 2.959 36.014.635 71.758-14.048 105.467-29.31 67.287-86.032 91.379-154.217 94.186-18.133.747-22.973 4.556-22.442 22.757 1.406 48.238.164 96.548.71 144.82.127 11.318-2.49 15.773-14.74 15.424-29.633-.846-59.335-1.032-88.952.06-13.92.513-15.536-5.36-15.477-17.011.4-79.314.21-158.63.211-237.946zm118.725-92.765v41.38c.001 30.77 6.447 35.124 35.774 24.322 15.134-5.575 25.422-15.899 31.225-30.908 9.354-24.198 9.473-48.473.337-72.657-9.13-24.167-27.76-34.995-53.332-33.11-10.501.774-14.552 4.428-14.178 15.117.652 18.598.181 37.235.174 55.856zm4809.253 119.326c15.32-42.36 31.586-84.412 45.463-127.238 5.078-15.671 12.634-19.568 27.934-19.085 34.84 1.098 69.738.346 108.245.346-26.842 48.153-51.262 93.34-77.196 137.64-7.805 13.332-8.49 24.14-2.475 38.182 27.795 64.87 54.587 130.168 82.942 198.199-42.982 0-83.32-.37-123.644.235-11.468.171-11.39-8.026-13.32-14.663-11.715-40.278-23.075-80.66-35.132-123.043-10.351 12.836-15.983 24.75-15.637 39.873.646 28.25-.382 56.543.45 84.784.357 12.112-5.306 13.122-14.909 12.983-28.948-.42-57.927-.775-86.853.14-12.571.397-16.641-2.964-16.29-15.95.914-33.756.306-67.553.306-101.333 0-129.606.297-259.214-.38-388.817-.085-16.21 4.026-21.312 20.428-20.456 26.813 1.401 53.781 1.113 80.627.072 13.553-.526 17.213 3.558 17.12 17.106-.611 88.928-.323 177.862-.327 266.794v13.699l2.648.532zM3659.602 495.53c8.652-66.193 17.896-132.317 25.576-198.623 2.134-18.43 7.693-25.966 27.635-24.361 26.04 2.095 52.38.894 78.576.342 11.448-.24 13.676 2.365 10.441 14.097-31.054 112.627-60.002 225.855-92.487 338.06-18.425 63.641-48.555 121.475-105.692 160.725-48.327 33.199-51.126 32.49-68.823-21.331-.215-.655-.48-1.293-.693-1.949-5.336-16.36-16.338-33.406-14.469-48.899 2.03-16.81 26.365-16.302 39.13-26.564 12.553-10.092 23.334-21.074 32.14-34.55 7.793-11.925 8.98-23.127 4.66-36.992-33.38-107.13-65.581-214.629-99.345-321.635-5.74-18.189-2.504-21.996 15.768-21.157 29.593 1.358 59.323 1.147 88.936.022 13.883-.527 19.294 4.062 21.385 17.556 9.59 61.89 19.965 123.66 30.133 185.461 1.102 6.696 2.694 13.312 4.059 19.965zM3380.98 612.6c-32.388 36.733-71 47.162-113.983 36.076-55.478-14.31-86.591-76.7-72.719-141.7 12.842-60.175 55.573-89.139 110.824-103.807 16.51-4.383 33.818-6.483 50.9-7.747 12.196-.902 11.983-7.047 8.772-14.9-7.782-19.04-24.404-25.464-42.986-26.857-26.054-1.954-50.615 5.23-73.413 17.106-10.633 5.54-13.922 3.753-16.402-7.385-4.034-18.117-9.239-35.985-14.327-53.85-2.418-8.49-1.18-14.116 7.86-17.944 53.173-22.522 108.044-33.193 165.165-20.348 62.054 13.954 94.457 60.596 95.685 136.201.985 60.63.696 121.282.971 181.924.013 2.757-.198 5.534.06 8.267 1.518 16.088 10.8 38.094.997 46.638-9.539 8.313-31.424 2.51-47.89 2.801-7.58.134-15.163.023-22.745.023-31.025 0-31.025 0-36.768-34.498zm-11.133-105.903h.733c0-8.962.098-17.925-.04-26.885-.074-4.817.006-9.055-7.213-9.791-36.944-3.77-70.009 37.032-57.244 71.742 5.292 14.388 14.716 25.601 32.024 23.836 17.74-1.81 29.237-11.916 31.527-30.003 1.202-9.49.213-19.257.213-28.899zm1083.448 105.855c-32.9 36.853-71.445 47.305-114.512 35.978-54.759-14.4-85.611-75.457-72.699-139.952 12.084-60.354 54.504-89.837 109.574-105.146 16.445-4.572 33.798-6.868 50.873-7.88 14.812-.88 13.9-7.958 9.411-17.284-8.458-17.58-24.597-23.447-42.395-24.632-25.308-1.685-49.428 4.632-71.433 16.589-12.862 6.988-16.261 2.861-18.705-9.214-2.862-14.144-5.405-28.712-11-41.857-8.223-19.325-.093-26.283 17.027-32.639 39.274-14.58 79.402-21.935 121.227-20.269 79.763 3.177 125.95 52.878 127.802 139.553 1.295 60.62.54 121.282 1.185 181.92a276.657 276.657 0 0 0 3.712 45.2c2.323 13.099-2.853 14.706-13.9 14.386-23.414-.68-46.972-1.596-70.259.251-17.294 1.372-23.447-5.383-23.805-21.092-.077-3.357-.978-6.696-2.103-13.912zm-11.275-105.815h.737c0-8.963.111-17.928-.045-26.888-.083-4.76.144-9.073-7.138-9.833-36.877-3.849-70.045 36.982-57.332 71.695 5.272 14.398 14.687 25.628 31.993 23.894 17.746-1.778 29.26-11.878 31.57-29.966 1.213-9.489.215-19.259.215-28.902zM571.427 462.906c-.594-34.773 4.14-68.684 17.181-101.105 25.531-63.472 80.218-98.938 146.832-95.494 60.8 3.143 107.454 41.576 126.592 106.781 19.374 66.008 18.674 132.143-8.789 195.812-25.218 58.464-75.009 85.936-143.231 83.073-57.626-2.419-102.154-36.366-123.338-93.798-11.352-30.778-15.385-62.674-15.247-95.269zm116.787-4.29c1.028 29.104.996 57.402 12.269 83.993 4.54 10.711 11.97 20.06 23.769 20.43 12.801.402 18.758-10.494 21.83-21.441 15.206-54.192 15.527-108.535-.148-162.692-3.116-10.764-8.451-21.494-21.563-21.946-13.976-.482-19.935 10.307-24.473 21.532-10.536 26.059-10.655 53.66-11.684 80.124zm571.273 50.644c-24.117 0-48.262.722-72.34-.238-17.858-.711-18.276 6.506-11.444 19.449 10.691 20.254 28.787 28.83 50.203 31.526a184.678 184.678 0 0 0 77.62-6.522c13.537-4.145 17.891-1.118 19.378 12.93 2.018 19.074 6.433 37.916 10.27 56.767 1.711 8.404-1.078 13.107-9.256 15.108-50.56 12.368-101.48 19.387-153.07 7.207-54.406-12.846-89.805-47.31-104.804-100.42-17.738-62.806-15.187-125.578 11.312-185.846 30.588-69.568 97.543-104.146 169.745-89.37 52.02 10.646 87.696 50.908 98.796 111.298 6.903 37.55 5.57 75.364 4.423 113.238-.356 11.77-5.142 15.346-16.42 15.065-24.791-.619-49.607-.192-74.413-.192zm-52.68-82.4c43.45 0 43.83-.092 34.447-39.075-3.912-16.252-9.362-33.365-29.974-34.682-20.562-1.314-28.344 14.847-34.178 30.51-14.109 37.884-10.106 43.247 29.705 43.247zm582.448-255.181c0 29.298 1.19 55.505-.42 81.539-1.07 17.304 5.463 21.456 21.057 20.078 12.996-1.149 26.2.269 39.264-.39 10.374-.522 14.867 2.474 14.384 13.767-.826 19.266-.535 38.6-.095 57.892.202 8.861-2.881 12.29-11.912 12.014-16.53-.504-33.102.324-49.623-.299-10.018-.377-12.915 3.375-12.829 13.138.414 46.873-.478 93.763.424 140.622.61 31.709 15.413 44.813 47.327 42.095 14.263-1.215 17.995 2.94 17.391 16.5-.95 21.327-.481 42.732-.14 64.096.13 8.088-1.99 13.107-10.85 14.205-30.788 3.817-61.392 7.27-92.453 1.053-40.29-8.064-64.133-32.32-73.946-71.349-7.292-29.006-6.764-58.684-6.758-88.289.008-37.914-.638-75.845.326-113.734.362-14.256-3.38-20.981-18.117-18.132-21.625 4.181-28.595-5.319-25.403-25.791 1.05-6.73.104-13.762.18-20.655.122-11.014-3.319-24.107 1.459-32.502 5.652-9.93 20.015-3.604 30.52-4.256 7.84-.488 11.554-3.062 11.033-11.007a42.918 42.918 0 0 1 .024-6.201c1.518-19.024-8.19-43.156 4.105-55.721 10.96-11.2 34.404-10.28 52.39-14.481 20.027-4.677 40.113-9.098 62.662-14.192zm2277.683 282.79c0-32.229-.56-57.753.248-83.233.376-11.873-3.61-15.063-15.213-15.091-28.054-.068-28.053-.689-28.053-28.805v-20.681c0-30.617-.03-31.015 31.241-33.362 8.931-.671 12.18-3.614 11.882-12.338-.423-12.393 1.225-24.988-.397-37.18-2.558-19.226 3.913-28.296 23.738-31.379 25.734-4 51.12-10.564 76.395-17.045 14.237-3.651 21.082-2.674 19.759 15.122-1.683 22.623.026 45.479-.606 68.21-.292 10.507 2.828 14.38 13.843 14.673 19.655.524 48.9-9.245 56.657 3.932 10.015 17.015 2.932 43.906 3.907 66.514.44 10.179-3.64 13.174-13.248 12.783-14.453-.586-28.987.519-43.411-.351-12.601-.76-18.267 1.885-17.922 16.568 1.036 44.094.111 88.23.45 132.346.276 35.997 13.652 49.012 48.823 47.007 11.036-.629 16.58.712 16.055 13.65-.893 22.023-.553 44.115-.096 66.165.188 9.115-2.394 13.948-12.183 15.154-30.82 3.796-61.443 7.081-92.442.61-39.344-8.212-62.95-32.227-72.457-70.37-10.635-42.672-5.82-86.344-6.97-122.9z" class="cls-1"/><path d="M1023.332 473.372c0 59.287 1.65 118.632-.471 177.843-2.054 57.323-20.202 107.15-79.272 130.88-26.494 10.644-54.31 14.514-82.718 15.487-8.646.295-12.337-2.199-12.944-11.187-1.575-23.355-3.467-46.715-6.251-69.95-1.084-9.042 2.168-11.5 10.167-13.742 43.201-12.111 49.72-18.722 52.072-64.012 4.865-93.66.994-187.446 1.983-281.173q.37-35.161-.052-70.329c-.1-8.46.357-14.49 11.683-14.292 31.708.555 63.441.636 95.145-.035 13.625-.288 11.543 8.313 11.545 16.41q.025 92.05.01 184.1zm2856.032 177.996a218.332 218.332 0 0 1-76.771-13.394c-10.092-3.664-15.624-8.431-11.724-21.415 6.119-20.37 10.098-41.444 13.928-62.413 1.832-10.026 5.331-10.653 13.476-6.345a137.156 137.156 0 0 0 59.277 15.689c13.281.514 27.097-1.79 32.713-16.368 5.976-15.511-4.587-24.643-15.844-32.08-12.598-8.322-26.005-15.41-38.73-23.55-52.267-33.433-71.35-78.222-57.245-133.691 13.422-52.783 55.666-86.738 114.21-91.224 27.783-2.128 54.713 2.305 81.112 11.369 9.302 3.194 13.547 6.295 10.763 17.272-5.398 21.288-9.332 42.957-13.511 64.537-1.578 8.144-4.681 10.252-12.457 6.167a94.278 94.278 0 0 0-43.778-10.427c-12.72-.052-25.22 3.198-30.069 17.102-4.809 13.792 4.097 22.26 14.21 28.889 15.505 10.162 32.1 18.723 47.225 29.39 59.067 41.661 71.488 119.602 28.56 175.872-21.013 27.545-65.152 44.6-115.345 44.62zM1374.307 466.56c-.624-28.558 3.425-56.43 12.981-83.302 33.08-93.014 119.754-126.997 207.595-111.538 15.33 2.698 18.797 10.25 15.282 24.049-1.858 7.296-2.363 14.931-3.583 22.396-2.442 14.94-1.017 32.353-8.464 44.152-8.736 13.841-26.175.608-39.967 2.208-28.439 3.3-49.158 19.453-59.727 52.015-10.823 33.346-9.406 66.498 4.527 98.693 13.461 31.104 43.046 46.474 75.802 37.043 17.153-4.938 19.46.939 19.873 15.436.547 19.24 1.714 38.612 4.755 57.584 2.406 15.007-4.794 18.909-16.988 21.554-119.725 25.976-206.461-41.197-211.192-163.782-.213-5.506-.592-11.005-.894-16.508zm3383.358 184.757c-97.121-.455-160.333-61.923-165.891-158.53-2.44-42.411-.091-84.11 17.491-123.587 38.892-87.326 128.278-113.303 206.683-96.053 11.056 2.432 13.104 7.474 11.425 17.077-1.896 10.84-3.147 21.79-4.906 32.655-2.309 14.263-.636 31.797-8.487 41.778-7.462 9.487-24.677-.92-37.816.04-25.843 1.886-44.685 14.297-55.35 37.13-17.87 38.258-17.445 77.53-.282 115.878 13.265 29.64 42.986 43.217 75.406 34.568 14.401-3.842 18.88-.764 19.207 13.998a537.941 537.941 0 0 0 4.847 61.727c1.684 12.167-3.888 16.052-13.7 17.866-16.924 3.13-33.786 6.955-48.627 5.453zM468.984 324.588c12.711-19.728 21.019-37.666 39.086-47.034 6.664-3.456 13.429-7.13 20.586-9.154 31.498-8.903 39.397-2.951 39.396 28.752q0 38.285-.023 76.57c-.013 6.109 1.043 11.329-9.2 11.387-53.863.304-76.568 23.722-76.838 78.4-.272 55.183-.55 110.377.272 165.55.214 14.385-3.602 19.004-18.261 18.378-27.543-1.177-55.212-1.23-82.748.015-15.049.68-18.072-4.661-17.929-18.634.692-67.595.625-135.203.202-202.803-.284-45.476-.912-90.976-2.866-136.401-.63-14.633 4.47-17.27 17.304-16.792 22.732.847 45.552.973 68.27-.043 13.384-.599 18.74 3.557 18.54 17.245-.15 10.205 2.371 20.45 4.209 34.564zM2166.861 54.664c46.906 0 93.819.414 140.715-.272 12.817-.187 21.74 3.888 30.706 12.895q176.654 177.457 354.156 354.067c12.888 12.802 12.795 20.93-.023 33.639q-147.68 146.433-294.137 294.096c-13.133 13.24-21.683 11.463-33.919-.837Q2187.772 570.73 2010.28 394.109c-9.011-8.976-12.93-18.159-12.873-30.906q.63-141.75-.049-283.504c-.114-18.24 4.865-25.949 24.656-25.44 48.254 1.24 96.561.404 144.847.405zm-144.127 172.12c0 42.775.297 85.554-.201 128.324-.13 11.155 2.979 19.442 10.987 27.421q167.89 167.263 335.132 335.174c9.595 9.642 15.355 11.692 26.138.803q133.25-134.572 267.771-267.884c9.405-9.338 10.211-14.868.358-24.667Q2493.406 257.39 2324.76 87.952c-6.34-6.358-12.845-9.136-21.823-9.11-87.62.248-175.243.387-262.861-.099-13.477-.074-17.84 4.085-17.61 17.648.735 43.453.273 86.927.267 130.392zm-1056.75-114.09c35.462.465 57.446 24.984 56.978 63.55-.422 34.82-26.14 60.527-59.782 59.756-35.039-.803-56.84-25.685-56.434-64.41.38-36.417 23.462-59.364 59.238-58.896z" class="cls-1"/><path fill="#d8d89a" d="M2022.737 226.783c.003-43.465.465-86.939-.27-130.392-.23-13.563 4.134-17.722 17.61-17.648 87.618.486 175.24.347 262.86.099 8.979-.026 15.484 2.752 21.824 9.11q168.805 169.276 338.158 338.003c9.853 9.799 9.047 15.329-.358 24.667q-134.387 133.44-267.771 267.884c-10.783 10.89-16.543 8.84-26.138-.803Q2201.48 549.723 2033.52 382.53c-8.008-7.979-11.117-16.266-10.987-27.421.498-42.77.201-85.55.204-128.325zm184.557-36.844c-.18-41.748-31.446-72.81-73.27-72.791-41.849.018-75.167 33.633-74.232 74.892.897 39.611 35.857 73.337 75.354 72.695 40.434-.657 72.325-33.719 72.148-74.796z"/><path d="M2207.294 189.94c.177 41.076-31.714 74.138-72.148 74.795-39.497.642-74.457-33.084-75.354-72.695-.935-41.259 32.383-74.874 74.231-74.892 41.825-.019 73.091 31.043 73.271 72.791zm-24.099 1.023c.224-28.149-21.05-49.671-49.12-49.698-27.476-.026-49.884 22.411-49.649 49.712.225 26.048 22.408 48.52 48.62 49.254 26.836.753 49.933-21.939 50.15-49.268z" class="cls-1"/></svg>