<svg xmlns="http://www.w3.org/2000/svg" role="img" viewBox="-12.37 -11.87 617.24 280.24"><defs><style>.cls-3{fill:#8c3367}.cls-5{fill:#a6a5a5}.cls-6{fill:#8b8b8b}</style></defs><path fill="#69224b" d="M97.111 59.688c-5.834 9.963-11.474 20.048-17.57 29.848-4.033 6.483-4.404 10.451 3.489 15.012 39.164 22.633 77.9 46.002 116.843 69.019 3.032 1.792 5.74 4.53 9.685 4.409a46.57 46.57 0 0 0 15.441 17.687c-2.032 3.586-5.871 5.348-9.096 4.257-15.353-5.195-24.496 6.798-35.67 12.56-13.526 6.972-26.405 15.2-39.563 22.886a11.996 11.996 0 0 1-6.346-6.48c20.03-13.437 41.438-24.527 62.257-36.622 2.488-1.446 6.403-2.208 6.565-5.32.173-3.342-3.927-3.932-6.334-5.36q-53.29-31.628-106.709-63.037c-6.439-3.775-13.261-11.7-19.484-9.649-5.189 1.712-7.722 11.437-11.47 17.588-.848 1.39-1.861 2.68-2.798 4.016-5.621.148-7.29-3.061-6.85-8.062 6.542-4.001 7.571-11.813 11.943-17.326 1.219-1.538.606-3.21-1.013-4.132-10.548-6-20.476-13.19-33.275-18.515l22.38 40.022a6.532 6.532 0 0 0-5.267 3.735c-10.652-10.69-15.204-25.348-24.17-37.134l-9.905-2.05C10.99 79.056 2.914 76.77 0 71.17v-7.909c4.896-3.414 8.855-10.23 15.875-7.309 6.3 2.622 10.398-.088 15.236-2.878 23.14-13.345 46.382-26.515 69.587-39.747l2.055 8.237C92.1 28.178 81.533 34.937 70.772 41.369c-13.134 7.85-26.252 15.76-39.724 22.997-8.525 4.58-4.156 7.61.641 10.448 9.794 5.794 19.997 10.91 29.682 16.871 4.867 2.997 6.948 2.133 9.63-2.737 6.28-11.4 13.265-22.41 19.964-33.579 3.104-.062 4.988 1.612 6.146 4.319z"/><path fill="#460d2e" d="M134.324 228.886a11.996 11.996 0 0 0 6.346 6.48c-11.727 2.448-12.046 14.44-18.1 21.634h-11.862c-6.266-3.994-4.647-13.12-11.526-17.003-20.863-11.774-41.535-23.888-62.255-35.915-2.6-1.51-5.263-3.079-8.257-1.925-16.098 6.207-19.175 5.353-28.67-8.419v-11.861c8.182-7.478 10.574-16.505 10.159-27.681-.83-22.354-.069-44.767.035-67.156l9.904 2.05c-.103 24.945-.235 49.889-.253 74.833 0 2.025-1.17 5.055 2.172 5.629 2.93.503 3.625-2.338 4.727-4.233 4.921-8.455 9.604-17.054 14.706-25.398 2.657-4.346 4.1-8.671 2.82-13.697a6.532 6.532 0 0 1 5.266-3.735l-.035-.05c-.44 5.002 1.229 8.211 6.85 8.063-.335 4.16 1.84 7.516 3.787 10.812 16.807 28.453 33.807 56.794 50.533 85.295 4.138 7.052 9.558 7.962 16.468 5.126 2.383-.978 4.79-1.9 7.185-2.849zm-33.989.43l1.478-1.553-51.919-87.777c-4.216 10.84-9.269 17.636-13.777 24.763-3.135 4.957-.978 26.47 3.493 29.153 20.091 12.055 40.458 23.652 60.725 35.415z"/><path d="M100.698 13.327L112.685 0h11.861c19.426 26.974 51.741 35.156 77.363 53.095 2.972 2.08 5.757 1.614 9.186 1.022 5.979-1.032 10.199 2.44 11.707 8.17 1.471 5.588-1.37 9.65-6.4 11.88-5.358 2.373-10.606.591-12.525-4.359-2.344-6.046-7.137-8.206-11.877-10.956Q166.007 43.77 139.972 28.76c-11.004-6.346-25.154-1.756-31.158 9.829-3.7 7.137-7.789 14.073-11.703 21.099-1.158-2.707-3.042-4.381-6.146-4.319 3.895-9.217 9.155-17.68 14.425-26.137 2.252-3.614 4.288-7.192-2.637-7.668z" class="cls-3"/><path fill="#fdfdfd" d="M10.194 87.04c-.104 22.389-.865 44.802-.035 67.156.415 11.176-1.977 20.203-10.16 27.68V71.17c2.916 5.6 10.99 7.887 10.195 15.87zm582.883 17.737v27.677a3.717 3.717 0 0 0-1.668-.2c-1.152-4.986-5.378-6.351-9.416-7.672-6.23-2.037-12.551-3.805-18.856-5.608-4.483-1.282-7.957-3.435-7.557-8.773.4-5.33 3.637-8.47 8.683-9.25 5.866-.907 12.17-1.62 17.228 1.994 3.893 2.78 7.578 2.23 11.586 1.832z"/><path d="M593.077 104.777c-4.008.398-7.693.948-11.586-1.832-5.059-3.614-11.362-2.9-17.228-1.994-5.046.78-8.282 3.92-8.683 9.25-.4 5.338 3.074 7.49 7.557 8.773 6.305 1.803 12.625 3.57 18.856 5.608 4.038 1.32 8.264 2.686 9.415 7.673-2.435.227-5.113-.175-6.58 2.549-5.648-5.085-12.94-6.175-19.869-8.069-14.706-4.02-19.054-8.608-17.08-18.344 1.79-8.832 12.828-15.309 24.124-14.63 7.74.464 13.895 5.192 21.074 7.062z" class="cls-5"/><path d="M584.828 134.803c1.467-2.723 4.145-2.321 6.58-2.548a3.713 3.713 0 0 1 1.669.199v11.861c-10.893 13.014-28.522 15.698-42.927 6.426-2.001-1.288-5.385-2.29-3.629-5.77 2.24-4.44 4.714-1.107 7.135.099 6.502 3.239 13.161 5.704 20.658 4.128 7.867-1.654 12.433-5.633 10.514-14.394z" class="cls-6"/><path d="M284.693 130.474c-3.11-12.283 2.95-26.387 13.991-32.57a29.407 29.407 0 0 1 35.335 4.698c8.931 8.993 12.758 27.326 4.095 37.77l-8.01-.034a62.851 62.851 0 0 0 3.282-7.157c3.616-11.3-.955-23.953-10.42-29.293-8.74-4.931-18.201-3.182-24.92 4.435-5.706 6.47-5.898 14.345-6.011 22.28z" class="cls-5"/><path d="M490.923 116.959c.31 4.87.64 9.739.924 14.61.693 11.901 4.483 16.777 13.198 16.932 9.961.178 19.866-7.725 20.95-16.984.492-4.197.431-8.459.62-12.691l7.078-.183c2.056 10.486-2.345 21.657 3.449 31.804.773 1.354-.028 3.252-2.012 3.83a6.02 6.02 0 0 1-5.547-1.094c-2.616-1.956-1.5-5.371-2.97-8.869-5.634 5.057-10.846 9.395-17.795 10.977-13.166 2.998-23.141-3.51-24.52-16.933-.67-6.504-.23-13.123-.291-19.69 2.231-.872 4.292-2.43 6.917-1.71zm-222.223 7.56c-3.238 8.55-6.518 17.086-9.69 25.662-1.018 2.753-2.555 4.294-5.727 4.333-3.427.042-5.4-1.213-6.649-4.49-5.01-13.149-10.22-26.222-15.357-39.323l7.248.22 14.117 33.781c5.587-6.966 6.19-15.426 10.508-22.024l5.55 1.84zm163.491 6.169c1.46 5.41-.836 11.191 1.725 16.527 1.285 2.677 2.744 5.972-1.54 7.158-3.155.873-5.828-.72-6.804-4.116a50.132 50.132 0 0 1-.888-5.673c-9.239 8.005-18.761 14.466-31.21 10.067-6.45-2.28-10.018-7.208-10.134-14.284l6.922-.538c7.886 11.112 20.297 11.62 29.205.884 2.45-2.952 3.873-6.756 5.767-10.17l6.957.145z" class="cls-6"/><path d="M354.236 142.447c-.114-21.398-.259-42.795-.308-64.193-.007-3.1-.926-7.228 4.414-6.85 4.638.327 3.42 4.14 3.421 6.805.012 21.4-.117 42.8-.203 64.2l-7.324.038zm96.782-17.818c-.104-5.24-1.247-10.727-.073-15.663 1.816-7.636-7.572-6.656-7.652-10.959-.081-4.333 9.368-3.095 7.819-10.852-.678-3.39-4.168-11.734 3.752-11.454 7.166.252 3.29 7.869 3.505 12.007.285 5.459 1.778 7.793 7.413 7.31 2.3-.198 5.965-1.166 6.179 2.74.217 3.97-3.414 3.478-5.786 3.227-6.257-.66-8.054 2.167-7.643 7.984.321 4.547-.189 9.154-.329 13.734l-7.185 1.926z" class="cls-5"/><path d="M330.103 140.338l8.01.034c-5.91 11.535-17.584 17.537-29.787 15.314-12.7-2.313-21.73-11.946-23.633-25.212l7.342.13c8.614 20.193 21.769 23.557 38.068 9.734zm120.915-15.709l7.185-1.926c.147 3.608.4 7.216.422 10.825.078 13.217.05 13.261 13.127 13.013 1.816-.034 3.236.107 3.992 1.915.957 2.287.013 3.841-2.096 4.699-5.602 2.277-11.303 3.745-17.114.76-5.132-2.635-6.113-7.273-5.892-12.533.234-5.58.26-11.168.376-16.753z" class="cls-6"/><path d="M390.262 139.829l-6.922.538c-3.935-13.82-.968-27.922-1.678-41.875-.12-2.383 1.458-3.384 3.793-3.415 3.074-.041 3.916 1.803 3.924 4.408.026 8.538-.056 17.078.087 25.614.083 4.913.519 9.82.796 14.73zm41.929-9.141l-6.957-.144c-.147-9.861-.34-19.722-.41-29.583-.019-2.542-.437-5.601 3.483-5.845 4.51-.28 4.397 2.97 4.359 5.991-.125 9.86-.312 19.72-.475 29.58z" class="cls-5"/><path d="M224.999 195.663a46.57 46.57 0 0 1-15.441-17.687c5.593-4.342 11.112-3.136 15.367 1.498 4.531 4.936 5.392 10.77.074 16.189z" class="cls-3"/><path d="M268.7 124.519l-5.55-1.841c2.937-7.91 5.895-15.814 8.8-23.736 1.215-3.31 3.647-5.004 6.8-3.525 3.127 1.465.65 4.123-.065 5.896-3.15 7.807-6.627 15.483-9.985 23.206zm222.223-7.56c-2.624-.721-4.685.837-6.916 1.71-2.214-6.335-.63-12.865-.966-19.297-.136-2.604.992-4.291 3.953-4.39 3.254-.108 4.941 1.327 4.825 4.56-.208 5.809.958 11.693-.895 17.417z" class="cls-5"/><path d="M354.236 142.447l7.324-.038c1.906 3.74 4.543 6.235 9.158 5.674 2.337-.285 4.802-.296 4.846 3.002.042 3.193-2.719 3.05-4.815 3.636-10.27 2.872-15.627-1.105-16.513-12.274z" class="cls-6"/><path d="M533.693 118.643l-7.078.183c-.156-6.23-.325-12.461-.464-18.693-.065-2.945.64-5.246 4.322-5.042 3.202.178 3.525 2.428 3.504 4.842-.055 6.237-.185 12.473-.284 18.71zm-295.168-7.723l-7.248-.219c-1.5-3.253-3.084-6.47-4.468-9.771-.815-1.943-2.749-4.433.682-5.64 2.653-.933 5.21-.351 6.354 2.8q2.331 6.419 4.68 12.83z" class="cls-5"/></svg>