<svg xmlns="http://www.w3.org/2000/svg" role="img" viewBox="10.81 15.31 607.88 607.88"><title>Project ACRN logo</title><defs><style>.cls-1{fill:#006469}.cls-3{fill:#007b82}.cls-6{fill:#665440}.cls-7{fill:#998c65}.cls-8{fill:#b9b07c}.cls-9{fill:#423627}</style></defs><path d="M379.33 292.086l-127.98-.008 63.983 100.546 63.93-100.463.067-.075z" class="cls-1"/><path fill="#004b50" d="M379.263 292.161l-63.93 100.463L425.021 319.5l-45.691-27.414-.067.075zm-127.914-.083L205.646 319.5l109.687 73.124-63.983-100.546h-.001z"/><path d="M379.33 292.086l45.691 27.414V182.391l-45.696 109.671.005.024z" class="cls-1"/><path d="M379.3255 292.06222l45.69523-109.6716S396.07542 170.813 352.00681 166.085z" class="cls-3"/><path d="M251.35 292.078h-.001l-18.808-45.14-.351.24.351-.24-26.895-64.547V319.5l45.703-27.422h.001z" class="cls-1"/><path fill="#2a958d" d="M232.541 246.938l18.808 45.14h.001l127.98.008-101.242-76.198-45.547 31.05z"/><path fill="#51a090" d="M379.33014 292.086l-.01254-.00789.0079-.01591-27.31869-125.9772c-.2477-.02716-.49876-.05212-.74866-.07928l-73.17038 49.88239z"/><path d="M278.08777 215.88814l-.75493-.5691.75493.5691 73.17038-49.88239a344.10692 344.10692 0 00-35.92492-1.89637c-63.98437 0-109.6875 18.28124-109.6875 18.28124l26.89481 64.54779z" class="cls-3"/><path d="M266.58323 109.26621l-32.77485 46.34755a346.97785 346.97785 0 0181.52485-9.78564l-48.74942-36.5625zm48.75 36.56191a346.95914 346.95914 0 0181.52323 9.78564l-32.958-46.20931z" class="cls-6"/><path d="M363.8 109.266l-48.527-31.3-48.689 31.3 48.749 36.562 48.565-36.424-.098-.138zm61.22073-45.70234l-61.12229 45.84079 32.958 46.20931.01811.00337 37.28678-46.35092z" class="cls-7"/><path d="M425.021 63.564l9.14 45.702 27.422 18.281V90.984l-36.562-27.42z" class="cls-6"/><path d="M363.8 109.266l.098.138 61.123-45.84-73.125-9.142-36.623 23.544 48.527 31.3z" class="cls-8"/><path d="M396.87457 155.61713a231.96487 231.96487 0 0128.14616 8.49108l36.5625-36.56133-27.42188-18.28067z" class="cls-9"/><path d="M315.273 77.966l-36.502-23.544-73.125 9.142 60.938 45.702 48.689-31.3z" class="cls-8"/><path d="M266.58381 109.26562l-60.93808-45.702-9.14062 45.70255 37.28516 46.35092.01811-.00337 32.77485-46.34755z" class="cls-7"/><path d="M351.896 54.422L342.755 27h-54.844l-9.14 27.422 36.502 23.544 36.623-23.544z" class="cls-6"/><path d="M169.08323 127.54688l36.5625 36.56133a231.943 231.943 0 0128.14454-8.49108l-37.28516-46.35092z" class="cls-9"/><path d="M205.646 63.564l-36.563 27.42v36.563l27.422-18.281 9.141-45.702z" class="cls-6"/><path d="M87.05 481.032L22.5 610.43466h14.42106l16.79751-33.59618c8.01728-12.97527 24.29735-20.99488 39.52661-20.99488 15.80847 0 32.77033 8.57048 40.51787 22.3687l.00685-.00336 16.114 32.22572h14.4199l-64.55-129.4027zm6.19519 61.86933a56.60329 56.60329 0 00-25.6411 6.16733l25.79861-51.5985 25.89449 51.7935a56.6296 56.6296 0 00-26.05201-6.36237zm346.84219-8.08651c0-30.66154-23.12247-53.78286-53.7839-53.78286h-53.7817v129.4027h12.94011V493.971h40.84159a40.84729 40.84729 0 0121.45952 75.6006l-3.02529 1.87258 38.61534 38.99048h18.16669l-36.85036-37.16561c4.49777-5.28205 15.418-20.00642 15.418-38.45423zM594.561 481.032v106.966l-87.073-106.966h-14.833v129.403h12.941V499.113l90.446 111.322H607.5V481.032h-12.939zM283.24192 581.87807a52.9428 52.9428 0 01-39.32546 17.12739c-28.97932 0-52.55575-23.89783-52.55575-53.27273 0-29.37373 23.57643-53.27272 52.55575-53.27272a52.95421 52.95421 0 0139.26986 17.065l1.81083 1.99724 9.84506-8.08994-1.99666-2.20118c-12.9112-14.238-29.47692-21.76455-47.90558-21.76455A66.26669 66.26669 0 00244.94 612c18.46836 0 35.05833-7.5537 47.97581-21.84615l1.99387-2.2035-9.86038-8.07172z" class="cls-1"/></svg>