<svg xmlns="http://www.w3.org/2000/svg" role="img" viewBox="-5.48 -5.48 234.70 284.70"><title>Project ACRN logo</title><g fill-rule="nonzero" fill="none"><path fill="#006469" d="M161.745 196.63h-98.49L112.5 274l49.245-77.313z"/><path fill="#004B50" d="M161.745 196.687L112.5 274l84.445-56.28-35.2-21.09zm-98.49-.057l-35.2 21.09L112.5 274z"/><path fill="#006469" d="M161.745 196.63l35.2 21.09V112.211z"/><path fill="#007B82" d="M161.745 196.63l35.2-84.42s-22.291-8.925-56.183-12.563l20.983 96.983z"/><path fill="#006469" d="M63.255 196.63l-14.501-34.734-.284.17.284-.17-20.699-49.685V217.72z"/><path fill="#2A958D" d="M48.754 161.896l14.501 34.734h98.49L83.84 137.963z"/><path fill="#69BFAD" d="M161.745 196.63l-21.04-96.983c-.17 0-.398-.057-.569-.057l-56.353 38.373 77.962 58.667z"/><path fill="#007B82" d="M83.84 137.963l-.569-.455.569.455 56.353-38.373a260.911 260.911 0 0 0-27.636-1.478c-49.245 0-84.445 14.099-84.445 14.099l20.7 49.685 35.028-23.933z"/><g><path fill="#665440" d="M74.667 62.956L49.552 98.389c14.99-3.673 36.767-7.46 62.448-7.46L74.667 62.956zM112 90.93c25.68 0 47.459 3.842 62.448 7.46L149.22 63.011 112 90.929z"/><path fill="#998265" d="M149.107 62.956l-37.164-23.962-37.276 23.962L112 90.929l37.22-27.86z"/><path fill="#998265" d="M196 27.974l-46.836 35.095 25.228 35.377 28.566-35.49L196 27.974z"/><path fill="#665440" d="M196 27.974l7.014 34.982L224 76.914V48.94z"/><path fill="#D7AF96" d="M149.107 62.956l.113.113L196 27.974l-56-7.008-28.057 18.028z"/><path fill="#423627" d="M174.448 98.39c13.633 3.333 21.552 6.498 21.552 6.498l28-27.974-20.986-13.958-28.566 35.433z"/><path fill="#D7AF96" d="M111.943 38.994L84 20.966l-56 7.008 46.667 34.982z"/><path fill="#998265" d="M74.667 62.956L28 27.974l-7.014 34.982 28.566 35.49 25.115-35.49z"/><path fill="#665440" d="M140 20.966L132.986 0H91.014L84 20.966l27.943 18.028z"/><path fill="#423627" d="M0 76.914l28 27.974s7.92-3.165 21.552-6.499L20.986 62.9 0 76.914z"/><path fill="#665440" d="M28 27.974L0 48.94v27.974l20.986-13.958z"/></g></g></svg>