<svg xmlns="http://www.w3.org/2000/svg" role="img" viewBox="-7.99 90.75 415.74 77.99"><title>Project Haystack (member) logo</title><style>svg {enable-background:new 0 0 400 245}</style><path fill="#194f7a" d="M0 106.2c2.3-.5 5.4-.8 8.5-.8 4.9 0 8.7.7 11.4 3.2 2.5 2.2 3.6 5.7 3.6 9.2 0 4.6-1.4 7.8-3.6 10.1-2.6 2.8-6.8 4-10.2 4H8.1v15.6H0v-41.3zm8.1 19.1c.4.1.9.1 1.4.1 4.1 0 5.9-2.9 5.9-6.9 0-3.7-1.5-6.6-5.3-6.6-.8 0-1.5.1-2 .3v13.1zm17.9.9c0-3-.1-6.3-.2-9.2h7.1l.4 4.5h.2c1.3-3.3 3.8-5 6-5 .8 0 1.3 0 1.7.1v8.1c-.5-.1-1-.1-1.8-.1-1.7 0-4 1.2-4.9 4.3-.2.7-.4 1.8-.4 3v15.5H26v-21.2zm38.7 6c0 12.7-7 15.8-11.6 15.8-7.3 0-11.7-5.7-11.7-15.6 0-10.9 5.7-15.8 11.8-15.8 7.2 0 11.5 6 11.5 15.6zm-15.1 0c0 5.2.8 9.6 3.7 9.6 2.6 0 3.3-5.1 3.3-9.6 0-4.2-.7-9.5-3.5-9.5-2.9.1-3.5 5.3-3.5 9.5zm13 21.3c1.4-.2 3-.5 4-1.7 1.2-1.2 1.4-3.4 1.4-8.1v-26.8h8.2v28.3c0 6.8-1.4 10-4 12-2.2 1.8-6 2.6-8.9 2.6l-.7-6.3zM76.1 109c0 2.6-1.8 4.4-4.3 4.4-2.3 0-4.1-1.8-4.1-4.4 0-2.7 1.9-4.5 4.2-4.5 2.4 0 4.2 1.8 4.2 4.5zM87 135.2c.1 4.8 2.8 6.5 6.5 6.5 2.3 0 4.3-.5 5.8-1l1.1 5.8c-2.1.8-5.3 1.4-8.4 1.4-8.3 0-12.9-5.5-12.9-15 0-10.3 5.3-16.4 12.2-16.4 6.6 0 10.4 5.2 10.4 14.4 0 2.2-.1 3.4-.2 4.2H87zm7.3-5.7c0-3.9-1-7-3.4-7-2.7 0-3.7 3.9-3.8 7h7.2zm27.3 17.5c-.8.4-2.9.9-5.2.9-7.7 0-12.8-5.3-12.8-15.3 0-9.4 5.5-15.9 14-15.9 1.9 0 3.7.4 4.5.8l-1.1 6.4c-.7-.2-1.7-.6-3-.6-3.9 0-6.2 3.7-6.2 9 0 5.5 2.3 8.9 6.1 8.9 1.2 0 2.2-.2 3-.6l.7 6.4zm14.1-38.2v8.2h6v5.8h-6v13.9c0 3.5 1.5 4.4 3.1 4.4.8 0 1.4-.1 2.1-.2l.1 6.4c-1.1.3-2.9.5-5 .5-2.4 0-4.4-.5-5.9-1.9-1.7-1.6-2.6-3.9-2.6-8.7v-14.4h-3.6V117h3.6v-6.3l8.2-1.9zm93.8-3.2v16.8h8.5v-16.8h8.2v42H238V130h-8.5v17.6h-8.2v-42h8.2zm35.1 41.9l-.4-3h-.1c-1.7 2.4-4 3.5-6.7 3.5-4.6 0-8-3.9-8-9.3 0-8 7-11.3 13.9-11.3v-.7c0-2.4-1.4-4.2-4.3-4.2-2.4 0-4.4.7-6.2 1.8l-1.5-5.5c1.7-1 5.2-2.3 9.5-2.3 9.3 0 10.8 6.5 10.8 12.7v11.3c0 2.4.1 4.9.4 7h-7.4zm-1.1-14.8c-2.7 0-6.5 1-6.5 5.2 0 3 1.7 4.1 2.9 4.1 1.3 0 2.8-.8 3.3-2.6.1-.4.2-.9.2-1.4v-5.3zm17.5-15.6l3 15.9c.3 1.8.6 3.4.9 5.1h.1c.2-1.6.5-3.3.7-5l2.5-16h8l-6.2 23.5c-1.5 5.7-3.5 11.6-6.8 15.5-2.6 3-5.7 4.5-6.9 4.8l-2.5-7.1c1.4-.5 2.8-1.4 4-2.5 1.1-1 2-2.3 2.6-3.6.2-.5.4-.9.4-1.3s-.1-.7-.2-1.1l-8.4-28.2h8.8zm16.1 23.1c1.2.7 3.5 1.6 5.5 1.6 2.1 0 3.3-.9 3.3-2.7 0-1.6-.9-2.6-3.6-4.1-5-2.8-6.2-6-6.2-8.8 0-5.5 3.9-9.6 10-9.6 2.5 0 4.5.6 6.2 1.4l-1.4 6c-1.2-.7-2.6-1.2-4.3-1.2-2.1 0-3 1.2-3 2.6 0 1.3.7 2.1 3.6 3.8 4.5 2.5 6.1 5.7 6.1 9.2 0 6.3-4.5 9.6-10.8 9.6-2.5 0-5.5-.7-6.9-1.7l1.5-6.1zm28.5-31.4v8.2h6v5.8h-6v13.9c0 3.5 1.5 4.4 3.1 4.4.8 0 1.4-.1 2.1-.2l.1 6.4c-1.1.3-2.9.5-5 .5-2.4 0-4.4-.5-5.9-1.9-1.7-1.6-2.6-3.9-2.6-8.7v-14.4h-3.6V117h3.6v-6.3l8.2-1.9zm21.9 38.7l-.4-3h-.1c-1.7 2.4-4 3.5-6.7 3.5-4.6 0-8-3.9-8-9.3 0-8 7-11.3 13.9-11.3v-.7c0-2.4-1.4-4.2-4.3-4.2-2.4 0-4.4.7-6.2 1.8l-1.5-5.5c1.7-1 5.2-2.3 9.5-2.3 9.3 0 10.8 6.5 10.8 12.7v11.3c0 2.4.1 4.9.4 7h-7.4zm-1.2-14.8c-2.7 0-6.5 1-6.5 5.2 0 3 1.7 4.1 2.9 4.1 1.3 0 2.8-.8 3.3-2.6.1-.4.2-.9.2-1.4v-5.3zm29.1 14.3c-.8.4-2.9.9-5.2.9-7.7 0-12.8-5.3-12.8-15.3 0-9.4 5.5-15.9 14-15.9 1.9 0 3.7.4 4.5.8l-1.1 6.4c-.7-.2-1.7-.6-3-.6-3.9 0-6.2 3.7-6.2 9 0 5.5 2.3 8.9 6.1 8.9 1.2 0 2.2-.2 3-.6l.7 6.4zm9.8-16.6h.1c.6-1.8 1-3 1.5-4.2l3.9-9.1h8.8l-7.4 12.8 7.8 17.7h-9.1l-4.3-12.5-1.4 2.6v9.9H377v-43.1h8.1v25.9z"/><path id="Tag" fill="#dbdb93" stroke="#565656" stroke-linejoin="round" stroke-miterlimit="10" stroke-width="2.076" d="M180.6 99.8h-25.5v25.5l30.6 30.6 25.5-25.5-30.6-30.6zm-15.3 15.3c-2.8 0-5.1-2.3-5.1-5.1s2.3-5.1 5.1-5.1 5.1 2.3 5.1 5.1-2.3 5.1-5.1 5.1z"/></svg>