<svg xmlns="http://www.w3.org/2000/svg" role="img" viewBox="75.94 -2.06 250.38 249.63"><title>QCT logo</title><style>svg {enable-background:new 0 0 400 245}</style><style>.st2{fill:#005197}</style><path d="M268.84 82.04h-26.41V55.63h26.41v26.41z" class="st2"/><path d="M278.19 82.04h-9.34v18.47h2.33c10.24 0 18.58 7.88 18.58 18.13s-8.33 18.58-18.58 18.58H125.7c-14.44 0-26.2-11.76-26.2-26.2s11.75-26.19 26.33-26.19h.01l10.94.2-1.16-10.56c-.15-1.38-.23-2.67-.23-3.95 0-15.96 10.41-29.51 24.8-34.28v.03c.9-.3 1.8-.56 2.73-.79.02 0 .04-.01.05-.01.82-.2 1.65-.37 2.48-.51l.96-.15c.65-.1 1.31-.19 1.98-.25.87-.08 1.75-.12 2.64-.13.18-.01.36-.03.54-.03 1.36 0 2.69.09 4.01.24.11.02.23.03.34.04 4.15.51 8.13 1.73 11.78 3.57v-.05c7.35 3.66 13.38 9.75 16.86 17.43h37.88V39.61h-25.57c-9.29-13.55-24.37-22.44-41.03-23.74-.08-.01-.15-.02-.23-.02-1.32-.09-2.64-.16-3.98-.16h-.24c-1.53.01-3.05.09-4.56.22-.36.03-.72.05-1.07.09-1.27.14-2.53.34-3.79.56-.58.1-1.16.19-1.73.32-.02 0-.03 0-.05.01-23.7 5.01-41.81 25.33-43.38 50.11-20.51 4.14-36 22.3-36 44.01 0 24.76 20.14 44.89 44.89 44.89h145.48c20.55 0 37.27-16.72 37.27-37.27-.01-16.92-13.06-33.29-30.26-36.59" class="st2"/><path fill="#009ce1" d="M295.23 55.64h-26.4V29.23h26.4v26.41z"/><path fill="#8cd21e" d="M295.24 82.05h26.4V55.64h-26.4v26.41z"/><path fill="#fa0" d="M295.24 29.23h26.4V2.83h-26.4v26.4z"/><path d="M118.38 214.26c0-4.08 3.26-7.44 7.33-7.44 2.14 0 3.56.71 5.18 2.14l7.83 7.02c1.23-2.86 1.93-6.21 1.93-9.77V206c0-12.2-8.94-22.37-21.56-22.37s-21.35 9.96-21.35 22.17v.2c0 12.21 8.94 22.39 21.56 22.39 3.47 0 6.6-.61 9.34-1.93l-7.4-6.31c-1.64-1.43-2.86-3.36-2.86-5.89m-37.03-8.05V206c0-20.25 15.97-36.83 37.96-36.83 21.97 0 37.73 16.38 37.73 36.63v.2c0 7.53-2.33 14.55-6.3 20.45l3.45 3.05c1.63 1.42 2.85 3.36 2.85 5.9 0 4.07-3.25 7.43-7.35 7.43-2.12 0-3.95-.92-5.17-2.14l-4.26-3.97c-6.01 3.87-13.23 6.11-21.17 6.11-21.98.01-37.74-16.37-37.74-36.62m88.9.01V206c0-20.26 15.27-36.86 37.19-36.86 10.68 0 17.9 2.85 23.82 7.23 1.61 1.22 3.05 3.47 3.05 6.21 0 4.28-3.48 7.64-7.75 7.64-2.15 0-3.54-.81-4.68-1.53-4.38-3.26-8.95-5.09-14.56-5.09-12.03 0-20.68 9.97-20.68 22.19v.2c0 12.22 7.97 22.41 20.2 22.41 6.61 0 10.99-2.04 15.48-5.6a7.246 7.246 0 0 1 4.67-1.73c3.98 0 7.34 3.26 7.34 7.23 0 2.44-1.22 4.38-2.64 5.6-6.42 5.6-13.96 8.96-25.37 8.96-20.96.01-36.07-16.18-36.07-36.64m100.02-22.34h-15.36c-4.05 0-7.37-3.32-7.37-7.37 0-4.05 3.32-7.36 7.37-7.36h46.12c4.05 0 7.38 3.32 7.38 7.36 0 4.05-3.33 7.37-7.38 7.37h-14.77v50.96c0 4.46-3.52 8-8 8-4.46 0-7.99-3.54-7.99-8v-50.96zm28.84-27.31c0-.38.27-.65.65-.65h.18c.27 0 .44.12.59.33l3.22 5 3.28-5c.15-.21.33-.33.57-.33h.18c.32 0 .62.3.62.65v8.04c0 .36-.3.66-.65.66-.36 0-.63-.3-.63-.66v-6.19l-2.77 4.14c-.15.24-.33.38-.6.38-.26 0-.44-.15-.59-.38l-2.74-4.14v6.19c0 .36-.29.66-.66.66-.36 0-.65-.3-.65-.66v-8.04zm-6.28.62h-2.47c-.33 0-.63-.29-.63-.62 0-.32.29-.63.63-.63h6.22c.36 0 .63.31.63.63 0 .33-.27.62-.63.62h-2.44v7.42c0 .36-.3.66-.69.66-.35 0-.63-.3-.63-.66v-7.42h.01z" class="st2"/></svg>