<svg xmlns="http://www.w3.org/2000/svg" role="img" viewBox="-6.17 71.58 412.10 101.60"><title>Qualcomm, Inc. (member) logo</title><style>svg {enable-background:new 0 0 400 245}</style><style>.st13{fill:#263c8d}</style><path d="M160.3 128.43c0 1.61 1.88 3.5 3.49 3.5l23.92-.01-5.35-8.62H168.5V90.14h-8.2v38.29zM54.31 165.37H44.16l.06-14.05c-2.02.35-4.04.55-6.16.55-19.95 0-36.11-16.16-36.11-36.11 0-19.94 16.17-36.11 36.11-36.11 19.94 0 36.11 16.17 36.11 36.11 0 14.04-8.15 26.14-19.87 32.11v17.5zm7.15-49.62c0-12.92-10.48-23.39-23.39-23.39-12.92 0-23.39 10.47-23.39 23.39s10.47 23.4 23.39 23.4c2.12 0 4.16-.33 6.11-.86l-.01-14.41 10.15-2.91v11.66c4.41-4.26 7.14-10.25 7.14-16.88zm44.43 16.18h-23.6c-1.61 0-3.52-1.88-3.52-3.49l-.01-38.31h8.2v33.15h14.22V90.14h8.2l.01 38.31c-.01 1.61-1.88 3.48-3.5 3.48zm110.08-40.25c-3.28-1.92-7.12-3.03-11.2-3.03-12.24 0-22.16 9.92-22.16 22.16s9.93 22.16 22.16 22.16c3.83 0 7.48-1 10.62-2.7l-3.99-7.19c-1.98 1.07-4.22 1.69-6.63 1.69-7.7 0-13.95-6.25-13.95-13.95 0-7.7 6.25-13.95 13.95-13.95 2.6 0 5.05.73 7.13 1.98l4.07-7.17zm173.22 35.11l-15.01-34.64c-.9-1.67-2.44-2.44-4.62-2.44s-3.72.77-4.62 2.44l-11.03 25.4-11.03-25.4c-.89-1.67-2.44-2.44-4.61-2.44-2.18 0-3.72.77-4.62 2.44l-11.03 25.46-11.03-25.46c-.9-1.67-2.44-2.44-4.62-2.44s-3.72.77-4.62 2.44l-11.04 25.4-11.03-25.4c-.9-1.67-2.44-2.44-4.62-2.44s-3.72.77-4.62 2.44l-15.01 34.64c-2.07 5.42 5.39 8.21 7.83 3.85l11.81-27.59 11.81 27.59c1.53 2.82 6.28 2.69 7.7 0l11.81-27.59 11.8 27.59c.87 1.55 2.37 2.18 3.85 2.13 1.48.05 2.98-.58 3.85-2.13l11.81-27.59 11.8 27.59c1.42 2.69 6.17 2.82 7.7 0l11.8-27.59 11.81 27.59c2.38 4.37 9.84 1.58 7.78-3.85zm-244.74-4.22H125.5l-4.3 9.14h-8.71l18.28-41.5h8.13l18.28 41.5h-8.7l-4.03-9.14zm-16.21-6.8l13.2-.03-6.61-14.98-6.59 15.01z" class="st13"/><path d="M212.81 110.99c0-12.24 9.91-22.22 22.14-22.22 12.24 0 22.17 9.92 22.17 22.16s-9.92 22.16-22.17 22.16c-12.23 0-22.14-9.86-22.14-22.1zm8.2 0c0 7.7 6.24 13.89 13.94 13.89 7.71 0 13.96-6.25 13.96-13.95 0-7.7-6.25-13.96-13.96-13.96-7.7.01-13.94 6.31-13.94 14.02zm164.57-15.18c0-3.54 2.86-6.14 6.25-6.14 3.36 0 6.22 2.6 6.22 6.14 0 3.57-2.87 6.17-6.22 6.17-3.39 0-6.25-2.6-6.25-6.17zm6.24 5.15c2.79 0 4.98-2.18 4.98-5.14 0-2.91-2.2-5.11-4.98-5.11-2.82 0-5.01 2.2-5.01 5.11 0 2.96 2.2 5.14 5.01 5.14zm-1.29-1.58h-1.08v-7.1h2.7c1.68 0 2.51.62 2.51 2.02 0 1.27-.8 1.82-1.84 1.95l2.02 3.13h-1.21l-1.87-3.08h-1.24v3.08zm1.28-3.99c.91 0 1.73-.06 1.73-1.15 0-.88-.8-1.04-1.55-1.04h-1.46v2.19h1.28z" class="st13"/></svg>