<svg xmlns="http://www.w3.org/2000/svg" role="img" viewBox="-5.01 -2.76 455.52 202.77"><title>Qualcomm logo</title><defs><style>.cls-1{fill:#3455dc}.cls-2{fill:#3757dd}</style></defs><path d="M441.813 72.969a24.458 24.458 0 0 0-.54-1.519q-5.63-14.784-11.265-29.566c-1.317-3.453-2.674-6.89-3.945-10.36a3.033 3.033 0 0 0-3.347-2.261c-2.013.095-4.034.046-6.051.015a2.617 2.617 0 0 0-2.658 1.763c-.209.495-.38 1.005-.564 1.51q-4.879 13.344-9.77 26.683a3.483 3.483 0 0 1-1.03 1.946c-1.253-3.321-2.463-6.52-3.665-9.722q-3.647-9.718-7.287-19.438c-.928-2.467-1.327-2.73-4.01-2.735q-2.22-.005-4.44 0c-2.79.004-3.127.232-4.105 2.876q-4.965 13.419-9.92 26.841a4.928 4.928 0 0 1-.95 1.968 4.283 4.283 0 0 1-.93-1.849l-9.56-25.9c-.28-.757-.536-1.524-.857-2.262a2.542 2.542 0 0 0-2.512-1.675c-2.219.013-4.438.009-6.658 0a2.538 2.538 0 0 0-2.507 1.676c-.188.43-.355.871-.519 1.312l-9.915 26.63a6.237 6.237 0 0 1-.995 2.189 2.67 2.67 0 0 1-.718-1.387l-3.98-10.776q-3.144-8.506-6.295-17.01c-.886-2.38-1.271-2.626-3.86-2.633q-2.32-.006-4.641 0c-2.777.004-3.101.22-4.116 2.875q-4.389 11.484-8.76 22.974c-2.223 5.84-4.455 11.675-6.645 17.526-.732 1.954-.24 2.65 1.794 2.693 1.48.031 2.96.008 4.439.007 3.064-.002 3.228-.107 4.266-2.897q3.655-9.822 7.298-19.647c1.255-3.377 2.516-6.753 3.796-10.19.782.481.81 1.215 1.034 1.813q3.08 8.208 6.114 16.432c1.496 4.031 2.977 8.067 4.491 12.091.797 2.115 1.203 2.381 3.398 2.396 1.682.011 3.363-.024 5.044.008a2.398 2.398 0 0 0 2.5-1.64q.335-.842.658-1.69 5.27-13.843 10.552-27.682c.222-.58.208-1.352 1.006-1.672.282.708.57 1.387.824 2.078q3.1 8.415 6.191 16.833 2.123 5.768 4.251 11.534c.443 1.206 1.059 2.21 2.526 2.22q3.227.023 6.455-.005a2.212 2.212 0 0 0 2.06-1.379c.292-.603.518-1.24.751-1.869q5.154-13.886 10.316-27.77c.213-.571.251-1.29.992-1.735 1.652 4.36 3.274 8.626 4.886 12.896 2.206 5.845 4.395 11.697 6.611 17.538.79 2.081 1.178 2.32 3.437 2.335 1.345.01 2.69.005 4.035.002 2.675-.007 2.888-.139 3.833-2.633q3.39-8.952 6.756-17.913c1.512-4.008 3.029-8.015 4.574-12.101a3.51 3.51 0 0 1 .993 1.85q3.071 8.21 6.095 16.438c1.492 4.032 2.977 8.067 4.482 12.094.734 1.965 1.154 2.245 3.282 2.262 1.882.014 3.767.043 5.648-.012 1.627-.047 2.111-.799 1.627-2.376zM15.025 67.353c9.023 8.26 19.697 10.81 31.616 8.479 1.82-.356 1.819-.388 2.473 1.297 1.02 2.63 2.052 5.256 3.043 7.896a2.7 2.7 0 0 0 2.75 1.937c1.883.002 3.766.04 5.648-.009 2.075-.054 2.72-1.03 2.087-3.053-.14-.448-.341-.876-.509-1.315-1.268-3.326-2.487-6.672-3.83-9.967a1.502 1.502 0 0 1 .675-2.132c11.653-8.463 16.288-20.085 14.58-34.126-2.14-17.577-16.755-30.146-34.515-30.184A34.238 34.238 0 0 0 10.74 20.273a35.11 35.11 0 0 0-6.57 24.554 33.583 33.583 0 0 0 10.855 22.526zm5.289-42.721c5.262-6.697 12.347-9.404 20.77-8.806 11.666.828 20.377 9.91 21.782 21.724.931 7.824-.698 14.945-5.668 21.178a17.572 17.572 0 0 1-3.03 2.989c-1.41-3.687-2.702-7.072-4-10.454-.923-2.401-1.34-2.697-3.836-2.714-1.613-.01-3.226-.026-4.838.006-2.263.046-2.931.971-2.141 3.082 1.577 4.21 3.22 8.397 4.821 12.599a4.96 4.96 0 0 1 .563 2.14 22.01 22.01 0 0 1-7.644.687C23.356 65.873 16.379 55.442 15.1 45.735c-1.018-7.73.34-14.901 5.213-21.103zM145.712 75.1c8.392 2.946 16.137 2.144 22.577-4.665.126-.133.245-.326.49-.244.055.027.16.052.16.082.042.803.072 1.606.105 2.409.078 1.92.763 2.656 2.71 2.75 1.407.066 2.821.046 4.232.02 2.525-.045 3.069-.598 3.07-3.114q.008-15.523.002-31.047c0-3.091.018-6.183-.007-9.274-.016-2.002-.685-2.688-2.62-2.726q-2.317-.046-4.636 0c-1.914.04-2.64.777-2.754 2.69a7.078 7.078 0 0 1-.184 2.492c-.637-.196-.852-.645-1.161-.973a17.188 17.188 0 0 0-7.644-4.677 22.398 22.398 0 0 0-25.353 9.851c-5.1 8.51-5.146 17.371-.682 26.147a20.472 20.472 0 0 0 11.695 10.28zm-3.467-28.836c2.172-5.364 6.2-8.419 11.938-8.813a13.154 13.154 0 0 1 12.94 6.93 16.204 16.204 0 0 1-1.53 18.14 13.096 13.096 0 0 1-5.985 4.15 14.097 14.097 0 0 1-4.442.68 13.722 13.722 0 0 1-7.608-2.227 13.58 13.58 0 0 1-2.037-1.635 13.857 13.857 0 0 1-1.534-1.774 14.775 14.775 0 0 1-2.468-5.561 16.45 16.45 0 0 1 .726-9.89zm128.596 30.405c12.802.087 24.157-9.6 24.269-24.311a24.161 24.161 0 1 0-48.322-.194 23.967 23.967 0 0 0 24.053 24.505zM258.8 44.663a13.513 13.513 0 0 1 13.543-7.22 13.87 13.87 0 0 1 11.978 10.173 18.95 18.95 0 0 1 .627 4.879c-.114 4.837-1.733 8.901-5.516 11.898a13.689 13.689 0 0 1-19.958-3.256 15.755 15.755 0 0 1-.674-16.474zM80.15 56.51a26.3 26.3 0 0 0 .43 5.013c1.04 5.416 3.678 9.742 8.522 12.603 6.363 3.758 18.923 4.002 24.746-3.637.07-.091.217-.123.608-.334 0 1.155-.036 2.092.009 3.025.064 1.35.596 2.037 1.894 2.174a28.88 28.88 0 0 0 6.038 0 2.156 2.156 0 0 0 2.079-2.29c.033-.4.01-.806.01-1.21l-.001-38.928a12.634 12.634 0 0 0-.02-1.411 2.192 2.192 0 0 0-2.19-2.199 71.505 71.505 0 0 0-5.645-.006 2.107 2.107 0 0 0-2.163 2.174c-.042.534-.011 1.075-.012 1.613-.006 7.597.09 15.196-.047 22.791-.137 7.625-5.533 12.494-13.116 12.091-5.886-.313-9.588-3.528-10.78-9.303a18.702 18.702 0 0 1-.295-3.81q-.004-10.891-.002-21.783a15.931 15.931 0 0 0-.02-1.613 2.119 2.119 0 0 0-2.19-2.161 73.456 73.456 0 0 0-5.646.007A2.172 2.172 0 0 0 80.17 31.5a9.544 9.544 0 0 0-.016 1.008q0 12-.005 24.002zm149.414 20.16c.626-.04 1.772-.057 2.905-.193a23.058 23.058 0 0 0 11.01-4.127c1.73-1.254 1.861-2.182.598-3.869a88.37 88.37 0 0 0-2.373-3.008c-1.265-1.545-1.826-1.665-3.626-.74a33.106 33.106 0 0 1-3.999 1.904 13.367 13.367 0 0 1-16.943-6.956 16.91 16.91 0 0 1-1.293-10.44c1.043-5.803 4.125-10.035 10.046-11.653a14.254 14.254 0 0 1 10.195 1.135c.966.467 1.893 1.016 2.847 1.51a1.858 1.858 0 0 0 2.527-.511c1.066-1.382 2.116-2.786 3.047-4.26a1.914 1.914 0 0 0-.564-2.835 19.724 19.724 0 0 0-2.87-1.859 25.088 25.088 0 0 0-14.451-2.697c-8.142.757-14.375 4.602-18.288 11.852a26.069 26.069 0 0 0-2.75 16.021c1.567 12.459 10.873 20.705 23.982 20.725zm-40.603-3.368a1.994 1.994 0 0 0 2.076 2.03c1.947.069 3.9.066 5.847 0a1.858 1.858 0 0 0 1.95-1.89 13.942 13.942 0 0 0 .03-1.613V11.12c0-.537.033-1.079-.017-1.612-.122-1.312-.74-2.009-2.024-2.053a77.043 77.043 0 0 0-5.847.013 1.972 1.972 0 0 0-1.988 1.903 11.352 11.352 0 0 0-.049 1.61q-.003 30.456 0 60.911a12.11 12.11 0 0 0 .022 1.411z" class="cls-1"/><path d="M13.089 139.319a15.335 15.335 0 0 0 8.307.917c1.734-.26 1.582-.098 2.166 1.326 1.388 3.392 1.38 3.395 4.922 3.142 1.27-.091 1.522-.426 1.094-1.681a35.02 35.02 0 0 0-1.472-3.746 1.672 1.672 0 0 1 .581-2.37 13.401 13.401 0 0 0 5.088-9.696c-.004-9.59-6.006-15.737-14.319-16.131a14.692 14.692 0 0 0-6.367 28.239zm-2.958-16.285a9.051 9.051 0 0 1 9.402-6.926 9.204 9.204 0 0 1 8.542 8.67 9.763 9.763 0 0 1-2.496 7.65c-.296-.663-.46-1.028-.622-1.394-.37-.838-.357-2.054-1.355-2.337a10.04 10.04 0 0 0-3.995-.058c-.675.088-.73.679-.51 1.262q.678 1.787 1.352 3.575c.654 1.745.559 1.875-1.367 1.904a9.035 9.035 0 0 1-9.121-7.747 11.522 11.522 0 0 1 .17-4.6zm185.201 42.716c.005-3.325.094-2.905-2.95-2.921a6.943 6.943 0 0 0-1.795.13c-.614.163-.322 1.079-.81 1.42-4.289-3.174-9.214-2.855-12.65.74a11.01 11.01 0 0 0-.406 13.92c3.21 3.791 8.528 4.35 13.207 1.266.308 2.918-.035 4.29-1.25 5.407-1.797 1.652-6.474 1.894-8.052-.93-.621-1.113-1.259-1.415-2.412-.95a18.03 18.03 0 0 1-2.324.657c-.865.219-1.018.745-.737 1.52a7.304 7.304 0 0 0 3.482 4.022 12.896 12.896 0 0 0 7.016 1.445c5.018-.245 9.878-2.992 9.705-9.993-.13-5.241-.032-10.488-.024-15.733zm-10.333 11.955a5.344 5.344 0 1 1 5.017-5.437 5.123 5.123 0 0 1-5.017 5.437zm11.806-57.801a9.819 9.819 0 0 0-5.52 2.957c-4.262-3.79-7.576-4.02-12.092-.776-.583-1.629-.583-1.634-2.08-1.667-.672-.014-1.345.028-2.016-.006-1.063-.054-1.407.476-1.396 1.473.03 2.756.009 5.511.009 8.267s.019 5.51-.008 8.266c-.01 1 .34 1.514 1.408 1.452a25.328 25.328 0 0 1 2.419-.002c1.027.039 1.456-.43 1.444-1.45-.026-2.284-.012-4.57-.004-6.854a29.046 29.046 0 0 1 .062-3.021 4.048 4.048 0 0 1 3.986-3.808 3.797 3.797 0 0 1 4.256 3.397 10.5 10.5 0 0 1 .15 2c.017 2.756.025 5.511 0 8.267-.009.99.333 1.526 1.401 1.47.737-.04 1.479.014 2.217-.01 1.472-.05 1.62-.17 1.637-1.628.03-2.62.004-5.242.013-7.863a13.924 13.924 0 0 1 .085-2.012 4.05 4.05 0 0 1 4.145-3.635c2.19-.03 3.578 1.125 4.032 3.43a11.946 11.946 0 0 1 .19 2.2c.021 2.688.033 5.377-.003 8.065-.013 1.01.334 1.512 1.397 1.454a25.925 25.925 0 0 1 2.42-.001c1.02.04 1.463-.415 1.456-1.439-.025-3.629.124-7.265-.059-10.885-.263-5.202-4.397-8.374-9.549-7.641zm-42.139 19.951c1.597-.001 1.712-.13 1.726-1.733.025-2.69.004-5.38.01-8.07a7.363 7.363 0 0 1 .26-2.391 3.99 3.99 0 0 1 4.094-2.94 3.783 3.783 0 0 1 3.88 3.147 8.374 8.374 0 0 1 .228 2.198c-.002 2.085-.034 4.17.007 6.254.078 3.942-.913 3.534 3.924 3.545.942.002 1.33-.449 1.325-1.358-.021-3.765.105-7.537-.082-11.294a7.343 7.343 0 0 0-5.46-6.99 8.78 8.78 0 0 0-8.961 2.12c-.223.216-.38.575-.788.485-2.761-3.316-7.125-4.32-12.13-.673.112-1.365-.479-1.807-1.565-1.745-.603.034-1.21-.005-1.815.006-1.838.034-1.888.068-1.892 1.97-.012 4.639-.038 9.28.006 13.919.038 3.97-.836 3.548 3.917 3.56.93.002 1.34-.422 1.332-1.348-.017-2.084-.007-4.169 0-6.253.003-1.21-.059-2.428.05-3.629a4.085 4.085 0 0 1 4.11-3.91 3.923 3.923 0 0 1 4.24 3.706 11.038 11.038 0 0 1 .058 1.61c.006 2.152-.01 4.304.006 6.455.028 3.729-.507 3.362 3.52 3.359zm-62.812 29.207a7.498 7.498 0 0 0-6.098-6.652 9.05 9.05 0 0 0-8.212 2.04 2.708 2.708 0 0 1-.261-1.717c-.021-2.216 0-4.433-.012-6.65-.013-2.051-.062-2.09-2.192-2.105-.672-.005-1.343.005-2.015.01a.907.907 0 0 0-1.029.969 55.173 55.173 0 0 0-.018 1.611v22.77c0 3.086-.273 2.908 2.975 2.897 2.22-.008 2.272-.06 2.28-2.244.01-2.754-.044-5.509.02-8.261a4.423 4.423 0 0 1 3.753-4.553c3.19-.583 5.467 1.137 5.621 4.382.111 2.346.03 4.7.053 7.051.037 3.974-.646 3.622 3.901 3.63.906.001 1.401-.364 1.39-1.298-.044-3.96.241-7.932-.156-11.88zM67.508 119.86a9.889 9.889 0 0 0-8.834 10.433c.153 4.034 1.719 7.198 5.322 9.052a8.46 8.46 0 0 0 10.075-1.163c.149 1.476 1.006 1.839 2.221 1.69a10.956 10.956 0 0 1 1.208-.009c1.986-.02 2.004-.021 2.01-2.037q.016-7.15.002-14.302c-.004-3.483.26-3.042-3.163-3.129-1.219-.031-2.144.146-2.226 1.624-2.785-1.885-4.45-2.395-6.615-2.159zm6.751 10.296a5.084 5.084 0 0 1-5.285 5.362 5.376 5.376 0 0 1 .214-10.735 5.088 5.088 0 0 1 5.071 5.373zM44.75 164.134a10.371 10.371 0 0 0-11.4-.562c-4.02 2.435-5.372 6.164-4.853 10.686a9.587 9.587 0 0 0 7.146 8.115 12.53 12.53 0 0 0 6.178.061 9.025 9.025 0 0 0 5.066-3.09c.37-.443.662-.984.134-1.415a12.063 12.063 0 0 0-2.81-1.92c-.877-.366-1.242.815-1.914 1.187-.176.098-.331.23-.504.332-2.727 1.603-6.451.542-7.56-2.181-.435-1.066-.55-1.613.985-1.57 1.946.055 3.895.014 5.842.013s3.896.02 5.843-.008c1.483-.021 1.655-.174 1.664-1.593a9.533 9.533 0 0 0-3.817-8.055zm-9.649 6.308c-.993-.01-1.156-.323-.761-1.22a4.772 4.772 0 0 1 4.716-2.748c2.115.135 3.462 1.334 4.212 3.978-2.83 0-5.499.018-8.167-.01zm183.57-8.224a10.332 10.332 0 0 0-4.033 20.188 12.59 12.59 0 0 0 5.984.04 9.128 9.128 0 0 0 5.088-3.061c.426-.494.746-1.043.094-1.561a8.018 8.018 0 0 0-2.844-1.85c-.85-.206-1.214.924-1.908 1.299-.176.095-.333.228-.508.326a5.038 5.038 0 0 1-7.66-3.731c.453-.032.785-.074 1.118-.074 3.896-.005 7.792.01 11.689-.011 1.617-.01 1.699-.125 1.731-1.715a9.625 9.625 0 0 0-8.75-9.85zm-5.551 8.179a4.151 4.151 0 0 1 3.797-3.906c2.6-.28 4.407 1.016 5.18 3.905zm-84.296-8.237a10.32 10.32 0 1 0-.161 20.633 10.317 10.317 0 1 0 .16-20.633zm-.115 15.682a5.081 5.081 0 0 1-5.125-5.3 5.181 5.181 0 0 1 5.204-5.467 5.246 5.246 0 0 1 5.055 5.442 5.175 5.175 0 0 1-5.134 5.325zm33.361-15.682a10.318 10.318 0 1 0 10.502 10.432 10.344 10.344 0 0 0-10.502-10.432zm.14 15.683a5.263 5.263 0 0 1-5.296-5.421 5.339 5.339 0 0 1 5.206-5.345 5.284 5.284 0 0 1 5.16 5.358 5.198 5.198 0 0 1-5.07 5.408zm-27.602-47.735a10.466 10.466 0 0 0-20.93.178 10.468 10.468 0 0 0 20.93-.178zm-15.639-.048a5.185 5.185 0 1 1 5.25 5.429 5.218 5.218 0 0 1-5.25-5.429z" class="cls-2"/><path d="M30.98 155.592c-.002-1.515-.095-1.594-1.623-1.604-3.429-.024-6.858-.008-10.287-.008-2.959 0-5.918-.021-8.876.004-3.26.028-3.232-.626-3.183 3.308.019 1.514.127 1.616 1.611 1.641 1.883.033 3.766 0 5.648.012 1.867.011 1.884.02 1.886 1.895q.013 9.279.004 18.558c0 .538-.007 1.077.028 1.613a1.131 1.131 0 0 0 1.28 1.219c.404-.013.807.004 1.21.004 3.288-.002 3.08.259 3.078-3.026q-.007-9.28.004-18.558c.003-1.668.031-1.682 1.674-1.703 1.48-.02 2.959.005 4.438-.006 3.48-.026 3.109.413 3.107-3.349z" class="cls-1"/><path d="M115.607 169.905a7.72 7.72 0 0 0-6.773-7.604 9.269 9.269 0 0 0-8.038 2.466c.177-1.719-.5-2.108-1.65-1.988-.465.049-.94.004-1.41.008-2.128.017-2.178.05-2.183 2.116q-.017 6.859 0 13.717c.011 3.922-.594 3.629 3.94 3.618.928-.002 1.334-.4 1.32-1.342-.03-1.95-.026-3.9-.002-5.85a19.405 19.405 0 0 1 .206-4.219 4.5 4.5 0 0 1 4.772-3.753 4.348 4.348 0 0 1 4.529 3.998 12.337 12.337 0 0 1 .064 1.812c.007 2.622.022 5.244-.005 7.867-.01.994.348 1.524 1.403 1.488a35.915 35.915 0 0 1 2.42 0c1.013.032 1.459-.405 1.45-1.443-.03-3.63.077-7.264-.043-10.891zm175.263-7.745a9.348 9.348 0 0 0-5.843 2.358c-.52-1.67-.52-1.68-1.729-1.726-.603-.023-1.209-.013-1.813-.004-1.869.028-1.911.052-1.916 1.935q-.018 7.054 0 14.108c.013 3.691-.55 3.425 3.71 3.393 1.344-.01 1.513-.186 1.531-1.525.036-2.62.005-5.24.017-7.86a10.109 10.109 0 0 1 .112-1.804 4.527 4.527 0 0 1 4.807-3.96 4.298 4.298 0 0 1 4.528 3.975 12.549 12.549 0 0 1 .121 2.007c.016 1.881.006 3.762.007 5.643 0 3.81.159 3.933 3.95 3.545.926-.095 1.311-.508 1.306-1.405-.022-3.695.132-7.399-.087-11.082-.282-4.752-3.918-7.79-8.702-7.598zM52.1 120.428c-1.41.004-1.532.166-1.559 1.698-.03 1.813.003 3.626-.01 5.44a44.773 44.773 0 0 1-.103 4.627c-.271 2.433-1.94 3.742-4.446 3.7a3.893 3.893 0 0 1-4.132-3.802 13.953 13.953 0 0 1-.054-1.61c-.006-2.149-.003-4.298-.003-6.447 0-3.857-.272-4.081-4.078-3.625-.84.1-1.183.485-1.177 1.294.029 3.961-.116 7.933.12 11.882.228 3.81 2.99 6.358 6.786 6.778a8.12 8.12 0 0 0 7.002-2.381c.01 1.675.729 2.035 1.853 1.891a12.078 12.078 0 0 1 1.409-.01c2.077-.019 2.124-.052 2.129-2.163q.014-6.85-.001-13.7c-.015-3.972.512-3.585-3.736-3.572zm190.575 50.796a16.994 16.994 0 0 0-2.305-.703c-1.177-.275-2.369-.492-3.557-.716a3.71 3.71 0 0 1-1.502-.552 1.354 1.354 0 0 1-.017-2.34 3.553 3.553 0 0 1 2.31-.549 8.383 8.383 0 0 1 4.136 1.44c1.234.727 1.497.657 2.424-.338.23-.246.44-.51.644-.776.98-1.272.955-1.69-.407-2.577a12.232 12.232 0 0 0-8.683-1.8 8.348 8.348 0 0 0-4.068 1.632 5.68 5.68 0 0 0 1.291 9.85 16.328 16.328 0 0 0 2.915.777c1.246.272 2.494.547 3.72.894a1.333 1.333 0 0 1 1.082 1.3 1.614 1.614 0 0 1-.981 1.42 4.042 4.042 0 0 1-1.745.434 7.194 7.194 0 0 1-4.84-1.695c-.586-.456-1.177-1.056-1.966-.54a13.525 13.525 0 0 0-2.02 1.655 1.11 1.11 0 0 0-.045 1.486 4.778 4.778 0 0 0 1.474 1.355c2.036 1.324 4.298 1.857 7.538 1.891a9.206 9.206 0 0 0 6.371-2.543c2.292-2.262 2.547-7.321-1.769-9.005zm77.814 5.025c-2.096-1.746-2.096-1.746-4.073.09a5.227 5.227 0 0 1-6.652.595 5.671 5.671 0 0 1-1.745-6.705 5.072 5.072 0 0 1 5.957-2.98 5.668 5.668 0 0 1 2.855 1.787c1.363 1.376 1.42 1.372 2.99.195.27-.202.54-.403.794-.622 1.101-.949 1.183-1.385.3-2.533a10.006 10.006 0 0 0-1.688-1.72 10.864 10.864 0 0 0-12.474-.45 10.357 10.357 0 0 0-4.112 11.54 10.58 10.58 0 0 0 18.132 3.626c1.072-1.33 1.01-1.746-.284-2.823zm-262.205-8.612a5.355 5.355 0 0 1 6.263 1.243c1.554 1.546 1.554 1.546 3.281.232.214-.163.433-.321.637-.495 1.129-.96 1.2-1.342.32-2.522a9.78 9.78 0 0 0-6.639-3.803 10.323 10.323 0 1 0-1.547 20.5 19.403 19.403 0 0 0 2.06-.21 9.516 9.516 0 0 0 6.19-3.816c.726-1.024.66-1.452-.19-2.258-2.094-1.984-2.328-1.985-4.532-.03-.1.09-.201.18-.307.262a4.982 4.982 0 0 1-5.129.749 4.864 4.864 0 0 1-3.176-4.084 5.327 5.327 0 0 1 2.77-5.768zm49.551-28.121a9.257 9.257 0 0 0 4.005-3.273c.374-.546.59-1.143.085-1.653a6.28 6.28 0 0 0-2.742-1.973c-1.065-.266-1.39.873-2.046 1.386-.106.083-.203.177-.306.263a5.245 5.245 0 0 1-6.358.325 5.561 5.561 0 0 1-1.968-6.12 5.065 5.065 0 0 1 5.16-3.694 5.397 5.397 0 0 1 4.002 2.046c.443.5.9 1.18 1.662.83a8.007 8.007 0 0 0 2.688-2.081 1.098 1.098 0 0 0-.039-1.327 6.984 6.984 0 0 0-1.567-1.833 10.446 10.446 0 0 0-11.513-1.6 9.536 9.536 0 0 0-5.928 8.915 14.491 14.491 0 0 0 .33 3.176 10.475 10.475 0 0 0 14.535 6.613zM88.516 113.25c-.019-1.436-.212-1.588-1.651-1.64a27.723 27.723 0 0 0-2.015 0c-1.354.05-1.519.205-1.618 1.472-.026.334-.01.672-.01 1.007q-.002 9.873.002 19.745a18.303 18.303 0 0 0 .102 2.01 4.109 4.109 0 0 0 4.034 3.986 15.711 15.711 0 0 0 1.61.032c2.98-.007 2.967.457 2.93-3.17-.01-.841-.377-1.146-1.211-1.23-2.125-.216-2.148-.27-2.158-2.467-.014-3.224-.004-6.447-.004-9.67v-1.814c0-2.754.024-5.507-.011-8.26zm60.83 64.547c-2.178-.23-2.19-.275-2.193-2.43q-.014-9.059-.003-18.117c0-3.654.259-3.265-3.44-3.266-1.729 0-1.802.083-1.81 1.84-.019 3.623-.006 7.247-.006 10.87 0 3.557-.022 7.114.006 10.67.023 3.114 1.55 4.676 4.664 4.847.335.018.671.02 1.006.024 3.028.03 3.248-.225 2.969-3.17-.075-.788-.33-1.177-1.193-1.268z" class="cls-2"/><path d="M275.092 155.614c-.012-1.509-.118-1.584-1.615-1.63-.806-.024-1.613.023-2.418-.008-.932-.037-1.373.374-1.347 1.307.014.47-.002.94-.002 1.41l.002 22.166c.004 3.683-.377 3.374 3.33 3.37 1.982-.003 2.05-.075 2.056-2.032.013-4.03.004-8.06.004-12.09v-2.216c0-3.426.018-6.852-.01-10.277z" class="cls-1"/><path d="M200.718 162.798c-1.454.002-1.533.11-1.546 1.674-.023 2.688-.006 5.377-.007 8.066v6.655c.004 3.139-.34 3.068 3.069 3.042 2.09-.016 2.18-.091 2.185-2.137.011-4.57.024-9.142-.003-13.713-.024-3.998.598-3.593-3.698-3.587zm53.79 13.485c-.336 0-.672-.003-1.007 0-1.917.02-1.928.017-2.444 1.892a703.08 703.08 0 0 0-1.617 6.02c-.798 3.003-1.071 2.843 2.284 2.913a1.963 1.963 0 0 0 2.198-1.542c.772-2.215 1.658-4.389 2.5-6.579 1.041-2.703 1.043-2.703-1.914-2.704zm72.55-.494a3.414 3.414 0 1 0-.127 6.827 3.414 3.414 0 1 0 .127-6.827zm-125.254-21.806a3.027 3.027 0 1 0-.049 6.053 3.027 3.027 0 1 0 .049-6.053z" class="cls-2"/></svg>