<svg xmlns="http://www.w3.org/2000/svg" role="img" viewBox="-9.70 -4.70 1128.40 242.40"><title>Qualcomm logo</title><path fill="none" d="M1271.208-156.864v547.08h-1432.17v-547.08z"/><path fill="#005aaa" d="M305.56 74.151a5.51 5.51 0 0 1 5.45 5.45v103.066a5.468 5.468 0 0 1-5.45 5.213h-13.978a5.211 5.211 0 0 1-5.213-4.976v-9.477c-7.108 10.425-19.192 17.534-36.961 17.534-29.617 0-47.862-19.666-47.862-48.808V79.364a5.47 5.47 0 0 1 5.45-5.213h13.979a5.259 5.259 0 0 1 5.213 5.213v58.76c0 18.955 9.95 31.512 29.616 31.512 19.192 0 30.565-13.031 30.565-31.275V79.364a5.422 5.422 0 0 1 5.213-5.213h13.979M99.427 17.05c-47.861 0-86.481 37.2-86.481 86.956 0 49.757 38.62 86.956 86.48 86.956a89.151 89.151 0 0 0 23.591-3.167l9.345 24.253c.947 2.606 2.842 4.266 6.396 4.266h14.927c3.554 0 6.16-2.37 4.502-6.871l-12.171-31.737c24.005-15.083 39.892-41.801 39.892-73.7 0-49.756-38.62-86.956-86.481-86.956m37.646 137.339L126.2 126.04c-.947-2.369-2.843-4.501-7.108-4.501h-14.217c-3.554 0-6.397 2.369-4.738 6.871l14.364 37.282a62.633 62.633 0 0 1-15.075 1.812c-35.067 0-59.944-27.486-59.944-63.499 0-36.014 24.877-63.498 59.944-63.498s59.945 27.484 59.945 63.498c0 20.912-8.4 38.933-22.3 50.383m959.817 27.806c1.186 2.843-.236 5.686-3.79 5.686h-15.639a6.116 6.116 0 0 1-6.16-4.265l-28.906-77.714-29.38 77.714a6.027 6.027 0 0 1-6.16 4.265h-13.98a6.027 6.027 0 0 1-6.16-4.265l-29.616-78.189-29.143 78.19a6.314 6.314 0 0 1-6.16 4.264h-14.691a6.314 6.314 0 0 1-6.16-4.265l-28.906-78.189-29.854 78.19a6.027 6.027 0 0 1-6.16 4.264h-13.98a6.028 6.028 0 0 1-6.16-4.265l-29.142-78.189-29.144 78.19a6.116 6.116 0 0 1-6.16 4.264h-15.164c-3.554 0-4.975-2.843-3.79-5.686l39.567-103.54c1.185-3.081 3.318-4.503 6.16-4.503h17.06c2.842 0 4.976 1.422 6.16 4.502l27.959 75.582 28.194-75.582c1.185-3.08 3.318-4.502 6.16-4.502h16.824c2.843 0 4.976 1.422 6.16 4.502l27.959 75.582 27.958-75.582c1.185-3.08 3.317-4.502 6.16-4.502h16.822c2.844 0 4.976 1.422 6.161 4.502l28.432 75.582 27.72-75.582c1.186-3.08 3.318-4.502 6.162-4.502h17.059c2.844 0 4.975 1.422 6.16 4.502l39.569 103.54M441.087 74.151H427.11a5.511 5.511 0 0 0-5.45 5.45v9.478c-7.108-10.663-20.85-18.244-37.198-18.244-30.802 0-57.34 24.404-57.34 59.944 0 36.014 26.538 60.181 57.102 60.181 16.586 0 30.091-7.582 37.436-18.243v9.951a5.469 5.469 0 0 0 5.45 5.212h13.978a5.26 5.26 0 0 0 5.214-5.212V79.6a5.314 5.314 0 0 0-5.214-5.45m-54.02 94.065c-20.377 0-34.83-16.587-34.83-37.199 0-20.85 14.453-36.962 34.83-36.962 20.139 0 34.829 16.111 34.829 36.962 0 20.612-14.69 37.199-34.83 37.199m220.824 3.553c3.08 3.791.474 6.634-1.185 7.819-9.713 7.346-22.509 11.374-36.487 11.374-35.304 0-58.76-25.826-58.76-59.945s23.456-60.182 58.76-60.182c13.978 0 26.774 4.028 36.487 11.373 1.659 1.185 4.029 3.792 1.185 7.82l-6.634 9.24c-2.606 3.553-5.687 2.606-8.293.947-6.16-3.79-13.505-6.871-22.035-6.871-20.613 0-34.356 16.585-34.356 37.673s13.743 37.435 34.356 37.435c8.53 0 15.4-3.316 21.562-6.87 2.607-1.422 5.45-2.606 8.292 1.184zM673.76 71.072c-33.171 0-59.709 26.062-59.709 59.945 0 34.118 26.538 59.944 59.709 59.944s59.707-25.826 59.707-59.944c0-33.883-26.537-59.945-59.707-59.945m0 96.905c-20.378 0-34.83-16.348-34.83-36.96 0-20.851 14.452-36.963 34.83-36.963 20.376 0 34.828 16.112 34.828 36.963 0 20.612-14.452 36.96-34.828 36.96M490.133 20.13a5.308 5.308 0 0 1 5.213 5.45v156.85a5.309 5.309 0 0 1-5.213 5.45h-13.98a5.679 5.679 0 0 1-5.449-5.45V25.58a5.678 5.678 0 0 1 5.45-5.45h13.98"/></svg>