<svg xmlns="http://www.w3.org/2000/svg" role="img" viewBox="1.76 1.76 610.48 492.48"><defs><style>.cls-3{fill:#252122}.cls-7{fill:#0070af}</style></defs><path fill="#231f20" d="M312.658 313.427l175.16-.001a31.758 31.758 0 0 0 6.872-.605 107.981 107.981 0 0 0 41.594-18.88c24.433-18.17 36.31-53.355 28.444-84.27-7.006-27.534-23.802-46.868-49.898-58.097a3.172 3.172 0 0 1-2.335-2.8c-3.95-26.419-15.4-49.107-35.197-67.055-29.811-27.028-64.725-35.831-104.011-27.413a2.888 2.888 0 0 1-2.953-.7C333.098 20.29 289.631 7.26 240.697 16.852c-53.741 10.535-90.74 42.548-111.671 93.104a4.415 4.415 0 0 1-3.473 3.085c-22.005 5.093-40.504 16.156-54.859 33.576-19.508 23.674-27.245 50.89-22.227 81.254 4.185 25.321 16.776 46.143 36.1 62.834 17.8 15.375 38.39 22.967 62.164 22.826 55.307-.328 110.618-.105 165.927-.104zM95.793 283.434c-19.382-15.226-31.742-34.98-35.33-59.452-3.685-25.133 2.76-47.966 18.639-67.82 14.409-18.016 33.3-28.645 56.087-32.255a3.429 3.429 0 0 0 3.092-2.691c16.872-47.37 49.288-78.703 98.174-90.633 48.816-11.913 91.996.762 128.554 35.335 2.174 2.056 3.801 2.687 6.798 1.804 56.71-16.71 117.051 20.52 127.586 78.578a74.125 74.125 0 0 1 1.413 11.162 3.04 3.04 0 0 0 2.569 3.34 71.324 71.324 0 0 1 12.382 131.842c-7.474 3.839-15.215 6.876-23.617 7.933a36.985 36.985 0 0 1-4.595.267q-86.415.02-172.83.01c-55.986 0-111.972-.145-167.957.08a79.595 79.595 0 0 1-50.965-17.5z"/><path fill="#242122" d="M130.206 478.72c-10.452-12.297-20.902-24.594-31.72-37.324 4.488 0 8.476.06 12.462-.01a21.122 21.122 0 0 0 20.607-20.924q.014-16.025.002-32.05c0-12.53-9.214-21.792-21.843-21.806-31.28-.035-62.56.01-93.84-.064-2.006-.004-2.344.59-2.332 2.43.08 13.076.043 26.152.043 39.228q0 36.28-.044 72.559c-.005 1.794.416 2.292 2.226 2.232 4.354-.145 8.72-.17 13.072.006 2.11.085 2.69-.45 2.67-2.624-.118-12.391-.063-24.784-.043-37.176.001-.875-.518-1.95 1.34-1.932 12.647.124 25.296.23 37.941.045a8.345 8.345 0 0 1 7.31 3.384c10.232 12.259 20.68 24.336 30.983 36.534a4.474 4.474 0 0 0 3.907 1.752c5.554-.095 11.11-.029 16.665-.04 1.88-.003 2.612-1.18 1.746-2.857a8.137 8.137 0 0 0-1.152-1.363zm-57.893-54.85l-35.901-.002c-3.907-.002-4.957-1.079-4.958-5.035q-.004-15.002 0-30.003c.003-3.484 1.07-4.606 4.589-4.609q36.542-.028 73.085 0c3.56.001 4.556 1.053 4.559 4.617q.01 15.001.001 30.003c0 3.957-1.044 5.024-4.96 5.026q-18.208.012-36.415.003z"/><path d="M600.505 368.385c.003-1.692-.552-1.939-2.033-1.908-4.358.092-8.726.18-13.076-.027-2.286-.11-2.783.548-2.776 2.787q.125 43.342.043 86.684a5.544 5.544 0 0 1-.34 2.972c-.402-.445-.633-.688-.85-.942q-38.234-44.855-76.46-89.717c-.835-.981-1.536-1.811-3.112-1.776-5.896.13-11.797.1-17.695.019-1.444-.02-1.836.375-1.835 1.828q.06 56.422 0 112.844c-.001 1.453.39 1.86 1.835 1.829 4.444-.093 8.897-.172 13.333.024 2.247.099 2.797-.49 2.79-2.768-.09-28.98-.059-57.96-.058-86.94v-3.23c7.169 8.4 13.873 16.24 20.563 24.094q28.582 33.55 57.133 67.124a4.23 4.23 0 0 0 3.678 1.708c5.554-.12 11.112-.09 16.668-.017 1.512.02 2.2-.159 2.196-2q-.094-56.294-.004-112.588zm-374.759 20.767c-24.866-.206-49.735-.056-74.603-.106-1.416-.003-1.678.47-1.658 1.742.069 4.272.182 8.553-.034 12.815-.122 2.407.432 3.083 2.976 3.07 23.5-.118 47.002-.07 70.503-.069 4.535 0 5.484.969 5.486 5.591.001 4.187-.106 8.379.048 12.56.07 1.908-.427 2.43-2.377 2.414-12.39-.096-24.783-.049-37.174-.049s-24.783.038-37.174-.042c-1.77-.012-2.288.397-2.273 2.227.09 11.109.04 22.219.055 33.328a14.263 14.263 0 0 0 .218 2.544c1.99 10.846 10.474 17.734 22.045 17.755 24.013.041 48.027-.023 72.04.072 2.196.008 2.417-.779 2.413-2.61q-.077-34.996-.036-69.99c-.005-11.675-8.826-21.156-20.455-21.252zm2.705 74.286c.026 1.57-.405 2.02-1.999 2.016-18.095-.056-36.191-.025-54.287-.045-3.614-.004-4.775-1.196-4.783-4.72-.01-4.439.11-8.881-.052-13.314-.076-2.058.372-2.73 2.59-2.697 9.302.142 18.607.06 27.911.06 9.39 0 18.78.047 28.168-.04 1.83-.017 2.525.334 2.469 2.354-.153 5.458-.11 10.925-.017 16.386z" class="cls-3"/><path fill="#252223" d="M468.942 478.514q-18.805-20.462-37.64-40.897c-1.19-1.285-1.172-1.969.026-3.254 8.732-9.368 17.372-18.822 26.037-28.253 4.1-4.463 8.151-8.971 12.316-13.372a3.03 3.03 0 0 0 .809-3.252c-.33-.897-1.515-.38-2.302-.385-5.299-.042-10.6.074-15.896-.072a5.536 5.536 0 0 0-4.614 2.019c-10.729 11.592-21.53 23.118-32.27 34.7a4.055 4.055 0 0 1-3.338 1.402c-5.555-.073-11.116-.175-16.664.038-2.388.092-2.738-.703-2.73-2.852.081-21.195.023-42.392.094-63.588.007-1.897-.411-2.488-2.378-2.411-4.267.165-8.55.17-12.816 0-2.056-.083-2.514.558-2.507 2.54.075 19.829.045 39.657.045 59.486 0 20.085.03 40.17-.047 60.255-.007 1.898.407 2.455 2.356 2.378 4.267-.168 8.548-.149 12.816-.008 1.926.064 2.565-.36 2.542-2.449-.119-11.11.003-22.222-.108-33.332-.02-2.077.604-2.565 2.574-2.515 5.125.132 10.259.157 15.382-.006a6.489 6.489 0 0 1 5.512 2.359c10.633 11.563 21.404 23 32.11 34.497a3.77 3.77 0 0 0 3.06 1.44c5.81-.09 11.623-.03 17.435-.043 1.877-.004 2.56-1.251 1.56-2.902a10.526 10.526 0 0 0-1.364-1.522z"/><path fill="#262324" d="M355.982 465.36c-23.508.097-47.016.06-70.524.06-4.818-.001-5.747-.907-5.748-5.583v-47.7c0-4.609.923-5.533 5.526-5.533q35.39-.002 70.78.037c1.692.004 2.373-.258 2.306-2.16-.155-4.44-.126-8.891-.01-13.334.044-1.654-.388-2.112-2.083-2.108-24.363.059-48.726-.006-73.089.06-12.154.032-21.289 9.356-21.295 21.52-.008 16.585.315 33.177-.107 49.75a21.82 21.82 0 0 0 22.704 22.623c11.621-.232 23.251-.048 34.877-.048 12.395 0 24.79-.04 37.185.044 1.81.012 2.301-.466 2.242-2.26-.139-4.185-.185-8.383.012-12.563.107-2.25-.492-2.814-2.776-2.804z"/><path fill="#fffefe" d="M314.715 300.855q86.415 0 172.83-.011a36.985 36.985 0 0 0 4.595-.267c8.402-1.057 16.143-4.094 23.617-7.933a71.324 71.324 0 0 0-12.382-131.842 3.04 3.04 0 0 1-2.569-3.34 74.125 74.125 0 0 0-1.413-11.162c-10.535-58.057-70.875-95.287-127.586-78.578-2.997.883-4.624.252-6.798-1.804C328.45 31.345 285.27 18.67 236.455 30.583c-48.886 11.93-81.302 43.263-98.174 90.633a3.429 3.429 0 0 1-3.092 2.69c-22.787 3.611-41.678 14.24-56.087 32.256-15.88 19.854-22.324 42.687-18.639 67.82 3.588 24.471 15.948 44.226 35.33 59.452a79.595 79.595 0 0 0 50.965 17.5c55.985-.225 111.971-.08 167.957-.08zM491.62 187.904a42.338 42.338 0 0 1-.23 82.885c-1.997.427-2.285-.065-2.277-1.872.057-13.237.03-26.475.03-39.713 0-13.067.039-26.134-.04-39.2-.013-2.04.346-2.539 2.517-2.1zm-163.1 72.022c0 .488-.042.975-.085 1.893L221.96 191.008l.165-.521h2.434q50.632 0 101.264-.02c1.664 0 2.776-.113 2.765 2.292-.108 22.389-.063 44.778-.067 67.167zm.044-89.41c.009 1.847-.36 2.481-2.361 2.473-18.966-.08-37.932-.046-56.899-.049a6.492 6.492 0 0 1-.694-.072 181.723 181.723 0 0 0 32.72-23.35 170.487 170.487 0 0 0 27.193-30.09v3.16c0 15.976-.03 31.952.041 47.928zM469.27 271.675q-51.931-.124-103.862-.058h-1.686l-.12-.461 107.66-71.619a3.298 3.298 0 0 1 .358 2.3l.044 67.19c.004 1.809-.169 2.653-2.394 2.648zm-32.19-168.253c22.72 13.887 33.828 34.754 34.817 61.08l-.753.524-99.73-66.376c23.152-8.742 45.033-7.839 65.666 4.772zm-91.044 2.39v-3.026l104.788 69.692c-.792.79-1.591.443-2.285.444q-49.73.033-99.458.074c-2.46.006-3.116-.625-3.104-3.101.102-21.36.059-42.722.059-64.084zm.027 152.074c-.037-21.624-.013-43.248-.056-64.872-.003-1.696.12-2.582 2.263-2.578q51.411.108 102.822.054c.412 0 .824.041 2.04.106-5.737 3.827-10.829 7.23-15.928 10.624q-43.94 29.238-87.892 58.461c-.906.603-1.979 1.884-2.802 1.474-1.104-.548-.445-2.147-.447-3.27zM333.399 77.319c-2.183.62-115.348.918-129.325.323 36.297-28.457 90.882-29.926 129.325-.323zM202.828 97.174c-.003-1.438.155-2.052 1.876-2.049q58.074.087 116.148.05c.316 0 .632.065 1.16.124a49.554 49.554 0 0 1-5.498 10.451c-22.434 32.936-52.364 55.142-91.706 63.797a186.096 186.096 0 0 1-19.72 3.05c-1.846.202-2.275-.284-2.27-2.093q.084-36.665.01-73.33zm-40.954 50.636a110.264 110.264 0 0 1 22.703-51.36 3.24 3.24 0 0 1 .628-.404v68.703c-.827.25-1.253-.283-1.713-.588-6.76-4.471-13.48-9-20.27-13.423a2.549 2.549 0 0 1-1.348-2.928zm-47.166 14.85a59.151 59.151 0 0 1 19.217-8.727 3.515 3.515 0 0 1 3.143.301q13.276 8.915 26.605 17.752c.208.139.414.28 1.191.806h-61.272a51.916 51.916 0 0 1 11.115-10.132zm-20.625 73.833a60.244 60.244 0 0 1-2.075-43.964c.439-1.351.94-2.09 2.606-2.085q35.244.095 70.488.047c.307 0 .614.056 1.6.15-19.655 13.068-38.704 25.73-57.751 38.397-4.053 2.695-8.126 5.36-12.127 8.129-1.322.915-1.987 1.064-2.74-.674zm85.443 35.124c-10.594 0-21.19.157-31.781-.036a58.473 58.473 0 0 1-41.18-17.31c-1.13-1.106-1.503-1.684.15-2.779q38.537-25.519 76.995-51.156a1.627 1.627 0 0 1 1.633-.47v65.92c0 5.831 0 5.831-5.817 5.831zm23.277-2.582c.084-23.064.052-46.128.052-69.73l108.703 72.312h-2.862q-51.645 0-103.289.055c-2.157.005-2.612-.534-2.604-2.637z"/><path d="M205.088 172.596a186.096 186.096 0 0 0 19.72-3.05c39.342-8.654 69.272-30.86 91.706-63.796a49.554 49.554 0 0 0 5.499-10.45c-.529-.06-.845-.126-1.16-.126q-58.075-.007-116.149-.049c-1.721-.003-1.879.611-1.876 2.05q.058 36.664-.01 73.329c-.005 1.809.424 2.295 2.27 2.092z" class="cls-3"/><path d="M471.262 199.537L363.6 271.156l.12.461h1.687q51.93 0 103.862.058c2.225.005 2.398-.84 2.394-2.648q-.074-33.595-.044-67.19a3.298 3.298 0 0 0-.357-2.3z" class="cls-7"/><path fill="#030303" d="M308.696 271.617h2.862l-108.703-72.312c0 23.602.032 46.666-.052 69.73-.008 2.103.447 2.642 2.604 2.637q51.644-.117 103.289-.055z"/><path d="M346.51 261.155c.823.41 1.896-.871 2.802-1.474q43.956-29.215 87.892-58.461c5.099-3.393 10.191-6.797 15.928-10.624-1.216-.064-1.628-.106-2.04-.106q-51.41-.004-102.822-.054c-2.143-.004-2.266.882-2.263 2.578.043 21.624.02 43.248.056 64.872.002 1.122-.657 2.72.447 3.27zm-20.688-70.687q-50.632.038-101.264.019h-2.434l-.165.52 106.476 70.811c.043-.917.085-1.404.085-1.892.004-22.389-.04-44.778.067-67.167.011-2.405-1.101-2.293-2.765-2.291zm23.258-17.472q49.73-.124 99.459-.074c.694 0 1.493.345 2.285-.444l-104.788-69.692v3.025c0 21.362.043 42.723-.06 64.084-.011 2.476.644 3.107 3.105 3.101zm-165.37 27.34q-38.49 25.589-76.994 51.156c-1.654 1.095-1.281 1.673-.152 2.78a58.473 58.473 0 0 0 41.18 17.309c10.591.193 21.188.036 31.782.036 5.817 0 5.817 0 5.817-5.832v-65.92a1.627 1.627 0 0 0-1.633.471zm288.187-35.835c-.99-26.325-12.097-47.192-34.817-61.079-20.633-12.611-42.514-13.514-65.666-4.771l99.73 66.375zm17.246 64.703c0 13.238.027 26.476-.03 39.713-.008 1.807.28 2.3 2.277 1.872a42.338 42.338 0 0 0 .23-82.885c-2.171-.439-2.53.06-2.517 2.1.079 13.066.04 26.133.04 39.2zM333.399 77.32c-38.443-29.604-93.028-28.135-129.325.322 13.977.595 127.142.298 129.325-.323zM166.703 190.641c-.987-.094-1.294-.15-1.601-.15q-35.244-.006-70.488-.047c-1.667-.005-2.167.734-2.606 2.085a60.244 60.244 0 0 0 2.076 43.964c.753 1.738 1.418 1.589 2.74.674 4.001-2.77 8.074-5.434 12.127-8.129 19.047-12.666 38.096-25.329 57.752-38.397zm161.82-71.214a170.487 170.487 0 0 1-27.193 30.092 181.723 181.723 0 0 1-32.72 23.349 6.492 6.492 0 0 0 .694.072c18.967.003 37.933-.03 56.899.049 2 .008 2.37-.626 2.361-2.473-.071-15.976-.04-31.952-.04-47.928zm-165.301 31.311c6.79 4.423 13.51 8.952 20.27 13.423.46.305.886.837 1.713.588V96.046a3.24 3.24 0 0 0-.627.404 110.264 110.264 0 0 0-22.704 51.36 2.549 2.549 0 0 0 1.348 2.928zm.451 21.248q-13.308-8.867-26.605-17.752a3.515 3.515 0 0 0-3.143-.301 59.151 59.151 0 0 0-19.218 8.727 51.916 51.916 0 0 0-11.115 10.132h61.272c-.777-.526-.983-.667-1.191-.806z" class="cls-7"/></svg>