<svg xmlns="http://www.w3.org/2000/svg" role="img" viewBox="-7.90 -12.90 1242.80 354.80"><title>Radisys logo</title><path fill="#df1c4b" d="M603.007 225.72c-11.88 7.795-24.382 13.43-38.12 16.074-29.057 5.595-49.543-7.118-57.318-35.85-5.917-21.868-5.306-44.148-3.498-66.447a102.248 102.248 0 0 1 3.43-19.128c7.456-26.836 24.528-35.115 48.018-34.466a129.084 129.084 0 0 1 43.336 8.808c3.869 1.504 4.393.477 4.375-3.155-.117-23.491.081-46.985-.182-70.474-.055-4.83 1.182-6.309 6.048-6.024a205.87 205.87 0 0 0 22.48.01c4.319-.221 5.12 1.252 5.11 5.29q-.202 87.219-.092 174.439c0 14.162-.095 28.324.072 42.484.038 3.228-.775 4.351-4.13 4.216-6.488-.26-12.996-.18-19.49-.023-2.541.062-3.89-.698-4.777-3.189-1.487-4.173-3.404-8.193-5.262-12.565zm375.271 15.803c-23.51-1.034-35.118-15.05-40.89-35.374-10.761-37.89-21.28-75.85-32.05-113.737-.967-3.404-.512-4.378 3.101-4.3 8.825.193 17.664.262 26.484-.029 3.86-.127 5.423 1.114 6.426 4.88 9.322 35.014 18.865 69.968 28.329 104.944 1.8 6.655 4.8 12.043 12.518 13.12 3.225.45 4.65-.474 5.6-3.81 10.83-38.04 21.922-76.006 32.723-114.055 1.119-3.942 2.681-5.268 6.783-5.101 8.648.35 17.327.29 25.981.026 3.846-.117 4.354.94 3.328 4.45q-16.848 57.665-33.465 115.399-10.874 37.604-21.671 75.23a35.229 35.229 0 0 1-5.84 11.978q-7.562 9.929-14.607 20.248c-1.776 2.593-3.64 3.904-6.92 3.697a119.52 119.52 0 0 0-13.986-.01c-4.045.22-5.169-.595-3.806-4.962 7.03-22.525 13.719-45.156 20.525-67.75.43-1.425.846-2.852 1.437-4.844zM179.54 12.634c10.468.012 21.05-1.46 31.368.8 16.865 3.695 28.15 14.15 32.948 30.682 4.841 16.684.95 31.653-11.341 44.099-9.363 9.48-18.951 18.739-28.477 28.057-1.57 1.534-2.568 2.489-.347 4.661q34.833 34.068 69.435 68.372 24.735 24.383 49.495 48.74c1.27 1.25 2.47 2.57 3.868 4.031-1.596 1.067-3.105.644-4.495.647-17.83.033-35.658-.06-53.486.095a10.115 10.115 0 0 1-7.861-3.277q-45.925-45.601-91.994-91.057c-9.123-9.013-18.24-18.034-27.53-26.871-2.393-2.276-2.309-3.539.014-5.807q28.236-27.59 56.245-55.41c1.17-1.157 2.184-2.472 3.27-3.713.096-1.787 1.362-3.008 2.206-4.41 5.207-8.65 4.218-16.8-1.848-24.585a86.773 86.773 0 0 1-2.082-2.807 28.254 28.254 0 0 0-6.604-5.562 46.826 46.826 0 0 0-5.977-2.921c-1.265-.54-2.638-.7-3.94-1.114-1.179-.64-2.959-.64-2.866-2.65zm285.055 170.391c0 17.995-.084 35.99.076 53.983.03 3.4-.745 4.683-4.364 4.498-5.983-.305-12.002-.289-17.987-.004-3.269.156-4.766-1.117-5.765-4.03-1.184-3.45-2.9-6.715-4.162-10.143-.935-2.541-1.818-2.672-4.155-1.184-14.2 9.039-29.347 15.628-46.412 16.785-21.288 1.442-39.027-9.478-43.5-28.105a82.388 82.388 0 0 1 .51-42.013c4.41-15.423 15.933-23.404 31.49-25.17 17.75-2.016 35.615-.52 53.426-.85 7.018-.13 7.03-.023 7.014-7.207-.007-2.998.051-6.002-.12-8.991-.631-10.948-5.943-16.503-16.905-16.99-16.324-.725-32.608.686-48.895 1.555-6.646.355-13.293.775-19.917 1.397-2.709.254-3.477-.598-3.385-3.228a149.097 149.097 0 0 0-.037-14.988c-.203-3.088 1.298-3.93 3.76-4.682 20.095-6.133 40.754-7.972 61.625-8.2 7.99-.086 15.987-.282 23.888 1.391 21.062 4.46 32.617 18.605 33.594 41.7.388 9.149.186 18.322.214 27.485.028 8.997.006 17.994.007 26.991zm332.937 30.42c11.494-.002 22.99.02 34.484-.01 8.667-.022 12.493-3.832 12.572-12.462.032-3.498.124-7.002-.032-10.494-.285-6.433-2.913-9.761-9.376-10.028-12.303-.508-24.634-.346-36.954-.426-5.992-.039-12.007.21-17.929-.898-17.524-3.281-25.832-11.268-28.246-28.794a119.192 119.192 0 0 1 .024-33.396c2.853-19.477 14.632-29.707 34.915-30.04 25.634-.422 51.262.39 76.64 4.662 6.978 1.174 7.081 1.245 6.925 8.504-.11 5.107 2.211 11.904-.983 14.82-2.767 2.527-9.472.832-14.437.843-18.658.041-37.316.002-55.975.04a52.309 52.309 0 0 0-5.949.491c-5.035.59-7.88 3.473-8.123 8.503a115.192 115.192 0 0 0-.06 14.959c.615 7.459 3.434 9.941 10.96 10.008 13.659.122 27.32.043 40.98.038a63.419 63.419 0 0 1 14.358 1.523c14.549 3.361 23.323 12.629 25.9 27.071a104.174 104.174 0 0 1-.126 37.287c-3.034 16.389-13.604 26.11-30.237 26.73a439.89 439.89 0 0 1-82.617-4.873c-5.143-.782-7.576-2.785-6.743-8.386.748-5.037-2.078-11.888 1.107-14.807 2.758-2.527 9.468-.812 14.433-.847 8.162-.058 16.326-.016 24.489-.018zm332.81.002q16.993.001 33.986-.002c9.538-.011 13.19-3.697 13.263-13.357.019-2.498.035-4.998-.004-7.496-.143-9.123-3.192-12.4-12.327-12.529-12.326-.174-24.656-.04-36.984-.048a87.336 87.336 0 0 1-16.896-1.235c-14.661-2.879-23.136-10.856-25.848-25.398a111.376 111.376 0 0 1-.376-37.293c2.856-18.678 14.09-28.559 34.134-29.112 25.454-.702 50.926.226 76.14 4.43 8.19 1.366 8.165 1.514 8.164 9.957 0 3.166-.247 6.355.063 9.49.38 3.833-.787 5.035-4.83 4.995-21.988-.216-43.98-.107-65.97-.1a38.727 38.727 0 0 0-4.989.157c-7.471.976-9.834 3.525-10.093 11.03-.137 3.994-.198 8.007.03 11.992.454 7.896 3.383 10.742 11.287 10.805 13.826.11 27.655-.05 41.481.09a67.378 67.378 0 0 1 12.403 1.157c16.153 3.215 26.442 14.522 27.636 31.027.815 11.27 1.485 22.682-.669 33.867-3.128 16.238-13.926 26.026-30.41 26.549a450.917 450.917 0 0 1-82.12-4.873c-4.948-.751-7.882-2.39-6.933-8.234a48.79 48.79 0 0 0 .046-11.471c-.266-3.438.722-4.561 4.333-4.489 11.823.238 23.655.09 35.483.09zM61.263 190.297c13.392-12.711 26.862-25.343 40.107-38.207 2.415-2.345 3.562-2.105 5.752.106 7.96 8.042 16.08 15.93 24.275 23.733 2.215 2.109 2.803 3.443.23 5.88q-33.533 31.745-66.823 63.748a10.895 10.895 0 0 1-8.39 3.268c-11.985-.21-23.977-.162-35.964-.026-3.03.034-4.355-.514-4.351-4.017q.121-115.623.02-231.246c2.73 1.845 1.996 4.736 2.008 7.265.089 18.488.046 36.976.046 55.464q.001 73.453.02 146.906c.001 1.618-.433 3.313.454 4.9 1.65-.682 2.414-2.311 3.736-3.284a173.182 173.182 0 0 1 5.056-3.822c2.563-1.523 4.441-3.823 6.54-5.872a176.685 176.685 0 0 0 5.105-5.104 373.276 373.276 0 0 0 6.965-6.98c1.802-1.973 4.116-3.336 6.07-5.131 2.508-1.973 4.086-4.836 6.546-6.855a3.997 3.997 0 0 1 2.598-.726zm651.483-25.549c.003 23.998-.075 47.997.085 71.995.025 3.658-.789 4.921-4.66 4.775-8.32-.315-16.664-.2-24.994-.037-2.955.057-4.069-.736-4.063-3.89q.128-72.745.004-145.49c-.006-3.046.867-4.061 3.956-3.993 8.329.184 16.67.247 24.994-.02 3.675-.118 4.799.836 4.77 4.665-.185 23.997-.094 47.996-.092 71.995z"/><path fill="#2e2f31" d="M24.584 224.587c-2.53 2.442-4.342 5.628-7.55 7.612-1.186-1.89-.636-3.738-.637-5.465q-.052-104.139-.041-208.277c0-1.654-.153-3.307-.236-4.94 2.283-2.066 4.955-.858 7.483-.862a3.638 3.638 0 0 1 2.106 3.66c-.04 5.65.776 11.309-.3 16.95-1.356 7.12.775 14.198.234 21.39a120.176 120.176 0 0 0-.328 17.854c.673 8.837.274 17.621.152 26.384-.217 15.627.287 31.238.276 46.857-.01 15.11-.723 30.211.023 45.342.381 7.713 1.24 15.633-1.366 23.26-1.166 3.41 2.197 6.782.184 10.235z"/><path fill="#df1c4c" d="M696.568 35.595c3.657 0 7.314-.047 10.97.012 5.132.082 7.638 2.09 7.8 6.992.244 7.471.192 14.96.004 22.435-.102 4.02-2.254 6.536-6.574 6.55-8.145.023-16.29.063-24.433-.013-4.606-.043-7.093-2.485-7.132-7.13-.06-7.146-.154-14.297.03-21.439.135-5.312 2.41-7.301 7.867-7.395 3.821-.066 7.645-.013 11.468-.012z"/><path fill="#353638" d="M34.601 215.614a26.222 26.222 0 0 1-6.031 5.77c-2.622-5.478-1.97-11.542-1.596-17.07 1.121-16.618-.662-33.17-.15-49.732.39-12.617-.432-25.215.258-37.85.776-14.22-.407-28.498-.235-42.744.175-14.53-.065-29.063.485-43.602.222-5.864-.86-11.822.267-17.733l6.993.003c1.757 1.905 1.604 4.3 1.605 6.61q.044 93.547-.007 187.094c-.002 3.158-.112 6.332-1.589 9.254z"/><path fill="#3e4041" d="M46.708 203.89l-7.064 6.827a2.215 2.215 0 0 1-1.255-2.47c1.698-13.058-.643-26.12.349-39.284.8-10.616-.643-21.563-.141-32.322.35-7.506-.435-14.913-.387-22.368a20.26 20.26 0 0 1 1.095-7.855 6.535 6.535 0 0 0 .242-4.876c-2.077-5.668-1.608-11.517-.928-17.282.96-8.147.559-16.279.404-24.422-.168-8.783-1.117-17.54-.09-26.358.632-5.432-.558-10.952.012-16.442.153-1.476-.15-3.007.654-4.383h6.993c1.759 1.908 1.604 4.306 1.605 6.619q.024 86.914-.045 173.828c-.007 3.63.292 7.362-1.444 10.788z"/><path fill="#444547" d="M46.708 203.89q-.057-28.428-.109-56.856-.025-67.19-.007-134.38l5-.002a17.66 17.66 0 0 1 2.261 14.242 26.454 26.454 0 0 0-.415 6.87c-.033 12.28 1.59 24.538.46 36.832-.275 2.98-.838 6.085-.067 8.956 1.776 6.613-.062 13.188.254 19.777.317 6.618-.935 13.267.54 19.892.776 3.487-1.157 6.892-.852 10.402 1.41 16.268.646 32.524-.126 48.785a45.39 45.39 0 0 0 .586 11.95c.66 3.006-.614 5.54-1.686 8.148z"/><path fill="#3a3c3d" d="M39.6 12.655a104.2 104.2 0 0 1 .237 23.864c-.804 6.82.097 13.713.264 20.54.227 9.273.664 18.463-.206 27.756-.51 5.446-1.728 11.219 1.352 16.564a4.834 4.834 0 0 1 .144 3.877c-3.088 6.562-2.098 13.246-.837 19.92.79 4.18-.744 8.163-.824 12.296-.12 6.18 1.076 12.364.009 18.555a14.643 14.643 0 0 0 .322 7.413 13.681 13.681 0 0 1 .44 6.913c-1.7 9.972-.905 19.855.206 29.81.384 3.436-.667 7.031-1.063 10.554l-5.043 4.897-.006-8.877-.003-194.082z"/><path fill="#484a4b" d="M52.547 198.506c.886-7.637-1.178-15.266-.288-22.857 1.375-11.713.982-23.485 1.022-35.195.022-6.707.657-13.665-.15-20.072-1.182-9.382-.698-18.718-.2-27.817.487-8.872-2.304-17.613.271-26.658 1.441-5.06-.766-11.073-.796-16.659-.037-6.754-1.149-13.746-.284-20.142.782-5.79-.212-10.993-.53-16.454l7 .001a4.358 4.358 0 0 1 1.294 3.663c-1.751 9.68 1.157 19.155 1.162 28.753.003 6.157-2.785 11.918-2.08 18.236 1.792 16.057-.84 32.17.155 48.226.997 16.091-.271 32.149.075 48.207.228 10.56.015 21.122.372 31.677-2.5 2.206-3.914 5.488-7.023 7.091z"/><path fill="#303233" d="M27.6 12.653c1.102 1.482.586 3.112.592 4.76.043 10.967-.119 21.946-.046 32.89.07 10.543-1.035 21.112-.264 31.57 1.148 15.593-.235 31.123.127 46.643.358 15.397.114 30.813.596 46.217.307 9.81 1.21 19.801-.42 29.838-.85 5.241.298 11.182.385 16.814-1.336 1.058-2.143 2.774-3.986 3.202-3.916-9.288 1.193-18.547.063-27.867-1.574-12.983-.968-26.117-.524-39.075.415-12.08.288-24.197.047-36.196-.221-11.053.114-22.158-.07-33.208-.15-9.057-.337-18.274.084-27.43.278-6.052 1.383-12.382-.333-18.63-.848-3.084-.263-6.54.242-9.884a58.94 58.94 0 0 0-.49-19.642z"/><path fill="#4f5051" d="M59.57 191.415c-1.898-6.687-1.407-13.49-1.083-20.304.32-6.722-.754-13.392-.556-20.175.2-6.913.647-13.735 1.486-20.577.317-2.588-.553-5.168-.857-7.691-1.542-12.803-2.01-25.736.178-38.514a22.267 22.267 0 0 0 .114-9.15c-1.843-8.072-2.257-16.11.237-24.285 1.448-4.75 1.85-10.517.025-14.719-2.277-5.246-.64-10.048-.934-14.968a72.013 72.013 0 0 1 .412-8.379l6.001.004c1.371 1.447 1.52 3.279 1.537 5.117.106 12.123.013 24.247.06 36.37a4.975 4.975 0 0 1-.606 2.39c-2.484.188-4.659-.023-4.643 3.928.175 42.781.129 85.563.152 128.345a13 13 0 0 0 .172 1.488l-1.695 1.12z"/><path fill="#595a5b" d="M78.592 56.538l-8.001-.002a4.901 4.901 0 0 1-1.66-2.99 230.636 230.636 0 0 1 .878-39.638c.052-.48.476-.863.782-1.256l8 .001c2.28 3.162 2.272 6.934 2.42 10.517.344 8.3.269 16.617.03 24.923-.086 2.97-.333 6.01-2.45 8.445z"/><path fill="#898a8a" d="M139.59 56.543l-8-.007c-3.077-5.818-2.778-12.163-2.187-18.313a158.47 158.47 0 0 0 .642-22.254c-.065-1.456.146-2.614 1.533-3.318l8.012.003c1.501 1.582 1.572 3.592 1.584 5.578q.1 16.366 0 32.731c-.012 1.988-.087 3.996-1.583 5.58z"/><path fill="#959595" d="M147.59 12.654h7.999a3.508 3.508 0 0 1 .745 2.308c-.387 12.569-.194 25.14-.125 37.709.008 1.51-.008 3.02-1.606 3.867l-7.014-.004c-.706-.71-1.606-1.418-1.612-2.447-.08-12.93-2.385-25.88.292-38.788a5.53 5.53 0 0 1 1.321-2.645z"/><path fill="#8f9090" d="M147.59 12.654a167.026 167.026 0 0 0-.964 25.28c.171 6.204.631 12.4.963 18.6l-7.998.009v-43.89l8 .001z"/><path fill="#9a9b9a" d="M154.603 56.539c-.003-12.03.036-24.06-.042-36.09a25.639 25.639 0 0 1 1.028-7.796l6.001.001c1.501 1.582 1.572 3.591 1.584 5.578q.1 16.364 0 32.728c-.012 1.986-.084 3.995-1.584 5.578h-6.987z"/><path fill="#838384" d="M131.578 12.651c-2.195 2.354.553 4.455.464 6.864-.457 12.324-2.597 24.666-.453 37.021h-6.997c-2.753-6.106-1.86-12.692-1.925-19.009-.06-5.762.524-11.562.12-17.36-.186-2.684-.105-5.324 1.805-7.514z"/><path fill="#727374" d="M108.601 56.54l-6.01-.004a5.95 5.95 0 0 1-1.666-4.525c.482-11.548-.257-23.112.455-34.655.1-1.63.058-3.33 1.212-4.704l7 .006a21.883 21.883 0 0 1 1.298 12.036c-1.214 8.416.943 16.754-.346 25.07-.361 2.33.59 5.061-1.943 6.776z"/><path fill="#686969" d="M91.59 12.652h6.002c1.615 1.753 1.514 3.954 1.54 6.097.136 10.756-.178 21.516.198 32.271a7.055 7.055 0 0 1-1.738 5.517l-6.989.001c-1.151-3.585-.263-7.254-.41-10.88-.148-3.649.124-7.306-1.428-10.78a6.17 6.17 0 0 1-.299-4.413c1.427-4.21 1.83-8.29.216-12.615-.893-2.393.981-3.988 2.909-5.198z"/><path fill="#a4a5a5" d="M173.59 56.545h-5.014c-2.549-1.347-2.466-3.822-2.375-6.106.282-7.112.608-14.15-.833-21.261-.797-3.935-.57-8.238 2.338-11.83 1.072-1.326-1.81-3.055-.115-4.7 2.76.13 5.797-2.627 8.24.792-.812 3.138-.044 6.25.145 9.374.6 9.936-1.945 19.805-.628 29.766a4.81 4.81 0 0 1-1.758 3.965z"/><path fill="#636465" d="M91.59 12.652c-1.285 2.558-3.021 4.717-.515 7.964 1.418 1.837 1.112 5.099-.515 7.527a6.979 6.979 0 0 0-.524 6.662c2.833 7.21 1.79 14.454.567 21.733l-6.011-.003c-.205-.26-.569-.556-.535-.81 1-7.381-2.634-14.485-1.192-21.931.856-4.416-.51-8.867-.506-13.323.003-2.859-.043-5.644 2.233-7.814l6.999-.005z"/><path fill="#9fa0a0" d="M167.591 12.647a9.475 9.475 0 0 1 .056 7.362 17.788 17.788 0 0 0-.243 13.109c2.302 5.803-.338 11.445.162 17.147.186 2.128-.228 4.328 1.01 6.28l-6.986-.007V12.654l6.001-.007z"/><path fill="#767879" d="M108.601 56.54c.185-8.045.834-16.024.442-24.154a100.535 100.535 0 0 1 .548-19.728h6.001c.311.393.724.81.707 1.293-.31 9.137.909 18.308.257 27.36-.364 5.057 1.42 10.32-.974 15.227l-6.98.002z"/><path fill="#b6b6b7" d="M192.698 18.53c2.783.938 4.774 2.907 6.608 5.078 1.818 9.89-1.543 19.77-.064 29.662a2.852 2.852 0 0 1-1.641 3.288l-6.01-.009c-1.346-1.439-1.458-3.298-1.71-5.098a92.124 92.124 0 0 1 .738-30.202c.22-1.158.02-2.867 2.08-2.718z"/><path fill="#525354" d="M70.591 12.652c.33 7.816-.592 15.582-.86 23.368-.237 6.82.534 13.676.86 20.516l-5.007-.002c-1.142-1.779-.996-3.774-.994-5.754q.013-19.062.003-38.123z"/><path fill="#a9aaaa" d="M173.59 56.545c1.008-3.263-.115-6.53.016-9.792.295-7.28.704-14.558.96-21.84.086-2.463.374-4.978-.935-7.32-1.344-2.404.695-3.172 2.2-4.152l3.71-.808c.638 1.516 2.554.62 3.375 1.79a22.715 22.715 0 0 0-1.793 10.157c.083 8.452.057 16.906.008 25.359-.013 2.3.19 4.687-1.54 6.604z"/><path fill="#b1b2b2" d="M192.698 18.53a86.915 86.915 0 0 0-1.43 31.602c.277 2.117.223 4.277.322 6.418l-6-.002c-2.432-2.298-2.759-5.358-2.4-8.318a105.354 105.354 0 0 0 .078-24.817c-.327-2.858-.642-6.45 3.327-7.823a11.441 11.441 0 0 1 6.103 2.94z"/><path fill="#bcbbbb" d="M197.6 56.558c1.524-1.89.124-3.807-.052-5.663-.811-8.57 2.165-17.042.569-25.617-.166-.892.063-1.634 1.19-1.67 10.451 10.83 10.985 23.947 1.346 33.074q-1.527-.061-3.052-.124z"/><path fill="#7e7f7f" d="M124.592 12.653v43.884l-5.989.003a7.83 7.83 0 0 1-1.284-4.75c.769-8.417-.224-16.864.51-25.27a32.184 32.184 0 0 0-.071-7.446c-.348-2.412-.06-4.647 1.834-6.422z"/><path fill="#adadae" d="M186.595 15.59c-2.426 2.97-2.453 6.578-1.868 9.941a55.97 55.97 0 0 1-.04 20.203c-.68 3.609.208 7.24.903 10.815l-5.999-.006q.002-18.298-.008-36.595c-.005-2.555-.183-5.129 3.332-5.523 1.309.131 2.705-.017 3.68 1.165z"/><path fill="#5e5f61" d="M84.592 12.657c-1.393 5.296-.817 10.58-.087 15.905a18.121 18.121 0 0 1-.26 6.383c-.722 3.147-.828 5.875.74 8.993 2.024 4.027-.255 8.375-.393 12.597l-6 .003c1.728-14.628 1.245-29.256 0-43.885z"/><path fill="#6d6e6f" d="M97.592 56.537V12.652h5c-.021 12.513.078 25.028-.177 37.536-.044 2.14.507 4.23.177 6.348z"/><path fill="#7a7c7c" d="M119.592 12.652c.22 8.267-1.04 16.469-.26 24.82.582 6.25-.997 12.676-.729 19.068l-3.02-.002c-.21-5.335-.96-10.552-.21-16.032.944-6.921-1.237-13.976-.481-21.108.233-2.205.848-4.463.7-6.74l4-.006z"/><path fill="#fefefe" d="M602.766 161.58c-.003 12.316-.102 24.635.069 36.95.04 2.93-.925 4.441-3.54 5.67a93.376 93.376 0 0 1-38.522 8.981c-8.572.154-14.578-3.778-18.282-11.41-3.398-7.002-4.676-14.517-5.256-22.175-1.21-15.973-1.346-31.926 2.376-47.632 3.196-13.492 9.075-17.978 22.862-17.94a135.337 135.337 0 0 1 35.957 4.878c3.205.889 4.524 2.121 4.444 5.729-.274 12.31-.105 24.631-.108 36.948zm-171.997 24.17c.001 2.994-.403 6.057.087 8.969.968 5.741-1.78 8.128-6.8 10-12.632 4.708-25.192 9.553-38.91 9.692-10.168.103-14.628-4.427-14.718-14.527-.04-4.491-.168-8.992.048-13.473.38-7.889 5.265-13.122 13.089-13.771 14.738-1.224 29.504-2.12 44.24-3.38 2.807-.241 3.017.883 2.983 3.015-.07 4.49-.021 8.983-.02 13.475z"/></svg>