<svg xmlns="http://www.w3.org/2000/svg" role="img" viewBox="-23.68 -23.68 1335.36 310.36"><title>Redis Labs logo</title><path fill="#b62411" d="M712 22.34a19.696 19.696 0 0 1 5.91-14.455A19.647 19.647 0 0 1 732.3 2a20.26 20.26 0 0 1 14.61 5.885A19.454 19.454 0 0 1 753 22.34v218.32a19.316 19.316 0 0 1-6.09 14.42 20.147 20.147 0 0 1-14.609 5.92A20.197 20.197 0 0 1 712 240.66zm80.33 211.64q-25.312-26.967-25.33-65.3 0-38.293 25.33-65.48Q817.64 76.018 855 76q26.237 0 49.17 16.27a23.31 23.31 0 0 1 7.005-11.658A18.536 18.536 0 0 1 923.948 76a18.094 18.094 0 0 1 13.32 5.919A19.609 19.609 0 0 1 943 95.974v145.45a18.933 18.933 0 0 1-5.732 13.837 18.317 18.317 0 0 1-13.32 5.739 18.961 18.961 0 0 1-12.772-4.468 21.94 21.94 0 0 1-7.005-11.44Q881.637 261 855 261q-37.342 0-62.672-27.02zm14.225-65.3q0 22.446 13.499 37.553 13.498 15.2 34.764 15.18 21.233 0 35.09-15.18 13.884-15.145 13.9-37.37 0-22.226-14.08-37.734-14.045-15.526-34.91-15.544c-13.935 0-25.476 5.158-34.584 15.363q-13.661 15.362-13.679 37.733zM960 241.024V21.977a19.265 19.265 0 0 1 5.927-14.092 20.199 20.199 0 0 1 28.502 0 19.262 19.262 0 0 1 5.927 14.092V91.53a84.74 84.74 0 0 1 49.625-15.545q37.466 0 63.732 27.385 26.285 27.403 26.287 65.303 0 37.974-26.287 65.123-26.285 27.239-63.732 27.204-27.048 0-50.351-15.91a20.2 20.2 0 0 1-6.873 11.261A19.401 19.401 0 0 1 979.634 261a18.722 18.722 0 0 1-13.707-5.92A19.125 19.125 0 0 1 960 241.023zm125.175-109.178q-14.451-15.529-35.194-15.51-20.724 0-35.156 15.51a52.372 52.372 0 0 0-14.47 36.827 51.194 51.194 0 0 0 14.651 36.647q14.616 15.365 34.975 15.364 20.396 0 35.01-15.364a51.184 51.184 0 0 0 14.653-36.647 52.372 52.372 0 0 0-14.469-36.827zm185.183-35.472a18.818 18.818 0 0 1 8.339 12.383 20.9 20.9 0 0 1-2.393 15 18.983 18.983 0 0 1-12.4 8.28 18.745 18.745 0 0 1-14.972-3.123q-20.667-13.674-34.153-13.692c-8.99 0-16.314 2.252-21.97 6.646-3.951 2.723-5.91 5.157-5.91 7.227a9.45 9.45 0 0 0 .908 4.65 12.574 12.574 0 0 0 3.879 3.304c5.438 3.705 14.428 6.646 27.011 8.898l.36.363h.365a155.97 155.97 0 0 1 35.819 11.114q16.26 7.353 24 20.336c5.186 8.607 7.759 17.143 7.759 25.531q0 25.931-23.275 42.927A82.645 82.645 0 0 1 1215.723 261q-34.37-.328-65.767-25.495a18.839 18.839 0 0 1-6.816-13.183 17.691 17.691 0 0 1 4.243-14.236 17.43 17.43 0 0 1 13.306-7.373 18.483 18.483 0 0 1 14.391 4.43q19.961 16.616 40.643 16.27a46.036 46.036 0 0 0 25.088-7.007c4.46-3.742 6.67-6.866 6.67-9.443 0-2.58-.36-4.396-1.123-5.375-.507-1.235-2.103-2.687-4.786-4.43q-8.866-6.321-29.547-10.352h-.362a137.4 137.4 0 0 1-34.152-10.75 58.1 58.1 0 0 1-23.494-20.374 43.758 43.758 0 0 1-6.27-23.28q0-24.023 21.787-40.711 19.958-13.673 45.609-13.691 25.722 0 55.215 20.374zM41.961 99.034q8.53-9.978 23.324-16.104c9.863-4.035 18.873-6.035 27.01-5.926q12.234.218 17.946 5.743A18.176 18.176 0 0 1 116 96.272a19.273 19.273 0 0 1-5.759 13.885c-3.814 3.962-8.458 5.558-13.859 5.925-22.875 1.555-54.42 25.003-54.42 55.91v70.414a18.57 18.57 0 0 1-5.921 13.85A19.744 19.744 0 0 1 21.8 262a19.196 19.196 0 0 1-14.079-5.745A18.93 18.93 0 0 1 2 242.405V96.454a18.382 18.382 0 0 1 5.721-13.706 19.622 19.622 0 0 1 14.079-5.56 20.192 20.192 0 0 1 14.24 5.56 18.04 18.04 0 0 1 5.921 13.706zm247.031 64.757a17.155 17.155 0 0 1-5.36 13.124 20.15 20.15 0 0 1-14.216 5.585h-117.33c2.208 10.615 6.392 18.19 12.55 23.86q11.788 13.74 34.498 16.469 22.708 2.834 39.297-9.052c3.694-3.927 8.602-5.925 14.776-5.925 6.121 0 10.432 1.6 12.894 4.834 6.882 7.67 6.882 15.668 0 24.066q-26.566 24.427-65.12 24.246-38.573-.162-64.578-27.264c-17.348-17.958-26.15-39.732-26.403-65.144q.38-38.116 26.403-65.362Q162.426 76.018 199.315 76q36.887 0 62.187 24.283 25.262 24.265 27.49 61.691zm-88.953-52.601q-21.35 1.144-34.298 13.34c-8.62 8.108-13.783 16.807-15.502 25.97h104.436c-2.228-8.654-8.204-17.1-17.91-25.243q-14.56-12.213-36.726-14.067zM482 241.024a19.126 19.126 0 0 1-5.926 14.055A18.776 18.776 0 0 1 462.37 261a19.494 19.494 0 0 1-13.159-4.649 20.33 20.33 0 0 1-6.834-11.26Q419.037 261 391.991 261q-37.407 0-63.69-27.204Q301.99 206.61 302 168.673q0-37.918 26.3-65.303 26.283-27.35 63.69-27.385a84.66 84.66 0 0 1 49.64 15.545V21.977a19.338 19.338 0 0 1 5.926-14.092 20.218 20.218 0 0 1 28.518 0A19.266 19.266 0 0 1 482 21.977zm-90.01-20.34q20.394 0 35.008-15.364a51.249 51.249 0 0 0 14.632-36.647 52.358 52.358 0 0 0-14.45-36.827q-14.45-15.529-35.19-15.51-20.72 0-35.152 15.51a52.279 52.279 0 0 0-14.451 36.827 51.176 51.176 0 0 0 14.633 36.647q14.613 15.365 34.97 15.364zM541 21.977v7.736a20.156 20.156 0 0 1-5.743 14.491 18.914 18.914 0 0 1-14.065 5.884 19.531 19.531 0 0 1-14.267-5.884A19.88 19.88 0 0 1 501 29.713v-7.736a19.342 19.342 0 0 1 5.925-14.092A19.532 19.532 0 0 1 521.192 2a19.171 19.171 0 0 1 14.065 5.702A19.311 19.311 0 0 1 541 21.977zm-34.258 60.11a20.582 20.582 0 0 1 28.515 0A19.793 19.793 0 0 1 541 96.722v144.301a20 20 0 0 1-40 0v-144.3a19.866 19.866 0 0 1 5.742-14.637zm175.619 14.287a19.089 19.089 0 0 1 8.338 12.383 20.743 20.743 0 0 1-2.428 15 18.824 18.824 0 0 1-12.36 8.28 18.6 18.6 0 0 1-14.935-3.123q-20.715-13.674-34.192-13.692c-8.989 0-16.31 2.252-21.965 6.646-3.95 2.723-5.908 5.157-5.908 7.227a9.031 9.031 0 0 0 .924 4.65 12.144 12.144 0 0 0 3.878 3.304c5.42 3.705 14.408 6.646 26.95 8.898l.363.363h.38a156.275 156.275 0 0 1 35.84 11.114q16.205 7.353 23.997 20.336c5.148 8.607 7.757 17.143 7.757 25.531q0 25.931-23.272 42.927A82.698 82.698 0 0 1 627.727 261q-34.363-.328-65.754-25.495a19.048 19.048 0 0 1-6.833-13.183 17.636 17.636 0 0 1 4.26-14.236 17.363 17.363 0 0 1 13.285-7.373 18.456 18.456 0 0 1 14.408 4.43q19.927 16.616 40.634 16.27a46.138 46.138 0 0 0 25.093-7.007c4.458-3.742 6.671-6.866 6.671-9.443 0-2.58-.4-4.396-1.126-5.375-.47-1.235-2.066-2.687-4.82-4.43-5.872-4.214-15.74-7.664-29.533-10.352h-.363a137.758 137.758 0 0 1-34.163-10.75 57.988 57.988 0 0 1-23.453-20.374 43.927 43.927 0 0 1-6.27-23.28q0-24.023 21.783-40.711Q601.502 76.018 627.166 76q25.65 0 55.195 20.374z"/></svg>