<svg xmlns="http://www.w3.org/2000/svg" role="img" viewBox="-3.81 66.69 406.38 111.38"><title>Redis Labs logo</title><defs><clipPath id="clip-path"><path fill="none" d="M4 80.876h104.497v89.552H4z"/></clipPath><style>.cls-3{fill:#a32422}.cls-4{fill:#dc382c}</style></defs><g clip-path="url(#clip-path)"><path d="M104.392 149.921c-5.572 2.911-34.464 14.793-40.655 18.052s-9.558 3.171-14.423.847-35.539-14.793-41.089-17.443C5.455 150.062 4 148.944 4 147.89v-10.568s40.024-8.689 46.487-11.024 8.689-2.4 14.195-.391 38.374 7.95 43.804 9.938v10.405c0 1.086-1.249 2.172-4.094 3.66z" class="cls-3"/><path d="M104.392 139.364c-5.572 2.9-34.464 14.782-40.655 17.986s-9.558 3.172-14.423.858-35.539-14.75-41.089-17.389-5.659-4.474-.217-6.603 36.016-14.12 42.479-16.444 8.689-2.4 14.195-.38 34.214 13.446 39.644 15.433 5.648 3.628.066 6.517z" class="cls-4"/><path d="M104.392 132.706c-5.572 2.9-34.464 14.782-40.655 17.986s-9.558 3.172-14.423.858-35.539-14.738-41.089-17.389C5.455 132.836 4 131.718 4 130.664v-10.557s40.024-8.69 46.487-11.035 8.689-2.4 14.195-.38 38.374 7.94 43.804 9.927v10.416c0 1.086-1.249 2.172-4.094 3.671z" class="cls-3"/><path d="M104.392 122.138c-5.572 2.91-34.464 14.782-40.655 17.986s-9.558 3.183-14.423.858-35.539-14.739-41.089-17.389-5.659-4.464-.217-6.593 36.016-14.12 42.479-16.444 8.689-2.4 14.195-.39 34.214 13.5 39.644 15.433 5.648 3.628.066 6.517z" class="cls-4"/><path d="M104.392 114.839c-5.572 2.91-34.464 14.793-40.655 17.997s-9.558 3.172-14.423.847-35.539-14.738-41.089-17.388C5.455 114.98 4 113.862 4 112.808V102.24s40.024-8.69 46.487-11.024 8.689-2.4 14.195-.391 38.374 7.95 43.804 9.938v10.416c0 1.086-1.249 2.172-4.094 3.66z" class="cls-3"/><path d="M104.392 104.282c-5.572 2.867-34.464 14.815-40.655 17.986s-9.558 3.172-14.423.858-35.539-14.75-41.089-17.389-5.659-4.475-.217-6.603 36.016-14.12 42.479-16.445 8.689-2.4 14.195-.38 34.214 13.447 39.644 15.434 5.648 3.628.066 6.517z" class="cls-4"/></g><path fill="#fff" d="M57.883 89.271l6.897-2.259-1.868 4.464 7.016 2.629-9.047.945-2.031 4.876-3.269-5.441-10.46-.945 7.809-2.813-2.346-4.323 7.299 2.867zm.435 28.501l-16.901-7.017 24.21-3.714-7.309 10.731zM34.89 96.82c7.146 0 12.936 2.248 12.936 5.018s-5.811 5.018-12.936 5.018-12.947-2.248-12.947-5.018 5.8-5.018 12.947-5.018z"/><path fill="#741113" d="M80.638 95.441l14.326 5.658-14.315 5.659-.011-11.317z"/><path fill="#ac2724" d="M80.638 95.441l.011 11.317-1.554.608-14.315-5.658 15.858-6.267z"/><path fill="#494c4d" d="M274.165 76.249a1.727 1.727 0 0 1 3.443 0v45.856a1.727 1.727 0 0 1-3.443 0zm44.163 14.771v31.085a1.694 1.694 0 0 1-3.378 0v-5.18a16.053 16.053 0 0 1-12.936 6.82c-9.07 0-16.292-7.798-16.292-17.226s7.244-17.226 16.292-17.226a16.02 16.02 0 0 1 12.936 6.745V91.02a1.694 1.694 0 0 1 3.378 0zm-3.378 15.543c0-7.734-5.833-13.925-12.936-13.925s-12.936 6.191-12.936 13.925 5.898 13.859 12.936 13.859 12.936-6.126 12.936-13.86zm13.435.771V76.249a1.727 1.727 0 0 1 3.443 0V96.08a16.455 16.455 0 0 1 13.219-6.744c9.286 0 16.672 7.733 16.672 17.302a16.9 16.9 0 0 1-16.647 17.15h-.025a16.368 16.368 0 0 1-13.219-6.68v4.996a1.727 1.727 0 0 1-3.443 0zm3.443-.695a13.23 13.23 0 1 0 26.437 1.072q.022-.536 0-1.072c0-7.668-5.898-13.86-13.218-13.86a13.544 13.544 0 0 0-13.219 13.284zm37.407 9.981a1.662 1.662 0 0 1 2.337-.25l.052.044c2.39 1.749 6.191 4.008 10.558 4.008a10.394 10.394 0 0 0 6.516-2.118 5.214 5.214 0 0 0 2.596-4.214c-.065-1.619-.706-2.748-2.454-4.225-1.478-1.087-3.943-1.966-7.32-2.531l-.142-.065c-3.096-.565-5.833-1.271-7.799-2.672a7.212 7.212 0 0 1-3.736-6.191 8.548 8.548 0 0 1 3.736-6.756 14.837 14.837 0 0 1 8.44-2.313c4.42 0 7.603 2.041 10.264 3.725a1.781 1.781 0 0 1 .488 2.39 1.684 1.684 0 0 1-2.324.488c-2.53-1.683-5.061-3.443-8.428-3.443a10.362 10.362 0 0 0-6.517 1.966 5.203 5.203 0 0 0-2.216 3.997 4.17 4.17 0 0 0 1.966 3.443 17.28 17.28 0 0 0 7.027 2.39h.142a24.08 24.08 0 0 1 8.374 2.813 8.602 8.602 0 0 1 3.866 7.038 8.776 8.776 0 0 1-3.942 6.962 14.022 14.022 0 0 1-8.57 2.737 20.897 20.897 0 0 1-12.73-4.92 1.575 1.575 0 0 1-.262-2.212q.037-.047.078-.09zM141.776 93.833a12.208 12.208 0 0 1 4.443-3.095 14.25 14.25 0 0 1 5.213-1.152 4.757 4.757 0 0 1 3.54 1.152 3.52 3.52 0 0 1 1.087 2.704 3.812 3.812 0 0 1-1.086 2.705 3.508 3.508 0 0 1-2.705 1.162c-4.453.39-10.633 4.833-10.633 10.861v13.685a3.975 3.975 0 0 1-3.867 3.867 3.508 3.508 0 0 1-2.758-1.195 3.823 3.823 0 0 1-1.162-2.704V93.258a3.823 3.823 0 0 1 1.162-2.705 5.16 5.16 0 0 1 2.9-.967 3.953 3.953 0 0 1 3.866 3.856zm46.867 12.556a3.725 3.725 0 0 1-.967 2.52 4.345 4.345 0 0 1-2.704 1.162h-22.809a7.375 7.375 0 0 0 2.476 4.681 10.318 10.318 0 0 0 6.767 3.259 10.068 10.068 0 0 0 7.538-1.738 3.943 3.943 0 0 1 2.9-1.162 3.334 3.334 0 0 1 2.509.966 3.15 3.15 0 0 1 .187 4.45q-.09.098-.187.188a17.454 17.454 0 0 1-12.556 4.638 16.411 16.411 0 0 1-12.566-5.43 19.04 19.04 0 0 1-5.214-12.774 17.378 17.378 0 0 1 5.214-12.762 16.097 16.097 0 0 1 12.175-5.213 15.695 15.695 0 0 1 11.948 4.833 17.704 17.704 0 0 1 5.43 11.947v.38zM171.44 96.147a10.112 10.112 0 0 0-6.517 2.52 9.384 9.384 0 0 0-3.085 5.017h20.29a8.83 8.83 0 0 0-3.487-4.822 12.338 12.338 0 0 0-7.147-2.715m53.513 25.317a3.823 3.823 0 0 1-1.162 2.705 3.78 3.78 0 0 1-2.705 1.162 4.17 4.17 0 0 1-3.866-3.095 16.542 16.542 0 0 1-9.852 3.095 16.803 16.803 0 0 1-12.37-5.213 17.215 17.215 0 0 1-5.03-12.762 18.334 18.334 0 0 1 5.03-12.752 16.998 16.998 0 0 1 12.37-5.43 15.966 15.966 0 0 1 9.656 3.095V78.758a3.508 3.508 0 0 1 1.162-2.705 3.823 3.823 0 0 1 2.705-1.162 3.508 3.508 0 0 1 2.704 1.162 3.823 3.823 0 0 1 1.162 2.705v42.706zm-17.378-3.866a8.602 8.602 0 0 0 6.755-3.085 10.275 10.275 0 0 0 0-14.304 9.243 9.243 0 0 0-6.755-3.096 8.32 8.32 0 0 0-6.767 3.096 10.275 10.275 0 0 0 0 14.304 8.917 8.917 0 0 0 6.767 3.085m28.804-38.84v1.553a3.932 3.932 0 0 1-1.184 2.943 3.345 3.345 0 0 1-2.704.967 3.497 3.497 0 0 1-2.705-1.151 3.91 3.91 0 0 1-1.162-2.9v-1.412a3.78 3.78 0 0 1 1.162-2.705 3.823 3.823 0 0 1 2.705-1.162 4.012 4.012 0 0 1 3.888 3.867m-6.517 11.795a3.78 3.78 0 0 1 2.705-1.162 3.486 3.486 0 0 1 2.704 1.162 3.932 3.932 0 0 1 1.108 2.89v28.239a3.258 3.258 0 0 1-1.162 2.704 3.823 3.823 0 0 1-2.705 1.162 3.508 3.508 0 0 1-2.704-1.162 3.78 3.78 0 0 1-1.162-2.704v-28.24a3.888 3.888 0 0 1 1.162-2.889m33.985 2.705a3.79 3.79 0 0 1 1.542 2.313 5.105 5.105 0 0 1-.38 2.9 3.845 3.845 0 0 1-2.324 1.542 3.986 3.986 0 0 1-2.9-.575c-2.705-1.738-4.822-2.705-6.571-2.705a6.234 6.234 0 0 0-4.247 1.347c-.771.587-1.162.967-1.162 1.358a1.434 1.434 0 0 0 .195.966 2.585 2.585 0 0 0 .772.576 11.513 11.513 0 0 0 5.224 1.738 26.741 26.741 0 0 1 6.951 2.172 9.645 9.645 0 0 1 4.638 4.062 9.608 9.608 0 0 1-2.9 13.327 15.554 15.554 0 0 1-9.276 2.9c-4.442 0-8.689-1.738-12.75-5.018a4.106 4.106 0 0 1-1.359-2.52 3.715 3.715 0 0 1 5.996-3.258 11.209 11.209 0 0 0 7.918 3.095 8.276 8.276 0 0 0 4.833-1.357c.771-.771 1.358-1.347 1.358-1.934s0-.77-.196-.966c0-.196-.39-.576-.966-.771a14.457 14.457 0 0 0-5.8-2.042 20.072 20.072 0 0 1-6.571-2.173 11.817 11.817 0 0 1-4.638-4.05 9.004 9.004 0 0 1-1.152-4.443 9.504 9.504 0 0 1 4.247-7.929 15.586 15.586 0 0 1 8.885-2.705c3.258.196 6.766 1.543 10.633 4.063m-114.696 67.34h-2.574v-8.602h-10.188v8.602h-2.574v-18.91h2.574v8.44h10.188v-8.44h2.574zm27.469-9.449a10.97 10.97 0 0 1-.674 3.899 9.178 9.178 0 0 1-1.9 3.063A8.559 8.559 0 0 1 171.09 160a10.59 10.59 0 0 1-7.603 0 8.418 8.418 0 0 1-2.943-1.977 8.841 8.841 0 0 1-1.901-3.085 11.622 11.622 0 0 1 0-7.798 8.841 8.841 0 0 1 1.9-3.063 8.472 8.472 0 0 1 2.944-1.999 10.59 10.59 0 0 1 7.603 0 8.613 8.613 0 0 1 2.954 1.999 9.178 9.178 0 0 1 1.901 3.063 11.013 11.013 0 0 1 .674 3.92zm-2.629 0a9.656 9.656 0 0 0-.478-3.128 6.408 6.408 0 0 0-1.347-2.336 5.822 5.822 0 0 0-2.107-1.52 7.744 7.744 0 0 0-5.528 0 5.963 5.963 0 0 0-2.172 1.477A6.43 6.43 0 0 0 161 147.89a10.481 10.481 0 0 0 0 6.256 6.615 6.615 0 0 0 1.358 2.335 6.072 6.072 0 0 0 2.172 1.467 7.896 7.896 0 0 0 5.528 0 5.93 5.93 0 0 0 2.107-1.467 6.593 6.593 0 0 0 1.347-2.335 9.656 9.656 0 0 0 .478-3.084zm21.028 3.28c.087.239.184.467.271.706a10.5 10.5 0 0 1 .272-.706 6.488 6.488 0 0 1 .336-.674l6.398-11.632a.739.739 0 0 1 .358-.37 1.608 1.608 0 0 1 .522-.065h1.89v18.91h-2.249v-15.13l-6.517 11.817a1.01 1.01 0 0 1-.923.598h-.217a1 1 0 0 1-.923-.598l-6.68-11.86a2.776 2.776 0 0 0 .054.673 2.277 2.277 0 0 1 0 .608v13.892h-2.226v-18.91h1.879a1.727 1.727 0 0 1 .532.066.836.836 0 0 1 .358.369l6.517 11.643a6.257 6.257 0 0 1 .348.663zm31.639-12.741v2.086h-9.08v6.278h7.353v2.009h-7.353v6.452h9.08v2.085h-11.709v-18.91zm36.842 9.461a10.97 10.97 0 0 1-.674 3.877 9.004 9.004 0 0 1-1.9 3.063 8.461 8.461 0 0 1-2.955 1.977 10.59 10.59 0 0 1-7.603 0 8.515 8.515 0 0 1-2.943-1.977 9.004 9.004 0 0 1-1.901-3.063 11.622 11.622 0 0 1 0-7.798 9.004 9.004 0 0 1 1.9-3.063 8.57 8.57 0 0 1 2.944-1.999 10.59 10.59 0 0 1 7.603 0 8.515 8.515 0 0 1 2.954 1.999 9.004 9.004 0 0 1 1.901 3.063 11.013 11.013 0 0 1 .674 3.92zm-2.629 0a9.656 9.656 0 0 0-.478-3.128 6.408 6.408 0 0 0-1.347-2.336 5.822 5.822 0 0 0-2.107-1.52 7.744 7.744 0 0 0-5.528 0 5.963 5.963 0 0 0-2.118 1.477 6.582 6.582 0 0 0-1.358 2.335 10.71 10.71 0 0 0 0 6.256 6.788 6.788 0 0 0 1.358 2.335 6.072 6.072 0 0 0 2.118 1.467 7.896 7.896 0 0 0 5.528 0 5.93 5.93 0 0 0 2.107-1.467 6.593 6.593 0 0 0 1.347-2.335 9.656 9.656 0 0 0 .478-3.084zm23.059-9.461v2.086h-9.08v6.614h7.755v2.086h-7.755v8.124h-2.574v-18.91zm21.744 11.025v7.885h-2.552v-18.91h5.344a11.328 11.328 0 0 1 3.106.37 5.985 5.985 0 0 1 2.172 1.086 4.344 4.344 0 0 1 1.26 1.662 5.898 5.898 0 0 1 .087 4.04 4.898 4.898 0 0 1-.912 1.564 5.43 5.43 0 0 1-1.467 1.184 7.397 7.397 0 0 1-1.966.739 2.694 2.694 0 0 1 .848.803l5.517 7.505h-2.27a1.086 1.086 0 0 1-1.032-.543l-4.909-6.755a1.477 1.477 0 0 0-.489-.457 1.836 1.836 0 0 0-.793-.13zm0-1.868h2.672a6.397 6.397 0 0 0 1.944-.272 3.953 3.953 0 0 0 1.423-.76 3.106 3.106 0 0 0 .869-1.184 3.78 3.78 0 0 0 .293-1.51 3.041 3.041 0 0 0-1.086-2.552 5.43 5.43 0 0 0-3.323-.858h-2.792zm31.118-9.157v2.086h-9.124v6.278h7.343v2.009h-7.343v6.452h9.08v2.085h-11.61v-18.91zm25.35 9.461a10.698 10.698 0 0 1-.673 3.866 8.354 8.354 0 0 1-4.844 4.91 10.427 10.427 0 0 1-3.802.673h-7.07v-18.91h7.07a10.21 10.21 0 0 1 3.802.685 8.493 8.493 0 0 1 2.943 1.922 8.841 8.841 0 0 1 1.901 2.987 10.742 10.742 0 0 1 .673 3.867zm-2.628 0a9.47 9.47 0 0 0-.478-3.107 6.365 6.365 0 0 0-1.347-2.324 5.648 5.648 0 0 0-2.107-1.455 7.255 7.255 0 0 0-2.759-.5h-4.518v14.76h4.497a7.255 7.255 0 0 0 2.758-.5 5.746 5.746 0 0 0 2.108-1.444 6.408 6.408 0 0 0 1.346-2.313 9.536 9.536 0 0 0 .5-3.117zm14.424 9.449h-2.563v-18.91h2.563zm19.985-15.955a1.086 1.086 0 0 1-.25.304.576.576 0 0 1-.348.098.956.956 0 0 1-.521-.228 6.45 6.45 0 0 0-.75-.49 5.779 5.779 0 0 0-1.086-.499 4.616 4.616 0 0 0-1.542-.228 4.345 4.345 0 0 0-1.52.239 3.259 3.259 0 0 0-1.087.62 2.672 2.672 0 0 0-.662.933 2.9 2.9 0 0 0-.228 1.152 2.172 2.172 0 0 0 .39 1.314 3.313 3.313 0 0 0 1.033.89 7.832 7.832 0 0 0 1.455.641l1.662.565q.847.293 1.662.652a5.626 5.626 0 0 1 1.444.912 4.138 4.138 0 0 1 1.032 1.358 4.562 4.562 0 0 1 .391 1.987 6.354 6.354 0 0 1-.424 2.325 5.43 5.43 0 0 1-1.227 1.89 5.626 5.626 0 0 1-1.998 1.27 7.386 7.386 0 0 1-2.683.467 8.179 8.179 0 0 1-3.345-.673 7.853 7.853 0 0 1-2.585-1.803l.738-1.206a1.087 1.087 0 0 1 .26-.25.608.608 0 0 1 .337-.097 1.086 1.086 0 0 1 .63.293 8.69 8.69 0 0 0 .891.652 7.516 7.516 0 0 0 1.293.662 5.203 5.203 0 0 0 1.857.293 5.028 5.028 0 0 0 1.629-.25 3.497 3.497 0 0 0 1.206-.705 3.258 3.258 0 0 0 .76-1.087 3.671 3.671 0 0 0 .26-1.412 2.379 2.379 0 0 0-.39-1.412 3.334 3.334 0 0 0-1.021-.912 7.06 7.06 0 0 0-1.445-.63l-1.65-.51a16.905 16.905 0 0 1-1.663-.63 5.43 5.43 0 0 1-1.444-.924 4.149 4.149 0 0 1-1.021-1.422 5.029 5.029 0 0 1-.391-2.107 4.964 4.964 0 0 1 .39-1.934 4.779 4.779 0 0 1 1.087-1.662 5.528 5.528 0 0 1 1.836-1.162 6.582 6.582 0 0 1 2.498-.434 7.95 7.95 0 0 1 2.889.5 6.604 6.604 0 0 1 2.28 1.455z"/></svg>