<svg xmlns="http://www.w3.org/2000/svg" role="img" viewBox="-6.73 -7.73 635.96 215.96"><title>REPLY logo</title><defs><style>.cls-2{fill:#df0433}</style></defs><path fill="#fefdfd" d="M109.985 41.92c-11.977 12.895-23.834 24.651-34.44 37.445-6.729 8.115-14.478 11.43-24.627 12.34-13.906 1.245-27.695 3.785-41.537 5.749-2.343.332-4.594.853-3.482 3.96 1.522 4.258 8.32 8.554 13.012 8.489 13.662-.191 27.335-.806 40.981-.433 10.55.288 20.152-1.44 28.458-8.238 2.276-1.863 4.075-1.787 6.462.197 7.812 6.494 15.81 12.767 23.836 18.996a9.935 9.935 0 0 1 3.922 7.145c1.497 11.721 3.319 23.403 4.705 35.137.481 4.075 1.932 6.038 6.247 5.808 4.647-.248 4.693-3.404 4.71-6.681.069-12.997.038-25.995.189-38.99a16.564 16.564 0 0 0-3.493-10.642c-7.224-9.568-14.226-19.304-21.484-28.846-1.587-2.087-1.696-3.42-.035-5.525q8.045-10.194 15.684-20.708c11.578-15.87 11.194-9.55 1.277-26.632-2.13-3.67-4.812-4.877-8.942-4.795-15.824.313-31.654.33-47.481.456-2.166.017-4.342-.1-6.495.074-2.525.203-2.89 1.808-1.184 3.258 2.99 2.54 5.721 5.397 10.048 6.122 10.95 1.835 21.833 4.066 33.669 6.315zm58.831-21.128a16.318 16.318 0 0 0-32.636.004 16.32 16.32 0 1 0 32.636-.004z"/><path d="M109.985 41.92c-11.836-2.248-22.72-4.48-33.67-6.314-4.326-.725-7.057-3.581-10.047-6.122-1.706-1.45-1.341-3.055 1.184-3.258 2.153-.173 4.329-.057 6.495-.074 15.827-.126 31.657-.143 47.48-.456 4.13-.082 6.812 1.125 8.943 4.795 9.917 17.082 10.301 10.763-1.277 26.632q-7.655 10.492-15.684 20.708c-1.66 2.105-1.552 3.438.035 5.525 7.258 9.542 14.26 19.278 21.484 28.846a16.564 16.564 0 0 1 3.493 10.642c-.151 12.995-.12 25.993-.188 38.99-.018 3.277-.064 6.433-4.711 6.68-4.315.23-5.766-1.732-6.247-5.807-1.386-11.734-3.208-23.416-4.705-35.137a9.935 9.935 0 0 0-3.922-7.145c-8.027-6.229-16.024-12.502-23.836-18.996-2.387-1.985-4.186-2.06-6.462-.197-8.306 6.799-17.908 8.526-28.458 8.238-13.646-.373-27.32.242-40.98.433-4.694.065-11.491-4.231-13.013-8.489-1.112-3.107 1.139-3.628 3.482-3.96 13.842-1.964 27.632-4.504 41.537-5.75 10.149-.909 17.898-4.224 24.626-12.34 10.607-12.793 22.464-24.55 34.441-37.443zm58.831-21.128a16.32 16.32 0 1 1-32.635.004 16.318 16.318 0 0 1 32.635-.004z" class="cls-2"/><path fill="#03434b" d="M202.882 33.579h43.223c12.02 0 21.34 3.377 27.554 9.59 5.267 5.268 8.104 12.697 8.104 21.612v.27c0 15.263-8.24 24.853-20.26 29.31L284.6 128.13h-24.313l-20.261-30.256h-16.343v30.256h-20.801zm41.871 45.924c10.13 0 15.939-5.403 15.939-13.372v-.27c0-8.914-6.213-13.507-16.344-13.507h-20.665v27.15zm52.404-45.924h71.318v18.505h-50.652v19.18h44.574v18.504h-44.574v19.856h51.327v18.505h-71.993zm87.118 0h38.631c22.557 0 36.199 13.372 36.199 32.687v.27c0 21.882-17.019 33.228-38.225 33.228h-15.804v28.365h-20.8zm37.28 47.68c10.401 0 16.48-6.213 16.48-14.317v-.27c0-9.32-6.484-14.318-16.885-14.318h-16.074v28.905zm49.569-47.68h20.8v75.64h47.14v18.91h-67.94zm89.28 57.271L524.07 33.578h24.313l22.556 37.955 22.962-37.955h23.638l-36.334 56.865v37.685h-20.8z"/><path d="M202.915 175.552v-.114c0-11.396 8.532-20.73 20.672-20.73a20.896 20.896 0 0 1 15.691 6.242l-4.524 5.21c-3.207-2.977-6.643-4.981-11.224-4.981-7.674 0-13.228 6.3-13.228 14.145v.114c0 7.846 5.554 14.26 13.228 14.26 4.925 0 8.075-2.005 11.51-5.212l4.525 4.581c-4.18 4.353-8.762 7.102-16.264 7.102-11.682 0-20.386-9.106-20.386-20.617zm39.685 0v-.114a20.539 20.539 0 0 1 21.016-20.73c12.312 0 20.902 9.334 20.902 20.616v.114a20.539 20.539 0 0 1-21.016 20.73c-12.313 0-20.902-9.334-20.902-20.616zm34.53 0v-.114c0-7.788-5.669-14.26-13.628-14.26s-13.515 6.357-13.515 14.146v.114c0 7.788 5.67 14.259 13.63 14.259s13.514-6.356 13.514-14.145zm14.488-20.157h6.529l21.474 27.717v-27.717h6.93v40.086h-5.899l-22.105-28.518v28.518h-6.929zm42.033 20.157v-.114c0-11.396 8.533-20.73 20.673-20.73a20.896 20.896 0 0 1 15.692 6.242l-4.525 5.21c-3.207-2.977-6.642-4.981-11.224-4.981-7.673 0-13.229 6.3-13.229 14.145v.114c0 7.846 5.556 14.26 13.229 14.26 4.925 0 8.075-2.005 11.51-5.212l4.525 4.581c-4.18 4.353-8.762 7.102-16.264 7.102-11.683 0-20.387-9.106-20.387-20.617zm42.605-20.157h29.72v6.3H383.3v10.422h20.1v6.299h-20.1v10.766h22.964v6.3h-30.007zm36.936 0h15.805c9.335 0 15.233 5.325 15.233 13.4v.115c0 8.99-7.215 13.686-16.034 13.686h-7.96v12.885h-7.044zm15.233 20.845c5.326 0 8.647-2.979 8.647-7.158v-.115c0-4.696-3.379-7.159-8.647-7.159h-8.19v14.432zm31.438-14.316H447.15v-6.529h32.527v6.529h-12.713v33.557h-7.1z" class="cls-2"/></svg>