<svg xmlns="http://www.w3.org/2000/svg" role="img" viewBox="-17.30 -19.30 1055.60 248.60"><title>Robin.io logo</title><style>svg {enable-background:new 0 0 1020 209}</style><linearGradient id="a" x1="13.933" x2="202.733" y1="199.769" y2="10.97" gradientUnits="userSpaceOnUse"><stop offset="0" stop-color="#99ca3c"/><stop offset=".512" stop-color="#62b3e4"/><stop offset="1" stop-color="#0970b8"/></linearGradient><path fill="url(#a)" d="M178.7 1H37.9c-18.7 0-34 15.3-34 34v140.8c0 6.9 2.1 13.4 5.7 18.7v.1l2.4 2.8c2.1 2.6 4.5 4.9 7.3 6.7l1.8 1.3.3-.1c4.9 2.8 10.5 4.5 16.6 4.5h140.8c18.7 0 34-15.3 34-34V35c-.1-18.7-15.4-34-34.1-34zm0 10.1c13.2 0 23.9 10.7 23.9 23.9v66.5L22.2 193.6 139.3 11.1h39.4zM13.9 175.8V35c0-13.2 10.7-23.9 23.9-23.9h89.4L15.8 184.9c-1.2-2.8-1.9-5.9-1.9-9.1zm188.7 0c0 13.2-10.7 23.9-23.9 23.9H37.9c-1.5 0-2.7-.6-4.1-.8l168.9-86.1v63z"/><path fill="#0970b8" d="M186.7 55.9c6.5 0 11.9-5.3 11.9-11.9 0-6.5-5.3-11.8-11.9-11.8s-11.9 5.3-11.9 11.8c0 6.6 5.3 11.9 11.9 11.9z"/><path fill="#174d8d" d="M277.4 173.4V51h101.4c9.4 0 16.3 1.9 20.5 5.6 4.2 3.7 6.3 9.8 6.3 18.1v28.7c0 8.3-2.1 14.3-6.3 18.1-4.2 3.8-11 5.7-20.5 5.7h-15.5l54.8 46.2h-39.6l-47.8-46.2h-26.1v46.2h-27.2zm89.2-101.2h-62.1v34h62.1c4.8 0 8.1-.7 9.8-2.1 1.7-1.4 2.6-4 2.6-7.6V81.8c0-3.5-.9-6-2.6-7.5-1.7-1.4-5-2.1-9.8-2.1m78.8 7.8c0-11.1 2-18.7 6.1-22.8 4-4.1 11.8-6.1 23.3-6.1h87.3c11.5 0 19.3 2.1 23.3 6.1 4 4.1 6.1 11.7 6.1 22.8v64.5c0 11.2-2 18.8-6.1 22.9-4 4.1-11.8 6.1-23.3 6.1h-87.3c-11.5 0-19.3-2-23.3-6.1s-6.1-11.7-6.1-22.9V80zm27.6 70.4h91V72.9h-91v77.5zm162.8 23V51h101.7c9.3 0 16.1 1.9 20.3 5.7 4.2 3.8 6.3 9.8 6.3 18.1v14.9c0 5.9-1.8 10.6-5.3 14.1s-8.6 5.7-15.1 6.5c6.8.9 12.1 3.4 15.8 7.5 3.7 4.1 5.6 9.4 5.6 16v15.6c0 8.1-2.9 14.1-8.7 18.1-5.8 3.9-14.5 5.9-26.2 5.9h-94.4zM725.9 71h-63v29.2h63c4.8 0 8.1-.7 9.9-2 1.8-1.3 2.7-3.6 2.7-6.8V79.7c0-3.2-.9-5.4-2.7-6.8-1.8-1.3-5.1-1.9-9.9-1.9m0 49.3h-63v31.1h63c5.2 0 8.8-.8 10.6-2.4 1.8-1.6 2.7-4.5 2.7-8.6v-9.3c0-4.1-.9-6.9-2.7-8.5-1.8-1.5-5.3-2.3-10.6-2.3M804.5 51h27.6v122.4h-27.6zm74.2 122.4V51h18.8l83.5 72.1c2.9 2.4 5.3 4.7 7.5 6.8 2.2 2.1 4.2 4.3 6 6.5-.5-6.9-.7-11.7-.9-14.6-.2-2.8-.2-5-.2-6.6V51h24.8v122.4h-18.8l-87.1-75.6c-2.1-1.9-3.9-3.7-5.5-5.2s-3-3.1-4.4-4.7c.4 3.8.6 7.3.8 10.7.2 3.4.3 6.3.3 8.7v66.1h-24.8z"/></svg>