<svg xmlns="http://www.w3.org/2000/svg" role="img" viewBox="-6.95 28.30 413.66 188.16"><title>SAIC Foundation logo</title><style>svg {enable-background:new 0 0 400 245}</style><path fill="#0068b6" fill-rule="evenodd" d="M16.8 188.9c.8 2.1 2.2 3.7 4.1 4.8 1.9 1.1 4.2 1.6 7 1.6 2.3 0 4.1-.4 5.4-1.2 1.3-.8 2-2 2-3.4 0-2-2.6-3.8-7.8-5.5-1.5-.4-2.6-.8-3.4-1.1-5.8-2-9.9-4.3-12.5-6.9-2.6-2.7-3.9-5.9-3.9-9.8 0-5.1 2.2-9.3 6.5-12.7 4.3-3.4 9.8-5.1 16.4-5.1 6 0 11.1 1.3 15.4 3.8 4.3 2.5 7.2 5.9 8.6 10.2l-14.5 3.7c-.6-1.8-1.7-3.2-3.3-4.2-1.6-1-3.6-1.5-5.9-1.5-1.9 0-3.4.4-4.5 1.2-1.1.8-1.7 1.8-1.7 3.1 0 1.8 2.3 3.4 6.8 5 .6.2 1 .4 1.3.5 7.3 2.6 12.4 5.2 15.2 7.9 2.8 2.7 4.2 6.1 4.2 10.2 0 5.5-2.3 9.9-7 13.4s-10.7 5.3-18.1 5.3c-6.7 0-12.3-1.4-16.9-4.2-4.6-2.8-7.7-6.7-9.2-11.6l15.8-3.5zm342.3 18.6l7.8-44.1h-13.5l2.3-13.2H399l-2.3 13.2H384l-7.8 44.1h-17.1zm-59 0l10.2-57.3H352l-2.1 12.4h-25.6l-1.7 9.2h21.7l-2.3 12.4h-21.7l-1.7 10h27l-2.4 13.4h-43.1v-.1zm-52.7 0H260l6.5-36.1 17.6 36.1h12.7l10.1-57.3h-12.6l-5.8 32.5-15.5-32.5h-15.4l-10.2 57.3zm-29.7-33h7.1c3 0 5.3-.6 6.9-1.8 1.7-1.2 2.5-2.8 2.5-4.8 0-2.3-.6-3.9-2-4.9-1.3-1-3.4-1.5-6.3-1.5H220l-2.3 13zm-22 33l10.2-57.3h24.6c6.8 0 11.9 1.4 15.5 4.2 3.6 2.8 5.3 6.9 5.3 12.2 0 4-1.1 7.5-3.3 10.4-2.2 2.9-5.2 5-9 6.3l6.2 24.2h-16.7l-4.9-22.1h-7.8l-3.9 22.1h-16.2zm-45.2 0h43.2l2.4-13.4h-27l1.7-10h21.7l2.3-12.4H173l1.7-9.2h25.6l2.1-12.4h-41.8l-10.1 57.4zm-26.6-32.8h5.1c2.8 0 5-.6 6.6-1.8 1.6-1.2 2.4-2.8 2.4-4.8s-.7-3.6-2-4.7-3.3-1.6-5.8-1.6H126l-2.1 12.9zm-22.5 32.8l10.2-57.3h21.8c6.9 0 12.2 1.5 15.8 4.5 3.6 3 5.4 7.4 5.4 13.1 0 5.7-1.9 10.2-5.8 13.5-3.9 3.3-9.2 5-15.9 5h-11.1l-3.7 21.1h-16.7v.1zm-39.9-57.3l-6 34.1c-.2 1.3-.4 2.6-.6 3.7-.1 1.2-.2 2.3-.2 3.3 0 5.5 1.9 9.7 5.8 12.8 3.8 3.1 9.2 4.6 16.1 4.6 4 0 7.6-.6 10.8-1.7 3.2-1.1 5.9-2.8 8.1-5 1.5-1.6 2.8-3.5 3.8-5.9 1-2.3 1.8-5.3 2.4-9l6.5-36.9h-13L89 185.7c-.6 3.5-1.7 6.1-3.1 7.7-1.4 1.6-3.4 2.4-5.9 2.4-2.4 0-4.3-.6-5.6-1.8-1.3-1.2-2-2.9-2-5 0-.4 0-.9.1-1.3.1-.5.1-1 .2-1.5l6.4-35.9H61.5z" clip-rule="evenodd"/><linearGradient id="a" x1="41.457" x2="36.147" y1="124.677" y2="25.245" gradientUnits="userSpaceOnUse"><stop offset="0" stop-color="#0055a5"/><stop offset=".373" stop-color="#0077c3"/><stop offset=".774" stop-color="#0095de"/><stop offset="1" stop-color="#00a0e8"/></linearGradient><path fill="url(#a)" fill-rule="evenodd" d="M10.2 126.7l12.3-69H1L4.7 37h69l-3.8 20.7H49.7l-12.3 69z" clip-rule="evenodd"/><linearGradient id="b" x1="104.49" x2="99.711" y1="126.063" y2="25.045" gradientUnits="userSpaceOnUse"><stop offset="0" stop-color="#0055a5"/><stop offset=".373" stop-color="#0077c3"/><stop offset=".774" stop-color="#0095de"/><stop offset="1" stop-color="#00a0e8"/></linearGradient><path fill="url(#b)" fill-rule="evenodd" d="M61.1 126.7l16.1-90.4h66.5l-3.4 19.5H99.7l-2.8 14.5h34.6l-3.6 19.5H93.4l-2.8 15.8h43l-3.8 21.1z" clip-rule="evenodd"/><linearGradient id="c" x1="179.721" x2="175.365" y1="124.87" y2="27.376" gradientUnits="userSpaceOnUse"><stop offset="0" stop-color="#0055a5"/><stop offset=".373" stop-color="#0077c3"/><stop offset=".774" stop-color="#0095de"/><stop offset="1" stop-color="#00a0e8"/></linearGradient><path fill="url(#c)" fill-rule="evenodd" d="M160 97.2c1.3 3.2 3.5 5.6 6.6 7.3 3.1 1.7 6.9 2.5 11.3 2.5 3.7 0 6.6-.6 8.8-1.9 2.1-1.3 3.2-3 3.2-5.2 0-3.1-4.2-5.9-12.7-8.4-2.4-.7-4.2-1.3-5.6-1.7-9.3-3-16.1-6.5-20.3-10.6-4.2-4.1-6.3-9.1-6.3-15.1 0-7.8 3.5-14.3 10.6-19.5 7-5.2 15.9-7.8 26.6-7.8 9.7 0 18 1.9 24.9 5.8 6.9 3.9 11.6 9.1 13.9 15.7L197.5 64c-.9-2.8-2.7-4.9-5.4-6.5-2.6-1.6-5.8-2.3-9.6-2.3-3 0-5.5.6-7.3 1.8-1.9 1.2-2.8 2.8-2.8 4.7 0 2.7 3.7 5.3 11.1 7.7.9.3 1.7.6 2.2.7 11.9 3.9 20.1 8 24.7 12.1 4.6 4.1 6.9 9.3 6.9 15.7 0 8.4-3.8 15.3-11.3 20.6-7.6 5.4-17.4 8.1-29.4 8.1-10.8 0-20-2.1-27.4-6.4-7.4-4.3-12.4-10.2-14.8-17.8l25.6-5.2z" clip-rule="evenodd"/><linearGradient id="d" x1="260.46" x2="256.045" y1="126.329" y2="25.719" gradientUnits="userSpaceOnUse"><stop offset="0" stop-color="#0055a5"/><stop offset=".373" stop-color="#0077c3"/><stop offset=".774" stop-color="#0095de"/><stop offset="1" stop-color="#00a0e8"/></linearGradient><path fill="url(#d)" fill-rule="evenodd" d="M249.8 75h11.3c4.7 0 8.4-.9 11-2.8 2.6-1.9 3.9-4.4 3.9-7.6 0-3.5-1-6.1-3.1-7.7-2.1-1.6-5.4-2.4-10.1-2.4h-9.4L249.8 75zm-35 51.7L231 37h39.1c10.8 0 19 2.2 24.6 6.6 5.6 4.4 8.5 10.8 8.5 19.1 0 6.3-1.7 11.7-5.2 16.3-3.5 4.6-8.3 7.9-14.4 9.8l9.9 37.9H267l-7.8-34.6h-12.4l-6.2 34.6h-25.8z" clip-rule="evenodd"/><linearGradient id="e" x1="337.919" x2="333.387" y1="126.831" y2="27.087" gradientUnits="userSpaceOnUse"><stop offset="0" stop-color="#0055a5"/><stop offset=".373" stop-color="#0077c3"/><stop offset=".774" stop-color="#0095de"/><stop offset="1" stop-color="#00a0e8"/></linearGradient><path fill="url(#e)" fill-rule="evenodd" d="M332.7 90.5h17.5l-3.9-31-13.6 31zm-37.5 36.2L337.4 37h28.2l15 89.7h-25.7l-2.4-18.2H325l-8.4 18.2h-21.4z" clip-rule="evenodd"/><linearGradient id="f" x1="390.461" x2="389.327" y1="56.918" y2="34.217" gradientUnits="userSpaceOnUse"><stop offset="0" stop-color="#0055a5"/><stop offset=".373" stop-color="#0077c3"/><stop offset=".774" stop-color="#0095de"/><stop offset="1" stop-color="#00a0e8"/></linearGradient><path fill="url(#f)" fill-rule="evenodd" d="M390 36.5l4.5 2.6 4.5 2.6v10.4l-4.5 2.6-4.5 2.6-4.5-2.6-4.5-2.6V41.7l4.5-2.6 4.5-2.6zm0 4.3l-2.6 1.5-2.6 1.5v6l2.6 1.5L390 53l2.6-1.5 2.6-1.5v-6l-2.6-1.5-2.6-1.7z" clip-rule="evenodd"/></svg>