<svg xmlns="http://www.w3.org/2000/svg" role="img" viewBox="-10.27 -11.27 820.04 293.04"><title>Samsung Electronics logo</title><path fill="#034ea2" d="M793.901 66.909c-10.726-61.584-195.766-80.804-413.32-42.927-91.363 15.912-173.86 39.386-238.103 65.796 9.864.217 17.188 2.48 21.63 6.916 3.477 3.48 5.234 8.256 5.234 14.21v6.108h-21.33v-5.396c0-4.494-2.695-7.28-7.473-7.28-4.007 0-6.484 1.811-7.276 5.379a10.323 10.323 0 0 0 .088 4.259c2.283 9.332 33.957 15.123 37.41 32.35a41.068 41.068 0 0 1 .1 13.742c-1.976 13.886-14.18 19.248-29.714 19.248-21.68 0-30.49-10.273-30.49-24.427l.016-6.699h22.87l.011 8.342c0 4.69 3.409 7.28 8.053 7.28 4.399 0 6.97-1.77 7.857-5.398a10.571 10.571 0 0 0-.155-5.995c-4.23-10.619-33.813-15.578-37.452-32.742a28.758 28.758 0 0 1-.206-11.295 21.828 21.828 0 0 1 1.894-5.935C42.275 135.77.589 172.439 6.097 204.098c10.738 61.587 195.776 80.794 413.32 42.915 95.63-16.648 181.599-41.565 247.034-69.49-.951.047-1.864.149-2.846.149-14.89 0-28.183-5.58-29.564-20.798-.246-2.77-.292-3.929-.3-5.511l.008-34.984c0-1.507.177-4.155.346-5.524 1.764-14.708 13.392-20.773 29.51-20.773 12.472 0 27.769 3.58 29.45 20.784a50.544 50.544 0 0 1 .195 5.225v3.306H671.7v-4.932a20.1 20.1 0 0 0-.268-3.1c-.354-1.758-1.85-5.826-7.989-5.826-6.061 0-7.634 4.078-8.025 5.832a18.516 18.516 0 0 0-.33 3.877v38.024a17.116 17.116 0 0 0 .18 3.11c.108.603 1.193 5.84 8.245 5.84 7.01 0 8.088-5.237 8.187-5.84a18.025 18.025 0 0 0 .2-3.11v-11.783h-8.48V128.8h29.98v22.57a53.31 53.31 0 0 1-.292 5.505 21.225 21.225 0 0 1-3.591 10.259C758.935 134.186 799.337 98.11 793.9 66.909zM229.8 176.057l-10.913-74.16h-.393l-11.19 74.16h-23.008l15.47-83.746h37.524l15.377 83.746zm110.636 0l-.506-72.722h-.367l-13.54 72.722h-21.586l-13.467-72.722h-.382l-.49 72.722h-21.396l1.853-83.746h34.408l10.02 62.213h.489l10.04-62.214h34.392l1.848 83.747zm100.734-16.229c-2.302 16.223-18.193 19.052-29.422 19.052-18.65 0-30.185-7.966-30.185-24.191l.012-6.616h22.592l.018 8.242c0 4.476 3.159 7.217 8.027 7.217 4.347 0 6.89-1.747 7.772-5.33a10.619 10.619 0 0 0-.145-5.944c-4.16-10.416-33.51-15.518-37.078-32.416a28.2 28.2 0 0 1-.204-11.192c2.483-15.317 17.184-18.501 29.014-18.501 10.585 0 18.29 2.311 22.908 6.93 3.446 3.451 5.19 8.184 5.19 14.07v6.043h-21.127v-5.33c0-4.564-2.831-7.207-7.385-7.207-4.04 0-6.484 1.795-7.278 5.328a10.155 10.155 0 0 0 .103 4.211c2.26 9.287 33.659 14.963 37.096 32.024a40.946 40.946 0 0 1 .092 13.61zm78.25-7.606c.031 1.571-.123 4.708-.207 5.511-1.29 13.8-11.156 20.813-29.258 20.813-18.17 0-28.045-7.013-29.326-20.813-.088-.803-.245-3.94-.207-5.5V92.291h21.615v61.834a15.873 15.873 0 0 0 .184 3.117c.268 1.376 1.634 5.84 7.734 5.84 6.081 0 7.451-4.464 7.734-5.827a20.164 20.164 0 0 0 .193-3.13V92.291h21.538zm93.128 22.983H582.47l-20.188-66.336h-.338l1.12 66.336h-20.962V92.31h31.336l18.662 63.724h.437l-1.105-63.723h21.116z"/></svg>