<svg xmlns="http://www.w3.org/2000/svg" role="img" viewBox="-15.40 -23.40 1788.80 485.80"><title>Seagate Technology logo</title><path fill="#8b8c8e" d="M643.109 223.395a63.21 63.21 0 0 0-14.685-5.865 137.577 137.577 0 0 1-14.692-4.709 35.674 35.674 0 0 1-11.289-6.835q-4.544-4.193-4.543-12.07a18.846 18.846 0 0 1 1.138-6.102 16.738 16.738 0 0 1 3.937-6.235 20.737 20.737 0 0 1 7.435-4.707 31.842 31.842 0 0 1 11.632-1.84 28.384 28.384 0 0 1 13.118 2.97 22.776 22.776 0 0 1 8.916 7.88l13.647-12.427a33.424 33.424 0 0 0-16.276-11.369 66.926 66.926 0 0 0-19.405-2.798q-11.211 0-19.157 3.407a40.968 40.968 0 0 0-13.032 8.493 33.045 33.045 0 0 0-9.799 22.729q0 12.08 4.549 19.158a36.04 36.04 0 0 0 11.289 11.277 59.325 59.325 0 0 0 14.685 6.56q7.96 2.364 14.695 4.9a39.73 39.73 0 0 1 11.285 6.286q4.545 3.781 4.55 10.943a17.157 17.157 0 0 1-2.281 8.915 21.791 21.791 0 0 1-5.856 6.48 26.825 26.825 0 0 1-7.961 3.927 29.77 29.77 0 0 1-8.56 1.31 34.841 34.841 0 0 1-14.612-3.232 27.572 27.572 0 0 1-11.635-10.047l-13.814 11.877a36.914 36.914 0 0 0 16.96 12.943 60.942 60.942 0 0 0 22.566 4.214 52.505 52.505 0 0 0 16.796-2.636 40.553 40.553 0 0 0 13.638-7.525 35.814 35.814 0 0 0 9.19-12.062 37.251 37.251 0 0 0 3.403-16.099q0-11.177-4.54-17.571a34.123 34.123 0 0 0-11.292-10.14zm123.916 7.434h58.766v-15.741h-58.766v-36.915h63.145v-15.732h-79.934v123.833h83.089V270.51h-66.3v-39.681zM962.4 162.441l-54.573 123.833h19.599l12.232-30.61h58.939l12.423 30.61h19.583l-52.987-123.833zm-16.8 78.519l23.45-56.828h.343l23.082 56.828zm228.78-8.218h27.458v34.463a47.489 47.489 0 0 1-13.55 4.812 82.526 82.526 0 0 1-16.88 1.656 47.717 47.717 0 0 1-19.067-3.762 46.716 46.716 0 0 1-15.214-10.404 48.416 48.416 0 0 1-10.149-15.65 51.163 51.163 0 0 1-3.671-19.505 54.7 54.7 0 0 1 3.32-19.15 46.955 46.955 0 0 1 9.44-15.65 45.037 45.037 0 0 1 33.944-14.52 56.165 56.165 0 0 1 18.013 2.887 44.076 44.076 0 0 1 16.28 10.232l11.88-12.785a51.794 51.794 0 0 0-18.193-11.796q-10.857-4.285-27.98-4.282a66.41 66.41 0 0 0-26.067 4.994 60.623 60.623 0 0 0-20.377 13.72 63.757 63.757 0 0 0-13.304 20.63 68.27 68.27 0 0 0-4.788 25.72 69.987 69.987 0 0 0 4.454 24.934 60.897 60.897 0 0 0 12.942 20.716 62.013 62.013 0 0 0 20.805 14.175 71.363 71.363 0 0 0 28.081 5.25 109.971 109.971 0 0 0 11.97-.714 105.253 105.253 0 0 0 12.604-2.185 109.121 109.121 0 0 0 11.99-3.59 56.447 56.447 0 0 0 10.301-4.892v-61.035h-44.241zm180.164-70.301l-54.578 123.833h19.583l12.235-30.61h58.96l12.417 30.61h19.587l-52.982-123.833zm-16.802 78.519l23.452-56.828h.337l23.094 56.828zm137.471-62.787h39.883v108.101h16.79V178.173h39.884v-15.732h-96.557v15.732zm197.639 52.656h58.778v-15.741h-58.778v-36.915h63.142v-15.732h-79.92v123.833h83.072V270.51h-66.294v-39.681z"/><path fill="#70bf4b" fill-rule="evenodd" d="M238.647 428.332c-5.151-19.6-10.207-38.858-15.142-57.637 5.329-2.585 9.723-4.622 15.537-7.495 24.168-10.3 47.53-22.1 69.266-36.924 27.206-18.559 52.62-39.297 74.754-63.736 17.37-19.178 31.843-40.343 40.108-65.204 5.497-16.54 8.195-33.457 5.776-50.888a92.57 92.57 0 0 0-15.53-39.733 100.35 100.35 0 0 0-38.503-33.572c-19.638-9.915-40.582-13.575-62.382-12.933-19.333.575-37.951 4.828-56.077 11.45-33.35 12.183-63.939 29.604-93.297 49.314a117.011 117.011 0 0 0-23.244 20.239 32.471 32.471 0 0 0-7.772 14.614c-2.027 9.504 3.423 16.738 13.114 17.198 6.784.318 12.83-2.307 18.76-5.109 18.448-8.716 35.096-20.467 52.335-31.218 14.155-8.828 28.44-17.445 43.991-23.635 15.33-6.103 31.16-9.455 47.734-6.676 18.057 3.022 32.583 11.534 41.402 28.116 6.181 11.615 6.675 23.931 3.422 36.496-3.711 14.303-11.993 25.93-21.787 36.596a198.853 198.853 0 0 1-46.269 37.043c-18.027 10.576-35.9 21.47-54.387 31.186-21.627 11.367-44.664 19.424-68.134 26.231-19.71 5.719-39.751 8.301-60.208 6.49-17.146-1.523-33.295-6.499-47.528-16.415a76.649 76.649 0 0 1-28.091-35.49c-8.875-22.64-8.423-45.714-2.804-68.957 6.352-26.268 19.664-48.959 36.093-70.048C72.26 101.617 86.641 87.45 102.133 74.42a470.157 470.157 0 0 1 70.131-49.236c8.444-4.801 17.043-9.32 25.067-13.693 2.802 5.76 5.483 11.275 8.221 16.907-7.429 3.992-14.767 7.817-21.996 11.841a393.074 393.074 0 0 0-85.044 63.239 179.113 179.113 0 0 0-34.28 46.166c-9.25 18.11-14.216 37.265-12.024 57.71 2.4 22.38 12.89 39.577 33.498 49.897 12.299 6.16 25.425 7.996 38.96 7.7 18.655-.4 36.245-5.7 53.619-11.915 25.892-9.263 49.986-22.182 73.442-36.355 13.77-8.32 27.491-16.765 39.14-28.022 6.148-5.942 12.293-11.985 15.435-20.258 5.588-14.694-2.358-27.417-18.106-28.912-8.566-.812-16.339 2.035-23.912 5.543-20.02 9.26-38.018 21.946-56.664 33.533-14.252 8.854-28.66 17.444-44.345 23.578-10.856 4.243-22.084 6.894-33.868 5.546-20.217-2.316-32.864-18.278-30.665-38.534 1.73-15.915 9.47-28.898 19.937-40.48 11.572-12.805 25.078-23.306 39.573-32.57C180.51 81.88 203.096 68.25 227.27 57.418c28.019-12.556 56.761-22.519 87.599-25.233 22.314-1.965 44.382-.717 66.153 4.938a152.137 152.137 0 0 1 52.949 24.972 136.855 136.855 0 0 1 38.218 43.472 121.268 121.268 0 0 1 15.13 49.907 146.293 146.293 0 0 1-6.06 54.772 204.814 204.814 0 0 1-21.974 49.505 298.157 298.157 0 0 1-47.777 58.67c-18.796 17.83-37.788 35.413-59.187 50.17-27.83 19.197-56.827 36.272-88.184 49.14-8.37 3.434-16.712 6.948-25.49 10.6z"/></svg>