<svg xmlns="http://www.w3.org/2000/svg" role="img" viewBox="-6.44 48.31 412.62 148.12"><title>Section logo</title><style>svg {enable-background:new 0 0 400 245}</style><style>.st0{fill:#00a86b}</style><path d="M79.92 171.98l-57.13-15.54V88.45l57.05-15.42.08 98.95zM31.7 149.47l37.15 7.97V87.51L31.7 95.45v54.02z" class="st0"/><path d="M56.49 188.64l-54.79-20V76.36l54.79-20v132.28zm-45.03-25.42l34.09 10.58V71.2L11.46 81.78v81.44z" class="st0"/><path fill="#038754" d="M56.49 90.15l5.4-1.16V77.88l-5.4 1.46zm0 75.45l5.4 1.47v-11.13l-5.4-1.16z"/><g><path d="M137.11 116.57c-10.67-1.55-12.73-4.04-12.73-9.03 0-4.73 3.61-8.09 10.58-8.09 6.96 0 10.64 2.7 11.81 8.97l10.06-2.74c-2.17-9.81-9.8-14.83-21.88-14.83-12.82 0-21.42 7.57-21.42 17.64 0 11.53 6.97 16 21.68 17.98 9.98 1.63 12.82 3.79 12.82 9.46 0 5.68-4.82 9.46-11.62 9.46-10.41 0-12.91-5.16-13.68-11.36h-.03l-10.6 2.88c1.78 10.08 8.97 17.08 24.32 17.08 13.59 0 22.63-8.35 22.63-19.02 0-12.29-7.48-16.42-21.94-18.4zm48.11-9.38c-12.82 0-22.37 9.29-22.37 23.23v.69c0 14.2 9.55 22.89 22.8 22.89 11.53 0 19.19-5.16 20.65-14.63h-10.07c-.77 4.39-4.05 6.88-10.33 6.88-7.74 0-12.05-4.82-12.39-13.34h32.96v-3.01c0-16.08-10.07-22.71-21.25-22.71zm-11.53 18.76c1.03-6.97 5.25-11.19 11.53-11.19 6.45 0 10.41 3.44 10.92 11.19h-22.45zM234.18 146c-7.66 0-12.48-5.16-12.48-14.97v-.69c0-9.29 5.08-14.8 12.22-14.8 5.5 0 9.46 2.5 10.32 8.52h10.07c-1.21-12.39-10.59-16.86-20.57-16.86-12.56 0-22.71 9.03-22.71 23.32v.69c0 14.37 9.81 22.8 22.71 22.8 12.22 0 20.05-7.31 20.82-17.64h-9.55c-.59 6.36-5.33 9.63-10.83 9.63zm36.86-6.37v-23.66h9.9v-7.83h-9.9V93.68l-10.41 2.83v44.07c0 8.52 4.65 13.34 13.6 13.34 3.18 0 5.42-.52 7.05-1.12v-8.26c-1.46.6-3.01.86-5.08.86-3.27 0-5.16-1.81-5.16-5.77zm18.16-31.49h10.41v45H289.2zm39.75-.95c-13.25 0-23.15 9.29-23.15 23.23v.69c0 13.68 9.81 22.89 23.06 22.89 13.25 0 23.14-9.12 23.14-23.15v-.69c.01-13.76-9.89-22.97-23.05-22.97zm12.39 23.75c0 9.21-4.65 14.97-12.39 14.97-7.92 0-12.48-5.76-12.48-14.97v-.69c0-9.29 4.73-14.88 12.48-14.88 7.74 0 12.39 5.68 12.39 14.97v.6zm41.56-23.75c-7.4 0-12.39 3.7-14.54 8.09v-7.14h-10.41v45h10.41v-26.5c0-7.14 4.73-10.76 10.58-10.76 6.19 0 8.95 3.1 8.95 9.9v27.36h10.41v-28.31c0-12.39-6.36-17.64-15.4-17.64zm-93.7-15.63h10.41v10.41H289.2z"/></g></svg>