<svg xmlns="http://www.w3.org/2000/svg" role="img" viewBox="-3.33 22.67 166.53 34.53"><title>section.io logo</title><style>.st0{fill:#130d1f}</style><style>.st0{fill:#130d1f}</style><style>.st0{fill:#130d1f}</style><style>.st0{fill:#130d1f}</style><style>.st0{fill:#130d1f}</style><style>.st0{fill:#130d1f}</style><path d="M30 46.9c-.2-1.6-.2-3.1-.5-4.4-1.5-5.7-8-6.5-11.4-3.7-3.1 2.5-3.4 7.4-2.2 10.6 1.3 3.4 3.9 4.8 8.1 4.5 2.7-.2 5.2-2.6 5.2-5.2h-2.3c-.8-.1-1.3.1-1.8.9-.3.6-1.2 1.1-2 1.2-2.3.3-3.8-1.3-3.9-3.9H30zm-7.5-6.4c2-.1 3.2 1.2 3.3 3.5h-6.4c-.1-2.1 1.1-3.5 3.1-3.5zm98.2-3.3c-2.9-.2-5.2 1.1-6.7 3.7-1.2 2.2-1.3 4.6-.9 6.9.6 3.8 3.3 6 7.4 6.1 1.4.1 2.9-.2 4.2-1.2 2.8-2.2 3.9-6.4 2.6-10.4-1-3.3-3.4-4.9-6.6-5.1zm2.7 11.2c-.4 1.4-1.5 2.1-2.9 2.1s-2.4-.6-3-1.9c-.8-1.9-.7-3.8-.1-5.7.5-1.5 1.6-2.2 3-2.2 2.6 0 3.4 2.5 3.4 4.8 0 1.1-.2 2.1-.4 2.9zM75.9 37.8c-2.8-1.1-5.4-.7-7.7 1.3s-2.8 4.8-2.5 7.6c.5 5.6 4.5 8.3 10 6.9 3.1-.8 4.9-3.9 4.8-7.9 0-.6.1-1.2 0-1.8-.5-2.8-1.8-5-4.6-6.1zm.1 10.8c-.5 1.3-1.5 2-2.9 2s-2.5-.6-2.9-1.9c-.3-.9-.5-1.9-.7-2.8.2-1 .3-2 .5-2.9.4-1.4 1.7-2.2 3.1-2.2 1.4 0 2.5.8 3 2.1.6 1.9.6 3.8-.1 5.7zm14.2-11.2c-1.4.3-2.8 1.1-4.1 1.6-.1-1.5-.4-1.6-3.5-1.1v15.7h4V46c0-.8.1-1.6.3-2.4.1-.5.4-.9.6-1.3.8-1.1 1.9-1.6 3.2-1.1 1.3.4 1.5 1.5 1.5 2.7v9.7H96c0-4 .2-8-.1-12 0-2.9-2.9-4.8-5.7-4.2zM8.9 44c-1.2-.2-2.3-.2-3.5-.5-.5-.1-1.2-.7-1.3-1.1-.1-.5.3-1.2.7-1.6 1.2-.9 3.9-.7 4.5 1.1.1.3.4.6.7.6 1 .1 2 0 3.2 0-.1-.6-.1-.9-.2-1.2-.9-2.9-3.1-4-5.8-4.1-2.4-.1-4.6.4-6.1 2.5-2 2.8-.6 6.3 2.8 7 1.4.3 2.9.4 4.4.7.6.1 1.2.7 1.4 1.2.2.4-.1 1.2-.4 1.5-1.4 1.5-4.8.8-5.6-1-.2-.3-.6-.7-1-.7-.9-.1-1.8 0-2.7 0-.1 2.1.9 3.5 2.4 4.5 1.9 1.3 4.1 1.2 6.3 1 2.9-.3 4.8-2.4 4.9-5 0-2.7-1.5-4.3-4.7-4.9zm30.2-3.2c1.7 0 2.1 1.2 2.6 2.6h3.7c-.1-3.1-2-5.2-4.9-5.9-3.5-.8-6.7 1-7.9 3.2-1.3 2.3-1.4 4.7-.9 7.2.8 4.4 4.3 6.8 8.8 5.9 2.5-.5 5.3-3.3 4.8-5.8h-3.6c-.7 2-1.7 2.7-3.3 2.5-1.7-.3-2.7-1.6-2.7-3.6 0-1-.1-2.1.1-3.1.1-2.1 1.3-3 3.3-3zm15.3 9.3c-1.1.1-1.6-.5-1.6-1.5v-7.8h3.9v-3.2h-3.9v-5c-1.4.3-2.6.7-4 1v3.9c-1 0-1.9.1-2.8.1v3.2h2.8c0 3-.1 5.9 0 8.8.1 2.1 1.4 3.7 3.2 3.9 1.4.2 2.8 0 4.1-.1.3 0 .7-.5.7-.8.1-.9 0-1.8 0-2.7-.8.2-1.6.2-2.4.2zm52.4 3.4h3.9V37.7h-3.9v15.8zm-47.2 0h3.8V37.8h-3.8v15.7zm49.2-22.3c-1.3 0-2.3 1.1-2.2 2.3 0 1.2 1 2.2 2.2 2.2 1.3 0 2.2-1 2.2-2.3-.1-1.3-1-2.2-2.2-2.2zm-7.3 18.1c-1.2 0-2.2 1-2.2 2.3 0 1.2 1 2.2 2.2 2.2 1.2 0 2.2-1 2.2-2.2.1-1.3-1-2.3-2.2-2.3zM61.4 31.2c-1.2 0-2.2 1-2.2 2.3 0 1.3 1 2.3 2.3 2.3 1.3 0 2.1-1 2.1-2.3 0-1.3-1.1-2.3-2.2-2.3zm97.4 3.4c-.7 0-1.2.5-1.2 1.2V46l-7.2 4.4v-3.9l1.5-.9c.3.1.6.2 1 .2 1.2 0 2.3-1 2.3-2.3 0-1.2-1-2.3-2.3-2.3-1.2 0-2.2 1-2.2 2.2l-2 1.2c-.4.2-.6.6-.6 1v6.8c0 .4.2.8.6 1.1.2.1.4.2.6.2.2 0 .4-.1.6-.2l9.6-5.9c.4-.2.6-.6.6-1V35.8c-.1-.7-.6-1.2-1.3-1.2zm-12.3 16.9l-9.2-5.6v-8.4l3.8 2.3V42c-.6.4-1 1.1-1 1.9 0 1.2 1 2.3 2.3 2.3 1.2 0 2.3-1 2.3-2.3 0-.8-.4-1.5-1-1.9v-2.9c0-.4-.2-.8-.6-1l-6.2-3.8c-.4-.2-.8-.2-1.2 0-.4.2-.6.6-.6 1.1v11.2c0 .4.2.8.6 1l9.7 5.9c.2.1.4.2.6.2.4 0 .8-.2 1-.6.2-.5 0-1.2-.5-1.6z" class="st0"/><path d="M149.5 38.7l8.6-4.8c.4-.2.6-.6.6-1.1 0-.4-.2-.8-.6-1.1l-10-5.6c-.4-.2-.8-.2-1.2 0l-9.8 5.5c-.6.3-.8 1.1-.5 1.7.3.6 1.1.8 1.7.5l9.2-5.2 7.5 4.2-6.8 3.8c-.3-.1-.6-.2-1-.2-1.2 0-2.3 1-2.3 2.3 0 1.2 1 2.3 2.3 2.3 1.2-.1 2.2-1.1 2.3-2.3z" class="st0"/></svg>