<svg xmlns="http://www.w3.org/2000/svg" role="img" viewBox="189.51 233.01 467.48 136.48"><title>Shanghai OpenSource Information Technology Association logo</title><style>svg {enable-background:new 0 0 800 600}</style><style>.st0{fill:#86c240}</style><circle cx="419.1" cy="278.7" r="8.3" class="st0" transform="matrix(.9976 -.06872 .06872 .9976 -18.165 29.458)"/><path d="M415.5 248.4s-1.1-1-3.3-2.3c-2.7-1.6-5.6-2.7-8.7-3.4-.8-.2-1.5-.3-2.3-.4-.4-.1-.8-.1-1.3-.2-.2 0-1.4-.1-1.8-.1h-2.2c-.6 0-1.2 0-1.9.1-13.7 1.6-24.1 12.5-25.4 25.7 0 .3 0 .7-.1 1 0 .5-.1 1-.1 1.6 0 .7 0 1.4.1 2.1v.5c.6 6.5 3.4 12.4 7.7 16.9-1.4-2.3-2.4-4.9-2.8-7.7-1.7-11.6 6.2-22.4 17.8-24.1 5.2-.8 10.3.4 14.4 3 1.3 1 3 1.6 4.8 1.6 4.5 0 8-3.6 8-8.1.2-2.5-.7-4.2-2.9-6.2z" class="st0"/><path fill="#2e4da1" d="M407.8 299.8l-1.6-2.2-.5-.8c-.1 0-.1.1-.2.1-2.4 1.4-5 2.4-7.9 2.8-2.1.3-4.2.3-6.4-.1-.3-.1-1.8-.3-2.3-.4-16.1-3.3-26.5-19-23.2-35.1 1.8-8.7 7.2-15.7 14.3-19.8-11.4 4.9-20.2 15.2-22.3 28.3-3.4 20.4 10.4 39.7 30.9 43.1 6.2 1 12.2.5 17.8-1.4 3.1-1 6.1-2.5 8.8-4.3l-7.4-10.2z"/><path fill="#3d3b3e" d="M207.8 286.7c-.1.4-.2 1.2-.2 2.3 0 .7.7 1.5 2 2.4s3.1 1.7 5.2 2.5 4.6 1.5 7.3 2 5.5.8 8.3.8c5.4 0 9.4-.6 11.9-1.9s3.8-3.1 3.8-5.5c0-1.3-1.1-2.2-3.3-2.8-2.2-.5-5-1-8.3-1.3-3.3-.3-6.9-.7-10.7-1.1-3.8-.4-7.4-1.1-10.7-2.2-3.3-1-6.1-2.6-8.3-4.5-2.2-2-3.3-4.7-3.3-8.2 0-2.7.6-5.2 1.9-7.5 1.3-2.2 3-4.1 5.3-5.7 2.3-1.6 5-2.8 8.3-3.7 3.2-.9 6.8-1.4 10.8-1.4 3.7 0 7.1.2 10.3.7 3.2.5 6 1 8.4 1.6 2.4.6 4.5 1.1 6.2 1.6 1.7.5 2.8.7 3.6.7.7 0 1.3-.2 1.7-.5.4-.3.8-.7 1.2-1.1l1.2.4-7.5 15-1.3-.6v-1.2c0-.6-.7-1.3-2.1-2-1.4-.7-3.2-1.3-5.3-1.8-2.2-.5-4.6-1-7.2-1.4-2.7-.4-5.3-.5-7.8-.5-4.7 0-8 .5-9.8 1.6-1.9 1.1-2.8 2.2-2.8 3.5 0 1.2.6 2.1 1.9 2.8 1.3.6 3 1.1 5.1 1.4 2.1.3 4.5.5 7.1.7 2.7.2 5.4.5 8.2.8 2.8.4 5.5.9 8.2 1.5s5 1.6 7.1 2.9c2.1 1.3 3.8 2.9 5.1 5 1.3 2.1 1.9 4.6 1.9 7.7 0 2.4-.5 4.7-1.5 7s-2.6 4.4-5 6.2c-2.3 1.8-5.5 3.3-9.4 4.4-3.9 1.1-8.8 1.6-14.6 1.6-4.5 0-8.4-.2-11.7-.6-3.3-.4-6.1-1-8.4-1.6-2.3-.6-4.1-1.2-5.5-1.7-1.3-.5-2.3-.8-3-.8-.4 0-.8.1-1.1.4-.3.3-.7.6-1 1l-1.3-.3 8-19.2 1.1.6zm130.9 18.6c0 .5.2.9.5 1.2.3.3 1.2.6 2.5.7v1.3h-22.3v-1.3c1.4-.1 2.2-.4 2.5-.7.3-.3.5-.7.5-1.2v-20h-28.1v20c0 .5.2.9.5 1.2.3.3 1.2.6 2.5.7v1.3H275v-1.3c1.4-.1 2.2-.4 2.5-.7.3-.3.5-.7.5-1.2v-50.4c0-.5-.2-.9-.5-1.2-.3-.3-1.2-.6-2.5-.7v-1.3h22.3v1.3c-1.4.1-2.2.4-2.5.7s-.5.7-.5 1.2v17.2h28.1v-17.2c0-.5-.2-.9-.5-1.2-.3-.3-1.2-.6-2.5-.7v-1.3h22.3v1.3c-1.4.1-2.2.4-2.5.7-.3.3-.5.7-.5 1.2v50.4zm120.1 0c0 .5.2.9.5 1.2.3.3 1.2.6 2.5.7v1.3h-22.3v-1.3c1.4-.1 2.2-.4 2.5-.7.3-.3.5-.7.5-1.2v-50.4c0-.5-.2-.9-.5-1.2-.3-.3-1.2-.6-2.5-.7v-1.3h38.7c3.4 0 6.4.5 9 1.5 2.6 1 4.8 2.3 6.5 3.9 1.7 1.7 3 3.6 3.9 5.8.9 2.2 1.3 4.5 1.3 6.9 0 2.4-.4 4.7-1.3 6.9s-2.2 4.1-3.9 5.7c-1.7 1.6-3.9 2.9-6.5 3.9s-5.6 1.5-9 1.5h-19.5v17.5zm16.5-29.1c3 0 5.2-.5 6.6-1.5 1.4-1 2.1-2.7 2.1-5 0-2.1-.7-3.6-2.1-4.5-1.4-.9-3.6-1.4-6.6-1.4h-16.4v12.4h16.4zm79 12c-.1-.7-.5-1.3-.9-1.8-.5-.5-1.2-.7-2.3-.7H531v10.1h34.7c.6 0 1-.2 1.3-.6.3-.4.5-1.3.7-2.6h1.3v18.5h-1.3c-.1-.9-.4-1.5-.7-1.7s-.7-.3-1.3-.3h-53.9v-1.3c1.4-.1 2.2-.4 2.5-.7s.5-.7.5-1.2v-50.4c0-.5-.2-.9-.5-1.2s-1.2-.6-2.5-.7v-1.3h53.9c.6 0 1-.2 1.3-.6.3-.4.5-1.2.7-2.4h1.3v18.8h-1.3c-.1-1.2-.4-2-.7-2.4-.3-.4-.7-.6-1.3-.6H531v9h20c1.1 0 1.9-.2 2.3-.7.5-.5.8-1.1.9-1.8h1.3v16.9h-1.2zm30.5-33.3c0-.5-.2-.9-.5-1.2-.3-.3-1.2-.6-2.5-.7v-1.3h26v1.3c-1.2.1-2 .2-2.4.5-.4.3-.6.6-.6.9 0 .1.5.8 1.4 1.9.9 1.2 2.2 2.6 3.7 4.3 1.5 1.7 3.2 3.7 5.1 5.8 1.9 2.1 3.8 4.3 5.8 6.4 1.9 2.1 3.8 4.1 5.6 6.1s3.4 3.5 4.6 4.9v-28.9c0-1.2-.8-1.9-2.3-1.9v-1.3h19.8v1.3c-1.4.1-2.2.4-2.5.7s-.5.7-.5 1.2v50.4c0 .5.2.9.5 1.2.3.3 1.2.6 2.5.7v1.3H628v-1.3c1 0 1.7-.1 2-.3.3-.2.5-.5.5-.9 0-.2-.1-.5-.3-.8-.2-.3-.7-.9-1.4-1.7-.7-.8-1.8-1.9-3.2-3.4-1.4-1.5-3.3-3.5-5.6-5.9-2.3-2.5-5.2-5.6-8.5-9.3-3.4-3.7-7.5-8.2-12.2-13.6v33.9c0 .5.2.9.5 1.2.3.3 1.2.6 2.5.7v1.3h-20.5v-1.3c1.4-.1 2.2-.4 2.5-.7.3-.3.5-.7.5-1.2v-50.3z"/><g><path fill="#646464" d="M262.5 357v1.8h-22.7V357h9.7v-19.9l2 .1v7.1h9.3v1.9h-9.3V357h11zm20-8.5l-1-1c-.4-.4-.8-.7-1.3-1-.4-.3-.9-.7-1.3-1-.4-.3-.8-.6-1.1-.7l1-1.4c.3.2.7.4 1.1.7.4.3.9.6 1.3.9.4.3.9.6 1.3 1 .4.3.7.6 1 .8l-1 1.7zm-.1 2.4l.8.3c-.2.6-.4 1.3-.6 2.1-.3.8-.5 1.6-.8 2.5s-.6 1.6-.9 2.4c-.3.8-.6 1.4-.8 2l-1.9-.7c.3-.5.6-1.2.9-1.9s.7-1.6 1-2.4.6-1.7.9-2.5.5-1.5.6-2.1l.8.3zm1.2-8.1l-1-1c-.4-.3-.8-.7-1.2-1-.4-.3-.8-.7-1.2-1s-.7-.5-1-.7l1-1.4c.3.2.6.4 1 .7l1.2.9c.4.3.8.6 1.2 1 .4.3.7.6.9.8l-.9 1.7zm14.3 8c0 .7-.1 1.4-.1 2.1 0 .7 0 1.3-.1 1.8h2.2v1.8h-2.2v.5c0 .6-.1 1.1-.2 1.5-.1.4-.4.7-.7 1-.3.2-.7.4-1.3.5s-1.2.2-2 .2l-1.6.1-.7-1.8 2.1-.1c.5 0 1-.1 1.3-.1.3-.1.6-.2.8-.3.2-.1.3-.3.4-.5s.1-.5.2-.8h-11.1l.6-5.7h-2v-2h2.2l.6-5.4c-.2.3-.4.6-.6.8-.2.3-.4.5-.7.8l-1.4-1.3c.5-.5 1-1.1 1.4-1.6.5-.6.9-1.2 1.3-1.8s.8-1.3 1.1-1.9l.9-1.8 1.8.4c-.2.4-.3.7-.5 1.1-.2.4-.4.8-.6 1.1h10.9v1.7H288c-.3.4-.5.8-.8 1.2s-.5.8-.8 1.1h11.9v.6c0 .3 0 .7-.1 1.2s-.1 1.1-.1 1.7c0 .6 0 1.3-.1 2h2.8v1.7h-2.9zm-11.2 3.9h5.8c-.2-.2-.4-.5-.7-.7-.3-.3-.6-.5-.9-.8-.3-.2-.6-.5-.9-.7-.3-.2-.5-.4-.7-.5l.9-1.3h-3.1l-.4 4zm.7-5.7h5.5l-.7-.7c-.3-.3-.6-.5-.9-.7-.3-.2-.6-.5-.9-.7-.3-.2-.5-.4-.7-.5l.9-1.2h-2.8l-.4 3.8zm8.6 5.7c0-.5.1-1.2.1-1.8 0-.7.1-1.4.1-2.1h-5.8c.2.2.5.3.8.5.3.2.6.4.9.7.3.2.6.5.8.7.3.2.5.4.7.6l-.9 1.4h3.3zm.3-5.7c0-1 .1-1.8.1-2.5s.1-1.1.1-1.3h-5.6c.2.2.4.3.7.5l.9.6c.3.2.6.4.8.6.3.2.5.4.6.5l-.9 1.6h3.3zm42.5.8h-5.7v10.4h-2v-10.4h-6.9c-.1 1.3-.2 2.4-.4 3.3-.2 1-.5 1.8-1 2.7-.4.8-1 1.6-1.7 2.4-.7.8-1.5 1.6-2.5 2.5l-1.5-1.4c.9-.8 1.7-1.5 2.3-2.2.6-.7 1.1-1.4 1.5-2.1.4-.7.7-1.5.9-2.3.2-.8.3-1.8.4-2.8h-6V348h6V340.8h-4.7v-1.9h19.9v1.9H333v7.2h5.7v1.8zm-7.7-1.9v-7.2h-6.8v7.2h6.8zm27.7.6l-1-1c-.4-.3-.8-.7-1.2-1-.4-.3-.8-.7-1.2-1-.4-.3-.7-.5-1-.7l1-1.4c.3.2.7.4 1.1.7l1.2.9c.4.3.8.6 1.2 1 .4.3.7.6 1 .9l-1.1 1.6zm.4 2.1c-.2.6-.3 1.3-.5 2.1s-.4 1.5-.6 2.3-.4 1.6-.7 2.5-.5 1.6-.8 2.4l-1.7-.5c.5-1.5 1-3 1.5-4.7s.8-3.2 1.1-4.5l.9.3.8.1zm.4-7.8l-.9-.9c-.4-.3-.8-.7-1.1-1l-1.2-.9c-.4-.3-.7-.5-.9-.7l1-1.4c.3.2.6.4 1 .7l1.2.9c.4.3.8.6 1.1.9s.7.6.9.8l-1.1 1.6zm3.5 4.1c0 1.5-.1 2.9-.2 4.1-.1 1.2-.3 2.3-.5 3.3s-.5 2-.9 3-.9 2-1.4 3.1l-1.7-.8c.6-1.1 1-2 1.4-3s.7-1.9.9-2.8.4-2 .5-3.1.1-2.3.1-3.8v-8.4h15.8v1.7h-14v6.7zm4.3 7.4c-.3.4-.6.9-.9 1.4-.3.5-.7.9-1 1.4-.4.5-.7.9-1.1 1.3-.4.4-.7.8-1.1 1.1l-1.2-1.1c.7-.7 1.4-1.4 2.1-2.3s1.3-1.8 1.9-2.7l1.3.9zm3.8-2.1v4.9c0 .5 0 .9-.1 1.3-.1.3-.2.6-.4.8-.2.2-.5.3-.8.4-.3.1-.8.2-1.3.2l-1.6.2-.6-1.8 1.5-.1c.3 0 .6-.1.8-.1.2-.1.3-.1.4-.3.1-.1.2-.3.2-.5s.1-.5.1-.8v-4.1h-4.3v-9.1h3.5c.1-.4.3-.8.4-1.3.1-.4.2-.8.3-1.3l1.8.3c-.1.3-.2.7-.3 1.1-.1.4-.2.8-.3 1.1h4.9v9.1h-4.2zm-4.3-7.5v2.1h6.8v-2.1h-6.8zm0 5.9h6.8v-2.3h-6.8v2.3zm6.9 2.8c.3.3.7.7 1 1.1.4.4.7.8 1.1 1.3.4.4.7.9 1 1.3l.9 1.2-1.3 1.2c-.3-.4-.5-.9-.9-1.3-.3-.5-.7-.9-1-1.4-.3-.5-.7-.9-1-1.3-.3-.4-.7-.8-1-1.1l1.2-1zm25.8-15.7c-.2.7-.5 1.5-.8 2.4-.3.9-.7 1.9-1.2 2.9v17.1h-1.9v-13.4c-.6 1.1-1.3 2.2-2.1 3.3l-1.6-1.2c.7-.9 1.3-1.9 1.9-2.9.6-1 1.1-2 1.6-3s.9-2 1.3-2.9c.4-1 .7-1.9.9-2.7l1.9.4zm15.8 2.3v1.8h-16V340h7c-.1-.5-.3-.9-.4-1.4-.2-.5-.3-.8-.4-1.1l1.9-.4c.1.3.3.8.5 1.3s.3 1.1.5 1.6h6.9zm-14.6 4.1h12.8v1.6h-12.8v-1.6zm0 3.7h12.8v1.7h-12.8v-1.7zm0 3.9h12.7v8.5h-2v-1.4h-8.9v1.4h-1.9v-8.5zm1.9 1.7v3.6h8.9v-3.6h-8.9zm27.9 5.1c.5-.8 1-1.8 1.5-2.8s.8-2.1 1.1-3.1l1.7.6c-.2.5-.3 1-.5 1.6-.2.5-.4 1.1-.7 1.6s-.5 1-.8 1.5c-.3.5-.5.9-.8 1.4l-1.5-.8zm11.4-7h-8v-12.1h5.6c.2-.4.3-.9.4-1.3.1-.4.3-.8.4-1.1l2 .4c-.1.2-.2.5-.3.9-.1.4-.3.7-.4 1.1h8.2v12.1h-7.8c.2.3.5.6.7.9.3.3.5.7.8 1 .2.3.5.7.7 1 .2.3.4.6.5.9l-1.5 1.1c-.2-.3-.3-.7-.6-1s-.5-.7-.7-1.1c-.2-.4-.5-.7-.7-1.1-.2-.3-.5-.6-.7-.9l1.4-.8zm-6.1-10.5v1.8h12.2V341h-12.2zm12.2 3.4h-12.2v1.9h12.2v-1.9zm-12.2 5.5h12.2v-2h-12.2v2zm10 6.5c.1-.5.1-1.1.2-1.7l1.8.7c-.1.6-.1 1.2-.2 1.7s-.2.9-.3 1.2-.3.5-.5.7-.5.3-.9.3c-.3.1-.8.1-1.3.2-1.7.1-3.4.1-5.1 0-.5 0-1-.1-1.3-.2s-.6-.2-.8-.5c-.2-.2-.3-.5-.4-.9-.1-.4-.1-.8-.1-1.4v-4l1.9.1v3.5c0 .3 0 .6.1.8s.1.4.2.5.2.2.4.3c.2.1.4.1.8.1 1.3.1 2.6.1 3.9 0 .4 0 .6 0 .9-.1.2 0 .4-.1.5-.2.1-.1.2-.2.3-.4s-.1-.4-.1-.7zm3.7-4c.3.3.6.7 1 1.1.3.4.7.9 1 1.4s.7 1 1 1.4c.3.5.6.9.9 1.4L452 359c-.2-.5-.5-1-.9-1.5s-.7-1-1-1.6c-.3-.5-.7-1-1-1.4-.3-.5-.7-.8-.9-1.2l1.4-.9zm27.6-3.3c-.3.1-.7.3-1.2.5l-1.5.6v7.1c0 .5 0 .9-.1 1.2-.1.3-.2.5-.4.7-.2.2-.5.3-.9.4s-.8.2-1.4.2l-1.3.1-.6-1.9 1.6-.2c.3 0 .5-.1.7-.1s.3-.1.4-.2c.1-.1.2-.3.2-.4 0-.2.1-.4.1-.7v-5.6c-.7.2-1.4.5-2 .7-.6.2-1.2.4-1.6.5l-.6-1.8c.5-.1 1.1-.3 1.9-.5s1.5-.5 2.3-.8v-5.3h-2.9v-1.8h2.9v-4.5l1.8.1v4.5h2.4v1.8h-2.4v4.7c.4-.2.9-.3 1.3-.5.4-.1.8-.3 1.1-.4l.2 1.6zm13.8 11.3c-1.4-.5-2.8-1.2-3.9-1.9s-2.2-1.5-3.2-2.5c-.9.8-2 1.6-3.2 2.3s-2.6 1.4-4.1 2l-1.3-1.7c1.5-.5 2.8-1.1 4-1.7 1.2-.7 2.3-1.4 3.3-2.2-.7-.9-1.4-1.8-2-2.8-.6-1-1.1-2.1-1.5-3.2l1.6-.7c.9 2.1 2 4 3.3 5.5.9-.9 1.7-1.8 2.3-2.8s1.1-2 1.5-3H478V346h5v-3.6h-5.4v-1.8h5.4V337l1.9.1v3.5h6v1.8h-6v3.6h4.8v1.7c-.4 1.1-1 2.3-1.7 3.5-.7 1.2-1.6 2.4-2.8 3.6 1.8 1.6 4.1 2.9 6.8 3.8l-1 1.8zm29-16.2c1.2 2.3 2.7 4.5 4.4 6.3 1.7 1.9 3.8 3.6 6.3 5.3l-1.4 1.8c-1.3-.9-2.4-1.8-3.4-2.7-1-.9-1.9-1.8-2.6-2.7s-1.5-1.8-2-2.7c-.6-.9-1.1-1.8-1.5-2.6v13.3h-2v-13.3c-.9 1.8-2.1 3.6-3.6 5.3-1.5 1.7-3.4 3.5-5.7 5.3l-1.5-1.7c1.1-.8 2.2-1.6 3.3-2.6s2-1.9 2.9-2.9c.9-1 1.7-2 2.4-3.1s1.3-2.1 1.9-3.2h-8.8v-1.7h9.2v-5.2l2 .1v5.1h9.3v1.7H520zm5.5-2c-.6-.7-1.2-1.4-1.7-2-.6-.6-1.1-1.2-1.6-1.6l1.1-1.1c.3.2.5.4.8.7.3.3.6.5.9.8l.9.9c.3.3.6.6.8.9l-1.2 1.4zm24.6 3.5v14.4h-1.8v-14.4h-2.5v-1.8h2.5v-6.7l1.8.1v6.7h2.7v1.8h-2.7zm5.7.8l-.6 1.8c-.2.6-.4 1.2-.7 1.9-.2.6-.5 1.2-.7 1.8-.2.6-.5 1.1-.7 1.5l-1.7-.7c.5-1 1.1-2.1 1.5-3.3.5-1.2.9-2.4 1.2-3.5l1.7.5zm11.7 6.7c-.1-.4-.3-.9-.5-1.4l-.6-1.5c-.2-.5-.5-1-.7-1.5-.2-.5-.5-1-.7-1.4-.1 1-.1 1.9-.2 2.9s-.1 1.9-.2 2.7c0 .8-.1 1.5-.1 2.1 0 .6-.1 1-.1 1.1 0 .7-.1 1.2-.2 1.6s-.3.7-.6 1c-.3.2-.6.4-1 .5-.4.1-.9.2-1.5.3l-1.5.2-.6-1.9 1.6-.1c.4 0 .8-.1 1-.2.3-.1.5-.2.6-.3l.3-.6c.1-.2.1-.6.1-1.1 0-.2 0-.6.1-1.2 0-.6.1-1.3.1-2.2.1-.8.1-1.7.2-2.7s.1-1.8.2-2.7c.1-.8.1-1.6.1-2.2 0-.6.1-1 .1-1.2h-4.1v.3c-.1 2.1-.2 3.9-.4 5.4s-.5 2.9-1 4.2-1 2.4-1.8 3.5c-.7 1.1-1.7 2.2-2.8 3.4l-1.6-1.1c1.1-1.1 2-2.2 2.7-3.2.7-1.1 1.3-2.2 1.7-3.4s.7-2.5.9-3.9c.2-1.4.3-3.1.4-4.9v-.2h-4.1v-1.8h4.2l.1-4.6 1.8.1-.1 4.6h6v.6c0 .3 0 .7-.1 1.2 0 .5-.1 1-.1 1.6 0 .6-.1 1.2-.1 1.9l1.4-.7c.2.4.5.9.7 1.4.3.5.5 1 .8 1.6.3.5.5 1 .7 1.5.2.5.4.9.5 1.3l-1.6 1zm28.8-16c1.1 1.6 2.6 3.1 4.4 4.5 1.8 1.4 3.9 2.7 6.3 3.8l-1 1.8c-.9-.5-1.8-1-2.8-1.7-1-.6-2-1.3-2.9-2-1-.7-1.9-1.5-2.7-2.2-.9-.8-1.6-1.5-2.1-2.3-1.1 1.5-2.6 3-4.5 4.5s-3.9 2.7-6.2 3.9l-1-1.7c2.4-1.2 4.6-2.5 6.4-3.9 1.8-1.5 3.3-3 4.4-4.6h1.7zm-11.4 13h20.9v1.8h-11c-.7 1-1.4 1.9-2.2 2.8-.8.9-1.6 1.7-2.3 2.4h1.8c.8 0 1.7-.1 2.7-.1 1 0 2-.1 2.9-.1 1 0 1.9-.1 2.6-.1-.5-.6-.9-1.1-1.4-1.6-.5-.5-.9-.9-1.2-1.3l1.4-1.1c.4.3.8.8 1.3 1.3s1 1.1 1.5 1.6c.5.6 1 1.2 1.4 1.7s.8 1.1 1.1 1.5l-1.4 1.5-.6-.9c-.2-.3-.5-.7-.7-1-.5 0-1.1 0-1.8.1-.7 0-1.5.1-2.3.1-.8 0-1.7.1-2.5.1-.9 0-1.6.1-2.4.1-.7 0-1.4.1-2 .1-.6 0-1 .1-1.3.1-.5 0-.9.1-1.4.1-.4 0-.8.1-1.1.2l-.4-1.8c.4-.1.7-.3.9-.4.2-.1.4-.3.7-.5.3-.3.7-.6 1-1 .4-.4.7-.8 1.1-1.2.4-.4.7-.8 1.1-1.3.4-.4.7-.9 1-1.3h-7.5v-1.8zm16.9-5.1v1.7h-12.9v-1.7h12.9z"/></g></svg>