<svg xmlns="http://www.w3.org/2000/svg" role="img" viewBox="-7.99 6.01 857.48 218.48"><title>Silver Peak logo</title><style>svg {fill-rule:evenodd;clip-rule:evenodd;stroke-linejoin:round;stroke-miterlimit:1.41421}</style><path fill="#898b8d" fill-rule="nonzero" d="M503.243 69.38c-4.199 0-8.083.949-11.64 2.819-3.556 1.895-6.522 4.433-8.872 7.641l-5.639-8.777h-3.444v86.351h10.339V95.943c0-2.082.402-4.026 1.173-5.861.782-1.828 1.855-3.413 3.196-4.758 1.349-1.351 2.93-2.42 4.759-3.208 1.819-.786 3.774-1.178 5.843-1.178h10.347V69.38h-6.062zm-48.188 37.606h-36.839V94.172c0-2.075.391-4.034 1.178-5.862.787-1.828 1.849-3.413 3.194-4.754 1.344-1.362 2.928-2.425 4.75-3.211 1.82-.787 3.776-1.179 5.85-1.179h6.89c2.075 0 4.023.392 5.858 1.179 1.807.786 3.403 1.849 4.744 3.211 1.355 1.341 2.414 2.926 3.197 4.754.784 1.828 1.178 3.787 1.178 5.862v12.814zm2.937-30.181c-2.294-2.308-4.983-4.115-8.061-5.438-3.091-1.32-6.367-1.987-9.853-1.987h-6.89c-3.471 0-6.754.667-9.848 1.987-3.078 1.323-5.767 3.13-8.064 5.438-2.308 2.304-4.115 4.993-5.429 8.092-1.316 3.088-1.983 6.385-1.983 9.868v38.962c0 3.472.667 6.769 1.983 9.86 1.314 3.098 3.121 5.794 5.429 8.103 2.297 2.294 4.986 4.115 8.064 5.42 3.094 1.334 6.377 1.984 9.848 1.984h6.89c3.486 0 6.762-.65 9.853-1.984 3.078-1.305 5.767-3.126 8.061-5.42 2.301-2.309 4.122-5.005 5.421-8.103 1.333-3.091 1.99-6.388 1.99-9.86v-3.467l-10.348-1.685v5.729c0 2.083-.394 4.038-1.178 5.873-.783 1.815-1.842 3.41-3.197 4.757-1.341 1.349-2.937 2.429-4.744 3.197-1.835.798-3.783 1.195-5.858 1.195h-6.89c-2.074 0-4.03-.397-5.85-1.195-1.822-.768-3.406-1.848-4.75-3.197-1.345-1.347-2.407-2.942-3.194-4.757-.787-1.835-1.178-3.79-1.178-5.873v-19.215h47.187V94.765c0-3.483-.657-6.78-1.99-9.868-1.299-3.099-3.12-5.788-5.421-8.092m-84.625 59.702l-.339 4.461-.339-4.461-22.448-65.444h-10.352l30.538 86.351h5.125l30.537-86.351h-10.351l-22.371 65.444zm-51.215 20.907h10.351V39.241h-10.351v118.173zM300.635 50.322h12.028V39.241h-12.028v11.081zm.847 107.092h10.344V71.063h-10.344v86.351zm-15.475-39.202c-2.213-1.867-4.74-3.377-7.567-4.563-2.827-1.175-5.724-2.234-8.668-3.165-2.94-.925-5.829-1.822-8.656-2.697-2.834-.858-5.357-1.951-7.574-3.243-2.212-1.288-3.991-2.884-5.336-4.765-1.352-1.884-2.022-4.305-2.022-7.29 0-2.083.395-3.932 1.176-5.566.783-1.634 1.852-3.021 3.196-4.179 1.353-1.15 2.934-2.039 4.754-2.653 1.821-.622 3.766-.925 5.842-.925h6.062c2.068 0 4.013.392 5.848 1.179 1.814.786 3.398 1.849 4.75 3.211 1.344 1.341 2.414 2.926 3.194 4.754.78 1.828 1.178 3.787 1.178 5.862v2.615l10.341-1.691v-.331c0-3.483-.656-6.78-1.973-9.868-1.32-3.099-3.134-5.788-5.42-8.092-2.305-2.308-5.001-4.115-8.086-5.438-3.081-1.32-6.363-1.987-9.832-1.987h-6.062c-3.477 0-6.738.578-9.794 1.736-3.056 1.14-5.731 2.76-8.029 4.849-2.308 2.075-4.122 4.56-5.467 7.46-1.358 2.898-2.029 6.084-2.029 9.561 0 4.112.671 7.545 2.029 10.291 1.345 2.756 3.124 5.054 5.336 6.875 2.213 1.828 4.733 3.303 7.574 4.425 2.827 1.126 5.724 2.125 8.696 2.99 2.979.874 5.876 1.742 8.71 2.618 2.833.872 5.354 1.973 7.573 3.286 2.213 1.32 3.999 2.972 5.333 4.933 1.351 1.97 2.018 4.49 2.018 7.588 0 2.083-.434 3.946-1.295 5.568-.875 1.639-2.05 3.036-3.54 4.173-1.482 1.156-3.179 2.04-5.081 2.66-1.91.614-3.904.933-5.972.933h-6.899c-2.075 0-4.073-.397-5.972-1.195-1.909-.768-3.592-1.848-5.054-3.197-1.457-1.347-2.614-2.942-3.483-4.757-.875-1.835-1.309-3.79-1.309-5.873v-5.729l-10.34 1.685v3.467c0 3.472.716 6.769 2.146 9.86 1.432 3.098 3.331 5.794 5.716 8.103 2.386 2.294 5.153 4.115 8.326 5.42 3.173 1.334 6.49 1.984 9.97 1.984h6.899c3.469 0 6.794-.565 9.959-1.723 3.176-1.151 5.965-2.766 8.371-4.841 2.414-2.082 4.323-4.574 5.725-7.468 1.401-2.894 2.103-6.077 2.103-9.571 0-4.108-.671-7.546-2.015-10.326-1.345-2.785-3.131-5.104-5.35-6.953"/><path fill="url(#_Linear1)" fill-rule="nonzero" d="M.775.725C.708.725.693.695.691.648.691.645.692.64.69.601.655.039.422-.389 0-.725c.19.078.387.127.585.15C.856-.217.99.14 1 .621v.104H.775z" transform="matrix(95.8638 0 0 -95.8638 35.28 91.941)"/><path fill="url(#_Linear2)" fill-rule="nonzero" d="M.051.016C.048.014 0-.013 0-.013l.064-.111c.019-.033.038-.032.062-.02.002.001.004.003.023.013.288.143.565.15.851.038C.907-.022.827.061.76.152.703.16.648.163.594.163.408.163.238.119.051.016z" transform="matrix(168.34 0 0 -168.34 8.758 179.358)"/><path fill="url(#_Linear3)" fill-rule="nonzero" d="M0 .204c.166-.395.398-.675.79-.913.006-.004.086-.05.086-.05l.107.186c.033.056.014.082-.023.106-.003.002-.008.003-.039.024C.474-.146.231.25.155.759.129.564.076.378 0 .204z" transform="matrix(100.545 0 0 -100.545 119.788 131.807)"/><path fill="#4e5155" fill-rule="nonzero" d="M579.211 134.304c0 2.09-.396 4.038-1.187 5.873-.782 1.814-1.849 3.417-3.19 4.757-1.354 1.355-2.935 2.422-4.757 3.19-1.82.805-3.769 1.201-5.837 1.201h-6.903c-2.075 0-4.017-.396-5.852-1.201-1.806-.768-3.401-1.835-4.756-3.19-1.341-1.34-2.4-2.943-3.183-4.757-.784-1.835-1.179-3.783-1.179-5.873V94.172c0-2.073.395-4.031 1.179-5.866.783-1.832 1.842-3.405 3.183-4.757 1.355-1.352 2.95-2.414 4.756-3.201 1.835-.798 3.777-1.186 5.852-1.186h6.903c2.068 0 4.017.388 5.837 1.186 1.822.787 3.403 1.849 4.757 3.201 1.341 1.352 2.408 2.925 3.19 4.757.791 1.835 1.187 3.793 1.187 5.866v40.132zm2.936-57.5c-2.301-2.304-4.984-4.118-8.075-5.441-3.084-1.317-6.352-1.98-9.832-1.98h-2.619c-4.206 0-8.088.946-11.646 2.82-3.557 1.891-6.514 4.429-8.871 7.63l-5.633-8.766h-3.445v118.568h10.341v-39.477c2.35 2.823 5.181 5.019 8.498 6.584 3.303 1.575 6.888 2.358 10.756 2.358h2.619c3.48 0 6.748-.656 9.832-1.99 3.091-1.305 5.774-3.119 8.075-5.42 2.3-2.309 4.107-5.005 5.42-8.096 1.328-3.099 1.984-6.395 1.984-9.882V94.757c0-3.475-.656-6.772-1.984-9.856-1.313-3.103-3.12-5.799-5.42-8.097m62.663 30.182h-36.852V94.172c0-2.075.403-4.03 1.179-5.869.79-1.821 1.85-3.402 3.198-4.747 1.348-1.359 2.929-2.421 4.75-3.211 1.835-.787 3.769-1.175 5.85-1.175h6.897c2.076 0 4.023.388 5.844 1.175 1.822.79 3.417 1.852 4.758 3.211 1.34 1.345 2.406 2.926 3.189 4.747.791 1.839 1.187 3.794 1.187 5.869v12.814zm2.937-30.181c-2.302-2.304-4.984-4.112-8.076-5.442-3.078-1.316-6.367-1.98-9.839-1.98h-6.897c-3.479 0-6.754.664-9.846 1.98-3.077 1.33-5.765 3.138-8.074 5.442-2.301 2.305-4.101 4.994-5.421 8.096-1.319 3.084-1.969 6.381-1.969 9.856v38.97c0 3.472.65 6.769 1.969 9.86 1.32 3.098 3.12 5.795 5.421 8.103 2.309 2.301 4.997 4.115 8.074 5.42 3.092 1.334 6.367 1.99 9.846 1.99h6.897c3.472 0 6.761-.656 9.839-1.99 3.092-1.305 5.774-3.119 8.076-5.42 2.3-2.308 4.107-5.005 5.418-8.103 1.328-3.091 1.986-6.388 1.986-9.86v-2.103l-10.341-3.049v5.729c0 2.09-.396 4.045-1.187 5.873-.783 1.815-1.849 3.41-3.189 4.757-1.341 1.349-2.936 2.429-4.758 3.205-1.821.79-3.768 1.187-5.844 1.187h-6.897c-2.081 0-4.015-.397-5.85-1.187-1.821-.776-3.402-1.856-4.75-3.205-1.348-1.347-2.408-2.942-3.198-4.757-.776-1.828-1.179-3.783-1.179-5.873v-19.215h47.193V94.757c0-3.475-.658-6.772-1.986-9.856-1.311-3.102-3.118-5.791-5.418-8.096m62.282 57.5c0 2.09-.396 4.038-1.173 5.873-.797 1.814-1.863 3.417-3.204 4.757-1.342 1.355-2.935 2.422-4.75 3.19-1.821.805-3.776 1.201-5.852 1.201h-6.888c-2.082 0-4.024-.396-5.845-1.201-1.82-.768-3.409-1.835-4.756-3.19-1.349-1.34-2.415-2.943-3.199-4.757-.782-1.835-1.179-3.783-1.179-5.873v-3.628c0-2.075.397-4.022 1.179-5.857.784-1.829 1.85-3.427 3.199-4.799 1.347-1.38 2.936-2.457 4.756-3.244 1.821-.79 3.763-1.186 5.845-1.186h21.867v18.714zm2.943-57.5c-2.295-2.304-4.991-4.118-8.068-5.441-3.092-1.317-6.381-1.98-9.854-1.98h-6.041c-3.495 0-6.769.663-9.853 1.98-3.078 1.323-5.774 3.137-8.076 5.441-2.301 2.298-4.108 4.994-5.419 8.097-1.314 3.084-1.978 6.381-1.978 9.856v.392l10.348 3.021v-3.998c0-2.073.382-4.031 1.172-5.866.791-1.832 1.849-3.405 3.189-4.757 1.35-1.352 2.937-2.414 4.758-3.201 1.815-.798 3.77-1.186 5.859-1.186h6.041c2.076 0 4.031.388 5.852 1.186 1.815.787 3.408 1.849 4.75 3.201 1.341 1.352 2.407 2.925 3.204 4.757.777 1.835 1.173 3.793 1.173 5.866v13.329h-21.867c-3.473 0-6.762.657-9.853 1.98-3.078 1.316-5.766 3.123-8.061 5.427-2.315 2.316-4.108 5.012-5.435 8.104-1.312 3.091-1.976 6.38-1.976 9.867v.833c0 3.487.664 6.783 1.976 9.882 1.327 3.091 3.12 5.787 5.435 8.096 2.295 2.301 4.983 4.115 8.061 5.42 3.091 1.334 6.38 1.99 9.853 1.99h2.611c4.193 0 8.061-.939 11.598-2.829 3.522-1.878 6.485-4.37 8.829-7.455l5.717 8.597h3.459V94.758c0-3.475-.663-6.772-1.984-9.856-1.312-3.103-3.127-5.799-5.42-8.097"/><path fill="#4e5155" d="M729.022 39.245h10.341v118.169h-10.341z"/><path fill="#4e5155" fill-rule="nonzero" d="M773.539 71.067l-35.157 43.178 35.157 43.169h13.467l-36.011-43.169 36.011-43.178h-13.467zm59.628.053v16.495h-2.866V74.024l-6.155 13.591h-1.891l-5.957-13.591v13.591h-2.852V71.12h4.645l5.124 11.42 5.407-11.42h4.545zm-22.897 0v2.626h-5.837v13.869h-2.872V73.746h-5.789V71.12h14.498z"/><defs><linearGradient id="_Linear1" x1="0" x2="1" y1="0" y2="0" gradientTransform="scale(1 -1)" gradientUnits="userSpaceOnUse"><stop offset="0" stop-color="#39393c"/><stop offset=".97" stop-color="#8a8a8d"/><stop offset="1" stop-color="#8a8a8d"/></linearGradient><linearGradient id="_Linear2" x1="0" x2="1" y1="0" y2="0" gradientTransform="matrix(1 0 0 -1 0 .006)" gradientUnits="userSpaceOnUse"><stop offset="0" stop-color="#a8cedb"/><stop offset=".27" stop-color="#87c1ea"/><stop offset=".6" stop-color="#4a71a0"/><stop offset=".97" stop-color="#3c5e8f"/><stop offset="1" stop-color="#3c5e8f"/></linearGradient><linearGradient id="_Linear3" x1="0" x2="1" y1="0" y2="0" gradientTransform="scale(1 -1)" gradientUnits="userSpaceOnUse"><stop offset="0" stop-color="#3c5e8f"/><stop offset=".34" stop-color="#4a71a0"/><stop offset=".8" stop-color="#87c1ea"/><stop offset="1" stop-color="#a8cedb"/></linearGradient></defs></svg>