<svg xmlns="http://www.w3.org/2000/svg" role="img" viewBox="-2.76 -2.76 143.39 25.77"><title>SoftBank logo</title><path fill="#babcbe" d="M27.39125 20.355H0v-6.78625h27.39125V20.355zm0-13.57H0V0h27.39125v6.785z"/><path fill="#474747" d="M128.88375 13.1725L132.8 9.335c.74-.69.9325-1.10375-.3825-1.10375V7.54h4.0575v.69125c-.79375.0275-1.235.2175-1.865.8275l-2.87625 2.7625L135.9275 18.23c.60125.965 1.20625 1.07625 2.02625 1.04625v.69h-3.125L130.365 13.0075l-1.53375 1.5225v2.925c0 1.60125.0525 1.82125 1.56 1.82125v.69H125.295v-.69c1.5875 0 1.6425-.22 1.6425-1.82125V4.36125c0-1.6-.165-1.79375-1.6425-1.79375v-.60625c1.34125-.195 2.27375-.4975 3.28625-1.1325l.25.165V13.1725h.0525zm-6.42 4.3375c0 1.54625.10875 1.76625 1.3425 1.76625v.69h-4.63375v-.69c1.31875 0 1.40125-.16375 1.40125-1.82125v-6.15875c0-1.0775-.13625-1.96125-.65875-2.515-.355-.3575-.85-.55-1.58876-.55-1.15125 0-2.38499 1.04875-3.47999 2.5675V17.455c0 1.6575.0263 1.82125 1.31375 1.82125v.69h-4.79251v-.69c1.47626 0 1.58626-.16375 1.58626-1.82125v-6.7125c0-1.60125-.13625-1.79375-1.58626-1.7675v-.60625c1.20126-.19375 2.13376-.47 3.03876-1.13375l.27625.16625.1075 2.12625h.0562c1.09501-1.4075 2.49126-2.2925 4.00126-2.2925 1.1775 0 2.02375.305 2.625.885.63625.60875.99124 1.6025.99124 3.065v6.325zm-15.8375.2775c-.68625.6875-1.61625 1.43625-2.96125 1.43625-.81875 0-1.395-.27625-1.81-.66625-.4075-.41-.5975-1.01875-.5975-1.74 0-1.27.76625-1.98625 1.8325-2.5675 1.01375-.6325 2.35875-1.0225 3.53625-1.35125v4.88875zm1.89249-6.7125c0-1.215-.19374-1.96-.90625-2.7625-.68374-.7725-1.64499-1.0775-3.28874-1.0775-1.4525 0-2.41.35875-3.125.775-.87375.52375-1.42125 1.27-1.42125 1.93125 0 .4175.245.80125.76375.80125.5775 0 .82375-.275.9575-.6625.25-.6075.49875-1.07875.855-1.35125.4925-.39 1.03875-.63625 1.86-.63625.90625 0 1.5625.27625 1.9725.8275.35625.47.44 1.29875.44 1.93375v1.1875L105.01 12.43c-1.75375.38625-3.12125.9375-4.055 1.57375-1.205.8-1.7 1.79375-1.7 3.06625 0 1.0475.44 1.85 1.0975 2.375.7125.58 1.645.82875 2.51875.82875 1.80875 0 2.905-.63625 3.835-1.52h.0838c.2475.91.8225 1.4075 1.78125 1.4075.71375 0 1.20625-.165 1.67125-.385l-.1638-.63625c-.2175.13625-.4675.1925-.7375.1925-.5475 0-.8225-.55375-.8225-1.79375V11.075zM85.75875 2.40125c0-.745.11-.965.82125-.965h2.60375c1.92 0 3.15.44125 3.91875 1.07625.60375.4975 1.07 1.575 1.07 2.515 0 1.32375-.46626 2.29125-1.26 2.95375-.99125.83-2.52125 1.18875-4.4125 1.18875h-2.74125V2.40125zM83.7325 17.07c0 1.95875-.16625 2.09625-2.21875 2.09625v.8H90.445c2.84875 0 4.4675-.66 5.53625-1.71C97.075 17.20625 97.515 15.825 97.515 14.445c0-1.51875-.76625-2.62375-1.755-3.3975-1.17625-.9125-2.76625-1.38125-4.54625-1.4375v-.055c1.725-.24875 2.87625-.80125 3.69875-1.545C95.925 7.09875 96.28 5.88125 96.28 4.83125c0-1.40875-.71125-2.51-1.75125-3.23C93.0475.60625 91.40125.385 88.88375.385h-7.37v.80125c2.0525 0 2.21875.1375 2.21875 2.12625V17.07zm2.02625-6.85125h3.39875c2.24375 0 3.755.3875 4.715 1.135.98375.74375 1.50375 1.81875 1.50375 3.03375 0 1.4375-.41 2.46125-1.07 3.15125-.93.96625-2.19 1.38125-4.13625 1.38125h-3.3975c-.85 0-1.01375-.19375-1.01375-1.355v-7.34625zM72.56125 7.79c1.725-.1675 2.91-.83 3.2625-3.73h.6825v3.48h2.9025v.88375h-2.9025V17.345c0 1.2975.38375 1.96125 1.34 1.96125.6325 0 1.1525-.22125 1.7025-.63625l.43875.60625c-.7125.635-1.565.9975-2.6875.9975-1.39625 0-2.68375-.66375-2.68375-2.81875V8.42375h-2.055V7.79zm-6.5525.63375H63.9825V7.54h2.02625V5.79875c0-1.68375.41-2.955 1.31625-3.895.655-.63375 1.58625-1.075 2.795-1.075 1.12 0 1.7775.3025 2.32625.6625.79625.52375 1.17875 1.21375 1.17875 1.71 0 .555-.275.85875-.76875.85875-.6575 0-.9025-.58125-1.20375-1.18875-.3025-.60875-.66-1.18625-1.50625-1.18625-.54875 0-.98625.1925-1.37125.6075-.5475.6625-.875 1.65625-.875 3.61875V7.54h3.48v.88375H67.9V17.455c0 1.6575.11 1.82125 2.165 1.82125v.69h-6.11v-.69c1.91375 0 2.05375-.19125 2.05375-1.8775v-8.975zM52.7025 13.7275c0-2.12875.38125-3.50875 1.12125-4.47625.65375-.7725 1.5625-1.15875 2.65875-1.15875 1.15125 0 2.08125.38625 2.71125 1.15875.74.9675 1.12375 2.3475 1.12375 4.47625 0 2.23625-.46875 3.64375-1.15125 4.52875-.63.71875-1.5075 1.15875-2.6575 1.15875-1.15125 0-2.03125-.44-2.65625-1.15875-.68625-.885-1.15-2.2925-1.15-4.52875m-1.975-.0288c0 2.5125.65625 4.17 1.72375 5.19125 1.09875.9675 2.415 1.38375 4.0575 1.38375 1.725 0 3.06875-.44625 4.165-1.4375 1.04125-1.0225 1.67-2.6525 1.67-5.1375 0-2.18125-.6-3.86625-1.67-4.945-1.07125-1.02125-2.33125-1.51875-4.165-1.51875-1.75375 0-3.015.4975-4.08375 1.49375-1.095 1.075-1.6975 2.78875-1.6975 4.97m-4.08-8.83875c-.57375-2.845-1.17625-3.81-4.41-3.81-1.37125 0-2.49375.38625-3.2575 1.0475-.66.55125-.96375 1.24375-.96375 2.09875 0 .77375.415 1.715.93625 2.21125.70875.69125 1.75 1.29875 3.47625 2.18125 2.13625 1.105 3.755 1.74125 4.93375 3.09125.575.66625 1.15125 1.90875 1.15125 3.2625 0 1.43625-.49625 2.73375-1.53625 3.6725-1.15 1.04875-2.95875 1.74-5.3975 1.74-1.59 0-3.5325-.35875-5.12375-.94-.24625-1.71125-.545-2.87125-.90625-4.08625l.96125-.25c.87875 3.39625 2.41125 4.2275 5.315 4.2275 1.26 0 2.43625-.35875 3.29-1.0225.84875-.665 1.3975-1.63 1.3975-2.87375 0-1.10375-.3025-1.76875-.87875-2.4575-.8775-1.0475-2.35625-1.7125-3.945-2.51125-1.6725-.85625-3.9725-2.1025-4.76625-3.23375-.4925-.71875-.8225-1.62875-.8225-2.6525 0-1.185.49125-2.3725 1.645-3.2575C38.73.52245 40.2375.0012 42.37375.0012c1.755 0 3.1775.22 4.5775.77125.16125 1.13125.41125 2.62375.65875 3.8675l-.9625.22z"/></svg>