<svg xmlns="http://www.w3.org/2000/svg" role="img" xmlns:xlink="http://www.w3.org/1999/xlink" viewBox="-2.20 -1.70 309.40 139.90"><title>Southeast University (member) logo</title><defs><path d="M32.10938-42.3125v5.78125c-2.25-1.07031-4.3711-1.875-6.35938-2.40625-1.99219-.53125-3.91406-.79688-5.76563-.79688-3.23046 0-5.71874.625-7.46874 1.875-1.7422 1.25-2.60938 3.03126-2.60938 5.34376 0 1.92968.57813 3.38671 1.73438 4.375 1.16406.99218 3.36718 1.78906 6.60937 2.39062l3.57813.73438c4.41406.83593 7.67187 2.3125 9.76562 4.4375 2.10156 2.11718 3.15625 4.94921 3.15625 8.5 0 4.24218-1.42188 7.45312-4.26563 9.64062C27.64063-.25 23.47266.84375 17.98438.84375c-2.0625 0-4.26562-.23438-6.60937-.70313-2.33594-.46874-4.75-1.16015-7.25-2.07812v-6.09375c2.40625 1.35547 4.75781 2.375 7.0625 3.0625 2.3125.67969 4.57813 1.01563 6.79688 1.01563 3.3828 0 5.99218-.66016 7.82812-1.98438 1.83203-1.33203 2.75-3.22656 2.75-5.6875 0-2.15625-.66406-3.83594-1.98438-5.04688-1.3125-1.20703-3.47656-2.11328-6.48437-2.71874L16.5-20.09376c-4.41797-.88281-7.61719-2.26563-9.59375-4.14063-1.96875-1.875-2.95313-4.47656-2.95313-7.8125 0-3.875 1.35938-6.92187 4.07813-9.14062 2.72656-2.22656 6.48828-3.34375 11.28125-3.34375 2.05078 0 4.14063.1875 6.26563.5625 2.125.36719 4.30078.91797 6.53124 1.65625zm0 0" id="a"/><path d="M18.375-29.03125c-2.89844 0-5.1836 1.13281-6.85938 3.39063C9.83595-23.39063 9-20.30079 9-16.375c0 3.92969.83203 7.02344 2.5 9.28125 1.66406 2.25 3.95703 3.375 6.875 3.375 2.86328 0 5.13281-1.1289 6.8125-3.39063 1.6875-2.26953 2.53125-5.35937 2.53125-9.26562 0-3.88281-.84375-6.96094-2.53125-9.23438-1.67969-2.28124-3.94922-3.42187-6.8125-3.42187zm0-4.57813c4.6875 0 8.36328 1.52735 11.03125 4.57813 2.67578 3.04297 4.01563 7.26172 4.01563 12.65625 0 5.36719-1.33985 9.57813-4.01563 12.64063C26.73828-.6797 23.0625.84375 18.375.84375c-4.71094 0-8.39844-1.52344-11.0625-4.57813-2.66797-3.0625-4-7.27343-4-12.64062 0-5.39453 1.33203-9.61328 4-12.65625 2.66406-3.05078 6.35156-4.57813 11.0625-4.57813zm0 0" id="b"/><path d="M5.09375-12.95313V-32.8125h5.39063v19.65625c0 3.10547.60156 5.4336 1.8125 6.98438C13.51563-4.6172 15.33202-3.84375 17.75-3.84375c2.91406 0 5.21875-.92578 6.90625-2.78125 1.6875-1.85156 2.53125-4.3789 2.53125-7.57813V-32.8125h5.39063V0H27.1875v-5.04688c-1.3125 2-2.83594 3.48438-4.5625 4.45313-1.71875.95703-3.72656 1.4375-6.01563 1.4375-3.77343 0-6.63671-1.17188-8.59374-3.51563C6.0664-5.01563 5.09375-8.4414 5.09375-12.95313zm13.5625-20.65624zm0 0" id="c"/><path d="M10.98438-42.125v9.3125h11.10937v4.1875H10.98437v17.8125c0 2.67969.36329 4.39844 1.09375 5.15625.73829.76172 2.22657 1.14063 4.46875 1.14063h5.54688V0h-5.54688C12.39063 0 9.51954-.77344 7.9375-2.32813c-1.58594-1.55078-2.375-4.3789-2.375-8.48437V-28.625H1.60937v-4.1875H5.5625v-9.3125zm0 0" id="d"/><path d="M32.9375-19.8125V0h-5.39063v-19.625c0-3.10156-.60937-5.42578-1.82812-6.96875-1.21094-1.55078-3.02344-2.32813-5.4375-2.32813-2.91797 0-5.21484.9336-6.89063 2.79688-1.67968 1.85547-2.51562 4.38281-2.51562 7.57813V0H5.45312v-45.59375H10.875v17.875c1.28125-1.96875 2.79688-3.4414 4.54688-4.42188 1.75-.97656 3.76562-1.46874 6.04687-1.46874 3.76953 0 6.625 1.16796 8.5625 3.5 1.9375 2.33593 2.90625 5.76562 2.90625 10.29687zm0 0" id="e"/><path d="M33.71875-17.75v2.625H8.9375c.22656 3.71875 1.34375 6.55469 3.34375 8.5 2.00781 1.9375 4.80078 2.90625 8.375 2.90625 2.07031 0 4.07813-.2539 6.01563-.76563 1.9453-.5078 3.8789-1.26953 5.79687-2.28125v5.09375c-1.9375.82422-3.92188 1.44922-5.95313 1.875-2.03124.42579-4.09374.64063-6.1875.64063-5.23046 0-9.375-1.51953-12.4375-4.5625C4.83595-6.76953 3.3125-10.89063 3.3125-16.07813c0-5.375 1.44531-9.64062 4.34375-12.79687 2.90625-3.15625 6.8164-4.73438 11.73438-4.73438 4.41406 0 7.90624 1.42188 10.46874 4.26563C32.4297-26.5 33.71876-22.63281 33.71876-17.75zm-5.39063-1.59375c-.04296-2.94531-.87109-5.29688-2.48437-7.04688-1.60547-1.7578-3.73438-2.64062-6.39063-2.64062-3.01171 0-5.42187.85156-7.23437 2.54688-1.80469 1.69921-2.83984 4.08984-3.10938 7.17187zm0 0" id="f"/><path d="M20.5625-16.5c-4.35547 0-7.3711.5-9.04688 1.5C9.83595-14 9-12.30078 9-9.90625c0 1.91797.6289 3.4375 1.89063 4.5625 1.2578 1.125 2.97265 1.6875 5.14062 1.6875 2.98828 0 5.38281-1.05469 7.1875-3.17188 1.80078-2.125 2.70313-4.9453 2.70313-8.46875V-16.5zm10.75-2.21875V0h-5.39063v-4.98438c-1.23046 1.9922-2.76171 3.46094-4.59374 4.40625C19.49218.3672 17.25.84376 14.59375.84376c-3.36719 0-6.03906-.9414-8.01563-2.82813-1.98046-1.8828-2.96875-4.40625-2.96875-7.5625 0-3.6953 1.23438-6.48437 3.70313-8.35937s6.15625-2.8125 11.0625-2.8125h7.54688v-.51563c0-2.48828-.82032-4.41015-2.45313-5.76562-1.625-1.35156-3.91406-2.03125-6.85938-2.03125-1.875 0-3.70312.22656-5.48437.67188-1.77344.44921-3.48047 1.12109-5.125 2.01562v-4.96875c1.97656-.76953 3.89453-1.34375 5.75-1.71875 1.85156-.38281 3.66016-.57813 5.42188-.57813 4.73828 0 8.28124 1.23438 10.625 3.70313 2.34374 2.46094 3.51562 6.1875 3.51562 11.1875zm0 0" id="g"/><path d="M26.57813-31.84375V-26.75c-1.53126-.78125-3.1211-1.36328-4.76563-1.75-1.63672-.39453-3.32813-.59375-5.07813-.59375-2.67968 0-4.6875.41406-6.03124 1.23438-1.33594.82421-2 2.05468-2 3.6875 0 1.25.47656 2.23437 1.4375 2.95312.95703.71094 2.8789 1.38672 5.76562 2.03125l1.84375.40625c3.83203.82422 6.55078 1.98438 8.15625 3.48438 1.61328 1.49218 2.42188 3.57421 2.42188 6.25 0 3.04296-1.21094 5.45312-3.625 7.23437C22.29687-.03906 18.98437.84375 14.76563.84375c-1.76172 0-3.59375-.17188-5.5-.51563C7.36719-.0039 5.36327-.51562 3.25-1.20311v-5.5625C5.23828-5.73438 7.20313-4.95704 9.14063-4.4375c1.9375.52344 3.85156.78125 5.75.78125 2.53125 0 4.47656-.42969 5.84375-1.29688 1.375-.875 2.0625-2.10156 2.0625-3.6875 0-1.46875-.4961-2.59375-1.48438-3.375-.99219-.78125-3.15234-1.53125-6.48438-2.25l-1.875-.4375c-3.34375-.70703-5.76171-1.78515-7.25-3.23437-1.48046-1.45703-2.21875-3.45703-2.21875-6 0-3.08203 1.09375-5.46094 3.28125-7.14063 2.1875-1.6875 5.28907-2.53124 9.3125-2.53124 2 0 3.875.15234 5.625.45312 1.75782.29297 3.38282.73047 4.875 1.3125zm0 0" id="h"/><path d="M5.21875-43.73438h5.9375v26.5625c0 4.6875.84766 8.0625 2.54688 10.125 1.70703 2.0625 4.46093 3.09375 8.26562 3.09375 3.78906 0 6.53516-1.03125 8.23438-3.09375 1.6953-2.0625 2.54687-5.4375 2.54687-10.125v-26.5625h5.95313v27.29688c0 5.71094-1.41407 10.01563-4.23438 12.92188-2.82422 2.90625-6.99219 4.35937-12.5 4.35937-5.52344 0-9.69531-1.45313-12.51563-4.35938-2.82421-2.90625-4.23437-7.21093-4.23437-12.92187zm0 0" id="i"/><path d="M32.9375-19.8125V0h-5.39063v-19.625c0-3.10156-.60937-5.42578-1.82812-6.96875-1.21094-1.55078-3.02344-2.32813-5.4375-2.32813-2.91797 0-5.21484.9336-6.89063 2.79688-1.67968 1.85547-2.51562 4.38281-2.51562 7.57813V0H5.45312v-32.8125H10.875v5.09375c1.28125-1.96875 2.79688-3.4414 4.54688-4.42188 1.75-.97656 3.76562-1.46874 6.04687-1.46874 3.76953 0 6.625 1.16796 8.5625 3.5 1.9375 2.33593 2.90625 5.76562 2.90625 10.29687zm0 0" id="j"/><path d="M5.65625-32.8125h5.39063V0H5.65625zm0-12.78125h5.39063v6.82813H5.65625zm0 0" id="k"/><path d="M1.78125-32.8125H7.5L17.75-5.28125 28.01563-32.8125h5.70312L21.42187 0h-7.32812zm0 0" id="l"/><path d="M24.67188-27.78125c-.60547-.34375-1.26563-.59766-1.98438-.76563-.71094-.16406-1.4961-.25-2.35938-.25-3.04296 0-5.3828.9922-7.01562 2.96876C11.6875-23.84766 10.875-21 10.875-17.28126V0H5.45312v-32.8125H10.875v5.09375c1.125-1.98828 2.59375-3.46875 4.40625-4.4375 1.82031-.96875 4.03516-1.45313 6.64063-1.45313.36328 0 .76953.02735 1.21874.07813.44532.05469.94532.125 1.5.21875zm0 0" id="m"/><path d="M19.3125 3.04688C17.78125 6.95313 16.28906 9.5 14.84375 10.6875c-1.4375 1.19531-3.3711 1.79688-5.79688 1.79688H4.75V7.96875h3.15625c1.48828 0 2.64063-.35547 3.45313-1.0625.8203-.69922 1.73437-2.35547 2.73437-4.96875l.96875-2.46875L1.78125-32.8125H7.5L17.75-7.15625 28.01563-32.8125h5.70312zm0 0" id="n"/></defs><use y="50" xlink:href="#a"/><use x="38.086" y="50" xlink:href="#b"/><use x="74.795" y="50" xlink:href="#c"/><use x="112.822" y="50" xlink:href="#d"/><use x="136.348" y="50" xlink:href="#e"/><use x="174.375" y="50" xlink:href="#f"/><use x="211.289" y="50" xlink:href="#g"/><use x="248.057" y="50" xlink:href="#h"/><use x="279.316" y="50" xlink:href="#d"/><g><use y="120" xlink:href="#i"/><use x="43.916" y="120" xlink:href="#j"/><use x="81.943" y="120" xlink:href="#k"/><use x="98.613" y="120" xlink:href="#l"/><use x="134.121" y="120" xlink:href="#f"/><use x="171.035" y="120" xlink:href="#m"/><use x="195.703" y="120" xlink:href="#h"/><use x="226.963" y="120" xlink:href="#k"/><use x="243.633" y="120" xlink:href="#d"/><use x="267.158" y="120" xlink:href="#n"/></g></svg>