<svg xmlns="http://www.w3.org/2000/svg" role="img" xmlns:xlink="http://www.w3.org/1999/xlink" viewBox="13.05 12.80 179.40 30.15"><title>Stackpath logo</title><defs><linearGradient id="a" x1="56.788" x2="71.086" y1="27.968" y2="27.968" gradientUnits="userSpaceOnUse"><stop offset="0" stop-opacity=".2"/><stop offset="1" stop-opacity=".9"/><stop offset="1"/></linearGradient><linearGradient id="b" x1="134.447" x2="148.746" y1="27.968" y2="27.968" xlink:href="#a"/></defs><path d="M89.323 31.362l.03.092a8.48 8.48 0 0 1-2.322 6.043q-2.169 2.085-6.292 2.085a9.153 9.153 0 0 1-6.73-2.565 8.955 8.955 0 0 1-2.59-6.658v-4.696a9.168 9.168 0 0 1 2.489-6.653 8.618 8.618 0 0 1 6.478-2.572q4.23 0 6.468 2.148a9.029 9.029 0 0 1 2.53 6.103l-.031.093H84.31a5.559 5.559 0 0 0-.973-3.26 3.605 3.605 0 0 0-2.951-1.066 3.217 3.217 0 0 0-2.775 1.429 6.354 6.354 0 0 0-1.011 3.746v4.729a6.016 6.016 0 0 0 1.104 3.769 3.618 3.618 0 0 0 3.036 1.437 3.158 3.158 0 0 0 2.651-1.005 5.685 5.685 0 0 0 .891-3.198h5.041zm-60.192 1.913a2.26 2.26 0 0 0-.781-1.839 9.99 9.99 0 0 0-2.806-1.375 21.485 21.485 0 0 1-6.269-2.882 5.223 5.223 0 0 1-2.039-4.441 5.38 5.38 0 0 1 2.43-4.573 10.303 10.303 0 0 1 6.17-1.747 9.334 9.334 0 0 1 6.078 1.923 5.887 5.887 0 0 1 2.291 4.952l-.031.093h-5.027a2.847 2.847 0 0 0-.906-2.186 3.525 3.525 0 0 0-2.499-.842 3.887 3.887 0 0 0-2.453.696 2.102 2.102 0 0 0-.888 1.715 1.82 1.82 0 0 0 .896 1.585 18.074 18.074 0 0 0 3.364 1.491 15.618 15.618 0 0 1 5.726 2.811 5.758 5.758 0 0 1 1.923 4.589 5.432 5.432 0 0 1-2.291 4.643 10.068 10.068 0 0 1-6.078 1.676 11.248 11.248 0 0 1-6.575-1.923 6.154 6.154 0 0 1-2.698-5.539l.031-.093h5.043a3.358 3.358 0 0 0 1.042 2.78 4.993 4.993 0 0 0 3.158.834 3.733 3.733 0 0 0 2.4-.648 2.1 2.1 0 0 0 .789-1.7m6.39-16.708v4.449h6.108V39.37h4.637V21.016h6.071v-4.449H35.521zm111.051 0v4.449h6.109V39.37h4.638V21.016h6.069v-4.449h-16.816zm32.162 0v9.161h-7.542v-9.161h-4.599V39.37h4.599v-9.197h7.542v9.197h4.599V16.567h-4.599zm-61.015 14.982v7.815h-5.268V16.561h8.477a9.334 9.334 0 0 1 6.387 2.076 6.882 6.882 0 0 1 2.362 5.427 6.853 6.853 0 0 1-2.362 5.426 9.377 9.377 0 0 1-6.387 2.06h-3.209zm0-4.071h3.209a3.182 3.182 0 0 0 3.497-3.381 3.538 3.538 0 0 0-.894-2.492 3.363 3.363 0 0 0-2.603-.97h-3.209zm-8.47 10.823c-2.66-3.08-6.816-7.855-8.989-10.408l8.989-10.445v-.881h-5.217c-2.413 2.851-4.79 5.589-7.203 8.436v-8.436h-4.6V39.37h4.6v-8.437l7.24 8.437h5.181v-1.069zm26.601-21.735l-7.845 22.803h4.902l8.033-22.803h-5.09zm-77.66 0l-7.844 22.803h4.902l8.033-22.803H58.19z"/><path fill="url(#a)" d="M63.281 16.567l-2.454 6.966 2.454 7.021h-4.928l-1.565 4.444h7.888l1.507 4.371h4.903l-7.805-22.802z"/><path fill="url(#b)" d="M140.94 16.567l-2.454 6.966 2.454 7.021h-4.927l-1.566 4.444h7.888l1.508 4.371h4.903l-7.806-22.802z"/><path d="M186.562 16.945h-.696v1.895h-.469v-1.895h-.688v-.379h1.853zm.878-.38l.584 1.649.581-1.649h.615v2.274h-.47v-.622l.047-1.073-.614 1.695h-.321l-.612-1.693.047 1.072v.622h-.469v-2.274h.612z"/></svg>