<svg xmlns="http://www.w3.org/2000/svg" role="img" viewBox="-2.88 -2.88 129.13 149.63"><title>StarlingX logo</title><defs><style>.cls-1{fill:#330072}</style></defs><path d="M5.54 136.81c-2-.52-2.52-.77-2.52-1.53 0-.56.51-1 1.5-1a5.44 5.44 0 0 1 3 1.15l1.34-1.94A6.78 6.78 0 0 0 4.55 132c-2.38 0-4.09 1.4-4.09 3.52 0 2.32 1.52 3 3.87 3.57 2 .5 2.36.83 2.36 1.48 0 .68-.64 1.1-1.69 1.1a5.34 5.34 0 0 1-3.48-1.42L0 142.07a7.42 7.42 0 0 0 5 1.87c2.52 0 4.29-1.3 4.29-3.62-.05-2.04-1.39-2.89-3.75-3.51zm8.03-2.32h3.55v9.31h2.57v-9.31h3.56v-2.37h-9.68v2.37zM30.89 132l-5 11.76h2.61l1.07-2.62h4.94l1.07 2.62h2.68l-5-11.76zm-.4 6.87l1.55-3.78 1.55 3.78zm22.5-2.87a3.68 3.68 0 0 0-1-2.67 4.62 4.62 0 0 0-3.4-1.19h-5.34v11.66h2.57v-3.74h2l2.5 3.74h3l-2.86-4.17a3.63 3.63 0 0 0 2.53-3.63zm-2.61.13c0 1-.71 1.66-2 1.66h-2.6v-3.36h2.55c1.26 0 2 .57 2 1.67zm10.67-4.01h-2.56v11.68h8.39v-2.33h-5.83v-9.35zm11.06 0h2.57v11.68h-2.57zm16.5 7.19l-5.47-7.19h-2.37v11.68h2.53v-7.42l5.66 7.42h2.18v-11.68h-2.53v7.19zm14.05-.01h2.59v1.7a4.09 4.09 0 0 1-2.42.71 3.5 3.5 0 0 1-3.54-3.71 3.5 3.5 0 0 1 3.35-3.64 4.31 4.31 0 0 1 3.06 1.19l1.61-2a6.4 6.4 0 0 0-4.58-1.6 6 6 0 0 0-6.13 6 5.85 5.85 0 0 0 6.14 6 7.56 7.56 0 0 0 5-1.85v-5.07h-5.07zm20.68-7.18h-2.92l-2.48 3.79-2.44-3.79h-3l3.9 5.74-4.07 5.94h2.92l2.64-4 2.61 4h3.01l-4.07-5.97 3.9-5.71z" class="cls-1"/><path fill="#685bc7" d="M58.46 21.04L42.68 0H0l37.12 49.49 21.34-28.45zM54.97 73.3l25.85 34.47h42.68L86.19 58c-8.2 8.61-20.13 14.52-31.22 15.3z"/><path d="M29.34 98.56l22.84-30.45h.32c11.81 0 25.65-7.32 33.15-17.64l23.37-31.16A47.48 47.48 0 0 1 123.5 7.14c-6.28-2.61-15.84-4-15.84-4C103.96 0 95.51 0 95.51 0 80.82 0 73.84 9.31 73.84 9.31l-32.21 43c19.16-.12 23-3.08 34.73-18.24l2.45-3.32a13 13 0 0 1 10.46-5.27l-8.71 11.77c-12.75 16.49-18 20.34-40.18 20.34h-2.69L0 107.77h9.24c7.05 0 15.65-3.77 20.1-9.21z" class="cls-1"/></svg>