<svg xmlns="http://www.w3.org/2000/svg" role="img" viewBox="292.18 225.68 562.64 299.14"><title>Supermicro (member) logo</title><defs><clipPath id="a" clipPathUnits="userSpaceOnUse"><path d="M0 577.471h877.456V0H0z"/></clipPath></defs><g clip-path="url(#a)" transform="matrix(1.33333 0 0 -1.33333 0 769.961)"><path fill="#17ad49" d="M447.93 212.251c-98.461-9.849-182.553 22.275-187.824 71.751-5.274 49.477 70.269 97.569 168.727 107.421 98.454 9.848 182.547-22.275 187.823-71.754 5.267-49.475-70.27-97.569-168.726-107.418m169.047 109.923c-8.089 55.579-101.746 88.823-209.193 74.254-107.444-14.572-187.991-71.44-179.903-127.018 8.087-55.576 101.746-88.823 209.193-74.251 107.443 14.57 187.99 71.438 179.903 127.015"/><path fill="#fff" d="M428.833 391.423c-98.458-9.852-174.001-57.944-168.728-107.421 5.272-49.476 89.364-81.599 187.825-71.751 98.456 9.849 173.993 57.943 168.725 107.419-5.275 49.479-89.368 81.601-187.822 71.753"/><path fill="#122f5b" d="M299.526 305.973h-1.276c-.495 7.647-5.306 13.835-13.089 13.835-4.035 0-8.138-3.129-8.138-7.5 0-10.122 25.615-11.871 25.615-26.144 0-7.571-5.801-13.911-14.79-13.911-3.253 0-5.589.656-7.429 1.385-1.911.658-3.326 1.31-5.024 1.31-1.628 0-1.981-1.237-2.124-2.695h-1.272v16.533h1.272c1.063-11.652 9.695-13.69 13.87-13.69 4.741 0 9.339 2.548 9.339 7.865 0 11.071-24.905 12.376-24.905 26.799 0 7.427 6.51 12.89 13.868 12.89 2.548 0 4.669-.656 6.369-1.383 1.77-.657 3.112-1.383 4.034-1.383 1.697 0 2.12 1.309 2.404 2.766h1.276z"/><path fill="#122f5b" d="M275.396 276.269c1.614 0 2.992-.498 4.452-1.026.32-.116.652-.236 1.002-.356 1.456-.576 3.698-1.313 6.999-1.313 7.804 0 13.468 5.295 13.468 12.59 0 6.958-6.992 10.716-13.755 14.351-6.099 3.279-11.86 6.376-11.86 11.793 0 5.277 4.891 8.822 9.46 8.822 6.028 0 10.793-3.41 13.043-8.92v7.211c-.534-.506-1.286-.86-2.358-.86-.9 0-1.836.389-3.023.88-.451.186-.942.39-1.471.586-2.096.895-3.955 1.301-5.909 1.301-6.918 0-12.547-5.189-12.547-11.568 0-6.913 6.613-10.615 13.008-14.195 6.119-3.425 11.897-6.66 11.897-12.605 0-6.311-5.525-9.186-10.66-9.186-1.933 0-10.368.503-13.821 8.984v-7.148c.488.395 1.156.659 2.075.659m12.453-5.339c-3.754 0-6.315.844-7.916 1.478-.308.104-.651.229-.983.349-1.343.485-2.403.868-3.554.868-.397 0-.662 0-.808-1.502l-.118-1.193h-3.792v19.177h3.801l.109-1.202c1.057-11.587 9.876-12.488 12.554-12.488 3.99 0 8.018 2.024 8.018 6.543 0 4.395-5.123 7.263-10.546 10.298-6.731 3.769-14.361 8.039-14.361 16.502 0 7.836 6.816 14.211 15.191 14.211 2.291 0 4.545-.487 6.889-1.489.502-.185 1.023-.4 1.503-.599.804-.333 1.637-.678 2.011-.678.467 0 .777 0 1.107 1.696l.207 1.07h3.687v-19.32h-3.837l-.08 1.237c-.405 6.271-4.202 12.599-11.769 12.599-3.225 0-6.817-2.538-6.817-6.179 0-3.837 5.086-6.571 10.47-9.465 7.099-3.816 15.145-8.141 15.145-16.679 0-8.685-6.926-15.234-16.111-15.234"/><path fill="#122f5b" d="M310.76 304.64c0 4.895 0 6.349-5.321 6.349v1.049h15.963v-1.049c-5.323 0-5.323-1.454-5.323-6.349v-15.38c0-2.272.227-6.528.908-8.566 1.301-3.843 5.038-5.589 8.774-5.589 3.679 0 7.754 1.453 9.903 4.717 1.814 2.797 1.814 7.34 1.814 10.485v14.333c0 4.895 0 6.349-5.32 6.349v1.049h13.074v-1.049c-5.32 0-5.32-1.454-5.32-6.349v-17.186c0-6.992-2.66-14.853-14.433-14.853-12.003 0-14.719 7.045-14.719 14.679z"/><path fill="#122f5b" d="M337.636 310.716c.639-.744.929-1.751 1.06-3.027.131 1.276.421 2.283 1.06 3.027zm-2.208-33.259c-1.299-1.29-2.878-2.191-4.51-2.777 1.828.587 3.333 1.514 4.51 2.777m-24.511 33.259c1.082-1.26 1.165-3.274 1.165-6.077v-17.36c0-8.495 3.494-12.661 11.262-13.276-3.67.689-6.488 2.96-7.609 6.266-.773 2.318-.977 6.893-.977 8.99v15.38c0 2.803.082 4.817 1.166 6.077zm14.563-39.437c-10.645 0-16.041 5.383-16.041 16v17.36c0 2.106 0 3.627-.436 4.265-.242.355-.865.763-3.563.763h-1.323v3.693h18.608v-3.693h-1.322c-2.7 0-3.324-.408-3.566-.763-.435-.638-.435-2.159-.435-4.265v-15.38c0-2.178.228-6.315.839-8.147 1.17-3.454 4.654-4.686 7.521-4.686 2.941 0 6.799 1.083 8.8 4.122 1.595 2.461 1.595 6.853 1.595 9.759v14.332c0 2.106 0 3.627-.436 4.266-.24.354-.864.762-3.562.762h-1.323v3.693h15.719v-3.693h-1.322c-2.698 0-3.321-.408-3.562-.762-.436-.639-.436-2.16-.436-4.266v-17.186c0-10.43-5.595-16.174-15.755-16.174"/><path fill="#122f5b" d="M357.516 291.53c2.095-.461 4.19-.873 6.286-.873 10.018 0 11.659 7.575 11.659 10.604 0 5.709-4.473 10.778-13.302 10.778h-15.284v-1.05c5.322 0 5.322-1.454 5.322-6.349v-23.769c0-4.893 0-6.352-5.322-6.352v-1.048h15.963v1.048c-5.322 0-5.322 1.459-5.322 6.352zm0 17.653c1.246.352 2.55.525 3.851.525 4.869 0 7.753-3.962 7.753-8.739 0-4.195-2.544-8.327-6.227-8.327-1.696 0-3.79.233-5.377.579z"/><path fill="#122f5b" d="M358.838 294.315c1.327-.219 2.825-.352 4.055-.352 2.934 0 4.905 3.623 4.905 7.006 0 3.692-1.988 7.417-6.432 7.417-.859 0-1.706-.082-2.528-.245zm5.214 16.318c3.823-1.178 6.39-4.884 6.39-9.664 0-3.521-1.661-7.255-4.5-8.85 7.95 1.092 8.197 8.265 8.197 9.142 0 4.034-2.685 8.696-10.087 9.372m-11.698-35.84h5.005c-1.082 1.26-1.165 3.275-1.165 6.078v29.313l.963.271c.357.101.716.188 1.078.262h-5.882c1.082-1.26 1.165-3.275 1.165-6.077v-23.769c0-2.803-.083-4.818-1.164-6.078m11.806-2.644h-18.608v3.692h1.323c2.697 0 3.321.408 3.564.764.435.639.435 2.16.435 4.266v23.769c0 2.106 0 3.627-.435 4.265-.243.355-.867.763-3.564.763h-1.323v3.692h16.606c10.102 0 14.625-6.076 14.625-12.099 0-4.429-2.734-11.925-12.981-11.925-1.698 0-3.363.249-4.964.565v-9.03c0-2.106 0-3.627.436-4.266.242-.356.866-.764 3.564-.764h1.322z"/><path fill="#122f5b" d="M388.99 294.679h7.529c4.471 0 6.227.462 6.565 5.649h1.02v-13.459h-1.02c-.451 5.126-1.982 5.71-6.565 5.71h-7.529v-14.097c0-2.389.678-2.914 3.058-2.914h7.698c4.98 0 6.792 2.388 9.733 7.576h1.078l-3.171-9.673h-29.042v1.048c5.326 0 5.326 1.459 5.326 6.352v23.769c0 4.894 0 6.349-5.326 6.349v1.049h28.759l.509-8.446h-1.132c-1.075 5.883-2.604 6.349-7.924 6.349h-9.566z"/><path fill="#122f5b" d="M403.614 310.716c.958-.339 1.726-.879 2.351-1.737l-.106 1.737zm-3.572-17.101c1.16-.255 2.061-.715 2.741-1.508v2.99c-.714-.81-1.638-1.248-2.741-1.482m-16.216-18.823h5.419c-.995.566-1.576 1.664-1.576 3.689v32.235h-3.844c1.083-1.26 1.166-3.274 1.166-6.077V280.87c0-2.802-.083-4.818-1.165-6.078m19.594 0h3.008l.884 2.697c-1.098-1.244-2.324-2.162-3.892-2.697m4.924-2.643h-31.321v3.691h1.321c2.701 0 3.325.409 3.568.764.434.639.434 2.16.434 4.266v23.769c0 2.106 0 3.627-.434 4.265-.242.355-.866.763-3.568.763h-1.321v3.693h31.324l.668-11.09h-3.637l-.199 1.083c-.934 5.12-1.767 5.265-6.623 5.265h-8.245V296h6.208c4.011 0 4.969.162 5.246 4.414l.08 1.236h3.581v-16.103h-3.553l-.105 1.205c-.37 4.199-1.067 4.505-5.249 4.505h-6.208v-12.776c0-1.562 0-1.591 1.737-1.591h7.698c4.265 0 5.742 1.893 8.583 6.905l.38.67h3.673z"/><path fill="#122f5b" d="M450.182 273.47v1.048c-5.153.408-7.189 3.264-9.964 7.226l-7.304 10.484c4.926 1.05 9.287 4.198 9.287 9.789 0 3.378-1.983 10.02-13.021 10.02h-16.245v-1.049c5.321 0 5.321-1.455 5.321-6.349V280.87c0-4.893 0-6.352-5.321-6.352v-1.048h15.964v1.048c-5.323 0-5.323 1.459-5.323 6.352v10.602h3.849l12.738-18.002zm-26.606 35.944c1.53.234 3.057.526 4.642.526 4.585 0 7.64-3.495 7.64-8.155 0-6.471-5.659-8.445-11.035-8.445h-1.247z"/><path fill="#122f5b" d="M424.897 308.285v-13.623c3.637.013 9.64.968 9.64 7.123 0 4.024-2.599 6.833-6.319 6.833-1.104 0-2.187-.154-3.321-.333m6.855 2.292c3.284-1.364 5.428-4.65 5.428-8.792 0-3.943-1.921-6.862-5.36-8.438l.819.174c2.477.529 8.24 2.413 8.24 8.497 0 1.866-.705 7.593-9.127 8.559m-13.338-35.785h5.004c-1.081 1.26-1.164 3.276-1.164 6.078v29.681l1.086.165h-4.927c1.083-1.26 1.166-3.274 1.166-6.077V280.87c0-2.802-.083-4.818-1.165-6.078m22.433 0h4.002c-2.391 1.451-3.977 3.716-5.713 6.194l-8.327 11.953c-.731-.261-1.521-.467-2.364-.618zm10.657-2.643h-12.026l-12.736 18.002h-1.845v-9.281c0-2.106 0-3.627.437-4.266.242-.355.866-.764 3.565-.764h1.322v-3.691h-18.607v3.691h1.321c2.697 0 3.321.408 3.565.764.434.639.434 2.16.434 4.266v23.769c0 2.106 0 3.627-.434 4.266-.244.355-.867.762-3.565.762h-1.321v3.693h17.566c10.586 0 14.342-6.11 14.342-11.342 0-4.997-3.119-8.849-8.447-10.579l6.228-8.94c2.657-3.793 4.412-6.301 8.985-6.663l1.216-.096z"/><path fill="#122f5b" d="M458.502 305.746h-.113v-24.875c0-4.893 0-6.352 5.321-6.352v-1.048h-13.077v1.048c5.322 0 5.322 1.459 5.322 6.352v23.826c0 4.662-.566 6.292-5.322 6.292v1.049h10.641l13.587-30.176 13.416 30.176h10.585v-1.049c-5.317 0-5.317-1.454-5.317-6.349v-23.769c0-4.893 0-6.352 5.317-6.352v-1.048h-15.965v1.048c5.323 0 5.323 1.459 5.323 6.352v24.875h-.114l-14.321-32.275h-.907z"/><path fill="#122f5b" d="M457.19 307.067h2.171l13.969-31.364 1.417 3.194-14.328 31.819h-4.582c.86-.905 1.213-2.156 1.353-3.649m-1.079-32.275h2.12c-.639.744-.929 1.751-1.06 3.028-.13-1.277-.421-2.284-1.06-3.028m32.266 0h5.009c-1.081 1.26-1.163 3.275-1.163 6.078v23.769c0 2.803.082 4.817 1.163 6.077h-4.25l-1.623-3.649h2.028V280.87c0-2.803-.082-4.818-1.164-6.078m11.806-2.643h-18.608v3.691h1.321c2.699 0 3.323.409 3.565.764.437.639.437 2.16.437 4.266v18.895l-12.254-27.616h-2.625l-12.308 27.635V280.87c0-2.106 0-3.627.435-4.266.242-.356.866-.764 3.564-.764h1.321v-3.691h-15.72v3.691h1.321c2.699 0 3.323.408 3.565.764.435.639.435 2.16.435 4.266v23.826c0 4.459-.412 4.971-4 4.971h-1.321v3.692h12.817l12.725-28.261 12.565 28.261h12.765v-3.692h-1.321c-2.695 0-3.319-.408-3.561-.762-.435-.639-.435-2.16-.435-4.266V280.87c0-2.106 0-3.627.435-4.266.243-.356.866-.764 3.561-.764h1.321z"/><path fill="#122f5b" d="M511.994 280.87c0-4.893 0-6.352 5.324-6.352v-1.048h-15.966v1.048c5.322 0 5.322 1.459 5.322 6.352v23.769c0 4.895 0 6.349-5.322 6.349v1.049h15.966v-1.049c-5.324 0-5.324-1.454-5.324-6.349z"/><path fill="#122f5b" d="M506.832 274.793h5.005c-1.082 1.26-1.164 3.275-1.164 6.078v23.769c0 2.802.082 4.817 1.164 6.077h-5.006c1.083-1.26 1.166-3.275 1.166-6.077v-23.769c0-2.803-.083-4.818-1.165-6.078m11.809-2.644h-18.61v3.692h1.322c2.698 0 3.322.408 3.565.764.435.639.435 2.16.435 4.266v23.769c0 2.106 0 3.627-.435 4.265-.243.355-.866.763-3.565.763h-1.322v3.692h18.61v-3.692h-1.323c-2.701 0-3.325-.408-3.567-.763-.436-.638-.436-2.159-.436-4.265v-23.769c0-2.106 0-3.627.437-4.266.242-.355.866-.764 3.566-.764h1.323z"/><path fill="#122f5b" d="M553.714 299.804h-.851c-1.753 6.584-5.545 11.07-12.564 11.07-7.528 0-13.081-6.001-13.081-18.818 0-12.935 7.534-16.951 13.984-16.951 6.001 0 9.114 2.91 12.512 7.978l.847-.583c-3.451-6.523-8.093-9.9-15.511-9.9-10.808 0-18.165 8.501-18.165 19.395 0 11.42 7.695 20.857 19.184 20.857 2.944 0 5.323-.699 7.986-2.036.452-.235 1.073-.584 1.639-.584 1.245 0 1.982 1.455 2.208 2.681h.961z"/><path fill="#122f5b" d="M549.242 308.946c1.06-.963 1.989-2.136 2.782-3.514l-.28 4.313c-.534-.507-1.214-.835-2.05-.835-.154 0-.306.013-.452.036m-16.166 1.195c-6.572-2.798-10.87-9.584-10.87-18.146 0-10.469 7.079-18.069 16.834-18.073-6.698.875-13.144 5.97-13.144 18.134 0 8.743 2.588 15.043 7.18 18.085m5.974-38.862c-11.292 0-19.488 8.712-19.488 20.716 0 12.644 8.816 22.179 20.507 22.179 2.974 0 5.539-.651 8.578-2.178l.121-.063c.253-.132.725-.38.926-.38.283 0 .741.699.907 1.6l.201 1.082h3.299l1.023-15.752h-3.277l-.261.981c-1.808 6.788-5.501 10.087-11.287 10.087-7.473 0-11.76-6.376-11.76-17.495 0-14.503 9.693-15.63 12.663-15.63 5.428 0 8.199 2.598 11.414 7.393l.743 1.11 2.921-2.006-.551-1.04c-3.828-7.235-9.129-10.604-16.679-10.604"/><path fill="#122f5b" d="M594.866 273.47v1.048c-5.152.408-7.188 3.264-9.963 7.226l-7.304 10.484c4.928 1.05 9.285 4.198 9.285 9.789 0 3.378-1.981 10.02-13.018 10.02h-16.247v-1.049c5.322 0 5.322-1.455 5.322-6.349V280.87c0-4.893 0-6.352-5.322-6.352v-1.048h15.962v1.048c-5.319 0-5.319 1.459-5.319 6.352v10.602h3.849l12.733-18.002zm-26.604 35.944c1.525.234 3.054.526 4.64.526 4.589 0 7.642-3.495 7.642-8.155 0-6.471-5.66-8.445-11.037-8.445h-1.245z"/><path fill="#122f5b" d="M569.585 308.286v-13.624c3.637.014 9.637.97 9.637 7.124 0 4.023-2.599 6.833-6.32 6.833-1.103 0-2.186-.155-3.317-.333m6.853 2.292c3.283-1.365 5.427-4.65 5.427-8.792 0-3.943-1.922-6.863-5.36-8.439l.82.175c2.477.528 8.238 2.411 8.238 8.496 0 1.866-.706 7.593-9.125 8.56m-13.339-35.785h5.007c-1.082 1.26-1.165 3.275-1.165 6.078v29.679l1.086.167h-4.929c1.083-1.26 1.165-3.275 1.165-6.077v-23.769c0-2.803-.082-4.818-1.164-6.078m22.428 0h4.007c-2.391 1.451-3.977 3.715-5.713 6.194l-8.326 11.952c-.731-.26-1.52-.466-2.364-.618l.059-.085zm10.662-2.644H584.16l-12.732 18.002h-1.843v-9.28c0-2.106 0-3.627.436-4.267.242-.355.864-.763 3.56-.763h1.321v-3.692h-18.605v3.692h1.322c2.697 0 3.322.408 3.565.763.436.64.436 2.161.436 4.267v23.769c0 2.105 0 3.626-.436 4.265-.242.355-.866.762-3.565.762h-1.322v3.693h17.569c13.65 0 14.341-9.448 14.341-11.342 0-4.997-3.119-8.849-8.445-10.579l6.226-8.939c2.658-3.794 4.413-6.301 8.983-6.663l1.218-.096z"/><path fill="#ea2229" d="M633.325 292.947c0-10.848-8.544-19.641-19.086-19.641-10.543 0-19.087 8.793-19.087 19.641 0 10.851 8.544 19.641 19.087 19.641 10.542 0 19.086-8.79 19.086-19.641"/><path fill="#223a6d" d="M615.334 360.424h.769c.894 0 1.62.3 1.62 1.024 0 .64-.471 1.067-1.493 1.067-.427 0-.724-.043-.896-.086zm-.043-3.966h-1.621v6.995c.64.128 1.535.213 2.687.213 1.323 0 1.919-.213 2.433-.512.384-.298.682-.853.682-1.535 0-.768-.598-1.365-1.451-1.621v-.086c.683-.255 1.067-.767 1.28-1.705.214-1.068.341-1.493.512-1.749h-1.749c-.213.256-.341.896-.555 1.706-.127.768-.554 1.109-1.45 1.109h-.768zm-4.309 3.668c0-3.114 2.303-5.587 5.461-5.587 3.072 0 5.332 2.473 5.332 5.544 0 3.114-2.26 5.631-5.375 5.631s-5.418-2.517-5.418-5.588m12.584 0c0-3.967-3.113-7.081-7.166-7.081-4.009 0-7.208 3.114-7.208 7.081 0 3.881 3.199 6.996 7.208 6.996 4.053 0 7.166-3.115 7.166-6.996"/></g></svg>