<svg xmlns="http://www.w3.org/2000/svg" role="img" viewBox="7.40 -47.60 6895.20 3065.20"><defs><linearGradient id="a" x1="140.86" x2="506.841" y1="1500.971" y2="1500.971" gradientUnits="userSpaceOnUse"><stop offset="0" stop-color="#026938"/><stop offset="1" stop-color="#1b7938"/></linearGradient><linearGradient id="b" x1="2105.843" x2="2474.51" y1="1501.466" y2="1501.466" gradientUnits="userSpaceOnUse"><stop offset="0" stop-color="#99c539"/><stop offset="1" stop-color="#a4cd39"/></linearGradient><linearGradient id="c" x1="800.157" x2="1158.327" y1="1488.903" y2="1488.903" gradientUnits="userSpaceOnUse"><stop offset="0" stop-color="#3b8c37"/><stop offset="1" stop-color="#519938"/></linearGradient><linearGradient id="d" x1="1456.289" x2="1812.54" y1="1489.132" y2="1489.132" gradientUnits="userSpaceOnUse"><stop offset="0" stop-color="#6dab39"/><stop offset="1" stop-color="#80b73a"/></linearGradient></defs><path fill="url(#a)" d="M427.077 675.075c56.488 16.25 79.52 47.645 79.538 110.343q.186 610.551.07 1221.102c0 72.45.431 144.903-.141 217.348-.518 65.5-40.591 106.234-105.377 107.272-48.73.78-97.48.538-146.22.297-75.648-.374-113.816-38.186-113.895-114.356q-.45-432.72-.149-865.442-.007-280.577.06-561.154c.082-81.722 38.672-120.298 120.125-120.215 47.388.049 94.776 1.009 142.159 1.559 6.116 14.463 14.242 14.218 23.83 3.246z"/><path fill="#6e6e6e" d="M6214.014 1471.88c2.862-146.927-4.683-328.83 3.487-510.62a346.232 346.232 0 0 1 31.69-129.69c17.39-37.919 42.682-69.454 77.3-93.11 176.305-120.472 412.124-14.983 436.844 195.891a991.403 991.403 0 0 1 6.466 110.37c.716 146.295-.824 292.61 1.122 438.883.453 33.982-10.45 41.266-42.223 40.68-104.091-1.915-208.251.095-312.36-1.279-27.479-.362-39.641 4.107-39.269 36.034 1.74 148.914-.231 297.87 1.142 446.792.928 100.56 57.032 148.438 143.73 127.086 43.774-10.781 66.768-40.523 75.32-82.22 4.197-20.459 4.886-41.892 4.983-62.895.473-101.484.722-202.976-.198-304.455-.207-22.781 4.634-33.883 30.408-32.498 36.8 1.976 73.792.93 110.687.308 16.768-.282 27.705 2.358 27.185 23.22-3.31 133 7.495 266.342-6.295 399.032-22.181 213.427-263.45 321.787-441.384 199.066-69.893-48.206-94.03-121.122-103.588-200.48-3.927-32.608-4.736-65.737-4.836-98.636-.473-155.523-.21-311.049-.21-501.479zm163.82-289.43c0 60.533.878 121.086-.448 181.59-.504 23.033 4.581 33.098 30.274 32.24 55.21-1.842 110.56-1.738 165.78-.027 25.09.778 30.826-8.493 30.622-31.91-1.022-117.11-.163-234.234-.825-351.348-.103-18.226-2.97-36.85-7.454-54.557-12.482-49.304-45.406-75.429-96.01-78.394-78.183-4.582-119.22 36.533-121.565 124.764-1.573 59.175-.299 118.426-.374 177.643zM4713.21 822.807c13.753-3.548 16.352-16.636 23.196-25.277 62.464-78.844 141.997-114.313 242.985-99.073 65.942 9.951 111.175 45.225 135.461 106.9 20.061 50.948 26.865 104.538 26.897 158.851q.376 646.613.725 1293.225c.052 27.189-6.609 37.345-34.878 35.441a795.722 795.722 0 0 0-106.708-.004c-28.253 1.905-35.123-8.017-34.997-35.425 1.055-228.056.589-456.12.585-684.18q-.004-282.77-.11-565.54c-.014-15.765-.401-31.697-2.628-47.264-9.743-68.099-42.312-96.623-104.14-92.3-66.606 4.655-126.867 56.859-128.416 112.558-1.062 38.2-.213 76.454-.214 114.684-.003 384.935-.556 769.873.908 1154.803.136 35.812-9.754 46.037-43.941 42.696-30.035-2.934-60.94-3.533-90.815.115-37.375 4.565-42.285-11.43-42.22-44.186q1.492-741.525-.11-1483.053c-.087-35.773 8.53-50.818 45.2-45.162 12.878 1.986 26.325.046 39.5.377 72.797 1.826 63.864-14.92 69.17 67.583.72 11.205-2.914 23.311 4.55 34.231zm-684.871 1043.661c43.211-321.07 77.842-640.644 125.477-958.567 8-53.4 17.19-106.626 24.69-160.093 2.87-20.448 10.755-29.645 32.952-28.61a1095.884 1095.884 0 0 0 110.705-.034c26.55-1.451 30.5 8.556 26.88 32.349q-60.037 394.573-118.648 789.364-58.644 390.794-117.658 781.531c-8.105 53.371-19.17 106.159-35.227 157.924-52.84 170.353-191.697 195.045-326.89 171.203-15.433-2.722-21.802-10.951-21.489-27.18.839-43.493.64-87.017.114-130.52-.211-17.374 5.244-25.038 23.306-18.614a86.02 86.02 0 0 0 15.381 3.56c87.42 13.803 119.878-7.003 147.34-91.105 26.97-82.596 20.92-164.878 7.899-249.322-71.26-462.14-140.044-924.66-210.346-1386.947-3.664-24.098.356-33.506 26.752-32.254 40.782 1.934 81.849 2.439 122.553-.19 27.086-1.75 33.711 10.767 36.39 33.497 23.903 202.798 48.94 405.463 72.342 608.317 18.422 159.678 34.974 319.572 52.503 479.353.971 8.855 3.285 17.562 4.974 26.338zm1953.584-787.294c0 50.09-.611 100.193.315 150.266.348 18.8-6.23 27.011-25.022 24.7a38.875 38.875 0 0 0-3.952-.006c-42-.807-96.452 14.054-122.592-6.715-27.698-22.006-7.148-78.855-8.664-120.42-1.632-44.76.927-89.672-.735-134.429-2.662-71.711-46.579-118.527-110.404-120.387-69.484-2.025-111.92 31.57-115.336 101.561-3.979 81.49-1.75 163.369.143 245.024.916 39.546 20.085 73.1 45.957 102.654a1126.742 1126.742 0 0 0 126.975 124.359c29.347 24.424 57.806 49.987 85.7 76.069 93.917 87.816 139.25 195.603 135.192 324.832-2.399 76.383 1.482 152.991-1.814 229.31-5.874 136.016-73.198 211.137-206.96 234.08a472.031 472.031 0 0 1-149.707 1.433c-115.339-17.232-187.203-91.338-202.754-210.152-13.565-103.645-4.133-208.034-6.707-312.055-.426-17.241 6.822-22.942 23.533-22.55 35.573.833 71.265 1.763 106.742-.265 25.366-1.45 30.96 8.726 30.6 31.936-1.167 75.117-1.783 150.296-.036 225.39 1.93 82.925 60.268 130.496 141.901 118.604 46.204-6.73 77.292-30.615 82.856-77.125 11.747-98.19 12.584-197.097-1.93-295.256-4.472-30.251-23.412-55.597-41.384-80.134-40.705-55.578-88.904-104.24-140.336-149.748-40.525-35.858-78.292-74.26-114.898-114.16-52.192-56.89-80.011-122.023-83.462-199.41-4.23-94.872-7.49-189.732.689-284.363 14.115-163.302 92.744-238.51 255.531-247.702 39.7-2.242 79.264 1.006 118.058 8.483 115.233 22.206 169.56 89.728 179.497 226.005 3.631 49.807.584 100.1.584 150.17l2.42.001zm-2492.881 5.184c0 46.146-1.087 92.328.456 138.422.779 23.268-4.76 33.584-30.382 31.895a796.642 796.642 0 0 0-98.825-.045c-24.166 1.418-31.938-6.122-31.448-30.821 1.491-75.121 1.747-150.319.133-225.435-1.662-77.296-45.688-125.02-112.822-126.214-67.737-1.206-109.448 31.614-112.881 99.751-4.174 82.817-2.062 166.047-.078 249.036.946 39.596 21.433 72.67 47.212 102.141a1141.258 1141.258 0 0 0 127.234 124.13c31.312 26.189 61.885 53.398 91.269 81.726 87.15 84.021 130.657 186.66 127.851 308.142-2.068 89.538 8.016 179.622-5.43 268.545-18.654 123.368-75.51 180.156-197.844 203.299a457.484 457.484 0 0 1-157.462 2.087c-112.04-17.878-180.813-85.86-198.787-200.392-16.836-107.285-5.083-215.859-8.015-323.816-.538-19.799 11.784-20.017 25.949-19.894 31.641.275 63.433 1.958 94.888-.479 28.933-2.242 38.646 6.097 37.996 36.61-1.627 76.38-2.643 153.07 2.442 229.212 5.328 79.79 63.325 121.758 141.873 110.062 45.897-6.834 76.69-31.447 82.436-77.737 12.032-96.957 12.166-194.546-1.56-291.498-4.3-30.367-22.283-56.042-40.221-80.72-42.097-57.912-92.28-108.277-145.77-155.485-33.635-29.683-64.866-61.712-96.397-93.596-64.377-65.097-98.851-141.77-100.06-233.395-1.2-90.903-6.384-181.946 2.767-272.62 16.317-161.685 97.049-236.296 260.21-243.022a495.365 495.365 0 0 1 110.254 8.113c119.116 21.955 174.635 92.783 183.156 235.704 2.897 48.6.46 97.52.46 146.293l1.396.001z"/><path fill="#499438" d="M427.077 675.075c-9.588 10.972-17.714 11.217-23.83-3.246 8.57-3.497 16.63-3.274 23.83 3.246z"/><path fill="#fefefe" d="M6377.871 1182.45c.038-59.216-1.236-118.467.337-177.642 2.344-88.231 43.382-129.346 121.564-124.764 50.605 2.965 83.529 29.09 96.011 78.394 4.484 17.707 7.35 36.33 7.454 54.557.662 117.114-.197 234.239.825 351.348.204 23.417-5.532 32.688-30.623 31.91-55.218-1.71-110.569-1.815-165.78.027-25.692.858-30.777-9.207-30.273-32.24 1.326-60.504.448-121.057.485-181.59z"/><path fill="url(#b)" d="M2105.88 1499.835q-.037-351.8-.004-703.599c.024-87.431 38.371-126.296 124.485-126.428 44.8-.069 89.611-.608 134.399.155 65.579 1.118 109.383 43.957 109.44 109.553q.618 721.386-.014 1442.774c-.06 66.948-41.098 108.021-108.425 110.19-46.072 1.485-92.23.756-138.344.377-81.534-.67-121.343-40.254-121.426-121.517q-.364-355.752-.111-711.505z"/><path fill="url(#c)" d="M1157.278 1488.771c-.014 423.16-1.193 846.328 1.045 1269.476.416 78.633-28.582 131.241-130.585 130.17-36.909-.386-73.827.272-110.737.033-78.517-.51-116.668-38.184-116.711-116.595q-.314-571.464-.11-1142.929-.004-705.927.014-1411.854c.004-95.238 32.597-127.695 128.011-127.648 40.868.02 81.744-.418 122.601.256 66.653 1.1 105.754 39.2 106.221 105.882.869 123.91.264 247.83.265 371.747q.003 460.731-.014 921.462z"/><path fill="url(#d)" d="M1812.528 1490.956q.002 636.794-.022 1273.589c-.01 88.86-35.085 123.592-124.91 124.005-39.553.182-79.117.708-118.66.06-73.199-1.197-112.55-40.542-112.56-113.09q-.179-1287.433.018-2574.865c.011-71.08 38.934-110.267 109.485-111.056 43.504-.486 87.019-.187 130.527.067 79.696.467 116.056 36.567 116.074 115.835q.147 642.728.048 1285.455z"/></svg>