<svg xmlns="http://www.w3.org/2000/svg" role="img" viewBox="-9.58 -9.58 680.16 116.66"><title>T-Mobile logo</title><path fill="#666" d="M3.54518 43.1585h18.1385v18.50868H3.54518V43.1585z" class="ps01"/><path fill="#e31082" d="M44.09768 8.73238h1.9434c12.5489 0 18.39763 7.21838 20.84077 26.4674l3.88683-.18509-.51825-30.5393H6.39551l-.6293 30.5393 3.73876.18509c.6478-7.21838 1.42517-11.1052 3.10946-14.99203 2.9799-7.21837 9.1988-11.47537 16.84289-11.47537h2.72077v66.44614c0 7.0333-.38868 9.25433-1.9434 10.9201-1.29561 1.29562-3.88683 1.85088-6.86672 1.85088h-2.9799v4.44208H55.8877V87.9495h-2.9984c-2.9614 0-5.57111-.55526-6.84821-1.85087-1.55473-1.66578-1.94341-3.88682-1.94341-10.92011V8.73238" class="ps01"/><path fill="#666" d="M54.8327 43.1585h18.1385v18.50868H54.8327V43.1585zm54.39699 0h18.15701v18.50868H109.2297V43.1585zm56.09979 0h18.1385v18.50868h-18.1385V43.1585zm69.70366 49.23308l22.91374-79.95747v62.7444c0 6.8482-.3887 9.25434-1.94342 10.92012-1.16605 1.29561-3.8683 1.85087-6.86672 1.85087h-1.16605v4.44208h32.39018V87.9495h-1.68429c-2.9799 0-5.70066-.55526-6.8667-1.85087-1.55475-1.66578-1.94342-4.07191-1.94342-10.92011V21.68845c0-6.8482.38867-9.43942 1.94341-11.1052 1.2956-1.11052 3.88682-1.85087 6.86671-1.85087h1.6843v-4.257h-25.13479l-18.91586 64.59528-18.50867-64.59528h-25.00521v4.257h2.3321c6.86671 0 8.16231 1.4807 8.16231 10.36486v50.89885c0 8.14381-.38867 11.47538-1.55472 13.8815-1.29561 2.40612-4.0349 4.0719-6.86672 4.0719h-2.07297v4.44209h26.6895V87.9495h-1.68429c-3.36858 0-6.08935-1.2956-7.66258-3.88682-1.53623-2.59121-1.92491-4.99735-1.92491-14.0666V12.43412l22.78418 79.95747h4.0349" class="ps01"/><path fill="#666" fill-rule="evenodd" d="M308.21642 29.83226c-16.06552 0-26.55993 12.5859-26.55993 32.39018 0 19.06394 10.49441 32.02 26.15274 32.02 15.8064 0 26.30083-12.95606 26.30083-32.20508 0-19.06394-10.49443-32.2051-25.89364-32.2051m-.51825 4.257c4.6457 0 8.66206 2.96138 10.8646 7.95873 2.07297 4.62716 2.9799 10.92011 2.9799 19.98937 0 18.69376-4.53462 27.94808-13.73344 27.94808-9.1803 0-13.60387-9.25432-13.60387-28.13316 0-8.88418.92543-15.17713 2.9984-19.80429 2.05446-4.81225 6.21892-7.95873 10.49441-7.95873m47.93747-30.53931l-18.39762.92543V8.5473h.88843c5.44153 0 6.62609 1.85087 6.62609 10.54995v60.15318c0 7.77364-.25912 9.8096-1.2956 13.14116h4.2755c3.22051-5.36752 4.01637-6.29295 5.31199-6.29295.62929 0 1.25858.18508 2.18403 1.11052 6.36697 5.18243 9.08775 6.29294 14.91798 6.29294 13.97404 0 24.07978-13.51132 24.07978-32.76034 0-18.1385-9.34688-30.35422-23.32092-30.35422-7.2554 0-12.54889 3.51665-15.26966 9.8096V3.54994m13.43729 31.46474c8.3104 0 12.5859 8.88417 12.5859 26.28232 0 18.32359-4.40507 27.763-12.82651 27.763-9.32837 0-14.23317-9.6245-14.23317-27.20773 0-8.88418 1.16605-14.99203 3.88683-19.6192 2.44314-4.44209 6.60759-7.21839 10.58695-7.21839m49.12203-4.257l-18.89737 1.11054v4.0719h1.42517c5.42304 0 6.58909 1.85086 6.58909 10.36486v31.27965c0 8.51399-1.16605 10.54994-6.58909 10.54994h-2.05446v4.257h28.20722v-4.257h-2.03596c-5.46005 0-6.6446-1.85087-6.6446-10.54994V30.7577m-6.20042-27.02265c-4.01638 0-7.2554 3.14646-7.2554 7.40346 0 3.88681 3.23902 7.21838 7.12585 7.21838 4.01638 0 7.12583-3.14647 7.12583-7.21838s-3.10945-7.40346-6.99628-7.40346" class="ps03"/><path fill="#666" d="M450.97381 3.54995l-18.89736.92543V8.5473h1.40666c5.44155 0 6.6076 1.85087 6.6076 10.54995v58.4874c0 8.69907-1.16605 10.54994-6.6076 10.54994h-2.05446v4.257h28.22573v-4.257h-2.07297c-5.46006 0-6.6076-1.85087-6.6076-10.54994V3.54994" class="ps01"/><path fill="#666" fill-rule="evenodd" d="M511.20103 61.66718c-.6293-19.61919-9.95767-31.83492-24.06128-31.83492-13.62237 0-23.45048 13.32625-23.45048 31.83492 0 19.80429 9.69854 32.57526 24.72758 32.57526 9.71706 0 16.45421-5.18243 22.02532-16.6578l-3.88681-2.03595C502.02073 85.17319 497.4861 89.06 490.48982 89.06c-10.23529 0-14.62184-8.14381-14.75141-27.39283h35.46262M475.86798 57.04c.11104-13.8815 4.62716-22.58058 11.90107-22.58058 7.2554 0 11.5309 8.514 11.40134 22.58058h-23.30241" class="ps03"/><path fill="#666" d="M529.24699 43.1585h18.13848v18.50868H529.247V43.1585zm54.41548 0h18.1385v18.50868h-18.1385V43.1585zm56.08128 0h18.1385v18.50868h-18.1385V43.1585z" class="ps01"/></svg>