<svg xmlns="http://www.w3.org/2000/svg" role="img" viewBox="39.29 24.29 790.92 238.92"><title>Telefonica logo</title><path fill="#04256c" fill-rule="evenodd" d="M294.06587 39.84413c-4.40876 2.25136-14.17343 2.8125-22.34375 2.8125h-80.625c-45.31657 0-73.12865 14.83104-77.6875 37.0625-.76922 3.84593-.49753 7.77926.75 11.25h15.0625c1.11626-24.01374 26.94259-37.71875 67.15625-37.71875l22.4375-.09375c-13.07623 7.69193-23.97959 17.73915-32.375 36.6875-.14071.37519-.31237.74982-.5 1.125h22.625c8.4893-21.012 14.36371-31.71522 23.125-37.8125h32.65625c17.80394-.46901 25.49684-4.96484 30.9375-11.8125l-1.21875-1.5zm-108.125 51.125c-3.29249 7.78568-12.95817 32.36359-20.5 52.4375-2.6453 7.03529-5.02711 13.49718-6.78125 18.46875-8.69562 23.3571-14.2554 34.06025-21.1875 38l1.125 2.15625c19.46426 1.12565 31.02695-8.83322 38.53125-27.21875 3.649-8.91132 7.90089-20.52502 11.8125-31.40625 3.69583-10.2246 7.07371-19.8091 9.34375-25.8125 3.92106-10.31841 7.27021-19.12076 10.28125-26.53125l-22.625-.09375zm-71.78125 0c2.23259 6.47248 7.69206 11.62455 16.125 12.46875l1.15625-.84375c-1.68847-3.00174-2.32505-7.87327-2.25-10.875.00938-.18764.02187-.46862.03125-.65625l-15.0625-.09375zm357.5625-49.34375c-22.70047.18764-50.73876 5.35183-70.34375 45.875-3.6583.56283-7.1232 1.68648-10.21875 3.46875-1.96982 1.21946-3.74904 2.53023-5.4375 4.3125l.84375 1.875c3.18937-1.12564 6.93505-1.40625 11.15625-1.40625-2.62656 6.66004-8.05928 21.21034-13.59375 35.9375-3.25332 4.36875-6.52748 8.27119-9.78125 11.71875h-.09375c-13.0387 13.88296-25.58823 20.43743-35.25 20.53125-6.66004.09375-9.375-3.46502-9.375-9.9375-.0938-3.18937.56211-7.49819 1.21875-10.59375.18755-.65657.28111-1.31217.46875-1.875 13.0387-6.47247 26.05576-13.71175 37.78125-25.90625 6.47241-7.0353 10.9687-13.96458 11.15625-21.28125 0-1.21945-.09363-2.34317-.375-3.375-1.21945-4.69019-5.33978-7.03125-12.375-7.125-.45143-.00586-.88677-.01653-1.34375 0-6.85463.24802-14.30267 2.9918-21.25 7.125-5.25303 3.18937-10.21644 7.12257-14.25 11.4375-10.3184 11.25642-18.77958 26.36666-21.6875 41-.65663 3.28318-1.03125 6.56071-1.03125 9.75-.0938 12.00687 6.20944 22.03151 22.53125 21.65625 17.35371-.56282 33.17967-10.67929 46.875-25.03125-3.47073 9.19276-6.46779 17.15381-8.15625 21.375-5.15919 12.75732-8.90182 22.99661-16.6875 29l.9375 1.5c22.88811 1.31321 31.43204-14.73491 40.90625-41.09375 2.15746-5.90958 4.12377-11.62178 6.1875-17.15625 6.75386-19.0421 12.6535-35.55544 17.53125-47.84375 9.94323 0 24.21419.37602 32.1875-1.5-16.50943 7.31668-30.96631 29.55121-35.1875 49.34375-1.12567 5.25301-1.594 10.3098-1.125 15 .9381 9.56795 6.55544 16.21875 18.9375 16.21875 17.72889.09382 33.40054-15.45969 43.4375-31.21875 3.37693-5.34677 6.18634-10.77855 8.15625-15.46875 4.40874-10.78741 7.21843-19.90105 7.78125-29 5.62828-1.03182 11.09228-2.06224 13.71875-2.4375 5.34685-.75038 4.3134 5.05993 2.71875 9.5625-4.22118 11.44404-9.55975 25.24314-14.4375 37.34375-6.66004 16.41569-12.3125 29.62488-12.3125 29.90625h18.6875c5.81583-12.38207 10.1225-21.46386 14.53125-29.90625 1.59472-3.09548 3.18653-5.99826 4.875-9 7.69186-13.41387 25.05852-35.65625 32-35.65625 2.4389-.09374 3.09408 1.5924 2.625 3.9375-.93802 6.09721-11.5587 24.30313-18.125 40.71875h20.84375c1.50084-3.47075 2.90567-6.46753 3.9375-8.625 5.72203-12.2883 15.93782-30.21316 15.375-39.96875-.09381-1.31319-.46843-2.62436-1.03125-3.75l-27.65625-.09375c-9.38041 6.00348-18.49544 16.49281-26.46875 29.0625l-.375-.1875c5.06542-11.3503 9.00006-22.12212 8.90625-27.1875.00003-.56281-.09376-1.12468-.1875-1.6875-.65667-3.56455-3.27842-5.06256-8.25-4.96875-4.03359 0-9.46566 1.59291-14.8125 3-2.53272.65656-5.06095 1.31212-7.6875 1.96875-5.25294 1.31328-10.71541 2.62437-16.53125 3.84375-5.34676.84427-7.03125 1.68641-7.03125 3.5625.56282 15.3838-4.49609 32.27401-11.34375 45.03125-6.66004 12.28831-14.99607 20.90625-21.75 20.90625-5.90959-.00001-7.34375-4.21536-7.34375-10.21875 0-3.2832.37455-6.84149 1.21875-10.6875 4.12739-20.44919 18.58566-46.15355 32.75-50.84375 1.50082-.469 2.90568-.7498 3.9375-1.03125l.1875-.5625 1.875-5.0625c-3.56449.65663-11.99749.84375-16.40625.84375-4.50257.09382-36.96875.09375-36.96875.09375 9.75558-23.2633 23.45732-38.28088 43.4375-39.03125 12.47588-.56283 20.81204 4.12082 21.5625 11.34375.56282 6.0034-1.21606 10.90337-6 15.96875l1.40625 1.3125c10.88124-5.15921 18.5-13.99653 18.5-20 .09381-9.28651-10.98972-15.00006-28.90625-14.8125zm76.28125 49.34375h27.65625c-1.68848-3.00173-5.24659-5.34375-11.15625-5.34375-5.53436 0-11.05942 1.96683-16.5 5.34375zm-11.46875 52.4375c-3.09552 7.69193-5.34381 14.99679-5.25 20.625.18764 11.16267 6.30659 17.93601 16.625 20.46875l2.0625-1.21875c-1.21947-2.34509-1.40619-5.56051-1.5-9.03125-.09382-8.44229 4.77887-21.27579 8.90625-30.75l-20.84375-.09375zm89.5-92.3125c-5.1592.09382-10.40561 4.87173-11.53125 10.59375-1.21948 5.81586 2.05948 10.43757 7.3125 10.34375 5.25302-.09381 10.40554-4.90297 11.625-10.625 1.12567-5.81585-2.1533-10.40631-7.40625-10.3125zm-291.8125.5625l-18.21875 3.46875c-2.72036.65663-4.40574 2.71759-5.34375 4.78125-4.6902 9.75557-9.37212 19.8999-14.4375 31.0625h20.71875c6.94148-15.10234 13.43524-28.9941 17.28125-39.3125zm-38 39.3125c-4.50258 10.03704-9.27831 20.83681-14.53125 32.9375-1.21945 2.72028-2.55241 5.62333-3.78125 8.625-2.66399 3.75218-5.52323 7.40426-8.5625 10.875-10.14015 11.53786-21.93775 20.43743-32.5 20.53125-5.72203.09375-8.26876-3.18372-8.25-9.84375.00938-3.2832.64337-7.59194 1.28125-10.6875.1501-.65657.29685-1.31217.4375-1.875 13.00124-6.47247 26.04955-13.71175 37.8125-25.90625 6.50999-7.0353 11.03119-13.96458 11.125-21.28125-.00001-1.21945-.09363-2.34317-.375-3.375-1.15379-4.69019-5.30845-7.03125-12.34375-7.125-.4485-.00586-.91993-.01653-1.375 0-6.82608.24802-14.33785 2.9918-21.25 7.125-5.29055 3.18937-10.2352 7.12257-14.25 11.4375-10.33718 11.25642-18.79523 26.36666-21.65625 41-.64718 3.28318-.99373 6.56071-1.03125 9.75-.13134 12.28832 5.69405 22.03151 21.59375 21.65625 16.9879-.56282 33.59818-13.68218 42.21875-23.0625-1.11626 3.93974-1.8125 7.68557-1.8125 10.96875 0 10.88124 5.4563 18.59183 16.1875 21.96875l2.15625-1.03125c-.93808-3.00173-1.21887-6.02919-.9375-9.59375.65664-8.81758 3.65369-18.55556 8.15625-30.65625.938-2.43885 1.96817-4.96721 3-7.6875 5.72202-14.5396 12.83995-30.21046 19.40625-44.65625l-20.71875-.09375zm377.9375-6.1875c-6.66003.09381-14.3707 2.06013-21.875 6.1875-5.1592 2.90792-10.3098 6.84086-15 11.90625-11.88269 12.91197-18.7978 28.16595-21.71875 40.53125h-.03125c-.006.03119.006.06262 0 .09375-.46296 2.403-.93977 4.62012-1.125 6.75-6.56632 7.69193-13.80975 12.74993-18.6875 12.84375-2.72036.18764-4.59375-1.21701-4.59375-4.21875-.09382-2.53265 1.31101-7.68365 3.84375-14.34375.18753-.37519.28112-.74973.46875-1.125 5.72201-14.3519 13.90061-31.80068 23.84375-52.4375.75043-1.50083 1.49962-3.18653 2.25-4.78125-.00002 0-16.96733 2.90593-19.40625 3.46875-1.03184.28146-1.99948.74968-2.84375 1.3125-1.21943.84427-2.24961 2.0616-2.90625 3.5625-7.22284 15.28998-15.84067 33.21118-21.28125 46.4375-.28142.8442-.65605 1.59331-.9375 2.4375-2.81411 7.41048-4.40625 14.34124-4.40625 18.65625-.00001 8.16095 5.15053 13.21888 15.09375 13.03125 10.31833-.28146 20.93249-6.37018 29.65625-14.8125 1.68844 8.91131 8.05505 15.28144 21.09375 14.90625 13.50772-.37524 26.5573-8.99435 35.65625-18.84375-.00002.938-.09375 1.96816-.09375 2.90625-.00001 9.09895 4.77527 15.84375 15.1875 15.84375 11.2564-.00001 24.21298-8.42914 34.34375-22.96875l.375.1875c-.93802 3.37692-1.96868 9.27901-2.0625 13.21875-.28137 10.97504 6.18224 17.18648 15.375 19.0625l2.0625-.84375c-3.18936-7.97329 1.31134-27.77754 3.28125-34.34375.65661-1.96991 1.31211-3.93627 1.96875-6 6.4725-19.60492 15.46548-40.52444 21.1875-52.4375.18764-.28137.28119-.65612.46875-.9375-2.81408-2.34509-9.4647-4.12486-16.5-4.3125-1.24289-.0469-2.47677-.07588-3.71875-.0625-8.61739.09281-17.18305 1.68772-25.40625 5.3125h-.21875c-12.85112 5.81584-24.77559 16.42747-34.625 33.875-3.00172 5.1592-6.27997 11.2462-8.53125 17.8125-.28136.28138-.46862.56245-.65625.75-2.25128 2.81417-4.40567 5.34317-5.4375 6.375-6.191 6.00347-15.02618 13.59362-23.9375 13.78125-5.15917-.00001-7.96874-3.5589-7.875-9.84375-.00002-3.28311.37463-6.74801 1.125-10.21875l-11-.0625 11-.03125c4.5964-23.16948 22.43031-50.93751 35-51.03125 4.03359 0 5.71875 1.77932 5.71875 5.15625 0 4.03356-2.81032 9.65427-6.65625 13.21875l1.6875 1.5c9.66176-3.75219 18.74993-10.58971 18.84375-17.71875-.00002-1.31327-.28099-2.53067-.75-3.5625-2.3451-5.1592-10.12088-6.1875-17.25-6.1875zm-413.28125 7.875c2.77658.09382 3.88438 1.96735 3.875 4.5-.0563 11.53787-14.36764 26.46252-32.6875 37.34375 4.59638-18.10409 17.4435-41.84375 28.8125-41.84375zm101 0c2.81411.09382 3.84375 1.96735 3.84375 4.5-.09382 11.53787-14.33328 26.46252-32.625 37.34375 4.50256-18.10409 17.43102-41.84375 28.78125-41.84375zm376.28125.59375c1.6365-.04761 3.15543.12093 4.5625.4375-1.40709 2.90792-7.9658 16.1182-13.125 28.03125-3.28313 7.59811-7.12249 15.12129-11.4375 21.6875-6.28482 9.47421-13.24614 16.78029-19.90625 18.46875-3.93973.93801-6.18757-.74795-6.09375-4.40625.09379-3.84592 1.12397-8.71566 2.90625-14.0625 5.81584-17.91646 19.80447-41.18378 33.78125-47.75 3.51765-1.64159 6.585-2.32689 9.3125-2.40625zm-338.40625 144.8125c-176.63196.25763-345.15625 2.42427-345.15625 5.0625 0 2.81409 191.73259 5.15625 380.53125 5.15625 188.73299.00001 380.46875-2.34215 380.46875-5.15625-.00002-2.81412-191.73576-5.0625-380.46875-5.0625-11.79992 0-23.59954-.01718-35.375 0z"/></svg>