<svg xmlns="http://www.w3.org/2000/svg" role="img" viewBox="-3.67 -3.55 184.34 37.34"><title>Telxius logo</title><path fill="#022d3b" d="M23.71 2.5v1.385c0 1.7425-.5375 2.32375-2.145 2.32375h-6.5625v21.7425c0 1.60875-.58 2.14375-2.3225 2.14375h-1.6525c-1.74125 0-2.32125-.535-2.32125-2.14375V2.5C8.70625.76 9.2425.18125 10.85.18125h10.715C23.1725.18125 23.71.76 23.71 2.5m47.66125 21.56875H65.0575c-1.785 0-2.7225-.27-3.34625-.85-.71625-.66875-.93875-1.6075-.93875-3.34875V2.5c0-1.74-.53625-2.31875-2.14375-2.31875H56.62C55.0125.18125 54.47625.76 54.47625 2.5v17.995c0 3.26.625 5.44875 2.09875 7.05625 1.6525 1.74 4.02 2.54375 7.86 2.54375h6.93625c1.6075 0 2.1425-.58 2.1425-2.32125v-1.385c0-1.74-.535-2.32-2.1425-2.32m-24.52 0h-7.74c-1.78625 0-2.7225-.27-3.3475-.85-.71625-.66875-.94-1.6075-.94-3.34875v-1.91875H43.95c1.6075 0 2.14375-.58125 2.14375-2.3225v-1.115c0-1.7425-.53625-2.32375-2.14375-2.32375h-9.12625V2.5c0-1.74-.53375-2.31875-2.14125-2.31875h-2.01C29.065.18125 28.52875.76 28.52875 2.5v17.995c0 3.26.62625 5.44875 2.1 7.05625 1.65125 1.74 4.0175 2.54375 7.8575 2.54375h8.365c1.6075 0 2.14375-.58 2.14375-2.32125v-1.385c0-1.74-.53625-2.32-2.14375-2.32M3.9725.18125h-1.83C.53625.18125 0 .76 0 2.5v1.385c0 1.7425.53625 2.32375 2.1425 2.32375h1.83c1.6075 0 2.14375-.58125 2.14375-2.32375V2.5C6.11625.76 5.58.18125 3.9725.18125m35.58625 6.0275H46.49375c1.6075 0 2.1425-.58125 2.1425-2.32375V2.5c0-1.74-.535-2.31875-2.1425-2.31875H39.55875c-1.60875 0-2.145.57875-2.145 2.31875v1.385c0 1.7425.53625 2.32375 2.145 2.32375m95.07375 16.0725c-1.34-1.33875-1.7425-2.9025-1.7425-5.715V2.3225c0-1.60875-.58-2.14125-2.32125-2.14125h-1.65c-1.7425 0-2.32375.5325-2.32375 2.14125V17.995c0 4.06375.89375 6.60875 3.08125 8.7975.4675.4675.99.89125 1.56 1.27625l5.41375-4.475c-.77625-.30125-1.44625-.74125-2.0175-1.3125m14.155-22.1h-1.65375c-1.74125 0-2.32125.5325-2.32125 2.14125v17.325c0 .49125-.13375.66875-.40125.89375L133.7525 29.3475c1.62875.6 3.50875.92625 5.6125.92625h.0888c2.23375 0 3.34875-.40125 5.18-1.875l4.3312-3.52625c1.6525-1.34 2.14375-2.2775 2.14375-4.69v-17.86c0-1.60875-.58-2.14125-2.32125-2.14125m14.44625 8.57125c0-1.6075 1.785-2.725 4.735-2.725 2.7225 0 4.775.58125 6.16.58125.9825 0 1.295-.535 1.295-1.60625v-1.965c0-1.42875-.17875-1.92-1.74125-2.32375C172.03.27 169.7525 0 167.56375 0 161.6275 0 156.715 3.48375 156.715 9.2c0 9.86625 13.97625 7.8575 13.97625 12.145 0 1.69625-1.7875 2.90125-5.3125 2.90125-1.96625 0-4.82375-.49125-6.56625-.9825-.49125-.1325-.7575-.17875-1.02625-.17875-.84875 0-1.16125.535-1.16125 1.56375v2.365c0 1.295.35875 1.6975 1.78625 2.18875 1.965.67 5.09 1.07125 7.5025 1.07125 7.3225 0 11.25125-3.70625 11.25125-9.33125 0-9.77875-13.93125-7.81375-13.93125-12.19M119.0775.18125h-8.975c-1.5625 0-1.92.48875-1.92 2.095V3.7075c0 1.60625.3575 2.09875 1.92 2.09875h1.33875V24.47h-1.33875c-1.5625 0-1.92.49125-1.92 2.0975v1.42875c0 1.6075.3575 2.09875 1.92 2.09875h8.975c1.5625 0 1.91875-.49125 1.91875-2.09875V26.5675c0-1.60625-.35625-2.0975-1.91875-2.0975h-1.34V5.80625h1.34c1.5625 0 1.91875-.4925 1.91875-2.09875V2.27625c0-1.60625-.35625-2.095-1.91875-2.095"/><path fill="#1895a2" d="M102.75037 27.55337c.31375.445.44625.85.44625 1.25125 0 .76-.535 1.3-1.74125 1.3h-2.63375c-1.4725 0-2.00875-.40625-2.76875-1.52375l-3.21375-4.78625-6.075-9.0675c-.8025-1.1175-1.5175-2.15125-2.32-3.3575l-5.89375-8.6775c-.3125-.4925-.44625-.9725-.44625-1.37375 0-.71375.535-1.27 1.6975-1.27h2.67875c1.5175 0 2.05375.465 2.76625 1.57875l2.4125 3.63625c.9825 1.4725 2.14375 3.3375 2.94625 4.7225.715-1.385 1.74125-3.09625 2.635-4.48125l2.49875-3.87375c.76-1.11375 1.2975-1.5825 2.77-1.5825h2.365c1.2075 0 1.7875.6 1.7875 1.36125 0 .35625-.17875.8675-.49125 1.315l-5.53625 8.43875c-.895 1.38375-1.65375 2.54375-2.545 3.75.71375.93875 1.60625 2.1875 2.545 3.5725l6.11625 9.0675zm-18.1275-9.64625l-6.385 9.64375c-.3125.445-.49125.9425-.49125 1.3 0 .75875.58 1.25375 1.78625 1.25375h2.50125c1.4725 0 2.05375-.405 2.7675-1.5225l3.215-4.91375c.2925-.4475.595-.92375.88875-1.3975l-3.69125-5.27375c-.18625.28125-.38.5825-.59125.91"/></svg>