<svg xmlns="http://www.w3.org/2000/svg" role="img" viewBox="-4.40 6.10 618.80 217.30"><title>Tensor Networks logo</title><defs><style>.cls-1{fill:#231f20}.cls-2{fill:#f5e100}</style></defs><path d="M403.504 57.372l-38.31 35.003" class="cls-1"/><path d="M363.84395 90.89646l38.30282-35.00963 2.70675 2.96136-38.30282 35.00963z" class="cls-1"/><path d="M357.911 136.846h4.012v27.512h-4.012zm134.257-24.964h69.783v4.012h-69.783zm-110.966 0h69.781v4.012h-69.781zm-108.081 0h69.782v4.012h-69.782zm-111.983 0h69.782v4.012h-69.782zm-111.697 0h69.783v4.012H49.441z" class="cls-1"/><path d="M30.67673 90.24456Q51.64682 91.61082 53.22562 114.62q-1.13121 22.55235-22.77415 23.689-21.64734-1.14008-22.54986-23.689 1.12533-23.23541 22.77512-24.37544zm-.4515 42.37208q14.42813-.68756 15.10833-17.99661-.6758-17.08575-14.88209-18.2248Q16.24518 97.5382 15.34314 114.62q.6758 16.85808 14.88209 17.99664zm110.4056-42.37404q20.97008 1.36628 22.54888 24.37548-1.13121 22.54937-22.77415 23.69087-21.64734-1.14-22.54986-23.69087 1.1253-23.23545 22.77513-24.37548zm-.45151 42.37012q14.42814-.68168 15.10833-17.99464-.6758-17.08577-14.88209-18.22481-14.20629 1.143-15.10833 18.22481.67577 16.86097 14.88209 17.99464zm110.40756-42.36621q20.97012 1.36628 22.54888 24.37549-1.13121 22.54938-22.77414 23.69088-21.64735-1.14-22.54987-23.69088 1.12535-23.23546 22.77513-24.37549zm-.45151 42.37013q14.42814-.68167 15.10833-17.99465-.67578-17.08575-14.88208-18.2248-14.2063 1.143-15.10834 18.2248.6758 16.86101 14.88209 17.99465z" class="cls-2"/><path d="M188.00474 24.98472h-15.7851v40.77662h-6.99V24.98472h-16.01039v-5.92346h38.78549zm57.9515 40.77662h-35.40262V19.06126h34.50059v5.92346h-27.28432v13.89582h25.70552V44.802h-25.70552v15.26311h28.18635zm25.0307-46.70008h8.34259l23.4519 38.27131h.22526V19.06126h6.76477v46.70008h-8.11733l-23.90242-38.49852v38.49852h-6.76477zm62.91318 32.57508l7.21432-1.59448q1.57488 11.16523 12.85373 11.16328 9.91944-.22624 10.37192-7.97433.67874-5.2359-9.24364-7.97237a21.07231 21.07231 0 0 0-3.8334-1.14 6.31858 6.31858 0 0 0-1.35354-.22722q-15.11127-3.188-14.20532-12.985.89616-11.841 16.45991-12.52857 15.78118-.2233 18.49121 12.75775l-6.991 1.59448q-1.58076-8.42682-11.04967-8.42878-8.7941.22919-9.47086 6.60512-.67579 5.24472 10.8244 7.51793 4.50723 1.143 6.76574 1.82169 11.49726 3.64928 11.273 12.75776-.45249 12.984-17.81345 13.43942-17.36491.45542-20.29335-14.80668z" class="cls-1"/><path d="M416.87939 18.37764q20.973 1.36628 22.54987 24.37548Q438.298 65.304 416.65413 66.443q-21.64587-1.14-22.54791-23.68989 1.12535-23.23544 22.77317-24.37547zm-.45052 42.3711q14.4296-.68461 15.10833-17.99562-.67579-17.08577-14.88307-18.22481-14.20629 1.143-15.10833 18.22481.67874 16.8595 14.88307 17.99562z" class="cls-2"/><path d="M504.37177 65.76134h-9.02034l-14.20532-19.36483H470.547v19.36483h-6.989V19.06126h21.42158q15.55788.45837 16.45991 13.43943 0 11.84983-12.85177 13.44138zM470.547 24.75554v15.9467h12.85374q10.82441 0 10.59914-7.97237 0-7.9714-10.59914-7.97433z" class="cls-1"/><path d="M470.496 90.24456q20.973 1.36626 22.54987 24.37547-1.13122 22.55232-22.77513 23.68892-21.64587-1.14-22.54791-23.68892 1.12539-23.23544 22.77317-24.37547zm-.45052 42.37208q14.4296-.68756 15.10833-17.99661-.67579-17.08575-14.88307-18.2248-14.20629 1.143-15.10833 18.2248.67878 16.85805 14.88311 17.99661zM360.542 90.24456q20.973 1.36626 22.54986 24.37547-1.13121 22.55232-22.77512 23.68892-21.64587-1.14-22.54791-23.68892 1.1253-23.23544 22.77317-24.37547zm-.45053 42.37208q14.42961-.68756 15.10833-17.99661-.67578-17.08575-14.88306-18.2248-14.2063 1.143-15.10833 18.2248.67867 16.85805 14.88301 17.99661z" class="cls-2"/><path d="M79.17207 164.26715h8.34258l23.4519 38.2713h.22527v-38.2713h6.76476v46.702h-8.11733l-23.90242-38.49849v38.49853h-6.76476zm100.34415 46.70204H144.1136v-46.702h34.50058v5.92345h-27.28431v13.89583h25.70551v5.92345h-25.70551V205.273h28.18635zm59.75557-40.77859h-15.7851v40.77859h-6.99V170.1906H200.4863v-5.92345h38.78549zm18.0397-5.92345h7.44151q6.3113 28.01888 7.6668 34.85513c.14789.45445.4515 1.8217.902 4.09784h.22526q.67727-2.73255 1.12828-4.32506 2.02884-7.05761 9.01936-34.62791h7.6668q8.56638 33.9482 9.2456 35.764.22183 1.14591.67579 4.10176h.22624q.44808-2.50336.67579-3.41618.22183-1.3692 7.89206-36.4496h7.44154l-12.177 46.702h-7.44055q-9.24953-34.85906-9.69613-35.99517a18.272 18.272 0 0 1-.45151-3.18894h-.22526a25.72826 25.72826 0 0 1-.45151 2.96172q-.22624.91084-9.92139 36.22239h-7.89206z" class="cls-1"/><path d="M359.46069 163.58548q20.973 1.36334 22.54986 24.37548-1.13415 22.54791-22.77709 23.68989-21.64293-1.14-22.5479-23.68989 1.12533-23.23545 22.77513-24.37548zm-.45053 42.36914q14.42666-.68166 15.10637-17.99366-.67579-17.08869-14.88307-18.2248-14.20335 1.14-15.10637 18.2248.6758 16.85951 14.88307 17.99366z" class="cls-2"/><path d="M446.9511 210.96919h-9.02034l-14.20531-19.36484h-10.59914v19.36484h-6.989v-46.702h21.42159q15.55786.45836 16.45991 13.44138 0 11.84691-12.85178 13.44138zm-33.82479-41.00581v15.94474H425.98q10.82441 0 10.59914-7.97237 0-7.96845-10.59914-7.97237zm96.73797 41.00581h-9.2456l-15.78412-22.32656-9.2456 9.33962v12.98694h-6.989v-46.702h6.989v24.82992l23.67814-24.82992h9.24364l-19.39225 19.81928zm18.94172-14.12697l7.21431-1.59447q1.5749 11.16523 12.85374 11.16524 9.91943-.22919 10.37192-7.97629.67872-5.23592-9.24365-7.97238a21.40828 21.40828 0 0 0-3.83339-1.14 6.31877 6.31877 0 0 0-1.35354-.22722q-15.11127-3.185-14.20728-12.983.8991-11.841 16.46187-12.52857 15.78119-.2233 18.4912 12.7558l-6.991 1.59447q-1.58078-8.42682-11.04967-8.42682-8.7941.22919-9.47087 6.60512-.67578 5.24179 10.82441 7.51793 4.50723 1.14 6.76574 1.8217 11.49726 3.64926 11.273 12.75579-.45247 12.98694-17.81345 13.44138-17.3649.45244-20.29334-14.80868z" class="cls-1"/><path d="M580.45209 90.24651Q601.42218 91.61279 603 114.622q-1.13121 22.54938-22.77513 23.69088-21.64587-1.14-22.5479-23.69088 1.12533-23.23546 22.77512-24.37549zm-.45248 42.37013q14.42959-.68167 15.10833-17.99465-.67579-17.08575-14.88307-18.2248-14.20629 1.143-15.10833 18.2248.67873 16.86101 14.88307 17.99465z" class="cls-2"/></svg>