<svg xmlns="http://www.w3.org/2000/svg" role="img" viewBox="-6.17 90.08 412.10 64.60"><title>Thunder Software Technology Co. Ltd. (member) logo</title><style>svg {enable-background:new 0 0 400 245}</style><style>.st7{fill:#d70c18}</style><path d="M44.94 104.46H9.23l-2.62 4.14h35.71zm90.94-6.31H12.73l-2.64 4.17h122.77zM8.91 133.82h10.36l2.63-4.16H11.53zm6.1-10.43l-2.62 4.14h10.37l2.61-4.14zm17.32-12.57H21.97l-2.61 4.15h10.35zm34.57 16.92c3.32-4.71 4.46-8.46 2.72-10.27-.99-1.02-3.14-.96-3.14-.96l-8.44.09c-1.4.06-2.92 1.06-4.58 3.02l9.75-15.94h-11.8l-.62 2.5-22.49 36.6c-.49.63-.97 1.22-1.45 1.76-.48.55-1.02 1.06-1.62 1.52h13.05l.26-1.56.32-1.04 10.74-17.61 1.54-2.33c3.45-1.5 5.91-1.61 7.38-.34l-.52.87-10.56 17.36c-.51.68-1.07 1.42-1.71 2.19-.63.78-1.35 1.6-2.17 2.46h13.5l-.31-1.73 10.15-16.59zm-51.03-6.5h10.36l2.63-4.13H18.49zm-10.5 18.93h10.37l2.62-4.14H8zm-3.48 6.28h10.37l2.62-4.14H4.52z" class="st7"/><path d="M207.55 118.72c-.09-.68-.59-1.76-1.39-2.16h-22.53c-1.82.2-3.22.88-4.6 1.86-1.21 1.09-2.21 2.48-2.74 3.23l-12.36 20.87c-.82 1.5-.41 2.65 1.24 3.45l25.87.08c1.2-.96 2.97-3.18 4.23-5.42.38-.66.76-1.63.76-1.63s-8.82 1.57-13.43 1.63c-2.65.03-4.81-.49-5.03-.59.1-1.77.71-3.57 2.23-5.24 0 0 .18-.17 1.05-.17h16.99c.67 0 1.22-.17 1.22-.17l7.79-12.81.49-1.04c-.01.02.29-1.21.21-1.89zm-11.96 5.43l-2.73 4.46h-9.3l2.65-4.46c.83-1.52 2.78-2.25 5.86-2.18 3.05-.18 4.22.55 3.52 2.18z" class="st7"/><path d="M311.36 116.99l-8.76.01h-14.7c-3.3.3-4.98.99-6.55 2.08-1.18.86-2.13 1.75-2.86 2.67l-1.6 1.98-9.22 14.92c-.32.52-1.42 2.62-1.42 2.62-.39.98-.63 1.56-.57 2.63.06 1 .99 1.84 1.8 2.08l.41.08h23.51c1.06-.12 2.14-.35 3.18-.78 4-1.64 7.27-7.24 7.27-7.24l10.28-17.31c.43-.73.65-1.2.58-2.23-.05-.67-.7-1.15-1.35-1.51zm-13.89 7.78l-8.8 14.33c-.64.69-1.21 1.09-1.74 1.21H280c-.92 0 .44-2.18.59-2.42l8.03-13.02.82-1.06c.6-.63 1.32-.93 2.11-1.1h5.13c1.56-.19 1.82.5.79 2.06z" class="st7"/><path d="M361.81 117.23l3.32-5.66h-9.74c-.95 1.5-1.85 3.05-3.5 5.66h-6.62l-3.78 6.2h6.86L337.8 140.9s.79 4.62 5.92 5.15c5.13.53 9.09-2.19 9.09-2.19l2.65-4.43c-7.09 3.03-6.23-1.21-6.23-1.21l9.1-14.92 6.87.04 3.73-6.11h-7.12zm-254.06-.75H94.61l-.16 1.55-.32 1.04-10.83 17.61-1.54 2.33c-3.32 1.5-7.74 2.55-7.31.43l11.02-18.3c.59-.74 1.2-1.5 1.83-2.29.63-.78 1.32-1.57 2.05-2.37H75.66l.49 1.73-9.7 16.47c-1.29 2.21-4.15 7.14-4.67 8.36-.91 2.12.78 2.69 5.14 2.85l5.82.01c2.8 0 4.98-.9 6.64-2.85l-1.9 3.03h11.98l.53-2.51 14.56-23.71c.91-1.28 1.98-2.4 3.2-3.38zm234.39 1.03l-6.97-.02.21-.37c2.92-3.66 6.52-5.51 10.45-4.13l3.71-6.04h-10.81c-5.22 0-7.15 2.65-9.84 5.88l-3.56 4.85h-8.29l-3.77 6.2h7.85l-13.15 22.98h10.12l13.14-22.98h7.07l3.84-6.37zm-115.02 5.66l-.43.86h7.87c2.56-4.58 2.46-7.07-.3-7.47h-5.36c-2.83.06-5.06 1.07-6.73 3.02l1.93-3.11h-11.97l-.53 2.51-14.6 23.79c-1.05 1.45-2.1 2.54-3.16 3.29h13.14l.16-1.56.4-1.04 10.75-17.62 4.52-2.34c3.45-1.48 2.9-1.6 4.31-.33z" class="st7"/><path d="M171.37 106.71l-7.91 12.72c.61-1.55.4-2.41-.51-2.82l-10.69-.04c-4.83 0-7.97 3.23-9.02 4.75l-12.83 20.42-.34.86c-.2.81-.16 1.7.11 2.68.46.52.91.81 1.37.87h27.26l1.82-4.41 19.07-30.97 3.45-3.55.29-.52h-12.07zm-11.49 17.31l-9.18 15.02-1.05.87c-2.29.98-4.06 1.23-5.31.78-1.1-.4-1.47-.98-1.11-1.73l8.9-14.76c.23-.32.96-1.56 1.87-1.56h5.89c.12.08.14.3.14.53 0 .22 0 .44-.15.85z" class="st7"/><path d="M134.91 127.72c1.2-2.05 1.81-3.07 2.52-4.4.9-1.67 1.31-2.57 1.83-3.97.78-2.13-2.94-2.7-5.29-2.7-2.36 0-5.78-.09-5.78-.09-2.82.06-5.07 1.07-6.73 3.03l1.93-3.12h-11.97l-.54 2.51-14.59 23.8c-1.04 1.45-2.1 2.53-3.17 3.29h13.14l.16-1.56.41-1.04 12.28-19.94c3.45-1.5 5.87-1.61 7.29-.34l-.43.87-10.55 17.36c-1.13 1.49-2.45 3.04-3.98 4.66l13.73.09-.45-1.82 10.19-16.63zM285.8 98.15h-27.21c-1.26 0-2.53.35-3.82 1.05-1.29.7-2.6 1.73-3.94 3.12h32.46l2.51-4.17zm-31.1 12.67h-8.53l-2.51 4.15h8.54zm28.29-6.36h-33.33c-.08.13-.17.26-.26.38-.08.12-.16.22-.21.31-.1.1-.18.2-.25.32-.06.11-.14.24-.23.38l-1.67 2.76h33.44l2.51-4.15zm-9.12 13.67c-.46-.69-1.32-1.03-2.57-1.03h-28.46l-1.67 2.75c-.08.14-.17.26-.23.38-.07.12-.11.22-.13.31-.06.1-.11.2-.16.32-.05.11-.12.24-.2.37h33.59c.34-1.37.28-2.4-.17-3.1zm-51.36 28.42h29.62c1.25 0 2.51-.34 3.81-1.03 1.3-.7 2.6-1.74 3.92-3.11h-34.85l-2.5 4.14zm20.21-19.02h28.46l1.67-2.77c.07-.14.15-.27.23-.38.06-.11.11-.21.13-.3.06-.1.11-.2.15-.32.06-.11.13-.24.21-.38h-33.58c-.34 1.38-.29 2.41.18 3.11.44.7 1.3 1.04 2.55 1.04zm-16.1 12.73h35.19c.09-.14.18-.26.26-.37.09-.12.17-.23.22-.32.1-.08.18-.19.25-.32.06-.11.14-.23.22-.38l1.67-2.76h-35.3l-2.51 4.15zm40.72-6.44l2.5-4.16h-8.54l-2.5 4.16z" class="st7"/><g><path d="M385.95 122.94c-6.7 0-12.16-5.46-12.16-12.16s5.46-12.15 12.16-12.15 12.16 5.45 12.16 12.15c0 6.71-5.46 12.16-12.16 12.16zm0-22.91c-5.93 0-10.75 4.82-10.75 10.75s4.82 10.76 10.75 10.76 10.75-4.83 10.75-10.76-4.82-10.75-10.75-10.75z" class="st7"/></g><g><path d="M381.64 102.81h3.21c1.8 0 3.02.08 3.68.24.66.16 1.22.42 1.69.78.47.36.84.82 1.11 1.39.27.57.4 1.2.4 1.89 0 1.38-.49 2.46-1.46 3.25s-2.35 1.15-4.13 1.09l5.82 7.5h-2l-5.79-7.5h-.92v7.5h-1.62v-16.14zm1.61 1.58v5.48h2.78c1.38.02 2.39-.2 3.04-.64.65-.44.98-1.14.98-2.1 0-.96-.32-1.65-.96-2.09-.64-.43-1.64-.65-2.99-.65h-2.85z" class="st7"/></g></svg>