<svg xmlns="http://www.w3.org/2000/svg" role="img" viewBox="-6.95 90.05 413.66 64.66"><title>Thunder Software logo</title><style>svg {enable-background:new 0 0 400 245}</style><style>.st0{fill:#d80c18}</style><path d="M44.4 104.4H8.5l-2.6 4.2h35.9zm91.3-6.3H12.1l-2.7 4.1h123.2zM8.2 133.9h10.4l2.7-4.2H10.9zm6.2-10.5l-2.7 4.2h10.4l2.6-4.2zm17.3-12.6H21.3l-2.6 4.1h10.4zm34.7 17c3.3-4.7 4.5-8.5 2.7-10.3-1-1-3.1-1-3.1-1l-8.5.1c-1.4.1-2.9 1.1-4.6 3l9.8-16H50.9l-.6 2.5-22.6 36.7-1.5 1.8c-.5.6-1 1.1-1.6 1.5h13.1l.3-1.6.3-1L49 125.9l1.5-2.3c3.5-1.5 5.9-1.6 7.4-.3l-.5.9-10.6 17.4c-.5.7-1.1 1.4-1.7 2.2-.6.8-1.4 1.6-2.2 2.5h13.6l-.3-1.7 10.2-16.8zm-51.2-6.6h10.4l2.6-4.1H17.8zm-10.5 19h10.4l2.6-4.1H7.3zm-3.5 6.3h10.4l2.6-4.1H3.8z" class="st0"/><path d="M207.6 118.7c-.1-.7-.6-1.8-1.4-2.2h-22.6c-1.8.2-3.2.9-4.6 1.9-1.2 1.1-2.2 2.5-2.8 3.2l-12.4 20.9c-.8 1.5-.4 2.7 1.2 3.5l26 .1c1.2-1 3-3.2 4.2-5.4.4-.7.8-1.6.8-1.6s-8.9 1.6-13.5 1.6c-2.7 0-4.8-.5-5.1-.6.1-1.8.7-3.6 2.2-5.3 0 0 .2-.2 1.1-.2h17.1c.7 0 1.2-.2 1.2-.2l7.8-12.9.5-1c.1.1.4-1.1.3-1.8zm-12 5.5l-2.7 4.5h-9.3l2.7-4.5c.8-1.5 2.8-2.3 5.9-2.2 2.9-.2 4.1.5 3.4 2.2z" class="st0"/><path d="M311.8 117h-23.6c-3.3.3-5 1-6.6 2.1-1.2.9-2.1 1.8-2.9 2.7l-1.6 2-9.3 15c-.3.5-1.4 2.6-1.4 2.6-.4 1-.6 1.6-.6 2.6.1 1 1 1.8 1.8 2.1l.4.1h23.6c1.1-.1 2.1-.3 3.2-.8 4-1.6 7.3-7.3 7.3-7.3l10.3-17.4c.4-.7.7-1.2.6-2.2.1-.7-.6-1.2-1.2-1.5zm-14 7.8l-8.8 14.4c-.6.7-1.2 1.1-1.7 1.2h-7c-.9 0 .4-2.2.6-2.4l8.1-13.1.8-1.1c.6-.6 1.3-.9 2.1-1.1h5.2c1.5-.2 1.8.5.7 2.1z" class="st0"/><path d="M362.4 117.2l3.3-5.7H356c-1 1.5-1.9 3.1-3.5 5.7h-6.6l-3.8 6.2h6.9L338.3 141s.8 4.6 5.9 5.2c5.1.5 9.1-2.2 9.1-2.2l2.7-4.4c-7.1 3-6.3-1.2-6.3-1.2l9.1-15h6.9l3.7-6.1h-7zm-255-.7H94.2l-.2 1.6-.3 1-10.9 17.7-1.5 2.3c-3.3 1.5-7.8 2.6-7.3.4l11-18.4c.6-.7 1.2-1.5 1.8-2.3.6-.8 1.3-1.6 2.1-2.4H75.2l.5 1.7-9.7 16.6c-1.3 2.2-4.2 7.2-4.7 8.4-.9 2.1.8 2.7 5.2 2.9h5.8c2.8 0 5-.9 6.7-2.9l-1.9 3h12l.5-2.5 14.6-23.8c.9-1.2 2-2.4 3.2-3.3zm235.3 1h-7l.2-.4c2.9-3.7 6.5-5.5 10.5-4.1l3.7-6.1h-10.9c-5.2 0-7.2 2.7-9.9 5.9l-3.6 4.9h-8.3l-3.8 6.2h7.9L308.3 147h10.2l13.2-23.1h7.1l3.9-6.4zm-115.5 5.7l-.4.9h7.9c2.6-4.6 2.5-7.1-.3-7.5H229c-2.8.1-5.1 1.1-6.8 3l1.9-3.1h-12l-.5 2.5-14.6 23.8c-1.1 1.5-2.1 2.5-3.2 3.3H207l.2-1.6.4-1 10.8-17.7 4.5-2.3c3.5-1.5 2.9-1.6 4.3-.3z" class="st0"/><path d="M171.3 106.7l-7.9 12.8c.6-1.6.4-2.4-.5-2.8h-10.7c-4.8 0-8 3.2-9.1 4.8L130.2 142l-.3.9c-.2.8-.2 1.7.1 2.7.5.5.9.8 1.4.9h27.4l1.8-4.4 19.1-31.1 3.5-3.6.3-.5h-12.2zM159.7 124l-9.2 15.1-1.1.9c-2.3 1-4.1 1.2-5.3.8-1.1-.4-1.5-1-1.1-1.7l8.9-14.8c.2-.3 1-1.6 1.9-1.6h5.9c.1.1.1.3.1.5.1.2.1.4-.1.8z" class="st0"/><path d="M134.7 127.7c1.2-2.1 1.8-3.1 2.5-4.4.9-1.7 1.3-2.6 1.8-4 .8-2.1-2.9-2.7-5.3-2.7s-5.8-.1-5.8-.1c-2.8.1-5.1 1.1-6.8 3l1.9-3.1h-12l-.5 2.5-14.6 23.9c-1 1.5-2.1 2.5-3.2 3.3h13.2l.2-1.6.4-1 12.3-20c3.5-1.5 5.9-1.6 7.3-.3l-.4.9-10.6 17.4c-1.1 1.5-2.5 3.1-4 4.7l13.8.1-.5-1.8 10.3-16.8zm151.4-29.6h-27.3c-1.3 0-2.5.4-3.8 1.1-1.3.7-2.6 1.7-4 3.1h32.6l2.5-4.2zm-31.2 12.7h-8.6l-2.5 4.1h8.6zm28.4-6.4h-33.4c-.1.1-.2.3-.3.4-.1.1-.2.2-.2.3l-.3.3c-.1.1-.1.2-.2.4l-1.7 2.8h33.6l2.5-4.2zm-9.2 13.7c-.5-.7-1.3-1-2.6-1H243l-1.7 2.8c-.1.1-.2.3-.2.4-.1.1-.1.2-.1.3-.1.1-.1.2-.2.3-.1.1-.1.2-.2.4h33.7c.3-1.4.3-2.5-.2-3.2zm-51.5 28.5h29.7c1.3 0 2.5-.3 3.8-1 1.3-.7 2.6-1.7 3.9-3.1h-35l-2.4 4.1zm20.3-19h28.6l1.7-2.8c.1-.1.2-.3.2-.4.1-.1.1-.2.1-.3.1-.1.1-.2.2-.3.1-.1.1-.2.2-.4h-33.7c-.3 1.4-.3 2.4.2 3.1.4.7 1.2 1.1 2.5 1.1zm-16.2 12.7H262c.1-.1.2-.3.3-.4.1-.1.2-.2.2-.3l.3-.3c.1-.1.1-.2.2-.4l1.7-2.8h-35.4l-2.6 4.2zm40.9-6.4l2.5-4.2h-8.6l-2.5 4.2z" class="st0"/><g><path d="M386.6 122.9c-6.7 0-12.2-5.5-12.2-12.2 0-6.7 5.5-12.2 12.2-12.2 6.7 0 12.2 5.5 12.2 12.2 0 6.8-5.5 12.2-12.2 12.2zm0-23c-6 0-10.8 4.8-10.8 10.8 0 6 4.8 10.8 10.8 10.8 6 0 10.8-4.8 10.8-10.8 0-5.9-4.8-10.8-10.8-10.8z" class="st0"/></g><g><path d="M393.1 117.8h-1.9l-2.5-4.1c-.5-.9-1-1.5-1.4-1.7s-.9-.4-1.5-.4h-1.4v6.3h-1.6v-14.6h4.3c1.3 0 2.4.3 3.2 1 .8.7 1.2 1.6 1.2 2.9 0 2-1.1 3.3-3.2 3.9.4.2.7.4 1 .7.3.3.7.8 1.2 1.7l2.6 4.3zm-8.8-13.1v5.4h2.4c.9 0 1.6-.3 2.2-.8.6-.5.8-1.2.8-2.1 0-.8-.3-1.4-.8-1.9-.5-.4-1.3-.7-2.2-.7h-2.4z" class="st0"/></g></svg>