<svg xmlns="http://www.w3.org/2000/svg" role="img" viewBox="-5.91 79.34 411.58 86.08"><style>svg {enable-background:new 0 0 400 245}</style><path fill="#ed1a3b" d="M199.53 122.49c-.06-19.49 15.63-35.2 35.24-35.23 19.15.04 34.86 15.75 35.24 35.23-.38 19.26-16.09 34.97-35.24 35.24-19.6-.26-35.3-15.98-35.24-35.24zm35.25 22.26c10.59-.16 19.36-10.11 19.47-22.26-.11-12.39-8.88-22.34-19.47-22.26-11.03-.07-19.82 9.88-19.47 22.26-.35 12.15 8.43 22.1 19.47 22.26m75.11-42.66v53.79h-14.83v-53.79h-21.33V90.04h56.57v12.05h-20.41m38.01 38.95l-5.55 14.85h-17.62l27.82-65.84h18.54l26.89 65.84h-17.61l-5.57-14.85h-26.9zm13.92-11.13h9.27l-9.27-24.11-9.27 24.11h9.27M37.25 102.09v53.79H22.41v-53.79H2.01V90.04h55.64v12.05h-20.4m24.11 20.4c.03-19.49 15.73-35.2 35.23-35.23 19.25.04 34.96 15.75 35.24 35.23-.28 19.26-15.99 34.97-35.24 35.24-19.5-.26-35.2-15.98-35.23-35.24zm35.23 22.26c10.71-.16 19.47-10.11 19.47-22.26 0-12.39-8.77-22.34-19.47-22.26-10.94-.07-19.71 9.88-19.46 22.26-.25 12.15 8.52 22.1 19.46 22.26m68.63 11.13h7.41v-25.04l25.97-40.8h-16.68l-16.7 27.81-15.77-27.81h-17.62l25.98 40.8v25.04h7.41"/></svg>