<svg xmlns="http://www.w3.org/2000/svg" role="img" viewBox="-3.25 -3.25 168.87 67.25"><title>Tripp Lite logo</title><g data-name="Layer 2"><path fill="#0067b1" d="M71.76 9.71h90.69V7.14H127.9a30.28 30.28 0 0 0-39.06 0H69a30.28 30.28 0 0 0-39 0H0v2.57h71.76zM108.35 3a27.18 27.18 0 0 1 14.34 4.1H94A27.23 27.23 0 0 1 108.35 3zM96.14 31.85c0 2.5-1.45 4.54-3.23 4.54s-3.24-2-3.24-4.54 1.45-4.54 3.24-4.54 3.23 2.03 3.23 4.54zM3.94 13.62l-1.19 8.04h5.8L5.06 47.32h6.84l3.57-25.66h5.58l1.11-8.04H3.94zm121.92 0l-1.19 8.04h5.8l-3.5 25.66h6.85l3.57-25.66h5.58l1.11-8.04h-18.22zM37.34 41.89c.37-2.75.74-8.26-1.19-9.75 1.19-1.11 3.42-1.86 3.72-8.55S37 13.85 32 13.55l-9.22.07-4.7 33.63h6.76l1.64-12.06h2.31c1.7.12 2.24.39 1.92 4.14s-.27 7.29.16 7.92h7.21V45s-1.08-.36-.74-3.11zm-4.12-17.55A2.86 2.86 0 0 1 30 27.28h-2.4l.86-6h2.43c1.26.03 2.57-.34 2.33 3.06zm36.64.8c.68-6.67-2.31-11.29-7.36-11.59l-9.23.07-4.68 33.63h6.77l1.55-11.46h2.7c7.39 0 9.5-3.21 10.25-10.65zm-6.74-.21c-.24 3.34-2.73 2.94-2.73 2.94H58l.88-6.58c.62 0 1.28.05 2.52.05s1.96.19 1.72 3.59zm26.55.21c.67-6.67-2.31-11.29-7.37-11.59l-9.22.07-4.69 33.63h6.77l1.55-11.46h2.71c7.33 0 9.5-3.21 10.25-10.65zm-6.75-.21c-.23 3.34-2.73 2.94-2.73 2.94h-2.38l.89-6.58c.62 0 1.28.05 2.51.05s1.95.19 1.71 3.59zM50.44 13.58H43.8L39.03 47.2h6.64l4.77-33.62zm53.28 25.4l3.42-25.41h-6.77l-3.42 25.41-1.13 8.31h16.79l1.12-8.31h-10.01zm21.34-25.33h-6.86l-4.61 33.57h6.85l4.62-33.57zm34.63 7.97l1.09-8.06h-15.75l-.01.09h-.24l-3.54 25.75h-.07l-1.07 7.84h16.41l1.06-7.84h-9.48l.78-5.66h8.38l1.06-7.84h-8.36l.59-4.28h9.15zm-33.16 29.2H0v2.57h29.66a30.27 30.27 0 0 0 39.71 0H88.5a30.27 30.27 0 0 0 39.71 0h34.24v-2.57h-35.92zm-18.18 7a27.2 27.2 0 0 1-14.82-4.38h29.63a27.19 27.19 0 0 1-14.81 4.33z" data-name="Layer 1"/></g></svg>