<svg xmlns="http://www.w3.org/2000/svg" role="img" viewBox="-10.26 -7.26 689.52 259.02"><title>Ubuntu logo</title><defs><style>.cls-1{fill:#010101}.cls-3{fill:#888}.cls-9{fill:#fff}</style></defs><path d="M107.866 129.918c0 5.824.034 11.648-.027 17.47-.017 1.453.21 2.379 1.854 2.776 14.738 3.559 29.614 6.034 44.782 3.88 15.727-2.232 27.869-10.064 34.737-24.74 7.343-15.692 7.252-31.97 2.02-48.156-6.102-18.88-20.878-29.097-40.685-29.248a51.78 51.78 0 0 0-24.775 6.337v-3.481c0-15.422-.05-30.845.052-46.265.017-2.268-.627-2.719-2.707-2.287a111.732 111.732 0 0 1-11.757 2.053c-2.894.286-3.568 1.42-3.56 4.22q.144 58.72.066 117.441zm17.88-52.72a3.307 3.307 0 0 1 1.554-3.23c8.632-5.49 17.974-7.82 28.025-5.56 11.765 2.65 17.281 11.18 19.622 22.278a77.397 77.397 0 0 1 1.28 12.694c-.321 6.37-.892 12.87-3.767 18.955-5.735 12.131-16.509 16.987-28.5 16.66a83.777 83.777 0 0 1-15.72-1.445c-1.765-.383-2.524-.85-2.515-2.837q.116-28.758.02-57.515zm166.986 69.852q-.035-22.471-.014-44.944c0-14.98-.075-29.964.07-44.945.024-2.649-.79-3.237-3.238-3.115a100.814 100.814 0 0 1-11.635-.01c-2.694-.175-3.168.835-3.155 3.28.095 17.675.052 35.35.052 53.027 0 8.085-.012 16.17.009 24.252.005 1.476.059 2.628-2.014 2.894a114.944 114.944 0 0 1-20.607 1.2c-10.078-.523-16.309-5.56-19.156-15.296a57.575 57.575 0 0 1-2.01-16.28c-.004-16.709-.039-33.414.043-50.119.01-2.175-.452-3.063-2.823-2.948q-5.975.29-11.957 0c-2.443-.119-3.26.461-3.24 3.115.135 17.457.076 34.92.066 52.38a82.632 82.632 0 0 0 1.336 14.768c3.243 17.946 14.79 28.415 32.95 29.925 14.76 1.23 29.171-1.028 43.525-4.09 1.937-.412 1.8-1.658 1.798-3.094zm267.185-92.915c-7.073-.119-7.075-.035-7.075 6.881q0 36.55-.014 73.104c0 1.383.6 3.01-1.841 3.33a107.979 107.979 0 0 1-21.263 1.193c-9.723-.658-15.67-5.447-18.571-14.755a60.452 60.452 0 0 1-2.287-17.865c-.073-16.28-.09-32.564.041-48.843.023-2.614-.734-3.272-3.22-3.134a103.807 103.807 0 0 1-11.313 0c-2.495-.136-3.266.543-3.247 3.162.125 17.36.075 34.72.057 52.079a93.254 93.254 0 0 0 .853 12.872c2.661 19.302 14.36 30.5 33.74 32.1 14.54 1.2 28.757-1.05 42.909-4.07 2.045-.434 2.088-1.613 2.085-3.237q-.058-22.481-.023-44.963c0-12.4.035-24.798-.022-37.197-.014-3.426 1.451-7.939-.557-9.99-2.18-2.222-6.736-.608-10.252-.667zM37.902 154.248c14.547 1.186 28.761-1.023 42.915-4.032 1.928-.411 2.207-1.39 2.198-3.133-.066-14.986-.038-29.971-.038-44.957s-.047-29.97.052-44.956c.014-2.284-.34-3.29-2.938-3.135a116.627 116.627 0 0 1-12.284.01c-2.334-.107-2.837.707-2.823 2.91.094 14.447.049 28.894.049 43.342q0 17.142.01 34.284c.002 1.469.087 2.623-1.995 2.896a109.348 109.348 0 0 1-20.932 1.177c-9.709-.596-15.752-5.385-18.67-14.645-2.134-6.77-2.305-13.77-2.315-20.777-.025-15.418-.047-30.835.036-46.252.013-2.167-.435-3.054-2.805-2.936a110.594 110.594 0 0 1-11.963-.007c-2.495-.146-3.002.663-2.985 3.046.114 15.847.044 31.696.068 47.544a133.154 133.154 0 0 0 .66 16.779c2.513 19.667 14.354 31.262 33.76 32.842zm359.446-55.71a106.317 106.317 0 0 0-1.197-16.09c-2.61-17.404-13.694-28.045-30.982-29.871-14.873-1.568-29.41.6-43.923 3.51-2.759.554-3.573 1.574-3.544 4.386.157 14.664.074 29.33.074 43.998 0 15.097.036 30.195-.046 45.292-.01 2.04.427 2.808 2.625 2.712q6.304-.26 12.613-.005c2.092.078 2.708-.509 2.686-2.651-.113-10.567-.053-21.137-.053-31.705 0-15.204.034-30.411-.038-45.616-.009-2.007.272-2.99 2.621-3.341a100.454 100.454 0 0 1 21.582-1.08c9.486.629 15.276 5.443 17.78 14.615a68.97 68.97 0 0 1 1.962 18.25c.01 16.177.063 32.353-.059 48.529-.017 2.459.62 3.145 3.04 3.007a94.28 94.28 0 0 1 11.317.004c2.763.174 3.638-.5 3.607-3.476-.167-16.822-.11-33.645-.065-50.469z" class="cls-1"/><path fill="#e55625" d="M626.353 6.003a39.685 39.685 0 1 0 39.728 40.026 39.216 39.216 0 0 0-38.395-40.02q-.666-.014-1.333-.006zm13.645 10.948a5.315 5.315 0 0 1 5.243 5.387v.04a5.192 5.192 0 0 1-5.193 5.19q-.123 0-.245-.005a5.288 5.288 0 0 1-5.286-5.289v-.095a5.387 5.387 0 0 1 5.48-5.228zm-9.294 6.012a2.759 2.759 0 0 1 2.37 1.858 6.92 6.92 0 0 0 8.202 4.595 2.68 2.68 0 0 1 2.704 1.27 23.098 23.098 0 0 1 5.251 11.25c.3 1.563-.015 2.492-1.914 2.273a14.986 14.986 0 0 0-3.22.07c-1.667.172-2.318-.373-2.745-2.16a14.961 14.961 0 0 0-17.756-11.507q-.173.037-.345.078c-2.89.72-4.36.277-5.329-2.44a24.508 24.508 0 0 0-1.695-3.195 22.556 22.556 0 0 1 14.475-2.092zM599.28 50.86a5.284 5.284 0 1 1 5.413-5.152l-.002.063a4.983 4.983 0 0 1-5.413 5.089zm11.506 11.569a20.003 20.003 0 0 1-5.181-6.93c-1.062-2.197-1.706-4.04.158-6.395a5.892 5.892 0 0 0-.264-7.516 4.015 4.015 0 0 1-.442-4.69 25.348 25.348 0 0 1 6.584-9.056c1.578-1.422 2.457-1.198 3.341.637.697 1.448 1.616 2.788 2.406 4.125-.119.94-.905 1.229-1.419 1.737a15.2 15.2 0 0 0-1.027 21.47q.457.504.958.965c1.573 1.557 1.01 4.379-1.591 6.91-1.784 1.735-2.57-.474-3.523-1.257zm29.176 11.736a5.288 5.288 0 0 1-5.441-5.13l-.002-.078a5.418 5.418 0 0 1 5.345-5.364 5.268 5.268 0 0 1 5.374 5.161v.11a5.107 5.107 0 0 1-4.906 5.3q-.185.007-.37 0zm9.233-24.872a24.952 24.952 0 0 1-5.16 11.306 3.446 3.446 0 0 1-3.664 1.033 6.978 6.978 0 0 0-7.21 4.513 3.159 3.159 0 0 1-2.801 2.142A24.046 24.046 0 0 1 618 67.072c-1.482-.517-1.9-1.193-.958-2.533a7.035 7.035 0 0 0 .78-1.406c1.031-2.57 2.29-3.552 5.492-2.639 7.738 2.21 15.863-3.053 18.072-11.113.26-.952-.115-2.415 1.479-2.43a16.427 16.427 0 0 1 6.057.27c.747.282.395 1.37.273 2.072z"/><path d="M439.66 152.62a55.862 55.862 0 0 0 37.874-2.862c1.27-.533 1.568-1.058 1.166-2.402a92.544 92.544 0 0 1-2.682-10.286c-.467-2.616-1.572-2.513-3.45-1.593a38.176 38.176 0 0 1-18.564 3.278c-7.995-.279-12.6-3.777-14.68-11.515a37.224 37.224 0 0 1-1.073-6.353c-.8-9.033-.233-18.092-.41-25.651 0-8.602.099-15.718-.054-22.83-.053-2.444.47-3.312 3.136-3.27 10.563.169 21.13.019 31.694.113 1.987.017 2.633-.524 2.534-2.536a91.26 91.26 0 0 1 .009-10.022c.139-2.262-.76-2.647-2.768-2.631-10.564.083-21.129-.02-31.694.087-2.2.022-2.955-.495-2.913-2.825.144-8.19-.075-16.388.129-24.576.07-2.74-.874-2.985-3.126-2.523-3.793.776-7.61 1.491-11.45 1.949-2.488.298-3.231 1.208-3.219 3.817.115 29.106.085 58.214.06 87.32a69.309 69.309 0 0 0 1.442 14.115c2.136 10.333 7.538 18.184 18.038 21.194z" class="cls-1"/><path d="M28.838 189.512c-6.343-2.846-12.97-2.637-19.647-1.521-1.721.287-1.798 1.47-1.787 2.872.041 5.707.017 11.414.017 17.123s.063 11.417-.035 17.122c-.033 1.906.63 2.623 2.524 2.867a45.488 45.488 0 0 0 13.812-.021A18.661 18.661 0 0 0 39.578 211.9c1.47-10.363-2.47-18.679-10.74-22.388zm6.37 20.781c-.58 8.605-6.793 14.25-15.943 14.481-7.444.186-7.444.186-7.444-7.136v-9.69c0-4.738.075-9.478-.035-14.212-.045-1.937.59-2.78 2.559-2.684a66.707 66.707 0 0 1 7.407.23c9.695 1.58 14.195 8.05 13.456 19.01zM236.4 183.071c-1.6.088-3.216.247-3.09 2.687.172 3.328-.077 6.675.08 10.004.118 2.567-.297 3.325-3.133 2.346-8.628-2.972-16.284 1.394-18.173 10.14a22.957 22.957 0 0 0-.04 9.307 13.436 13.436 0 0 0 10.934 10.944 35.023 35.023 0 0 0 12.185-.536 2.774 2.774 0 0 0 2.53-3.31c-.113-6.562-.043-13.127-.043-19.69 0-6.458.04-12.913-.045-19.369-.01-.894.898-2.638-1.205-2.523zm-5.207 41.771a21.895 21.895 0 0 1-7.341.01 9.618 9.618 0 0 1-7.323-6.948 17.366 17.366 0 0 1 .14-10.465 10.182 10.182 0 0 1 15.667-4.654 3.136 3.136 0 0 1 1.015 2.867q-.003 4.189 0 8.378c-.002 2.792-.06 5.587.02 8.375.046 1.605-.523 2.29-2.176 2.437zm35.944-26.521c-1.932.666-2.477.391-2.433-1.628.084-3.874-.033-7.752.047-11.626.035-1.76-.519-2.153-2.282-1.888-2.064.313-1.946 1.6-1.944 3.031q.009 9.528.002 19.055c0 6.46-.01 12.92.01 19.38.004 1.123-.398 2.545 1.238 2.924 6.145 1.422 12.388 2.533 18.155-1.004 5.355-3.282 6.626-8.596 6.474-14.555-.289-11.29-8.64-17.353-19.267-13.69zm14.662 18.618a11.792 11.792 0 0 1-16.146 7.689c-1.033-.517-.906-1.354-.914-2.18-.025-2.9-.009-5.804-.01-8.705 0-2.471.149-4.957-.044-7.414a3.893 3.893 0 0 1 3.077-4.5c7.42-2.654 12.752.366 14.211 8.097a16.966 16.966 0 0 1-.174 7.014zM61.527 197.47c-7.397-1.493-13.551 2.531-15.412 10.6-1.422 6.17-1.222 12.427 3.742 17.135 4.804 4.553 10.8 4.059 16.749 2.698 1.514-.347 2.48-.888 1.859-2.883-.651-2.095-1.75-.818-2.705-.661-1.48.242-2.936.701-4.423.827-6.157.515-10.79-3.217-11.34-8.898-.174-1.815.313-2.56 2.222-2.476 2.684.115 5.378.028 8.069.026 2.797-.002 5.596.015 8.393-.012.922-.01 1.858.196 2.213-1.219a12.873 12.873 0 0 0-9.367-15.137zm3.237 13.037c-2.135-.114-4.281-.028-6.425-.028-2.037 0-4.077-.101-6.104.026-2.298.144-2.43-.837-1.856-2.703a9.162 9.162 0 0 1 8.86-7.021c4.01.214 6.66 2.981 7.46 7.522.309 1.765-.215 2.292-1.933 2.202zm133.509-12.652a12.692 12.692 0 0 0-15.792 6.513 19.044 19.044 0 0 0-1.817 9.717c.42 11.81 10.689 18.26 21.67 13.616.756-.319 1.588-.458 1.434-1.743-.25-2.069-1.026-2.227-2.933-1.658-8.802 2.631-15.052-.823-15.76-8.377-.155-1.647.271-2.127 1.817-2.097 2.906.055 5.818.015 8.727.012q4.203-.004 8.406-.002c1.003 0 1.772-.023 2.01-1.42 1.027-6.015-2.487-12.74-7.762-14.56zm1.855 12.636c-2.15-.045-4.302-.014-6.454-.016-2.259 0-4.52-.06-6.777.02-1.526.053-1.798-.653-1.626-1.976a9.503 9.503 0 0 1 8.689-7.744c4.308.013 7.164 3.045 7.789 7.878.205 1.596-.284 1.866-1.62 1.836zm-54.08-12.968c-8.06-1.609-14.69 2.972-16.014 11.852-2.155 14.429 6.22 22.003 20.574 18.575 1.44-.343 2.705-.745 2.167-2.768-.583-2.182-1.826-1.008-2.959-.766a31.525 31.525 0 0 1-4.434.78c-5.97.393-10.161-2.844-11.126-8.445-.322-1.874-.177-3.138 2.319-2.955 2.678.193 5.381.043 8.072.043 1.507 0 3.015-.01 4.522 0 7.651.053 6.396.465 5.595-6.735a10.612 10.612 0 0 0-8.716-9.583zm2.966 12.984c-2.136-.122-4.282-.028-6.424-.03-2.25-.002-4.5-.035-6.748.01-1.2.025-1.727-.29-1.563-1.653a9.477 9.477 0 0 1 8.73-8.058c4.108-.025 7.15 2.889 7.888 7.417.263 1.612-.031 2.416-1.883 2.313zm306.71-.128a14.526 14.526 0 0 0-9.562-12.637 13.175 13.175 0 0 0-14.921 4.85 18.218 18.218 0 0 0-.81 19.58c2.782 5.245 7.582 7.067 13.33 6.503a12.547 12.547 0 0 0 10.708-8.163 15.299 15.299 0 0 0 1.264-7.713c0-.698.06-1.563-.01-2.42zm-6.569 11.293a8.868 8.868 0 0 1-14.714-.747 15.596 15.596 0 0 1-1.324-12.76c1.33-4.774 4.978-7.604 9.32-7.374a9.665 9.665 0 0 1 8.824 8.798c.155 1.166.145 2.357.21 3.535a12.87 12.87 0 0 1-2.316 8.548zm-89.521 2.19c-11.273 3.992-19.9-.208-22.064-10.569a44.03 44.03 0 0 1-.48-5.134c.08-14.243 9.496-20.942 22.466-15.89 1.065.417 1.883.965 2.489-.655.53-1.417.73-2.367-.996-3.022a22.537 22.537 0 0 0-15.769-.81c-8.076 2.775-12.502 10.191-12.594 20.481-.136 15.4 11.296 24.797 28.32 19.232.965-.316 2.145-.4 1.696-2.095-.492-1.854-1.02-2.263-3.068-1.537zm194.501-7.82v-6.789c-.008-10.013-8.307-15.316-17.56-11.32-1.61.696-1.306 1.776-1.115 2.896.293 1.736 1.46.651 2.263.57 1.601-.166 3.19-.573 4.786-.596 5.13-.073 7.724 2.663 7.754 7.773.01 1.652-.508 2.117-2.071 1.732a18.597 18.597 0 0 0-8.95.169c-5.009 1.218-7.89 4.823-7.55 9.444a8.828 8.828 0 0 0 8.755 8.662 44.317 44.317 0 0 0 11.575-.625c1.6-.278 2.187-.934 2.141-2.537-.09-3.125-.028-6.252-.026-9.378zm-3.884 3.374c.003 5.848.003 5.869-6.01 5.813-2.477-.024-5.01-.15-6.889-2.043a5.536 5.536 0 0 1 2.16-8.964 18.545 18.545 0 0 1 9.198-.374c1.132.136 1.605.88 1.55 2.033-.055 1.175-.011 2.357-.01 3.533zm-160.996-3.354v-7.101c-.01-9.865-8.594-15.132-17.674-10.936-1.438.664-1.186 1.576-1.017 2.613.244 1.502 1.241 1.088 2.197.818a17.997 17.997 0 0 1 5.414-.691c4.773.14 7.232 2.795 7.168 7.611-.023 1.683-.36 2.297-2.223 1.84a18.893 18.893 0 0 0-8.943.313c-4.943 1.184-7.34 4.466-7.083 9.639a8.382 8.382 0 0 0 8.156 8.382 41.956 41.956 0 0 0 11.875-.585c1.598-.289 2.19-.959 2.151-2.546-.075-3.116-.02-6.238-.02-9.357zm-9.747 9.165a16.685 16.685 0 0 1-2.866-.252c-3.904-.696-5.6-2.524-5.5-5.851.094-3.081 2.332-5.135 5.992-5.48a25.78 25.78 0 0 1 1.925-.093c6.256-.117 6.256-.115 6.256 5.966 0 5.716 0 5.726-5.807 5.709zm-67.27-27.53c-1.663.027-1.772 1.214-2.033 2.394a185.158 185.158 0 0 1-6.673 23.815 6.887 6.887 0 0 1-1.842-2.981 118.603 118.603 0 0 1-7.526-20.9c-.591-2.442-2.019-2.727-3.724-2.193-2.01.63-.545 2.18-.272 3.203a136.748 136.748 0 0 0 9.99 25.468c.507 1.018 1.23 1.936.758 3.307a8.476 8.476 0 0 1-9.364 5.731c-1.424-.252-2.76-.919-3.04 1.314-.293 2.345 1.534 1.955 2.76 2.058 6.93.576 10.479-1.664 13.608-8.877a182.281 182.281 0 0 0 9.437-30.108c.562-2.332-.494-2.256-2.08-2.23z" class="cls-3"/><path fill="#898888" d="M421.285 207.897c-.37-5.852-3.55-9.622-8.198-10.24a34.762 34.762 0 0 0-13.474.787 2.176 2.176 0 0 0-1.941 2.388l.007.061q.096 12.455.007 24.91c-.01 1.615.449 2.313 2.193 2.318 1.888.007 2.066-.983 2.045-2.457-.049-3.558-.017-7.119-.016-10.677.002-3.667-.01-7.332.01-11 .006-1.04-.245-2.283 1.297-2.54 10.137-1.689 13.928.275 14.258 9.988.025.754.004 1.51.004 2.263.003 4.206.036 8.413-.007 12.618-.018 1.492.764 1.769 2.026 1.775 1.269.007 2.026-.254 2.005-1.763-.087-6.144.174-12.308-.216-18.431z"/><path d="M486.132 206.336c-.832-5.184-4.007-8.35-8.866-8.79a37.044 37.044 0 0 0-12.175.808c-1.598.388-2.294 1.063-2.236 2.828.135 4.085.043 8.177.043 12.267s.035 8.18-.017 12.268c-.02 1.478.139 2.423 2.036 2.402 1.915-.017 2.007-1.042 2.002-2.471-.03-6.351-.013-12.7-.013-19.05 0-5.03 0-5.03 4.834-5.621 7.07-.865 10.397 1.885 10.617 9.017.165 5.378.128 10.761.1 16.141-.008 1.628.768 1.991 2.192 1.962 1.26-.028 2.071-.293 2.027-1.786-.194-6.657.52-13.348-.544-19.975zm-361.758-8.637c-1.71.018-1.67 1.3-1.98 2.428a138.746 138.746 0 0 1-8.313 23.398c-.898-2.01-1.448-3.17-1.94-4.355a123.597 123.597 0 0 1-6.397-19.587c-.512-2.225-1.974-1.904-3.443-1.835-1.352.063-1.138 1.027-.898 1.885a168.05 168.05 0 0 0 9.937 26.873 2.658 2.658 0 0 0 2.82 1.598 2.369 2.369 0 0 0 2.478-1.572 181.608 181.608 0 0 0 9.825-26.577c.644-2.308-.498-2.271-2.089-2.256zm400.401 26.842c-9.168 2.318-14.703-1.996-14.705-11.46 0-9.715 5.13-13.852 14.477-11.673a2.377 2.377 0 0 1 .617.181c1.291.72 1.611-.04 1.971-1.115.4-1.184.571-1.998-.983-2.406-5.408-1.42-10.666-1.705-15.278 2.146-5.604 4.682-6.983 14.892-3.08 22.017 3.148 5.754 10.312 8.076 17.845 5.779 1.288-.394 2.828-.428 2.135-2.658-.672-2.165-1.846-1.102-2.999-.811zm45.065.632c-3.441-.705-3.432-3.27-3.424-5.968q.052-16.79-.03-33.583c-.005-.898.899-2.62-1.192-2.548-1.547.054-2.78.355-2.71 2.599.189 6.022.065 12.054.065 18.083s-.049 12.055.017 18.082c.047 4.097 2.693 6.81 6.271 6.765a1.594 1.594 0 0 0 1.796-1.363l.002-.019c.23-.914.373-1.808-.795-2.048zm-485.15-.178c-2.587-.538-2.961-2.393-2.939-4.642.058-5.712.018-11.424.018-17.138 0-5.82.066-11.642-.07-17.459-.019-.877 1.27-2.837-1.32-2.703-1.997.105-2.737.944-2.664 3.022.157 4.412.047 8.836.05 13.255.003 7.437-.064 14.874.04 22.311.058 4.169 2.203 6.54 5.791 6.906 1.193.122 2.007.021 2.31-1.462.256-1.253-.047-1.844-1.217-2.088z" class="cls-3"/><path fill="#898989" d="M176.33 197.628a30.406 30.406 0 0 0-12.124.842 2.656 2.656 0 0 0-2.168 3.01c.104 4.081.033 8.166.033 12.25 0 3.976.028 7.953-.014 11.928-.016 1.438.087 2.465 2.007 2.458 1.947-.005 1.966-1.102 1.961-2.498-.024-5.802-.008-11.605-.008-17.408 0-7.134 1.2-8.175 8.345-7.216a10.824 10.824 0 0 1 1.259.275c1.402.362 2.253-.024 2.495-1.585.228-1.48-.578-1.95-1.787-2.058z"/><path fill="#8c8c8c" d="M498.983 213.08c0-4.3-.02-8.598.012-12.897.01-1.445-.165-2.489-2.03-2.524-1.906-.035-2.343.818-2.333 2.541.06 8.49.044 16.98.012 25.47-.005 1.447.105 2.446 2.01 2.465 1.898.017 2.395-.724 2.357-2.482-.087-4.19-.028-8.382-.028-12.573z"/><path fill="#919191" d="M95.874 213.073c0-4.203-.01-8.407.007-12.608.005-1.472.07-2.804-2.071-2.825-2.04-.02-2.225 1.097-2.218 2.69q.05 12.607-.005 25.217c-.009 1.629.226 2.614 2.249 2.6 2.203-.012 2.048-1.342 2.043-2.788-.014-4.095-.005-8.19-.005-12.286z"/><path fill="#8b8b8b" d="M93.867 185.953a2.649 2.649 0 0 0-3.03 2.943 2.604 2.604 0 0 0 3.016 2.922 2.652 2.652 0 0 0 2.753-2.858c-.067-1.836-.967-2.948-2.74-3.007zm402.737-.063a2.79 2.79 0 0 0-2.649 2.924 2.612 2.612 0 0 0 2.907 3.011 2.566 2.566 0 0 0 2.821-2.786c.026-1.913-1.091-2.903-3.079-3.15z"/><path d="M648.922 47.221a16.427 16.427 0 0 0-6.057-.27c-1.594.015-1.218 1.478-1.48 2.432-2.21 8.058-10.333 13.323-18.07 11.111-3.203-.913-4.462.068-5.494 2.639a7.035 7.035 0 0 1-.78 1.406c-.941 1.34-.523 2.017.958 2.533a24.046 24.046 0 0 0 12.36 1.218 3.159 3.159 0 0 0 2.803-2.143 6.978 6.978 0 0 1 7.209-4.514 3.446 3.446 0 0 0 3.663-1.033 24.952 24.952 0 0 0 5.16-11.306c.123-.703.474-1.792-.274-2.073zm-33.024 9.554a15.2 15.2 0 0 1-.893-21.477q.46-.5.964-.958c.514-.506 1.3-.794 1.419-1.735-.79-1.337-1.711-2.677-2.407-4.125-.883-1.835-1.762-2.06-3.34-.637a25.348 25.348 0 0 0-6.584 9.056 4.015 4.015 0 0 0 .442 4.69 5.892 5.892 0 0 1 .264 7.516c-1.862 2.354-1.218 4.198-.156 6.396a20.004 20.004 0 0 0 5.18 6.929c.951.783 1.738 2.993 3.522 1.256 2.602-2.53 3.164-5.352 1.589-6.91zm7.353-26.085a14.961 14.961 0 0 1 18.024 11.084q.04.172.077.344c.427 1.788 1.08 2.333 2.743 2.16a14.985 14.985 0 0 1 3.222-.07c1.899.22 2.214-.71 1.915-2.272a23.098 23.098 0 0 0-5.251-11.25 2.68 2.68 0 0 0-2.705-1.268 6.92 6.92 0 0 1-8.201-4.597 2.759 2.759 0 0 0-2.373-1.858 22.557 22.557 0 0 0-14.475 2.092 24.507 24.507 0 0 1 1.695 3.195c.97 2.715 2.437 3.16 5.33 2.44z" class="cls-9"/><path fill="#fffffd" d="M639.803 27.563a5.192 5.192 0 0 0 5.432-4.94q.006-.124.006-.247a5.315 5.315 0 0 0-5.205-5.424l-.04-.001a5.387 5.387 0 0 0-5.478 5.228 5.288 5.288 0 0 0 5.19 5.383h.095zm.061 36.031a5.418 5.418 0 0 0-5.345 5.364 5.288 5.288 0 0 0 5.365 5.21l.078-.002a5.107 5.107 0 0 0 5.278-4.93q.006-.185-.001-.37a5.268 5.268 0 0 0-5.262-5.275l-.113.001z"/><path d="M599.628 40.3a5.284 5.284 0 0 0-.348 10.56 4.983 4.983 0 0 0 5.411-5.088 5.082 5.082 0 0 0-4.677-5.458q-.193-.014-.386-.014z" class="cls-9"/></svg>