<svg xmlns="http://www.w3.org/2000/svg" role="img" viewBox="-10.70 29.30 3806.40 1266.40"><title>UNIBERG (member) logo</title><path fill="#bd1f33" d="M860.44649 913.87822h155.39211l-475.7641-811.7957-475.7641 811.7957h653.48499l-249.1231-424.52405 71.4022-121.74896 320.372 546.27301"/><path fill="#231f20" d="M1479.53634 358.74144H1374.4323v243.17658c0 52.02804-19.22618 78.60737-70.7129 78.60737-51.48137 0-70.7169-26.57933-70.7169-78.60737V358.74144h-105.1027v236.9554c0 117.03841 53.68133 175.2423 175.8196 175.2423 122.13829 0 175.81694-58.20389 175.81694-175.2423zm69.05161 403.71524h98.89086V510.83897h1.1333l140.28983 251.6177h107.93064V358.74145h-98.87753v248.78711h-1.1333l-140.28983-248.78711h-107.94397zm420.13616 0h105.09071V358.74144h-105.0907zm283.20626-177.01024h84.29122c31.67921 0 56.57192 11.88503 56.57192 47.54014 0 33.3925-23.18609 45.27753-56.57192 45.27753h-84.29122zm-105.10404 177.01024h193.92848c86.5045 0 157.14274-29.38327 157.14274-125.50753 0-45.84286-26.55934-83.13926-69.50493-95.56828 31.63921-15.81827 53.10534-45.2362 53.10534-81.4633 0-84.22456-76.2781-102.30677-145.83635-101.17613h-188.83528zm105.10404-322.35061h81.46463c22.06611 0 42.99892 9.62242 42.99892 39.05769 0 28.86728-24.8927 38.49104-42.99892 38.49104h-81.46463zm303.13908 322.3506h327.32515v-90.41373h-222.2211v-76.98208h197.90171v-81.36463H2660.1735V442.934h216.56792v-84.19256h-321.67195zm387.33699 0h105.10404V615.42036h79.758c49.22544 0 56.01194 41.84829 58.83853 82.56594 1.1333 11.31038 2.8266 50.8974 11.86637 64.47039h103.98407c-14.13298-14.70364-15.82627-74.08348-16.95958-91.04973-3.38658-38.45637-15.82627-86.49917-58.77186-96.66958v-1.13064c42.3856-16.38626 63.29175-57.66256 63.29175-101.2428 0-81.4153-70.06491-113.6225-141.31647-113.6225h-205.79485zM3047.51048 442.934h83.7179c29.42593 0 53.18534 13.58366 53.18534 43.5789 0 30.56324-16.9729 47.54149-48.65212 47.54149h-88.25112zm675.68977 98.4722H3553.6445v77.97272h73.47816c-5.65319 36.80175-40.69231 61.14647-92.71768 61.14647-67.89163 0-93.91765-60.0145-93.91765-119.909 0-59.95717 26.02602-119.945 93.91765-119.945 42.41227 0 76.3181 20.93947 79.718 55.46128h105.13071c-9.61309-101.23214-98.91752-145.87369-182.5821-145.87369-122.18361 0-201.2883 93.243-201.2883 210.3574 0 117.07842 79.10469 210.32275 201.2883 210.32275 37.31907 0 84.79788-13.56233 112.49052-52.55202l6.21318 44.06957h67.82497V541.4062"/><path d="M194.79584 1156.17523q1.13457 0 1.92876.7942l4.53829 4.87865q-4.99211 5.33248-10.89188 9.64384-5.89978 4.19791-12.9341 7.26125-6.9209 2.9499-15.31671 4.5383-8.28237 1.70186-18.26658 1.70186-16.67819 0-30.6334-5.78632-13.84177-5.89976-23.82599-16.56472-9.87077-10.77843-15.43016-25.98167-5.5594-15.20324-5.5594-33.8102 0-18.26659 5.67285-33.35638 5.78632-15.08978 16.1109-25.8682 10.43805-10.89188 24.8471-16.79165 14.5225-6.01322 31.99489-6.01322 8.73619 0 15.99745 1.36149 7.26125 1.24802 13.50138 3.74408 6.3536 2.3826 11.913 6.01322 5.5594 3.63062 10.89188 8.39582l-3.51718 5.10558q-.90765 1.36147-2.83642 1.36147-1.02112 0-2.60951-1.13457-1.5884-1.24802-4.08446-2.94988-2.3826-1.8153-5.89976-3.85754-3.40372-2.15569-8.16891-3.85754-4.76519-1.81531-11.00533-2.94988-6.24015-1.24803-14.18214-1.24803-14.63597 0-26.88932 5.10556-12.25336 4.99213-21.10302 14.40905-8.84964 9.30348-13.84175 22.6914-4.87865 13.2745-4.87865 29.83921 0 17.01856 4.87865 30.4065 4.87866 13.38793 13.50138 22.69141 8.62274 9.19 20.30882 14.18211 11.79953 4.87866 25.52784 4.87866 8.62274 0 15.3167-1.13457 6.80742-1.13457 12.48027-3.40371t10.5515-5.5594q4.87866-3.29025 9.64386-7.71508.56728-.45382 1.0211-.68074.5673-.34038 1.24805-.34038zm42.09048 27.00277v-112.88977h5.67285q1.92877 0 2.72297.7942.90766.7942 1.02111 2.72298l.90765 23.82598q5.44595-13.72832 14.52251-21.44339 9.07657-7.82854 22.35104-7.82854 5.10556 0 9.41694 1.13457 4.31136 1.02112 8.1689 3.06334l-1.47493 7.48817q-.34037 1.81531-2.26914 1.81531-.68075 0-1.92878-.45382-1.24803-.45383-3.1768-1.02112-1.81531-.56728-4.53828-1.02112-2.72296-.45382-6.24014-.45382-12.82064 0-21.103 7.942-8.16892 7.94198-13.27448 22.91832v73.40671zm137.16667-114.70509q9.53039 0 17.58585 3.29026 8.1689 3.29026 14.06867 9.64384 6.01322 6.24015 9.30348 15.43017 3.40371 9.19003 3.40371 21.10301 0 2.49606-.7942 3.40372-.68074.90766-2.26915.90766h-81.5756v2.15567q0 12.7072 2.94986 22.35105 2.94989 9.64384 8.39584 16.22436 5.44593 6.46705 13.161 9.7573 7.7151 3.29027 17.24548 3.29027 8.50929 0 14.74942-1.81533 6.24014-1.92877 10.43805-4.19791 4.31136-2.3826 6.80742-4.19791 2.49605-1.92877 3.63062-1.92877 1.47494 0 2.26914 1.13457l2.94989 3.63063q-2.72297 3.40371-7.26125 6.35359-4.42483 2.94988-9.98423 5.10557-5.44593 2.04222-11.79953 3.29026-6.24013 1.24802-12.59373 1.24802-11.57262 0-21.10301-3.971-9.5304-4.08444-16.33781-11.79953-6.80743-7.71507-10.55151-18.83387-3.63063-11.23224-3.63063-25.6413 0-12.1399 3.40371-22.35104 3.51718-10.32458 9.98423-17.69929 6.5805-7.48816 15.99744-11.68607 9.53039-4.19793 21.55684-4.19793zm.11346 8.05545q-8.73619 0-15.65706 2.72298-6.92088 2.72297-12.02645 7.82854-4.99211 5.10556-8.1689 12.25336-3.06336 7.1478-4.08446 15.99744h74.42783q0-9.07657-2.49606-16.22436-2.49606-7.26125-7.03435-12.25336-4.53828-4.99212-10.89186-7.60162-6.3536-2.72297-14.06869-2.72297zm149.8735 106.64964q-3.40372 0-4.19791-3.1768l-1.5884-14.40905q-4.65175 4.53828-9.30348 8.16891-4.53829 3.63063-9.5304 6.12668-4.9921 2.49606-10.77842 3.74409-5.7863 1.36149-12.70718 1.36149-5.78632 0-11.23225-1.70187t-9.64386-5.21902q-4.1979-3.51717-6.80742-8.9631-2.49605-5.5594-2.49605-13.27447 0-7.1478 4.08446-13.2745 4.08444-6.12667 12.70718-10.66495 8.7362-4.53828 22.35104-7.26125 13.7283-2.72297 32.90254-3.1768v-11.79954q0-15.65706-6.80742-24.05288-6.69396-8.50929-19.96843-8.50929-8.16891 0-13.95522 2.26914-5.67285 2.26914-9.64386 4.99212-3.97099 2.72297-6.46705 4.99211-2.49606 2.26914-4.1979 2.26914-2.26915 0-3.40372-2.04223l-1.92877-3.29026q8.84965-8.84965 18.60696-13.38793t22.12413-4.53828q9.07656 0 15.88399 2.94989 6.80742 2.83642 11.23223 8.28236 4.53829 5.33248 6.80743 13.04757 2.26914 7.6016 2.26914 17.01854v73.52018zm-45.38282-6.01322q6.5805 0 12.02645-1.3615 5.55938-1.47492 10.21113-3.97098 4.76519-2.60952 8.84964-6.12668t8.05545-7.60162v-29.3854q-16.1109.45384-27.79697 2.49608-11.57262 1.92877-19.17424 5.33248-7.48817 3.4037-11.11879 8.1689-3.51718 4.65173-3.51718 10.66496 0 5.67285 1.81532 9.87077 1.92877 4.08444 4.9921 6.80742 3.06336 2.6095 7.1478 3.85754 4.08446 1.24803 8.50929 1.24803zm119.1288 7.82854q-11.45915 0-17.9262-6.3536-6.3536-6.35359-6.3536-19.62807v-77.1508h-16.22436q-1.24802 0-2.04222-.68074-.7942-.68075-.7942-1.92877v-4.19791l19.2877-1.36149 2.72296-40.39071q.11347-1.0211.7942-1.8153.7942-.79422 2.04224-.79422h5.10556v43.1137h35.51206v8.05544H584.398v76.5835q0 4.65175 1.13457 8.05545 1.24802 3.29026 3.29026 5.44595 2.15567 2.15569 4.9921 3.17679 2.83642 1.02112 6.12668 1.02112 4.08446 0 7.03435-1.13457 2.94988-1.24803 5.10556-2.60952 2.15568-1.47493 3.51717-2.6095 1.36148-1.24803 2.15568-1.24803.90766 0 1.81531 1.13457l2.94989 4.76519q-4.31138 4.7652-11.00533 7.71508-6.58052 2.83644-13.72832 2.83644zm68.52589-114.7051V1183.178H655.5334v-112.88977zm4.7652-38.91576q0 2.04223-.90767 3.85754-.7942 1.70186-2.15567 3.06335-1.3615 1.36148-3.1768 2.15567t-3.85754.7942q-2.04222 0-3.85754-.7942-1.81532-.7942-3.1768-2.15567-1.36148-1.3615-2.15568-3.06335-.7942-1.8153-.7942-3.85754 0-2.04222.7942-3.85754.7942-1.92877 2.15567-3.29026 1.3615-1.36147 3.17681-2.15567t3.85754-.7942q2.04222 0 3.85753.7942 1.81532.7942 3.1768 2.15567 1.36149 1.3615 2.15568 3.29026.90767 1.81532.90767 3.85754zm39.70717 151.80554v-112.88977h5.89977q2.94988 0 3.4037 2.83643l1.02113 17.01856q7.71507-9.75731 17.9262-15.65708 10.3246-6.01323 22.91833-6.01323 9.30347 0 16.33782 2.94989 7.1478 2.94989 11.79953 8.50928 4.65175 5.5594 7.03434 13.38793 2.3826 7.82854 2.3826 17.6993v72.15869h-10.77842v-72.15869q0-15.88398-7.26126-24.8471-7.26125-9.07656-22.23757-9.07656-11.1188 0-20.6492 5.78632-9.53038 5.67285-17.01855 15.65707v84.63896zm164.50925-114.81854q7.3747 0 13.61485 1.81532 6.3536 1.81531 11.3457 5.10556h28.93156v3.74408q0 2.83643-3.1768 3.06334l-17.13202 1.24804q3.1768 4.31136 4.87865 9.7573 1.70185 5.33249 1.70185 11.45916 0 8.16892-2.94988 14.86287-2.94987 6.58052-8.28237 11.3457-5.21901 4.65176-12.59373 7.26126-7.3747 2.60951-16.3378 2.60951-9.75732 0-17.69931-2.94987-4.7652 2.72296-7.48817 6.46705-2.72297 3.74408-2.72297 7.26125 0 4.87865 3.40372 7.48816 3.4037 2.60952 8.9631 3.85754 5.67286 1.13457 12.82065 1.47493 7.26125.34039 14.63595.79421 7.48817.34037 14.63597 1.3615 7.26125 1.0211 12.82065 3.63061 5.67285 2.49606 9.07656 7.1478 3.40371 4.53828 3.40371 12.1399 0 7.03434-3.51716 13.5014-3.51718 6.46704-10.21114 11.45916-6.58051 4.9921-15.99745 7.94198-9.41692 3.06334-21.103 3.06334-11.913 0-20.8761-2.49605-8.9631-2.3826-15.0898-6.58051-6.01321-4.08445-9.07656-9.53038-3.06334-5.44595-3.06334-11.57264 0-8.9631 5.89977-15.43014t16.22436-9.98423q-5.67285-1.92877-9.07656-5.55939-3.29026-3.63063-3.29026-10.09768 0-2.3826.90766-4.99212.90765-2.6095 2.72297-5.10556 1.81531-2.60952 4.31136-4.87866 2.60951-2.26914 6.01323-4.08445-8.05545-4.65172-12.59373-12.36681-4.42483-7.71509-4.42483-18.03969 0-8.1689 2.83643-14.7494 2.94987-6.69397 8.1689-11.45917 5.33248-4.7652 12.82065-7.3747 7.48817-2.60952 16.56473-2.60952zm41.86566 122.42016q0-5.33248-2.83644-8.50927-2.72296-3.29026-7.3747-5.10557-4.65175-1.81532-10.77842-2.49607-6.01323-.7942-12.70719-1.13457-6.58051-.34036-13.27448-.68073-6.69396-.34037-12.48028-1.36149-4.31136 1.70186-8.05544 3.971-3.63064 2.15568-6.24014 4.99211-2.60951 2.72297-4.08445 6.01323-1.47495 3.40371-1.47495 7.3747 0 4.99212 2.49605 9.19003 2.60952 4.31136 7.48817 7.3747 4.9921 3.1768 12.1399 4.99212 7.1478 1.8153 16.45128 1.8153 8.62274 0 15.99744-1.92876 7.48817-1.92877 12.9341-5.44594 5.5594-3.51717 8.62274-8.39583 3.1768-4.87865 3.1768-10.66496zm-41.86566-57.52272q7.26125 0 12.9341-2.04224 5.67285-2.15567 9.5304-5.89976 3.85754-3.74408 5.78631-8.9631 2.04222-5.21903 2.04222-11.57263 0-6.35358-2.04222-11.57261-2.04223-5.33248-6.01322-9.07657-3.85754-3.74408-9.5304-5.7863-5.5594-2.04224-12.70719-2.04224t-12.82065 2.04224q-5.67285 2.04222-9.64385 5.7863-3.85754 3.74409-5.89976 9.07657-2.04224 5.21903-2.04224 11.57262 0 6.35359 2.04224 11.57261 2.04222 5.21903 5.89976 8.96311 3.971 3.74409 9.64385 5.89976 5.67286 2.04224 12.82065 2.04224zm182.1872 51.73642q-11.45917 0-17.92622-6.3536-6.3536-6.35359-6.3536-19.62807v-77.1508h-16.22436q-1.24802 0-2.04222-.68074-.7942-.68075-.7942-1.92877v-4.19791l19.2877-1.36149 2.72297-40.39071q.11346-1.0211.7942-1.8153.7942-.79422 2.04223-.79422h5.10556v43.1137h35.51206v8.05544h-35.51206v76.5835q0 4.65175 1.13457 8.05545 1.24802 3.29026 3.29026 5.44595 2.15569 2.15569 4.9921 3.17679 2.83644 1.02112 6.12668 1.02112 4.08446 0 7.03435-1.13457 2.94988-1.24803 5.10556-2.60952 2.15568-1.47493 3.51717-2.6095 1.36148-1.24803 2.15568-1.24803.90766 0 1.81531 1.13457l2.94989 4.76519q-4.31136 4.7652-11.00533 7.71508-6.58052 2.83644-13.7283 2.83644zm54.57078-1.81532v-165.08001h10.77842v71.47795q7.82854-9.64386 17.81275-15.3167 10.09768-5.78633 22.57796-5.78633 9.30348 0 16.33781 2.94989 7.1478 2.94989 11.79953 8.50928 4.65175 5.5594 7.03434 13.38793 2.3826 7.82854 2.3826 17.6993v72.15869h-10.77842v-72.15869q0-15.88398-7.26124-24.8471-7.26127-9.07656-22.23759-9.07656-11.1188 0-20.64919 5.78632-9.53039 5.67285-17.01855 15.65707v84.63896zm169.84156-114.70509q9.5304 0 17.58585 3.29026 8.1689 3.29026 14.06868 9.64384 6.01322 6.24015 9.30347 15.43017 3.4037 9.19003 3.4037 21.10301 0 2.49606-.7942 3.40372-.68074.90766-2.26913.90766h-81.57562v2.15567q0 12.7072 2.94988 22.35105 2.94989 9.64384 8.39582 16.22436 5.44595 6.46705 13.16102 9.7573 7.71509 3.29027 17.24548 3.29027 8.50927 0 14.74941-1.81533 6.24013-1.92877 10.43806-4.19791 4.31136-2.3826 6.80742-4.19791 2.49605-1.92877 3.63062-1.92877 1.47494 0 2.26914 1.13457l2.94989 3.63063q-2.72297 3.40371-7.26125 6.35359-4.42483 2.94988-9.98423 5.10557-5.44593 2.04222-11.79953 3.29026-6.24013 1.24802-12.59373 1.24802-11.57263 0-21.10301-3.971-9.5304-4.08444-16.33782-11.79953-6.80742-7.71507-10.5515-18.83387-3.63063-11.23224-3.63063-25.6413 0-12.1399 3.4037-22.35104 3.51718-10.32458 9.98423-17.69929 6.5805-7.48816 15.99744-11.68607 9.5304-4.19793 21.55684-4.19793zm.11347 8.05545q-8.7362 0-15.65707 2.72298-6.92087 2.72297-12.02645 7.82854-4.9921 5.10556-8.16891 12.25336-3.06334 7.1478-4.08444 15.99744h74.42782q0-9.07657-2.49606-16.22436-2.49606-7.26125-7.03434-12.25336-4.53828-4.99212-10.89186-7.60162-6.3536-2.72297-14.06869-2.72297zm249.0132-53.8921v9.64386h-84.52553v67.50694h73.17982v9.64384h-73.17982v73.7471h-11.68597v-160.54173zm33.92177 47.65197v72.15869q0 15.88398 7.26132 24.96055 7.26118 8.9631 22.12408 8.9631 11.0053 0 20.53568-5.5594 9.5305-5.67284 17.13209-15.65706v-84.86588h10.89184V1183.178h-6.01319q-3.17679 0-3.29025-2.94989l-1.0212-16.79163q-7.82852 9.7573-18.15302 15.65706-10.21118 5.89978-22.80488 5.89978-9.41691 0-16.4513-2.94989-7.03437-2.94989-11.6861-8.50929-4.65172-5.55938-7.03438-13.38792-2.38253-7.82854-2.38253-17.6993v-72.1587zm150.1003 114.70509q-11.45918 0-17.92623-6.3536-6.35358-6.35359-6.35358-19.62807v-77.1508h-16.22436q-1.248 0-2.04226-.68074-.79413-.68075-.79413-1.92877v-4.19791l19.28768-1.36149 2.72293-40.39071q.11333-1.0211.79426-1.8153.79413-.79422 2.04226-.79422h5.10546v43.1137h35.51204v8.05544h-35.51204v76.5835q0 4.65175 1.13466 8.05545 1.248 3.29026 3.29026 5.44595 2.1556 2.15569 4.99212 3.17679 2.8364 1.02112 6.12665 1.02112 4.0844 0 7.03425-1.13457 2.95-1.24803 5.10559-2.60952 2.15573-1.47493 3.51719-2.6095 1.36146-1.24803 2.15573-1.24803.9076 0 1.81533 1.13457l2.94986 4.76519q-4.31133 4.7652-11.0053 7.71508-6.58053 2.83644-13.72838 2.83644zm62.6261-114.7051v72.1587q0 15.88398 7.26119 24.96055 7.26131 8.9631 22.1242 8.9631 11.00531 0 20.53569-5.5594 9.53038-5.67284 17.13196-15.65706v-84.86588h10.89197V1183.178h-6.01332q-3.17679 0-3.29012-2.94989l-1.0212-16.79163q-7.82851 9.7573-18.15316 15.65706-10.21104 5.89978-22.80487 5.89978-9.41691 0-16.45116-2.94989-7.03438-2.94989-11.6861-8.50929-4.65173-5.55938-7.03439-13.38792-2.38252-7.82854-2.38252-17.6993v-72.1587zM1896.9078 1183.178v-112.88977h5.67279q1.9288 0 2.72306.7942.9076.7942 1.02106 2.72298l.9076 23.82598q5.44599-13.72832 14.52263-21.44339 9.07651-7.82854 22.35101-7.82854 5.10559 0 9.41691 1.13457 4.31132 1.02112 8.16891 3.06334l-1.47492 7.48817q-.3404 1.81531-2.2692 1.81531-.68066 0-1.9288-.45382-1.248-.45383-3.17679-1.02112-1.81533-.56728-4.53825-1.02112-2.72293-.45382-6.24012-.45382-12.82063 0-21.10301 7.942-8.16892 7.94198-13.2745 22.91832v73.40671zm137.1666-114.70509q9.53037 0 17.58582 3.29026 8.16891 3.29026 14.06863 9.64384 6.01332 6.24015 9.30357 15.43017 3.40373 9.19003 3.40373 21.10301 0 2.49606-.79426 3.40372-.6808.90766-2.2692.90766h-81.57553v2.15567q0 12.7072 2.94986 22.35105 2.94986 9.64384 8.39585 16.22436 5.44585 6.46705 13.16103 9.7573 7.71505 3.29027 17.24542 3.29027 8.50932 0 14.74943-1.81533 6.24012-1.92877 10.43798-4.19791 4.31145-2.3826 6.80745-4.19791 2.49612-1.92877 3.63065-1.92877 1.47493 0 2.2692 1.13457l2.94986 3.63063q-2.72306 3.40371-7.26132 6.35359-4.42479 2.94988-9.98424 5.10557-5.44585 2.04222-11.79944 3.29026-6.24011 1.24802-12.59383 1.24802-11.5725 0-21.10288-3.971-9.53051-4.08444-16.33783-11.79953-6.80745-7.71507-10.55157-18.83387-3.63066-11.23224-3.63066-25.6413 0-12.1399 3.40373-22.35104 3.51719-10.32458 9.98424-17.69929 6.58051-7.48816 15.99742-11.68607 9.53038-4.19793 21.55688-4.19793zm.11333 8.05545q-8.73625 0-15.65716 2.72298-6.92079 2.72297-12.02637 7.82854-4.99212 5.10556-8.16892 12.25336-3.06332 7.1478-4.08452 15.99744h74.42795q0-9.07657-2.49613-16.22436-2.496-7.26125-7.03438-12.25336-4.53826-4.99212-10.89184-7.60162-6.35359-2.72297-14.06863-2.72297zm190.35632-8.05545q12.13984 0 21.67021 4.19793 9.64385 4.08444 16.22436 11.68606 6.58052 7.60163 9.98424 18.38005 3.5172 10.66496 3.5172 23.93943 0 13.27449-3.5172 23.93945-3.40372 10.66496-9.98424 18.26658-6.58051 7.60162-16.22436 11.68608-9.53037 4.08445-21.6702 4.08445-12.13998 0-21.78382-4.08445-9.53038-4.08446-16.22436-11.68608-6.58052-7.60162-10.0977-18.26658-3.40373-10.66496-3.40373-23.93945 0-13.27447 3.40372-23.93943 3.5172-10.77842 10.0977-18.38005 6.694-7.60162 16.22437-11.68606 9.64384-4.19793 21.78381-4.19793zm0 107.67075q10.09758 0 17.58582-3.40371 7.60158-3.51717 12.5937-9.98422 5.1056-6.46705 7.60159-15.54361 2.49612-9.19003 2.49612-20.53574 0-11.23224-2.49612-20.42227-2.496-9.19001-7.60158-15.65707-4.99213-6.58051-12.5937-10.09768-7.48825-3.51716-17.58583-3.51716-10.0977 0-17.69929 3.51716-7.48825 3.51718-12.59383 10.09768-4.99212 6.46706-7.60158 15.65707-2.496 9.19003-2.496 20.42228 0 11.34571 2.496 20.53573 2.60946 9.07656 7.60158 15.54361 5.10558 6.46705 12.59383 9.98422 7.60158 3.40372 17.6993 3.40372zm88.49285 7.03434v-101.09023l-15.88396-1.02111q-3.29026-.22692-3.29026-2.83644v-4.42481h19.17422v-14.2956q0-9.64384 2.49612-16.9051 2.496-7.37471 7.03439-12.25335 4.53825-4.87866 10.89184-7.26127 6.46705-2.49604 14.1821-2.49604 3.51718 0 7.03438.68074 3.63065.56728 6.35358 1.70185l-.3404 5.21903q-.11333 1.5884-2.15573 1.5884-1.36146 0-3.74399-.34038-2.2692-.34037-5.67292-.34037-5.55932 0-10.3245 1.70186-4.65186 1.5884-8.05545 5.21903-3.40373 3.63062-5.33252 9.53039-1.81533 5.7863-1.81533 14.29559v13.95522h36.64658v8.05544h-36.41965V1183.178zm265.01213-27.00277q1.13453 0 1.9288.7942l4.53825 4.87865q-4.99212 5.33248-10.89197 9.64384-5.89972 4.19791-12.9341 7.26125-6.92078 2.94989-15.31663 4.53828-8.28238 1.70187-18.26662 1.70187-16.67822 0-30.63339-5.78632-13.8417-5.89976-23.82594-16.56472-9.87077-10.77843-15.43023-25.98167-5.55932-15.20324-5.55932-33.8102 0-18.26659 5.67279-33.35638 5.78638-15.08979 16.1109-25.8682 10.4381-10.89188 24.84713-16.79165 14.5225-6.01323 31.99485-6.01323 8.73625 0 15.99743 1.3615 7.26132 1.24802 13.50143 3.74408 6.35359 2.3826 11.91304 6.01322 5.55932 3.63062 10.89184 8.39582l-3.5172 5.10557q-.90759 1.36148-2.83638 1.36148-1.0212 0-2.6096-1.13457-1.5884-1.24802-4.08439-2.94989-2.38266-1.8153-5.89972-3.85753-3.40372-2.15569-8.16891-3.85754-4.76519-1.81532-11.00544-2.94989-6.24012-1.24802-14.1821-1.24802-14.63596 0-26.88926 5.10556-12.25344 4.99212-21.10302 14.40905-8.8497 9.30348-13.84183 22.6914-4.87865 13.2745-4.87865 29.83921 0 17.01856 4.87865 30.4065 4.87866 13.38792 13.50143 22.6914 8.62278 9.19003 20.30875 14.18213 11.79957 4.87866 25.52794 4.87866 8.62264 0 15.31663-1.13457 6.80745-1.13457 12.48037-3.40371 5.67278-2.26915 10.55144-5.5594 4.87865-3.29025 9.64384-7.71508.56733-.45382 1.02106-.68074.56734-.34038 1.24813-.34038zm85.09046-87.70232q12.13983 0 21.67021 4.19793 9.64384 4.08444 16.22436 11.68606 6.58052 7.60163 9.98424 18.38005 3.5172 10.66496 3.5172 23.93943 0 13.27449-3.5172 23.93945-3.40372 10.66496-9.98424 18.26658-6.58052 7.60162-16.22436 11.68608-9.53038 4.08445-21.67021 4.08445-12.13997 0-21.78381-4.08445-9.53038-4.08446-16.22436-11.68608-6.58052-7.60162-10.09771-18.26658-3.40373-10.66496-3.40373-23.93945 0-13.27447 3.40373-23.93943 3.51719-10.77842 10.0977-18.38005 6.69399-7.60162 16.22437-11.68606 9.64384-4.19793 21.7838-4.19793zm0 107.67075q10.09757 0 17.58582-3.40371 7.60158-3.51717 12.5937-9.98422 5.10559-6.46705 7.60158-15.54361 2.49613-9.19003 2.49613-20.53574 0-11.23224-2.49613-20.42227-2.49599-9.19001-7.60158-15.65707-4.99212-6.58051-12.5937-10.09768-7.48825-3.51716-17.58582-3.51716-10.09771 0-17.69942 3.51716-7.48812 3.51718-12.5937 10.09768-4.99213 6.46706-7.60159 15.65707-2.49612 9.19003-2.49612 20.42228 0 11.34571 2.49612 20.53573 2.60946 9.07656 7.60158 15.54361 5.1056 6.46705 12.5937 9.98422 7.60172 3.40372 17.69943 3.40372zm84.29485 7.03434v-112.88977h5.89972q2.94986 0 3.40373 2.83643l1.02106 17.01856q7.71518-9.75731 17.92622-15.65708 10.32464-6.01323 22.91835-6.01323 9.30344 0 16.33782 2.94989 7.14785 2.94989 11.79957 8.50928 4.65172 5.5594 7.03425 13.38793 2.38266 7.82854 2.38266 17.6993v72.15869h-10.77837v-72.15869q0-15.88398-7.26132-24.8471-7.26118-9.07656-22.23754-9.07656-11.11877 0-20.64915 5.78632-9.5305 5.67285-17.01862 15.65707v84.63896zm127.29555 0v-112.88977h5.89972q2.94986 0 3.40373 2.83643l1.0212 17.01856q7.71504-9.75731 17.92608-15.65708 10.32464-6.01323 22.91834-6.01323 9.30358 0 16.33783 2.94989 7.14785 2.94989 11.79957 8.50928 4.65172 5.5594 7.03438 13.38793 2.38253 7.82854 2.38253 17.6993v72.15869h-10.77837v-72.15869q0-15.88398-7.26132-24.8471-7.26118-9.07656-22.23754-9.07656-11.11877 0-20.64915 5.78632-9.53038 5.67285-17.01862 15.65707v84.63896zm169.84131-114.70509q9.53038 0 17.58582 3.29026 8.16892 3.29026 14.06877 9.64384 6.01318 6.24015 9.30344 15.43017 3.40373 9.19003 3.40373 21.10301 0 2.49606-.79427 3.40372-.68066.90766-2.26906.90766h-81.57566v2.15567q0 12.7072 2.94986 22.35105 2.94986 9.64384 8.39584 16.22436 5.44599 6.46705 13.16104 9.7573 7.71504 3.29027 17.24542 3.29027 8.50931 0 14.74943-1.81533 6.24012-1.92877 10.4381-4.19791 4.31133-2.3826 6.80732-4.19791 2.49613-1.92877 3.63066-1.92877 1.47493 0 2.2692 1.13457l2.94986 3.63063q-2.72293 3.40371-7.26132 6.35359-4.42479 2.94988-9.9841 5.10557-5.446 2.04222-11.79958 3.29026-6.24012 1.24802-12.5937 1.24802-11.57264 0-21.10301-3.971-9.53038-4.08444-16.33783-11.79953-6.80745-7.71507-10.55157-18.83387-3.63066-11.23224-3.63066-25.6413 0-12.1399 3.40372-22.35104 3.5172-10.32458 9.98424-17.69929 6.58052-7.48816 15.99743-11.68607 9.53038-4.19793 21.55688-4.19793zm.11333 8.05545q-8.73624 0-15.65702 2.72298-6.92092 2.72297-12.0265 7.82854-4.99213 5.10556-8.16892 12.25336-3.06333 7.1478-4.08439 15.99744h74.42781q0-9.07657-2.49612-16.22436-2.496-7.26125-7.03425-12.25336-4.53839-4.99212-10.89197-7.60162-6.35359-2.72297-14.06864-2.72297zm152.14269 8.84966q-.56733.56729-1.13466 1.02112-.45374.34037-1.36147.34037-1.13453 0-3.17679-1.47495-1.9288-1.5884-5.21905-3.40372-3.29026-1.8153-8.28238-3.29025-4.87866-1.5884-11.9129-1.5884-9.75731 0-17.35903 3.51717-7.48811 3.40373-12.70717 9.87078-5.10558 6.46705-7.82851 15.65707-2.72293 9.19001-2.72293 20.64918 0 11.91299 2.72293 21.10302 2.8364 9.19002 7.94198 15.54361 5.10559 6.24013 12.3669 9.53038 7.26118 3.29026 16.1109 3.29026 8.1689 0 13.61476-1.92877 5.55945-1.92877 9.07665-4.19791 3.63052-2.26914 5.67278-4.19791 2.15573-1.92877 3.40373-1.92877 1.47493 0 2.26919 1.13457l2.94986 3.63063q-2.6096 3.40371-6.58052 6.35359-3.97105 2.94988-8.96318 5.10557-4.99212 2.15569-10.89183 3.29026-5.78626 1.24802-12.13984 1.24802-10.7785 0-19.74155-3.85753-8.84971-3.971-15.31676-11.3457-6.35359-7.48818-9.98424-18.2666-3.51706-10.77842-3.51706-24.50672 0-12.9341 3.40359-23.59907 3.40372-10.66496 9.87077-18.38005 6.58052-7.71507 15.99756-11.91298 9.53038-4.31136 21.78368-4.31136 11.0053 0 19.51462 3.51716 8.62278 3.51717 14.97636 9.5304zm64.3265 99.6153q-11.45917 0-17.92622-6.3536-6.35358-6.35359-6.35358-19.62807v-77.1508h-16.22436q-1.248 0-2.04213-.68074-.79426-.68075-.79426-1.92877v-4.19791l19.28768-1.36149 2.72293-40.39071q.11333-1.0211.79426-1.8153.79414-.79422 2.04227-.79422h5.10558v43.1137h35.51205v8.05544h-35.51205v76.5835q0 4.65175 1.13453 8.05545 1.248 3.29026 3.29026 5.44595 2.1556 2.15569 4.99212 3.17679 2.8364 1.02112 6.12665 1.02112 4.0844 0 7.03439-1.13457 2.94986-1.24803 5.10545-2.60952 2.15573-1.47493 3.5172-2.6095 1.36145-1.24803 2.15572-1.24803.9076 0 1.81533 1.13457l2.94986 4.76519q-4.31132 4.7652-11.0053 7.71508-6.58052 2.83644-13.72837 2.83644zm68.52637-114.7051V1183.178h-10.77837v-112.88977zm4.76519-38.91576q0 2.04223-.9076 3.85754-.79427 1.70186-2.15573 3.06335-1.36146 1.36148-3.1768 2.15567-1.81532.7942-3.85758.7942-2.04213 0-3.85746-.7942t-3.1768-2.15567q-1.36159-1.3615-2.15572-3.06335-.79426-1.8153-.79426-3.85754 0-2.04222.79426-3.85754.79413-1.92877 2.15573-3.29026 1.36146-1.36147 3.1768-2.15567 1.81532-.7942 3.85745-.7942 2.04226 0 3.85759.7942 1.81533.7942 3.1768 2.15567 1.36145 1.3615 2.15572 3.29026.9076 1.81532.9076 3.85754zm81.34566 151.80554h-9.53051l-47.65188-112.88977h8.50931q1.5884 0 2.496.90766 1.02106.7942 1.47492 1.81532l37.21391 89.06378q1.13453 2.60951 1.70186 4.99212.56734 2.3826 1.13453 4.76519l1.13467-4.7652q.68066-2.49605 1.70186-4.99211l37.44084-89.06378q.5672-1.24804 1.47493-1.92878 1.02106-.7942 2.38253-.7942h8.16891zm87.36165-112.88977V1183.178h-10.77838v-112.88977zm4.76519-38.91577q0 2.04223-.9076 3.85754-.79427 1.70186-2.15573 3.06335-1.36146 1.36148-3.1768 2.15567-1.81532.7942-3.85745.7942-2.04226 0-3.85759-.7942-1.81533-.7942-3.1768-2.15567-1.36145-1.3615-2.15572-3.06335-.79413-1.8153-.79413-3.85754 0-2.04222.79413-3.85754.79427-1.92877 2.15573-3.29026 1.36146-1.36147 3.1768-2.15567 1.81532-.7942 3.85758-.7942 2.04213 0 3.85746.7942t3.17679 2.15567q1.36146 1.3615 2.15573 3.29026.9076 1.81532.9076 3.85754zm70.56729 153.62086q-11.45918 0-17.92623-6.3536-6.35371-6.35359-6.35371-19.62807v-77.1508h-16.22436q-1.248 0-2.04213-.68074-.79427-.68075-.79427-1.92877v-4.19791l19.28769-1.36149 2.72306-40.39071q.11333-1.0211.79413-1.8153.79427-.79422 2.04226-.79422h5.10559v43.1137h35.51204v8.05544h-35.51204v76.5835q0 4.65175 1.13453 8.05545 1.248 3.29026 3.29026 5.44595 2.15573 2.15569 4.99212 3.17679 2.8364 1.02112 6.12665 1.02112 4.08452 0 7.03438-1.13457 2.94986-1.24803 5.1056-2.60952 2.15559-1.47493 3.51718-2.6095 1.36147-1.24803 2.1556-1.24803.90773 0 1.81533 1.13457l2.94985 4.76519q-4.31132 4.7652-11.0053 7.71508-6.58052 2.83644-13.72823 2.83644zm79.19086 34.49094q-.68066 1.5884-1.81532 2.6095-1.02107 1.02113-3.06333 1.02113h-7.71505l19.85502-44.1348-47.76548-108.69186h8.96318q1.70186 0 2.60946.90766 1.02106.7942 1.47493 1.81532l38.00817 87.81575q.68066 1.70186 1.13453 3.51717.56733 1.70186 1.02106 3.51717.56734-1.81532 1.13467-3.51717.68066-1.81532 1.36146-3.51717l37.5543-87.81576q.5672-1.24803 1.5884-1.92877 1.02107-.7942 2.26906-.7942h8.28238z" fill="#5a5758"/></svg>