<svg xmlns="http://www.w3.org/2000/svg" role="img" viewBox="-4.38 67.87 409.76 109.51"><title>University of New Hampshire - Interoperability Lab logo</title><defs><style>.cls-4{fill:#003594}.cls-5{fill:#757c83}</style><clipPath id="clip-path"><path fill="none" d="M3.519 75.716h394.418v94.528H3.519z"/></clipPath></defs><g clip-path="url(#clip-path)"><path fill="#91afe5" d="M150.628 105.87c.978 8.01-2.072 15.53-5.597 21.057-7.228 11.345-18.213 19.566-30.079 26.212a132.013 132.013 0 0 1-47.748 15.515 137.736 137.736 0 0 1-19.08.97 72.85 72.85 0 0 1-12.557-1.506c-11.697-2.196-21.594-6.675-27.55-14.686a23.915 23.915 0 0 1-4.233-9.727 21.674 21.674 0 0 1-.291-5.494c.4-9.664 5.948-17.58 11.146-23.49a89.983 89.983 0 0 1 14.94-13.176c.705.416.11 1.558-.195 1.993a72.17 72.17 0 0 0-13.53 12.01c-3.84 4.506-7.514 9.787-8.81 16.682a20.068 20.068 0 0 0 5.988 18.722c8.605 7.903 22.96 11.856 39.765 11.185a132.066 132.066 0 0 0 22.68-2.82 127.61 127.61 0 0 0 36.944-14.054c10.535-6.096 20.542-13.784 26.674-24.365a30.296 30.296 0 0 0 3.6-9.144 21.762 21.762 0 0 0-.633-11.136c-2.116-6.054-6.871-10.12-12.46-13.032a57.413 57.413 0 0 0-19.906-5.592c-16.195-1.842-32.3 1.032-45.024 4.814-3.263.97-6.428 2.069-9.54 3.209-3.113 1.142-6.185 2.5-9.052 3.843a21.344 21.344 0 0 1 2.385-2.918C61.69 85.357 75.829 80.78 93.293 79.416c18.66-1.458 35.472 1.825 46.237 9.388 5.366 3.767 10.134 9.163 11.098 17.066"/></g><path d="M109.938 143.949v1.507a168.232 168.232 0 0 0-17.037 0v-1.507c1.923-.144 3.902-.425 4.724-1.752.628-1.015.582-2.988.582-4.96.003-9.165 0-18.404 0-27.525 0-3.434.362-7.915-.778-10.212-.75-1.514-2.896-1.803-4.916-1.895v-1.508c3.984-.818 8.005-1.599 11.973-2.433h.098v36.766c0 1.93-.042 4.107.049 6.079.095 2.074-.199 4.204.535 5.542.754 1.374 2.816 1.798 4.77 1.898m-40.058.582c7.859-.097 10.471-7.399 10.27-15.754-.195-8.19-2.82-15.115-11.097-15.029-7.886.084-10.491 7.886-10.27 15.855.237 8.532 3.21 15.028 11.097 14.928M87.645 128a16.09 16.09 0 0 1-4.72 12.837 18.097 18.097 0 0 1-12.265 5.349 18.75 18.75 0 0 1-13.29-4.278 16.77 16.77 0 0 1-6.083-11.526 15.528 15.528 0 0 1 4.721-12.84 19.043 19.043 0 0 1 25.603-1.117A15.954 15.954 0 0 1 87.645 128" class="cls-4"/><path d="M44.326 98.771a6.331 6.331 0 0 0-2.287-5.3 7.86 7.86 0 0 0-5.792-1.85 7.375 7.375 0 0 0-4.819 2.043 5.97 5.97 0 0 0-2.14 4.62c.022 4.318 4.2 6.964 8.275 6.566 3.28-.321 6.49-2.437 6.763-6.079m8.713-12.303c-1.096 1.281-3.314 2.881-4.574 4.474a21.344 21.344 0 0 0-2.385 2.918c-.07.12-.218.3-.768 1.08a3.534 3.534 0 0 0-.692 1.691c.149.716 1.925.863 2.774.974 1.235.16 2.316.17 3.407.29-1.125.25-2.319.414-3.505.73-.945.254-2.5.589-2.627 1.558-.115.878.878 1.844 1.411 2.431 1.744 1.917 4.246 3.938 5.743 5.542a64.708 64.708 0 0 0-6.912-3.598c-.778-.327-2.793-1.398-3.31-.29a7.788 7.788 0 0 0-.098 2.964 73.004 73.004 0 0 0 1.317 8.17c-.695-1.057-1.223-2.28-1.948-3.305.008-.041-.02-.046-.049-.049-.738-1.267-1.362-2.465-2.238-3.744-.582-.852-1.898-2.928-3.116-2.87-1.257.059-1.928 2.517-2.385 3.598a29.464 29.464 0 0 0-1.411 4.523c.127-2.246.612-4.914.536-7.683-.023-.803-.023-1.991-.585-2.14-.77-.203-1.61.567-2.045.875-.64.456-1.1.859-1.702 1.216a15.712 15.712 0 0 0 1.51-2.287c.302-.433.896-1.575.192-1.993-2.26-.365-5.694.127-8.128.437-2.55.328-5.029.644-7.35.876 3.593-.868 7.67-1.82 11.44-2.87.795-.222 3.19-.66 3.211-1.506.02-.731-1.778-1.61-2.335-1.947-.976-.587-1.845-.97-2.774-1.457 1.147-.153 5.212 1.41 5.596-.243.183-.788-.494-1.96-.827-2.627-1.135-2.272-2.739-4.503-3.943-6.418 1.177.897 2.405 2.093 3.797 3.21 1.178.945 2.879 2.362 4.478 2.577 2.025.269 2.173-2.11 2.483-3.647a82.566 82.566 0 0 0 1.363-12.11 93.283 93.283 0 0 0 1.849 12.546c.295 1.247.635 3.346 2.042 3.453 1.089.083 2.5-.736 3.408-1.069a50.795 50.795 0 0 0 9.15-4.28" class="cls-5"/><path d="M46.178 143.949v1.507a165.766 165.766 0 0 0-16.939 0v-1.507a8.074 8.074 0 0 0 3.943-1.022c1.505-1.15 1.265-4.12 1.265-6.906v-12.79c0-1.646.188-4.94-.389-6.03-.756-1.418-3.055-1.59-5.159-1.408v-1.51c3.973-.745 7.942-1.498 11.924-2.235.03.003.057.008.05.049v22.516c0 2.444-.328 5.386.389 7.098.719 1.722 2.856 2.128 4.916 2.238m-9.784-48.873c4.713-.585 4.572 6.244.486 6.273a3.088 3.088 0 0 1-3.162-3.163 3.038 3.038 0 0 1 2.676-3.11" class="cls-4"/><path d="M123.398 152.167a2.119 2.119 0 0 1 1.018.265 1.853 1.853 0 0 1 .773.773 2.081 2.081 0 0 1 .284 1.037 2.143 2.143 0 0 1-.274 1.037 1.917 1.917 0 0 1-.773.763 2.072 2.072 0 0 1-1.028.274 2.115 2.115 0 0 1-1.037-.274 1.91 1.91 0 0 1-.763-.763 2.102 2.102 0 0 1 0-2.074 1.908 1.908 0 0 1 .783-.773 2.152 2.152 0 0 1 1.017-.264zm0 .343a1.756 1.756 0 0 0-.85.225 1.641 1.641 0 0 0-.646.646 1.714 1.714 0 0 0-.235.861 1.75 1.75 0 0 0 .225.861 1.71 1.71 0 0 0 .645.646 1.761 1.761 0 0 0 1.722 0 1.646 1.646 0 0 0 .636-.646 1.696 1.696 0 0 0 0-1.722 1.58 1.58 0 0 0-.645-.646 1.756 1.756 0 0 0-.852-.225zm-.91 2.877v-2.231h.774a1.753 1.753 0 0 1 .567.068.509.509 0 0 1 .274.216.535.535 0 0 1 .107.322.603.603 0 0 1-.176.431.69.69 0 0 1-.46.196.642.642 0 0 1 .187.117 2.929 2.929 0 0 1 .332.45l.274.43h-.44l-.196-.352a1.846 1.846 0 0 0-.382-.518.455.455 0 0 0-.283-.079h-.216v.95zm.362-1.253h.441a.706.706 0 0 0 .42-.088.312.312 0 0 0 .118-.254.292.292 0 0 0-.059-.176.324.324 0 0 0-.146-.118 1.177 1.177 0 0 0-.362-.039h-.412z" class="cls-5"/><path d="M175.724 83.74v.994h-1.61v5.62a8.8 8.8 0 0 0 .09 1.248 2.417 2.417 0 0 0 .497 1.125 1.943 1.943 0 0 0 .886.678 3.273 3.273 0 0 0 1.113.195 2.814 2.814 0 0 0 1.277-.3 2.198 2.198 0 0 0 .946-.918 2.89 2.89 0 0 0 .377-1.186c.039-.401.061-.822.061-1.262v-5.2h-1.58v-.994h4.075v.994h-1.338v5.516c0 .42-.015.809-.047 1.171a3.36 3.36 0 0 1-.3 1.11 3.775 3.775 0 0 1-.27.483 3.964 3.964 0 0 1-.376.467 4.242 4.242 0 0 1-.421.42 2.408 2.408 0 0 1-.435.284 4.135 4.135 0 0 1-1.008.362 4.565 4.565 0 0 1-2.706-.196 3.286 3.286 0 0 1-1.352-1.007 3.442 3.442 0 0 1-.45-.69 3.382 3.382 0 0 1-.24-.722 6.083 6.083 0 0 1-.105-.768 21.58 21.58 0 0 1-.015-.827v-5.603h-1.323v-.994h4.254m9.798 4.33a2.444 2.444 0 0 1 .857-1.247 2.982 2.982 0 0 1 3.005 0 2.277 2.277 0 0 1 .886 1.247 2.984 2.984 0 0 1 .047.51c.01.16.014.326.014.496v4.478h1.23v.947h-3.68v-.947h1.232v-4.058a4.791 4.791 0 0 0-.061-.78 2.059 2.059 0 0 0-.225-.692 1.253 1.253 0 0 0-.465-.48 1.547 1.547 0 0 0-.797-.181 3.09 3.09 0 0 0-.57.044 1.252 1.252 0 0 0-.497.228 1.757 1.757 0 0 0-.405.345 2.507 2.507 0 0 0-.255.42 2.6 2.6 0 0 0-.286.99c-.02.343-.03.683-.03 1.023v3.141h1.23v.947h-3.756v-.947h1.308v-6.01h-1.277v-.888h2.495v1.414m10.995 6.43h-3.698v-.946h1.264v-6.01h-1.247v-.888h2.463v6.898h1.218v.947m-1.127-10.76v1.262h-1.397V83.74h1.397m2.108 2.916h3.336v.888h-1.247l1.832 5.919h.105l1.864-5.919h-1.248v-.888h3.261v.888h-.795l-2.375 6.957h-1.548l-2.405-6.957h-.78v-.888m16.455 4.164h-5.786a5.85 5.85 0 0 0 .164 1.112 2.41 2.41 0 0 0 .526.99 1.917 1.917 0 0 0 .813.632 3.573 3.573 0 0 0 1.052.137 2.003 2.003 0 0 0 .692-.123 2.51 2.51 0 0 0 .601-.344 2.084 2.084 0 0 0 .45-.526 1.664 1.664 0 0 0 .225-.646h1.157a3.043 3.043 0 0 1-.406 1.113 3.01 3.01 0 0 1-.736.81 3.234 3.234 0 0 1-1.008.481 4.521 4.521 0 0 1-1.186.15 4.136 4.136 0 0 1-1.654-.301 2.87 2.87 0 0 1-1.11-.842 3.581 3.581 0 0 1-.649-1.277 6.355 6.355 0 0 1-.192-1.621 5.966 5.966 0 0 1 .134-1.262 4.128 4.128 0 0 1 .45-1.204 3.083 3.083 0 0 1 1.277-1.247 3.738 3.738 0 0 1 2.9-.255 2.715 2.715 0 0 1 1.009.512 2.87 2.87 0 0 1 .721.885 3.659 3.659 0 0 1 .39 1.052 6.947 6.947 0 0 1 .121.783 6.175 6.175 0 0 1 .045.78v.21m-1.292-.903a3.278 3.278 0 0 0-.137-.929 2.518 2.518 0 0 0-.404-.826 2.022 2.022 0 0 0-.677-.602 1.726 1.726 0 0 0-.932-.24 1.995 1.995 0 0 0-.962.225 2.202 2.202 0 0 0-.692.6 2.864 2.864 0 0 0-.45.826 3.83 3.83 0 0 0-.18.946h4.434m5.273-1.697a5.836 5.836 0 0 1 .362-.827 1.544 1.544 0 0 1 .465-.51 1.63 1.63 0 0 1 .631-.27 3.913 3.913 0 0 1 .918-.09h.315v1.127a2.076 2.076 0 0 0-.257-.046 2.263 2.263 0 0 0-.254-.015 2.088 2.088 0 0 0-1.098.257 1.855 1.855 0 0 0-.66.675 2.764 2.764 0 0 0-.33.947 6.544 6.544 0 0 0-.091 1.098v2.989h1.487v.947h-3.953v-.947h1.248v-6.01h-1.248v-.888h2.466v1.563m9.047.961a2.678 2.678 0 0 0-.242-1.051 1.323 1.323 0 0 0-.856-.66 1.914 1.914 0 0 0-.374-.091 1.792 1.792 0 0 0-.391-.045 2.143 2.143 0 0 0-.632.091 1.613 1.613 0 0 0-.54.24 1.17 1.17 0 0 0-.363.435 1.398 1.398 0 0 0-.134.632 1.242 1.242 0 0 0 .076.39.712.712 0 0 0 .24.316 1.944 1.944 0 0 0 .706.287c.26.048.517.1.766.149.35.061.693.134 1.023.224a3.037 3.037 0 0 1 .885.362 1.815 1.815 0 0 1 .631.647 1.916 1.916 0 0 1 .243 1.022 5.658 5.658 0 0 1-.032.584 1.024 1.024 0 0 1-.179.54 3.683 3.683 0 0 1-.917.965 2.463 2.463 0 0 1-1.443.389 3.886 3.886 0 0 1-.798-.074 2.147 2.147 0 0 1-.63-.21 2.205 2.205 0 0 1-.495-.42 4.029 4.029 0 0 1-.452-.65v1.249h-.947v-2.706h.947a4.22 4.22 0 0 0 .21.783 1.46 1.46 0 0 0 .511.675 2.131 2.131 0 0 0 .646.347 2.805 2.805 0 0 0 .722.091 1.789 1.789 0 0 0 1.127-.363 1.29 1.29 0 0 0 .467-1.066 1.016 1.016 0 0 0-.196-.66 1.187 1.187 0 0 0-.496-.362 2.606 2.606 0 0 0-.66-.164 16.73 16.73 0 0 0-.663-.105 9.354 9.354 0 0 1-.961-.196 2.78 2.78 0 0 1-.798-.376 2.018 2.018 0 0 1-.555-.632 2.222 2.222 0 0 1-.196-.993 4.31 4.31 0 0 1 .061-.704 1.195 1.195 0 0 1 .287-.631 2.954 2.954 0 0 1 1.08-.783 3.442 3.442 0 0 1 1.309-.24 2.794 2.794 0 0 1 1.14.24 1.83 1.83 0 0 1 .873.783v-.783h.947v2.524h-.947m6.588 5.32h-3.699v-.946h1.265v-6.01h-1.248v-.888h2.463v6.898h1.219v.947m-1.128-10.76v1.262h-1.397V83.74h1.397m4.556 2.916h2.256v.888h-2.255v5.078a2.634 2.634 0 0 0 .029.392 1.17 1.17 0 0 0 .12.344.86.86 0 0 0 .242.257.773.773 0 0 0 .391.09.611.611 0 0 0 .45-.166.932.932 0 0 0 .225-.435 2.348 2.348 0 0 0 .091-.526c.01-.181.014-.34.014-.482h.977v.286c0 .09-.005.186-.015.287a3.04 3.04 0 0 1-.255 1.066 1.448 1.448 0 0 1-.782.736c-.14.03-.274.061-.406.09a1.82 1.82 0 0 1-.404.045 2.178 2.178 0 0 1-.376-.03 5.83 5.83 0 0 0-.362-.058 1.17 1.17 0 0 1-.631-.348 1.925 1.925 0 0 1-.39-.616 1.393 1.393 0 0 1-.075-.301 5.152 5.152 0 0 1-.061-.78v-4.93h-1.353v-.887h1.353v-1.531l1.217-.453v1.984m6.982 0v.888h-1.218l1.925 5.498 1.86-5.498h-1.23v-.888h3.214v.888h-.689l-2.585 7.033c-.081.2-.162.39-.24.572a9.624 9.624 0 0 1-.243.584 3.657 3.657 0 0 1-.33.587 1.398 1.398 0 0 1-.48.465 1.851 1.851 0 0 1-.586.242 2.305 2.305 0 0 1-.616.088 2.69 2.69 0 0 1-.482-.044l-.465-.061v-.99a3.658 3.658 0 0 0 .902.104.81.81 0 0 0 .512-.166 1.278 1.278 0 0 0 .36-.406 2.201 2.201 0 0 0 .24-.526c.07-.188.131-.36.18-.508l-2.63-6.974h-.75v-.888h3.35m11.778 3.833a7.892 7.892 0 0 0 .088 1.143 2.357 2.357 0 0 0 .453 1.05 2.605 2.605 0 0 0 .78.737 2.02 2.02 0 0 0 1.037.272 1.983 1.983 0 0 0 1.098-.347 2.232 2.232 0 0 0 .78-.842 3.108 3.108 0 0 0 .346-.99 6.428 6.428 0 0 0 .09-1.07 5.625 5.625 0 0 0-.105-1.095 2.875 2.875 0 0 0-.374-.993 2.072 2.072 0 0 0-.722-.72 1.99 1.99 0 0 0-1.113-.285 2.086 2.086 0 0 0-1.128.3 2.471 2.471 0 0 0-.794.81 2.845 2.845 0 0 0-.348.993 6.654 6.654 0 0 0-.088 1.037m-1.294-.015a5.643 5.643 0 0 1 .21-1.548 3.387 3.387 0 0 1 .766-1.367 3.154 3.154 0 0 1 1.233-.857 4.098 4.098 0 0 1 1.519-.286 3.583 3.583 0 0 1 1.592.33 3.069 3.069 0 0 1 1.113.903 3.676 3.676 0 0 1 .646 1.306 5.882 5.882 0 0 1 .21 1.578 5.32 5.32 0 0 1-.225 1.563 3.685 3.685 0 0 1-.692 1.294 3.283 3.283 0 0 1-1.128.885 3.549 3.549 0 0 1-1.578.331 4.258 4.258 0 0 1-1.591-.284 2.994 2.994 0 0 1-1.219-1.037 4.719 4.719 0 0 1-.66-1.338 5.395 5.395 0 0 1-.196-1.473m8.627 4.026v-.946h1.321v-5.995h-1.382v-.903h1.382v-.99a2.915 2.915 0 0 1 .047-.541 2.193 2.193 0 0 1 .178-.511 1.563 1.563 0 0 1 .362-.482 1.762 1.762 0 0 1 .856-.497 3.932 3.932 0 0 1 .993-.12 5.87 5.87 0 0 1 1.23.135v1.022c-.188-.03-.373-.054-.555-.076a3.433 3.433 0 0 0-.555-.043 2.106 2.106 0 0 0-.646.105.849.849 0 0 0-.496.376 1.338 1.338 0 0 0-.181.66c-.01.25-.015.478-.015.676v.286h1.668v.903h-1.668v5.995h1.487v.947h-4.026m10.308 0v-.991h1.519v-8.776h-1.519v-.994h3.456l4.75 9.364v-8.37h-1.502v-.994h4.146v.994h-1.472v9.767h-1.817l-4.9-9.633v8.642h1.548v.991h-4.209m19.562-3.681h-5.786a5.958 5.958 0 0 0 .166 1.112 2.402 2.402 0 0 0 .526.99 1.913 1.913 0 0 0 .812.632 3.569 3.569 0 0 0 1.052.137 2.014 2.014 0 0 0 .692-.123 2.458 2.458 0 0 0 .6-.344 2.079 2.079 0 0 0 .452-.526 1.695 1.695 0 0 0 .225-.646h1.157a3.054 3.054 0 0 1-.406 1.113 3.001 3.001 0 0 1-.737.81 3.238 3.238 0 0 1-1.007.481 4.523 4.523 0 0 1-1.187.15 4.127 4.127 0 0 1-1.653-.301 2.905 2.905 0 0 1-1.113-.842 3.617 3.617 0 0 1-.646-1.277 6.35 6.35 0 0 1-.195-1.621 6.01 6.01 0 0 1 .136-1.262 4.147 4.147 0 0 1 .45-1.204 3.08 3.08 0 0 1 1.277-1.247 3.738 3.738 0 0 1 2.901-.255 2.708 2.708 0 0 1 1.008.512 2.88 2.88 0 0 1 .722.885 3.658 3.658 0 0 1 .389 1.052 6.376 6.376 0 0 1 .12.783 5.722 5.722 0 0 1 .046.78v.21m-1.294-.903a3.275 3.275 0 0 0-.135-.929 2.522 2.522 0 0 0-.405-.826 2.013 2.013 0 0 0-.675-.602 1.738 1.738 0 0 0-.933-.24 1.981 1.981 0 0 0-.96.225 2.196 2.196 0 0 0-.693.6 2.864 2.864 0 0 0-.45.826 3.83 3.83 0 0 0-.181.946h4.432m2.571-3.26h3.502v.888h-1.308l1.502 5.846h.105l1.849-6.734h1.715l1.878 6.734h.105l1.473-5.846h-1.309v-.888h3.413v.888h-.888l-2.014 6.957h-1.606l-1.879-6.866h-.105l-1.911 6.866h-1.606l-2.03-6.957h-.886v-.888m18.765 7.845v-.991h1.503v-8.776h-1.503v-.994h4.313v.994h-1.502v3.801h5.139v-3.801h-1.519v-.994h4.33v.994h-1.502v8.776h1.502v.991h-4.33v-.991h1.519v-3.909h-5.139v3.909h1.502v.991h-4.313m17.473-1.546a2.783 2.783 0 0 1-1.006 1.276 2.923 2.923 0 0 1-1.563.375 3.664 3.664 0 0 1-.812-.088 2.559 2.559 0 0 1-.721-.287 2.314 2.314 0 0 1-.556-.526 2.008 2.008 0 0 1-.347-.75 1.979 1.979 0 0 1-.074-.467v-.272a2.32 2.32 0 0 1 .24-1.11 2.19 2.19 0 0 1 .66-.752 2.828 2.828 0 0 1 .965-.438 4.745 4.745 0 0 1 1.125-.134h.42c.152-.01.296-.015.438-.015h1.23v-.72a3.043 3.043 0 0 0-.12-.708 1.547 1.547 0 0 0-.405-.6 1.27 1.27 0 0 0-.541-.315 1.923 1.923 0 0 0-.616-.105 3.053 3.053 0 0 0-.856.105 1.48 1.48 0 0 0-.707.526 1.039 1.039 0 0 0-.225.45c-.03.159-.054.32-.076.482h-1.262a2.662 2.662 0 0 1 .467-1.443 2.38 2.38 0 0 1 1.233-.859 2.274 2.274 0 0 1 .66-.134c.22-.02.445-.03.676-.03a4.044 4.044 0 0 1 1.142.15 2.78 2.78 0 0 1 1.007.526 1.672 1.672 0 0 1 .617.888 4.028 4.028 0 0 1 .134 1.066v4.508h1.248v.947h-2.375v-1.546m-3.787-.707a1.626 1.626 0 0 0 .345 1.066 1.268 1.268 0 0 0 1.022.406 2.25 2.25 0 0 0 1.128-.257 1.981 1.981 0 0 0 .736-.675 2.772 2.772 0 0 0 .406-.961 5.314 5.314 0 0 0 .15-1.128 3.884 3.884 0 0 0-.6-.046 12.683 12.683 0 0 0-1.519.017 2.392 2.392 0 0 0-.827.196 1.389 1.389 0 0 0-.6.48 1.472 1.472 0 0 0-.24.902m9.842-4.178a1.996 1.996 0 0 1 .783-1.204 2.284 2.284 0 0 1 1.41-.45 2.241 2.241 0 0 1 1.46.45 2.203 2.203 0 0 1 .782 1.204 1.892 1.892 0 0 1 .794-1.204 2.419 2.419 0 0 1 1.414-.45 2.6 2.6 0 0 1 1.563.465 1.78 1.78 0 0 1 .795 1.189 5.538 5.538 0 0 1 .09.704c.01.181.015.357.015.529v4.251h1.143v.947h-3.591v-.947h1.233v-3.921c0-.271-.01-.54-.03-.812a1.847 1.847 0 0 0-.166-.722 1.094 1.094 0 0 0-.45-.526 1.492 1.492 0 0 0-.858-.21 1.586 1.586 0 0 0-.977.316 2.005 2.005 0 0 0-.63.78 2.697 2.697 0 0 0-.196.888q-.03.48-.03.917v3.29h1.218v.947h-3.652v-.947h1.216v-3.921c0-.271-.01-.54-.029-.812a1.816 1.816 0 0 0-.167-.722 1.09 1.09 0 0 0-.45-.526 1.488 1.488 0 0 0-.856-.21 1.553 1.553 0 0 0-.961.316 1.995 1.995 0 0 0-.631.78 2.433 2.433 0 0 0-.21.888c-.022.32-.032.626-.032.917v3.29h1.232v.947h-3.727v-.947h1.28v-6.01h-1.28v-.888h2.495v1.414m13.69.12a3.354 3.354 0 0 1 1.07-1.338 2.848 2.848 0 0 1 1.652-.436 3.167 3.167 0 0 1 .857.105 1.92 1.92 0 0 1 .704.316 2.357 2.357 0 0 1 .602.555 5.307 5.307 0 0 1 .557.797 2.992 2.992 0 0 1 .345 1.096 9.96 9.96 0 0 1 .076 1.204 7.596 7.596 0 0 1-.151 1.458 3.068 3.068 0 0 1-.57 1.338 3.84 3.84 0 0 1-1.052.976 2.632 2.632 0 0 1-1.385.345 3.408 3.408 0 0 1-1.592-.36 2.612 2.612 0 0 1-1.113-1.204v2.992h1.265v.903h-3.742v-.903h1.261v-8.49h-1.232v-.888h2.448v1.534m2.39-.856a2.087 2.087 0 0 0-1.923 1.11 2.803 2.803 0 0 0-.39.993 7.165 7.165 0 0 0-.077 1.052 7.56 7.56 0 0 0 .09 1.143 3.017 3.017 0 0 0 .407 1.037 2.403 2.403 0 0 0 .75.765 2.02 2.02 0 0 0 1.038.272 1.983 1.983 0 0 0 1.069-.272 2.243 2.243 0 0 0 .719-.722 3.054 3.054 0 0 0 .406-.99 4.61 4.61 0 0 0 .137-1.099 6.8 6.8 0 0 0-.105-1.171 3.469 3.469 0 0 0-.407-1.113 1.896 1.896 0 0 0-.721-.736 1.96 1.96 0 0 0-.993-.27m10.156 1.847a2.71 2.71 0 0 0-.242-1.051 1.32 1.32 0 0 0-.856-.66 1.903 1.903 0 0 0-.377-.091 1.753 1.753 0 0 0-.39-.045 2.142 2.142 0 0 0-.63.091 1.61 1.61 0 0 0-.54.24 1.173 1.173 0 0 0-.363.435 1.398 1.398 0 0 0-.135.632 1.304 1.304 0 0 0 .074.39.744.744 0 0 0 .242.316 1.948 1.948 0 0 0 .707.287c.26.048.514.1.766.149.35.061.692.134 1.022.224a3.038 3.038 0 0 1 .886.362 1.808 1.808 0 0 1 .63.647 1.916 1.916 0 0 1 .243 1.022c0 .179-.012.374-.032.584a1.013 1.013 0 0 1-.179.54 3.671 3.671 0 0 1-.917.965 2.46 2.46 0 0 1-1.443.389 3.87 3.87 0 0 1-.797-.074 2.159 2.159 0 0 1-.632-.21 2.288 2.288 0 0 1-.496-.42 4.194 4.194 0 0 1-.45-.65v1.249h-.947v-2.706h.947a4.22 4.22 0 0 0 .21.783 1.457 1.457 0 0 0 .512.675 2.136 2.136 0 0 0 .645.347 2.8 2.8 0 0 0 .722.091 1.792 1.792 0 0 0 1.127-.363 1.288 1.288 0 0 0 .466-1.066 1.016 1.016 0 0 0-.194-.66 1.207 1.207 0 0 0-.497-.362 2.603 2.603 0 0 0-.663-.164c-.23-.042-.45-.076-.66-.105a9.352 9.352 0 0 1-.96-.196 2.775 2.775 0 0 1-.799-.376 2.002 2.002 0 0 1-.555-.632 2.222 2.222 0 0 1-.195-.993 4.243 4.243 0 0 1 .061-.704 1.206 1.206 0 0 1 .284-.631 2.985 2.985 0 0 1 1.083-.783 3.441 3.441 0 0 1 1.306-.24 2.794 2.794 0 0 1 1.142.24 1.832 1.832 0 0 1 .874.783v-.783h.947v2.524h-.947m2.815 5.32v-.946h1.263v-8.926h-1.263v-.888h2.478v3.953a2.883 2.883 0 0 1 2.436-1.277 3.026 3.026 0 0 1 1.052.196 1.886 1.886 0 0 1 .885.602 1.85 1.85 0 0 1 .436.915 6.183 6.183 0 0 1 .076 1.007v4.418h1.293v.947h-3.803v-.947h1.292v-4.026q0-.287-.015-.587a2.25 2.25 0 0 0-.073-.587 1.576 1.576 0 0 0-.257-.526 1.083 1.083 0 0 0-.48-.374 1.867 1.867 0 0 0-.315-.105 1.647 1.647 0 0 0-.347-.03 2.59 2.59 0 0 0-.585.059 1.476 1.476 0 0 0-.526.21 1.697 1.697 0 0 0-.587.511 2.117 2.117 0 0 0-.316.632 3.03 3.03 0 0 0-.134.707 7.85 7.85 0 0 0-.032.72v3.396h1.294v.947h-3.772m13.46-.001h-3.698v-.946h1.263v-6.01h-1.248v-.888h2.466v6.898h1.218v.947m-1.128-10.76v1.262h-1.4V83.74h1.4m4.811 4.479a5.84 5.84 0 0 1 .362-.827 1.543 1.543 0 0 1 .465-.51 1.63 1.63 0 0 1 .631-.27 3.914 3.914 0 0 1 .917-.09h.316v1.127a2.077 2.077 0 0 0-.257-.046 2.266 2.266 0 0 0-.255-.015 2.087 2.087 0 0 0-1.097.257 1.856 1.856 0 0 0-.66.675 2.779 2.779 0 0 0-.332.947 6.604 6.604 0 0 0-.09 1.098v2.989h1.488v.947h-3.954v-.947h1.248v-6.01h-1.248v-.888h2.466v1.563m11.228 2.601h-5.788a5.855 5.855 0 0 0 .166 1.112 2.38 2.38 0 0 0 .526.99 1.902 1.902 0 0 0 .813.632 3.56 3.56 0 0 0 1.05.137 1.99 1.99 0 0 0 .69-.123 2.51 2.51 0 0 0 .603-.344 2.035 2.035 0 0 0 .45-.526 1.668 1.668 0 0 0 .227-.646h1.157a3.042 3.042 0 0 1-.406 1.113 3.002 3.002 0 0 1-.736.81 3.232 3.232 0 0 1-1.008.481 4.522 4.522 0 0 1-1.186.15 4.127 4.127 0 0 1-1.654-.301 2.897 2.897 0 0 1-1.112-.842 3.537 3.537 0 0 1-.647-1.277 6.35 6.35 0 0 1-.195-1.621 6.132 6.132 0 0 1 .135-1.262 4.13 4.13 0 0 1 .452-1.204 3.08 3.08 0 0 1 1.277-1.247 3.738 3.738 0 0 1 2.9-.255 2.686 2.686 0 0 1 1.006.512 2.844 2.844 0 0 1 .722.885 3.663 3.663 0 0 1 .391 1.052 6.375 6.375 0 0 1 .12.783 5.711 5.711 0 0 1 .047.78v.21m-1.295-.903a3.274 3.274 0 0 0-.134-.929 2.522 2.522 0 0 0-.406-.826 2.037 2.037 0 0 0-.675-.602 1.737 1.737 0 0 0-.932-.24 1.998 1.998 0 0 0-.964.225 2.221 2.221 0 0 0-.69.6 2.865 2.865 0 0 0-.45.826 3.83 3.83 0 0 0-.18.946h4.431M171.5 104.04h8.656v1.984h-3.036v17.552h3.036v1.984H171.5v-1.984h3.006v-17.552H171.5v-1.984m15.147 8.656a4.92 4.92 0 0 1 1.713-2.494 5.968 5.968 0 0 1 6.012 0 4.557 4.557 0 0 1 1.773 2.494 5.731 5.731 0 0 1 .091 1.02c.02.323.03.653.03.993v8.958h2.465v1.893h-7.365v-1.893h2.466v-8.116a9.81 9.81 0 0 0-.12-1.563 4.113 4.113 0 0 0-.453-1.382 2.516 2.516 0 0 0-.932-.962 3.052 3.052 0 0 0-1.592-.362 5.893 5.893 0 0 0-1.143.091 2.474 2.474 0 0 0-.99.45 3.604 3.604 0 0 0-.812.692 5.52 5.52 0 0 0-.511.842 5.236 5.236 0 0 0-.57 1.984 33.297 33.297 0 0 0-.062 2.044v6.282h2.466v1.893H181.6v-1.893h2.615v-12.023h-2.557v-1.773h4.99v2.825m17.924-2.826h4.508v1.774h-4.508v10.159a5.196 5.196 0 0 0 .059.78 2.15 2.15 0 0 0 .242.693 1.646 1.646 0 0 0 .479.51 1.512 1.512 0 0 0 .783.182 1.22 1.22 0 0 0 .9-.33 1.94 1.94 0 0 0 .452-.874 4.566 4.566 0 0 0 .18-1.051c.021-.36.03-.68.03-.962h1.953v.57c0 .181-.01.372-.03.573a6.018 6.018 0 0 1-.51 2.132 2.885 2.885 0 0 1-1.564 1.473c-.279.06-.55.122-.812.181a3.547 3.547 0 0 1-.81.09 4.089 4.089 0 0 1-.753-.061c-.198-.039-.44-.078-.719-.12a2.331 2.331 0 0 1-1.265-.69 3.834 3.834 0 0 1-.78-1.232 3.182 3.182 0 0 1-.149-.602 9.734 9.734 0 0 1-.09-.78c-.02-.282-.032-.544-.032-.783v-9.858h-2.706v-1.773h2.706v-3.067l2.436-.9v3.967m21.373 8.324h-11.572a11.727 11.727 0 0 0 .333 2.226 4.75 4.75 0 0 0 1.051 1.984 3.838 3.838 0 0 0 1.622 1.262 7.143 7.143 0 0 0 2.104.269 4.014 4.014 0 0 0 1.385-.24 5.074 5.074 0 0 0 1.2-.692 4.08 4.08 0 0 0 .903-1.052 3.338 3.338 0 0 0 .45-1.291h2.314a5.938 5.938 0 0 1-2.284 3.847 6.456 6.456 0 0 1-2.014.962 9.073 9.073 0 0 1-2.375.3 8.236 8.236 0 0 1-3.305-.602 5.865 5.865 0 0 1-2.225-1.682 7.2 7.2 0 0 1-1.292-2.554 12.603 12.603 0 0 1-.391-3.246 11.98 11.98 0 0 1 .271-2.526 8.239 8.239 0 0 1 .9-2.405 6.143 6.143 0 0 1 2.556-2.495 7.493 7.493 0 0 1 5.8-.511 5.537 5.537 0 0 1 2.016 1.022 5.782 5.782 0 0 1 1.443 1.774 7.352 7.352 0 0 1 .78 2.103 13.707 13.707 0 0 1 .24 1.563 12.11 12.11 0 0 1 .09 1.564v.42m-2.585-1.802a6.633 6.633 0 0 0-.27-1.865 5.097 5.097 0 0 0-.811-1.653 4.12 4.12 0 0 0-1.353-1.201 3.492 3.492 0 0 0-1.864-.482 4.002 4.002 0 0 0-1.922.452 4.403 4.403 0 0 0-1.383 1.201 5.729 5.729 0 0 0-.902 1.654 7.653 7.653 0 0 0-.36 1.894h8.865m9.549-3.396a11.874 11.874 0 0 1 .721-1.653 3.088 3.088 0 0 1 .93-1.023 3.256 3.256 0 0 1 1.264-.54 7.988 7.988 0 0 1 1.833-.181h.63v2.255a3.534 3.534 0 0 0-.51-.09 4.79 4.79 0 0 0-.512-.032 4.2 4.2 0 0 0-2.194.511 3.739 3.739 0 0 0-1.32 1.353 5.514 5.514 0 0 0-.664 1.893 13.398 13.398 0 0 0-.178 2.196v5.98h2.974v1.894h-7.905v-1.893h2.494v-12.023h-2.494v-1.773h4.93v3.126m17.725 12.923a10.979 10.979 0 0 1-4.359-.81 9.287 9.287 0 0 1-3.187-2.285 10.015 10.015 0 0 1-1.984-3.427 13.527 13.527 0 0 1-.66-4.297 17.823 17.823 0 0 1 .511-4.33 9.623 9.623 0 0 1 2.013-3.847 8.042 8.042 0 0 1 3.397-2.463 11.675 11.675 0 0 1 4.178-.751 11.004 11.004 0 0 1 4.178.78 8.376 8.376 0 0 1 3.366 2.556 8.848 8.848 0 0 1 1.864 3.725 19.063 19.063 0 0 1 .45 4.178 17.468 17.468 0 0 1-.12 2.165 12.034 12.034 0 0 1-.482 2.074 17.004 17.004 0 0 1-.78 1.893 8.629 8.629 0 0 1-1.023 1.712 7.857 7.857 0 0 1-3.307 2.407 11.635 11.635 0 0 1-4.055.72m-.181-20.258a6.294 6.294 0 0 0-5.53 2.886 8.821 8.821 0 0 0-1.234 2.915 15.236 15.236 0 0 0-.359 3.308q0 .781.059 1.622a12.016 12.016 0 0 0 .239 1.682 11.119 11.119 0 0 0 .482 1.624 5.598 5.598 0 0 0 .783 1.412 6.665 6.665 0 0 0 5.709 2.856 6.234 6.234 0 0 0 5.5-3.035 8.529 8.529 0 0 0 1.143-2.948 15.445 15.445 0 0 0-.029-6.491 8.838 8.838 0 0 0-1.203-2.945 6.312 6.312 0 0 0-2.224-2.074 6.388 6.388 0 0 0-3.336-.812m17.202 7.274a6.67 6.67 0 0 1 2.134-2.676 5.717 5.717 0 0 1 3.307-.87 6.387 6.387 0 0 1 1.712.21 3.905 3.905 0 0 1 1.414.631 4.793 4.793 0 0 1 1.2 1.113 10.335 10.335 0 0 1 1.113 1.592 5.885 5.885 0 0 1 .693 2.194 19.354 19.354 0 0 1 .149 2.405 15.173 15.173 0 0 1-.3 2.915 6.074 6.074 0 0 1-1.144 2.676 7.652 7.652 0 0 1-2.103 1.952 5.229 5.229 0 0 1-2.764.692 6.785 6.785 0 0 1-3.187-.721 5.225 5.225 0 0 1-2.224-2.405v5.981h2.525v1.805h-7.485v-1.805h2.524v-16.98h-2.463v-1.774h4.9v3.065m4.779-1.712a4.179 4.179 0 0 0-3.847 2.223 5.52 5.52 0 0 0-.783 1.984 14.042 14.042 0 0 0-.15 2.104 14.624 14.624 0 0 0 .18 2.284 6.004 6.004 0 0 0 .81 2.075 4.8 4.8 0 0 0 1.506 1.533 4.063 4.063 0 0 0 2.074.54 3.983 3.983 0 0 0 2.133-.54 4.542 4.542 0 0 0 1.443-1.443 6.242 6.242 0 0 0 .812-1.984 9.347 9.347 0 0 0 .27-2.194 13.378 13.378 0 0 0-.211-2.346 6.906 6.906 0 0 0-.812-2.223 3.755 3.755 0 0 0-1.441-1.473 3.88 3.88 0 0 0-1.984-.54m23.663 6.971h-11.572a11.726 11.726 0 0 0 .332 2.226 4.752 4.752 0 0 0 1.052 1.984 3.83 3.83 0 0 0 1.622 1.262 7.136 7.136 0 0 0 2.103.269 4.014 4.014 0 0 0 1.385-.24 5.063 5.063 0 0 0 1.201-.692 4.068 4.068 0 0 0 .902-1.052 3.338 3.338 0 0 0 .45-1.291h2.314a5.938 5.938 0 0 1-2.284 3.847 6.456 6.456 0 0 1-2.013.962 9.073 9.073 0 0 1-2.375.3 8.23 8.23 0 0 1-3.305-.602 5.862 5.862 0 0 1-2.226-1.682 7.188 7.188 0 0 1-1.29-2.554 12.602 12.602 0 0 1-.392-3.246 11.978 11.978 0 0 1 .27-2.526 8.224 8.224 0 0 1 .901-2.405 6.14 6.14 0 0 1 2.556-2.495 7.491 7.491 0 0 1 5.8-.511 5.532 5.532 0 0 1 2.015 1.022 5.782 5.782 0 0 1 1.443 1.774 7.352 7.352 0 0 1 .78 2.103 13.707 13.707 0 0 1 .24 1.563 12.11 12.11 0 0 1 .09 1.564v.42m-2.585-1.802a6.63 6.63 0 0 0-.269-1.865 5.097 5.097 0 0 0-.812-1.653 4.118 4.118 0 0 0-1.352-1.201 3.494 3.494 0 0 0-1.864-.482 4.002 4.002 0 0 0-1.923.452 4.4 4.4 0 0 0-1.382 1.201 5.716 5.716 0 0 0-.903 1.654 7.68 7.68 0 0 0-.36 1.894h8.865m9.549-3.396a11.795 11.795 0 0 1 .722-1.653 3.08 3.08 0 0 1 .93-1.023 3.255 3.255 0 0 1 1.265-.54 7.983 7.983 0 0 1 1.831-.181h.631v2.255a3.535 3.535 0 0 0-.51-.09 4.782 4.782 0 0 0-.512-.032 4.195 4.195 0 0 0-2.194.511 3.736 3.736 0 0 0-1.321 1.353 5.5 5.5 0 0 0-.663 1.893 13.334 13.334 0 0 0-.179 2.196v5.98h2.975v1.894h-7.906v-1.893h2.496v-12.023h-2.496v-1.773h4.931v3.126m17.333 9.466a5.552 5.552 0 0 1-2.016 2.556 5.805 5.805 0 0 1-3.123.751 7.236 7.236 0 0 1-1.624-.18 5.056 5.056 0 0 1-1.443-.57 4.67 4.67 0 0 1-1.113-1.053 3.976 3.976 0 0 1-.69-1.504 3.827 3.827 0 0 1-.151-.931v-.541a4.684 4.684 0 0 1 .481-2.224 4.394 4.394 0 0 1 1.323-1.504 5.649 5.649 0 0 1 1.923-.87 9.197 9.197 0 0 1 2.255-.27h.842c.3-.022.589-.032.87-.032h2.466v-1.443a6.175 6.175 0 0 0-.242-1.411 3.082 3.082 0 0 0-.81-1.203 2.648 2.648 0 0 0-1.083-.631 3.9 3.9 0 0 0-1.23-.21 6.187 6.187 0 0 0-1.715.21 2.997 2.997 0 0 0-1.412 1.05 2.127 2.127 0 0 0-.452.904c-.06.32-.11.64-.15.961h-2.523a5.28 5.28 0 0 1 .931-2.884 4.782 4.782 0 0 1 2.464-1.715 4.465 4.465 0 0 1 1.323-.268c.44-.042.89-.062 1.352-.062a8.089 8.089 0 0 1 2.285.3 5.583 5.583 0 0 1 2.013 1.053 3.317 3.317 0 0 1 1.233 1.773 8.053 8.053 0 0 1 .269 2.133v9.019h2.495v1.893h-4.748v-3.097m-7.575-1.411a3.24 3.24 0 0 0 .692 2.133 2.535 2.535 0 0 0 2.043.812 4.53 4.53 0 0 0 2.255-.511 3.975 3.975 0 0 0 1.472-1.353 5.513 5.513 0 0 0 .812-1.923 10.634 10.634 0 0 0 .301-2.255 7.886 7.886 0 0 0-1.203-.09q-.632-.03-1.201-.03c-.602 0-1.213.02-1.835.062a4.852 4.852 0 0 0-1.653.388 2.805 2.805 0 0 0-1.201.962 2.936 2.936 0 0 0-.482 1.805m18.355-8.446a5.358 5.358 0 0 1 .9-1.294 5.911 5.911 0 0 1 1.203-1.02 5.226 5.226 0 0 1 1.443-.663 5.33 5.33 0 0 1 1.563-.24 6.211 6.211 0 0 1 2.975.661 5.957 5.957 0 0 1 2.074 1.773 7.265 7.265 0 0 1 1.172 2.586 11.393 11.393 0 0 1 .391 3.006q0 .63-.03 1.262a9.613 9.613 0 0 1-.15 1.291 10.396 10.396 0 0 1-.36 1.353 11.76 11.76 0 0 1-.66 1.504 5.024 5.024 0 0 1-2.256 2.163 7.374 7.374 0 0 1-3.398.782 5.835 5.835 0 0 1-2.884-.75 4.722 4.722 0 0 1-1.954-2.195l-.03-.362v3.097h-4.928v-1.893h2.492v-17.854h-2.462v-1.773h4.899v8.566m4.537 11.242a4.169 4.169 0 0 0 2.135-.512 4.78 4.78 0 0 0 1.444-1.384 5.524 5.524 0 0 0 .81-1.893 8.864 8.864 0 0 0 .27-2.162 12.958 12.958 0 0 0-.21-2.285 6.745 6.745 0 0 0-.75-2.136 4.263 4.263 0 0 0-1.415-1.562 4.044 4.044 0 0 0-3.906-.24 5.023 5.023 0 0 0-1.384.99 4.403 4.403 0 0 0-.93 1.265 13.402 13.402 0 0 0-.482 1.472 4.647 4.647 0 0 0-.18 1.082c-.02.36-.03.712-.03 1.052a13.683 13.683 0 0 0 .18 2.284 6.417 6.417 0 0 0 .782 2.104 3.568 3.568 0 0 0 1.533 1.504 5.296 5.296 0 0 0 2.133.42m16.691 1.713h-7.393v-1.893h2.524v-12.023h-2.493v-1.773h4.93v13.796h2.432v1.893m-2.252-21.52v2.524h-2.796v-2.524h2.796m3.393 21.52v-1.893h2.492v-17.854h-2.492v-1.773h4.928v19.627h2.404v1.893h-7.332m16.118 0h-7.394v-1.893h2.524v-12.023h-2.492v-1.773h4.929v13.796h2.434v1.893m-2.253-21.52v2.524h-2.796v-2.524h2.796m8.111 5.83h4.508v1.774h-4.508v10.159a5.191 5.191 0 0 0 .059.78 2.15 2.15 0 0 0 .242.693 1.646 1.646 0 0 0 .479.51 1.512 1.512 0 0 0 .783.182 1.22 1.22 0 0 0 .9-.33 1.94 1.94 0 0 0 .452-.874 4.566 4.566 0 0 0 .18-1.051c.021-.36.03-.68.03-.962h1.953v.57c0 .181-.01.372-.03.573a6.018 6.018 0 0 1-.511 2.132 2.885 2.885 0 0 1-1.563 1.473c-.279.06-.55.122-.812.181a3.547 3.547 0 0 1-.81.09 4.089 4.089 0 0 1-.753-.061c-.198-.039-.44-.078-.719-.12a2.331 2.331 0 0 1-1.265-.69 3.836 3.836 0 0 1-.78-1.232 3.179 3.179 0 0 1-.149-.602 9.712 9.712 0 0 1-.09-.78c-.02-.282-.032-.544-.032-.783v-9.858h-2.706v-1.773h2.706v-3.067l2.436-.9v3.967m12.959-.001v1.774h-2.436l3.847 11 3.728-11h-2.466v-1.773h6.434v1.773h-1.383l-5.17 14.065q-.239.602-.482 1.143c-.14.381-.299.772-.48 1.174a7.983 7.983 0 0 1-.66 1.171 2.915 2.915 0 0 1-.964.932 3.619 3.619 0 0 1-1.171.48 4.5 4.5 0 0 1-1.233.18 5.092 5.092 0 0 1-.961-.09c-.302-.039-.612-.08-.933-.12v-1.983a7.475 7.475 0 0 0 1.803.21 1.6 1.6 0 0 0 1.022-.33 2.55 2.55 0 0 0 .722-.812 4.536 4.536 0 0 0 .482-1.052c.14-.382.26-.722.36-1.023l-5.26-13.945h-1.503v-1.773h6.704m-216.964 46.247v-1.984h3.097v-17.552h-3.097v-1.984h9.319v1.984h-3.608v17.371h8.175v-4.869h2.437v7.034h-16.323m29.015-3.096a5.562 5.562 0 0 1-2.014 2.556 5.843 5.843 0 0 1-3.125.75 7.25 7.25 0 0 1-1.625-.18 5.059 5.059 0 0 1-1.44-.57 4.598 4.598 0 0 1-1.113-1.055 4.01 4.01 0 0 1-.692-1.501 3.839 3.839 0 0 1-.15-.933v-.54a4.677 4.677 0 0 1 .48-2.224 4.414 4.414 0 0 1 1.323-1.504 5.637 5.637 0 0 1 1.925-.87 9.208 9.208 0 0 1 2.253-.272h.841c.301-.02.592-.03.874-.03h2.463v-1.443a6.159 6.159 0 0 0-.24-1.411 3.098 3.098 0 0 0-.812-1.204 2.606 2.606 0 0 0-1.081-.63 3.903 3.903 0 0 0-1.233-.21 6.17 6.17 0 0 0-1.712.21 2.985 2.985 0 0 0-1.414 1.051 2.123 2.123 0 0 0-.45.903c-.061.32-.11.64-.152.961h-2.524a5.339 5.339 0 0 1 .932-2.886 4.774 4.774 0 0 1 2.466-1.712 4.475 4.475 0 0 1 1.32-.272c.44-.039.893-.058 1.353-.058a8.083 8.083 0 0 1 2.285.3 5.527 5.527 0 0 1 2.012 1.052 3.303 3.303 0 0 1 1.233 1.773 8.049 8.049 0 0 1 .272 2.133v9.018h2.495v1.894h-4.75v-3.096m-7.573-1.412a3.254 3.254 0 0 0 .69 2.133 2.54 2.54 0 0 0 2.045.812 4.52 4.52 0 0 0 2.252-.512 4.017 4.017 0 0 0 1.475-1.352 5.527 5.527 0 0 0 .81-1.925 10.614 10.614 0 0 0 .3-2.253 7.598 7.598 0 0 0-1.2-.09q-.632-.03-1.204-.03c-.602 0-1.21.02-1.832.06a4.912 4.912 0 0 0-1.653.39 2.797 2.797 0 0 0-1.204.962 2.931 2.931 0 0 0-.48 1.805m18.353-8.446a5.296 5.296 0 0 1 .903-1.294 5.805 5.805 0 0 1 1.2-1.023 5.25 5.25 0 0 1 1.444-.66 5.33 5.33 0 0 1 1.563-.24 6.229 6.229 0 0 1 2.977.66 5.966 5.966 0 0 1 2.074 1.774 7.32 7.32 0 0 1 1.172 2.585 11.5 11.5 0 0 1 .389 3.007q0 .63-.03 1.262a9.6 9.6 0 0 1-.149 1.291 10.379 10.379 0 0 1-.362 1.353 11.206 11.206 0 0 1-.66 1.505 5.04 5.04 0 0 1-2.256 2.162 7.357 7.357 0 0 1-3.395.782 5.874 5.874 0 0 1-2.886-.75 4.735 4.735 0 0 1-1.954-2.194l-.03-.362v3.096h-4.928v-1.894h2.494v-17.853h-2.465v-1.773h4.9v8.566m4.539 11.24a4.127 4.127 0 0 0 2.133-.512 4.708 4.708 0 0 0 1.443-1.382 5.528 5.528 0 0 0 .812-1.893 8.992 8.992 0 0 0 .27-2.165 12.82 12.82 0 0 0-.21-2.285 6.687 6.687 0 0 0-.752-2.132 4.257 4.257 0 0 0-1.412-1.563 4.048 4.048 0 0 0-3.908-.24 5 5 0 0 0-1.382.99 4.424 4.424 0 0 0-.932 1.263 14.314 14.314 0 0 0-.482 1.472 4.721 4.721 0 0 0-.179 1.084c-.022.36-.032.712-.032 1.052a13.881 13.881 0 0 0 .182 2.284 6.422 6.422 0 0 0 .783 2.103 3.545 3.545 0 0 0 1.53 1.503 5.258 5.258 0 0 0 2.136.42m11.971-6.31a15.517 15.517 0 0 0 .18 2.284 4.726 4.726 0 0 0 .904 2.104 5.217 5.217 0 0 0 1.563 1.472 4.063 4.063 0 0 0 2.073.54 3.949 3.949 0 0 0 2.195-.689 4.496 4.496 0 0 0 1.563-1.685 6.301 6.301 0 0 0 .69-1.984 12.989 12.989 0 0 0 .18-2.133 11.521 11.521 0 0 0-.21-2.194 5.773 5.773 0 0 0-.75-1.984 4.164 4.164 0 0 0-1.444-1.443 4.004 4.004 0 0 0-2.224-.57 4.182 4.182 0 0 0-2.254.6 4.944 4.944 0 0 0-1.593 1.624 5.655 5.655 0 0 0-.692 1.983 13.087 13.087 0 0 0-.181 2.075m-2.583-.03a11.188 11.188 0 0 1 .42-3.097 6.753 6.753 0 0 1 1.531-2.734 6.327 6.327 0 0 1 2.466-1.715 8.195 8.195 0 0 1 3.036-.57 7.176 7.176 0 0 1 3.185.66 6.158 6.158 0 0 1 2.225 1.803 7.467 7.467 0 0 1 1.292 2.615 11.64 11.64 0 0 1 .42 3.158 10.635 10.635 0 0 1-.45 3.126 7.304 7.304 0 0 1-1.381 2.583 6.537 6.537 0 0 1-2.256 1.773 7.083 7.083 0 0 1-3.155.663 8.426 8.426 0 0 1-3.187-.572 5.914 5.914 0 0 1-2.434-2.074 9.508 9.508 0 0 1-1.323-2.674 10.833 10.833 0 0 1-.39-2.944m21.479-4.511a12.277 12.277 0 0 1 .722-1.651 3.031 3.031 0 0 1 .932-1.023 3.23 3.23 0 0 1 1.262-.54 7.856 7.856 0 0 1 1.834-.181h.632v2.252a4.085 4.085 0 0 0-.512-.087 4.26 4.26 0 0 0-.51-.032 4.187 4.187 0 0 0-2.195.51 3.712 3.712 0 0 0-1.323 1.353 5.42 5.42 0 0 0-.66 1.894 13.39 13.39 0 0 0-.182 2.194v5.983h2.977v1.893h-7.905v-1.894h2.494V142.2h-2.494v-1.773h4.928v3.126m17.333 9.469a5.565 5.565 0 0 1-2.013 2.556 5.843 5.843 0 0 1-3.126.75 7.247 7.247 0 0 1-1.624-.18 5.063 5.063 0 0 1-1.441-.57 4.586 4.586 0 0 1-1.113-1.055 4.012 4.012 0 0 1-.693-1.501 3.84 3.84 0 0 1-.149-.933v-.54a4.677 4.677 0 0 1 .48-2.224 4.413 4.413 0 0 1 1.323-1.504 5.634 5.634 0 0 1 1.925-.87 9.217 9.217 0 0 1 2.253-.272h.842q.45-.03.873-.03h2.463v-1.443a6.228 6.228 0 0 0-.24-1.411 3.105 3.105 0 0 0-.812-1.204 2.605 2.605 0 0 0-1.081-.63 3.9 3.9 0 0 0-1.233-.21 6.177 6.177 0 0 0-1.712.21 2.99 2.99 0 0 0-1.414 1.051 2.129 2.129 0 0 0-.45.903c-.061.32-.11.64-.151.961h-2.525a5.339 5.339 0 0 1 .932-2.886 4.772 4.772 0 0 1 2.465-1.712 4.475 4.475 0 0 1 1.321-.272c.44-.039.893-.058 1.353-.058a8.081 8.081 0 0 1 2.285.3 5.53 5.53 0 0 1 2.013 1.052 3.307 3.307 0 0 1 1.233 1.773 8.047 8.047 0 0 1 .27 2.133v9.018h2.496v1.894h-4.75v-3.096m-7.573-1.412a3.25 3.25 0 0 0 .69 2.133 2.54 2.54 0 0 0 2.044.812 4.52 4.52 0 0 0 2.253-.512 4.015 4.015 0 0 0 1.475-1.352 5.516 5.516 0 0 0 .81-1.925 10.654 10.654 0 0 0 .3-2.253 7.604 7.604 0 0 0-1.2-.09q-.631-.03-1.204-.03c-.601 0-1.21.02-1.832.06a4.912 4.912 0 0 0-1.654.39 2.796 2.796 0 0 0-1.202.962 2.931 2.931 0 0 0-.48 1.805m18.142-11.183h4.508v1.773h-4.508v10.161a4.962 4.962 0 0 0 .061.78 2.166 2.166 0 0 0 .24.692 1.672 1.672 0 0 0 .482.512 1.506 1.506 0 0 0 .78.178 1.22 1.22 0 0 0 .902-.33 1.916 1.916 0 0 0 .45-.87 4.59 4.59 0 0 0 .182-1.053q.029-.543.03-.961h1.953v.57q0 .271-.029.572a6.072 6.072 0 0 1-.511 2.134 2.9 2.9 0 0 1-1.564 1.472c-.28.061-.552.12-.811.18a3.682 3.682 0 0 1-.812.092 4.035 4.035 0 0 1-.751-.062c-.201-.039-.44-.08-.722-.12a2.305 2.305 0 0 1-1.262-.692 3.8 3.8 0 0 1-.783-1.23 3.373 3.373 0 0 1-.15-.602 11.48 11.48 0 0 1-.09-.782c-.019-.28-.029-.541-.029-.781v-9.86h-2.705v-1.773h2.705v-3.065l2.434-.903v3.968m9.442 7.666a15.436 15.436 0 0 0 .18 2.284 4.726 4.726 0 0 0 .903 2.104 5.217 5.217 0 0 0 1.563 1.472 4.064 4.064 0 0 0 2.075.54 3.949 3.949 0 0 0 2.194-.689 4.497 4.497 0 0 0 1.563-1.685 6.286 6.286 0 0 0 .689-1.984 12.924 12.924 0 0 0 .181-2.133 11.518 11.518 0 0 0-.21-2.194 5.76 5.76 0 0 0-.751-1.984 4.162 4.162 0 0 0-1.443-1.443 4.005 4.005 0 0 0-2.223-.57 4.185 4.185 0 0 0-2.256.6 4.944 4.944 0 0 0-1.592 1.624 5.643 5.643 0 0 0-.692 1.983 13.018 13.018 0 0 0-.181 2.075m-2.583-.03a11.166 11.166 0 0 1 .42-3.097 6.746 6.746 0 0 1 1.532-2.734 6.32 6.32 0 0 1 2.465-1.715 8.2 8.2 0 0 1 3.036-.57 7.195 7.195 0 0 1 3.187.66 6.173 6.173 0 0 1 2.223 1.803 7.466 7.466 0 0 1 1.292 2.615 11.642 11.642 0 0 1 .42 3.158 10.614 10.614 0 0 1-.45 3.126 7.294 7.294 0 0 1-1.382 2.583 6.54 6.54 0 0 1-2.255 1.773 7.085 7.085 0 0 1-3.155.663 8.424 8.424 0 0 1-3.187-.572 5.912 5.912 0 0 1-2.434-2.074 9.49 9.49 0 0 1-1.323-2.674 10.833 10.833 0 0 1-.39-2.944m21.479-4.511a12.192 12.192 0 0 1 .722-1.651 3.036 3.036 0 0 1 .931-1.023 3.229 3.229 0 0 1 1.263-.54 7.85 7.85 0 0 1 1.834-.181h.631v2.252a4.075 4.075 0 0 0-.51-.087 4.268 4.268 0 0 0-.512-.032 4.183 4.183 0 0 0-2.194.51 3.713 3.713 0 0 0-1.324 1.353 5.43 5.43 0 0 0-.66 1.894 13.326 13.326 0 0 0-.181 2.194v5.983h2.977v1.893h-7.906v-1.894h2.495V142.2h-2.495v-1.773h4.929v3.126m13.505-3.126v1.773h-2.434l3.847 11.003 3.726-11.003h-2.464v-1.773h6.431v1.773h-1.382l-5.171 14.067c-.159.401-.32.783-.48 1.142-.139.382-.3.774-.481 1.172a7.612 7.612 0 0 1-.66 1.175 2.877 2.877 0 0 1-.962.931 3.632 3.632 0 0 1-1.174.48 4.46 4.46 0 0 1-1.23.18 5.141 5.141 0 0 1-.964-.09c-.298-.04-.61-.08-.93-.12v-1.983a7.467 7.467 0 0 0 1.803.21 1.604 1.604 0 0 0 1.022-.33 2.569 2.569 0 0 0 .722-.813 4.67 4.67 0 0 0 .48-1.05c.139-.383.261-.723.362-1.024l-5.262-13.947h-1.501v-1.773h6.702" class="cls-4"/></svg>