<svg xmlns="http://www.w3.org/2000/svg" role="img" viewBox="-4.55 -4.55 236.86 229.86"><title>University of New Hampshire (member) logo</title><path d="M52 0h122v1H52zm122 0h1v1h-1zm-60 32h1v1h-1zM92 68h1v1h-1zm4 13h1v1h-1zM68 93h1v1h-1zm-13 5h1v1h-1zm1 3h1v1h-1zm20 8h1v1h-1zm84 11h1v1h-1zm-63 8h1v1h-1zm60 11h1v1h-1zm-20 1h1v1h-1zm14 2h1v1h-1zm5 7h1v1h-1zm0 1h1v1h-1zm-88 15h1v1h-1zm69 0h1v1h-1zm58 6h1v1h-1zm-92 2h1v1h-1zm45 1h1v1h-1zm40 0h1v1h-1zm-109 4h1v1h-1zm33 0h1v1h-1zm8 3h1v1h-1zm1 0h1v1h-1zm10 0h1v1h-1zm-12 1h1v3h-1zm12 0h1v1h-1zm-75 1h1v1h-1zm8 1h1v1h-1zm101 0h1v1h-1zm-46 1h1v1h-1zm76 1h1v1h-1zM0 197h1v1H0zm9 1h1v1H9zm139 4h1v1h-1zm17 0h1v1h-1zm-58 1h1v1h-1zm101 1h1v1h-1zm-53 2h1v1h-1zm-95 3h1v1h-1zm38 2h1v1h-1zm68 1h1v1h-1zm-138 1h1v1h-1zm64 0h1v1h-1zm115 0h1v1h-1zm12 0h1v1h-1zm-47 1h1v1h-1zm0 1h1v1h-1zm-32 5h5v1h-5zm5 0h1v1h-1z" fill="#7c8dbb"/><path d="M92 36h1v1h-1zm1 3h1v1h-1zm43 32h1v22h-1zm-42 2h1v1h-1zM53 86h1v1h-1zm13 0h1v1h-1zm32 0h1v1h-1zm-31 5h1v1h-1zm-13 1h1v1h-1zm119 0h1v1h-1zm-84 1h1v1h-1zm47 0h1v1h-1zm-81 3h1v1h-1zm116 3h1v1h-1zm-114 3h1v1h-1zm14 0h1v1h-1zm3 5h1v1h-1zm3 4h1v1h-1zm88 1h1v1h-1zm-2 3h1v1h-1zm-2 3h1v1h-1zm-73 4h1v1h-1zm13 9h1v1h-1zm2 1h1v1h-1zm44 0h1v1h-1zm-39 2h1v1h-1zm-20 4h1v1h-1zm5 3h1v1h-1zm41 0h1v1h-1zm-33 4h1v1h-1zm8 3h1v1h-1zm9 0h1v1h-1zm-3 1h1v1h-1zm-84 18h1v1h-1zm105 0h1v1h-1zm-67 1h1v1h-1zm-43 1h1v9h-1zm57 3h1v1h-1zm60 0h1v1h-1zm-74 1h1v10h-1zm47 0h1v1h-1zm-57 1h1v1h-1zm69 0h1v1h-1zm-44 1h1v1h-1zm45 0h1v1h-1zm-43 1h1v1h-1zm15 0h1v1h-1zm81 0h1v1h-1zm-132 1h1v1h-1zm115 0h1v1h-1zm-139 1h1v1h-1zm53 2h1v1h-1zm-2 1h1v1h-1zm5 0h1v1h-1zm-13 2h1v1h-1zm23 0h1v1h-1zm11 0h1v1h-1zm57 0h1v1h-1zm-82 1h1v1h-1zm-26 1h1v1h-1zm42 0h1v1h-1zm46 0h1v1h-1zm-107 1h1v1h-1zm1 0h1v1h-1zm63 0h1v1h-1zm1 0h1v1h-1zm27 0h1v1h-1zm1 0h1v1h-1zm22 0h1v1h-1zm1 0h1v1h-1zm36 0h1v1h-1zm1 0h1v1h-1zm-102 9h1v1h-1zm-5 1h1v1h-1zm-5 2h1v14h-1zm-65 1h1v1H9zm24 2h1v1h-1zm16 0h1v1h-1zm116 0h1v1h-1zm59 0h1v1h-1zM5 202h1v10H5zm3 0h1v1H8zm138 0h1v1h-1zm7 0h1v1h-1zm-129 1h1v1h-1zm24 0h1v1h-1zm5 0h1v1h-1zm61 0h1v9h-1zm101 0h1v1h-1zm-83 1h1v1h-1zm85 0h1v1h-1zm-194 1h1v1h-1zm17 0h1v1h-1zm86 0h1v1h-1zm88 0h1v1h-1zm-171 2h1v1h-1zm4 0h2v1h-2zm2 0h1v1h-1zm9 0h2v1h-2zm2 0h1v1h-1zm38 0h1v1h-1zm-41 3h1v1h-1zm-52 2h1v1H5zm37 0h1v1h-1zm32 0h1v1h-1zm21 0h1v1h-1zm19 0h1v1h-1zm39 1h1v1h-1zm-106 1h1v1h-1zm25 0h1v1h-1zm46 0h1v1h-1zm55 0h1v1h-1zm19 0h1v1h-1zm16 0h1v1h-1zm-194 1h1v1h-1zm14 0h1v1h-1zm3 0h1v1h-1zm53 0h1v1h-1zm14 0h1v1h-1zm3 0h1v1h-1zm11 0h1v1h-1zm38 0h1v1h-1zm10 0h1v1h-1zm19 0h1v1h-1zm40 0h1v1h-1zm3 0h1v1h-1z" fill="#001788"/><path d="M95 43h1v1h-1zM67 89h1v1h-1zm106 5h1v1h-1zM59 108h1v1h-1zm89 24h1v1h-1zm-36 3h1v1h-1zm-28 1h1v1h-1zm6 4h1v1h-1zm65 0h1v1h-1zm-30 6h1v1h-1zm-58 19h1v1h-1zm71 0h1v1h-1zm10 4h1v1h-1zm0 1h1v1h-1zm-98 1h1v1h-1zm14 0h1v1h-1zm100 0h1v1h-1zm17 1h1v1h-1zm-128 1h1v1h-1zm63 1h1v1h-1zm3 1h1v1h-1zm29 0h1v7h-1zm12 0h1v1h-1zm-104 1h1v6h-1zm19 1h1v1h-1zm-49 5h1v1h-1zm30 0h1v1h-1zm48 0h1v1h-1zm44 0h1v1h-1zm-114 2h1v1h-1zm12 0h1v1h-1zm19 0h1v1h-1zm48 0h1v1h-1zm89 0h1v1h-1zm1 0h1v1h-1zm-22 1h1v1h-1zm-21 3h1v1h-1zm12 7h1v1h-1zm0 1h1v1h-1zm-86 2h1v1h-1zm88 0h1v14h-1zm-13 2h1v1h-1zm-17 1h1v1h-1zm-18 1h1v1h-1zm9 0h1v1h-1zm72 0h1v1h-1zm-121 1h1v1h-1zm13 0h1v1h-1zm-63 2h1v1h-1zm11 0h1v1h-1zm7 0h1v1h-1zm97 0h1v1h-1zm-65 2h1v1h-1zm58 1h1v1h-1zm25 0h1v1h-1zm-125 1h1v1h-1zm5 0h1v1h-1zm-17 3h1v1h-1zm54 0h1v1h-1zm88 0h1v1h-1zm49 0h1v1h-1zm-74 1h1v1h-1zm-136 1h1v1h-1zm196 1h1v1h-1z" fill="#7886b6"/><path d="M92 34h1v1h-1zm9 0h1v22h-1zm0 22h1v1h-1zm-11 7h1v1h-1zm1 2h1v1h-1zm84 17h1v1h-1zM52 83h1v1h-1zm117 23h1v1h-1zm-2 4h1v1h-1zm-101 9h1v1h-1zm24 4h1v1h-1zm17 10h1v1h-1zm45 10h1v1h-1zm2 4h1v1h-1zm-47 1h1v1h-1zm13 0h1v1h-1zm37 2h1v1h-1zM30 168h1v1h-1zm7 0h1v1h-1zm160 2h1v1h-1zm-58 1h1v1h-1zm-19 1h1v1h-1zm32 0h1v1h-1zm-10 1h1v1h-1zm55 1h1v9h-1zm-110 1h1v1h-1zm69 0h1v1h-1zm9 0h1v1h-1zm-82 1h1v1h-1zm36 0h1v1h-1zm70 0h1v1h-1zm-62 1h1v1h-1zm-45 2h1v1h-1zm39 0h1v1h-1zm-27 1h1v1h-1zm64 0h1v1h-1zm31 1h1v1h-1zm-148 1h1v1h-1zm-10 1h1v1h-1zm46 0h1v1h-1zm35 0h1v1h-1zm15 0h1v1h-1zm70 0h1v1h-1zm-56 3h1v1h-1zm48 0h1v1h-1zm-26 3h1v1h-1zm33 5h1v1h-1zm-125 1h1v1h-1zm0 1h1v1h-1zm-58 1h1v1h-1zm180 0h1v1h-1zm-161 3h1v1h-1zm7 0h4v1h-4zm4 0h1v1h-1zm6 0h3v1h-3zm3 0h1v1h-1zm6 0h5v1h-5zm5 0h1v1h-1zm50 0h3v1h-3zm3 0h1v1h-1zm17 0h1v1h-1zm7 0h3v1h-3zm3 0h1v1h-1zm25 0h1v1h-1zm1 0h1v1h-1zm23 0h4v1h-4zm4 0h1v1h-1zm6 0h4v1h-4zm4 0h1v1h-1zm17 0h1v1h-1zm-37 1h1v1h-1zm-157 1h1v1h-1zm73 0h1v1h-1zm118 0h1v1h-1zm-188 2h1v1h-1zm11 0h1v1h-1zm144 0h1v7h-1zm36 0h1v1h-1zm-122 2h1v1h-1zm1 0h1v1h-1zm63 0h1v1h-1zm-143 1h1v1h-1zm18 0h1v1h-1zm173 0h1v1h-1zm-191 1h1v1h-1zm191 0h1v1h-1zm-202 2h1v1h-1zm41 0h1v1h-1zm99 0h1v1h-1zm-115 1h1v1h-1zm130 0h1v1h-1zm21 0h1v1h-1zm27 1h1v1h-1zm-166 1h1v1h-1zm117 0h1v1h-1zm37 0h1v1h-1zm-160 1h1v1h-1zm11 0h1v1h-1zm18 0h1v1h-1zm74 0h1v1h-1zm44 0h1v1h-1zm-156 1h1v1h-1zm38 0h1v1h-1zm118 0h1v1h-1zm35 0h1v1h-1z" fill="#95a2c7"/><path d="M101 57h1v1h-1zM66 81h1v1h-1zm108 9h1v1h-1zm-74 4h1v1h-1zm-26 12h1v1h-1zm-11 9h1v1h-1zm84 18h1v1h-1zm9 7h1v1h-1zm-46 9h1v1h-1zm7 0h1v1h-1zm38 1h1v1h-1zm-16 15h1v1h-1zm-22 6h1v2h-1zm-35 2h1v1h-1zm35 0h1v1h-1zm69 0h1v1h-1zm-82 2h1v1h-1zm20 5h1v1h-1zm-44 1h1v1h-1zm-53 3h1v1h-1zm1 1h1v1h-1zm26 0h1v1h-1zm106 0h1v1h-1zm34 9h1v1h-1zm1 0h1v1h-1zm-2 1h1v1h-1zm0 1h1v1h-1zm-76 5h1v1h-1zm-106 1h1v1h-1zm155 1h1v1h-1zm27 1h1v7h-1zm-132 2h1v1h-1zm97 0h1v1h-1zm-132 3h1v1h-1zm136 0h1v1h-1zm-147 1h1v1h-1zm178 1h1v1h-1zm34 0h1v1h-1zm-200 1h1v1h-1zm160 0h1v1h-1zm31 0h1v1h-1zm-159 1h1v1h-1zm50 0h1v1h-1zm12 0h1v1h-1zm80 0h1v1h-1zm-97 1h1v1h-1zm42 1h1v1h-1z" fill="#9fabcd"/><path d="M53 1h1v1h-1zm13 12h1v1h-1zm-1 1h1v1h-1zm50 17h10v1h-10zm10 0h1v1h-1zm12 0h12v1h-12zm12 0h1v1h-1zm-56 9h1v1h-1zm2 4h1v1h-1zm32 12h1v1h-1zm-38 7h1v1h-1zm4 5h1v1h-1zm81 13h1v1h-1zM53 82h1v1h-1zm12 0h1v1h-1zm1 7h1v1h-1zm1 4h1v1h-1zm33 0h1v1h-1zm72 1h1v1h-1zM68 96h1v1h-1zm-12 2h1v1h-1zm1 3h1v1h-1zm2 5h1v1h-1zm1 2h1v1h-1zm18 4h1v1h-1zm2 3h1v1h-1zm1 1h1v1h-1zm81 0h1v1h-1zm-78 3h1v1h-1zm1 1h1v1h-1zm-16 1h1v1h-1zm84 6h1v1h-1zm-78 1h1v1h-1zm74 2h1v1h-1zm-37 6h1v1h-1zm28 1h1v1h-1zm-50 2h1v1h-1zm-65 28h1v1h-1zm17 0h1v1h-1zm96 0h1v1h-1zm-112 1h1v1h-1zm121 1h1v1h-1zm0 1h1v1h-1zm-69 2h1v1h-1zm6 0h1v1h-1zm24 0h1v1h-1zm21 0h1v1h-1zm6 0h1v1h-1zm50 0h1v1h-1zm-92 1h1v1h-1zm30 0h1v1h-1zm-29 1h1v1h-1zm20 0h1v1h-1zm6 0h1v1h-1zm27 0h1v8h-1zm21 0h1v1h-1zm-48 1h1v1h-1zm-63 1h1v7h-1zm19 1h1v1h-1zm49 0h1v1h-1zm-47 1h1v1h-1zm33 0h1v1h-1zm54 0h1v1h-1zm1 1h1v1h-1zm-89 1h1v1h-1zm53 1h1v1h-1zm-103 1h1v1h-1zm103 0h1v1h-1zm17 0h1v1h-1zm-90 1h1v1h-1zm37 0h1v1h-1zm7 0h1v1h-1zm19 0h1v1h-1zm45 0h1v1h-1zm-45 1h1v1h-1zm44 0h1v1h-1zm20 0h1v1h-1zm-154 1h1v1h-1zm4 0h1v1h-1zm92 0h1v1h-1zm9 0h1v1h-1zm26 3h1v1h-1zm-147 7h1v1h-1zm-7 1h1v1H7zm1 2h1v1H8zm167 0h1v14h-1zm36 2h1v1h-1zm-111 1h1v1h-1zm20 0h1v1h-1zm9 0h1v1h-1zm19 0h1v1h-1zm13 0h1v1h-1zm-123 1h1v1h-1zm58 0h1v1h-1zm7 0h1v1h-1zm36 0h1v1h-1zm69 0h1v1h-1zm-176 1h1v1h-1zm74 0h1v1h-1zm12 0h1v1h-1zm8 0h1v1h-1zm6 0h1v1h-1zm19 0h1v1h-1zm72 0h1v1h-1zm-39 1h1v1h-1zm-136 1h1v1h-1zm5 0h1v1h-1zm25 0h7v1h-7zm7 0h1v1h-1zm38 0h1v7h-1zm-71 3h1v1h-1zm91 0h1v1h-1zm-102 1h2v1h-2zm2 0h1v1h-1zm11 0h1v1h-1zm-29 1h1v1h-1zm191 0h1v1h-1zm-119 1h1v1h-1zm26 1h1v1h-1zm44 0h1v1h-1zm8 0h1v1h-1zm-6 1h1v1h-1zm37 0h1v1h-1zm-192 1h1v1h-1zm64 0h1v1h-1zm7 0h1v1h-1zm14 0h1v1h-1zm14 0h1v1h-1zm65 0h1v1h-1zm29 0h1v1h-1zm12 0h1v1h-1zm-101 1h1v1h-1zm13 0h1v1h-1zm13 4h1v1h-1z" fill="#002a8d"/><path d="M174 1h1v1h-1zM91 34h1v1h-1zm11 0h1v24h-1zm11 0h1v58h-1zm-21 3h1v1h-1zm4 10h1v1h-1zm6 11h1v1h-1zm-11 5h1v1h-1zm1 2h1v1h-1zm4 13h1v1h-1zm78 4h1v1h-1zM53 83h1v1h-1zm13 2h1v1h-1zm-12 5h1v1h-1zm46 1h1v1h-1zm13 1h1v1h-1zm14 2h1v1h-1zm44 4h1v1h-1zm-1 3h1v1h-1zm-3 7h1v1h-1zm-106 2h1v1h-1zm0 1h1v1h-1zm21 6h1v1h-1zm1 1h1v1h-1zm75 3h1v1h-1zm-86 4h1v1h-1zm82 1h1v1h-1zm-57 3h1v1h-1zm10 5h1v1h-1zm-21 3h1v1h-1zm51 2h1v1h-1zm-30 8h1v1h-1zm13 0h1v1h-1zm80 19h1v1h-1zm-170 1h1v1h-1zm7 0h1v1h-1zm109 1h1v1h-1zm52 1h1v1h-1zm0 1h1v1h-1zm-75 1h1v1h-1zm-74 1h1v1h-1zm100 0h1v1h-1zm1 0h1v1h-1zm10 0h1v1h-1zm26 0h1v1h-1zm16 0h1v1h-1zm-89 1h1v1h-1zm71 0h1v1h-1zm5 1h1v1h-1zm9 0h1v9h-1zm-112 1h1v1h-1zm71 0h1v1h-1zm9 0h1v1h-1zm-82 1h1v1h-1zm36 0h1v1h-1zm70 0h2v1h-2zm2 0h1v1h-1zm-91 1h1v1h-1zm26 1h1v1h-1zm-44 1h1v1h-1zm28 0h1v4h-1zm-18 1h1v1h-1zm-14 1h1v1h-1zm111 0h2v1h-2zm2 0h1v1h-1zm-98 1h1v1h-1zm-54 1h1v1h-1zm38 0h1v1h-1zm33 0h1v1h-1zm17 0h1v1h-1zm70 0h1v1h-1zm-105 1h1v1h-1zm-56 1h1v1h-1zm14 0h1v1h-1zm19 0h1v1h-1zm43 0h1v1h-1zm72 0h1v1h-1zm-38 1h1v1h-1zm16 2h1v1h-1zM1 196h1v1H1zm90 0h1v1h-1zm-82 4h1v1H9zm20 0h1v1h-1zm72 0h1v1h-1zm119 0h1v1h-1zm-210 1h1v1h-1zm19 0h1v1h-1zm1 0h1v1h-1zm9 0h3v1h-3zm3 0h1v1h-1zm8 0h1v1h-1zm1 0h1v1h-1zm8 0h2v1h-2zm2 0h1v1h-1zm43 0h1v1h-1zm10 0h1v1h-1zm1 0h1v1h-1zm26 0h1v1h-1zm1 0h1v1h-1zm21 0h1v1h-1zm31 0h1v1h-1zm1 0h1v1h-1zm8 0h1v1h-1zm1 0h1v1h-1zm16 0h1v1h-1zm1 0h1v1h-1zm-194 1h1v1h-1zm17 0h1v1h-1zm68 0h1v1h-1zm13 0h1v1h-1zm25 0h1v1h-1zm32 0h1v1h-1zm36 0h1v1h-1zm-10 1h1v1h-1zm-175 1h1v1h-1zm9 0h1v1h-1zm36 0h1v1h-1zm7 0h1v1h-1zm59 0h1v1h-1zm7 0h1v1h-1zm35 0h1v8h-1zm38 0h1v1h-1zm-63 1h1v1h-1zm1 1h1v1h-1zm-139 1h1v1h-1zm18 0h1v1h-1zm66 0h1v5h-1zm58 0h1v1h-1zm49 0h1v1h-1zm-191 1h1v1h-1zm76 0h1v1h-1zm115 0h1v1h-1zm-189 1h1v1h-1zm191 0h1v1h-1zm-200 1h1v1h-1zm37 0h1v1h-1zm51 0h1v1h-1zm48 0h2v1h-2zm2 0h1v1h-1zm13 1h1v1h-1zm47 0h1v1h-1zm-201 1h1v1h-1zm94 0h1v1h-1zm79 0h1v1h-1zm-139 1h1v1h-1zm51 0h1v1h-1zm7 1h1v1h-1zm31 0h1v1h-1zm29 0h1v1h-1zm8 1h1v1h-1zm35 0h1v1h-1zm-68 4h1v1h-1z" fill="#00278c"/><path d="M175 1h1v1h-1zm-39 32h1v22h-1zm-44 2h1v1h-1zm44 20h1v1h-1zm37 38h1v1h-1zm-1 4h1v1h-1zm-86 23h1v1h-1zm-17 2h1v1h-1zm88 1h1v1h-1zm-74 12h1v1h-1zm50 7h1v1h-1zm24 0h1v1h-1zm3 5h1v1h-1zm-52 1h1v1h-1zm11 0h1v1h-1zm-55 24h1v1h-1zm100 0h1v1h-1zm-80 1h1v1h-1zm71 0h1v1h-1zm42 0h1v1h-1zm6 0h1v1h-1zm-156 1h1v9h-1zm40 0h1v1h-1zm13 0h1v1h-1zm28 1h1v1h-1zm-24 2h1v1h-1zm78 0h1v1h-1zm-88 2h1v1h-1zm-17 3h1v1h-1zm112 0h1v1h-1zm-142 1h1v1h-1zm19 1h1v1h-1zm-2 1h1v1h-1zm-28 1h1v1h-1zm9 0h1v1h-1zm20 0h1v1h-1zm6 0h1v1h-1zm11 0h1v1h-1zm38 0h1v1h-1zm76 0h1v1h-1zm6 0h1v1h-1zm-45 4h1v1h-1zm-80 8h1v5h-1zm46 2h1v1h-1zm39 0h2v1h-2zm2 0h1v1h-1zm17 0h1v1h-1zm-47 1h1v1h-1zm-71 1h1v1h-1zm86 0h1v1h-1zm-72 1h1v1h-1zm55 2h1v1h-1zm-28 1h1v1h-1zm-91 1h1v1h-1zm64 0h1v5h-1zm150 1h1v1h-1zm-132 1h1v1h-1zm56 2h1v1h-1zm-74 1h1v1h-1zm-42 1h1v1h-1zm82 0h1v1h-1zm109 0h1v1h-1zm-123 1h1v1h-1zm58 0h1v1h-1zm-15 4h1v1h-1z" fill="#224698"/><path d="M67 13h46v1H67zm46 0h1v1h-1zm1 1h1v1h-1zM99 57h1v1h-1zm-10 8h1v27h-1zm4 5h1v1h-1zm2 5h1v1h-1zm-30 5h1v1h-1zm0 1h1v1h-1zm34 7h1v1h-1zm74 2h1v1h-1zm-84 2h1v1h-1zm-34 3h1v1h-1zm3 9h1v1h-1zm0 1h1v1h-1zm110 1h1v1h-1zm-93 3h1v1h-1zm92 0h1v1h-1zm-102 8h1v1h-1zm3 3h1v1h-1zm11 11h1v1h-1zm66 3h1v1h-1zm-61 1h1v1h-1zm20 11h1v1h-1zm6 2h1v1h-1zm7 0h1v1h-1zm-50 18h1v1h-1zm133 3h1v1h-1zm-155 3h1v1h-1zm1 0h1v1h-1zm7 0h1v1h-1zm63 0h1v1h-1zm8 0h1v1h-1zm14 0h1v1h-1zm27 0h1v1h-1zm-70 1h1v1h-1zm93 0h1v1h-1zm-111 1h1v1h-1zm-27 1h1v1h-1zm53 0h1v1h-1zm79 0h1v1h-1zm-70 1h1v1h-1zm-27 2h1v1h-1zm6 0h1v1h-1zm0 1h1v1h-1zm33 0h1v1h-1zm-95 1h1v1h-1zm130 0h2v1h-2zm2 0h1v1h-1zm-123 1h1v1h-1zm0 1h1v1h-1zm44 0h1v1h-1zm40 1h1v1h-1zm-91 1h1v1h-1zm64 0h1v1h-1zm5 0h1v1h-1zm-55 1h1v1h-1zm1 0h1v1h-1zm25 0h1v1h-1zm12 0h1v1h-1zm14 0h1v1h-1zm23 0h1v1h-1zm29 0h1v1h-1zm12 0h1v1h-1zm25 0h1v1h-1zm3 0h1v1h-1zm-5 1h1v1h-1zm-164 9h1v1h-1zm52 0h1v1h-1zm122 1h1v1h-1zM3 198h1v14H3zm119 2h1v1h-1zm9 0h1v1h-1zm18 0h1v1h-1zm33 0h1v1h-1zm-150 1h1v1h-1zm11 0h1v1h-1zm15 0h1v1h-1zm44 0h1v1h-1zm11 0h1v1h-1zm11 0h1v1h-1zm23 0h1v1h-1zm4 0h1v1h-1zm42 0h1v1h-1zm12 0h1v1h-1zm18 0h1v1h-1zm-213 1h1v1h-1zm15 0h1v1h-1zm96 0h1v1h-1zm9 0h1v1h-1zm4 0h1v1h-1zm82 0h1v1h-1zm-75 1h1v1h-1zm26 0h1v1h-1zm27 0h1v9h-1zm32 0h1v1h-1zm-167 1h1v1h-1zm20 0h5v1h-5zm5 0h1v1h-1zm42 0h1v1h-1zm28 1h1v1h-1zm23 0h1v1h-1zm7 0h1v1h-1zm-132 1h1v1h-1zm8 0h1v1h-1zm47 0h1v1h-1zm45 0h1v1h-1zm11 0h1v1h-1zm-63 1h1v1h-1zm-73 1h1v1h-1zm20 0h1v1h-1zm11 0h1v1h-1zm104 0h1v1h-1zm56 0h1v1h-1zm-195 1h1v1h-1zm75 0h1v1h-1zm116 0h1v1h-1zm-202 1h1v1h-1zm157 1h1v1h-1zM3 212h1v1H3zm21 0h1v1h-1zm9 0h1v2h-1zm161 0h1v1h-1zm30 0h1v2h-1zm-166 1h1v1h-1zm103 0h1v1h-1zM1 214h1v1H1zm25 0h1v1h-1zm7 0h1v1h-1zm10 0h1v1h-1zm11 0h1v1h-1zm37 0h1v1h-1zm126 0h1v1h-1zm7 0h1v1h-1zm-152 1h1v1h-1zm37 0h1v1h-1zm28 0h1v1h-1zm55 0h1v1h-1zm-51 2h1v1h-1zm4 2h1v1h-1z" fill="#00258c"/><path d="M126 32h1v1h-1zM97 49h1v1h-1zM66 83h1v1h-1zm13 11h9v1h-9zm9 0h1v1h-1zm14 0h11v1h-11zm11 0h1v1h-1zm-46 26h1v1h-1zm73 18h1v1h-1zm16 1h1v1h-1zm3 2h1v1h-1zm-3 4h1v1h-1zm-17 22h1v1h-1zm0 1h1v1h-1zm-94 3h4v1h-4zm4 0h1v1h-1zm16 0h3v1h-3zm3 0h1v1h-1zm6 0h4v1h-4zm4 0h1v1h-1zm6 0h3v1h-3zm3 0h1v1h-1zm13 0h1v1h-1zm8 0h2v1h-2zm2 0h1v1h-1zm25 0h3v1h-3zm3 0h1v1h-1zm5 0h1v1h-1zm6 0h1v1h-1zm1 0h1v1h-1zm6 0h4v1h-4zm4 0h1v1h-1zm5 0h4v1h-4zm4 0h1v1h-1zm27 0h1v1h-1zm6 0h1v1h-1zm-63 1h1v11h-1zm-55 11h1v1h-1zm16 0h1v1h-1zm39 0h1v1h-1zm-78 1h1v1h-1zm9 0h1v1h-1zm44 0h1v1h-1zm20 0h1v1h-1zm1 0h1v1h-1zm48 2h1v1h-1zm-9 11h1v1h-1zm-54 3h1v1h-1zm9 0h1v1h-1zm-104 1h1v1h-1zm191 0h1v1h-1zm-116 1h1v1h-1zm-61 1h1v1h-1zm56 1h1v1h-1zm-37 1h1v1h-1zm22 1h4v1h-4zm4 0h1v1h-1zm-38 3h1v1h-1zm117 0h1v1h-1zM6 213h1v1H6zm1 0h1v1H7zm65 0h1v1h-1zm1 0h1v1h-1zm6 0h1v1h-1zm104 0h1v1h-1zm-81 2h1v1h-1zm28 0h1v1h-1z" fill="#6979af"/><path d="M102 32h1v1h-1zm-3 22h1v1h-1zm1 3h1v1h-1zm-10 9h1v1h-1zM52 84h1v1h-1zm9 28h1v1h-1zm140 57h1v1h-1zm-107 2h1v1h-1zm34 0h1v1h-1zm24 0h1v1h-1zm2 2h1v1h-1zm-23 7h1v1h-1zm-12 1h1v1h-1zm47 1h1v1h-1zm17 0h1v1h-1zm-42 2h1v1h-1zm-40 2h1v1h-1zm63 1h1v1h-1zm3 13h1v1h-1zm-66 2h1v1h-1zm63 0h1v1h-1zm-141 1h1v1h-1zm164 0h1v1h-1zm-148 1h1v1h-1zm-17 2h1v1h-1zm28 0h1v1h-1zm163 0h1v1h-1zm-30 1h1v4h-1zm-139 1h1v1h-1zm139 3h1v1h-1zm-147 1h1v1h-1zm83 1h1v1h-1zm28 0h1v1h-1zM8 214h1v1H8zm0 1h1v1H8z" fill="#b3bcd6"/><path d="M93 36h1v1h-1zm-2 30h1v1h-1zm84 19h1v1h-1zM54 96h1v1h-1zm117 6h1v1h-1zm-93 9h1v1h-1zm-6 15h1v1h-1zm1 1h1v1h-1zm23 0h1v1h-1zm-22 1h1v1h-1zm86 12h1v1h-1zm-69 1h1v1h-1zm35 5h1v1h-1zm-17 3h1v1h-1zm45 1h1v1h-1zM23 166h1v1h-1zm112 0h1v2h-1zm-112 1h1v1h-1zm112 1h1v1h-1zm-77 3h1v1h-1zm73 1h1v1h-1zm-12 1h1v1h-1zm-59 1h1v1h-1zm67 0h1v1h-1zm33 0h1v1h-1zm-29 1h1v1h-1zm4 0h1v7h-1zm-11 1h1v1h-1zm4 0h1v1h-1zm0 1h1v1h-1zm-48 3h1v1h-1zm87 0h1v1h-1zm-137 1h1v1h-1zm46 0h1v1h-1zm59 1h1v1h-1zm-73 3h1v1h-1zm103 0h1v1h-1zm26 0h1v1h-1zm-129 1h1v1h-1zm60 0h1v1h-1zm50 8h1v1h-1zm-89 1h1v1h-1zm0 1h1v1h-1zm90 1h1v1h-1zm-154 1h1v1h-1zm-4 1h1v9h-1zm33 1h1v1h-1zm80 0h1v1h-1zm32 0h1v1h-1zm-115 1h1v1h-1zm66 0h1v1h-1zm-66 1h1v1h-1zm110 2h1v1h-1zm-133 1h1v1h-1zm10 0h1v1h-1zm63 0h1v1h-1zm118 0h1v1h-1zm10 0h1v1h-1zm-196 1h1v1h-1zm191 0h1v1h-1zm-174 1h1v1h-1zm7 0h1v1h-1zm6 0h1v1h-1zm4 0h1v1h-1zm-46 1h1v1h-1zm192 0h1v3h-1zm-46 1h1v1h-1zm-67 1h1v2h-1zm113 1h1v1h-1zm-113 1h1v1h-1zm70 1h1v1h-1zm-105 1h1v1h-1zm24 0h1v1h-1zm28 0h1v1h-1zm69 0h1v1h-1zm-97 1h1v1h-1zm28 0h1v1h-1zm-83 1h1v1h-1zm70 0h1v1h-1zm52 0h1v1h-1z" fill="#dee3ee"/><path d="M98 52h1v1h-1zm-5 19h1v1h-1zm4 13h1v1h-1zm-44 5h1v1h-1zm1 5h1v1h-1zm24 0h1v1h-1zm11 0h1v1h-1zm12 0h1v1h-1zm-29 9h1v1h-1zm91 13h1v1h-1zm-84 16h1v1h-1zm30 2h1v1h-1zm48 10h1v1h-1zm-2 3h1v1h-1zm-16 19h1v1h-1zm-101 3h1v1h-1zm35 2h1v1h-1zm6 0h1v1h-1zm4 0h1v1h-1zm5 0h1v1h-1zm19 0h1v1h-1zm4 0h1v1h-1zm18 0h1v1h-1zm1 0h1v1h-1zm4 0h1v1h-1zm17 0h1v1h-1zm4 0h1v1h-1zm6 0h1v1h-1zm34 2h1v1h-1zm-121 1h1v1h-1zm30 2h1v1h-1zm78 2h1v1h-1zm0 1h1v1h-1zm-57 1h1v1h-1zm-31 1h1v1h-1zm33 0h1v1h-1zm32 1h1v1h-1zm-99 2h1v1h-1zM1 197h1v1H1zm77 0h1v1h-1zm7 0h1v1h-1zm6 0h1v1h-1zm93 3h1v1h-1zm-67 2h1v1h-1zm-90 1h1v1h-1zm95 0h1v1h-1zm96 0h1v1h-1zm9 3h1v1h-1zm-83 3h1v1h-1zm-60 4h1v1h-1zm113 0h1v1h-1zm-67 1h1v1h-1zm23 0h1v1h-1z" fill="#5d72ad"/><g fill="#fff"><path d="M0 0h51v164H0zm51 0h1v171h-1zm125 0h51v164h-51zm51 0h1v202h-1zM67 15h46v16H67zm46 0h1v16h-1zM67 31h46v1H67zm46 0h1v1h-1zm-46 1h9v53h-9zm9 0h1v76h-1zm16 0h8v1h-8zm8 0h1v24h-1zm-7 1h7v2h-7zm21 0h11v60h-11zm11 0h1v60h-1zm12 0h12v35h-12zm12 0h1v60h-1zm-56 2h7v1h-7zm1 1h6v2h-6zm0 2h6v1h-6zm1 1h5v2h-5zm0 2h5v1h-5zm1 1h4v2h-4zm0 2h4v1h-4zm1 1h3v2h-3zm0 2h3v1h-3zm1 1h2v2h-2zm0 2h2v1h-2zm1 1h1v1h-1zm0 1h1v1h-1zm1 4h1v1h-1z"/><path d="M126 57h23v11h-23zM91 67h1v56h-1zm35 1h23v1h-23zm0 1h1v1h-1zm12 0h11v24h-11zm-46 1h1v53h-1zm1 4h1v50h-1zm1 3h1v48h-1zm1 3h1v46h-1zm1 3h1v43h-1zm-29 2h9v1h-9zm1 1h8v4h-8zm-16 1h1v83h-1zm45 0h1v40h-1zm78 0h52v77h-52zM68 90h8v1h-8zm30 0h1v38h-1zm-29 1h7v3h-7zm-16 2h1v77h-1zm46 0h1v35h-1zm15 0h11v1h-11zm11 0h1v1h-1zm13 0h11v1h-11zm11 0h1v1h-1z"/><path d="M174 93h53v71h-53zM69 94h7v1h-7zm1 1h43v2H70zm43 0h1v39h-1zm-59 2h1v72h-1zm16 0h43v1H70z"/><path d="M173 97h54v67h-54zM71 98h42v1H71zm0 1h42v1H71zm-16 1h1v69h-1zm17 0h41v1H72z"/><path d="M172 100h55v64h-55zm-100 1h41v1H72zm1 1h40v1H73zm-17 1h1v67h-1zm17 0h40v1H73z"/><path d="M171 103h56v61h-56zm-97 1h39v1H74zm0 1h39v1H74z"/><path d="M170 105h57v59h-57zm-113 1h1v64h-1zm18 0h38v1H75zm2 1h36v2H77zm-19 1h1v62h-1z"/><path d="M76 108h37v1H76zm93 0h58v56h-58zm-92 1h36v1H77zm-18 1h1v61h-1zm19 0h35v1H78z"/><path d="M168 110h59v54h-59zm-108 1h1v62h-1zm19 0h34v1H79z"/><path d="M167 111h60v53h-60zm-87 1h33v1H80zm-19 1h1v70h-1zm20 0h32v1H81z"/><path d="M166 113h61v51h-61zm-85 1h32v1H81zm-19 1h1v68h-1zm20 0h31v1H82z"/><path d="M165 115h62v49h-62zm-102 1h1v83h-1zm20 0h30v1H83z"/><path d="M164 116h63v48h-63zm-80 1h29v1H84zm-20 1h1v52h-1zm21 0h28v1H85z"/><path d="M163 118h64v46h-64zm-98 1h1v51h-1zm21 0h27v1H86z"/><path d="M162 119h65v23h-65zm-96 1h1v44h-1zm22 0h25v1H88z"/><path d="M161 120h66v20h-66zm-94 1h1v43h-1zm22 0h24v1H89z"/><path d="M160 121h67v18h-67zm-92 1h1v42h-1zm22 0h23v1H90z"/><path d="M159 122h68v17h-68zm-68 1h22v1H91zm-22 1h1v40h-1zm24 0h20v1H93z"/><path d="M158 124h69v14h-69zm-88 1h1v39h-1zm24 0h19v1H94z"/><path d="M157 125h70v13h-70zm-86 1h1v57h-1zm24 0h18v1H95z"/><path d="M156 126h71v12h-71zm-84 1h1v43h-1zm25 0h16v1H97z"/><path d="M155 127h72v11h-72zm-82 1h1v42h-1zm25 0h15v1H98z"/><path d="M154 128h73v10h-73zm-80 1h1v41h-1zm26 0h13v1h-13z"/><path d="M153 129h74v9h-74zm-78 1h1v40h-1zm27 0h11v1h-11z"/><path d="M152 130h75v8h-75zm-76 1h1v39h-1zm28 0h9v1h-9z"/><path d="M150 131h77v7h-77zm-73 1h1v38h-1zm1 0h1v38h-1zm28 0h7v1h-7z"/><path d="M149 132h78v6h-78zm-70 1h1v37h-1zm30 0h4v1h-4z"/><path d="M148 133h79v5h-79zm-68 1h1v36h-1zm31 0h2v1h-2zm2 0h1v1h-1z"/><path d="M147 134h80v4h-80zm-66 1h1v45h-1z"/><path d="M146 135h81v3h-81zm-64 1h1v34h-1zm1 0h1v34h-1z"/><path d="M144 136h83v2h-83zm-60 1h1v33h-1z"/><path d="M143 137h84v1h-84zm-58 1h1v32h-1zm57 0h85v1h-85zm-56 1h1v31h-1zm1 0h1v31h-1zm53 0h13v1h-13zm13 0h1v1h-1zm6 0h68v1h-68zm-71 1h1v30h-1zm50 0h13v3h-13zm13 0h1v1h-1zm10 0h66v1h-66zm-72 1h1v29h-1zm1 0h1v34h-1z"/><path d="M137 141h13v23h-13zm17 0h4v1h-4zm4 0h1v1h-1zm-67 1h1v31h-1zm1 0h1v29h-1z"/><path d="M135 142h15v22h-15zm18 0h1v5h-1zm6 0h1v4h-1zm3 0h65v1h-65zm-69 1h1v28h-1zm1 0h1v27h-1z"/><path d="M133 143h17v21h-17zm17 0h1v1h-1zm6 0h1v1h-1zm-61 1h1v26h-1zm1 0h1v25h-1z"/><path d="M131 144h18v20h-18zm-34 1h1v24h-1zm1 0h1v24h-1z"/><path d="M129 145h20v19h-20zm-30 1h1v24h-1zm1 0h1v24h-1z"/><path d="M127 146h23v18h-23zm23 0h1v24h-1zm6 0h1v2h-1zm3 0h1v1h-1zm-58 1h1v23h-1zm1 0h1v24h-1z"/><path d="M125 147h25v17h-25zm28 0h1v1h-1zm9 0h65v17h-65zm-59 1h2v24h-2zm2 0h1v51h-1z"/><path d="M122 148h29v16h-29zm29 0h1v22h-1zm4 0h3v1h-3zm3 0h1v1h-1zm-52 1h2v21h-2zm2 0h1v21h-1z"/><path d="M119 149h32v15h-32zm42 0h66v15h-66zm-52 1h2v20h-2zm2 0h1v20h-1z"/><path d="M116 150h37v14h-37zm37 0h1v30h-1zm6 0h68v14h-68z"/><path d="M112 151h115v13H112zM0 164h227v1H0zm0 1h23v29H0zm23 0h1v1h-1zm10 0h2v18h-2zm2 0h1v1h-1zm9 0h21v1H44zm68 0h22v4h-22zm22 0h1v5h-1zm6 0h58v1h-58zm58 0h1v1h-1zm8 0h21v34h-21zm-161 1h20v3H45zm95 0h57v1h-57zm57 0h1v1h-1zm-57 1h6v1h-6zm6 0h1v1h-1zm3 0h47v2h-47zm47 0h1v3h-1zm-56 1h3v2h-3zm3 0h1v2h-1z"/><path d="M203 168h24v2h-24zm-180 1h1v33h-1zm1 0h1v32h-1zm6 0h7v10h-7zm7 0h1v12h-1zm5 0h101v1H42zm107 0h47v1h-47z"/><path d="M202 169h25v1h-25zm-160 1h11v1H42zm11 0h1v1h-1zm3 0h39v1H56zm39 0h1v1h-1zm4 0h16v1H99zm16 0h8v1h-8zm8 0h1v1h-1zm3 0h17v1h-17zm17 0h1v1h-1zm6 0h35v1h-35zm35 0h1v1h-1zm3 0h9v1h-9zm9 0h1v1h-1zm6 0h25v1h-25zm-160 1h2v28h-2zm2 0h1v28h-1zm7 0h1v1h-1zm8 0h4v1h-4zm33 0h1v1h-1zm1 0h1v1h-1zm9 0h3v1h-3zm11 0h1v1h-1zm5 0h2v1h-2zm2 0h1v1h-1zm12 0h1v28h-1zm8 0h1v12h-1zm1 0h1v12h-1zm21 0h1v7h-1zm1 0h1v8h-1zm9 0h9v1h-9zm9 0h1v1h-1zm9 0h4v1h-4zm4 0h1v22h-1zm10 0h23v28h-23zm-101 1h2v1h-2zm15 0h1v28h-1zm1 0h1v1h-1zm53 0h8v1h-8zm8 0h1v1h-1zm12 0h2v1h-2zm-132 1h3v1h-3zm31 0h1v1h-1zm13 0h1v1h-1zm68 0h7v2h-7zm7 0h1v1h-1zm14 0h1v1h-1zm-148 1h1v9h-1zm1 0h1v9h-1zm7 0h1v25h-1zm1 0h1v9h-1zm10 0h1v9h-1zm1 0h1v9h-1zm7 0h1v20h-1zm1 0h1v20h-1zm6 0h4v2h-4zm4 0h1v1h-1zm5 0h2v20h-2zm8 0h3v2h-3zm3 0h1v2h-1zm7 0h1v9h-1zm1 0h1v9h-1zm17 0h2v1h-2zm2 0h1v2h-1zm7 0h1v9h-1zm1 0h1v9h-1zm8 0h1v25h-1zm1 0h1v25h-1zm6 0h6v6h-6zm6 0h1v29h-1z"/><path d="M161 174h3v2h-3zm3 0h1v2h-1zm6 0h8v19h-8zm15 0h2v9h-2zm2 0h1v9h-1zm6 0h3v1h-3zm3 0h1v9h-1zm6 0h25v9h-25zm-150 1h3v8h-3zm3 0h1v8h-1zm35 0h1v1h-1zm24 0h4v8h-4zm10 0h3v1h-3zm3 0h1v1h-1zm51 0h1v1h-1z"/><path d="M184 175h4v7h-4zm4 0h1v7h-1zm7 0h1v8h-1zm-121 1h1v18h-1zm5 0h3v1h-3zm3 0h1v1h-1zm13 0h4v1h-4zm4 0h1v1h-1zm26 0h2v1h-2zm2 0h1v1h-1zm34 0h3v1h-3zm3 0h1v1h-1zm5 0h8v17h-8zm-89 1h2v2h-2zm2 0h1v1h-1zm5 0h2v17h-2zm26 0h5v6h-5zm16 0h5v1h-5zm27 0h1v43h-1z"/><path d="M183 177h5v4h-5zm-64 1h1v2h-1zm12 0h3v1h-3zm31 0h1v1h-1zm6 0h9v15h-9zm-138 1h7v1h-7zm45 0h1v15h-1zm5 0h1v1h-1zm40 0h1v1h-1zm11 0h3v1h-3zm26 0h1v9h-1zm6 0h1v1h-1zm-138 1h1v20h-1zm6 0h6v2h-6zm50 0h1v1h-1zm5 0h3v14h-3zm9 0h12v1H95zm24 0h3v1h-3zm3 0h1v1h-1zm27 0h8v1h-8zm-112 1h1v1h-1zm58 0h12v1H95zm28 0h3v1h-3zm3 0h1v2h-1zm23 0h1v2h-1zm5 0h3v20h-3z"/><path d="M167 181h10v12h-10zm16 0h5v1h-5zm-152 1h5v1h-5zm5 0h1v1h-1zm40 0h1v12h-1zm14 0h1v12h-1zm6 0h3v1h-3zm3 0h1v1h-1zm24 0h3v1h-3zm35 0h1v6h-1zm20 0h1v11h-1zm6 0h4v1h-4zm4 0h1v1h-1zm-156 1h3v1h-3zm3 0h1v1h-1zm10 0h1v1h-1zm1 0h1v1h-1zm5 0h4v1h-4zm4 0h1v1h-1zm6 0h4v1h-4zm4 0h1v1h-1zm6 0h5v1h-5zm14 0h5v11h-5zm11 0h3v1h-3zm3 0h1v1h-1zm7 0h1v1h-1zm1 0h1v1h-1zm6 0h5v1h-5zm11 0h2v1h-2zm2 0h1v1h-1zm7 0h1v1h-1zm1 0h1v1h-1zm6 0h3v1h-3zm9 0h1v1h-1z"/><path d="M166 183h12v10h-12zm19 0h2v1h-2zm2 0h1v1h-1zm6 0h3v1h-3zm3 0h1v1h-1zm6 0h25v1h-25zm-176 1h1v15h-1zm15 0h3v15h-3zm50 0h1v10h-1zm13 0h1v15h-1zm12 0h2v15h-2zm37 0h6v4h-6zm6 0h1v4h-1zm20 0h1v16h-1zm14 0h1v9h-1zm-166 1h1v14h-1z"/><path d="M40 185h4v14h-4zm37 0h1v9h-1zm7 0h8v9h-8zm8 0h1v9h-1zm39 0h1v14h-1zm13 0h1v14h-1zm36 0h1v14h-1zm12 0h2v8h-2zm-164 1h1v13h-1z"/><path d="M39 186h5v13h-5zm54 0h1v34h-1zm9 0h3v13h-3zm28 0h2v13h-2zm15 0h1v14h-1zm7 0h7v2h-7zm13 0h16v7h-16zm16 0h1v13h-1zm10 0h3v7h-3zm-162 1h2v12h-2zm2 0h1v12h-1z"/><path d="M36 187h60v7H36zm60 0h1v13h-1zm3 0h25v12H99zm25 0h1v12h-1zm4 0h19v12h-19zm19 0h1v12h-1zm3 0h9v1h-9zm32 0h2v12h-2zm2 0h1v12h-1zm4 0h39v6h-39z"/><path d="M32 188h127v1H32zm127 0h1v1h-1zm5 0h63v5h-63zm-132 1h124v5H32z"/><path d="M163 190h64v3h-64z"/><path d="M162 191h65v2h-65z"/><path d="M157 192h70v1h-70zm0 1h70v1h-70zM0 194h171v1H0zm171 0h1v26h-1zm14 0h7v5h-7zm7 0h1v5h-1zm6 0h29v5h-29zM9 195h3v1H9zm3 0h1v8h-1zm10 0h48v4H22zm48 0h1v25h-1zm11 0h1v8h-1zm1 0h1v8h-1zm12 0h77v4H94zm-85 1h3v1H9zm1 1h2v1h-2zm-10 1h1v14H0zm1 0h1v14H1z"/><path d="M10 198h4v1h-4zm4 0h1v9h-1zm6 0h52v1H20zm52 0h1v14h-1zm6 0h7v5h-7zm7 0h1v5h-1zm6 0h82v1H91zm82 0h1v14h-1zm-162 1h3v1h-3zm9 0h52v1H20zm71 0h82v1H91zm89 0h47v1h-47zm-169 1h3v1h-3zm9 0h5v1h-5zm5 0h1v1h-1zm9 0h2v1h-2zm2 0h1v3h-1zm10 0h1v6h-1zm1 0h1v2h-1zm7 0h2v2h-2zm2 0h1v10h-1zm8 0h8v12h-8zm27 0h6v1h-6zm6 0h1v1h-1zm9 0h4v1h-4zm4 0h1v20h-1zm8 0h1v1h-1zm8 0h1v1h-1zm1 0h1v1h-1zm7 0h3v1h-3zm3 0h1v12h-1zm8 0h1v1h-1zm8 0h6v1h-6zm6 0h1v1h-1zm11 0h3v8h-3zm9 0h1v1h-1zm7 0h4v1h-4zm4 0h1v20h-1zm8 0h2v12h-2zm2 0h1v20h-1zm7 0h1v1h-1zm6 0h3v1h-3zm3 0h1v1h-1zm9 0h2v1h-2zm-212 1h1v4h-1zm7 0h4v1h-4zm4 0h1v1h-1zm11 0h1v1h-1zm56 0h4v8h-4zm4 0h1v1h-1zm12 0h3v1h-3zm19 0h1v1h-1zm9 0h2v1h-2zm19 0h4v1h-4zm4 0h1v1h-1zm29 0h3v1h-3zm26 0h2v1h-2zm2 0h1v1h-1zm11 0h1v1h-1zm-206 1h3v2h-3zm3 0h1v1h-1zm24 0h1v1h-1zm7 0h2v1h-2zm41 0h1v1h-1zm13 0h2v10h-2zm28 0h1v1h-1zm21 0h1v18h-1zm31 0h2v10h-2zm25 0h1v2h-1zm1 0h1v1h-1zm13 0h1v1h-1zM7 203h1v9H7z"/><path d="M12 203h2v1h-2zm16 0h2v2h-2zm2 0h1v2h-1zm6 0h2v1h-2zm2 0h1v17h-1zm6 0h2v3h-2zm11 0h2v3h-2zm2 0h1v3h-1zm6 0h9v9h-9zm15 0h7v1h-7zm7 0h1v1h-1zm15 0h2v2h-2zm2 0h1v2h-1zm9 0h1v9h-1zm1 0h1v9h-1zm8 0h1v17h-1zm9 0h1v17h-1zm1 0h1v9h-1zm6 0h3v1h-3zm3 0h1v14h-1zm8 0h2v9h-2zm2 0h1v9h-1zm6 0h2v1h-2zm8 0h2v2h-2zm2 0h1v2h-1zm15 0h1v9h-1zm1 0h1v9h-1zm10 0h1v9h-1zm1 0h1v9h-1zm9 0h1v9h-1zm1 0h1v9h-1zm17 0h2v2h-2zm2 0h1v2h-1zm-201 1h2v16h-2zm2 0h1v1h-1zm9 0h1v1h-1zm6 0h1v16h-1zm66 0h1v1h-1z"/><path d="M119 204h2v8h-2zm2 0h1v8h-1zm7 0h2v8h-2zm10 0h1v13h-1zm8 0h4v8h-4zm4 0h1v7h-1zm12 0h4v1h-4zm4 0h1v1h-1zm13 0h3v8h-3zm3 0h1v8h-1zm27 0h4v8h-4zm4 0h1v1h-1zm9 0h1v1h-1zM8 205h1v7H8zm5 0h1v1h-1zm14 0h4v1h-4zm4 0h1v1h-1zm31 0h10v7H62zm37 0h4v1h-4zm4 0h1v1h-1z"/><path d="M118 205h4v7h-4zm4 0h1v7h-1zm9 0h1v7h-1zm32 0h3v1h-3zm3 0h1v1h-1zm42 0h4v7h-4zm10 0h4v1h-4zm4 0h1v1h-1zm-183 1h1v14h-1zm5 0h2v1h-2zm2 0h1v1h-1zm9 0h2v1h-2zm2 0h1v1h-1zm38 0h2v1h-2zm2 0h1v1h-1zm30 0h4v6h-4zm18 0h5v4h-5zm22 0h6v1h-6zM9 207h1v13H9zm5 0h1v1h-1zm31 0h1v3h-1zm33 0h7v5h-7zm7 0h1v5h-1zm10 0h1v1h-1zm63 0h1v2h-1zm11 0h4v1h-4zm-119 1h1v12h-1zm1 0h1v12h-1zm10 0h11v4H61zm109 0h3v1h-3zm-160 1h1v11h-1z"/><path d="M27 209h13v1H27zm13 0h1v11h-1zm51 0h3v3h-3zm3 0h1v1h-1zm6 0h3v3h-3zm3 0h1v1h-1zm55 0h2v1h-2zm2 0h1v1h-1zm12 0h1v3h-1zm46 0h9v1h-9zm9 0h1v1h-1zm-200 1h13v1H27zm18 0h1v1h-1zm11 0h1v1h-1z"/><path d="M99 210h4v2h-4zm4 0h1v1h-1zm42 0h5v1h-5zm17 0h2v2h-2zm2 0h1v2h-1zm54 0h9v1h-9zm9 0h1v1h-1zm-205 1h1v9h-1zm5 0h4v1h-4zm4 0h1v1h-1zm119 0h1v1h-1zm15 0h1v1h-1zm48 0h1v9h-1zm5 0h4v1h-4zm4 0h1v1h-1zM0 212h1v1H0zm1 0h1v1H1zm6 0h4v1H7zm4 0h1v8h-1zm17 0h3v1h-3zm3 0h1v1h-1zm18 0h3v8h-3zm3 0h1v8h-1zm8 0h12v1H60zm12 0h1v1h-1zm6 0h7v1h-7zm7 0h1v1h-1zm6 0h2v1h-2zm8 0h3v1h-3zm3 0h1v1h-1zm6 0h4v1h-4zm4 0h1v1h-1zm6 0h4v1h-4zm4 0h1v1h-1zm5 0h4v1h-4zm4 0h1v1h-1zm6 0h2v1h-2zm9 0h3v1h-3zm3 0h1v1h-1zm6 0h2v8h-2zm7 0h3v1h-3zm3 0h1v1h-1zm7 0h1v1h-1zm1 0h1v1h-1zm6 0h3v1h-3zm3 0h1v1h-1zm6 0h4v1h-4zm4 0h1v1h-1zm6 0h4v1h-4zm4 0h1v1h-1zm6 0h5v1h-5zm11 0h3v1h-3zm3 0h1v1h-1zm-199 1h1v7h-1zm13 0h5v7h-5zm5 0h1v7h-1zm19 0h10v7H60zm21 0h1v7h-1zm1 0h1v7h-1zm12 0h1v7h-1zm76 0h1v7h-1z"/><path d="M210 213h4v7h-4zm4 0h1v7h-1zm13 0h1v7h-1zm-215 1h1v6h-1zm142 0h3v6h-3zm-130 1h1v5h-1zm10 0h7v5h-7zm14 0h4v5h-4zm11 0h11v5H59zm36 0h1v5h-1zm50 0h1v2h-1z"/><path d="M153 215h4v5h-4zm16 0h2v5h-2zm46 0h1v5h-1zm10 0h2v5h-2zM0 216h27v4H0zm27 0h1v4h-1zm5 0h65v4H32zm65 0h1v4h-1zm5 0h37v1h-37zm44 0h1v1h-1z"/><path d="M151 216h11v4h-11zm11 0h1v4h-1zm5 0h51v4h-51zm51 0h1v4h-1zm5 0h4v4h-4zm-195 1h112v1H28zm112 0h1v1h-1z"/><path d="M145 217h82v1h-82zm-117 1h109v2H28zm109 0h1v2h-1zm10 0h80v2h-80zM0 220h137v1H0zm137 0h1v1h-1zm10 0h80v1h-80zm80 0h1v1h-1z"/></g><path d="M175 2h1v72h-1zm-39 54h1v1h-1zm39 18h1v1h-1zM52 76h1v1h-1zm0 1h1v1h-1zm43 0h1v1h-1zM67 90h1v1h-1zm32 0h1v1h-1zm-26 15h1v1h-1zm7 9h1v1h-1zm15 13h1v1h-1zm5 3h1v1h-1zm50 0h1v1h-1zm10 12h1v1h-1zm-1 7h1v1h-1zm42 16h1v1h-1zm-53 6h1v1h-1zm-98 2h1v1h-1zm23 0h1v1h-1zm6 0h1v1h-1zm9 0h1v1h-1zm20 0h1v1h-1zm26 0h1v1h-1zm36 0h1v1h-1zm31 0h1v1h-1zm-119 7h1v1h-1zm9 2h1v1h-1zm-10 1h1v1h-1zm-46 1h1v1h-1zm68 0h1v1h-1zm36 0h1v2h-1zm-93 2h5v1h-5zm5 0h1v1h-1zm5 0h4v1h-4zm4 0h1v1h-1zm6 0h4v1h-4zm4 0h1v1h-1zm10 0h1v1h-1zm1 0h1v1h-1zm27 0h5v1h-5zm5 0h1v1h-1zm22 0h4v1h-4zm4 0h1v1h-1zm58 0h4v1h-4zm4 0h1v1h-1zm-44 3h1v1h-1zm1 0h1v1h-1zm4 1h1v1h-1zm-76 7h1v1h-1zm64 3h1v1h-1zm-102 2h1v1h-1zm132 0h1v1h-1zm26 0h1v1h-1zM9 205h1v1H9zm77 1h1v1h-1zm-50 1h1v1h-1zm8 3h1v1h-1zm88 3h1v1h-1zm14 0h1v1h-1zm57 0h1v1h-1zm-59 2h1v2h-1zm0 2h1v1h-1zm-5 1h1v1h-1z" fill="#2e4a99"/><path d="M67 14h45v1H67zm45 0h1v1h-1zm-11 44h1v1h-1zm-7 17h1v1h-1zm4 13h1v1h-1zm-44 7h1v1h-1zm3 9h1v1h-1zm97 38h1v1h-1zm-50 5h1v1h-1zm85 24h1v1h-1zm-35 1h1v1h-1zm-30 1h1v1h-1zm28 0h1v1h-1zm-66 5h1v1h-1zm4 0h1v1h-1zm-53 4h1v1h-1zm44 0h1v1h-1zm50 1h1v1h-1zm-7 1h1v1h-1zm71 0h1v1h-1zm-43 1h1v1h-1zm-98 1h1v1h-1zm97 0h1v1h-1zm-71 9h1v1h-1zm117 0h1v2h-1zm-117 1h1v1h-1zm-59 1h1v1h-1zm176 0h1v1h-1zM2 199h1v12H2zm96 1h1v1h-1zm103 0h1v1h-1zm-167 1h1v1h-1zm163 0h1v1h-1zm28 0h1v1h-1zm-46 2h1v1h-1zm14 0h1v1h-1zm-181 1h1v1h-1zm115 0h1v1h-1zm28 1h1v1h-1zm12 0h2v1h-2zm2 0h1v1h-1zm14 0h1v1h-1zm-32 1h1v1h-1zm-141 2h1v1h-1zm47 0h1v1h-1zm160 1h1v1h-1zm-57 1h1v1h-1zM2 211h1v1H2zm168 0h1v1h-1zm23 1h1v1h-1zm-85 1h1v1h-1zm20 0h1v1h-1zm-48 1h1v1h-1zm24 1h1v1h-1zm48 0h1v1h-1z" fill="#a2aece"/><path d="M65 15h1v62h-1zm29 27h1v1h-1zm1 3h1v1h-1zm2 5h1v1h-1zm1 3h1v1h-1zm29 2h1v1h-1zM92 66h1v1h-1zm1 3h1v1h-1zm35 1h7v1h-7zm7 0h1v1h-1zm-70 7h1v1h-1zm31 2h1v1h-1zm1 3h1v1h-1zm77 3h1v2h-1zM66 87h1v1h-1zm108 0h1v1h-1zm-74 5h1v1h-1zm13 1h1v1h-1zm-45 2h1v1h-1zm1 3h1v1h-1zm-13 1h1v1h-1zm112 8h1v1h-1zm-108 2h1v1h-1zm2 3h1v1h-1zm102 2h1v1h-1zm-100 1h1v1h-1zm3 4h1v1h-1zm23 5h1v1h-1zm-10 8h1v1h-1zm2 2h1v1h-1zm76 6h1v1h-1zm-26 2h1v1h-1zm-4 2h1v1h-1zm-25 2h1v1h-1zm21 0h1v1h-1zm34 0h1v1h-1zm-22 22h1v1h-1zm9 2h1v1h-1zm-48 1h1v1h-1zm27 0h1v1h-1zm1 0h1v1h-1zm60 0h1v1h-1zm1 0h1v1h-1zm-92 1h1v1h-1zm31 0h2v1h-2zm2 0h1v1h-1zm34 0h1v1h-1zm-59 1h1v1h-1zm28 0h1v1h-1zm-38 1h1v1h-1zm38 0h1v1h-1zm6 0h1v9h-1zm9 0h1v9h-1zm21 0h1v1h-1zm-107 1h1v8h-1zm-9 1h1v1h-1zm74 1h1v1h-1zm-48 1h1v1h-1zm19 0h4v1h-4zm4 0h1v1h-1zm22 0h1v1h-1zm37 0h1v1h-1zm32 0h1v1h-1zm-67 1h1v1h-1zm38 0h1v1h-1zm29 0h1v1h-1zm-64 1h1v1h-1zm4 0h1v1h-1zm34 0h1v1h-1zm15 0h1v1h-1zm-150 1h1v1h-1zm55 1h1v1h-1zm36 0h1v1h-1zm-90 1h1v1h-1zm7 0h1v1h-1zm22 0h1v1h-1zm77 0h1v1h-1zm9 0h1v1h-1zm-109 1h1v1h-1zm155 0h1v1h-1zm-90 1h1v1h-1zm22 0h1v1h-1zm23 0h1v1h-1zm50 0h1v1h-1zm-164 1h1v1h-1zm3 0h1v1h-1zm61 0h1v1h-1zm3 0h1v1h-1zm28 0h1v1h-1zm60 0h1v1h-1zM7 195h1v1H7zm167 0h2v1h-2zm2 0h1v1h-1zm-104 1h1v1h-1zm-64 1h1v1H8zm8 1h2v1h-2zm2 0h1v17h-1zm-2 1h2v1h-2zm0 1h2v1h-2zm-11 1h1v1H5zm11 0h2v1h-2zm36 0h1v1h-1zm91 0h1v1h-1zm26 0h1v1h-1zm33 0h1v1h-1zm-186 1h2v1h-2zm102 0h1v1h-1zm1 0h1v1h-1zm9 0h1v1h-1zm51 0h1v1h-1zm-163 1h2v1h-2zm43 0h1v1h-1zm86 0h1v1h-1zm33 0h1v1h-1zM9 204h1v1H9zm7 0h2v1h-2zm10 0h1v1h-1zm35 0h1v1h-1zm36 0h1v1h-1zm26 0h1v1h-1zm12 0h1v8h-1zm26 0h1v1h-1zm8 0h1v1h-1zm-153 1h2v1h-2zm17 0h1v1h-1zm191 0h1v1h-1zm-208 1h2v1h-2zm0 1h2v1h-2zm11 0h4v1h-4zm4 0h1v1h-1zm21 0h1v1h-1zm51 0h1v1h-1zm63 0h1v1h-1zm40 0h1v5h-1zm12 0h4v1h-4zm4 0h1v1h-1zm-209 1h1v1h-1zm3 0h2v1h-2zm25 0h1v1h-1zm127 0h1v1h-1zm-152 1h2v1h-2zm149 0h1v1h-1zm-142 1h1v1h-1zm191 0h1v1h-1zm-170 1h2v1h-2zm9 0h1v1h-1zm42 0h1v1h-1zm9 0h1v1h-1zm40 0h1v1h-1zm10 0h1v1h-1zm5 0h1v1h-1zm-24 1h1v1h-1zm34 0h1v1h-1zm37 0h1v1h-1zm-179 1h1v1h-1zm123 0h1v1h-1zm68 0h1v1h-1zm-118 1h1v1h-1zm31 0h1v1h-1zm21 0h1v1h-1zm11 0h1v1h-1zm1 0h1v1h-1zm-146 1h1v1h-1zm25 0h1v1h-1zm11 0h1v1h-1zm46 0h1v1h-1zm82 0h1v1h-1zm16 0h1v1h-1z" fill="#001d8a"/><path d="M114 31h1v1h-1zm-36 2h1v1h-1zm13 0h1v1h-1zm36 37h1v1h-1zm9 0h1v1h-1zm-22 25h1v1h-1zm40 45h1v1h-1zm6 1h1v1h-1zm1 2h1v3h-1zm-10 1h1v1h-1zm0 1h1v1h-1zm10 1h1v1h-1zm-7 3h1v1h-1zm4 0h1v1h-1zM24 166h1v1h-1zm7 0h1v1h-1zm5 0h1v1h-1zm7 0h1v1h-1zm26 0h1v1h-1zm-45 1h1v1h-1zm49 5h1v1h-1zm6 0h1v1h-1zm91 0h1v1h-1zm33 0h1v1h-1zm-73 3h1v1h-1zm21 7h1v1h-1zm1 0h1v1h-1zm-91 3h1v1h-1zm116 10h1v1h-1zm17 2h2v1h-2zm2 0h1v1h-1zm-158 4h1v1h-1zm6 0h1v1h-1zm13 0h1v1h-1zm55 0h1v1h-1zm27 0h1v1h-1zm-41 3h1v1h-1zm69 0h1v1h-1zm-55 10h1v1h-1zm56 0h1v1h-1zm11 0h1v1h-1zm3 0h1v1h-1zm16 0h1v1h-1zm-59 5h1v1h-1zm7 0h1v1h-1z" fill="#000083"/><path d="M94 74h1v1h-1zm-42 5h1v1h-1zm12 37h1v1h-1zm18 0h1v1h-1zm73 27h1v1h-1zm0 6h1v1h-1zm-89 19h1v1h-1zm0 6h1v9h-1zm126 0h1v1h-1zm-79 1h1v1h-1zm10 1h1v1h-1zm39 5h1v1h-1zm-96 2h1v1h-1zm30 1h1v1h-1zm26 1h1v1h-1zm-58 1h1v1h-1zM0 196h1v1H0zm222 4h1v1h-1zm-21 2h1v1h-1zm-140 3h1v1h-1zm71 1h1v1h-1zm-30 2h1v1h-1zm58 0h1v1h-1zm-125 3h1v1h-1zm191 0h1v1h-1zm-173 2h1v1h-1zm49 0h1v1h-1zm19 2h1v1h-1z" fill="#425ea4"/><path d="M113 14h1v1h-1zM78 32h1v1h-1zm12 35h1v26h-1zM66 80h1v1h-1zm109 3h1v1h-1zM67 88h1v1h-1zm23 5h1v1h-1zm74 22h1v1h-1zm-3 4h1v1h-1zm-62 10h1v1h-1zm59 13h1v1h-1zm-63 1h1v1h-1zm2 1h1v1h-1zm26 3h1v1h-1zm25 20h1v1h-1zm49 1h1v1h-1zm-115 3h1v1h-1zm60 0h1v1h-1zm-36 1h1v1h-1zm-15 2h1v1h-1zm26 0h1v1h-1zm-66 1h1v1h-1zm132 0h1v1h-1zm-87 2h4v1h-4zm4 0h1v1h-1zm-10 2h1v1h-1zm72 1h1v1h-1zm-65 4h1v1h-1zm1 0h1v1h-1zm51 0h1v1h-1zm37 0h1v1h-1zm-80 1h1v1h-1zm24 0h1v1h-1zm-52 1h1v1h-1zm45 0h1v1h-1zm-52 11h1v1h-1zm-69 1h1v1H2zm116 3h1v1h-1zm-83 1h1v1h-1zm162 0h1v10h-1zm29 0h1v1h-1zm-131 1h1v1h-1zm119 0h1v1h-1zm-160 1h1v1h-1zm4 0h1v1h-1zm120 1h1v1h-1zm-127 1h1v1h-1zm49 0h1v1h-1zm3 0h1v1h-1zm-57 2h1v1h-1zm-24 1h1v1h-1zm191 0h1v1h-1zm-54 1h1v1h-1zm11 0h1v1h-1zm-9 1h1v1h-1zM2 212h1v1H2zm148 0h1v1h-1zm47 0h1v1h-1zm-67 1h1v1h-1zm24 0h1v1h-1zm-59 1h1v1h-1zm-15 1h1v1h-1z" fill="#adb8d4"/><path d="M98 87h1v1h-1zm-36 26h1v1h-1zm19 2h1v1h-1zm3 3h1v1h-1zm-16 3h1v1h-1zm59 24h1v1h-1zm-5 2h1v1h-1zm-11 2h1v1h-1zm93 16h1v1h-1zm-138 2h1v1h-1zm27 5h1v1h-1zm-1 1h1v1h-1zm95 0h1v1h-1zm-131 2h1v1h-1zm112 1h1v1h-1zm-127 5h1v1h-1zm151 2h1v1h-1zm5 1h1v1h-1zm-97 2h1v1h-1zm-10 11h1v1h-1zm88 7h1v1h-1zm-74 1h1v1h-1zm28 2h1v4h-1zm-118 2h1v1h-1zm41 1h1v1h-1zm77 1h1v1h-1zm26 1h1v1h-1zm0 1h1v1h-1zm16 0h1v1h-1zM0 214h1v1H0zm145 4h1v1h-1z" fill="#435da3"/><path d="M66 14h1v1h-1zm35 19h1v1h-1zm-8 4h1v1h-1zm2 41h1v1h-1zM53 90h1v1h-1zm46 1h1v1h-1zm-30 5h1v1h-1zm103 2h1v1h-1zm-1 3h1v1h-1zm-3 7h1v1h-1zm-74 18h1v1h-1zm-14 7h1v1h-1zm77 10h1v1h-1zm-5 3h1v1h-1zm5 0h1v1h-1zm-91 19h1v1h-1zm-34 1h1v1h-1zm0 1h1v1h-1zm-1 1h1v1h-1zm11 0h1v1h-1zm155 1h1v1h-1zm-83 2h1v1h-1zm-32 1h1v1h-1zm87 2h1v1h-1zm24 2h1v1h-1zm-29 2h1v1h-1zm-52 1h1v3h-1zm81 2h1v1h-1zm-81 1h1v1h-1zm76 1h1v1h-1zm-3 1h1v1h-1zm-44 1h1v1h-1zm-104 1h1v1h-1zm82 0h1v1h-1zm42 5h1v1h-1zm-140 4h1v1h-1zm0 1h1v1h-1zm-11 4h1v1h-1zm28 0h1v1h-1zm6 0h1v1h-1zm13 0h1v1h-1zm47 0h1v1h-1zm8 0h1v1h-1zm27 0h1v1h-1zm12 0h1v1h-1zm14 0h1v1h-1zm44 0h1v1h-1zm-50 1h1v1h-1zm-129 1h1v1h-1zm133 0h1v1h-1zm28 0h1v1h-1zm30 0h1v1h-1zm-76 2h1v1h-1zm38 0h1v1h-1zm-21 1h1v1h-1zm6 2h1v1h-1zm-113 2h1v1h-1zm100 1h1v1h-1zm-143 2h1v1h-1zm11 0h1v1h-1zm-23 1h1v1H0zm118 0h1v1h-1zm4 0h1v1h-1zm5 0h1v1h-1zm4 0h1v1h-1zm6 0h1v1h-1zm36 0h1v1h-1zm6 0h1v1h-1zm3 0h1v1h-1zm6 0h1v1h-1zm4 0h1v1h-1zm6 0h1v1h-1zm10 0h1v1h-1zm-182 2h1v1h-1zm165 0h1v1h-1zm26 0h1v1h-1z" fill="#8c9ac3"/><path d="M112 33h1v1h-1zm15 0h1v21h-1zm-49 1h1v58h-1zm18 14h1v1h-1zm1 3h1v1h-1zm30 3h1v1h-1zm0 17h1v22h-1zm-62 7h1v1h-1zm109 6h1v1h-1zM53 85h1v1h-1zm1 6h1v1h-1zm119 0h1v1h-1zM67 92h1v1h-1zm11 0h1v1h-1zm49 1h1v1h-1zm-12 2h10v1h-10zm10 0h1v1h-1zm13 0h11v1h-11zm11 0h1v1h-1zm20 9h1v1h-1zm-96 2h1v1h-1zm86 14h1v1h-1zm-86 6h1v1h-1zm1 1h1v1h-1zm25 3h1v1h-1zm6 3h1v1h-1zm5 2h1v1h-1zm4 0h1v1h-1zm-1 1h1v1h-1zm-18 6h1v1h-1zm2 1h1v1h-1zm33 0h1v1h-1zm-31 1h1v1h-1zm59 3h1v1h-1zm-45 2h1v1h-1zm1 0h1v1h-1zm24 17h1v1h-1zm64 1h1v1h-1zm-2 3h1v1h-1zm-146 1h2v1h-2zm2 0h1v1h-1zm42 0h1v1h-1zm16 1h1v1h-1zm82 0h1v1h-1zm-15 1h1v1h-1zm-125 1h1v1h-1zm103 0h1v1h-1zm41 0h1v9h-1zm-125 1h1v1h-1zm19 0h1v1h-1zm28 0h1v1h-1zm-44 1h1v1h-1zm0 1h1v1h-1zm82 0h1v1h-1zm7 0h1v1h-1zm12 0h1v2h-1zm11 0h1v1h-1zm-90 1h1v1h-1zm79 1h1v1h-1zm-88 1h1v1h-1zm99 0h1v1h-1zm-8 1h1v1h-1zm-81 1h1v1h-1zm20 0h1v1h-1zm7 0h1v1h-1zm37 0h1v1h-1zm35 1h1v1h-1zm-117 1h1v1h-1zm98 0h1v1h-1zm-143 1h1v1h-1zm87 0h1v1h-1zm36 1h1v1h-1zm2 1h1v1h-1zm-143 9h1v1h-1zm157 0h1v4h-1zM7 200h1v1H7zm170 0h1v1h-1zm-44 1h1v1h-1zm31 0h1v1h-1zm-107 1h1v1h-1zm109 0h1v1h-1zm-124 1h1v1h-1zm19 0h1v1h-1zm35 0h1v1h-1zm8 0h1v1h-1zm31 0h1v1h-1zm26 0h1v1h-1zm-126 1h1v1h-1zm82 0h1v1h-1zm109 0h1v1h-1zm-109 1h1v1h-1zm-107 1h2v1h-2zm2 0h1v1h-1zm165 0h1v6h-1zm-145 1h1v1h-1zm67 0h1v1h-1zm3 0h1v1h-1zm50 0h1v1h-1zm71 0h1v1h-1zm-188 1h1v1h-1zm19 0h1v1h-1zm46 0h1v1h-1zm52 0h1v1h-1zm74 0h1v1h-1zm-178 2h1v1h-1zm11 0h1v1h-1zm-47 1h1v1h-1zm45 0h2v1h-2zm2 0h1v1h-1zm118 1h1v1h-1zm-164 1h1v1h-1zm19 0h1v1h-1zm113 0h1v1h-1zm21 0h1v1h-1zm-137 1h1v1h-1zm1 0h1v1h-1zm71 0h1v1h-1zm26 0h1v1h-1zm93 0h1v1h-1zm1 0h1v1h-1zM7 215h1v1H7zm22 0h1v1h-1zm1 0h1v1h-1zm69 0h1v1h-1zm48 0h2v1h-2zm2 0h1v1h-1zm15 0h1v1h-1zm1 0h1v1h-1zm55 0h1v1h-1zm1 0h1v1h-1z" fill="#001f8a"/><path d="M98 55h1v1h-1zm37 0h1v1h-1zm-36 3h1v1h-1zm-4 16h1v1h-1zm79 2h1v3h-1zM53 79h1v1h-1zm121 0h1v1h-1zM65 84h1v1h-1zm34 3h1v1h-1zm-45 2h1v1h-1zm15 10h1v1h-1zm100 4h1v1h-1zm-97 2h1v1h-1zm2 3h1v1h-1zm-11 5h1v1h-1zm15 0h1v1h-1zm8 8h1v1h-1zm-16 1h1v1h-1zm1 1h1v1h-1zm85 0h1v1h-1zm-1 1h1v1h-1zm-3 3h1v1h-1zm-76 1h1v1h-1zm75 0h1v1h-1zm-74 1h1v1h-1zm25 3h1v1h-1zm2 1h1v1h-1zm-21 1h1v1h-1zm26 1h1v1h-1zm32 2h1v1h-1zm-49 3h1v1h-1zm43 0h1v1h-1zm17 1h1v1h-1zm-52 3h1v1h-1zm27 0h1v1h-1zm-22 2h1v1h-1zm17 0h1v1h-1zm-11 2h1v1h-1zm5 0h1v1h-1zm-49 19h1v1h-1zm134 0h1v1h-1zm-134 1h1v1h-1zm133 0h1v1h-1zm-161 1h1v11h-1zm106 2h1v1h-1zm55 0h1v1h-1zm-105 1h1v1h-1zm4 0h1v1h-1zm23 0h1v1h-1zm65 0h1v1h-1zm1 0h1v1h-1zm9 0h1v1h-1zm-138 1h1v1h-1zm15 0h1v1h-1zm37 0h1v1h-1zm17 0h1v1h-1zm28 0h1v1h-1zm-106 1h1v1h-1zm17 0h1v9h-1zm-10 1h1v1h-1zm55 0h1v1h-1zm68 0h1v1h-1zm-87 1h1v1h-1zm10 0h1v2h-1zm19 0h1v1h-1zm45 0h1v1h-1zm-82 1h1v1h-1zm8 0h1v1h-1zm18 0h1v1h-1zm12 0h1v1h-1zm35 0h1v1h-1zm-64 1h1v1h-1zm9 0h1v1h-1zm57 0h1v1h-1zm32 0h1v2h-1zm-153 2h1v1h-1zm45 0h1v1h-1zm108 0h1v1h-1zm-152 1h1v1h-1zm88 0h1v1h-1zm37 0h1v1h-1zm-86 1h1v1h-1zm24 0h1v1h-1zm77 0h1v1h-1zm-113 1h1v1h-1zm116 0h1v1h-1zm8 0h1v1h-1zm-82 1h1v1h-1zm42 0h1v1h-1zm49 0h1v1h-1zm-153 1h1v1h-1zm19 0h1v1h-1zm16 0h1v1h-1zm13 0h1v1h-1zm1 0h1v1h-1zm4 0h1v1h-1zm12 0h1v1h-1zm16 0h1v1h-1zm22 0h1v1h-1zm40 0h1v1h-1zm-27 1h1v1h-1zM2 196h1v1H2zm13 0h1v1h-1zm75 0h1v1h-1zm-74 1h2v1h-2zm2 0h1v1h-1zm56 0h1v1h-1zm-66 4h1v1H8zm20 0h1v1h-1zm35 0h1v1h-1zm36 0h1v1h-1zm4 0h1v1h-1zm46 0h1v1h-1zm13 0h1v1h-1zm44 0h2v1h-2zm2 0h2v1h-2zm2 0h1v1h-1zm9 0h1v1h-1zm-122 1h1v1h-1zm19 0h1v1h-1zm4 0h1v1h-1zm7 0h1v1h-1zm16 0h2v1h-2zm2 0h1v1h-1zm65 0h1v1h-1zm12 0h1v1h-1zM9 203h1v1H9zm108 0h1v1h-1zm27 0h1v1h-1zm9 0h1v1h-1zm6 0h1v1h-1zm45 0h1v9h-1zm-98 1h1v1h-1zm53 0h1v1h-1zm18 0h1v1h-1zm-152 1h1v1h-1zm24 0h1v1h-1zm3 0h1v1h-1zm8 0h1v1h-1zm47 0h1v1h-1zm99 0h1v1h-1zm10 0h1v1h-1zm-181 1h1v1h-1zm6 0h2v1h-2zm2 0h1v1h-1zm90 0h1v6h-1zm10 0h1v1h-1zm83 0h1v1h-1zm-110 1h1v5h-1zm-80 1h1v1h-1zm61 0h1v1h-1zm-86 1h2v1h-2zm2 0h1v1h-1zm92 0h1v1h-1zm38 0h1v1h-1zm-97 1h1v2h-1zm8 0h1v1h-1zm-20 2h1v1h-1zm10 0h3v1h-3zm3 0h1v1h-1zm8 0h3v1h-3zm3 0h1v1h-1zm39 0h1v1h-1zm7 0h1v1h-1zm12 0h1v1h-1zm17 0h1v1h-1zm11 0h1v1h-1zm10 0h1v1h-1zm5 0h1v1h-1zm1 0h1v1h-1zm44 0h1v1h-1zm21 0h1v1h-1zM3 213h2v1H3zm2 0h1v1H5zm20 0h1v1h-1zm9 0h1v1h-1zm9 0h2v1h-2zm2 0h1v1h-1zm9 0h2v1h-2zm2 0h1v1h-1zm33 0h1v1h-1zm18 0h1v1h-1zm52 0h1v1h-1zm27 0h1v1h-1zm8 0h2v1h-2zm2 0h1v1h-1zm20 0h1v1h-1zm9 0h1v1h-1zM2 214h1v1H2zm88 0h1v1h-1zm77 0h1v1h-1zm7 0h1v1h-1zm13 0h1v1h-1zm-130 1h1v1h-1z" fill="#00308f"/><path d="M126 34h1v22h-1zM96 45h1v1h-1zm30 11h1v1h-1zM92 69h1v1h-1zm35 0h1v1h-1zm9 0h1v1h-1zM96 82h1v1h-1zm-44 3h1v1h-1zm122 6h1v1h-1zm-59 3h10v1h-10zm10 0h1v1h-1zm13 0h11v1h-11zm11 0h1v1h-1zm-94 5h1v1h-1zm10 19h1v1h-1zm38 13h1v1h-1zm43 3h1v1h-1zm-4 3h1v1h-1zm12 2h1v1h-1zm-2 5h1v1h-1zm10 0h1v1h-1zm-10 1h1v1h-1zm10 0h1v1h-1zm-4 5h1v1h-1zm47 16h1v1h-1zm0 1h1v1h-1zm-61 2h1v1h-1zm57 1h1v1h-1zm-150 2h1v1h-1zm8 0h1v1h-1zm53 0h1v1h-1zm21 0h1v1h-1zm-44 1h1v1h-1zm112 1h1v1h-1zm-57 1h1v7h-1zm-15 1h1v1h-1zm1 0h1v1h-1zm48 1h1v1h-1zm-51 5h1v1h-1zm17 0h1v1h-1zm6 0h1v1h-1zm9 1h1v1h-1zm20 0h1v1h-1zm-139 1h1v1h-1zm66 0h1v1h-1zm27 1h1v1h-1zm0 1h1v1h-1zm45 9h1v1h-1zm-152 5h1v1h-1zm27 0h1v1h-1zm132 0h1v1h-1zm-27 2h1v1h-1zm-115 1h1v1h-1zm60 0h1v1h-1zm16 0h1v1h-1zm9 0h1v1h-1zm34 0h1v1h-1zm-130 3h1v1h-1zm134 0h1v1h-1zm-110 5h1v1h-1zm99 0h1v1h-1zm15 1h1v1h-1zM8 213h1v1H8zm173 1h1v1h-1zm18 0h1v1h-1zm-146 1h1v1h-1zm115 0h1v1h-1zm31 0h1v1h-1zm-170 1h1v1h-1zm1 0h1v1h-1zm69 0h1v1h-1zm1 0h1v1h-1zm48 0h1v1h-1zm16 0h1v1h-1zm1 0h1v1h-1zm55 0h1v1h-1zm1 0h1v1h-1z" fill="#cad2e4"/><path d="M91 64h1v1h-1zm84 11h1v1h-1zM52 78h1v1h-1zm122 10h1v1h-1zm-99 20h1v1h-1zm29 24h1v1h-1zm40 3h1v1h-1zm-39 12h1v1h-1zm-67 21h1v1h-1zm90 4h1v1h-1zm-50 1h1v1h-1zm5 0h1v1h-1zm16 0h1v1h-1zm8 0h1v1h-1zm28 0h1v1h-1zm8 0h1v1h-1zm1 0h1v1h-1zm7 0h1v1h-1zm10 0h1v1h-1zm-77 1h1v1h-1zm95 1h1v1h-1zm-96 2h1v1h-1zm3 0h1v1h-1zm9 2h9v1h-9zm9 0h1v1h-1zm-48 5h1v1h-1zm94 0h1v1h-1zm53 2h1v1h-1zm-43 5h1v1h-1zm-68 5h1v1h-1zm40 4h1v1h-1zm69 1h1v1h-1zm-173 1h1v1h-1zm191 0h1v1h-1zM8 203h1v1H8zm146 0h1v1h-1zm-47 1h1v1h-1zm10 2h1v1h-1zm-16 2h1v1h-1zm-3 2h1v1h-1zm60 1h1v1h-1zm-13 1h1v1h-1zm-59 1h1v1h-1zm6 1h1v1h-1zm109 0h1v1h-1zm-109 1h1v1h-1zm75 0h1v1h-1z" fill="#32529e"/><path d="M158 143h1v1h-1zm-22 23h1v1h-1zm-100 1h1v1h-1zm7 0h1v1h-1zm161 0h1v1h-1zm-152 5h1v1h-1zm6 0h1v1h-1zm11 0h1v1h-1zm19 0h1v1h-1zm33 0h1v1h-1zm9 0h1v1h-1zm4 0h1v1h-1zm-14 1h1v1h-1zm-17 1h1v1h-1zm26 11h1v1h-1zm5 0h1v1h-1zm39 10h1v1h-1zm-89 1h1v1h-1zm89 0h1v1h-1zm12 5h1v1h-1zm-151 1h1v1h-1zm152 0h1v1h-1zm-90 2h1v1h-1zm0 4h1v1h-1zm64 3h1v1h-1zm-76 3h1v1h-1zm12 0h1v1h-1z" fill="#000885"/><g fill="#003591"><path d="M52 1h1v1h-1zm2 1h119v10H54zm119 0h1v84h-1zM54 12h119v1H54zm0 1h11v74H54zm11 0h1v1h-1zm49 0h59v1h-59zm1 1h58v16h-58zm0 16h58v1h-58zm12 1h8v1h-8zm8 0h1v1h-1zm16 0h22v1h-22zm-23 1h6v22h-6zm6 0h1v22h-1zm18 0h21v60h-21zm-73 2h11v27H79zm11 0h1v26h-1zm13 0h8v58h-8zm8 0h1v58h-1zm-20 2h1v25h-1zm1 3h1v24h-1zm2 2h1v1h-1zm-1 1h1v24h-1zm1 3h1v24h-1zm1 2h1v26h-1zm1 4h1v25h-1zm1 3h1v25h-1zm31 0h6v1h-6zm6 0h1v1h-1zm-36 2h1v26h-1zm1 3h1v27h-1z"/><path d="M90 60h9v1h-9zm12 0h9v32h-9zm-23 1h10v31H79z"/><path d="M89 61h22v1H89zm11 1h11v27h-11z"/><path d="M92 63h19v1H92zm1 3h18v1H93zm1 3h17v1H94zm34 2h7v69h-7zm7 0h1v68h-1zm-40 2h16v1H95zm1 3h15v1H96zm1 3h14v1H97zm1 3h13v1H98zm-33 4h1v29h-1zm34 0h12v1H99zm74 0h1v1h-1zM54 87h11v1H54zm1 1h10v4H55zm45 1h11v1h-11zm1 1h10v2h-10zm-35 1h1v25h-1z"/><path d="M55 92h11v1H55zm24 0h9v1h-9zm9 0h1v1h-1zm13 0h10v1h-10zm10 0h1v1h-1zm41 0h20v4h-20zm20 0h1v1h-1zM54 93h12v1H54z"/><path d="M150 93h21v1h-21zm-94 1h10v2H56zm12 0h1v1h-1zm82 0h21v5h-21zm-83 1h1v23h-1zm60 0h9v44h-9zm9 0h1v44h-1zm-80 1h11v1H56z"/><path d="M115 96h56v3h-56zm56 0h1v1h-1zM57 97h10v2H57zm12 0h1v1h-1zm-1 1h1v21h-1zm-11 1h11v1H57zm58 0h55v3h-55zm55 0h1v1h-1z"/><path d="M58 100h11v2H58zm11 0h1v20h-1z"/><path d="M58 102h12v1H58zm12 0h1v19h-1zm45 0h54v2h-54zm54 0h1v1h-1zm-110 1h11v1H59z"/><path d="M59 104h12v1H59zm12 0h1v18h-1zm44 0h53v2h-53zm53 0h1v1h-1zm-108 1h11v2H60zm12 1h1v17h-1zm43 0h52v3h-52zm52 0h1v1h-1z"/><path d="M60 107h12v1H60zm1 1h12v1H61zm12 0h1v16h-1z"/><path d="M62 109h12v1H62zm12 0h1v16h-1zm41 0h51v1h-51zm51 0h1v2h-1z"/><path d="M62 110h13v1H62zm13 0h1v16h-1zm40 0h50v2h-50zm50 0h1v1h-1zm-102 1h12v1H63zm103 0h1v1h-1z"/><path d="M63 112h13v1H63zm13 0h1v15h-1zm39 0h49v1h-49zm49 0h1v1h-1z"/><path d="M64 113h13v1H64zm13 0h1v15h-1zm38 0h48v2h-48zm48 0h1v1h-1z"/><path d="M64 114h14v1H64zm14 0h1v15h-1z"/><path d="M65 115h14v1H65zm14 0h1v15h-1zm36 0h47v1h-47zm47 0h1v1h-1z"/><path d="M66 116h14v1H66zm14 0h1v15h-1zm35 0h46v1h-46zm46 0h1v1h-1zm-80 1h1v15h-1zm34 0h45v2h-45zm45 0h1v1h-1z"/><path d="M67 118h15v1H67zm15 0h1v15h-1z"/><path d="M68 119h15v1H68zm15 0h1v14h-1zm32 0h44v1h-44zm44 0h1v1h-1z"/><path d="M69 120h15v1H69zm15 0h1v14h-1zm31 0h43v1h-43zm43 0h1v1h-1z"/><path d="M70 121h15v1H70zm15 0h1v14h-1zm30 0h42v1h-42zm42 0h1v1h-1z"/><path d="M71 122h15v1H71zm15 0h1v13h-1zm29 0h41v1h-41zm41 0h1v1h-1z"/><path d="M72 123h15v1H72zm15 0h1v13h-1zm28 0h40v1h-40zm40 0h1v1h-1z"/><path d="M73 124h16v1H73zm16 0h1v13h-1zm26 0h39v1h-39zm39 0h1v1h-1z"/><path d="M74 125h16v1H74zm16 0h2v13h-2zm2 0h1v14h-1zm23 0h38v1h-38zm38 0h1v1h-1z"/><path d="M75 126h16v1H75zm40 0h37v1h-37zm37 0h1v1h-1zm-76 1h17v1H76zm17 0h1v13h-1zm22 0h36v1h-36zm36 0h1v1h-1z"/><path d="M77 128h17v1H77zm17 0h1v12h-1zm21 0h35v1h-35zm35 0h1v1h-1z"/><path d="M78 129h18v1H78zm18 0h1v12h-1zm19 0h34v1h-34zm34 0h1v1h-1z"/><path d="M79 130h18v1H79zm18 0h1v12h-1zm18 0h33v1h-33zm33 0h1v1h-1z"/><path d="M80 131h19v1H80zm19 0h1v12h-1zm16 0h32v1h-32zm32 0h1v1h-1z"/><path d="M81 132h20v1H81zm20 0h1v12h-1zm14 0h31v1h-31zm31 0h1v1h-1z"/><path d="M82 133h21v1H82zm21 0h1v11h-1zm3 0h1v13h-1zm9 0h29v1h-29zm29 0h1v1h-1z"/><path d="M84 134h21v1H84zm21 0h1v11h-1zm10 0h28v1h-28zm28 0h1v1h-1z"/><path d="M85 135h23v1H85zm23 0h1v11h-1zm7 0h27v1h-27zm27 0h1v1h-1z"/><path d="M87 136h23v1H87zm23 0h1v11h-1zm4 0h26v1h-26zm26 0h1v1h-1z"/><path d="M88 137h51v1H88zm51 0h1v1h-1zm-49 1h47v1H90zm47 0h1v1h-1zm-46 1h45v1H91zm45 0h1v1h-1zm-43 1h41v1H93zm41 0h1v1h-1zm25 0h1v1h-1zm-64 1h37v1H95zm37 0h1v1h-1zm-35 1h33v1H97zm33 0h1v1h-1zm-34 1h1v1h-1zm3 0h29v1H99zm29 0h1v1h-1zm-27 1h25v1h-25zm25 0h1v1h-1zm-22 1h19v1h-19zm19 0h1v1h-1zm-17 1h15v1h-15zm15 0h1v1h-1zm-12 1h9v1h-9zm9 0h1v1h-1zm-6 1h3v1h-3zm3 0h1v1h-1zm88 17h1v2h-1zm-177 2h2v1h-2zm2 0h1v1h-1zm11 0h1v1h-1zm1 0h1v1h-1zm159 0h1v17h-1zm1 0h1v1h-1zm3 0h1v1h-1zm-176 1h1v12h-1zm41 0h1v1h-1zm69 0h1v1h-1zm9 1h1v15h-1z"/><path d="M145 172h2v1h-2zm2 0h1v1h-1zm43 0h1v2h-1zm8 0h2v1h-2zm2 0h1v1h-1zm-153 1h1v1h-1zm1 0h1v1h-1zm9 0h1v1h-1zm11 0h1v11h-1zm7 0h1v1h-1zm1 0h1v2h-1zm9 0h1v3h-1zm1 0h1v1h-1zm8 0h1v1h-1zm7 0h1v1h-1zm9 0h1v11h-1zm4 0h1v1h-1zm7 0h1v4h-1zm8 0h1v1h-1zm8 0h1v11h-1zm20 0h1v1h-1zm1 0h1v3h-1zm24 0h1v1h-1zm7 0h1v1h-1zm-140 1h1v10h-1zm8 0h1v1h-1zm1 0h1v10h-1zm35 0h1v1h-1zm9 0h1v3h-1zm9 0h1v1h-1zm18 0h1v1h-1zm27 0h2v1h-2zm11 0h1v1h-1zm14 0h1v2h-1zm9 0h1v1h-1zm-114 1h1v1h-1zm35 0h1v1h-1zm56 0h1v1h-1zm24 0h1v7h-1zm-106 1h1v1h-1zm7 0h1v5h-1zm66 0h1v1h-1zm22 0h1v5h-1zm1 0h1v1h-1zm-104 1h1v1h-1zm25 0h1v1h-1zm19 0h1v1h-1zm1 0h1v1h-1zm37 0h1v1h-1zm7 0h1v1h-1zm-89 1h1v1h-1zm7 0h1v1h-1zm9 0h1v1h-1zm11 0h1v1h-1zm18 0h3v1h-3zm3 0h1v1h-1zm34 0h1v1h-1zm-83 1h1v1h-1zm8 0h1v1h-1zm43 0h1v1h-1zm1 0h1v1h-1zm-101 1h1v1h-1zm14 0h1v1h-1zm37 0h1v1h-1zm50 0h1v1h-1zm1 0h1v3h-1zm36 0h1v1h-1zm-137 1h1v1h-1zm50 0h1v1h-1zm5 0h1v1h-1zm9 0h1v1h-1zm68 0h1v1h-1zm20 0h1v1h-1zm-152 1h1v1h-1zm74 0h1v1h-1zm59 0h2v1h-2zm2 0h1v3h-1zm18 0h1v1h-1zm10 0h1v1h-1zm-162 1h1v1h-1zm50 0h1v1h-1zm1 0h1v1h-1zm13 0h1v1h-1zm36 0h1v1h-1zm32 0h1v1h-1zm1 0h1v5h-1zm19 0h1v1h-1zm-152 1h1v1h-1zm1 0h1v1h-1zm19 0h1v1h-1zm9 0h1v1h-1zm10 0h1v1h-1zm11 0h1v1h-1zm1 0h2v1h-2zm2 0h1v1h-1zm12 0h1v1h-1zm7 0h1v1h-1zm9 0h1v1h-1zm11 0h2v1h-2zm2 0h1v1h-1zm5 0h1v1h-1zm9 0h1v1h-1zm9 0h2v1h-2zm2 0h1v1h-1zm34 0h1v1h-1zm7 0h1v1h-1zm10 0h1v1h-1zm-51 1h1v1h-1zm15 0h1v1h-1zm-1 3h1v1h-1zm-3 1h2v1h-2zm2 0h1v1h-1zm-3 2h1v1h-1zm17 5h1v1h-1zm1 0h1v17h-1zm19 0h1v1h-1zM4 197h2v1H4zm2 0h1v1H6zm69 0h1v16h-1zm13 0h1v16h-1zm-84 1h1v15H4zm1 0h2v1H5zm2 0h1v1H7zm1 2h1v1H8zm92 0h1v1h-1zm21 0h1v1h-1zM9 201h1v1H9zm0 1h1v1H9zm17 0h1v1h-1zm14 0h1v1h-1zm1 0h1v3h-1zm9 0h1v1h-1zm1 0h1v1h-1zm47 0h1v1h-1zm17 0h1v11h-1zm8 0h1v1h-1zm1 0h1v2h-1zm8 0h1v1h-1zm1 0h1v2h-1zm9 0h1v1h-1zm9 0h1v1h-1zm9 0h1v4h-1zm35 0h1v11h-1zm8 0h1v1h-1zm1 0h1v1h-1zm13 0h1v1h-1zm-192 1h1v1h-1zm8 0h1v1h-1zm1 0h1v3h-1zm15 0h1v1h-1zm11 0h1v1h-1zm37 0h1v1h-1zm19 0h1v1h-1zm9 0h1v3h-1zm18 0h1v2h-1zm9 0h1v1h-1zm25 0h1v1h-1zm7 0h1v1h-1zm1 0h1v10h-1zm20 0h1v10h-1zm11 0h1v1h-1zm-206 1h1v1h-1zm66 0h1v1h-1zm11 0h1v1h-1zm29 0h1v1h-1zm8 0h1v1h-1zm9 0h1v1h-1zm1 0h1v9h-1zm18 0h1v1h-1zm1 0h1v7h-1zm53 0h1v1h-1zm10 0h1v1h-1zm9 0h1v2h-1zm-201 1h1v5h-1zm17 0h1v1h-1zm35 0h1v1h-1zm11 0h1v1h-1zm56 0h1v1h-1zm72 0h1v5h-1zm-181 1h1v1h-1zm91 0h1v1h-1zm35 0h1v1h-1zm1 0h1v1h-1zm64 0h1v1h-1zm-215 1h1v1h-1zm15 0h1v1h-1zm17 0h1v2h-1zm11 0h1v1h-1zm106 0h3v1h-3zm3 0h1v1h-1zm54 0h1v1h-1zm-204 1h1v1h-1zm13 0h1v1h-1zm28 0h1v1h-1zm45 0h1v1h-1zm67 0h1v1h-1zm1 0h1v1h-1zm50 0h1v1h-1zm-119 1h1v1h-1zm71 0h1v3h-1zm-155 1h1v1h-1zm4 0h1v3h-1zm7 0h1v1h-1zm72 0h1v2h-1zm9 0h1v2h-1zm110 0h1v1h-1zm-172 1h1v1h-1zm4 0h1v1h-1zm96 0h1v2h-1zm10 0h1v1h-1zm-139 1h3v1h-3zm11 0h1v1h-1zm18 0h1v1h-1zm11 0h1v1h-1zm42 0h1v1h-1zm9 0h1v1h-1zm47 0h1v1h-1zm16 0h1v1h-1zm-153 1h2v1h-2zm2 0h1v1h-1zm9 0h1v1h-1zm20 0h1v1h-1zm11 0h1v1h-1zm18 0h1v1h-1zm13 0h1v1h-1zm9 0h1v1h-1zm7 0h2v1h-2zm11 0h1v1h-1zm19 0h1v1h-1zm9 0h1v1h-1zm1 0h1v1h-1zm7 0h1v2h-1zm1 0h1v1h-1zm8 0h1v1h-1zm7 0h1v1h-1zm9 0h1v1h-1zm9 0h1v1h-1zm20 0h1v1h-1zm12 0h1v1h-1zm-119 1h1v1h-1zm52 0h1v1h-1zm16 0h1v1h-1zm59 0h1v1h-1zm-193 1h1v1h-1zm26 0h1v1h-1zm93 0h1v1h-1zm-9 3h2v1h-2zm2 0h1v1h-1z"/></g><path d="M54 1h119v1H54zm119 0h1v1h-1zm-47 30h1v1h-1zm1 1h1v1h-1zM94 43h1v1h-1zm1 3h1v1h-1zm1 3h1v1h-1zm1 3h1v1h-1zm3 7h2v1h-2zm2 0h1v1h-1zm-8 12h1v1h-1zm-41 9h1v1h-1zm121 0h1v1h-1zM53 81h1v1h-1zm44 0h1v1h-1zm-32 2h1v1h-1zm33 1h1v1h-1zm75 5h1v1h-1zm-94 4h9v1h-9zm9 0h1v1h-1zm13 0h11v1h-11zm11 0h1v1h-1zm-57 1h1v1h-1zm1 6h1v1h-1zm14 1h1v1h-1zm1 2h1v1h-1zm93 10h1v1h-1zm-85 1h1v1h-1zm-14 2h1v1h-1zm92 6h1v1h-1zm-86 2h1v1h-1zm27 5h1v1h-1zm52 0h1v1h-1zm-72 1h1v1h-1zm66 4h1v1h-1zm-57 3h1v1h-1zm2 2h1v1h-1zm67 3h1v1h-1zm-54 3h1v1h-1zm23 0h1v1h-1zm-57 21h1v1h-1zm69 0h1v1h-1zm1 2h1v1h-1zm-39 3h1v1h-1zm-52 1h1v1h-1zm1 0h1v1h-1zm6 0h1v1h-1zm3 0h1v1h-1zm9 0h2v1h-2zm2 0h1v1h-1zm6 0h3v1h-3zm3 0h1v1h-1zm8 0h2v1h-2zm2 0h1v1h-1zm9 0h1v1h-1zm4 0h1v1h-1zm9 0h1v1h-1zm1 0h1v1h-1zm26 0h1v1h-1zm1 0h1v1h-1zm7 0h1v1h-1zm12 0h3v1h-3zm3 0h1v1h-1zm7 0h3v1h-3zm3 0h1v1h-1zm14 0h1v2h-1zm18 0h1v1h-1zm-149 1h1v1h-1zm35 0h1v1h-1zm13 0h1v1h-1zm15 0h1v1h-1zm23 0h1v10h-1zm-63 1h1v1h-1zm38 0h1v1h-1zm70 0h1v1h-1zm8 0h1v1h-1zm-114 1h1v1h-1zm82 0h1v1h-1zm33 2h1v1h-1zm-66 1h1v1h-1zm41 0h1v1h-1zm14 0h1v1h-1zm-152 1h1v1h-1zm96 0h1v1h-1zm4 0h1v1h-1zm52 0h1v1h-1zm-54 1h1v1h-1zm-34 1h1v1h-1zm71 0h1v1h-1zm-135 1h1v1h-1zm131 0h1v1h-1zm-77 1h1v1h-1zm55 0h1v1h-1zm9 0h1v1h-1zm-97 1h1v1h-1zm9 0h1v1h-1zm10 0h1v1h-1zm33 0h1v1h-1zm34 0h1v1h-1zm-103 1h1v1h-1zm23 0h1v1h-1zm4 0h1v1h-1zm19 0h1v1h-1zm20 0h1v1h-1zm9 0h1v1h-1zm13 0h1v1h-1zm62 0h1v1h-1zm4 0h1v1h-1zm10 0h1v1h-1zm4 0h2v1h-2zm2 0h1v1h-1zm-45 5h1v1h-1zM1 195h1v1H1zm90 0h1v1h-1zm-72 1h1v1h-1zm54 0h1v1h-1zm5 0h1v1h-1zm7 0h1v1h-1zm89 0h1v1h-1zm1 1h1v1h-1zm-88 1h1v5h-1zm-57 2h1v1h-1zm72 0h1v1h-1zm119 0h1v1h-1zm-194 1h1v1h-1zm4 0h1v1h-1zm150 0h1v1h-1zm3 0h1v1h-1zm34 0h1v1h-1zm4 0h1v1h-1zm-100 1h1v1h-1zm9 0h1v1h-1zm31 0h1v1h-1zm7 0h1v1h-1zm-158 1h1v1h-1zm15 0h1v1h-1zm14 0h1v1h-1zm47 0h1v1h-1zm11 0h1v1h-1zm25 0h1v1h-1zm46 0h1v1h-1zm14 0h1v1h-1zm34 0h1v1h-1zm-182 2h1v1h-1zm7 0h1v1h-1zm17 0h1v1h-1zm93 0h1v1h-1zm7 0h1v1h-1zm67 0h1v1h-1zm-201 1h1v1h-1zm129 0h1v3h-1zm62 0h1v1h-1zm-190 1h1v1h-1zm61 0h1v5h-1zm56 0h1v1h-1zm21 0h1v1h-1zm53 0h1v1h-1zm-191 1h1v1h-1zm137 0h1v1h-1zm54 0h1v1h-1zm-170 1h1v1h-1zm1 0h1v1h-1zm5 0h1v1h-1zm5 0h1v1h-1zm1 0h1v1h-1zm95 0h1v1h-1zm-112 1h1v1h-1zm-19 1h1v1h-1zm32 0h1v1h-1zm32 1h1v1h-1zm-13 1h1v1h-1zm40 0h1v1h-1zm21 0h1v1h-1zm42 0h1v1h-1zm7 0h1v1h-1zM6 214h1v1H6zm22 0h1v1h-1zm3 0h1v1h-1zm42 0h1v1h-1zm76 0h1v1h-1zm10 0h1v1h-1zm24 0h1v1h-1zm10 0h1v1h-1zm4 0h1v1h-1zm25 0h1v1h-1zM1 215h1v1H1zm46 0h1v1h-1zm44 0h1v1h-1zm31 0h1v1h-1zm5 0h1v1h-1zm32 0h1v1h-1zm43 0h1v1h-1zm-61 4h2v1h-2zm2 0h1v1h-1z" fill="#002c8e"/><path d="M52 2h1v72h-1zm41 36h1v1h-1zM52 74h1v1h-1zm119 26h1v1h-1zm-114 3h1v1h-1zm22 10h1v1h-1zm72 16h1v1h-1zm-74 1h1v1h-1zm17 12h1v1h-1zm37 1h1v1h-1zm-2 1h1v1h-1zm26 1h1v1h-1zm-3 3h1v1h-1zm1 0h1v1h-1zm-26 25h1v1h-1zm21 0h1v1h-1zm-97 1h1v1h-1zm40 1h1v1h-1zm74 1h1v1h-1zm-86 3h1v1h-1zm51 0h1v1h-1zm28 0h1v1h-1zm-132 2h1v1h-1zm134 3h1v1h-1zm-108 2h1v1h-1zm3 0h1v1h-1zm24 0h1v1h-1zm28 0h1v1h-1zm7 0h1v1h-1zm26 0h1v1h-1zm48 0h1v1h-1zM28 200h1v1h-1zm191 0h1v1h-1zm-94 1h1v1h-1zm41 0h1v1h-1zm13 0h1v1h-1zm-136 1h1v1h-1zm15 0h1v1h-1zm55 0h1v1h-1zm27 0h1v1h-1zm-117 2h1v1h-1zm28 0h1v1h-1zm163 0h1v1h-1zm-202 1h1v1h-1zm42 1h1v1h-1zm-5 2h1v1h-1zm55 0h1v1h-1zm62 2h1v1h-1zm-140 1h1v1h-1zm-2 2h1v1h-1zm191 0h1v1h-1zm-118 2h1v1h-1z" fill="#133d94"/><g fill="#003390"><path d="M53 2h1v73h-1zm83 29h1v1h-1zm14 0h1v1h-1zm-15 1h1v1h-1zm15 0h1v60h-1zm1 0h1v62h-1zm-39 2h1v58h-1zm-19 7h1v1h-1zm1 3h1v1h-1zm2 6h1v1h-1zm1 3h1v1h-1zm31 2h6v1h-6zm6 0h1v1h-1zm-34 5h1v1h-1zm-11 2h2v1h-2zm2 0h1v1h-1zm2 5h1v1h-1zm1 3h1v1h-1zm-41 5h1v1h-1zm44 5h1v1h-1zm1 3h1v1h-1zm-33 2h1v1h-1zm108 2h1v1h-1zM54 88h1v1h-1zm58 4h1v1h-1zm38 0h1v1h-1zm-83 2h1v1h-1zm-11 3h1v1h-1zm12 0h1v1h-1zm-11 3h1v1h-1zm2 5h1v1h-1zm109 0h1v1h-1zm-95 2h1v1h-1zm94 0h1v1h-1zm-106 2h1v1h-1zm1 2h1v1h-1zm14 0h1v1h-1zm87 3h1v1h-1zm-97 3h1v1h-1zm94 1h1v1h-1zm-73 3h1v1h-1zm1 2h1v1h-1zm64 5h1v1h-1zm-76 1h1v1h-1zm22 1h1v1h-1zm47 3h1v1h-1zm-59 3h1v1h-1zm25 0h1v1h-1zm30 0h1v1h-1zm-52 2h1v1h-1zm49 1h1v1h-1zm-42 3h1v1h-1zm7 3h1v1h-1zm21 0h1v1h-1zm78 20h1v1h-1zm-173 2h1v2h-1zm12 0h1v2h-1zm27 0h1v1h-1zm69 0h1v1h-1zm-109 1h1v12h-1zm12 0h1v12h-1zm-11 1h1v1h-1zm12 0h1v1h-1zm14 3h1v1h-1zm1 0h1v1h-1zm67 0h1v1h-1zm-74 1h1v1h-1zm7 0h1v1h-1zm11 0h1v1h-1zm55 0h1v1h-1zm25 0h1v1h-1zm19 0h3v1h-3zm3 0h1v1h-1zm29 0h1v1h-1zm-86 1h1v1h-1zm70 0h1v1h-1zm-89 1h1v1h-1zm-17 1h1v1h-1zm1 0h1v1h-1zm34 0h1v1h-1zm48 0h1v1h-1zm7 2h1v1h-1zm-89 1h1v1h-1zm16 0h1v1h-1zm33 0h1v1h-1zm34 0h1v1h-1zm5 0h1v1h-1zm-137 1h1v1h-1zm12 0h1v1h-1zm-1 1h1v2h-1zm142 0h1v1h-1zm-98 1h1v1h-1zm10 0h1v1h-1zm71 0h1v1h-1zm-136 1h1v1h-1zm10 0h1v1h-1zm1 0h1v1h-1zm43 0h1v1h-1zm20 0h1v1h-1zm19 0h1v1h-1zm43 0h1v1h-1zm18 0h1v1h-1zm-145 1h1v1h-1zm1 0h1v1h-1zm29 0h1v1h-1zm62 0h1v1h-1zm9 0h1v1h-1zm-11 1h1v1h-1zm20 0h1v1h-1zm3 1h1v1h-1zm9 5h1v1h-1zM2 195h4v1H2zm4 0h1v1H6zm9 0h4v1h-4zm4 0h1v1h-1zm54 0h5v1h-5zm5 0h1v1h-1zm7 0h5v1h-5zm5 0h1v1h-1zm-87 1h3v1H3zm3 0h1v1H6zm10 0h2v1h-2zm2 0h1v1h-1zm56 0h3v1h-3zm3 0h1v1h-1zm10 0h2v1h-2zm2 0h1v1h-1zm-82 1h1v1H7zm69 0h1v1h-1zm11 0h1v1h-1zm-79 2h1v1H8zm140 1h1v1h-1zm34 1h1v1h-1zm1 0h1v1h-1zm-150 1h1v1h-1zm9 0h1v1h-1zm10 0h1v2h-1zm1 0h1v1h-1zm6 0h3v1h-3zm3 0h1v1h-1zm42 0h1v1h-1zm1 0h1v2h-1zm9 0h1v1h-1zm27 0h1v1h-1zm20 0h1v1h-1zm7 0h1v1h-1zm9 0h1v1h-1zm1 0h1v1h-1zm5 0h2v1h-2zm2 0h1v1h-1zm7 0h2v1h-2zm2 0h1v1h-1zm11 0h1v1h-1zm4 0h1v1h-1zm15 0h1v1h-1zm-214 1h1v1h-1zm40 0h1v1h-1zm1 0h1v1h-1zm83 0h1v1h-1zm8 0h1v14h-1zm26 0h1v1h-1zm56 0h1v1h-1zm1 0h1v1h-1zm-200 1h1v1h-1zm24 0h1v1h-1zm3 0h1v1h-1zm8 0h1v1h-1zm17 0h1v1h-1zm28 0h1v2h-1zm-28 1h1v1h-1zm29 0h1v7h-1zm10 0h1v1h-1zm8 0h1v7h-1zm-77 1h1v1h-1zm1 0h1v1h-1zm10 0h1v1h-1zm1 0h1v2h-1zm17 0h1v1h-1zm29 0h1v2h-1zm-71 1h1v1h-1zm91 0h1v7h-1zm38 0h1v1h-1zm62 0h1v1h-1zm-166 1h1v1h-1zm1 0h1v1h-1zm45 0h1v1h-1zm59 0h1v1h-1zm3 0h1v2h-1zm-1 1h1v1h-1zm-119 1h1v1h-1zm11 0h1v1h-1zm85 0h1v1h-1zm24 0h1v1h-1zm-154 1h1v1h-1zm1 0h2v1h-2zm2 0h1v1h-1zm8 0h1v1h-1zm30 0h1v1h-1zm161 0h1v1h-1zm-109 1h1v2h-1z"/><path d="M124 212h2v2h-2zm2 0h1v2h-1zm27 0h1v1h-1zm-139 1h1v1h-1zm62 0h1v1h-1zm19 0h1v1h-1zm1 0h1v1h-1zm20 0h1v1h-1zm17 0h1v1h-1zm35 0h1v1h-1zm36 0h1v1h-1zM3 214h2v1H3zm2 0h1v1H5zm10 0h2v1h-2zm2 0h1v1h-1zm10 0h1v1h-1zm17 0h2v1h-2zm2 0h1v1h-1zm9 0h2v1h-2zm2 0h1v1h-1zm17 0h3v1h-3zm3 0h1v1h-1zm11 0h1v1h-1zm1 0h1v1h-1zm17 0h1v1h-1zm1 0h1v1h-1zm7 0h2v1h-2zm2 0h1v1h-1zm8 0h2v1h-2zm2 0h1v1h-1zm7 0h2v1h-2zm2 0h1v1h-1zm41 0h1v1h-1zm1 0h1v1h-1zm7 0h2v1h-2zm2 0h1v1h-1zm8 0h2v1h-2zm2 0h1v1h-1zm8 0h2v1h-2zm2 0h1v1h-1zm12 0h1v1h-1zm-191 1h1v1h-1zm191 0h1v1h-1zm-76 2h1v1h-1z"/></g><path d="M79 33h11v1H79zm11 0h1v1h-1zm13 0h8v1h-8zm8 0h1v1h-1zM98 54h1v1h-1zm-9 10h1v1h-1zm5 8h1v1h-1zm-29 7h1v1h-1zm32 4h1v1h-1zm77 0h1v1h-1zM53 84h1v1h-1zm45 1h1v1h-1zm-32 3h1v1h-1zm70 6h1v1h-1zm-10 1h1v1h-1zm11 0h1v1h-1zm35 0h1v1h-1zm-78 32h1v1h-1zm54 4h1v1h-1zm-37 4h1v1h-1zm32 0h1v1h-1zm9 7h1v1h-1zm-29 4h1v1h-1zm75 22h1v1h-1zm-102 3h1v1h-1zm91 0h1v1h-1zm-122 1h1v1h-1zm32 0h1v1h-1zm1 0h1v1h-1zm91 0h1v1h-1zm-134 1h1v1h-1zm136 0h1v1h-1zm-82 1h1v9h-1zm13 0h1v1h-1zm-21 1h1v1h-1zm-26 1h1v1h-1zm85 0h1v1h-1zm-69 1h1v1h-1zm31 2h1v1h-1zm-38 2h1v1h-1zm-44 1h1v1h-1zm142 0h1v1h-1zm-73 1h1v1h-1zm21 0h1v1h-1zm21 0h1v1h-1zm38 0h1v1h-1zm-62 1h1v1h-1zm61 0h1v1h-1zm-123 1h1v1h-1zm33 0h1v1h-1zm26 0h1v1h-1zm37 2h1v1h-1zm1 2h1v1h-1zm-1 1h1v1h-1zm-82 5h1v1h-1zm-65 1h1v1h-1zm182 0h1v1h-1zm-107 2h1v14h-1zm-84 2h1v1H5zm57 1h1v1h-1zm36 0h1v1h-1zm3 0h1v1h-1zm39 0h1v1h-1zm12 0h1v1h-1zm16 0h1v1h-1zm9 0h1v1h-1zm3 0h1v1h-1zm-81 1h1v1h-1zm97 0h1v10h-1zm-161 1h1v1h-1zm92 0h1v1h-1zm59 0h1v1h-1zm23 0h1v1h-1zm-198 1h1v1h-1zm29 0h1v1h-1zm8 0h1v1h-1zm5 0h1v1h-1zm88 0h1v12h-1zm27 0h1v1h-1zm39 0h1v1h-1zm-184 2h1v1h-1zm10 0h1v2h-1zm16 0h1v1h-1zm110 0h1v1h-1zm25 0h1v6h-1zm22 0h1v1h-1zm8 0h1v1h-1zm10 0h1v2h-1zm-123 1h1v1h-1zm66 0h1v1h-1zm-156 1h1v1h-1zm17 0h6v1h-6zm6 0h1v1h-1zm9 0h1v1h-1zm176 0h6v1h-6zm6 0h1v1h-1zm-73 1h1v1h-1zm-138 1h1v1h-1zm155 0h1v1h-1zm-127 1h1v1h-1zm-16 1h1v1h-1zm63 0h1v1h-1zm62 0h1v1h-1zm33 0h1v1h-1zm12 0h1v1h-1zm19 0h2v1h-2zm2 0h1v1h-1zm-114 1h1v1h-1zm120 0h1v1h-1zm-121 1h1v1h-1zm6 0h1v1h-1zm14 0h1v1h-1zm25 0h1v1h-1zm1 0h1v1h-1zm54 0h1v1h-1zm-123 1h1v1h-1zm26 0h1v1h-1zm83 0h1v1h-1zm-47 1h1v1h-1z" fill="#00238b"/><path d="M95 42h1v1h-1zM66 77h1v1h-1zm0 1h1v1h-1zm48 16h1v1h-1zm42 50h1v1h-1zM35 166h1v1h-1zm0 1h1v1h-1zm66 4h1v1h-1zm20 0h1v1h-1zm12 2h1v1h-1zm-58 5h1v1h-1zm48 2h1v1h-1zm55 0h1v1h-1zm-5 14h4v1h-4zm4 0h1v1h-1zm16 0h1v1h-1zm-15 2h1v4h-1zm-159 3h1v15h-1zm98 1h1v1h-1zm61 0h1v1h-1zm39 0h1v1h-1zm-64 1h1v1h-1zm25 5h1v5h-1zm-83 2h1v1h-1zm-43 3h1v1h-1zm126 0h1v1h-1zm-149 2h1v1h-1zm1 0h1v1h-1zm190 0h1v1h-1zm1 0h1v1h-1zm-202 1h1v1h-1zm162 1h1v1h-1z" fill="#ced2e2"/><path d="M96 46h1v1h-1zm79 34h1v1h-1zM52 81h1v1h-1zm122 8h1v1h-1zM71 101h1v1h-1zm31 45h1v1h-1zm-33 19h1v1h-1zm67 0h1v1h-1zm9 3h1v1h-1zm3 0h1v1h-1zm35 3h1v1h-1zm-81 1h1v1h-1zm-48 1h1v1h-1zm58 0h1v1h-1zm68 0h1v1h-1zm-85 1h1v1h-1zm20 0h1v1h-1zm5 4h1v1h-1zm-90 4h1v1h-1zm92 0h1v1h-1zm-27 1h1v1h-1zm53 0h1v1h-1zm-115 1h1v1h-1zm12 0h1v1h-1zm6 0h1v1h-1zm1 0h1v1h-1zm3 0h1v1h-1zm16 0h1v1h-1zm36 0h1v1h-1zm33 0h1v1h-1zm40 0h1v1h-1zm16 0h1v1h-1zm-51 1h1v1h-1zm50 0h1v1h-1zM13 195h1v1h-1zm-5 1h1v1H8zm5 0h1v1h-1zm79 1h1v1h-1zm-6 2h1v3h-1zm-59 1h1v1h-1zm120 0h1v1h-1zm71 0h1v1h-1zm-132 2h1v1h-1zm45 1h1v1h-1zm19 0h1v1h-1zm-100 2h1v1h-1zm1 0h1v1h-1zm-25 1h1v1h-1zm52 0h1v1h-1zm1 0h1v1h-1zm6 0h1v1h-1zm132 0h1v1h-1zm-73 1h1v1h-1zm11 0h1v2h-1zm-69 1h1v3h-1zm69 1h1v1h-1zm-114 1h1v1h-1zm45 1h1v1h-1zm-85 2h1v1H1zm30 0h1v1h-1zm47 0h1v1h-1zm7 0h1v1h-1zm6 0h1v1h-1zm8 0h1v1h-1zm79 0h1v1h-1zm44 0h1v1h-1zm-103 1h1v1h-1zm90 0h1v1h-1zm-90 1h1v1h-1zm20 5h1v1h-1zm7 0h1v1h-1z" fill="#6e81b5"/><path d="M99 55h1v1h-1zm76 23h1v1h-1zM70 99h1v1h-1zm79 32h1v1h-1zm-14 10h1v1h-1zm26 1h1v1h-1zm-6 4h1v1h-1zm4 2h1v1h-1zm-43 1h1v1h-1zm28 22h1v1h-1zm57 0h1v1h-1zm-88 1h1v1h-1zm51 1h1v1h-1zm-70 3h1v1h-1zm0 1h1v1h-1zm-56 3h1v1h-1zm47 0h1v1h-1zm108 0h1v1h-1zm-113 2h1v1h-1zm99 0h1v1h-1zm-87 2h1v1h-1zm7 0h1v1h-1zm-6 1h1v1h-1zm2 1h1v1h-1zm33 0h1v1h-1zm29 5h1v1h-1zM0 195h1v1H0zm15 2h1v1h-1zm4 0h1v1h-1zm53 0h1v1h-1zm7 0h1v1h-1zm5 0h1v1h-1zm-53 3h1v1h-1zm-24 1h1v1H7zm140 1h1v1h-1zm34 0h1v1h-1zm34 0h1v1h-1zm-12 1h1v9h-1zm-45 2h1v1h-1zm49 0h1v1h-1zm-171 1h1v1h-1zm67 2h1v1h-1zm1 1h1v1h-1zm-70 2h1v1h-1zm191 0h1v1h-1zm-166 1h1v1h-1zm44 0h1v1h-1zm29 0h1v1h-1zm71 0h1v1h-1zM2 213h1v1H2zm88 0h1v1h-1zm38 1h1v1h-1zM0 215h1v1H0z" fill="#4e66a7"/><path d="M175 0h1v1h-1zm-60 32h10v1h-10zm10 0h1v1h-1zm12 0h12v1h-12zm12 0h1v1h-1zm-55 8h1v1h-1zm81 41h1v1h-1zM52 82h1v1h-1zm14 0h1v1h-1zm-8 24h1v1h-1zm2 4h1v1h-1zm83 26h1v1h-1zm12 3h1v1h-1zm2 1h1v1h-1zm-3 3h1v1h-1zm0 1h1v2h-1zm0 2h1v1h-1zm-3 1h1v1h-1zm49 18h1v1h-1zm-176 3h1v1h-1zm1 0h1v1h-1zm11 0h1v1h-1zm7 0h1v1h-1zm99 4h1v1h-1zm43 1h1v1h-1zm-66 1h1v1h-1zm48 5h1v1h-1zm-91 1h1v1h-1zm87 1h1v1h-1zm-37 3h1v1h-1zm-96 2h1v1h-1zm53 0h1v1h-1zm63 0h1v1h-1zm-22 14h1v1h-1zm56 0h1v1h-1zm-132 1h1v1h-1zm143 0h1v1h-1zm36 4h1v1h-1zm-128 4h1v1h-1zm-73 1h1v1h-1zm191 0h1v1h-1zm-105 3h1v1h-1zm1 0h1v1h-1zm23 0h1v1h-1zm55 1h1v1h-1z" fill="#8393bf"/><path d="M174 2h1v73h-1zm-39 31h1v21h-1zm-44 2h1v1h-1zm1 3h1v1h-1zm43 16h1v1h-1zm-34 6h1v1h-1zm-9 4h1v1h-1zm0 3h1v1h-1zm82 8h1v1h-1zM53 76h1v2h-1zm43 1h1v1h-1zm-43 1h1v1h-1zm43 2h1v1h-1zm77 8h1v1h-1zM66 90h1v1h-1zm34 0h1v1h-1zm72 3h1v1h-1zM55 97h1v1h-1zm116 0h1v1h-1zm-1 3h1v1h-1zm-112 3h1v1h-1zm111 2h1v1h-1zm-4 6h1v1h-1zm-88 1h1v1h-1zm84 5h1v1h-1zm1 0h1v1h-1zm-75 5h1v1h-1zm-15 2h1v1h-1zm1 1h1v1h-1zm81 0h1v1h-1zm1 0h1v1h-1zm-81 1h1v1h-1zm79 0h1v1h-1zm-78 1h1v1h-1zm20 1h1v1h-1zm5 3h1v1h-1zm38 7h1v1h-1zm-44 3h1v1h-1zm39 0h1v1h-1zm-2 1h1v1h-1zm-33 1h1v1h-1zm31 0h1v1h-1zm-21 4h1v1h-1zm11 0h1v1h-1zm82 19h2v1h-2zm-163 1h1v1h-1zm1 1h1v1h-1zm-10 2h1v8h-1zm12 0h1v9h-1zm106 1h1v1h-1zm37 0h1v1h-1zm14 0h1v1h-1zm-83 1h1v1h-1zm33 0h1v1h-1zm36 0h1v1h-1zm-133 1h1v1h-1zm7 0h1v1h-1zm19 0h1v1h-1zm32 0h1v1h-1zm27 0h1v1h-1zm9 0h1v1h-1zm14 0h1v1h-1zm41 0h1v1h-1zm-152 1h1v9h-1zm38 0h1v1h-1zm15 0h1v1h-1zm-9 1h1v1h-1zm98 0h1v1h-1zm-24 1h1v1h-1zm-82 1h1v1h-1zm97 0h1v1h-1zm-152 1h1v1h-1zm72 0h1v1h-1zm1 0h1v1h-1zm-61 1h1v1h-1zm37 0h1v1h-1zm81 0h1v1h-1zm-76 1h1v1h-1zm98 0h1v1h-1zm-154 1h1v1h-1zm134 0h1v1h-1zm-83 1h1v1h-1zm14 0h1v1h-1zm98 0h1v2h-1zm-142 1h1v2h-1zm9 1h1v1h-1zm54 0h1v1h-1zm41 0h1v1h-1zm9 0h1v1h-1zm22 0h1v1h-1zm7 0h1v1h-1zm8 0h1v1h-1zm-167 1h1v1h-1zm1 0h1v1h-1zm3 0h1v1h-1zm1 0h1v1h-1zm12 0h2v1h-2zm2 0h1v1h-1zm7 0h2v1h-2zm2 0h1v1h-1zm8 0h2v1h-2zm2 0h1v1h-1zm11 0h1v1h-1zm1 0h1v1h-1zm28 0h2v1h-2zm2 0h1v1h-1zm25 0h2v1h-2zm2 0h1v1h-1zm46 0h1v1h-1zm4 0h1v1h-1zm10 0h2v1h-2zm2 0h1v1h-1zm-76 1h1v1h-1zm35 4h1v1h-1zm1 0h1v1h-1zm-74 6h1v1h-1zm-83 1h1v1H3zm86 0h1v1h-1zm-13 1h1v5h-1zm-71 1h2v1H5zm2 0h1v1H7zm123 1h1v1h-1zm53 0h1v1h-1zm-86 1h1v1h-1zm24 0h2v1h-2zm2 0h1v1h-1zm7 0h2v1h-2zm2 0h1v1h-1zm18 0h1v1h-1zm-119 1h1v1h-1zm1 0h1v1h-1zm7 0h1v1h-1zm10 0h1v1h-1zm80 0h1v1h-1zm23 0h1v1h-1zm15 0h1v1h-1zm56 0h1v1h-1zm-147 1h1v1h-1zm135 0h1v1h-1zm-187 1h1v1h-1zm62 0h1v1h-1zm18 0h1v1h-1zm111 0h1v1h-1zm-205 1h1v1h-1zm1 0h1v2h-1zm75 0h1v1h-1zm47 0h1v1h-1zm-80 1h1v1h-1zm34 0h1v1h-1zm29 0h1v1h-1zm10 0h1v5h-1zm-115 1h1v1h-1zm1 0h1v1h-1zm23 0h1v1h-1zm41 0h1v5h-1zm28 0h1v1h-1zm122 0h1v1h-1zm-178 1h1v1h-1zm48 1h1v1h-1zm-53 1h1v1h-1zm54 0h1v1h-1zm-72 1h1v1h-1zm101 0h1v1h-1zm26 0h1v1h-1zm64 0h1v1h-1zm-140 1h1v1h-1zm11 1h1v2h-1zm36 0h1v2h-1zm52 0h1v2h-1zm-150 1h1v1h-1zm7 0h1v1h-1zm54 0h1v1h-1zm11 0h1v1h-1zm20 0h1v1h-1zm15 0h1v1h-1zm11 0h1v3h-1zm17 0h1v1h-1zm43 0h1v1h-1zm13 0h1v1h-1zm7 0h1v1h-1zM2 215h4v1H2zm4 0h1v1H6zm9 0h2v1h-2zm2 0h1v1h-1zm27 0h2v1h-2zm2 0h1v1h-1zm9 0h1v1h-1zm1 0h1v1h-1zm17 0h5v1h-5zm5 0h1v1h-1zm7 0h5v1h-5zm5 0h1v1h-1zm16 0h2v1h-2zm2 0h1v1h-1zm5 0h4v1h-4zm4 0h1v1h-1zm6 0h3v1h-3zm3 0h1v1h-1zm6 0h4v1h-4zm4 0h1v1h-1zm38 0h4v1h-4zm4 0h1v1h-1zm5 0h4v1h-4zm4 0h1v1h-1zm6 0h4v1h-4zm4 0h1v1h-1zm6 0h4v1h-4zm4 0h1v1h-1zm-64 2h1v1h-1zm-2 1h1v1h-1z" fill="#003190"/><path d="M77 32h1v1h-1zm22 21h1v1h-1zm38 16h1v1h-1zm-11 2h1v22h-1zm0 22h1v1h-1zm-49 1h1v1h-1zm-20 11h1v1h-1zm112 2h1v1h-1zm-1 2h1v1h-1zm-88 4h1v1h-1zm83 4h1v1h-1zm-5 6h1v1h-1zm-66 1h1v1h-1zm59 6h1v1h-1zm-74 1h1v1h-1zm64 7h1v1h-1zm-52 2h1v1h-1zm62 1h1v1h-1zm-48 6h1v1h-1zm21 0h1v1h-1zm28 2h1v1h-1zm-40 1h1v1h-1zm3 0h1v1h-1zm-91 15h8v1h-8zm8 0h1v1h-1zm4 0h7v1h-7zm7 0h1v1h-1zm1 3h1v1h-1zm-19 1h1v1h-1zm29 1h1v1h-1zm42 0h1v1h-1zm29 0h1v1h-1zm-33 2h1v1h-1zm-40 2h1v1h-1zm43 1h1v1h-1zm18 1h1v1h-1zm18 0h1v1h-1zm52 0h1v1h-1zm-132 2h1v4h-1zm-21 2h1v1h-1zm123 1h1v1h-1zm25 0h1v1h-1zm-127 1h1v1h-1zm34 0h1v1h-1zm10 0h1v1h-1zm-54 1h1v1h-1zm74 1h1v2h-1zm-12 1h1v1h-1zm12 1h1v1h-1zm45 0h1v1h-1zm30 0h1v1h-1zm-155 1h1v1h-1zm92 0h1v1h-1zm33 0h1v1h-1zm-87 11h1v1h-1zm120 0h1v1h-1zm4 0h1v1h-1zm-187 1h1v1h-1zm115 1h1v1h-1zm13 0h1v1h-1zm28 0h1v1h-1zm42 0h1v1h-1zm-197 1h1v1h-1zm110 2h1v1h-1zm19 0h1v13h-1zm87 0h1v1h-1zm-200 1h1v1h-1zm35 0h1v1h-1zm69 0h1v1h-1zm87 0h1v1h-1zm-207 7h1v1h-1zm38 0h1v1h-1zm11 0h1v1h-1zm13 1h1v1h-1zm-48 3h1v1h-1zm78 0h1v1h-1zm113 0h1v1h-1zm-76 1h1v1h-1zm7 0h1v1h-1zm-9 4h1v1h-1z" fill="#f7f9fc"/><path d="M79 32h12v1H79zm12 0h1v1h-1zm12 0h9v1h-9zm9 0h1v1h-1zM98 51h1v1h-1zm-8 13h1v1h-1zm0 1h1v1h-1zm3 7h1v1h-1zm4 13h1v1h-1zm76 10h1v1h-1zm-3 9h1v1h-1zm-93 6h1v1h-1zm11 29h1v1h-1zm44 4h1v1h-1zm28 0h1v1h-1zm-30 1h1v1h-1zm-31 1h1v1h-1zm59 0h1v1h-1zm2 1h1v1h-1zm-47 4h1v1h-1zm85 16h1v1h-1zm-101 7h1v1h-1zm1 0h1v1h-1zm8 0h1v1h-1zm20 0h1v1h-1zm-48 1h1v1h-1zm45 0h1v1h-1zm-23 1h1v1h-1zm-10 2h1v1h-1zm5 0h1v1h-1zm73 0h1v1h-1zm10 1h1v1h-1zm-93 3h1v1h-1zm6 2h1v1h-1zm13 0h1v1h-1zm-10 3h1v1h-1zm12 0h1v1h-1zm-16 13h1v12h-1zm54 1h1v1h-1zm-108 4h1v1h-1zm11 0h1v1h-1zm180 0h1v1h-1zM9 206h1v1H9zm4 0h1v1h-1zm170 0h1v1h-1zm24 0h1v1h-1zm-56 3h1v1h-1zm7 1h1v1h-1zm-117 1h1v1h-1zm49 0h1v1h-1zm93 1h1v1h-1zm44 0h1v1h-1zm-156 1h1v1h-1zm101 0h1v1h-1zm37 0h1v1h-1zm-40 1h1v1h-1zm-73 1h1v1h-1z" fill="#b3bdd7"/><path d="M136 32h1v1h-1zm-8 24h7v1h-7zm7 0h1v1h-1zM52 75h1v1h-1zm1 13h1v1h-1zm17 35h1v1h-1zm86 1h1v1h-1zm-1 18h1v1h-1zm-57 2h1v1h-1zm17 27h1v1h-1zm-49 2h1v1h-1zm123 2h1v1h-1zm-25 4h1v1h-1zm-132 5h1v1h-1zm15 0h1v1h-1zm-16 2h1v1h-1zm30 0h1v1h-1zm60 0h1v1h-1zm13 0h1v1h-1zm-57 11h1v1h-1zm125 5h1v1h-1zm4 1h1v1h-1zm1 0h1v1h-1zm-157 1h1v1h-1zm27 2h1v1h-1zm87 3h1v1h-1zm-20 1h1v1h-1zm73 1h1v1h-1zm-140 2h1v1h-1zm-43 1h1v1h-1zm189 1h1v1h-1z" fill="#0e3b94"/><path d="M99 56h1v1h-1zm-4 20h1v1h-1zM53 87h1v1h-1zm46 2h1v1h-1zm73 7h1v1h-1zm-102 4h1v1h-1zm100 2h1v1h-1zm-98 2h1v1h-1zm4 6h1v1h-1zm-13 4h1v1h-1zm3 4h1v1h-1zm94 1h1v1h-1zm-71 4h1v1h-1zm7 5h1v1h-1zm-15 5h1v1h-1zm65 0h1v1h-1zm-61 3h1v1h-1zm54 2h1v1h-1zm-13 7h1v1h-1zm31 0h1v1h-1zm-6 1h1v1h-1zm-45 1h1v1h-1zm15 0h1v1h-1zm31 0h1v1h-1zm-40 2h1v1h-1zm-87 17h5v1h-5zm5 0h1v1h-1zm7 0h5v1h-5zm5 0h1v1h-1zm162 0h1v1h-1zm-135 1h1v1h-1zm42 5h1v1h-1zm40 0h1v1h-1zm4 0h1v1h-1zm25 2h1v1h-1zm-12 1h1v1h-1zm24 0h1v1h-1zm-101 1h1v1h-1zm66 0h1v1h-1zm-107 2h1v5h-1zm33 0h1v1h-1zm45 0h1v1h-1zm-102 1h1v1h-1zm59 0h1v1h-1zm-59 1h1v1h-1zm140 0h1v1h-1zm-75 1h1v1h-1zm68 0h1v1h-1zm33 1h1v1h-1zm-165 1h1v1h-1zm23 0h1v1h-1zm102 0h1v1h-1zm28 0h1v1h-1zm-152 1h1v1h-1zm102 0h1v1h-1zm15 0h1v1h-1zm-90 1h1v1h-1zm109 0h1v1h-1zM26 201h1v1h-1zm79 0h1v1h-1zm11 0h1v1h-1zm30 0h1v1h-1zm46 0h1v1h-1zm19 0h1v1h-1zm6 0h1v1h-1zm-6 1h1v1h-1zm-57 2h1v1h-1zm-10 1h1v1h-1zm-49 5h1v1h-1zm-60 2h1v1h-1zm18 0h1v1h-1zm173 0h1v1h-1zM7 214h1v1H7zm51 0h1v1h-1zm21 0h1v1h-1zm58 0h1v1h-1zm51 0h1v1h-1zm-25 1h1v1h-1zm3 0h1v1h-1z" fill="#001588"/><path d="M100 58h1v1h-1zm75 21h1v1h-1zM52 80h1v1h-1zm113 33h1v1h-1zm-82 4h1v1h-1zm76 4h1v1h-1zm-68 3h1v1h-1zm-4 14h1v1h-1zm71 6h1v1h-1zm3 3h1v1h-1zm-8 2h1v1h-1zm4 0h1v1h-1zM38 170h1v9h-1zm19 1h1v1h-1zm12 0h1v1h-1zm53 0h1v1h-1zm48 0h1v1h-1zm33 0h1v1h-1zm-139 2h1v1h-1zm32 0h1v1h-1zm-18 2h1v1h-1zm34 2h1v1h-1zm14 0h1v1h-1zm31 0h1v1h-1zm36 0h1v1h-1zm-32 1h1v1h-1zm-123 1h1v1h-1zm70 5h1v1h-1zm79 0h1v1h-1zm14 0h1v1h-1zM14 197h1v1h-1zm6 0h1v1h-1zm53 0h1v1h-1zm26 3h1v1h-1zm-46 1h1v1h-1zm-29 1h1v1h-1zm134 1h1v1h-1zm52 0h1v1h-1zm-184 2h1v1h-1zm17 0h1v1h-1zm174 0h1v1h-1zm-53 1h1v1h-1zm-112 3h1v1h-1zm5 0h1v1h-1zm105 4h1v2h-1zm25 0h1v1h-1zm6 0h1v1h-1zm-65 2h1v1h-1zm34 0h1v1h-1z" fill="#576eac"/><path d="M175 76h1v1h-1zm0 1h1v1h-1zM66 84h1v1h-1zm104 19h1v1h-1zm-85 16h1v1h-1zm73 3h1v1h-1zm-80 9h1v1h-1zm24 0h1v1h-1zm51 9h1v1h-1zm-61 1h1v1h-1zm61 0h1v1h-1zm2 3h1v1h-1zm-55 1h1v1h-1zm-34 21h1v1h-1zm135 2h1v1h-1zm-148 3h1v1h-1zm42 0h1v1h-1zm31 0h1v1h-1zm62 0h1v1h-1zm9 0h1v1h-1zm-147 1h1v1h-1zm145 0h1v1h-1zm-150 1h1v1h-1zm1 0h1v1h-1zm19 0h1v1h-1zm84 0h1v1h-1zm1 0h1v1h-1zm10 0h1v1h-1zm5 0h1v1h-1zm31 0h1v1h-1zm6 0h1v1h-1zm-73 5h1v1h-1zm64 0h1v1h-1zm0 1h1v1h-1zm-11 1h1v1h-1zm-16 1h1v1h-1zm-54 3h1v1h-1zm-34 1h1v1h-1zm24 0h1v1h-1zm62 1h1v1h-1zm-72 9h1v1h-1zm-90 2h1v1H2zm101 3h1v1h-1zm107 0h1v1h-1zm-43 1h1v1h-1zm-9 3h1v1h-1zm-118 2h1v1h-1zm104 0h1v1h-1zm-47 1h1v1h-1zm20 0h1v5h-1zm110 0h1v1h-1zm-194 4h1v1h-1zm191 0h1v1h-1zm-176 1h1v1h-1zm50 0h1v1h-1zm19 0h1v1h-1zm44 0h1v1h-1zm-119 1h1v1h-1zm79 1h1v1h-1zm23 0h1v1h-1zm14 0h1v1h-1zm0 1h1v1h-1zm43 0h1v1h-1zm-61 3h1v1h-1z" fill="#3d59a1"/><path d="M137 70h1v1h-1zm38 16h1v1h-1zm-2 10h1v1h-1zm-101 6h1v1h-1zm7 10h1v1h-1zm-9 12h1v1h-1zm86 1h1v1h-1zm-1 1h1v1h-1zm-2 2h1v1h-1zm-1 1h1v1h-1zm-76 1h1v1h-1zm6 5h1v1h-1zm63 0h1v1h-1zm16 6h1v1h-1zm1 2h1v1h-1zm-12 1h1v1h-1zm0 1h1v1h-1zm12 1h1v1h-1zm-3 1h1v1h-1zm-5 1h1v1h-1zm7 0h1v1h-1zm-1 1h1v1h-1zm-25 16h1v1h-1zm64 0h1v1h-1zm-129 1h1v2h-1zm127 1h1v1h-1zm-174 1h1v1h-1zm47 0h1v1h-1zm74 0h1v1h-1zm58 0h1v1h-1zm-147 2h1v1h-1zm69 0h1v1h-1zm62 0h1v1h-1zm-106 1h1v1h-1zm51 0h1v1h-1zm-61 1h1v10h-1zm122 1h1v1h-1zm-88 1h1v1h-1zm61 0h1v1h-1zm19 0h1v1h-1zm-84 2h1v1h-1zm56 0h1v1h-1zm-105 1h1v1h-1zm79 1h1v1h-1zm-49 3h1v1h-1zm-11 1h1v1h-1zm30 0h1v1h-1zm53 0h1v1h-1zm-30 1h1v1h-1zm30 0h1v1h-1zm31 0h1v1h-1zm8 1h1v1h-1zm-158 3h1v1h-1zm63 0h1v1h-1zm1 0h1v1h-1zm27 0h1v1h-1zm1 0h1v1h-1zm22 0h1v1h-1zm1 0h1v1h-1zm36 0h1v1h-1zM9 197h1v1H9zm185 1h2v1h-2zm2 0h1v1h-1zm-163 2h1v1h-1zm4 0h1v1h-1zm8 0h1v1h-1zm60 0h1v1h-1zm6 0h1v1h-1zm101 0h1v2h-1zm12 0h1v1h-1zM6 202h1v9H6zm101 0h1v1h-1zm80 0h1v1h-1zm25 0h1v1h-1zm-181 1h1v1h-1zm27 0h1v1h-1zm55 0h1v1h-1zm69 0h1v1h-1zm40 0h1v1h-1zm-100 1h1v1h-1zm14 0h1v7h-1zm-38 2h1v1h-1zm63 4h1v1h-1zM6 211h1v1H6zm26 0h1v1h-1zm104 0h1v1h-1zm87 0h1v1h-1zm-110 1h1v1h-1zm-2 1h1v1h-1zm69 0h1v1h-1zm-156 1h1v1h-1zm11 0h1v1h-1zm180 0h1v1h-1zm11 0h1v1h-1zm-213 1h1v1h-1zm148 0h1v1h-1zm2 1h1v1h-1zm3 0h1v1h-1z" fill="#eceff6"/><path d="M66 15h1v61h-1zm35 17h1v1h-1zm25 1h1v1h-1zm-32 6h1v1h-1zm34 30h7v1h-7zm7 0h1v1h-1zm-69 7h1v1h-1zm29 3h1v1h-1zm-28 8h1v1h-1zm32 5h1v1h-1zm-30 3h1v1h-1zm103 4h1v1h-1zm-116 3h1v1h-1zm17 2h1v1h-1zm89 14h1v1h-1zm-69 7h1v1h-1zm20 10h1v1h-1zm-12 11h1v1h-1zm56 1h1v1h-1zm-13 23h1v1h-1zm-92 1h1v1h-1zm37 0h1v1h-1zm23 0h1v1h-1zm15 0h1v1h-1zm6 0h1v1h-1zm49 0h1v1h-1zm-57 2h1v1h-1zm-70 1h1v1h-1zm89 0h1v1h-1zm-84 1h1v8h-1zm63 0h1v1h-1zm70 0h1v1h-1zm-74 2h1v1h-1zm45 0h1v1h-1zm25 1h1v1h-1zm0 1h1v1h-1zm-26 1h1v1h-1zm30 2h1v1h-1zm-133 1h1v1h-1zm84 0h1v1h-1zm-11 1h1v1h-1zm-4 2h1v1h-1zm53 0h1v1h-1zm15 8h1v1h-1zm-78 6h1v1h-1zm78 0h1v1h-1zm-160 1h1v1h-1zm108 0h1v1h-1zM7 202h1v1H7zm30 0h1v1h-1zm62 2h1v1h-1zm-3 1h2v1h-2zm2 0h1v1h-1zm-70 1h3v1h-3zm3 0h1v1h-1zm188 0h3v1h-3zm3 0h1v1h-1zm-126 1h1v1h-1zm111 0h1v1h-1zm-167 1h1v1h-1zm-18 2h1v1h-1zm143 0h1v1h-1zm48 0h1v1h-1zm-110 1h1v1h-1zm42 0h1v1h-1zm33 1h1v1h-1zm-78 1h1v1h-1zm63 0h1v1h-1zm-115 1h1v1h-1zm-29 1h1v1h-1zm23 0h1v1h-1z" fill="#d3dae9"/><path d="M114 15h1v15h-1zm0 15h1v1h-1zm-12 3h1v1h-1zm11 0h1v1h-1zM78 93h1v1h-1zm36 3h1v38h-1zm-55 11h1v1h-1zm34 19h1v1h-1zm21 8h1v1h-1zm28 2h1v1h-1zm-51 4h1v1h-1zm45 0h1v1h-1zm15 3h1v1h-1zm9 5h1v1h-1zm39 18h1v1h-1zm-1 1h1v1h-1zm-51 1h1v1h-1zm-2 1h1v1h-1zm-29 2h1v1h-1zm-15 1h1v1h-1zm6 0h1v1h-1zm75 0h1v1h-1zm-3 4h1v1h-1zm-59 1h1v1h-1zm59 4h1v1h-1zm-140 3h1v1h-1zm-10 1h1v1h-1zm78 0h1v1h-1zm7 0h1v1h-1zm37 0h1v1h-1zm31 0h1v1h-1zm12 10h2v1h-2zm2 0h1v1h-1zm-77 6h1v1h-1zm9 0h1v1h-1zm32 0h1v1h-1zm36 0h1v1h-1zm-90 1h1v1h-1zm53 0h1v1h-1zm66 0h1v1h-1zm-171 5h1v1h-1zm107 1h1v1h-1zm8 1h1v1h-1zm-121 2h1v1h-1zm61 3h1v1h-1zm37 0h1v1h-1z" fill="#001087"/><path d="M113 32h1v1h-1zM97 48h1v1h-1zM66 79h1v1h-1zm109 5h1v1h-1zM53 91h1v1h-1zm15 1h1v1h-1zm22 2h1v1h-1zm36 0h1v1h-1zm11 0h1v1h-1zm-67 4h1v1h-1zm96 14h1v1h-1zm-77 10h1v1h-1zm12 8h1v1h-1zm4 2h1v1h-1zm-24 2h1v1h-1zm29 0h1v1h-1zm-25 3h1v1h-1zm54 2h1v1h-1zm19 0h1v1h-1zm-65 3h1v1h-1zm41 0h1v1h-1zm-6 3h1v1h-1zm-14 5h1v1h-1zm33 17h1v1h-1zm-115 1h1v1h-1zm74 3h1v1h-1zm48 0h1v1h-1zm-65 1h1v1h-1zm19 2h1v9h-1zm71 0h1v1h-1zm-105 1h1v1h-1zm127 0h1v8h-1zm-122 2h1v1h-1zm82 0h1v1h-1zm28 0h1v1h-1zm-32 1h1v1h-1zm21 1h1v1h-1zm-88 1h1v1h-1zm99 0h1v1h-1zm-67 1h1v1h-1zm29 0h1v1h-1zm1 0h1v1h-1zm-116 2h1v1h-1zm72 0h1v1h-1zm42 0h1v1h-1zm51 0h1v1h-1zm-147 1h1v1h-1zm30 0h1v1h-1zm41 0h1v1h-1zm-86 1h1v1h-1zm41 12h1v1h-1zm10 1h1v1h-1zm-84 2h1v1H6zm185 0h1v1h-1zm-85 1h1v1h-1zm21 0h1v1h-1zm51 0h1v1h-1zm-116 2h1v1h-1zm84 0h1v1h-1zM8 204h1v1H8zm110 0h1v1h-1zm-19 2h1v1h-1zm124 0h1v1h-1zm-72 1h1v1h-1zm-137 1h1v1h-1zm41 0h1v1h-1zm96 0h1v1h-1zm-102 2h1v1h-1zm11 0h1v1h-1zm30 2h1v1h-1zm-10 1h1v1h-1zm21 0h1v1h-1zm47 0h1v1h-1zm41 0h2v1h-2zm2 0h1v1h-1zm-42 3h1v1h-1z" fill="#c0c8de"/><path d="M77 33h1v60h-1zm49 37h1v1h-1zm11 1h1v22h-1zm-44 2h1v1h-1zM67 86h1v1h-1zm30 0h1v1h-1zm-29 5h1v1h-1zm106 1h1v1h-1zm-97 1h1v1h-1zm60 0h1v1h-1zm-79 14h1v1h-1zm1 2h1v1h-1zm106 5h1v1h-1zm-101 3h1v1h-1zm23 3h1v1h-1zm-18 3h1v1h-1zm88 1h1v1h-1zm-49 9h1v1h-1zm-22 5h1v1h-1zm66 2h1v1h-1zm-82 25h1v1h-1zm-26 1h1v1h-1zm0 1h1v1h-1zm-19 3h1v9h-1zm72 0h1v1h-1zm1 0h1v1h-1zm87 0h1v1h-1zm-115 1h1v1h-1zm101 0h1v2h-1zm0 2h1v1h-1zm7 3h1v1h-1zm-153 3h1v1h-1zm61 0h1v1h-1zm76 0h1v1h-1zm-12 2h1v1h-1zm8 0h1v1h-1zm-88 2h1v1h-1zm61 1h1v1h-1zm13 0h1v1h-1zm-106 2h1v1h-1zm-6 1h1v1h-1zm155 0h1v1h-1zm-9 7h1v1h-1zm-105 5h1v12h-1zm79 1h1v1h-1zM6 201h1v1H6zm132 0h1v1h-1zm0 1h1v1h-1zm-91 1h1v1h-1zm-8 2h1v1h-1zm88 0h1v1h-1zm18 0h1v1h-1zm-90 2h1v1h-1zm104 1h1v1h-1zm-86 3h1v1h-1zm-67 1h1v1H6zm35 0h1v1h-1zm95 0h1v1h-1zm-124 1h1v1h-1zm89 3h1v1h-1zm37 2h1v1h-1zm0 1h1v1h-1z" fill="#f2f5f9"/><path d="M92 33h1v1h-1zm2 43h1v1h-1zM52 86h1v1h-1zm46 3h1v1h-1zm-45 3h1v1h-1zm18 8h1v1h-1zm4 7h1v1h-1zm-13 7h1v1h-1zm26 7h1v1h-1zm-17 4h1v1h-1zm83 2h1v1h-1zm-79 2h1v1h-1zm61 12h1v1h-1zm24 3h1v1h-1zm0 1h1v1h-1zm-54 3h1v1h-1zm15 0h1v1h-1zm-3 1h1v1h-1zm87 16h1v1h-1zm-170 3h1v1h-1zm37 3h1v2h-1zm8 1h1v1h-1zm111 0h1v1h-1zm-119 1h1v1h-1zm8 0h1v1h-1zm51 0h1v1h-1zm0 1h1v1h-1zm4 0h1v1h-1zm-52 1h1v1h-1zm86 0h1v1h-1zm-118 1h1v1h-1zm36 0h1v1h-1zm3 0h1v1h-1zm-8 2h1v1h-1zm8 3h1v1h-1zm-64 2h1v1h-1zm109 0h1v1h-1zm-73 1h1v1h-1zm15 0h1v1h-1zm-48 2h1v1h-1zm4 1h1v1h-1zm153 0h1v1h-1zM8 195h1v1H8zm75 2h1v1h-1zm89 0h1v1h-1zm-157 1h1v1h-1zm131 2h1v1h-1zm-50 1h1v1h-1zm15 1h1v1h-1zm43 0h1v1h-1zm-100 1h1v1h-1zm158 0h1v1h-1zm-99 1h1v7h-1zm-67 3h1v1h-1zm4 0h1v1h-1zm-35 2h1v1h-1zm155 0h1v1h-1zm-57 2h1v1h-1zm94 1h1v1h-1zm-124 1h1v1h-1zm98 0h1v1h-1zm18 0h1v1h-1zm-19 2h1v1h-1zm-149 1h1v1h-1zm188 0h1v1h-1zm3 0h1v1h-1z" fill="#e3e7f0"/></svg>