<svg xmlns="http://www.w3.org/2000/svg" role="img" viewBox="-4.36 -4.36 226.46 99.46"><title>University of Delaware (member) logo</title><g fill="#fff"><path d="M0 0h1v1H0zm1 0h16v1H1zm16 0h1v1h-1zm1 0h1v1h-1zm15 0h1v1h-1zm1 0h14v1H34zm14 0h1v1h-1zm1 0h1v1h-1zM0 1h1v1H0zm1 0h16v1H1zm16 0h1v1h-1zm1 0h1v1h-1zm15 0h1v1h-1zm1 0h14v1H34zm14 0h1v1h-1zm1 0h1v1h-1zM0 2h1v1H0zm1 0h1v1H1zm1 0h1v1H2zm1 0h1v1H3zm1 0h1v1H4zm1 0h8v1H5zm8 0h1v1h-1zm1 0h1v1h-1zm1 0h1v1h-1zm1 0h1v1h-1zm1 0h1v1h-1zm1 0h1v1h-1zm15 0h1v1h-1zm1 0h1v1h-1zm1 0h1v1h-1zm1 0h1v1h-1zm1 0h8v1h-8zm8 0h1v1h-1zm1 0h1v1h-1zm1 0h1v1h-1zm1 0h1v1h-1zm1 0h1v1h-1zM4 3h1v1H4zm1 0h1v1H5zm1 0h6v1H6zm6 0h1v1h-1zm1 0h1v1h-1zm1 0h1v1h-1zm22 0h1v1h-1zm1 0h1v1h-1zm1 0h5v1h-5zm5 0h1v1h-1zm1 0h1v1h-1zm1 0h1v1h-1zM5 4h1v1H5zm1 0h1v1H6zm1 0h5v38H7zm5 0h1v1h-1zm1 0h1v1h-1zm24 0h1v1h-1zm1 0h1v1h-1zm1 0h3v1h-3zm3 0h1v29h-1zm1 0h1v1h-1zm1 0h1v1h-1zM6 5h1v1H6zm6 0h1v1h-1zm26 0h1v1h-1zm1 0h3v1h-3zm4 0h1v1h-1zM6 6h1v1H6zm6 0h1v1h-1zm26 0h1v1h-1zm1 0h1v1h-1zm1 0h2v36h-2zm3 0h1v1h-1zM6 7h1v28H6zm6 0h1v1h-1zm27 0h1v1h-1zm4 0h1v1h-1zm3 0h1v1h-1zm1 0h4v1h-4zm4 0h1v1h-1zm1 0h1v1h-1zm10 0h1v1h-1zm1 0h20v1H63zm20 0h1v1h-1zm1 0h1v1h-1zm6 0h1v1h-1zm1 0h17v1H91zm17 0h1v1h-1zm1 0h1v1h-1zm1 0h1v1h-1zm1 0h8v1h-8zm8 0h1v1h-1zm1 0h1v1h-1zm1 0h1v1h-1zm12 0h1v1h-1zm1 0h1v1h-1zm1 0h1v1h-1zm1 0h1v1h-1zm1 0h1v1h-1zm1 0h1v1h-1zm1 0h1v1h-1zm3 0h1v1h-1zm1 0h6v1h-6zm6 0h17v1h-17zm17 0h1v1h-1zm1 0h1v1h-1zm1 0h1v1h-1zm1 0h6v1h-6zm6 0h1v1h-1zm5 0h1v1h-1zm1 0h4v1h-4zm4 0h1v1h-1zm1 0h1v1h-1zM12 8h1v25h-1zm27 0h1v1h-1zm4 0h1v1h-1zm3 0h1v1h-1zm1 0h1v1h-1zm1 0h3v1h-3zm3 0h1v3h-1zm1 0h1v1h-1zm12 0h3v1h-3zm3 0h1v1h-1zm1 0h1v1h-1zm1 0h1v1h-1zm1 0h1v1h-1zm1 0h1v1h-1zm1 0h2v1h-2zm2 0h1v22h-1zm1 0h1v1h-1zm1 0h1v1h-1zm1 0h1v1h-1zm1 0h4v1h-4zm4 0h1v1h-1zm1 0h1v1h-1zm1 0h1v1h-1zm8 0h1v1h-1zm1 0h2v1h-2zm2 0h1v1h-1zm1 0h1v1h-1zm1 0h1v1h-1zm1 0h2v1h-2zm2 0h1v22h-1zm1 0h1v1h-1zm1 0h2v1h-2zm2 0h1v1h-1zm1 0h1v1h-1zm1 0h1v1h-1zm1 0h1v1h-1zm1 0h1v2h-1zm1 0h1v4h-1zm1 0h1v1h-1zm1 0h1v1h-1zm1 0h1v1h-1zm1 0h2v1h-2zm2 0h1v22h-1zm1 0h1v1h-1zm1 0h1v1h-1zm1 0h1v1h-1zm1 0h1v1h-1zm1 0h1v1h-1zm1 0h1v1h-1zm1 0h1v1h-1zm1 0h1v1h-1zm8 0h1v1h-1zm1 0h1v1h-1zm1 0h1v1h-1zm1 0h1v1h-1zm1 0h1v1h-1zm1 0h1v1h-1zm1 0h1v1h-1zm1 0h1v1h-1zm1 0h1v1h-1zm1 0h1v1h-1zm2 0h1v1h-1zm1 0h1v1h-1zm1 0h3v1h-3zm3 0h1v22h-1zm1 0h1v1h-1zm1 0h1v1h-1zm1 0h1v1h-1zm1 0h2v1h-2zm2 0h1v1h-1zm1 0h1v1h-1zm1 0h1v1h-1zm1 0h1v1h-1zm1 0h1v1h-1zm1 0h1v22h-1zm1 0h1v22h-1zm1 0h1v1h-1zm1 0h2v1h-2zm2 0h1v1h-1zm1 0h1v1h-1zm1 0h1v1h-1zm1 0h1v1h-1zm1 0h1v1h-1zm1 0h1v1h-1zm1 0h1v1h-1zm1 0h3v1h-3zm3 0h1v6h-1zm1 0h1v1h-1zm1 0h1v1h-1zm5 0h1v1h-1zm1 0h1v1h-1zm1 0h3v1h-3zm3 0h1v1h-1zm1 0h1v1h-1zM39 9h1v1h-1zm4 0h1v1h-1zm5 0h1v1h-1zm1 0h1v1h-1z"/><path d="M50 9h2v2h-2zm2 0h1v3h-1zm1 0h1v1h-1zm11 0h1v1h-1zm1 0h1v1h-1zm1 0h1v21h-1zm1 0h1v1h-1zm1 0h1v1h-1zm3 0h1v1h-1zm1 0h1v1h-1zm1 0h1v21h-1zm2 0h1v1h-1zm2 0h1v1h-1zm1 0h1v1h-1zm1 0h2v1h-2zm2 0h1v7h-1zm1 0h1v1h-1zm10 0h1v1h-1zm1 0h1v2h-1zm1 0h1v1h-1zm1 0h1v1h-1zm2 0h1v1h-1zm1 0h1v1h-1zm1 0h1v21h-1zm2 0h1v8h-1zm5 0h1v1h-1zm1 0h1v1h-1zm5 0h1v1h-1zm1 0h1v1h-1zm1 0h1v21h-1zm2 0h1v10h-1zm3 0h1v1h-1zm1 0h1v1h-1zm1 0h1v1h-1zm1 0h1v1h-1zm1 0h1v1h-1zm1 0h1v1h-1zm6 0h1v1h-1zm1 0h1v1h-1zm1 0h1v1h-1zm1 0h1v1h-1zm4 0h1v1h-1zm1 0h1v1h-1zm1 0h1v1h-1zm1 0h1v2h-1zm4 0h1v1h-1zm1 0h2v21h-2zm3 0h1v1h-1zm2 0h1v1h-1zm1 0h1v1h-1zm1 0h1v1h-1zm1 0h1v1h-1zm4 0h1v19h-1zm3 0h1v17h-1zm5 0h1v1h-1zm1 0h1v1h-1zm1 0h1v1h-1zm2 0h1v1h-1zm1 0h1v1h-1zm1 0h2v1h-2zm3 0h1v1h-1zm8 0h1v1h-1zm1 0h1v1h-1zm1 0h1v1h-1zm1 0h1v1h-1zM39 10h1v1h-1zm10 0h1v1h-1zm4 0h1v1h-1zm1 0h1v1h-1zm11 0h1v1h-1zm2 0h1v1h-1zm5 0h1v1h-1zm3 0h1v1h-1zm3 0h1v1h-1zm1 0h2v1h-2zm3 0h1v1h-1zm10 0h1v1h-1zm2 0h1v1h-1zm4 0h1v1h-1zm9 0h1v1h-1zm1 0h1v1h-1zm5 0h1v1h-1zm8 0h1v1h-1zm1 0h1v1h-1zm1 0h1v7h-1zm1 0h1v1h-1zm1 0h1v1h-1zm5 0h1v1h-1zm1 0h1v6h-1zm1 0h1v1h-1zm6 0h1v1h-1zm1 0h1v1h-1zm11 0h1v1h-1zm1 0h1v1h-1zm1 0h1v1h-1zm14 0h1v1h-1zm1 0h1v1h-1zm3 0h1v1h-1zm1 0h2v1h-2zm3 0h1v1h-1zm8 0h1v1h-1zm1 0h1v1h-1zm1 0h1v1h-1zM39 11h1v14h-1zm10 0h1v15h-1z"/><path d="M50 11h3v1h-3zm3 0h1v2h-1zm1 0h1v1h-1zm1 0h1v1h-1zm10 0h1v1h-1zm2 0h1v1h-1zm5 0h1v17h-1zm3 0h1v17h-1zm3 0h1v1h-1zm1 0h1v1h-1zm1 0h1v2h-1zm2 0h1v1h-1zm10 0h1v1h-1zm1 0h1v1h-1zm1 0h1v1h-1zm4 0h1v17h-1zm10 0h1v1h-1zm5 0h1v16h-1zm9 0h1v1h-1zm2 0h1v5h-1zm1 0h1v1h-1zm4 0h1v1h-1zm1 0h1v4h-1zm2 0h1v1h-1zm7 0h1v1h-1zm1 0h1v1h-1zm10 0h1v1h-1zm1 0h1v1h-1zm15 0h1v1h-1zm1 0h1v1h-1zm1 0h1v1h-1zm3 0h1v1h-1zm1 0h1v1h-1zm2 0h1v1h-1zm8 0h1v1h-1zm1 0h1v1h-1zm1 0h1v1h-1z"/><path d="M50 12h4v1h-4zm4 0h1v2h-1zm1 0h1v1h-1zm10 0h1v1h-1zm14 0h1v1h-1zm3 0h1v1h-1zm10 0h1v1h-1zm1 0h1v1h-1zm1 0h1v1h-1zm14 0h1v1h-1zm1 0h1v1h-1zm13 0h1v1h-1zm3 0h1v1h-1zm4 0h1v1h-1zm3 0h1v1h-1zm7 0h1v1h-1zm1 0h1v1h-1zm10 0h1v1h-1zm1 0h1v1h-1zm16 0h1v1h-1zm1 0h1v1h-1zm3 0h1v1h-1zm1 0h1v1h-1zm2 0h1v1h-1zm7 0h1v1h-1zm1 0h1v1h-1zm1 0h1v1h-1zM50 13h1v19h-1zm1 0h1v14h-1zm1 0h1v1h-1zm1 0h1v1h-1zm2 0h1v1h-1zm10 0h1v11h-1zm14 0h1v1h-1zm1 0h1v1h-1zm2 0h1v1h-1zm1 0h1v1h-1zm9 0h1v1h-1zm1 0h1v1h-1zm15 0h1v1h-1zm1 0h1v1h-1zm13 0h1v1h-1zm3 0h1v1h-1zm4 0h1v1h-1zm3 0h1v1h-1zm40 0h1v1h-1zm2 0h1v3h-1zm1 0h1v1h-1zm6 0h1v1h-1zm1 0h1v1h-1zm1 0h1v1h-1zM52 14h1v1h-1zm1 0h1v1h-1zm1 0h1v1h-1zm1 0h1v1h-1zm24 0h1v1h-1zm1 0h1v1h-1zm2 0h1v5h-1zm1 0h1v1h-1zm9 0h1v1h-1zm1 0h1v1h-1zm29 0h1v1h-1zm3 0h1v1h-1zm4 0h1v1h-1zm3 0h1v3h-1zm1 0h1v1h-1zm39 0h1v1h-1zm1 0h1v1h-1zm2 0h1v1h-1zm5 0h1v1h-1zm1 0h1v1h-1zm1 0h1v1h-1zM53 15h1v1h-1zm1 0h1v1h-1zm1 0h1v1h-1zm25 0h1v1h-1zm3 0h1v1h-1zm9 0h1v1h-1zm1 0h1v1h-1zm13 0h1v1h-1zm1 0h1v1h-1zm15 0h1v1h-1zm3 0h1v1h-1zm4 0h1v1h-1zm1 0h2v1h-2zm3 0h1v1h-1zm1 0h1v1h-1zm39 0h1v1h-1zm2 0h1v4h-1zm1 0h1v1h-1zm4 0h1v1h-1zm1 0h1v1h-1zm1 0h1v1h-1zm11 0h1v1h-1zm1 0h1v1h-1zm1 0h1v1h-1zm1 0h1v1h-1zm1 0h1v1h-1zM56 16h1v1h-1zm1 0h1v2h-1zm1 0h1v1h-1zm22 0h1v1h-1zm1 0h1v1h-1zm2 0h1v1h-1zm7 0h1v1h-1zm1 0h1v1h-1zm1 0h1v1h-1zm14 0h1v1h-1zm1 0h1v6h-1zm15 0h1v1h-1zm2 0h1v1h-1zm1 0h1v1h-1zm5 0h1v1h-1z"/><path d="M131 16h2v1h-2zm2 0h1v2h-1zm1 0h1v1h-1zm1 0h1v1h-1zm38 0h1v1h-1zm1 0h1v1h-1zm2 0h1v1h-1zm4 0h1v1h-1zm1 0h1v1h-1zm10 0h1v1h-1zm1 0h1v1h-1zm1 0h1v1h-1zm1 0h1v1h-1zm1 0h1v1h-1zm1 0h1v1h-1zm1 0h1v1h-1zm1 0h1v1h-1zm1 0h1v1h-1zm3 0h1v1h-1zm1 0h1v1h-1zm1 0h1v1h-1zm1 0h1v14h-1zm1 0h1v1h-1zm1 0h1v1h-1zm1 0h1v1h-1zm1 0h1v1h-1zm1 0h1v1h-1zm1 0h1v2h-1zM56 17h1v1h-1zm2 0h1v1h-1zm1 0h1v1h-1zm21 0h1v1h-1zm1 0h1v1h-1zm2 0h1v6h-1zm1 0h1v1h-1zm6 0h1v1h-1zm1 0h1v1h-1zm1 0h1v1h-1zm9 0h1v1h-1zm4 0h1v1h-1zm1 0h1v1h-1zm15 0h1v1h-1zm1 0h1v1h-1zm1 0h1v1h-1zm1 0h1v1h-1zm6 0h1v1h-1zm1 0h1v1h-1z"/><path d="M132 17h3v1h-3zm3 0h1v2h-1zm1 0h1v1h-1zm37 0h1v1h-1zm1 0h1v1h-1zm2 0h1v1h-1zm1 0h1v1h-1zm2 0h1v1h-1zm1 0h1v1h-1zm1 0h1v1h-1zm9 0h1v1h-1zm1 0h1v1h-1zm1 0h1v1h-1zm1 0h1v1h-1zm4 0h1v1h-1zm1 0h1v1h-1zm1 0h1v1h-1zm1 0h1v1h-1zm4 0h1v12h-1zm2 0h1v5h-1zm4 0h1v1h-1zM56 18h1v1h-1zm1 0h1v1h-1zm1 0h1v2h-1zm1 0h1v1h-1zm1 0h1v1h-1zm21 0h1v1h-1zm3 0h1v1h-1zm6 0h1v1h-1zm1 0h1v1h-1zm1 0h1v1h-1zm9 0h1v1h-1zm1 0h1v1h-1zm1 0h1v1h-1zm1 0h1v1h-1zm1 0h1v1h-1zm1 0h1v1h-1zm15 0h1v1h-1zm1 0h1v1h-1zm1 0h1v1h-1zm1 0h1v1h-1zm7 0h1v1h-1zm1 0h1v1h-1z"/><path d="M133 18h3v1h-3zm3 0h1v2h-1zm1 0h1v1h-1zm37 0h1v1h-1zm2 0h1v12h-1zm1 0h1v1h-1zm2 0h1v1h-1zm1 0h1v1h-1zm9 0h1v1h-1zm1 0h1v1h-1zm1 0h1v1h-1zm1 0h1v1h-1zm6 0h1v1h-1zm1 0h1v1h-1zm1 0h1v1h-1zm1 0h1v1h-1zm9 0h1v1h-1zm1 0h1v1h-1zM56 19h1v1h-1zm1 0h1v1h-1zm2 0h1v2h-1zm1 0h1v1h-1zm21 0h1v1h-1zm1 0h1v1h-1zm2 0h1v1h-1zm5 0h1v1h-1zm1 0h1v1h-1zm1 0h1v1h-1zm10 0h1v1h-1zm1 0h1v1h-1zm1 0h1v1h-1zm1 0h1v1h-1zm1 0h1v1h-1zm1 0h1v1h-1zm10 0h1v1h-1zm3 0h1v1h-1zm1 0h1v1h-1zm1 0h1v1h-1zm1 0h1v1h-1zm1 0h1v1h-1zm10 0h1v1h-1z"/><path d="M134 19h3v1h-3zm3 0h1v2h-1zm1 0h1v1h-1zm36 0h1v1h-1zm1 0h1v1h-1zm2 0h1v1h-1zm1 0h1v1h-1zm1 0h1v1h-1zm1 0h1v1h-1zm9 0h1v1h-1zm1 0h1v1h-1zm1 0h1v1h-1zm8 0h1v1h-1zm1 0h1v2h-1zm1 0h1v1h-1zm9 0h1v1h-1zm1 0h1v1h-1zM57 20h1v1h-1zm1 0h2v1h-2zm2 0h1v3h-1zm1 0h1v1h-1zm20 0h1v1h-1zm1 0h1v1h-1zm2 0h1v1h-1zm1 0h1v1h-1zm4 0h1v1h-1zm1 0h1v1h-1zm1 0h1v1h-1zm10 0h1v7h-1zm4 0h1v1h-1zm1 0h1v1h-1zm10 0h4v1h-4zm4 0h1v2h-1zm1 0h1v1h-1zm1 0h1v1h-1zm12 0h1v1h-1zm1 0h1v1h-1z"/><path d="M136 20h2v1h-2zm2 0h1v3h-1zm1 0h1v1h-1zm36 0h1v1h-1zm2 0h1v10h-1zm1 0h1v1h-1zm1 0h1v1h-1zm9 0h1v1h-1zm1 0h1v1h-1zm1 0h1v1h-1zm9 0h1v1h-1zm2 0h1v1h-1zm1 0h1v1h-1zM57 21h1v1h-1zm1 0h1v1h-1zm1 0h1v1h-1zm2 0h1v1h-1zm1 0h1v1h-1zm20 0h1v1h-1zm2 0h1v5h-1zm1 0h1v1h-1zm4 0h1v1h-1zm1 0h1v1h-1zm16 0h1v1h-1zm10 0h1v1h-1zm1 0h1v1h-1zm1 0h1v1h-1zm1 0h1v1h-1zm2 0h1v1h-1zm1 0h1v1h-1zm13 0h1v1h-1zm1 0h1v1h-1z"/><path d="M137 21h2v1h-2zm2 0h1v8h-1zm1 0h1v1h-1zm35 0h1v1h-1zm3 0h1v9h-1zm1 0h1v1h-1zm9 0h1v1h-1zm1 0h1v6h-1zm1 0h1v1h-1zm9 0h1v1h-1zm1 0h1v1h-1zm1 0h1v4h-1zm1 0h1v1h-1zM58 22h1v1h-1zm1 0h1v1h-1zm2 0h1v2h-1zm1 0h1v1h-1zm1 0h1v1h-1zm19 0h1v1h-1zm3 0h1v1h-1zm3 0h1v1h-1zm1 0h1v1h-1zm1 0h1v1h-1zm16 0h1v1h-1zm1 0h1v1h-1zm9 0h1v6h-1zm3 0h1v1h-1zm1 0h1v1h-1zm1 0h1v2h-1zm1 0h1v1h-1zm14 0h1v1h-1zm1 0h1v1h-1zm3 0h1v6h-1zm1 0h1v1h-1zm47 0h1v1h-1zm2 0h1v1h-1zm10 0h1v1h-1zm2 0h1v1h-1zm4 0h1v1h-1zm3 0h1v1h-1zm1 0h1v3h-1zM59 23h1v1h-1z"/><path d="M60 23h2v1h-2zm2 0h1v2h-1zm1 0h1v1h-1zm19 0h1v1h-1zm1 0h1v1h-1zm2 0h1v1h-1zm1 0h1v1h-1zm2 0h1v1h-1zm1 0h1v1h-1zm1 0h1v1h-1zm16 0h1v1h-1zm1 0h1v1h-1zm13 0h1v1h-1zm2 0h1v1h-1zm1 0h1v1h-1zm14 0h1v1h-1zm1 0h2v1h-2zm3 0h1v1h-1zm47 0h1v1h-1zm2 0h1v1h-1zm10 0h1v1h-1zm2 0h1v1h-1zm4 0h1v1h-1zm1 0h1v1h-1zm1 0h1v1h-1zm1 0h1v1h-1zM60 24h1v1h-1zm1 0h1v1h-1zm2 0h1v1h-1zm1 0h1v1h-1zm1 0h1v1h-1zm18 0h1v1h-1zm2 0h1v5h-1zm1 0h1v1h-1zm2 0h1v1h-1zm1 0h1v1h-1zm31 0h1v1h-1zm1 0h1v1h-1zm1 0h1v2h-1zm1 0h1v1h-1zm15 0h1v1h-1zm3 0h1v2h-1zm47 0h1v1h-1zm2 0h1v1h-1zm10 0h1v1h-1zm2 0h1v1h-1zm4 0h1v1h-1zm1 0h1v1h-1zm1 0h1v1h-1zm1 0h1v1h-1zM39 25h1v1h-1zm21 0h1v1h-1zm1 0h1v1h-1zm1 0h1v1h-1zm1 0h1v2h-1zm1 0h1v1h-1zm1 0h1v1h-1zm18 0h1v1h-1zm3 0h1v1h-1zm1 0h1v1h-1zm1 0h1v1h-1zm1 0h1v1h-1zm21 0h1v1h-1zm1 0h1v1h-1zm10 0h1v1h-1zm2 0h1v2h-1zm6 0h1v1h-1zm9 0h1v1h-1zm50 0h1v1h-1zm2 0h1v1h-1zm10 0h1v1h-1zm1 0h1v1h-1zm1 0h1v1h-1zm4 0h1v4h-1zm3 0h1v1h-1zm1 0h1v1h-1zM15 26h1v1h-1zm1 0h22v1H16zm22 0h1v1h-1zm1 0h1v1h-1zm4 0h1v1h-1zm1 0h1v1h-1zm5 0h1v1h-1zm12 0h1v1h-1zm1 0h1v1h-1zm2 0h2v2h-2zm19 0h1v1h-1zm1 0h1v1h-1zm2 0h1v1h-1zm1 0h1v1h-1zm1 0h1v1h-1zm1 0h1v1h-1zm21 0h1v1h-1zm1 0h1v1h-1zm10 0h1v1h-1zm1 0h1v1h-1zm7 0h1v4h-1zm1 0h1v1h-1zm8 0h1v1h-1zm3 0h1v1h-1zm19 0h1v1h-1zm28 0h1v1h-1zm2 0h1v1h-1zm1 0h1v1h-1zm8 0h1v1h-1zm1 0h1v1h-1zm1 0h1v1h-1zm1 0h1v1h-1zm7 0h1v1h-1zm1 0h1v1h-1zM15 27h1v1h-1zm1 0h28v1H16zm28 0h1v2h-1zm1 0h1v1h-1zm1 0h1v1h-1zm1 0h1v1h-1zm1 0h1v1h-1zm1 0h1v1h-1zm2 0h1v1h-1zm11 0h1v1h-1z"/><path d="M63 27h3v1h-3zm21 0h1v1h-1zm2 0h1v3h-1zm1 0h1v1h-1zm1 0h1v1h-1zm13 0h1v1h-1zm8 0h1v1h-1zm1 0h1v1h-1zm1 0h1v1h-1zm2 0h1v1h-1zm8 0h1v1h-1zm1 0h1v1h-1zm1 0h1v1h-1zm7 0h1v1h-1zm8 0h1v1h-1zm3 0h1v1h-1zm19 0h1v1h-1zm28 0h1v1h-1zm1 0h1v1h-1zm1 0h1v1h-1zm1 0h1v1h-1zm8 0h1v1h-1zm1 0h1v1h-1zm1 0h1v1h-1zM15 28h1v1h-1zm1 0h34v1H16zm35 0h1v1h-1zm1 0h1v1h-1zm11 0h1v1h-1zm1 0h2v1h-2zm8 0h1v1h-1zm3 0h1v1h-1zm9 0h1v1h-1zm3 0h1v1h-1zm1 0h1v1h-1zm10 0h1v1h-1zm3 0h1v1h-1zm8 0h1v1h-1zm1 0h1v1h-1zm1 0h1v1h-1zm2 0h1v1h-1zm3 0h1v1h-1zm8 0h1v2h-1zm1 0h1v1h-1zm1 0h1v1h-1zm4 0h1v1h-1zm8 0h1v1h-1zm2 0h1v1h-1zm1 0h1v1h-1zm16 0h1v1h-1zm3 0h1v1h-1zm29 0h1v1h-1zm1 0h1v1h-1zm1 0h1v1h-1zm8 0h1v1h-1zm1 0h1v1h-1zm1 0h1v1h-1zM15 29h1v1h-1zm1 0h1v1h-1zm1 0h1v1h-1zm1 0h1v1h-1zm1 0h1v1h-1zm1 0h8v1h-8zm8 0h1v61h-1zm1 0h1v1h-1zm1 0h8v1h-8zm8 0h1v1h-1zm1 0h1v1h-1zm4 0h9v1h-9zm9 0h1v4h-1zm1 0h1v1h-1zm1 0h1v1h-1zm1 0h1v1h-1zm8 0h1v1h-1zm1 0h1v1h-1zm1 0h1v1h-1zm7 0h1v1h-1zm3 0h1v1h-1zm9 0h1v1h-1zm1 0h1v1h-1zm2 0h1v1h-1zm1 0h1v1h-1zm10 0h1v1h-1zm3 0h1v1h-1zm7 0h1v1h-1zm1 0h1v1h-1zm1 0h1v1h-1zm1 0h1v1h-1zm2 0h1v1h-1zm3 0h1v1h-1zm9 0h1v1h-1zm1 0h1v1h-1zm1 0h1v1h-1zm3 0h1v1h-1zm1 0h1v1h-1zm6 0h1v1h-1zm1 0h1v1h-1zm1 0h1v1h-1zm1 0h1v1h-1zm17 0h1v1h-1zm3 0h1v1h-1zm29 0h1v1h-1zm1 0h1v1h-1zm1 0h1v1h-1zm1 0h1v1h-1zm6 0h1v1h-1zm1 0h1v1h-1zm1 0h1v1h-1zm4 0h1v1h-1zm2 0h1v1h-1zM19 30h1v1h-1zm1 0h1v1h-1zm1 0h1v1h-1zm1 0h6v4h-6zm7 0h1v22h-1zm10 0h1v2h-1zm4 0h1v1h-1zm1 0h1v1h-1zm1 0h1v1h-1z"/><path d="M46 30h8v1h-8zm8 0h1v6h-1zm1 0h1v1h-1zm1 0h1v1h-1zm8 0h1v1h-1zm1 0h1v1h-1zm1 0h1v1h-1zm3 0h1v1h-1zm1 0h1v1h-1zm1 0h1v1h-1zm1 0h2v1h-2zm2 0h1v1h-1zm1 0h1v1h-1zm1 0h1v1h-1zm1 0h1v1h-1zm7 0h1v1h-1zm1 0h1v1h-1zm1 0h1v1h-1zm1 0h1v1h-1zm8 0h1v1h-1zm1 0h1v1h-1zm1 0h1v1h-1zm1 0h1v1h-1zm1 0h2v1h-2zm2 0h1v1h-1zm1 0h1v1h-1zm1 0h1v1h-1zm1 0h1v1h-1zm1 0h1v1h-1zm1 0h1v1h-1zm1 0h1v1h-1zm1 0h2v1h-2zm2 0h1v1h-1zm1 0h1v1h-1zm1 0h1v1h-1zm1 0h1v1h-1zm1 0h1v1h-1zm1 0h1v1h-1zm1 0h1v1h-1zm1 0h1v1h-1zm1 0h1v1h-1zm6 0h2v1h-2zm2 0h1v1h-1zm1 0h1v1h-1zm1 0h1v1h-1zm1 0h1v1h-1zm1 0h1v1h-1zm1 0h1v1h-1zm1 0h1v1h-1zm1 0h1v1h-1zm3 0h1v1h-1zm1 0h1v1h-1zm1 0h1v1h-1zm1 0h1v1h-1zm4 0h1v1h-1zm1 0h1v1h-1zm1 0h2v1h-2zm2 0h1v1h-1zm1 0h1v1h-1zm1 0h1v1h-1zm6 0h1v1h-1zm1 0h1v1h-1zm1 0h1v1h-1zm1 0h1v1h-1zm1 0h1v1h-1zm1 0h1v1h-1zm1 0h1v1h-1zm1 0h1v1h-1zm12 0h1v1h-1zm1 0h1v1h-1zm1 0h2v1h-2zm2 0h1v1h-1zm1 0h1v1h-1zm1 0h1v1h-1zm10 0h1v1h-1zm1 0h1v1h-1zm1 0h1v1h-1zm1 0h1v1h-1zm1 0h1v1h-1zm3 0h1v1h-1zm1 0h1v1h-1zm1 0h1v1h-1zm5 0h1v1h-1zm1 0h1v1h-1zm1 0h1v1h-1zM21 31h1v1h-1zm24 0h1v1h-1zm1 0h1v1h-1zm1 0h1v1h-1z"/><path d="M48 31h8v1h-8zm8 0h1v8h-1zm1 0h1v1h-1zm1 0h1v1h-1zm7 0h1v1h-1zm1 0h1v1h-1zm3 0h1v1h-1zm1 0h6v1h-6zm6 0h1v1h-1zm1 0h1v1h-1zm8 0h1v1h-1zm1 0h1v1h-1zm1 0h1v1h-1zm8 0h1v1h-1zm1 0h21v1H96zm21 0h1v1h-1zm1 0h1v1h-1zm6 0h1v1h-1zm1 0h1v1h-1zm1 0h1v1h-1zm1 0h1v1h-1zm1 0h1v1h-1zm1 0h1v1h-1zm1 0h1v1h-1zm1 0h1v1h-1zm1 0h4v1h-4zm4 0h1v1h-1zm1 0h1v1h-1zm1 0h1v1h-1zm4 0h1v1h-1zm1 0h6v1h-6zm6 0h1v1h-1zm1 0h1v1h-1zm5 0h7v1h-7zm7 0h1v1h-1zm1 0h1v1h-1zm10 0h1v1h-1zm1 0h6v1h-6zm6 0h1v1h-1zm1 0h1v1h-1zm10 0h1v1h-1zm1 0h1v1h-1zm1 0h1v1h-1zm1 0h1v1h-1zm1 0h1v1h-1zm1 0h1v1h-1zm1 0h1v1h-1zm1 0h1v1h-1zm4 0h1v1h-1zm1 0h1v1h-1zm1 0h2v1h-2zm2 0h1v1h-1zm1 0h1v1h-1zM21 32h1v1h-1zm18 0h1v1h-1zm8 0h1v1h-1zm1 0h1v1h-1zm1 0h1v1h-1z"/><path d="M50 32h7v1h-7zm7 0h1v9h-1zm1 0h1v1h-1zm1 0h1v1h-1zm73 0h1v1h-1zm1 0h2v1h-2zm2 0h1v1h-1zm58 0h1v1h-1zm1 0h1v1h-1zm1 0h1v1h-1zm1 0h1v1h-1zM12 33h1v1h-1zm9 0h1v1h-1zm18 0h1v1h-1zm3 0h1v1h-1zm7 0h1v1h-1zm1 0h1v1h-1z"/><path d="M51 33h7v1h-7zm7 0h1v10h-1zm1 0h1v1h-1zm1 0h1v1h-1zm-48 1h1v1h-1zm10 0h6v1h-6zm17 0h1v1h-1zm3 0h1v1h-1zm9 0h1v1h-1zm1 0h1v1h-1z"/><path d="M53 34h6v1h-6zm6 0h1v14h-1zm1 0h1v1h-1zm1 0h1v1h-1zM6 35h1v1H6zm6 0h1v1h-1zm10 0h1v1h-1zm1 0h5v55h-5zm16 0h1v1h-1zm3 0h1v1h-1zm10 0h1v1h-1zm1 0h1v1h-1z"/><path d="M55 35h5v2h-5zm5 0h1v44h-1zm1 0h1v1h-1zm1 0h1v1h-1zM6 36h1v1H6zm6 0h1v1h-1zm10 0h1v16h-1zm17 0h1v1h-1zm3 0h1v1h-1zm11 0h1v1h-1z"/><path d="M54 36h7v1h-7zm7 0h1v42h-1zm1 0h1v1h-1zm1 0h1v1h-1zM6 37h1v1H6zm6 0h1v1h-1zm27 0h1v1h-1zm3 0h1v1h-1zm12 0h1v1h-1z"/><path d="M55 37h7v1h-7zm7 0h1v39h-1zm1 0h1v1h-1zm46 0h1v1h-1zm1 0h1v1h-1zm1 0h1v1h-1zm1 0h1v1h-1zm48 0h1v1h-1zm1 0h1v1h-1zm1 0h1v1h-1zm1 0h1v1h-1zM6 38h1v1H6zm6 0h1v14h-1zm1 0h1v1h-1zm26 0h1v1h-1zm3 0h1v1h-1zm12 0h1v1h-1zm1 0h1v1h-1zm8 0h1v1h-1zm1 0h1v1h-1zm5 0h16v1H69zm16 0h1v5h-1zm1 0h1v6h-1zm2 0h1v1h-1zm1 0h9v1h-9zm9 0h1v1h-1zm1 0h1v1h-1zm10 0h1v1h-1zm1 0h1v4h-1zm1 0h1v8h-1zm1 0h1v1h-1zm4 0h1v1h-1zm1 0h8v1h-8zm8 0h1v1h-1zm1 0h1v1h-1zm10 0h1v1h-1zm1 0h1v1h-1zm10 0h1v1h-1zm1 0h7v1h-7zm7 0h1v1h-1zm5 0h1v1h-1zm1 0h1v4h-1zm1 0h1v8h-1zm1 0h1v1h-1zm7 0h1v1h-1zm1 0h10v1h-10zm10 0h1v1h-1zm1 0h1v1h-1zm1 0h1v1h-1zm1 0h1v1h-1zm1 0h1v1h-1zm6 0h1v1h-1zm1 0h15v1h-15zm15 0h1v4h-1zm1 0h1v6h-1zM6 39h1v1H6zm7 0h1v1h-1zm25 0h1v1h-1zm1 0h1v1h-1zm3 0h1v1h-1zm13 0h1v1h-1z"/><path d="M56 39h7v1h-7zm7 0h1v35h-1zm1 0h1v1h-1zm5 0h1v1h-1zm1 0h1v1h-1zm1 0h1v1h-1zm1 0h3v1h-3zm3 0h1v29h-1zm1 0h5v1h-5zm5 0h1v1h-1zm1 0h1v1h-1zm1 0h2v1h-2zm5 0h1v1h-1zm1 0h1v1h-1zm1 0h1v1h-1zm1 0h1v1h-1zm1 0h3v1h-3zm3 0h1v28h-1zm1 0h1v1h-1zm1 0h1v1h-1zm1 0h1v1h-1zm1 0h1v1h-1zm10 0h1v1h-1zm3 0h1v1h-1zm4 0h1v1h-1zm1 0h1v1h-1zm1 0h1v1h-1zm1 0h4v1h-4zm4 0h1v1h-1zm1 0h1v1h-1zm1 0h1v1h-1zm1 0h1v1h-1zm9 0h1v1h-1zm1 0h1v5h-1zm1 0h1v8h-1zm1 0h1v1h-1zm9 0h1v1h-1zm1 0h1v1h-1zm1 0h1v1h-1zm1 0h1v1h-1zm1 0h2v2h-2zm2 0h1v1h-1zm1 0h1v1h-1zm1 0h1v1h-1zm4 0h1v1h-1zm1 0h1v1h-1zm3 0h1v1h-1zm7 0h1v1h-1zm1 0h1v1h-1zm1 0h1v1h-1zm1 0h1v1h-1zm1 0h2v28h-2zm2 0h1v28h-1zm1 0h1v1h-1zm1 0h1v1h-1zm1 0h1v1h-1zm1 0h1v1h-1zm1 0h1v1h-1zm1 0h1v1h-1zm1 0h2v1h-2zm2 0h1v2h-1zm1 0h1v1h-1zm1 0h1v1h-1zm4 0h1v1h-1zm1 0h1v1h-1zm1 0h1v1h-1zm1 0h3v1h-3zm3 0h1v28h-1zm1 0h1v1h-1zm1 0h3v1h-3zm3 0h1v1h-1zm1 0h1v1h-1zm1 0h1v1h-1zm1 0h1v1h-1zm1 0h1v1h-1zM6 40h1v1H6zm7 0h1v1h-1zm25 0h1v1h-1zm1 0h2v5h-2zm3 0h1v1h-1zm14 0h1v1h-1zm8 0h1v1h-1zm1 0h1v1h-1zm7 0h1v1h-1zm1 0h2v28h-2zm10 0h1v1h-1zm1 0h1v1h-1zm7 0h1v1h-1zm1 0h1v1h-1zm1 0h2v27h-2zm3 0h1v1h-1zm12 0h1v1h-1zm1 0h2v1h-2zm3 0h1v1h-1zm1 0h1v1h-1zm5 0h1v1h-1zm1 0h3v1h-3zm3 0h1v9h-1zm1 0h1v1h-1zm12 0h1v1h-1zm3 0h1v1h-1zm12 0h1v1h-1zm3 0h1v1h-1zm6 0h1v1h-1zm1 0h2v1h-2zm3 0h1v1h-1zm10 0h1v1h-1zm4 0h1v12h-1zm6 0h1v1h-1zm1 0h1v1h-1zm2 0h1v11h-1zm1 0h1v1h-1zm1 0h1v1h-1zm6 0h1v1h-1zm1 0h2v27h-2zm3 0h1v11h-1zm7 0h1v1h-1zm1 0h1v1h-1zM6 41h1v1H6zm7 0h1v1h-1zm25 0h1v1h-1zm4 0h1v1h-1zm14 0h1v1h-1z"/><path d="M57 41h7v1h-7zm7 0h1v31h-1zm1 0h1v1h-1zm7 0h1v24h-1zm12 0h1v1h-1zm8 0h1v1h-1zm4 0h1v1h-1zm12 0h1v1h-1zm1 0h3v1h-3zm3 0h1v8h-1zm1 0h1v1h-1zm6 0h1v1h-1zm1 0h2v1h-2zm3 0h1v1h-1zm12 0h1v1h-1zm3 0h1v1h-1zm12 0h1v1h-1zm1 0h1v3h-1zm1 0h1v1h-1zm1 0h1v1h-1zm6 0h1v1h-1zm1 0h3v1h-3zm3 0h1v9h-1zm1 0h1v1h-1zm9 0h1v1h-1zm11 0h1v1h-1zm1 0h2v1h-2zm2 0h1v9h-1zm1 0h1v1h-1zm6 0h1v1h-1zm12 0h1v1h-1zM6 42h1v1H6zm1 0h5v1H7zm6 0h1v1h-1zm25 0h1v1h-1zm3 0h1v1h-1zm1 0h1v1h-1zm15 0h1v1h-1zm8 0h1v1h-1zm1 0h1v1h-1zm18 0h1v1h-1zm8 0h1v22h-1zm16 0h1v1h-1zm1 0h1v1h-1zm1 0h2v1h-2zm3 0h1v1h-1zm6 0h1v1h-1zm1 0h2v1h-2zm3 0h1v1h-1zm12 0h1v1h-1zm3 0h1v8h-1zm1 0h1v1h-1zm11 0h1v1h-1zm2 0h1v1h-1zm6 0h1v1h-1zm1 0h1v1h-1zm1 0h1v1h-1zm1 0h2v1h-2zm3 0h1v1h-1zm9 0h1v22h-1zm11 0h1v1h-1zm1 0h1v1h-1zm3 0h1v1h-1zm1 0h1v1h-1zm5 0h1v1h-1zm12 0h1v1h-1zm1 0h1v1h-1zM6 43h1v1H6zm1 0h1v1H7zm1 0h4v3H8zm5 0h1v1h-1zm25 0h1v1h-1zm3 0h1v1h-1zm16 0h1v1h-1z"/><path d="M58 43h7v1h-7zm7 0h1v27h-1zm1 0h1v1h-1zm19 0h1v1h-1zm22 0h1v1h-1zm1 0h1v1h-1zm1 0h1v1h-1zm1 0h1v1h-1zm3 0h1v1h-1zm7 0h1v1h-1zm1 0h2v2h-2zm2 0h1v11h-1zm11 0h1v1h-1zm1 0h3v1h-3zm4 0h1v1h-1zm11 0h1v1h-1zm2 0h1v1h-1zm6 0h1v1h-1zm1 0h1v1h-1zm1 0h1v1h-1zm1 0h1v1h-1zm3 0h1v1h-1zm21 0h1v1h-1zm3 0h1v5h-1zm1 0h1v1h-1zm5 0h1v1h-1zm12 0h1v1h-1zm1 0h1v1h-1zM7 44h1v1H7zm6 0h1v1h-1zm1 0h1v1h-1zm23 0h1v1h-1zm1 0h2v3h-2zm3 0h1v1h-1zm16 0h1v1h-1zm1 0h1v1h-1zm8 0h1v1h-1zm19 0h1v1h-1zm1 0h1v1h-1zm21 0h1v1h-1zm1 0h1v1h-1zm1 0h1v1h-1zm1 0h1v1h-1zm3 0h1v9h-1zm1 0h1v1h-1zm6 0h1v1h-1zm4 0h1v1h-1zm10 0h1v1h-1zm1 0h3v1h-3zm4 0h1v1h-1zm11 0h1v1h-1zm1 0h1v1h-1zm7 0h1v1h-1zm1 0h1v1h-1zm1 0h1v1h-1zm1 0h1v1h-1zm3 0h1v1h-1zm1 0h1v1h-1zm20 0h1v1h-1zm4 0h1v2h-1zm5 0h1v19h-1zm13 0h1v1h-1zm1 0h1v1h-1zM7 45h1v1H7zm6 0h1v8h-1zm1 0h1v1h-1zm23 0h1v1h-1zm3 0h1v1h-1zm1 0h1v1h-1zm17 0h1v1h-1zm8 0h1v1h-1zm1 0h1v1h-1zm18 0h1v1h-1zm1 0h1v1h-1zm21 0h1v1h-1zm1 0h1v1h-1zm2 0h1v1h-1zm4 0h1v1h-1zm6 0h1v1h-1zm1 0h2v1h-2zm3 0h1v1h-1zm10 0h1v1h-1zm1 0h1v1h-1zm1 0h1v1h-1zm3 0h1v8h-1zm1 0h1v1h-1zm10 0h1v3h-1zm1 0h1v1h-1zm6 0h1v1h-1zm1 0h1v1h-1zm1 0h1v1h-1zm2 0h1v1h-1zm3 0h1v8h-1zm1 0h1v1h-1zm20 0h1v1h-1zm22 0h1v1h-1zm1 0h1v1h-1zM7 46h1v1H7zm1 0h5v1H8zm6 0h1v1h-1zm22 0h1v1h-1zm1 0h1v1h-1zm3 0h1v1h-1zm1 0h1v1h-1zm17 0h1v1h-1zm8 0h1v21h-1zm1 0h1v1h-1zm39 0h1v1h-1zm1 0h1v1h-1zm1 0h1v1h-1zm2 0h1v1h-1zm1 0h2v1h-2zm3 0h1v1h-1zm7 0h1v1h-1zm3 0h1v1h-1zm9 0h1v1h-1zm1 0h1v1h-1zm1 0h1v1h-1zm1 0h1v1h-1zm4 0h1v1h-1zm9 0h1v1h-1zm2 0h1v1h-1zm6 0h1v1h-1zm1 0h1v1h-1zm1 0h1v1h-1zm2 0h1v1h-1zm1 0h2v1h-2zm3 0h1v1h-1zm20 0h1v1h-1zm4 0h1v1h-1zM7 47h1v1H7zm1 0h1v1H8zm1 0h4v1H9zm5 0h1v1h-1zm1 0h1v1h-1zm21 0h1v1h-1zm1 0h2v2h-2zm2 0h1v1h-1zm1 0h1v1h-1zm18 0h1v1h-1zm9 0h1v1h-1zm39 0h1v1h-1zm1 0h1v1h-1zm1 0h1v1h-1zm3 0h1v1h-1zm3 0h1v1h-1zm1 0h1v1h-1zm6 0h1v1h-1zm3 0h1v1h-1zm9 0h1v1h-1zm1 0h1v1h-1zm1 0h1v1h-1zm1 0h1v1h-1zm1 0h2v1h-2zm3 0h1v1h-1zm9 0h1v1h-1zm2 0h1v1h-1zm6 0h1v1h-1zm1 0h1v1h-1zm1 0h1v1h-1zm2 0h1v1h-1zm1 0h1v1h-1zm3 0h1v1h-1zm1 0h1v1h-1zm19 0h1v1h-1zm4 0h1v1h-1zM8 48h1v1H8z"/><path d="M9 48h5v1H9zm5 0h1v6h-1zm1 0h1v1h-1zm20 0h1v1h-1zm1 0h1v1h-1zm3 0h1v1h-1zm1 0h1v1h-1zm18 0h1v1h-1zm1 0h7v1h-7zm8 0h1v1h-1zm15 0h1v1h-1zm1 0h1v1h-1zm23 0h1v1h-1zm1 0h1v1h-1zm1 0h1v1h-1zm3 0h1v1h-1zm3 0h1v9h-1zm1 0h1v1h-1zm6 0h1v1h-1zm3 0h1v10h-1zm1 0h1v1h-1zm8 0h1v1h-1zm1 0h1v1h-1zm3 0h1v1h-1zm3 0h1v8h-1zm1 0h1v1h-1zm8 0h1v1h-1zm1 0h1v1h-1zm1 0h1v1h-1zm6 0h1v1h-1zm1 0h1v1h-1zm4 0h1v1h-1zm3 0h1v9h-1zm1 0h1v1h-1zm19 0h1v1h-1zm3 0h1v1h-1zm1 0h1v1h-1zm15 0h1v1h-1zm1 0h1v1h-1zM8 49h1v1H8zm1 0h1v1H9zm1 0h4v1h-4zm5 0h1v1h-1zm1 0h1v1h-1zm18 0h1v1h-1zm1 0h1v1h-1zm1 0h2v1h-2zm2 0h1v1h-1zm1 0h1v1h-1zm20 0h1v1h-1zm8 0h1v1h-1zm15 0h1v1h-1zm1 0h1v7h-1zm22 0h1v1h-1zm1 0h1v1h-1zm1 0h1v1h-1zm4 0h1v1h-1zm1 0h2v1h-2zm3 0h1v1h-1zm6 0h1v1h-1zm1 0h2v1h-2zm3 0h1v1h-1zm7 0h1v1h-1zm1 0h1v1h-1zm1 0h1v1h-1zm3 0h1v1h-1zm4 0h1v1h-1zm7 0h1v1h-1zm1 0h1v2h-1zm1 0h1v1h-1zm6 0h1v1h-1zm1 0h1v1h-1zm1 0h1v1h-1zm4 0h1v1h-1zm4 0h1v1h-1zm19 0h1v1h-1zm3 0h1v1h-1zm1 0h1v1h-1zm15 0h1v1h-1zm1 0h1v7h-1zM9 50h1v1H9z"/><path d="M10 50h5v1h-5zm5 0h1v4h-1zm1 0h1v1h-1zm1 0h1v1h-1zm17 0h1v1h-1zm1 0h2v2h-2zm2 0h1v1h-1zm1 0h1v1h-1zm1 0h1v1h-1zm20 0h1v1h-1zm8 0h1v1h-1zm15 0h1v1h-1zm23 0h1v1h-1zm1 0h1v1h-1zm1 0h1v1h-1zm4 0h1v1h-1zm1 0h1v1h-1zm3 0h1v1h-1zm7 0h1v1h-1zm3 0h1v1h-1zm7 0h1v1h-1zm1 0h1v1h-1zm1 0h1v1h-1zm3 0h1v1h-1zm1 0h2v1h-2zm3 0h1v1h-1zm7 0h1v1h-1zm2 0h1v1h-1zm6 0h1v1h-1zm1 0h1v1h-1zm1 0h1v1h-1zm4 0h1v1h-1zm1 0h2v1h-2zm3 0h1v1h-1zm18 0h1v1h-1zm1 0h1v1h-1zm2 0h1v1h-1zm1 0h1v1h-1zm16 0h1v1h-1zM9 51h1v1H9zm1 0h1v1h-1z"/><path d="M11 51h5v1h-5zm5 0h1v4h-1zm1 0h1v1h-1zm1 0h1v1h-1zm14 0h1v1h-1zm1 0h1v1h-1zm1 0h2v1h-2zm3 0h1v1h-1zm1 0h1v1h-1zm21 0h1v1h-1zm8 0h1v11h-1zm1 0h1v1h-1zm12 0h1v1h-1zm1 0h1v1h-1zm1 0h1v2h-1zm23 0h1v1h-1zm1 0h1v1h-1zm1 0h1v1h-1zm5 0h1v1h-1zm3 0h1v9h-1zm1 0h1v1h-1zm6 0h1v1h-1zm3 0h1v1h-1zm7 0h1v1h-1zm1 0h1v1h-1zm5 0h1v1h-1zm3 0h1v9h-1zm1 0h1v1h-1zm6 0h1v1h-1zm1 0h1v1h-1zm1 0h1v1h-1zm6 0h1v1h-1zm1 0h1v1h-1zm6 0h1v1h-1zm3 0h1v1h-1zm1 0h1v1h-1zm17 0h1v1h-1zm1 0h1v1h-1zm1 0h1v1h-1zm1 0h1v1h-1zm1 0h1v1h-1zm10 0h1v1h-1zm4 0h1v1h-1zm1 0h1v1h-1zm1 0h1v2h-1zM10 52h1v1h-1zm1 0h1v1h-1z"/><path d="M12 52h5v1h-5zm5 0h1v3h-1zm1 0h1v1h-1zm1 0h1v1h-1zm3 0h1v1h-1zm7 0h1v1h-1zm2 0h1v1h-1zm1 0h1v1h-1zm1 0h3v1h-3zm3 0h1v1h-1zm1 0h1v1h-1zm22 0h1v1h-1zm9 0h1v1h-1zm8 0h7v1h-7zm28 0h1v1h-1zm1 0h1v1h-1zm1 0h1v1h-1zm6 0h1v1h-1zm4 0h1v1h-1zm6 0h1v1h-1zm3 0h1v10h-1zm1 0h1v1h-1zm5 0h1v1h-1zm1 0h1v1h-1zm1 0h1v1h-1zm5 0h1v1h-1zm4 0h1v1h-1zm6 0h1v1h-1zm1 0h1v1h-1zm7 0h1v1h-1zm1 0h1v1h-1zm6 0h1v1h-1zm3 0h1v8h-1zm1 0h1v1h-1zm10 0h1v1h-1zm6 0h1v1h-1zm1 0h1v1h-1zm1 0h1v1h-1zm1 0h1v1h-1zm1 0h1v1h-1zm11 0h6v1h-6zM11 53h1v1h-1zm1 0h1v1h-1z"/><path d="M13 53h6v1h-6zm6 0h1v3h-1zm1 0h1v1h-1zm1 0h1v1h-1zm1 0h1v1h-1zm7 0h1v1h-1zm1 0h1v1h-1zm1 0h3v1h-3zm3 0h1v1h-1zm1 0h1v1h-1zm1 0h1v1h-1zm23 0h1v1h-1zm9 0h1v1h-1zm8 0h3v1h-3zm3 0h1v1h-1zm1 0h1v1h-1zm1 0h1v1h-1zm1 0h1v1h-1zm22 0h1v1h-1zm1 0h1v1h-1zm1 0h1v1h-1zm6 0h1v1h-1zm1 0h2v1h-2zm3 0h1v1h-1zm6 0h1v1h-1zm4 0h1v1h-1zm5 0h1v1h-1zm1 0h1v1h-1zm1 0h1v1h-1zm5 0h1v1h-1zm1 0h2v1h-2zm3 0h1v1h-1zm5 0h1v1h-1zm1 0h1v2h-1zm1 0h1v1h-1zm7 0h1v1h-1zm1 0h1v1h-1zm6 0h1v1h-1zm1 0h2v1h-2zm3 0h1v1h-1zm10 0h1v1h-1zm1 0h1v1h-1zm1 0h1v1h-1zm1 0h1v1h-1zm1 0h1v1h-1zm1 0h1v1h-1zm1 0h1v1h-1zm1 0h1v1h-1zm1 0h1v1h-1zm1 0h1v1h-1zm12 0h1v1h-1zm1 0h1v1h-1zm1 0h1v1h-1zm1 0h1v1h-1zm1 0h1v1h-1zm1 0h1v1h-1zm1 0h1v1h-1zM12 54h1v1h-1zm1 0h1v1h-1z"/><path d="M14 54h19v1H14zm19 0h1v1h-1zm1 0h1v1h-1zm1 0h1v1h-1zm24 0h1v1h-1zm9 0h1v1h-1zm13 0h1v1h-1zm1 0h1v1h-1zm22 0h1v1h-1zm1 0h1v1h-1zm1 0h1v1h-1zm7 0h1v1h-1zm3 0h1v1h-1zm1 0h1v1h-1zm6 0h2v1h-2zm3 0h1v1h-1zm5 0h1v1h-1zm1 0h1v1h-1zm7 0h1v1h-1zm3 0h1v9h-1zm1 0h1v1h-1zm4 0h2v1h-2zm2 0h1v1h-1zm7 0h1v1h-1zm1 0h1v1h-1zm6 0h1v1h-1zm1 0h1v1h-1zm3 0h1v1h-1zm1 0h1v1h-1zm9 0h6v1h-6zm6 0h1v3h-1zm1 0h1v1h-1zm1 0h1v1h-1zm13 0h1v8h-1zm5 0h1v1h-1zm1 0h1v1h-1zM13 55h1v1h-1zm1 0h1v1h-1zm1 0h1v1h-1zm1 0h16v1H16zm16 0h1v1h-1zm1 0h1v1h-1zm1 0h1v1h-1zm25 0h1v3h-1zm9 0h1v2h-1zm14 0h1v1h-1zm21 0h1v1h-1zm1 0h1v1h-1zm1 0h1v1h-1zm8 0h1v1h-1zm3 0h1v8h-1zm1 0h1v1h-1zm6 0h1v1h-1zm3 0h1v1h-1zm4 0h1v1h-1zm1 0h1v1h-1zm1 0h1v1h-1zm7 0h1v1h-1zm4 0h1v1h-1zm4 0h1v1h-1zm1 0h1v1h-1zm1 0h1v1h-1zm7 0h1v1h-1zm8 0h1v1h-1zm3 0h1v8h-1zm1 0h1v1h-1zm9 0h1v1h-1zm1 0h2v1h-2zm2 0h1v1h-1zm1 0h1v1h-1zm1 0h1v1h-1zm2 0h1v1h-1zm1 0h1v1h-1zm19 0h1v1h-1zM15 56h1v1h-1zm1 0h1v1h-1zm1 0h1v1h-1zm1 0h12v1H18zm12 0h1v1h-1zm1 0h1v1h-1zm1 0h1v1h-1zm50 0h1v1h-1zm1 0h1v1h-1zm20 0h1v1h-1zm1 0h1v1h-1zm1 0h1v1h-1zm8 0h1v1h-1zm4 0h1v1h-1zm6 0h1v1h-1zm3 0h1v10h-1zm1 0h1v1h-1zm3 0h1v1h-1zm1 0h1v1h-1zm1 0h1v1h-1zm7 0h1v1h-1zm1 0h2v1h-2zm3 0h1v1h-1zm4 0h1v3h-1zm7 0h1v1h-1zm1 0h1v1h-1zm1 0h1v1h-1zm8 0h1v1h-1zm4 0h1v1h-1zm9 0h1v8h-1zm4 0h1v1h-1zm1 0h1v1h-1zm2 0h1v3h-1zm1 0h1v1h-1zm19 0h1v1h-1zm1 0h1v1h-1zM17 57h1v1h-1zm1 0h1v1h-1zm1 0h1v1h-1zm1 0h1v1h-1zm1 0h1v1h-1zm1 0h6v1h-6zm7 0h1v1h-1zm1 0h1v1h-1zm38 0h1v1h-1zm14 0h1v1h-1zm1 0h1v1h-1zm20 0h1v1h-1zm1 0h12v1h-12zm13 0h1v1h-1zm1 0h1v1h-1zm5 0h1v1h-1zm4 0h1v1h-1zm3 0h1v1h-1zm1 0h1v1h-1zm9 0h1v1h-1zm3 0h1v1h-1zm3 0h1v1h-1zm8 0h1v1h-1zm1 0h12v1h-12zm13 0h1v1h-1zm14 0h1v1h-1zm1 0h1v1h-1zm2 0h1v1h-1zm1 0h1v1h-1zm18 0h1v1h-1zm1 0h1v1h-1zM22 58h1v23h-1zm7 0h1v20h-1zm30 0h1v1h-1zm9 0h1v1h-1zm34 0h1v1h-1zm1 0h1v1h-1zm1 0h1v1h-1zm1 0h8v1h-8zm8 0h1v1h-1zm1 0h1v1h-1zm3 0h1v9h-1zm1 0h1v1h-1zm6 0h2v1h-2zm3 0h1v1h-1zm2 0h1v1h-1zm1 0h1v1h-1zm1 0h1v1h-1zm9 0h1v1h-1zm3 0h1v8h-1zm1 0h1v1h-1zm2 0h1v1h-1zm7 0h1v1h-1zm1 0h1v1h-1zm1 0h1v1h-1zm1 0h8v1h-8zm8 0h1v1h-1zm1 0h1v1h-1zm3 0h1v9h-1zm1 0h1v1h-1zm13 0h1v1h-1zm1 0h1v1h-1zm2 0h1v4h-1zm1 0h1v1h-1zM59 59h1v1h-1zm9 0h1v1h-1zm34 0h1v1h-1zm1 0h1v1h-1zm1 0h1v1h-1zm10 0h1v1h-1zm4 0h1v1h-1zm6 0h1v1h-1zm3 0h1v1h-1zm2 0h1v1h-1zm1 0h1v1h-1zm1 0h1v1h-1zm9 0h1v1h-1zm4 0h1v1h-1zm2 0h1v1h-1zm1 0h1v1h-1zm6 0h1v1h-1zm1 0h1v1h-1zm1 0h1v1h-1zm10 0h1v1h-1zm4 0h1v1h-1zm14 0h1v1h-1zm1 0h1v1h-1zm2 0h1v1h-1zm1 0h1v1h-1zM59 60h1v1h-1zm9 0h1v1h-1zm34 0h1v1h-1zm1 0h1v1h-1zm1 0h1v1h-1zm4 0h1v1h-1zm6 0h1v1h-1z"/><path d="M115 60h2v1h-2zm3 0h1v1h-1zm6 0h1v1h-1zm3 0h1v8h-1zm1 0h1v1h-1zm1 0h1v1h-1zm1 0h1v1h-1zm10 0h1v1h-1zm1 0h2v1h-2zm3 0h1v1h-1zm1 0h1v1h-1zm1 0h1v2h-1zm1 0h1v1h-1zm6 0h1v1h-1zm1 0h1v1h-1zm1 0h1v1h-1zm10 0h1v1h-1zm1 0h2v1h-2zm3 0h1v1h-1zm14 0h1v1h-1zm1 0h1v1h-1zm2 0h1v4h-1zm1 0h1v1h-1zm23 0h1v1h-1zm1 0h1v1h-1zM59 61h1v1h-1zm9 0h1v1h-1zm19 0h2v1h-2zm2 0h1v1h-1zm12 0h1v1h-1zm1 0h1v1h-1zm1 0h1v1h-1zm4 0h1v1h-1zm1 0h1v1h-1zm7 0h1v1h-1zm3 0h1v6h-1zm1 0h1v1h-1zm5 0h1v1h-1zm4 0h1v1h-1zm1 0h1v1h-1zm1 0h1v1h-1zm11 0h1v1h-1zm3 0h2v5h-2zm3 0h1v1h-1zm5 0h1v1h-1zm1 0h1v1h-1zm1 0h1v1h-1zm11 0h1v1h-1zm1 0h1v1h-1zm3 0h1v1h-1zm1 0h1v1h-1zm14 0h1v1h-1zm3 0h1v5h-1zm1 0h1v1h-1zm21 0h1v1h-1zm1 0h1v1h-1zm1 0h1v1h-1zM59 62h1v1h-1zm8 0h1v1h-1zm1 0h1v1h-1zm19 0h1v1h-1zm1 0h1v1h-1zm13 0h1v1h-1zm1 0h1v1h-1zm1 0h1v1h-1zm4 0h1v1h-1zm1 0h1v1h-1zm7 0h1v1h-1zm4 0h1v1h-1zm6 0h2v1h-2zm3 0h1v1h-1zm1 0h1v1h-1zm1 0h1v1h-1zm11 0h1v1h-1zm5 0h1v1h-1zm1 0h1v1h-1zm5 0h1v1h-1zm1 0h1v1h-1zm1 0h1v1h-1zm12 0h1v1h-1zm3 0h1v5h-1zm1 0h1v1h-1zm14 0h1v1h-1z"/><path d="M185 62h2v1h-2zm3 0h1v1h-1zm1 0h1v1h-1zm9 0h1v1h-1zm11 0h1v1h-1zm1 0h1v1h-1zm1 0h1v1h-1zM59 63h1v1h-1zm8 0h1v1h-1zm20 0h1v1h-1zm1 0h1v1h-1zm13 0h1v1h-1zm1 0h1v1h-1zm1 0h1v1h-1zm3 0h1v1h-1zm1 0h1v1h-1zm1 0h1v1h-1zm7 0h1v1h-1zm1 0h2v1h-2zm3 0h1v1h-1zm6 0h1v1h-1zm3 0h1v3h-1zm1 0h1v1h-1zm12 0h1v1h-1zm1 0h3v1h-3zm4 0h1v1h-1zm6 0h1v1h-1zm1 0h1v1h-1zm1 0h1v1h-1zm12 0h1v1h-1zm1 0h2v1h-2zm3 0h1v1h-1zm15 0h1v1h-1zm3 0h1v4h-1zm1 0h1v1h-1zm5 0h1v1h-1zm4 0h1v1h-1zm11 0h1v1h-1zm1 0h1v1h-1zM59 64h1v1h-1zm8 0h1v1h-1zm9 0h1v1h-1zm10 0h1v1h-1zm1 0h1v4h-1zm1 0h1v1h-1zm4 0h1v1h-1zm4 0h1v1h-1zm4 0h1v1h-1zm1 0h1v3h-1zm1 0h1v1h-1zm4 0h1v1h-1zm1 0h1v3h-1zm1 0h1v1h-1zm7 0h1v1h-1zm1 0h1v1h-1zm3 0h1v3h-1zm1 0h1v1h-1zm5 0h1v1h-1zm4 0h1v1h-1zm13 0h1v1h-1zm4 0h1v1h-1zm5 0h1v1h-1zm1 0h1v3h-1zm1 0h1v1h-1zm13 0h1v1h-1zm1 0h1v1h-1zm3 0h1v1h-1zm1 0h1v1h-1zm2 0h1v1h-1zm4 0h1v1h-1zm8 0h1v1h-1zm1 0h2v1h-2zm3 0h1v1h-1zm1 0h1v1h-1zm4 0h1v1h-1zm4 0h1v1h-1zm10 0h1v1h-1zm1 0h1v1h-1zm1 0h1v1h-1zM59 65h1v1h-1zm8 0h1v1h-1zm5 0h1v1h-1zm4 0h1v1h-1zm10 0h1v1h-1zm2 0h1v1h-1zm4 0h1v1h-1zm4 0h1v1h-1zm4 0h1v1h-1zm2 0h1v1h-1zm3 0h1v1h-1zm1 0h1v1h-1zm2 0h1v1h-1zm8 0h1v1h-1zm4 0h1v1h-1zm5 0h1v1h-1zm4 0h1v1h-1zm13 0h1v1h-1zm4 0h1v1h-1zm5 0h1v1h-1zm2 0h1v1h-1zm14 0h1v1h-1zm3 0h1v2h-1zm1 0h1v1h-1zm2 0h1v1h-1zm4 0h1v1h-1zm9 0h1v1h-1zm3 0h1v2h-1zm1 0h1v1h-1zm1 0h1v1h-1zm3 0h1v1h-1zm4 0h1v1h-1zm10 0h1v1h-1zm1 0h1v2h-1zm1 0h1v1h-1zm3 0h1v1h-1zm1 0h1v1h-1zm1 0h1v1h-1zm1 0h1v1h-1zM59 66h1v1h-1zm8 0h1v1h-1zm5 0h1v1h-1zm4 0h1v1h-1zm1 0h1v1h-1zm8 0h1v1h-1zm1 0h1v2h-1zm2 0h1v1h-1zm3 0h1v1h-1zm1 0h1v1h-1zm4 0h1v1h-1zm1 0h1v1h-1zm2 0h1v1h-1zm1 0h1v1h-1zm2 0h1v1h-1zm1 0h1v1h-1zm1 0h1v1h-1zm1 0h1v1h-1zm1 0h1v1h-1zm2 0h1v1h-1zm8 0h1v1h-1zm4 0h1v1h-1zm1 0h1v1h-1zm5 0h2v1h-2zm2 0h1v1h-1zm1 0h1v1h-1zm13 0h1v1h-1zm1 0h2v1h-2zm2 0h1v1h-1zm1 0h1v1h-1zm4 0h1v1h-1zm1 0h1v1h-1zm2 0h1v1h-1zm13 0h1v1h-1zm1 0h1v1h-1zm4 0h1v1h-1zm1 0h1v1h-1zm1 0h1v1h-1zm4 0h1v1h-1zm1 0h1v1h-1zm8 0h1v1h-1z"/><path d="M187 66h3v1h-3zm3 0h1v1h-1zm1 0h1v1h-1zm1 0h1v1h-1zm1 0h1v1h-1zm1 0h1v1h-1zm4 0h1v1h-1zm1 0h1v1h-1zm7 0h1v1h-1zm1 0h1v1h-1zm1 0h1v1h-1zm2 0h1v1h-1zm3 0h1v1h-1zm1 0h2v1h-2zm2 0h1v1h-1zm1 0h1v1h-1zM58 67h1v1h-1zm1 0h7v3h-7zm7 0h1v1h-1zm1 0h1v1h-1zm2 0h1v1h-1zm1 0h1v1h-1zm1 0h1v1h-1zm1 0h4v1h-4zm4 0h1v1h-1zm1 0h1v1h-1zm1 0h1v1h-1zm1 0h3v1h-3zm3 0h1v1h-1zm1 0h1v1h-1zm1 0h1v1h-1zm1 0h2v1h-2zm3 0h1v1h-1zm1 0h1v1h-1zm1 0h1v1h-1zm1 0h1v1h-1zm1 0h4v1h-4zm4 0h1v1h-1zm1 0h1v1h-1zm1 0h1v1h-1zm1 0h1v1h-1zm1 0h2v1h-2zm2 0h1v1h-1zm1 0h1v1h-1zm1 0h1v1h-1zm1 0h2v1h-2zm2 0h1v1h-1zm1 0h1v1h-1zm6 0h1v1h-1zm1 0h1v1h-1zm1 0h4v1h-4zm4 0h1v1h-1zm1 0h1v1h-1zm1 0h1v1h-1zm1 0h1v1h-1zm3 0h1v1h-1zm2 0h1v1h-1zm15 0h1v1h-1zm1 0h1v1h-1zm1 0h1v1h-1zm3 0h1v1h-1zm1 0h1v1h-1zm1 0h1v1h-1zm1 0h2v1h-2zm2 0h1v1h-1zm1 0h1v1h-1zm1 0h1v1h-1zm9 0h1v1h-1zm1 0h1v1h-1zm1 0h1v1h-1zm1 0h4v1h-4zm4 0h1v1h-1zm1 0h1v1h-1zm1 0h1v1h-1zm1 0h3v1h-3zm3 0h1v1h-1zm1 0h1v1h-1zm1 0h1v1h-1zm1 0h1v1h-1zm7 0h1v1h-1zm1 0h3v1h-3zm3 0h1v1h-1zm1 0h1v1h-1zm1 0h1v1h-1zm1 0h4v1h-4zm4 0h1v1h-1zm1 0h1v1h-1zm1 0h1v1h-1zm1 0h1v1h-1zm1 0h1v1h-1zm1 0h1v1h-1zm1 0h1v1h-1zm1 0h1v1h-1zm1 0h1v1h-1zm1 0h2v1h-2zm2 0h1v1h-1zm1 0h1v1h-1zm2 0h1v1h-1zm1 0h1v1h-1zm1 0h1v1h-1zm1 0h1v1h-1zm1 0h1v1h-1zm1 0h1v1h-1zM58 68h1v1h-1zm8 0h1v1h-1zm3 0h18v1H69zm18 0h1v1h-1zm1 0h1v1h-1zm1 0h17v1H89zm17 0h1v1h-1zm1 0h1v1h-1zm7 0h8v1h-8zm8 0h1v1h-1zm1 0h1v1h-1zm3 0h1v1h-1zm1 0h1v1h-1zm1 0h1v1h-1zm15 0h1v1h-1zm1 0h1v1h-1zm1 0h1v1h-1zm3 0h1v1h-1zm1 0h5v1h-5zm5 0h1v1h-1zm1 0h1v1h-1zm9 0h1v1h-1zm1 0h15v1h-15zm15 0h1v1h-1zm7 0h1v1h-1zm1 0h1v1h-1zm1 0h1v1h-1zm1 0h19v1h-19zm19 0h1v1h-1zm1 0h1v1h-1zm2 0h1v1h-1zm1 0h1v1h-1zm1 0h1v1h-1zm1 0h1v1h-1zm1 0h1v1h-1zm1 0h1v1h-1zM58 69h1v1h-1zm8 0h1v1h-1zm147 0h1v1h-1zm1 0h1v1h-1zm1 0h1v1h-1zm1 0h1v1h-1zm1 0h1v1h-1zM58 70h1v1h-1zm1 0h6v2h-6zm6 0h1v1h-1zm1 0h1v1h-1zm148 0h1v1h-1zm1 0h1v1h-1zm1 0h1v1h-1zM58 71h1v1h-1zm7 0h1v1h-1zm1 0h1v1h-1zm-9 1h1v1h-1zm1 0h6v2h-6zm6 0h1v1h-1zm1 0h1v1h-1zm-8 1h1v1h-1zm7 0h1v1h-1zm1 0h1v1h-1zm-8 1h1v1h-1zm1 0h5v2h-5zm5 0h1v1h-1zm1 0h1v1h-1zm-8 1h1v1h-1z"/><path d="M57 75h5v3h-5zm6 0h1v1h-1zm1 0h1v1h-1zm-8 1h1v1h-1zm6 0h1v1h-1zm1 0h1v1h-1zm-8 1h1v1h-1zm1 0h1v1h-1zm6 0h1v1h-1zm1 0h1v1h-1zm-34 1h1v1h-1zm26 0h1v1h-1zm1 0h5v1h-5zm5 0h1v1h-1zm1 0h1v1h-1zm-33 1h1v1h-1zm25 0h1v1h-1zm1 0h1v1h-1zm1 0h4v1h-4zm4 0h1v1h-1zm1 0h1v1h-1zm-32 1h1v1h-1zm24 0h1v1h-1zm1 0h1v1h-1zm1 0h4v1h-4zm4 0h1v1h-1zm1 0h1v1h-1zm1 0h1v1h-1zm-39 1h1v1h-1zm7 0h1v1h-1zm23 0h1v1h-1zm1 0h1v1h-1zm1 0h4v1h-4zm4 0h1v1h-1zm1 0h1v1h-1zm1 0h1v1h-1zm-38 1h1v1h-1zm7 0h1v1h-1zm23 0h1v1h-1zm1 0h4v1h-4zm4 0h1v1h-1zm1 0h1v1h-1zm1 0h1v1h-1zm-37 1h6v7h-6zm7 0h1v1h-1zm21 0h1v1h-1zm1 0h1v1h-1zm1 0h4v1h-4zm4 0h1v1h-1zm1 0h1v1h-1zm1 0h1v1h-1zm-37 1h1v1h-1zm8 0h1v1h-1zm1 0h1v1h-1zm19 0h1v1h-1zm1 0h1v1h-1zm1 0h4v1h-4zm4 0h1v1h-1zm1 0h1v1h-1zm1 0h1v1h-1zm-36 1h1v1h-1zm8 0h1v5h-1zm1 0h1v1h-1zm17 0h1v1h-1zm1 0h1v1h-1zm1 0h1v1h-1zm1 0h4v1h-4zm4 0h1v1h-1zm1 0h1v1h-1zm1 0h1v1h-1zm-35 1h1v1h-1zm9 0h1v1h-1zm1 0h1v1h-1zm14 0h1v1h-1zm1 0h1v1h-1zm1 0h1v1h-1zm1 0h4v1h-4zm4 0h1v1h-1zm1 0h1v1h-1zm1 0h1v1h-1zm-35 1h1v1h-1zm1 0h1v1h-1zm1 0h1v1h-1zm9 0h1v3h-1zm1 0h1v1h-1zm1 0h1v1h-1zm1 0h1v1h-1zm1 0h1v1h-1zm1 0h1v1h-1zm5 0h1v1h-1zm1 0h1v1h-1zm1 0h1v1h-1zm1 0h1v1h-1zm1 0h1v1h-1zm1 0h1v1h-1zm1 0h4v1h-4zm4 0h1v1h-1zm1 0h1v1h-1zm1 0h1v1h-1zm1 0h1v1h-1zm-38 1h1v1h-1zm1 0h1v1h-1zm1 0h1v1h-1zm1 0h1v1h-1z"/><path d="M19 88h18v2H19zm18 0h11v1H37zm11 0h1v1h-1zm1 0h1v1h-1zm1 0h1v1h-1zm1 0h1v1h-1zm-36 1h1v1h-1z"/><path d="M16 89h29v1H16zm29 0h1v1h-1zm1 0h1v1h-1zm1 0h1v1h-1zm1 0h1v1h-1zm1 0h1v1h-1zm-34 1h1v1h-1zm1 0h23v1H16zm23 0h1v1h-1zm1 0h1v1h-1zm1 0h1v1h-1zm1 0h1v1h-1zm1 0h1v1h-1zm1 0h1v1h-1zm1 0h1v1h-1zm1 0h1v1h-1z"/></g><path d="M62 8h1v1h-1zm1 0h1v1h-1zm27 0h1v1h-1zm1 0h1v1h-1zm-35 5h1v1h-1zm35 0h1v1h-1zm-35 1h1v1h-1zm1 0h1v1h-1zm34 0h1v1h-1zm-35 1h1v1h-1zm1 0h1v1h-1zm1 0h1v1h-1zm33 0h1v1h-1zm-37 1h1v1h-1zm1 0h1v1h-1zm-1 1h1v1h-1zm1 0h1v1h-1zm0 1h1v1h-1zm69 7h1v1h-1zm0 1h1v1h-1zm1 0h1v1h-1zm-1 1h1v1h-1zm1 0h1v1h-1zm-3 1h1v1h-1zm1 0h1v1h-1zm-1 1h1v1h-1zm1 0h1v1h-1zm0 1h1v1h-1zm29 14h1v1h-1zm3 8h1v1h-1zm0 1h1v1h-1zm0 1h1v1h-1zm-1 1h1v1h-1zm1 0h1v1h-1zm-7 1h1v1h-1zm0 1h1v1h-1zm0 1h1v1h-1zm0 1h1v1h-1zm3 4h1v1h-1z" fill="#fefefe"/></svg>