<svg xmlns="http://www.w3.org/2000/svg" role="img" xmlns:xlink="http://www.w3.org/1999/xlink" viewBox="-2.70 -1.70 309.40 188.40"><title>University of Leeds (member) logo</title><defs><path d="M5.21875-43.73438h5.9375v26.5625c0 4.6875.84766 8.0625 2.54688 10.125 1.70703 2.0625 4.46093 3.09375 8.26562 3.09375 3.78906 0 6.53516-1.03125 8.23438-3.09375 1.6953-2.0625 2.54687-5.4375 2.54687-10.125v-26.5625h5.95313v27.29688c0 5.71094-1.41407 10.01563-4.23438 12.92188-2.82422 2.90625-6.99219 4.35937-12.5 4.35937-5.52344 0-9.69531-1.45313-12.51563-4.35938-2.82421-2.90625-4.23437-7.21093-4.23437-12.92187zm0 0" id="a"/><path d="M32.9375-19.8125V0h-5.39063v-19.625c0-3.10156-.60937-5.42578-1.82812-6.96875-1.21094-1.55078-3.02344-2.32813-5.4375-2.32813-2.91797 0-5.21484.9336-6.89063 2.79688-1.67968 1.85547-2.51562 4.38281-2.51562 7.57813V0H5.45312v-32.8125H10.875v5.09375c1.28125-1.96875 2.79688-3.4414 4.54688-4.42188 1.75-.97656 3.76562-1.46874 6.04687-1.46874 3.76953 0 6.625 1.16796 8.5625 3.5 1.9375 2.33593 2.90625 5.76562 2.90625 10.29687zm0 0" id="b"/><path d="M5.65625-32.8125h5.39063V0H5.65625zm0-12.78125h5.39063v6.82813H5.65625zm0 0" id="c"/><path d="M1.78125-32.8125H7.5L17.75-5.28125 28.01563-32.8125h5.70312L21.42187 0h-7.32812zm0 0" id="d"/><path d="M33.71875-17.75v2.625H8.9375c.22656 3.71875 1.34375 6.55469 3.34375 8.5 2.00781 1.9375 4.80078 2.90625 8.375 2.90625 2.07031 0 4.07813-.2539 6.01563-.76563 1.9453-.5078 3.8789-1.26953 5.79687-2.28125v5.09375c-1.9375.82422-3.92188 1.44922-5.95313 1.875-2.03124.42579-4.09374.64063-6.1875.64063-5.23046 0-9.375-1.51953-12.4375-4.5625C4.83595-6.76953 3.3125-10.89063 3.3125-16.07813c0-5.375 1.44531-9.64062 4.34375-12.79687 2.90625-3.15625 6.8164-4.73438 11.73438-4.73438 4.41406 0 7.90624 1.42188 10.46874 4.26563C32.4297-26.5 33.71876-22.63281 33.71876-17.75zm-5.39063-1.59375c-.04296-2.94531-.87109-5.29688-2.48437-7.04688-1.60547-1.7578-3.73438-2.64062-6.39063-2.64062-3.01171 0-5.42187.85156-7.23437 2.54688-1.80469 1.69921-2.83984 4.08984-3.10938 7.17187zm0 0" id="e"/><path d="M24.67188-27.78125c-.60547-.34375-1.26563-.59766-1.98438-.76563-.71094-.16406-1.4961-.25-2.35938-.25-3.04296 0-5.3828.9922-7.01562 2.96876C11.6875-23.84766 10.875-21 10.875-17.28126V0H5.45312v-32.8125H10.875v5.09375c1.125-1.98828 2.59375-3.46875 4.40625-4.4375 1.82031-.96875 4.03516-1.45313 6.64063-1.45313.36328 0 .76953.02735 1.21874.07813.44532.05469.94532.125 1.5.21875zm0 0" id="f"/><path d="M26.57813-31.84375V-26.75c-1.53126-.78125-3.1211-1.36328-4.76563-1.75-1.63672-.39453-3.32813-.59375-5.07813-.59375-2.67968 0-4.6875.41406-6.03124 1.23438-1.33594.82421-2 2.05468-2 3.6875 0 1.25.47656 2.23437 1.4375 2.95312.95703.71094 2.8789 1.38672 5.76562 2.03125l1.84375.40625c3.83203.82422 6.55078 1.98438 8.15625 3.48438 1.61328 1.49218 2.42188 3.57421 2.42188 6.25 0 3.04296-1.21094 5.45312-3.625 7.23437C22.29687-.03906 18.98437.84375 14.76563.84375c-1.76172 0-3.59375-.17188-5.5-.51563C7.36719-.0039 5.36327-.51562 3.25-1.20311v-5.5625C5.23828-5.73438 7.20313-4.95704 9.14063-4.4375c1.9375.52344 3.85156.78125 5.75.78125 2.53125 0 4.47656-.42969 5.84375-1.29688 1.375-.875 2.0625-2.10156 2.0625-3.6875 0-1.46875-.4961-2.59375-1.48438-3.375-.99219-.78125-3.15234-1.53125-6.48438-2.25l-1.875-.4375c-3.34375-.70703-5.76171-1.78515-7.25-3.23437-1.48046-1.45703-2.21875-3.45703-2.21875-6 0-3.08203 1.09375-5.46094 3.28125-7.14063 2.1875-1.6875 5.28907-2.53124 9.3125-2.53124 2 0 3.875.15234 5.625.45312 1.75782.29297 3.38282.73047 4.875 1.3125zm0 0" id="g"/><path d="M10.98438-42.125v9.3125h11.10937v4.1875H10.98437v17.8125c0 2.67969.36329 4.39844 1.09375 5.15625.73829.76172 2.22657 1.14063 4.46875 1.14063h5.54688V0h-5.54688C12.39063 0 9.51954-.77344 7.9375-2.32813c-1.58594-1.55078-2.375-4.3789-2.375-8.48437V-28.625H1.60937v-4.1875H5.5625v-9.3125zm0 0" id="h"/><path d="M19.3125 3.04688C17.78125 6.95313 16.28906 9.5 14.84375 10.6875c-1.4375 1.19531-3.3711 1.79688-5.79688 1.79688H4.75V7.96875h3.15625c1.48828 0 2.64063-.35547 3.45313-1.0625.8203-.69922 1.73437-2.35547 2.73437-4.96875l.96875-2.46875L1.78125-32.8125H7.5L17.75-7.15625 28.01563-32.8125h5.70312zm0 0" id="i"/><path d="M18.375-29.03125c-2.89844 0-5.1836 1.13281-6.85938 3.39063C9.83595-23.39063 9-20.30079 9-16.375c0 3.92969.83203 7.02344 2.5 9.28125 1.66406 2.25 3.95703 3.375 6.875 3.375 2.86328 0 5.13281-1.1289 6.8125-3.39063 1.6875-2.26953 2.53125-5.35937 2.53125-9.26562 0-3.88281-.84375-6.96094-2.53125-9.23438-1.67969-2.28124-3.94922-3.42187-6.8125-3.42187zm0-4.57813c4.6875 0 8.36328 1.52735 11.03125 4.57813 2.67578 3.04297 4.01563 7.26172 4.01563 12.65625 0 5.36719-1.33985 9.57813-4.01563 12.64063C26.73828-.6797 23.0625.84375 18.375.84375c-4.71094 0-8.39844-1.52344-11.0625-4.57813-2.66797-3.0625-4-7.27343-4-12.64062 0-5.39453 1.33203-9.61328 4-12.65625 2.66406-3.05078 6.35156-4.57813 11.0625-4.57813zm0 0" id="j"/><path d="M22.26563-45.59375v4.48438h-5.15626c-1.9375 0-3.28124.39062-4.03124 1.17187-.75.78125-1.125 2.1875-1.125 4.21875v2.90625h8.875v4.1875h-8.875V0H6.53125v-28.625H1.375v-4.1875h5.15625v-2.28125c0-3.65625.84766-6.3164 2.54688-7.98438 1.6953-1.67578 4.39453-2.51562 8.09375-2.51562zm0 0" id="k"/><path d="M5.89063-43.73438h5.92187v38.75h21.29688V0H5.89062zm0 0" id="l"/><path d="M27.25-27.82813v-17.76562h5.39063V0H27.25v-4.92188c-1.13672 1.94922-2.57031 3.39844-4.29688 4.34375C21.22266.3672 19.14844.84376 16.73438.84376c-3.96876 0-7.19922-1.57813-9.6875-4.73438C4.55467-7.05469 3.3125-11.21875 3.3125-16.375s1.24219-9.3164 3.73438-12.48438c2.48828-3.16406 5.71875-4.75 9.6875-4.75 2.41406 0 4.48828.47657 6.21874 1.42188 1.72657.94922 3.16016 2.40234 4.29688 4.35938zM8.875-16.375c0 3.96094.8125 7.07031 2.4375 9.32813 1.63281 2.26171 3.8789 3.39062 6.73438 3.39062 2.85156 0 5.09765-1.1289 6.73437-3.39063C26.42578-9.30467 27.25-12.41406 27.25-16.375c0-3.96875-.82422-7.07813-2.46875-9.32813-1.63672-2.2578-3.88281-3.39062-6.73438-3.39062-2.85546 0-5.10156 1.13281-6.73437 3.39063-1.625 2.25-2.4375 5.35937-2.4375 9.32812zm0 0" id="m"/></defs><use y="50" xlink:href="#a"/><use x="43.916" y="50" xlink:href="#b"/><use x="81.943" y="50" xlink:href="#c"/><use x="98.613" y="50" xlink:href="#d"/><use x="134.121" y="50" xlink:href="#e"/><use x="171.035" y="50" xlink:href="#f"/><use x="195.703" y="50" xlink:href="#g"/><use x="226.963" y="50" xlink:href="#c"/><use x="243.633" y="50" xlink:href="#h"/><use x="267.158" y="50" xlink:href="#i"/><g><use y="120" xlink:href="#j"/><use x="36.709" y="120" xlink:href="#k"/></g><g><use y="180" xlink:href="#l"/><use x="33.428" y="180" xlink:href="#e"/><use x="70.342" y="180" xlink:href="#e"/><use x="107.256" y="180" xlink:href="#m"/><use x="145.342" y="180" xlink:href="#g"/></g></svg>