<svg xmlns="http://www.w3.org/2000/svg" role="img" viewBox="-13.80 -18.80 2017.60 1240.10"><title>Vapor IO logo</title><defs><style>.cls-1{fill:#1a90b8}.cls-4{fill:#17b2c1}.cls-5{fill:#40a6b7}.cls-6{fill:#18b0c0}.cls-9{fill:#18a0bc}.cls-10{fill:#199bba}.cls-11{fill:#199ebb}.cls-13{fill:#199fbc}.cls-14{fill:#19a6be}.cls-15{fill:#19adbe}.cls-16{fill:#18a5bd}.cls-18{fill:#19acc0}.cls-19{fill:#1898b8}.cls-20{fill:#18a3bc}.cls-21{fill:#17a2bb}</style></defs><path d="M94.797 231.275c-5.124-13.127-8.913-26.696-13.23-40.089Q54.997 108.78 28.52 26.342c-1.503-.961-.808-2.851-1.717-4.064.412-.627-.972-2.152 1-2 15.647 7.315 31.25 14.723 46.947 21.928q120.572 55.34 241.2 110.558a8.938 8.938 0 0 1 5.292 5.954q31.323 96.256 62.911 192.426 34.035 104.02 68.026 208.054 34.01 104.023 68.024 208.044 33.856 103.56 67.7 207.122 34.458 105.455 68.9 210.914h-38c-1.342-2.014-2.078-4.498-5.023-5.1-1.529-.314-2.275-1.875-2.691-3.373a19.494 19.494 0 0 0-8.745-11.693c-4.093-2.58-3.86-7.42-5.267-11.352-.45-1.255.9-2.396 1.997-3.222 1.52-1.145 2.828-2.382 1.92-4.829-2.3.024-3.1 2.123-4.495 3.313-.99.847-1.87 2.223-3.376 1.375-1.458-.82-1.22-2.351-.614-3.559 1.932-3.841 1.25-5.713-3.417-4.999-1.01.155-2.255.051-2.628-.983-2.003-5.565-8.81-6.77-10.943-12.231-.6-1.535-2.025-2.476-3.426-3.48-3.348-2.395-5.232-5.71-3.569-9.896 1.725-4.34.549-8.158-1.44-11.955-1.062-2.026-2.281-3.504-4.46-1.106-2.552 2.81-4.714 1.444-6.752-.683-3.03-3.16-4.336-7.44-7.068-10.85-1.405-1.753-.052-3.042 2.193-3.013.767.01 2.22 1.248 2.087-.733-.099-1.47-1.29-2.82-2.731-1.884-5.307 3.442-6.598-.785-8.387-4.134-.468-.877-.644-2.022-1.518-2.536-9.98-5.866-13.643-16.417-18.863-25.73-1.678-2.995-4.724-4.063-6.67-6.576-2.17-2.8-4.301-5.424-4.864-9.084-.502-3.262-4.303-4.774-4.73-8.066-.284-2.185-.89-3.323-3.33-3.813-1.867-.375-3.103-2.41-4.35-3.98-5.672-7.136-11.513-14.308-16.029-22.089-2.601-4.482-4.2-9.34-8.209-13.114-1.38-1.3-1.596-3.95-3.525-5.616-1.99-1.719-1.002-3.99.937-5.542 1.608-1.288 3.168-2.523 2.271-4.875-.766-.609-1.288-.133-1.807.264-4.76 3.639-4.81 3.648-5.66-2.349-.214-1.5-1.028-2.263-2.276-2.005-3.742.773-5.721-.645-6.182-4.38-.038-.316-.314-.73-.585-.765-7.452-.941-7.78-9.646-13.743-12.602-2.35-1.165-1.829-5.766-2.746-8.766a4.806 4.806 0 0 1 .268-1.38c2.604-4.609-.066-8.314-2.16-12.06a1.647 1.647 0 0 0-2.909-.317c-2.29 2.727-4.569 3.194-6.988.24-2.49-3.04-1.362-5.434 1.557-7.258-.726-1.257-1.922-1.05-2.742-1.578a3.009 3.009 0 0 1-.998-.981c-1.178-2.658-1.053-6.545-6.197-4.4-2.336.974-4.254-1.964-4.97-4.079-1.783-5.272-5.986-8.68-9.155-12.875-1.098-1.453-2.842-2.688-2.516-4.683.705-4.327-1.592-6.115-5.3-6.956a3.084 3.084 0 0 1-2.298-1.77c-2.18-5.448-7.087-8.719-10.46-13.209-.8-1.065-1.97-1.994-2.149-3.319-.84-6.22-5.192-10.42-8.97-14.67-7.091-7.974-13.004-16.921-20.56-24.479-1.705-1.705-1.428-3.632-1.013-5.591.557-2.63-.198-4.516-2.603-5.835-4.203-2.303-5.95-6.588-8.21-10.449-1.129-1.929-.621-3.538 1.038-4.822 1.632-1.264 3.093-2.542 2.439-4.755a1.086 1.086 0 0 0-1.514-.176c-1.632 1.047-2.84 3.343-5.057 2.72-2.689-.757-1.438-3.296-1.653-5.14a1.89 1.89 0 0 0-1.548-1.733c-6.263-1.418-9.28-6.482-12.605-11.195-.672-.952-1.128-2.254-2.16-2.706-8.93-3.911-10.746-13.398-15.82-20.287-3.008-4.085-2.633-7.13-.77-12.288-1.028 2.538-2.246 4.611-5.491 2.88-3.196-1.706-4.938-5.553-3.463-8.151.467-.824 1.672-1.385 1.006-2.517-.878-1.491-1.97-.439-3.028-.088-3.827 1.268-5.407-1.772-6.238-4.203-1.444-4.226-4.426-6.907-7.516-9.675-2.705-2.421-4.656-5.082-3.933-9.121.546-3.045-1.601-4.731-4.209-5.195a5.264 5.264 0 0 1-4.485-4.055c-1.069-3.362-3.805-5.413-6.142-7.75-2.96-2.96-6.046-5.77-6.504-10.323a3.168 3.168 0 0 0-1.857-2.814c-3.517-1.118-3.716-4.049-5.127-6.847-2.12-4.2-1.864-7.365.781-11.68-1.936 1.38-3.274 1.614-4.033.593-1.598-2.15-3.322-2.114-5.642-1.348-2.565.847-4.192-.476-4.541-3.137-.922-7.024-4.476-13.385-5.133-20.467-.197-2.125-2.606-2.962-2.725-5.186-.187-3.47-3.266-6.717.276-10.522 1.133-1.218-1.02-4.457-3.37-5.334-3.575-1.335-4.291-4.207-4.95-7.415-.92-4.475-.83-9.189-3.508-13.273-1.174-1.792-.36-3.9.689-5.692 1.783-3.048 1.617-5.408-2.224-6.495a4.5 4.5 0 0 1-3.214-3.492c-1.201-4.453-3.803-8.501-3.84-13.293a3.237 3.237 0 0 0-.53-1.895c-6.012-8.546-6.535-19.138-10.564-28.43-.685-1.58.23-2.653 1.971-2.492 1.886.175 3.31-.295 4.025-2.137.485-1.253 1.159-2.216-1.247-2.647-5.718-1.025-7.948-3.827-6.752-9.385.61-2.83-.35-3.779-2.114-5.096a18.562 18.562 0 0 1-3.502-3.552c-1.1-1.419-1.846-3.401-.76-4.642 5.032-5.746-.732-9.022-3.19-12.302-3.706-4.946-4.327-6.11-.568-11.736-.88.303-1.664.883-2.646.562-2.506-.82-6.751-10.124-5.687-12.533.838-1.894 2.245-1.867 3.647-.798 3.033 2.313 4.19.205 5.015-2.157 1.41-4.037-.08-8.05.06-12.564-2.708 1.109-2.576 3.003-2.703 4.737-.163 2.212.566 4.27 1.133 6.361a2.577 2.577 0 0 1-.996 3.097c-1.36.873-2.289-.095-2.898-1.052a20.637 20.637 0 0 0-5.791-6.099c-.972-.665-1.983-2.024-1.535-2.962 2.508-5.265-2.953-8.048-3.521-12.1-.786-5.604-3.646-10.259-5.384-15.399-1.183-3.501 1.614-3.743 3.643-4.832-2.38.999-4.12.457-5.119-1.991-.817-2.006-1.64-4.002-2.32-6.064-3.415-10.334-6.028-20.931-10.789-30.827-1.228-2.553.312-6.077-2.278-8.62-.746-.733.047-2.39.955-3.118 5.133-4.122 9.882-9.13 17.303-8.287-3.318-1.476-10.828-1.023-14.373.914-4.272 2.334-4.629 2.159-6.826-2.542-1.267-2.713-2.853-5.268-3.997-8.052-1.874-4.56-1.842-4.658 3.231-5.307.665-.086 1.312-.217 1.567-1.023-.125-1.26-1.147-1.48-2.132-1.66a17.024 17.024 0 0 0-2.992.045c-1.489-.008-3.28-.84-2.88-2.065 1.314-4.008-3.874-7.249-1.126-11.118 1.077-1.516 2.405-.415 3.364.563a19.284 19.284 0 0 0 5.671 4.03c2.937 1.367 3.64.034 3.207-2.643a11.664 11.664 0 0 0-1.13-3.303 85.766 85.766 0 0 0-9.77-14.986c-2.515-3.177-3.178-2.922-4.997.849-.538 1.114-.508 3.025-2.29 2.721-1.209-.206-1.193-1.839-1.564-2.92a80.38 80.38 0 0 1-4.079-15.361c-.788-5.896-4.564-10.588-6.363-16.137-4.524-13.961-8.797-28.001-13.36-41.946-2.036-6.226-3.303-12.787-6.868-18.46z" class="cls-1"/><path fill="#1a8bb7" d="M440.804 938.278c.432 2.769 2.5 5.1 2.122 8.115a1.9 1.9 0 0 0 .948 1.55c4.575 1.503 5.687 5.938 8.369 9.057 2.273 2.644 7.434 2.731 7.639 7.813a3.847 3.847 0 0 0 .47.056c6.851 1.072 6.851 1.072 6.118 6.984 2.356-.058 3.117-2.252 4.627-3.385.778-.584 1.372-1.81 2.417-1.5 1.323.393 1.279 1.776 1.285 2.955.013 2.333.163 4.352-2.816 5.61-2.921 1.235-3.899 3.524.364 4.792.843.251 1.999.702 1.779 1.425-1.451 4.762 1.934 5.966 5.102 7.613 1.054.549 2.482 2.188 2.301 3.011-1.42 6.453 4.128 9.044 6.713 13.346a135.454 135.454 0 0 0 9.41 13.077c1.892 2.44 2.898 6.57 7.514 5.48.148-.035.586.37.567.53-.738 6.153 6.52 8.827 6.337 15.016-.092 3.127 3.457 6.269 5.575 7.14 5.43 2.236 5.277 7.558 8.007 11.15 3.916 5.15 5.686 12.07 11.169 15.806a24.338 24.338 0 0 1 8.252 9.977c.822 1.652 2.425 2.998 3.944.09 1.302-2.494 3.136-1.432 4.412.008 1.515 1.71 2.19 4.037.769 5.972-1.346 1.833-1.563-.812-2.464-1.125-.801-.277-1.56-.763-2.248-.022-.235.253-.26 1.157-.066 1.284 3.984 2.61 4.21 7.785 7.521 10.888 2.036 1.908 3.453 3.026 5.258-.27 1.503-2.743 3.285-2.961 5.002.18 2.674 4.888 5.392 9.672 2.145 15.352-1.727 3.021 1.545 6.883 1.919 6.926 3.792.438 4.215 4.134 6.474 5.817 1.157.862 2.05 1.398 2.095 2.947.062 2.161.805 3.556 3.426 2.687 2.048-.679 3.485.383 3.415 2.365-.12 3.402.88 4.064 4.31 3.446 4.5-.811 5.473 1.13 3.315 5.62-.542 1.128-1.944 1.967-.866 3.8 2.129-.701 2.75-3.09 4.462-4.145 1.381-.851 2.365-3.972 4.104-2.22 1.68 1.694 1.77 5.195-.21 6.82-2.585 2.118-6.25 2.452-1.806 6.962 1.477 1.5.419 5.544 4.2 7.547a15.003 15.003 0 0 1 7.863 11.318c.223 1.57.99 3.415 2.508 3.317 4.81-.307 4.336 2.8 4.249 5.818h-218q-18.306-57.198-36.618-114.395-21.626-67.397-43.327-134.771-19.7-61.22-39.43-122.431-26.4-82.167-52.737-164.353c-9.428-29.329-18.981-58.617-28.432-87.939q-22.599-70.11-45.133-140.243-21.708-67.553-43.356-135.126-8.234-25.674-16.411-51.367a23.262 23.262 0 0 1-.563-3.378c3.328-.166 3.206 3.1 3.719 4.683 2.533 7.814 5.469 15.522 7.73 23.375 1.47 5.098 2.6 10.323 4.536 15.302 3.311 8.515 4.683 17.637 9.625 25.718 2.751 4.5 3.561 10.472 4.15 15.9.351 3.24 3.837 5.358 1.677 9.332 2.154-.973 1.485-2.332 1.989-3.223.854-1.512.693-3.732 3.142-4.016 2.241-.26 2.565 1.684 3.55 2.933 4.162 5.28 8.087 10.706 10.839 16.888a7.63 7.63 0 0 1 .89 2.314c.136 1.781.92 3.96-.584 5.224-1.52 1.276-3.052-.516-4.54-1.086a14.74 14.74 0 0 1-7.4-6.135c-.544.873-1.286 1.668-1.142 1.892 1.881 2.923 2.941 5.896 2.068 9.49-.27 1.11 1.176 1.446 2.228 1.08a5.573 5.573 0 0 1 3.878-.398c1.838.668 3.53 1.799 3.218 3.885-.329 2.201-2.422 1.873-4.062 1.752a35.646 35.646 0 0 1-3.954-.862c2.115 4.186 3.782 7.538 5.512 10.856.291.558 1.056.899 1.268 1.465 1.496 4.003 2.614 4.223 5.406.928a5.128 5.128 0 0 0 .588-1.348c3.711 4.407 7.558-2.98 11.288.13a2.21 2.21 0 0 0 2.307.451c1.29-.451 2.974-.985 2.832 1.19-.11 1.691-1.094 2.983-3.405 2.466-4.07-.911-15.085 4.401-16.759 7.934a4.268 4.268 0 0 0-.289 1.807c6.602 1.858-.043 7.806 3.61 11.246 3.03 2.852 2.773 8.446 4.6 12.02 3.442 6.73 3.615 14.32 7.178 20.887 1.29 2.379 1.756 3.96 4.368 1.813 1.298-1.067 2.784-1.125 3.26.394.687 2.197-1.42 1.533-2.513 1.73-3.214.582-3.869 2.167-2.852 5.3 1.39 4.277 5.28 7.598 4.31 12.897-.342 1.867 4.866 2.711 2.54 6.213a10.801 10.801 0 0 0 1.407-.03c4.153-.616 2.98 1.907 1.684 3.437-3.196 3.772-1.937 5.802 2.132 7.342 2.756 1.043 1.919 4.938 4.81 6.071 1.96-1.096.354-2.426-.038-3.684-1.06-3.399-1.577-6.815.306-10.072.508-.877.907-2.481 2.452-1.972 1.31.431 2.79 1.863 2.245 2.92-1.942 3.765 1.524 7.311-.373 11.418-1.877 4.065-3.32 5.6-7.218 3.047-.62-.405-1.337-.738-1.703-.124a3.084 3.084 0 0 0-.389 2.346 69.997 69.997 0 0 0 3.838 8.507c1.124 2 2.698 1.902 3.481-.404.34-1.002.504-2.275 1.709-1.718 1.548.716.507 1.904-.061 2.897a41.202 41.202 0 0 0-2.607 4.817c-.786 1.935-1.065 4.052 1.297 5.175 4.357 2.072 4.015 7.607 7.75 10.252 1.1.778.637 2.681-1.384 3.372-3.447 1.177-2.431 3.295-.755 5.27a22.846 22.846 0 0 0 8.77 6.63c-5.191 1.393-3.65 5.463-2.735 7.578 1.265 2.925 4.243 5.61 7.96 1.536.92 7.16-1.442 9.923-6.587 8.624 1.78 8.432 6.335 16.101 7.232 24.849.034.33.015.93.118.953 6.8 1.462 1.543 9.005 5.908 11.706.832.515.142 1.619.366 2.23 1.155 3.144.427 7.384 5.77 8.036 2.817.344 3.703 3.363 2.022 5.971-2.183 3.386-3.18 5.877.46 9.498 1.271 1.265 1.383 5.988 1.347 9.214-.04 3.714.305 6.905 5.317 7.372 2.327.216 1.612 3.77 3.307 5.227 2.858 2.456.107 3.144-1.39 4.256-1.452 1.078-1.945 3.043-.224 3.46 2.401.581 1.325 1.546 1.112 2.728-.145.799-.317 2.164.064 2.398 4.63 2.854 1.946 8.405 4.107 11.535 3.074 4.45 2.08 9.393 3.678 13.898.84 2.372 2.238 2.341 3.794 1.443 2.392-1.381 4.165-2.802 5.56 1.306.777 2.29 2.156.853 2.9-.754a1.231 1.231 0 0 1 2.048-.469c.652.554.17 1.153-.104 1.76-.806 1.783-2.365 3.704-2.147 5.377.49 3.754 1.119 10.006 3.046 10.564 4.978 1.442 5.6 4.365 5.994 8.27.167 1.653 1.566 2.476 2.511 3.61 3.539 4.244 9.074 6.944 10.115 13.139.136.81.816 1.254 1.79 1.418 5.208.876 6.652 2.763 5.952 7.564a6.233 6.233 0 0 0 2.378 5.735c4.462 3.381 8.147 7.094 10.027 12.556.803 2.332 2.233 4.748 5.22 1.28 1.675-1.945 2.942.047 3.596 1.615.547 1.31 2.514 3.263-.318 3.898-1.744.391-2.406.327-1.59 2.25 1.033 2.44 2.614 4.588 5.119 4.99 2.141.344 1.874-1.582 1.47-3.197-.28-1.126.57-1.848 1.618-2.146a2.109 2.109 0 0 1 2.247.715 1.71 1.71 0 0 1-.307 2.622c-3.095 2.848-1.992 6.107-.808 9.235 2.516 6.648 8.597 11.322 10.372 18.432.095.384 1.09.641 1.706.783 3.862.883 5.652 3.92 7.853 6.83 3.075 4.067 5.41 9.334 11.924 9.3 2.542-.013 2.108 2.014 1.613 3.7-.366 1.246-1.25 2.8.222 3.568 1.48.77 2.142-1.126 3.168-1.843.135-.094.218-.275.36-.343 1.384-.67 2.202-3.986 4.076-1.738 1.392 1.669 1.602 5.523-.271 6.407-8.726 4.12.758 7.346.287 10.955-.053.407.812 1.012 1.341 1.404 4.144 3.072 8.53 5.516 6.074 12.457-.608 1.717 4.164 5.34 6.466 8.085q10.963 13.073 21.904 26.165a4.69 4.69 0 0 1 .96 2.25c.995 7.138 6.22 11.353 10.988 15.834a5.44 5.44 0 0 1 1.928 3.274c.34 2.016 1.049 2.901 3.729 3.334 2.742.443 6.919 2.48 4.755 7.282a2.218 2.218 0 0 0 .942 3.02c3.541 2.25 4.571 6.667 8.356 8.97 2.193 1.334 1.235 5.656 3.574 7.83.901.839 1.796 2.823 3.105 1.527 5.71-5.65 4.814 1.258 6.348 3.293.408.542.103 1.62-.094 2.568a2.305 2.305 0 0 0-1.089.437 1.086 1.086 0 0 0 .918-.246c.257-.217.38-.326.39-.306.063.134-.083.21-.22.115a23.902 23.902 0 0 1 3.706-.019 2.024 2.024 0 0 1 2.096 1.749c.128 1.21-.762 1.825-1.79 2.002-1.607.276-3.015.62-2.68 2.722a5.448 5.448 0 0 0 3.01 3.777c1.979 1.125 2.456-.866 3.263-2.014 1.891-2.695 3.264-2.515 5.087.34 3.961 6.203 4.534 9.71 1.528 13.328z"/><path fill="#1badbe" d="M1965.804 635.278c-10.349 1.308-20.712 2.645-30.363 6.918-18.053 7.994-26.891 22.85-30.5 41.49a129.258 129.258 0 0 0-2.286 24.802c.06 51.806-.03 103.613.135 155.419.015 4.732-1.14 6.282-6.032 6.163-13.486-.326-26.985-.215-40.476-.04-3.86.05-5.23-1.15-5.226-5.13q.128-136.928.014-273.857c-.003-3.27.684-4.781 4.397-4.725 13.157.199 26.32.175 39.477.014 3.304-.04 4.335 1.024 4.243 4.28-.202 7.157-.1 14.324-.034 21.486.015 1.584-.562 3.341 1.156 5.057 16.094-22.41 37.122-35.645 65.495-34.877v2c-4.1 2.611-9.03 1.982-13.43 2.684a67.917 67.917 0 0 0-32.337 14.192c-4.621 2.091-7.467 6.133-10.677 9.776-.908 1.283-1.526 2.734-2.42 4.028a17.668 17.668 0 0 1-2.682 2.964c-1.46 1.285-2.802 3.366-5.039 2.529-2.541-.951-3.702-3.231-3.824-5.952-.255-5.661-.079-11.326-.116-16.989-.05-7.634-.078-7.69-7.881-7.699-8.496-.01-16.994.1-25.487-.043-4.053-.068-5.667 1.494-5.619 5.578.127 10.827.042 21.656.042 32.484q-.003 97.204-.042 194.408c-.005 4.797.208 9.298 4.109 12.8 1.263 1.134 1.634 2.876 2 4.511.654 2.921 2.288 4.736 4.967 6.378 5.103 3.126 7.394 8.843 10.74 13.564 1.41 1.987 1.997 4.813 5.041 5.02 4.138.282 8.347.867 12.384-.431 1.917-.617 1.445-2.74 1.734-4.334 3.476-19.155 1.726-38.493 1.95-57.751.252-21.654.054-43.313.061-64.969.002-4.495.2-8.998-1.389-13.338a5.992 5.992 0 0 1-.157-3.948c2.415-6.98 1.228-14.198 1.553-21.317.676-14.844 3.85-28.948 12.435-41.428 3.148-4.575 7.496-8.013 11.25-11.998a12.523 12.523 0 0 1 1.247-1.015c2.806-1.41 5.819-2.436 8.424-4.27a24.257 24.257 0 0 1 4.504-2.426 54.275 54.275 0 0 0 12.285-3.908c3.416-.9 6.898-.492 10.357-.574 2.077.201 4.287-.133 6.017 1.474z"/><path d="M1959.807 634.263l-11.003.015a1.35 1.35 0 0 1-2.133-.164c-.738.915.634-3.315-1.011-.403a2.531 2.531 0 0 1-3.495.952c-4.105-1.746-5.15-5.613-2.263-9.063 2.016-2.41 1.788-4.905-.17-6.713-3.748-3.465-6.208-8.318-11.392-10.306-2.17-.833-1.471-3.045-1.044-4.84.229-.962.733-2.058-.175-2.805-1.23-1.012-2.055.231-3.022.79-3.407 1.972-3.553 1.912-5.29-1.438 5.705-4.385 11.63-8.469 18.447-10.89a95.881 95.881 0 0 1 12.579-3.387 68.698 68.698 0 0 1 15.969-1.732v48c-1.644 1.733-4.327.33-5.997 1.984z" class="cls-4"/><path d="M1080.804 20.278a9.22 9.22 0 0 1-1.884 6.248c-1.784-1.429-1.432-3.345-1.195-5.235l.079-1.013z" class="cls-5"/><path d="M1959.807 634.263c1.306-2.754 3.841-1.797 5.997-1.985v2l-5.997-.015z" class="cls-6"/><path fill="#b8eef3" d="M26.804 22.278c1.49.968 1.236 2.672 1.717 4.065l-1.717-.065z"/><path fill="#1994b8" d="M664.526 1022.373c-5.83-18-11.757-35.968-17.47-54.004q-20.62-65.096-41.084-130.241-9.373-29.708-18.831-59.389a17.115 17.115 0 0 1-.145-11.099q26.27-80.808 52.261-161.705c10.611-32.972 21.036-66.005 31.67-98.97 9.535-29.563 19.231-59.074 28.88-88.6 3.38-10.344 6.827-20.665 10.243-30.997 3.532 1.94 1.904 4.821 1.118 7.306-3.092 9.776-6.627 19.41-9.582 29.23-3.444 7.583-4.756 15.835-7.38 23.69-8.527 25.527-16.652 51.191-24.784 76.844-5.474 17.264-11.334 34.396-16.74 51.675-1.03 3.292-1.693 6.746-2.7 10.082-.336 1.109-.818 2.396-.104 3.397 1.912 2.678 1.508 5.218-.717 8.19 5.514-1.149 7.423 2.165 10.006 5.509 7.477 9.676 12.985 20.723 21.677 29.613a50.517 50.517 0 0 1 9.464 13.92c3.861 8.335 10.852 14.288 16.587 21.14 5.73 6.843 9.722 14.66 14.498 22.036 1.452 2.24 3.128 4.298 4.739 6.418 9.995 13.156 20.402 26.036 29.227 40.017 3.286 5.206 6.287 10.328 10.834 14.712a34.674 34.674 0 0 1 8.544 14.393 4.105 4.105 0 0 0 1.519 2.444c8.761 5.992 14.176 14.69 18.876 23.867 1.551 3.029 3.138 5.777 6.028 7.737 3.229 2.19 4.475 6.134 7.427 8.686 3.824 3.307 4.676 3.35 6.29-1.497 2.839-8.52 5.383-17.15 8.597-25.528 4.025-10.495 6.947-21.348 10.824-31.908 4.1-11.167 6.952-22.897 11.29-34.013 3.503-8.971 6.478-18.139 9.279-27.267 3.702-12.065 7.79-23.989 11.671-35.99a7.818 7.818 0 0 1 2.144-2.13 1.942 1.942 0 0 1 2.108.336l-165.65 498.532-1.078-.183q-9.667-30.61-19.32-61.223c-3.421-10.93-6.689-21.91-10.026-32.866-2.343-11.055-6.11-21.66-10.19-32.164z"/><path d="M918.68 95.968c13.456-6.406 26.88-12.879 40.374-19.204q32.353-15.163 64.786-30.153a8.054 8.054 0 0 1 1.92-.372c2.029-.063 1.731 1.167.953 2.123-1.062 1.307-2.738 1.864-4.237 2.555-12.07 5.57-23.566 12.295-35.91 17.366-3.89 1.597-7.708 3.75-11.668 5.403-2.738 1.144-3.586 2.255-1.419 5.05 18.754 24.186 36.117 49.384 53.814 74.338 1.828 2.577 4.408 4.544 5.931 7.364-5.147 15.328-10.37 30.638-15.374 46.012-4.913 15.093-9.697 30.25-14.897 45.23-5.593 16.11-11.005 32.297-16.419 48.455-8.381 25.013-17.196 49.893-24.934 75.123-.297.966-1.118 1.735-1.228 2.717-.5 4.463-2.304 5.84-6.525 3.341-2.332-1.38-3.883-.634-3.3 2.473.644 3.433.893 6.956 2.337 10.202a5.267 5.267 0 0 1-.123 5.255c-.837 1.32-1.004 3.574-3.195 3.279-1.88-.254-1.72-2.174-2.017-3.6-.23-1.107-.141-2.516-1.72-2.624-1.097-.075-1.702.87-2.354 1.64-4.32 5.099-4.176 7.43.793 12.229 2.466 2.38 2.324 7.383-.586 8.009-4.987 1.073-3.01 4.146-2.06 6.305 2.263 5.147 1.292 10.884-3.443 13.984-1.753 1.149-1.773 2.092-1.236 3.622a4.99 4.99 0 0 1 .543 2.908c-.615 2.211-1 5.153-3.588 5.457-2.44.286-2.03-2.513-2.433-4.182-.583-2.416-1.723-2.605-3.46-.994-4.7 4.363-4.715 8.527-.02 12.707 3.178 2.83 2.585 7.434-1.368 8.458-2.052.531-2.313 1.51-2.318 3.084-.004 1.488-1.348 3.383 1.225 4.142a2.69 2.69 0 0 1 1.994 3.485c-.34 1.681-1.665 2.399-3.133 2.904a8.065 8.065 0 0 1-10.432-4.416c-1.281-2.652-2.748-4.887-5.427-6.248a4.9 4.9 0 0 1-2.634-2.906c-2.646-9.645-9.746-16.203-15.973-23.39-2.396-2.764-4.682-5.593-4.05-9.788.427-2.838-3.772-1.675-4.282-4.438-.357-1.936 1.301-4.884-1.457-5.813-6.13-2.064-7.994-7.69-10.946-12.382-2.164-3.44-3.88-6.777-7.696-9.245-3.41-2.205-4.003-7.398-5.845-11.253-1.024-2.143-1.563-3.929-4.37-3.667a2.221 2.221 0 0 1-2.11-1.164c-1.592-3.638-5.762-5.391-7.202-8.69-3.448-7.9-9.687-13.492-14.906-19.923-3.382-4.167-4.978-9.429-8.595-13.428a3.202 3.202 0 0 1-.504-2.879c.642-2.632-.107-4.117-2.988-4.476-2.118-.264-3.033-1.946-3.322-3.881-.49-3.293-2.535-5.254-5.277-6.832-3.332-1.919-5.53-4.246-5.051-8.805a6.824 6.824 0 0 0-4.645-7.42c-3.082-1.173-5.093-4.18-7.874-6.02-1.37-.906-1.508-2.502-1.047-4.079.337-1.153.16-1.812-1.309-1.906-6.569-.419-8.53-5.722-10.565-10.582-.925-2.21-1.002-4.692-2.485-6.865-1.297-1.9 1.094-3.64 1.372-6.327-1.273 1.495-1.31 3.648-3.25 3.462-1.645-.157-3.351-1.32-3.299-2.622.193-4.802-5.97-6.306-5.465-11.2.087-.837-.457.165-.64.279-2.889 1.807-3.94.158-4.404-2.377a7.413 7.413 0 0 1 .398-4.913c1.71-3.072 2.315-5.793.675-9.351-1.069-2.32 1.002-5.233 1.125-8.07.132-3.045 1.394-6.114 2.255-9.115.874-3.044 3.837-3.987 6.925-3.52 1.834.277 3.603.777 5.277-.452 1.09-.8 2.455-1.69 1.998-3.166-2.331-7.523-.235-14.795.952-22.144a21.234 21.234 0 0 0-.159-7.958c-2.468-11.219 6.285-19.798 17.385-17.303 2.946.662 6.336-.394 8.291 2.987.223.385.914.362 1.354.053.65-.455.569-1.102.411-1.787-.91-3.957-4.877-5.906-8.876-4.455-3.01 1.09-5.915.142-8.734-.86a2.811 2.811 0 0 1-1.817-2.758 2.56 2.56 0 0 1 2.44-2.696c3.83-.557 4.9-2.912 4.545-6.401-.286-2.824 1.477-4.362 3.793-5.19 8.6-3.072 16.358-7.952 24.725-11.475 19.197-8.086 37.756-17.553 56.77-26.041 13.947-6.226 27.982-12.471 41.24-20.195z" class="cls-9"/><path d="M918.68 95.968c.304 2.885-2.429 2.447-3.781 3.076-8.242 3.833-15.88 8.828-24.675 11.693-3.766 1.227-7.035 4.56-11.004 6.203-18.168 7.522-35.72 16.367-53.516 24.682-8.054 3.763-15.976 8.03-24.313 11.293a20.649 20.649 0 0 1-4.083 1.446c-2.635.457-4.326 1.528-3.772 4.992.618 3.865-.196 7.337-5.577 7.025-2.114-.122-2.601 1.31-1.314 2.961 1.126 1.444 8.354 1.797 9.407.284 1.698-2.438 3.118-1.43 4.922-.293 2.515 1.586 3.65 4.268 5.375 6.455 1.004 1.272.548 2.839-1.129 3.744-1.738.939-3.432.996-4.128-1.02-.893-2.588-1.822-3.977-4.472-1.766a1.93 1.93 0 0 1-2.348.128c-4.51-3.077-7.47-.92-11.289 2.04a12.764 12.764 0 0 0-4.943 6.891c-.46 1.45-1.093 2.32-.35 3.96 2.004 4.423 1.696 9.06.052 13.509-.912 2.466-1.504 4.85-.25 7.202 1.205 2.258 1.34 4.058-1.068 5.48-1.38.813-1.106 1.464-.276 2.73 1.146 1.745 3.862 3.83 1.4 5.958-2.247 1.942-4.4 4.873-8.645 2.467-2.542-1.441-5.196.35-6.13 3.746-1.311 4.768-.202 10.143-3.595 14.38 5.881 5.058-1.011 9.794-.373 14.72.142 1.097-.361 2.577 1.125 2.985 1.748.48 1.394-1.282 2.004-2.106 1.432-1.936 2.76-.275 4.646.535-4.106 1.906-4.18 3.81-.446 5.573 1.835.867 2.865 1.893 2.38 4.255a3.603 3.603 0 0 0 2.968 4.478c2.197.155 1.02-2.286 1.341-3.56.292-1.158.956-2.078 1.998-1.487 1.521.862 2.667 2.684 1.489 4.18-2.095 2.662-3.594 4.43.575 6.835.687.396-.037 5.5 1.89 8.06 2.454 3.259 3.79 8.104 9.805 5.4 2.134-.958 1.863 1.12 1.118 2.313-1.974 3.159-1.366 4.736 2.29 6.243 2.944 1.214 4.479 4.666 8.381 5.405 1.753.332 3.525 5.161 2.62 7.171-1.962 4.362.716 6.196 3.285 7.521 3.827 1.974 6.814 3.98 6.629 8.814a2.08 2.08 0 0 0 2.513 2.337c3.79-.278 5.958.722 3.7 5.023a3.054 3.054 0 0 0 .36 3.304c5.76 7.971 10.587 16.956 17.68 23.48 3.429 3.153 3.574 6.708 5.811 9.624 2.187 2.85 6.504 3.96 6.871 8.379.02.246.479.676.695.654 10.037-1.02 5.953 9.183 10.089 12.96.948.868.635 2.212 2.942 2.473 3.74.422 4.794 4.848 6.37 7.49 3.177 5.32 3.934 12.272 11.936 13.23 1.58.189 1.728 1.44 1.322 3.075-1.094 4.416-.962 4.412 3.229 4.819 1.283.124 2.609 1.042 1.778 2.273-4.05 5.996 1.384 9.045 4.268 12.103a88.965 88.965 0 0 1 7.429 9.21c1.296 1.802 1.56 4.233 4.59 4.583 1.944.225 1.176 2.424 1.31 3.817.331 3.45 1.062 6.65 4.924 7.82 2.645.803 3.206 3.042 4.034 5.237 1.636 4.335 4.796 5.915 9.095 4.621 1.425-.428 3.202-1.009 2.826-2.905-.51-2.582-2.918-1.204-4.806-1.788.648-2.591 1.616-5.194 1.028-8.01-.28-1.339.64-2.308 2.136-1.81 1.43.474 3.15 2.364 3.628-.693.317-2.024.894-4.925-2.066-5.342-4.22-.594-3.882-3.372-3.778-6.23.145-3.958 3.06-6.594 5.284-9.24 1.418-1.688 4.522-1.781 4.696 2.113a14.035 14.035 0 0 0 .727 4.421c1.454-2.492 4.557-4.395 1.734-8.116-.537-.709-3.106-5.54 2.467-4.052 1.515.404 1.828-1.296 2.33-2.14 1.148-1.935.72-4.526 2.482-6.322.287-.293.006-1.77-.168-1.8-5.207-.9-1.723-5.436-3.26-7.94-.95-1.545-.099-3.545 2.45-2.41 1.313.584 2.577 1.544 3.007-.544.421-2.045.93-4.362-1.554-5.749-4.996-2.789-5.673-6.004-2.29-10.7a13.598 13.598 0 0 0 1.324-2.1c.972-2.065 2.077-3.926 4.82-3.36 3.068.633 1.543 3.166 1.934 4.899.172.76.246 1.541.457 2.911 2.446-3.158 3.925-5.41 1.845-9.218-1.588-2.907-1.552-6.708-2.204-10.118-.725-3.795.7-4.915 4.235-3.338 1.622.723 3.25 1.432 4.814 2.12 5.306-13.329 8.522-27.322 14.267-40.522 2.016-4.632 2.829-10.199 4.558-15.24 2.144-6.251 4.228-12.522 6.388-18.768 2.52-7.288 5.155-14.537 7.626-21.842 2.322-6.865 4.458-13.793 6.744-20.67 2.385-7.175 4.844-14.325 7.282-21.482 2.387-7.008 4.818-14.001 7.174-21.02 2.307-6.876 4.515-13.787 6.82-20.664 2.404-7.168 4.894-14.307 7.306-21.472 1.595-4.74 3.493-9.428 4.497-14.296.426-2.065 1.939-3.408 2.178-5.369-2.096-3.331-.204-5.794 1.792-8.236a1.963 1.963 0 0 1 2.33.268c-3.3 9.916-6.622 19.825-9.896 29.75-4.368 13.242-8.619 26.525-13.07 39.74-4.47 13.268-9.516 26.354-13.603 39.735-6.07 19.872-12.868 39.494-19.404 59.206q-25.532 76.996-51.213 153.942-20.48 61.524-40.985 123.04c-.518 1.552-1.281 3.022-1.93 4.53-1.776.47-2.119 2.22-2.463 3.48-3.599 13.155-8.851 25.772-12.55 38.89a15.143 15.143 0 0 1-2.989 5.659 2.068 2.068 0 0 1-1.002 2c-1.027-.655-1.901.161-2.833.32-4.793.819-5.604.192-5.484-4.652a5.537 5.537 0 0 0-.822-3.814c-2.754-3.353-4.24-7.783-7.043-10.74-8.69-9.166-14.212-20.504-22.006-30.229-2.996-3.737-5.522-7.942-10.063-10.174a5.097 5.097 0 0 1-2.443-3.622c-.606-2.347-1.517-4.377-3.92-5.44a2.901 2.901 0 0 1-1.847-2.236c-.61-6.87-5.9-10.509-10.204-14.782a19.929 19.929 0 0 1-3.921-5.06c-5.581-10.834-12.971-20.488-20.074-30.325a9.728 9.728 0 0 0-3.835-3.122c-1.09-.51-2.21-1.207-2.31-2.44-.565-7.073-6.643-10.883-9.67-16.492a9.308 9.308 0 0 0-4.752-4.266c-.463-.187-1.114-.37-1.266-.753-2.046-5.164-7.895-7.713-9.17-13.403a14.097 14.097 0 0 0-3.411-6.58c-4.93-5.339-9.662-10.575-13.105-17.312-3.403-6.657-8.356-12.718-12.985-18.794-2.502-3.284-5.169-6.504-6.427-10.616-.866-2.832-3.042-3.17-5.639-2.281-2.323.794-3.907-.127-3.276-2.571.781-3.024-2.604-5.646-.497-8.616-.166-6.532 3.442-12.008 5.109-18.028 1.324-4.783 3.35-9.37 4.766-14.132a4.878 4.878 0 0 0-.626-4.75c6.386-20.103 12.712-40.224 19.17-60.303q19.412-60.353 38.936-120.669c4.77-14.78 9.64-29.53 14.186-44.38a7.946 7.946 0 0 1 4.535-5.396q30.764-14.235 61.542-28.438c16.792-7.791 33.526-15.709 50.33-23.477 6.583-3.043 13.284-5.833 19.931-8.738z" class="cls-10"/><path d="M1097.07 590.167c12.897 4.487 23.746 12.312 34.074 20.966 3.01 2.522 5.877 5.215 9.787 8.702 0-9.85.306-18.56-.118-27.236-.244-4.997 1.104-6.478 6.245-6.327 13.612.397 27.244.099 40.867.18 1.517.01 3.322-.863 4.586.823-2.555 1.107-5.235.429-7.842.447-12.824.09-25.65.131-38.472-.024-3.076-.037-4.045.873-3.972 3.957.196 8.244.048 16.495.097 24.742-.035-8.234.13-16.471-.062-24.702-.072-3.088.958-3.993 4.005-3.962 13.655.14 27.315.171 40.97-.013 3.607-.05 4.833 1.316 4.573 4.659-.09 1.158-.008 2.33-.008 3.496q0 132.409-.003 264.817a45.076 45.076 0 0 1-.119 5.491c-.189 1.542-.885 2.196-2.676 2.042-12.126-1.041-24.283-.258-36.425-.446-8.231-.127-10.449-2.147-10.724-10.633-.19-5.825.002-11.658-.074-17.487-.018-1.413.474-3.208-1.42-3.864-1.585-.549-2.3.733-3.147 1.804-1.46 1.846-3.717 2.737-5.454 4.288-1.855 1.655-3.776.745-5.505-.364a23.538 23.538 0 0 1-8.297-9.773 50.922 50.922 0 0 0-9.83-13.735c-3.877-3.884-3.965-7.768-.193-11.829 4.187-4.509 8.622-8.786 13.021-13.089 4.935-4.827 7.844-11.083 11.889-16.536.696-.939.488-2.246.339-3.409-.262-2.46.988-4.508 1.89-6.634a91.099 91.099 0 0 0 7.251-36.499c-.18-22.358-6.012-43.106-20.143-60.964-13.44-16.984-29.591-30.366-51.025-35.678-22.362-5.54-44.262-3.752-65.25 6.323-2.99 1.435-5.734 3.414-9.028 4.203-3.383-.047-5.982 1.753-8.49 3.685-2.665 2.055-5.25 1.34-6.055-1.41-1.872-6.39-6.735-10.637-10.332-15.757-3.82-5.44-7.014-11.312-11.534-16.294-3.023-3.334-2.761-5.793.847-9.043a71.655 71.655 0 0 1 17.908-11.257 128.468 128.468 0 0 1 30.965-10.276 167.603 167.603 0 0 1 39.157-2.55c7.762.405 15.521.556 23.142 2.331 6.375 1.485 12.78 2.914 18.867 5.322 1.901.752 3.857.862 5.718 1.513z" class="cls-11"/><path d="M1134.083 772.27c2.933 6.115-3.216 8.693-5.264 12.716-4.581 8.996-13.036 14.818-19.808 22.026-3.69 3.926-3.23 5.871.593 9.975 3.793 4.073 7.69 8.32 9.466 13.832 1.085 3.37 3.92 5.48 5.925 8.063 2.774 3.574 9.553 2.122 11.605-2.296 1.09-2.344 2.393-2.417 4.226-2.206 2.49.288 1.939 2.318 1.956 3.877.056 4.996.498 10.052-.122 14.97-.538 4.263 2 7.54 2.376 11.448.221 2.296 2.606 1.567 4.136 1.574 11.824.053 23.648.011 35.472.047 1.956.006 4.054-.557 6.16 1.851v-7.238q0-133.145.102-266.289c.008-4.855-.9-6.673-6.226-6.482-12.308.442-24.645.309-36.963.046-4.091-.087-5.1 1.31-4.99 5.149a182.321 182.321 0 0 1-.903 25.856c0-9.73-.015-19.459.008-29.189.008-3.542 2.738-2.685 4.715-2.692 15.321-.052 30.643-.031 45.964-.033.1 1.82.286 3.64.287 5.46q.025 135.554.002 271.108c0 1.81-.268 3.618-.41 5.427-4.238 1.067-8.546.414-12.816.457-10.932.11-21.866.058-32.799.013-1.619-.007-3.318.45-4.857-.486l-.106-.059c-1.098-9.669-.14-19.374-.562-29.051-.056-1.278 1.412-3.48-1.434-3.842-15.19 15.488-32.65 27.485-53.531 33.88-51.6 15.804-116.382 2.29-156.136-47.371-19.106-23.868-29.365-51.002-31.722-81.403-3.04-39.207 5.82-75.066 29.944-106.451 21.887-28.475 50.043-47.41 85.989-53.313 5.296-.87 10.7-2.164 16.201-1.469 1.618-.735 3.354-.178 5.014-.457 7.066-1.616 14.132-.082 21.116.444 13.954 1.05 27.565 4.064 40.378 10.005-2.654.192-4.992-.707-7.531-1.427-6.485-1.838-13.157-3.271-19.746-4.756-14.85-3.347-29.712-1.535-44.474-1.247a55.749 55.749 0 0 0-17.537 2.989c-5.365 1.932-11.55 1.837-16.725 4.589-5.757 3.06-12.751 3.724-17.642 8.019-3.817 3.353-9.092 4.254-12.27 8.46-1.806 2.388-2.242 4.238.079 6.416 5.643 5.295 8.544 12.595 13.368 18.47 3.667 4.466 7.56 8.597 8.995 14.533.566 2.34 2.44 1.614 4.23.177 2.545-2.043 5.08-4.73 8.994-3.476-1.698 3.255-5.106 4.619-7.706 6.859-13.548 11.675-24.915 24.91-30.994 42.07-.72 2.03-1.299 4.148-2.965 5.693-4.802 12.967-6.446 26.249-4.055 39.937a6.167 6.167 0 0 1 .644 1.427c.893 5.43.016 11.001 2.142 16.418 1.054 2.685 1.512 5.583 3.45 7.885 3.746 4.556 5.24 10.323 8.313 15.286 15.037 24.29 35.818 40.62 64.223 45.854 29.436 5.425 55.725-1.395 78.307-21.612a109.589 109.589 0 0 0 22.092-26.823c.89-1.534 1.697-3.325 3.822-3.637z" class="cls-10"/><path fill="#18a8bd" d="M1766.923 838.326c-9.75 6.697-20.315 12.022-30.466 18.043-16.27 9.65-32.712 19.007-48.984 28.653-2.782 1.649-4.849 1.716-7.691.068q-64.053-37.14-128.278-73.981c-3.823-2.19-5.15-4.56-5.135-8.988q.267-73.955.012-147.91c-.011-3.871 1.21-5.893 4.534-7.774 22.077-12.488 44.025-25.205 66.02-37.839a4.762 4.762 0 0 1 .926-.305c3.343 2.433.003 3.58-1.199 4.328-3.799 2.369-7.27 5.288-11.497 6.983-2.19.878-3.237 2.5-1.552 4.71 7.666 10.057 14.34 20.824 22.122 30.805 2.275 2.917 4.048 2.367 6.67.716 11.947-7.521 23.824-15.18 36.67-21.148 3.806-1.768 3.813-1.753 5.835.865-1.35 1.804-3.36 2.678-5.234 3.745-21.974 12.515-43.612 25.607-65.463 38.332-3.15 1.834-4.143 4.316-4.134 7.816.077 28.462.154 56.925-.06 85.385-.037 4.898 1.9 7.671 5.9 9.92 14.213 7.995 28.402 16.036 42.425 24.363 10.445 6.202 21.203 11.873 31.47 18.366 2.74 1.733 4.794 1.224 7.327-.193 18.88-10.563 37.472-21.623 56.258-32.346 1.694-.967 3.247-2.452 5.485-1.832 1.786 5.241-3.018 5.609-5.616 7.614a11.247 11.247 0 0 1-2.034.87c-7.735 4.83-15.959 8.962-23.472 14.01-9.103 6.116-19.26 10.258-28.205 16.522-3.877 2.715-7.94 2.376-11.764.066-9.528-5.754-19.21-11.24-28.82-16.85a65.046 65.046 0 0 0-8.227-4.498 1.488 1.488 0 0 0 .258 1.984c10.436 12.555 18.539 26.786 28.667 39.599 6.357 8.041 11.9 16.771 18.131 24.972 2.395 3.151 4.356 3.826 7.888 2.024 9.331-4.76 18.076-10.545 27.272-15.484 13.136-7.055 25.352-15.757 39.083-21.728a5.16 5.16 0 0 1 2.855-.87 2.67 2.67 0 0 1 2.023.987z"/><path d="M1453.145 854.4c-63.383 37.185-122.492 30.09-178.207-17.023v5.645c0 37.652-.072 75.305.096 112.956.019 4.286-.886 5.713-5.443 5.599-13.32-.335-26.66-.364-39.978.005-4.952.138-5.965-1.384-5.96-6.112q.207-178.68.113-357.361c0-11.703.004-11.703 11.624-11.705 11.829-.002 23.658-.062 35.486.062 1.592.017 4.321-1.355 4.435 2.13-.052 9.198.046 18.396-.074 27.592-.02 1.565 1.095 3.782-1.576 4.513-2.725-1.02-2.133-3.479-2.176-5.489q-.219-10.24-.017-20.486c.068-3.562-1.186-5.149-4.913-5.11q-16.738.172-33.479-.002c-3.734-.04-4.931 1.574-4.926 5.114q.073 53.717.025 107.435a10.29 10.29 0 0 0 2.282 6.945 19.028 19.028 0 0 1 3.685 5.885c1.37 4.288 3.46 7.3 7.96 8.612 1.677.489 1.858 2.616 2.479 4.148 1.613 3.975 2.377 8.307 5.595 11.585 1.89 1.925.46 4.037-.523 5.95 3.885-.416 5.23 1.765 4.497 5.138-.557 2.557.17 3.122 2.562 3.38a14.721 14.721 0 0 1 10.922 7.125c3.43 5.303 7.567 10.16 10.222 15.958 1.15 2.513 4.087 3.345 5.363 5.821 2.156 4.184 5.967 7.66 5.246 13.029a2.726 2.726 0 0 0 .997 2.231 8.362 8.362 0 0 1 2.847 7.591 2.597 2.597 0 0 1 2.054-3.31c2.142-.534 3.013 1.06 3.601 2.649 1.017 2.748 3 4.812 4.841 6.925 6.85 7.858 12.514 16.671 19.65 24.293a5.837 5.837 0 0 1 1.495 3.098c-.011 2.97 1.388 5.37 3.053 7.694.859 1.198 2.254 2.285 2.22 3.798-.074 3.332.378 5.88 4.56 6.03a1.538 1.538 0 0 1 1.104 2.605c-4.115 4.038.409 6.157 1.332 10.107 1.63-2.855.892-6.64 4.938-5.295 5.983 7.395 13.858 9.499 23.026 8.735a115.578 115.578 0 0 1 15.39-.027 93.132 93.132 0 0 0 22.6-1.981c9.603-.951 18.502-4.413 27.504-7.592 5.798-2.048 10.8-5.574 16.32-8.114 1.743-.492 3.135-1.962 5.098-1.853a2.62 2.62 0 0 1 2.05 1.077z" class="cls-13"/><path d="M1272.804 620.278c3.053-.638 1.883-3.1 1.96-4.863.396-8.936-.587-17.9.547-26.822.121 9.26.185 18.517.455 27.768.026.893-1.624 3.957 1.929 2.711 6.683-4.13 13.108-8.572 18.007-14.863 15.329-11.766 32.786-18.688 51.669-21.89 29.39-4.984 57.855-1.075 85.435 9.958 1.289.738 2.808.987 4.016 1.896a146.143 146.143 0 0 1 39.249 27.907c21.985 21.964 35.795 48.213 40.793 79.028 2.039 12.568 2.298 25.18 1.943 37.846-.088 3.158-.072 6.337-1.154 9.377-.391 1.313-1.211 2.557-.655 4.025l-.23 1.922c-.053.68-2.383 1.196-.146 2.04-2.302 13.701-6.021 26.947-12.649 39.255-.49-.137-1.05-.336-1.232-.775-5.9-14.178-17.033-24.743-25.53-37.125-3.575-5.209-7.354-10.234-11.274-15.18.198-5.361 2.618-10.617 1.373-15.99-2.373-10.243-.915-21.317-6.675-30.807a11.25 11.25 0 0 1-3-4.507c-10.613-24.671-27.775-42.993-52.437-54.032a9.894 9.894 0 0 1-3.633-2.557c-3.368-3.613-8.356-3.693-12.456-4.34-10.46-1.647-20.988-5.064-31.813-1.073-3.784 1.395-8.059.719-12.167 1.988-13.991 4.323-26.64 10.728-37.269 20.918-1.899 1.822-3.419 4.145-6.114 5.003-1.38.14-2.622.044-3.282-1.5-4.94-11.553-14.12-20.106-21.318-30.062a5.828 5.828 0 0 0-3.18-2.189c-1.406-.438-2.189-1.509-1.162-3.067z" class="cls-14"/><path d="M1734.962 600.143c12.892 6.153 24.862 13.947 37.25 20.992 15.477 8.801 30.695 18.056 46.208 26.79 2.838 1.598 2.489 3.55 2.491 5.764q.041 37.209.02 74.417c0 24.972-.039 49.944.04 74.915.011 3.203-.27 5.39-3.922 6.842-4.339 1.724-8.194 4.667-12.259 7.082a2.193 2.193 0 0 1-.612-1.462c.605-3.335 3.45-4.393 5.996-5.437 5.552-2.279 7.709-6.138 7.35-12.136-.405-6.807-.094-13.657-.093-20.489a8.67 8.67 0 0 0-2.254-6.37 206.514 206.514 0 0 1-23.518-31.393c-5.411-8.66-13.607-15.072-18.583-24.888-1.237 2.122-.88 3.57-.882 4.898-.03 17.495.04 34.99-.085 52.485-.017 2.391 1.081 5.597-2.723 6.575a1.86 1.86 0 0 1-1.286-.98c-1.016-2.392-.714-4.922-.716-7.403-.024-27.65-.125-55.302.082-82.95.04-5.36-1.818-8.501-6.517-11.078-14.308-7.847-28.424-16.05-42.491-24.328-2.116-1.245-4.552-2.186-5.716-4.63.667-2.712 2.574-1.996 4.23-1.365 2.481.946 4.754 2.376 7.15 3.4-3.39-8.168-9.567-14.633-13.947-22.274a87.925 87.925 0 0 0-11.164-15.652c-2.568-2.8-5.508-5.432-5.359-9.764.056-1.623-1.324-2.078-2.42-2.847-7.38-5.179-11.083-13.247-16.795-20.062-3.004 1.858-6.685 4.39-10.36 6.928-2.487 1.715-4.959 2.72-7.613.356 7.964-5.934 17.188-9.787 25.378-15.35a2.85 2.85 0 0 1 3.292.114c16.308 10.26 33.777 18.547 49.806 29.282-2.166 2.42-4.295-.046-7.35-.105 5.586 7.507 9.722 15.332 15.655 21.927 2.342 2.603 4.707 5.145 6.067 8.446 2.196 5.331 6.49 9.126 10.172 13.291 6.627 7.497 11.815 16.014 17.408 24.196q12.661 18.52 26.71 35.946c3.406 4.231 4.03 9.914 8.01 13.704 1.605 1.529 2.935 5.12 4.94 3.947 2.16-1.264 1.797-5.393.48-7.316-2.415-3.522-4.088-7.706-7.329-10.525a43.728 43.728 0 0 1-11.783-16.434c-.844-2.015-1.603-4.267-3.526-5.334-10.658-5.915-13.33-17.615-19.586-26.707-1.425-2.07-.457-4.47-.327-7.184-4.663 1.612-7.242-.474-8.908-4.281a7.941 7.941 0 0 0-1.696-2.457c-7.608-7.508-12.687-16.794-18.605-25.536-2.54-3.752-5.122-8.47-10.87-9.981-4.254-1.119-.435-3.72.56-5.579z" class="cls-15"/><path d="M1034.806 152.278c-.376 2.74-2.61 5.012-2.019 7.997-5.766-3.446-8.475-9.523-12.215-14.622-12.312-16.788-23.813-34.162-36.513-50.678-5.019-6.528-9.776-13.257-14.846-20.158 19.478-8.024 37.687-17.927 56.435-26.702 1.086-.509.878-1.202.113-1.876 13.664-7.347 28.062-13.151 41.996-19.93 1.617-.788 3.336-1.364 5.008-2.038 1.285-.788 3.123-.547 3.977-2.136l.984-.844c1.121 1.58 1.038 3.434 1.194 5.234l-.336 1.734c-1.738.968-.997 2.902-1.672 4.285a10.623 10.623 0 0 1-2.026 5.846c-3.815 5.665-4.823 12.412-7.056 18.67-5.86 16.42-10.923 33.11-16.909 49.503-4.697 12.868-8.592 26.048-12.807 39.1a18.766 18.766 0 0 1-3.308 6.615z" class="cls-16"/><path fill="#18aabe" d="M1804.707 816.28q.05.332.084.665l-37.868 21.381-2.119-.064c-1.4-1.108-2.344-1.315-2.003 1.014a159.167 159.167 0 0 1-14.077 7.638c-13.258 6.85-25.597 15.27-38.93 22.006-4.99 2.521-9.965 5.482-14.91 8.305-2.898 1.655-4.86 1.544-7.012-1.544-4.715-6.768-10.365-12.91-14.81-19.835-7.961-12.402-17.91-23.39-25.221-36.247-1.856-3.263-4.66-6.006-7.151-8.881a8.242 8.242 0 0 1-2.145-3.848c-.151-.775-.84-1.653.145-2.184a2.238 2.238 0 0 1 1.78.277c11.147 6.459 22.312 12.889 33.387 19.47 7.179 4.265 10.469 5.936 17.607.88 5.29-3.748 11.998-6.415 17.811-9.667 5.865-3.28 11.84-6.807 17.476-10.621 4.588-3.105 9.831-5.1 14.053-8.737a2.67 2.67 0 0 1 .492 3.192c-.049.245-.377.375-.43.532-.212.628.625.579.096.173a1.228 1.228 0 0 1 .12-.34c.871-1.075.55-2.68 1.722-3.567.045-2.395 2.43-1.602 3.494-2.58 1.263-1.159 2.858-2.19 2.508-4.313a40.373 40.373 0 0 1 19.858-11.249l.21.21c1.917 1.67-.686 4.77.567 5.244 2.4.907 3.148 2.79 4.358 4.45 3.606 4.949 7.343 9.799 11.01 14.7 3.02 4.04 4.927 8.72 8.215 12.713 2.226 2.704 3.3 2.734 5.778 1.428 1.83-.965 3.73-2.5 5.905-.6z"/><path d="M1656.464 586.079c5.31 2.051 8.104-2.847 11.841-4.705 2.478-1.232 4.851-3.19 7.409-4.619.123.254.228.525.378.769 4.73 7.724 8.678 16.181 17.195 20.615 1.69.88 2.404 1.083 1.734 2.989-.97 2.762.733 4.761 2.317 6.72 2.721 3.368 5.196 7.258 7.902 10.212 5.12 5.592 7.302 12.804 12.412 18.296 3.869 4.159 6.24 9.71 9.69 15.31-5.93-.696-9.337-5.743-14.685-5.133-.205-.11-.41-.218-.619-.322a22.67 22.67 0 0 0-8.29-6.052c-5.997-2.367-10.89-6.67-16.71-9.399-3.45-1.617-5.585-1.071-7.31 2.114-1.295 1.505-2.464 3.312-4.915 2.11-1.942-1.448-3.177.097-4.84.852-13.252 6.016-25.465 13.782-37.577 21.751-2.786 1.833-4.969 2.189-7.454-1.447-7.462-10.916-15.55-21.403-23.311-32.117-2.075-2.863.384-4.74 2.352-5.367 4.66-1.486 7.887-5.247 12.292-7.08.723-.302 3.247-1.17 1.585-3.283 12.574-7.916 25.409-15.379 38.604-22.214z" class="cls-18"/><path d="M1466.819 743.278c4.296 2.186 6.32 6.401 9.001 10.04 4.288 5.82 8.312 11.873 13.02 17.334 4.745 5.503 7.822 12.132 12.719 17.533 1.588 1.751 1.653 4.885 2.414 7.388-4.34 10.028-9.763 19.372-17.268 27.404-3.63 1.342-5.064 4.946-7.498 7.482a173.881 173.881 0 0 1-23.248 20.86c-1.635 1.184-3.62 1.65-5.155 2.943l-4 2.012a16.898 16.898 0 0 1-7.483-8.256c-2.372-5.358-6.317-9.649-10.026-14.067-3.507-4.176-6.131-8.992-9.742-13.089a5.058 5.058 0 0 1-1.345-4.124 3.863 3.863 0 0 1 .664-1.315c3.04-3.824 7.481-5.966 11.26-8.817 5.756-4.341 10.206-9.616 14.995-14.86 6.346-6.95 10.1-15.1 13.994-23.231 3.318-6.928 6.335-14.15 6.467-22.112a3.71 3.71 0 0 1 1.23-3.125z" class="cls-16"/><path d="M1034.806 152.278c1.58-5.243 3.04-10.525 4.768-15.719 2.286-6.872 5.375-13.535 7.02-20.546 1.612-6.876 5.136-12.908 7.128-19.574 2.12-7.092 4.692-14.049 7.08-21.06 2.438-7.16 4.954-14.293 7.318-21.476 1.663-5.051 3.355-10.113 4.6-15.275.757-3.143 1.33-1.305 2.166-.237q-8.273 25.204-16.549 50.408-9.866 29.981-19.782 59.946a33.488 33.488 0 0 1-1.646 3.562l-2.103-.03z" class="cls-9"/><path d="M868.806 650.278c.408-5.37 2.512-10.52 4.693-15.05 3.862-8.02 4.202-17.17 9.08-24.799 1.484-2.321.53-5.974 2.303-8.651 1.2-1.813 1.603-.978 1.926.473q-6.983 21.512-13.972 43.024c-.558 1.715-.781 3.573-2.046 5.002l-1.984.001z" class="cls-19"/><path d="M1450.804 854.262c2.083-3.24 5.587-4.99 8.488-7.129a107.963 107.963 0 0 0 23.645-23.572c1.205-1.661 2.344-1.484 3.768-.584-5.368 6.627-10.618 13.27-17.382 18.708-5.348 4.3-10.37 8.998-16.178 12.715q-1.17-.07-2.341-.138z" class="cls-20"/><path d="M1295.702 604.21c-.145 4.795-4.413 6.663-7.293 9.017-2.437 1.992-5.285 3.617-7.527 5.96-1.146 1.197-2.176 1.36-3.187-.115a72.972 72.972 0 0 1 18.007-14.863z" class="cls-21"/><path fill="#2991b2" d="M664.526 1022.373c.596.215 1.602.292 1.728.666 2.246 6.684 4.389 13.402 6.546 20.116 1.19 3.7 2.804 7.33 1.916 11.381a307.073 307.073 0 0 1-10.19-32.163z"/><path d="M1141.918 869.254l50.471.016c-1.97 1.355-4.184.607-6.266.62q-19.705.122-39.41.02c-1.602-.006-3.338.565-4.795-.656zm-2.102-32.952c3.416-1.164 1.894 1.744 1.906 2.667.134 10.075.088 20.151.09 30.227-1.803-2.35-.762-5.058-.824-7.577-.169-6.938-.007-13.882-.103-20.822-.021-1.518.752-3.355-1.069-4.495z" class="cls-11"/><path d="M1516.998 752.356c-4.708-2.144 1.376-2.531.655-4.025.226 1.414.392 2.818-.655 4.025zm-.376 3.961c-.669.03-.997 1.914-1.64.673-.649-1.248-.005-2.584 1.786-2.712l-.146 2.04z" class="cls-16"/><path d="M1076.742 22.135c-.183 2.84-2.333 2.016-3.977 2.136a8.337 8.337 0 0 1 3.977-2.136z" class="cls-5"/><path fill="#bceced" d="M1436.822 594.173a5.888 5.888 0 0 1-4.016-1.896c1.721-.178 3.18.201 4.016 1.896z"/><path d="M1035.575 579.718c-1.59 1.03-3.331.415-5.013.458 1.586-1.085 3.29-.873 5.013-.458z" class="cls-11"/><path d="M1076.912 32.544c.053-1.625-.932-3.656 1.672-4.285-.299 1.53-.49 3.1-1.672 4.285z" class="cls-5"/><path d="M566.782 1109.54c-.089 1.25-.13 2.515-1.118 2.252-2.427-.646-3.654-2.698-4.426-4.934-.36-1.047.462-1.638 1.372-1.383a6.662 6.662 0 0 1 4.172 4.065zM134.914 328.852c-2.028-.984-3.237-2.307-2.38-4.547.122-.319.985-.715 1.197-.582 2.109 1.318.463 3.439 1.183 5.129zm288.212 585.441c1.706.896 3.532.812 3.486 2.969-.01.477-.889 1.404-1.164 1.333-1.923-.493-2.163-2.056-2.322-4.302zm17.724 24.1c-1.748-.518-2.45-1.211-2.197-2.64 1.891-.103 1.926 1.293 2.197 2.64zm-5.158-7.855c-.024.687-.197 1.178-.776.935a1.613 1.613 0 0 1-.767-1.01.6.6 0 0 1 .807-.747c.34.119.552.603.736.822z" class="cls-1"/><path d="M1918.809 600.288c1.588 2.593 3.293 2.642 4.913.096 1.015-1.595 2.104-2.668 4.027-1.49 1.935 1.185 1.872 2.665 1.027 4.687-.693 1.657-3.49 5.513 2.183 3.595.93-.314 1.444.184 1.5.718.53 5.033 5.585 6.2 8.094 9.554 2.985 3.99 3.024 6.655-.616 9.744-.843.715-2.612 1.948-1.409 2.442 2.398.984 2.575 4.693 5.445 4.324 2.034-.26.93-1.958.694-3.204-.409-2.162 1.305-1.418 2.249-1.388 1.488.046 2.263.972 1.373 2.307-.819 1.229-1.99 2.173.515 2.605a17.8 17.8 0 0 1-12 3.998c-3.395-.435-6.079-1.53-7.88-4.977-1.717-3.285-3.214-3.031-5.389.423a3.409 3.409 0 0 1-4.012 1.801c1.29.517 3.004-.255 3.945 1.33 1.374 2.313-1.112 5.312 1.336 7.425-1.271 3.448-4.388 5.332-6.81 7.738-6.787 6.744-10.48 14.933-13.412 23.952-3.636 11.188-3.93 22.487-3.802 33.965.035 3.11.475 6.262-1.604 9.13a4.249 4.249 0 0 0-.16 3.836c2.882 4.652 1.72 9.714 1.733 14.593.094 34.816-.134 69.635.196 104.45.07 7.488-3.42 14.438-2.232 21.96.319 2.023-1.347 2.37-2.993 2.369-4.497-.006-8.996-.036-13.493.02-1.853.023-2.852-.467-3.626-2.47-2.3-5.954-7.24-10.327-10.123-15.976-.146-.287-.415-.75-.61-.741-6.937.312-6.489-4.991-7.262-9.42a2.688 2.688 0 0 0-1.092-1.586c-5.151-3.364-4.76-8.491-4.755-13.72q.098-113.946-.077-227.892c-.012-5.132 1.339-6.518 6.386-6.326 10.48.4 20.987.222 31.48.062 3.242-.05 4.41.968 4.316 4.27-.2 6.991.056 13.995-.122 20.987-.064 2.49.302 4.68 2.59 5.706 2.415 1.082 2.866-1.812 4.272-2.8a26.769 26.769 0 0 0 3.2-3.107c1.13-.798 2.466-.073 3.72-.509-.087-1.17-1.69-1.312-1.715-2.489a28.857 28.857 0 0 1 10-9.992z" class="cls-6"/><path d="M1924.804 644.278c-1.22-1.353-4.765-1.343-2.03-4.876 1.549-2-.684-3.09-2.794-3.115-2.188-.026-3.947-.415-3.18-3.904 3.278 2.926 5.74 4.115 6.324-1.69.226-2.252 3.326-1.94 4.45-.746 2.867 3.042 5.288 6.496 9.23 8.329-1.128 1.078-2.128 2.41-4 2.002a13.788 13.788 0 0 0-8 4z" class="cls-4"/><path d="M1924.804 644.278c1.433-3.8 3.87-5.593 8-4-1.908 2.852-4.782 3.77-8 4z" class="cls-6"/><path d="M1908.809 610.28c1.154 1.348 4.968.445 3.98 2.865-.97 2.381-3.905 1.051-5.985.133a3.026 3.026 0 0 1 2.005-2.998z" class="cls-4"/><path d="M700.802 424.278c.066 3.515 3.658 6.478.87 10.722 2.909-.365 4.652-2.632 7.163-1.244 2.43 1.343 2.29 3.782 3.328 5.747a59.75 59.75 0 0 0 6.7 9.774c4.383 5.358 7.24 11.806 12.143 16.763 1.988 2.01 1.717 4.898 3.05 7.245 2.376 4.185 6.758 6.254 9.512 10.044a27.844 27.844 0 0 1 3.916 7.387c.724 2.088-.818 6.543 4.436 4.112.818-.379 1.76 1.678 1.49 3.13-.636 3.42 1.06 5.394 4.127 6.24a6.066 6.066 0 0 1 2.758 1.849c3.895 3.791 7.98 8.658 9.444 12.838 2.25 6.423 7.1 9.998 10.584 14.845 4.627 6.437 9.966 12.651 13.427 19.576 4.315 8.637 11.34 14.703 16.851 22.132 1.204 1.623 2.798 2.897 1.631 5.231a1.448 1.448 0 0 0 .864 2.05c4.585.362 4.579 4.144 5.432 7.173.972 3.447 4.745 3.238 6.824 5.747 6.435 7.762 11.859 16.15 17.372 24.51 2.83 4.291 6.922 7.689 9.62 11.832 2.825 4.34 5.543 8.859 8.499 13.147 1.659 2.407-2.907 4.99.48 6.608 1.895.904 4.449-1.737 6.481.542-3.878 10.395-7.473 20.94-10.585 31.533-4.139 14.093-9.466 27.724-13.94 41.653-2.4 7.473-6.005 14.67-6.65 22.76-.264 3.32-2.52 6.393-4.062 9.279-3.585 6.708-3.356 14.399-6.822 21.166-3.198 6.242-4.676 13.364-6.92 20.095-1.378 4.129-2.69 8.282-4.19 12.367-.981 2.676-2.905 2.729-4.554.773-1.501-1.78-3.557-3.131-4.798-4.894-4.917-6.985-11.299-12.749-14.797-21.03-2.492-5.9-8.03-10.522-12.249-15.68-.802-.982-2.041-1.006-3.224-1.056-.842-.035-1.897-.15-1.93-1.164-.302-9.603-6.876-15.316-13.175-21.114-2.641-2.43-2.91-5.917-4.698-8.693-5.79-8.992-13.492-16.797-18.897-25.734-6.127-10.128-15.367-17.826-20.239-28.892-2.182-4.957-6.166-9.556-9.761-14.087-6.983-8.8-15.335-16.577-20.23-27.268-1.69-3.692-5.273-7.902-8.691-11.474-5.463-5.708-10.716-12.042-13.955-19.486-1.867-4.292-6.266-6.584-7.933-11.016-.356-.947-2.073-2.796-4.044-.749-1.429 1.484-2.728.16-3.757-.987-1.278-1.425-.4-2.638.756-3.32 2.483-1.467 2.312-2.826.322-4.548-.82-.71-1.18-1.32-.737-2.867 3.725-13 7.987-25.811 12.238-38.646 2.464-7.44 5.445-14.79 6.802-22.718 1.181-6.898 4.378-13.45 6.675-20.157 2.348-6.858 4.66-13.728 7.032-20.578 3.473-10.03 6.067-20.332 9.395-30.42 2.457-7.446 5.843-14.685 6.952-22.692.359-2.589.33-6.543 3.664-8.356z" class="cls-19"/><path d="M773.16 210.837c-1.281-.483-2.403-1.1-2.262-2.752.102-1.19.745-1.839 1.93-1.558 1.53.364 2 1.567 1.895 2.997-.066.886-.454 1.574-1.564 1.313zm-5.57 10.771c-.877-.413-.763-1.09-.732-1.707.025-.502.183-1.06.842-.83a1.178 1.178 0 0 1 .764 1.56c-.136.393-.593.676-.875.977z" class="cls-9"/><path fill="#2999b4" d="M954.878 696.3a138.329 138.329 0 0 0-3.892 41.865c-2.205-.012-2.178-1.574-2.177-3.126.001-6.486-.983-13.17.276-19.4 1.244-6.153 1.776-12.556 4.137-18.476.175-.438 1.087-.582 1.656-.863zm-3.966 41.873c1.989 8.688 3.381 17.517 6.089 26.037-3.12-.495-3.417-3.69-3.847-5.49-1.598-6.702-3.337-13.507-2.242-20.547z"/><path d="M1118.611 841.79c-2.704-.462-3.965-1.692-3.65-4.02a1.572 1.572 0 0 1 2.212-1.327c3 1.245-.722 3.777 1.438 5.347zM972.597 645.401c2.68-1.686 4.908-.895 7.04-.821-2.054.507-3.983 1.955-7.04.821z" class="cls-11"/><path d="M1762.801 839.276c-1.478-1.294-1.221-2.829.338-3.369 2.031-.704 1.457 1.288 1.665 2.355a2.116 2.116 0 0 0-2.003 1.014zm-21.997-38.998v-3.99l2-.01c.094 1.714-.18 3.244-2 4z" class="cls-18"/><path d="M1272.804 620.278c.098.48.078 1.312.311 1.391 8.212 2.771 10.181 11.207 15.351 16.71 3.673 3.91 6.11 8.754 9.79 12.45 1.803 1.814-.078 4.59 2.548 5.452-.196 4.444-2.678 6.63-7.618 6.72-1.148-.496-2.315-1.546-2.042-2.567 1.075-4.014-3.02-7.334-1.279-11.42.528-1.238-.641-2.112-1.82-2.562-1.4-.533-2.763-1.155-4.15-1.718-4.943-2.006-6.192-1.46-7.783 3.293-1.46 4.36.593 9.02 4.402 9.988 5.445 1.384 5.762 2.118 2.885 6.743 2.025 1.336 4.953 1.273 6.14 3.923a3.858 3.858 0 0 1-.481 3.82c-4.217 4.83-6.2 10.953-9.405 16.363-2.807 4.74-4.17 10.546-5.066 15.933-1.261 7.59-2.916 15.182-2.572 23.111a125.803 125.803 0 0 0 6.952 35.744c4.464 12.985 12.393 23.516 21.443 33.623 7.398 8.261 15.602 15.646 25.319 20.332 9.008 4.345 18.088 9.197 28.857 9.689 5.765.263 11.742 1.367 17.612 2.172 4.338 3.69 7.315 8.556 10.488 13.126 5.674 8.173 11.767 16.018 17.637 24.036 1.218 1.663 3.113 3.129 2.481 5.646-13.292 3.293-26.851 1.297-40.262 2.112-9.583.583-17.308-1.894-22.738-10.11-.588-.291-1.342-.486-1.619-1.072-3.972-8.421-11.58-14.398-15.381-22.928a4.236 4.236 0 0 0-1.28-3.59c-7.316-6.51-11.904-15.286-18.498-22.453-2.59-2.816-6.52-5.339-6.52-10.15 0-1.14-1.175-1.474-2.293-.919-.822.41-1.392 1.005-.906 1.96.524 1.032 1.154 2.011 1.772 2.992.487.773.723 1.553-.071 2.216a1.111 1.111 0 0 1-1.918-.637c-.845-5.842-5.86-10.061-6.249-16.011-.252-3.861-4.73-11.185-8.472-12.954-1.346-.636-1.127-1.826-1.659-2.754-4.275-7.468-8.118-15.26-15.004-20.87a7.738 7.738 0 0 0-6.833-1.926c-3.63.688-4.74-.768-2.398-3.967.705-.962 1.344-1.774.733-3.132-2.478-5.513-3.837 1-5.987.274-.525-1.08.498-2.025 1.045-2.891 1.776-2.808 2.28-4.862-.939-7.427-3.006-2.395-3.215-6.85-4.202-10.356-1.145-4.065-3.9-4.338-6.7-4.616-2.226-.222-4.573.728-2.263-2.816 1.082-1.66.499-2.974-.792-4.415-4.74-5.295-6.846-11.196-6.753-18.69.426-34.315.287-68.639.075-102.958-.03-4.908 1.443-6.147 6.172-6.016 11.82.33 23.657.223 35.483.037 3.53-.055 4.598 1.121 4.524 4.581-.198 9.16-.067 18.325-.067 27.488z" class="cls-21"/><path d="M1402.804 872.276c-5.031-7.127-10.904-13.704-15.596-20.976-4.616-7.154-10.861-13.17-14.404-21.02a31.542 31.542 0 0 1 10.737-3.264 77.285 77.285 0 0 0 32.093-10.33c1.034-.6 1.98-1.272 3.165-.403 2.03 6.26 7.046 10.562 10.66 15.745 4.128 5.92 9.397 11.071 12.14 17.91 1.099 2.736 4.5 3.394 5.205 6.336-9.632 6.284-20.398 10.18-31.232 13.481-3.965 1.209-8.228 3.247-12.768 2.521zm-80-31.998c5.755 7.938 12.979 14.835 17 24-1.773.554-1.19 1.935-1.334 3.216-.102.9.423 2.524-1.367 2.726-1.377.155-2.065-.661-2.7-1.745-1.387-2.364-1.538-5.421-4.144-6.863.59-1.828 2.207-.98 3.008-1.727.443-.412 1.042-1.017 1.014-1.504-.067-1.186-1.064-.955-1.874-.832-4.296.652-5.106-1.892-4.19-5.143.495-1.755-.453-2.356-1.148-3.41-1.792-2.717-4.421-5.043-4.265-8.718z" class="cls-20"/><path fill="#18a8bf" d="M1484.239 642.53c8.863-1.568 9.751 5.341 12.07 9.076 6.15 9.904 10.5 20.903 13.976 32.007 1.237 3.95 1.486 8.997 2.918 12.689 3.03 7.812-.281 16.027 3.224 23.695 1.48 3.237.247 7.715-.277 11.793-33.072-48.568-69.869-94.25-102.656-143.07 6.56 1.86 12.999 3.454 19.07 6.293 9.618 4.497 18.589 10.104 27.524 15.773a23.21 23.21 0 0 1 3.622 3.416c6.463 6.46 12.863 12.984 19.398 19.37 2.43 2.374 4.92 4.505 1.131 8.958z"/><path d="M1402.691 634.549a176.842 176.842 0 0 0-28.115-5.641 101.542 101.542 0 0 0-11.547-.023c-17.812 1.683-34.1 7.157-48.512 18.19-20.723 15.866-34.983 36.03-39.358 61.812-5.233 30.841 1.483 59.19 21.811 83.659 12.855 15.474 28.665 27.218 48.14 32.091 23.081 5.776 45.941 3.652 67.425-7.647 2.018-1.061 3.846-2.539 6.196-2.892a1.538 1.538 0 0 1 .078 2.178l-.01.007c-13.83 9.599-29.906 11.821-45.995 13.998-8.802 1.432-17.182-2.034-25.89-2.405-5.303-.227-10.432-4.077-15.678-6.203a77.804 77.804 0 0 1-24.199-16.005 167.087 167.087 0 0 1-20.756-24.117c-6.801-9.411-9.94-20.136-12.894-30.647-3.164-11.26-4.331-23.545-2.194-35.195a141.37 141.37 0 0 1 4.909-20.568c2.905-8.463 7.235-15.757 11.93-23.058.807-1.255.689-2.504.772-3.805 1.304-2.019 2.598-4.046 4-6 4.336.228 6.196-2.847 8-5.997a3.391 3.391 0 0 0 2.451-1.5c8.95-10.78 21.17-16.735 33.498-22.438a44.375 44.375 0 0 1 17.804-4.128c4.185-.092 7.978-2.222 12.417-2.1a107.947 107.947 0 0 1 25.368 3.846c2.928.79 6.047.86 8.863 2.338a2.251 2.251 0 0 1 1.486 2.25z" class="cls-13"/><path d="M1418.809 816.276l-.078-2.178c4.154-3.97 9.13-6.871 13.481-10.638 18.224-15.777 28.84-35.624 32.777-59.235.818-1.616-.204-3.507.76-5.1l.008-18.72c-.973-1.585.032-3.461-.745-5.076l-4.558-20.909c3.362.508 3.457 3.838 4.063 5.876.762 2.562 1.99 5.495 1.942 7.829-.188 9.054 3.618 17.664 2.433 26.784-.38 2.923-3.162 5.162-2.074 8.37.833 12.857-5.472 23.547-10.662 34.519-4.83 10.208-12.172 18.698-20.354 26.258-5.087 4.699-11.29 8.188-16.993 12.22z" class="cls-20"/><path d="M1515.808 743.76c-.866-.126-.912-.801-.908-1.447.005-.639.027-1.421.91-1.417.872.005.902.78.906 1.421.004.645-.026 1.33-.908 1.443z" class="cls-16"/><path d="M1804.707 816.28c-3.058-.44-5.263 1.667-7.628 2.9-2.584 1.348-3.939 1.692-4.309-1.719a3.963 3.963 0 0 0-.766-2.283c-7.068-6.884-10.122-16.704-17.252-23.536a11.947 11.947 0 0 1-1.355-2.07c-3.117-4.642-3.119-4.64-8.405-3.646 1.73-2.576 4.663-4.257 3.883-7.58 2.925-.773 1.88-3.19 1.887-4.975.068-18.825.042-37.65.042-56.476v-5.608c3.313 2.75 4.782 5.721 6.826 8.21 7.978 9.711 15.849 19.53 22.65 30.09a127.809 127.809 0 0 0 17.622 21.888c1.282 1.266.873 2.79.88 4.227.044 8.33-.23 16.67.117 24.985.208 4.983-2.346 7.454-6.174 9.676-2.858 1.66-6.867 1.908-8.018 5.918zm-69.745-216.137l-1.398 5.115c3.607-1.535 6.008-.367 7.199 3.223a4.159 4.159 0 0 0 .975 1.69c7.2 6.78 11.154 15.798 16.603 23.788 3.12 4.576 8.343 7.438 10.705 12.848.931 2.133 2.896.139 4.37-.256.982-.264 2.028-.5 2.803.33a1.825 1.825 0 0 1-.282 2.67c-1.84 1.905-.973 4.03.105 5.503 3.17 4.334 5.533 9.176 8.186 13.756 2.933 5.064 5.941 9.331 11.248 12.04 1.774.904 2.583 3.294 3.473 5.303 2.863 6.46 5.765 12.952 12.462 16.55 1.177.632 1.18 1.91 1.665 2.942.773 1.648 1.321 3.94 2.67 4.685 5.78 3.199 2.486 8.296 2.7 12.448.108 2.093-2.348 1.867-3.656.275-3.168-3.856-6.78-7.156-8.576-12.28-2.63-7.512-9.4-12.497-13.728-19.1-4.537-6.922-10.476-12.93-14.94-19.89-5.349-8.34-10.977-16.458-16.75-24.491-3.816-5.31-8.687-9.665-12.195-15.388-6.962-11.357-15.989-21.345-23.172-32.831 3.509-2.899 6.21 2.362 9.51 1.053zm47.583 37.845c-6.853.409-7.226-.1-4.376-5.812a14.893 14.893 0 0 0 4.376 5.812zm30.621 13.819c1.641-1.903 3.314-1.916 4.923-.987 1.241.718-.111 3.44-.446 2.8-.971-1.864-2.632-1.342-4.477-1.813zm-26.178-14.064c-.186-2.098-.381-3.665 1.737-3.762.507-.023 1.51.665 1.493.983-.097 1.77-1.68 2.045-3.23 2.78zm11.262 1.685a1.387 1.387 0 0 1-1.603.743c-.614-.081-1.458-.135-1.236-1.067.173-.729.917-.822 1.571-.739.618.079 1.354.112 1.269 1.063zm3.29 2.555c-.264-.2-.732-.39-.926-.735-.348-.62.213-.857.66-.805a1.55 1.55 0 0 1 1.079.616c.273.516-.143.817-.813.924zm-8.2-2.42c-.517.263-.891.618-1.169.554-.355-.082-.633-.5-.944-.775.297-.252.627-.736.883-.7.369.052.683.483 1.23.92zm-24.924 189.543c-1.336-.077-1.63-1.005-1.532-2.07.311-3.388 3.201-4.747 5.426-6.563a1.39 1.39 0 0 1 2.04.734c.562 1.401-4.391 7.978-5.934 7.9zm-15.668-36.288c1.248 2.896.62 4.532-1.646 4.704-.997.076-3.178-1.3-2.622-2.27.978-1.708 1.519-4.547 3.811-4.675 2.382-.133.33 2.017.457 2.24zm7.814 41.935c.416 2.948-.624 3.023-1.643 2.975a4.03 4.03 0 0 1-3.726-3.354c-.331-1.285.993-2.114 2.26-1.93a3.796 3.796 0 0 1 3.109 2.31zm-9.992-34.221a1.348 1.348 0 0 1-1.382 1.63c-.783.077-1.762.156-1.914-.955-.133-.978.635-1.482 1.436-1.69a1.343 1.343 0 0 1 1.86 1.015zm-9.75-.255c-.074 1.481-.029 2.575-1.315 2.804-.688.123-1.426-.238-1.292-1.03.232-1.372 1.38-1.683 2.606-1.774zm39.463 27.08a1.407 1.407 0 0 1-1.636.814c-.613-.081-1.458-.134-1.236-1.066.174-.73.915-.814 1.572-.743.634.07 1.315.159 1.3.995zm-24.824-25.545c-.75.12-1.258.355-1.594.206-.276-.123-.347-.705-.51-1.083.288-.097.66-.353.846-.256a7.373 7.373 0 0 1 1.258 1.133zm31.955 15.135c-.418-.38-.924-.621-1.01-.966a.865.865 0 0 1 1.014-1.125 1.288 1.288 0 0 1 .834.938c.015.333-.477.69-.838 1.154z" class="cls-18"/><path d="M1712.642 646.457c-8.868-3.963-16.952-9.344-25.366-14.123-3.001-1.705-5.611-2.033-8.354.177 1.107-4.123 3.805-5.223 7.494-3.545 7.538 3.428 14.012 8.786 21.73 11.99a7.064 7.064 0 0 1 4.496 5.501z" class="cls-15"/><path d="M1912.64 623.304c-.367.48-.574 1.023-.936 1.162-.648.25-.89-.362-.75-.823.113-.373.554-.684.918-.914.085-.054.446.326.768.575z" class="cls-4"/><path d="M1292.804 662.278c.273 3.071-1 5.11-4 6-1.398-.524-2.845-.95-4.181-1.602-1.243-.606-3.25.145-3.68-1.928-.525-2.542 1.592-1.8 2.8-2.275a1.224 1.224 0 0 0 .623-1.681 2.715 2.715 0 0 0-2.4-1.487c-2.27-.33-4.71.752-6.25-2.592-2.235-4.851-1.265-9.252.615-13.59.695-1.604 3.082-.962 4.65-.749 3.305.45 5.946 2.81 9.307 3.414 1.669.3 1.752 2.26 1.213 3.797a19.604 19.604 0 0 1-1.361 2.611c5.337 2.185.212 7.135 2.664 10.082zm-9.145-24.624l-1.146.897c-.192-.34-.584-.721-.523-1.006.072-.335.537-.586.831-.873l.838.982zm79.371-8.769a22.394 22.394 0 0 1 11.549.024l-11.55-.024zm102.72 110.239c-.129 1.719.643 3.572-.76 5.1-.101-1.752-.275-3.516.76-5.1zm-.737-23.795c1.365 1.528.612 3.367.744 5.076-1.022-1.578-.847-3.332-.744-5.076z" class="cls-14"/></svg>