<svg xmlns="http://www.w3.org/2000/svg" role="img" viewBox="-13.80 -18.80 2017.60 1240.10"><title>Vapor IO (member) logo</title><defs><style>.cls-1{fill:#1a90b8}.cls-4{fill:#17b2c1}.cls-5{fill:#40a6b7}.cls-6{fill:#18b0c0}.cls-9{fill:#18a0bc}.cls-10{fill:#199bba}.cls-11{fill:#199ebb}.cls-13{fill:#199fbc}.cls-14{fill:#19a6be}.cls-15{fill:#19adbe}.cls-16{fill:#18a5bd}.cls-18{fill:#19acc0}.cls-19{fill:#1898b8}.cls-20{fill:#18a3bc}.cls-21{fill:#17a2bb}</style></defs><path d="M94.79734 231.27453c-5.12418-13.12686-8.91288-26.69571-13.23078-40.08821Q54.99747 108.77923 28.521 26.34227c-1.50274-.96151-.80778-2.85157-1.717-4.06383.41184-.62742-.972-2.15267 1-2 15.64651 7.3143 31.24987 14.7226 46.94677 21.92709q120.5727 55.33989 241.20106 110.55838a8.93811 8.93811 0 0 1 5.29141 5.95368q31.32285 96.25658 62.9112 192.42675 34.03427 104.01993 68.02527 208.054 34.01106 104.0223 68.02475 208.04388 33.85542 103.55914 67.69882 207.12207 34.45853 105.45438 68.90069 210.91413h-38c-1.34167-2.01465-2.07751-4.49842-5.02276-5.10132-1.52887-.313-2.275-1.8739-2.69135-3.37256a19.49437 19.49437 0 0 0-8.74518-11.69214c-4.09246-2.58081-3.85961-7.41955-5.2669-11.35193-.4494-1.25549.90014-2.39648 1.99743-3.2229 1.5207-1.145 2.82764-2.38122 1.91993-4.82824-2.30072.02392-3.10041 2.1228-4.49482 3.31311-.99127.84619-1.86981 2.22241-3.37591 1.37487-1.45844-.82067-1.22083-2.3518-.614-3.55883 1.93127-3.84168 1.249-5.71326-3.41767-4.99915-1.01.15454-2.25494.0509-2.62738-.98364-2.00323-5.56494-8.81085-6.77-10.94311-12.23084-.59937-1.535-2.02552-2.47632-3.4267-3.479-3.34778-2.39563-5.23138-5.71106-3.56836-9.89636 1.725-4.341.54877-8.158-1.44043-11.9552-1.06134-2.02613-2.28113-3.50464-4.45953-1.10608-2.55268 2.81067-4.714 1.44348-6.75257-.68323-3.0288-3.15955-4.336-7.44043-7.06787-10.84985-1.40454-1.75318-.05224-3.042 2.193-3.01319.76684.00989 2.2196 1.24768 2.08709-.733-.09839-1.46973-1.289-2.81946-2.731-1.88415-5.30671 3.44226-6.59809-.78443-8.387-4.13416-.46832-.87695-.64355-2.02185-1.51831-2.536-9.98007-5.86609-13.64252-16.41712-18.86276-25.73047-1.678-2.99377-4.72373-4.06238-6.66971-6.57471-2.16931-2.80059-4.30136-5.42474-4.86423-9.08484-.50158-3.262-4.3024-4.77362-4.72979-8.06518-.28379-2.18561-.89042-3.32367-3.33084-3.81384-1.86643-.37488-3.10227-2.41053-4.34916-3.97931-5.67236-7.13654-11.51278-14.30847-16.029-22.08911-2.6015-4.48188-4.19983-9.34028-8.20886-13.1142-1.381-1.29993-1.59619-3.95-3.52506-5.61548-1.99108-1.7193-1.00189-3.98968.93711-5.54291 1.6076-1.28766 3.16769-2.52209 2.27075-4.87506-.766-.60827-1.28769-.13281-1.80728.26441-4.76007 3.63891-4.80994 3.64758-5.66046-2.34876-.21289-1.50061-1.02765-2.2633-2.275-2.00561-3.74231.773-5.72134-.64447-6.18185-4.3805-.03885-.31506-.31449-.72955-.5857-.76373-7.45166-.94171-7.77978-9.64606-13.74234-12.602-2.35134-1.16565-1.82937-5.76593-2.74618-8.76654a4.80648 4.80648 0 0 1 .26752-1.3794c2.60437-4.60907-.06559-8.31445-2.15943-12.06128a1.64666 1.64666 0 0 0-2.90909-.31628c-2.29061 2.72681-4.569 3.194-6.98815.23987-2.48926-3.03967-1.36194-5.43347 1.55734-7.258-.72608-1.25622-1.92252-1.05047-2.7428-1.57769a3.00865 3.00865 0 0 1-.99741-.98121c-1.17843-2.65747-1.05285-6.54516-6.19717-4.39984-2.33637.97443-4.2543-1.96356-4.96954-4.07849-1.78327-5.27289-5.98606-8.67975-9.15546-12.87506-1.09769-1.45294-2.84174-2.688-2.51633-4.68317.70578-4.32721-1.59131-6.11517-5.29992-6.9566a3.08414 3.08414 0 0 1-2.29813-1.77c-2.17911-5.44806-7.08624-8.71814-10.45926-13.20831-.80044-1.06555-1.96966-1.99384-2.14889-3.31915-.84131-6.22-5.19236-10.42-8.97129-14.67005-7.09018-7.97436-13.00335-16.92126-20.55951-24.47912-1.70465-1.705-1.42755-3.63239-1.01257-5.59107.5571-2.62939-.19788-4.51642-2.60291-5.83453-4.20327-2.3039-5.94961-6.58875-8.20941-10.44892-1.12933-1.92907-.62213-3.5382 1.03672-4.82238 1.63278-1.264 3.09384-2.54193 2.43936-4.7555a1.08586 1.08586 0 0 0-1.51428-.17572c-1.63114 1.04694-2.83893 3.34278-5.05658 2.71924-2.689-.756-1.43848-3.295-1.65336-5.13977a1.89077 1.89077 0 0 0-1.548-1.732c-6.26224-1.41852-9.28027-6.48267-12.60455-11.19489-.67227-.95294-1.12778-2.254-2.16046-2.70636-8.93055-3.91119-10.74518-13.39819-15.81961-20.28747-3.00849-4.08454-2.63334-7.12934-.76978-12.28724-1.028 2.53754-2.24631 4.61078-5.49164 2.87885-3.19534-1.70532-4.9378-5.55225-3.46289-8.15064.46729-.82324 1.67224-1.38476 1.00647-2.51611-.87787-1.4917-1.97015-.43939-3.02835-.08856-3.82645 1.26849-5.40714-1.77228-6.23785-4.2027-1.44449-4.22626-4.42557-6.907-7.51618-9.6748-2.70444-2.42188-4.65587-5.0824-3.93242-9.12159.54535-3.04473-1.60148-4.7312-4.20939-5.19506a5.26418 5.26418 0 0 1-4.48546-4.05512c-1.06847-3.36188-3.80493-5.41241-6.142-7.74982-2.96018-2.96063-6.04581-5.77-6.50378-10.32238a3.16777 3.16777 0 0 0-1.85634-2.8147c-3.51772-1.11755-3.71633-4.04834-5.12792-6.84674-2.11879-4.20026-1.86346-7.36456.78166-11.67975-1.9358 1.38007-3.274 1.61408-4.0335.59241-1.5981-2.14972-3.32123-2.114-5.64176-1.3476-2.56444.8468-4.19188-.476-4.541-3.1369-.9216-7.02441-4.47579-13.38556-5.13266-20.4668-.19713-2.12506-2.606-2.9627-2.7256-5.18628-.1867-3.47009-3.26578-6.71679.27627-10.52246 1.13287-1.21722-1.02067-4.45648-3.369-5.33355-3.57576-1.33539-4.29207-4.20716-4.95125-7.41541-.91931-4.47461-.83038-9.18866-3.50763-13.273-1.1744-1.79163-.35937-3.89972.68883-5.69165 1.78322-3.04852 1.617-5.40839-2.22412-6.49506a4.49941 4.49941 0 0 1-3.21382-3.49188c-1.201-4.45343-3.80286-8.50152-3.83917-13.29309a3.23677 3.23677 0 0 0-.53022-1.89453c-6.01275-8.54608-6.53549-19.13886-10.56465-28.4303-.68522-1.58014.22951-2.653 1.9713-2.49182 1.88584.17438 3.31035-.29559 4.02448-2.13757.48568-1.25281 1.15883-2.21607-1.24695-2.6471-5.71727-1.02444-7.948-3.82654-6.75141-9.38443.60924-2.82977-.351-3.77908-2.11442-5.09652a18.562 18.562 0 0 1-3.50223-3.55149c-1.09892-1.41919-1.84581-3.40124-.75891-4.64245 5.031-5.74549-.73288-9.02216-3.19063-12.302-3.70643-4.94625-4.3267-6.1091-.56824-11.73541-.88058.303-1.66406.88266-2.64595.5614-2.50558-.81985-6.75111-10.1242-5.68655-12.53262.83739-1.89444 2.24486-1.86685 3.64653-.79794 3.03268 2.3128 4.19078.20443 5.01529-2.15723 1.40932-4.03668-.07954-8.05048.06055-12.56357-2.709 1.1081-2.57633 3.00208-2.70375 4.73615-.1626 2.21277.5663 4.27127 1.13292 6.36163a2.57686 2.57686 0 0 1-.99622 3.09665c-1.35907.873-2.28851-.09454-2.89743-1.05136a20.6366 20.6366 0 0 0-5.79164-6.09909c-.9718-.66535-1.98215-2.02411-1.535-2.96271 2.50821-5.26428-2.9529-8.04819-3.52072-12.09949-.78545-5.60373-3.64615-10.259-5.38365-15.39889-1.18366-3.5015 1.61419-3.74381 3.64239-4.83243-2.37915.99887-4.12031.45694-5.11824-1.99118-.81744-2.0054-1.63991-4.00125-2.32132-6.06357-3.4144-10.334-6.02683-20.93109-10.78792-30.82669-1.22853-2.55344.31163-6.07742-2.27811-8.6207-.74569-.7323.047-2.38958.95464-3.11822 5.13363-4.12128 9.88257-9.12979 17.30315-8.2861-3.31775-1.47611-10.8274-1.02372-14.373.91375-4.27167 2.33426-4.62878 2.15879-6.8254-2.54181-1.26781-2.713-2.85323-5.26846-3.99749-8.05258-1.874-4.55954-1.842-4.65741 3.23109-5.30728.66543-.08517 1.31175-.21625 1.56659-1.02289-.12446-1.25988-1.14708-1.4797-2.13171-1.66021a17.024 17.024 0 0 0-2.99148.04547c-1.48907-.00836-3.28119-.83982-2.87987-2.06449 1.31359-4.0086-3.87461-7.24933-1.12632-11.11883 1.07674-1.51605 2.40469-.41406 3.36353.563a19.28446 19.28446 0 0 0 5.6716 4.03015c2.93673 1.3674 3.6394.0347 3.20642-2.64295a11.66433 11.66433 0 0 0-1.12888-3.30322 85.76609 85.76609 0 0 0-9.77045-14.9856c-2.51515-3.17721-3.17819-2.92224-4.9976.84882-.53766 1.11438-.5078 3.02533-2.28965 2.72174-1.2088-.206-1.19368-1.839-1.56435-2.92a80.37994 80.37994 0 0 1-4.07861-15.36151c-.78781-5.89621-4.5647-10.58783-6.36309-16.1373-4.52421-13.96091-8.79691-28.00075-13.35935-41.94589-2.03701-6.2262-3.30342-12.7864-6.86849-18.46027z" class="cls-1"/><path fill="#1a8bb7" d="M440.804 938.27844c.432 2.76812 2.49906 5.09875 2.12211 8.11456a1.89958 1.89958 0 0 0 .94744 1.55066c4.57511 1.5022 5.68769 5.93719 8.3693 9.05609 2.27334 2.644 7.43371 2.73169 7.63891 7.81329a3.84677 3.84677 0 0 0 .47049.056c6.851 1.072 6.85092 1.07215 6.11811 6.98438 2.356-.058 3.11648-2.2525 4.62674-3.3855.7777-.5835 1.37225-1.80994 2.4169-1.49976 1.32309.39283 1.27883 1.77576 1.28533 2.95527.01288 2.33294.16242 4.35144-2.81668 5.61016-2.921 1.2342-3.89816 3.52387.36417 4.79163.84363.25092 1.999.70136 1.77875 1.42456-1.45056 4.76233 1.93493 5.96619 5.1022 7.61371 1.05383.54816 2.48258 2.18738 2.30124 3.011-1.42026 6.45239 4.12833 9.04321 6.71274 13.346a135.45417 135.45417 0 0 0 9.41086 13.07636c1.89108 2.44073 2.89743 6.57037 7.51321 5.48035.148-.03492.5864.36962.56714.53057-.73755 6.15216 6.51935 8.82648 6.33679 15.01545-.09222 3.127 3.457 6.26861 5.57541 7.14044 5.43015 2.235 5.277 7.55749 8.0069 11.14868 3.9161 5.15124 5.68582 12.07056 11.16894 15.80688a24.338 24.338 0 0 1 8.25186 9.97718c.82209 1.65112 2.4253 2.99756 3.94422.08947 1.30237-2.49365 3.13635-1.43151 4.412.00843 1.51446 1.70959 2.19042 4.03662.76867 5.972-1.34613 1.83252-1.56323-.81274-2.4638-1.12487-.80109-.27747-1.56012-.76343-2.24817-.02222-.23474.253-.25959 1.15723-.06586 1.28418 3.98389 2.61035 4.21 7.78442 7.52124 10.88782 2.03564 1.908 3.45264 3.02612 5.25818-.26954 1.50305-2.74353 3.28424-2.96191 5.00214.1792 2.67346 4.88807 5.39166 9.672 2.14453 15.35242-1.72687 3.021 1.54461 6.88294 1.91858 6.9259 3.79272.4375 4.21551 4.134 6.47467 5.81714 1.15673.86182 2.04962 1.39771 2.09448 2.94629.06262 2.16138.80572 3.5564 3.4259 2.68775 2.04816-.67908 3.48578.38281 3.41571 2.36511-.12036 3.40173.87879 4.06384 4.30994 3.44531 4.49908-.81128 5.47284 1.13025 3.31506 5.61963-.5423 1.1283-1.9447 1.96753-.86621 3.80151 2.12866-.70227 2.74927-3.09008 4.46185-4.14563 1.38147-.85156 2.3653-3.97229 4.10419-2.21972 1.68012 1.69348 1.77063 5.1947-.21081 6.819-2.58429 2.11853-6.24915 2.45251-1.80524 6.96289 1.47711 1.49926.4187 5.54394 4.19922 7.54638a15.00292 15.00292 0 0 1 7.86389 11.31788c.22278 1.57055.98993 3.41491 2.50763 3.31774 4.80963-.30786 4.3363 2.79981 4.24914 5.818h-218q-18.30586-57.19868-36.61776-114.39527-21.6266-67.39737-43.32675-134.77118-19.70088-61.2202-39.431-122.431-26.39856-82.1668-52.7365-164.35302c-9.42771-29.32886-18.98135-58.61731-28.4324-87.93872q-22.5986-70.11114-45.1326-140.24311-21.7076-67.55364-43.35641-135.12617-8.23364-25.67445-16.41107-51.36686a23.262 23.262 0 0 1-.56218-3.37859c3.32784-.16575 3.20545 3.10051 3.71852 4.683 2.53347 7.8141 5.46891 15.52264 7.73091 23.37515 1.46848 5.09782 2.599 10.32377 4.5353 15.30273 3.31124 8.51429 4.68245 17.63669 9.62474 25.71787 2.75145 4.49893 3.56136 10.47165 4.15011 15.89911.35155 3.24084 3.83694 5.359 1.67673 9.33227 2.15421-.97223 1.48565-2.33206 1.98894-3.2229.854-1.51159.69378-3.73175 3.14241-4.01623 2.24133-.26041 2.5651 1.68435 3.54985 2.93371 4.16188 5.28021 8.08737 10.70593 10.83879 16.88761a7.6303 7.6303 0 0 1 .891 2.31405c.13539 1.78125.92017 3.96082-.58452 5.22443-1.51957 1.27609-3.05171-.51608-4.54069-1.08624a14.73906 14.73906 0 0 1-7.40012-6.13483c-.54357.87265-1.28573 1.66775-1.14127 1.89221 1.88112 2.92291 2.94111 5.89511 2.068 9.49039-.26921 1.10861 1.17627 1.44537 2.22833 1.079a5.57349 5.57349 0 0 1 3.87812-.39783c1.83763.66766 3.52916 1.79849 3.21758 3.88529-.3286 2.20092-2.42187 1.87307-4.06216 1.75177a35.64561 35.64561 0 0 1-3.954-.86182c2.11527 4.18582 3.78184 7.53751 5.51241 10.85583.29111.55814 1.05561.89847 1.26719 1.46439 1.49659 4.0032 2.61486 4.2233 5.40612.92807a5.12781 5.12781 0 0 0 .58806-1.348c3.71135 4.40716 7.55848-2.98 11.28808.12967a2.20933 2.20933 0 0 0 2.30705.45175c1.29-.45129 2.974-.98486 2.8326 1.18918-.11009 1.69217-1.094 2.98337-3.405 2.46634-4.07031-.91065-15.08551 4.40179-16.75944 7.93466a4.26828 4.26828 0 0 0-.28869 1.80661c6.60194 1.85867-.04337 7.8063 3.6097 11.24606 3.0295 2.8526 2.77288 8.44617 4.60075 12.02091 3.44085 6.72909 3.61436 14.31906 7.17742 20.88653 1.2903 2.3783 1.75543 3.95893 4.36788 1.81226 1.2984-1.06693 2.78411-1.12448 3.25938.39468.68721 2.19669-1.41922 1.53287-2.51285 1.73056-3.21361.581-3.86851 2.166-2.85147 5.2985 1.38895 4.27795 5.28062 7.599 4.30988 12.89749-.34214 1.86734 4.86644 2.7117 2.54046 6.21331a10.80138 10.80138 0 0 0 1.40637-.03018c4.153-.616 2.98092 1.90665 1.68438 3.43683-3.19655 3.77255-1.93708 5.80243 2.13192 7.34247 2.75617 1.04309 1.91872 4.93808 4.80957 6.071 1.95987-1.09619.35448-2.4263-.038-3.6846-1.06-3.39856-1.57681-6.81421.3064-10.07138.50749-.87771.90661-2.48147 2.45227-1.97226 1.30955.43149 2.79007 1.86307 2.24507 2.91938-1.94287 3.76559 1.52368 7.31164-.37311 11.41827-1.87773 4.06537-3.31985 5.60074-7.2186 3.04752-.61877-.40525-1.33627-.73786-1.70256-.12458a3.0844 3.0844 0 0 0-.38911 2.34619 69.99714 69.99714 0 0 0 3.83827 8.507c1.12321 1.9997 2.6974 1.90195 3.48085-.40344.34052-1.002.50392-2.2753 1.70837-1.71817 1.5485.71631.50751 1.90411-.06086 2.89719a41.20168 41.20168 0 0 0-2.60663 4.81689c-.7861 1.93469-1.06519 4.05222 1.297 5.1752 4.35714 2.07154 4.0148 7.60642 7.7496 10.25135 1.09958.77871.637 2.68142-1.38387 3.37188-3.44709 1.17777-2.43081 3.29538-.755 5.27094a22.84577 22.84577 0 0 0 8.77048 6.62906c-5.19128 1.39331-3.65006 5.46325-2.73521 7.57827 1.2651 2.92484 4.2434 5.60984 7.96026 1.53586.91965 7.1604-1.44191 9.92334-6.58775 8.62409 1.77987 8.43225 6.33548 16.10113 7.2321 24.84869.03392.33081.01512.93085.11816.95294 6.80014 1.462 1.54311 9.00592 5.90831 11.70624.83211.51477.14141 1.61914.36589 2.23029 1.155 3.14428.42723 7.38415 5.76929 8.03582 2.81743.34388 3.70377 3.36292 2.02236 5.97144-2.18255 3.38592-3.1793 5.87628.45993 9.49762 1.27182 1.26556 1.38333 5.98785 1.34768 9.21393-.04106 3.71368.305 6.90527 5.31626 7.37176 2.32728.21662 1.612 3.77094 3.30731 5.22772 2.85832 2.45618.10684 3.14411-1.39029 4.25586-1.45107 1.07752-1.94408 3.04236-.22385 3.45917 2.40157.58185 1.32569 1.54688 1.1118 2.72894-.14447.79834-.31623 2.16333.06462 2.39814 4.6296 2.854 1.94561 8.40472 4.10727 11.53442 3.07369 4.45038 2.08016 9.39313 3.6772 13.89832.84082 2.37194 2.23879 2.34118 3.79476 1.44268 2.39194-1.38116 4.16424-2.80182 5.55946 1.30616.77759 2.28942 2.15643.85315 2.89974-.75385a1.23128 1.23128 0 0 1 2.04823-.469c.652.55432.17049 1.15277-.10373 1.7594-.80638 1.78393-2.36549 3.70446-2.147 5.37786.49008 3.75354 1.1188 10.00586 3.04551 10.56385 4.978 1.44159 5.60013 4.36474 5.99421 8.26953.1668 1.653 1.56575 2.47644 2.51124 3.61035 3.53883 4.2439 9.07419 6.94342 10.11466 13.13855.13617.81067.81628 1.25421 1.79083 1.41815 5.20727.87616 6.65188 2.7627 5.95129 7.56391a6.23339 6.23339 0 0 0 2.37833 5.73547c4.462 3.381 8.14712 7.09357 10.02676 12.55585.80265 2.33239 2.23346 4.748 5.22061 1.27929 1.67469-1.94464 2.94117.048 3.596 1.61548.547 1.30927 2.51355 3.263-.3186 3.8982-1.74414.39117-2.406.32647-1.59064 2.25 1.03421 2.43994 2.61508 4.58746 5.11972 4.9898 2.14118.34394 1.87369-1.582 1.47037-3.19665-.28122-1.1258.56989-1.84864 1.61749-2.14594a2.109 2.109 0 0 1 2.24735.71509 1.71026 1.71026 0 0 1-.307 2.6217c-3.09506 2.84815-1.992 6.10712-.80844 9.23468 2.51608 6.64844 8.59738 11.32178 10.3718 18.43189.09591.38434 1.09051.64184 1.70694.7829 3.86187.88318 5.65133 3.92016 7.85244 6.83111 3.07511 4.06671 5.41043 9.33368 11.92392 9.29962 2.54209-.0133 2.10767 2.01416 1.6131 3.69989-.36566 1.2461-1.25079 2.80048.22226 3.56794 1.47952.77081 2.14185-1.12629 3.16821-1.843.13452-.09406.21744-.2749.35916-.34351 1.384-.66986 2.20258-3.98541 4.07685-1.73724 1.39117 1.6687 1.60147 5.5227-.27164 6.40692-8.72549 4.11932.75815 7.34607.28745 10.95483-.05311.40705.81207 1.01209 1.34121 1.4043 4.14322 3.07208 8.52954 5.51514 6.07312 12.45661-.60772 1.71722 4.16443 5.34014 6.4661 8.0849q10.96288 13.07353 21.90393 26.1654a4.69026 4.69026 0 0 1 .96124 2.25c.99463 7.13763 6.21994 11.35266 10.98676 15.83337a5.44 5.44 0 0 1 1.92852 3.2746c.33905 2.01569 1.0485 2.90094 3.72855 3.334 2.74216.44305 6.91913 2.48065 4.75513 7.28216a2.21847 2.21847 0 0 0 .94241 3.01959c3.541 2.2508 4.57092 6.66657 8.356 8.96985 2.19269 1.33429 1.235 5.65619 3.57351 7.83075.90168.83838 1.79609 2.82257 3.10578 1.52674 5.71042-5.65009 4.81351 1.25769 6.34784 3.29284.40817.54138.10266 1.62073-.09452 2.56824a2.30516 2.30516 0 0 0-1.0884.4364 1.08572 1.08572 0 0 0 .91784-.24585c.25675-.21655.38013-.32623.38986-.30566.06311.13324-.0831.21-.2193.11511a23.90155 23.90155 0 0 1 3.70521-.019 2.02394 2.02394 0 0 1 2.096 1.74841c.12839 1.21094-.76239 1.82562-1.79059 2.002-1.60623.2757-3.01471.62043-2.67913 2.72242a5.44844 5.44844 0 0 0 3.00875 3.77667c1.97983 1.12537 2.45728-.866 3.26359-2.0144 1.89175-2.6944 3.26477-2.51459 5.08767.34014 3.96083 6.20333 4.53419 9.71091 1.52769 13.32877z"/><path fill="#1badbe" d="M1965.804 635.27844c-10.349 1.308-20.71167 2.64435-30.36291 6.91778-18.05359 7.99378-26.89136 22.84986-30.50024 41.48981a129.258 129.258 0 0 0-2.28565 24.80219c.06018 51.80615-.031 103.6126.13489 155.41839.01513 4.73255-1.14026 6.28229-6.03259 6.16388-13.485-.32629-26.9845-.21588-40.47522-.04059-3.861.05023-5.23011-1.15045-5.22632-5.12982q.12854-136.92837.01379-273.85675c-.00232-3.26953.684-4.78168 4.39734-4.72553 13.15674.199 26.31958.17493 39.4773.01392 3.30371-.0404 4.335 1.02478 4.243 4.27985-.2024 7.15716-.09949 14.3244-.03418 21.48675.01465 1.58344-.56189 3.34107 1.156 5.05713 16.09424-22.4104 37.12171-35.645 65.49475-34.877v2c-4.09912 2.611-9.0299 1.98156-13.43066 2.68341a67.917 67.917 0 0 0-32.33667 14.19232c-4.62085 2.09094-7.46667 6.13257-10.67676 9.77631-.90771 1.28241-1.52636 2.73346-2.41943 4.0274a17.66777 17.66777 0 0 1-2.682 2.9646c-1.46118 1.28491-2.80273 3.36572-5.03906 2.52844-2.54163-.95141-3.7019-3.23089-3.82446-5.95178-.25513-5.66113-.07886-11.32593-.11573-16.98889-.04956-7.63379-.07775-7.68958-7.88159-7.69879-8.496-.01007-16.99377.09887-25.48694-.04364-4.05273-.068-5.66662 1.49463-5.61865 5.57855.1272 10.82642.04224 21.65576.042 32.484q-.00275 97.20391-.04211 194.40771c-.00452 4.79669.20788 9.29828 4.109 12.80066 1.26269 1.13361 1.634 2.87549 2.00024 4.51038.6543 2.92114 2.28833 4.736 4.96692 6.3775 5.10278 3.12671 7.3938 8.84314 10.7406 13.56415 1.40894 1.9873 1.99671 4.81341 5.04077 5.02051 4.13806.28149 8.34656.86676 12.3833-.43146 1.91687-.61646 1.44532-2.73957 1.73475-4.33423 3.476-19.15418 1.72521-38.49237 1.94958-57.751.25232-21.65344.05408-43.31213.06128-64.9685.00146-4.49536.19946-8.99774-1.38916-13.33795a5.99168 5.99168 0 0 1-.15711-3.94843c2.4148-6.98059 1.22815-14.19812 1.5525-21.31628.67651-14.84443 3.85058-28.9488 12.43566-41.42841 3.14746-4.57526 7.49549-8.01306 11.24915-11.99841a12.52337 12.52337 0 0 1 1.24768-1.01465c2.80579-1.40943 5.8186-2.436 8.42358-4.27063a24.25711 24.25711 0 0 1 4.50391-2.42566 54.27544 54.27544 0 0 0 12.28564-3.90741c3.4159-.90076 6.89783-.49262 10.35682-.5744 2.07727.20129 4.28686-.13269 6.017 1.47461z"/><path d="M1959.8069 634.26293q-5.5014.00778-11.00293.01551a1.35055 1.35055 0 0 1-2.13342-.16431c-.7373.9151.63489-3.31561-1.011-.4032a2.531 2.531 0 0 1-3.49415.95191c-4.10583-1.74585-5.15026-5.61261-2.26355-9.063 2.01612-2.41 1.788-4.90442-.16894-6.71277-3.74927-3.46484-6.20911-8.318-11.39319-10.30634-2.17029-.83246-1.47107-3.04455-1.04394-4.83966.229-.962.73327-2.05761-.17432-2.80487-1.22962-1.01233-2.05591.231-3.02234.7901-3.40747 1.9715-3.55322 1.91138-5.29041-1.43805 5.70521-4.385 11.63062-8.46887 18.447-10.89a95.88117 95.88117 0 0 1 12.57934-3.38745 68.698 68.698 0 0 1 15.96887-1.7323v48c-1.64411 1.73395-4.32648.33038-5.99702 1.98443z" class="cls-4"/><path d="M1080.804 20.27844a9.21992 9.21992 0 0 1-1.88354 6.24762c-1.7843-1.42867-1.43274-3.34486-1.19507-5.23509q.03938-.50627.07861-1.01254z" class="cls-5"/><path d="M1959.8069 634.263c1.30652-2.754 3.84107-1.79749 5.99707-1.98456v2q-2.99853-.00779-5.99707-.01544z" class="cls-6"/><path fill="#b8eef3" d="M26.804 22.27844c1.49022.96714 1.23565 2.67152 1.71728 4.06428q-.85888-.0326-1.71728-.06428z"/><path fill="#1994b8" d="M664.52559 1022.37274c-5.82989-17.99933-11.757-35.96784-17.47021-54.00415q-20.61987-65.09547-41.08307-130.24073-9.37344-29.70776-18.83167-59.38861a17.11451 17.11451 0 0 1-.14428-11.09906q26.26885-80.80773 52.26068-161.70562c10.61114-32.972 21.0357-66.00422 31.66907-98.96909 9.536-29.563 19.2323-59.07428 28.88055-88.601 3.37982-10.34333 6.827-20.66468 10.24335-30.99607 3.53192 1.94043 1.90356 4.821 1.11779 7.30539-3.0921 9.77665-6.62664 19.40967-9.58184 29.23023-3.44361 7.58337-4.75562 15.83481-7.37989 23.69076-8.52716 25.52649-16.65173 51.19056-24.78454 76.8432-5.47339 17.264-11.33393 34.3957-16.73914 51.675-1.03 3.29242-1.69324 6.7461-2.70129 10.082-.335 1.10858-.81684 2.39606-.1026 3.39667 1.91168 2.67835 1.50781 5.21875-.7179 8.19055 5.51465-1.14892 7.42346 2.16522 10.00659 5.50849 7.47638 9.67651 12.98493 20.72375 21.67682 29.61352a50.5175 50.5175 0 0 1 9.46369 13.92053c3.86175 8.334 10.85235 14.2873 16.58746 21.13843 5.72913 6.84387 9.7218 14.6615 14.49829 22.03632 1.45166 2.24139 3.128 4.29889 4.73853 6.41876 9.99475 13.15613 20.40161 26.03528 29.22668 40.01648 3.2862 5.20605 6.28772 10.328 10.83393 14.712a34.67422 34.67422 0 0 1 8.54473 14.39373 4.10529 4.10529 0 0 0 1.5185 2.44306c8.76135 5.99292 14.176 14.68963 18.876 23.86749 1.55115 3.029 3.1377 5.7771 6.0282 7.73682 3.229 2.18921 4.47467 6.13391 7.427 8.68658 3.824 3.30621 4.67627 3.34918 6.2909-1.49756 2.838-8.51916 5.38238-17.15033 8.59564-25.52746 4.02563-10.49518 6.94769-21.34827 10.82483-31.90821 4.1-11.16681 6.95129-22.89721 11.2904-34.013 3.502-8.97119 6.47687-18.139 9.278-27.26751 3.702-12.06434 7.78979-23.98841 11.67139-35.98914a7.81813 7.81813 0 0 1 2.14367-2.1311 1.94242 1.94242 0 0 1 2.10816.33612L705.13973 1148.8092q-.53869-.09136-1.07739-.183-9.6676-30.60937-19.32019-61.22364c-3.42151-10.93042-6.68879-21.909-10.0257-32.86584-2.34393-11.05491-6.10962-21.65947-10.19086-32.16398z"/><path d="M918.68 95.96848c13.45581-6.40637 26.88043-12.87922 40.37445-19.204q32.35209-15.16355 64.78571-30.15317a8.05449 8.05449 0 0 1 1.92077-.3728c2.02771-.06226 1.73005 1.1678.9524 2.12386-1.06275 1.30638-2.73871 1.86316-4.23688 2.55445-12.07044 5.56961-23.56635 12.29552-35.91126 17.366-3.88977 1.59765-7.70678 3.75009-11.66729 5.40363-2.73834 1.14329-3.58637 2.25459-1.41889 5.05 18.75354 24.18586 36.1167 49.38362 53.81421 74.33757 1.82776 2.57719 4.40784 4.54414 5.93091 7.36367-5.14758 15.32856-10.3703 30.63846-15.37415 46.01224-4.91278 15.09354-9.697 30.24913-14.89715 45.22939-5.59247 16.11027-11.0044 32.29739-16.41864 48.45547-8.38153 25.01328-17.19629 49.893-24.93445 75.12287-.29626.96615-1.11768 1.73538-1.22784 2.71768-.50061 4.46255-2.30359 5.8403-6.52466 3.34106-2.33234-1.381-3.88361-.63479-3.30036 2.4726.64441 3.43261.89362 6.95587 2.33747 10.20233a5.26656 5.26656 0 0 1-.12329 5.255c-.83741 1.32032-1.00415 3.57334-3.19458 3.27826-1.88105-.25332-1.71985-2.17315-2.01728-3.59927-.23089-1.107-.14135-2.51675-1.71966-2.62433-1.09723-.07477-1.70246.87064-2.35468 1.64029-4.32037 5.09836-4.17621 7.43036.79322 12.22855 2.46594 2.38089 2.32421 7.38284-.58576 8.00915-4.98718 1.07349-3.00976 4.14591-2.06048 6.30493 2.26275 5.147 1.29205 10.88391-3.44245 13.98456-1.75354 1.14841-1.77289 2.09125-1.23681 3.62168a4.98954 4.98954 0 0 1 .54309 2.90823c-.61426 2.21069-.99927 5.15246-3.588 5.45621-2.439.28619-2.03051-2.51255-2.43292-4.18146-.58252-2.41583-1.72259-2.60556-3.45923-.99387-4.70086 4.36261-4.71563 8.52722-.02112 12.70679 3.17884 2.83008 2.58551 7.43387-1.36749 8.45758-2.052.53146-2.31329 1.51129-2.31775 3.08466-.00415 1.488-1.3479 3.38308 1.22528 4.1416a2.68943 2.68943 0 0 1 1.99341 3.48544c-.33984 1.68082-1.66455 2.39829-3.13244 2.90408a8.06456 8.06456 0 0 1-10.43207-4.41607c-1.28131-2.65265-2.74793-4.8877-5.42731-6.2486a4.90038 4.90038 0 0 1-2.63416-2.90616c-2.64593-9.64435-9.74591-16.20221-15.97326-23.3887-2.396-2.765-4.6817-5.59433-4.05-9.78839.42749-2.83829-3.77173-1.67554-4.28113-4.43814-.357-1.9361 1.30084-4.88449-1.45758-5.81329-6.13-2.06415-7.99414-7.68946-10.94617-12.38251-2.16333-3.43949-3.87976-6.77689-7.6958-9.2443-3.4107-2.20538-4.00244-7.39862-5.84491-11.2532-1.02417-2.14258-1.56286-3.92905-4.37078-3.66745a2.221 2.221 0 0 1-2.10883-1.16327c-1.59265-3.63806-5.76282-5.39157-7.20215-8.68939-3.44848-7.90122-9.687-13.49307-14.90643-19.924-3.3822-4.16721-4.97778-9.42859-8.59479-13.42838a3.20245 3.20245 0 0 1-.50391-2.87826c.64148-2.632-.10687-4.117-2.98846-4.47611-2.11719-.26382-3.03278-1.946-3.32129-3.88168-.49078-3.29291-2.5357-5.25385-5.27692-6.83188-3.33209-1.91821-5.53082-4.24554-5.05151-8.80423a6.824 6.824 0 0 0-4.64538-7.421c-3.08112-1.17206-5.09223-4.17914-7.874-6.01959-1.36877-.90561-1.50805-2.50162-1.04706-4.07855.33728-1.15348.16034-1.81253-1.30847-1.90619-6.5686-.41879-8.53052-5.72241-10.56488-10.58219-.92529-2.21017-1.00171-4.69177-2.48541-6.86471-1.29694-1.89945 1.09436-3.64038 1.37176-6.32758-1.27246 1.49559-1.30981 3.64826-3.24865 3.4628-1.64594-.15747-3.35205-1.31955-3.29969-2.62259.19306-4.80211-5.96966-6.30623-5.4649-11.19908.08643-.83742-.45752.16394-.63983.278-2.88934 1.80754-3.94116.158-4.40491-2.37631a7.413 7.413 0 0 1 .39893-4.91336c1.70886-3.072 2.31463-5.79285.67468-9.35123-1.069-2.31936 1.0014-5.23242 1.12445-8.06891.13214-3.0455 1.39459-6.11486 2.25586-9.1163.87317-3.04318 3.837-3.98636 6.92462-3.52 1.83441.27707 3.60291.77722 5.277-.45152 1.09082-.80066 2.45477-1.68938 1.99744-3.16574-2.33051-7.52336-.23481-14.79505.95282-22.14423a21.23421 21.23421 0 0 0-.15937-7.95842c-2.46814-11.21861 6.28455-19.79812 17.38532-17.30269 2.9461.66227 6.33545-.39444 8.29077 2.98714.22272.38512.9137.36171 1.35431.05289.64929-.4551.56854-1.10215.41083-1.78736-.91053-3.95649-4.877-5.90559-8.87665-4.45514-3.00891 1.09118-5.91461.14208-8.73316-.85917a2.8112 2.8112 0 0 1-1.81732-2.75839 2.55913 2.55913 0 0 1 2.439-2.69561c3.83056-.5572 4.90008-2.91191 4.54614-6.40133-.2865-2.82425 1.47632-4.362 3.79266-5.1897 8.5998-3.07275 16.35779-7.95207 24.7248-11.47582 19.19775-8.08517 37.75592-17.55209 56.77087-26.04078 13.94647-6.22586 27.9813-12.47122 41.23947-20.19426z" class="cls-9"/><path d="M918.68 95.96847c.30414 2.88432-2.42871 2.44653-3.78131 3.07566-8.24133 3.83335-15.87994 8.82816-24.67462 11.693-3.76575 1.22667-7.03528 4.56044-11.0036 6.20327-18.168 7.5214-35.72064 16.36689-53.51636 24.68122-8.05456 3.76319-15.97583 8.02968-24.31293 11.29323a20.64891 20.64891 0 0 1-4.08276 1.44636c-2.63513.457-4.32617 1.52817-3.77222 4.99149.61829 3.86555-.19574 7.33776-5.57739 7.02549-2.11353-.12263-2.60089 1.30939-1.31335 2.96117 1.1253 1.44365 8.35308 1.79623 9.40643.28343 1.69769-2.43825 3.11786-1.43011 4.92248-.29245 2.51484 1.58533 3.649 4.268 5.37488 6.45456 1.004 1.2719.54749 2.83876-1.12878 3.74414-1.73828.93892-3.43286.9957-4.12842-1.02069-.89258-2.58728-1.82239-3.976-4.47253-1.76532a1.92951 1.92951 0 0 1-2.34754.128c-4.50976-3.07745-7.46972-.91971-11.28857 2.03987a12.76412 12.76412 0 0 0-4.94367 6.89113c-.45916 1.44952-1.09271 2.32-.34955 3.96024 2.004 4.42267 1.69623 9.05935.05134 13.50857-.91175 2.46625-1.504 4.85071-.249 7.20258 1.2049 2.258 1.33893 4.05754-1.06866 5.47871-1.37915.814-1.10633 1.46457-.27539 2.73067 1.1452 1.74493 3.86151 3.82936 1.399 5.95825-2.2467 1.94232-4.4 4.873-8.64441 2.46686-2.542-1.4411-5.196.35-6.12994 3.74582-1.31146 4.76854-.20166 10.14372-3.59479 14.38086 5.88068 5.05783-1.01147 9.79309-.37335 14.71945.14209 1.09683-.36127 2.577 1.125 2.98473 1.74841.4797 1.394-1.28183 2.00372-2.106 1.432-1.93578 2.76044-.27489 4.64618.53485-4.1054 1.90591-4.17975 3.81007-.44568 5.5737 1.835.86673 2.86445 1.89287 2.37952 4.255a3.60338 3.60338 0 0 0 2.96784 4.47739c2.19769.15521 1.02032-2.28565 1.34149-3.56049.2915-1.15735.95605-2.07687 1.99786-1.48622 1.52112.86238 2.66669 2.68373 1.48859 4.18076-2.09461 2.66163-3.59387 4.42927.5758 6.83467.68634.39593-.03741 5.50012 1.89014 8.05987 2.45367 3.25855 3.79041 8.10321 9.80469 5.40033 2.13415-.9591 1.86322 1.12 1.118 2.31238-1.97412 3.15878-1.36621 4.73648 2.28937 6.243 2.94482 1.21359 4.47906 4.666 8.38177 5.40518 1.75232.332 3.52466 5.16108 2.62049 7.17084-1.96241 4.36221.71484 6.19605 3.28417 7.52139 3.82673 1.97388 6.81366 3.979 6.62879 8.81318a2.08064 2.08064 0 0 0 2.51282 2.33779c3.78967-.27844 5.95874.72156 3.70056 5.02247a3.05408 3.05408 0 0 0 .36 3.3042c5.7602 7.97122 10.58722 16.95639 17.67926 23.479 3.42957 3.15414 3.57428 6.70895 5.81183 9.62494 2.18634 2.84912 6.50354 3.96045 6.8711 8.37872.02044.24625.47821.67639.69513.65433 10.03625-1.01944 5.95275 9.183 10.08813 12.96078.94879.86679.635 2.21119 2.94226 2.472 3.73932.42264 4.79468 4.84857 6.37109 7.48932 3.176 5.32028 3.93317 12.27283 11.9347 13.23047 1.57959.18905 1.7279 1.43945 1.32263 3.0755-1.09381 4.416-.962 4.41177 3.22876 4.81866 1.28345.12457 2.609 1.04242 1.77789 2.27292-4.04993 5.99649 1.3841 9.04559 4.268 12.10315a88.96513 88.96513 0 0 1 7.42865 9.21057c1.29693 1.80142 1.55963 4.23264 4.59039 4.58289 1.944.22467 1.1756 2.42419 1.30945 3.8164.3316 3.44953 1.06268 6.65049 4.92468 7.82123 2.64459.80173 3.20642 3.04123 4.03412 5.23557 1.63556 4.33569 4.796 5.91546 9.095 4.62182 1.42468-.42868 3.20166-1.00885 2.82623-2.90515-.51123-2.58212-2.91809-1.20383-4.80633-1.78775.64831-2.59158 1.61615-5.19427 1.02771-8.0101-.27985-1.339.6394-2.30817 2.13666-1.811 1.429.47446 3.14892 2.36512 3.62756-.69186.317-2.02454.89355-4.92541-2.066-5.34225-4.2196-.59427-3.88226-3.37183-3.778-6.22928.14453-3.95905 3.06036-6.59455 5.28418-9.24155 1.41735-1.6871 4.52154-1.78052 4.69555 2.11395a14.03483 14.03483 0 0 0 .72736 4.421c1.454-2.49267 4.55646-4.39554 1.73431-8.11654-.53729-.70835-3.10669-5.53955 2.46692-4.05216 1.51489.4043 1.82782-1.29529 2.32916-2.13956 1.14856-1.93466.72028-4.52655 2.48218-6.32214.28748-.293.00617-1.769-.16772-1.79907-5.20655-.90067-1.72333-5.43649-3.26075-7.94083-.94879-1.5455-.09783-3.54486 2.44989-2.41055 1.31385.585 2.57807 1.54425 3.00818-.54358.42121-2.04465.93061-4.36206-1.55377-5.74884-4.99646-2.78894-5.67346-6.00433-2.29065-10.7a13.59776 13.59776 0 0 0 1.32459-2.10077c.97192-2.0643 2.0766-3.92545 4.819-3.3595 3.06811.63315 1.54376 3.16635 1.935 4.8989.1715.75982.246 1.54156.45654 2.91143 2.4461-3.15847 3.925-5.41067 1.84454-9.21862-1.58789-2.90662-1.55157-6.7074-2.20312-10.11707-.72522-3.79574.699-4.91507 4.2348-3.33887 1.62176.723 3.24969 1.43232 4.81409 2.121 5.30523-13.32938 8.52154-27.32227 14.26629-40.52219 2.016-4.63214 2.8291-10.1994 4.55841-15.24075 2.14411-6.25064 4.228-12.522 6.38758-18.76728 2.5202-7.2883 5.15576-14.53723 7.62664-21.842 2.32227-6.86517 4.45826-13.79316 6.744-20.67094 2.3844-7.17474 4.84418-14.32452 7.2818-21.48154 2.3869-7.008 4.81806-14.00106 7.17359-21.01957 2.30786-6.87651 4.51495-13.78681 6.821-20.66394 2.4035-7.168 4.89355-14.307 7.30493-21.47237 1.59534-4.74057 3.49347-9.428 4.4975-14.29575.426-2.06488 1.9389-3.40866 2.17816-5.36882-2.09631-3.33168-.20465-5.79425 1.792-8.23657a1.96293 1.96293 0 0 1 2.32941.26787c-3.30011 9.91591-6.6214 19.82484-9.8952 29.74945-4.36853 13.24324-8.61933 26.52586-13.07068 39.741-4.46924 13.268-9.51532 26.354-13.603 39.73531-6.07 19.87138-12.86767 39.49382-19.40411 59.2054q-25.53186 76.99589-51.21295 153.94229-20.47935 61.524-40.98474 123.03949c-.51764 1.55212-1.28107 3.02234-1.92994 4.5307-1.77594.47009-2.11865 2.22-2.46295 3.47876-3.59863 13.15552-8.85132 25.7727-12.54956 38.89038a15.14259 15.14259 0 0 1-2.98913 5.65906 2.06842 2.06842 0 0 1-1.00245 2c-1.02655-.6546-1.901.1618-2.833.32092-4.79322.8183-5.60437.19122-5.48383-4.65247a5.53743 5.53743 0 0 0-.822-3.8139c-2.75391-3.353-4.24084-7.78351-7.04285-10.73962-8.68933-9.16693-14.212-20.50489-22.00659-30.22913-2.99536-3.737-5.522-7.9422-10.06219-10.17468a5.09655 5.09655 0 0 1-2.44318-3.622c-.60657-2.34625-1.51764-4.37714-3.92-5.44055a2.90111 2.90111 0 0 1-1.847-2.23542c-.61065-6.86908-5.90063-10.50872-10.20428-14.78155a19.92863 19.92863 0 0 1-3.921-5.06055c-5.58124-10.834-12.97144-20.488-20.07428-30.32477a9.72787 9.72787 0 0 0-3.83453-3.12179c-1.0907-.51071-2.21106-1.20661-2.3097-2.4397-.56579-7.0733-6.64337-10.8829-9.66974-16.49225a9.30822 9.30822 0 0 0-4.75232-4.26626c-.46331-.18692-1.11456-.36978-1.26623-.75251-2.04614-5.16473-7.89484-7.71353-9.17065-13.40322a14.09659 14.09659 0 0 0-3.41089-6.581c-4.92932-5.33771-9.66138-10.57455-13.10492-17.31109-3.40265-6.65653-8.35584-12.71762-12.98511-18.79367-2.50195-3.284-5.16815-6.50461-6.42645-10.61655-.86658-2.83164-3.04224-3.16913-5.63874-2.28122-2.32312.79437-3.90716-.12619-3.276-2.57092.78058-3.02329-2.60479-5.64576-.49707-8.61612-.16662-6.5318 3.44208-12.00751 5.10852-18.02753 1.32416-4.78345 3.34986-9.36981 4.7666-14.13214a4.87821 4.87821 0 0 0-.6267-4.75049c6.386-20.1019 12.7127-40.22308 19.17065-60.302Q748.6318 266.71349 768.156 206.397c4.76972-14.78079 9.64093-29.53076 14.18641-44.38031a7.94631 7.94631 0 0 1 4.5343-5.39569q30.76391-14.23461 61.54242-28.43779c16.79235-7.79145 33.5263-15.70893 50.32934-23.47718 6.58321-3.04351 13.2842-5.83261 19.93153-8.73756z" class="cls-10"/><path d="M1097.0696 590.16668c12.897 4.48694 23.74683 12.31275 34.07483 20.96594 3.01 2.52192 5.87622 5.21534 9.78686 8.70276 0-9.84973.30591-18.56079-.11779-27.23614-.244-4.99762 1.10351-6.47779 6.24475-6.3277 13.61206.39746 27.24377.09937 40.86694.18085 1.5166.009 3.32227-.86353 4.58582.82232-2.55494 1.10736-5.23462.429-7.84168.44739-12.82385.09082-25.64978.13123-38.47229-.02423-3.07581-.03723-4.04492.8728-3.9718 3.95722.19556 8.24346.04748 16.4945.0968 24.74224-.0354-8.23437.1294-16.47168-.0625-24.70184-.072-3.08807.95825-3.99347 4.00513-3.96246 13.65576.13928 27.31531.171 40.97009-.01343 3.6073-.04871 4.83313 1.3161 4.57373 4.65936-.08972 1.15821-.00818 2.33051-.00818 3.49634q0 132.40824-.00317 264.81653a45.07613 45.07613 0 0 1-.11914 5.49115c-.18885 1.5423-.885 2.19574-2.676 2.04193-12.12585-1.04132-24.28259-.25818-36.42529-.44605-8.2312-.12731-10.44824-2.14679-10.72412-10.63324-.18933-5.82434.00268-11.65808-.07324-17.48657-.01844-1.41351.47326-3.208-1.421-3.86407-1.58484-.54883-2.29981.733-3.14637 1.80389-1.45935 1.84625-3.71679 2.73743-5.45422 4.28827-1.85449 1.65521-3.77564.74487-5.50452-.36371a23.53794 23.53794 0 0 1-8.2976-9.773 50.92247 50.92247 0 0 0-9.82874-13.73547c-3.87744-3.88428-3.9657-7.76782-.19409-11.829 4.18738-4.509 8.62219-8.78577 13.02148-13.089 4.93445-4.8269 7.844-11.08325 11.88831-16.53571.69641-.9389.48791-2.24664.33935-3.4093-.26245-2.4591.98792-4.50836 1.88941-6.63415a91.09862 91.09862 0 0 0 7.25171-36.49842c-.18067-22.3587-6.01209-43.10638-20.14283-60.96411-13.43981-16.98449-29.59143-30.36651-51.02514-35.67785-22.3617-5.54126-44.26245-3.75238-65.251 6.3222-2.98926 1.43488-5.733 3.41437-9.02734 4.2038-3.38318-.04779-5.982 1.75226-8.48889 3.68451-2.66614 2.05493-5.25 1.33984-6.056-1.41077-1.872-6.38831-6.73523-10.63641-10.33142-15.75623-3.82105-5.43994-7.01478-11.31225-11.53418-16.29431-3.02356-3.33313-2.76142-5.7929.84649-9.04272a71.65522 71.65522 0 0 1 17.90839-11.25659 128.46781 128.46781 0 0 1 30.96484-10.27588 167.6031 167.6031 0 0 1 39.15741-2.5503c7.762.40534 15.52069.55585 23.14191 2.33124 6.375 1.48505 12.78 2.91388 18.86682 5.32123 1.90131.75197 3.85675.8622 5.71747 1.51308z" class="cls-11"/><path d="M1134.08339 772.27081c2.933 6.114-3.21667 8.69232-5.26477 12.71472-4.58069 8.99609-13.0354 14.81866-19.8081 22.02637-3.68946 3.92657-3.22876 5.8714.59326 9.97528 3.79321 4.07306 7.69006 8.31988 9.46582 13.83185 1.08557 3.36993 3.92053 5.48059 5.92517 8.06286 2.77429 3.57367 9.553 2.12232 11.60559-2.29547 1.08948-2.34479 2.39258-2.41772 4.22559-2.20605 2.49.28741 1.93908 2.31787 1.95642 3.8767.05566 4.99543.49768 10.052-.1228 14.96967-.53772 4.263 2.00036 7.54028 2.3767 11.44867.22107 2.29553 2.60584 1.56635 4.13562 1.57318 11.82373.0531 23.64783.01184 35.47181.04749 1.95593.00592 4.05395-.55719 6.16027 1.85131v-7.23852q0-133.1445.10242-266.28876c.00769-4.85492-.90076-6.67309-6.2262-6.482-12.30773.44171-24.64562.30865-36.96362.04571-4.09057-.08722-5.09924 1.31073-4.98962 5.149a182.32144 182.32144 0 0 1-.9032 25.85638c0-9.72961-.01489-19.45922.00781-29.18872.00818-3.54242 2.73877-2.68524 4.71582-2.692 15.32105-.05225 30.64234-.03174 45.96363-.03375.09973 1.82.28637 3.64.28674 5.46008q.0249 135.55425.00183 271.10852c-.00037 1.809-.2677 3.618-.41052 5.42694-4.23706 1.06689-8.54554.41327-12.81555.45624-10.93177.11017-21.86548.058-32.7981.01355-1.61939-.00659-3.3186.45044-4.8573-.48572l-.1062-.05884c-1.09778-9.669-.14026-19.37445-.56226-29.05151-.05578-1.27832 1.412-3.48-1.43347-3.84186-15.1897 15.48785-32.6499 27.48444-53.53149 33.87994-51.59925 15.80359-116.38208 2.29065-156.13587-47.3714-19.10608-23.8681-29.36432-51.0017-31.722-81.40313-3.04047-39.20679 5.82049-75.06555 29.94446-106.4505 21.88714-28.4748 50.04321-47.40949 85.98846-53.31287 5.29584-.86969 10.69971-2.16388 16.20154-1.46875 1.61822-.73492 3.35419-.17834 5.014-.45709 7.06616-1.61615 14.13171-.0824 21.11554.44336 13.95422 1.05054 27.56567 4.06421 40.37854 10.00512-2.65442.19269-4.99256-.707-7.53162-1.42675-6.48486-1.83814-13.1565-3.27106-19.74609-4.75617-14.84925-3.34643-29.71125-1.53442-44.47394-1.24737a55.74856 55.74856 0 0 0-17.53687 2.98932c-5.3645 1.932-11.54907 1.83679-16.725 4.58868-5.75733 3.061-12.75116 3.72412-17.64148 8.01923-3.81781 3.353-9.09247 4.25378-12.27094 8.45947-1.80524 2.38873-2.24164 4.23877.07947 6.41669 5.64325 5.295 8.54437 12.595 13.368 18.4696 3.66711 4.46613 7.56018 8.597 8.9953 14.5332.5661 2.34113 2.44061 1.614 4.23053.17682 2.54468-2.043 5.07922-4.72967 8.9931-3.47546-1.69775 3.25476-5.106 4.61865-7.70556 6.85889-13.54834 11.67529-24.91547 24.9093-30.99439 42.06958-.7193 2.03045-1.29883 4.148-2.96527 5.69342-4.80139 12.96746-6.44525 26.24908-4.05481 39.93658a6.1671 6.1671 0 0 1 .64466 1.42786c.893 5.42987.01574 11.00091 2.14184 16.41723 1.05408 2.68537 1.5119 5.58313 3.45056 7.88562 3.7453 4.55609 5.23987 10.32288 8.312 15.28546 15.03748 24.291 35.8183 40.61969 64.22309 45.85444 29.43634 5.42486 55.72467-1.39521 78.30731-21.61243a109.58884 109.58884 0 0 0 22.09216-26.82239c.88888-1.53456 1.69674-3.32508 3.82198-3.63752z" class="cls-10"/><path fill="#18a8bd" d="M1766.92311 838.32617c-9.75012 6.69659-20.31481 12.02185-30.46594 18.04284-16.26928 9.64978-32.71216 19.00708-48.984 28.65253-2.78247 1.64948-4.84912 1.7168-7.69152.0686q-64.05231-37.14019-128.27735-73.98132c-3.82287-2.18945-5.15088-4.56042-5.13489-8.988q.26661-73.95474.01184-147.91076c-.01159-3.87049 1.20984-5.89222 4.53394-7.77259 22.0769-12.48858 44.0249-25.20507 66.01965-37.839a4.76181 4.76181 0 0 1 .92578-.30578c3.34339 2.433.0033 3.57965-1.19836 4.32879-3.799 2.36829-7.26953 5.28785-11.49707 6.98249-2.18933.87768-3.23743 2.50018-1.55261 4.71014 7.66687 10.057 14.33948 20.824 22.12268 30.8053 2.27429 2.91687 4.04822 2.36645 6.67.71588 11.9469-7.52148 23.824-15.18011 36.66919-21.148 3.80615-1.76831 3.81336-1.75287 5.83533.86456-1.34924 1.80426-3.36035 2.67786-5.23364 3.74469-21.97449 12.51587-43.61182 25.60718-65.46338 38.33222-3.14917 1.83392-4.14295 4.31579-4.13343 7.81634.07679 28.46167.15345 56.92444-.06054 85.38477-.03675 4.898 1.90112 7.67163 5.8999 9.92065 14.2135 7.99433 28.40222 16.03553 42.42554 24.3628 10.44433 6.20208 21.20263 11.87225 31.4696 18.3656 2.74072 1.73327 4.79431 1.22424 7.32752-.19306 18.87915-10.56317 37.47168-21.62268 56.25793-32.34564 1.69373-.9668 3.24646-2.4519 5.48438-1.83191 1.7865 5.241-3.01722 5.60858-5.61573 7.6134a11.24705 11.24705 0 0 1-2.0343.86945c-7.73474 4.83179-15.95837 8.9632-23.47156 14.011-9.10315 6.116-19.25915 10.25775-28.20544 16.522-3.87683 2.71466-7.94006 2.37573-11.76392.06616-9.528-5.75464-19.2102-11.24-28.82031-16.85125a65.04569 65.04569 0 0 0-8.22644-4.4975 1.48839 1.48839 0 0 0 .2583 1.98486c10.43567 12.55438 18.53845 26.78552 28.667 39.59851 6.35645 8.04114 11.899 16.77112 18.131 24.97235 2.39428 3.15094 4.35583 3.82569 7.88818 2.02368 9.33069-4.76 18.07568-10.54467 27.27136-15.48352 13.13623-7.05511 25.35217-15.757 39.08362-21.72894a5.16057 5.16057 0 0 1 2.85449-.86926 2.67083 2.67083 0 0 1 2.0232.98692z"/><path d="M1453.14516 854.3999c-63.38318 37.18518-122.4917 30.09039-178.2074-17.02289 0 1.78546.00013 3.71539 0 5.64526-.00049 37.6521-.0719 75.30451.09607 112.95587.019 4.28626-.88574 5.71277-5.44238 5.59845-13.31982-.33435-26.66016-.36316-39.978.0058-4.95276.13721-5.9657-1.38391-5.9602-6.1123q.20709-178.68054.113-357.36145c.00025-11.70276.00391-11.7027 11.62391-11.70465 11.82873-.002 23.65808-.06177 35.48547.06237 1.592.01667 4.32165-1.35522 4.43555 2.13-.05176 9.19733.04626 18.39551-.0741 27.59149-.02039 1.56555 1.095 3.78192-1.57581 4.51276-2.72509-1.02015-2.13305-3.47852-2.176-5.48859q-.21882-10.24026-.0177-20.48584c.0686-3.56262-1.18579-5.14893-4.91236-5.11066q-16.73784.17213-33.47888-.00122c-3.73437-.03943-4.93164 1.57331-4.92675 5.11328q.07378 53.71756.02539 107.43543a10.28925 10.28925 0 0 0 2.28234 6.9447 19.0276 19.0276 0 0 1 3.6847 5.88538c1.37048 4.28753 3.4591 7.30072 7.95971 8.61206 1.677.48858 1.85816 2.61627 2.47925 4.14758 1.61255 3.97577 2.37732 8.30707 5.59509 11.5849 1.89 1.92542.46021 4.03723-.52307 5.95123 3.88477-.41662 5.23023 1.76453 4.49659 5.13672-.5564 2.55762.16992 3.12238 2.56274 3.38092a14.72147 14.72147 0 0 1 10.92212 7.12464c3.43017 5.30279 7.56616 10.15911 10.22168 15.958 1.15076 2.5127 4.08716 3.34534 5.36291 5.821 2.15613 4.1842 5.9668 7.65942 5.24646 13.02887a2.72571 2.72571 0 0 0 .99683 2.23138 8.36223 8.36223 0 0 1 2.84692 7.59064 2.59735 2.59735 0 0 1 2.05335-3.30939c2.14245-.5343 3.01367 1.0586 3.60168 2.64838 1.01673 2.74841 3 4.81238 4.84107 6.9245 6.84973 7.85876 12.51391 16.67157 19.649 24.29394a5.83682 5.83682 0 0 1 1.49585 3.09784c-.01135 2.96991 1.38807 5.37036 3.05262 7.69354.85888 1.19849 2.25451 2.28541 2.2207 3.79816-.07446 3.33154.37732 5.87958 4.55945 6.02973a1.53836 1.53836 0 0 1 1.10364 2.60534c-4.11426 4.03821.40918 6.15686 1.33227 10.10718 1.62988-2.85516.89258-6.6405 4.93811-5.29529 5.98328 7.39459 13.85828 9.4989 23.026 8.73523a115.578 115.578 0 0 1 15.39026-.02691 93.1316 93.1316 0 0 0 22.59912-1.98176c9.60413-.951 18.50257-4.41253 27.50427-7.59191 5.7981-2.04792 10.80079-5.57392 16.32032-8.11383 1.74267-.49195 3.13513-1.96155 5.09826-1.85285a2.6198 2.6198 0 0 1 2.04995 1.07697z" class="cls-13"/><path d="M1272.804 620.27844c3.05347-.63867 1.88269-3.10108 1.9607-4.86347.39563-8.93554-.588-17.90063.54663-26.82153.12085 9.25873.18432 18.51636.45471 27.76782.02612.89264-1.62439 3.95673 1.92871 2.7107 6.68335-4.12922 13.10779-8.57227 18.00745-14.86268 15.32861-11.76678 32.786-18.688 51.66858-21.89013 29.38989-4.98383 57.85571-1.07508 85.43567 9.958 1.28845.73815 2.80786.98706 4.01586 1.89569a146.14289 146.14289 0 0 1 39.24866 27.90753c21.98462 21.96338 35.79529 48.21252 40.79334 79.02777 2.03833 12.56744 2.29748 25.1806 1.94311 37.84607-.08838 3.15808-.07214 6.33728-1.154 9.37677-.39172 1.31329-1.21143 2.55694-.65515 4.02453q-.11517.9615-.23047 1.92292c-.0531.67938-2.38232 1.19592-.14587 2.03906-2.302 13.7019-6.021 26.94727-12.64869 39.25543-.48974-.13739-1.04931-.3363-1.23181-.77478-5.90137-14.17847-17.03393-24.743-25.53088-37.12469-3.57483-5.209-7.35388-10.23487-11.27393-15.18067.19824-5.36108 2.61829-10.61712 1.37354-15.99035-2.37293-10.24195-.91529-21.31641-6.67554-30.8064a11.24963 11.24963 0 0 1-3-4.50671c-10.61218-24.67151-27.775-42.99353-52.43652-54.03235a9.89445 9.89445 0 0 1-3.63269-2.55744c-3.36853-3.61261-8.3562-3.69287-12.45642-4.3388-10.45984-1.64771-20.98816-5.0644-31.81324-1.07392-3.78393 1.395-8.05835.719-12.16687 1.98853-13.99084 4.32287-26.64013 10.72735-37.26843 20.91815-1.89917 1.82105-3.41943 4.14453-6.11426 5.00214-1.37976.14038-2.6217.04413-3.282-1.49976-4.9408-11.55328-14.12036-20.10553-21.31775-30.06207a5.82761 5.82761 0 0 0-3.17981-2.18854c-1.4068-.43798-2.18963-1.50926-1.16263-3.06682z" class="cls-14"/><path d="M1734.96181 600.143c12.89185 6.15265 24.86218 13.94714 37.25086 20.99237 15.476 8.80078 30.69458 18.05524 46.2069 26.78973 2.83838 1.59827 2.48914 3.54908 2.49158 5.76429q.041 37.20813.01953 74.41632c-.00012 24.97192-.03857 49.94391.04126 74.91559.01026 3.20221-.2705 5.3905-3.92273 6.84155-4.33923 1.72412-8.194 4.66736-12.25879 7.08234a2.19328 2.19328 0 0 1-.61193-1.4621c.60424-3.335 3.44995-4.39295 5.99524-5.43726 5.55273-2.27838 7.709-6.13818 7.35119-12.13562-.40613-6.80762-.09448-13.65741-.094-20.48889a8.67011 8.67011 0 0 0-2.254-6.36993 206.51442 206.51442 0 0 1-23.51792-31.39319c-5.41137-8.65973-13.60717-15.07233-18.58337-24.88788-1.23633 2.12128-.87939 3.57-.88171 4.89764-.03028 17.49518.04065 34.99073-.085 52.48517-.01709 2.391 1.08142 5.59729-2.7229 6.57508a1.86042 1.86042 0 0 1-1.28614-.98005c-1.01574-2.39251-.71386-4.92175-.71606-7.40277-.02368-27.65057-.12488-55.30194.08227-82.95092.04-5.35895-1.81836-8.50074-6.51672-11.07728-14.30872-7.84686-28.42468-16.04949-42.49182-24.32775-2.116-1.24518-4.55139-2.1861-5.71509-4.63092.66687-2.712 2.57349-1.99524 4.22864-1.36438 2.48193.946 4.75476 2.37567 7.15027 3.39959-3.38892-8.16821-9.56617-14.63238-13.94629-22.27423a87.9248 87.9248 0 0 0-11.16406-15.65143c-2.568-2.80066-5.50757-5.43188-5.35877-9.76391.05579-1.62366-1.324-2.07849-2.41955-2.84717-7.38-5.17865-11.08411-13.24738-16.79578-20.062-3.00427 1.858-6.68494 4.39087-10.36047 6.92773-2.486 1.71576-4.958 2.72083-7.61255.3559 7.96447-5.93323 17.18762-9.78632 25.37829-15.34876a2.8499 2.8499 0 0 1 3.29175.1131c16.30823 10.26087 33.77747 18.54675 49.8064 29.28235-2.16651 2.42-4.29554-.04584-7.34949-.105 5.585 7.50677 9.72095 15.33166 15.654 21.92639 2.342 2.60321 4.70764 5.14526 6.06714 8.44611 2.19592 5.33166 6.49024 9.12658 10.172 13.29138 6.62707 7.49689 11.81518 16.01355 17.40832 24.19562q12.66064 18.52112 26.70935 35.94586c3.406 4.2315 4.02967 9.91394 8.01014 13.70471 1.60473 1.52826 2.93493 5.12012 4.93981 3.94665 2.16028-1.26434 1.79737-5.39288.47962-7.31555-2.41406-3.52227-4.08765-7.7063-7.32825-10.52569a43.72781 43.72781 0 0 1-11.78332-16.43335c-.84326-2.01593-1.603-4.26776-3.52564-5.33466-10.65832-5.91479-13.33081-17.615-19.58618-26.70685-1.4248-2.0708-.45654-4.46954-.32727-7.184-4.66211 1.61206-7.24121-.47351-8.90747-4.28094a7.94121 7.94121 0 0 0-1.69641-2.45661c-7.60816-7.50793-12.68677-16.79406-18.60425-25.53613-2.53992-3.75232-5.122-8.46972-10.86963-9.98132-4.25435-1.11893-.43587-3.72059.559-5.57893z" class="cls-15"/><path d="M1034.80642 152.27783c-.376 2.7408-2.60987 5.01262-2.019 7.99749-5.7669-3.44584-8.47552-9.52322-12.21515-14.62229-12.31219-16.78814-23.813-34.16214-36.513-50.67835-5.01922-6.52758-9.77624-13.25684-14.84594-20.15742 19.47741-8.02456 37.68634-17.92748 56.43487-26.70259 1.086-.50828.87818-1.20177.11255-1.87607 13.66461-7.347 28.062-13.15082 41.99622-19.93043 1.61694-.78669 3.33593-1.36335 5.00769-2.03742 1.28515-.7877 3.123-.54634 3.97729-2.1362q.49256-.42217.98438-.844c1.121 1.57984 1.03747 3.43447 1.19409 5.2349q-.16827.86733-.33679 1.73349c-1.73792.96769-.99683 2.90246-1.67163 4.28487a10.6231 10.6231 0 0 1-2.02588 5.84651c-3.8147 5.66456-4.82361 12.41156-7.05652 18.66957-5.85913 16.421-10.92273 33.10988-16.9082 49.50344-4.69788 12.86727-8.59259 26.04769-12.8078 39.10059a18.76608 18.76608 0 0 1-3.30718 6.61391z" class="cls-16"/><path fill="#18aabe" d="M1804.70717 816.28088q.05054.33105.08338.66437-18.93384 10.69034-37.86744 21.38092-1.05963-.03233-2.11914-.06452c-1.3999-1.10754-2.34375-1.31457-2.0028 1.01453a159.16661 159.16661 0 0 1-14.07764 7.63745c-13.25781 6.85132-25.5968 15.2699-38.92969 22.00623-4.99023 2.52136-9.96448 5.482-14.91028 8.3056-2.89733 1.65423-4.85974 1.54376-7.01147-1.54456-4.71545-6.76794-10.36548-12.90973-14.811-19.83526-7.96032-12.40125-17.90918-23.39038-25.22009-36.24634-1.85583-3.26367-4.65954-6.00653-7.15137-8.88153a8.24208 8.24208 0 0 1-2.1444-3.84741c-.15162-.775-.84058-1.653.14428-2.18409a2.23752 2.23752 0 0 1 1.78052.2771c11.14709 6.45856 22.31165 12.88831 33.38647 19.46918 7.17908 4.26587 10.46949 5.936 17.6073.88043 5.29114-3.74762 11.998-6.41522 17.81128-9.66711 5.86487-3.28082 11.839-6.80731 17.47559-10.62085 4.58874-3.10461 9.83142-5.10077 14.05334-8.73682a2.66925 2.66925 0 0 1 .49244 3.19178c-.04944.245-.37781.37548-.43079.53222-.21191.6275.62488.57843.09607.17261a1.22839 1.22839 0 0 1 .12036-.34015c.87122-1.07477.55066-2.68036 1.72192-3.56622.04468-2.395 2.42908-1.60272 3.49353-2.57959 1.26392-1.15985 2.85828-2.19037 2.50843-4.3136a40.373 40.373 0 0 1 19.85815-11.24927l.21069.21051c1.91651 1.67-.68652 4.77.56641 5.24341 2.40039.90692 3.14758 2.79 4.35767 4.45068 3.60583 4.94843 7.343 9.798 11.00927 14.70032 3.02124 4.03986 4.92786 8.71893 8.21558 12.71179 2.22644 2.70423 3.301 2.734 5.77808 1.428 1.83028-.96486 3.73091-2.4988 5.90535-.59981z"/><path d="M1656.46389 586.07861c5.30993 2.05145 8.10376-2.84686 11.84106-4.705 2.47791-1.232 4.8512-3.18988 7.40869-4.61853.12354.25354.22852.52472.37793.76868 4.72962 7.72381 8.6781 16.18164 17.1958 20.61529 1.69007.87976 2.40381 1.08307 1.73413 2.989-.97046 2.76178.73255 4.76141 2.31629 6.72088 2.72168 3.36689 5.19665 7.25708 7.902 10.21125 5.12048 5.59137 7.30212 12.80365 12.41235 18.29626 3.86865 4.15808 6.24011 9.70892 9.69055 15.30975-5.93127-.69659-9.33752-5.743-14.6853-5.13348-.20532-.10876-.41065-.21753-.619-.32159a22.66958 22.66958 0 0 0-8.29028-6.05213c-5.99756-2.36657-10.88941-6.66943-16.71021-9.39868-3.44958-1.61737-5.58484-1.07159-7.31067 2.11365-1.29443 1.50488-2.463 3.31244-4.91443 2.11035-1.94189-1.44867-3.17651.09631-4.84057.85175-13.2511 6.01611-25.4646 13.78161-37.57617 21.75091-2.78638 1.83344-4.96875 2.18866-7.454-1.44672-7.46228-10.916-15.54969-21.40313-23.31153-32.11688-2.07446-2.86352.38489-4.7406 2.352-5.36773 4.66053-1.48572 7.88721-5.24628 12.29212-7.08.72339-.30121 3.24695-1.17035 1.58569-3.283 12.57376-7.916 25.40836-15.37828 38.60355-22.21403z" class="cls-18"/><path d="M1466.81862 743.27844c4.29615 2.18579 6.3208 6.40088 9.00159 10.03918 4.288 5.82025 8.31213 11.87354 13.02039 17.3346 4.74438 5.50287 7.82128 12.13189 12.71838 17.53235 1.5885 1.75177 1.65259 4.88592 2.41394 7.38806-4.339 10.028-9.76282 19.37231-17.26831 27.40484-3.63025 1.34168-5.06348 4.946-7.49756 7.48188a173.881 173.881 0 0 1-23.24792 20.86016c-1.6355 1.1839-3.61963 1.64972-5.15516 2.94208q-2.00005 1.006-4 2.012a16.89807 16.89807 0 0 1-7.48339-8.25518c-2.37171-5.35871-6.31629-9.64942-10.02576-14.067-3.50659-4.176-6.13086-8.99225-9.7417-13.08917a5.05781 5.05781 0 0 1-1.34509-4.1239 3.86281 3.86281 0 0 1 .66357-1.31556c3.04065-3.82336 7.48145-5.96594 11.26062-8.8164 5.756-4.34155 10.20557-9.61676 14.99439-14.86084 6.34607-6.9494 10.1007-15.09992 13.99462-23.23053 3.31824-6.9281 6.33448-14.15058 6.46631-22.11249a3.71027 3.71027 0 0 1 1.23108-3.12408z" class="cls-16"/><path d="M1034.80642 152.27783c1.57928-5.24272 3.0393-10.52512 4.76721-15.71838 2.28637-6.87205 5.37542-13.53528 7.01971-20.54618 1.61273-6.87624 5.137-12.90786 7.129-19.57462 2.11914-7.09194 4.69165-14.04867 7.07947-21.05995 2.43811-7.15907 4.95385-14.29242 7.31836-21.47561 1.66284-5.05147 3.35522-10.11308 4.59936-15.275.75757-3.14326 1.32959-1.30511 2.16651-.23747q-8.27309 25.20453-16.54908 50.40865-9.86608 29.98095-19.7818 59.94554a33.48769 33.48769 0 0 1-1.64654 3.5618q-1.05106-.01442-2.1022-.02878z" class="cls-9"/><path d="M868.80642 650.27844c.40765-5.37067 2.51159-10.52051 4.693-15.05139 3.86114-8.02 4.20148-17.16846 9.07947-24.798 1.48425-2.32153.53021-5.97406 2.30267-8.65149 1.20007-1.81286 1.60333-.97772 1.92639.473q-6.98309 21.5127-13.9718 43.02411c-.558 1.715-.78155 3.57367-2.04626 5.00208l-1.98347.00169z" class="cls-19"/><path d="M1450.804 854.26159c2.0835-3.23981 5.58692-4.99029 8.48755-7.12823a107.96278 107.96278 0 0 0 23.64563-23.57276c1.205-1.66089 2.34363-1.48321 3.7677-.58319-5.36779 6.627-10.61779 13.26892-17.38232 18.70752-5.34729 4.29913-10.3689 8.99835-16.17774 12.71485q-1.17006-.06894-2.34082-.13819z" class="cls-20"/><path d="M1295.70217 604.20928c-.145 4.79572-4.413 6.66327-7.293 9.01746-2.437 1.992-5.28516 3.61707-7.52734 5.95984-1.14563 1.197-2.17579 1.361-3.187-.11456a72.97159 72.97159 0 0 1 18.00734-14.86274z" class="cls-21"/><path fill="#2991b2" d="M664.52559 1022.3728c.59638.21515 1.60279.29248 1.72827.666 2.24616 6.68378 4.389 13.40228 6.54651 20.11572 1.189 3.7 2.80359 7.33039 1.91608 11.38154a307.07308 307.07308 0 0 1-10.19086-32.16326z"/><path d="M1141.91811 869.25439q25.23559.00788 50.47107.01587c-1.96936 1.35492-4.18433.60675-6.2666.61969q-19.70452.1224-39.41028.02026c-1.60083-.00574-3.33777.56433-4.79419-.65582zm-2.10193-32.95221c3.41565-1.16376 1.89356 1.7439 1.90576 2.6673.13367 10.07416.08765 20.15075.09033 30.22638-1.80322-2.34992-.76257-5.05823-.824-7.57733-.16882-6.93714-.00757-13.88184-.10327-20.82178-.021-1.51807.7521-3.35504-1.06882-4.49457z" class="cls-11"/><path d="M1516.99819 752.35552c-4.708-2.14386 1.37573-2.53051.65527-4.02484.22522 1.41407.39111 2.81812-.65527 4.02484zm-.37634 3.96198c-.66871.02887-.9972 1.91327-1.64075.67261-.64771-1.248-.004-2.58362 1.78662-2.71167q-.07287 1.01956-.14587 2.03906z" class="cls-16"/><path d="M1076.742 22.13455c-.18274 2.83981-2.33276 2.01695-3.977 2.13616a8.33682 8.33682 0 0 1 3.977-2.13616z" class="cls-5"/><path fill="#bceced" d="M1436.82228 594.17285a5.88755 5.88755 0 0 1-4.01586-1.89569c1.72082-.17786 3.17883.20123 4.01586 1.89569z"/><path d="M1035.57528 579.71838c-1.59076 1.02978-3.33167.415-5.01325.4574 1.58557-1.08509 3.29016-.87287 5.01325-.4574z" class="cls-11"/><path d="M1076.912 32.54385c.05322-1.62507-.9325-3.6555 1.67175-4.285-.29833 1.52947-.48998 3.10037-1.67175 4.285z" class="cls-5"/><path d="M566.782 1109.54028c-.08862 1.2489-.12982 2.51513-1.11835 2.25183-2.42688-.64649-3.6535-2.69775-4.42517-4.93445-.361-1.04626.462-1.63806 1.37195-1.38269a6.662 6.662 0 0 1 4.17157 4.06531zM134.91443 328.85156c-2.02887-.9838-3.237-2.307-2.38067-4.54694.12175-.31851.98542-.71423 1.19767-.58154 2.10842 1.31827.46231 3.43847 1.183 5.12848zM423.1263 914.29278c1.70529.89648 3.532.81207 3.48538 2.96887-.01034.4776-.88824 1.40387-1.16415 1.33313-1.92215-.49255-2.16281-2.05627-2.32123-4.302zm17.72345 24.10071c-1.74789-.518-2.44995-1.21155-2.197-2.64081 1.89134-.1029 1.926 1.29321 2.197 2.64081zm-5.1582-7.85504c-.02393.687-.19614 1.17773-.7753.93445a1.61311 1.61311 0 0 1-.76706-1.01008.59935.59935 0 0 1 .80707-.74646c.3395.11864.5513.60273.73529.82209z" class="cls-1"/><path d="M1918.80873 600.2882c1.58851 2.59284 3.29358 2.642 4.91346.09534 1.0144-1.59479 2.10425-2.66785 4.02673-1.49 1.93494 1.18542 1.87195 2.665 1.02686 4.68732-.69263 1.65747-3.4889 5.51336 2.18347 3.595.92895-.31421 1.44409.18451 1.50024.71838.52869 5.03247 5.585 6.20056 8.09351 9.55341 2.98535 3.99 3.02417 6.65564-.61609 9.74457-.84241.71472-2.61194 1.948-1.40881 2.44189 2.39746.98419 2.57507 4.69257 5.4447 4.32422 2.03393-.26111.9303-1.9585.69458-3.20465-.40894-2.16205 1.3042-1.4173 2.24817-1.38776 1.48877.04651 2.26391.97186 1.3739 2.307-.81946 1.22906-1.99036 2.17315.51452 2.60553a17.80005 17.80005 0 0 1-12 3.99756c-3.39489-.435-6.079-1.53083-7.88-4.97663-1.71741-3.28558-3.2135-3.03167-5.389.42285a3.40883 3.40883 0 0 1-4.01184 1.80085c1.28931.51721 3.00342-.25483 3.94507 1.3305 1.37353 2.31232-1.11218 5.31165 1.33581 7.42487-1.27148 3.448-4.38806 5.33142-6.80981 7.73755-6.78748 6.74383-10.48071 14.93274-13.41211 23.952-3.63586 11.1875-3.93079 22.48731-3.802 33.96509.03491 3.11072.47534 6.262-1.60364 9.13055a4.249 4.249 0 0 0-.16016 3.83521c2.88172 4.65186 1.71936 9.71436 1.73255 14.59277.094 34.81678-.13342 69.63568.19617 104.44953.07092 7.489-3.42 14.43921-2.23243 21.96106.31946 2.02325-1.34631 2.37054-2.99218 2.36847-4.49781-.00574-8.99622-.03522-13.49329.02056-1.85352.023-2.85181-.4671-3.62573-2.46972-2.30127-5.95484-7.23987-10.32764-10.12293-15.97632-.14673-.28735-.41528-.75012-.60962-.74139-6.938.31219-6.48962-4.99085-7.26245-9.41938a2.68753 2.68753 0 0 0-1.09228-1.58593c-5.15113-3.36445-4.75916-8.49189-4.75476-13.72q.09777-113.94643-.07752-227.89276c-.012-5.1322 1.339-6.51776 6.38574-6.32544 10.47986.39942 20.98706.22217 31.47962.06153 3.24316-.04962 4.411.96856 4.31677 4.2702-.19971 6.991.056 13.99469-.12207 20.98682-.06348 2.49035.30188 4.67932 2.59106 5.70581 2.41358 1.08209 2.86536-1.81122 4.27125-2.79932a26.76861 26.76861 0 0 0 3.19982-3.10687c1.12952-.79871 2.46558-.07379 3.71949-.5091-.08655-1.16992-1.68958-1.31219-1.7146-2.489a28.85746 28.85746 0 0 1 9.99983-9.99217z" class="cls-6"/><path d="M1924.804 644.27844c-1.21923-1.3534-4.76452-1.34326-2.02978-4.87628 1.54858-2.00049-.684-3.0896-2.79456-3.11475-2.18762-.02612-3.94641-.415-3.17932-3.90424 3.27771 2.9256 5.74011 4.11487 6.32373-1.69091.22632-2.25141 3.32617-1.939 4.45069-.74537 2.86584 3.04224 5.28711 6.49591 9.22924 8.32911-1.12805 1.07763-2.12829 2.4104-4 2.00244a13.788 13.788 0 0 0-8 4z" class="cls-4"/><path d="M1924.804 644.27844c1.43287-3.80109 3.86976-5.59381 8-4-1.9075 2.8518-4.78189 3.76956-8 4z" class="cls-6"/><path d="M1908.80886 610.28033c1.15368 1.34729 4.96765.44476 3.98108 2.86432-.9712 2.38153-3.90577 1.05182-5.986.13379a3.02627 3.02627 0 0 1 2.00492-2.99811z" class="cls-4"/><path d="M700.80153 424.27844c.0661 3.51465 3.65814 6.478.87 10.72162 2.90942-.36512 4.65265-2.63208 7.16339-1.24454 2.43017 1.34314 2.2904 3.78268 3.32782 5.74753a59.75084 59.75084 0 0 0 6.70038 9.77441c4.38293 5.35709 7.23919 11.80563 12.14312 16.76233 1.98816 2.00952 1.71692 4.8985 3.04926 7.24484 2.37659 4.18552 6.75854 6.25412 9.51276 10.04441a27.84422 27.84422 0 0 1 3.91589 7.38742c.72339 2.08755-.8183 6.54226 4.4361 4.11114.81823-.37863 1.7597 1.67807 1.48944 3.13086-.63617 3.41888 1.0603 5.39374 4.127 6.23871a6.06631 6.06631 0 0 1 2.75867 1.84967c3.89471 3.79138 7.97925 8.65781 9.44336 12.83832 2.24951 6.42312 7.10052 9.99746 10.58447 14.84445 4.62695 6.43732 9.96631 12.65137 13.42651 19.57611 4.3158 8.63721 11.34 14.70312 16.85144 22.13275 1.20337 1.62219 2.7981 2.89642 1.63111 5.231a1.44766 1.44766 0 0 0 .86346 2.05023c4.58533.361 4.5788 4.1435 5.43238 7.17182.97167 3.44744 4.74487 3.2387 6.8244 5.74725 6.43475 7.76251 11.85809 16.14941 17.37115 24.51031 2.82965 4.29139 6.92267 7.68872 9.61951 11.83167 2.82538 4.34057 5.54431 8.85925 8.49988 13.14752 1.65857 2.40656-2.90729 4.99036.48053 6.60736 1.89483.90442 4.44848-1.73675 6.4804.54279-3.87756 10.39489-7.47308 20.93982-10.58453 31.5329-4.13943 14.09297-9.46643 27.72334-13.9406 41.65268-2.40039 7.47315-6.00434 14.67054-6.649 22.76056-.26447 3.31873-2.52032 6.39222-4.06256 9.27832-3.5849 6.70819-3.3559 14.399-6.82227 21.1659-3.19751 6.242-4.67572 13.36383-6.92071 20.095-1.3772 4.12915-2.68994 8.28253-4.18866 12.36749-.98181 2.676-2.90521 2.72864-4.55451.773-1.5014-1.78033-3.5567-3.13171-4.79779-4.89459-4.9176-6.985-11.29913-12.74872-14.79718-21.02972-2.49255-5.9007-8.03027-10.52167-12.24914-15.68091-.80194-.98059-2.04108-1.00489-3.22437-1.05487-.84179-.03559-1.89679-.1493-1.92877-1.16455-.30267-9.60309-6.87689-15.3158-13.17584-21.11322-2.64124-2.43091-2.91-5.91785-4.69763-8.69367-5.79065-8.99152-13.492-16.79681-18.89746-25.73328-6.12684-10.1289-15.36719-17.82684-20.23877-28.89209-2.18244-4.95727-6.16663-9.55657-9.7613-14.08691-6.98272-8.80041-15.33477-16.577-20.22992-27.26855-1.69042-3.692-5.27343-7.90168-8.69134-11.47351-5.46259-5.70874-10.71576-12.04206-13.95453-19.48676-1.867-4.29187-6.26575-6.58344-7.933-11.01532-.35639-.94733-2.07331-2.79663-4.0445-.74915-1.42828 1.48353-2.72754.16077-3.75683-.98706-1.27784-1.42492-.40033-2.63818.756-3.32086 2.483-1.46582 2.31256-2.82568.32269-4.54754-.82007-.70954-1.18109-1.31952-.73785-2.86628 3.72565-13.00048 7.98724-25.81146 12.23822-38.64611 2.46448-7.44074 5.445-14.79114 6.80224-22.71848 1.18091-6.89774 4.37842-13.44931 6.67518-20.1571 2.348-6.85785 4.66046-13.728 7.03192-20.57767 3.47271-10.03092 6.067-20.332 9.39532-30.42041 2.4563-7.44519 5.84265-14.68424 6.95154-22.69122.35859-2.58944.33045-6.5432 3.66352-8.356z" class="cls-19"/><path d="M773.15908 210.83654c-1.2804-.4824-2.40168-1.09942-2.26068-2.752.1015-1.18924.74469-1.8383 1.929-1.55711 1.52966.36317 2.0011 1.56706 1.89539 2.99683-.06548.88597-.45403 1.57367-1.56371 1.31228zm-5.56995 10.77121c-.876-.41285-.76172-1.09-.7309-1.70642.02509-.50227.18323-1.061.84211-.82962a1.17805 1.17805 0 0 1 .76318 1.55872c-.13562.39357-.59222.67657-.87439.97732z" class="cls-9"/><path fill="#2999b4" d="M954.87764 696.30029a138.32888 138.32888 0 0 0-3.89178 41.86474c-2.20441-.01226-2.17755-1.57385-2.17713-3.12652.00165-6.48548-.98309-13.1695.27637-19.40021 1.24359-6.15253 1.776-12.55572 4.13709-18.47522.17468-.43808 1.08636-.58208 1.65545-.86279zm-3.96515 41.87231c1.9881 8.68885 3.38056 17.517 6.08826 26.0376-3.12036-.49542-3.41693-3.69086-3.84631-5.491-1.59851-6.70126-3.33698-13.50613-2.24195-20.5466z"/><path d="M1118.611 841.78991c-2.7041-.46161-3.96533-1.69171-3.64941-4.0199a1.57216 1.57216 0 0 1 2.21154-1.327c2.99974 1.2454-.72194 3.77689 1.43787 5.3469zM972.59664 645.40118c2.68011-1.6861 4.90851-.89478 7.04089-.82166-2.05469.50721-3.98353 1.95533-7.04089.82166z" class="cls-11"/><path d="M1762.80117 839.27618c-1.47779-1.29456-1.22144-2.82874.33813-3.3692 2.03076-.70374 1.457 1.28821 1.66467 2.35486a2.1165 2.1165 0 0 0-2.0028 1.01434zm-21.99717-38.99774v-3.99036q.99995-.00476 2-.00964c.0936 1.7135-.17923 3.24377-2 4z" class="cls-18"/><path d="M1272.804 620.27844c.09815.4804.07776 1.31164.31141 1.39056 8.21167 2.7713 10.1809 11.20722 15.35107 16.71057 3.67224 3.90894 6.11035 8.75379 9.78882 12.45026 1.80408 1.81293-.07691 4.58923 2.5487 5.45105-.19628 4.44409-2.67761 6.62921-7.61816 6.72082-1.14783-.49713-2.31519-1.54644-2.0415-2.56817 1.0747-4.014-3.02015-7.33313-1.2793-11.41931.52759-1.23829-.64148-2.11243-1.82044-2.56189-1.3999-.53369-2.76281-1.15534-4.14917-1.718-4.94372-2.00647-6.192-1.46057-7.78381 3.29218-1.46045 4.36077.593 9.0202 4.4021 9.98852 5.44556 1.38446 5.76209 2.11768 2.88562 6.74268 2.0249 1.33593 4.95252 1.27282 6.13977 3.92376a3.85762 3.85762 0 0 1-.48132 3.81946c-4.21655 4.82916-6.20032 10.95307-9.40454 16.3631-2.80713 4.73968-4.17041 10.546-5.066 15.93341-1.2616 7.58966-2.91626 15.18188-2.57215 23.11078a125.80253 125.80253 0 0 0 6.95227 35.744c4.46314 12.98462 12.39283 23.51574 21.44312 33.62317 7.39709 8.2611 15.6012 15.64532 25.31811 20.33166 9.00843 4.34479 18.08875 9.19659 28.85718 9.6886 5.76514.26349 11.74256 1.36767 17.61182 2.17248 4.33862 3.68927 7.31555 8.5561 10.488 13.12543 5.6748 8.17328 11.767 16.01868 17.6372 24.03595 1.218 1.66345 3.11365 3.129 2.4812 5.64649-13.29223 3.293-26.85119 1.29724-40.26184 2.1123-9.58288.5824-17.30859-1.89471-22.73816-10.10986-.58764-.29151-1.34191-.48633-1.61865-1.07288-3.97192-8.421-11.58081-14.398-15.38135-22.92712a4.23592 4.23592 0 0 0-1.28076-3.59015c-7.31531-6.51-11.90368-15.2865-18.49731-22.45331-2.59033-2.81549-6.52-5.33856-6.51953-10.1496.00012-1.14081-1.17542-1.47418-2.293-.91888-.82288.40881-1.392 1.005-.9065 1.96.52417 1.03131 1.15418 2.01093 1.77185 2.99182.48694.77289.72327 1.55255-.07116 2.21613a1.11127 1.11127 0 0 1-1.91761-.637c-.84472-5.84252-5.85986-10.06164-6.24853-16.0119-.2522-3.861-4.7301-11.185-8.47241-12.95355-1.34571-.636-1.12732-1.82635-1.65857-2.75446-4.27527-7.46789-8.11829-15.25927-15.004-20.869a7.73826 7.73826 0 0 0-6.83313-1.92658c-3.62976.688-4.7395-.76794-2.39807-3.96649.70483-.96277 1.344-1.77441.73315-3.13293-2.47851-5.51215-3.83764 1.00079-5.98694.27447-.52539-1.08008.49732-2.02508 1.0448-2.891 1.77564-2.80823 2.28-4.86249-.93884-7.42713-3.00659-2.39538-3.215-6.85015-4.20239-10.35546-1.14514-4.06537-3.8999-4.33808-6.69983-4.61683-2.22607-.22168-4.57275.728-2.26318-2.81543 1.08191-1.65966.49865-2.97393-.79163-4.415-4.74121-5.295-6.84668-11.19623-6.75366-18.69043.42578-34.31495.28723-68.63874.07483-102.95771-.0304-4.90783 1.44323-6.14734 6.17273-6.01574 11.8197.32885 23.65637.22284 35.4823.03686 3.53125-.05554 4.59839 1.12128 4.52392 4.58124-.19705 9.15889-.06668 18.32485-.06653 27.48806z" class="cls-21"/><path d="M1402.804 872.276c-5.03112-7.12745-10.90441-13.70435-15.5957-20.97565-4.616-7.15436-10.86169-13.17108-14.4043-21.01947a31.54217 31.54217 0 0 1 10.73694-3.26453 77.28486 77.28486 0 0 0 32.09351-10.33075c1.03357-.60022 1.97986-1.27124 3.16467-.40228 2.02966 6.25909 7.04553 10.56183 10.65967 15.74487 4.12793 5.91986 9.39673 11.07117 12.14062 17.90943 1.09815 2.73681 4.49939 3.39435 5.20459 6.336-9.63208 6.2846-20.39758 10.181-31.23193 13.48181-3.96548 1.20813-8.22793 3.24646-12.76807 2.52057zm-80-31.99756c5.75538 7.93719 12.97876 14.83453 17 24-1.77258.55346-1.18957 1.93414-1.33447 3.21509-.10181.90026.42346 2.524-1.36621 2.72613-1.37744.15558-2.0658-.66113-2.70117-1.74457-1.3866-2.36456-1.53735-5.42151-4.14319-6.863.58948-1.828 2.20728-.981 3.00793-1.72669.44312-.41272 1.04212-1.01782 1.01441-1.50464-.06714-1.18609-1.06445-.95471-1.87439-.83185-4.29639.65168-5.10608-1.89178-4.18933-5.143.49487-1.75507-.45325-2.35632-1.14844-3.41022-1.79251-2.71695-4.42142-5.04281-4.26514-8.71725z" class="cls-20"/><path fill="#18a8bf" d="M1484.239 642.53c8.8628-1.56793 9.751 5.34125 12.07044 9.07618 6.15014 9.90344 10.49951 20.90246 13.97571 32.00634 1.23693 3.9513 1.486 8.99744 2.91784 12.689 3.03028 7.81256-.281 16.0274 3.224 23.695 1.47986 3.23748.24671 7.71514-.2771 11.793-33.07178-48.56768-69.8689-94.24932-102.65625-143.07006 6.55957 1.85962 12.99939 3.455 19.07031 6.29339 9.61841 4.49683 18.589 10.10413 27.5243 15.77313a23.20937 23.20937 0 0 1 3.62146 3.41645c6.46313 6.45947 12.86328 12.9834 19.39819 19.36926 2.42959 2.37417 4.91922 4.50484 1.1311 8.95831z"/><path d="M1402.69143 634.549a176.84165 176.84165 0 0 0-28.11512-5.64124 101.542 101.542 0 0 0-11.54687-.02228c-17.81262 1.68286-34.1 7.15619-48.51245 18.19043-20.72254 15.86524-34.98267 36.02893-39.35755 61.81067-5.23364 30.84162 1.48279 59.19 21.811 83.65943 12.855 15.47381 28.66455 27.21795 48.14013 32.09149 23.08069 5.77569 45.94056 3.65191 67.4242-7.6474 2.01782-1.06122 3.84656-2.539 6.19653-2.89258a1.53776 1.53776 0 0 1 .07752 2.17847l-.00977.00726c-13.83057 9.59857-29.90576 11.82117-45.99512 13.99762-8.80175 1.43243-17.18212-2.03345-25.89-2.40521-5.30335-.22644-10.432-4.07672-15.67835-6.20246a77.80364 77.80364 0 0 1-24.19824-16.00519 167.08669 167.08669 0 0 1-20.75634-24.11711c-6.80126-9.41132-9.93994-20.13562-12.89355-30.64667-3.16406-11.2597-4.33166-23.54565-2.194-35.19531a141.36906 141.36906 0 0 1 4.90808-20.56793c2.9054-8.46314 7.23523-15.757 11.9303-23.0575.80749-1.25543.68884-2.50464.77209-3.805 1.30433-2.01935 2.59766-4.046 4-6 4.3357.22711 6.19593-2.8479 8-5.99756a3.39145 3.39145 0 0 0 2.45154-1.50079c8.94922-10.77955 21.1698-16.73438 33.49732-22.437a44.3747 44.3747 0 0 1 17.80395-4.128c4.18518-.09186 7.97827-2.2218 12.41773-2.09967a107.94746 107.94746 0 0 1 25.36743 3.84552c2.92846.79029 6.047.86084 8.86352 2.33777a2.25141 2.25141 0 0 1 1.48602 2.25024z" class="cls-13"/><path d="M1418.80886 816.276q-.03882-1.0893-.0774-2.17847c4.15332-3.96954 9.12989-6.87085 13.48084-10.6377 18.22351-15.77673 28.84-35.62353 32.7771-59.23523.81787-1.616-.20471-3.50634.76025-5.1004q.00366-9.35925.00721-18.71857c-.97327-1.58587.03234-3.46191-.74439-5.07666q-2.27911-10.4544-4.55835-20.90869c3.36145.50812 3.45667 3.83747 4.06287 5.87531.76245 2.56286 1.9906 5.49518 1.94214 7.82916-.18811 9.05463 3.61743 17.66467 2.43261 26.78467-.37976 2.92267-3.16137 5.16205-2.07336 8.369.8324 12.85711-5.47217 23.54791-10.66272 34.51928-4.82959 10.20813-12.17151 18.698-20.35413 26.25806-5.08606 4.69906-11.29028 8.18807-16.99267 12.22024z" class="cls-20"/><path d="M1515.80812 743.75976c-.86608-.1253-.91223-.801-.90771-1.44629.00439-.63946.02624-1.42145.90906-1.41705.873.00439.90259.78039.90661 1.4209.00392.64514-.02588 1.3291-.90796 1.44244z" class="cls-16"/><path d="M1804.70717 816.28088c-3.05859-.44165-5.26294 1.66644-7.628 2.89947-2.58423 1.34729-3.93884 1.69147-4.309-1.71887a3.96306 3.96306 0 0 0-.76575-2.28393c-7.0686-6.88361-10.12207-16.70356-17.25232-23.53528a11.94667 11.94667 0 0 1-1.35461-2.07c-3.11731-4.64209-3.11938-4.64075-8.40588-3.64636 1.73095-2.57605 4.66369-4.25641 3.88293-7.57953 2.92542-.7735 1.881-3.191 1.88745-4.97534.06775-18.82507.042-37.65045.042-56.47577v-5.60779c3.31275 2.74988 4.782 5.72064 6.8263 8.20923 7.9779 9.71173 15.84875 19.53119 22.64953 30.09027a127.809 127.809 0 0 0 17.62268 21.88812c1.28138 1.26612.8722 2.79.87989 4.22669.04394 8.32953-.23108 16.67.11645 24.98523.20825 4.98272-2.34558 7.45373-6.17334 9.676-2.85805 1.65937-6.86794 1.90834-8.01833 5.91786zM1734.96181 600.143c-.42468 1.55377-.84924 3.10748-1.398 5.11523 3.6073-1.53491 6.00867-.36694 7.19873 3.22248a4.15857 4.15857 0 0 0 .97547 1.69079c7.19909 6.77979 11.15417 15.79743 16.60266 23.78711 3.12085 4.57666 8.343 7.43872 10.70532 12.848.9314 2.13306 2.89551.13929 4.36987-.25592.98242-.2633 2.028-.49993 2.80274.33118a1.82515 1.82515 0 0 1-.28174 2.67c-1.84021 1.90393-.97254 4.02893.105 5.50232 3.16919 4.33387 5.53332 9.17548 8.18652 13.756 2.933 5.06366 5.94068 9.33129 11.24781 12.03887 1.77429.90528 2.58264 3.29523 3.4729 5.304 2.86315 6.45959 5.765 12.95184 12.46179 16.5495 1.17749.63263 1.181 1.91009 1.665 2.94214.773 1.64783 1.32153 3.93957 2.66955 4.68555 5.78 3.19836 2.48657 8.29534 2.70081 12.44787.10815 2.09247-2.34839 1.86658-3.65637.27454-3.16785-3.85565-6.78077-7.1554-8.57593-12.28052-2.63086-7.51123-9.39942-12.49646-13.72791-19.09991-4.53674-6.92109-10.47607-12.92951-14.94043-19.88965-5.34863-8.33869-10.97631-16.45777-16.7489-24.49067-3.81628-5.31066-8.68811-9.66491-12.1958-15.38763-6.96155-11.3576-15.98852-21.34485-23.17175-32.8316 3.50867-2.8982 6.21008 2.36212 9.51074 1.05346zm47.5835 37.84534c-6.85364.40863-7.226-.10059-4.37622-5.81232a14.89337 14.89337 0 0 0 4.37622 5.81232zm30.62109 13.81884c1.64087-1.90283 3.314-1.91644 4.92249-.987 1.24145.71734-.111 3.44073-.44556 2.79895-.97144-1.86303-2.63257-1.34113-4.47693-1.81195zm-26.17871-14.06408c-.186-2.09809-.38086-3.66541 1.73682-3.76221.50744-.02319 1.51135.66535 1.49389.983-.09704 1.77097-1.68017 2.04465-3.23071 2.77921zm11.26318 1.68512a1.387 1.387 0 0 1-1.604.743c-.6134-.08142-1.45813-.13526-1.23633-1.06684.17359-.72912.91773-.82238 1.57141-.73931.61768.07847 1.35413.11167 1.26892 1.06315zm3.28931 2.55493c-.26392-.19928-.73267-.3902-.92627-.73541-.34766-.62018.21265-.85718.65942-.80494a1.55008 1.55008 0 0 1 1.07959.61573c.27332.51654-.14331.81701-.81274.92462zm-8.19958-2.42053c-.5177.26349-.89173.618-1.16944.55407-.35534-.08172-.63305-.50061-.94421-.77429.297-.25195.627-.73657.88342-.70038.36816.05198.68274.48346 1.23023.9206zm-24.92505 189.54382c-1.3357-.07764-1.62952-1.005-1.53162-2.06976.3114-3.38843 3.20105-4.74762 5.4259-6.56342a1.38994 1.38994 0 0 1 2.03931.73364c.56286 1.40155-4.39038 7.9784-5.93359 7.89954zm-15.66797-36.2887c1.24878 2.89618.62109 4.53193-1.64527 4.70441-.99707.07593-3.1781-1.29944-2.62243-2.26984.97827-1.70825 1.5188-4.54705 3.81128-4.67529 2.38171-.13318.32922 2.01691.45642 2.24072zm7.81421 41.93549c.41662 2.94824-.62342 3.02228-1.64307 2.9751a4.0297 4.0297 0 0 1-3.72522-3.3548c-.33154-1.28479.99268-2.11322 2.25928-1.92877a3.7963 3.7963 0 0 1 3.10901 2.30847zm-9.99146-34.22107a1.34816 1.34816 0 0 1-1.38232 1.629c-.78321.07745-1.76233.15692-1.9137-.95459-.13318-.97791.63477-1.482 1.4353-1.69007a1.34294 1.34294 0 0 1 1.86072 1.01566zm-9.75122-.25488c-.07263 1.4812-.02808 2.57507-1.31421 2.804-.6875.12238-1.42578-.23828-1.29187-1.02984.23218-1.37194 1.37927-1.68353 2.60608-1.77416zm39.4635 27.07947a1.40694 1.40694 0 0 1-1.63562.81445c-.61316-.08154-1.458-.1341-1.23608-1.06647.1737-.72961.91553-.814 1.57178-.74249.63415.06921 1.31567.15863 1.29992.99451zM1755.459 801.812c-.75036.1195-1.25842.35534-1.59448.20562-.27576-.1228-.34692-.70446-.50879-1.08276.28736-.09644.65857-.35327.84485-.256a7.37313 7.37313 0 0 1 1.25842 1.13314zm31.95508 15.1355c-.41809-.38116-.92444-.62188-1.00928-.96636a.86519.86519 0 0 1 1.01368-1.12531 1.28838 1.28838 0 0 1 .83325.93781c.01575.33306-.47717.6903-.83765 1.15386z" class="cls-18"/><path d="M1712.64211 646.457c-8.86768-3.96344-16.95215-9.34363-25.36572-14.12287-3.00147-1.70489-5.6117-2.03277-8.354.1767 1.10657-4.12311 3.80445-5.22247 7.49329-3.54511 7.53784 3.42786 14.01184 8.78669 21.73108 11.98981a7.06376 7.06376 0 0 1 4.49535 5.50147z" class="cls-15"/><path d="M1912.64016 623.30432c-.36756.47979-.5741 1.02288-.93592 1.16186-.64868.24915-.88989-.36188-.75-.82361.11292-.37237.55384-.68316.91736-.91369.08533-.05402.44605.32653.76856.57544z" class="cls-4"/><path d="M1292.804 662.27844c.27259 3.07061-1.00085 5.11047-4 6-1.39843-.5246-2.84484-.951-4.18139-1.6026-1.24292-.606-3.25.1455-3.67884-1.92755-.52612-2.54212 1.59119-1.79981 2.79957-2.27533a1.22373 1.22373 0 0 0 .62231-1.681 2.71479 2.71479 0 0 0-2.40027-1.48682c-2.27026-.32971-4.70911.75214-6.24963-2.59229-2.23462-4.85119-1.26453-9.25183.61548-13.59069.69458-1.603 3.08166-.96155 4.649-.74817 3.30579.45025 5.94629 2.81067 9.30762 3.41412 1.66919.29974 1.75232 2.25916 1.21289 3.79712a19.60351 19.60351 0 0 1-1.36084 2.611c5.33668 2.18523.21254 7.13458 2.6641 10.08221zm-9.14517-24.62433c-.46875.36688-.80713.63171-1.14551.89661-.19189-.33893-.58435-.72077-.52343-1.00568.07165-.3349.53686-.58569.8313-.87293.25024.29334.50036.58661.83764.982zm79.37061-8.76862a22.394 22.394 0 0 1 11.54944.02314q-5.77735-.01247-11.54944-.02314zm102.72021 110.23871c-.12866 1.71881.64356 3.57184-.76025 5.10053-.10059-1.75306-.27429-3.51685.76025-5.10053zm-.73706-23.7952c1.365 1.528.61194 3.36676.74451 5.07612-1.02197-1.57828-.84668-3.33255-.74451-5.07612z" class="cls-14"/></svg>