<svg xmlns="http://www.w3.org/2000/svg" role="img" viewBox="4.56 4.06 256.88 87.13"><title>Veea Inc. (member) logo</title><style>svg {enable-background:new 0 0 264 94}</style><linearGradient id="SVGID_1_" x1="222.173" x2="222.173" y1="226.619" y2="165.181" gradientTransform="translate(0 -156)" gradientUnits="userSpaceOnUse"><stop offset=".078" stop-color="#e71e25"/><stop offset=".29" stop-color="#b6161c"/><stop offset=".509" stop-color="#8d0a0d"/><stop offset=".674" stop-color="#750000"/><stop offset=".765" stop-color="#6d0000"/></linearGradient><path fill="url(#SVGID_1_)" d="M207.3 43.6c0 1.5.1 3 .2 4.4l-19.3-34c-.7-1.3-.8-2.5-.3-3.4s1.6-1.4 3.1-1.4h40.2c-4.9 1.7-9.3 4.6-13.2 8.5-7.1 7.2-10.7 15.8-10.7 25.9zm48.3-33.8c-.7-.4-1.3-.6-2.3-.6H246c-9.1.5-16.9 4.1-23.4 10.6-7.1 7.1-10.7 15.8-10.7 25.8 0 5.8 1.2 11.2 3.5 16 .1.2 4 7 4 7 .6 1.1 1.3 1.7 2.2 1.9h.7c1 0 1.9-.7 2.6-2L256.1 14c.7-1.1.8-2.1.5-3 0 0-.3-.8-1-1.2z"/><path d="M23.9 45.3c-.9-3.1-1.7-6.1-2.4-8.8h-12c2.7 9.5 5.7 18.4 9 26.7 3.2 8.3 6.4 15.6 9.5 22h9.6c3-6.2 6.2-13.6 9.6-22 3.2-8.2 6.2-17.1 8.9-26.7H44.5c-.6 2.6-1.4 5.5-2.4 8.8-.9 3-1.8 6.1-2.9 9.4-1 2.9-2 6-3.2 9.1-1.1 3-2.1 5.7-2.9 8-.9-2.3-1.9-5-3.1-8-1.1-3.1-2.2-6.1-3.2-9.1-1.1-3.3-2-6.4-2.9-9.4m91.2-8.4c-2.7 1.1-5.1 2.7-7.3 4.9-2.1 2.1-3.8 4.8-5.1 8-1.3 3.3-1.9 7-1.9 11.3 0 3.6.5 7 1.5 10.1 1 3 2.5 5.7 4.5 8 2.1 2.3 4.7 4.1 7.9 5.3 3.2 1.3 6.9 1.9 11.2 1.9 1.7 0 3.3-.1 4.9-.3 1.6-.2 3.1-.4 4.5-.7 1.4-.3 2.7-.6 3.8-.9 1-.3 1.9-.7 2.6-.9l-1.5-9.3c-1.4.6-3.2 1.1-5.4 1.6s-4.7.7-7.5.7c-4.7 0-8.2-1.1-10.7-3.2-2.4-2.1-3.8-5.2-4.1-9.1h32.1c.1-.4.1-1.1.2-2l.1-2.1c0-8.2-1.9-14.4-5.6-18.6-3.8-4.2-9-6.3-15.7-6.3-3-.1-5.7.5-8.5 1.6m12.8 8.6c1.2.6 2.2 1.4 3 2.4s1.5 2.2 2 3.6c.4 1.4.6 2.9.6 4.4h-20.9c.2-1.5.5-2.9 1-4.2.5-1.4 1.2-2.6 2.1-3.6.9-1.1 1.9-1.9 3.2-2.6 1.3-.6 2.9-.9 4.6-.9 1.8.1 3.2.4 4.4.9m-35.9-4c-3.8-4.2-9-6.3-15.7-6.3-2.8 0-5.6.6-8.4 1.7-2.7 1.1-5.1 2.7-7.3 4.9-2.1 2.1-3.8 4.8-5.1 8-1.2 3.2-1.8 7-1.8 11.3 0 3.7.5 7 1.5 10.1s2.5 5.8 4.5 8 4.7 4 7.8 5.3c3.1 1.3 6.8 1.9 11.1 1.9 1.7 0 3.3-.1 4.9-.3 1.6-.2 3.1-.4 4.5-.7 1.4-.3 2.6-.6 3.7-.9s1.9-.7 2.6-.9l-1.5-9.3c-1.4.6-3.2 1.1-5.4 1.6s-4.7.7-7.5.7c-4.7 0-8.2-1.1-10.7-3.2s-3.8-5.2-4.1-9.1h32.2l.2-4.2c.1-8.2-1.8-14.4-5.5-18.6m-15.6 3.2c1.7 0 3.1.3 4.3.9 1.2.6 2.3 1.4 3.1 2.4.8.9 1.4 2.1 1.9 3.6.4 1.4.7 2.9.7 4.4h-21c.2-1.4.5-2.8 1-4.2.5-1.4 1.3-2.6 2.1-3.6.9-1.1 2-1.9 3.3-2.6 1.3-.6 2.8-.9 4.6-.9m99.7-7.9c-2.6-.9-5.7-1.4-9.5-1.4-3.1 0-6 .3-8.7.8s-4.8 1-6.2 1.5l1.4 9.1c1.3-.5 3.1-.9 5.3-1.3 2.2-.3 4.7-.5 7.2-.5 1.9 0 3.5.2 4.8.7s2.3 1.2 3.1 2.1 1.3 1.9 1.7 3.1c.3 1.2.4 2.4.4 3.7v1.8c-1.6-.4-3.1-.7-4.4-.8-1.4-.1-2.7-.2-3.9-.2-2.6 0-5.2.3-7.7.8-2.4.5-4.6 1.4-6.4 2.7-1.9 1.2-3.3 2.7-4.4 4.7-1.1 1.9-1.6 4.3-1.6 7 0 2.9.5 5.3 1.4 7.3 1 2 2.3 3.6 4 4.9 1.7 1.2 3.8 2.1 6.2 2.7 2.4.5 5.1.8 8 .8 4.3 0 8.3-.2 11.9-.7 3.6-.5 6.2-1 7.8-1.4V54.7c0-2.8-.3-5.4-.9-7.8-.7-2.4-1.8-4.4-3.2-6.1-1.8-1.7-3.8-3.1-6.3-4m-17.8 33.6c0-1.4.3-2.5 1-3.4.6-.9 1.5-1.6 2.5-2.1s2.2-.8 3.4-1c1.3-.1 2.6-.2 3.8-.2 1.4 0 2.7.1 3.9.2 1.1.2 2 .4 2.7.6V77c-1.8.4-4.4.6-7.9.6-2.8 0-5.1-.5-6.8-1.5-1.8-1.2-2.6-3-2.6-5.7z"/></svg>