<svg xmlns="http://www.w3.org/2000/svg" role="img" viewBox="5.82 181.82 997.36 329.36"><style>svg {enable-background:new 0 0 1024 768}</style><style>.st0{fill:#8bc542}.st1{fill:#5a5b5d}</style><path d="M325.21 334.38c4.05-6.44 8.52-12.6 13-18.74 13.72-18.8 28.57-36.64 45.27-52.89 19.07-18.55 39.95-34.6 64.1-46.08 16.35-7.77 33.48-12.86 51.5-14.87 2.36-.26 4.75-.2 7.08-.76h17.54c1.62.68 3.36.43 5.03.59 15.85 1.48 31.07 5.45 45.82 11.34 22.87 9.14 43.35 22.23 62.31 37.79 28.91 23.72 53.34 51.5 74.32 82.36.96 1.41 1.89 1.97 3.47 1.55 1.21-.32 2.41-.07 3.57.18 2.29.5 3.68 2.23 3.93 4.62.35 3.39-.62 6.35-2.95 8.82-2.31 2.45-4.91 4.54-8.35 5.1-6 .97-9.68-2.38-8.01-9 .75-2.97 2.69-5.31 5.1-7.15.93-.71 1.02-1.13.36-2.11-7.51-11.04-15.54-21.69-24.08-31.95-9.17-11.01-18.83-21.57-29.17-31.49-21.45-20.58-44.84-38.44-71.92-51.12-16.23-7.6-33.16-12.86-50.99-14.98-26.48-3.16-51.9 1.06-76.36 11.45-20.43 8.68-38.63 20.89-55.43 35.27-23.73 20.31-43.76 43.94-61.94 69.22-3.21 4.46-6.26 9.03-9.39 13.55-1.26-.24-2.54-.47-3.81-.7zm466.76 33.21c0-9.1.02-18.2-.01-27.31-.01-2.81-.22-5.61-1.07-8.31-.86-2.73-1.6-3.22-4.47-3.22-2.87 0-5.73-.05-8.6.02-1.3.03-1.86-.38-1.9-1.74-.11-3.47-.1-3.63 3.42-3.51 8.99.31 17.63-1.3 26.09-4.3 4.73-1.68 4.87-1.53 4.72 3.5-1.05 33.43-.4 66.88-.54 100.32-.02 3.65.04 7.33.92 10.92.22.88.49 1.77.88 2.58.86 1.76 1.91 2.19 3.77 1.56 2.92-.99 5.94-1.67 8.79-2.92.69-.3 1.48-.73 2.3-.27.57.32.7-.17.89-.47 2.35-3.55 5.52-6.26 8.96-8.66 1.3-.9 1.1-1.53-.07-2.24-1.81-1.09-3.64-2.16-5.43-3.29-7.55-4.75-10.92-11.85-11.04-20.52-.21-15.55 9.77-27.17 25.25-29.61 8.92-1.4 17.8-.62 26.69.49 7.44.93 14.93 1.7 22.36-.17 1.33-.33 2.63-.81 3.92-1.27 1.14-.41 1.77-.12 1.83 1.14.16 3.26-.89 6.08-3.18 8.41-.91.92-2.13 1.03-3.35 1.07-3.22.11-6.39-.46-9.59-.71-1.03-.08-2.5-.63-3.04.37-.58 1.07.94 1.63 1.58 2.33 6.35 6.95 7.63 18.68 2.68 27.46-5.48 9.72-14.03 15.15-24.96 16.88-5.05.8-10.13 1.05-15.17-.27-.36-.09-.86-.09-1.16.09-2.52 1.49-5 3.07-6.39 5.8-1.75 3.43-.56 6.12 3.17 7.08 3.13.8 6.35.91 9.55.99 6.87.18 13.74.08 20.59.76 7.25.72 14.13 2.44 20.49 6.26 10.35 6.21 10.95 19.37 6.67 26.89-3.37 5.94-8.43 10.04-14.53 12.91-6.45 3.03-13.36 4.39-20.4 5.03-8.12.74-16.24.87-24.31-.58-4.54-.82-8.89-2.16-12.77-4.77-9.07-6.13-10.6-16.95-3.75-25.52 3.55-4.45 8.29-6.9 13.41-8.9.91-.35 2.48-.37 2.43-1.48-.05-.9-1.61-.72-2.5-1.01-2.13-.68-4.24-1.4-6.13-2.63-1.94-1.26-3.45-2.86-3.72-5.28-.15-1.35-.9-.97-1.69-.69-7.32 2.64-14.65 5.22-21.85 8.19-1.8.74-3.65 1.34-5.57 1.7-2.25.42-2.77.01-2.77-2.33 0-3.26.03-6.53.03-9.79 0-.62.18-1.35-.5-1.7-.72-.37-1.14.3-1.6.7-3.04 2.63-6.26 5.02-9.74 7.02-11.94 6.89-28.19 6.51-39.05-5.12-3.87-4.15-5.89-9.24-7.32-14.57-3-11.23-2.93-22.47 1.13-33.41 4.53-12.2 13.65-18.88 26.4-21.03 9.82-1.66 18.87.37 27.5 4.98 1.89 1.01 2.09.86 2.1-1.3.01-2.18 0-4.35 0-6.53-.12-.02-.24-.02-.35-.02zm1.36 57.15h-.04c-.2-7.38-.45-14.75-.59-22.13-.11-6.06-.14-12.13-.66-18.18-.17-1.97-1.05-3.29-2.73-4.25-4.77-2.71-9.92-4.04-15.36-4.44-8.46-.62-17.42 4.58-20.82 12.35-3.25 7.42-3.76 15.27-3.25 23.22.42 6.6 2.05 12.85 5.66 18.49 2.42 3.79 5.8 6.33 10.17 7.35 7.86 1.84 15.41.83 22.74-2.55 3.74-1.73 5.64-4.29 4.9-8.5-.09-.44-.02-.91-.02-1.36zm61.84 29.53c-2.98.02-5.95-.06-8.91.39-5.46.84-10.38 2.7-14.08 7.07-4.47 5.28-4.92 12.79-.89 17.49 2.3 2.67 5.25 4.42 8.63 5.36 9.39 2.6 18.87 2.62 28.38.82 5.68-1.08 10.8-3.38 14.87-7.63 4.83-5.04 5.1-11.22.73-16.52-1.89-2.29-4.33-3.69-7.16-4.48-7.05-1.98-14.28-2.47-21.57-2.5zm-20.26-60.89c0 4.92.59 9.43 2.11 13.8 3.45 9.92 10.47 14.79 20.53 14.15 4.26-.27 7.68-2.02 9.85-5.88 4.87-8.66 4.83-17.65 1.32-26.63-3.67-9.4-12.87-14.51-22.84-13.18-3.82.51-6.72 2.32-8.45 5.92-1.87 3.85-2.62 7.89-2.52 11.82z" class="st0"/><path d="M411.78 436.45c-4.43 3.64-9.2 6.75-14.46 9.08-9.89 4.37-20.22 5.14-30.38 2.04-11.81-3.61-19.76-11.85-23.02-23.89-2.93-10.82-2.55-21.79 1.65-32.19 5.38-13.29 15.25-21.07 29.96-22.11 7.02-.5 13.84-.01 20.27 3.11 5.22 2.54 9.42 6.25 12.5 11.18 1.41 2.26 2.03 4.72 1.27 7.38-.47 1.64-1.52 2.49-3.24 2.5-7.04.06-11.29-3.95-14.28-9.78-.78-1.53-1.33-3.15-1.82-4.8-.47-1.59-1.3-3-2.9-3.63-4.75-1.86-14.84-2.45-20.02 2.96-3.1 3.24-5.3 6.92-6.39 11.19-2.98 11.63-2.79 23.08 2.2 34.22 4.69 10.48 12.99 15.21 24.21 15.45 8.48.18 16.3-1.73 23.32-6.73 1.29-.92 1.88-1.78 2.27-3.2 2.25-8.09 7.85-13.3 15.18-16.72 7.28-3.39 15.05-5.41 22.83-7.33 2.46-.61 2.57-.7 2.61-3.17.08-4.81.28-9.61.06-14.42-.26-5.83-3.08-9.38-8.77-10.72-4.19-.98-8.29-.55-12.26 1.15-2.02.87-3.01 2.3-2.93 4.54.08 2.34.08 4.7-.47 7-1.46 6.11-6.45 9.4-12.62 8.37-2.5-.42-3.83-2.33-3.45-5.03.61-4.32 3.05-7.72 5.72-10.96 6.12-7.38 14.36-10.49 23.6-11.48 4.57-.49 9.15-.5 13.65.59 9.83 2.37 13.91 7.02 13.9 18.25-.01 10.68-.92 21.37-1.42 32.05-.2 4.35.04 8.63 2.85 12.26 2.24 2.9 5.43 4.51 8.69 5.94 1.56.69 3.23 1.15 4.84 1.71 1.5.52 1.74 1.05.74 2.16-2.43 2.7-5.2 5.06-8.52 6.54-1.82.81-3.88.28-5.72-.33-7.62-2.51-13.48-7.13-17.04-14.45-.24-.49-.28-1.27-.98-1.27-.54.01-.69.7-.97 1.11-4.62 6.83-10.54 11.92-18.86 13.55-5.7 1.12-11.18.33-16.19-2.76-2.94-1.81-4.69-4.47-5.15-7.92-.05-.4-.12-.79-.21-1.18 0-.04-.12-.11-.25-.26zm41.37-23.12v-.86c0-2.55-.16-2.73-2.76-2.53-5.88.46-11.02 2.86-15.68 6.32-5.28 3.92-7.78 9.1-6.98 15.77.59 4.97 4.15 8.43 8.78 8.35 6.18-.11 14.26-6.94 15.37-13.07.83-4.62 1.08-9.3 1.27-13.98z" class="st1"/><path d="M549.85 430.11c.4-28.4.32-56.81.4-85.21.02-6.35.22-12.7.2-19.06-.01-2.74-.22-5.49-.95-8.16-.79-2.93-1.56-3.53-4.55-3.53-2.41 0-4.82-.07-7.22.03-1.47.06-1.99-.54-1.87-1.91.03-.28 0-.57 0-.86.02-2.21.15-2.34 2.33-2.34 6.99 0 13.98-.03 20.87-1.46 2.09-.43 4.06-1.14 6-2.01 2.96-1.33 3.46-.96 3.37 2.33-.22 7.95-.49 15.9-.68 23.85-.21 8.93-.27 17.86-.53 26.78-.21 7.21-.17 14.42-.23 21.64 0 .5-.23 1.18.22 1.45.62.38 1.01-.35 1.42-.67 2.66-2.08 5.36-4.11 8.13-6.04 10.07-7.03 30.64-6.99 41.54 7.91 5.12 7 7.32 14.92 7.83 23.42.46 7.57-.09 15.04-3.4 21.99-5.7 11.99-15.26 19.12-28.33 21.2-9.55 1.52-18.82-.05-27.69-3.89-2.05-.89-4.07-1.83-6.25-2.38-2.59-.65-3.66-.15-4.73 2.32-.83 1.91-1.16 3.94-1.44 5.98-.27 1.94-.68 2.22-2.73 2.17-1.73-.04-1.71-1.29-1.71-2.41-.02-7.05 0-14.09 0-21.14zM567 407.72c0 4.7-.02 9.39.01 14.09.03 5.27.35 10.51 1.36 15.7.41 2.09 1.56 3.46 3.51 4.3 4.84 2.08 9.94 2.64 15.13 2.48 10.61-.33 19.62-7.13 22.43-17.36 3.03-11.03 2.21-21.86-2.89-32.24-2.82-5.73-7.12-9.74-13.4-11.44-4.65-1.25-9.38-1.5-14.14-1.03-3.69.36-7.12 1.59-10.23 3.7-1.25.85-1.83 1.84-1.81 3.41.07 6.13.03 12.26.03 18.39z" class="st0"/><path d="M502.68 383.27c0-18.9.04-37.79-.03-56.69-.01-3.31-.34-6.62-1.28-9.84-.49-1.68-1.37-2.61-3.31-2.48-2.34.16-4.7.01-7.05.05-1.17.02-1.64-.48-1.65-1.64-.01-4.42.02-3.65 3.45-3.54 8.38.27 16.55-.77 24.57-3.2 2.07-.63 2.95.03 2.94 2.19-.09 12.31-.02 24.61-.31 36.92-.14 5.95-.08 11.91-.13 17.86-.14 13.85-.24 27.7-.45 41.55-.14 8.99-.36 17.97-.1 26.96.09 3.08.33 6.16 1.21 9.16.5 1.71 1.4 2.56 3.33 2.46 2.86-.15 5.73 0 8.59-.06 1.13-.02 1.49.41 1.54 1.49.16 3.63.19 3.63-3.38 3.63-13.35 0-26.7.01-40.06-.01-.8 0-1.99.36-2.21-.72-.26-1.31-.41-2.74.16-4.04.23-.52.93-.32 1.43-.32 3.32-.01 6.65 0 9.97-.01 2.6 0 2.87-.27 2.87-2.84v-56.87c-.03-.01-.06-.01-.1-.01zm-361.58 66.2c-9.22.05-17.7-2.11-24.63-8.59-6.25-5.84-9.92-13.09-11.26-21.48-1.83-11.43-.03-22.38 5.25-32.63 4.56-8.85 11.54-15.24 21.68-16.45 13.46-1.61 25.66 1.87 35.79 11.29 2.06 1.91 3.96 3.97 5.65 6.22.55.73 1.08 1.48 1.56 2.26 1.57 2.6 1.02 4.07-1.92 4.75-5.01 1.16-10.03 2.33-15.09 3.29-9.62 1.82-19.26 3.48-29.03 4.25-2.05.16-4.12.13-6.18.09-1.34-.02-2.01.43-2.01 1.87-.01 9.55 2.12 18.45 7.65 26.42 2.29 3.29 5.32 5.45 9.07 6.71 8.19 2.74 16.48 3.1 24.87 1.06 3.68-.89 7-2.54 9.82-5.05 1.32-1.18 2.13-.76 3.13.29 1.17 1.23.08 1.89-.62 2.51-7.9 7.03-17.13 11.28-27.57 12.89-.96.15-1.93.25-2.9.29-1.08.05-2.17.01-3.26.01zm-14.87-51.54c1.95-.15 5.03-.24 8.07-.65 6.86-.92 13.6-2.41 20.24-4.41 1.55-.47 1.83-1.23 1.26-2.64-3-7.43-8.17-12.6-15.92-14.86-4.21-1.22-8.17-.52-11.42 2.72-1.64 1.63-2.91 3.5-3.73 5.68-1.24 3.32-2.2 6.71-2.78 10.22-.65 3.93-.59 4.06 4.28 3.94z" class="st1"/><path d="M929.98 449.55c-8.46-.01-15.54-1.37-21.74-5.66-8.56-5.92-13.43-14.29-15.05-24.44-1.98-12.4.04-24.26 6.59-34.99 6.49-10.63 16.15-15.53 28.82-14.43 13.67 1.19 24.74 6.92 33.02 17.9.58.78 1.16 1.57 1.64 2.41 1.34 2.37.77 3.84-1.85 4.46-4.67 1.1-9.36 2.16-14.07 3.1-9.43 1.88-18.92 3.36-28.48 4.38-2.61.28-5.26.2-7.9.19-1.41 0-2.11.44-2.1 1.97.06 10.29 2.45 19.82 8.99 28.02 1.84 2.31 4.3 3.75 7.04 4.72 9.19 3.28 18.46 3.58 27.79.66 2.81-.88 5.37-2.33 7.53-4.33 1.25-1.16 2.13-.91 3.16.19 1.19 1.27.11 1.96-.66 2.65-7.29 6.54-15.83 10.57-25.4 12.48-2.76.54-5.55.82-7.33.72zm-16.43-51.58c3.8-.15 7.61-.35 11.36-1.02 5.88-1.06 11.73-2.29 17.49-3.93 1.48-.42 2.07-1.35 1.42-2.86-2.92-6.85-7.63-11.95-14.74-14.43-3.97-1.38-8.02-1.45-11.56 1.43-2.17 1.76-3.81 3.92-4.84 6.55-1.41 3.63-2.32 7.4-3.07 11.21-.49 2.48.07 3.07 2.55 3.06.48-.02.93-.02 1.39-.01z" class="st0"/><path d="M190.74 412.71v-25.77c0-2.75-.11-5.49-.64-8.2-.57-2.92-1.17-3.4-4.11-3.4-2.24 0-4.47-.05-6.7.02-1.22.04-1.6-.43-1.58-1.6.07-4.4-.38-3.62 3.63-3.68 5.38-.08 10.77.1 16.15-.22 2.67-.16 5.14-1.1 7.72-1.53 1.91-.32 2.45.07 2.42 1.97-.05 2.74-.21 5.49-.31 8.23-.02.63-.15 1.43.44 1.74.56.3.98-.42 1.41-.74 3.65-2.74 6.94-5.99 11.25-7.8 3.5-1.47 7.05-2.27 10.87-1.63 4.15.69 7.27 2.89 9.62 6.29.57.83.57 1.72.41 2.64-.59 3.44-1.31 6.85-2.7 10.08-.16.37-.29.75-.49 1.09-1.46 2.6-2.95 2.75-4.58.31-2.53-3.78-5.7-6.63-10.38-7.15-4.76-.54-9.35.14-13.61 2.52-1.64.91-2.29 2.15-2.29 4.03.04 11.17.01 22.33-.03 33.5-.02 4.69-.21 9.38.39 14.06.07.57.16 1.13.28 1.69.74 3.51 1.02 3.75 4.6 3.87 3.78.13 7.55.29 11.33.34 1.4.02 1.91.53 1.91 1.94 0 3.2.06 3.21-3.16 3.18-13.86-.13-27.72-.26-41.59-.4-2.03-.02-2.1-.12-2.1-2.55 0-2.46.07-2.55 2.06-2.55 2.46-.01 4.93.01 7.39-.01 2.02-.02 2.37-.38 2.37-2.44.03-9.28.02-18.55.02-27.83z" class="st1"/><path d="M636.47 412.84v-25.43c0-2.86-.11-5.72-.64-8.54-.56-3-1.21-3.53-4.19-3.53-2.24 0-4.47-.04-6.71.02-1.12.03-1.52-.39-1.5-1.5.07-4.5-.45-3.71 3.71-3.77 6.29-.1 12.61.34 18.87-.61 1.74-.27 3.45-.77 5.17-1.19 1.54-.37 2.19.37 2.17 1.79-.05 2.63-.2 5.26-.3 7.89-.02.46-.04.92 0 1.37.09 1.05.49 1.31 1.39.58 2.13-1.73 4.23-3.52 6.47-5.11 4.78-3.42 9.95-5.63 16.04-4.68 4.16.65 7.28 2.86 9.64 6.26.52.76.62 1.59.48 2.46-.6 3.62-1.4 7.18-2.84 10.57-.18.42-.38.84-.64 1.21-1.46 2.14-2.77 2.22-4.22.05-2.56-3.82-5.72-6.76-10.48-7.3-4.89-.56-9.59.15-13.91 2.68-1.21.71-1.97 1.66-1.97 3.17.02 15.12-.01 30.23.04 45.35.01 2.11.33 4.21.97 6.25.47 1.48 1.28 2.21 2.98 2.22 4.23.01 8.47.25 12.7.34 1.23.03 1.72.53 1.77 1.75.15 3.38.19 3.4-3.19 3.37-13.86-.12-27.73-.26-41.59-.39-2.01-.02-2.11-.15-2.1-2.56.01-2.42.1-2.54 2.1-2.54 2.35-.01 4.7 0 7.05 0 2.37-.01 2.71-.33 2.71-2.65.02-9.2.02-18.37.02-27.53z" class="st0"/><path d="M267.84 403.79c0 7.62-.03 15.23.02 22.85.01 2.23.39 4.44 1.07 6.58.8 2.49 2.38 4.14 5 4.65 7.7 1.49 15.26 1.11 22.63-1.68.75-.28 1.49-.58 2.22-.92 1.06-.49 1.96-1.03 2.84.48.87 1.5.72 2.5-.62 3.5-6.05 4.49-12.94 7.03-20.22 8.55-5.72 1.19-11.47 1.52-17.15-.29-7.04-2.24-11.63-8.14-11.63-15.51.01-10.87.26-21.75.5-32.62.13-5.9.09-11.79-.17-17.67-.09-1.99-1.17-3.43-2.95-4.3-1.8-.87-3.63-1.68-5.46-2.5-.94-.42-1.72-1.02-1.78-2.12-.06-1.1.69-1.71 1.55-2.28 7.07-4.68 13.94-9.64 20.49-15.02.69-.57 1.45-.91 2.33-1 1.76-.18 2.52.44 2.39 2.19-.26 3.48-.6 6.95-.96 10.43-.28 2.68.01 3.09 2.69 3.32 8.34.7 16.68 1.08 25.05 1.08 2.21 0 2.52.37 2.06 2.54-.3 1.4-.72 2.77-1 4.17-.27 1.37-1.02 1.93-2.41 1.84-4.74-.3-9.49-.57-14.23-.84-3.54-.21-7.09-.39-10.63-.64-1.45-.1-1.72.61-1.71 1.86.03 7.79.02 15.58.02 23.37.02-.02.04-.02.06-.02zM44.12 370.96c5.5 0 11 .04 16.5-.03 1.5-.02 1.99.45 1.93 1.97-.15 3.63.47 3.07-3.08 3.12-1.78.02-3.55.06-5.33-.01-1.56-.06-2.07.73-1.92 2.12.15 1.43.57 2.8 1.09 4.13 5.71 14.46 12.18 28.59 18.31 42.87.18.42.44.8.68 1.19.42.69.86.67 1.3.01.19-.29.39-.57.53-.88 4.43-10.1 9.32-20 13.14-30.36 1.6-4.35 2.89-8.79 3.19-13.46.03-.51.06-1.03.06-1.54 0-3.22-.59-3.82-3.75-3.82-2.35 0-4.7-.04-7.05.02-1.13.03-1.71-.31-1.69-1.54.05-4.38-.32-3.75 3.58-3.76 8.36-.02 16.73-.01 25.1-.01 2.16 0 2.18.02 2.18 2.22v.17c-.04 3.33.41 2.92-2.94 2.87-1.52-.02-2.57.3-3.3 1.81-10.52 21.63-20.62 43.46-30.3 65.48-.53 1.2-1 2.44-1.65 3.58-1.57 2.74-3.83 2.82-5.63.25-1.02-1.46-1.68-3.12-2.38-4.74-8.16-18.82-16.64-37.49-25.13-56.16-1.16-2.55-2.19-5.15-3.82-7.46-1.46-2.07-3.26-3.29-5.94-3-.76.08-2 .51-2.29-.52-.36-1.29-.37-2.75.05-4.05.2-.62 1.1-.45 1.71-.45 5.62-.02 11.24-.02 16.85-.02z" class="st1"/><path d="M323.69 448.09c-6.59 0-13.18-.05-19.77.03-1.66.02-2.19-.49-2.12-2.16.15-3.5-.36-2.94 3.06-2.98 2.46-.03 4.93 0 7.39-.01 2.15-.01 2.38-.25 2.41-2.35.11-8.13.25-16.25.34-24.38.1-9.04.19-18.09.22-27.13.01-3.37-.06-6.75-.9-10.06-.74-2.91-1.38-3.38-4.4-3.38-2.29 0-4.59-.05-6.88.02-1.22.04-1.57-.46-1.59-1.62-.08-4.24-.11-4.26 4.06-4.24 7.96.05 15.92.07 23.84-1.01 2.9-.4 3.21.06 3.07 3.44-.71 18.3-1.43 36.6-1.24 54.91.04 4.11.1 8.24.97 12.3.67 3.13 1.14 3.51 4.35 3.51 2.52 0 5.04.04 7.56-.02 1.05-.02 1.44.38 1.43 1.39-.04 4.26.38 3.71-3.43 3.72-6.11.03-12.24.02-18.37.02z" class="st1"/><path d="M713.86 448.09c-6.59 0-13.18-.04-19.77.03-1.67.02-2.33-.57-2.16-2.2.05-.45.04-.92 0-1.37-.1-1.18.38-1.62 1.59-1.59 3.04.07 6.07-.02 9.11.04 1.6.03 2.29-.59 2.29-2.22.01-4.98.09-9.96.16-14.94.19-13.74.38-27.48.2-41.22-.03-2.17-.32-4.33-1-6.42-.56-1.73-1.58-2.64-3.53-2.56-2.52.11-5.04-.02-7.56.05-1.14.03-1.47-.45-1.53-1.51-.23-4.35-.25-4.37 4.15-4.35 7.91.04 15.8.08 23.67-1 2.97-.41 3.06-.21 3.07 2.84.05 9.85-.91 19.66-.98 29.5-.08 11.67-.57 23.36.28 35.02.12 1.71.43 3.4 1.03 5.03.45 1.2 1.2 1.82 2.58 1.78 2.92-.08 5.85.01 8.77-.04 1.04-.02 1.43.33 1.41 1.38-.08 4.35.52 3.72-3.55 3.74-6.08.04-12.16.01-18.23.01z" class="st0"/><path d="M325.21 334.38c1.28.23 2.55.45 3.83.68 3.79 1.98 3.69 6.97 2.02 10.18-2.18 4.21-5.65 7.06-10.31 8.12-5.89 1.34-9.78-2.88-8.2-8.72 1.4-5.17 6.25-9.36 11.52-9.97.38-.04.76-.19 1.14-.29zm654.33 148.58c.74-2.41 1.42-4.29 1.87-6.23.29-1.22 1.04-1.14 1.92-1.1 1.08.06.66.9.67 1.42.05 2.12.05 4.23 0 6.35-.01.55.49 1.53-.75 1.49-1.09-.03-.64-.9-.66-1.42-.06-1.64-.02-3.28-.34-4.99-.55 1.76-1.1 3.52-1.66 5.28-.16.51-.14 1.12-.98 1.17-.93.05-.97-.63-1.15-1.19-.54-1.66-1.04-3.33-1.55-5-.17.01-.34.03-.5.04 0 1.65.02 3.3-.01 4.94-.01.5.26 1.21-.73 1.19-.99-.02-.68-.75-.68-1.24-.03-2.29-.02-4.58-.01-6.86 0-.53-.21-1.25.75-1.18.67.05 1.47-.33 1.78.78.54 2.04 1.23 4.03 2.03 6.55zm-10.11-2.14c0-.51-.06-1.04.01-1.54.24-1.63-.11-2.66-2.08-2.28-.46.09-.92.01-.92-.67s.44-.69.92-.69h5.66c.47 0 .91-.02.91.68 0 .69-.43.77-.89.68-2.04-.4-2.2.74-2.08 2.33.11 1.54.01 3.09.03 4.63 0 .58-.07.97-.82.98-.83 0-.73-.51-.73-1.02-.01-1.04-.01-2.07-.01-3.1z" class="st1"/></svg>