<svg xmlns="http://www.w3.org/2000/svg" role="img" viewBox="-7.99 6.26 415.74 232.24"><title>Viaccess Orca (member) logo</title><style>svg {enable-background:new 0 0 400 245}</style><style>.st0{fill:#8e8f94}</style><path d="M0 195.8h8.4l9.1 25 9.2-25h8.2L21 230.1h-7L0 195.8zm38.2-12.6h7.9v7.4h-7.9v-7.4zm0 12.6h7.9v34.3h-7.9v-34.3zm34.3 34v-4.2c-1.2 1.4-2.6 2.5-4.4 3.5-1.8.9-4 1.4-6.6 1.4-1.6 0-3.2-.2-4.6-.7-1.5-.5-2.7-1.1-3.8-2s-2-2-2.6-3.3c-.7-1.3-1-2.8-1-4.5v-.1c0-1.9.3-3.5 1-4.9s1.6-2.6 2.9-3.5c1.2-.9 2.7-1.6 4.4-2.1s3.5-.7 5.5-.7c2.1 0 3.8.1 5.2.4 1.4.3 2.8.6 4.2 1v-.6c0-2.4-.7-4.2-2.2-5.4-1.4-1.2-3.5-1.9-6.2-1.9-1.9 0-3.7.2-5.2.6-1.5.4-3 .9-4.6 1.5l-2.1-6.2c1.9-.9 3.8-1.5 5.8-2.1 2-.5 4.4-.8 7.1-.8 5.1 0 8.8 1.3 11.3 3.8s3.7 6 3.7 10.6v20.2h-7.8zm.2-14.2c-1-.4-2.2-.7-3.5-1-1.4-.3-2.8-.4-4.3-.4-2.4 0-4.4.5-5.7 1.4-1.4.9-2.1 2.2-2.1 3.9v.1c0 1.6.6 2.9 1.9 3.7 1.3.9 2.8 1.3 4.7 1.3 1.3 0 2.5-.2 3.6-.5s2-.8 2.9-1.4c.8-.6 1.4-1.4 1.9-2.3.4-.9.7-1.9.7-2.9l-.1-1.9zm28.4 15c-2.5 0-4.9-.5-7-1.4s-4-2.2-5.6-3.8-2.8-3.5-3.7-5.6c-.9-2.1-1.3-4.4-1.3-6.8v-.1c0-2.4.4-4.7 1.3-6.9s2.1-4.1 3.7-5.7c1.6-1.6 3.5-2.9 5.6-3.8 2.2-.9 4.5-1.4 7-1.4 3.2 0 5.9.5 8 1.6s4 2.5 5.6 4.2l-4.8 5.2c-1.2-1.2-2.5-2.3-3.8-3.1-1.4-.8-3-1.2-5-1.2-1.4 0-2.7.3-3.9.9-1.2.6-2.2 1.4-3.1 2.3-.9 1-1.5 2.1-2 3.4-.5 1.3-.7 2.7-.7 4.2v.1c0 1.5.2 2.9.7 4.2s1.2 2.5 2.1 3.5 2 1.8 3.2 2.4c1.2.6 2.6.9 4.1.9 1.8 0 3.5-.4 4.9-1.2s2.7-1.8 4-3.1l4.7 4.6c-1.7 1.9-3.6 3.4-5.7 4.6-2.3 1.4-5 2-8.3 2z" class="st0"/><path d="M131.8 230.6c-2.5 0-4.9-.5-7-1.4s-4-2.2-5.6-3.8-2.8-3.5-3.7-5.6c-.9-2.1-1.3-4.4-1.3-6.8v-.1c0-2.4.4-4.7 1.3-6.9s2.1-4.1 3.7-5.7c1.6-1.6 3.5-2.9 5.6-3.8 2.2-.9 4.5-1.4 7.1-1.4 3.2 0 5.9.5 8 1.6s4 2.5 5.6 4.2l-4.8 5.2c-1.2-1.2-2.5-2.3-3.8-3.1-1.4-.8-3-1.2-5-1.2-1.4 0-2.7.3-3.9.9-1.2.6-2.2 1.4-3.1 2.3-.9 1-1.5 2.1-2 3.4-.5 1.3-.7 2.7-.7 4.2v.1c0 1.5.2 2.9.7 4.2s1.2 2.5 2.1 3.5 2 1.8 3.2 2.4c1.2.6 2.6.9 4.1.9 1.8 0 3.5-.4 4.9-1.2s2.7-1.8 4-3.1l4.7 4.6c-1.7 1.9-3.6 3.4-5.7 4.6-2.4 1.4-5.1 2-8.4 2z" class="st0"/><path d="M162.4 230.6c-2.4 0-4.7-.4-6.9-1.3-2.1-.9-4-2.1-5.5-3.6-1.6-1.5-2.8-3.4-3.7-5.6-.9-2.2-1.4-4.6-1.4-7.2v-.1c0-2.4.4-4.7 1.2-6.9.8-2.1 2-4 3.4-5.6 1.5-1.6 3.2-2.9 5.2-3.8 2-.9 4.2-1.4 6.7-1.4 2.7 0 5.1.5 7.1 1.5s3.7 2.3 5.1 4c1.4 1.7 2.4 3.6 3.1 5.8.7 2.2 1 4.5 1 7v1.1c0 .4-.1.7-.1 1.1h-25c.4 2.8 1.5 4.9 3.3 6.4s3.9 2.2 6.5 2.2c1.9 0 3.6-.3 5-1s2.8-1.7 4.2-3l4.6 4.1c-1.6 1.9-3.6 3.5-5.8 4.6-2.2 1.1-4.9 1.7-8 1.7zm7.7-20.2c-.1-1.2-.4-2.4-.8-3.5s-1-2-1.7-2.8-1.6-1.4-2.6-1.9-2.2-.7-3.4-.7c-2.4 0-4.4.8-6 2.5s-2.5 3.8-2.9 6.5h17.4v-.1zm22.2 20.1c-2.4 0-4.9-.4-7.4-1.3s-4.8-2.1-7-3.8l3.5-5.3c1.8 1.4 3.7 2.4 5.6 3.1 1.9.7 3.7 1.1 5.5 1.1 1.7 0 3-.3 3.9-1s1.4-1.6 1.4-2.7v-.1c0-.6-.2-1.2-.6-1.7-.4-.5-1-.9-1.7-1.2s-1.5-.7-2.4-1-1.9-.6-2.9-.9c-1.2-.3-2.5-.7-3.8-1.2s-2.4-1.1-3.4-1.8-1.8-1.7-2.5-2.8c-.6-1.1-1-2.5-1-4.1v-.1c0-1.6.3-3 .9-4.3.6-1.3 1.5-2.4 2.6-3.3 1.1-.9 2.4-1.6 3.9-2.1s3.1-.7 4.7-.7c2.1 0 4.3.3 6.5 1s4.2 1.6 6 2.9l-3.1 5.6c-1.6-1-3.3-1.8-5-2.3-1.7-.6-3.2-.9-4.6-.9-1.5 0-2.7.3-3.5 1-.8.6-1.3 1.5-1.3 2.4v.1c0 .6.2 1.1.6 1.6.4.4 1 .9 1.7 1.2.7.4 1.5.7 2.4 1s1.9.6 2.9.9c1.2.4 2.5.8 3.7 1.3s2.4 1.1 3.4 1.9c1 .8 1.8 1.7 2.5 2.7.6 1.1 1 2.4 1 3.9v.1c0 1.8-.3 3.4-1 4.7-.6 1.3-1.5 2.4-2.7 3.3-1.1.9-2.5 1.5-4 2-1.3.5-3 .8-4.8.8zm28.2 0c-2.4 0-4.9-.4-7.4-1.3s-4.8-2.1-7-3.8l3.5-5.3c1.8 1.4 3.7 2.4 5.6 3.1 1.9.7 3.7 1.1 5.5 1.1 1.7 0 3-.3 3.9-1s1.4-1.6 1.4-2.7v-.1c0-.6-.2-1.2-.6-1.7-.4-.5-1-.9-1.7-1.2s-1.5-.7-2.4-1-1.9-.6-2.9-.9c-1.2-.3-2.5-.7-3.8-1.2s-2.4-1.1-3.4-1.8-1.8-1.7-2.5-2.8c-.6-1.1-1-2.5-1-4.1v-.1c0-1.6.3-3 .9-4.3.6-1.3 1.5-2.4 2.6-3.3 1.1-.9 2.4-1.6 3.9-2.1s3.1-.7 4.7-.7c2.1 0 4.3.3 6.5 1s4.2 1.6 6 2.9l-3.1 5.6c-1.6-1-3.3-1.8-5-2.3-1.7-.6-3.2-.9-4.6-.9-1.5 0-2.7.3-3.5 1-.8.6-1.3 1.5-1.3 2.4v.1c0 .6.2 1.1.6 1.6.4.4 1 .9 1.7 1.2.7.4 1.5.7 2.4 1s1.9.6 2.9.9c1.2.4 2.5.8 3.7 1.3s2.4 1.1 3.4 1.9c1 .8 1.8 1.7 2.5 2.7.6 1.1 1 2.4 1 3.9v.1c0 1.8-.3 3.4-1 4.7-.6 1.3-1.5 2.4-2.7 3.3-1.1.9-2.5 1.5-4 2-1.4.5-3 .8-4.8.8z" class="st0"/><path d="M276.4 230.7c-2.6 0-5-.5-7.2-1.4s-4.1-2.2-5.7-3.8-2.9-3.5-3.8-5.6-1.4-4.4-1.4-6.8v-.1c0-2.4.5-4.7 1.4-6.9.9-2.1 2.2-4 3.8-5.6 1.6-1.6 3.5-2.9 5.7-3.8 2.2-.9 4.6-1.4 7.2-1.4s5 .5 7.2 1.4 4.1 2.2 5.7 3.8 2.9 3.5 3.8 5.6 1.4 4.4 1.4 6.9v.1c0 2.4-.5 4.7-1.4 6.8s-2.2 4-3.8 5.6c-1.6 1.6-3.5 2.9-5.8 3.8-2.1.9-4.5 1.4-7.1 1.4zm.1-6.7c1.6 0 3-.3 4.3-.9 1.3-.6 2.3-1.4 3.2-2.4.9-1 1.6-2.1 2-3.4.5-1.3.7-2.7.7-4.2v-.1c0-1.5-.3-2.9-.8-4.3-.5-1.3-1.2-2.5-2.1-3.5s-2-1.8-3.3-2.4c-1.3-.6-2.7-.9-4.2-.9s-2.9.3-4.2.9c-1.3.6-2.3 1.4-3.2 2.3-.9 1-1.6 2.1-2 3.4-.5 1.3-.7 2.7-.7 4.2v.1c0 1.5.3 2.9.8 4.2s1.2 2.5 2.1 3.5 2 1.8 3.3 2.4c1.2.8 2.6 1.1 4.1 1.1zm21.4-28.1h7.9v7.7c1.1-2.6 2.6-4.6 4.6-6.2 2-1.5 4.5-2.3 7.5-2.1v8.2h-.4c-1.7 0-3.3.3-4.7.8-1.4.6-2.6 1.4-3.7 2.5-1 1.1-1.8 2.5-2.4 4.2s-.8 3.7-.8 5.9v12.9H298v-33.9h-.1zm38.2 34.8c-2.5 0-4.9-.5-7-1.4s-4-2.2-5.6-3.8-2.8-3.5-3.7-5.6c-.9-2.1-1.3-4.4-1.3-6.8v-.1c0-2.4.4-4.7 1.3-6.9s2.1-4.1 3.7-5.7c1.6-1.6 3.5-2.9 5.6-3.8 2.2-.9 4.5-1.4 7.1-1.4 3.2 0 5.9.5 8 1.6s4 2.5 5.6 4.2l-4.8 5.2c-1.2-1.2-2.5-2.3-3.8-3.1-1.4-.8-3-1.2-5-1.2-1.4 0-2.7.3-3.9.9-1.2.6-2.2 1.4-3.1 2.3-.9 1-1.5 2.1-2 3.4-.5 1.3-.7 2.7-.7 4.2v.1c0 1.5.2 2.9.7 4.2s1.2 2.5 2.1 3.5 2 1.8 3.2 2.4c1.2.6 2.6.9 4.1.9 1.8 0 3.5-.4 4.9-1.2s2.7-1.8 4-3.1l4.7 4.6c-1.7 1.9-3.6 3.4-5.7 4.6-2.4 1.4-5.1 2-8.4 2zm39.3-.8v-4.2c-1.2 1.4-2.6 2.5-4.4 3.5-1.8.9-4 1.4-6.6 1.4-1.6 0-3.2-.2-4.6-.7-1.5-.5-2.7-1.1-3.8-2-1.1-.9-2-2-2.6-3.3-.7-1.3-1-2.8-1-4.5v-.1c0-1.9.3-3.5 1-4.9s1.6-2.6 2.9-3.5c1.2-.9 2.7-1.6 4.4-2.1 1.7-.5 3.5-.7 5.5-.7 2.1 0 3.8.1 5.2.4 1.4.3 2.8.6 4.2 1v-.6c0-2.4-.7-4.2-2.2-5.4-1.4-1.2-3.5-1.9-6.2-1.9-1.9 0-3.6.2-5.1.6-1.5.4-3 .9-4.6 1.5l-2.1-6.2c1.9-.9 3.8-1.5 5.8-2.1 2-.5 4.4-.8 7.1-.8 5.1 0 8.8 1.3 11.3 3.8 2.4 2.5 3.7 6 3.7 10.6v20.2h-7.9zm.2-14.2c-1-.4-2.2-.7-3.5-1-1.4-.3-2.8-.4-4.3-.4-2.4 0-4.4.5-5.7 1.4-1.4.9-2.1 2.2-2.1 3.9v.1c0 1.6.6 2.9 1.9 3.7 1.3.9 2.8 1.3 4.7 1.3 1.3 0 2.5-.2 3.6-.5s2-.8 2.9-1.4c.8-.6 1.4-1.4 1.9-2.3.4-.9.7-1.9.7-2.9v-1.9h-.1z" class="st0"/><path d="M250.8 212.8c0 3.1-2.5 5.7-5.7 5.7-3.1 0-5.7-2.5-5.7-5.7 0-3.1 2.5-5.7 5.7-5.7 3.1 0 5.7 2.5 5.7 5.7z" class="st0"/><linearGradient id="SVGID_1_" x1="411.148" x2="129.302" y1="158.843" y2="156.178" gradientTransform="matrix(1 0 0 -1 0 245)" gradientUnits="userSpaceOnUse"><stop offset="0" stop-color="#5d2d75"/><stop offset="1" stop-color="#ea71ab"/></linearGradient><path fill="url(#SVGID_1_)" d="M327.3 159.6c40.2 0 72.7-32.5 72.7-72.6s-32.6-72.7-72.7-72.7c-40 0-57.6 26.6-73.5 56.3-19.6 36.2-24.5 45.6-24.5 45.6l-40.1-87.8c-2.3-6-7.4-10.5-15.1-10.5-8.3 0-14.9 6.4-14.9 14.7 0 2.5.8 4.8 1.7 7.2l50.2 105.3c3.9 7 8.7 11.8 16.9 11.8h1.9c8.1 0 12.9-4.6 16.9-11.8l14.4-27.6c19.8 39.3 56 42.1 66.1 42.1zm0-26.4c-25.5 0-46.2-20.7-46.2-46.2s20.7-46.2 46.2-46.2 46.2 20.7 46.2 46.2c.1 25.5-20.6 46.2-46.2 46.2z"/><linearGradient id="SVGID_00000092437969551673304170000003585213006894236555_" x1="217.276" x2="165.042" y1="119.56" y2="232.756" gradientTransform="matrix(1 0 0 -1 0 245)" gradientUnits="userSpaceOnUse"><stop offset="0" stop-color="#c1282d"/><stop offset=".476" stop-color="#ee2d2f"/><stop offset=".976" stop-color="#f79421"/></linearGradient><path fill="url(#SVGID_00000092437969551673304170000003585213006894236555_)" d="M202.9 127.8C201.8 126 161 39.9 161 39.9c-1-2.3-1.7-4.7-1.7-7.2 0-8.3 6.6-14.7 14.9-14.7 7.8 0 12.8 4.5 15.1 10.5l40 87.6c0-.1-14.8 27.2-26.4 11.7z"/><defs><filter id="Adobe_OpacityMaskFilter" width="169.1" height="142.6" x="202.8" y="14.3" filterUnits="userSpaceOnUse"><feColorMatrix values="1 0 0 0 0 0 1 0 0 0 0 0 1 0 0 0 0 0 1 0"/></filter></defs><mask id="SVGID_00000023269653964645920080000010885713432521593222_" width="169.1" height="142.6" x="202.8" y="14.3" maskUnits="userSpaceOnUse"><g filter="url(#Adobe_OpacityMaskFilter)"><linearGradient id="SVGID_00000017503171089046020760000003769314390424524461_" x1="324.855" x2="373.274" y1="164.05" y2="164.05" gradientTransform="matrix(1 0 0 -1 0 245)" gradientUnits="userSpaceOnUse"><stop offset="0" stop-color="#fff"/><stop offset="1" stop-color="#010101"/></linearGradient><path fill="url(#SVGID_00000017503171089046020760000003769314390424524461_)" d="M201.1-30.3h170.8v222.5H201.1z"/></g></mask><linearGradient id="SVGID_00000126288581809085007120000010095996563098284427_" x1="228.897" x2="341.701" y1="51.657" y2="244.514" gradientTransform="matrix(1 0 0 -1 0 245)" gradientUnits="userSpaceOnUse"><stop offset="0" stop-color="#ec2227"/><stop offset=".598" stop-color="#ee305d"/><stop offset="1" stop-color="#722d71"/></linearGradient><path fill="url(#SVGID_00000126288581809085007120000010095996563098284427_)" d="M351.3 18.4c-7.5-2.6-15.6-4.1-24-4.1-40 0-57.6 26.6-73.5 56.3-19.6 36.2-24.5 45.6-24.5 45.6l-.1-.2s-14.8 27.3-26.4 11.8l8.3 17.3c3.9 7 8.7 11.8 16.9 11.8h1.9c8.1 0 12.9-4.6 16.9-11.8l14.3-27.4L284.7 69c7-16.6 23.4-28.3 42.6-28.3 17.6 0 33 9.9 40.8 24.4.1 0 .2-.1.3-.1 0 0 15-31.9-17.1-46.6z" mask="url(#SVGID_00000023269653964645920080000010885713432521593222_)"/></svg>