<svg xmlns="http://www.w3.org/2000/svg" role="img" viewBox="-5.16 -5.16 268.06 164.06"><title>Viaccess SA (member) logo</title><path fill="#d42329" d="M131 71h1v1h-1z"/><path fill="#b40c4d" d="M157 47h1v1h-1z"/><path d="M146 67h1v1h-1zm1 0h1v1h-1zm2 1h1v1h-1z" fill="#ee2c4f"/><path d="M114 106h1v1h-1zm-10 4h1v1h-1zm68 1h1v1h-1z" fill="#84858a"/><path fill="#bd2c65" d="M161 49h1v1h-1z"/><path fill="#a7a8ab" d="M183 110h1v1h-1z"/><path fill="#c9b7d0" d="M194 64h1v1h-1z"/><path fill="#ee2f30" d="M129 58h1v1h-1z"/><path fill="#ee2343" d="M142 72h1v1h-1z"/><path fill="#eadbe9" d="M170 89h1v1h-1z"/><path d="M124 102h1v1h-1zm-42 5h1v1h-1zm89 3h1v1h-1z" fill="#75787d"/><path d="M160 47h1v1h-1zm3 2h1v1h-1z" fill="#b82c65"/><path fill="#f15c28" d="M120 52h1v1h-1z"/><path fill="#511065" d="M190 54h1v1h-1z"/><path fill="#77357e" d="M184 55h1v1h-1z"/><path fill="#f2cad6" d="M159 56h1v1h-1z"/><path fill="#ed2724" d="M130 57h1v1h-1z"/><path fill="#c52329" d="M132 74h1v1h-1z"/><path fill="#9d1257" d="M162 44h1v1h-1z"/><path fill="#f0b4c6" d="M152 51h1v1h-1z"/><path fill="#f25c73" d="M142 69h1v1h-1z"/><path fill="#c0c0c2" d="M176 111h1v1h-1z"/><path d="M167 46h1v1h-1zm2 1h1v1h-1zm1 1h1v1h-1z" fill="#a52b69"/><path fill="#f2c092" d="M116 47h1v1h-1z"/><path fill="#5d246f" d="M193 61h1v1h-1z"/><path fill="#eb2229" d="M128 66h1v1h-1z"/><path d="M154 101h1v1h-1zm20 0h1v1h-1zm-60 2h1v1h-1zm-25 6h1v1h-1z" fill="#818488"/><path fill="#828388" d="M120 104h1v1h-1z"/><path d="M161 105h1v1h-1zm-35 2h1v1h-1zm31 4h1v1h-1z" fill="#cdced0"/><path fill="#f27920" d="M120 46h1v1h-1z"/><path fill="#cfd0d1" d="M148 105h1v1h-1z"/><path fill="#a9aaae" d="M67 106h1v1h-1z"/><path d="M116 107h2v1h-2zm2 0h1v1h-1z" fill="#cecfd0"/><path fill="#f2ebed" d="M144 64h1v1h-1z"/><path fill="#dadadc" d="M160 105h1v1h-1z"/><path d="M71 106h1v1h-1zm88 3h1v1h-1z" fill="#c9c9cb"/><path fill="#9e488d" d="M156 77h1v1h-1z"/><path fill="#c36892" d="M170 50h1v1h-1z"/><path d="M123 53h1v1h-1zm-2 1h1v1h-1z" fill="#f04f2a"/><path fill="#eb2a59" d="M150 55h1v1h-1z"/><path d="M84 102h1v1h-1zm69 0h1v1h-1zm-85 6h1v1h-1z" fill="#95979b"/><path d="M157 108h1v1h-1zm6 3h1v1h-1z" fill="#a8a9ad"/><path fill="#912f70" d="M172 44h1v1h-1z"/><path fill="#86898c" d="M187 106h1v1h-1z"/><path fill="#81478a" d="M183 74h1v1h-1z"/><path fill="#924282" d="M152 75h1v1h-1z"/><path fill="#c8a2c6" d="M169 80h1v1h-1z"/><path fill="#75787e" d="M173 111h1v1h-1z"/><path fill="#63176a" d="M184 57h1v1h-1z"/><path fill="#ef3d19" d="M127 52h1v1h-1z"/><path fill="#cf2129" d="M134 71h1v1h-1z"/><path fill="#f13f50" d="M144 84h1v1h-1z"/><path d="M87 102h1v1h-1zm75 3h1v1h-1zm-75 5h1v1h-1z" fill="#838589"/><path fill="#6e7175" d="M133 103h1v1h-1z"/><path fill="#bb93b8" d="M178 43h1v1h-1z"/><path fill="#70377e" d="M188 78h1v1h-1z"/><path d="M132 102h1v1h-1zm7 4h1v1h-1zm-25 5h1v1h-1z" fill="#d6d6d8"/><path fill="#e5e5e7" d="M118 112h1v1h-1z"/><path fill="#8b3f7a" d="M153 71h1v1h-1z"/><path d="M164 82h1v1h-1zm0 1h1v2h-1zm0 2h1v1h-1z" fill="#96448e"/><path d="M167 101h1v1h-1zm-65 3h1v1h-1z" fill="#aaabae"/><path d="M149 62h1v1h-1zm1 0h1v1h-1zm0 1h2v1h-2zm2 0h1v1h-1z" fill="#ee2e56"/><path fill="#ce2129" d="M132 72h1v1h-1z"/><path fill="#c5000b" d="M129 74h1v1h-1z"/><path fill="#d8d9da" d="M130 106h1v1h-1z"/><path fill="#f2cdb0" d="M116 49h1v1h-1z"/><path d="M68 106h1v1h-1zm71 2h1v1h-1zm-20 2h1v1h-1zm37 0h1v1h-1z" fill="#73767b"/><path fill="#da171e" d="M134 68h1v1h-1z"/><path fill="#f26b26" d="M124 47h1v1h-1z"/><path fill="#79367e" d="M183 48h1v1h-1z"/><path fill="#cf1e25" d="M135 70h1v1h-1z"/><path fill="#f2777f" d="M132 82h1v1h-1z"/><path fill="#8d3274" d="M174 45h1v1h-1z"/><path fill="#ec090f" d="M132 62h1v1h-1z"/><path d="M149 65h1v1h-1zm1 0h1v1h-1z" fill="#ee2c53"/><path fill="#e61f41" d="M149 74h1v1h-1z"/><path fill="#7f8285" d="M170 102h1v1h-1z"/><path fill="#cb97b7" d="M175 51h1v1h-1z"/><path fill="#dd8a8b" d="M129 76h1v1h-1z"/><path d="M79 99h1v1h-1zm58 1h1v1h-1zm30 0h1v1h-1zm-89 12h1v1h-1z" fill="#ebebec"/><path fill="#d22d62" d="M158 53h1v1h-1z"/><path fill="#a04a93" d="M157 78h1v1h-1z"/><path d="M143 104h1v1h-1zm-46 8h1v1h-1zm20 0h1v1h-1z" fill="#e3e4e4"/><path d="M81 107h1v1h-1zm-9 2h1v1h-1z" fill="#a6a7ab"/><path fill="#dadbdc" d="M83 108h1v1h-1z"/><path fill="#ee262a" d="M131 62h1v1h-1z"/><path fill="#f2dfe5" d="M160 55h1v1h-1z"/><path fill="#ee282a" d="M126 62h1v1h-1z"/><path fill="#974589" d="M156 75h1v1h-1z"/><path fill="#6d337d" d="M189 76h1v1h-1z"/><path fill="#b42529" d="M135 77h1v1h-1z"/><path fill="#dccfe0" d="M189 80h1v1h-1z"/><path fill="#8c8f93" d="M150 106h1v1h-1z"/><path fill="#e9aabf" d="M162 53h1v1h-1z"/><path fill="#ef3a5e" d="M146 62h1v1h-1z"/><path d="M128 101h1v1h-1zm-18 8h1v1h-1z" fill="#7e8185"/><path fill="#83206a" d="M178 51h1v1h-1z"/><path fill="#edeeee" d="M98 109h1v1h-1z"/><path fill="#c4a7c8" d="M178 78h1v1h-1z"/><path d="M160 80h1v3h-1zm0 3h1v1h-1z" fill="#9c4791"/><path d="M71 108h1v1h-1zm108 0h1v1h-1z" fill="#898b8f"/><path fill="#c02528" d="M135 74h1v1h-1z"/><path d="M75 101h1v1h-1zm7 1h1v1h-1zm95 0h1v1h-1zm-28 2h1v1h-1zm34 1h1v1h-1zm-28 5h1v1h-1z" fill="#8e9094"/><path fill="#dedfe1" d="M82 103h1v1h-1z"/><path d="M122 106h1v1h-1zm-21 3h1v1h-1zm57 1h1v1h-1z" fill="#bfc0c2"/><path fill="#895e97" d="M192 74h1v1h-1z"/><path d="M96 100h1v1h-1zm22 0h1v1h-1zm8 12h1v1h-1z" fill="#e6e7e8"/><path fill="#c3252d" d="M131 79h1v1h-1z"/><path fill="#8c3579" d="M178 50h1v1h-1z"/><path fill="#9470a1" d="M193 71h1v1h-1z"/><path fill="#f2af6e" d="M117 45h1v1h-1z"/><path fill="#e82329" d="M128 67h1v1h-1z"/><path fill="#99689f" d="M181 76h1v1h-1z"/><path fill="#f26c25" d="M121 48h1v1h-1z"/><path fill="#e21149" d="M151 54h1v1h-1z"/><path fill="#99478b" d="M157 75h1v1h-1z"/><path d="M139 77h1v1h-1zm1 0h1v1h-1zm2 1h1v1h-1zm1 1h1v1h-1zm1 0h1v1h-1z" fill="#ee253f"/><path fill="#9f428e" d="M154 80h1v1h-1z"/><path fill="#b9225e" d="M158 47h1v1h-1z"/><path fill="#ed2140" d="M147 76h1v1h-1z"/><path fill="#dc2228" d="M129 70h1v1h-1z"/><path d="M115 101h1v1h-1zm-26 1h1v1h-1zm50 5h1v1h-1zm-2 4h1v1h-1z" fill="#888a8e"/><path fill="#742276" d="M174 81h1v1h-1z"/><path fill="#f1243e" d="M138 78h1v1h-1z"/><path fill="#ece4ee" d="M190 79h1v1h-1z"/><path fill="#7c7d82" d="M135 111h1v1h-1z"/><path fill="#9c79a7" d="M191 54h1v1h-1z"/><path fill="#6d1c71" d="M176 80h1v1h-1z"/><path fill="#c95884" d="M165 51h1v1h-1z"/><path fill="#8a3579" d="M179 51h1v1h-1z"/><path fill="#da2328" d="M130 70h1v1h-1z"/><path d="M151 102h1v1h-1zm-38 1h1v1h-1zm31 2h1v1h-1zm-66 2h1v1h-1zm11 0h1v1h-1zm73 0h1v1h-1zm7 0h1v1h-1zm11 0h1v1h-1zm-102 1h1v1h-1z" fill="#777a7f"/><path fill="#8b8d90" d="M128 111h1v1h-1z"/><path fill="#f2760e" d="M121 44h1v1h-1z"/><path fill="#a13371" d="M173 50h1v1h-1z"/><path d="M129 60h1v1h-1zm-1 1h1v1h-1zm-3 1h1v1h-1z" fill="#ee292c"/><path fill="#551b6a" d="M193 64h1v1h-1z"/><path fill="#f2aaab" d="M126 70h1v1h-1z"/><path d="M135 76h1v1h-1zm-2 1h1v1h-1z" fill="#b82429"/><path fill="#b4b5b8" d="M127 105h1v1h-1z"/><path d="M179 46h1v1h-1zm1 2h1v1h-1z" fill="#82347a"/><path fill="#e22d54" d="M152 68h1v1h-1z"/><path fill="#e5aead" d="M138 73h1v1h-1z"/><path fill="#95979a" d="M92 106h1v1h-1z"/><path d="M96 109h1v1h-1zm38 0h1v1h-1z" fill="#d4d5d6"/><path fill="#f2b0b0" d="M134 64h1v1h-1z"/><path fill="#dec5dc" d="M164 88h1v1h-1z"/><path fill="#9a3789" d="M155 82h1v1h-1z"/><path d="M186 62h1v1h-1zm0 6h1v1h-1z" fill="#5b166b"/><path d="M177 81h1v3h-1zm0 3h1v1h-1z" fill="#803c84"/><path d="M105 101h1v1h-1zm-32 1h1v1h-1z" fill="#949699"/><path fill="#a4a6aa" d="M85 110h1v1h-1z"/><path fill="#f0551b" d="M119 52h1v1h-1z"/><path fill="#895694" d="M186 48h1v1h-1z"/><path fill="#84417f" d="M152 72h1v1h-1z"/><path d="M162 81h1v2h-1zm0 2h1v2h-1zm0 2h1v1h-1z" fill="#99458f"/><path fill="#f2b890" d="M125 45h1v1h-1z"/><path fill="#ee1e4f" d="M156 59h1v1h-1z"/><path d="M163 46h1v1h-1zm2 1h1v1h-1z" fill="#ad2c67"/><path d="M177 45h1v1h-1zm2 3h1v1h-1z" fill="#853479"/><path fill="#a02a69" d="M166 44h1v1h-1z"/><path fill="#5e2572" d="M192 70h1v1h-1z"/><path d="M153 54h1v1h-1zm2 1h1v1h-1z" fill="#e12d5f"/><path d="M95 102h1v1h-1zm-27 3h1v1h-1zm82 3h1v1h-1z" fill="#7a7d82"/><path fill="#a3a4a7" d="M124 109h1v1h-1z"/><path fill="#d02129" d="M131 72h1v1h-1z"/><path fill="#a14a94" d="M157 79h1v1h-1z"/><path fill="#f01937" d="M140 74h1v1h-1z"/><path fill="#c92059" d="M161 53h1v1h-1z"/><path fill="#ec1013" d="M124 63h1v1h-1z"/><path fill="#e7070e" d="M133 64h1v1h-1z"/><path fill="#dc0a11" d="M134 67h1v1h-1z"/><path fill="#8c2c80" d="M161 78h1v1h-1z"/><path fill="#78226d" d="M177 44h1v1h-1z"/><path fill="#f28393" d="M148 77h1v1h-1z"/><path fill="#9f488e" d="M154 78h1v1h-1z"/><path fill="#ebeced" d="M128 100h1v1h-1z"/><path d="M73 101h1v1h-1zm93 2h1v1h-1zm-52 1h1v1h-1zm-27 1h1v1h-1zm28 4h1v1h-1z" fill="#b7b8bb"/><path fill="#f25e00" d="M124 45h1v1h-1z"/><path fill="#a5a6a9" d="M90 106h1v1h-1z"/><path fill="#893478" d="M178 49h1v1h-1z"/><path fill="#e3d6e4" d="M185 65h1v1h-1z"/><path fill="#8c387d" d="M156 73h1v1h-1z"/><path fill="#9b5296" d="M166 80h1v1h-1z"/><path fill="#f27a09" d="M119 44h1v1h-1z"/><path fill="#c8222a" d="M135 72h1v1h-1z"/><path fill="#9d9fa1" d="M145 105h1v1h-1z"/><path fill="#e393aa" d="M156 61h1v1h-1z"/><path fill="#ed2229" d="M131 64h1v1h-1z"/><path fill="#f22641" d="M149 73h1v1h-1z"/><path fill="#ae8bb5" d="M183 85h1v1h-1z"/><path fill="#e2d5e4" d="M180 87h1v1h-1z"/><path d="M77 103h1v4h-1zm0 4h1v2h-1zm0 2h1v1h-1zm61 2h1v1h-1z" fill="#b3b5b7"/><path fill="#f27711" d="M117 46h1v1h-1z"/><path fill="#ed2f5d" d="M153 57h1v1h-1z"/><path d="M77 99h1v1h-1zm49 5h1v1h-1zm-35 2h1v1h-1zm0 1h1v1h-1zm20 0h1v1h-1zm-32 5h1v1h-1zm49 0h1v1h-1zm47 0h1v1h-1z" fill="#f0f0f1"/><path fill="#7b2571" d="M181 53h1v1h-1z"/><path fill="#510f64" d="M189 52h1v1h-1z"/><path fill="#ef3638" d="M132 61h1v1h-1z"/><path fill="#d4b8d3" d="M170 80h1v1h-1z"/><path fill="#85508e" d="M184 84h1v1h-1z"/><path fill="#8b3477" d="M177 48h1v1h-1z"/><path fill="#7a2f7d" d="M175 87h1v1h-1z"/><path fill="#d7d8d9" d="M125 109h1v1h-1z"/><path fill="#707379" d="M138 110h1v1h-1z"/><path fill="#ce0007" d="M135 69h1v1h-1z"/><path fill="#949599" d="M163 106h1v1h-1z"/><path fill="#9e6ca0" d="M180 44h1v1h-1z"/><path fill="#7d1d68" d="M179 52h1v1h-1z"/><path fill="#f2eded" d="M128 75h1v1h-1z"/><path fill="#99468f" d="M162 80h1v1h-1z"/><path d="M155 102h1v1h-1zm-82 4h1v1h-1zm35 4h1v1h-1z" fill="#929498"/><path fill="#f2770b" d="M120 44h1v1h-1z"/><path fill="#f2ccd4" d="M142 68h1v1h-1z"/><path fill="#ce2d62" d="M156 51h1v1h-1z"/><path d="M182 77h1v1h-1zm0 5h1v1h-1z" fill="#763880"/><path d="M171 81h1v1h-1zm0 6h1v1h-1z" fill="#853784"/><path fill="#c02428" d="M133 75h1v1h-1z"/><path fill="#f26144" d="M128 52h1v1h-1z"/><path fill="#f2294a" d="M150 70h1v1h-1z"/><path fill="#c82229" d="M131 74h1v1h-1z"/><path d="M159 80h1v2h-1zm0 2h1v1h-1z" fill="#9e4892"/><path fill="#ee390e" d="M127 51h1v1h-1z"/><path fill="#803172" d="M155 70h1v1h-1z"/><path d="M137 102h1v1h-1zm-69 2h1v1h-1zm116 1h1v1h-1zm-13 4h1v1h-1z" fill="#97999d"/><path fill="#e62d5d" d="M154 56h1v1h-1z"/><path fill="#f0502a" d="M125 52h1v1h-1z"/><path fill="#f04b2a" d="M125 53h1v1h-1z"/><path fill="#e22e56" d="M153 66h1v1h-1z"/><path fill="#97428d" d="M163 80h1v1h-1z"/><path fill="#7d347b" d="M181 47h1v1h-1z"/><path fill="#782d76" d="M181 46h1v1h-1z"/><path fill="#ef490e" d="M126 49h1v1h-1z"/><path fill="#f2e2e4" d="M131 81h1v1h-1z"/><path fill="#c06f98" d="M163 43h1v1h-1z"/><path fill="#9a9b9e" d="M85 106h1v1h-1z"/><path fill="#f2a1a2" d="M133 62h1v1h-1z"/><path fill="#6f7277" d="M127 106h1v1h-1z"/><path fill="#f2c3c3" d="M135 66h1v1h-1z"/><path d="M110 101h1v1h-1zm-8 7h1v1h-1z" fill="#b1b2b6"/><path fill="#ed2f5c" d="M154 60h1v1h-1z"/><path fill="#f2797a" d="M131 58h1v1h-1z"/><path fill="#ec222a" d="M130 65h1v1h-1z"/><path d="M66 101h1v1h-1zm38 1h1v1h-1zm29 0h1v1h-1zm38 0h1v1h-1zm-104 1h1v1h-1zm102 3h1v1h-1zm-7 2h1v1h-1zm-28 2h1v1h-1zm46 0h1v1h-1z" fill="#787a7f"/><path fill="#f26c37" d="M118 52h1v1h-1z"/><path fill="#8f4089" d="M168 82h1v1h-1z"/><path fill="#dedfe0" d="M170 101h1v1h-1z"/><path fill="#8d3479" d="M151 76h1v1h-1z"/><path fill="#d83264" d="M159 55h1v1h-1z"/><path d="M128 60h1v1h-1zm-2 1h1v1h-1z" fill="#ee292d"/><path fill="#9b2c6b" d="M168 44h1v1h-1z"/><path fill="#f2bbbf" d="M140 88h1v1h-1z"/><path fill="#5d2370" d="M191 57h1v1h-1z"/><path d="M143 71h1v1h-1zm2 1h1v1h-1zm2 1h1v1h-1z" fill="#ee2a48"/><path fill="#ac1252" d="M159 46h1v1h-1z"/><path fill="#e8587f" d="M151 53h1v1h-1z"/><path fill="#954486" d="M154 75h1v1h-1z"/><path d="M137 80h1v1h-1zm1 0h1v1h-1zm1 1h1v1h-1zm1 1h1v1h-1zm1 0h1v1h-1zm1 1h1v1h-1z" fill="#ee243a"/><path d="M70 108h1v1h-1zm35 3h1v1h-1z" fill="#a7a9ac"/><path fill="#b02d67" d="M162 46h1v1h-1z"/><path fill="#acaeb0" d="M132 104h1v1h-1z"/><path fill="#772571" d="M182 55h1v1h-1z"/><path d="M171 83h1v3h-1zm0 3h1v1h-1z" fill="#8a4089"/><path fill="#dcbfd3" d="M177 52h1v1h-1z"/><path d="M127 59h1v1h-1zm-2 1h1v1h-1z" fill="#ee2e2f"/><path d="M167 82h1v4h-1zm0 4h1v1h-1z" fill="#91428c"/><path fill="#f04e2b" d="M126 52h1v1h-1z"/><path fill="#d52329" d="M133 70h1v1h-1z"/><path fill="#f04c2a" d="M124 53h1v1h-1z"/><path fill="#af2965" d="M167 49h1v1h-1z"/><path fill="#652c76" d="M190 55h1v1h-1z"/><path fill="#a44c96" d="M155 80h1v1h-1z"/><path fill="#73757b" d="M95 110h1v1h-1z"/><path fill="#f2620e" d="M117 49h1v1h-1z"/><path fill="#773a81" d="M184 82h1v1h-1z"/><path fill="#d1d1d3" d="M93 110h1v1h-1z"/><path fill="#ec1031" d="M142 70h1v1h-1z"/><path fill="#742b79" d="M178 86h1v1h-1z"/><path fill="#8a8c91" d="M112 106h1v1h-1z"/><path d="M129 66h1v1h-1zm-2 1h1v1h-1z" fill="#ea2329"/><path fill="#82357a" d="M180 49h1v1h-1z"/><path fill="#85357a" d="M180 50h1v1h-1z"/><path fill="#ec1233" d="M141 73h1v1h-1z"/><path fill="#cbb6d0" d="M188 81h1v1h-1z"/><path d="M65 100h1v1h-1zm1 0h1v1h-1zm9 0h1v1h-1zm34 0h1v1h-1zm2 1h1v1h-1z" fill="#eeeeef"/><path fill="#c0c2c4" d="M114 101h1v1h-1z"/><path fill="#a82b68" d="M169 48h1v1h-1z"/><path fill="#e42329" d="M129 68h1v1h-1z"/><path fill="#f22542" d="M148 74h1v1h-1z"/><path fill="#d0a0c8" d="M154 82h1v1h-1z"/><path fill="#ed1927" d="M135 86h1v1h-1z"/><path fill="#c8c9cb" d="M119 105h1v1h-1z"/><path fill="#707277" d="M176 110h1v1h-1z"/><path d="M132 67h1v1h-1zm1 0h1v1h-1z" fill="#e22329"/><path fill="#4d0e62" d="M192 59h1v1h-1z"/><path fill="#88448a" d="M175 80h1v1h-1z"/><path d="M165 101h1v1h-1zm-42 1h1v1h-1zm58 1h1v1h-1z" fill="#bebfc1"/><path fill="#898a8f" d="M120 109h1v1h-1z"/><path fill="#f2e3c9" d="M119 43h1v1h-1z"/><path fill="#81498a" d="M185 70h1v1h-1z"/><path fill="#74236f" d="M179 44h1v1h-1z"/><path d="M159 49h1v1h-1zm2 1h1v1h-1z" fill="#c02d64"/><path fill="#be2c65" d="M162 50h1v1h-1z"/><path fill="#835892" d="M193 60h1v1h-1z"/><path fill="#8d3585" d="M164 80h1v1h-1z"/><path fill="#9b428e" d="M159 84h1v1h-1z"/><path fill="#833c86" d="M175 86h1v1h-1z"/><path fill="#933172" d="M174 47h1v1h-1z"/><path fill="#8b8d92" d="M69 107h1v1h-1z"/><path fill="#8b3e88" d="M169 82h1v1h-1z"/><path fill="#663079" d="M192 63h1v1h-1z"/><path fill="#f2243f" d="M137 78h1v1h-1z"/><path fill="#ee3425" d="M128 55h1v1h-1z"/><path fill="#b01252" d="M165 50h1v1h-1z"/><path fill="#c91954" d="M160 53h1v1h-1z"/><path fill="#f2b9ba" d="M124 66h1v1h-1z"/><path fill="#9a9ba0" d="M186 101h1v1h-1z"/><path fill="#a3a5a8" d="M154 110h1v1h-1z"/><path fill="#9c2b69" d="M165 43h1v1h-1z"/><path fill="#933274" d="M175 48h1v1h-1z"/><path fill="#632172" d="M186 67h1v1h-1z"/><path fill="#ae2c67" d="M166 48h1v1h-1z"/><path fill="#cb2e63" d="M156 50h1v1h-1z"/><path fill="#e0134b" d="M157 57h1v1h-1z"/><path fill="#b980b1" d="M159 75h1v1h-1z"/><path fill="#b178ad" d="M167 80h1v1h-1z"/><path d="M74 101h1v1h-1zm88 1h1v1h-1z" fill="#76787e"/><path fill="#696c71" d="M166 102h1v1h-1z"/><path fill="#a8aaad" d="M90 104h1v1h-1z"/><path fill="#eee6f0" d="M187 48h1v1h-1z"/><path fill="#d83062" d="M154 52h1v1h-1z"/><path fill="#74317a" d="M184 56h1v1h-1z"/><path d="M190 63h1v6h-1zm0 6h1v1h-1z" fill="#6a317b"/><path fill="#ededed" d="M171 104h1v1h-1z"/><path fill="#c5c5c7" d="M113 110h1v1h-1z"/><path fill="#d0144d" d="M153 51h1v1h-1z"/><path fill="#ee1e23" d="M126 66h1v1h-1z"/><path fill="#7e155f" d="M172 43h1v1h-1z"/><path d="M124 52h1v1h-1zm-2 1h1v1h-1z" fill="#f05229"/><path fill="#cebad3" d="M185 63h1v1h-1z"/><path fill="#7a3a76" d="M154 68h1v1h-1z"/><path fill="#914180" d="M152 74h1v1h-1z"/><path fill="#8f3183" d="M160 77h1v1h-1z"/><path fill="#681c70" d="M179 86h1v1h-1z"/><path fill="#880f57" d="M168 43h1v1h-1z"/><path fill="#83347a" d="M179 47h1v1h-1z"/><path fill="#ca2e64" d="M160 52h1v1h-1z"/><path fill="#e62f5e" d="M152 55h1v1h-1z"/><path fill="#e2e2e4" d="M80 108h1v1h-1z"/><g fill="#f2f2f2"><path d="M7 0h1v1H7zm1 0h1v1H8zm1 0h1v1H9zm1 0h1v1h-1zm1 0h235v41H11zm235 0h1v153h-1zm1 0h1v1h-1zm1 0h1v1h-1zm1 0h1v1h-1zm1 0h1v1h-1zm1 0h1v1h-1zM5 1h1v1H5zm1 0h1v1H6zm1 0h1v1H7z"/><path d="M8 1h242v40H8zm242 0h1v150h-1zm1 0h1v1h-1zm1 0h1v1h-1zM4 2h1v1H4zm1 0h1v1H5z"/><path d="M6 2h245v39H6zm245 0h1v149h-1zm1 0h1v1h-1zm1 0h1v1h-1zM3 3h1v1H3z"/><path d="M4 3h249v38H4zm249 0h1v147h-1zm1 0h1v1h-1zM2 4h1v1H2z"/><path d="M3 4h251v37H3zm251 0h1v145h-1zm1 0h1v1h-1zm1 0h1v1h-1zM1 5h1v1H1zm1 0h1v1H2zm253 0h1v1h-1zm1 0h1v1h-1zM1 6h1v1H1z"/><path d="M2 6h253v35H2zm253 0h1v141h-1zm1 0h1v1h-1zM0 7h1v1H0z"/><path d="M1 7h254v34H1zm255 0h1v1h-1zM0 8h1v1H0zm256 0h1v138h-1zm1 0h1v1h-1zM0 9h1v1H0zm257 0h1v1h-1z"/><path d="M0 10h256v31H0zm257 0h1v1h-1zm0 1h1v132h-1zM0 41h257v1H0zm0 1h164v1H0zm164 0h1v1h-1zm13 0h80v1h-80zM0 43h118v1H0zm118 0h1v1h-1zm6 0h37v1h-37zm37 0h1v1h-1zm19 0h77v1h-77zM0 44h117v1H0zm117 0h1v1h-1zm8 0h34v1h-34zm34 0h1v1h-1zm23 0h75v1h-75zM0 45h116v50H0zm116 0h1v1h-1zm10 0h31v1h-31zm31 0h1v1h-1zm27 0h73v1h-73zm-57 1h29v1h-29zm29 0h1v1h-1zm29 0h72v1h-72zm-58 1h28v1h-28zm28 0h1v1h-1zm31 0h71v1h-71zm-58 1h26v1h-26zm26 0h1v1h-1zm34 0h69v1h-69zm-60 1h25v1h-25zm25 0h1v1h-1zm36 0h68v1h-68zm-73 1h1v49h-1zm12 0h24v1h-24zm24 0h1v1h-1zm37 0h68v1h-68zm-60 1h22v1h-22zm22 0h1v1h-1zm18 0h3v28h-3zm3 0h1v28h-1zm18 0h67v1h-67zm-73 1h1v47h-1zm12 0h21v1h-21zm21 0h1v1h-1z"/><path d="M165 52h11v26h-11zm11 0h1v26h-1zm15 0h66v1h-66zm-61 1h20v1h-20zm20 0h1v1h-1z"/><path d="M163 53h15v24h-15zm15 0h1v24h-1zm14 0h65v1h-65zm-62 1h19v1h-19zm19 0h1v1h-1z"/><path d="M162 54h17v23h-17zm17 0h1v22h-1zm13 0h65v1h-65zm-74 1h1v44h-1zm13 0h17v1h-17zm17 0h1v1h-1z"/><path d="M161 55h19v21h-19zm19 0h1v21h-1zm13 0h64v2h-64zm-62 1h17v1h-17zm17 0h1v1h-1z"/><path d="M160 56h21v19h-21zm21 0h1v19h-1zm-62 1h1v43h-1zm13 0h15v1h-15zm15 0h1v1h-1z"/><path d="M159 57h23v17h-23zm23 0h1v16h-1zm11 0h64v1h-64zm-61 1h15v1h-15zm15 0h1v1h-1z"/><path d="M158 58h25v14h-25zm25 0h1v14h-1zm11 0h63v2h-63zm-74 1h1v41h-1zm13 0h13v2h-13zm13 0h1v1h-1zm0 1h1v1h-1z"/><path d="M157 60h26v10h-26zm37 0h63v1h-63zm-73 1h1v40h-1zm12 0h12v1h-12zm12 0h1v1h-1zm39 0h1v9h-1zm11 0h62v85h-62zm-61 1h10v1h-10zm10 0h1v1h-1zm-22 1h1v40h-1zm12 0h10v1h-10zm10 0h1v1h-1zm-9 1h8v1h-8zm8 0h1v1h-1zm-20 1h1v36h-1zm12 0h8v1h-8zm8 0h1v1h-1z"/><path d="M156 65h28v1h-28zm-20 1h6v1h-6zm6 0h1v1h-1zm14 0h28v1h-28zm-32 1h1v33h-1zm12 0h6v1h-6zm6 0h1v1h-1zm-5 1h4v1h-4zm4 0h1v1h-1zm-16 1h1v30h-1zm12 0h4v1h-4zm4 0h1v1h-1zm-3 1h2v1h-2zm2 0h1v1h-1zm17 0h27v1h-27zm27 0h1v1h-1zm-58 1h1v28h-1zm12 0h2v1h-2zm2 0h1v1h-1zm54 0h63v75h-63zm-55 1h1v1h-1zm19 0h25v1h-25zm25 0h1v1h-1zm-56 1h1v26h-1zm12 0h1v1h-1zm43 0h1v1h-1zm-23 1h22v1h-22z"/><path d="M193 74h64v72h-64zm-33 1h21v1h-21zm21 0h1v1h-1zm-53 1h1v23h-1zm33 0h19v1h-19zm19 0h1v1h-1z"/><path d="M192 76h65v70h-65zm-43 1h1v25h-1zm13 0h16v1h-16zm16 0h1v1h-1zm-49 1h1v22h-1zm21 0h1v23h-1zm14 0h13v1h-13zm13 0h1v1h-1z"/><path d="M191 78h66v68h-66zm-43 1h2v23h-2zm19 0h7v1h-7zm7 0h1v1h-1zm-44 1h1v20h-1z"/><path d="M147 80h4v21h-4zm4 0h1v20h-1zm39 0h67v66h-67zm-38 1h1v19h-1z"/><path d="M189 81h68v65h-68zm-58 1h1v24h-1zm15 0h7v18h-7zm7 0h1v17h-1z"/><path d="M188 82h69v19h-69zm-34 1h1v16h-1z"/><path d="M187 83h70v17h-70zm-55 1h1v17h-1zm13 0h10v15h-10zm10 0h1v15h-1z"/><path d="M186 84h71v16h-71zm-30 1h1v15h-1zm1 0h1v15h-1z"/><path d="M184 85h73v14h-73zm-51 1h1v14h-1zm11 0h14v13h-14zm14 0h1v15h-1z"/><path d="M183 86h74v13h-74zm-49 1h1v13h-1zm9 0h17v12h-17zm17 0h1v17h-1z"/><path d="M181 87h76v12h-76zm-46 1h1v11h-1zm1 0h1v11h-1zm5 0h22v11h-22zm22 0h1v11h-1z"/><path d="M179 88h78v11h-78zm-42 1h30v10h-30zm30 0h1v10h-1z"/><path d="M174 89h83v10h-83z"/><path d="M168 90h89v9h-89z"/><path d="M0 95h257v1H0zm0 1h77v3H0zm77 0h1v1h-1zm3 0h177v3H80zM0 99h76v1H0zm76 0h1v54h-1zm4 0h177v1H80zm-80 1h64v42H0zm64 0h1v53h-1zm3 0h6v1h-6zm6 0h1v1h-1zm4 0h6v1h-6zm6 0h1v1h-1zm5 0h7v1h-7zm7 0h1v1h-1zm5 0h5v1h-5zm5 0h1v1h-1zm5 0h4v1h-4zm4 0h1v1h-1zm5 0h5v1h-5zm5 0h1v1h-1zm5 0h5v1h-5zm5 0h1v1h-1zm4 0h14v1h-14zm14 0h1v1h-1zm4 0h5v1h-5zm5 0h1v1h-1zm3 0h1v1h-1zm1 0h1v1h-1zm3 0h3v1h-3zm3 0h1v1h-1zm5 0h5v1h-5zm5 0h1v1h-1zm5 0h71v1h-71zm-118 1h4v1h-4zm4 0h1v1h-1zm8 0h1v6h-1zm1 0h1v4h-1zm9 0h3v1h-3zm3 0h1v1h-1zm9 0h1v1h-1zm1 0h1v1h-1zm9 0h1v1h-1zm1 0h1v1h-1zm8 0h2v1h-2zm2 0h1v1h-1zm9 0h1v1h-1zm8 0h10v1h-10zm10 0h1v1h-1zm8 0h2v1h-2zm6 0h1v1h-1zm4 0h1v1h-1zm1 0h1v1h-1zm9 0h1v52h-1zm1 0h1v4h-1zm9 0h69v1h-69zm-119 1h3v2h-3zm3 0h1v1h-1zm19 0h1v2h-1zm1 0h1v1h-1zm10 0h1v1h-1zm10 0h1v1h-1zm28 0h9v1h-9zm9 0h1v1h-1zm10 0h1v1h-1zm9 0h1v1h-1zm-103 1h1v50h-1zm19 0h2v1h-2zm2 0h1v1h-1zm11 0h1v6h-1zm1 0h1v5h-1zm9 0h1v6h-1zm1 0h1v5h-1zm8 0h1v1h-1zm1 0h1v1h-1zm5 0h1v1h-1zm4 0h2v1h-2zm2 0h1v1h-1zm7 0h2v1h-2zm2 0h1v1h-1zm3 0h8v1h-8zm8 0h1v1h-1zm5 0h1v5h-1zm1 0h1v6h-1zm19 0h1v6h-1zm1 0h1v6h-1zm8 0h2v1h-2zm2 0h1v1h-1zm-115 1h2v1h-2zm2 0h1v1h-1zm4 0h1v49h-1zm7 0h5v1h-5zm5 0h1v1h-1zm4 0h1v1h-1z"/><path d="M95 104h6v3h-6zm6 0h1v1h-1zm4 0h6v3h-6zm6 0h1v1h-1zm4 0h3v1h-3zm3 0h1v1h-1zm9 0h4v1h-4zm9 0h6v1h-6zm6 0h1v1h-1zm3 0h3v1h-3zm3 0h1v1h-1zm4 0h4v4h-4zm4 0h1v4h-1zm4 0h1v1h-1zm6 0h1v49h-1zm1 0h1v49h-1zm5 0h13v1h-13zm13 0h1v1h-1zm-115 1h1v2h-1zm1 0h1v1h-1zm10 0h1v1h-1zm20 0h1v3h-1zm28 0h2v1h-2zm9 0h3v1h-3zm3 0h1v48h-1zm5 0h1v48h-1zm1 0h1v48h-1z"/><path d="M165 105h2v48h-2zm6 0h8v2h-8zm8 0h1v1h-1zm-113 1h1v47h-1zm8 0h2v47h-2zm49 0h1v2h-1zm8 0h1v1h-1zm1 0h1v2h-1zm8 0h1v1h-1zm11 0h5v1h-5z"/><path d="M164 106h3v47h-3zm-94 1h1v1h-1zm10 0h1v1h-1zm5 0h2v2h-2zm2 0h1v1h-1zm8 0h6v1h-6zm10 0h5v1h-5zm5 0h1v1h-1zm14 0h1v1h-1zm1 0h1v1h-1zm8 0h1v1h-1zm1 0h1v1h-1zm37 0h7v1h-7zm12 0h2v2h-2zm2 0h1v1h-1zm-118 1h1v45h-1z"/><path d="M84 108h3v1h-3zm3 0h1v1h-1zm4 0h1v45h-1zm5 0h3v1h-3zm3 0h2v1h-2zm2 0h1v1h-1zm5 0h3v1h-3zm3 0h2v1h-2zm2 0h1v1h-1zm4 0h12v1h-12zm12 0h1v1h-1zm5 0h4v1h-4zm4 0h1v1h-1zm6 0h1v45h-1zm3 0h3v45h-3zm3 0h1v45h-1zm4 0h4v1h-4zm4 0h1v1h-1zm4 0h1v45h-1zm12 0h3v1h-3zm3 0h3v1h-3zm7 0h3v1h-3zm3 0h1v1h-1zm-112 1h3v44h-3zm11 0h2v1h-2zm2 0h1v1h-1zm11 0h1v1h-1zm10 0h1v1h-1zm10 0h1v1h-1zm1 0h1v1h-1zm4 0h1v44h-1zm4 0h1v1h-1zm1 0h1v1h-1zm8 0h1v1h-1zm1 0h1v1h-1z"/><path d="M143 109h5v44h-5zm11 0h1v1h-1zm19 0h1v1h-1zm1 0h1v1h-1zm8 0h2v1h-2zm2 0h1v1h-1zm-104 1h1v43h-1zm12 0h1v43h-1zm10 0h1v43h-1zm10 0h1v43h-1z"/><path d="M140 110h9v43h-9zm9 0h1v43h-1zm10 0h1v43h-1zm9 0h1v43h-1zm-100 1h1v42h-1zm4 0h4v42h-4zm9 0h1v42h-1zm12 0h1v42h-1zm8 0h2v42h-2zm2 0h1v42h-1zm8 0h2v42h-2zm2 0h1v42h-1zm8 0h1v42h-1zm9 0h1v42h-1zm1 0h1v42h-1zm19 0h1v42h-1z"/><path d="M158 111h2v42h-2zm11 0h1v42h-1zm8 0h2v42h-2zm2 0h1v42h-1zm-110 1h8v41h-8zm8 0h1v41h-1zm5 0h1v41h-1zm1 0h1v41h-1zm3 0h9v41h-9zm9 0h1v41h-1zm4 0h6v41h-6zm6 0h1v41h-1zm4 0h6v41h-6zm6 0h1v41h-1zm4 0h6v41h-6zm6 0h1v41h-1zm4 0h5v41h-5zm5 0h1v41h-1zm4 0h14v41h-14zm14 0h1v41h-1z"/><path d="M156 112h5v41h-5zm5 0h10v41h-10zm10 0h1v41h-1zm5 0h5v41h-5zm5 0h1v41h-1zm3 0h2v41h-2zm2 0h71v34h-71z"/><path d="M78 113h179v33H78z"/><path d="M0 142h257v1H0zm0 1h1v1H0zm1 0h256v2H1zm256 0h1v1h-1zM0 144h1v1H0zm257 0h1v1h-1zM0 145h1v1H0zm1 0h255v1H1zm256 0h1v1h-1zM1 146h1v1H1zm1 0h254v1H2zm254 0h1v1h-1zm1 0h1v1h-1zM1 147h1v1H1zm1 0h253v1H2zm253 0h1v1h-1zm1 0h1v1h-1zM1 148h1v1H1zm1 0h1v1H2zm1 0h251v1H3zm252 0h1v1h-1zm1 0h1v1h-1zM1 149h1v1H1zm1 0h1v1H2zm1 0h251v1H3zm251 0h1v1h-1zm1 0h1v1h-1zM3 150h1v1H3zm1 0h249v1H4zm249 0h1v1h-1zm1 0h1v1h-1zM4 151h1v1H4zm1 0h1v1H5zm1 0h245v1H6zm245 0h1v1h-1zm1 0h1v1h-1zm1 0h1v1h-1zM5 152h1v1H5zm1 0h1v1H6zm1 0h242v1H7zm242 0h1v1h-1zm1 0h1v1h-1zm1 0h1v1h-1zm1 0h1v1h-1zM6 153h1v1H6zm1 0h1v1H7zm1 0h1v1H8zm1 0h1v1H9zm1 0h1v1h-1zm1 0h235v1H11zm235 0h1v1h-1zm1 0h1v1h-1zm1 0h1v1h-1zm1 0h1v1h-1zm1 0h1v1h-1z"/></g><path d="M170 103h1v1h-1zm-20 1h1v1h-1zm-78 2h1v1h-1zm17 4h1v1h-1zm68 0h1v1h-1zm18 0h1v1h-1zm-67 1h1v1h-1zm45 0h1v1h-1z" fill="#7b7d82"/><path d="M165 103h1v1h-1zm-71 5h1v1h-1z" fill="#8f9194"/><path fill="#f15729" d="M120 53h1v1h-1z"/><path fill="#ed2116" d="M122 59h1v1h-1z"/><path fill="#8a2c75" d="M151 77h1v1h-1z"/><path d="M171 101h1v1h-1zm-81 8h1v1h-1zm83 1h1v1h-1zm-54 1h1v1h-1z" fill="#9ea0a3"/><path fill="#f27e21" d="M120 45h1v1h-1z"/><path fill="#883e7a" d="M154 70h1v1h-1z"/><path fill="#985094" d="M167 88h1v1h-1z"/><path fill="#d9d9db" d="M142 105h1v1h-1z"/><path fill="#cd2c62" d="M157 51h1v1h-1z"/><path fill="#d01953" d="M159 54h1v1h-1z"/><path fill="#ee2b54" d="M148 61h1v1h-1z"/><path d="M144 71h1v1h-1zm1 0h1v1h-1zm1 1h1v1h-1zm1 0h1v1h-1z" fill="#ee2a49"/><path fill="#ed1b2a" d="M133 83h1v1h-1z"/><path d="M125 103h1v1h-1zm-44 7h1v1h-1z" fill="#c7c7c9"/><path fill="#b5b7b9" d="M77 111h1v1h-1z"/><path fill="#702774" d="M181 45h1v1h-1z"/><path d="M165 81h1v1h-1zm0 5h1v1h-1z" fill="#94448e"/><path d="M103 103h1v1h-1zm84 4h1v1h-1z" fill="#7d8084"/><path fill="#972e6d" d="M171 45h1v1h-1z"/><path d="M126 54h1v1h-1zm-2 1h1v1h-1z" fill="#ef442a"/><path fill="#ef3b2c" d="M126 56h1v1h-1z"/><path d="M124 105h1v1h-1zm45 3h1v1h-1zm-71 3h1v1h-1z" fill="#797c81"/><path fill="#f15d27" d="M121 51h1v1h-1z"/><path fill="#984386" d="M152 77h1v1h-1z"/><path fill="#f298aa" d="M145 63h1v1h-1z"/><path fill="#712d77" d="M183 47h1v1h-1z"/><path fill="#ec1440" d="M147 61h1v1h-1z"/><path fill="#ee254a" d="M145 66h1v1h-1z"/><path fill="#96458e" d="M164 81h1v1h-1z"/><path fill="#8c3276" d="M176 47h1v1h-1z"/><path fill="#b5272b" d="M137 75h1v1h-1z"/><path fill="#ee2644" d="M143 75h1v1h-1z"/><path d="M179 82h1v1h-1zm0 1h1v1h-1z" fill="#7c3a82"/><path fill="#a0a2a6" d="M117 102h1v1h-1z"/><path fill="#bb3361" d="M151 71h1v1h-1z"/><path fill="#9a9a9e" d="M81 109h1v1h-1z"/><path fill="#87397a" d="M156 71h1v1h-1z"/><path fill="#ee282b" d="M129 61h1v1h-1z"/><path fill="#631c6e" d="M182 76h1v1h-1z"/><path d="M74 104h1v1h-1zm53 6h1v1h-1zm9 0h1v1h-1z" fill="#a5a7aa"/><path fill="#e7e7e9" d="M73 108h1v1h-1z"/><path fill="#a0a1a4" d="M79 109h1v1h-1z"/><path fill="#ef3c2c" d="M123 57h1v1h-1z"/><path fill="#ab2b67" d="M164 46h1v1h-1z"/><path fill="#b32963" d="M160 46h1v1h-1z"/><path fill="#662f78" d="M192 73h1v1h-1z"/><path fill="#8b3584" d="M166 81h1v1h-1z"/><path fill="#8d407f" d="M154 72h1v1h-1z"/><path fill="#ebe0ea" d="M157 71h1v1h-1z"/><path fill="#ee2536" d="M138 86h1v1h-1z"/><path fill="#8a5996" d="M188 50h1v1h-1z"/><path d="M146 73h1v1h-1zm1 1h1v1h-1z" fill="#ee2948"/><path d="M129 62h1v1h-1zm-2 1h1v1h-1zm-1 1h1v1h-1z" fill="#ee2529"/><path fill="#7e236d" d="M180 53h1v1h-1z"/><path d="M184 53h1v1h-1zm0 1h1v1h-1z" fill="#76347d"/><path d="M140 76h1v1h-1zm1 1h1v1h-1zm2 1h1v1h-1z" fill="#ee2540"/><path d="M180 85h1v1h-1zm0 1h1v1h-1z" fill="#76327c"/><path fill="#d86f92" d="M155 48h1v1h-1z"/><path fill="#7d357b" d="M182 50h1v1h-1z"/><path fill="#ce2c62" d="M158 52h1v1h-1z"/><path fill="#501366" d="M192 71h1v1h-1z"/><path fill="#e8e8ea" d="M96 103h1v1h-1z"/><path fill="#888b8f" d="M170 108h1v1h-1z"/><path d="M161 47h1v1h-1zm2 1h1v1h-1z" fill="#b52d66"/><path fill="#773980" d="M182 78h1v1h-1z"/><path fill="#f26b00" d="M118 45h1v1h-1z"/><path fill="#d1070e" d="M128 72h1v1h-1z"/><path fill="#7d4d8b" d="M191 76h1v1h-1z"/><path d="M151 108h1v1h-1zm-50 2h1v1h-1zm14 1h1v1h-1z" fill="#a4a5a9"/><path fill="#84387d" d="M181 52h1v1h-1z"/><path fill="#943072" d="M175 49h1v1h-1z"/><path fill="#dc295c" d="M152 52h1v1h-1z"/><path d="M152 57h1v1h-1zm0 1h1v1h-1zm1 1h1v1h-1z" fill="#ee2f5c"/><path fill="#ed0d12" d="M125 65h1v1h-1z"/><path fill="#de2025" d="M128 70h1v1h-1z"/><path fill="#727479" d="M129 110h1v1h-1z"/><path fill="#c10a49" d="M155 49h1v1h-1z"/><path fill="#ec0315" d="M136 86h1v1h-1z"/><path fill="#541868" d="M193 69h1v1h-1z"/><path fill="#f22540" d="M138 77h1v1h-1z"/><path d="M151 61h1v1h-1zm1 1h1v1h-1z" fill="#ee2e58"/><path fill="#ed2e11" d="M128 53h1v1h-1z"/><path fill="#c7b5c8" d="M156 62h1v1h-1z"/><path fill="#a14b93" d="M155 79h1v1h-1z"/><path fill="#ec0217" d="M133 82h1v1h-1z"/><path fill="#6c2876" d="M182 85h1v1h-1z"/><path fill="#ef313f" d="M141 87h1v1h-1z"/><path d="M85 100h1v1h-1zm23 12h1v1h-1zm45 0h2v1h-2zm2 0h1v1h-1z" fill="#e4e4e6"/><path fill="#932f6f" d="M172 45h1v1h-1z"/><path fill="#f0f0f0" d="M119 104h1v1h-1z"/><path fill="#915e98" d="M182 75h1v1h-1z"/><path fill="#939498" d="M137 107h1v1h-1z"/><path fill="#d6d6d9" d="M106 109h1v1h-1z"/><path fill="#ec0e33" d="M143 69h1v1h-1z"/><path fill="#8f488e" d="M172 88h1v1h-1z"/><path fill="#ddddde" d="M170 111h1v1h-1z"/><path fill="#f26226" d="M123 49h1v1h-1z"/><path fill="#8c3f7d" d="M153 72h1v1h-1z"/><path d="M180 80h1v1h-1zm0 1h1v3h-1zm0 3h1v1h-1z" fill="#7a3981"/><path fill="#ed0c25" d="M143 84h1v1h-1z"/><path d="M122 46h1v1h-1zm-2 1h1v1h-1z" fill="#f27423"/><path d="M130 63h1v1h-1zm1 0h1v1h-1zm-3 1h2v1h-2zm2 0h1v1h-1zm-3 1h1v1h-1zm1 0h1v1h-1z" fill="#ee2328"/><path fill="#83357a" d="M178 45h1v1h-1z"/><path fill="#ee2539" d="M141 85h1v1h-1z"/><path d="M158 102h1v1h-1zm-1 2h1v1h-1zm-45 4h1v1h-1z" fill="#a9aaad"/><path fill="#b22b65" d="M166 49h1v1h-1z"/><path fill="#e76265" d="M135 67h1v1h-1z"/><path fill="#919497" d="M106 102h1v1h-1z"/><path d="M147 64h1v1h-1zm1 0h1v1h-1zm0 1h1v1h-1zm2 1h1v1h-1zm1 0h1v1h-1z" fill="#ee2c52"/><path fill="#ee2629" d="M126 63h1v1h-1z"/><path fill="#ed0d13" d="M132 63h1v1h-1z"/><path fill="#ee3056" d="M147 63h1v1h-1z"/><path d="M94 104h1v1h-1zm35 2h1v2h-1zm55 0h1v1h-1zm-55 2h1v1h-1zm59 0h1v1h-1z" fill="#96989c"/><path fill="#b987ad" d="M173 42h1v1h-1z"/><path fill="#d6d6d7" d="M94 101h1v1h-1z"/><path fill="#d70e14" d="M128 71h1v1h-1z"/><path fill="#ef3a2d" d="M127 56h1v1h-1z"/><path d="M135 75h1v1h-1zm-2 1h1v1h-1z" fill="#bc2429"/><path fill="#ee2643" d="M144 76h1v1h-1z"/><path fill="#eaebec" d="M108 109h1v1h-1z"/><path fill="#9c195c" d="M164 44h1v1h-1z"/><path d="M113 102h1v1h-1zm55 2h1v1h-1z" fill="#b0b2b5"/><path fill="#f15428" d="M121 53h1v1h-1z"/><path fill="#97408c" d="M161 85h1v1h-1z"/><path d="M116 105h2v1h-2zm2 0h1v1h-1zm43 2h1v1h-1z" fill="#cdcecf"/><path fill="#f26d76" d="M133 84h1v1h-1z"/><path fill="#f2776f" d="M121 59h1v1h-1z"/><path fill="#cd1b23" d="M136 70h1v1h-1z"/><path fill="#652574" d="M186 82h1v1h-1z"/><path fill="#f26725" d="M121 49h1v1h-1z"/><path fill="#cfd0d2" d="M123 105h1v1h-1z"/><path fill="#f2c3c8" d="M144 85h1v1h-1z"/><path fill="#70317c" d="M185 73h1v1h-1z"/><path fill="#8d468c" d="M171 88h1v1h-1z"/><path fill="#822a73" d="M156 72h1v1h-1z"/><path fill="#b48ab3" d="M183 57h1v1h-1z"/><path fill="#d82e61" d="M157 54h1v1h-1z"/><path d="M172 101h1v1h-1zm15 1h1v1h-1zm-29 3h1v1h-1zm-62 5h1v1h-1z" fill="#808387"/><path d="M125 102h1v1h-1zm44 1h1v1h-1zm-57 4h1v1h-1z" fill="#888a8f"/><path fill="#7e3a83" d="M178 82h1v1h-1z"/><path fill="#8d3072" d="M173 44h1v1h-1z"/><path fill="#f26525" d="M122 49h1v1h-1z"/><path fill="#9c4390" d="M159 77h1v1h-1z"/><path fill="#a97fae" d="M179 87h1v1h-1z"/><path d="M164 102h1v1h-1zm-98 2h1v1h-1zm58 7h1v1h-1z" fill="#bdbec1"/><path fill="#b57da7" d="M172 42h1v1h-1z"/><path fill="#a8578c" d="M176 51h1v1h-1z"/><path fill="#6a337b" d="M190 56h1v1h-1z"/><path fill="#cdb8d2" d="M185 68h1v1h-1z"/><path d="M173 82h1v4h-1zm0 4h1v1h-1z" fill="#873e87"/><path d="M67 101h1v1h-1zm66 8h1v1h-1zm-47 1h1v1h-1zm23 1h1v1h-1z" fill="#9a9ca0"/><path d="M119 101h1v1h-1zm55 1h1v1h-1zm-79 7h1v1h-1zm-5 1h1v1h-1z" fill="#989a9e"/><path d="M83 103h1v1h-1zm61 1h1v1h-1z" fill="#c6c7c9"/><path fill="#9e2d6c" d="M171 47h1v1h-1z"/><path fill="#e42d5e" d="M155 56h1v1h-1z"/><path fill="#e7232a" d="M132 66h1v1h-1z"/><path fill="#c22528" d="M134 74h1v1h-1z"/><path d="M125 100h1v1h-1zm30 3h1v1h-1zm-27 5h1v1h-1zm-12 1h1v1h-1zm16 2h1v1h-1zm7 0h1v1h-1z" fill="#efeff0"/><path d="M74 102h1v1h-1zm42 4h2v1h-2zm2 0h1v1h-1z" fill="#74777c"/><path fill="#ef4125" d="M121 56h1v1h-1z"/><path d="M139 80h1v1h-1zm3 2h1v1h-1z" fill="#ee253b"/><path d="M107 110h1v1h-1zm11 0h1v1h-1z" fill="#9c9ea1"/><path fill="#c89fbe" d="M179 53h1v1h-1z"/><path fill="#ee2a2c" d="M130 60h1v1h-1z"/><path fill="#d7181d" d="M135 68h1v1h-1z"/><path fill="#ab2563" d="M168 49h1v1h-1z"/><path d="M162 101h1v1h-1zm-48 1h1v1h-1zm29 4h1v1h-1zm-61 4h1v1h-1zm23 0h1v1h-1zm4 0h1v1h-1zm-24 1h1v1h-1zm51 0h1v1h-1zm18 0h1v1h-1z" fill="#74767b"/><path d="M66 102h1v1h-1zm93 3h1v1h-1zm-34 5h1v1h-1z" fill="#7d7f83"/><path fill="#707378" d="M133 110h1v1h-1z"/><path fill="#9a448d" d="M158 76h1v1h-1z"/><path fill="#692071" d="M180 78h1v1h-1z"/><path fill="#ec0922" d="M144 83h1v1h-1z"/><path d="M165 83h1v1h-1zm0 1h1v1h-1z" fill="#94438d"/><path d="M88 102h1v1h-1zm64 0h1v1h-1zm-59 1h1v1h-1zm-20 2h1v1h-1zm90 0h1v1h-1zm-33 4h1v1h-1zm-47 1h1v1h-1zm-13 1h1v1h-1z" fill="#7d7f84"/><path d="M160 106h1v1h-1zm-73 5h1v1h-1z" fill="#d5d5d7"/><path fill="#f27722" d="M121 46h1v1h-1z"/><path d="M127 57h1v1h-1zm-3 1h1v1h-1z" fill="#ef362d"/><path fill="#ed191c" d="M123 62h1v1h-1z"/><path fill="#e50b12" d="M133 65h1v1h-1z"/><path fill="#873578" d="M179 49h1v1h-1z"/><path fill="#99468b" d="M156 76h1v1h-1z"/><path fill="#973788" d="M157 83h1v1h-1z"/><path d="M109 101h1v1h-1zm-21 2h1v1h-1zm62 4h1v1h-1zm-78 1h1v1h-1z" fill="#86888d"/><path fill="#e82c4d" d="M150 72h1v1h-1z"/><path d="M188 53h1v24h-1zm0 24h1v1h-1z" fill="#6d337c"/><path fill="#622674" d="M189 53h1v1h-1z"/><path fill="#964582" d="M151 75h1v1h-1z"/><path d="M95 103h1v1h-1zm39 1h1v1h-1z" fill="#a6a8ab"/><path fill="#914d8a" d="M177 43h1v1h-1z"/><path fill="#732064" d="M155 69h1v1h-1z"/><path fill="#df9db7" d="M157 46h1v1h-1z"/><path fill="#ed1c4c" d="M149 57h1v1h-1z"/><path fill="#7c3982" d="M178 80h1v1h-1z"/><path fill="#ec0a1a" d="M137 87h1v1h-1z"/><path fill="#934a90" d="M169 88h1v1h-1z"/><path fill="#f1e6f0" d="M169 89h1v1h-1z"/><path fill="#f29b86" d="M119 55h1v1h-1z"/><path fill="#9e2055" d="M154 65h1v1h-1z"/><path fill="#ed1b3e" d="M143 68h1v1h-1z"/><path fill="#714082" d="M193 70h1v1h-1z"/><path fill="#913183" d="M159 76h1v1h-1z"/><path d="M187 101h1v1h-1zm-5 6h1v1h-1zm-70 2h1v1h-1z" fill="#e2e2e3"/><path fill="#ea2e5d" d="M154 57h1v1h-1z"/><path d="M149 63h1v1h-1zm2 1h1v1h-1zm1 1h1v1h-1z" fill="#ee2e55"/><path fill="#f28a7a" d="M120 57h1v1h-1z"/><path fill="#9c9da1" d="M105 109h1v1h-1z"/><path fill="#af7eaf" d="M173 80h1v1h-1z"/><path d="M114 105h1v1h-1zm56 2h1v1h-1z" fill="#aeafb2"/><path fill="#ee2345" d="M144 68h1v1h-1z"/><path fill="#ceced0" d="M175 109h1v1h-1z"/><path fill="#f2e0e8" d="M167 51h1v1h-1z"/><path d="M154 100h1v1h-1zm-62 3h1v1h-1zm80 0h1v1h-1z" fill="#e0e1e2"/><path fill="#e72153" d="M151 55h1v1h-1z"/><path fill="#7d3b84" d="M179 80h1v1h-1z"/><path fill="#ababae" d="M105 103h1v1h-1z"/><path fill="#bbbbbd" d="M83 105h1v1h-1z"/><path fill="#9a3a88" d="M153 80h1v1h-1z"/><path fill="#6b6f74" d="M129 102h1v1h-1z"/><path fill="#bdbdbf" d="M149 109h1v1h-1z"/><path fill="#b32e67" d="M162 47h1v1h-1z"/><path fill="#f1243b" d="M137 79h1v1h-1z"/><path d="M134 102h1v1h-1zm11 4h1v1h-1zm-17 4h1v1h-1z" fill="#87898d"/><path fill="#6b6d73" d="M181 102h1v1h-1z"/><path fill="#9e9fa2" d="M182 110h1v1h-1z"/><path d="M146 65h1v1h-1zm1 0h1v1h-1zm2 1h1v1h-1zm1 1h1v1h-1zm0 1h1v1h-1z" fill="#ee2c51"/><path fill="#ce222a" d="M130 73h1v1h-1z"/><path fill="#ccafc7" d="M156 69h1v1h-1z"/><path fill="#ed1b48" d="M148 60h1v1h-1z"/><path fill="#6a2e7a" d="M187 64h1v1h-1z"/><path d="M119 102h1v1h-1zm68 1h1v1h-1zm-29 1h1v1h-1zm-24 1h1v1h-1zm-30 4h1v1h-1zm66 0h1v1h-1zm-92 2h1v1h-1z" fill="#7a7d81"/><path fill="#a32b69" d="M168 46h1v1h-1z"/><path fill="#642373" d="M186 61h1v1h-1z"/><path fill="#cacbcc" d="M65 102h1v1h-1z"/><path fill="#ef402b" d="M123 56h1v1h-1z"/><path fill="#f22b51" d="M152 66h1v1h-1z"/><path fill="#f2e5e5" d="M137 70h1v1h-1z"/><path fill="#8a2a7e" d="M162 86h1v1h-1z"/><path fill="#996ba0" d="M182 45h1v1h-1z"/><path fill="#692e79" d="M189 79h1v1h-1z"/><path fill="#f299a3" d="M146 81h1v1h-1z"/><path fill="#ec0f21" d="M135 85h1v1h-1z"/><path fill="#74787c" d="M113 104h1v1h-1z"/><path fill="#531867" d="M193 63h1v1h-1z"/><path fill="#913385" d="M160 85h1v1h-1z"/><path fill="#f2b8bd" d="M139 88h1v1h-1z"/><path fill="#973070" d="M173 47h1v1h-1z"/><path fill="#8f9095" d="M113 106h1v1h-1z"/><path fill="#74357e" d="M184 49h1v1h-1z"/><path fill="#c82f33" d="M137 72h1v1h-1z"/><path fill="#ec1a11" d="M129 56h1v1h-1z"/><path fill="#c6232a" d="M134 73h1v1h-1z"/><path d="M129 63h1v1h-1zm-2 1h1v1h-1z" fill="#ee2429"/><path fill="#efeaf1" d="M194 70h1v1h-1z"/><path fill="#d9b4d2" d="M155 83h1v1h-1z"/><path d="M183 100h1v1h-1zm1 0h1v1h-1zm-49 4h1v1h-1zm36 4h1v1h-1zm-65 4h1v1h-1z" fill="#e9e9ea"/><path d="M193 65h1v1h-1zm0 1h1v1h-1z" fill="#561b6a"/><path fill="#f1d9e3" d="M158 45h1v1h-1z"/><path fill="#f2e9dd" d="M126 46h1v1h-1z"/><path fill="#c1a9c8" d="M190 52h1v1h-1z"/><path fill="#942f6d" d="M171 44h1v1h-1z"/><path fill="#9d7ba8" d="M193 59h1v1h-1z"/><path fill="#f27525" d="M118 48h1v1h-1z"/><path d="M180 46h1v1h-1zm2 7h1v1h-1z" fill="#80367c"/><path fill="#f22740" d="M148 75h1v1h-1z"/><path d="M143 74h1v1h-1zm2 1h1v1h-1z" fill="#ee2845"/><path fill="#f22e54" d="M153 64h1v1h-1z"/><path fill="#ee3524" d="M121 58h1v1h-1z"/><path fill="#f26515" d="M124 46h1v1h-1z"/><path d="M185 60h1v1h-1zm-1 16h1v1h-1zm0 3h1v2h-1zm0 2h1v1h-1z" fill="#74367f"/><path fill="#d62328" d="M130 71h1v1h-1z"/><path fill="#b2709b" d="M170 42h1v1h-1z"/><path fill="#863479" d="M178 47h1v1h-1z"/><path fill="#803b84" d="M177 85h1v1h-1z"/><path fill="#a92b68" d="M167 47h1v1h-1z"/><path fill="#ee305b" d="M149 59h1v1h-1z"/><path d="M130 66h1v1h-1zm1 0h1v1h-1zm-2 1h1v1h-1z" fill="#e72329"/><path fill="#904181" d="M154 73h1v1h-1z"/><path fill="#521265" d="M191 75h1v1h-1z"/><path d="M163 81h1v2h-1zm0 2h1v2h-1zm0 2h1v1h-1z" fill="#98458f"/><path fill="#7d317f" d="M175 81h1v1h-1z"/><path fill="#f2b482" d="M124 44h1v1h-1z"/><path fill="#cbccda" d="M156 63h1v1h-1z"/><path fill="#f2c4c5" d="M135 87h1v1h-1z"/><path fill="#732677" d="M176 87h1v1h-1z"/><path fill="#eb4d75" d="M157 58h1v1h-1z"/><path fill="#b81920" d="M138 75h1v1h-1z"/><path fill="#712978" d="M179 79h1v1h-1z"/><path fill="#ee2236" d="M138 84h1v1h-1z"/><path fill="#ec0619" d="M139 87h1v1h-1z"/><path fill="#e6232a" d="M130 67h1v1h-1z"/><path d="M118 102h1v1h-1zm62 0h1v1h-1zm8 2h1v1h-1zm-50 4h1v1h-1zm41 1h1v1h-1z" fill="#919397"/><path fill="#85888c" d="M82 106h1v1h-1z"/><path fill="#94959a" d="M116 110h1v1h-1z"/><path fill="#c12529" d="M132 75h1v1h-1z"/><path d="M127 54h1v1h-1zm-2 1h1v1h-1z" fill="#ef412a"/><path d="M139 78h1v1h-1zm1 1h1v1h-1zm2 1h1v1h-1zm1 0h1v1h-1zm-1 1h1v1h-1zm1 0h1v1h-1z" fill="#ee243d"/><path fill="#753680" d="M183 83h1v1h-1z"/><path fill="#8d9093" d="M138 109h1v1h-1z"/><path fill="#c35b87" d="M159 45h1v1h-1z"/><path fill="#acadaf" d="M163 102h1v1h-1z"/><path fill="#e8dae8" d="M171 89h1v1h-1z"/><path d="M99 101h1v1h-1zm16 1h1v1h-1zm5 0h1v1h-1zm43 2h1v1h-1zm-20 1h1v1h-1zm-54 1h1v1h-1zm31 0h1v1h-1zm60 0h1v1h-1zm6 0h1v1h-1zm-116 4h1v1h-1z" fill="#85878b"/><path d="M123 54h1v1h-1zm-2 1h1v1h-1z" fill="#f04a2a"/><path fill="#602772" d="M191 55h1v1h-1z"/><path fill="#ed2520" d="M122 60h1v1h-1z"/><path fill="#ee282c" d="M127 61h1v1h-1z"/><path fill="#ee2535" d="M136 85h1v1h-1z"/><path d="M131 107h1v1h-1zm6 5h1v1h-1z" fill="#eee"/><path d="M167 44h1v1h-1zm2 1h1v1h-1z" fill="#9d2b6a"/><path fill="#f26a24" d="M122 48h1v1h-1z"/><path d="M155 51h1v1h-1zm2 1h1v1h-1z" fill="#d12c62"/><path fill="#f2dfde" d="M131 57h1v1h-1z"/><path fill="#f22d51" d="M153 65h1v1h-1z"/><path fill="#8f407f" d="M153 73h1v1h-1z"/><path fill="#894483" d="M151 74h1v1h-1z"/><path d="M93 104h1v2h-1zm0 2h1v1h-1zm66 0h1v1h-1zm-29 2h1v1h-1zm-36 1h1v1h-1z" fill="#7a7c81"/><path fill="#f2691d" d="M125 46h1v1h-1z"/><path fill="#7c377d" d="M182 47h1v1h-1z"/><path fill="#f25c00" d="M117 48h1v1h-1z"/><path d="M158 50h1v1h-1zm2 1h1v1h-1z" fill="#c72c63"/><path fill="#f04145" d="M133 63h1v1h-1z"/><path fill="#f1243a" d="M136 80h1v1h-1z"/><path fill="#f21f35" d="M133 81h1v1h-1z"/><path fill="#a1a1a6" d="M112 104h1v1h-1z"/><path fill="#943071" d="M173 46h1v1h-1z"/><path fill="#6e7075" d="M72 107h1v1h-1z"/><path d="M146 66h1v1h-1zm-1 1h1v1h-1z" fill="#ee2d50"/><path fill="#682d78" d="M189 77h1v1h-1z"/><path fill="#812a7c" d="M168 81h1v1h-1z"/><path d="M135 83h1v1h-1zm1 1h1v1h-1zm1 0h1v1h-1zm0 1h1v1h-1zm1 0h1v1h-1z" fill="#ee2335"/><path fill="#642071" d="M185 59h1v1h-1z"/><path fill="#8b4e8f" d="M178 87h1v1h-1z"/><path d="M84 100h1v1h-1zm81 4h1v1h-1z" fill="#ebecec"/><path fill="#c9b3ce" d="M185 62h1v1h-1z"/><path fill="#e18588" d="M137 71h1v1h-1z"/><path fill="#7f347c" d="M181 49h1v1h-1z"/><path fill="#ac2d68" d="M162 45h1v1h-1z"/><path fill="#f27b20" d="M119 46h1v1h-1z"/><path fill="#f2e5ed" d="M173 51h1v1h-1z"/><path fill="#9d9ea1" d="M79 107h1v1h-1z"/><path fill="#e2d3e3" d="M179 43h1v1h-1z"/><path fill="#97468f" d="M164 86h1v1h-1z"/><path fill="#d8bcd6" d="M165 79h1v1h-1z"/><path fill="#e91c37" d="M139 75h1v1h-1z"/><path fill="#ec1633" d="M146 78h1v1h-1z"/><path d="M139 79h1v1h-1zm1 1h1v1h-1zm1 0h1v1h-1zm0 1h1v1h-1zm2 1h1v1h-1z" fill="#ee243c"/><path fill="#ec0b22" d="M141 86h1v1h-1z"/><path fill="#80347a" d="M180 47h1v1h-1z"/><path fill="#e7174c" d="M156 58h1v1h-1z"/><path fill="#a3599b" d="M163 87h1v1h-1z"/><path fill="#8a3276" d="M176 46h1v1h-1z"/><path fill="#916099" d="M184 72h1v1h-1z"/><path fill="#d12229" d="M133 71h1v1h-1z"/><path fill="#ee312f" d="M128 58h1v1h-1z"/><path d="M77 98h1v1h-1zm0 12h1v1h-1z" fill="#b1b3b5"/><path fill="#b8b8bb" d="M186 104h1v1h-1z"/><path d="M188 52h1v1h-1zm-1 15h1v1h-1z" fill="#6c317b"/><path fill="#ba1d22" d="M131 77h1v1h-1z"/><path d="M107 100h1v1h-1zm53 7h1v1h-1z" fill="#dcdcdd"/><path d="M157 101h1v1h-1zm23 10h1v1h-1z" fill="#c5c5c8"/><path fill="#878a8d" d="M144 106h1v1h-1z"/><path fill="#9d9ea2" d="M163 110h1v1h-1z"/><path fill="#963172" d="M174 48h1v1h-1z"/><path fill="#ed1b1f" d="M131 61h1v1h-1z"/><path fill="#f15c27" d="M124 50h1v1h-1z"/><path fill="#7e357b" d="M182 51h1v1h-1z"/><path fill="#7c7f83" d="M162 106h1v1h-1z"/><path fill="#9f2b6a" d="M168 45h1v1h-1z"/><path fill="#a12b5b" d="M155 63h1v1h-1z"/><path fill="#e4dbe7" d="M193 73h1v1h-1z"/><path fill="#f22844" d="M140 75h1v1h-1z"/><path fill="#81277c" d="M167 81h1v1h-1z"/><path fill="#f2c0c4" d="M137 88h1v1h-1z"/><path d="M99 103h1v1h-1zm0 6h1v1h-1zm12 0h1v1h-1z" fill="#c5c6c8"/><path fill="#72357d" d="M185 52h1v1h-1z"/><path fill="#c82c63" d="M159 51h1v1h-1z"/><path fill="#f2a0b5" d="M150 54h1v1h-1z"/><path d="M143 73h1v1h-1zm1 0h1v1h-1zm0 1h1v1h-1zm1 0h1v1h-1zm1 1h1v1h-1zm1 0h1v1h-1z" fill="#ee2846"/><path fill="#f1929b" d="M139 74h1v1h-1z"/><path fill="#d2d2d5" d="M169 110h1v1h-1z"/><path d="M122 47h1v1h-1zm-2 1h1v1h-1z" fill="#f26f24"/><path fill="#5e1b6e" d="M186 63h1v1h-1z"/><path fill="#b22d67" d="M165 48h1v1h-1z"/><path fill="#913173" d="M174 46h1v1h-1z"/><path fill="#a62b69" d="M165 45h1v1h-1z"/><path fill="#86888c" d="M182 106h1v1h-1z"/><path d="M88 107h1v1h-1zm98 1h1v1h-1zm-25 3h1v1h-1z" fill="#c1c1c4"/><path fill="#f2a0b6" d="M158 57h1v1h-1z"/><path fill="#ee305c" d="M150 58h1v1h-1z"/><path fill="#75115f" d="M174 43h1v1h-1z"/><path fill="#f0492a" d="M126 53h1v1h-1z"/><path fill="#ba2429" d="M134 76h1v1h-1z"/><path fill="#f0d0da" d="M149 76h1v1h-1z"/><path d="M83 101h1v1h-1zm54 9h1v1h-1z" fill="#8d8f93"/><path fill="#b72c65" d="M162 48h1v1h-1z"/><path fill="#73757a" d="M144 107h1v1h-1z"/><path d="M124 49h1v1h-1zm-4 2h1v1h-1z" fill="#f26127"/><path fill="#e9d5e6" d="M161 87h1v1h-1z"/><path fill="#9d4992" d="M160 84h1v1h-1z"/><path fill="#f15728" d="M124 51h1v1h-1z"/><path fill="#6c6f74" d="M110 102h1v1h-1z"/><path fill="#71327d" d="M184 48h1v1h-1z"/><path fill="#a2195c" d="M170 49h1v1h-1z"/><path fill="#ed1446" d="M155 61h1v1h-1z"/><path fill="#8f3e76" d="M151 72h1v1h-1z"/><path fill="#9b9ca0" d="M174 110h1v1h-1z"/><path fill="#883478" d="M178 48h1v1h-1z"/><path fill="#f04b6d" d="M147 60h1v1h-1z"/><path fill="#8a3e7c" d="M154 71h1v1h-1z"/><path fill="#893c7b" d="M155 71h1v1h-1z"/><path d="M168 83h1v3h-1zm0 3h1v1h-1z" fill="#8f418a"/><path fill="#812f77" d="M181 54h1v1h-1z"/><path fill="#ee2d2f" d="M128 59h1v1h-1z"/><path fill="#e94247" d="M126 69h1v1h-1z"/><path d="M134 101h1v1h-1zm-35 1h1v1h-1zm36 3h1v1h-1zm-66 5h1v1h-1zm25 0h1v1h-1zm12 1h1v1h-1z" fill="#85878c"/><path d="M165 102h1v1h-1zm-41 1h1v1h-1zm26 0h1v1h-1zm-83 1h1v1h-1zm120 0h1v1h-1zm-18 1h1v1h-1zm-50 1h1v1h-1zm18 0h1v1h-1zm13 3h1v1h-1zm-40 1h1v1h-1zm-13 1h1v1h-1z" fill="#77797e"/><path fill="#ef472a" d="M124 54h1v1h-1z"/><path d="M144 75h1v1h-1zm2 1h1v1h-1z" fill="#ee2745"/><path fill="#9f4a8e" d="M153 78h1v1h-1z"/><path fill="#f2ad93" d="M127 49h1v1h-1z"/><path fill="#ef2b45" d="M147 78h1v1h-1z"/><path fill="#f2c2c3" d="M134 86h1v1h-1z"/><path d="M151 57h1v1h-1zm2 1h1v1h-1zm1 0h1v1h-1zm0 1h1v1h-1z" fill="#ee2f5d"/><path fill="#db2c61" d="M156 54h1v1h-1z"/><path fill="#854b7b" d="M155 64h1v1h-1z"/><path fill="#d0c0d6" d="M194 67h1v1h-1z"/><path d="M179 81h1v1h-1zm0 3h1v1h-1zm0 1h1v1h-1z" fill="#7c3a83"/><path fill="#dadbdb" d="M112 103h1v1h-1z"/><path fill="#a6a7aa" d="M117 110h1v1h-1z"/><path fill="#cd2b60" d="M155 50h1v1h-1z"/><path fill="#5d1a6d" d="M186 49h1v1h-1z"/><path d="M188 49h1v1h-1zm-43 13h1v1h-1zm37 12h1v1h-1zm-4 14h1v1h-1z" fill="#f2f1f2"/><path fill="#743d7a" d="M153 69h1v1h-1z"/><path d="M177 103h1v1h-1zm9 8h1v1h-1z" fill="#c2c2c5"/><path fill="#a22d6b" d="M171 48h1v1h-1z"/><path fill="#a12c69" d="M170 47h1v1h-1z"/><path fill="#68316f" d="M154 67h1v1h-1z"/><path fill="#ee2432" d="M134 85h1v1h-1z"/><path d="M99 100h1v1h-1zm63 0h1v1h-1z" fill="#eceded"/><path d="M104 101h1v1h-1zm76 2h1v1h-1zm-45 4h1v1h-1z" fill="#d2d3d4"/><path d="M156 101h1v1h-1zm-28 6h1v1h-1zm58 2h1v1h-1zm-33 1h1v1h-1zm-67 1h1v1h-1z" fill="#8f9195"/><path d="M161 110h1v1h-1zm-32 1h1v1h-1z" fill="#b9babd"/><path fill="#f2c08b" d="M120 43h1v1h-1z"/><path fill="#c62d63" d="M157 49h1v1h-1z"/><path d="M152 101h1v1h-1zm-22 6h1v1h-1z" fill="#8d8e92"/><path fill="#bf82a8" d="M168 42h1v1h-1z"/><path fill="#8b3274" d="M174 44h1v1h-1z"/><path fill="#f2bfb5" d="M129 53h1v1h-1z"/><path fill="#c1504f" d="M138 74h1v1h-1z"/><path fill="#cab8d1" d="M192 75h1v1h-1z"/><path fill="#9d408e" d="M156 82h1v1h-1z"/><path d="M83 106h1v1h-1zm100 5h1v1h-1z" fill="#72757a"/><path fill="#eee5ed" d="M176 42h1v1h-1z"/><path fill="#6d317c" d="M186 66h1v1h-1z"/><path fill="#692c78" d="M187 66h1v1h-1z"/><path d="M131 68h1v1h-1zm-2 1h1v1h-1z" fill="#e12328"/><path fill="#ee2b4e" d="M147 68h1v1h-1z"/><path fill="#673179" d="M192 68h1v1h-1z"/><path fill="#ed2c4f" d="M150 69h1v1h-1z"/><path fill="#ccbbd2" d="M191 77h1v1h-1z"/><path fill="#9a2b6c" d="M173 49h1v1h-1z"/><path fill="#953988" d="M159 85h1v1h-1z"/><path fill="#f26300" d="M117 47h1v1h-1z"/><path fill="#cc2d62" d="M159 52h1v1h-1z"/><path fill="#aa0409" d="M131 78h1v1h-1z"/><path fill="#e9eaeb" d="M172 100h1v1h-1z"/><path fill="#9e2263" d="M165 44h1v1h-1z"/><path fill="#ef3a2f" d="M128 56h1v1h-1z"/><path fill="#9f71a4" d="M181 86h1v1h-1z"/><path fill="#985c9a" d="M175 88h1v1h-1z"/><path fill="#c42d64" d="M158 49h1v1h-1z"/><path d="M145 76h1v1h-1zm0 1h1v1h-1z" fill="#ee2743"/><path fill="#803379" d="M179 45h1v1h-1z"/><path d="M186 64h1v1h-1zm0 6h1v1h-1z" fill="#6a2b78"/><path fill="#d53338" d="M128 73h1v1h-1z"/><path fill="#863884" d="M170 81h1v1h-1z"/><path fill="#dd2156" d="M158 56h1v1h-1z"/><path fill="#db2228" d="M132 69h1v1h-1z"/><path fill="#f1536b" d="M141 71h1v1h-1z"/><path fill="#c38cbb" d="M158 85h1v1h-1z"/><path d="M108 100h1v1h-1zm8 0h1v1h-1z" fill="#e1e1e2"/><path fill="#7b7e82" d="M156 102h1v1h-1z"/><path fill="#bb9fc1" d="M184 46h1v1h-1z"/><path d="M129 101h1v1h-1zm-3 1h1v1h-1zm1 0h1v1h-1zm-44 5h1v1h-1zm56 3h1v1h-1z" fill="#9fa1a4"/><path fill="#f15376" d="M148 58h1v1h-1z"/><path fill="#6c2f7a" d="M186 60h1v1h-1z"/><path fill="#ef464a" d="M125 67h1v1h-1z"/><path fill="#e50a10" d="M126 68h1v1h-1z"/><path fill="#79357c" d="M183 50h1v1h-1z"/><path fill="#9e185b" d="M163 44h1v1h-1z"/><path d="M130 79h1v1h-1zm3 6h1v1h-1z" fill="#f2e4e5"/><path fill="#eb0320" d="M145 81h1v1h-1z"/><path d="M69 105h1v1h-1zm103 4h1v1h-1z" fill="#d5d6d8"/><path fill="#f2c69b" d="M122 43h1v1h-1z"/><path fill="#934284" d="M155 74h1v1h-1z"/><path d="M129 57h1v1h-1zm-6 3h1v1h-1z" fill="#ee312d"/><path fill="#a14491" d="M155 81h1v1h-1z"/><path fill="#8f9196" d="M96 102h1v1h-1z"/><path fill="#b4336b" d="M168 50h1v1h-1z"/><path fill="#6a2a77" d="M185 83h1v1h-1z"/><path fill="#8d4a8f" d="M174 88h1v1h-1z"/><path d="M128 106h1v1h-1zm34 3h1v1h-1z" fill="#787a80"/><path fill="#9c3d8c" d="M156 83h1v1h-1z"/><path fill="#7f8185" d="M114 110h1v1h-1z"/><path fill="#eaebeb" d="M87 100h1v1h-1z"/><path fill="#964c93" d="M168 88h1v1h-1z"/><path d="M96 101h1v1h-1zm-28 6h1v1h-1zm90 0h1v1h-1zm-7 2h1v1h-1zm36 0h1v1h-1z" fill="#7f8286"/><path fill="#818287" d="M164 103h1v1h-1z"/><path fill="#a34b94" d="M156 80h1v1h-1z"/><path fill="#b8245f" d="M164 50h1v1h-1z"/><path fill="#b22762" d="M167 50h1v1h-1z"/><path fill="#f2c5c4" d="M123 64h1v1h-1z"/><path fill="#aa8eb5" d="M193 72h1v1h-1z"/><path d="M115 100h1v1h-1zm28 8h1v1h-1z" fill="#f0f1f1"/><path d="M136 102h1v1h-1zm-10 8h1v1h-1z" fill="#a0a1a5"/><path fill="#b1b2b4" d="M130 110h1v1h-1z"/><path fill="#992c6b" d="M169 44h1v1h-1z"/><path fill="#e7dde6" d="M156 67h1v1h-1z"/><path d="M150 102h1v1h-1zm-39 8h1v1h-1z" fill="#abacaf"/><path fill="#b21f5c" d="M166 50h1v1h-1z"/><path d="M74 103h1v1h-1zm14 6h1v1h-1z" fill="#85868b"/><path d="M115 103h1v1h-1zm70 0h1v1h-1zm-63 2h1v1h-1zm-22 6h1v1h-1z" fill="#c9cacc"/><path d="M113 105h1v1h-1zm74 0h1v1h-1zm-61 1h1v1h-1zm-55 4h1v1h-1z" fill="#818387"/><path fill="#cd2129" d="M133 72h1v1h-1z"/><path fill="#673279" d="M192 62h1v1h-1z"/><path fill="#cd161d" d="M129 73h1v1h-1z"/><path d="M165 82h1v1h-1zm0 3h1v1h-1z" fill="#94438c"/><path fill="#f2d7d9" d="M132 83h1v1h-1z"/><path fill="#e9e8e9" d="M95 108h1v1h-1z"/><path fill="#f2dfc7" d="M116 46h1v1h-1z"/><path d="M116 101h1v1h-1zm21 0h1v1h-1zm22 6h1v1h-1z" fill="#7e8085"/><path fill="#838488" d="M183 101h1v1h-1z"/><path d="M188 102h1v1h-1zm-57 7h1v1h-1z" fill="#e5e6e7"/><path fill="#f26527" d="M124 48h1v1h-1z"/><path d="M187 51h1v11h-1zm0 11h1v1h-1zm0 6h1v10h-1zm0 10h1v1h-1z" fill="#6f347d"/><path fill="#ef4417" d="M120 54h1v1h-1z"/><path fill="#dca7bf" d="M160 44h1v1h-1z"/><path fill="#872d80" d="M165 87h1v1h-1z"/><path fill="#e52c5d" d="M156 57h1v1h-1z"/><path fill="#79417f" d="M152 71h1v1h-1z"/><path fill="#d6799b" d="M156 47h1v1h-1z"/><path fill="#86367a" d="M180 51h1v1h-1z"/><path fill="#ed243c" d="M138 79h1v1h-1z"/><path d="M149 60h2v1h-2zm2 0h1v1h-1zm1 1h1v1h-1z" fill="#ee2f59"/><path fill="#d41f4e" d="M154 64h1v1h-1z"/><path fill="#c52e64" d="M161 51h1v1h-1z"/><path fill="#8c3378" d="M177 49h1v1h-1z"/><path fill="#e6dee9" d="M192 55h1v1h-1z"/><path fill="#f2bcc8" d="M147 59h1v1h-1z"/><path fill="#e10e15" d="M134 66h1v1h-1z"/><path fill="#8b3175" d="M175 45h1v1h-1z"/><path fill="#6f397f" d="M190 53h1v1h-1z"/><path fill="#c21119" d="M130 75h1v1h-1z"/><path fill="#b270a4" d="M151 78h1v1h-1z"/><path fill="#902d82" d="M158 84h1v1h-1z"/><path fill="#a72b69" d="M166 46h1v1h-1z"/><path fill="#a62426" d="M133 79h1v1h-1z"/><path fill="#cf4065" d="M149 75h1v1h-1z"/><path fill="#71367e" d="M187 79h1v1h-1z"/><path d="M167 102h1v1h-1zm-77 3h1v1h-1zm-11 3h1v1h-1zm102 1h1v1h-1z" fill="#a4a5a8"/><path fill="#cacbcd" d="M170 106h1v1h-1z"/><path fill="#bd2e66" d="M163 50h1v1h-1z"/><path fill="#c72330" d="M136 78h1v1h-1z"/><path fill="#f23951" d="M148 76h1v1h-1z"/><path fill="#74777b" d="M78 98h1v1h-1z"/><path d="M105 102h1v1h-1zm9 7h1v1h-1z" fill="#7c7e82"/><path d="M157 105h1v1h-1zm22 1h1v1h-1zm-35 2h1v1h-1z" fill="#e0e0e1"/><path fill="#883376" d="M176 45h1v1h-1z"/><path fill="#ed102a" d="M144 82h1v1h-1z"/><path d="M77 97h1v1h-1zm13 6h1v1h-1zm55 4h1v1h-1zm32 2h1v1h-1z" fill="#b0b1b4"/><path fill="#f22e58" d="M154 62h1v1h-1z"/><path fill="#f2726c" d="M130 56h1v1h-1z"/><path d="M191 59h1v1h-1zm0 12h1v1h-1z" fill="#68327a"/><path fill="#717379" d="M78 97h1v1h-1z"/><path d="M108 102h1v1h-1zm46 0h1v1h-1zm29 4h1v1h-1z" fill="#999a9e"/><path d="M103 104h1v1h-1zm21 0h1v1h-1zm-21 1h1v3h-1zm-10 3h1v1h-1zm10 0h1v1h-1zm-21 1h1v1h-1zm76 0h1v1h-1zm-7 1h1v1h-1z" fill="#797c80"/><path fill="#78357d" d="M183 49h1v1h-1z"/><path fill="#d7b7d3" d="M163 78h1v1h-1z"/><path fill="#631e70" d="M184 83h1v1h-1z"/><path d="M106 101h1v1h-1zm12 0h1v1h-1zm17 0h1v1h-1zm-35 8h1v1h-1zm57 0h1v1h-1zm24 1h1v1h-1z" fill="#7f8186"/><path fill="#989a9d" d="M181 107h1v1h-1z"/><path fill="#f15455" d="M124 65h1v1h-1z"/><path fill="#ed2e56" d="M152 64h1v1h-1z"/><path fill="#f22949" d="M149 72h1v1h-1z"/><path fill="#f2ebf2" d="M166 79h1v1h-1z"/><path fill="#7e266f" d="M176 44h1v1h-1z"/><path fill="#d4bccf" d="M156 68h1v1h-1z"/><path d="M103 102h1v1h-1zm1 3h1v1h-1z" fill="#bebec1"/><path fill="#f27107" d="M122 44h1v1h-1z"/><path d="M189 70h1v1h-1zm0 1h1v4h-1zm0 4h1v1h-1z" fill="#6c327c"/><path fill="#893684" d="M168 87h1v1h-1z"/><path fill="#bb8cb1" d="M174 42h1v1h-1z"/><path fill="#f2b6bb" d="M138 88h1v1h-1z"/><path fill="#c1c2c3" d="M109 109h1v1h-1z"/><path fill="#813e84" d="M177 86h1v1h-1z"/><path fill="#b7242a" d="M134 77h1v1h-1z"/><path fill="#ee243b" d="M140 81h1v1h-1z"/><path fill="#f2ad95" d="M118 53h1v1h-1z"/><path d="M123 48h1v1h-1zm-4 2h1v1h-1z" fill="#f26726"/><path fill="#b70409" d="M137 73h1v1h-1z"/><path fill="#652171" d="M184 73h1v1h-1z"/><path fill="#f27f87" d="M131 80h1v1h-1z"/><path fill="#e3c7d6" d="M165 42h1v1h-1z"/><path d="M85 102h1v1h-1zm88 0h1v1h-1z" fill="#999b9e"/><path fill="#9b4790" d="M161 84h1v1h-1z"/><path fill="#f26c21" d="M118 49h1v1h-1z"/><path fill="#ea222a" d="M131 65h1v1h-1z"/><path fill="#924384" d="M154 74h1v1h-1z"/><path fill="#f28e9a" d="M147 79h1v1h-1z"/><path d="M85 101h1v1h-1zm1 0h1v1h-1zm89 0h1v1h-1zm-26 4h1v1h-1zm-43 5h1v1h-1zm66 0h1v1h-1zm15 0h1v1h-1zm-25 1h1v1h-1z" fill="#828489"/><path fill="#b4b6b8" d="M92 108h1v1h-1z"/><path fill="#8a3377" d="M177 47h1v1h-1z"/><path fill="#f27491" d="M149 56h1v1h-1z"/><path fill="#eb1213" d="M123 61h1v1h-1z"/><path d="M181 79h1v4h-1zm0 4h1v1h-1z" fill="#793981"/><path d="M175 82h1v3h-1zm0 3h1v1h-1z" fill="#833c85"/><path d="M95 101h1v1h-1zm35 1h1v1h-1zm58 4h1v1h-1z" fill="#97989c"/><path d="M120 101h1v1h-1zm-38 4h1v1h-1zm58 2h1v1h-1zm-13 5h1v1h-1z" fill="#e5e5e6"/><path fill="#96999c" d="M123 109h1v1h-1z"/><path fill="#c80746" d="M154 50h1v1h-1z"/><path fill="#d7c2d8" d="M177 88h1v1h-1z"/><path fill="#b4b5b7" d="M77 102h1v1h-1z"/><path d="M140 78h1v1h-1zm1 0h1v1h-1zm0 1h1v1h-1zm1 0h1v1h-1zm2 2h1v1h-1z" fill="#ee253e"/><path fill="#bfbfc1" d="M88 104h1v1h-1z"/><path fill="#c2a3c4" d="M176 88h1v1h-1z"/><path fill="#602673" d="M191 73h1v1h-1z"/><path fill="#f2cacb" d="M122 62h1v1h-1z"/><path d="M142 106h1v1h-1zm44 1h1v1h-1zm-18 1h1v1h-1z" fill="#b3b4b7"/><path fill="#814e8d" d="M187 49h1v1h-1z"/><path d="M157 80h1v1h-1zm0 1h1v1h-1z" fill="#a14a93"/><path fill="#a875a8" d="M174 80h1v1h-1z"/><path fill="#a24d94" d="M157 82h1v1h-1z"/><path fill="#8e498f" d="M173 88h1v1h-1z"/><path fill="#9e4993" d="M159 78h1v1h-1z"/><path fill="#ee2a4c" d="M148 71h1v1h-1z"/><path fill="#a8aaac" d="M188 103h1v1h-1z"/><path fill="#5b156a" d="M185 48h1v1h-1z"/><path fill="#f22439" d="M134 81h1v1h-1z"/><path fill="#f2cbc7" d="M130 55h1v1h-1z"/><path fill="#df3063" d="M153 53h1v1h-1z"/><path fill="#ef422a" d="M122 56h1v1h-1z"/><path d="M161 101h1v1h-1zm-32 2h1v1h-1z" fill="#babbbe"/><path d="M72 104h1v1h-1zm18 7h1v1h-1z" fill="#abadaf"/><path fill="#c4c5c8" d="M181 108h1v1h-1z"/><path fill="#d52e62" d="M155 52h1v1h-1z"/><path fill="#acadb0" d="M171 111h1v1h-1z"/><path fill="#76797d" d="M180 108h1v1h-1z"/><path fill="#f2642a" d="M126 48h1v1h-1z"/><path fill="#f28e8c" d="M132 60h1v1h-1z"/><path fill="#ee2d52" d="M145 64h1v1h-1z"/><path fill="#d5c3d8" d="M183 73h1v1h-1z"/><path fill="#83868a" d="M67 102h1v1h-1z"/><path fill="#a51557" d="M161 45h1v1h-1z"/><path fill="#f15b27" d="M122 51h1v1h-1z"/><path fill="#561368" d="M188 51h1v1h-1z"/><path fill="#d3d4d5" d="M115 107h1v1h-1z"/><path fill="#f27225" d="M123 46h1v1h-1z"/><path fill="#cb2d62" d="M158 51h1v1h-1z"/><path fill="#f2ecf2" d="M179 77h1v1h-1z"/><path d="M183 77h1v4h-1zm0 4h1v1h-1z" fill="#753780"/><path fill="#6d6f74" d="M100 102h1v1h-1z"/><path fill="#882f74" d="M175 44h1v1h-1z"/><path fill="#9c4891" d="M160 79h1v1h-1z"/><path d="M163 101h1v1h-1zm-40 3h1v1h-1z" fill="#a3a4a8"/><path fill="#ca2029" d="M132 73h1v1h-1z"/><path fill="#df383c" d="M127 71h1v1h-1z"/><path d="M157 76h1v1h-1zm-2 1h1v1h-1z" fill="#9b478d"/><path fill="#9c9da2" d="M123 103h1v1h-1z"/><path fill="#a55c91" d="M178 52h1v1h-1z"/><path fill="#79135f" d="M173 43h1v1h-1z"/><path fill="#f2e7eb" d="M149 55h1v1h-1z"/><path fill="#d92228" d="M133 69h1v1h-1z"/><path fill="#f22947" d="M150 71h1v1h-1z"/><path fill="#c28dbb" d="M160 76h1v1h-1z"/><path d="M184 50h1v1h-1zm0 1h1v1h-1z" fill="#75357e"/><path fill="#dc2d61" d="M154 53h1v1h-1z"/><path fill="#843f77" d="M155 67h1v1h-1z"/><path fill="#d32329" d="M134 70h1v1h-1z"/><path fill="#ed9ea0" d="M127 72h1v1h-1z"/><path fill="#f29ca3" d="M143 86h1v1h-1z"/><path fill="#b64b7d" d="M161 44h1v1h-1z"/><path fill="#878a8e" d="M70 109h1v1h-1z"/><path fill="#939598" d="M138 106h1v1h-1z"/><path fill="#ef3e05" d="M119 53h1v1h-1z"/><path fill="#ec1417" d="M130 58h1v1h-1z"/><path d="M149 61h1v1h-1zm1 0h1v1h-1zm1 1h1v1h-1zm2 1h1v1h-1z" fill="#ee2e57"/><path fill="#eb1f26" d="M132 64h1v1h-1z"/><path fill="#d82328" d="M131 70h1v1h-1z"/><path fill="#f2213f" d="M139 76h1v1h-1z"/><path fill="#7d3b83" d="M178 81h1v1h-1z"/><path fill="#ececec" d="M106 103h1v1h-1z"/><path fill="#f26339" d="M127 50h1v1h-1z"/><path fill="#eb0518" d="M140 87h1v1h-1z"/><path fill="#f2ccd5" d="M148 57h1v1h-1z"/><path fill="#672876" d="M186 81h1v1h-1z"/><path fill="#5a1e6e" d="M191 74h1v1h-1z"/><path fill="#c81143" d="M155 62h1v1h-1z"/><path d="M152 67h1v1h-1zm-1 1h1v1h-1z" fill="#f22b4f"/><path fill="#d5c7da" d="M194 68h1v1h-1z"/><path fill="#d62f62" d="M158 54h1v1h-1z"/><path fill="#d71b53" d="M158 55h1v1h-1z"/><path fill="#ef402a" d="M126 55h1v1h-1z"/><path fill="#673079" d="M191 72h1v1h-1z"/><path fill="#8b327b" d="M157 74h1v1h-1z"/><path fill="#c29cc2" d="M172 80h1v1h-1z"/><path fill="#bd5381" d="M169 50h1v1h-1z"/><path fill="#985893" d="M150 76h1v1h-1z"/><path fill="#a1a2a7" d="M163 108h1v1h-1z"/><path d="M130 61h1v1h-1zm-3 1h1v1h-1zm1 0h1v1h-1zm-3 1h1v1h-1z" fill="#ee272a"/><path fill="#e7242b" d="M127 68h1v1h-1z"/><path d="M132 68h1v1h-1zm-2 1h1v1h-1z" fill="#df2228"/><path d="M124 101h1v1h-1zm-31 1h1v1h-1z" fill="#bdbec0"/><path fill="#94979a" d="M159 108h1v1h-1z"/><path fill="#f22655" d="M155 60h1v1h-1z"/><path fill="#6b337c" d="M189 54h1v1h-1z"/><path fill="#af2528" d="M134 78h1v1h-1z"/><path fill="#74787b" d="M78 102h1v1h-1z"/><path fill="#bfc1c3" d="M181 105h1v1h-1z"/><path fill="#dedee0" d="M185 109h1v1h-1z"/><path fill="#6b6e73" d="M124 110h1v1h-1z"/><path fill="#f2f0ed" d="M118 54h1v1h-1z"/><path fill="#601e6f" d="M187 81h1v1h-1z"/><path fill="#9c76a6" d="M190 78h1v1h-1z"/><path fill="#ec0a29" d="M146 79h1v1h-1z"/><path fill="#83257b" d="M165 80h1v1h-1z"/><path fill="#f2a8ae" d="M142 87h1v1h-1z"/><path d="M75 102h1v1h-1zm86 0h1v1h-1zm0 1h1v1h-1zm24 2h1v1h-1zm-91 1h1v1h-1zm67 3h1v1h-1z" fill="#bbbcbf"/><path fill="#b798bd" d="M185 69h1v1h-1z"/><path fill="#d4252b" d="M129 72h1v1h-1z"/><path fill="#862a7e" d="M164 87h1v1h-1z"/><path fill="#707479" d="M176 102h1v1h-1z"/><path fill="#b25084" d="M172 50h1v1h-1z"/><path fill="#6b347c" d="M190 75h1v1h-1z"/><path fill="#a44c95" d="M156 81h1v1h-1z"/><path fill="#863784" d="M170 87h1v1h-1z"/><path fill="#e11219" d="M127 69h1v1h-1z"/><path fill="#f0354c" d="M146 80h1v1h-1z"/><path d="M138 101h1v1h-1zm14 10h1v1h-1z" fill="#9a9c9f"/><path d="M125 104h1v1h-1zm-54 3h1v1h-1z" fill="#b0b1b3"/><path fill="#b2b3b6" d="M88 105h1v1h-1z"/><path fill="#dd060c" d="M127 70h1v1h-1z"/><path d="M148 63h1v1h-1zm2 1h1v1h-1zm1 1h1v1h-1z" fill="#ee2d54"/><path fill="#903686" d="M163 86h1v1h-1z"/><path d="M84 110h1v1h-1zm41 1h1v1h-1z" fill="#9b9da1"/><path fill="#ee3021" d="M122 58h1v1h-1z"/><path d="M94 105h1v1h-1zm42 2h1v1h-1z" fill="#b8b9bc"/><path d="M186 102h1v1h-1zm-92 1h1v1h-1zm31 2h1v1h-1zm8 0h1v1h-1zm16 1h1v1h-1zm-78 3h1v1h-1zm109 0h1v1h-1zm-25 2h1v1h-1z" fill="#7c7e83"/><path fill="#ed230a" d="M121 57h1v1h-1z"/><path fill="#9e2f6e" d="M172 48h1v1h-1z"/><path fill="#ead6e7" d="M156 84h1v1h-1z"/><path fill="#a7a9ab" d="M111 102h1v1h-1z"/><path d="M101 103h1v1h-1zm56 3h1v1h-1zm-35 1h1v1h-1zm-15 5h1v1h-1z" fill="#e3e4e5"/><path fill="#f2edee" d="M148 78h1v1h-1z"/><path fill="#7e8186" d="M126 101h1v1h-1z"/><path fill="#621b6e" d="M183 75h1v1h-1z"/><path d="M125 106h1v1h-1zm-33 1h1v1h-1z" fill="#929598"/><path fill="#f26227" d="M119 51h1v1h-1z"/><path fill="#c12c63" d="M162 51h1v1h-1z"/><path fill="#a24c91" d="M154 79h1v1h-1z"/><path d="M81 108h1v1h-1zm48 1h1v1h-1z" fill="#909296"/><path d="M186 50h1v8h-1zm0 8h1v1h-1zm0 14h1v4h-1zm0 4h1v3h-1zm0 3h1v1h-1z" fill="#70347e"/><path fill="#f28296" d="M144 65h1v1h-1z"/><path fill="#f27e41" d="M117 50h1v1h-1z"/><path fill="#d42d62" d="M157 53h1v1h-1z"/><path fill="#f0482a" d="M122 55h1v1h-1z"/><path fill="#f2aab9" d="M146 61h1v1h-1z"/><path fill="#8b367d" d="M157 73h1v1h-1z"/><path fill="#e6c5d5" d="M162 43h1v1h-1z"/><path d="M153 100h1v1h-1zm13 0h1v1h-1zm14 5h1v1h-1zm-52 4h1v1h-1zm9 0h1v1h-1z" fill="#e7e7e8"/><path d="M74 100h1v1h-1zm101 0h1v1h-1zm7 0h1v1h-1z" fill="#ededee"/><path fill="#f26454" d="M129 54h1v1h-1z"/><path fill="#f2eae7" d="M119 56h1v1h-1z"/><path fill="#efe5ef" d="M172 89h1v1h-1z"/><path fill="#f04d2a" d="M122 54h1v1h-1z"/><path fill="#591d6c" d="M192 60h1v1h-1z"/><path d="M98 100h1v1h-1zm32 3h1v1h-1z" fill="#e0e0e2"/><path d="M89 105h1v1h-1zm-20 4h1v1h-1zm47 2h1v1h-1z" fill="#7e8084"/><path d="M121 106h1v1h-1zm60 0h1v1h-1z" fill="#717479"/><path fill="#797b7f" d="M158 108h1v1h-1z"/><path fill="#b4b4b7" d="M69 111h1v1h-1z"/><path d="M174 82h1v4h-1zm0 4h1v1h-1z" fill="#853d87"/><path fill="#843d78" d="M154 69h1v1h-1z"/><path fill="#bc242a" d="M136 75h1v1h-1z"/><path fill="#ec0c11" d="M125 66h1v1h-1z"/><path fill="#e47679" d="M136 69h1v1h-1z"/><path fill="#f27c20" d="M121 45h1v1h-1z"/><path fill="#702676" d="M178 79h1v1h-1z"/><path fill="#f1f0f1" d="M80 109h1v1h-1z"/><path fill="#753880" d="M183 76h1v1h-1z"/><path fill="#f2eceb" d="M138 72h1v1h-1z"/><path fill="#ee2c1e" d="M129 55h1v1h-1z"/><path d="M126 59h1v1h-1zm-2 1h1v1h-1z" fill="#ee302f"/><path fill="#ec1448" d="M150 56h1v1h-1z"/><path fill="#d26189" d="M163 52h1v1h-1z"/><path d="M194 62h1v1h-1zm0 1h1v1h-1z" fill="#d4c6d9"/><path fill="#cb2029" d="M134 72h1v1h-1z"/><path d="M125 101h1v1h-1zm59 10h1v1h-1zm3 0h1v1h-1z" fill="#87888d"/><path fill="#b42e67" d="M165 49h1v1h-1z"/><path fill="#936099" d="M180 77h1v1h-1z"/><path fill="#9b70a4" d="M185 47h1v1h-1z"/><path d="M130 62h1v1h-1zm-2 1h1v1h-1z" fill="#ee2528"/><path fill="#ee2947" d="M144 72h1v1h-1z"/><path fill="#da2e61" d="M155 53h1v1h-1z"/><path fill="#873784" d="M169 87h1v1h-1z"/><path fill="#984587" d="M153 76h1v1h-1z"/><path d="M135 82h1v1h-1zm1 1h1v1h-1zm3 2h1v1h-1zm1 1h1v1h-1z" fill="#ee2336"/><path fill="#ef402d" d="M122 57h1v1h-1z"/><path fill="#c22429" d="M136 73h1v1h-1z"/><path d="M121 47h1v1h-1zm-2 1h1v1h-1z" fill="#f27124"/><path fill="#8e2c7a" d="M152 78h1v1h-1z"/><path fill="#72367f" d="M186 80h1v1h-1z"/><path d="M172 102h1v1h-1zm-72 1h1v1h-1z" fill="#8c8e92"/><path d="M134 103h1v1h-1zm14 3h1v1h-1z" fill="#c0c1c4"/><path d="M170 105h1v1h-1zm-18 4h1v1h-1z" fill="#b0b2b4"/><path fill="#f2bc92" d="M116 48h1v1h-1z"/><path fill="#dc7395" d="M154 49h1v1h-1z"/><path d="M185 50h1v1h-1zm0 1h1v1h-1z" fill="#72347e"/><path fill="#652c77" d="M191 58h1v1h-1z"/><path fill="#c5b1cc" d="M194 66h1v1h-1z"/><path fill="#f2f2ec" d="M127 48h1v1h-1z"/><path d="M125 57h1v1h-1zm-2 1h1v1h-1z" fill="#ef392d"/><path fill="#673078" d="M192 69h1v1h-1z"/><path d="M84 101h1v1h-1zm13 0h1v1h-1zm1 0h1v1h-1zm9 0h1v1h-1zm10 0h1v1h-1zm65 0h1v1h-1z" fill="#808287"/><path fill="#f26526" d="M120 50h1v1h-1z"/><path fill="#a04a91" d="M156 78h1v1h-1z"/><path fill="#8b3785" d="M167 87h1v1h-1z"/><path fill="#f26327" d="M121 50h1v1h-1z"/><path fill="#f0472a" d="M120 56h1v1h-1z"/><path fill="#eb0508" d="M131 60h1v1h-1z"/><path fill="#d0d1d2" d="M185 111h1v1h-1z"/><path fill="#f2731a" d="M123 45h1v1h-1z"/><path fill="#f1e0ea" d="M174 51h1v1h-1z"/><path fill="#72747a" d="M162 110h1v1h-1z"/><path fill="#974587" d="M152 76h1v1h-1z"/><path fill="#5a1f6e" d="M192 58h1v1h-1z"/><path d="M170 83h1v3h-1zm0 3h1v1h-1z" fill="#8b4089"/><path fill="#972f70" d="M172 46h1v1h-1z"/><path fill="#f04916" d="M126 50h1v1h-1z"/><path d="M133 66h1v1h-1zm-2 1h1v1h-1zm-3 1h1v1h-1z" fill="#e5232a"/><path fill="#c0335f" d="M150 73h1v1h-1z"/><path d="M159 79h1v1h-1zm0 4h1v1h-1z" fill="#9e4992"/><path d="M176 82h1v3h-1zm0 3h1v1h-1z" fill="#813c84"/><path d="M167 45h1v1h-1zm2 1h1v1h-1z" fill="#a12b69"/><path d="M137 81h1v1h-1zm1 0h1v1h-1zm1 1h1v1h-1zm1 1h1v1h-1zm1 0h1v1h-1z" fill="#ee2439"/><path fill="#853381" d="M169 81h1v1h-1z"/><path fill="#f27b21" d="M122 45h1v1h-1z"/><path fill="#ee2628" d="M125 64h1v1h-1z"/><path fill="#ed172b" d="M142 85h1v1h-1z"/><path fill="#ec071f" d="M143 85h1v1h-1z"/><path fill="#e483a1" d="M153 50h1v1h-1z"/><path fill="#f2b2b3" d="M125 68h1v1h-1z"/><path fill="#9c4892" d="M161 79h1v1h-1z"/><path fill="#772578" d="M173 81h1v1h-1z"/><path fill="#9e2c6a" d="M170 46h1v1h-1z"/><path d="M87 101h1v1h-1zm88 1h1v1h-1zm-18 1h1v1h-1zm-90 2h1v1h-1zm21 1h1v1h-1z" fill="#83858a"/><path fill="#ccccce" d="M110 111h1v1h-1z"/><path fill="#bfaac7" d="M193 58h1v1h-1z"/><path d="M184 60h1v1h-1zm-16 29h1v1h-1zm5 0h1v1h-1z" fill="#f2eff2"/><path fill="#cccdce" d="M133 101h1v1h-1z"/><path d="M155 54h1v1h-1zm1 1h1v1h-1z" fill="#df2d60"/><path fill="#c82129" d="M133 73h1v1h-1z"/><path fill="#b9171d" d="M137 74h1v1h-1z"/><path d="M141 74h1v1h-1zm5 3h1v1h-1z" fill="#ee2945"/><path fill="#c3abc9" d="M187 82h1v1h-1z"/><path d="M106 100h1v1h-1zm-22 7h1v1h-1zm67 0h1v1h-1zm2 2h1v1h-1zm-22 1h1v1h-1z" fill="#e6e6e7"/><path fill="#e9e0eb" d="M183 45h1v1h-1z"/><path fill="#e12435" d="M134 80h1v1h-1z"/><path fill="#aa2327" d="M134 79h1v1h-1z"/><path fill="#743680" d="M184 77h1v1h-1z"/><path fill="#b684b4" d="M168 80h1v1h-1z"/><path fill="#e7e8e9" d="M168 109h1v1h-1z"/><path fill="#621d6f" d="M185 72h1v1h-1z"/><path fill="#ec0416" d="M138 87h1v1h-1z"/><path fill="#d1b5d1" d="M171 80h1v1h-1z"/><path fill="#eb0527" d="M147 77h1v1h-1z"/><path fill="#ec2f5d" d="M155 58h1v1h-1z"/><path fill="#8f3485" d="M162 79h1v1h-1z"/><path fill="#e2cade" d="M152 80h1v1h-1z"/><path fill="#f05127" d="M126 51h1v1h-1z"/><path fill="#803f7a" d="M153 70h1v1h-1z"/><path fill="#d1b0cc" d="M150 77h1v1h-1z"/><path d="M78 96h1v1h-1zm107 4h1v1h-1zm-84 1h1v1h-1zm17 2h1v1h-1zm50 0h1v1h-1zm-57 3h1v1h-1zm-6 2h1v1h-1z" fill="#ececed"/><path d="M67 107h1v1h-1zm53 4h1v1h-1z" fill="#d1d2d4"/><path d="M148 68h1v1h-1zm1 1h1v1h-1z" fill="#ee2c4e"/><path fill="#ced0d2" d="M74 105h1v1h-1z"/><path fill="#813972" d="M153 68h1v1h-1z"/><path fill="#f04159" d="M140 73h1v1h-1z"/><path fill="#57186a" d="M190 77h1v1h-1z"/><path fill="#aa2b67" d="M168 48h1v1h-1z"/><path d="M158 80h1v3h-1zm0 3h1v1h-1z" fill="#9f4a92"/><path fill="#f15e27" d="M123 50h1v1h-1z"/><path fill="#8a3584" d="M166 87h1v1h-1z"/><path fill="#6d1f71" d="M177 87h1v1h-1z"/><path fill="#f1f1f2" d="M163 100h1v1h-1z"/><path fill="#8e8f94" d="M72 105h1v1h-1z"/><path fill="#a42b69" d="M166 45h1v1h-1z"/><path fill="#75347d" d="M184 52h1v1h-1z"/><path fill="#722471" d="M183 56h1v1h-1z"/><path fill="#e90c14" d="M126 67h1v1h-1z"/><path d="M79 97h1v1h-1zm-13 6h1v1h-1zm93 1h1v1h-1zm-27 6h1v1h-1zm-49 1h1v1h-1z" fill="#939599"/><path d="M94 102h1v1h-1zm63 0h1v1h-1zm-84 1h1v1h-1zm20 4h1v1h-1zm45 0h1v1h-1zm-56 1h1v1h-1zm36 3h1v1h-1zm8 0h1v1h-1z" fill="#797b80"/><path fill="#80347c" d="M181 50h1v1h-1z"/><path fill="#692a77" d="M187 65h1v1h-1z"/><path fill="#a52426" d="M135 78h1v1h-1z"/><path fill="#ee2b14" d="M128 54h1v1h-1z"/><path fill="#e6e7e7" d="M131 108h1v1h-1z"/><path fill="#5a176a" d="M187 50h1v1h-1z"/><path fill="#a95a9d" d="M157 84h1v1h-1z"/><path fill="#f2d5df" d="M161 54h1v1h-1z"/><path d="M160 78h1v1h-1zm1 2h1v3h-1zm0 3h1v1h-1z" fill="#9b4690"/><path fill="#aa4279" d="M164 43h1v1h-1z"/><path fill="#903376" d="M176 49h1v1h-1z"/><path fill="#f2dfe3" d="M143 66h1v1h-1z"/><path d="M79 98h1v1h-1zm0 4h1v1h-1zm49 0h1v1h-1zm60 5h1v1h-1z" fill="#96979b"/><path fill="#8c8e93" d="M87 106h1v1h-1z"/><path fill="#8f8f94" d="M181 111h1v1h-1z"/><path fill="#b978a1" d="M169 42h1v1h-1z"/><path fill="#ef2f5b" d="M154 61h1v1h-1z"/><path fill="#ec5356" d="M134 65h1v1h-1z"/><path fill="#ee2a4a" d="M146 71h1v1h-1z"/><path fill="#c92b32" d="M129 75h1v1h-1z"/><path fill="#983b86" d="M153 79h1v1h-1z"/><path fill="#791c68" d="M175 43h1v1h-1z"/><path fill="#ee2d53" d="M149 64h1v1h-1z"/><path d="M123 47h1v1h-1zm-4 2h1v1h-1z" fill="#f26d24"/><path fill="#b4242a" d="M133 78h1v1h-1z"/><path d="M169 83h1v3h-1zm0 3h1v1h-1z" fill="#8d418a"/><path d="M92 104h1v1h-1zm-23 2h1v1h-1zm63 3h1v1h-1zm24 0h1v1h-1z" fill="#aeafb3"/><path fill="#a5a6aa" d="M90 107h1v1h-1z"/><path fill="#e69699" d="M128 74h1v1h-1z"/><path fill="#d7c9dc" d="M194 69h1v1h-1z"/><path fill="#914281" d="M153 74h1v1h-1z"/><path fill="#f2243c" d="M136 79h1v1h-1z"/><path fill="#d7081a" d="M132 80h1v1h-1z"/><path d="M126 100h1v1h-1zm1 0h1v1h-1zm-6 2h1v1h-1zm52 10h1v1h-1z" fill="#e3e3e4"/><path d="M163 45h1v1h-1zm2 1h1v1h-1zm1 1h1v1h-1z" fill="#aa2b68"/><path fill="#c92c62" d="M157 50h1v1h-1z"/><path d="M142 75h1v1h-1zm0 1h1v1h-1zm1 0h1v1h-1zm1 1h1v1h-1zm1 1h1v1h-1z" fill="#ee2742"/><path fill="#c82c62" d="M156 49h1v1h-1z"/><path fill="#d7d7d9" d="M164 105h1v1h-1z"/><path d="M127 58h1v1h-1zm-2 1h1v1h-1z" fill="#ee322e"/><path fill="#782f7c" d="M177 80h1v1h-1z"/><path fill="#652573" d="M187 80h1v1h-1z"/><path d="M170 82h1v1h-1zm1 0h1v1h-1z" fill="#883c87"/><path fill="#c51e58" d="M161 52h1v1h-1z"/><path fill="#9a3070" d="M173 48h1v1h-1z"/><path d="M183 51h1v1h-1zm0 1h1v1h-1z" fill="#7a357c"/><path d="M116 102h1v1h-1zm18 9h1v1h-1zm54 0h1v1h-1z" fill="#9e9fa3"/><path fill="#f27311" d="M123 44h1v1h-1z"/><path fill="#a51619" d="M132 79h1v1h-1z"/><path fill="#ee263b" d="M143 83h1v1h-1z"/><path fill="#b1b3b6" d="M68 103h1v1h-1z"/><path fill="#c1c2c4" d="M124 106h1v1h-1z"/><path fill="#f05205" d="M125 47h1v1h-1z"/><path fill="#f27387" d="M143 67h1v1h-1z"/><path fill="#662474" d="M185 82h1v1h-1z"/><path d="M78 103h1v3h-1zm11 0h1v1h-1zm-11 3h1v1h-1zm0 3h1v1h-1z" fill="#777a7e"/><path d="M87 103h1v1h-1zm1 5h1v1h-1zm33 1h1v1h-1z" fill="#c8c8ca"/><path fill="#a61455" d="M160 45h1v1h-1z"/><path fill="#651c6f" d="M181 77h1v1h-1z"/><path fill="#dbdbdc" d="M139 103h1v1h-1z"/><path fill="#a0a2a5" d="M179 107h1v1h-1z"/><path fill="#f2e8d7" d="M123 43h1v1h-1z"/><path fill="#642d76" d="M192 61h1v1h-1z"/><path fill="#dc2439" d="M138 76h1v1h-1z"/><path d="M100 101h1v1h-1zm32 2h1v1h-1zm-18 4h1v1h-1z" fill="#adaeb1"/><path d="M129 65h1v1h-1zm-2 1h1v1h-1z" fill="#ed2329"/><path d="M191 62h1v2h-1zm0 2h1v6h-1zm0 6h1v1h-1z" fill="#68317a"/><path fill="#ec0f36" d="M144 67h1v1h-1z"/><path fill="#d7d6d8" d="M120 107h1v1h-1z"/><path fill="#e32d5f" d="M154 55h1v1h-1z"/><path fill="#ed182b" d="M134 83h1v1h-1z"/><path d="M166 101h1v1h-1zm-88 9h1v1h-1zm39 1h1v1h-1z" fill="#73767a"/><path fill="#cbccce" d="M180 101h1v1h-1z"/><path fill="#890c54" d="M167 43h1v1h-1z"/><path fill="#a2a4a6" d="M65 101h1v1h-1z"/><path d="M88 101h1v1h-1zm9 1h1v1h-1zm10 0h1v1h-1zm-36 9h1v1h-1z" fill="#999b9f"/><path fill="#8d2e73" d="M177 50h1v1h-1z"/><path d="M189 55h1v14h-1zm0 14h1v1h-1z" fill="#6b327b"/><path fill="#dfd5e3" d="M194 61h1v1h-1z"/><path fill="#939497" d="M104 108h1v1h-1z"/><path fill="#717378" d="M115 110h1v1h-1z"/><path fill="#f2a781" d="M126 47h1v1h-1z"/><path fill="#702863" d="M154 66h1v1h-1z"/><path fill="#ceb9d3" d="M186 83h1v1h-1z"/><path d="M176 103h1v1h-1zm-64 2h1v1h-1zm38 0h1v1h-1zm19 4h1v1h-1zm-73 2h1v1h-1z" fill="#87898e"/><path fill="#898b8e" d="M121 104h1v1h-1z"/><path fill="#f27a23" d="M118 47h1v1h-1z"/><path fill="#74367e" d="M184 78h1v1h-1z"/><path fill="#eedfea" d="M151 79h1v1h-1z"/><path fill="#9b4289" d="M152 79h1v1h-1z"/><path fill="#ac6da6" d="M164 79h1v1h-1z"/><path d="M78 99h1v1h-1zm-3 4h1v1h-1zm80 6h1v1h-1z" fill="#e5e6e6"/><path d="M159 103h1v1h-1zm2 1h1v1h-1z" fill="#c3c4c6"/><path fill="#b7b8ba" d="M94 107h1v1h-1z"/><path fill="#dcc5d8" d="M180 54h1v1h-1z"/><path d="M97 110h1v1h-1zm87 0h1v1h-1z" fill="#9b9da0"/><path d="M151 58h1v1h-1zm0 1h1v1h-1zm1 0h1v1h-1z" fill="#ee2f5b"/><path fill="#ee2e31" d="M124 61h1v1h-1z"/><path fill="#8c407e" d="M152 73h1v1h-1z"/><path fill="#944384" d="M153 75h1v1h-1z"/><path fill="#aeb0b3" d="M83 109h1v1h-1z"/><path fill="#7e347b" d="M182 52h1v1h-1z"/><path fill="#f2b99c" d="M117 51h1v1h-1z"/><path fill="#89246b" d="M177 51h1v1h-1z"/><path fill="#dc104a" d="M152 53h1v1h-1z"/><path fill="#7b3f83" d="M184 58h1v1h-1z"/><path fill="#f0384d" d="M145 82h1v1h-1z"/><path fill="#93959a" d="M181 101h1v1h-1z"/><path d="M163 103h1v1h-1zm1 1h1v1h-1zm-66 6h1v1h-1z" fill="#94969a"/><path fill="#86175c" d="M170 43h1v1h-1z"/><path fill="#eef0f2" d="M156 64h1v1h-1z"/><path d="M147 66h1v1h-1zm1 0h1v1h-1zm0 1h1v1h-1zm1 0h1v1h-1z" fill="#ee2c50"/><path fill="#c40711" d="M136 71h1v1h-1z"/><path fill="#b5225e" d="M158 46h1v1h-1z"/><path fill="#ed2145" d="M144 66h1v1h-1z"/><path fill="#f05428" d="M123 52h1v1h-1z"/><path d="M153 56h1v1h-1zm2 1h1v1h-1z" fill="#e82e5d"/><path fill="#6e317b" d="M186 71h1v1h-1z"/><path fill="#f15f28" d="M125 49h1v1h-1z"/><path fill="#f2e1e8" d="M151 52h1v1h-1z"/><path fill="#f2dedb" d="M120 58h1v1h-1z"/><path fill="#b9babc" d="M77 101h1v1h-1z"/><path fill="#871b64" d="M176 50h1v1h-1z"/><path fill="#ee2b2e" d="M129 59h1v1h-1z"/><path fill="#9d488f" d="M157 77h1v1h-1z"/><path fill="#973f8b" d="M161 86h1v1h-1z"/><path fill="#a9abae" d="M95 111h1v1h-1z"/><path fill="#f27622" d="M119 47h1v1h-1z"/><path fill="#bf252a" d="M136 74h1v1h-1z"/><path d="M156 103h1v1h-1zm-5 1h1v1h-1zm-37 4h1v1h-1zm36 2h1v1h-1z" fill="#afb0b3"/><path fill="#ec1645" d="M148 59h1v1h-1z"/><path fill="#60196d" d="M183 84h1v1h-1z"/><path fill="#bd86b6" d="M162 87h1v1h-1z"/><path fill="#97989d" d="M79 106h1v1h-1z"/><path fill="#dfa0b9" d="M166 51h1v1h-1z"/><path fill="#f25b5d" d="M123 63h1v1h-1z"/><path d="M134 75h1v1h-1zm-2 1h1v1h-1z" fill="#be2529"/><path d="M178 83h1v2h-1zm0 2h1v1h-1z" fill="#7e3b83"/><path fill="#ee2333" d="M137 86h1v1h-1z"/><path d="M102 103h1v1h-1zm14 9h1v1h-1z" fill="#e7e8e8"/><path d="M150 59h1v1h-1zm2 1h1v1h-1zm1 0h1v1h-1zm0 1h1v1h-1z" fill="#ee2f5a"/><path fill="#ec1039" d="M145 65h1v1h-1z"/><path fill="#ee2435" d="M139 86h1v1h-1z"/><path fill="#d62e61" d="M156 53h1v1h-1z"/><path fill="#902469" d="M175 50h1v1h-1z"/><path fill="#ef3f2b" d="M124 56h1v1h-1z"/><path fill="#ef382d" d="M126 57h1v1h-1z"/><path fill="#ee2a47" d="M142 73h1v1h-1z"/><path fill="#d88687" d="M130 78h1v1h-1z"/><path d="M117 100h1v1h-1zm-36 6h1v1h-1z" fill="#dcddde"/><path d="M82 101h1v1h-1zm56 2h1v1h-1zm23 5h1v1h-1zm-93 1h1v1h-1z" fill="#c2c3c5"/><path fill="#c22d64" d="M160 50h1v1h-1z"/><path fill="#8d8f94" d="M175 111h1v1h-1z"/><path fill="#d2232a" d="M130 72h1v1h-1z"/><path fill="#8f3376" d="M176 48h1v1h-1z"/><path d="M184 101h1v1h-1zm-75 1h1v1h-1zm53 2h1v1h-1z" fill="#84868a"/><path d="M85 105h1v1h-1zm41 0h1v1h-1z" fill="#898b90"/><path fill="#ac2c67" d="M167 48h1v1h-1z"/><path fill="#dfd1e1" d="M185 66h1v1h-1z"/><path fill="#ee325e" d="M151 56h1v1h-1z"/><path fill="#ed1e48" d="M147 62h1v1h-1z"/><path fill="#9a458a" d="M153 77h1v1h-1z"/><path fill="#c22961" d="M157 48h1v1h-1z"/><path fill="#d8252a" d="M134 69h1v1h-1z"/><path d="M191 60h1v1h-1zm0 1h1v1h-1z" fill="#683179"/><path fill="#7d3c83" d="M180 79h1v1h-1z"/><path fill="#5e1e6f" d="M188 79h1v1h-1z"/><path fill="#823582" d="M172 87h1v1h-1z"/><path d="M158 103h1v1h-1zm11 1h1v1h-1zm-48 1h1v1h-1zm66 3h1v1h-1z" fill="#787b7f"/><path fill="#c0c0c3" d="M73 107h1v1h-1z"/><path d="M89 108h1v1h-1zm11 2h1v1h-1zm52 0h1v1h-1zm-45 1h1v1h-1z" fill="#76797e"/><path fill="#73367f" d="M185 74h1v1h-1z"/><path fill="#e32e60" d="M156 56h1v1h-1z"/><path fill="#e32a5d" d="M152 54h1v1h-1z"/><path fill="#d92329" d="M129 71h1v1h-1z"/><path fill="#9b2365" d="M172 49h1v1h-1z"/><path d="M182 79h1v2h-1zm0 2h1v1h-1z" fill="#773880"/><path fill="#929397" d="M188 110h1v1h-1z"/><path fill="#a72426" d="M136 77h1v1h-1z"/><path fill="#f1530d" d="M118 51h1v1h-1z"/><path d="M145 68h1v1h-1zm0 1h1v1h-1zm1 0h1v1h-1zm1 1h1v1h-1zm1 0h1v1h-1zm1 1h1v1h-1z" fill="#ee2b4c"/><path fill="#d2d3d5" d="M88 111h1v1h-1z"/><path fill="#bf6693" d="M171 50h1v1h-1z"/><path fill="#f22a4a" d="M151 69h1v1h-1z"/><path fill="#964688" d="M156 74h1v1h-1z"/><path fill="#e9d7e7" d="M159 86h1v1h-1z"/><path fill="#895485" d="M155 66h1v1h-1z"/><path fill="#d6c4da" d="M184 71h1v1h-1z"/><path fill="#914282" d="M155 73h1v1h-1z"/><path fill="#b32429" d="M136 76h1v1h-1z"/><path fill="#bebfc2" d="M149 103h1v1h-1z"/><path fill="#8f9295" d="M186 103h1v1h-1z"/><path fill="#76777c" d="M115 106h1v1h-1z"/><path fill="#e9252b" d="M132 65h1v1h-1z"/><path fill="#ee2c2e" d="M131 59h1v1h-1z"/><path fill="#929499" d="M92 105h1v1h-1z"/><path fill="#541769" d="M191 56h1v1h-1z"/><path fill="#b677ad" d="M160 86h1v1h-1z"/><path d="M68 102h1v1h-1zm26 9h1v1h-1z" fill="#dfdfe1"/><path fill="#d32d61" d="M156 52h1v1h-1z"/><path fill="#7f2f7e" d="M172 81h1v1h-1z"/><path d="M136 82h1v1h-1zm3 2h1v1h-1zm1 1h1v1h-1z" fill="#ee2337"/><path fill="#a46c9b" d="M156 70h1v1h-1z"/><path d="M125 54h1v1h-1zm-2 1h1v1h-1z" fill="#ef462a"/><path fill="#6e337c" d="M187 63h1v1h-1z"/><path d="M109 103h1v1h-1zm12 7h1v1h-1z" fill="#c0c1c3"/><path d="M185 49h1v1h-1zm0 4h1v3h-1zm0 3h1v1h-1zm0 19h1v2h-1zm0 2h1v3h-1zm0 3h1v1h-1z" fill="#72357e"/><path fill="#eeefef" d="M111 105h1v1h-1z"/><path fill="#d1d0d2" d="M130 101h1v1h-1z"/><path fill="#ed2b49" d="M148 73h1v1h-1z"/><path d="M158 77h1v2h-1zm0 2h1v1h-1z" fill="#9f4992"/><path d="M79 101h1v1h-1zm109 4h1v1h-1z" fill="#96989b"/><path fill="#992b6d" d="M174 50h1v1h-1z"/><path fill="#ed1436" d="M142 71h1v1h-1z"/><path d="M135 73h1v1h-1zm-2 1h1v1h-1z" fill="#c42429"/><path fill="#75387f" d="M184 75h1v1h-1z"/><path d="M86 100h1v1h-1zm49 0h1v1h-1zm39 0h1v1h-1zm-90 12h1v1h-1zm1 0h1v1h-1zm13 0h1v1h-1zm38 0h1v1h-1z" fill="#e4e4e5"/><path d="M136 100h1v1h-1zm37 0h1v1h-1zm-16 7h1v1h-1z" fill="#e1e2e3"/><path d="M102 105h1v1h-1zm18 0h1v1h-1zm-36 1h1v1h-1zm101 0h1v1h-1zm-62 4h1v1h-1zm63 0h1v1h-1z" fill="#8a8c90"/><path d="M132 105h1v1h-1zm-29 5h1v1h-1z" fill="#d0d1d3"/><path d="M183 46h1v1h-1zm-1 38h1v1h-1z" fill="#702f7a"/><path d="M102 106h1v1h-1zm0 1h1v1h-1zm41 0h1v1h-1zm-74 1h1v1h-1zm20 3h1v1h-1z" fill="#8b8d91"/><path d="M127 55h1v1h-1zm-2 1h1v1h-1z" fill="#ef3d2c"/><path fill="#642674" d="M188 80h1v1h-1z"/><path fill="#762471" d="M182 54h1v1h-1z"/><path fill="#bb2c65" d="M160 48h1v1h-1z"/><path fill="#ee2437" d="M137 83h1v1h-1z"/><path fill="#b0b0b3" d="M136 105h1v1h-1z"/><path d="M159 48h1v1h-1zm1 1h1v1h-1z" fill="#be2c64"/><path fill="#984588" d="M154 76h1v1h-1z"/><path fill="#ceaacb" d="M165 88h1v1h-1z"/><path fill="#8e8f92" d="M110 103h1v1h-1z"/><path fill="#d2275d" d="M154 51h1v1h-1z"/><path fill="#ed2124" d="M124 62h1v1h-1z"/><path fill="#793a82" d="M181 78h1v1h-1z"/><path fill="#dec8db" d="M181 55h1v1h-1z"/><path fill="#743780" d="M183 82h1v1h-1z"/><path fill="#6f7276" d="M136 106h1v1h-1z"/><path fill="#ee362e" d="M123 59h1v1h-1z"/><path d="M98 102h1v1h-1zm85 0h1v1h-1zm-64 1h1v1h-1zm-40 8h1v1h-1z" fill="#9a9b9f"/><path fill="#ee2744" d="M142 74h1v1h-1z"/><path fill="#e4d8e6" d="M182 86h1v1h-1z"/><path fill="#97999c" d="M188 109h1v1h-1z"/><path fill="#692272" d="M181 85h1v1h-1z"/><path d="M151 101h1v1h-1zm-32 8h1v1h-1zm-37 2h1v1h-1z" fill="#c7c8ca"/><path d="M185 101h1v1h-1zm-50 5h1v1h-1zm-42 3h1v1h-1zm10 0h1v1h-1zm82 1h1v1h-1z" fill="#84868b"/><path fill="#b22e67" d="M163 47h1v1h-1z"/><path d="M139 102h1v1h-1zm37 7h1v1h-1z" fill="#8c8d91"/><path fill="#b6b8ba" d="M127 107h1v1h-1z"/><path fill="#d12e63" d="M159 53h1v1h-1z"/><path d="M127 101h1v1h-1zm9 0h1v1h-1zm19 0h1v1h-1zm18 0h1v1h-1zm-11 2h1v1h-1z" fill="#818388"/><path fill="#edeeef" d="M68 110h1v1h-1z"/><path fill="#f2b5a4" d="M128 51h1v1h-1z"/><path fill="#f2b7c6" d="M157 59h1v1h-1z"/><path fill="#a15599" d="M162 78h1v1h-1z"/><path d="M172 83h1v2h-1zm0 2h1v1h-1z" fill="#883f88"/><path fill="#9b9b9f" d="M104 104h1v1h-1z"/><path fill="#8e3374" d="M175 46h1v1h-1z"/><path fill="#bb225d" d="M164 51h1v1h-1z"/><path fill="#f2e7e6" d="M132 59h1v1h-1z"/><path fill="#e6436b" d="M156 60h1v1h-1z"/><path fill="#b578ae" d="M161 77h1v1h-1z"/><path d="M155 100h1v1h-1zm-44 3h1v1h-1zm-45 2h1v1h-1zm57 6h1v1h-1zm12 1h1v1h-1zm37 0h1v1h-1z" fill="#e8e8e9"/><path fill="#873378" d="M177 46h1v1h-1z"/><path fill="#973f79" d="M150 74h1v1h-1z"/><path d="M128 57h1v1h-1zm-3 1h1v1h-1z" fill="#ee352e"/><path d="M141 76h1v1h-1zm2 1h1v1h-1zm1 1h1v1h-1z" fill="#ee2641"/><path fill="#b90848" d="M156 48h1v1h-1z"/><path fill="#804283" d="M151 73h1v1h-1z"/><path fill="#c388ab" d="M167 42h1v1h-1z"/><path fill="#a24b94" d="M156 79h1v1h-1z"/><path d="M135 81h1v1h-1zm1 0h1v1h-1zm-2 1h1v1h-1zm3 0h1v1h-1zm1 0h1v1h-1zm0 1h1v1h-1zm1 0h1v1h-1zm1 1h1v1h-1zm1 0h1v1h-1z" fill="#ee2438"/><path d="M89 101h1v1h-1zm33 3h1v1h-1zm20 3h1v1h-1zm32 5h1v1h-1zm8 0h1v1h-1zm1 0h1v1h-1z" fill="#e2e3e4"/><path d="M185 102h1v1h-1zm-27 4h1v1h-1zm-9 1h1v1h-1zm21 3h1v1h-1z" fill="#828488"/><path fill="#ef2c52" d="M151 67h1v1h-1z"/><path fill="#6e7176" d="M138 102h1v1h-1z"/><path fill="#ed1835" d="M145 80h1v1h-1z"/><path fill="#ed1316" d="M124 64h1v1h-1z"/><path fill="#511465" d="M193 68h1v1h-1z"/><path fill="#972e6f" d="M174 49h1v1h-1z"/><path fill="#ee2d5b" d="M155 59h1v1h-1z"/><path fill="#b33462" d="M152 69h1v1h-1z"/><path fill="#6a2977" d="M185 71h1v1h-1z"/><path fill="#b32d67" d="M164 48h1v1h-1z"/><path d="M192 64h1v3h-1zm0 3h1v1h-1z" fill="#663078"/><path fill="#892a7b" d="M158 75h1v1h-1z"/><path d="M166 82h1v4h-1zm0 4h1v1h-1z" fill="#92428c"/><path fill="#a765a1" d="M166 88h1v1h-1z"/><path fill="#c6a0c0" d="M175 42h1v1h-1z"/><path fill="#f2a2aa" d="M145 83h1v1h-1z"/><path fill="#8a4081" d="M176 43h1v1h-1z"/><path fill="#511466" d="M192 72h1v1h-1z"/><path fill="#f2ebea" d="M129 77h1v1h-1z"/><path d="M142 77h1v1h-1zm3 2h1v1h-1z" fill="#ee2541"/><path fill="#c1adca" d="M194 65h1v1h-1z"/><path fill="#9b2e6c" d="M171 46h1v1h-1z"/><path fill="#ba2529" d="M132 77h1v1h-1z"/><path fill="#893f88" d="M172 86h1v1h-1z"/><path fill="#83175e" d="M171 43h1v1h-1z"/><path fill="#ca2330" d="M135 79h1v1h-1z"/><path fill="#cdcdd0" d="M140 109h1v1h-1z"/><path fill="#ec0f30" d="M141 72h1v1h-1z"/><path fill="#84878b" d="M151 103h1v1h-1z"/><path fill="#976fa2" d="M189 51h1v1h-1z"/><path fill="#6f3e81" d="M192 57h1v1h-1z"/><path fill="#ece2ec" d="M175 79h1v1h-1z"/><path d="M168 105h1v2h-1zm0 2h1v1h-1z" fill="#a2a4a7"/><path fill="#eb2f5d" d="M152 56h1v1h-1z"/><path fill="#ed1f47" d="M146 64h1v1h-1z"/><path fill="#a484af" d="M192 56h1v1h-1z"/><path fill="#f15c1f" d="M125 48h1v1h-1z"/><path fill="#81357b" d="M181 51h1v1h-1z"/><path fill="#d1232a" d="M132 71h1v1h-1z"/><path d="M86 102h1v1h-1zm-7 1h1v2h-1zm0 2h1v1h-1zm5 0h1v1h-1zm2 1h1v1h-1zm13 5h1v1h-1z" fill="#98999d"/><path d="M149 108h1v1h-1zm-61 2h1v1h-1z" fill="#909195"/><path fill="#9a2f6f" d="M172 47h1v1h-1z"/><path fill="#ed2757" d="M150 57h1v1h-1z"/><path fill="#ee2f56" d="M148 62h1v1h-1z"/><path fill="#dd2e61" d="M157 55h1v1h-1z"/><path fill="#6f337d" d="M186 59h1v1h-1z"/><path d="M143 72h1v1h-1zm2 1h1v1h-1zm1 1h1v1h-1z" fill="#ee2847"/><path fill="#ac2526" d="M137 76h1v1h-1z"/><path fill="#c1c2c5" d="M133 111h1v1h-1z"/><path fill="#bb2e67" d="M159 47h1v1h-1z"/><path fill="#9e74a5" d="M185 61h1v1h-1z"/><path fill="#773981" d="M182 83h1v1h-1z"/><path fill="#7a3b82" d="M181 84h1v1h-1z"/><path fill="#e3e3e5" d="M90 102h1v1h-1z"/><path fill="#741f6c" d="M178 44h1v1h-1z"/><path fill="#dbcbde" d="M185 64h1v1h-1z"/><path fill="#e72d51" d="M151 70h1v1h-1z"/><path fill="#954488" d="M155 75h1v1h-1z"/><path fill="#8f468d" d="M170 88h1v1h-1z"/><path fill="#9d1b5f" d="M171 49h1v1h-1z"/><path fill="#903274" d="M175 47h1v1h-1z"/><path fill="#591b6c" d="M190 76h1v1h-1z"/><path fill="#af2c67" d="M164 47h1v1h-1z"/><path fill="#f2aeb8" d="M140 72h1v1h-1z"/><path fill="#7f3c81" d="M150 75h1v1h-1z"/><path fill="#7e3280" d="M174 87h1v1h-1z"/><path d="M79 96h1v1h-1zm12 9h1v1h-1z" fill="#f1f1f1"/><path fill="#f27715" d="M118 46h1v1h-1z"/><path fill="#9d9fa2" d="M135 110h1v1h-1z"/><path d="M164 45h1v1h-1zm4 2h1v1h-1z" fill="#a72b68"/><path fill="#c32529" d="M131 75h1v1h-1z"/><path fill="#f2243a" d="M135 80h1v1h-1z"/><path fill="#bbbbbe" d="M152 103h1v1h-1z"/><path fill="#732465" d="M155 68h1v1h-1z"/><path fill="#ba1351" d="M163 51h1v1h-1z"/><path fill="#f25a31" d="M119 54h1v1h-1z"/><path fill="#cdcdcf" d="M133 106h1v1h-1z"/><path fill="#f15928" d="M125 50h1v1h-1z"/><path fill="#75787c" d="M99 110h1v1h-1z"/><path fill="#ef3b2d" d="M124 57h1v1h-1z"/><path fill="#ee2f58" d="M153 62h1v1h-1z"/><path fill="#ee252a" d="M126 65h1v1h-1z"/><path fill="#f2d5d4" d="M136 68h1v1h-1z"/><path fill="#cdb0ce" d="M176 79h1v1h-1z"/><path fill="#a9a9ad" d="M186 105h1v1h-1z"/><path fill="#ef3811" d="M120 55h1v1h-1z"/><path fill="#f27f20" d="M119 45h1v1h-1z"/><path fill="#f26a68" d="M122 61h1v1h-1z"/><path fill="#6a2876" d="M184 74h1v1h-1z"/><path fill="#ba090e" d="M130 76h1v1h-1z"/><path fill="#d5a9cc" d="M153 81h1v1h-1z"/><path fill="#962d6b" d="M170 44h1v1h-1z"/><path fill="#812973" d="M180 52h1v1h-1z"/><path d="M126 58h1v1h-1zm-2 1h1v1h-1z" fill="#ee342e"/><path fill="#d62329" d="M132 70h1v1h-1z"/><path fill="#c0262a" d="M131 76h1v1h-1z"/><path fill="#5c156a" d="M184 47h1v1h-1z"/><path fill="#eec6d5" d="M164 52h1v1h-1z"/><path fill="#873d87" d="M172 82h1v1h-1z"/><path fill="#f2ae6b" d="M121 43h1v1h-1z"/><path fill="#df2359" d="M157 56h1v1h-1z"/><path fill="#9b478c" d="M154 77h1v1h-1z"/><path fill="#d72533" d="M133 80h1v1h-1z"/><path fill="#f15528" d="M125 51h1v1h-1z"/><path fill="#f15a0e" d="M118 50h1v1h-1z"/><path fill="#ec1647" d="M149 58h1v1h-1z"/><path fill="#eb0e3a" d="M146 63h1v1h-1z"/><path fill="#70357e" d="M186 65h1v1h-1z"/><path fill="#ec0214" d="M134 84h1v1h-1z"/><path d="M78 101h1v1h-1zm11 3h1v1h-1zm31 6h1v1h-1zm7 1h1v1h-1zm55 0h1v1h-1z" fill="#75777c"/><path fill="#f26b25" d="M120 49h1v1h-1z"/><path fill="#8d0f56" d="M166 43h1v1h-1z"/><path fill="#f16127" d="M122 50h1v1h-1z"/><path d="M190 59h1v3h-1zm0 3h1v1h-1zm0 8h1v4h-1zm0 4h1v1h-1z" fill="#6a317a"/><path fill="#ee2c2f" d="M126 60h1v1h-1z"/><path fill="#b5252a" d="M132 78h1v1h-1z"/><path fill="#d6bdd4" d="M182 56h1v1h-1z"/><path fill="#7d387d" d="M183 54h1v1h-1z"/><path d="M127 60h1v1h-1zm-2 1h1v1h-1z" fill="#ee2a2e"/><path d="M144 70h2v1h-2zm2 0h1v1h-1zm1 1h1v1h-1z" fill="#ee2a4b"/><path fill="#e6dbe8" d="M185 84h1v1h-1z"/><path fill="#929599" d="M182 102h1v1h-1z"/><path fill="#f15727" d="M122 52h1v1h-1z"/><path fill="#d3d4d6" d="M169 102h1v1h-1z"/><path fill="#eff0f0" d="M92 109h1v1h-1z"/><path fill="#bc2528" d="M130 77h1v1h-1z"/><path fill="#a71e5e" d="M169 49h1v1h-1z"/><path fill="#b62d66" d="M164 49h1v1h-1z"/><path fill="#afb1b4" d="M176 101h1v1h-1z"/><path fill="#f22751" d="M154 63h1v1h-1z"/><path d="M146 68h1v1h-1zm-2 1h1v1h-1zm3 0h1v1h-1zm1 0h1v1h-1zm1 1h1v1h-1z" fill="#ee2b4d"/><path fill="#df2c60" d="M154 54h1v1h-1z"/><path fill="#8e3384" d="M163 79h1v1h-1z"/><path fill="#7b357c" d="M183 53h1v1h-1z"/><path d="M161 48h1v1h-1zm1 1h1v1h-1z" fill="#ba2c65"/><path fill="#c92431" d="M137 77h1v1h-1z"/><path fill="#d43e6e" d="M160 54h1v1h-1z"/><path fill="#c01953" d="M162 52h1v1h-1z"/><path d="M115 105h1v1h-1zm13 0h1v1h-1zm33 1h1v1h-1zm-13 1h1v1h-1z" fill="#cecfd1"/><path fill="#c4c4c7" d="M140 108h1v1h-1z"/><path fill="#d3bfd7" d="M181 44h1v1h-1z"/><path fill="#f2e7ed" d="M168 51h1v1h-1z"/><path fill="#732772" d="M183 55h1v1h-1z"/><path fill="#662373" d="M185 58h1v1h-1z"/><path fill="#e3242a" d="M128 69h1v1h-1z"/><path fill="#ee2b49" d="M143 70h1v1h-1z"/><path fill="#a2a3a6" d="M163 107h1v1h-1z"/><path fill="#c52d64" d="M159 50h1v1h-1z"/><path fill="#541a69" d="M193 67h1v1h-1z"/><path fill="#b582ad" d="M157 72h1v1h-1z"/><path d="M87 109h1v1h-1zm-15 1h1v1h-1z" fill="#d2d2d4"/><path fill="#f2ab63" d="M118 44h1v1h-1z"/><path fill="#823e85" d="M176 81h1v1h-1z"/><path fill="#cccdcf" d="M137 105h1v1h-1z"/><path fill="#955c98" d="M177 79h1v1h-1z"/><path fill="#893579" d="M179 50h1v1h-1z"/><path fill="#f2c0c8" d="M141 70h1v1h-1z"/><path fill="#843479" d="M178 46h1v1h-1z"/><path fill="#7b7e83" d="M104 103h1v1h-1z"/><path fill="#ebebeb" d="M137 108h1v1h-1z"/><path fill="#ef482c" d="M127 53h1v1h-1z"/><path fill="#b99bbf" d="M184 59h1v1h-1z"/><path fill="#e32329" d="M130 68h1v1h-1z"/><path fill="#c11018" d="M136 72h1v1h-1z"/><path fill="#ee294a" d="M148 72h1v1h-1z"/><path fill="#f21b30" d="M132 81h1v1h-1z"/><path fill="#6a1768" d="M180 45h1v1h-1z"/><path fill="#ca1f29" d="M130 74h1v1h-1z"/><path fill="#9f488f" d="M155 78h1v1h-1z"/><path fill="#ee273c" d="M142 84h1v1h-1z"/><path fill="#501364" d="M193 62h1v1h-1z"/><path fill="#f2d8d7" d="M121 60h1v1h-1z"/><path fill="#ebdee9" d="M158 73h1v1h-1z"/><path fill="#ee2842" d="M141 75h1v1h-1z"/><path fill="#99458a" d="M155 76h1v1h-1z"/><path fill="#ee263f" d="M144 80h1v1h-1z"/><path fill="#c8c9ca" d="M151 111h1v1h-1z"/><path fill="#ede7ef" d="M191 53h1v1h-1z"/><path fill="#881259" d="M169 43h1v1h-1z"/><path fill="#671b6d" d="M182 46h1v1h-1z"/><path fill="#d3c1d7" d="M185 67h1v1h-1z"/><path fill="#813d85" d="M176 86h1v1h-1z"/><path d="M97 100h1v1h-1zm7 11h1v1h-1z" fill="#dcdcde"/><path d="M101 102h1v1h-1zm20 1h1v1h-1zm42 6h1v1h-1z" fill="#a1a2a6"/><path fill="#c991b1" d="M166 42h1v1h-1z"/><path fill="#863c76" d="M152 70h1v1h-1z"/><path fill="#8e407f" d="M155 72h1v1h-1z"/><path fill="#d9dadb" d="M72 103h1v1h-1z"/><path fill="#9a2d6b" d="M170 45h1v1h-1z"/><path fill="#f15927" d="M123 51h1v1h-1z"/><path fill="#cd212a" d="M135 71h1v1h-1z"/><path fill="#ee2637" d="M135 84h1v1h-1z"/><path d="M182 48h1v1h-1zm0 1h1v1h-1z" fill="#7b357b"/><path fill="#7d5888" d="M155 65h1v1h-1z"/><path fill="#cc2029" d="M131 73h1v1h-1z"/><path fill="#8a8c8f" d="M170 104h1v1h-1z"/><path d="M90 108h1v1h-1zm87 2h1v1h-1z" fill="#a1a3a6"/><path fill="#d81f56" d="M153 52h1v1h-1z"/><path fill="#9a3488" d="M154 81h1v1h-1z"/><path d="M135 102h1v1h-1zm47 3h1v1h-1zm-26 6h1v1h-1z" fill="#9fa0a4"/><path fill="#913071" d="M173 45h1v1h-1z"/><path fill="#74767c" d="M73 104h1v1h-1z"/><path fill="#f14550" d="M136 87h1v1h-1z"/><path fill="#e52d5e" d="M153 55h1v1h-1z"/><path d="M185 57h1v1h-1zm0 24h1v1h-1z" fill="#733780"/><path d="M184 102h1v1h-1zm-13 1h1v1h-1zm-37 3h1v1h-1zm-55 4h1v1h-1z" fill="#95969a"/><path fill="#c02e65" d="M158 48h1v1h-1z"/><path fill="#803381" d="M173 87h1v1h-1z"/><path d="M83 102h1v1h-1zm37 1h1v1h-1zm13 1h1v1h-1zm6 5h1v1h-1zm-55 2h1v1h-1zm90 0h1v1h-1z" fill="#76787d"/><path fill="#bcbcbf" d="M104 107h1v1h-1z"/><path fill="#f15827" d="M121 52h1v1h-1z"/><path fill="#ec071c" d="M142 86h1v1h-1z"/><path d="M139 101h1v1h-1zm36 2h1v1h-1zm-56 4h1v1h-1zm60 3h1v1h-1z" fill="#cfcfd1"/><path d="M133 68h1v1h-1zm-2 1h1v1h-1z" fill="#dd2228"/><path fill="#919297" d="M86 105h1v1h-1z"/><path fill="#b03363" d="M153 67h1v1h-1z"/><path fill="#561468" d="M189 78h1v1h-1z"/><path d="M190 57h1v1h-1zm0 1h1v1h-1z" fill="#69317a"/><path fill="#a35e9a" d="M158 74h1v1h-1z"/><path fill="#803f85" d="M179 78h1v1h-1z"/><path d="M108 101h1v1h-1zm45 0h1v1h-1zm-40 6h1v2h-1zm0 2h1v1h-1z" fill="#808286"/><path fill="#bfc0c3" d="M104 106h1v1h-1z"/><path fill="#c9c9cc" d="M121 107h1v1h-1z"/><path fill="#ed1a1e" d="M130 59h1v1h-1z"/><path fill="#b22f68" d="M161 46h1v1h-1z"/><path fill="#7f347b" d="M181 48h1v1h-1z"/><path fill="#5f1b6e" d="M186 69h1v1h-1z"/><path d="M177 101h1v1h-1zm-26 4h1v1h-1zm-49 4h1v1h-1zm-6 3h1v1h-1z" fill="#eaeaeb"/><path fill="#d7d8da" d="M167 103h1v1h-1z"/><path fill="#b1719d" d="M171 42h1v1h-1z"/></svg>