<svg xmlns="http://www.w3.org/2000/svg" role="img" viewBox="-4.43 -0.93 620.36 331.86"><title>Vitro Technology Corporation logo</title><defs><style>.cls-49{fill:#61b666}.cls-53{fill:#64b859}.cls-55{fill:#f4e90f}.cls-58{fill:#5eb373}.cls-64{fill:#8bc738}.cls-70{fill:#cddd1f}.cls-73{fill:#a0ce2f}.cls-77{fill:#85c53a}.cls-81{fill:#d8e01a}.cls-83{fill:#b5d528}.cls-84{fill:#95ca34}.cls-85{fill:#f0e911}.cls-87{fill:#dce219}.cls-88{fill:#e9e614}.cls-92{fill:#e0e317}.cls-93{fill:#b9d626}.cls-101{fill:#f0831a}.cls-102{fill:#ef731b}.cls-117{fill:#f19118}.cls-118{fill:#f19718}.cls-119{fill:#f19e17}.cls-126{fill:#ee631d}.cls-129{fill:#ef681c}.cls-131{fill:#4ca6bf}</style></defs><path fill="#f3c713" d="M305.483 319.177h-9.544q-.296-.311-.604-.611c-5.962-7.013-12.883-13.09-19.24-19.715-1.162-1.212-2.443-2.312-3.494-3.627-.818-1.023-1.045-1.958.607-2.4 8.609-.479 17.216-.176 25.822-.169a3.948 3.948 0 0 1 1.993.512.84.84 0 0 1 .397.952c-1.776 1.443-3.874.693-5.836.862-1.83.05-3.66-.001-5.488-.045-2.174-.062-4.353-.144-6.963-.035 3.545 3.542 6.87 6.867 10.195 10.194 3.437 3.439 6.907 6.846 10.295 10.333.992 1.02 2.368 1.944 1.86 3.749z"/><path fill="#f4cf12" d="M305.483 319.177a9.822 9.822 0 0 0-2.422-3.333q-9.59-9.543-19.13-19.137c-.668-.672-1.593-1.175-1.887-2.526h7.367a10.503 10.503 0 0 1 2.84 2.103c6.14 6.169 12.325 12.294 18.437 18.49 1.202 1.218 2.74 2.337 2.55 4.403z"/><path fill="#ed4120" d="M7.83 170.648v-7.158c1.774-.91 2.508.683 3.396 1.553 5.297 5.194 10.52 10.465 15.76 15.716a6.659 6.659 0 0 0 3.39 2.268c2.079 3.072 2.9 6.663 4.16 10.075-.04 1.744-.893 2.076-2.3 1.254a11.58 11.58 0 0 1-2.197-1.974q-8.59-8.58-17.165-17.175a53.528 53.528 0 0 0-5.044-4.559z"/><path fill="#ed4720" d="M29.989 182.983c-1.352 1.527-1.886-.181-2.475-.76-5.65-5.554-11.224-11.185-16.844-16.769-.819-.812-1.46-1.94-2.84-1.964v-6.562c2.057-.92 3.124.705 4.258 1.804 5.634 5.455 11.04 11.142 16.733 16.544a13.128 13.128 0 0 1 1.168 7.707z"/><path fill="#ed4f1f" d="M28.145 175.412c-5.782-5.01-10.873-10.727-16.364-16.036-1.148-1.11-2.229-2.285-3.951-2.448v-1.789c1.147-1.178.682-2.852 1.291-4.195.538-2.093 1.624-1.21 2.522-.383 2.7 2.49 5.21 5.177 7.837 7.743 2.047 1.999 3.953 4.151 6.27 6.055.765-.998.288-2.08.672-2.954.511-1.164 1.064-1.477 1.7-.072.254 4.696.782 9.387.023 14.08z"/><path fill="#f4d611" d="M313.238 319.177c-2.543-4.199-6.441-7.157-9.768-10.634-4.632-4.84-9.368-9.58-14.06-14.363l5.963.005a10.151 10.151 0 0 1 2.215 1.477c6.658 6.662 13.337 13.304 19.959 20.002.793.802 1.9 1.61 1.116 3.045-.766.407-1.72-.168-2.443.468z"/><path fill="#ec3c21" d="M7.83 170.648c1.514-.227 2.33.837 3.236 1.744 6.857 6.86 13.698 13.737 20.614 20.538.504.496 1.204 2.67 2.386.42.92-.303 1.324.418 1.537.996 1.33 3.621 3.734 6.684 5.249 10.205-.289 1.456-1.184 1.041-1.991.583a11.079 11.079 0 0 1-2.21-1.975q-11.353-11.344-22.694-22.7a65.032 65.032 0 0 0-5.445-5.038l-.682-.598z"/><path fill="#f6e24c" d="M316.22 319.177c.613-.899 1.573-.487 2.385-.631a3.604 3.604 0 0 1 3.97-.27.639.639 0 0 1 .207.9z"/><path fill="#f6ce4d" d="M295.935 318.603l.004.574h-6.561a.661.661 0 0 1 .255-.927 6.954 6.954 0 0 1 6.302.353z"/><path fill="#f8dc8a" d="M289.332 318.636q.033.27.046.54h-4.772a.595.595 0 0 1 .13-.85 4.808 4.808 0 0 1 2.86-.486 2.21 2.21 0 0 1 1.736.796z"/><path fill="#f9ee88" d="M322.782 319.177q.013-.271.046-.54a2.716 2.716 0 0 1 2.228-.827 4.185 4.185 0 0 1 2.37.513.6.6 0 0 1 .128.854z"/><path fill="#fbecc3" d="M284.573 318.653a3.492 3.492 0 0 1 .033.524h-3.58q-.006-.252-.03-.503a2.375 2.375 0 0 1 3.577-.02z"/><path fill="#fcf7c2" d="M327.554 319.177a3.552 3.552 0 0 1 .033-.524 2.375 2.375 0 0 1 3.576.02q-.023.252-.03.504z"/><path fill="#49a3cd" d="M499.918 48.379a156.222 156.222 0 0 1 20.86 10.147 23.413 23.413 0 0 0 4.263 5.282q34.61 34.631 69.234 69.25c1.679 1.679 3.622 3.063 5.263 4.782a50.172 50.172 0 0 1 3.62 14.315c-1.126.462-1.891-.26-2.67-.85a19.597 19.597 0 0 1-1.943-1.844q-48.239-48.236-96.455-96.495c-1.25-1.252-3.164-2.248-2.679-4.569.01-.046.144-.093.22-.093a1.108 1.108 0 0 1 .287.075z"/><path fill="#4aa4c7" d="M499.918 48.379c-.517 1.468.69 2.117 1.463 2.89q49.413 49.457 98.848 98.892a9.019 9.019 0 0 0 2.928 1.994 32.546 32.546 0 0 1 1.074 8.927c-1.13.4-1.895-.305-2.662-.922a27.628 27.628 0 0 1-2.148-2.067Q544.063 102.737 488.71 47.378a13.506 13.506 0 0 1-2.393-2.646c-.4-.697-.967-1.61.562-1.768 4.337 1.827 8.906 3.098 13.04 5.415z"/><path fill="#47a2d3" d="M599.538 137.84a13.194 13.194 0 0 1-5.01-3.55q-35.437-35.412-70.827-70.87c-1.334-1.338-3.118-2.571-2.923-4.894 5.774 3.17 11.677 6.117 17.16 9.794.9.604 1.761 1.267 2.64 1.902.797 1.815 2.57 2.701 3.88 4.018q21.98 22.082 44.057 44.067c1.33 1.325 2.314 2.993 3.965 3.995a63.724 63.724 0 0 1 7.058 15.538z"/><path fill="#4ba5c5" d="M486.878 42.964c-.504.318-.668.761-.27 1.225.579.678 1.22 1.304 1.85 1.935q56.13 56.134 112.257 112.27a11.008 11.008 0 0 0 3.516 2.688v4.773c-1.13.4-1.893-.307-2.66-.923a27.66 27.66 0 0 1-2.147-2.067q-58.715-58.713-117.415-117.44c-1.712-1.713-3.764-3.25-4.122-5.93a52.112 52.112 0 0 1 8.99 3.469z"/><path fill="#4ba5c2" d="M477.887 39.495a52.48 52.48 0 0 0 6.912 7.75q57.859 57.847 115.705 115.706a11.499 11.499 0 0 0 3.728 2.904c.06 2.625.405 5.267-.474 7.836a1.664 1.664 0 0 1-.518-.674c-.062-2.305-1.563-3.74-3.06-5.235q-63.034-62.998-126.01-126.055c-1.112-1.115-3.26-1.941-2.217-4.276z"/><path fill="#4ca6c0" d="M471.953 37.45c-.105 1.677 1.294 2.385 2.236 3.328q63.655 63.702 127.36 127.354c1.393 1.392 2.652 2.707 2.118 4.873-1.616.283-2.613-.834-3.554-1.77q-25.302-25.187-50.48-50.497a7.133 7.133 0 0 1-.73-.939c-5.86-6.395-12.01-12.5-18.384-18.383a20.779 20.779 0 0 1-2.873-2.576q-28.274-28.272-56.543-56.549a11.497 11.497 0 0 1-2.656-3.172c-.28-1.045-1.102-1.975-.693-3.171a11.572 11.572 0 0 1 4.2 1.503z"/><path fill="#4ca6be" d="M468.925 38.821c.505.605.966 1.252 1.521 1.808q29.343 29.365 58.708 58.707c.555.555 1.202 1.016 1.807 1.521q8.863 9.628 18.491 18.492c.645.744 1.246 1.53 1.94 2.225q24.048 24.073 48.101 48.142a25.964 25.964 0 0 0 4.174 3.29l.091.684c-.017 1.443.206 2.917-.558 4.261a49.36 49.36 0 0 0-5.573-6.15q-19.814-19.797-39.608-39.612a26.73 26.73 0 0 0-5.82-4.6c-2.762-2.33-4.535-5.497-6.867-8.2a156.876 156.876 0 0 0-23.295-21.652 10.624 10.624 0 0 1-2.153-2.044 28.12 28.12 0 0 0-4.491-5.54q-26.173-26.128-52.285-52.315c-1.008-1.012-2.824-1.8-1.937-3.843a12.76 12.76 0 0 1 5.368 1.943 14.565 14.565 0 0 1 2.386 2.883z"/><path fill="#4fa8b1" d="M425.985 24.432a85.04 85.04 0 0 1 13.13 3.128c1.693.945 2.717 2.59 4.045 3.911q17.732 17.646 35.369 35.388c1.29 1.3 3.344 2.44 2.27 4.917a1.347 1.347 0 0 1-.875.018c-5.682-2.729-11.545-5.073-17.114-8.043-2.368-3.203-5.348-5.834-8.14-8.638-8.808-8.845-17.662-17.646-26.456-26.505-1.127-1.135-2.725-2.128-2.23-4.176z"/><path fill="#4ea7b6" d="M480.86 71.448c-.276-1.686-1.454-2.766-2.582-3.893q-18.245-18.23-36.484-36.467a10.778 10.778 0 0 1-2.679-3.528 89.18 89.18 0 0 1 11.343 3.026 24.72 24.72 0 0 1 4.06 3.881q21.24 21.188 42.413 42.442c1.139 1.145 3.154 2.151 1.796 4.408-1.874.238-3.125-1.071-4.568-1.87-3.558-1.97-7.089-3.986-10.756-5.754-1.026-.495-2.31-.805-2.543-2.245z"/><path fill="#50a9ac" d="M425.985 24.432a9.181 9.181 0 0 0 2.578 3.565q15.866 15.839 31.716 31.693a11.534 11.534 0 0 1 2.683 3.506 1.52 1.52 0 0 1-1.904.194c-4.813-2.017-9.67-3.924-14.533-5.814a2.847 2.847 0 0 1-1.14-.916 14.919 14.919 0 0 0-2.969-3.68q-13.89-13.874-27.741-27.786c-.939-.948-2.65-1.686-1.821-3.601a84.412 84.412 0 0 1 13.13 2.84z"/><path fill="#52aaa6" d="M412.854 21.593c.068 1.366 1.198 2 2.012 2.816q14.364 14.412 28.753 28.797c.873.876 2.148 1.556 1.977 3.118a1.445 1.445 0 0 1-1.124.289c-5.127-1.489-10.33-2.768-15.108-5.258a18.869 18.869 0 0 0-3.18-3.87q-12.166-12.137-24.287-24.318c-1.02-1.03-2.718-1.956-1.57-3.925a100.169 100.169 0 0 1 12.527 2.351z"/><path fill="#4ea7b7" d="M602.576 181.394a21.587 21.587 0 0 1-1.758 7.173c-1.897.878-2.68-.79-3.634-1.735q-12.651-12.527-25.201-25.156a74.36 74.36 0 0 0-6.937-6.464 126.063 126.063 0 0 1-4.553-13.488c.273-.572.75-.536 1.25-.404a5.015 5.015 0 0 1 2.227 1.423c12.89 12.863 25.82 25.685 38.606 38.65z"/><path fill="#4fa8b2" d="M565.592 155.138a10.733 10.733 0 0 1 3.531 2.66q14.399 14.43 28.831 28.828c.821.819 1.488 1.919 2.864 1.941a30.569 30.569 0 0 1-2.965 8.475c-1.164-.23-1.801-1.176-2.563-1.928-9.23-9.107-18.239-18.438-27.598-27.416a5.107 5.107 0 0 1-1.564-2.474c-.256-2.345-.504-4.686-.89-7.013-.172-1.035-.549-2.141.354-3.073z"/><path fill="#4da6bc" d="M602.576 181.394c-1.496-.045-2.178-1.282-3.063-2.164q-17.594-17.544-35.142-35.133a11.288 11.288 0 0 0-3.518-2.68 2.117 2.117 0 0 1-1.488-1.336c-1.946-3.8-4.27-7.378-6.477-11.023a2.249 2.249 0 0 1-.52-1.934c2.015.486 3.44 1.9 4.819 3.273q22.18 22.101 44.305 44.257c.935.934 1.833 1.836 1.708 3.296-.058 1.176.149 2.399-.624 3.444z"/><path fill="#51a9ac" d="M566.892 165.874q14.321 14.244 28.634 28.495c.834.832 1.554 1.78 2.326 2.673a22.06 22.06 0 0 1-2.912 6.49c-1.343.422-1.998-.636-2.733-1.36-8.33-8.203-16.462-16.606-24.887-24.714-1.214-1.168-1.316-2.589-1.41-4.083.257-2.512-.87-5.204.982-7.5z"/><path fill="#53aba0" d="M400.327 19.242c-.21 1.534.929 2.309 1.825 3.206q12.723 12.736 25.447 25.47c.815.818 1.945 1.462 1.952 2.85a2.09 2.09 0 0 1-2.238.311c-3.84-1.3-7.873-2.012-11.57-3.751-7.854-9.42-17.14-17.453-25.555-26.33-.918-.969-2.636-1.69-1.791-3.598a85.651 85.651 0 0 1 11.93 1.842z"/><path fill="#54ac9b" d="M388.397 17.4c.057 1.368 1.184 2.002 1.995 2.817q10.874 10.925 21.8 21.798a19.758 19.758 0 0 1 3.626 4.63 2.52 2.52 0 0 1-2.538.242c-3.715-1-7.575-1.52-11.058-3.293-7.257-8.115-15.317-15.448-22.868-23.28-1.267-1.313-2.925-2.447-2.859-4.614a96.499 96.499 0 0 1 11.902 1.7z"/><path fill="#4da6bb" d="M461.17 33.995c.019 1.508 1.264 2.189 2.145 3.072q26.72 26.764 53.476 53.491a12.777 12.777 0 0 1 3.44 4.747c-.736.679-1.31.044-1.8-.322-4.345-3.242-8.94-6.118-13.393-9.2a3.076 3.076 0 0 1-1.167-1.304c-.208-1.507-1.335-2.392-2.314-3.362-13.12-13.004-26.022-26.229-39.258-39.12-2.413-2.35-4.802-4.751-7.027-7.288-.71-.808-2.361-2.251.54-2.453z"/><path fill="#46a2d7" d="M592.48 122.303c-1.16.09-1.766-.769-2.455-1.458q-23.961-23.95-47.91-47.913c-.753-.753-1.74-1.401-1.537-2.71 17.08 10.864 32.237 23.873 44.33 40.21 2.786 3.763 5.062 7.904 7.572 11.87z"/><path fill="#56ad95" d="M376.495 15.7c4.796 6.467 11.086 11.507 16.566 17.322 2.372 2.517 4.892 4.895 7.321 7.359.745.755 1.745 1.37 1.734 2.634a2.128 2.128 0 0 1-2.177.499c-3.766-.965-7.646-1.497-11.286-2.94-5.767-7.416-13.02-13.41-19.436-20.21-1.082-1.146-2.28-2.187-3.312-3.378-.606-.7-1.55-1.38-.771-2.535a90.551 90.551 0 0 1 11.361 1.249zm206.358 206.74a26.238 26.238 0 0 1-4.8 5.99 4.357 4.357 0 0 1-2.393-1.659q-9.691-9.658-19.35-19.349c-.831-.834-1.78-1.612-1.963-2.898 1.003-2.576 2.022-5.145 4.474-6.766 1.472-.001 2.252 1.121 3.143 2.007q9.667 9.617 19.267 19.301c.869.882 2.481 1.588 1.622 3.375z"/><path fill="#57ae8f" d="M365.134 14.45c.077 1.359 1.203 1.988 2.013 2.803q9.703 9.758 19.45 19.473c.893.895 2.012 1.674 1.801 3.196-1.42 1.074-2.87.24-4.262-.019a45.47 45.47 0 0 1-7.243-1.61c-1.87-.697-2.854-2.405-4.177-3.72-5.42-5.383-10.84-10.766-16.193-16.215-1.42-1.446-3.115-2.791-3.3-5.074z"/><path fill="#54ac9c" d="M582.853 222.44a2.538 2.538 0 0 0-.97-1.765q-11.028-11.012-22.058-22.02a5.15 5.15 0 0 0-.997-.62c-.066-3.148 1.69-5.496 3.442-7.846 1.49.45 2.453 1.625 3.49 2.652q10.112 10.027 20.14 20.138c.8.804 1.949 1.474 1.706 2.917a22.135 22.135 0 0 1-4.753 6.545z"/><path fill="#57ae8e" d="M554.78 204.55c4.5 5.315 9.75 9.898 14.56 14.91 2.887 3.007 5.808 5.981 8.713 8.97a30.59 30.59 0 0 1-5.152 5.536c-1.351.44-2.003-.634-2.734-1.359q-9.524-9.441-18.973-18.958c-.836-.842-1.734-1.683-1.604-3.049 1.403-2.295 2.347-4.987 5.19-6.05z"/><path fill="#52aaa7" d="M566.739 174.197c.1.846-.098 1.674.683 2.443q13.305 13.086 26.534 26.25a5.762 5.762 0 0 0 .984.642c-1.092 2.29-1.953 4.705-3.621 6.682-1.255-.292-1.939-1.335-2.771-2.158-7.618-7.529-15.087-15.207-22.783-22.658a3.767 3.767 0 0 1-1.433-2.189c.004-2.707 1.009-5.256 1.244-7.929a1.057 1.057 0 0 1 1.163-1.083z"/><path fill="#63b75c" d="M527.357 268.369c-2.561 1.423-4.893 3.27-7.733 4.176-6.943-6.482-13.493-13.36-20.218-20.062a2.766 2.766 0 0 1-1.038-2.64c1.842-2.492 4.504-3.57 7.384-4.273q10.508 10.428 20.915 20.963a1.767 1.767 0 0 1 .69 1.836z"/><path fill="#62b662" d="M527.357 268.369q-9.39-9.499-18.787-18.99a11.017 11.017 0 0 1-2.66-3.52c1.657-2.644 4.233-3.796 7.148-4.399 6.443 6.534 12.982 12.975 19.422 19.514.89.903 2.387 1.695 1.507 3.44a31.218 31.218 0 0 1-6.63 3.955z"/><path fill="#53aba1" d="M564.898 183.631c8.958 8.71 17.962 17.375 26.42 26.583a18.873 18.873 0 0 1-3.712 5.682q-12.04-12.092-24.1-24.165c-.433-.43-.901-.745-.932-1.403a6.389 6.389 0 0 1 2.324-6.697z"/><path fill="#66b950" d="M513.059 276.05c-2.339 1.149-4.466 2.784-7.163 3.106a5.322 5.322 0 0 1-2.408-1.662q-8.814-8.808-17.609-17.634c-.935-.945-2.23-1.809-1.63-3.508 2.317-1.831 4.775-3.365 7.817-3.643 5.882 7.2 12.974 13.23 19.319 19.983.85.904 2.477 1.57 1.674 3.358z"/><path fill="#60b568" d="M533.987 264.414c-.026-1.368-1.101-2.051-1.922-2.876-5.666-5.69-11.358-11.352-17.016-17.048-.813-.819-1.948-1.454-1.978-2.836 1.43-2.562 3.766-3.778 6.516-4.378 6.55 6.594 13.155 13.136 19.688 19.75.845.856 2.134 1.67 1.29 3.254a31.907 31.907 0 0 1-6.578 4.134z"/><path fill="#5bb17e" d="M319.244 11.526a103.31 103.31 0 0 1 13.678.539c6.73 6.337 13.198 12.94 19.606 19.597.599.623 2.328 1.407.748 2.809a56.719 56.719 0 0 1-12.154-1.647c-5.997-6.006-12.133-11.885-17.9-18.114-1.225-1.323-3.12-1.568-3.978-3.184z"/><path fill="#59af89" d="M353.224 13.284c6.99 8.809 15.754 15.915 23.244 24.244a1.53 1.53 0 0 1-1.588.577c-3.577-.709-7.277-.813-10.718-2.178-6.012-6.753-12.704-12.846-18.974-19.352-1.054-1.094-2.566-2.024-2.117-3.957 3.413-.22 6.771.4 10.153.666z"/><path fill="#6abb45" d="M498.747 282.677l-5.974 2.495c-1.278.678-2.072-.228-2.816-.964q-9.85-9.744-19.6-19.589a2.781 2.781 0 0 1-1.017-1.766c1.848-2.218 4.488-2.698 7.103-3.236 1.399.16 2.224 1.2 3.123 2.095 5.87 5.847 11.748 11.688 17.557 17.596.867.882 2.473 1.587 1.624 3.37z"/><path fill="#68ba49" d="M498.747 282.677c-.126-.369-.144-.846-.392-1.092-7.232-7.177-14.17-14.656-21.743-21.488a9.595 9.595 0 0 1 7.824-3.463c.08 1.367 1.22 1.992 2.03 2.817q9.693 9.874 19.43 19.705a28.906 28.906 0 0 1-7.15 3.521z"/><path fill="#5fb46d" d="M283.312 11.935c6.38-.82 12.787-.532 19.188-.453 5.01 5.731 10.665 10.833 15.894 16.348.746.787 2.663 1.671.699 3.205-3.999.575-7.911-.485-11.871-.598-5.196-4.828-10.17-9.893-15.051-15.036-1.792-1.888-3.516-2.992-6.123-2.708a2.847 2.847 0 0 1-2.736-.758z"/><path fill="#65b855" d="M513.059 276.05c-.098-1.235-1.121-1.821-1.867-2.572q-8.582-8.63-17.201-17.223c-.897-.898-2.02-1.679-1.8-3.207a7.909 7.909 0 0 1 6.476-3.327c.014 1.36 1.025 2.092 1.858 2.926q8.633 8.648 17.27 17.293c.75.753 1.774 1.349 1.829 2.605a34.076 34.076 0 0 1-6.565 3.505z"/><path d="M283.312 11.935c4.712-.83 8.103.968 11.13 4.658 3.126 3.81 6.93 7.062 10.414 10.582.746.754 1.763 1.35 1.821 2.6-.802.975-1.872.82-2.934.707-3.103-.842-6.306-.045-9.428-.55a3.916 3.916 0 0 1-2.183-1.452c-3.898-4.9-8.683-8.944-12.955-13.482-.779-.827-1.944-1.479-1.714-2.92z" class="cls-49"/><path fill="#5ab084" d="M343.07 12.618a10.116 10.116 0 0 0 2.427 3.302q8.278 8.228 16.506 16.508c.808.814 1.927 1.456 1.937 2.832-3.6 1.184-6.938.414-10.139-1.366q-9.955-10.028-19.913-20.053a2.56 2.56 0 0 1-.966-1.776 51.998 51.998 0 0 1 10.149.553z"/><path fill="#66b951" d="M243.37 14.916a60.767 60.767 0 0 1 11.929-1.19c.68-.32 1.17.09 1.546.519 3.916 4.48 8.388 8.417 12.44 12.76.868.931 2.29 1.995.515 3.426-3.713 1.356-7.522.986-11.327.651-5.078-4.607-9.831-9.548-14.535-14.537a2.11 2.11 0 0 1-.569-1.63z"/><path fill="#5fb46e" d="M540.565 260.28c-.029-1.355-1.074-2.053-1.895-2.877q-8.566-8.593-17.147-17.171c-.814-.818-1.907-1.483-1.92-2.854 1.012-2.35 3.065-3.206 5.35-3.735 1.686.764 2.74 2.264 4 3.51q8.046 7.97 16.005 16.028c.819.831 2.251 1.517 1.501 3.155a31.237 31.237 0 0 1-5.894 3.944z"/><path d="M270.29 29.84a2.52 2.52 0 0 0-.922-1.786q-7.04-7.159-14.069-14.329c2.33-.783 4.744-.538 7.133-.589a7.606 7.606 0 0 1 8.184 2.483c3.56 3.954 7.559 7.505 11.186 11.403.746.801 2.339 1.49 1.322 3.138-4.303.821-8.598 1.393-12.834-.32z" class="cls-53"/><path fill="#59af88" d="M550.063 210.667a2.434 2.434 0 0 0 .922 1.778q10.463 10.445 20.928 20.889a5.426 5.426 0 0 0 .988.632l-4.873 4.872c-.338-.21.024.146-.272-.114-7.65-6.732-14.571-14.205-21.725-21.441a2.27 2.27 0 0 1-.614-1.922c1.094-2.013 2.241-3.976 4.646-4.694z"/><path d="M340.67 317.951l-.272.084-.283-.04c-1.948.693-4.009-.082-5.968.46l-1.821.026c-7.73-7.275-15.087-14.926-22.575-22.444-.736-.74-1.61-1.64-.545-2.818a5.33 5.33 0 0 1 2.617-.464c3.776-.54 6.383 1.024 8.97 3.843 5.769 6.285 12.007 12.137 18.012 18.206.858.867 2.155 1.563 1.866 3.147z" class="cls-55"/><path fill="#d2df1c" d="M384.207 313.731l-8.31 1.143a12.462 12.462 0 0 0-2.816-3.774c-6.814-6.751-13.551-13.58-20.365-20.33a.691.691 0 0 1-.121-.81c1.298-1.187 2.904-.707 4.399-.827a14.367 14.367 0 0 0 3.11-.127 2.683 2.683 0 0 1 .87.073c2.937 2.05 5.17 4.846 7.704 7.322 4.588 4.485 9.11 9.038 13.61 13.613.996 1.013 2.36 1.924 1.92 3.717z"/><path fill="#5db277" d="M556.008 249.235a24.716 24.716 0 0 1-4.797 3.648 4.309 4.309 0 0 1-2.399-1.66q-8.874-8.84-17.713-17.715c-.901-.906-1.938-1.774-1.778-3.275a8.201 8.201 0 0 1 5.188-4.272c6.675 6.716 13.401 13.384 20.056 20.122.816.826 2.234 1.527 1.443 3.152z"/><path d="M319.8 30.407q-7.498-7.615-15.002-15.225a6.573 6.573 0 0 1-2.298-3.7h9.564c6.002 5.545 11.645 11.454 17.36 17.29.825.842 1.553 1.998-.154 2.865a14.931 14.931 0 0 1-9.47-1.23z" class="cls-58"/><path fill="#9acc32" d="M449.34 300.13a23.09 23.09 0 0 1-6.559 1.787c-1.538.635-2.412-.47-3.294-1.345q-9.258-9.188-18.438-18.453c-1.006-1.02-2.269-2.036-1.668-3.81 1.432-1.37 3.259-1.469 5.082-1.583a4.617 4.617 0 0 1 3.09 1.582c7.27 7.267 14.59 14.483 21.787 21.823z"/><path fill="#5db278" d="M329.94 31.101c.018-1.27-.98-1.892-1.73-2.647q-6.817-6.854-13.673-13.67a10.61 10.61 0 0 1-2.473-3.303l7.18.045c2.138.287 3.44 1.683 4.874 3.187 4.82 5.062 9.847 9.926 14.777 14.885.744.748 1.748 1.35 1.783 2.598-3.723 1.036-7.333.972-10.738-1.095z"/><path fill="#f5e210" d="M309.063 293.56c.043 1.372 1.17 2.008 1.98 2.823q9.717 9.77 19.469 19.505c.746.749 1.76 1.346 1.814 2.593l-1.163.193-3.576-.021-2.44-.15a9.438 9.438 0 0 1-2.859-2.094c-6.441-6.464-12.914-12.898-19.336-19.382-.78-.79-2.013-1.423-1.647-2.905q.004-.239.001-.477a7.268 7.268 0 0 1 7.757-.085z"/><path fill="#62b65f" d="M283.62 29.384c-1.608-.189-2.045-1.742-3.003-2.66-3.487-3.345-7.017-6.67-10.227-10.272-2.222-2.494-4.624-3.835-7.957-3.315 2.926-.816 5.928-.527 8.904-.61 1.792-.625 3.691.117 5.488-.436l.638-.012c3.194 3.264 6.352 6.565 9.593 9.782a58.471 58.471 0 0 1 6.504 7.327 1.858 1.858 0 0 1-1.259.776 28.717 28.717 0 0 1-3.963.149c-.97-.052-1.945-.03-2.918-.068a2.717 2.717 0 0 1-1.8-.661z"/><path fill="#5cb17d" d="M556.008 249.235c-.08-1.239-1.099-1.827-1.844-2.576q-8.874-8.921-17.778-17.813c-.745-.749-1.763-1.338-1.84-2.578a5.806 5.806 0 0 1 4.16-3.933c1.594.708 2.586 2.12 3.769 3.293q8.222 8.15 16.367 16.378c.856.866 2.152 1.544 1.924 3.114a19.467 19.467 0 0 1-4.758 4.115z"/><path d="M464.797 295.422a16.671 16.671 0 0 1-5.333 1.715c-1.011.557-1.691-.027-2.32-.7-6.905-7.4-14.176-14.438-21.399-21.523a1.257 1.257 0 0 1-.359-.792c1.583-1.631 3.722-1.755 5.768-2.135a4.404 4.404 0 0 1 3.109 1.553q9.728 9.65 19.373 19.384c.653.66 1.622 1.275 1.16 2.498z" class="cls-64"/><path fill="#7ac13e" d="M482.096 289.37a29.626 29.626 0 0 1-6.591 2.437c-7.626-7.436-15.02-15.105-22.66-22.53a.792.792 0 0 1-.158-.554 9.874 9.874 0 0 1 6.993-2.435c7.036 7.037 14.127 14.024 21.065 21.163a5.033 5.033 0 0 1 1.35 1.92z"/><path fill="#80c33c" d="M452.724 269.03a3.227 3.227 0 0 1 2.238 1.287q9.625 9.632 19.257 19.258a3.107 3.107 0 0 1 1.286 2.232 17.257 17.257 0 0 1-5.337 1.845 1.867 1.867 0 0 1-.814-.348c-7.406-7.314-15.049-14.394-21.897-22.256a.826.826 0 0 1-.129-.567c1.55-1.414 3.23-2.333 5.396-1.45z"/><path fill="#68ba4a" d="M243.37 14.916q6.22 6.354 12.433 12.717c.804.827 1.94 1.46 1.96 2.84-1.6 1.71-3.727 1.349-5.726 1.42-1.258.046-2.517.151-3.775.11-2.455-1.347-3.964-3.72-5.95-5.579-2.509-2.35-4.93-4.8-7.287-7.306a5.55 5.55 0 0 1-1.772-2.992 46.078 46.078 0 0 1 10.116-1.21z"/><path fill="#5bb181" d="M560.766 245.12q-9.719-9.833-19.433-19.67c-.901-.914-1.737-1.892-2.603-2.84.14-2.55 2.238-3.05 4.037-3.868a1.131 1.131 0 0 1 .548.206q11.09 10.467 21.553 21.563a1.008 1.008 0 0 1 .175.558 9.454 9.454 0 0 1-4.277 4.051z"/><path fill="#c3d922" d="M402.123 310.845a19.386 19.386 0 0 1-5.401 1.038 8.8 8.8 0 0 1-3.296-2.477c-5.96-5.966-12.009-11.85-17.83-17.949-1.405-1.473-3.627-1.876-4.523-3.857 2.26-1.285 4.763-1.286 7.246-1.386a3.84 3.84 0 0 1 2.569 1.326c6.512 6.818 13.319 13.345 19.91 20.085.83.85 2.174 1.622 1.325 3.22z"/><path d="M384.207 313.731a10.961 10.961 0 0 0-2.656-3.502q-10.314-10.382-20.594-20.798c1.49-1.703 3.495-1.436 5.432-1.43a3.85 3.85 0 0 1 2.554 1.316c6.472 6.777 13.223 13.278 19.805 19.947a9.73 9.73 0 0 1 1.354 1.561c.845 1.328.286 1.987-1.08 2.26-1.602.232-3.157.824-4.815.646z" class="cls-70"/><path d="M529.738 230.204c.014 1.371 1.104 2.038 1.916 2.863q9.765 9.921 19.557 19.816l-4.752 3.453c-.113-1.225-1.133-1.807-1.877-2.555-5.84-5.874-11.712-11.717-17.554-17.59-.755-.76-1.391-1.64-2.083-2.463a5.19 5.19 0 0 1 4.793-3.524z" class="cls-58"/><path fill="#b0d329" d="M425.6 306.157a31.327 31.327 0 0 1-7.38 1.633c-7.346-7.004-14.422-14.28-21.566-21.488-.743-.75-1.524-1.598-1.168-2.854 1.701-1.225 3.68-1.195 5.64-1.262a2.42 2.42 0 0 1 1.3.659c7.59 7.903 15.48 15.511 23.174 23.312z"/><path fill="#bdd824" d="M402.123 310.845c.02-1.007-.686-1.586-1.308-2.215q-10.59-10.723-21.19-21.434c-.18-.181-.55-.174-.832-.255 1.51-2.322 3.943-1.402 6.022-1.723a5.01 5.01 0 0 1 2.397 1.652q9.32 9.308 18.627 18.632a9.646 9.646 0 0 1 2.228 3.107c.243.596.273 1.168-.536 1.384-1.794.337-3.542.968-5.408.852z"/><path d="M419.415 278.67a10.003 10.003 0 0 0 1.226 2.012q10.236 10.316 20.555 20.548a4.905 4.905 0 0 0 1.585.687 27.643 27.643 0 0 1-7.207 1.882c-5.803-5.698-11.498-11.503-17.267-17.235-1.41-1.401-2.845-2.78-4.201-4.232-.645-.69-1.617-1.265-1.301-2.484 2.068-1.158 4.132-2.333 6.61-1.179z" class="cls-73"/><path fill="#aad12c" d="M425.6 306.157a3.007 3.007 0 0 1-1.846-.845q-11.128-11.27-22.265-22.534c1.284-2.212 3.483-1.689 5.46-1.833a3.118 3.118 0 0 1 1.758 1.012c6.814 7.152 13.944 13.99 20.87 21.032a3.572 3.572 0 0 1 1.287 1.934 14.09 14.09 0 0 1-5.264 1.234z"/><path fill="#a6d02d" d="M430.864 304.923c-5.573-4.765-10.44-10.253-15.683-15.356-2.687-2.615-5.246-5.361-7.863-8.048 1.456-1.87 3.3-2.014 5.357-1.2 6.369 5.495 11.982 11.762 17.984 17.631 1.818 1.778 3.979 3.312 4.915 5.849a12.311 12.311 0 0 1-4.71 1.124z"/><path fill="#90c936" d="M435.467 274.418c1.366.027 2.044 1.105 2.842 1.935 6.552 6.807 13.67 13.061 19.826 20.258.274.32.878.357 1.33.526a19.877 19.877 0 0 1-5.983 1.797c-.72.35-1.09-.206-1.477-.612-6.289-6.568-12.853-12.862-19.214-19.358-1.002-1.024-2.353-1.977-1.656-3.784 1.295-1.105 2.68-1.7 4.332-.762z"/><path d="M447.354 270.82c2.04.14 2.4 2.164 3.547 3.275 5.802 5.622 11.474 11.377 17.172 17.106.756.76 1.4 1.631 2.095 2.451a15.605 15.605 0 0 1-5.371 1.77c-6.414-7.223-13.567-13.72-20.3-20.63-.865-.888-1.56-2.1-3.041-2.154 1.506-2.099 3.543-2.475 5.898-1.819z" class="cls-77"/><path fill="#70be42" d="M469.362 263.032c6.448 5.582 12.08 12 18.272 17.841 1.618 1.527 2.744 3.688 5.14 4.3a22.08 22.08 0 0 1-5.948 2.392c-.84.329-1.27-.282-1.727-.78-5.946-6.479-12.395-12.46-18.513-18.77-.93-.957-2.24-1.736-2.087-3.386a4.58 4.58 0 0 1 4.863-1.597z"/><path fill="#75bf40" d="M464.722 264.787c4.538 5.395 9.867 10.019 14.725 15.102q3.678 3.849 7.379 7.676a14.189 14.189 0 0 1-4.73 1.805c-1.58-.25-2.032-1.785-2.985-2.718-5.819-5.696-11.55-11.48-17.3-17.248-.824-.828-1.884-1.528-1.884-2.902 1.09-1.992 2.735-2.434 4.795-1.715z"/><path fill="#e4e416" d="M359.804 316.628l-7.16.631c.904-1.397.43-2.366-.71-3.483q-9.037-8.862-17.908-17.894c-.972-.985-2.555-1.81-1.783-3.697a2.395 2.395 0 0 1 .755-.413c1.278-.291 2.6-.11 3.882-.378a2.595 2.595 0 0 1 .863.082c3.052 2.218 5.448 5.131 8.119 7.75 4.722 4.633 9.41 9.302 14.012 14.053.932.962 2.913 2.31-.07 3.349z"/><path d="M352.509 290.502a2.793 2.793 0 0 1 2.162.726c6.336 7.442 13.695 13.887 20.447 20.926.75.783 1.726 1.466.779 2.72l-4.8.569c-7.612-7.082-14.86-14.533-22.06-22.024-.83-.863-2.61-1.219-2.264-3.026a5.528 5.528 0 0 1 5.736.109z" class="cls-81"/><path fill="#c8db20" d="M389.022 313.085c1.9-1.257.441-2.076-.407-2.927-6.168-6.185-12.317-12.39-18.556-18.502-1.023-1.003-1.556-2.591-3.197-2.926 1.12-2.093 2.625-1.49 4.172-.598a4.042 4.042 0 0 1 3.25 1.093q11.18 11.368 22.438 22.658l-7.7 1.202z"/><path d="M395.523 283.97q10.35 10.49 20.69 20.989c.81.825 1.951 1.455 2.008 2.83a6.523 6.523 0 0 1-3.515.672c-1.425.688-2.513-.006-3.458-.943q-10.477-10.395-20.863-20.883c-.533-.541-1.199-1.119-.8-2.065 1.903-.966 3.823-1.75 5.938-.6z" class="cls-83"/><path d="M431.333 275.582c.012 1.381 1.128 2.032 1.939 2.856q10.088 10.264 20.21 20.496a9.937 9.937 0 0 1-4.142 1.197c-1.366-.033-2.047-1.11-2.871-1.931q-9.479-9.444-18.935-18.911c-.826-.824-1.52-1.882-2.879-1.925 1.805-2.17 4.1-2.512 6.678-1.782z" class="cls-84"/><path d="M340.67 317.951l-17.97-18.24a18.413 18.413 0 0 1-2.7-2.765c-1.926-3.063-4.667-3.952-8.058-3.464.338-1.428 1.569-1.327 2.58-1.373a34.575 34.575 0 0 1 6.726.128 2.807 2.807 0 0 1 1.533.829c6.795 7.566 14.323 14.411 21.339 21.758.693.726 2.544 1.504.76 3z" class="cls-85"/><path fill="#cbdc1f" d="M118.126 45.857a30.951 30.951 0 0 1 7.195-2.909c4.376 2.972 7.663 7.085 11.29 10.837a2.08 2.08 0 0 1 .287 2.5 14.988 14.988 0 0 1-7.267 3.017c-3.44-3.291-6.753-6.712-10.088-10.111-.867-.884-1.95-1.8-1.418-3.334z"/><path d="M346.609 291.128c.684.044 1.427-.055 1.937.537 6.781 7.874 14.58 14.753 21.737 22.258a6.448 6.448 0 0 1 .815 1.52l-5.369.596c-6.305-6.962-13.175-13.368-19.747-20.068-1.449-1.477-2.82-3.057-4.842-3.828a.681.681 0 0 1-.314-1.17c1.956-.905 3.89-1.12 5.783.155z" class="cls-87"/><path d="M332.325 292.368c.045 1.369 1.169 2.004 1.978 2.819 6.329 6.364 12.625 12.762 19.066 19.01 1.834 1.78 1.49 2.506-.724 3.062l-2.431.095c-3.622-3.21-6.863-6.806-10.318-10.186-3.39-3.318-6.714-6.704-10.073-10.054-1.531-1.528-2.916-3.24-5.21-3.742-.655-.143-1.002-.638-.384-1.298 2.736-.855 5.45-1.214 8.096.294z" class="cls-88"/><path fill="#5ab085" d="M565.043 241.07c-7.684-7.162-15.183-14.51-22.227-22.31.492-1.593 1.085-3.091 3.08-3.27.026 1.263 1.058 1.85 1.803 2.598q9.106 9.153 18.24 18.277c.759.762 1.395 1.646 2.088 2.473l-2.984 2.231z"/><path fill="#ece712" d="M323.938 292.916c1.942-.27 3.333.545 4.69 1.93 6.326 6.448 12.74 12.81 19.143 19.18a10.057 10.057 0 0 1 2.443 3.328 17.198 17.198 0 0 1-5.335.47c.795-1.48-.663-1.912-1.322-2.579q-9.41-9.53-18.925-18.957a10.318 10.318 0 0 1-2.447-3.323 1.192 1.192 0 0 1 1.753-.05z"/><path fill="#ee571e" d="M27.377 160.508c-1.055 1.494.016 3.306-.707 4.876-1.427.114-2.103-.987-2.916-1.793q-6.227-6.175-12.41-12.393c-.671-.671-1.305-1.716-2.223-.254a31.492 31.492 0 0 1 1.78-7.718 1.766 1.766 0 0 1 1.84.684c5.1 4.957 10.064 10.052 15.154 15.023a1.308 1.308 0 0 1-.518 1.575z"/><path d="M340.532 291.672a4.75 4.75 0 0 1 3.91 1.7c6.344 6.435 12.753 12.807 19.154 19.187a6.358 6.358 0 0 1 2.133 3.48l-5.925.589c1.94-1.27.383-2.079-.43-2.895q-9.723-9.77-19.479-19.505c-.764-.767-1.47-1.593-2.202-2.391a1.916 1.916 0 0 1 2.84-.165z" class="cls-92"/><path d="M389.436 285.105c4.825 3.971 8.91 8.703 13.39 13.03 2.993 2.888 5.905 5.86 8.826 8.82.86.87 1.706 1.67 3.054 1.506-2.295.967-4.764 1.114-7.175 1.532.294-1.96-1.208-2.955-2.312-4.085q-9.861-10.09-19.805-20.101a2.728 2.728 0 0 1 4.022-.702z" class="cls-93"/><path fill="#4da7bb" d="M455.812 32.256c-2.047.55-.68 1.379-.097 1.975 2.83 2.893 5.707 5.74 8.57 8.602q19.536 19.537 39.052 39.095c.545.548 2.052 1.067.66 2.279a5.202 5.202 0 0 1-5.244-3.124c.215-1.668-1.076-2.461-2.032-3.419q-21.772-21.797-43.568-43.569a11.128 11.128 0 0 1-2.695-3.509 21.11 21.11 0 0 1 5.354 1.67z"/><path fill="#7bc13e" d="M205.273 20.416a35.228 35.228 0 0 1 7.168-1.219c4.931 3.414 8.743 7.994 12.767 12.343.696.752 1.255 1.885.105 2.89a22.767 22.767 0 0 1-7.626 1.235c-2.834-4.663-7.235-7.899-10.82-11.88-.831-.924-2.447-1.6-1.594-3.37z"/><path fill="#69bb45" d="M233.253 16.126q6.75 6.888 13.486 13.789a7.283 7.283 0 0 1 .883 1.496c-2.08 1.83-4.661 1.125-7.046 1.402-4.548-3.824-8.4-8.367-12.705-12.445a6.976 6.976 0 0 1-1.688-2.062c-.29-.63-.198-1.156.54-1.413a28.103 28.103 0 0 1 6.53-.767z"/><path fill="#e2e416" d="M96.055 56.098a29.758 29.758 0 0 1 7.21-3.575c3.625 3.354 7.01 6.95 10.498 10.443.764.765 1.546 1.6 1.03 2.863-2.02 1.415-3.904 3.124-6.6 3.105-4.037-4.285-8.616-8.061-12.138-12.836z"/><path d="M79.942 64.928a22.463 22.463 0 0 1 4.916-2.817 1.941 1.941 0 0 1 2.658.32C91 65.754 94.472 69.09 97.69 72.678a1.703 1.703 0 0 1 .41 1.373 8.994 8.994 0 0 1-5.49 3.523 2.384 2.384 0 0 1-1.658-.5 139.027 139.027 0 0 1-10.83-10.788 1.116 1.116 0 0 1-.179-1.358z" class="cls-55"/><path fill="#6fbd42" d="M226.724 16.893c-.786 1.302.469 1.751 1.077 2.372 3.389 3.457 6.84 6.851 10.243 10.293.744.752 1.76 1.345 1.823 2.59-1.94 1.757-4.24 1.644-6.587 1.27-4.546-4.19-8.787-8.695-13.138-13.089-.59-.596-1.287-1.327-.553-2.314z"/><path d="M187.35 24.051l5.424-1.186c2.332.885 3.673 2.95 5.373 4.571a176.03 176.03 0 0 1 6.7 6.722c.84.892 2.033 1.809.888 3.292a10.215 10.215 0 0 1-6.69 1.233c-3.856-3.815-7.7-7.647-11.472-11.55-.817-.845-2.115-1.921-.222-3.082z" class="cls-64"/><path fill="#74bf40" d="M219.589 18.015c.064 1.36 1.193 1.984 1.997 2.801 3.106 3.158 6.264 6.266 9.38 9.415.743.75 1.74 1.36 1.744 2.615a6.375 6.375 0 0 1-7.16 1.048 6.775 6.775 0 0 0-2.33-3.68c-3.607-3.658-7.188-7.342-10.778-11.017a32.207 32.207 0 0 1 7.147-1.182z"/><path fill="#9bcc32" d="M169.396 28.439l6.06-1.496c3.457 1.855 5.576 5.177 8.425 7.7a28.616 28.616 0 0 1 3.091 3.153c.74.893 1.607 1.798 1.017 3.146a9.749 9.749 0 0 1-6.392 1.766q-5.644-5.553-11.186-11.216c-.803-.815-1.778-1.672-1.015-3.053z"/><path d="M22.847 116.968a19.072 19.072 0 0 1 3.298-4.844c1.577-.836 2.392.438 3.26 1.28 3.618 3.506 7.112 7.14 10.761 10.617.065 2.41-1.667 3.866-2.958 5.558a2.832 2.832 0 0 1-2.904-1.05c-3.879-3.794-7.845-7.503-11.457-11.561z" class="cls-101"/><path d="M17.3 126.478l2.612-4.706a2.248 2.248 0 0 1 2.396.75c4.089 4.081 8.491 7.86 12.094 12.417.193 1.772-.781 3.067-1.778 4.354a1.944 1.944 0 0 1-2.908.09c-4.23-4.214-8.905-8.001-12.416-12.905z" class="cls-102"/><path fill="#f07b1a" d="M34.008 134.856c-3.606-3.529-7.226-7.043-10.81-10.594a11.049 11.049 0 0 0-3.286-2.49 20.575 20.575 0 0 1 2.935-4.804c2.014.434 2.88 2.285 4.26 3.493 3.328 2.913 5.923 6.62 9.728 9.024.49 2.544-1.106 3.99-2.827 5.37z"/><path fill="#bfd824" d="M131.305 40.643a15.809 15.809 0 0 1 5.238-1.888c.909-.334 1.53.237 2.08.768q5.014 4.85 9.865 9.863a2.195 2.195 0 0 1 .854 2.096 8.59 8.59 0 0 1-5.947 2.603c-4.386-3.284-7.875-7.503-11.732-11.338-.548-.544-1.032-1.27-.358-2.104z"/><path fill="#d3df1c" d="M118.126 45.857c1.4 3.213 4.43 5.005 6.584 7.559 1.574 1.866 3.886 3.09 4.802 5.524a7.55 7.55 0 0 1-5.825 2.762c-3.477-3.34-6.84-6.799-10.215-10.243-.797-.814-1.744-1.683-1.247-3.075a26.265 26.265 0 0 1 5.9-2.527z"/><path d="M96.055 56.098c2.222.379 2.796 2.579 4.111 3.907 2.72 2.743 6.054 4.958 7.872 8.536a7.27 7.27 0 0 1-5.285 3.277c-4.151-4.25-8.495-8.315-12.52-12.693a22.304 22.304 0 0 1 5.822-3.027z" class="cls-88"/><path fill="#ee5c1e" d="M27.435 158.717c-2.937-1.403-4.742-4.09-7.02-6.234-3.223-3.03-6.347-6.166-9.513-9.257a12.945 12.945 0 0 1 1.23-4.19c1.165-.914 2.086-.208 2.864.555 4.577 4.49 9.169 8.965 13.614 13.594a5.933 5.933 0 0 1-1.175 5.532z"/><path d="M205.866 36.969c-.092-1.462-1.33-2.112-2.189-2.998-3.61-3.726-7.264-7.408-10.903-11.106l6.534-1.272c4.098 3.699 7.876 7.721 11.76 11.638.828.836 1.651 1.806.684 3.106-1.879.99-3.76 1.956-5.886.632z" class="cls-77"/><path fill="#81c33c" d="M211.834 35.858c.01-1.262-.987-1.88-1.734-2.634-2.988-3.02-6.013-6.003-8.998-9.027-.744-.753-1.759-1.35-1.794-2.604l5.965-1.177c.495 2.086 2.375 3.052 3.689 4.453 2.421 2.583 4.985 5.032 7.49 7.536.76.76 1.753 1.451.747 2.698-1.62 1.45-3.37 1.976-5.365.755z"/><path fill="#c5da21" d="M131.305 40.643c.259 1.876 1.923 2.676 3.04 3.864 2.91 3.093 5.918 6.092 8.887 9.128a6.43 6.43 0 0 1-6.561 2.418c.22-1.51-.894-2.275-1.76-3.192-3.155-3.344-6.718-6.294-9.59-9.913a21.415 21.415 0 0 1 5.984-2.305z"/><path fill="#efe812" d="M90.234 59.125c2.043.39 3.014 2.17 4.248 3.493 2.736 2.935 6.194 5.21 8.185 8.832a4.226 4.226 0 0 1-4.769 2.459q-5.345-5.441-10.684-10.89a2.662 2.662 0 0 0-2.356-.908 22.508 22.508 0 0 1 5.376-2.986z"/><path fill="#f4d411" d="M66.138 73.94a24.422 24.422 0 0 1 5.445-3.73c3.473 3.522 6.986 7.005 10.46 10.527a3.417 3.417 0 0 1 1.287 2.268c-.735 2.071-2.633 2.592-4.394 3.297a1.315 1.315 0 0 1-.854-.181c-4.262-3.784-8.521-7.574-11.944-12.181z"/><path d="M169.396 28.439c.06 1.578 1.376 2.299 2.262 3.314 3.143 3.602 7.248 6.311 9.75 10.508a6.247 6.247 0 0 1-5.602 1.781 670.832 670.832 0 0 1-11.645-11.688c-.578-.593-1.354-1.275-.639-2.294z" class="cls-73"/><path fill="#f4dc10" d="M83.012 83.041c-2.846-3.651-6.442-6.579-9.589-9.94-.795-.85-1.825-1.546-1.84-2.891a16.745 16.745 0 0 1 4.272-2.743c.57-.26.922.104 1.255.462 3.684 3.958 7.658 7.629 11.413 11.52-1.071 2.372-3.084 3.3-5.51 3.592z"/><path fill="#f3bf13" d="M53.548 83.447a16.769 16.769 0 0 1 4.337-3.492 1.168 1.168 0 0 1 1.358.23c3.928 3.797 8.079 7.38 11.43 11.742-.45 2.425-2.688 2.785-4.373 3.786a1.187 1.187 0 0 1-.852-.148c-4.243-3.767-8.466-7.556-11.9-12.118z"/><path fill="#abd12c" d="M152.692 33.26a22.293 22.293 0 0 1 5.462-1.565c3.974 3.59 7.614 7.517 11.374 11.323.7.709 1.297 1.571.555 2.648a7.352 7.352 0 0 1-5.14 1.337c-4.362-3.273-7.88-7.42-11.64-11.316a2.073 2.073 0 0 1-.611-2.427z"/><path fill="#a5d02e" d="M170.074 45.21c-1.01-2.58-3.482-3.877-5.161-5.87-2.192-2.602-5.245-4.442-6.759-7.645 1.659-.975 3.56-1.153 5.368-1.635 2.559 4.147 6.622 6.892 9.768 10.492.817.935 2.098 1.552 2.156 3.031a4.42 4.42 0 0 1-5.372 1.627z"/><path fill="#f08a19" d="M40.005 124.112c-3.302-1.4-4.984-4.63-7.638-6.759-2.114-1.696-3.366-4.418-6.222-5.23a15.659 15.659 0 0 1 3.092-4.133c1.594-.842 2.374.486 3.228 1.32 3.6 3.513 7.131 7.097 10.716 10.63-.407 1.886-.929 3.686-3.176 4.172z"/><path fill="#b0d32a" d="M152.692 33.26c1.602 3.528 4.899 5.564 7.358 8.337 1.496 1.686 3.101 3.275 4.657 4.907-1.17 1.988-3.173 2.063-5.134 2.234-4.493-3.317-8.071-7.59-11.94-11.557-.754-.775-.964-1.79.353-2.42z"/><path d="M42.896 119.94c-3.959-2.216-6.382-6.103-9.75-8.959-1.25-1.06-2.007-2.78-3.909-2.991a16.24 16.24 0 0 1 3.454-4.24c1.489-.471 2.128.776 2.916 1.546 3.534 3.447 6.984 6.98 10.533 10.414a4.581 4.581 0 0 1-3.244 4.23z" class="cls-117"/><path d="M187.972 40.601c-1.701-3.467-4.97-5.534-7.445-8.31-1.635-1.832-3.377-3.568-5.07-5.348a34.052 34.052 0 0 1 7.124-1.748 4.821 4.821 0 0 0 1.684 3.287 323.603 323.603 0 0 1 7.9 7.911c.91.948 2.191 1.888 1.104 3.516-1.671.962-3.367 1.726-5.297.692z" class="cls-84"/><path d="M46.038 115.78c-1.381-.02-2.008-1.162-2.858-1.95-3.556-3.298-6.627-7.1-10.489-10.08a11.956 11.956 0 0 1 3.074-3.528 1.765 1.765 0 0 1 2.376.501c3.715 3.779 7.809 7.193 11.05 11.432-.447 1.732-1.085 3.302-3.153 3.625z" class="cls-118"/><path d="M48.992 112.192q-5.183-5.032-10.37-10.06c-.832-.802-1.496-1.885-2.857-1.91l3.785-4.088c1.325-.29 1.95.763 2.687 1.485 3.518 3.451 6.976 6.965 10.493 10.42-.635 1.934-1.298 3.845-3.738 4.153z" class="cls-119"/><path fill="#f2a616" d="M52.513 108.014c-2.04-.386-2.926-2.225-4.264-3.464-2.959-2.742-5.806-5.604-8.7-8.416a14.126 14.126 0 0 1 3.984-3.82c2.737 1.479 4.477 4.054 6.674 6.122 2.066 1.945 4.074 3.955 6.082 5.965a4.046 4.046 0 0 1-3.776 3.613z"/><path fill="#90c835" d="M193.341 39.422c-.282-1.992-2.056-2.836-3.244-4.098-2.449-2.6-4.99-5.118-7.576-7.583-1.033-.985-1.155-1.724.06-2.546l4.77-1.144c-.975 1.278.046 1.965.808 2.727q4.424 4.427 8.846 8.857c.754.76 1.731 1.399 1.723 2.662-1.456 1.997-3.306 2.113-5.387 1.125z"/><path d="M114.597 65.484c-2.335-3.975-6.237-6.498-9.18-9.909-.816-.944-2.104-1.564-2.152-3.052 1.15-1.023 2.639-1.312 4.01-1.856 1.156-.331 1.833.471 2.511 1.136a498.232 498.232 0 0 1 8.721 8.728c.748.77 1.528 1.58 1.106 2.832-1.411 1.322-2.778 2.754-5.016 2.121z" class="cls-87"/><path fill="#f3b714" d="M53.548 83.447c4.58 3.599 8.198 8.2 12.55 12.036-.132 2.107-1.856 2.66-3.35 3.442a2.836 2.836 0 0 1-2.378-.943 347.633 347.633 0 0 1-9.578-9.572c-.527-.546-1.135-1.151-.697-2.063a10.527 10.527 0 0 1 3.453-2.9z"/><path fill="#f3c613" d="M70.55 91.942c-3.738-2.943-6.76-6.63-10.222-9.86-.789-.736-1.627-1.42-2.443-2.127 1.29-1.102 2.404-2.442 4.074-3.032a1.523 1.523 0 0 1 1.835.542c3.717 3.762 7.79 7.183 10.992 11.443a4.18 4.18 0 0 1-4.236 3.034z"/><path fill="#f4cd12" d="M74.456 88.922c-3.274-3.234-6.538-6.48-9.832-9.694-.839-.819-1.774-1.54-2.665-2.305a13.707 13.707 0 0 1 4.18-2.983c3.742 2.917 6.747 6.6 10.197 9.822.79.736 1.605 1.443 2.408 2.164-.426 2.434-2.476 2.544-4.288 2.996z"/><path d="M147.986 34.76c-1.057 1.444.205 2.127.989 2.932q5.168 5.308 10.363 10.59c-1.182 1.987-3.262 1.784-5.127 2.107-4.297-4.422-9.168-8.3-12.792-13.37a28.527 28.527 0 0 1 6.567-2.259z" class="cls-83"/><path fill="#ef6d1c" d="M17.3 126.478c4.317 3.53 7.921 7.794 11.957 11.615.837.792 1.54 2 2.962.939.908 2.164-.599 3.682-1.439 5.378a1.566 1.566 0 0 1-2.166-.185c-4.495-4.433-9.387-8.484-13.176-13.601z"/><path d="M141.42 37.02c4.375 4.15 9.086 7.977 12.55 13.007-1.29 1.553-2.775 2.371-4.771 1.266a149.336 149.336 0 0 0-12.656-12.538 15.018 15.018 0 0 1 4.876-1.736z" class="cls-93"/><path d="M28.1 152.753c-1.267-.006-1.88-1.016-2.636-1.766q-5.189-5.14-10.335-10.322c-.84-.84-1.597-1.826-2.998-1.629l1.758-4.755c1.19-.273 1.811.625 2.484 1.291q6.624 6.565 13.22 13.16a4.929 4.929 0 0 1-1.492 4.02z" class="cls-126"/><path fill="#f5e310" d="M88.544 79.47c-1.453-.068-2.198-1.203-3.074-2.096-3.223-3.284-6.413-6.602-9.615-9.907l4.087-2.54c3.989 4.269 7.617 8.914 12.647 12.092a3.27 3.27 0 0 1-4.045 2.45z"/><path fill="#f2ac15" d="M56.079 104.434c-2.022-.392-2.96-2.172-4.225-3.456-2.809-2.852-5.949-5.393-8.321-8.664a10.96 10.96 0 0 1 2.964-2.843 1.332 1.332 0 0 1 1.602.379c3.802 3.806 7.943 7.285 11.236 11.587a3.267 3.267 0 0 1-3.256 2.997z"/><path d="M29.17 148.576c-1.55-.198-2.242-1.542-3.21-2.476-4.052-3.91-8.052-7.874-12.071-11.82l1.549-3.656c4.402 3.532 8.012 7.883 12.12 11.718.844.788 1.445 1.935 2.788 2.058a3.157 3.157 0 0 1-1.176 4.176z" class="cls-129"/><path d="M119.373 63.21c-.39-2.02-2.17-2.953-3.452-4.22-2.844-2.81-5.399-5.93-8.646-8.323a15.66 15.66 0 0 1 4.95-2.283c2.239 4.06 6.148 6.597 9.106 10 .818.942 2.102 1.551 2.216 3.014-.936 1.652-2.183 2.589-4.174 1.813z" class="cls-81"/><path fill="#f2b215" d="M59.328 101.53c-3.719-2.77-6.587-6.43-9.974-9.546-.933-.858-1.904-1.676-2.857-2.513a12.286 12.286 0 0 1 3.598-3.124c3.945 4.306 7.62 8.893 12.601 12.121-.05 2.2-1.684 2.66-3.368 3.063z"/><path d="M334.147 318.455c1.928-.953 3.98-.275 5.968-.46a17.937 17.937 0 0 1-5.968.46z" class="cls-85"/><path d="M468.925 38.821c-1.085-.721-2.182-1.433-2.386-2.883l1.215.01 1.17 2.873z" class="cls-131"/><path d="M276.825 12.09c-1.762.978-3.656.313-5.487.437a15.91 15.91 0 0 1 5.487-.436z" class="cls-49"/><path fill="#ec3022" d="M102.103 277.409a54.726 54.726 0 0 1-9.543-4.772c-.182-1.1-1.157-1.583-1.838-2.264q-39.105-39.116-78.231-78.212a13.889 13.889 0 0 1-1.77-5.822c-.147-1.377.756-1.15 1.482-.867a7.869 7.869 0 0 1 2.5 2.082q43.005 42.994 85.999 85.999a8.105 8.105 0 0 1 2.08 2.503c.239.59.57 1.421-.679 1.353z"/><path fill="#ec2b23" d="M12.49 192.161c1.298-.11 1.928.894 2.682 1.647q38.155 38.136 76.268 76.313c.616.617 2.185 1.054 1.12 2.516a77.57 77.57 0 0 1-11.403-6.431 66.195 66.195 0 0 0-5.033-5.066c-19.762-19.854-39.665-39.568-59.37-59.478a3.548 3.548 0 0 0-.705-.546c-1.512-2.855-3.038-5.705-3.558-8.955z"/><path fill="#ec3422" d="M102.103 277.409c1.118-1.65-.686-2.056-1.338-2.713q-19.5-19.655-39.118-39.195-24-24-48.033-47.964c-.693-.69-1.203-2.606-2.892-1.198l-1.6-5.55c1.01-.865 1.85-.277 2.649.345a24.11 24.11 0 0 1 2.151 2.057q46.434 46.431 92.863 92.867a13.02 13.02 0 0 1 2.386 2.644c.4.711.901 1.628-.613 1.742a17.589 17.589 0 0 1-6.455-3.035z"/><path fill="#ec3821" d="M8.512 175.42c1.534-.215 2.316.915 3.216 1.815q13.17 13.159 26.357 26.3c.643.638 1.078 2.14 2.548 1.23 1.34-.401 1.709.806 2.217 1.502 7.024 9.605 15.578 17.694 24.754 25.178.76.62 1.658 1.128 1.968 2.164.163 1.66 1.483 2.526 2.514 3.559q20.828 20.863 41.679 41.703a8.965 8.965 0 0 1 2.578 3.225c.325.958.46 1.964-1.154 1.294a11.004 11.004 0 0 1-4.132-1.803 16.12 16.12 0 0 0-3.085-3.957Q60.16 229.826 12.368 182a36.416 36.416 0 0 1-3.283-3 5.31 5.31 0 0 1-.573-3.578z"/><path fill="#eb2623" d="M16.049 201.116c1.298-.13 1.931.87 2.684 1.621q30.404 30.385 60.789 60.79c.751.752 1.751 1.384 1.635 2.679a103.652 103.652 0 0 1-14.913-9.545c-9.133-9.279-18.39-18.435-27.6-27.637-5.341-5.335-10.578-10.776-16.064-15.966a54.32 54.32 0 0 1-6.531-11.942z"/><path fill="#ed4520" d="M142.016 293.668a47.73 47.73 0 0 1-10.247-3.645c-.49-1.492-1.722-2.402-2.761-3.444q-15.586-15.625-31.203-31.22a15.227 15.227 0 0 1-2.025-2.183c-.58-.867-1.1-1.803.406-2.348a27.859 27.859 0 0 1 10.812 5.205 7.374 7.374 0 0 0 2.201 2.754q15.34 15.347 30.666 30.707c1.118 1.125 2.749 2.111 2.15 4.174z"/><path fill="#ed4020" d="M96.315 251.108c-1.642 1.58.386 2.062.981 2.662 11.105 11.216 22.295 22.347 33.402 33.56.616.623 2.574 1.084 1.071 2.693a32.64 32.64 0 0 1-7.668-2.926c-13.085-13.229-26.302-26.327-39.439-39.505a14.302 14.302 0 0 1-2.01-2.178c-.556-.855-1.133-1.8.426-2.305 4.238 1.783 8.13 4.234 12.194 6.352a1.747 1.747 0 0 1 1.043 1.647z"/><path d="M228.528 313.765a52.684 52.684 0 0 1-11.364-1.731c.682-1.616-.626-2.345-1.492-3.215-6.918-6.95-13.891-13.845-20.757-20.846-.912-.93-3.047-1.821-1.15-3.756 3.043.087 6.085.167 8.955 1.36.164 1.04 1.034 1.553 1.694 2.213q11.009 11.012 22.004 22.039c1.064 1.073 2.55 2.016 2.11 3.936z" class="cls-101"/><path fill="#ec3b21" d="M83.122 243.376c-1.49 1.616.478 2.062 1.089 2.679q18.865 19.024 37.839 37.942c.876.878 2.15 1.552 2.05 3.1a48.56 48.56 0 0 1-8.91-3.706c.866-.044 1.038-.54.586-1.153a21.688 21.688 0 0 0-2.116-2.464q-21.54-21.57-43.069-43.151c-.68-.686-2.379-1.108-1.421-2.743 2.16.039 3.345 1.895 5.08 2.745 2.817 1.381 5.16 3.542 7.892 5.088a1.63 1.63 0 0 1 .98 1.663z"/><path fill="#ed4b1f" d="M142.016 293.668a8.238 8.238 0 0 0-2.527-3.598q-15.58-15.557-31.113-31.16c-.622-.627-2.044-.968-1.417-2.4a20.369 20.369 0 0 1 10.391 4.39 14.112 14.112 0 0 0 3.002 3.67q14.128 14.124 28.227 28.276c.94.95 2.653 1.692 1.814 3.61a42.071 42.071 0 0 1-8.377-2.788z"/><path fill="#f3b814" d="M284.573 318.653l-3.576.021-.585-.193a8.829 8.829 0 0 1-2.87-2.054q-9.737-9.77-19.499-19.514c-.21-.21-.42-.42-.617-.642-.788-.89-1.884-1.85-1.439-3.064.484-1.318 2.013-.925 3.15-1.103 3.437.18 6.926-.636 10.3.556.616.626.316 1.028-.352 1.304-.916.379-1.955.144-3.036.519.225 1.239 1.203 1.82 1.918 2.54 5.997 6.037 12.048 12.021 18.015 18.088.871.885 2.456 1.612 1.603 3.387l-3.012.155z"/><path fill="#f08b19" d="M228.528 313.765a10.22 10.22 0 0 0-2.445-3.319q-10.953-10.91-21.84-21.886c-.565-.572-1.971-.835-1.326-2.203 2.601-1.38 5.001-.072 7.453.549 4.616 3.876 8.61 8.397 12.919 12.595 3.535 3.444 6.99 6.97 10.479 10.462a17.69 17.69 0 0 1 1.811 1.953c.528.718 1.248 1.602.67 2.394-.552.755-1.604.467-2.453.131a13.5 13.5 0 0 1-5.268-.676z"/><path fill="#ed501f" d="M150.393 296.457c-.056-1.37-1.184-2.004-1.997-2.82q-14.662-14.707-29.348-29.39c-.873-.876-2.141-1.554-2.006-3.104 3.933-.15 7.053 1.884 10.216 3.803a7.254 7.254 0 0 0 2.439 3.615q13.533 13.512 27.028 27.062c.903.91 2.387 1.592 2.01 3.326a38.661 38.661 0 0 1-8.342-2.493z"/><path d="M249.376 316.208a14.008 14.008 0 0 1-5.357-.535q-11.78-11.713-23.472-23.514c-.959-.97-2.908-1.902-1.204-3.83a15.04 15.04 0 0 1 7.802 1.078c7.207 7.662 14.827 14.92 22.208 22.415.557.566 1.144 1.105 1.66 1.708.575.673 1.428 1.411.96 2.322-.573 1.116-1.66.7-2.597.356z" class="cls-118"/><path fill="#ee551e" d="M158.735 298.95c-1.267-2.052-3.182-3.506-4.847-5.182-8.512-8.57-17.087-17.077-25.57-25.676-.607-.615-2.585-1.087-1.023-2.677 3.104-.59 5.498.995 7.899 2.568a13.702 13.702 0 0 0 2.986 3.673q12.75 12.747 25.473 25.52c.94.95 2.637 1.754 1.615 3.652a21.06 21.06 0 0 1-6.533-1.879z"/><path d="M192.111 307.391a36.057 36.057 0 0 1-8.401-1.898c-.265-1.275-1.34-1.935-2.163-2.762q-11.258-11.306-22.553-22.576a11.616 11.616 0 0 1-2.332-2.696c-.47-.908-.928-1.915.652-2.289 2.716.646 5.6.693 8.056 2.263a7.98 7.98 0 0 0 2.466 3.614q11.36 11.326 22.668 22.704c.937.949 2.627 1.75 1.607 3.64z" class="cls-129"/><path d="M218.992 288.834c.072 1.36 1.2 1.992 2.01 2.807q10.55 10.603 21.134 21.172c.81.813 1.942 1.457 1.883 2.86a48.305 48.305 0 0 1-10.223-1.232c.672-.099 1.842-.043 1.93-.324.337-1.082-.603-1.765-1.293-2.456q-10.803-10.82-21.614-21.631c-.764-.767-1.454-1.607-2.179-2.413 2.926-.568 5.845-1.09 8.352 1.217z" class="cls-117"/><path fill="#eb2124" d="M22.58 213.058c1.303-.158 1.942.837 2.695 1.59q19.677 19.657 39.334 39.334c.751.753 1.752 1.384 1.635 2.68a144.86 144.86 0 0 1-19.537-15.289 139.565 139.565 0 0 1-23.189-26.513 18.36 18.36 0 0 1-.938-1.802z"/><path fill="#ef6e1c" d="M192.111 307.391c.112-1.421-1.021-2.078-1.835-2.895-7.913-7.94-15.867-15.84-23.73-23.83-.612-.623-2.574-1.054-1.143-2.689 3.219-.638 6.087.419 8.878 1.838-.091 1.661.964 2.678 2.03 3.738q10.406 10.361 20.774 20.762a17.17 17.17 0 0 1 2.007 2.178c.409.581.811 1.274.261 1.888a1.46 1.46 0 0 1-1.904.083 11.126 11.126 0 0 1-5.338-1.073z"/><path d="M249.376 316.208c.718-.168 1.767.392 2.096-.563.304-.882-.682-1.33-1.207-1.857q-10.454-10.502-20.935-20.977c-.811-.815-1.938-1.45-1.988-2.819 3.161-1.356 6.239-.296 9.328.317a5.826 5.826 0 0 0 2.11 4.461c5.908 5.741 11.686 11.614 17.511 17.44.492.49 1.009.96 1.463 1.484.696.805 1.933 1.632 1.33 2.742-.672 1.234-2.055.641-3.177.378-2.194-.023-4.408.177-6.531-.606z" class="cls-119"/><path fill="#f2b015" d="M258.394 292.916c-.654.12-1.66-.3-1.896.372-.323.914.546 1.601 1.173 2.229q10.273 10.283 20.549 20.564c.764.766 1.463 1.598 2.192 2.4a31.012 31.012 0 0 1-8.36-.482c-2.947-4.02-6.795-7.183-10.233-10.734-3.926-4.055-8.015-7.951-11.936-12.011-1.895-1.962-1.789-2.403.372-3.652a28.073 28.073 0 0 1 5.605-.087c.995.073 2.28-.121 2.534 1.401z"/><path fill="#f2a416" d="M255.907 316.814c.91-.228 2.267.527 2.681-.568.395-1.044-.925-1.609-1.583-2.271-6.778-6.828-13.61-13.603-20.363-20.454-.641-.65-3.254-2.023.279-2.394 1.862-1.271 3.782-1.008 5.718-.22-.32 1.124.543 1.642 1.18 2.277q9.542 9.511 19.058 19.05a17.664 17.664 0 0 1 2.016 2.165c.61.86 1.757 1.824 1.145 2.82-.587.955-1.916.536-2.942.181-2.411-.016-4.842.207-7.19-.586z"/><path fill="#f07d1a" d="M193.35 284.545c-.011 1.39 1.116 2.033 1.928 2.847 7.391 7.423 14.822 14.808 22.184 22.26.658.666 3.205 2.038-.298 2.381a8.74 8.74 0 0 1-4.145-.643 11.508 11.508 0 0 1-2.86-2.108c-7.646-7.676-15.343-15.3-22.934-23.03-.894-.91-3.101-1.752-1.228-3.73a20.91 20.91 0 0 1 5.746.727c.714.14 1.614.197 1.607 1.296z"/><path d="M197.449 308.464c2.694-.077 1.605-1.164.574-2.196q-9.461-9.477-18.934-18.94c-1.684-1.684-3.373-3.362-5.045-5.056-.81-.82-1.426-1.639.389-1.953 1.937-1.154 3.634-.32 5.318.634a20.714 20.714 0 0 0 3.198 3.874q10.739 10.698 21.427 21.447c1.063 1.073 2.557 2.02 2.087 3.947a26.993 26.993 0 0 1-9.014-1.757z" class="cls-102"/><path fill="#f2aa16" d="M263.096 317.4c.837-.141 1.745.258 2.583-.33a10.307 10.307 0 0 0-2.748-3.77c-6.57-6.55-13.14-13.1-19.637-19.721-.302-.308-2.481-.802-.41-1.854 2.889-1.396 4.858-1.234 6.667.546-1.504 1.6.453 2.055 1.063 2.677 6.575 6.702 13.249 13.308 19.865 19.97.827.832 2.111 1.516 1.572 3.08-2.995-.043-6.01.212-8.955-.598z"/><path fill="#ee591e" d="M165.268 300.828c.112-1.421-1.022-2.078-1.836-2.894q-13.234-13.274-26.489-26.528c-.874-.879-2.147-1.56-2.004-3.116a20.198 20.198 0 0 1 8.963 2.63c-.29 1.75.978 2.666 2.006 3.695 8.094 8.107 16.216 16.185 24.273 24.328.937.947 2.618 1.734 1.662 3.624a19.554 19.554 0 0 1-6.575-1.74z"/><path fill="#ee5e1d" d="M171.843 302.567c.066-1.407-1.066-2.057-1.879-2.872-8.598-8.627-17.23-17.22-25.791-25.882-.502-.508-2.653-1.289-.31-2.366a8.5 8.5 0 0 1 7.224 1.95c.454.488-1.082.338-.266 1.218 2.368 2.553 4.86 4.975 7.312 7.44 6.236 6.273 12.526 12.493 18.731 18.795.874.887 2.474 1.624 1.565 3.407a18.978 18.978 0 0 1-6.586-1.69z"/><path d="M178.429 304.257c-.029-1.383-1.16-2.025-1.975-2.843-8.194-8.226-16.427-16.414-24.592-24.669-.706-.714-2.65-1.42-.775-2.944 2.365-.665 4.403-.246 5.949 1.798-.731 1.758.853 2.404 1.708 3.267 8.13 8.208 16.328 16.347 24.443 24.569.403.408 2.409.888.523 2.058a15.31 15.31 0 0 1-5.281-1.236z" class="cls-126"/><path fill="#ef781b" d="M206.463 310.221a10.283 10.283 0 0 0-2.635-3.535q-11.147-11.111-22.255-22.262c-.813-.816-1.941-1.459-1.947-2.845 2.24-.745 4.154.017 5.961 1.282.068 1.364 1.197 1.997 2.009 2.813q11.614 11.665 23.263 23.295c.763.764 1.442 1.612 2.16 2.42-2.296.23-4.41-.552-6.556-1.168z"/><path fill="#ec3621" d="M9.085 179c1.373.063 2.01 1.197 2.828 2.015q49.133 49.098 98.197 98.264c.493.495 2.558.79.947 2.308a4.5 4.5 0 0 1-2.5-1.143c.505-.308.698-.747.3-1.218-.575-.682-1.217-1.308-1.85-1.94q-47.121-47.128-94.257-94.24c-1.017-1.017-1.82-2.471-3.628-2.257z"/><path d="M185.587 282.861l-5.96-1.282a14.114 14.114 0 0 0-5.194-1.26c-2.877-1.293-6.051-1.44-9.03-2.342l-8.367-2.378a23.02 23.02 0 0 0-5.949-1.798c-2.21-1.393-4.886-1.353-7.223-2.354-2.807-1.528-6.156-1.522-8.925-3.157a43.359 43.359 0 0 0-7.644-2.875l-10.253-4.272-10.084-4.633-10.643-5.402c-4.126-3.041-9.115-4.61-13.193-7.732L69.17 233.88c-3.716-3.234-7.467-6.43-11.14-9.71a142.538 142.538 0 0 1-17.397-19.406c-2.605-3.565-4.356-7.622-6.567-11.415l-4.077-10.366-1.844-7.57c-1.058-4.928-.548-9.935-.768-14.905l.058-1.79c.255-1.985.884-3.928.666-5.965-.274-1.554 1.239-2.65 1.069-4.177l1.176-4.176 1.874-5.368 1.788-4.176 2.827-5.371 3.17-5.373 2.892-4.173 3.14-4.159 2.955-3.588a13.1 13.1 0 0 0 3.521-4.178c1.303-1.08 2.88-1.886 3.566-3.58l3.249-2.903 3.368-3.063a14.147 14.147 0 0 0 3.402-2.985c1.204-1.532 3.393-1.826 4.452-3.541a13.002 13.002 0 0 0 3.906-3.02c1.138-1.416 3.254-1.431 4.288-2.996a17.875 17.875 0 0 0 4.268-2.885l5.532-3.571a14.333 14.333 0 0 0 4.045-2.45 21.507 21.507 0 0 0 5.31-3.111 19.386 19.386 0 0 0 4.768-2.46l5.371-2.908c2.365-.637 4.385-2.01 6.56-3.057l4.775-2.273 4.174-1.813 5.964-2.457 7.16-2.888 6.56-2.418a18.63 18.63 0 0 0 5.968-2.342c1.756.202 3.182-.836 4.77-1.266l5.369-1.746a18.032 18.032 0 0 0 5.37-1.777c1.913.085 3.59-.808 5.366-1.294 1.812-.473 3.71-.657 5.372-1.627 2.102.074 3.97-.9 5.963-1.322l6.563-1.66a17.913 17.913 0 0 0 5.37-1.179 17.596 17.596 0 0 0 5.386-1.125 32.844 32.844 0 0 0 7.138-1.328 21.014 21.014 0 0 0 5.968-1.11 21.602 21.602 0 0 0 5.365-.756l8.35-1.209c2.386-.356 4.847-.203 7.161-1.047 2.428.2 4.775-.429 7.157-.7l7.755-.735c3.368-.454 6.807-.132 10.141-.938a86.83 86.83 0 0 0 12.527-.634c4.445-.093 8.908.346 13.329-.456l1.393-.05a5.088 5.088 0 0 0 3.363 0 9.541 9.541 0 0 0 3.798 0c3.805.648 7.656-.063 11.468.376l3.036.065 13.123.632a74.445 74.445 0 0 0 10.14.694 78.385 78.385 0 0 0 10.738 1.095l13.123 1.698 10.139 1.366 12.528 2.268 11.93 2.394 13.718 3.093a133.977 133.977 0 0 0 13.702 3.63 139.55 139.55 0 0 0 13.733 4.123l16.045 5.556 17.366 6.872 17.898 8.252 17.893 9.635a18.058 18.058 0 0 0 5.245 3.124l16.232 11.098c5.495 4.53 11.141 8.873 16.294 13.818a143.061 143.061 0 0 1 15.844 18 131.996 131.996 0 0 1 8.485 14.294l4.738 13.72 1.3 10.737-.152 8.323-1.84 9.435-2.325 6.696-3.746 7.706-4.049 6.516-4.716 6.117-4.168 4.823-3.08 3.27-4.085 3.85-4.184 3.658-4.808 3.936a24.673 24.673 0 0 0-4.793 3.524l-5.341 3.65-6.533 4.276-7.161 4.205-7.243 3.863-6.477 3.326-7.754 3.586-7.824 3.463a32.729 32.729 0 0 0-7.25 2.935 18.178 18.178 0 0 0-4.64 1.755 16.516 16.516 0 0 0-4.795 1.715 40.08 40.08 0 0 0-7.203 2.528 17.336 17.336 0 0 0-5.37 1.79 21.365 21.365 0 0 0-5.898 1.818 22.854 22.854 0 0 0-5.989 1.78 9.926 9.926 0 0 0-4.134 1.164 27.534 27.534 0 0 0-6.678 1.782 17.724 17.724 0 0 0-5.24 1.305 28.462 28.462 0 0 0-6.74 1.65 16.981 16.981 0 0 0-5.357 1.2 17.8 17.8 0 0 0-5.829 1.26 18.732 18.732 0 0 0-5.966 1.192 20.877 20.877 0 0 0-6.087 1.134 9.665 9.665 0 0 0-4.022.702 25.11 25.11 0 0 0-6.621 1.134 31.132 31.132 0 0 0-7.759 1.19 8.545 8.545 0 0 0-4.172.6 21.102 21.102 0 0 0-5.905.7l-.613.033c-.953.469-2.08-.18-3.006.469a11.627 11.627 0 0 0-4.83.569 16.496 16.496 0 0 0-5.9.626 18.534 18.534 0 0 0-6.076.544l-2.839.165-.611.012c-1.361.522-2.864-.237-4.204.47l-.284-.053-.269.102a33.673 33.673 0 0 0-8.387.548l-1.753.049a59.368 59.368 0 0 0-10.243.517l-2.88.078-7.756.085-29.221-.083a1.476 1.476 0 0 1-2.24-.105 73.696 73.696 0 0 0-11.451-.54 40.856 40.856 0 0 0-8.843-.646 22.7 22.7 0 0 0-6.667-.546c-1.935-.725-3.958-.577-5.963-.598a56.276 56.276 0 0 0-9.579-1.135l-8.35-1.158-8.352-1.217a34.875 34.875 0 0 0-7.723-1.26c-3.062-1.272-6.434-.914-9.567-1.812-2.466-1.123-5.211-.956-7.763-1.684z"/><path fill="#f3be13" d="M269.845 293.457l2.24.105q10.617 10.752 21.242 21.498a9.918 9.918 0 0 1 2.608 3.543l-6.603.033-1.747-.137c-.073-1.369-1.209-2-2.022-2.818-6.434-6.472-12.906-12.905-19.331-19.386-.646-.651-1.995-1.207-1.496-2.28.47-1.009 1.793-.356 2.733-.466.785-.092 1.583-.066 2.376-.092z"/><path fill="#f4db11" d="M301.305 294.122q9.47 9.618 18.934 19.239c1.66 1.69 3.273 3.427 4.907 5.142l-2.318.133-4.223-.09c-.043-1.374-1.176-2.006-1.984-2.828q-10.605-10.786-21.248-21.534l5.932-.062z"/><path d="M549.452 119.349a2.767 2.767 0 0 1-2.012-1.117q-7.678-7.684-15.363-15.362a2.768 2.768 0 0 1-1.116-2.013q9.615 8.876 18.491 18.492z" class="cls-131"/><path d="M303.641 29.71a61.36 61.36 0 0 1-11.467-.376l1.386-.145c3.348.419 6.763-.458 10.081.521z" class="cls-53"/><path d="M357.338 289.933a5.483 5.483 0 0 1 3.006-.47c-.897.83-1.993.386-3.006.47z" class="cls-70"/><path d="M288.375 29.334a4.154 4.154 0 0 1-3.362 0h3.362z" class="cls-53"/><path d="M332.878 292.318a10.655 10.655 0 0 1 4.204-.469c-1.314.942-2.803.316-4.204.469z" class="cls-92"/><path fill="#fefefe" d="M500.986 171.941c-.135 13.836-2.102 26.195-8.194 37.577-9.694 18.112-25.004 27.379-45.41 28.214-16.704.683-31.318-4.336-42.804-16.863-9.021-9.84-13.496-21.8-15.193-34.863-1.946-14.986-1.055-29.702 4.812-43.84 9.297-22.402 30.304-34.838 54.483-33.255 26.307 1.722 45.152 19.085 50.667 46.673a110.552 110.552 0 0 1 1.639 16.357zm-352.768 28.723c2.238-11.914 4.294-22.968 6.393-34.013 3.538-18.61 7.13-37.211 10.606-55.833.298-1.6.776-2.152 2.417-2.141 10.234.065 20.469.033 31.092.033-1.46 5.89-2.857 11.597-4.288 17.296q-13.65 54.366-27.278 108.737c-.473 1.893-1.067 2.718-3.283 2.686-10.833-.156-21.67-.177-32.503.005-2.65.045-3.498-.888-4.11-3.278q-14.599-57.029-29.359-114.016c-.961-3.727-1.916-7.455-2.938-11.43 11.206 0 22.131.04 33.055-.037 1.884-.013 1.74 1.31 1.948 2.349q4.58 22.766 9.086 45.547 4.189 21.023 8.402 42.04a19.654 19.654 0 0 0 .76 2.055zm117.3-25.524c0-15.635-.047-28.453.048-41.27.015-2.008-.354-2.763-2.537-2.646-3.765.2-7.554-.062-11.323.101-2.1.091-2.946-.286-2.86-2.684.208-5.756.151-11.526.022-17.286-.045-2.017.408-2.803 2.589-2.696 3.766.184 7.555-.079 11.322.101 2.148.103 2.84-.368 2.805-2.7-.152-10.33.037-20.668-.138-30.999-.044-2.586.732-3.035 3.118-2.996 9.04.15 18.085.131 27.125.01 2.241-.03 3.038.428 3.002 2.878-.15 10.331 0 20.667-.115 31-.024 2.154.392 2.925 2.727 2.82 4.66-.212 9.342.057 14.005-.118 2.086-.078 2.471.69 2.442 2.542-.093 5.96-.122 11.925.015 17.884.046 1.958-.654 2.276-2.392 2.237-4.966-.11-9.936.006-14.904-.068-1.38-.02-1.881.284-1.874 1.789.114 23.643.052 47.288.296 70.93.082 7.96 3.362 10.707 11.392 10.72 1.093.001 2.188.04 3.278-.02 4.155-.234 4.155-.246 4.155 3.807 0 5.564.007 11.129-.007 16.693-.003 1.042.301 2.231-1.504 2.21-9.715-.118-19.39 1.098-29.151.268-13.135-1.117-19.469-5.333-20.93-21.538-1.313-14.573-.252-29.192-.606-40.968zm90.374-50.02c3.69-4.924 7.214-9.736 11.917-13.614 6.694-5.518 14.462-6.526 22.719-5.848 1.188.098 1.465.638 1.463 1.714-.026 9.542-.045 19.085.015 28.628.01 1.508-.634 1.427-1.79 1.389-4.951-.167-9.907-.668-14.848.36-11.475 2.391-17.98 10.32-17.986 22.112-.01 24.652-.075 49.304.087 73.955.02 3.16-.918 3.67-3.768 3.61-8.942-.185-17.892-.135-26.837-.018-2.101.028-2.642-.574-2.639-2.647q.088-61.73 0-123.459c-.003-2.08.55-2.67 2.644-2.642q13.268.176 26.54.004c1.937-.023 2.582.473 2.525 2.458-.133 4.662-.042 9.331-.042 13.997zM240.17 173.057c0 20.47-.038 40.94.054 61.409.011 2.338-.587 2.988-2.948 2.951-9.14-.144-18.283-.108-27.424-.019-1.94.02-2.749-.293-2.745-2.531q.106-61.856.01-123.712c-.003-1.954.52-2.512 2.483-2.49 9.24.1 18.483.141 27.722-.02 2.453-.043 2.906.75 2.897 3.003-.082 20.47-.048 40.94-.048 61.409zm-16.379-73.989a16.404 16.404 0 1 1 16.38-16.444 16.24 16.24 0 0 1-16.38 16.444z"/><path d="M422.437 173.142c.348-7.875.618-15.702 3.505-23.144 3.471-8.946 9.671-13.267 19.066-13.25 9.093.015 15.234 4.385 18.573 13.422 3.402 9.212 3.49 18.828 3.132 28.463-.263 7.062-1.193 13.999-4.282 20.494-3.481 7.323-9.402 10.797-17.326 10.855-8.112.06-14.378-3.237-18.025-10.771-4.002-8.27-4.293-17.194-4.643-26.07z"/></svg>