<svg xmlns="http://www.w3.org/2000/svg" role="img" viewBox="-2.00 -2.13 156.00 46.50"><title>Volterra logo</title><path fill="#34daa6" d="M21.369.911a20.3 20.3 0 1 0 20.3 20.3 20.315 20.315 0 0 0-20.3-20.3zm1.5 29h-3.1l-6.7-16.6h1.3a4.132 4.132 0 0 1 3.7 2.5l3.2 8.1 3.2-8.1a3.924 3.924 0 0 1 3.7-2.5h1.3zm42.2-22.8h3.7l-5.9 17.5h-4l-6-17.5h3.7l3.3 10.4q.3.9.6 2.1c.2.8.3 1.4.4 1.7q.15-1.05.9-3.9zm17.3 10.8a7.293 7.293 0 0 1-1.7 5.1 6.186 6.186 0 0 1-4.8 1.8 7.416 7.416 0 0 1-3.4-.8 6.619 6.619 0 0 1-2.3-2.4 8.744 8.744 0 0 1-.8-3.7 7.293 7.293 0 0 1 1.7-5.1 6.186 6.186 0 0 1 4.8-1.8 7.416 7.416 0 0 1 3.4.8 6.619 6.619 0 0 1 2.3 2.4 8.744 8.744 0 0 1 .8 3.7zm-9.2 0a5.129 5.129 0 0 0 .7 3 2.705 2.705 0 0 0 4.2 0 6.122 6.122 0 0 0 .6-3 6.122 6.122 0 0 0-.6-3 2.705 2.705 0 0 0-4.2 0 5.129 5.129 0 0 0-.7 3zm15.9 6.7h-3.6v-18.6h3.6zm9.4-2.7a7.395 7.395 0 0 0 2.3-.4v2.7a8.11 8.11 0 0 1-3.3.6 4.26 4.26 0 0 1-3.2-1.1 4.503 4.503 0 0 1-1-3.3v-6.4h-1.7v-1.5l2-1.2 1.1-2.8h2.3v2.8h3.7v2.7h-3.7v6.4a1.246 1.246 0 0 0 .4 1.1 1.366 1.366 0 0 0 1.1.4zm11.1 2.9a6.655 6.655 0 0 1-5-1.8 6.81 6.81 0 0 1-1.8-5 7.562 7.562 0 0 1 1.7-5.2 6.025 6.025 0 0 1 4.6-1.8 5.67 5.67 0 0 1 4.4 1.6 6.484 6.484 0 0 1 1.6 4.5v1.8h-8.6a3.097 3.097 0 0 0 3.3 3.3 8.524 8.524 0 0 0 2.3-.3 9.75 9.75 0 0 0 2.2-.8v2.8a6.789 6.789 0 0 1-2 .7 19.938 19.938 0 0 1-2.7.2zm-.5-11.2a2.14 2.14 0 0 0-1.8.7 4.03 4.03 0 0 0-.8 2.1h5.1a3.3 3.3 0 0 0-.7-2.1 2.268 2.268 0 0 0-1.8-.7zm16.4-2.6a4.12 4.12 0 0 1 1.2.1l-.3 3.4a3.75 3.75 0 0 0-1.1-.1 3.667 3.667 0 0 0-2.7.9 3.04 3.04 0 0 0-1 2.5v6.8h-3.6v-13.4h2.8l.5 2.2h.2a4.898 4.898 0 0 1 1.7-1.8 4.383 4.383 0 0 1 2.3-.6zm11.1 0a4.12 4.12 0 0 1 1.2.1l-.3 3.4a3.75 3.75 0 0 0-1.1-.1 3.667 3.667 0 0 0-2.7.9 3.04 3.04 0 0 0-1 2.5v6.8h-3.6v-13.4h2.8l.5 2.2h.2a4.898 4.898 0 0 1 1.7-1.8 4.645 4.645 0 0 1 2.3-.6zm11.7 13.6l-.7-1.8h-.1a4.662 4.662 0 0 1-1.9 1.6 6.25 6.25 0 0 1-2.5.4 4.081 4.081 0 0 1-3-1.1 4.331 4.331 0 0 1-1.1-3.1 3.39 3.39 0 0 1 1.5-3.1 8.723 8.723 0 0 1 4.5-1.1l2.3-.1v-.6c0-1.4-.7-2-2.1-2a8.955 8.955 0 0 0-3.8 1l-1.2-2.5a10.667 10.667 0 0 1 5.1-1.2 6.082 6.082 0 0 1 4.1 1.2 4.279 4.279 0 0 1 1.4 3.6v8.9h-2.5zm-1.1-6.2h-1.4a3.845 3.845 0 0 0-2.4.6 1.943 1.943 0 0 0-.8 1.6q0 1.5 1.8 1.5a2.724 2.724 0 0 0 2-.7 2.56 2.56 0 0 0 .8-1.9v-1.1z"/><path fill="#878e9c" d="M59.869 37.411h-3.7v-6.4h3.7v1.1h-2.3v1.4h2.2v1.1h-2.2v1.7h2.3zm9.1-3.3a2.953 2.953 0 0 1-.9 2.4 3.537 3.537 0 0 1-2.6.8h-1.8v-6.4h2a3.464 3.464 0 0 1 2.4.8 3.244 3.244 0 0 1 .9 2.4zm-1.4 0q0-2.1-1.8-2.1h-.7v4.2h.6c1.2.1 1.9-.6 1.9-2.1zm7-.3h2.5v3.3l-1.2.3a4.102 4.102 0 0 1-1.1.1 2.656 2.656 0 0 1-2.2-.9 3.742 3.742 0 0 1-.8-2.5 3.244 3.244 0 0 1 .9-2.4 3.328 3.328 0 0 1 2.5-.9 4.058 4.058 0 0 1 1.9.4l-.5 1.1a4.19 4.19 0 0 0-1.5-.4 1.678 1.678 0 0 0-1.4.6 3.073 3.073 0 0 0-.1 3.2 1.425 1.425 0 0 0 1.2.6 2.769 2.769 0 0 0 .9-.1v-1.3h-1.2v-1.1zm10.2 3.6h-3.7v-6.4h3.7v1.1h-2.3v1.4h2.2v1.1h-2.2v1.7h2.3zm12.9-1.8a1.816 1.816 0 0 1-.6 1.4 2.86 2.86 0 0 1-1.7.5 3.425 3.425 0 0 1-1.8-.4v-1.3a7.596 7.596 0 0 0 1.1.4 2.485 2.485 0 0 0 .8.1 1.445 1.445 0 0 0 .7-.2c.2-.1.2-.3.2-.5a.367.367 0 0 0-.1-.3l-.3-.3a5.561 5.561 0 0 0-.8-.4c-.4-.2-.7-.4-.9-.5a1.47 1.47 0 0 1-.5-.6 1.884 1.884 0 0 1-.2-.8 1.486 1.486 0 0 1 .6-1.3 2.545 2.545 0 0 1 1.6-.5 3.402 3.402 0 0 1 1 .1c.3.1.6.2 1 .3l-.4 1.1-.9-.3a1.483 1.483 0 0 0-.7-.1.845.845 0 0 0-.6.2.764.764 0 0 0-.2.5.367.367 0 0 0 .1.3c.1.1.1.2.3.3.1.1.4.2.9.5a3.092 3.092 0 0 1 1.2.9 1.69 1.69 0 0 1 .2.9zm7.5 1.8h-3.7v-6.4h3.7v1.1h-2.3v1.4h2.2v1.1h-2.2v1.7h2.3zm5.5-2.5v2.5h-1.4v-6.4h1.9a3.09 3.09 0 0 1 1.9.5 1.885 1.885 0 0 1 .3 2.4 2.178 2.178 0 0 1-.9.7c1 1.4 1.6 2.4 1.9 2.8h-1.5l-1.5-2.5zm0-1.1h.4a2.958 2.958 0 0 0 1-.2.779.779 0 0 0 .3-.7.908.908 0 0 0-.3-.7 2.151 2.151 0 0 0-1-.2h-.4zm10.5-2.8h1.4l-2.2 6.4h-1.5l-2.2-6.4h1.4l1.2 3.8c.1.2.1.5.2.8a1.76 1.76 0 0 1 .1.6 5.823 5.823 0 0 1 .3-1.4zm4.8 6.4v-6.4h1.4v6.4zm8.1-5.4a1.425 1.425 0 0 0-1.2.6 2.537 2.537 0 0 0-.4 1.6c0 1.4.5 2.1 1.6 2.1a4.973 4.973 0 0 0 1.6-.3v1.1a4.844 4.844 0 0 1-1.8.3 2.583 2.583 0 0 1-2.1-.9 3.612 3.612 0 0 1-.7-2.4 3.425 3.425 0 0 1 .4-1.8 2.587 2.587 0 0 1 2.6-1.6 4.486 4.486 0 0 1 1.9.5l-.4 1.1c-.2-.1-.5-.2-.7-.3s-.6 0-.8 0zm9.3 5.4h-3.7v-6.4h3.7v1.1h-2.3v1.4h2.2v1.1h-2.2v1.7h2.3zm7.6-1.8a1.816 1.816 0 0 1-.6 1.4 2.86 2.86 0 0 1-1.7.5 3.425 3.425 0 0 1-1.8-.4v-1.3a7.595 7.595 0 0 0 1.1.4 2.485 2.485 0 0 0 .8.1 1.445 1.445 0 0 0 .7-.2c.2-.1.2-.3.2-.5a.367.367 0 0 0-.1-.3l-.3-.3a5.562 5.562 0 0 0-.8-.4c-.4-.2-.7-.4-.9-.5a1.47 1.47 0 0 1-.5-.6 1.884 1.884 0 0 1-.2-.8 1.486 1.486 0 0 1 .6-1.3 2.544 2.544 0 0 1 1.6-.5 3.402 3.402 0 0 1 1 .1c.3.1.6.2 1 .3l-.4 1.1-.9-.3a1.483 1.483 0 0 0-.7-.1.845.845 0 0 0-.6.2.764.764 0 0 0-.2.5.367.367 0 0 0 .1.3c.1.1.1.2.3.3.1.1.4.2.9.5a3.092 3.092 0 0 1 1.2.9 1.69 1.69 0 0 1 .2.9z"/></svg>