<svg xmlns="http://www.w3.org/2000/svg" role="img" viewBox="-10.67 -10.67 554.84 269.84"><defs><style>.cls-1{fill:#020202}.cls-2{fill:#fe802c}</style></defs><path d="M0 7.456a3.272 3.272 0 0 1 1.762-.4 191.67 191.67 0 0 0 28.48.011c2.056-.157 1.856 1.323 2.133 2.336 3.297 12.046 6.502 24.117 9.773 36.17 9.634 35.505 22.173 70.047 34.655 104.609a4.65 4.65 0 0 0 .447.73c.93-.349.925-1.215 1.187-1.892 12.633-32.636 23.042-66.022 33.537-99.38q6.3-20.026 11.603-40.336c.495-1.91 1.138-2.204 3.023-2.014a59.241 59.241 0 0 0 13.032-.063c1.962-.237 2.628-.182 1.75 2.06-21.75 55.576-41.36 111.927-60.943 168.287-.689 1.982-1.564 2.344-3.573 2.207a80.537 80.537 0 0 0-11.973.033c-2.124.174-2.853-.404-3.465-2.326-12.32-38.727-25.85-77.042-39.518-115.308C15.475 44.164 7.097 26.925.517 8.965c-.068-.186-.34-.297-.518-.443z" class="cls-1"/><path d="M160.49 248.991c-.213-1.07.465-1.86.877-2.725 9.698-20.352 18.514-41.072 26.146-62.294a7.521 7.521 0 0 0 0-5.371c-13.393-38.632-27.666-76.94-42.295-115.118-1.308-3.414-1.25-3.363 2.526-3.071a96.898 96.898 0 0 0 18.88-.079c2.503-.296 3.32.493 3.982 2.774 8.549 29.475 17.872 58.7 28.746 87.412.218.576.457 1.144.686 1.717.778-.019.802-.62.967-1.06 10.56-28.247 20.62-56.663 28.907-85.678.461-1.616.522-3.58 1.514-4.75 1.18-1.393 3.132.122 4.775-.016 2.648-.222 5.317.168 7.974-.298 2.979-.522 3.205-.196 2.105 2.571-6.453 16.237-13.119 32.392-19.321 48.724-13.192 34.735-27.045 69.228-38.865 104.471-3.44 10.254-6.46 20.648-9.658 30.982a16.403 16.403 0 0 0-.351 1.81h-3.2a26.288 26.288 0 0 0-10.663 0z" class="cls-2"/><path d="M420.636 93.497c-.145 19.388-3.562 37.986-14.027 54.673-13.497 21.523-32.948 33.411-58.39 35.342-18.017 1.367-35.002-1.796-50.43-11.547-15.051-9.512-24.764-23.308-30.18-39.966-9.492-29.197-9.219-58.333 3.968-86.358 12.1-25.719 33.13-39.507 61.446-42 17.003-1.497 33.282 1.06 48.325 9.514 17.482 9.825 28.12 25.036 34.015 43.87a120.021 120.021 0 0 1 5.273 36.472zm-133.737-1.605a182.874 182.874 0 0 0 1.031 20.373c1.314 12.181 4.346 23.853 10.11 34.756 17.202 32.539 58.638 32.593 77.978 10.967 8.53-9.537 13.073-20.99 15.869-33.219 3.496-15.292 3.87-30.807 2.506-46.368-1.09-12.45-3.85-24.511-9.376-35.815-11.291-23.096-33.868-33.752-57.822-27.112-16.05 4.449-25.977 15.6-32.263 30.463-6.416 15.171-7.837 31.209-8.033 45.955zm225.196 45.902c.38-12.144-5.982-22.229-17.727-29.352-7.437-4.51-15.308-8.196-22.906-12.399-19.913-11.014-26.885-28.179-24.87-48.901 1.585-16.32 9.012-29.156 23.683-37.196 9.547-5.232 19.92-6.738 30.654-6.077a77.723 77.723 0 0 1 27.343 7.274c1.5.678 1.893 1.271 1.302 2.946a111.904 111.904 0 0 0-4.729 20.436c-.307 2.006-1.416 1.768-2.683 2.047-1.658.365-1.92-.69-2.257-1.835a33.879 33.879 0 0 0-3.706-8.207c-6.478-10.54-16.325-13.831-28.82-11.453-10.687 2.035-17.903 10.772-19.347 22.32a42.94 42.94 0 0 0 .869 15.858c2.068 8.302 7.33 14.213 14.332 18.775a67.17 67.17 0 0 0 8.646 4.67c6.447 2.966 12.672 6.338 18.797 9.918 13.55 7.92 20.976 19.69 22.642 35.255 1.34 12.52-.442 24.469-6.56 35.534-8.44 15.268-21.669 23.61-38.86 25.462-14.777 1.592-28.948-1.208-42.594-6.97-2.3-.972-3.099-2.313-2.753-4.834 1.074-7.828 2.432-15.603 3.795-23.382.342-1.952 1.777-1.554 2.947-1.884 1.565-.442 1.493.875 1.746 1.696a53.537 53.537 0 0 0 3.027 7.648c6.743 13.859 19.931 17.642 32.957 16.275 16.958-1.78 25.331-15.312 25.072-33.624z" class="cls-1"/><path d="M145.388 54.16c-1.387-15.77 2.618-29.84 13.867-41.23 19.102-19.34 49.091-16.608 64.763 5.67 7.173 10.198 10.053 21.558 9.253 33.994-2.507-13.306-8.702-24.282-20.083-31.949a41.248 41.248 0 0 0-24.354-7.246 42.277 42.277 0 0 0-29.26 12.197c-8.121 7.797-12.475 17.494-14.186 28.565z" class="cls-2"/></svg>