<svg xmlns="http://www.w3.org/2000/svg" role="img" viewBox="-7.17 -6.92 359.84 87.59"><title>Wanxiang Group logo</title><defs><style>.cls-1,.cls-2{fill:#00378b}.cls-1{fill-rule:evenodd}</style></defs><path d="M30.918 9.004c-12.746 4.625-21.73 15.313-21.73 27.84a27.71 27.71 0 0 0 8.308 19.453v12.46A37.504 37.504 0 0 1 0 36.848C0 18.232 13.516 2.962 30.75.31 30.75.02 52.266 0 54.129 0c.367 11.533.633 23.126.633 34.654.191 13.277-14.071 17.19-14.211 17.1l-8.797-5.506C44.5 43.16 44.063 36.176 44.832 34.977c.199.137-.281-26.22-.289-26.082z" class="cls-1"/><path d="M43.012 64.993c12.746-4.63 21.726-15.317 21.726-27.844a27.681 27.681 0 0 0-8.308-19.45V5.236a37.5 37.5 0 0 1 17.5 31.914c0 18.613-13.516 33.883-30.754 36.539 0 .285-21.516.305-23.375.305-.367-11.532-.633-23.125-.633-34.65-.191-13.28 14.07-17.194 14.211-17.104l8.797 5.51c-13 3.486-13.082 11.267-13.082 11.267-.016-.137.043 22.664.293 26.086zM85.48 49.969h5.219l4.61 10.813 1.632-3.282-3.367-7.531h4.981l5.191 10.93 4.883-10.93h2.562l-8.679 19.106-4.067-8.262-4.871 8.648zm30.473-.215l-9.191 19.493h2.086l2.746-5.164h7.219l2.707 4.949h5.093zm-3.808 12.996l2.82-5.722 3.262 5.722zm68.281-12.695l-9.192 19.496h2.086l2.746-5.164h7.215l2.731 5.16h5.09zm-3.809 12.996l2.821-5.722 3.257 5.722zm15.199-12.476v19h2.344V55.329l12.453 14.332h2.297V50.657h-2.629v11.789l-10.41-11.871zm-64.433-.22v18.419h2.16V54.918l12.602 13.942h2.195V50.446h-2.195v12.176l-10.809-12.266zm23.57.392h-5.422l7.196 9.328-7.379 8.707h2.535l6.215-6.821 6.414 7.598h5.07l-8.691-11.027 6.586-7.957h-2.864l-5.047 6.109zm19.613 18.886V50.575h-4.429v19.058zm59.227-15.36s-1.793-3.96-8.934-4.218c-1.504-.051-11.004.387-10.812 10.285.043 2.067 2.129 9.766 11.25 9.555 1.906-.047 6.848-.734 9.742-3.23v-6.926h-5.016v6.883s.036.777-.992 1.164c-1.023.386-11.168 2.925-11.097-8.09.015-2.196 1.054-7.531 7.168-7.79a9.483 9.483 0 0 1 7.703 3.399zm35.309 0s-1.793-3.96-8.934-4.218c-1.504-.051-11 .387-10.809 10.285.039 2.067 2.129 9.766 11.246 9.555 1.907-.047 6.852-.734 9.743-3.23v-6.926h-5.016v6.883s.035.777-.988 1.164c-1.028.386-11.172 2.925-11.098-8.09.012-2.196 1.051-7.531 7.168-7.79a9.49 9.49 0 0 1 7.703 3.399zm15.386 6.712s5.02.258 5.129-4.602a4.93 4.93 0 0 0-3.957-5.336h-11.719V70.54h4.942v-9.985l6.375 9.899h5.273zm-2.675-1.117h-2.965v-7.36h3.332a3.55 3.55 0 0 1 2.929 3.442c.075 3.96-3.296 3.918-3.296 3.918zm19.859-9.196c-6.086 0-11.024 4.282-11.024 9.555 0 5.277 4.938 9.555 11.024 9.555s11.023-4.278 11.023-9.555c0-5.273-4.937-9.555-11.023-9.555zm0 17.442c-3.805 0-6.891-3.571-6.891-7.973s3.086-7.973 6.891-7.973 6.891 3.57 6.891 7.973-3.086 7.973-6.891 7.973zm17.512-17.367h-4.11v14.242s-.625 5.465 8.641 5.55c1.394.012 6.191-.95 6.633-4.304v-15.32h-2.2v15.234s-.621 2.41-4.578 2.453c-1.289.016-4.617-.816-4.394-4.176zm22.078.472h-8.789v19.449h4.687V62.02h5.676c4.578-.477 5.281-3.918 5.277-5.078-.039-5.207-6.851-5.723-6.851-5.723zm-.805 9.594h-3.371v-8.02h3.187c2.012 0 3.114 2.254 3.075 4.192-.035 2.019-1.649 3.828-2.891 3.828zM83.816 47.602h261.957V72.82H83.816zm52.7-45.137V.852h-11.375v1.613h-21.676V.852H92.09v1.613h-7.797v4.739h7.797V8.96h-7.184v17.33h10.742V9.309h1.93v4.926h11.176v2.09H97.578v3.383h11.176v1.89H97.527v4.774h11.227v1.894H96.281v4.973h12.473v2.586h-10.68v5.472h22.653V9.309h-17.262V7.204h21.676v2.254h-2.34v4.894h10.433v2.07h-10.433v3.383h10.433v2.09h-10.433v4.578h18.441a3.496 3.496 0 0 0 2.613-2.488v-9.633h.004V9.458h-7.343V7.204h8.867v-4.74z" class="cls-1"/><path d="M83.906 28.165h10.578v15.82H83.906z" class="cls-2"/><path d="M144.973 28.266h-4.391v-.101h-17.781v5.074h10.297v4.01h-3.391v-2.717h-6.906v6.867h4.562v2.453h14.914c2.993-.793 2.696-2.852 2.696-2.852zM173.605 2.79s-1.332.152-.699-1.082L173.441.7h-14.402a32.101 32.101 0 0 1-2.094 3.98c-.601.699-1.097 2.289-5.375 1.89v8.36h1.684v29.438h13.566V11.403h34.325v25.816h-5.29v6.996h12.575s4.187-.726 4.687-3.613V2.79z" class="cls-1"/><path d="M170.066 14.434h10.324v24.402h-10.324z" class="cls-2"/><path d="M197.078 21.598v-7.015H182.41v7.015h5.09v10.37h-5.164v6.943h10.18a6.336 6.336 0 0 0 4.562-5.153zM223.945.438s.821 4.293-3.668 4.516v5.3h1.047v16.012h11.375V.403z" class="cls-1"/><path d="M250.957.18v1.641h-16.164v4.031h16.164v2.836h-16.164v4.027h16.164v2.539h-16.164v4.477h16.164v2.238h-16.164v4.328h9.355v1.832h-23.871v4.555h23.871v11.301h13.02V26.372h5.762V.18h-11.973z" class="cls-1"/><path d="M240.258 34.208h-13.473s-1.195 1.57-1.644 2.089c-.45.524-.672 1.418-3.071 1.196a15.476 15.476 0 0 0-1.976-.035v6.453h8.64s2.993.297 6.286-2.836a74.068 74.068 0 0 0 5.238-6.867zm20.222-.168h12.008s2.043 3.152 2.492 3.675c.446.524 1.27 1.047 3.567.95.973-.043 2.508-.008 2.508-.008l.031 5.37-8.91-.03a7.057 7.057 0 0 1-6.625-2.325c-1.309-1.601-5.071-7.632-5.071-7.632z" class="cls-1"/><path d="M259.34 28.239h21.461v4.179H259.34zm6.098-6.196h15.363v4.407h-15.363zm0-6.64h15.363v4.476h-15.363zm0-6.883h15.363v4.629h-15.363zm0-7.148h15.363v4.703h-15.363z" class="cls-2"/><path d="M341.629 43.836h-53.246V1.262h33.215v27.352h-23.047v-3.36h14.293v-1.27h-4.039v-3.132h4.039v-1.344h-4.114V16.82h4.114v-1.715h-4.114V12.27h4.114v-1.72h-14.293V6.896h14.293V5.778h-15.192v33.207h38.465V5.778h-12.496V1.262h21.551v38.844s-.25 3.78-3.543 3.73z" class="cls-1"/><path d="M299.223 12.196h8.16v11.863h-8.16z" class="cls-2"/><path d="M298.625 32.938h25.09v2.242h-4.586v2.586h11.75a2.548 2.548 0 0 0 2.019-2.437v-1.793h1.516V29.73h-1.516v-1.043h1.516v-5.102l-2.301-.011.004-.297a2.47 2.47 0 0 0 2.297-1.981v-8.992h-10.699v2.875h2.973v1.715h-2.973v2.613h2.973v1.344h-2.973v3.28h5.367v.9h-5.367v4.55h-25.09z" class="cls-1"/><path d="M323.695 7.118h10.719v3.957h-10.719z" class="cls-2"/><path d="M311.945 34.36h-11s1.012 3.332 2.731 3.406c1.722.074 13.086 0 13.086 0l-.028-2.586h-3.89z" class="cls-1"/></svg>