<svg xmlns="http://www.w3.org/2000/svg" role="img" xmlns:xlink="http://www.w3.org/1999/xlink" viewBox="-6.95 59.80 413.66 125.16"><title>Western Digital logo</title><style>svg {enable-background:new 0 0 400 245}</style><style>.st4{fill:#fff}</style><path fill="#0067a6" d="M182.88 162.94c0 6.25-5.07 11.31-11.31 11.31H12.46c-6.24 0-11.31-5.06-11.31-11.31V79.25c0-6.25 5.06-11.31 11.31-11.31h159.11c6.25 0 11.31 5.06 11.31 11.31v83.69z"/><path d="M101.64 104.61l4.15-12.06H89.47l-3.84 12.06zm-26.23-.01l-1.27-12.05H61.65l-6.37 12.05zm8.69 4.81l-6.15 19.3-2.07-19.58-22.58-.8-10.14 19.18 2.88-19.44-15.67-.55-4.56 41.02h21.54l16.45-33.28 3.35 33.28h19.36l13.28-38.57zm-37.54-4.81l1.81-12.25H32.05l-1.36 12.24z" class="st4"/><path d="M140.84 92.55h-30.87l-4.02 12.06 27.85.01c7.68.2 11.46 6.49 8.86 14.26-2.64 7.89-10.35 13.87-19.12 14.29-2.25.11-3.03.36-6.24.1l7.6-22.42-20.78-.73-12.81 38.42h30.87c15.52 0 32.53-12.25 37.77-28 5.25-15.74-3.51-27.99-19.11-27.99z" class="st4"/><path fill="#231f20" d="M218.51 76.77h9.83l7.07 30.48h.11l6.51-30.48h8.31l-10.33 40.53h-9.66l-7.3-30.87h-.11l-7.86 30.87h-9.88l-9.88-40.53h8.98l6.23 30.48h.11l7.87-30.48zm38.15 28.69c0 3.65.5 7.07 4.82 7.07 2.92 0 4.38-1.07 5.17-3.65h7.58c-.73 6.96-6.18 9.26-12.74 9.26-9.65 0-13.53-5.45-13.53-14.88 0-8.48 4.94-14.99 13.53-14.99 5.28 0 9.66 1.79 12.01 6.73.79 1.57 1.18 3.26 1.4 5.05.22 1.74.22 3.54.22 5.39h-18.46zm9.76-5.61c0-3.09-.84-5.95-4.94-5.95-3.87 0-4.71 2.86-4.82 5.95h9.76zm27.01-3.2c-.11-1.91-1.91-2.75-3.82-2.75-2.3 0-3.37.67-3.37 2.52 0 4.44 16.11 1.91 16.11 12.46 0 6.17-7.52 9.26-12.74 9.26-6.57 0-12.29-2.58-12.4-9.04h7.8c.17 2.19 2.13 3.42 4.6 3.42 2.3 0 4.04-.95 4.04-3.14 0-2.24-4.04-3.2-5.73-3.59-5.39-1.29-10.38-2.47-10.38-9.04 0-5.89 7.13-8.48 12.07-8.48 5.95 0 11 2.13 11.39 8.36h-7.57zM306 89.12v-5.56l8.42-3.03v8.59h6.34v5.62h-6.34v13.08c0 3.7.56 4.72 3.48 4.72.9 0 1.8-.11 2.7-.17v4.94c-.96.45-5.45.84-6.62.84-6.57 0-7.97-3.42-7.97-9.54V94.74h-3.1v-5.62H306zm24.36 16.34c0 3.65.51 7.07 4.83 7.07 2.92 0 4.38-1.07 5.16-3.65h7.58c-.73 6.96-6.18 9.26-12.74 9.26-9.65 0-13.53-5.45-13.53-14.88 0-8.48 4.94-14.99 13.53-14.99 5.28 0 9.65 1.79 12.01 6.73.79 1.57 1.18 3.26 1.4 5.05.23 1.74.23 3.54.23 5.39h-18.47zm9.77-5.61c0-3.09-.84-5.95-4.94-5.95-3.88 0-4.72 2.86-4.83 5.95h9.77zm25.91-3.6c-1.4.11-3.25.9-4.1 2.08-.9 1.57-1.07 3.14-1.12 5v13.98h-8.36l-.06-22.56c0-1.18-.17-3.54-.28-5.62h7.69l.17 5.11h.11c1.8-4.43 5.39-5.56 9.6-5.44l-3.65 7.45zm14.23-3.87l.11.17c1.74-2.58 4.38-4.27 8.64-4.27 2.81 0 8.25 2.07 9.26 6.17.45 1.74.56 3.54.56 4.49v18.35h-8.42v-16.95c-.06-3.03-.9-6.46-5.05-6.46-2.64 0-4.94 2.36-5.05 6.46v16.95h-8.42V89.12h8.36v3.26zm-181.85 33.04h13.81c12.63-.11 20.49 6.17 20.49 20.26 0 14.09-7.86 20.38-20.49 20.26h-13.81v-40.52zm8.7 33.79h4.49c10.33.11 11.84-7.07 11.84-13.53 0-6.45-1.52-13.64-11.84-13.53h-4.49v27.06zm38.11-33.79v7.24h-8.98v-7.24h8.98zm-.28 12.35v28.18h-8.42v-28.18h8.42zm31.55 25.65c0 6.57-1.46 13.76-13.81 13.64-6.23 0-12.91-1.51-13.08-9.09h7.97c.11 2.53 2.36 3.48 4.66 3.48 6.4 0 6.17-5.84 5.84-9.94h-.11c-1.74 2.75-4.72 3.87-7.91 3.87-7.64 0-11.56-7.19-11.56-14.03 0-7.19 4.1-14.43 11.96-14.43 3.76 0 6.18 1.23 7.52 4.1h.11v-3.25h8.42v25.65zm-13.86-3.64c4.6 0 5.45-4.72 5.45-8.37 0-4.15-.84-8.87-5.45-8.87-4.6 0-5.44 4.72-5.44 8.87-.01 3.65.83 8.37 5.44 8.37zm27.58-34.36v7.24h-8.98v-7.24h8.98zm-.28 12.35v28.18h-8.42v-28.18h8.42zm6.12 0v-5.56l8.42-3.03v8.59h6.34v5.61h-6.34v13.08c0 3.7.56 4.72 3.48 4.72.9 0 1.8-.11 2.69-.17v4.94c-.95.45-5.44.84-6.62.84-6.57 0-7.97-3.42-7.97-9.54v-13.87h-3.33v-5.61h3.33zm18.02 7.97c.05-3.54 1.57-5.72 3.82-7.02 2.3-1.35 5.28-1.8 8.31-1.8 5.67 0 12.01 2.08 12.01 10.55v15.38c.06 1.4.28 2.24.39 3.08h-7.58c-.17-1.29-.28-2.58-.28-3.76h-.11c-1.91 3.26-4.83 4.6-8.65 4.6-5.28 0-9.21-3.03-9.21-8.53 0-1.96.9-6.74 6.01-8.93 3.37-1.46 7.63-1.63 11-1.51v-2.64c0-1.18-.9-3.48-3.87-3.48-2.92 0-3.87 2.75-3.76 4.04h-8.08zm6.79 11.4c0 2.35 1.74 4.04 4.1 4.04 4.66 0 4.83-5.16 4.83-8.48-2.92-.05-8.93-.11-8.93 4.44zm31-31.72v40.53h-8.42v-40.53h8.42z"/><path d="M356.15 130.15c0-3.36 2.73-6.09 6.13-6.09 3.38 0 6.09 2.73 6.09 6.09 0 3.4-2.71 6.13-6.09 6.13-3.4 0-6.13-2.73-6.13-6.13zm11.15 0c0-2.76-2.24-5.02-5.02-5.02-2.8 0-5.05 2.26-5.05 5.02 0 2.8 2.26 5.05 5.05 5.05 2.78.01 5.02-2.25 5.02-5.05zm-6.32.41v3.1h-1.12v-7.18h2.32c1.32 0 2.68.36 2.68 1.98 0 .83-.5 1.48-1.46 1.68v.03c.99.19 1.1.63 1.22 1.41.1.68.18 1.43.42 2.08h-1.43c-.08-.41-.19-.86-.25-1.28-.08-.62-.08-1.19-.41-1.53-.28-.29-.65-.26-1.04-.29h-.93zm1.19-1.12c1.05-.03 1.3-.47 1.3-1.03 0-.53-.25-.81-1.14-.81h-1.35v1.84h1.19z"/><g><defs><path id="SVGID_21_" d="M384.4 354.71c0-1.36-.26-2.71-.79-4.07-.53-1.36-1.3-2.58-2.32-3.67-1.02-1.09-2.32-2-3.9-2.71-1.58-.72-3.39-1.07-5.43-1.07-2.19 0-4.13.36-5.82 1.07-1.7.72-3.11 1.62-4.24 2.71-1.13 1.09-2 2.32-2.6 3.67-.6 1.36-.9 2.71-.9 4.07h26zm13.01 24.41l-1.87 1.86c-1.02 1.02-2.49 2.09-4.41 3.22-1.92 1.13-4.37 2.15-7.35 3.05-2.98.9-6.54 1.36-10.69 1.36-4.22 0-8.07-.72-11.54-2.15-3.47-1.43-6.43-3.41-8.88-5.93-2.45-2.52-4.34-5.56-5.66-9.1-1.32-3.54-1.98-7.46-1.98-11.75 0-3.92.66-7.55 1.98-10.91 1.32-3.35 3.17-6.27 5.54-8.76 2.38-2.49 5.2-4.45 8.48-5.88 3.28-1.43 6.92-2.15 10.91-2.15 4.83 0 8.92.89 12.27 2.66 3.36 1.77 6.05 4.09 8.09 6.95 2.04 2.86 3.51 6.1 4.41 9.72.9 3.62 1.36 7.31 1.36 11.08v1.92H358.5c0 1.96.43 3.73 1.3 5.31.87 1.58 2 2.94 3.39 4.07 1.4 1.13 2.98 2 4.75 2.6 1.77.6 3.53.9 5.26.9 2.56 0 4.81-.24 6.73-.73 1.92-.49 3.56-1.05 4.92-1.7 1.36-.64 2.47-1.32 3.34-2.03.87-.72 1.53-1.3 1.98-1.75l7.24 8.14zm-77.86-33.79c-1.06-.38-2.15-.66-3.28-.85-1.13-.19-2.9-.28-5.32-.28-2.71 0-5.09.45-7.13 1.36-2.04.9-3.77 2.11-5.2 3.62-1.43 1.51-2.51 3.26-3.22 5.26-.72 2-1.07 4.09-1.07 6.27 0 4.07 1.02 7.5 3.05 10.28 2.04 2.79 5.32 4.18 9.84 4.18 4.07 0 7.14-.87 9.22-2.6 2.07-1.73 3.11-4.48 3.11-8.25v-18.99zm-27.71 50.07c2.11 1.43 4.39 2.47 6.84 3.11s5.33.96 8.65.96c3.47 0 6.37-1.05 8.71-3.16 2.34-2.11 3.51-5.05 3.51-8.82v-5.76c-1.81 1.51-3.79 2.73-5.94 3.67s-5 1.41-8.54 1.41c-3.85 0-7.26-.64-10.24-1.92-2.98-1.28-5.52-3.07-7.63-5.37-2.11-2.3-3.71-5.01-4.81-8.14-1.09-3.13-1.64-6.57-1.64-10.34 0-3.92.7-7.61 2.09-11.08 1.4-3.47 3.39-6.48 5.99-9.04 2.6-2.56 5.75-4.58 9.44-6.05 3.69-1.47 7.84-2.2 12.44-2.2s8.84.38 12.72 1.13c3.88.75 7.03 1.54 9.44 2.37v51.54c0 3.69-.64 6.97-1.92 9.83s-3.05 5.27-5.32 7.23c-2.26 1.96-4.94 3.45-8.03 4.46-3.09 1.02-6.45 1.53-10.07 1.53-2.79 0-5.26-.13-7.41-.4-2.15-.26-4.07-.62-5.77-1.07-1.7-.45-3.24-1.02-4.64-1.7-1.4-.68-2.7-1.47-3.9-2.37l6.03-9.82zm-36.15-32.55c-1.36-.08-2.68-.15-3.96-.23-1.06-.08-2.17-.13-3.34-.17-1.17-.04-2.17-.06-3-.06-4.3 0-7.31.85-9.05 2.54-1.73 1.7-2.6 3.64-2.6 5.82 0 2.26.81 4.03 2.43 5.31 1.62 1.28 4.02 1.92 7.18 1.92 1.58 0 3.11-.26 4.58-.79 1.47-.53 2.77-1.24 3.9-2.15 1.13-.9 2.05-1.96 2.77-3.16.72-1.21 1.07-2.49 1.07-3.84v-5.19zm0 18.98c-1.43 1.73-3.62 3.28-6.56 4.63-2.94 1.36-6.22 2.03-9.84 2.03-2.19 0-4.35-.34-6.5-1.02-2.15-.68-4.11-1.71-5.88-3.11-1.77-1.39-3.2-3.18-4.3-5.37-1.09-2.18-1.64-4.75-1.64-7.69 0-3.01.57-5.71 1.7-8.08s2.71-4.37 4.75-5.99 4.49-2.84 7.35-3.67c2.87-.83 6.03-1.24 9.5-1.24 1.06 0 2.22.02 3.51.06 1.28.04 2.53.09 3.73.17 1.36.08 2.75.15 4.18.23v-1.24c0-2.64-1.06-4.71-3.17-6.22-2.11-1.51-4.86-2.26-8.26-2.26-3.77 0-6.79.49-9.05 1.47-2.26.98-4.26 2.03-5.99 3.16l-6.11-9.04c1.06-.75 2.26-1.53 3.62-2.32 1.36-.79 2.94-1.51 4.75-2.15 1.81-.64 3.9-1.17 6.28-1.58 2.38-.41 5.15-.62 8.31-.62 3.39 0 6.47.47 9.22 1.41 2.75.94 5.11 2.26 7.07 3.96 1.96 1.7 3.47 3.73 4.52 6.1 1.06 2.37 1.58 4.95 1.58 7.74v35.6h-12.44l-.33-4.96zm-79.07-21.81L157.4 333.8h16.85l10.63 15.37 10.75-15.37h15.04l-18.66 24.86 20.7 28.14h-16.85l-12.1-17.29-12.22 17.29H156.5l20.12-26.78z"/></defs><clipPath id="SVGID_2_"><use overflow="visible" xlink:href="#SVGID_21_"/></clipPath><g clip-path="url(#SVGID_2_)"><defs><path id="SVGID_23_" d="M-149.32-10.14h1395.97v785.23H-149.32z"/></defs><clipPath id="SVGID_4_"><use overflow="visible" xlink:href="#SVGID_23_"/></clipPath></g><g><defs><path id="SVGID_25_" d="M383.48 445.01h-2.01v-8.5l-7.39-11.23h2.51l5.94 9.56 6-9.56h2.34l-7.39 11.23v8.5zm-31.43 0h-2.01v-17.95h-6.61v-1.78h15.23v1.78h-6.61v17.95zm-26.66 0h-2.01v-19.74h2.01v19.74zm-31.79-10.96h3.49c1.62 0 2.86-.29 3.74-.88.87-.59 1.31-1.46 1.31-2.63 0-.65-.12-1.2-.36-1.64-.24-.45-.58-.81-1-1.09-.43-.28-.95-.48-1.56-.61-.61-.13-1.29-.2-2.04-.2h-3.57v7.05zm0 10.96h-2.01v-19.74h5.8c.97 0 1.86.09 2.69.28s1.54.49 2.15.91c.6.42 1.07.96 1.41 1.63.33.67.5 1.49.5 2.45 0 .72-.13 1.38-.39 1.98-.26.59-.61 1.11-1.06 1.55-.45.44-.98.79-1.59 1.05s-1.28.43-2.01.5l5.78 9.39h-2.46l-5.47-9.23h-3.35v9.23zm-29.62.5c-1.49 0-2.71-.26-3.65-.77-.95-.51-1.7-1.16-2.26-1.94-.56-.78-.94-1.63-1.16-2.55-.21-.92-.32-1.79-.32-2.61v-12.38h2.01v12.15c0 .8.09 1.58.28 2.33.19.75.49 1.42.91 2.01.42.59.97 1.06 1.66 1.42.69.36 1.53.54 2.54.54 1 0 1.85-.18 2.54-.54.69-.36 1.24-.84 1.66-1.42.42-.59.72-1.25.91-2.01.19-.75.28-1.53.28-2.33v-12.15h2.01v12.38c0 .82-.11 1.69-.32 2.61s-.6 1.77-1.16 2.55c-.56.78-1.32 1.43-2.27 1.94s-2.19.77-3.66.77zm-25.82-3.68c-.33.5-.74.98-1.21 1.42-.47.45-1.02.84-1.65 1.17-.62.33-1.31.6-2.06.79-.75.2-1.58.29-2.47.29-1.49 0-2.86-.26-4.13-.78-1.26-.52-2.35-1.24-3.26-2.16-.91-.92-1.62-2.01-2.13-3.28-.51-1.26-.77-2.65-.77-4.15 0-1.51.26-2.89.78-4.15s1.24-2.36 2.16-3.28c.92-.92 2.01-1.64 3.26-2.16 1.26-.52 2.62-.78 4.09-.78.73 0 1.44.07 2.13.22.7.15 1.35.36 1.97.63.61.27 1.17.59 1.67.98.5.38.92.81 1.26 1.3l-1.67 1.23c-.2-.32-.48-.63-.82-.95-.34-.32-.75-.59-1.21-.84-.46-.24-.97-.44-1.52-.59-.55-.15-1.14-.22-1.77-.22-1.28 0-2.43.23-3.45.7-1.01.46-1.87 1.09-2.58 1.88-.71.79-1.25 1.71-1.62 2.75s-.56 2.14-.56 3.29.19 2.25.57 3.29c.38 1.04.93 1.96 1.63 2.75.71.79 1.57 1.42 2.58 1.88 1.01.46 2.15.7 3.42.7 1.13 0 2.21-.23 3.24-.7 1.02-.46 1.88-1.21 2.57-2.23l1.55 1zm-46.22 1.4h10.57v1.78h-12.58v-19.74h12.25v1.78h-10.24v6.8h9.57v1.76h-9.57v7.62zm-23.26-14.78c-.43-.59-.98-1.07-1.65-1.44-.67-.36-1.48-.54-2.43-.54-.48 0-.98.07-1.48.22s-.96.38-1.37.68c-.41.31-.74.69-.99 1.16s-.38 1.01-.38 1.64c0 .63.12 1.15.36 1.56s.56.76.96 1.05c.4.29.86.53 1.37.71.51.19 1.05.37 1.6.56.69.22 1.38.46 2.08.72s1.33.6 1.88 1.02c.56.42 1.01.95 1.37 1.59.35.64.53 1.45.53 2.44s-.19 1.84-.57 2.55c-.38.72-.87 1.31-1.48 1.77-.6.46-1.29.81-2.06 1.03-.77.22-1.55.33-2.33.33-.6 0-1.19-.06-1.79-.18s-1.16-.3-1.7-.54c-.54-.24-1.04-.55-1.51-.92s-.87-.8-1.23-1.28l1.73-1.28c.43.71 1.03 1.3 1.8 1.77s1.68.71 2.72.71c.5 0 1.01-.08 1.53-.24.52-.16.99-.4 1.41-.72.42-.33.76-.72 1.03-1.2.27-.47.4-1.03.4-1.66 0-.69-.13-1.26-.4-1.71-.27-.46-.63-.84-1.07-1.14-.45-.31-.96-.56-1.53-.77-.58-.2-1.18-.41-1.81-.61-.65-.2-1.29-.44-1.93-.7s-1.2-.6-1.7-1.02c-.5-.42-.91-.93-1.21-1.55-.31-.61-.46-1.37-.46-2.26 0-.95.19-1.77.57-2.45.38-.69.88-1.25 1.49-1.7.61-.45 1.29-.77 2.04-.98.74-.2 1.48-.31 2.2-.31 1.34 0 2.48.24 3.43.71.95.47 1.66 1.04 2.15 1.69l-1.57 1.29z"/></defs><clipPath id="SVGID_6_"><use overflow="visible" xlink:href="#SVGID_25_"/></clipPath><g clip-path="url(#SVGID_6_)"><defs><path id="SVGID_27_" d="M-149.32-10.14h1395.97v785.23H-149.32z"/></defs><clipPath id="SVGID_8_"><use overflow="visible" xlink:href="#SVGID_27_"/></clipPath></g></g></g></svg>