<svg xmlns="http://www.w3.org/2000/svg" role="img" viewBox="-3.03 -0.03 261.82 128.82"><title>Wilderness Labs logo</title><style>svg {enable-background:new 0 0 257 130}</style><style>.st0{fill:#98a645}.st1{fill:#2e2825}</style><path d="M124.2 65.4L87.3 16.5l-75.1 99.4h73.9" class="st0"/><path d="M86.8 124h-80c-1.8 0-3.5-1-4.3-2.6s-.6-3.5.4-5L84.2 6.9C85.1 5.7 86.5 5 88 5s2.9.7 3.8 1.9l40 53.9c1.6 2.1 1.1 5.1-1 6.7s-5.1 1.1-6.7-1L87.9 17.8l-71.8 96.7h70.5c2.6 0 4.8 2.1 4.8 4.8s-2 4.7-4.6 4.7z" class="st1"/><path d="M249.3 124c-1.5 0-2.9-.7-3.8-1.9L168 17.7 90.6 122c-1.6 2.1-4.6 2.6-6.7 1s-2.6-4.6-1-6.7L164.2 6.9c.9-1.2 2.3-1.9 3.8-1.9s2.9.7 3.8 1.9L253 116.4c1.6 2.1 1.1 5.1-1 6.7-.7.6-1.7.9-2.7.9z" class="st1"/><path d="M138.3 108.8c-.9-.9-2.3-1-3.2-.1l-.1.1-11.2 11c-.9.8-1 2.2-.2 3.2 0 .1.1.1.2.2.8.9 2.2 1 3.1.2l.2-.2 9.5-9.4 9.5 9.4c.4.4 1 .7 1.7.7.6 0 1.2-.2 1.7-.7.9-.8 1-2.2.2-3.2 0-.1-.1-.1-.2-.2l-11.2-11z" class="st0"/><path d="M138.3 96.6c-.9-.9-2.3-1-3.2-.1l-.1.1-11.2 11.1c-.9.8-1 2.2-.2 3.2 0 .1.1.1.2.2.8.9 2.2 1 3.1.2l.2-.2 9.5-9.4 9.5 9.4c.4.4 1 .7 1.7.7.6 0 1.2-.2 1.7-.7.9-.8 1-2.2.2-3.2 0-.1-.1-.1-.2-.2l-11.2-11.1z" class="st0"/><path d="M138.3 85.3c-.9-.9-2.3-1-3.2-.1l-.1.1-11.2 11.1c-.9.9-.9 2.4 0 3.3s2.4.9 3.3 0l9.5-9.4 9.5 9.4c.4.4 1 .7 1.7.6.6 0 1.2-.2 1.7-.6.9-.8 1-2.2.2-3.2 0-.1-.1-.1-.2-.2l-11.2-11zm31.4 23.5c-.8-.9-2.2-1-3.2-.2-.1 0-.1.1-.2.2l-11.1 11c-.9.8-1 2.2-.2 3.2 0 .1.1.1.2.2.4.4 1 .7 1.7.7.6 0 1.2-.2 1.7-.7l9.5-9.4 9.5 9.4c.9.9 2.4.9 3.3 0 .9-.9.9-2.4 0-3.3l-11.2-11.1z" class="st0"/><path d="M169.7 96.6c-.8-.9-2.2-1-3.2-.2-.1 0-.1.1-.2.2l-11.1 11.1c-.9.9-.9 2.3 0 3.2.4.4 1 .7 1.7.7.6 0 1.2-.2 1.7-.7l9.5-9.4 9.5 9.4c.8.9 2.2 1 3.2.2.1 0 .1-.1.2-.2.9-.9.9-2.4 0-3.3l-11.3-11z" class="st0"/><path d="M169.7 85.3c-.8-.9-2.2-1-3.2-.2-.1 0-.1.1-.2.2l-11.1 11.1c-.9.8-1 2.2-.2 3.2 0 .1.1.1.2.2.4.4 1 .7 1.7.6.6 0 1.2-.2 1.7-.6l9.3-9.4 9.5 9.4c.9.9 2.4.9 3.3 0 .9-.9.9-2.4 0-3.3l-11-11.2zm31.4 23.5c-.8-.9-2.2-1-3.2-.2-.1 0-.1.1-.2.2l-11.1 11c-.9.8-1 2.2-.2 3.2 0 .1.1.1.2.2.8.9 2.2 1 3.1.2l.2-.2 9.5-9.4 9.4 9.5c.4.4 1 .7 1.7.6.6 0 1.2-.2 1.7-.6.9-.8 1-2.3.1-3.2l-.1-.1-11.1-11.2z" class="st0"/><path d="M201.1 96.6c-.8-.9-2.2-1-3.2-.2-.1 0-.1.1-.2.2l-11.1 11.1c-.9.8-1 2.2-.2 3.2 0 .1.1.1.2.2.9.9 2.3.9 3.3.1l.1-.1 9.5-9.4 9.4 9.4c.4.4 1 .7 1.7.7.6 0 1.2-.2 1.7-.7.9-.8 1-2.2.2-3.2 0-.1-.1-.1-.2-.2l-11.2-11.1z" class="st0"/><path d="M201.1 85.3c-.8-.9-2.2-1-3.2-.2-.1 0-.1.1-.2.2l-11.1 11.1c-.9.9-.9 2.4 0 3.3s2.4.9 3.3 0l9.5-9.4 9.4 9.4c.4.4 1 .7 1.7.6.6 0 1.2-.2 1.7-.6.9-.8 1-2.2.2-3.2 0-.1-.1-.1-.2-.2l-11.1-11z" class="st0"/></svg>