<svg xmlns="http://www.w3.org/2000/svg" role="img" viewBox="-15.22 -15.22 791.44 310.44"><title>Wireless Infrastructure Association logo</title><defs><style>.cls-1{fill:#014382}</style></defs><path d="M152.398 149.767c-2.49 9.21-4.851 17.919-7.2 26.631q-13.666 50.664-27.276 101.343c-.524 1.96-1.414 2.368-3.271 2.36-16.742-.07-33.485-.11-50.226.027-2.516.02-3.465-.706-4.171-3.088Q33.904 188.18 7.397 99.366 4.051 88.134.737 76.892C.491 76.059.282 75.214 0 74.166h10.592c14.07-.001 28.142.055 42.211-.06 2.321-.019 3.277.524 3.949 2.914q15.63 55.646 31.52 111.219a5.851 5.851 0 0 0 1.206 2.91c2.034-6.783 4.042-13.427 6.02-20.081q14.004-47.101 27.96-94.217c.586-1.985 1.354-2.77 3.614-2.754q25.246.19 50.493-.003c2.43-.02 3.32.741 3.98 2.97q16.802 56.832 33.755 113.619a1.916 1.916 0 0 0 .14.276c.93-.461.838-1.426 1.058-2.199q15.922-55.974 31.766-111.97c.59-2.095 1.417-2.706 3.588-2.692 16.741.11 33.484.066 50.226.07h2.959c-2.12 7.11-4.168 13.969-6.212 20.83q-22.156 74.398-44.309 148.797c-3.37 11.32-6.764 22.634-10.054 33.978-.503 1.734-1.202 2.345-3.09 2.335q-25.647-.13-51.294.007c-1.91.01-2.56-.63-3.025-2.36q-16.862-62.753-33.825-125.48c-.182-.675-.437-1.33-.83-2.508zm392.389 130.291c-8.547.003-17.094-.034-25.64.037a2.36 2.36 0 0 1-2.753-2.05c-4.49-15.332-9.133-30.619-13.602-45.957-.63-2.16-1.536-2.854-3.806-2.843q-30.314.146-60.63-.013c-2.421-.015-3.372.733-4.02 2.964-4.41 15.17-8.972 30.296-13.397 45.462-.53 1.817-1.283 2.464-3.25 2.454q-25.507-.131-51.014.003c-2.43.014-2.467-.694-1.867-2.698q17.3-57.773 34.486-115.58 12.663-42.489 25.283-84.99c.589-1.995 1.299-2.758 3.558-2.75q40.597.159 81.195.015c2.034-.006 2.66.706 3.197 2.515q17.72 59.73 35.562 119.422 12.165 40.828 24.343 81.651c.588 1.96.28 2.41-1.737 2.39-8.635-.085-17.272-.036-25.908-.032zm-76.031-173.903a5.36 5.36 0 0 0-.654.962q-11.829 39.818-23.68 79.63c-.582 1.942-.06 2.178 1.7 2.171q22.434-.08 44.87 0c1.883.008 2.523-.32 1.902-2.374-8.053-26.676-16.038-53.373-24.138-80.389zm104.203 9.083q.004-32.857 0-65.715A49.314 49.314 0 0 1 617.519.391a70.133 70.133 0 0 1 6.927-.33Q691.362.064 758.278 0c2.572-.005 3.208.605 3.203 3.188q-.129 67.717-.07 135.435c-.013 23.372-14.883 42.61-37.446 48.512a44.701 44.701 0 0 1-11.343 1.471q-68.385-.002-136.77.056c-2.334.004-2.96-.534-2.951-2.902.092-23.507.056-47.015.058-70.522zm82.324 51.54q28.051 0 56.102-.004a27.918 27.918 0 0 0 28.312-28.212c.046-37.935-.016-75.87.075-113.805.006-2.54-.81-2.922-3.087-2.918q-57.17.104-114.34.062a21.049 21.049 0 0 0-3.718.263c-14.605 2.64-23.987 13.886-24 28.903-.033 37.668.01 75.336-.064 113.004-.004 2.21.512 2.776 2.749 2.765 19.323-.098 38.647-.056 57.971-.058zM275.66 279.868c2.648-8.908 5.268-17.744 7.9-26.577q17.07-57.283 34.144-114.566 9.278-31.135 18.496-62.289c.52-1.767 1.229-2.328 3.093-2.319 16.914.08 33.83.102 50.743-.02 2.632-.02 2.857.615 2.158 2.946q-16.545 55.212-32.95 110.465-13.458 45.17-26.913 90.342c-.362 1.218-.517 2.256-2.298 2.25-17.716-.07-35.432-.044-53.148-.053a9.534 9.534 0 0 1-1.225-.179z" class="cls-1"/><path fill="#fdfefe" d="M655.283 166.779c-19.324 0-38.648-.04-57.971.057-2.237.011-2.753-.554-2.749-2.765.074-37.668.031-75.336.064-113.004.013-15.017 9.395-26.264 24-28.903a21.049 21.049 0 0 1 3.718-.263q57.17-.021 114.34-.062c2.277-.004 3.093.378 3.087 2.918-.09 37.935-.029 75.87-.074 113.805a27.918 27.918 0 0 1-28.313 28.212q-28.051.026-56.102.005zm9.291-20.301h44.336c5.902-.001 9.573-3.507 9.58-9.37.03-30.003-.003-60.005.053-90.007.003-1.827-.606-2.222-2.298-2.193-5.607.094-11.22.14-16.824-.02-2.148-.062-2.856.384-2.808 2.693.162 7.92.064 15.846.064 23.77-.002 17.093-.035 34.186.036 51.279.007 1.888-.504 2.402-2.379 2.343-4.536-.144-9.081-.126-13.618-.008-1.743.045-2.278-.434-2.243-2.217.111-5.785-.035-11.574.08-17.359.037-1.79-.51-2.264-2.242-2.235-5.696.097-11.397.113-17.092-.005-1.916-.04-2.403.611-2.37 2.436.105 5.607-.024 11.218.077 16.825.034 1.911-.42 2.663-2.517 2.575-4.265-.18-8.553-.222-12.814.008-2.456.132-2.942-.702-2.924-2.981.093-11.661-.009-23.324.037-34.986.007-1.563-.27-2.17-2.019-2.134-5.873.12-11.752.13-17.625-.005-1.88-.044-2.132.651-2.128 2.28q.08 28.445-.01 56.889c-.009 2.037.533 2.478 2.512 2.466 15.045-.09 30.09-.05 45.136-.044zm3.026-61.443v-.017c3.02 0 6.041-.055 9.059.026 1.316.036 1.905-.236 1.887-1.727a823.198 823.198 0 0 1-.006-18.119c.014-1.462-.394-2.037-1.955-2.015q-8.792.122-17.586.01c-1.794-.025-2.276.659-2.25 2.351.088 5.772.128 11.548.017 17.319-.036 1.85.621 2.272 2.308 2.203 2.838-.115 5.684-.031 8.526-.031z"/><path d="M664.574 146.475c-15.045-.002-30.091-.043-45.136.047-1.98.012-2.52-.429-2.512-2.466q.125-28.444.01-56.888c-.004-1.63.249-2.325 2.128-2.281a406.72 406.72 0 0 0 17.625.005c1.75-.036 2.026.57 2.02 2.134-.047 11.662.055 23.325-.038 34.986-.018 2.279.468 3.113 2.924 2.98 4.261-.229 8.549-.186 12.814-.007 2.097.088 2.551-.664 2.517-2.575-.101-5.607.028-11.218-.076-16.825-.034-1.825.453-2.475 2.37-2.436 5.694.118 11.395.102 17.09.005 1.733-.029 2.28.445 2.244 2.235-.116 5.785.03 11.574-.081 17.359-.035 1.783.5 2.262 2.243 2.217 4.537-.118 9.082-.136 13.618.008 1.875.059 2.386-.455 2.379-2.343-.071-17.093-.038-34.186-.036-51.28 0-7.923.098-15.848-.064-23.769-.048-2.309.66-2.755 2.808-2.694 5.604.161 11.217.115 16.824.02 1.692-.028 2.301.367 2.298 2.194-.056 30.002-.023 60.004-.054 90.006-.006 5.864-3.677 9.37-9.58 9.37q-22.167.002-44.335-.002z" class="cls-1"/><path fill="#2fbb9d" d="M667.6 85.035c-2.842 0-5.688-.084-8.526.031-1.687.069-2.344-.353-2.308-2.203.111-5.771.07-11.547-.017-17.319-.026-1.692.456-2.376 2.25-2.351q8.792.124 17.586-.01c1.56-.022 1.969.553 1.955 2.015a823.26 823.26 0 0 0 .006 18.12c.018 1.49-.571 1.762-1.887 1.726-3.018-.081-6.04-.026-9.06-.026z"/></svg>