<svg xmlns="http://www.w3.org/2000/svg" role="img" viewBox="241.77 183.27 765.96 335.96"><title>Wiwynn logo</title><defs><style>.cls-1{fill:#006c92}.cls-2{fill:#8ed300}</style></defs><g id="圖層_1" data-name="圖層 1"><path d="M750.483 411.9l-36.021 63.264h-21.571l-3.946-37.624h-.235l-20.988 37.624h-21.875l-9.616-63.264h21.83l2.323 39.948h.25l21.875-39.948h21.95l3.569 39.465h.242l17.361-39.465zm103.117 9.776q10.02-11.212 24.457-11.214 8.589 0 12.872 4.393a14.789 14.789 0 0 1 4.3 10.764c0 2.537-.806 7.551-2.389 15.017l-7.341 34.53h-24.325l6.255-29.4c1.516-7.187 2.265-11.31 2.265-12.343 0-3.5-1.586-5.251-4.776-5.251q-5.353 0-9.353 5.043t-6.022 14.517l-5.967 27.434h-24.44l13.6-63.264h22.721l-2.1 9.541zm74.956 0q10.039-11.212 24.457-11.214 8.565 0 12.881 4.393a14.789 14.789 0 0 1 4.285 10.764q0 3.805-2.386 15.017l-7.321 34.53h-24.336l6.254-29.4c1.529-7.187 2.257-11.31 2.257-12.343 0-3.5-1.57-5.251-4.768-5.251-3.556 0-6.687 1.687-9.353 5.043s-4.668 8.2-6.013 14.517l-5.959 27.434h-24.469L907.7 411.9h22.72l-2.1 9.541zM600.922 411.9l-36.017 63.264h-21.6l-3.931-37.624h-.233l-21 37.624h-21.87l-9.6-63.264h21.816l2.324 39.948h.242L532.94 411.9h21.946l3.573 39.465h.237l17.353-39.465zm19.678-6.64c-7.933 0-12.814-5.934-11.531-13.184a16.416 16.416 0 0 1 16.174-13.2c7.254 0 12.409 5.709 11.1 13.2-1.294 7.25-8.494 13.184-15.743 13.184z" class="cls-1"/><path d="M803.459 411.711l-20.794 36.662-3.569-36.471h-23.903l11.968 63.81-16.559 29.196h24.873l52.857-93.197h-24.873zm-185.33 63.372H591.89l13.546-63.181h26.244l-13.551 63.181z" class="cls-2"/><path d="M981.6 382.786a11.716 11.716 0 0 1 5.68 1.482 10.688 10.688 0 0 1 4.273 4.243 11.523 11.523 0 0 1 .033 11.515 10.883 10.883 0 0 1-4.251 4.252 11.536 11.536 0 0 1-11.461 0 10.857 10.857 0 0 1-4.251-4.252 11.543 11.543 0 0 1 .029-11.515 10.667 10.667 0 0 1 4.272-4.243 11.718 11.718 0 0 1 5.676-1.482zm.017 2.257a9.394 9.394 0 0 0-4.552 1.186 8.616 8.616 0 0 0-3.431 3.407 9.3 9.3 0 0 0-.029 9.274 8.8 8.8 0 0 0 3.419 3.423 9.228 9.228 0 0 0 9.2 0 8.877 8.877 0 0 0 3.414-3.423 9.271 9.271 0 0 0-.02-9.274 8.613 8.613 0 0 0-3.44-3.407 9.436 9.436 0 0 0-4.56-1.186zm-5.21 15.407v-12.2h2.474c2.328 0 3.627.008 3.91.025a4.764 4.764 0 0 1 1.912.491 2.982 2.982 0 0 1 1.139 1.171 3.37 3.37 0 0 1 .464 1.749 3.228 3.228 0 0 1-.862 2.261 3.987 3.987 0 0 1-2.428 1.166 2.906 2.906 0 0 1 .854.458 6 6 0 0 1 .829.937c.087.12.391.616.9 1.487l1.437 2.46h-3.065l-1.02-1.982a8.329 8.329 0 0 0-1.712-2.515 2.757 2.757 0 0 0-1.711-.521h-.65v5.018zm2.474-6.937h1.008a12.372 12.372 0 0 0 2.667-.163 1.552 1.552 0 0 0 1.118-1.52 1.489 1.489 0 0 0-.291-.907 1.593 1.593 0 0 0-.833-.571 11.7 11.7 0 0 0-2.661-.175h-1.008zM418.056 267.589c-2.657-17.415-21.584-18.731-21.584-18.731h-26.537l17.75 116.9 35.741-63.01zm-71.787 0c-2.658-17.415-21.585-18.731-21.585-18.731h-26.535l17.082 112.515s2.84 18.731 21.571 18.731h26.635z" class="cls-1"/><path d="M274.658 405.027c19.866 20.339 53.149 28.459 90.811 25.132L381.83 401.3c-37.255 5.776-70.5-.42-88.845-19.514-19.8-20.625-17.665-51.524 1.745-82.1l-2.765-18.214c-38.182 43.817-47.082 93.043-17.307 123.555zm221.153-204.704c-45.286-8.15-105.789 6.15-157.651 40.96a35.656 35.656 0 0 1 9.182 6.03c1.79-1.22 3.6-2.432 5.451-3.632 46.2-29.791 99.327-41.938 138.113-34.705a99.274 99.274 0 0 1 10.948 2.7l4.984-8.783c-3.573-.993-7.227-1.887-11.027-2.57zm49.745 24.923l-7.485 13.2a48.486 48.486 0 0 1 4.8 11.826c8.385 32.49-15.347 75.957-62.146 109.575l-23.945 42.228a270.124 270.124 0 0 0 24.177-14.43c68.8-46.173 98.24-112.207 71.268-153.866a64.1 64.1 0 0 0-6.669-8.533z" class="cls-1"/><path d="M544.413 223.947c-9.674-9.911-22.579-16.853-37.575-21.051l-4.984 8.783-149.432 263.487h51.39l134.259-236.723 7.485-13.2c-.394-.422-.735-.876-1.143-1.296z" class="cls-2"/></g></svg>