<svg xmlns="http://www.w3.org/2000/svg" role="img" viewBox="-10.00 -10.00 520.00 234.50"><title>Wiwynn logo</title><defs><style>.cls-1{fill:#8fd305}.cls-2{fill:#0d7094}</style></defs><path d="M174.159 4.061c11.676 1.729 21.455 6.711 28.397 16.561q-2.777 4.494-5.556 8.986c-26.58 46.208-54.463 91.734-79.155 138.929-11.289 21.576-24.692 30.173-49.31 23.075L171.277 8.816q1.44-2.378 2.882-4.755z" class="cls-1"/><path d="M60.251 126.996c-12.164 1.15-18.53-5.321-20.23-18.158-2.481-18.735-6.102-37.33-8.153-56.104-.616-5.641-8.738-14.741 3.985-17.37 13.93-2.88 24.515 2.381 26.537 13.456 3.393 18.583 5.946 37.319 8.836 55.993.445 2.873.709 5.777 1.224 8.637 2.496 13.835 2.516 13.832-12.199 13.546z" class="cls-2"/><path d="M85.162 142.078c-3.664 18.566-14.541 23.104-30.11 19.975-3.81-.766-7.67-1.29-11.482-2.05-37.115-7.399-52.831-37.31-38.074-72.218 4.201-9.937 10.137-18.714 17.284-27.652 3.708 4.888 3.47 9.338 1.383 14.539-18.036 44.97 1.477 71.335 50.306 68.17 3.369-.219 6.735-.48 10.693-.764zm155.375 11.933c-8.91 7.785-12.318 19.086-18.209 28.785-3.91 6.436-7.316 12.643-16.526 10.592-9.604-2.139-4.773-10.104-6.421-15.445-.523-1.693-.836-3.452-1.577-6.586-6.586 5.033-8.887 11.405-11.738 17.036-3.324 6.562-8.754 4.904-13.824 4.881-5.855-.026-4.834-4.988-5.473-8.53-1.633-9.048-3.112-18.123-4.656-27.187-.685-4.023-1.341-8.065 4.705-8.158 4.8-.074 9.928-1.09 9.895 6.706-.021 5.118-1.097 10.705 2.703 15.342 9.87-5.673 7.514-26.249 24.726-21.658 11.085 2.956 2.6 15.755 9.027 22.745 2.685-5.789 4.785-12.203 8.38-17.628 5.489-8.286 12.233-8.74 18.812-.694zm60.413 16.507c-3.363 5.968-6.783 11.181-9.333 16.79-2.84 6.245-7.865 6.156-13.388 6.172-6.836.02-5.909-5.357-6.653-9.269-1.728-9.073-3.036-18.226-4.542-27.343-.753-4.555.111-7.726 5.72-7.522 4.373.159 9.082-.742 8.997 6.175-.063 5.161.53 10.33.954 17.628 6.368-4.77 8.07-10.217 10.497-15.037 3.116-6.19 7.255-9.626 14.88-8.915 9.03.842 5.086 7.814 6.575 12.151 1.043 3.038 1.428 6.303 2.335 10.528 8.854-8.365 6.717-29.448 27.952-20.8-6.98 12.288-14.174 24.28-20.654 36.648-3.231 6.167-8.18 6.022-13.573 5.614-7.586-.576-5.393-6.634-6.004-11.077-.506-3.676.528-7.788-3.763-11.743zM91.784 116.442c-4.147-26.591-7.797-50.366-11.603-74.115-.803-5.01.759-7.297 5.993-7.112 8.625.305 19.145-2.114 23.686 7.15 5.483 11.186 9.14 24.001 3.37 36.23-5.733 12.155-13.206 23.488-21.447 37.847zM197 29.608l5.556-8.986c10.168 9.391 13.414 21.597 11.032 34.422-7.644 41.161-36.098 65.145-70.419 83.913 6.89-14.837 15.085-28.125 28.324-38.61 14.562-11.532 25.058-26.807 29.155-45.746 1.944-8.981 1.484-17.23-3.648-24.993z" class="cls-2"/><path d="M401.618 149.036q-15.75 26.826-31.513 53.644c-1.959 3.323-3.535 7.167-6.296 9.65-3.945 3.547-9.706 3.204-13.625.747-3.98-2.494.149-6.354 1.814-8.626 11.473-15.659-.205-30.812-.648-46.16-.119-4.117-2.959-9.306 4.813-8.865 4.47.254 10.454-1.873 10.457 6.157a35.822 35.822 0 0 0 .566 5.805c.47 2.833 1.102 5.639 2.419 12.232 7.85-14.916 13.251-30.168 32.025-24.31z" class="cls-1"/><path d="M401.618 149.036l.012.273c10.61-1.267 20.868 3.6 32.12-.512 8.538-3.121 14.986 3.122 13.634 13.195-1.155 8.602-3.373 17.06-5.122 25.582-1.61 7.843-7.885 6.032-12.817 5.641-7.444-.59-4.274-5.795-3.49-9.788.745-3.796 1.561-7.581 2.191-11.397.578-3.5 4.039-8.233-1.157-10.052-6.11-2.138-8.435 3.473-10.01 7.934a62.97 62.97 0 0 0-3.586 15.502c-.727 8.702-6.566 8.336-12.537 7.948-8.626-.56-4.842-6.36-4.267-10.677 1.499-11.242 7.102-21.87 5.029-33.65zm47.182 36.21c1.96-9.506 3.812-19.036 5.962-28.498.514-2.265 1.953-6.125 3.084-6.168 12.544-.476 25.204-1.235 37.624.073 4.804.505 5.566 7.24 4.443 12.441-1.64 7.593-3.766 15.132-4.686 22.814-1.076 8.987-7.386 8-12.99 7.327-8.671-1.041-3.859-6.879-3.224-11.08.508-3.363 1.257-6.691 1.738-10.058.502-3.516 4.061-8.287-1.145-10.114-6.127-2.15-8.557 3.484-10.04 7.976-1.968 5.968-2.8 12.302-4.345 18.422-1.733 6.86-7.464 4.887-12.017 4.945-6.035.077-5.495-4.04-4.404-8.08zM174.159 4.061q-1.442 2.377-2.882 4.755C134.87.978 102.204 11.419 70.93 29.117c-3.142 1.778-7.169 8.033-10.535 1.676-2.138-4.036 3.848-5.573 6.76-7.104C100.75 6.028 135.279-6.943 174.159 4.061z" class="cls-2"/><path d="M240.361 154.212c5.742-4.79 12.847-7.735 19.064-3.447 5.038 3.474.558 9.765-.432 14.764-.847 4.275-2.422 8.509-2.57 12.799-.492 14.182-7.788 17.325-20.065 13.264-.61-12.81 7.618-24.55 4.184-37.59-.005.009-.181.21-.181.21z" class="cls-1"/><path d="M266.079 134.025c-.92 5.84-4.542 9.652-10.296 10.228-4.767.477-8.882-2.432-8.64-7.495.275-5.763 3.87-9.728 10.157-10.16 5.174-.355 8.162 2.074 8.78 7.427z" class="cls-2"/></svg>