<svg xmlns="http://www.w3.org/2000/svg" role="img" viewBox="-15.77 -15.27 794.04 309.54"><defs><style>.cls-1{fill:#4e9fb8}</style></defs><path d="M121.9.93q-.106-.462-.184-.93h2.385l100.042 73.025c5.45 3.978 10.663 8.364 16.446 11.781 5.207 3.078 6.314 7.058 6.261 12.728-.264 28.6-.11 57.202-.144 85.803-.003 2.15.48 4.376-.575 6.443-6.695-3.1-12.064-8.147-18.002-12.342-17.259-12.193-34.376-24.586-51.55-36.9-17.22-13.939-35.465-26.483-53.525-39.278q.07-48.017.128-96.035c.001-1.532.346-3.224-1.283-4.295z" class="cls-1"/><path fill="#0d4663" d="M763.082 104.908l-69.678.221c-6.638.021-7.185.807-5.006 7.17 3.582 10.46 15.634 18.065 28.514 17.508 10.456-.452 20.48-2.692 28.634-9.903 1.962-1.735 3.187-1.638 4.796.358a63.773 63.773 0 0 0 7.531 8.425c4.145 3.586 3.74 6.026-.323 9.593-20.923 18.368-59.747 18.867-79.645.022-16.913-16.018-20.416-36.374-14.652-58.065 5.348-20.128 19.107-32.42 39.642-36.68 27.384-5.678 50.952 9.273 57.93 36.451.602 2.344.083 5.152 2.257 7.018zm-51.162-18.64c6.928 0 13.859-.117 20.782.051 3.403.083 4.523-.595 3.529-4.361-2.775-10.513-11.666-17.433-23.226-17.513-11.922-.081-22.284 7.109-25.272 16.984-1.305 4.316.118 5.036 4 4.905 6.722-.227 13.457-.063 20.187-.065zm-535.34 54.269c17.173 12.315 34.29 24.708 51.55 36.9 5.937 4.196 11.306 9.243 18 12.343-.171 2.16-2.096 2.762-3.474 3.766q-57.518 41.893-115.011 83.818c-3.357 2.46-5.413 2.26-8.639-.099Q61.813 235.432 4.38 193.927c-2.977-2.154-4.405-4.295-4.379-8.218q.3-45.59.034-91.183c-.015-3.5.873-5.754 3.816-7.882Q62.959 43.908 121.897.932c1.63 1.069 1.286 2.76 1.285 4.293q-.045 48.018-.13 96.036l-53.154 38.653c1.349 1.116 2.338 2.029 3.42 2.816 15.387 11.203 30.877 22.27 46.113 33.676 3.209 2.402 5.129 2.023 8.096-.171 16.261-12.02 32.685-23.822 49.053-35.699zm435.209-1.189c-22.92 17.046-54.319 8.668-66.251-9.98-17.385-27.17-9.378-74.7 35.076-83.87 18.24-3.762 36.29-.776 54.045 4.23 2.713.765 3.26 2.085 3.253 4.599-.088 33.158.317 66.324-.29 99.472-.3 16.37-8.54 29.119-23.754 35.568-20.389 8.644-40.98 7.012-61.17-1.713-4.818-2.082-6.299-4.456-2.67-9.125 2.903-3.733 4.224-9.23 7.793-11.774 4.254-3.033 8.03 2.941 12.508 3.732 7.626 1.348 15.168 3.115 22.964 1.642 11.78-2.226 18.266-9.922 18.486-21.916.062-3.341.01-6.685.01-10.865zm-.038-49.34h.049c0-5.75-.234-11.514.085-17.247.2-3.59-1.235-4.743-4.52-5.395a59.847 59.847 0 0 0-16.581-.554c-17.7 1.427-28.8 16.76-26.85 36.696 1.621 16.564 12.15 23.99 30.9 21.792 10.468-1.227 16.498-7.553 16.88-18.041.21-5.743.037-11.5.037-17.25zM488.7 139.848c-12.815 10.884-26.893 14.44-42.538 10.289-13.272-3.522-22.417-13.755-23.893-25.955-1.903-15.735 4.213-28.745 16.835-35.909 9.104-5.167 19.05-6.41 29.271-6.31 5.555.055 11.127.064 16.656.517 3.928.322 4.253-1.471 3.682-4.532-1.423-7.635-8.526-12.866-18.712-13.576-10.168-.71-19.752 1.226-28.384 6.826-2.69 1.745-4.486 1.655-6.085-1.34a73.354 73.354 0 0 0-4.24-6.46c-5.635-8.308-5.816-8.674 3.02-12.902 18.23-8.722 37.243-10.97 56.48-3.925 14.85 5.439 22.919 17.81 22.983 33.483.086 21.234-.064 42.47.11 63.704.03 3.797-.83 5.443-4.896 5.088-3.742-.327-7.536-.07-11.306-.07-8.313 0-8.313 0-8.983-8.928zm-15.14-38.357c-7.148-.106-12.517.103-17.505 2.24-9.673 4.144-12.65 17.478-4.932 23.417 7.586 5.837 16.312 5.352 24.739 1.737 7.79-3.343 12.915-8.951 13.053-18.034.123-8.073.158-8.071-7.678-8.717-3.15-.26-6.301-.528-7.678-.643zM402.415 46.23c-7.557 10.108-14.395 19.27-21.252 28.419-3.81 5.084-7.454 10.313-11.551 15.156-2.653 3.135-2.672 5.293-.113 8.669 11.154 14.708 21.96 29.68 32.877 44.568 1.13 1.54 2.16 3.153 3.91 5.72-10.917 0-20.736-.043-30.555.03-2.55.018-3.258-1.963-4.354-3.517-6.85-9.707-13.657-19.443-20.968-29.869-7.057 9.961-13.884 19.302-20.35 28.886-2.24 3.32-4.617 4.777-8.71 4.584-7.476-.35-14.981-.1-23.697-.1 1.905-2.658 3.193-4.531 4.556-6.347 10.488-13.973 20.905-28 31.56-41.845 2.175-2.825 2.3-4.601.086-7.534-10.162-13.467-20.03-27.157-29.993-40.774-1.252-1.712-2.44-3.472-4.236-6.036 10.84 0 20.696.037 30.551-.027 2.5-.016 3.325 1.877 4.418 3.446 5.894 8.463 11.736 16.962 17.944 25.953 6.148-8.738 12.19-17.055 17.901-25.595 1.871-2.797 3.83-3.978 7.234-3.867 7.849.254 15.712.08 24.742.08z"/><path d="M583.742 260.206c-3.805 1.566-5.454-.04-6.86-2.548-2.224-3.97-4.703-7.797-6.883-11.789-1.215-2.224-2.809-3.123-5.28-2.708-3.12.525-1.961 2.982-2.051 4.71-.175 3.359-.06 6.733-.071 10.1-.005 1.53-.398 2.765-2.256 2.804-1.856.039-2.333-1.138-2.333-2.698q-.004-16.64-.005-33.28c-.002-1.99.972-2.813 2.924-2.843 4.955-.076 9.914-.223 14.741 1.17a9.192 9.192 0 0 1 6.965 8.026c.567 4.06-.851 7.927-4.541 9.523-4.726 2.045-3.809 4.291-1.68 7.515 2.488 3.77 4.719 7.71 7.33 12.018zm-21.035-27.547c.465 2.641-1.97 6.963 4.085 6.756 7.065-.242 11.61-2.484 11.338-6.693-.349-5.389-4.261-6.282-8.82-6.392-4.437-.107-8.154.11-6.603 6.33zm-200.982 8.435c0-4.967.028-9.934-.01-14.901-.02-2.476.504-4.294 3.563-4.256 5.96.073 11.92.012 17.88.028 1.427.004 2.92.085 3.053 1.997.165 2.365-1.573 2.393-3.209 2.403-4.37.026-8.746.141-13.112-.01-4.794-.167-3.618 3.33-3.475 5.784.146 2.494-1.89 6.507 3.403 6.45 3.973-.044 7.948-.015 11.92.016 1.398.01 2.965-.028 3.125 1.907.19 2.315-1.484 2.462-3.167 2.468-3.775.013-7.557.155-11.322-.032-3.132-.155-4.016 1.104-4.124 4.153-.333 9.383-.465 9.376 8.983 9.38 2.98.001 5.96.018 8.94.029 1.622.006 2.75.656 2.623 2.434-.105 1.461-1.212 1.913-2.524 1.913-6.556.003-13.113.026-19.668-.023-2.9-.022-2.86-2.218-2.87-4.243-.027-5.165-.009-10.331-.009-15.497zm133.071-4.582c0 3.374-.147 6.755.03 10.12.376 7.127 3.874 10.933 9.89 11.027 6.134.096 9.834-3.403 10.27-10.604.396-6.525.016-13.095.209-19.638.055-1.874-1.377-5.11 2.007-5.222 3.914-.13 2.406 3.4 2.466 5.425.18 6.146.245 12.31 0 18.452-.395 9.843-6.317 16.098-14.805 16.023-8.49-.075-14.39-6.444-14.677-16.191-.198-6.742-.051-13.494-.04-20.24.002-1.587-.146-3.412 2.108-3.568 2.786-.192 2.48 1.95 2.499 3.7.038 3.572.011 7.144.011 10.716zm-73.889 5.482c.066-8.653 3.56-14.833 10.73-18.412 6.356-3.173 13.032-3.224 19.292.54 1.422.854 4.276 1.81 2.58 4.375-1.772 2.682-3.33.151-4.86-.775-6.953-4.207-14.955-2.881-19.696 3.27-4.975 6.457-4.41 16.637 1.248 22.426a14.828 14.828 0 0 0 19.473 1.26c1.388-1.03 2.736-3.081 4.436-1.034 2.09 2.516-.959 3.498-2.189 4.433-6.278 4.77-13.202 5.072-20.116 1.646-7.455-3.694-10.91-10.025-10.898-17.73zm-105.685-20.468a10.819 10.819 0 0 1 7.04 2.387c1.005.846 2.621 1.617 1.239 3.268-.968 1.155-2.172 1.549-3.564.326a9.023 9.023 0 0 0-7.148-2.27c-3.447.37-6.12 1.82-6.804 5.51-.694 3.744 1.26 6.013 4.576 7.282 2.029.776 4.144 1.33 6.169 2.115 6.355 2.461 9.474 6.796 8.634 11.872-.947 5.728-6.5 10.13-13.022 10.006a16.212 16.212 0 0 1-9.842-3.69c-1.031-.819-2.408-1.747-.997-3.378 1.252-1.447 2.498-1.792 3.933-.161 2.325 2.643 5.416 3.09 8.691 2.752a6.888 6.888 0 0 0 6.55-5.89c.68-3.492-1.505-5.613-4.349-6.983-2.127-1.024-4.452-1.63-6.649-2.52-6.955-2.82-9.157-6.314-8.006-12.581.937-5.107 5.426-8.065 13.55-8.045zm418.45 39.235c-2.115.165-3.05-.942-2.71-2.49 2.931-13.318-5.724-22.278-11.889-32.204-.69-1.11-2.998-2.444-.891-3.812a3.298 3.298 0 0 1 4.632 1.348c2.804 4.544 5.722 9.02 8.46 13.604 1.44 2.409 2.519 2.626 4.043.069 2.532-4.25 5.268-8.376 7.854-12.593 1.108-1.806 2.54-3.711 4.642-2.367 2.371 1.516-.182 3.04-.907 4.376a39.802 39.802 0 0 1-3.896 5.955c-5.526 6.866-8.923 14.322-7.55 23.44.256 1.696.924 4.17-1.788 4.674zM670.17 243.33q-.002-3.273-.001-6.547c0-9.316.002-9.332-9.005-10.4-1.394-.166-2.95-.03-3.089-1.948-.164-2.27 1.477-2.473 3.17-2.474q11.605-.012 23.21-.002c1.628.004 3.41.065 3.276 2.374-.135 2.333-2.053 1.924-3.58 2.045-9.354.745-9.353.747-9.354 10.049 0 6.547.066 13.094-.044 19.639-.03 1.754 1 4.533-2.098 4.63-3.635.116-2.353-2.989-2.431-4.87-.173-4.16-.054-8.33-.055-12.496zm-46.6-1.694q-.003 8.015-.002 16.03c0 1.706-.21 3.252-2.502 3.115-1.892-.114-2.115-1.448-2.116-2.927q-.008-16.327-.01-32.654c0-1.73.303-3.27 2.535-3.123 2.33.153 2.078 1.981 2.086 3.529.029 5.343.011 10.687.01 16.03z" class="cls-1"/></svg>