<svg xmlns="http://www.w3.org/2000/svg" role="img" viewBox="-1.82 191.18 796.64 178.14"><style>svg {enable-background:new 0 0 792 612}</style><style>.st0{fill:#ee3436}.st1{fill:#b52144}.st2{fill:#322f30}</style><g id="g10" transform="matrix(1.33333 0 0 -1.33333 0 5583.027)"><g id="g12" transform="scale(.1)"><g id="g14" transform="scale(1.52291)"><path id="path16" d="M66.1 26295.6l158.3 181.8h232l-157.9-181.8" class="st0"/></g><g id="g18" transform="scale(1.52291)"><path id="path20" d="M66.1 26295.6l158.3-181.6h232l-157.9 181.6" class="st1"/></g><g id="g22" transform="scale(1.52291)"><path id="path24" d="M66.1 25932.3l158.3 181.7h232l-157.9-181.7" class="st0"/></g><g id="g26" transform="scale(1.52291)"><path id="path28" d="M66.1 25932.3l158.3-181.7h232l-157.9 181.7" class="st1"/></g><g id="g30" transform="scale(1.54529)"><path id="path32" d="M761 26094H449.9l155.6-179.2" class="st0"/></g><g id="g34" transform="scale(1.54529)"><path id="path36" d="M761 25377.7H449.9l155.6 179.1" class="st1"/></g><g id="g38" transform="scale(1.60514)"><path id="path40" d="M1437.9 24431.6l-162 280-163.2-280h-94l211.1 353.2-197.6 336.2h96l147.8-262.6 147.6 262.6h96l-198.5-336.2 212.9-353.2" class="st2"/></g><g id="g42" transform="scale(1.61511)"><path id="path44" d="M1574.7 24280.8h82.4v685.1h-82.4v-685.1" class="st2"/></g><g id="g46" transform="scale(1.651)"><path id="path48" d="M1732.5 23753v670.2h80.5V23826h275.1v-73.1" class="st2"/></g><g id="g50" transform="scale(1.66234)"><path id="path52" d="M2140.3 23591h80.2v665.7h-80.2V23591" class="st2"/></g><g id="g54" transform="scale(1.70915)"><path id="path56" d="M2676.2 22944.9L2345 23445v-500.1h-77.6v647.4h71.8l331.2-498.5v498.5h77.8v-647.4" class="st2"/></g><g id="g58" transform="scale(1.75141)"><path id="path60" d="M3112.3 22391.2l-148.6 256.6-149.4-256.6h-86.2l193.5 323.7-181.3 308.2h88.1l135.3-240.7 135.4 240.7h88.1l-182.2-308.2 195.4-323.7" class="st2"/></g><g id="g62" transform="scale(1.7628)"><path id="path64" d="M3249.6 22318.5c2.6 0 5.3.2 7.9.3 2.4.1 4.6.6 6.5 1.5 2 .8 3.6 2.2 4.7 3.9 1.1 1.7 1.6 4.1 1.6 7.3 0 2.6-.5 4.7-1.6 6.4-.9 1.4-2.2 2.7-4 3.5-1.6.8-3.3 1.4-5.4 1.7-2.2.3-4.4.5-6.3.5h-16.3v-25.1h12.9zm5.3 35c9.5 0 16.5-1.9 21.1-5.6 4.4-3.7 6.7-9.4 6.7-17 0-7-2-12.3-6.1-15.6-4-3.3-9-5.2-14.8-5.9l22.5-34.9h-13.2l-21.5 34.1h-13.1v-34.1h-12.1v79h30.5zm-55.7-62.3c2.8-7.1 6.7-13.2 11.7-18.3 5-5.2 10.9-9.3 17.7-12.2 6.9-3.1 14.2-4.4 22.1-4.4s15.2 1.3 21.9 4.4c6.7 2.9 12.7 6.9 17.5 12.2 5.3 5.1 9 11.2 11.9 18.3 2.8 7 4.4 14.7 4.4 23 0 8.1-1.6 15.6-4.4 22.5-2.9 7.1-6.6 13.1-11.9 18.2-4.9 5.2-10.8 9.1-17.5 12-6.7 3.1-14 4.5-21.9 4.5s-15.3-1.4-22.1-4.5c-6.7-2.9-12.7-6.8-17.7-12s-9-11.1-11.7-18.2c-2.8-6.9-4.2-14.4-4.2-22.5 0-8.2 1.5-15.9 4.2-23m-11 49.6c3.6 8.2 8.6 15.3 14.8 21.3 6.1 6.1 13.4 10.8 21.6 14.1 8.3 3.4 17 5.2 26.2 5.2 9.4 0 18.1-1.8 26.2-5.2 8.2-3.4 15.3-8.1 21.5-14.1 6.1-6 10.9-13.1 14.6-21.3 3.7-8.3 5.4-17 5.4-26.5 0-9.7-1.7-18.8-5.4-27-3.7-8.3-8.6-15.4-14.6-21.5-6.2-6.1-13.3-10.8-21.5-14.4-8.2-3.2-16.9-4.9-26.2-4.9-9.2 0-17.9 1.7-26.2 4.9-8.2 3.5-15.6 8.2-21.6 14.4-6.2 6.1-11.2 13.2-14.8 21.5-3.7 8.2-5.5 17.3-5.5 27-.1 9.6 1.8 18.2 5.5 26.5" class="st2"/></g></g></g></svg>