<svg xmlns="http://www.w3.org/2000/svg" role="img" viewBox="-13.94 -13.44 698.88 172.38"><title>Xnor.ai logo</title><path fill="#44beee" d="M80.97 116.85c-.305.786-.596 1.578-.918 2.358-8.035 19.494-21.388 29.156-43.49 25.665-9.931-1.568-20.314-.35-30.49-.257-6.802.062-7.155-2.578-3.66-7.558 11.935-17 23.635-34.165 35.687-51.08 5.057-7.097 9.876-10.594 17.641-1.327 7.26 8.664 17.373 6.252 20.313-3.159l-.07.07c12.94-7.683 26.656-8.359 40.872-4.534l.03 3.601c-13.54 1.186-24.253 12.896-28.936 31.634-3.517-.282-6.566.147-6.979 4.587zm28.284-48.329c-9.4.298-18.867 2.024-28.094-1.33l.066.155c-6.566-13.11-17.33-15.526-26.558-4.612-5.287 6.252-9.188 5.738-12.97.564C27.91 44.441 14.488 25.31 1.262 6.053-2.236.959 2.278.555 5.832.543q24.874-.08 49.749.023c6.04.026 10.52 2.953 13.608 8.053 3.954 6.529 7.857 13.088 11.783 19.633.46 4.548 3.636 4.85 7.172 4.588 2.958 13.36 10.257 23.872 21.052 32.09l.058 3.59z"/><path fill="#4cc0ef" d="M631.782 81.385c0 7.231.084 14.464-.038 21.694-.056 3.292.54 7.308-3.966 8.28-3.25.7-7.408 1.559-9.166-2.2-3.391-7.255-6.599-3.185-10.714-.832-19.967 11.417-41.674 2.77-43.103-16.921-.884-12.193 4.295-20.41 15.87-24.597 7.331-2.652 14.931-3.025 22.611-3.294 4.272-.15 10.289 1.675 10.362-5.78.067-6.747-3.108-11.472-10.186-12.505a33.512 33.512 0 0 0-18.69 2.854c-4.922 2.197-7.897 1.244-9.709-4.09-1.891-5.568.88-7.855 5.511-9.332 8.165-2.604 16.464-4.278 25.09-3.537 15.943 1.371 23.899 8.728 25.43 24.78.802 8.42.141 16.98.141 25.478zm-25.226-7.194c-14.457-.037-23.96 5.455-24.035 14.037-.076 8.768 5.52 11.485 13.351 11.347a18.911 18.911 0 0 0 18.869-18.202c.317-6.785-3.317-7.798-8.185-7.182zm-144.535-2.552c.104 26.057-14.097 41.989-37.27 41.811-22.208-.17-36.643-16.552-36.62-41.56.024-25.192 14.138-40.818 36.912-40.867 23.066-.049 36.876 15.12 36.978 40.616zm-17.592.614c.037-5.977-.068-11.92-3.122-17.347-3.683-6.546-9.143-9.548-16.75-9.408-7.117.13-12.675 2.87-15.417 9.266-4.888 11.4-5.205 23.127.072 34.588 3.198 6.945 9.132 9.882 16.548 9.65 7.405-.232 12.84-3.71 16.122-10.537 2.495-5.19 2.449-10.694 2.547-16.212zm-143.085.15c.005-10.624-.244-21.255.091-31.868.231-7.323 9.334-11.68 12.64-5.977 4.655 8.03 7.388 3.06 11.349.926 23.424-12.62 44.402-.572 44.682 25.715.14 13.172-.14 26.35.095 39.518.118 6.566-.043 11.431-9.087 11.298-8.533-.125-8.325-4.905-8.27-10.787.117-12.747.01-25.496.012-38.244.001-8.988-2.677-16.353-12.901-17.24-10.067-.873-17.3 3.219-19.686 13.869-3.11 13.886-1.19 27.946-1.504 41.92-.14 6.223-.492 10.474-8.673 10.466-7.96-.008-9.047-3.81-8.837-10.278.317-9.764.083-19.545.089-29.318zm-86.068-38.186c12.054-4.082 19.494-.393 25.579 10.127 8.859 15.318 10.118 15.322 19.266-.408 5.907-10.157 13.185-13.409 24.78-9.974-3.637 10.605-10.91 18.96-17.238 27.652-5.015 6.888-5.65 12.01-.168 18.99 7.22 9.193 13.22 19.343 19.883 29.287-16.308 6.792-22.247-3.465-28.693-13.942-8.036-13.06-8.16-12.714-16.94-.011-5.013 7.252-7.51 17.618-20.241 16.045-6.669-.824-8.766-2.043-4.457-8.134 5.884-8.319 11.311-16.971 17.416-25.12 3.934-5.251 3.778-9.46.081-14.873-6.6-9.667-14.498-18.588-19.268-29.639zM480.4 71.69c-.002-10.192-.048-20.385.023-30.578.025-3.711-.805-8.162 4.77-8.768 3.769-.41 8.187-1.102 9.405 3.976 1.808 7.53 5.052 4.892 8.553 1.554a24.157 24.157 0 0 1 14.865-6.591c4.274-.37 10.192-1.982 10.183 5.632-.006 5.47.542 10.542-8.207 10.971-14.863.728-21.68 8.676-22.207 23.812-.369 10.605-.406 21.244 0 31.845.275 7.201-3.343 8.325-9.384 8.358-6.156.034-8.226-2.455-8.075-8.36.271-10.611.077-21.233.074-31.85zm190.646.355c0 10.174-.21 20.352.078 30.517.173 6.096-1.205 9.516-8.351 9.372-6.263-.126-9.231-1.693-9.123-8.626.324-20.764.472-41.545-.056-62.301-.22-8.596 4.918-8.097 10.53-8.57 7.385-.623 6.935 4.285 6.927 9.091q-.025 15.259-.005 30.518zM88.144 32.84c-3.536.261-6.713-.04-7.172-4.588 9.548 1.202 10.68-7.735 13.455-12.811C101.017 3.388 109.879-.895 123.418.152c14.762 1.142 29.68.26 44.373.26 2.208 5.167-1.543 7.656-3.534 10.557q-16.224 23.642-32.76 47.07c-5.39 7.674-11.85 13.313-22.243 10.482l-.058-3.593c6.457-.537 12.908-1.392 16.997-7.193 10.032-14.232 19.917-28.569 29.785-42.915 3.77-5.479 2.605-8.61-4.467-8.676-24.48-.228-51.239-5.977-62.371 25.927-.116.332-.655.516-.996.77zm-7.174 84.01c.413-4.44 3.462-4.869 6.98-4.587l14.556 20.725c2.745 3.905 5.72 7.333 11.138 7.308 13.57-.062 27.14.025 40.71.005 3.836-.006 7.833-.9 4.132-5.601-14.07-17.87-22.82-39.843-41.6-54.07l-.03-3.602a10.776 10.776 0 0 1 10.01 4.538c14.523 20.091 28.82 40.348 44.95 63.023-22.654 0-41.979.087-61.302-.042-7.721-.052-9.738-7.122-13.91-11.699-5.012-5.498-4.94-16.088-15.634-15.998zm457.403-3.026c-6.958-1.151-10.104-5.367-9.786-12.282.307-6.68 4.02-9.803 10.56-9.764 7.446.044 10.723 4.632 10.695 11.265-.03 7.05-4.628 10.339-11.47 10.78zM81.226 67.345l-.066-.154c-4.25 3.882-5.165 8.964-5.177 14.372l.07-.07c-2.396.399-4.781.883-7.19 1.181-5.23.649-8.961-1.514-11.066-6.316-1.726-3.937-.642-7.382 2.22-10.372 3.694-3.861 7.834-4.571 12.452-1.67 2.683 1.685 4.746 5.176 8.757 3.03zM671.571 11.53c.032 6.84-3.575 9.912-9.35 10.092-6.152.193-9.3-3.814-9.464-9.515-.174-6.037 3.566-9.262 9.484-9.387 6.154-.13 9.155 3.326 9.33 8.81z"/><path fill="#fefefe" d="M116.886 80.629c18.78 14.228 27.53 36.2 41.6 54.07 3.702 4.702-.296 5.596-4.132 5.602-13.57.02-27.14-.067-40.71-.005-5.418.025-8.393-3.403-11.138-7.308q-7.28-10.36-14.556-20.725c4.682-18.738 15.395-30.448 28.936-31.634zM88.144 32.84c.341-.253.88-.437.996-.769C100.272.167 127.031 5.917 151.51 6.144c7.073.066 8.237 3.197 4.468 8.676-9.868 14.346-19.753 28.683-29.785 42.915-4.089 5.801-10.54 6.656-16.997 7.193C98.401 56.712 91.102 46.2 88.144 32.84zm518.412 41.351c4.868-.616 8.502.397 8.185 7.182a18.911 18.911 0 0 1-18.869 18.202c-7.83.138-13.427-2.58-13.35-11.347.073-8.582 9.577-14.074 24.034-14.037zm-162.115-1.938c-.11 5.518-.064 11.021-2.559 16.212-3.281 6.827-8.717 10.305-16.122 10.537-7.416.232-13.35-2.705-16.548-9.65-5.277-11.461-4.96-23.188-.072-34.588 2.742-6.396 8.3-9.136 15.417-9.266 7.607-.14 13.067 2.862 16.75 9.408 3.054 5.427 3.16 11.37 3.134 17.347z"/></svg>