<svg xmlns="http://www.w3.org/2000/svg" role="img" viewBox="-9.36 -9.36 486.72 196.22"><path fill="#2b2f31" d="M86.362 30.948l-13.066-7.404-26.32 53.332-28.073-53.332L5.66 30.948l33.37 62.69c-.239.595-1.004 2.237-2.29 4.956a262.727 262.727 0 0 1-4.063 7.773c-2.48 4.474-4.998 8.112-7.591 10.943-2.59 2.945-5.24 5.295-7.958 7.065a34.939 34.939 0 0 1-8.466 4.063c-2.832.934-5.72 1.7-8.663 2.294l6.017 12.544c1.885-.241 4.403-.836 7.588-1.77 3.3-.82 6.881-2.422 10.773-4.771 3.88-2.35 7.832-5.706 11.823-10.066 4.134-4.361 7.955-10.123 11.482-17.301l38.679-78.42m71.44 39.033c0 4.12-.705 7.943-2.124 11.483-1.417 3.524-3.354 6.596-5.816 9.173-2.366 2.478-5.184 4.474-8.481 6.017-3.187 1.402-6.656 2.11-10.42 2.11-3.765 0-7.307-.708-10.591-2.11-3.298-1.543-6.187-3.54-8.665-6.017-2.35-2.577-4.233-5.649-5.647-9.173-1.417-3.54-2.123-7.363-2.123-11.483s.706-7.942 2.123-11.482c1.414-3.525 3.297-6.583 5.647-9.174a25.904 25.904 0 0 1 8.665-6.002c3.284-1.544 6.826-2.308 10.591-2.308 3.764 0 7.233.764 10.42 2.308a24.135 24.135 0 0 1 8.481 6.002c2.462 2.591 4.399 5.649 5.816 9.174 1.419 3.54 2.124 7.362 2.124 11.482m16.423 0c0-6.116-1.116-11.836-3.357-17.131-2.123-5.295-5.124-9.88-9.003-13.775-3.892-3.879-8.48-6.882-13.776-9.004-5.295-2.238-11.013-3.355-17.128-3.355-6.118 0-11.837 1.117-17.132 3.355-5.296 2.122-9.894 5.125-13.777 9.004-3.878 3.894-6.952 8.48-9.187 13.775-2.237 5.295-3.357 11.015-3.357 17.131s1.12 11.836 3.357 17.131c2.235 5.182 5.31 9.713 9.187 13.591 3.883 3.894 8.481 6.952 13.777 9.189 5.295 2.124 11.014 3.186 17.132 3.186 6.115 0 11.833-1.062 17.128-3.186 5.296-2.237 9.884-5.295 13.776-9.189 3.879-3.878 6.88-8.41 9.003-13.591 2.241-5.295 3.357-11.015 3.357-17.13m215.919-.001c0 4.12-.707 7.943-2.123 11.483-1.416 3.524-3.356 6.596-5.833 9.173-2.351 2.478-5.167 4.474-8.466 6.017-3.186 1.402-6.654 2.11-10.42 2.11s-7.306-.708-10.605-2.11c-3.284-1.543-6.172-3.54-8.65-6.017-2.35-2.577-4.233-5.649-5.649-9.173-1.416-3.54-2.124-7.363-2.124-11.483s.708-7.942 2.124-11.482c1.416-3.525 3.299-6.583 5.65-9.174a25.976 25.976 0 0 1 8.649-6.002c3.299-1.544 6.839-2.308 10.605-2.308s7.234.764 10.42 2.308a23.92 23.92 0 0 1 8.466 6.002c2.477 2.591 4.417 5.649 5.833 9.174 1.416 3.54 2.123 7.362 2.123 11.482m16.424 0c0-6.116-1.119-11.836-3.356-17.131-2.124-5.295-5.126-9.88-9.004-13.775-3.894-3.879-8.48-6.882-13.776-9.004-5.295-2.238-11.014-3.355-17.13-3.355-6.13 0-11.836 1.117-17.132 3.355-5.294 2.122-9.896 5.125-13.774 9.004-3.88 3.894-6.952 8.48-9.19 13.775-2.236 5.295-3.354 11.015-3.354 17.131s1.118 11.836 3.354 17.131c2.238 5.182 5.31 9.713 9.19 13.591 3.878 3.894 8.48 6.952 13.774 9.189 5.296 2.124 11.002 3.186 17.132 3.186 6.116 0 11.835-1.062 17.13-3.186 5.296-2.237 9.882-5.295 13.776-9.189 3.878-3.878 6.88-8.41 9.004-13.591 2.237-5.295 3.356-11.015 3.356-17.13"/><path fill="#6796d6" d="M468.265 69.896a8.97 8.97 0 0 1-8.976 8.976c-4.954 0-8.961-4.02-8.961-8.976 0-4.954 4.007-8.976 8.961-8.976a8.97 8.97 0 0 1 8.976 8.976"/><path fill="#2b2f31" d="M290.119 0l-15.73 8.833v19.312h-42.541c-30.71 0-49.201 14.964-49.201 42.219 0 42.331 44.101 50.316 75.462 35.182l-6.612-12.827C226.68 103.563 199.2 98.948 199.2 70.08c0-18.632 9.685-28.826 32.28-28.826h42.91v51.464c0 22.75 26.066 23.26 42.22 13.93l-6.22-12.274c-10.388 5.267-20.27 5.946-20.27-4.148V41.255h21.52v-13.11h-21.52V0M112.469 152.337h3.922c1.995-.015 3.935 1.402 3.935 3.412 0 3.355-3.794 3.88-3.794 3.88l-4.063.012v-7.304zm-5.676-4.813v29.716h5.676l.072-12.53c10.123.638 13.903-2.889 13.903-9.103 0-5.579-5.014-8.083-9.811-8.083h-9.84m108.531 14.879c0 1.458-.252 2.802-.795 4.064a9.602 9.602 0 0 1-2.122 3.213 10.425 10.425 0 0 1-3.227 2.181 10.546 10.546 0 0 1-3.979.75c-1.417 0-2.748-.255-3.965-.75a10.435 10.435 0 0 1-3.225-2.18 10.877 10.877 0 0 1-2.139-3.214 10.428 10.428 0 0 1-.793-4.064c0-1.444.268-2.79.793-4.022.536-1.244 1.247-2.336 2.139-3.254a9.788 9.788 0 0 1 3.225-2.139c1.217-.524 2.548-.793 3.965-.793 1.432 0 2.747.269 3.979.793a9.78 9.78 0 0 1 3.227 2.139 9.49 9.49 0 0 1 2.122 3.254c.543 1.233.795 2.578.795 4.022m5.777 0c0-2.124-.413-4.093-1.246-5.946-.823-1.855-1.939-3.484-3.396-4.842-1.418-1.374-3.102-2.45-5.056-3.229-1.926-.806-4.006-1.203-6.246-1.203-2.221 0-4.316.397-6.269 1.203-1.924.78-3.595 1.855-5.012 3.229-1.43 1.358-2.563 2.987-3.397 4.842-.808 1.853-1.203 3.822-1.203 5.946 0 2.152.395 4.148 1.203 5.99a15.747 15.747 0 0 0 3.397 4.84c1.417 1.374 3.088 2.45 5.012 3.228 1.953.78 4.048 1.177 6.27 1.177 2.24 0 4.32-.398 6.245-1.177 1.954-.778 3.638-1.854 5.056-3.228 1.457-1.386 2.573-3.001 3.396-4.84.833-1.842 1.246-3.838 1.246-5.99m23.176-14.823v22.524c0 .906-.666 1.912-1.77 1.94l-1.784.07.113 5.524 1.657.027c5.55.086 7.475-5.14 7.475-7.575v-22.467m42.671-.113h-18.943v29.617h19.028l-.099-4.771h-13.252v-7.73h11.086v-4.771h-11.086v-7.491h13.167l.099-4.855m46.013 2.307c-13.535-7.021-27.452-.353-27.452 12.459 0 14.144 15.701 18.816 27.621 12.26l-1.797-4.855c-12.416 6.499-19.963.453-19.963-7.405 0-9.754 9.556-12.982 19.242-7.659m21.364-7.106l-.128 4.854h9.074v24.848h5.692v-24.848h9.458l-.015-4.855m-227.132 4.828h3.936c1.981-.015 3.921 1.402 3.921 3.412 0 3.355-3.793 3.88-3.793 3.88l-4.064.012v-7.304zm-5.675-4.813v29.716h5.675v-12.784h3.752l6.57 12.784h6.44l-7.814-14.326c3.1-1.389 4.716-3.824 4.716-7.307 0-5.804-5.084-8.083-10.679-8.083h-8.66"/></svg>