<svg xmlns="http://www.w3.org/2000/svg" role="img" viewBox="4.02 327.02 986.96 342.96"><path fill="#F48320" d="M485.18 573.27c-25.18 0-48.84.05-72.5-.05-4.33-.02-9.81 1.89-12.69-.96-2.67-2.65-.55-8.05-.87-12.22-.06-.79-.15-1.57-.29-2.95-2.55 1.6-4.61 2.98-6.75 4.22-31.73 18.46-65.35 22.33-100.09 11.03-26.11-8.5-41.84-31.94-43.47-59.18-2.39-39.84 24.37-64.6 54.98-72.7 17.55-4.64 35.58-6.3 53.44-9.02 11.53-1.76 22.97-3.87 34.26-6.88 3.22-.86 3.93-2.27 3.65-5.29-1.01-10.91-6.1-16.93-16.85-19.34-7.44-1.67-14.97-1.45-22.46-.54-8.3 1.01-15.25 7.13-16.99 15.31-.74 3.48-2.21 4.45-5.71 4.51-24 .45-48 1.03-71.98 1.88-4.46.16-4.56-1.41-3.98-4.94 5.2-31.73 24.69-50.49 54.38-59.86 26.04-8.21 52.84-9.14 79.81-7.57 15.58.91 30.89 3.41 45.49 9.32 25.95 10.5 39.64 29.84 40.4 57.67.65 23.66.27 47.35.31 71.03.03 17.76.04 35.52-.01 53.28-.03 11.31-.75 22.74 7.92 33.25zm-90.56-95.39c.32-5.93.32-5.95-5.4-4-9.89 3.37-19.84 6.51-30.06 8.83-7.89 1.79-15.83 3.72-22.28 9.07-5 4.14-8.89 9.06-7.45 16.08 1.57 7.61 6.88 11.72 14.14 13.52 2.94.73 5.95 1.02 9.03.72 24.82-2.37 40.64-18.99 42.02-44.22z"/><path fill="#F48320" d="M590.9 504.64c3.2-4.39 2.73-9.05 3.29-13.37 3.58-27.36 10.2-54.08 16.72-80.83 4.12-16.9 8.22-33.81 12.08-50.78 1.02-4.46 2.91-5 9.49-4.25 23.41 2.65 47.03 2.72 70.45.2 10.99-1.18 11.63-.38 9.86 4.71-26.87 77.38-53.62 154.81-80.44 232.21-3.77 10.88-8.11 21.52-14.86 30.98-12.46 17.44-29.06 27.4-50.81 28.04-19.96.59-39.89.41-59.75-1.99-3.97-.48-5.06-1.87-4.63-6.96 1.36-16.12 1.47-32.31.08-48.42-.54-6.25.19-7.66 4.76-7.1 8.22 1.01 16.52 1.31 24.81.79 11.87-.74 15.56-5.79 11.76-16.94-14.22-41.73-28.65-83.38-43.02-125.06-9.8-28.42-19.63-56.83-29.43-85.25-1.85-5.38-1.82-5.4 3.79-5.4 26.89 0 53.78.05 80.67-.07 3.15-.01 4.82.58 5.55 4.02 8.14 38.32 18.47 76.17 24.93 114.86 1.67 9.99 3.08 20.01 4.7 30.61zm223.67-158.63c22.91.06 41.67 2.96 59.8 9.63 28.18 10.37 48.39 29.15 59.79 57.02 13.43 32.84 14.78 66.12 1.69 99.3-11.75 29.78-33.86 49.55-63.66 60.04-37.2 13.1-75.04 13.89-112.32.4-34.65-12.53-56.35-37.72-65.49-73.21-7.83-30.42-5.9-60.5 7.68-89.09 16.44-34.6 45.3-53.09 81.89-60.79 11.28-2.37 22.72-3.49 30.62-3.3zm42.26 116.16c.37-9.54-.73-20.08-4.29-30.25-5.44-15.51-16.51-23.94-32.36-24.77-16.71-.87-29.67 6.62-36.69 21.05-4.14 8.51-5.89 17.58-6.51 26.9-1.01 15.15-.04 30.09 6.33 44.16 6.67 14.72 18.34 21.89 34.6 21.63 14.53-.24 27.44-8.93 33.12-22.32 4.76-11.25 5.95-23.14 5.8-36.4z"/><path fill="#F48421" d="M94.7 555.18c7.25 0 13.3-.07 19.34.03 2.45.04 3.56-1.73 4.94-3.12 13.67-13.83 27.34-27.67 40.92-41.59 2.13-2.18 4.25-3.32 7.46-3.3 23.51.15 47.02.17 70.53-.01 3.91-.03 4.77 1.19 4.74 4.88-.18 18.6-.15 37.21-.02 55.82.03 3.35-.61 4.7-4.38 4.69-65.29-.11-130.58-.08-195.87-.09-.8 0-1.6-.1-3.71-.24 68.42-69.41 136.08-138.03 204.77-207.71 0 10.75-.48 20.14.15 29.46.49 7.21-1.93 12.2-6.97 17.27-46.26 46.53-92.28 93.31-138.36 140.03-.93.95-1.79 1.96-3.54 3.88zm-71.19 9c0-10.58.31-21.18-.13-31.75-.23-5.51 1.41-9.35 5.32-13.29 34.31-34.57 68.39-69.37 102.53-104.1 13.04-13.26 26.1-26.52 39.11-39.81.88-.9 2.23-1.58 2.21-3.58-6.23 0-12.42.02-18.61-.01-2.19-.01-3.21 1.69-4.48 2.98-13.8 13.95-27.6 27.89-41.31 41.92-1.89 1.94-3.72 2.97-6.56 2.95-20.13-.12-40.26-.14-60.38 0-3.44.02-4.65-.83-4.62-4.47.17-18.77.11-37.55.04-56.32-.01-2.67.1-4.37 3.65-4.37 63.26.12 126.51.12 189.77.15.14 0 .27.13 1.2.6L24.67 564.66c-.56-.23-.6-.25-1.16-.48zm932.68-207.03c9.22.03 16.29 7.17 16.23 16.38-.06 9.09-7.38 16.27-16.5 16.21-9.1-.06-16.28-7.34-16.26-16.48.02-9.08 7.26-16.14 16.53-16.11zm8.12 25.56c.58-.26 1.32-.36 1.7-.79 3.93-4.31 4.42-10.42 1.3-15.5-2.88-4.7-8.6-7.14-14.02-5.99-5.49 1.17-9.94 6.2-10.37 11.74-.48 6.12 2.78 11.32 8.51 13.58 5.08 2 9.62.91 12.95-3.11l-.07.07z"/><path fill="#F48421" d="M964.38 382.64c-3.15 0-5.48-1.04-6.16-4.51-.36-1.83-1.42-3.04-3.55-2.74-2.45.35-1.37 2.27-1.58 3.58-.23 1.39.48 3.29-1.94 3.33-2.37.05-2.02-1.76-2.05-3.22-.04-2.19-.01-4.38-.01-6.58 0-8.81.14-8.93 8.99-7.95 5.66.63 7.45 4.24 4.33 9.05-2.43 3.76 1.62 6 1.89 9.11.01 0 .08-.07.08-.07zm-8.25-15.06c-1.51-.01-3.05-.22-3.07 2.1-.02 1.85.55 2.8 2.54 2.66 1.86-.13 4.1-.19 4.22-2.47.1-2.09-1.96-2.3-3.69-2.29z"/></svg>