<svg xmlns="http://www.w3.org/2000/svg" role="img" viewBox="-9.71 -8.71 816.92 174.92"><defs><style>.cls-1{fill:#ff5100}</style></defs><path d="M568.416 7.418h-37.56v23.957h37.56c27.816 0 49.74 19.893 49.74 47.711 0 27.817-21.924 47.72-49.74 47.72h-37.56v23.95h37.56c41.217 0 75.323-30.656 75.323-71.67 0-41.212-34.106-71.668-75.323-71.668zm-237.733 0H293.12v23.957h37.562c27.814 0 49.742 19.893 49.742 47.711 0 27.817-21.928 47.72-49.742 47.72H293.12v23.95h37.562c41.217 0 75.322-30.656 75.322-71.67 0-41.212-34.105-71.668-75.322-71.668zm388.154 0l-74.428 143.336h27.617l46.282-94.886 45.875 94.886H792L718.837 7.418zM159.613 67.13h109.242v23.942H159.613zm0-59.712h109.242V31.36H159.613zM6 7.418h129.351V31.36H6zm153.613 119.398h109.242v23.938H159.613zm237.58 23.94h109.435v-23.952h-89.274a95.388 95.388 0 0 1-20.16 23.952zm32.365-59.696h77.003V67.124h-76.996a84.686 84.686 0 0 1-.007 23.936zm77.07-83.642H397.253a95.148 95.148 0 0 1 20.135 23.937h89.24zM6 126.814h129.44v23.942H6z" class="cls-1"/><path d="M6 126.814v.078l.076-.078H6z" class="cls-1"/><path fill="#96262c" d="M39.906 126.814l95.456-95.454h-34.034L6 126.814h33.906z"/></svg>