<svg xmlns="http://www.w3.org/2000/svg" role="img" viewBox="-5.66 71.34 411.06 102.06"><title>Zenlayer Inc (member) logo</title><style>svg {enable-background:new 0 0 400 245}</style><linearGradient id="a" x1="6.749" x2="80.223" y1="112.254" y2="141.791" gradientUnits="userSpaceOnUse"><stop offset="0" stop-color="#1dbfff"/><stop offset="1" stop-color="#1ea0f3"/></linearGradient><path fill="url(#a)" d="M54.4 90.2c-2.7-1.1-5.7-1.8-8.7-2h-1.6c-15.2 0-27.6 12.4-27.6 27.6 0 3.4.6 6.7 1.8 9.7v-1.4c0-14 11.4-25.4 25.4-25.4s25.4 11.4 25.4 25.4c0 1.5-.1 2.9-.4 4.3-.1.8-.3 1.5-.5 2.3-.8 2.8-2 5.5-3.6 7.8-6 9.4-16.5 15.6-28.4 15.6-18.3 0-33.1-14.6-33.6-32.7v1c0 23.9 19.4 43.2 43.2 43.2 5.5 0 10.8-1 15.7-2.9 12.1-6.9 20.3-19.9 20.3-34.8-.3-17.3-11.6-32.2-27.4-37.7z"/><linearGradient id="b" x1="5.016" x2="66.719" y1="108.696" y2="132.381" gradientUnits="userSpaceOnUse"><stop offset="0" stop-color="#2bcdfd"/><stop offset="1" stop-color="#87e6ff"/></linearGradient><path fill="url(#b)" d="M43.5 149.5c-13.6 0-24.6-10.6-25.3-24-1.1-3-1.8-6.3-1.8-9.7 0-15.2 12.4-27.6 27.6-27.6h1.6c-.5-.1-.9-.1-1.4-.1-1-.1-2.1-.1-3.2-.1-17 0-31.6 10.3-37.6 25-.1.3-.3.7-.4 1-.4 2.2-.7 4.4-.7 6.7v.9c.5 18.1 15.3 32.7 33.6 32.7 12 0 22.5-6.2 28.4-15.6-4.5 6.5-12.2 10.8-20.8 10.8z"/><linearGradient id="c" x1="18.16" x2="88.87" y1="92.207" y2="140.805" gradientUnits="userSpaceOnUse"><stop offset="0" stop-color="#32b4f8"/><stop offset="1" stop-color="#1073d8"/></linearGradient><path fill="url(#c)" d="M45.6 79.3C27 79.3 11.2 91 5.1 107.4c-.9 2.1-1.6 4.3-2.1 6.6.1-.3.3-.7.4-1C9.4 98.3 24 88 41 88c1.1 0 2.2 0 3.3.1.5 0 .9.1 1.4.1 3.1.2 6 .9 8.7 2 15.8 5.5 27.1 20.4 27.1 37.8 0 14.9-8.2 27.8-20.3 34.8 16.1-6.3 27.6-22 27.6-40.3 0-23.9-19.4-43.2-43.2-43.2z"/><g><path fill="#323e48" d="M142.3 107.7v3l-20.4 24.7h21.2v4.4h-28.3v-3l20.5-24.8h-19.5v-4.3h26.5zm31.7 0c2.9 0 5.3.9 7.3 2.7 2 1.8 3 4 3 6.6v6.2c-.8.4-1.5.6-2 .9-.5.2-1.1.4-1.7.6-.6.2-1.1.3-1.4.3h-17.4c-.8 0-1.5-.2-2.3-.7-.8-.5-1.7-1.2-2.9-2.2v7.5c0 1.6.6 3 1.9 4.2 1.3 1.2 2.8 1.7 4.6 1.7h10c1.8 0 3.3-.6 4.5-1.7 1.3-1.2 1.9-2.6 1.9-4.2v-.4h4.7v1.3c0 2.6-1 4.8-3.1 6.6-2 1.8-4.4 2.7-7.2 2.8h-12.3c-2.8 0-5.2-.9-7.3-2.8-2-1.8-3-4-3-6.6V117c0-2.6 1-4.8 3-6.6 2-1.8 4.5-2.7 7.3-2.7H174zm-15.6 5.7c-1.2 1.1-1.9 2.5-1.9 4.2v3.2h22.6v-3.2c0-1.7-.6-3.1-1.9-4.2-1.3-1.2-2.8-1.8-4.6-1.8H163c-1.7.1-3.3.7-4.6 1.8zm41-5.7l.8 2.9c.8-.6 1.4-1.1 2-1.4.5-.4 1.1-.7 1.7-1 .6-.3 1.1-.5 1.5-.5h10.4c2.9 0 5.3.9 7.3 2.7 2 1.8 3 4 3 6.6v22.8h-5.2V118c0-1.7-.6-3.1-1.9-4.2-1.3-1.2-2.8-1.8-4.6-1.7h-14.1v27.8h-5.2v-32.1h4.3zm38.8-14.9h5.2v46.9h-5.2V92.8zm35.3 14.9c2.9 0 5.3.9 7.3 2.7 2 1.8 3 4 3 6.6v22.7h-4.3l-.8-2.9c-.8.6-1.5 1.1-2 1.5-.5.4-1.1.7-1.7 1-.6.3-1.1.4-1.4.4H263c-2.8 0-5.2-.9-7.3-2.8-2-1.8-3-4-3-6.6v-.8c0-2.6 1-4.8 3-6.6 2-1.8 4.5-2.7 7.2-2.7h15.7v-2.6c0-1.7-.6-3.1-1.9-4.3-1.3-1.2-2.8-1.8-4.6-1.8h-16v-4h17.4zm-13.8 18.4c-1.2.9-1.9 2.2-1.9 3.9 0 1.4.6 2.7 1.9 3.8 1.3 1.1 2.8 1.6 4.6 1.6h14.3v-11.1h-14.3c-1.7 0-3.3.6-4.6 1.8zm37.9-18.4l11.9 27.6 12.4-27.6h6l-21.5 44.4h-6l4.5-7.8c.4-.7 1.1-1.6 2.2-3l-15.6-33.7h6.1zm60.2 0c2.9 0 5.3.9 7.3 2.7 2 1.8 3 4 3 6.6v6.2c-.8.4-1.5.6-2 .9-.5.2-1.1.4-1.7.6-.6.2-1.1.3-1.4.3h-17.4c-.8 0-1.5-.2-2.3-.7-.8-.5-1.7-1.2-2.9-2.2v7.5c0 1.6.6 3 1.9 4.2 1.3 1.2 2.8 1.7 4.6 1.7h10c1.8 0 3.3-.6 4.5-1.7 1.3-1.2 1.9-2.6 1.9-4.2v-.4h4.7v1.3c0 2.6-1 4.8-3.1 6.6-2 1.8-4.4 2.7-7.2 2.8h-12.3c-2.8 0-5.2-.9-7.2-2.8-2-1.8-3-4-3-6.6V117c0-2.6 1-4.8 3-6.6 2-1.8 4.5-2.7 7.2-2.7h12.4zm-15.6 5.7c-1.2 1.1-1.9 2.5-1.9 4.2v3.2H363v-3.2c0-1.7-.6-3.1-1.9-4.2-1.3-1.2-2.8-1.8-4.6-1.8h-9.6c-1.8.1-3.3.7-4.7 1.8zm41-5.7l.8 2.9c.8-.6 1.4-1.1 2-1.4.5-.4 1.1-.7 1.7-1 .6-.3 1.1-.5 1.5-.5h8.4v4.3H384v27.8h-5.2v-32.1h4.4z"/></g></svg>