<svg xmlns="http://www.w3.org/2000/svg" role="img" xmlns:xlink="http://www.w3.org/1999/xlink" viewBox="-21.32 -21.32 1108.64 573.64"><title>Zephyr Project logo</title><defs><linearGradient id="b" x1="410.04" x2="650.37" y1="186.76" y2="186.76" gradientUnits="userSpaceOnUse"><stop offset="0" stop-color="#7929d2"/><stop offset="1" stop-color="#0070c5"/></linearGradient><linearGradient id="a" x1="426.4" x2="424.39" y1="-24.95" y2="212.61" gradientUnits="userSpaceOnUse"><stop offset="0" stop-color="#00aeff"/><stop offset="1" stop-color="#9454db"/></linearGradient><linearGradient id="c" x1="558.68" x2="507.37" y1="73.55" y2="-15.32" gradientUnits="userSpaceOnUse"><stop offset="0" stop-color="#66a9dc"/><stop offset="1" stop-color="#b1e4fa"/></linearGradient><linearGradient id="d" x1="570.09" x2="599.24" y1="3.92" y2="205.55" xlink:href="#a"/></defs><path fill="#7929d2" d="M320.11 282.9l-79.39 33.52 67.5 34.09 11.89-67.61z"/><path fill="#9454db" d="M148.7 327.32l-84.69-31.7 19.63 66.58 65.06-34.88z"/><path fill="#af7fe4" d="M188.85 267.73l51.87 48.69-92.02 10.9 40.15-59.59zM74.24 221.98l-10.23 73.64L0 231.73l74.24-9.75z"/><path fill="url(#b)" d="M320.11 282.9L529.1 90.63l93.95 124.49-302.94 67.78z"/><path fill="url(#a)" d="M320.11 282.9L409.38 0 529.1 90.63 320.11 282.9z"/><path fill="url(#c)" d="M409.38 0h213.67L529.1 90.63 409.38 0z"/><path fill="url(#d)" d="M623.05 215.12V0L529.1 90.63l93.95 124.49z"/><path fill="#2d3136" d="M1032.52 366.63v19.68h-4.91v-19.68h-7.45v-4.51h19.82v4.51zm28.92 19.68v-16.24l-5.8 10.1h-2.84l-5.74-10.1v16.25h-4.75v-24.2h5.68l6.31 11.48 6.36-11.48h5.56v24.19zM408.39 493.63v-22.56l60.3-84.34h-57.45v-24.5h89.46v21.56l-60.88 85.38h62.49v24.5zm131.22-43.4q.66 13.29 6.45 19.09t18.25 5.75a40.54 40.54 0 0 0 12.68-1.8 20.27 20.27 0 0 0 9.54-6.94l18.24 13a36.93 36.93 0 0 1-15.53 12.91q-9.54 4.28-26.07 4.28-24.6 0-36.71-12.92t-12.11-39q0-53.47 47.87-53.47 21.27 0 32.43 12t11.16 35v12.06zm41.88-16.91q0-22.69-19.85-22.69a22.64 22.64 0 0 0-10.73 2.23 16.67 16.67 0 0 0-6.7 6.65q-2.52 4.41-3.94 13.81zm134.57 9.75q0 16.05-4.85 28.3t-13.86 18.71q-9 6.45-21.56 6.46-16.53 0-28.21-10.36v44.92h-24.5V394.01h22.6v9.78a58.83 58.83 0 0 1 14.39-9.26 42.06 42.06 0 0 1 17.33-3.37q18.9 0 28.78 13.29t9.88 38.62zm-25.27.38q0-14.53-5-22.65t-15-8.12a30.14 30.14 0 0 0-12.29 2.8 41.16 41.16 0 0 0-10.89 6.92v43.59a39.29 39.29 0 0 0 9.64 6.23 27.5 27.5 0 0 0 11.82 2.7q10.08 0 15.91-8.59t5.81-22.84zm107.2 50.18v-54.89q0-15.76-2.94-20.9t-10.44-5.12q-10.92 0-26.3 14.43v66.48h-24.52V352.22h24.51v54.7a56.39 56.39 0 0 1 16.62-11.77 41.81 41.81 0 0 1 17.28-4q16.71 0 23.51 9.4t6.79 26.59v66.48zm36.08 13.44a44.33 44.33 0 0 0 14.34 2.76 15.07 15.07 0 0 0 9.68-3.33q4.18-3.32 8.65-13.77l2.56-5.89-36-92.78h25.45l23.55 63.63 24.12-63.63h24.89l-42.83 106.41q-5.22 12.83-10.16 19a29 29 0 0 1-11.54 8.93q-6.6 2.76-16.57 2.75a81.53 81.53 0 0 1-21.37-2.84zm168.74-89.13a22.59 22.59 0 0 0-10.07-1.9 27 27 0 0 0-13 3.28 56.92 56.92 0 0 0-12.58 9.54v64.77h-24.51v-99.62h24.51v14.24a63.86 63.86 0 0 1 13.48-11.3 30.12 30.12 0 0 1 16.15-4.46q7.59 0 10.82 2z"/></svg>