<svg xmlns="http://www.w3.org/2000/svg" role="img" viewBox="-8.87 -8.87 461.24 195.24"><title>ZT Systems logo</title><defs><style>.cls-1{fill:#e14b26}.cls-2{fill:#494849}</style></defs><path d="M140.125.085c3.267 1.874 7.08 1.913 10.544 3.144 16.21 5.76 26.463 19.157 26.837 36.891.492 23.329.22 46.673.247 70.01q.034 30.325.004 60.65c0 6.832 0 6.832-7.078 6.832l-170.606.004Q.073 90.711 0 3.806C-.005.801.588-.008 3.737 0q68.194.186 136.388.085zM38.928 146.334c10.945-13.122 21.374-25.291 31.377-37.801 3.376-4.222 7.56-2.955 11.234-2.466 3.666.488 1.636 4.377 1.683 6.638.226 11.007.037 22.02.124 33.03.065 8.238 2.841 12.127 9.772 13.846 5.998 1.487 12.051 1.06 18.112.283 1.716-.22 2.201-1.091 2.169-2.618a27.966 27.966 0 0 1 .038-4.923c.681-4.292-.824-5.691-5.273-5.43-6.075.357-8.197-2.057-8.24-8.267-.064-9.367.21-18.743-.124-28.098-.146-4.104 1.305-4.901 5.024-4.812 8.683.207 8.495.03 8.666-8.783.07-3.58-1.122-4.326-4.454-4.277-9.129.135-9.13-.017-9.13-9.258 0-12.658.002-12.58-12.836-12.138-2.538.088-3.488.746-3.392 3.35.167 4.596-.173 9.216.118 13.799.218 3.44-.835 4.456-4.338 4.41-14.787-.195-29.579-.104-44.37-.068-3.915.009-9.115-1.295-11.413.686-2.724 2.348-.8 7.707-.865 11.75-.151 9.462-.043 9.263 9.395 9.496 3.725.092 4.976-.923 4.561-4.616-.183-1.627-1.146-4.28 2.285-4.263 4.325.022 8.65.005 13.957.005-9.724 11.734-18.472 22.786-27.799 33.326-4.436 5.014-6.657 10.14-5.939 16.808.28 2.593.674 3.746 3.61 3.722q23.663-.198 47.328-.003c2.987.023 3.63-1.215 3.51-3.822-.15-3.28-.036-6.572-.035-9.859 0-8.732-.009-8.5-8.775-8.824-4.346-.16-6.467.844-5.619 5.53.467 2.578-.371 3.847-3.364 3.713-5.244-.235-10.506-.066-16.997-.066z" class="cls-1"/><path d="M218.294 114.503c7.122.158 13.056 1.629 16.054 8.232.684 1.505 2.18 4.567-.067 5.082-2.502.574-6.089 2.443-8.255-1.412-2.25-4.005-6.85-5.484-11.289-3.75-1.593.623-3.083 1.609-3.159 3.393a3.69 3.69 0 0 0 2.894 3.574c3.103.99 6.27 1.778 9.392 2.713 9.653 2.891 13.687 7.705 12.81 15.23-.819 7.046-6.08 11.04-15.68 11.906-8.144.735-14.764-2.201-17.54-8.159-.985-2.112-3.208-4.776-.667-6.899 2.278-1.904 6.886.05 8.467 3.02 2.623 4.928 10.252 6.3 14.49 2.606 3.302-2.88 2.862-6.407-1.282-7.94-4.277-1.582-8.841-2.4-13.083-4.057-7.186-2.805-10.16-9.461-7.282-15.815s8.67-7.356 14.197-7.724z" class="cls-2"/><path fill="#464546" d="M363.533 143.068c0-3.94-.08-7.883.044-11.82.041-1.31-.915-3.463 1.1-3.736 2.116-.288 5.507-1.426 6.325.674 1.27 3.262 2.102 1.151 3.284.463 5.511-3.207 9.29-3.174 13.909.875 1.79 1.57 2.435.993 3.84-.185 3.706-3.107 7.927-3.86 12.375-1.722 4.334 2.082 5.137 5.924 5.021 10.327-.155 5.906-.228 11.83.053 17.728.157 3.306-1.542 3.316-3.882 3.19-2.218-.118-4.585.646-4.365-3.244a147.248 147.248 0 0 0-.09-16.735c-.139-2.396-.083-5.591-3.99-5.651-3.359-.052-4.962 1.76-5.77 4.87-1.436 5.523-.61 11.112-.655 16.66-.025 3.013-.534 4.22-3.952 4.221-3.517.002-4.419-1.032-4.289-4.43.213-5.565.006-11.156-.279-16.723-.103-2.026-.325-4.435-3.357-4.596-2.938-.156-5.136.752-6.085 3.785-1.763 5.63-.706 11.407-.788 17.108-.047 3.23-.202 4.888-4.33 4.903-4.383.017-4.236-2.148-4.145-5.125.11-3.61.026-7.224.026-10.837z"/><path d="M272.026 127.63c-4.521 12.317-8.908 24.616-13.57 36.808-2.012 5.261-5.892 7.225-11.702 7.11-3.007-.058-4.353-1.311-4.766-4.264-.309-2.212.07-2.664 2.42-2.69 6.068-.064 8.194-3.403 6.103-8.97-3.495-9.307-7.009-18.607-10.536-27.968 8.58-.89 8.606-.898 11.221 6.692 1.595 4.629 3.093 9.29 4.904 14.75 1.852-5.411 3.489-10.19 5.124-14.97 2.495-7.292 2.495-7.292 10.802-6.498zm30.121 7.38c-3.294.109-6.722 3.183-9.576-1.3-.497-.78-2.453-.934-3.705-.86-2.008.116-4.985-.423-5.399 2.118-.403 2.48 2.695 2.416 4.34 3.029 2.735 1.018 5.715 1.354 8.516 2.224 4.002 1.242 7.178 3.507 7.306 8.154.127 4.583-2.283 7.685-6.367 9.606-6.014 2.83-16.388 1.374-20.143-3.086-1.198-1.423-3.862-3.668-1.771-5.073 1.943-1.306 5.707-2.753 7.835.227 2.364 3.31 5.352 3.37 8.684 2.913 1.505-.206 2.873-.859 3.074-2.652.228-2.03-1.44-2.461-2.784-2.856-3.128-.92-6.376-1.455-9.471-2.464-4.397-1.435-7.62-4.174-7.228-9.253.375-4.854 3.487-7.455 8.088-8.651 9.155-2.381 16.46.58 18.6 7.924zm54.649 15.315c-2.672 7.031-7.289 9.692-15.39 8.867-7.03-.717-11.866-4.841-12.72-11.508-.516-4.025-.782-8.18.873-12.138 2.604-6.227 8.329-9.746 14.84-9.05 6.758.722 11.398 5.218 12.74 12.348 1.228 6.518 1.228 6.518-5.374 6.52-3.778 0-7.562.142-11.33-.04-3.821-.184-3.681 1.827-2.54 4.283 1.526 3.284 6.075 4.454 8.794 2.42 4.564-3.417 4.564-3.417 10.107-1.702zm-13.585-9.821c1.772-1.565 5.603 1.861 5.695-2.236.069-3.098-2.385-5.206-5.96-5.035-3.231.154-5.604 1.953-5.448 5.003.214 4.195 3.966.673 5.713 2.268zm99.601-5.71c-3.932 1.242-7.486 2.47-10.388-1.373-.376-.497-1.556-.586-2.342-.535-2.138.138-5.28-.822-5.77 2.038-.48 2.797 2.774 2.59 4.607 3.213 2.464.838 5.074 1.242 7.558 2.03 3.923 1.244 7.244 3.113 7.45 7.95.208 4.912-2.213 8.02-6.5 9.949-5.99 2.695-15.993 1.274-19.75-3.009-1.281-1.46-3.858-3.767-1.724-5.221 1.924-1.311 5.703-2.853 7.811.291 2.323 3.464 5.379 3.204 8.67 2.808a3.215 3.215 0 0 0 3.098-2.703c.227-1.89-1.497-2.374-2.877-2.763-3.139-.886-6.374-1.454-9.472-2.452-4.398-1.416-7.565-4.114-7.235-9.21.317-4.919 3.382-7.486 7.977-8.698 8.9-2.346 15.774.329 18.887 7.685zM319.64 115.882c0 3.194.103 5.326-.026 7.444-.155 2.553-.047 4.575 3.47 4.016 2.631-.42 2.316 1.612 2.248 3.221-.064 1.516.545 3.81-2.07 3.473-3.852-.497-3.76 1.733-3.646 4.373.113 2.616-.018 5.242.036 7.862.06 2.91-1.165 6.596 4.308 5.865 2.207-.295 1.385 2.134 1.507 3.407.13 1.354.504 2.757-1.663 3.416-7.547 2.293-12.333-.777-12.74-8.598-.188-3.595.083-7.214-.111-10.808-.121-2.23 1.467-5.294-2.95-5.836-1.599-.197-.914-5.62.931-6.35.867-.343 2.235-.085 2-1.466-1.103-6.482 4.6-6.798 8.706-10.018z" class="cls-2"/><path fill="#f0ae8e" d="M186.737 175.332c-1.915-.402-1.58-2.303-1.892-3.442-.523-1.912 1.187-2.908 2.814-3.114 2.328-.295 1.946 1.47 1.782 2.92-1.304.912-3.196 1.386-2.704 3.635z"/><path d="M186.737 175.332c-.492-2.25 1.4-2.724 2.704-3.637.44.769.946.234 1.433.075-2.268-.543-.365 3.162-2.718 2.67-.394-.082-.942.576-1.42.891z" class="cls-1"/></svg>