<svg id="Layer_1" data-name="Layer 1" xmlns="http://www.w3.org/2000/svg" viewBox="0 0 941.05074 265.26262"><defs><style>.cls-1{fill:none;}.cls-2{fill:#43af5a;}.cls-3{fill:#fc0;}.cls-4{fill:#d2e4f4;}.cls-5{fill:#009ade;}.cls-6{fill:#003764;}.cls-7{fill:#666;}.cls-8{fill:#333;}</style></defs><title>lf-edge-landscape</title><path class="cls-1" d="M742.36648,80.21082a8.48008,8.48008,0,0,0,2.715-6.656,9.03009,9.03009,0,0,0-2.507-6.826q-2.508-2.412-7.486-2.489h-10.068v18.403h9.804Q739.65052,82.64282,742.36648,80.21082Zm-12.083,128.324a11.505,11.505,0,0,0,3.962,9.293,15.225,15.225,0,0,0,10.182,3.349,22.21989,22.21989,0,0,0,11.275-3.076,18.612,18.612,0,0,0,7.721-7.994v-15.17h-9.908Q730.28149,194.93681,730.28348,208.53482Zm-205.609-42.297q-9.295,0-14.487,7.175-5.194,7.175-5.193,21.25,0,12.575,5.193,19.68a16.784,16.784,0,0,0,14.35,7.107q12.024,0,17.56-10.797v-33.96q-5.672-10.454-17.424-10.455Zm14.134-85.235q2.678-2.395,2.678-6.92a9.49913,9.49913,0,0,0-2.715-7.109,10.472,10.472,0,0,0-7.467-2.734h-11.727v19.157h11.463q5.09,0,7.768-2.394Zm137.415,9.974h15.914l-7.957-22.777-7.957,22.777Zm227.279,74.919a16.864,16.864,0,0,0-12.846,5.57q-5.193,5.569-6.423,15.613h37.035v-.956q-.54793-9.636-5.193-14.93-4.647-5.295-12.573-5.297Zm-515.043-101.656h-6.675v39.52h6.222q7.504,0,11.52-4.686,4.017-4.686,4.092-13.455v-3.048q0-8.92-3.884-13.625Q395.84939,64.23983,388.45944,64.23982Zm-35.845,144.295a11.505,11.505,0,0,0,3.964,9.293,15.224,15.224,0,0,0,10.181,3.349,22.22,22.22,0,0,0,11.275-3.076,18.605,18.605,0,0,0,7.721-7.994v-15.17h-9.907q-23.234,0-23.233,13.598Zm473.127-42.297q-11.47907,0-17.22,10.182v35.327q5.671,10.113,17.356,10.113a17.087,17.087,0,0,0,14.452-7.209q5.36508-7.208,5.365-21.422-.00009-12.505-5.33-19.748a17.17,17.17,0,0,0-14.623-7.243Z"/><path class="cls-2" d="M168.3457,202.05969h34.229v-29.8881c-12.12562-8.68672-24.14117-17.38219-36.03912-26.30659-3.62779-2.75212-6.37993-2.87722-10.00773.1251-6.75522,5.62935-13.88574,10.75832-20.76606,16.26257-2.87723,2.25174-5.00387,2.25174-7.6309-.50038-12.50967-12.63477-25.39462-25.01934-37.7792-37.7792-3.12742-3.25251-5.37917-3.25251-8.75677-.50039C68.9426,133.872,56.229,144.15119,43.49918,154.43413v47.6268H145.68441v31.20788h22.66127V202.06093Z"/><path class="cls-3" d="M153.90079,112.46294a25.2703,25.2703,0,1,0-25.51972-25.26953A25.47343,25.47343,0,0,0,153.90079,112.46294Z"/><path class="cls-4" d="M43.4992,99.84944v54.58345c12.72985-10.28295,25.44468-20.56214,38.0957-30.96144,3.3776-2.75212,5.62935-2.75212,8.75676.50039,12.38458,12.75986,25.26953,25.14444,37.7792,37.77921,2.627,2.75212,4.75368,2.75212,7.63091.50038,6.88032-5.50425,14.01082-10.63322,20.76606-16.26257,3.62779-3.00232,6.37994-2.87723,10.00773-.1251,11.898,8.9244,23.91348,17.62113,36.03912,26.30785V43.07681H43.43541V77.14814H10.25726V99.85069H43.4992ZM153.7757,61.92387A24.99431,24.99431,0,0,1,179.04691,86.6382q.00378.34014-.00168.6803a25.33216,25.33216,0,0,1-50.66416-.1251h0a25.06937,25.06937,0,0,1,24.86629-25.27083Q153.51153,61.92043,153.7757,61.92387Z"/><path class="cls-5" d="M145.68445,202.05969H43.4992V99.84944H10.25726V233.26757H145.68445Z"/><path class="cls-6" d="M10.25726,18.62916V77.14689H43.43541V43.07806H202.57466V202.05969h-34.229v31.20788h67.91875V9.17185H10.25726Z"/><path class="cls-7" d="M280.49828,131.32082h-13.188v99.49h60.337v-10.727h-47.149v-88.763Zm116.437,48.174q-.274-11.206-7.517-17.596-7.243-6.388-20.02-6.389a35.86494,35.86494,0,0,0-14.795,3.006,26.826,26.826,0,0,0-10.66,8.166,17.443,17.443,0,0,0-3.929,10.694h12.71q0-4.85,4.579-8.268a18.43289,18.43289,0,0,1,11.342-3.417q7.722,0,11.685,3.93,3.962,3.93,3.963,10.556v5.809h-12.3q-15.922,0-24.701,6.389-8.781,6.39-8.78,17.937a20.004,20.004,0,0,0,7.003,15.682q7.004,6.184,17.937,6.183a28.201,28.201,0,0,0,21.046-9.156q.683,5.605,1.777,7.79h13.256v-1.094q-2.597-6.011-2.596-16.194Zm-12.642,30.612a18.60489,18.60489,0,0,1-7.72,7.994,22.22005,22.22005,0,0,1-11.276,3.076,15.224,15.224,0,0,1-10.181-3.35,11.505,11.505,0,0,1-3.963-9.292q0-13.597,23.233-13.598h9.907Zm66.965-54.597a26.94,26.94,0,0,0-22.14,10.66l-.41-9.293h-11.956v73.934h12.64v-52.682a22.27011,22.27011,0,0,1,7.244-8.61,18.2461,18.2461,0,0,1,10.796-3.28q7.585,0,11.173,3.827,3.587,3.828,3.656,11.821v48.925h12.64v-48.856q-.204-26.445-23.642-26.445Zm89.377,8.883q-7.585-8.883-20.567-8.883a25.496,25.496,0,0,0-21.115,10.352q-8.064,10.352-8.063,27.367v.956q0,16.949,8.098,27.47,8.097,10.523,20.943,10.522,13.53,0,21.114-9.293l.615,7.927h11.617v-104.957h-12.642Zm0,46.26q-5.534,10.799-17.56,10.797a16.784,16.784,0,0,1-14.35-7.106q-5.194-7.106-5.193-19.68,0-14.076,5.193-21.251,5.191-7.175,14.486-7.175,11.751,0,17.424,10.455Zm76.395-17.492a68.22959,68.22959,0,0,0-15.34-5.057q-9.466-2.116-13.086-4.441a7.66593,7.66593,0,0,1-3.621-6.902,9.46392,9.46392,0,0,1,3.894-7.858q3.895-3.006,10.797-3.007a16.518,16.518,0,0,1,11.104,3.759,11.41209,11.41209,0,0,1,4.407,8.951h12.71a20.62,20.62,0,0,0-7.824-16.604q-7.82594-6.491-20.397-6.492-11.959,0-19.645,6.287-7.68805,6.287-7.688,15.375a16.34009,16.34009,0,0,0,2.7,9.43,21.67355,21.67355,0,0,0,8.336,6.832,63.66489,63.66489,0,0,0,15.238,4.92q9.599,2.05,13.461,4.886a9.31006,9.31006,0,0,1,3.86,7.96,8.924,8.924,0,0,1-4.338,7.756q-4.34007,2.905-11.514,2.904-7.78995,0-12.539-3.724a13.08314,13.08314,0,0,1-5.09-10.079h-12.643a21.158,21.158,0,0,0,3.861,12.197,25.54584,25.54584,0,0,0,10.694,8.78,37.2397,37.2397,0,0,0,15.716,3.144q12.64,0,20.568-5.979a18.92008,18.92008,0,0,0,7.926-15.887,17.39592,17.39592,0,0,0-2.835-10.079,22.38128,22.38128,0,0,0-8.713-7.072Zm42.672-20.329q5.29395-6.935,14.931-6.936a16.9,16.9,0,0,1,12.06,4.613,17.42621,17.42621,0,0,1,5.432,11.787h11.958q-.548-11.889-8.78-19.337-8.235-7.448-20.67-7.449a32.317,32.317,0,0,0-17.527,4.647,30.18,30.18,0,0,0-11.377,13.05,44.50836,44.50836,0,0,0-3.964,19.202v2.118q0,17.493,8.918,27.572,8.916,10.08,24.018,10.078a31.06524,31.06524,0,0,0,14.248-3.416,28.81283,28.81283,0,0,0,10.761-9.156,22.93419,22.93419,0,0,0,4.373-12.094h-11.958a14.42717,14.42717,0,0,1-5.602,10.249,18.21,18.21,0,0,1-11.822,4.1q-9.773,0-15.033-6.901-5.263-6.901-5.261-19.68v-2.392q0-13.119,5.295-20.055Zm114.9,6.663q-.27391-11.206-7.517-17.596-7.243-6.388-20.02-6.389a35.865,35.865,0,0,0-14.794,3.006,26.81684,26.81684,0,0,0-10.66,8.166,17.44425,17.44425,0,0,0-3.93,10.694h12.71q.00009-4.85,4.579-8.268a18.43407,18.43407,0,0,1,11.343-3.417q7.7211,0,11.684,3.93t3.964,10.556v5.809h-12.3q-15.922,0-24.702,6.389-8.78,6.39-8.78,17.937a20.004,20.004,0,0,0,7.004,15.682q7.003,6.184,17.936,6.183a28.203,28.203,0,0,0,21.047-9.156q.681,5.605,1.777,7.79h13.256v-1.094q-2.59809-6.011-2.597-16.194Zm-12.64,30.612a18.612,18.612,0,0,1-7.722,7.994,22.21987,22.21987,0,0,1-11.275,3.076,15.22512,15.22512,0,0,1-10.182-3.35,11.505,11.505,0,0,1-3.962-9.292q0-13.597,23.232-13.598h9.908Zm66.075-54.597q-13.7341,0-21.456,9.567l-.615-8.2h-11.548v102.36h12.642v-35.6q7.72,8.542,21.182,8.54,13.18707,0,20.91-10.317,7.71992-10.317,7.721-27.196v-1.161q0-17.902-7.756-27.949-7.75608-10.044-21.08-10.044Zm10.83,59.141a17.087,17.087,0,0,1-14.452,7.21q-11.683,0-17.355-10.114v-35.328q5.74-10.181,17.219-10.182a17.17,17.17,0,0,1,14.623,7.243q5.33,7.244,5.33,19.748,0,14.214-5.365,21.422Zm63.173-59.141a29.54708,29.54708,0,0,0-16.365,4.886,32.77016,32.77016,0,0,0-11.753,13.53,44.37,44.37,0,0,0-4.203,19.645v2.323q0,16.537,9.43,26.41,9.42993,9.875,24.463,9.873,18.586,0,27.878-14.28l-7.72-6.013a28.48521,28.48521,0,0,1-8.132,7.243,22.01914,22.01914,0,0,1-11.343,2.733,20.08205,20.08205,0,0,1-15.546-6.73q-6.115-6.73-6.388-17.664h50.087v-5.262q0-17.697-7.996-27.196-7.993-9.498-22.412-9.498Zm17.766,31.569h-37.035q1.23-10.045,6.423-15.613a16.864,16.864,0,0,1,12.846-5.57q7.925,0,12.573,5.296,4.64594,5.297,5.193,14.93Z"/><path class="cls-8" d="M284.21457,92.82273h44.16358v13.62988H267.31028V9.17185h16.90429Z"/><path class="cls-8" d="M397.3967,65.36228H358.24387v41.09033h-16.9043V9.17185H403.1428V22.80173H358.24387V51.7324H397.3967Z"/><path class="cls-8" d="M507.43821,63.0239H467.48362V92.82273h46.70263v13.62988H450.5803V9.17185h63.13818V22.80173H467.48362V49.66111h39.95459Z"/><path class="cls-8" d="M527.94992,106.45261V9.17185h28.7295a45.06662,45.06662,0,0,1,22.88379,5.74609A39.19877,39.19877,0,0,1,595.031,31.22019a51.76592,51.76592,0,0,1,5.47851,24.187v4.87695q0,13.83106-5.51269,24.32032a38.7043,38.7043,0,0,1-15.70117,16.16894,47.14362,47.14362,0,0,1-23.35059,5.6792Zm16.90332-83.65088v70.021h11.02442q13.29492,0,20.41211-8.30274,7.11474-8.30273,7.249-23.83984V55.27878q0-15.80419-6.88183-24.14062-6.88184-8.3357-19.97754-8.33643Z"/><path class="cls-8" d="M691.91086,93.82468A32.31513,32.31513,0,0,1,677.279,104.24753,59.70225,59.70225,0,0,1,656.032,107.789a41.85966,41.85966,0,0,1-21.64747-5.5459A36.93994,36.93994,0,0,1,619.85227,86.375q-5.11085-10.32275-5.31153-24.08642v-7.6167q0-22.04809,10.55665-34.44238Q635.653,7.83689,654.56223,7.83542q16.23633,0,25.79,8.05127,9.55371,8.05226,11.49219,23.15088H675.27414Q672.469,21.466,654.89621,21.46579q-11.35839,0-17.27148,8.1626-5.91212,8.16138-6.11328,23.95264v7.4624q0,15.7251,6.64844,24.42041,6.64746,8.69532,18.47363,8.69483,12.96093,0,18.44043-5.84815V69.37107H655.03V56.54294h36.88086Z"/><path class="cls-8" d="M767.34348,63.0239H727.3884V92.82273h46.70313v13.62988H710.48508V9.17185h63.13867V22.80173H727.3884V49.66111h39.95508Z"/></svg>