<?xml version="1.0" encoding="utf-8"?>
<!-- Generator: Adobe Illustrator 23.0.1, SVG Export Plug-In . SVG Version: 6.00 Build 0)  -->
<svg version="1.1" id="Layer_1" xmlns="http://www.w3.org/2000/svg" xmlns:xlink="http://www.w3.org/1999/xlink" x="0px" y="0px"
	 viewBox="0 0 471.26 70.21" style="enable-background:new 0 0 471.26 70.21;" xml:space="preserve">
<style type="text/css">
	.st0{opacity:0.8;fill:#FFFFFF;}
	.st1{fill:#FFFFFF;}
	.st2{fill:#58595B;}
	.st3{fill:#231F20;}
	.st4{fill:#009ADE;}
	.st5{fill:#003764;}
</style>
<polygon class="st4" points="14.91,55.96 14.91,28.01 0,28.01 0,69.93 44.66,69.93 44.66,55.96 "/>
<polygon class="st5" points="74.41,0.04 0.01,0.04 0.01,21.01 14.89,21.01 14.89,14.08 59.53,14.08 59.53,55.96 52.1,55.96 
	52.1,69.93 74.41,69.93 "/>
<g>
	<path class="st5" d="M94.07,0.04h22.67v51.98h32.56v17.91H94.07V0.04z"/>
	<path class="st5" d="M158.97,0.04h56.87v17.91h-34.2v8.71H211v16.64h-29.36v26.63h-22.67V0.04z"/>
</g>
<path class="st4" d="M233.74,0.04h46.52v5.68h-40.11v25.25h37.56v5.68h-37.56v27.61h40.58v5.68h-46.99V0.04z"/>
<path class="st4" d="M289.7,0.04h23.31c20.38,0.49,30.95,11.84,30.95,34.95c0,23.1-10.57,34.46-30.95,34.95H289.7V0.04z
	 M296.11,64.25h13.68c19.35,0,27.74-8.32,27.74-29.27c0-20.95-8.4-29.27-27.74-29.27h-13.68V64.25z"/>
<path class="st4" d="M411.9,68.79h-4.62l-0.85-12.27h-0.19c-4.53,9.63-13.59,13.68-23.31,13.68c-21.23,0-31.8-16.61-31.8-35.1
	c0-18.5,10.57-35.1,31.8-35.1c14.15,0,25.57,7.64,28.12,22.36h-6.42c-0.75-7.74-8.96-16.89-21.7-16.89
	c-17.83,0-25.38,14.91-25.38,29.63c0,14.72,7.55,29.63,25.38,29.63c14.91,0,23.59-10.38,23.31-24.72h-22.93v-5.47h28.59V68.79z"/>
<path class="st4" d="M424.27,0h46.52v5.68h-40.11v25.27h37.56v5.68h-37.56v27.62h40.58v5.68h-46.99V0z"/>
</svg>
